G04 #@! TF.GenerationSoftware,KiCad,Pcbnew,(5.1.0-0)*
G04 #@! TF.CreationDate,2019-04-23T10:34:18-07:00*
G04 #@! TF.ProjectId,TestPanel1,54657374-5061-46e6-956c-312e6b696361,rev?*
G04 #@! TF.SameCoordinates,Original*
G04 #@! TF.FileFunction,Soldermask,Bot*
G04 #@! TF.FilePolarity,Negative*
%FSLAX46Y46*%
G04 Gerber Fmt 4.6, Leading zero omitted, Abs format (unit mm)*
G04 Created by KiCad (PCBNEW (5.1.0-0)) date 2019-04-23 10:34:18*
%MOMM*%
%LPD*%
G04 APERTURE LIST*
%ADD10C,0.900000*%
%ADD11R,2.400000X6.400000*%
%ADD12O,3.400000X1.650000*%
%ADD13C,0.300000*%
%ADD14C,0.050000*%
G04 APERTURE END LIST*
D10*
X136814000Y-193859000D03*
X137814000Y-193859000D03*
X135814000Y-193859000D03*
X134814000Y-193859000D03*
X134800000Y-190672000D03*
X135800000Y-190672000D03*
X137800000Y-190672000D03*
X136800000Y-190672000D03*
X248055000Y-190658000D03*
X249055000Y-190658000D03*
X247055000Y-190658000D03*
X246055000Y-190658000D03*
X246069000Y-193845000D03*
X247069000Y-193845000D03*
X249069000Y-193845000D03*
X248069000Y-193845000D03*
X248058000Y-173115000D03*
X249058000Y-173115000D03*
X247058000Y-173115000D03*
X246058000Y-173115000D03*
X246072000Y-177360000D03*
X247072000Y-177360000D03*
X249072000Y-177360000D03*
X248072000Y-177360000D03*
X136790000Y-173115000D03*
X137790000Y-173115000D03*
X135790000Y-173115000D03*
X134790000Y-173115000D03*
X134804000Y-177360000D03*
X135804000Y-177360000D03*
X137804000Y-177360000D03*
X136804000Y-177360000D03*
X150899000Y-149606000D03*
X151899000Y-149606000D03*
X149899000Y-149606000D03*
X148899000Y-149606000D03*
X148913000Y-153851000D03*
X149913000Y-153851000D03*
X151913000Y-153851000D03*
X150913000Y-153851000D03*
X260143000Y-149613000D03*
X261143000Y-149613000D03*
X263143000Y-149613000D03*
X262143000Y-149613000D03*
X262157000Y-153858000D03*
X263157000Y-153858000D03*
X261157000Y-153858000D03*
X260157000Y-153858000D03*
X361406000Y-150808000D03*
X362406000Y-150808000D03*
X364406000Y-150808000D03*
X363406000Y-150808000D03*
X363406000Y-152638000D03*
X364406000Y-152638000D03*
X362406000Y-152638000D03*
X361406000Y-152638000D03*
X335237000Y-173102000D03*
X336237000Y-173102000D03*
X334237000Y-173102000D03*
X333237000Y-173102000D03*
X335223000Y-176161000D03*
X336223000Y-176161000D03*
X334223000Y-176161000D03*
X333223000Y-176161000D03*
X333237000Y-190664000D03*
X334237000Y-190664000D03*
X336237000Y-190664000D03*
X335237000Y-190664000D03*
X335237000Y-192665000D03*
X336237000Y-192665000D03*
X334237000Y-192665000D03*
X333237000Y-192665000D03*
X68661000Y-190656000D03*
X69661000Y-190656000D03*
X71661000Y-190656000D03*
X70661000Y-190656000D03*
X70661000Y-192486000D03*
X71661000Y-192486000D03*
X69661000Y-192486000D03*
X68661000Y-192486000D03*
X68668000Y-174332000D03*
X69668000Y-174332000D03*
X71668000Y-174332000D03*
X70668000Y-174332000D03*
X70668000Y-176162000D03*
X71668000Y-176162000D03*
X69668000Y-176162000D03*
X68668000Y-176162000D03*
X68650000Y-152647000D03*
X69650000Y-152647000D03*
X71650000Y-152647000D03*
X70650000Y-152647000D03*
X70650000Y-150817000D03*
X71650000Y-150817000D03*
X69650000Y-150817000D03*
X68650000Y-150817000D03*
D11*
X135709980Y-200474000D03*
X132709980Y-200474000D03*
X138709980Y-200474000D03*
X269043260Y-200474000D03*
X266043260Y-200474000D03*
X272043260Y-200474000D03*
D12*
X79460000Y-199724000D03*
X79460000Y-201724000D03*
X79460000Y-203724000D03*
X79460000Y-205724000D03*
D11*
X222043280Y-200474000D03*
X216043280Y-200474000D03*
X219043280Y-200474000D03*
X188709960Y-200474000D03*
X182709960Y-200474000D03*
X185709960Y-200474000D03*
X202376620Y-200474000D03*
X199376620Y-200474000D03*
X205376620Y-200474000D03*
D12*
X327375588Y-199724000D03*
X327375588Y-201724000D03*
X327375588Y-203724000D03*
X327375588Y-205724000D03*
X75293335Y-202474000D03*
X75293335Y-204474000D03*
D13*
X326651636Y-196874000D03*
D14*
G36*
X326112618Y-197820157D02*
G01*
X326075099Y-197808776D01*
X326040522Y-197790294D01*
X326010215Y-197765421D01*
X325985342Y-197735114D01*
X325966860Y-197700537D01*
X325955479Y-197663018D01*
X325951636Y-197624000D01*
X325951636Y-196124000D01*
X325955479Y-196084982D01*
X325966860Y-196047463D01*
X325985342Y-196012886D01*
X326010215Y-195982579D01*
X326040522Y-195957706D01*
X326075099Y-195939224D01*
X326112618Y-195927843D01*
X326151636Y-195924000D01*
X327301636Y-195924000D01*
X327340654Y-195927843D01*
X327378173Y-195939224D01*
X327412750Y-195957706D01*
X327443057Y-195982579D01*
X327467930Y-196012886D01*
X327486412Y-196047463D01*
X327497793Y-196084982D01*
X327501636Y-196124000D01*
X327497793Y-196163018D01*
X327486412Y-196200537D01*
X327468046Y-196234940D01*
X327042006Y-196874000D01*
X327468046Y-197513060D01*
X327486492Y-197547657D01*
X327497834Y-197585187D01*
X327501636Y-197624209D01*
X327497752Y-197663223D01*
X327486332Y-197700730D01*
X327467814Y-197735288D01*
X327442909Y-197765569D01*
X327412576Y-197790410D01*
X327377979Y-197808856D01*
X327340449Y-197820198D01*
X327301636Y-197824000D01*
X326151636Y-197824000D01*
X326112618Y-197820157D01*
X326112618Y-197820157D01*
G37*
D13*
X328101636Y-196874000D03*
D14*
G36*
X327562618Y-197820157D02*
G01*
X327525099Y-197808776D01*
X327490522Y-197790294D01*
X327460215Y-197765421D01*
X327435226Y-197734940D01*
X326935226Y-196984940D01*
X326916780Y-196950343D01*
X326905438Y-196912813D01*
X326901636Y-196873791D01*
X326905520Y-196834777D01*
X326916940Y-196797270D01*
X326935226Y-196763060D01*
X327435226Y-196013060D01*
X327460067Y-195982727D01*
X327490348Y-195957822D01*
X327524906Y-195939304D01*
X327562413Y-195927884D01*
X327601636Y-195924000D01*
X328601636Y-195924000D01*
X328640654Y-195927843D01*
X328678173Y-195939224D01*
X328712750Y-195957706D01*
X328743057Y-195982579D01*
X328767930Y-196012886D01*
X328786412Y-196047463D01*
X328797793Y-196084982D01*
X328801636Y-196124000D01*
X328801636Y-197624000D01*
X328797793Y-197663018D01*
X328786412Y-197700537D01*
X328767930Y-197735114D01*
X328743057Y-197765421D01*
X328712750Y-197790294D01*
X328678173Y-197808776D01*
X328640654Y-197820157D01*
X328601636Y-197824000D01*
X327601636Y-197824000D01*
X327562618Y-197820157D01*
X327562618Y-197820157D01*
G37*
D13*
X311685000Y-197074000D03*
D14*
G36*
X311145982Y-198020157D02*
G01*
X311108463Y-198008776D01*
X311073886Y-197990294D01*
X311043579Y-197965421D01*
X311018706Y-197935114D01*
X311000224Y-197900537D01*
X310988843Y-197863018D01*
X310985000Y-197824000D01*
X310985000Y-196324000D01*
X310988843Y-196284982D01*
X311000224Y-196247463D01*
X311018706Y-196212886D01*
X311043579Y-196182579D01*
X311073886Y-196157706D01*
X311108463Y-196139224D01*
X311145982Y-196127843D01*
X311185000Y-196124000D01*
X312335000Y-196124000D01*
X312374018Y-196127843D01*
X312411537Y-196139224D01*
X312446114Y-196157706D01*
X312476421Y-196182579D01*
X312501294Y-196212886D01*
X312519776Y-196247463D01*
X312531157Y-196284982D01*
X312535000Y-196324000D01*
X312531157Y-196363018D01*
X312519776Y-196400537D01*
X312501410Y-196434940D01*
X312075370Y-197074000D01*
X312501410Y-197713060D01*
X312519856Y-197747657D01*
X312531198Y-197785187D01*
X312535000Y-197824209D01*
X312531116Y-197863223D01*
X312519696Y-197900730D01*
X312501178Y-197935288D01*
X312476273Y-197965569D01*
X312445940Y-197990410D01*
X312411343Y-198008856D01*
X312373813Y-198020198D01*
X312335000Y-198024000D01*
X311185000Y-198024000D01*
X311145982Y-198020157D01*
X311145982Y-198020157D01*
G37*
D13*
X313135000Y-197074000D03*
D14*
G36*
X312595982Y-198020157D02*
G01*
X312558463Y-198008776D01*
X312523886Y-197990294D01*
X312493579Y-197965421D01*
X312468590Y-197934940D01*
X311968590Y-197184940D01*
X311950144Y-197150343D01*
X311938802Y-197112813D01*
X311935000Y-197073791D01*
X311938884Y-197034777D01*
X311950304Y-196997270D01*
X311968590Y-196963060D01*
X312468590Y-196213060D01*
X312493431Y-196182727D01*
X312523712Y-196157822D01*
X312558270Y-196139304D01*
X312595777Y-196127884D01*
X312635000Y-196124000D01*
X313635000Y-196124000D01*
X313674018Y-196127843D01*
X313711537Y-196139224D01*
X313746114Y-196157706D01*
X313776421Y-196182579D01*
X313801294Y-196212886D01*
X313819776Y-196247463D01*
X313831157Y-196284982D01*
X313835000Y-196324000D01*
X313835000Y-197824000D01*
X313831157Y-197863018D01*
X313819776Y-197900537D01*
X313801294Y-197935114D01*
X313776421Y-197965421D01*
X313746114Y-197990294D01*
X313711537Y-198008776D01*
X313674018Y-198020157D01*
X313635000Y-198024000D01*
X312635000Y-198024000D01*
X312595982Y-198020157D01*
X312595982Y-198020157D01*
G37*
D13*
X80135000Y-196974000D03*
D14*
G36*
X80674018Y-196027843D02*
G01*
X80711537Y-196039224D01*
X80746114Y-196057706D01*
X80776421Y-196082579D01*
X80801294Y-196112886D01*
X80819776Y-196147463D01*
X80831157Y-196184982D01*
X80835000Y-196224000D01*
X80835000Y-197724000D01*
X80831157Y-197763018D01*
X80819776Y-197800537D01*
X80801294Y-197835114D01*
X80776421Y-197865421D01*
X80746114Y-197890294D01*
X80711537Y-197908776D01*
X80674018Y-197920157D01*
X80635000Y-197924000D01*
X79485000Y-197924000D01*
X79445982Y-197920157D01*
X79408463Y-197908776D01*
X79373886Y-197890294D01*
X79343579Y-197865421D01*
X79318706Y-197835114D01*
X79300224Y-197800537D01*
X79288843Y-197763018D01*
X79285000Y-197724000D01*
X79288843Y-197684982D01*
X79300224Y-197647463D01*
X79318590Y-197613060D01*
X79744630Y-196974000D01*
X79318590Y-196334940D01*
X79300144Y-196300343D01*
X79288802Y-196262813D01*
X79285000Y-196223791D01*
X79288884Y-196184777D01*
X79300304Y-196147270D01*
X79318822Y-196112712D01*
X79343727Y-196082431D01*
X79374060Y-196057590D01*
X79408657Y-196039144D01*
X79446187Y-196027802D01*
X79485000Y-196024000D01*
X80635000Y-196024000D01*
X80674018Y-196027843D01*
X80674018Y-196027843D01*
G37*
D13*
X78685000Y-196974000D03*
D14*
G36*
X79224018Y-196027843D02*
G01*
X79261537Y-196039224D01*
X79296114Y-196057706D01*
X79326421Y-196082579D01*
X79351410Y-196113060D01*
X79851410Y-196863060D01*
X79869856Y-196897657D01*
X79881198Y-196935187D01*
X79885000Y-196974209D01*
X79881116Y-197013223D01*
X79869696Y-197050730D01*
X79851410Y-197084940D01*
X79351410Y-197834940D01*
X79326569Y-197865273D01*
X79296288Y-197890178D01*
X79261730Y-197908696D01*
X79224223Y-197920116D01*
X79185000Y-197924000D01*
X78185000Y-197924000D01*
X78145982Y-197920157D01*
X78108463Y-197908776D01*
X78073886Y-197890294D01*
X78043579Y-197865421D01*
X78018706Y-197835114D01*
X78000224Y-197800537D01*
X77988843Y-197763018D01*
X77985000Y-197724000D01*
X77985000Y-196224000D01*
X77988843Y-196184982D01*
X78000224Y-196147463D01*
X78018706Y-196112886D01*
X78043579Y-196082579D01*
X78073886Y-196057706D01*
X78108463Y-196039224D01*
X78145982Y-196027843D01*
X78185000Y-196024000D01*
X79185000Y-196024000D01*
X79224018Y-196027843D01*
X79224018Y-196027843D01*
G37*
D13*
X92035000Y-197674000D03*
D14*
G36*
X92574018Y-196727843D02*
G01*
X92611537Y-196739224D01*
X92646114Y-196757706D01*
X92676421Y-196782579D01*
X92701294Y-196812886D01*
X92719776Y-196847463D01*
X92731157Y-196884982D01*
X92735000Y-196924000D01*
X92735000Y-198424000D01*
X92731157Y-198463018D01*
X92719776Y-198500537D01*
X92701294Y-198535114D01*
X92676421Y-198565421D01*
X92646114Y-198590294D01*
X92611537Y-198608776D01*
X92574018Y-198620157D01*
X92535000Y-198624000D01*
X91385000Y-198624000D01*
X91345982Y-198620157D01*
X91308463Y-198608776D01*
X91273886Y-198590294D01*
X91243579Y-198565421D01*
X91218706Y-198535114D01*
X91200224Y-198500537D01*
X91188843Y-198463018D01*
X91185000Y-198424000D01*
X91188843Y-198384982D01*
X91200224Y-198347463D01*
X91218590Y-198313060D01*
X91644630Y-197674000D01*
X91218590Y-197034940D01*
X91200144Y-197000343D01*
X91188802Y-196962813D01*
X91185000Y-196923791D01*
X91188884Y-196884777D01*
X91200304Y-196847270D01*
X91218822Y-196812712D01*
X91243727Y-196782431D01*
X91274060Y-196757590D01*
X91308657Y-196739144D01*
X91346187Y-196727802D01*
X91385000Y-196724000D01*
X92535000Y-196724000D01*
X92574018Y-196727843D01*
X92574018Y-196727843D01*
G37*
D13*
X90585000Y-197674000D03*
D14*
G36*
X91124018Y-196727843D02*
G01*
X91161537Y-196739224D01*
X91196114Y-196757706D01*
X91226421Y-196782579D01*
X91251410Y-196813060D01*
X91751410Y-197563060D01*
X91769856Y-197597657D01*
X91781198Y-197635187D01*
X91785000Y-197674209D01*
X91781116Y-197713223D01*
X91769696Y-197750730D01*
X91751410Y-197784940D01*
X91251410Y-198534940D01*
X91226569Y-198565273D01*
X91196288Y-198590178D01*
X91161730Y-198608696D01*
X91124223Y-198620116D01*
X91085000Y-198624000D01*
X90085000Y-198624000D01*
X90045982Y-198620157D01*
X90008463Y-198608776D01*
X89973886Y-198590294D01*
X89943579Y-198565421D01*
X89918706Y-198535114D01*
X89900224Y-198500537D01*
X89888843Y-198463018D01*
X89885000Y-198424000D01*
X89885000Y-196924000D01*
X89888843Y-196884982D01*
X89900224Y-196847463D01*
X89918706Y-196812886D01*
X89943579Y-196782579D01*
X89973886Y-196757706D01*
X90008463Y-196739224D01*
X90045982Y-196727843D01*
X90085000Y-196724000D01*
X91085000Y-196724000D01*
X91124018Y-196727843D01*
X91124018Y-196727843D01*
G37*
D11*
X168910000Y-200474000D03*
X165910000Y-200474000D03*
X171910000Y-200474000D03*
X288709920Y-200474000D03*
X282709920Y-200474000D03*
X285709920Y-200474000D03*
X155376640Y-200474000D03*
X149376640Y-200474000D03*
X152376640Y-200474000D03*
D12*
X331542238Y-202474000D03*
X331542238Y-204474000D03*
D11*
X235709940Y-200474000D03*
X232709940Y-200474000D03*
X238709940Y-200474000D03*
X255376600Y-200474000D03*
X249376600Y-200474000D03*
X252376600Y-200474000D03*
X122043320Y-200474000D03*
X116043320Y-200474000D03*
X119043320Y-200474000D03*
D13*
X77685001Y-133974000D03*
D14*
G36*
X78224019Y-133027843D02*
G01*
X78261538Y-133039224D01*
X78296115Y-133057706D01*
X78326422Y-133082579D01*
X78351295Y-133112886D01*
X78369777Y-133147463D01*
X78381158Y-133184982D01*
X78385001Y-133224000D01*
X78385001Y-134724000D01*
X78381158Y-134763018D01*
X78369777Y-134800537D01*
X78351295Y-134835114D01*
X78326422Y-134865421D01*
X78296115Y-134890294D01*
X78261538Y-134908776D01*
X78224019Y-134920157D01*
X78185001Y-134924000D01*
X77035001Y-134924000D01*
X76995983Y-134920157D01*
X76958464Y-134908776D01*
X76923887Y-134890294D01*
X76893580Y-134865421D01*
X76868707Y-134835114D01*
X76850225Y-134800537D01*
X76838844Y-134763018D01*
X76835001Y-134724000D01*
X76838844Y-134684982D01*
X76850225Y-134647463D01*
X76868591Y-134613060D01*
X77294631Y-133974000D01*
X76868591Y-133334940D01*
X76850145Y-133300343D01*
X76838803Y-133262813D01*
X76835001Y-133223791D01*
X76838885Y-133184777D01*
X76850305Y-133147270D01*
X76868823Y-133112712D01*
X76893728Y-133082431D01*
X76924061Y-133057590D01*
X76958658Y-133039144D01*
X76996188Y-133027802D01*
X77035001Y-133024000D01*
X78185001Y-133024000D01*
X78224019Y-133027843D01*
X78224019Y-133027843D01*
G37*
D13*
X76235001Y-133974000D03*
D14*
G36*
X76774019Y-133027843D02*
G01*
X76811538Y-133039224D01*
X76846115Y-133057706D01*
X76876422Y-133082579D01*
X76901411Y-133113060D01*
X77401411Y-133863060D01*
X77419857Y-133897657D01*
X77431199Y-133935187D01*
X77435001Y-133974209D01*
X77431117Y-134013223D01*
X77419697Y-134050730D01*
X77401411Y-134084940D01*
X76901411Y-134834940D01*
X76876570Y-134865273D01*
X76846289Y-134890178D01*
X76811731Y-134908696D01*
X76774224Y-134920116D01*
X76735001Y-134924000D01*
X75735001Y-134924000D01*
X75695983Y-134920157D01*
X75658464Y-134908776D01*
X75623887Y-134890294D01*
X75593580Y-134865421D01*
X75568707Y-134835114D01*
X75550225Y-134800537D01*
X75538844Y-134763018D01*
X75535001Y-134724000D01*
X75535001Y-133224000D01*
X75538844Y-133184982D01*
X75550225Y-133147463D01*
X75568707Y-133112886D01*
X75593580Y-133082579D01*
X75623887Y-133057706D01*
X75658464Y-133039224D01*
X75695983Y-133027843D01*
X75735001Y-133024000D01*
X76735001Y-133024000D01*
X76774019Y-133027843D01*
X76774019Y-133027843D01*
G37*
D13*
X355401623Y-133974000D03*
D14*
G36*
X354862605Y-134920157D02*
G01*
X354825086Y-134908776D01*
X354790509Y-134890294D01*
X354760202Y-134865421D01*
X354735329Y-134835114D01*
X354716847Y-134800537D01*
X354705466Y-134763018D01*
X354701623Y-134724000D01*
X354701623Y-133224000D01*
X354705466Y-133184982D01*
X354716847Y-133147463D01*
X354735329Y-133112886D01*
X354760202Y-133082579D01*
X354790509Y-133057706D01*
X354825086Y-133039224D01*
X354862605Y-133027843D01*
X354901623Y-133024000D01*
X356051623Y-133024000D01*
X356090641Y-133027843D01*
X356128160Y-133039224D01*
X356162737Y-133057706D01*
X356193044Y-133082579D01*
X356217917Y-133112886D01*
X356236399Y-133147463D01*
X356247780Y-133184982D01*
X356251623Y-133224000D01*
X356247780Y-133263018D01*
X356236399Y-133300537D01*
X356218033Y-133334940D01*
X355791993Y-133974000D01*
X356218033Y-134613060D01*
X356236479Y-134647657D01*
X356247821Y-134685187D01*
X356251623Y-134724209D01*
X356247739Y-134763223D01*
X356236319Y-134800730D01*
X356217801Y-134835288D01*
X356192896Y-134865569D01*
X356162563Y-134890410D01*
X356127966Y-134908856D01*
X356090436Y-134920198D01*
X356051623Y-134924000D01*
X354901623Y-134924000D01*
X354862605Y-134920157D01*
X354862605Y-134920157D01*
G37*
D13*
X356851623Y-133974000D03*
D14*
G36*
X356312605Y-134920157D02*
G01*
X356275086Y-134908776D01*
X356240509Y-134890294D01*
X356210202Y-134865421D01*
X356185213Y-134834940D01*
X355685213Y-134084940D01*
X355666767Y-134050343D01*
X355655425Y-134012813D01*
X355651623Y-133973791D01*
X355655507Y-133934777D01*
X355666927Y-133897270D01*
X355685213Y-133863060D01*
X356185213Y-133113060D01*
X356210054Y-133082727D01*
X356240335Y-133057822D01*
X356274893Y-133039304D01*
X356312400Y-133027884D01*
X356351623Y-133024000D01*
X357351623Y-133024000D01*
X357390641Y-133027843D01*
X357428160Y-133039224D01*
X357462737Y-133057706D01*
X357493044Y-133082579D01*
X357517917Y-133112886D01*
X357536399Y-133147463D01*
X357547780Y-133184982D01*
X357551623Y-133224000D01*
X357551623Y-134724000D01*
X357547780Y-134763018D01*
X357536399Y-134800537D01*
X357517917Y-134835114D01*
X357493044Y-134865421D01*
X357462737Y-134890294D01*
X357428160Y-134908776D01*
X357390641Y-134920157D01*
X357351623Y-134924000D01*
X356351623Y-134924000D01*
X356312605Y-134920157D01*
X356312605Y-134920157D01*
G37*
D13*
X355400575Y-145974000D03*
D14*
G36*
X354861557Y-146920157D02*
G01*
X354824038Y-146908776D01*
X354789461Y-146890294D01*
X354759154Y-146865421D01*
X354734281Y-146835114D01*
X354715799Y-146800537D01*
X354704418Y-146763018D01*
X354700575Y-146724000D01*
X354700575Y-145224000D01*
X354704418Y-145184982D01*
X354715799Y-145147463D01*
X354734281Y-145112886D01*
X354759154Y-145082579D01*
X354789461Y-145057706D01*
X354824038Y-145039224D01*
X354861557Y-145027843D01*
X354900575Y-145024000D01*
X356050575Y-145024000D01*
X356089593Y-145027843D01*
X356127112Y-145039224D01*
X356161689Y-145057706D01*
X356191996Y-145082579D01*
X356216869Y-145112886D01*
X356235351Y-145147463D01*
X356246732Y-145184982D01*
X356250575Y-145224000D01*
X356246732Y-145263018D01*
X356235351Y-145300537D01*
X356216985Y-145334940D01*
X355790945Y-145974000D01*
X356216985Y-146613060D01*
X356235431Y-146647657D01*
X356246773Y-146685187D01*
X356250575Y-146724209D01*
X356246691Y-146763223D01*
X356235271Y-146800730D01*
X356216753Y-146835288D01*
X356191848Y-146865569D01*
X356161515Y-146890410D01*
X356126918Y-146908856D01*
X356089388Y-146920198D01*
X356050575Y-146924000D01*
X354900575Y-146924000D01*
X354861557Y-146920157D01*
X354861557Y-146920157D01*
G37*
D13*
X356850575Y-145974000D03*
D14*
G36*
X356311557Y-146920157D02*
G01*
X356274038Y-146908776D01*
X356239461Y-146890294D01*
X356209154Y-146865421D01*
X356184165Y-146834940D01*
X355684165Y-146084940D01*
X355665719Y-146050343D01*
X355654377Y-146012813D01*
X355650575Y-145973791D01*
X355654459Y-145934777D01*
X355665879Y-145897270D01*
X355684165Y-145863060D01*
X356184165Y-145113060D01*
X356209006Y-145082727D01*
X356239287Y-145057822D01*
X356273845Y-145039304D01*
X356311352Y-145027884D01*
X356350575Y-145024000D01*
X357350575Y-145024000D01*
X357389593Y-145027843D01*
X357427112Y-145039224D01*
X357461689Y-145057706D01*
X357491996Y-145082579D01*
X357516869Y-145112886D01*
X357535351Y-145147463D01*
X357546732Y-145184982D01*
X357550575Y-145224000D01*
X357550575Y-146724000D01*
X357546732Y-146763018D01*
X357535351Y-146800537D01*
X357516869Y-146835114D01*
X357491996Y-146865421D01*
X357461689Y-146890294D01*
X357427112Y-146908776D01*
X357389593Y-146920157D01*
X357350575Y-146924000D01*
X356350575Y-146924000D01*
X356311557Y-146920157D01*
X356311557Y-146920157D01*
G37*
D12*
X72793335Y-138974000D03*
X72793335Y-140974000D03*
X356125575Y-136974000D03*
X356125575Y-138974000D03*
X356125575Y-140974000D03*
X356125575Y-142974000D03*
X360292225Y-138974000D03*
X360292225Y-140974000D03*
X76960001Y-137007334D03*
X76960001Y-139007334D03*
X76960001Y-141007334D03*
X76960001Y-143007334D03*
D13*
X77835000Y-145874000D03*
D14*
G36*
X78374018Y-144927843D02*
G01*
X78411537Y-144939224D01*
X78446114Y-144957706D01*
X78476421Y-144982579D01*
X78501294Y-145012886D01*
X78519776Y-145047463D01*
X78531157Y-145084982D01*
X78535000Y-145124000D01*
X78535000Y-146624000D01*
X78531157Y-146663018D01*
X78519776Y-146700537D01*
X78501294Y-146735114D01*
X78476421Y-146765421D01*
X78446114Y-146790294D01*
X78411537Y-146808776D01*
X78374018Y-146820157D01*
X78335000Y-146824000D01*
X77185000Y-146824000D01*
X77145982Y-146820157D01*
X77108463Y-146808776D01*
X77073886Y-146790294D01*
X77043579Y-146765421D01*
X77018706Y-146735114D01*
X77000224Y-146700537D01*
X76988843Y-146663018D01*
X76985000Y-146624000D01*
X76988843Y-146584982D01*
X77000224Y-146547463D01*
X77018590Y-146513060D01*
X77444630Y-145874000D01*
X77018590Y-145234940D01*
X77000144Y-145200343D01*
X76988802Y-145162813D01*
X76985000Y-145123791D01*
X76988884Y-145084777D01*
X77000304Y-145047270D01*
X77018822Y-145012712D01*
X77043727Y-144982431D01*
X77074060Y-144957590D01*
X77108657Y-144939144D01*
X77146187Y-144927802D01*
X77185000Y-144924000D01*
X78335000Y-144924000D01*
X78374018Y-144927843D01*
X78374018Y-144927843D01*
G37*
D13*
X76385000Y-145874000D03*
D14*
G36*
X76924018Y-144927843D02*
G01*
X76961537Y-144939224D01*
X76996114Y-144957706D01*
X77026421Y-144982579D01*
X77051410Y-145013060D01*
X77551410Y-145763060D01*
X77569856Y-145797657D01*
X77581198Y-145835187D01*
X77585000Y-145874209D01*
X77581116Y-145913223D01*
X77569696Y-145950730D01*
X77551410Y-145984940D01*
X77051410Y-146734940D01*
X77026569Y-146765273D01*
X76996288Y-146790178D01*
X76961730Y-146808696D01*
X76924223Y-146820116D01*
X76885000Y-146824000D01*
X75885000Y-146824000D01*
X75845982Y-146820157D01*
X75808463Y-146808776D01*
X75773886Y-146790294D01*
X75743579Y-146765421D01*
X75718706Y-146735114D01*
X75700224Y-146700537D01*
X75688843Y-146663018D01*
X75685000Y-146624000D01*
X75685000Y-145124000D01*
X75688843Y-145084982D01*
X75700224Y-145047463D01*
X75718706Y-145012886D01*
X75743579Y-144982579D01*
X75773886Y-144957706D01*
X75808463Y-144939224D01*
X75845982Y-144927843D01*
X75885000Y-144924000D01*
X76885000Y-144924000D01*
X76924018Y-144927843D01*
X76924018Y-144927843D01*
G37*
D11*
X119043320Y-183974000D03*
X116043320Y-183974000D03*
X122043320Y-183974000D03*
X138709980Y-183974000D03*
X132709980Y-183974000D03*
X135709980Y-183974000D03*
X152376640Y-183974000D03*
X149376640Y-183974000D03*
X155376640Y-183974000D03*
X285709920Y-183974000D03*
X282709920Y-183974000D03*
X288709920Y-183974000D03*
X272043260Y-183974000D03*
X266043260Y-183974000D03*
X269043260Y-183974000D03*
X252376600Y-183974000D03*
X249376600Y-183974000D03*
X255376600Y-183974000D03*
X238709940Y-183974000D03*
X232709940Y-183974000D03*
X235709940Y-183974000D03*
X219043280Y-183974000D03*
X216043280Y-183974000D03*
X222043280Y-183974000D03*
X205376620Y-183974000D03*
X199376620Y-183974000D03*
X202376620Y-183974000D03*
X185709960Y-183974000D03*
X182709960Y-183974000D03*
X188709960Y-183974000D03*
X171910000Y-183974000D03*
X165910000Y-183974000D03*
X168910000Y-183974000D03*
D13*
X90585000Y-181174000D03*
D14*
G36*
X91124018Y-180227843D02*
G01*
X91161537Y-180239224D01*
X91196114Y-180257706D01*
X91226421Y-180282579D01*
X91251410Y-180313060D01*
X91751410Y-181063060D01*
X91769856Y-181097657D01*
X91781198Y-181135187D01*
X91785000Y-181174209D01*
X91781116Y-181213223D01*
X91769696Y-181250730D01*
X91751410Y-181284940D01*
X91251410Y-182034940D01*
X91226569Y-182065273D01*
X91196288Y-182090178D01*
X91161730Y-182108696D01*
X91124223Y-182120116D01*
X91085000Y-182124000D01*
X90085000Y-182124000D01*
X90045982Y-182120157D01*
X90008463Y-182108776D01*
X89973886Y-182090294D01*
X89943579Y-182065421D01*
X89918706Y-182035114D01*
X89900224Y-182000537D01*
X89888843Y-181963018D01*
X89885000Y-181924000D01*
X89885000Y-180424000D01*
X89888843Y-180384982D01*
X89900224Y-180347463D01*
X89918706Y-180312886D01*
X89943579Y-180282579D01*
X89973886Y-180257706D01*
X90008463Y-180239224D01*
X90045982Y-180227843D01*
X90085000Y-180224000D01*
X91085000Y-180224000D01*
X91124018Y-180227843D01*
X91124018Y-180227843D01*
G37*
D13*
X92035000Y-181174000D03*
D14*
G36*
X92574018Y-180227843D02*
G01*
X92611537Y-180239224D01*
X92646114Y-180257706D01*
X92676421Y-180282579D01*
X92701294Y-180312886D01*
X92719776Y-180347463D01*
X92731157Y-180384982D01*
X92735000Y-180424000D01*
X92735000Y-181924000D01*
X92731157Y-181963018D01*
X92719776Y-182000537D01*
X92701294Y-182035114D01*
X92676421Y-182065421D01*
X92646114Y-182090294D01*
X92611537Y-182108776D01*
X92574018Y-182120157D01*
X92535000Y-182124000D01*
X91385000Y-182124000D01*
X91345982Y-182120157D01*
X91308463Y-182108776D01*
X91273886Y-182090294D01*
X91243579Y-182065421D01*
X91218706Y-182035114D01*
X91200224Y-182000537D01*
X91188843Y-181963018D01*
X91185000Y-181924000D01*
X91188843Y-181884982D01*
X91200224Y-181847463D01*
X91218590Y-181813060D01*
X91644630Y-181174000D01*
X91218590Y-180534940D01*
X91200144Y-180500343D01*
X91188802Y-180462813D01*
X91185000Y-180423791D01*
X91188884Y-180384777D01*
X91200304Y-180347270D01*
X91218822Y-180312712D01*
X91243727Y-180282431D01*
X91274060Y-180257590D01*
X91308657Y-180239144D01*
X91346187Y-180227802D01*
X91385000Y-180224000D01*
X92535000Y-180224000D01*
X92574018Y-180227843D01*
X92574018Y-180227843D01*
G37*
D13*
X78685000Y-180474000D03*
D14*
G36*
X79224018Y-179527843D02*
G01*
X79261537Y-179539224D01*
X79296114Y-179557706D01*
X79326421Y-179582579D01*
X79351410Y-179613060D01*
X79851410Y-180363060D01*
X79869856Y-180397657D01*
X79881198Y-180435187D01*
X79885000Y-180474209D01*
X79881116Y-180513223D01*
X79869696Y-180550730D01*
X79851410Y-180584940D01*
X79351410Y-181334940D01*
X79326569Y-181365273D01*
X79296288Y-181390178D01*
X79261730Y-181408696D01*
X79224223Y-181420116D01*
X79185000Y-181424000D01*
X78185000Y-181424000D01*
X78145982Y-181420157D01*
X78108463Y-181408776D01*
X78073886Y-181390294D01*
X78043579Y-181365421D01*
X78018706Y-181335114D01*
X78000224Y-181300537D01*
X77988843Y-181263018D01*
X77985000Y-181224000D01*
X77985000Y-179724000D01*
X77988843Y-179684982D01*
X78000224Y-179647463D01*
X78018706Y-179612886D01*
X78043579Y-179582579D01*
X78073886Y-179557706D01*
X78108463Y-179539224D01*
X78145982Y-179527843D01*
X78185000Y-179524000D01*
X79185000Y-179524000D01*
X79224018Y-179527843D01*
X79224018Y-179527843D01*
G37*
D13*
X80135000Y-180474000D03*
D14*
G36*
X80674018Y-179527843D02*
G01*
X80711537Y-179539224D01*
X80746114Y-179557706D01*
X80776421Y-179582579D01*
X80801294Y-179612886D01*
X80819776Y-179647463D01*
X80831157Y-179684982D01*
X80835000Y-179724000D01*
X80835000Y-181224000D01*
X80831157Y-181263018D01*
X80819776Y-181300537D01*
X80801294Y-181335114D01*
X80776421Y-181365421D01*
X80746114Y-181390294D01*
X80711537Y-181408776D01*
X80674018Y-181420157D01*
X80635000Y-181424000D01*
X79485000Y-181424000D01*
X79445982Y-181420157D01*
X79408463Y-181408776D01*
X79373886Y-181390294D01*
X79343579Y-181365421D01*
X79318706Y-181335114D01*
X79300224Y-181300537D01*
X79288843Y-181263018D01*
X79285000Y-181224000D01*
X79288843Y-181184982D01*
X79300224Y-181147463D01*
X79318590Y-181113060D01*
X79744630Y-180474000D01*
X79318590Y-179834940D01*
X79300144Y-179800343D01*
X79288802Y-179762813D01*
X79285000Y-179723791D01*
X79288884Y-179684777D01*
X79300304Y-179647270D01*
X79318822Y-179612712D01*
X79343727Y-179582431D01*
X79374060Y-179557590D01*
X79408657Y-179539144D01*
X79446187Y-179527802D01*
X79485000Y-179524000D01*
X80635000Y-179524000D01*
X80674018Y-179527843D01*
X80674018Y-179527843D01*
G37*
D13*
X313135000Y-180574000D03*
D14*
G36*
X312595982Y-181520157D02*
G01*
X312558463Y-181508776D01*
X312523886Y-181490294D01*
X312493579Y-181465421D01*
X312468590Y-181434940D01*
X311968590Y-180684940D01*
X311950144Y-180650343D01*
X311938802Y-180612813D01*
X311935000Y-180573791D01*
X311938884Y-180534777D01*
X311950304Y-180497270D01*
X311968590Y-180463060D01*
X312468590Y-179713060D01*
X312493431Y-179682727D01*
X312523712Y-179657822D01*
X312558270Y-179639304D01*
X312595777Y-179627884D01*
X312635000Y-179624000D01*
X313635000Y-179624000D01*
X313674018Y-179627843D01*
X313711537Y-179639224D01*
X313746114Y-179657706D01*
X313776421Y-179682579D01*
X313801294Y-179712886D01*
X313819776Y-179747463D01*
X313831157Y-179784982D01*
X313835000Y-179824000D01*
X313835000Y-181324000D01*
X313831157Y-181363018D01*
X313819776Y-181400537D01*
X313801294Y-181435114D01*
X313776421Y-181465421D01*
X313746114Y-181490294D01*
X313711537Y-181508776D01*
X313674018Y-181520157D01*
X313635000Y-181524000D01*
X312635000Y-181524000D01*
X312595982Y-181520157D01*
X312595982Y-181520157D01*
G37*
D13*
X311685000Y-180574000D03*
D14*
G36*
X311145982Y-181520157D02*
G01*
X311108463Y-181508776D01*
X311073886Y-181490294D01*
X311043579Y-181465421D01*
X311018706Y-181435114D01*
X311000224Y-181400537D01*
X310988843Y-181363018D01*
X310985000Y-181324000D01*
X310985000Y-179824000D01*
X310988843Y-179784982D01*
X311000224Y-179747463D01*
X311018706Y-179712886D01*
X311043579Y-179682579D01*
X311073886Y-179657706D01*
X311108463Y-179639224D01*
X311145982Y-179627843D01*
X311185000Y-179624000D01*
X312335000Y-179624000D01*
X312374018Y-179627843D01*
X312411537Y-179639224D01*
X312446114Y-179657706D01*
X312476421Y-179682579D01*
X312501294Y-179712886D01*
X312519776Y-179747463D01*
X312531157Y-179784982D01*
X312535000Y-179824000D01*
X312531157Y-179863018D01*
X312519776Y-179900537D01*
X312501410Y-179934940D01*
X312075370Y-180574000D01*
X312501410Y-181213060D01*
X312519856Y-181247657D01*
X312531198Y-181285187D01*
X312535000Y-181324209D01*
X312531116Y-181363223D01*
X312519696Y-181400730D01*
X312501178Y-181435288D01*
X312476273Y-181465569D01*
X312445940Y-181490410D01*
X312411343Y-181508856D01*
X312373813Y-181520198D01*
X312335000Y-181524000D01*
X311185000Y-181524000D01*
X311145982Y-181520157D01*
X311145982Y-181520157D01*
G37*
D13*
X328101636Y-180374000D03*
D14*
G36*
X327562618Y-181320157D02*
G01*
X327525099Y-181308776D01*
X327490522Y-181290294D01*
X327460215Y-181265421D01*
X327435226Y-181234940D01*
X326935226Y-180484940D01*
X326916780Y-180450343D01*
X326905438Y-180412813D01*
X326901636Y-180373791D01*
X326905520Y-180334777D01*
X326916940Y-180297270D01*
X326935226Y-180263060D01*
X327435226Y-179513060D01*
X327460067Y-179482727D01*
X327490348Y-179457822D01*
X327524906Y-179439304D01*
X327562413Y-179427884D01*
X327601636Y-179424000D01*
X328601636Y-179424000D01*
X328640654Y-179427843D01*
X328678173Y-179439224D01*
X328712750Y-179457706D01*
X328743057Y-179482579D01*
X328767930Y-179512886D01*
X328786412Y-179547463D01*
X328797793Y-179584982D01*
X328801636Y-179624000D01*
X328801636Y-181124000D01*
X328797793Y-181163018D01*
X328786412Y-181200537D01*
X328767930Y-181235114D01*
X328743057Y-181265421D01*
X328712750Y-181290294D01*
X328678173Y-181308776D01*
X328640654Y-181320157D01*
X328601636Y-181324000D01*
X327601636Y-181324000D01*
X327562618Y-181320157D01*
X327562618Y-181320157D01*
G37*
D13*
X326651636Y-180374000D03*
D14*
G36*
X326112618Y-181320157D02*
G01*
X326075099Y-181308776D01*
X326040522Y-181290294D01*
X326010215Y-181265421D01*
X325985342Y-181235114D01*
X325966860Y-181200537D01*
X325955479Y-181163018D01*
X325951636Y-181124000D01*
X325951636Y-179624000D01*
X325955479Y-179584982D01*
X325966860Y-179547463D01*
X325985342Y-179512886D01*
X326010215Y-179482579D01*
X326040522Y-179457706D01*
X326075099Y-179439224D01*
X326112618Y-179427843D01*
X326151636Y-179424000D01*
X327301636Y-179424000D01*
X327340654Y-179427843D01*
X327378173Y-179439224D01*
X327412750Y-179457706D01*
X327443057Y-179482579D01*
X327467930Y-179512886D01*
X327486412Y-179547463D01*
X327497793Y-179584982D01*
X327501636Y-179624000D01*
X327497793Y-179663018D01*
X327486412Y-179700537D01*
X327468046Y-179734940D01*
X327042006Y-180374000D01*
X327468046Y-181013060D01*
X327486492Y-181047657D01*
X327497834Y-181085187D01*
X327501636Y-181124209D01*
X327497752Y-181163223D01*
X327486332Y-181200730D01*
X327467814Y-181235288D01*
X327442909Y-181265569D01*
X327412576Y-181290410D01*
X327377979Y-181308856D01*
X327340449Y-181320198D01*
X327301636Y-181324000D01*
X326151636Y-181324000D01*
X326112618Y-181320157D01*
X326112618Y-181320157D01*
G37*
D12*
X75293335Y-187974000D03*
X75293335Y-185974000D03*
X327375588Y-189224000D03*
X327375588Y-187224000D03*
X327375588Y-185224000D03*
X327375588Y-183224000D03*
X79460000Y-189224000D03*
X79460000Y-187224000D03*
X79460000Y-185224000D03*
X79460000Y-183224000D03*
X331542238Y-187974000D03*
X331542238Y-185974000D03*
D13*
X76385000Y-169374000D03*
D14*
G36*
X76924018Y-168427843D02*
G01*
X76961537Y-168439224D01*
X76996114Y-168457706D01*
X77026421Y-168482579D01*
X77051410Y-168513060D01*
X77551410Y-169263060D01*
X77569856Y-169297657D01*
X77581198Y-169335187D01*
X77585000Y-169374209D01*
X77581116Y-169413223D01*
X77569696Y-169450730D01*
X77551410Y-169484940D01*
X77051410Y-170234940D01*
X77026569Y-170265273D01*
X76996288Y-170290178D01*
X76961730Y-170308696D01*
X76924223Y-170320116D01*
X76885000Y-170324000D01*
X75885000Y-170324000D01*
X75845982Y-170320157D01*
X75808463Y-170308776D01*
X75773886Y-170290294D01*
X75743579Y-170265421D01*
X75718706Y-170235114D01*
X75700224Y-170200537D01*
X75688843Y-170163018D01*
X75685000Y-170124000D01*
X75685000Y-168624000D01*
X75688843Y-168584982D01*
X75700224Y-168547463D01*
X75718706Y-168512886D01*
X75743579Y-168482579D01*
X75773886Y-168457706D01*
X75808463Y-168439224D01*
X75845982Y-168427843D01*
X75885000Y-168424000D01*
X76885000Y-168424000D01*
X76924018Y-168427843D01*
X76924018Y-168427843D01*
G37*
D13*
X77835000Y-169374000D03*
D14*
G36*
X78374018Y-168427843D02*
G01*
X78411537Y-168439224D01*
X78446114Y-168457706D01*
X78476421Y-168482579D01*
X78501294Y-168512886D01*
X78519776Y-168547463D01*
X78531157Y-168584982D01*
X78535000Y-168624000D01*
X78535000Y-170124000D01*
X78531157Y-170163018D01*
X78519776Y-170200537D01*
X78501294Y-170235114D01*
X78476421Y-170265421D01*
X78446114Y-170290294D01*
X78411537Y-170308776D01*
X78374018Y-170320157D01*
X78335000Y-170324000D01*
X77185000Y-170324000D01*
X77145982Y-170320157D01*
X77108463Y-170308776D01*
X77073886Y-170290294D01*
X77043579Y-170265421D01*
X77018706Y-170235114D01*
X77000224Y-170200537D01*
X76988843Y-170163018D01*
X76985000Y-170124000D01*
X76988843Y-170084982D01*
X77000224Y-170047463D01*
X77018590Y-170013060D01*
X77444630Y-169374000D01*
X77018590Y-168734940D01*
X77000144Y-168700343D01*
X76988802Y-168662813D01*
X76985000Y-168623791D01*
X76988884Y-168584777D01*
X77000304Y-168547270D01*
X77018822Y-168512712D01*
X77043727Y-168482431D01*
X77074060Y-168457590D01*
X77108657Y-168439144D01*
X77146187Y-168427802D01*
X77185000Y-168424000D01*
X78335000Y-168424000D01*
X78374018Y-168427843D01*
X78374018Y-168427843D01*
G37*
D13*
X76235001Y-157474000D03*
D14*
G36*
X76774019Y-156527843D02*
G01*
X76811538Y-156539224D01*
X76846115Y-156557706D01*
X76876422Y-156582579D01*
X76901411Y-156613060D01*
X77401411Y-157363060D01*
X77419857Y-157397657D01*
X77431199Y-157435187D01*
X77435001Y-157474209D01*
X77431117Y-157513223D01*
X77419697Y-157550730D01*
X77401411Y-157584940D01*
X76901411Y-158334940D01*
X76876570Y-158365273D01*
X76846289Y-158390178D01*
X76811731Y-158408696D01*
X76774224Y-158420116D01*
X76735001Y-158424000D01*
X75735001Y-158424000D01*
X75695983Y-158420157D01*
X75658464Y-158408776D01*
X75623887Y-158390294D01*
X75593580Y-158365421D01*
X75568707Y-158335114D01*
X75550225Y-158300537D01*
X75538844Y-158263018D01*
X75535001Y-158224000D01*
X75535001Y-156724000D01*
X75538844Y-156684982D01*
X75550225Y-156647463D01*
X75568707Y-156612886D01*
X75593580Y-156582579D01*
X75623887Y-156557706D01*
X75658464Y-156539224D01*
X75695983Y-156527843D01*
X75735001Y-156524000D01*
X76735001Y-156524000D01*
X76774019Y-156527843D01*
X76774019Y-156527843D01*
G37*
D13*
X77685001Y-157474000D03*
D14*
G36*
X78224019Y-156527843D02*
G01*
X78261538Y-156539224D01*
X78296115Y-156557706D01*
X78326422Y-156582579D01*
X78351295Y-156612886D01*
X78369777Y-156647463D01*
X78381158Y-156684982D01*
X78385001Y-156724000D01*
X78385001Y-158224000D01*
X78381158Y-158263018D01*
X78369777Y-158300537D01*
X78351295Y-158335114D01*
X78326422Y-158365421D01*
X78296115Y-158390294D01*
X78261538Y-158408776D01*
X78224019Y-158420157D01*
X78185001Y-158424000D01*
X77035001Y-158424000D01*
X76995983Y-158420157D01*
X76958464Y-158408776D01*
X76923887Y-158390294D01*
X76893580Y-158365421D01*
X76868707Y-158335114D01*
X76850225Y-158300537D01*
X76838844Y-158263018D01*
X76835001Y-158224000D01*
X76838844Y-158184982D01*
X76850225Y-158147463D01*
X76868591Y-158113060D01*
X77294631Y-157474000D01*
X76868591Y-156834940D01*
X76850145Y-156800343D01*
X76838803Y-156762813D01*
X76835001Y-156723791D01*
X76838885Y-156684777D01*
X76850305Y-156647270D01*
X76868823Y-156612712D01*
X76893728Y-156582431D01*
X76924061Y-156557590D01*
X76958658Y-156539144D01*
X76996188Y-156527802D01*
X77035001Y-156524000D01*
X78185001Y-156524000D01*
X78224019Y-156527843D01*
X78224019Y-156527843D01*
G37*
D13*
X356850575Y-169474000D03*
D14*
G36*
X356311557Y-170420157D02*
G01*
X356274038Y-170408776D01*
X356239461Y-170390294D01*
X356209154Y-170365421D01*
X356184165Y-170334940D01*
X355684165Y-169584940D01*
X355665719Y-169550343D01*
X355654377Y-169512813D01*
X355650575Y-169473791D01*
X355654459Y-169434777D01*
X355665879Y-169397270D01*
X355684165Y-169363060D01*
X356184165Y-168613060D01*
X356209006Y-168582727D01*
X356239287Y-168557822D01*
X356273845Y-168539304D01*
X356311352Y-168527884D01*
X356350575Y-168524000D01*
X357350575Y-168524000D01*
X357389593Y-168527843D01*
X357427112Y-168539224D01*
X357461689Y-168557706D01*
X357491996Y-168582579D01*
X357516869Y-168612886D01*
X357535351Y-168647463D01*
X357546732Y-168684982D01*
X357550575Y-168724000D01*
X357550575Y-170224000D01*
X357546732Y-170263018D01*
X357535351Y-170300537D01*
X357516869Y-170335114D01*
X357491996Y-170365421D01*
X357461689Y-170390294D01*
X357427112Y-170408776D01*
X357389593Y-170420157D01*
X357350575Y-170424000D01*
X356350575Y-170424000D01*
X356311557Y-170420157D01*
X356311557Y-170420157D01*
G37*
D13*
X355400575Y-169474000D03*
D14*
G36*
X354861557Y-170420157D02*
G01*
X354824038Y-170408776D01*
X354789461Y-170390294D01*
X354759154Y-170365421D01*
X354734281Y-170335114D01*
X354715799Y-170300537D01*
X354704418Y-170263018D01*
X354700575Y-170224000D01*
X354700575Y-168724000D01*
X354704418Y-168684982D01*
X354715799Y-168647463D01*
X354734281Y-168612886D01*
X354759154Y-168582579D01*
X354789461Y-168557706D01*
X354824038Y-168539224D01*
X354861557Y-168527843D01*
X354900575Y-168524000D01*
X356050575Y-168524000D01*
X356089593Y-168527843D01*
X356127112Y-168539224D01*
X356161689Y-168557706D01*
X356191996Y-168582579D01*
X356216869Y-168612886D01*
X356235351Y-168647463D01*
X356246732Y-168684982D01*
X356250575Y-168724000D01*
X356246732Y-168763018D01*
X356235351Y-168800537D01*
X356216985Y-168834940D01*
X355790945Y-169474000D01*
X356216985Y-170113060D01*
X356235431Y-170147657D01*
X356246773Y-170185187D01*
X356250575Y-170224209D01*
X356246691Y-170263223D01*
X356235271Y-170300730D01*
X356216753Y-170335288D01*
X356191848Y-170365569D01*
X356161515Y-170390410D01*
X356126918Y-170408856D01*
X356089388Y-170420198D01*
X356050575Y-170424000D01*
X354900575Y-170424000D01*
X354861557Y-170420157D01*
X354861557Y-170420157D01*
G37*
D13*
X356851623Y-157474000D03*
D14*
G36*
X356312605Y-158420157D02*
G01*
X356275086Y-158408776D01*
X356240509Y-158390294D01*
X356210202Y-158365421D01*
X356185213Y-158334940D01*
X355685213Y-157584940D01*
X355666767Y-157550343D01*
X355655425Y-157512813D01*
X355651623Y-157473791D01*
X355655507Y-157434777D01*
X355666927Y-157397270D01*
X355685213Y-157363060D01*
X356185213Y-156613060D01*
X356210054Y-156582727D01*
X356240335Y-156557822D01*
X356274893Y-156539304D01*
X356312400Y-156527884D01*
X356351623Y-156524000D01*
X357351623Y-156524000D01*
X357390641Y-156527843D01*
X357428160Y-156539224D01*
X357462737Y-156557706D01*
X357493044Y-156582579D01*
X357517917Y-156612886D01*
X357536399Y-156647463D01*
X357547780Y-156684982D01*
X357551623Y-156724000D01*
X357551623Y-158224000D01*
X357547780Y-158263018D01*
X357536399Y-158300537D01*
X357517917Y-158335114D01*
X357493044Y-158365421D01*
X357462737Y-158390294D01*
X357428160Y-158408776D01*
X357390641Y-158420157D01*
X357351623Y-158424000D01*
X356351623Y-158424000D01*
X356312605Y-158420157D01*
X356312605Y-158420157D01*
G37*
D13*
X355401623Y-157474000D03*
D14*
G36*
X354862605Y-158420157D02*
G01*
X354825086Y-158408776D01*
X354790509Y-158390294D01*
X354760202Y-158365421D01*
X354735329Y-158335114D01*
X354716847Y-158300537D01*
X354705466Y-158263018D01*
X354701623Y-158224000D01*
X354701623Y-156724000D01*
X354705466Y-156684982D01*
X354716847Y-156647463D01*
X354735329Y-156612886D01*
X354760202Y-156582579D01*
X354790509Y-156557706D01*
X354825086Y-156539224D01*
X354862605Y-156527843D01*
X354901623Y-156524000D01*
X356051623Y-156524000D01*
X356090641Y-156527843D01*
X356128160Y-156539224D01*
X356162737Y-156557706D01*
X356193044Y-156582579D01*
X356217917Y-156612886D01*
X356236399Y-156647463D01*
X356247780Y-156684982D01*
X356251623Y-156724000D01*
X356247780Y-156763018D01*
X356236399Y-156800537D01*
X356218033Y-156834940D01*
X355791993Y-157474000D01*
X356218033Y-158113060D01*
X356236479Y-158147657D01*
X356247821Y-158185187D01*
X356251623Y-158224209D01*
X356247739Y-158263223D01*
X356236319Y-158300730D01*
X356217801Y-158335288D01*
X356192896Y-158365569D01*
X356162563Y-158390410D01*
X356127966Y-158408856D01*
X356090436Y-158420198D01*
X356051623Y-158424000D01*
X354901623Y-158424000D01*
X354862605Y-158420157D01*
X354862605Y-158420157D01*
G37*
D12*
X72793335Y-164474000D03*
X72793335Y-162474000D03*
X356125575Y-166474000D03*
X356125575Y-164474000D03*
X356125575Y-162474000D03*
X356125575Y-160474000D03*
X76960001Y-166507334D03*
X76960001Y-164507334D03*
X76960001Y-162507334D03*
X76960001Y-160507334D03*
X360292225Y-164474000D03*
X360292225Y-162474000D03*
M02*
