M48
INCH,TZ
T1C0.0197
T2C0.0236
T3C0.0394
%
G90
G05
T1
X53071Y-75068
X53465Y-75068
X53858Y-75068
X54252Y-75068
X27032Y-75782
X27426Y-75782
X27819Y-75782
X28213Y-75782
X58622Y-58900
X59015Y-58900
X59409Y-58900
X59803Y-58900
X131190Y-69355
X131584Y-69355
X131196Y-68150
X131589Y-68150
X131983Y-68150
X132377Y-68150
X53072Y-69827
X53466Y-69827
X53860Y-69827
X54254Y-69827
X53067Y-68156
X53461Y-68156
X53854Y-68156
X131978Y-69355
X132371Y-69355
X27035Y-69355
X27428Y-69355
X27822Y-69355
X28216Y-69355
X54248Y-68156
X96878Y-76317
X97271Y-76317
X97665Y-76317
X98059Y-76317
X131196Y-75065
X131589Y-75065
X131983Y-75065
X132377Y-75065
X27035Y-68635
X27428Y-68635
X27822Y-68635
X28216Y-68635
X58627Y-60571
X59021Y-60571
X59415Y-60571
X59808Y-60571
X142286Y-60094
X142680Y-60094
X143073Y-60094
X143467Y-60094
X142286Y-59373
X142680Y-59373
X143073Y-59373
X143467Y-59373
X102419Y-58903
X102812Y-58903
X103206Y-58903
X103600Y-58903
X53076Y-76322
X53470Y-76322
X53864Y-76322
X54257Y-76322
X27032Y-75061
X97666Y-69827
X102424Y-60574
X102818Y-60574
X27421Y-60097
X131196Y-75852
X27819Y-75061
X98060Y-69827
X131589Y-75852
X27426Y-75061
X28213Y-75061
X27028Y-60097
X27815Y-60097
X28209Y-60097
X27028Y-59377
X27421Y-59377
X27815Y-59377
X28209Y-59377
X96872Y-75062
X97266Y-75062
X97659Y-75062
X98053Y-75062
X96879Y-69827
X97272Y-69827
X131983Y-75852
X132377Y-75852
X103211Y-60574
X103605Y-60574
X96873Y-68156
X97267Y-68156
X97661Y-68156
X98054Y-68156
T2
X29821Y-56944
X29821Y-66196
X31185Y-57431
X31185Y-66683
X31674Y-52562
X31674Y-61814
X32130Y-74517
X32130Y-81013
X32209Y-72273
X32209Y-78769
X32563Y-55108
X32563Y-64360
X32912Y-53578
X32912Y-62830
X33380Y-73109
X33380Y-79605
X33705Y-71919
X33705Y-78415
X34069Y-56948
X34069Y-66200
X34282Y-54458
X34282Y-63710
X34374Y-55108
X34374Y-64360
X34400Y-53139
X34400Y-62391
X34531Y-57116
X34531Y-66368
X34846Y-71171
X34846Y-77667
X35358Y-73139
X35358Y-79635
X35594Y-72667
X35594Y-79163
X35982Y-72364
X35982Y-78860
X36527Y-72218
X36527Y-78714
X37589Y-53139
X37589Y-62391
X37648Y-54380
X37648Y-63631
X37917Y-74320
X37917Y-80817
X38408Y-74359
X38408Y-80855
X38649Y-73528
X38649Y-80024
X38753Y-74008
X38753Y-80505
X39125Y-55108
X39125Y-64360
X40247Y-73553
X40247Y-80049
X40844Y-54458
X40844Y-63710
X40936Y-55108
X40936Y-64360
X40962Y-53139
X40962Y-62391
X41920Y-73553
X41920Y-80049
X41946Y-72076
X41946Y-78572
X42051Y-72982
X42051Y-79478
X44151Y-53139
X44151Y-62391
X44210Y-54380
X44210Y-63631
X44817Y-72037
X44817Y-73572
X44817Y-78533
X44817Y-80069
X44846Y-72982
X44846Y-79478
X45686Y-55108
X45686Y-64360
X46867Y-70856
X46867Y-77352
X47406Y-54458
X47406Y-63710
X47497Y-55108
X47497Y-64360
X47524Y-53139
X47524Y-62391
X48823Y-73021
X48823Y-79517
X48918Y-72076
X48918Y-73572
X48918Y-78572
X48918Y-80069
X50713Y-53139
X50713Y-62391
X50772Y-54380
X50772Y-63631
X51379Y-72076
X51379Y-73572
X51379Y-78572
X51379Y-80069
X51408Y-72982
X51408Y-79478
X52248Y-55108
X52248Y-64360
X53429Y-70856
X53429Y-77352
X53967Y-54458
X53967Y-63710
X54059Y-55108
X54059Y-64360
X54085Y-53139
X54085Y-62391
X55480Y-72037
X55480Y-73533
X55480Y-78533
X55480Y-80029
X55516Y-72982
X55516Y-79478
X57274Y-53139
X57274Y-62391
X57333Y-54380
X57333Y-63631
X57940Y-71998
X57940Y-73612
X57940Y-78494
X57940Y-80108
X57970Y-72982
X57970Y-79478
X58810Y-55108
X58810Y-64360
X59991Y-70856
X59991Y-77352
X60529Y-54458
X60529Y-63710
X60621Y-55108
X60621Y-64360
X60647Y-53139
X60647Y-62391
X61972Y-72943
X61972Y-79439
X62041Y-72037
X62041Y-73494
X62041Y-78533
X62041Y-79990
X63836Y-53139
X63836Y-62391
X63895Y-54380
X63895Y-63631
X64455Y-72905
X64455Y-79401
X64502Y-71958
X64502Y-73415
X64502Y-78454
X64502Y-79911
X65371Y-55108
X65371Y-64360
X67091Y-54458
X67091Y-63710
X67182Y-55108
X67182Y-64360
X67209Y-53139
X67209Y-62391
X68587Y-72943
X68587Y-79439
X68603Y-72037
X68603Y-73533
X68603Y-78533
X68603Y-80029
X70397Y-53139
X70397Y-62391
X70457Y-54380
X70457Y-63631
X71064Y-71998
X71064Y-73533
X71064Y-78494
X71064Y-80029
X71076Y-72964
X71076Y-79460
X71933Y-55108
X71933Y-64360
X73114Y-70856
X73114Y-77352
X73652Y-54458
X73652Y-63710
X73744Y-55108
X73744Y-64360
X73770Y-53139
X73770Y-62391
X75165Y-71998
X75165Y-73494
X75165Y-78494
X75165Y-79990
X75201Y-72982
X75201Y-79478
X76959Y-53139
X76959Y-62391
X77018Y-54380
X77018Y-63631
X77625Y-72037
X77625Y-73533
X77625Y-78533
X77625Y-80029
X77637Y-72964
X77637Y-79460
X78495Y-55108
X78495Y-64360
X79676Y-70856
X79676Y-77352
X80214Y-54458
X80214Y-63710
X80306Y-55108
X80306Y-64360
X80332Y-53139
X80332Y-62391
X81726Y-72076
X81726Y-73612
X81726Y-78572
X81726Y-80108
X81815Y-72943
X81815Y-79439
X83521Y-53139
X83521Y-62391
X83580Y-54380
X83580Y-63631
X84187Y-72037
X84187Y-73494
X84187Y-78533
X84187Y-79990
X84217Y-72982
X84217Y-79478
X85056Y-55108
X85056Y-64360
X86238Y-70856
X86238Y-77352
X86776Y-54458
X86776Y-63710
X86867Y-55108
X86867Y-64360
X86893Y-53139
X86893Y-62391
X88288Y-72037
X88288Y-73572
X88288Y-78533
X88288Y-80069
X88350Y-72982
X88350Y-79478
X90082Y-53139
X90082Y-62391
X90142Y-54380
X90142Y-63631
X90749Y-73454
X90749Y-79950
X90749Y-71998
X90749Y-78494
X90779Y-72963
X90779Y-79459
X91618Y-55108
X91618Y-64360
X92799Y-70856
X92799Y-77352
X93337Y-54458
X93337Y-63710
X93429Y-55108
X93429Y-64360
X93455Y-53139
X93455Y-62391
X94846Y-72982
X94846Y-79478
X94850Y-72116
X94850Y-73533
X94850Y-78612
X94850Y-80029
X96644Y-53139
X96644Y-62391
X96704Y-54380
X96704Y-63631
X97310Y-72076
X97310Y-73494
X97310Y-78572
X97310Y-79990
X97340Y-72982
X97340Y-79478
X98180Y-55108
X98180Y-64360
X99361Y-70856
X99361Y-77352
X99899Y-54458
X99899Y-63710
X99991Y-55108
X99991Y-64360
X100017Y-53139
X100017Y-62391
X101382Y-72982
X101382Y-79478
X101411Y-72076
X101411Y-73494
X101411Y-78572
X101411Y-79990
X103206Y-53139
X103206Y-62391
X103265Y-54380
X103265Y-63631
X103872Y-72155
X103872Y-73533
X103872Y-78651
X103872Y-80029
X103902Y-72982
X103902Y-79478
X104741Y-55108
X104741Y-64360
X105923Y-70856
X105923Y-77352
X106461Y-54439
X106461Y-63691
X106552Y-55108
X106552Y-64360
X106578Y-53139
X106578Y-62391
X107878Y-72943
X107878Y-79439
X107973Y-72076
X107973Y-73533
X107973Y-78572
X107973Y-80029
X109767Y-53139
X109767Y-62391
X109827Y-54380
X109827Y-63631
X110434Y-71998
X110434Y-78494
X110434Y-73533
X110434Y-80029
X110463Y-72982
X110463Y-79478
X111303Y-55108
X111303Y-64360
X112484Y-70856
X112484Y-77352
X113022Y-54458
X113022Y-63710
X113114Y-55108
X113114Y-64360
X113140Y-53139
X113140Y-62391
X114531Y-72982
X114531Y-79478
X114535Y-71998
X114535Y-73533
X114535Y-78494
X114535Y-80029
X116329Y-53139
X116329Y-62391
X116388Y-54380
X116388Y-63631
X117025Y-72982
X117025Y-79478
X117366Y-71998
X117366Y-78494
X117405Y-73494
X117405Y-79990
X117864Y-55108
X117864Y-64360
X119098Y-72273
X119098Y-78769
X119584Y-54458
X119584Y-63710
X119676Y-55108
X119676Y-64360
X119702Y-53139
X119702Y-62391
X120590Y-73965
X120590Y-80462
X120603Y-74457
X120603Y-80953
X120605Y-72981
X120605Y-79478
X120606Y-73474
X120606Y-79970
X120713Y-71722
X120713Y-78218
X122891Y-53139
X122891Y-62391
X122950Y-54380
X122950Y-63631
X123426Y-72781
X123426Y-79277
X123470Y-73271
X123470Y-79767
X123914Y-72841
X123914Y-79337
X123941Y-73612
X123941Y-80108
X124046Y-72367
X124046Y-78863
X124426Y-55108
X124426Y-64360
X125319Y-73730
X125319Y-80226
X126146Y-54458
X126146Y-54458
X126146Y-63710
X126146Y-63710
X126237Y-55108
X126237Y-64360
X126263Y-53139
X126263Y-62391
X126736Y-72155
X126736Y-78651
X127130Y-72982
X127130Y-79478
X127957Y-74478
X127957Y-80974
X129452Y-53139
X129452Y-62391
X129512Y-54380
X129512Y-54380
X129512Y-63631
X129512Y-63631
X130083Y-72234
X130083Y-78730
X130988Y-55108
X130988Y-64360
X132707Y-54458
X132707Y-63710
X132799Y-55108
X132799Y-64360
X132825Y-53139
X132825Y-62391
X136014Y-53139
X136014Y-62391
X136074Y-54380
X136074Y-63631
X137501Y-55157
X137501Y-64409
X137681Y-56604
X137681Y-65856
X138154Y-54478
X138154Y-63730
X139217Y-52667
X139217Y-61919
X140791Y-57076
X140791Y-66328
X141455Y-56041
X141455Y-65293
T3
X30299Y-63192
X30299Y-63979
X30299Y-64767
X30299Y-65554
X130528Y-79714
X130528Y-80502
X140207Y-63179
X140207Y-63966
X140207Y-64754
X140207Y-65541
X31283Y-72135
X31283Y-72923
X31283Y-73710
X31283Y-74498
X141847Y-54714
X141847Y-55502
X29643Y-79714
X29643Y-80502
X28659Y-54714
X28659Y-55502
X29643Y-73218
X29643Y-74006
X128888Y-72135
X128888Y-72923
X128888Y-73710
X128888Y-74498
X30299Y-53940
X30299Y-54727
X30299Y-55515
X30299Y-56302
X31283Y-78631
X31283Y-79419
X31283Y-80206
X31283Y-80994
X128888Y-78631
X128888Y-79419
X128888Y-80206
X128888Y-80994
X140207Y-53927
X140207Y-54714
X140207Y-55502
X140207Y-56289
X141847Y-63966
X141847Y-64754
X28659Y-63966
X28659Y-64754
X130528Y-73218
X130528Y-74006
T0
M30
