G04 #@! TF.GenerationSoftware,KiCad,Pcbnew,(5.1.0-0)*
G04 #@! TF.CreationDate,2019-04-23T10:34:18-07:00*
G04 #@! TF.ProjectId,TestPanel1,54657374-5061-46e6-956c-312e6b696361,rev?*
G04 #@! TF.SameCoordinates,Original*
G04 #@! TF.FileFunction,Profile,NP*
%FSLAX46Y46*%
G04 Gerber Fmt 4.6, Leading zero omitted, Abs format (unit mm)*
G04 Created by KiCad (PCBNEW (5.1.0-0)) date 2019-04-23 10:34:18*
%MOMM*%
%LPD*%
G04 APERTURE LIST*
%ADD10C,0.100000*%
G04 APERTURE END LIST*
D10*
X336979575Y-198914937D02*
X336276000Y-199020605D01*
X73007552Y-148542937D02*
X72380938Y-148862211D01*
X73504889Y-148045594D02*
X73007552Y-148542937D01*
X73824164Y-147418985D02*
X73504889Y-148045594D01*
X73934148Y-146724292D02*
X73824164Y-147418985D01*
X73824164Y-146029858D02*
X73934148Y-146724292D01*
X73504889Y-145402991D02*
X73824164Y-146029858D01*
X73007552Y-144905906D02*
X73504889Y-145402991D01*
X72380938Y-144586374D02*
X73007552Y-144905906D01*
X71686245Y-144476389D02*
X72380938Y-144586374D01*
X73808160Y-197468406D02*
X73914081Y-196762797D01*
X73490662Y-198103413D02*
X73808160Y-197468406D01*
X72996630Y-198597440D02*
X73490662Y-198103413D01*
X72361629Y-198914937D02*
X72996630Y-198597440D01*
X71656273Y-199020605D02*
X72361629Y-198914937D01*
X364401394Y-148972196D02*
X365097389Y-148862211D01*
X361401663Y-148972196D02*
X364401394Y-148972196D01*
X360705711Y-148862211D02*
X361401663Y-148972196D01*
X360080878Y-148542937D02*
X360705711Y-148862211D01*
X359583040Y-148045594D02*
X360080878Y-148542937D01*
X359262991Y-147418985D02*
X359583040Y-148045594D01*
X359153781Y-146724292D02*
X359262991Y-147418985D01*
X359262991Y-146029858D02*
X359153781Y-146724292D01*
X359583040Y-145402991D02*
X359262991Y-146029858D01*
X360080878Y-144905906D02*
X359583040Y-145402991D01*
X360705711Y-144586374D02*
X360080878Y-144905906D01*
X361401663Y-144476389D02*
X360705711Y-144586374D01*
X364401394Y-144476389D02*
X361401663Y-144476389D01*
X365097389Y-144586374D02*
X364401394Y-144476389D01*
X365722200Y-144905906D02*
X365097389Y-144586374D01*
X366220060Y-145402991D02*
X365722200Y-144905906D01*
X366540109Y-146029858D02*
X366220060Y-145402991D01*
X366649319Y-146724292D02*
X366540109Y-146029858D01*
X366540109Y-147418985D02*
X366649319Y-146724292D01*
X366220060Y-148045594D02*
X366540109Y-147418985D01*
X365722200Y-148542937D02*
X366220060Y-148045594D01*
X365097389Y-148862211D02*
X365722200Y-148542937D01*
X72380938Y-148862211D02*
X71686245Y-148972196D01*
X336276000Y-199020605D02*
X333276269Y-199020605D01*
X68686251Y-144476389D02*
X71686245Y-144476389D01*
X67991816Y-144586374D02*
X68686251Y-144476389D01*
X67364943Y-144905906D02*
X67991816Y-144586374D01*
X66867612Y-145402991D02*
X67364943Y-144905906D01*
X66548332Y-146029858D02*
X66867612Y-145402991D01*
X66438347Y-146724292D02*
X66548332Y-146029858D01*
X66548332Y-147418985D02*
X66438347Y-146724292D01*
X66867612Y-148045594D02*
X66548332Y-147418985D01*
X73504889Y-134545751D02*
X73824164Y-133918883D01*
X73007552Y-135043093D02*
X73504889Y-134545751D01*
X72380938Y-135362367D02*
X73007552Y-135043093D01*
X331124872Y-196057435D02*
X331442381Y-195422440D01*
X331442381Y-198103413D02*
X331124872Y-197468406D01*
X337614571Y-198597440D02*
X336979575Y-198914937D01*
X331124872Y-197468406D02*
X331018203Y-196762797D01*
X333276269Y-194505000D02*
X336276000Y-194505000D01*
X332570133Y-194610915D02*
X333276269Y-194505000D01*
X331935137Y-194928413D02*
X332570133Y-194610915D01*
X68657549Y-199020605D02*
X71656273Y-199020605D01*
X67951939Y-198914937D02*
X68657549Y-199020605D01*
X67316938Y-198597440D02*
X67951939Y-198914937D01*
X331018203Y-196762797D02*
X331124872Y-196057435D01*
X67364943Y-148542937D02*
X66867612Y-148045594D01*
X67991816Y-148862211D02*
X67364943Y-148542937D01*
X68686251Y-148972196D02*
X67991816Y-148862211D01*
X71686245Y-148972196D02*
X68686251Y-148972196D01*
X338109889Y-198103413D02*
X337614571Y-198597440D01*
X338427376Y-197468406D02*
X338109889Y-198103413D01*
X67991816Y-135362367D02*
X68686251Y-135472352D01*
X67364943Y-135043093D02*
X67991816Y-135362367D01*
X66867612Y-134545751D02*
X67364943Y-135043093D01*
X66548332Y-133918883D02*
X66867612Y-134545751D01*
X331935137Y-198597440D02*
X331442381Y-198103413D01*
X66438347Y-133224449D02*
X66548332Y-133918883D01*
X66548332Y-132529756D02*
X66438347Y-133224449D01*
X66867612Y-131903136D02*
X66548332Y-132529756D01*
X67364943Y-131405804D02*
X66867612Y-131903136D01*
X67991816Y-131086519D02*
X67364943Y-131405804D01*
X68686251Y-130976546D02*
X67991816Y-131086519D01*
X71686245Y-130976546D02*
X68686251Y-130976546D01*
X72380938Y-131086519D02*
X71686245Y-130976546D01*
X73007552Y-131405804D02*
X72380938Y-131086519D01*
X73504889Y-131903136D02*
X73007552Y-131405804D01*
X73824164Y-132529756D02*
X73504889Y-131903136D01*
X73934148Y-133224449D02*
X73824164Y-132529756D01*
X73824164Y-133918883D02*
X73934148Y-133224449D01*
X66505661Y-196057435D02*
X66399746Y-196762797D01*
X66823159Y-195422440D02*
X66505661Y-196057435D01*
X67316938Y-194928413D02*
X66823159Y-195422440D01*
X67951939Y-194610915D02*
X67316938Y-194928413D01*
X68657549Y-194505000D02*
X67951939Y-194610915D01*
X71656273Y-194505000D02*
X68657549Y-194505000D01*
X72361629Y-194610915D02*
X71656273Y-194505000D01*
X72996630Y-194928413D02*
X72361629Y-194610915D01*
X73490662Y-195422440D02*
X72996630Y-194928413D01*
X73808160Y-196057435D02*
X73490662Y-195422440D01*
X73914081Y-196762797D02*
X73808160Y-196057435D01*
X331442381Y-195422440D02*
X331935137Y-194928413D01*
X332570133Y-198914937D02*
X331935137Y-198597440D01*
X333276269Y-199020605D02*
X332570133Y-198914937D01*
X338531526Y-196762797D02*
X338427376Y-197468406D01*
X360901543Y-150686690D02*
X360901543Y-152761865D01*
X359679567Y-150686690D02*
X360901543Y-150686690D01*
X358983594Y-150576706D02*
X359679567Y-150686690D01*
X358358761Y-150257432D02*
X358983594Y-150576706D01*
X357860923Y-149760089D02*
X358358761Y-150257432D01*
X357716143Y-149474340D02*
X357860923Y-149760089D01*
X263643849Y-149474340D02*
X357716143Y-149474340D01*
X263643849Y-153974453D02*
X263643849Y-149474340D01*
X357716143Y-153974453D02*
X263643849Y-153974453D01*
X357860923Y-153688704D02*
X357716143Y-153974453D01*
X358358761Y-153191383D02*
X357860923Y-153688704D01*
X358983594Y-152872108D02*
X358358761Y-153191383D01*
X359679567Y-152761865D02*
X358983594Y-152872108D01*
X360901543Y-152761865D02*
X359679567Y-152761865D01*
X332735411Y-172974413D02*
X332735411Y-176276429D01*
X249563744Y-172974413D02*
X332735411Y-172974413D01*
X249563744Y-177476076D02*
X249563744Y-172974413D01*
X329537372Y-177476076D02*
X249563744Y-177476076D01*
X329677071Y-177193858D02*
X329537372Y-177476076D01*
X330172389Y-176699831D02*
X329677071Y-177193858D01*
X330807385Y-176382344D02*
X330172389Y-176699831D01*
X331513500Y-176276429D02*
X330807385Y-176382344D01*
X332735411Y-176276429D02*
X331513500Y-176276429D01*
X332735411Y-190528617D02*
X332735411Y-192776520D01*
X249563744Y-190528617D02*
X332735411Y-190528617D01*
X249563744Y-193975909D02*
X249563744Y-190528617D01*
X329537372Y-193975909D02*
X249563744Y-193975909D01*
X329677071Y-193693712D02*
X329537372Y-193975909D01*
X330172389Y-193199944D02*
X329677071Y-193693712D01*
X330807385Y-192882435D02*
X330172389Y-193199944D01*
X331513500Y-192776520D02*
X330807385Y-192882435D01*
X332735411Y-192776520D02*
X331513500Y-192776520D01*
X245563751Y-172974413D02*
X245563751Y-177476076D01*
X138303007Y-172974413D02*
X245563751Y-172974413D01*
X138303007Y-177476076D02*
X138303007Y-172974413D01*
X245563751Y-177476076D02*
X138303007Y-177476076D01*
X245563751Y-190528617D02*
X245563751Y-193975909D01*
X138303007Y-190528617D02*
X245563751Y-190528617D01*
X138303007Y-193975909D02*
X138303007Y-190528617D01*
X245563751Y-193975909D02*
X138303007Y-193975909D01*
X134303014Y-172974413D02*
X134303014Y-177476076D01*
X75372546Y-172974413D02*
X134303014Y-172974413D01*
X75227012Y-173260162D02*
X75372546Y-172974413D01*
X74729669Y-173757504D02*
X75227012Y-173260162D01*
X74103049Y-174076779D02*
X74729669Y-173757504D01*
X73408368Y-174186763D02*
X74103049Y-174076779D01*
X72156915Y-174186763D02*
X73408368Y-174186763D01*
X72156915Y-176276429D02*
X72156915Y-174186763D01*
X73384747Y-176276429D02*
X72156915Y-176276429D01*
X74090367Y-176382344D02*
X73384747Y-176276429D01*
X74725363Y-176699831D02*
X74090367Y-176382344D01*
X75219131Y-177193858D02*
X74725363Y-176699831D01*
X75360359Y-177476076D02*
X75219131Y-177193858D01*
X134303014Y-177476076D02*
X75360359Y-177476076D01*
X134303014Y-190528617D02*
X134303014Y-193975909D01*
X72156915Y-190528617D02*
X134303014Y-190528617D01*
X72156915Y-192776520D02*
X72156915Y-190528617D01*
X73384747Y-192776520D02*
X72156915Y-192776520D01*
X74090367Y-192882435D02*
X73384747Y-192776520D01*
X74725363Y-193199944D02*
X74090367Y-192882435D01*
X75219131Y-193693712D02*
X74725363Y-193199944D01*
X75360359Y-193975909D02*
X75219131Y-193693712D01*
X134303014Y-193975909D02*
X75360359Y-193975909D01*
X72156915Y-152761865D02*
X72156915Y-150686690D01*
X73408368Y-152761865D02*
X72156915Y-152761865D01*
X74103049Y-152872108D02*
X73408368Y-152761865D01*
X74729669Y-153191383D02*
X74103049Y-152872108D01*
X75227012Y-153688704D02*
X74729669Y-153191383D01*
X75372546Y-153974453D02*
X75227012Y-153688704D01*
X148383119Y-153974453D02*
X75372546Y-153974453D01*
X148383119Y-149474340D02*
X148383119Y-153974453D01*
X75372546Y-149474340D02*
X148383119Y-149474340D01*
X75227012Y-149760089D02*
X75372546Y-149474340D01*
X74729669Y-150257432D02*
X75227012Y-149760089D01*
X74103049Y-150576706D02*
X74729669Y-150257432D01*
X73408368Y-150686690D02*
X74103049Y-150576706D01*
X72156915Y-150686690D02*
X73408368Y-150686690D01*
X152383134Y-153974453D02*
X152383134Y-149474340D01*
X259643856Y-153974453D02*
X152383134Y-153974453D01*
X259643856Y-149474340D02*
X259643856Y-153974453D01*
X152383134Y-149474340D02*
X259643856Y-149474340D01*
X364901579Y-150686690D02*
X366123511Y-150686690D01*
X364901579Y-152761865D02*
X364901579Y-150686690D01*
X366123511Y-152761865D02*
X364901579Y-152761865D01*
X366819506Y-152872108D02*
X366123511Y-152761865D01*
X367444317Y-153191383D02*
X366819506Y-152872108D01*
X367942177Y-153688704D02*
X367444317Y-153191383D01*
X368086957Y-153974453D02*
X367942177Y-153688704D01*
X368401925Y-153974453D02*
X368086957Y-153974453D01*
X369019114Y-154072250D02*
X368401925Y-153974453D01*
X369575410Y-154356471D02*
X369019114Y-154072250D01*
X370019871Y-154798692D02*
X369575410Y-154356471D01*
X370304350Y-155356474D02*
X370019871Y-154798692D01*
X370400898Y-155974460D02*
X370304350Y-155356474D01*
X370400898Y-170974427D02*
X370400898Y-155974460D01*
X370304350Y-171592413D02*
X370400898Y-170974427D01*
X370019871Y-172149937D02*
X370304350Y-171592413D01*
X369575410Y-172592416D02*
X370019871Y-172149937D01*
X369019114Y-172876378D02*
X369575410Y-172592416D01*
X368401925Y-172974413D02*
X369019114Y-172876378D01*
X368086957Y-172974413D02*
X368401925Y-172974413D01*
X367942177Y-173260162D02*
X368086957Y-172974413D01*
X367444317Y-173757504D02*
X367942177Y-173260162D01*
X366819506Y-174076779D02*
X367444317Y-173757504D01*
X366123511Y-174186763D02*
X366819506Y-174076779D01*
X359679567Y-174186763D02*
X366123511Y-174186763D01*
X358983594Y-174076779D02*
X359679567Y-174186763D01*
X358358761Y-173757504D02*
X358983594Y-174076779D01*
X357860923Y-173260162D02*
X358358761Y-173757504D01*
X357716143Y-172974413D02*
X357860923Y-173260162D01*
X336735404Y-172974413D02*
X357716143Y-172974413D01*
X336735404Y-176276429D02*
X336735404Y-172974413D01*
X337967650Y-176276429D02*
X336735404Y-176276429D01*
X338673765Y-176382344D02*
X337967650Y-176276429D01*
X339308761Y-176699831D02*
X338673765Y-176382344D01*
X339801517Y-177193858D02*
X339308761Y-176699831D01*
X339943757Y-177476076D02*
X339801517Y-177193858D01*
X340261265Y-177476076D02*
X339943757Y-177476076D01*
X340896261Y-177581733D02*
X340261265Y-177476076D01*
X341460137Y-177863929D02*
X340896261Y-177581733D01*
X341919885Y-178322644D02*
X341460137Y-177863929D01*
X342201823Y-178887036D02*
X341919885Y-178322644D01*
X342308492Y-179522032D02*
X342201823Y-178887036D01*
X342308492Y-190528617D02*
X342308492Y-179522032D01*
X336735404Y-190528617D02*
X342308492Y-190528617D01*
X336735404Y-192776520D02*
X336735404Y-190528617D01*
X337967650Y-192776520D02*
X336735404Y-192776520D01*
X338673765Y-192882435D02*
X337967650Y-192776520D01*
X339308761Y-193199944D02*
X338673765Y-192882435D01*
X339801517Y-193693712D02*
X339308761Y-193199944D01*
X339943757Y-193975909D02*
X339801517Y-193693712D01*
X340261265Y-193975909D02*
X339943757Y-193975909D01*
X340896261Y-194081824D02*
X340261265Y-193975909D01*
X341460137Y-194364020D02*
X340896261Y-194081824D01*
X341919885Y-194822735D02*
X341460137Y-194364020D01*
X342201823Y-195387127D02*
X341919885Y-194822735D01*
X342308492Y-196022123D02*
X342201823Y-195387127D01*
X342308492Y-207028708D02*
X342308492Y-196022123D01*
X62589756Y-207028708D02*
X342308492Y-207028708D01*
X62589756Y-196022123D02*
X62589756Y-207028708D01*
X62695671Y-195387127D02*
X62589756Y-196022123D01*
X62977867Y-194822735D02*
X62695671Y-195387127D01*
X63436582Y-194364020D02*
X62977867Y-194822735D01*
X64000974Y-194081824D02*
X63436582Y-194364020D01*
X64635970Y-193975909D02*
X64000974Y-194081824D01*
X64953479Y-193975909D02*
X64635970Y-193975909D01*
X65094448Y-193693712D02*
X64953479Y-193975909D01*
X65588474Y-193199944D02*
X65094448Y-193693712D01*
X66223470Y-192882435D02*
X65588474Y-193199944D01*
X66929090Y-192776520D02*
X66223470Y-192882435D01*
X68156922Y-192776520D02*
X66929090Y-192776520D01*
X68156922Y-190528617D02*
X68156922Y-192776520D01*
X62589756Y-190528617D02*
X68156922Y-190528617D01*
X62589756Y-179522032D02*
X62589756Y-190528617D01*
X62695671Y-178887036D02*
X62589756Y-179522032D01*
X62977867Y-178322644D02*
X62695671Y-178887036D01*
X63436582Y-177863929D02*
X62977867Y-178322644D01*
X64000974Y-177581733D02*
X63436582Y-177863929D01*
X64635970Y-177476076D02*
X64000974Y-177581733D01*
X64953479Y-177476076D02*
X64635970Y-177476076D01*
X65094448Y-177193858D02*
X64953479Y-177476076D01*
X65588474Y-176699831D02*
X65094448Y-177193858D01*
X66223470Y-176382344D02*
X65588474Y-176699831D01*
X66929090Y-176276429D02*
X66223470Y-176382344D01*
X68156922Y-176276429D02*
X66929090Y-176276429D01*
X68156922Y-174186763D02*
X68156922Y-176276429D01*
X66964381Y-174186763D02*
X68156922Y-174186763D01*
X66269699Y-174076779D02*
X66964381Y-174186763D01*
X65643079Y-173757504D02*
X66269699Y-174076779D01*
X65145758Y-173260162D02*
X65643079Y-173757504D01*
X65000203Y-172974413D02*
X65145758Y-173260162D01*
X64686269Y-172974413D02*
X65000203Y-172974413D01*
X64068283Y-172876378D02*
X64686269Y-172974413D01*
X63510759Y-172592416D02*
X64068283Y-172876378D01*
X63068279Y-172149937D02*
X63510759Y-172592416D01*
X62784317Y-171592413D02*
X63068279Y-172149937D01*
X62686261Y-170974427D02*
X62784317Y-171592413D01*
X62686261Y-155974460D02*
X62686261Y-170974427D01*
X62784317Y-155356474D02*
X62686261Y-155974460D01*
X63068279Y-154798692D02*
X62784317Y-155356474D01*
X63510759Y-154356471D02*
X63068279Y-154798692D01*
X64068283Y-154072250D02*
X63510759Y-154356471D01*
X64686269Y-153974453D02*
X64068283Y-154072250D01*
X65000203Y-153974453D02*
X64686269Y-153974453D01*
X65145758Y-153688704D02*
X65000203Y-153974453D01*
X65643079Y-153191383D02*
X65145758Y-153688704D01*
X66269699Y-152872108D02*
X65643079Y-153191383D01*
X66964381Y-152761865D02*
X66269699Y-152872108D01*
X68156922Y-152761865D02*
X66964381Y-152761865D01*
X68156922Y-150686690D02*
X68156922Y-152761865D01*
X66964381Y-150686690D02*
X68156922Y-150686690D01*
X66269699Y-150576706D02*
X66964381Y-150686690D01*
X65643079Y-150257432D02*
X66269699Y-150576706D01*
X65145758Y-149760089D02*
X65643079Y-150257432D01*
X65000203Y-149474340D02*
X65145758Y-149760089D01*
X64686269Y-149474340D02*
X65000203Y-149474340D01*
X64068283Y-149376542D02*
X64686269Y-149474340D01*
X63510759Y-149092322D02*
X64068283Y-149376542D01*
X63068279Y-148650122D02*
X63510759Y-149092322D01*
X62784317Y-148092340D02*
X63068279Y-148650122D01*
X62686261Y-147474354D02*
X62784317Y-148092340D01*
X62686261Y-132474387D02*
X62686261Y-147474354D01*
X62784317Y-131856401D02*
X62686261Y-132474387D01*
X63068279Y-131298856D02*
X62784317Y-131856401D01*
X63510759Y-130856398D02*
X63068279Y-131298856D01*
X64068283Y-130572436D02*
X63510759Y-130856398D01*
X64686269Y-130474380D02*
X64068283Y-130572436D01*
X65000203Y-130474380D02*
X64686269Y-130474380D01*
X65145758Y-130188631D02*
X65000203Y-130474380D01*
X65643079Y-129691310D02*
X65145758Y-130188631D01*
X66269699Y-129372014D02*
X65643079Y-129691310D01*
X66964381Y-129262051D02*
X66269699Y-129372014D01*
X73408368Y-129262051D02*
X66964381Y-129262051D01*
X74103049Y-129372014D02*
X73408368Y-129262051D01*
X74729669Y-129691310D02*
X74103049Y-129372014D01*
X75227012Y-130188631D02*
X74729669Y-129691310D01*
X75372546Y-130474380D02*
X75227012Y-130188631D01*
X357716143Y-130474380D02*
X75372546Y-130474380D01*
X357860923Y-130188631D02*
X357716143Y-130474380D01*
X358358761Y-129691310D02*
X357860923Y-130188631D01*
X358983594Y-129372014D02*
X358358761Y-129691310D01*
X359679567Y-129262051D02*
X358983594Y-129372014D01*
X366123511Y-129262051D02*
X359679567Y-129262051D01*
X366819506Y-129372014D02*
X366123511Y-129262051D01*
X367444317Y-129691310D02*
X366819506Y-129372014D01*
X367942177Y-130188631D02*
X367444317Y-129691310D01*
X368086957Y-130474380D02*
X367942177Y-130188631D01*
X368401925Y-130474380D02*
X368086957Y-130474380D01*
X369019114Y-130572436D02*
X368401925Y-130474380D01*
X369575410Y-130856398D02*
X369019114Y-130572436D01*
X370019871Y-131298856D02*
X369575410Y-130856398D01*
X370304350Y-131856401D02*
X370019871Y-131298856D01*
X370400898Y-132474387D02*
X370304350Y-131856401D01*
X370400898Y-147474354D02*
X370400898Y-132474387D01*
X370304350Y-148092340D02*
X370400898Y-147474354D01*
X370019871Y-148650122D02*
X370304350Y-148092340D01*
X369575410Y-149092322D02*
X370019871Y-148650122D01*
X369019114Y-149376542D02*
X369575410Y-149092322D01*
X368401925Y-149474340D02*
X369019114Y-149376542D01*
X368086957Y-149474340D02*
X368401925Y-149474340D01*
X367942177Y-149760089D02*
X368086957Y-149474340D01*
X367444317Y-150257432D02*
X367942177Y-149760089D01*
X366819506Y-150576706D02*
X367444317Y-150257432D01*
X366123511Y-150686690D02*
X366819506Y-150576706D01*
X67364943Y-158542908D02*
X67991816Y-158862182D01*
X66867612Y-158045576D02*
X67364943Y-158542908D01*
X66548332Y-157418956D02*
X66867612Y-158045576D01*
X66438347Y-156724532D02*
X66548332Y-157418956D01*
X66548332Y-156029840D02*
X66438347Y-156724532D01*
X66867612Y-155403209D02*
X66548332Y-156029840D01*
X67364943Y-154905888D02*
X66867612Y-155403209D01*
X67991816Y-154586603D02*
X67364943Y-154905888D01*
X68686251Y-154476371D02*
X67991816Y-154586603D01*
X71686245Y-154476371D02*
X68686251Y-154476371D01*
X72380938Y-154586603D02*
X71686245Y-154476371D01*
X73007552Y-154905888D02*
X72380938Y-154586603D01*
X73504889Y-155403209D02*
X73007552Y-154905888D01*
X73824164Y-156029840D02*
X73504889Y-155403209D01*
X73934148Y-156724532D02*
X73824164Y-156029840D01*
X73824164Y-157418956D02*
X73934148Y-156724532D01*
X73504889Y-158045576D02*
X73824164Y-157418956D01*
X73007552Y-158542908D02*
X73504889Y-158045576D01*
X72380938Y-158862182D02*
X73007552Y-158542908D01*
X71686245Y-158972425D02*
X72380938Y-158862182D01*
X68686251Y-158972425D02*
X71686245Y-158972425D01*
X67991816Y-158862182D02*
X68686251Y-158972425D01*
X360080878Y-158542908D02*
X360705711Y-158862182D01*
X359583040Y-158045576D02*
X360080878Y-158542908D01*
X359262991Y-157418956D02*
X359583040Y-158045576D01*
X359153781Y-156724532D02*
X359262991Y-157418956D01*
X359262991Y-156029840D02*
X359153781Y-156724532D01*
X359583040Y-155403209D02*
X359262991Y-156029840D01*
X360080878Y-154905888D02*
X359583040Y-155403209D01*
X360705711Y-154586603D02*
X360080878Y-154905888D01*
X361401663Y-154476371D02*
X360705711Y-154586603D01*
X364401394Y-154476371D02*
X361401663Y-154476371D01*
X365097389Y-154586603D02*
X364401394Y-154476371D01*
X365722200Y-154905888D02*
X365097389Y-154586603D01*
X366220060Y-155403209D02*
X365722200Y-154905888D01*
X366540109Y-156029840D02*
X366220060Y-155403209D01*
X366649319Y-156724532D02*
X366540109Y-156029840D01*
X366540109Y-157418956D02*
X366649319Y-156724532D01*
X366220060Y-158045576D02*
X366540109Y-157418956D01*
X365722200Y-158542908D02*
X366220060Y-158045576D01*
X365097389Y-158862182D02*
X365722200Y-158542908D01*
X364401394Y-158972425D02*
X365097389Y-158862182D01*
X361401663Y-158972425D02*
X364401394Y-158972425D01*
X360705711Y-158862182D02*
X361401663Y-158972425D01*
X67364943Y-172043010D02*
X67991816Y-172362284D01*
X66867612Y-171545678D02*
X67364943Y-172043010D01*
X66548332Y-170919058D02*
X66867612Y-171545678D01*
X66438347Y-170224376D02*
X66548332Y-170919058D01*
X66548332Y-169529683D02*
X66438347Y-170224376D01*
X66867612Y-168903063D02*
X66548332Y-169529683D01*
X67364943Y-168405732D02*
X66867612Y-168903063D01*
X67991816Y-168086457D02*
X67364943Y-168405732D01*
X68686251Y-167976473D02*
X67991816Y-168086457D01*
X71686245Y-167976473D02*
X68686251Y-167976473D01*
X72380938Y-168086457D02*
X71686245Y-167976473D01*
X73007552Y-168405732D02*
X72380938Y-168086457D01*
X73504889Y-168903063D02*
X73007552Y-168405732D01*
X73824164Y-169529683D02*
X73504889Y-168903063D01*
X73934148Y-170224376D02*
X73824164Y-169529683D01*
X73824164Y-170919058D02*
X73934148Y-170224376D01*
X73504889Y-171545678D02*
X73824164Y-170919058D01*
X73007552Y-172043010D02*
X73504889Y-171545678D01*
X72380938Y-172362284D02*
X73007552Y-172043010D01*
X71686245Y-172472268D02*
X72380938Y-172362284D01*
X68686251Y-172472268D02*
X71686245Y-172472268D01*
X67991816Y-172362284D02*
X68686251Y-172472268D01*
X360705711Y-172362284D02*
X360080878Y-172043010D01*
X361401663Y-172472268D02*
X360705711Y-172362284D01*
X364401394Y-172472268D02*
X361401663Y-172472268D01*
X365097389Y-172362284D02*
X364401394Y-172472268D01*
X365722200Y-172043010D02*
X365097389Y-172362284D01*
X366220060Y-171545678D02*
X365722200Y-172043010D01*
X366540109Y-170919058D02*
X366220060Y-171545678D01*
X366649319Y-170224376D02*
X366540109Y-170919058D01*
X366540109Y-169529683D02*
X366649319Y-170224376D01*
X366220060Y-168903063D02*
X366540109Y-169529683D01*
X365722200Y-168405732D02*
X366220060Y-168903063D01*
X365097389Y-168086457D02*
X365722200Y-168405732D01*
X364401394Y-167976473D02*
X365097389Y-168086457D01*
X361401663Y-167976473D02*
X364401394Y-167976473D01*
X360705711Y-168086457D02*
X361401663Y-167976473D01*
X360080878Y-168405732D02*
X360705711Y-168086457D01*
X359583040Y-168903063D02*
X360080878Y-168405732D01*
X359262991Y-169529683D02*
X359583040Y-168903063D01*
X359153781Y-170224376D02*
X359262991Y-169529683D01*
X359262991Y-170919058D02*
X359153781Y-170224376D01*
X359583040Y-171545678D02*
X359262991Y-170919058D01*
X360080878Y-172043010D02*
X359583040Y-171545678D01*
X71656273Y-182520772D02*
X72361629Y-182414846D01*
X68657549Y-182520772D02*
X71656273Y-182520772D01*
X67951939Y-182414846D02*
X68657549Y-182520772D01*
X67316938Y-182097338D02*
X67951939Y-182414846D01*
X66823159Y-181603311D02*
X67316938Y-182097338D01*
X66505661Y-180968574D02*
X66823159Y-181603311D01*
X66399746Y-180262954D02*
X66505661Y-180968574D01*
X66505661Y-179557344D02*
X66399746Y-180262954D01*
X66823159Y-178922338D02*
X66505661Y-179557344D01*
X67316938Y-178428311D02*
X66823159Y-178922338D01*
X67951939Y-178110813D02*
X67316938Y-178428311D01*
X68657549Y-178005156D02*
X67951939Y-178110813D01*
X71656273Y-178005156D02*
X68657549Y-178005156D01*
X72361629Y-178110813D02*
X71656273Y-178005156D01*
X72996630Y-178428311D02*
X72361629Y-178110813D01*
X73490662Y-178922338D02*
X72996630Y-178428311D01*
X73808160Y-179557344D02*
X73490662Y-178922338D01*
X73914081Y-180262954D02*
X73808160Y-179557344D01*
X73808160Y-180968574D02*
X73914081Y-180262954D01*
X73490662Y-181603311D02*
X73808160Y-180968574D01*
X72996630Y-182097338D02*
X73490662Y-181603311D01*
X72361629Y-182414846D02*
X72996630Y-182097338D01*
X337614571Y-182097338D02*
X336979575Y-182414846D01*
X338109889Y-181603311D02*
X337614571Y-182097338D01*
X338427376Y-180968574D02*
X338109889Y-181603311D01*
X338531526Y-180262954D02*
X338427376Y-180968574D01*
X338427376Y-179557344D02*
X338531526Y-180262954D01*
X338109889Y-178922338D02*
X338427376Y-179557344D01*
X337614571Y-178428311D02*
X338109889Y-178922338D01*
X336979575Y-178110813D02*
X337614571Y-178428311D01*
X336276000Y-178005156D02*
X336979575Y-178110813D01*
X333276269Y-178005156D02*
X336276000Y-178005156D01*
X332570133Y-178110813D02*
X333276269Y-178005156D01*
X331935137Y-178428311D02*
X332570133Y-178110813D01*
X331442381Y-178922338D02*
X331935137Y-178428311D01*
X331124872Y-179557344D02*
X331442381Y-178922338D01*
X331018203Y-180262954D02*
X331124872Y-179557344D01*
X331124872Y-180968574D02*
X331018203Y-180262954D01*
X331442381Y-181603311D02*
X331124872Y-180968574D01*
X331935137Y-182097338D02*
X331442381Y-181603311D01*
X332570133Y-182414846D02*
X331935137Y-182097338D01*
X333276269Y-182520772D02*
X332570133Y-182414846D01*
X336276000Y-182520772D02*
X333276269Y-182520772D01*
X336979575Y-182414846D02*
X336276000Y-182520772D01*
X360705711Y-135362367D02*
X361401663Y-135472352D01*
X360080878Y-135043093D02*
X360705711Y-135362367D01*
X359583040Y-134545751D02*
X360080878Y-135043093D01*
X359262991Y-133918883D02*
X359583040Y-134545751D01*
X359153781Y-133224449D02*
X359262991Y-133918883D01*
X359262991Y-132529756D02*
X359153781Y-133224449D01*
X359583040Y-131903136D02*
X359262991Y-132529756D01*
X360080878Y-131405804D02*
X359583040Y-131903136D01*
X360705711Y-131086519D02*
X360080878Y-131405804D01*
X361401663Y-130976546D02*
X360705711Y-131086519D01*
X364401394Y-130976546D02*
X361401663Y-130976546D01*
X365097389Y-131086519D02*
X364401394Y-130976546D01*
X365722200Y-131405804D02*
X365097389Y-131086519D01*
X366220060Y-131903136D02*
X365722200Y-131405804D01*
X366540109Y-132529756D02*
X366220060Y-131903136D01*
X366649319Y-133224449D02*
X366540109Y-132529756D01*
X366540109Y-133918883D02*
X366649319Y-133224449D01*
X366220060Y-134545751D02*
X366540109Y-133918883D01*
X365722200Y-135043093D02*
X366220060Y-134545751D01*
X365097389Y-135362367D02*
X365722200Y-135043093D01*
X364401394Y-135472352D02*
X365097389Y-135362367D01*
X361401663Y-135472352D02*
X364401394Y-135472352D01*
X71686245Y-135472352D02*
X72380938Y-135362367D01*
X68686251Y-135472352D02*
X71686245Y-135472352D01*
X66823159Y-198103413D02*
X67316938Y-198597440D01*
X66505661Y-197468406D02*
X66823159Y-198103413D01*
X66399746Y-196762797D02*
X66505661Y-197468406D01*
X338427376Y-196057435D02*
X338531526Y-196762797D01*
X338109889Y-195422440D02*
X338427376Y-196057435D01*
X337614571Y-194928413D02*
X338109889Y-195422440D01*
X336979575Y-194610915D02*
X337614571Y-194928413D01*
X336276000Y-194505000D02*
X336979575Y-194610915D01*
X93068900Y-139946000D02*
G75*
G03X93068900Y-139946000I-1473200J0D01*
G01*
X109735560Y-139946000D02*
G75*
G03X109735560Y-139946000I-1473200J0D01*
G01*
X126402220Y-139946000D02*
G75*
G03X126402220Y-139946000I-1473200J0D01*
G01*
X159735540Y-139946000D02*
G75*
G03X159735540Y-139946000I-1473200J0D01*
G01*
X143068880Y-139946000D02*
G75*
G03X143068880Y-139946000I-1473200J0D01*
G01*
X176402200Y-139946000D02*
G75*
G03X176402200Y-139946000I-1473200J0D01*
G01*
X209735520Y-139946000D02*
G75*
G03X209735520Y-139946000I-1473200J0D01*
G01*
X193068860Y-139946000D02*
G75*
G03X193068860Y-139946000I-1473200J0D01*
G01*
X226402180Y-139946000D02*
G75*
G03X226402180Y-139946000I-1473200J0D01*
G01*
X259735500Y-139946000D02*
G75*
G03X259735500Y-139946000I-1473200J0D01*
G01*
X243068840Y-139946000D02*
G75*
G03X243068840Y-139946000I-1473200J0D01*
G01*
X276402160Y-139946000D02*
G75*
G03X276402160Y-139946000I-1473200J0D01*
G01*
X309735480Y-139946000D02*
G75*
G03X309735480Y-139946000I-1473200J0D01*
G01*
X293068820Y-139946000D02*
G75*
G03X293068820Y-139946000I-1473200J0D01*
G01*
X326402140Y-139946000D02*
G75*
G03X326402140Y-139946000I-1473200J0D01*
G01*
X343068800Y-139946000D02*
G75*
G03X343068800Y-139946000I-1473200J0D01*
G01*
X343068800Y-163446000D02*
G75*
G03X343068800Y-163446000I-1473200J0D01*
G01*
X326402140Y-163446000D02*
G75*
G03X326402140Y-163446000I-1473200J0D01*
G01*
X293068820Y-163446000D02*
G75*
G03X293068820Y-163446000I-1473200J0D01*
G01*
X309735480Y-163446000D02*
G75*
G03X309735480Y-163446000I-1473200J0D01*
G01*
X276402160Y-163446000D02*
G75*
G03X276402160Y-163446000I-1473200J0D01*
G01*
X243068840Y-163446000D02*
G75*
G03X243068840Y-163446000I-1473200J0D01*
G01*
X259735500Y-163446000D02*
G75*
G03X259735500Y-163446000I-1473200J0D01*
G01*
X226402180Y-163446000D02*
G75*
G03X226402180Y-163446000I-1473200J0D01*
G01*
X193068860Y-163446000D02*
G75*
G03X193068860Y-163446000I-1473200J0D01*
G01*
X209735520Y-163446000D02*
G75*
G03X209735520Y-163446000I-1473200J0D01*
G01*
X176402200Y-163446000D02*
G75*
G03X176402200Y-163446000I-1473200J0D01*
G01*
X143068880Y-163446000D02*
G75*
G03X143068880Y-163446000I-1473200J0D01*
G01*
X159735540Y-163446000D02*
G75*
G03X159735540Y-163446000I-1473200J0D01*
G01*
X126402220Y-163446000D02*
G75*
G03X126402220Y-163446000I-1473200J0D01*
G01*
X109735560Y-163446000D02*
G75*
G03X109735560Y-163446000I-1473200J0D01*
G01*
X93068900Y-163446000D02*
G75*
G03X93068900Y-163446000I-1473200J0D01*
G01*
M02*
