G04 #@! TF.GenerationSoftware,KiCad,Pcbnew,(5.1.0-0)*
G04 #@! TF.CreationDate,2019-04-23T10:34:18-07:00*
G04 #@! TF.ProjectId,TestPanel1,54657374-5061-46e6-956c-312e6b696361,rev?*
G04 #@! TF.SameCoordinates,Original*
G04 #@! TF.FileFunction,Paste,Bot*
G04 #@! TF.FilePolarity,Positive*
%FSLAX46Y46*%
G04 Gerber Fmt 4.6, Leading zero omitted, Abs format (unit mm)*
G04 Created by KiCad (PCBNEW (5.1.0-0)) date 2019-04-23 10:34:18*
%MOMM*%
%LPD*%
G04 APERTURE LIST*
%ADD10R,2.000000X6.000000*%
G04 APERTURE END LIST*
D10*
X135709980Y-200474000D03*
X132709980Y-200474000D03*
X138709980Y-200474000D03*
X269043260Y-200474000D03*
X266043260Y-200474000D03*
X272043260Y-200474000D03*
X222043280Y-200474000D03*
X216043280Y-200474000D03*
X219043280Y-200474000D03*
X188709960Y-200474000D03*
X182709960Y-200474000D03*
X185709960Y-200474000D03*
X202376620Y-200474000D03*
X199376620Y-200474000D03*
X205376620Y-200474000D03*
X168910000Y-200474000D03*
X165910000Y-200474000D03*
X171910000Y-200474000D03*
X288709920Y-200474000D03*
X282709920Y-200474000D03*
X285709920Y-200474000D03*
X155376640Y-200474000D03*
X149376640Y-200474000D03*
X152376640Y-200474000D03*
X235709940Y-200474000D03*
X232709940Y-200474000D03*
X238709940Y-200474000D03*
X255376600Y-200474000D03*
X249376600Y-200474000D03*
X252376600Y-200474000D03*
X122043320Y-200474000D03*
X116043320Y-200474000D03*
X119043320Y-200474000D03*
X119043320Y-183974000D03*
X116043320Y-183974000D03*
X122043320Y-183974000D03*
X138709980Y-183974000D03*
X132709980Y-183974000D03*
X135709980Y-183974000D03*
X152376640Y-183974000D03*
X149376640Y-183974000D03*
X155376640Y-183974000D03*
X285709920Y-183974000D03*
X282709920Y-183974000D03*
X288709920Y-183974000D03*
X272043260Y-183974000D03*
X266043260Y-183974000D03*
X269043260Y-183974000D03*
X252376600Y-183974000D03*
X249376600Y-183974000D03*
X255376600Y-183974000D03*
X238709940Y-183974000D03*
X232709940Y-183974000D03*
X235709940Y-183974000D03*
X219043280Y-183974000D03*
X216043280Y-183974000D03*
X222043280Y-183974000D03*
X205376620Y-183974000D03*
X199376620Y-183974000D03*
X202376620Y-183974000D03*
X185709960Y-183974000D03*
X182709960Y-183974000D03*
X188709960Y-183974000D03*
X171910000Y-183974000D03*
X165910000Y-183974000D03*
X168910000Y-183974000D03*
M02*
