G04 #@! TF.GenerationSoftware,KiCad,Pcbnew,(5.0.0-3-g5ebb6b6)*
G04 #@! TF.CreationDate,2019-02-22T00:56:02-08:00*
G04 #@! TF.ProjectId,Panel,50616E656C2E6B696361645F70636200,rev?*
G04 #@! TF.SameCoordinates,Original*
G04 #@! TF.FileFunction,Profile,NP*
%FSLAX45Y45*%
G04 Gerber Fmt 4.5, Leading zero omitted, Abs format (unit mm)*
G04 Created by KiCad (PCBNEW (5.0.0-3-g5ebb6b6)) date Friday, February 22, 2019 at 12:56:02 AM*
%MOMM*%
%LPD*%
G01*
G04 APERTURE LIST*
%ADD10C,0.010000*%
G04 APERTURE END LIST*
D10*
X28917357Y-4517993D02*
X28927940Y-4461553D01*
X28927940Y-4461553D02*
X28959691Y-4415691D01*
X28959691Y-4415691D02*
X29005551Y-4383940D01*
X29005551Y-4383940D02*
X29061995Y-4373359D01*
X29061995Y-4373359D02*
X29118438Y-4383940D01*
X29118438Y-4383940D02*
X29164299Y-4415691D01*
X29164299Y-4415691D02*
X29196050Y-4461553D01*
X29196050Y-4461553D02*
X29206633Y-4517993D01*
X29206633Y-4517993D02*
X29196050Y-4574441D01*
X29196050Y-4574441D02*
X29164299Y-4620303D01*
X29164299Y-4620303D02*
X29118438Y-4652050D01*
X29118438Y-4652050D02*
X29061995Y-4662635D01*
X29061995Y-4662635D02*
X29005551Y-4652050D01*
X29005551Y-4652050D02*
X28959691Y-4620303D01*
X28959691Y-4620303D02*
X28927940Y-4574441D01*
X28927940Y-4574441D02*
X28917357Y-4517993D01*
X8459068Y-9049780D02*
X8448485Y-9106223D01*
X5185290Y-8852225D02*
X5185290Y-6947225D01*
X5336984Y-8852225D02*
X5185290Y-8852225D01*
X5336984Y-8301892D02*
X5336984Y-8852225D01*
X5347567Y-8238391D02*
X5336984Y-8301892D01*
X5375789Y-8181943D02*
X5347567Y-8238391D01*
X5421652Y-8136084D02*
X5375789Y-8181943D01*
X5478095Y-8107865D02*
X5421652Y-8136084D01*
X5541595Y-8097279D02*
X5478095Y-8107865D01*
X5573346Y-8097279D02*
X5541595Y-8097279D01*
X5587456Y-8069056D02*
X5573346Y-8097279D01*
X5636845Y-8019670D02*
X5587456Y-8069056D01*
X5700345Y-7987919D02*
X5636845Y-8019670D01*
X5770900Y-7977338D02*
X5700345Y-7987919D01*
X6416483Y-7977338D02*
X5770900Y-7977338D01*
X6487039Y-7987919D02*
X6416483Y-7977338D01*
X6550541Y-8019670D02*
X6487039Y-7987919D01*
X6599928Y-8069056D02*
X6550541Y-8019670D01*
X6614040Y-8097279D02*
X6599928Y-8069056D01*
X12283289Y-8097279D02*
X6614040Y-8097279D01*
X12283289Y-7698639D02*
X12283289Y-8097279D01*
X6614040Y-7698639D02*
X12283289Y-7698639D01*
X6599928Y-7726863D02*
X6614040Y-7698639D01*
X6550541Y-7776248D02*
X6599928Y-7726863D01*
X6487039Y-7807999D02*
X6550541Y-7776248D01*
X6416483Y-7818580D02*
X6487039Y-7807999D01*
X5770900Y-7818580D02*
X6416483Y-7818580D01*
X5700345Y-7807999D02*
X5770900Y-7818580D01*
X5636845Y-7776248D02*
X5700345Y-7807999D01*
X5587456Y-7726863D02*
X5636845Y-7776248D01*
X5573346Y-7698639D02*
X5587456Y-7726863D01*
X5541595Y-7698639D02*
X5573346Y-7698639D01*
X5478095Y-7688054D02*
X5541595Y-7698639D01*
X5421652Y-7659834D02*
X5478095Y-7688054D01*
X5375789Y-7613976D02*
X5421652Y-7659834D01*
X5347567Y-7557528D02*
X5375789Y-7613976D01*
X5336984Y-7497557D02*
X5347567Y-7557528D01*
X5336984Y-6947225D02*
X5336984Y-7497557D01*
X5185290Y-6947225D02*
X5336984Y-6947225D01*
X6469400Y-6072334D02*
X6458817Y-6142890D01*
X6458817Y-6001779D02*
X6469400Y-6072334D01*
X6427066Y-5938281D02*
X6458817Y-6001779D01*
X6377679Y-5888891D02*
X6427066Y-5938281D01*
X6314179Y-5857141D02*
X6377679Y-5888891D01*
X6243623Y-5846556D02*
X6314179Y-5857141D01*
X5943762Y-5846556D02*
X6243623Y-5846556D01*
X5873207Y-5857141D02*
X5943762Y-5846556D01*
X5809705Y-5888891D02*
X5873207Y-5857141D01*
X5760317Y-5938281D02*
X5809705Y-5888891D01*
X5728567Y-6001779D02*
X5760317Y-5938281D01*
X5717984Y-6072334D02*
X5728567Y-6001779D01*
X5728567Y-6142890D02*
X5717984Y-6072334D01*
X5760317Y-6206387D02*
X5728567Y-6142890D01*
X5809705Y-6255781D02*
X5760317Y-6206387D01*
X5873207Y-6287528D02*
X5809705Y-6255781D01*
X5943762Y-6298113D02*
X5873207Y-6287528D01*
X6243623Y-6298113D02*
X5943762Y-6298113D01*
X6314179Y-6287528D02*
X6243623Y-6298113D01*
X6377679Y-6255781D02*
X6314179Y-6287528D01*
X6427066Y-6206387D02*
X6377679Y-6255781D01*
X6458817Y-6142890D02*
X6427066Y-6206387D01*
X5717984Y-7419948D02*
X5728567Y-7349392D01*
X5728567Y-7490503D02*
X5717984Y-7419948D01*
X5760317Y-7554001D02*
X5728567Y-7490503D01*
X5809705Y-7603391D02*
X5760317Y-7554001D01*
X5873207Y-7635137D02*
X5809705Y-7603391D01*
X5943762Y-7645722D02*
X5873207Y-7635137D01*
X6243623Y-7645722D02*
X5943762Y-7645722D01*
X6314179Y-7635137D02*
X6243623Y-7645722D01*
X6377679Y-7603391D02*
X6314179Y-7635137D01*
X6427066Y-7554001D02*
X6377679Y-7603391D01*
X6458817Y-7490503D02*
X6427066Y-7554001D01*
X6469400Y-7419948D02*
X6458817Y-7490503D01*
X6458817Y-7349392D02*
X6469400Y-7419948D01*
X6427066Y-7285891D02*
X6458817Y-7349392D01*
X6377679Y-7236501D02*
X6427066Y-7285891D01*
X6314179Y-7204750D02*
X6377679Y-7236501D01*
X6243623Y-7194169D02*
X6314179Y-7204750D01*
X5943762Y-7194169D02*
X6243623Y-7194169D01*
X5873207Y-7204750D02*
X5943762Y-7194169D01*
X5809705Y-7236501D02*
X5873207Y-7204750D01*
X5760317Y-7285891D02*
X5809705Y-7236501D01*
X5728567Y-7349392D02*
X5760317Y-7285891D01*
X5880263Y-6345733D02*
X5880263Y-6545057D01*
X5580402Y-6345733D02*
X5880263Y-6345733D01*
X5580402Y-6545057D02*
X5580402Y-6345733D01*
X5880263Y-6545057D02*
X5580402Y-6545057D01*
X5580402Y-7146541D02*
X5580402Y-6947225D01*
X5880263Y-7146541D02*
X5580402Y-7146541D01*
X5880263Y-6947225D02*
X5880263Y-7146541D01*
X5580402Y-6947225D02*
X5880263Y-6947225D01*
X8448485Y-6689695D02*
X8459068Y-6746139D01*
X8416734Y-6643837D02*
X8448485Y-6689695D01*
X8370873Y-6612082D02*
X8416734Y-6643837D01*
X8314429Y-6601501D02*
X8370873Y-6612082D01*
X8257984Y-6612082D02*
X8314429Y-6601501D01*
X8212123Y-6643837D02*
X8257984Y-6612082D01*
X8180374Y-6689695D02*
X8212123Y-6643837D01*
X8169791Y-6746139D02*
X8180374Y-6689695D01*
X8180374Y-6802587D02*
X8169791Y-6746139D01*
X8212123Y-6848445D02*
X8180374Y-6802587D01*
X8257984Y-6880196D02*
X8212123Y-6848445D01*
X33897874Y-12828029D02*
X33880233Y-12764531D01*
X33897874Y-13374834D02*
X33897874Y-12828029D01*
X34053095Y-13374834D02*
X33897874Y-13374834D01*
X34053095Y-11455722D02*
X34053095Y-13374834D01*
X33897874Y-11455722D02*
X34053095Y-11455722D01*
X33897874Y-12006059D02*
X33897874Y-11455722D01*
X33887292Y-12066029D02*
X33897874Y-12006059D01*
X33859070Y-12122473D02*
X33887292Y-12066029D01*
X33813209Y-12168332D02*
X33859070Y-12122473D01*
X33756765Y-12196556D02*
X33813209Y-12168332D01*
X33696793Y-12207141D02*
X33756765Y-12196556D01*
X33665042Y-12207141D02*
X33696793Y-12207141D01*
X33650930Y-12235360D02*
X33665042Y-12207141D01*
X33601540Y-12284750D02*
X33650930Y-12235360D01*
X33538041Y-12316497D02*
X33601540Y-12284750D01*
X33467485Y-12327082D02*
X33538041Y-12316497D01*
X32821902Y-12327082D02*
X33467485Y-12327082D01*
X32751347Y-12316497D02*
X32821902Y-12327082D01*
X32687847Y-12284750D02*
X32751347Y-12316497D01*
X32638457Y-12235360D02*
X32687847Y-12284750D01*
X32624345Y-12207141D02*
X32638457Y-12235360D01*
X26015177Y-12207141D02*
X32624345Y-12207141D01*
X26015177Y-12623420D02*
X26015177Y-12207141D01*
X32617287Y-12623420D02*
X26015177Y-12623420D01*
X32631399Y-12595196D02*
X32617287Y-12623420D01*
X32680789Y-12545811D02*
X32631399Y-12595196D01*
X32744288Y-12514060D02*
X32680789Y-12545811D01*
X32814844Y-12503479D02*
X32744288Y-12514060D01*
X33460427Y-12503479D02*
X32814844Y-12503479D01*
X33530982Y-12514060D02*
X33460427Y-12503479D01*
X33594482Y-12545811D02*
X33530982Y-12514060D01*
X33643872Y-12595196D02*
X33594482Y-12545811D01*
X33657984Y-12623420D02*
X33643872Y-12595196D01*
X33689735Y-12623420D02*
X33657984Y-12623420D01*
X33749707Y-12634005D02*
X33689735Y-12623420D01*
X33806151Y-12662225D02*
X33749707Y-12634005D01*
X33852012Y-12708083D02*
X33806151Y-12662225D01*
X33880233Y-12764531D02*
X33852012Y-12708083D01*
X26015177Y-18426615D02*
X32680791Y-18426615D01*
X26015177Y-18585365D02*
X26015177Y-18426615D01*
X32684316Y-18585365D02*
X26015177Y-18585365D01*
X32684316Y-18687667D02*
X32684316Y-18585365D01*
X33291096Y-13127894D02*
X32991235Y-13127894D01*
X33361652Y-13117309D02*
X33291096Y-13127894D01*
X33425151Y-13085558D02*
X33361652Y-13117309D01*
X33474541Y-13036168D02*
X33425151Y-13085558D01*
X33506292Y-12972667D02*
X33474541Y-13036168D01*
X33516875Y-12902111D02*
X33506292Y-12972667D01*
X33506292Y-12831556D02*
X33516875Y-12902111D01*
X33474541Y-12768058D02*
X33506292Y-12831556D01*
X33425151Y-12718668D02*
X33474541Y-12768058D01*
X33361652Y-12686917D02*
X33425151Y-12718668D01*
X33291096Y-12676337D02*
X33361652Y-12686917D01*
X32991235Y-12676337D02*
X33291096Y-12676337D01*
X32920679Y-12686917D02*
X32991235Y-12676337D01*
X32857180Y-12718668D02*
X32920679Y-12686917D01*
X32807790Y-12768058D02*
X32857180Y-12718668D01*
X32776039Y-12831556D02*
X32807790Y-12768058D01*
X32765456Y-12902111D02*
X32776039Y-12831556D01*
X32776039Y-12972667D02*
X32765456Y-12902111D01*
X32807790Y-13036168D02*
X32776039Y-12972667D01*
X32857180Y-13085558D02*
X32807790Y-13036168D01*
X32920679Y-13117309D02*
X32857180Y-13085558D01*
X32991235Y-13127894D02*
X32920679Y-13117309D01*
X35150233Y-2724472D02*
X11681928Y-2724472D01*
X35150233Y-23725335D02*
X35150233Y-2724472D01*
X3149762Y-23725335D02*
X35150233Y-23725335D01*
X3149762Y-2724472D02*
X3149762Y-23725335D01*
X19077679Y-4580087D02*
X19067096Y-4523639D01*
X19109430Y-4625945D02*
X19077679Y-4580087D01*
X19155290Y-4657696D02*
X19109430Y-4625945D01*
X19211734Y-4668277D02*
X19155290Y-4657696D01*
X19268177Y-4657696D02*
X19211734Y-4668277D01*
X19314038Y-4625945D02*
X19268177Y-4657696D01*
X19345789Y-4580087D02*
X19314038Y-4625945D01*
X19356372Y-4523639D02*
X19345789Y-4580087D01*
X19345789Y-4467195D02*
X19356372Y-4523639D01*
X19314038Y-4421337D02*
X19345789Y-4467195D01*
X19268177Y-4389582D02*
X19314038Y-4421337D01*
X19211734Y-4379001D02*
X19268177Y-4389582D01*
X19155290Y-4389582D02*
X19211734Y-4379001D01*
X19109430Y-4421337D02*
X19155290Y-4389582D01*
X19077679Y-4467195D02*
X19109430Y-4421337D01*
X19067096Y-4523639D02*
X19077679Y-4467195D01*
X12681928Y-4876417D02*
X25616539Y-4876417D01*
X12681928Y-5035167D02*
X12681928Y-4876417D01*
X25616539Y-5035167D02*
X12681928Y-5035167D01*
X25616539Y-4876417D02*
X25616539Y-5035167D01*
X25616539Y-12623420D02*
X12681928Y-12623420D01*
X25616539Y-12207141D02*
X25616539Y-12623420D01*
X12681928Y-12207141D02*
X25616539Y-12207141D01*
X12681928Y-12623420D02*
X12681928Y-12207141D01*
X20700456Y-13635891D02*
X20689874Y-13579447D01*
X20732207Y-13681753D02*
X20700456Y-13635891D01*
X20778068Y-13713500D02*
X20732207Y-13681753D01*
X20834512Y-13724085D02*
X20778068Y-13713500D01*
X20890955Y-13713500D02*
X20834512Y-13724085D01*
X20936816Y-13681753D02*
X20890955Y-13713500D01*
X20968567Y-13635891D02*
X20936816Y-13681753D01*
X20979150Y-13579447D02*
X20968567Y-13635891D01*
X20968567Y-13523003D02*
X20979150Y-13579447D01*
X20936816Y-13477141D02*
X20968567Y-13523003D01*
X20890955Y-13445394D02*
X20936816Y-13477141D01*
X20834512Y-13434809D02*
X20890955Y-13445394D01*
X20778068Y-13445394D02*
X20834512Y-13434809D01*
X20732207Y-13477141D02*
X20778068Y-13445394D01*
X20700456Y-13523003D02*
X20732207Y-13477141D01*
X20689874Y-13579447D02*
X20700456Y-13523003D01*
X25616539Y-14927061D02*
X12681928Y-14927061D01*
X25616539Y-14528416D02*
X25616539Y-14927061D01*
X12681928Y-14528416D02*
X25616539Y-14528416D01*
X12681928Y-14927061D02*
X12681928Y-14528416D01*
X19846734Y-15943058D02*
X19836151Y-15886615D01*
X19878485Y-15988917D02*
X19846734Y-15943058D01*
X19924345Y-16020672D02*
X19878485Y-15988917D01*
X19980789Y-16031253D02*
X19924345Y-16020672D01*
X20037233Y-16020672D02*
X19980789Y-16031253D01*
X20083093Y-15988917D02*
X20037233Y-16020672D01*
X20114844Y-15943058D02*
X20083093Y-15988917D01*
X20125427Y-15886615D02*
X20114844Y-15943058D01*
X20114844Y-15830171D02*
X20125427Y-15886615D01*
X20083093Y-15784312D02*
X20114844Y-15830171D01*
X20037233Y-15752557D02*
X20083093Y-15784312D01*
X19980789Y-15741976D02*
X20037233Y-15752557D01*
X19924345Y-15752557D02*
X19980789Y-15741976D01*
X19878485Y-15784312D02*
X19924345Y-15752557D01*
X19846734Y-15830171D02*
X19878485Y-15784312D01*
X19836151Y-15886615D02*
X19846734Y-15830171D01*
X25616539Y-17121337D02*
X12681928Y-17121337D01*
X25616539Y-16828530D02*
X25616539Y-17121337D01*
X12681928Y-16828530D02*
X25616539Y-16828530D01*
X12681928Y-17121337D02*
X12681928Y-16828530D01*
X20679291Y-18133807D02*
X20668708Y-18077364D01*
X20711042Y-18179670D02*
X20679291Y-18133807D01*
X20756902Y-18211417D02*
X20711042Y-18179670D01*
X20813346Y-18222002D02*
X20756902Y-18211417D01*
X20869789Y-18211417D02*
X20813346Y-18222002D01*
X20915650Y-18179670D02*
X20869789Y-18211417D01*
X20947401Y-18133807D02*
X20915650Y-18179670D01*
X20957984Y-18077364D02*
X20947401Y-18133807D01*
X20947401Y-18020920D02*
X20957984Y-18077364D01*
X20915650Y-17975057D02*
X20947401Y-18020920D01*
X31915261Y-7603391D02*
X31865871Y-7554001D01*
X31978760Y-7635137D02*
X31915261Y-7603391D01*
X32049316Y-7645722D02*
X31978760Y-7635137D01*
X32349177Y-7645722D02*
X32049316Y-7645722D01*
X32419732Y-7635137D02*
X32349177Y-7645722D01*
X32483232Y-7603391D02*
X32419732Y-7635137D01*
X32532622Y-7554001D02*
X32483232Y-7603391D01*
X32564373Y-7490503D02*
X32532622Y-7554001D01*
X32574956Y-7419948D02*
X32564373Y-7490503D01*
X32564373Y-7349392D02*
X32574956Y-7419948D01*
X32532622Y-7285891D02*
X32564373Y-7349392D01*
X32483232Y-7236501D02*
X32532622Y-7285891D01*
X32419732Y-7204750D02*
X32483232Y-7236501D01*
X32349177Y-7194169D02*
X32419732Y-7204750D01*
X32049316Y-7194169D02*
X32349177Y-7194169D01*
X31978760Y-7204750D02*
X32049316Y-7194169D01*
X31915261Y-7236501D02*
X31978760Y-7204750D01*
X31865871Y-7285891D02*
X31915261Y-7236501D01*
X31834120Y-7349392D02*
X31865871Y-7285891D01*
X32578485Y-6072334D02*
X32567902Y-6142890D01*
X32567902Y-6001779D02*
X32578485Y-6072334D01*
X32536151Y-5938281D02*
X32567902Y-6001779D01*
X32486761Y-5888891D02*
X32536151Y-5938281D01*
X32423261Y-5857141D02*
X32486761Y-5888891D01*
X32352706Y-5846556D02*
X32423261Y-5857141D01*
X32052845Y-5846556D02*
X32352706Y-5846556D01*
X31982289Y-5857141D02*
X32052845Y-5846556D01*
X31918790Y-5888891D02*
X31982289Y-5857141D01*
X31869400Y-5938281D02*
X31918790Y-5888891D01*
X31837649Y-6001779D02*
X31869400Y-5938281D01*
X31827066Y-6072334D02*
X31837649Y-6001779D01*
X31837649Y-6142890D02*
X31827066Y-6072334D01*
X31869400Y-6206387D02*
X31837649Y-6142890D01*
X31918790Y-6255781D02*
X31869400Y-6206387D01*
X31982289Y-6287528D02*
X31918790Y-6255781D01*
X32052845Y-6298113D02*
X31982289Y-6287528D01*
X32352706Y-6298113D02*
X32052845Y-6298113D01*
X32423261Y-6287528D02*
X32352706Y-6298113D01*
X32486761Y-6255781D02*
X32423261Y-6287528D01*
X32536151Y-6206387D02*
X32486761Y-6255781D01*
X32567902Y-6142890D02*
X32536151Y-6206387D01*
X32416208Y-6945455D02*
X32716069Y-6945455D01*
X32416208Y-7146545D02*
X32416208Y-6945455D01*
X32716069Y-7146545D02*
X32416208Y-7146545D01*
X32716069Y-6945455D02*
X32716069Y-7146545D01*
X32716069Y-6345737D02*
X32716069Y-6545057D01*
X32416208Y-6345737D02*
X32716069Y-6345737D01*
X32416208Y-6545057D02*
X32416208Y-6345737D01*
X32716069Y-6545057D02*
X32416208Y-6545057D01*
X29855040Y-6809641D02*
X29844457Y-6753193D01*
X29886791Y-6855503D02*
X29855040Y-6809641D01*
X29932651Y-6887250D02*
X29886791Y-6855503D01*
X29989095Y-6897835D02*
X29932651Y-6887250D01*
X30045538Y-6887250D02*
X29989095Y-6897835D01*
X30091399Y-6855503D02*
X30045538Y-6887250D01*
X30123150Y-6809641D02*
X30091399Y-6855503D01*
X30133733Y-6753193D02*
X30123150Y-6809641D01*
X30123150Y-6696753D02*
X30133733Y-6753193D01*
X30091399Y-6650891D02*
X30123150Y-6696753D01*
X30045538Y-6619140D02*
X30091399Y-6650891D01*
X29989095Y-6608559D02*
X30045538Y-6619140D01*
X29932651Y-6619140D02*
X29989095Y-6608559D01*
X29886791Y-6650891D02*
X29932651Y-6619140D01*
X29855040Y-6696753D02*
X29886791Y-6650891D01*
X29844457Y-6753193D02*
X29855040Y-6696753D01*
X26015177Y-7698639D02*
X31682426Y-7698639D01*
X26015177Y-8097279D02*
X26015177Y-7698639D01*
X31675372Y-8097279D02*
X26015177Y-8097279D01*
X31689484Y-8069056D02*
X31675372Y-8097279D01*
X31738874Y-8019670D02*
X31689484Y-8069056D01*
X31802373Y-7987919D02*
X31738874Y-8019670D01*
X31872929Y-7977338D02*
X31802373Y-7987919D01*
X32518512Y-7977338D02*
X31872929Y-7977338D01*
X32589067Y-7987919D02*
X32518512Y-7977338D01*
X32652567Y-8019670D02*
X32589067Y-7987919D01*
X32701957Y-8069056D02*
X32652567Y-8019670D01*
X32716069Y-8097279D02*
X32701957Y-8069056D01*
X32747820Y-8097279D02*
X32716069Y-8097279D01*
X32811319Y-8107865D02*
X32747820Y-8097279D01*
X32867763Y-8136084D02*
X32811319Y-8107865D01*
X32913623Y-8181943D02*
X32867763Y-8136084D01*
X32941845Y-8238391D02*
X32913623Y-8181943D01*
X32959482Y-8301892D02*
X32941845Y-8238391D01*
X32959482Y-8848698D02*
X32959482Y-8301892D01*
X33111178Y-8848698D02*
X32959482Y-8848698D01*
X33111178Y-6943698D02*
X33111178Y-8848698D01*
X32959482Y-6943698D02*
X33111178Y-6943698D01*
X32959482Y-7497557D02*
X32959482Y-6943698D01*
X32948899Y-7557528D02*
X32959482Y-7497557D01*
X32920677Y-7613976D02*
X32948899Y-7557528D01*
X32874817Y-7659834D02*
X32920677Y-7613976D01*
X32818373Y-7688054D02*
X32874817Y-7659834D01*
X32754873Y-7698639D02*
X32818373Y-7688054D01*
X32723123Y-7698639D02*
X32754873Y-7698639D01*
X32709011Y-7726863D02*
X32723123Y-7698639D01*
X32659621Y-7776248D02*
X32709011Y-7726863D01*
X32596121Y-7807999D02*
X32659621Y-7776248D01*
X32525566Y-7818580D02*
X32596121Y-7807999D01*
X31879983Y-7818580D02*
X32525566Y-7818580D01*
X31809427Y-7807999D02*
X31879983Y-7818580D01*
X31745928Y-7776248D02*
X31809427Y-7807999D01*
X31696538Y-7726863D02*
X31745928Y-7776248D01*
X31682426Y-7698639D02*
X31696538Y-7726863D01*
X12681928Y-7698639D02*
X25616539Y-7698639D01*
X12681928Y-8097279D02*
X12681928Y-7698639D01*
X25616539Y-8097279D02*
X12681928Y-8097279D01*
X25616539Y-7698639D02*
X25616539Y-8097279D01*
X21790539Y-6696753D02*
X21801121Y-6753193D01*
X21758788Y-6650891D02*
X21790539Y-6696753D01*
X21712927Y-6619140D02*
X21758788Y-6650891D01*
X21656483Y-6608559D02*
X21712927Y-6619140D01*
X21600040Y-6619140D02*
X21656483Y-6608559D01*
X21554179Y-6650891D02*
X21600040Y-6619140D01*
X21522428Y-6696753D02*
X21554179Y-6650891D01*
X21511845Y-6753193D02*
X21522428Y-6696753D01*
X21522428Y-6809641D02*
X21511845Y-6753193D01*
X21554179Y-6855503D02*
X21522428Y-6809641D01*
X21600040Y-6887250D02*
X21554179Y-6855503D01*
X21656483Y-6897835D02*
X21600040Y-6887250D01*
X21712927Y-6887250D02*
X21656483Y-6897835D01*
X21758788Y-6855503D02*
X21712927Y-6887250D01*
X21790539Y-6809641D02*
X21758788Y-6855503D01*
X21801121Y-6753193D02*
X21790539Y-6809641D01*
X12681928Y-5638420D02*
X25616539Y-5638420D01*
X12681928Y-5793639D02*
X12681928Y-5638420D01*
X25616539Y-5793639D02*
X12681928Y-5793639D01*
X25616539Y-5638420D02*
X25616539Y-5793639D01*
X30334817Y-3849838D02*
X30324234Y-3920394D01*
X30324234Y-3779283D02*
X30334817Y-3849838D01*
X30292483Y-3715781D02*
X30324234Y-3779283D01*
X30243093Y-3666391D02*
X30292483Y-3715781D01*
X30179594Y-3634641D02*
X30243093Y-3666391D01*
X30109038Y-3624060D02*
X30179594Y-3634641D01*
X29809177Y-3624060D02*
X30109038Y-3624060D01*
X29738621Y-3634641D02*
X29809177Y-3624060D01*
X29675122Y-3666391D02*
X29738621Y-3634641D01*
X29625732Y-3715781D02*
X29675122Y-3666391D01*
X29593981Y-3779283D02*
X29625732Y-3715781D01*
X29583398Y-3849838D02*
X29593981Y-3779283D01*
X29593981Y-3920394D02*
X29583398Y-3849838D01*
X29625732Y-3983891D02*
X29593981Y-3920394D01*
X29675122Y-4033281D02*
X29625732Y-3983891D01*
X29738621Y-4065028D02*
X29675122Y-4033281D01*
X29809177Y-4075613D02*
X29738621Y-4065028D01*
X30109038Y-4075613D02*
X29809177Y-4075613D01*
X30179594Y-4065028D02*
X30109038Y-4075613D01*
X30243093Y-4033281D02*
X30179594Y-4065028D01*
X30292483Y-3983891D02*
X30243093Y-4033281D01*
X30324234Y-3920394D02*
X30292483Y-3983891D01*
X30461818Y-4103837D02*
X30461818Y-4304923D01*
X30161957Y-4103837D02*
X30461818Y-4103837D01*
X30161957Y-4304923D02*
X30161957Y-4103837D01*
X30461818Y-4304923D02*
X30161957Y-4304923D01*
X26015177Y-4876417D02*
X30161957Y-4876417D01*
X26015177Y-5035167D02*
X26015177Y-4876417D01*
X29899680Y-5035167D02*
X26015177Y-5035167D01*
X29899680Y-5135712D02*
X29899680Y-5035167D01*
X30199541Y-5135712D02*
X29899680Y-5135712D01*
X30199541Y-5035167D02*
X30199541Y-5135712D01*
X30299539Y-5035167D02*
X30199541Y-5035167D01*
X30299539Y-5137477D02*
X30299539Y-5035167D01*
X30458289Y-5137477D02*
X30299539Y-5137477D01*
X30458289Y-5038698D02*
X30458289Y-5137477D01*
X30867510Y-5038698D02*
X30458289Y-5038698D01*
X30867510Y-4707086D02*
X30867510Y-5038698D01*
X30701709Y-4707086D02*
X30867510Y-4707086D01*
X30701709Y-4876417D02*
X30701709Y-4707086D01*
X30461818Y-4876417D02*
X30701709Y-4876417D01*
X30461818Y-4775872D02*
X30461818Y-4876417D01*
X30161957Y-4775872D02*
X30461818Y-4775872D01*
X30161957Y-4876417D02*
X30161957Y-4775872D01*
X25616539Y-18426615D02*
X25616539Y-18585365D01*
X12681928Y-18426615D02*
X25616539Y-18426615D01*
X12681928Y-18585365D02*
X12681928Y-18426615D01*
X25616539Y-18585365D02*
X12681928Y-18585365D01*
X33795568Y-19446141D02*
X33633289Y-19446141D01*
X33795568Y-19178027D02*
X33795568Y-19446141D01*
X33058261Y-19178027D02*
X33795568Y-19178027D01*
X33058261Y-19089834D02*
X33058261Y-19178027D01*
X32684316Y-19089834D02*
X33058261Y-19089834D01*
X32684316Y-19185085D02*
X32684316Y-19089834D01*
X26015177Y-19185085D02*
X32684316Y-19185085D01*
X26015177Y-19347364D02*
X26015177Y-19185085D01*
X33233430Y-19347364D02*
X26015177Y-19347364D01*
X33233430Y-19446141D02*
X33233430Y-19347364D01*
X33533291Y-19446141D02*
X33233430Y-19446141D01*
X33533291Y-19347364D02*
X33533291Y-19446141D01*
X33633289Y-19347364D02*
X33533291Y-19347364D01*
X33633289Y-19446141D02*
X33633289Y-19347364D01*
X25616539Y-20109363D02*
X12681928Y-20109363D01*
X25616539Y-19947086D02*
X25616539Y-20109363D01*
X12681928Y-19947086D02*
X25616539Y-19947086D01*
X12681928Y-20109363D02*
X12681928Y-19947086D01*
X4504427Y-19844780D02*
X4663177Y-19844780D01*
X4504427Y-20208140D02*
X4504427Y-19844780D01*
X5063039Y-20208140D02*
X4763178Y-20208140D01*
X5063039Y-20109363D02*
X5063039Y-20208140D01*
X12283289Y-20109363D02*
X5063039Y-20109363D01*
X20679291Y-18020920D02*
X20711042Y-17975057D01*
X20668708Y-18077364D02*
X20679291Y-18020920D01*
X12283289Y-19947086D02*
X12283289Y-20109363D01*
X5063039Y-19947086D02*
X12283289Y-19947086D01*
X5063039Y-19848306D02*
X5063039Y-19947086D01*
X4763178Y-19848306D02*
X5063039Y-19848306D01*
X4763178Y-19947086D02*
X4763178Y-19848306D01*
X4663177Y-19947086D02*
X4763178Y-19947086D01*
X4663177Y-19844780D02*
X4663177Y-19947086D01*
X12681928Y-19347364D02*
X12681928Y-19185085D01*
X25616539Y-19347364D02*
X12681928Y-19347364D01*
X25616539Y-19185085D02*
X25616539Y-19347364D01*
X12681928Y-19185085D02*
X25616539Y-19185085D01*
X4504427Y-19185085D02*
X5241734Y-19185085D01*
X4504427Y-19446141D02*
X4504427Y-19185085D01*
X4663177Y-19446141D02*
X4504427Y-19446141D01*
X4663177Y-19347364D02*
X4663177Y-19446141D01*
X4763178Y-19347364D02*
X4663177Y-19347364D01*
X4763178Y-19446139D02*
X4763178Y-19347364D01*
X5063039Y-19446139D02*
X4763178Y-19446139D01*
X5063039Y-19347364D02*
X5063039Y-19446139D01*
X12283289Y-19347364D02*
X5063039Y-19347364D01*
X12283289Y-19185085D02*
X12283289Y-19347364D01*
X5612150Y-19185085D02*
X12283289Y-19185085D01*
X5612150Y-19086307D02*
X5612150Y-19185085D01*
X5241734Y-19086307D02*
X5612150Y-19086307D01*
X5241734Y-19185085D02*
X5241734Y-19086307D01*
X20869789Y-17943311D02*
X20915650Y-17975057D01*
X20813346Y-17932726D02*
X20869789Y-17943311D01*
X20756902Y-17943311D02*
X20813346Y-17932726D01*
X20711042Y-17975057D02*
X20756902Y-17943311D01*
X32754873Y-17396501D02*
X32744291Y-17467056D01*
X32744291Y-17325945D02*
X32754873Y-17396501D01*
X32712540Y-17262448D02*
X32744291Y-17325945D01*
X32663150Y-17213054D02*
X32712540Y-17262448D01*
X32599650Y-17181307D02*
X32663150Y-17213054D01*
X32529095Y-17170722D02*
X32599650Y-17181307D01*
X32229234Y-17170722D02*
X32529095Y-17170722D01*
X32158678Y-17181307D02*
X32229234Y-17170722D01*
X32095179Y-17213054D02*
X32158678Y-17181307D01*
X32045789Y-17262448D02*
X32095179Y-17213054D01*
X32014038Y-17325945D02*
X32045789Y-17262448D01*
X32003455Y-17396501D02*
X32014038Y-17325945D01*
X32014038Y-17467056D02*
X32003455Y-17396501D01*
X32045789Y-17530554D02*
X32014038Y-17467056D01*
X32095179Y-17579948D02*
X32045789Y-17530554D01*
X32158678Y-17611694D02*
X32095179Y-17579948D01*
X32229234Y-17622280D02*
X32158678Y-17611694D01*
X32529095Y-17622280D02*
X32229234Y-17622280D01*
X32599650Y-17611694D02*
X32529095Y-17622280D01*
X32663150Y-17579948D02*
X32599650Y-17611694D01*
X32712540Y-17530554D02*
X32663150Y-17579948D01*
X32744291Y-17467056D02*
X32712540Y-17530554D01*
X32980652Y-17671665D02*
X32980652Y-17872751D01*
X32680791Y-17671665D02*
X32980652Y-17671665D01*
X32680791Y-17872751D02*
X32680791Y-17671665D01*
X32980652Y-17872751D02*
X32680791Y-17872751D01*
X30691123Y-18126753D02*
X30680541Y-18070306D01*
X30722874Y-18172612D02*
X30691123Y-18126753D01*
X30768735Y-18204363D02*
X30722874Y-18172612D01*
X30825179Y-18214948D02*
X30768735Y-18204363D01*
X30881622Y-18204363D02*
X30825179Y-18214948D01*
X30927483Y-18172612D02*
X30881622Y-18204363D01*
X30959234Y-18126753D02*
X30927483Y-18172612D01*
X30969817Y-18070306D02*
X30959234Y-18126753D01*
X30959234Y-18013866D02*
X30969817Y-18070306D01*
X4763178Y-20709085D02*
X4763178Y-20610308D01*
X4663177Y-20709085D02*
X4763178Y-20709085D01*
X4663177Y-20606779D02*
X4663177Y-20709085D01*
X4504427Y-20606779D02*
X4663177Y-20606779D01*
X4504427Y-20712612D02*
X4504427Y-20606779D01*
X3671873Y-20712612D02*
X4504427Y-20712612D01*
X3671873Y-20973668D02*
X3671873Y-20712612D01*
X3830623Y-20973668D02*
X3671873Y-20973668D01*
X3830623Y-20867835D02*
X3830623Y-20973668D01*
X3930623Y-20867835D02*
X3830623Y-20867835D01*
X3930623Y-20966612D02*
X3930623Y-20867835D01*
X4230484Y-20966612D02*
X3930623Y-20966612D01*
X4230484Y-20867835D02*
X4230484Y-20966612D01*
X25616539Y-20867835D02*
X12681928Y-20867835D01*
X25616539Y-20709085D02*
X25616539Y-20867835D01*
X12681928Y-20709085D02*
X25616539Y-20709085D01*
X12681928Y-20867835D02*
X12681928Y-20709085D01*
X25616539Y-21629834D02*
X12681928Y-21629834D01*
X25616539Y-21467557D02*
X25616539Y-21629834D01*
X12681928Y-21467557D02*
X25616539Y-21467557D01*
X12681928Y-21629834D02*
X12681928Y-21467557D01*
X12681928Y-22391835D02*
X12681928Y-22229556D01*
X25616539Y-22391835D02*
X12681928Y-22391835D01*
X25616539Y-22229556D02*
X25616539Y-22391835D01*
X12681928Y-22229556D02*
X25616539Y-22229556D01*
X12283289Y-22391835D02*
X5899123Y-22391835D01*
X12283289Y-22229556D02*
X12283289Y-22391835D01*
X5899123Y-22229556D02*
X12283289Y-22229556D01*
X5899123Y-22134306D02*
X5899123Y-22229556D01*
X5599261Y-22134306D02*
X5899123Y-22134306D01*
X5599261Y-22229556D02*
X5599261Y-22134306D01*
X5499261Y-22229556D02*
X5599261Y-22229556D01*
X5499261Y-22130779D02*
X5499261Y-22229556D01*
X5340513Y-22130779D02*
X5499261Y-22130779D01*
X5340513Y-22490613D02*
X5340513Y-22130779D01*
X5499261Y-22490613D02*
X5340513Y-22490613D01*
X5499261Y-22391835D02*
X5499261Y-22490613D01*
X5599261Y-22391835D02*
X5499261Y-22391835D01*
X5599261Y-22490613D02*
X5599261Y-22391835D01*
X5899123Y-22490613D02*
X5599261Y-22490613D01*
X5899123Y-22391835D02*
X5899123Y-22490613D01*
X33633289Y-20109363D02*
X33533291Y-20109363D01*
X33633289Y-20208142D02*
X33633289Y-20109363D01*
X33795568Y-20208142D02*
X33633289Y-20208142D01*
X33795568Y-19848309D02*
X33795568Y-20208142D01*
X33633289Y-19848309D02*
X33795568Y-19848309D01*
X33633289Y-19947086D02*
X33633289Y-19848309D01*
X33533291Y-19947086D02*
X33633289Y-19947086D01*
X33533291Y-19848309D02*
X33533291Y-19947086D01*
X33233430Y-19848309D02*
X33533291Y-19848309D01*
X33233430Y-19947086D02*
X33233430Y-19848309D01*
X7622984Y-18013866D02*
X7633567Y-18070306D01*
X7591235Y-17968003D02*
X7622984Y-18013866D01*
X7545374Y-17936253D02*
X7591235Y-17968003D01*
X7488929Y-17925672D02*
X7545374Y-17936253D01*
X7467763Y-17929194D02*
X7488929Y-17925672D01*
X7446595Y-17932726D02*
X7467763Y-17929194D01*
X7425429Y-17939780D02*
X7446595Y-17932726D01*
X7407790Y-17950365D02*
X7425429Y-17939780D01*
X7379568Y-17975057D02*
X7407790Y-17950365D01*
X7358400Y-18003281D02*
X7379568Y-17975057D01*
X7344291Y-18038559D02*
X7358400Y-18003281D01*
X7340761Y-18077359D02*
X7344291Y-18038559D01*
X5552178Y-17467056D02*
X5541595Y-17396501D01*
X5583929Y-17530554D02*
X5552178Y-17467056D01*
X5633316Y-17579948D02*
X5583929Y-17530554D01*
X5696818Y-17611694D02*
X5633316Y-17579948D01*
X5767373Y-17622280D02*
X5696818Y-17611694D01*
X6067235Y-17622280D02*
X5767373Y-17622280D01*
X6137790Y-17611694D02*
X6067235Y-17622280D01*
X6201290Y-17579948D02*
X6137790Y-17611694D01*
X6250677Y-17530554D02*
X6201290Y-17579948D01*
X6282428Y-17467056D02*
X6250677Y-17530554D01*
X6293011Y-17396501D02*
X6282428Y-17467056D01*
X6282428Y-17325945D02*
X6293011Y-17396501D01*
X6250677Y-17262448D02*
X6282428Y-17325945D01*
X6201290Y-17213054D02*
X6250677Y-17262448D01*
X6137790Y-17181307D02*
X6201290Y-17213054D01*
X6067235Y-17170722D02*
X6137790Y-17181307D01*
X30927483Y-17968003D02*
X30959234Y-18013866D01*
X30881622Y-17936253D02*
X30927483Y-17968003D01*
X30825179Y-17925672D02*
X30881622Y-17936253D01*
X30768735Y-17936253D02*
X30825179Y-17925672D01*
X30722874Y-17968003D02*
X30768735Y-17936253D01*
X30691123Y-18013866D02*
X30722874Y-17968003D01*
X30680541Y-18070306D02*
X30691123Y-18013866D01*
X33654457Y-13374834D02*
X33354596Y-13374834D01*
X33654457Y-13175518D02*
X33654457Y-13374834D01*
X33354596Y-13175518D02*
X33654457Y-13175518D01*
X33354596Y-13374834D02*
X33354596Y-13175518D01*
X33654457Y-13976326D02*
X33354596Y-13976326D01*
X33654457Y-13777002D02*
X33654457Y-13976326D01*
X33354596Y-13777002D02*
X33654457Y-13777002D01*
X33354596Y-13976326D02*
X33354596Y-13777002D01*
X32765454Y-14249725D02*
X32776037Y-14179169D01*
X32776037Y-14320280D02*
X32765454Y-14249725D01*
X32807788Y-14383778D02*
X32776037Y-14320280D01*
X32857178Y-14433172D02*
X32807788Y-14383778D01*
X32920677Y-14464918D02*
X32857178Y-14433172D01*
X32991233Y-14475503D02*
X32920677Y-14464918D01*
X33291094Y-14475503D02*
X32991233Y-14475503D01*
X33361650Y-14464918D02*
X33291094Y-14475503D01*
X33425149Y-14433172D02*
X33361650Y-14464918D01*
X33474539Y-14383778D02*
X33425149Y-14433172D01*
X33506290Y-14320280D02*
X33474539Y-14383778D01*
X33516873Y-14249725D02*
X33506290Y-14320280D01*
X33506290Y-14179169D02*
X33516873Y-14249725D01*
X33474539Y-14115672D02*
X33506290Y-14179169D01*
X33425149Y-14066278D02*
X33474539Y-14115672D01*
X33361650Y-14034531D02*
X33425149Y-14066278D01*
X33291094Y-14023946D02*
X33361650Y-14034531D01*
X32991233Y-14023946D02*
X33291094Y-14023946D01*
X32920677Y-14034531D02*
X32991233Y-14023946D01*
X32857178Y-14066278D02*
X32920677Y-14034531D01*
X32807788Y-14115672D02*
X32857178Y-14066278D01*
X32776037Y-14179169D02*
X32807788Y-14115672D01*
X8314429Y-6890777D02*
X8257984Y-6880196D01*
X8370873Y-6880196D02*
X8314429Y-6890777D01*
X8416734Y-6848445D02*
X8370873Y-6880196D01*
X8448485Y-6802587D02*
X8416734Y-6848445D01*
X8459068Y-6746139D02*
X8448485Y-6802587D01*
X5185290Y-6545057D02*
X5185290Y-5495961D01*
X5336984Y-6545057D02*
X5185290Y-6545057D01*
X5336984Y-5994725D02*
X5336984Y-6545057D01*
X5347567Y-5934750D02*
X5336984Y-5994725D01*
X5375789Y-5878306D02*
X5347567Y-5934750D01*
X5421652Y-5832448D02*
X5375789Y-5878306D01*
X5478095Y-5804224D02*
X5421652Y-5832448D01*
X5541595Y-5793639D02*
X5478095Y-5804224D01*
X5573346Y-5793639D02*
X5541595Y-5793639D01*
X5587456Y-5765419D02*
X5573346Y-5793639D01*
X5636845Y-5716029D02*
X5587456Y-5765419D01*
X5700345Y-5684283D02*
X5636845Y-5716029D01*
X5770900Y-5673698D02*
X5700345Y-5684283D01*
X6416483Y-5673698D02*
X5770900Y-5673698D01*
X6487039Y-5684283D02*
X6416483Y-5673698D01*
X6550541Y-5716029D02*
X6487039Y-5684283D01*
X6599928Y-5765419D02*
X6550541Y-5716029D01*
X6614040Y-5793639D02*
X6599928Y-5765419D01*
X12283289Y-5793639D02*
X6614040Y-5793639D01*
X12283289Y-5638420D02*
X12283289Y-5793639D01*
X8396789Y-5638420D02*
X12283289Y-5638420D01*
X8396789Y-5537875D02*
X8396789Y-5638420D01*
X8096928Y-5537875D02*
X8396789Y-5537875D01*
X8096928Y-5638420D02*
X8096928Y-5537875D01*
X7996927Y-5638420D02*
X8096928Y-5638420D01*
X7996927Y-5536114D02*
X7996927Y-5638420D01*
X7838177Y-5536114D02*
X7996927Y-5536114D01*
X7838177Y-5634889D02*
X7838177Y-5536114D01*
X6869214Y-5634889D02*
X7838177Y-5634889D01*
X6869214Y-5495961D02*
X6869214Y-5634889D01*
X5185290Y-5495961D02*
X6869214Y-5495961D01*
X7428956Y-5038698D02*
X7428956Y-4707086D01*
X7838177Y-5038698D02*
X7428956Y-5038698D01*
X7838177Y-5137477D02*
X7838177Y-5038698D01*
X7996927Y-5137477D02*
X7838177Y-5137477D01*
X7996927Y-5035167D02*
X7996927Y-5137477D01*
X8096928Y-5035167D02*
X7996927Y-5035167D01*
X8096928Y-5135712D02*
X8096928Y-5035167D01*
X8396789Y-5135712D02*
X8096928Y-5135712D01*
X8396789Y-5035167D02*
X8396789Y-5135712D01*
X12283289Y-5035167D02*
X8396789Y-5035167D01*
X12283289Y-4876417D02*
X12283289Y-5035167D01*
X8134514Y-4876417D02*
X12283289Y-4876417D01*
X8134514Y-4775872D02*
X8134514Y-4876417D01*
X7834653Y-4775872D02*
X8134514Y-4775872D01*
X7834653Y-4876417D02*
X7834653Y-4775872D01*
X7584181Y-4876417D02*
X7834653Y-4876417D01*
X7584181Y-4707086D02*
X7584181Y-4876417D01*
X7428956Y-4707086D02*
X7584181Y-4707086D01*
X8187428Y-4075613D02*
X8116873Y-4065028D01*
X8487289Y-4075613D02*
X8187428Y-4075613D01*
X8557845Y-4065028D02*
X8487289Y-4075613D01*
X8621344Y-4033281D02*
X8557845Y-4065028D01*
X8670734Y-3983887D02*
X8621344Y-4033281D01*
X8702483Y-3920390D02*
X8670734Y-3983887D01*
X8713066Y-3849834D02*
X8702483Y-3920390D01*
X8702483Y-3779279D02*
X8713066Y-3849834D01*
X8670734Y-3715781D02*
X8702483Y-3779279D01*
X8621344Y-3666391D02*
X8670734Y-3715781D01*
X8557845Y-3634641D02*
X8621344Y-3666391D01*
X8487289Y-3624056D02*
X8557845Y-3634641D01*
X8187428Y-3624056D02*
X8487289Y-3624056D01*
X8116873Y-3634641D02*
X8187428Y-3624056D01*
X8053373Y-3666391D02*
X8116873Y-3634641D01*
X8003985Y-3715781D02*
X8053373Y-3666391D01*
X7972235Y-3779279D02*
X8003985Y-3715781D01*
X7961652Y-3849834D02*
X7972235Y-3779279D01*
X7972235Y-3920390D02*
X7961652Y-3849834D01*
X8003985Y-3983887D02*
X7972235Y-3920390D01*
X8053373Y-4033281D02*
X8003985Y-3983887D01*
X8116873Y-4065028D02*
X8053373Y-4033281D01*
X8134514Y-4304923D02*
X7834653Y-4304923D01*
X8134514Y-4103837D02*
X8134514Y-4304923D01*
X7834653Y-4103837D02*
X8134514Y-4103837D01*
X7834653Y-4304923D02*
X7834653Y-4103837D01*
X9393929Y-4467195D02*
X9404512Y-4523639D01*
X9362178Y-4421337D02*
X9393929Y-4467195D01*
X9316317Y-4389582D02*
X9362178Y-4421337D01*
X9259874Y-4379001D02*
X9316317Y-4389582D01*
X9203428Y-4389582D02*
X9259874Y-4379001D01*
X9157567Y-4421337D02*
X9203428Y-4389582D01*
X9125818Y-4467195D02*
X9157567Y-4421337D01*
X9115236Y-4523639D02*
X9125818Y-4467195D01*
X9125818Y-4580087D02*
X9115236Y-4523639D01*
X9157567Y-4625945D02*
X9125818Y-4580087D01*
X9203428Y-4657696D02*
X9157567Y-4625945D01*
X9259874Y-4668277D02*
X9203428Y-4657696D01*
X9316317Y-4657696D02*
X9259874Y-4668277D01*
X9362178Y-4625945D02*
X9316317Y-4657696D01*
X9393929Y-4580087D02*
X9362178Y-4625945D01*
X9404512Y-4523639D02*
X9393929Y-4580087D01*
X7428956Y-4308450D02*
X7428956Y-3299502D01*
X7584181Y-4308450D02*
X7428956Y-4308450D01*
X7584181Y-3775752D02*
X7584181Y-4308450D01*
X7594764Y-3715781D02*
X7584181Y-3775752D01*
X7622986Y-3659333D02*
X7594764Y-3715781D01*
X7668847Y-3613470D02*
X7622986Y-3659333D01*
X7725292Y-3585251D02*
X7668847Y-3613470D01*
X7785265Y-3574670D02*
X7725292Y-3585251D01*
X7817014Y-3574670D02*
X7785265Y-3574670D01*
X7831126Y-3546446D02*
X7817014Y-3574670D01*
X7880513Y-3497056D02*
X7831126Y-3546446D01*
X7944013Y-3465306D02*
X7880513Y-3497056D01*
X8014568Y-3454725D02*
X7944013Y-3465306D01*
X8660151Y-3454725D02*
X8014568Y-3454725D01*
X8730707Y-3465306D02*
X8660151Y-3454725D01*
X8794206Y-3497056D02*
X8730707Y-3465306D01*
X8843596Y-3546446D02*
X8794206Y-3497056D01*
X8857706Y-3574670D02*
X8843596Y-3546446D01*
X12283289Y-3574670D02*
X8857706Y-3574670D01*
X12283289Y-3299502D02*
X12283289Y-3574670D01*
X7428956Y-3299502D02*
X12283289Y-3299502D01*
X12681928Y-3299502D02*
X25616539Y-3299502D01*
X12681928Y-3574670D02*
X12681928Y-3299502D01*
X25616539Y-3574670D02*
X12681928Y-3574670D01*
X25616539Y-3299502D02*
X25616539Y-3574670D01*
X26015177Y-3299502D02*
X30867510Y-3299502D01*
X26015177Y-3574670D02*
X26015177Y-3299502D01*
X29435231Y-3574670D02*
X26015177Y-3574670D01*
X29449343Y-3546446D02*
X29435231Y-3574670D01*
X29498733Y-3497056D02*
X29449343Y-3546446D01*
X29562232Y-3465306D02*
X29498733Y-3497056D01*
X29632788Y-3454725D02*
X29562232Y-3465306D01*
X30278371Y-3454725D02*
X29632788Y-3454725D01*
X30348926Y-3465306D02*
X30278371Y-3454725D01*
X30412426Y-3497056D02*
X30348926Y-3465306D01*
X30461816Y-3546446D02*
X30412426Y-3497056D01*
X30475928Y-3574670D02*
X30461816Y-3546446D01*
X30507679Y-3574670D02*
X30475928Y-3574670D01*
X30567651Y-3585251D02*
X30507679Y-3574670D01*
X30624095Y-3613470D02*
X30567651Y-3585251D01*
X30669956Y-3659333D02*
X30624095Y-3613470D01*
X30698177Y-3715781D02*
X30669956Y-3659333D01*
X30701709Y-3775752D02*
X30698177Y-3715781D01*
X30701709Y-4308450D02*
X30701709Y-3775752D01*
X30867510Y-4308450D02*
X30701709Y-4308450D01*
X30867510Y-3299502D02*
X30867510Y-4308450D01*
X31427547Y-5634889D02*
X31427547Y-5494613D01*
X30458289Y-5634889D02*
X31427547Y-5634889D01*
X30458289Y-5536114D02*
X30458289Y-5634889D01*
X30299539Y-5536114D02*
X30458289Y-5536114D01*
X30299539Y-5638420D02*
X30299539Y-5536114D01*
X30199541Y-5638420D02*
X30299539Y-5638420D01*
X30199541Y-5537875D02*
X30199541Y-5638420D01*
X29899680Y-5537875D02*
X30199541Y-5537875D01*
X29899680Y-5638420D02*
X29899680Y-5537875D01*
X26015177Y-5638420D02*
X29899680Y-5638420D01*
X26015177Y-5793639D02*
X26015177Y-5638420D01*
X31675372Y-5793639D02*
X26015177Y-5793639D01*
X31689484Y-5765419D02*
X31675372Y-5793639D01*
X31738874Y-5716029D02*
X31689484Y-5765419D01*
X31802373Y-5684283D02*
X31738874Y-5716029D01*
X31872929Y-5673698D02*
X31802373Y-5684283D01*
X32518512Y-5673698D02*
X31872929Y-5673698D01*
X32589067Y-5684283D02*
X32518512Y-5673698D01*
X32652567Y-5716029D02*
X32589067Y-5684283D01*
X32701957Y-5765419D02*
X32652567Y-5716029D01*
X32716069Y-5793639D02*
X32701957Y-5765419D01*
X32747820Y-5793639D02*
X32716069Y-5793639D01*
X32811319Y-5804224D02*
X32747820Y-5793639D01*
X32867763Y-5832448D02*
X32811319Y-5804224D01*
X32913623Y-5878306D02*
X32867763Y-5832448D01*
X32941845Y-5934750D02*
X32913623Y-5878306D01*
X32959482Y-5998252D02*
X32941845Y-5934750D01*
X32959482Y-6545057D02*
X32959482Y-5998252D01*
X33111178Y-6545057D02*
X32959482Y-6545057D01*
X33111178Y-5673698D02*
X33111178Y-6545057D01*
X33111471Y-5673698D02*
X33111178Y-5673698D01*
X33111471Y-5494613D02*
X33111471Y-5673698D01*
X31427547Y-5494613D02*
X33111471Y-5494613D01*
X7351344Y-18133807D02*
X7340761Y-18077359D01*
X7383095Y-18179666D02*
X7351344Y-18133807D01*
X7428956Y-18211417D02*
X7383095Y-18179666D01*
X5315816Y-17671665D02*
X5615677Y-17671665D01*
X5315816Y-17872751D02*
X5315816Y-17671665D01*
X5615677Y-17872751D02*
X5315816Y-17872751D01*
X5615677Y-17671665D02*
X5615677Y-17872751D01*
X11283290Y-2724472D02*
X3149762Y-2724472D01*
X11283290Y-2721514D02*
X11283290Y-2724472D01*
X11681928Y-2721514D02*
X11283290Y-2721514D01*
X11681928Y-2724472D02*
X11681928Y-2721514D01*
X26015177Y-19947086D02*
X33233430Y-19947086D01*
X26015177Y-20109363D02*
X26015177Y-19947086D01*
X33233430Y-20109363D02*
X26015177Y-20109363D01*
X33233430Y-20208142D02*
X33233430Y-20109363D01*
X33533291Y-20208142D02*
X33233430Y-20208142D01*
X33533291Y-20109363D02*
X33533291Y-20208142D01*
X34053095Y-11057082D02*
X33897874Y-11057082D01*
X34053095Y-10002280D02*
X34053095Y-11057082D01*
X33111178Y-10002280D02*
X34053095Y-10002280D01*
X33111178Y-9247334D02*
X33111178Y-10002280D01*
X32959482Y-9247334D02*
X33111178Y-9247334D01*
X32959482Y-9801198D02*
X32959482Y-9247334D01*
X32948899Y-9864695D02*
X32959482Y-9801198D01*
X32920677Y-9921139D02*
X32948899Y-9864695D01*
X32874817Y-9967002D02*
X32920677Y-9921139D01*
X32818373Y-9995221D02*
X32874817Y-9967002D01*
X32754873Y-10005802D02*
X32818373Y-9995221D01*
X32723123Y-10005802D02*
X32754873Y-10005802D01*
X32709011Y-10034026D02*
X32723123Y-10005802D01*
X32659621Y-10083416D02*
X32709011Y-10034026D01*
X32596121Y-10115167D02*
X32659621Y-10083416D01*
X32525566Y-10125747D02*
X32596121Y-10115167D01*
X31879983Y-10125747D02*
X32525566Y-10125747D01*
X31809427Y-10115167D02*
X31879983Y-10125747D01*
X31745928Y-10083416D02*
X31809427Y-10115167D01*
X31696538Y-10034026D02*
X31745928Y-10083416D01*
X31682426Y-10005802D02*
X31696538Y-10034026D01*
X26015177Y-10005802D02*
X31682426Y-10005802D01*
X26015177Y-10302141D02*
X26015177Y-10005802D01*
X32617287Y-10302141D02*
X26015177Y-10302141D01*
X32631399Y-10273917D02*
X32617287Y-10302141D01*
X32680789Y-10224531D02*
X32631399Y-10273917D01*
X32744288Y-10192780D02*
X32680789Y-10224531D01*
X32814844Y-10182200D02*
X32744288Y-10192780D01*
X33460427Y-10182200D02*
X32814844Y-10182200D01*
X33530982Y-10192780D02*
X33460427Y-10182200D01*
X33594482Y-10224531D02*
X33530982Y-10192780D01*
X32765454Y-11931972D02*
X32776037Y-11861417D01*
X32776037Y-12002528D02*
X32765454Y-11931972D01*
X33897874Y-11057082D02*
X33897874Y-10506753D01*
X33425149Y-12115415D02*
X33361650Y-12147170D01*
X33474539Y-12066029D02*
X33425149Y-12115415D01*
X33506290Y-12002528D02*
X33474539Y-12066029D01*
X33516873Y-11931972D02*
X33506290Y-12002528D01*
X33506290Y-11861417D02*
X33516873Y-11931972D01*
X33474539Y-11797919D02*
X33506290Y-11861417D01*
X33425149Y-11748529D02*
X33474539Y-11797919D01*
X33361650Y-11716783D02*
X33425149Y-11748529D01*
X33291094Y-11706198D02*
X33361650Y-11716783D01*
X32991233Y-11706198D02*
X33291094Y-11706198D01*
X32920677Y-11716783D02*
X32991233Y-11706198D01*
X32857178Y-11748529D02*
X32920677Y-11716783D01*
X32807788Y-11797919D02*
X32857178Y-11748529D01*
X32776037Y-11861417D02*
X32807788Y-11797919D01*
X33516875Y-10580832D02*
X33506292Y-10651387D01*
X33506292Y-10510276D02*
X33516875Y-10580832D01*
X33474541Y-10446779D02*
X33506292Y-10510276D01*
X33425151Y-10397389D02*
X33474541Y-10446779D01*
X33361652Y-10365642D02*
X33425151Y-10397389D01*
X33291096Y-10355057D02*
X33361652Y-10365642D01*
X32991235Y-10355057D02*
X33291096Y-10355057D01*
X32920679Y-10365642D02*
X32991235Y-10355057D01*
X32857180Y-10397389D02*
X32920679Y-10365642D01*
X32807790Y-10446779D02*
X32857180Y-10397389D01*
X32776039Y-10510276D02*
X32807790Y-10446779D01*
X32765456Y-10580832D02*
X32776039Y-10510276D01*
X32776039Y-10651387D02*
X32765456Y-10580832D01*
X32807788Y-12066029D02*
X32776037Y-12002528D01*
X32857178Y-12115415D02*
X32807788Y-12066029D01*
X32920677Y-12147170D02*
X32857178Y-12115415D01*
X33643872Y-10273917D02*
X33594482Y-10224531D01*
X33657984Y-10302141D02*
X33643872Y-10273917D01*
X33689735Y-10302141D02*
X33657984Y-10302141D01*
X33749707Y-10312726D02*
X33689735Y-10302141D01*
X33806151Y-10340945D02*
X33749707Y-10312726D01*
X33852012Y-10386804D02*
X33806151Y-10340945D01*
X33880233Y-10443252D02*
X33852012Y-10386804D01*
X33897874Y-10506753D02*
X33880233Y-10443252D01*
X32807790Y-10714889D02*
X32776039Y-10651387D01*
X32857180Y-10764279D02*
X32807790Y-10714889D01*
X32920679Y-10796030D02*
X32857180Y-10764279D01*
X32991235Y-10806610D02*
X32920679Y-10796030D01*
X33291096Y-10806610D02*
X32991235Y-10806610D01*
X33361652Y-10796030D02*
X33291096Y-10806610D01*
X33425151Y-10764279D02*
X33361652Y-10796030D01*
X33474541Y-10714889D02*
X33425151Y-10764279D01*
X33506292Y-10651387D02*
X33474541Y-10714889D01*
X33354596Y-11457488D02*
X33654457Y-11457488D01*
X33354596Y-11658569D02*
X33354596Y-11457488D01*
X33654457Y-11658569D02*
X33354596Y-11658569D01*
X33654457Y-11457488D02*
X33654457Y-11658569D01*
X33654457Y-10857766D02*
X33654457Y-11057082D01*
X33354596Y-10857766D02*
X33654457Y-10857766D01*
X33354596Y-11057082D02*
X33354596Y-10857766D01*
X33654457Y-11057082D02*
X33354596Y-11057082D01*
X30684067Y-11314611D02*
X30673485Y-11258167D01*
X30715818Y-11360474D02*
X30684067Y-11314611D01*
X30761679Y-11392220D02*
X30715818Y-11360474D01*
X30818123Y-11402806D02*
X30761679Y-11392220D01*
X30874566Y-11392220D02*
X30818123Y-11402806D01*
X30920427Y-11360474D02*
X30874566Y-11392220D01*
X30952178Y-11314611D02*
X30920427Y-11360474D01*
X30962761Y-11258167D02*
X30952178Y-11314611D01*
X30952178Y-11201724D02*
X30962761Y-11258167D01*
X30920427Y-11155861D02*
X30952178Y-11201724D01*
X30874566Y-11124115D02*
X30920427Y-11155861D01*
X30818123Y-11113530D02*
X30874566Y-11124115D01*
X30761679Y-11124115D02*
X30818123Y-11113530D01*
X30715818Y-11155861D02*
X30761679Y-11124115D01*
X30684067Y-11201724D02*
X30715818Y-11155861D01*
X30673485Y-11258167D02*
X30684067Y-11201724D01*
X20968567Y-11201724D02*
X20979150Y-11258167D01*
X20936816Y-11155861D02*
X20968567Y-11201724D01*
X20890955Y-11124115D02*
X20936816Y-11155861D01*
X20834512Y-11113530D02*
X20890955Y-11124115D01*
X20778068Y-11124115D02*
X20834512Y-11113530D01*
X20732207Y-11155861D02*
X20778068Y-11124115D01*
X20700456Y-11201724D02*
X20732207Y-11155861D01*
X20689874Y-11258167D02*
X20700456Y-11201724D01*
X20700456Y-11314611D02*
X20689874Y-11258167D01*
X20732207Y-11360474D02*
X20700456Y-11314611D01*
X20778068Y-11392220D02*
X20732207Y-11360474D01*
X20834512Y-11402806D02*
X20778068Y-11392220D01*
X20890955Y-11392220D02*
X20834512Y-11402806D01*
X20936816Y-11360474D02*
X20890955Y-11392220D01*
X20968567Y-11314611D02*
X20936816Y-11360474D01*
X20979150Y-11258167D02*
X20968567Y-11314611D01*
X12681928Y-10005802D02*
X25616539Y-10005802D01*
X12681928Y-10302141D02*
X12681928Y-10005802D01*
X25616539Y-10302141D02*
X12681928Y-10302141D01*
X25616539Y-10005802D02*
X25616539Y-10302141D01*
X21790539Y-9000390D02*
X21801121Y-9056833D01*
X21758788Y-8954531D02*
X21790539Y-9000390D01*
X21712927Y-8922776D02*
X21758788Y-8954531D01*
X21656483Y-8912195D02*
X21712927Y-8922776D01*
X21600040Y-8922776D02*
X21656483Y-8912195D01*
X21554179Y-8954531D02*
X21600040Y-8922776D01*
X21522428Y-9000390D02*
X21554179Y-8954531D01*
X21511845Y-9056833D02*
X21522428Y-9000390D01*
X21522428Y-9113281D02*
X21511845Y-9056833D01*
X21554179Y-9159140D02*
X21522428Y-9113281D01*
X21600040Y-9190891D02*
X21554179Y-9159140D01*
X21656483Y-9201471D02*
X21600040Y-9190891D01*
X21712927Y-9190891D02*
X21656483Y-9201471D01*
X21758788Y-9159140D02*
X21712927Y-9190891D01*
X21790539Y-9113281D02*
X21758788Y-9159140D01*
X21801121Y-9056833D02*
X21790539Y-9113281D01*
X30119621Y-9000390D02*
X30130204Y-9056833D01*
X30087870Y-8954531D02*
X30119621Y-9000390D01*
X30042009Y-8922780D02*
X30087870Y-8954531D01*
X29985566Y-8912200D02*
X30042009Y-8922780D01*
X29929122Y-8922780D02*
X29985566Y-8912200D01*
X29883261Y-8954531D02*
X29929122Y-8922780D01*
X29851511Y-9000390D02*
X29883261Y-8954531D01*
X29840928Y-9056833D02*
X29851511Y-9000390D01*
X29851511Y-9113281D02*
X29840928Y-9056833D01*
X29883261Y-9159140D02*
X29851511Y-9113281D01*
X29929122Y-9190891D02*
X29883261Y-9159140D01*
X29989095Y-9201471D02*
X29929122Y-9190891D01*
X30045538Y-9190891D02*
X29989095Y-9201471D01*
X30091399Y-9159140D02*
X30045538Y-9190891D01*
X30123150Y-9113281D02*
X30091399Y-9159140D01*
X30130204Y-9056833D02*
X30123150Y-9113281D01*
X32716069Y-8848698D02*
X32416208Y-8848698D01*
X32716069Y-8649378D02*
X32716069Y-8848698D01*
X32416208Y-8649378D02*
X32716069Y-8649378D01*
X32416208Y-8848698D02*
X32416208Y-8649378D01*
X32716069Y-9450186D02*
X32416208Y-9450186D01*
X32716069Y-9249096D02*
X32716069Y-9450186D01*
X32416208Y-9249096D02*
X32716069Y-9249096D01*
X32416208Y-9450186D02*
X32416208Y-9249096D01*
X31837649Y-8450057D02*
X31827066Y-8379502D01*
X31869400Y-8513559D02*
X31837649Y-8450057D01*
X31918790Y-8562944D02*
X31869400Y-8513559D01*
X31982289Y-8594695D02*
X31918790Y-8562944D01*
X32052845Y-8605276D02*
X31982289Y-8594695D01*
X32352706Y-8605276D02*
X32052845Y-8605276D01*
X32423261Y-8594695D02*
X32352706Y-8605276D01*
X32486761Y-8562944D02*
X32423261Y-8594695D01*
X32536151Y-8513559D02*
X32486761Y-8562944D01*
X32567902Y-8450057D02*
X32536151Y-8513559D01*
X32578485Y-8379502D02*
X32567902Y-8450057D01*
X32567902Y-8308946D02*
X32578485Y-8379502D01*
X32536151Y-8245444D02*
X32567902Y-8308946D01*
X32486761Y-8196059D02*
X32536151Y-8245444D01*
X32423261Y-8164308D02*
X32486761Y-8196059D01*
X32352706Y-8153727D02*
X32423261Y-8164308D01*
X32052845Y-8153727D02*
X32352706Y-8153727D01*
X31982289Y-8164308D02*
X32052845Y-8153727D01*
X31918790Y-8196059D02*
X31982289Y-8164308D01*
X31869400Y-8245444D02*
X31918790Y-8196059D01*
X31837649Y-8308946D02*
X31869400Y-8245444D01*
X31827066Y-8379502D02*
X31837649Y-8308946D01*
X31823537Y-9727111D02*
X31834120Y-9656556D01*
X31834120Y-9797667D02*
X31823537Y-9727111D01*
X31865871Y-9861168D02*
X31834120Y-9797667D01*
X31915261Y-9910554D02*
X31865871Y-9861168D01*
X31978760Y-9942309D02*
X31915261Y-9910554D01*
X32049316Y-9952890D02*
X31978760Y-9942309D01*
X32349177Y-9952890D02*
X32049316Y-9952890D01*
X32419732Y-9942309D02*
X32349177Y-9952890D01*
X32483232Y-9910554D02*
X32419732Y-9942309D01*
X32532622Y-9861168D02*
X32483232Y-9910554D01*
X32564373Y-9797667D02*
X32532622Y-9861168D01*
X32574956Y-9727111D02*
X32564373Y-9797667D01*
X32564373Y-9656556D02*
X32574956Y-9727111D01*
X32532622Y-9593058D02*
X32564373Y-9656556D01*
X32483232Y-9543668D02*
X32532622Y-9593058D01*
X32419732Y-9511922D02*
X32483232Y-9543668D01*
X32349177Y-9501337D02*
X32419732Y-9511922D01*
X32049316Y-9501337D02*
X32349177Y-9501337D01*
X31978760Y-9511922D02*
X32049316Y-9501337D01*
X31915261Y-9543668D02*
X31978760Y-9511922D01*
X31865871Y-9593058D02*
X31915261Y-9543668D01*
X31834120Y-9656556D02*
X31865871Y-9593058D01*
X31823537Y-7419948D02*
X31834120Y-7349392D01*
X31834120Y-7490503D02*
X31823537Y-7419948D01*
X31865871Y-7554001D02*
X31834120Y-7490503D01*
X33058261Y-18687667D02*
X32684316Y-18687667D01*
X33058261Y-18581833D02*
X33058261Y-18687667D01*
X33291094Y-18581833D02*
X33058261Y-18581833D01*
X5164122Y-18426615D02*
X5315816Y-18426615D01*
X5164122Y-18278450D02*
X5164122Y-18426615D01*
X5008899Y-18278450D02*
X5164122Y-18278450D01*
X5008899Y-18588892D02*
X5008899Y-18278450D01*
X5241734Y-18588892D02*
X5008899Y-18588892D01*
X5241734Y-18687667D02*
X5241734Y-18588892D01*
X5612150Y-18687667D02*
X5241734Y-18687667D01*
X5612150Y-18585365D02*
X5612150Y-18687667D01*
X12283289Y-18585365D02*
X5612150Y-18585365D01*
X12283289Y-18426615D02*
X12283289Y-18585365D01*
X5615677Y-18426615D02*
X12283289Y-18426615D01*
X5615677Y-18326069D02*
X5615677Y-18426615D01*
X5315816Y-18326069D02*
X5615677Y-18326069D01*
X5315816Y-18426615D02*
X5315816Y-18326069D01*
X32991233Y-12157751D02*
X32920677Y-12147170D01*
X33291094Y-12157751D02*
X32991233Y-12157751D01*
X33361650Y-12147170D02*
X33291094Y-12157751D01*
X5767373Y-17170722D02*
X6067235Y-17170722D01*
X5696818Y-17181307D02*
X5767373Y-17170722D01*
X5633316Y-17213054D02*
X5696818Y-17181307D01*
X5583929Y-17262448D02*
X5633316Y-17213054D01*
X5552178Y-17325945D02*
X5583929Y-17262448D01*
X30952178Y-13519476D02*
X30962761Y-13575920D01*
X30920427Y-13473618D02*
X30952178Y-13519476D01*
X30874566Y-13441863D02*
X30920427Y-13473618D01*
X30818123Y-13431282D02*
X30874566Y-13441863D01*
X30761679Y-13441863D02*
X30818123Y-13431282D01*
X7566540Y-18197309D02*
X7548901Y-18207890D01*
X7594762Y-18172612D02*
X7566540Y-18197309D01*
X7615928Y-18144392D02*
X7594762Y-18172612D01*
X7630040Y-18109115D02*
X7615928Y-18144392D01*
X7633567Y-18070306D02*
X7630040Y-18109115D01*
X7485400Y-18222002D02*
X7428956Y-18211417D01*
X7506567Y-18218471D02*
X7485400Y-18222002D01*
X7527733Y-18214948D02*
X7506567Y-18218471D01*
X7548901Y-18207890D02*
X7527733Y-18214948D01*
X33291094Y-18297850D02*
X33291094Y-18581833D01*
X33121761Y-18297850D02*
X33291094Y-18297850D01*
X33121761Y-18426615D02*
X33121761Y-18297850D01*
X32980652Y-18426615D02*
X33121761Y-18426615D01*
X32980652Y-18326069D02*
X32980652Y-18426615D01*
X32680791Y-18326069D02*
X32980652Y-18326069D01*
X32680791Y-18426615D02*
X32680791Y-18326069D01*
X4663177Y-20208140D02*
X4504427Y-20208140D01*
X4663177Y-20109363D02*
X4663177Y-20208140D01*
X4763178Y-20109363D02*
X4663177Y-20109363D01*
X4763178Y-20208140D02*
X4763178Y-20109363D01*
X12283289Y-20867835D02*
X4230484Y-20867835D01*
X12283289Y-20709085D02*
X12283289Y-20867835D01*
X5063039Y-20709085D02*
X12283289Y-20709085D01*
X5063039Y-20610308D02*
X5063039Y-20709085D01*
X4763178Y-20610308D02*
X5063039Y-20610308D01*
X30715818Y-13473618D02*
X30761679Y-13441863D01*
X30684067Y-13519476D02*
X30715818Y-13473618D01*
X30673485Y-13575920D02*
X30684067Y-13519476D01*
X30684067Y-13632364D02*
X30673485Y-13575920D01*
X30715818Y-13678222D02*
X30684067Y-13632364D01*
X30761679Y-13709977D02*
X30715818Y-13678222D01*
X30818123Y-13720558D02*
X30761679Y-13709977D01*
X30874566Y-13709977D02*
X30818123Y-13720558D01*
X30920427Y-13678222D02*
X30874566Y-13709977D01*
X30952178Y-13632364D02*
X30920427Y-13678222D01*
X30962761Y-13575920D02*
X30952178Y-13632364D01*
X5541595Y-17396501D02*
X5552178Y-17325945D01*
X34695149Y-14528420D02*
X34695149Y-15682006D01*
X34053095Y-14528420D02*
X34695149Y-14528420D01*
X34053095Y-13777002D02*
X34053095Y-14528420D01*
X33897874Y-13777002D02*
X34053095Y-13777002D01*
X33897874Y-14327334D02*
X33897874Y-13777002D01*
X33887292Y-14387309D02*
X33897874Y-14327334D01*
X33859070Y-14443748D02*
X33887292Y-14387309D01*
X33813209Y-14489611D02*
X33859070Y-14443748D01*
X33756765Y-14517835D02*
X33813209Y-14489611D01*
X33696793Y-14528416D02*
X33756765Y-14517835D01*
X33665042Y-14528416D02*
X33696793Y-14528416D01*
X33650930Y-14556635D02*
X33665042Y-14528416D01*
X33601540Y-14606029D02*
X33650930Y-14556635D01*
X33538041Y-14637776D02*
X33601540Y-14606029D01*
X33467485Y-14648361D02*
X33538041Y-14637776D01*
X32821902Y-14648361D02*
X33467485Y-14648361D01*
X32751347Y-14637776D02*
X32821902Y-14648361D01*
X32687847Y-14606029D02*
X32751347Y-14637776D01*
X32638457Y-14556635D02*
X32687847Y-14606029D01*
X32624345Y-14528416D02*
X32638457Y-14556635D01*
X26015177Y-14528416D02*
X32624345Y-14528416D01*
X26015177Y-14927061D02*
X26015177Y-14528416D01*
X33259341Y-14927061D02*
X26015177Y-14927061D01*
X33273453Y-14898837D02*
X33259341Y-14927061D01*
X33322843Y-14849447D02*
X33273453Y-14898837D01*
X33386342Y-14817696D02*
X33322843Y-14849447D01*
X33456898Y-14807111D02*
X33386342Y-14817696D01*
X34102481Y-14807111D02*
X33456898Y-14807111D01*
X34173036Y-14817696D02*
X34102481Y-14807111D01*
X34236536Y-14849447D02*
X34173036Y-14817696D01*
X34285926Y-14898837D02*
X34236536Y-14849447D01*
X34300038Y-14927061D02*
X34285926Y-14898837D01*
X34331789Y-14927061D02*
X34300038Y-14927061D01*
X34395288Y-14937641D02*
X34331789Y-14927061D01*
X34451732Y-14965861D02*
X34395288Y-14937641D01*
X34497594Y-15011724D02*
X34451732Y-14965861D01*
X34525818Y-15068167D02*
X34497594Y-15011724D01*
X34539935Y-15128142D02*
X34525818Y-15068167D01*
X34539935Y-15682006D02*
X34539935Y-15128142D01*
X34695149Y-15682006D02*
X34539935Y-15682006D01*
X33407508Y-16556892D02*
X33418091Y-16486337D01*
X33418091Y-16627448D02*
X33407508Y-16556892D01*
X33449842Y-16690945D02*
X33418091Y-16627448D01*
X33499232Y-16740335D02*
X33449842Y-16690945D01*
X33562731Y-16772086D02*
X33499232Y-16740335D01*
X33633287Y-16782667D02*
X33562731Y-16772086D01*
X33933148Y-16782667D02*
X33633287Y-16782667D01*
X34003703Y-16772086D02*
X33933148Y-16782667D01*
X34067203Y-16740335D02*
X34003703Y-16772086D01*
X34116593Y-16690945D02*
X34067203Y-16740335D01*
X34148344Y-16627448D02*
X34116593Y-16690945D01*
X34158927Y-16556892D02*
X34148344Y-16627448D01*
X34148344Y-16486337D02*
X34158927Y-16556892D01*
X34116593Y-16422835D02*
X34148344Y-16486337D01*
X34067203Y-16373445D02*
X34116593Y-16422835D01*
X34003703Y-16341694D02*
X34067203Y-16373445D01*
X33933148Y-16331109D02*
X34003703Y-16341694D01*
X33633287Y-16331109D02*
X33933148Y-16331109D01*
X33562731Y-16341694D02*
X33633287Y-16331109D01*
X33499232Y-16373445D02*
X33562731Y-16341694D01*
X33449842Y-16422835D02*
X33499232Y-16373445D01*
X33418091Y-16486337D02*
X33449842Y-16422835D01*
X34162458Y-15205752D02*
X34151875Y-15276307D01*
X34151875Y-15135196D02*
X34162458Y-15205752D01*
X34120124Y-15071694D02*
X34151875Y-15135196D01*
X34070734Y-15022309D02*
X34120124Y-15071694D01*
X34007235Y-14990554D02*
X34070734Y-15022309D01*
X33936679Y-14979973D02*
X34007235Y-14990554D01*
X33636818Y-14979973D02*
X33936679Y-14979973D01*
X33566262Y-14990554D02*
X33636818Y-14979973D01*
X33502763Y-15022309D02*
X33566262Y-14990554D01*
X33453373Y-15071694D02*
X33502763Y-15022309D01*
X33421622Y-15135196D02*
X33453373Y-15071694D01*
X33411039Y-15205752D02*
X33421622Y-15135196D01*
X33421622Y-15276307D02*
X33411039Y-15205752D01*
X33453373Y-15339809D02*
X33421622Y-15276307D01*
X33502763Y-15389194D02*
X33453373Y-15339809D01*
X33566262Y-15420950D02*
X33502763Y-15389194D01*
X33636818Y-15431530D02*
X33566262Y-15420950D01*
X33936679Y-15431530D02*
X33636818Y-15431530D01*
X34007235Y-15420950D02*
X33936679Y-15431530D01*
X34070734Y-15389194D02*
X34007235Y-15420950D01*
X34120124Y-15339809D02*
X34070734Y-15389194D01*
X34151875Y-15276307D02*
X34120124Y-15339809D01*
X33989596Y-16084174D02*
X34289457Y-16084174D01*
X33989596Y-16281724D02*
X33989596Y-16084174D01*
X34289457Y-16281724D02*
X33989596Y-16281724D01*
X34289457Y-16084174D02*
X34289457Y-16281724D01*
X34289457Y-15480920D02*
X34289457Y-15682006D01*
X33989596Y-15480920D02*
X34289457Y-15480920D01*
X33989596Y-15682006D02*
X33989596Y-15480920D01*
X34289457Y-15682006D02*
X33989596Y-15682006D01*
X31520151Y-15936000D02*
X31509568Y-15879561D01*
X31551902Y-15981863D02*
X31520151Y-15936000D01*
X31597763Y-16013614D02*
X31551902Y-15981863D01*
X31654206Y-16024194D02*
X31597763Y-16013614D01*
X31710650Y-16013614D02*
X31654206Y-16024194D01*
X31756511Y-15981863D02*
X31710650Y-16013614D01*
X31788261Y-15936000D02*
X31756511Y-15981863D01*
X31798844Y-15879561D02*
X31788261Y-15936000D01*
X31788261Y-15823113D02*
X31798844Y-15879561D01*
X31756511Y-15777254D02*
X31788261Y-15823113D01*
X31710650Y-15745503D02*
X31756511Y-15777254D01*
X31654206Y-15734918D02*
X31710650Y-15745503D01*
X31597763Y-15745503D02*
X31654206Y-15734918D01*
X31551902Y-15777254D02*
X31597763Y-15745503D01*
X31520151Y-15823113D02*
X31551902Y-15777254D01*
X31509568Y-15879561D02*
X31520151Y-15823113D01*
X34695149Y-16084174D02*
X34695149Y-17121337D01*
X34539935Y-16084174D02*
X34695149Y-16084174D01*
X34539935Y-16627448D02*
X34539935Y-16084174D01*
X34529350Y-16687418D02*
X34539935Y-16627448D01*
X34501126Y-16743862D02*
X34529350Y-16687418D01*
X34455263Y-16789721D02*
X34501126Y-16743862D01*
X34398819Y-16817944D02*
X34455263Y-16789721D01*
X34335320Y-16828530D02*
X34398819Y-16817944D01*
X34303569Y-16828530D02*
X34335320Y-16828530D01*
X34289457Y-16856749D02*
X34303569Y-16828530D01*
X34240067Y-16906139D02*
X34289457Y-16856749D01*
X34176568Y-16937890D02*
X34240067Y-16906139D01*
X34106012Y-16948471D02*
X34176568Y-16937890D01*
X33460429Y-16948471D02*
X34106012Y-16948471D01*
X33389873Y-16937890D02*
X33460429Y-16948471D01*
X33326374Y-16906139D02*
X33389873Y-16937890D01*
X33276984Y-16856749D02*
X33326374Y-16906139D01*
X33262872Y-16828530D02*
X33276984Y-16856749D01*
X26015177Y-16828530D02*
X33262872Y-16828530D01*
X26015177Y-17121337D02*
X26015177Y-16828530D01*
X31858815Y-17121337D02*
X26015177Y-17121337D01*
X31872927Y-17093113D02*
X31858815Y-17121337D01*
X31922317Y-17043727D02*
X31872927Y-17093113D01*
X31985816Y-17011972D02*
X31922317Y-17043727D01*
X32056372Y-17001392D02*
X31985816Y-17011972D01*
X32701955Y-17001392D02*
X32056372Y-17001392D01*
X32772510Y-17011972D02*
X32701955Y-17001392D01*
X32836010Y-17043727D02*
X32772510Y-17011972D01*
X32885400Y-17093113D02*
X32836010Y-17043727D01*
X32899511Y-17121337D02*
X32885400Y-17093113D01*
X32931262Y-17121337D02*
X32899511Y-17121337D01*
X32991235Y-17131922D02*
X32931262Y-17121337D01*
X33047679Y-17160142D02*
X32991235Y-17131922D01*
X33093539Y-17206000D02*
X33047679Y-17160142D01*
X33121761Y-17262448D02*
X33093539Y-17206000D01*
X33121761Y-17895682D02*
X33121761Y-17262448D01*
X33291094Y-17895682D02*
X33121761Y-17895682D01*
X33291094Y-17121337D02*
X33291094Y-17895682D01*
X34695149Y-17121337D02*
X33291094Y-17121337D01*
X34628125Y-20705558D02*
X34628125Y-20966615D01*
X33795568Y-20705558D02*
X34628125Y-20705558D01*
X33795568Y-20610310D02*
X33795568Y-20705558D01*
X33633289Y-20610310D02*
X33795568Y-20610310D01*
X33633289Y-20709085D02*
X33633289Y-20610310D01*
X33533291Y-20709085D02*
X33633289Y-20709085D01*
X33533291Y-20610310D02*
X33533291Y-20709085D01*
X33233430Y-20610310D02*
X33533291Y-20610310D01*
X33233430Y-20709085D02*
X33233430Y-20610310D01*
X26015177Y-20709085D02*
X33233430Y-20709085D01*
X26015177Y-20867835D02*
X26015177Y-20709085D01*
X34065984Y-20867835D02*
X26015177Y-20867835D01*
X34065984Y-20966612D02*
X34065984Y-20867835D01*
X34365845Y-20966612D02*
X34065984Y-20966612D01*
X34365845Y-20867835D02*
X34365845Y-20966612D01*
X34465844Y-20867835D02*
X34365845Y-20867835D01*
X34465844Y-20966615D02*
X34465844Y-20867835D01*
X34628125Y-20966615D02*
X34465844Y-20966615D01*
X34628125Y-21365253D02*
X34628125Y-21626309D01*
X34465844Y-21365253D02*
X34628125Y-21365253D01*
X34465844Y-21467557D02*
X34465844Y-21365253D01*
X34365845Y-21467557D02*
X34465844Y-21467557D01*
X34365845Y-21368780D02*
X34365845Y-21467557D01*
X34065984Y-21368780D02*
X34365845Y-21368780D01*
X34065984Y-21467557D02*
X34065984Y-21368780D01*
X26015177Y-21467557D02*
X34065984Y-21467557D01*
X26015177Y-21629834D02*
X26015177Y-21467557D01*
X32397346Y-21629834D02*
X26015177Y-21629834D01*
X32397346Y-21732141D02*
X32397346Y-21629834D01*
X32697207Y-21732141D02*
X32397346Y-21732141D01*
X32697207Y-21629834D02*
X32697207Y-21732141D01*
X32800734Y-21629834D02*
X32697207Y-21629834D01*
X32800734Y-21732141D02*
X32800734Y-21629834D01*
X32963013Y-21732141D02*
X32800734Y-21732141D01*
X32963013Y-21626309D02*
X32963013Y-21732141D01*
X34628125Y-21626309D02*
X32963013Y-21626309D01*
X32963013Y-22134308D02*
X32963013Y-22494142D01*
X32800734Y-22134308D02*
X32963013Y-22134308D01*
X32800734Y-22229556D02*
X32800734Y-22134308D01*
X32697207Y-22229556D02*
X32800734Y-22229556D01*
X32697207Y-22134308D02*
X32697207Y-22229556D01*
X32397346Y-22134308D02*
X32697207Y-22134308D01*
X32397346Y-22229556D02*
X32397346Y-22134308D01*
X26015177Y-22229556D02*
X32397346Y-22229556D01*
X26015177Y-22391835D02*
X26015177Y-22229556D01*
X32397346Y-22391835D02*
X26015177Y-22391835D01*
X32397346Y-22494142D02*
X32397346Y-22391835D01*
X32697207Y-22494142D02*
X32397346Y-22494142D01*
X32697207Y-22391835D02*
X32697207Y-22494142D01*
X32800734Y-22391835D02*
X32697207Y-22391835D01*
X32800734Y-22494142D02*
X32800734Y-22391835D01*
X32963013Y-22494142D02*
X32800734Y-22494142D01*
X32963013Y-22896309D02*
X32963013Y-23150308D01*
X32800734Y-22896309D02*
X32963013Y-22896309D01*
X32800734Y-22991558D02*
X32800734Y-22896309D01*
X32697207Y-22991558D02*
X32800734Y-22991558D01*
X32697207Y-22896309D02*
X32697207Y-22991558D01*
X32397346Y-22896309D02*
X32697207Y-22896309D01*
X32397346Y-22991558D02*
X32397346Y-22896309D01*
X26015177Y-22991558D02*
X32397346Y-22991558D01*
X26015177Y-23150308D02*
X26015177Y-22991558D01*
X32963013Y-23150308D02*
X26015177Y-23150308D01*
X25616539Y-23150308D02*
X12681928Y-23150308D01*
X25616539Y-22991558D02*
X25616539Y-23150308D01*
X12681928Y-22991558D02*
X25616539Y-22991558D01*
X12681928Y-23150308D02*
X12681928Y-22991558D01*
X12283289Y-23150308D02*
X5340513Y-23150308D01*
X12283289Y-22991558D02*
X12283289Y-23150308D01*
X5899123Y-22991558D02*
X12283289Y-22991558D01*
X5899123Y-22896307D02*
X5899123Y-22991558D01*
X5599261Y-22896307D02*
X5899123Y-22896307D01*
X5599261Y-22991558D02*
X5599261Y-22896307D01*
X5499261Y-22991558D02*
X5599261Y-22991558D01*
X5499261Y-22889251D02*
X5499261Y-22991558D01*
X5340513Y-22889251D02*
X5499261Y-22889251D01*
X5340513Y-23150308D02*
X5340513Y-22889251D01*
X5336984Y-21633363D02*
X3671873Y-21633363D01*
X5336984Y-21732141D02*
X5336984Y-21633363D01*
X5499261Y-21732141D02*
X5336984Y-21732141D01*
X5499261Y-21629834D02*
X5499261Y-21732141D01*
X5599261Y-21629834D02*
X5499261Y-21629834D01*
X5599261Y-21732139D02*
X5599261Y-21629834D01*
X5899123Y-21732139D02*
X5599261Y-21732139D01*
X5899123Y-21629834D02*
X5899123Y-21732139D01*
X12283289Y-21629834D02*
X5899123Y-21629834D01*
X12283289Y-21467557D02*
X12283289Y-21629834D01*
X4230484Y-21467557D02*
X12283289Y-21467557D01*
X4230484Y-21372307D02*
X4230484Y-21467557D01*
X3930623Y-21372307D02*
X4230484Y-21372307D01*
X3930623Y-21467557D02*
X3930623Y-21372307D01*
X3830623Y-21467557D02*
X3930623Y-21467557D01*
X3830623Y-21372307D02*
X3830623Y-21467557D01*
X3671873Y-21372307D02*
X3830623Y-21372307D01*
X3671873Y-21633363D02*
X3671873Y-21372307D01*
X3604844Y-17128391D02*
X3604844Y-16084174D01*
X5008899Y-17128391D02*
X3604844Y-17128391D01*
X5008899Y-17879809D02*
X5008899Y-17128391D01*
X5164122Y-17879809D02*
X5008899Y-17879809D01*
X5164122Y-17325945D02*
X5164122Y-17879809D01*
X5174707Y-17262448D02*
X5164122Y-17325945D01*
X5202929Y-17206000D02*
X5174707Y-17262448D01*
X5248790Y-17160142D02*
X5202929Y-17206000D01*
X5305236Y-17131922D02*
X5248790Y-17160142D01*
X5365206Y-17121337D02*
X5305236Y-17131922D01*
X5396957Y-17121337D02*
X5365206Y-17121337D01*
X5411067Y-17093113D02*
X5396957Y-17121337D01*
X5460456Y-17043727D02*
X5411067Y-17093113D01*
X5523956Y-17011972D02*
X5460456Y-17043727D01*
X5594511Y-17001392D02*
X5523956Y-17011972D01*
X6240094Y-17001392D02*
X5594511Y-17001392D01*
X6310650Y-17011972D02*
X6240094Y-17001392D01*
X6374152Y-17043727D02*
X6310650Y-17011972D01*
X6423539Y-17093113D02*
X6374152Y-17043727D01*
X6437651Y-17121337D02*
X6423539Y-17093113D01*
X12283289Y-17121337D02*
X6437651Y-17121337D01*
X12283289Y-16828530D02*
X12283289Y-17121337D01*
X5030067Y-16828530D02*
X12283289Y-16828530D01*
X5015955Y-16856749D02*
X5030067Y-16828530D01*
X4966568Y-16906139D02*
X5015955Y-16856749D01*
X4903068Y-16937890D02*
X4966568Y-16906139D01*
X4832512Y-16948471D02*
X4903068Y-16937890D01*
X4186927Y-16948471D02*
X4832512Y-16948471D01*
X4116372Y-16937890D02*
X4186927Y-16948471D01*
X4052872Y-16906139D02*
X4116372Y-16937890D01*
X4003485Y-16856749D02*
X4052872Y-16906139D01*
X3989373Y-16828530D02*
X4003485Y-16856749D01*
X3957624Y-16828530D02*
X3989373Y-16828530D01*
X3897651Y-16817944D02*
X3957624Y-16828530D01*
X3841206Y-16789721D02*
X3897651Y-16817944D01*
X3795345Y-16743862D02*
X3841206Y-16789721D01*
X3767123Y-16687418D02*
X3795345Y-16743862D01*
X3756540Y-16627448D02*
X3767123Y-16687418D01*
X3756540Y-16084174D02*
X3756540Y-16627448D01*
X3604844Y-16084174D02*
X3756540Y-16084174D01*
X4888956Y-15205752D02*
X4878373Y-15276307D01*
X4878373Y-15135196D02*
X4888956Y-15205752D01*
X4846622Y-15071694D02*
X4878373Y-15135196D01*
X4797235Y-15022309D02*
X4846622Y-15071694D01*
X4733733Y-14990554D02*
X4797235Y-15022309D01*
X4663177Y-14979973D02*
X4733733Y-14990554D01*
X4363316Y-14979973D02*
X4663177Y-14979973D01*
X4292761Y-14990554D02*
X4363316Y-14979973D01*
X4229261Y-15022309D02*
X4292761Y-14990554D01*
X4179873Y-15071694D02*
X4229261Y-15022309D01*
X4148123Y-15135196D02*
X4179873Y-15071694D01*
X4137540Y-15205752D02*
X4148123Y-15135196D01*
X4148123Y-15276307D02*
X4137540Y-15205752D01*
X4179873Y-15339809D02*
X4148123Y-15276307D01*
X4229261Y-15389194D02*
X4179873Y-15339809D01*
X4292761Y-15420950D02*
X4229261Y-15389194D01*
X4363316Y-15431530D02*
X4292761Y-15420950D01*
X4663177Y-15431530D02*
X4363316Y-15431530D01*
X4733733Y-15420950D02*
X4663177Y-15431530D01*
X4797235Y-15389194D02*
X4733733Y-15420950D01*
X4846622Y-15339809D02*
X4797235Y-15389194D01*
X4878373Y-15276307D02*
X4846622Y-15339809D01*
X4137540Y-16556892D02*
X4148123Y-16486337D01*
X4148123Y-16627448D02*
X4137540Y-16556892D01*
X4179873Y-16690945D02*
X4148123Y-16627448D01*
X4229261Y-16740335D02*
X4179873Y-16690945D01*
X4292761Y-16772086D02*
X4229261Y-16740335D01*
X4363316Y-16782667D02*
X4292761Y-16772086D01*
X4663177Y-16782667D02*
X4363316Y-16782667D01*
X4733733Y-16772086D02*
X4663177Y-16782667D01*
X4797235Y-16740335D02*
X4733733Y-16772086D01*
X4846622Y-16690945D02*
X4797235Y-16740335D01*
X4878373Y-16627448D02*
X4846622Y-16690945D01*
X4888956Y-16556892D02*
X4878373Y-16627448D01*
X4878373Y-16486337D02*
X4888956Y-16556892D01*
X4846622Y-16422835D02*
X4878373Y-16486337D01*
X4797235Y-16373445D02*
X4846622Y-16422835D01*
X4733733Y-16341694D02*
X4797235Y-16373445D01*
X4663177Y-16331109D02*
X4733733Y-16341694D01*
X4363316Y-16331109D02*
X4663177Y-16331109D01*
X4292761Y-16341694D02*
X4363316Y-16331109D01*
X4229261Y-16373445D02*
X4292761Y-16341694D01*
X4179873Y-16422835D02*
X4229261Y-16373445D01*
X4148123Y-16486337D02*
X4179873Y-16422835D01*
X4306873Y-15682006D02*
X4007011Y-15682006D01*
X4306873Y-15480920D02*
X4306873Y-15682006D01*
X4007011Y-15480920D02*
X4306873Y-15480920D01*
X4007011Y-15682006D02*
X4007011Y-15480920D01*
X4007011Y-16281724D02*
X4007011Y-16084174D01*
X4306873Y-16281724D02*
X4007011Y-16281724D01*
X4306873Y-16084174D02*
X4306873Y-16281724D01*
X4007011Y-16084174D02*
X4306873Y-16084174D01*
X6790429Y-15823113D02*
X6801012Y-15879561D01*
X6758678Y-15777254D02*
X6790429Y-15823113D01*
X6712817Y-15745503D02*
X6758678Y-15777254D01*
X6656372Y-15734918D02*
X6712817Y-15745503D01*
X6599928Y-15745503D02*
X6656372Y-15734918D01*
X6554067Y-15777254D02*
X6599928Y-15745503D01*
X6522317Y-15823113D02*
X6554067Y-15777254D01*
X6511734Y-15879561D02*
X6522317Y-15823113D01*
X6522317Y-15936000D02*
X6511734Y-15879561D01*
X6554067Y-15981863D02*
X6522317Y-15936000D01*
X6599928Y-16013614D02*
X6554067Y-15981863D01*
X6656372Y-16024194D02*
X6599928Y-16013614D01*
X6712817Y-16013614D02*
X6656372Y-16024194D01*
X6758678Y-15981863D02*
X6712817Y-16013614D01*
X6790429Y-15936000D02*
X6758678Y-15981863D01*
X6801012Y-15879561D02*
X6790429Y-15936000D01*
X3604844Y-15685533D02*
X3604844Y-14531951D01*
X3756540Y-15685533D02*
X3604844Y-15685533D01*
X3756540Y-15128142D02*
X3756540Y-15685533D01*
X3767123Y-15068167D02*
X3756540Y-15128142D01*
X3795345Y-15011724D02*
X3767123Y-15068167D01*
X3841206Y-14965861D02*
X3795345Y-15011724D01*
X3897651Y-14937641D02*
X3841206Y-14965861D01*
X3957624Y-14927061D02*
X3897651Y-14937641D01*
X3989373Y-14927061D02*
X3957624Y-14927061D01*
X4003485Y-14898837D02*
X3989373Y-14927061D01*
X4052872Y-14849447D02*
X4003485Y-14898837D01*
X4116372Y-14817696D02*
X4052872Y-14849447D01*
X4186927Y-14807111D02*
X4116372Y-14817696D01*
X4832512Y-14807111D02*
X4186927Y-14807111D01*
X4903068Y-14817696D02*
X4832512Y-14807111D01*
X4966568Y-14849447D02*
X4903068Y-14817696D01*
X5015955Y-14898837D02*
X4966568Y-14849447D01*
X5030067Y-14927061D02*
X5015955Y-14898837D01*
X12283289Y-14927061D02*
X5030067Y-14927061D01*
X12283289Y-14528416D02*
X12283289Y-14927061D01*
X5675650Y-14528416D02*
X12283289Y-14528416D01*
X5661540Y-14556635D02*
X5675650Y-14528416D01*
X5612150Y-14606029D02*
X5661540Y-14556635D01*
X5548651Y-14637776D02*
X5612150Y-14606029D01*
X5478095Y-14648361D02*
X5548651Y-14637776D01*
X4832512Y-14648361D02*
X5478095Y-14648361D01*
X4761957Y-14637776D02*
X4832512Y-14648361D01*
X4698455Y-14606029D02*
X4761957Y-14637776D01*
X4649068Y-14556635D02*
X4698455Y-14606029D01*
X4634956Y-14528416D02*
X4649068Y-14556635D01*
X4603207Y-14528416D02*
X4634956Y-14528416D01*
X4539707Y-14517835D02*
X4603207Y-14528416D01*
X4483262Y-14489611D02*
X4539707Y-14517835D01*
X4437401Y-14443748D02*
X4483262Y-14489611D01*
X4409179Y-14387309D02*
X4437401Y-14443748D01*
X4398594Y-14327334D02*
X4409179Y-14387309D01*
X4398594Y-13777002D02*
X4398594Y-14327334D01*
X4246900Y-13777002D02*
X4398594Y-13777002D01*
X4246900Y-14531951D02*
X4246900Y-13777002D01*
X3604844Y-14531951D02*
X4246900Y-14531951D01*
X5531012Y-12902111D02*
X5520429Y-12972667D01*
X5520429Y-12831556D02*
X5531012Y-12902111D01*
X5488678Y-12768058D02*
X5520429Y-12831556D01*
X5439291Y-12718668D02*
X5488678Y-12768058D01*
X5375789Y-12686917D02*
X5439291Y-12718668D01*
X5305233Y-12676337D02*
X5375789Y-12686917D01*
X5005372Y-12676337D02*
X5305233Y-12676337D01*
X4934817Y-12686917D02*
X5005372Y-12676337D01*
X4871317Y-12718668D02*
X4934817Y-12686917D01*
X4821930Y-12768058D02*
X4871317Y-12718668D01*
X4790179Y-12831556D02*
X4821930Y-12768058D01*
X4779596Y-12902111D02*
X4790179Y-12831556D01*
X4790179Y-12972667D02*
X4779596Y-12902111D01*
X4821930Y-13036168D02*
X4790179Y-12972667D01*
X4871317Y-13085558D02*
X4821930Y-13036168D01*
X4934817Y-13117309D02*
X4871317Y-13085558D01*
X5005372Y-13127894D02*
X4934817Y-13117309D01*
X5305233Y-13127894D02*
X5005372Y-13127894D01*
X5375789Y-13117309D02*
X5305233Y-13127894D01*
X5439291Y-13085558D02*
X5375789Y-13117309D01*
X5488678Y-13036168D02*
X5439291Y-13085558D01*
X5520429Y-12972667D02*
X5488678Y-13036168D01*
X4779596Y-14249725D02*
X4790179Y-14179169D01*
X4790179Y-14320280D02*
X4779596Y-14249725D01*
X4821930Y-14383778D02*
X4790179Y-14320280D01*
X4871317Y-14433172D02*
X4821930Y-14383778D01*
X4934817Y-14464918D02*
X4871317Y-14433172D01*
X5005372Y-14475503D02*
X4934817Y-14464918D01*
X5305233Y-14475503D02*
X5005372Y-14475503D01*
X5375789Y-14464918D02*
X5305233Y-14475503D01*
X5439291Y-14433172D02*
X5375789Y-14464918D01*
X5488678Y-14383778D02*
X5439291Y-14433172D01*
X5520429Y-14320280D02*
X5488678Y-14383778D01*
X5531012Y-14249725D02*
X5520429Y-14320280D01*
X5520429Y-14179169D02*
X5531012Y-14249725D01*
X5488678Y-14115672D02*
X5520429Y-14179169D01*
X5439291Y-14066278D02*
X5488678Y-14115672D01*
X5375789Y-14034531D02*
X5439291Y-14066278D01*
X5305233Y-14023946D02*
X5375789Y-14034531D01*
X5005372Y-14023946D02*
X5305233Y-14023946D01*
X4934817Y-14034531D02*
X5005372Y-14023946D01*
X4871317Y-14066278D02*
X4934817Y-14034531D01*
X4821930Y-14115672D02*
X4871317Y-14066278D01*
X4790179Y-14179169D02*
X4821930Y-14115672D01*
X4941873Y-13376604D02*
X4642012Y-13376604D01*
X4941873Y-13175514D02*
X4941873Y-13376604D01*
X4642012Y-13175514D02*
X4941873Y-13175514D01*
X4642012Y-13376604D02*
X4642012Y-13175514D01*
X4642012Y-13976322D02*
X4642012Y-13777002D01*
X4941873Y-13976322D02*
X4642012Y-13976322D01*
X4941873Y-13777002D02*
X4941873Y-13976322D01*
X4642012Y-13777002D02*
X4941873Y-13777002D01*
X7615928Y-13519476D02*
X7626511Y-13575920D01*
X7584179Y-13473618D02*
X7615928Y-13519476D01*
X7538318Y-13441863D02*
X7584179Y-13473618D01*
X7481873Y-13431282D02*
X7538318Y-13441863D01*
X7425429Y-13441863D02*
X7481873Y-13431282D01*
X7379568Y-13473618D02*
X7425429Y-13441863D01*
X7347817Y-13519476D02*
X7379568Y-13473618D01*
X7337235Y-13575920D02*
X7347817Y-13519476D01*
X7347817Y-13632364D02*
X7337235Y-13575920D01*
X7379568Y-13678222D02*
X7347817Y-13632364D01*
X7425429Y-13709977D02*
X7379568Y-13678222D01*
X7481873Y-13720558D02*
X7425429Y-13709977D01*
X7538318Y-13709977D02*
X7481873Y-13720558D01*
X7584179Y-13678222D02*
X7538318Y-13709977D01*
X7615928Y-13632364D02*
X7584179Y-13678222D01*
X7626511Y-13575920D02*
X7615928Y-13632364D01*
X4246900Y-13378361D02*
X4246900Y-11459253D01*
X4398594Y-13378361D02*
X4246900Y-13378361D01*
X4398594Y-12828029D02*
X4398594Y-13378361D01*
X4409179Y-12764531D02*
X4398594Y-12828029D01*
X4437401Y-12708083D02*
X4409179Y-12764531D01*
X4483262Y-12662225D02*
X4437401Y-12708083D01*
X4539707Y-12634005D02*
X4483262Y-12662225D01*
X4603207Y-12623420D02*
X4539707Y-12634005D01*
X4634956Y-12623420D02*
X4603207Y-12623420D01*
X4649068Y-12595196D02*
X4634956Y-12623420D01*
X4698455Y-12545811D02*
X4649068Y-12595196D01*
X4761957Y-12514060D02*
X4698455Y-12545811D01*
X4832512Y-12503479D02*
X4761957Y-12514060D01*
X5478095Y-12503479D02*
X4832512Y-12503479D01*
X5548651Y-12514060D02*
X5478095Y-12503479D01*
X5612150Y-12545811D02*
X5548651Y-12514060D01*
X5661540Y-12595196D02*
X5612150Y-12545811D01*
X5675650Y-12623420D02*
X5661540Y-12595196D01*
X12283289Y-12623420D02*
X5675650Y-12623420D01*
X12283289Y-12207141D02*
X12283289Y-12623420D01*
X5675650Y-12207141D02*
X12283289Y-12207141D01*
X5661540Y-12235360D02*
X5675650Y-12207141D01*
X5612150Y-12284750D02*
X5661540Y-12235360D01*
X5548651Y-12316497D02*
X5612150Y-12284750D01*
X5478095Y-12327082D02*
X5548651Y-12316497D01*
X4832512Y-12327082D02*
X5478095Y-12327082D01*
X4761957Y-12316497D02*
X4832512Y-12327082D01*
X4698455Y-12284750D02*
X4761957Y-12316497D01*
X4649068Y-12235360D02*
X4698455Y-12284750D01*
X4634956Y-12207141D02*
X4649068Y-12235360D01*
X4603207Y-12207141D02*
X4634956Y-12207141D01*
X4539707Y-12196556D02*
X4603207Y-12207141D01*
X4483262Y-12168332D02*
X4539707Y-12196556D01*
X4437401Y-12122473D02*
X4483262Y-12168332D01*
X4409179Y-12066029D02*
X4437401Y-12122473D01*
X4398594Y-12006059D02*
X4409179Y-12066029D01*
X4398594Y-11459253D02*
X4398594Y-12006059D01*
X4246900Y-11459253D02*
X4398594Y-11459253D01*
X5531012Y-10580832D02*
X5520429Y-10651387D01*
X5520429Y-10510276D02*
X5531012Y-10580832D01*
X5488678Y-10446779D02*
X5520429Y-10510276D01*
X5439291Y-10397389D02*
X5488678Y-10446779D01*
X5375789Y-10365642D02*
X5439291Y-10397389D01*
X5305233Y-10355057D02*
X5375789Y-10365642D01*
X5005372Y-10355057D02*
X5305233Y-10355057D01*
X4934817Y-10365642D02*
X5005372Y-10355057D01*
X4871317Y-10397389D02*
X4934817Y-10365642D01*
X4821930Y-10446779D02*
X4871317Y-10397389D01*
X4790179Y-10510276D02*
X4821930Y-10446779D01*
X4779596Y-10580832D02*
X4790179Y-10510276D01*
X4790179Y-10651387D02*
X4779596Y-10580832D01*
X4821930Y-10714889D02*
X4790179Y-10651387D01*
X4871317Y-10764279D02*
X4821930Y-10714889D01*
X4934817Y-10796030D02*
X4871317Y-10764279D01*
X5005372Y-10806610D02*
X4934817Y-10796030D01*
X5305233Y-10806610D02*
X5005372Y-10806610D01*
X5375789Y-10796030D02*
X5305233Y-10806610D01*
X5439291Y-10764279D02*
X5375789Y-10796030D01*
X5488678Y-10714889D02*
X5439291Y-10764279D01*
X5520429Y-10651387D02*
X5488678Y-10714889D01*
X4779596Y-11931972D02*
X4790179Y-11861417D01*
X4790179Y-12002528D02*
X4779596Y-11931972D01*
X4821930Y-12066029D02*
X4790179Y-12002528D01*
X4871317Y-12115415D02*
X4821930Y-12066029D01*
X4934817Y-12147170D02*
X4871317Y-12115415D01*
X5005372Y-12157751D02*
X4934817Y-12147170D01*
X5305233Y-12157751D02*
X5005372Y-12157751D01*
X5375789Y-12147170D02*
X5305233Y-12157751D01*
X5439291Y-12115415D02*
X5375789Y-12147170D01*
X5488678Y-12066029D02*
X5439291Y-12115415D01*
X5520429Y-12002528D02*
X5488678Y-12066029D01*
X5531012Y-11931972D02*
X5520429Y-12002528D01*
X5520429Y-11861417D02*
X5531012Y-11931972D01*
X5488678Y-11797919D02*
X5520429Y-11861417D01*
X5439291Y-11748529D02*
X5488678Y-11797919D01*
X5375789Y-11716783D02*
X5439291Y-11748529D01*
X5305233Y-11706198D02*
X5375789Y-11716783D01*
X5005372Y-11706198D02*
X5305233Y-11706198D01*
X4934817Y-11716783D02*
X5005372Y-11706198D01*
X4871317Y-11748529D02*
X4934817Y-11716783D01*
X4821930Y-11797919D02*
X4871317Y-11748529D01*
X4790179Y-11861417D02*
X4821930Y-11797919D01*
X4941873Y-11058852D02*
X4642012Y-11058852D01*
X4941873Y-10857766D02*
X4941873Y-11058852D01*
X4642012Y-10857766D02*
X4941873Y-10857766D01*
X4642012Y-11058852D02*
X4642012Y-10857766D01*
X4642012Y-11658569D02*
X4642012Y-11459253D01*
X4941873Y-11658569D02*
X4642012Y-11658569D01*
X4941873Y-11459253D02*
X4941873Y-11658569D01*
X4642012Y-11459253D02*
X4941873Y-11459253D01*
X7615928Y-11201724D02*
X7626511Y-11258167D01*
X7584179Y-11155861D02*
X7615928Y-11201724D01*
X7538318Y-11124115D02*
X7584179Y-11155861D01*
X7481873Y-11113530D02*
X7538318Y-11124115D01*
X7425429Y-11124115D02*
X7481873Y-11113530D01*
X7379568Y-11155861D02*
X7425429Y-11124115D01*
X7347817Y-11201724D02*
X7379568Y-11155861D01*
X7337235Y-11258167D02*
X7347817Y-11201724D01*
X7347817Y-11314611D02*
X7337235Y-11258167D01*
X7379568Y-11360474D02*
X7347817Y-11314611D01*
X7425429Y-11392220D02*
X7379568Y-11360474D01*
X7481873Y-11402806D02*
X7425429Y-11392220D01*
X7538318Y-11392220D02*
X7481873Y-11402806D01*
X7584179Y-11360474D02*
X7538318Y-11392220D01*
X7615928Y-11314611D02*
X7584179Y-11360474D01*
X7626511Y-11258167D02*
X7615928Y-11314611D01*
X4246900Y-11060613D02*
X4246900Y-10002280D01*
X4398594Y-11060613D02*
X4246900Y-11060613D01*
X4398594Y-10506753D02*
X4398594Y-11060613D01*
X4409179Y-10443252D02*
X4398594Y-10506753D01*
X4437401Y-10386804D02*
X4409179Y-10443252D01*
X4483262Y-10340945D02*
X4437401Y-10386804D01*
X4539707Y-10312726D02*
X4483262Y-10340945D01*
X4603207Y-10302141D02*
X4539707Y-10312726D01*
X4634956Y-10302141D02*
X4603207Y-10302141D01*
X4649068Y-10273917D02*
X4634956Y-10302141D01*
X4698455Y-10224531D02*
X4649068Y-10273917D01*
X4761957Y-10192780D02*
X4698455Y-10224531D01*
X4832512Y-10182200D02*
X4761957Y-10192780D01*
X5478095Y-10182200D02*
X4832512Y-10182200D01*
X5548651Y-10192780D02*
X5478095Y-10182200D01*
X5612150Y-10224531D02*
X5548651Y-10192780D01*
X5661540Y-10273917D02*
X5612150Y-10224531D01*
X5675650Y-10302141D02*
X5661540Y-10273917D01*
X12283289Y-10302141D02*
X5675650Y-10302141D01*
X12283289Y-10005802D02*
X12283289Y-10302141D01*
X6614040Y-10005802D02*
X12283289Y-10005802D01*
X6599928Y-10034026D02*
X6614040Y-10005802D01*
X6550541Y-10083416D02*
X6599928Y-10034026D01*
X6487039Y-10115167D02*
X6550541Y-10083416D01*
X6416483Y-10125747D02*
X6487039Y-10115167D01*
X5770900Y-10125747D02*
X6416483Y-10125747D01*
X5700345Y-10115167D02*
X5770900Y-10125747D01*
X5636845Y-10083416D02*
X5700345Y-10115167D01*
X5587456Y-10034026D02*
X5636845Y-10083416D01*
X5573346Y-10005802D02*
X5587456Y-10034026D01*
X5541595Y-10005802D02*
X5573346Y-10005802D01*
X5478095Y-9995221D02*
X5541595Y-10005802D01*
X5421652Y-9967002D02*
X5478095Y-9995221D01*
X5375789Y-9921139D02*
X5421652Y-9967002D01*
X5347567Y-9864695D02*
X5375789Y-9921139D01*
X5336984Y-9801198D02*
X5347567Y-9864695D01*
X5336984Y-9250861D02*
X5336984Y-9801198D01*
X5188817Y-9250861D02*
X5336984Y-9250861D01*
X5188817Y-10002280D02*
X5188817Y-9250861D01*
X4246900Y-10002280D02*
X5188817Y-10002280D01*
X6469400Y-8375970D02*
X6458817Y-8446526D01*
X6458817Y-8305415D02*
X6469400Y-8375970D01*
X6427066Y-8241917D02*
X6458817Y-8305415D01*
X6377679Y-8192528D02*
X6427066Y-8241917D01*
X6314179Y-8160781D02*
X6377679Y-8192528D01*
X6243623Y-8150196D02*
X6314179Y-8160781D01*
X5943762Y-8150196D02*
X6243623Y-8150196D01*
X5873207Y-8160781D02*
X5943762Y-8150196D01*
X5809705Y-8192528D02*
X5873207Y-8160781D01*
X5760317Y-8241917D02*
X5809705Y-8192528D01*
X5728567Y-8305415D02*
X5760317Y-8241917D01*
X5717984Y-8375970D02*
X5728567Y-8305415D01*
X5728567Y-8446526D02*
X5717984Y-8375970D01*
X5760317Y-8510028D02*
X5728567Y-8446526D01*
X5809705Y-8559418D02*
X5760317Y-8510028D01*
X5873207Y-8591168D02*
X5809705Y-8559418D01*
X5943762Y-8601749D02*
X5873207Y-8591168D01*
X6243623Y-8601749D02*
X5943762Y-8601749D01*
X6314179Y-8591168D02*
X6243623Y-8601749D01*
X6377679Y-8559418D02*
X6314179Y-8591168D01*
X6427066Y-8510028D02*
X6377679Y-8559418D01*
X6458817Y-8446526D02*
X6427066Y-8510028D01*
X5717984Y-9727111D02*
X5728567Y-9656556D01*
X5728567Y-9797667D02*
X5717984Y-9727111D01*
X5760317Y-9861168D02*
X5728567Y-9797667D01*
X5809705Y-9910554D02*
X5760317Y-9861168D01*
X5873207Y-9942309D02*
X5809705Y-9910554D01*
X5943762Y-9952890D02*
X5873207Y-9942309D01*
X6243623Y-9952890D02*
X5943762Y-9952890D01*
X6314179Y-9942309D02*
X6243623Y-9952890D01*
X6377679Y-9910554D02*
X6314179Y-9942309D01*
X6427066Y-9861168D02*
X6377679Y-9910554D01*
X6458817Y-9797667D02*
X6427066Y-9861168D01*
X6469400Y-9727111D02*
X6458817Y-9797667D01*
X6458817Y-9656556D02*
X6469400Y-9727111D01*
X6427066Y-9593058D02*
X6458817Y-9656556D01*
X6377679Y-9543668D02*
X6427066Y-9593058D01*
X6314179Y-9511922D02*
X6377679Y-9543668D01*
X6243623Y-9501337D02*
X6314179Y-9511922D01*
X5943762Y-9501337D02*
X6243623Y-9501337D01*
X5873207Y-9511922D02*
X5943762Y-9501337D01*
X5809705Y-9543668D02*
X5873207Y-9511922D01*
X5760317Y-9593058D02*
X5809705Y-9543668D01*
X5728567Y-9656556D02*
X5760317Y-9593058D01*
X5880263Y-8850464D02*
X5580402Y-8850464D01*
X5880263Y-8649373D02*
X5880263Y-8850464D01*
X5580402Y-8649373D02*
X5880263Y-8649373D01*
X5580402Y-8850464D02*
X5580402Y-8649373D01*
X5580402Y-9451943D02*
X5580402Y-9250861D01*
X5880263Y-9451943D02*
X5580402Y-9451943D01*
X5880263Y-9250861D02*
X5880263Y-9451943D01*
X5580402Y-9250861D02*
X5880263Y-9250861D01*
X8448485Y-8993332D02*
X8459068Y-9049780D01*
X8416734Y-8947473D02*
X8448485Y-8993332D01*
X8370873Y-8915722D02*
X8416734Y-8947473D01*
X8314429Y-8905142D02*
X8370873Y-8915722D01*
X8257984Y-8915722D02*
X8314429Y-8905142D01*
X8212123Y-8947473D02*
X8257984Y-8915722D01*
X8180374Y-8993332D02*
X8212123Y-8947473D01*
X8169791Y-9049780D02*
X8180374Y-8993332D01*
X8180374Y-9106223D02*
X8169791Y-9049780D01*
X8212123Y-9152082D02*
X8180374Y-9106223D01*
X8257984Y-9183837D02*
X8212123Y-9152082D01*
X8314429Y-9194418D02*
X8257984Y-9183837D01*
X8370873Y-9183837D02*
X8314429Y-9194418D01*
X8416734Y-9152082D02*
X8370873Y-9183837D01*
X8448485Y-9106223D02*
X8416734Y-9152082D01*
M02*
