G04 #@! TF.GenerationSoftware,KiCad,Pcbnew,(5.0.0-3-g5ebb6b6)*
G04 #@! TF.CreationDate,2019-02-22T00:56:02-08:00*
G04 #@! TF.ProjectId,Panel,50616E656C2E6B696361645F70636200,rev?*
G04 #@! TF.SameCoordinates,Original*
G04 #@! TF.FileFunction,Copper,L4,Bot,Signal*
G04 #@! TF.FilePolarity,Positive*
%FSLAX45Y45*%
G04 Gerber Fmt 4.5, Leading zero omitted, Abs format (unit mm)*
G04 Created by KiCad (PCBNEW (5.0.0-3-g5ebb6b6)) date Friday, February 22, 2019 at 12:56:02 AM*
%MOMM*%
%LPD*%
G01*
G04 APERTURE LIST*
G04 #@! TA.AperFunction,ComponentPad*
%ADD10C,0.500000*%
G04 #@! TD*
G04 #@! TA.AperFunction,ComponentPad*
%ADD11O,5.080000X1.524000*%
G04 #@! TD*
G04 #@! TA.AperFunction,ViaPad*
%ADD12C,1.000000*%
G04 #@! TD*
G04 #@! TA.AperFunction,Conductor*
%ADD13C,0.500000*%
G04 #@! TD*
G04 #@! TA.AperFunction,Conductor*
%ADD14C,0.300000*%
G04 #@! TD*
G04 APERTURE END LIST*
D10*
G04 #@! TO.P,REF\002A\002A,*
G04 #@! TO.N,*
X7995000Y-5490000D03*
X7995000Y-5390000D03*
X7995000Y-5190000D03*
X7995000Y-5290000D03*
G04 #@! TD*
G04 #@! TO.P,REF\002A\002A,*
G04 #@! TO.N,*
X32895000Y-18835000D03*
X32895000Y-18735000D03*
X32895000Y-18935000D03*
X32895000Y-19035000D03*
G04 #@! TD*
G04 #@! TO.P,REF\002A\002A,*
G04 #@! TO.N,*
X7585000Y-4460000D03*
X7585000Y-4360000D03*
X7585000Y-4560000D03*
X7585000Y-4660000D03*
G04 #@! TD*
G04 #@! TO.P,REF\002A\002A,*
G04 #@! TO.N,*
X5335000Y-6695000D03*
X5335000Y-6595000D03*
X5335000Y-6795000D03*
X5335000Y-6895000D03*
G04 #@! TD*
G04 #@! TO.P,REF\002A\002A,*
G04 #@! TO.N,*
X5335000Y-9000000D03*
X5335000Y-8900000D03*
X5335000Y-9100000D03*
X5335000Y-9200000D03*
G04 #@! TD*
G04 #@! TO.P,REF\002A\002A,*
G04 #@! TO.N,*
X4400000Y-11210000D03*
X4400000Y-11110000D03*
X4400000Y-11310000D03*
X4400000Y-11410000D03*
G04 #@! TD*
G04 #@! TO.P,REF\002A\002A,*
G04 #@! TO.N,*
X4400000Y-13530000D03*
X4400000Y-13430000D03*
X4400000Y-13630000D03*
X4400000Y-13730000D03*
G04 #@! TD*
G04 #@! TO.P,REF\002A\002A,*
G04 #@! TO.N,*
X3755000Y-15835000D03*
X3755000Y-15735000D03*
X3755000Y-15935000D03*
X3755000Y-16035000D03*
G04 #@! TD*
G04 #@! TO.P,REF\002A\002A,*
G04 #@! TO.N,*
X5165000Y-18030000D03*
X5165000Y-17930000D03*
X5165000Y-18130000D03*
X5165000Y-18230000D03*
G04 #@! TD*
G04 #@! TO.P,REF\002A\002A,*
G04 #@! TO.N,*
X5245000Y-18835000D03*
X5245000Y-18735000D03*
X5245000Y-18935000D03*
X5245000Y-19035000D03*
G04 #@! TD*
G04 #@! TO.P,REF\002A\002A,*
G04 #@! TO.N,*
X4665000Y-19600000D03*
X4665000Y-19500000D03*
X4665000Y-19700000D03*
X4665000Y-19800000D03*
G04 #@! TD*
G04 #@! TO.P,REF\002A\002A,*
G04 #@! TO.N,*
X4665000Y-20360000D03*
X4665000Y-20260000D03*
X4665000Y-20460000D03*
X4665000Y-20560000D03*
G04 #@! TD*
G04 #@! TO.P,REF\002A\002A,*
G04 #@! TO.N,*
X3830000Y-21125000D03*
X3830000Y-21025000D03*
X3830000Y-21225000D03*
X3830000Y-21325000D03*
G04 #@! TD*
G04 #@! TO.P,REF\002A\002A,*
G04 #@! TO.N,*
X5500000Y-21880000D03*
X5500000Y-21780000D03*
X5500000Y-21980000D03*
X5500000Y-22080000D03*
G04 #@! TD*
G04 #@! TO.P,REF\002A\002A,*
G04 #@! TO.N,*
X5500000Y-22640000D03*
X5500000Y-22540000D03*
X5500000Y-22740000D03*
X5500000Y-22840000D03*
G04 #@! TD*
G04 #@! TO.P,REF\002A\002A,*
G04 #@! TO.N,*
X32800000Y-22645000D03*
X32800000Y-22545000D03*
X32800000Y-22745000D03*
X32800000Y-22845000D03*
G04 #@! TD*
G04 #@! TO.P,REF\002A\002A,*
G04 #@! TO.N,*
X32800000Y-21885000D03*
X32800000Y-21785000D03*
X32800000Y-21985000D03*
X32800000Y-22085000D03*
G04 #@! TD*
G04 #@! TO.P,REF\002A\002A,*
G04 #@! TO.N,*
X34465000Y-21115000D03*
X34465000Y-21015000D03*
X34465000Y-21215000D03*
X34465000Y-21315000D03*
G04 #@! TD*
G04 #@! TO.P,REF\002A\002A,*
G04 #@! TO.N,*
X33635000Y-20365000D03*
X33635000Y-20265000D03*
X33635000Y-20465000D03*
X33635000Y-20565000D03*
G04 #@! TD*
G04 #@! TO.P,REF\002A\002A,*
G04 #@! TO.N,*
X33635000Y-19600000D03*
X33635000Y-19500000D03*
X33635000Y-19700000D03*
X33635000Y-19800000D03*
G04 #@! TD*
G04 #@! TO.P,REF\002A\002A,*
G04 #@! TO.N,*
X33120000Y-18045000D03*
X33120000Y-17945000D03*
X33120000Y-18145000D03*
X33120000Y-18245000D03*
G04 #@! TD*
G04 #@! TO.P,REF\002A\002A,*
G04 #@! TO.N,*
X34540000Y-15830000D03*
X34540000Y-15730000D03*
X34540000Y-15930000D03*
X34540000Y-16030000D03*
G04 #@! TD*
G04 #@! TO.P,REF\002A\002A,*
G04 #@! TO.N,*
X33900000Y-13535000D03*
X33900000Y-13435000D03*
X33900000Y-13635000D03*
X33900000Y-13735000D03*
G04 #@! TD*
G04 #@! TO.P,REF\002A\002A,*
G04 #@! TO.N,*
X33900000Y-11210000D03*
X33900000Y-11110000D03*
X33900000Y-11310000D03*
X33900000Y-11410000D03*
G04 #@! TD*
G04 #@! TO.P,REF\002A\002A,*
G04 #@! TO.N,*
X32960000Y-8995000D03*
X32960000Y-8895000D03*
X32960000Y-9095000D03*
X32960000Y-9195000D03*
G04 #@! TD*
G04 #@! TO.P,REF\002A\002A,*
G04 #@! TO.N,*
X32960000Y-6695000D03*
X32960000Y-6595000D03*
X32960000Y-6795000D03*
X32960000Y-6895000D03*
G04 #@! TD*
G04 #@! TO.P,REF\002A\002A,*
G04 #@! TO.N,*
X30305000Y-5290000D03*
X30305000Y-5190000D03*
X30305000Y-5390000D03*
X30305000Y-5490000D03*
G04 #@! TD*
G04 #@! TO.P,REF\002A\002A,*
G04 #@! TO.N,*
X30705000Y-4455000D03*
X30705000Y-4355000D03*
X30705000Y-4555000D03*
X30705000Y-4655000D03*
G04 #@! TD*
G04 #@! TO.P,REF\002A\002A,*
G04 #@! TO.N,*
X25865000Y-22990000D03*
X25965000Y-22990000D03*
X25765000Y-22990000D03*
X25665000Y-22990000D03*
G04 #@! TD*
G04 #@! TO.P,REF\002A\002A,*
G04 #@! TO.N,*
X12535000Y-22990000D03*
X12635000Y-22990000D03*
X12435000Y-22990000D03*
X12335000Y-22990000D03*
G04 #@! TD*
G04 #@! TO.P,REF\002A\002A,*
G04 #@! TO.N,*
X25865000Y-22390000D03*
X25965000Y-22390000D03*
X25765000Y-22390000D03*
X25665000Y-22390000D03*
G04 #@! TD*
G04 #@! TO.P,REF\002A\002A,*
G04 #@! TO.N,*
X12535000Y-22390000D03*
X12635000Y-22390000D03*
X12435000Y-22390000D03*
X12335000Y-22390000D03*
G04 #@! TD*
G04 #@! TO.P,REF\002A\002A,*
G04 #@! TO.N,*
X25865000Y-22230000D03*
X25965000Y-22230000D03*
X25765000Y-22230000D03*
X25665000Y-22230000D03*
G04 #@! TD*
G04 #@! TO.P,REF\002A\002A,*
G04 #@! TO.N,*
X12535000Y-22230000D03*
X12635000Y-22230000D03*
X12435000Y-22230000D03*
X12335000Y-22230000D03*
G04 #@! TD*
G04 #@! TO.P,REF\002A\002A,*
G04 #@! TO.N,*
X25865000Y-21630000D03*
X25965000Y-21630000D03*
X25765000Y-21630000D03*
X25665000Y-21630000D03*
G04 #@! TD*
G04 #@! TO.P,REF\002A\002A,*
G04 #@! TO.N,*
X12535000Y-21630000D03*
X12635000Y-21630000D03*
X12435000Y-21630000D03*
X12335000Y-21630000D03*
G04 #@! TD*
G04 #@! TO.P,REF\002A\002A,*
G04 #@! TO.N,*
X25865000Y-21470000D03*
X25965000Y-21470000D03*
X25765000Y-21470000D03*
X25665000Y-21470000D03*
G04 #@! TD*
G04 #@! TO.P,REF\002A\002A,*
G04 #@! TO.N,*
X12535000Y-21470000D03*
X12635000Y-21470000D03*
X12435000Y-21470000D03*
X12335000Y-21470000D03*
G04 #@! TD*
G04 #@! TO.P,REF\002A\002A,*
G04 #@! TO.N,*
X12535000Y-20865000D03*
X12635000Y-20865000D03*
X12435000Y-20865000D03*
X12335000Y-20865000D03*
G04 #@! TD*
G04 #@! TO.P,REF\002A\002A,*
G04 #@! TO.N,*
X25865000Y-20865000D03*
X25965000Y-20865000D03*
X25765000Y-20865000D03*
X25665000Y-20865000D03*
G04 #@! TD*
G04 #@! TO.P,REF\002A\002A,*
G04 #@! TO.N,*
X12535000Y-20710000D03*
X12635000Y-20710000D03*
X12435000Y-20710000D03*
X12335000Y-20710000D03*
G04 #@! TD*
G04 #@! TO.P,REF\002A\002A,*
G04 #@! TO.N,*
X25865000Y-20710000D03*
X25965000Y-20710000D03*
X25765000Y-20710000D03*
X25665000Y-20710000D03*
G04 #@! TD*
G04 #@! TO.P,REF\002A\002A,*
G04 #@! TO.N,*
X12535000Y-20110000D03*
X12635000Y-20110000D03*
X12435000Y-20110000D03*
X12335000Y-20110000D03*
G04 #@! TD*
G04 #@! TO.P,REF\002A\002A,*
G04 #@! TO.N,*
X25865000Y-20110000D03*
X25965000Y-20110000D03*
X25765000Y-20110000D03*
X25665000Y-20110000D03*
G04 #@! TD*
G04 #@! TO.P,REF\002A\002A,*
G04 #@! TO.N,*
X12535000Y-19945000D03*
X12635000Y-19945000D03*
X12435000Y-19945000D03*
X12335000Y-19945000D03*
G04 #@! TD*
G04 #@! TO.P,REF\002A\002A,*
G04 #@! TO.N,*
X25865000Y-19945000D03*
X25965000Y-19945000D03*
X25765000Y-19945000D03*
X25665000Y-19945000D03*
G04 #@! TD*
G04 #@! TO.P,REF\002A\002A,*
G04 #@! TO.N,*
X12535000Y-19345000D03*
X12635000Y-19345000D03*
X12435000Y-19345000D03*
X12335000Y-19345000D03*
G04 #@! TD*
G04 #@! TO.P,REF\002A\002A,*
G04 #@! TO.N,*
X25865000Y-19345000D03*
X25965000Y-19345000D03*
X25765000Y-19345000D03*
X25665000Y-19345000D03*
G04 #@! TD*
G04 #@! TO.P,REF\002A\002A,*
G04 #@! TO.N,*
X12535000Y-19185000D03*
X12635000Y-19185000D03*
X12435000Y-19185000D03*
X12335000Y-19185000D03*
G04 #@! TD*
G04 #@! TO.P,REF\002A\002A,*
G04 #@! TO.N,*
X25865000Y-19185000D03*
X25965000Y-19185000D03*
X25765000Y-19185000D03*
X25665000Y-19185000D03*
G04 #@! TD*
G04 #@! TO.P,REF\002A\002A,*
G04 #@! TO.N,*
X12535000Y-18585000D03*
X12635000Y-18585000D03*
X12435000Y-18585000D03*
X12335000Y-18585000D03*
G04 #@! TD*
G04 #@! TO.P,REF\002A\002A,*
G04 #@! TO.N,*
X25865000Y-18585000D03*
X25965000Y-18585000D03*
X25765000Y-18585000D03*
X25665000Y-18585000D03*
G04 #@! TD*
G04 #@! TO.P,REF\002A\002A,*
G04 #@! TO.N,*
X12535000Y-18425000D03*
X12635000Y-18425000D03*
X12435000Y-18425000D03*
X12335000Y-18425000D03*
G04 #@! TD*
G04 #@! TO.P,REF\002A\002A,*
G04 #@! TO.N,*
X25865000Y-18425000D03*
X25965000Y-18425000D03*
X25765000Y-18425000D03*
X25665000Y-18425000D03*
G04 #@! TD*
G04 #@! TO.P,REF\002A\002A,*
G04 #@! TO.N,*
X12535000Y-17120000D03*
X12635000Y-17120000D03*
X12435000Y-17120000D03*
X12335000Y-17120000D03*
G04 #@! TD*
G04 #@! TO.P,REF\002A\002A,*
G04 #@! TO.N,*
X25865000Y-17120000D03*
X25965000Y-17120000D03*
X25765000Y-17120000D03*
X25665000Y-17120000D03*
G04 #@! TD*
G04 #@! TO.P,REF\002A\002A,*
G04 #@! TO.N,*
X12535000Y-16830000D03*
X12635000Y-16830000D03*
X12435000Y-16830000D03*
X12335000Y-16830000D03*
G04 #@! TD*
G04 #@! TO.P,REF\002A\002A,*
G04 #@! TO.N,*
X25865000Y-16830000D03*
X25965000Y-16830000D03*
X25765000Y-16830000D03*
X25665000Y-16830000D03*
G04 #@! TD*
G04 #@! TO.P,REF\002A\002A,*
G04 #@! TO.N,*
X25865000Y-14925000D03*
X25965000Y-14925000D03*
X25765000Y-14925000D03*
X25665000Y-14925000D03*
G04 #@! TD*
G04 #@! TO.P,REF\002A\002A,*
G04 #@! TO.N,*
X12535000Y-14925000D03*
X12635000Y-14925000D03*
X12435000Y-14925000D03*
X12335000Y-14925000D03*
G04 #@! TD*
G04 #@! TO.P,REF\002A\002A,*
G04 #@! TO.N,*
X12535000Y-14530000D03*
X12635000Y-14530000D03*
X12435000Y-14530000D03*
X12335000Y-14530000D03*
G04 #@! TD*
G04 #@! TO.P,REF\002A\002A,*
G04 #@! TO.N,*
X25865000Y-14530000D03*
X25965000Y-14530000D03*
X25765000Y-14530000D03*
X25665000Y-14530000D03*
G04 #@! TD*
G04 #@! TO.P,REF\002A\002A,*
G04 #@! TO.N,*
X12535000Y-12625000D03*
X12635000Y-12625000D03*
X12435000Y-12625000D03*
X12335000Y-12625000D03*
G04 #@! TD*
G04 #@! TO.P,REF\002A\002A,*
G04 #@! TO.N,*
X25865000Y-12625000D03*
X25965000Y-12625000D03*
X25765000Y-12625000D03*
X25665000Y-12625000D03*
G04 #@! TD*
G04 #@! TO.P,REF\002A\002A,*
G04 #@! TO.N,*
X12535000Y-12205000D03*
X12635000Y-12205000D03*
X12435000Y-12205000D03*
X12335000Y-12205000D03*
G04 #@! TD*
G04 #@! TO.P,REF\002A\002A,*
G04 #@! TO.N,*
X25865000Y-12205000D03*
X25965000Y-12205000D03*
X25765000Y-12205000D03*
X25665000Y-12205000D03*
G04 #@! TD*
G04 #@! TO.P,REF\002A\002A,*
G04 #@! TO.N,*
X12535000Y-10300000D03*
X12635000Y-10300000D03*
X12435000Y-10300000D03*
X12335000Y-10300000D03*
G04 #@! TD*
G04 #@! TO.P,REF\002A\002A,*
G04 #@! TO.N,*
X25865000Y-10300000D03*
X25965000Y-10300000D03*
X25765000Y-10300000D03*
X25665000Y-10300000D03*
G04 #@! TD*
G04 #@! TO.P,REF\002A\002A,*
G04 #@! TO.N,*
X12535000Y-10005000D03*
X12635000Y-10005000D03*
X12435000Y-10005000D03*
X12335000Y-10005000D03*
G04 #@! TD*
G04 #@! TO.P,REF\002A\002A,*
G04 #@! TO.N,*
X25865000Y-10005000D03*
X25965000Y-10005000D03*
X25765000Y-10005000D03*
X25665000Y-10005000D03*
G04 #@! TD*
G04 #@! TO.P,REF\002A\002A,*
G04 #@! TO.N,*
X12535000Y-8095000D03*
X12635000Y-8095000D03*
X12435000Y-8095000D03*
X12335000Y-8095000D03*
G04 #@! TD*
G04 #@! TO.P,REF\002A\002A,*
G04 #@! TO.N,*
X25865000Y-8095000D03*
X25965000Y-8095000D03*
X25765000Y-8095000D03*
X25665000Y-8095000D03*
G04 #@! TD*
G04 #@! TO.P,REF\002A\002A,*
G04 #@! TO.N,*
X12535000Y-7700000D03*
X12635000Y-7700000D03*
X12435000Y-7700000D03*
X12335000Y-7700000D03*
G04 #@! TD*
G04 #@! TO.P,REF\002A\002A,*
G04 #@! TO.N,*
X25865000Y-7700000D03*
X25965000Y-7700000D03*
X25765000Y-7700000D03*
X25665000Y-7700000D03*
G04 #@! TD*
G04 #@! TO.P,REF\002A\002A,*
G04 #@! TO.N,*
X12535000Y-5795000D03*
X12635000Y-5795000D03*
X12435000Y-5795000D03*
X12335000Y-5795000D03*
G04 #@! TD*
G04 #@! TO.P,REF\002A\002A,*
G04 #@! TO.N,*
X25865000Y-5795000D03*
X25965000Y-5795000D03*
X25765000Y-5795000D03*
X25665000Y-5795000D03*
G04 #@! TD*
G04 #@! TO.P,REF\002A\002A,*
G04 #@! TO.N,*
X12535000Y-5640000D03*
X12635000Y-5640000D03*
X12435000Y-5640000D03*
X12335000Y-5640000D03*
G04 #@! TD*
G04 #@! TO.P,REF\002A\002A,*
G04 #@! TO.N,*
X25865000Y-5640000D03*
X25965000Y-5640000D03*
X25765000Y-5640000D03*
X25665000Y-5640000D03*
G04 #@! TD*
G04 #@! TO.P,REF\002A\002A,*
G04 #@! TO.N,*
X12535000Y-5035000D03*
X12635000Y-5035000D03*
X12435000Y-5035000D03*
X12335000Y-5035000D03*
G04 #@! TD*
G04 #@! TO.P,REF\002A\002A,*
G04 #@! TO.N,*
X25865000Y-5035000D03*
X25965000Y-5035000D03*
X25765000Y-5035000D03*
X25665000Y-5035000D03*
G04 #@! TD*
G04 #@! TO.P,REF\002A\002A,*
G04 #@! TO.N,*
X12535000Y-4875000D03*
X12635000Y-4875000D03*
X12435000Y-4875000D03*
X12335000Y-4875000D03*
G04 #@! TD*
G04 #@! TO.P,REF\002A\002A,*
G04 #@! TO.N,*
X25865000Y-4875000D03*
X25965000Y-4875000D03*
X25765000Y-4875000D03*
X25665000Y-4875000D03*
G04 #@! TD*
G04 #@! TO.P,REF\002A\002A,*
G04 #@! TO.N,*
X25865000Y-3570000D03*
X25965000Y-3570000D03*
X25765000Y-3570000D03*
X25665000Y-3570000D03*
G04 #@! TD*
G04 #@! TO.P,REF\002A\002A,*
G04 #@! TO.N,*
X12535000Y-3570000D03*
X12635000Y-3570000D03*
X12435000Y-3570000D03*
X12335000Y-3570000D03*
G04 #@! TD*
D11*
G04 #@! TO.P,J1,3*
G04 #@! TO.N,GND*
X4669200Y-21370100D03*
G04 #@! TO.P,J1,2*
G04 #@! TO.N,Net-(D1-Pad4)*
X4669200Y-21166900D03*
G04 #@! TO.P,J1,1*
G04 #@! TO.N,+5V*
X4669200Y-20963700D03*
G04 #@! TD*
G04 #@! TO.P,J2,3*
G04 #@! TO.N,GND*
X33676000Y-21370100D03*
G04 #@! TO.P,J2,2*
G04 #@! TO.N,Net-(D17-Pad3)*
X33676000Y-21166900D03*
G04 #@! TO.P,J2,1*
G04 #@! TO.N,+5V*
X33676000Y-20963700D03*
G04 #@! TD*
G04 #@! TO.P,J2,1*
G04 #@! TO.N,+5V*
X31924844Y-8832348D03*
G04 #@! TO.P,J2,2*
G04 #@! TO.N,Net-(D15-Pad3)*
X31924844Y-9035548D03*
G04 #@! TO.P,J2,3*
G04 #@! TO.N,GND*
X31924844Y-9238748D03*
G04 #@! TD*
G04 #@! TO.P,J1,1*
G04 #@! TO.N,+5V*
X6307420Y-8847588D03*
G04 #@! TO.P,J1,2*
G04 #@! TO.N,Net-(D1-Pad4)*
X6307420Y-9050788D03*
G04 #@! TO.P,J1,3*
G04 #@! TO.N,GND*
X6307420Y-9253988D03*
G04 #@! TD*
G04 #@! TO.P,J2,1*
G04 #@! TO.N,+5V*
X32829350Y-13327250D03*
G04 #@! TO.P,J2,2*
G04 #@! TO.N,Net-(D16-Pad3)*
X32829350Y-13530450D03*
G04 #@! TO.P,J2,3*
G04 #@! TO.N,GND*
X32829350Y-13733650D03*
G04 #@! TD*
G04 #@! TO.P,J1,1*
G04 #@! TO.N,+5V*
X5474820Y-13370176D03*
G04 #@! TO.P,J1,2*
G04 #@! TO.N,Net-(D1-Pad4)*
X5474820Y-13573376D03*
G04 #@! TO.P,J1,3*
G04 #@! TO.N,GND*
X5474820Y-13776576D03*
G04 #@! TD*
G04 #@! TO.P,J2,1*
G04 #@! TO.N,+5V*
X32858814Y-20203088D03*
G04 #@! TO.P,J2,2*
G04 #@! TO.N,Net-(D16-Pad3)*
X32858814Y-20406288D03*
G04 #@! TO.P,J2,3*
G04 #@! TO.N,GND*
X32858814Y-20609488D03*
G04 #@! TD*
G04 #@! TO.P,J1,1*
G04 #@! TO.N,+5V*
X5453992Y-20207152D03*
G04 #@! TO.P,J1,2*
G04 #@! TO.N,Net-(D1-Pad4)*
X5453992Y-20410352D03*
G04 #@! TO.P,J1,3*
G04 #@! TO.N,GND*
X5453992Y-20613552D03*
G04 #@! TD*
G04 #@! TO.P,J2,1*
G04 #@! TO.N,+5V*
X31998206Y-22486154D03*
G04 #@! TO.P,J2,2*
G04 #@! TO.N,Net-(D15-Pad3)*
X31998206Y-22689354D03*
G04 #@! TO.P,J2,3*
G04 #@! TO.N,GND*
X31998206Y-22892554D03*
G04 #@! TD*
G04 #@! TO.P,J1,1*
G04 #@! TO.N,+5V*
X6282992Y-22493012D03*
G04 #@! TO.P,J1,2*
G04 #@! TO.N,Net-(D1-Pad4)*
X6282992Y-22696212D03*
G04 #@! TO.P,J1,3*
G04 #@! TO.N,GND*
X6282992Y-22899412D03*
G04 #@! TD*
G04 #@! TO.P,J2,3*
G04 #@! TO.N,GND*
X31924744Y-6931648D03*
G04 #@! TO.P,J2,2*
G04 #@! TO.N,Net-(D15-Pad3)*
X31924744Y-6728448D03*
G04 #@! TO.P,J2,1*
G04 #@! TO.N,+5V*
X31924744Y-6525248D03*
G04 #@! TD*
G04 #@! TO.P,J1,3*
G04 #@! TO.N,GND*
X6282992Y-22137512D03*
G04 #@! TO.P,J1,2*
G04 #@! TO.N,Net-(D1-Pad4)*
X6282992Y-21934312D03*
G04 #@! TO.P,J1,1*
G04 #@! TO.N,+5V*
X6282992Y-21731112D03*
G04 #@! TD*
G04 #@! TO.P,J2,3*
G04 #@! TO.N,GND*
X32198206Y-22130654D03*
G04 #@! TO.P,J2,2*
G04 #@! TO.N,Net-(D15-Pad3)*
X32198206Y-21927454D03*
G04 #@! TO.P,J2,1*
G04 #@! TO.N,+5V*
X32198206Y-21724254D03*
G04 #@! TD*
G04 #@! TO.P,J1,3*
G04 #@! TO.N,GND*
X5474820Y-11458876D03*
G04 #@! TO.P,J1,2*
G04 #@! TO.N,Net-(D1-Pad4)*
X5474820Y-11255676D03*
G04 #@! TO.P,J1,1*
G04 #@! TO.N,+5V*
X5474820Y-11052476D03*
G04 #@! TD*
G04 #@! TO.P,J2,3*
G04 #@! TO.N,GND*
X32829350Y-11415950D03*
G04 #@! TO.P,J2,2*
G04 #@! TO.N,Net-(D16-Pad3)*
X32829350Y-11212750D03*
G04 #@! TO.P,J2,1*
G04 #@! TO.N,+5V*
X32829350Y-11009550D03*
G04 #@! TD*
G04 #@! TO.P,J1,3*
G04 #@! TO.N,GND*
X5450492Y-19855052D03*
G04 #@! TO.P,J1,2*
G04 #@! TO.N,Net-(D1-Pad4)*
X5450492Y-19651852D03*
G04 #@! TO.P,J1,1*
G04 #@! TO.N,+5V*
X5450492Y-19448652D03*
G04 #@! TD*
G04 #@! TO.P,J2,3*
G04 #@! TO.N,GND*
X32855314Y-19850988D03*
G04 #@! TO.P,J2,2*
G04 #@! TO.N,Net-(D16-Pad3)*
X32855314Y-19647788D03*
G04 #@! TO.P,J2,1*
G04 #@! TO.N,+5V*
X32855314Y-19444588D03*
G04 #@! TD*
G04 #@! TO.P,J1,3*
G04 #@! TO.N,GND*
X4774400Y-16092700D03*
G04 #@! TO.P,J1,2*
G04 #@! TO.N,Net-(D1-Pad4)*
X4774400Y-15889500D03*
G04 #@! TO.P,J1,1*
G04 #@! TO.N,+5V*
X4774400Y-15686300D03*
G04 #@! TD*
G04 #@! TO.P,J2,3*
G04 #@! TO.N,GND*
X33501800Y-16092700D03*
G04 #@! TO.P,J2,2*
G04 #@! TO.N,Net-(D17-Pad3)*
X33501800Y-15889500D03*
G04 #@! TO.P,J2,1*
G04 #@! TO.N,+5V*
X33501800Y-15686300D03*
G04 #@! TD*
G04 #@! TO.P,J1,3*
G04 #@! TO.N,GND*
X6166600Y-18253200D03*
G04 #@! TO.P,J1,2*
G04 #@! TO.N,Net-(D1-Pad4)*
X6166600Y-18050000D03*
G04 #@! TO.P,J1,1*
G04 #@! TO.N,+5V*
X6166600Y-17846800D03*
G04 #@! TD*
G04 #@! TO.P,J2,3*
G04 #@! TO.N,GND*
X32608000Y-18227800D03*
G04 #@! TO.P,J2,2*
G04 #@! TO.N,Net-(D16-Pad3)*
X32608000Y-18024600D03*
G04 #@! TO.P,J2,1*
G04 #@! TO.N,+5V*
X32608000Y-17821400D03*
G04 #@! TD*
G04 #@! TO.P,J1,3*
G04 #@! TO.N,GND*
X5651854Y-19088678D03*
G04 #@! TO.P,J1,2*
G04 #@! TO.N,Net-(D1-Pad4)*
X5651854Y-18885478D03*
G04 #@! TO.P,J1,1*
G04 #@! TO.N,+5V*
X5651854Y-18682278D03*
G04 #@! TD*
G04 #@! TO.P,J2,3*
G04 #@! TO.N,GND*
X32042200Y-19074200D03*
G04 #@! TO.P,J2,2*
G04 #@! TO.N,Net-(D16-Pad3)*
X32042200Y-18871000D03*
G04 #@! TO.P,J2,1*
G04 #@! TO.N,+5V*
X32042200Y-18667800D03*
G04 #@! TD*
G04 #@! TO.P,J2,3*
G04 #@! TO.N,GND*
X29506040Y-5538240D03*
G04 #@! TO.P,J2,2*
G04 #@! TO.N,Net-(D12-Pad3)*
X29506040Y-5335040D03*
G04 #@! TO.P,J2,1*
G04 #@! TO.N,+5V*
X29506040Y-5131840D03*
G04 #@! TD*
G04 #@! TO.P,J1,3*
G04 #@! TO.N,GND*
X8891400Y-5535440D03*
G04 #@! TO.P,J1,2*
G04 #@! TO.N,Net-(D1-Pad4)*
X8891400Y-5332240D03*
G04 #@! TO.P,J1,1*
G04 #@! TO.N,+5V*
X8891400Y-5129040D03*
G04 #@! TD*
G04 #@! TO.P,J1,3*
G04 #@! TO.N,GND*
X6307320Y-6946888D03*
G04 #@! TO.P,J1,2*
G04 #@! TO.N,Net-(D1-Pad4)*
X6307320Y-6743688D03*
G04 #@! TO.P,J1,1*
G04 #@! TO.N,+5V*
X6307320Y-6540488D03*
G04 #@! TD*
G04 #@! TO.P,J2,3*
G04 #@! TO.N,GND*
X29710260Y-4712362D03*
G04 #@! TO.P,J2,2*
G04 #@! TO.N,Net-(D12-Pad3)*
X29710260Y-4509162D03*
G04 #@! TO.P,J2,1*
G04 #@! TO.N,+5V*
X29710260Y-4305962D03*
G04 #@! TD*
G04 #@! TO.P,J1,3*
G04 #@! TO.N,GND*
X8559360Y-4719862D03*
G04 #@! TO.P,J1,2*
G04 #@! TO.N,Net-(D1-Pad4)*
X8559360Y-4516662D03*
G04 #@! TO.P,J1,1*
G04 #@! TO.N,+5V*
X8559360Y-4313462D03*
G04 #@! TD*
D12*
G04 #@! TO.N,+5V*
X10050660Y-4534562D03*
X11739760Y-4528212D03*
X13390760Y-4528212D03*
X16692760Y-4528212D03*
X15041760Y-4528212D03*
X18394560Y-4528212D03*
X20045560Y-4528212D03*
X23347560Y-4528212D03*
X21696560Y-4528212D03*
X26700360Y-4528212D03*
X25049360Y-4528212D03*
X28732360Y-4534562D03*
X10047100Y-5342400D03*
X13387200Y-5336050D03*
X16689200Y-5336050D03*
X15038200Y-5336050D03*
X18391000Y-5336050D03*
X20042000Y-5336050D03*
X23344000Y-5336050D03*
X21693000Y-5336050D03*
X26696800Y-5336050D03*
X25045800Y-5336050D03*
X28373201Y-5329700D03*
X9374000Y-5129300D03*
X10889480Y-6747244D03*
X14191480Y-6747244D03*
X12540480Y-6747244D03*
X15893280Y-6747244D03*
X17544280Y-6747244D03*
X19195280Y-6747244D03*
X24199080Y-6747244D03*
X22548080Y-6747244D03*
X25875481Y-6740894D03*
X27546800Y-6705334D03*
X9238480Y-6747244D03*
X7912600Y-6730734D03*
X21044654Y-6112752D03*
X21247854Y-6747752D03*
X7760454Y-6087352D03*
X31230054Y-6696951D03*
X31103054Y-6138152D03*
X6796016Y-6540488D03*
X29578800Y-6750800D03*
X29502600Y-6065000D03*
X10885980Y-21930756D03*
X14187980Y-21930756D03*
X15889780Y-21930756D03*
X17540780Y-21930756D03*
X19191780Y-21930756D03*
X24195580Y-21930756D03*
X22544580Y-21930756D03*
X29219700Y-21939646D03*
X27543300Y-21888846D03*
X9234980Y-21930756D03*
X7909100Y-21914246D03*
X21244354Y-21931264D03*
X6781594Y-21736700D03*
X31618775Y-21709796D03*
X31479144Y-21869936D03*
X10056980Y-11259232D03*
X13358980Y-11259232D03*
X11707980Y-11259232D03*
X15060780Y-11259232D03*
X16711780Y-11259232D03*
X18362780Y-11259232D03*
X23366580Y-11259232D03*
X21715580Y-11259232D03*
X25042981Y-11252882D03*
X28390700Y-11268122D03*
X26714300Y-11217322D03*
X8405980Y-11259232D03*
X7080100Y-11242722D03*
X31819954Y-10624740D03*
X20212154Y-10624740D03*
X20415354Y-11259740D03*
X6927954Y-10599340D03*
X30397554Y-11208939D03*
X30270554Y-10650140D03*
X5963516Y-11052476D03*
X10053480Y-19648296D03*
X13355480Y-19648296D03*
X11704480Y-19648296D03*
X15057280Y-19648296D03*
X16708280Y-19648296D03*
X18359280Y-19648296D03*
X23363080Y-19648296D03*
X21712080Y-19648296D03*
X25039481Y-19641946D03*
X28387200Y-19657186D03*
X26710800Y-19606386D03*
X8402480Y-19648296D03*
X7076600Y-19631786D03*
X20411854Y-19648804D03*
X31714854Y-19455256D03*
X32324454Y-19429856D03*
X5949094Y-19454240D03*
X30584300Y-19482216D03*
X9224480Y-15880610D03*
X12526480Y-15880610D03*
X10875480Y-15880610D03*
X14228280Y-15880610D03*
X15879280Y-15880610D03*
X19181280Y-15880610D03*
X17530280Y-15880610D03*
X22534080Y-15880610D03*
X20883080Y-15880610D03*
X24210481Y-15874260D03*
X32536600Y-15864100D03*
X27558200Y-15889500D03*
X29183800Y-15889500D03*
X25881800Y-15838700D03*
X31419000Y-15406900D03*
X31241200Y-15889500D03*
X7573480Y-15880610D03*
X6247600Y-15864100D03*
X6374600Y-15432300D03*
X10286226Y-18074892D03*
X13588226Y-18074892D03*
X11937226Y-18074892D03*
X15290026Y-18074892D03*
X16941026Y-18074892D03*
X18592026Y-18074892D03*
X23595826Y-18074892D03*
X21944826Y-18074892D03*
X25272227Y-18068542D03*
X28619946Y-18083782D03*
X26943546Y-18032982D03*
X8635226Y-18074892D03*
X7309346Y-18058382D03*
X32049200Y-17440400D03*
X20441400Y-17440400D03*
X20644600Y-18075400D03*
X7157200Y-17415000D03*
X30626800Y-18024599D03*
X30499800Y-17465800D03*
X9771226Y-18886240D03*
X13073226Y-18886240D03*
X11422226Y-18886240D03*
X14775026Y-18886240D03*
X16426026Y-18886240D03*
X18077026Y-18886240D03*
X23080826Y-18886240D03*
X21429826Y-18886240D03*
X24757227Y-18879890D03*
X28104946Y-18895130D03*
X26428546Y-18844330D03*
X8120226Y-18886240D03*
X6794346Y-18869730D03*
X20129600Y-18886748D03*
X6362800Y-18667800D03*
X30315000Y-18720206D03*
X31432600Y-18693200D03*
X10889580Y-9054344D03*
X14191580Y-9054344D03*
X12540580Y-9054344D03*
X15893380Y-9054344D03*
X17544380Y-9054344D03*
X19195380Y-9054344D03*
X24199180Y-9054344D03*
X22548180Y-9054344D03*
X25875581Y-9047994D03*
X27546900Y-9012434D03*
X9238580Y-9054344D03*
X7912700Y-9037834D03*
X21044754Y-8419852D03*
X21247954Y-9054852D03*
X7760554Y-8394452D03*
X31230154Y-9004051D03*
X31103154Y-8445252D03*
X6796116Y-8847588D03*
X29578900Y-9057900D03*
X29502700Y-8372100D03*
X8405980Y-13576932D03*
X7080100Y-13560422D03*
X31819954Y-12942440D03*
X20212154Y-12942440D03*
X20415354Y-13577440D03*
X6927954Y-12917040D03*
X30397554Y-13526639D03*
X30270554Y-12967840D03*
X5963516Y-13370176D03*
X10056980Y-13576932D03*
X13358980Y-13576932D03*
X11707980Y-13576932D03*
X15060780Y-13576932D03*
X16711780Y-13576932D03*
X18362780Y-13576932D03*
X23366580Y-13576932D03*
X21715580Y-13576932D03*
X25042981Y-13570582D03*
X28390700Y-13585822D03*
X26714300Y-13535022D03*
X10056980Y-20406796D03*
X13358980Y-20406796D03*
X11707980Y-20406796D03*
X15060780Y-20406796D03*
X16711780Y-20406796D03*
X18362780Y-20406796D03*
X23366580Y-20406796D03*
X21715580Y-20406796D03*
X25042981Y-20400446D03*
X28390700Y-20415686D03*
X26714300Y-20364886D03*
X8405980Y-20406796D03*
X7080100Y-20390286D03*
X20415354Y-20407304D03*
X31718354Y-20213756D03*
X32327954Y-20188356D03*
X5952594Y-20212740D03*
X30587800Y-20240716D03*
X10885980Y-22692656D03*
X14187980Y-22692656D03*
X15889780Y-22692656D03*
X17540780Y-22692656D03*
X19191780Y-22692656D03*
X24195580Y-22692656D03*
X22544580Y-22692656D03*
X29219700Y-22701546D03*
X27543300Y-22650746D03*
X9234980Y-22692656D03*
X7909100Y-22676146D03*
X21244354Y-22693164D03*
X6781594Y-22498600D03*
X31618775Y-22471696D03*
X31479144Y-22631836D03*
X33320400Y-21243100D03*
X31228202Y-21167662D03*
X29180200Y-21177568D03*
X27554600Y-21177568D03*
X32533000Y-21152168D03*
X24206881Y-21162328D03*
X20879480Y-21168678D03*
X22530480Y-21168678D03*
X17526680Y-21168678D03*
X19177680Y-21168678D03*
X15875680Y-21168678D03*
X14224680Y-21168678D03*
X10871880Y-21168678D03*
X9220880Y-21168678D03*
X7569880Y-21168678D03*
X5880780Y-21175028D03*
X25894134Y-21917491D03*
X25883640Y-21146760D03*
X25883500Y-22632800D03*
X11736801Y-5336050D03*
X12559176Y-21157072D03*
X12559196Y-21922685D03*
X12565486Y-22685920D03*
G04 #@! TO.N,GND*
X9570834Y-4687196D03*
X11120254Y-4527196D03*
X12826880Y-4526942D03*
X14490580Y-4529482D03*
X16164440Y-4532022D03*
X17820520Y-4532022D03*
X21158080Y-4529482D03*
X22814160Y-4526942D03*
X24490560Y-4529482D03*
X26146640Y-4532022D03*
X27815420Y-4529482D03*
X19503304Y-4527196D03*
X27767160Y-4140862D03*
X9567274Y-5495034D03*
X11116694Y-5335034D03*
X12823320Y-5334780D03*
X14487020Y-5337320D03*
X16160880Y-5339860D03*
X17816960Y-5339860D03*
X19485740Y-5337320D03*
X21154520Y-5337320D03*
X22810600Y-5334780D03*
X24487000Y-5337320D03*
X26143080Y-5339860D03*
X27811860Y-5337320D03*
X11989300Y-6748514D03*
X13663160Y-6751054D03*
X15319240Y-6751054D03*
X16988020Y-6748514D03*
X18656800Y-6748514D03*
X20312880Y-6745974D03*
X23645360Y-6751054D03*
X25314140Y-6748514D03*
X26835600Y-6707874D03*
X28639000Y-6730734D03*
X10325600Y-6745974D03*
X8700000Y-6756134D03*
X20485854Y-6138152D03*
X22060654Y-6747752D03*
X7252454Y-6214352D03*
X30544254Y-6138152D03*
X6762996Y-6943332D03*
X28842200Y-6090400D03*
X30391600Y-6750800D03*
X11985800Y-21932026D03*
X13659660Y-21934566D03*
X15315740Y-21934566D03*
X16984520Y-21932026D03*
X18653300Y-21932026D03*
X23641860Y-21934566D03*
X25310640Y-21932026D03*
X26832100Y-21891386D03*
X28635500Y-21914246D03*
X10322100Y-21929486D03*
X8696500Y-21939646D03*
X22057154Y-21931264D03*
X6761274Y-22061820D03*
X20253960Y-21874066D03*
X31645908Y-22063344D03*
X30732016Y-22092554D03*
X11156800Y-11260502D03*
X12830660Y-11263042D03*
X14486740Y-11263042D03*
X16155520Y-11260502D03*
X17824300Y-11260502D03*
X19480380Y-11257962D03*
X22812860Y-11263042D03*
X24481640Y-11260502D03*
X26003100Y-11219862D03*
X27806500Y-11242722D03*
X29482900Y-11217322D03*
X9493100Y-11257962D03*
X7867500Y-11268122D03*
X31182668Y-10641758D03*
X19653354Y-10650140D03*
X21228154Y-11259740D03*
X6419954Y-10726340D03*
X29711754Y-10650140D03*
X31235754Y-11259740D03*
X5930496Y-11455320D03*
X11153300Y-19649566D03*
X12827160Y-19652106D03*
X14483240Y-19652106D03*
X16152020Y-19649566D03*
X17820800Y-19649566D03*
X19476880Y-19647026D03*
X22809360Y-19652106D03*
X24478140Y-19649566D03*
X25999600Y-19608926D03*
X27803000Y-19631786D03*
X9489600Y-19647026D03*
X7864000Y-19657186D03*
X21224654Y-19648804D03*
X31232254Y-19648804D03*
X29911454Y-19658456D03*
X32324454Y-19836256D03*
X5928774Y-19779360D03*
X5404554Y-16039594D03*
X10324300Y-15881880D03*
X11998160Y-15884420D03*
X13654240Y-15884420D03*
X15323020Y-15881880D03*
X16991800Y-15881880D03*
X18647880Y-15879340D03*
X21980360Y-15884420D03*
X23649140Y-15881880D03*
X25170600Y-15841240D03*
X26974000Y-15864100D03*
X28650400Y-15838700D03*
X30276000Y-15838700D03*
X19608000Y-16118100D03*
X20370000Y-15889500D03*
X31444400Y-16321300D03*
X32054000Y-15864100D03*
X8660600Y-15879340D03*
X6400000Y-16346700D03*
X7035000Y-15889500D03*
X11386046Y-18076162D03*
X13059906Y-18078702D03*
X14715986Y-18078702D03*
X16384766Y-18076162D03*
X18053546Y-18076162D03*
X19709626Y-18073622D03*
X23042106Y-18078702D03*
X24710886Y-18076162D03*
X26232346Y-18035522D03*
X28035746Y-18058382D03*
X29712146Y-18032982D03*
X9722346Y-18073622D03*
X8096746Y-18083782D03*
X31411914Y-17457418D03*
X19882600Y-17465800D03*
X21457400Y-18075400D03*
X6649200Y-17542000D03*
X29941000Y-17465800D03*
X31465000Y-18075400D03*
X10871046Y-18887510D03*
X12544906Y-18890050D03*
X14200986Y-18890050D03*
X15869766Y-18887510D03*
X17538546Y-18887510D03*
X19194626Y-18884970D03*
X22527106Y-18890050D03*
X24195886Y-18887510D03*
X25717346Y-18846870D03*
X27520746Y-18869730D03*
X9207346Y-18884970D03*
X7581746Y-18895130D03*
X20942400Y-18886748D03*
X30950000Y-18886748D03*
X6362800Y-19048800D03*
X29629200Y-18896400D03*
X11989400Y-9055614D03*
X13663260Y-9058154D03*
X15319340Y-9058154D03*
X16988120Y-9055614D03*
X18656900Y-9055614D03*
X20312980Y-9053074D03*
X23645460Y-9058154D03*
X25314240Y-9055614D03*
X26835700Y-9014974D03*
X28639100Y-9037834D03*
X10325700Y-9053074D03*
X8700100Y-9063234D03*
X20485954Y-8445252D03*
X22060754Y-9054852D03*
X7252554Y-8521452D03*
X30544354Y-8445252D03*
X6763096Y-9250432D03*
X28842300Y-8397500D03*
X30391700Y-9057900D03*
X11156800Y-13578202D03*
X12830660Y-13580742D03*
X14486740Y-13580742D03*
X16155520Y-13578202D03*
X17824300Y-13578202D03*
X19480380Y-13575662D03*
X22812860Y-13580742D03*
X24481640Y-13578202D03*
X26003100Y-13537562D03*
X27806500Y-13560422D03*
X29482900Y-13535022D03*
X9493100Y-13575662D03*
X7867500Y-13585822D03*
X31182668Y-12959458D03*
X19653354Y-12967840D03*
X21228154Y-13577440D03*
X6419954Y-13044040D03*
X29711754Y-12967840D03*
X31235754Y-13577440D03*
X5930496Y-13773020D03*
X11156800Y-20408066D03*
X12830660Y-20410606D03*
X14486740Y-20410606D03*
X16155520Y-20408066D03*
X17824300Y-20408066D03*
X19480380Y-20405526D03*
X22812860Y-20410606D03*
X24481640Y-20408066D03*
X26003100Y-20367426D03*
X27806500Y-20390286D03*
X9493100Y-20405526D03*
X7867500Y-20415686D03*
X21228154Y-20407304D03*
X31235754Y-20407304D03*
X29914954Y-20416956D03*
X32327954Y-20594756D03*
X5932274Y-20537860D03*
X11985800Y-22693926D03*
X13659660Y-22696466D03*
X15315740Y-22696466D03*
X16984520Y-22693926D03*
X18653300Y-22693926D03*
X23641860Y-22696466D03*
X25310640Y-22693926D03*
X26832100Y-22653286D03*
X28635500Y-22676146D03*
X10322100Y-22691386D03*
X8696500Y-22701546D03*
X22057154Y-22693164D03*
X6761274Y-22823720D03*
X20253960Y-22635966D03*
X31645908Y-22825244D03*
X30732016Y-22854454D03*
X33320400Y-21116100D03*
X31974200Y-21152168D03*
X30272400Y-21126768D03*
X28646800Y-21126768D03*
X26970400Y-21152168D03*
X25167000Y-21129308D03*
X23645540Y-21169948D03*
X21976760Y-21172488D03*
X20320680Y-21169948D03*
X18644280Y-21167408D03*
X16988200Y-21169948D03*
X15319420Y-21169948D03*
X13650640Y-21172488D03*
X11994560Y-21172488D03*
X10320700Y-21169948D03*
X8657000Y-21167408D03*
X6950374Y-21167662D03*
X5400954Y-21327662D03*
G04 #@! TO.N,Net-(D12-Pad3)*
X28718559Y-4373527D03*
X27051900Y-21388200D03*
X25756499Y-21146900D03*
G04 #@! TO.N,Net-(C9-Pad1)*
X19608000Y-15914900D03*
X19608000Y-15584700D03*
G04 #@! TO.N,Net-(D3-Pad3)*
X13697850Y-22154056D03*
X12434200Y-21927950D03*
X13672450Y-22886800D03*
X12440550Y-22696300D03*
G04 #@! TO.N,Net-(D4-Pad3)*
X13682501Y-21392057D03*
X12434200Y-21165950D03*
G04 #@! TO.N,Net-(D11-Pad3)*
X27066973Y-22150200D03*
X25769200Y-21921600D03*
X27039200Y-22916058D03*
X25764913Y-22685029D03*
G04 #@! TO.N,Net-(C15-Pad1)*
X30413614Y-21966456D03*
X30911620Y-22088840D03*
X30043533Y-19812257D03*
X29581114Y-19683996D03*
X29761279Y-19050201D03*
X29298860Y-18921940D03*
X29584614Y-20442496D03*
X30047033Y-20570757D03*
X30413614Y-22728356D03*
X30911620Y-22850740D03*
G04 #@! TO.N,Net-(C16-Pad1)*
X31198165Y-19776767D03*
X31689454Y-19810856D03*
X30915911Y-19014711D03*
X31407200Y-19048800D03*
X31201665Y-20535267D03*
X31692954Y-20569356D03*
G04 #@! TO.N,Net-(D17-Pad3)*
X32943000Y-15737100D03*
X32888600Y-20947508D03*
G04 #@! TD*
D13*
G04 #@! TO.N,+5V*
X8891400Y-5129040D02*
X9373740Y-5129040D01*
X9373740Y-5129040D02*
X9374000Y-5129300D01*
D14*
X28571061Y-5131840D02*
X29506040Y-5131840D01*
X28373201Y-5329700D02*
X28571061Y-5131840D01*
D13*
X6796016Y-6540488D02*
X6307320Y-6540488D01*
X6776006Y-21731112D02*
X6781594Y-21736700D01*
X6282992Y-21731112D02*
X6776006Y-21731112D01*
X31633233Y-21724254D02*
X31618775Y-21709796D01*
X31998206Y-21724254D02*
X31633233Y-21724254D01*
D14*
X31618775Y-21730305D02*
X31479144Y-21869936D01*
X31618775Y-21709796D02*
X31618775Y-21730305D01*
D13*
X5963516Y-11052476D02*
X5474820Y-11052476D01*
X31740254Y-19429856D02*
X31714854Y-19455256D01*
X32324454Y-19429856D02*
X31740254Y-19429856D01*
X32339186Y-19444588D02*
X32855314Y-19444588D01*
X32324454Y-19429856D02*
X32339186Y-19444588D01*
X5943506Y-19448652D02*
X5949094Y-19454240D01*
X5450492Y-19448652D02*
X5943506Y-19448652D01*
X6348322Y-18682278D02*
X6362800Y-18667800D01*
X5651854Y-18682278D02*
X6348322Y-18682278D01*
X31458000Y-18667800D02*
X31432600Y-18693200D01*
X32042200Y-18667800D02*
X31458000Y-18667800D01*
X5963516Y-13370176D02*
X5474820Y-13370176D01*
X31743754Y-20188356D02*
X31718354Y-20213756D01*
X32327954Y-20188356D02*
X31743754Y-20188356D01*
X32342686Y-20203088D02*
X32858814Y-20203088D01*
X32327954Y-20188356D02*
X32342686Y-20203088D01*
X5947006Y-20207152D02*
X5952594Y-20212740D01*
X5453992Y-20207152D02*
X5947006Y-20207152D01*
X6776006Y-22493012D02*
X6781594Y-22498600D01*
X6282992Y-22493012D02*
X6776006Y-22493012D01*
X31633233Y-22486154D02*
X31618775Y-22471696D01*
X31998206Y-22486154D02*
X31633233Y-22486154D01*
D14*
X31618775Y-22492205D02*
X31479144Y-22631836D01*
X31618775Y-22471696D02*
X31618775Y-22492205D01*
D13*
G04 #@! TO.N,GND*
X9526608Y-5535700D02*
X8891660Y-5535700D01*
X8891660Y-5535700D02*
X8891400Y-5535440D01*
X9567274Y-5495034D02*
X9526608Y-5535700D01*
D14*
X28012780Y-5538240D02*
X27811860Y-5337320D01*
X29506040Y-5538240D02*
X28012780Y-5538240D01*
D13*
X6310876Y-6943332D02*
X6307320Y-6946888D01*
X6762996Y-6943332D02*
X6310876Y-6943332D01*
X6282992Y-22137512D02*
X6685582Y-22137512D01*
X6711274Y-22111820D02*
X6761274Y-22061820D01*
X6685582Y-22137512D02*
X6711274Y-22111820D01*
X31645908Y-22082356D02*
X31645908Y-22063344D01*
X31998206Y-22130654D02*
X31694206Y-22130654D01*
X31694206Y-22130654D02*
X31645908Y-22082356D01*
X5478376Y-11455320D02*
X5474820Y-11458876D01*
X5930496Y-11455320D02*
X5478376Y-11455320D01*
X32339186Y-19850988D02*
X32855314Y-19850988D01*
X32324454Y-19836256D02*
X32339186Y-19850988D01*
X32146654Y-19836256D02*
X32324454Y-19836256D01*
X31959202Y-19648804D02*
X32146654Y-19836256D01*
X31232254Y-19648804D02*
X31959202Y-19648804D01*
X5450492Y-19855052D02*
X5853082Y-19855052D01*
X5878774Y-19829360D02*
X5928774Y-19779360D01*
X5853082Y-19855052D02*
X5878774Y-19829360D01*
X5651854Y-19088678D02*
X6322922Y-19088678D01*
X6322922Y-19088678D02*
X6362800Y-19048800D01*
X31020711Y-18886748D02*
X30950000Y-18886748D01*
X31676948Y-18886748D02*
X31020711Y-18886748D01*
X31864400Y-19074200D02*
X31676948Y-18886748D01*
X32042200Y-19074200D02*
X31864400Y-19074200D01*
X6310976Y-9250432D02*
X6307420Y-9253988D01*
X6763096Y-9250432D02*
X6310976Y-9250432D01*
X5478376Y-13773020D02*
X5474820Y-13776576D01*
X5930496Y-13773020D02*
X5478376Y-13773020D01*
X32342686Y-20609488D02*
X32858814Y-20609488D01*
X32327954Y-20594756D02*
X32342686Y-20609488D01*
X32150154Y-20594756D02*
X32327954Y-20594756D01*
X31962702Y-20407304D02*
X32150154Y-20594756D01*
X31235754Y-20407304D02*
X31962702Y-20407304D01*
X5453992Y-20613552D02*
X5856582Y-20613552D01*
X5882274Y-20587860D02*
X5932274Y-20537860D01*
X5856582Y-20613552D02*
X5882274Y-20587860D01*
X6282992Y-22899412D02*
X6685582Y-22899412D01*
X6711274Y-22873720D02*
X6761274Y-22823720D01*
X6685582Y-22899412D02*
X6711274Y-22873720D01*
X31645908Y-22844256D02*
X31645908Y-22825244D01*
X31998206Y-22892554D02*
X31694206Y-22892554D01*
X31694206Y-22892554D02*
X31645908Y-22844256D01*
D14*
G04 #@! TO.N,Net-(D12-Pad3)*
X29367360Y-4242462D02*
X29291160Y-4166262D01*
X29710260Y-4509162D02*
X29532460Y-4509162D01*
X28925824Y-4166262D02*
X28768559Y-4323528D01*
X29291160Y-4166262D02*
X28925824Y-4166262D01*
X29532460Y-4509162D02*
X29367360Y-4344062D01*
X29367360Y-4344062D02*
X29367360Y-4242462D01*
X28768559Y-4323528D02*
X28718559Y-4373527D01*
X26175600Y-21273900D02*
X25883499Y-21273900D01*
X26289900Y-21388200D02*
X26175600Y-21273900D01*
X27051900Y-21388200D02*
X26289900Y-21388200D01*
X25883499Y-21273900D02*
X25756499Y-21146900D01*
G04 #@! TO.N,Net-(C9-Pad1)*
X19608000Y-15914900D02*
X19608000Y-15584700D01*
G04 #@! TO.N,Net-(D3-Pad3)*
X12783450Y-22048600D02*
X12554850Y-22048600D01*
X12888906Y-22154056D02*
X12783450Y-22048600D01*
X12554850Y-22048600D02*
X12434200Y-21927950D01*
X13697850Y-22154056D02*
X12888906Y-22154056D01*
X12535800Y-22791550D02*
X12440550Y-22696300D01*
X12751700Y-22886800D02*
X12656450Y-22791550D01*
X12656450Y-22791550D02*
X12535800Y-22791550D01*
X13672450Y-22886800D02*
X12751700Y-22886800D01*
G04 #@! TO.N,Net-(D4-Pad3)*
X12660307Y-21392057D02*
X12484200Y-21215950D01*
X12484200Y-21215950D02*
X12434200Y-21165950D01*
X13682501Y-21392057D02*
X12660307Y-21392057D01*
G04 #@! TO.N,Net-(D11-Pad3)*
X27066973Y-22150200D02*
X25997800Y-22150200D01*
X25997800Y-22150200D02*
X25819200Y-21971600D01*
X25819200Y-21971600D02*
X25769200Y-21921600D01*
X25865085Y-22785200D02*
X25764913Y-22685029D01*
X25997800Y-22785200D02*
X25865085Y-22785200D01*
X26128658Y-22916058D02*
X25997800Y-22785200D01*
X27039200Y-22916058D02*
X26128658Y-22916058D01*
G04 #@! TO.N,Net-(C15-Pad1)*
X30861620Y-22038840D02*
X30911620Y-22088840D01*
X30789236Y-21966456D02*
X30861620Y-22038840D01*
X30413614Y-21966456D02*
X30789236Y-21966456D01*
X30043533Y-19812257D02*
X29709375Y-19812257D01*
X29631113Y-19733996D02*
X29581114Y-19683996D01*
X29709375Y-19812257D02*
X29631113Y-19733996D01*
X29761279Y-19050201D02*
X29427121Y-19050201D01*
X29348859Y-18971940D02*
X29298860Y-18921940D01*
X29427121Y-19050201D02*
X29348859Y-18971940D01*
X30047033Y-20570757D02*
X29712875Y-20570757D01*
X29634613Y-20492496D02*
X29584614Y-20442496D01*
X29712875Y-20570757D02*
X29634613Y-20492496D01*
X30861620Y-22800740D02*
X30911620Y-22850740D01*
X30789236Y-22728356D02*
X30861620Y-22800740D01*
X30413614Y-22728356D02*
X30789236Y-22728356D01*
G04 #@! TO.N,Net-(C16-Pad1)*
X31655365Y-19776767D02*
X31689454Y-19810856D01*
X31198165Y-19776767D02*
X31655365Y-19776767D01*
X31373111Y-19014711D02*
X31407200Y-19048800D01*
X30915911Y-19014711D02*
X31373111Y-19014711D01*
X31658865Y-20535267D02*
X31692954Y-20569356D01*
X31201665Y-20535267D02*
X31658865Y-20535267D01*
G04 #@! TO.N,Net-(D17-Pad3)*
X32993000Y-15787100D02*
X32943000Y-15737100D01*
X33095400Y-15889500D02*
X32993000Y-15787100D01*
X33593748Y-15889500D02*
X33095400Y-15889500D01*
X33628800Y-15924552D02*
X33593748Y-15889500D01*
X32888600Y-20947508D02*
X33304208Y-20947508D01*
X33304208Y-20947508D02*
X33523600Y-21166900D01*
X33523600Y-21166900D02*
X33676000Y-21166900D01*
G04 #@! TD*
M02*
