<?xml version="1.0" encoding="utf-8"?>
<!-- Generator: Adobe Illustrator 22.1.0, SVG Export Plug-In . SVG Version: 6.00 Build 0)  -->
<svg version="1.1" xmlns="http://www.w3.org/2000/svg" xmlns:xlink="http://www.w3.org/1999/xlink" x="0px" y="0px"
	 viewBox="0 0 2276.6 1713.2" style="enable-background:new 0 0 2276.6 1713.2;" xml:space="preserve">
<style type="text/css">
	.st0{fill:#666666;}
	.st1{fill:none;stroke:#2EAEFF;stroke-miterlimit:10;}
</style>
<g id="Outline">
	<polygon class="st0" points="966.8,792 955.4,792 955.4,789.2 209.3,789.2 209.3,792 197.9,792 197.9,789.2 195.9,789.2 
		195.9,806.2 197.9,806.2 197.9,803.4 209.3,803.4 209.3,806.2 955.4,806.2 955.4,803.4 966.8,803.4 966.8,806.2 969.9,806.2 
		969.9,789.2 966.8,789.2 	"/>
	<polygon class="st0" points="179.7,746 179.7,748.9 168.3,748.9 168.3,746 165.5,746 165.5,763 168.3,763 168.3,760.2 179.7,760.2 
		179.7,763 1020.2,763 1020.2,760.2 1031.6,760.2 1031.6,763 1033.9,763 1033.9,746 1031.6,746 1031.6,748.9 1020.2,748.9 
		1020.2,746 	"/>
	<polygon class="st0" points="986.6,702.9 192.5,702.9 192.5,705.7 181.2,705.7 181.2,702.9 179.2,702.9 179.2,719.9 181.2,719.9 
		181.2,717 192.5,717 192.5,719.9 986.6,719.9 986.6,717.4 998,717.4 998,719.9 1000.4,719.9 1000.4,702.9 998,702.9 998,706 
		986.6,706 	"/>
	<polygon class="st0" points="216.2,681.3 216.2,684.2 210.2,684.2 210.2,695.5 216.2,695.5 216.2,698.3 980.9,698.3 980.9,695.5 
		989.6,695.5 989.6,684.2 980.9,684.2 980.9,681.3 	"/>
	<polygon class="st0" points="966.8,770.5 955.4,770.5 955.4,767.6 209.3,767.6 209.3,770.5 197.9,770.5 197.9,767.6 195.9,767.6 
		195.9,784.6 197.9,784.6 197.9,781.8 209.3,781.8 209.3,784.6 955.4,784.6 955.4,781.8 966.8,781.8 966.8,784.6 969.9,784.6 
		969.9,767.6 966.8,767.6 	"/>
	<polygon class="st0" points="181.1,738.6 192.4,738.6 192.4,741.5 986.5,741.5 986.5,739 997.9,739 997.9,741.5 1000.3,741.5 
		1000.3,724.5 997.9,724.5 997.9,727.6 986.5,727.6 986.5,724.5 192.4,724.5 192.4,727.3 181.1,727.3 181.1,724.5 179.1,724.5 
		179.1,741.5 181.1,741.5 	"/>
	<path class="st0" d="M913.3,259.8l-0.8-1.6l-1.3-1.3l-1.6-0.8l-1.7-0.3h-0.9l-0.4-0.8l-1.4-1.4l-1.8-0.9l-2-0.3h-18.3l-2,0.3
		l-1.8,0.9l-1.4,1.4l-0.4,0.8H294.2l-0.4-0.8l-1.4-1.4l-1.8-0.9l-2-0.3h-18.3l-2,0.3l-1.8,0.9l-1.4,1.4l-0.4,0.8H264l-1.7,0.3
		l-1.6,0.8l-1.3,1.3l-0.8,1.6l-0.3,1.7v31.2h5.5v-4.9h11.3v4.9h622.2v-4.9h11.3v4.9h5v-31.2L913.3,259.8z M275.1,276.5h-11.3v-5.7
		h11.3V276.5z M289.9,265.6l-0.9,1.8l-1.4,1.4l-1.8,0.9l-2,0.3h-8.5l-2-0.3l-1.8-0.9l-1.4-1.4l-0.9-1.8l-0.3-2l0.3-2l0.9-1.8
		l1.4-1.4l1.8-0.9l2-0.3h8.5l2,0.3l1.8,0.9l1.4,1.4l0.9,1.8l0.3,2L289.9,265.6z M309.4,284.3l-0.9,1.3l-1.3,0.9l-1.6,0.3l-1.6-0.3
		l-1.3-0.9l-0.9-1.3l-0.3-1.6l0.3-1.6l0.9-1.3l1.3-0.9l1.6-0.3l1.6,0.3l1.3,0.9l0.9,1.3l0.3,1.6L309.4,284.3z M591.6,284.3l-0.9,1.3
		l-1.3,0.9l-1.6,0.3l-1.6-0.3l-1.3-0.9l-0.9-1.3l-0.3-1.6l0.3-1.6l0.9-1.3l1.3-0.9l1.6-0.3l1.6,0.3l1.3,0.9l0.9,1.3l0.3,1.6
		L591.6,284.3z M866.1,286.9c-2.3,0-4.2-1.9-4.2-4.2c0-2.3,1.9-4.2,4.2-4.2c2.3,0,4.2,1.9,4.2,4.2
		C870.3,285,868.4,286.9,866.1,286.9z M896.6,270h-8.5l-2-0.3l-1.8-0.9l-1.4-1.4l-0.9-1.8l-0.3-2l0.3-2l0.9-1.8l1.4-1.4l1.8-0.9
		l2-0.3h8.5l2,0.3l1.8,0.9l1.4,1.4l0.9,1.8l0.3,2l-0.3,2l-0.9,1.8l-1.4,1.4l-1.8,0.9L896.6,270z M908.7,276.4h-11.3v-5.7h11.3V276.4
		z"/>
	<path class="st0" d="M1034.3,581.6l-0.8-1.6l-1.3-1.3l-1.6-0.8l-1.8-0.3h-0.9l-0.4-0.8l-1.4-1.4l-1.8-0.9l-2-0.3h-18.3l-2,0.3
		l-1.8,0.9l-1.4,1.4l-0.4,0.8H198.2l-0.4-0.8l-1.4-1.4l-1.8-0.9l-2-0.3h-18.3l-2,0.3l-1.8,0.9l-1.4,1.4l-0.4,0.8h-0.9l-1.7,0.3
		l-1.6,0.8l-1.3,1.3l-0.8,1.6l-0.3,1.7v42.5l0.3,1.7l0.8,1.6l1.3,1.3l1.6,0.8l1.7,0.3h0.9l0.4,0.8l1.4,1.4l1.8,0.9l2,0.3h18.3l2-0.3
		l1.8-0.9l1.4-1.4l0.4-0.8h800.3l0.4,0.8l1.4,1.4l1.8,0.9l2,0.3h18.3l2-0.3l1.8-0.9l1.4-1.4l0.4-0.8h0.9l1.8-0.3l1.6-0.8l1.3-1.3
		l0.8-1.6l0.3-1.7v-42.5L1034.3,581.6z M167.8,593.3h11.3v5.7h-11.3V593.3z M167.8,616v-5.7h11.3v5.7H167.8z M193.8,625.8l-0.9,1.8
		l-1.4,1.4l-1.8,0.9l-2,0.3h-8.5l-2-0.3l-1.8-0.9l-1.4-1.4l-0.9-1.8l-0.3-2l0.3-2l0.9-1.8l1.4-1.4l1.8-0.9l2-0.3h8.5l2,0.3l1.8,0.9
		l1.4,1.4l0.9,1.8l0.3,2L193.8,625.8z M193.8,587.5l-0.9,1.8l-1.4,1.4l-1.8,0.9l-2,0.3h-8.5l-2-0.3l-1.8-0.9l-1.4-1.4l-0.9-1.8
		l-0.3-2l0.3-2l0.9-1.8l1.4-1.4l1.8-0.9l2-0.3h8.5l2,0.3l1.8,0.9l1.4,1.4l0.9,1.8l0.3,2L193.8,587.5z M248.1,606.2l-0.9,1.3
		l-1.3,0.9l-1.6,0.3l-1.6-0.3l-1.3-0.9l-0.9-1.3l-0.3-1.6l0.3-1.6l0.9-1.3l1.3-0.9l1.6-0.3l1.6,0.3l1.3,0.9l0.9,1.3l0.3,1.6
		L248.1,606.2z M625.8,606.4l-0.9,1.3l-1.3,0.9l-1.6,0.3l-1.6-0.3l-1.3-0.9l-0.9-1.3l-0.3-1.6l0.3-1.6l0.9-1.3l1.3-0.9l1.6-0.3
		l1.6,0.3l1.3,0.9l0.9,1.3l0.3,1.6L625.8,606.4z M956.7,606.2l-0.9,1.3l-1.3,0.9l-1.6,0.3l-1.6-0.3l-1.3-0.9l-0.9-1.3l-0.3-1.6
		l0.3-1.6l0.9-1.3l1.3-0.9l1.6-0.3l1.6,0.3l1.3,0.9l0.9,1.3l0.3,1.6L956.7,606.2z M1003,583.5l0.9-1.8l1.4-1.4l1.8-0.9l2-0.3h8.5
		l2,0.3l1.8,0.9l1.4,1.4l0.9,1.8l0.3,2l-0.3,2l-0.9,1.8l-1.4,1.4l-1.8,0.9l-2,0.3h-8.5l-2-0.3l-1.8-0.9l-1.4-1.4l-0.9-1.8l-0.3-2
		L1003,583.5z M1023.6,625.8l-0.9,1.8l-1.4,1.4l-1.8,0.9l-2,0.3h-8.5l-2-0.3l-1.8-0.9l-1.4-1.4l-0.9-1.8l-0.3-2l0.3-2l0.9-1.8
		l1.4-1.4l1.8-0.9l2-0.3h8.5l2,0.3l1.8,0.9l1.4,1.4l0.9,1.8l0.3,2L1023.6,625.8z M1029,616h-11.3v-5.7h11.3V616z M1029,599h-11.3
		v-5.7h11.3V599z"/>
	<path class="st0" d="M1018.4,516.3l-0.8-1.6l-1.3-1.3l-1.6-0.8l-1.7-0.3h-0.9l-0.4-0.8l-1.4-1.4l-1.8-0.9l-2-0.3h-18.3l-2,0.3
		l-1.8,0.9l-1.4,1.4l-0.4,0.8H218.8l-0.4-0.8l-1.4-1.4l-1.8-0.9l-2-0.3H195l-2,0.3l-1.8,0.9l-1.4,1.4l-0.4,0.8h-0.9l-1.8,0.3
		l-1.6,0.8l-1.3,1.3l-0.8,1.6l-0.3,1.8v42.5l0.3,1.7l0.8,1.6l1.3,1.3l1.6,0.8l1.8,0.3h0.9l0.4,0.8l1.4,1.4l1.8,0.9l2,0.3h18.3l2-0.3
		l1.8-0.9l1.4-1.4l0.4-0.8h763.9l0.4,0.8l1.4,1.4l1.8,0.9l2,0.3h18.3l2-0.3l1.8-0.9l1.4-1.4l0.4-0.8h0.9l1.7-0.3l1.6-0.8l1.3-1.3
		l0.8-1.6l0.3-1.7v-42.5L1018.4,516.3z M188.2,528h11.3v5.7h-11.3V528z M188.2,550.7V545h11.3v5.7H188.2z M214.4,560.4l-0.9,1.8
		l-1.4,1.4l-1.8,0.9l-2,0.3h-8.5l-2-0.3l-1.8-0.9l-1.4-1.4l-0.9-1.8l-0.3-2l0.3-2l0.9-1.8l1.4-1.4l1.8-0.9l2-0.3h8.5l2,0.3l1.8,0.9
		l1.4,1.4l0.9,1.8l0.3,2L214.4,560.4z M214.4,522.2l-0.9,1.8l-1.4,1.4l-1.8,0.9l-2,0.3h-8.5l-2-0.3l-1.8-0.9l-1.4-1.4l-0.9-1.8
		l-0.3-2l0.3-2l0.9-1.8l1.4-1.4l1.8-0.9l2-0.3h8.5l2,0.3l1.8,0.9l1.4,1.4l0.9,1.8l0.3,2L214.4,522.2z M273.9,540.9l-0.9,1.3
		l-1.3,0.9l-1.6,0.3l-1.6-0.3l-1.3-0.9l-0.9-1.3l-0.3-1.6l0.3-1.6l0.9-1.3l1.3-0.9l1.6-0.3l1.6,0.3l1.3,0.9l0.9,1.3l0.3,1.6
		L273.9,540.9z M652.4,541l-0.9,1.3l-1.3,0.9l-1.6,0.3l-1.6-0.3l-1.3-0.9l-0.9-1.3l-0.3-1.6l0.3-1.6l0.9-1.3l1.3-0.9l1.6-0.3
		l1.6,0.3l1.3,0.9l0.9,1.3l0.3,1.6L652.4,541z M935.4,540.9l-0.9,1.3l-1.3,0.9l-1.6,0.3l-1.6-0.3l-1.3-0.9l-0.9-1.3l-0.3-1.6
		l0.3-1.6l0.9-1.3l1.3-0.9l1.6-0.3l1.6,0.3l1.3,0.9l0.9,1.3l0.3,1.6L935.4,540.9z M987.1,518.2l0.9-1.8l1.4-1.4l1.8-0.9l2-0.3h8.5
		l2,0.3l1.8,0.9l1.4,1.4l0.9,1.8l0.3,2l-0.3,2l-0.9,1.8l-1.4,1.4l-1.8,0.9l-2,0.3h-8.5l-2-0.3l-1.8-0.9l-1.4-1.4l-0.9-1.8l-0.3-2
		L987.1,518.2z M1007.7,560.4l-0.9,1.8l-1.4,1.4l-1.8,0.9l-2,0.3h-8.5l-2-0.3l-1.8-0.9l-1.4-1.4l-0.9-1.8l-0.3-2l0.3-2l0.9-1.8
		l1.4-1.4l1.8-0.9l2-0.3h8.5l2,0.3l1.8,0.9l1.4,1.4l0.9,1.8l0.3,2L1007.7,560.4z M1013.1,550.7h-11.3V545h11.3V550.7z M1013.1,533.6
		h-11.3V528h11.3V533.6z"/>
	<path class="st0" d="M992.3,388l-0.8-1.6l-1.3-1.3l-1.6-0.8l-1.8-0.3H986l-0.4-0.8l-1.4-1.4l-1.8-0.9l-2-0.3h-18.3l-2,0.3l-1.8,0.9
		l-1.4,1.4l-0.4,0.8H246l-0.4-0.8l-1.4-1.4l-1.8-0.9l-2-0.3h-18.3l-2,0.3l-1.8,0.9l-1.4,1.4l-0.4,0.8h-0.9l-1.8,0.3l-1.6,0.8
		l-1.3,1.3l-0.8,1.6l-0.3,1.8v42.5l0.3,1.8l0.8,1.6l1.3,1.3l1.6,0.8l1.8,0.3h0.9l0.4,0.8l1.4,1.4l1.8,0.9l2,0.3h18.3l2-0.3l1.8-0.9
		l1.4-1.4l0.4-0.8h710.6l0.4,0.8l1.4,1.4l1.8,0.9l2,0.3h18.3l2-0.3l1.8-0.9l1.4-1.4l0.4-0.8h0.9l1.8-0.3l1.6-0.8l1.3-1.3l0.8-1.6
		l0.3-1.8v-42.5L992.3,388z M215.3,399.7h11.3v5.7h-11.3V399.7z M215.3,422.4v-5.7h11.3v5.7H215.3z M241.6,432.2l-0.9,1.8l-1.4,1.4
		l-1.8,0.9l-2,0.3h-8.5l-2-0.3l-1.8-0.9l-1.4-1.4l-0.9-1.8l-0.3-2l0.3-2l0.9-1.8l1.4-1.4l1.8-0.9l2-0.3h8.5l2,0.3l1.8,0.9l1.4,1.4
		l0.9,1.8l0.3,2L241.6,432.2z M241.6,393.9l-0.9,1.8l-1.4,1.4l-1.8,0.9l-2,0.3h-8.5l-2-0.3l-1.8-0.9l-1.4-1.4l-0.9-1.8l-0.3-2l0.3-2
		l0.9-1.8l1.4-1.4l1.8-0.9l2-0.3h8.5l2,0.3l1.8,0.9l1.4,1.4l0.9,1.8l0.3,2L241.6,393.9z M298,412.6l-0.9,1.3l-1.3,0.9l-1.6,0.3
		l-1.6-0.3l-1.3-0.9l-0.9-1.3L290,411l0.3-1.6l0.9-1.3l1.3-0.9l1.6-0.3l1.6,0.3l1.3,0.9l0.9,1.3l0.3,1.6L298,412.6z M676.2,412.8
		l-0.9,1.3L674,415l-1.6,0.3l-1.6-0.3l-1.3-0.9l-0.9-1.3l-0.3-1.6l0.3-1.6l0.9-1.3l1.3-0.9l1.6-0.3l1.6,0.3l1.3,0.9l0.9,1.3l0.3,1.6
		L676.2,412.8z M912.4,412.8l-0.9,1.3l-1.3,0.9l-1.6,0.3l-1.6-0.3l-1.3-0.9l-0.9-1.3l-0.3-1.6l0.3-1.6l0.9-1.3l1.3-0.9l1.6-0.3
		l1.6,0.3l1.3,0.9l0.9,1.3l0.3,1.6L912.4,412.8z M961,390l0.9-1.8l1.4-1.4l1.8-0.9l2-0.3h8.5l2,0.3l1.8,0.9l1.4,1.4l0.9,1.8l0.3,2
		l-0.3,2l-0.9,1.8l-1.4,1.4l-1.8,0.9l-2,0.3h-8.5l-2-0.3l-1.8-0.9l-1.4-1.4l-0.9-1.8l-0.3-2L961,390z M981.6,432.2l-0.9,1.8
		l-1.4,1.4l-1.8,0.9l-2,0.3h-8.5l-2-0.3l-1.8-0.9l-1.4-1.4l-0.9-1.8l-0.3-2l0.3-2l0.9-1.8l1.4-1.4l1.8-0.9l2-0.3h8.5l2,0.3l1.8,0.9
		l1.4,1.4l0.9,1.8l0.3,2L981.6,432.2z M987.6,422.1h-11.3v-5.7h11.3V422.1z M987.6,405.1h-11.3v-5.7h11.3V405.1z"/>
	<path class="st0" d="M1018.4,450.5l-0.8-1.6l-1.3-1.3l-1.6-0.8l-1.7-0.3h-0.9l-0.4-0.8l-1.4-1.4l-1.8-0.9l-2-0.3h-18.3l-2,0.3
		l-1.8,0.9l-1.4,1.4l-0.4,0.8H218.8l-0.4-0.8l-1.4-1.4l-1.8-0.9l-2-0.3H195l-2,0.3l-1.8,0.9l-1.4,1.4l-0.4,0.8h-0.9l-1.8,0.3
		l-1.6,0.8L184,449l-0.8,1.6l-0.3,1.8v42.5l0.3,1.7l0.8,1.6l1.3,1.3l1.6,0.8l1.8,0.3h0.9l0.4,0.8l1.4,1.4l1.8,0.9l2,0.3h18.3l2-0.3
		l1.8-0.9l1.4-1.4l0.4-0.8h763.9l0.4,0.8l1.4,1.4l1.8,0.9l2,0.3h18.3l2-0.3l1.8-0.9l1.4-1.4l0.4-0.8h0.9l1.7-0.3l1.6-0.8l1.3-1.3
		l0.8-1.6l0.3-1.7v-42.5L1018.4,450.5z M188.2,462.2h11.3v5.7h-11.3V462.2z M188.2,484.9v-5.7h11.3v5.7H188.2z M214.4,494.7
		l-0.9,1.8l-1.4,1.4l-1.8,0.9l-2,0.3h-8.5l-2-0.3l-1.8-0.9l-1.4-1.4l-0.9-1.8l-0.3-2l0.3-2l0.9-1.8l1.4-1.4l1.8-0.9l2-0.3h8.5l2,0.3
		l1.8,0.9l1.4,1.4l0.9,1.8l0.3,2L214.4,494.7z M214.4,456.4l-0.9,1.8l-1.4,1.4l-1.8,0.9l-2,0.3h-8.5l-2-0.3l-1.8-0.9l-1.4-1.4
		l-0.9-1.8l-0.3-2l0.3-2l0.9-1.8l1.4-1.4l1.8-0.9l2-0.3h8.5l2,0.3l1.8,0.9l1.4,1.4l0.9,1.8l0.3,2L214.4,456.4z M273.9,475.2
		l-0.9,1.3l-1.3,0.9l-1.6,0.3l-1.6-0.3l-1.3-0.9l-0.9-1.3l-0.3-1.6l0.3-1.6l0.9-1.3l1.3-0.9l1.6-0.3l1.6,0.3l1.3,0.9l0.9,1.3
		l0.3,1.6L273.9,475.2z M652.4,475.2l-0.9,1.3l-1.3,0.9l-1.6,0.3l-1.6-0.3l-1.3-0.9l-0.9-1.3l-0.3-1.6l0.3-1.6l0.9-1.3l1.3-0.9
		l1.6-0.3l1.6,0.3l1.3,0.9l0.9,1.3l0.3,1.6L652.4,475.2z M935.4,475.2l-0.9,1.3l-1.3,0.9l-1.6,0.3l-1.6-0.3l-1.3-0.9l-0.9-1.3
		l-0.3-1.6l0.3-1.6l0.9-1.3l1.3-0.9l1.6-0.3l1.6,0.3l1.3,0.9l0.9,1.3l0.3,1.6L935.4,475.2z M987.1,452.4l0.9-1.8l1.4-1.4l1.8-0.9
		l2-0.3h8.5l2,0.3l1.8,0.9l1.4,1.4l0.9,1.8l0.3,2l-0.3,2l-0.9,1.8l-1.4,1.4l-1.8,0.9l-2,0.3h-8.5l-2-0.3l-1.8-0.9l-1.4-1.4l-0.9-1.8
		l-0.3-2L987.1,452.4z M1007.7,494.7l-0.9,1.8l-1.4,1.4l-1.8,0.9l-2,0.3h-8.5l-2-0.3l-1.8-0.9l-1.4-1.4l-0.9-1.8l-0.3-2l0.3-2
		l0.9-1.8l1.4-1.4l1.8-0.9l2-0.3h8.5l2,0.3l1.8,0.9l1.4,1.4l0.9,1.8l0.3,2L1007.7,494.7z M1013.1,484.9h-11.3v-5.7h11.3V484.9z
		 M1013.1,467.9h-11.3v-5.7h11.3V467.9z"/>
	<path class="st0" d="M992.3,322.7l-0.8-1.6l-1.3-1.3l-1.6-0.8l-1.8-0.3H986l-0.4-0.8l-1.4-1.4l-1.8-0.9l-2-0.3h-18.3l-2,0.3
		l-1.8,0.9L957,318l-0.4,0.8H246l-0.4-0.8l-1.4-1.4l-1.8-0.9l-2-0.3h-18.3l-2,0.3l-1.8,0.9L217,318l-0.4,0.8h-0.9l-1.8,0.3l-1.6,0.8
		l-1.3,1.3l-0.8,1.6l-0.3,1.7V367l0.3,1.7l0.8,1.6l1.3,1.3l1.6,0.8l1.8,0.3h0.9l0.4,0.8l1.4,1.4l1.8,0.9l2,0.3h18.3l2-0.3l1.8-0.9
		l1.4-1.4l0.4-0.8h710.6l0.4,0.8l1.4,1.4l1.8,0.9l2,0.3h18.3l2-0.3l1.8-0.9l1.4-1.4l0.4-0.8h0.9l1.8-0.3l1.6-0.8l1.3-1.3l0.8-1.6
		l0.3-1.7v-42.5L992.3,322.7z M215.3,334.4h11.3v5.7h-11.3V334.4z M215.3,357.1v-5.7h11.3v5.7H215.3z M241.6,366.8l-0.9,1.8
		l-1.4,1.4l-1.8,0.9l-2,0.3h-8.5l-2-0.3l-1.8-0.9l-1.4-1.4l-0.9-1.8l-0.3-2l0.3-2l0.9-1.8l1.4-1.4l1.8-0.9l2-0.3h8.5l2,0.3l1.8,0.9
		l1.4,1.4l0.9,1.8l0.3,2L241.6,366.8z M241.6,328.6l-0.9,1.8l-1.4,1.4l-1.8,0.9l-2,0.3h-8.5l-2-0.3l-1.8-0.9l-1.4-1.4l-0.9-1.8
		l-0.3-2l0.3-2l0.9-1.8l1.4-1.4l1.8-0.9l2-0.3h8.5l2,0.3l1.8,0.9l1.4,1.4l0.9,1.8l0.3,2L241.6,328.6z M298,347.3l-0.9,1.3l-1.3,0.9
		l-1.6,0.3l-1.6-0.3l-1.3-0.9l-0.9-1.3l-0.3-1.6l0.3-1.6l0.9-1.3l1.3-0.9l1.6-0.3l1.6,0.3l1.3,0.9l0.9,1.3l0.3,1.6L298,347.3z
		 M676.2,347.5l-0.9,1.3l-1.3,0.9l-1.6,0.3l-1.6-0.3l-1.3-0.9l-0.9-1.3l-0.3-1.6l0.3-1.6l0.9-1.3l1.3-0.9l1.6-0.3l1.6,0.3l1.3,0.9
		l0.9,1.3l0.3,1.6L676.2,347.5z M912.4,347.5l-0.9,1.3l-1.3,0.9l-1.6,0.3l-1.6-0.3l-1.3-0.9l-0.9-1.3l-0.3-1.6l0.3-1.6l0.9-1.3
		l1.3-0.9l1.6-0.3l1.6,0.3l1.3,0.9l0.9,1.3l0.3,1.6L912.4,347.5z M961,324.6l0.9-1.8l1.4-1.4l1.8-0.9l2-0.3h8.5l2,0.3l1.8,0.9
		l1.4,1.4l0.9,1.8l0.3,2l-0.3,2l-0.9,1.8l-1.4,1.4l-1.8,0.9l-2,0.3h-8.5l-2-0.3l-1.8-0.9l-1.4-1.4l-0.9-1.8l-0.3-2L961,324.6z
		 M981.6,366.8l-0.9,1.8l-1.4,1.4l-1.8,0.9l-2,0.3h-8.5l-2-0.3l-1.8-0.9l-1.4-1.4l-0.9-1.8l-0.3-2l0.3-2l0.9-1.8l1.4-1.4l1.8-0.9
		l2-0.3h8.5l2,0.3l1.8,0.9l1.4,1.4l0.9,1.8l0.3,2L981.6,366.8z M987.6,356.8h-11.3v-5.7h11.3V356.8z M987.6,339.8h-11.3v-5.7h11.3
		V339.8z"/>
	<polygon class="st0" points="890.5,297.2 885.1,297.2 885.1,300.1 876.6,300.1 876.6,297.2 272.4,297.2 272.4,300.1 263.9,300.1 
		263.9,297.2 258.4,297.2 258.4,314.3 263.9,314.3 263.9,311.5 272.4,311.5 272.4,314.3 876.6,314.3 876.6,311.4 885.1,311.4 
		885.1,314.3 890.5,314.3 	"/>
	<path class="st0" d="M141.9,233v595.3h912.8V233H141.9z M1040.2,634.8l-8.9,8.9h-28.1l-1.7,1.7v36.8l-0.4,0.4H996l-1.4,1.4v9.6
		l2.4,2.4h5.7l2.7,2.7v41.1l0.4,0.4h31.2l2.3,2.3v23.8l-1.8,1.8h-59.7L975,771v38l-5.1,5.1H191.2V770h-30.9v-26.6h11.1l2.5-2.5
		v-36.6l6.2-6.2h22.7l2.3-2.3V685l-6.5-6.5v-33.2l-3.7-3.7h-33.2l-5.2-5.2v-61.2l16-16h3.7l1.4-1.4V450.2l19.8-19.8h5.7l2-2v-112
		l5.7-5.4h41.1l1.4-1.4v-62.5H919v50l-0.8,0.8h-21.7l-1,1v12.7l0.7,0.7h9.1v-2.5h89.5l2.8,2.8v115.8l2.4,2.4h11.9l12,12v115.5
		l4.8,4.8h8.9l2.4,2.4V634.8z"/>
	<path class="st0" d="M995.9,643.8l-0.8-1.6l-1.3-1.3l-1.6-0.8l-1.7-0.3h-0.9l-0.4-0.8l-1.4-1.4l-1.8-0.9l-2-0.3h-18.3l-2,0.3
		l-1.8,0.9l-1.4,1.4l-0.4,0.8H239.5l-0.4-0.8l-1.4-1.4l-1.8-0.9l-2-0.3h-18.3l-2,0.3l-1.8,0.9l-1.4,1.4l-0.4,0.8h-0.9l-1.7,0.3
		l-1.6,0.8l-1.3,1.3l-0.8,1.6l-0.3,1.8v31.2h1.4v-4.2h11.3v4.2H983v-4.9h11.3v4.9h1.8v-31.2L995.9,643.8z M216.3,661.1H205v-5.7
		h11.3V661.1z M235.2,649.6l-0.9,1.8l-1.4,1.4l-1.8,0.9l-2,0.3h-8.5l-2-0.3l-1.8-0.9l-1.4-1.4l-0.9-1.8l-0.3-2l0.3-2l0.9-1.8
		l1.4-1.4l1.8-0.9l2-0.3h8.5l2,0.3l1.8,0.9l1.4,1.4l0.9,1.8l0.3,2L235.2,649.6z M273.4,667.8l-0.4,1l-0.6,0.8l-0.8,0.7l-0.5,0.3
		l-0.6,0.2l-0.6,0.1l-0.6,0.1l-1.6-0.3l-1.3-0.9l-0.9-1.3l-0.3-1.6l0.1-1.1l0.4-1l0.6-0.8l0.8-0.7l0.5-0.3l0.6-0.2l0.6-0.1l0.6-0.1
		l1.6,0.3l1.3,0.9l0.9,1.3l0.3,1.6L273.4,667.8z M650.9,668.5l-0.9,1.3l-1.3,0.9l-1.6,0.3l-1.6-0.3l-1.3-0.9l-0.9-1.3l-0.3-1.6
		l0.3-1.6l0.9-1.3l1.3-0.9l1.6-0.3l1.6,0.3l1.3,0.9l0.9,1.3l0.3,1.6L650.9,668.5z M934.7,668.3l-0.9,1.3l-1.3,0.9l-1.6,0.3l-1.6-0.3
		l-1.3-0.9l-0.9-1.3l-0.3-1.6l0.3-1.6l0.9-1.3l1.3-0.9l1.6-0.3l1.6,0.3l1.3,0.9l0.9,1.3l0.3,1.6L934.7,668.3z M983,652.8l-1.8,0.9
		l-2,0.3h-8.5l-2-0.3l-1.8-0.9l-1.4-1.4l-0.9-1.8l-0.3-2l0.3-2l0.9-1.8l1.4-1.4l1.8-0.9l2-0.3h8.5l2,0.3l1.8,0.9l1.4,1.4l0.9,1.8
		l0.3,2l-0.3,2l-0.9,1.8L983,652.8z M994.4,659.6H983V654h11.3V659.6z"/>
	<rect x="238.5" y="659.7" class="st1" width="14.2" height="14.2"/>
	<line class="st1" x1="245.6" y1="659.7" x2="245.6" y2="673.9"/>
	<line class="st1" x1="238.5" y1="666.8" x2="252.7" y2="666.8"/>
	<rect x="319" y="275.7" class="st1" width="14.2" height="14.2"/>
	<line class="st1" x1="326.1" y1="275.7" x2="326.1" y2="289.9"/>
	<line class="st1" x1="319" y1="282.8" x2="333.2" y2="282.8"/>
	<rect x="263.5" y="338.6" class="st1" width="14.2" height="14.2"/>
	<line class="st1" x1="270.6" y1="338.6" x2="270.6" y2="352.8"/>
	<line class="st1" x1="263.5" y1="345.7" x2="277.7" y2="345.7"/>
	<rect x="263.5" y="404" class="st1" width="14.2" height="14.2"/>
	<line class="st1" x1="270.6" y1="404" x2="270.6" y2="418.1"/>
	<line class="st1" x1="263.5" y1="411.1" x2="277.7" y2="411.1"/>
	<rect x="245" y="769.1" class="st1" width="14.2" height="14.2"/>
	<line class="st1" x1="252.1" y1="769.1" x2="252.1" y2="783.2"/>
	<line class="st1" x1="245" y1="776.1" x2="259.2" y2="776.1"/>
	<rect x="245" y="790.6" class="st1" width="14.2" height="14.2"/>
	<line class="st1" x1="252.1" y1="790.6" x2="252.1" y2="804.8"/>
	<line class="st1" x1="245" y1="797.7" x2="259.2" y2="797.7"/>
	<rect x="239.4" y="466.5" class="st1" width="14.2" height="14.2"/>
	<line class="st1" x1="246.4" y1="466.5" x2="246.4" y2="480.6"/>
	<line class="st1" x1="239.4" y1="473.6" x2="253.5" y2="473.6"/>
	<rect x="239.4" y="532.2" class="st1" width="14.2" height="14.2"/>
	<line class="st1" x1="246.4" y1="532.2" x2="246.4" y2="546.4"/>
	<line class="st1" x1="239.4" y1="539.3" x2="253.5" y2="539.3"/>
	<rect x="228.3" y="704.3" class="st1" width="14.2" height="14.2"/>
	<line class="st1" x1="235.4" y1="704.3" x2="235.4" y2="718.5"/>
	<line class="st1" x1="228.3" y1="711.4" x2="242.5" y2="711.4"/>
	<rect x="228.3" y="725.9" class="st1" width="14.2" height="14.2"/>
	<line class="st1" x1="235.4" y1="725.9" x2="235.4" y2="740"/>
	<line class="st1" x1="228.3" y1="732.9" x2="242.5" y2="732.9"/>
	<rect x="213.4" y="597.6" class="st1" width="14.2" height="14.2"/>
	<line class="st1" x1="220.5" y1="597.6" x2="220.5" y2="611.7"/>
	<line class="st1" x1="213.4" y1="604.6" x2="227.5" y2="604.6"/>
	<rect x="214.6" y="747.4" class="st1" width="14.2" height="14.2"/>
	<line class="st1" x1="221.7" y1="747.4" x2="221.7" y2="761.6"/>
	<line class="st1" x1="214.6" y1="754.5" x2="228.7" y2="754.5"/>
	<rect x="230.4" y="682.7" class="st1" width="14.2" height="14.2"/>
	<line class="st1" x1="237.5" y1="682.7" x2="237.5" y2="696.9"/>
	<line class="st1" x1="230.4" y1="689.8" x2="244.6" y2="689.8"/>
	<rect x="307.4" y="298.7" class="st1" width="14.2" height="14.2"/>
	<line class="st1" x1="314.5" y1="298.7" x2="314.5" y2="312.8"/>
	<line class="st1" x1="307.4" y1="305.7" x2="321.6" y2="305.7"/>
</g>
<g id="Layer_1">
</g>
</svg>
