M48
INCH,TZ
T1C0.0197
T2C0.0236
T3C0.0500
%
G90
G05
T1
X129134Y-88760
X129134Y-89154
X129134Y-89547
X129134Y-89941
X101043Y-39390
X101437Y-39390
X101831Y-39390
X102224Y-39390
X48563Y-90512
X48957Y-90512
X49350Y-90512
X49744Y-90512
X14783Y-61949
X14783Y-62343
X14783Y-62736
X14783Y-63130
X101043Y-48051
X101437Y-48051
X101831Y-48051
X102224Y-48051
X129764Y-25965
X129764Y-26358
X129764Y-26752
X129764Y-27146
X101043Y-57205
X101437Y-57205
X101831Y-57205
X102224Y-57205
X101043Y-66260
X101437Y-66260
X101831Y-66260
X102224Y-66260
X17323Y-43740
X17323Y-44134
X17323Y-44528
X17323Y-44921
X133465Y-43740
X133465Y-44134
X133465Y-44528
X133465Y-44921
X20335Y-70591
X20335Y-70984
X20335Y-71378
X20335Y-71772
X101043Y-72539
X101437Y-72539
X101831Y-72539
X102224Y-72539
X101043Y-75531
X101437Y-75531
X101831Y-75531
X102224Y-75531
X101043Y-78524
X101437Y-78524
X101831Y-78524
X102224Y-78524
X18366Y-79764
X18366Y-80157
X18366Y-80551
X18366Y-80945
X101043Y-81535
X101437Y-81535
X101831Y-81535
X102224Y-81535
X48563Y-19193
X48957Y-19193
X49350Y-19193
X49744Y-19193
X29862Y-17165
X29862Y-17559
X29862Y-17953
X29862Y-18346
X48563Y-84528
X48957Y-84528
X49350Y-84528
X49744Y-84528
X48563Y-22205
X48957Y-22205
X49350Y-22205
X49744Y-22205
X48563Y-87520
X48957Y-87520
X49350Y-87520
X49744Y-87520
X48563Y-30315
X48957Y-30315
X49350Y-30315
X49744Y-30315
X48563Y-39390
X48957Y-39390
X49350Y-39390
X49744Y-39390
X129764Y-35020
X129764Y-35413
X129764Y-35807
X129764Y-36201
X101043Y-90512
X101437Y-90512
X101831Y-90512
X102224Y-90512
X17323Y-52874
X17323Y-53268
X17323Y-53661
X17323Y-54055
X48563Y-48051
X48957Y-48051
X49350Y-48051
X49744Y-48051
X48563Y-57205
X48957Y-57205
X49350Y-57205
X49744Y-57205
X48563Y-66260
X48957Y-66260
X49350Y-66260
X49744Y-66260
X129508Y-73760
X129508Y-74154
X129508Y-74547
X129508Y-74941
X133465Y-52894
X133465Y-53287
X133465Y-53681
X133465Y-54075
X48563Y-72539
X48957Y-72539
X49350Y-72539
X49744Y-72539
X18366Y-76772
X18366Y-77165
X18366Y-77559
X18366Y-77953
X48563Y-75531
X48957Y-75531
X49350Y-75531
X49744Y-75531
X132421Y-79783
X132421Y-80177
X132421Y-80571
X132421Y-80965
X48563Y-78524
X48957Y-78524
X49350Y-78524
X49744Y-78524
X48563Y-14055
X48957Y-14055
X49350Y-14055
X49744Y-14055
X48563Y-81535
X48957Y-81535
X49350Y-81535
X49744Y-81535
X101043Y-19823
X101437Y-19823
X101831Y-19823
X102224Y-19823
X21004Y-25965
X21004Y-26358
X21004Y-26752
X21004Y-27146
X101043Y-84528
X101437Y-84528
X101831Y-84528
X102224Y-84528
X101043Y-22815
X101437Y-22815
X101831Y-22815
X102224Y-22815
X101043Y-87520
X101437Y-87520
X101831Y-87520
X102224Y-87520
X101043Y-31870
X101437Y-31870
X101831Y-31870
X102224Y-31870
X101043Y-40551
X101437Y-40551
X101831Y-40551
X102224Y-40551
X120886Y-17146
X120886Y-17539
X120886Y-17933
X120886Y-18327
X101043Y-49705
X101437Y-49705
X101831Y-49705
X102224Y-49705
X48563Y-58760
X48957Y-58760
X49350Y-58760
X49744Y-58760
X101043Y-67402
X101437Y-67402
X101831Y-67402
X102224Y-67402
X135984Y-61929
X135984Y-62323
X135984Y-62717
X135984Y-63110
X135689Y-82736
X135689Y-83130
X135689Y-83524
X135689Y-83917
X101043Y-73169
X101437Y-73169
X101831Y-73169
X102224Y-73169
X21004Y-35039
X21004Y-35433
X21004Y-35827
X21004Y-36220
X20650Y-73760
X20650Y-74154
X20650Y-74547
X20650Y-74941
X101043Y-76161
X101437Y-76161
X101831Y-76161
X102224Y-76161
X101043Y-79173
X101437Y-79173
X101831Y-79173
X102224Y-79173
X101043Y-14055
X101437Y-14055
X101831Y-14055
X102224Y-14055
X130394Y-70650
X130394Y-71043
X130394Y-71437
X130394Y-71831
X31476Y-20433
X31476Y-20827
X31476Y-21220
X31476Y-21614
X21654Y-88740
X21654Y-89134
X21654Y-89528
X21654Y-89921
X101043Y-82146
X101437Y-82146
X101831Y-82146
X102224Y-82146
X48563Y-19823
X48957Y-19823
X49350Y-19823
X49744Y-19823
X21654Y-85748
X21654Y-86142
X21654Y-86535
X21654Y-86929
X48563Y-85157
X48957Y-85157
X49350Y-85157
X49744Y-85157
X48563Y-22815
X48957Y-22815
X49350Y-22815
X49744Y-22815
X48563Y-88150
X48957Y-88150
X49350Y-88150
X49744Y-88150
X48563Y-31870
X48957Y-31870
X49350Y-31870
X49744Y-31870
X129134Y-85768
X129134Y-86161
X129134Y-86555
X129134Y-86949
X48563Y-40551
X48957Y-40551
X49350Y-40551
X49744Y-40551
X119311Y-20433
X119311Y-20827
X119311Y-21220
X119311Y-21614
X48563Y-49705
X48957Y-49705
X49350Y-49705
X49744Y-49705
X101043Y-58760
X101437Y-58760
X101831Y-58760
X102224Y-58760
X48563Y-67402
X48957Y-67402
X49350Y-67402
X49744Y-67402
X101043Y-88150
X101437Y-88150
X101831Y-88150
X102224Y-88150
X48563Y-73169
X48957Y-73169
X49350Y-73169
X49744Y-73169
X48563Y-76161
X48957Y-76161
X49350Y-76161
X49744Y-76161
X132421Y-76772
X132421Y-77165
X132421Y-77559
X132421Y-77953
X48563Y-79173
X48957Y-79173
X49350Y-79173
X49744Y-79173
X101043Y-19193
X101437Y-19193
X101831Y-19193
X102224Y-19193
X48563Y-82146
X48957Y-82146
X49350Y-82146
X49744Y-82146
X101043Y-22205
X101437Y-22205
X101831Y-22205
X102224Y-22205
X15079Y-82776
X15079Y-83169
X15079Y-83563
X15079Y-83957
X101043Y-85157
X101437Y-85157
X101831Y-85157
X102224Y-85157
X101043Y-30315
X101437Y-30315
X101831Y-30315
X102224Y-30315
T2
X21264Y-83967
X21278Y-63148
X23153Y-83366
X23342Y-77871
X23348Y-45100
X23348Y-54224
X23355Y-80858
X23422Y-76591
X23435Y-79578
X23478Y-43514
X23478Y-52638
X24597Y-62457
X25050Y-73495
X25050Y-74995
X25097Y-60757
X25197Y-64357
X25275Y-42230
X25275Y-51354
X26178Y-69063
X26619Y-86858
X26619Y-89857
X26626Y-27336
X26626Y-36419
X26699Y-85578
X26699Y-88577
X26749Y-74290
X26756Y-25750
X26756Y-34833
X27275Y-41730
X27275Y-50854
X27364Y-83337
X27697Y-62557
X27861Y-77290
X27874Y-44263
X27874Y-53387
X27874Y-80277
X28178Y-68563
X28553Y-24466
X28553Y-33549
X28777Y-71096
X29803Y-83341
X29817Y-62522
X29849Y-74390
X30553Y-23966
X30553Y-33049
X30961Y-77390
X30974Y-44363
X30974Y-53487
X30974Y-80377
X31138Y-86277
X31138Y-89276
X31152Y-26499
X31152Y-35582
X31877Y-71196
X31969Y-74355
X33081Y-77355
X33094Y-44328
X33094Y-53452
X33094Y-80342
X33997Y-71161
X34083Y-83336
X34097Y-62517
X34238Y-86377
X34238Y-89376
X34252Y-26599
X34252Y-35682
X36249Y-74350
X36303Y-83341
X36317Y-62522
X36358Y-86342
X36358Y-89341
X36372Y-26564
X36372Y-35647
X36906Y-20194
X37361Y-77350
X37374Y-44323
X37374Y-53447
X37374Y-80337
X37666Y-21634
X37680Y-18454
X38277Y-71156
X38469Y-74355
X39556Y-21033
X39570Y-17853
X39581Y-77355
X39594Y-44328
X39594Y-53452
X39594Y-80342
X40497Y-71161
X40633Y-83346
X40638Y-86337
X40638Y-89336
X40647Y-62527
X40652Y-26559
X40652Y-35642
X42799Y-74360
X42803Y-83341
X42817Y-62522
X42858Y-86342
X42858Y-89341
X42872Y-26564
X42872Y-35647
X43767Y-21004
X43781Y-17824
X43911Y-77360
X43924Y-44333
X43924Y-53457
X43924Y-80347
X44827Y-71166
X44969Y-74355
X46081Y-77355
X46094Y-44328
X46094Y-53452
X46094Y-80342
X46208Y-21008
X46220Y-17828
X46997Y-71161
X47188Y-86347
X47188Y-89346
X47202Y-26569
X47202Y-35652
X47223Y-83356
X47237Y-62537
X48954Y-83331
X48954Y-86331
X48979Y-89356
X49317Y-62522
X49372Y-26564
X49372Y-35647
X49389Y-74370
X49446Y-83296
X49446Y-86310
X49470Y-89315
X50486Y-21003
X50500Y-17823
X50501Y-77370
X50514Y-44343
X50514Y-53467
X50514Y-80357
X51417Y-71176
X51469Y-74355
X52581Y-77355
X52594Y-44328
X52594Y-53452
X52594Y-80342
X52706Y-21008
X52720Y-17828
X53497Y-71161
X53743Y-83356
X53757Y-62537
X53778Y-86357
X53778Y-89356
X53792Y-26579
X53792Y-35662
X53829Y-90106
X53868Y-84221
X53929Y-87221
X55858Y-86342
X55858Y-89341
X55872Y-26564
X55872Y-35647
X55909Y-74370
X56003Y-83341
X56017Y-62522
X57021Y-77370
X57034Y-44343
X57034Y-53467
X57034Y-80357
X57036Y-21013
X57050Y-17833
X57937Y-71176
X58169Y-74355
X59206Y-21008
X59220Y-17828
X59281Y-77355
X59294Y-44328
X59294Y-53452
X59294Y-80342
X60197Y-71161
X60298Y-86357
X60298Y-89356
X60312Y-26579
X60312Y-35662
X60313Y-83346
X60327Y-62527
X62479Y-74360
X62503Y-83341
X62517Y-62522
X62558Y-86342
X62558Y-89341
X62572Y-26564
X62572Y-35647
X63591Y-77360
X63604Y-44333
X63604Y-53457
X63604Y-80347
X63626Y-21023
X63640Y-17843
X64507Y-71166
X64669Y-74355
X65706Y-21008
X65720Y-17828
X65781Y-77355
X65794Y-44328
X65794Y-53452
X65794Y-80342
X66697Y-71161
X66868Y-86347
X66868Y-89346
X66882Y-26569
X66882Y-35652
X66883Y-83346
X66897Y-62527
X69003Y-83341
X69017Y-62522
X69049Y-74360
X69058Y-86342
X69058Y-89341
X69072Y-26564
X69072Y-35647
X70146Y-21023
X70160Y-17843
X70161Y-77360
X70174Y-44333
X70174Y-53457
X70174Y-80347
X71077Y-71166
X71169Y-74355
X72281Y-77355
X72294Y-44328
X72294Y-53452
X72294Y-80342
X72406Y-21008
X72420Y-17828
X73197Y-71161
X73403Y-83336
X73417Y-62517
X73438Y-86347
X73438Y-89346
X73452Y-26569
X73452Y-35652
X75503Y-83341
X75517Y-62522
X75558Y-86342
X75558Y-89341
X75569Y-74350
X75572Y-26564
X75572Y-35647
X76681Y-77350
X76694Y-44323
X76694Y-53447
X76694Y-80337
X76716Y-21013
X76785Y-17824
X77197Y-61357
X77197Y-62657
X77197Y-63457
X77375Y-41930
X77375Y-51054
X77597Y-71156
X78278Y-68763
X78906Y-21008
X78920Y-17828
X79250Y-74357
X79575Y-41830
X79575Y-50954
X79740Y-86118
X79740Y-89118
X79972Y-26559
X79972Y-35642
X80003Y-83346
X80197Y-62557
X80362Y-77357
X80375Y-44330
X80375Y-53454
X80375Y-80344
X80478Y-68663
X80653Y-24166
X80653Y-33249
X81278Y-71163
X82203Y-83341
X82217Y-62522
X82450Y-74357
X82853Y-24066
X82853Y-33149
X83286Y-21013
X83300Y-17833
X83562Y-77357
X83575Y-44330
X83575Y-53454
X83575Y-80344
X83639Y-86344
X83639Y-89343
X83653Y-26566
X83653Y-35649
X84369Y-74355
X84478Y-71163
X85406Y-21008
X85420Y-17828
X85481Y-77355
X85494Y-44328
X85494Y-53452
X85494Y-80342
X86397Y-71161
X86523Y-83356
X86537Y-62537
X86839Y-86344
X86839Y-89343
X86853Y-26566
X86853Y-35649
X88689Y-74370
X88703Y-83341
X88717Y-62522
X88758Y-86342
X88758Y-89341
X88772Y-26564
X88772Y-35647
X89801Y-77370
X89806Y-21003
X89814Y-44343
X89814Y-53467
X89814Y-80357
X89820Y-17823
X90717Y-71176
X90869Y-74355
X91906Y-21008
X91920Y-17828
X91981Y-77355
X91994Y-44328
X91994Y-53452
X91994Y-80342
X92897Y-71161
X93078Y-86357
X93078Y-89356
X93092Y-26579
X93092Y-35662
X93093Y-83346
X93107Y-62527
X95258Y-86342
X95258Y-89341
X95259Y-74360
X95272Y-26564
X95272Y-35647
X95303Y-83316
X95317Y-62497
X96371Y-77360
X96384Y-44333
X96384Y-53457
X96384Y-80347
X96406Y-21013
X96420Y-17833
X97287Y-71166
X97469Y-74330
X98581Y-77330
X98594Y-44303
X98594Y-53427
X98594Y-80317
X98606Y-21008
X98620Y-17828
X99083Y-83186
X99097Y-62367
X99497Y-71136
X99648Y-86347
X99648Y-89346
X99662Y-26569
X99662Y-35652
X101249Y-74200
X101404Y-83256
X101437Y-89311
X101454Y-86306
X101872Y-26539
X101872Y-35622
X101897Y-62357
X101904Y-89106
X101904Y-83255
X101945Y-86289
X102361Y-77200
X102374Y-44173
X102374Y-53297
X102374Y-80187
X102926Y-21023
X102940Y-17843
X103277Y-71006
X104049Y-74190
X105106Y-21008
X105120Y-17828
X105161Y-77190
X105174Y-44163
X105174Y-53287
X105174Y-80177
X105638Y-86187
X105638Y-89186
X105652Y-26409
X105652Y-35492
X106077Y-70996
X106183Y-83276
X106197Y-62457
X106454Y-90221
X106504Y-84206
X106563Y-87206
X108349Y-74290
X108438Y-86177
X108438Y-89176
X108452Y-26399
X108452Y-35482
X108483Y-83376
X108497Y-62557
X109320Y-16303
X109461Y-77290
X109474Y-44263
X109474Y-53387
X109474Y-80277
X109496Y-21013
X109510Y-17833
X110377Y-71096
X110649Y-74390
X111706Y-20983
X111761Y-77390
X111774Y-44363
X111774Y-53487
X111774Y-80377
X112677Y-71196
X112738Y-86277
X112738Y-89276
X112752Y-26499
X112752Y-35582
X112783Y-83176
X112797Y-62357
X113065Y-17219
X113120Y-17853
X113552Y-23978
X113552Y-33061
X114883Y-83376
X114897Y-62557
X115038Y-86377
X115038Y-89376
X115350Y-74496
X116074Y-44163
X116074Y-53287
X116152Y-23878
X116152Y-32961
X116452Y-26578
X116452Y-35661
X116461Y-77496
X116475Y-80482
X116650Y-74395
X116975Y-41930
X116975Y-51054
X116977Y-70996
X117170Y-75001
X117762Y-77395
X117775Y-80382
X117878Y-68763
X118282Y-78001
X118295Y-80987
X119175Y-41930
X119175Y-51054
X119183Y-83176
X119197Y-62357
X119350Y-73702
X119652Y-26578
X119652Y-35661
X119675Y-44130
X119675Y-53254
X119739Y-86482
X119739Y-89482
X120078Y-68763
X120253Y-24166
X120253Y-33249
X120411Y-76702
X120424Y-79688
X120578Y-70963
X120992Y-86979
X120992Y-89978
X121699Y-86964
X121699Y-89964
X121716Y-74861
X121850Y-74357
X122453Y-24166
X122453Y-33249
X122766Y-41897
X122766Y-51021
X122827Y-77861
X122841Y-80848
X122946Y-83337
X122953Y-26366
X122953Y-35449
X122962Y-77357
X122975Y-44330
X122975Y-53454
X122975Y-80344
X122997Y-62557
X123650Y-74995
X123669Y-68730
X123697Y-60657
X123750Y-73595
X123797Y-64257
X123878Y-71163
X123934Y-86102
X123934Y-89102
X124483Y-85472
X124483Y-88471
X124590Y-86864
X124590Y-89863
X124762Y-77995
X124775Y-80982
X124862Y-76595
X124875Y-79582
X125275Y-41830
X125275Y-50954
X125883Y-83276
X126178Y-68663
X126197Y-62457
X127262Y-76495
X127262Y-78095
X127275Y-79482
X127275Y-81082
X128083Y-83276
X128097Y-62457
X129483Y-82471
X129697Y-61957
X131183Y-83134
X131183Y-83634
T3
X126150Y-73495G85X126150Y-73495
G05
X126150Y-74295G85X126150Y-74295
G05
X126150Y-75095G85X126150Y-75095
G05
X18797Y-61757G85X18797Y-61757
G05
X18797Y-62557G85X18797Y-62557
G05
X18797Y-63357G85X18797Y-63357
G05
X125977Y-88528G85X125977Y-88528
G05
X125977Y-89328G85X125977Y-89328
G05
X125977Y-90128G85X125977Y-90128
G05
X129249Y-52469G85X129249Y-52469
G05
X129249Y-53269G85X129249Y-53269
G05
X129249Y-54069G85X129249Y-54069
G05
X132583Y-82534G85X132583Y-82534
G05
X132583Y-83334G85X132583Y-83334
G05
X132583Y-84134G85X132583Y-84134
G05
X129249Y-43345G85X129249Y-43345
G05
X129249Y-44145G85X129249Y-44145
G05
X129249Y-44945G85X129249Y-44945
G05
X24736Y-85556G85X24736Y-85556
G05
X24736Y-86356G85X24736Y-86356
G05
X24736Y-87156G85X24736Y-87156
G05
X116166Y-20204G85X116166Y-20204
G05
X116166Y-21004G85X116166Y-21004
G05
X116166Y-21804G85X116166Y-21804
G05
X24278Y-70263G85X24278Y-70263
G05
X24278Y-71063G85X24278Y-71063
G05
X24278Y-71863G85X24278Y-71863
G05
X128378Y-70163G85X128378Y-70163
G05
X128378Y-70963G85X128378Y-70963
G05
X128378Y-71763G85X128378Y-71763
G05
X129365Y-79540G85X129365Y-79540
G05
X129365Y-80340G85X129365Y-80340
G05
X129365Y-81140G85X129365Y-81140
G05
X21554Y-52638G85X21554Y-52638
G05
X21554Y-53438G85X21554Y-53438
G05
X21554Y-54238G85X21554Y-54238
G05
X126765Y-85529G85X126765Y-85529
G05
X126765Y-86329G85X126765Y-86329
G05
X126765Y-87129G85X126765Y-87129
G05
X24832Y-34833G85X24832Y-34833
G05
X24832Y-35633G85X24832Y-35633
G05
X24832Y-36433G85X24832Y-36433
G05
X24832Y-25750G85X24832Y-25750
G05
X24832Y-26550G85X24832Y-26550
G05
X24832Y-27350G85X24832Y-27350
G05
X33698Y-16982G85X33698Y-16982
G05
X33698Y-17782G85X33698Y-17782
G05
X33698Y-18582G85X33698Y-18582
G05
X125688Y-25690G85X125688Y-25690
G05
X125688Y-26490G85X125688Y-26490
G05
X125688Y-27290G85X125688Y-27290
G05
X21459Y-76569G85X21459Y-76569
G05
X21459Y-77369G85X21459Y-77369
G05
X21459Y-78169G85X21459Y-78169
G05
X131897Y-61757G85X131897Y-61757
G05
X131897Y-62557G85X131897Y-62557
G05
X131897Y-63357G85X131897Y-63357
G05
X24736Y-88555G85X24736Y-88555
G05
X24736Y-89355G85X24736Y-89355
G05
X24736Y-90155G85X24736Y-90155
G05
X22251Y-73552G85X22251Y-73552
G05
X22251Y-74352G85X22251Y-74352
G05
X22251Y-75152G85X22251Y-75152
G05
X18383Y-82534G85X18383Y-82534
G05
X18383Y-83334G85X18383Y-83334
G05
X18383Y-84134G85X18383Y-84134
G05
X21472Y-79556G85X21472Y-79556
G05
X21472Y-80356G85X21472Y-80356
G05
X21472Y-81156G85X21472Y-81156
G05
X129352Y-76553G85X129352Y-76553
G05
X129352Y-77353G85X129352Y-77353
G05
X129352Y-78153G85X129352Y-78153
G05
X116970Y-16953G85X116970Y-16953
G05
X116970Y-17753G85X116970Y-17753
G05
X116970Y-18553G85X116970Y-18553
G05
X125688Y-34773G85X125688Y-34773
G05
X125688Y-35573G85X125688Y-35573
G05
X125688Y-36373G85X125688Y-36373
G05
X21554Y-43514G85X21554Y-43514
G05
X21554Y-44314G85X21554Y-44314
G05
X21554Y-45114G85X21554Y-45114
G05
X35006Y-20193G85X35006Y-20193
G05
X35006Y-20993G85X35006Y-20993
G05
X35006Y-21793G85X35006Y-21793
G05
T0
M30
