G04 #@! TF.GenerationSoftware,KiCad,Pcbnew,(5.0.0-3-g5ebb6b6)*
G04 #@! TF.CreationDate,2019-02-22T00:56:02-08:00*
G04 #@! TF.ProjectId,Panel,50616E656C2E6B696361645F70636200,rev?*
G04 #@! TF.SameCoordinates,Original*
G04 #@! TF.FileFunction,Soldermask,Bot*
G04 #@! TF.FilePolarity,Negative*
%FSLAX45Y45*%
G04 Gerber Fmt 4.5, Leading zero omitted, Abs format (unit mm)*
G04 Created by KiCad (PCBNEW (5.0.0-3-g5ebb6b6)) date Friday, February 22, 2019 at 12:56:02 AM*
%MOMM*%
%LPD*%
G01*
G04 APERTURE LIST*
%ADD10C,0.900000*%
%ADD11O,5.480000X1.924000*%
G04 APERTURE END LIST*
D10*
G04 #@! TO.C,REF\002A\002A*
X7995000Y-5490000D03*
X7995000Y-5390000D03*
X7995000Y-5190000D03*
X7995000Y-5290000D03*
G04 #@! TD*
G04 #@! TO.C,REF\002A\002A*
X32895000Y-18835000D03*
X32895000Y-18735000D03*
X32895000Y-18935000D03*
X32895000Y-19035000D03*
G04 #@! TD*
G04 #@! TO.C,REF\002A\002A*
X7585000Y-4460000D03*
X7585000Y-4360000D03*
X7585000Y-4560000D03*
X7585000Y-4660000D03*
G04 #@! TD*
G04 #@! TO.C,REF\002A\002A*
X5335000Y-6695000D03*
X5335000Y-6595000D03*
X5335000Y-6795000D03*
X5335000Y-6895000D03*
G04 #@! TD*
G04 #@! TO.C,REF\002A\002A*
X5335000Y-9000000D03*
X5335000Y-8900000D03*
X5335000Y-9100000D03*
X5335000Y-9200000D03*
G04 #@! TD*
G04 #@! TO.C,REF\002A\002A*
X4400000Y-11210000D03*
X4400000Y-11110000D03*
X4400000Y-11310000D03*
X4400000Y-11410000D03*
G04 #@! TD*
G04 #@! TO.C,REF\002A\002A*
X4400000Y-13530000D03*
X4400000Y-13430000D03*
X4400000Y-13630000D03*
X4400000Y-13730000D03*
G04 #@! TD*
G04 #@! TO.C,REF\002A\002A*
X3755000Y-15835000D03*
X3755000Y-15735000D03*
X3755000Y-15935000D03*
X3755000Y-16035000D03*
G04 #@! TD*
G04 #@! TO.C,REF\002A\002A*
X5165000Y-18030000D03*
X5165000Y-17930000D03*
X5165000Y-18130000D03*
X5165000Y-18230000D03*
G04 #@! TD*
G04 #@! TO.C,REF\002A\002A*
X5245000Y-18835000D03*
X5245000Y-18735000D03*
X5245000Y-18935000D03*
X5245000Y-19035000D03*
G04 #@! TD*
G04 #@! TO.C,REF\002A\002A*
X4665000Y-19600000D03*
X4665000Y-19500000D03*
X4665000Y-19700000D03*
X4665000Y-19800000D03*
G04 #@! TD*
G04 #@! TO.C,REF\002A\002A*
X4665000Y-20360000D03*
X4665000Y-20260000D03*
X4665000Y-20460000D03*
X4665000Y-20560000D03*
G04 #@! TD*
G04 #@! TO.C,REF\002A\002A*
X3830000Y-21125000D03*
X3830000Y-21025000D03*
X3830000Y-21225000D03*
X3830000Y-21325000D03*
G04 #@! TD*
G04 #@! TO.C,REF\002A\002A*
X5500000Y-21880000D03*
X5500000Y-21780000D03*
X5500000Y-21980000D03*
X5500000Y-22080000D03*
G04 #@! TD*
G04 #@! TO.C,REF\002A\002A*
X5500000Y-22640000D03*
X5500000Y-22540000D03*
X5500000Y-22740000D03*
X5500000Y-22840000D03*
G04 #@! TD*
G04 #@! TO.C,REF\002A\002A*
X32800000Y-22645000D03*
X32800000Y-22545000D03*
X32800000Y-22745000D03*
X32800000Y-22845000D03*
G04 #@! TD*
G04 #@! TO.C,REF\002A\002A*
X32800000Y-21885000D03*
X32800000Y-21785000D03*
X32800000Y-21985000D03*
X32800000Y-22085000D03*
G04 #@! TD*
G04 #@! TO.C,REF\002A\002A*
X34465000Y-21115000D03*
X34465000Y-21015000D03*
X34465000Y-21215000D03*
X34465000Y-21315000D03*
G04 #@! TD*
G04 #@! TO.C,REF\002A\002A*
X33635000Y-20365000D03*
X33635000Y-20265000D03*
X33635000Y-20465000D03*
X33635000Y-20565000D03*
G04 #@! TD*
G04 #@! TO.C,REF\002A\002A*
X33635000Y-19600000D03*
X33635000Y-19500000D03*
X33635000Y-19700000D03*
X33635000Y-19800000D03*
G04 #@! TD*
G04 #@! TO.C,REF\002A\002A*
X33120000Y-18045000D03*
X33120000Y-17945000D03*
X33120000Y-18145000D03*
X33120000Y-18245000D03*
G04 #@! TD*
G04 #@! TO.C,REF\002A\002A*
X34540000Y-15830000D03*
X34540000Y-15730000D03*
X34540000Y-15930000D03*
X34540000Y-16030000D03*
G04 #@! TD*
G04 #@! TO.C,REF\002A\002A*
X33900000Y-13535000D03*
X33900000Y-13435000D03*
X33900000Y-13635000D03*
X33900000Y-13735000D03*
G04 #@! TD*
G04 #@! TO.C,REF\002A\002A*
X33900000Y-11210000D03*
X33900000Y-11110000D03*
X33900000Y-11310000D03*
X33900000Y-11410000D03*
G04 #@! TD*
G04 #@! TO.C,REF\002A\002A*
X32960000Y-8995000D03*
X32960000Y-8895000D03*
X32960000Y-9095000D03*
X32960000Y-9195000D03*
G04 #@! TD*
G04 #@! TO.C,REF\002A\002A*
X32960000Y-6695000D03*
X32960000Y-6595000D03*
X32960000Y-6795000D03*
X32960000Y-6895000D03*
G04 #@! TD*
G04 #@! TO.C,REF\002A\002A*
X30305000Y-5290000D03*
X30305000Y-5190000D03*
X30305000Y-5390000D03*
X30305000Y-5490000D03*
G04 #@! TD*
G04 #@! TO.C,REF\002A\002A*
X30705000Y-4455000D03*
X30705000Y-4355000D03*
X30705000Y-4555000D03*
X30705000Y-4655000D03*
G04 #@! TD*
G04 #@! TO.C,REF\002A\002A*
X25865000Y-22990000D03*
X25965000Y-22990000D03*
X25765000Y-22990000D03*
X25665000Y-22990000D03*
G04 #@! TD*
G04 #@! TO.C,REF\002A\002A*
X12535000Y-22990000D03*
X12635000Y-22990000D03*
X12435000Y-22990000D03*
X12335000Y-22990000D03*
G04 #@! TD*
G04 #@! TO.C,REF\002A\002A*
X25865000Y-22390000D03*
X25965000Y-22390000D03*
X25765000Y-22390000D03*
X25665000Y-22390000D03*
G04 #@! TD*
G04 #@! TO.C,REF\002A\002A*
X12535000Y-22390000D03*
X12635000Y-22390000D03*
X12435000Y-22390000D03*
X12335000Y-22390000D03*
G04 #@! TD*
G04 #@! TO.C,REF\002A\002A*
X25865000Y-22230000D03*
X25965000Y-22230000D03*
X25765000Y-22230000D03*
X25665000Y-22230000D03*
G04 #@! TD*
G04 #@! TO.C,REF\002A\002A*
X12535000Y-22230000D03*
X12635000Y-22230000D03*
X12435000Y-22230000D03*
X12335000Y-22230000D03*
G04 #@! TD*
G04 #@! TO.C,REF\002A\002A*
X25865000Y-21630000D03*
X25965000Y-21630000D03*
X25765000Y-21630000D03*
X25665000Y-21630000D03*
G04 #@! TD*
G04 #@! TO.C,REF\002A\002A*
X12535000Y-21630000D03*
X12635000Y-21630000D03*
X12435000Y-21630000D03*
X12335000Y-21630000D03*
G04 #@! TD*
G04 #@! TO.C,REF\002A\002A*
X25865000Y-21470000D03*
X25965000Y-21470000D03*
X25765000Y-21470000D03*
X25665000Y-21470000D03*
G04 #@! TD*
G04 #@! TO.C,REF\002A\002A*
X12535000Y-21470000D03*
X12635000Y-21470000D03*
X12435000Y-21470000D03*
X12335000Y-21470000D03*
G04 #@! TD*
G04 #@! TO.C,REF\002A\002A*
X12535000Y-20865000D03*
X12635000Y-20865000D03*
X12435000Y-20865000D03*
X12335000Y-20865000D03*
G04 #@! TD*
G04 #@! TO.C,REF\002A\002A*
X25865000Y-20865000D03*
X25965000Y-20865000D03*
X25765000Y-20865000D03*
X25665000Y-20865000D03*
G04 #@! TD*
G04 #@! TO.C,REF\002A\002A*
X12535000Y-20710000D03*
X12635000Y-20710000D03*
X12435000Y-20710000D03*
X12335000Y-20710000D03*
G04 #@! TD*
G04 #@! TO.C,REF\002A\002A*
X25865000Y-20710000D03*
X25965000Y-20710000D03*
X25765000Y-20710000D03*
X25665000Y-20710000D03*
G04 #@! TD*
G04 #@! TO.C,REF\002A\002A*
X12535000Y-20110000D03*
X12635000Y-20110000D03*
X12435000Y-20110000D03*
X12335000Y-20110000D03*
G04 #@! TD*
G04 #@! TO.C,REF\002A\002A*
X25865000Y-20110000D03*
X25965000Y-20110000D03*
X25765000Y-20110000D03*
X25665000Y-20110000D03*
G04 #@! TD*
G04 #@! TO.C,REF\002A\002A*
X12535000Y-19945000D03*
X12635000Y-19945000D03*
X12435000Y-19945000D03*
X12335000Y-19945000D03*
G04 #@! TD*
G04 #@! TO.C,REF\002A\002A*
X25865000Y-19945000D03*
X25965000Y-19945000D03*
X25765000Y-19945000D03*
X25665000Y-19945000D03*
G04 #@! TD*
G04 #@! TO.C,REF\002A\002A*
X12535000Y-19345000D03*
X12635000Y-19345000D03*
X12435000Y-19345000D03*
X12335000Y-19345000D03*
G04 #@! TD*
G04 #@! TO.C,REF\002A\002A*
X25865000Y-19345000D03*
X25965000Y-19345000D03*
X25765000Y-19345000D03*
X25665000Y-19345000D03*
G04 #@! TD*
G04 #@! TO.C,REF\002A\002A*
X12535000Y-19185000D03*
X12635000Y-19185000D03*
X12435000Y-19185000D03*
X12335000Y-19185000D03*
G04 #@! TD*
G04 #@! TO.C,REF\002A\002A*
X25865000Y-19185000D03*
X25965000Y-19185000D03*
X25765000Y-19185000D03*
X25665000Y-19185000D03*
G04 #@! TD*
G04 #@! TO.C,REF\002A\002A*
X12535000Y-18585000D03*
X12635000Y-18585000D03*
X12435000Y-18585000D03*
X12335000Y-18585000D03*
G04 #@! TD*
G04 #@! TO.C,REF\002A\002A*
X25865000Y-18585000D03*
X25965000Y-18585000D03*
X25765000Y-18585000D03*
X25665000Y-18585000D03*
G04 #@! TD*
G04 #@! TO.C,REF\002A\002A*
X12535000Y-18425000D03*
X12635000Y-18425000D03*
X12435000Y-18425000D03*
X12335000Y-18425000D03*
G04 #@! TD*
G04 #@! TO.C,REF\002A\002A*
X25865000Y-18425000D03*
X25965000Y-18425000D03*
X25765000Y-18425000D03*
X25665000Y-18425000D03*
G04 #@! TD*
G04 #@! TO.C,REF\002A\002A*
X12535000Y-17120000D03*
X12635000Y-17120000D03*
X12435000Y-17120000D03*
X12335000Y-17120000D03*
G04 #@! TD*
G04 #@! TO.C,REF\002A\002A*
X25865000Y-17120000D03*
X25965000Y-17120000D03*
X25765000Y-17120000D03*
X25665000Y-17120000D03*
G04 #@! TD*
G04 #@! TO.C,REF\002A\002A*
X12535000Y-16830000D03*
X12635000Y-16830000D03*
X12435000Y-16830000D03*
X12335000Y-16830000D03*
G04 #@! TD*
G04 #@! TO.C,REF\002A\002A*
X25865000Y-16830000D03*
X25965000Y-16830000D03*
X25765000Y-16830000D03*
X25665000Y-16830000D03*
G04 #@! TD*
G04 #@! TO.C,REF\002A\002A*
X25865000Y-14925000D03*
X25965000Y-14925000D03*
X25765000Y-14925000D03*
X25665000Y-14925000D03*
G04 #@! TD*
G04 #@! TO.C,REF\002A\002A*
X12535000Y-14925000D03*
X12635000Y-14925000D03*
X12435000Y-14925000D03*
X12335000Y-14925000D03*
G04 #@! TD*
G04 #@! TO.C,REF\002A\002A*
X12535000Y-14530000D03*
X12635000Y-14530000D03*
X12435000Y-14530000D03*
X12335000Y-14530000D03*
G04 #@! TD*
G04 #@! TO.C,REF\002A\002A*
X25865000Y-14530000D03*
X25965000Y-14530000D03*
X25765000Y-14530000D03*
X25665000Y-14530000D03*
G04 #@! TD*
G04 #@! TO.C,REF\002A\002A*
X12535000Y-12625000D03*
X12635000Y-12625000D03*
X12435000Y-12625000D03*
X12335000Y-12625000D03*
G04 #@! TD*
G04 #@! TO.C,REF\002A\002A*
X25865000Y-12625000D03*
X25965000Y-12625000D03*
X25765000Y-12625000D03*
X25665000Y-12625000D03*
G04 #@! TD*
G04 #@! TO.C,REF\002A\002A*
X12535000Y-12205000D03*
X12635000Y-12205000D03*
X12435000Y-12205000D03*
X12335000Y-12205000D03*
G04 #@! TD*
G04 #@! TO.C,REF\002A\002A*
X25865000Y-12205000D03*
X25965000Y-12205000D03*
X25765000Y-12205000D03*
X25665000Y-12205000D03*
G04 #@! TD*
G04 #@! TO.C,REF\002A\002A*
X12535000Y-10300000D03*
X12635000Y-10300000D03*
X12435000Y-10300000D03*
X12335000Y-10300000D03*
G04 #@! TD*
G04 #@! TO.C,REF\002A\002A*
X25865000Y-10300000D03*
X25965000Y-10300000D03*
X25765000Y-10300000D03*
X25665000Y-10300000D03*
G04 #@! TD*
G04 #@! TO.C,REF\002A\002A*
X12535000Y-10005000D03*
X12635000Y-10005000D03*
X12435000Y-10005000D03*
X12335000Y-10005000D03*
G04 #@! TD*
G04 #@! TO.C,REF\002A\002A*
X25865000Y-10005000D03*
X25965000Y-10005000D03*
X25765000Y-10005000D03*
X25665000Y-10005000D03*
G04 #@! TD*
G04 #@! TO.C,REF\002A\002A*
X12535000Y-8095000D03*
X12635000Y-8095000D03*
X12435000Y-8095000D03*
X12335000Y-8095000D03*
G04 #@! TD*
G04 #@! TO.C,REF\002A\002A*
X25865000Y-8095000D03*
X25965000Y-8095000D03*
X25765000Y-8095000D03*
X25665000Y-8095000D03*
G04 #@! TD*
G04 #@! TO.C,REF\002A\002A*
X12535000Y-7700000D03*
X12635000Y-7700000D03*
X12435000Y-7700000D03*
X12335000Y-7700000D03*
G04 #@! TD*
G04 #@! TO.C,REF\002A\002A*
X25865000Y-7700000D03*
X25965000Y-7700000D03*
X25765000Y-7700000D03*
X25665000Y-7700000D03*
G04 #@! TD*
G04 #@! TO.C,REF\002A\002A*
X12535000Y-5795000D03*
X12635000Y-5795000D03*
X12435000Y-5795000D03*
X12335000Y-5795000D03*
G04 #@! TD*
G04 #@! TO.C,REF\002A\002A*
X25865000Y-5795000D03*
X25965000Y-5795000D03*
X25765000Y-5795000D03*
X25665000Y-5795000D03*
G04 #@! TD*
G04 #@! TO.C,REF\002A\002A*
X12535000Y-5640000D03*
X12635000Y-5640000D03*
X12435000Y-5640000D03*
X12335000Y-5640000D03*
G04 #@! TD*
G04 #@! TO.C,REF\002A\002A*
X25865000Y-5640000D03*
X25965000Y-5640000D03*
X25765000Y-5640000D03*
X25665000Y-5640000D03*
G04 #@! TD*
G04 #@! TO.C,REF\002A\002A*
X12535000Y-5035000D03*
X12635000Y-5035000D03*
X12435000Y-5035000D03*
X12335000Y-5035000D03*
G04 #@! TD*
G04 #@! TO.C,REF\002A\002A*
X25865000Y-5035000D03*
X25965000Y-5035000D03*
X25765000Y-5035000D03*
X25665000Y-5035000D03*
G04 #@! TD*
G04 #@! TO.C,REF\002A\002A*
X12535000Y-4875000D03*
X12635000Y-4875000D03*
X12435000Y-4875000D03*
X12335000Y-4875000D03*
G04 #@! TD*
G04 #@! TO.C,REF\002A\002A*
X25865000Y-4875000D03*
X25965000Y-4875000D03*
X25765000Y-4875000D03*
X25665000Y-4875000D03*
G04 #@! TD*
G04 #@! TO.C,REF\002A\002A*
X25865000Y-3570000D03*
X25965000Y-3570000D03*
X25765000Y-3570000D03*
X25665000Y-3570000D03*
G04 #@! TD*
G04 #@! TO.C,REF\002A\002A*
X12535000Y-3570000D03*
X12635000Y-3570000D03*
X12435000Y-3570000D03*
X12335000Y-3570000D03*
G04 #@! TD*
D11*
G04 #@! TO.C,J1*
X4669200Y-21370100D03*
X4669200Y-21166900D03*
X4669200Y-20963700D03*
G04 #@! TD*
G04 #@! TO.C,J2*
X33676000Y-21370100D03*
X33676000Y-21166900D03*
X33676000Y-20963700D03*
G04 #@! TD*
G04 #@! TO.C,J2*
X31924844Y-8832348D03*
X31924844Y-9035548D03*
X31924844Y-9238748D03*
G04 #@! TD*
G04 #@! TO.C,J1*
X6307420Y-8847588D03*
X6307420Y-9050788D03*
X6307420Y-9253988D03*
G04 #@! TD*
G04 #@! TO.C,J2*
X32829350Y-13327250D03*
X32829350Y-13530450D03*
X32829350Y-13733650D03*
G04 #@! TD*
G04 #@! TO.C,J1*
X5474820Y-13370176D03*
X5474820Y-13573376D03*
X5474820Y-13776576D03*
G04 #@! TD*
G04 #@! TO.C,J2*
X32858814Y-20203088D03*
X32858814Y-20406288D03*
X32858814Y-20609488D03*
G04 #@! TD*
G04 #@! TO.C,J1*
X5453992Y-20207152D03*
X5453992Y-20410352D03*
X5453992Y-20613552D03*
G04 #@! TD*
G04 #@! TO.C,J2*
X31998206Y-22486154D03*
X31998206Y-22689354D03*
X31998206Y-22892554D03*
G04 #@! TD*
G04 #@! TO.C,J1*
X6282992Y-22493012D03*
X6282992Y-22696212D03*
X6282992Y-22899412D03*
G04 #@! TD*
G04 #@! TO.C,J2*
X31924744Y-6931648D03*
X31924744Y-6728448D03*
X31924744Y-6525248D03*
G04 #@! TD*
G04 #@! TO.C,J1*
X6282992Y-22137512D03*
X6282992Y-21934312D03*
X6282992Y-21731112D03*
G04 #@! TD*
G04 #@! TO.C,J2*
X32198206Y-22130654D03*
X32198206Y-21927454D03*
X32198206Y-21724254D03*
G04 #@! TD*
G04 #@! TO.C,J1*
X5474820Y-11458876D03*
X5474820Y-11255676D03*
X5474820Y-11052476D03*
G04 #@! TD*
G04 #@! TO.C,J2*
X32829350Y-11415950D03*
X32829350Y-11212750D03*
X32829350Y-11009550D03*
G04 #@! TD*
G04 #@! TO.C,J1*
X5450492Y-19855052D03*
X5450492Y-19651852D03*
X5450492Y-19448652D03*
G04 #@! TD*
G04 #@! TO.C,J2*
X32855314Y-19850988D03*
X32855314Y-19647788D03*
X32855314Y-19444588D03*
G04 #@! TD*
G04 #@! TO.C,J1*
X4774400Y-16092700D03*
X4774400Y-15889500D03*
X4774400Y-15686300D03*
G04 #@! TD*
G04 #@! TO.C,J2*
X33501800Y-16092700D03*
X33501800Y-15889500D03*
X33501800Y-15686300D03*
G04 #@! TD*
G04 #@! TO.C,J1*
X6166600Y-18253200D03*
X6166600Y-18050000D03*
X6166600Y-17846800D03*
G04 #@! TD*
G04 #@! TO.C,J2*
X32608000Y-18227800D03*
X32608000Y-18024600D03*
X32608000Y-17821400D03*
G04 #@! TD*
G04 #@! TO.C,J1*
X5651854Y-19088678D03*
X5651854Y-18885478D03*
X5651854Y-18682278D03*
G04 #@! TD*
G04 #@! TO.C,J2*
X32042200Y-19074200D03*
X32042200Y-18871000D03*
X32042200Y-18667800D03*
G04 #@! TD*
G04 #@! TO.C,J2*
X29506040Y-5538240D03*
X29506040Y-5335040D03*
X29506040Y-5131840D03*
G04 #@! TD*
G04 #@! TO.C,J1*
X8891400Y-5535440D03*
X8891400Y-5332240D03*
X8891400Y-5129040D03*
G04 #@! TD*
G04 #@! TO.C,J1*
X6307320Y-6946888D03*
X6307320Y-6743688D03*
X6307320Y-6540488D03*
G04 #@! TD*
G04 #@! TO.C,J2*
X29710260Y-4712362D03*
X29710260Y-4509162D03*
X29710260Y-4305962D03*
G04 #@! TD*
G04 #@! TO.C,J1*
X8559360Y-4719862D03*
X8559360Y-4516662D03*
X8559360Y-4313462D03*
G04 #@! TD*
M02*
