G04 #@! TF.GenerationSoftware,KiCad,Pcbnew,(5.0.0-3-g5ebb6b6)*
G04 #@! TF.CreationDate,2019-02-22T00:56:02-08:00*
G04 #@! TF.ProjectId,Panel,50616E656C2E6B696361645F70636200,rev?*
G04 #@! TF.SameCoordinates,Original*
G04 #@! TF.FileFunction,Legend,Bot*
G04 #@! TF.FilePolarity,Positive*
%FSLAX45Y45*%
G04 Gerber Fmt 4.5, Leading zero omitted, Abs format (unit mm)*
G04 Created by KiCad (PCBNEW (5.0.0-3-g5ebb6b6)) date Friday, February 22, 2019 at 12:56:02 AM*
%MOMM*%
%LPD*%
G01*
G04 APERTURE LIST*
%ADD10C,0.300000*%
%ADD11C,0.200000*%
G04 APERTURE END LIST*
D10*
X34260986Y-21158171D02*
X34160986Y-21158171D01*
X34118129Y-21315314D02*
X34260986Y-21315314D01*
X34260986Y-21015314D01*
X34118129Y-21015314D01*
X4187386Y-21158171D02*
X4087386Y-21158171D01*
X4044528Y-21315314D02*
X4187386Y-21315314D01*
X4187386Y-21015314D01*
X4044528Y-21015314D01*
D11*
X5012100Y-21116100D02*
X5012100Y-21243100D01*
X4999400Y-21382800D02*
X5126400Y-21382800D01*
X5062900Y-20900200D02*
X5062900Y-21027200D01*
X4999400Y-20963700D02*
X5126400Y-20963700D01*
X5126400Y-21179600D02*
X5012100Y-21243100D01*
X5012100Y-21116100D02*
X5126400Y-21179600D01*
X10244500Y-21103400D02*
X10244500Y-21230400D01*
X10231800Y-21370100D02*
X10358800Y-21370100D01*
X10295300Y-20925600D02*
X10295300Y-21052600D01*
X10231800Y-20989100D02*
X10358800Y-20989100D01*
X10358800Y-21166900D02*
X10244500Y-21230400D01*
X10244500Y-21103400D02*
X10358800Y-21166900D01*
X31923400Y-21090700D02*
X31923400Y-21217700D01*
X31910700Y-21357400D02*
X32037700Y-21357400D01*
X31974200Y-20912900D02*
X31974200Y-21039900D01*
X31910700Y-20976400D02*
X32037700Y-20976400D01*
X32037700Y-21154200D02*
X31923400Y-21217700D01*
X31923400Y-21090700D02*
X32037700Y-21154200D01*
D10*
X32691871Y-6729171D02*
X32649014Y-6743457D01*
X32634728Y-6757743D01*
X32620443Y-6786314D01*
X32620443Y-6829171D01*
X32634728Y-6857743D01*
X32649014Y-6872028D01*
X32677586Y-6886314D01*
X32791871Y-6886314D01*
X32791871Y-6586314D01*
X32691871Y-6586314D01*
X32663300Y-6600600D01*
X32649014Y-6614886D01*
X32634728Y-6643457D01*
X32634728Y-6672028D01*
X32649014Y-6700600D01*
X32663300Y-6714886D01*
X32691871Y-6729171D01*
X32791871Y-6729171D01*
X32320443Y-6857743D02*
X32334728Y-6872028D01*
X32377586Y-6886314D01*
X32406157Y-6886314D01*
X32449014Y-6872028D01*
X32477586Y-6843457D01*
X32491871Y-6814886D01*
X32506157Y-6757743D01*
X32506157Y-6714886D01*
X32491871Y-6657743D01*
X32477586Y-6629171D01*
X32449014Y-6600600D01*
X32406157Y-6586314D01*
X32377586Y-6586314D01*
X32334728Y-6600600D01*
X32320443Y-6614886D01*
D11*
X31543800Y-22625600D02*
X31658100Y-22689100D01*
X31658100Y-22689100D02*
X31543800Y-22752600D01*
X31531100Y-22473200D02*
X31658100Y-22473200D01*
X31531100Y-22892300D02*
X31658100Y-22892300D01*
X31543800Y-22625600D02*
X31543800Y-22752600D01*
X31594600Y-22409700D02*
X31594600Y-22536700D01*
X6639100Y-22625600D02*
X6753400Y-22689100D01*
X6753400Y-22689100D02*
X6639100Y-22752600D01*
X6626400Y-22473200D02*
X6753400Y-22473200D01*
X6626400Y-22892300D02*
X6753400Y-22892300D01*
X6639100Y-22625600D02*
X6639100Y-22752600D01*
X6689900Y-22409700D02*
X6689900Y-22536700D01*
D10*
X5878671Y-22680171D02*
X5835814Y-22694457D01*
X5821528Y-22708743D01*
X5807243Y-22737314D01*
X5807243Y-22780171D01*
X5821528Y-22808743D01*
X5835814Y-22823028D01*
X5864386Y-22837314D01*
X5978671Y-22837314D01*
X5978671Y-22537314D01*
X5878671Y-22537314D01*
X5850100Y-22551600D01*
X5835814Y-22565886D01*
X5821528Y-22594457D01*
X5821528Y-22623028D01*
X5835814Y-22651600D01*
X5850100Y-22665886D01*
X5878671Y-22680171D01*
X5978671Y-22680171D01*
X5507243Y-22808743D02*
X5521529Y-22823028D01*
X5564386Y-22837314D01*
X5592957Y-22837314D01*
X5635814Y-22823028D01*
X5664386Y-22794457D01*
X5678671Y-22765886D01*
X5692957Y-22708743D01*
X5692957Y-22665886D01*
X5678671Y-22608743D01*
X5664386Y-22580171D01*
X5635814Y-22551600D01*
X5592957Y-22537314D01*
X5564386Y-22537314D01*
X5521529Y-22551600D01*
X5507243Y-22565886D01*
X32650271Y-22680171D02*
X32607414Y-22694457D01*
X32593128Y-22708743D01*
X32578843Y-22737314D01*
X32578843Y-22780171D01*
X32593128Y-22808743D01*
X32607414Y-22823028D01*
X32635986Y-22837314D01*
X32750271Y-22837314D01*
X32750271Y-22537314D01*
X32650271Y-22537314D01*
X32621700Y-22551600D01*
X32607414Y-22565886D01*
X32593128Y-22594457D01*
X32593128Y-22623028D01*
X32607414Y-22651600D01*
X32621700Y-22665886D01*
X32650271Y-22680171D01*
X32750271Y-22680171D01*
X32278843Y-22808743D02*
X32293128Y-22823028D01*
X32335986Y-22837314D01*
X32364557Y-22837314D01*
X32407414Y-22823028D01*
X32435986Y-22794457D01*
X32450271Y-22765886D01*
X32464557Y-22708743D01*
X32464557Y-22665886D01*
X32450271Y-22608743D01*
X32435986Y-22580171D01*
X32407414Y-22551600D01*
X32364557Y-22537314D01*
X32335986Y-22537314D01*
X32293128Y-22551600D01*
X32278843Y-22565886D01*
D11*
X32416600Y-20337200D02*
X32530900Y-20400700D01*
X32530900Y-20400700D02*
X32416600Y-20464200D01*
X32403900Y-20184800D02*
X32530900Y-20184800D01*
X32403900Y-20603900D02*
X32530900Y-20603900D01*
X32416600Y-20337200D02*
X32416600Y-20464200D01*
X32467400Y-20121300D02*
X32467400Y-20248300D01*
X5759300Y-20337200D02*
X5873600Y-20400700D01*
X5873600Y-20400700D02*
X5759300Y-20464200D01*
X5746600Y-20184800D02*
X5873600Y-20184800D01*
X5746600Y-20603900D02*
X5873600Y-20603900D01*
X5759300Y-20337200D02*
X5759300Y-20464200D01*
X5810100Y-20121300D02*
X5810100Y-20248300D01*
D10*
X5012371Y-20549114D02*
X5012371Y-20249114D01*
X4940943Y-20249114D01*
X4898086Y-20263400D01*
X4869514Y-20291971D01*
X4855229Y-20320543D01*
X4840943Y-20377686D01*
X4840943Y-20420543D01*
X4855229Y-20477686D01*
X4869514Y-20506257D01*
X4898086Y-20534829D01*
X4940943Y-20549114D01*
X5012371Y-20549114D01*
X33434971Y-20561814D02*
X33434971Y-20261814D01*
X33363543Y-20261814D01*
X33320686Y-20276100D01*
X33292114Y-20304671D01*
X33277828Y-20333243D01*
X33263543Y-20390386D01*
X33263543Y-20433243D01*
X33277828Y-20490386D01*
X33292114Y-20518957D01*
X33320686Y-20547529D01*
X33363543Y-20561814D01*
X33434971Y-20561814D01*
D11*
X32378500Y-13473300D02*
X32492800Y-13536800D01*
X32492800Y-13536800D02*
X32378500Y-13600300D01*
X32365800Y-13320900D02*
X32492800Y-13320900D01*
X32365800Y-13740000D02*
X32492800Y-13740000D01*
X32378500Y-13473300D02*
X32378500Y-13600300D01*
X32429300Y-13257400D02*
X32429300Y-13384400D01*
X5835500Y-13511400D02*
X5949800Y-13574900D01*
X5949800Y-13574900D02*
X5835500Y-13638400D01*
X5822800Y-13359000D02*
X5949800Y-13359000D01*
X5822800Y-13778100D02*
X5949800Y-13778100D01*
X5835500Y-13511400D02*
X5835500Y-13638400D01*
X5886300Y-13295500D02*
X5886300Y-13422500D01*
D10*
X4872671Y-13723314D02*
X4872671Y-13423314D01*
X4801243Y-13423314D01*
X4758386Y-13437600D01*
X4729814Y-13466171D01*
X4715529Y-13494743D01*
X4701243Y-13551886D01*
X4701243Y-13594743D01*
X4715529Y-13651886D01*
X4729814Y-13680457D01*
X4758386Y-13709028D01*
X4801243Y-13723314D01*
X4872671Y-13723314D01*
X33574671Y-13723314D02*
X33574671Y-13423314D01*
X33503243Y-13423314D01*
X33460386Y-13437600D01*
X33431814Y-13466171D01*
X33417528Y-13494743D01*
X33403243Y-13551886D01*
X33403243Y-13594743D01*
X33417528Y-13651886D01*
X33431814Y-13680457D01*
X33460386Y-13709028D01*
X33503243Y-13723314D01*
X33574671Y-13723314D01*
D11*
X31471200Y-8969000D02*
X31585500Y-9032500D01*
X31585500Y-9032500D02*
X31471200Y-9096000D01*
X31458500Y-8816600D02*
X31585500Y-8816600D01*
X31458500Y-9235700D02*
X31585500Y-9235700D01*
X31471200Y-8969000D02*
X31471200Y-9096000D01*
X31522000Y-8753100D02*
X31522000Y-8880100D01*
X6693500Y-8994400D02*
X6807800Y-9057900D01*
X6807800Y-9057900D02*
X6693500Y-9121400D01*
X6680800Y-8842000D02*
X6807800Y-8842000D01*
X6680800Y-9261100D02*
X6807800Y-9261100D01*
X6693500Y-8994400D02*
X6693500Y-9121400D01*
X6744300Y-8778500D02*
X6744300Y-8905500D01*
D10*
X5844171Y-9048971D02*
X5801314Y-9063257D01*
X5787028Y-9077543D01*
X5772743Y-9106114D01*
X5772743Y-9148971D01*
X5787028Y-9177543D01*
X5801314Y-9191829D01*
X5829886Y-9206114D01*
X5944171Y-9206114D01*
X5944171Y-8906114D01*
X5844171Y-8906114D01*
X5815600Y-8920400D01*
X5801314Y-8934686D01*
X5787028Y-8963257D01*
X5787028Y-8991829D01*
X5801314Y-9020400D01*
X5815600Y-9034686D01*
X5844171Y-9048971D01*
X5944171Y-9048971D01*
X5472743Y-9177543D02*
X5487029Y-9191829D01*
X5529886Y-9206114D01*
X5558457Y-9206114D01*
X5601314Y-9191829D01*
X5629886Y-9163257D01*
X5644171Y-9134686D01*
X5658457Y-9077543D01*
X5658457Y-9034686D01*
X5644171Y-8977543D01*
X5629886Y-8948971D01*
X5601314Y-8920400D01*
X5558457Y-8906114D01*
X5529886Y-8906114D01*
X5487029Y-8920400D01*
X5472743Y-8934686D01*
X32691971Y-9036271D02*
X32649114Y-9050557D01*
X32634828Y-9064843D01*
X32620543Y-9093414D01*
X32620543Y-9136271D01*
X32634828Y-9164843D01*
X32649114Y-9179129D01*
X32677686Y-9193414D01*
X32791971Y-9193414D01*
X32791971Y-8893414D01*
X32691971Y-8893414D01*
X32663400Y-8907700D01*
X32649114Y-8921986D01*
X32634828Y-8950557D01*
X32634828Y-8979129D01*
X32649114Y-9007700D01*
X32663400Y-9021986D01*
X32691971Y-9036271D01*
X32791971Y-9036271D01*
X32320543Y-9164843D02*
X32334828Y-9179129D01*
X32377686Y-9193414D01*
X32406257Y-9193414D01*
X32449114Y-9179129D01*
X32477686Y-9150557D01*
X32491971Y-9121986D01*
X32506257Y-9064843D01*
X32506257Y-9021986D01*
X32491971Y-8964843D01*
X32477686Y-8936271D01*
X32449114Y-8907700D01*
X32406257Y-8893414D01*
X32377686Y-8893414D01*
X32334828Y-8907700D01*
X32320543Y-8921986D01*
D11*
X8983860Y-4242462D02*
X8983860Y-4369462D01*
X8933060Y-4458362D02*
X8933060Y-4585362D01*
X8920360Y-4725062D02*
X9047360Y-4725062D01*
X8920360Y-4305962D02*
X9047360Y-4305962D01*
X9047360Y-4521862D02*
X8933060Y-4585362D01*
X8933060Y-4458362D02*
X9047360Y-4521862D01*
X29354660Y-4242462D02*
X29354660Y-4369462D01*
X29303860Y-4458362D02*
X29303860Y-4585362D01*
X29291160Y-4725062D02*
X29418160Y-4725062D01*
X29291160Y-4305962D02*
X29418160Y-4305962D01*
X29418160Y-4521862D02*
X29303860Y-4585362D01*
X29303860Y-4458362D02*
X29418160Y-4521862D01*
D10*
X30403988Y-4558962D02*
X30261131Y-4558962D01*
X30432560Y-4644676D02*
X30332560Y-4344676D01*
X30232560Y-4644676D01*
X8039288Y-4571662D02*
X7896431Y-4571662D01*
X8067860Y-4657376D02*
X7967860Y-4357376D01*
X7867860Y-4657376D01*
D11*
X27712800Y-5053100D02*
X27712800Y-5180100D01*
X27662000Y-5269000D02*
X27662000Y-5396000D01*
X27649300Y-5535700D02*
X27776300Y-5535700D01*
X27649300Y-5116600D02*
X27776300Y-5116600D01*
X27776300Y-5332500D02*
X27662000Y-5396000D01*
X27662000Y-5269000D02*
X27776300Y-5332500D01*
X9272400Y-5053100D02*
X9272400Y-5180100D01*
X9221600Y-5269000D02*
X9221600Y-5396000D01*
X9208900Y-5535700D02*
X9335900Y-5535700D01*
X9208900Y-5116600D02*
X9335900Y-5116600D01*
X9335900Y-5332500D02*
X9221600Y-5396000D01*
X9221600Y-5269000D02*
X9335900Y-5332500D01*
D10*
X30082928Y-5395200D02*
X29940071Y-5395200D01*
X30111500Y-5480914D02*
X30011500Y-5180914D01*
X29911500Y-5480914D01*
X8353228Y-5395200D02*
X8210371Y-5395200D01*
X8381800Y-5480914D02*
X8281800Y-5180914D01*
X8181800Y-5480914D01*
D11*
X6744200Y-6471400D02*
X6744200Y-6598400D01*
X6693400Y-6687300D02*
X6693400Y-6814300D01*
X6680700Y-6954000D02*
X6807700Y-6954000D01*
X6680700Y-6534900D02*
X6807700Y-6534900D01*
X6807700Y-6750800D02*
X6693400Y-6814300D01*
X6693400Y-6687300D02*
X6807700Y-6750800D01*
X31521900Y-6446000D02*
X31521900Y-6573000D01*
X31471100Y-6661900D02*
X31471100Y-6788900D01*
X31458400Y-6928600D02*
X31585400Y-6928600D01*
X31458400Y-6509500D02*
X31585400Y-6509500D01*
X31585400Y-6725400D02*
X31471100Y-6788900D01*
X31471100Y-6661900D02*
X31585400Y-6725400D01*
D10*
X5844071Y-6741871D02*
X5801214Y-6756157D01*
X5786928Y-6770443D01*
X5772643Y-6799014D01*
X5772643Y-6841871D01*
X5786928Y-6870443D01*
X5801214Y-6884728D01*
X5829786Y-6899014D01*
X5944071Y-6899014D01*
X5944071Y-6599014D01*
X5844071Y-6599014D01*
X5815500Y-6613300D01*
X5801214Y-6627586D01*
X5786928Y-6656157D01*
X5786928Y-6684728D01*
X5801214Y-6713300D01*
X5815500Y-6727586D01*
X5844071Y-6741871D01*
X5944071Y-6741871D01*
X5472643Y-6870443D02*
X5486929Y-6884728D01*
X5529786Y-6899014D01*
X5558357Y-6899014D01*
X5601214Y-6884728D01*
X5629786Y-6856157D01*
X5644071Y-6827586D01*
X5658357Y-6770443D01*
X5658357Y-6727586D01*
X5644071Y-6670443D01*
X5629786Y-6641871D01*
X5601214Y-6613300D01*
X5558357Y-6599014D01*
X5529786Y-6599014D01*
X5486929Y-6613300D01*
X5472643Y-6627586D01*
D11*
X6689900Y-21647800D02*
X6689900Y-21774800D01*
X6639100Y-21863700D02*
X6639100Y-21990700D01*
X6626400Y-22130400D02*
X6753400Y-22130400D01*
X6626400Y-21711300D02*
X6753400Y-21711300D01*
X6753400Y-21927200D02*
X6639100Y-21990700D01*
X6639100Y-21863700D02*
X6753400Y-21927200D01*
X31594600Y-21647800D02*
X31594600Y-21774800D01*
X31543800Y-21863700D02*
X31543800Y-21990700D01*
X31531100Y-22130400D02*
X31658100Y-22130400D01*
X31531100Y-21711300D02*
X31658100Y-21711300D01*
X31658100Y-21927200D02*
X31543800Y-21990700D01*
X31543800Y-21863700D02*
X31658100Y-21927200D01*
D10*
X32650271Y-21918271D02*
X32607414Y-21932557D01*
X32593128Y-21946843D01*
X32578843Y-21975414D01*
X32578843Y-22018271D01*
X32593128Y-22046843D01*
X32607414Y-22061129D01*
X32635986Y-22075414D01*
X32750271Y-22075414D01*
X32750271Y-21775414D01*
X32650271Y-21775414D01*
X32621700Y-21789700D01*
X32607414Y-21803986D01*
X32593128Y-21832557D01*
X32593128Y-21861129D01*
X32607414Y-21889700D01*
X32621700Y-21903986D01*
X32650271Y-21918271D01*
X32750271Y-21918271D01*
X32278843Y-22046843D02*
X32293128Y-22061129D01*
X32335986Y-22075414D01*
X32364557Y-22075414D01*
X32407414Y-22061129D01*
X32435986Y-22032557D01*
X32450271Y-22003986D01*
X32464557Y-21946843D01*
X32464557Y-21903986D01*
X32450271Y-21846843D01*
X32435986Y-21818271D01*
X32407414Y-21789700D01*
X32364557Y-21775414D01*
X32335986Y-21775414D01*
X32293128Y-21789700D01*
X32278843Y-21803986D01*
X5878671Y-21918271D02*
X5835814Y-21932557D01*
X5821528Y-21946843D01*
X5807243Y-21975414D01*
X5807243Y-22018271D01*
X5821528Y-22046843D01*
X5835814Y-22061129D01*
X5864386Y-22075414D01*
X5978671Y-22075414D01*
X5978671Y-21775414D01*
X5878671Y-21775414D01*
X5850100Y-21789700D01*
X5835814Y-21803986D01*
X5821528Y-21832557D01*
X5821528Y-21861129D01*
X5835814Y-21889700D01*
X5850100Y-21903986D01*
X5878671Y-21918271D01*
X5978671Y-21918271D01*
X5507243Y-22046843D02*
X5521529Y-22061129D01*
X5564386Y-22075414D01*
X5592957Y-22075414D01*
X5635814Y-22061129D01*
X5664386Y-22032557D01*
X5678671Y-22003986D01*
X5692957Y-21946843D01*
X5692957Y-21903986D01*
X5678671Y-21846843D01*
X5664386Y-21818271D01*
X5635814Y-21789700D01*
X5592957Y-21775414D01*
X5564386Y-21775414D01*
X5521529Y-21789700D01*
X5507243Y-21803986D01*
D11*
X5886300Y-10977800D02*
X5886300Y-11104800D01*
X5835500Y-11193700D02*
X5835500Y-11320700D01*
X5822800Y-11460400D02*
X5949800Y-11460400D01*
X5822800Y-11041300D02*
X5949800Y-11041300D01*
X5949800Y-11257200D02*
X5835500Y-11320700D01*
X5835500Y-11193700D02*
X5949800Y-11257200D01*
X32429300Y-10939700D02*
X32429300Y-11066700D01*
X32378500Y-11155600D02*
X32378500Y-11282600D01*
X32365800Y-11422300D02*
X32492800Y-11422300D01*
X32365800Y-11003200D02*
X32492800Y-11003200D01*
X32492800Y-11219100D02*
X32378500Y-11282600D01*
X32378500Y-11155600D02*
X32492800Y-11219100D01*
D10*
X33574671Y-11405614D02*
X33574671Y-11105614D01*
X33503243Y-11105614D01*
X33460386Y-11119900D01*
X33431814Y-11148471D01*
X33417528Y-11177043D01*
X33403243Y-11234186D01*
X33403243Y-11277043D01*
X33417528Y-11334186D01*
X33431814Y-11362757D01*
X33460386Y-11391328D01*
X33503243Y-11405614D01*
X33574671Y-11405614D01*
X4872671Y-11405614D02*
X4872671Y-11105614D01*
X4801243Y-11105614D01*
X4758386Y-11119900D01*
X4729814Y-11148471D01*
X4715529Y-11177043D01*
X4701243Y-11234186D01*
X4701243Y-11277043D01*
X4715529Y-11334186D01*
X4729814Y-11362757D01*
X4758386Y-11391328D01*
X4801243Y-11405614D01*
X4872671Y-11405614D01*
D11*
X5806600Y-19362800D02*
X5806600Y-19489800D01*
X5755800Y-19578700D02*
X5755800Y-19705700D01*
X5743100Y-19845400D02*
X5870100Y-19845400D01*
X5743100Y-19426300D02*
X5870100Y-19426300D01*
X5870100Y-19642200D02*
X5755800Y-19705700D01*
X5755800Y-19578700D02*
X5870100Y-19642200D01*
X32463900Y-19362800D02*
X32463900Y-19489800D01*
X32413100Y-19578700D02*
X32413100Y-19705700D01*
X32400400Y-19845400D02*
X32527400Y-19845400D01*
X32400400Y-19426300D02*
X32527400Y-19426300D01*
X32527400Y-19642200D02*
X32413100Y-19705700D01*
X32413100Y-19578700D02*
X32527400Y-19642200D01*
D10*
X33431471Y-19803314D02*
X33431471Y-19503314D01*
X33360043Y-19503314D01*
X33317186Y-19517600D01*
X33288614Y-19546171D01*
X33274328Y-19574743D01*
X33260043Y-19631886D01*
X33260043Y-19674743D01*
X33274328Y-19731886D01*
X33288614Y-19760457D01*
X33317186Y-19789029D01*
X33360043Y-19803314D01*
X33431471Y-19803314D01*
X5008871Y-19790614D02*
X5008871Y-19490614D01*
X4937443Y-19490614D01*
X4894586Y-19504900D01*
X4866014Y-19533471D01*
X4851729Y-19562043D01*
X4837443Y-19619186D01*
X4837443Y-19662043D01*
X4851729Y-19719186D01*
X4866014Y-19747757D01*
X4894586Y-19776329D01*
X4937443Y-19790614D01*
X5008871Y-19790614D01*
D11*
X5155400Y-15610100D02*
X5155400Y-15737100D01*
X5104600Y-15826000D02*
X5104600Y-15953000D01*
X5091900Y-16092700D02*
X5218900Y-16092700D01*
X5091900Y-15673600D02*
X5218900Y-15673600D01*
X5218900Y-15889500D02*
X5104600Y-15953000D01*
X5104600Y-15826000D02*
X5218900Y-15889500D01*
X33082700Y-15610100D02*
X33082700Y-15737100D01*
X33031900Y-15826000D02*
X33031900Y-15953000D01*
X33019200Y-16092700D02*
X33146200Y-16092700D01*
X33019200Y-15673600D02*
X33146200Y-15673600D01*
X33146200Y-15889500D02*
X33031900Y-15953000D01*
X33031900Y-15826000D02*
X33146200Y-15889500D01*
D10*
X4216386Y-15868071D02*
X4116386Y-15868071D01*
X4073528Y-16025214D02*
X4216386Y-16025214D01*
X4216386Y-15725214D01*
X4073528Y-15725214D01*
X34201086Y-15880771D02*
X34101086Y-15880771D01*
X34058229Y-16037914D02*
X34201086Y-16037914D01*
X34201086Y-15737914D01*
X34058229Y-15737914D01*
D11*
X7423900Y-17999200D02*
X7423900Y-18126200D01*
X7411200Y-18265900D02*
X7538200Y-18265900D01*
X7474700Y-17821400D02*
X7474700Y-17948400D01*
X7411200Y-17884900D02*
X7538200Y-17884900D01*
X7538200Y-18062700D02*
X7423900Y-18126200D01*
X7423900Y-17999200D02*
X7538200Y-18062700D01*
X21241500Y-18011900D02*
X21241500Y-18138900D01*
X21228800Y-18278600D02*
X21355800Y-18278600D01*
X21292300Y-17834100D02*
X21292300Y-17961100D01*
X21228800Y-17897600D02*
X21355800Y-17897600D01*
X21355800Y-18075400D02*
X21241500Y-18138900D01*
X21241500Y-18011900D02*
X21355800Y-18075400D01*
X31261800Y-18011900D02*
X31261800Y-18138900D01*
X31249100Y-18278600D02*
X31376100Y-18278600D01*
X31312600Y-17834100D02*
X31312600Y-17961100D01*
X31249100Y-17897600D02*
X31376100Y-17897600D01*
X31376100Y-18075400D02*
X31261800Y-18138900D01*
X31261800Y-18011900D02*
X31376100Y-18075400D01*
D10*
X5603043Y-18066671D02*
X5703043Y-18066671D01*
X5703043Y-18223814D02*
X5703043Y-17923814D01*
X5560186Y-17923814D01*
X32945443Y-18110871D02*
X33045443Y-18110871D01*
X33045443Y-18268014D02*
X33045443Y-17968014D01*
X32902586Y-17968014D01*
D11*
X7480400Y-18807500D02*
X7480400Y-18934500D01*
X7467700Y-19074200D02*
X7594700Y-19074200D01*
X7531200Y-18629700D02*
X7531200Y-18756700D01*
X7467700Y-18693200D02*
X7594700Y-18693200D01*
X7594700Y-18871000D02*
X7480400Y-18934500D01*
X7480400Y-18807500D02*
X7594700Y-18871000D01*
X19100900Y-18832900D02*
X19100900Y-18959900D01*
X19088200Y-19099600D02*
X19215200Y-19099600D01*
X19151700Y-18655100D02*
X19151700Y-18782100D01*
X19088200Y-18718600D02*
X19215200Y-18718600D01*
X19215200Y-18896400D02*
X19100900Y-18959900D01*
X19100900Y-18832900D02*
X19215200Y-18896400D01*
X30886500Y-18705900D02*
X31013500Y-18705900D01*
X30950000Y-18642400D02*
X30950000Y-18769400D01*
X30899200Y-18820200D02*
X31013500Y-18883700D01*
X31013500Y-18883700D02*
X30899200Y-18947200D01*
X30886500Y-19086900D02*
X31013500Y-19086900D01*
X30899200Y-18820200D02*
X30899200Y-18947200D01*
D10*
X32431143Y-18874971D02*
X32531143Y-18874971D01*
X32531143Y-19032114D02*
X32531143Y-18732114D01*
X32388286Y-18732114D01*
X5202343Y-18874971D02*
X5302343Y-18874971D01*
X5302343Y-19032114D02*
X5302343Y-18732114D01*
X5159486Y-18732114D01*
M02*
