  0
SECTION
  2
HEADER
  9
$ACADVER
  1
AC1024
  9
$ACADMAINTVER
 70
     6
  9
$DWGCODEPAGE
  3
UNDEFINED
  9
$INSBASE
 10
0.0
 20
0.0
 30
0.0
  9
$EXTMIN
 10
1.000000000000000E+20
 20
1.000000000000000E+20
 30
1.000000000000000E+20
  9
$EXTMAX
 10
-1.000000000000000E+20
 20
-1.000000000000000E+20
 30
-1.000000000000000E+20
  9
$LIMMIN
 10
0.0
 20
0.0
  9
$LIMMAX
 10
12.0
 20
9.0
  9
$ORTHOMODE
 70
     0
  9
$REGENMODE
 70
     1
  9
$FILLMODE
 70
     1
  9
$QTEXTMODE
 70
     0
  9
$MIRRTEXT
 70
     1
  9
$LTSCALE
 40
1.0
  9
$ATTMODE
 70
     1
  9
$TEXTSIZE
 40
0.2
  9
$TRACEWID
 40
0.05
  9
$TEXTSTYLE
  7
Standard
  9
$CLAYER
  8
0
  9
$CELTYPE
  6
ByLayer
  9
$CECOLOR
 62
   256
  9
$CELTSCALE
 40
1.0
  9
$DISPSILH
 70
     0
  9
$DIMSCALE
 40
1.0
  9
$DIMASZ
 40
0.18
  9
$DIMEXO
 40
0.0625
  9
$DIMDLI
 40
0.38
  9
$DIMRND
 40
0.0
  9
$DIMDLE
 40
0.0
  9
$DIMEXE
 40
0.18
  9
$DIMTP
 40
0.0
  9
$DIMTM
 40
0.0
  9
$DIMTXT
 40
0.18
  9
$DIMCEN
 40
0.09
  9
$DIMTSZ
 40
0.0
  9
$DIMTOL
 70
     0
  9
$DIMLIM
 70
     0
  9
$DIMTIH
 70
     1
  9
$DIMTOH
 70
     1
  9
$DIMSE1
 70
     0
  9
$DIMSE2
 70
     0
  9
$DIMTAD
 70
     0
  9
$DIMZIN
 70
     0
  9
$DIMBLK
  1

  9
$DIMASO
 70
     1
  9
$DIMSHO
 70
     1
  9
$DIMPOST
  1

  9
$DIMAPOST
  1

  9
$DIMALT
 70
     0
  9
$DIMALTD
 70
     2
  9
$DIMALTF
 40
25.4
  9
$DIMLFAC
 40
1.0
  9
$DIMTOFL
 70
     0
  9
$DIMTVP
 40
0.0
  9
$DIMTIX
 70
     0
  9
$DIMSOXD
 70
     0
  9
$DIMSAH
 70
     0
  9
$DIMBLK1
  1

  9
$DIMBLK2
  1

  9
$DIMSTYLE
  2
Standard
  9
$DIMCLRD
 70
     0
  9
$DIMCLRE
 70
     0
  9
$DIMCLRT
 70
     0
  9
$DIMTFAC
 40
1.0
  9
$DIMGAP
 40
0.09
  9
$DIMJUST
 70
     0
  9
$DIMSD1
 70
     0
  9
$DIMSD2
 70
     0
  9
$DIMTOLJ
 70
     1
  9
$DIMTZIN
 70
     0
  9
$DIMALTZ
 70
     0
  9
$DIMALTTZ
 70
     0
  9
$DIMUPT
 70
     0
  9
$DIMDEC
 70
     4
  9
$DIMTDEC
 70
     4
  9
$DIMALTU
 70
     2
  9
$DIMALTTD
 70
     2
  9
$DIMTXSTY
  7
Standard
  9
$DIMAUNIT
 70
     0
  9
$DIMADEC
 70
     0
  9
$DIMALTRND
 40
0.0
  9
$DIMAZIN
 70
     0
  9
$DIMDSEP
 70
    46
  9
$DIMATFIT
 70
     3
  9
$DIMFRAC
 70
     0
  9
$DIMLDRBLK
  1

  9
$DIMLUNIT
 70
     2
  9
$DIMLWD
 70
    -2
  9
$DIMLWE
 70
    -2
  9
$DIMTMOVE
 70
     0
  9
$DIMFXL
 40
1.0
  9
$DIMFXLON
 70
     0
  9
$DIMJOGANG
 40
0.7853981633974483
  9
$DIMTFILL
 70
     0
  9
$DIMTFILLCLR
 70
     0
  9
$DIMARCSYM
 70
     0
  9
$DIMLTYPE
  6

  9
$DIMLTEX1
  6

  9
$DIMLTEX2
  6

  9
$DIMTXTDIRECTION
 70
     0
  9
$LUNITS
 70
     2
  9
$LUPREC
 70
     4
  9
$SKETCHINC
 40
0.1
  9
$FILLETRAD
 40
0.5
  9
$AUNITS
 70
     0
  9
$AUPREC
 70
     0
  9
$MENU
  1
.
  9
$ELEVATION
 40
0.0
  9
$PELEVATION
 40
0.0
  9
$THICKNESS
 40
0.0
  9
$LIMCHECK
 70
     0
  9
$CHAMFERA
 40
0.5
  9
$CHAMFERB
 40
0.5
  9
$CHAMFERC
 40
1.0
  9
$CHAMFERD
 40
0.0
  9
$SKPOLY
 70
     0
  9
$TDCREATE
 40
2458617.972557859
  9
$TDUCREATE
 40
2458618.305891204
  9
$TDUPDATE
 40
2458617.972557859
  9
$TDUUPDATE
 40
2458618.305891204
  9
$TDINDWG
 40
0.0000000116
  9
$TDUSRTIMER
 40
0.0000000116
  9
$USRTIMER
 70
     1
  9
$ANGBASE
 50
0.0
  9
$ANGDIR
 70
     0
  9
$PDMODE
 70
     0
  9
$PDSIZE
 40
0.0
  9
$PLINEWID
 40
0.0
  9
$SPLFRAME
 70
     0
  9
$SPLINETYPE
 70
     6
  9
$SPLINESEGS
 70
     8
  9
$HANDSEED
  5
230
  9
$SURFTAB1
 70
     6
  9
$SURFTAB2
 70
     6
  9
$SURFTYPE
 70
     6
  9
$SURFU
 70
     6
  9
$SURFV
 70
     6
  9
$UCSBASE
  2

  9
$UCSNAME
  2

  9
$UCSORG
 10
0.0
 20
0.0
 30
0.0
  9
$UCSXDIR
 10
1.0
 20
0.0
 30
0.0
  9
$UCSYDIR
 10
0.0
 20
1.0
 30
0.0
  9
$UCSORTHOREF
  2

  9
$UCSORTHOVIEW
 70
     0
  9
$UCSORGTOP
 10
0.0
 20
0.0
 30
0.0
  9
$UCSORGBOTTOM
 10
0.0
 20
0.0
 30
0.0
  9
$UCSORGLEFT
 10
0.0
 20
0.0
 30
0.0
  9
$UCSORGRIGHT
 10
0.0
 20
0.0
 30
0.0
  9
$UCSORGFRONT
 10
0.0
 20
0.0
 30
0.0
  9
$UCSORGBACK
 10
0.0
 20
0.0
 30
0.0
  9
$PUCSBASE
  2

  9
$PUCSNAME
  2

  9
$PUCSORG
 10
0.0
 20
0.0
 30
0.0
  9
$PUCSXDIR
 10
1.0
 20
0.0
 30
0.0
  9
$PUCSYDIR
 10
0.0
 20
1.0
 30
0.0
  9
$PUCSORTHOREF
  2

  9
$PUCSORTHOVIEW
 70
     0
  9
$PUCSORGTOP
 10
0.0
 20
0.0
 30
0.0
  9
$PUCSORGBOTTOM
 10
0.0
 20
0.0
 30
0.0
  9
$PUCSORGLEFT
 10
0.0
 20
0.0
 30
0.0
  9
$PUCSORGRIGHT
 10
0.0
 20
0.0
 30
0.0
  9
$PUCSORGFRONT
 10
0.0
 20
0.0
 30
0.0
  9
$PUCSORGBACK
 10
0.0
 20
0.0
 30
0.0
  9
$USERI1
 70
     0
  9
$USERI2
 70
     0
  9
$USERI3
 70
     0
  9
$USERI4
 70
     0
  9
$USERI5
 70
     0
  9
$USERR1
 40
0.0
  9
$USERR2
 40
0.0
  9
$USERR3
 40
0.0
  9
$USERR4
 40
0.0
  9
$USERR5
 40
0.0
  9
$WORLDVIEW
 70
     1
  9
$SHADEDGE
 70
     3
  9
$SHADEDIF
 70
    70
  9
$TILEMODE
 70
     1
  9
$MAXACTVP
 70
    64
  9
$PINSBASE
 10
0.0
 20
0.0
 30
0.0
  9
$PLIMCHECK
 70
     0
  9
$PEXTMIN
 10
1.000000000000000E+20
 20
1.000000000000000E+20
 30
1.000000000000000E+20
  9
$PEXTMAX
 10
-1.000000000000000E+20
 20
-1.000000000000000E+20
 30
-1.000000000000000E+20
  9
$PLIMMIN
 10
0.0
 20
0.0
  9
$PLIMMAX
 10
12.0
 20
9.0
  9
$UNITMODE
 70
     0
  9
$VISRETAIN
 70
     1
  9
$PLINEGEN
 70
     0
  9
$PSLTSCALE
 70
     1
  9
$TREEDEPTH
 70
  3020
  9
$CMLSTYLE
  2
Standard
  9
$CMLJUST
 70
     0
  9
$CMLSCALE
 40
1.0
  9
$PROXYGRAPHICS
 70
     1
  9
$MEASUREMENT
 70
     0
  9
$CELWEIGHT
370
    -1
  9
$ENDCAPS
280
     0
  9
$JOINSTYLE
280
     0
  9
$LWDISPLAY
290
     1
  9
$INSUNITS
 70
     1
  9
$HYPERLINKBASE
  1

  9
$STYLESHEET
  1

  9
$XEDIT
290
     1
  9
$CEPSNTYPE
380
     0
  9
$PSTYLEMODE
290
     1
  9
$FINGERPRINTGUID
  2
{3B01BCC8-C448-61DF-527F-D24ACC341BBF}
  9
$VERSIONGUID
  2
{FAEB1C32-E019-11D5-929B-00C0DF256EC4}
  9
$EXTNAMES
290
     1
  9
$PSVPSCALE
 40
0.0
  9
$OLESTARTUP
290
     0
  9
$SORTENTS
280
   127
  9
$INDEXCTL
280
     0
  9
$HIDETEXT
280
     1
  9
$XCLIPFRAME
280
     2
  9
$HALOGAP
280
     0
  9
$OBSCOLOR
 70
   257
  9
$OBSLTYPE
280
     0
  9
$INTERSECTIONDISPLAY
280
     0
  9
$INTERSECTIONCOLOR
 70
   257
  9
$DIMASSOC
280
     2
  9
$PROJECTNAME
  1

  9
$CAMERADISPLAY
290
     0
  9
$LENSLENGTH
 40
50.0
  9
$CAMERAHEIGHT
 40
0.0
  9
$STEPSPERSEC
 40
2.0
  9
$STEPSIZE
 40
6.0
  9
$3DDWFPREC
 40
2.0
  9
$PSOLWIDTH
 40
0.25
  9
$PSOLHEIGHT
 40
4.0
  9
$LOFTANG1
 40
1.570796326794897
  9
$LOFTANG2
 40
1.570796326794897
  9
$LOFTMAG1
 40
0.0
  9
$LOFTMAG2
 40
0.0
  9
$LOFTPARAM
 70
     7
  9
$LOFTNORMALS
280
     1
  9
$LATITUDE
 40
37.795
  9
$LONGITUDE
 40
-122.394
  9
$NORTHDIRECTION
 40
0.0
  9
$TIMEZONE
 70
 -8000
  9
$LIGHTGLYPHDISPLAY
280
     1
  9
$TILEMODELIGHTSYNCH
280
     1
  9
$CMATERIAL
347
3C
  9
$SOLIDHIST
280
     1
  9
$SHOWHIST
280
     1
  9
$DWFFRAME
280
     2
  9
$DGNFRAME
280
     2
  9
$REALWORLDSCALE
290
     1
  9
$INTERFERECOLOR
 62
   256
  9
$CSHADOW
280
     0
  9
$SHADOWPLANELOCATION
 40
0.0
  0
ENDSEC
  0
SECTION
  2
CLASSES
  0
CLASS
  1
ACDBDICTIONARYWDFLT
  2
AcDbDictionaryWithDefault
  3
ObjectDBX Classes
 90
        0
 91
        4
280
     0
281
     0
  0
CLASS
  1
VISUALSTYLE
  2
AcDbVisualStyle
  3
ObjectDBX Classes
 90
     4095
 91
        4
280
     0
281
     0
  0
CLASS
  1
MATERIAL
  2
AcDbMaterial
  3
ObjectDBX Classes
 90
     1153
 91
        4
280
     0
281
     0
  0
CLASS
  1
SUN
  2
AcDbSun
  3
SCENEOE
 90
     1024
 91
        4
280
     0
281
     0
  0
ENDSEC
  0
SECTION
  2
TABLES
  0
TABLE
  2
VPORT
  5
8
330
0
100
AcDbSymbolTable
 70
     1
  0
VPORT
  5
29
330
8
100
AcDbSymbolTableRecord
100
AcDbViewportTableRecord
  2
*Active
 70
     0
 10
0.0
 20
0.0
 11
1.0
 21
1.0
 12
0.0
 22
0.0
 13
0.0
 23
0.0
 14
0.5
 24
0.5
 15
0.5
 25
0.5
 16
0.0
 26
0.0
 36
1.0
 17
8.026529947916666
 27
7.939299689398871
 37
0.0
 40
5.832682650122377
 41
2.0127106197582
 42
50.0
 43
0.0
 44
0.0
 50
0.0
 51
0.0
 71
     0
 72
   100
 73
     1
 74
     3
 75
     0
 76
     0
 77
     0
 78
     0
281
     0
 65
     1
110
0.0
120
0.0
130
0.0
111
1.0
121
0.0
131
0.0
112
0.0
122
1.0
132
0.0
 79
     0
146
0.0
 60
     3
 61
     5
292
     1
282
     1
141
0.0
142
0.0
 63
   250
361
3F
  0
ENDTAB
  0
TABLE
  2
LTYPE
  5
5
330
0
100
AcDbSymbolTable
 70
     1
  0
LTYPE
  5
14
330
5
100
AcDbSymbolTableRecord
100
AcDbLinetypeTableRecord
  2
ByBlock
 70
     0
  3

 72
    65
 73
     0
 40
0.0
  0
LTYPE
  5
15
330
5
100
AcDbSymbolTableRecord
100
AcDbLinetypeTableRecord
  2
ByLayer
 70
     0
  3

 72
    65
 73
     0
 40
0.0
  0
LTYPE
  5
16
330
5
100
AcDbSymbolTableRecord
100
AcDbLinetypeTableRecord
  2
Continuous
 70
     0
  3
Solid line
 72
    65
 73
     0
 40
0.0
  0
ENDTAB
  0
TABLE
  2
LAYER
  5
2
330
0
100
AcDbSymbolTable
 70
     3
  0
LAYER
  5
10
330
2
100
AcDbSymbolTableRecord
100
AcDbLayerTableRecord
  2
0
 70
     0
 62
     7
  6
Continuous
370
    -3
390
F
347
3E
  0
LAYER
  5
40
330
2
100
AcDbSymbolTableRecord
100
AcDbLayerTableRecord
  2
Layer 1
 70
     0
 62
     7
  6
Continuous
370
    -3
390
F
347
3E
  0
LAYER
  5
41
330
2
100
AcDbSymbolTableRecord
100
AcDbLayerTableRecord
  2
Layer 2
 70
     0
 62
     7
  6
Continuous
370
    -3
390
F
347
3E
  0
ENDTAB
  0
TABLE
  2
STYLE
  5
3
330
0
100
AcDbSymbolTable
 70
     1
  0
STYLE
  5
11
330
3
100
AcDbSymbolTableRecord
100
AcDbTextStyleTableRecord
  2
Standard
 70
     0
 40
0.0
 41
1.0
 50
0.0
 71
     0
 42
0.2
  3
txt
  4

  0
ENDTAB
  0
TABLE
  2
VIEW
  5
6
330
0
100
AcDbSymbolTable
 70
     0
  0
ENDTAB
  0
TABLE
  2
UCS
  5
7
330
0
100
AcDbSymbolTable
 70
     0
  0
ENDTAB
  0
TABLE
  2
APPID
  5
9
330
0
100
AcDbSymbolTable
 70
     1
  0
APPID
  5
12
330
9
100
AcDbSymbolTableRecord
100
AcDbRegAppTableRecord
  2
ACAD
 70
     0
  0
ENDTAB
  0
TABLE
  2
DIMSTYLE
  5
A
330
0
100
AcDbSymbolTable
 70
     1
100
AcDbDimStyleTable
  0
DIMSTYLE
105
27
330
A
100
AcDbSymbolTableRecord
100
AcDbDimStyleTableRecord
  2
Standard
 70
     0
178
     0
340
11
  0
ENDTAB
  0
TABLE
  2
BLOCK_RECORD
  5
1
330
0
100
AcDbSymbolTable
 70
     1
  0
BLOCK_RECORD
  5
1F
330
1
100
AcDbSymbolTableRecord
100
AcDbBlockTableRecord
  2
*Model_Space
340
22
 70
     0
280
     1
281
     0
  0
BLOCK_RECORD
  5
1B
330
1
100
AcDbSymbolTableRecord
100
AcDbBlockTableRecord
  2
*Paper_Space
340
1E
 70
     0
280
     1
281
     0
  0
BLOCK_RECORD
  5
23
330
1
100
AcDbSymbolTableRecord
100
AcDbBlockTableRecord
  2
*Paper_Space0
340
26
 70
     0
280
     1
281
     0
  0
ENDTAB
  0
ENDSEC
  0
SECTION
  2
BLOCKS
  0
BLOCK
  5
20
330
1F
100
AcDbEntity
  8
0
100
AcDbBlockBegin
  2
*Model_Space
 70
     0
 10
0.0
 20
0.0
 30
0.0
  3
*Model_Space
  1

  0
ENDBLK
  5
21
330
1F
100
AcDbEntity
  8
0
100
AcDbBlockEnd
  0
BLOCK
  5
1C
330
1B
100
AcDbEntity
 67
     1
  8
0
100
AcDbBlockBegin
  2
*Paper_Space
 70
     0
 10
0.0
 20
0.0
 30
0.0
  3
*Paper_Space
  1

  0
ENDBLK
  5
1D
330
1B
100
AcDbEntity
 67
     1
  8
0
100
AcDbBlockEnd
  0
BLOCK
  5
24
330
23
100
AcDbEntity
  8
0
100
AcDbBlockBegin
  2
*Paper_Space0
 70
     0
 10
0.0
 20
0.0
 30
0.0
  3
*Paper_Space0
  1

  0
ENDBLK
  5
25
330
23
100
AcDbEntity
  8
0
100
AcDbBlockEnd
  0
ENDSEC
  0
SECTION
  2
ENTITIES
  0
POLYLINE
  5
42
330
1F
100
AcDbEntity
  8
Layer 2
 62
     7
420
 16777215
370
    15
100
AcDb2dPolyline
 66
     1
 10
0.0
 20
0.0
 30
0.0
  0
VERTEX
  5
43
330
42
100
AcDbEntity
  8
Layer 2
 62
     7
420
 16777215
370
    15
100
AcDbVertex
100
AcDb2dVertex
 10
2.15973154703776
 20
10.85268825954861
 30
0.0
  0
VERTEX
  5
44
330
42
100
AcDbEntity
  8
Layer 2
 62
     7
420
 16777215
370
    15
100
AcDbVertex
100
AcDb2dVertex
 10
2.15973154703776
 20
5.025911119249131
 30
0.0
  0
VERTEX
  5
45
330
42
100
AcDbEntity
  8
Layer 2
 62
     7
420
 16777215
370
    15
100
AcDbVertex
100
AcDb2dVertex
 10
13.89332834879557
 20
5.025911119249131
 30
0.0
  0
VERTEX
  5
46
330
42
100
AcDbEntity
  8
Layer 2
 62
     7
420
 16777215
370
    15
100
AcDbVertex
100
AcDb2dVertex
 10
13.89332834879557
 20
10.85268825954861
 30
0.0
  0
VERTEX
  5
47
330
42
100
AcDbEntity
  8
Layer 2
 62
     7
420
 16777215
370
    15
100
AcDbVertex
100
AcDb2dVertex
 10
2.15973154703776
 20
10.85268825954861
 30
0.0
  0
SEQEND
  5
48
330
42
100
AcDbEntity
  8
Layer 2
 62
     7
420
 16777215
370
    15
  0
POLYLINE
  5
49
330
1F
100
AcDbEntity
  8
Layer 2
 62
     7
420
 16777215
370
    15
100
AcDb2dPolyline
 66
     1
 10
0.0
 20
0.0
 30
0.0
  0
VERTEX
  5
4A
330
49
100
AcDbEntity
  8
Layer 2
 62
     7
420
 16777215
370
    15
100
AcDbVertex
100
AcDb2dVertex
 10
9.808946397569445
 20
10.65583886040582
 30
0.0
  0
VERTEX
  5
4B
330
49
100
AcDbEntity
  8
Layer 2
 62
     7
420
 16777215
370
    15
100
AcDbVertex
100
AcDb2dVertex
 10
9.808946397569445
 20
10.57709672715929
 30
0.0
  0
VERTEX
  5
4C
330
49
100
AcDbEntity
  8
Layer 2
 62
     7
420
 16777215
370
    15
100
AcDbVertex
100
AcDb2dVertex
 10
6.248121473524305
 20
10.57709672715929
 30
0.0
  0
VERTEX
  5
4D
330
49
100
AcDbEntity
  8
Layer 2
 62
     7
420
 16777215
370
    15
100
AcDbVertex
100
AcDb2dVertex
 10
6.248121473524305
 20
10.65583886040582
 30
0.0
  0
VERTEX
  5
4E
330
49
100
AcDbEntity
  8
Layer 2
 62
     7
420
 16777215
370
    15
100
AcDbVertex
100
AcDb2dVertex
 10
9.808946397569445
 20
10.65583886040582
 30
0.0
  0
SEQEND
  5
4F
330
49
100
AcDbEntity
  8
Layer 2
 62
     7
420
 16777215
370
    15
  0
POLYLINE
  5
50
330
1F
100
AcDbEntity
  8
Layer 2
 62
     7
420
 16777215
370
    15
100
AcDb2dPolyline
 66
     1
 10
0.0
 20
0.0
 30
0.0
  0
VERTEX
  5
51
330
50
100
AcDbEntity
  8
Layer 2
 62
     7
420
 16777215
370
    15
100
AcDbVertex
100
AcDb2dVertex
 10
6.248121473524305
 20
5.55741204155816
 30
0.0
  0
VERTEX
  5
52
330
50
100
AcDbEntity
  8
Layer 2
 62
     7
420
 16777215
370
    15
100
AcDbVertex
100
AcDb2dVertex
 10
6.248121473524305
 20
5.63614739312066
 30
0.0
  0
VERTEX
  5
53
330
50
100
AcDbEntity
  8
Layer 2
 62
     7
420
 16777215
370
    15
100
AcDbVertex
100
AcDb2dVertex
 10
9.808946397569445
 20
5.63614739312066
 30
0.0
  0
VERTEX
  5
54
330
50
100
AcDbEntity
  8
Layer 2
 62
     7
420
 16777215
370
    15
100
AcDbVertex
100
AcDb2dVertex
 10
9.808946397569445
 20
5.55741204155816
 30
0.0
  0
VERTEX
  5
55
330
50
100
AcDbEntity
  8
Layer 2
 62
     7
420
 16777215
370
    15
100
AcDbVertex
100
AcDb2dVertex
 10
6.248121473524305
 20
5.55741204155816
 30
0.0
  0
SEQEND
  5
56
330
50
100
AcDbEntity
  8
Layer 2
 62
     7
420
 16777215
370
    15
  0
POLYLINE
  5
57
330
1F
100
AcDbEntity
  8
Layer 2
 62
     7
420
 16777215
370
    15
100
AcDb2dPolyline
 66
     1
 10
0.0
 20
0.0
 30
0.0
  0
VERTEX
  5
58
330
57
100
AcDbEntity
  8
Layer 2
 62
     7
420
 16777215
370
    15
100
AcDbVertex
100
AcDb2dVertex
 10
6.248121473524305
 20
5.892057630750868
 30
0.0
  0
VERTEX
  5
59
330
57
100
AcDbEntity
  8
Layer 2
 62
     7
420
 16777215
370
    15
100
AcDbVertex
100
AcDb2dVertex
 10
6.248121473524305
 20
5.970792982313368
 30
0.0
  0
VERTEX
  5
5A
330
57
100
AcDbEntity
  8
Layer 2
 62
     7
420
 16777215
370
    15
100
AcDbVertex
100
AcDb2dVertex
 10
9.808946397569445
 20
5.970792982313368
 30
0.0
  0
VERTEX
  5
5B
330
57
100
AcDbEntity
  8
Layer 2
 62
     7
420
 16777215
370
    15
100
AcDbVertex
100
AcDb2dVertex
 10
9.808946397569445
 20
5.892057630750868
 30
0.0
  0
VERTEX
  5
5C
330
57
100
AcDbEntity
  8
Layer 2
 62
     7
420
 16777215
370
    15
100
AcDbVertex
100
AcDb2dVertex
 10
6.248121473524305
 20
5.892057630750868
 30
0.0
  0
SEQEND
  5
5D
330
57
100
AcDbEntity
  8
Layer 2
 62
     7
420
 16777215
370
    15
  0
POLYLINE
  5
5E
330
1F
100
AcDbEntity
  8
Layer 2
 62
     7
420
 16777215
370
    15
100
AcDb2dPolyline
 66
     1
 10
0.0
 20
0.0
 30
0.0
  0
VERTEX
  5
5F
330
5E
100
AcDbEntity
  8
Layer 2
 62
     7
420
 16777215
370
    15
100
AcDbVertex
100
AcDb2dVertex
 10
6.248121473524305
 20
6.226703219943576
 30
0.0
  0
VERTEX
  5
60
330
5E
100
AcDbEntity
  8
Layer 2
 62
     7
420
 16777215
370
    15
100
AcDbVertex
100
AcDb2dVertex
 10
6.248121473524305
 20
6.305438571506076
 30
0.0
  0
VERTEX
  5
61
330
5E
100
AcDbEntity
  8
Layer 2
 62
     7
420
 16777215
370
    15
100
AcDbVertex
100
AcDb2dVertex
 10
9.808946397569445
 20
6.305438571506076
 30
0.0
  0
VERTEX
  5
62
330
5E
100
AcDbEntity
  8
Layer 2
 62
     7
420
 16777215
370
    15
100
AcDbVertex
100
AcDb2dVertex
 10
9.808946397569445
 20
6.226703219943576
 30
0.0
  0
VERTEX
  5
63
330
5E
100
AcDbEntity
  8
Layer 2
 62
     7
420
 16777215
370
    15
100
AcDbVertex
100
AcDb2dVertex
 10
6.248121473524305
 20
6.226703219943576
 30
0.0
  0
SEQEND
  5
64
330
5E
100
AcDbEntity
  8
Layer 2
 62
     7
420
 16777215
370
    15
  0
POLYLINE
  5
65
330
1F
100
AcDbEntity
  8
Layer 2
 62
     7
420
 16777215
370
    15
100
AcDb2dPolyline
 66
     1
 10
0.0
 20
0.0
 30
0.0
  0
VERTEX
  5
66
330
65
100
AcDbEntity
  8
Layer 2
 62
     7
420
 16777215
370
    15
100
AcDbVertex
100
AcDb2dVertex
 10
6.248121473524305
 20
6.561348809136284
 30
0.0
  0
VERTEX
  5
67
330
65
100
AcDbEntity
  8
Layer 2
 62
     7
420
 16777215
370
    15
100
AcDbVertex
100
AcDb2dVertex
 10
6.248121473524305
 20
6.640084160698784
 30
0.0
  0
VERTEX
  5
68
330
65
100
AcDbEntity
  8
Layer 2
 62
     7
420
 16777215
370
    15
100
AcDbVertex
100
AcDb2dVertex
 10
9.808946397569445
 20
6.640084160698784
 30
0.0
  0
VERTEX
  5
69
330
65
100
AcDbEntity
  8
Layer 2
 62
     7
420
 16777215
370
    15
100
AcDbVertex
100
AcDb2dVertex
 10
9.808946397569445
 20
6.561348809136284
 30
0.0
  0
VERTEX
  5
6A
330
65
100
AcDbEntity
  8
Layer 2
 62
     7
420
 16777215
370
    15
100
AcDbVertex
100
AcDb2dVertex
 10
6.248121473524305
 20
6.561348809136284
 30
0.0
  0
SEQEND
  5
6B
330
65
100
AcDbEntity
  8
Layer 2
 62
     7
420
 16777215
370
    15
  0
POLYLINE
  5
6C
330
1F
100
AcDbEntity
  8
Layer 2
 62
     7
420
 16777215
370
    15
100
AcDb2dPolyline
 66
     1
 10
0.0
 20
0.0
 30
0.0
  0
VERTEX
  5
6D
330
6C
100
AcDbEntity
  8
Layer 2
 62
     7
420
 16777215
370
    15
100
AcDbVertex
100
AcDb2dVertex
 10
6.248121473524305
 20
6.895994398328993
 30
0.0
  0
VERTEX
  5
6E
330
6C
100
AcDbEntity
  8
Layer 2
 62
     7
420
 16777215
370
    15
100
AcDbVertex
100
AcDb2dVertex
 10
6.248121473524305
 20
6.974729749891493
 30
0.0
  0
VERTEX
  5
6F
330
6C
100
AcDbEntity
  8
Layer 2
 62
     7
420
 16777215
370
    15
100
AcDbVertex
100
AcDb2dVertex
 10
9.808946397569445
 20
6.974729749891493
 30
0.0
  0
VERTEX
  5
70
330
6C
100
AcDbEntity
  8
Layer 2
 62
     7
420
 16777215
370
    15
100
AcDbVertex
100
AcDb2dVertex
 10
9.808946397569445
 20
6.895994398328993
 30
0.0
  0
VERTEX
  5
71
330
6C
100
AcDbEntity
  8
Layer 2
 62
     7
420
 16777215
370
    15
100
AcDbVertex
100
AcDb2dVertex
 10
6.248121473524305
 20
6.895994398328993
 30
0.0
  0
SEQEND
  5
72
330
6C
100
AcDbEntity
  8
Layer 2
 62
     7
420
 16777215
370
    15
  0
POLYLINE
  5
73
330
1F
100
AcDbEntity
  8
Layer 2
 62
     7
420
 16777215
370
    15
100
AcDb2dPolyline
 66
     1
 10
0.0
 20
0.0
 30
0.0
  0
VERTEX
  5
74
330
73
100
AcDbEntity
  8
Layer 2
 62
     7
420
 16777215
370
    15
100
AcDbVertex
100
AcDb2dVertex
 10
6.248121473524305
 20
7.230639987521701
 30
0.0
  0
VERTEX
  5
75
330
73
100
AcDbEntity
  8
Layer 2
 62
     7
420
 16777215
370
    15
100
AcDbVertex
100
AcDb2dVertex
 10
6.248121473524305
 20
7.309375339084201
 30
0.0
  0
VERTEX
  5
76
330
73
100
AcDbEntity
  8
Layer 2
 62
     7
420
 16777215
370
    15
100
AcDbVertex
100
AcDb2dVertex
 10
9.808946397569445
 20
7.309375339084201
 30
0.0
  0
VERTEX
  5
77
330
73
100
AcDbEntity
  8
Layer 2
 62
     7
420
 16777215
370
    15
100
AcDbVertex
100
AcDb2dVertex
 10
9.808946397569445
 20
7.230639987521701
 30
0.0
  0
VERTEX
  5
78
330
73
100
AcDbEntity
  8
Layer 2
 62
     7
420
 16777215
370
    15
100
AcDbVertex
100
AcDb2dVertex
 10
6.248121473524305
 20
7.230639987521701
 30
0.0
  0
SEQEND
  5
79
330
73
100
AcDbEntity
  8
Layer 2
 62
     7
420
 16777215
370
    15
  0
POLYLINE
  5
7A
330
1F
100
AcDbEntity
  8
Layer 2
 62
     7
420
 16777215
370
    15
100
AcDb2dPolyline
 66
     1
 10
0.0
 20
0.0
 30
0.0
  0
VERTEX
  5
7B
330
7A
100
AcDbEntity
  8
Layer 2
 62
     7
420
 16777215
370
    15
100
AcDbVertex
100
AcDb2dVertex
 10
6.248121473524305
 20
7.565285576714409
 30
0.0
  0
VERTEX
  5
7C
330
7A
100
AcDbEntity
  8
Layer 2
 62
     7
420
 16777215
370
    15
100
AcDbVertex
100
AcDb2dVertex
 10
6.248121473524305
 20
7.644020928276909
 30
0.0
  0
VERTEX
  5
7D
330
7A
100
AcDbEntity
  8
Layer 2
 62
     7
420
 16777215
370
    15
100
AcDbVertex
100
AcDb2dVertex
 10
9.808946397569445
 20
7.644020928276909
 30
0.0
  0
VERTEX
  5
7E
330
7A
100
AcDbEntity
  8
Layer 2
 62
     7
420
 16777215
370
    15
100
AcDbVertex
100
AcDb2dVertex
 10
9.808946397569445
 20
7.565285576714409
 30
0.0
  0
VERTEX
  5
7F
330
7A
100
AcDbEntity
  8
Layer 2
 62
     7
420
 16777215
370
    15
100
AcDbVertex
100
AcDb2dVertex
 10
6.248121473524305
 20
7.565285576714409
 30
0.0
  0
SEQEND
  5
80
330
7A
100
AcDbEntity
  8
Layer 2
 62
     7
420
 16777215
370
    15
  0
POLYLINE
  5
81
330
1F
100
AcDbEntity
  8
Layer 2
 62
     7
420
 16777215
370
    15
100
AcDb2dPolyline
 66
     1
 10
0.0
 20
0.0
 30
0.0
  0
VERTEX
  5
82
330
81
100
AcDbEntity
  8
Layer 2
 62
     7
420
 16777215
370
    15
100
AcDbVertex
100
AcDb2dVertex
 10
6.248121473524305
 20
7.899931165907118
 30
0.0
  0
VERTEX
  5
83
330
81
100
AcDbEntity
  8
Layer 2
 62
     7
420
 16777215
370
    15
100
AcDbVertex
100
AcDb2dVertex
 10
6.248121473524305
 20
7.978666517469618
 30
0.0
  0
VERTEX
  5
84
330
81
100
AcDbEntity
  8
Layer 2
 62
     7
420
 16777215
370
    15
100
AcDbVertex
100
AcDb2dVertex
 10
9.808946397569445
 20
7.978666517469618
 30
0.0
  0
VERTEX
  5
85
330
81
100
AcDbEntity
  8
Layer 2
 62
     7
420
 16777215
370
    15
100
AcDbVertex
100
AcDb2dVertex
 10
9.808946397569445
 20
7.899931165907118
 30
0.0
  0
VERTEX
  5
86
330
81
100
AcDbEntity
  8
Layer 2
 62
     7
420
 16777215
370
    15
100
AcDbVertex
100
AcDb2dVertex
 10
6.248121473524305
 20
7.899931165907118
 30
0.0
  0
SEQEND
  5
87
330
81
100
AcDbEntity
  8
Layer 2
 62
     7
420
 16777215
370
    15
  0
POLYLINE
  5
88
330
1F
100
AcDbEntity
  8
Layer 2
 62
     7
420
 16777215
370
    15
100
AcDb2dPolyline
 66
     1
 10
0.0
 20
0.0
 30
0.0
  0
VERTEX
  5
89
330
88
100
AcDbEntity
  8
Layer 2
 62
     7
420
 16777215
370
    15
100
AcDbVertex
100
AcDb2dVertex
 10
6.248121473524305
 20
8.234576755099827
 30
0.0
  0
VERTEX
  5
8A
330
88
100
AcDbEntity
  8
Layer 2
 62
     7
420
 16777215
370
    15
100
AcDbVertex
100
AcDb2dVertex
 10
6.248121473524305
 20
8.313312106662327
 30
0.0
  0
VERTEX
  5
8B
330
88
100
AcDbEntity
  8
Layer 2
 62
     7
420
 16777215
370
    15
100
AcDbVertex
100
AcDb2dVertex
 10
9.808946397569445
 20
8.313312106662327
 30
0.0
  0
VERTEX
  5
8C
330
88
100
AcDbEntity
  8
Layer 2
 62
     7
420
 16777215
370
    15
100
AcDbVertex
100
AcDb2dVertex
 10
9.808946397569445
 20
8.234576755099827
 30
0.0
  0
VERTEX
  5
8D
330
88
100
AcDbEntity
  8
Layer 2
 62
     7
420
 16777215
370
    15
100
AcDbVertex
100
AcDb2dVertex
 10
6.248121473524305
 20
8.234576755099827
 30
0.0
  0
SEQEND
  5
8E
330
88
100
AcDbEntity
  8
Layer 2
 62
     7
420
 16777215
370
    15
  0
POLYLINE
  5
8F
330
1F
100
AcDbEntity
  8
Layer 2
 62
     7
420
 16777215
370
    15
100
AcDb2dPolyline
 66
     1
 10
0.0
 20
0.0
 30
0.0
  0
VERTEX
  5
90
330
8F
100
AcDbEntity
  8
Layer 2
 62
     7
420
 16777215
370
    15
100
AcDbVertex
100
AcDb2dVertex
 10
6.248121473524305
 20
8.569222344292534
 30
0.0
  0
VERTEX
  5
91
330
8F
100
AcDbEntity
  8
Layer 2
 62
     7
420
 16777215
370
    15
100
AcDbVertex
100
AcDb2dVertex
 10
6.248121473524305
 20
8.647958543565538
 30
0.0
  0
VERTEX
  5
92
330
8F
100
AcDbEntity
  8
Layer 2
 62
     7
420
 16777215
370
    15
100
AcDbVertex
100
AcDb2dVertex
 10
9.808946397569445
 20
8.647958543565538
 30
0.0
  0
VERTEX
  5
93
330
8F
100
AcDbEntity
  8
Layer 2
 62
     7
420
 16777215
370
    15
100
AcDbVertex
100
AcDb2dVertex
 10
9.808946397569445
 20
8.569222344292534
 30
0.0
  0
VERTEX
  5
94
330
8F
100
AcDbEntity
  8
Layer 2
 62
     7
420
 16777215
370
    15
100
AcDbVertex
100
AcDb2dVertex
 10
6.248121473524305
 20
8.569222344292534
 30
0.0
  0
SEQEND
  5
95
330
8F
100
AcDbEntity
  8
Layer 2
 62
     7
420
 16777215
370
    15
  0
POLYLINE
  5
96
330
1F
100
AcDbEntity
  8
Layer 2
 62
     7
420
 16777215
370
    15
100
AcDb2dPolyline
 66
     1
 10
0.0
 20
0.0
 30
0.0
  0
VERTEX
  5
97
330
96
100
AcDbEntity
  8
Layer 2
 62
     7
420
 16777215
370
    15
100
AcDbVertex
100
AcDb2dVertex
 10
6.248121473524305
 20
8.903868781195746
 30
0.0
  0
VERTEX
  5
98
330
96
100
AcDbEntity
  8
Layer 2
 62
     7
420
 16777215
370
    15
100
AcDbVertex
100
AcDb2dVertex
 10
6.248121473524305
 20
8.982604132758246
 30
0.0
  0
VERTEX
  5
99
330
96
100
AcDbEntity
  8
Layer 2
 62
     7
420
 16777215
370
    15
100
AcDbVertex
100
AcDb2dVertex
 10
9.808946397569445
 20
8.982604132758246
 30
0.0
  0
VERTEX
  5
9A
330
96
100
AcDbEntity
  8
Layer 2
 62
     7
420
 16777215
370
    15
100
AcDbVertex
100
AcDb2dVertex
 10
9.808946397569445
 20
8.903868781195746
 30
0.0
  0
VERTEX
  5
9B
330
96
100
AcDbEntity
  8
Layer 2
 62
     7
420
 16777215
370
    15
100
AcDbVertex
100
AcDb2dVertex
 10
6.248121473524305
 20
8.903868781195746
 30
0.0
  0
SEQEND
  5
9C
330
96
100
AcDbEntity
  8
Layer 2
 62
     7
420
 16777215
370
    15
  0
POLYLINE
  5
9D
330
1F
100
AcDbEntity
  8
Layer 2
 62
     7
420
 16777215
370
    15
100
AcDb2dPolyline
 66
     1
 10
0.0
 20
0.0
 30
0.0
  0
VERTEX
  5
9E
330
9D
100
AcDbEntity
  8
Layer 2
 62
     7
420
 16777215
370
    15
100
AcDbVertex
100
AcDb2dVertex
 10
6.248121473524305
 20
9.238514370388454
 30
0.0
  0
VERTEX
  5
9F
330
9D
100
AcDbEntity
  8
Layer 2
 62
     7
420
 16777215
370
    15
100
AcDbVertex
100
AcDb2dVertex
 10
6.248121473524305
 20
9.317249721950954
 30
0.0
  0
VERTEX
  5
A0
330
9D
100
AcDbEntity
  8
Layer 2
 62
     7
420
 16777215
370
    15
100
AcDbVertex
100
AcDb2dVertex
 10
9.808946397569445
 20
9.317249721950954
 30
0.0
  0
VERTEX
  5
A1
330
9D
100
AcDbEntity
  8
Layer 2
 62
     7
420
 16777215
370
    15
100
AcDbVertex
100
AcDb2dVertex
 10
9.808946397569445
 20
9.238514370388454
 30
0.0
  0
VERTEX
  5
A2
330
9D
100
AcDbEntity
  8
Layer 2
 62
     7
420
 16777215
370
    15
100
AcDbVertex
100
AcDb2dVertex
 10
6.248121473524305
 20
9.238514370388454
 30
0.0
  0
SEQEND
  5
A3
330
9D
100
AcDbEntity
  8
Layer 2
 62
     7
420
 16777215
370
    15
  0
POLYLINE
  5
A4
330
1F
100
AcDbEntity
  8
Layer 2
 62
     7
420
 16777215
370
    15
100
AcDb2dPolyline
 66
     1
 10
0.0
 20
0.0
 30
0.0
  0
VERTEX
  5
A5
330
A4
100
AcDbEntity
  8
Layer 2
 62
     7
420
 16777215
370
    15
100
AcDbVertex
100
AcDb2dVertex
 10
6.248121473524305
 20
9.573159959581163
 30
0.0
  0
VERTEX
  5
A6
330
A4
100
AcDbEntity
  8
Layer 2
 62
     7
420
 16777215
370
    15
100
AcDbVertex
100
AcDb2dVertex
 10
6.248121473524305
 20
9.651895311143663
 30
0.0
  0
VERTEX
  5
A7
330
A4
100
AcDbEntity
  8
Layer 2
 62
     7
420
 16777215
370
    15
100
AcDbVertex
100
AcDb2dVertex
 10
9.808946397569445
 20
9.651895311143663
 30
0.0
  0
VERTEX
  5
A8
330
A4
100
AcDbEntity
  8
Layer 2
 62
     7
420
 16777215
370
    15
100
AcDbVertex
100
AcDb2dVertex
 10
9.808946397569445
 20
9.573159959581163
 30
0.0
  0
VERTEX
  5
A9
330
A4
100
AcDbEntity
  8
Layer 2
 62
     7
420
 16777215
370
    15
100
AcDbVertex
100
AcDb2dVertex
 10
6.248121473524305
 20
9.573159959581163
 30
0.0
  0
SEQEND
  5
AA
330
A4
100
AcDbEntity
  8
Layer 2
 62
     7
420
 16777215
370
    15
  0
POLYLINE
  5
AB
330
1F
100
AcDbEntity
  8
Layer 2
 62
     7
420
 16777215
370
    15
100
AcDb2dPolyline
 66
     1
 10
0.0
 20
0.0
 30
0.0
  0
VERTEX
  5
AC
330
AB
100
AcDbEntity
  8
Layer 2
 62
     7
420
 16777215
370
    15
100
AcDbVertex
100
AcDb2dVertex
 10
6.248121473524305
 20
9.90780554877387
 30
0.0
  0
VERTEX
  5
AD
330
AB
100
AcDbEntity
  8
Layer 2
 62
     7
420
 16777215
370
    15
100
AcDbVertex
100
AcDb2dVertex
 10
6.248121473524305
 20
9.98654090033637
 30
0.0
  0
VERTEX
  5
AE
330
AB
100
AcDbEntity
  8
Layer 2
 62
     7
420
 16777215
370
    15
100
AcDbVertex
100
AcDb2dVertex
 10
9.808946397569445
 20
9.98654090033637
 30
0.0
  0
VERTEX
  5
AF
330
AB
100
AcDbEntity
  8
Layer 2
 62
     7
420
 16777215
370
    15
100
AcDbVertex
100
AcDb2dVertex
 10
9.808946397569445
 20
9.90780554877387
 30
0.0
  0
VERTEX
  5
B0
330
AB
100
AcDbEntity
  8
Layer 2
 62
     7
420
 16777215
370
    15
100
AcDbVertex
100
AcDb2dVertex
 10
6.248121473524305
 20
9.90780554877387
 30
0.0
  0
SEQEND
  5
B1
330
AB
100
AcDbEntity
  8
Layer 2
 62
     7
420
 16777215
370
    15
  0
POLYLINE
  5
B2
330
1F
100
AcDbEntity
  8
Layer 2
 62
     7
420
 16777215
370
    15
100
AcDb2dPolyline
 66
     1
 10
0.0
 20
0.0
 30
0.0
  0
VERTEX
  5
B3
330
B2
100
AcDbEntity
  8
Layer 2
 62
     7
420
 16777215
370
    15
100
AcDbVertex
100
AcDb2dVertex
 10
6.248121473524305
 20
10.24245113796658
 30
0.0
  0
VERTEX
  5
B4
330
B2
100
AcDbEntity
  8
Layer 2
 62
     7
420
 16777215
370
    15
100
AcDbVertex
100
AcDb2dVertex
 10
6.248121473524305
 20
10.32118648952908
 30
0.0
  0
VERTEX
  5
B5
330
B2
100
AcDbEntity
  8
Layer 2
 62
     7
420
 16777215
370
    15
100
AcDbVertex
100
AcDb2dVertex
 10
9.808946397569445
 20
10.32118648952908
 30
0.0
  0
VERTEX
  5
B6
330
B2
100
AcDbEntity
  8
Layer 2
 62
     7
420
 16777215
370
    15
100
AcDbVertex
100
AcDb2dVertex
 10
9.808946397569445
 20
10.24245113796658
 30
0.0
  0
VERTEX
  5
B7
330
B2
100
AcDbEntity
  8
Layer 2
 62
     7
420
 16777215
370
    15
100
AcDbVertex
100
AcDb2dVertex
 10
6.248121473524305
 20
10.24245113796658
 30
0.0
  0
SEQEND
  5
B8
330
B2
100
AcDbEntity
  8
Layer 2
 62
     7
420
 16777215
370
    15
  0
POLYLINE
  5
B9
330
1F
100
AcDbEntity
  8
Layer 2
 62
     7
420
 16777215
370
    15
100
AcDb2dPolyline
 66
     1
 10
0.0
 20
0.0
 30
0.0
  0
VERTEX
  5
BA
330
B9
100
AcDbEntity
  8
Layer 2
 62
     7
420
 16777215
370
    15
100
AcDbVertex
100
AcDb2dVertex
 10
2.356581793891059
 20
10.65583886040582
 30
0.0
  0
VERTEX
  5
BB
330
B9
100
AcDbEntity
  8
Layer 2
 62
     7
420
 16777215
370
    15
100
AcDbVertex
100
AcDb2dVertex
 10
6.09063720703125
 20
10.65583886040582
 30
0.0
  0
VERTEX
  5
BC
330
B9
100
AcDbEntity
  8
Layer 2
 62
     7
420
 16777215
370
    15
100
AcDbVertex
100
AcDb2dVertex
 10
6.09063720703125
 20
10.57709672715929
 30
0.0
  0
VERTEX
  5
BD
330
B9
100
AcDbEntity
  8
Layer 2
 62
     7
420
 16777215
370
    15
100
AcDbVertex
100
AcDb2dVertex
 10
2.45106930202908
 20
10.57709672715929
 30
0.0
  0
VERTEX
  5
BE
330
B9
100
AcDbEntity
  8
Layer 2
 62
     7
420
 16777215
370
    15
100
AcDbVertex
100
AcDb2dVertex
 10
2.45106930202908
 20
10.5278820461697
 30
0.0
  0
VERTEX
  5
BF
330
B9
100
AcDbEntity
  8
Layer 2
 62
     7
420
 16777215
370
    15
100
AcDbVertex
100
AcDb2dVertex
 10
2.356581793891059
 20
10.5278820461697
 30
0.0
  0
VERTEX
  5
C0
330
B9
100
AcDbEntity
  8
Layer 2
 62
     7
420
 16777215
370
    15
100
AcDbVertex
100
AcDb2dVertex
 10
2.356581793891059
 20
10.65583886040582
 30
0.0
  0
SEQEND
  5
C1
330
B9
100
AcDbEntity
  8
Layer 2
 62
     7
420
 16777215
370
    15
  0
POLYLINE
  5
C2
330
1F
100
AcDbEntity
  8
Layer 2
 62
     7
420
 16777215
370
    15
100
AcDb2dPolyline
 66
     1
 10
0.0
 20
0.0
 30
0.0
  0
VERTEX
  5
C3
330
C2
100
AcDbEntity
  8
Layer 2
 62
     7
420
 16777215
370
    15
100
AcDbVertex
100
AcDb2dVertex
 10
2.356581793891059
 20
10.37039777967665
 30
0.0
  0
VERTEX
  5
C4
330
C2
100
AcDbEntity
  8
Layer 2
 62
     7
420
 16777215
370
    15
100
AcDbVertex
100
AcDb2dVertex
 10
2.45106930202908
 20
10.37039777967665
 30
0.0
  0
VERTEX
  5
C5
330
C2
100
AcDbEntity
  8
Layer 2
 62
     7
420
 16777215
370
    15
100
AcDbVertex
100
AcDb2dVertex
 10
2.45106930202908
 20
10.32118648952908
 30
0.0
  0
VERTEX
  5
C6
330
C2
100
AcDbEntity
  8
Layer 2
 62
     7
420
 16777215
370
    15
100
AcDbVertex
100
AcDb2dVertex
 10
6.09063720703125
 20
10.32118648952908
 30
0.0
  0
VERTEX
  5
C7
330
C2
100
AcDbEntity
  8
Layer 2
 62
     7
420
 16777215
370
    15
100
AcDbVertex
100
AcDb2dVertex
 10
6.09063720703125
 20
10.24245113796658
 30
0.0
  0
VERTEX
  5
C8
330
C2
100
AcDbEntity
  8
Layer 2
 62
     7
420
 16777215
370
    15
100
AcDbVertex
100
AcDb2dVertex
 10
2.45106930202908
 20
10.24245113796658
 30
0.0
  0
VERTEX
  5
C9
330
C2
100
AcDbEntity
  8
Layer 2
 62
     7
420
 16777215
370
    15
100
AcDbVertex
100
AcDb2dVertex
 10
2.45106930202908
 20
10.19323984781901
 30
0.0
  0
VERTEX
  5
CA
330
C2
100
AcDbEntity
  8
Layer 2
 62
     7
420
 16777215
370
    15
100
AcDbVertex
100
AcDb2dVertex
 10
2.356581793891059
 20
10.19323984781901
 30
0.0
  0
VERTEX
  5
CB
330
C2
100
AcDbEntity
  8
Layer 2
 62
     7
420
 16777215
370
    15
100
AcDbVertex
100
AcDb2dVertex
 10
2.356581793891059
 20
10.37039777967665
 30
0.0
  0
SEQEND
  5
CC
330
C2
100
AcDbEntity
  8
Layer 2
 62
     7
420
 16777215
370
    15
  0
POLYLINE
  5
CD
330
1F
100
AcDbEntity
  8
Layer 2
 62
     7
420
 16777215
370
    15
100
AcDb2dPolyline
 66
     1
 10
0.0
 20
0.0
 30
0.0
  0
VERTEX
  5
CE
330
CD
100
AcDbEntity
  8
Layer 2
 62
     7
420
 16777215
370
    15
100
AcDbVertex
100
AcDb2dVertex
 10
2.356581793891059
 20
10.03575558132595
 30
0.0
  0
VERTEX
  5
CF
330
CD
100
AcDbEntity
  8
Layer 2
 62
     7
420
 16777215
370
    15
100
AcDbVertex
100
AcDb2dVertex
 10
2.45106930202908
 20
10.03575558132595
 30
0.0
  0
VERTEX
  5
D0
330
CD
100
AcDbEntity
  8
Layer 2
 62
     7
420
 16777215
370
    15
100
AcDbVertex
100
AcDb2dVertex
 10
2.45106930202908
 20
9.98654090033637
 30
0.0
  0
VERTEX
  5
D1
330
CD
100
AcDbEntity
  8
Layer 2
 62
     7
420
 16777215
370
    15
100
AcDbVertex
100
AcDb2dVertex
 10
6.09063720703125
 20
9.98654090033637
 30
0.0
  0
VERTEX
  5
D2
330
CD
100
AcDbEntity
  8
Layer 2
 62
     7
420
 16777215
370
    15
100
AcDbVertex
100
AcDb2dVertex
 10
6.09063720703125
 20
9.90780554877387
 30
0.0
  0
VERTEX
  5
D3
330
CD
100
AcDbEntity
  8
Layer 2
 62
     7
420
 16777215
370
    15
100
AcDbVertex
100
AcDb2dVertex
 10
2.45106930202908
 20
9.90780554877387
 30
0.0
  0
VERTEX
  5
D4
330
CD
100
AcDbEntity
  8
Layer 2
 62
     7
420
 16777215
370
    15
100
AcDbVertex
100
AcDb2dVertex
 10
2.45106930202908
 20
9.858590867784288
 30
0.0
  0
VERTEX
  5
D5
330
CD
100
AcDbEntity
  8
Layer 2
 62
     7
420
 16777215
370
    15
100
AcDbVertex
100
AcDb2dVertex
 10
2.356581793891059
 20
9.858590867784288
 30
0.0
  0
VERTEX
  5
D6
330
CD
100
AcDbEntity
  8
Layer 2
 62
     7
420
 16777215
370
    15
100
AcDbVertex
100
AcDb2dVertex
 10
2.356581793891059
 20
10.03575558132595
 30
0.0
  0
SEQEND
  5
D7
330
CD
100
AcDbEntity
  8
Layer 2
 62
     7
420
 16777215
370
    15
  0
POLYLINE
  5
D8
330
1F
100
AcDbEntity
  8
Layer 2
 62
     7
420
 16777215
370
    15
100
AcDb2dPolyline
 66
     1
 10
0.0
 20
0.0
 30
0.0
  0
VERTEX
  5
D9
330
D8
100
AcDbEntity
  8
Layer 2
 62
     7
420
 16777215
370
    15
100
AcDbVertex
100
AcDb2dVertex
 10
2.356581793891059
 20
9.701106601291231
 30
0.0
  0
VERTEX
  5
DA
330
D8
100
AcDbEntity
  8
Layer 2
 62
     7
420
 16777215
370
    15
100
AcDbVertex
100
AcDb2dVertex
 10
2.45106930202908
 20
9.701106601291231
 30
0.0
  0
VERTEX
  5
DB
330
D8
100
AcDbEntity
  8
Layer 2
 62
     7
420
 16777215
370
    15
100
AcDbVertex
100
AcDb2dVertex
 10
2.45106930202908
 20
9.651895311143663
 30
0.0
  0
VERTEX
  5
DC
330
D8
100
AcDbEntity
  8
Layer 2
 62
     7
420
 16777215
370
    15
100
AcDbVertex
100
AcDb2dVertex
 10
6.09063720703125
 20
9.651895311143663
 30
0.0
  0
VERTEX
  5
DD
330
D8
100
AcDbEntity
  8
Layer 2
 62
     7
420
 16777215
370
    15
100
AcDbVertex
100
AcDb2dVertex
 10
6.09063720703125
 20
9.573159959581163
 30
0.0
  0
VERTEX
  5
DE
330
D8
100
AcDbEntity
  8
Layer 2
 62
     7
420
 16777215
370
    15
100
AcDbVertex
100
AcDb2dVertex
 10
2.45106930202908
 20
9.573159959581163
 30
0.0
  0
VERTEX
  5
DF
330
D8
100
AcDbEntity
  8
Layer 2
 62
     7
420
 16777215
370
    15
100
AcDbVertex
100
AcDb2dVertex
 10
2.45106930202908
 20
9.523948669433594
 30
0.0
  0
VERTEX
  5
E0
330
D8
100
AcDbEntity
  8
Layer 2
 62
     7
420
 16777215
370
    15
100
AcDbVertex
100
AcDb2dVertex
 10
2.356581793891059
 20
9.523948669433594
 30
0.0
  0
VERTEX
  5
E1
330
D8
100
AcDbEntity
  8
Layer 2
 62
     7
420
 16777215
370
    15
100
AcDbVertex
100
AcDb2dVertex
 10
2.356581793891059
 20
9.701106601291231
 30
0.0
  0
SEQEND
  5
E2
330
D8
100
AcDbEntity
  8
Layer 2
 62
     7
420
 16777215
370
    15
  0
POLYLINE
  5
E3
330
1F
100
AcDbEntity
  8
Layer 2
 62
     7
420
 16777215
370
    15
100
AcDb2dPolyline
 66
     1
 10
0.0
 20
0.0
 30
0.0
  0
VERTEX
  5
E4
330
E3
100
AcDbEntity
  8
Layer 2
 62
     7
420
 16777215
370
    15
100
AcDbVertex
100
AcDb2dVertex
 10
2.356581793891059
 20
9.366464402940538
 30
0.0
  0
VERTEX
  5
E5
330
E3
100
AcDbEntity
  8
Layer 2
 62
     7
420
 16777215
370
    15
100
AcDbVertex
100
AcDb2dVertex
 10
2.45106930202908
 20
9.366464402940538
 30
0.0
  0
VERTEX
  5
E6
330
E3
100
AcDbEntity
  8
Layer 2
 62
     7
420
 16777215
370
    15
100
AcDbVertex
100
AcDb2dVertex
 10
2.45106930202908
 20
9.317249721950954
 30
0.0
  0
VERTEX
  5
E7
330
E3
100
AcDbEntity
  8
Layer 2
 62
     7
420
 16777215
370
    15
100
AcDbVertex
100
AcDb2dVertex
 10
6.09063720703125
 20
9.317249721950954
 30
0.0
  0
VERTEX
  5
E8
330
E3
100
AcDbEntity
  8
Layer 2
 62
     7
420
 16777215
370
    15
100
AcDbVertex
100
AcDb2dVertex
 10
6.09063720703125
 20
9.238514370388454
 30
0.0
  0
VERTEX
  5
E9
330
E3
100
AcDbEntity
  8
Layer 2
 62
     7
420
 16777215
370
    15
100
AcDbVertex
100
AcDb2dVertex
 10
2.45106930202908
 20
9.238514370388454
 30
0.0
  0
VERTEX
  5
EA
330
E3
100
AcDbEntity
  8
Layer 2
 62
     7
420
 16777215
370
    15
100
AcDbVertex
100
AcDb2dVertex
 10
2.45106930202908
 20
9.18929968939887
 30
0.0
  0
VERTEX
  5
EB
330
E3
100
AcDbEntity
  8
Layer 2
 62
     7
420
 16777215
370
    15
100
AcDbVertex
100
AcDb2dVertex
 10
2.356581793891059
 20
9.18929968939887
 30
0.0
  0
VERTEX
  5
EC
330
E3
100
AcDbEntity
  8
Layer 2
 62
     7
420
 16777215
370
    15
100
AcDbVertex
100
AcDb2dVertex
 10
2.356581793891059
 20
9.366464402940538
 30
0.0
  0
SEQEND
  5
ED
330
E3
100
AcDbEntity
  8
Layer 2
 62
     7
420
 16777215
370
    15
  0
POLYLINE
  5
EE
330
1F
100
AcDbEntity
  8
Layer 2
 62
     7
420
 16777215
370
    15
100
AcDb2dPolyline
 66
     1
 10
0.0
 20
0.0
 30
0.0
  0
VERTEX
  5
EF
330
EE
100
AcDbEntity
  8
Layer 2
 62
     7
420
 16777215
370
    15
100
AcDbVertex
100
AcDb2dVertex
 10
2.356581793891059
 20
9.031815422905815
 30
0.0
  0
VERTEX
  5
F0
330
EE
100
AcDbEntity
  8
Layer 2
 62
     7
420
 16777215
370
    15
100
AcDbVertex
100
AcDb2dVertex
 10
2.45106930202908
 20
9.031815422905815
 30
0.0
  0
VERTEX
  5
F1
330
EE
100
AcDbEntity
  8
Layer 2
 62
     7
420
 16777215
370
    15
100
AcDbVertex
100
AcDb2dVertex
 10
2.45106930202908
 20
8.982604132758246
 30
0.0
  0
VERTEX
  5
F2
330
EE
100
AcDbEntity
  8
Layer 2
 62
     7
420
 16777215
370
    15
100
AcDbVertex
100
AcDb2dVertex
 10
6.09063720703125
 20
8.982604132758246
 30
0.0
  0
VERTEX
  5
F3
330
EE
100
AcDbEntity
  8
Layer 2
 62
     7
420
 16777215
370
    15
100
AcDbVertex
100
AcDb2dVertex
 10
6.09063720703125
 20
8.903868781195746
 30
0.0
  0
VERTEX
  5
F4
330
EE
100
AcDbEntity
  8
Layer 2
 62
     7
420
 16777215
370
    15
100
AcDbVertex
100
AcDb2dVertex
 10
2.45106930202908
 20
8.903868781195746
 30
0.0
  0
VERTEX
  5
F5
330
EE
100
AcDbEntity
  8
Layer 2
 62
     7
420
 16777215
370
    15
100
AcDbVertex
100
AcDb2dVertex
 10
2.45106930202908
 20
8.854657491048176
 30
0.0
  0
VERTEX
  5
F6
330
EE
100
AcDbEntity
  8
Layer 2
 62
     7
420
 16777215
370
    15
100
AcDbVertex
100
AcDb2dVertex
 10
2.356581793891059
 20
8.854657491048176
 30
0.0
  0
VERTEX
  5
F7
330
EE
100
AcDbEntity
  8
Layer 2
 62
     7
420
 16777215
370
    15
100
AcDbVertex
100
AcDb2dVertex
 10
2.356581793891059
 20
9.031815422905815
 30
0.0
  0
SEQEND
  5
F8
330
EE
100
AcDbEntity
  8
Layer 2
 62
     7
420
 16777215
370
    15
  0
POLYLINE
  5
F9
330
1F
100
AcDbEntity
  8
Layer 2
 62
     7
420
 16777215
370
    15
100
AcDb2dPolyline
 66
     1
 10
0.0
 20
0.0
 30
0.0
  0
VERTEX
  5
FA
330
F9
100
AcDbEntity
  8
Layer 2
 62
     7
420
 16777215
370
    15
100
AcDbVertex
100
AcDb2dVertex
 10
2.356581793891059
 20
8.69717322455512
 30
0.0
  0
VERTEX
  5
FB
330
F9
100
AcDbEntity
  8
Layer 2
 62
     7
420
 16777215
370
    15
100
AcDbVertex
100
AcDb2dVertex
 10
2.45106930202908
 20
8.69717322455512
 30
0.0
  0
VERTEX
  5
FC
330
F9
100
AcDbEntity
  8
Layer 2
 62
     7
420
 16777215
370
    15
100
AcDbVertex
100
AcDb2dVertex
 10
2.45106930202908
 20
8.647958543565538
 30
0.0
  0
VERTEX
  5
FD
330
F9
100
AcDbEntity
  8
Layer 2
 62
     7
420
 16777215
370
    15
100
AcDbVertex
100
AcDb2dVertex
 10
6.09063720703125
 20
8.647958543565538
 30
0.0
  0
VERTEX
  5
FE
330
F9
100
AcDbEntity
  8
Layer 2
 62
     7
420
 16777215
370
    15
100
AcDbVertex
100
AcDb2dVertex
 10
6.09063720703125
 20
8.569222344292534
 30
0.0
  0
VERTEX
  5
FF
330
F9
100
AcDbEntity
  8
Layer 2
 62
     7
420
 16777215
370
    15
100
AcDbVertex
100
AcDb2dVertex
 10
2.45106930202908
 20
8.569222344292534
 30
0.0
  0
VERTEX
  5
100
330
F9
100
AcDbEntity
  8
Layer 2
 62
     7
420
 16777215
370
    15
100
AcDbVertex
100
AcDb2dVertex
 10
2.45106930202908
 20
8.520008511013454
 30
0.0
  0
VERTEX
  5
101
330
F9
100
AcDbEntity
  8
Layer 2
 62
     7
420
 16777215
370
    15
100
AcDbVertex
100
AcDb2dVertex
 10
2.356581793891059
 20
8.520008511013454
 30
0.0
  0
VERTEX
  5
102
330
F9
100
AcDbEntity
  8
Layer 2
 62
     7
420
 16777215
370
    15
100
AcDbVertex
100
AcDb2dVertex
 10
2.356581793891059
 20
8.69717322455512
 30
0.0
  0
SEQEND
  5
103
330
F9
100
AcDbEntity
  8
Layer 2
 62
     7
420
 16777215
370
    15
  0
POLYLINE
  5
104
330
1F
100
AcDbEntity
  8
Layer 2
 62
     7
420
 16777215
370
    15
100
AcDb2dPolyline
 66
     1
 10
0.0
 20
0.0
 30
0.0
  0
VERTEX
  5
105
330
104
100
AcDbEntity
  8
Layer 2
 62
     7
420
 16777215
370
    15
100
AcDbVertex
100
AcDb2dVertex
 10
2.356581793891059
 20
8.362524244520399
 30
0.0
  0
VERTEX
  5
106
330
104
100
AcDbEntity
  8
Layer 2
 62
     7
420
 16777215
370
    15
100
AcDbVertex
100
AcDb2dVertex
 10
2.45106930202908
 20
8.362524244520399
 30
0.0
  0
VERTEX
  5
107
330
104
100
AcDbEntity
  8
Layer 2
 62
     7
420
 16777215
370
    15
100
AcDbVertex
100
AcDb2dVertex
 10
2.45106930202908
 20
8.313312106662327
 30
0.0
  0
VERTEX
  5
108
330
104
100
AcDbEntity
  8
Layer 2
 62
     7
420
 16777215
370
    15
100
AcDbVertex
100
AcDb2dVertex
 10
6.09063720703125
 20
8.313312106662327
 30
0.0
  0
VERTEX
  5
109
330
104
100
AcDbEntity
  8
Layer 2
 62
     7
420
 16777215
370
    15
100
AcDbVertex
100
AcDb2dVertex
 10
6.09063720703125
 20
8.234576755099827
 30
0.0
  0
VERTEX
  5
10A
330
104
100
AcDbEntity
  8
Layer 2
 62
     7
420
 16777215
370
    15
100
AcDbVertex
100
AcDb2dVertex
 10
2.45106930202908
 20
8.234576755099827
 30
0.0
  0
VERTEX
  5
10B
330
104
100
AcDbEntity
  8
Layer 2
 62
     7
420
 16777215
370
    15
100
AcDbVertex
100
AcDb2dVertex
 10
2.45106930202908
 20
8.18536631266276
 30
0.0
  0
VERTEX
  5
10C
330
104
100
AcDbEntity
  8
Layer 2
 62
     7
420
 16777215
370
    15
100
AcDbVertex
100
AcDb2dVertex
 10
2.356581793891059
 20
8.18536631266276
 30
0.0
  0
VERTEX
  5
10D
330
104
100
AcDbEntity
  8
Layer 2
 62
     7
420
 16777215
370
    15
100
AcDbVertex
100
AcDb2dVertex
 10
2.356581793891059
 20
8.362524244520399
 30
0.0
  0
SEQEND
  5
10E
330
104
100
AcDbEntity
  8
Layer 2
 62
     7
420
 16777215
370
    15
  0
POLYLINE
  5
10F
330
1F
100
AcDbEntity
  8
Layer 2
 62
     7
420
 16777215
370
    15
100
AcDb2dPolyline
 66
     1
 10
0.0
 20
0.0
 30
0.0
  0
VERTEX
  5
110
330
10F
100
AcDbEntity
  8
Layer 2
 62
     7
420
 16777215
370
    15
100
AcDbVertex
100
AcDb2dVertex
 10
2.356581793891059
 20
8.027882046169704
 30
0.0
  0
VERTEX
  5
111
330
10F
100
AcDbEntity
  8
Layer 2
 62
     7
420
 16777215
370
    15
100
AcDbVertex
100
AcDb2dVertex
 10
2.45106930202908
 20
8.027882046169704
 30
0.0
  0
VERTEX
  5
112
330
10F
100
AcDbEntity
  8
Layer 2
 62
     7
420
 16777215
370
    15
100
AcDbVertex
100
AcDb2dVertex
 10
2.45106930202908
 20
7.978666517469618
 30
0.0
  0
VERTEX
  5
113
330
10F
100
AcDbEntity
  8
Layer 2
 62
     7
420
 16777215
370
    15
100
AcDbVertex
100
AcDb2dVertex
 10
6.09063720703125
 20
7.978666517469618
 30
0.0
  0
VERTEX
  5
114
330
10F
100
AcDbEntity
  8
Layer 2
 62
     7
420
 16777215
370
    15
100
AcDbVertex
100
AcDb2dVertex
 10
6.09063720703125
 20
7.899931165907118
 30
0.0
  0
VERTEX
  5
115
330
10F
100
AcDbEntity
  8
Layer 2
 62
     7
420
 16777215
370
    15
100
AcDbVertex
100
AcDb2dVertex
 10
2.45106930202908
 20
7.899931165907118
 30
0.0
  0
VERTEX
  5
116
330
10F
100
AcDbEntity
  8
Layer 2
 62
     7
420
 16777215
370
    15
100
AcDbVertex
100
AcDb2dVertex
 10
2.45106930202908
 20
7.850717332628038
 30
0.0
  0
VERTEX
  5
117
330
10F
100
AcDbEntity
  8
Layer 2
 62
     7
420
 16777215
370
    15
100
AcDbVertex
100
AcDb2dVertex
 10
2.356581793891059
 20
7.850717332628038
 30
0.0
  0
VERTEX
  5
118
330
10F
100
AcDbEntity
  8
Layer 2
 62
     7
420
 16777215
370
    15
100
AcDbVertex
100
AcDb2dVertex
 10
2.356581793891059
 20
8.027882046169704
 30
0.0
  0
SEQEND
  5
119
330
10F
100
AcDbEntity
  8
Layer 2
 62
     7
420
 16777215
370
    15
  0
POLYLINE
  5
11A
330
1F
100
AcDbEntity
  8
Layer 2
 62
     7
420
 16777215
370
    15
100
AcDb2dPolyline
 66
     1
 10
0.0
 20
0.0
 30
0.0
  0
VERTEX
  5
11B
330
11A
100
AcDbEntity
  8
Layer 2
 62
     7
420
 16777215
370
    15
100
AcDbVertex
100
AcDb2dVertex
 10
2.356581793891059
 20
7.693233066134982
 30
0.0
  0
VERTEX
  5
11C
330
11A
100
AcDbEntity
  8
Layer 2
 62
     7
420
 16777215
370
    15
100
AcDbVertex
100
AcDb2dVertex
 10
2.45106930202908
 20
7.693233066134982
 30
0.0
  0
VERTEX
  5
11D
330
11A
100
AcDbEntity
  8
Layer 2
 62
     7
420
 16777215
370
    15
100
AcDbVertex
100
AcDb2dVertex
 10
2.45106930202908
 20
7.644020928276909
 30
0.0
  0
VERTEX
  5
11E
330
11A
100
AcDbEntity
  8
Layer 2
 62
     7
420
 16777215
370
    15
100
AcDbVertex
100
AcDb2dVertex
 10
6.09063720703125
 20
7.644020928276909
 30
0.0
  0
VERTEX
  5
11F
330
11A
100
AcDbEntity
  8
Layer 2
 62
     7
420
 16777215
370
    15
100
AcDbVertex
100
AcDb2dVertex
 10
6.09063720703125
 20
7.565285576714409
 30
0.0
  0
VERTEX
  5
120
330
11A
100
AcDbEntity
  8
Layer 2
 62
     7
420
 16777215
370
    15
100
AcDbVertex
100
AcDb2dVertex
 10
2.45106930202908
 20
7.565285576714409
 30
0.0
  0
VERTEX
  5
121
330
11A
100
AcDbEntity
  8
Layer 2
 62
     7
420
 16777215
370
    15
100
AcDbVertex
100
AcDb2dVertex
 10
2.45106930202908
 20
7.516075134277344
 30
0.0
  0
VERTEX
  5
122
330
11A
100
AcDbEntity
  8
Layer 2
 62
     7
420
 16777215
370
    15
100
AcDbVertex
100
AcDb2dVertex
 10
2.356581793891059
 20
7.516075134277344
 30
0.0
  0
VERTEX
  5
123
330
11A
100
AcDbEntity
  8
Layer 2
 62
     7
420
 16777215
370
    15
100
AcDbVertex
100
AcDb2dVertex
 10
2.356581793891059
 20
7.693233066134982
 30
0.0
  0
SEQEND
  5
124
330
11A
100
AcDbEntity
  8
Layer 2
 62
     7
420
 16777215
370
    15
  0
POLYLINE
  5
125
330
1F
100
AcDbEntity
  8
Layer 2
 62
     7
420
 16777215
370
    15
100
AcDb2dPolyline
 66
     1
 10
0.0
 20
0.0
 30
0.0
  0
VERTEX
  5
126
330
125
100
AcDbEntity
  8
Layer 2
 62
     7
420
 16777215
370
    15
100
AcDbVertex
100
AcDb2dVertex
 10
2.356581793891059
 20
7.358590867784288
 30
0.0
  0
VERTEX
  5
127
330
125
100
AcDbEntity
  8
Layer 2
 62
     7
420
 16777215
370
    15
100
AcDbVertex
100
AcDb2dVertex
 10
2.45106930202908
 20
7.358590867784288
 30
0.0
  0
VERTEX
  5
128
330
125
100
AcDbEntity
  8
Layer 2
 62
     7
420
 16777215
370
    15
100
AcDbVertex
100
AcDb2dVertex
 10
2.45106930202908
 20
7.309375339084201
 30
0.0
  0
VERTEX
  5
129
330
125
100
AcDbEntity
  8
Layer 2
 62
     7
420
 16777215
370
    15
100
AcDbVertex
100
AcDb2dVertex
 10
6.09063720703125
 20
7.309375339084201
 30
0.0
  0
VERTEX
  5
12A
330
125
100
AcDbEntity
  8
Layer 2
 62
     7
420
 16777215
370
    15
100
AcDbVertex
100
AcDb2dVertex
 10
6.09063720703125
 20
7.230639987521701
 30
0.0
  0
VERTEX
  5
12B
330
125
100
AcDbEntity
  8
Layer 2
 62
     7
420
 16777215
370
    15
100
AcDbVertex
100
AcDb2dVertex
 10
2.45106930202908
 20
7.230639987521701
 30
0.0
  0
VERTEX
  5
12C
330
125
100
AcDbEntity
  8
Layer 2
 62
     7
420
 16777215
370
    15
100
AcDbVertex
100
AcDb2dVertex
 10
2.45106930202908
 20
7.181426154242621
 30
0.0
  0
VERTEX
  5
12D
330
125
100
AcDbEntity
  8
Layer 2
 62
     7
420
 16777215
370
    15
100
AcDbVertex
100
AcDb2dVertex
 10
2.356581793891059
 20
7.181426154242621
 30
0.0
  0
VERTEX
  5
12E
330
125
100
AcDbEntity
  8
Layer 2
 62
     7
420
 16777215
370
    15
100
AcDbVertex
100
AcDb2dVertex
 10
2.356581793891059
 20
7.358590867784288
 30
0.0
  0
SEQEND
  5
12F
330
125
100
AcDbEntity
  8
Layer 2
 62
     7
420
 16777215
370
    15
  0
POLYLINE
  5
130
330
1F
100
AcDbEntity
  8
Layer 2
 62
     7
420
 16777215
370
    15
100
AcDb2dPolyline
 66
     1
 10
0.0
 20
0.0
 30
0.0
  0
VERTEX
  5
131
330
130
100
AcDbEntity
  8
Layer 2
 62
     7
420
 16777215
370
    15
100
AcDbVertex
100
AcDb2dVertex
 10
2.356581793891059
 20
7.023941887749565
 30
0.0
  0
VERTEX
  5
132
330
130
100
AcDbEntity
  8
Layer 2
 62
     7
420
 16777215
370
    15
100
AcDbVertex
100
AcDb2dVertex
 10
2.45106930202908
 20
7.023941887749565
 30
0.0
  0
VERTEX
  5
133
330
130
100
AcDbEntity
  8
Layer 2
 62
     7
420
 16777215
370
    15
100
AcDbVertex
100
AcDb2dVertex
 10
2.45106930202908
 20
6.974729749891493
 30
0.0
  0
VERTEX
  5
134
330
130
100
AcDbEntity
  8
Layer 2
 62
     7
420
 16777215
370
    15
100
AcDbVertex
100
AcDb2dVertex
 10
6.09063720703125
 20
6.974729749891493
 30
0.0
  0
VERTEX
  5
135
330
130
100
AcDbEntity
  8
Layer 2
 62
     7
420
 16777215
370
    15
100
AcDbVertex
100
AcDb2dVertex
 10
6.09063720703125
 20
6.895994398328993
 30
0.0
  0
VERTEX
  5
136
330
130
100
AcDbEntity
  8
Layer 2
 62
     7
420
 16777215
370
    15
100
AcDbVertex
100
AcDb2dVertex
 10
2.45106930202908
 20
6.895994398328993
 30
0.0
  0
VERTEX
  5
137
330
130
100
AcDbEntity
  8
Layer 2
 62
     7
420
 16777215
370
    15
100
AcDbVertex
100
AcDb2dVertex
 10
2.45106930202908
 20
6.846783955891927
 30
0.0
  0
VERTEX
  5
138
330
130
100
AcDbEntity
  8
Layer 2
 62
     7
420
 16777215
370
    15
100
AcDbVertex
100
AcDb2dVertex
 10
2.356581793891059
 20
6.846783955891927
 30
0.0
  0
VERTEX
  5
139
330
130
100
AcDbEntity
  8
Layer 2
 62
     7
420
 16777215
370
    15
100
AcDbVertex
100
AcDb2dVertex
 10
2.356581793891059
 20
7.023941887749565
 30
0.0
  0
SEQEND
  5
13A
330
130
100
AcDbEntity
  8
Layer 2
 62
     7
420
 16777215
370
    15
  0
POLYLINE
  5
13B
330
1F
100
AcDbEntity
  8
Layer 2
 62
     7
420
 16777215
370
    15
100
AcDb2dPolyline
 66
     1
 10
0.0
 20
0.0
 30
0.0
  0
VERTEX
  5
13C
330
13B
100
AcDbEntity
  8
Layer 2
 62
     7
420
 16777215
370
    15
100
AcDbVertex
100
AcDb2dVertex
 10
2.356581793891059
 20
6.689299689398871
 30
0.0
  0
VERTEX
  5
13D
330
13B
100
AcDbEntity
  8
Layer 2
 62
     7
420
 16777215
370
    15
100
AcDbVertex
100
AcDb2dVertex
 10
2.45106930202908
 20
6.689299689398871
 30
0.0
  0
VERTEX
  5
13E
330
13B
100
AcDbEntity
  8
Layer 2
 62
     7
420
 16777215
370
    15
100
AcDbVertex
100
AcDb2dVertex
 10
2.45106930202908
 20
6.640084160698784
 30
0.0
  0
VERTEX
  5
13F
330
13B
100
AcDbEntity
  8
Layer 2
 62
     7
420
 16777215
370
    15
100
AcDbVertex
100
AcDb2dVertex
 10
6.09063720703125
 20
6.640084160698784
 30
0.0
  0
VERTEX
  5
140
330
13B
100
AcDbEntity
  8
Layer 2
 62
     7
420
 16777215
370
    15
100
AcDbVertex
100
AcDb2dVertex
 10
6.09063720703125
 20
6.561348809136284
 30
0.0
  0
VERTEX
  5
141
330
13B
100
AcDbEntity
  8
Layer 2
 62
     7
420
 16777215
370
    15
100
AcDbVertex
100
AcDb2dVertex
 10
2.45106930202908
 20
6.561348809136284
 30
0.0
  0
VERTEX
  5
142
330
13B
100
AcDbEntity
  8
Layer 2
 62
     7
420
 16777215
370
    15
100
AcDbVertex
100
AcDb2dVertex
 10
2.45106930202908
 20
6.512134975857204
 30
0.0
  0
VERTEX
  5
143
330
13B
100
AcDbEntity
  8
Layer 2
 62
     7
420
 16777215
370
    15
100
AcDbVertex
100
AcDb2dVertex
 10
2.356581793891059
 20
6.512134975857204
 30
0.0
  0
VERTEX
  5
144
330
13B
100
AcDbEntity
  8
Layer 2
 62
     7
420
 16777215
370
    15
100
AcDbVertex
100
AcDb2dVertex
 10
2.356581793891059
 20
6.689299689398871
 30
0.0
  0
SEQEND
  5
145
330
13B
100
AcDbEntity
  8
Layer 2
 62
     7
420
 16777215
370
    15
  0
POLYLINE
  5
146
330
1F
100
AcDbEntity
  8
Layer 2
 62
     7
420
 16777215
370
    15
100
AcDb2dPolyline
 66
     1
 10
0.0
 20
0.0
 30
0.0
  0
VERTEX
  5
147
330
146
100
AcDbEntity
  8
Layer 2
 62
     7
420
 16777215
370
    15
100
AcDbVertex
100
AcDb2dVertex
 10
2.356581793891059
 20
6.354650709364149
 30
0.0
  0
VERTEX
  5
148
330
146
100
AcDbEntity
  8
Layer 2
 62
     7
420
 16777215
370
    15
100
AcDbVertex
100
AcDb2dVertex
 10
2.45106930202908
 20
6.354650709364149
 30
0.0
  0
VERTEX
  5
149
330
146
100
AcDbEntity
  8
Layer 2
 62
     7
420
 16777215
370
    15
100
AcDbVertex
100
AcDb2dVertex
 10
2.45106930202908
 20
6.305438571506076
 30
0.0
  0
VERTEX
  5
14A
330
146
100
AcDbEntity
  8
Layer 2
 62
     7
420
 16777215
370
    15
100
AcDbVertex
100
AcDb2dVertex
 10
6.09063720703125
 20
6.305438571506076
 30
0.0
  0
VERTEX
  5
14B
330
146
100
AcDbEntity
  8
Layer 2
 62
     7
420
 16777215
370
    15
100
AcDbVertex
100
AcDb2dVertex
 10
6.09063720703125
 20
6.226703219943576
 30
0.0
  0
VERTEX
  5
14C
330
146
100
AcDbEntity
  8
Layer 2
 62
     7
420
 16777215
370
    15
100
AcDbVertex
100
AcDb2dVertex
 10
2.45106930202908
 20
6.226703219943576
 30
0.0
  0
VERTEX
  5
14D
330
146
100
AcDbEntity
  8
Layer 2
 62
     7
420
 16777215
370
    15
100
AcDbVertex
100
AcDb2dVertex
 10
2.45106930202908
 20
6.17749277750651
 30
0.0
  0
VERTEX
  5
14E
330
146
100
AcDbEntity
  8
Layer 2
 62
     7
420
 16777215
370
    15
100
AcDbVertex
100
AcDb2dVertex
 10
2.356581793891059
 20
6.17749277750651
 30
0.0
  0
VERTEX
  5
14F
330
146
100
AcDbEntity
  8
Layer 2
 62
     7
420
 16777215
370
    15
100
AcDbVertex
100
AcDb2dVertex
 10
2.356581793891059
 20
6.354650709364149
 30
0.0
  0
SEQEND
  5
150
330
146
100
AcDbEntity
  8
Layer 2
 62
     7
420
 16777215
370
    15
  0
POLYLINE
  5
151
330
1F
100
AcDbEntity
  8
Layer 2
 62
     7
420
 16777215
370
    15
100
AcDb2dPolyline
 66
     1
 10
0.0
 20
0.0
 30
0.0
  0
VERTEX
  5
152
330
151
100
AcDbEntity
  8
Layer 2
 62
     7
420
 16777215
370
    15
100
AcDbVertex
100
AcDb2dVertex
 10
2.356581793891059
 20
6.020008511013454
 30
0.0
  0
VERTEX
  5
153
330
151
100
AcDbEntity
  8
Layer 2
 62
     7
420
 16777215
370
    15
100
AcDbVertex
100
AcDb2dVertex
 10
2.45106930202908
 20
6.020008511013454
 30
0.0
  0
VERTEX
  5
154
330
151
100
AcDbEntity
  8
Layer 2
 62
     7
420
 16777215
370
    15
100
AcDbVertex
100
AcDb2dVertex
 10
2.45106930202908
 20
5.970792982313368
 30
0.0
  0
VERTEX
  5
155
330
151
100
AcDbEntity
  8
Layer 2
 62
     7
420
 16777215
370
    15
100
AcDbVertex
100
AcDb2dVertex
 10
6.09063720703125
 20
5.970792982313368
 30
0.0
  0
VERTEX
  5
156
330
151
100
AcDbEntity
  8
Layer 2
 62
     7
420
 16777215
370
    15
100
AcDbVertex
100
AcDb2dVertex
 10
6.09063720703125
 20
5.892057630750868
 30
0.0
  0
VERTEX
  5
157
330
151
100
AcDbEntity
  8
Layer 2
 62
     7
420
 16777215
370
    15
100
AcDbVertex
100
AcDb2dVertex
 10
2.45106930202908
 20
5.892057630750868
 30
0.0
  0
VERTEX
  5
158
330
151
100
AcDbEntity
  8
Layer 2
 62
     7
420
 16777215
370
    15
100
AcDbVertex
100
AcDb2dVertex
 10
2.45106930202908
 20
5.842843797471788
 30
0.0
  0
VERTEX
  5
159
330
151
100
AcDbEntity
  8
Layer 2
 62
     7
420
 16777215
370
    15
100
AcDbVertex
100
AcDb2dVertex
 10
2.356581793891059
 20
5.842843797471788
 30
0.0
  0
VERTEX
  5
15A
330
151
100
AcDbEntity
  8
Layer 2
 62
     7
420
 16777215
370
    15
100
AcDbVertex
100
AcDb2dVertex
 10
2.356581793891059
 20
6.020008511013454
 30
0.0
  0
SEQEND
  5
15B
330
151
100
AcDbEntity
  8
Layer 2
 62
     7
420
 16777215
370
    15
  0
POLYLINE
  5
15C
330
1F
100
AcDbEntity
  8
Layer 2
 62
     7
420
 16777215
370
    15
100
AcDb2dPolyline
 66
     1
 10
0.0
 20
0.0
 30
0.0
  0
VERTEX
  5
15D
330
15C
100
AcDbEntity
  8
Layer 2
 62
     7
420
 16777215
370
    15
100
AcDbVertex
100
AcDb2dVertex
 10
2.356581793891059
 20
5.685359530978732
 30
0.0
  0
VERTEX
  5
15E
330
15C
100
AcDbEntity
  8
Layer 2
 62
     7
420
 16777215
370
    15
100
AcDbVertex
100
AcDb2dVertex
 10
2.45106930202908
 20
5.685359530978732
 30
0.0
  0
VERTEX
  5
15F
330
15C
100
AcDbEntity
  8
Layer 2
 62
     7
420
 16777215
370
    15
100
AcDbVertex
100
AcDb2dVertex
 10
2.45106930202908
 20
5.63614739312066
 30
0.0
  0
VERTEX
  5
160
330
15C
100
AcDbEntity
  8
Layer 2
 62
     7
420
 16777215
370
    15
100
AcDbVertex
100
AcDb2dVertex
 10
6.09063720703125
 20
5.63614739312066
 30
0.0
  0
VERTEX
  5
161
330
15C
100
AcDbEntity
  8
Layer 2
 62
     7
420
 16777215
370
    15
100
AcDbVertex
100
AcDb2dVertex
 10
6.09063720703125
 20
5.55741204155816
 30
0.0
  0
VERTEX
  5
162
330
15C
100
AcDbEntity
  8
Layer 2
 62
     7
420
 16777215
370
    15
100
AcDbVertex
100
AcDb2dVertex
 10
2.45106930202908
 20
5.55741204155816
 30
0.0
  0
VERTEX
  5
163
330
15C
100
AcDbEntity
  8
Layer 2
 62
     7
420
 16777215
370
    15
100
AcDbVertex
100
AcDb2dVertex
 10
2.45106930202908
 20
5.508201599121094
 30
0.0
  0
VERTEX
  5
164
330
15C
100
AcDbEntity
  8
Layer 2
 62
     7
420
 16777215
370
    15
100
AcDbVertex
100
AcDb2dVertex
 10
2.356581793891059
 20
5.508201599121094
 30
0.0
  0
VERTEX
  5
165
330
15C
100
AcDbEntity
  8
Layer 2
 62
     7
420
 16777215
370
    15
100
AcDbVertex
100
AcDb2dVertex
 10
2.356581793891059
 20
5.685359530978732
 30
0.0
  0
SEQEND
  5
166
330
15C
100
AcDbEntity
  8
Layer 2
 62
     7
420
 16777215
370
    15
  0
POLYLINE
  5
167
330
1F
100
AcDbEntity
  8
Layer 2
 62
     7
420
 16777215
370
    15
100
AcDb2dPolyline
 66
     1
 10
0.0
 20
0.0
 30
0.0
  0
VERTEX
  5
168
330
167
100
AcDbEntity
  8
Layer 2
 62
     7
420
 16777215
370
    15
100
AcDbVertex
100
AcDb2dVertex
 10
2.356581793891059
 20
5.22276136610243
 30
0.0
  0
VERTEX
  5
169
330
167
100
AcDbEntity
  8
Layer 2
 62
     7
420
 16777215
370
    15
100
AcDbVertex
100
AcDb2dVertex
 10
2.356581793891059
 20
5.350717332628038
 30
0.0
  0
VERTEX
  5
16A
330
167
100
AcDbEntity
  8
Layer 2
 62
     7
420
 16777215
370
    15
100
AcDbVertex
100
AcDb2dVertex
 10
2.45106930202908
 20
5.350717332628038
 30
0.0
  0
VERTEX
  5
16B
330
167
100
AcDbEntity
  8
Layer 2
 62
     7
420
 16777215
370
    15
100
AcDbVertex
100
AcDb2dVertex
 10
2.45106930202908
 20
5.301501803927951
 30
0.0
  0
VERTEX
  5
16C
330
167
100
AcDbEntity
  8
Layer 2
 62
     7
420
 16777215
370
    15
100
AcDbVertex
100
AcDb2dVertex
 10
6.09063720703125
 20
5.301501803927951
 30
0.0
  0
VERTEX
  5
16D
330
167
100
AcDbEntity
  8
Layer 2
 62
     7
420
 16777215
370
    15
100
AcDbVertex
100
AcDb2dVertex
 10
6.09063720703125
 20
5.22276136610243
 30
0.0
  0
VERTEX
  5
16E
330
167
100
AcDbEntity
  8
Layer 2
 62
     7
420
 16777215
370
    15
100
AcDbVertex
100
AcDb2dVertex
 10
2.356581793891059
 20
5.22276136610243
 30
0.0
  0
SEQEND
  5
16F
330
167
100
AcDbEntity
  8
Layer 2
 62
     7
420
 16777215
370
    15
  0
POLYLINE
  5
170
330
1F
100
AcDbEntity
  8
Layer 2
 62
     7
420
 16777215
370
    15
100
AcDb2dPolyline
 66
     1
 10
0.0
 20
0.0
 30
0.0
  0
VERTEX
  5
171
330
170
100
AcDbEntity
  8
Layer 2
 62
     7
420
 16777215
370
    15
100
AcDbVertex
100
AcDb2dVertex
 10
6.248121473524305
 20
5.22276136610243
 30
0.0
  0
VERTEX
  5
172
330
170
100
AcDbEntity
  8
Layer 2
 62
     7
420
 16777215
370
    15
100
AcDbVertex
100
AcDb2dVertex
 10
6.248121473524305
 20
5.301501803927951
 30
0.0
  0
VERTEX
  5
173
330
170
100
AcDbEntity
  8
Layer 2
 62
     7
420
 16777215
370
    15
100
AcDbVertex
100
AcDb2dVertex
 10
9.808946397569445
 20
5.301501803927951
 30
0.0
  0
VERTEX
  5
174
330
170
100
AcDbEntity
  8
Layer 2
 62
     7
420
 16777215
370
    15
100
AcDbVertex
100
AcDb2dVertex
 10
9.808946397569445
 20
5.22276136610243
 30
0.0
  0
VERTEX
  5
175
330
170
100
AcDbEntity
  8
Layer 2
 62
     7
420
 16777215
370
    15
100
AcDbVertex
100
AcDb2dVertex
 10
6.248121473524305
 20
5.22276136610243
 30
0.0
  0
SEQEND
  5
176
330
170
100
AcDbEntity
  8
Layer 2
 62
     7
420
 16777215
370
    15
  0
POLYLINE
  5
177
330
1F
100
AcDbEntity
  8
Layer 2
 62
     7
420
 16777215
370
    15
100
AcDb2dPolyline
 66
     1
 10
0.0
 20
0.0
 30
0.0
  0
VERTEX
  5
178
330
177
100
AcDbEntity
  8
Layer 2
 62
     7
420
 16777215
370
    15
100
AcDbVertex
100
AcDb2dVertex
 10
13.69647810194227
 20
5.22276136610243
 30
0.0
  0
VERTEX
  5
179
330
177
100
AcDbEntity
  8
Layer 2
 62
     7
420
 16777215
370
    15
100
AcDbVertex
100
AcDb2dVertex
 10
9.966417100694445
 20
5.22276136610243
 30
0.0
  0
VERTEX
  5
17A
330
177
100
AcDbEntity
  8
Layer 2
 62
     7
420
 16777215
370
    15
100
AcDbVertex
100
AcDb2dVertex
 10
9.966417100694445
 20
5.301501803927951
 30
0.0
  0
VERTEX
  5
17B
330
177
100
AcDbEntity
  8
Layer 2
 62
     7
420
 16777215
370
    15
100
AcDbVertex
100
AcDb2dVertex
 10
13.60588836669922
 20
5.301501803927951
 30
0.0
  0
VERTEX
  5
17C
330
177
100
AcDbEntity
  8
Layer 2
 62
     7
420
 16777215
370
    15
100
AcDbVertex
100
AcDb2dVertex
 10
13.6059078640408
 20
5.350717332628038
 30
0.0
  0
VERTEX
  5
17D
330
177
100
AcDbEntity
  8
Layer 2
 62
     7
420
 16777215
370
    15
100
AcDbVertex
100
AcDb2dVertex
 10
13.69647810194227
 20
5.350717332628038
 30
0.0
  0
VERTEX
  5
17E
330
177
100
AcDbEntity
  8
Layer 2
 62
     7
420
 16777215
370
    15
100
AcDbVertex
100
AcDb2dVertex
 10
13.69647810194227
 20
5.22276136610243
 30
0.0
  0
SEQEND
  5
17F
330
177
100
AcDbEntity
  8
Layer 2
 62
     7
420
 16777215
370
    15
  0
POLYLINE
  5
180
330
1F
100
AcDbEntity
  8
Layer 2
 62
     7
420
 16777215
370
    15
100
AcDb2dPolyline
 66
     1
 10
0.0
 20
0.0
 30
0.0
  0
VERTEX
  5
181
330
180
100
AcDbEntity
  8
Layer 2
 62
     7
420
 16777215
370
    15
100
AcDbVertex
100
AcDb2dVertex
 10
13.69647810194227
 20
5.508201599121094
 30
0.0
  0
VERTEX
  5
182
330
180
100
AcDbEntity
  8
Layer 2
 62
     7
420
 16777215
370
    15
100
AcDbVertex
100
AcDb2dVertex
 10
13.60596889919705
 20
5.508201599121094
 30
0.0
  0
VERTEX
  5
183
330
180
100
AcDbEntity
  8
Layer 2
 62
     7
420
 16777215
370
    15
100
AcDbVertex
100
AcDb2dVertex
 10
13.60598839653863
 20
5.55741204155816
 30
0.0
  0
VERTEX
  5
184
330
180
100
AcDbEntity
  8
Layer 2
 62
     7
420
 16777215
370
    15
100
AcDbVertex
100
AcDb2dVertex
 10
9.966417100694445
 20
5.55741204155816
 30
0.0
  0
VERTEX
  5
185
330
180
100
AcDbEntity
  8
Layer 2
 62
     7
420
 16777215
370
    15
100
AcDbVertex
100
AcDb2dVertex
 10
9.966417100694445
 20
5.63614739312066
 30
0.0
  0
VERTEX
  5
186
330
180
100
AcDbEntity
  8
Layer 2
 62
     7
420
 16777215
370
    15
100
AcDbVertex
100
AcDb2dVertex
 10
13.60588836669922
 20
5.63614739312066
 30
0.0
  0
VERTEX
  5
187
330
180
100
AcDbEntity
  8
Layer 2
 62
     7
420
 16777215
370
    15
100
AcDbVertex
100
AcDb2dVertex
 10
13.6059078640408
 20
5.685359530978732
 30
0.0
  0
VERTEX
  5
188
330
180
100
AcDbEntity
  8
Layer 2
 62
     7
420
 16777215
370
    15
100
AcDbVertex
100
AcDb2dVertex
 10
13.69647810194227
 20
5.685359530978732
 30
0.0
  0
VERTEX
  5
189
330
180
100
AcDbEntity
  8
Layer 2
 62
     7
420
 16777215
370
    15
100
AcDbVertex
100
AcDb2dVertex
 10
13.69647810194227
 20
5.508201599121094
 30
0.0
  0
SEQEND
  5
18A
330
180
100
AcDbEntity
  8
Layer 2
 62
     7
420
 16777215
370
    15
  0
POLYLINE
  5
18B
330
1F
100
AcDbEntity
  8
Layer 2
 62
     7
420
 16777215
370
    15
100
AcDb2dPolyline
 66
     1
 10
0.0
 20
0.0
 30
0.0
  0
VERTEX
  5
18C
330
18B
100
AcDbEntity
  8
Layer 2
 62
     7
420
 16777215
370
    15
100
AcDbVertex
100
AcDb2dVertex
 10
13.69647810194227
 20
5.842843797471788
 30
0.0
  0
VERTEX
  5
18D
330
18B
100
AcDbEntity
  8
Layer 2
 62
     7
420
 16777215
370
    15
100
AcDbVertex
100
AcDb2dVertex
 10
13.60596889919705
 20
5.842843797471788
 30
0.0
  0
VERTEX
  5
18E
330
18B
100
AcDbEntity
  8
Layer 2
 62
     7
420
 16777215
370
    15
100
AcDbVertex
100
AcDb2dVertex
 10
13.60598839653863
 20
5.892057630750868
 30
0.0
  0
VERTEX
  5
18F
330
18B
100
AcDbEntity
  8
Layer 2
 62
     7
420
 16777215
370
    15
100
AcDbVertex
100
AcDb2dVertex
 10
9.966417100694445
 20
5.892057630750868
 30
0.0
  0
VERTEX
  5
190
330
18B
100
AcDbEntity
  8
Layer 2
 62
     7
420
 16777215
370
    15
100
AcDbVertex
100
AcDb2dVertex
 10
9.966417100694445
 20
5.970792982313368
 30
0.0
  0
VERTEX
  5
191
330
18B
100
AcDbEntity
  8
Layer 2
 62
     7
420
 16777215
370
    15
100
AcDbVertex
100
AcDb2dVertex
 10
13.60588836669922
 20
5.970792982313368
 30
0.0
  0
VERTEX
  5
192
330
18B
100
AcDbEntity
  8
Layer 2
 62
     7
420
 16777215
370
    15
100
AcDbVertex
100
AcDb2dVertex
 10
13.6059078640408
 20
6.020008511013454
 30
0.0
  0
VERTEX
  5
193
330
18B
100
AcDbEntity
  8
Layer 2
 62
     7
420
 16777215
370
    15
100
AcDbVertex
100
AcDb2dVertex
 10
13.69647810194227
 20
6.020008511013454
 30
0.0
  0
VERTEX
  5
194
330
18B
100
AcDbEntity
  8
Layer 2
 62
     7
420
 16777215
370
    15
100
AcDbVertex
100
AcDb2dVertex
 10
13.69647810194227
 20
5.842843797471788
 30
0.0
  0
SEQEND
  5
195
330
18B
100
AcDbEntity
  8
Layer 2
 62
     7
420
 16777215
370
    15
  0
POLYLINE
  5
196
330
1F
100
AcDbEntity
  8
Layer 2
 62
     7
420
 16777215
370
    15
100
AcDb2dPolyline
 66
     1
 10
0.0
 20
0.0
 30
0.0
  0
VERTEX
  5
197
330
196
100
AcDbEntity
  8
Layer 2
 62
     7
420
 16777215
370
    15
100
AcDbVertex
100
AcDb2dVertex
 10
13.69647810194227
 20
6.17749277750651
 30
0.0
  0
VERTEX
  5
198
330
196
100
AcDbEntity
  8
Layer 2
 62
     7
420
 16777215
370
    15
100
AcDbVertex
100
AcDb2dVertex
 10
13.60596889919705
 20
6.17749277750651
 30
0.0
  0
VERTEX
  5
199
330
196
100
AcDbEntity
  8
Layer 2
 62
     7
420
 16777215
370
    15
100
AcDbVertex
100
AcDb2dVertex
 10
13.60598839653863
 20
6.226703219943576
 30
0.0
  0
VERTEX
  5
19A
330
196
100
AcDbEntity
  8
Layer 2
 62
     7
420
 16777215
370
    15
100
AcDbVertex
100
AcDb2dVertex
 10
9.966417100694445
 20
6.226703219943576
 30
0.0
  0
VERTEX
  5
19B
330
196
100
AcDbEntity
  8
Layer 2
 62
     7
420
 16777215
370
    15
100
AcDbVertex
100
AcDb2dVertex
 10
9.966417100694445
 20
6.305438571506076
 30
0.0
  0
VERTEX
  5
19C
330
196
100
AcDbEntity
  8
Layer 2
 62
     7
420
 16777215
370
    15
100
AcDbVertex
100
AcDb2dVertex
 10
13.60588836669922
 20
6.305438571506076
 30
0.0
  0
VERTEX
  5
19D
330
196
100
AcDbEntity
  8
Layer 2
 62
     7
420
 16777215
370
    15
100
AcDbVertex
100
AcDb2dVertex
 10
13.6059078640408
 20
6.354650709364149
 30
0.0
  0
VERTEX
  5
19E
330
196
100
AcDbEntity
  8
Layer 2
 62
     7
420
 16777215
370
    15
100
AcDbVertex
100
AcDb2dVertex
 10
13.69647810194227
 20
6.354650709364149
 30
0.0
  0
VERTEX
  5
19F
330
196
100
AcDbEntity
  8
Layer 2
 62
     7
420
 16777215
370
    15
100
AcDbVertex
100
AcDb2dVertex
 10
13.69647810194227
 20
6.17749277750651
 30
0.0
  0
SEQEND
  5
1A0
330
196
100
AcDbEntity
  8
Layer 2
 62
     7
420
 16777215
370
    15
  0
POLYLINE
  5
1A1
330
1F
100
AcDbEntity
  8
Layer 2
 62
     7
420
 16777215
370
    15
100
AcDb2dPolyline
 66
     1
 10
0.0
 20
0.0
 30
0.0
  0
VERTEX
  5
1A2
330
1A1
100
AcDbEntity
  8
Layer 2
 62
     7
420
 16777215
370
    15
100
AcDbVertex
100
AcDb2dVertex
 10
13.69647810194227
 20
6.512134975857204
 30
0.0
  0
VERTEX
  5
1A3
330
1A1
100
AcDbEntity
  8
Layer 2
 62
     7
420
 16777215
370
    15
100
AcDbVertex
100
AcDb2dVertex
 10
13.60596889919705
 20
6.512134975857204
 30
0.0
  0
VERTEX
  5
1A4
330
1A1
100
AcDbEntity
  8
Layer 2
 62
     7
420
 16777215
370
    15
100
AcDbVertex
100
AcDb2dVertex
 10
13.60598839653863
 20
6.561348809136284
 30
0.0
  0
VERTEX
  5
1A5
330
1A1
100
AcDbEntity
  8
Layer 2
 62
     7
420
 16777215
370
    15
100
AcDbVertex
100
AcDb2dVertex
 10
9.966417100694445
 20
6.561348809136284
 30
0.0
  0
VERTEX
  5
1A6
330
1A1
100
AcDbEntity
  8
Layer 2
 62
     7
420
 16777215
370
    15
100
AcDbVertex
100
AcDb2dVertex
 10
9.966417100694445
 20
6.640084160698784
 30
0.0
  0
VERTEX
  5
1A7
330
1A1
100
AcDbEntity
  8
Layer 2
 62
     7
420
 16777215
370
    15
100
AcDbVertex
100
AcDb2dVertex
 10
13.60588836669922
 20
6.640084160698784
 30
0.0
  0
VERTEX
  5
1A8
330
1A1
100
AcDbEntity
  8
Layer 2
 62
     7
420
 16777215
370
    15
100
AcDbVertex
100
AcDb2dVertex
 10
13.6059078640408
 20
6.689299689398871
 30
0.0
  0
VERTEX
  5
1A9
330
1A1
100
AcDbEntity
  8
Layer 2
 62
     7
420
 16777215
370
    15
100
AcDbVertex
100
AcDb2dVertex
 10
13.69647810194227
 20
6.689299689398871
 30
0.0
  0
VERTEX
  5
1AA
330
1A1
100
AcDbEntity
  8
Layer 2
 62
     7
420
 16777215
370
    15
100
AcDbVertex
100
AcDb2dVertex
 10
13.69647810194227
 20
6.512134975857204
 30
0.0
  0
SEQEND
  5
1AB
330
1A1
100
AcDbEntity
  8
Layer 2
 62
     7
420
 16777215
370
    15
  0
POLYLINE
  5
1AC
330
1F
100
AcDbEntity
  8
Layer 2
 62
     7
420
 16777215
370
    15
100
AcDb2dPolyline
 66
     1
 10
0.0
 20
0.0
 30
0.0
  0
VERTEX
  5
1AD
330
1AC
100
AcDbEntity
  8
Layer 2
 62
     7
420
 16777215
370
    15
100
AcDbVertex
100
AcDb2dVertex
 10
13.69647810194227
 20
6.846783955891927
 30
0.0
  0
VERTEX
  5
1AE
330
1AC
100
AcDbEntity
  8
Layer 2
 62
     7
420
 16777215
370
    15
100
AcDbVertex
100
AcDb2dVertex
 10
13.60596889919705
 20
6.846783955891927
 30
0.0
  0
VERTEX
  5
1AF
330
1AC
100
AcDbEntity
  8
Layer 2
 62
     7
420
 16777215
370
    15
100
AcDbVertex
100
AcDb2dVertex
 10
13.60598839653863
 20
6.895994398328993
 30
0.0
  0
VERTEX
  5
1B0
330
1AC
100
AcDbEntity
  8
Layer 2
 62
     7
420
 16777215
370
    15
100
AcDbVertex
100
AcDb2dVertex
 10
9.966417100694445
 20
6.895994398328993
 30
0.0
  0
VERTEX
  5
1B1
330
1AC
100
AcDbEntity
  8
Layer 2
 62
     7
420
 16777215
370
    15
100
AcDbVertex
100
AcDb2dVertex
 10
9.966417100694445
 20
6.974729749891493
 30
0.0
  0
VERTEX
  5
1B2
330
1AC
100
AcDbEntity
  8
Layer 2
 62
     7
420
 16777215
370
    15
100
AcDbVertex
100
AcDb2dVertex
 10
13.60588836669922
 20
6.974729749891493
 30
0.0
  0
VERTEX
  5
1B3
330
1AC
100
AcDbEntity
  8
Layer 2
 62
     7
420
 16777215
370
    15
100
AcDbVertex
100
AcDb2dVertex
 10
13.6059078640408
 20
7.023941887749565
 30
0.0
  0
VERTEX
  5
1B4
330
1AC
100
AcDbEntity
  8
Layer 2
 62
     7
420
 16777215
370
    15
100
AcDbVertex
100
AcDb2dVertex
 10
13.69647810194227
 20
7.023941887749565
 30
0.0
  0
VERTEX
  5
1B5
330
1AC
100
AcDbEntity
  8
Layer 2
 62
     7
420
 16777215
370
    15
100
AcDbVertex
100
AcDb2dVertex
 10
13.69647810194227
 20
6.846783955891927
 30
0.0
  0
SEQEND
  5
1B6
330
1AC
100
AcDbEntity
  8
Layer 2
 62
     7
420
 16777215
370
    15
  0
POLYLINE
  5
1B7
330
1F
100
AcDbEntity
  8
Layer 2
 62
     7
420
 16777215
370
    15
100
AcDb2dPolyline
 66
     1
 10
0.0
 20
0.0
 30
0.0
  0
VERTEX
  5
1B8
330
1B7
100
AcDbEntity
  8
Layer 2
 62
     7
420
 16777215
370
    15
100
AcDbVertex
100
AcDb2dVertex
 10
13.69647810194227
 20
7.181426154242621
 30
0.0
  0
VERTEX
  5
1B9
330
1B7
100
AcDbEntity
  8
Layer 2
 62
     7
420
 16777215
370
    15
100
AcDbVertex
100
AcDb2dVertex
 10
13.60596889919705
 20
7.181426154242621
 30
0.0
  0
VERTEX
  5
1BA
330
1B7
100
AcDbEntity
  8
Layer 2
 62
     7
420
 16777215
370
    15
100
AcDbVertex
100
AcDb2dVertex
 10
13.60598839653863
 20
7.230639987521701
 30
0.0
  0
VERTEX
  5
1BB
330
1B7
100
AcDbEntity
  8
Layer 2
 62
     7
420
 16777215
370
    15
100
AcDbVertex
100
AcDb2dVertex
 10
9.966417100694445
 20
7.230639987521701
 30
0.0
  0
VERTEX
  5
1BC
330
1B7
100
AcDbEntity
  8
Layer 2
 62
     7
420
 16777215
370
    15
100
AcDbVertex
100
AcDb2dVertex
 10
9.966417100694445
 20
7.309375339084201
 30
0.0
  0
VERTEX
  5
1BD
330
1B7
100
AcDbEntity
  8
Layer 2
 62
     7
420
 16777215
370
    15
100
AcDbVertex
100
AcDb2dVertex
 10
13.60588836669922
 20
7.309375339084201
 30
0.0
  0
VERTEX
  5
1BE
330
1B7
100
AcDbEntity
  8
Layer 2
 62
     7
420
 16777215
370
    15
100
AcDbVertex
100
AcDb2dVertex
 10
13.6059078640408
 20
7.358590867784288
 30
0.0
  0
VERTEX
  5
1BF
330
1B7
100
AcDbEntity
  8
Layer 2
 62
     7
420
 16777215
370
    15
100
AcDbVertex
100
AcDb2dVertex
 10
13.69647810194227
 20
7.358590867784288
 30
0.0
  0
VERTEX
  5
1C0
330
1B7
100
AcDbEntity
  8
Layer 2
 62
     7
420
 16777215
370
    15
100
AcDbVertex
100
AcDb2dVertex
 10
13.69647810194227
 20
7.181426154242621
 30
0.0
  0
SEQEND
  5
1C1
330
1B7
100
AcDbEntity
  8
Layer 2
 62
     7
420
 16777215
370
    15
  0
POLYLINE
  5
1C2
330
1F
100
AcDbEntity
  8
Layer 2
 62
     7
420
 16777215
370
    15
100
AcDb2dPolyline
 66
     1
 10
0.0
 20
0.0
 30
0.0
  0
VERTEX
  5
1C3
330
1C2
100
AcDbEntity
  8
Layer 2
 62
     7
420
 16777215
370
    15
100
AcDbVertex
100
AcDb2dVertex
 10
13.69647810194227
 20
7.516075134277344
 30
0.0
  0
VERTEX
  5
1C4
330
1C2
100
AcDbEntity
  8
Layer 2
 62
     7
420
 16777215
370
    15
100
AcDbVertex
100
AcDb2dVertex
 10
13.60596889919705
 20
7.516075134277344
 30
0.0
  0
VERTEX
  5
1C5
330
1C2
100
AcDbEntity
  8
Layer 2
 62
     7
420
 16777215
370
    15
100
AcDbVertex
100
AcDb2dVertex
 10
13.60598839653863
 20
7.565285576714409
 30
0.0
  0
VERTEX
  5
1C6
330
1C2
100
AcDbEntity
  8
Layer 2
 62
     7
420
 16777215
370
    15
100
AcDbVertex
100
AcDb2dVertex
 10
9.966417100694445
 20
7.565285576714409
 30
0.0
  0
VERTEX
  5
1C7
330
1C2
100
AcDbEntity
  8
Layer 2
 62
     7
420
 16777215
370
    15
100
AcDbVertex
100
AcDb2dVertex
 10
9.966417100694445
 20
7.644020928276909
 30
0.0
  0
VERTEX
  5
1C8
330
1C2
100
AcDbEntity
  8
Layer 2
 62
     7
420
 16777215
370
    15
100
AcDbVertex
100
AcDb2dVertex
 10
13.60588836669922
 20
7.644020928276909
 30
0.0
  0
VERTEX
  5
1C9
330
1C2
100
AcDbEntity
  8
Layer 2
 62
     7
420
 16777215
370
    15
100
AcDbVertex
100
AcDb2dVertex
 10
13.6059078640408
 20
7.693233066134982
 30
0.0
  0
VERTEX
  5
1CA
330
1C2
100
AcDbEntity
  8
Layer 2
 62
     7
420
 16777215
370
    15
100
AcDbVertex
100
AcDb2dVertex
 10
13.69647810194227
 20
7.693233066134982
 30
0.0
  0
VERTEX
  5
1CB
330
1C2
100
AcDbEntity
  8
Layer 2
 62
     7
420
 16777215
370
    15
100
AcDbVertex
100
AcDb2dVertex
 10
13.69647810194227
 20
7.516075134277344
 30
0.0
  0
SEQEND
  5
1CC
330
1C2
100
AcDbEntity
  8
Layer 2
 62
     7
420
 16777215
370
    15
  0
POLYLINE
  5
1CD
330
1F
100
AcDbEntity
  8
Layer 2
 62
     7
420
 16777215
370
    15
100
AcDb2dPolyline
 66
     1
 10
0.0
 20
0.0
 30
0.0
  0
VERTEX
  5
1CE
330
1CD
100
AcDbEntity
  8
Layer 2
 62
     7
420
 16777215
370
    15
100
AcDbVertex
100
AcDb2dVertex
 10
13.69647810194227
 20
7.850717332628038
 30
0.0
  0
VERTEX
  5
1CF
330
1CD
100
AcDbEntity
  8
Layer 2
 62
     7
420
 16777215
370
    15
100
AcDbVertex
100
AcDb2dVertex
 10
13.60596889919705
 20
7.850717332628038
 30
0.0
  0
VERTEX
  5
1D0
330
1CD
100
AcDbEntity
  8
Layer 2
 62
     7
420
 16777215
370
    15
100
AcDbVertex
100
AcDb2dVertex
 10
13.60598839653863
 20
7.899931165907118
 30
0.0
  0
VERTEX
  5
1D1
330
1CD
100
AcDbEntity
  8
Layer 2
 62
     7
420
 16777215
370
    15
100
AcDbVertex
100
AcDb2dVertex
 10
9.966417100694445
 20
7.899931165907118
 30
0.0
  0
VERTEX
  5
1D2
330
1CD
100
AcDbEntity
  8
Layer 2
 62
     7
420
 16777215
370
    15
100
AcDbVertex
100
AcDb2dVertex
 10
9.966417100694445
 20
7.978666517469618
 30
0.0
  0
VERTEX
  5
1D3
330
1CD
100
AcDbEntity
  8
Layer 2
 62
     7
420
 16777215
370
    15
100
AcDbVertex
100
AcDb2dVertex
 10
13.60588836669922
 20
7.978666517469618
 30
0.0
  0
VERTEX
  5
1D4
330
1CD
100
AcDbEntity
  8
Layer 2
 62
     7
420
 16777215
370
    15
100
AcDbVertex
100
AcDb2dVertex
 10
13.6059078640408
 20
8.027882046169704
 30
0.0
  0
VERTEX
  5
1D5
330
1CD
100
AcDbEntity
  8
Layer 2
 62
     7
420
 16777215
370
    15
100
AcDbVertex
100
AcDb2dVertex
 10
13.69647810194227
 20
8.027882046169704
 30
0.0
  0
VERTEX
  5
1D6
330
1CD
100
AcDbEntity
  8
Layer 2
 62
     7
420
 16777215
370
    15
100
AcDbVertex
100
AcDb2dVertex
 10
13.69647810194227
 20
7.850717332628038
 30
0.0
  0
SEQEND
  5
1D7
330
1CD
100
AcDbEntity
  8
Layer 2
 62
     7
420
 16777215
370
    15
  0
POLYLINE
  5
1D8
330
1F
100
AcDbEntity
  8
Layer 2
 62
     7
420
 16777215
370
    15
100
AcDb2dPolyline
 66
     1
 10
0.0
 20
0.0
 30
0.0
  0
VERTEX
  5
1D9
330
1D8
100
AcDbEntity
  8
Layer 2
 62
     7
420
 16777215
370
    15
100
AcDbVertex
100
AcDb2dVertex
 10
13.69647810194227
 20
8.18536631266276
 30
0.0
  0
VERTEX
  5
1DA
330
1D8
100
AcDbEntity
  8
Layer 2
 62
     7
420
 16777215
370
    15
100
AcDbVertex
100
AcDb2dVertex
 10
13.60596889919705
 20
8.18536631266276
 30
0.0
  0
VERTEX
  5
1DB
330
1D8
100
AcDbEntity
  8
Layer 2
 62
     7
420
 16777215
370
    15
100
AcDbVertex
100
AcDb2dVertex
 10
13.60598839653863
 20
8.234576755099827
 30
0.0
  0
VERTEX
  5
1DC
330
1D8
100
AcDbEntity
  8
Layer 2
 62
     7
420
 16777215
370
    15
100
AcDbVertex
100
AcDb2dVertex
 10
9.966417100694445
 20
8.234576755099827
 30
0.0
  0
VERTEX
  5
1DD
330
1D8
100
AcDbEntity
  8
Layer 2
 62
     7
420
 16777215
370
    15
100
AcDbVertex
100
AcDb2dVertex
 10
9.966417100694445
 20
8.313312106662327
 30
0.0
  0
VERTEX
  5
1DE
330
1D8
100
AcDbEntity
  8
Layer 2
 62
     7
420
 16777215
370
    15
100
AcDbVertex
100
AcDb2dVertex
 10
13.60588836669922
 20
8.313312106662327
 30
0.0
  0
VERTEX
  5
1DF
330
1D8
100
AcDbEntity
  8
Layer 2
 62
     7
420
 16777215
370
    15
100
AcDbVertex
100
AcDb2dVertex
 10
13.6059078640408
 20
8.362524244520399
 30
0.0
  0
VERTEX
  5
1E0
330
1D8
100
AcDbEntity
  8
Layer 2
 62
     7
420
 16777215
370
    15
100
AcDbVertex
100
AcDb2dVertex
 10
13.69647810194227
 20
8.362524244520399
 30
0.0
  0
VERTEX
  5
1E1
330
1D8
100
AcDbEntity
  8
Layer 2
 62
     7
420
 16777215
370
    15
100
AcDbVertex
100
AcDb2dVertex
 10
13.69647810194227
 20
8.18536631266276
 30
0.0
  0
SEQEND
  5
1E2
330
1D8
100
AcDbEntity
  8
Layer 2
 62
     7
420
 16777215
370
    15
  0
POLYLINE
  5
1E3
330
1F
100
AcDbEntity
  8
Layer 2
 62
     7
420
 16777215
370
    15
100
AcDb2dPolyline
 66
     1
 10
0.0
 20
0.0
 30
0.0
  0
VERTEX
  5
1E4
330
1E3
100
AcDbEntity
  8
Layer 2
 62
     7
420
 16777215
370
    15
100
AcDbVertex
100
AcDb2dVertex
 10
13.69647810194227
 20
8.520008511013454
 30
0.0
  0
VERTEX
  5
1E5
330
1E3
100
AcDbEntity
  8
Layer 2
 62
     7
420
 16777215
370
    15
100
AcDbVertex
100
AcDb2dVertex
 10
13.60596889919705
 20
8.520008511013454
 30
0.0
  0
VERTEX
  5
1E6
330
1E3
100
AcDbEntity
  8
Layer 2
 62
     7
420
 16777215
370
    15
100
AcDbVertex
100
AcDb2dVertex
 10
13.60598839653863
 20
8.569222344292534
 30
0.0
  0
VERTEX
  5
1E7
330
1E3
100
AcDbEntity
  8
Layer 2
 62
     7
420
 16777215
370
    15
100
AcDbVertex
100
AcDb2dVertex
 10
9.966417100694445
 20
8.569222344292534
 30
0.0
  0
VERTEX
  5
1E8
330
1E3
100
AcDbEntity
  8
Layer 2
 62
     7
420
 16777215
370
    15
100
AcDbVertex
100
AcDb2dVertex
 10
9.966417100694445
 20
8.647958543565538
 30
0.0
  0
VERTEX
  5
1E9
330
1E3
100
AcDbEntity
  8
Layer 2
 62
     7
420
 16777215
370
    15
100
AcDbVertex
100
AcDb2dVertex
 10
13.60588836669922
 20
8.647958543565538
 30
0.0
  0
VERTEX
  5
1EA
330
1E3
100
AcDbEntity
  8
Layer 2
 62
     7
420
 16777215
370
    15
100
AcDbVertex
100
AcDb2dVertex
 10
13.6059078640408
 20
8.69717322455512
 30
0.0
  0
VERTEX
  5
1EB
330
1E3
100
AcDbEntity
  8
Layer 2
 62
     7
420
 16777215
370
    15
100
AcDbVertex
100
AcDb2dVertex
 10
13.69647810194227
 20
8.69717322455512
 30
0.0
  0
VERTEX
  5
1EC
330
1E3
100
AcDbEntity
  8
Layer 2
 62
     7
420
 16777215
370
    15
100
AcDbVertex
100
AcDb2dVertex
 10
13.69647810194227
 20
8.520008511013454
 30
0.0
  0
SEQEND
  5
1ED
330
1E3
100
AcDbEntity
  8
Layer 2
 62
     7
420
 16777215
370
    15
  0
POLYLINE
  5
1EE
330
1F
100
AcDbEntity
  8
Layer 2
 62
     7
420
 16777215
370
    15
100
AcDb2dPolyline
 66
     1
 10
0.0
 20
0.0
 30
0.0
  0
VERTEX
  5
1EF
330
1EE
100
AcDbEntity
  8
Layer 2
 62
     7
420
 16777215
370
    15
100
AcDbVertex
100
AcDb2dVertex
 10
13.69647810194227
 20
8.854657491048176
 30
0.0
  0
VERTEX
  5
1F0
330
1EE
100
AcDbEntity
  8
Layer 2
 62
     7
420
 16777215
370
    15
100
AcDbVertex
100
AcDb2dVertex
 10
13.60596889919705
 20
8.854657491048176
 30
0.0
  0
VERTEX
  5
1F1
330
1EE
100
AcDbEntity
  8
Layer 2
 62
     7
420
 16777215
370
    15
100
AcDbVertex
100
AcDb2dVertex
 10
13.60598839653863
 20
8.903868781195746
 30
0.0
  0
VERTEX
  5
1F2
330
1EE
100
AcDbEntity
  8
Layer 2
 62
     7
420
 16777215
370
    15
100
AcDbVertex
100
AcDb2dVertex
 10
9.966417100694445
 20
8.903868781195746
 30
0.0
  0
VERTEX
  5
1F3
330
1EE
100
AcDbEntity
  8
Layer 2
 62
     7
420
 16777215
370
    15
100
AcDbVertex
100
AcDb2dVertex
 10
9.966417100694445
 20
8.982604132758246
 30
0.0
  0
VERTEX
  5
1F4
330
1EE
100
AcDbEntity
  8
Layer 2
 62
     7
420
 16777215
370
    15
100
AcDbVertex
100
AcDb2dVertex
 10
13.60588836669922
 20
8.982604132758246
 30
0.0
  0
VERTEX
  5
1F5
330
1EE
100
AcDbEntity
  8
Layer 2
 62
     7
420
 16777215
370
    15
100
AcDbVertex
100
AcDb2dVertex
 10
13.6059078640408
 20
9.031815422905815
 30
0.0
  0
VERTEX
  5
1F6
330
1EE
100
AcDbEntity
  8
Layer 2
 62
     7
420
 16777215
370
    15
100
AcDbVertex
100
AcDb2dVertex
 10
13.69647810194227
 20
9.031815422905815
 30
0.0
  0
VERTEX
  5
1F7
330
1EE
100
AcDbEntity
  8
Layer 2
 62
     7
420
 16777215
370
    15
100
AcDbVertex
100
AcDb2dVertex
 10
13.69647810194227
 20
8.854657491048176
 30
0.0
  0
SEQEND
  5
1F8
330
1EE
100
AcDbEntity
  8
Layer 2
 62
     7
420
 16777215
370
    15
  0
POLYLINE
  5
1F9
330
1F
100
AcDbEntity
  8
Layer 2
 62
     7
420
 16777215
370
    15
100
AcDb2dPolyline
 66
     1
 10
0.0
 20
0.0
 30
0.0
  0
VERTEX
  5
1FA
330
1F9
100
AcDbEntity
  8
Layer 2
 62
     7
420
 16777215
370
    15
100
AcDbVertex
100
AcDb2dVertex
 10
13.69647810194227
 20
9.18929968939887
 30
0.0
  0
VERTEX
  5
1FB
330
1F9
100
AcDbEntity
  8
Layer 2
 62
     7
420
 16777215
370
    15
100
AcDbVertex
100
AcDb2dVertex
 10
13.60596889919705
 20
9.18929968939887
 30
0.0
  0
VERTEX
  5
1FC
330
1F9
100
AcDbEntity
  8
Layer 2
 62
     7
420
 16777215
370
    15
100
AcDbVertex
100
AcDb2dVertex
 10
13.60598839653863
 20
9.238514370388454
 30
0.0
  0
VERTEX
  5
1FD
330
1F9
100
AcDbEntity
  8
Layer 2
 62
     7
420
 16777215
370
    15
100
AcDbVertex
100
AcDb2dVertex
 10
9.966417100694445
 20
9.238514370388454
 30
0.0
  0
VERTEX
  5
1FE
330
1F9
100
AcDbEntity
  8
Layer 2
 62
     7
420
 16777215
370
    15
100
AcDbVertex
100
AcDb2dVertex
 10
9.966417100694445
 20
9.317249721950954
 30
0.0
  0
VERTEX
  5
1FF
330
1F9
100
AcDbEntity
  8
Layer 2
 62
     7
420
 16777215
370
    15
100
AcDbVertex
100
AcDb2dVertex
 10
13.60588836669922
 20
9.317249721950954
 30
0.0
  0
VERTEX
  5
200
330
1F9
100
AcDbEntity
  8
Layer 2
 62
     7
420
 16777215
370
    15
100
AcDbVertex
100
AcDb2dVertex
 10
13.6059078640408
 20
9.366464402940538
 30
0.0
  0
VERTEX
  5
201
330
1F9
100
AcDbEntity
  8
Layer 2
 62
     7
420
 16777215
370
    15
100
AcDbVertex
100
AcDb2dVertex
 10
13.69647810194227
 20
9.366464402940538
 30
0.0
  0
VERTEX
  5
202
330
1F9
100
AcDbEntity
  8
Layer 2
 62
     7
420
 16777215
370
    15
100
AcDbVertex
100
AcDb2dVertex
 10
13.69647810194227
 20
9.18929968939887
 30
0.0
  0
SEQEND
  5
203
330
1F9
100
AcDbEntity
  8
Layer 2
 62
     7
420
 16777215
370
    15
  0
POLYLINE
  5
204
330
1F
100
AcDbEntity
  8
Layer 2
 62
     7
420
 16777215
370
    15
100
AcDb2dPolyline
 66
     1
 10
0.0
 20
0.0
 30
0.0
  0
VERTEX
  5
205
330
204
100
AcDbEntity
  8
Layer 2
 62
     7
420
 16777215
370
    15
100
AcDbVertex
100
AcDb2dVertex
 10
13.69647810194227
 20
9.523948669433594
 30
0.0
  0
VERTEX
  5
206
330
204
100
AcDbEntity
  8
Layer 2
 62
     7
420
 16777215
370
    15
100
AcDbVertex
100
AcDb2dVertex
 10
13.60596889919705
 20
9.523948669433594
 30
0.0
  0
VERTEX
  5
207
330
204
100
AcDbEntity
  8
Layer 2
 62
     7
420
 16777215
370
    15
100
AcDbVertex
100
AcDb2dVertex
 10
13.60598839653863
 20
9.573159959581163
 30
0.0
  0
VERTEX
  5
208
330
204
100
AcDbEntity
  8
Layer 2
 62
     7
420
 16777215
370
    15
100
AcDbVertex
100
AcDb2dVertex
 10
9.966417100694445
 20
9.573159959581163
 30
0.0
  0
VERTEX
  5
209
330
204
100
AcDbEntity
  8
Layer 2
 62
     7
420
 16777215
370
    15
100
AcDbVertex
100
AcDb2dVertex
 10
9.966417100694445
 20
9.651895311143663
 30
0.0
  0
VERTEX
  5
20A
330
204
100
AcDbEntity
  8
Layer 2
 62
     7
420
 16777215
370
    15
100
AcDbVertex
100
AcDb2dVertex
 10
13.60588836669922
 20
9.651895311143663
 30
0.0
  0
VERTEX
  5
20B
330
204
100
AcDbEntity
  8
Layer 2
 62
     7
420
 16777215
370
    15
100
AcDbVertex
100
AcDb2dVertex
 10
13.6059078640408
 20
9.701106601291231
 30
0.0
  0
VERTEX
  5
20C
330
204
100
AcDbEntity
  8
Layer 2
 62
     7
420
 16777215
370
    15
100
AcDbVertex
100
AcDb2dVertex
 10
13.69647810194227
 20
9.701106601291231
 30
0.0
  0
VERTEX
  5
20D
330
204
100
AcDbEntity
  8
Layer 2
 62
     7
420
 16777215
370
    15
100
AcDbVertex
100
AcDb2dVertex
 10
13.69647810194227
 20
9.523948669433594
 30
0.0
  0
SEQEND
  5
20E
330
204
100
AcDbEntity
  8
Layer 2
 62
     7
420
 16777215
370
    15
  0
POLYLINE
  5
20F
330
1F
100
AcDbEntity
  8
Layer 2
 62
     7
420
 16777215
370
    15
100
AcDb2dPolyline
 66
     1
 10
0.0
 20
0.0
 30
0.0
  0
VERTEX
  5
210
330
20F
100
AcDbEntity
  8
Layer 2
 62
     7
420
 16777215
370
    15
100
AcDbVertex
100
AcDb2dVertex
 10
13.69647810194227
 20
9.858590867784288
 30
0.0
  0
VERTEX
  5
211
330
20F
100
AcDbEntity
  8
Layer 2
 62
     7
420
 16777215
370
    15
100
AcDbVertex
100
AcDb2dVertex
 10
13.60596889919705
 20
9.858590867784288
 30
0.0
  0
VERTEX
  5
212
330
20F
100
AcDbEntity
  8
Layer 2
 62
     7
420
 16777215
370
    15
100
AcDbVertex
100
AcDb2dVertex
 10
13.60598839653863
 20
9.90780554877387
 30
0.0
  0
VERTEX
  5
213
330
20F
100
AcDbEntity
  8
Layer 2
 62
     7
420
 16777215
370
    15
100
AcDbVertex
100
AcDb2dVertex
 10
9.966417100694445
 20
9.90780554877387
 30
0.0
  0
VERTEX
  5
214
330
20F
100
AcDbEntity
  8
Layer 2
 62
     7
420
 16777215
370
    15
100
AcDbVertex
100
AcDb2dVertex
 10
9.966417100694445
 20
9.98654090033637
 30
0.0
  0
VERTEX
  5
215
330
20F
100
AcDbEntity
  8
Layer 2
 62
     7
420
 16777215
370
    15
100
AcDbVertex
100
AcDb2dVertex
 10
13.60588836669922
 20
9.98654090033637
 30
0.0
  0
VERTEX
  5
216
330
20F
100
AcDbEntity
  8
Layer 2
 62
     7
420
 16777215
370
    15
100
AcDbVertex
100
AcDb2dVertex
 10
13.6059078640408
 20
10.03575558132595
 30
0.0
  0
VERTEX
  5
217
330
20F
100
AcDbEntity
  8
Layer 2
 62
     7
420
 16777215
370
    15
100
AcDbVertex
100
AcDb2dVertex
 10
13.69647810194227
 20
10.03575558132595
 30
0.0
  0
VERTEX
  5
218
330
20F
100
AcDbEntity
  8
Layer 2
 62
     7
420
 16777215
370
    15
100
AcDbVertex
100
AcDb2dVertex
 10
13.69647810194227
 20
9.858590867784288
 30
0.0
  0
SEQEND
  5
219
330
20F
100
AcDbEntity
  8
Layer 2
 62
     7
420
 16777215
370
    15
  0
POLYLINE
  5
21A
330
1F
100
AcDbEntity
  8
Layer 2
 62
     7
420
 16777215
370
    15
100
AcDb2dPolyline
 66
     1
 10
0.0
 20
0.0
 30
0.0
  0
VERTEX
  5
21B
330
21A
100
AcDbEntity
  8
Layer 2
 62
     7
420
 16777215
370
    15
100
AcDbVertex
100
AcDb2dVertex
 10
13.69647810194227
 20
10.19323984781901
 30
0.0
  0
VERTEX
  5
21C
330
21A
100
AcDbEntity
  8
Layer 2
 62
     7
420
 16777215
370
    15
100
AcDbVertex
100
AcDb2dVertex
 10
13.60596889919705
 20
10.19323984781901
 30
0.0
  0
VERTEX
  5
21D
330
21A
100
AcDbEntity
  8
Layer 2
 62
     7
420
 16777215
370
    15
100
AcDbVertex
100
AcDb2dVertex
 10
13.60598839653863
 20
10.24245113796658
 30
0.0
  0
VERTEX
  5
21E
330
21A
100
AcDbEntity
  8
Layer 2
 62
     7
420
 16777215
370
    15
100
AcDbVertex
100
AcDb2dVertex
 10
9.966417100694445
 20
10.24245113796658
 30
0.0
  0
VERTEX
  5
21F
330
21A
100
AcDbEntity
  8
Layer 2
 62
     7
420
 16777215
370
    15
100
AcDbVertex
100
AcDb2dVertex
 10
9.966417100694445
 20
10.32118648952908
 30
0.0
  0
VERTEX
  5
220
330
21A
100
AcDbEntity
  8
Layer 2
 62
     7
420
 16777215
370
    15
100
AcDbVertex
100
AcDb2dVertex
 10
13.60588836669922
 20
10.32118648952908
 30
0.0
  0
VERTEX
  5
221
330
21A
100
AcDbEntity
  8
Layer 2
 62
     7
420
 16777215
370
    15
100
AcDbVertex
100
AcDb2dVertex
 10
13.6059078640408
 20
10.37039777967665
 30
0.0
  0
VERTEX
  5
222
330
21A
100
AcDbEntity
  8
Layer 2
 62
     7
420
 16777215
370
    15
100
AcDbVertex
100
AcDb2dVertex
 10
13.69647810194227
 20
10.37039777967665
 30
0.0
  0
VERTEX
  5
223
330
21A
100
AcDbEntity
  8
Layer 2
 62
     7
420
 16777215
370
    15
100
AcDbVertex
100
AcDb2dVertex
 10
13.69647810194227
 20
10.19323984781901
 30
0.0
  0
SEQEND
  5
224
330
21A
100
AcDbEntity
  8
Layer 2
 62
     7
420
 16777215
370
    15
  0
POLYLINE
  5
225
330
1F
100
AcDbEntity
  8
Layer 2
 62
     7
420
 16777215
370
    15
100
AcDb2dPolyline
 66
     1
 10
0.0
 20
0.0
 30
0.0
  0
VERTEX
  5
226
330
225
100
AcDbEntity
  8
Layer 2
 62
     7
420
 16777215
370
    15
100
AcDbVertex
100
AcDb2dVertex
 10
13.69647810194227
 20
10.5278820461697
 30
0.0
  0
VERTEX
  5
227
330
225
100
AcDbEntity
  8
Layer 2
 62
     7
420
 16777215
370
    15
100
AcDbVertex
100
AcDb2dVertex
 10
13.60596889919705
 20
10.5278820461697
 30
0.0
  0
VERTEX
  5
228
330
225
100
AcDbEntity
  8
Layer 2
 62
     7
420
 16777215
370
    15
100
AcDbVertex
100
AcDb2dVertex
 10
13.60598839653863
 20
10.57709672715929
 30
0.0
  0
VERTEX
  5
229
330
225
100
AcDbEntity
  8
Layer 2
 62
     7
420
 16777215
370
    15
100
AcDbVertex
100
AcDb2dVertex
 10
9.966417100694445
 20
10.57709672715929
 30
0.0
  0
VERTEX
  5
22A
330
225
100
AcDbEntity
  8
Layer 2
 62
     7
420
 16777215
370
    15
100
AcDbVertex
100
AcDb2dVertex
 10
9.966417100694445
 20
10.65583886040582
 30
0.0
  0
VERTEX
  5
22B
330
225
100
AcDbEntity
  8
Layer 2
 62
     7
420
 16777215
370
    15
100
AcDbVertex
100
AcDb2dVertex
 10
13.69647810194227
 20
10.65583886040582
 30
0.0
  0
VERTEX
  5
22C
330
225
100
AcDbEntity
  8
Layer 2
 62
     7
420
 16777215
370
    15
100
AcDbVertex
100
AcDb2dVertex
 10
13.69647810194227
 20
10.5278820461697
 30
0.0
  0
SEQEND
  5
22D
330
225
100
AcDbEntity
  8
Layer 2
 62
     7
420
 16777215
370
    15
  0
ENDSEC
  0
SECTION
  2
OBJECTS
  0
DICTIONARY
  5
C
330
0
100
AcDbDictionary
281
     1
  3
ACAD_GROUP
350
D
  3
ACAD_LAYOUT
350
1A
  3
ACAD_MATERIAL
350
3B
  3
ACAD_MLEADERSTYLE
350
22F
  3
ACAD_MLINESTYLE
350
17
  3
ACAD_PLOTSETTINGS
350
19
  3
ACAD_PLOTSTYLENAME
350
E
  3
ACAD_TABLESTYLE
350
22E
  3
ACAD_VISUALSTYLE
350
2A
  0
SUN
  5
3F
330
29
100
AcDbSun
 90
        1
290
     0
 63
     7
421
 16777215
 40
1.0
291
     1
 91
  2455826
 92
 54000000
292
     0
 70
     2
 71
   256
280
     1
  0
DICTIONARY
  5
D
102
{ACAD_REACTORS
330
C
102
}
330
C
100
AcDbDictionary
281
     1
  0
DICTIONARY
  5
1A
102
{ACAD_REACTORS
330
C
102
}
330
C
100
AcDbDictionary
281
     1
  3
Layout1
350
1E
  3
Layout2
350
26
  3
Model
350
22
  0
DICTIONARY
  5
3B
102
{ACAD_REACTORS
330
C
102
}
330
C
100
AcDbDictionary
281
     1
  3
ByBlock
350
3D
  3
ByLayer
350
3C
  3
Global
350
3E
  0
DICTIONARY
  5
22F
102
{ACAD_REACTORS
330
C
102
}
330
C
100
AcDbDictionary
281
     1
  0
DICTIONARY
  5
17
102
{ACAD_REACTORS
330
C
102
}
330
C
100
AcDbDictionary
281
     1
  3
Standard
350
18
  0
DICTIONARY
  5
19
102
{ACAD_REACTORS
330
C
102
}
330
C
100
AcDbDictionary
281
     1
  0
ACDBDICTIONARYWDFLT
  5
E
102
{ACAD_REACTORS
330
C
102
}
330
C
100
AcDbDictionary
281
     1
  3
Normal
350
F
100
AcDbDictionaryWithDefault
340
F
  0
DICTIONARY
  5
22E
102
{ACAD_REACTORS
330
C
102
}
330
C
100
AcDbDictionary
281
     1
  0
DICTIONARY
  5
2A
102
{ACAD_REACTORS
330
C
102
}
330
C
100
AcDbDictionary
281
     1
  3
2dWireframe
350
2F
  3
3D Hidden
350
31
  3
3dWireframe
350
30
  3
Basic
350
32
  3
Brighten
350
36
  3
ColorChange
350
3A
  3
Conceptual
350
34
  3
Dim
350
35
  3
Facepattern
350
39
  3
Flat
350
2B
  3
FlatWithEdges
350
2C
  3
Gouraud
350
2D
  3
GouraudWithEdges
350
2E
  3
Linepattern
350
38
  3
Realistic
350
33
  3
Thicken
350
37
  0
LAYOUT
  5
1E
102
{ACAD_REACTORS
330
1A
102
}
330
1A
100
AcDbPlotSettings
  1

  2
none_device
  4

  6

 40
0.0
 41
0.0
 42
0.0
 43
0.0
 44
0.0
 45
0.0
 46
0.0
 47
0.0
 48
0.0
 49
0.0
140
0.0
141
0.0
142
1.0
143
1.0
 70
   688
 72
     0
 73
     0
 74
     5
  7

 75
    16
 76
     0
 77
     2
 78
   300
147
1.0
148
0.0
149
0.0
100
AcDbLayout
  1
Layout1
 70
     1
 71
     1
 10
0.0
 20
0.0
 11
12.0
 21
9.0
 12
0.0
 22
0.0
 32
0.0
 14
1.000000000000000E+20
 24
1.000000000000000E+20
 34
1.000000000000000E+20
 15
-1.000000000000000E+20
 25
-1.000000000000000E+20
 35
-1.000000000000000E+20
146
0.0
 13
0.0
 23
0.0
 33
0.0
 16
1.0
 26
0.0
 36
0.0
 17
0.0
 27
1.0
 37
0.0
 76
     0
330
1B
  0
LAYOUT
  5
26
102
{ACAD_REACTORS
330
1A
102
}
330
1A
100
AcDbPlotSettings
  1

  2
none_device
  4

  6

 40
0.0
 41
0.0
 42
0.0
 43
0.0
 44
0.0
 45
0.0
 46
0.0
 47
0.0
 48
0.0
 49
0.0
140
0.0
141
0.0
142
1.0
143
1.0
 70
   688
 72
     0
 73
     0
 74
     5
  7

 75
    16
 76
     0
 77
     2
 78
   300
147
1.0
148
0.0
149
0.0
100
AcDbLayout
  1
Layout2
 70
     1
 71
     2
 10
0.0
 20
0.0
 11
0.0
 21
0.0
 12
0.0
 22
0.0
 32
0.0
 14
0.0
 24
0.0
 34
0.0
 15
0.0
 25
0.0
 35
0.0
146
0.0
 13
0.0
 23
0.0
 33
0.0
 16
1.0
 26
0.0
 36
0.0
 17
0.0
 27
1.0
 37
0.0
 76
     0
330
23
  0
LAYOUT
  5
22
102
{ACAD_REACTORS
330
1A
102
}
330
1A
100
AcDbPlotSettings
  1

  2
none_device
  4

  6

 40
0.0
 41
0.0
 42
0.0
 43
0.0
 44
0.0
 45
0.0
 46
0.0
 47
0.0
 48
0.0
 49
0.0
140
0.0
141
0.0
142
1.0
143
1.0
 70
  1712
 72
     0
 73
     0
 74
     0
  7

 75
     0
 76
     0
 77
     2
 78
   300
147
1.0
148
0.0
149
0.0
100
AcDbLayout
  1
Model
 70
     1
 71
     0
 10
0.0
 20
0.0
 11
12.0
 21
9.0
 12
0.0
 22
0.0
 32
0.0
 14
1.000000000000000E+20
 24
1.000000000000000E+20
 34
1.000000000000000E+20
 15
-1.000000000000000E+20
 25
-1.000000000000000E+20
 35
-1.000000000000000E+20
146
0.0
 13
0.0
 23
0.0
 33
0.0
 16
1.0
 26
0.0
 36
0.0
 17
0.0
 27
1.0
 37
0.0
 76
     0
330
1F
331
29
  0
MATERIAL
  5
3D
102
{ACAD_REACTORS
330
3B
102
}
330
3B
100
AcDbMaterial
  1
ByBlock
 72
     1
 94
      127
  0
MATERIAL
  5
3C
102
{ACAD_REACTORS
330
3B
102
}
330
3B
100
AcDbMaterial
  1
ByLayer
 72
     1
 94
      127
  0
MATERIAL
  5
3E
102
{ACAD_REACTORS
330
3B
102
}
330
3B
100
AcDbMaterial
  1
Global
 72
     1
 94
      127
  0
MLINESTYLE
  5
18
102
{ACAD_REACTORS
330
17
102
}
330
17
100
AcDbMlineStyle
  2
Standard
 70
     0
  3

 62
   256
 51
90.0
 52
90.0
 71
     2
 49
0.5
 62
   256
  6
BYLAYER
 49
-0.5
 62
   256
  6
BYLAYER
  0
ACDBPLACEHOLDER
  5
F
102
{ACAD_REACTORS
330
E
102
}
330
E
  0
VISUALSTYLE
  5
2F
102
{ACAD_REACTORS
330
2A
102
}
330
2A
100
AcDbVisualStyle
  2
2dWireframe
 70
     4
177
     2
291
     0
 71
     0
176
     1
 72
     2
176
     1
 73
     0
176
     1
 90
        0
176
     1
 40
-0.6
176
     1
 41
-30.0
176
     1
 62
     5
 63
     7
421
 16777215
176
     1
 74
     1
176
     1
 91
        4
176
     1
 64
     7
176
     1
 65
   257
176
     1
 75
     1
176
     1
175
     1
176
     1
 42
1.0
176
     1
 92
        0
176
     1
 66
   257
176
     1
 43
1.0
176
     1
 76
     1
176
     1
 77
     6
176
     1
 78
     2
176
     1
 67
     7
176
     1
 79
     5
176
     1
170
     0
176
     1
171
     0
176
     1
290
     0
176
     1
 93
        1
176
     1
 44
0.0
176
     1
173
     0
176
     1
  0
VISUALSTYLE
  5
31
102
{ACAD_REACTORS
330
2A
102
}
330
2A
100
AcDbVisualStyle
  2
3D Hidden
 70
     6
177
     2
291
     0
 71
     1
176
     1
 72
     2
176
     1
 73
     2
176
     1
 90
        0
176
     1
 40
-0.6
176
     1
 41
-30.0
176
     1
 62
     5
 63
     7
421
 16777215
176
     1
 74
     2
176
     1
 91
        2
176
     1
 64
     7
176
     1
 65
   257
176
     1
 75
     2
176
     1
175
     1
176
     1
 42
40.0
176
     1
 92
        0
176
     1
 66
   257
176
     1
 43
1.0
176
     1
 76
     1
176
     1
 77
     6
176
     1
 78
     2
176
     1
 67
     7
176
     1
 79
     3
176
     1
170
     0
176
     1
171
     0
176
     1
290
     0
176
     1
 93
        1
176
     1
 44
0.0
176
     1
173
     0
176
     1
  0
VISUALSTYLE
  5
30
102
{ACAD_REACTORS
330
2A
102
}
330
2A
100
AcDbVisualStyle
  2
3dWireframe
 70
     5
177
     2
291
     0
 71
     0
176
     1
 72
     2
176
     1
 73
     0
176
     1
 90
        0
176
     1
 40
-0.6
176
     1
 41
-30.0
176
     1
 62
     5
 63
     7
421
 16777215
176
     1
 74
     1
176
     1
 91
        4
176
     1
 64
     7
176
     1
 65
   257
176
     1
 75
     1
176
     1
175
     1
176
     1
 42
1.0
176
     1
 92
        0
176
     1
 66
   257
176
     1
 43
1.0
176
     1
 76
     1
176
     1
 77
     6
176
     1
 78
     2
176
     1
 67
     7
176
     1
 79
     5
176
     1
170
     0
176
     1
171
     0
176
     1
290
     0
176
     1
 93
        1
176
     1
 44
0.0
176
     1
173
     0
176
     1
  0
VISUALSTYLE
  5
32
102
{ACAD_REACTORS
330
2A
102
}
330
2A
100
AcDbVisualStyle
  2
Basic
 70
     7
177
     2
291
     1
 71
     1
176
     1
 72
     0
176
     1
 73
     1
176
     1
 90
        0
176
     1
 40
-0.6
176
     1
 41
-30.0
176
     1
 62
     5
 63
     7
421
 16777215
176
     1
 74
     0
176
     1
 91
        4
176
     1
 64
     7
176
     1
 65
   257
176
     1
 75
     1
176
     1
175
     1
176
     1
 42
1.0
176
     1
 92
        8
176
     1
 66
     7
176
     1
 43
1.0
176
     1
 76
     1
176
     1
 77
     6
176
     1
 78
     2
176
     1
 67
     7
176
     1
 79
     5
176
     1
170
     0
176
     1
171
     0
176
     1
290
     0
176
     1
 93
        1
176
     1
 44
0.0
176
     1
173
     0
176
     1
  0
VISUALSTYLE
  5
36
102
{ACAD_REACTORS
330
2A
102
}
330
2A
100
AcDbVisualStyle
  2
Brighten
 70
    12
177
     2
291
     1
 71
     2
176
     1
 72
     2
176
     1
 73
     0
176
     1
 90
        0
176
     1
 40
-0.6
176
     1
 41
-30.0
176
     1
 62
     5
 63
     7
421
 16777215
176
     1
 74
     1
176
     1
 91
        4
176
     1
 64
     7
176
     1
 65
   257
176
     1
 75
     1
176
     1
175
     1
176
     1
 42
1.0
176
     1
 92
        8
176
     1
 66
     7
176
     1
 43
1.0
176
     1
 76
     1
176
     1
 77
     6
176
     1
 78
     2
176
     1
 67
     7
176
     1
 79
     5
176
     1
170
     0
176
     1
171
     0
176
     1
290
     0
176
     1
 93
        1
176
     1
 44
50.0
176
     1
173
     0
176
     1
  0
VISUALSTYLE
  5
3A
102
{ACAD_REACTORS
330
2A
102
}
330
2A
100
AcDbVisualStyle
  2
ColorChange
 70
    16
177
     2
291
     1
 71
     2
176
     1
 72
     2
176
     1
 73
     3
176
     1
 90
        0
176
     1
 40
-0.6
176
     1
 41
-30.0
176
     1
 62
     5
 63
     8
421
  8421504
176
     1
 74
     1
176
     1
 91
        4
176
     1
 64
     7
176
     1
 65
   257
176
     1
 75
     1
176
     1
175
     1
176
     1
 42
1.0
176
     1
 92
        8
176
     1
 66
     8
424
  8421504
176
     1
 43
1.0
176
     1
 76
     1
176
     1
 77
     6
176
     1
 78
     2
176
     1
 67
     7
176
     1
 79
     5
176
     1
170
     0
176
     1
171
     0
176
     1
290
     0
176
     1
 93
        1
176
     1
 44
0.0
176
     1
173
     0
176
     1
  0
VISUALSTYLE
  5
34
102
{ACAD_REACTORS
330
2A
102
}
330
2A
100
AcDbVisualStyle
  2
Conceptual
 70
     9
177
     2
291
     0
 71
     3
176
     1
 72
     2
176
     1
 73
     0
176
     1
 90
        0
176
     1
 40
-0.6
176
     1
 41
-30.0
176
     1
 62
     5
 63
     7
421
 16777215
176
     1
 74
     2
176
     1
 91
        2
176
     1
 64
     7
176
     1
 65
   257
176
     1
 75
     1
176
     1
175
     1
176
     1
 42
40.0
176
     1
 92
        8
176
     1
 66
     7
176
     1
 43
1.0
176
     1
 76
     1
176
     1
 77
     6
176
     1
 78
     2
176
     1
 67
     7
176
     1
 79
     3
176
     1
170
     0
176
     1
171
     0
176
     1
290
     0
176
     1
 93
        1
176
     1
 44
0.0
176
     1
173
     0
176
     1
  0
VISUALSTYLE
  5
35
102
{ACAD_REACTORS
330
2A
102
}
330
2A
100
AcDbVisualStyle
  2
Dim
 70
    11
177
     2
291
     1
 71
     2
176
     1
 72
     2
176
     1
 73
     0
176
     1
 90
        0
176
     1
 40
-0.6
176
     1
 41
-30.0
176
     1
 62
     5
 63
     7
421
 16777215
176
     1
 74
     1
176
     1
 91
        4
176
     1
 64
     7
176
     1
 65
   257
176
     1
 75
     1
176
     1
175
     1
176
     1
 42
1.0
176
     1
 92
        8
176
     1
 66
     7
176
     1
 43
1.0
176
     1
 76
     1
176
     1
 77
     6
176
     1
 78
     2
176
     1
 67
     7
176
     1
 79
     5
176
     1
170
     0
176
     1
171
     0
176
     1
290
     0
176
     1
 93
        1
176
     1
 44
-50.0
176
     1
173
     0
176
     1
  0
VISUALSTYLE
  5
39
102
{ACAD_REACTORS
330
2A
102
}
330
2A
100
AcDbVisualStyle
  2
Facepattern
 70
    15
177
     2
291
     1
 71
     2
176
     1
 72
     2
176
     1
 73
     0
176
     1
 90
        0
176
     1
 40
-0.6
176
     1
 41
-30.0
176
     1
 62
     5
 63
     7
421
 16777215
176
     1
 74
     1
176
     1
 91
        4
176
     1
 64
     7
176
     1
 65
   257
176
     1
 75
     1
176
     1
175
     1
176
     1
 42
1.0
176
     1
 92
        8
176
     1
 66
     7
176
     1
 43
1.0
176
     1
 76
     1
176
     1
 77
     6
176
     1
 78
     2
176
     1
 67
     7
176
     1
 79
     5
176
     1
170
     0
176
     1
171
     0
176
     1
290
     0
176
     1
 93
        1
176
     1
 44
0.0
176
     1
173
     0
176
     1
  0
VISUALSTYLE
  5
2B
102
{ACAD_REACTORS
330
2A
102
}
330
2A
100
AcDbVisualStyle
  2
Flat
 70
     0
177
     2
291
     1
 71
     2
176
     1
 72
     1
176
     1
 73
     1
176
     1
 90
        2
176
     1
 40
-0.6
176
     1
 41
30.0
176
     1
 62
     5
 63
     7
421
 16777215
176
     1
 74
     0
176
     1
 91
        4
176
     1
 64
     7
176
     1
 65
   257
176
     1
 75
     1
176
     1
175
     1
176
     1
 42
1.0
176
     1
 92
        8
176
     1
 66
     7
176
     1
 43
1.0
176
     1
 76
     1
176
     1
 77
     6
176
     1
 78
     2
176
     1
 67
     7
176
     1
 79
     5
176
     1
170
     0
176
     1
171
     0
176
     1
290
     0
176
     1
 93
       13
176
     1
 44
0.0
176
     1
173
     0
176
     1
  0
VISUALSTYLE
  5
2C
102
{ACAD_REACTORS
330
2A
102
}
330
2A
100
AcDbVisualStyle
  2
FlatWithEdges
 70
     1
177
     2
291
     1
 71
     2
176
     1
 72
     1
176
     1
 73
     1
176
     1
 90
        2
176
     1
 40
-0.6
176
     1
 41
30.0
176
     1
 62
     5
 63
     7
421
 16777215
176
     1
 74
     1
176
     1
 91
        4
176
     1
 64
     7
176
     1
 65
   257
176
     1
 75
     1
176
     1
175
     1
176
     1
 42
1.0
176
     1
 92
        0
176
     1
 66
   257
176
     1
 43
1.0
176
     1
 76
     1
176
     1
 77
     6
176
     1
 78
     2
176
     1
 67
     7
176
     1
 79
     5
176
     1
170
     0
176
     1
171
     0
176
     1
290
     0
176
     1
 93
       13
176
     1
 44
0.0
176
     1
173
     0
176
     1
  0
VISUALSTYLE
  5
2D
102
{ACAD_REACTORS
330
2A
102
}
330
2A
100
AcDbVisualStyle
  2
Gouraud
 70
     2
177
     2
291
     1
 71
     2
176
     1
 72
     2
176
     1
 73
     1
176
     1
 90
        2
176
     1
 40
-0.6
176
     1
 41
30.0
176
     1
 62
     5
 63
     7
421
 16777215
176
     1
 74
     0
176
     1
 91
        4
176
     1
 64
     7
176
     1
 65
   257
176
     1
 75
     1
176
     1
175
     1
176
     1
 42
1.0
176
     1
 92
        0
176
     1
 66
     7
176
     1
 43
1.0
176
     1
 76
     1
176
     1
 77
     6
176
     1
 78
     2
176
     1
 67
     7
176
     1
 79
     5
176
     1
170
     0
176
     1
171
     0
176
     1
290
     0
176
     1
 93
       13
176
     1
 44
0.0
176
     1
173
     0
176
     1
  0
VISUALSTYLE
  5
2E
102
{ACAD_REACTORS
330
2A
102
}
330
2A
100
AcDbVisualStyle
  2
GouraudWithEdges
 70
     3
177
     2
291
     1
 71
     2
176
     1
 72
     2
176
     1
 73
     1
176
     1
 90
        2
176
     1
 40
-0.6
176
     1
 41
30.0
176
     1
 62
     5
 63
     7
421
 16777215
176
     1
 74
     1
176
     1
 91
        4
176
     1
 64
     7
176
     1
 65
   257
176
     1
 75
     1
176
     1
175
     1
176
     1
 42
1.0
176
     1
 92
        0
176
     1
 66
   257
176
     1
 43
1.0
176
     1
 76
     1
176
     1
 77
     6
176
     1
 78
     2
176
     1
 67
     7
176
     1
 79
     5
176
     1
170
     0
176
     1
171
     0
176
     1
290
     0
176
     1
 93
       13
176
     1
 44
0.0
176
     1
173
     0
176
     1
  0
VISUALSTYLE
  5
38
102
{ACAD_REACTORS
330
2A
102
}
330
2A
100
AcDbVisualStyle
  2
Linepattern
 70
    14
177
     2
291
     1
 71
     2
176
     1
 72
     2
176
     1
 73
     0
176
     1
 90
        0
176
     1
 40
-0.6
176
     1
 41
-30.0
176
     1
 62
     5
 63
     7
421
 16777215
176
     1
 74
     1
176
     1
 91
        4
176
     1
 64
     7
176
     1
 65
   257
176
     1
 75
     7
176
     1
175
     7
176
     1
 42
1.0
176
     1
 92
        8
176
     1
 66
     7
176
     1
 43
1.0
176
     1
 76
     1
176
     1
 77
     6
176
     1
 78
     2
176
     1
 67
     7
176
     1
 79
     5
176
     1
170
     0
176
     1
171
     0
176
     1
290
     0
176
     1
 93
        1
176
     1
 44
0.0
176
     1
173
     0
176
     1
  0
VISUALSTYLE
  5
33
102
{ACAD_REACTORS
330
2A
102
}
330
2A
100
AcDbVisualStyle
  2
Realistic
 70
     8
177
     2
291
     0
 71
     2
176
     1
 72
     2
176
     1
 73
     0
176
     1
 90
        0
176
     1
 40
-0.6
176
     1
 41
-30.0
176
     1
 62
     5
 63
     7
421
 16777215
176
     1
 74
     1
176
     1
 91
        0
176
     1
 64
     7
176
     1
 65
   257
176
     1
 75
     1
176
     1
175
     1
176
     1
 42
1.0
176
     1
 92
        8
176
     1
 66
     8
424
  7895160
176
     1
 43
1.0
176
     1
 76
     1
176
     1
 77
     6
176
     1
 78
     2
176
     1
 67
     7
176
     1
 79
     5
176
     1
170
     0
176
     1
171
     0
176
     1
290
     0
176
     1
 93
       13
176
     1
 44
0.0
176
     1
173
     0
176
     1
  0
VISUALSTYLE
  5
37
102
{ACAD_REACTORS
330
2A
102
}
330
2A
100
AcDbVisualStyle
  2
Thicken
 70
    13
177
     2
291
     1
 71
     2
176
     1
 72
     2
176
     1
 73
     0
176
     1
 90
        0
176
     1
 40
-0.6
176
     1
 41
-30.0
176
     1
 62
     5
 63
     7
421
 16777215
176
     1
 74
     1
176
     1
 91
        4
176
     1
 64
     7
176
     1
 65
   257
176
     1
 75
     1
176
     1
175
     1
176
     1
 42
1.0
176
     1
 92
       12
176
     1
 66
     7
176
     1
 43
1.0
176
     1
 76
     1
176
     1
 77
     6
176
     1
 78
     2
176
     1
 67
     7
176
     1
 79
     5
176
     1
170
     0
176
     1
171
     0
176
     1
290
     0
176
     1
 93
        1
176
     1
 44
0.0
176
     1
173
     0
176
     1
  0
ENDSEC
  0
EOF
