G04 #@! TF.GenerationSoftware,KiCad,Pcbnew,(5.0.0-3-g5ebb6b6)*
G04 #@! TF.CreationDate,2019-02-23T00:38:08-08:00*
G04 #@! TF.ProjectId,PanelNoSeparation,50616E656C4E6F53657061726174696F,rev?*
G04 #@! TF.SameCoordinates,Original*
G04 #@! TF.FileFunction,Profile,NP*
%FSLAX45Y45*%
G04 Gerber Fmt 4.5, Leading zero omitted, Abs format (unit mm)*
G04 Created by KiCad (PCBNEW (5.0.0-3-g5ebb6b6)) date Saturday, February 23, 2019 at 12:38:08 AM*
%MOMM*%
%LPD*%
G01*
G04 APERTURE LIST*
%ADD10C,0.010000*%
G04 APERTURE END LIST*
D10*
X6303663Y-8564424D02*
X6271912Y-8518564D01*
X6261331Y-8462120D02*
X6271912Y-8405676D01*
X6508276Y-8564424D02*
X6462413Y-8596175D01*
X6349526Y-8596175D02*
X6303663Y-8564424D01*
X6462413Y-8596175D02*
X6405965Y-8606758D01*
X6540022Y-8518564D02*
X6508276Y-8564424D01*
X6462413Y-8328065D02*
X6508276Y-8359816D01*
X6271912Y-8405676D02*
X6303663Y-8359816D01*
X6349526Y-8328065D02*
X6405965Y-8317482D01*
X6271912Y-8518564D02*
X6261331Y-8462120D01*
X6540022Y-8405676D02*
X6550607Y-8462120D01*
X6405965Y-8606758D02*
X6349526Y-8596175D01*
X6550607Y-8462120D02*
X6540022Y-8518564D01*
X6508276Y-8359816D02*
X6540022Y-8405676D01*
X6303663Y-8359816D02*
X6349526Y-8328065D01*
X6405965Y-8317482D02*
X6462413Y-8328065D01*
X6411613Y-18451375D02*
X6355165Y-18461958D01*
X6457476Y-18419624D02*
X6411613Y-18451375D01*
X6489222Y-18373764D02*
X6457476Y-18419624D01*
X6499807Y-18317320D02*
X6489222Y-18373764D01*
X6489222Y-18260876D02*
X6499807Y-18317320D01*
X6457476Y-18215016D02*
X6489222Y-18260876D01*
X6411613Y-18183265D02*
X6457476Y-18215016D01*
X6355165Y-18172682D02*
X6411613Y-18183265D01*
X6298726Y-18183265D02*
X6355165Y-18172682D01*
X6252863Y-18215016D02*
X6298726Y-18183265D01*
X6221112Y-18260876D02*
X6252863Y-18215016D01*
X6210531Y-18317320D02*
X6221112Y-18260876D01*
X6221112Y-18373764D02*
X6210531Y-18317320D01*
X6252863Y-18419624D02*
X6221112Y-18373764D01*
X6298726Y-18451375D02*
X6252863Y-18419624D01*
X6355165Y-18461958D02*
X6298726Y-18451375D01*
X15224706Y-4199153D02*
X15027152Y-4199153D01*
X15827956Y-3800515D02*
X15827956Y-4199153D01*
X15626874Y-3800515D02*
X15827956Y-3800515D01*
X15626874Y-4199153D02*
X15626874Y-3800515D01*
X15827956Y-4199153D02*
X15626874Y-4199153D01*
X16325376Y-4506070D02*
X16314791Y-4576626D01*
X16325376Y-4206209D02*
X16325376Y-4506070D01*
X16314791Y-4135654D02*
X16325376Y-4206209D01*
X16283044Y-4072154D02*
X16314791Y-4135654D01*
X14681428Y-3991011D02*
X14751983Y-3980428D01*
X14617930Y-4022762D02*
X14681428Y-3991011D01*
X14568541Y-4072152D02*
X14617930Y-4022762D01*
X14536790Y-4135652D02*
X14568541Y-4072152D01*
X14526209Y-4206207D02*
X14536790Y-4135652D01*
X14526209Y-4506068D02*
X14526209Y-4206207D01*
X14536790Y-4576624D02*
X14526209Y-4506068D01*
X14568541Y-4640123D02*
X14536790Y-4576624D01*
X14617930Y-4689513D02*
X14568541Y-4640123D01*
X14681428Y-4721264D02*
X14617930Y-4689513D01*
X14751983Y-4731847D02*
X14681428Y-4721264D01*
X14822539Y-4721264D02*
X14751983Y-4731847D01*
X14886041Y-4689513D02*
X14822539Y-4721264D01*
X14935430Y-4640123D02*
X14886041Y-4689513D01*
X14967181Y-4576624D02*
X14935430Y-4640123D01*
X14977766Y-4506068D02*
X14967181Y-4576624D01*
X4574345Y-2347070D02*
X4574345Y-10482127D01*
X25575207Y-2347070D02*
X4574345Y-2347070D01*
X25575207Y-10482127D02*
X25575207Y-2347070D01*
X25575207Y-10880765D02*
X25575207Y-10482127D01*
X25575207Y-18151514D02*
X25575207Y-10880765D01*
X25575207Y-18550153D02*
X25575207Y-18151514D01*
X25575207Y-34347541D02*
X25575207Y-18550153D01*
X4574345Y-34347541D02*
X25575207Y-34347541D01*
X4574345Y-26214013D02*
X4574345Y-34347541D01*
X4571386Y-26214013D02*
X4574345Y-26214013D01*
X4571386Y-25815375D02*
X4571386Y-26214013D01*
X4574345Y-25815375D02*
X4571386Y-25815375D01*
X4574345Y-18550153D02*
X4574345Y-25815375D01*
X4574345Y-18151514D02*
X4574345Y-18550153D01*
X4574345Y-10880765D02*
X4574345Y-18151514D01*
X4574345Y-10482127D02*
X4574345Y-10880765D01*
X15369349Y-6545125D02*
X15425792Y-6534543D01*
X15323490Y-6576876D02*
X15369349Y-6545125D01*
X15291735Y-6622737D02*
X15323490Y-6576876D01*
X15281154Y-6679181D02*
X15291735Y-6622737D01*
X15291735Y-6735624D02*
X15281154Y-6679181D01*
X15323490Y-6781485D02*
X15291735Y-6735624D01*
X15369349Y-6813236D02*
X15323490Y-6781485D01*
X15425792Y-6823819D02*
X15369349Y-6813236D01*
X15482236Y-6813236D02*
X15425792Y-6823819D01*
X15528094Y-6781485D02*
X15482236Y-6813236D01*
X15559850Y-6735624D02*
X15528094Y-6781485D01*
X15570430Y-6679181D02*
X15559850Y-6735624D01*
X15559850Y-6622737D02*
X15570430Y-6679181D01*
X15528094Y-6576876D02*
X15559850Y-6622737D01*
X15482236Y-6545125D02*
X15528094Y-6576876D01*
X15425792Y-6534543D02*
X15482236Y-6545125D01*
X15224706Y-3800515D02*
X15224706Y-4199153D01*
X15027152Y-3800515D02*
X15224706Y-3800515D01*
X15027152Y-4199153D02*
X15027152Y-3800515D01*
X14977766Y-4206207D02*
X14977766Y-4506068D01*
X14967181Y-4135652D02*
X14977766Y-4206207D01*
X14935430Y-4072152D02*
X14967181Y-4135652D01*
X14886041Y-4022762D02*
X14935430Y-4072152D01*
X14822539Y-3991011D02*
X14886041Y-4022762D01*
X14751983Y-3980428D02*
X14822539Y-3991011D01*
X16233650Y-4022764D02*
X16283044Y-4072154D01*
X16170153Y-3991013D02*
X16233650Y-4022764D01*
X16099597Y-3980431D02*
X16170153Y-3991013D01*
X16029042Y-3991013D02*
X16099597Y-3980431D01*
X15965544Y-4022764D02*
X16029042Y-3991013D01*
X15916150Y-4072154D02*
X15965544Y-4022764D01*
X15884403Y-4135654D02*
X15916150Y-4072154D01*
X15873818Y-4206209D02*
X15884403Y-4135654D01*
X15873818Y-4506070D02*
X15873818Y-4206209D01*
X15884403Y-4576626D02*
X15873818Y-4506070D01*
X15916150Y-4640126D02*
X15884403Y-4576626D01*
X15965544Y-4689515D02*
X15916150Y-4640126D01*
X16029042Y-4721266D02*
X15965544Y-4689515D01*
X16099597Y-4731849D02*
X16029042Y-4721266D01*
X16170153Y-4721266D02*
X16099597Y-4731849D01*
X16233650Y-4689515D02*
X16170153Y-4721266D01*
X16283044Y-4640126D02*
X16233650Y-4689515D01*
X16314791Y-4576626D02*
X16283044Y-4640126D01*
X18406765Y-4089795D02*
X18336209Y-4079212D01*
X18477320Y-4079212D02*
X18406765Y-4089795D01*
X18540818Y-4047461D02*
X18477320Y-4079212D01*
X18590207Y-3998072D02*
X18540818Y-4047461D01*
X18621958Y-3934572D02*
X18590207Y-3998072D01*
X18632539Y-3864017D02*
X18621958Y-3934572D01*
X18632539Y-3564155D02*
X18632539Y-3864017D01*
X18621958Y-3493600D02*
X18632539Y-3564155D01*
X18590207Y-3430100D02*
X18621958Y-3493600D01*
X18540818Y-3380711D02*
X18590207Y-3430100D01*
X18477320Y-3348960D02*
X18540818Y-3380711D01*
X18406765Y-3338377D02*
X18477320Y-3348960D01*
X18336209Y-3348960D02*
X18406765Y-3338377D01*
X18272707Y-3380711D02*
X18336209Y-3348960D01*
X18223318Y-3430100D02*
X18272707Y-3380711D01*
X18191567Y-3493600D02*
X18223318Y-3430100D01*
X18180982Y-3564155D02*
X18191567Y-3493600D01*
X18180982Y-3864017D02*
X18180982Y-3564155D01*
X18191567Y-3934572D02*
X18180982Y-3864017D01*
X18223318Y-3998072D02*
X18191567Y-3934572D01*
X18272707Y-4047461D02*
X18223318Y-3998072D01*
X18336209Y-4079212D02*
X18272707Y-4047461D01*
X17055624Y-3334846D02*
X17126180Y-3345428D01*
X16985069Y-3345428D02*
X17055624Y-3334846D01*
X16921567Y-3377179D02*
X16985069Y-3345428D01*
X16872181Y-3426569D02*
X16921567Y-3377179D01*
X16840426Y-3490069D02*
X16872181Y-3426569D01*
X16829845Y-3560624D02*
X16840426Y-3490069D01*
X16829845Y-3860485D02*
X16829845Y-3560624D01*
X16840426Y-3931041D02*
X16829845Y-3860485D01*
X16872181Y-3994540D02*
X16840426Y-3931041D01*
X16921567Y-4043930D02*
X16872181Y-3994540D01*
X16985069Y-4075681D02*
X16921567Y-4043930D01*
X17055624Y-4086264D02*
X16985069Y-4075681D01*
X17126180Y-4075681D02*
X17055624Y-4086264D01*
X17189681Y-4043930D02*
X17126180Y-4075681D01*
X17239067Y-3994540D02*
X17189681Y-4043930D01*
X17270822Y-3931041D02*
X17239067Y-3994540D01*
X17281403Y-3860485D02*
X17270822Y-3931041D01*
X17281403Y-3560624D02*
X17281403Y-3860485D01*
X17270822Y-3490069D02*
X17281403Y-3560624D01*
X17239067Y-3426569D02*
X17270822Y-3490069D01*
X17189681Y-3377179D02*
X17239067Y-3426569D01*
X17126180Y-3345428D02*
X17189681Y-3377179D01*
X17930515Y-3557097D02*
X17930515Y-3158459D01*
X18131596Y-3557097D02*
X17930515Y-3557097D01*
X18131596Y-3158459D02*
X18131596Y-3557097D01*
X17930515Y-3158459D02*
X18131596Y-3158459D01*
X17330792Y-3158459D02*
X17528347Y-3158459D01*
X17330792Y-3557097D02*
X17330792Y-3158459D01*
X17531874Y-3557097D02*
X17330792Y-3557097D01*
X17531874Y-3507710D02*
X17531874Y-3557097D01*
X17528347Y-3507710D02*
X17531874Y-3507710D01*
X17528347Y-3158459D02*
X17528347Y-3507710D01*
X17785872Y-5977152D02*
X17729433Y-5987735D01*
X17831735Y-5945401D02*
X17785872Y-5977152D01*
X17863486Y-5899540D02*
X17831735Y-5945401D01*
X17874067Y-5843097D02*
X17863486Y-5899540D01*
X17863486Y-5786653D02*
X17874067Y-5843097D01*
X17831735Y-5740793D02*
X17863486Y-5786653D01*
X17785872Y-5709042D02*
X17831735Y-5740793D01*
X17729433Y-5698459D02*
X17785872Y-5709042D01*
X17672985Y-5709042D02*
X17729433Y-5698459D01*
X17627127Y-5740793D02*
X17672985Y-5709042D01*
X17595376Y-5786653D02*
X17627127Y-5740793D01*
X17584791Y-5843097D02*
X17595376Y-5786653D01*
X17595376Y-5899540D02*
X17584791Y-5843097D01*
X17627127Y-5945401D02*
X17595376Y-5899540D01*
X17672985Y-5977152D02*
X17627127Y-5945401D01*
X17729433Y-5987735D02*
X17672985Y-5977152D01*
X17055624Y-32608347D02*
X17126180Y-32618930D01*
X16985069Y-32618930D02*
X17055624Y-32608347D01*
X16921567Y-32650681D02*
X16985069Y-32618930D01*
X16872181Y-32700069D02*
X16921567Y-32650681D01*
X16840426Y-32763570D02*
X16872181Y-32700069D01*
X16829845Y-32834126D02*
X16840426Y-32763570D01*
X16829845Y-33133987D02*
X16829845Y-32834126D01*
X16840426Y-33204543D02*
X16829845Y-33133987D01*
X16872181Y-33268042D02*
X16840426Y-33204543D01*
X16921567Y-33317430D02*
X16872181Y-33268042D01*
X16985069Y-33349181D02*
X16921567Y-33317430D01*
X17055624Y-33359763D02*
X16985069Y-33349181D01*
X17126180Y-33349181D02*
X17055624Y-33359763D01*
X17189681Y-33317430D02*
X17126180Y-33349181D01*
X17239067Y-33268042D02*
X17189681Y-33317430D01*
X17270822Y-33204543D02*
X17239067Y-33268042D01*
X17281403Y-33133987D02*
X17270822Y-33204543D01*
X17281403Y-32834126D02*
X17281403Y-33133987D01*
X17270822Y-32763570D02*
X17281403Y-32834126D01*
X17239067Y-32700069D02*
X17270822Y-32763570D01*
X17189681Y-32650681D02*
X17239067Y-32700069D01*
X17126180Y-32618930D02*
X17189681Y-32650681D01*
X18406765Y-33359763D02*
X18336209Y-33349181D01*
X18477320Y-33349181D02*
X18406765Y-33359763D01*
X18540818Y-33317430D02*
X18477320Y-33349181D01*
X18590207Y-33268042D02*
X18540818Y-33317430D01*
X18621958Y-33204543D02*
X18590207Y-33268042D01*
X18632539Y-33133987D02*
X18621958Y-33204543D01*
X18632539Y-32834126D02*
X18632539Y-33133987D01*
X18621958Y-32763570D02*
X18632539Y-32834126D01*
X18590207Y-32700069D02*
X18621958Y-32763570D01*
X18540818Y-32650681D02*
X18590207Y-32700069D01*
X18477320Y-32618930D02*
X18540818Y-32650681D01*
X18406765Y-32608347D02*
X18477320Y-32618930D01*
X18336209Y-32618930D02*
X18406765Y-32608347D01*
X18272707Y-32650681D02*
X18336209Y-32618930D01*
X18223318Y-32700069D02*
X18272707Y-32650681D01*
X18191567Y-32763570D02*
X18223318Y-32700069D01*
X18180982Y-32834126D02*
X18191567Y-32763570D01*
X18180982Y-33133987D02*
X18180982Y-32834126D01*
X18191567Y-33204543D02*
X18180982Y-33133987D01*
X18223318Y-33268042D02*
X18191567Y-33204543D01*
X18272707Y-33317430D02*
X18223318Y-33268042D01*
X18336209Y-33349181D02*
X18272707Y-33317430D01*
X17531874Y-33141041D02*
X17531874Y-33539681D01*
X17330792Y-33141041D02*
X17531874Y-33141041D01*
X17330792Y-33539681D02*
X17330792Y-33141041D01*
X17531874Y-33539681D02*
X17330792Y-33539681D01*
X18131596Y-33539681D02*
X17934046Y-33539681D01*
X18131596Y-33141041D02*
X18131596Y-33539681D01*
X17930515Y-33141041D02*
X18131596Y-33141041D01*
X17930515Y-33186904D02*
X17930515Y-33141041D01*
X17934046Y-33186904D02*
X17930515Y-33186904D01*
X17934046Y-33539681D02*
X17934046Y-33186904D01*
X17672985Y-30706874D02*
X17729433Y-30696291D01*
X17627127Y-30738625D02*
X17672985Y-30706874D01*
X17595376Y-30784486D02*
X17627127Y-30738625D01*
X17584791Y-30840931D02*
X17595376Y-30784486D01*
X17595376Y-30897375D02*
X17584791Y-30840931D01*
X17627127Y-30943236D02*
X17595376Y-30897375D01*
X17672985Y-30974987D02*
X17627127Y-30943236D01*
X17729433Y-30985569D02*
X17672985Y-30974987D01*
X17785872Y-30974987D02*
X17729433Y-30985569D01*
X17831735Y-30943236D02*
X17785872Y-30974987D01*
X17863486Y-30897375D02*
X17831735Y-30943236D01*
X17874067Y-30840931D02*
X17863486Y-30897375D01*
X17863486Y-30784486D02*
X17874067Y-30840931D01*
X17831735Y-30738625D02*
X17863486Y-30784486D01*
X17785872Y-30706874D02*
X17831735Y-30738625D01*
X17729433Y-30696291D02*
X17785872Y-30706874D01*
X14751983Y-31966291D02*
X14822539Y-31976874D01*
X14681428Y-31976874D02*
X14751983Y-31966291D01*
X14617930Y-32008625D02*
X14681428Y-31976874D01*
X14568541Y-32058013D02*
X14617930Y-32008625D01*
X14536790Y-32121514D02*
X14568541Y-32058013D01*
X14526209Y-32192070D02*
X14536790Y-32121514D01*
X14526209Y-32491931D02*
X14526209Y-32192070D01*
X14536790Y-32562487D02*
X14526209Y-32491931D01*
X14568541Y-32625986D02*
X14536790Y-32562487D01*
X14617930Y-32675374D02*
X14568541Y-32625986D01*
X14681428Y-32707125D02*
X14617930Y-32675374D01*
X14751983Y-32717708D02*
X14681428Y-32707125D01*
X14822539Y-32707125D02*
X14751983Y-32717708D01*
X14886041Y-32675374D02*
X14822539Y-32707125D01*
X14935430Y-32625986D02*
X14886041Y-32675374D01*
X14967181Y-32562487D02*
X14935430Y-32625986D01*
X14977766Y-32491931D02*
X14967181Y-32562487D01*
X14977766Y-32192070D02*
X14977766Y-32491931D01*
X14967181Y-32121514D02*
X14977766Y-32192070D01*
X14935430Y-32058013D02*
X14967181Y-32121514D01*
X14886041Y-32008625D02*
X14935430Y-32058013D01*
X14822539Y-31976874D02*
X14886041Y-32008625D01*
X16099597Y-32717708D02*
X16029042Y-32707125D01*
X16170153Y-32707125D02*
X16099597Y-32717708D01*
X16233650Y-32675374D02*
X16170153Y-32707125D01*
X16283044Y-32625986D02*
X16233650Y-32675374D01*
X16314791Y-32562487D02*
X16283044Y-32625986D01*
X16325376Y-32491931D02*
X16314791Y-32562487D01*
X16325376Y-32192070D02*
X16325376Y-32491931D01*
X16314791Y-32121514D02*
X16325376Y-32192070D01*
X16283044Y-32058013D02*
X16314791Y-32121514D01*
X16233650Y-32008625D02*
X16283044Y-32058013D01*
X16170153Y-31976874D02*
X16233650Y-32008625D01*
X16099597Y-31966291D02*
X16170153Y-31976874D01*
X16029042Y-31976874D02*
X16099597Y-31966291D01*
X15965544Y-32008625D02*
X16029042Y-31976874D01*
X15916150Y-32058013D02*
X15965544Y-32008625D01*
X15884403Y-32121514D02*
X15916150Y-32058013D01*
X15873818Y-32192070D02*
X15884403Y-32121514D01*
X15873818Y-32491931D02*
X15873818Y-32192070D01*
X15884403Y-32562487D02*
X15873818Y-32491931D01*
X15916150Y-32625986D02*
X15884403Y-32562487D01*
X15965544Y-32675374D02*
X15916150Y-32625986D01*
X16029042Y-32707125D02*
X15965544Y-32675374D01*
X15027152Y-32506041D02*
X15228233Y-32506041D01*
X15027152Y-32904681D02*
X15027152Y-32506041D01*
X15228233Y-32904681D02*
X15027152Y-32904681D01*
X15228233Y-32506041D02*
X15228233Y-32904681D01*
X15827956Y-32904681D02*
X15626874Y-32904681D01*
X15827956Y-32506041D02*
X15827956Y-32904681D01*
X15626874Y-32506041D02*
X15827956Y-32506041D01*
X15626874Y-32904681D02*
X15626874Y-32506041D01*
X15369349Y-29881375D02*
X15425792Y-29870793D01*
X15323490Y-29913124D02*
X15369349Y-29881375D01*
X15291735Y-29958985D02*
X15323490Y-29913124D01*
X15281154Y-30015431D02*
X15291735Y-29958985D01*
X15291735Y-30071874D02*
X15281154Y-30015431D01*
X15323490Y-30117735D02*
X15291735Y-30071874D01*
X15369349Y-30149486D02*
X15323490Y-30117735D01*
X15425792Y-30160069D02*
X15369349Y-30149486D01*
X15482236Y-30149486D02*
X15425792Y-30160069D01*
X15528094Y-30117735D02*
X15482236Y-30149486D01*
X15559850Y-30071874D02*
X15528094Y-30117735D01*
X15570430Y-30015431D02*
X15559850Y-30071874D01*
X15559850Y-29958985D02*
X15570430Y-30015431D01*
X15528094Y-29913124D02*
X15559850Y-29958985D01*
X15482236Y-29881375D02*
X15528094Y-29913124D01*
X15425792Y-29870793D02*
X15482236Y-29881375D01*
X12430704Y-31966291D02*
X12501259Y-31976874D01*
X12360148Y-31976874D02*
X12430704Y-31966291D01*
X12296651Y-32008625D02*
X12360148Y-31976874D01*
X12247261Y-32058013D02*
X12296651Y-32008625D01*
X12215515Y-32121514D02*
X12247261Y-32058013D01*
X12204930Y-32192070D02*
X12215515Y-32121514D01*
X12204930Y-32491931D02*
X12204930Y-32192070D01*
X12215515Y-32562487D02*
X12204930Y-32491931D01*
X12247261Y-32625986D02*
X12215515Y-32562487D01*
X12296651Y-32675374D02*
X12247261Y-32625986D01*
X12360148Y-32707125D02*
X12296651Y-32675374D01*
X12430704Y-32717708D02*
X12360148Y-32707125D01*
X12501259Y-32707125D02*
X12430704Y-32717708D01*
X12564761Y-32675374D02*
X12501259Y-32707125D01*
X12614151Y-32625986D02*
X12564761Y-32675374D01*
X12645902Y-32562487D02*
X12614151Y-32625986D01*
X12656482Y-32491931D02*
X12645902Y-32562487D01*
X12656482Y-32192070D02*
X12656482Y-32491931D01*
X12645902Y-32121514D02*
X12656482Y-32192070D01*
X12614151Y-32058013D02*
X12645902Y-32121514D01*
X12564761Y-32008625D02*
X12614151Y-32058013D01*
X12501259Y-31976874D02*
X12564761Y-32008625D01*
X13781844Y-32717708D02*
X13711289Y-32707125D01*
X13852400Y-32707125D02*
X13781844Y-32717708D01*
X13915902Y-32675374D02*
X13852400Y-32707125D01*
X13965287Y-32625986D02*
X13915902Y-32675374D01*
X13997042Y-32562487D02*
X13965287Y-32625986D01*
X14007623Y-32491931D02*
X13997042Y-32562487D01*
X14007623Y-32192070D02*
X14007623Y-32491931D01*
X13997042Y-32121514D02*
X14007623Y-32192070D01*
X13965287Y-32058013D02*
X13997042Y-32121514D01*
X13915902Y-32008625D02*
X13965287Y-32058013D01*
X13852400Y-31976874D02*
X13915902Y-32008625D01*
X13781844Y-31966291D02*
X13852400Y-31976874D01*
X13711289Y-31976874D02*
X13781844Y-31966291D01*
X13647792Y-32008625D02*
X13711289Y-31976874D01*
X13598402Y-32058013D02*
X13647792Y-32008625D01*
X13566655Y-32121514D02*
X13598402Y-32058013D01*
X13556070Y-32192070D02*
X13566655Y-32121514D01*
X13556070Y-32491931D02*
X13556070Y-32192070D01*
X13566655Y-32562487D02*
X13556070Y-32491931D01*
X13598402Y-32625986D02*
X13566655Y-32562487D01*
X13647792Y-32675374D02*
X13598402Y-32625986D01*
X13711289Y-32707125D02*
X13647792Y-32675374D01*
X12906958Y-32506041D02*
X12906958Y-32904681D01*
X12705872Y-32506041D02*
X12906958Y-32506041D01*
X12705872Y-32904681D02*
X12705872Y-32506041D01*
X12906958Y-32904681D02*
X12705872Y-32904681D01*
X13506676Y-32904681D02*
X13309126Y-32904681D01*
X13506676Y-32506041D02*
X13506676Y-32904681D01*
X13309126Y-32506041D02*
X13506676Y-32506041D01*
X13309126Y-32904681D02*
X13309126Y-32506041D01*
X13051596Y-29881375D02*
X13108040Y-29870793D01*
X13005733Y-29913124D02*
X13051596Y-29881375D01*
X12973987Y-29958985D02*
X13005733Y-29913124D01*
X12963402Y-30015431D02*
X12973987Y-29958985D01*
X12973987Y-30071874D02*
X12963402Y-30015431D01*
X13005733Y-30117735D02*
X12973987Y-30071874D01*
X13051596Y-30149486D02*
X13005733Y-30117735D01*
X13108040Y-30160069D02*
X13051596Y-30149486D01*
X13164483Y-30149486D02*
X13108040Y-30160069D01*
X13210346Y-30117735D02*
X13164483Y-30149486D01*
X13242093Y-30071874D02*
X13210346Y-30117735D01*
X13252678Y-30015431D02*
X13242093Y-30071874D01*
X13242093Y-29958985D02*
X13252678Y-30015431D01*
X13210346Y-29913124D02*
X13242093Y-29958985D01*
X13164483Y-29881375D02*
X13210346Y-29913124D01*
X13108040Y-29870793D02*
X13164483Y-29881375D01*
X10225843Y-31027903D02*
X10296398Y-31038486D01*
X10155287Y-31038486D02*
X10225843Y-31027903D01*
X10091790Y-31070237D02*
X10155287Y-31038486D01*
X10042400Y-31119625D02*
X10091790Y-31070237D01*
X10010654Y-31183124D02*
X10042400Y-31119625D01*
X10000069Y-31253680D02*
X10010654Y-31183124D01*
X10000069Y-31553541D02*
X10000069Y-31253680D01*
X10010654Y-31624096D02*
X10000069Y-31553541D01*
X10042400Y-31687598D02*
X10010654Y-31624096D01*
X10091790Y-31736986D02*
X10042400Y-31687598D01*
X10155287Y-31768737D02*
X10091790Y-31736986D01*
X10225843Y-31779319D02*
X10155287Y-31768737D01*
X10296398Y-31768737D02*
X10225843Y-31779319D01*
X10359900Y-31736986D02*
X10296398Y-31768737D01*
X10409290Y-31687598D02*
X10359900Y-31736986D01*
X10441041Y-31624096D02*
X10409290Y-31687598D01*
X10451621Y-31553541D02*
X10441041Y-31624096D01*
X10451621Y-31253680D02*
X10451621Y-31553541D01*
X10441041Y-31183124D02*
X10451621Y-31253680D01*
X10409290Y-31119625D02*
X10441041Y-31183124D01*
X10359900Y-31070237D02*
X10409290Y-31119625D01*
X10296398Y-31038486D02*
X10359900Y-31070237D01*
X11576983Y-31779319D02*
X11506428Y-31768737D01*
X11647539Y-31768737D02*
X11576983Y-31779319D01*
X11711041Y-31736986D02*
X11647539Y-31768737D01*
X11760426Y-31687598D02*
X11711041Y-31736986D01*
X11792181Y-31624096D02*
X11760426Y-31687598D01*
X11802762Y-31553541D02*
X11792181Y-31624096D01*
X11802762Y-31253680D02*
X11802762Y-31553541D01*
X11792181Y-31183124D02*
X11802762Y-31253680D01*
X11760426Y-31119625D02*
X11792181Y-31183124D01*
X11711041Y-31070237D02*
X11760426Y-31119625D01*
X11647539Y-31038486D02*
X11711041Y-31070237D01*
X11576983Y-31027903D02*
X11647539Y-31038486D01*
X11506428Y-31038486D02*
X11576983Y-31027903D01*
X11442930Y-31070237D02*
X11506428Y-31038486D01*
X11393541Y-31119625D02*
X11442930Y-31070237D01*
X11361794Y-31183124D02*
X11393541Y-31119625D01*
X11351209Y-31253680D02*
X11361794Y-31183124D01*
X11351209Y-31553541D02*
X11351209Y-31253680D01*
X11361794Y-31624096D02*
X11351209Y-31553541D01*
X11393541Y-31687598D02*
X11361794Y-31624096D01*
X11442930Y-31736986D02*
X11393541Y-31687598D01*
X11506428Y-31768737D02*
X11442930Y-31736986D01*
X10702097Y-31592348D02*
X10702097Y-31966291D01*
X10702097Y-31567653D02*
X10702097Y-31592348D01*
X10501011Y-31567653D02*
X10702097Y-31567653D01*
X10501011Y-31966291D02*
X10501011Y-31567653D01*
X10702097Y-31966291D02*
X10501011Y-31966291D01*
X11301815Y-31966291D02*
X11100733Y-31966291D01*
X11301815Y-31567653D02*
X11301815Y-31966291D01*
X11100733Y-31567653D02*
X11301815Y-31567653D01*
X11100733Y-31592348D02*
X11100733Y-31567653D01*
X11100733Y-31592348D02*
X11100733Y-31592348D01*
X11100733Y-31966291D02*
X11100733Y-31592348D01*
X10843204Y-29048819D02*
X10899652Y-29038236D01*
X10797345Y-29080569D02*
X10843204Y-29048819D01*
X10765595Y-29126430D02*
X10797345Y-29080569D01*
X10755014Y-29182874D02*
X10765595Y-29126430D01*
X10765595Y-29239319D02*
X10755014Y-29182874D01*
X10797345Y-29285180D02*
X10765595Y-29239319D01*
X10843204Y-29316929D02*
X10797345Y-29285180D01*
X10899652Y-29327512D02*
X10843204Y-29316929D01*
X10956095Y-29316929D02*
X10899652Y-29327512D01*
X11001954Y-29285180D02*
X10956095Y-29316929D01*
X11033709Y-29239319D02*
X11001954Y-29285180D01*
X11044290Y-29182874D02*
X11033709Y-29239319D01*
X11033709Y-29126430D02*
X11044290Y-29182874D01*
X11001954Y-29080569D02*
X11033709Y-29126430D01*
X10956095Y-29048819D02*
X11001954Y-29080569D01*
X10899652Y-29038236D02*
X10956095Y-29048819D01*
X7922206Y-31027903D02*
X7992762Y-31038486D01*
X7851651Y-31038486D02*
X7922206Y-31027903D01*
X7788153Y-31070237D02*
X7851651Y-31038486D01*
X7738764Y-31119625D02*
X7788153Y-31070237D01*
X7707013Y-31183124D02*
X7738764Y-31119625D01*
X7696428Y-31253680D02*
X7707013Y-31183124D01*
X7696428Y-31553541D02*
X7696428Y-31253680D01*
X7707013Y-31624096D02*
X7696428Y-31553541D01*
X7738764Y-31687598D02*
X7707013Y-31624096D01*
X7788153Y-31736986D02*
X7738764Y-31687598D01*
X7851651Y-31768737D02*
X7788153Y-31736986D01*
X7922206Y-31779319D02*
X7851651Y-31768737D01*
X7992762Y-31768737D02*
X7922206Y-31779319D01*
X8056259Y-31736986D02*
X7992762Y-31768737D01*
X8105653Y-31687598D02*
X8056259Y-31736986D01*
X8137400Y-31624096D02*
X8105653Y-31687598D01*
X8147985Y-31553541D02*
X8137400Y-31624096D01*
X8147985Y-31253680D02*
X8147985Y-31553541D01*
X8137400Y-31183124D02*
X8147985Y-31253680D01*
X8105653Y-31119625D02*
X8137400Y-31183124D01*
X8056259Y-31070237D02*
X8105653Y-31119625D01*
X7992762Y-31038486D02*
X8056259Y-31070237D01*
X9269820Y-31779319D02*
X9199265Y-31768737D01*
X9340376Y-31768737D02*
X9269820Y-31779319D01*
X9403873Y-31736986D02*
X9340376Y-31768737D01*
X9453263Y-31687598D02*
X9403873Y-31736986D01*
X9485010Y-31624096D02*
X9453263Y-31687598D01*
X9495595Y-31553541D02*
X9485010Y-31624096D01*
X9495595Y-31253680D02*
X9495595Y-31553541D01*
X9485010Y-31183124D02*
X9495595Y-31253680D01*
X9453263Y-31119625D02*
X9485010Y-31183124D01*
X9403873Y-31070237D02*
X9453263Y-31119625D01*
X9340376Y-31038486D02*
X9403873Y-31070237D01*
X9269820Y-31027903D02*
X9340376Y-31038486D01*
X9199265Y-31038486D02*
X9269820Y-31027903D01*
X9135763Y-31070237D02*
X9199265Y-31038486D01*
X9086373Y-31119625D02*
X9135763Y-31070237D01*
X9054622Y-31183124D02*
X9086373Y-31119625D01*
X9044042Y-31253680D02*
X9054622Y-31183124D01*
X9044042Y-31553541D02*
X9044042Y-31253680D01*
X9054622Y-31624096D02*
X9044042Y-31553541D01*
X9086373Y-31687598D02*
X9054622Y-31624096D01*
X9135763Y-31736986D02*
X9086373Y-31687598D01*
X9199265Y-31768737D02*
X9135763Y-31736986D01*
X8197371Y-31567653D02*
X8394930Y-31567653D01*
X8197371Y-31966291D02*
X8197371Y-31567653D01*
X8394930Y-31966291D02*
X8197371Y-31966291D01*
X8394930Y-31567653D02*
X8394930Y-31966291D01*
X8998179Y-31966291D02*
X8797097Y-31966291D01*
X8998179Y-31567653D02*
X8998179Y-31966291D01*
X8797097Y-31567653D02*
X8998179Y-31567653D01*
X8797097Y-31966291D02*
X8797097Y-31567653D01*
X8539568Y-29048819D02*
X8596011Y-29038236D01*
X8493709Y-29080569D02*
X8539568Y-29048819D01*
X8461954Y-29126430D02*
X8493709Y-29080569D01*
X8451373Y-29182874D02*
X8461954Y-29126430D01*
X8461954Y-29239319D02*
X8451373Y-29182874D01*
X8493709Y-29285180D02*
X8461954Y-29239319D01*
X8539568Y-29316929D02*
X8493709Y-29285180D01*
X8596011Y-29327512D02*
X8539568Y-29316929D01*
X8652459Y-29316929D02*
X8596011Y-29327512D01*
X8698318Y-29285180D02*
X8652459Y-29316929D01*
X8730069Y-29239319D02*
X8698318Y-29285180D01*
X8740649Y-29182874D02*
X8730069Y-29239319D01*
X8730069Y-29126430D02*
X8740649Y-29182874D01*
X8698318Y-29080569D02*
X8730069Y-29126430D01*
X8652459Y-29048819D02*
X8698318Y-29080569D01*
X8596011Y-29038236D02*
X8652459Y-29048819D01*
X5925485Y-29309875D02*
X5914900Y-29380431D01*
X5925485Y-29010014D02*
X5925485Y-29309875D01*
X5914900Y-28939458D02*
X5925485Y-29010014D01*
X5883153Y-28875959D02*
X5914900Y-28939458D01*
X5833759Y-28826569D02*
X5883153Y-28875959D01*
X5770262Y-28794820D02*
X5833759Y-28826569D01*
X5699706Y-28784237D02*
X5770262Y-28794820D01*
X5629151Y-28794820D02*
X5699706Y-28784237D01*
X5565654Y-28826569D02*
X5629151Y-28794820D01*
X5516264Y-28875959D02*
X5565654Y-28826569D01*
X5484513Y-28939458D02*
X5516264Y-28875959D01*
X5473928Y-29010014D02*
X5484513Y-28939458D01*
X5473928Y-29309875D02*
X5473928Y-29010014D01*
X5484513Y-29380431D02*
X5473928Y-29309875D01*
X5516264Y-29443930D02*
X5484513Y-29380431D01*
X5565654Y-29493318D02*
X5516264Y-29443930D01*
X5629151Y-29525069D02*
X5565654Y-29493318D01*
X5699706Y-29535652D02*
X5629151Y-29525069D01*
X5770262Y-29525069D02*
X5699706Y-29535652D01*
X5833759Y-29493318D02*
X5770262Y-29525069D01*
X5883153Y-29443930D02*
X5833759Y-29493318D01*
X5914900Y-29380431D02*
X5883153Y-29443930D01*
X6154791Y-29313402D02*
X6154791Y-29712040D01*
X5953709Y-29313402D02*
X6154791Y-29313402D01*
X5953709Y-29712040D02*
X5953709Y-29313402D01*
X6154791Y-29712040D02*
X5953709Y-29712040D01*
X6317068Y-28103375D02*
X6373511Y-28092792D01*
X6271209Y-28135125D02*
X6317068Y-28103375D01*
X6239454Y-28180986D02*
X6271209Y-28135125D01*
X6228873Y-28237430D02*
X6239454Y-28180986D01*
X6239454Y-28293875D02*
X6228873Y-28237430D01*
X6271209Y-28339736D02*
X6239454Y-28293875D01*
X6317068Y-28371485D02*
X6271209Y-28339736D01*
X6373511Y-28382068D02*
X6317068Y-28371485D01*
X6429959Y-28371485D02*
X6373511Y-28382068D01*
X6475818Y-28339736D02*
X6429959Y-28371485D01*
X6507568Y-28293875D02*
X6475818Y-28339736D01*
X6518149Y-28237430D02*
X6507568Y-28293875D01*
X6507568Y-28180986D02*
X6518149Y-28237430D01*
X6475818Y-28135125D02*
X6507568Y-28180986D01*
X6429959Y-28103375D02*
X6475818Y-28135125D01*
X6373511Y-28092792D02*
X6429959Y-28103375D01*
X13781844Y-4731849D02*
X13711289Y-4721266D01*
X13852400Y-4721266D02*
X13781844Y-4731849D01*
X19472152Y-31729930D02*
X19461567Y-31800485D01*
X19472152Y-31430069D02*
X19472152Y-31729930D01*
X19461567Y-31359513D02*
X19472152Y-31430069D01*
X19429820Y-31296013D02*
X19461567Y-31359513D01*
X19380426Y-31246626D02*
X19429820Y-31296013D01*
X19316929Y-31214875D02*
X19380426Y-31246626D01*
X19246373Y-31204292D02*
X19316929Y-31214875D01*
X19175818Y-31214875D02*
X19246373Y-31204292D01*
X19112320Y-31246626D02*
X19175818Y-31214875D01*
X19062926Y-31296013D02*
X19112320Y-31246626D01*
X5699711Y-7162487D02*
X5770266Y-7173069D01*
X5629155Y-7173069D02*
X5699711Y-7162487D01*
X5565654Y-7204820D02*
X5629155Y-7173069D01*
X5516264Y-7254210D02*
X5565654Y-7204820D01*
X5484513Y-7317710D02*
X5516264Y-7254210D01*
X5473932Y-7388265D02*
X5484513Y-7317710D01*
X5473932Y-7688126D02*
X5473932Y-7388265D01*
X5484513Y-7758682D02*
X5473932Y-7688126D01*
X5516264Y-7822181D02*
X5484513Y-7758682D01*
X5565654Y-7871571D02*
X5516264Y-7822181D01*
X5629155Y-7903322D02*
X5565654Y-7871571D01*
X5699711Y-7913905D02*
X5629155Y-7903322D01*
X5770266Y-7903322D02*
X5699711Y-7913905D01*
X5833764Y-7871571D02*
X5770266Y-7903322D01*
X5883153Y-7822181D02*
X5833764Y-7871571D01*
X5914900Y-7758682D02*
X5883153Y-7822181D01*
X5925485Y-7688126D02*
X5914900Y-7758682D01*
X5925485Y-7388265D02*
X5925485Y-7688126D01*
X5914900Y-7317710D02*
X5925485Y-7388265D01*
X5883153Y-7254210D02*
X5914900Y-7317710D01*
X5833764Y-7204820D02*
X5883153Y-7254210D01*
X5770266Y-7173069D02*
X5833764Y-7204820D01*
X8186790Y-4721264D02*
X8387876Y-4721264D01*
X8186790Y-5119902D02*
X8186790Y-4721264D01*
X8387876Y-5119902D02*
X8186790Y-5119902D01*
X8387876Y-4721264D02*
X8387876Y-5119902D01*
X8987598Y-5119902D02*
X8793570Y-5119902D01*
X8987598Y-4721264D02*
X8987598Y-5119902D01*
X8793570Y-4721264D02*
X8987598Y-4721264D01*
X8793570Y-5119902D02*
X8793570Y-4721264D01*
X8659513Y-7642263D02*
X8603065Y-7652846D01*
X8705376Y-7610513D02*
X8659513Y-7642263D01*
X8737122Y-7564652D02*
X8705376Y-7610513D01*
X8747707Y-7508208D02*
X8737122Y-7564652D01*
X8737122Y-7451765D02*
X8747707Y-7508208D01*
X8705376Y-7405904D02*
X8737122Y-7451765D01*
X8659513Y-7374153D02*
X8705376Y-7405904D01*
X8603065Y-7363570D02*
X8659513Y-7374153D01*
X8546626Y-7374153D02*
X8603065Y-7363570D01*
X8500763Y-7405904D02*
X8546626Y-7374153D01*
X8469012Y-7451765D02*
X8500763Y-7405904D01*
X8458431Y-7508208D02*
X8469012Y-7451765D01*
X8469012Y-7564652D02*
X8458431Y-7508208D01*
X8500763Y-7610513D02*
X8469012Y-7564652D01*
X8546626Y-7642263D02*
X8500763Y-7610513D01*
X8603065Y-7652846D02*
X8546626Y-7642263D01*
X19175818Y-31945125D02*
X19112320Y-31913375D01*
X19246373Y-31955708D02*
X19175818Y-31945125D01*
X19031180Y-31359513D02*
X19062926Y-31296013D01*
X19020595Y-31430069D02*
X19031180Y-31359513D01*
X19020595Y-31729930D02*
X19020595Y-31430069D01*
X19031180Y-31800485D02*
X19020595Y-31729930D01*
X19062926Y-31863987D02*
X19031180Y-31800485D01*
X19112320Y-31913375D02*
X19062926Y-31863987D01*
X10363431Y-5627903D02*
X10299930Y-5659654D01*
X10412817Y-5578514D02*
X10363431Y-5627903D01*
X10444568Y-5515014D02*
X10412817Y-5578514D01*
X10455148Y-5444458D02*
X10444568Y-5515014D01*
X10455148Y-5144597D02*
X10455148Y-5444458D01*
X10444568Y-5074042D02*
X10455148Y-5144597D01*
X10412817Y-5010542D02*
X10444568Y-5074042D01*
X10363431Y-4961152D02*
X10412817Y-5010542D01*
X10299930Y-4929402D02*
X10363431Y-4961152D01*
X9269820Y-5673766D02*
X9199265Y-5663183D01*
X9340376Y-5663183D02*
X9269820Y-5673766D01*
X9403873Y-5631432D02*
X9340376Y-5663183D01*
X9453263Y-5582043D02*
X9403873Y-5631432D01*
X9485010Y-5518543D02*
X9453263Y-5582043D01*
X9495595Y-5447988D02*
X9485010Y-5518543D01*
X19983680Y-30145959D02*
X19927232Y-30156542D01*
X20029538Y-30114208D02*
X19983680Y-30145959D01*
X20061289Y-30068347D02*
X20029538Y-30114208D01*
X20071874Y-30011904D02*
X20061289Y-30068347D01*
X20068343Y-29990736D02*
X20071874Y-30011904D01*
X20064820Y-29969570D02*
X20068343Y-29990736D01*
X20057762Y-29948402D02*
X20064820Y-29969570D01*
X20047181Y-29930763D02*
X20057762Y-29948402D01*
X20022484Y-29902541D02*
X20047181Y-29930763D01*
X19994265Y-29881375D02*
X20022484Y-29902541D01*
X19958987Y-29867263D02*
X19994265Y-29881375D01*
X19920178Y-29863737D02*
X19958987Y-29867263D01*
X19863739Y-29874319D02*
X19920178Y-29863737D01*
X19817876Y-29906068D02*
X19863739Y-29874319D01*
X19786125Y-29951929D02*
X19817876Y-29906068D01*
X19775544Y-30008375D02*
X19786125Y-29951929D01*
X19779067Y-30029540D02*
X19775544Y-30008375D01*
X19782598Y-30050708D02*
X19779067Y-30029540D01*
X19789652Y-30071874D02*
X19782598Y-30050708D01*
X19800237Y-30089513D02*
X19789652Y-30071874D01*
X19824930Y-30117735D02*
X19800237Y-30089513D01*
X19853154Y-30138903D02*
X19824930Y-30117735D01*
X19888431Y-30153013D02*
X19853154Y-30138903D01*
X19927232Y-30156542D02*
X19888431Y-30153013D01*
X19316929Y-31945125D02*
X19246373Y-31955708D01*
X19380426Y-31913375D02*
X19316929Y-31945125D01*
X19429820Y-31863987D02*
X19380426Y-31913375D01*
X19461567Y-31800485D02*
X19429820Y-31863987D01*
X7922206Y-4918819D02*
X7992762Y-4929402D01*
X7851651Y-4929402D02*
X7922206Y-4918819D01*
X7788153Y-4961152D02*
X7851651Y-4929402D01*
X7738764Y-5010542D02*
X7788153Y-4961152D01*
X7707013Y-5074042D02*
X7738764Y-5010542D01*
X7696428Y-5144597D02*
X7707013Y-5074042D01*
X7696428Y-5444458D02*
X7696428Y-5144597D01*
X7707013Y-5515014D02*
X7696428Y-5444458D01*
X7738764Y-5578514D02*
X7707013Y-5515014D01*
X7788153Y-5627903D02*
X7738764Y-5578514D01*
X7851651Y-5659654D02*
X7788153Y-5627903D01*
X7922206Y-5670237D02*
X7851651Y-5659654D01*
X7992762Y-5659654D02*
X7922206Y-5670237D01*
X8056259Y-5627903D02*
X7992762Y-5659654D01*
X8105653Y-5578514D02*
X8056259Y-5627903D01*
X8137400Y-5515014D02*
X8105653Y-5578514D01*
X8147985Y-5444458D02*
X8137400Y-5515014D01*
X8147985Y-5144597D02*
X8147985Y-5444458D01*
X8137400Y-5074042D02*
X8147985Y-5144597D01*
X8105653Y-5010542D02*
X8137400Y-5074042D01*
X8056259Y-4961152D02*
X8105653Y-5010542D01*
X7992762Y-4929402D02*
X8056259Y-4961152D01*
X13915902Y-4689515D02*
X13852400Y-4721266D01*
X13965287Y-4640126D02*
X13915902Y-4689515D01*
X13997042Y-4576626D02*
X13965287Y-4640126D01*
X14007623Y-4506070D02*
X13997042Y-4576626D01*
X14007623Y-4206209D02*
X14007623Y-4506070D01*
X19521537Y-32181487D02*
X19521537Y-31881626D01*
X19722623Y-32181487D02*
X19521537Y-32181487D01*
X19722623Y-31881626D02*
X19722623Y-32181487D01*
X19521537Y-31881626D02*
X19722623Y-31881626D01*
X19976626Y-6806180D02*
X19920178Y-6816763D01*
X20022484Y-6774429D02*
X19976626Y-6806180D01*
X20054235Y-6728568D02*
X20022484Y-6774429D01*
X20064820Y-6672125D02*
X20054235Y-6728568D01*
X20054235Y-6615681D02*
X20064820Y-6672125D01*
X20022484Y-6569820D02*
X20054235Y-6615681D01*
X19976626Y-6538069D02*
X20022484Y-6569820D01*
X19920178Y-6527487D02*
X19976626Y-6538069D01*
X19863739Y-6538069D02*
X19920178Y-6527487D01*
X19817876Y-6569820D02*
X19863739Y-6538069D01*
X19786125Y-6615681D02*
X19817876Y-6569820D01*
X19775544Y-6672125D02*
X19786125Y-6615681D01*
X19786125Y-6728568D02*
X19775544Y-6672125D01*
X9495595Y-5148126D02*
X9495595Y-5447988D01*
X9485010Y-5077571D02*
X9495595Y-5148126D01*
X9453263Y-5014071D02*
X9485010Y-5077571D01*
X9403873Y-4964682D02*
X9453263Y-5014071D01*
X9340376Y-4932931D02*
X9403873Y-4964682D01*
X9269820Y-4922348D02*
X9340376Y-4932931D01*
X9199265Y-4932931D02*
X9269820Y-4922348D01*
X9135763Y-4964682D02*
X9199265Y-4932931D01*
X9086373Y-5014071D02*
X9135763Y-4964682D01*
X9054622Y-5077571D02*
X9086373Y-5014071D01*
X9044042Y-5148126D02*
X9054622Y-5077571D01*
X9044042Y-5447988D02*
X9044042Y-5148126D01*
X9054622Y-5518543D02*
X9044042Y-5447988D01*
X9086373Y-5582043D02*
X9054622Y-5518543D01*
X9135763Y-5631432D02*
X9086373Y-5582043D01*
X9199265Y-5663183D02*
X9135763Y-5631432D01*
X19817876Y-6774429D02*
X19786125Y-6728568D01*
X19863739Y-6806180D02*
X19817876Y-6774429D01*
X19920178Y-6816763D02*
X19863739Y-6806180D01*
X5950178Y-6964932D02*
X6151259Y-6964932D01*
X5950178Y-7363570D02*
X5950178Y-6964932D01*
X6151259Y-7363570D02*
X5950178Y-7363570D01*
X6151259Y-6964932D02*
X6151259Y-7363570D01*
X13997042Y-4135654D02*
X14007623Y-4206209D01*
X13965287Y-4072154D02*
X13997042Y-4135654D01*
X13915902Y-4022764D02*
X13965287Y-4072154D01*
X13852400Y-3991013D02*
X13915902Y-4022764D01*
X13781844Y-3980431D02*
X13852400Y-3991013D01*
X13711289Y-3991013D02*
X13781844Y-3980431D01*
X13647792Y-4022764D02*
X13711289Y-3991013D01*
X13598402Y-4072154D02*
X13647792Y-4022764D01*
X13566655Y-4135654D02*
X13598402Y-4072154D01*
X13556070Y-4206209D02*
X13566655Y-4135654D01*
X13556070Y-4506070D02*
X13556070Y-4206209D01*
X13566655Y-4576626D02*
X13556070Y-4506070D01*
X13598402Y-4640126D02*
X13566655Y-4576626D01*
X13647792Y-4689515D02*
X13598402Y-4640126D01*
X13711289Y-4721266D02*
X13647792Y-4689515D01*
X12430704Y-3980428D02*
X12501259Y-3991011D01*
X12360148Y-3991011D02*
X12430704Y-3980428D01*
X12296651Y-4022762D02*
X12360148Y-3991011D01*
X12247261Y-4072152D02*
X12296651Y-4022762D01*
X12215515Y-4135652D02*
X12247261Y-4072152D01*
X12204930Y-4206207D02*
X12215515Y-4135652D01*
X12204930Y-4506068D02*
X12204930Y-4206207D01*
X12215515Y-4576624D02*
X12204930Y-4506068D01*
X12247261Y-4640123D02*
X12215515Y-4576624D01*
X12296651Y-4689513D02*
X12247261Y-4640123D01*
X12360148Y-4721264D02*
X12296651Y-4689513D01*
X12430704Y-4731847D02*
X12360148Y-4721264D01*
X12501259Y-4721264D02*
X12430704Y-4731847D01*
X12564761Y-4689513D02*
X12501259Y-4721264D01*
X12614151Y-4640123D02*
X12564761Y-4689513D01*
X12645902Y-4576624D02*
X12614151Y-4640123D01*
X12656482Y-4506068D02*
X12645902Y-4576624D01*
X12656482Y-4206207D02*
X12656482Y-4506068D01*
X12645902Y-4135652D02*
X12656482Y-4206207D01*
X12614151Y-4072152D02*
X12645902Y-4135652D01*
X12564761Y-4022762D02*
X12614151Y-4072152D01*
X12501259Y-3991011D02*
X12564761Y-4022762D01*
X13506676Y-4199153D02*
X13305594Y-4199153D01*
X13506676Y-3800515D02*
X13506676Y-4199153D01*
X13305594Y-3800515D02*
X13506676Y-3800515D01*
X13305594Y-4199153D02*
X13305594Y-3800515D01*
X12705872Y-3800515D02*
X12906954Y-3800515D01*
X12705872Y-4199153D02*
X12705872Y-3800515D01*
X12906954Y-4199153D02*
X12705872Y-4199153D01*
X12906954Y-3800515D02*
X12906954Y-4199153D01*
X13164483Y-6813236D02*
X13108040Y-6823819D01*
X13210346Y-6781485D02*
X13164483Y-6813236D01*
X13242093Y-6735624D02*
X13210346Y-6781485D01*
X13252678Y-6679181D02*
X13242093Y-6735624D01*
X13242093Y-6622737D02*
X13252678Y-6679181D01*
X13210346Y-6576876D02*
X13242093Y-6622737D01*
X13164483Y-6545125D02*
X13210346Y-6576876D01*
X13108040Y-6534543D02*
X13164483Y-6545125D01*
X13051596Y-6545125D02*
X13108040Y-6534543D01*
X13005733Y-6576876D02*
X13051596Y-6545125D01*
X12973987Y-6622737D02*
X13005733Y-6576876D01*
X12963402Y-6679181D02*
X12973987Y-6622737D01*
X12973987Y-6735624D02*
X12963402Y-6679181D01*
X13005733Y-6781485D02*
X12973987Y-6735624D01*
X13051596Y-6813236D02*
X13005733Y-6781485D01*
X13108040Y-6823819D02*
X13051596Y-6813236D01*
X15485763Y-16796847D02*
X15429319Y-16807430D01*
X15531626Y-16765096D02*
X15485763Y-16796847D01*
X15563372Y-16719235D02*
X15531626Y-16765096D01*
X15573957Y-16662792D02*
X15563372Y-16719235D01*
X15563372Y-16606348D02*
X15573957Y-16662792D01*
X15531626Y-16560487D02*
X15563372Y-16606348D01*
X15485763Y-16528737D02*
X15531626Y-16560487D01*
X15429319Y-16518154D02*
X15485763Y-16528737D01*
X15372876Y-16528737D02*
X15429319Y-16518154D01*
X15327013Y-16560487D02*
X15372876Y-16528737D01*
X15295266Y-16606348D02*
X15327013Y-16560487D01*
X15284681Y-16662792D02*
X15295266Y-16606348D01*
X15295266Y-16719235D02*
X15284681Y-16662792D01*
X15327013Y-16765096D02*
X15295266Y-16719235D01*
X15372876Y-16796847D02*
X15327013Y-16765096D01*
X15429319Y-16807430D02*
X15372876Y-16796847D01*
X17792930Y-17650570D02*
X17736487Y-17661152D01*
X17838789Y-17618819D02*
X17792930Y-17650570D01*
X17870544Y-17572958D02*
X17838789Y-17618819D01*
X17881125Y-17516514D02*
X17870544Y-17572958D01*
X17870544Y-17460071D02*
X17881125Y-17516514D01*
X17838789Y-17414210D02*
X17870544Y-17460071D01*
X17792930Y-17382459D02*
X17838789Y-17414210D01*
X17736487Y-17371876D02*
X17792930Y-17382459D01*
X17680043Y-17382459D02*
X17736487Y-17371876D01*
X17634185Y-17414210D02*
X17680043Y-17382459D01*
X17602430Y-17460071D02*
X17634185Y-17414210D01*
X17591849Y-17516514D02*
X17602430Y-17460071D01*
X17602430Y-17572958D02*
X17591849Y-17516514D01*
X17634185Y-17618819D02*
X17602430Y-17572958D01*
X17680043Y-17650570D02*
X17634185Y-17618819D01*
X17736487Y-17661152D02*
X17680043Y-17650570D01*
X19983680Y-16818013D02*
X19927236Y-16828596D01*
X20029542Y-16786262D02*
X19983680Y-16818013D01*
X20061289Y-16740401D02*
X20029542Y-16786262D01*
X20071874Y-16683958D02*
X20061289Y-16740401D01*
X20061289Y-16627514D02*
X20071874Y-16683958D01*
X20029542Y-16581653D02*
X20061289Y-16627514D01*
X19983680Y-16549902D02*
X20029542Y-16581653D01*
X19927236Y-16539319D02*
X19983680Y-16549902D01*
X19870792Y-16549902D02*
X19927236Y-16539319D01*
X19824930Y-16581653D02*
X19870792Y-16549902D01*
X19793183Y-16627514D02*
X19824930Y-16581653D01*
X19782598Y-16683958D02*
X19793183Y-16627514D01*
X19793183Y-16740401D02*
X19782598Y-16683958D01*
X19824930Y-16786262D02*
X19793183Y-16740401D01*
X19870792Y-16818013D02*
X19824930Y-16786262D01*
X19927236Y-16828596D02*
X19870792Y-16818013D01*
X19246373Y-4742430D02*
X19316929Y-4753013D01*
X19175818Y-4753013D02*
X19246373Y-4742430D01*
X19112320Y-4784764D02*
X19175818Y-4753013D01*
X19062926Y-4834153D02*
X19112320Y-4784764D01*
X19031180Y-4897653D02*
X19062926Y-4834153D01*
X19020595Y-4968208D02*
X19031180Y-4897653D01*
X19020595Y-5268070D02*
X19020595Y-4968208D01*
X19031180Y-5338625D02*
X19020595Y-5268070D01*
X19062926Y-5402125D02*
X19031180Y-5338625D01*
X19112320Y-5451514D02*
X19062926Y-5402125D01*
X19175818Y-5483265D02*
X19112320Y-5451514D01*
X19246373Y-5493848D02*
X19175818Y-5483265D01*
X19316929Y-5483265D02*
X19246373Y-5493848D01*
X19380426Y-5451514D02*
X19316929Y-5483265D01*
X19429820Y-5402125D02*
X19380426Y-5451514D01*
X19461567Y-5338625D02*
X19429820Y-5402125D01*
X19472152Y-5268070D02*
X19461567Y-5338625D01*
X19472152Y-4968208D02*
X19472152Y-5268070D01*
X19461567Y-4897653D02*
X19472152Y-4968208D01*
X19429820Y-4834153D02*
X19461567Y-4897653D01*
X19380426Y-4784764D02*
X19429820Y-4834153D01*
X19316929Y-4753013D02*
X19380426Y-4784764D01*
X8659513Y-15974875D02*
X8603065Y-15985458D01*
X8705376Y-15943124D02*
X8659513Y-15974875D01*
X8737122Y-15897263D02*
X8705376Y-15943124D01*
X8747707Y-15840820D02*
X8737122Y-15897263D01*
X8737122Y-15784376D02*
X8747707Y-15840820D01*
X8705376Y-15738516D02*
X8737122Y-15784376D01*
X8659513Y-15706765D02*
X8705376Y-15738516D01*
X8603065Y-15696182D02*
X8659513Y-15706765D01*
X8546626Y-15706765D02*
X8603065Y-15696182D01*
X8500763Y-15738516D02*
X8546626Y-15706765D01*
X8469012Y-15784376D02*
X8500763Y-15738516D01*
X8458431Y-15840820D02*
X8469012Y-15784376D01*
X8469012Y-15897263D02*
X8458431Y-15840820D01*
X8500763Y-15943124D02*
X8469012Y-15897263D01*
X8546626Y-15974875D02*
X8500763Y-15943124D01*
X8603065Y-15985458D02*
X8546626Y-15974875D01*
X10963154Y-15974875D02*
X10906706Y-15985458D01*
X11009012Y-15943124D02*
X10963154Y-15974875D01*
X11040763Y-15897263D02*
X11009012Y-15943124D01*
X11051344Y-15840820D02*
X11040763Y-15897263D01*
X11040763Y-15784376D02*
X11051344Y-15840820D01*
X11009012Y-15738516D02*
X11040763Y-15784376D01*
X10963154Y-15706765D02*
X11009012Y-15738516D01*
X10906706Y-15696182D02*
X10963154Y-15706765D01*
X10850262Y-15706765D02*
X10906706Y-15696182D01*
X10804404Y-15738516D02*
X10850262Y-15706765D01*
X10772648Y-15784376D02*
X10804404Y-15738516D01*
X10762068Y-15840820D02*
X10772648Y-15784376D01*
X10772648Y-15897263D02*
X10762068Y-15840820D01*
X10804404Y-15943124D02*
X10772648Y-15897263D01*
X10850262Y-15974875D02*
X10804404Y-15943124D01*
X10906706Y-15985458D02*
X10850262Y-15974875D01*
X13051596Y-16528737D02*
X13108040Y-16518154D01*
X13005733Y-16560487D02*
X13051596Y-16528737D01*
X12973987Y-16606348D02*
X13005733Y-16560487D01*
X12963402Y-16662792D02*
X12973987Y-16606348D01*
X12973987Y-16719235D02*
X12963402Y-16662792D01*
X13005733Y-16765096D02*
X12973987Y-16719235D01*
X13051596Y-16796847D02*
X13005733Y-16765096D01*
X13108040Y-16807430D02*
X13051596Y-16796847D01*
X13164483Y-16796847D02*
X13108040Y-16807430D01*
X13210346Y-16765096D02*
X13164483Y-16796847D01*
X13242093Y-16719235D02*
X13210346Y-16765096D01*
X13252678Y-16662792D02*
X13242093Y-16719235D01*
X13242093Y-16606348D02*
X13252678Y-16662792D01*
X13210346Y-16560487D02*
X13242093Y-16606348D01*
X13164483Y-16528737D02*
X13210346Y-16560487D01*
X13108040Y-16518154D02*
X13164483Y-16528737D01*
X10850262Y-7377682D02*
X10906706Y-7367099D01*
X10804404Y-7409433D02*
X10850262Y-7377682D01*
X10772653Y-7455294D02*
X10804404Y-7409433D01*
X10762072Y-7511737D02*
X10772653Y-7455294D01*
X10772653Y-7568181D02*
X10762072Y-7511737D01*
X10804404Y-7614042D02*
X10772653Y-7568181D01*
X10850262Y-7645793D02*
X10804404Y-7614042D01*
X10906706Y-7656375D02*
X10850262Y-7645793D01*
X10963154Y-7645793D02*
X10906706Y-7656375D01*
X11009012Y-7614042D02*
X10963154Y-7645793D01*
X11040763Y-7568181D02*
X11009012Y-7614042D01*
X11051344Y-7508208D02*
X11040763Y-7568181D01*
X11040763Y-7451765D02*
X11051344Y-7508208D01*
X11009012Y-7405904D02*
X11040763Y-7451765D01*
X10963154Y-7374153D02*
X11009012Y-7405904D01*
X10906706Y-7367099D02*
X10963154Y-7374153D01*
X11291234Y-4721264D02*
X11291234Y-5119902D01*
X11097207Y-4721264D02*
X11291234Y-4721264D01*
X11097207Y-5105793D02*
X11097207Y-4721264D01*
X11090148Y-5105793D02*
X11097207Y-5105793D01*
X11090148Y-5119902D02*
X11090148Y-5105793D01*
X11291234Y-5119902D02*
X11090148Y-5119902D01*
X11576983Y-5673766D02*
X11506428Y-5663183D01*
X11647539Y-5663183D02*
X11576983Y-5673766D01*
X11711041Y-5631432D02*
X11647539Y-5663183D01*
X11760426Y-5582043D02*
X11711041Y-5631432D01*
X11792181Y-5518543D02*
X11760426Y-5582043D01*
X11802762Y-5447988D02*
X11792181Y-5518543D01*
X11802762Y-5148126D02*
X11802762Y-5447988D01*
X11792181Y-5077571D02*
X11802762Y-5148126D01*
X11760426Y-5014071D02*
X11792181Y-5077571D01*
X11711041Y-4964682D02*
X11760426Y-5014071D01*
X11647539Y-4932931D02*
X11711041Y-4964682D01*
X11576983Y-4922348D02*
X11647539Y-4932931D01*
X11506428Y-4932931D02*
X11576983Y-4922348D01*
X11442930Y-4964682D02*
X11506428Y-4932931D01*
X11393541Y-5014071D02*
X11442930Y-4964682D01*
X11361794Y-5077571D02*
X11393541Y-5014071D01*
X11351209Y-5148126D02*
X11361794Y-5077571D01*
X11351209Y-5447988D02*
X11351209Y-5148126D01*
X11361794Y-5518543D02*
X11351209Y-5447988D01*
X11393541Y-5582043D02*
X11361794Y-5518543D01*
X11442930Y-5631432D02*
X11393541Y-5582043D01*
X11506428Y-5663183D02*
X11442930Y-5631432D01*
X10490426Y-5119902D02*
X10490426Y-4721264D01*
X10691512Y-5119902D02*
X10490426Y-5119902D01*
X10691512Y-4721264D02*
X10691512Y-5119902D01*
X10490426Y-4721264D02*
X10691512Y-4721264D01*
X10229374Y-4918819D02*
X10299930Y-4929402D01*
X10158819Y-4929402D02*
X10229374Y-4918819D01*
X10095317Y-4961152D02*
X10158819Y-4929402D01*
X10045931Y-5010542D02*
X10095317Y-4961152D01*
X10014180Y-5074042D02*
X10045931Y-5010542D01*
X10003600Y-5144597D02*
X10014180Y-5074042D01*
X10003600Y-5444458D02*
X10003600Y-5144597D01*
X10014180Y-5515014D02*
X10003600Y-5444458D01*
X10045931Y-5578514D02*
X10014180Y-5515014D01*
X10095317Y-5627903D02*
X10045931Y-5578514D01*
X10158819Y-5659654D02*
X10095317Y-5627903D01*
X10229374Y-5670237D02*
X10158819Y-5659654D01*
X10299930Y-5659654D02*
X10229374Y-5670237D01*
M02*
