G04 #@! TF.GenerationSoftware,KiCad,Pcbnew,(5.0.0-3-g5ebb6b6)*
G04 #@! TF.CreationDate,2019-02-23T00:38:07-08:00*
G04 #@! TF.ProjectId,PanelNoSeparation,50616E656C4E6F53657061726174696F,rev?*
G04 #@! TF.SameCoordinates,Original*
G04 #@! TF.FileFunction,Copper,L4,Bot,Signal*
G04 #@! TF.FilePolarity,Positive*
%FSLAX45Y45*%
G04 Gerber Fmt 4.5, Leading zero omitted, Abs format (unit mm)*
G04 Created by KiCad (PCBNEW (5.0.0-3-g5ebb6b6)) date Saturday, February 23, 2019 at 12:38:07 AM*
%MOMM*%
%LPD*%
G01*
G04 APERTURE LIST*
G04 #@! TA.AperFunction,ComponentPad*
%ADD10O,1.524000X5.080000*%
G04 #@! TD*
G04 #@! TA.AperFunction,ViaPad*
%ADD11C,1.000000*%
G04 #@! TD*
G04 #@! TA.AperFunction,Conductor*
%ADD12C,0.500000*%
G04 #@! TD*
G04 #@! TA.AperFunction,Conductor*
%ADD13C,0.300000*%
G04 #@! TD*
G04 APERTURE END LIST*
D10*
G04 #@! TO.P,J1,3*
G04 #@! TO.N,GND*
X23220030Y-32828200D03*
G04 #@! TO.P,J1,2*
G04 #@! TO.N,Net-(D1-Pad4)*
X23016830Y-32828200D03*
G04 #@! TO.P,J1,1*
G04 #@! TO.N,+5V*
X22813630Y-32828200D03*
G04 #@! TD*
G04 #@! TO.P,J2,3*
G04 #@! TO.N,GND*
X23220030Y-3821400D03*
G04 #@! TO.P,J2,2*
G04 #@! TO.N,Net-(D17-Pad3)*
X23016830Y-3821400D03*
G04 #@! TO.P,J2,1*
G04 #@! TO.N,+5V*
X22813630Y-3821400D03*
G04 #@! TD*
G04 #@! TO.P,J2,1*
G04 #@! TO.N,+5V*
X10682278Y-5572556D03*
G04 #@! TO.P,J2,2*
G04 #@! TO.N,Net-(D15-Pad3)*
X10885478Y-5572556D03*
G04 #@! TO.P,J2,3*
G04 #@! TO.N,GND*
X11088678Y-5572556D03*
G04 #@! TD*
G04 #@! TO.P,J1,1*
G04 #@! TO.N,+5V*
X10697518Y-31189980D03*
G04 #@! TO.P,J1,2*
G04 #@! TO.N,Net-(D1-Pad4)*
X10900718Y-31189980D03*
G04 #@! TO.P,J1,3*
G04 #@! TO.N,GND*
X11103918Y-31189980D03*
G04 #@! TD*
G04 #@! TO.P,J2,1*
G04 #@! TO.N,+5V*
X15177180Y-4668050D03*
G04 #@! TO.P,J2,2*
G04 #@! TO.N,Net-(D16-Pad3)*
X15380380Y-4668050D03*
G04 #@! TO.P,J2,3*
G04 #@! TO.N,GND*
X15583580Y-4668050D03*
G04 #@! TD*
G04 #@! TO.P,J1,1*
G04 #@! TO.N,+5V*
X15220106Y-32022580D03*
G04 #@! TO.P,J1,2*
G04 #@! TO.N,Net-(D1-Pad4)*
X15423306Y-32022580D03*
G04 #@! TO.P,J1,3*
G04 #@! TO.N,GND*
X15626506Y-32022580D03*
G04 #@! TD*
G04 #@! TO.P,J2,1*
G04 #@! TO.N,+5V*
X22053018Y-4638586D03*
G04 #@! TO.P,J2,2*
G04 #@! TO.N,Net-(D16-Pad3)*
X22256218Y-4638586D03*
G04 #@! TO.P,J2,3*
G04 #@! TO.N,GND*
X22459418Y-4638586D03*
G04 #@! TD*
G04 #@! TO.P,J1,1*
G04 #@! TO.N,+5V*
X22057082Y-32043408D03*
G04 #@! TO.P,J1,2*
G04 #@! TO.N,Net-(D1-Pad4)*
X22260282Y-32043408D03*
G04 #@! TO.P,J1,3*
G04 #@! TO.N,GND*
X22463482Y-32043408D03*
G04 #@! TD*
G04 #@! TO.P,J2,1*
G04 #@! TO.N,+5V*
X24336084Y-5499194D03*
G04 #@! TO.P,J2,2*
G04 #@! TO.N,Net-(D15-Pad3)*
X24539284Y-5499194D03*
G04 #@! TO.P,J2,3*
G04 #@! TO.N,GND*
X24742484Y-5499194D03*
G04 #@! TD*
G04 #@! TO.P,J1,1*
G04 #@! TO.N,+5V*
X24342942Y-31214408D03*
G04 #@! TO.P,J1,2*
G04 #@! TO.N,Net-(D1-Pad4)*
X24546142Y-31214408D03*
G04 #@! TO.P,J1,3*
G04 #@! TO.N,GND*
X24749342Y-31214408D03*
G04 #@! TD*
G04 #@! TO.P,J2,3*
G04 #@! TO.N,GND*
X8781578Y-5572656D03*
G04 #@! TO.P,J2,2*
G04 #@! TO.N,Net-(D15-Pad3)*
X8578378Y-5572656D03*
G04 #@! TO.P,J2,1*
G04 #@! TO.N,+5V*
X8375178Y-5572656D03*
G04 #@! TD*
G04 #@! TO.P,J1,3*
G04 #@! TO.N,GND*
X23987442Y-31214408D03*
G04 #@! TO.P,J1,2*
G04 #@! TO.N,Net-(D1-Pad4)*
X23784242Y-31214408D03*
G04 #@! TO.P,J1,1*
G04 #@! TO.N,+5V*
X23581042Y-31214408D03*
G04 #@! TD*
G04 #@! TO.P,J2,3*
G04 #@! TO.N,GND*
X23980584Y-5299194D03*
G04 #@! TO.P,J2,2*
G04 #@! TO.N,Net-(D15-Pad3)*
X23777384Y-5299194D03*
G04 #@! TO.P,J2,1*
G04 #@! TO.N,+5V*
X23574184Y-5299194D03*
G04 #@! TD*
G04 #@! TO.P,J1,3*
G04 #@! TO.N,GND*
X13308806Y-32022580D03*
G04 #@! TO.P,J1,2*
G04 #@! TO.N,Net-(D1-Pad4)*
X13105606Y-32022580D03*
G04 #@! TO.P,J1,1*
G04 #@! TO.N,+5V*
X12902406Y-32022580D03*
G04 #@! TD*
G04 #@! TO.P,J2,3*
G04 #@! TO.N,GND*
X13265880Y-4668050D03*
G04 #@! TO.P,J2,2*
G04 #@! TO.N,Net-(D16-Pad3)*
X13062680Y-4668050D03*
G04 #@! TO.P,J2,1*
G04 #@! TO.N,+5V*
X12859480Y-4668050D03*
G04 #@! TD*
G04 #@! TO.P,J1,3*
G04 #@! TO.N,GND*
X21704982Y-32046908D03*
G04 #@! TO.P,J1,2*
G04 #@! TO.N,Net-(D1-Pad4)*
X21501782Y-32046908D03*
G04 #@! TO.P,J1,1*
G04 #@! TO.N,+5V*
X21298582Y-32046908D03*
G04 #@! TD*
G04 #@! TO.P,J2,3*
G04 #@! TO.N,GND*
X21700918Y-4642086D03*
G04 #@! TO.P,J2,2*
G04 #@! TO.N,Net-(D16-Pad3)*
X21497718Y-4642086D03*
G04 #@! TO.P,J2,1*
G04 #@! TO.N,+5V*
X21294518Y-4642086D03*
G04 #@! TD*
G04 #@! TO.P,J1,3*
G04 #@! TO.N,GND*
X17942630Y-32723000D03*
G04 #@! TO.P,J1,2*
G04 #@! TO.N,Net-(D1-Pad4)*
X17739430Y-32723000D03*
G04 #@! TO.P,J1,1*
G04 #@! TO.N,+5V*
X17536230Y-32723000D03*
G04 #@! TD*
G04 #@! TO.P,J2,3*
G04 #@! TO.N,GND*
X17942630Y-3995600D03*
G04 #@! TO.P,J2,2*
G04 #@! TO.N,Net-(D17-Pad3)*
X17739430Y-3995600D03*
G04 #@! TO.P,J2,1*
G04 #@! TO.N,+5V*
X17536230Y-3995600D03*
G04 #@! TD*
G04 #@! TO.P,J1,3*
G04 #@! TO.N,GND*
X20103130Y-31330800D03*
G04 #@! TO.P,J1,2*
G04 #@! TO.N,Net-(D1-Pad4)*
X19899930Y-31330800D03*
G04 #@! TO.P,J1,1*
G04 #@! TO.N,+5V*
X19696730Y-31330800D03*
G04 #@! TD*
G04 #@! TO.P,J2,3*
G04 #@! TO.N,GND*
X20077730Y-4889400D03*
G04 #@! TO.P,J2,2*
G04 #@! TO.N,Net-(D16-Pad3)*
X19874530Y-4889400D03*
G04 #@! TO.P,J2,1*
G04 #@! TO.N,+5V*
X19671330Y-4889400D03*
G04 #@! TD*
G04 #@! TO.P,J1,3*
G04 #@! TO.N,GND*
X20938608Y-31845546D03*
G04 #@! TO.P,J1,2*
G04 #@! TO.N,Net-(D1-Pad4)*
X20735408Y-31845546D03*
G04 #@! TO.P,J1,1*
G04 #@! TO.N,+5V*
X20532208Y-31845546D03*
G04 #@! TD*
G04 #@! TO.P,J2,3*
G04 #@! TO.N,GND*
X20924130Y-5455200D03*
G04 #@! TO.P,J2,2*
G04 #@! TO.N,Net-(D16-Pad3)*
X20720930Y-5455200D03*
G04 #@! TO.P,J2,1*
G04 #@! TO.N,+5V*
X20517730Y-5455200D03*
G04 #@! TD*
G04 #@! TO.P,J2,3*
G04 #@! TO.N,GND*
X7388170Y-7991360D03*
G04 #@! TO.P,J2,2*
G04 #@! TO.N,Net-(D12-Pad3)*
X7184970Y-7991360D03*
G04 #@! TO.P,J2,1*
G04 #@! TO.N,+5V*
X6981770Y-7991360D03*
G04 #@! TD*
G04 #@! TO.P,J1,3*
G04 #@! TO.N,GND*
X7385370Y-28606000D03*
G04 #@! TO.P,J1,2*
G04 #@! TO.N,Net-(D1-Pad4)*
X7182170Y-28606000D03*
G04 #@! TO.P,J1,1*
G04 #@! TO.N,+5V*
X6978970Y-28606000D03*
G04 #@! TD*
G04 #@! TO.P,J1,3*
G04 #@! TO.N,GND*
X8796818Y-31190080D03*
G04 #@! TO.P,J1,2*
G04 #@! TO.N,Net-(D1-Pad4)*
X8593618Y-31190080D03*
G04 #@! TO.P,J1,1*
G04 #@! TO.N,+5V*
X8390418Y-31190080D03*
G04 #@! TD*
G04 #@! TO.P,J2,3*
G04 #@! TO.N,GND*
X6562292Y-7787140D03*
G04 #@! TO.P,J2,2*
G04 #@! TO.N,Net-(D12-Pad3)*
X6359092Y-7787140D03*
G04 #@! TO.P,J2,1*
G04 #@! TO.N,+5V*
X6155892Y-7787140D03*
G04 #@! TD*
G04 #@! TO.P,J1,3*
G04 #@! TO.N,GND*
X6569792Y-28938040D03*
G04 #@! TO.P,J1,2*
G04 #@! TO.N,Net-(D1-Pad4)*
X6366592Y-28938040D03*
G04 #@! TO.P,J1,1*
G04 #@! TO.N,+5V*
X6163392Y-28938040D03*
G04 #@! TD*
D11*
G04 #@! TO.N,+5V*
X6384492Y-27446740D03*
X6378142Y-25757640D03*
X6378142Y-24106640D03*
X6378142Y-20804640D03*
X6378142Y-22455640D03*
X6378142Y-19102840D03*
X6378142Y-17451840D03*
X6378142Y-14149840D03*
X6378142Y-15800840D03*
X6378142Y-10797040D03*
X6378142Y-12448040D03*
X6384492Y-8765040D03*
X7192330Y-27450300D03*
X7185980Y-24110200D03*
X7185980Y-20808200D03*
X7185980Y-22459200D03*
X7185980Y-19106400D03*
X7185980Y-17455400D03*
X7185980Y-14153400D03*
X7185980Y-15804400D03*
X7185980Y-10800600D03*
X7185980Y-12451600D03*
X7179630Y-9124200D03*
X6979230Y-28123400D03*
X8597174Y-26607920D03*
X8597174Y-23305920D03*
X8597174Y-24956920D03*
X8597174Y-21604120D03*
X8597174Y-19953120D03*
X8597174Y-18302120D03*
X8597174Y-13298320D03*
X8597174Y-14949320D03*
X8590824Y-11621920D03*
X8555264Y-9950600D03*
X8597174Y-28258920D03*
X8580664Y-29584800D03*
X7962682Y-16452746D03*
X8597682Y-16249546D03*
X7937282Y-29736946D03*
X8546881Y-6267346D03*
X7988082Y-6394346D03*
X8390418Y-30701384D03*
X8600730Y-7918600D03*
X7914930Y-7994800D03*
X23780686Y-26611420D03*
X23780686Y-23309420D03*
X23780686Y-21607620D03*
X23780686Y-19956620D03*
X23780686Y-18305620D03*
X23780686Y-13301820D03*
X23780686Y-14952820D03*
X23789576Y-8277700D03*
X23738776Y-9954100D03*
X23780686Y-28262420D03*
X23764176Y-29588300D03*
X23781194Y-16253046D03*
X23586630Y-30715806D03*
X23559725Y-5878625D03*
X23719865Y-6018256D03*
X13109162Y-27440420D03*
X13109162Y-24138420D03*
X13109162Y-25789420D03*
X13109162Y-22436620D03*
X13109162Y-20785620D03*
X13109162Y-19134620D03*
X13109162Y-14130820D03*
X13109162Y-15781820D03*
X13102812Y-12454420D03*
X13118052Y-9106700D03*
X13067252Y-10783100D03*
X13109162Y-29091420D03*
X13092652Y-30417300D03*
X12474670Y-5677446D03*
X13109670Y-17082046D03*
X12449270Y-30569446D03*
X13058869Y-7099846D03*
X12500070Y-7226846D03*
X12902406Y-31533884D03*
X21498226Y-27443920D03*
X21498226Y-24141920D03*
X21498226Y-25792920D03*
X21498226Y-22440120D03*
X21498226Y-20789120D03*
X21498226Y-19138120D03*
X21498226Y-14134320D03*
X21498226Y-15785320D03*
X21491876Y-12457920D03*
X21507116Y-9110200D03*
X21456316Y-10786600D03*
X21498226Y-29094920D03*
X21481716Y-30420800D03*
X21498734Y-17085546D03*
X21305186Y-5782546D03*
X21279786Y-5172946D03*
X21304170Y-31548306D03*
X21332145Y-6913100D03*
X17730540Y-28272920D03*
X17730540Y-24970920D03*
X17730540Y-26621920D03*
X17730540Y-23269120D03*
X17730540Y-21618120D03*
X17730540Y-18316120D03*
X17730540Y-19967120D03*
X17730540Y-14963320D03*
X17730540Y-16614320D03*
X17724190Y-13286920D03*
X17714030Y-4960800D03*
X17739430Y-9939200D03*
X17739430Y-8313600D03*
X17688630Y-11615600D03*
X17256830Y-6078400D03*
X17739430Y-6256200D03*
X17730540Y-29923920D03*
X17714030Y-31249800D03*
X17282230Y-31122800D03*
X19924822Y-27211174D03*
X19924822Y-23909174D03*
X19924822Y-25560174D03*
X19924822Y-22207374D03*
X19924822Y-20556374D03*
X19924822Y-18905374D03*
X19924822Y-13901574D03*
X19924822Y-15552574D03*
X19918472Y-12225174D03*
X19933712Y-8877454D03*
X19882912Y-10553854D03*
X19924822Y-28862174D03*
X19908312Y-30188054D03*
X19290330Y-5448200D03*
X19290330Y-17056000D03*
X19925330Y-16852800D03*
X19264930Y-30340200D03*
X19874529Y-6870600D03*
X19315730Y-6997600D03*
X20736170Y-27726174D03*
X20736170Y-24424174D03*
X20736170Y-26075174D03*
X20736170Y-22722374D03*
X20736170Y-21071374D03*
X20736170Y-19420374D03*
X20736170Y-14416574D03*
X20736170Y-16067574D03*
X20729820Y-12740174D03*
X20745060Y-9392454D03*
X20694260Y-11068854D03*
X20736170Y-29377174D03*
X20719660Y-30703054D03*
X20736678Y-17367800D03*
X20517730Y-31134600D03*
X20570136Y-7182400D03*
X20543130Y-6064800D03*
X10904274Y-26607820D03*
X10904274Y-23305820D03*
X10904274Y-24956820D03*
X10904274Y-21604020D03*
X10904274Y-19953020D03*
X10904274Y-18302020D03*
X10904274Y-13298220D03*
X10904274Y-14949220D03*
X10897924Y-11621820D03*
X10862364Y-9950500D03*
X10904274Y-28258820D03*
X10887764Y-29584700D03*
X10269782Y-16452646D03*
X10904782Y-16249446D03*
X10244382Y-29736846D03*
X10853981Y-6267246D03*
X10295182Y-6394246D03*
X10697518Y-30701284D03*
X10907830Y-7918500D03*
X10222030Y-7994700D03*
X15426862Y-29091420D03*
X15410352Y-30417300D03*
X14792370Y-5677446D03*
X14792370Y-17285246D03*
X15427370Y-17082046D03*
X14766970Y-30569446D03*
X15376569Y-7099846D03*
X14817770Y-7226846D03*
X15220106Y-31533884D03*
X15426862Y-27440420D03*
X15426862Y-24138420D03*
X15426862Y-25789420D03*
X15426862Y-22436620D03*
X15426862Y-20785620D03*
X15426862Y-19134620D03*
X15426862Y-14130820D03*
X15426862Y-15781820D03*
X15420512Y-12454420D03*
X15435752Y-9106700D03*
X15384952Y-10783100D03*
X22256726Y-27440420D03*
X22256726Y-24138420D03*
X22256726Y-25789420D03*
X22256726Y-22436620D03*
X22256726Y-20785620D03*
X22256726Y-19134620D03*
X22256726Y-14130820D03*
X22256726Y-15781820D03*
X22250376Y-12454420D03*
X22265616Y-9106700D03*
X22214816Y-10783100D03*
X22256726Y-29091420D03*
X22240216Y-30417300D03*
X22257234Y-17082046D03*
X22063686Y-5779046D03*
X22038286Y-5169446D03*
X22062670Y-31544806D03*
X22090645Y-6909600D03*
X24542586Y-26611420D03*
X24542586Y-23309420D03*
X24542586Y-21607620D03*
X24542586Y-19956620D03*
X24542586Y-18305620D03*
X24542586Y-13301820D03*
X24542586Y-14952820D03*
X24551476Y-8277700D03*
X24500676Y-9954100D03*
X24542586Y-28262420D03*
X24526076Y-29588300D03*
X24543094Y-16253046D03*
X24348530Y-30715806D03*
X24321625Y-5878625D03*
X24481765Y-6018256D03*
X23093029Y-4177000D03*
X23017592Y-6269198D03*
X23027498Y-8317200D03*
X23027498Y-9942800D03*
X23002098Y-4964400D03*
X23012258Y-13290520D03*
X23018608Y-16617920D03*
X23018608Y-14966920D03*
X23018608Y-19970720D03*
X23018608Y-18319720D03*
X23018608Y-21621720D03*
X23018608Y-23272720D03*
X23018608Y-26625520D03*
X23018608Y-28276520D03*
X23018608Y-29927520D03*
X23024958Y-31616620D03*
X23767421Y-11603266D03*
X22996690Y-11613760D03*
X24482730Y-11613900D03*
X7185980Y-25760599D03*
X23007001Y-24938225D03*
X23772615Y-24938204D03*
X24535849Y-24931914D03*
X12474670Y-17285246D03*
G04 #@! TO.N,GND*
X6537126Y-27926566D03*
X6377126Y-26377146D03*
X6376872Y-24670520D03*
X6379412Y-23006820D03*
X6381952Y-21332960D03*
X6381952Y-19676880D03*
X6379412Y-16339320D03*
X6376872Y-14683240D03*
X6379412Y-13006840D03*
X6381952Y-11350760D03*
X6379412Y-9681980D03*
X6377126Y-17994096D03*
X5990792Y-9730240D03*
X7344964Y-27930126D03*
X7184964Y-26380706D03*
X7184710Y-24674080D03*
X7187250Y-23010380D03*
X7189790Y-21336520D03*
X7189790Y-19680440D03*
X7187250Y-18011660D03*
X7187250Y-16342880D03*
X7184710Y-14686800D03*
X7187250Y-13010400D03*
X7189790Y-11354320D03*
X7187250Y-9685540D03*
X8598444Y-25508100D03*
X8600984Y-23834240D03*
X8600984Y-22178160D03*
X8598444Y-20509380D03*
X8598444Y-18840600D03*
X8595904Y-17184520D03*
X8600984Y-13852040D03*
X8598444Y-12183260D03*
X8557804Y-10661800D03*
X8580664Y-8858400D03*
X8595904Y-27171800D03*
X8606064Y-28797400D03*
X7988082Y-17011546D03*
X8597682Y-15436746D03*
X8064282Y-30244946D03*
X7988082Y-6953146D03*
X8793262Y-30734404D03*
X7940330Y-8655200D03*
X8600730Y-7105800D03*
X23781956Y-25511600D03*
X23784496Y-23837740D03*
X23784496Y-22181660D03*
X23781956Y-20512880D03*
X23781956Y-18844100D03*
X23784496Y-13855540D03*
X23781956Y-12186760D03*
X23741316Y-10665300D03*
X23764176Y-8861900D03*
X23779416Y-27175300D03*
X23789576Y-28800900D03*
X23781194Y-15440246D03*
X23911750Y-30736126D03*
X23723996Y-17243440D03*
X23913274Y-5851492D03*
X23942484Y-6765384D03*
X13110432Y-26340600D03*
X13112972Y-24666740D03*
X13112972Y-23010660D03*
X13110432Y-21341880D03*
X13110432Y-19673100D03*
X13107892Y-18017020D03*
X13112972Y-14684540D03*
X13110432Y-13015760D03*
X13069792Y-11494300D03*
X13092652Y-9690900D03*
X13067252Y-8014500D03*
X13107892Y-28004300D03*
X13118052Y-29629900D03*
X12491688Y-6314732D03*
X12500070Y-17844046D03*
X13109670Y-16269246D03*
X12576270Y-31077446D03*
X12500070Y-7785646D03*
X13109670Y-6261646D03*
X13305250Y-31566904D03*
X21499496Y-26344100D03*
X21502036Y-24670240D03*
X21502036Y-23014160D03*
X21499496Y-21345380D03*
X21499496Y-19676600D03*
X21496956Y-18020520D03*
X21502036Y-14688040D03*
X21499496Y-13019260D03*
X21458856Y-11497800D03*
X21481716Y-9694400D03*
X21496956Y-28007800D03*
X21507116Y-29633400D03*
X21498734Y-16272746D03*
X21498734Y-6265146D03*
X21508386Y-7585946D03*
X21686186Y-5172946D03*
X21629290Y-31568626D03*
X17889524Y-32092846D03*
X17731810Y-27173100D03*
X17734350Y-25499240D03*
X17734350Y-23843160D03*
X17731810Y-22174380D03*
X17731810Y-20505600D03*
X17729270Y-18849520D03*
X17734350Y-15517040D03*
X17731810Y-13848260D03*
X17691170Y-12326800D03*
X17714030Y-10523400D03*
X17688630Y-8847000D03*
X17688630Y-7221400D03*
X17968030Y-17889400D03*
X17739430Y-17127400D03*
X18171230Y-6053000D03*
X17714030Y-5443400D03*
X17729270Y-28836800D03*
X18196630Y-31097400D03*
X17739430Y-30462400D03*
X19926092Y-26111354D03*
X19928632Y-24437494D03*
X19928632Y-22781414D03*
X19926092Y-21112634D03*
X19926092Y-19443854D03*
X19923552Y-17787774D03*
X19928632Y-14455294D03*
X19926092Y-12786514D03*
X19885452Y-11265054D03*
X19908312Y-9461654D03*
X19882912Y-7785254D03*
X19923552Y-27775054D03*
X19933712Y-29400654D03*
X19307348Y-6085486D03*
X19315730Y-17614800D03*
X19925330Y-16040000D03*
X19391930Y-30848200D03*
X19315730Y-7556400D03*
X19925330Y-6032400D03*
X20737440Y-26626354D03*
X20739980Y-24952494D03*
X20739980Y-23296414D03*
X20737440Y-21627634D03*
X20737440Y-19958854D03*
X20734900Y-18302774D03*
X20739980Y-14970294D03*
X20737440Y-13301514D03*
X20696800Y-11780054D03*
X20719660Y-9976654D03*
X20734900Y-28290054D03*
X20745060Y-29915654D03*
X20736678Y-16555000D03*
X20736678Y-6547400D03*
X20898730Y-31134600D03*
X20746330Y-7868200D03*
X10905544Y-25508000D03*
X10908084Y-23834140D03*
X10908084Y-22178060D03*
X10905544Y-20509280D03*
X10905544Y-18840500D03*
X10903004Y-17184420D03*
X10908084Y-13851940D03*
X10905544Y-12183160D03*
X10864904Y-10661700D03*
X10887764Y-8858300D03*
X10903004Y-27171700D03*
X10913164Y-28797300D03*
X10295182Y-17011446D03*
X10904782Y-15436646D03*
X10371382Y-30244846D03*
X10295182Y-6953046D03*
X11100362Y-30734304D03*
X10247430Y-8655100D03*
X10907830Y-7105700D03*
X15428132Y-26340600D03*
X15430672Y-24666740D03*
X15430672Y-23010660D03*
X15428132Y-21341880D03*
X15428132Y-19673100D03*
X15425592Y-18017020D03*
X15430672Y-14684540D03*
X15428132Y-13015760D03*
X15387492Y-11494300D03*
X15410352Y-9690900D03*
X15384952Y-8014500D03*
X15425592Y-28004300D03*
X15435752Y-29629900D03*
X14809388Y-6314732D03*
X14817770Y-17844046D03*
X15427370Y-16269246D03*
X14893970Y-31077446D03*
X14817770Y-7785646D03*
X15427370Y-6261646D03*
X15622950Y-31566904D03*
X22257996Y-26340600D03*
X22260536Y-24666740D03*
X22260536Y-23010660D03*
X22257996Y-21341880D03*
X22257996Y-19673100D03*
X22255456Y-18017020D03*
X22260536Y-14684540D03*
X22257996Y-13015760D03*
X22217356Y-11494300D03*
X22240216Y-9690900D03*
X22255456Y-28004300D03*
X22265616Y-29629900D03*
X22257234Y-16269246D03*
X22257234Y-6261646D03*
X22266886Y-7582446D03*
X22444686Y-5169446D03*
X22387790Y-31565126D03*
X24543856Y-25511600D03*
X24546396Y-23837740D03*
X24546396Y-22181660D03*
X24543856Y-20512880D03*
X24543856Y-18844100D03*
X24546396Y-13855540D03*
X24543856Y-12186760D03*
X24503216Y-10665300D03*
X24526076Y-8861900D03*
X24541316Y-27175300D03*
X24551476Y-28800900D03*
X24543094Y-15440246D03*
X24673650Y-30736126D03*
X24485896Y-17243440D03*
X24675174Y-5851492D03*
X24704384Y-6765384D03*
X22966030Y-4177000D03*
X23002098Y-5523200D03*
X22976698Y-7225000D03*
X22976698Y-8850600D03*
X23002098Y-10527000D03*
X22979238Y-12330400D03*
X23019878Y-13851860D03*
X23022418Y-15520640D03*
X23019878Y-17176720D03*
X23017338Y-18853120D03*
X23019878Y-20509200D03*
X23019878Y-22177980D03*
X23022418Y-23846760D03*
X23022418Y-25502840D03*
X23019878Y-27176700D03*
X23017338Y-28840400D03*
X23017592Y-30547026D03*
X23177592Y-32096446D03*
G04 #@! TO.N,Net-(D12-Pad3)*
X6223457Y-8778841D03*
X23238130Y-10445500D03*
X22996830Y-11740901D03*
G04 #@! TO.N,Net-(C9-Pad1)*
X17764830Y-17889400D03*
X17434630Y-17889400D03*
G04 #@! TO.N,Net-(D3-Pad3)*
X24003986Y-23799550D03*
X23777879Y-25063200D03*
X24736730Y-23824950D03*
X24546230Y-25056850D03*
G04 #@! TO.N,Net-(D4-Pad3)*
X23241987Y-23814900D03*
X23015880Y-25063200D03*
G04 #@! TO.N,Net-(D11-Pad3)*
X24000130Y-10430428D03*
X23771529Y-11728200D03*
X24765987Y-10458200D03*
X24534958Y-11732487D03*
G04 #@! TO.N,Net-(C15-Pad1)*
X23816386Y-7083787D03*
X23938770Y-6585780D03*
X21662187Y-7453867D03*
X21533926Y-7916287D03*
X20900131Y-7736121D03*
X20771870Y-8198541D03*
X22292426Y-7912787D03*
X22420687Y-7450367D03*
X24578286Y-7083787D03*
X24700670Y-6585780D03*
G04 #@! TO.N,Net-(C16-Pad1)*
X21626697Y-6299235D03*
X21660786Y-5807946D03*
X20864641Y-6581489D03*
X20898730Y-6090200D03*
X22385197Y-6295735D03*
X22419286Y-5804446D03*
G04 #@! TO.N,Net-(D17-Pad3)*
X17587030Y-4554400D03*
X22797438Y-4608800D03*
G04 #@! TD*
D12*
G04 #@! TO.N,+5V*
X6978970Y-28606000D02*
X6978970Y-28123660D01*
X6978970Y-28123660D02*
X6979230Y-28123400D01*
D13*
X6981770Y-8926340D02*
X6981770Y-7991360D01*
X7179630Y-9124200D02*
X6981770Y-8926340D01*
D12*
X8390418Y-30701384D02*
X8390418Y-31190080D01*
X23581042Y-30721394D02*
X23586630Y-30715806D01*
X23581042Y-31214408D02*
X23581042Y-30721394D01*
X23574184Y-5864167D02*
X23559725Y-5878625D01*
X23574184Y-5499194D02*
X23574184Y-5864167D01*
D13*
X23580234Y-5878625D02*
X23719865Y-6018256D01*
X23559725Y-5878625D02*
X23580234Y-5878625D01*
D12*
X12902406Y-31533884D02*
X12902406Y-32022580D01*
X21279786Y-5757146D02*
X21305186Y-5782546D01*
X21279786Y-5172946D02*
X21279786Y-5757146D01*
X21294518Y-5158214D02*
X21294518Y-4642086D01*
X21279786Y-5172946D02*
X21294518Y-5158214D01*
X21298582Y-31553894D02*
X21304170Y-31548306D01*
X21298582Y-32046908D02*
X21298582Y-31553894D01*
X20532208Y-31149078D02*
X20517730Y-31134600D01*
X20532208Y-31845546D02*
X20532208Y-31149078D01*
X20517730Y-6039400D02*
X20543130Y-6064800D01*
X20517730Y-5455200D02*
X20517730Y-6039400D01*
X15220106Y-31533884D02*
X15220106Y-32022580D01*
X22038286Y-5753646D02*
X22063686Y-5779046D01*
X22038286Y-5169446D02*
X22038286Y-5753646D01*
X22053018Y-5154714D02*
X22053018Y-4638586D01*
X22038286Y-5169446D02*
X22053018Y-5154714D01*
X22057082Y-31550394D02*
X22062670Y-31544806D01*
X22057082Y-32043408D02*
X22057082Y-31550394D01*
X24342942Y-30721394D02*
X24348530Y-30715806D01*
X24342942Y-31214408D02*
X24342942Y-30721394D01*
X24336084Y-5864167D02*
X24321625Y-5878625D01*
X24336084Y-5499194D02*
X24336084Y-5864167D01*
D13*
X24342134Y-5878625D02*
X24481765Y-6018256D01*
X24321625Y-5878625D02*
X24342134Y-5878625D01*
D12*
G04 #@! TO.N,GND*
X7385630Y-27970792D02*
X7385630Y-28605740D01*
X7385630Y-28605740D02*
X7385370Y-28606000D01*
X7344964Y-27930126D02*
X7385630Y-27970792D01*
D13*
X7388170Y-9484620D02*
X7187250Y-9685540D01*
X7388170Y-7991360D02*
X7388170Y-9484620D01*
D12*
X8793262Y-31186524D02*
X8796818Y-31190080D01*
X8793262Y-30734404D02*
X8793262Y-31186524D01*
X23987442Y-31214408D02*
X23987442Y-30811818D01*
X23961749Y-30786126D02*
X23911750Y-30736126D01*
X23987442Y-30811818D02*
X23961749Y-30786126D01*
X23932286Y-5851492D02*
X23913274Y-5851492D01*
X23980584Y-5499194D02*
X23980584Y-5803194D01*
X23980584Y-5803194D02*
X23932286Y-5851492D01*
X13305250Y-32019024D02*
X13308806Y-32022580D01*
X13305250Y-31566904D02*
X13305250Y-32019024D01*
X21700918Y-5158214D02*
X21700918Y-4642086D01*
X21686186Y-5172946D02*
X21700918Y-5158214D01*
X21686186Y-5350746D02*
X21686186Y-5172946D01*
X21498734Y-5538198D02*
X21686186Y-5350746D01*
X21498734Y-6265146D02*
X21498734Y-5538198D01*
X21704982Y-32046908D02*
X21704982Y-31644318D01*
X21679290Y-31618626D02*
X21629290Y-31568626D01*
X21704982Y-31644318D02*
X21679290Y-31618626D01*
X20938608Y-31845546D02*
X20938608Y-31174478D01*
X20938608Y-31174478D02*
X20898730Y-31134600D01*
X20736678Y-6476690D02*
X20736678Y-6547400D01*
X20736678Y-5820452D02*
X20736678Y-6476690D01*
X20924130Y-5633000D02*
X20736678Y-5820452D01*
X20924130Y-5455200D02*
X20924130Y-5633000D01*
X11100362Y-31186424D02*
X11103918Y-31189980D01*
X11100362Y-30734304D02*
X11100362Y-31186424D01*
X15622950Y-32019024D02*
X15626506Y-32022580D01*
X15622950Y-31566904D02*
X15622950Y-32019024D01*
X22459418Y-5154714D02*
X22459418Y-4638586D01*
X22444686Y-5169446D02*
X22459418Y-5154714D01*
X22444686Y-5347246D02*
X22444686Y-5169446D01*
X22257234Y-5534698D02*
X22444686Y-5347246D01*
X22257234Y-6261646D02*
X22257234Y-5534698D01*
X22463482Y-32043408D02*
X22463482Y-31640818D01*
X22437789Y-31615126D02*
X22387790Y-31565126D01*
X22463482Y-31640818D02*
X22437789Y-31615126D01*
X24749342Y-31214408D02*
X24749342Y-30811818D01*
X24723649Y-30786126D02*
X24673650Y-30736126D01*
X24749342Y-30811818D02*
X24723649Y-30786126D01*
X24694186Y-5851492D02*
X24675174Y-5851492D01*
X24742484Y-5499194D02*
X24742484Y-5803194D01*
X24742484Y-5803194D02*
X24694186Y-5851492D01*
D13*
G04 #@! TO.N,Net-(D12-Pad3)*
X6092392Y-8130040D02*
X6016192Y-8206240D01*
X6359092Y-7787140D02*
X6359092Y-7964940D01*
X6016192Y-8571576D02*
X6173457Y-8728841D01*
X6016192Y-8206240D02*
X6016192Y-8571576D01*
X6359092Y-7964940D02*
X6193992Y-8130040D01*
X6193992Y-8130040D02*
X6092392Y-8130040D01*
X6173457Y-8728841D02*
X6223457Y-8778841D01*
X23123830Y-11321800D02*
X23123830Y-11613901D01*
X23238130Y-11207500D02*
X23123830Y-11321800D01*
X23238130Y-10445500D02*
X23238130Y-11207500D01*
X23123830Y-11613901D02*
X22996830Y-11740901D01*
G04 #@! TO.N,Net-(C9-Pad1)*
X17764830Y-17889400D02*
X17434630Y-17889400D01*
G04 #@! TO.N,Net-(D3-Pad3)*
X23898530Y-24713950D02*
X23898530Y-24942550D01*
X24003986Y-24608494D02*
X23898530Y-24713950D01*
X23898530Y-24942550D02*
X23777879Y-25063200D01*
X24003986Y-23799550D02*
X24003986Y-24608494D01*
X24641480Y-24961600D02*
X24546230Y-25056850D01*
X24736730Y-24745700D02*
X24641480Y-24840950D01*
X24641480Y-24840950D02*
X24641480Y-24961600D01*
X24736730Y-23824950D02*
X24736730Y-24745700D01*
G04 #@! TO.N,Net-(D4-Pad3)*
X23241987Y-24837093D02*
X23065880Y-25013200D01*
X23065880Y-25013200D02*
X23015880Y-25063200D01*
X23241987Y-23814900D02*
X23241987Y-24837093D01*
G04 #@! TO.N,Net-(D11-Pad3)*
X24000130Y-10430428D02*
X24000130Y-11499600D01*
X24000130Y-11499600D02*
X23821529Y-11678200D01*
X23821529Y-11678200D02*
X23771529Y-11728200D01*
X24635130Y-11632316D02*
X24534958Y-11732487D01*
X24635130Y-11499600D02*
X24635130Y-11632316D01*
X24765987Y-11368742D02*
X24635130Y-11499600D01*
X24765987Y-10458200D02*
X24765987Y-11368742D01*
G04 #@! TO.N,Net-(C15-Pad1)*
X23888770Y-6635780D02*
X23938770Y-6585780D01*
X23816386Y-6708164D02*
X23888770Y-6635780D01*
X23816386Y-7083787D02*
X23816386Y-6708164D01*
X21662187Y-7453867D02*
X21662187Y-7788026D01*
X21583926Y-7866287D02*
X21533926Y-7916287D01*
X21662187Y-7788026D02*
X21583926Y-7866287D01*
X20900131Y-7736121D02*
X20900131Y-8070280D01*
X20821870Y-8148541D02*
X20771870Y-8198541D01*
X20900131Y-8070280D02*
X20821870Y-8148541D01*
X22420687Y-7450367D02*
X22420687Y-7784526D01*
X22342426Y-7862787D02*
X22292426Y-7912787D01*
X22420687Y-7784526D02*
X22342426Y-7862787D01*
X24650670Y-6635780D02*
X24700670Y-6585780D01*
X24578286Y-6708164D02*
X24650670Y-6635780D01*
X24578286Y-7083787D02*
X24578286Y-6708164D01*
G04 #@! TO.N,Net-(C16-Pad1)*
X21626697Y-5842035D02*
X21660786Y-5807946D01*
X21626697Y-6299235D02*
X21626697Y-5842035D01*
X20864641Y-6124289D02*
X20898730Y-6090200D01*
X20864641Y-6581489D02*
X20864641Y-6124289D01*
X22385197Y-5838535D02*
X22419286Y-5804446D01*
X22385197Y-6295735D02*
X22385197Y-5838535D01*
G04 #@! TO.N,Net-(D17-Pad3)*
X17637030Y-4504400D02*
X17587030Y-4554400D01*
X17739430Y-4402000D02*
X17637030Y-4504400D01*
X17739430Y-3903652D02*
X17739430Y-4402000D01*
X17774482Y-3868600D02*
X17739430Y-3903652D01*
X22797438Y-4608800D02*
X22797438Y-4193192D01*
X22797438Y-4193192D02*
X23016830Y-3973800D01*
X23016830Y-3973800D02*
X23016830Y-3821400D01*
G04 #@! TD*
M02*
