M48
INCH,TZ
T1C0.0236
T2C0.0500
%
G90
G05
T1
X23586Y-38308
X24502Y-34562
X25106Y-57808
X25106Y-97128
X25107Y-70843
X25107Y-103847
X25111Y-42508
X25111Y-49008
X25111Y-55708
X25111Y-62208
X25111Y-68708
X25111Y-75208
X25111Y-81908
X25111Y-88408
X25111Y-94908
X25111Y-101408
X25116Y-38118
X25116Y-51208
X25116Y-64328
X25116Y-90578
X25126Y-44688
X25126Y-77468
X25126Y-83988
X25136Y-34508
X25136Y-108058
X25737Y-109947
X27477Y-110722
X28266Y-35922
X28286Y-57822
X28286Y-97142
X28287Y-103861
X28291Y-42522
X28291Y-49022
X28291Y-55722
X28291Y-62222
X28291Y-68722
X28291Y-75222
X28291Y-81922
X28291Y-88422
X28291Y-94922
X28291Y-101420
X28296Y-38132
X28296Y-51222
X28296Y-64342
X28296Y-70912
X28296Y-90592
X28306Y-44702
X28306Y-77482
X28306Y-84002
X28316Y-108072
X28917Y-109961
X31161Y-31476
X31249Y-117075
X31261Y-34076
X31349Y-64775
X31449Y-25175
X31449Y-27375
X31449Y-66975
X31749Y-119075
X33033Y-120872
X33649Y-24675
X33682Y-39176
X33692Y-41976
X33782Y-34876
X33782Y-116476
X33822Y-45756
X33842Y-67656
X33842Y-106976
X33847Y-52356
X33847Y-58856
X33847Y-72056
X33847Y-78556
X33847Y-85056
X33847Y-91756
X33847Y-98256
X33847Y-104756
X33847Y-111256
X33849Y-60775
X33849Y-63975
X33852Y-47966
X33852Y-74176
X33852Y-80746
X33852Y-100426
X33861Y-27976
X33861Y-31176
X33862Y-54536
X33862Y-87316
X33862Y-93836
X33882Y-113376
X34619Y-121002
X40244Y-31475
X40332Y-117074
X40344Y-34075
X40432Y-64774
X40532Y-25174
X40532Y-27374
X40532Y-66974
X40832Y-119074
X42116Y-120871
X42732Y-24674
X42765Y-39175
X42775Y-41975
X42865Y-34875
X42865Y-116475
X42905Y-45755
X42925Y-67655
X42925Y-106975
X42930Y-52355
X42930Y-58855
X42930Y-72055
X42930Y-78555
X42930Y-85055
X42930Y-91755
X42930Y-98255
X42930Y-104755
X42930Y-111255
X42932Y-60774
X42932Y-63974
X42935Y-47965
X42935Y-74175
X42935Y-80745
X42935Y-100425
X42944Y-27975
X42944Y-31175
X42945Y-54535
X42945Y-87315
X42945Y-93835
X42965Y-113375
X43702Y-121001
X49013Y-120352
X49113Y-22352
X49113Y-68052
X49180Y-24861
X49213Y-28452
X49213Y-30652
X49213Y-70252
X49513Y-122352
X50797Y-124149
X51413Y-27952
X51446Y-31553
X51446Y-42453
X51456Y-45253
X51546Y-38153
X51546Y-119753
X51586Y-49033
X51606Y-70933
X51606Y-110253
X51611Y-55633
X51611Y-62133
X51611Y-75333
X51611Y-81833
X51611Y-88333
X51611Y-95033
X51611Y-101533
X51611Y-108033
X51611Y-114533
X51613Y-24652
X51613Y-64052
X51613Y-67252
X51616Y-51243
X51616Y-77453
X51616Y-84023
X51616Y-103703
X51626Y-57813
X51626Y-90593
X51626Y-97113
X51646Y-35853
X51646Y-116653
X52383Y-124279
X58138Y-120352
X58238Y-22352
X58238Y-68052
X58305Y-24861
X58338Y-28452
X58338Y-30652
X58338Y-70252
X58638Y-122352
X59922Y-124149
X60538Y-27952
X60571Y-31553
X60571Y-42453
X60581Y-45253
X60671Y-38153
X60671Y-119753
X60711Y-49033
X60731Y-70933
X60731Y-110253
X60736Y-55633
X60736Y-62133
X60736Y-75333
X60736Y-81833
X60736Y-88333
X60736Y-95033
X60736Y-101533
X60736Y-108033
X60736Y-114533
X60738Y-24652
X60738Y-64052
X60738Y-67252
X60741Y-51243
X60741Y-77453
X60741Y-84023
X60741Y-103703
X60751Y-57813
X60751Y-90593
X60751Y-97113
X60771Y-35853
X60771Y-116653
X61508Y-124279
X67940Y-23931
X68040Y-122531
X68640Y-70431
X69240Y-17931
X69640Y-28431
X69640Y-34831
X69640Y-45731
X69650Y-48531
X69740Y-19531
X69740Y-21431
X69740Y-41431
X69740Y-123031
X69780Y-52311
X69800Y-74211
X69800Y-113531
X69805Y-58911
X69805Y-65411
X69805Y-72111
X69805Y-78611
X69805Y-85111
X69805Y-91611
X69805Y-98311
X69805Y-104811
X69805Y-111311
X69805Y-117811
X69810Y-54521
X69810Y-80731
X69810Y-87301
X69810Y-106981
X69820Y-61091
X69820Y-93871
X69820Y-100391
X69840Y-24631
X69840Y-32731
X69840Y-39131
X69840Y-67431
X69840Y-119931
X69940Y-70431
X70431Y-126350
X70740Y-70431
X71540Y-23831
X71640Y-122431
X75846Y-119450
X75946Y-21450
X75946Y-67150
X76013Y-23959
X76046Y-27550
X76046Y-29750
X76046Y-69350
X76346Y-121450
X78246Y-27050
X78279Y-30651
X78279Y-41551
X78289Y-44351
X78379Y-37251
X78379Y-118851
X78419Y-48131
X78439Y-70031
X78439Y-109351
X78444Y-54731
X78444Y-61231
X78444Y-74431
X78444Y-80931
X78444Y-87431
X78444Y-94131
X78444Y-100631
X78444Y-107131
X78444Y-113631
X78446Y-23750
X78446Y-63150
X78446Y-66350
X78449Y-50341
X78449Y-76551
X78449Y-83121
X78449Y-102801
X78459Y-56911
X78459Y-89691
X78459Y-96211
X78479Y-34951
X78479Y-115751
X80778Y-122577
X80878Y-23877
X80985Y-28277
X81473Y-43578
X81483Y-46378
X81573Y-39278
X81573Y-120878
X81613Y-50158
X81633Y-72058
X81633Y-111378
X81638Y-56758
X81638Y-63258
X81638Y-76458
X81638Y-82958
X81638Y-89458
X81638Y-96158
X81638Y-102658
X81638Y-109158
X81638Y-115658
X81640Y-25777
X81640Y-65177
X81640Y-68377
X81643Y-52368
X81643Y-78578
X81643Y-85148
X81643Y-104828
X81653Y-58938
X81653Y-91718
X81653Y-98238
X81673Y-36978
X81673Y-117778
X81678Y-30977
X81779Y-32278
X82144Y-25911
X82278Y-23977
X82278Y-122577
X82284Y-30457
X83779Y-20366
X83875Y-124206
X83879Y-22766
X83985Y-27217
X84474Y-42467
X84484Y-45267
X84574Y-38167
X84574Y-119767
X84614Y-49047
X84634Y-70947
X84634Y-110267
X84639Y-55647
X84639Y-62147
X84639Y-75347
X84639Y-81847
X84639Y-88347
X84639Y-95047
X84639Y-101547
X84639Y-108047
X84639Y-114547
X84641Y-24666
X84641Y-64066
X84641Y-67266
X84644Y-51257
X84644Y-77467
X84644Y-84037
X84644Y-103717
X84654Y-57827
X84654Y-90607
X84654Y-97127
X84674Y-35867
X84674Y-116667
X84679Y-29866
X84779Y-31166
X85144Y-24800
X85155Y-124286
X85279Y-22866
X85284Y-29346
X85379Y-20366
X86765Y-20352
X86861Y-124192
X86865Y-22752
X86971Y-27203
X87460Y-42453
X87470Y-45253
X87560Y-38153
X87560Y-119753
X87600Y-49033
X87620Y-70933
X87620Y-110253
X87625Y-55633
X87625Y-62133
X87625Y-75333
X87625Y-81833
X87625Y-88333
X87625Y-95033
X87625Y-101533
X87625Y-108033
X87625Y-114533
X87627Y-24652
X87627Y-64052
X87627Y-67252
X87630Y-51243
X87630Y-77453
X87630Y-84023
X87630Y-103703
X87640Y-57813
X87640Y-90593
X87640Y-97113
X87660Y-35853
X87660Y-116653
X87665Y-29852
X87765Y-31153
X88131Y-24786
X88141Y-124272
X88265Y-22852
X88270Y-29332
X88365Y-20352
X89754Y-18145
X90417Y-16445
X90459Y-28445
X90459Y-34845
X90469Y-48545
X90538Y-45723
X90539Y-46224
X90559Y-19545
X90559Y-21745
X90559Y-41445
X90579Y-98182
X90599Y-52325
X90614Y-98674
X90619Y-74225
X90619Y-113545
X90620Y-24682
X90620Y-120264
X90624Y-58925
X90624Y-65425
X90624Y-72125
X90624Y-78625
X90624Y-85125
X90624Y-91625
X90624Y-104825
X90624Y-111325
X90624Y-117825
X90629Y-54535
X90629Y-67625
X90629Y-80745
X90629Y-87315
X90629Y-106995
X90639Y-61105
X90639Y-93885
X90639Y-100405
X90649Y-124475
X90659Y-32745
X90659Y-39145
X90917Y-16445
X91250Y-126364
X91489Y-41124
X91504Y-93759
X92755Y-23144
X92861Y-120928
X93385Y-23694
X93402Y-67888
X93460Y-39189
X93470Y-41989
X93560Y-34889
X93560Y-116489
X93573Y-45682
X93589Y-46174
X93593Y-98182
X93614Y-98674
X93620Y-106989
X93625Y-52369
X93625Y-58869
X93625Y-72069
X93625Y-78569
X93625Y-85069
X93625Y-91769
X93625Y-104769
X93625Y-111269
X93627Y-60788
X93627Y-63988
X93630Y-47979
X93630Y-74189
X93630Y-80759
X93630Y-100439
X93640Y-54549
X93640Y-87329
X93640Y-93849
X93660Y-32589
X93660Y-113389
X93765Y-27889
X94141Y-121008
X94147Y-23037
X94247Y-25928
X94262Y-26635
X94489Y-41065
X94504Y-93699
X95754Y-23144
X95860Y-120928
X96385Y-23694
X96389Y-45724
X96401Y-67888
X96459Y-39189
X96469Y-41989
X96559Y-34889
X96559Y-116489
X96594Y-46191
X96598Y-98157
X96619Y-106989
X96624Y-52369
X96624Y-58869
X96624Y-72069
X96624Y-78569
X96624Y-85069
X96624Y-91769
X96624Y-104769
X96624Y-111269
X96626Y-60788
X96626Y-63988
X96629Y-47979
X96629Y-74189
X96629Y-80759
X96629Y-100439
X96639Y-98649
X96639Y-54549
X96639Y-87329
X96639Y-93849
X96659Y-32589
X96659Y-113389
X96765Y-27889
X97140Y-121008
X97146Y-23037
X97247Y-25928
X97261Y-26635
X97389Y-93799
X97504Y-41174
T2
X69040Y-15731G85X69040Y-15731
G05
X69840Y-15731G85X69840Y-15731
G05
X70640Y-15731G85X70640Y-15731
G05
X95838Y-122891G85X95838Y-122891
G05
X96638Y-122891G85X96638Y-122891
G05
X97438Y-122891G85X97438Y-122891
G05
X80835Y-125376G85X80835Y-125376
G05
X81635Y-125376G85X81635Y-125376
G05
X82435Y-125376G85X82435Y-125376
G05
X89817Y-129245G85X89817Y-129245
G05
X90617Y-129245G85X90617Y-129245
G05
X91417Y-129245G85X91417Y-129245
G05
X86839Y-126155G85X86839Y-126155
G05
X87639Y-126155G85X87639Y-126155
G05
X88439Y-126155G85X88439Y-126155
G05
X83837Y-18276G85X83837Y-18276
G05
X84637Y-18276G85X84637Y-18276
G05
X85437Y-18276G85X85437Y-18276
G05
X24236Y-30658G85X24236Y-30658
G05
X25036Y-30658G85X25036Y-30658
G05
X25836Y-30658G85X25836Y-30658
G05
X42056Y-21939G85X42056Y-21939
G05
X42856Y-21939G85X42856Y-21939
G05
X43656Y-21939G85X43656Y-21939
G05
X50797Y-126073G85X50797Y-126073
G05
X51597Y-126073G85X51597Y-126073
G05
X52397Y-126073G85X52397Y-126073
G05
X27476Y-112622G85X27476Y-112622
G05
X28276Y-112622G85X28276Y-112622
G05
X29076Y-112622G85X29076Y-112622
G05
X80778Y-21477G85X80778Y-21477
G05
X81578Y-21477G85X81578Y-21477
G05
X82378Y-21477G85X82378Y-21477
G05
X69040Y-128831G85X69040Y-128831
G05
X69840Y-128831G85X69840Y-128831
G05
X70640Y-128831G85X70640Y-128831
G05
X95811Y-21650G85X95811Y-21650
G05
X96611Y-21650G85X96611Y-21650
G05
X97411Y-21650G85X97411Y-21650
G05
X59753Y-18378G85X59753Y-18378
G05
X60553Y-18378G85X60553Y-18378
G05
X61353Y-18378G85X61353Y-18378
G05
X89817Y-15045G85X89817Y-15045
G05
X90617Y-15045G85X90617Y-15045
G05
X91417Y-15045G85X91417Y-15045
G05
X50628Y-18378G85X50628Y-18378
G05
X51428Y-18378G85X51428Y-18378
G05
X52228Y-18378G85X52228Y-18378
G05
X92839Y-122891G85X92839Y-122891
G05
X93639Y-122891G85X93639Y-122891
G05
X94439Y-122891G85X94439Y-122891
G05
X27487Y-31462G85X27487Y-31462
G05
X28287Y-31462G85X28287Y-31462
G05
X29087Y-31462G85X29087Y-31462
G05
X77546Y-123350G85X77546Y-123350
G05
X78346Y-123350G85X78346Y-123350
G05
X79146Y-123350G85X79146Y-123350
G05
X77446Y-19250G85X77446Y-19250
G05
X78246Y-19250G85X78246Y-19250
G05
X79046Y-19250G85X79046Y-19250
G05
X86823Y-18262G85X86823Y-18262
G05
X87623Y-18262G85X87623Y-18262
G05
X88423Y-18262G85X88423Y-18262
G05
X59922Y-126073G85X59922Y-126073
G05
X60722Y-126073G85X60722Y-126073
G05
X61522Y-126073G85X61522Y-126073
G05
X92812Y-20863G85X92812Y-20863
G05
X93612Y-20863G85X93612Y-20863
G05
X94412Y-20863G85X94412Y-20863
G05
X42116Y-122795G85X42116Y-122795
G05
X42916Y-122795G85X42916Y-122795
G05
X43716Y-122795G85X43716Y-122795
G05
X33033Y-122796G85X33033Y-122796
G05
X33833Y-122796G85X33833Y-122796
G05
X34633Y-122796G85X34633Y-122796
G05
X24265Y-113929G85X24265Y-113929
G05
X25065Y-113929G85X25065Y-113929
G05
X25865Y-113929G85X25865Y-113929
G05
X32973Y-21940G85X32973Y-21940
G05
X33773Y-21940G85X33773Y-21940
G05
X34573Y-21940G85X34573Y-21940
G05
X83853Y-126169G85X83853Y-126169
G05
X84653Y-126169G85X84653Y-126169
G05
X85453Y-126169G85X85453Y-126169
G05
T0
M30
