G04 #@! TF.GenerationSoftware,KiCad,Pcbnew,(5.0.0-3-g5ebb6b6)*
G04 #@! TF.CreationDate,2019-02-23T00:38:07-08:00*
G04 #@! TF.ProjectId,PanelNoSeparation,50616E656C4E6F53657061726174696F,rev?*
G04 #@! TF.SameCoordinates,Original*
G04 #@! TF.FileFunction,Legend,Bot*
G04 #@! TF.FilePolarity,Positive*
%FSLAX45Y45*%
G04 Gerber Fmt 4.5, Leading zero omitted, Abs format (unit mm)*
G04 Created by KiCad (PCBNEW (5.0.0-3-g5ebb6b6)) date Saturday, February 23, 2019 at 12:38:07 AM*
%MOMM*%
%LPD*%
G01*
G04 APERTURE LIST*
%ADD10C,0.300000*%
%ADD11C,0.200000*%
G04 APERTURE END LIST*
D10*
X23768201Y-31618729D02*
X23782487Y-31661586D01*
X23796772Y-31675872D01*
X23825344Y-31690157D01*
X23868201Y-31690157D01*
X23896772Y-31675872D01*
X23911058Y-31661586D01*
X23925344Y-31633014D01*
X23925344Y-31518729D01*
X23625344Y-31518729D01*
X23625344Y-31618729D01*
X23639630Y-31647300D01*
X23653915Y-31661586D01*
X23682487Y-31675872D01*
X23711058Y-31675872D01*
X23739630Y-31661586D01*
X23753915Y-31647300D01*
X23768201Y-31618729D01*
X23768201Y-31518729D01*
X23896772Y-31990157D02*
X23911058Y-31975872D01*
X23925344Y-31933014D01*
X23925344Y-31904443D01*
X23911058Y-31861586D01*
X23882487Y-31833014D01*
X23853915Y-31818729D01*
X23796772Y-31804443D01*
X23753915Y-31804443D01*
X23696772Y-31818729D01*
X23668201Y-31833014D01*
X23639630Y-31861586D01*
X23625344Y-31904443D01*
X23625344Y-31933014D01*
X23639630Y-31975872D01*
X23653915Y-31990157D01*
X23008101Y-3236414D02*
X23008101Y-3336414D01*
X23165244Y-3379272D02*
X23165244Y-3236414D01*
X22865244Y-3236414D01*
X22865244Y-3379272D01*
X23008101Y-33310014D02*
X23008101Y-33410014D01*
X23165244Y-33452872D02*
X23165244Y-33310014D01*
X22865244Y-33310014D01*
X22865244Y-33452872D01*
D11*
X22966030Y-32485300D02*
X23093030Y-32485300D01*
X23232730Y-32498000D02*
X23232730Y-32371000D01*
X22750130Y-32434500D02*
X22877130Y-32434500D01*
X22813630Y-32498000D02*
X22813630Y-32371000D01*
X23029530Y-32371000D02*
X23093030Y-32485300D01*
X22966030Y-32485300D02*
X23029530Y-32371000D01*
X22953330Y-27252900D02*
X23080330Y-27252900D01*
X23220030Y-27265600D02*
X23220030Y-27138600D01*
X22775530Y-27202100D02*
X22902530Y-27202100D01*
X22839030Y-27265600D02*
X22839030Y-27138600D01*
X23016830Y-27138600D02*
X23080330Y-27252900D01*
X22953330Y-27252900D02*
X23016830Y-27138600D01*
X22940630Y-5574000D02*
X23067630Y-5574000D01*
X23207330Y-5586700D02*
X23207330Y-5459700D01*
X22762830Y-5523200D02*
X22889830Y-5523200D01*
X22826330Y-5586700D02*
X22826330Y-5459700D01*
X23004130Y-5459700D02*
X23067630Y-5574000D01*
X22940630Y-5574000D02*
X23004130Y-5459700D01*
D10*
X8579101Y-4805529D02*
X8593387Y-4848386D01*
X8607672Y-4862672D01*
X8636244Y-4876957D01*
X8679101Y-4876957D01*
X8707672Y-4862672D01*
X8721958Y-4848386D01*
X8736244Y-4819814D01*
X8736244Y-4705529D01*
X8436244Y-4705529D01*
X8436244Y-4805529D01*
X8450530Y-4834100D01*
X8464815Y-4848386D01*
X8493387Y-4862672D01*
X8521958Y-4862672D01*
X8550530Y-4848386D01*
X8564815Y-4834100D01*
X8579101Y-4805529D01*
X8579101Y-4705529D01*
X8707672Y-5176957D02*
X8721958Y-5162672D01*
X8736244Y-5119814D01*
X8736244Y-5091243D01*
X8721958Y-5048386D01*
X8693387Y-5019814D01*
X8664815Y-5005529D01*
X8607672Y-4991243D01*
X8564815Y-4991243D01*
X8507672Y-5005529D01*
X8479101Y-5019814D01*
X8450530Y-5048386D01*
X8436244Y-5091243D01*
X8436244Y-5119814D01*
X8450530Y-5162672D01*
X8464815Y-5176957D01*
D11*
X24475530Y-5953600D02*
X24539030Y-5839300D01*
X24539030Y-5839300D02*
X24602530Y-5953600D01*
X24323130Y-5966300D02*
X24323130Y-5839300D01*
X24742230Y-5966300D02*
X24742230Y-5839300D01*
X24475530Y-5953600D02*
X24602530Y-5953600D01*
X24259630Y-5902800D02*
X24386630Y-5902800D01*
X24475530Y-30858300D02*
X24539030Y-30744000D01*
X24539030Y-30744000D02*
X24602530Y-30858300D01*
X24323130Y-30871000D02*
X24323130Y-30744000D01*
X24742230Y-30871000D02*
X24742230Y-30744000D01*
X24475530Y-30858300D02*
X24602530Y-30858300D01*
X24259630Y-30807500D02*
X24386630Y-30807500D01*
D10*
X24530101Y-31618729D02*
X24544387Y-31661586D01*
X24558672Y-31675872D01*
X24587244Y-31690157D01*
X24630101Y-31690157D01*
X24658672Y-31675872D01*
X24672958Y-31661586D01*
X24687244Y-31633014D01*
X24687244Y-31518729D01*
X24387244Y-31518729D01*
X24387244Y-31618729D01*
X24401530Y-31647300D01*
X24415815Y-31661586D01*
X24444387Y-31675872D01*
X24472958Y-31675872D01*
X24501530Y-31661586D01*
X24515815Y-31647300D01*
X24530101Y-31618729D01*
X24530101Y-31518729D01*
X24658672Y-31990157D02*
X24672958Y-31975872D01*
X24687244Y-31933014D01*
X24687244Y-31904443D01*
X24672958Y-31861586D01*
X24644387Y-31833014D01*
X24615815Y-31818729D01*
X24558672Y-31804443D01*
X24515815Y-31804443D01*
X24458672Y-31818729D01*
X24430101Y-31833014D01*
X24401530Y-31861586D01*
X24387244Y-31904443D01*
X24387244Y-31933014D01*
X24401530Y-31975872D01*
X24415815Y-31990157D01*
X24530101Y-4847129D02*
X24544387Y-4889986D01*
X24558672Y-4904272D01*
X24587244Y-4918557D01*
X24630101Y-4918557D01*
X24658672Y-4904272D01*
X24672958Y-4889986D01*
X24687244Y-4861414D01*
X24687244Y-4747129D01*
X24387244Y-4747129D01*
X24387244Y-4847129D01*
X24401530Y-4875700D01*
X24415815Y-4889986D01*
X24444387Y-4904272D01*
X24472958Y-4904272D01*
X24501530Y-4889986D01*
X24515815Y-4875700D01*
X24530101Y-4847129D01*
X24530101Y-4747129D01*
X24658672Y-5218557D02*
X24672958Y-5204272D01*
X24687244Y-5161414D01*
X24687244Y-5132843D01*
X24672958Y-5089986D01*
X24644387Y-5061414D01*
X24615815Y-5047129D01*
X24558672Y-5032843D01*
X24515815Y-5032843D01*
X24458672Y-5047129D01*
X24430101Y-5061414D01*
X24401530Y-5089986D01*
X24387244Y-5132843D01*
X24387244Y-5161414D01*
X24401530Y-5204272D01*
X24415815Y-5218557D01*
D11*
X22187130Y-5080800D02*
X22250630Y-4966500D01*
X22250630Y-4966500D02*
X22314130Y-5080800D01*
X22034730Y-5093500D02*
X22034730Y-4966500D01*
X22453830Y-5093500D02*
X22453830Y-4966500D01*
X22187130Y-5080800D02*
X22314130Y-5080800D01*
X21971230Y-5030000D02*
X22098230Y-5030000D01*
X22187130Y-31738100D02*
X22250630Y-31623800D01*
X22250630Y-31623800D02*
X22314130Y-31738100D01*
X22034730Y-31750800D02*
X22034730Y-31623800D01*
X22453830Y-31750800D02*
X22453830Y-31623800D01*
X22187130Y-31738100D02*
X22314130Y-31738100D01*
X21971230Y-31687300D02*
X22098230Y-31687300D01*
D10*
X22399044Y-32485029D02*
X22099044Y-32485029D01*
X22099044Y-32556457D01*
X22113330Y-32599314D01*
X22141901Y-32627886D01*
X22170472Y-32642172D01*
X22227615Y-32656457D01*
X22270472Y-32656457D01*
X22327615Y-32642172D01*
X22356187Y-32627886D01*
X22384758Y-32599314D01*
X22399044Y-32556457D01*
X22399044Y-32485029D01*
X22411744Y-4062429D02*
X22111744Y-4062429D01*
X22111744Y-4133857D01*
X22126030Y-4176714D01*
X22154601Y-4205286D01*
X22183172Y-4219572D01*
X22240315Y-4233857D01*
X22283172Y-4233857D01*
X22340315Y-4219572D01*
X22368887Y-4205286D01*
X22397458Y-4176714D01*
X22411744Y-4133857D01*
X22411744Y-4062429D01*
D11*
X15323230Y-5118900D02*
X15386730Y-5004600D01*
X15386730Y-5004600D02*
X15450230Y-5118900D01*
X15170830Y-5131600D02*
X15170830Y-5004600D01*
X15589930Y-5131600D02*
X15589930Y-5004600D01*
X15323230Y-5118900D02*
X15450230Y-5118900D01*
X15107330Y-5068100D02*
X15234330Y-5068100D01*
X15361330Y-31661900D02*
X15424830Y-31547600D01*
X15424830Y-31547600D02*
X15488330Y-31661900D01*
X15208930Y-31674600D02*
X15208930Y-31547600D01*
X15628030Y-31674600D02*
X15628030Y-31547600D01*
X15361330Y-31661900D02*
X15488330Y-31661900D01*
X15145430Y-31611100D02*
X15272430Y-31611100D01*
D10*
X15573244Y-32624729D02*
X15273244Y-32624729D01*
X15273244Y-32696157D01*
X15287530Y-32739014D01*
X15316101Y-32767586D01*
X15344672Y-32781872D01*
X15401815Y-32796157D01*
X15444672Y-32796157D01*
X15501815Y-32781872D01*
X15530387Y-32767586D01*
X15558958Y-32739014D01*
X15573244Y-32696157D01*
X15573244Y-32624729D01*
X15573244Y-3922729D02*
X15273244Y-3922729D01*
X15273244Y-3994157D01*
X15287530Y-4037014D01*
X15316101Y-4065586D01*
X15344672Y-4079872D01*
X15401815Y-4094157D01*
X15444672Y-4094157D01*
X15501815Y-4079872D01*
X15530387Y-4065586D01*
X15558958Y-4037014D01*
X15573244Y-3994157D01*
X15573244Y-3922729D01*
D11*
X10818930Y-6026200D02*
X10882430Y-5911900D01*
X10882430Y-5911900D02*
X10945930Y-6026200D01*
X10666530Y-6038900D02*
X10666530Y-5911900D01*
X11085630Y-6038900D02*
X11085630Y-5911900D01*
X10818930Y-6026200D02*
X10945930Y-6026200D01*
X10603030Y-5975400D02*
X10730030Y-5975400D01*
X10844330Y-30803900D02*
X10907830Y-30689600D01*
X10907830Y-30689600D02*
X10971330Y-30803900D01*
X10691930Y-30816600D02*
X10691930Y-30689600D01*
X11111030Y-30816600D02*
X11111030Y-30689600D01*
X10844330Y-30803900D02*
X10971330Y-30803900D01*
X10628430Y-30753100D02*
X10755430Y-30753100D01*
D10*
X10898901Y-31653229D02*
X10913187Y-31696086D01*
X10927472Y-31710372D01*
X10956044Y-31724657D01*
X10998901Y-31724657D01*
X11027472Y-31710372D01*
X11041758Y-31696086D01*
X11056044Y-31667514D01*
X11056044Y-31553229D01*
X10756044Y-31553229D01*
X10756044Y-31653229D01*
X10770330Y-31681800D01*
X10784615Y-31696086D01*
X10813187Y-31710372D01*
X10841758Y-31710372D01*
X10870330Y-31696086D01*
X10884615Y-31681800D01*
X10898901Y-31653229D01*
X10898901Y-31553229D01*
X11027472Y-32024657D02*
X11041758Y-32010372D01*
X11056044Y-31967514D01*
X11056044Y-31938943D01*
X11041758Y-31896086D01*
X11013187Y-31867514D01*
X10984615Y-31853229D01*
X10927472Y-31838943D01*
X10884615Y-31838943D01*
X10827472Y-31853229D01*
X10798901Y-31867514D01*
X10770330Y-31896086D01*
X10756044Y-31938943D01*
X10756044Y-31967514D01*
X10770330Y-32010372D01*
X10784615Y-32024657D01*
X10886201Y-4805429D02*
X10900487Y-4848286D01*
X10914772Y-4862572D01*
X10943344Y-4876857D01*
X10986201Y-4876857D01*
X11014772Y-4862572D01*
X11029058Y-4848286D01*
X11043344Y-4819714D01*
X11043344Y-4705429D01*
X10743344Y-4705429D01*
X10743344Y-4805429D01*
X10757630Y-4834000D01*
X10771915Y-4848286D01*
X10800487Y-4862572D01*
X10829058Y-4862572D01*
X10857630Y-4848286D01*
X10871915Y-4834000D01*
X10886201Y-4805429D01*
X10886201Y-4705429D01*
X11014772Y-5176857D02*
X11029058Y-5162572D01*
X11043344Y-5119714D01*
X11043344Y-5091143D01*
X11029058Y-5048286D01*
X11000487Y-5019714D01*
X10971915Y-5005429D01*
X10914772Y-4991143D01*
X10871915Y-4991143D01*
X10814772Y-5005429D01*
X10786201Y-5019714D01*
X10757630Y-5048286D01*
X10743344Y-5091143D01*
X10743344Y-5119714D01*
X10757630Y-5162572D01*
X10771915Y-5176857D01*
D11*
X6092392Y-28513540D02*
X6219392Y-28513540D01*
X6308292Y-28564340D02*
X6435292Y-28564340D01*
X6574992Y-28577040D02*
X6574992Y-28450040D01*
X6155892Y-28577040D02*
X6155892Y-28450040D01*
X6371792Y-28450040D02*
X6435292Y-28564340D01*
X6308292Y-28564340D02*
X6371792Y-28450040D01*
X6092392Y-8142740D02*
X6219392Y-8142740D01*
X6308292Y-8193540D02*
X6435292Y-8193540D01*
X6574992Y-8206240D02*
X6574992Y-8079240D01*
X6155892Y-8206240D02*
X6155892Y-8079240D01*
X6371792Y-8079240D02*
X6435292Y-8193540D01*
X6308292Y-8193540D02*
X6371792Y-8079240D01*
D10*
X6408892Y-7093412D02*
X6408892Y-7236269D01*
X6494606Y-7064840D02*
X6194606Y-7164840D01*
X6494606Y-7264840D01*
X6421592Y-29458112D02*
X6421592Y-29600969D01*
X6507306Y-29429540D02*
X6207306Y-29529540D01*
X6507306Y-29629540D01*
D11*
X6903030Y-9784600D02*
X7030030Y-9784600D01*
X7118930Y-9835400D02*
X7245930Y-9835400D01*
X7385630Y-9848100D02*
X7385630Y-9721100D01*
X6966530Y-9848100D02*
X6966530Y-9721100D01*
X7182430Y-9721100D02*
X7245930Y-9835400D01*
X7118930Y-9835400D02*
X7182430Y-9721100D01*
X6903030Y-28225000D02*
X7030030Y-28225000D01*
X7118930Y-28275800D02*
X7245930Y-28275800D01*
X7385630Y-28288500D02*
X7385630Y-28161500D01*
X6966530Y-28288500D02*
X6966530Y-28161500D01*
X7182430Y-28161500D02*
X7245930Y-28275800D01*
X7118930Y-28275800D02*
X7182430Y-28161500D01*
D10*
X7245130Y-7414472D02*
X7245130Y-7557329D01*
X7330844Y-7385900D02*
X7030844Y-7485900D01*
X7330844Y-7585900D01*
X7245130Y-29144172D02*
X7245130Y-29287029D01*
X7330844Y-29115600D02*
X7030844Y-29215600D01*
X7330844Y-29315600D01*
D11*
X8321330Y-30753200D02*
X8448330Y-30753200D01*
X8537230Y-30804000D02*
X8664230Y-30804000D01*
X8803930Y-30816700D02*
X8803930Y-30689700D01*
X8384830Y-30816700D02*
X8384830Y-30689700D01*
X8600730Y-30689700D02*
X8664230Y-30804000D01*
X8537230Y-30804000D02*
X8600730Y-30689700D01*
X8295930Y-5975500D02*
X8422930Y-5975500D01*
X8511830Y-6026300D02*
X8638830Y-6026300D01*
X8778530Y-6039000D02*
X8778530Y-5912000D01*
X8359430Y-6039000D02*
X8359430Y-5912000D01*
X8575330Y-5912000D02*
X8638830Y-6026300D01*
X8511830Y-6026300D02*
X8575330Y-5912000D01*
D10*
X8591801Y-31653329D02*
X8606087Y-31696186D01*
X8620372Y-31710472D01*
X8648944Y-31724757D01*
X8691801Y-31724757D01*
X8720372Y-31710472D01*
X8734658Y-31696186D01*
X8748944Y-31667614D01*
X8748944Y-31553329D01*
X8448944Y-31553329D01*
X8448944Y-31653329D01*
X8463230Y-31681900D01*
X8477515Y-31696186D01*
X8506087Y-31710472D01*
X8534658Y-31710472D01*
X8563230Y-31696186D01*
X8577515Y-31681900D01*
X8591801Y-31653329D01*
X8591801Y-31553329D01*
X8720372Y-32024757D02*
X8734658Y-32010472D01*
X8748944Y-31967614D01*
X8748944Y-31939043D01*
X8734658Y-31896186D01*
X8706087Y-31867614D01*
X8677515Y-31853329D01*
X8620372Y-31839043D01*
X8577515Y-31839043D01*
X8520372Y-31853329D01*
X8491801Y-31867614D01*
X8463230Y-31896186D01*
X8448944Y-31939043D01*
X8448944Y-31967614D01*
X8463230Y-32010472D01*
X8477515Y-32024757D01*
D11*
X23497730Y-30807500D02*
X23624730Y-30807500D01*
X23713630Y-30858300D02*
X23840630Y-30858300D01*
X23980330Y-30871000D02*
X23980330Y-30744000D01*
X23561230Y-30871000D02*
X23561230Y-30744000D01*
X23777130Y-30744000D02*
X23840630Y-30858300D01*
X23713630Y-30858300D02*
X23777130Y-30744000D01*
X23497730Y-5902800D02*
X23624730Y-5902800D01*
X23713630Y-5953600D02*
X23840630Y-5953600D01*
X23980330Y-5966300D02*
X23980330Y-5839300D01*
X23561230Y-5966300D02*
X23561230Y-5839300D01*
X23777130Y-5839300D02*
X23840630Y-5953600D01*
X23713630Y-5953600D02*
X23777130Y-5839300D01*
D10*
X23768201Y-4847129D02*
X23782487Y-4889986D01*
X23796772Y-4904272D01*
X23825344Y-4918557D01*
X23868201Y-4918557D01*
X23896772Y-4904272D01*
X23911058Y-4889986D01*
X23925344Y-4861414D01*
X23925344Y-4747129D01*
X23625344Y-4747129D01*
X23625344Y-4847129D01*
X23639630Y-4875700D01*
X23653915Y-4889986D01*
X23682487Y-4904272D01*
X23711058Y-4904272D01*
X23739630Y-4889986D01*
X23753915Y-4875700D01*
X23768201Y-4847129D01*
X23768201Y-4747129D01*
X23896772Y-5218557D02*
X23911058Y-5204272D01*
X23925344Y-5161414D01*
X23925344Y-5132843D01*
X23911058Y-5089986D01*
X23882487Y-5061414D01*
X23853915Y-5047129D01*
X23796772Y-5032843D01*
X23753915Y-5032843D01*
X23696772Y-5047129D01*
X23668201Y-5061414D01*
X23639630Y-5089986D01*
X23625344Y-5132843D01*
X23625344Y-5161414D01*
X23639630Y-5204272D01*
X23653915Y-5218557D01*
D11*
X12827730Y-31611100D02*
X12954730Y-31611100D01*
X13043630Y-31661900D02*
X13170630Y-31661900D01*
X13310330Y-31674600D02*
X13310330Y-31547600D01*
X12891230Y-31674600D02*
X12891230Y-31547600D01*
X13107130Y-31547600D02*
X13170630Y-31661900D01*
X13043630Y-31661900D02*
X13107130Y-31547600D01*
X12789630Y-5068100D02*
X12916630Y-5068100D01*
X13005530Y-5118900D02*
X13132530Y-5118900D01*
X13272230Y-5131600D02*
X13272230Y-5004600D01*
X12853130Y-5131600D02*
X12853130Y-5004600D01*
X13069030Y-5004600D02*
X13132530Y-5118900D01*
X13005530Y-5118900D02*
X13069030Y-5004600D01*
D10*
X13255544Y-3922729D02*
X12955544Y-3922729D01*
X12955544Y-3994157D01*
X12969830Y-4037014D01*
X12998401Y-4065586D01*
X13026972Y-4079872D01*
X13084115Y-4094157D01*
X13126972Y-4094157D01*
X13184115Y-4079872D01*
X13212687Y-4065586D01*
X13241258Y-4037014D01*
X13255544Y-3994157D01*
X13255544Y-3922729D01*
X13255544Y-32624729D02*
X12955544Y-32624729D01*
X12955544Y-32696157D01*
X12969830Y-32739014D01*
X12998401Y-32767586D01*
X13026972Y-32781872D01*
X13084115Y-32796157D01*
X13126972Y-32796157D01*
X13184115Y-32781872D01*
X13212687Y-32767586D01*
X13241258Y-32739014D01*
X13255544Y-32696157D01*
X13255544Y-32624729D01*
D11*
X21212730Y-31690800D02*
X21339730Y-31690800D01*
X21428630Y-31741600D02*
X21555630Y-31741600D01*
X21695330Y-31754300D02*
X21695330Y-31627300D01*
X21276230Y-31754300D02*
X21276230Y-31627300D01*
X21492130Y-31627300D02*
X21555630Y-31741600D01*
X21428630Y-31741600D02*
X21492130Y-31627300D01*
X21212730Y-5033500D02*
X21339730Y-5033500D01*
X21428630Y-5084300D02*
X21555630Y-5084300D01*
X21695330Y-5097000D02*
X21695330Y-4970000D01*
X21276230Y-5097000D02*
X21276230Y-4970000D01*
X21492130Y-4970000D02*
X21555630Y-5084300D01*
X21428630Y-5084300D02*
X21492130Y-4970000D01*
D10*
X21653244Y-4065929D02*
X21353244Y-4065929D01*
X21353244Y-4137357D01*
X21367530Y-4180214D01*
X21396101Y-4208786D01*
X21424672Y-4223072D01*
X21481815Y-4237357D01*
X21524672Y-4237357D01*
X21581815Y-4223072D01*
X21610387Y-4208786D01*
X21638958Y-4180214D01*
X21653244Y-4137357D01*
X21653244Y-4065929D01*
X21640544Y-32488529D02*
X21340544Y-32488529D01*
X21340544Y-32559957D01*
X21354830Y-32602814D01*
X21383401Y-32631386D01*
X21411972Y-32645672D01*
X21469115Y-32659957D01*
X21511972Y-32659957D01*
X21569115Y-32645672D01*
X21597687Y-32631386D01*
X21626258Y-32602814D01*
X21640544Y-32559957D01*
X21640544Y-32488529D01*
D11*
X17460030Y-32342000D02*
X17587030Y-32342000D01*
X17675930Y-32392800D02*
X17802930Y-32392800D01*
X17942630Y-32405500D02*
X17942630Y-32278500D01*
X17523530Y-32405500D02*
X17523530Y-32278500D01*
X17739430Y-32278500D02*
X17802930Y-32392800D01*
X17675930Y-32392800D02*
X17739430Y-32278500D01*
X17460030Y-4414700D02*
X17587030Y-4414700D01*
X17675930Y-4465500D02*
X17802930Y-4465500D01*
X17942630Y-4478200D02*
X17942630Y-4351200D01*
X17523530Y-4478200D02*
X17523530Y-4351200D01*
X17739430Y-4351200D02*
X17802930Y-4465500D01*
X17675930Y-4465500D02*
X17739430Y-4351200D01*
D10*
X17718001Y-33281014D02*
X17718001Y-33381014D01*
X17875144Y-33423872D02*
X17875144Y-33281014D01*
X17575144Y-33281014D01*
X17575144Y-33423872D01*
X17730701Y-3296314D02*
X17730701Y-3396314D01*
X17887844Y-3439172D02*
X17887844Y-3296314D01*
X17587844Y-3296314D01*
X17587844Y-3439172D01*
D11*
X19849130Y-30073500D02*
X19976130Y-30073500D01*
X20115830Y-30086200D02*
X20115830Y-29959200D01*
X19671330Y-30022700D02*
X19798330Y-30022700D01*
X19734830Y-30086200D02*
X19734830Y-29959200D01*
X19912630Y-29959200D02*
X19976130Y-30073500D01*
X19849130Y-30073500D02*
X19912630Y-29959200D01*
X19861830Y-16255900D02*
X19988830Y-16255900D01*
X20128530Y-16268600D02*
X20128530Y-16141600D01*
X19684030Y-16205100D02*
X19811030Y-16205100D01*
X19747530Y-16268600D02*
X19747530Y-16141600D01*
X19925330Y-16141600D02*
X19988830Y-16255900D01*
X19861830Y-16255900D02*
X19925330Y-16141600D01*
X19861830Y-6235600D02*
X19988830Y-6235600D01*
X20128530Y-6248300D02*
X20128530Y-6121300D01*
X19684030Y-6184800D02*
X19811030Y-6184800D01*
X19747530Y-6248300D02*
X19747530Y-6121300D01*
X19925330Y-6121300D02*
X19988830Y-6235600D01*
X19861830Y-6235600D02*
X19925330Y-6121300D01*
D10*
X19916601Y-31894357D02*
X19916601Y-31794357D01*
X20073744Y-31794357D02*
X19773744Y-31794357D01*
X19773744Y-31937214D01*
X19960801Y-4551957D02*
X19960801Y-4451957D01*
X20117944Y-4451957D02*
X19817944Y-4451957D01*
X19817944Y-4594814D01*
D11*
X20657430Y-30017000D02*
X20784430Y-30017000D01*
X20924130Y-30029700D02*
X20924130Y-29902700D01*
X20479630Y-29966200D02*
X20606630Y-29966200D01*
X20543130Y-30029700D02*
X20543130Y-29902700D01*
X20720930Y-29902700D02*
X20784430Y-30017000D01*
X20657430Y-30017000D02*
X20720930Y-29902700D01*
X20682830Y-18396500D02*
X20809830Y-18396500D01*
X20949530Y-18409200D02*
X20949530Y-18282200D01*
X20505030Y-18345700D02*
X20632030Y-18345700D01*
X20568530Y-18409200D02*
X20568530Y-18282200D01*
X20746330Y-18282200D02*
X20809830Y-18396500D01*
X20682830Y-18396500D02*
X20746330Y-18282200D01*
X20555830Y-6610900D02*
X20555830Y-6483900D01*
X20492330Y-6547400D02*
X20619330Y-6547400D01*
X20670130Y-6598200D02*
X20733630Y-6483900D01*
X20733630Y-6483900D02*
X20797130Y-6598200D01*
X20936830Y-6610900D02*
X20936830Y-6483900D01*
X20670130Y-6598200D02*
X20797130Y-6598200D01*
D10*
X20724901Y-5066257D02*
X20724901Y-4966257D01*
X20882044Y-4966257D02*
X20582044Y-4966257D01*
X20582044Y-5109114D01*
X20724901Y-32295057D02*
X20724901Y-32195057D01*
X20882044Y-32195057D02*
X20582044Y-32195057D01*
X20582044Y-32337914D01*
M02*
