G04 #@! TF.GenerationSoftware,KiCad,Pcbnew,(5.0.0-3-g5ebb6b6)*
G04 #@! TF.CreationDate,2019-02-23T00:38:08-08:00*
G04 #@! TF.ProjectId,PanelNoSeparation,50616E656C4E6F53657061726174696F,rev?*
G04 #@! TF.SameCoordinates,Original*
G04 #@! TF.FileFunction,Soldermask,Bot*
G04 #@! TF.FilePolarity,Negative*
%FSLAX45Y45*%
G04 Gerber Fmt 4.5, Leading zero omitted, Abs format (unit mm)*
G04 Created by KiCad (PCBNEW (5.0.0-3-g5ebb6b6)) date Saturday, February 23, 2019 at 12:38:08 AM*
%MOMM*%
%LPD*%
G01*
G04 APERTURE LIST*
%ADD10O,1.924000X5.480000*%
G04 APERTURE END LIST*
D10*
G04 #@! TO.C,J1*
X23220030Y-32828200D03*
X23016830Y-32828200D03*
X22813630Y-32828200D03*
G04 #@! TD*
G04 #@! TO.C,J2*
X23220030Y-3821400D03*
X23016830Y-3821400D03*
X22813630Y-3821400D03*
G04 #@! TD*
G04 #@! TO.C,J2*
X10682278Y-5572556D03*
X10885478Y-5572556D03*
X11088678Y-5572556D03*
G04 #@! TD*
G04 #@! TO.C,J1*
X10697518Y-31189980D03*
X10900718Y-31189980D03*
X11103918Y-31189980D03*
G04 #@! TD*
G04 #@! TO.C,J2*
X15177180Y-4668050D03*
X15380380Y-4668050D03*
X15583580Y-4668050D03*
G04 #@! TD*
G04 #@! TO.C,J1*
X15220106Y-32022580D03*
X15423306Y-32022580D03*
X15626506Y-32022580D03*
G04 #@! TD*
G04 #@! TO.C,J2*
X22053018Y-4638586D03*
X22256218Y-4638586D03*
X22459418Y-4638586D03*
G04 #@! TD*
G04 #@! TO.C,J1*
X22057082Y-32043408D03*
X22260282Y-32043408D03*
X22463482Y-32043408D03*
G04 #@! TD*
G04 #@! TO.C,J2*
X24336084Y-5499194D03*
X24539284Y-5499194D03*
X24742484Y-5499194D03*
G04 #@! TD*
G04 #@! TO.C,J1*
X24342942Y-31214408D03*
X24546142Y-31214408D03*
X24749342Y-31214408D03*
G04 #@! TD*
G04 #@! TO.C,J2*
X8781578Y-5572656D03*
X8578378Y-5572656D03*
X8375178Y-5572656D03*
G04 #@! TD*
G04 #@! TO.C,J1*
X23987442Y-31214408D03*
X23784242Y-31214408D03*
X23581042Y-31214408D03*
G04 #@! TD*
G04 #@! TO.C,J2*
X23980584Y-5299194D03*
X23777384Y-5299194D03*
X23574184Y-5299194D03*
G04 #@! TD*
G04 #@! TO.C,J1*
X13308806Y-32022580D03*
X13105606Y-32022580D03*
X12902406Y-32022580D03*
G04 #@! TD*
G04 #@! TO.C,J2*
X13265880Y-4668050D03*
X13062680Y-4668050D03*
X12859480Y-4668050D03*
G04 #@! TD*
G04 #@! TO.C,J1*
X21704982Y-32046908D03*
X21501782Y-32046908D03*
X21298582Y-32046908D03*
G04 #@! TD*
G04 #@! TO.C,J2*
X21700918Y-4642086D03*
X21497718Y-4642086D03*
X21294518Y-4642086D03*
G04 #@! TD*
G04 #@! TO.C,J1*
X17942630Y-32723000D03*
X17739430Y-32723000D03*
X17536230Y-32723000D03*
G04 #@! TD*
G04 #@! TO.C,J2*
X17942630Y-3995600D03*
X17739430Y-3995600D03*
X17536230Y-3995600D03*
G04 #@! TD*
G04 #@! TO.C,J1*
X20103130Y-31330800D03*
X19899930Y-31330800D03*
X19696730Y-31330800D03*
G04 #@! TD*
G04 #@! TO.C,J2*
X20077730Y-4889400D03*
X19874530Y-4889400D03*
X19671330Y-4889400D03*
G04 #@! TD*
G04 #@! TO.C,J1*
X20938608Y-31845546D03*
X20735408Y-31845546D03*
X20532208Y-31845546D03*
G04 #@! TD*
G04 #@! TO.C,J2*
X20924130Y-5455200D03*
X20720930Y-5455200D03*
X20517730Y-5455200D03*
G04 #@! TD*
G04 #@! TO.C,J2*
X7388170Y-7991360D03*
X7184970Y-7991360D03*
X6981770Y-7991360D03*
G04 #@! TD*
G04 #@! TO.C,J1*
X7385370Y-28606000D03*
X7182170Y-28606000D03*
X6978970Y-28606000D03*
G04 #@! TD*
G04 #@! TO.C,J1*
X8796818Y-31190080D03*
X8593618Y-31190080D03*
X8390418Y-31190080D03*
G04 #@! TD*
G04 #@! TO.C,J2*
X6562292Y-7787140D03*
X6359092Y-7787140D03*
X6155892Y-7787140D03*
G04 #@! TD*
G04 #@! TO.C,J1*
X6569792Y-28938040D03*
X6366592Y-28938040D03*
X6163392Y-28938040D03*
G04 #@! TD*
M02*
