<svg version="1.1" xmlns="http://www.w3.org/2000/svg" xmlns:xlink="http://www.w3.org/1999/xlink" stroke-linecap="round" stroke-linejoin="round" stroke-width="0" fill-rule="evenodd" width="297.33370299999996mm" height="148.000119mm" viewBox="82733.068 -245100.322 297333.703 148000.119" id="S-_wQqzXbC0qUQrVxhsb"><g transform="translate(0,-342200.52499999997) scale(1,-1)" fill="currentColor" stroke="currentColor"><path d="M 375066.796 -240100.249 87733.065 -240100.249 87733.065 -236850.265 89733.093 -236850.265 89733.093 -238100.339 182178.118 -238100.339 M 182178.118 -161600.358 182178.118 -163600.235 89733.093 -163600.235 89733.093 -164850.181 87733.065 -164850.181 87733.065 -160350.369 89733.093 -160350.369 89733.093 -161600.358 182178.118 -161600.358 M 375066.796 -194350.361 375066.796 -198850.173 373067.543 -198850.173 373068.038 -197600.227 280622.927 -197600.227 280622.927 -195600.349 373065.497 -195600.349 373065.993 -194350.361 375066.796 -194350.361 M 375066.796 -202850.273 375066.796 -207350.257 373067.543 -207350.257 373068.038 -206100.225 280622.927 -206100.225 280622.927 -204100.347 373065.497 -204100.347 373065.993 -202850.273 375066.796 -202850.273 M 276623.171 -104100.228 186178.218 -104100.228 186178.218 -102100.2 276623.171 -102100.2 276623.171 -104100.228 M 375066.796 -109350.381 375066.796 -113850.193 373067.543 -113850.193 373068.038 -112600.226 280622.927 -112600.226 280622.927 -110600.348 373065.497 -110600.348 373065.993 -109350.381 375066.796 -109350.381 M 375066.796 -117850.293 375066.796 -122350.277 373067.543 -122350.277 373068.038 -121100.224 280622.927 -121100.224 280622.927 -119100.346 373065.497 -119100.346 373065.993 -117850.293 375066.796 -117850.293 M 375066.796 -126350.377 375066.796 -130850.189 373067.543 -130850.189 373068.038 -129600.222 280622.927 -129600.222 280622.927 -127600.344 373065.497 -127600.344 373065.993 -126350.377 375066.796 -126350.377 M 375066.796 -134850.289 375066.796 -139350.273 373067.543 -139350.273 373068.038 -138100.22 280622.927 -138100.22 280622.927 -136100.342 373065.497 -136100.342 373065.993 -134850.289 375066.796 -134850.289 M 89733.093 -105350.281 87733.065 -105350.281 87733.065 -102100.2 182178.118 -102100.2 182178.118 -104100.228 89733.093 -104100.228 89733.093 -105350.281 M 186178.218 -172100.233 186178.218 -170100.355 276623.171 -170100.355 276623.171 -172100.233 186178.218 -172100.233 M 276623.171 -180600.231 186178.218 -180600.231 186178.218 -178600.353 276623.171 -178600.353 276623.171 -180600.231 M 182178.118 -195600.349 182178.118 -197600.227 89733.093 -197600.227 89733.093 -198850.173 87733.065 -198850.173 87733.065 -194350.361 89733.093 -194350.361 89733.093 -195600.349 182178.118 -195600.349 M 82733.068 -97100.203 82733.068 -245100.322 380066.771 -245100.322 380066.771 -97100.203 82733.068 -97100.203 M 375066.796 -215850.168 373067.543 -215850.168 373068.038 -214600.223 280622.927 -214600.223 280622.927 -212600.345 373065.497 -212600.345 373065.993 -211350.357 375066.796 -211350.357 375066.796 -215850.168 M 375066.796 -219850.269 375066.796 -224350.253 373067.543 -224350.253 373068.038 -223100.221 280622.927 -223100.221 280622.927 -221100.343 373065.497 -221100.343 373065.993 -219850.269 375066.796 -219850.269 M 375066.796 -228350.353 375066.796 -232850.164 373067.543 -232850.164 373068.038 -231600.219 280622.927 -231600.219 280622.927 -229600.341 373065.497 -229600.341 373065.993 -228350.353 375066.796 -228350.353 M 375066.796 -236850.265 375066.796 -240100.249 M 373065.993 -236850.265 375066.796 -236850.265 M 373065.497 -238100.339 373065.993 -236850.265 M 280622.927 -238100.339 373065.497 -238100.339 M 276623.171 -189100.229 186178.218 -189100.229 186178.218 -187100.351 276623.171 -187100.351 276623.171 -189100.229 M 373065.993 -177350.365 375066.796 -177350.365 375066.796 -181850.177 373067.543 -181850.177 373068.038 -180600.231 280622.927 -180600.231 280622.927 -178600.353 373065.497 -178600.353 373065.993 -177350.365 M 375066.796 -185850.277 375066.796 -190350.261 373067.543 -190350.261 373068.038 -189100.229 280622.927 -189100.229 280622.927 -187100.351 373065.497 -187100.351 373065.993 -185850.277 375066.796 -185850.277 M 87733.065 -190350.261 87733.065 -185850.277 89733.093 -185850.277 89733.093 -187100.351 182178.118 -187100.351 182178.118 -189100.229 89733.093 -189100.229 89733.093 -190350.261 87733.065 -190350.261 M 276623.171 -112600.226 186178.218 -112600.226 186178.218 -110600.348 276623.171 -110600.348 276623.171 -112600.226 M 182178.118 -129600.222 89733.093 -129600.222 89733.093 -130850.189 87733.065 -130850.189 87733.065 -126350.377 89733.093 -126350.377 89733.093 -127600.344 182178.118 -127600.344 182178.118 -129600.222 M 87733.065 -122350.277 87733.065 -117850.293 89733.093 -117850.293 89733.093 -119100.346 182178.118 -119100.346 182178.118 -121100.224 89733.093 -121100.224 89733.093 -122350.277 87733.065 -122350.277 M 87733.065 -113850.193 87733.065 -109350.381 89733.093 -109350.381 89733.093 -110600.348 182178.118 -110600.348 182178.118 -112600.226 89733.093 -112600.226 89733.093 -113850.193 87733.065 -113850.193 M 89733.093 -151850.285 89733.093 -153100.338 182178.118 -153100.338 182178.118 -155100.237 89733.093 -155100.237 89733.093 -156350.269 87733.065 -156350.269 87733.065 -151850.285 89733.093 -151850.285 M 87733.065 -147850.185 87733.065 -143350.373 89733.093 -143350.373 89733.093 -144600.34 182178.118 -144600.34 182178.118 -146600.218 89733.093 -146600.218 89733.093 -147850.185 87733.065 -147850.185 M 87733.065 -139350.273 87733.065 -134850.289 89733.093 -134850.289 89733.093 -136100.342 182178.118 -136100.342 182178.118 -138100.22 89733.093 -138100.22 89733.093 -139350.273 87733.065 -139350.273 M 87733.065 -181850.177 87733.065 -177350.365 89733.093 -177350.365 89733.093 -178600.353 182178.118 -178600.353 182178.118 -180600.231 89733.093 -180600.231 89733.093 -181850.177 87733.065 -181850.177 M 87733.065 -173350.265 87733.065 -168850.281 89733.093 -168850.281 89733.093 -170100.355 182178.118 -170100.355 182178.118 -172100.233 89733.093 -172100.233 89733.093 -173350.265 87733.065 -173350.265 M 375066.796 -102100.2 375066.796 -105350.281 373067.543 -105350.281 373068.038 -104100.228 280622.927 -104100.228 280622.927 -102100.2 375066.796 -102100.2 M 87733.065 -232850.164 87733.065 -228350.353 89733.093 -228350.353 89733.093 -229600.341 182178.118 -229600.341 182178.118 -231600.219 89733.093 -231600.219 89733.093 -232850.164 87733.065 -232850.164 M 87733.065 -224350.253 87733.065 -219850.269 89733.093 -219850.269 89733.093 -221100.343 182178.118 -221100.343 182178.118 -223100.221 89733.093 -223100.221 89733.093 -224350.253 87733.065 -224350.253 M 87733.065 -215850.168 87733.065 -211350.357 89733.093 -211350.357 89733.093 -212600.345 182178.118 -212600.345 182178.118 -214600.223 89733.093 -214600.223 89733.093 -215850.168 87733.065 -215850.168 M 87733.065 -207350.257 87733.065 -202850.273 89733.093 -202850.273 89733.093 -204100.347 182178.118 -204100.347 182178.118 -206100.225 89733.093 -206100.225 89733.093 -207350.257 87733.065 -207350.257 M 375066.796 -143350.373 375066.796 -147850.185 373067.543 -147850.185 373068.038 -146600.218 280622.927 -146600.218 280622.927 -144600.34 373065.497 -144600.34 373065.993 -143350.373 375066.796 -143350.373 M 375066.796 -151850.285 375066.796 -156350.269 373067.543 -156350.269 373068.038 -155100.237 280622.927 -155100.237 280622.927 -153100.338 373065.497 -153100.338 373065.993 -151850.285 375066.796 -151850.285 M 375066.796 -160350.369 375066.796 -164850.181 373067.543 -164850.181 373068.038 -163600.235 280622.927 -163600.235 280622.927 -161600.358 373065.497 -161600.358 373065.993 -160350.369 375066.796 -160350.369 M 375066.796 -168850.281 375066.796 -173350.265 373067.543 -173350.265 373068.038 -172100.233 280622.927 -172100.233 280622.927 -170100.355 373065.497 -170100.355 373065.993 -168850.281 375066.796 -168850.281 M 276623.171 -197600.227 186178.218 -197600.227 186178.218 -195600.349 276623.171 -195600.349 276623.171 -197600.227 M 276623.171 -206100.225 186178.218 -206100.225 186178.218 -204100.347 276623.171 -204100.347 276623.171 -206100.225 M 276623.171 -214600.223 186178.218 -214600.223 186178.218 -212600.345 276623.171 -212600.345 276623.171 -214600.223 M 276623.171 -223100.221 186178.218 -223100.221 186178.218 -221100.343 276623.171 -221100.343 276623.171 -223100.221 M 276623.171 -231600.219 186178.218 -231600.219 186178.218 -229600.341 276623.171 -229600.341 276623.171 -231600.219 M 186178.218 -238100.339 276623.171 -238100.339 M 186178.218 -146600.218 186178.218 -144600.34 276623.171 -144600.34 276623.171 -146600.218 186178.218 -146600.218 M 276623.171 -155100.237 186178.218 -155100.237 186178.218 -153100.338 276623.171 -153100.338 276623.171 -155100.237 M 276623.171 -163600.235 186178.218 -163600.235 186178.218 -161600.358 276623.171 -161600.358 276623.171 -163600.235 M 186178.218 -127600.344 276623.171 -127600.344 276623.171 -129600.222 186178.218 -129600.222 186178.218 -127600.344 M 276623.171 -138100.22 186178.218 -138100.22 186178.218 -136100.342 276623.171 -136100.342 276623.171 -138100.22 M 276623.171 -121100.224 186178.218 -121100.224 186178.218 -119100.346 276623.171 -119100.346 276623.171 -121100.224" fill="none" stroke-width="150"/></g></svg>