G04 #@! TF.GenerationSoftware,KiCad,Pcbnew,(5.1.0-0)*
G04 #@! TF.CreationDate,2019-04-18T11:47:57-07:00*
G04 #@! TF.ProjectId,Panel2,50616e65-6c32-42e6-9b69-6361645f7063,rev?*
G04 #@! TF.SameCoordinates,Original*
G04 #@! TF.FileFunction,Soldermask,Bot*
G04 #@! TF.FilePolarity,Negative*
%FSLAX46Y46*%
G04 Gerber Fmt 4.6, Leading zero omitted, Abs format (unit mm)*
G04 Created by KiCad (PCBNEW (5.1.0-0)) date 2019-04-18 11:47:57*
%MOMM*%
%LPD*%
G04 APERTURE LIST*
%ADD10C,0.900000*%
%ADD11O,3.702000X2.432000*%
%ADD12O,5.480000X1.924000*%
%ADD13O,2.432000X4.210000*%
%ADD14O,3.448000X1.924000*%
G04 APERTURE END LIST*
D10*
X39721201Y-248268822D03*
X39721201Y-247268822D03*
X39721201Y-249268822D03*
X39721201Y-250268822D03*
X24021201Y-240668822D03*
X24021201Y-239668822D03*
X24021201Y-241668822D03*
X24021201Y-242668822D03*
X32071201Y-233068822D03*
X32071201Y-232068822D03*
X32071201Y-234068822D03*
X32071201Y-235068822D03*
X32071201Y-225468822D03*
X32071201Y-224468822D03*
X32071201Y-226468822D03*
X32071201Y-227468822D03*
X40371201Y-217918822D03*
X40371201Y-216918822D03*
X40371201Y-218918822D03*
X40371201Y-219918822D03*
X40371201Y-210268822D03*
X40371201Y-209268822D03*
X40371201Y-211268822D03*
X40371201Y-212268822D03*
X40371201Y-202668822D03*
X40371201Y-201668822D03*
X40371201Y-203668822D03*
X40371201Y-204668822D03*
X65721201Y-195068822D03*
X65721201Y-194068822D03*
X65721201Y-196068822D03*
X65721201Y-197068822D03*
X65671201Y-187468822D03*
X65671201Y-186468822D03*
X65671201Y-188468822D03*
X65671201Y-189468822D03*
X59421201Y-179368822D03*
X59421201Y-178368822D03*
X59421201Y-180368822D03*
X59421201Y-181368822D03*
X45821201Y-157568822D03*
X45821201Y-156568822D03*
X45821201Y-158568822D03*
X45821201Y-159568822D03*
X34971201Y-135768822D03*
X34971201Y-134768822D03*
X34971201Y-136768822D03*
X34971201Y-137768822D03*
X51821201Y-113918822D03*
X51821201Y-112918822D03*
X51821201Y-114918822D03*
X51821201Y-115918822D03*
X38571201Y-92118822D03*
X38571201Y-91118822D03*
X38571201Y-93118822D03*
X38571201Y-94118822D03*
X55371201Y-70318822D03*
X55371201Y-69318822D03*
X55371201Y-71318822D03*
X55371201Y-72318822D03*
X38521201Y-48518822D03*
X38521201Y-47518822D03*
X38521201Y-49518822D03*
X38521201Y-50518822D03*
X60971201Y-33918822D03*
X60971201Y-32918822D03*
X60971201Y-34918822D03*
X60971201Y-35918822D03*
X176718822Y-24878799D03*
X175718822Y-24878799D03*
X177718822Y-24878799D03*
X178718822Y-24878799D03*
X292171201Y-33918822D03*
X292171201Y-32918822D03*
X292171201Y-34918822D03*
X292171201Y-35918822D03*
X314621201Y-48468822D03*
X314621201Y-47468822D03*
X314621201Y-49468822D03*
X314621201Y-50468822D03*
X331471201Y-70318822D03*
X331471201Y-69318822D03*
X331471201Y-71318822D03*
X331471201Y-72318822D03*
X314621201Y-92168822D03*
X314621201Y-91168822D03*
X314621201Y-93168822D03*
X314621201Y-94168822D03*
X346700000Y-115950000D03*
X346700000Y-114950000D03*
X346700000Y-112950000D03*
X346700000Y-113950000D03*
X329850000Y-137750000D03*
X329850000Y-136750000D03*
X329850000Y-134750000D03*
X329850000Y-135750000D03*
X353550000Y-159550000D03*
X353550000Y-158550000D03*
X353550000Y-156550000D03*
X353550000Y-157550000D03*
X339050000Y-181350000D03*
X339050000Y-180350000D03*
X339050000Y-178350000D03*
X339050000Y-179350000D03*
X288850000Y-189450000D03*
X288850000Y-188450000D03*
X288850000Y-186450000D03*
X288850000Y-187450000D03*
X288850000Y-197050000D03*
X288850000Y-196050000D03*
X288850000Y-194050000D03*
X288850000Y-195050000D03*
X313750000Y-204650000D03*
X313750000Y-203650000D03*
X313750000Y-201650000D03*
X313750000Y-202650000D03*
X313750000Y-212250000D03*
X313750000Y-211250000D03*
X313750000Y-209250000D03*
X313750000Y-210250000D03*
X313750000Y-219850000D03*
X313750000Y-218850000D03*
X313750000Y-216850000D03*
X313750000Y-217850000D03*
X322250000Y-227450000D03*
X322250000Y-226450000D03*
X322250000Y-224450000D03*
X322250000Y-225450000D03*
X322250000Y-233050000D03*
X322250000Y-232050000D03*
X322250000Y-234050000D03*
X322250000Y-235050000D03*
X315200000Y-250250000D03*
X315200000Y-249250000D03*
X315200000Y-247250000D03*
X315200000Y-248250000D03*
X330600000Y-240650000D03*
X330600000Y-239650000D03*
X330600000Y-241650000D03*
X330600000Y-242650000D03*
X275700000Y-167550000D03*
X276700000Y-167550000D03*
X278700000Y-167550000D03*
X277700000Y-167550000D03*
X277700000Y-170350000D03*
X278700000Y-170350000D03*
X276700000Y-170350000D03*
X275700000Y-170350000D03*
X75700000Y-167550000D03*
X76700000Y-167550000D03*
X78700000Y-167550000D03*
X77700000Y-167550000D03*
X77700000Y-170350000D03*
X78700000Y-170350000D03*
X76700000Y-170350000D03*
X75700000Y-170350000D03*
X177700000Y-170350000D03*
X178700000Y-170350000D03*
X176700000Y-170350000D03*
X175700000Y-170350000D03*
X175700000Y-167550000D03*
X176700000Y-167550000D03*
X178700000Y-167550000D03*
X177700000Y-167550000D03*
X275700000Y-145750000D03*
X276700000Y-145750000D03*
X278700000Y-145750000D03*
X277700000Y-145750000D03*
X277700000Y-148550000D03*
X278700000Y-148550000D03*
X276700000Y-148550000D03*
X275700000Y-148550000D03*
X75700000Y-145750000D03*
X76700000Y-145750000D03*
X78700000Y-145750000D03*
X77700000Y-145750000D03*
X77700000Y-148550000D03*
X78700000Y-148550000D03*
X76700000Y-148550000D03*
X75700000Y-148550000D03*
X177700000Y-148550000D03*
X178700000Y-148550000D03*
X176700000Y-148550000D03*
X175700000Y-148550000D03*
X175700000Y-145750000D03*
X176700000Y-145750000D03*
X178700000Y-145750000D03*
X177700000Y-145750000D03*
X275700000Y-123900000D03*
X276700000Y-123900000D03*
X278700000Y-123900000D03*
X277700000Y-123900000D03*
X277700000Y-126700000D03*
X278700000Y-126700000D03*
X276700000Y-126700000D03*
X275700000Y-126700000D03*
X75700000Y-123900000D03*
X76700000Y-123900000D03*
X78700000Y-123900000D03*
X77700000Y-123900000D03*
X77700000Y-126700000D03*
X78700000Y-126700000D03*
X76700000Y-126700000D03*
X75700000Y-126700000D03*
X177700000Y-126700000D03*
X178700000Y-126700000D03*
X176700000Y-126700000D03*
X175700000Y-126700000D03*
X175700000Y-123900000D03*
X176700000Y-123900000D03*
X178700000Y-123900000D03*
X177700000Y-123900000D03*
X275750000Y-102150000D03*
X276750000Y-102150000D03*
X278750000Y-102150000D03*
X277750000Y-102150000D03*
X277750000Y-104950000D03*
X278750000Y-104950000D03*
X276750000Y-104950000D03*
X275750000Y-104950000D03*
X75750000Y-102150000D03*
X76750000Y-102150000D03*
X78750000Y-102150000D03*
X77750000Y-102150000D03*
X77750000Y-104950000D03*
X78750000Y-104950000D03*
X76750000Y-104950000D03*
X75750000Y-104950000D03*
X177750000Y-104950000D03*
X178750000Y-104950000D03*
X176750000Y-104950000D03*
X175750000Y-104950000D03*
X175750000Y-102150000D03*
X176750000Y-102150000D03*
X178750000Y-102150000D03*
X177750000Y-102150000D03*
X275750000Y-80350000D03*
X276750000Y-80350000D03*
X278750000Y-80350000D03*
X277750000Y-80350000D03*
X277750000Y-83150000D03*
X278750000Y-83150000D03*
X276750000Y-83150000D03*
X275750000Y-83150000D03*
X75750000Y-80350000D03*
X76750000Y-80350000D03*
X78750000Y-80350000D03*
X77750000Y-80350000D03*
X77750000Y-83150000D03*
X78750000Y-83150000D03*
X76750000Y-83150000D03*
X75750000Y-83150000D03*
X177750000Y-83150000D03*
X178750000Y-83150000D03*
X176750000Y-83150000D03*
X175750000Y-83150000D03*
X175750000Y-80350000D03*
X176750000Y-80350000D03*
X178750000Y-80350000D03*
X177750000Y-80350000D03*
X177700000Y-251800000D03*
X178700000Y-251800000D03*
X176700000Y-251800000D03*
X175700000Y-251800000D03*
X175700000Y-253400000D03*
X176700000Y-253400000D03*
X178700000Y-253400000D03*
X177700000Y-253400000D03*
X275700000Y-253400000D03*
X276700000Y-253400000D03*
X278700000Y-253400000D03*
X277700000Y-253400000D03*
X277700000Y-251800000D03*
X278700000Y-251800000D03*
X276700000Y-251800000D03*
X275700000Y-251800000D03*
X77700000Y-251800000D03*
X78700000Y-251800000D03*
X76700000Y-251800000D03*
X75700000Y-251800000D03*
X75700000Y-253400000D03*
X76700000Y-253400000D03*
X78700000Y-253400000D03*
X77700000Y-253400000D03*
X177700000Y-244200000D03*
X178700000Y-244200000D03*
X176700000Y-244200000D03*
X175700000Y-244200000D03*
X175700000Y-245800000D03*
X176700000Y-245800000D03*
X178700000Y-245800000D03*
X177700000Y-245800000D03*
X275700000Y-245800000D03*
X276700000Y-245800000D03*
X278700000Y-245800000D03*
X277700000Y-245800000D03*
X277700000Y-244200000D03*
X278700000Y-244200000D03*
X276700000Y-244200000D03*
X275700000Y-244200000D03*
X77700000Y-244200000D03*
X78700000Y-244200000D03*
X76700000Y-244200000D03*
X75700000Y-244200000D03*
X75700000Y-245800000D03*
X76700000Y-245800000D03*
X78700000Y-245800000D03*
X77700000Y-245800000D03*
X177700000Y-236600000D03*
X178700000Y-236600000D03*
X176700000Y-236600000D03*
X175700000Y-236600000D03*
X175700000Y-238200000D03*
X176700000Y-238200000D03*
X178700000Y-238200000D03*
X177700000Y-238200000D03*
X275700000Y-238200000D03*
X276700000Y-238200000D03*
X278700000Y-238200000D03*
X277700000Y-238200000D03*
X277700000Y-236600000D03*
X278700000Y-236600000D03*
X276700000Y-236600000D03*
X275700000Y-236600000D03*
X77700000Y-236600000D03*
X78700000Y-236600000D03*
X76700000Y-236600000D03*
X75700000Y-236600000D03*
X75700000Y-238200000D03*
X76700000Y-238200000D03*
X78700000Y-238200000D03*
X77700000Y-238200000D03*
X177700000Y-228900000D03*
X178700000Y-228900000D03*
X176700000Y-228900000D03*
X175700000Y-228900000D03*
X175700000Y-230500000D03*
X176700000Y-230500000D03*
X178700000Y-230500000D03*
X177700000Y-230500000D03*
X275700000Y-230500000D03*
X276700000Y-230500000D03*
X278700000Y-230500000D03*
X277700000Y-230500000D03*
X277700000Y-228900000D03*
X278700000Y-228900000D03*
X276700000Y-228900000D03*
X275700000Y-228900000D03*
X77700000Y-228900000D03*
X78700000Y-228900000D03*
X76700000Y-228900000D03*
X75700000Y-228900000D03*
X75700000Y-230500000D03*
X76700000Y-230500000D03*
X78700000Y-230500000D03*
X77700000Y-230500000D03*
X177700000Y-221400000D03*
X178700000Y-221400000D03*
X176700000Y-221400000D03*
X175700000Y-221400000D03*
X175700000Y-223000000D03*
X176700000Y-223000000D03*
X178700000Y-223000000D03*
X177700000Y-223000000D03*
X275700000Y-223000000D03*
X276700000Y-223000000D03*
X278700000Y-223000000D03*
X277700000Y-223000000D03*
X277700000Y-221400000D03*
X278700000Y-221400000D03*
X276700000Y-221400000D03*
X275700000Y-221400000D03*
X77700000Y-221400000D03*
X78700000Y-221400000D03*
X76700000Y-221400000D03*
X75700000Y-221400000D03*
X75700000Y-223000000D03*
X76700000Y-223000000D03*
X78700000Y-223000000D03*
X77700000Y-223000000D03*
X177700000Y-213800000D03*
X178700000Y-213800000D03*
X176700000Y-213800000D03*
X175700000Y-213800000D03*
X175700000Y-215400000D03*
X176700000Y-215400000D03*
X178700000Y-215400000D03*
X177700000Y-215400000D03*
X275700000Y-215400000D03*
X276700000Y-215400000D03*
X278700000Y-215400000D03*
X277700000Y-215400000D03*
X277700000Y-213800000D03*
X278700000Y-213800000D03*
X276700000Y-213800000D03*
X275700000Y-213800000D03*
X77700000Y-213800000D03*
X78700000Y-213800000D03*
X76700000Y-213800000D03*
X75700000Y-213800000D03*
X75700000Y-215400000D03*
X76700000Y-215400000D03*
X78700000Y-215400000D03*
X77700000Y-215400000D03*
X177700000Y-206200000D03*
X178700000Y-206200000D03*
X176700000Y-206200000D03*
X175700000Y-206200000D03*
X175700000Y-207800000D03*
X176700000Y-207800000D03*
X178700000Y-207800000D03*
X177700000Y-207800000D03*
X275700000Y-207800000D03*
X276700000Y-207800000D03*
X278700000Y-207800000D03*
X277700000Y-207800000D03*
X277700000Y-206200000D03*
X278700000Y-206200000D03*
X276700000Y-206200000D03*
X275700000Y-206200000D03*
X77700000Y-206200000D03*
X78700000Y-206200000D03*
X76700000Y-206200000D03*
X75700000Y-206200000D03*
X75700000Y-207800000D03*
X76700000Y-207800000D03*
X78700000Y-207800000D03*
X77700000Y-207800000D03*
X177700000Y-198500000D03*
X178700000Y-198500000D03*
X176700000Y-198500000D03*
X175700000Y-198500000D03*
X175700000Y-200100000D03*
X176700000Y-200100000D03*
X178700000Y-200100000D03*
X177700000Y-200100000D03*
X275700000Y-200100000D03*
X276700000Y-200100000D03*
X278700000Y-200100000D03*
X277700000Y-200100000D03*
X277700000Y-198500000D03*
X278700000Y-198500000D03*
X276700000Y-198500000D03*
X275700000Y-198500000D03*
X77700000Y-198500000D03*
X78700000Y-198500000D03*
X76700000Y-198500000D03*
X75700000Y-198500000D03*
X75700000Y-200100000D03*
X76700000Y-200100000D03*
X78700000Y-200100000D03*
X77700000Y-200100000D03*
X177700000Y-191000000D03*
X178700000Y-191000000D03*
X176700000Y-191000000D03*
X175700000Y-191000000D03*
X175700000Y-192600000D03*
X176700000Y-192600000D03*
X178700000Y-192600000D03*
X177700000Y-192600000D03*
X275700000Y-192600000D03*
X276700000Y-192600000D03*
X278700000Y-192600000D03*
X277700000Y-192600000D03*
X277700000Y-191000000D03*
X278700000Y-191000000D03*
X276700000Y-191000000D03*
X275700000Y-191000000D03*
X77700000Y-191000000D03*
X78700000Y-191000000D03*
X76700000Y-191000000D03*
X75700000Y-191000000D03*
X75700000Y-192600000D03*
X76700000Y-192600000D03*
X78700000Y-192600000D03*
X77700000Y-192600000D03*
X177700000Y-183400000D03*
X178700000Y-183400000D03*
X176700000Y-183400000D03*
X175700000Y-183400000D03*
X175700000Y-185000000D03*
X176700000Y-185000000D03*
X178700000Y-185000000D03*
X177700000Y-185000000D03*
X275700000Y-185000000D03*
X276700000Y-185000000D03*
X278700000Y-185000000D03*
X277700000Y-185000000D03*
X277700000Y-183400000D03*
X278700000Y-183400000D03*
X276700000Y-183400000D03*
X275700000Y-183400000D03*
X77700000Y-183400000D03*
X78700000Y-183400000D03*
X76700000Y-183400000D03*
X75700000Y-183400000D03*
X75700000Y-185000000D03*
X76700000Y-185000000D03*
X78700000Y-185000000D03*
X77700000Y-185000000D03*
X177700000Y-58500000D03*
X178700000Y-58500000D03*
X176700000Y-58500000D03*
X175700000Y-58500000D03*
X175700000Y-61300000D03*
X176700000Y-61300000D03*
X178700000Y-61300000D03*
X177700000Y-61300000D03*
X275700000Y-61300000D03*
X276700000Y-61300000D03*
X278700000Y-61300000D03*
X277700000Y-61300000D03*
X277700000Y-58500000D03*
X278700000Y-58500000D03*
X276700000Y-58500000D03*
X275700000Y-58500000D03*
X77700000Y-58500000D03*
X78700000Y-58500000D03*
X76700000Y-58500000D03*
X75700000Y-58500000D03*
X75700000Y-61300000D03*
X76700000Y-61300000D03*
X78700000Y-61300000D03*
X77700000Y-61300000D03*
X75700000Y-37900000D03*
X76700000Y-37900000D03*
X78700000Y-37900000D03*
X77700000Y-37900000D03*
X77700000Y-39500000D03*
X78700000Y-39500000D03*
X76700000Y-39500000D03*
X75700000Y-39500000D03*
X175700000Y-37900000D03*
X176700000Y-37900000D03*
X178700000Y-37900000D03*
X177700000Y-37900000D03*
X177700000Y-39500000D03*
X178700000Y-39500000D03*
X176700000Y-39500000D03*
X175700000Y-39500000D03*
X275700000Y-37900000D03*
X276700000Y-37900000D03*
X278700000Y-37900000D03*
X277700000Y-37900000D03*
X277700000Y-39500000D03*
X278700000Y-39500000D03*
X276700000Y-39500000D03*
X275700000Y-39500000D03*
X285500000Y-23700000D03*
X286500000Y-23700000D03*
X284500000Y-23700000D03*
X283500000Y-23700000D03*
X67000000Y-23700000D03*
X68000000Y-23700000D03*
X70000000Y-23700000D03*
X69000000Y-23700000D03*
D11*
X73868000Y-35997000D03*
X79456000Y-28123000D03*
X77678000Y-35997000D03*
X77678000Y-33457000D03*
X77678000Y-30917000D03*
X276178000Y-36037000D03*
X276178000Y-33497000D03*
X276178000Y-30957000D03*
X60152000Y-155518000D03*
X60152000Y-158058000D03*
X60152000Y-160598000D03*
X61930000Y-152724000D03*
X61930000Y-163392000D03*
X339252000Y-155552000D03*
X339252000Y-158092000D03*
X339252000Y-160632000D03*
D12*
X45090540Y-246737780D03*
X45090540Y-248769780D03*
X45090540Y-250801780D03*
X308994000Y-246593000D03*
X308994000Y-248625000D03*
X308994000Y-250657000D03*
X32413000Y-243192000D03*
X32413000Y-241160000D03*
X32413000Y-239128000D03*
X322481000Y-243192000D03*
X322481000Y-241160000D03*
X322481000Y-239128000D03*
X310982140Y-231540880D03*
X310982140Y-233572880D03*
X310982140Y-235604880D03*
X42808920Y-231556520D03*
X42808920Y-233588520D03*
X42808920Y-235620520D03*
X310982140Y-223939880D03*
X310982140Y-225971880D03*
X310982140Y-228003880D03*
X42808920Y-223955520D03*
X42808920Y-225987520D03*
X42808920Y-228019520D03*
X51565920Y-216379120D03*
X51565920Y-218411120D03*
X51565920Y-220443120D03*
X304818060Y-216310540D03*
X304818060Y-218342540D03*
X304818060Y-220374540D03*
X51565920Y-208779120D03*
X51565920Y-210811120D03*
X51565920Y-212843120D03*
X304818060Y-208710540D03*
X304818060Y-210742540D03*
X304818060Y-212774540D03*
X51565920Y-201179120D03*
X51565920Y-203211120D03*
X51565920Y-205243120D03*
X304818060Y-201110540D03*
X304818060Y-203142540D03*
X304818060Y-205174540D03*
X74635000Y-193508400D03*
X74635000Y-195540400D03*
X74635000Y-197572400D03*
X280781400Y-193536400D03*
X280781400Y-195568400D03*
X280781400Y-197600400D03*
X74635000Y-185909400D03*
X74635000Y-187941400D03*
X74635000Y-189973400D03*
X280781400Y-185937400D03*
X280781400Y-187969400D03*
X280781400Y-190001400D03*
D11*
X50398000Y-133390000D03*
X50398000Y-135930000D03*
X50398000Y-138470000D03*
X52176000Y-130596000D03*
X52176000Y-141264000D03*
X314398000Y-133690000D03*
X314398000Y-136230000D03*
X314398000Y-138770000D03*
X67245000Y-111578000D03*
X67245000Y-114118000D03*
X67245000Y-116658000D03*
X69023000Y-108784000D03*
X69023000Y-119452000D03*
X331245000Y-111878000D03*
X331245000Y-114418000D03*
X331245000Y-116958000D03*
X53613000Y-46384000D03*
X53613000Y-48924000D03*
X53613000Y-51464000D03*
X55391000Y-43590000D03*
X55391000Y-54258000D03*
X299913000Y-46324000D03*
X299913000Y-48864000D03*
X299913000Y-51404000D03*
X299913000Y-95073000D03*
X299913000Y-92533000D03*
X299913000Y-89993000D03*
X55391000Y-97927000D03*
X55391000Y-87259000D03*
X53613000Y-95133000D03*
X53613000Y-92593000D03*
X53613000Y-90053000D03*
X316760000Y-73217000D03*
X316760000Y-70677000D03*
X316760000Y-68137000D03*
X72238000Y-76071000D03*
X72238000Y-65403000D03*
X70460000Y-73277000D03*
X70460000Y-70737000D03*
X70460000Y-68197000D03*
D13*
X322292189Y-173777543D03*
X319752189Y-173777543D03*
X317212189Y-173777543D03*
X75612189Y-173577543D03*
X78152189Y-173577543D03*
X80692189Y-173577543D03*
D14*
X67262189Y-181659543D03*
X67262189Y-179627543D03*
M02*
