<?xml version="1.0" standalone="no"?>
 <!DOCTYPE svg PUBLIC "-//W3C//DTD SVG 1.1//EN" 
 "http://www.w3.org/Graphics/SVG/1.1/DTD/svg11.dtd"> 
<svg xmlns="http://www.w3.org/2000/svg" version="1.1" 
    width="84.0994cm" height="59.4004cm" viewBox="0 0 331100 233860 ">
<title>SVG Picture created as Panel2-B_SilkS.svg date 2019/04/18 11:54:36 </title>
  <desc>Picture generated by PCBNEW </desc>
<g style="fill:#000000; fill-opacity:1;stroke:#000000; stroke-opacity:1;
stroke-linecap:round; stroke-linejoin:round; "
 transform="translate(0 0) scale(1 1)">
</g>
<g style="fill:#000000; fill-opacity:0.0; 
stroke:#000000; stroke-width:-0.000393701; stroke-opacity:1; 
stroke-linecap:round; stroke-linejoin:round;">
</g>
<g style="fill:#000000; fill-opacity:0.0; 
stroke:#000000; stroke-width:118.11; stroke-opacity:1; 
stroke-linecap:round; stroke-linejoin:round;">
<path d="M114576 11188
L114014 11188
" />
<path d="M114688 11526
L114295 10345
L113901 11526
" />
<path d="M25030 11238
L24467 11238
" />
<path d="M25142 11576
L24749 10395
L24355 11576
" />
<path d="M19036 59523
L18643 59523
" />
<path d="M18474 60142
L19036 60142
L19036 58961
L18474 58961
" />
<path d="M138583 59553
L138189 59553
" />
<path d="M138020 60172
L138583 60172
L138583 58991
L138020 58991
" />
</g>
<g style="fill:#000000; fill-opacity:0.0; 
stroke:#000000; stroke-width:78.7402; stroke-opacity:1; 
stroke-linecap:round; stroke-linejoin:round;">
<path d="M117151 97683
L117151 98183
" />
<path d="M117101 98733
L117601 98733
" />
<path d="M117601 97933
L117151 98183
" />
<path d="M117151 97683
L117601 97933
" />
<path d="M117351 96983
L117351 97483
" />
<path d="M117101 97233
L117601 97233
" />
<path d="M70701 97733
L71151 97983
" />
<path d="M71151 97983
L70701 98233
" />
<path d="M70651 97283
L71151 97283
" />
<path d="M70901 97033
L70901 97533
" />
<path d="M70651 98783
L71151 98783
" />
<path d="M70701 97733
L70701 98233
" />
<path d="M24951 97633
L25401 97883
" />
<path d="M25401 97883
L24951 98133
" />
<path d="M24901 97183
L25401 97183
" />
<path d="M25151 96933
L25151 97433
" />
<path d="M24901 98683
L25401 98683
" />
<path d="M24951 97633
L24951 98133
" />
</g>
<g style="fill:#000000; fill-opacity:0.0; 
stroke:#000000; stroke-width:118.11; stroke-opacity:1; 
stroke-linecap:round; stroke-linejoin:round;">
<path d="M15982 97899
L16376 97899
" />
<path d="M16376 98518
L16376 97337
L15813 97337
" />
<path d="M123182 97899
L123576 97899
" />
<path d="M123576 98518
L123576 97337
L123013 97337
" />
</g>
<g style="fill:#000000; fill-opacity:0.0; 
stroke:#000000; stroke-width:78.7402; stroke-opacity:1; 
stroke-linecap:round; stroke-linejoin:round;">
<path d="M14111 94744
L14561 94994
" />
<path d="M14561 94994
L14111 95244
" />
<path d="M14061 94144
L14561 94144
" />
<path d="M14311 93894
L14311 94394
" />
<path d="M14061 95794
L14561 95794
" />
<path d="M14111 94744
L14111 95244
" />
<path d="M120061 94644
L120511 94894
" />
<path d="M120511 94894
L120061 95144
" />
<path d="M120011 94194
L120511 94194
" />
<path d="M120261 93944
L120261 94444
" />
<path d="M120011 95694
L120511 95694
" />
<path d="M120061 94644
L120061 95144
" />
<path d="M35161 94944
L34711 95194
" />
<path d="M34661 94244
L35161 94244
" />
<path d="M34911 93994
L34911 94494
" />
<path d="M34661 95744
L35161 95744
" />
<path d="M34711 94694
L34711 95194
" />
<path d="M34711 94694
L35161 94944
" />
</g>
<g style="fill:#000000; fill-opacity:0.0; 
stroke:#000000; stroke-width:118.11; stroke-opacity:1; 
stroke-linecap:round; stroke-linejoin:round;">
<path d="M10864 94910
L10470 94910
" />
<path d="M10301 95529
L10864 95529
L10864 94348
L10301 94348
" />
<path d="M129264 94910
L128870 94910
" />
<path d="M128701 95529
L129264 95529
L129264 94348
L128701 94348
" />
</g>
<g style="fill:#000000; fill-opacity:0.0; 
stroke:#000000; stroke-width:78.7402; stroke-opacity:1; 
stroke-linecap:round; stroke-linejoin:round;">
<path d="M120692 91685
L121142 91935
" />
<path d="M121142 91935
L120692 92185
" />
<path d="M120642 91085
L121142 91085
" />
<path d="M120692 91685
L120692 92185
" />
<path d="M120892 90835
L120892 91335
" />
<path d="M18055 91675
L18505 91925
" />
<path d="M18505 91925
L18055 92175
" />
<path d="M18005 91075
L18505 91075
" />
<path d="M18005 92725
L18505 92725
" />
<path d="M18055 91675
L18055 92175
" />
<path d="M18255 90825
L18255 91325
" />
<path d="M120682 92778
L121182 92778
" />
</g>
<g style="fill:#000000; fill-opacity:0.0; 
stroke:#000000; stroke-width:118.11; stroke-opacity:1; 
stroke-linecap:round; stroke-linejoin:round;">
<path d="M126001 92570
L126001 91389
L125720 91389
L125551 91445
L125439 91557
L125382 91670
L125326 91895
L125326 92063
L125382 92288
L125439 92401
L125551 92513
L125720 92570
L126001 92570
" />
<path d="M14101 92520
L14101 91339
L13820 91339
L13651 91395
L13539 91507
L13482 91620
L13426 91845
L13426 92013
L13482 92238
L13539 92351
L13651 92463
L13820 92520
L14101 92520
" />
</g>
<g style="fill:#000000; fill-opacity:0.0; 
stroke:#000000; stroke-width:78.7402; stroke-opacity:1; 
stroke-linecap:round; stroke-linejoin:round;">
<path d="M120692 88693
L121142 88943
" />
<path d="M121142 88943
L120692 89193
" />
<path d="M120642 88093
L121142 88093
" />
<path d="M120692 88693
L120692 89193
" />
<path d="M120892 87843
L120892 88343
" />
<path d="M18055 88683
L18505 88933
" />
<path d="M18505 88933
L18055 89183
" />
<path d="M18005 88083
L18505 88083
" />
<path d="M18005 89733
L18505 89733
" />
<path d="M18055 88683
L18055 89183
" />
<path d="M18255 87833
L18255 88333
" />
<path d="M120682 89786
L121182 89786
" />
</g>
<g style="fill:#000000; fill-opacity:0.0; 
stroke:#000000; stroke-width:118.11; stroke-opacity:1; 
stroke-linecap:round; stroke-linejoin:round;">
<path d="M126001 89577
L126001 88396
L125720 88396
L125551 88452
L125439 88565
L125382 88677
L125326 88902
L125326 89071
L125382 89296
L125439 89408
L125551 89521
L125720 89577
L126001 89577
" />
<path d="M14101 89527
L14101 88346
L13820 88346
L13651 88402
L13539 88515
L13482 88627
L13426 88852
L13426 89021
L13482 89246
L13539 89358
L13651 89471
L13820 89527
L14101 89527
" />
</g>
<g style="fill:#000000; fill-opacity:0.0; 
stroke:#000000; stroke-width:78.7402; stroke-opacity:1; 
stroke-linecap:round; stroke-linejoin:round;">
<path d="M118218 85710
L118668 85960
" />
<path d="M118668 85960
L118218 86210
" />
<path d="M118168 85110
L118668 85110
" />
<path d="M118168 86760
L118668 86760
" />
<path d="M118218 85710
L118218 86210
" />
<path d="M118418 84860
L118418 85360
" />
<path d="M21703 85710
L22153 85960
" />
<path d="M22153 85960
L21703 86210
" />
<path d="M21653 85110
L22153 85110
" />
<path d="M21653 86760
L22153 86760
" />
<path d="M21703 85710
L21703 86210
" />
<path d="M21903 84860
L21903 85360
" />
</g>
<g style="fill:#000000; fill-opacity:0.0; 
stroke:#000000; stroke-width:118.11; stroke-opacity:1; 
stroke-linecap:round; stroke-linejoin:round;">
<path d="M122574 85925
L122405 85981
L122349 86037
L122293 86150
L122293 86319
L122349 86431
L122405 86487
L122518 86544
L122967 86544
L122967 85363
L122574 85363
L122461 85419
L122405 85475
L122349 85588
L122349 85700
L122405 85812
L122461 85869
L122574 85925
L122967 85925
" />
<path d="M121111 86431
L121168 86487
L121336 86544
L121449 86544
L121618 86487
L121730 86375
L121786 86262
L121843 86037
L121843 85869
L121786 85644
L121730 85531
L121618 85419
L121449 85363
L121336 85363
L121168 85419
L121111 85475
" />
<path d="M17528 85925
L17359 85981
L17303 86037
L17247 86150
L17247 86319
L17303 86431
L17359 86487
L17472 86544
L17922 86544
L17922 85363
L17528 85363
L17416 85419
L17359 85475
L17303 85588
L17303 85700
L17359 85812
L17416 85869
L17528 85925
L17922 85925
" />
<path d="M16066 86431
L16122 86487
L16291 86544
L16403 86544
L16572 86487
L16684 86375
L16741 86262
L16797 86037
L16797 85869
L16741 85644
L16684 85531
L16572 85419
L16403 85363
L16291 85363
L16122 85419
L16066 85475
" />
</g>
<g style="fill:#000000; fill-opacity:0.0; 
stroke:#000000; stroke-width:78.7402; stroke-opacity:1; 
stroke-linecap:round; stroke-linejoin:round;">
<path d="M118218 82718
L118668 82968
" />
<path d="M118668 82968
L118218 83218
" />
<path d="M118168 82118
L118668 82118
" />
<path d="M118168 83768
L118668 83768
" />
<path d="M118218 82718
L118218 83218
" />
<path d="M118418 81868
L118418 82368
" />
<path d="M21703 82718
L22153 82968
" />
<path d="M22153 82968
L21703 83218
" />
<path d="M21653 82118
L22153 82118
" />
<path d="M21653 83768
L22153 83768
" />
<path d="M21703 82718
L21703 83218
" />
<path d="M21903 81868
L21903 82368
" />
</g>
<g style="fill:#000000; fill-opacity:0.0; 
stroke:#000000; stroke-width:118.11; stroke-opacity:1; 
stroke-linecap:round; stroke-linejoin:round;">
<path d="M122574 82933
L122405 82989
L122349 83045
L122293 83158
L122293 83327
L122349 83439
L122405 83495
L122518 83552
L122967 83552
L122967 82370
L122574 82370
L122461 82427
L122405 82483
L122349 82595
L122349 82708
L122405 82820
L122461 82877
L122574 82933
L122967 82933
" />
<path d="M121111 83439
L121168 83495
L121336 83552
L121449 83552
L121618 83495
L121730 83383
L121786 83270
L121843 83045
L121843 82877
L121786 82652
L121730 82539
L121618 82427
L121449 82370
L121336 82370
L121168 82427
L121111 82483
" />
<path d="M17528 82933
L17359 82989
L17303 83045
L17247 83158
L17247 83327
L17303 83439
L17359 83495
L17472 83552
L17922 83552
L17922 82370
L17528 82370
L17416 82427
L17359 82483
L17303 82595
L17303 82708
L17359 82820
L17416 82877
L17528 82933
L17922 82933
" />
<path d="M16066 83439
L16122 83495
L16291 83552
L16403 83552
L16572 83495
L16684 83383
L16741 83270
L16797 83045
L16797 82877
L16741 82652
L16684 82539
L16572 82427
L16403 82370
L16291 82370
L16122 82427
L16066 82483
" />
</g>
<g style="fill:#000000; fill-opacity:0.0; 
stroke:#000000; stroke-width:78.7402; stroke-opacity:1; 
stroke-linecap:round; stroke-linejoin:round;">
<path d="M118218 79726
L118668 79976
" />
<path d="M118668 79976
L118218 80226
" />
<path d="M118168 79126
L118668 79126
" />
<path d="M118168 80776
L118668 80776
" />
<path d="M118218 79726
L118218 80226
" />
<path d="M118418 78876
L118418 79376
" />
<path d="M21703 79726
L22153 79976
" />
<path d="M22153 79976
L21703 80226
" />
<path d="M21653 79126
L22153 79126
" />
<path d="M21653 80776
L22153 80776
" />
<path d="M21703 79726
L21703 80226
" />
<path d="M21903 78876
L21903 79376
" />
</g>
<g style="fill:#000000; fill-opacity:0.0; 
stroke:#000000; stroke-width:118.11; stroke-opacity:1; 
stroke-linecap:round; stroke-linejoin:round;">
<path d="M122574 79941
L122405 79997
L122349 80053
L122293 80166
L122293 80334
L122349 80447
L122405 80503
L122518 80559
L122967 80559
L122967 79378
L122574 79378
L122461 79435
L122405 79491
L122349 79603
L122349 79716
L122405 79828
L122461 79884
L122574 79941
L122967 79941
" />
<path d="M121111 80447
L121168 80503
L121336 80559
L121449 80559
L121618 80503
L121730 80391
L121786 80278
L121843 80053
L121843 79884
L121786 79660
L121730 79547
L121618 79435
L121449 79378
L121336 79378
L121168 79435
L121111 79491
" />
<path d="M17528 79941
L17359 79997
L17303 80053
L17247 80166
L17247 80334
L17303 80447
L17359 80503
L17472 80559
L17922 80559
L17922 79378
L17528 79378
L17416 79435
L17359 79491
L17303 79603
L17303 79716
L17359 79828
L17416 79884
L17528 79941
L17922 79941
" />
<path d="M16066 80447
L16122 80503
L16291 80559
L16403 80559
L16572 80503
L16684 80391
L16741 80278
L16797 80053
L16797 79884
L16741 79660
L16684 79547
L16572 79435
L16403 79378
L16291 79378
L16122 79435
L16066 79491
" />
</g>
<g style="fill:#000000; fill-opacity:0.0; 
stroke:#000000; stroke-width:78.7402; stroke-opacity:1; 
stroke-linecap:round; stroke-linejoin:round;">
<path d="M103283 76735
L103733 76985
" />
<path d="M103733 76985
L103283 77235
" />
<path d="M103233 76135
L103733 76135
" />
<path d="M103233 77785
L103733 77785
" />
<path d="M103283 76735
L103283 77235
" />
<path d="M103483 75885
L103483 76385
" />
<path d="M30683 76735
L31133 76985
" />
<path d="M31133 76985
L30683 77235
" />
<path d="M30633 76135
L31133 76135
" />
<path d="M30633 77785
L31133 77785
" />
<path d="M30683 76735
L30683 77235
" />
<path d="M30883 75885
L30883 76385
" />
</g>
<g style="fill:#000000; fill-opacity:0.0; 
stroke:#000000; stroke-width:118.11; stroke-opacity:1; 
stroke-linecap:round; stroke-linejoin:round;">
<path d="M27265 77232
L26702 77232
" />
<path d="M27377 77569
L26983 76388
L26590 77569
" />
<path d="M112815 77232
L112252 77232
" />
<path d="M112927 77569
L112533 76388
L112140 77569
" />
</g>
<g style="fill:#000000; fill-opacity:0.0; 
stroke:#000000; stroke-width:78.7402; stroke-opacity:1; 
stroke-linecap:round; stroke-linejoin:round;">
<path d="M103283 73743
L103733 73993
" />
<path d="M103733 73993
L103283 74243
" />
<path d="M103233 73143
L103733 73143
" />
<path d="M103233 74793
L103733 74793
" />
<path d="M103283 73743
L103283 74243
" />
<path d="M103483 72893
L103483 73393
" />
<path d="M30683 73743
L31133 73993
" />
<path d="M31133 73993
L30683 74243
" />
<path d="M30633 73143
L31133 73143
" />
<path d="M30633 74793
L31133 74793
" />
<path d="M30683 73743
L30683 74243
" />
<path d="M30883 72893
L30883 73393
" />
</g>
<g style="fill:#000000; fill-opacity:0.0; 
stroke:#000000; stroke-width:118.11; stroke-opacity:1; 
stroke-linecap:round; stroke-linejoin:round;">
<path d="M27265 74240
L26702 74240
" />
<path d="M27377 74578
L26983 73396
L26590 74578
" />
<path d="M112815 74240
L112252 74240
" />
<path d="M112927 74578
L112533 73396
L112140 74578
" />
<path d="M24078 68128
L24472 68128
" />
<path d="M24472 68747
L24472 67566
L23910 67566
" />
<path d="M129353 51542
L129353 50361
L129072 50361
L128903 50417
L128791 50529
L128734 50642
L128678 50867
L128678 51035
L128734 51260
L128791 51373
L128903 51485
L129072 51542
L129353 51542
" />
<path d="M14817 51660
L14817 50479
L14536 50479
L14368 50535
L14255 50647
L14199 50760
L14143 50985
L14143 51154
L14199 51379
L14255 51491
L14368 51604
L14536 51660
L14817 51660
" />
<path d="M135986 42954
L135986 41773
L135704 41773
L135536 41829
L135423 41942
L135367 42054
L135311 42279
L135311 42448
L135367 42673
L135423 42786
L135536 42898
L135704 42954
L135986 42954
" />
<path d="M21450 43072
L21450 41891
L21169 41891
L21000 41948
L20888 42060
L20832 42173
L20775 42397
L20775 42566
L20832 42791
L20888 42904
L21000 43016
L21169 43072
L21450 43072
" />
<path d="M122912 39101
L122744 39158
L122687 39214
L122631 39326
L122631 39495
L122687 39608
L122744 39664
L122856 39720
L123306 39720
L123306 38539
L122912 38539
L122800 38595
L122744 38651
L122687 38764
L122687 38876
L122744 38989
L122800 39045
L122912 39101
L123306 39101
" />
<path d="M15623 34332
L15680 34388
L15848 34444
L15961 34444
L16129 34388
L16242 34276
L16298 34163
L16354 33938
L16354 33770
L16298 33545
L16242 33432
L16129 33320
L15961 33263
L15848 33263
L15680 33320
L15623 33376
" />
<path d="M15944 39023
L15775 39079
L15719 39135
L15663 39248
L15663 39416
L15719 39529
L15775 39585
L15888 39641
L16338 39641
L16338 38460
L15944 38460
L15831 38516
L15775 38573
L15719 38685
L15719 38798
L15775 38910
L15831 38966
L15944 39023
L16338 39023
" />
<path d="M122631 34332
L122687 34388
L122856 34444
L122969 34444
L123137 34388
L123250 34276
L123306 34163
L123362 33938
L123362 33770
L123306 33545
L123250 33432
L123137 33320
L122969 33263
L122856 33263
L122687 33320
L122631 33376
" />
<path d="M129545 30497
L129376 30553
L129320 30609
L129264 30722
L129264 30890
L129320 31003
L129376 31059
L129489 31115
L129939 31115
L129939 29934
L129545 29934
L129433 29990
L129376 30047
L129320 30159
L129320 30272
L129376 30384
L129433 30440
L129545 30497
L129939 30497
" />
<path d="M22256 25727
L22312 25783
L22481 25840
L22593 25840
L22762 25783
L22875 25671
L22931 25558
L22987 25334
L22987 25165
L22931 24940
L22875 24827
L22762 24715
L22593 24659
L22481 24659
L22312 24715
L22256 24771
" />
<path d="M22577 30418
L22408 30474
L22352 30530
L22295 30643
L22295 30812
L22352 30924
L22408 30980
L22520 31037
L22970 31037
L22970 29855
L22577 29855
L22464 29912
L22408 29968
L22352 30080
L22352 30193
L22408 30305
L22464 30362
L22577 30418
L22970 30418
" />
<path d="M129264 25727
L129320 25783
L129489 25840
L129601 25840
L129770 25783
L129883 25671
L129939 25558
L129995 25334
L129995 25165
L129939 24940
L129883 24827
L129770 24715
L129601 24659
L129489 24659
L129320 24715
L129264 24771
" />
<path d="M122912 21909
L122744 21965
L122687 22021
L122631 22134
L122631 22303
L122687 22415
L122744 22471
L122856 22528
L123306 22528
L123306 21346
L122912 21346
L122800 21403
L122744 21459
L122687 21571
L122687 21684
L122744 21796
L122800 21853
L122912 21909
L123306 21909
" />
<path d="M15623 17139
L15680 17196
L15848 17252
L15961 17252
L16129 17196
L16242 17083
L16298 16971
L16354 16746
L16354 16577
L16298 16352
L16242 16240
L16129 16127
L15961 16071
L15848 16071
L15680 16127
L15623 16183
" />
<path d="M15944 21830
L15775 21886
L15719 21943
L15663 22055
L15663 22224
L15719 22336
L15775 22393
L15888 22449
L16338 22449
L16338 21268
L15944 21268
L15831 21324
L15775 21380
L15719 21493
L15719 21605
L15775 21718
L15831 21774
L15944 21830
L16338 21830
" />
<path d="M122631 17139
L122687 17196
L122856 17252
L122969 17252
L123137 17196
L123250 17083
L123306 16971
L123362 16746
L123362 16577
L123306 16352
L123250 16240
L123137 16127
L122969 16071
L122856 16071
L122687 16127
L122631 16183
" />
<g >
</g>
</g> 
</svg>
