<?xml version="1.0" standalone="no"?>
 <!DOCTYPE svg PUBLIC "-//W3C//DTD SVG 1.1//EN" 
 "http://www.w3.org/Graphics/SVG/1.1/DTD/svg11.dtd"> 
<svg xmlns="http://www.w3.org/2000/svg" version="1.1" 
    width="84.0994cm" height="59.4004cm" viewBox="0 0 331100 233860 ">
<title>SVG Picture created as Panel2-Edge_Cuts.svg date 2019/04/18 11:54:36 </title>
  <desc>Picture generated by PCBNEW </desc>
<g style="fill:#000000; fill-opacity:1;stroke:#000000; stroke-opacity:1;
stroke-linecap:round; stroke-linejoin:round; "
 transform="translate(0 0) scale(1 1)">
</g>
<g style="fill:#000000; fill-opacity:0.0; 
stroke:#000000; stroke-width:-0.000393701; stroke-opacity:1; 
stroke-linecap:round; stroke-linejoin:round;">
</g>
<g style="fill:#000000; fill-opacity:0.0; 
stroke:#000000; stroke-width:39.3701; stroke-opacity:1; 
stroke-linecap:round; stroke-linejoin:round;">
<circle cx="127869" cy="62139.1" r="579.995" /> 
<circle cx="81953.8" cy="62139.1" r="579.995" /> 
<circle cx="29453.8" cy="62139.1" r="579.995" /> 
<circle cx="26865.2" cy="19284" r="579.995" /> 
<circle cx="112190" cy="19309" r="579.995" /> 
<circle cx="79388.8" cy="19308" r="579.995" /> 
<circle cx="33494.1" cy="27869.6" r="579.995" /> 
<circle cx="118819" cy="27894.6" r="579.995" /> 
<circle cx="86017.8" cy="27893.5" r="579.995" /> 
<circle cx="112186" cy="36499.7" r="579.995" /> 
<circle cx="79384.9" cy="36498.6" r="579.995" /> 
<circle cx="26861.2" cy="36474.7" r="579.995" /> 
<circle cx="32504.9" cy="45051.8" r="579.995" /> 
<circle cx="85083.7" cy="45051.8" r="579.995" /> 
<circle cx="124375" cy="45051.8" r="579.995" /> 
<circle cx="117746" cy="53635.2" r="579.995" /> 
<circle cx="78440" cy="53634.5" r="579.995" /> 
<circle cx="25871.1" cy="53635.2" r="579.995" /> 
<path d="M22472 59568
L22429 59842
" />
<path d="M68979 65966
L68979 67073
" />
<path d="M31184 65966
L68979 65966
" />
<path d="M22429 59295
L22472 59568
" />
<path d="M22303 59048
L22429 59295
" />
<path d="M22108 58852
L22303 59048
" />
<path d="M21861 58727
L22108 58852
" />
<path d="M21587 58683
L21861 58727
" />
<path d="M20406 58683
L21587 58683
" />
<path d="M20133 58727
L20406 58683
" />
<path d="M19886 58852
L20133 58727
" />
<path d="M19690 59048
L19886 58852
" />
<path d="M19565 59295
L19690 59048
" />
<path d="M19521 59568
L19565 59295
" />
<path d="M19565 59842
L19521 59568
" />
<path d="M19690 60088
L19565 59842
" />
<path d="M19886 60284
L19690 60088
" />
<path d="M20133 60410
L19886 60284
" />
<path d="M20406 60453
L20133 60410
" />
<path d="M21587 60453
L20406 60453
" />
<path d="M21861 60410
L21587 60453
" />
<path d="M22108 60284
L21861 60410
" />
<path d="M22303 60088
L22108 60284
" />
<path d="M22429 59842
L22303 60088
" />
<path d="M19521 64883
L19565 64610
" />
<path d="M19565 65157
L19521 64883
" />
<path d="M19690 65403
L19565 65157
" />
<path d="M19886 65599
L19690 65403
" />
<path d="M20133 65725
L19886 65599
" />
<path d="M20406 65768
L20133 65725
" />
<path d="M21587 65768
L20406 65768
" />
<path d="M21861 65725
L21587 65768
" />
<path d="M22108 65599
L21861 65725
" />
<path d="M22303 65403
L22108 65599
" />
<path d="M22429 65157
L22303 65403
" />
<path d="M22472 64883
L22429 65157
" />
<path d="M22429 64610
L22472 64883
" />
<path d="M22303 64363
L22429 64610
" />
<path d="M22108 64167
L22303 64363
" />
<path d="M21861 64042
L22108 64167
" />
<path d="M21587 63998
L21861 64042
" />
<path d="M20406 63998
L21587 63998
" />
<path d="M20133 64042
L20406 63998
" />
<path d="M19886 64167
L20133 64042
" />
<path d="M19690 64363
L19886 64167
" />
<path d="M19565 64610
L19690 64363
" />
<path d="M20391 61753
L18816 61753
" />
<path d="M20391 60966
L20391 61753
" />
<path d="M18816 60966
L20391 60966
" />
<path d="M18816 61753
L18816 60966
" />
<path d="M18816 62659
L20391 62659
" />
<path d="M18816 63446
L18816 62659
" />
<path d="M20391 63446
L18816 63446
" />
<path d="M20391 62659
L20391 63446
" />
<path d="M13138 58373
L13138 54426
" />
<path d="M17414 58373
L13138 58373
" />
<path d="M17414 61438
L17414 58373
" />
<path d="M18044 61438
L17414 61438
" />
<path d="M18044 59273
L18044 61438
" />
<path d="M18083 59030
L18044 59273
" />
<path d="M18195 58810
L18083 59030
" />
<path d="M18369 58636
L18195 58810
" />
<path d="M18588 58524
L18369 58636
" />
<path d="M18832 58486
L18588 58524
" />
<path d="M18955 58486
L18832 58486
" />
<path d="M19012 58373
L18955 58486
" />
<path d="M19208 58177
L19012 58373
" />
<path d="M19455 58052
L19208 58177
" />
<path d="M19728 58008
L19455 58052
" />
<path d="M22265 58008
L19728 58008
" />
<path d="M22539 58052
L22265 58008
" />
<path d="M22786 58177
L22539 58052
" />
<path d="M22981 58373
L22786 58177
" />
<path d="M23039 58486
L22981 58373
" />
<path d="M29609 58486
L23039 58486
" />
<path d="M29609 57379
L29609 58486
" />
<path d="M18763 57379
L29609 57379
" />
<path d="M18706 57491
L18763 57379
" />
<path d="M18510 57687
L18706 57491
" />
<path d="M18263 57812
L18510 57687
" />
<path d="M17990 57856
L18263 57812
" />
<path d="M15453 57856
L17990 57856
" />
<path d="M15179 57812
L15453 57856
" />
<path d="M14933 57687
L15179 57812
" />
<path d="M14737 57491
L14933 57687
" />
<path d="M14680 57379
L14737 57491
" />
<path d="M14556 57379
L14680 57379
" />
<path d="M14313 57340
L14556 57379
" />
<path d="M14093 57228
L14313 57340
" />
<path d="M13919 57054
L14093 57228
" />
<path d="M13807 56835
L13919 57054
" />
<path d="M13769 56591
L13807 56835
" />
<path d="M13769 54426
L13769 56591
" />
<path d="M13138 54426
L13769 54426
" />
<path d="M18197 50981
L18154 51255
" />
<path d="M18154 50707
L18197 50981
" />
<path d="M18028 50461
L18154 50707
" />
<path d="M17832 50265
L18028 50461
" />
<path d="M17585 50139
L17832 50265
" />
<path d="M17312 50096
L17585 50139
" />
<path d="M16131 50096
L17312 50096
" />
<path d="M15857 50139
L16131 50096
" />
<path d="M15611 50265
L15857 50139
" />
<path d="M15415 50461
L15611 50265
" />
<path d="M15289 50707
L15415 50461
" />
<path d="M15246 50981
L15289 50707
" />
<path d="M15289 51255
L15246 50981
" />
<path d="M15415 51501
L15289 51255
" />
<path d="M15611 51697
L15415 51501
" />
<path d="M15857 51823
L15611 51697
" />
<path d="M16131 51866
L15857 51823
" />
<path d="M17312 51866
L16131 51866
" />
<path d="M17585 51823
L17312 51866
" />
<path d="M17832 51697
L17585 51823
" />
<path d="M18028 51501
L17832 51697
" />
<path d="M18154 51255
L18028 51501
" />
<path d="M15246 56296
L15289 56022
" />
<path d="M15289 56570
L15246 56296
" />
<path d="M15415 56816
L15289 56570
" />
<path d="M15611 57012
L15415 56816
" />
<path d="M15857 57138
L15611 57012
" />
<path d="M16131 57181
L15857 57138
" />
<path d="M17312 57181
L16131 57181
" />
<path d="M17585 57138
L17312 57181
" />
<path d="M17832 57012
L17585 57138
" />
<path d="M18028 56816
L17832 57012
" />
<path d="M18154 56570
L18028 56816
" />
<path d="M18197 56296
L18154 56570
" />
<path d="M18154 56022
L18197 56296
" />
<path d="M18028 55776
L18154 56022
" />
<path d="M17832 55580
L18028 55776
" />
<path d="M17585 55454
L17832 55580
" />
<path d="M17312 55411
L17585 55454
" />
<path d="M16131 55411
L17312 55411
" />
<path d="M15857 55454
L16131 55411
" />
<path d="M15611 55580
L15857 55454
" />
<path d="M15415 55776
L15611 55580
" />
<path d="M15289 56022
L15415 55776
" />
<path d="M16078 53205
L14503 53205
" />
<path d="M16078 52418
L16078 53205
" />
<path d="M14503 52418
L16078 52418
" />
<path d="M14503 53205
L14503 52418
" />
<path d="M14503 54072
L16078 54072
" />
<path d="M14503 54859
L14503 54072
" />
<path d="M16078 54859
L14503 54859
" />
<path d="M16078 54072
L16078 54859
" />
<path d="M13138 52851
L13138 48796
" />
<path d="M13769 52851
L13138 52851
" />
<path d="M13769 50686
L13769 52851
" />
<path d="M13807 50442
L13769 50686
" />
<path d="M13919 50223
L13807 50442
" />
<path d="M14093 50049
L13919 50223
" />
<path d="M14313 49937
L14093 50049
" />
<path d="M14556 49898
L14313 49937
" />
<path d="M14680 49898
L14556 49898
" />
<path d="M14737 49786
L14680 49898
" />
<path d="M14933 49590
L14737 49786
" />
<path d="M15179 49464
L14933 49590
" />
<path d="M15453 49421
L15179 49464
" />
<path d="M17990 49421
L15453 49421
" />
<path d="M18263 49464
L17990 49421
" />
<path d="M18510 49590
L18263 49464
" />
<path d="M18706 49786
L18510 49590
" />
<path d="M18763 49898
L18706 49786
" />
<path d="M29609 49898
L18763 49898
" />
<path d="M29609 48791
L29609 49898
" />
<path d="M25396 48791
L29609 48791
" />
<path d="M25339 48904
L25396 48791
" />
<path d="M25143 49099
L25339 48904
" />
<path d="M24896 49225
L25143 49099
" />
<path d="M24623 49268
L24896 49225
" />
<path d="M22086 49268
L24623 49268
" />
<path d="M21812 49225
L22086 49268
" />
<path d="M21565 49099
L21812 49225
" />
<path d="M21370 48904
L21565 49099
" />
<path d="M21312 48791
L21370 48904
" />
<path d="M21189 48791
L21312 48791
" />
<path d="M20945 48753
L21189 48791
" />
<path d="M20726 48641
L20945 48753
" />
<path d="M20552 48467
L20726 48641
" />
<path d="M20440 48247
L20552 48467
" />
<path d="M20401 48004
L20440 48247
" />
<path d="M20401 45838
L20401 48004
" />
<path d="M19756 45838
L20401 45838
" />
<path d="M19756 48796
L19756 45838
" />
<path d="M13138 48796
L19756 48796
" />
<path d="M24830 42394
L24786 42667
" />
<path d="M24786 42120
L24830 42394
" />
<path d="M24661 41873
L24786 42120
" />
<path d="M24465 41677
L24661 41873
" />
<path d="M24218 41552
L24465 41677
" />
<path d="M23945 41509
L24218 41552
" />
<path d="M22764 41509
L23945 41509
" />
<path d="M22490 41552
L22764 41509
" />
<path d="M22243 41677
L22490 41552
" />
<path d="M22048 41873
L22243 41677
" />
<path d="M21922 42120
L22048 41873
" />
<path d="M21879 42394
L21922 42120
" />
<path d="M21922 42667
L21879 42394
" />
<path d="M22048 42914
L21922 42667
" />
<path d="M22243 43110
L22048 42914
" />
<path d="M22490 43235
L22243 43110
" />
<path d="M22764 43279
L22490 43235
" />
<path d="M23945 43279
L22764 43279
" />
<path d="M24218 43235
L23945 43279
" />
<path d="M24465 43110
L24218 43235
" />
<path d="M24661 42914
L24465 43110
" />
<path d="M24786 42667
L24661 42914
" />
<path d="M21879 47709
L21922 47435
" />
<path d="M21922 47982
L21879 47709
" />
<path d="M22048 48229
L21922 47982
" />
<path d="M22243 48425
L22048 48229
" />
<path d="M22490 48550
L22243 48425
" />
<path d="M22764 48594
L22490 48550
" />
<path d="M23945 48594
L22764 48594
" />
<path d="M24218 48550
L23945 48594
" />
<path d="M24465 48425
L24218 48550
" />
<path d="M24661 48229
L24465 48425
" />
<path d="M24786 47982
L24661 48229
" />
<path d="M24830 47709
L24786 47982
" />
<path d="M24786 47435
L24830 47709
" />
<path d="M24661 47188
L24786 47435
" />
<path d="M24465 46992
L24661 47188
" />
<path d="M24218 46867
L24465 46992
" />
<path d="M23945 46823
L24218 46867
" />
<path d="M22764 46823
L23945 46823
" />
<path d="M22490 46867
L22764 46823
" />
<path d="M22243 46992
L22490 46867
" />
<path d="M22048 47188
L22243 46992
" />
<path d="M21922 47435
L22048 47188
" />
<path d="M22711 44618
L21136 44618
" />
<path d="M22711 43831
L22711 44618
" />
<path d="M21136 43831
L22711 43831
" />
<path d="M21136 44618
L21136 43831
" />
<path d="M21136 45484
L22711 45484
" />
<path d="M21136 46272
L21136 45484
" />
<path d="M22711 46272
L21136 46272
" />
<path d="M22711 45484
L22711 46272
" />
<path d="M14549 41307
L14549 37251
" />
<path d="M19756 41307
L14549 41307
" />
<path d="M19756 44264
L19756 41307
" />
<path d="M20401 44264
L19756 44264
" />
<path d="M20401 42098
L20401 44264
" />
<path d="M20440 41855
L20401 42098
" />
<path d="M20552 41635
L20440 41855
" />
<path d="M20726 41461
L20552 41635
" />
<path d="M20945 41349
L20726 41461
" />
<path d="M21189 41311
L20945 41349
" />
<path d="M21312 41311
L21189 41311
" />
<path d="M21370 41198
L21312 41311
" />
<path d="M21565 41003
L21370 41198
" />
<path d="M21812 40877
L21565 41003
" />
<path d="M22086 40834
L21812 40877
" />
<path d="M24623 40834
L22086 40834
" />
<path d="M24896 40877
L24623 40834
" />
<path d="M25143 41003
L24896 40877
" />
<path d="M25339 41198
L25143 41003
" />
<path d="M25396 41311
L25339 41198
" />
<path d="M29609 41311
L25396 41311
" />
<path d="M29609 40222
L29609 41311
" />
<path d="M20174 40222
L29609 40222
" />
<path d="M20117 40334
L20174 40222
" />
<path d="M19921 40530
L20117 40334
" />
<path d="M19674 40655
L19921 40530
" />
<path d="M19401 40699
L19674 40655
" />
<path d="M16864 40699
L19401 40699
" />
<path d="M16590 40655
L16864 40699
" />
<path d="M16343 40530
L16590 40655
" />
<path d="M16148 40334
L16343 40530
" />
<path d="M16090 40222
L16148 40334
" />
<path d="M15967 40222
L16090 40222
" />
<path d="M15723 40183
L15967 40222
" />
<path d="M15504 40071
L15723 40183
" />
<path d="M15330 39897
L15504 40071
" />
<path d="M15218 39678
L15330 39897
" />
<path d="M15179 39434
L15218 39678
" />
<path d="M15179 37251
L15179 39434
" />
<path d="M14549 37251
L15179 37251
" />
<path d="M19608 33824
L19564 34098
" />
<path d="M19564 33550
L19608 33824
" />
<path d="M19439 33304
L19564 33550
" />
<path d="M19243 33108
L19439 33304
" />
<path d="M18996 32982
L19243 33108
" />
<path d="M18723 32939
L18996 32982
" />
<path d="M17542 32939
L18723 32939
" />
<path d="M17268 32982
L17542 32939
" />
<path d="M17021 33108
L17268 32982
" />
<path d="M16826 33304
L17021 33108
" />
<path d="M16700 33550
L16826 33304
" />
<path d="M16657 33824
L16700 33550
" />
<path d="M16700 34098
L16657 33824
" />
<path d="M16826 34344
L16700 34098
" />
<path d="M17021 34540
L16826 34344
" />
<path d="M17268 34666
L17021 34540
" />
<path d="M17542 34709
L17268 34666
" />
<path d="M18723 34709
L17542 34709
" />
<path d="M18996 34666
L18723 34709
" />
<path d="M19243 34540
L18996 34666
" />
<path d="M19439 34344
L19243 34540
" />
<path d="M19564 34098
L19439 34344
" />
<path d="M16657 39139
L16700 38865
" />
<path d="M16700 39413
L16657 39139
" />
<path d="M16826 39659
L16700 39413
" />
<path d="M17021 39855
L16826 39659
" />
<path d="M17268 39981
L17021 39855
" />
<path d="M17542 40024
L17268 39981
" />
<path d="M18723 40024
L17542 40024
" />
<path d="M18996 39981
L18723 40024
" />
<path d="M19243 39855
L18996 39981
" />
<path d="M19439 39659
L19243 39855
" />
<path d="M19564 39413
L19439 39659
" />
<path d="M19608 39139
L19564 39413
" />
<path d="M19564 38865
L19608 39139
" />
<path d="M19439 38619
L19564 38865
" />
<path d="M19243 38423
L19439 38619
" />
<path d="M18996 38297
L19243 38423
" />
<path d="M18723 38254
L18996 38297
" />
<path d="M17542 38254
L18723 38254
" />
<path d="M17268 38297
L17542 38254
" />
<path d="M17021 38423
L17268 38297
" />
<path d="M16826 38619
L17021 38423
" />
<path d="M16700 38865
L16826 38619
" />
<path d="M17486 36088
L15911 36088
" />
<path d="M17486 35300
L17486 36088
" />
<path d="M15911 35300
L17486 35300
" />
<path d="M15911 36088
L15911 35300
" />
<path d="M15911 36875
L17486 36875
" />
<path d="M15911 37663
L15911 36875
" />
<path d="M17486 37663
L15911 37663
" />
<path d="M17486 36875
L17486 37663
" />
<path d="M14549 35676
L14549 31621
" />
<path d="M15179 35676
L14549 35676
" />
<path d="M15179 33529
L15179 35676
" />
<path d="M15218 33285
L15179 33529
" />
<path d="M15330 33066
L15218 33285
" />
<path d="M15504 32892
L15330 33066
" />
<path d="M15723 32780
L15504 32892
" />
<path d="M15967 32741
L15723 32780
" />
<path d="M16090 32741
L15967 32741
" />
<path d="M16148 32629
L16090 32741
" />
<path d="M16343 32433
L16148 32629
" />
<path d="M16590 32307
L16343 32433
" />
<path d="M16864 32264
L16590 32307
" />
<path d="M19401 32264
L16864 32264
" />
<path d="M19674 32307
L19401 32264
" />
<path d="M19921 32433
L19674 32307
" />
<path d="M20117 32629
L19921 32433
" />
<path d="M20174 32741
L20117 32629
" />
<path d="M29609 32741
L20174 32741
" />
<path d="M29609 31616
L29609 32741
" />
<path d="M26807 31616
L29609 31616
" />
<path d="M26750 31729
L26807 31616
" />
<path d="M26554 31925
L26750 31729
" />
<path d="M26307 32050
L26554 31925
" />
<path d="M26034 32094
L26307 32050
" />
<path d="M23497 32094
L26034 32094
" />
<path d="M23223 32050
L23497 32094
" />
<path d="M22976 31925
L23223 32050
" />
<path d="M22781 31729
L22976 31925
" />
<path d="M22723 31616
L22781 31729
" />
<path d="M22600 31616
L22723 31616
" />
<path d="M22356 31578
L22600 31616
" />
<path d="M22137 31466
L22356 31578
" />
<path d="M21963 31292
L22137 31466
" />
<path d="M21851 31072
L21963 31292
" />
<path d="M21812 30829
L21851 31072
" />
<path d="M21812 28664
L21812 30829
" />
<path d="M21167 28664
L21812 28664
" />
<path d="M21167 31621
L21167 28664
" />
<path d="M14549 31621
L21167 31621
" />
<path d="M26241 25219
L26197 25492
" />
<path d="M26197 24945
L26241 25219
" />
<path d="M26072 24699
L26197 24945
" />
<path d="M25876 24503
L26072 24699
" />
<path d="M25629 24377
L25876 24503
" />
<path d="M25356 24334
L25629 24377
" />
<path d="M24175 24334
L25356 24334
" />
<path d="M23901 24377
L24175 24334
" />
<path d="M23654 24503
L23901 24377
" />
<path d="M23459 24699
L23654 24503
" />
<path d="M23333 24945
L23459 24699
" />
<path d="M23290 25219
L23333 24945
" />
<path d="M23333 25492
L23290 25219
" />
<path d="M23459 25739
L23333 25492
" />
<path d="M23654 25935
L23459 25739
" />
<path d="M23901 26061
L23654 25935
" />
<path d="M24175 26104
L23901 26061
" />
<path d="M25356 26104
L24175 26104
" />
<path d="M25629 26061
L25356 26104
" />
<path d="M25876 25935
L25629 26061
" />
<path d="M26072 25739
L25876 25935
" />
<path d="M26197 25492
L26072 25739
" />
<path d="M23290 30534
L23333 30260
" />
<path d="M23333 30807
L23290 30534
" />
<path d="M23459 31054
L23333 30807
" />
<path d="M23654 31250
L23459 31054
" />
<path d="M23901 31375
L23654 31250
" />
<path d="M24175 31419
L23901 31375
" />
<path d="M25356 31419
L24175 31419
" />
<path d="M25629 31375
L25356 31419
" />
<path d="M25876 31250
L25629 31375
" />
<path d="M26072 31054
L25876 31250
" />
<path d="M26197 30807
L26072 31054
" />
<path d="M26241 30534
L26197 30807
" />
<path d="M26197 30260
L26241 30534
" />
<path d="M26072 30014
L26197 30260
" />
<path d="M25876 29818
L26072 30014
" />
<path d="M25629 29692
L25876 29818
" />
<path d="M25356 29649
L25629 29692
" />
<path d="M24175 29649
L25356 29649
" />
<path d="M23901 29692
L24175 29649
" />
<path d="M23654 29818
L23901 29692
" />
<path d="M23459 30014
L23654 29818
" />
<path d="M23333 30260
L23459 30014
" />
<path d="M24119 27483
L22544 27483
" />
<path d="M24119 26695
L24119 27483
" />
<path d="M22544 26695
L24119 26695
" />
<path d="M22544 27483
L22544 26695
" />
<path d="M22544 28270
L24119 28270
" />
<path d="M22544 29057
L22544 28270
" />
<path d="M24119 29057
L22544 29057
" />
<path d="M24119 28270
L24119 29057
" />
<path d="M14549 24132
L14549 20076
" />
<path d="M21167 24132
L14549 24132
" />
<path d="M21167 27089
L21167 24132
" />
<path d="M21812 27089
L21167 27089
" />
<path d="M21812 24923
L21812 27089
" />
<path d="M21851 24680
L21812 24923
" />
<path d="M21963 24461
L21851 24680
" />
<path d="M22137 24286
L21963 24461
" />
<path d="M22356 24175
L22137 24286
" />
<path d="M22600 24136
L22356 24175
" />
<path d="M22723 24136
L22600 24136
" />
<path d="M22781 24024
L22723 24136
" />
<path d="M22976 23828
L22781 24024
" />
<path d="M23223 23702
L22976 23828
" />
<path d="M23497 23659
L23223 23702
" />
<path d="M26034 23659
L23497 23659
" />
<path d="M26307 23702
L26034 23659
" />
<path d="M26554 23828
L26307 23702
" />
<path d="M26750 24024
L26554 23828
" />
<path d="M26807 24136
L26750 24024
" />
<path d="M29609 24136
L26807 24136
" />
<path d="M29609 23029
L29609 24136
" />
<path d="M20174 23029
L29609 23029
" />
<path d="M20117 23142
L20174 23029
" />
<path d="M19921 23337
L20117 23142
" />
<path d="M19674 23463
L19921 23337
" />
<path d="M19401 23506
L19674 23463
" />
<path d="M16864 23506
L19401 23506
" />
<path d="M16590 23463
L16864 23506
" />
<path d="M16343 23337
L16590 23463
" />
<path d="M16148 23142
L16343 23337
" />
<path d="M16090 23029
L16148 23142
" />
<path d="M15967 23029
L16090 23029
" />
<path d="M15723 22990
L15967 23029
" />
<path d="M15504 22879
L15723 22990
" />
<path d="M15330 22705
L15504 22879
" />
<path d="M15218 22485
L15330 22705
" />
<path d="M15179 22242
L15218 22485
" />
<path d="M15179 20076
L15179 22242
" />
<path d="M14549 20076
L15179 20076
" />
<path d="M19608 16631
L19564 16905
" />
<path d="M19564 16358
L19608 16631
" />
<path d="M19439 16111
L19564 16358
" />
<path d="M19243 15915
L19439 16111
" />
<path d="M18996 15790
L19243 15915
" />
<path d="M18723 15746
L18996 15790
" />
<path d="M17542 15746
L18723 15746
" />
<path d="M17268 15790
L17542 15746
" />
<path d="M17021 15915
L17268 15790
" />
<path d="M16826 16111
L17021 15915
" />
<path d="M16700 16358
L16826 16111
" />
<path d="M16657 16631
L16700 16358
" />
<path d="M16700 16905
L16657 16631
" />
<path d="M16826 17151
L16700 16905
" />
<path d="M17021 17348
L16826 17151
" />
<path d="M17268 17473
L17021 17348
" />
<path d="M17542 17516
L17268 17473
" />
<path d="M18723 17516
L17542 17516
" />
<path d="M18996 17473
L18723 17516
" />
<path d="M19243 17348
L18996 17473
" />
<path d="M19439 17151
L19243 17348
" />
<path d="M19564 16905
L19439 17151
" />
<path d="M16657 21946
L16700 21673
" />
<path d="M16700 22220
L16657 21946
" />
<path d="M16826 22466
L16700 22220
" />
<path d="M17021 22662
L16826 22466
" />
<path d="M17268 22788
L17021 22662
" />
<path d="M17542 22831
L17268 22788
" />
<path d="M18723 22831
L17542 22831
" />
<path d="M18996 22788
L18723 22831
" />
<path d="M19243 22662
L18996 22788
" />
<path d="M19439 22466
L19243 22662
" />
<path d="M19564 22220
L19439 22466
" />
<path d="M19608 21946
L19564 22220
" />
<path d="M19564 21673
L19608 21946
" />
<path d="M19439 21426
L19564 21673
" />
<path d="M19243 21230
L19439 21426
" />
<path d="M18996 21105
L19243 21230
" />
<path d="M18723 21061
L18996 21105
" />
<path d="M17542 21061
L18723 21061
" />
<path d="M17268 21105
L17542 21061
" />
<path d="M17021 21230
L17268 21105
" />
<path d="M16826 21426
L17021 21230
" />
<path d="M16700 21673
L16826 21426
" />
<path d="M17486 18895
L15911 18895
" />
<path d="M17486 18108
L17486 18895
" />
<path d="M15911 18108
L17486 18108
" />
<path d="M15911 18895
L15911 18108
" />
<path d="M15911 19683
L17486 19683
" />
<path d="M15911 20470
L15911 19683
" />
<path d="M17486 20470
L15911 20470
" />
<path d="M17486 19683
L17486 20470
" />
<path d="M14549 18501
L14549 14328
" />
<path d="M15179 18501
L14549 18501
" />
<path d="M15179 16336
L15179 18501
" />
<path d="M15218 16093
L15179 16336
" />
<path d="M15330 15873
L15218 16093
" />
<path d="M15504 15699
L15330 15873
" />
<path d="M15723 15587
L15504 15699
" />
<path d="M15967 15549
L15723 15587
" />
<path d="M16090 15549
L15967 15549
" />
<path d="M16148 15436
L16090 15549
" />
<path d="M16343 15240
L16148 15436
" />
<path d="M16590 15115
L16343 15240
" />
<path d="M16864 15072
L16590 15115
" />
<path d="M19401 15072
L16864 15072
" />
<path d="M19674 15115
L19401 15072
" />
<path d="M19921 15240
L19674 15115
" />
<path d="M20117 15436
L19921 15240
" />
<path d="M20174 15549
L20117 15436
" />
<path d="M29609 15549
L20174 15549
" />
<path d="M29609 14919
L29609 15549
" />
<path d="M26348 14919
L29609 14919
" />
<path d="M26348 14240
L26348 14919
" />
<path d="M24774 14240
L26348 14240
" />
<path d="M24774 14919
L24774 14240
" />
<path d="M24011 14919
L24774 14919
" />
<path d="M24011 14328
L24011 14919
" />
<path d="M14549 14328
L24011 14328
" />
<path d="M23381 12753
L23381 8694
" />
<path d="M24011 12753
L23381 12753
" />
<path d="M24011 10588
L24011 12753
" />
<path d="M24050 10345
L24011 10588
" />
<path d="M24162 10125
L24050 10345
" />
<path d="M24336 9951
L24162 10125
" />
<path d="M24555 9840
L24336 9951
" />
<path d="M24799 9801
L24555 9840
" />
<path d="M24922 9801
L24799 9801
" />
<path d="M24980 9688
L24922 9801
" />
<path d="M25175 9493
L24980 9688
" />
<path d="M25422 9367
L25175 9493
" />
<path d="M25696 9324
L25422 9367
" />
<path d="M26177 9324
L25696 9324
" />
<path d="M26177 8694
L26177 9324
" />
<path d="M23381 8694
L26177 8694
" />
<path d="M24813 12390
L26388 12390
" />
<path d="M24813 13177
L24813 12390
" />
<path d="M26388 13177
L24813 13177
" />
<path d="M26388 12390
L26388 13177
" />
<path d="M26373 9999
L27555 9999
" />
<path d="M26100 10042
L26373 9999
" />
<path d="M25853 10168
L26100 10042
" />
<path d="M25657 10364
L25853 10168
" />
<path d="M25532 10610
L25657 10364
" />
<path d="M25488 10884
L25532 10610
" />
<path d="M25532 11157
L25488 10884
" />
<path d="M25657 11404
L25532 11157
" />
<path d="M25853 11600
L25657 11404
" />
<path d="M26100 11725
L25853 11600
" />
<path d="M26373 11769
L26100 11725
" />
<path d="M27555 11769
L26373 11769
" />
<path d="M27828 11725
L27555 11769
" />
<path d="M28075 11600
L27828 11725
" />
<path d="M28271 11404
L28075 11600
" />
<path d="M28396 11157
L28271 11404
" />
<path d="M28440 10884
L28396 11157
" />
<path d="M28396 10610
L28440 10884
" />
<path d="M28271 10364
L28396 10610
" />
<path d="M28075 10168
L28271 10364
" />
<path d="M27828 10042
L28075 10168
" />
<path d="M27555 9999
L27828 10042
" />
<path d="M68979 15549
L31184 15549
" />
<path d="M68979 14919
L68979 15549
" />
<path d="M31184 14919
L68979 14919
" />
<path d="M31184 15549
L31184 14919
" />
<path d="M68979 24136
L31184 24136
" />
<path d="M68979 23029
L68979 24136
" />
<path d="M31184 23029
L68979 23029
" />
<path d="M31184 24136
L31184 23029
" />
<path d="M68979 32741
L31184 32741
" />
<path d="M68979 31616
L68979 32741
" />
<path d="M31184 31616
L68979 31616
" />
<path d="M31184 32741
L31184 31616
" />
<path d="M68979 41311
L31184 41311
" />
<path d="M68979 40222
L68979 41311
" />
<path d="M31184 40222
L68979 40222
" />
<path d="M31184 41311
L31184 40222
" />
<path d="M68979 49898
L31184 49898
" />
<path d="M68979 48791
L68979 49898
" />
<path d="M31184 48791
L68979 48791
" />
<path d="M31184 49898
L31184 48791
" />
<path d="M68979 58486
L31184 58486
" />
<path d="M68979 57379
L68979 58486
" />
<path d="M31184 57379
L68979 57379
" />
<path d="M31184 58486
L31184 57379
" />
<path d="M68979 67073
L31184 67073
" />
<path d="M31184 67073
L31184 65966
" />
<path d="M68979 72821
L31184 72821
" />
<path d="M68979 72191
L68979 72821
" />
<path d="M31184 72191
L68979 72191
" />
<path d="M31184 72821
L31184 72191
" />
<path d="M68979 75813
L31184 75813
" />
<path d="M68979 75183
L68979 75813
" />
<path d="M31184 75183
L68979 75183
" />
<path d="M31184 75813
L31184 75183
" />
<path d="M68979 78805
L31184 78805
" />
<path d="M68979 78175
L68979 78805
" />
<path d="M31184 78175
L68979 78175
" />
<path d="M31184 78805
L31184 78175
" />
<path d="M68979 81797
L31184 81797
" />
<path d="M68979 81167
L68979 81797
" />
<path d="M31184 81167
L68979 81167
" />
<path d="M31184 81797
L31184 81167
" />
<path d="M68979 84789
L31184 84789
" />
<path d="M68979 84159
L68979 84789
" />
<path d="M31184 84159
L68979 84159
" />
<path d="M31184 84789
L31184 84159
" />
<path d="M68979 87782
L31184 87782
" />
<path d="M68979 87152
L68979 87782
" />
<path d="M31184 87152
L68979 87152
" />
<path d="M31184 87782
L31184 87152
" />
<path d="M68979 90774
L31184 90774
" />
<path d="M68979 90144
L68979 90774
" />
<path d="M31184 90144
L68979 90144
" />
<path d="M31184 90774
L31184 90144
" />
<path d="M31184 96128
L68979 96128
" />
<path d="M31184 96758
L31184 96128
" />
<path d="M68979 96758
L31184 96758
" />
<path d="M68979 96128
L68979 96758
" />
<path d="M68979 93766
L31184 93766
" />
<path d="M68979 93136
L68979 93766
" />
<path d="M31184 93136
L68979 93136
" />
<path d="M31184 93766
L31184 93136
" />
<path d="M27751 9324
L27751 8694
" />
<path d="M28233 9324
L27751 9324
" />
<path d="M28506 9367
L28233 9324
" />
<path d="M28753 9493
L28506 9367
" />
<path d="M28949 9688
L28753 9493
" />
<path d="M29006 9801
L28949 9688
" />
<path d="M68979 9801
L29006 9801
" />
<path d="M68979 9324
L68979 9801
" />
<path d="M65583 9324
L68979 9324
" />
<path d="M65583 8694
L65583 9324
" />
<path d="M27751 8694
L65583 8694
" />
<path d="M124141 78175
L124141 79199
" />
<path d="M114338 78175
L124141 78175
" />
<path d="M114338 77781
L114338 78175
" />
<path d="M113708 77781
L114338 77781
" />
<path d="M113708 78175
L113708 77781
" />
<path d="M113306 78175
L113708 78175
" />
<path d="M113306 77781
L113306 78175
" />
<path d="M111732 77781
L113306 77781
" />
<path d="M111732 78175
L111732 77781
" />
<path d="M109924 78175
L111732 78175
" />
<path d="M109924 78805
L109924 78175
" />
<path d="M121504 78805
L109924 78805
" />
<path d="M121504 79199
L121504 78805
" />
<path d="M123079 79199
L121504 79199
" />
<path d="M123079 78805
L123079 79199
" />
<path d="M123511 78805
L123079 78805
" />
<path d="M123511 79199
L123511 78805
" />
<path d="M124141 79199
L123511 79199
" />
<path d="M109924 84159
L121504 84159
" />
<path d="M109924 84789
L109924 84159
" />
<path d="M121504 84789
L109924 84789
" />
<path d="M121504 85183
L121504 84789
" />
<path d="M123079 85183
L121504 85183
" />
<path d="M123079 84789
L123079 85183
" />
<path d="M123511 84789
L123079 84789
" />
<path d="M123511 85183
L123511 84789
" />
<path d="M124141 85183
L123511 85183
" />
<path d="M124141 83766
L124141 85183
" />
<path d="M123511 83766
L124141 83766
" />
<path d="M123511 84159
L123511 83766
" />
<path d="M123079 84159
L123511 84159
" />
<path d="M123079 83766
L123079 84159
" />
<path d="M121504 83766
L123079 83766
" />
<path d="M121504 84159
L121504 83766
" />
<path d="M123079 81167
L123511 81167
" />
<path d="M123079 80774
L123079 81167
" />
<path d="M121504 80774
L123079 80774
" />
<path d="M121504 81167
L121504 80774
" />
<path d="M109924 81167
L121504 81167
" />
<path d="M109924 81797
L109924 81167
" />
<path d="M121504 81797
L109924 81797
" />
<path d="M121504 82191
L121504 81797
" />
<path d="M123079 82191
L121504 82191
" />
<path d="M123079 81797
L123079 82191
" />
<path d="M123511 81797
L123079 81797
" />
<path d="M123511 82191
L123511 81797
" />
<path d="M124141 82191
L123511 82191
" />
<path d="M124141 80774
L124141 82191
" />
<path d="M123511 80774
L124141 80774
" />
<path d="M123511 81167
L123511 80774
" />
<path d="M127500 88175
L126870 88175
" />
<path d="M127500 87152
L127500 88175
" />
<path d="M124141 87152
L127500 87152
" />
<path d="M124141 86758
L124141 87152
" />
<path d="M123511 86758
L124141 86758
" />
<path d="M123511 87152
L123511 86758
" />
<path d="M123079 87152
L123511 87152
" />
<path d="M123079 86758
L123079 87152
" />
<path d="M121504 86758
L123079 86758
" />
<path d="M121504 87152
L121504 86758
" />
<path d="M109924 87152
L121504 87152
" />
<path d="M109924 87782
L109924 87152
" />
<path d="M124884 87782
L109924 87782
" />
<path d="M124884 88223
L124884 87782
" />
<path d="M126459 88223
L124884 88223
" />
<path d="M126459 87782
L126459 88223
" />
<path d="M126870 87782
L126459 87782
" />
<path d="M126870 88175
L126870 87782
" />
<path d="M126870 90774
L126459 90774
" />
<path d="M126870 91168
L126870 90774
" />
<path d="M127500 91168
L126870 91168
" />
<path d="M127500 89750
L127500 91168
" />
<path d="M126870 89750
L127500 89750
" />
<path d="M126870 90144
L126870 89750
" />
<path d="M126459 90144
L126870 90144
" />
<path d="M126459 89797
L126459 90144
" />
<path d="M124884 89797
L126459 89797
" />
<path d="M124884 90144
L124884 89797
" />
<path d="M109924 90144
L124884 90144
" />
<path d="M109924 90774
L109924 90144
" />
<path d="M124884 90774
L109924 90774
" />
<path d="M124884 91215
L124884 90774
" />
<path d="M126459 91215
L124884 91215
" />
<path d="M126459 90774
L126459 91215
" />
<path d="M113306 75183
L113708 75183
" />
<path d="M113306 74789
L113306 75183
" />
<path d="M111732 74789
L113306 74789
" />
<path d="M111732 75183
L111732 74789
" />
<path d="M109924 75183
L111732 75183
" />
<path d="M109924 75813
L109924 75183
" />
<path d="M111732 75813
L109924 75813
" />
<path d="M111732 76206
L111732 75813
" />
<path d="M113306 76206
L111732 76206
" />
<path d="M113306 75813
L113306 76206
" />
<path d="M113708 75813
L113306 75813
" />
<path d="M113708 76207
L113708 75813
" />
<path d="M114338 76207
L113708 76207
" />
<path d="M114338 74789
L114338 76207
" />
<path d="M113708 74789
L114338 74789
" />
<path d="M113708 75183
L113708 74789
" />
<path d="M70554 9801
L70554 9324
" />
<path d="M110036 9801
L70554 9801
" />
<path d="M110093 9688
L110036 9801
" />
<path d="M110289 9493
L110093 9688
" />
<path d="M110536 9367
L110289 9493
" />
<path d="M110809 9324
L110536 9367
" />
<path d="M111398 9324
L110809 9324
" />
<path d="M111398 8694
L111398 9324
" />
<path d="M73951 8694
L111398 8694
" />
<path d="M73951 9324
L73951 8694
" />
<path d="M70554 9324
L73951 9324
" />
<path d="M111487 9999
L112668 9999
" />
<path d="M111214 10042
L111487 9999
" />
<path d="M110967 10168
L111214 10042
" />
<path d="M110771 10364
L110967 10168
" />
<path d="M110646 10610
L110771 10364
" />
<path d="M110602 10884
L110646 10610
" />
<path d="M110646 11157
L110602 10884
" />
<path d="M110771 11404
L110646 11157
" />
<path d="M110967 11600
L110771 11404
" />
<path d="M111214 11725
L110967 11600
" />
<path d="M111487 11769
L111214 11725
" />
<path d="M112668 11769
L111487 11769
" />
<path d="M112942 11725
L112668 11769
" />
<path d="M113189 11600
L112942 11725
" />
<path d="M113384 11404
L113189 11600
" />
<path d="M113510 11157
L113384 11404
" />
<path d="M113554 10884
L113510 11157
" />
<path d="M113510 10610
L113554 10884
" />
<path d="M113384 10364
L113510 10610
" />
<path d="M113189 10168
L113384 10364
" />
<path d="M112942 10042
L113189 10168
" />
<path d="M112668 9999
L112942 10042
" />
<path d="M112973 9324
L112973 8694
" />
<path d="M113346 9324
L112973 9324
" />
<path d="M113620 9367
L113346 9324
" />
<path d="M113867 9493
L113620 9367
" />
<path d="M114062 9688
L113867 9493
" />
<path d="M114120 9801
L114062 9688
" />
<path d="M114243 9801
L114120 9801
" />
<path d="M114487 9840
L114243 9801
" />
<path d="M114706 9951
L114487 9840
" />
<path d="M114880 10125
L114706 9951
" />
<path d="M114992 10345
L114880 10125
" />
<path d="M115031 10588
L114992 10345
" />
<path d="M115031 12753
L115031 10588
" />
<path d="M115641 12753
L115031 12753
" />
<path d="M115641 8694
L115641 12753
" />
<path d="M112973 8694
L115641 8694
" />
<path d="M114341 13211
L112766 13211
" />
<path d="M114341 12423
L114341 13211
" />
<path d="M112766 12423
L114341 12423
" />
<path d="M112766 13211
L112766 12423
" />
<path d="M124473 14328
L124473 18502
" />
<path d="M115641 14328
L124473 14328
" />
<path d="M115641 14328
L115641 14328
" />
<path d="M115031 14328
L115641 14328
" />
<path d="M115031 14919
L115031 14328
" />
<path d="M114341 14919
L115031 14919
" />
<path d="M114341 14234
L114341 14919
" />
<path d="M112766 14234
L114341 14234
" />
<path d="M112766 14919
L112766 14234
" />
<path d="M109924 14919
L112766 14919
" />
<path d="M109924 15549
L109924 14919
" />
<path d="M118868 15549
L109924 15549
" />
<path d="M118926 15436
L118868 15549
" />
<path d="M119121 15240
L118926 15436
" />
<path d="M119368 15115
L119121 15240
" />
<path d="M119642 15072
L119368 15115
" />
<path d="M122179 15072
L119642 15072
" />
<path d="M122452 15115
L122179 15072
" />
<path d="M122699 15240
L122452 15115
" />
<path d="M122895 15436
L122699 15240
" />
<path d="M122952 15549
L122895 15436
" />
<path d="M123075 15549
L122952 15549
" />
<path d="M123319 15587
L123075 15549
" />
<path d="M123538 15699
L123319 15587
" />
<path d="M123713 15873
L123538 15699
" />
<path d="M123825 16093
L123713 15873
" />
<path d="M123863 16336
L123825 16093
" />
<path d="M123863 18502
L123863 16336
" />
<path d="M124473 18502
L123863 18502
" />
<path d="M119435 21946
L119478 21673
" />
<path d="M119478 22220
L119435 21946
" />
<path d="M119604 22466
L119478 22220
" />
<path d="M119799 22662
L119604 22466
" />
<path d="M120046 22788
L119799 22662
" />
<path d="M120319 22831
L120046 22788
" />
<path d="M121501 22831
L120319 22831
" />
<path d="M121774 22788
L121501 22831
" />
<path d="M122021 22662
L121774 22788
" />
<path d="M122217 22466
L122021 22662
" />
<path d="M122342 22220
L122217 22466
" />
<path d="M122386 21946
L122342 22220
" />
<path d="M122342 21673
L122386 21946
" />
<path d="M122217 21426
L122342 21673
" />
<path d="M122021 21230
L122217 21426
" />
<path d="M121774 21105
L122021 21230
" />
<path d="M121501 21061
L121774 21105
" />
<path d="M120319 21061
L121501 21061
" />
<path d="M120046 21105
L120319 21061
" />
<path d="M119799 21230
L120046 21105
" />
<path d="M119604 21426
L119799 21230
" />
<path d="M119478 21673
L119604 21426
" />
<path d="M122386 16631
L122342 16905
" />
<path d="M122342 16358
L122386 16631
" />
<path d="M122217 16111
L122342 16358
" />
<path d="M122021 15915
L122217 16111
" />
<path d="M121774 15790
L122021 15915
" />
<path d="M121501 15746
L121774 15790
" />
<path d="M120319 15746
L121501 15746
" />
<path d="M120046 15790
L120319 15746
" />
<path d="M119799 15915
L120046 15790
" />
<path d="M119604 16111
L119799 15915
" />
<path d="M119478 16358
L119604 16111
" />
<path d="M119435 16631
L119478 16358
" />
<path d="M119478 16905
L119435 16631
" />
<path d="M119604 17151
L119478 16905
" />
<path d="M119799 17348
L119604 17151
" />
<path d="M120046 17473
L119799 17348
" />
<path d="M120319 17516
L120046 17473
" />
<path d="M121501 17516
L120319 17516
" />
<path d="M121774 17473
L121501 17516
" />
<path d="M122021 17348
L121774 17473
" />
<path d="M122217 17151
L122021 17348
" />
<path d="M122342 16905
L122217 17151
" />
<path d="M121598 19605
L123173 19605
" />
<path d="M121598 20392
L121598 19605
" />
<path d="M123173 20392
L121598 20392
" />
<path d="M123173 19605
L123173 20392
" />
<path d="M123173 18896
L121598 18896
" />
<path d="M123173 18109
L123173 18896
" />
<path d="M121598 18109
L123173 18109
" />
<path d="M121598 18896
L121598 18109
" />
<path d="M131106 23026
L131106 27089
" />
<path d="M124473 23026
L131106 23026
" />
<path d="M124473 20076
L124473 23026
" />
<path d="M123863 20076
L124473 20076
" />
<path d="M123863 22242
L123863 20076
" />
<path d="M123825 22485
L123863 22242
" />
<path d="M123713 22705
L123825 22485
" />
<path d="M123538 22879
L123713 22705
" />
<path d="M123319 22990
L123538 22879
" />
<path d="M123075 23029
L123319 22990
" />
<path d="M122952 23029
L123075 23029
" />
<path d="M122895 23142
L122952 23029
" />
<path d="M122699 23337
L122895 23142
" />
<path d="M122452 23463
L122699 23337
" />
<path d="M122179 23506
L122452 23463
" />
<path d="M119642 23506
L122179 23506
" />
<path d="M119368 23463
L119642 23506
" />
<path d="M119121 23337
L119368 23463
" />
<path d="M118926 23142
L119121 23337
" />
<path d="M118868 23029
L118926 23142
" />
<path d="M109924 23029
L118868 23029
" />
<path d="M109924 24136
L109924 23029
" />
<path d="M125501 24136
L109924 24136
" />
<path d="M125559 24024
L125501 24136
" />
<path d="M125754 23828
L125559 24024
" />
<path d="M126001 23702
L125754 23828
" />
<path d="M126275 23659
L126001 23702
" />
<path d="M128812 23659
L126275 23659
" />
<path d="M129085 23702
L128812 23659
" />
<path d="M129332 23828
L129085 23702
" />
<path d="M129528 24024
L129332 23828
" />
<path d="M129585 24136
L129528 24024
" />
<path d="M129708 24136
L129585 24136
" />
<path d="M129952 24175
L129708 24136
" />
<path d="M130171 24286
L129952 24175
" />
<path d="M130346 24461
L130171 24286
" />
<path d="M130458 24680
L130346 24461
" />
<path d="M130496 24923
L130458 24680
" />
<path d="M130496 27089
L130496 24923
" />
<path d="M131106 27089
L130496 27089
" />
<path d="M123173 36089
L121598 36089
" />
<path d="M123173 35301
L123173 36089
" />
<path d="M121598 35301
L123173 35301
" />
<path d="M121598 36089
L121598 35301
" />
<path d="M123173 37585
L121598 37585
" />
<path d="M123173 36797
L123173 37585
" />
<path d="M121598 36797
L123173 36797
" />
<path d="M121598 37585
L121598 36797
" />
<path d="M119478 34098
L119435 33824
" />
<path d="M119604 34344
L119478 34098
" />
<path d="M119799 34540
L119604 34344
" />
<path d="M120046 34666
L119799 34540
" />
<path d="M120319 34709
L120046 34666
" />
<path d="M121501 34709
L120319 34709
" />
<path d="M121774 34666
L121501 34709
" />
<path d="M122021 34540
L121774 34666
" />
<path d="M122217 34344
L122021 34540
" />
<path d="M122342 34098
L122217 34344
" />
<path d="M122386 33824
L122342 34098
" />
<path d="M122342 33550
L122386 33824
" />
<path d="M122217 33304
L122342 33550
" />
<path d="M122021 33108
L122217 33304
" />
<path d="M121774 32982
L122021 33108
" />
<path d="M121501 32939
L121774 32982
" />
<path d="M120319 32939
L121501 32939
" />
<path d="M120046 32982
L120319 32939
" />
<path d="M119799 33108
L120046 32982
" />
<path d="M119604 33304
L119799 33108
" />
<path d="M119478 33550
L119604 33304
" />
<path d="M119435 33824
L119478 33550
" />
<path d="M119435 39139
L119478 38865
" />
<path d="M119478 39413
L119435 39139
" />
<path d="M119604 39659
L119478 39413
" />
<path d="M119799 39855
L119604 39659
" />
<path d="M120046 39981
L119799 39855
" />
<path d="M120319 40024
L120046 39981
" />
<path d="M121501 40024
L120319 40024
" />
<path d="M121774 39981
L121501 40024
" />
<path d="M122021 39855
L121774 39981
" />
<path d="M122217 39659
L122021 39855
" />
<path d="M122342 39413
L122217 39659
" />
<path d="M122386 39139
L122342 39413
" />
<path d="M122342 38865
L122386 39139
" />
<path d="M122217 38619
L122342 38865
" />
<path d="M122021 38423
L122217 38619
" />
<path d="M121774 38297
L122021 38423
" />
<path d="M121501 38254
L121774 38297
" />
<path d="M120319 38254
L121501 38254
" />
<path d="M120046 38297
L120319 38254
" />
<path d="M119799 38423
L120046 38297
" />
<path d="M119604 38619
L119799 38423
" />
<path d="M119478 38865
L119604 38619
" />
<path d="M126068 30534
L126111 30260
" />
<path d="M126111 30807
L126068 30534
" />
<path d="M126237 31054
L126111 30807
" />
<path d="M126432 31250
L126237 31054
" />
<path d="M126679 31375
L126432 31250
" />
<path d="M126952 31419
L126679 31375
" />
<path d="M128134 31419
L126952 31419
" />
<path d="M128407 31375
L128134 31419
" />
<path d="M128654 31250
L128407 31375
" />
<path d="M128850 31054
L128654 31250
" />
<path d="M128975 30807
L128850 31054
" />
<path d="M129019 30534
L128975 30807
" />
<path d="M128975 30260
L129019 30534
" />
<path d="M128850 30014
L128975 30260
" />
<path d="M128654 29818
L128850 30014
" />
<path d="M128407 29692
L128654 29818
" />
<path d="M128134 29649
L128407 29692
" />
<path d="M126952 29649
L128134 29649
" />
<path d="M126679 29692
L126952 29649
" />
<path d="M126432 29818
L126679 29692
" />
<path d="M126237 30014
L126432 29818
" />
<path d="M126111 30260
L126237 30014
" />
<path d="M129019 25219
L128975 25492
" />
<path d="M128975 24945
L129019 25219
" />
<path d="M128850 24699
L128975 24945
" />
<path d="M128654 24503
L128850 24699
" />
<path d="M128407 24377
L128654 24503
" />
<path d="M128134 24334
L128407 24377
" />
<path d="M126952 24334
L128134 24334
" />
<path d="M126679 24377
L126952 24334
" />
<path d="M126432 24503
L126679 24377
" />
<path d="M126237 24699
L126432 24503
" />
<path d="M126111 24945
L126237 24699
" />
<path d="M126068 25219
L126111 24945
" />
<path d="M126111 25492
L126068 25219
" />
<path d="M126237 25739
L126111 25492
" />
<path d="M126432 25935
L126237 25739
" />
<path d="M126679 26061
L126432 25935
" />
<path d="M126952 26104
L126679 26061
" />
<path d="M128134 26104
L126952 26104
" />
<path d="M128407 26061
L128134 26104
" />
<path d="M128654 25935
L128407 26061
" />
<path d="M128850 25739
L128654 25935
" />
<path d="M128975 25492
L128850 25739
" />
<path d="M128231 28192
L129806 28192
" />
<path d="M128231 28980
L128231 28192
" />
<path d="M129806 28980
L128231 28980
" />
<path d="M129806 28192
L129806 28980
" />
<path d="M129806 27483
L128231 27483
" />
<path d="M129806 26696
L129806 27483
" />
<path d="M128231 26696
L129806 26696
" />
<path d="M128231 27483
L128231 26696
" />
<path d="M109924 31616
L125501 31616
" />
<path d="M109924 32741
L109924 31616
" />
<path d="M118868 32741
L109924 32741
" />
<path d="M118926 32629
L118868 32741
" />
<path d="M119121 32433
L118926 32629
" />
<path d="M119368 32307
L119121 32433
" />
<path d="M119642 32264
L119368 32307
" />
<path d="M122179 32264
L119642 32264
" />
<path d="M122452 32307
L122179 32264
" />
<path d="M122699 32433
L122452 32307
" />
<path d="M122895 32629
L122699 32433
" />
<path d="M122952 32741
L122895 32629
" />
<path d="M123075 32741
L122952 32741
" />
<path d="M123319 32780
L123075 32741
" />
<path d="M123538 32892
L123319 32780
" />
<path d="M123713 33066
L123538 32892
" />
<path d="M123825 33285
L123713 33066
" />
<path d="M123863 33529
L123825 33285
" />
<path d="M123863 35676
L123863 33529
" />
<path d="M124473 35676
L123863 35676
" />
<path d="M124473 32719
L124473 35676
" />
<path d="M131106 32719
L124473 32719
" />
<path d="M131106 28664
L131106 32719
" />
<path d="M130496 28664
L131106 28664
" />
<path d="M130496 30829
L130496 28664
" />
<path d="M130458 31072
L130496 30829
" />
<path d="M130346 31292
L130458 31072
" />
<path d="M130171 31466
L130346 31292
" />
<path d="M129952 31578
L130171 31466
" />
<path d="M129708 31616
L129952 31578
" />
<path d="M129585 31616
L129708 31616
" />
<path d="M129528 31729
L129585 31616
" />
<path d="M129332 31925
L129528 31729
" />
<path d="M129085 32050
L129332 31925
" />
<path d="M128812 32094
L129085 32050
" />
<path d="M126275 32094
L128812 32094
" />
<path d="M126001 32050
L126275 32094
" />
<path d="M125754 31925
L126001 32050
" />
<path d="M125559 31729
L125754 31925
" />
<path d="M125501 31616
L125559 31729
" />
<path d="M137103 44264
L136487 44264
" />
<path d="M137103 40208
L137103 44264
" />
<path d="M124473 40208
L137103 40208
" />
<path d="M124473 37251
L124473 40208
" />
<path d="M123863 37251
L124473 37251
" />
<path d="M123863 39434
L123863 37251
" />
<path d="M123825 39678
L123863 39434
" />
<path d="M123713 39897
L123825 39678
" />
<path d="M123538 40071
L123713 39897
" />
<path d="M123319 40183
L123538 40071
" />
<path d="M123075 40222
L123319 40183
" />
<path d="M122952 40222
L123075 40222
" />
<path d="M122895 40334
L122952 40222
" />
<path d="M122699 40530
L122895 40334
" />
<path d="M122452 40655
L122699 40530
" />
<path d="M122179 40699
L122452 40655
" />
<path d="M119642 40699
L122179 40699
" />
<path d="M119368 40655
L119642 40699
" />
<path d="M119121 40530
L119368 40655
" />
<path d="M118926 40334
L119121 40530
" />
<path d="M118868 40222
L118926 40334
" />
<path d="M109924 40222
L118868 40222
" />
<path d="M109924 41311
L109924 40222
" />
<path d="M131493 41311
L109924 41311
" />
<path d="M131550 41198
L131493 41311
" />
<path d="M131746 41003
L131550 41198
" />
<path d="M131992 40877
L131746 41003
" />
<path d="M132266 40834
L131992 40877
" />
<path d="M134803 40834
L132266 40834
" />
<path d="M135076 40877
L134803 40834
" />
<path d="M135323 41003
L135076 40877
" />
<path d="M135519 41198
L135323 41003
" />
<path d="M135576 41311
L135519 41198
" />
<path d="M135700 41311
L135576 41311
" />
<path d="M135943 41349
L135700 41311
" />
<path d="M136163 41461
L135943 41349
" />
<path d="M136337 41635
L136163 41461
" />
<path d="M136449 41855
L136337 41635
" />
<path d="M136487 42098
L136449 41855
" />
<path d="M136487 44264
L136487 42098
" />
<path d="M132059 47709
L132102 47435
" />
<path d="M132102 47982
L132059 47709
" />
<path d="M132228 48229
L132102 47982
" />
<path d="M132424 48425
L132228 48229
" />
<path d="M132670 48550
L132424 48425
" />
<path d="M132944 48594
L132670 48550
" />
<path d="M134125 48594
L132944 48594
" />
<path d="M134398 48550
L134125 48594
" />
<path d="M134645 48425
L134398 48550
" />
<path d="M134841 48229
L134645 48425
" />
<path d="M134967 47982
L134841 48229
" />
<path d="M135010 47709
L134967 47982
" />
<path d="M134967 47435
L135010 47709
" />
<path d="M134841 47188
L134967 47435
" />
<path d="M134645 46992
L134841 47188
" />
<path d="M134398 46867
L134645 46992
" />
<path d="M134125 46823
L134398 46867
" />
<path d="M132944 46823
L134125 46823
" />
<path d="M132670 46867
L132944 46823
" />
<path d="M132424 46992
L132670 46867
" />
<path d="M132228 47188
L132424 46992
" />
<path d="M132102 47435
L132228 47188
" />
<path d="M135010 42394
L134967 42667
" />
<path d="M134967 42120
L135010 42394
" />
<path d="M134841 41873
L134967 42120
" />
<path d="M134645 41677
L134841 41873
" />
<path d="M134398 41552
L134645 41677
" />
<path d="M134125 41509
L134398 41552
" />
<path d="M132944 41509
L134125 41509
" />
<path d="M132670 41552
L132944 41509
" />
<path d="M132424 41677
L132670 41552
" />
<path d="M132228 41873
L132424 41677
" />
<path d="M132102 42120
L132228 41873
" />
<path d="M132059 42394
L132102 42120
" />
<path d="M132102 42667
L132059 42394
" />
<path d="M132228 42914
L132102 42667
" />
<path d="M132424 43110
L132228 42914
" />
<path d="M132670 43235
L132424 43110
" />
<path d="M132944 43279
L132670 43235
" />
<path d="M134125 43279
L132944 43279
" />
<path d="M134398 43235
L134125 43279
" />
<path d="M134645 43110
L134398 43235
" />
<path d="M134841 42914
L134645 43110
" />
<path d="M134967 42667
L134841 42914
" />
<path d="M134140 45504
L135715 45504
" />
<path d="M134140 46291
L134140 45504
" />
<path d="M135715 46291
L134140 46291
" />
<path d="M135715 45504
L135715 46291
" />
<path d="M135715 44598
L134140 44598
" />
<path d="M135715 43811
L135715 44598
" />
<path d="M134140 43811
L135715 43811
" />
<path d="M134140 44598
L134140 43811
" />
<path d="M129083 53186
L127508 53186
" />
<path d="M129083 52398
L129083 53186
" />
<path d="M127508 52398
L129083 52398
" />
<path d="M127508 53186
L127508 52398
" />
<path d="M129083 54879
L127508 54879
" />
<path d="M129083 54091
L129083 54879
" />
<path d="M127508 54091
L129083 54091
" />
<path d="M127508 54879
L127508 54091
" />
<path d="M125470 51255
L125427 50981
" />
<path d="M125596 51501
L125470 51255
" />
<path d="M125792 51697
L125596 51501
" />
<path d="M126038 51823
L125792 51697
" />
<path d="M126312 51866
L126038 51823
" />
<path d="M127493 51866
L126312 51866
" />
<path d="M127766 51823
L127493 51866
" />
<path d="M128013 51697
L127766 51823
" />
<path d="M128209 51501
L128013 51697
" />
<path d="M128335 51255
L128209 51501
" />
<path d="M128378 50981
L128335 51255
" />
<path d="M128335 50707
L128378 50981
" />
<path d="M128209 50461
L128335 50707
" />
<path d="M128013 50265
L128209 50461
" />
<path d="M127766 50139
L128013 50265
" />
<path d="M127493 50096
L127766 50139
" />
<path d="M126312 50096
L127493 50096
" />
<path d="M126038 50139
L126312 50096
" />
<path d="M125792 50265
L126038 50139
" />
<path d="M125596 50461
L125792 50265
" />
<path d="M125470 50707
L125596 50461
" />
<path d="M125427 50981
L125470 50707
" />
<path d="M125427 56296
L125470 56022
" />
<path d="M125470 56570
L125427 56296
" />
<path d="M125596 56816
L125470 56570
" />
<path d="M125792 57012
L125596 56816
" />
<path d="M126038 57138
L125792 57012
" />
<path d="M126312 57181
L126038 57138
" />
<path d="M127493 57181
L126312 57181
" />
<path d="M127766 57138
L127493 57181
" />
<path d="M128013 57012
L127766 57138
" />
<path d="M128209 56816
L128013 57012
" />
<path d="M128335 56570
L128209 56816
" />
<path d="M128378 56296
L128335 56570
" />
<path d="M128335 56022
L128378 56296
" />
<path d="M128209 55776
L128335 56022
" />
<path d="M128013 55580
L128209 55776
" />
<path d="M127766 55454
L128013 55580
" />
<path d="M127493 55411
L127766 55454
" />
<path d="M126312 55411
L127493 55411
" />
<path d="M126038 55454
L126312 55411
" />
<path d="M125792 55580
L126038 55454
" />
<path d="M125596 55776
L125792 55580
" />
<path d="M125470 56022
L125596 55776
" />
<path d="M129855 50686
L129817 50442
" />
<path d="M129855 52851
L129855 50686
" />
<path d="M130465 52851
L129855 52851
" />
<path d="M130465 49894
L130465 52851
" />
<path d="M137103 49894
L130465 49894
" />
<path d="M137103 45839
L137103 49894
" />
<path d="M136487 45839
L137103 45839
" />
<path d="M136487 48004
L136487 45839
" />
<path d="M136449 48247
L136487 48004
" />
<path d="M136337 48467
L136449 48247
" />
<path d="M136163 48641
L136337 48467
" />
<path d="M135943 48753
L136163 48641
" />
<path d="M135700 48791
L135943 48753
" />
<path d="M135576 48791
L135700 48791
" />
<path d="M135519 48904
L135576 48791
" />
<path d="M135323 49099
L135519 48904
" />
<path d="M135076 49225
L135323 49099
" />
<path d="M134803 49268
L135076 49225
" />
<path d="M132266 49268
L134803 49268
" />
<path d="M131992 49225
L132266 49268
" />
<path d="M131746 49099
L131992 49225
" />
<path d="M131550 48904
L131746 49099
" />
<path d="M131493 48791
L131550 48904
" />
<path d="M109924 48791
L131493 48791
" />
<path d="M109924 49898
L109924 48791
" />
<path d="M124861 49898
L109924 49898
" />
<path d="M124918 49786
L124861 49898
" />
<path d="M125114 49590
L124918 49786
" />
<path d="M125360 49464
L125114 49590
" />
<path d="M125634 49421
L125360 49464
" />
<path d="M128171 49421
L125634 49421
" />
<path d="M128444 49464
L128171 49421
" />
<path d="M128691 49590
L128444 49464
" />
<path d="M128887 49786
L128691 49590
" />
<path d="M128944 49898
L128887 49786
" />
<path d="M129068 49898
L128944 49898
" />
<path d="M129311 49937
L129068 49898
" />
<path d="M129531 50049
L129311 49937
" />
<path d="M129705 50223
L129531 50049
" />
<path d="M129817 50442
L129705 50223
" />
<path d="M141241 6633
L7726 6633
" />
<path d="M141241 102851
L141241 6633
" />
<path d="M7726 102851
L141241 102851
" />
<path d="M7726 6633
L7726 102851
" />
<path d="M17871 79199
L16296 79199
" />
<path d="M17871 78805
L17871 79199
" />
<path d="M29609 78805
L17871 78805
" />
<path d="M29609 81167
L29609 81797
" />
<path d="M17871 81167
L29609 81167
" />
<path d="M17871 80774
L17871 81167
" />
<path d="M16296 80774
L17871 80774
" />
<path d="M16296 81167
L16296 80774
" />
<path d="M15904 81167
L16296 81167
" />
<path d="M15904 80779
L15904 81167
" />
<path d="M15274 80779
L15904 80779
" />
<path d="M15274 82196
L15274 80779
" />
<path d="M15904 82196
L15274 82196
" />
<path d="M15904 81797
L15904 82196
" />
<path d="M16296 81797
L15904 81797
" />
<path d="M27204 68998
L26931 69041
" />
<path d="M27451 68872
L27204 68998
" />
<path d="M27647 68676
L27451 68872
" />
<path d="M27773 68429
L27647 68676
" />
<path d="M27816 68156
L27773 68429
" />
<path d="M27773 67882
L27816 68156
" />
<path d="M27647 67636
L27773 67882
" />
<path d="M27451 67440
L27647 67636
" />
<path d="M27204 67314
L27451 67440
" />
<path d="M26931 67271
L27204 67314
" />
<path d="M25750 67271
L26931 67271
" />
<path d="M25476 67314
L25750 67271
" />
<path d="M25230 67440
L25476 67314
" />
<path d="M25034 67636
L25230 67440
" />
<path d="M24908 67882
L25034 67636
" />
<path d="M24865 68156
L24908 67882
" />
<path d="M24050 69632
L25625 69632
" />
<path d="M24050 70420
L24050 69632
" />
<path d="M16296 82191
L16296 81797
" />
<path d="M17871 82191
L16296 82191
" />
<path d="M17871 81797
L17871 82191
" />
<path d="M29609 81797
L17871 81797
" />
<path d="M29609 84159
L29609 84789
" />
<path d="M17871 84159
L29609 84159
" />
<path d="M17871 83766
L17871 84159
" />
<path d="M16296 83766
L17871 83766
" />
<path d="M16296 84159
L16296 83766
" />
<path d="M15904 84159
L16296 84159
" />
<path d="M15904 83771
L15904 84159
" />
<path d="M15274 83771
L15904 83771
" />
<path d="M15274 85189
L15274 83771
" />
<path d="M15904 85189
L15274 85189
" />
<path d="M15904 84789
L15904 85189
" />
<path d="M16296 84789
L15904 84789
" />
<path d="M16296 85183
L16296 84789
" />
<path d="M17871 85183
L16296 85183
" />
<path d="M17871 84789
L17871 85183
" />
<path d="M29609 84789
L17871 84789
" />
<path d="M29609 87152
L29609 87782
" />
<path d="M17871 87152
L29609 87152
" />
<path d="M17871 86758
L17871 87152
" />
<path d="M16296 86758
L17871 86758
" />
<path d="M16296 87152
L16296 86758
" />
<path d="M15904 87152
L16296 87152
" />
<path d="M15904 86763
L15904 87152
" />
<path d="M15274 86763
L15904 86763
" />
<path d="M15274 87157
L15274 86763
" />
<path d="M11994 87157
L15274 87157
" />
<path d="M11994 88181
L11994 87157
" />
<path d="M12624 88181
L11994 88181
" />
<path d="M12624 87782
L12624 88181
" />
<path d="M13015 87782
L12624 87782
" />
<path d="M13015 88175
L13015 87782
" />
<path d="M14590 88175
L13015 88175
" />
<path d="M14590 87782
L14590 88175
" />
<path d="M29609 87782
L14590 87782
" />
<path d="M9858 95735
L11433 95735
" />
<path d="M9858 96128
L9858 95735
" />
<path d="M9461 96128
L9858 96128
" />
<path d="M9461 95740
L9461 96128
" />
<path d="M8831 95740
L9461 95740
" />
<path d="M8831 96758
L8831 95740
" />
<path d="M15016 96758
L8831 96758
" />
<path d="M15016 97152
L15016 96758
" />
<path d="M16477 97152
L15016 97152
" />
<path d="M26242 74795
L27817 74795
" />
<path d="M26242 75183
L26242 74795
" />
<path d="M25865 75183
L26242 75183
" />
<path d="M25865 74795
L25865 75183
" />
<path d="M25235 74795
L25865 74795
" />
<path d="M25235 76212
L25235 74795
" />
<path d="M25865 76212
L25235 76212
" />
<path d="M25865 75813
L25865 76212
" />
<path d="M26242 75813
L25865 75813
" />
<path d="M26242 76212
L26242 75813
" />
<path d="M27817 76212
L26242 76212
" />
<path d="M27817 75813
L27817 76212
" />
<path d="M29609 75813
L27817 75813
" />
<path d="M29609 78175
L29609 78805
" />
<path d="M27817 78175
L29609 78175
" />
<path d="M27817 77787
L27817 78175
" />
<path d="M25625 70420
L24050 70420
" />
<path d="M25625 69632
L25625 70420
" />
<path d="M29609 72191
L29609 72821
" />
<path d="M25625 72191
L29609 72191
" />
<path d="M25625 71601
L25625 72191
" />
<path d="M29609 90144
L29609 90774
" />
<path d="M14590 90144
L29609 90144
" />
<path d="M14590 89750
L14590 90144
" />
<path d="M13015 89750
L14590 89750
" />
<path d="M24050 71601
L25625 71601
" />
<path d="M24050 72191
L24050 71601
" />
<path d="M23388 72191
L24050 72191
" />
<path d="M15904 79204
L15274 79204
" />
<path d="M15904 78805
L15904 79204
" />
<path d="M16296 78805
L15904 78805
" />
<path d="M16296 79199
L16296 78805
" />
<path d="M25235 73220
L25235 72821
" />
<path d="M25865 73220
L25235 73220
" />
<path d="M25865 72821
L25865 73220
" />
<path d="M26242 72821
L25865 72821
" />
<path d="M29609 75183
L29609 75813
" />
<path d="M27817 75183
L29609 75183
" />
<path d="M27817 74795
L27817 75183
" />
<path d="M26242 73220
L26242 72821
" />
<path d="M27817 73220
L26242 73220
" />
<path d="M27817 72821
L27817 73220
" />
<path d="M29609 72821
L27817 72821
" />
<path d="M13015 90144
L13015 89750
" />
<path d="M12624 90144
L13015 90144
" />
<path d="M12624 89756
L12624 90144
" />
<path d="M23388 71601
L23388 72191
" />
<path d="M22767 71601
L23388 71601
" />
<path d="M22767 72821
L22767 71601
" />
<path d="M25235 72821
L22767 72821
" />
<path d="M26242 77787
L27817 77787
" />
<path d="M26242 78175
L26242 77787
" />
<path d="M25865 78175
L26242 78175
" />
<path d="M25865 77787
L25865 78175
" />
<path d="M25235 77787
L25865 77787
" />
<path d="M25235 78180
L25235 77787
" />
<path d="M15274 78180
L25235 78180
" />
<path d="M15274 79204
L15274 78180
" />
<path d="M139802 57383
L139802 61439
" />
<path d="M130465 57383
L139802 57383
" />
<path d="M130465 54426
L130465 57383
" />
<path d="M129855 54426
L130465 54426
" />
<path d="M129855 56591
L129855 54426
" />
<path d="M129817 56835
L129855 56591
" />
<path d="M129705 57054
L129817 56835
" />
<path d="M129531 57228
L129705 57054
" />
<path d="M129311 57340
L129531 57228
" />
<path d="M129068 57379
L129311 57340
" />
<path d="M128944 57379
L129068 57379
" />
<path d="M128887 57491
L128944 57379
" />
<path d="M128691 57687
L128887 57491
" />
<path d="M128444 57812
L128691 57687
" />
<path d="M128171 57856
L128444 57812
" />
<path d="M125634 57856
L128171 57856
" />
<path d="M125360 57812
L125634 57856
" />
<path d="M125114 57687
L125360 57812
" />
<path d="M124918 57491
L125114 57687
" />
<path d="M124861 57379
L124918 57491
" />
<path d="M109924 57379
L124861 57379
" />
<path d="M109924 58486
L109924 57379
" />
<path d="M134197 58486
L109924 58486
" />
<path d="M134254 58373
L134197 58486
" />
<path d="M134451 58177
L134254 58373
" />
<path d="M134697 58052
L134451 58177
" />
<path d="M134971 58008
L134697 58052
" />
<path d="M137508 58008
L134971 58008
" />
<path d="M137781 58052
L137508 58008
" />
<path d="M138028 58177
L137781 58052
" />
<path d="M138223 58373
L138028 58177
" />
<path d="M138281 58486
L138223 58373
" />
<path d="M138404 58486
L138281 58486
" />
<path d="M138648 58524
L138404 58486
" />
<path d="M138867 58636
L138648 58524
" />
<path d="M139041 58810
L138867 58636
" />
<path d="M139153 59030
L139041 58810
" />
<path d="M139192 59273
L139153 59030
" />
<path d="M139192 61439
L139192 59273
" />
<path d="M139802 61439
L139192 61439
" />
<path d="M134764 64883
L134807 64610
" />
<path d="M134807 65157
L134764 64883
" />
<path d="M134932 65403
L134807 65157
" />
<path d="M135128 65599
L134932 65403
" />
<path d="M135375 65725
L135128 65599
" />
<path d="M135649 65768
L135375 65725
" />
<path d="M136830 65768
L135649 65768
" />
<path d="M137103 65725
L136830 65768
" />
<path d="M137350 65599
L137103 65725
" />
<path d="M137545 65403
L137350 65599
" />
<path d="M137671 65157
L137545 65403
" />
<path d="M137715 64883
L137671 65157
" />
<path d="M137671 64610
L137715 64883
" />
<path d="M137545 64363
L137671 64610
" />
<path d="M137350 64167
L137545 64363
" />
<path d="M137103 64042
L137350 64167
" />
<path d="M136830 63998
L137103 64042
" />
<path d="M135649 63998
L136830 63998
" />
<path d="M135375 64042
L135649 63998
" />
<path d="M135128 64167
L135375 64042
" />
<path d="M134932 64363
L135128 64167
" />
<path d="M134807 64610
L134932 64363
" />
<path d="M137715 59568
L137671 59842
" />
<path d="M137671 59295
L137715 59568
" />
<path d="M137545 59048
L137671 59295
" />
<path d="M137350 58852
L137545 59048
" />
<path d="M137103 58727
L137350 58852
" />
<path d="M136830 58683
L137103 58727
" />
<path d="M135649 58683
L136830 58683
" />
<path d="M135375 58727
L135649 58683
" />
<path d="M135128 58852
L135375 58727
" />
<path d="M134932 59048
L135128 58852
" />
<path d="M134807 59295
L134932 59048
" />
<path d="M134764 59568
L134807 59295
" />
<path d="M134807 59842
L134764 59568
" />
<path d="M134932 60088
L134807 59842
" />
<path d="M135128 60284
L134932 60088
" />
<path d="M135375 60410
L135128 60284
" />
<path d="M135649 60453
L135375 60410
" />
<path d="M136830 60453
L135649 60453
" />
<path d="M137103 60410
L136830 60453
" />
<path d="M137350 60284
L137103 60410
" />
<path d="M137545 60088
L137350 60284
" />
<path d="M137671 59842
L137545 60088
" />
<path d="M136844 62698
L138419 62698
" />
<path d="M136844 63486
L136844 62698
" />
<path d="M138419 63486
L136844 63486
" />
<path d="M138419 62698
L138419 63486
" />
<path d="M138419 61753
L136844 61753
" />
<path d="M138419 60966
L138419 61753
" />
<path d="M136844 60966
L138419 60966
" />
<path d="M136844 61753
L136844 60966
" />
<path d="M139802 63013
L139802 67073
" />
<path d="M139192 63013
L139802 63013
" />
<path d="M139192 65179
L139192 63013
" />
<path d="M139153 65422
L139192 65179
" />
<path d="M139041 65641
L139153 65422
" />
<path d="M138867 65816
L139041 65641
" />
<path d="M138648 65927
L138867 65816
" />
<path d="M138404 65966
L138648 65927
" />
<path d="M138281 65966
L138404 65966
" />
<path d="M138223 66078
L138281 65966
" />
<path d="M138028 66274
L138223 66078
" />
<path d="M137781 66400
L138028 66274
" />
<path d="M137508 66443
L137781 66400
" />
<path d="M134971 66443
L137508 66443
" />
<path d="M134697 66400
L134971 66443
" />
<path d="M134451 66274
L134697 66400
" />
<path d="M134254 66078
L134451 66274
" />
<path d="M134197 65966
L134254 66078
" />
<path d="M109924 65966
L134197 65966
" />
<path d="M109924 67073
L109924 65966
" />
<path d="M128482 67073
L109924 67073
" />
<path d="M128539 66961
L128482 67073
" />
<path d="M128735 66765
L128539 66961
" />
<path d="M128982 66639
L128735 66765
" />
<path d="M129255 66596
L128982 66639
" />
<path d="M131792 66596
L129255 66596
" />
<path d="M132066 66639
L131792 66596
" />
<path d="M132312 66765
L132066 66639
" />
<path d="M132508 66961
L132312 66765
" />
<path d="M132566 67073
L132508 66961
" />
<path d="M132689 67073
L132566 67073
" />
<path d="M132932 67112
L132689 67073
" />
<path d="M133152 67224
L132932 67112
" />
<path d="M133326 67398
L133152 67224
" />
<path d="M133438 67617
L133326 67398
" />
<path d="M133477 67861
L133438 67617
" />
<path d="M133477 70026
L133477 67861
" />
<path d="M134087 70026
L133477 70026
" />
<path d="M134087 67073
L134087 70026
" />
<path d="M139802 67073
L134087 67073
" />
<path d="M131172 69563
L132747 69563
" />
<path d="M131172 70350
L131172 69563
" />
<path d="M132747 70350
L131172 70350
" />
<path d="M132747 69563
L132747 70350
" />
<path d="M131999 68156
L131956 68429
" />
<path d="M131956 67882
L131999 68156
" />
<path d="M131830 67636
L131956 67882
" />
<path d="M131634 67440
L131830 67636
" />
<path d="M131388 67314
L131634 67440
" />
<path d="M131114 67271
L131388 67314
" />
<path d="M129933 67271
L131114 67271
" />
<path d="M129660 67314
L129933 67271
" />
<path d="M129413 67440
L129660 67314
" />
<path d="M129217 67636
L129413 67440
" />
<path d="M129092 67882
L129217 67636
" />
<path d="M129048 68156
L129092 67882
" />
<path d="M129092 68429
L129048 68156
" />
<path d="M129217 68676
L129092 68429
" />
<path d="M129413 68872
L129217 68676
" />
<path d="M129660 68998
L129413 68872
" />
<path d="M129933 69041
L129660 68998
" />
<path d="M131114 69041
L129933 69041
" />
<path d="M131388 68998
L131114 69041
" />
<path d="M131634 68872
L131388 68998
" />
<path d="M131830 68676
L131634 68872
" />
<path d="M131956 68429
L131830 68676
" />
<path d="M134087 71601
L134087 72821
" />
<path d="M133477 71601
L134087 71601
" />
<path d="M133477 72191
L133477 71601
" />
<path d="M132747 72191
L133477 72191
" />
<path d="M132747 71512
L132747 72191
" />
<path d="M131172 71512
L132747 71512
" />
<path d="M131172 72191
L131172 71512
" />
<path d="M109924 72191
L131172 72191
" />
<path d="M109924 72821
L109924 72191
" />
<path d="M111732 72821
L109924 72821
" />
<path d="M111732 73214
L111732 72821
" />
<path d="M113306 73214
L111732 73214
" />
<path d="M113306 72821
L113306 73214
" />
<path d="M113708 72821
L113306 72821
" />
<path d="M113708 73215
L113708 72821
" />
<path d="M114338 73215
L113708 73215
" />
<path d="M114338 72821
L114338 73215
" />
<path d="M134087 72821
L114338 72821
" />
<path d="M130781 93136
L130781 94160
" />
<path d="M127500 93136
L130781 93136
" />
<path d="M127500 92742
L127500 93136
" />
<path d="M126870 92742
L127500 92742
" />
<path d="M126870 93136
L126870 92742
" />
<path d="M126459 93136
L126870 93136
" />
<path d="M126459 92790
L126459 93136
" />
<path d="M124884 92790
L126459 92790
" />
<path d="M124884 93136
L124884 92790
" />
<path d="M109924 93136
L124884 93136
" />
<path d="M109924 93766
L109924 93136
" />
<path d="M128178 93766
L109924 93766
" />
<path d="M128178 94160
L128178 93766
" />
<path d="M129753 94160
L128178 94160
" />
<path d="M129753 93766
L129753 94160
" />
<path d="M130151 93766
L129753 93766
" />
<path d="M130151 94160
L130151 93766
" />
<path d="M130781 94160
L130151 94160
" />
<path d="M130781 95735
L130781 96758
" />
<path d="M130151 95735
L130781 95735
" />
<path d="M130151 96128
L130151 95735
" />
<path d="M129753 96128
L130151 96128
" />
<path d="M129753 95735
L129753 96128
" />
<path d="M128178 95735
L129753 95735
" />
<path d="M128178 96128
L128178 95735
" />
<path d="M109924 96128
L128178 96128
" />
<path d="M109924 96758
L109924 96128
" />
<path d="M122679 96758
L109924 96758
" />
<path d="M122679 97152
L122679 96758
" />
<path d="M124518 97152
L122679 97152
" />
<path d="M124518 96758
L124518 97152
" />
<path d="M130781 96758
L124518 96758
" />
<path d="M124518 98727
L124518 99750
" />
<path d="M122679 98727
L124518 98727
" />
<path d="M122679 99120
L122679 98727
" />
<path d="M109924 99120
L122679 99120
" />
<path d="M109924 99750
L109924 99120
" />
<path d="M124518 99750
L109924 99750
" />
<path d="M108350 14919
L108350 15549
" />
<path d="M70554 14919
L108350 14919
" />
<path d="M70554 15549
L70554 14919
" />
<path d="M108350 15549
L70554 15549
" />
<path d="M108350 23029
L108350 24136
" />
<path d="M70554 23029
L108350 23029
" />
<path d="M70554 24136
L70554 23029
" />
<path d="M108350 24136
L70554 24136
" />
<path d="M108350 31616
L108350 32741
" />
<path d="M70554 31616
L108350 31616
" />
<path d="M70554 32741
L70554 31616
" />
<path d="M108350 32741
L70554 32741
" />
<path d="M108350 40222
L108350 41311
" />
<path d="M70554 40222
L108350 40222
" />
<path d="M70554 41311
L70554 40222
" />
<path d="M108350 41311
L70554 41311
" />
<path d="M108350 48791
L108350 49898
" />
<path d="M70554 48791
L108350 48791
" />
<path d="M70554 49898
L70554 48791
" />
<path d="M108350 49898
L70554 49898
" />
<path d="M108350 57379
L108350 58486
" />
<path d="M70554 57379
L108350 57379
" />
<path d="M70554 58486
L70554 57379
" />
<path d="M108350 58486
L70554 58486
" />
<path d="M108350 65966
L108350 67073
" />
<path d="M70554 65966
L108350 65966
" />
<path d="M70554 67073
L70554 65966
" />
<path d="M108350 67073
L70554 67073
" />
<path d="M108350 72191
L108350 72821
" />
<path d="M70554 72191
L108350 72191
" />
<path d="M70554 72821
L70554 72191
" />
<path d="M108350 72821
L70554 72821
" />
<path d="M108350 75183
L108350 75813
" />
<path d="M70554 75183
L108350 75183
" />
<path d="M70554 75813
L70554 75183
" />
<path d="M108350 75813
L70554 75813
" />
<path d="M108350 78175
L108350 78805
" />
<path d="M70554 78175
L108350 78175
" />
<path d="M70554 78805
L70554 78175
" />
<path d="M108350 78805
L70554 78805
" />
<path d="M108350 81167
L108350 81797
" />
<path d="M70554 81167
L108350 81167
" />
<path d="M70554 81797
L70554 81167
" />
<path d="M108350 81797
L70554 81797
" />
<path d="M108350 84159
L108350 84789
" />
<path d="M70554 84159
L108350 84159
" />
<path d="M70554 84789
L70554 84159
" />
<path d="M108350 84789
L70554 84789
" />
<path d="M108350 87152
L108350 87782
" />
<path d="M70554 87152
L108350 87152
" />
<path d="M70554 87782
L70554 87152
" />
<path d="M108350 87782
L70554 87782
" />
<path d="M108350 90144
L108350 90774
" />
<path d="M70554 90144
L108350 90144
" />
<path d="M70554 90774
L70554 90144
" />
<path d="M108350 90774
L70554 90774
" />
<path d="M108350 93136
L108350 93766
" />
<path d="M70554 93136
L108350 93136
" />
<path d="M70554 93766
L70554 93136
" />
<path d="M108350 93766
L70554 93766
" />
<path d="M108350 96128
L108350 96758
" />
<path d="M70554 96128
L108350 96128
" />
<path d="M70554 96758
L70554 96128
" />
<path d="M108350 96758
L70554 96758
" />
<path d="M108350 99120
L108350 99750
" />
<path d="M70562 99120
L108350 99120
" />
<path d="M70562 99750
L70562 99120
" />
<path d="M108350 99750
L70562 99750
" />
<path d="M68987 99120
L68987 99750
" />
<path d="M31184 99120
L68987 99120
" />
<path d="M31184 99750
L31184 99120
" />
<path d="M68987 99750
L31184 99750
" />
<path d="M29609 65966
L29609 67073
" />
<path d="M23039 65966
L29609 65966
" />
<path d="M22981 66078
L23039 65966
" />
<path d="M22786 66274
L22981 66078
" />
<path d="M22539 66400
L22786 66274
" />
<path d="M22265 66443
L22539 66400
" />
<path d="M19728 66443
L22265 66443
" />
<path d="M19455 66400
L19728 66443
" />
<path d="M19208 66274
L19455 66400
" />
<path d="M19012 66078
L19208 66274
" />
<path d="M18955 65966
L19012 66078
" />
<path d="M18832 65966
L18955 65966
" />
<path d="M18588 65927
L18832 65966
" />
<path d="M18369 65816
L18588 65927
" />
<path d="M18195 65641
L18369 65816
" />
<path d="M18083 65422
L18195 65641
" />
<path d="M18044 65179
L18083 65422
" />
<path d="M18044 63013
L18044 65179
" />
<path d="M17414 63013
L18044 63013
" />
<path d="M17414 67073
L17414 63013
" />
<path d="M22767 67073
L17414 67073
" />
<path d="M22767 70026
L22767 67073
" />
<path d="M23388 70026
L22767 70026
" />
<path d="M23388 67861
L23388 70026
" />
<path d="M23426 67617
L23388 67861
" />
<path d="M23538 67398
L23426 67617
" />
<path d="M23712 67224
L23538 67398
" />
<path d="M23932 67112
L23712 67224
" />
<path d="M24175 67073
L23932 67112
" />
<path d="M24299 67073
L24175 67073
" />
<path d="M24356 66961
L24299 67073
" />
<path d="M24552 66765
L24356 66961
" />
<path d="M24798 66639
L24552 66765
" />
<path d="M25072 66596
L24798 66639
" />
<path d="M27609 66596
L25072 66596
" />
<path d="M27882 66639
L27609 66596
" />
<path d="M28129 66765
L27882 66639
" />
<path d="M28325 66961
L28129 66765
" />
<path d="M28382 67073
L28325 66961
" />
<path d="M29609 67073
L28382 67073
" />
<path d="M24908 68429
L24865 68156
" />
<path d="M25034 68676
L24908 68429
" />
<path d="M25230 68872
L25034 68676
" />
<path d="M25476 68998
L25230 68872
" />
<path d="M25750 69041
L25476 68998
" />
<path d="M26931 69041
L25750 69041
" />
<path d="M29609 96128
L29609 96758
" />
<path d="M11433 96128
L29609 96128
" />
<path d="M11433 95735
L11433 96128
" />
<path d="M16477 96758
L16477 97152
" />
<path d="M29609 96758
L16477 96758
" />
<path d="M29609 99120
L29609 99750
" />
<path d="M16477 99120
L29609 99120
" />
<path d="M16477 98727
L16477 99120
" />
<path d="M15016 98727
L16477 98727
" />
<path d="M15016 99750
L15016 98727
" />
<path d="M29609 99750
L15016 99750
" />
<path d="M11994 89756
L12624 89756
" />
<path d="M11994 91173
L11994 89756
" />
<path d="M12624 91173
L11994 91173
" />
<path d="M12624 90774
L12624 91173
" />
<path d="M13015 90774
L12624 90774
" />
<path d="M13015 91168
L13015 90774
" />
<path d="M14590 91168
L13015 91168
" />
<path d="M14590 90774
L14590 91168
" />
<path d="M29609 90774
L14590 90774
" />
<path d="M29609 93136
L29609 93766
" />
<path d="M14590 93136
L29609 93136
" />
<path d="M14590 92742
L14590 93136
" />
<path d="M13015 92742
L14590 92742
" />
<path d="M13015 93136
L13015 92742
" />
<path d="M12624 93136
L13015 93136
" />
<path d="M12624 92748
L12624 93136
" />
<path d="M11994 92748
L12624 92748
" />
<path d="M11994 93106
L11994 92748
" />
<path d="M8831 93106
L11994 93106
" />
<path d="M8831 94165
L8831 93106
" />
<path d="M9461 94165
L8831 94165
" />
<path d="M9461 93766
L9461 94165
" />
<path d="M9858 93766
L9461 93766
" />
<path d="M9858 94160
L9858 93766
" />
<path d="M11433 94160
L9858 94160
" />
<path d="M11433 93766
L11433 94160
" />
<path d="M29609 93766
L11433 93766
" />
<g >
</g>
<g >
</g>
<g >
</g>
<g >
</g>
<g >
</g>
<g >
</g>
<g >
</g>
<g >
</g>
<g >
</g>
<g >
</g>
<g >
</g>
<g >
</g>
<g >
</g>
<g >
</g>
<g >
</g>
<g >
</g>
<g >
</g>
<g >
</g>
<g >
</g>
<g >
</g>
<g >
</g>
<g >
</g>
<g >
</g>
<g >
</g>
<g >
</g>
<g >
</g>
<g >
</g>
<g >
</g>
<g >
</g>
<g >
</g>
<g >
</g>
<g >
</g>
<g >
</g>
<g >
</g>
<g >
</g>
<g >
</g>
<g >
</g>
<g >
</g>
<g >
</g>
<g >
</g>
<g >
</g>
<g >
</g>
<g >
</g>
<g >
</g>
<g >
</g>
<g >
</g>
<g >
</g>
<g >
</g>
<g >
</g>
<g >
</g>
<g >
</g>
<g >
</g>
<g >
</g>
<g >
</g>
<g >
</g>
<g >
</g>
<g >
</g>
<g >
</g>
<g >
</g>
<g >
</g>
<g >
</g>
<g >
</g>
<g >
</g>
<g >
</g>
<g >
</g>
<g >
</g>
<g >
</g>
<g >
</g>
<g >
</g>
<g >
</g>
<g >
</g>
<g >
</g>
<g >
</g>
<g >
</g>
<g >
</g>
<g >
</g>
<g >
</g>
<g >
</g>
<g >
</g>
<g >
</g>
<g >
</g>
<g >
</g>
<g >
</g>
<g >
</g>
<g >
</g>
<g >
</g>
<g >
</g>
<g >
</g>
<g >
</g>
<g >
</g>
<g >
</g>
<g >
</g>
<g >
</g>
<g >
</g>
<g >
</g>
<g >
</g>
<g >
</g>
<g >
</g>
<g >
</g>
<g >
</g>
<g >
</g>
<g >
</g>
<g >
</g>
<g >
</g>
<g >
</g>
<g >
</g>
<g >
</g>
<g >
</g>
<g >
</g>
<g >
</g>
<g >
</g>
<g >
</g>
<g >
</g>
<g >
</g>
<g >
</g>
<g >
</g>
<g >
</g>
<g >
</g>
<g >
</g>
<g >
</g>
<g >
</g>
<g >
</g>
<g >
</g>
<g >
</g>
<g >
</g>
<g >
</g>
<g >
</g>
<g >
</g>
<g >
</g>
<g >
</g>
<g >
</g>
<g >
</g>
<g >
</g>
<g >
</g>
<g >
</g>
<g >
</g>
<g >
</g>
<g >
</g>
<g >
</g>
<g >
</g>
<g >
</g>
<g >
</g>
<g >
</g>
<g >
</g>
<g >
</g>
<g >
</g>
<g >
</g>
<g >
</g>
<g >
</g>
<g >
</g>
<g >
</g>
<g >
</g>
<g >
</g>
<g >
</g>
<g >
</g>
<g >
</g>
<g >
</g>
<g >
</g>
<g >
</g>
<g >
</g>
<g >
</g>
<g >
</g>
<g >
</g>
<g >
</g>
<g >
</g>
<g >
</g>
<g >
</g>
<g >
</g>
<g >
</g>
<g >
</g>
<g >
</g>
<g >
</g>
<g >
</g>
<g >
</g>
<g >
</g>
<g >
</g>
<g >
</g>
<g >
</g>
<g >
</g>
<g >
</g>
<g >
</g>
<g >
</g>
<g >
</g>
<g >
</g>
<g >
</g>
<g >
</g>
<g >
</g>
<g >
</g>
<g >
</g>
<g >
</g>
<g >
</g>
<g >
</g>
<g >
</g>
<g >
</g>
<g >
</g>
<g >
</g>
<g >
</g>
<g >
</g>
<g >
</g>
<g >
</g>
<g >
</g>
<g >
</g>
<g >
</g>
<g >
</g>
<g >
</g>
<g >
</g>
<g >
</g>
<g >
</g>
<g >
</g>
<g >
</g>
<g >
</g>
<g >
</g>
<g >
</g>
<g >
</g>
<g >
</g>
<g >
</g>
<g >
</g>
<g >
</g>
<g >
</g>
<g >
</g>
<g >
</g>
<g >
</g>
<g >
</g>
<g >
</g>
<g >
</g>
<g >
</g>
<g >
</g>
<g >
</g>
<g >
</g>
<g >
</g>
<g >
</g>
<g >
</g>
<g >
</g>
<g >
</g>
<g >
</g>
<g >
</g>
<g >
</g>
<g >
</g>
<g >
</g>
<g >
</g>
<g >
</g>
<g >
</g>
<g >
</g>
<g >
</g>
<g >
</g>
<g >
</g>
<g >
</g>
<g >
</g>
<g >
</g>
<g >
</g>
<g >
</g>
<g >
</g>
<g >
</g>
<g >
</g>
<g >
</g>
<g >
</g>
<g >
</g>
<g >
</g>
<g >
</g>
<g >
</g>
<g >
</g>
<g >
</g>
<g >
</g>
<g >
</g>
<g >
</g>
<g >
</g>
<g >
</g>
<g >
</g>
<g >
</g>
<g >
</g>
<g >
</g>
<g >
</g>
<g >
</g>
<g >
</g>
<g >
</g>
<g >
</g>
<g >
</g>
<g >
</g>
<g >
</g>
<g >
</g>
<g >
</g>
<g >
</g>
<g >
</g>
<g >
</g>
<g >
</g>
<g >
</g>
<g >
</g>
<g >
</g>
<g >
</g>
<g >
</g>
<g >
</g>
<g >
</g>
<g >
</g>
<g >
</g>
<g >
</g>
<g >
</g>
<g >
</g>
<g >
</g>
<g >
</g>
<g >
</g>
<g >
</g>
<g >
</g>
<g >
</g>
<g >
</g>
<g >
</g>
<g >
</g>
<g >
</g>
<g >
</g>
<g >
</g>
<g >
</g>
<g >
</g>
<g >
</g>
<g >
</g>
<g >
</g>
<g >
</g>
<g >
</g>
<g >
</g>
<g >
</g>
<g >
</g>
<g >
</g>
<g >
</g>
<g >
</g>
<g >
</g>
<g >
</g>
<g >
</g>
<g >
</g>
<g >
</g>
<g >
</g>
<g >
</g>
<g >
</g>
<g >
</g>
<g >
</g>
<g >
</g>
<g >
</g>
<g >
</g>
<g >
</g>
<g >
</g>
<g >
</g>
<g >
</g>
<g >
</g>
<g >
</g>
<g >
</g>
<g >
</g>
<g >
</g>
<g >
</g>
<g >
</g>
<g >
</g>
<g >
</g>
<g >
</g>
<g >
</g>
<g >
</g>
<g >
</g>
<g >
</g>
<g >
</g>
<g >
</g>
<g >
</g>
<g >
</g>
<g >
</g>
<g >
</g>
<g >
</g>
<g >
</g>
<g >
</g>
<g >
</g>
<g >
</g>
<g >
</g>
<g >
</g>
<g >
</g>
<g >
</g>
<g >
</g>
<g >
</g>
<g >
</g>
<g >
</g>
<g >
</g>
<g >
</g>
<g >
</g>
<g >
</g>
<g >
</g>
<g >
</g>
<g >
</g>
<g >
</g>
<g >
</g>
<g >
</g>
<g >
</g>
<g >
</g>
<g >
</g>
<g >
</g>
<g >
</g>
<g >
</g>
<g >
</g>
<g >
</g>
<g >
</g>
<g >
</g>
<g >
</g>
<g >
</g>
<g >
</g>
<g >
</g>
<g >
</g>
<g >
</g>
<g >
</g>
<g >
</g>
<g >
</g>
<g >
</g>
<g >
</g>
<g >
</g>
<g >
</g>
<g >
</g>
<g >
</g>
<g >
</g>
<g >
</g>
<g >
</g>
<g >
</g>
<g >
</g>
<g >
</g>
<g >
</g>
<g >
</g>
<g >
</g>
<g >
</g>
<g >
</g>
<g >
</g>
<g >
</g>
<g >
</g>
<g >
</g>
<g >
</g>
<g >
</g>
<g >
</g>
<g >
</g>
<g >
</g>
<g >
</g>
<g >
</g>
<g >
</g>
<g >
</g>
<g >
</g>
<g >
</g>
<g >
</g>
<g >
</g>
<g >
</g>
<g >
</g>
<g >
</g>
<g >
</g>
<g >
</g>
<g >
</g>
<g >
</g>
<g >
</g>
<g >
</g>
<g >
</g>
<g >
</g>
<g >
</g>
<g >
</g>
<g >
</g>
<g >
</g>
<g >
</g>
<g >
</g>
<g >
</g>
<g >
</g>
<g >
</g>
<g >
</g>
<g >
</g>
<g >
</g>
<g >
</g>
<g >
</g>
<g >
</g>
<g >
</g>
<g >
</g>
<g >
</g>
<g >
</g>
<g >
</g>
<g >
</g>
<g >
</g>
<g >
</g>
<g >
</g>
<g >
</g>
<g >
</g>
<g >
</g>
<g >
</g>
<g >
</g>
<g >
</g>
<g >
</g>
<g >
</g>
<g >
</g>
<g >
</g>
<g >
</g>
<g >
</g>
<g >
</g>
<g >
</g>
<g >
</g>
<g >
</g>
<g >
</g>
<g >
</g>
<g >
</g>
<g >
</g>
<g >
</g>
<g >
</g>
<g >
</g>
<g >
</g>
<g >
</g>
<g >
</g>
<g >
</g>
<g >
</g>
<g >
</g>
<g >
</g>
<g >
</g>
<g >
</g>
<g >
</g>
<g >
</g>
<g >
</g>
<g >
</g>
<g >
</g>
<g >
</g>
<g >
</g>
<g >
</g>
<g >
</g>
<g >
</g>
<g >
</g>
<g >
</g>
<g >
</g>
<g >
</g>
<g >
</g>
<g >
</g>
<g >
</g>
<g >
</g>
<g >
</g>
<g >
</g>
<g >
</g>
<g >
</g>
<g >
</g>
<g >
</g>
<g >
</g>
<g >
</g>
<g >
</g>
<g >
</g>
<g >
</g>
<g >
</g>
<g >
</g>
<g >
</g>
<g >
</g>
<g >
</g>
<g >
</g>
<g >
</g>
<g >
</g>
<g >
</g>
<g >
</g>
<g >
</g>
<g >
</g>
<g >
</g>
<g >
</g>
<g >
</g>
<g >
</g>
<g >
</g>
<g >
</g>
<g >
</g>
<g >
</g>
<g >
</g>
<g >
</g>
<g >
</g>
<g >
</g>
<g >
</g>
<g >
</g>
<g >
</g>
<g >
</g>
<g >
</g>
<g >
</g>
<g >
</g>
<g >
</g>
<g >
</g>
<g >
</g>
<g >
</g>
<g >
</g>
<g >
</g>
<g >
</g>
<g >
</g>
<g >
</g>
<g >
</g>
<g >
</g>
<g >
</g>
<g >
</g>
<g >
</g>
<g >
</g>
<g >
</g>
<g >
</g>
<g >
</g>
<g >
</g>
<g >
</g>
<g >
</g>
<g >
</g>
<g >
</g>
<g >
</g>
<g >
</g>
<g >
</g>
<g >
</g>
<g >
</g>
<g >
</g>
<g >
</g>
<g >
</g>
<g >
</g>
<g >
</g>
<g >
</g>
<g >
</g>
<g >
</g>
<g >
</g>
<g >
</g>
<g >
</g>
<g >
</g>
<g >
</g>
<g >
</g>
<g >
</g>
<g >
</g>
<g >
</g>
<g >
</g>
<g >
</g>
<g >
</g>
<g >
</g>
<g >
</g>
<g >
</g>
<g >
</g>
<g >
</g>
<g >
</g>
<g >
</g>
<g >
</g>
<g >
</g>
<g >
</g>
<g >
</g>
<g >
</g>
<g >
</g>
<g >
</g>
<g >
</g>
<g >
</g>
<g >
</g>
<g >
</g>
<g >
</g>
<g >
</g>
<g >
</g>
<g >
</g>
<g >
</g>
<g >
</g>
<g >
</g>
<g >
</g>
<g >
</g>
<g >
</g>
<g >
</g>
<g >
</g>
<g >
</g>
<g >
</g>
<g >
</g>
<g >
</g>
<g >
</g>
<g >
</g>
<g >
</g>
<g >
</g>
<g >
</g>
<g >
</g>
<g >
</g>
<g >
</g>
<g >
</g>
<g >
</g>
<g >
</g>
<g >
</g>
<g >
</g>
<g >
</g>
<g >
</g>
<g >
</g>
<g >
</g>
<g >
</g>
<g >
</g>
<g >
</g>
<g >
</g>
<g >
</g>
<g >
</g>
<g >
</g>
<g >
</g>
<g >
</g>
<g >
</g>
<g >
</g>
<g >
</g>
<g >
</g>
<g >
</g>
<g >
</g>
<g >
</g>
<g >
</g>
<g >
</g>
<g >
</g>
<g >
</g>
<g >
</g>
<g >
</g>
<g >
</g>
<g >
</g>
<g >
</g>
<g >
</g>
<g >
</g>
<g >
</g>
<g >
</g>
<g >
</g>
<g >
</g>
<g >
</g>
<g >
</g>
<g >
</g>
<g >
</g>
<g >
</g>
<g >
</g>
<g >
</g>
<g >
</g>
<g >
</g>
<g >
</g>
<g >
</g>
<g >
</g>
<g >
</g>
<g >
</g>
<g >
</g>
<g >
</g>
<g >
</g>
<g >
</g>
<g >
</g>
<g >
</g>
<g >
</g>
<g >
</g>
<g >
</g>
<g >
</g>
<g >
</g>
<g >
</g>
<g >
</g>
<g >
</g>
<g >
</g>
<g >
</g>
<g >
</g>
<g >
</g>
<g >
</g>
<g >
</g>
<g >
</g>
<g >
</g>
<g >
</g>
<g >
</g>
<g >
</g>
<g >
</g>
<g >
</g>
<g >
</g>
<g >
</g>
<g >
</g>
<g >
</g>
<g >
</g>
<g >
</g>
<g >
</g>
<g >
</g>
<g >
</g>
<g >
</g>
<g >
</g>
<g >
</g>
<g >
</g>
<g >
</g>
<g >
</g>
<g >
</g>
<g >
</g>
<g >
</g>
<g >
</g>
<g >
</g>
<g >
</g>
<g >
</g>
<g >
</g>
<g >
</g>
<g >
</g>
<g >
</g>
<g >
</g>
<g >
</g>
<g >
</g>
<g >
</g>
<g >
</g>
<g >
</g>
<g >
</g>
<g >
</g>
<g >
</g>
<g >
</g>
<g >
</g>
<g >
</g>
<g >
</g>
<g >
</g>
<g >
</g>
<g >
</g>
<g >
</g>
<g >
</g>
<g >
</g>
<g >
</g>
<g >
</g>
<g >
</g>
<g >
</g>
<g >
</g>
<g >
</g>
<g >
</g>
<g >
</g>
<g >
</g>
<g >
</g>
<g >
</g>
<g >
</g>
<g >
</g>
<g >
</g>
<g >
</g>
<g >
</g>
<g >
</g>
<g >
</g>
<g >
</g>
<g >
</g>
<g >
</g>
<g >
</g>
<g >
</g>
<g >
</g>
<g >
</g>
<g >
</g>
<g >
</g>
<g >
</g>
<g >
</g>
<g >
</g>
<g >
</g>
<g >
</g>
<g >
</g>
<g >
</g>
<g >
</g>
<g >
</g>
<g >
</g>
<g >
</g>
<g >
</g>
<g >
</g>
<g >
</g>
<g >
</g>
<g >
</g>
<g >
</g>
<g >
</g>
<g >
</g>
<g >
</g>
<g >
</g>
<g >
</g>
<g >
</g>
<g >
</g>
<g >
</g>
<g >
</g>
<g >
</g>
<g >
</g>
<g >
</g>
<g >
</g>
<g >
</g>
<g >
</g>
<g >
</g>
<g >
</g>
<g >
</g>
<g >
</g>
<g >
</g>
<g >
</g>
<g >
</g>
<g >
</g>
<g >
</g>
<g >
</g>
<g >
</g>
<g >
</g>
<g >
</g>
<g >
</g>
<g >
</g>
<g >
</g>
<g >
</g>
<g >
</g>
<g >
</g>
<g >
</g>
<g >
</g>
<g >
</g>
<g >
</g>
<g >
</g>
<g >
</g>
<g >
</g>
<g >
</g>
<g >
</g>
<g >
</g>
<g >
</g>
<g >
</g>
<g >
</g>
<g >
</g>
<g >
</g>
<g >
</g>
<g >
</g>
<g >
</g>
<g >
</g>
<g >
</g>
<g >
</g>
<g >
</g>
<g >
</g>
<g >
</g>
<g >
</g>
<g >
</g>
<g >
</g>
<g >
</g>
<g >
</g>
<g >
</g>
<g >
</g>
<g >
</g>
<g >
</g>
<g >
</g>
<g >
</g>
<g >
</g>
<g >
</g>
<g >
</g>
<g >
</g>
<g >
</g>
<g >
</g>
<g >
</g>
<g >
</g>
<g >
</g>
<g >
</g>
<g >
</g>
<g >
</g>
<g >
</g>
<g >
</g>
<g >
</g>
<g >
</g>
<g >
</g>
<g >
</g>
<g >
</g>
<g >
</g>
<g >
</g>
<g >
</g>
<g >
</g>
<g >
</g>
<g >
</g>
<g >
</g>
<g >
</g>
<g >
</g>
<g >
</g>
<g >
</g>
<g >
</g>
<g >
</g>
<g >
</g>
<g >
</g>
<g >
</g>
<g >
</g>
<g >
</g>
<g >
</g>
<g >
</g>
<g >
</g>
<g >
</g>
<g >
</g>
<g >
</g>
<g >
</g>
<g >
</g>
<g >
</g>
<g >
</g>
<g >
</g>
<g >
</g>
<g >
</g>
<g >
</g>
<g >
</g>
</g> 
</svg>
