G04 #@! TF.GenerationSoftware,KiCad,Pcbnew,(5.1.0-0)*
G04 #@! TF.CreationDate,2019-04-18T11:47:57-07:00*
G04 #@! TF.ProjectId,Panel2,50616e65-6c32-42e6-9b69-6361645f7063,rev?*
G04 #@! TF.SameCoordinates,Original*
G04 #@! TF.FileFunction,Legend,Bot*
G04 #@! TF.FilePolarity,Positive*
%FSLAX46Y46*%
G04 Gerber Fmt 4.6, Leading zero omitted, Abs format (unit mm)*
G04 Created by KiCad (PCBNEW (5.1.0-0)) date 2019-04-18 11:47:57*
%MOMM*%
%LPD*%
G04 APERTURE LIST*
%ADD10C,0.300000*%
%ADD11C,0.200000*%
G04 APERTURE END LIST*
D10*
X291024285Y-28420000D02*
X289595714Y-28420000D01*
X291310000Y-29277142D02*
X290310000Y-26277142D01*
X289310000Y-29277142D01*
X63577285Y-28547000D02*
X62148714Y-28547000D01*
X63863000Y-29404142D02*
X62863000Y-26404142D01*
X61863000Y-29404142D01*
X48353857Y-151189714D02*
X47353857Y-151189714D01*
X46925285Y-152761142D02*
X48353857Y-152761142D01*
X48353857Y-149761142D01*
X46925285Y-149761142D01*
X352000857Y-151266714D02*
X351000857Y-151266714D01*
X350572285Y-152838142D02*
X352000857Y-152838142D01*
X352000857Y-149838142D01*
X350572285Y-149838142D01*
D11*
X297564000Y-248117000D02*
X297564000Y-249387000D01*
X297437000Y-250784000D02*
X298707000Y-250784000D01*
X298707000Y-248752000D02*
X297564000Y-249387000D01*
X297564000Y-248117000D02*
X298707000Y-248752000D01*
X298072000Y-246339000D02*
X298072000Y-247609000D01*
X297437000Y-246974000D02*
X298707000Y-246974000D01*
X179581000Y-248244000D02*
X180724000Y-248879000D01*
X180724000Y-248879000D02*
X179581000Y-249514000D01*
X179454000Y-247101000D02*
X180724000Y-247101000D01*
X180089000Y-246466000D02*
X180089000Y-247736000D01*
X179454000Y-250911000D02*
X180724000Y-250911000D01*
X179581000Y-248244000D02*
X179581000Y-249514000D01*
X63376000Y-247990000D02*
X64519000Y-248625000D01*
X64519000Y-248625000D02*
X63376000Y-249260000D01*
X63249000Y-246847000D02*
X64519000Y-246847000D01*
X63884000Y-246212000D02*
X63884000Y-247482000D01*
X63249000Y-250657000D02*
X64519000Y-250657000D01*
X63376000Y-247990000D02*
X63376000Y-249260000D01*
D10*
X40595428Y-248664714D02*
X41595428Y-248664714D01*
X41595428Y-250236142D02*
X41595428Y-247236142D01*
X40166857Y-247236142D01*
X312883428Y-248664714D02*
X313883428Y-248664714D01*
X313883428Y-250236142D02*
X313883428Y-247236142D01*
X312454857Y-247236142D01*
D11*
X35842000Y-240652000D02*
X36985000Y-241287000D01*
X36985000Y-241287000D02*
X35842000Y-241922000D01*
X35715000Y-239128000D02*
X36985000Y-239128000D01*
X36350000Y-238493000D02*
X36350000Y-239763000D01*
X35715000Y-243319000D02*
X36985000Y-243319000D01*
X35842000Y-240652000D02*
X35842000Y-241922000D01*
X304955000Y-240398000D02*
X306098000Y-241033000D01*
X306098000Y-241033000D02*
X304955000Y-241668000D01*
X304828000Y-239255000D02*
X306098000Y-239255000D01*
X305463000Y-238620000D02*
X305463000Y-239890000D01*
X304828000Y-243065000D02*
X306098000Y-243065000D01*
X304955000Y-240398000D02*
X304955000Y-241668000D01*
X89309000Y-241160000D02*
X88166000Y-241795000D01*
X88039000Y-239382000D02*
X89309000Y-239382000D01*
X88674000Y-238747000D02*
X88674000Y-240017000D01*
X88039000Y-243192000D02*
X89309000Y-243192000D01*
X88166000Y-240525000D02*
X88166000Y-241795000D01*
X88166000Y-240525000D02*
X89309000Y-241160000D01*
D10*
X27594857Y-241072714D02*
X26594857Y-241072714D01*
X26166285Y-242644142D02*
X27594857Y-242644142D01*
X27594857Y-239644142D01*
X26166285Y-239644142D01*
X328330857Y-241072714D02*
X327330857Y-241072714D01*
X326902285Y-242644142D02*
X328330857Y-242644142D01*
X328330857Y-239644142D01*
X326902285Y-239644142D01*
D11*
X306560000Y-232882000D02*
X307703000Y-233517000D01*
X307703000Y-233517000D02*
X306560000Y-234152000D01*
X306433000Y-231358000D02*
X307703000Y-231358000D01*
X306560000Y-232882000D02*
X306560000Y-234152000D01*
X307068000Y-230723000D02*
X307068000Y-231993000D01*
X45862000Y-232857000D02*
X47005000Y-233492000D01*
X47005000Y-233492000D02*
X45862000Y-234127000D01*
X45735000Y-231333000D02*
X47005000Y-231333000D01*
X45735000Y-235524000D02*
X47005000Y-235524000D01*
X45862000Y-232857000D02*
X45862000Y-234127000D01*
X46370000Y-230698000D02*
X46370000Y-231968000D01*
X306533000Y-235658000D02*
X307803000Y-235658000D01*
D10*
X320043714Y-235128142D02*
X320043714Y-232128142D01*
X319329428Y-232128142D01*
X318900857Y-232271000D01*
X318615142Y-232556714D01*
X318472285Y-232842428D01*
X318329428Y-233413857D01*
X318329428Y-233842428D01*
X318472285Y-234413857D01*
X318615142Y-234699571D01*
X318900857Y-234985285D01*
X319329428Y-235128142D01*
X320043714Y-235128142D01*
X35817714Y-235001142D02*
X35817714Y-232001142D01*
X35103428Y-232001142D01*
X34674857Y-232144000D01*
X34389142Y-232429714D01*
X34246285Y-232715428D01*
X34103428Y-233286857D01*
X34103428Y-233715428D01*
X34246285Y-234286857D01*
X34389142Y-234572571D01*
X34674857Y-234858285D01*
X35103428Y-235001142D01*
X35817714Y-235001142D01*
D11*
X306560000Y-225281000D02*
X307703000Y-225916000D01*
X307703000Y-225916000D02*
X306560000Y-226551000D01*
X306433000Y-223757000D02*
X307703000Y-223757000D01*
X306560000Y-225281000D02*
X306560000Y-226551000D01*
X307068000Y-223122000D02*
X307068000Y-224392000D01*
X45862000Y-225256000D02*
X47005000Y-225891000D01*
X47005000Y-225891000D02*
X45862000Y-226526000D01*
X45735000Y-223732000D02*
X47005000Y-223732000D01*
X45735000Y-227923000D02*
X47005000Y-227923000D01*
X45862000Y-225256000D02*
X45862000Y-226526000D01*
X46370000Y-223097000D02*
X46370000Y-224367000D01*
X306533000Y-228057000D02*
X307803000Y-228057000D01*
D10*
X320043714Y-227527142D02*
X320043714Y-224527142D01*
X319329428Y-224527142D01*
X318900857Y-224670000D01*
X318615142Y-224955714D01*
X318472285Y-225241428D01*
X318329428Y-225812857D01*
X318329428Y-226241428D01*
X318472285Y-226812857D01*
X318615142Y-227098571D01*
X318900857Y-227384285D01*
X319329428Y-227527142D01*
X320043714Y-227527142D01*
X35817714Y-227400142D02*
X35817714Y-224400142D01*
X35103428Y-224400142D01*
X34674857Y-224543000D01*
X34389142Y-224828714D01*
X34246285Y-225114428D01*
X34103428Y-225685857D01*
X34103428Y-226114428D01*
X34246285Y-226685857D01*
X34389142Y-226971571D01*
X34674857Y-227257285D01*
X35103428Y-227400142D01*
X35817714Y-227400142D01*
D11*
X300274000Y-217705000D02*
X301417000Y-218340000D01*
X301417000Y-218340000D02*
X300274000Y-218975000D01*
X300147000Y-216181000D02*
X301417000Y-216181000D01*
X300147000Y-220372000D02*
X301417000Y-220372000D01*
X300274000Y-217705000D02*
X300274000Y-218975000D01*
X300782000Y-215546000D02*
X300782000Y-216816000D01*
X55127000Y-217705000D02*
X56270000Y-218340000D01*
X56270000Y-218340000D02*
X55127000Y-218975000D01*
X55000000Y-216181000D02*
X56270000Y-216181000D01*
X55000000Y-220372000D02*
X56270000Y-220372000D01*
X55127000Y-217705000D02*
X55127000Y-218975000D01*
X55635000Y-215546000D02*
X55635000Y-216816000D01*
D10*
X311338714Y-218250714D02*
X310910142Y-218393571D01*
X310767285Y-218536428D01*
X310624428Y-218822142D01*
X310624428Y-219250714D01*
X310767285Y-219536428D01*
X310910142Y-219679285D01*
X311195857Y-219822142D01*
X312338714Y-219822142D01*
X312338714Y-216822142D01*
X311338714Y-216822142D01*
X311053000Y-216965000D01*
X310910142Y-217107857D01*
X310767285Y-217393571D01*
X310767285Y-217679285D01*
X310910142Y-217965000D01*
X311053000Y-218107857D01*
X311338714Y-218250714D01*
X312338714Y-218250714D01*
X307624428Y-219536428D02*
X307767285Y-219679285D01*
X308195857Y-219822142D01*
X308481571Y-219822142D01*
X308910142Y-219679285D01*
X309195857Y-219393571D01*
X309338714Y-219107857D01*
X309481571Y-218536428D01*
X309481571Y-218107857D01*
X309338714Y-217536428D01*
X309195857Y-217250714D01*
X308910142Y-216965000D01*
X308481571Y-216822142D01*
X308195857Y-216822142D01*
X307767285Y-216965000D01*
X307624428Y-217107857D01*
X44522714Y-218250714D02*
X44094142Y-218393571D01*
X43951285Y-218536428D01*
X43808428Y-218822142D01*
X43808428Y-219250714D01*
X43951285Y-219536428D01*
X44094142Y-219679285D01*
X44379857Y-219822142D01*
X45522714Y-219822142D01*
X45522714Y-216822142D01*
X44522714Y-216822142D01*
X44237000Y-216965000D01*
X44094142Y-217107857D01*
X43951285Y-217393571D01*
X43951285Y-217679285D01*
X44094142Y-217965000D01*
X44237000Y-218107857D01*
X44522714Y-218250714D01*
X45522714Y-218250714D01*
X40808428Y-219536428D02*
X40951285Y-219679285D01*
X41379857Y-219822142D01*
X41665571Y-219822142D01*
X42094142Y-219679285D01*
X42379857Y-219393571D01*
X42522714Y-219107857D01*
X42665571Y-218536428D01*
X42665571Y-218107857D01*
X42522714Y-217536428D01*
X42379857Y-217250714D01*
X42094142Y-216965000D01*
X41665571Y-216822142D01*
X41379857Y-216822142D01*
X40951285Y-216965000D01*
X40808428Y-217107857D01*
D11*
X300274000Y-210105000D02*
X301417000Y-210740000D01*
X301417000Y-210740000D02*
X300274000Y-211375000D01*
X300147000Y-208581000D02*
X301417000Y-208581000D01*
X300147000Y-212772000D02*
X301417000Y-212772000D01*
X300274000Y-210105000D02*
X300274000Y-211375000D01*
X300782000Y-207946000D02*
X300782000Y-209216000D01*
X55127000Y-210105000D02*
X56270000Y-210740000D01*
X56270000Y-210740000D02*
X55127000Y-211375000D01*
X55000000Y-208581000D02*
X56270000Y-208581000D01*
X55000000Y-212772000D02*
X56270000Y-212772000D01*
X55127000Y-210105000D02*
X55127000Y-211375000D01*
X55635000Y-207946000D02*
X55635000Y-209216000D01*
D10*
X311338714Y-210650714D02*
X310910142Y-210793571D01*
X310767285Y-210936428D01*
X310624428Y-211222142D01*
X310624428Y-211650714D01*
X310767285Y-211936428D01*
X310910142Y-212079285D01*
X311195857Y-212222142D01*
X312338714Y-212222142D01*
X312338714Y-209222142D01*
X311338714Y-209222142D01*
X311053000Y-209365000D01*
X310910142Y-209507857D01*
X310767285Y-209793571D01*
X310767285Y-210079285D01*
X310910142Y-210365000D01*
X311053000Y-210507857D01*
X311338714Y-210650714D01*
X312338714Y-210650714D01*
X307624428Y-211936428D02*
X307767285Y-212079285D01*
X308195857Y-212222142D01*
X308481571Y-212222142D01*
X308910142Y-212079285D01*
X309195857Y-211793571D01*
X309338714Y-211507857D01*
X309481571Y-210936428D01*
X309481571Y-210507857D01*
X309338714Y-209936428D01*
X309195857Y-209650714D01*
X308910142Y-209365000D01*
X308481571Y-209222142D01*
X308195857Y-209222142D01*
X307767285Y-209365000D01*
X307624428Y-209507857D01*
X44522714Y-210650714D02*
X44094142Y-210793571D01*
X43951285Y-210936428D01*
X43808428Y-211222142D01*
X43808428Y-211650714D01*
X43951285Y-211936428D01*
X44094142Y-212079285D01*
X44379857Y-212222142D01*
X45522714Y-212222142D01*
X45522714Y-209222142D01*
X44522714Y-209222142D01*
X44237000Y-209365000D01*
X44094142Y-209507857D01*
X43951285Y-209793571D01*
X43951285Y-210079285D01*
X44094142Y-210365000D01*
X44237000Y-210507857D01*
X44522714Y-210650714D01*
X45522714Y-210650714D01*
X40808428Y-211936428D02*
X40951285Y-212079285D01*
X41379857Y-212222142D01*
X41665571Y-212222142D01*
X42094142Y-212079285D01*
X42379857Y-211793571D01*
X42522714Y-211507857D01*
X42665571Y-210936428D01*
X42665571Y-210507857D01*
X42522714Y-209936428D01*
X42379857Y-209650714D01*
X42094142Y-209365000D01*
X41665571Y-209222142D01*
X41379857Y-209222142D01*
X40951285Y-209365000D01*
X40808428Y-209507857D01*
D11*
X300274000Y-202505000D02*
X301417000Y-203140000D01*
X301417000Y-203140000D02*
X300274000Y-203775000D01*
X300147000Y-200981000D02*
X301417000Y-200981000D01*
X300147000Y-205172000D02*
X301417000Y-205172000D01*
X300274000Y-202505000D02*
X300274000Y-203775000D01*
X300782000Y-200346000D02*
X300782000Y-201616000D01*
X55127000Y-202505000D02*
X56270000Y-203140000D01*
X56270000Y-203140000D02*
X55127000Y-203775000D01*
X55000000Y-200981000D02*
X56270000Y-200981000D01*
X55000000Y-205172000D02*
X56270000Y-205172000D01*
X55127000Y-202505000D02*
X55127000Y-203775000D01*
X55635000Y-200346000D02*
X55635000Y-201616000D01*
D10*
X311338714Y-203050714D02*
X310910142Y-203193571D01*
X310767285Y-203336428D01*
X310624428Y-203622142D01*
X310624428Y-204050714D01*
X310767285Y-204336428D01*
X310910142Y-204479285D01*
X311195857Y-204622142D01*
X312338714Y-204622142D01*
X312338714Y-201622142D01*
X311338714Y-201622142D01*
X311053000Y-201765000D01*
X310910142Y-201907857D01*
X310767285Y-202193571D01*
X310767285Y-202479285D01*
X310910142Y-202765000D01*
X311053000Y-202907857D01*
X311338714Y-203050714D01*
X312338714Y-203050714D01*
X307624428Y-204336428D02*
X307767285Y-204479285D01*
X308195857Y-204622142D01*
X308481571Y-204622142D01*
X308910142Y-204479285D01*
X309195857Y-204193571D01*
X309338714Y-203907857D01*
X309481571Y-203336428D01*
X309481571Y-202907857D01*
X309338714Y-202336428D01*
X309195857Y-202050714D01*
X308910142Y-201765000D01*
X308481571Y-201622142D01*
X308195857Y-201622142D01*
X307767285Y-201765000D01*
X307624428Y-201907857D01*
X44522714Y-203050714D02*
X44094142Y-203193571D01*
X43951285Y-203336428D01*
X43808428Y-203622142D01*
X43808428Y-204050714D01*
X43951285Y-204336428D01*
X44094142Y-204479285D01*
X44379857Y-204622142D01*
X45522714Y-204622142D01*
X45522714Y-201622142D01*
X44522714Y-201622142D01*
X44237000Y-201765000D01*
X44094142Y-201907857D01*
X43951285Y-202193571D01*
X43951285Y-202479285D01*
X44094142Y-202765000D01*
X44237000Y-202907857D01*
X44522714Y-203050714D01*
X45522714Y-203050714D01*
X40808428Y-204336428D02*
X40951285Y-204479285D01*
X41379857Y-204622142D01*
X41665571Y-204622142D01*
X42094142Y-204479285D01*
X42379857Y-204193571D01*
X42522714Y-203907857D01*
X42665571Y-203336428D01*
X42665571Y-202907857D01*
X42522714Y-202336428D01*
X42379857Y-202050714D01*
X42094142Y-201765000D01*
X41665571Y-201622142D01*
X41379857Y-201622142D01*
X40951285Y-201765000D01*
X40808428Y-201907857D01*
D11*
X262341000Y-194908000D02*
X263484000Y-195543000D01*
X263484000Y-195543000D02*
X262341000Y-196178000D01*
X262214000Y-193384000D02*
X263484000Y-193384000D01*
X262214000Y-197575000D02*
X263484000Y-197575000D01*
X262341000Y-194908000D02*
X262341000Y-196178000D01*
X262849000Y-192749000D02*
X262849000Y-194019000D01*
X77937000Y-194908000D02*
X79080000Y-195543000D01*
X79080000Y-195543000D02*
X77937000Y-196178000D01*
X77810000Y-193384000D02*
X79080000Y-193384000D01*
X77810000Y-197575000D02*
X79080000Y-197575000D01*
X77937000Y-194908000D02*
X77937000Y-196178000D01*
X78445000Y-192749000D02*
X78445000Y-194019000D01*
D10*
X69253285Y-196170000D02*
X67824714Y-196170000D01*
X69539000Y-197027142D02*
X68539000Y-194027142D01*
X67539000Y-197027142D01*
X286550285Y-196170000D02*
X285121714Y-196170000D01*
X286836000Y-197027142D02*
X285836000Y-194027142D01*
X284836000Y-197027142D01*
D11*
X262341000Y-187309000D02*
X263484000Y-187944000D01*
X263484000Y-187944000D02*
X262341000Y-188579000D01*
X262214000Y-185785000D02*
X263484000Y-185785000D01*
X262214000Y-189976000D02*
X263484000Y-189976000D01*
X262341000Y-187309000D02*
X262341000Y-188579000D01*
X262849000Y-185150000D02*
X262849000Y-186420000D01*
X77937000Y-187309000D02*
X79080000Y-187944000D01*
X79080000Y-187944000D02*
X77937000Y-188579000D01*
X77810000Y-185785000D02*
X79080000Y-185785000D01*
X77810000Y-189976000D02*
X79080000Y-189976000D01*
X77937000Y-187309000D02*
X77937000Y-188579000D01*
X78445000Y-185150000D02*
X78445000Y-186420000D01*
D10*
X69253285Y-188571000D02*
X67824714Y-188571000D01*
X69539000Y-189428142D02*
X68539000Y-186428142D01*
X67539000Y-189428142D01*
X286550285Y-188571000D02*
X285121714Y-188571000D01*
X286836000Y-189428142D02*
X285836000Y-186428142D01*
X284836000Y-189428142D01*
X61160617Y-173046257D02*
X62160617Y-173046257D01*
X62160617Y-174617685D02*
X62160617Y-171617685D01*
X60732046Y-171617685D01*
X328557714Y-130917142D02*
X328557714Y-127917142D01*
X327843428Y-127917142D01*
X327414857Y-128060000D01*
X327129142Y-128345714D01*
X326986285Y-128631428D01*
X326843428Y-129202857D01*
X326843428Y-129631428D01*
X326986285Y-130202857D01*
X327129142Y-130488571D01*
X327414857Y-130774285D01*
X327843428Y-130917142D01*
X328557714Y-130917142D01*
X37637714Y-131217142D02*
X37637714Y-128217142D01*
X36923428Y-128217142D01*
X36494857Y-128360000D01*
X36209142Y-128645714D01*
X36066285Y-128931428D01*
X35923428Y-129502857D01*
X35923428Y-129931428D01*
X36066285Y-130502857D01*
X36209142Y-130788571D01*
X36494857Y-131074285D01*
X36923428Y-131217142D01*
X37637714Y-131217142D01*
X345404714Y-109105142D02*
X345404714Y-106105142D01*
X344690428Y-106105142D01*
X344261857Y-106248000D01*
X343976142Y-106533714D01*
X343833285Y-106819428D01*
X343690428Y-107390857D01*
X343690428Y-107819428D01*
X343833285Y-108390857D01*
X343976142Y-108676571D01*
X344261857Y-108962285D01*
X344690428Y-109105142D01*
X345404714Y-109105142D01*
X54484714Y-109405142D02*
X54484714Y-106405142D01*
X53770428Y-106405142D01*
X53341857Y-106548000D01*
X53056142Y-106833714D01*
X52913285Y-107119428D01*
X52770428Y-107690857D01*
X52770428Y-108119428D01*
X52913285Y-108690857D01*
X53056142Y-108976571D01*
X53341857Y-109262285D01*
X53770428Y-109405142D01*
X54484714Y-109405142D01*
X312198714Y-99318714D02*
X311770142Y-99461571D01*
X311627285Y-99604428D01*
X311484428Y-99890142D01*
X311484428Y-100318714D01*
X311627285Y-100604428D01*
X311770142Y-100747285D01*
X312055857Y-100890142D01*
X313198714Y-100890142D01*
X313198714Y-97890142D01*
X312198714Y-97890142D01*
X311913000Y-98033000D01*
X311770142Y-98175857D01*
X311627285Y-98461571D01*
X311627285Y-98747285D01*
X311770142Y-99033000D01*
X311913000Y-99175857D01*
X312198714Y-99318714D01*
X313198714Y-99318714D01*
X39684428Y-87204428D02*
X39827285Y-87347285D01*
X40255857Y-87490142D01*
X40541571Y-87490142D01*
X40970142Y-87347285D01*
X41255857Y-87061571D01*
X41398714Y-86775857D01*
X41541571Y-86204428D01*
X41541571Y-85775857D01*
X41398714Y-85204428D01*
X41255857Y-84918714D01*
X40970142Y-84633000D01*
X40541571Y-84490142D01*
X40255857Y-84490142D01*
X39827285Y-84633000D01*
X39684428Y-84775857D01*
X40498714Y-99118714D02*
X40070142Y-99261571D01*
X39927285Y-99404428D01*
X39784428Y-99690142D01*
X39784428Y-100118714D01*
X39927285Y-100404428D01*
X40070142Y-100547285D01*
X40355857Y-100690142D01*
X41498714Y-100690142D01*
X41498714Y-97690142D01*
X40498714Y-97690142D01*
X40213000Y-97833000D01*
X40070142Y-97975857D01*
X39927285Y-98261571D01*
X39927285Y-98547285D01*
X40070142Y-98833000D01*
X40213000Y-98975857D01*
X40498714Y-99118714D01*
X41498714Y-99118714D01*
X311484428Y-87204428D02*
X311627285Y-87347285D01*
X312055857Y-87490142D01*
X312341571Y-87490142D01*
X312770142Y-87347285D01*
X313055857Y-87061571D01*
X313198714Y-86775857D01*
X313341571Y-86204428D01*
X313341571Y-85775857D01*
X313198714Y-85204428D01*
X313055857Y-84918714D01*
X312770142Y-84633000D01*
X312341571Y-84490142D01*
X312055857Y-84490142D01*
X311627285Y-84633000D01*
X311484428Y-84775857D01*
X329045714Y-77462714D02*
X328617142Y-77605571D01*
X328474285Y-77748428D01*
X328331428Y-78034142D01*
X328331428Y-78462714D01*
X328474285Y-78748428D01*
X328617142Y-78891285D01*
X328902857Y-79034142D01*
X330045714Y-79034142D01*
X330045714Y-76034142D01*
X329045714Y-76034142D01*
X328760000Y-76177000D01*
X328617142Y-76319857D01*
X328474285Y-76605571D01*
X328474285Y-76891285D01*
X328617142Y-77177000D01*
X328760000Y-77319857D01*
X329045714Y-77462714D01*
X330045714Y-77462714D01*
X56531428Y-65348428D02*
X56674285Y-65491285D01*
X57102857Y-65634142D01*
X57388571Y-65634142D01*
X57817142Y-65491285D01*
X58102857Y-65205571D01*
X58245714Y-64919857D01*
X58388571Y-64348428D01*
X58388571Y-63919857D01*
X58245714Y-63348428D01*
X58102857Y-63062714D01*
X57817142Y-62777000D01*
X57388571Y-62634142D01*
X57102857Y-62634142D01*
X56674285Y-62777000D01*
X56531428Y-62919857D01*
X57345714Y-77262714D02*
X56917142Y-77405571D01*
X56774285Y-77548428D01*
X56631428Y-77834142D01*
X56631428Y-78262714D01*
X56774285Y-78548428D01*
X56917142Y-78691285D01*
X57202857Y-78834142D01*
X58345714Y-78834142D01*
X58345714Y-75834142D01*
X57345714Y-75834142D01*
X57060000Y-75977000D01*
X56917142Y-76119857D01*
X56774285Y-76405571D01*
X56774285Y-76691285D01*
X56917142Y-76977000D01*
X57060000Y-77119857D01*
X57345714Y-77262714D01*
X58345714Y-77262714D01*
X328331428Y-65348428D02*
X328474285Y-65491285D01*
X328902857Y-65634142D01*
X329188571Y-65634142D01*
X329617142Y-65491285D01*
X329902857Y-65205571D01*
X330045714Y-64919857D01*
X330188571Y-64348428D01*
X330188571Y-63919857D01*
X330045714Y-63348428D01*
X329902857Y-63062714D01*
X329617142Y-62777000D01*
X329188571Y-62634142D01*
X328902857Y-62634142D01*
X328474285Y-62777000D01*
X328331428Y-62919857D01*
X312198714Y-55649714D02*
X311770142Y-55792571D01*
X311627285Y-55935428D01*
X311484428Y-56221142D01*
X311484428Y-56649714D01*
X311627285Y-56935428D01*
X311770142Y-57078285D01*
X312055857Y-57221142D01*
X313198714Y-57221142D01*
X313198714Y-54221142D01*
X312198714Y-54221142D01*
X311913000Y-54364000D01*
X311770142Y-54506857D01*
X311627285Y-54792571D01*
X311627285Y-55078285D01*
X311770142Y-55364000D01*
X311913000Y-55506857D01*
X312198714Y-55649714D01*
X313198714Y-55649714D01*
X39684428Y-43535428D02*
X39827285Y-43678285D01*
X40255857Y-43821142D01*
X40541571Y-43821142D01*
X40970142Y-43678285D01*
X41255857Y-43392571D01*
X41398714Y-43106857D01*
X41541571Y-42535428D01*
X41541571Y-42106857D01*
X41398714Y-41535428D01*
X41255857Y-41249714D01*
X40970142Y-40964000D01*
X40541571Y-40821142D01*
X40255857Y-40821142D01*
X39827285Y-40964000D01*
X39684428Y-41106857D01*
X40498714Y-55449714D02*
X40070142Y-55592571D01*
X39927285Y-55735428D01*
X39784428Y-56021142D01*
X39784428Y-56449714D01*
X39927285Y-56735428D01*
X40070142Y-56878285D01*
X40355857Y-57021142D01*
X41498714Y-57021142D01*
X41498714Y-54021142D01*
X40498714Y-54021142D01*
X40213000Y-54164000D01*
X40070142Y-54306857D01*
X39927285Y-54592571D01*
X39927285Y-54878285D01*
X40070142Y-55164000D01*
X40213000Y-55306857D01*
X40498714Y-55449714D01*
X41498714Y-55449714D01*
X311484428Y-43535428D02*
X311627285Y-43678285D01*
X312055857Y-43821142D01*
X312341571Y-43821142D01*
X312770142Y-43678285D01*
X313055857Y-43392571D01*
X313198714Y-43106857D01*
X313341571Y-42535428D01*
X313341571Y-42106857D01*
X313198714Y-41535428D01*
X313055857Y-41249714D01*
X312770142Y-40964000D01*
X312341571Y-40821142D01*
X312055857Y-40821142D01*
X311627285Y-40964000D01*
X311484428Y-41106857D01*
M02*
