M48
INCH,TZ
T1C0.0197
T2C0.0236
T3C0.0500
T4C0.0600
%
G90
G05
T1
X108543Y-78150
X108937Y-78150
X109331Y-78150
X109724Y-78150
X115028Y-12960
X115028Y-13354
X115028Y-13748
X115028Y-14141
X108563Y-32736
X108957Y-32736
X109350Y-32736
X109744Y-32736
X108563Y-31634
X108957Y-31634
X109350Y-31634
X109744Y-31634
X69193Y-40217
X69587Y-40217
X69980Y-40217
X69173Y-87795
X69567Y-87795
X69961Y-87795
X70354Y-87795
X108543Y-78780
X108937Y-78780
X109331Y-78780
X109724Y-78780
X69173Y-87165
X69567Y-87165
X69961Y-87165
X70354Y-87165
X70374Y-40217
X29803Y-58484
X30197Y-58484
X30591Y-58484
X29803Y-90748
X30197Y-90748
X30591Y-90748
X30984Y-90748
X29803Y-84173
X30197Y-84173
X30591Y-84173
X30984Y-84173
X109724Y-23031
X30984Y-58484
X108543Y-72835
X108937Y-72835
X109331Y-72835
X109724Y-72835
X69173Y-72835
X69567Y-72835
X69961Y-72835
X70354Y-72835
X108543Y-93780
X108937Y-93780
X109331Y-93780
X109724Y-93780
X69173Y-72205
X69567Y-72205
X69961Y-72205
X29803Y-90118
X30197Y-90118
X30591Y-90118
X30984Y-90118
X108543Y-84173
X108937Y-84173
X70354Y-72205
X108543Y-99134
X108937Y-99134
X109331Y-99134
X109724Y-99134
X111614Y-9331
X112008Y-9331
X112402Y-9331
X112795Y-9331
X108543Y-99764
X108937Y-99764
X109331Y-99764
X109724Y-99764
X23394Y-70224
X23394Y-70618
X23394Y-71011
X23394Y-71405
X24004Y-12960
X24004Y-13354
X24004Y-13748
X24004Y-14141
X29803Y-65965
X30197Y-65965
X30591Y-65965
X30984Y-65965
X108543Y-72205
X108937Y-72205
X109331Y-72205
X109724Y-72205
X108543Y-14921
X108937Y-14921
X109331Y-14921
X109724Y-14921
X25855Y-73413
X25855Y-73807
X25855Y-74200
X25855Y-74594
X108543Y-65965
X108937Y-65965
X109331Y-65965
X109724Y-65965
X69193Y-31634
X69587Y-31634
X69980Y-31634
X70374Y-31634
X29803Y-87795
X30197Y-87795
X30591Y-87795
X30984Y-87795
X109331Y-84173
X109724Y-84173
X130157Y-94350
X130157Y-94744
X130157Y-95138
X130157Y-95531
X29803Y-48780
X30197Y-48780
X30591Y-48780
X30984Y-48780
X69173Y-93780
X69567Y-93780
X69961Y-93780
X70354Y-93780
X108543Y-90118
X108937Y-90118
X109331Y-90118
X109724Y-90118
X108543Y-49882
X108543Y-87165
X108937Y-87165
X109331Y-87165
X109724Y-87165
X69173Y-84173
X69567Y-84173
X69961Y-84173
X70354Y-84173
X9457Y-94358
X9457Y-94752
X9457Y-95145
X108937Y-49882
X109331Y-49882
X109724Y-49882
X69173Y-93150
X69567Y-93150
X69961Y-93150
X70354Y-93150
X108543Y-90748
X108937Y-90748
X109331Y-90748
X109724Y-90748
X108543Y-81181
X108937Y-81181
X109331Y-81181
X109724Y-81181
X108543Y-48780
X108937Y-48780
X109331Y-48780
X109724Y-48780
X29803Y-96772
X30197Y-96772
X30591Y-96772
X30984Y-96772
X69173Y-90748
X69567Y-90748
X69961Y-90748
X70354Y-90748
X12626Y-88374
X12626Y-88767
X12626Y-89161
X12626Y-89555
X133484Y-70217
X133484Y-70610
X133484Y-71004
X133484Y-71398
X69173Y-57382
X69567Y-57382
X69961Y-57382
X70354Y-57382
X29803Y-96142
X30197Y-96142
X30591Y-96142
X30984Y-96142
X69173Y-90118
X69567Y-90118
X69961Y-90118
X70354Y-90118
X139193Y-61634
X139193Y-62028
X139193Y-62421
X139193Y-62815
X69173Y-58484
X69567Y-58484
X69961Y-58484
X70354Y-58484
X108543Y-96142
X108937Y-96142
X109331Y-96142
X109724Y-96142
X29803Y-93780
X30197Y-93780
X30591Y-93780
X30984Y-93780
X129862Y-53051
X129862Y-53445
X129862Y-53839
X129862Y-54232
X108543Y-96772
X108937Y-96772
X109331Y-96772
X109724Y-96772
X136496Y-44469
X136496Y-44862
X136496Y-45256
X136496Y-45650
X29803Y-57382
X30197Y-57382
X30591Y-57382
X30984Y-57382
X108543Y-23031
X108937Y-23031
X109331Y-23031
X108543Y-58484
X108937Y-58484
X109331Y-58484
X109724Y-58484
X108543Y-24134
X108937Y-24134
X109331Y-24134
X109724Y-24134
X108543Y-57382
X108937Y-57382
X109331Y-57382
X109724Y-57382
X29803Y-99764
X30197Y-99764
X30591Y-99764
X30984Y-99764
X69173Y-24134
X69567Y-24134
X69961Y-24134
X70354Y-24134
X69173Y-65965
X69567Y-65965
X69961Y-65965
X70354Y-65965
X29803Y-99134
X30197Y-99134
X30591Y-99134
X30984Y-99134
X69173Y-23031
X69567Y-23031
X69961Y-23031
X70354Y-23031
X26378Y-9331
X26772Y-9331
X27165Y-9331
X27559Y-9331
X9457Y-95539
X15894Y-82389
X15894Y-82783
X15894Y-83177
X15894Y-83570
X20402Y-44456
X20402Y-44850
X20402Y-45244
X20402Y-45637
X124094Y-97343
X124094Y-97736
X124094Y-98130
X124094Y-98524
X69173Y-67067
X69567Y-67067
X69961Y-67067
X70354Y-67067
X108563Y-41319
X108957Y-41319
X109350Y-41319
X109744Y-41319
X108543Y-87795
X29803Y-72835
X30197Y-72835
X108543Y-84803
X108937Y-84803
X109331Y-84803
X109724Y-84803
X29803Y-81181
X30197Y-81181
X30591Y-81181
X30984Y-81181
X69173Y-75197
X69567Y-75197
X69961Y-75197
X70354Y-75197
X113720Y-76398
X113720Y-76791
X113720Y-77185
X113720Y-77579
X69173Y-84803
X69567Y-84803
X69961Y-84803
X70354Y-84803
X108543Y-81811
X108937Y-81811
X109331Y-81811
X109724Y-81811
X69173Y-81811
X69567Y-81811
X69961Y-81811
X30591Y-72835
X30984Y-72835
X69181Y-9795
X69574Y-9795
X69968Y-9795
X70362Y-9795
X29803Y-67067
X30197Y-67067
X30591Y-67067
X30984Y-67067
X29803Y-72205
X30197Y-72205
X30591Y-72205
X30984Y-72205
X108543Y-15551
X108937Y-15551
X109331Y-15551
X109724Y-15551
X15166Y-18708
X15166Y-19102
X15166Y-19496
X15166Y-19889
X69193Y-41319
X69587Y-41319
X69980Y-41319
X70374Y-41319
X12626Y-91366
X12626Y-91759
X12626Y-92153
X12626Y-92547
X21800Y-27291
X21800Y-27685
X21800Y-28078
X21800Y-28472
X29823Y-41319
X30217Y-41319
X30610Y-41319
X31004Y-41319
X29803Y-87165
X30197Y-87165
X30591Y-87165
X30984Y-87165
X15186Y-35874
X15186Y-36267
X15186Y-36661
X15186Y-37055
X29823Y-40217
X30217Y-40217
X30610Y-40217
X31004Y-40217
X69193Y-32736
X69587Y-32736
X69980Y-32736
X70374Y-32736
X15894Y-79397
X15894Y-79791
X15894Y-80185
X15894Y-80578
X29823Y-32736
X30217Y-32736
X30610Y-32736
X31004Y-32736
X29803Y-75827
X30197Y-75827
X30591Y-75827
X30984Y-75827
X29803Y-75197
X30197Y-75197
X30591Y-75197
X30984Y-75197
X13768Y-53059
X13768Y-53452
X13768Y-53846
X13768Y-54240
X126870Y-88366
X126870Y-88760
X126870Y-89154
X126870Y-89547
X70354Y-81811
X108543Y-75197
X108937Y-75197
X29803Y-14921
X30197Y-14921
X30591Y-14921
X30984Y-14921
X15894Y-85401
X15894Y-85795
X15894Y-86189
X15894Y-86582
X109331Y-75197
X109724Y-75197
X69173Y-81181
X69567Y-81181
X69961Y-81181
X70354Y-81181
X29803Y-24134
X30591Y-24134
X30984Y-24134
X29803Y-93150
X123524Y-85374
X123524Y-85768
X123524Y-86161
X123524Y-86555
X108543Y-75827
X30197Y-24134
X108937Y-75827
X109331Y-75827
X109724Y-75827
X69173Y-99764
X69567Y-99764
X69961Y-99764
X70354Y-99764
X30197Y-93150
X30591Y-93150
X30984Y-93150
X29803Y-84803
X30197Y-84803
X30591Y-84803
X30984Y-84803
X29803Y-23031
X30197Y-23031
X30591Y-23031
X30984Y-23031
X69173Y-96772
X69567Y-96772
X69961Y-96772
X70354Y-96772
X108543Y-93150
X108937Y-93150
X109331Y-93150
X109724Y-93150
X123867Y-35893
X123867Y-36287
X123867Y-36681
X123867Y-37074
X69173Y-96142
X69567Y-96142
X69961Y-96142
X70354Y-96142
X25874Y-76405
X25874Y-76799
X25874Y-77192
X25874Y-77586
X130500Y-27291
X130500Y-27685
X130500Y-28078
X130500Y-28472
X123867Y-19082
X123867Y-19476
X123867Y-19870
X29823Y-31634
X30217Y-31634
X30610Y-31634
X31004Y-31634
X15638Y-97350
X123867Y-18689
X15638Y-97744
X108937Y-87795
X109331Y-87795
X109724Y-87795
X126870Y-91358
X126870Y-91752
X126870Y-92146
X126870Y-92539
X108563Y-40217
X108957Y-40217
X109350Y-40217
X109744Y-40217
X69173Y-48780
X69567Y-48780
X69961Y-48780
X70354Y-48780
X69173Y-78780
X69567Y-78780
X69961Y-78780
X70354Y-78780
X18040Y-61641
X18040Y-62035
X18040Y-62429
X18040Y-62822
X69173Y-49882
X69567Y-49882
X69961Y-49882
X70354Y-49882
X69173Y-78150
X69567Y-78150
X69961Y-78150
X70354Y-78150
X123524Y-82382
X123524Y-82776
X123524Y-83169
X123524Y-83563
X29803Y-49882
X30197Y-49882
X30591Y-49882
X30984Y-49882
X30591Y-78150
X15638Y-98137
X15638Y-98531
X108543Y-67067
X108937Y-67067
X109331Y-67067
X109724Y-67067
X69173Y-99134
X69567Y-99134
X69961Y-99134
X70354Y-99134
X69173Y-15551
X69567Y-15551
X69961Y-15551
X70354Y-15551
X29803Y-78780
X30197Y-78780
X30591Y-78780
X30984Y-78780
X69173Y-14921
X69567Y-14921
X69961Y-14921
X70354Y-14921
X113720Y-73406
X113720Y-73799
X113720Y-74193
X70354Y-75827
X69961Y-75827
X113720Y-74587
X69173Y-75827
X69567Y-75827
X123524Y-79390
X123524Y-79783
X123524Y-80177
X123524Y-80571
X29803Y-78150
X30197Y-78150
X29803Y-15551
X30197Y-15551
X30591Y-15551
X30984Y-15551
X29803Y-81811
X30197Y-81811
X30591Y-81811
X30984Y-81811
X30984Y-78150
T2
X15642Y-95578
X17322Y-94398
X21554Y-95480
X21777Y-80806
X21777Y-83798
X21777Y-86790
X22276Y-88493
X22276Y-91486
X22383Y-97290
X22952Y-51091
X23916Y-94299
X24684Y-53610
X24684Y-55618
X25032Y-89478
X25032Y-92470
X25041Y-98560
X25286Y-19228
X25286Y-36421
X25655Y-79408
X25655Y-82400
X25655Y-85392
X25871Y-16679
X25871Y-33871
X26241Y-60086
X27206Y-97143
X27296Y-88296
X27296Y-91289
X27396Y-53678
X27821Y-62165
X28247Y-95520
X28386Y-19328
X28386Y-36521
X28411Y-80589
X28411Y-83581
X28411Y-86573
X29516Y-53643
X29585Y-42503
X29784Y-60046
X30359Y-79349
X30359Y-82341
X30359Y-85333
X30506Y-19293
X30506Y-36486
X30609Y-94299
X30921Y-62265
X31284Y-73194
X31284Y-76185
X31317Y-45023
X31317Y-47031
X31430Y-89576
X31430Y-92569
X31439Y-98560
X31919Y-27816
X31954Y-70011
X32045Y-74634
X32045Y-77625
X32504Y-25267
X33041Y-62230
X33693Y-88296
X33693Y-91289
X33697Y-13573
X33796Y-53638
X33801Y-97241
X33934Y-74033
X33934Y-77024
X34015Y-70853
X34029Y-45091
X34743Y-95520
X34786Y-19288
X34786Y-36481
X34907Y-80589
X34907Y-83581
X34907Y-86573
X35019Y-27916
X36016Y-53643
X36135Y-70818
X36149Y-45056
X36974Y-79309
X36974Y-82302
X36974Y-85294
X37006Y-19293
X37006Y-36486
X37105Y-94299
X37139Y-27881
X37321Y-62225
X37807Y-74652
X37807Y-77644
X37908Y-13544
X37935Y-98560
X38024Y-89576
X38024Y-92569
X39541Y-62230
X40288Y-88296
X40288Y-91289
X40297Y-97241
X40346Y-53648
X40347Y-13548
X40415Y-70813
X40429Y-45051
X40584Y-74008
X40584Y-76999
X41336Y-19298
X41336Y-36491
X41403Y-80589
X41403Y-83581
X41403Y-86573
X41419Y-27876
X41534Y-95520
X42516Y-53643
X42635Y-70818
X42649Y-45056
X43506Y-19293
X43506Y-36486
X43601Y-94299
X43639Y-27881
X43667Y-79349
X43667Y-82341
X43667Y-85333
X43871Y-62235
X44529Y-98521
X44598Y-74652
X44598Y-77644
X44619Y-89556
X44619Y-92549
X44627Y-13543
X46041Y-62230
X46784Y-88296
X46784Y-91289
X46847Y-13548
X46891Y-97241
X46936Y-53658
X46965Y-70823
X46979Y-45061
X47059Y-73332
X47059Y-76324
X47926Y-19308
X47926Y-36501
X47969Y-27886
X48129Y-95520
X48194Y-80491
X48194Y-83483
X48194Y-86475
X49016Y-53643
X49135Y-70818
X49149Y-45056
X50006Y-19293
X50006Y-36486
X50097Y-94299
X50123Y-79349
X50123Y-82341
X50123Y-85333
X50139Y-27881
X50461Y-62245
X50996Y-74621
X50996Y-77613
X51025Y-98462
X51177Y-13553
X51311Y-89478
X51311Y-92470
X52541Y-62230
X53289Y-97143
X53347Y-13548
X53378Y-88395
X53378Y-91387
X53456Y-53658
X53456Y-73332
X53456Y-76324
X53555Y-70833
X53569Y-45071
X54428Y-95520
X54446Y-19308
X54446Y-36501
X54559Y-27896
X54690Y-80491
X54690Y-83483
X54690Y-86475
X55635Y-70818
X55649Y-45056
X55716Y-53643
X56639Y-27881
X56659Y-79349
X56659Y-82341
X56659Y-85333
X56706Y-19293
X56706Y-36486
X56790Y-94299
X56981Y-62245
X57492Y-74592
X57492Y-77584
X57718Y-98560
X57767Y-13563
X57906Y-89478
X57906Y-92470
X59241Y-62230
X59847Y-13548
X59952Y-73332
X59952Y-76324
X59973Y-88395
X59973Y-91387
X59982Y-97241
X60026Y-53648
X60075Y-70833
X60089Y-45071
X61016Y-19298
X61016Y-36491
X61079Y-27896
X61219Y-95520
X61304Y-80569
X61304Y-83561
X61304Y-86554
X62216Y-53643
X62335Y-70818
X62349Y-45056
X63206Y-19293
X63206Y-36486
X63312Y-79388
X63312Y-82380
X63312Y-85372
X63339Y-27881
X63385Y-94299
X63551Y-62235
X64086Y-74592
X64086Y-77584
X64107Y-89576
X64107Y-92569
X64287Y-13563
X64313Y-98570
X65741Y-62230
X66547Y-13548
X66567Y-88198
X66567Y-91191
X66576Y-97241
X66596Y-53648
X66645Y-70823
X66645Y-73234
X66645Y-76226
X66659Y-45061
X67586Y-19298
X67586Y-36491
X67617Y-95520
X67643Y-80491
X67643Y-83483
X67643Y-86475
X67649Y-27886
X68716Y-53643
X68835Y-70818
X68849Y-45056
X69706Y-19293
X69706Y-36486
X69782Y-94299
X69808Y-79309
X69808Y-82302
X69808Y-85294
X69839Y-27881
X70121Y-62235
X70710Y-98564
X70800Y-89556
X70800Y-92549
X71074Y-74652
X71074Y-77644
X71172Y-13503
X72241Y-62230
X73047Y-13548
X73116Y-53638
X73141Y-73332
X73141Y-76324
X73215Y-70823
X73229Y-45061
X73797Y-51245
X74106Y-19288
X74106Y-36481
X74139Y-80530
X74139Y-83522
X74139Y-86514
X74219Y-27886
X74408Y-95520
X74787Y-16895
X74787Y-34088
X74933Y-88454
X74933Y-91446
X74943Y-97290
X75335Y-70818
X75349Y-45056
X75997Y-51145
X76339Y-27881
X76377Y-94299
X76641Y-62225
X76797Y-53645
X76831Y-60440
X76987Y-16795
X76987Y-33988
X77374Y-74652
X77374Y-77644
X77427Y-13553
X77591Y-89478
X77591Y-92470
X77698Y-98560
X77787Y-19295
X77787Y-36488
X78194Y-79821
X78194Y-82813
X78194Y-85806
X79539Y-73234
X79539Y-76226
X79547Y-13548
X79559Y-88296
X79559Y-91289
X79667Y-97241
X79735Y-70813
X79749Y-45051
X79997Y-53645
X80416Y-68420
X80430Y-42658
X80511Y-95520
X80532Y-60401
X80739Y-27876
X80987Y-19295
X80987Y-36488
X81029Y-80491
X81029Y-83483
X81029Y-86475
X81420Y-25483
X81916Y-53643
X82616Y-68320
X82630Y-42558
X82906Y-19293
X82906Y-36486
X82971Y-94299
X83037Y-79349
X83037Y-82341
X83037Y-85333
X83416Y-70820
X83421Y-62265
X83430Y-45058
X83620Y-25383
X83947Y-13543
X83998Y-98551
X84067Y-74652
X84067Y-77644
X84185Y-89478
X84185Y-92470
X84420Y-27883
X85441Y-62230
X86047Y-13548
X86056Y-88296
X86056Y-91289
X86232Y-73431
X86232Y-76422
X86236Y-53658
X86261Y-97241
X86616Y-70820
X86630Y-45058
X87105Y-95520
X87226Y-19308
X87226Y-36501
X87328Y-80569
X87328Y-83561
X87328Y-86554
X87620Y-27883
X88416Y-53643
X88535Y-70818
X88549Y-45056
X89406Y-19293
X89406Y-36486
X89533Y-79349
X89533Y-82341
X89533Y-85333
X89539Y-27881
X89566Y-94299
X89761Y-62245
X90267Y-74652
X90267Y-77644
X90494Y-98521
X90547Y-13553
X90681Y-89576
X90681Y-92569
X91941Y-62230
X92659Y-97340
X92747Y-13548
X92748Y-88296
X92748Y-91289
X92806Y-53648
X92826Y-73234
X92826Y-76226
X92855Y-70833
X92869Y-45071
X93601Y-95480
X93745Y-80491
X93745Y-83483
X93745Y-86475
X93796Y-19298
X93796Y-36491
X93859Y-27896
X95016Y-53618
X95035Y-70818
X95049Y-45056
X96006Y-19268
X96006Y-36461
X96039Y-27881
X96062Y-94299
X96186Y-79231
X96186Y-82223
X96186Y-85215
X96331Y-62235
X96862Y-74652
X96862Y-77644
X97067Y-13563
X97187Y-98462
X97276Y-89478
X97276Y-92470
X98541Y-62205
X98796Y-53488
X99155Y-97241
X99244Y-88296
X99244Y-91289
X99247Y-13548
X99322Y-73332
X99322Y-76324
X99425Y-70823
X99439Y-45061
X99786Y-19138
X99786Y-36331
X100399Y-80636
X100399Y-83628
X100399Y-86620
X100429Y-27886
X100491Y-95520
X101596Y-53478
X101635Y-70793
X101649Y-45031
X102321Y-62075
X102586Y-19128
X102586Y-36321
X102604Y-79349
X102604Y-82341
X102604Y-85333
X102639Y-27856
X102755Y-94299
X102935Y-12023
X103637Y-13553
X103653Y-74652
X103653Y-77644
X103674Y-89556
X103674Y-92549
X103683Y-98560
X105121Y-62065
X105415Y-70663
X105429Y-44901
X105819Y-73332
X105819Y-76324
X105839Y-88296
X105839Y-91289
X105896Y-53578
X105946Y-97241
X106419Y-27726
X106886Y-19228
X106886Y-36421
X106987Y-95520
X107131Y-80616
X107131Y-83608
X107131Y-86601
X107686Y-16707
X107686Y-33900
X108196Y-53678
X108215Y-70653
X108229Y-44891
X109152Y-94299
X109219Y-27716
X109257Y-79309
X109257Y-82302
X109257Y-85294
X109421Y-62165
X109588Y-98560
X110286Y-16607
X110286Y-33800
X110586Y-19307
X110586Y-36500
X110741Y-89005
X110741Y-91998
X110769Y-97930
X111721Y-62265
X112072Y-89702
X112072Y-92695
X112496Y-53478
X112515Y-70753
X112529Y-44991
X112738Y-97930
X112780Y-89005
X112780Y-91998
X113397Y-51245
X113519Y-27816
X113581Y-95520
X113786Y-19307
X113786Y-36500
X113863Y-17230
X113863Y-34422
X114021Y-79939
X114021Y-82931
X114021Y-85924
X114319Y-25295
X114792Y-88313
X114792Y-91306
X114815Y-70853
X114829Y-45091
X114851Y-97290
X115002Y-98521
X115478Y-80766
X115478Y-83758
X115478Y-86750
X115556Y-79939
X115556Y-82931
X115556Y-85924
X115597Y-51245
X115793Y-79231
X115793Y-82223
X115793Y-85215
X115845Y-94299
X115977Y-89396
X115977Y-92389
X116021Y-62065
X116097Y-53445
X116919Y-25195
X117219Y-27895
X117355Y-88966
X117355Y-91958
X117364Y-97930
X118121Y-62265
X118654Y-89596
X118654Y-92588
X118733Y-88966
X118733Y-91958
X118742Y-98619
X118746Y-97926
X119008Y-88454
X119008Y-91446
X119037Y-97340
X119115Y-70653
X119129Y-44891
X119188Y-51212
X119397Y-53645
X120016Y-68420
X120030Y-42658
X120078Y-95480
X120419Y-27895
X120496Y-25818
X121697Y-51145
X122216Y-68420
X122230Y-42658
X122243Y-94398
X122421Y-62065
X122716Y-70620
X122730Y-44858
X122776Y-60322
X125589Y-94791
X125733Y-71330
X125821Y-42625
X126016Y-70820
X126030Y-45058
X126221Y-62265
X126359Y-60361
X127918Y-71448
X128330Y-42558
X129233Y-60322
X129421Y-62165
T3
G00X20302Y-79204
M15
G01X20302Y-79204
M16
G05
G00X20302Y-80004
M15
G01X20302Y-80004
M16
G05
G00X20302Y-80804
M15
G01X20302Y-80804
M16
G05
G00X29384Y-73193
M15
G01X29384Y-73193
M16
G05
G00X29384Y-73993
M15
G01X29384Y-73993
M16
G05
G00X29384Y-74793
M15
G01X29384Y-74793
M16
G05
G00X122434Y-88165
M15
G01X122434Y-88165
M16
G05
G00X122434Y-88965
M15
G01X122434Y-88965
M16
G05
G00X122434Y-89765
M15
G01X122434Y-89765
M16
G05
G00X122434Y-91158
M15
G01X122434Y-91158
M16
G05
G00X122434Y-91958
M15
G01X122434Y-91958
M16
G05
G00X122434Y-92758
M15
G01X122434Y-92758
M16
G05
G00X120007Y-85162
M15
G01X120007Y-85162
M16
G05
G00X120007Y-85962
M15
G01X120007Y-85962
M16
G05
G00X120007Y-86762
M15
G01X120007Y-86762
M16
G05
G00X12761Y-94145
M15
G01X12761Y-94145
M16
G05
G00X12761Y-94945
M15
G01X12761Y-94945
M16
G05
G00X12761Y-95745
M15
G01X12761Y-95745
M16
G05
G00X121651Y-97084
M15
G01X121651Y-97084
M16
G05
G00X121651Y-97884
M15
G01X121651Y-97884
M16
G05
G00X121651Y-98684
M15
G01X121651Y-98684
M16
G05
G00X16854Y-88171
M15
G01X16854Y-88171
M16
G05
G00X16854Y-88971
M15
G01X16854Y-88971
M16
G05
G00X16854Y-89771
M15
G01X16854Y-89771
M16
G05
G00X20302Y-82197
M15
G01X20302Y-82197
M16
G05
G00X20302Y-82997
M15
G01X20302Y-82997
M16
G05
G00X20302Y-83797
M15
G01X20302Y-83797
M16
G05
G00X110544Y-74004
M15
G01X110544Y-74004
M16
G05
G00X110544Y-74804
M15
G01X110544Y-74804
M16
G05
G00X26481Y-70720
M15
G01X26481Y-70720
M16
G05
G00X26481Y-71520
M15
G01X26481Y-71520
M16
G05
G00X16854Y-91164
M15
G01X16854Y-91164
M16
G05
G00X16854Y-91964
M15
G01X16854Y-91964
M16
G05
G00X16854Y-92764
M15
G01X16854Y-92764
M16
G05
G00X20302Y-85189
M15
G01X20302Y-85189
M16
G05
G00X20302Y-85989
M15
G01X20302Y-85989
M16
G05
G00X20302Y-86789
M15
G01X20302Y-86789
M16
G05
G00X29384Y-76184
M15
G01X29384Y-76184
M16
G05
G00X29384Y-76984
M15
G01X29384Y-76984
M16
G05
G00X29384Y-77784
M15
G01X29384Y-77784
M16
G05
G00X110544Y-73204
M15
G01X110544Y-73204
M16
G05
G00X110544Y-76195
M15
G01X110544Y-76195
M16
G05
G00X110544Y-76995
M15
G01X110544Y-76995
M16
G05
G00X110544Y-77795
M15
G01X110544Y-77795
M16
G05
G00X120007Y-79177
M15
G01X120007Y-79177
M16
G05
G00X120007Y-79977
M15
G01X120007Y-79977
M16
G05
G00X120007Y-80777
M15
G01X120007Y-80777
M16
G05
G00X126961Y-94145
M15
G01X126961Y-94145
M16
G05
G00X126961Y-94945
M15
G01X126961Y-94945
M16
G05
G00X126961Y-95745
M15
G01X126961Y-95745
M16
G05
G00X120007Y-82170
M15
G01X120007Y-82170
M16
G05
G00X120007Y-82970
M15
G01X120007Y-82970
M16
G05
G00X120007Y-83770
M15
G01X120007Y-83770
M16
G05
G00X17752Y-97141
M15
G01X17752Y-97141
M16
G05
G00X17752Y-97941
M15
G01X17752Y-97941
M16
G05
G00X17752Y-98741
M15
G01X17752Y-98741
M16
G05
T4
G00X26474Y-43928
M15
G01X26474Y-43928
M16
G05
G00X26474Y-44928
M15
G01X26474Y-44928
M16
G05
G00X26474Y-45928
M15
G01X26474Y-45928
M16
G05
G00X27174Y-42828
M15
G01X27174Y-42828
M16
G05
G00X27174Y-47028
M15
G01X27174Y-47028
M16
G05
G00X21107Y-18261
M15
G01X21107Y-18261
M16
G05
G00X21107Y-19261
M15
G01X21107Y-19261
M16
G05
G00X21107Y-20261
M15
G01X21107Y-20261
M16
G05
G00X23682Y-61228
M15
G01X23682Y-61228
M16
G05
G00X23682Y-62228
M15
G01X23682Y-62228
M16
G05
G00X23682Y-63228
M15
G01X23682Y-63228
M16
G05
G00X24382Y-60128
M15
G01X24382Y-60128
M16
G05
G00X24382Y-64328
M15
G01X24382Y-64328
M16
G05
G00X21807Y-17161
M15
G01X21807Y-17161
M16
G05
G00X21807Y-21361
M15
G01X21807Y-21361
M16
G05
G00X118076Y-18238
M15
G01X118076Y-18238
M16
G05
G00X108731Y-13188
M15
G01X108731Y-13188
M16
G05
G00X118076Y-19238
M15
G01X118076Y-19238
M16
G05
G00X118076Y-20238
M15
G01X118076Y-20238
M16
G05
G00X124887Y-68416
M15
G01X124887Y-68416
M16
G05
G00X125887Y-68416
M15
G01X125887Y-68416
M16
G05
G00X126887Y-68416
M15
G01X126887Y-68416
M16
G05
G00X19842Y-52516
M15
G01X19842Y-52516
M16
G05
G00X21107Y-35454
M15
G01X21107Y-35454
M16
G05
G00X19842Y-53516
M15
G01X19842Y-53516
M16
G05
G00X21107Y-36454
M15
G01X21107Y-36454
M16
G05
G00X21107Y-37454
M15
G01X21107Y-37454
M16
G05
G00X21807Y-34354
M15
G01X21807Y-34354
M16
G05
G00X21807Y-38554
M15
G01X21807Y-38554
M16
G05
G00X123779Y-52634
M15
G01X123779Y-52634
M16
G05
G00X123779Y-53634
M15
G01X123779Y-53634
M16
G05
G00X123779Y-54634
M15
G01X123779Y-54634
M16
G05
G00X29769Y-68338
M15
G01X29769Y-68338
M16
G05
G00X30769Y-68338
M15
G01X30769Y-68338
M16
G05
G00X31769Y-68338
M15
G01X31769Y-68338
M16
G05
G00X108731Y-12188
M15
G01X108731Y-12188
M16
G05
G00X108731Y-14188
M15
G01X108731Y-14188
M16
G05
G00X19842Y-54516
M15
G01X19842Y-54516
M16
G05
G00X130411Y-45046
M15
G01X130411Y-45046
M16
G05
G00X130411Y-46046
M15
G01X130411Y-46046
M16
G05
G00X118076Y-35430
M15
G01X118076Y-35430
M16
G05
G00X118076Y-36430
M15
G01X118076Y-36430
M16
G05
G00X118076Y-37430
M15
G01X118076Y-37430
M16
G05
G00X20542Y-51416
M15
G01X20542Y-51416
M16
G05
G00X20542Y-55616
M15
G01X20542Y-55616
M16
G05
G00X124709Y-26826
M15
G01X124709Y-26826
M16
G05
G00X124709Y-27826
M15
G01X124709Y-27826
M16
G05
G00X124709Y-28826
M15
G01X124709Y-28826
M16
G05
G00X133564Y-61241
M15
G01X133564Y-61241
M16
G05
G00X133564Y-62241
M15
G01X133564Y-62241
M16
G05
G00X133564Y-63241
M15
G01X133564Y-63241
M16
G05
G00X130411Y-44046
M15
G01X130411Y-44046
M16
G05
G00X27740Y-26849
M15
G01X27740Y-26849
M16
G05
G00X27740Y-27849
M15
G01X27740Y-27849
M16
G05
G00X27740Y-28849
M15
G01X27740Y-28849
M16
G05
G00X28440Y-25749
M15
G01X28440Y-25749
M16
G05
G00X28440Y-29949
M15
G01X28440Y-29949
M16
G05
G00X29082Y-14172
M15
G01X29082Y-14172
M16
G05
G00X30582Y-12172
M15
G01X30582Y-12172
M16
G05
G00X30582Y-13172
M15
G01X30582Y-13172
M16
G05
G00X30582Y-14172
M15
G01X30582Y-14172
M16
G05
G00X31282Y-11072
M15
G01X31282Y-11072
M16
G05
T0
M30
