M48
INCH,TZ
T1C0.0197
T2C0.0236
T3C0.0394
%
G90
G05
T1
X124821Y-66888
X125215Y-66888
X125608Y-66888
X126002Y-66888
X124821Y-57597
X125215Y-57597
X125608Y-57597
X126002Y-57597
X86210Y-57613
X86604Y-57613
X86998Y-57613
X87391Y-57613
X86210Y-25999
X86604Y-25999
X86998Y-25999
X87391Y-25999
X124821Y-25983
X125215Y-25983
X125608Y-25983
X126002Y-25983
X124821Y-42912
X125215Y-42912
X125608Y-42912
X126002Y-42912
X47561Y-42928
X48348Y-42928
X48742Y-42928
X41238Y-46416
X41238Y-46809
X41238Y-47203
X41238Y-47597
X47561Y-44030
X47955Y-44030
X48348Y-44030
X48742Y-44030
X47561Y-76156
X47955Y-76156
X48348Y-76156
X48742Y-76156
X86210Y-33676
X86604Y-33676
X86998Y-33676
X87391Y-33676
X125215Y-44014
X125608Y-44014
X126002Y-44014
X47561Y-86038
X47955Y-86038
X48348Y-86038
X48742Y-86038
X124821Y-76140
X125215Y-76140
X125608Y-76140
X126002Y-76140
X124821Y-35235
X125215Y-35235
X125608Y-35235
X126002Y-35235
X86210Y-76156
X86604Y-76156
X86998Y-76156
X87391Y-76156
X47561Y-35251
X47955Y-35251
X48348Y-35251
X48742Y-35251
X141829Y-88817
X141829Y-89211
X141829Y-89605
X141829Y-89998
X47561Y-77298
X47955Y-77298
X48348Y-77298
X48742Y-77298
X86210Y-35251
X86604Y-35251
X86998Y-35251
X87391Y-35251
X86210Y-42928
X86604Y-42928
X86998Y-42928
X87391Y-42928
X47561Y-49306
X47955Y-42928
X47955Y-49306
X48348Y-49306
X48742Y-49306
X124821Y-44014
X47561Y-59227
X47955Y-59227
X48348Y-59227
X48742Y-59227
X124821Y-49290
X125215Y-49290
X125608Y-49290
X126002Y-49290
X28640Y-29250
X28640Y-29644
X28640Y-30038
X28640Y-30431
X86210Y-49306
X86604Y-49306
X86998Y-49306
X87391Y-49306
X26159Y-80943
X26159Y-81337
X26159Y-81731
X26159Y-82124
X47561Y-66904
X47955Y-66904
X48348Y-66904
X48742Y-66904
X141159Y-71691
X47561Y-25999
X47955Y-25999
X48348Y-25999
X48742Y-25999
X47561Y-33676
X47955Y-33676
X48348Y-33676
X48742Y-33676
X86210Y-84975
X86604Y-84975
X86998Y-84975
X87391Y-84975
X144860Y-38502
X144860Y-38896
X144860Y-39290
X144860Y-39683
X47561Y-91393
X47955Y-91393
X48348Y-91393
X48742Y-91393
X124821Y-91376
X125215Y-91376
X125608Y-91376
X126002Y-91376
X147380Y-80943
X147380Y-81337
X147380Y-81731
X147380Y-82124
X141159Y-72085
X141159Y-72479
X141159Y-72872
X124821Y-77282
X125215Y-77282
X86210Y-44030
X86604Y-44030
X86998Y-44030
X87391Y-44030
X86210Y-91393
X86604Y-91393
X86998Y-91393
X87391Y-91393
X32419Y-71691
X125608Y-77282
X86210Y-66904
X86604Y-66904
X86998Y-66904
X87391Y-66904
X47561Y-68479
X47955Y-68479
X48348Y-68479
X48742Y-68479
X32419Y-72085
X32419Y-72479
X32419Y-72872
X28640Y-38496
X28640Y-38890
X28640Y-39283
X28640Y-39677
X124821Y-59211
X125215Y-59211
X125608Y-59211
X126002Y-59211
X86210Y-59227
X86604Y-59227
X86998Y-59227
X87391Y-59227
X47561Y-49936
X47955Y-49936
X126002Y-77282
X124821Y-68463
X125215Y-68463
X125608Y-68463
X126002Y-68463
X124821Y-33660
X125215Y-33660
X125608Y-33660
X126002Y-33660
X141120Y-53227
X141120Y-53620
X141120Y-54014
X141120Y-54408
X86210Y-68479
X86998Y-68479
X87391Y-68479
X144860Y-29250
X144860Y-29644
X144860Y-30038
X144860Y-30431
X48348Y-49936
X48742Y-49936
X124821Y-49920
X125215Y-49920
X125608Y-49920
X126002Y-49920
X124821Y-86022
X125215Y-86022
X125608Y-86022
X126002Y-86022
X86210Y-86038
X86604Y-86038
X86998Y-86038
X86210Y-77298
X86604Y-77298
X86998Y-77298
X87391Y-77298
X141159Y-62439
X141159Y-62833
X141159Y-63227
X141159Y-63620
X47955Y-84975
X48348Y-84975
X48742Y-84975
X124821Y-84959
X125215Y-84959
X125608Y-84959
X126002Y-84959
X32419Y-53187
X32419Y-53581
X32419Y-53975
X32419Y-54369
X87391Y-86038
X47561Y-84975
X31711Y-88817
X31711Y-89211
X31711Y-89605
X31711Y-89998
X86604Y-68479
X86210Y-49936
X86604Y-49936
X86998Y-49936
X87391Y-49936
X132262Y-46376
X132262Y-46770
X132262Y-47164
X132262Y-47557
X32419Y-62439
X32419Y-62833
X32419Y-63227
X32419Y-63620
X47561Y-57613
X47955Y-57613
X48348Y-57613
X48742Y-57613
T2
X33806Y-78640
X34025Y-81194
X34121Y-89869
X34157Y-89121
X34436Y-81751
X35803Y-80545
X35895Y-81121
X35921Y-79167
X36141Y-88473
X36562Y-88727
X37084Y-27360
X37084Y-36606
X37113Y-80963
X37150Y-86705
X37229Y-90760
X37303Y-29914
X37303Y-39159
X37347Y-87256
X37714Y-30470
X37714Y-32242
X37714Y-39716
X37714Y-41488
X38021Y-80033
X39081Y-29265
X39081Y-38510
X39110Y-79167
X39173Y-29841
X39173Y-39086
X39199Y-27887
X39199Y-37132
X39355Y-88870
X40355Y-51292
X40355Y-60566
X40355Y-69839
X40459Y-89318
X40530Y-53723
X40530Y-62997
X40530Y-72270
X40645Y-81135
X40697Y-90578
X40829Y-54299
X40829Y-63572
X40829Y-72846
X40849Y-56090
X40849Y-65364
X40849Y-74637
X41021Y-89855
X41298Y-28753
X41298Y-37998
X41616Y-82828
X42365Y-80545
X42388Y-27887
X42388Y-37132
X42456Y-81135
X42462Y-53675
X42462Y-62949
X42462Y-72223
X42470Y-51818
X42470Y-61092
X42470Y-70366
X42483Y-79167
X42522Y-52685
X42522Y-61958
X42522Y-71232
X42741Y-89343
X43923Y-29855
X43923Y-39101
X44552Y-90051
X44569Y-52685
X44569Y-61958
X44569Y-71232
X44674Y-80033
X44709Y-89540
X44894Y-31548
X44894Y-40794
X44989Y-82828
X45433Y-47545
X45642Y-29265
X45642Y-38510
X45659Y-51818
X45659Y-61092
X45659Y-70366
X45672Y-79167
X45734Y-29855
X45734Y-39101
X45760Y-27887
X45760Y-37132
X45931Y-46437
X46063Y-48766
X47031Y-81185
X47194Y-53787
X47194Y-63060
X47194Y-72334
X47350Y-89883
X47428Y-89397
X47428Y-83247
X47428Y-81790
X47952Y-28753
X47952Y-37998
X48165Y-55480
X48165Y-64753
X48165Y-74027
X48267Y-31548
X48267Y-40794
X48550Y-88491
X48913Y-53196
X48913Y-62470
X48913Y-71744
X48926Y-80545
X48949Y-27887
X48949Y-37132
X49005Y-53787
X49005Y-63060
X49005Y-72334
X49018Y-81135
X49031Y-51818
X49031Y-61092
X49031Y-70366
X49044Y-79167
X49081Y-89869
X49869Y-89869
X50079Y-47270
X50309Y-29905
X50309Y-39150
X50316Y-48530
X50641Y-47734
X50696Y-82026
X50706Y-30510
X50706Y-39755
X50790Y-52606
X50790Y-61879
X50790Y-71153
X51131Y-80072
X51365Y-89869
X51537Y-55480
X51537Y-64753
X51537Y-74027
X51887Y-31337
X51887Y-40582
X52204Y-29265
X52204Y-38510
X52220Y-51818
X52220Y-61092
X52220Y-70366
X52233Y-79167
X52296Y-29855
X52296Y-39101
X52322Y-27887
X52322Y-37132
X52358Y-89732
X52388Y-90224
X52599Y-46919
X53579Y-53837
X53579Y-63110
X53579Y-72384
X53769Y-81135
X53939Y-54299
X53939Y-63572
X53939Y-72846
X53974Y-30746
X53974Y-39992
X53979Y-55716
X53979Y-64990
X53979Y-74263
X53990Y-89397
X54252Y-46927
X54409Y-28792
X54409Y-38038
X54414Y-47549
X54726Y-82789
X55112Y-88491
X55475Y-53196
X55475Y-62470
X55475Y-71744
X55488Y-80545
X55511Y-27887
X55511Y-37132
X55567Y-53787
X55567Y-63060
X55567Y-72334
X55580Y-81135
X55593Y-51818
X55593Y-61092
X55593Y-70366
X55606Y-79167
X55643Y-89736
X56430Y-89736
X56970Y-47835
X57046Y-29855
X57046Y-39101
X57047Y-47349
X57239Y-54806
X57239Y-64080
X57239Y-73353
X57680Y-52724
X57680Y-61998
X57680Y-71271
X57745Y-79994
X57927Y-89736
X58004Y-31509
X58004Y-40754
X58099Y-82789
X58169Y-46443
X58642Y-47884
X58766Y-29265
X58766Y-38510
X58782Y-51818
X58782Y-61092
X58782Y-70366
X58795Y-79167
X58857Y-29855
X58857Y-39101
X58884Y-27887
X58884Y-37132
X58898Y-89712
X58947Y-90231
X59957Y-47868
X60221Y-89382
X60317Y-53787
X60317Y-63060
X60317Y-72334
X60328Y-46856
X60330Y-81135
X60536Y-90130
X61023Y-28713
X61023Y-37959
X61275Y-55440
X61275Y-64714
X61275Y-73988
X61301Y-82789
X61377Y-31509
X61377Y-40754
X61673Y-88491
X61977Y-47684
X62037Y-53196
X62037Y-62470
X62037Y-71744
X62050Y-80545
X62073Y-27887
X62073Y-37132
X62128Y-53787
X62128Y-63060
X62128Y-72334
X62141Y-81135
X62155Y-51818
X62155Y-61092
X62155Y-70366
X62168Y-79167
X62205Y-89869
X62992Y-89869
X63276Y-47416
X63608Y-29855
X63608Y-39101
X64241Y-80033
X64294Y-52645
X64294Y-61919
X64294Y-71192
X64488Y-89869
X64579Y-31509
X64579Y-40754
X64648Y-55440
X64648Y-64714
X64648Y-73988
X64674Y-82789
X64731Y-46443
X65327Y-29265
X65327Y-38510
X65344Y-51818
X65344Y-61092
X65344Y-70366
X65357Y-79167
X65419Y-29855
X65419Y-39101
X65445Y-27887
X65445Y-37132
X65459Y-89613
X65509Y-90231
X65992Y-47254
X66726Y-89948
X66823Y-48305
X66879Y-53787
X66879Y-63060
X66879Y-72334
X66892Y-81135
X67113Y-88905
X67398Y-47183
X67456Y-47672
X67876Y-82828
X67952Y-31509
X67952Y-40754
X68193Y-52386
X68193Y-61660
X68193Y-70934
X68506Y-55637
X68506Y-64911
X68506Y-74185
X68517Y-47664
X68541Y-29053
X68541Y-38299
X68611Y-80545
X68703Y-81135
X68729Y-79167
X68766Y-89869
X69121Y-87940
X69289Y-28502
X69289Y-37748
X69554Y-89869
X70170Y-29855
X70170Y-39101
X70171Y-47349
X70348Y-52698
X70348Y-61971
X70348Y-71245
X70698Y-80033
X71050Y-89869
X71154Y-31548
X71154Y-40794
X71249Y-82828
X71293Y-46443
X71449Y-55627
X71449Y-64901
X71449Y-74174
X71501Y-27463
X71501Y-36708
X71824Y-47821
X71889Y-29265
X71889Y-38510
X71918Y-79167
X71981Y-29855
X71981Y-39101
X72021Y-89613
X72074Y-90224
X72612Y-47821
X73441Y-53787
X73441Y-63060
X73441Y-72334
X73441Y-81108
X73675Y-89397
X73698Y-28896
X73698Y-29722
X73698Y-38141
X73698Y-38968
X74108Y-47821
X74200Y-82814
X74425Y-55480
X74425Y-64753
X74425Y-74027
X74526Y-31548
X74526Y-40794
X74790Y-82420
X74797Y-88491
X75079Y-47565
X75128Y-48183
X75160Y-53196
X75160Y-62470
X75160Y-71744
X75252Y-53787
X75252Y-63060
X75252Y-72334
X75278Y-51818
X75278Y-61092
X75278Y-70366
X75291Y-79167
X75328Y-89869
X75785Y-28423
X75785Y-37669
X76115Y-89869
X76345Y-47900
X76719Y-29828
X76719Y-39073
X76956Y-80151
X77246Y-52685
X77246Y-61958
X77246Y-71232
X77478Y-31533
X77478Y-40779
X77611Y-89869
X77797Y-55480
X77797Y-64753
X77797Y-74027
X77845Y-46453
X78386Y-47821
X78412Y-90224
X78467Y-51818
X78467Y-61092
X78467Y-70366
X78501Y-29880
X78501Y-39126
X78516Y-29225
X78516Y-38471
X78569Y-27887
X78569Y-37132
X78583Y-89712
X78924Y-82814
X79173Y-47821
X79989Y-53759
X79989Y-63033
X79989Y-72307
X80011Y-81120
X80236Y-89397
X80548Y-29211
X80548Y-38456
X80657Y-83011
X80669Y-47821
X81144Y-55677
X81144Y-64950
X81144Y-74224
X81358Y-88491
X81640Y-47565
X81693Y-48175
X81720Y-80491
X81774Y-53787
X81774Y-63060
X81774Y-72334
X81840Y-51818
X81840Y-61092
X81840Y-70366
X81853Y-79167
X81877Y-81140
X81890Y-89869
X81971Y-52527
X81971Y-61801
X81971Y-71074
X82202Y-31533
X82202Y-40779
X82677Y-89869
X83289Y-29839
X83289Y-39085
X83294Y-47349
X83934Y-31730
X83934Y-40976
X84003Y-80018
X84173Y-89869
X84416Y-46443
X84475Y-83050
X84948Y-47821
X84987Y-90224
X84997Y-29211
X84997Y-38456
X85130Y-27887
X85130Y-37132
X85144Y-89712
X85155Y-29860
X85155Y-39106
X85199Y-52527
X85199Y-61801
X85199Y-71074
X85632Y-55677
X85632Y-64950
X85632Y-74224
X85735Y-47821
X86559Y-53771
X86559Y-63045
X86559Y-72318
X86577Y-81135
X86798Y-89397
X87205Y-55662
X87205Y-64936
X87205Y-74209
X87231Y-47821
X87281Y-28738
X87281Y-37984
X87561Y-82828
X87753Y-31770
X87753Y-41015
X87920Y-88491
X88032Y-48175
X88202Y-47664
X88268Y-53142
X88268Y-62416
X88268Y-71690
X88296Y-80545
X88344Y-27911
X88344Y-37157
X88388Y-81135
X88401Y-51818
X88401Y-61092
X88401Y-70366
X88414Y-79167
X88426Y-53792
X88426Y-63066
X88426Y-72339
X88451Y-89909
X89239Y-89869
X89855Y-29855
X89855Y-39101
X89856Y-47349
X90105Y-79940
X90552Y-52670
X90552Y-61944
X90552Y-71217
X90735Y-89869
X90839Y-31548
X90839Y-40794
X90934Y-82828
X90978Y-46443
X91024Y-55701
X91024Y-64975
X91024Y-74249
X91509Y-47821
X91562Y-90243
X91574Y-29265
X91574Y-38510
X91603Y-79167
X91666Y-29855
X91666Y-39101
X91692Y-27887
X91692Y-37132
X91706Y-89613
X92297Y-47821
X92934Y-81156
X93126Y-53787
X93126Y-63060
X93126Y-72334
X93137Y-81672
X93176Y-83286
X93360Y-89397
X93793Y-47821
X93910Y-28871
X93910Y-38116
X94110Y-55480
X94110Y-64753
X94110Y-74027
X94212Y-31548
X94212Y-40794
X94481Y-88491
X94606Y-48175
X94764Y-47664
X94845Y-53196
X94845Y-62470
X94845Y-71744
X94858Y-80545
X94881Y-27887
X94881Y-37132
X94937Y-53787
X94937Y-63060
X94937Y-72334
X94950Y-81135
X94963Y-51818
X94963Y-61092
X94963Y-70366
X94976Y-79167
X95013Y-89869
X95800Y-89869
X96212Y-29876
X96212Y-39121
X96415Y-31022
X96415Y-40267
X96417Y-47349
X96601Y-82066
X96695Y-52803
X96695Y-62076
X96695Y-71350
X97115Y-80112
X97296Y-89869
X97482Y-55480
X97482Y-64753
X97482Y-74027
X97539Y-46443
X97793Y-31376
X97793Y-40622
X98071Y-47860
X98136Y-29265
X98136Y-38510
X98152Y-51818
X98152Y-61092
X98152Y-70366
X98165Y-79167
X98227Y-29855
X98227Y-39101
X98254Y-27887
X98254Y-37132
X98268Y-89712
X98320Y-90204
X98858Y-47821
X99483Y-53808
X99483Y-63081
X99483Y-72355
X99700Y-81135
X99766Y-55873
X99766Y-65147
X99766Y-74421
X99766Y-54456
X99766Y-63730
X99766Y-73003
X99879Y-30785
X99879Y-40031
X99921Y-89397
X100354Y-47821
X100393Y-28831
X100393Y-38077
X100671Y-82828
X101043Y-88491
X101181Y-48195
X101325Y-47565
X101380Y-53645
X101380Y-62919
X101380Y-72192
X101409Y-53154
X101409Y-62428
X101409Y-71701
X101420Y-80545
X101443Y-27887
X101443Y-37132
X101511Y-81135
X101524Y-51818
X101524Y-61092
X101524Y-70366
X101538Y-79167
X101575Y-89909
X102362Y-89869
X102978Y-29855
X102978Y-39101
X102992Y-47703
X103158Y-54793
X103158Y-64066
X103158Y-73340
X103572Y-80033
X103664Y-52763
X103664Y-62037
X103664Y-71310
X103858Y-89869
X103949Y-31548
X103949Y-40794
X104044Y-82828
X104101Y-46443
X104632Y-47821
X104697Y-29265
X104697Y-38510
X104713Y-51818
X104713Y-61092
X104713Y-70366
X104726Y-79167
X104789Y-29855
X104789Y-39101
X104815Y-27887
X104815Y-37132
X104829Y-89613
X104882Y-90224
X106127Y-89343
X106234Y-46876
X106249Y-53787
X106249Y-63060
X106249Y-72334
X106262Y-81135
X106481Y-90130
X106850Y-28753
X106850Y-37998
X107220Y-55480
X107220Y-64753
X107220Y-74027
X107246Y-82789
X107322Y-31548
X107322Y-40794
X107605Y-88491
X107887Y-47664
X107940Y-48156
X107968Y-53196
X107968Y-62470
X107968Y-71744
X107981Y-80545
X108004Y-27887
X108004Y-37132
X108060Y-53787
X108060Y-63060
X108060Y-72334
X108073Y-81135
X108086Y-51818
X108086Y-61092
X108086Y-70366
X108099Y-79167
X108136Y-89869
X108924Y-89869
X109419Y-47860
X109540Y-29855
X109540Y-39101
X110420Y-89869
X110524Y-31509
X110524Y-40754
X110593Y-55480
X110593Y-64753
X110593Y-74027
X110619Y-82789
X110632Y-52685
X110632Y-61958
X110632Y-71232
X110663Y-46443
X111132Y-48106
X111207Y-90224
X111259Y-29265
X111259Y-38510
X111275Y-51818
X111275Y-61092
X111275Y-70366
X111288Y-79167
X111347Y-80545
X111351Y-29855
X111351Y-39101
X111377Y-27887
X111377Y-37132
X111391Y-89712
X112698Y-81261
X112760Y-48136
X112811Y-53787
X112811Y-63060
X112811Y-72334
X112861Y-90066
X113018Y-88964
X113383Y-29211
X113383Y-38456
X113821Y-82789
X113897Y-31509
X113897Y-40754
X114077Y-47900
X114145Y-52323
X114145Y-61597
X114145Y-70870
X114543Y-80545
X114635Y-81135
X114661Y-79167
X114698Y-89909
X114727Y-55637
X114727Y-64911
X114727Y-74185
X114869Y-87940
X115155Y-27478
X115155Y-36724
X115485Y-89869
X115945Y-47231
X115975Y-29981
X115975Y-39227
X116295Y-52755
X116295Y-62029
X116295Y-71302
X116564Y-80230
X116981Y-89869
X117099Y-31509
X117099Y-40754
X117194Y-82789
X117236Y-46246
X117426Y-27352
X117426Y-36598
X117821Y-29265
X117821Y-38510
X117837Y-55637
X117837Y-64911
X117837Y-74185
X117850Y-79167
X117874Y-47349
X117903Y-81135
X117912Y-29855
X117912Y-39101
X117952Y-89712
X118005Y-90224
X118701Y-47112
X119278Y-89751
X119372Y-53787
X119372Y-63060
X119372Y-72334
X119643Y-29762
X119643Y-39007
X119664Y-28849
X119664Y-38094
X119725Y-46758
X119908Y-88649
X120356Y-55440
X120356Y-64714
X120356Y-73988
X120471Y-31509
X120471Y-40754
X120709Y-47152
X120717Y-46610
X121092Y-53137
X121092Y-53137
X121092Y-62411
X121092Y-62411
X121092Y-71685
X121092Y-71685
X121129Y-82774
X121168Y-81160
X121180Y-29855
X121180Y-39101
X121183Y-53787
X121183Y-63060
X121183Y-72334
X121207Y-87940
X121208Y-79192
X121209Y-51818
X121209Y-61092
X121209Y-70366
X121210Y-46601
X121690Y-28463
X121690Y-37708
X122047Y-89869
X122837Y-52685
X122837Y-61958
X122837Y-71232
X122920Y-80156
X123038Y-46939
X123366Y-46573
X123478Y-44975
X123543Y-89869
X123729Y-55440
X123729Y-64714
X123729Y-73988
X123977Y-46561
X124382Y-29225
X124382Y-38471
X124398Y-51818
X124398Y-61092
X124398Y-70366
X124407Y-31494
X124407Y-40740
X124446Y-29880
X124446Y-39126
X124486Y-27911
X124486Y-37157
X124514Y-89613
X124531Y-87919
X124569Y-45369
X124593Y-90243
X124633Y-82735
X124882Y-48727
X125354Y-45656
X125893Y-53780
X125893Y-63054
X125893Y-72327
X125947Y-81135
X125971Y-90657
X126931Y-82789
X126931Y-55440
X126931Y-64714
X126931Y-73988
X127110Y-44404
X127163Y-29092
X127163Y-38338
X127354Y-45418
X127362Y-48766
X127582Y-88629
X127666Y-80486
X127666Y-80486
X127747Y-53798
X127747Y-63071
X127747Y-72345
X127758Y-81135
X127771Y-51818
X127771Y-61092
X127771Y-70366
X127784Y-79167
X127827Y-87839
X127911Y-31455
X127911Y-40700
X128018Y-89003
X128160Y-88201
X128255Y-53300
X128255Y-62573
X128255Y-71847
X128860Y-90881
X128915Y-29855
X128915Y-39101
X129683Y-52688
X129683Y-61961
X129683Y-71235
X129958Y-31455
X129958Y-40700
X130066Y-79940
X130304Y-82789
X130304Y-55440
X130304Y-64714
X130304Y-73988
X130304Y-52960
X130304Y-53511
X130304Y-62234
X130304Y-62785
X130304Y-71507
X130304Y-72059
X130960Y-51818
X130960Y-61092
X130960Y-70366
X130973Y-79167
X131062Y-27887
X131062Y-37132
X131795Y-29447
X131795Y-38692
X132369Y-53916
X132369Y-63189
X132369Y-72463
X132468Y-81128
X132585Y-88531
X132648Y-90215
X132740Y-28935
X132740Y-38181
X132743Y-52355
X132743Y-61629
X132743Y-70902
X132837Y-53157
X132837Y-62431
X132837Y-71704
X133465Y-88415
X133506Y-82789
X133640Y-29092
X133640Y-38338
X134322Y-81146
X134346Y-79167
X134381Y-89238
X134433Y-28738
X134433Y-37984
X134446Y-31455
X134446Y-40700
X134582Y-86750
X134830Y-80648
X134906Y-88398
X135105Y-90538
X135107Y-86484
X135509Y-29801
X135509Y-39047
X136257Y-80036
X136258Y-87256
X136422Y-29271
X136422Y-38517
X136678Y-86941
X136879Y-82789
X136879Y-80309
X136879Y-80860
X137268Y-90760
X137535Y-79167
X137635Y-27872
X137635Y-37118
X138944Y-81264
X139318Y-79703
X139674Y-80663
T3
X135997Y-88432
X135997Y-89220
X38369Y-71166
X38369Y-71954
X38369Y-72741
X38369Y-73528
X135997Y-90007
X135997Y-90794
X135153Y-61879
X135153Y-62667
X125931Y-46384
X125931Y-47171
X125931Y-47959
X125931Y-48746
X135153Y-63454
X135153Y-64242
X138444Y-37920
X138444Y-38707
X138444Y-39494
X138444Y-40282
X135153Y-71153
X135153Y-71940
X135153Y-72728
X135153Y-73515
X135153Y-52606
X135153Y-53393
X135153Y-54181
X135153Y-54968
X138444Y-28674
X138444Y-29461
X138444Y-30249
X138444Y-31036
X38369Y-64255
X38369Y-63467
X38369Y-62680
X38369Y-61893
X35098Y-39508
X38392Y-89220
X38392Y-90007
X38392Y-90794
X141728Y-82316
X141728Y-81529
X141728Y-80742
X141728Y-79954
X31820Y-82330
X31820Y-81542
X31820Y-80755
X31820Y-79967
X38392Y-88432
X35098Y-40295
X35098Y-38720
X35098Y-37933
X38369Y-52619
X38369Y-53406
X38369Y-54194
X38369Y-54981
X48012Y-46384
X48012Y-47171
X48012Y-47959
X48012Y-48746
X35098Y-28687
X35098Y-29474
X35098Y-30262
X35098Y-31049
T0
M30
