G04 #@! TF.GenerationSoftware,KiCad,Pcbnew,(5.1.0-0)*
G04 #@! TF.CreationDate,2019-05-14T21:28:48-07:00*
G04 #@! TF.ProjectId,InsidePanel,496e7369-6465-4506-916e-656c2e6b6963,rev?*
G04 #@! TF.SameCoordinates,Original*
G04 #@! TF.FileFunction,Soldermask,Bot*
G04 #@! TF.FilePolarity,Negative*
%FSLAX46Y46*%
G04 Gerber Fmt 4.6, Leading zero omitted, Abs format (unit mm)*
G04 Created by KiCad (PCBNEW (5.1.0-0)) date 2019-05-14 21:28:48*
%MOMM*%
%LPD*%
G04 APERTURE LIST*
%ADD10R,2.400000X2.150000*%
%ADD11R,2.400000X4.400000*%
%ADD12R,1.650000X4.400000*%
%ADD13O,3.400000X1.650000*%
%ADD14R,1.650000X2.150000*%
%ADD15C,0.900000*%
G04 APERTURE END LIST*
D10*
X166747004Y-123985487D03*
X172747004Y-123985487D03*
X169747004Y-123985487D03*
D11*
X266866415Y-116365487D03*
X272866415Y-116365487D03*
X269866415Y-116365487D03*
D12*
X300949611Y-116365487D03*
X305449611Y-116365487D03*
X303199611Y-116365487D03*
D13*
X319865927Y-123815487D03*
X319865927Y-121815487D03*
X319865927Y-119815487D03*
X319865927Y-117815487D03*
X121950337Y-123815487D03*
X121950337Y-121815487D03*
X121950337Y-119815487D03*
X121950337Y-117815487D03*
D10*
X286413673Y-123985487D03*
X289413673Y-123985487D03*
X283413673Y-123985487D03*
D14*
X134283667Y-123985487D03*
X138783667Y-123985487D03*
X136533667Y-123985487D03*
D11*
X150200229Y-116365487D03*
X156200229Y-116365487D03*
X153200229Y-116365487D03*
D15*
X367945000Y-75296000D03*
X367945000Y-74296000D03*
X367945000Y-76296000D03*
X367945000Y-77296000D03*
X367945000Y-100796000D03*
X367945000Y-99796000D03*
X367945000Y-97796000D03*
X367945000Y-98796000D03*
X335945000Y-118796000D03*
X335945000Y-117796000D03*
X335945000Y-119796000D03*
X335945000Y-120796000D03*
X358445000Y-138196000D03*
X358445000Y-137196000D03*
X358445000Y-135196000D03*
X358445000Y-136196000D03*
X358545000Y-159596000D03*
X358545000Y-158596000D03*
X358545000Y-160596000D03*
X358545000Y-161596000D03*
X358545000Y-185096000D03*
X358545000Y-184096000D03*
X358545000Y-182096000D03*
X358545000Y-183096000D03*
X374345000Y-206596000D03*
X374345000Y-205596000D03*
X374345000Y-207596000D03*
X374345000Y-208596000D03*
X360245000Y-228596000D03*
X360245000Y-227596000D03*
X360245000Y-225596000D03*
X360245000Y-226596000D03*
X80545000Y-226596000D03*
X80545000Y-225596000D03*
X80545000Y-227596000D03*
X80545000Y-228596000D03*
X66445000Y-208596000D03*
X66445000Y-207596000D03*
X66445000Y-205596000D03*
X66445000Y-206596000D03*
X82345000Y-183096000D03*
X82345000Y-182096000D03*
X82345000Y-184096000D03*
X82345000Y-185096000D03*
X82345000Y-161596000D03*
X82345000Y-160596000D03*
X82345000Y-158596000D03*
X82345000Y-159596000D03*
X82345000Y-136096000D03*
X82345000Y-135096000D03*
X82345000Y-137096000D03*
X82345000Y-138096000D03*
X104745000Y-120896000D03*
X104745000Y-119896000D03*
X104745000Y-117896000D03*
X104745000Y-118896000D03*
X72745000Y-98780000D03*
X72745000Y-97780000D03*
X72745000Y-99780000D03*
X72745000Y-100780000D03*
X72745000Y-77296000D03*
X72745000Y-76296000D03*
X72745000Y-74296000D03*
X72745000Y-75296000D03*
D12*
X103730465Y-104315888D03*
X105980465Y-104315888D03*
X101480465Y-104315888D03*
D11*
X184064530Y-94315888D03*
X190064530Y-94315888D03*
X187064530Y-94315888D03*
D12*
X337063914Y-94315888D03*
X339313914Y-94315888D03*
X334813914Y-94315888D03*
D13*
X351647220Y-96315888D03*
X351647220Y-98315888D03*
X351647220Y-100315888D03*
X351647220Y-102315888D03*
D11*
X303730718Y-94315888D03*
X306730718Y-94315888D03*
X300730718Y-94315888D03*
X137064670Y-104315888D03*
X140064670Y-104315888D03*
X134064670Y-104315888D03*
D13*
X89148186Y-96349222D03*
X89148186Y-98349222D03*
X89148186Y-100349222D03*
X89148186Y-102349222D03*
D11*
X250730858Y-104315888D03*
X256730858Y-104315888D03*
X253730858Y-104315888D03*
D15*
X220974000Y-232137000D03*
X221974000Y-232137000D03*
X219974000Y-232137000D03*
X218974000Y-232137000D03*
X317045000Y-232096000D03*
X318045000Y-232096000D03*
X320045000Y-232096000D03*
X319045000Y-232096000D03*
X120805000Y-232137000D03*
X121805000Y-232137000D03*
X123805000Y-232137000D03*
X122805000Y-232137000D03*
X218974000Y-218537000D03*
X219974000Y-218537000D03*
X221974000Y-218537000D03*
X220974000Y-218537000D03*
X319045000Y-218496000D03*
X320045000Y-218496000D03*
X318045000Y-218496000D03*
X317045000Y-218496000D03*
X122805000Y-218537000D03*
X123805000Y-218537000D03*
X121805000Y-218537000D03*
X120805000Y-218537000D03*
X220974000Y-215837000D03*
X221974000Y-215837000D03*
X219974000Y-215837000D03*
X218974000Y-215837000D03*
X317045000Y-215796000D03*
X318045000Y-215796000D03*
X320045000Y-215796000D03*
X319045000Y-215796000D03*
X120805000Y-215837000D03*
X121805000Y-215837000D03*
X123805000Y-215837000D03*
X122805000Y-215837000D03*
X218974000Y-196337000D03*
X219974000Y-196337000D03*
X221974000Y-196337000D03*
X220974000Y-196337000D03*
X319045000Y-196296000D03*
X320045000Y-196296000D03*
X318045000Y-196296000D03*
X317045000Y-196296000D03*
X122805000Y-196337000D03*
X123805000Y-196337000D03*
X121805000Y-196337000D03*
X120805000Y-196337000D03*
X220974000Y-193437000D03*
X221974000Y-193437000D03*
X219974000Y-193437000D03*
X218974000Y-193437000D03*
X317045000Y-193396000D03*
X318045000Y-193396000D03*
X320045000Y-193396000D03*
X319045000Y-193396000D03*
X120805000Y-193437000D03*
X121805000Y-193437000D03*
X123805000Y-193437000D03*
X122805000Y-193437000D03*
X218974000Y-173937000D03*
X219974000Y-173937000D03*
X221974000Y-173937000D03*
X220974000Y-173937000D03*
X319045000Y-173896000D03*
X320045000Y-173896000D03*
X318045000Y-173896000D03*
X317045000Y-173896000D03*
X122805000Y-173937000D03*
X123805000Y-173937000D03*
X121805000Y-173937000D03*
X120805000Y-173937000D03*
X220974000Y-169937000D03*
X221974000Y-169937000D03*
X219974000Y-169937000D03*
X218974000Y-169937000D03*
X317045000Y-169896000D03*
X318045000Y-169896000D03*
X320045000Y-169896000D03*
X319045000Y-169896000D03*
X120805000Y-169937000D03*
X121805000Y-169937000D03*
X123805000Y-169937000D03*
X122805000Y-169937000D03*
X218974000Y-150437000D03*
X219974000Y-150437000D03*
X221974000Y-150437000D03*
X220974000Y-150437000D03*
X319045000Y-150396000D03*
X320045000Y-150396000D03*
X318045000Y-150396000D03*
X317045000Y-150396000D03*
X122805000Y-150437000D03*
X123805000Y-150437000D03*
X121805000Y-150437000D03*
X120805000Y-150437000D03*
X220974000Y-146337000D03*
X221974000Y-146337000D03*
X219974000Y-146337000D03*
X218974000Y-146337000D03*
X317045000Y-146296000D03*
X318045000Y-146296000D03*
X320045000Y-146296000D03*
X319045000Y-146296000D03*
X120805000Y-146337000D03*
X121805000Y-146337000D03*
X123805000Y-146337000D03*
X122805000Y-146337000D03*
X218974000Y-126837000D03*
X219974000Y-126837000D03*
X221974000Y-126837000D03*
X220974000Y-126837000D03*
X319045000Y-126796000D03*
X320045000Y-126796000D03*
X318045000Y-126796000D03*
X317045000Y-126796000D03*
X122805000Y-126837000D03*
X123805000Y-126837000D03*
X121805000Y-126837000D03*
X120805000Y-126837000D03*
X220974000Y-125237000D03*
X221974000Y-125237000D03*
X219974000Y-125237000D03*
X218974000Y-125237000D03*
X317045000Y-125196000D03*
X318045000Y-125196000D03*
X320045000Y-125196000D03*
X319045000Y-125196000D03*
X120805000Y-125237000D03*
X121805000Y-125237000D03*
X123805000Y-125237000D03*
X122805000Y-125237000D03*
X218974000Y-111837000D03*
X219974000Y-111837000D03*
X221974000Y-111837000D03*
X220974000Y-111837000D03*
X319045000Y-111796000D03*
X320045000Y-111796000D03*
X318045000Y-111796000D03*
X317045000Y-111796000D03*
X122805000Y-111837000D03*
X123805000Y-111837000D03*
X121805000Y-111837000D03*
X120805000Y-111837000D03*
X120805000Y-109037000D03*
X121805000Y-109037000D03*
X123805000Y-109037000D03*
X122805000Y-109037000D03*
X317045000Y-108996000D03*
X318045000Y-108996000D03*
X320045000Y-108996000D03*
X319045000Y-108996000D03*
X220974000Y-109037000D03*
X221974000Y-109037000D03*
X219974000Y-109037000D03*
X218974000Y-109037000D03*
X218974000Y-89537000D03*
X219974000Y-89537000D03*
X221974000Y-89537000D03*
X220974000Y-89537000D03*
X122805000Y-89537000D03*
X123805000Y-89537000D03*
X121805000Y-89537000D03*
X120805000Y-89537000D03*
X319045000Y-89496000D03*
X320045000Y-89496000D03*
X318045000Y-89496000D03*
X317045000Y-89496000D03*
X220974000Y-85537000D03*
X221974000Y-85537000D03*
X219974000Y-85537000D03*
X218974000Y-85537000D03*
X120805000Y-85537000D03*
X121805000Y-85537000D03*
X123805000Y-85537000D03*
X122805000Y-85537000D03*
X317045000Y-85496000D03*
X318045000Y-85496000D03*
X320045000Y-85496000D03*
X319045000Y-85496000D03*
X319045000Y-65996000D03*
X320045000Y-65996000D03*
X318045000Y-65996000D03*
X317045000Y-65996000D03*
X218974000Y-66037000D03*
X219974000Y-66037000D03*
X221974000Y-66037000D03*
X220974000Y-66037000D03*
X122805000Y-66037000D03*
X123805000Y-66037000D03*
X121805000Y-66037000D03*
X120805000Y-66037000D03*
D11*
X142372594Y-141618662D03*
X148372594Y-141618662D03*
X145372594Y-141618662D03*
X262038782Y-141618662D03*
X265038782Y-141618662D03*
X259038782Y-141618662D03*
D13*
X97456110Y-139651996D03*
X97456110Y-137651996D03*
X97456110Y-135651996D03*
X97456110Y-133651996D03*
D12*
X109788658Y-141618662D03*
X114288658Y-141618662D03*
X112038658Y-141618662D03*
D11*
X178705794Y-131618662D03*
X181705794Y-131618662D03*
X175705794Y-131618662D03*
D13*
X343288484Y-139618662D03*
X343288484Y-137618662D03*
X343288484Y-135618662D03*
X343288484Y-133618662D03*
D12*
X326455178Y-131618662D03*
X330955178Y-131618662D03*
X328705178Y-131618662D03*
D11*
X292371982Y-131618662D03*
X298371982Y-131618662D03*
X295371982Y-131618662D03*
X145372594Y-165173662D03*
X148372594Y-165173662D03*
X142372594Y-165173662D03*
X259038782Y-165173662D03*
X265038782Y-165173662D03*
X262038782Y-165173662D03*
D13*
X97456110Y-157206996D03*
X97456110Y-159206996D03*
X97456110Y-161206996D03*
X97456110Y-163206996D03*
D12*
X112038658Y-165173662D03*
X114288658Y-165173662D03*
X109788658Y-165173662D03*
D11*
X175705794Y-155173662D03*
X181705794Y-155173662D03*
X178705794Y-155173662D03*
D13*
X343288484Y-157173662D03*
X343288484Y-159173662D03*
X343288484Y-161173662D03*
X343288484Y-163173662D03*
D11*
X295371982Y-155173662D03*
X298371982Y-155173662D03*
X292371982Y-155173662D03*
D12*
X328705178Y-155173662D03*
X330955178Y-155173662D03*
X326455178Y-155173662D03*
X109788658Y-188728662D03*
X114288658Y-188728662D03*
X112038658Y-188728662D03*
D11*
X178705794Y-178728662D03*
X181705794Y-178728662D03*
X175705794Y-178728662D03*
X142372594Y-188728662D03*
X148372594Y-188728662D03*
X145372594Y-188728662D03*
X262038782Y-188728662D03*
X265038782Y-188728662D03*
X259038782Y-188728662D03*
X292371982Y-178728662D03*
X298371982Y-178728662D03*
X295371982Y-178728662D03*
D12*
X326455178Y-178728662D03*
X330955178Y-178728662D03*
X328705178Y-178728662D03*
D13*
X343288484Y-186728662D03*
X343288484Y-184728662D03*
X343288484Y-182728662D03*
X343288484Y-180728662D03*
X97456110Y-186761996D03*
X97456110Y-184761996D03*
X97456110Y-182761996D03*
X97456110Y-180761996D03*
D12*
X95404911Y-211083820D03*
X97654911Y-211083820D03*
X93154911Y-211083820D03*
D11*
X195405516Y-201083820D03*
X198405516Y-201083820D03*
X192405516Y-201083820D03*
X125739116Y-211083820D03*
X131739116Y-211083820D03*
X128739116Y-211083820D03*
X245405304Y-211083820D03*
X248405304Y-211083820D03*
X242405304Y-211083820D03*
X309071704Y-201083820D03*
X315071704Y-201083820D03*
X312071704Y-201083820D03*
D12*
X343154900Y-201083820D03*
X347654900Y-201083820D03*
X345404900Y-201083820D03*
D13*
X359988206Y-209083820D03*
X359988206Y-207083820D03*
X359988206Y-205083820D03*
X359988206Y-203083820D03*
X80822632Y-209117154D03*
X80822632Y-207117154D03*
X80822632Y-205117154D03*
X80822632Y-203117154D03*
D12*
X101480465Y-80831888D03*
X105980465Y-80831888D03*
X103730465Y-80831888D03*
D11*
X187064530Y-70831888D03*
X190064530Y-70831888D03*
X184064530Y-70831888D03*
X134064670Y-80831888D03*
X140064670Y-80831888D03*
X137064670Y-80831888D03*
X253730858Y-80831888D03*
X256730858Y-80831888D03*
X250730858Y-80831888D03*
X300730718Y-70831888D03*
X306730718Y-70831888D03*
X303730718Y-70831888D03*
D12*
X334813914Y-70831888D03*
X339313914Y-70831888D03*
X337063914Y-70831888D03*
D13*
X351647220Y-78831888D03*
X351647220Y-76831888D03*
X351647220Y-74831888D03*
X351647220Y-72831888D03*
X89148186Y-78865222D03*
X89148186Y-76865222D03*
X89148186Y-74865222D03*
X89148186Y-72865222D03*
D14*
X118183442Y-230880700D03*
X122683442Y-230880700D03*
X120433442Y-230880700D03*
D10*
X270433431Y-230880700D03*
X273433431Y-230880700D03*
X267433431Y-230880700D03*
X150766774Y-230880700D03*
X156766774Y-230880700D03*
X153766774Y-230880700D03*
D11*
X284099354Y-223167700D03*
X290099354Y-223167700D03*
X287099354Y-223167700D03*
X167433168Y-223167700D03*
X173433168Y-223167700D03*
X170433168Y-223167700D03*
D12*
X318182550Y-223167700D03*
X322682550Y-223167700D03*
X320432550Y-223167700D03*
D13*
X345432364Y-230617700D03*
X345432364Y-228617700D03*
X345432364Y-226617700D03*
X345432364Y-224617700D03*
X97516776Y-230617700D03*
X97516776Y-228617700D03*
X97516776Y-226617700D03*
X97516776Y-224617700D03*
M02*
