G04 #@! TF.GenerationSoftware,KiCad,Pcbnew,(5.1.0-0)*
G04 #@! TF.CreationDate,2019-05-14T21:28:48-07:00*
G04 #@! TF.ProjectId,InsidePanel,496e7369-6465-4506-916e-656c2e6b6963,rev?*
G04 #@! TF.SameCoordinates,Original*
G04 #@! TF.FileFunction,Legend,Bot*
G04 #@! TF.FilePolarity,Positive*
%FSLAX46Y46*%
G04 Gerber Fmt 4.6, Leading zero omitted, Abs format (unit mm)*
G04 Created by KiCad (PCBNEW (5.1.0-0)) date 2019-05-14 21:28:48*
%MOMM*%
%LPD*%
G04 APERTURE LIST*
%ADD10C,0.300000*%
%ADD11C,0.150000*%
%ADD12C,0.180000*%
%ADD13C,0.200000*%
%ADD14C,0.500000*%
G04 APERTURE END LIST*
D10*
X169748916Y-120825391D02*
X170463202Y-120825391D01*
X170534631Y-121539677D01*
X170463202Y-121468248D01*
X170320345Y-121396820D01*
X169963202Y-121396820D01*
X169820345Y-121468248D01*
X169748916Y-121539677D01*
X169677488Y-121682534D01*
X169677488Y-122039677D01*
X169748916Y-122182534D01*
X169820345Y-122253962D01*
X169963202Y-122325391D01*
X170320345Y-122325391D01*
X170463202Y-122253962D01*
X170534631Y-122182534D01*
X169177488Y-121325391D02*
X168820345Y-122325391D01*
X168463202Y-121325391D01*
X166141773Y-120996820D02*
X166284631Y-120925391D01*
X166498916Y-120925391D01*
X166713202Y-120996820D01*
X166856059Y-121139677D01*
X166927488Y-121282534D01*
X166998916Y-121568248D01*
X166998916Y-121782534D01*
X166927488Y-122068248D01*
X166856059Y-122211105D01*
X166713202Y-122353962D01*
X166498916Y-122425391D01*
X166356059Y-122425391D01*
X166141773Y-122353962D01*
X166070345Y-122282534D01*
X166070345Y-121782534D01*
X166356059Y-121782534D01*
X172141773Y-120996820D02*
X172284631Y-120925391D01*
X172498916Y-120925391D01*
X172713202Y-120996820D01*
X172856059Y-121139677D01*
X172927488Y-121282534D01*
X172998916Y-121568248D01*
X172998916Y-121782534D01*
X172927488Y-122068248D01*
X172856059Y-122211105D01*
X172713202Y-122353962D01*
X172498916Y-122425391D01*
X172356059Y-122425391D01*
X172141773Y-122353962D01*
X172070345Y-122282534D01*
X172070345Y-121782534D01*
X172356059Y-121782534D01*
X288841773Y-120896820D02*
X288984631Y-120825391D01*
X289198916Y-120825391D01*
X289413202Y-120896820D01*
X289556059Y-121039677D01*
X289627488Y-121182534D01*
X289698916Y-121468248D01*
X289698916Y-121682534D01*
X289627488Y-121968248D01*
X289556059Y-122111105D01*
X289413202Y-122253962D01*
X289198916Y-122325391D01*
X289056059Y-122325391D01*
X288841773Y-122253962D01*
X288770345Y-122182534D01*
X288770345Y-121682534D01*
X289056059Y-121682534D01*
X286448916Y-120725391D02*
X287163202Y-120725391D01*
X287234631Y-121439677D01*
X287163202Y-121368248D01*
X287020345Y-121296820D01*
X286663202Y-121296820D01*
X286520345Y-121368248D01*
X286448916Y-121439677D01*
X286377488Y-121582534D01*
X286377488Y-121939677D01*
X286448916Y-122082534D01*
X286520345Y-122153962D01*
X286663202Y-122225391D01*
X287020345Y-122225391D01*
X287163202Y-122153962D01*
X287234631Y-122082534D01*
X285877488Y-121225391D02*
X285520345Y-122225391D01*
X285163202Y-121225391D01*
X282841773Y-120896820D02*
X282984631Y-120825391D01*
X283198916Y-120825391D01*
X283413202Y-120896820D01*
X283556059Y-121039677D01*
X283627488Y-121182534D01*
X283698916Y-121468248D01*
X283698916Y-121682534D01*
X283627488Y-121968248D01*
X283556059Y-122111105D01*
X283413202Y-122253962D01*
X283198916Y-122325391D01*
X283056059Y-122325391D01*
X282841773Y-122253962D01*
X282770345Y-122182534D01*
X282770345Y-121682534D01*
X283056059Y-121682534D01*
D11*
X139667631Y-120994439D02*
X139667631Y-121994439D01*
X139096202Y-120994439D01*
X139096202Y-121994439D01*
X138429535Y-121994439D02*
X138239059Y-121994439D01*
X138143821Y-121946820D01*
X138048583Y-121851581D01*
X138000964Y-121661105D01*
X138000964Y-121327772D01*
X138048583Y-121137296D01*
X138143821Y-121042058D01*
X138239059Y-120994439D01*
X138429535Y-120994439D01*
X138524773Y-121042058D01*
X138620011Y-121137296D01*
X138667631Y-121327772D01*
X138667631Y-121661105D01*
X138620011Y-121851581D01*
X138524773Y-121946820D01*
X138429535Y-121994439D01*
X137572392Y-121375391D02*
X136810488Y-121375391D01*
X135762869Y-121089677D02*
X135810488Y-121042058D01*
X135953345Y-120994439D01*
X136048583Y-120994439D01*
X136191440Y-121042058D01*
X136286678Y-121137296D01*
X136334297Y-121232534D01*
X136381916Y-121423010D01*
X136381916Y-121565867D01*
X136334297Y-121756343D01*
X136286678Y-121851581D01*
X136191440Y-121946820D01*
X136048583Y-121994439D01*
X135953345Y-121994439D01*
X135810488Y-121946820D01*
X135762869Y-121899200D01*
X135143821Y-121994439D02*
X134953345Y-121994439D01*
X134858107Y-121946820D01*
X134762869Y-121851581D01*
X134715250Y-121661105D01*
X134715250Y-121327772D01*
X134762869Y-121137296D01*
X134858107Y-121042058D01*
X134953345Y-120994439D01*
X135143821Y-120994439D01*
X135239059Y-121042058D01*
X135334297Y-121137296D01*
X135381916Y-121327772D01*
X135381916Y-121661105D01*
X135334297Y-121851581D01*
X135239059Y-121946820D01*
X135143821Y-121994439D01*
X134286678Y-120994439D02*
X134286678Y-121994439D01*
X133715250Y-120994439D01*
X133715250Y-121994439D01*
X133239059Y-120994439D02*
X133239059Y-121994439D01*
X132667631Y-120994439D01*
X132667631Y-121994439D01*
X203670542Y-140895338D02*
X187270542Y-140895338D01*
X237003874Y-140895338D02*
X220603874Y-140895338D01*
X320337200Y-140895338D02*
X303937200Y-140895338D01*
X287003868Y-140895338D02*
X270603868Y-140895338D01*
X245377350Y-95000450D02*
X228977350Y-95000450D01*
X212044017Y-95000450D02*
X195644017Y-95000450D01*
X278710682Y-95000450D02*
X262310682Y-95000450D01*
X203670542Y-187995338D02*
X187270542Y-187995338D01*
X237003874Y-187995338D02*
X220603874Y-187995338D01*
X203670542Y-187995338D02*
X187270542Y-187995338D01*
X237003874Y-187995338D02*
X220603874Y-187995338D01*
X220337209Y-187995338D02*
X203937209Y-187995338D01*
X253670541Y-187995338D02*
X237270541Y-187995338D01*
X145237224Y-230895338D02*
X128837224Y-230895338D01*
X287003868Y-187995338D02*
X270603868Y-187995338D01*
X320337200Y-187995338D02*
X303937200Y-187995338D01*
X320337200Y-164395338D02*
X303937200Y-164395338D01*
X287003868Y-164395338D02*
X270603868Y-164395338D01*
X237003876Y-164395338D02*
X220603876Y-164395338D01*
X203670556Y-164395338D02*
X187270556Y-164395338D01*
X311903868Y-230895338D02*
X295503868Y-230895338D01*
X245237222Y-230895338D02*
X228837222Y-230895338D01*
X228570555Y-230895338D02*
X212170555Y-230895338D01*
X261903889Y-222295338D02*
X245503889Y-222295338D01*
X261903889Y-222295338D02*
X245503889Y-222295338D01*
X245237222Y-222295338D02*
X228837222Y-222295338D01*
X245237222Y-222295338D02*
X228837222Y-222295338D01*
X195237223Y-230895338D02*
X178837223Y-230895338D01*
X211903888Y-222295338D02*
X195503888Y-222295338D01*
X211903888Y-222295338D02*
X195503888Y-222295338D01*
X145237224Y-222295338D02*
X128837224Y-222295338D01*
X336970537Y-210395338D02*
X320570537Y-210395338D01*
X303637203Y-210395338D02*
X287237203Y-210395338D01*
X270303869Y-210395338D02*
X253903869Y-210395338D01*
X220303893Y-210395338D02*
X203903893Y-210395338D01*
X186970559Y-210395338D02*
X170570559Y-210395338D01*
X153637225Y-210395338D02*
X137237225Y-210395338D01*
X120303891Y-201795338D02*
X103903891Y-201795338D01*
X303637195Y-201795338D02*
X287237195Y-201795338D01*
X270303869Y-201795338D02*
X253903869Y-201795338D01*
X236970535Y-201795338D02*
X220570535Y-201795338D01*
X186970555Y-201795338D02*
X170570555Y-201795338D01*
X153637223Y-201795338D02*
X137237223Y-201795338D01*
X170337224Y-140895338D02*
X153937224Y-140895338D01*
X170337224Y-164395338D02*
X153937224Y-164395338D01*
X170337224Y-187995338D02*
X153937224Y-187995338D01*
X287003888Y-132295338D02*
X270603888Y-132295338D01*
X287003888Y-155795338D02*
X270603888Y-155795338D01*
X287003888Y-179395338D02*
X270603888Y-179395338D01*
X253670555Y-179395338D02*
X237270555Y-179395338D01*
X253670555Y-132295338D02*
X237270555Y-132295338D01*
X253670555Y-155795338D02*
X237270555Y-155795338D01*
X220337222Y-132295338D02*
X203937222Y-132295338D01*
X220337222Y-155795338D02*
X203937222Y-155795338D01*
X220337222Y-179395338D02*
X203937222Y-179395338D01*
X170337222Y-132295338D02*
X153937222Y-132295338D01*
X170337222Y-179395338D02*
X153937222Y-179395338D01*
X170337222Y-155795338D02*
X153937222Y-155795338D01*
X137003890Y-155795338D02*
X120603890Y-155795338D01*
X137003890Y-179395338D02*
X120603890Y-179395338D01*
X137003890Y-132295338D02*
X120603890Y-132295338D01*
X211503889Y-124295338D02*
X195103889Y-124295338D01*
X261503887Y-124295338D02*
X245103887Y-124295338D01*
X244837221Y-124295338D02*
X228437221Y-124295338D01*
X261503869Y-115695338D02*
X245103869Y-115695338D01*
X228170555Y-115695338D02*
X211770555Y-115695338D01*
X194837223Y-115695338D02*
X178437223Y-115695338D01*
X328710683Y-103600450D02*
X312310683Y-103600450D01*
X295377349Y-103600450D02*
X278977349Y-103600450D01*
X245377350Y-103600450D02*
X228977350Y-103600450D01*
X212044037Y-103600450D02*
X195644037Y-103600450D01*
X178710704Y-103600450D02*
X162310704Y-103600450D01*
X178710704Y-95000450D02*
X162310704Y-95000450D01*
X162044038Y-95000450D02*
X145644038Y-95000450D01*
X128710706Y-95000450D02*
X112310706Y-95000450D01*
X178703889Y-71495338D02*
X162303889Y-71495338D01*
X162037223Y-71495338D02*
X145637223Y-71495338D01*
X128703891Y-71495338D02*
X112303891Y-71495338D01*
X212037203Y-71495338D02*
X195637203Y-71495338D01*
X245370535Y-71495338D02*
X228970535Y-71495338D01*
X278703868Y-71495338D02*
X262303868Y-71495338D01*
X328703868Y-80095338D02*
X312303868Y-80095338D01*
X295370534Y-80095338D02*
X278970534Y-80095338D01*
X245370535Y-80095338D02*
X228970535Y-80095338D01*
X212037222Y-80095338D02*
X195637222Y-80095338D01*
X178703889Y-80095338D02*
X162303889Y-80095338D01*
X178703889Y-80095338D02*
X162303889Y-80095338D01*
X162037223Y-80095338D02*
X145637223Y-80095338D01*
X128710706Y-103600450D02*
X112310706Y-103600450D01*
X262044017Y-95000450D02*
X245644017Y-95000450D01*
X228710684Y-103600450D02*
X212310684Y-103600450D01*
X162044038Y-103600450D02*
X145644038Y-103600450D01*
X345377349Y-103600450D02*
X328977349Y-103600450D01*
X328710683Y-95000450D02*
X312310683Y-95000450D01*
X312044017Y-103600450D02*
X295644017Y-103600450D01*
X195377371Y-103600450D02*
X178977371Y-103600450D01*
X228710684Y-95000450D02*
X212310684Y-95000450D01*
X145377372Y-95000450D02*
X128977372Y-95000450D01*
X295377349Y-95000450D02*
X278977349Y-95000450D01*
X112044040Y-95000450D02*
X95644040Y-95000450D01*
X278710683Y-103600450D02*
X262310683Y-103600450D01*
X345370534Y-80095338D02*
X328970534Y-80095338D01*
X253670541Y-140895338D02*
X237270541Y-140895338D01*
X220337209Y-140895338D02*
X203937209Y-140895338D01*
X153670544Y-132295338D02*
X137270544Y-132295338D01*
X120337224Y-132295338D02*
X103937224Y-132295338D01*
X137003891Y-140895338D02*
X120603891Y-140895338D01*
X237003875Y-132295338D02*
X220603875Y-132295338D01*
X203670555Y-132295338D02*
X187270555Y-132295338D01*
X320337201Y-132295338D02*
X303937201Y-132295338D01*
X270337195Y-132295338D02*
X253937195Y-132295338D01*
X187003889Y-140895338D02*
X170603889Y-140895338D01*
X303670535Y-140895338D02*
X287270535Y-140895338D01*
X337003867Y-140895338D02*
X320603867Y-140895338D01*
X237003875Y-132295338D02*
X220603875Y-132295338D01*
X253670541Y-187995338D02*
X237270541Y-187995338D01*
X220337209Y-187995338D02*
X203937209Y-187995338D01*
X153670544Y-179395338D02*
X137270544Y-179395338D01*
X120337224Y-179395338D02*
X103937224Y-179395338D01*
X137003891Y-187995338D02*
X120603891Y-187995338D01*
X237003875Y-179395338D02*
X220603875Y-179395338D01*
X203670555Y-179395338D02*
X187270555Y-179395338D01*
X320337201Y-179395338D02*
X303937201Y-179395338D01*
X270337195Y-179395338D02*
X253937195Y-179395338D01*
X187003889Y-187995338D02*
X170603889Y-187995338D01*
X303670535Y-187995338D02*
X287270535Y-187995338D01*
X337003867Y-187995338D02*
X320603867Y-187995338D01*
X237003875Y-179395338D02*
X220603875Y-179395338D01*
X337003867Y-164395338D02*
X320603867Y-164395338D01*
X153670544Y-155795338D02*
X137270544Y-155795338D01*
X203670555Y-155795338D02*
X187270555Y-155795338D01*
X237003875Y-155795338D02*
X220603875Y-155795338D01*
X253670541Y-164395338D02*
X237270541Y-164395338D01*
X220337209Y-164395338D02*
X203937209Y-164395338D01*
X220303868Y-201795338D02*
X203903868Y-201795338D01*
X103637224Y-201795338D02*
X87237224Y-201795338D01*
X228570555Y-222295338D02*
X212170555Y-222295338D01*
X228570555Y-222295338D02*
X212170555Y-222295338D01*
X195237221Y-222295338D02*
X178837221Y-222295338D01*
X1041903549Y-222295338D02*
X1025503549Y-222295338D01*
X161903889Y-222295338D02*
X145503889Y-222295338D01*
X278570535Y-222295338D02*
X262170535Y-222295338D01*
X211903888Y-230895338D02*
X195503888Y-230895338D01*
X311903868Y-222295338D02*
X295503868Y-222295338D01*
X128570557Y-222295338D02*
X112170557Y-222295338D01*
X145237224Y-230895338D02*
X128837224Y-230895338D01*
X195237221Y-222295338D02*
X178837221Y-222295338D01*
X295237201Y-230895338D02*
X278837201Y-230895338D01*
X261903868Y-230895338D02*
X245503868Y-230895338D01*
X328570534Y-230895338D02*
X312170534Y-230895338D01*
X345237201Y-222295338D02*
X328837201Y-222295338D01*
X178570556Y-230895338D02*
X162170556Y-230895338D01*
X178170557Y-115695338D02*
X161770557Y-115695338D01*
X244837203Y-115695338D02*
X228437203Y-115695338D01*
X228170555Y-124295338D02*
X211770555Y-124295338D01*
X294837202Y-115695338D02*
X278437202Y-115695338D01*
X144837225Y-115695338D02*
X128437225Y-115695338D01*
X161503891Y-124295338D02*
X145103891Y-124295338D01*
X211503889Y-115695338D02*
X195103889Y-115695338D01*
X311503868Y-124295338D02*
X295103868Y-124295338D01*
X278170535Y-124295338D02*
X261770535Y-124295338D01*
X194837223Y-124295338D02*
X178437223Y-124295338D01*
X312037202Y-80095338D02*
X295637202Y-80095338D01*
X328703868Y-71495338D02*
X312303868Y-71495338D01*
X145370557Y-71495338D02*
X128970557Y-71495338D01*
X228703869Y-71495338D02*
X212303869Y-71495338D01*
X195370556Y-80095338D02*
X178970556Y-80095338D01*
X262037202Y-71495338D02*
X245637202Y-71495338D01*
X112037225Y-71495338D02*
X95637225Y-71495338D01*
X128703891Y-80095338D02*
X112303891Y-80095338D01*
X278703868Y-80095338D02*
X262303868Y-80095338D01*
X228703869Y-80095338D02*
X212303869Y-80095338D01*
X295370534Y-71495338D02*
X278970534Y-71495338D01*
X162037223Y-80095338D02*
X145637223Y-80095338D01*
X336970533Y-201795338D02*
X320570533Y-201795338D01*
X353637193Y-210395338D02*
X337237193Y-210395338D01*
X136970556Y-201795338D02*
X120570556Y-201795338D01*
X253637202Y-201795338D02*
X237237202Y-201795338D01*
X203637222Y-210395338D02*
X187237222Y-210395338D01*
X286970528Y-201795338D02*
X270570528Y-201795338D01*
X120303891Y-210395338D02*
X103903891Y-210395338D01*
X170303888Y-201795338D02*
X153903888Y-201795338D01*
X286970528Y-210395338D02*
X270570528Y-210395338D01*
X236970535Y-210395338D02*
X220570535Y-210395338D01*
X320303861Y-210395338D02*
X303903861Y-210395338D01*
X170303890Y-210395338D02*
X153903890Y-210395338D01*
X270337195Y-155795338D02*
X253937195Y-155795338D01*
X187003889Y-164395338D02*
X170603889Y-164395338D01*
X120337224Y-155795338D02*
X103937224Y-155795338D01*
X137003891Y-164395338D02*
X120603891Y-164395338D01*
X237003875Y-155795338D02*
X220603875Y-155795338D01*
X303670535Y-164395338D02*
X287270535Y-164395338D01*
X320337201Y-155795338D02*
X303937201Y-155795338D01*
D10*
X107582329Y-115591487D02*
X106153758Y-115591487D01*
X107868044Y-116448629D02*
X106868044Y-113448629D01*
X105868044Y-116448629D01*
D12*
X322967339Y-117217867D02*
X323443529Y-117217867D01*
X323491148Y-117694058D01*
X323443529Y-117646439D01*
X323348291Y-117598820D01*
X323110196Y-117598820D01*
X323014958Y-117646439D01*
X322967339Y-117694058D01*
X322919719Y-117789296D01*
X322919719Y-118027391D01*
X322967339Y-118122629D01*
X323014958Y-118170248D01*
X323110196Y-118217867D01*
X323348291Y-118217867D01*
X323443529Y-118170248D01*
X323491148Y-118122629D01*
X322586386Y-117551201D02*
X322348291Y-118217867D01*
X322110196Y-117551201D01*
D11*
X317114622Y-121222629D02*
X317162241Y-121270248D01*
X317305098Y-121317867D01*
X317400337Y-121317867D01*
X317543194Y-121270248D01*
X317638432Y-121175010D01*
X317686051Y-121079772D01*
X317733670Y-120889296D01*
X317733670Y-120746439D01*
X317686051Y-120555963D01*
X317638432Y-120460725D01*
X317543194Y-120365487D01*
X317400337Y-120317867D01*
X317305098Y-120317867D01*
X317162241Y-120365487D01*
X317114622Y-120413106D01*
X316495575Y-120317867D02*
X316305098Y-120317867D01*
X316209860Y-120365487D01*
X316114622Y-120460725D01*
X316067003Y-120651201D01*
X316067003Y-120984534D01*
X316114622Y-121175010D01*
X316209860Y-121270248D01*
X316305098Y-121317867D01*
X316495575Y-121317867D01*
X316590813Y-121270248D01*
X316686051Y-121175010D01*
X316733670Y-120984534D01*
X316733670Y-120651201D01*
X316686051Y-120460725D01*
X316590813Y-120365487D01*
X316495575Y-120317867D01*
X327619280Y-120322629D02*
X327666899Y-120370248D01*
X327809756Y-120417867D01*
X327904994Y-120417867D01*
X328047852Y-120370248D01*
X328143090Y-120275010D01*
X328190709Y-120179772D01*
X328238328Y-119989296D01*
X328238328Y-119846439D01*
X328190709Y-119655963D01*
X328143090Y-119560725D01*
X328047852Y-119465487D01*
X327904994Y-119417867D01*
X327809756Y-119417867D01*
X327666899Y-119465487D01*
X327619280Y-119513106D01*
X326476423Y-119370248D02*
X327333566Y-120655963D01*
X325952613Y-119417867D02*
X325762137Y-119417867D01*
X325666899Y-119465487D01*
X325571661Y-119560725D01*
X325524042Y-119751201D01*
X325524042Y-120084534D01*
X325571661Y-120275010D01*
X325666899Y-120370248D01*
X325762137Y-120417867D01*
X325952613Y-120417867D01*
X326047852Y-120370248D01*
X326143090Y-120275010D01*
X326190709Y-120084534D01*
X326190709Y-119751201D01*
X326143090Y-119560725D01*
X326047852Y-119465487D01*
X325952613Y-119417867D01*
X324333566Y-120417867D02*
X324333566Y-119417867D01*
X324095471Y-119417867D01*
X323952613Y-119465487D01*
X323857375Y-119560725D01*
X323809756Y-119655963D01*
X323762137Y-119846439D01*
X323762137Y-119989296D01*
X323809756Y-120179772D01*
X323857375Y-120275010D01*
X323952613Y-120370248D01*
X324095471Y-120417867D01*
X324333566Y-120417867D01*
X323333566Y-120417867D02*
X323333566Y-119417867D01*
X322857375Y-120417867D02*
X322857375Y-119417867D01*
X322285947Y-120417867D01*
X322285947Y-119417867D01*
X327619280Y-122422629D02*
X327666899Y-122470248D01*
X327809756Y-122517867D01*
X327904994Y-122517867D01*
X328047852Y-122470248D01*
X328143090Y-122375010D01*
X328190709Y-122279772D01*
X328238328Y-122089296D01*
X328238328Y-121946439D01*
X328190709Y-121755963D01*
X328143090Y-121660725D01*
X328047852Y-121565487D01*
X327904994Y-121517867D01*
X327809756Y-121517867D01*
X327666899Y-121565487D01*
X327619280Y-121613106D01*
X326476423Y-121470248D02*
X327333566Y-122755963D01*
X325952613Y-121517867D02*
X325762137Y-121517867D01*
X325666899Y-121565487D01*
X325571661Y-121660725D01*
X325524042Y-121851201D01*
X325524042Y-122184534D01*
X325571661Y-122375010D01*
X325666899Y-122470248D01*
X325762137Y-122517867D01*
X325952613Y-122517867D01*
X326047852Y-122470248D01*
X326143090Y-122375010D01*
X326190709Y-122184534D01*
X326190709Y-121851201D01*
X326143090Y-121660725D01*
X326047852Y-121565487D01*
X325952613Y-121517867D01*
X324000232Y-121994058D02*
X323857375Y-122041677D01*
X323809756Y-122089296D01*
X323762137Y-122184534D01*
X323762137Y-122327391D01*
X323809756Y-122422629D01*
X323857375Y-122470248D01*
X323952613Y-122517867D01*
X324333566Y-122517867D01*
X324333566Y-121517867D01*
X324000232Y-121517867D01*
X323904994Y-121565487D01*
X323857375Y-121613106D01*
X323809756Y-121708344D01*
X323809756Y-121803582D01*
X323857375Y-121898820D01*
X323904994Y-121946439D01*
X324000232Y-121994058D01*
X324333566Y-121994058D01*
X323333566Y-122517867D02*
X323333566Y-121517867D01*
X322857375Y-122517867D02*
X322857375Y-121517867D01*
X322285947Y-122517867D01*
X322285947Y-121517867D01*
D12*
X324253053Y-123365487D02*
X324348291Y-123317867D01*
X324491148Y-123317867D01*
X324634005Y-123365487D01*
X324729243Y-123460725D01*
X324776862Y-123555963D01*
X324824481Y-123746439D01*
X324824481Y-123889296D01*
X324776862Y-124079772D01*
X324729243Y-124175010D01*
X324634005Y-124270248D01*
X324491148Y-124317867D01*
X324395910Y-124317867D01*
X324253053Y-124270248D01*
X324205434Y-124222629D01*
X324205434Y-123889296D01*
X324395910Y-123889296D01*
X323776862Y-124317867D02*
X323776862Y-123317867D01*
X323205434Y-124317867D01*
X323205434Y-123317867D01*
X322729243Y-124317867D02*
X322729243Y-123317867D01*
X322491148Y-123317867D01*
X322348291Y-123365487D01*
X322253053Y-123460725D01*
X322205434Y-123555963D01*
X322157815Y-123746439D01*
X322157815Y-123889296D01*
X322205434Y-124079772D01*
X322253053Y-124175010D01*
X322348291Y-124270248D01*
X322491148Y-124317867D01*
X322729243Y-124317867D01*
X305403908Y-119312772D02*
X305451527Y-119455629D01*
X305499146Y-119503248D01*
X305594384Y-119550867D01*
X305737241Y-119550867D01*
X305832479Y-119503248D01*
X305880098Y-119455629D01*
X305927717Y-119360391D01*
X305927717Y-118979439D01*
X304927717Y-118979439D01*
X304927717Y-119312772D01*
X304975337Y-119408010D01*
X305022956Y-119455629D01*
X305118194Y-119503248D01*
X305213432Y-119503248D01*
X305308670Y-119455629D01*
X305356289Y-119408010D01*
X305403908Y-119312772D01*
X305403908Y-118979439D01*
X304927717Y-120169915D02*
X304927717Y-120360391D01*
X304975337Y-120455629D01*
X305070575Y-120550867D01*
X305261051Y-120598487D01*
X305594384Y-120598487D01*
X305784860Y-120550867D01*
X305880098Y-120455629D01*
X305927717Y-120360391D01*
X305927717Y-120169915D01*
X305880098Y-120074677D01*
X305784860Y-119979439D01*
X305594384Y-119931820D01*
X305261051Y-119931820D01*
X305070575Y-119979439D01*
X304975337Y-120074677D01*
X304927717Y-120169915D01*
X304927717Y-121027058D02*
X305737241Y-121027058D01*
X305832479Y-121074677D01*
X305880098Y-121122296D01*
X305927717Y-121217534D01*
X305927717Y-121408010D01*
X305880098Y-121503248D01*
X305832479Y-121550867D01*
X305737241Y-121598487D01*
X304927717Y-121598487D01*
X304927717Y-121931820D02*
X304927717Y-122503248D01*
X305927717Y-122217534D02*
X304927717Y-122217534D01*
X303677717Y-118879439D02*
X302677717Y-118879439D01*
X302677717Y-119117534D01*
X302725337Y-119260391D01*
X302820575Y-119355629D01*
X302915813Y-119403248D01*
X303106289Y-119450867D01*
X303249146Y-119450867D01*
X303439622Y-119403248D01*
X303534860Y-119355629D01*
X303630098Y-119260391D01*
X303677717Y-119117534D01*
X303677717Y-118879439D01*
X302677717Y-120069915D02*
X302677717Y-120260391D01*
X302725337Y-120355629D01*
X302820575Y-120450867D01*
X303011051Y-120498487D01*
X303344384Y-120498487D01*
X303534860Y-120450867D01*
X303630098Y-120355629D01*
X303677717Y-120260391D01*
X303677717Y-120069915D01*
X303630098Y-119974677D01*
X303534860Y-119879439D01*
X303344384Y-119831820D01*
X303011051Y-119831820D01*
X302820575Y-119879439D01*
X302725337Y-119974677D01*
X302677717Y-120069915D01*
X302677717Y-120927058D02*
X303487241Y-120927058D01*
X303582479Y-120974677D01*
X303630098Y-121022296D01*
X303677717Y-121117534D01*
X303677717Y-121308010D01*
X303630098Y-121403248D01*
X303582479Y-121450867D01*
X303487241Y-121498487D01*
X302677717Y-121498487D01*
X302677717Y-121831820D02*
X302677717Y-122403248D01*
X303677717Y-122117534D02*
X302677717Y-122117534D01*
D13*
X119014622Y-116944058D02*
X119728908Y-116944058D01*
X119800337Y-117658344D01*
X119728908Y-117586915D01*
X119586051Y-117515487D01*
X119228908Y-117515487D01*
X119086051Y-117586915D01*
X119014622Y-117658344D01*
X118943194Y-117801201D01*
X118943194Y-118158344D01*
X119014622Y-118301201D01*
X119086051Y-118372629D01*
X119228908Y-118444058D01*
X119586051Y-118444058D01*
X119728908Y-118372629D01*
X119800337Y-118301201D01*
X118443194Y-117444058D02*
X118086051Y-118444058D01*
X117728908Y-117444058D01*
X119043194Y-123115487D02*
X119186051Y-123044058D01*
X119400337Y-123044058D01*
X119614622Y-123115487D01*
X119757479Y-123258344D01*
X119828908Y-123401201D01*
X119900337Y-123686915D01*
X119900337Y-123901201D01*
X119828908Y-124186915D01*
X119757479Y-124329772D01*
X119614622Y-124472629D01*
X119400337Y-124544058D01*
X119257479Y-124544058D01*
X119043194Y-124472629D01*
X118971765Y-124401201D01*
X118971765Y-123901201D01*
X119257479Y-123901201D01*
X118328908Y-124544058D02*
X118328908Y-123044058D01*
X117471765Y-124544058D01*
X117471765Y-123044058D01*
X116757479Y-124544058D02*
X116757479Y-123044058D01*
X116400337Y-123044058D01*
X116186051Y-123115487D01*
X116043194Y-123258344D01*
X115971765Y-123401201D01*
X115900337Y-123686915D01*
X115900337Y-123901201D01*
X115971765Y-124186915D01*
X116043194Y-124329772D01*
X116186051Y-124472629D01*
X116400337Y-124544058D01*
X116757479Y-124544058D01*
D11*
X119824146Y-120417867D02*
X119824146Y-119417867D01*
X119586051Y-119417867D01*
X119443194Y-119465487D01*
X119347956Y-119560725D01*
X119300337Y-119655963D01*
X119252717Y-119846439D01*
X119252717Y-119989296D01*
X119300337Y-120179772D01*
X119347956Y-120275010D01*
X119443194Y-120370248D01*
X119586051Y-120417867D01*
X119824146Y-120417867D01*
X118824146Y-120417867D02*
X118824146Y-119417867D01*
X118347956Y-120417867D02*
X118347956Y-119417867D01*
X117776527Y-120417867D01*
X117776527Y-119417867D01*
D12*
X317267339Y-117217867D02*
X317743529Y-117217867D01*
X317791148Y-117694058D01*
X317743529Y-117646439D01*
X317648291Y-117598820D01*
X317410196Y-117598820D01*
X317314958Y-117646439D01*
X317267339Y-117694058D01*
X317219719Y-117789296D01*
X317219719Y-118027391D01*
X317267339Y-118122629D01*
X317314958Y-118170248D01*
X317410196Y-118217867D01*
X317648291Y-118217867D01*
X317743529Y-118170248D01*
X317791148Y-118122629D01*
X316886386Y-117551201D02*
X316648291Y-118217867D01*
X316410196Y-117551201D01*
X317253053Y-123365487D02*
X317348291Y-123317867D01*
X317491148Y-123317867D01*
X317634005Y-123365487D01*
X317729243Y-123460725D01*
X317776862Y-123555963D01*
X317824481Y-123746439D01*
X317824481Y-123889296D01*
X317776862Y-124079772D01*
X317729243Y-124175010D01*
X317634005Y-124270248D01*
X317491148Y-124317867D01*
X317395910Y-124317867D01*
X317253053Y-124270248D01*
X317205434Y-124222629D01*
X317205434Y-123889296D01*
X317395910Y-123889296D01*
X316776862Y-124317867D02*
X316776862Y-123317867D01*
X316205434Y-124317867D01*
X316205434Y-123317867D01*
X315729243Y-124317867D02*
X315729243Y-123317867D01*
X315491148Y-123317867D01*
X315348291Y-123365487D01*
X315253053Y-123460725D01*
X315205434Y-123555963D01*
X315157815Y-123746439D01*
X315157815Y-123889296D01*
X315205434Y-124079772D01*
X315253053Y-124175010D01*
X315348291Y-124270248D01*
X315491148Y-124317867D01*
X315729243Y-124317867D01*
D11*
X119490813Y-121794058D02*
X119347956Y-121841677D01*
X119300337Y-121889296D01*
X119252717Y-121984534D01*
X119252717Y-122127391D01*
X119300337Y-122222629D01*
X119347956Y-122270248D01*
X119443194Y-122317867D01*
X119824146Y-122317867D01*
X119824146Y-121317867D01*
X119490813Y-121317867D01*
X119395575Y-121365487D01*
X119347956Y-121413106D01*
X119300337Y-121508344D01*
X119300337Y-121603582D01*
X119347956Y-121698820D01*
X119395575Y-121746439D01*
X119490813Y-121794058D01*
X119824146Y-121794058D01*
X118824146Y-122317867D02*
X118824146Y-121317867D01*
X118347956Y-122317867D02*
X118347956Y-121317867D01*
X117776527Y-122317867D01*
X117776527Y-121317867D01*
D10*
X334482329Y-115591487D02*
X333053758Y-115591487D01*
X334768044Y-116448629D02*
X333768044Y-113448629D01*
X332768044Y-116448629D01*
D12*
X301153908Y-119212772D02*
X301201527Y-119355629D01*
X301249146Y-119403248D01*
X301344384Y-119450867D01*
X301487241Y-119450867D01*
X301582479Y-119403248D01*
X301630098Y-119355629D01*
X301677717Y-119260391D01*
X301677717Y-118879439D01*
X300677717Y-118879439D01*
X300677717Y-119212772D01*
X300725337Y-119308010D01*
X300772956Y-119355629D01*
X300868194Y-119403248D01*
X300963432Y-119403248D01*
X301058670Y-119355629D01*
X301106289Y-119308010D01*
X301153908Y-119212772D01*
X301153908Y-118879439D01*
X300677717Y-120069915D02*
X300677717Y-120260391D01*
X300725337Y-120355629D01*
X300820575Y-120450867D01*
X301011051Y-120498487D01*
X301344384Y-120498487D01*
X301534860Y-120450867D01*
X301630098Y-120355629D01*
X301677717Y-120260391D01*
X301677717Y-120069915D01*
X301630098Y-119974677D01*
X301534860Y-119879439D01*
X301344384Y-119831820D01*
X301011051Y-119831820D01*
X300820575Y-119879439D01*
X300725337Y-119974677D01*
X300677717Y-120069915D01*
X300677717Y-120927058D02*
X301487241Y-120927058D01*
X301582479Y-120974677D01*
X301630098Y-121022296D01*
X301677717Y-121117534D01*
X301677717Y-121308010D01*
X301630098Y-121403248D01*
X301582479Y-121450867D01*
X301487241Y-121498487D01*
X300677717Y-121498487D01*
X300677717Y-121831820D02*
X300677717Y-122403248D01*
X301677717Y-122117534D02*
X300677717Y-122117534D01*
D14*
X254100337Y-120565487D02*
X256100337Y-121565487D01*
X251100337Y-121565487D02*
X256100337Y-121565487D01*
X254100337Y-122565487D02*
X256100337Y-121565487D01*
X105900337Y-120865487D02*
X110900337Y-120865487D01*
X108900337Y-119865487D02*
X110900337Y-120865487D01*
X108900337Y-121865487D02*
X110900337Y-120865487D01*
X81698185Y-100415888D02*
X83698185Y-99415888D01*
X81698185Y-98415888D02*
X83698185Y-99415888D01*
X78698185Y-99415888D02*
X83698185Y-99415888D01*
X364648185Y-97965888D02*
X366648185Y-98965888D01*
X361648185Y-98965888D02*
X366648185Y-98965888D01*
X364648185Y-99965888D02*
X366648185Y-98965888D01*
D13*
X86977946Y-98881364D02*
X86977946Y-97631364D01*
X86680327Y-97631364D01*
X86501756Y-97690888D01*
X86382708Y-97809935D01*
X86323185Y-97928983D01*
X86263661Y-98167078D01*
X86263661Y-98345649D01*
X86323185Y-98583745D01*
X86382708Y-98702792D01*
X86501756Y-98821840D01*
X86680327Y-98881364D01*
X86977946Y-98881364D01*
X85727946Y-98881364D02*
X85727946Y-97631364D01*
X85132708Y-98881364D02*
X85132708Y-97631364D01*
X84418423Y-98881364D01*
X84418423Y-97631364D01*
X86561280Y-100326602D02*
X86382708Y-100386126D01*
X86323185Y-100445649D01*
X86263661Y-100564697D01*
X86263661Y-100743268D01*
X86323185Y-100862316D01*
X86382708Y-100921840D01*
X86501756Y-100981364D01*
X86977946Y-100981364D01*
X86977946Y-99731364D01*
X86561280Y-99731364D01*
X86442232Y-99790888D01*
X86382708Y-99850411D01*
X86323185Y-99969459D01*
X86323185Y-100088507D01*
X86382708Y-100207554D01*
X86442232Y-100267078D01*
X86561280Y-100326602D01*
X86977946Y-100326602D01*
X85727946Y-100981364D02*
X85727946Y-99731364D01*
X85132708Y-100981364D02*
X85132708Y-99731364D01*
X84418423Y-100981364D01*
X84418423Y-99731364D01*
X85741042Y-101865888D02*
X85883899Y-101794459D01*
X86098185Y-101794459D01*
X86312470Y-101865888D01*
X86455327Y-102008745D01*
X86526756Y-102151602D01*
X86598185Y-102437316D01*
X86598185Y-102651602D01*
X86526756Y-102937316D01*
X86455327Y-103080173D01*
X86312470Y-103223030D01*
X86098185Y-103294459D01*
X85955327Y-103294459D01*
X85741042Y-103223030D01*
X85669613Y-103151602D01*
X85669613Y-102651602D01*
X85955327Y-102651602D01*
X85026756Y-103294459D02*
X85026756Y-101794459D01*
X84169613Y-103294459D01*
X84169613Y-101794459D01*
X83455327Y-103294459D02*
X83455327Y-101794459D01*
X83098185Y-101794459D01*
X82883899Y-101865888D01*
X82741042Y-102008745D01*
X82669613Y-102151602D01*
X82598185Y-102437316D01*
X82598185Y-102651602D01*
X82669613Y-102937316D01*
X82741042Y-103080173D01*
X82883899Y-103223030D01*
X83098185Y-103294459D01*
X83455327Y-103294459D01*
X85912470Y-95394459D02*
X86626756Y-95394459D01*
X86698185Y-96108745D01*
X86626756Y-96037316D01*
X86483899Y-95965888D01*
X86126756Y-95965888D01*
X85983899Y-96037316D01*
X85912470Y-96108745D01*
X85841042Y-96251602D01*
X85841042Y-96608745D01*
X85912470Y-96751602D01*
X85983899Y-96823030D01*
X86126756Y-96894459D01*
X86483899Y-96894459D01*
X86626756Y-96823030D01*
X86698185Y-96751602D01*
X85341042Y-95894459D02*
X84983899Y-96894459D01*
X84626756Y-95894459D01*
D10*
X187274330Y-90157459D02*
X187988616Y-90157459D01*
X188060045Y-90871745D01*
X187988616Y-90800316D01*
X187845759Y-90728888D01*
X187488616Y-90728888D01*
X187345759Y-90800316D01*
X187274330Y-90871745D01*
X187202902Y-91014602D01*
X187202902Y-91371745D01*
X187274330Y-91514602D01*
X187345759Y-91586030D01*
X187488616Y-91657459D01*
X187845759Y-91657459D01*
X187988616Y-91586030D01*
X188060045Y-91514602D01*
X186702902Y-90657459D02*
X186345759Y-91657459D01*
X185988616Y-90657459D01*
X183667187Y-90328888D02*
X183810045Y-90257459D01*
X184024330Y-90257459D01*
X184238616Y-90328888D01*
X184381473Y-90471745D01*
X184452902Y-90614602D01*
X184524330Y-90900316D01*
X184524330Y-91114602D01*
X184452902Y-91400316D01*
X184381473Y-91543173D01*
X184238616Y-91686030D01*
X184024330Y-91757459D01*
X183881473Y-91757459D01*
X183667187Y-91686030D01*
X183595759Y-91614602D01*
X183595759Y-91114602D01*
X183881473Y-91114602D01*
X189667187Y-90328888D02*
X189810045Y-90257459D01*
X190024330Y-90257459D01*
X190238616Y-90328888D01*
X190381473Y-90471745D01*
X190452902Y-90614602D01*
X190524330Y-90900316D01*
X190524330Y-91114602D01*
X190452902Y-91400316D01*
X190381473Y-91543173D01*
X190238616Y-91686030D01*
X190024330Y-91757459D01*
X189881473Y-91757459D01*
X189667187Y-91686030D01*
X189595759Y-91614602D01*
X189595759Y-91114602D01*
X189881473Y-91114602D01*
X137274470Y-106957459D02*
X137988756Y-106957459D01*
X138060185Y-107671745D01*
X137988756Y-107600316D01*
X137845899Y-107528888D01*
X137488756Y-107528888D01*
X137345899Y-107600316D01*
X137274470Y-107671745D01*
X137203042Y-107814602D01*
X137203042Y-108171745D01*
X137274470Y-108314602D01*
X137345899Y-108386030D01*
X137488756Y-108457459D01*
X137845899Y-108457459D01*
X137988756Y-108386030D01*
X138060185Y-108314602D01*
X136703042Y-107457459D02*
X136345899Y-108457459D01*
X135988756Y-107457459D01*
X133667327Y-107128888D02*
X133810185Y-107057459D01*
X134024470Y-107057459D01*
X134238756Y-107128888D01*
X134381613Y-107271745D01*
X134453042Y-107414602D01*
X134524470Y-107700316D01*
X134524470Y-107914602D01*
X134453042Y-108200316D01*
X134381613Y-108343173D01*
X134238756Y-108486030D01*
X134024470Y-108557459D01*
X133881613Y-108557459D01*
X133667327Y-108486030D01*
X133595899Y-108414602D01*
X133595899Y-107914602D01*
X133881613Y-107914602D01*
X139667327Y-107128888D02*
X139810185Y-107057459D01*
X140024470Y-107057459D01*
X140238756Y-107128888D01*
X140381613Y-107271745D01*
X140453042Y-107414602D01*
X140524470Y-107700316D01*
X140524470Y-107914602D01*
X140453042Y-108200316D01*
X140381613Y-108343173D01*
X140238756Y-108486030D01*
X140024470Y-108557459D01*
X139881613Y-108557459D01*
X139667327Y-108486030D01*
X139595899Y-108414602D01*
X139595899Y-107914602D01*
X139881613Y-107914602D01*
D11*
X337579025Y-100369364D02*
X336579025Y-100369364D01*
X336579025Y-100131268D01*
X336626645Y-99988411D01*
X336721883Y-99893173D01*
X336817121Y-99845554D01*
X337007597Y-99797935D01*
X337150454Y-99797935D01*
X337340930Y-99845554D01*
X337436168Y-99893173D01*
X337531406Y-99988411D01*
X337579025Y-100131268D01*
X337579025Y-100369364D01*
X336579025Y-99178888D02*
X336579025Y-98988411D01*
X336626645Y-98893173D01*
X336721883Y-98797935D01*
X336912359Y-98750316D01*
X337245692Y-98750316D01*
X337436168Y-98797935D01*
X337531406Y-98893173D01*
X337579025Y-98988411D01*
X337579025Y-99178888D01*
X337531406Y-99274126D01*
X337436168Y-99369364D01*
X337245692Y-99416983D01*
X336912359Y-99416983D01*
X336721883Y-99369364D01*
X336626645Y-99274126D01*
X336579025Y-99178888D01*
X336579025Y-98321745D02*
X337388549Y-98321745D01*
X337483787Y-98274126D01*
X337531406Y-98226507D01*
X337579025Y-98131268D01*
X337579025Y-97940792D01*
X337531406Y-97845554D01*
X337483787Y-97797935D01*
X337388549Y-97750316D01*
X336579025Y-97750316D01*
X336579025Y-97416983D02*
X336579025Y-96845554D01*
X337579025Y-97131268D02*
X336579025Y-97131268D01*
X334755216Y-100036030D02*
X334802835Y-99893173D01*
X334850454Y-99845554D01*
X334945692Y-99797935D01*
X335088549Y-99797935D01*
X335183787Y-99845554D01*
X335231406Y-99893173D01*
X335279025Y-99988411D01*
X335279025Y-100369364D01*
X334279025Y-100369364D01*
X334279025Y-100036030D01*
X334326645Y-99940792D01*
X334374264Y-99893173D01*
X334469502Y-99845554D01*
X334564740Y-99845554D01*
X334659978Y-99893173D01*
X334707597Y-99940792D01*
X334755216Y-100036030D01*
X334755216Y-100369364D01*
X334279025Y-99178888D02*
X334279025Y-98988411D01*
X334326645Y-98893173D01*
X334421883Y-98797935D01*
X334612359Y-98750316D01*
X334945692Y-98750316D01*
X335136168Y-98797935D01*
X335231406Y-98893173D01*
X335279025Y-98988411D01*
X335279025Y-99178888D01*
X335231406Y-99274126D01*
X335136168Y-99369364D01*
X334945692Y-99416983D01*
X334612359Y-99416983D01*
X334421883Y-99369364D01*
X334326645Y-99274126D01*
X334279025Y-99178888D01*
X334279025Y-98321745D02*
X335088549Y-98321745D01*
X335183787Y-98274126D01*
X335231406Y-98226507D01*
X335279025Y-98131268D01*
X335279025Y-97940792D01*
X335231406Y-97845554D01*
X335183787Y-97797935D01*
X335088549Y-97750316D01*
X334279025Y-97750316D01*
X334279025Y-97416983D02*
X334279025Y-96845554D01*
X335279025Y-97131268D02*
X334279025Y-97131268D01*
X339255216Y-100036030D02*
X339302835Y-99893173D01*
X339350454Y-99845554D01*
X339445692Y-99797935D01*
X339588549Y-99797935D01*
X339683787Y-99845554D01*
X339731406Y-99893173D01*
X339779025Y-99988411D01*
X339779025Y-100369364D01*
X338779025Y-100369364D01*
X338779025Y-100036030D01*
X338826645Y-99940792D01*
X338874264Y-99893173D01*
X338969502Y-99845554D01*
X339064740Y-99845554D01*
X339159978Y-99893173D01*
X339207597Y-99940792D01*
X339255216Y-100036030D01*
X339255216Y-100369364D01*
X338779025Y-99178888D02*
X338779025Y-98988411D01*
X338826645Y-98893173D01*
X338921883Y-98797935D01*
X339112359Y-98750316D01*
X339445692Y-98750316D01*
X339636168Y-98797935D01*
X339731406Y-98893173D01*
X339779025Y-98988411D01*
X339779025Y-99178888D01*
X339731406Y-99274126D01*
X339636168Y-99369364D01*
X339445692Y-99416983D01*
X339112359Y-99416983D01*
X338921883Y-99369364D01*
X338826645Y-99274126D01*
X338779025Y-99178888D01*
X338779025Y-98321745D02*
X339588549Y-98321745D01*
X339683787Y-98274126D01*
X339731406Y-98226507D01*
X339779025Y-98131268D01*
X339779025Y-97940792D01*
X339731406Y-97845554D01*
X339683787Y-97797935D01*
X339588549Y-97750316D01*
X338779025Y-97750316D01*
X338779025Y-97416983D02*
X338779025Y-96845554D01*
X339779025Y-97131268D02*
X338779025Y-97131268D01*
D10*
X303974330Y-90157459D02*
X304688616Y-90157459D01*
X304760045Y-90871745D01*
X304688616Y-90800316D01*
X304545759Y-90728888D01*
X304188616Y-90728888D01*
X304045759Y-90800316D01*
X303974330Y-90871745D01*
X303902902Y-91014602D01*
X303902902Y-91371745D01*
X303974330Y-91514602D01*
X304045759Y-91586030D01*
X304188616Y-91657459D01*
X304545759Y-91657459D01*
X304688616Y-91586030D01*
X304760045Y-91514602D01*
X303402902Y-90657459D02*
X303045759Y-91657459D01*
X302688616Y-90657459D01*
X256367327Y-107028888D02*
X256510185Y-106957459D01*
X256724470Y-106957459D01*
X256938756Y-107028888D01*
X257081613Y-107171745D01*
X257153042Y-107314602D01*
X257224470Y-107600316D01*
X257224470Y-107814602D01*
X257153042Y-108100316D01*
X257081613Y-108243173D01*
X256938756Y-108386030D01*
X256724470Y-108457459D01*
X256581613Y-108457459D01*
X256367327Y-108386030D01*
X256295899Y-108314602D01*
X256295899Y-107814602D01*
X256581613Y-107814602D01*
X253974470Y-106857459D02*
X254688756Y-106857459D01*
X254760185Y-107571745D01*
X254688756Y-107500316D01*
X254545899Y-107428888D01*
X254188756Y-107428888D01*
X254045899Y-107500316D01*
X253974470Y-107571745D01*
X253903042Y-107714602D01*
X253903042Y-108071745D01*
X253974470Y-108214602D01*
X254045899Y-108286030D01*
X254188756Y-108357459D01*
X254545899Y-108357459D01*
X254688756Y-108286030D01*
X254760185Y-108214602D01*
X253403042Y-107357459D02*
X253045899Y-108357459D01*
X252688756Y-107357459D01*
X300367187Y-90328888D02*
X300510045Y-90257459D01*
X300724330Y-90257459D01*
X300938616Y-90328888D01*
X301081473Y-90471745D01*
X301152902Y-90614602D01*
X301224330Y-90900316D01*
X301224330Y-91114602D01*
X301152902Y-91400316D01*
X301081473Y-91543173D01*
X300938616Y-91686030D01*
X300724330Y-91757459D01*
X300581473Y-91757459D01*
X300367187Y-91686030D01*
X300295759Y-91614602D01*
X300295759Y-91114602D01*
X300581473Y-91114602D01*
X250367327Y-107028888D02*
X250510185Y-106957459D01*
X250724470Y-106957459D01*
X250938756Y-107028888D01*
X251081613Y-107171745D01*
X251153042Y-107314602D01*
X251224470Y-107600316D01*
X251224470Y-107814602D01*
X251153042Y-108100316D01*
X251081613Y-108243173D01*
X250938756Y-108386030D01*
X250724470Y-108457459D01*
X250581613Y-108457459D01*
X250367327Y-108386030D01*
X250295899Y-108314602D01*
X250295899Y-107814602D01*
X250581613Y-107814602D01*
X306367187Y-90328888D02*
X306510045Y-90257459D01*
X306724330Y-90257459D01*
X306938616Y-90328888D01*
X307081473Y-90471745D01*
X307152902Y-90614602D01*
X307224330Y-90900316D01*
X307224330Y-91114602D01*
X307152902Y-91400316D01*
X307081473Y-91543173D01*
X306938616Y-91686030D01*
X306724330Y-91757459D01*
X306581473Y-91757459D01*
X306367187Y-91686030D01*
X306295759Y-91614602D01*
X306295759Y-91114602D01*
X306581473Y-91114602D01*
D13*
X356824502Y-101865888D02*
X356967359Y-101794459D01*
X357181645Y-101794459D01*
X357395930Y-101865888D01*
X357538787Y-102008745D01*
X357610216Y-102151602D01*
X357681645Y-102437316D01*
X357681645Y-102651602D01*
X357610216Y-102937316D01*
X357538787Y-103080173D01*
X357395930Y-103223030D01*
X357181645Y-103294459D01*
X357038787Y-103294459D01*
X356824502Y-103223030D01*
X356753073Y-103151602D01*
X356753073Y-102651602D01*
X357038787Y-102651602D01*
X356110216Y-103294459D02*
X356110216Y-101794459D01*
X355253073Y-103294459D01*
X355253073Y-101794459D01*
X354538787Y-103294459D02*
X354538787Y-101794459D01*
X354181645Y-101794459D01*
X353967359Y-101865888D01*
X353824502Y-102008745D01*
X353753073Y-102151602D01*
X353681645Y-102437316D01*
X353681645Y-102651602D01*
X353753073Y-102937316D01*
X353824502Y-103080173D01*
X353967359Y-103223030D01*
X354181645Y-103294459D01*
X354538787Y-103294459D01*
D11*
X339398073Y-90907459D02*
X339540930Y-90955078D01*
X339588549Y-91002697D01*
X339636168Y-91097935D01*
X339636168Y-91240792D01*
X339588549Y-91336030D01*
X339540930Y-91383649D01*
X339445692Y-91431268D01*
X339064740Y-91431268D01*
X339064740Y-90431268D01*
X339398073Y-90431268D01*
X339493311Y-90478888D01*
X339540930Y-90526507D01*
X339588549Y-90621745D01*
X339588549Y-90716983D01*
X339540930Y-90812221D01*
X339493311Y-90859840D01*
X339398073Y-90907459D01*
X339064740Y-90907459D01*
X336340930Y-91431268D02*
X336340930Y-90431268D01*
X336579025Y-90431268D01*
X336721883Y-90478888D01*
X336817121Y-90574126D01*
X336864740Y-90669364D01*
X336912359Y-90859840D01*
X336912359Y-91002697D01*
X336864740Y-91193173D01*
X336817121Y-91288411D01*
X336721883Y-91383649D01*
X336579025Y-91431268D01*
X336340930Y-91431268D01*
X337531406Y-90431268D02*
X337721883Y-90431268D01*
X337817121Y-90478888D01*
X337912359Y-90574126D01*
X337959978Y-90764602D01*
X337959978Y-91097935D01*
X337912359Y-91288411D01*
X337817121Y-91383649D01*
X337721883Y-91431268D01*
X337531406Y-91431268D01*
X337436168Y-91383649D01*
X337340930Y-91288411D01*
X337293311Y-91097935D01*
X337293311Y-90764602D01*
X337340930Y-90574126D01*
X337436168Y-90478888D01*
X337531406Y-90431268D01*
D13*
X359860216Y-100612316D02*
X359919740Y-100671840D01*
X360098311Y-100731364D01*
X360217359Y-100731364D01*
X360395930Y-100671840D01*
X360514978Y-100552792D01*
X360574502Y-100433745D01*
X360634025Y-100195649D01*
X360634025Y-100017078D01*
X360574502Y-99778983D01*
X360514978Y-99659935D01*
X360395930Y-99540888D01*
X360217359Y-99481364D01*
X360098311Y-99481364D01*
X359919740Y-99540888D01*
X359860216Y-99600411D01*
X358431645Y-99421840D02*
X359503073Y-101028983D01*
X357776883Y-99481364D02*
X357538787Y-99481364D01*
X357419740Y-99540888D01*
X357300692Y-99659935D01*
X357241168Y-99898030D01*
X357241168Y-100314697D01*
X357300692Y-100552792D01*
X357419740Y-100671840D01*
X357538787Y-100731364D01*
X357776883Y-100731364D01*
X357895930Y-100671840D01*
X358014978Y-100552792D01*
X358074502Y-100314697D01*
X358074502Y-99898030D01*
X358014978Y-99659935D01*
X357895930Y-99540888D01*
X357776883Y-99481364D01*
X355336406Y-100076602D02*
X355157835Y-100136126D01*
X355098311Y-100195649D01*
X355038787Y-100314697D01*
X355038787Y-100493268D01*
X355098311Y-100612316D01*
X355157835Y-100671840D01*
X355276883Y-100731364D01*
X355753073Y-100731364D01*
X355753073Y-99481364D01*
X355336406Y-99481364D01*
X355217359Y-99540888D01*
X355157835Y-99600411D01*
X355098311Y-99719459D01*
X355098311Y-99838507D01*
X355157835Y-99957554D01*
X355217359Y-100017078D01*
X355336406Y-100076602D01*
X355753073Y-100076602D01*
X354264978Y-99481364D02*
X354026883Y-99481364D01*
X353907835Y-99540888D01*
X353788787Y-99659935D01*
X353729264Y-99898030D01*
X353729264Y-100314697D01*
X353788787Y-100552792D01*
X353907835Y-100671840D01*
X354026883Y-100731364D01*
X354264978Y-100731364D01*
X354384025Y-100671840D01*
X354503073Y-100552792D01*
X354562597Y-100314697D01*
X354562597Y-99898030D01*
X354503073Y-99659935D01*
X354384025Y-99540888D01*
X354264978Y-99481364D01*
D10*
X75777899Y-94082030D02*
X75777899Y-91082030D01*
X75063613Y-91082030D01*
X74635042Y-91224888D01*
X74349327Y-91510602D01*
X74206470Y-91796316D01*
X74063613Y-92367745D01*
X74063613Y-92796316D01*
X74206470Y-93367745D01*
X74349327Y-93653459D01*
X74635042Y-93939173D01*
X75063613Y-94082030D01*
X75777899Y-94082030D01*
D13*
X354995930Y-95144459D02*
X355710216Y-95144459D01*
X355781645Y-95858745D01*
X355710216Y-95787316D01*
X355567359Y-95715888D01*
X355210216Y-95715888D01*
X355067359Y-95787316D01*
X354995930Y-95858745D01*
X354924502Y-96001602D01*
X354924502Y-96358745D01*
X354995930Y-96501602D01*
X355067359Y-96573030D01*
X355210216Y-96644459D01*
X355567359Y-96644459D01*
X355710216Y-96573030D01*
X355781645Y-96501602D01*
X354424502Y-95644459D02*
X354067359Y-96644459D01*
X353710216Y-95644459D01*
D11*
X105574137Y-107221745D02*
X105621756Y-107174126D01*
X105764613Y-107126507D01*
X105859851Y-107126507D01*
X106002708Y-107174126D01*
X106097946Y-107269364D01*
X106145565Y-107364602D01*
X106193185Y-107555078D01*
X106193185Y-107697935D01*
X106145565Y-107888411D01*
X106097946Y-107983649D01*
X106002708Y-108078888D01*
X105859851Y-108126507D01*
X105764613Y-108126507D01*
X105621756Y-108078888D01*
X105574137Y-108031268D01*
X104431280Y-108174126D02*
X105288423Y-106888411D01*
X103907470Y-108126507D02*
X103716994Y-108126507D01*
X103621756Y-108078888D01*
X103526518Y-107983649D01*
X103478899Y-107793173D01*
X103478899Y-107459840D01*
X103526518Y-107269364D01*
X103621756Y-107174126D01*
X103716994Y-107126507D01*
X103907470Y-107126507D01*
X104002708Y-107174126D01*
X104097946Y-107269364D01*
X104145565Y-107459840D01*
X104145565Y-107793173D01*
X104097946Y-107983649D01*
X104002708Y-108078888D01*
X103907470Y-108126507D01*
X102288423Y-107126507D02*
X102288423Y-108126507D01*
X101812232Y-107126507D02*
X101812232Y-108126507D01*
X101240804Y-107126507D01*
X101240804Y-108126507D01*
D13*
X359860216Y-98512316D02*
X359919740Y-98571840D01*
X360098311Y-98631364D01*
X360217359Y-98631364D01*
X360395930Y-98571840D01*
X360514978Y-98452792D01*
X360574502Y-98333745D01*
X360634025Y-98095649D01*
X360634025Y-97917078D01*
X360574502Y-97678983D01*
X360514978Y-97559935D01*
X360395930Y-97440888D01*
X360217359Y-97381364D01*
X360098311Y-97381364D01*
X359919740Y-97440888D01*
X359860216Y-97500411D01*
X358431645Y-97321840D02*
X359503073Y-98928983D01*
X357776883Y-97381364D02*
X357538787Y-97381364D01*
X357419740Y-97440888D01*
X357300692Y-97559935D01*
X357241168Y-97798030D01*
X357241168Y-98214697D01*
X357300692Y-98452792D01*
X357419740Y-98571840D01*
X357538787Y-98631364D01*
X357776883Y-98631364D01*
X357895930Y-98571840D01*
X358014978Y-98452792D01*
X358074502Y-98214697D01*
X358074502Y-97798030D01*
X358014978Y-97559935D01*
X357895930Y-97440888D01*
X357776883Y-97381364D01*
X355753073Y-98631364D02*
X355753073Y-97381364D01*
X355455454Y-97381364D01*
X355276883Y-97440888D01*
X355157835Y-97559935D01*
X355098311Y-97678983D01*
X355038787Y-97917078D01*
X355038787Y-98095649D01*
X355098311Y-98333745D01*
X355157835Y-98452792D01*
X355276883Y-98571840D01*
X355455454Y-98631364D01*
X355753073Y-98631364D01*
X354264978Y-97381364D02*
X354026883Y-97381364D01*
X353907835Y-97440888D01*
X353788787Y-97559935D01*
X353729264Y-97798030D01*
X353729264Y-98214697D01*
X353788787Y-98452792D01*
X353907835Y-98571840D01*
X354026883Y-98631364D01*
X354264978Y-98631364D01*
X354384025Y-98571840D01*
X354503073Y-98452792D01*
X354562597Y-98214697D01*
X354562597Y-97798030D01*
X354503073Y-97559935D01*
X354384025Y-97440888D01*
X354264978Y-97381364D01*
D11*
X334898073Y-90907459D02*
X335040930Y-90955078D01*
X335088549Y-91002697D01*
X335136168Y-91097935D01*
X335136168Y-91240792D01*
X335088549Y-91336030D01*
X335040930Y-91383649D01*
X334945692Y-91431268D01*
X334564740Y-91431268D01*
X334564740Y-90431268D01*
X334898073Y-90431268D01*
X334993311Y-90478888D01*
X335040930Y-90526507D01*
X335088549Y-90621745D01*
X335088549Y-90716983D01*
X335040930Y-90812221D01*
X334993311Y-90859840D01*
X334898073Y-90907459D01*
X334564740Y-90907459D01*
D14*
X90006109Y-137718662D02*
X92006109Y-136718662D01*
X90006109Y-135718662D02*
X92006109Y-136718662D01*
X87006109Y-136718662D02*
X92006109Y-136718662D01*
X355322909Y-135568662D02*
X357322909Y-136568662D01*
X352322909Y-136568662D02*
X357322909Y-136568662D01*
X355322909Y-137568662D02*
X357322909Y-136568662D01*
D10*
X356105823Y-129694376D02*
X355677251Y-129837233D01*
X355534394Y-129980090D01*
X355391537Y-130265804D01*
X355391537Y-130694376D01*
X355534394Y-130980090D01*
X355677251Y-131122947D01*
X355962966Y-131265804D01*
X357105823Y-131265804D01*
X357105823Y-128265804D01*
X356105823Y-128265804D01*
X355820109Y-128408662D01*
X355677251Y-128551519D01*
X355534394Y-128837233D01*
X355534394Y-129122947D01*
X355677251Y-129408662D01*
X355820109Y-129551519D01*
X356105823Y-129694376D01*
X357105823Y-129694376D01*
D13*
X95285870Y-136184138D02*
X95285870Y-134934138D01*
X94988251Y-134934138D01*
X94809680Y-134993662D01*
X94690632Y-135112709D01*
X94631109Y-135231757D01*
X94571585Y-135469852D01*
X94571585Y-135648423D01*
X94631109Y-135886519D01*
X94690632Y-136005566D01*
X94809680Y-136124614D01*
X94988251Y-136184138D01*
X95285870Y-136184138D01*
X94035870Y-136184138D02*
X94035870Y-134934138D01*
X93440632Y-136184138D02*
X93440632Y-134934138D01*
X92726347Y-136184138D01*
X92726347Y-134934138D01*
D10*
X181308451Y-127631662D02*
X181451309Y-127560233D01*
X181665594Y-127560233D01*
X181879880Y-127631662D01*
X182022737Y-127774519D01*
X182094166Y-127917376D01*
X182165594Y-128203090D01*
X182165594Y-128417376D01*
X182094166Y-128703090D01*
X182022737Y-128845947D01*
X181879880Y-128988804D01*
X181665594Y-129060233D01*
X181522737Y-129060233D01*
X181308451Y-128988804D01*
X181237023Y-128917376D01*
X181237023Y-128417376D01*
X181522737Y-128417376D01*
D13*
X94048966Y-139168662D02*
X94191823Y-139097233D01*
X94406109Y-139097233D01*
X94620394Y-139168662D01*
X94763251Y-139311519D01*
X94834680Y-139454376D01*
X94906109Y-139740090D01*
X94906109Y-139954376D01*
X94834680Y-140240090D01*
X94763251Y-140382947D01*
X94620394Y-140525804D01*
X94406109Y-140597233D01*
X94263251Y-140597233D01*
X94048966Y-140525804D01*
X93977537Y-140454376D01*
X93977537Y-139954376D01*
X94263251Y-139954376D01*
X93334680Y-140597233D02*
X93334680Y-139097233D01*
X92477537Y-140597233D01*
X92477537Y-139097233D01*
X91763251Y-140597233D02*
X91763251Y-139097233D01*
X91406109Y-139097233D01*
X91191823Y-139168662D01*
X91048966Y-139311519D01*
X90977537Y-139454376D01*
X90906109Y-139740090D01*
X90906109Y-139954376D01*
X90977537Y-140240090D01*
X91048966Y-140382947D01*
X91191823Y-140525804D01*
X91406109Y-140597233D01*
X91763251Y-140597233D01*
X94869204Y-137629376D02*
X94690632Y-137688900D01*
X94631109Y-137748423D01*
X94571585Y-137867471D01*
X94571585Y-138046042D01*
X94631109Y-138165090D01*
X94690632Y-138224614D01*
X94809680Y-138284138D01*
X95285870Y-138284138D01*
X95285870Y-137034138D01*
X94869204Y-137034138D01*
X94750156Y-137093662D01*
X94690632Y-137153185D01*
X94631109Y-137272233D01*
X94631109Y-137391281D01*
X94690632Y-137510328D01*
X94750156Y-137569852D01*
X94869204Y-137629376D01*
X95285870Y-137629376D01*
X94035870Y-138284138D02*
X94035870Y-137034138D01*
X93440632Y-138284138D02*
X93440632Y-137034138D01*
X92726347Y-138284138D01*
X92726347Y-137034138D01*
D11*
X340115766Y-132571042D02*
X340591956Y-132571042D01*
X340639575Y-133047233D01*
X340591956Y-132999614D01*
X340496718Y-132951995D01*
X340258623Y-132951995D01*
X340163385Y-132999614D01*
X340115766Y-133047233D01*
X340068147Y-133142471D01*
X340068147Y-133380566D01*
X340115766Y-133475804D01*
X340163385Y-133523423D01*
X340258623Y-133571042D01*
X340496718Y-133571042D01*
X340591956Y-133523423D01*
X340639575Y-133475804D01*
X339734813Y-132904376D02*
X339496718Y-133571042D01*
X339258623Y-132904376D01*
D13*
X94220394Y-132697233D02*
X94934680Y-132697233D01*
X95006109Y-133411519D01*
X94934680Y-133340090D01*
X94791823Y-133268662D01*
X94434680Y-133268662D01*
X94291823Y-133340090D01*
X94220394Y-133411519D01*
X94148966Y-133554376D01*
X94148966Y-133911519D01*
X94220394Y-134054376D01*
X94291823Y-134125804D01*
X94434680Y-134197233D01*
X94791823Y-134197233D01*
X94934680Y-134125804D01*
X95006109Y-134054376D01*
X93648966Y-133197233D02*
X93291823Y-134197233D01*
X92934680Y-133197233D01*
D10*
X145582394Y-144260233D02*
X146296680Y-144260233D01*
X146368109Y-144974519D01*
X146296680Y-144903090D01*
X146153823Y-144831662D01*
X145796680Y-144831662D01*
X145653823Y-144903090D01*
X145582394Y-144974519D01*
X145510966Y-145117376D01*
X145510966Y-145474519D01*
X145582394Y-145617376D01*
X145653823Y-145688804D01*
X145796680Y-145760233D01*
X146153823Y-145760233D01*
X146296680Y-145688804D01*
X146368109Y-145617376D01*
X145010966Y-144760233D02*
X144653823Y-145760233D01*
X144296680Y-144760233D01*
X141975251Y-144431662D02*
X142118109Y-144360233D01*
X142332394Y-144360233D01*
X142546680Y-144431662D01*
X142689537Y-144574519D01*
X142760966Y-144717376D01*
X142832394Y-145003090D01*
X142832394Y-145217376D01*
X142760966Y-145503090D01*
X142689537Y-145645947D01*
X142546680Y-145788804D01*
X142332394Y-145860233D01*
X142189537Y-145860233D01*
X141975251Y-145788804D01*
X141903823Y-145717376D01*
X141903823Y-145217376D01*
X142189537Y-145217376D01*
X178915594Y-127460233D02*
X179629880Y-127460233D01*
X179701309Y-128174519D01*
X179629880Y-128103090D01*
X179487023Y-128031662D01*
X179129880Y-128031662D01*
X178987023Y-128103090D01*
X178915594Y-128174519D01*
X178844166Y-128317376D01*
X178844166Y-128674519D01*
X178915594Y-128817376D01*
X178987023Y-128888804D01*
X179129880Y-128960233D01*
X179487023Y-128960233D01*
X179629880Y-128888804D01*
X179701309Y-128817376D01*
X178344166Y-127960233D02*
X177987023Y-128960233D01*
X177629880Y-127960233D01*
X147975251Y-144431662D02*
X148118109Y-144360233D01*
X148332394Y-144360233D01*
X148546680Y-144431662D01*
X148689537Y-144574519D01*
X148760966Y-144717376D01*
X148832394Y-145003090D01*
X148832394Y-145217376D01*
X148760966Y-145503090D01*
X148689537Y-145645947D01*
X148546680Y-145788804D01*
X148332394Y-145860233D01*
X148189537Y-145860233D01*
X147975251Y-145788804D01*
X147903823Y-145717376D01*
X147903823Y-145217376D01*
X148189537Y-145217376D01*
X175308451Y-127631662D02*
X175451309Y-127560233D01*
X175665594Y-127560233D01*
X175879880Y-127631662D01*
X176022737Y-127774519D01*
X176094166Y-127917376D01*
X176165594Y-128203090D01*
X176165594Y-128417376D01*
X176094166Y-128703090D01*
X176022737Y-128845947D01*
X175879880Y-128988804D01*
X175665594Y-129060233D01*
X175522737Y-129060233D01*
X175308451Y-128988804D01*
X175237023Y-128917376D01*
X175237023Y-128417376D01*
X175522737Y-128417376D01*
D11*
X330896480Y-137338804D02*
X330944099Y-137195947D01*
X330991718Y-137148328D01*
X331086956Y-137100709D01*
X331229813Y-137100709D01*
X331325051Y-137148328D01*
X331372670Y-137195947D01*
X331420289Y-137291185D01*
X331420289Y-137672138D01*
X330420289Y-137672138D01*
X330420289Y-137338804D01*
X330467909Y-137243566D01*
X330515528Y-137195947D01*
X330610766Y-137148328D01*
X330706004Y-137148328D01*
X330801242Y-137195947D01*
X330848861Y-137243566D01*
X330896480Y-137338804D01*
X330896480Y-137672138D01*
X330420289Y-136481662D02*
X330420289Y-136291185D01*
X330467909Y-136195947D01*
X330563147Y-136100709D01*
X330753623Y-136053090D01*
X331086956Y-136053090D01*
X331277432Y-136100709D01*
X331372670Y-136195947D01*
X331420289Y-136291185D01*
X331420289Y-136481662D01*
X331372670Y-136576900D01*
X331277432Y-136672138D01*
X331086956Y-136719757D01*
X330753623Y-136719757D01*
X330563147Y-136672138D01*
X330467909Y-136576900D01*
X330420289Y-136481662D01*
X330420289Y-135624519D02*
X331229813Y-135624519D01*
X331325051Y-135576900D01*
X331372670Y-135529281D01*
X331420289Y-135434042D01*
X331420289Y-135243566D01*
X331372670Y-135148328D01*
X331325051Y-135100709D01*
X331229813Y-135053090D01*
X330420289Y-135053090D01*
X330420289Y-134719757D02*
X330420289Y-134148328D01*
X331420289Y-134434042D02*
X330420289Y-134434042D01*
X326396480Y-137338804D02*
X326444099Y-137195947D01*
X326491718Y-137148328D01*
X326586956Y-137100709D01*
X326729813Y-137100709D01*
X326825051Y-137148328D01*
X326872670Y-137195947D01*
X326920289Y-137291185D01*
X326920289Y-137672138D01*
X325920289Y-137672138D01*
X325920289Y-137338804D01*
X325967909Y-137243566D01*
X326015528Y-137195947D01*
X326110766Y-137148328D01*
X326206004Y-137148328D01*
X326301242Y-137195947D01*
X326348861Y-137243566D01*
X326396480Y-137338804D01*
X326396480Y-137672138D01*
X325920289Y-136481662D02*
X325920289Y-136291185D01*
X325967909Y-136195947D01*
X326063147Y-136100709D01*
X326253623Y-136053090D01*
X326586956Y-136053090D01*
X326777432Y-136100709D01*
X326872670Y-136195947D01*
X326920289Y-136291185D01*
X326920289Y-136481662D01*
X326872670Y-136576900D01*
X326777432Y-136672138D01*
X326586956Y-136719757D01*
X326253623Y-136719757D01*
X326063147Y-136672138D01*
X325967909Y-136576900D01*
X325920289Y-136481662D01*
X325920289Y-135624519D02*
X326729813Y-135624519D01*
X326825051Y-135576900D01*
X326872670Y-135529281D01*
X326920289Y-135434042D01*
X326920289Y-135243566D01*
X326872670Y-135148328D01*
X326825051Y-135100709D01*
X326729813Y-135053090D01*
X325920289Y-135053090D01*
X325920289Y-134719757D02*
X325920289Y-134148328D01*
X326920289Y-134434042D02*
X325920289Y-134434042D01*
X329220289Y-137672138D02*
X328220289Y-137672138D01*
X328220289Y-137434042D01*
X328267909Y-137291185D01*
X328363147Y-137195947D01*
X328458385Y-137148328D01*
X328648861Y-137100709D01*
X328791718Y-137100709D01*
X328982194Y-137148328D01*
X329077432Y-137195947D01*
X329172670Y-137291185D01*
X329220289Y-137434042D01*
X329220289Y-137672138D01*
X328220289Y-136481662D02*
X328220289Y-136291185D01*
X328267909Y-136195947D01*
X328363147Y-136100709D01*
X328553623Y-136053090D01*
X328886956Y-136053090D01*
X329077432Y-136100709D01*
X329172670Y-136195947D01*
X329220289Y-136291185D01*
X329220289Y-136481662D01*
X329172670Y-136576900D01*
X329077432Y-136672138D01*
X328886956Y-136719757D01*
X328553623Y-136719757D01*
X328363147Y-136672138D01*
X328267909Y-136576900D01*
X328220289Y-136481662D01*
X328220289Y-135624519D02*
X329029813Y-135624519D01*
X329125051Y-135576900D01*
X329172670Y-135529281D01*
X329220289Y-135434042D01*
X329220289Y-135243566D01*
X329172670Y-135148328D01*
X329125051Y-135100709D01*
X329029813Y-135053090D01*
X328220289Y-135053090D01*
X328220289Y-134719757D02*
X328220289Y-134148328D01*
X329220289Y-134434042D02*
X328220289Y-134434042D01*
D10*
X298008451Y-127631662D02*
X298151309Y-127560233D01*
X298365594Y-127560233D01*
X298579880Y-127631662D01*
X298722737Y-127774519D01*
X298794166Y-127917376D01*
X298865594Y-128203090D01*
X298865594Y-128417376D01*
X298794166Y-128703090D01*
X298722737Y-128845947D01*
X298579880Y-128988804D01*
X298365594Y-129060233D01*
X298222737Y-129060233D01*
X298008451Y-128988804D01*
X297937023Y-128917376D01*
X297937023Y-128417376D01*
X298222737Y-128417376D01*
X258675251Y-144331662D02*
X258818109Y-144260233D01*
X259032394Y-144260233D01*
X259246680Y-144331662D01*
X259389537Y-144474519D01*
X259460966Y-144617376D01*
X259532394Y-144903090D01*
X259532394Y-145117376D01*
X259460966Y-145403090D01*
X259389537Y-145545947D01*
X259246680Y-145688804D01*
X259032394Y-145760233D01*
X258889537Y-145760233D01*
X258675251Y-145688804D01*
X258603823Y-145617376D01*
X258603823Y-145117376D01*
X258889537Y-145117376D01*
X292008451Y-127631662D02*
X292151309Y-127560233D01*
X292365594Y-127560233D01*
X292579880Y-127631662D01*
X292722737Y-127774519D01*
X292794166Y-127917376D01*
X292865594Y-128203090D01*
X292865594Y-128417376D01*
X292794166Y-128703090D01*
X292722737Y-128845947D01*
X292579880Y-128988804D01*
X292365594Y-129060233D01*
X292222737Y-129060233D01*
X292008451Y-128988804D01*
X291937023Y-128917376D01*
X291937023Y-128417376D01*
X292222737Y-128417376D01*
X264675251Y-144331662D02*
X264818109Y-144260233D01*
X265032394Y-144260233D01*
X265246680Y-144331662D01*
X265389537Y-144474519D01*
X265460966Y-144617376D01*
X265532394Y-144903090D01*
X265532394Y-145117376D01*
X265460966Y-145403090D01*
X265389537Y-145545947D01*
X265246680Y-145688804D01*
X265032394Y-145760233D01*
X264889537Y-145760233D01*
X264675251Y-145688804D01*
X264603823Y-145617376D01*
X264603823Y-145117376D01*
X264889537Y-145117376D01*
X295615594Y-127460233D02*
X296329880Y-127460233D01*
X296401309Y-128174519D01*
X296329880Y-128103090D01*
X296187023Y-128031662D01*
X295829880Y-128031662D01*
X295687023Y-128103090D01*
X295615594Y-128174519D01*
X295544166Y-128317376D01*
X295544166Y-128674519D01*
X295615594Y-128817376D01*
X295687023Y-128888804D01*
X295829880Y-128960233D01*
X296187023Y-128960233D01*
X296329880Y-128888804D01*
X296401309Y-128817376D01*
X295044166Y-127960233D02*
X294687023Y-128960233D01*
X294329880Y-127960233D01*
X262282394Y-144160233D02*
X262996680Y-144160233D01*
X263068109Y-144874519D01*
X262996680Y-144803090D01*
X262853823Y-144731662D01*
X262496680Y-144731662D01*
X262353823Y-144803090D01*
X262282394Y-144874519D01*
X262210966Y-145017376D01*
X262210966Y-145374519D01*
X262282394Y-145517376D01*
X262353823Y-145588804D01*
X262496680Y-145660233D01*
X262853823Y-145660233D01*
X262996680Y-145588804D01*
X263068109Y-145517376D01*
X261710966Y-144660233D02*
X261353823Y-145660233D01*
X260996680Y-144660233D01*
D13*
X346637194Y-132447233D02*
X347351480Y-132447233D01*
X347422909Y-133161519D01*
X347351480Y-133090090D01*
X347208623Y-133018662D01*
X346851480Y-133018662D01*
X346708623Y-133090090D01*
X346637194Y-133161519D01*
X346565766Y-133304376D01*
X346565766Y-133661519D01*
X346637194Y-133804376D01*
X346708623Y-133875804D01*
X346851480Y-133947233D01*
X347208623Y-133947233D01*
X347351480Y-133875804D01*
X347422909Y-133804376D01*
X346065766Y-132947233D02*
X345708623Y-133947233D01*
X345351480Y-132947233D01*
D10*
X84005823Y-129694376D02*
X83577251Y-129837233D01*
X83434394Y-129980090D01*
X83291537Y-130265804D01*
X83291537Y-130694376D01*
X83434394Y-130980090D01*
X83577251Y-131122947D01*
X83862966Y-131265804D01*
X85005823Y-131265804D01*
X85005823Y-128265804D01*
X84005823Y-128265804D01*
X83720109Y-128408662D01*
X83577251Y-128551519D01*
X83434394Y-128837233D01*
X83434394Y-129122947D01*
X83577251Y-129408662D01*
X83720109Y-129551519D01*
X84005823Y-129694376D01*
X85005823Y-129694376D01*
D13*
X348465766Y-139168662D02*
X348608623Y-139097233D01*
X348822909Y-139097233D01*
X349037194Y-139168662D01*
X349180051Y-139311519D01*
X349251480Y-139454376D01*
X349322909Y-139740090D01*
X349322909Y-139954376D01*
X349251480Y-140240090D01*
X349180051Y-140382947D01*
X349037194Y-140525804D01*
X348822909Y-140597233D01*
X348680051Y-140597233D01*
X348465766Y-140525804D01*
X348394337Y-140454376D01*
X348394337Y-139954376D01*
X348680051Y-139954376D01*
X347751480Y-140597233D02*
X347751480Y-139097233D01*
X346894337Y-140597233D01*
X346894337Y-139097233D01*
X346180051Y-140597233D02*
X346180051Y-139097233D01*
X345822909Y-139097233D01*
X345608623Y-139168662D01*
X345465766Y-139311519D01*
X345394337Y-139454376D01*
X345322909Y-139740090D01*
X345322909Y-139954376D01*
X345394337Y-140240090D01*
X345465766Y-140382947D01*
X345608623Y-140525804D01*
X345822909Y-140597233D01*
X346180051Y-140597233D01*
X351784680Y-138165090D02*
X351844204Y-138224614D01*
X352022775Y-138284138D01*
X352141823Y-138284138D01*
X352320394Y-138224614D01*
X352439442Y-138105566D01*
X352498966Y-137986519D01*
X352558489Y-137748423D01*
X352558489Y-137569852D01*
X352498966Y-137331757D01*
X352439442Y-137212709D01*
X352320394Y-137093662D01*
X352141823Y-137034138D01*
X352022775Y-137034138D01*
X351844204Y-137093662D01*
X351784680Y-137153185D01*
X350356109Y-136974614D02*
X351427537Y-138581757D01*
X349701347Y-137034138D02*
X349463251Y-137034138D01*
X349344204Y-137093662D01*
X349225156Y-137212709D01*
X349165632Y-137450804D01*
X349165632Y-137867471D01*
X349225156Y-138105566D01*
X349344204Y-138224614D01*
X349463251Y-138284138D01*
X349701347Y-138284138D01*
X349820394Y-138224614D01*
X349939442Y-138105566D01*
X349998966Y-137867471D01*
X349998966Y-137450804D01*
X349939442Y-137212709D01*
X349820394Y-137093662D01*
X349701347Y-137034138D01*
X347260870Y-137629376D02*
X347082299Y-137688900D01*
X347022775Y-137748423D01*
X346963251Y-137867471D01*
X346963251Y-138046042D01*
X347022775Y-138165090D01*
X347082299Y-138224614D01*
X347201347Y-138284138D01*
X347677537Y-138284138D01*
X347677537Y-137034138D01*
X347260870Y-137034138D01*
X347141823Y-137093662D01*
X347082299Y-137153185D01*
X347022775Y-137272233D01*
X347022775Y-137391281D01*
X347082299Y-137510328D01*
X347141823Y-137569852D01*
X347260870Y-137629376D01*
X347677537Y-137629376D01*
X346189442Y-137034138D02*
X345951347Y-137034138D01*
X345832299Y-137093662D01*
X345713251Y-137212709D01*
X345653728Y-137450804D01*
X345653728Y-137867471D01*
X345713251Y-138105566D01*
X345832299Y-138224614D01*
X345951347Y-138284138D01*
X346189442Y-138284138D01*
X346308489Y-138224614D01*
X346427537Y-138105566D01*
X346487061Y-137867471D01*
X346487061Y-137450804D01*
X346427537Y-137212709D01*
X346308489Y-137093662D01*
X346189442Y-137034138D01*
X114827537Y-145554376D02*
X114898966Y-145625804D01*
X115113251Y-145697233D01*
X115256109Y-145697233D01*
X115470394Y-145625804D01*
X115613251Y-145482947D01*
X115684680Y-145340090D01*
X115756109Y-145054376D01*
X115756109Y-144840090D01*
X115684680Y-144554376D01*
X115613251Y-144411519D01*
X115470394Y-144268662D01*
X115256109Y-144197233D01*
X115113251Y-144197233D01*
X114898966Y-144268662D01*
X114827537Y-144340090D01*
X113113251Y-144125804D02*
X114398966Y-146054376D01*
X112327537Y-144197233D02*
X112041823Y-144197233D01*
X111898966Y-144268662D01*
X111756109Y-144411519D01*
X111684680Y-144697233D01*
X111684680Y-145197233D01*
X111756109Y-145482947D01*
X111898966Y-145625804D01*
X112041823Y-145697233D01*
X112327537Y-145697233D01*
X112470394Y-145625804D01*
X112613251Y-145482947D01*
X112684680Y-145197233D01*
X112684680Y-144697233D01*
X112613251Y-144411519D01*
X112470394Y-144268662D01*
X112327537Y-144197233D01*
X109898966Y-145697233D02*
X109898966Y-144197233D01*
X109184680Y-145697233D02*
X109184680Y-144197233D01*
X108327537Y-145697233D01*
X108327537Y-144197233D01*
D10*
X83232537Y-144494090D02*
X83375394Y-144636947D01*
X83803966Y-144779804D01*
X84089680Y-144779804D01*
X84518251Y-144636947D01*
X84803966Y-144351233D01*
X84946823Y-144065519D01*
X85089680Y-143494090D01*
X85089680Y-143065519D01*
X84946823Y-142494090D01*
X84803966Y-142208376D01*
X84518251Y-141922662D01*
X84089680Y-141779804D01*
X83803966Y-141779804D01*
X83375394Y-141922662D01*
X83232537Y-142065519D01*
X355332537Y-144494090D02*
X355475394Y-144636947D01*
X355903966Y-144779804D01*
X356189680Y-144779804D01*
X356618251Y-144636947D01*
X356903966Y-144351233D01*
X357046823Y-144065519D01*
X357189680Y-143494090D01*
X357189680Y-143065519D01*
X357046823Y-142494090D01*
X356903966Y-142208376D01*
X356618251Y-141922662D01*
X356189680Y-141779804D01*
X355903966Y-141779804D01*
X355475394Y-141922662D01*
X355332537Y-142065519D01*
D13*
X351784680Y-136065090D02*
X351844204Y-136124614D01*
X352022775Y-136184138D01*
X352141823Y-136184138D01*
X352320394Y-136124614D01*
X352439442Y-136005566D01*
X352498966Y-135886519D01*
X352558489Y-135648423D01*
X352558489Y-135469852D01*
X352498966Y-135231757D01*
X352439442Y-135112709D01*
X352320394Y-134993662D01*
X352141823Y-134934138D01*
X352022775Y-134934138D01*
X351844204Y-134993662D01*
X351784680Y-135053185D01*
X350356109Y-134874614D02*
X351427537Y-136481757D01*
X349701347Y-134934138D02*
X349463251Y-134934138D01*
X349344204Y-134993662D01*
X349225156Y-135112709D01*
X349165632Y-135350804D01*
X349165632Y-135767471D01*
X349225156Y-136005566D01*
X349344204Y-136124614D01*
X349463251Y-136184138D01*
X349701347Y-136184138D01*
X349820394Y-136124614D01*
X349939442Y-136005566D01*
X349998966Y-135767471D01*
X349998966Y-135350804D01*
X349939442Y-135112709D01*
X349820394Y-134993662D01*
X349701347Y-134934138D01*
X347677537Y-136184138D02*
X347677537Y-134934138D01*
X347379918Y-134934138D01*
X347201347Y-134993662D01*
X347082299Y-135112709D01*
X347022775Y-135231757D01*
X346963251Y-135469852D01*
X346963251Y-135648423D01*
X347022775Y-135886519D01*
X347082299Y-136005566D01*
X347201347Y-136124614D01*
X347379918Y-136184138D01*
X347677537Y-136184138D01*
X346189442Y-134934138D02*
X345951347Y-134934138D01*
X345832299Y-134993662D01*
X345713251Y-135112709D01*
X345653728Y-135350804D01*
X345653728Y-135767471D01*
X345713251Y-136005566D01*
X345832299Y-136124614D01*
X345951347Y-136184138D01*
X346189442Y-136184138D01*
X346308489Y-136124614D01*
X346427537Y-136005566D01*
X346487061Y-135767471D01*
X346487061Y-135350804D01*
X346427537Y-135112709D01*
X346308489Y-134993662D01*
X346189442Y-134934138D01*
D14*
X90006109Y-161273662D02*
X92006109Y-160273662D01*
X90006109Y-159273662D02*
X92006109Y-160273662D01*
X87006109Y-160273662D02*
X92006109Y-160273662D01*
X355322909Y-159123662D02*
X357322909Y-160123662D01*
X352322909Y-160123662D02*
X357322909Y-160123662D01*
X355322909Y-161123662D02*
X357322909Y-160123662D01*
D10*
X356105823Y-153249376D02*
X355677251Y-153392233D01*
X355534394Y-153535090D01*
X355391537Y-153820804D01*
X355391537Y-154249376D01*
X355534394Y-154535090D01*
X355677251Y-154677947D01*
X355962966Y-154820804D01*
X357105823Y-154820804D01*
X357105823Y-151820804D01*
X356105823Y-151820804D01*
X355820109Y-151963662D01*
X355677251Y-152106519D01*
X355534394Y-152392233D01*
X355534394Y-152677947D01*
X355677251Y-152963662D01*
X355820109Y-153106519D01*
X356105823Y-153249376D01*
X357105823Y-153249376D01*
D13*
X351784680Y-159620090D02*
X351844204Y-159679614D01*
X352022775Y-159739138D01*
X352141823Y-159739138D01*
X352320394Y-159679614D01*
X352439442Y-159560566D01*
X352498966Y-159441519D01*
X352558489Y-159203423D01*
X352558489Y-159024852D01*
X352498966Y-158786757D01*
X352439442Y-158667709D01*
X352320394Y-158548662D01*
X352141823Y-158489138D01*
X352022775Y-158489138D01*
X351844204Y-158548662D01*
X351784680Y-158608185D01*
X350356109Y-158429614D02*
X351427537Y-160036757D01*
X349701347Y-158489138D02*
X349463251Y-158489138D01*
X349344204Y-158548662D01*
X349225156Y-158667709D01*
X349165632Y-158905804D01*
X349165632Y-159322471D01*
X349225156Y-159560566D01*
X349344204Y-159679614D01*
X349463251Y-159739138D01*
X349701347Y-159739138D01*
X349820394Y-159679614D01*
X349939442Y-159560566D01*
X349998966Y-159322471D01*
X349998966Y-158905804D01*
X349939442Y-158667709D01*
X349820394Y-158548662D01*
X349701347Y-158489138D01*
X347677537Y-159739138D02*
X347677537Y-158489138D01*
X347379918Y-158489138D01*
X347201347Y-158548662D01*
X347082299Y-158667709D01*
X347022775Y-158786757D01*
X346963251Y-159024852D01*
X346963251Y-159203423D01*
X347022775Y-159441519D01*
X347082299Y-159560566D01*
X347201347Y-159679614D01*
X347379918Y-159739138D01*
X347677537Y-159739138D01*
X346189442Y-158489138D02*
X345951347Y-158489138D01*
X345832299Y-158548662D01*
X345713251Y-158667709D01*
X345653728Y-158905804D01*
X345653728Y-159322471D01*
X345713251Y-159560566D01*
X345832299Y-159679614D01*
X345951347Y-159739138D01*
X346189442Y-159739138D01*
X346308489Y-159679614D01*
X346427537Y-159560566D01*
X346487061Y-159322471D01*
X346487061Y-158905804D01*
X346427537Y-158667709D01*
X346308489Y-158548662D01*
X346189442Y-158489138D01*
D10*
X355332537Y-168049090D02*
X355475394Y-168191947D01*
X355903966Y-168334804D01*
X356189680Y-168334804D01*
X356618251Y-168191947D01*
X356903966Y-167906233D01*
X357046823Y-167620519D01*
X357189680Y-167049090D01*
X357189680Y-166620519D01*
X357046823Y-166049090D01*
X356903966Y-165763376D01*
X356618251Y-165477662D01*
X356189680Y-165334804D01*
X355903966Y-165334804D01*
X355475394Y-165477662D01*
X355332537Y-165620519D01*
D13*
X114827537Y-169109376D02*
X114898966Y-169180804D01*
X115113251Y-169252233D01*
X115256109Y-169252233D01*
X115470394Y-169180804D01*
X115613251Y-169037947D01*
X115684680Y-168895090D01*
X115756109Y-168609376D01*
X115756109Y-168395090D01*
X115684680Y-168109376D01*
X115613251Y-167966519D01*
X115470394Y-167823662D01*
X115256109Y-167752233D01*
X115113251Y-167752233D01*
X114898966Y-167823662D01*
X114827537Y-167895090D01*
X113113251Y-167680804D02*
X114398966Y-169609376D01*
X112327537Y-167752233D02*
X112041823Y-167752233D01*
X111898966Y-167823662D01*
X111756109Y-167966519D01*
X111684680Y-168252233D01*
X111684680Y-168752233D01*
X111756109Y-169037947D01*
X111898966Y-169180804D01*
X112041823Y-169252233D01*
X112327537Y-169252233D01*
X112470394Y-169180804D01*
X112613251Y-169037947D01*
X112684680Y-168752233D01*
X112684680Y-168252233D01*
X112613251Y-167966519D01*
X112470394Y-167823662D01*
X112327537Y-167752233D01*
X109898966Y-169252233D02*
X109898966Y-167752233D01*
X109184680Y-169252233D02*
X109184680Y-167752233D01*
X108327537Y-169252233D01*
X108327537Y-167752233D01*
X351784680Y-161720090D02*
X351844204Y-161779614D01*
X352022775Y-161839138D01*
X352141823Y-161839138D01*
X352320394Y-161779614D01*
X352439442Y-161660566D01*
X352498966Y-161541519D01*
X352558489Y-161303423D01*
X352558489Y-161124852D01*
X352498966Y-160886757D01*
X352439442Y-160767709D01*
X352320394Y-160648662D01*
X352141823Y-160589138D01*
X352022775Y-160589138D01*
X351844204Y-160648662D01*
X351784680Y-160708185D01*
X350356109Y-160529614D02*
X351427537Y-162136757D01*
X349701347Y-160589138D02*
X349463251Y-160589138D01*
X349344204Y-160648662D01*
X349225156Y-160767709D01*
X349165632Y-161005804D01*
X349165632Y-161422471D01*
X349225156Y-161660566D01*
X349344204Y-161779614D01*
X349463251Y-161839138D01*
X349701347Y-161839138D01*
X349820394Y-161779614D01*
X349939442Y-161660566D01*
X349998966Y-161422471D01*
X349998966Y-161005804D01*
X349939442Y-160767709D01*
X349820394Y-160648662D01*
X349701347Y-160589138D01*
X347260870Y-161184376D02*
X347082299Y-161243900D01*
X347022775Y-161303423D01*
X346963251Y-161422471D01*
X346963251Y-161601042D01*
X347022775Y-161720090D01*
X347082299Y-161779614D01*
X347201347Y-161839138D01*
X347677537Y-161839138D01*
X347677537Y-160589138D01*
X347260870Y-160589138D01*
X347141823Y-160648662D01*
X347082299Y-160708185D01*
X347022775Y-160827233D01*
X347022775Y-160946281D01*
X347082299Y-161065328D01*
X347141823Y-161124852D01*
X347260870Y-161184376D01*
X347677537Y-161184376D01*
X346189442Y-160589138D02*
X345951347Y-160589138D01*
X345832299Y-160648662D01*
X345713251Y-160767709D01*
X345653728Y-161005804D01*
X345653728Y-161422471D01*
X345713251Y-161660566D01*
X345832299Y-161779614D01*
X345951347Y-161839138D01*
X346189442Y-161839138D01*
X346308489Y-161779614D01*
X346427537Y-161660566D01*
X346487061Y-161422471D01*
X346487061Y-161005804D01*
X346427537Y-160767709D01*
X346308489Y-160648662D01*
X346189442Y-160589138D01*
D10*
X83232537Y-168049090D02*
X83375394Y-168191947D01*
X83803966Y-168334804D01*
X84089680Y-168334804D01*
X84518251Y-168191947D01*
X84803966Y-167906233D01*
X84946823Y-167620519D01*
X85089680Y-167049090D01*
X85089680Y-166620519D01*
X84946823Y-166049090D01*
X84803966Y-165763376D01*
X84518251Y-165477662D01*
X84089680Y-165334804D01*
X83803966Y-165334804D01*
X83375394Y-165477662D01*
X83232537Y-165620519D01*
D13*
X346637194Y-156002233D02*
X347351480Y-156002233D01*
X347422909Y-156716519D01*
X347351480Y-156645090D01*
X347208623Y-156573662D01*
X346851480Y-156573662D01*
X346708623Y-156645090D01*
X346637194Y-156716519D01*
X346565766Y-156859376D01*
X346565766Y-157216519D01*
X346637194Y-157359376D01*
X346708623Y-157430804D01*
X346851480Y-157502233D01*
X347208623Y-157502233D01*
X347351480Y-157430804D01*
X347422909Y-157359376D01*
X346065766Y-156502233D02*
X345708623Y-157502233D01*
X345351480Y-156502233D01*
X348465766Y-162723662D02*
X348608623Y-162652233D01*
X348822909Y-162652233D01*
X349037194Y-162723662D01*
X349180051Y-162866519D01*
X349251480Y-163009376D01*
X349322909Y-163295090D01*
X349322909Y-163509376D01*
X349251480Y-163795090D01*
X349180051Y-163937947D01*
X349037194Y-164080804D01*
X348822909Y-164152233D01*
X348680051Y-164152233D01*
X348465766Y-164080804D01*
X348394337Y-164009376D01*
X348394337Y-163509376D01*
X348680051Y-163509376D01*
X347751480Y-164152233D02*
X347751480Y-162652233D01*
X346894337Y-164152233D01*
X346894337Y-162652233D01*
X346180051Y-164152233D02*
X346180051Y-162652233D01*
X345822909Y-162652233D01*
X345608623Y-162723662D01*
X345465766Y-162866519D01*
X345394337Y-163009376D01*
X345322909Y-163295090D01*
X345322909Y-163509376D01*
X345394337Y-163795090D01*
X345465766Y-163937947D01*
X345608623Y-164080804D01*
X345822909Y-164152233D01*
X346180051Y-164152233D01*
D10*
X84005823Y-153249376D02*
X83577251Y-153392233D01*
X83434394Y-153535090D01*
X83291537Y-153820804D01*
X83291537Y-154249376D01*
X83434394Y-154535090D01*
X83577251Y-154677947D01*
X83862966Y-154820804D01*
X85005823Y-154820804D01*
X85005823Y-151820804D01*
X84005823Y-151820804D01*
X83720109Y-151963662D01*
X83577251Y-152106519D01*
X83434394Y-152392233D01*
X83434394Y-152677947D01*
X83577251Y-152963662D01*
X83720109Y-153106519D01*
X84005823Y-153249376D01*
X85005823Y-153249376D01*
X264675251Y-167886662D02*
X264818109Y-167815233D01*
X265032394Y-167815233D01*
X265246680Y-167886662D01*
X265389537Y-168029519D01*
X265460966Y-168172376D01*
X265532394Y-168458090D01*
X265532394Y-168672376D01*
X265460966Y-168958090D01*
X265389537Y-169100947D01*
X265246680Y-169243804D01*
X265032394Y-169315233D01*
X264889537Y-169315233D01*
X264675251Y-169243804D01*
X264603823Y-169172376D01*
X264603823Y-168672376D01*
X264889537Y-168672376D01*
X262282394Y-167715233D02*
X262996680Y-167715233D01*
X263068109Y-168429519D01*
X262996680Y-168358090D01*
X262853823Y-168286662D01*
X262496680Y-168286662D01*
X262353823Y-168358090D01*
X262282394Y-168429519D01*
X262210966Y-168572376D01*
X262210966Y-168929519D01*
X262282394Y-169072376D01*
X262353823Y-169143804D01*
X262496680Y-169215233D01*
X262853823Y-169215233D01*
X262996680Y-169143804D01*
X263068109Y-169072376D01*
X261710966Y-168215233D02*
X261353823Y-169215233D01*
X260996680Y-168215233D01*
X295615594Y-151015233D02*
X296329880Y-151015233D01*
X296401309Y-151729519D01*
X296329880Y-151658090D01*
X296187023Y-151586662D01*
X295829880Y-151586662D01*
X295687023Y-151658090D01*
X295615594Y-151729519D01*
X295544166Y-151872376D01*
X295544166Y-152229519D01*
X295615594Y-152372376D01*
X295687023Y-152443804D01*
X295829880Y-152515233D01*
X296187023Y-152515233D01*
X296329880Y-152443804D01*
X296401309Y-152372376D01*
X295044166Y-151515233D02*
X294687023Y-152515233D01*
X294329880Y-151515233D01*
X258675251Y-167886662D02*
X258818109Y-167815233D01*
X259032394Y-167815233D01*
X259246680Y-167886662D01*
X259389537Y-168029519D01*
X259460966Y-168172376D01*
X259532394Y-168458090D01*
X259532394Y-168672376D01*
X259460966Y-168958090D01*
X259389537Y-169100947D01*
X259246680Y-169243804D01*
X259032394Y-169315233D01*
X258889537Y-169315233D01*
X258675251Y-169243804D01*
X258603823Y-169172376D01*
X258603823Y-168672376D01*
X258889537Y-168672376D01*
X298008451Y-151186662D02*
X298151309Y-151115233D01*
X298365594Y-151115233D01*
X298579880Y-151186662D01*
X298722737Y-151329519D01*
X298794166Y-151472376D01*
X298865594Y-151758090D01*
X298865594Y-151972376D01*
X298794166Y-152258090D01*
X298722737Y-152400947D01*
X298579880Y-152543804D01*
X298365594Y-152615233D01*
X298222737Y-152615233D01*
X298008451Y-152543804D01*
X297937023Y-152472376D01*
X297937023Y-151972376D01*
X298222737Y-151972376D01*
X292008451Y-151186662D02*
X292151309Y-151115233D01*
X292365594Y-151115233D01*
X292579880Y-151186662D01*
X292722737Y-151329519D01*
X292794166Y-151472376D01*
X292865594Y-151758090D01*
X292865594Y-151972376D01*
X292794166Y-152258090D01*
X292722737Y-152400947D01*
X292579880Y-152543804D01*
X292365594Y-152615233D01*
X292222737Y-152615233D01*
X292008451Y-152543804D01*
X291937023Y-152472376D01*
X291937023Y-151972376D01*
X292222737Y-151972376D01*
D11*
X329220289Y-161227138D02*
X328220289Y-161227138D01*
X328220289Y-160989042D01*
X328267909Y-160846185D01*
X328363147Y-160750947D01*
X328458385Y-160703328D01*
X328648861Y-160655709D01*
X328791718Y-160655709D01*
X328982194Y-160703328D01*
X329077432Y-160750947D01*
X329172670Y-160846185D01*
X329220289Y-160989042D01*
X329220289Y-161227138D01*
X328220289Y-160036662D02*
X328220289Y-159846185D01*
X328267909Y-159750947D01*
X328363147Y-159655709D01*
X328553623Y-159608090D01*
X328886956Y-159608090D01*
X329077432Y-159655709D01*
X329172670Y-159750947D01*
X329220289Y-159846185D01*
X329220289Y-160036662D01*
X329172670Y-160131900D01*
X329077432Y-160227138D01*
X328886956Y-160274757D01*
X328553623Y-160274757D01*
X328363147Y-160227138D01*
X328267909Y-160131900D01*
X328220289Y-160036662D01*
X328220289Y-159179519D02*
X329029813Y-159179519D01*
X329125051Y-159131900D01*
X329172670Y-159084281D01*
X329220289Y-158989042D01*
X329220289Y-158798566D01*
X329172670Y-158703328D01*
X329125051Y-158655709D01*
X329029813Y-158608090D01*
X328220289Y-158608090D01*
X328220289Y-158274757D02*
X328220289Y-157703328D01*
X329220289Y-157989042D02*
X328220289Y-157989042D01*
D10*
X141975251Y-167986662D02*
X142118109Y-167915233D01*
X142332394Y-167915233D01*
X142546680Y-167986662D01*
X142689537Y-168129519D01*
X142760966Y-168272376D01*
X142832394Y-168558090D01*
X142832394Y-168772376D01*
X142760966Y-169058090D01*
X142689537Y-169200947D01*
X142546680Y-169343804D01*
X142332394Y-169415233D01*
X142189537Y-169415233D01*
X141975251Y-169343804D01*
X141903823Y-169272376D01*
X141903823Y-168772376D01*
X142189537Y-168772376D01*
D11*
X330896480Y-160893804D02*
X330944099Y-160750947D01*
X330991718Y-160703328D01*
X331086956Y-160655709D01*
X331229813Y-160655709D01*
X331325051Y-160703328D01*
X331372670Y-160750947D01*
X331420289Y-160846185D01*
X331420289Y-161227138D01*
X330420289Y-161227138D01*
X330420289Y-160893804D01*
X330467909Y-160798566D01*
X330515528Y-160750947D01*
X330610766Y-160703328D01*
X330706004Y-160703328D01*
X330801242Y-160750947D01*
X330848861Y-160798566D01*
X330896480Y-160893804D01*
X330896480Y-161227138D01*
X330420289Y-160036662D02*
X330420289Y-159846185D01*
X330467909Y-159750947D01*
X330563147Y-159655709D01*
X330753623Y-159608090D01*
X331086956Y-159608090D01*
X331277432Y-159655709D01*
X331372670Y-159750947D01*
X331420289Y-159846185D01*
X331420289Y-160036662D01*
X331372670Y-160131900D01*
X331277432Y-160227138D01*
X331086956Y-160274757D01*
X330753623Y-160274757D01*
X330563147Y-160227138D01*
X330467909Y-160131900D01*
X330420289Y-160036662D01*
X330420289Y-159179519D02*
X331229813Y-159179519D01*
X331325051Y-159131900D01*
X331372670Y-159084281D01*
X331420289Y-158989042D01*
X331420289Y-158798566D01*
X331372670Y-158703328D01*
X331325051Y-158655709D01*
X331229813Y-158608090D01*
X330420289Y-158608090D01*
X330420289Y-158274757D02*
X330420289Y-157703328D01*
X331420289Y-157989042D02*
X330420289Y-157989042D01*
D10*
X147975251Y-167986662D02*
X148118109Y-167915233D01*
X148332394Y-167915233D01*
X148546680Y-167986662D01*
X148689537Y-168129519D01*
X148760966Y-168272376D01*
X148832394Y-168558090D01*
X148832394Y-168772376D01*
X148760966Y-169058090D01*
X148689537Y-169200947D01*
X148546680Y-169343804D01*
X148332394Y-169415233D01*
X148189537Y-169415233D01*
X147975251Y-169343804D01*
X147903823Y-169272376D01*
X147903823Y-168772376D01*
X148189537Y-168772376D01*
D11*
X326396480Y-160893804D02*
X326444099Y-160750947D01*
X326491718Y-160703328D01*
X326586956Y-160655709D01*
X326729813Y-160655709D01*
X326825051Y-160703328D01*
X326872670Y-160750947D01*
X326920289Y-160846185D01*
X326920289Y-161227138D01*
X325920289Y-161227138D01*
X325920289Y-160893804D01*
X325967909Y-160798566D01*
X326015528Y-160750947D01*
X326110766Y-160703328D01*
X326206004Y-160703328D01*
X326301242Y-160750947D01*
X326348861Y-160798566D01*
X326396480Y-160893804D01*
X326396480Y-161227138D01*
X325920289Y-160036662D02*
X325920289Y-159846185D01*
X325967909Y-159750947D01*
X326063147Y-159655709D01*
X326253623Y-159608090D01*
X326586956Y-159608090D01*
X326777432Y-159655709D01*
X326872670Y-159750947D01*
X326920289Y-159846185D01*
X326920289Y-160036662D01*
X326872670Y-160131900D01*
X326777432Y-160227138D01*
X326586956Y-160274757D01*
X326253623Y-160274757D01*
X326063147Y-160227138D01*
X325967909Y-160131900D01*
X325920289Y-160036662D01*
X325920289Y-159179519D02*
X326729813Y-159179519D01*
X326825051Y-159131900D01*
X326872670Y-159084281D01*
X326920289Y-158989042D01*
X326920289Y-158798566D01*
X326872670Y-158703328D01*
X326825051Y-158655709D01*
X326729813Y-158608090D01*
X325920289Y-158608090D01*
X325920289Y-158274757D02*
X325920289Y-157703328D01*
X326920289Y-157989042D02*
X325920289Y-157989042D01*
D10*
X178915594Y-151015233D02*
X179629880Y-151015233D01*
X179701309Y-151729519D01*
X179629880Y-151658090D01*
X179487023Y-151586662D01*
X179129880Y-151586662D01*
X178987023Y-151658090D01*
X178915594Y-151729519D01*
X178844166Y-151872376D01*
X178844166Y-152229519D01*
X178915594Y-152372376D01*
X178987023Y-152443804D01*
X179129880Y-152515233D01*
X179487023Y-152515233D01*
X179629880Y-152443804D01*
X179701309Y-152372376D01*
X178344166Y-151515233D02*
X177987023Y-152515233D01*
X177629880Y-151515233D01*
X175308451Y-151186662D02*
X175451309Y-151115233D01*
X175665594Y-151115233D01*
X175879880Y-151186662D01*
X176022737Y-151329519D01*
X176094166Y-151472376D01*
X176165594Y-151758090D01*
X176165594Y-151972376D01*
X176094166Y-152258090D01*
X176022737Y-152400947D01*
X175879880Y-152543804D01*
X175665594Y-152615233D01*
X175522737Y-152615233D01*
X175308451Y-152543804D01*
X175237023Y-152472376D01*
X175237023Y-151972376D01*
X175522737Y-151972376D01*
X145582394Y-167815233D02*
X146296680Y-167815233D01*
X146368109Y-168529519D01*
X146296680Y-168458090D01*
X146153823Y-168386662D01*
X145796680Y-168386662D01*
X145653823Y-168458090D01*
X145582394Y-168529519D01*
X145510966Y-168672376D01*
X145510966Y-169029519D01*
X145582394Y-169172376D01*
X145653823Y-169243804D01*
X145796680Y-169315233D01*
X146153823Y-169315233D01*
X146296680Y-169243804D01*
X146368109Y-169172376D01*
X145010966Y-168315233D02*
X144653823Y-169315233D01*
X144296680Y-168315233D01*
D13*
X94220394Y-156252233D02*
X94934680Y-156252233D01*
X95006109Y-156966519D01*
X94934680Y-156895090D01*
X94791823Y-156823662D01*
X94434680Y-156823662D01*
X94291823Y-156895090D01*
X94220394Y-156966519D01*
X94148966Y-157109376D01*
X94148966Y-157466519D01*
X94220394Y-157609376D01*
X94291823Y-157680804D01*
X94434680Y-157752233D01*
X94791823Y-157752233D01*
X94934680Y-157680804D01*
X95006109Y-157609376D01*
X93648966Y-156752233D02*
X93291823Y-157752233D01*
X92934680Y-156752233D01*
X94048966Y-162723662D02*
X94191823Y-162652233D01*
X94406109Y-162652233D01*
X94620394Y-162723662D01*
X94763251Y-162866519D01*
X94834680Y-163009376D01*
X94906109Y-163295090D01*
X94906109Y-163509376D01*
X94834680Y-163795090D01*
X94763251Y-163937947D01*
X94620394Y-164080804D01*
X94406109Y-164152233D01*
X94263251Y-164152233D01*
X94048966Y-164080804D01*
X93977537Y-164009376D01*
X93977537Y-163509376D01*
X94263251Y-163509376D01*
X93334680Y-164152233D02*
X93334680Y-162652233D01*
X92477537Y-164152233D01*
X92477537Y-162652233D01*
X91763251Y-164152233D02*
X91763251Y-162652233D01*
X91406109Y-162652233D01*
X91191823Y-162723662D01*
X91048966Y-162866519D01*
X90977537Y-163009376D01*
X90906109Y-163295090D01*
X90906109Y-163509376D01*
X90977537Y-163795090D01*
X91048966Y-163937947D01*
X91191823Y-164080804D01*
X91406109Y-164152233D01*
X91763251Y-164152233D01*
D10*
X181308451Y-151186662D02*
X181451309Y-151115233D01*
X181665594Y-151115233D01*
X181879880Y-151186662D01*
X182022737Y-151329519D01*
X182094166Y-151472376D01*
X182165594Y-151758090D01*
X182165594Y-151972376D01*
X182094166Y-152258090D01*
X182022737Y-152400947D01*
X181879880Y-152543804D01*
X181665594Y-152615233D01*
X181522737Y-152615233D01*
X181308451Y-152543804D01*
X181237023Y-152472376D01*
X181237023Y-151972376D01*
X181522737Y-151972376D01*
D13*
X94869204Y-161184376D02*
X94690632Y-161243900D01*
X94631109Y-161303423D01*
X94571585Y-161422471D01*
X94571585Y-161601042D01*
X94631109Y-161720090D01*
X94690632Y-161779614D01*
X94809680Y-161839138D01*
X95285870Y-161839138D01*
X95285870Y-160589138D01*
X94869204Y-160589138D01*
X94750156Y-160648662D01*
X94690632Y-160708185D01*
X94631109Y-160827233D01*
X94631109Y-160946281D01*
X94690632Y-161065328D01*
X94750156Y-161124852D01*
X94869204Y-161184376D01*
X95285870Y-161184376D01*
X94035870Y-161839138D02*
X94035870Y-160589138D01*
X93440632Y-161839138D02*
X93440632Y-160589138D01*
X92726347Y-161839138D01*
X92726347Y-160589138D01*
X95285870Y-159739138D02*
X95285870Y-158489138D01*
X94988251Y-158489138D01*
X94809680Y-158548662D01*
X94690632Y-158667709D01*
X94631109Y-158786757D01*
X94571585Y-159024852D01*
X94571585Y-159203423D01*
X94631109Y-159441519D01*
X94690632Y-159560566D01*
X94809680Y-159679614D01*
X94988251Y-159739138D01*
X95285870Y-159739138D01*
X94035870Y-159739138D02*
X94035870Y-158489138D01*
X93440632Y-159739138D02*
X93440632Y-158489138D01*
X92726347Y-159739138D01*
X92726347Y-158489138D01*
D11*
X340115766Y-156126042D02*
X340591956Y-156126042D01*
X340639575Y-156602233D01*
X340591956Y-156554614D01*
X340496718Y-156506995D01*
X340258623Y-156506995D01*
X340163385Y-156554614D01*
X340115766Y-156602233D01*
X340068147Y-156697471D01*
X340068147Y-156935566D01*
X340115766Y-157030804D01*
X340163385Y-157078423D01*
X340258623Y-157126042D01*
X340496718Y-157126042D01*
X340591956Y-157078423D01*
X340639575Y-157030804D01*
X339734813Y-156459376D02*
X339496718Y-157126042D01*
X339258623Y-156459376D01*
D13*
X351784680Y-183175090D02*
X351844204Y-183234614D01*
X352022775Y-183294138D01*
X352141823Y-183294138D01*
X352320394Y-183234614D01*
X352439442Y-183115566D01*
X352498966Y-182996519D01*
X352558489Y-182758423D01*
X352558489Y-182579852D01*
X352498966Y-182341757D01*
X352439442Y-182222709D01*
X352320394Y-182103662D01*
X352141823Y-182044138D01*
X352022775Y-182044138D01*
X351844204Y-182103662D01*
X351784680Y-182163185D01*
X350356109Y-181984614D02*
X351427537Y-183591757D01*
X349701347Y-182044138D02*
X349463251Y-182044138D01*
X349344204Y-182103662D01*
X349225156Y-182222709D01*
X349165632Y-182460804D01*
X349165632Y-182877471D01*
X349225156Y-183115566D01*
X349344204Y-183234614D01*
X349463251Y-183294138D01*
X349701347Y-183294138D01*
X349820394Y-183234614D01*
X349939442Y-183115566D01*
X349998966Y-182877471D01*
X349998966Y-182460804D01*
X349939442Y-182222709D01*
X349820394Y-182103662D01*
X349701347Y-182044138D01*
X347677537Y-183294138D02*
X347677537Y-182044138D01*
X347379918Y-182044138D01*
X347201347Y-182103662D01*
X347082299Y-182222709D01*
X347022775Y-182341757D01*
X346963251Y-182579852D01*
X346963251Y-182758423D01*
X347022775Y-182996519D01*
X347082299Y-183115566D01*
X347201347Y-183234614D01*
X347379918Y-183294138D01*
X347677537Y-183294138D01*
X346189442Y-182044138D02*
X345951347Y-182044138D01*
X345832299Y-182103662D01*
X345713251Y-182222709D01*
X345653728Y-182460804D01*
X345653728Y-182877471D01*
X345713251Y-183115566D01*
X345832299Y-183234614D01*
X345951347Y-183294138D01*
X346189442Y-183294138D01*
X346308489Y-183234614D01*
X346427537Y-183115566D01*
X346487061Y-182877471D01*
X346487061Y-182460804D01*
X346427537Y-182222709D01*
X346308489Y-182103662D01*
X346189442Y-182044138D01*
X351784680Y-185275090D02*
X351844204Y-185334614D01*
X352022775Y-185394138D01*
X352141823Y-185394138D01*
X352320394Y-185334614D01*
X352439442Y-185215566D01*
X352498966Y-185096519D01*
X352558489Y-184858423D01*
X352558489Y-184679852D01*
X352498966Y-184441757D01*
X352439442Y-184322709D01*
X352320394Y-184203662D01*
X352141823Y-184144138D01*
X352022775Y-184144138D01*
X351844204Y-184203662D01*
X351784680Y-184263185D01*
X350356109Y-184084614D02*
X351427537Y-185691757D01*
X349701347Y-184144138D02*
X349463251Y-184144138D01*
X349344204Y-184203662D01*
X349225156Y-184322709D01*
X349165632Y-184560804D01*
X349165632Y-184977471D01*
X349225156Y-185215566D01*
X349344204Y-185334614D01*
X349463251Y-185394138D01*
X349701347Y-185394138D01*
X349820394Y-185334614D01*
X349939442Y-185215566D01*
X349998966Y-184977471D01*
X349998966Y-184560804D01*
X349939442Y-184322709D01*
X349820394Y-184203662D01*
X349701347Y-184144138D01*
X347260870Y-184739376D02*
X347082299Y-184798900D01*
X347022775Y-184858423D01*
X346963251Y-184977471D01*
X346963251Y-185156042D01*
X347022775Y-185275090D01*
X347082299Y-185334614D01*
X347201347Y-185394138D01*
X347677537Y-185394138D01*
X347677537Y-184144138D01*
X347260870Y-184144138D01*
X347141823Y-184203662D01*
X347082299Y-184263185D01*
X347022775Y-184382233D01*
X347022775Y-184501281D01*
X347082299Y-184620328D01*
X347141823Y-184679852D01*
X347260870Y-184739376D01*
X347677537Y-184739376D01*
X346189442Y-184144138D02*
X345951347Y-184144138D01*
X345832299Y-184203662D01*
X345713251Y-184322709D01*
X345653728Y-184560804D01*
X345653728Y-184977471D01*
X345713251Y-185215566D01*
X345832299Y-185334614D01*
X345951347Y-185394138D01*
X346189442Y-185394138D01*
X346308489Y-185334614D01*
X346427537Y-185215566D01*
X346487061Y-184977471D01*
X346487061Y-184560804D01*
X346427537Y-184322709D01*
X346308489Y-184203662D01*
X346189442Y-184144138D01*
X114827537Y-192664376D02*
X114898966Y-192735804D01*
X115113251Y-192807233D01*
X115256109Y-192807233D01*
X115470394Y-192735804D01*
X115613251Y-192592947D01*
X115684680Y-192450090D01*
X115756109Y-192164376D01*
X115756109Y-191950090D01*
X115684680Y-191664376D01*
X115613251Y-191521519D01*
X115470394Y-191378662D01*
X115256109Y-191307233D01*
X115113251Y-191307233D01*
X114898966Y-191378662D01*
X114827537Y-191450090D01*
X113113251Y-191235804D02*
X114398966Y-193164376D01*
X112327537Y-191307233D02*
X112041823Y-191307233D01*
X111898966Y-191378662D01*
X111756109Y-191521519D01*
X111684680Y-191807233D01*
X111684680Y-192307233D01*
X111756109Y-192592947D01*
X111898966Y-192735804D01*
X112041823Y-192807233D01*
X112327537Y-192807233D01*
X112470394Y-192735804D01*
X112613251Y-192592947D01*
X112684680Y-192307233D01*
X112684680Y-191807233D01*
X112613251Y-191521519D01*
X112470394Y-191378662D01*
X112327537Y-191307233D01*
X109898966Y-192807233D02*
X109898966Y-191307233D01*
X109184680Y-192807233D02*
X109184680Y-191307233D01*
X108327537Y-192807233D01*
X108327537Y-191307233D01*
D10*
X355332537Y-191604090D02*
X355475394Y-191746947D01*
X355903966Y-191889804D01*
X356189680Y-191889804D01*
X356618251Y-191746947D01*
X356903966Y-191461233D01*
X357046823Y-191175519D01*
X357189680Y-190604090D01*
X357189680Y-190175519D01*
X357046823Y-189604090D01*
X356903966Y-189318376D01*
X356618251Y-189032662D01*
X356189680Y-188889804D01*
X355903966Y-188889804D01*
X355475394Y-189032662D01*
X355332537Y-189175519D01*
X356105823Y-176804376D02*
X355677251Y-176947233D01*
X355534394Y-177090090D01*
X355391537Y-177375804D01*
X355391537Y-177804376D01*
X355534394Y-178090090D01*
X355677251Y-178232947D01*
X355962966Y-178375804D01*
X357105823Y-178375804D01*
X357105823Y-175375804D01*
X356105823Y-175375804D01*
X355820109Y-175518662D01*
X355677251Y-175661519D01*
X355534394Y-175947233D01*
X355534394Y-176232947D01*
X355677251Y-176518662D01*
X355820109Y-176661519D01*
X356105823Y-176804376D01*
X357105823Y-176804376D01*
X84005823Y-176804376D02*
X83577251Y-176947233D01*
X83434394Y-177090090D01*
X83291537Y-177375804D01*
X83291537Y-177804376D01*
X83434394Y-178090090D01*
X83577251Y-178232947D01*
X83862966Y-178375804D01*
X85005823Y-178375804D01*
X85005823Y-175375804D01*
X84005823Y-175375804D01*
X83720109Y-175518662D01*
X83577251Y-175661519D01*
X83434394Y-175947233D01*
X83434394Y-176232947D01*
X83577251Y-176518662D01*
X83720109Y-176661519D01*
X84005823Y-176804376D01*
X85005823Y-176804376D01*
X83232537Y-191604090D02*
X83375394Y-191746947D01*
X83803966Y-191889804D01*
X84089680Y-191889804D01*
X84518251Y-191746947D01*
X84803966Y-191461233D01*
X84946823Y-191175519D01*
X85089680Y-190604090D01*
X85089680Y-190175519D01*
X84946823Y-189604090D01*
X84803966Y-189318376D01*
X84518251Y-189032662D01*
X84089680Y-188889804D01*
X83803966Y-188889804D01*
X83375394Y-189032662D01*
X83232537Y-189175519D01*
D13*
X346637194Y-179557233D02*
X347351480Y-179557233D01*
X347422909Y-180271519D01*
X347351480Y-180200090D01*
X347208623Y-180128662D01*
X346851480Y-180128662D01*
X346708623Y-180200090D01*
X346637194Y-180271519D01*
X346565766Y-180414376D01*
X346565766Y-180771519D01*
X346637194Y-180914376D01*
X346708623Y-180985804D01*
X346851480Y-181057233D01*
X347208623Y-181057233D01*
X347351480Y-180985804D01*
X347422909Y-180914376D01*
X346065766Y-180057233D02*
X345708623Y-181057233D01*
X345351480Y-180057233D01*
X348465766Y-186278662D02*
X348608623Y-186207233D01*
X348822909Y-186207233D01*
X349037194Y-186278662D01*
X349180051Y-186421519D01*
X349251480Y-186564376D01*
X349322909Y-186850090D01*
X349322909Y-187064376D01*
X349251480Y-187350090D01*
X349180051Y-187492947D01*
X349037194Y-187635804D01*
X348822909Y-187707233D01*
X348680051Y-187707233D01*
X348465766Y-187635804D01*
X348394337Y-187564376D01*
X348394337Y-187064376D01*
X348680051Y-187064376D01*
X347751480Y-187707233D02*
X347751480Y-186207233D01*
X346894337Y-187707233D01*
X346894337Y-186207233D01*
X346180051Y-187707233D02*
X346180051Y-186207233D01*
X345822909Y-186207233D01*
X345608623Y-186278662D01*
X345465766Y-186421519D01*
X345394337Y-186564376D01*
X345322909Y-186850090D01*
X345322909Y-187064376D01*
X345394337Y-187350090D01*
X345465766Y-187492947D01*
X345608623Y-187635804D01*
X345822909Y-187707233D01*
X346180051Y-187707233D01*
D10*
X298008451Y-174741662D02*
X298151309Y-174670233D01*
X298365594Y-174670233D01*
X298579880Y-174741662D01*
X298722737Y-174884519D01*
X298794166Y-175027376D01*
X298865594Y-175313090D01*
X298865594Y-175527376D01*
X298794166Y-175813090D01*
X298722737Y-175955947D01*
X298579880Y-176098804D01*
X298365594Y-176170233D01*
X298222737Y-176170233D01*
X298008451Y-176098804D01*
X297937023Y-176027376D01*
X297937023Y-175527376D01*
X298222737Y-175527376D01*
X258675251Y-191441662D02*
X258818109Y-191370233D01*
X259032394Y-191370233D01*
X259246680Y-191441662D01*
X259389537Y-191584519D01*
X259460966Y-191727376D01*
X259532394Y-192013090D01*
X259532394Y-192227376D01*
X259460966Y-192513090D01*
X259389537Y-192655947D01*
X259246680Y-192798804D01*
X259032394Y-192870233D01*
X258889537Y-192870233D01*
X258675251Y-192798804D01*
X258603823Y-192727376D01*
X258603823Y-192227376D01*
X258889537Y-192227376D01*
X292008451Y-174741662D02*
X292151309Y-174670233D01*
X292365594Y-174670233D01*
X292579880Y-174741662D01*
X292722737Y-174884519D01*
X292794166Y-175027376D01*
X292865594Y-175313090D01*
X292865594Y-175527376D01*
X292794166Y-175813090D01*
X292722737Y-175955947D01*
X292579880Y-176098804D01*
X292365594Y-176170233D01*
X292222737Y-176170233D01*
X292008451Y-176098804D01*
X291937023Y-176027376D01*
X291937023Y-175527376D01*
X292222737Y-175527376D01*
X262282394Y-191270233D02*
X262996680Y-191270233D01*
X263068109Y-191984519D01*
X262996680Y-191913090D01*
X262853823Y-191841662D01*
X262496680Y-191841662D01*
X262353823Y-191913090D01*
X262282394Y-191984519D01*
X262210966Y-192127376D01*
X262210966Y-192484519D01*
X262282394Y-192627376D01*
X262353823Y-192698804D01*
X262496680Y-192770233D01*
X262853823Y-192770233D01*
X262996680Y-192698804D01*
X263068109Y-192627376D01*
X261710966Y-191770233D02*
X261353823Y-192770233D01*
X260996680Y-191770233D01*
X264675251Y-191441662D02*
X264818109Y-191370233D01*
X265032394Y-191370233D01*
X265246680Y-191441662D01*
X265389537Y-191584519D01*
X265460966Y-191727376D01*
X265532394Y-192013090D01*
X265532394Y-192227376D01*
X265460966Y-192513090D01*
X265389537Y-192655947D01*
X265246680Y-192798804D01*
X265032394Y-192870233D01*
X264889537Y-192870233D01*
X264675251Y-192798804D01*
X264603823Y-192727376D01*
X264603823Y-192227376D01*
X264889537Y-192227376D01*
X295615594Y-174570233D02*
X296329880Y-174570233D01*
X296401309Y-175284519D01*
X296329880Y-175213090D01*
X296187023Y-175141662D01*
X295829880Y-175141662D01*
X295687023Y-175213090D01*
X295615594Y-175284519D01*
X295544166Y-175427376D01*
X295544166Y-175784519D01*
X295615594Y-175927376D01*
X295687023Y-175998804D01*
X295829880Y-176070233D01*
X296187023Y-176070233D01*
X296329880Y-175998804D01*
X296401309Y-175927376D01*
X295044166Y-175070233D02*
X294687023Y-176070233D01*
X294329880Y-175070233D01*
D11*
X330896480Y-184448804D02*
X330944099Y-184305947D01*
X330991718Y-184258328D01*
X331086956Y-184210709D01*
X331229813Y-184210709D01*
X331325051Y-184258328D01*
X331372670Y-184305947D01*
X331420289Y-184401185D01*
X331420289Y-184782138D01*
X330420289Y-184782138D01*
X330420289Y-184448804D01*
X330467909Y-184353566D01*
X330515528Y-184305947D01*
X330610766Y-184258328D01*
X330706004Y-184258328D01*
X330801242Y-184305947D01*
X330848861Y-184353566D01*
X330896480Y-184448804D01*
X330896480Y-184782138D01*
X330420289Y-183591662D02*
X330420289Y-183401185D01*
X330467909Y-183305947D01*
X330563147Y-183210709D01*
X330753623Y-183163090D01*
X331086956Y-183163090D01*
X331277432Y-183210709D01*
X331372670Y-183305947D01*
X331420289Y-183401185D01*
X331420289Y-183591662D01*
X331372670Y-183686900D01*
X331277432Y-183782138D01*
X331086956Y-183829757D01*
X330753623Y-183829757D01*
X330563147Y-183782138D01*
X330467909Y-183686900D01*
X330420289Y-183591662D01*
X330420289Y-182734519D02*
X331229813Y-182734519D01*
X331325051Y-182686900D01*
X331372670Y-182639281D01*
X331420289Y-182544042D01*
X331420289Y-182353566D01*
X331372670Y-182258328D01*
X331325051Y-182210709D01*
X331229813Y-182163090D01*
X330420289Y-182163090D01*
X330420289Y-181829757D02*
X330420289Y-181258328D01*
X331420289Y-181544042D02*
X330420289Y-181544042D01*
X326396480Y-184448804D02*
X326444099Y-184305947D01*
X326491718Y-184258328D01*
X326586956Y-184210709D01*
X326729813Y-184210709D01*
X326825051Y-184258328D01*
X326872670Y-184305947D01*
X326920289Y-184401185D01*
X326920289Y-184782138D01*
X325920289Y-184782138D01*
X325920289Y-184448804D01*
X325967909Y-184353566D01*
X326015528Y-184305947D01*
X326110766Y-184258328D01*
X326206004Y-184258328D01*
X326301242Y-184305947D01*
X326348861Y-184353566D01*
X326396480Y-184448804D01*
X326396480Y-184782138D01*
X325920289Y-183591662D02*
X325920289Y-183401185D01*
X325967909Y-183305947D01*
X326063147Y-183210709D01*
X326253623Y-183163090D01*
X326586956Y-183163090D01*
X326777432Y-183210709D01*
X326872670Y-183305947D01*
X326920289Y-183401185D01*
X326920289Y-183591662D01*
X326872670Y-183686900D01*
X326777432Y-183782138D01*
X326586956Y-183829757D01*
X326253623Y-183829757D01*
X326063147Y-183782138D01*
X325967909Y-183686900D01*
X325920289Y-183591662D01*
X325920289Y-182734519D02*
X326729813Y-182734519D01*
X326825051Y-182686900D01*
X326872670Y-182639281D01*
X326920289Y-182544042D01*
X326920289Y-182353566D01*
X326872670Y-182258328D01*
X326825051Y-182210709D01*
X326729813Y-182163090D01*
X325920289Y-182163090D01*
X325920289Y-181829757D02*
X325920289Y-181258328D01*
X326920289Y-181544042D02*
X325920289Y-181544042D01*
X329220289Y-184782138D02*
X328220289Y-184782138D01*
X328220289Y-184544042D01*
X328267909Y-184401185D01*
X328363147Y-184305947D01*
X328458385Y-184258328D01*
X328648861Y-184210709D01*
X328791718Y-184210709D01*
X328982194Y-184258328D01*
X329077432Y-184305947D01*
X329172670Y-184401185D01*
X329220289Y-184544042D01*
X329220289Y-184782138D01*
X328220289Y-183591662D02*
X328220289Y-183401185D01*
X328267909Y-183305947D01*
X328363147Y-183210709D01*
X328553623Y-183163090D01*
X328886956Y-183163090D01*
X329077432Y-183210709D01*
X329172670Y-183305947D01*
X329220289Y-183401185D01*
X329220289Y-183591662D01*
X329172670Y-183686900D01*
X329077432Y-183782138D01*
X328886956Y-183829757D01*
X328553623Y-183829757D01*
X328363147Y-183782138D01*
X328267909Y-183686900D01*
X328220289Y-183591662D01*
X328220289Y-182734519D02*
X329029813Y-182734519D01*
X329125051Y-182686900D01*
X329172670Y-182639281D01*
X329220289Y-182544042D01*
X329220289Y-182353566D01*
X329172670Y-182258328D01*
X329125051Y-182210709D01*
X329029813Y-182163090D01*
X328220289Y-182163090D01*
X328220289Y-181829757D02*
X328220289Y-181258328D01*
X329220289Y-181544042D02*
X328220289Y-181544042D01*
D10*
X147975251Y-191541662D02*
X148118109Y-191470233D01*
X148332394Y-191470233D01*
X148546680Y-191541662D01*
X148689537Y-191684519D01*
X148760966Y-191827376D01*
X148832394Y-192113090D01*
X148832394Y-192327376D01*
X148760966Y-192613090D01*
X148689537Y-192755947D01*
X148546680Y-192898804D01*
X148332394Y-192970233D01*
X148189537Y-192970233D01*
X147975251Y-192898804D01*
X147903823Y-192827376D01*
X147903823Y-192327376D01*
X148189537Y-192327376D01*
X141975251Y-191541662D02*
X142118109Y-191470233D01*
X142332394Y-191470233D01*
X142546680Y-191541662D01*
X142689537Y-191684519D01*
X142760966Y-191827376D01*
X142832394Y-192113090D01*
X142832394Y-192327376D01*
X142760966Y-192613090D01*
X142689537Y-192755947D01*
X142546680Y-192898804D01*
X142332394Y-192970233D01*
X142189537Y-192970233D01*
X141975251Y-192898804D01*
X141903823Y-192827376D01*
X141903823Y-192327376D01*
X142189537Y-192327376D01*
X145582394Y-191370233D02*
X146296680Y-191370233D01*
X146368109Y-192084519D01*
X146296680Y-192013090D01*
X146153823Y-191941662D01*
X145796680Y-191941662D01*
X145653823Y-192013090D01*
X145582394Y-192084519D01*
X145510966Y-192227376D01*
X145510966Y-192584519D01*
X145582394Y-192727376D01*
X145653823Y-192798804D01*
X145796680Y-192870233D01*
X146153823Y-192870233D01*
X146296680Y-192798804D01*
X146368109Y-192727376D01*
X145010966Y-191870233D02*
X144653823Y-192870233D01*
X144296680Y-191870233D01*
X181308451Y-174741662D02*
X181451309Y-174670233D01*
X181665594Y-174670233D01*
X181879880Y-174741662D01*
X182022737Y-174884519D01*
X182094166Y-175027376D01*
X182165594Y-175313090D01*
X182165594Y-175527376D01*
X182094166Y-175813090D01*
X182022737Y-175955947D01*
X181879880Y-176098804D01*
X181665594Y-176170233D01*
X181522737Y-176170233D01*
X181308451Y-176098804D01*
X181237023Y-176027376D01*
X181237023Y-175527376D01*
X181522737Y-175527376D01*
X175308451Y-174741662D02*
X175451309Y-174670233D01*
X175665594Y-174670233D01*
X175879880Y-174741662D01*
X176022737Y-174884519D01*
X176094166Y-175027376D01*
X176165594Y-175313090D01*
X176165594Y-175527376D01*
X176094166Y-175813090D01*
X176022737Y-175955947D01*
X175879880Y-176098804D01*
X175665594Y-176170233D01*
X175522737Y-176170233D01*
X175308451Y-176098804D01*
X175237023Y-176027376D01*
X175237023Y-175527376D01*
X175522737Y-175527376D01*
X178915594Y-174570233D02*
X179629880Y-174570233D01*
X179701309Y-175284519D01*
X179629880Y-175213090D01*
X179487023Y-175141662D01*
X179129880Y-175141662D01*
X178987023Y-175213090D01*
X178915594Y-175284519D01*
X178844166Y-175427376D01*
X178844166Y-175784519D01*
X178915594Y-175927376D01*
X178987023Y-175998804D01*
X179129880Y-176070233D01*
X179487023Y-176070233D01*
X179629880Y-175998804D01*
X179701309Y-175927376D01*
X178344166Y-175070233D02*
X177987023Y-176070233D01*
X177629880Y-175070233D01*
D13*
X94220394Y-179807233D02*
X94934680Y-179807233D01*
X95006109Y-180521519D01*
X94934680Y-180450090D01*
X94791823Y-180378662D01*
X94434680Y-180378662D01*
X94291823Y-180450090D01*
X94220394Y-180521519D01*
X94148966Y-180664376D01*
X94148966Y-181021519D01*
X94220394Y-181164376D01*
X94291823Y-181235804D01*
X94434680Y-181307233D01*
X94791823Y-181307233D01*
X94934680Y-181235804D01*
X95006109Y-181164376D01*
X93648966Y-180307233D02*
X93291823Y-181307233D01*
X92934680Y-180307233D01*
X94048966Y-186278662D02*
X94191823Y-186207233D01*
X94406109Y-186207233D01*
X94620394Y-186278662D01*
X94763251Y-186421519D01*
X94834680Y-186564376D01*
X94906109Y-186850090D01*
X94906109Y-187064376D01*
X94834680Y-187350090D01*
X94763251Y-187492947D01*
X94620394Y-187635804D01*
X94406109Y-187707233D01*
X94263251Y-187707233D01*
X94048966Y-187635804D01*
X93977537Y-187564376D01*
X93977537Y-187064376D01*
X94263251Y-187064376D01*
X93334680Y-187707233D02*
X93334680Y-186207233D01*
X92477537Y-187707233D01*
X92477537Y-186207233D01*
X91763251Y-187707233D02*
X91763251Y-186207233D01*
X91406109Y-186207233D01*
X91191823Y-186278662D01*
X91048966Y-186421519D01*
X90977537Y-186564376D01*
X90906109Y-186850090D01*
X90906109Y-187064376D01*
X90977537Y-187350090D01*
X91048966Y-187492947D01*
X91191823Y-187635804D01*
X91406109Y-187707233D01*
X91763251Y-187707233D01*
X94869204Y-184739376D02*
X94690632Y-184798900D01*
X94631109Y-184858423D01*
X94571585Y-184977471D01*
X94571585Y-185156042D01*
X94631109Y-185275090D01*
X94690632Y-185334614D01*
X94809680Y-185394138D01*
X95285870Y-185394138D01*
X95285870Y-184144138D01*
X94869204Y-184144138D01*
X94750156Y-184203662D01*
X94690632Y-184263185D01*
X94631109Y-184382233D01*
X94631109Y-184501281D01*
X94690632Y-184620328D01*
X94750156Y-184679852D01*
X94869204Y-184739376D01*
X95285870Y-184739376D01*
X94035870Y-185394138D02*
X94035870Y-184144138D01*
X93440632Y-185394138D02*
X93440632Y-184144138D01*
X92726347Y-185394138D01*
X92726347Y-184144138D01*
X95285870Y-183294138D02*
X95285870Y-182044138D01*
X94988251Y-182044138D01*
X94809680Y-182103662D01*
X94690632Y-182222709D01*
X94631109Y-182341757D01*
X94571585Y-182579852D01*
X94571585Y-182758423D01*
X94631109Y-182996519D01*
X94690632Y-183115566D01*
X94809680Y-183234614D01*
X94988251Y-183294138D01*
X95285870Y-183294138D01*
X94035870Y-183294138D02*
X94035870Y-182044138D01*
X93440632Y-183294138D02*
X93440632Y-182044138D01*
X92726347Y-183294138D01*
X92726347Y-182044138D01*
D14*
X355322909Y-184678662D02*
X357322909Y-183678662D01*
X352322909Y-183678662D02*
X357322909Y-183678662D01*
X355322909Y-182678662D02*
X357322909Y-183678662D01*
X87006109Y-183828662D02*
X92006109Y-183828662D01*
X90006109Y-182828662D02*
X92006109Y-183828662D01*
X90006109Y-184828662D02*
X92006109Y-183828662D01*
D11*
X340115766Y-179681042D02*
X340591956Y-179681042D01*
X340639575Y-180157233D01*
X340591956Y-180109614D01*
X340496718Y-180061995D01*
X340258623Y-180061995D01*
X340163385Y-180109614D01*
X340115766Y-180157233D01*
X340068147Y-180252471D01*
X340068147Y-180490566D01*
X340115766Y-180585804D01*
X340163385Y-180633423D01*
X340258623Y-180681042D01*
X340496718Y-180681042D01*
X340591956Y-180633423D01*
X340639575Y-180585804D01*
X339734813Y-180014376D02*
X339496718Y-180681042D01*
X339258623Y-180014376D01*
X343239059Y-197675391D02*
X343381916Y-197723010D01*
X343429535Y-197770629D01*
X343477154Y-197865867D01*
X343477154Y-198008724D01*
X343429535Y-198103962D01*
X343381916Y-198151581D01*
X343286678Y-198199200D01*
X342905726Y-198199200D01*
X342905726Y-197199200D01*
X343239059Y-197199200D01*
X343334297Y-197246820D01*
X343381916Y-197294439D01*
X343429535Y-197389677D01*
X343429535Y-197484915D01*
X343381916Y-197580153D01*
X343334297Y-197627772D01*
X343239059Y-197675391D01*
X342905726Y-197675391D01*
X347739059Y-197675391D02*
X347881916Y-197723010D01*
X347929535Y-197770629D01*
X347977154Y-197865867D01*
X347977154Y-198008724D01*
X347929535Y-198103962D01*
X347881916Y-198151581D01*
X347786678Y-198199200D01*
X347405726Y-198199200D01*
X347405726Y-197199200D01*
X347739059Y-197199200D01*
X347834297Y-197246820D01*
X347881916Y-197294439D01*
X347929535Y-197389677D01*
X347929535Y-197484915D01*
X347881916Y-197580153D01*
X347834297Y-197627772D01*
X347739059Y-197675391D01*
X347405726Y-197675391D01*
X344681916Y-198199200D02*
X344681916Y-197199200D01*
X344920011Y-197199200D01*
X345062869Y-197246820D01*
X345158107Y-197342058D01*
X345205726Y-197437296D01*
X345253345Y-197627772D01*
X345253345Y-197770629D01*
X345205726Y-197961105D01*
X345158107Y-198056343D01*
X345062869Y-198151581D01*
X344920011Y-198199200D01*
X344681916Y-198199200D01*
X345872392Y-197199200D02*
X346062869Y-197199200D01*
X346158107Y-197246820D01*
X346253345Y-197342058D01*
X346300964Y-197532534D01*
X346300964Y-197865867D01*
X346253345Y-198056343D01*
X346158107Y-198151581D01*
X346062869Y-198199200D01*
X345872392Y-198199200D01*
X345777154Y-198151581D01*
X345681916Y-198056343D01*
X345634297Y-197865867D01*
X345634297Y-197532534D01*
X345681916Y-197342058D01*
X345777154Y-197246820D01*
X345872392Y-197199200D01*
X98867631Y-206994439D02*
X98867631Y-207994439D01*
X98296202Y-206994439D01*
X98296202Y-207994439D01*
X97629535Y-207994439D02*
X97439059Y-207994439D01*
X97343821Y-207946820D01*
X97248583Y-207851581D01*
X97200964Y-207661105D01*
X97200964Y-207327772D01*
X97248583Y-207137296D01*
X97343821Y-207042058D01*
X97439059Y-206994439D01*
X97629535Y-206994439D01*
X97724773Y-207042058D01*
X97820011Y-207137296D01*
X97867631Y-207327772D01*
X97867631Y-207661105D01*
X97820011Y-207851581D01*
X97724773Y-207946820D01*
X97629535Y-207994439D01*
X96772392Y-207375391D02*
X96010488Y-207375391D01*
X94962869Y-207089677D02*
X95010488Y-207042058D01*
X95153345Y-206994439D01*
X95248583Y-206994439D01*
X95391440Y-207042058D01*
X95486678Y-207137296D01*
X95534297Y-207232534D01*
X95581916Y-207423010D01*
X95581916Y-207565867D01*
X95534297Y-207756343D01*
X95486678Y-207851581D01*
X95391440Y-207946820D01*
X95248583Y-207994439D01*
X95153345Y-207994439D01*
X95010488Y-207946820D01*
X94962869Y-207899200D01*
X94343821Y-207994439D02*
X94153345Y-207994439D01*
X94058107Y-207946820D01*
X93962869Y-207851581D01*
X93915250Y-207661105D01*
X93915250Y-207327772D01*
X93962869Y-207137296D01*
X94058107Y-207042058D01*
X94153345Y-206994439D01*
X94343821Y-206994439D01*
X94439059Y-207042058D01*
X94534297Y-207137296D01*
X94581916Y-207327772D01*
X94581916Y-207661105D01*
X94534297Y-207851581D01*
X94439059Y-207946820D01*
X94343821Y-207994439D01*
X93486678Y-206994439D02*
X93486678Y-207994439D01*
X92915250Y-206994439D01*
X92915250Y-207994439D01*
X92439059Y-206994439D02*
X92439059Y-207994439D01*
X91867631Y-206994439D01*
X91867631Y-207994439D01*
X98867631Y-213894439D02*
X98867631Y-214894439D01*
X98296202Y-213894439D01*
X98296202Y-214894439D01*
X97629535Y-214894439D02*
X97439059Y-214894439D01*
X97343821Y-214846820D01*
X97248583Y-214751581D01*
X97200964Y-214561105D01*
X97200964Y-214227772D01*
X97248583Y-214037296D01*
X97343821Y-213942058D01*
X97439059Y-213894439D01*
X97629535Y-213894439D01*
X97724773Y-213942058D01*
X97820011Y-214037296D01*
X97867631Y-214227772D01*
X97867631Y-214561105D01*
X97820011Y-214751581D01*
X97724773Y-214846820D01*
X97629535Y-214894439D01*
X96772392Y-214275391D02*
X96010488Y-214275391D01*
X94962869Y-213989677D02*
X95010488Y-213942058D01*
X95153345Y-213894439D01*
X95248583Y-213894439D01*
X95391440Y-213942058D01*
X95486678Y-214037296D01*
X95534297Y-214132534D01*
X95581916Y-214323010D01*
X95581916Y-214465867D01*
X95534297Y-214656343D01*
X95486678Y-214751581D01*
X95391440Y-214846820D01*
X95248583Y-214894439D01*
X95153345Y-214894439D01*
X95010488Y-214846820D01*
X94962869Y-214799200D01*
X94343821Y-214894439D02*
X94153345Y-214894439D01*
X94058107Y-214846820D01*
X93962869Y-214751581D01*
X93915250Y-214561105D01*
X93915250Y-214227772D01*
X93962869Y-214037296D01*
X94058107Y-213942058D01*
X94153345Y-213894439D01*
X94343821Y-213894439D01*
X94439059Y-213942058D01*
X94534297Y-214037296D01*
X94581916Y-214227772D01*
X94581916Y-214561105D01*
X94534297Y-214751581D01*
X94439059Y-214846820D01*
X94343821Y-214894439D01*
X93486678Y-213894439D02*
X93486678Y-214894439D01*
X92915250Y-213894439D01*
X92915250Y-214894439D01*
X92439059Y-213894439D02*
X92439059Y-214894439D01*
X91867631Y-213894439D01*
X91867631Y-214894439D01*
D13*
X366735726Y-205399296D02*
X366735726Y-204149296D01*
X366438107Y-204149296D01*
X366259535Y-204208820D01*
X366140488Y-204327867D01*
X366080964Y-204446915D01*
X366021440Y-204685010D01*
X366021440Y-204863581D01*
X366080964Y-205101677D01*
X366140488Y-205220724D01*
X366259535Y-205339772D01*
X366438107Y-205399296D01*
X366735726Y-205399296D01*
X365247631Y-204149296D02*
X365009535Y-204149296D01*
X364890488Y-204208820D01*
X364771440Y-204327867D01*
X364711916Y-204565962D01*
X364711916Y-204982629D01*
X364771440Y-205220724D01*
X364890488Y-205339772D01*
X365009535Y-205399296D01*
X365247631Y-205399296D01*
X365366678Y-205339772D01*
X365485726Y-205220724D01*
X365545250Y-204982629D01*
X365545250Y-204565962D01*
X365485726Y-204327867D01*
X365366678Y-204208820D01*
X365247631Y-204149296D01*
X364176202Y-204149296D02*
X364176202Y-205161200D01*
X364116678Y-205280248D01*
X364057154Y-205339772D01*
X363938107Y-205399296D01*
X363700011Y-205399296D01*
X363580964Y-205339772D01*
X363521440Y-205280248D01*
X363461916Y-205161200D01*
X363461916Y-204149296D01*
X363045250Y-204149296D02*
X362330964Y-204149296D01*
X362688107Y-205399296D02*
X362688107Y-204149296D01*
X366319059Y-206844534D02*
X366140488Y-206904058D01*
X366080964Y-206963581D01*
X366021440Y-207082629D01*
X366021440Y-207261200D01*
X366080964Y-207380248D01*
X366140488Y-207439772D01*
X366259535Y-207499296D01*
X366735726Y-207499296D01*
X366735726Y-206249296D01*
X366319059Y-206249296D01*
X366200011Y-206308820D01*
X366140488Y-206368343D01*
X366080964Y-206487391D01*
X366080964Y-206606439D01*
X366140488Y-206725486D01*
X366200011Y-206785010D01*
X366319059Y-206844534D01*
X366735726Y-206844534D01*
X365247631Y-206249296D02*
X365009535Y-206249296D01*
X364890488Y-206308820D01*
X364771440Y-206427867D01*
X364711916Y-206665962D01*
X364711916Y-207082629D01*
X364771440Y-207320724D01*
X364890488Y-207439772D01*
X365009535Y-207499296D01*
X365247631Y-207499296D01*
X365366678Y-207439772D01*
X365485726Y-207320724D01*
X365545250Y-207082629D01*
X365545250Y-206665962D01*
X365485726Y-206427867D01*
X365366678Y-206308820D01*
X365247631Y-206249296D01*
X364176202Y-206249296D02*
X364176202Y-207261200D01*
X364116678Y-207380248D01*
X364057154Y-207439772D01*
X363938107Y-207499296D01*
X363700011Y-207499296D01*
X363580964Y-207439772D01*
X363521440Y-207380248D01*
X363461916Y-207261200D01*
X363461916Y-206249296D01*
X363045250Y-206249296D02*
X362330964Y-206249296D01*
X362688107Y-207499296D02*
X362688107Y-206249296D01*
X363336916Y-201912391D02*
X364051202Y-201912391D01*
X364122631Y-202626677D01*
X364051202Y-202555248D01*
X363908345Y-202483820D01*
X363551202Y-202483820D01*
X363408345Y-202555248D01*
X363336916Y-202626677D01*
X363265488Y-202769534D01*
X363265488Y-203126677D01*
X363336916Y-203269534D01*
X363408345Y-203340962D01*
X363551202Y-203412391D01*
X363908345Y-203412391D01*
X364051202Y-203340962D01*
X364122631Y-203269534D01*
X362765488Y-202412391D02*
X362408345Y-203412391D01*
X362051202Y-202412391D01*
X365165488Y-208633820D02*
X365308345Y-208562391D01*
X365522631Y-208562391D01*
X365736916Y-208633820D01*
X365879773Y-208776677D01*
X365951202Y-208919534D01*
X366022631Y-209205248D01*
X366022631Y-209419534D01*
X365951202Y-209705248D01*
X365879773Y-209848105D01*
X365736916Y-209990962D01*
X365522631Y-210062391D01*
X365379773Y-210062391D01*
X365165488Y-209990962D01*
X365094059Y-209919534D01*
X365094059Y-209419534D01*
X365379773Y-209419534D01*
X364451202Y-210062391D02*
X364451202Y-208562391D01*
X363594059Y-210062391D01*
X363594059Y-208562391D01*
X362879773Y-210062391D02*
X362879773Y-208562391D01*
X362522631Y-208562391D01*
X362308345Y-208633820D01*
X362165488Y-208776677D01*
X362094059Y-208919534D01*
X362022631Y-209205248D01*
X362022631Y-209419534D01*
X362094059Y-209705248D01*
X362165488Y-209848105D01*
X362308345Y-209990962D01*
X362522631Y-210062391D01*
X362879773Y-210062391D01*
D10*
X314708173Y-197096820D02*
X314851031Y-197025391D01*
X315065316Y-197025391D01*
X315279602Y-197096820D01*
X315422459Y-197239677D01*
X315493888Y-197382534D01*
X315565316Y-197668248D01*
X315565316Y-197882534D01*
X315493888Y-198168248D01*
X315422459Y-198311105D01*
X315279602Y-198453962D01*
X315065316Y-198525391D01*
X314922459Y-198525391D01*
X314708173Y-198453962D01*
X314636745Y-198382534D01*
X314636745Y-197882534D01*
X314922459Y-197882534D01*
X242041773Y-213796820D02*
X242184631Y-213725391D01*
X242398916Y-213725391D01*
X242613202Y-213796820D01*
X242756059Y-213939677D01*
X242827488Y-214082534D01*
X242898916Y-214368248D01*
X242898916Y-214582534D01*
X242827488Y-214868248D01*
X242756059Y-215011105D01*
X242613202Y-215153962D01*
X242398916Y-215225391D01*
X242256059Y-215225391D01*
X242041773Y-215153962D01*
X241970345Y-215082534D01*
X241970345Y-214582534D01*
X242256059Y-214582534D01*
X308708173Y-197096820D02*
X308851031Y-197025391D01*
X309065316Y-197025391D01*
X309279602Y-197096820D01*
X309422459Y-197239677D01*
X309493888Y-197382534D01*
X309565316Y-197668248D01*
X309565316Y-197882534D01*
X309493888Y-198168248D01*
X309422459Y-198311105D01*
X309279602Y-198453962D01*
X309065316Y-198525391D01*
X308922459Y-198525391D01*
X308708173Y-198453962D01*
X308636745Y-198382534D01*
X308636745Y-197882534D01*
X308922459Y-197882534D01*
X245648916Y-213625391D02*
X246363202Y-213625391D01*
X246434631Y-214339677D01*
X246363202Y-214268248D01*
X246220345Y-214196820D01*
X245863202Y-214196820D01*
X245720345Y-214268248D01*
X245648916Y-214339677D01*
X245577488Y-214482534D01*
X245577488Y-214839677D01*
X245648916Y-214982534D01*
X245720345Y-215053962D01*
X245863202Y-215125391D01*
X246220345Y-215125391D01*
X246363202Y-215053962D01*
X246434631Y-214982534D01*
X245077488Y-214125391D02*
X244720345Y-215125391D01*
X244363202Y-214125391D01*
X248041773Y-213796820D02*
X248184631Y-213725391D01*
X248398916Y-213725391D01*
X248613202Y-213796820D01*
X248756059Y-213939677D01*
X248827488Y-214082534D01*
X248898916Y-214368248D01*
X248898916Y-214582534D01*
X248827488Y-214868248D01*
X248756059Y-215011105D01*
X248613202Y-215153962D01*
X248398916Y-215225391D01*
X248256059Y-215225391D01*
X248041773Y-215153962D01*
X247970345Y-215082534D01*
X247970345Y-214582534D01*
X248256059Y-214582534D01*
X312315316Y-196925391D02*
X313029602Y-196925391D01*
X313101031Y-197639677D01*
X313029602Y-197568248D01*
X312886745Y-197496820D01*
X312529602Y-197496820D01*
X312386745Y-197568248D01*
X312315316Y-197639677D01*
X312243888Y-197782534D01*
X312243888Y-198139677D01*
X312315316Y-198282534D01*
X312386745Y-198353962D01*
X312529602Y-198425391D01*
X312886745Y-198425391D01*
X313029602Y-198353962D01*
X313101031Y-198282534D01*
X311743888Y-197425391D02*
X311386745Y-198425391D01*
X311029602Y-197425391D01*
D11*
X347596202Y-206803962D02*
X347643821Y-206661105D01*
X347691440Y-206613486D01*
X347786678Y-206565867D01*
X347929535Y-206565867D01*
X348024773Y-206613486D01*
X348072392Y-206661105D01*
X348120011Y-206756343D01*
X348120011Y-207137296D01*
X347120011Y-207137296D01*
X347120011Y-206803962D01*
X347167631Y-206708724D01*
X347215250Y-206661105D01*
X347310488Y-206613486D01*
X347405726Y-206613486D01*
X347500964Y-206661105D01*
X347548583Y-206708724D01*
X347596202Y-206803962D01*
X347596202Y-207137296D01*
X347120011Y-205946820D02*
X347120011Y-205756343D01*
X347167631Y-205661105D01*
X347262869Y-205565867D01*
X347453345Y-205518248D01*
X347786678Y-205518248D01*
X347977154Y-205565867D01*
X348072392Y-205661105D01*
X348120011Y-205756343D01*
X348120011Y-205946820D01*
X348072392Y-206042058D01*
X347977154Y-206137296D01*
X347786678Y-206184915D01*
X347453345Y-206184915D01*
X347262869Y-206137296D01*
X347167631Y-206042058D01*
X347120011Y-205946820D01*
X347120011Y-205089677D02*
X347929535Y-205089677D01*
X348024773Y-205042058D01*
X348072392Y-204994439D01*
X348120011Y-204899200D01*
X348120011Y-204708724D01*
X348072392Y-204613486D01*
X348024773Y-204565867D01*
X347929535Y-204518248D01*
X347120011Y-204518248D01*
X347120011Y-204184915D02*
X347120011Y-203613486D01*
X348120011Y-203899200D02*
X347120011Y-203899200D01*
X343096202Y-206803962D02*
X343143821Y-206661105D01*
X343191440Y-206613486D01*
X343286678Y-206565867D01*
X343429535Y-206565867D01*
X343524773Y-206613486D01*
X343572392Y-206661105D01*
X343620011Y-206756343D01*
X343620011Y-207137296D01*
X342620011Y-207137296D01*
X342620011Y-206803962D01*
X342667631Y-206708724D01*
X342715250Y-206661105D01*
X342810488Y-206613486D01*
X342905726Y-206613486D01*
X343000964Y-206661105D01*
X343048583Y-206708724D01*
X343096202Y-206803962D01*
X343096202Y-207137296D01*
X342620011Y-205946820D02*
X342620011Y-205756343D01*
X342667631Y-205661105D01*
X342762869Y-205565867D01*
X342953345Y-205518248D01*
X343286678Y-205518248D01*
X343477154Y-205565867D01*
X343572392Y-205661105D01*
X343620011Y-205756343D01*
X343620011Y-205946820D01*
X343572392Y-206042058D01*
X343477154Y-206137296D01*
X343286678Y-206184915D01*
X342953345Y-206184915D01*
X342762869Y-206137296D01*
X342667631Y-206042058D01*
X342620011Y-205946820D01*
X342620011Y-205089677D02*
X343429535Y-205089677D01*
X343524773Y-205042058D01*
X343572392Y-204994439D01*
X343620011Y-204899200D01*
X343620011Y-204708724D01*
X343572392Y-204613486D01*
X343524773Y-204565867D01*
X343429535Y-204518248D01*
X342620011Y-204518248D01*
X342620011Y-204184915D02*
X342620011Y-203613486D01*
X343620011Y-203899200D02*
X342620011Y-203899200D01*
X345920011Y-207137296D02*
X344920011Y-207137296D01*
X344920011Y-206899200D01*
X344967631Y-206756343D01*
X345062869Y-206661105D01*
X345158107Y-206613486D01*
X345348583Y-206565867D01*
X345491440Y-206565867D01*
X345681916Y-206613486D01*
X345777154Y-206661105D01*
X345872392Y-206756343D01*
X345920011Y-206899200D01*
X345920011Y-207137296D01*
X344920011Y-205946820D02*
X344920011Y-205756343D01*
X344967631Y-205661105D01*
X345062869Y-205565867D01*
X345253345Y-205518248D01*
X345586678Y-205518248D01*
X345777154Y-205565867D01*
X345872392Y-205661105D01*
X345920011Y-205756343D01*
X345920011Y-205946820D01*
X345872392Y-206042058D01*
X345777154Y-206137296D01*
X345586678Y-206184915D01*
X345253345Y-206184915D01*
X345062869Y-206137296D01*
X344967631Y-206042058D01*
X344920011Y-205946820D01*
X344920011Y-205089677D02*
X345729535Y-205089677D01*
X345824773Y-205042058D01*
X345872392Y-204994439D01*
X345920011Y-204899200D01*
X345920011Y-204708724D01*
X345872392Y-204613486D01*
X345824773Y-204565867D01*
X345729535Y-204518248D01*
X344920011Y-204518248D01*
X344920011Y-204184915D02*
X344920011Y-203613486D01*
X345920011Y-203899200D02*
X344920011Y-203899200D01*
D10*
X131341773Y-213896820D02*
X131484631Y-213825391D01*
X131698916Y-213825391D01*
X131913202Y-213896820D01*
X132056059Y-214039677D01*
X132127488Y-214182534D01*
X132198916Y-214468248D01*
X132198916Y-214682534D01*
X132127488Y-214968248D01*
X132056059Y-215111105D01*
X131913202Y-215253962D01*
X131698916Y-215325391D01*
X131556059Y-215325391D01*
X131341773Y-215253962D01*
X131270345Y-215182534D01*
X131270345Y-214682534D01*
X131556059Y-214682534D01*
X125341773Y-213896820D02*
X125484631Y-213825391D01*
X125698916Y-213825391D01*
X125913202Y-213896820D01*
X126056059Y-214039677D01*
X126127488Y-214182534D01*
X126198916Y-214468248D01*
X126198916Y-214682534D01*
X126127488Y-214968248D01*
X126056059Y-215111105D01*
X125913202Y-215253962D01*
X125698916Y-215325391D01*
X125556059Y-215325391D01*
X125341773Y-215253962D01*
X125270345Y-215182534D01*
X125270345Y-214682534D01*
X125556059Y-214682534D01*
X128948916Y-213725391D02*
X129663202Y-213725391D01*
X129734631Y-214439677D01*
X129663202Y-214368248D01*
X129520345Y-214296820D01*
X129163202Y-214296820D01*
X129020345Y-214368248D01*
X128948916Y-214439677D01*
X128877488Y-214582534D01*
X128877488Y-214939677D01*
X128948916Y-215082534D01*
X129020345Y-215153962D01*
X129163202Y-215225391D01*
X129520345Y-215225391D01*
X129663202Y-215153962D01*
X129734631Y-215082534D01*
X128377488Y-214225391D02*
X128020345Y-215225391D01*
X127663202Y-214225391D01*
X198008173Y-197096820D02*
X198151031Y-197025391D01*
X198365316Y-197025391D01*
X198579602Y-197096820D01*
X198722459Y-197239677D01*
X198793888Y-197382534D01*
X198865316Y-197668248D01*
X198865316Y-197882534D01*
X198793888Y-198168248D01*
X198722459Y-198311105D01*
X198579602Y-198453962D01*
X198365316Y-198525391D01*
X198222459Y-198525391D01*
X198008173Y-198453962D01*
X197936745Y-198382534D01*
X197936745Y-197882534D01*
X198222459Y-197882534D01*
X192008173Y-197096820D02*
X192151031Y-197025391D01*
X192365316Y-197025391D01*
X192579602Y-197096820D01*
X192722459Y-197239677D01*
X192793888Y-197382534D01*
X192865316Y-197668248D01*
X192865316Y-197882534D01*
X192793888Y-198168248D01*
X192722459Y-198311105D01*
X192579602Y-198453962D01*
X192365316Y-198525391D01*
X192222459Y-198525391D01*
X192008173Y-198453962D01*
X191936745Y-198382534D01*
X191936745Y-197882534D01*
X192222459Y-197882534D01*
X195615316Y-196925391D02*
X196329602Y-196925391D01*
X196401031Y-197639677D01*
X196329602Y-197568248D01*
X196186745Y-197496820D01*
X195829602Y-197496820D01*
X195686745Y-197568248D01*
X195615316Y-197639677D01*
X195543888Y-197782534D01*
X195543888Y-198139677D01*
X195615316Y-198282534D01*
X195686745Y-198353962D01*
X195829602Y-198425391D01*
X196186745Y-198425391D01*
X196329602Y-198353962D01*
X196401031Y-198282534D01*
X195043888Y-197425391D02*
X194686745Y-198425391D01*
X194329602Y-197425391D01*
D13*
X77586916Y-202162391D02*
X78301202Y-202162391D01*
X78372631Y-202876677D01*
X78301202Y-202805248D01*
X78158345Y-202733820D01*
X77801202Y-202733820D01*
X77658345Y-202805248D01*
X77586916Y-202876677D01*
X77515488Y-203019534D01*
X77515488Y-203376677D01*
X77586916Y-203519534D01*
X77658345Y-203590962D01*
X77801202Y-203662391D01*
X78158345Y-203662391D01*
X78301202Y-203590962D01*
X78372631Y-203519534D01*
X77015488Y-202662391D02*
X76658345Y-203662391D01*
X76301202Y-202662391D01*
X77415488Y-208633820D02*
X77558345Y-208562391D01*
X77772631Y-208562391D01*
X77986916Y-208633820D01*
X78129773Y-208776677D01*
X78201202Y-208919534D01*
X78272631Y-209205248D01*
X78272631Y-209419534D01*
X78201202Y-209705248D01*
X78129773Y-209848105D01*
X77986916Y-209990962D01*
X77772631Y-210062391D01*
X77629773Y-210062391D01*
X77415488Y-209990962D01*
X77344059Y-209919534D01*
X77344059Y-209419534D01*
X77629773Y-209419534D01*
X76701202Y-210062391D02*
X76701202Y-208562391D01*
X75844059Y-210062391D01*
X75844059Y-208562391D01*
X75129773Y-210062391D02*
X75129773Y-208562391D01*
X74772631Y-208562391D01*
X74558345Y-208633820D01*
X74415488Y-208776677D01*
X74344059Y-208919534D01*
X74272631Y-209205248D01*
X74272631Y-209419534D01*
X74344059Y-209705248D01*
X74415488Y-209848105D01*
X74558345Y-209990962D01*
X74772631Y-210062391D01*
X75129773Y-210062391D01*
X78235726Y-207094534D02*
X78057154Y-207154058D01*
X77997631Y-207213581D01*
X77938107Y-207332629D01*
X77938107Y-207511200D01*
X77997631Y-207630248D01*
X78057154Y-207689772D01*
X78176202Y-207749296D01*
X78652392Y-207749296D01*
X78652392Y-206499296D01*
X78235726Y-206499296D01*
X78116678Y-206558820D01*
X78057154Y-206618343D01*
X77997631Y-206737391D01*
X77997631Y-206856439D01*
X78057154Y-206975486D01*
X78116678Y-207035010D01*
X78235726Y-207094534D01*
X78652392Y-207094534D01*
X77402392Y-207749296D02*
X77402392Y-206499296D01*
X76807154Y-207749296D02*
X76807154Y-206499296D01*
X76092869Y-207749296D01*
X76092869Y-206499296D01*
X78652392Y-205649296D02*
X78652392Y-204399296D01*
X78354773Y-204399296D01*
X78176202Y-204458820D01*
X78057154Y-204577867D01*
X77997631Y-204696915D01*
X77938107Y-204935010D01*
X77938107Y-205113581D01*
X77997631Y-205351677D01*
X78057154Y-205470724D01*
X78176202Y-205589772D01*
X78354773Y-205649296D01*
X78652392Y-205649296D01*
X77402392Y-205649296D02*
X77402392Y-204399296D01*
X76807154Y-205649296D02*
X76807154Y-204399296D01*
X76092869Y-205649296D01*
X76092869Y-204399296D01*
D14*
X370822631Y-206833820D02*
X372822631Y-205833820D01*
X367822631Y-205833820D02*
X372822631Y-205833820D01*
X370822631Y-204833820D02*
X372822631Y-205833820D01*
X70372631Y-206183820D02*
X75372631Y-206183820D01*
X73372631Y-205183820D02*
X75372631Y-206183820D01*
X73372631Y-207183820D02*
X75372631Y-206183820D01*
D10*
X372716488Y-199295534D02*
X371716488Y-199295534D01*
X371287916Y-200866962D02*
X372716488Y-200866962D01*
X372716488Y-197866962D01*
X371287916Y-197866962D01*
D11*
X356815488Y-202036200D02*
X357291678Y-202036200D01*
X357339297Y-202512391D01*
X357291678Y-202464772D01*
X357196440Y-202417153D01*
X356958345Y-202417153D01*
X356863107Y-202464772D01*
X356815488Y-202512391D01*
X356767869Y-202607629D01*
X356767869Y-202845724D01*
X356815488Y-202940962D01*
X356863107Y-202988581D01*
X356958345Y-203036200D01*
X357196440Y-203036200D01*
X357291678Y-202988581D01*
X357339297Y-202940962D01*
X356434535Y-202369534D02*
X356196440Y-203036200D01*
X355958345Y-202369534D01*
D10*
X69069488Y-199218534D02*
X68069488Y-199218534D01*
X67640916Y-200789962D02*
X69069488Y-200789962D01*
X69069488Y-197789962D01*
X67640916Y-197789962D01*
D13*
X359860216Y-77128316D02*
X359919740Y-77187840D01*
X360098311Y-77247364D01*
X360217359Y-77247364D01*
X360395930Y-77187840D01*
X360514978Y-77068792D01*
X360574502Y-76949745D01*
X360634025Y-76711649D01*
X360634025Y-76533078D01*
X360574502Y-76294983D01*
X360514978Y-76175935D01*
X360395930Y-76056888D01*
X360217359Y-75997364D01*
X360098311Y-75997364D01*
X359919740Y-76056888D01*
X359860216Y-76116411D01*
X358431645Y-75937840D02*
X359503073Y-77544983D01*
X357776883Y-75997364D02*
X357538787Y-75997364D01*
X357419740Y-76056888D01*
X357300692Y-76175935D01*
X357241168Y-76414030D01*
X357241168Y-76830697D01*
X357300692Y-77068792D01*
X357419740Y-77187840D01*
X357538787Y-77247364D01*
X357776883Y-77247364D01*
X357895930Y-77187840D01*
X358014978Y-77068792D01*
X358074502Y-76830697D01*
X358074502Y-76414030D01*
X358014978Y-76175935D01*
X357895930Y-76056888D01*
X357776883Y-75997364D01*
X355336406Y-76592602D02*
X355157835Y-76652126D01*
X355098311Y-76711649D01*
X355038787Y-76830697D01*
X355038787Y-77009268D01*
X355098311Y-77128316D01*
X355157835Y-77187840D01*
X355276883Y-77247364D01*
X355753073Y-77247364D01*
X355753073Y-75997364D01*
X355336406Y-75997364D01*
X355217359Y-76056888D01*
X355157835Y-76116411D01*
X355098311Y-76235459D01*
X355098311Y-76354507D01*
X355157835Y-76473554D01*
X355217359Y-76533078D01*
X355336406Y-76592602D01*
X355753073Y-76592602D01*
X354264978Y-75997364D02*
X354026883Y-75997364D01*
X353907835Y-76056888D01*
X353788787Y-76175935D01*
X353729264Y-76414030D01*
X353729264Y-76830697D01*
X353788787Y-77068792D01*
X353907835Y-77187840D01*
X354026883Y-77247364D01*
X354264978Y-77247364D01*
X354384025Y-77187840D01*
X354503073Y-77068792D01*
X354562597Y-76830697D01*
X354562597Y-76414030D01*
X354503073Y-76175935D01*
X354384025Y-76056888D01*
X354264978Y-75997364D01*
X359860216Y-75028316D02*
X359919740Y-75087840D01*
X360098311Y-75147364D01*
X360217359Y-75147364D01*
X360395930Y-75087840D01*
X360514978Y-74968792D01*
X360574502Y-74849745D01*
X360634025Y-74611649D01*
X360634025Y-74433078D01*
X360574502Y-74194983D01*
X360514978Y-74075935D01*
X360395930Y-73956888D01*
X360217359Y-73897364D01*
X360098311Y-73897364D01*
X359919740Y-73956888D01*
X359860216Y-74016411D01*
X358431645Y-73837840D02*
X359503073Y-75444983D01*
X357776883Y-73897364D02*
X357538787Y-73897364D01*
X357419740Y-73956888D01*
X357300692Y-74075935D01*
X357241168Y-74314030D01*
X357241168Y-74730697D01*
X357300692Y-74968792D01*
X357419740Y-75087840D01*
X357538787Y-75147364D01*
X357776883Y-75147364D01*
X357895930Y-75087840D01*
X358014978Y-74968792D01*
X358074502Y-74730697D01*
X358074502Y-74314030D01*
X358014978Y-74075935D01*
X357895930Y-73956888D01*
X357776883Y-73897364D01*
X355753073Y-75147364D02*
X355753073Y-73897364D01*
X355455454Y-73897364D01*
X355276883Y-73956888D01*
X355157835Y-74075935D01*
X355098311Y-74194983D01*
X355038787Y-74433078D01*
X355038787Y-74611649D01*
X355098311Y-74849745D01*
X355157835Y-74968792D01*
X355276883Y-75087840D01*
X355455454Y-75147364D01*
X355753073Y-75147364D01*
X354264978Y-73897364D02*
X354026883Y-73897364D01*
X353907835Y-73956888D01*
X353788787Y-74075935D01*
X353729264Y-74314030D01*
X353729264Y-74730697D01*
X353788787Y-74968792D01*
X353907835Y-75087840D01*
X354026883Y-75147364D01*
X354264978Y-75147364D01*
X354384025Y-75087840D01*
X354503073Y-74968792D01*
X354562597Y-74730697D01*
X354562597Y-74314030D01*
X354503073Y-74075935D01*
X354384025Y-73956888D01*
X354264978Y-73897364D01*
D11*
X105574137Y-83737745D02*
X105621756Y-83690126D01*
X105764613Y-83642507D01*
X105859851Y-83642507D01*
X106002708Y-83690126D01*
X106097946Y-83785364D01*
X106145565Y-83880602D01*
X106193185Y-84071078D01*
X106193185Y-84213935D01*
X106145565Y-84404411D01*
X106097946Y-84499649D01*
X106002708Y-84594888D01*
X105859851Y-84642507D01*
X105764613Y-84642507D01*
X105621756Y-84594888D01*
X105574137Y-84547268D01*
X104431280Y-84690126D02*
X105288423Y-83404411D01*
X103907470Y-84642507D02*
X103716994Y-84642507D01*
X103621756Y-84594888D01*
X103526518Y-84499649D01*
X103478899Y-84309173D01*
X103478899Y-83975840D01*
X103526518Y-83785364D01*
X103621756Y-83690126D01*
X103716994Y-83642507D01*
X103907470Y-83642507D01*
X104002708Y-83690126D01*
X104097946Y-83785364D01*
X104145565Y-83975840D01*
X104145565Y-84309173D01*
X104097946Y-84499649D01*
X104002708Y-84594888D01*
X103907470Y-84642507D01*
X102288423Y-83642507D02*
X102288423Y-84642507D01*
X101812232Y-83642507D02*
X101812232Y-84642507D01*
X101240804Y-83642507D01*
X101240804Y-84642507D01*
D10*
X75777899Y-70598030D02*
X75777899Y-67598030D01*
X75063613Y-67598030D01*
X74635042Y-67740888D01*
X74349327Y-68026602D01*
X74206470Y-68312316D01*
X74063613Y-68883745D01*
X74063613Y-69312316D01*
X74206470Y-69883745D01*
X74349327Y-70169459D01*
X74635042Y-70455173D01*
X75063613Y-70598030D01*
X75777899Y-70598030D01*
D11*
X334898073Y-67423459D02*
X335040930Y-67471078D01*
X335088549Y-67518697D01*
X335136168Y-67613935D01*
X335136168Y-67756792D01*
X335088549Y-67852030D01*
X335040930Y-67899649D01*
X334945692Y-67947268D01*
X334564740Y-67947268D01*
X334564740Y-66947268D01*
X334898073Y-66947268D01*
X334993311Y-66994888D01*
X335040930Y-67042507D01*
X335088549Y-67137745D01*
X335088549Y-67232983D01*
X335040930Y-67328221D01*
X334993311Y-67375840D01*
X334898073Y-67423459D01*
X334564740Y-67423459D01*
X339398073Y-67423459D02*
X339540930Y-67471078D01*
X339588549Y-67518697D01*
X339636168Y-67613935D01*
X339636168Y-67756792D01*
X339588549Y-67852030D01*
X339540930Y-67899649D01*
X339445692Y-67947268D01*
X339064740Y-67947268D01*
X339064740Y-66947268D01*
X339398073Y-66947268D01*
X339493311Y-66994888D01*
X339540930Y-67042507D01*
X339588549Y-67137745D01*
X339588549Y-67232983D01*
X339540930Y-67328221D01*
X339493311Y-67375840D01*
X339398073Y-67423459D01*
X339064740Y-67423459D01*
X336340930Y-67947268D02*
X336340930Y-66947268D01*
X336579025Y-66947268D01*
X336721883Y-66994888D01*
X336817121Y-67090126D01*
X336864740Y-67185364D01*
X336912359Y-67375840D01*
X336912359Y-67518697D01*
X336864740Y-67709173D01*
X336817121Y-67804411D01*
X336721883Y-67899649D01*
X336579025Y-67947268D01*
X336340930Y-67947268D01*
X337531406Y-66947268D02*
X337721883Y-66947268D01*
X337817121Y-66994888D01*
X337912359Y-67090126D01*
X337959978Y-67280602D01*
X337959978Y-67613935D01*
X337912359Y-67804411D01*
X337817121Y-67899649D01*
X337721883Y-67947268D01*
X337531406Y-67947268D01*
X337436168Y-67899649D01*
X337340930Y-67804411D01*
X337293311Y-67613935D01*
X337293311Y-67280602D01*
X337340930Y-67090126D01*
X337436168Y-66994888D01*
X337531406Y-66947268D01*
D13*
X354995930Y-71660459D02*
X355710216Y-71660459D01*
X355781645Y-72374745D01*
X355710216Y-72303316D01*
X355567359Y-72231888D01*
X355210216Y-72231888D01*
X355067359Y-72303316D01*
X354995930Y-72374745D01*
X354924502Y-72517602D01*
X354924502Y-72874745D01*
X354995930Y-73017602D01*
X355067359Y-73089030D01*
X355210216Y-73160459D01*
X355567359Y-73160459D01*
X355710216Y-73089030D01*
X355781645Y-73017602D01*
X354424502Y-72160459D02*
X354067359Y-73160459D01*
X353710216Y-72160459D01*
X356824502Y-78381888D02*
X356967359Y-78310459D01*
X357181645Y-78310459D01*
X357395930Y-78381888D01*
X357538787Y-78524745D01*
X357610216Y-78667602D01*
X357681645Y-78953316D01*
X357681645Y-79167602D01*
X357610216Y-79453316D01*
X357538787Y-79596173D01*
X357395930Y-79739030D01*
X357181645Y-79810459D01*
X357038787Y-79810459D01*
X356824502Y-79739030D01*
X356753073Y-79667602D01*
X356753073Y-79167602D01*
X357038787Y-79167602D01*
X356110216Y-79810459D02*
X356110216Y-78310459D01*
X355253073Y-79810459D01*
X355253073Y-78310459D01*
X354538787Y-79810459D02*
X354538787Y-78310459D01*
X354181645Y-78310459D01*
X353967359Y-78381888D01*
X353824502Y-78524745D01*
X353753073Y-78667602D01*
X353681645Y-78953316D01*
X353681645Y-79167602D01*
X353753073Y-79453316D01*
X353824502Y-79596173D01*
X353967359Y-79739030D01*
X354181645Y-79810459D01*
X354538787Y-79810459D01*
D10*
X306367187Y-66844888D02*
X306510045Y-66773459D01*
X306724330Y-66773459D01*
X306938616Y-66844888D01*
X307081473Y-66987745D01*
X307152902Y-67130602D01*
X307224330Y-67416316D01*
X307224330Y-67630602D01*
X307152902Y-67916316D01*
X307081473Y-68059173D01*
X306938616Y-68202030D01*
X306724330Y-68273459D01*
X306581473Y-68273459D01*
X306367187Y-68202030D01*
X306295759Y-68130602D01*
X306295759Y-67630602D01*
X306581473Y-67630602D01*
X250367327Y-83544888D02*
X250510185Y-83473459D01*
X250724470Y-83473459D01*
X250938756Y-83544888D01*
X251081613Y-83687745D01*
X251153042Y-83830602D01*
X251224470Y-84116316D01*
X251224470Y-84330602D01*
X251153042Y-84616316D01*
X251081613Y-84759173D01*
X250938756Y-84902030D01*
X250724470Y-84973459D01*
X250581613Y-84973459D01*
X250367327Y-84902030D01*
X250295899Y-84830602D01*
X250295899Y-84330602D01*
X250581613Y-84330602D01*
X300367187Y-66844888D02*
X300510045Y-66773459D01*
X300724330Y-66773459D01*
X300938616Y-66844888D01*
X301081473Y-66987745D01*
X301152902Y-67130602D01*
X301224330Y-67416316D01*
X301224330Y-67630602D01*
X301152902Y-67916316D01*
X301081473Y-68059173D01*
X300938616Y-68202030D01*
X300724330Y-68273459D01*
X300581473Y-68273459D01*
X300367187Y-68202030D01*
X300295759Y-68130602D01*
X300295759Y-67630602D01*
X300581473Y-67630602D01*
X253974470Y-83373459D02*
X254688756Y-83373459D01*
X254760185Y-84087745D01*
X254688756Y-84016316D01*
X254545899Y-83944888D01*
X254188756Y-83944888D01*
X254045899Y-84016316D01*
X253974470Y-84087745D01*
X253903042Y-84230602D01*
X253903042Y-84587745D01*
X253974470Y-84730602D01*
X254045899Y-84802030D01*
X254188756Y-84873459D01*
X254545899Y-84873459D01*
X254688756Y-84802030D01*
X254760185Y-84730602D01*
X253403042Y-83873459D02*
X253045899Y-84873459D01*
X252688756Y-83873459D01*
X256367327Y-83544888D02*
X256510185Y-83473459D01*
X256724470Y-83473459D01*
X256938756Y-83544888D01*
X257081613Y-83687745D01*
X257153042Y-83830602D01*
X257224470Y-84116316D01*
X257224470Y-84330602D01*
X257153042Y-84616316D01*
X257081613Y-84759173D01*
X256938756Y-84902030D01*
X256724470Y-84973459D01*
X256581613Y-84973459D01*
X256367327Y-84902030D01*
X256295899Y-84830602D01*
X256295899Y-84330602D01*
X256581613Y-84330602D01*
X303974330Y-66673459D02*
X304688616Y-66673459D01*
X304760045Y-67387745D01*
X304688616Y-67316316D01*
X304545759Y-67244888D01*
X304188616Y-67244888D01*
X304045759Y-67316316D01*
X303974330Y-67387745D01*
X303902902Y-67530602D01*
X303902902Y-67887745D01*
X303974330Y-68030602D01*
X304045759Y-68102030D01*
X304188616Y-68173459D01*
X304545759Y-68173459D01*
X304688616Y-68102030D01*
X304760045Y-68030602D01*
X303402902Y-67173459D02*
X303045759Y-68173459D01*
X302688616Y-67173459D01*
D11*
X339255216Y-76552030D02*
X339302835Y-76409173D01*
X339350454Y-76361554D01*
X339445692Y-76313935D01*
X339588549Y-76313935D01*
X339683787Y-76361554D01*
X339731406Y-76409173D01*
X339779025Y-76504411D01*
X339779025Y-76885364D01*
X338779025Y-76885364D01*
X338779025Y-76552030D01*
X338826645Y-76456792D01*
X338874264Y-76409173D01*
X338969502Y-76361554D01*
X339064740Y-76361554D01*
X339159978Y-76409173D01*
X339207597Y-76456792D01*
X339255216Y-76552030D01*
X339255216Y-76885364D01*
X338779025Y-75694888D02*
X338779025Y-75504411D01*
X338826645Y-75409173D01*
X338921883Y-75313935D01*
X339112359Y-75266316D01*
X339445692Y-75266316D01*
X339636168Y-75313935D01*
X339731406Y-75409173D01*
X339779025Y-75504411D01*
X339779025Y-75694888D01*
X339731406Y-75790126D01*
X339636168Y-75885364D01*
X339445692Y-75932983D01*
X339112359Y-75932983D01*
X338921883Y-75885364D01*
X338826645Y-75790126D01*
X338779025Y-75694888D01*
X338779025Y-74837745D02*
X339588549Y-74837745D01*
X339683787Y-74790126D01*
X339731406Y-74742507D01*
X339779025Y-74647268D01*
X339779025Y-74456792D01*
X339731406Y-74361554D01*
X339683787Y-74313935D01*
X339588549Y-74266316D01*
X338779025Y-74266316D01*
X338779025Y-73932983D02*
X338779025Y-73361554D01*
X339779025Y-73647268D02*
X338779025Y-73647268D01*
X334755216Y-76552030D02*
X334802835Y-76409173D01*
X334850454Y-76361554D01*
X334945692Y-76313935D01*
X335088549Y-76313935D01*
X335183787Y-76361554D01*
X335231406Y-76409173D01*
X335279025Y-76504411D01*
X335279025Y-76885364D01*
X334279025Y-76885364D01*
X334279025Y-76552030D01*
X334326645Y-76456792D01*
X334374264Y-76409173D01*
X334469502Y-76361554D01*
X334564740Y-76361554D01*
X334659978Y-76409173D01*
X334707597Y-76456792D01*
X334755216Y-76552030D01*
X334755216Y-76885364D01*
X334279025Y-75694888D02*
X334279025Y-75504411D01*
X334326645Y-75409173D01*
X334421883Y-75313935D01*
X334612359Y-75266316D01*
X334945692Y-75266316D01*
X335136168Y-75313935D01*
X335231406Y-75409173D01*
X335279025Y-75504411D01*
X335279025Y-75694888D01*
X335231406Y-75790126D01*
X335136168Y-75885364D01*
X334945692Y-75932983D01*
X334612359Y-75932983D01*
X334421883Y-75885364D01*
X334326645Y-75790126D01*
X334279025Y-75694888D01*
X334279025Y-74837745D02*
X335088549Y-74837745D01*
X335183787Y-74790126D01*
X335231406Y-74742507D01*
X335279025Y-74647268D01*
X335279025Y-74456792D01*
X335231406Y-74361554D01*
X335183787Y-74313935D01*
X335088549Y-74266316D01*
X334279025Y-74266316D01*
X334279025Y-73932983D02*
X334279025Y-73361554D01*
X335279025Y-73647268D02*
X334279025Y-73647268D01*
X337579025Y-76885364D02*
X336579025Y-76885364D01*
X336579025Y-76647268D01*
X336626645Y-76504411D01*
X336721883Y-76409173D01*
X336817121Y-76361554D01*
X337007597Y-76313935D01*
X337150454Y-76313935D01*
X337340930Y-76361554D01*
X337436168Y-76409173D01*
X337531406Y-76504411D01*
X337579025Y-76647268D01*
X337579025Y-76885364D01*
X336579025Y-75694888D02*
X336579025Y-75504411D01*
X336626645Y-75409173D01*
X336721883Y-75313935D01*
X336912359Y-75266316D01*
X337245692Y-75266316D01*
X337436168Y-75313935D01*
X337531406Y-75409173D01*
X337579025Y-75504411D01*
X337579025Y-75694888D01*
X337531406Y-75790126D01*
X337436168Y-75885364D01*
X337245692Y-75932983D01*
X336912359Y-75932983D01*
X336721883Y-75885364D01*
X336626645Y-75790126D01*
X336579025Y-75694888D01*
X336579025Y-74837745D02*
X337388549Y-74837745D01*
X337483787Y-74790126D01*
X337531406Y-74742507D01*
X337579025Y-74647268D01*
X337579025Y-74456792D01*
X337531406Y-74361554D01*
X337483787Y-74313935D01*
X337388549Y-74266316D01*
X336579025Y-74266316D01*
X336579025Y-73932983D02*
X336579025Y-73361554D01*
X337579025Y-73647268D02*
X336579025Y-73647268D01*
D10*
X139667327Y-83644888D02*
X139810185Y-83573459D01*
X140024470Y-83573459D01*
X140238756Y-83644888D01*
X140381613Y-83787745D01*
X140453042Y-83930602D01*
X140524470Y-84216316D01*
X140524470Y-84430602D01*
X140453042Y-84716316D01*
X140381613Y-84859173D01*
X140238756Y-85002030D01*
X140024470Y-85073459D01*
X139881613Y-85073459D01*
X139667327Y-85002030D01*
X139595899Y-84930602D01*
X139595899Y-84430602D01*
X139881613Y-84430602D01*
X133667327Y-83644888D02*
X133810185Y-83573459D01*
X134024470Y-83573459D01*
X134238756Y-83644888D01*
X134381613Y-83787745D01*
X134453042Y-83930602D01*
X134524470Y-84216316D01*
X134524470Y-84430602D01*
X134453042Y-84716316D01*
X134381613Y-84859173D01*
X134238756Y-85002030D01*
X134024470Y-85073459D01*
X133881613Y-85073459D01*
X133667327Y-85002030D01*
X133595899Y-84930602D01*
X133595899Y-84430602D01*
X133881613Y-84430602D01*
X137274470Y-83473459D02*
X137988756Y-83473459D01*
X138060185Y-84187745D01*
X137988756Y-84116316D01*
X137845899Y-84044888D01*
X137488756Y-84044888D01*
X137345899Y-84116316D01*
X137274470Y-84187745D01*
X137203042Y-84330602D01*
X137203042Y-84687745D01*
X137274470Y-84830602D01*
X137345899Y-84902030D01*
X137488756Y-84973459D01*
X137845899Y-84973459D01*
X137988756Y-84902030D01*
X138060185Y-84830602D01*
X136703042Y-83973459D02*
X136345899Y-84973459D01*
X135988756Y-83973459D01*
X189667187Y-66844888D02*
X189810045Y-66773459D01*
X190024330Y-66773459D01*
X190238616Y-66844888D01*
X190381473Y-66987745D01*
X190452902Y-67130602D01*
X190524330Y-67416316D01*
X190524330Y-67630602D01*
X190452902Y-67916316D01*
X190381473Y-68059173D01*
X190238616Y-68202030D01*
X190024330Y-68273459D01*
X189881473Y-68273459D01*
X189667187Y-68202030D01*
X189595759Y-68130602D01*
X189595759Y-67630602D01*
X189881473Y-67630602D01*
X183667187Y-66844888D02*
X183810045Y-66773459D01*
X184024330Y-66773459D01*
X184238616Y-66844888D01*
X184381473Y-66987745D01*
X184452902Y-67130602D01*
X184524330Y-67416316D01*
X184524330Y-67630602D01*
X184452902Y-67916316D01*
X184381473Y-68059173D01*
X184238616Y-68202030D01*
X184024330Y-68273459D01*
X183881473Y-68273459D01*
X183667187Y-68202030D01*
X183595759Y-68130602D01*
X183595759Y-67630602D01*
X183881473Y-67630602D01*
X187274330Y-66673459D02*
X187988616Y-66673459D01*
X188060045Y-67387745D01*
X187988616Y-67316316D01*
X187845759Y-67244888D01*
X187488616Y-67244888D01*
X187345759Y-67316316D01*
X187274330Y-67387745D01*
X187202902Y-67530602D01*
X187202902Y-67887745D01*
X187274330Y-68030602D01*
X187345759Y-68102030D01*
X187488616Y-68173459D01*
X187845759Y-68173459D01*
X187988616Y-68102030D01*
X188060045Y-68030602D01*
X186702902Y-67173459D02*
X186345759Y-68173459D01*
X185988616Y-67173459D01*
D13*
X85912470Y-71910459D02*
X86626756Y-71910459D01*
X86698185Y-72624745D01*
X86626756Y-72553316D01*
X86483899Y-72481888D01*
X86126756Y-72481888D01*
X85983899Y-72553316D01*
X85912470Y-72624745D01*
X85841042Y-72767602D01*
X85841042Y-73124745D01*
X85912470Y-73267602D01*
X85983899Y-73339030D01*
X86126756Y-73410459D01*
X86483899Y-73410459D01*
X86626756Y-73339030D01*
X86698185Y-73267602D01*
X85341042Y-72410459D02*
X84983899Y-73410459D01*
X84626756Y-72410459D01*
X85741042Y-78381888D02*
X85883899Y-78310459D01*
X86098185Y-78310459D01*
X86312470Y-78381888D01*
X86455327Y-78524745D01*
X86526756Y-78667602D01*
X86598185Y-78953316D01*
X86598185Y-79167602D01*
X86526756Y-79453316D01*
X86455327Y-79596173D01*
X86312470Y-79739030D01*
X86098185Y-79810459D01*
X85955327Y-79810459D01*
X85741042Y-79739030D01*
X85669613Y-79667602D01*
X85669613Y-79167602D01*
X85955327Y-79167602D01*
X85026756Y-79810459D02*
X85026756Y-78310459D01*
X84169613Y-79810459D01*
X84169613Y-78310459D01*
X83455327Y-79810459D02*
X83455327Y-78310459D01*
X83098185Y-78310459D01*
X82883899Y-78381888D01*
X82741042Y-78524745D01*
X82669613Y-78667602D01*
X82598185Y-78953316D01*
X82598185Y-79167602D01*
X82669613Y-79453316D01*
X82741042Y-79596173D01*
X82883899Y-79739030D01*
X83098185Y-79810459D01*
X83455327Y-79810459D01*
X86561280Y-76842602D02*
X86382708Y-76902126D01*
X86323185Y-76961649D01*
X86263661Y-77080697D01*
X86263661Y-77259268D01*
X86323185Y-77378316D01*
X86382708Y-77437840D01*
X86501756Y-77497364D01*
X86977946Y-77497364D01*
X86977946Y-76247364D01*
X86561280Y-76247364D01*
X86442232Y-76306888D01*
X86382708Y-76366411D01*
X86323185Y-76485459D01*
X86323185Y-76604507D01*
X86382708Y-76723554D01*
X86442232Y-76783078D01*
X86561280Y-76842602D01*
X86977946Y-76842602D01*
X85727946Y-77497364D02*
X85727946Y-76247364D01*
X85132708Y-77497364D02*
X85132708Y-76247364D01*
X84418423Y-77497364D01*
X84418423Y-76247364D01*
X86977946Y-75397364D02*
X86977946Y-74147364D01*
X86680327Y-74147364D01*
X86501756Y-74206888D01*
X86382708Y-74325935D01*
X86323185Y-74444983D01*
X86263661Y-74683078D01*
X86263661Y-74861649D01*
X86323185Y-75099745D01*
X86382708Y-75218792D01*
X86501756Y-75337840D01*
X86680327Y-75397364D01*
X86977946Y-75397364D01*
X85727946Y-75397364D02*
X85727946Y-74147364D01*
X85132708Y-75397364D02*
X85132708Y-74147364D01*
X84418423Y-75397364D01*
X84418423Y-74147364D01*
D14*
X364648185Y-76481888D02*
X366648185Y-75481888D01*
X361648185Y-75481888D02*
X366648185Y-75481888D01*
X364648185Y-74481888D02*
X366648185Y-75481888D01*
X78698185Y-75931888D02*
X83698185Y-75931888D01*
X81698185Y-74931888D02*
X83698185Y-75931888D01*
X81698185Y-76931888D02*
X83698185Y-75931888D01*
D11*
X318614156Y-220059271D02*
X318471299Y-220106890D01*
X318423680Y-220154509D01*
X318376061Y-220249747D01*
X318376061Y-220392604D01*
X318423680Y-220487842D01*
X318471299Y-220535461D01*
X318566537Y-220583080D01*
X318947490Y-220583080D01*
X318947490Y-219583080D01*
X318614156Y-219583080D01*
X318518918Y-219630700D01*
X318471299Y-219678319D01*
X318423680Y-219773557D01*
X318423680Y-219868795D01*
X318471299Y-219964033D01*
X318518918Y-220011652D01*
X318614156Y-220059271D01*
X318947490Y-220059271D01*
X317757014Y-219583080D02*
X317566537Y-219583080D01*
X317471299Y-219630700D01*
X317376061Y-219725938D01*
X317328442Y-219916414D01*
X317328442Y-220249747D01*
X317376061Y-220440223D01*
X317471299Y-220535461D01*
X317566537Y-220583080D01*
X317757014Y-220583080D01*
X317852252Y-220535461D01*
X317947490Y-220440223D01*
X317995109Y-220249747D01*
X317995109Y-219916414D01*
X317947490Y-219725938D01*
X317852252Y-219630700D01*
X317757014Y-219583080D01*
X321147490Y-220583080D02*
X321147490Y-219583080D01*
X320909395Y-219583080D01*
X320766537Y-219630700D01*
X320671299Y-219725938D01*
X320623680Y-219821176D01*
X320576061Y-220011652D01*
X320576061Y-220154509D01*
X320623680Y-220344985D01*
X320671299Y-220440223D01*
X320766537Y-220535461D01*
X320909395Y-220583080D01*
X321147490Y-220583080D01*
X319957014Y-219583080D02*
X319766537Y-219583080D01*
X319671299Y-219630700D01*
X319576061Y-219725938D01*
X319528442Y-219916414D01*
X319528442Y-220249747D01*
X319576061Y-220440223D01*
X319671299Y-220535461D01*
X319766537Y-220583080D01*
X319957014Y-220583080D01*
X320052252Y-220535461D01*
X320147490Y-220440223D01*
X320195109Y-220249747D01*
X320195109Y-219916414D01*
X320147490Y-219725938D01*
X320052252Y-219630700D01*
X319957014Y-219583080D01*
X323114156Y-220059271D02*
X322971299Y-220106890D01*
X322923680Y-220154509D01*
X322876061Y-220249747D01*
X322876061Y-220392604D01*
X322923680Y-220487842D01*
X322971299Y-220535461D01*
X323066537Y-220583080D01*
X323447490Y-220583080D01*
X323447490Y-219583080D01*
X323114156Y-219583080D01*
X323018918Y-219630700D01*
X322971299Y-219678319D01*
X322923680Y-219773557D01*
X322923680Y-219868795D01*
X322971299Y-219964033D01*
X323018918Y-220011652D01*
X323114156Y-220059271D01*
X323447490Y-220059271D01*
X322257014Y-219583080D02*
X322066537Y-219583080D01*
X321971299Y-219630700D01*
X321876061Y-219725938D01*
X321828442Y-219916414D01*
X321828442Y-220249747D01*
X321876061Y-220440223D01*
X321971299Y-220535461D01*
X322066537Y-220583080D01*
X322257014Y-220583080D01*
X322352252Y-220535461D01*
X322447490Y-220440223D01*
X322495109Y-220249747D01*
X322495109Y-219916414D01*
X322447490Y-219725938D01*
X322352252Y-219630700D01*
X322257014Y-219583080D01*
X283799871Y-219530700D02*
X283895109Y-219483080D01*
X284037966Y-219483080D01*
X284180823Y-219530700D01*
X284276061Y-219625938D01*
X284323680Y-219721176D01*
X284371299Y-219911652D01*
X284371299Y-220054509D01*
X284323680Y-220244985D01*
X284276061Y-220340223D01*
X284180823Y-220435461D01*
X284037966Y-220483080D01*
X283942728Y-220483080D01*
X283799871Y-220435461D01*
X283752252Y-220387842D01*
X283752252Y-220054509D01*
X283942728Y-220054509D01*
X287204633Y-219483080D02*
X287680823Y-219483080D01*
X287728442Y-219959271D01*
X287680823Y-219911652D01*
X287585585Y-219864033D01*
X287347490Y-219864033D01*
X287252252Y-219911652D01*
X287204633Y-219959271D01*
X287157014Y-220054509D01*
X287157014Y-220292604D01*
X287204633Y-220387842D01*
X287252252Y-220435461D01*
X287347490Y-220483080D01*
X287585585Y-220483080D01*
X287680823Y-220435461D01*
X287728442Y-220387842D01*
X286823680Y-219816414D02*
X286585585Y-220483080D01*
X286347490Y-219816414D01*
X289799871Y-219530700D02*
X289895109Y-219483080D01*
X290037966Y-219483080D01*
X290180823Y-219530700D01*
X290276061Y-219625938D01*
X290323680Y-219721176D01*
X290371299Y-219911652D01*
X290371299Y-220054509D01*
X290323680Y-220244985D01*
X290276061Y-220340223D01*
X290180823Y-220435461D01*
X290037966Y-220483080D01*
X289942728Y-220483080D01*
X289799871Y-220435461D01*
X289752252Y-220387842D01*
X289752252Y-220054509D01*
X289942728Y-220054509D01*
X266999871Y-228530700D02*
X267095109Y-228483080D01*
X267237966Y-228483080D01*
X267380823Y-228530700D01*
X267476061Y-228625938D01*
X267523680Y-228721176D01*
X267571299Y-228911652D01*
X267571299Y-229054509D01*
X267523680Y-229244985D01*
X267476061Y-229340223D01*
X267380823Y-229435461D01*
X267237966Y-229483080D01*
X267142728Y-229483080D01*
X266999871Y-229435461D01*
X266952252Y-229387842D01*
X266952252Y-229054509D01*
X267142728Y-229054509D01*
X270404633Y-228483080D02*
X270880823Y-228483080D01*
X270928442Y-228959271D01*
X270880823Y-228911652D01*
X270785585Y-228864033D01*
X270547490Y-228864033D01*
X270452252Y-228911652D01*
X270404633Y-228959271D01*
X270357014Y-229054509D01*
X270357014Y-229292604D01*
X270404633Y-229387842D01*
X270452252Y-229435461D01*
X270547490Y-229483080D01*
X270785585Y-229483080D01*
X270880823Y-229435461D01*
X270928442Y-229387842D01*
X270023680Y-228816414D02*
X269785585Y-229483080D01*
X269547490Y-228816414D01*
X272999871Y-228530700D02*
X273095109Y-228483080D01*
X273237966Y-228483080D01*
X273380823Y-228530700D01*
X273476061Y-228625938D01*
X273523680Y-228721176D01*
X273571299Y-228911652D01*
X273571299Y-229054509D01*
X273523680Y-229244985D01*
X273476061Y-229340223D01*
X273380823Y-229435461D01*
X273237966Y-229483080D01*
X273142728Y-229483080D01*
X272999871Y-229435461D01*
X272952252Y-229387842D01*
X272952252Y-229054509D01*
X273142728Y-229054509D01*
X153804633Y-228383080D02*
X154280823Y-228383080D01*
X154328442Y-228859271D01*
X154280823Y-228811652D01*
X154185585Y-228764033D01*
X153947490Y-228764033D01*
X153852252Y-228811652D01*
X153804633Y-228859271D01*
X153757014Y-228954509D01*
X153757014Y-229192604D01*
X153804633Y-229287842D01*
X153852252Y-229335461D01*
X153947490Y-229383080D01*
X154185585Y-229383080D01*
X154280823Y-229335461D01*
X154328442Y-229287842D01*
X153423680Y-228716414D02*
X153185585Y-229383080D01*
X152947490Y-228716414D01*
X156399871Y-228430700D02*
X156495109Y-228383080D01*
X156637966Y-228383080D01*
X156780823Y-228430700D01*
X156876061Y-228525938D01*
X156923680Y-228621176D01*
X156971299Y-228811652D01*
X156971299Y-228954509D01*
X156923680Y-229144985D01*
X156876061Y-229240223D01*
X156780823Y-229335461D01*
X156637966Y-229383080D01*
X156542728Y-229383080D01*
X156399871Y-229335461D01*
X156352252Y-229287842D01*
X156352252Y-228954509D01*
X156542728Y-228954509D01*
X150399871Y-228430700D02*
X150495109Y-228383080D01*
X150637966Y-228383080D01*
X150780823Y-228430700D01*
X150876061Y-228525938D01*
X150923680Y-228621176D01*
X150971299Y-228811652D01*
X150971299Y-228954509D01*
X150923680Y-229144985D01*
X150876061Y-229240223D01*
X150780823Y-229335461D01*
X150637966Y-229383080D01*
X150542728Y-229383080D01*
X150399871Y-229335461D01*
X150352252Y-229287842D01*
X150352252Y-228954509D01*
X150542728Y-228954509D01*
X167099871Y-219530700D02*
X167195109Y-219483080D01*
X167337966Y-219483080D01*
X167480823Y-219530700D01*
X167576061Y-219625938D01*
X167623680Y-219721176D01*
X167671299Y-219911652D01*
X167671299Y-220054509D01*
X167623680Y-220244985D01*
X167576061Y-220340223D01*
X167480823Y-220435461D01*
X167337966Y-220483080D01*
X167242728Y-220483080D01*
X167099871Y-220435461D01*
X167052252Y-220387842D01*
X167052252Y-220054509D01*
X167242728Y-220054509D01*
X173099871Y-219530700D02*
X173195109Y-219483080D01*
X173337966Y-219483080D01*
X173480823Y-219530700D01*
X173576061Y-219625938D01*
X173623680Y-219721176D01*
X173671299Y-219911652D01*
X173671299Y-220054509D01*
X173623680Y-220244985D01*
X173576061Y-220340223D01*
X173480823Y-220435461D01*
X173337966Y-220483080D01*
X173242728Y-220483080D01*
X173099871Y-220435461D01*
X173052252Y-220387842D01*
X173052252Y-220054509D01*
X173242728Y-220054509D01*
X170504633Y-219483080D02*
X170980823Y-219483080D01*
X171028442Y-219959271D01*
X170980823Y-219911652D01*
X170885585Y-219864033D01*
X170647490Y-219864033D01*
X170552252Y-219911652D01*
X170504633Y-219959271D01*
X170457014Y-220054509D01*
X170457014Y-220292604D01*
X170504633Y-220387842D01*
X170552252Y-220435461D01*
X170647490Y-220483080D01*
X170885585Y-220483080D01*
X170980823Y-220435461D01*
X171028442Y-220387842D01*
X170123680Y-219816414D02*
X169885585Y-220483080D01*
X169647490Y-219816414D01*
X124005000Y-229089380D02*
X124005000Y-228089380D01*
X123433571Y-229089380D01*
X123433571Y-228089380D01*
X122766904Y-228089380D02*
X122576428Y-228089380D01*
X122481190Y-228137000D01*
X122385952Y-228232238D01*
X122338333Y-228422714D01*
X122338333Y-228756047D01*
X122385952Y-228946523D01*
X122481190Y-229041761D01*
X122576428Y-229089380D01*
X122766904Y-229089380D01*
X122862142Y-229041761D01*
X122957380Y-228946523D01*
X123005000Y-228756047D01*
X123005000Y-228422714D01*
X122957380Y-228232238D01*
X122862142Y-228137000D01*
X122766904Y-228089380D01*
X121909761Y-228708428D02*
X121147857Y-228708428D01*
X120100238Y-228994142D02*
X120147857Y-229041761D01*
X120290714Y-229089380D01*
X120385952Y-229089380D01*
X120528809Y-229041761D01*
X120624047Y-228946523D01*
X120671666Y-228851285D01*
X120719285Y-228660809D01*
X120719285Y-228517952D01*
X120671666Y-228327476D01*
X120624047Y-228232238D01*
X120528809Y-228137000D01*
X120385952Y-228089380D01*
X120290714Y-228089380D01*
X120147857Y-228137000D01*
X120100238Y-228184619D01*
X119481190Y-228089380D02*
X119290714Y-228089380D01*
X119195476Y-228137000D01*
X119100238Y-228232238D01*
X119052619Y-228422714D01*
X119052619Y-228756047D01*
X119100238Y-228946523D01*
X119195476Y-229041761D01*
X119290714Y-229089380D01*
X119481190Y-229089380D01*
X119576428Y-229041761D01*
X119671666Y-228946523D01*
X119719285Y-228756047D01*
X119719285Y-228422714D01*
X119671666Y-228232238D01*
X119576428Y-228137000D01*
X119481190Y-228089380D01*
X118624047Y-229089380D02*
X118624047Y-228089380D01*
X118052619Y-229089380D01*
X118052619Y-228089380D01*
X117576428Y-229089380D02*
X117576428Y-228089380D01*
X117005000Y-229089380D01*
X117005000Y-228089380D01*
D12*
X322690347Y-226227985D02*
X322737966Y-226370842D01*
X322785585Y-226418461D01*
X322880823Y-226466080D01*
X323023680Y-226466080D01*
X323118918Y-226418461D01*
X323166537Y-226370842D01*
X323214156Y-226275604D01*
X323214156Y-225894652D01*
X322214156Y-225894652D01*
X322214156Y-226227985D01*
X322261776Y-226323223D01*
X322309395Y-226370842D01*
X322404633Y-226418461D01*
X322499871Y-226418461D01*
X322595109Y-226370842D01*
X322642728Y-226323223D01*
X322690347Y-226227985D01*
X322690347Y-225894652D01*
X322214156Y-227085128D02*
X322214156Y-227275604D01*
X322261776Y-227370842D01*
X322357014Y-227466080D01*
X322547490Y-227513700D01*
X322880823Y-227513700D01*
X323071299Y-227466080D01*
X323166537Y-227370842D01*
X323214156Y-227275604D01*
X323214156Y-227085128D01*
X323166537Y-226989890D01*
X323071299Y-226894652D01*
X322880823Y-226847033D01*
X322547490Y-226847033D01*
X322357014Y-226894652D01*
X322261776Y-226989890D01*
X322214156Y-227085128D01*
X322214156Y-227942271D02*
X323023680Y-227942271D01*
X323118918Y-227989890D01*
X323166537Y-228037509D01*
X323214156Y-228132747D01*
X323214156Y-228323223D01*
X323166537Y-228418461D01*
X323118918Y-228466080D01*
X323023680Y-228513700D01*
X322214156Y-228513700D01*
X322214156Y-228847033D02*
X322214156Y-229418461D01*
X323214156Y-229132747D02*
X322214156Y-229132747D01*
X353035252Y-226987842D02*
X353082871Y-227035461D01*
X353225728Y-227083080D01*
X353320966Y-227083080D01*
X353463823Y-227035461D01*
X353559061Y-226940223D01*
X353606680Y-226844985D01*
X353654299Y-226654509D01*
X353654299Y-226511652D01*
X353606680Y-226321176D01*
X353559061Y-226225938D01*
X353463823Y-226130700D01*
X353320966Y-226083080D01*
X353225728Y-226083080D01*
X353082871Y-226130700D01*
X353035252Y-226178319D01*
X351892395Y-226035461D02*
X352749537Y-227321176D01*
X351368585Y-226083080D02*
X351178109Y-226083080D01*
X351082871Y-226130700D01*
X350987633Y-226225938D01*
X350940014Y-226416414D01*
X350940014Y-226749747D01*
X350987633Y-226940223D01*
X351082871Y-227035461D01*
X351178109Y-227083080D01*
X351368585Y-227083080D01*
X351463823Y-227035461D01*
X351559061Y-226940223D01*
X351606680Y-226749747D01*
X351606680Y-226416414D01*
X351559061Y-226225938D01*
X351463823Y-226130700D01*
X351368585Y-226083080D01*
X349416204Y-226559271D02*
X349273347Y-226606890D01*
X349225728Y-226654509D01*
X349178109Y-226749747D01*
X349178109Y-226892604D01*
X349225728Y-226987842D01*
X349273347Y-227035461D01*
X349368585Y-227083080D01*
X349749537Y-227083080D01*
X349749537Y-226083080D01*
X349416204Y-226083080D01*
X349320966Y-226130700D01*
X349273347Y-226178319D01*
X349225728Y-226273557D01*
X349225728Y-226368795D01*
X349273347Y-226464033D01*
X349320966Y-226511652D01*
X349416204Y-226559271D01*
X349749537Y-226559271D01*
X348749537Y-227083080D02*
X348749537Y-226083080D01*
X348273347Y-227083080D02*
X348273347Y-226083080D01*
X347701918Y-227083080D01*
X347701918Y-226083080D01*
X353035252Y-228987842D02*
X353082871Y-229035461D01*
X353225728Y-229083080D01*
X353320966Y-229083080D01*
X353463823Y-229035461D01*
X353559061Y-228940223D01*
X353606680Y-228844985D01*
X353654299Y-228654509D01*
X353654299Y-228511652D01*
X353606680Y-228321176D01*
X353559061Y-228225938D01*
X353463823Y-228130700D01*
X353320966Y-228083080D01*
X353225728Y-228083080D01*
X353082871Y-228130700D01*
X353035252Y-228178319D01*
X351892395Y-228035461D02*
X352749537Y-229321176D01*
X351368585Y-228083080D02*
X351178109Y-228083080D01*
X351082871Y-228130700D01*
X350987633Y-228225938D01*
X350940014Y-228416414D01*
X350940014Y-228749747D01*
X350987633Y-228940223D01*
X351082871Y-229035461D01*
X351178109Y-229083080D01*
X351368585Y-229083080D01*
X351463823Y-229035461D01*
X351559061Y-228940223D01*
X351606680Y-228749747D01*
X351606680Y-228416414D01*
X351559061Y-228225938D01*
X351463823Y-228130700D01*
X351368585Y-228083080D01*
X349749537Y-229083080D02*
X349749537Y-228083080D01*
X349511442Y-228083080D01*
X349368585Y-228130700D01*
X349273347Y-228225938D01*
X349225728Y-228321176D01*
X349178109Y-228511652D01*
X349178109Y-228654509D01*
X349225728Y-228844985D01*
X349273347Y-228940223D01*
X349368585Y-229035461D01*
X349511442Y-229083080D01*
X349749537Y-229083080D01*
X348749537Y-229083080D02*
X348749537Y-228083080D01*
X348273347Y-229083080D02*
X348273347Y-228083080D01*
X347701918Y-229083080D01*
X347701918Y-228083080D01*
X349636157Y-230267700D02*
X349731395Y-230220080D01*
X349874252Y-230220080D01*
X350017109Y-230267700D01*
X350112347Y-230362938D01*
X350159966Y-230458176D01*
X350207585Y-230648652D01*
X350207585Y-230791509D01*
X350159966Y-230981985D01*
X350112347Y-231077223D01*
X350017109Y-231172461D01*
X349874252Y-231220080D01*
X349779014Y-231220080D01*
X349636157Y-231172461D01*
X349588538Y-231124842D01*
X349588538Y-230791509D01*
X349779014Y-230791509D01*
X349159966Y-231220080D02*
X349159966Y-230220080D01*
X348588538Y-231220080D01*
X348588538Y-230220080D01*
X348112347Y-231220080D02*
X348112347Y-230220080D01*
X347874252Y-230220080D01*
X347731395Y-230267700D01*
X347636157Y-230362938D01*
X347588538Y-230458176D01*
X347540919Y-230648652D01*
X347540919Y-230791509D01*
X347588538Y-230981985D01*
X347636157Y-231077223D01*
X347731395Y-231172461D01*
X347874252Y-231220080D01*
X348112347Y-231220080D01*
X348483776Y-224120080D02*
X348959966Y-224120080D01*
X349007585Y-224596271D01*
X348959966Y-224548652D01*
X348864728Y-224501033D01*
X348626633Y-224501033D01*
X348531395Y-224548652D01*
X348483776Y-224596271D01*
X348436156Y-224691509D01*
X348436156Y-224929604D01*
X348483776Y-225024842D01*
X348531395Y-225072461D01*
X348626633Y-225120080D01*
X348864728Y-225120080D01*
X348959966Y-225072461D01*
X349007585Y-225024842D01*
X348102823Y-224453414D02*
X347864728Y-225120080D01*
X347626633Y-224453414D01*
X318195347Y-226164985D02*
X318242966Y-226307842D01*
X318290585Y-226355461D01*
X318385823Y-226403080D01*
X318528680Y-226403080D01*
X318623918Y-226355461D01*
X318671537Y-226307842D01*
X318719156Y-226212604D01*
X318719156Y-225831652D01*
X317719156Y-225831652D01*
X317719156Y-226164985D01*
X317766776Y-226260223D01*
X317814395Y-226307842D01*
X317909633Y-226355461D01*
X318004871Y-226355461D01*
X318100109Y-226307842D01*
X318147728Y-226260223D01*
X318195347Y-226164985D01*
X318195347Y-225831652D01*
X317719156Y-227022128D02*
X317719156Y-227212604D01*
X317766776Y-227307842D01*
X317862014Y-227403080D01*
X318052490Y-227450700D01*
X318385823Y-227450700D01*
X318576299Y-227403080D01*
X318671537Y-227307842D01*
X318719156Y-227212604D01*
X318719156Y-227022128D01*
X318671537Y-226926890D01*
X318576299Y-226831652D01*
X318385823Y-226784033D01*
X318052490Y-226784033D01*
X317862014Y-226831652D01*
X317766776Y-226926890D01*
X317719156Y-227022128D01*
X317719156Y-227879271D02*
X318528680Y-227879271D01*
X318623918Y-227926890D01*
X318671537Y-227974509D01*
X318719156Y-228069747D01*
X318719156Y-228260223D01*
X318671537Y-228355461D01*
X318623918Y-228403080D01*
X318528680Y-228450700D01*
X317719156Y-228450700D01*
X317719156Y-228784033D02*
X317719156Y-229355461D01*
X318719156Y-229069747D02*
X317719156Y-229069747D01*
X320719156Y-225831652D02*
X319719156Y-225831652D01*
X319719156Y-226069747D01*
X319766776Y-226212604D01*
X319862014Y-226307842D01*
X319957252Y-226355461D01*
X320147728Y-226403080D01*
X320290585Y-226403080D01*
X320481061Y-226355461D01*
X320576299Y-226307842D01*
X320671537Y-226212604D01*
X320719156Y-226069747D01*
X320719156Y-225831652D01*
X319719156Y-227022128D02*
X319719156Y-227212604D01*
X319766776Y-227307842D01*
X319862014Y-227403080D01*
X320052490Y-227450700D01*
X320385823Y-227450700D01*
X320576299Y-227403080D01*
X320671537Y-227307842D01*
X320719156Y-227212604D01*
X320719156Y-227022128D01*
X320671537Y-226926890D01*
X320576299Y-226831652D01*
X320385823Y-226784033D01*
X320052490Y-226784033D01*
X319862014Y-226831652D01*
X319766776Y-226926890D01*
X319719156Y-227022128D01*
X319719156Y-227879271D02*
X320528680Y-227879271D01*
X320623918Y-227926890D01*
X320671537Y-227974509D01*
X320719156Y-228069747D01*
X320719156Y-228260223D01*
X320671537Y-228355461D01*
X320623918Y-228403080D01*
X320528680Y-228450700D01*
X319719156Y-228450700D01*
X319719156Y-228784033D02*
X319719156Y-229355461D01*
X320719156Y-229069747D02*
X319719156Y-229069747D01*
D13*
X94581061Y-223746271D02*
X95295347Y-223746271D01*
X95366776Y-224460557D01*
X95295347Y-224389128D01*
X95152490Y-224317700D01*
X94795347Y-224317700D01*
X94652490Y-224389128D01*
X94581061Y-224460557D01*
X94509633Y-224603414D01*
X94509633Y-224960557D01*
X94581061Y-225103414D01*
X94652490Y-225174842D01*
X94795347Y-225246271D01*
X95152490Y-225246271D01*
X95295347Y-225174842D01*
X95366776Y-225103414D01*
X94009633Y-224246271D02*
X93652490Y-225246271D01*
X93295347Y-224246271D01*
X94609633Y-229917700D02*
X94752490Y-229846271D01*
X94966776Y-229846271D01*
X95181061Y-229917700D01*
X95323918Y-230060557D01*
X95395347Y-230203414D01*
X95466776Y-230489128D01*
X95466776Y-230703414D01*
X95395347Y-230989128D01*
X95323918Y-231131985D01*
X95181061Y-231274842D01*
X94966776Y-231346271D01*
X94823918Y-231346271D01*
X94609633Y-231274842D01*
X94538204Y-231203414D01*
X94538204Y-230703414D01*
X94823918Y-230703414D01*
X93895347Y-231346271D02*
X93895347Y-229846271D01*
X93038204Y-231346271D01*
X93038204Y-229846271D01*
X92323918Y-231346271D02*
X92323918Y-229846271D01*
X91966776Y-229846271D01*
X91752490Y-229917700D01*
X91609633Y-230060557D01*
X91538204Y-230203414D01*
X91466776Y-230489128D01*
X91466776Y-230703414D01*
X91538204Y-230989128D01*
X91609633Y-231131985D01*
X91752490Y-231274842D01*
X91966776Y-231346271D01*
X92323918Y-231346271D01*
D11*
X95390585Y-227220080D02*
X95390585Y-226220080D01*
X95152490Y-226220080D01*
X95009633Y-226267700D01*
X94914395Y-226362938D01*
X94866776Y-226458176D01*
X94819156Y-226648652D01*
X94819156Y-226791509D01*
X94866776Y-226981985D01*
X94914395Y-227077223D01*
X95009633Y-227172461D01*
X95152490Y-227220080D01*
X95390585Y-227220080D01*
X94390585Y-227220080D02*
X94390585Y-226220080D01*
X93914395Y-227220080D02*
X93914395Y-226220080D01*
X93342966Y-227220080D01*
X93342966Y-226220080D01*
D12*
X342883776Y-224020080D02*
X343359966Y-224020080D01*
X343407585Y-224496271D01*
X343359966Y-224448652D01*
X343264728Y-224401033D01*
X343026633Y-224401033D01*
X342931395Y-224448652D01*
X342883776Y-224496271D01*
X342836156Y-224591509D01*
X342836156Y-224829604D01*
X342883776Y-224924842D01*
X342931395Y-224972461D01*
X343026633Y-225020080D01*
X343264728Y-225020080D01*
X343359966Y-224972461D01*
X343407585Y-224924842D01*
X342502823Y-224353414D02*
X342264728Y-225020080D01*
X342026633Y-224353414D01*
X342936157Y-230167700D02*
X343031395Y-230120080D01*
X343174252Y-230120080D01*
X343317109Y-230167700D01*
X343412347Y-230262938D01*
X343459966Y-230358176D01*
X343507585Y-230548652D01*
X343507585Y-230691509D01*
X343459966Y-230881985D01*
X343412347Y-230977223D01*
X343317109Y-231072461D01*
X343174252Y-231120080D01*
X343079014Y-231120080D01*
X342936157Y-231072461D01*
X342888538Y-231024842D01*
X342888538Y-230691509D01*
X343079014Y-230691509D01*
X342459966Y-231120080D02*
X342459966Y-230120080D01*
X341888538Y-231120080D01*
X341888538Y-230120080D01*
X341412347Y-231120080D02*
X341412347Y-230120080D01*
X341174252Y-230120080D01*
X341031395Y-230167700D01*
X340936157Y-230262938D01*
X340888538Y-230358176D01*
X340840919Y-230548652D01*
X340840919Y-230691509D01*
X340888538Y-230881985D01*
X340936157Y-230977223D01*
X341031395Y-231072461D01*
X341174252Y-231120080D01*
X341412347Y-231120080D01*
D11*
X95057252Y-228596271D02*
X94914395Y-228643890D01*
X94866776Y-228691509D01*
X94819156Y-228786747D01*
X94819156Y-228929604D01*
X94866776Y-229024842D01*
X94914395Y-229072461D01*
X95009633Y-229120080D01*
X95390585Y-229120080D01*
X95390585Y-228120080D01*
X95057252Y-228120080D01*
X94962014Y-228167700D01*
X94914395Y-228215319D01*
X94866776Y-228310557D01*
X94866776Y-228405795D01*
X94914395Y-228501033D01*
X94962014Y-228548652D01*
X95057252Y-228596271D01*
X95390585Y-228596271D01*
X94390585Y-229120080D02*
X94390585Y-228120080D01*
X93914395Y-229120080D02*
X93914395Y-228120080D01*
X93342966Y-229120080D01*
X93342966Y-228120080D01*
D14*
X357516789Y-229367700D02*
X359516789Y-228367700D01*
X354516789Y-228367700D02*
X359516789Y-228367700D01*
X357516789Y-227367700D02*
X359516789Y-228367700D01*
X110166776Y-227567700D02*
X115166776Y-227567700D01*
X113166776Y-226567700D02*
X115166776Y-227567700D01*
X113166776Y-228567700D02*
X115166776Y-227567700D01*
D10*
X357905884Y-221679414D02*
X358905884Y-221679414D01*
X358905884Y-223250842D02*
X358905884Y-220250842D01*
X357477313Y-220250842D01*
D11*
X340176313Y-224320080D02*
X340652503Y-224320080D01*
X340700122Y-224796271D01*
X340652503Y-224748652D01*
X340557265Y-224701033D01*
X340319170Y-224701033D01*
X340223932Y-224748652D01*
X340176313Y-224796271D01*
X340128694Y-224891509D01*
X340128694Y-225129604D01*
X340176313Y-225224842D01*
X340223932Y-225272461D01*
X340319170Y-225320080D01*
X340557265Y-225320080D01*
X340652503Y-225272461D01*
X340700122Y-225224842D01*
X339795360Y-224653414D02*
X339557265Y-225320080D01*
X339319170Y-224653414D01*
D10*
X82292204Y-221702414D02*
X83292204Y-221702414D01*
X83292204Y-223273842D02*
X83292204Y-220273842D01*
X81863633Y-220273842D01*
M02*
