M48
INCH,TZ
T1C0.0236
T2C0.0500
%
G90
G05
T1
X24574Y-30158
X24704Y-28572
X26501Y-27288
X28501Y-26788
X29100Y-29321
X32200Y-29421
X34320Y-29386
X38600Y-29381
X40820Y-29386
X45150Y-29391
X47320Y-29386
X51740Y-29401
X53820Y-29386
X58260Y-29401
X60520Y-29386
X64830Y-29391
X67020Y-29386
X71400Y-29391
X73520Y-29386
X77920Y-29381
X78601Y-26988
X80801Y-26888
X81601Y-29388
X84801Y-29388
X86720Y-29386
X91040Y-29401
X93220Y-29386
X97610Y-29391
X99820Y-29361
X103600Y-29231
X106400Y-29221
X110700Y-29321
X111500Y-26800
X114100Y-26700
X114400Y-29400
X117600Y-29400
X118201Y-26988
X120401Y-26988
X120901Y-29188
T2
X123636Y-28512G85X123636Y-28512
G05
X123636Y-29312G85X123636Y-29312
G05
X123636Y-30112G85X123636Y-30112
G05
X22780Y-28572G85X22780Y-28572
G05
X22780Y-29372G85X22780Y-29372
G05
X22780Y-30172G85X22780Y-30172
G05
T0
M30
