<?xml version="1.0" standalone="no"?>
 <!DOCTYPE svg PUBLIC "-//W3C//DTD SVG 1.1//EN" 
 "http://www.w3.org/Graphics/SVG/1.1/DTD/svg11.dtd"> 
<svg xmlns="http://www.w3.org/2000/svg" version="1.1" 
    width="41.9989cm" height="29.7002cm" viewBox="0 0 165350 116930 ">
<title>SVG Picture created as BCInside-F_Paste.svg date 2019/04/12 10:45:59 </title>
  <desc>Picture generated by PCBNEW </desc>
<g style="fill:#000000; fill-opacity:1;stroke:#000000; stroke-opacity:1;
stroke-linecap:round; stroke-linejoin:round; "
 transform="translate(0 0) scale(1 1)">
</g>
<g style="fill:#000000; fill-opacity:0.0; 
stroke:#000000; stroke-width:-0.000393701; stroke-opacity:1; 
stroke-linecap:round; stroke-linejoin:round;">
<g >
</g>
<g >
</g>
<g >
</g>
<g style="fill:#000000; fill-opacity:0.0; 
stroke:#000000; stroke-width:0; stroke-opacity:1; 
stroke-linecap:round; stroke-linejoin:round;">
</g>
<g style="fill:#000000; fill-opacity:1.0; 
stroke:#000000; stroke-width:0; stroke-opacity:1; 
stroke-linecap:round; stroke-linejoin:round;">
<path style="fill:#000000; fill-opacity:1.0; 
stroke:#000000; stroke-width:0; stroke-opacity:1; 
stroke-linecap:round; stroke-linejoin:round;fill-rule:evenodd;"
d="M 113962,29815
113962,30208
113371,30208
113371,29815
113962,29815
Z" /> 
<path style="fill:#000000; fill-opacity:1.0; 
stroke:#000000; stroke-width:0; stroke-opacity:1; 
stroke-linecap:round; stroke-linejoin:round;fill-rule:evenodd;"
d="M 113962,29185
113962,29578
113371,29578
113371,29185
113962,29185
Z" /> 
<path style="fill:#000000; fill-opacity:1.0; 
stroke:#000000; stroke-width:0; stroke-opacity:1; 
stroke-linecap:round; stroke-linejoin:round;fill-rule:evenodd;"
d="M 113962,28555
113962,28948
113371,28948
113371,28555
113962,28555
Z" /> 
<path style="fill:#000000; fill-opacity:1.0; 
stroke:#000000; stroke-width:0; stroke-opacity:1; 
stroke-linecap:round; stroke-linejoin:round;fill-rule:evenodd;"
d="M 112033,29815
112033,30208
111442,30208
111442,29815
112033,29815
Z" /> 
<path style="fill:#000000; fill-opacity:1.0; 
stroke:#000000; stroke-width:0; stroke-opacity:1; 
stroke-linecap:round; stroke-linejoin:round;fill-rule:evenodd;"
d="M 112033,29185
112033,29578
111442,29578
111442,29185
112033,29185
Z" /> 
<path style="fill:#000000; fill-opacity:1.0; 
stroke:#000000; stroke-width:0; stroke-opacity:1; 
stroke-linecap:round; stroke-linejoin:round;fill-rule:evenodd;"
d="M 112033,28555
112033,28948
111442,28948
111442,28555
112033,28555
Z" /> 
</g>
<g >
<path style="fill:#000000; fill-opacity:1.0; 
stroke:#000000; stroke-width:0; stroke-opacity:1; 
stroke-linecap:round; stroke-linejoin:round;fill-rule:evenodd;"
d="M 27837,27312
27846,27314
27855,27316
27864,27319
27873,27323
27881,27328
27888,27334
27895,27340
27902,27347
27907,27355
27912,27363
27916,27371
27919,27380
27921,27389
27923,27398
27923,27408
27923,27767
27923,27777
27921,27786
27919,27795
27916,27804
27912,27812
27907,27820
27902,27828
27895,27835
27888,27841
27881,27847
27873,27852
27864,27856
27855,27859
27846,27861
27837,27863
27827,27863
27635,27863
27626,27863
27617,27861
27608,27859
27599,27856
27590,27852
27582,27847
27575,27841
27568,27835
27561,27828
27556,27820
27551,27812
27547,27804
27544,27795
27541,27786
27540,27777
27539,27767
27539,27408
27540,27398
27541,27389
27544,27380
27547,27371
27551,27363
27556,27355
27561,27347
27568,27340
27575,27334
27582,27328
27590,27323
27599,27319
27608,27316
27617,27314
27626,27312
27635,27312
27827,27312
27837,27312
Z" /> 
<path style="fill:#000000; fill-opacity:1.0; 
stroke:#000000; stroke-width:0; stroke-opacity:1; 
stroke-linecap:round; stroke-linejoin:round;fill-rule:evenodd;"
d="M 28575,27312
28584,27314
28593,27316
28602,27319
28611,27323
28619,27328
28626,27334
28633,27340
28640,27347
28645,27355
28650,27363
28654,27371
28657,27380
28660,27389
28661,27398
28662,27408
28662,27767
28661,27777
28660,27786
28657,27795
28654,27804
28650,27812
28645,27820
28640,27828
28633,27835
28626,27841
28619,27847
28611,27852
28602,27856
28593,27859
28584,27861
28575,27863
28566,27863
28374,27863
28364,27863
28355,27861
28346,27859
28337,27856
28328,27852
28320,27847
28313,27841
28306,27835
28299,27828
28294,27820
28289,27812
28285,27804
28282,27795
28280,27786
28278,27777
28278,27767
28278,27408
28278,27398
28280,27389
28282,27380
28285,27371
28289,27363
28294,27355
28299,27347
28306,27340
28313,27334
28320,27328
28328,27323
28337,27319
28346,27316
28355,27314
28364,27312
28374,27312
28566,27312
28575,27312
Z" /> 
</g>
<g >
<path style="fill:#000000; fill-opacity:1.0; 
stroke:#000000; stroke-width:0; stroke-opacity:1; 
stroke-linecap:round; stroke-linejoin:round;fill-rule:evenodd;"
d="M 109672,29719
109681,29720
109690,29723
109699,29726
109707,29730
109715,29735
109723,29740
109730,29747
109736,29754
109742,29761
109747,29769
109751,29778
109754,29787
109756,29796
109758,29805
109758,29815
109758,30006
109758,30016
109756,30025
109754,30034
109751,30043
109747,30052
109742,30060
109736,30067
109730,30074
109723,30081
109715,30086
109707,30091
109699,30095
109690,30098
109681,30101
109672,30102
109662,30102
109303,30102
109293,30102
109284,30101
109275,30098
109266,30095
109258,30091
109250,30086
109242,30081
109235,30074
109229,30067
109223,30060
109218,30052
109214,30043
109211,30034
109209,30025
109207,30016
109207,30006
109207,29815
109207,29805
109209,29796
109211,29787
109214,29778
109218,29769
109223,29761
109229,29754
109235,29747
109242,29740
109250,29735
109258,29730
109266,29726
109275,29723
109284,29720
109293,29719
109303,29719
109662,29719
109672,29719
Z" /> 
<path style="fill:#000000; fill-opacity:1.0; 
stroke:#000000; stroke-width:0; stroke-opacity:1; 
stroke-linecap:round; stroke-linejoin:round;fill-rule:evenodd;"
d="M 109672,28981
109681,28982
109690,28985
109699,28988
109707,28992
109715,28997
109723,29002
109730,29008
109736,29015
109742,29023
109747,29031
109751,29040
109754,29048
109756,29058
109758,29067
109758,29076
109758,29268
109758,29278
109756,29287
109754,29296
109751,29305
109747,29314
109742,29322
109736,29329
109730,29336
109723,29342
109715,29348
109707,29353
109699,29357
109690,29360
109681,29362
109672,29364
109662,29364
109303,29364
109293,29364
109284,29362
109275,29360
109266,29357
109258,29353
109250,29348
109242,29342
109235,29336
109229,29329
109223,29322
109218,29314
109214,29305
109211,29296
109209,29287
109207,29278
109207,29268
109207,29076
109207,29067
109209,29058
109211,29048
109214,29040
109218,29031
109223,29023
109229,29015
109235,29008
109242,29002
109250,28997
109258,28992
109266,28988
109275,28985
109284,28982
109293,28981
109303,28980
109662,28980
109672,28981
Z" /> 
</g>
<g >
<path style="fill:#000000; fill-opacity:1.0; 
stroke:#000000; stroke-width:0; stroke-opacity:1; 
stroke-linecap:round; stroke-linejoin:round;fill-rule:evenodd;"
d="M 111636,27224
111645,27226
111654,27228
111663,27231
111672,27235
111680,27240
111687,27246
111694,27252
111701,27259
111706,27267
111711,27275
111715,27283
111718,27292
111720,27301
111722,27310
111722,27320
111722,27679
111722,27689
111720,27698
111718,27707
111715,27716
111711,27724
111706,27732
111701,27740
111694,27747
111687,27753
111680,27759
111672,27764
111663,27768
111654,27771
111645,27773
111636,27775
111626,27775
111434,27775
111425,27775
111416,27773
111407,27771
111398,27768
111389,27764
111381,27759
111374,27753
111367,27747
111360,27740
111355,27732
111350,27724
111346,27716
111343,27707
111340,27698
111339,27689
111338,27679
111338,27320
111339,27310
111340,27301
111343,27292
111346,27283
111350,27275
111355,27267
111360,27259
111367,27252
111374,27246
111381,27240
111389,27235
111398,27231
111407,27228
111416,27226
111425,27224
111434,27224
111626,27224
111636,27224
Z" /> 
<path style="fill:#000000; fill-opacity:1.0; 
stroke:#000000; stroke-width:0; stroke-opacity:1; 
stroke-linecap:round; stroke-linejoin:round;fill-rule:evenodd;"
d="M 112374,27224
112383,27226
112392,27228
112401,27231
112410,27235
112418,27240
112425,27246
112432,27252
112439,27259
112444,27267
112449,27275
112453,27283
112456,27292
112459,27301
112460,27310
112461,27320
112461,27679
112460,27689
112459,27698
112456,27707
112453,27716
112449,27724
112444,27732
112439,27740
112432,27747
112425,27753
112418,27759
112410,27764
112401,27768
112392,27771
112383,27773
112374,27775
112365,27775
112173,27775
112163,27775
112154,27773
112145,27771
112136,27768
112127,27764
112119,27759
112112,27753
112105,27747
112098,27740
112093,27732
112088,27724
112084,27716
112081,27707
112079,27698
112077,27689
112077,27679
112077,27320
112077,27310
112079,27301
112081,27292
112084,27283
112088,27275
112093,27267
112098,27259
112105,27252
112112,27246
112119,27240
112127,27235
112136,27231
112145,27228
112154,27226
112163,27224
112173,27224
112365,27224
112374,27224
Z" /> 
</g>
<g >
<path style="fill:#000000; fill-opacity:1.0; 
stroke:#000000; stroke-width:0; stroke-opacity:1; 
stroke-linecap:round; stroke-linejoin:round;fill-rule:evenodd;"
d="M 119075,27312
119084,27314
119093,27316
119102,27319
119111,27323
119119,27328
119126,27334
119133,27340
119140,27347
119145,27355
119150,27363
119154,27371
119157,27380
119160,27389
119161,27398
119162,27408
119162,27767
119161,27777
119160,27786
119157,27795
119154,27804
119150,27812
119145,27820
119140,27828
119133,27835
119126,27841
119119,27847
119111,27852
119102,27856
119093,27859
119084,27861
119075,27863
119066,27863
118874,27863
118864,27863
118855,27861
118846,27859
118837,27856
118828,27852
118820,27847
118813,27841
118806,27835
118799,27828
118794,27820
118789,27812
118785,27804
118782,27795
118780,27786
118778,27777
118778,27767
118778,27408
118778,27398
118780,27389
118782,27380
118785,27371
118789,27363
118794,27355
118799,27347
118806,27340
118813,27334
118820,27328
118828,27323
118837,27319
118846,27316
118855,27314
118864,27312
118874,27312
119066,27312
119075,27312
Z" /> 
<path style="fill:#000000; fill-opacity:1.0; 
stroke:#000000; stroke-width:0; stroke-opacity:1; 
stroke-linecap:round; stroke-linejoin:round;fill-rule:evenodd;"
d="M 118337,27312
118346,27314
118355,27316
118364,27319
118373,27323
118381,27328
118388,27334
118395,27340
118402,27347
118407,27355
118412,27363
118416,27371
118419,27380
118421,27389
118423,27398
118423,27408
118423,27767
118423,27777
118421,27786
118419,27795
118416,27804
118412,27812
118407,27820
118402,27828
118395,27835
118388,27841
118381,27847
118373,27852
118364,27856
118355,27859
118346,27861
118337,27863
118327,27863
118135,27863
118126,27863
118117,27861
118108,27859
118099,27856
118090,27852
118082,27847
118075,27841
118068,27835
118061,27828
118056,27820
118051,27812
118047,27804
118044,27795
118041,27786
118040,27777
118039,27767
118039,27408
118040,27398
118041,27389
118044,27380
118047,27371
118051,27363
118056,27355
118061,27347
118068,27340
118075,27334
118082,27328
118090,27323
118099,27319
118108,27316
118117,27314
118126,27312
118135,27312
118327,27312
118337,27312
Z" /> 
</g>
<g >
<path style="fill:#000000; fill-opacity:1.0; 
stroke:#000000; stroke-width:0; stroke-opacity:1; 
stroke-linecap:round; stroke-linejoin:round;fill-rule:evenodd;"
d="M 118594,28555
118594,28948
118004,28948
118004,28555
118594,28555
Z" /> 
<path style="fill:#000000; fill-opacity:1.0; 
stroke:#000000; stroke-width:0; stroke-opacity:1; 
stroke-linecap:round; stroke-linejoin:round;fill-rule:evenodd;"
d="M 118594,29185
118594,29578
118004,29578
118004,29185
118594,29185
Z" /> 
<path style="fill:#000000; fill-opacity:1.0; 
stroke:#000000; stroke-width:0; stroke-opacity:1; 
stroke-linecap:round; stroke-linejoin:round;fill-rule:evenodd;"
d="M 118594,29815
118594,30208
118004,30208
118004,29815
118594,29815
Z" /> 
<path style="fill:#000000; fill-opacity:1.0; 
stroke:#000000; stroke-width:0; stroke-opacity:1; 
stroke-linecap:round; stroke-linejoin:round;fill-rule:evenodd;"
d="M 120523,28555
120523,28948
119933,28948
119933,28555
120523,28555
Z" /> 
<path style="fill:#000000; fill-opacity:1.0; 
stroke:#000000; stroke-width:0; stroke-opacity:1; 
stroke-linecap:round; stroke-linejoin:round;fill-rule:evenodd;"
d="M 120523,29185
120523,29578
119933,29578
119933,29185
120523,29185
Z" /> 
<path style="fill:#000000; fill-opacity:1.0; 
stroke:#000000; stroke-width:0; stroke-opacity:1; 
stroke-linecap:round; stroke-linejoin:round;fill-rule:evenodd;"
d="M 120523,29815
120523,30208
119933,30208
119933,29815
120523,29815
Z" /> 
</g>
<g >
<path style="fill:#000000; fill-opacity:1.0; 
stroke:#000000; stroke-width:0; stroke-opacity:1; 
stroke-linecap:round; stroke-linejoin:round;fill-rule:evenodd;"
d="M 105471,28555
105471,28948
104880,28948
104880,28555
105471,28555
Z" /> 
<path style="fill:#000000; fill-opacity:1.0; 
stroke:#000000; stroke-width:0; stroke-opacity:1; 
stroke-linecap:round; stroke-linejoin:round;fill-rule:evenodd;"
d="M 105471,29185
105471,29578
104880,29578
104880,29185
105471,29185
Z" /> 
<path style="fill:#000000; fill-opacity:1.0; 
stroke:#000000; stroke-width:0; stroke-opacity:1; 
stroke-linecap:round; stroke-linejoin:round;fill-rule:evenodd;"
d="M 105471,29815
105471,30208
104880,30208
104880,29815
105471,29815
Z" /> 
<path style="fill:#000000; fill-opacity:1.0; 
stroke:#000000; stroke-width:0; stroke-opacity:1; 
stroke-linecap:round; stroke-linejoin:round;fill-rule:evenodd;"
d="M 107400,28555
107400,28948
106809,28948
106809,28555
107400,28555
Z" /> 
<path style="fill:#000000; fill-opacity:1.0; 
stroke:#000000; stroke-width:0; stroke-opacity:1; 
stroke-linecap:round; stroke-linejoin:round;fill-rule:evenodd;"
d="M 107400,29185
107400,29578
106809,29578
106809,29185
107400,29185
Z" /> 
<path style="fill:#000000; fill-opacity:1.0; 
stroke:#000000; stroke-width:0; stroke-opacity:1; 
stroke-linecap:round; stroke-linejoin:round;fill-rule:evenodd;"
d="M 107400,29815
107400,30208
106809,30208
106809,29815
107400,29815
Z" /> 
</g>
<g >
<path style="fill:#000000; fill-opacity:1.0; 
stroke:#000000; stroke-width:0; stroke-opacity:1; 
stroke-linecap:round; stroke-linejoin:round;fill-rule:evenodd;"
d="M 108593,28981
108602,28982
108611,28985
108620,28988
108628,28992
108636,28997
108644,29002
108651,29008
108657,29015
108663,29023
108668,29031
108672,29040
108675,29048
108677,29058
108679,29067
108679,29076
108679,29268
108679,29278
108677,29287
108675,29296
108672,29305
108668,29314
108663,29322
108657,29329
108651,29336
108644,29342
108636,29348
108628,29353
108620,29357
108611,29360
108602,29362
108593,29364
108583,29364
108224,29364
108214,29364
108205,29362
108196,29360
108187,29357
108179,29353
108171,29348
108163,29342
108156,29336
108150,29329
108144,29322
108139,29314
108135,29305
108132,29296
108130,29287
108128,29278
108128,29268
108128,29076
108128,29067
108130,29058
108132,29048
108135,29040
108139,29031
108144,29023
108150,29015
108156,29008
108163,29002
108171,28997
108179,28992
108187,28988
108196,28985
108205,28982
108214,28981
108224,28980
108583,28980
108593,28981
Z" /> 
<path style="fill:#000000; fill-opacity:1.0; 
stroke:#000000; stroke-width:0; stroke-opacity:1; 
stroke-linecap:round; stroke-linejoin:round;fill-rule:evenodd;"
d="M 108593,29719
108602,29720
108611,29723
108620,29726
108628,29730
108636,29735
108644,29740
108651,29747
108657,29754
108663,29761
108668,29769
108672,29778
108675,29787
108677,29796
108679,29805
108679,29815
108679,30006
108679,30016
108677,30025
108675,30034
108672,30043
108668,30052
108663,30060
108657,30067
108651,30074
108644,30081
108636,30086
108628,30091
108620,30095
108611,30098
108602,30101
108593,30102
108583,30102
108224,30102
108214,30102
108205,30101
108196,30098
108187,30095
108179,30091
108171,30086
108163,30081
108156,30074
108150,30067
108144,30060
108139,30052
108135,30043
108132,30034
108130,30025
108128,30016
108128,30006
108128,29815
108128,29805
108130,29796
108132,29787
108135,29778
108139,29769
108144,29761
108150,29754
108156,29747
108163,29740
108171,29735
108179,29730
108187,29726
108196,29723
108205,29720
108214,29719
108224,29719
108583,29719
108593,29719
Z" /> 
</g>
<g >
<path style="fill:#000000; fill-opacity:1.0; 
stroke:#000000; stroke-width:0; stroke-opacity:1; 
stroke-linecap:round; stroke-linejoin:round;fill-rule:evenodd;"
d="M 113436,27224
113445,27226
113454,27228
113463,27231
113472,27235
113480,27240
113487,27246
113494,27252
113501,27259
113506,27267
113511,27275
113515,27283
113518,27292
113520,27301
113522,27310
113522,27320
113522,27679
113522,27689
113520,27698
113518,27707
113515,27716
113511,27724
113506,27732
113501,27740
113494,27747
113487,27753
113480,27759
113472,27764
113463,27768
113454,27771
113445,27773
113436,27775
113426,27775
113234,27775
113225,27775
113216,27773
113207,27771
113198,27768
113189,27764
113181,27759
113174,27753
113167,27747
113160,27740
113155,27732
113150,27724
113146,27716
113143,27707
113140,27698
113139,27689
113138,27679
113138,27320
113139,27310
113140,27301
113143,27292
113146,27283
113150,27275
113155,27267
113160,27259
113167,27252
113174,27246
113181,27240
113189,27235
113198,27231
113207,27228
113216,27226
113225,27224
113234,27224
113426,27224
113436,27224
Z" /> 
<path style="fill:#000000; fill-opacity:1.0; 
stroke:#000000; stroke-width:0; stroke-opacity:1; 
stroke-linecap:round; stroke-linejoin:round;fill-rule:evenodd;"
d="M 114174,27224
114183,27226
114192,27228
114201,27231
114210,27235
114218,27240
114225,27246
114232,27252
114239,27259
114244,27267
114249,27275
114253,27283
114256,27292
114259,27301
114260,27310
114261,27320
114261,27679
114260,27689
114259,27698
114256,27707
114253,27716
114249,27724
114244,27732
114239,27740
114232,27747
114225,27753
114218,27759
114210,27764
114201,27768
114192,27771
114183,27773
114174,27775
114165,27775
113973,27775
113963,27775
113954,27773
113945,27771
113936,27768
113927,27764
113919,27759
113912,27753
113905,27747
113898,27740
113893,27732
113888,27724
113884,27716
113881,27707
113879,27698
113877,27689
113877,27679
113877,27320
113877,27310
113879,27301
113881,27292
113884,27283
113888,27275
113893,27267
113898,27259
113905,27252
113912,27246
113919,27240
113927,27235
113936,27231
113945,27228
113954,27226
113963,27224
113973,27224
114165,27224
114174,27224
Z" /> 
</g>
<g >
<path style="fill:#000000; fill-opacity:1.0; 
stroke:#000000; stroke-width:0; stroke-opacity:1; 
stroke-linecap:round; stroke-linejoin:round;fill-rule:evenodd;"
d="M 120575,27312
120584,27314
120593,27316
120602,27319
120611,27323
120619,27328
120626,27334
120633,27340
120640,27347
120645,27355
120650,27363
120654,27371
120657,27380
120660,27389
120661,27398
120662,27408
120662,27767
120661,27777
120660,27786
120657,27795
120654,27804
120650,27812
120645,27820
120640,27828
120633,27835
120626,27841
120619,27847
120611,27852
120602,27856
120593,27859
120584,27861
120575,27863
120566,27863
120374,27863
120364,27863
120355,27861
120346,27859
120337,27856
120328,27852
120320,27847
120313,27841
120306,27835
120299,27828
120294,27820
120289,27812
120285,27804
120282,27795
120280,27786
120278,27777
120278,27767
120278,27408
120278,27398
120280,27389
120282,27380
120285,27371
120289,27363
120294,27355
120299,27347
120306,27340
120313,27334
120320,27328
120328,27323
120337,27319
120346,27316
120355,27314
120364,27312
120374,27312
120566,27312
120575,27312
Z" /> 
<path style="fill:#000000; fill-opacity:1.0; 
stroke:#000000; stroke-width:0; stroke-opacity:1; 
stroke-linecap:round; stroke-linejoin:round;fill-rule:evenodd;"
d="M 119837,27312
119846,27314
119855,27316
119864,27319
119873,27323
119881,27328
119888,27334
119895,27340
119902,27347
119907,27355
119912,27363
119916,27371
119919,27380
119921,27389
119923,27398
119923,27408
119923,27767
119923,27777
119921,27786
119919,27795
119916,27804
119912,27812
119907,27820
119902,27828
119895,27835
119888,27841
119881,27847
119873,27852
119864,27856
119855,27859
119846,27861
119837,27863
119827,27863
119635,27863
119626,27863
119617,27861
119608,27859
119599,27856
119590,27852
119582,27847
119575,27841
119568,27835
119561,27828
119556,27820
119551,27812
119547,27804
119544,27795
119541,27786
119540,27777
119539,27767
119539,27408
119540,27398
119541,27389
119544,27380
119547,27371
119551,27363
119556,27355
119561,27347
119568,27340
119575,27334
119582,27328
119590,27323
119599,27319
119608,27316
119617,27314
119626,27312
119635,27312
119827,27312
119837,27312
Z" /> 
</g>
<g >
<path style="fill:#000000; fill-opacity:1.0; 
stroke:#000000; stroke-width:0; stroke-opacity:1; 
stroke-linecap:round; stroke-linejoin:round;fill-rule:evenodd;"
d="M 76734,28981
76743,28982
76752,28985
76761,28988
76770,28992
76778,28997
76785,29002
76792,29008
76799,29015
76804,29023
76809,29031
76813,29040
76816,29048
76819,29058
76820,29067
76821,29076
76821,29268
76820,29278
76819,29287
76816,29296
76813,29305
76809,29314
76804,29322
76799,29329
76792,29336
76785,29342
76778,29348
76770,29353
76761,29357
76752,29360
76743,29362
76734,29364
76725,29364
76365,29364
76356,29364
76347,29362
76337,29360
76329,29357
76320,29353
76312,29348
76304,29342
76297,29336
76291,29329
76286,29322
76281,29314
76277,29305
76273,29296
76271,29287
76270,29278
76269,29268
76269,29076
76270,29067
76271,29058
76273,29048
76277,29040
76281,29031
76286,29023
76291,29015
76297,29008
76304,29002
76312,28997
76320,28992
76329,28988
76337,28985
76347,28982
76356,28981
76365,28980
76725,28980
76734,28981
Z" /> 
<path style="fill:#000000; fill-opacity:1.0; 
stroke:#000000; stroke-width:0; stroke-opacity:1; 
stroke-linecap:round; stroke-linejoin:round;fill-rule:evenodd;"
d="M 76734,29719
76743,29720
76752,29723
76761,29726
76770,29730
76778,29735
76785,29740
76792,29747
76799,29754
76804,29761
76809,29769
76813,29778
76816,29787
76819,29796
76820,29805
76821,29815
76821,30006
76820,30016
76819,30025
76816,30034
76813,30043
76809,30052
76804,30060
76799,30067
76792,30074
76785,30081
76778,30086
76770,30091
76761,30095
76752,30098
76743,30101
76734,30102
76725,30102
76365,30102
76356,30102
76347,30101
76337,30098
76329,30095
76320,30091
76312,30086
76304,30081
76297,30074
76291,30067
76286,30060
76281,30052
76277,30043
76273,30034
76271,30025
76270,30016
76269,30006
76269,29815
76270,29805
76271,29796
76273,29787
76277,29778
76281,29769
76286,29761
76291,29754
76297,29747
76304,29740
76312,29735
76320,29730
76329,29726
76337,29723
76347,29720
76356,29719
76365,29719
76725,29719
76734,29719
Z" /> 
</g>
<g >
<path style="fill:#000000; fill-opacity:1.0; 
stroke:#000000; stroke-width:0; stroke-opacity:1; 
stroke-linecap:round; stroke-linejoin:round;fill-rule:evenodd;"
d="M 78737,27412
78746,27414
78755,27416
78764,27419
78773,27423
78781,27428
78788,27434
78795,27440
78802,27447
78807,27455
78812,27463
78816,27471
78819,27480
78821,27489
78823,27498
78823,27508
78823,27867
78823,27877
78821,27886
78819,27895
78816,27904
78812,27912
78807,27920
78802,27928
78795,27935
78788,27941
78781,27947
78773,27952
78764,27956
78755,27959
78746,27961
78737,27963
78727,27963
78535,27963
78526,27963
78517,27961
78508,27959
78499,27956
78490,27952
78482,27947
78475,27941
78468,27935
78461,27928
78456,27920
78451,27912
78447,27904
78444,27895
78441,27886
78440,27877
78439,27867
78439,27508
78440,27498
78441,27489
78444,27480
78447,27471
78451,27463
78456,27455
78461,27447
78468,27440
78475,27434
78482,27428
78490,27423
78499,27419
78508,27416
78517,27414
78526,27412
78535,27412
78727,27412
78737,27412
Z" /> 
<path style="fill:#000000; fill-opacity:1.0; 
stroke:#000000; stroke-width:0; stroke-opacity:1; 
stroke-linecap:round; stroke-linejoin:round;fill-rule:evenodd;"
d="M 79475,27412
79484,27414
79493,27416
79502,27419
79511,27423
79519,27428
79526,27434
79533,27440
79540,27447
79545,27455
79550,27463
79554,27471
79557,27480
79560,27489
79561,27498
79562,27508
79562,27867
79561,27877
79560,27886
79557,27895
79554,27904
79550,27912
79545,27920
79540,27928
79533,27935
79526,27941
79519,27947
79511,27952
79502,27956
79493,27959
79484,27961
79475,27963
79466,27963
79274,27963
79264,27963
79255,27961
79246,27959
79237,27956
79228,27952
79220,27947
79213,27941
79206,27935
79199,27928
79194,27920
79189,27912
79185,27904
79182,27895
79180,27886
79178,27877
79178,27867
79178,27508
79178,27498
79180,27489
79182,27480
79185,27471
79189,27463
79194,27455
79199,27447
79206,27440
79213,27434
79220,27428
79228,27423
79237,27419
79246,27416
79255,27414
79264,27412
79274,27412
79466,27412
79475,27412
Z" /> 
</g>
<g >
<path style="fill:#000000; fill-opacity:1.0; 
stroke:#000000; stroke-width:0; stroke-opacity:1; 
stroke-linecap:round; stroke-linejoin:round;fill-rule:evenodd;"
d="M 89841,28981
89851,28982
89860,28985
89869,28988
89877,28992
89885,28997
89893,29002
89900,29008
89906,29015
89912,29023
89916,29031
89921,29040
89924,29048
89926,29058
89927,29067
89928,29076
89928,29268
89927,29278
89926,29287
89924,29296
89921,29305
89916,29314
89912,29322
89906,29329
89900,29336
89893,29342
89885,29348
89877,29353
89869,29357
89860,29360
89851,29362
89841,29364
89832,29364
89473,29364
89463,29364
89454,29362
89445,29360
89436,29357
89427,29353
89419,29348
89412,29342
89405,29336
89398,29329
89393,29322
89388,29314
89384,29305
89381,29296
89378,29287
89377,29278
89377,29268
89377,29076
89377,29067
89378,29058
89381,29048
89384,29040
89388,29031
89393,29023
89398,29015
89405,29008
89412,29002
89419,28997
89427,28992
89436,28988
89445,28985
89454,28982
89463,28981
89473,28980
89832,28980
89841,28981
Z" /> 
<path style="fill:#000000; fill-opacity:1.0; 
stroke:#000000; stroke-width:0; stroke-opacity:1; 
stroke-linecap:round; stroke-linejoin:round;fill-rule:evenodd;"
d="M 89841,29719
89851,29720
89860,29723
89869,29726
89877,29730
89885,29735
89893,29740
89900,29747
89906,29754
89912,29761
89916,29769
89921,29778
89924,29787
89926,29796
89927,29805
89928,29815
89928,30006
89927,30016
89926,30025
89924,30034
89921,30043
89916,30052
89912,30060
89906,30067
89900,30074
89893,30081
89885,30086
89877,30091
89869,30095
89860,30098
89851,30101
89841,30102
89832,30102
89473,30102
89463,30102
89454,30101
89445,30098
89436,30095
89427,30091
89419,30086
89412,30081
89405,30074
89398,30067
89393,30060
89388,30052
89384,30043
89381,30034
89378,30025
89377,30016
89377,30006
89377,29815
89377,29805
89378,29796
89381,29787
89384,29778
89388,29769
89393,29761
89398,29754
89405,29747
89412,29740
89419,29735
89427,29730
89436,29726
89445,29723
89454,29720
89463,29719
89473,29719
89832,29719
89841,29719
Z" /> 
</g>
<g >
<path style="fill:#000000; fill-opacity:1.0; 
stroke:#000000; stroke-width:0; stroke-opacity:1; 
stroke-linecap:round; stroke-linejoin:round;fill-rule:evenodd;"
d="M 96395,28981
96404,28982
96413,28985
96422,28988
96431,28992
96439,28997
96446,29002
96453,29008
96460,29015
96465,29023
96470,29031
96474,29040
96477,29048
96480,29058
96481,29067
96481,29076
96481,29268
96481,29278
96480,29287
96477,29296
96474,29305
96470,29314
96465,29322
96460,29329
96453,29336
96446,29342
96439,29348
96431,29353
96422,29357
96413,29360
96404,29362
96395,29364
96385,29364
96026,29364
96017,29364
96008,29362
95998,29360
95990,29357
95981,29353
95973,29348
95965,29342
95958,29336
95952,29329
95946,29322
95942,29314
95938,29305
95934,29296
95932,29287
95931,29278
95930,29268
95930,29076
95931,29067
95932,29058
95934,29048
95938,29040
95942,29031
95946,29023
95952,29015
95958,29008
95965,29002
95973,28997
95981,28992
95990,28988
95998,28985
96008,28982
96017,28981
96026,28980
96385,28980
96395,28981
Z" /> 
<path style="fill:#000000; fill-opacity:1.0; 
stroke:#000000; stroke-width:0; stroke-opacity:1; 
stroke-linecap:round; stroke-linejoin:round;fill-rule:evenodd;"
d="M 96395,29719
96404,29720
96413,29723
96422,29726
96431,29730
96439,29735
96446,29740
96453,29747
96460,29754
96465,29761
96470,29769
96474,29778
96477,29787
96480,29796
96481,29805
96481,29815
96481,30006
96481,30016
96480,30025
96477,30034
96474,30043
96470,30052
96465,30060
96460,30067
96453,30074
96446,30081
96439,30086
96431,30091
96422,30095
96413,30098
96404,30101
96395,30102
96385,30102
96026,30102
96017,30102
96008,30101
95998,30098
95990,30095
95981,30091
95973,30086
95965,30081
95958,30074
95952,30067
95946,30060
95942,30052
95938,30043
95934,30034
95932,30025
95931,30016
95930,30006
95930,29815
95931,29805
95932,29796
95934,29787
95938,29778
95942,29769
95946,29761
95952,29754
95958,29747
95965,29740
95973,29735
95981,29730
95990,29726
95998,29723
96008,29720
96017,29719
96026,29719
96385,29719
96395,29719
Z" /> 
</g>
<g >
<path style="fill:#000000; fill-opacity:1.0; 
stroke:#000000; stroke-width:0; stroke-opacity:1; 
stroke-linecap:round; stroke-linejoin:round;fill-rule:evenodd;"
d="M 103128,28981
103137,28982
103146,28985
103155,28988
103163,28992
103172,28997
103179,29002
103186,29008
103192,29015
103198,29023
103203,29031
103207,29040
103210,29048
103212,29058
103214,29067
103214,29076
103214,29268
103214,29278
103212,29287
103210,29296
103207,29305
103203,29314
103198,29322
103192,29329
103186,29336
103179,29342
103172,29348
103163,29353
103155,29357
103146,29360
103137,29362
103128,29364
103118,29364
102759,29364
102750,29364
102740,29362
102731,29360
102722,29357
102714,29353
102706,29348
102698,29342
102691,29336
102685,29329
102679,29322
102674,29314
102670,29305
102667,29296
102665,29287
102663,29278
102663,29268
102663,29076
102663,29067
102665,29058
102667,29048
102670,29040
102674,29031
102679,29023
102685,29015
102691,29008
102698,29002
102706,28997
102714,28992
102722,28988
102731,28985
102740,28982
102750,28981
102759,28980
103118,28980
103128,28981
Z" /> 
<path style="fill:#000000; fill-opacity:1.0; 
stroke:#000000; stroke-width:0; stroke-opacity:1; 
stroke-linecap:round; stroke-linejoin:round;fill-rule:evenodd;"
d="M 103128,29719
103137,29720
103146,29723
103155,29726
103163,29730
103172,29735
103179,29740
103186,29747
103192,29754
103198,29761
103203,29769
103207,29778
103210,29787
103212,29796
103214,29805
103214,29815
103214,30006
103214,30016
103212,30025
103210,30034
103207,30043
103203,30052
103198,30060
103192,30067
103186,30074
103179,30081
103172,30086
103163,30091
103155,30095
103146,30098
103137,30101
103128,30102
103118,30102
102759,30102
102750,30102
102740,30101
102731,30098
102722,30095
102714,30091
102706,30086
102698,30081
102691,30074
102685,30067
102679,30060
102674,30052
102670,30043
102667,30034
102665,30025
102663,30016
102663,30006
102663,29815
102663,29805
102665,29796
102667,29787
102670,29778
102674,29769
102679,29761
102685,29754
102691,29747
102698,29740
102706,29735
102714,29730
102722,29726
102731,29723
102740,29720
102750,29719
102759,29719
103118,29719
103128,29719
Z" /> 
</g>
<g >
<path style="fill:#000000; fill-opacity:1.0; 
stroke:#000000; stroke-width:0; stroke-opacity:1; 
stroke-linecap:round; stroke-linejoin:round;fill-rule:evenodd;"
d="M 28663,29815
28663,30208
28073,30208
28073,29815
28663,29815
Z" /> 
<path style="fill:#000000; fill-opacity:1.0; 
stroke:#000000; stroke-width:0; stroke-opacity:1; 
stroke-linecap:round; stroke-linejoin:round;fill-rule:evenodd;"
d="M 28663,29185
28663,29578
28073,29578
28073,29185
28663,29185
Z" /> 
<path style="fill:#000000; fill-opacity:1.0; 
stroke:#000000; stroke-width:0; stroke-opacity:1; 
stroke-linecap:round; stroke-linejoin:round;fill-rule:evenodd;"
d="M 28663,28555
28663,28948
28073,28948
28073,28555
28663,28555
Z" /> 
<path style="fill:#000000; fill-opacity:1.0; 
stroke:#000000; stroke-width:0; stroke-opacity:1; 
stroke-linecap:round; stroke-linejoin:round;fill-rule:evenodd;"
d="M 26734,29815
26734,30208
26144,30208
26144,29815
26734,29815
Z" /> 
<path style="fill:#000000; fill-opacity:1.0; 
stroke:#000000; stroke-width:0; stroke-opacity:1; 
stroke-linecap:round; stroke-linejoin:round;fill-rule:evenodd;"
d="M 26734,29185
26734,29578
26144,29578
26144,29185
26734,29185
Z" /> 
<path style="fill:#000000; fill-opacity:1.0; 
stroke:#000000; stroke-width:0; stroke-opacity:1; 
stroke-linecap:round; stroke-linejoin:round;fill-rule:evenodd;"
d="M 26734,28555
26734,28948
26144,28948
26144,28555
26734,28555
Z" /> 
</g>
<g >
<path style="fill:#000000; fill-opacity:1.0; 
stroke:#000000; stroke-width:0; stroke-opacity:1; 
stroke-linecap:round; stroke-linejoin:round;fill-rule:evenodd;"
d="M 35225,29815
35225,30208
34634,30208
34634,29815
35225,29815
Z" /> 
<path style="fill:#000000; fill-opacity:1.0; 
stroke:#000000; stroke-width:0; stroke-opacity:1; 
stroke-linecap:round; stroke-linejoin:round;fill-rule:evenodd;"
d="M 35225,29185
35225,29578
34634,29578
34634,29185
35225,29185
Z" /> 
<path style="fill:#000000; fill-opacity:1.0; 
stroke:#000000; stroke-width:0; stroke-opacity:1; 
stroke-linecap:round; stroke-linejoin:round;fill-rule:evenodd;"
d="M 35225,28555
35225,28948
34634,28948
34634,28555
35225,28555
Z" /> 
<path style="fill:#000000; fill-opacity:1.0; 
stroke:#000000; stroke-width:0; stroke-opacity:1; 
stroke-linecap:round; stroke-linejoin:round;fill-rule:evenodd;"
d="M 33296,29815
33296,30208
32705,30208
32705,29815
33296,29815
Z" /> 
<path style="fill:#000000; fill-opacity:1.0; 
stroke:#000000; stroke-width:0; stroke-opacity:1; 
stroke-linecap:round; stroke-linejoin:round;fill-rule:evenodd;"
d="M 33296,29185
33296,29578
32705,29578
32705,29185
33296,29185
Z" /> 
<path style="fill:#000000; fill-opacity:1.0; 
stroke:#000000; stroke-width:0; stroke-opacity:1; 
stroke-linecap:round; stroke-linejoin:round;fill-rule:evenodd;"
d="M 33296,28555
33296,28948
32705,28948
32705,28555
33296,28555
Z" /> 
</g>
<g >
<path style="fill:#000000; fill-opacity:1.0; 
stroke:#000000; stroke-width:0; stroke-opacity:1; 
stroke-linecap:round; stroke-linejoin:round;fill-rule:evenodd;"
d="M 100838,29815
100838,30208
100248,30208
100248,29815
100838,29815
Z" /> 
<path style="fill:#000000; fill-opacity:1.0; 
stroke:#000000; stroke-width:0; stroke-opacity:1; 
stroke-linecap:round; stroke-linejoin:round;fill-rule:evenodd;"
d="M 100838,29185
100838,29578
100248,29578
100248,29185
100838,29185
Z" /> 
<path style="fill:#000000; fill-opacity:1.0; 
stroke:#000000; stroke-width:0; stroke-opacity:1; 
stroke-linecap:round; stroke-linejoin:round;fill-rule:evenodd;"
d="M 100838,28555
100838,28948
100248,28948
100248,28555
100838,28555
Z" /> 
<path style="fill:#000000; fill-opacity:1.0; 
stroke:#000000; stroke-width:0; stroke-opacity:1; 
stroke-linecap:round; stroke-linejoin:round;fill-rule:evenodd;"
d="M 98909,29815
98909,30208
98319,30208
98319,29815
98909,29815
Z" /> 
<path style="fill:#000000; fill-opacity:1.0; 
stroke:#000000; stroke-width:0; stroke-opacity:1; 
stroke-linecap:round; stroke-linejoin:round;fill-rule:evenodd;"
d="M 98909,29185
98909,29578
98319,29578
98319,29185
98909,29185
Z" /> 
<path style="fill:#000000; fill-opacity:1.0; 
stroke:#000000; stroke-width:0; stroke-opacity:1; 
stroke-linecap:round; stroke-linejoin:round;fill-rule:evenodd;"
d="M 98909,28555
98909,28948
98319,28948
98319,28555
98909,28555
Z" /> 
</g>
<g >
<path style="fill:#000000; fill-opacity:1.0; 
stroke:#000000; stroke-width:0; stroke-opacity:1; 
stroke-linecap:round; stroke-linejoin:round;fill-rule:evenodd;"
d="M 94277,29815
94277,30208
93686,30208
93686,29815
94277,29815
Z" /> 
<path style="fill:#000000; fill-opacity:1.0; 
stroke:#000000; stroke-width:0; stroke-opacity:1; 
stroke-linecap:round; stroke-linejoin:round;fill-rule:evenodd;"
d="M 94277,29185
94277,29578
93686,29578
93686,29185
94277,29185
Z" /> 
<path style="fill:#000000; fill-opacity:1.0; 
stroke:#000000; stroke-width:0; stroke-opacity:1; 
stroke-linecap:round; stroke-linejoin:round;fill-rule:evenodd;"
d="M 94277,28555
94277,28948
93686,28948
93686,28555
94277,28555
Z" /> 
<path style="fill:#000000; fill-opacity:1.0; 
stroke:#000000; stroke-width:0; stroke-opacity:1; 
stroke-linecap:round; stroke-linejoin:round;fill-rule:evenodd;"
d="M 92348,29815
92348,30208
91757,30208
91757,29815
92348,29815
Z" /> 
<path style="fill:#000000; fill-opacity:1.0; 
stroke:#000000; stroke-width:0; stroke-opacity:1; 
stroke-linecap:round; stroke-linejoin:round;fill-rule:evenodd;"
d="M 92348,29185
92348,29578
91757,29578
91757,29185
92348,29185
Z" /> 
<path style="fill:#000000; fill-opacity:1.0; 
stroke:#000000; stroke-width:0; stroke-opacity:1; 
stroke-linecap:round; stroke-linejoin:round;fill-rule:evenodd;"
d="M 92348,28555
92348,28948
91757,28948
91757,28555
92348,28555
Z" /> 
</g>
<g >
<path style="fill:#000000; fill-opacity:1.0; 
stroke:#000000; stroke-width:0; stroke-opacity:1; 
stroke-linecap:round; stroke-linejoin:round;fill-rule:evenodd;"
d="M 87716,29815
87716,30208
87125,30208
87125,29815
87716,29815
Z" /> 
<path style="fill:#000000; fill-opacity:1.0; 
stroke:#000000; stroke-width:0; stroke-opacity:1; 
stroke-linecap:round; stroke-linejoin:round;fill-rule:evenodd;"
d="M 87716,29185
87716,29578
87125,29578
87125,29185
87716,29185
Z" /> 
<path style="fill:#000000; fill-opacity:1.0; 
stroke:#000000; stroke-width:0; stroke-opacity:1; 
stroke-linecap:round; stroke-linejoin:round;fill-rule:evenodd;"
d="M 87716,28555
87716,28948
87125,28948
87125,28555
87716,28555
Z" /> 
<path style="fill:#000000; fill-opacity:1.0; 
stroke:#000000; stroke-width:0; stroke-opacity:1; 
stroke-linecap:round; stroke-linejoin:round;fill-rule:evenodd;"
d="M 85786,29815
85786,30208
85196,30208
85196,29815
85786,29815
Z" /> 
<path style="fill:#000000; fill-opacity:1.0; 
stroke:#000000; stroke-width:0; stroke-opacity:1; 
stroke-linecap:round; stroke-linejoin:round;fill-rule:evenodd;"
d="M 85786,29185
85786,29578
85196,29578
85196,29185
85786,29185
Z" /> 
<path style="fill:#000000; fill-opacity:1.0; 
stroke:#000000; stroke-width:0; stroke-opacity:1; 
stroke-linecap:round; stroke-linejoin:round;fill-rule:evenodd;"
d="M 85786,28555
85786,28948
85196,28948
85196,28555
85786,28555
Z" /> 
</g>
<g >
<path style="fill:#000000; fill-opacity:1.0; 
stroke:#000000; stroke-width:0; stroke-opacity:1; 
stroke-linecap:round; stroke-linejoin:round;fill-rule:evenodd;"
d="M 81154,29815
81154,30208
80564,30208
80564,29815
81154,29815
Z" /> 
<path style="fill:#000000; fill-opacity:1.0; 
stroke:#000000; stroke-width:0; stroke-opacity:1; 
stroke-linecap:round; stroke-linejoin:round;fill-rule:evenodd;"
d="M 81154,29185
81154,29578
80564,29578
80564,29185
81154,29185
Z" /> 
<path style="fill:#000000; fill-opacity:1.0; 
stroke:#000000; stroke-width:0; stroke-opacity:1; 
stroke-linecap:round; stroke-linejoin:round;fill-rule:evenodd;"
d="M 81154,28555
81154,28948
80564,28948
80564,28555
81154,28555
Z" /> 
<path style="fill:#000000; fill-opacity:1.0; 
stroke:#000000; stroke-width:0; stroke-opacity:1; 
stroke-linecap:round; stroke-linejoin:round;fill-rule:evenodd;"
d="M 79225,29815
79225,30208
78635,30208
78635,29815
79225,29815
Z" /> 
<path style="fill:#000000; fill-opacity:1.0; 
stroke:#000000; stroke-width:0; stroke-opacity:1; 
stroke-linecap:round; stroke-linejoin:round;fill-rule:evenodd;"
d="M 79225,29185
79225,29578
78635,29578
78635,29185
79225,29185
Z" /> 
<path style="fill:#000000; fill-opacity:1.0; 
stroke:#000000; stroke-width:0; stroke-opacity:1; 
stroke-linecap:round; stroke-linejoin:round;fill-rule:evenodd;"
d="M 79225,28555
79225,28948
78635,28948
78635,28555
79225,28555
Z" /> 
</g>
<g >
<path style="fill:#000000; fill-opacity:1.0; 
stroke:#000000; stroke-width:0; stroke-opacity:1; 
stroke-linecap:round; stroke-linejoin:round;fill-rule:evenodd;"
d="M 74593,29815
74593,30208
74002,30208
74002,29815
74593,29815
Z" /> 
<path style="fill:#000000; fill-opacity:1.0; 
stroke:#000000; stroke-width:0; stroke-opacity:1; 
stroke-linecap:round; stroke-linejoin:round;fill-rule:evenodd;"
d="M 74593,29185
74593,29578
74002,29578
74002,29185
74593,29185
Z" /> 
<path style="fill:#000000; fill-opacity:1.0; 
stroke:#000000; stroke-width:0; stroke-opacity:1; 
stroke-linecap:round; stroke-linejoin:round;fill-rule:evenodd;"
d="M 74593,28555
74593,28948
74002,28948
74002,28555
74593,28555
Z" /> 
<path style="fill:#000000; fill-opacity:1.0; 
stroke:#000000; stroke-width:0; stroke-opacity:1; 
stroke-linecap:round; stroke-linejoin:round;fill-rule:evenodd;"
d="M 72664,29815
72664,30208
72073,30208
72073,29815
72664,29815
Z" /> 
<path style="fill:#000000; fill-opacity:1.0; 
stroke:#000000; stroke-width:0; stroke-opacity:1; 
stroke-linecap:round; stroke-linejoin:round;fill-rule:evenodd;"
d="M 72664,29185
72664,29578
72073,29578
72073,29185
72664,29185
Z" /> 
<path style="fill:#000000; fill-opacity:1.0; 
stroke:#000000; stroke-width:0; stroke-opacity:1; 
stroke-linecap:round; stroke-linejoin:round;fill-rule:evenodd;"
d="M 72664,28555
72664,28948
72073,28948
72073,28555
72664,28555
Z" /> 
</g>
<g >
<path style="fill:#000000; fill-opacity:1.0; 
stroke:#000000; stroke-width:0; stroke-opacity:1; 
stroke-linecap:round; stroke-linejoin:round;fill-rule:evenodd;"
d="M 68032,29815
68032,30208
67441,30208
67441,29815
68032,29815
Z" /> 
<path style="fill:#000000; fill-opacity:1.0; 
stroke:#000000; stroke-width:0; stroke-opacity:1; 
stroke-linecap:round; stroke-linejoin:round;fill-rule:evenodd;"
d="M 68032,29185
68032,29578
67441,29578
67441,29185
68032,29185
Z" /> 
<path style="fill:#000000; fill-opacity:1.0; 
stroke:#000000; stroke-width:0; stroke-opacity:1; 
stroke-linecap:round; stroke-linejoin:round;fill-rule:evenodd;"
d="M 68032,28555
68032,28948
67441,28948
67441,28555
68032,28555
Z" /> 
<path style="fill:#000000; fill-opacity:1.0; 
stroke:#000000; stroke-width:0; stroke-opacity:1; 
stroke-linecap:round; stroke-linejoin:round;fill-rule:evenodd;"
d="M 66102,29815
66102,30208
65512,30208
65512,29815
66102,29815
Z" /> 
<path style="fill:#000000; fill-opacity:1.0; 
stroke:#000000; stroke-width:0; stroke-opacity:1; 
stroke-linecap:round; stroke-linejoin:round;fill-rule:evenodd;"
d="M 66102,29185
66102,29578
65512,29578
65512,29185
66102,29185
Z" /> 
<path style="fill:#000000; fill-opacity:1.0; 
stroke:#000000; stroke-width:0; stroke-opacity:1; 
stroke-linecap:round; stroke-linejoin:round;fill-rule:evenodd;"
d="M 66102,28555
66102,28948
65512,28948
65512,28555
66102,28555
Z" /> 
</g>
<g >
<path style="fill:#000000; fill-opacity:1.0; 
stroke:#000000; stroke-width:0; stroke-opacity:1; 
stroke-linecap:round; stroke-linejoin:round;fill-rule:evenodd;"
d="M 61470,29815
61470,30208
60880,30208
60880,29815
61470,29815
Z" /> 
<path style="fill:#000000; fill-opacity:1.0; 
stroke:#000000; stroke-width:0; stroke-opacity:1; 
stroke-linecap:round; stroke-linejoin:round;fill-rule:evenodd;"
d="M 61470,29185
61470,29578
60880,29578
60880,29185
61470,29185
Z" /> 
<path style="fill:#000000; fill-opacity:1.0; 
stroke:#000000; stroke-width:0; stroke-opacity:1; 
stroke-linecap:round; stroke-linejoin:round;fill-rule:evenodd;"
d="M 61470,28555
61470,28948
60880,28948
60880,28555
61470,28555
Z" /> 
<path style="fill:#000000; fill-opacity:1.0; 
stroke:#000000; stroke-width:0; stroke-opacity:1; 
stroke-linecap:round; stroke-linejoin:round;fill-rule:evenodd;"
d="M 59541,29815
59541,30208
58950,30208
58950,29815
59541,29815
Z" /> 
<path style="fill:#000000; fill-opacity:1.0; 
stroke:#000000; stroke-width:0; stroke-opacity:1; 
stroke-linecap:round; stroke-linejoin:round;fill-rule:evenodd;"
d="M 59541,29185
59541,29578
58950,29578
58950,29185
59541,29185
Z" /> 
<path style="fill:#000000; fill-opacity:1.0; 
stroke:#000000; stroke-width:0; stroke-opacity:1; 
stroke-linecap:round; stroke-linejoin:round;fill-rule:evenodd;"
d="M 59541,28555
59541,28948
58950,28948
58950,28555
59541,28555
Z" /> 
</g>
<g >
<path style="fill:#000000; fill-opacity:1.0; 
stroke:#000000; stroke-width:0; stroke-opacity:1; 
stroke-linecap:round; stroke-linejoin:round;fill-rule:evenodd;"
d="M 54909,29815
54909,30208
54318,30208
54318,29815
54909,29815
Z" /> 
<path style="fill:#000000; fill-opacity:1.0; 
stroke:#000000; stroke-width:0; stroke-opacity:1; 
stroke-linecap:round; stroke-linejoin:round;fill-rule:evenodd;"
d="M 54909,29185
54909,29578
54318,29578
54318,29185
54909,29185
Z" /> 
<path style="fill:#000000; fill-opacity:1.0; 
stroke:#000000; stroke-width:0; stroke-opacity:1; 
stroke-linecap:round; stroke-linejoin:round;fill-rule:evenodd;"
d="M 54909,28555
54909,28948
54318,28948
54318,28555
54909,28555
Z" /> 
<path style="fill:#000000; fill-opacity:1.0; 
stroke:#000000; stroke-width:0; stroke-opacity:1; 
stroke-linecap:round; stroke-linejoin:round;fill-rule:evenodd;"
d="M 52980,29815
52980,30208
52389,30208
52389,29815
52980,29815
Z" /> 
<path style="fill:#000000; fill-opacity:1.0; 
stroke:#000000; stroke-width:0; stroke-opacity:1; 
stroke-linecap:round; stroke-linejoin:round;fill-rule:evenodd;"
d="M 52980,29185
52980,29578
52389,29578
52389,29185
52980,29185
Z" /> 
<path style="fill:#000000; fill-opacity:1.0; 
stroke:#000000; stroke-width:0; stroke-opacity:1; 
stroke-linecap:round; stroke-linejoin:round;fill-rule:evenodd;"
d="M 52980,28555
52980,28948
52389,28948
52389,28555
52980,28555
Z" /> 
</g>
<g >
<path style="fill:#000000; fill-opacity:1.0; 
stroke:#000000; stroke-width:0; stroke-opacity:1; 
stroke-linecap:round; stroke-linejoin:round;fill-rule:evenodd;"
d="M 48347,29815
48347,30208
47757,30208
47757,29815
48347,29815
Z" /> 
<path style="fill:#000000; fill-opacity:1.0; 
stroke:#000000; stroke-width:0; stroke-opacity:1; 
stroke-linecap:round; stroke-linejoin:round;fill-rule:evenodd;"
d="M 48347,29185
48347,29578
47757,29578
47757,29185
48347,29185
Z" /> 
<path style="fill:#000000; fill-opacity:1.0; 
stroke:#000000; stroke-width:0; stroke-opacity:1; 
stroke-linecap:round; stroke-linejoin:round;fill-rule:evenodd;"
d="M 48347,28555
48347,28948
47757,28948
47757,28555
48347,28555
Z" /> 
<path style="fill:#000000; fill-opacity:1.0; 
stroke:#000000; stroke-width:0; stroke-opacity:1; 
stroke-linecap:round; stroke-linejoin:round;fill-rule:evenodd;"
d="M 46418,29815
46418,30208
45828,30208
45828,29815
46418,29815
Z" /> 
<path style="fill:#000000; fill-opacity:1.0; 
stroke:#000000; stroke-width:0; stroke-opacity:1; 
stroke-linecap:round; stroke-linejoin:round;fill-rule:evenodd;"
d="M 46418,29185
46418,29578
45828,29578
45828,29185
46418,29185
Z" /> 
<path style="fill:#000000; fill-opacity:1.0; 
stroke:#000000; stroke-width:0; stroke-opacity:1; 
stroke-linecap:round; stroke-linejoin:round;fill-rule:evenodd;"
d="M 46418,28555
46418,28948
45828,28948
45828,28555
46418,28555
Z" /> 
</g>
<g >
<path style="fill:#000000; fill-opacity:1.0; 
stroke:#000000; stroke-width:0; stroke-opacity:1; 
stroke-linecap:round; stroke-linejoin:round;fill-rule:evenodd;"
d="M 41786,29815
41786,30208
41196,30208
41196,29815
41786,29815
Z" /> 
<path style="fill:#000000; fill-opacity:1.0; 
stroke:#000000; stroke-width:0; stroke-opacity:1; 
stroke-linecap:round; stroke-linejoin:round;fill-rule:evenodd;"
d="M 41786,29185
41786,29578
41196,29578
41196,29185
41786,29185
Z" /> 
<path style="fill:#000000; fill-opacity:1.0; 
stroke:#000000; stroke-width:0; stroke-opacity:1; 
stroke-linecap:round; stroke-linejoin:round;fill-rule:evenodd;"
d="M 41786,28555
41786,28948
41196,28948
41196,28555
41786,28555
Z" /> 
<path style="fill:#000000; fill-opacity:1.0; 
stroke:#000000; stroke-width:0; stroke-opacity:1; 
stroke-linecap:round; stroke-linejoin:round;fill-rule:evenodd;"
d="M 39857,29815
39857,30208
39266,30208
39266,29815
39857,29815
Z" /> 
<path style="fill:#000000; fill-opacity:1.0; 
stroke:#000000; stroke-width:0; stroke-opacity:1; 
stroke-linecap:round; stroke-linejoin:round;fill-rule:evenodd;"
d="M 39857,29185
39857,29578
39266,29578
39266,29185
39857,29185
Z" /> 
<path style="fill:#000000; fill-opacity:1.0; 
stroke:#000000; stroke-width:0; stroke-opacity:1; 
stroke-linecap:round; stroke-linejoin:round;fill-rule:evenodd;"
d="M 39857,28555
39857,28948
39266,28948
39266,28555
39857,28555
Z" /> 
</g>
<g >
<path style="fill:#000000; fill-opacity:1.0; 
stroke:#000000; stroke-width:0; stroke-opacity:1; 
stroke-linecap:round; stroke-linejoin:round;fill-rule:evenodd;"
d="M 36312,29719
36321,29720
36331,29723
36339,29726
36348,29730
36356,29735
36364,29740
36371,29747
36377,29754
36383,29761
36387,29769
36391,29778
36395,29787
36397,29796
36398,29805
36399,29815
36399,30006
36398,30016
36397,30025
36395,30034
36391,30043
36387,30052
36383,30060
36377,30067
36371,30074
36364,30081
36356,30086
36348,30091
36339,30095
36331,30098
36321,30101
36312,30102
36303,30102
35944,30102
35934,30102
35925,30101
35916,30098
35907,30095
35898,30091
35890,30086
35883,30081
35876,30074
35869,30067
35864,30060
35859,30052
35855,30043
35852,30034
35849,30025
35848,30016
35848,30006
35848,29815
35848,29805
35849,29796
35852,29787
35855,29778
35859,29769
35864,29761
35869,29754
35876,29747
35883,29740
35890,29735
35898,29730
35907,29726
35916,29723
35925,29720
35934,29719
35944,29719
36303,29719
36312,29719
Z" /> 
<path style="fill:#000000; fill-opacity:1.0; 
stroke:#000000; stroke-width:0; stroke-opacity:1; 
stroke-linecap:round; stroke-linejoin:round;fill-rule:evenodd;"
d="M 36312,28981
36321,28982
36331,28985
36339,28988
36348,28992
36356,28997
36364,29002
36371,29008
36377,29015
36383,29023
36387,29031
36391,29040
36395,29048
36397,29058
36398,29067
36399,29076
36399,29268
36398,29278
36397,29287
36395,29296
36391,29305
36387,29314
36383,29322
36377,29329
36371,29336
36364,29342
36356,29348
36348,29353
36339,29357
36331,29360
36321,29362
36312,29364
36303,29364
35944,29364
35934,29364
35925,29362
35916,29360
35907,29357
35898,29353
35890,29348
35883,29342
35876,29336
35869,29329
35864,29322
35859,29314
35855,29305
35852,29296
35849,29287
35848,29278
35848,29268
35848,29076
35848,29067
35849,29058
35852,29048
35855,29040
35859,29031
35864,29023
35869,29015
35876,29008
35883,29002
35890,28997
35898,28992
35907,28988
35916,28985
35925,28982
35934,28981
35944,28980
36303,28980
36312,28981
Z" /> 
</g>
<g >
<path style="fill:#000000; fill-opacity:1.0; 
stroke:#000000; stroke-width:0; stroke-opacity:1; 
stroke-linecap:round; stroke-linejoin:round;fill-rule:evenodd;"
d="M 42866,29719
42875,29720
42884,29723
42893,29726
42902,29730
42910,29735
42917,29740
42924,29747
42931,29754
42936,29761
42941,29769
42945,29778
42948,29787
42951,29796
42952,29805
42952,29815
42952,30006
42952,30016
42951,30025
42948,30034
42945,30043
42941,30052
42936,30060
42931,30067
42924,30074
42917,30081
42910,30086
42902,30091
42893,30095
42884,30098
42875,30101
42866,30102
42856,30102
42497,30102
42488,30102
42478,30101
42469,30098
42460,30095
42452,30091
42444,30086
42436,30081
42429,30074
42423,30067
42417,30060
42413,30052
42408,30043
42405,30034
42403,30025
42402,30016
42401,30006
42401,29815
42402,29805
42403,29796
42405,29787
42408,29778
42413,29769
42417,29761
42423,29754
42429,29747
42436,29740
42444,29735
42452,29730
42460,29726
42469,29723
42478,29720
42488,29719
42497,29719
42856,29719
42866,29719
Z" /> 
<path style="fill:#000000; fill-opacity:1.0; 
stroke:#000000; stroke-width:0; stroke-opacity:1; 
stroke-linecap:round; stroke-linejoin:round;fill-rule:evenodd;"
d="M 42866,28981
42875,28982
42884,28985
42893,28988
42902,28992
42910,28997
42917,29002
42924,29008
42931,29015
42936,29023
42941,29031
42945,29040
42948,29048
42951,29058
42952,29067
42952,29076
42952,29268
42952,29278
42951,29287
42948,29296
42945,29305
42941,29314
42936,29322
42931,29329
42924,29336
42917,29342
42910,29348
42902,29353
42893,29357
42884,29360
42875,29362
42866,29364
42856,29364
42497,29364
42488,29364
42478,29362
42469,29360
42460,29357
42452,29353
42444,29348
42436,29342
42429,29336
42423,29329
42417,29322
42413,29314
42408,29305
42405,29296
42403,29287
42402,29278
42401,29268
42401,29076
42402,29067
42403,29058
42405,29048
42408,29040
42413,29031
42417,29023
42423,29015
42429,29008
42436,29002
42444,28997
42452,28992
42460,28988
42469,28985
42478,28982
42488,28981
42497,28980
42856,28980
42866,28981
Z" /> 
</g>
<g >
<path style="fill:#000000; fill-opacity:1.0; 
stroke:#000000; stroke-width:0; stroke-opacity:1; 
stroke-linecap:round; stroke-linejoin:round;fill-rule:evenodd;"
d="M 49419,29719
49429,29720
49438,29723
49447,29726
49455,29730
49463,29735
49471,29740
49478,29747
49484,29754
49490,29761
49495,29769
49499,29778
49502,29787
49504,29796
49506,29805
49506,29815
49506,30006
49506,30016
49504,30025
49502,30034
49499,30043
49495,30052
49490,30060
49484,30067
49478,30074
49471,30081
49463,30086
49455,30091
49447,30095
49438,30098
49429,30101
49419,30102
49410,30102
49051,30102
49041,30102
49032,30101
49023,30098
49014,30095
49006,30091
48997,30086
48990,30081
48983,30074
48977,30067
48971,30060
48966,30052
48962,30043
48959,30034
48957,30025
48955,30016
48955,30006
48955,29815
48955,29805
48957,29796
48959,29787
48962,29778
48966,29769
48971,29761
48977,29754
48983,29747
48990,29740
48997,29735
49006,29730
49014,29726
49023,29723
49032,29720
49041,29719
49051,29719
49410,29719
49419,29719
Z" /> 
<path style="fill:#000000; fill-opacity:1.0; 
stroke:#000000; stroke-width:0; stroke-opacity:1; 
stroke-linecap:round; stroke-linejoin:round;fill-rule:evenodd;"
d="M 49419,28981
49429,28982
49438,28985
49447,28988
49455,28992
49463,28997
49471,29002
49478,29008
49484,29015
49490,29023
49495,29031
49499,29040
49502,29048
49504,29058
49506,29067
49506,29076
49506,29268
49506,29278
49504,29287
49502,29296
49499,29305
49495,29314
49490,29322
49484,29329
49478,29336
49471,29342
49463,29348
49455,29353
49447,29357
49438,29360
49429,29362
49419,29364
49410,29364
49051,29364
49041,29364
49032,29362
49023,29360
49014,29357
49006,29353
48997,29348
48990,29342
48983,29336
48977,29329
48971,29322
48966,29314
48962,29305
48959,29296
48957,29287
48955,29278
48955,29268
48955,29076
48955,29067
48957,29058
48959,29048
48962,29040
48966,29031
48971,29023
48977,29015
48983,29008
48990,29002
48997,28997
49006,28992
49014,28988
49023,28985
49032,28982
49041,28981
49051,28980
49410,28980
49419,28981
Z" /> 
</g>
<g >
<path style="fill:#000000; fill-opacity:1.0; 
stroke:#000000; stroke-width:0; stroke-opacity:1; 
stroke-linecap:round; stroke-linejoin:round;fill-rule:evenodd;"
d="M 55973,29719
55982,29720
55992,29723
56000,29726
56009,29730
56017,29735
56025,29740
56032,29747
56038,29754
56043,29761
56048,29769
56052,29778
56056,29787
56058,29796
56059,29805
56060,29815
56060,30006
56059,30016
56058,30025
56056,30034
56052,30043
56048,30052
56043,30060
56038,30067
56032,30074
56025,30081
56017,30086
56009,30091
56000,30095
55992,30098
55982,30101
55973,30102
55964,30102
55604,30102
55595,30102
55586,30101
55577,30098
55568,30095
55559,30091
55551,30086
55544,30081
55537,30074
55530,30067
55525,30060
55520,30052
55516,30043
55513,30034
55510,30025
55509,30016
55508,30006
55508,29815
55509,29805
55510,29796
55513,29787
55516,29778
55520,29769
55525,29761
55530,29754
55537,29747
55544,29740
55551,29735
55559,29730
55568,29726
55577,29723
55586,29720
55595,29719
55604,29719
55964,29719
55973,29719
Z" /> 
<path style="fill:#000000; fill-opacity:1.0; 
stroke:#000000; stroke-width:0; stroke-opacity:1; 
stroke-linecap:round; stroke-linejoin:round;fill-rule:evenodd;"
d="M 55973,28981
55982,28982
55992,28985
56000,28988
56009,28992
56017,28997
56025,29002
56032,29008
56038,29015
56043,29023
56048,29031
56052,29040
56056,29048
56058,29058
56059,29067
56060,29076
56060,29268
56059,29278
56058,29287
56056,29296
56052,29305
56048,29314
56043,29322
56038,29329
56032,29336
56025,29342
56017,29348
56009,29353
56000,29357
55992,29360
55982,29362
55973,29364
55964,29364
55604,29364
55595,29364
55586,29362
55577,29360
55568,29357
55559,29353
55551,29348
55544,29342
55537,29336
55530,29329
55525,29322
55520,29314
55516,29305
55513,29296
55510,29287
55509,29278
55508,29268
55508,29076
55509,29067
55510,29058
55513,29048
55516,29040
55520,29031
55525,29023
55530,29015
55537,29008
55544,29002
55551,28997
55559,28992
55568,28988
55577,28985
55586,28982
55595,28981
55604,28980
55964,28980
55973,28981
Z" /> 
</g>
<g >
<path style="fill:#000000; fill-opacity:1.0; 
stroke:#000000; stroke-width:0; stroke-opacity:1; 
stroke-linecap:round; stroke-linejoin:round;fill-rule:evenodd;"
d="M 62527,29719
62536,29720
62545,29723
62554,29726
62563,29730
62571,29735
62578,29740
62585,29747
62591,29754
62597,29761
62602,29769
62606,29778
62609,29787
62611,29796
62613,29805
62613,29815
62613,30006
62613,30016
62611,30025
62609,30034
62606,30043
62602,30052
62597,30060
62591,30067
62585,30074
62578,30081
62571,30086
62563,30091
62554,30095
62545,30098
62536,30101
62527,30102
62517,30102
62158,30102
62149,30102
62139,30101
62130,30098
62121,30095
62113,30091
62105,30086
62097,30081
62090,30074
62084,30067
62078,30060
62073,30052
62069,30043
62066,30034
62064,30025
62063,30016
62062,30006
62062,29815
62063,29805
62064,29796
62066,29787
62069,29778
62073,29769
62078,29761
62084,29754
62090,29747
62097,29740
62105,29735
62113,29730
62121,29726
62130,29723
62139,29720
62149,29719
62158,29719
62517,29719
62527,29719
Z" /> 
<path style="fill:#000000; fill-opacity:1.0; 
stroke:#000000; stroke-width:0; stroke-opacity:1; 
stroke-linecap:round; stroke-linejoin:round;fill-rule:evenodd;"
d="M 62527,28981
62536,28982
62545,28985
62554,28988
62563,28992
62571,28997
62578,29002
62585,29008
62591,29015
62597,29023
62602,29031
62606,29040
62609,29048
62611,29058
62613,29067
62613,29076
62613,29268
62613,29278
62611,29287
62609,29296
62606,29305
62602,29314
62597,29322
62591,29329
62585,29336
62578,29342
62571,29348
62563,29353
62554,29357
62545,29360
62536,29362
62527,29364
62517,29364
62158,29364
62149,29364
62139,29362
62130,29360
62121,29357
62113,29353
62105,29348
62097,29342
62090,29336
62084,29329
62078,29322
62073,29314
62069,29305
62066,29296
62064,29287
62063,29278
62062,29268
62062,29076
62063,29067
62064,29058
62066,29048
62069,29040
62073,29031
62078,29023
62084,29015
62090,29008
62097,29002
62105,28997
62113,28992
62121,28988
62130,28985
62139,28982
62149,28981
62158,28980
62517,28980
62527,28981
Z" /> 
</g>
<g >
<path style="fill:#000000; fill-opacity:1.0; 
stroke:#000000; stroke-width:0; stroke-opacity:1; 
stroke-linecap:round; stroke-linejoin:round;fill-rule:evenodd;"
d="M 69080,29719
69090,29720
69099,29723
69108,29726
69116,29730
69124,29735
69132,29740
69139,29747
69145,29754
69151,29761
69156,29769
69160,29778
69163,29787
69165,29796
69166,29805
69167,29815
69167,30006
69166,30016
69165,30025
69163,30034
69160,30043
69156,30052
69151,30060
69145,30067
69139,30074
69132,30081
69124,30086
69116,30091
69108,30095
69099,30098
69090,30101
69080,30102
69071,30102
68712,30102
68702,30102
68693,30101
68684,30098
68675,30095
68666,30091
68658,30086
68651,30081
68644,30074
68638,30067
68632,30060
68627,30052
68623,30043
68620,30034
68618,30025
68616,30016
68616,30006
68616,29815
68616,29805
68618,29796
68620,29787
68623,29778
68627,29769
68632,29761
68638,29754
68644,29747
68651,29740
68658,29735
68666,29730
68675,29726
68684,29723
68693,29720
68702,29719
68712,29719
69071,29719
69080,29719
Z" /> 
<path style="fill:#000000; fill-opacity:1.0; 
stroke:#000000; stroke-width:0; stroke-opacity:1; 
stroke-linecap:round; stroke-linejoin:round;fill-rule:evenodd;"
d="M 69080,28981
69090,28982
69099,28985
69108,28988
69116,28992
69124,28997
69132,29002
69139,29008
69145,29015
69151,29023
69156,29031
69160,29040
69163,29048
69165,29058
69166,29067
69167,29076
69167,29268
69166,29278
69165,29287
69163,29296
69160,29305
69156,29314
69151,29322
69145,29329
69139,29336
69132,29342
69124,29348
69116,29353
69108,29357
69099,29360
69090,29362
69080,29364
69071,29364
68712,29364
68702,29364
68693,29362
68684,29360
68675,29357
68666,29353
68658,29348
68651,29342
68644,29336
68638,29329
68632,29322
68627,29314
68623,29305
68620,29296
68618,29287
68616,29278
68616,29268
68616,29076
68616,29067
68618,29058
68620,29048
68623,29040
68627,29031
68632,29023
68638,29015
68644,29008
68651,29002
68658,28997
68666,28992
68675,28988
68684,28985
68693,28982
68702,28981
68712,28980
69071,28980
69080,28981
Z" /> 
</g>
<g >
<path style="fill:#000000; fill-opacity:1.0; 
stroke:#000000; stroke-width:0; stroke-opacity:1; 
stroke-linecap:round; stroke-linejoin:round;fill-rule:evenodd;"
d="M 75634,29719
75643,29720
75652,29723
75661,29726
75670,29730
75678,29735
75685,29740
75692,29747
75699,29754
75704,29761
75709,29769
75713,29778
75716,29787
75719,29796
75720,29805
75721,29815
75721,30006
75720,30016
75719,30025
75716,30034
75713,30043
75709,30052
75704,30060
75699,30067
75692,30074
75685,30081
75678,30086
75670,30091
75661,30095
75652,30098
75643,30101
75634,30102
75625,30102
75265,30102
75256,30102
75247,30101
75237,30098
75229,30095
75220,30091
75212,30086
75204,30081
75197,30074
75191,30067
75186,30060
75181,30052
75177,30043
75173,30034
75171,30025
75170,30016
75169,30006
75169,29815
75170,29805
75171,29796
75173,29787
75177,29778
75181,29769
75186,29761
75191,29754
75197,29747
75204,29740
75212,29735
75220,29730
75229,29726
75237,29723
75247,29720
75256,29719
75265,29719
75625,29719
75634,29719
Z" /> 
<path style="fill:#000000; fill-opacity:1.0; 
stroke:#000000; stroke-width:0; stroke-opacity:1; 
stroke-linecap:round; stroke-linejoin:round;fill-rule:evenodd;"
d="M 75634,28981
75643,28982
75652,28985
75661,28988
75670,28992
75678,28997
75685,29002
75692,29008
75699,29015
75704,29023
75709,29031
75713,29040
75716,29048
75719,29058
75720,29067
75721,29076
75721,29268
75720,29278
75719,29287
75716,29296
75713,29305
75709,29314
75704,29322
75699,29329
75692,29336
75685,29342
75678,29348
75670,29353
75661,29357
75652,29360
75643,29362
75634,29364
75625,29364
75265,29364
75256,29364
75247,29362
75237,29360
75229,29357
75220,29353
75212,29348
75204,29342
75197,29336
75191,29329
75186,29322
75181,29314
75177,29305
75173,29296
75171,29287
75170,29278
75169,29268
75169,29076
75170,29067
75171,29058
75173,29048
75177,29040
75181,29031
75186,29023
75191,29015
75197,29008
75204,29002
75212,28997
75220,28992
75229,28988
75237,28985
75247,28982
75256,28981
75265,28980
75625,28980
75634,28981
Z" /> 
</g>
<g >
<path style="fill:#000000; fill-opacity:1.0; 
stroke:#000000; stroke-width:0; stroke-opacity:1; 
stroke-linecap:round; stroke-linejoin:round;fill-rule:evenodd;"
d="M 80237,27412
80246,27414
80255,27416
80264,27419
80273,27423
80281,27428
80288,27434
80295,27440
80302,27447
80307,27455
80312,27463
80316,27471
80319,27480
80321,27489
80323,27498
80323,27508
80323,27867
80323,27877
80321,27886
80319,27895
80316,27904
80312,27912
80307,27920
80302,27928
80295,27935
80288,27941
80281,27947
80273,27952
80264,27956
80255,27959
80246,27961
80237,27963
80227,27963
80035,27963
80026,27963
80017,27961
80008,27959
79999,27956
79990,27952
79982,27947
79975,27941
79968,27935
79961,27928
79956,27920
79951,27912
79947,27904
79944,27895
79941,27886
79940,27877
79939,27867
79939,27508
79940,27498
79941,27489
79944,27480
79947,27471
79951,27463
79956,27455
79961,27447
79968,27440
79975,27434
79982,27428
79990,27423
79999,27419
80008,27416
80017,27414
80026,27412
80035,27412
80227,27412
80237,27412
Z" /> 
<path style="fill:#000000; fill-opacity:1.0; 
stroke:#000000; stroke-width:0; stroke-opacity:1; 
stroke-linecap:round; stroke-linejoin:round;fill-rule:evenodd;"
d="M 80975,27412
80984,27414
80993,27416
81002,27419
81011,27423
81019,27428
81026,27434
81033,27440
81040,27447
81045,27455
81050,27463
81054,27471
81057,27480
81060,27489
81061,27498
81062,27508
81062,27867
81061,27877
81060,27886
81057,27895
81054,27904
81050,27912
81045,27920
81040,27928
81033,27935
81026,27941
81019,27947
81011,27952
81002,27956
80993,27959
80984,27961
80975,27963
80966,27963
80774,27963
80764,27963
80755,27961
80746,27959
80737,27956
80728,27952
80720,27947
80713,27941
80706,27935
80699,27928
80694,27920
80689,27912
80685,27904
80682,27895
80680,27886
80678,27877
80678,27867
80678,27508
80678,27498
80680,27489
80682,27480
80685,27471
80689,27463
80694,27455
80699,27447
80706,27440
80713,27434
80720,27428
80728,27423
80737,27419
80746,27416
80755,27414
80764,27412
80774,27412
80966,27412
80975,27412
Z" /> 
</g>
<g >
<path style="fill:#000000; fill-opacity:1.0; 
stroke:#000000; stroke-width:0; stroke-opacity:1; 
stroke-linecap:round; stroke-linejoin:round;fill-rule:evenodd;"
d="M 88741,29719
88751,29720
88760,29723
88769,29726
88777,29730
88785,29735
88793,29740
88800,29747
88806,29754
88812,29761
88816,29769
88821,29778
88824,29787
88826,29796
88827,29805
88828,29815
88828,30006
88827,30016
88826,30025
88824,30034
88821,30043
88816,30052
88812,30060
88806,30067
88800,30074
88793,30081
88785,30086
88777,30091
88769,30095
88760,30098
88751,30101
88741,30102
88732,30102
88373,30102
88363,30102
88354,30101
88345,30098
88336,30095
88327,30091
88319,30086
88312,30081
88305,30074
88298,30067
88293,30060
88288,30052
88284,30043
88281,30034
88278,30025
88277,30016
88277,30006
88277,29815
88277,29805
88278,29796
88281,29787
88284,29778
88288,29769
88293,29761
88298,29754
88305,29747
88312,29740
88319,29735
88327,29730
88336,29726
88345,29723
88354,29720
88363,29719
88373,29719
88732,29719
88741,29719
Z" /> 
<path style="fill:#000000; fill-opacity:1.0; 
stroke:#000000; stroke-width:0; stroke-opacity:1; 
stroke-linecap:round; stroke-linejoin:round;fill-rule:evenodd;"
d="M 88741,28981
88751,28982
88760,28985
88769,28988
88777,28992
88785,28997
88793,29002
88800,29008
88806,29015
88812,29023
88816,29031
88821,29040
88824,29048
88826,29058
88827,29067
88828,29076
88828,29268
88827,29278
88826,29287
88824,29296
88821,29305
88816,29314
88812,29322
88806,29329
88800,29336
88793,29342
88785,29348
88777,29353
88769,29357
88760,29360
88751,29362
88741,29364
88732,29364
88373,29364
88363,29364
88354,29362
88345,29360
88336,29357
88327,29353
88319,29348
88312,29342
88305,29336
88298,29329
88293,29322
88288,29314
88284,29305
88281,29296
88278,29287
88277,29278
88277,29268
88277,29076
88277,29067
88278,29058
88281,29048
88284,29040
88288,29031
88293,29023
88298,29015
88305,29008
88312,29002
88319,28997
88327,28992
88336,28988
88345,28985
88354,28982
88363,28981
88373,28980
88732,28980
88741,28981
Z" /> 
</g>
<g >
<path style="fill:#000000; fill-opacity:1.0; 
stroke:#000000; stroke-width:0; stroke-opacity:1; 
stroke-linecap:round; stroke-linejoin:round;fill-rule:evenodd;"
d="M 95295,29719
95304,29720
95313,29723
95322,29726
95331,29730
95339,29735
95346,29740
95353,29747
95360,29754
95365,29761
95370,29769
95374,29778
95377,29787
95380,29796
95381,29805
95381,29815
95381,30006
95381,30016
95380,30025
95377,30034
95374,30043
95370,30052
95365,30060
95360,30067
95353,30074
95346,30081
95339,30086
95331,30091
95322,30095
95313,30098
95304,30101
95295,30102
95285,30102
94926,30102
94917,30102
94908,30101
94898,30098
94890,30095
94881,30091
94873,30086
94865,30081
94858,30074
94852,30067
94846,30060
94842,30052
94838,30043
94834,30034
94832,30025
94831,30016
94830,30006
94830,29815
94831,29805
94832,29796
94834,29787
94838,29778
94842,29769
94846,29761
94852,29754
94858,29747
94865,29740
94873,29735
94881,29730
94890,29726
94898,29723
94908,29720
94917,29719
94926,29719
95285,29719
95295,29719
Z" /> 
<path style="fill:#000000; fill-opacity:1.0; 
stroke:#000000; stroke-width:0; stroke-opacity:1; 
stroke-linecap:round; stroke-linejoin:round;fill-rule:evenodd;"
d="M 95295,28981
95304,28982
95313,28985
95322,28988
95331,28992
95339,28997
95346,29002
95353,29008
95360,29015
95365,29023
95370,29031
95374,29040
95377,29048
95380,29058
95381,29067
95381,29076
95381,29268
95381,29278
95380,29287
95377,29296
95374,29305
95370,29314
95365,29322
95360,29329
95353,29336
95346,29342
95339,29348
95331,29353
95322,29357
95313,29360
95304,29362
95295,29364
95285,29364
94926,29364
94917,29364
94908,29362
94898,29360
94890,29357
94881,29353
94873,29348
94865,29342
94858,29336
94852,29329
94846,29322
94842,29314
94838,29305
94834,29296
94832,29287
94831,29278
94830,29268
94830,29076
94831,29067
94832,29058
94834,29048
94838,29040
94842,29031
94846,29023
94852,29015
94858,29008
94865,29002
94873,28997
94881,28992
94890,28988
94898,28985
94908,28982
94917,28981
94926,28980
95285,28980
95295,28981
Z" /> 
</g>
<g >
<path style="fill:#000000; fill-opacity:1.0; 
stroke:#000000; stroke-width:0; stroke-opacity:1; 
stroke-linecap:round; stroke-linejoin:round;fill-rule:evenodd;"
d="M 101989,29719
101999,29720
102008,29723
102017,29726
102025,29730
102033,29735
102041,29740
102048,29747
102054,29754
102060,29761
102065,29769
102069,29778
102072,29787
102074,29796
102076,29805
102076,29815
102076,30006
102076,30016
102074,30025
102072,30034
102069,30043
102065,30052
102060,30060
102054,30067
102048,30074
102041,30081
102033,30086
102025,30091
102017,30095
102008,30098
101999,30101
101989,30102
101980,30102
101621,30102
101611,30102
101602,30101
101593,30098
101584,30095
101576,30091
101567,30086
101560,30081
101553,30074
101547,30067
101541,30060
101536,30052
101532,30043
101529,30034
101527,30025
101525,30016
101525,30006
101525,29815
101525,29805
101527,29796
101529,29787
101532,29778
101536,29769
101541,29761
101547,29754
101553,29747
101560,29740
101567,29735
101576,29730
101584,29726
101593,29723
101602,29720
101611,29719
101621,29719
101980,29719
101989,29719
Z" /> 
<path style="fill:#000000; fill-opacity:1.0; 
stroke:#000000; stroke-width:0; stroke-opacity:1; 
stroke-linecap:round; stroke-linejoin:round;fill-rule:evenodd;"
d="M 101989,28981
101999,28982
102008,28985
102017,28988
102025,28992
102033,28997
102041,29002
102048,29008
102054,29015
102060,29023
102065,29031
102069,29040
102072,29048
102074,29058
102076,29067
102076,29076
102076,29268
102076,29278
102074,29287
102072,29296
102069,29305
102065,29314
102060,29322
102054,29329
102048,29336
102041,29342
102033,29348
102025,29353
102017,29357
102008,29360
101999,29362
101989,29364
101980,29364
101621,29364
101611,29364
101602,29362
101593,29360
101584,29357
101576,29353
101567,29348
101560,29342
101553,29336
101547,29329
101541,29322
101536,29314
101532,29305
101529,29296
101527,29287
101525,29278
101525,29268
101525,29076
101525,29067
101527,29058
101529,29048
101532,29040
101536,29031
101541,29023
101547,29015
101553,29008
101560,29002
101567,28997
101576,28992
101584,28988
101593,28985
101602,28982
101611,28981
101621,28980
101980,28980
101989,28981
Z" /> 
</g>
<g >
<path style="fill:#000000; fill-opacity:1.0; 
stroke:#000000; stroke-width:0; stroke-opacity:1; 
stroke-linecap:round; stroke-linejoin:round;fill-rule:evenodd;"
d="M 70180,28981
70190,28982
70199,28985
70208,28988
70216,28992
70224,28997
70232,29002
70239,29008
70245,29015
70251,29023
70256,29031
70260,29040
70263,29048
70265,29058
70266,29067
70267,29076
70267,29268
70266,29278
70265,29287
70263,29296
70260,29305
70256,29314
70251,29322
70245,29329
70239,29336
70232,29342
70224,29348
70216,29353
70208,29357
70199,29360
70190,29362
70180,29364
70171,29364
69812,29364
69802,29364
69793,29362
69784,29360
69775,29357
69766,29353
69758,29348
69751,29342
69744,29336
69738,29329
69732,29322
69727,29314
69723,29305
69720,29296
69718,29287
69716,29278
69716,29268
69716,29076
69716,29067
69718,29058
69720,29048
69723,29040
69727,29031
69732,29023
69738,29015
69744,29008
69751,29002
69758,28997
69766,28992
69775,28988
69784,28985
69793,28982
69802,28981
69812,28980
70171,28980
70180,28981
Z" /> 
<path style="fill:#000000; fill-opacity:1.0; 
stroke:#000000; stroke-width:0; stroke-opacity:1; 
stroke-linecap:round; stroke-linejoin:round;fill-rule:evenodd;"
d="M 70180,29719
70190,29720
70199,29723
70208,29726
70216,29730
70224,29735
70232,29740
70239,29747
70245,29754
70251,29761
70256,29769
70260,29778
70263,29787
70265,29796
70266,29805
70267,29815
70267,30006
70266,30016
70265,30025
70263,30034
70260,30043
70256,30052
70251,30060
70245,30067
70239,30074
70232,30081
70224,30086
70216,30091
70208,30095
70199,30098
70190,30101
70180,30102
70171,30102
69812,30102
69802,30102
69793,30101
69784,30098
69775,30095
69766,30091
69758,30086
69751,30081
69744,30074
69738,30067
69732,30060
69727,30052
69723,30043
69720,30034
69718,30025
69716,30016
69716,30006
69716,29815
69716,29805
69718,29796
69720,29787
69723,29778
69727,29769
69732,29761
69738,29754
69744,29747
69751,29740
69758,29735
69766,29730
69775,29726
69784,29723
69793,29720
69802,29719
69812,29719
70171,29719
70180,29719
Z" /> 
</g>
<g >
<path style="fill:#000000; fill-opacity:1.0; 
stroke:#000000; stroke-width:0; stroke-opacity:1; 
stroke-linecap:round; stroke-linejoin:round;fill-rule:evenodd;"
d="M 63627,28981
63636,28982
63645,28985
63654,28988
63663,28992
63671,28997
63678,29002
63685,29008
63691,29015
63697,29023
63702,29031
63706,29040
63709,29048
63711,29058
63713,29067
63713,29076
63713,29268
63713,29278
63711,29287
63709,29296
63706,29305
63702,29314
63697,29322
63691,29329
63685,29336
63678,29342
63671,29348
63663,29353
63654,29357
63645,29360
63636,29362
63627,29364
63617,29364
63258,29364
63249,29364
63239,29362
63230,29360
63221,29357
63213,29353
63205,29348
63197,29342
63190,29336
63184,29329
63178,29322
63173,29314
63169,29305
63166,29296
63164,29287
63163,29278
63162,29268
63162,29076
63163,29067
63164,29058
63166,29048
63169,29040
63173,29031
63178,29023
63184,29015
63190,29008
63197,29002
63205,28997
63213,28992
63221,28988
63230,28985
63239,28982
63249,28981
63258,28980
63617,28980
63627,28981
Z" /> 
<path style="fill:#000000; fill-opacity:1.0; 
stroke:#000000; stroke-width:0; stroke-opacity:1; 
stroke-linecap:round; stroke-linejoin:round;fill-rule:evenodd;"
d="M 63627,29719
63636,29720
63645,29723
63654,29726
63663,29730
63671,29735
63678,29740
63685,29747
63691,29754
63697,29761
63702,29769
63706,29778
63709,29787
63711,29796
63713,29805
63713,29815
63713,30006
63713,30016
63711,30025
63709,30034
63706,30043
63702,30052
63697,30060
63691,30067
63685,30074
63678,30081
63671,30086
63663,30091
63654,30095
63645,30098
63636,30101
63627,30102
63617,30102
63258,30102
63249,30102
63239,30101
63230,30098
63221,30095
63213,30091
63205,30086
63197,30081
63190,30074
63184,30067
63178,30060
63173,30052
63169,30043
63166,30034
63164,30025
63163,30016
63162,30006
63162,29815
63163,29805
63164,29796
63166,29787
63169,29778
63173,29769
63178,29761
63184,29754
63190,29747
63197,29740
63205,29735
63213,29730
63221,29726
63230,29723
63239,29720
63249,29719
63258,29719
63617,29719
63627,29719
Z" /> 
</g>
<g >
<path style="fill:#000000; fill-opacity:1.0; 
stroke:#000000; stroke-width:0; stroke-opacity:1; 
stroke-linecap:round; stroke-linejoin:round;fill-rule:evenodd;"
d="M 57073,28981
57082,28982
57092,28985
57100,28988
57109,28992
57117,28997
57125,29002
57132,29008
57138,29015
57143,29023
57148,29031
57152,29040
57156,29048
57158,29058
57159,29067
57160,29076
57160,29268
57159,29278
57158,29287
57156,29296
57152,29305
57148,29314
57143,29322
57138,29329
57132,29336
57125,29342
57117,29348
57109,29353
57100,29357
57092,29360
57082,29362
57073,29364
57064,29364
56704,29364
56695,29364
56686,29362
56677,29360
56668,29357
56659,29353
56651,29348
56644,29342
56637,29336
56630,29329
56625,29322
56620,29314
56616,29305
56613,29296
56610,29287
56609,29278
56608,29268
56608,29076
56609,29067
56610,29058
56613,29048
56616,29040
56620,29031
56625,29023
56630,29015
56637,29008
56644,29002
56651,28997
56659,28992
56668,28988
56677,28985
56686,28982
56695,28981
56704,28980
57064,28980
57073,28981
Z" /> 
<path style="fill:#000000; fill-opacity:1.0; 
stroke:#000000; stroke-width:0; stroke-opacity:1; 
stroke-linecap:round; stroke-linejoin:round;fill-rule:evenodd;"
d="M 57073,29719
57082,29720
57092,29723
57100,29726
57109,29730
57117,29735
57125,29740
57132,29747
57138,29754
57143,29761
57148,29769
57152,29778
57156,29787
57158,29796
57159,29805
57160,29815
57160,30006
57159,30016
57158,30025
57156,30034
57152,30043
57148,30052
57143,30060
57138,30067
57132,30074
57125,30081
57117,30086
57109,30091
57100,30095
57092,30098
57082,30101
57073,30102
57064,30102
56704,30102
56695,30102
56686,30101
56677,30098
56668,30095
56659,30091
56651,30086
56644,30081
56637,30074
56630,30067
56625,30060
56620,30052
56616,30043
56613,30034
56610,30025
56609,30016
56608,30006
56608,29815
56609,29805
56610,29796
56613,29787
56616,29778
56620,29769
56625,29761
56630,29754
56637,29747
56644,29740
56651,29735
56659,29730
56668,29726
56677,29723
56686,29720
56695,29719
56704,29719
57064,29719
57073,29719
Z" /> 
</g>
<g >
<path style="fill:#000000; fill-opacity:1.0; 
stroke:#000000; stroke-width:0; stroke-opacity:1; 
stroke-linecap:round; stroke-linejoin:round;fill-rule:evenodd;"
d="M 50519,28981
50529,28982
50538,28985
50547,28988
50555,28992
50563,28997
50571,29002
50578,29008
50584,29015
50590,29023
50595,29031
50599,29040
50602,29048
50604,29058
50606,29067
50606,29076
50606,29268
50606,29278
50604,29287
50602,29296
50599,29305
50595,29314
50590,29322
50584,29329
50578,29336
50571,29342
50563,29348
50555,29353
50547,29357
50538,29360
50529,29362
50519,29364
50510,29364
50151,29364
50141,29364
50132,29362
50123,29360
50114,29357
50106,29353
50097,29348
50090,29342
50083,29336
50077,29329
50071,29322
50066,29314
50062,29305
50059,29296
50057,29287
50055,29278
50055,29268
50055,29076
50055,29067
50057,29058
50059,29048
50062,29040
50066,29031
50071,29023
50077,29015
50083,29008
50090,29002
50097,28997
50106,28992
50114,28988
50123,28985
50132,28982
50141,28981
50151,28980
50510,28980
50519,28981
Z" /> 
<path style="fill:#000000; fill-opacity:1.0; 
stroke:#000000; stroke-width:0; stroke-opacity:1; 
stroke-linecap:round; stroke-linejoin:round;fill-rule:evenodd;"
d="M 50519,29719
50529,29720
50538,29723
50547,29726
50555,29730
50563,29735
50571,29740
50578,29747
50584,29754
50590,29761
50595,29769
50599,29778
50602,29787
50604,29796
50606,29805
50606,29815
50606,30006
50606,30016
50604,30025
50602,30034
50599,30043
50595,30052
50590,30060
50584,30067
50578,30074
50571,30081
50563,30086
50555,30091
50547,30095
50538,30098
50529,30101
50519,30102
50510,30102
50151,30102
50141,30102
50132,30101
50123,30098
50114,30095
50106,30091
50097,30086
50090,30081
50083,30074
50077,30067
50071,30060
50066,30052
50062,30043
50059,30034
50057,30025
50055,30016
50055,30006
50055,29815
50055,29805
50057,29796
50059,29787
50062,29778
50066,29769
50071,29761
50077,29754
50083,29747
50090,29740
50097,29735
50106,29730
50114,29726
50123,29723
50132,29720
50141,29719
50151,29719
50510,29719
50519,29719
Z" /> 
</g>
<g >
<path style="fill:#000000; fill-opacity:1.0; 
stroke:#000000; stroke-width:0; stroke-opacity:1; 
stroke-linecap:round; stroke-linejoin:round;fill-rule:evenodd;"
d="M 43966,28981
43975,28982
43984,28985
43993,28988
44002,28992
44010,28997
44017,29002
44024,29008
44031,29015
44036,29023
44041,29031
44045,29040
44048,29048
44051,29058
44052,29067
44052,29076
44052,29268
44052,29278
44051,29287
44048,29296
44045,29305
44041,29314
44036,29322
44031,29329
44024,29336
44017,29342
44010,29348
44002,29353
43993,29357
43984,29360
43975,29362
43966,29364
43956,29364
43597,29364
43588,29364
43578,29362
43569,29360
43560,29357
43552,29353
43544,29348
43536,29342
43529,29336
43523,29329
43517,29322
43513,29314
43508,29305
43505,29296
43503,29287
43502,29278
43501,29268
43501,29076
43502,29067
43503,29058
43505,29048
43508,29040
43513,29031
43517,29023
43523,29015
43529,29008
43536,29002
43544,28997
43552,28992
43560,28988
43569,28985
43578,28982
43588,28981
43597,28980
43956,28980
43966,28981
Z" /> 
<path style="fill:#000000; fill-opacity:1.0; 
stroke:#000000; stroke-width:0; stroke-opacity:1; 
stroke-linecap:round; stroke-linejoin:round;fill-rule:evenodd;"
d="M 43966,29719
43975,29720
43984,29723
43993,29726
44002,29730
44010,29735
44017,29740
44024,29747
44031,29754
44036,29761
44041,29769
44045,29778
44048,29787
44051,29796
44052,29805
44052,29815
44052,30006
44052,30016
44051,30025
44048,30034
44045,30043
44041,30052
44036,30060
44031,30067
44024,30074
44017,30081
44010,30086
44002,30091
43993,30095
43984,30098
43975,30101
43966,30102
43956,30102
43597,30102
43588,30102
43578,30101
43569,30098
43560,30095
43552,30091
43544,30086
43536,30081
43529,30074
43523,30067
43517,30060
43513,30052
43508,30043
43505,30034
43503,30025
43502,30016
43501,30006
43501,29815
43502,29805
43503,29796
43505,29787
43508,29778
43513,29769
43517,29761
43523,29754
43529,29747
43536,29740
43544,29735
43552,29730
43560,29726
43569,29723
43578,29720
43588,29719
43597,29719
43956,29719
43966,29719
Z" /> 
</g>
<g >
<path style="fill:#000000; fill-opacity:1.0; 
stroke:#000000; stroke-width:0; stroke-opacity:1; 
stroke-linecap:round; stroke-linejoin:round;fill-rule:evenodd;"
d="M 37412,28981
37421,28982
37431,28985
37439,28988
37448,28992
37456,28997
37464,29002
37471,29008
37477,29015
37483,29023
37487,29031
37491,29040
37495,29048
37497,29058
37498,29067
37499,29076
37499,29268
37498,29278
37497,29287
37495,29296
37491,29305
37487,29314
37483,29322
37477,29329
37471,29336
37464,29342
37456,29348
37448,29353
37439,29357
37431,29360
37421,29362
37412,29364
37403,29364
37044,29364
37034,29364
37025,29362
37016,29360
37007,29357
36998,29353
36990,29348
36983,29342
36976,29336
36969,29329
36964,29322
36959,29314
36955,29305
36952,29296
36949,29287
36948,29278
36948,29268
36948,29076
36948,29067
36949,29058
36952,29048
36955,29040
36959,29031
36964,29023
36969,29015
36976,29008
36983,29002
36990,28997
36998,28992
37007,28988
37016,28985
37025,28982
37034,28981
37044,28980
37403,28980
37412,28981
Z" /> 
<path style="fill:#000000; fill-opacity:1.0; 
stroke:#000000; stroke-width:0; stroke-opacity:1; 
stroke-linecap:round; stroke-linejoin:round;fill-rule:evenodd;"
d="M 37412,29719
37421,29720
37431,29723
37439,29726
37448,29730
37456,29735
37464,29740
37471,29747
37477,29754
37483,29761
37487,29769
37491,29778
37495,29787
37497,29796
37498,29805
37499,29815
37499,30006
37498,30016
37497,30025
37495,30034
37491,30043
37487,30052
37483,30060
37477,30067
37471,30074
37464,30081
37456,30086
37448,30091
37439,30095
37431,30098
37421,30101
37412,30102
37403,30102
37044,30102
37034,30102
37025,30101
37016,30098
37007,30095
36998,30091
36990,30086
36983,30081
36976,30074
36969,30067
36964,30060
36959,30052
36955,30043
36952,30034
36949,30025
36948,30016
36948,30006
36948,29815
36948,29805
36949,29796
36952,29787
36955,29778
36959,29769
36964,29761
36969,29754
36976,29747
36983,29740
36990,29735
36998,29730
37007,29726
37016,29723
37025,29720
37034,29719
37044,29719
37403,29719
37412,29719
Z" /> 
</g>
<g >
<path style="fill:#000000; fill-opacity:1.0; 
stroke:#000000; stroke-width:0; stroke-opacity:1; 
stroke-linecap:round; stroke-linejoin:round;fill-rule:evenodd;"
d="M 28584,26457
28594,26458
28603,26460
28612,26463
28620,26468
28628,26472
28636,26478
28643,26484
28649,26491
28655,26499
28659,26507
28663,26515
28667,26524
28669,26533
28670,26543
28671,26552
28671,26911
28670,26921
28669,26930
28667,26939
28663,26948
28659,26957
28655,26965
28649,26972
28643,26979
28636,26986
28628,26991
28620,26996
28612,27000
28603,27003
28594,27006
28584,27007
28575,27007
28383,27007
28373,27007
28364,27006
28355,27003
28346,27000
28338,26996
28330,26991
28322,26986
28315,26979
28309,26972
28303,26965
28298,26957
28294,26948
28291,26939
28289,26930
28287,26921
28287,26911
28287,26552
28287,26543
28289,26533
28291,26524
28294,26515
28298,26507
28303,26499
28309,26491
28315,26484
28322,26478
28330,26472
28338,26468
28346,26463
28355,26460
28364,26458
28373,26457
28383,26456
28575,26456
28584,26457
Z" /> 
<path style="fill:#000000; fill-opacity:1.0; 
stroke:#000000; stroke-width:0; stroke-opacity:1; 
stroke-linecap:round; stroke-linejoin:round;fill-rule:evenodd;"
d="M 27846,26457
27855,26458
27864,26460
27873,26463
27882,26468
27890,26472
27897,26478
27904,26484
27911,26491
27916,26499
27921,26507
27925,26515
27928,26524
27931,26533
27932,26543
27933,26552
27933,26911
27932,26921
27931,26930
27928,26939
27925,26948
27921,26957
27916,26965
27911,26972
27904,26979
27897,26986
27890,26991
27882,26996
27873,27000
27864,27003
27855,27006
27846,27007
27837,27007
27645,27007
27635,27007
27626,27006
27617,27003
27608,27000
27599,26996
27591,26991
27584,26986
27577,26979
27570,26972
27565,26965
27560,26957
27556,26948
27553,26939
27551,26930
27549,26921
27549,26911
27549,26552
27549,26543
27551,26533
27553,26524
27556,26515
27560,26507
27565,26499
27570,26491
27577,26484
27584,26478
27591,26472
27599,26468
27608,26463
27617,26460
27626,26458
27635,26457
27645,26456
27837,26456
27846,26457
Z" /> 
</g>
<g >
</g>
<g >
</g>
<g >
</g>
</g> 
</svg>
