G04 #@! TF.GenerationSoftware,KiCad,Pcbnew,(5.0.0-3-g5ebb6b6)*
G04 #@! TF.CreationDate,2019-02-17T13:25:32-08:00*
G04 #@! TF.ProjectId,BCInside,4243496E736964652E6B696361645F70,rev?*
G04 #@! TF.SameCoordinates,Original*
G04 #@! TF.FileFunction,Copper,L4,Bot,Signal*
G04 #@! TF.FilePolarity,Positive*
%FSLAX46Y46*%
G04 Gerber Fmt 4.6, Leading zero omitted, Abs format (unit mm)*
G04 Created by KiCad (PCBNEW (5.0.0-3-g5ebb6b6)) date Sunday, February 17, 2019 at 01:25:32 PM*
%MOMM*%
%LPD*%
G01*
G04 APERTURE LIST*
G04 #@! TA.AperFunction,ComponentPad*
%ADD10O,5.080000X1.524000*%
G04 #@! TD*
G04 #@! TA.AperFunction,ViaPad*
%ADD11C,1.000000*%
G04 #@! TD*
G04 #@! TA.AperFunction,Conductor*
%ADD12C,0.500000*%
G04 #@! TD*
G04 APERTURE END LIST*
D10*
G04 #@! TO.P,J1,3*
G04 #@! TO.N,GND*
X57861200Y-76636880D03*
G04 #@! TO.P,J1,2*
G04 #@! TO.N,Net-(D1-Pad4)*
X57861200Y-74604880D03*
G04 #@! TO.P,J1,1*
G04 #@! TO.N,+5V*
X57861200Y-72572880D03*
G04 #@! TD*
G04 #@! TO.P,J2,3*
G04 #@! TO.N,GND*
X314035440Y-76484480D03*
G04 #@! TO.P,J2,2*
G04 #@! TO.N,Net-(D15-Pad3)*
X314035440Y-74452480D03*
G04 #@! TO.P,J2,1*
G04 #@! TO.N,+5V*
X314035440Y-72420480D03*
G04 #@! TD*
D11*
G04 #@! TO.N,+5V*
X103682800Y-74640440D03*
X136702800Y-74640440D03*
X120192800Y-74640440D03*
X153720800Y-74640440D03*
X170230800Y-74640440D03*
X186740800Y-74640440D03*
X236778800Y-74640440D03*
X220268800Y-74640440D03*
X253542806Y-74576940D03*
X270256000Y-74221340D03*
X87172800Y-74640440D03*
X73914000Y-74475340D03*
X205234540Y-68295520D03*
X207266540Y-74645520D03*
X72392540Y-68041520D03*
X307088540Y-74137514D03*
X305818540Y-68549520D03*
X62748160Y-72572880D03*
X290576000Y-74676000D03*
X289814000Y-67818000D03*
G04 #@! TO.N,GND*
X114681000Y-74653140D03*
X131419600Y-74678540D03*
X147980400Y-74678540D03*
X164668200Y-74653140D03*
X181356000Y-74653140D03*
X197916800Y-74627740D03*
X231241600Y-74678540D03*
X247929400Y-74653140D03*
X263144000Y-74246740D03*
X281178000Y-74475340D03*
X98044000Y-74627740D03*
X81788000Y-74729340D03*
X199646540Y-68549520D03*
X215394540Y-74645520D03*
X67312540Y-69311520D03*
X300230540Y-68549520D03*
X62417960Y-76601320D03*
X283210000Y-68072000D03*
X298704000Y-74676000D03*
G04 #@! TD*
D12*
G04 #@! TO.N,+5V*
X62748160Y-72572880D02*
X57861200Y-72572880D01*
G04 #@! TO.N,GND*
X57896760Y-76601320D02*
X57861200Y-76636880D01*
X62417960Y-76601320D02*
X57896760Y-76601320D01*
G04 #@! TD*
M02*
