<?xml version="1.0" standalone="no"?>
 <!DOCTYPE svg PUBLIC "-//W3C//DTD SVG 1.1//EN" 
 "http://www.w3.org/Graphics/SVG/1.1/DTD/svg11.dtd"> 
<svg xmlns="http://www.w3.org/2000/svg" version="1.1" 
    width="41.9989cm" height="29.7002cm" viewBox="0 0 165350 116930 ">
<title>SVG Picture created as BCInside-In2_Cu.svg date 2019/04/12 10:45:59 </title>
  <desc>Picture generated by PCBNEW </desc>
<g style="fill:#000000; fill-opacity:1;stroke:#000000; stroke-opacity:1;
stroke-linecap:round; stroke-linejoin:round; "
 transform="translate(0 0) scale(1 1)">
</g>
<g style="fill:#000000; fill-opacity:0.0; 
stroke:#000000; stroke-width:-0.000393701; stroke-opacity:1; 
stroke-linecap:round; stroke-linejoin:round;">
<g >
</g>
<g style="fill:#000000; fill-opacity:0.0; 
stroke:#000000; stroke-width:800; stroke-opacity:1; 
stroke-linecap:round; stroke-linejoin:round;">
<path d="M24671 28354
L25171 28354
" />
<path d="M24671 29354
L25171 29354
" />
<path d="M24671 30354
L25171 30354
" />
<path d="M25371 27254
L25871 27254
" />
<path d="M25371 31454
L25871 31454
" />
</g>
<g >
<path d="M121639 28330
L122139 28330
" />
<path d="M121639 29330
L122139 29330
" />
<path d="M121639 30330
L122139 30330
" />
</g>
<g >
</g>
<g >
</g>
<g >
</g>
<g >
</g>
<g >
</g>
<g >
</g>
<g >
</g>
<g >
</g>
<g >
</g>
<g >
</g>
<g >
</g>
<g >
</g>
<g >
</g>
<g >
</g>
<g >
</g>
<g >
</g>
<g >
</g>
<g >
</g>
<g >
</g>
<g >
</g>
<g >
</g>
<g >
</g>
<g >
</g>
<g >
</g>
<g >
</g>
<g >
</g>
<g >
</g>
<g >
</g>
<g >
</g>
<g >
</g>
<g >
</g>
<g >
</g>
<g >
</g>
<g >
</g>
<g >
</g>
<g >
</g>
<g >
</g>
<g >
</g>
<g >
</g>
<g >
</g>
<g >
</g>
<g >
</g>
<g >
</g>
<g >
</g>
<g >
</g>
<g >
</g>
<g style="fill:#000000; fill-opacity:1.0; 
stroke:#000000; stroke-width:0; stroke-opacity:1; 
stroke-linecap:round; stroke-linejoin:round;">
<circle cx="40820" cy="29386" r="196.85" /> 
</g>
<g style="fill:#000000; fill-opacity:1.0; 
stroke:#000000; stroke-width:19.685; stroke-opacity:1; 
stroke-linecap:round; stroke-linejoin:round;">
</g>
<g style="fill:#000000; fill-opacity:1.0; 
stroke:#000000; stroke-width:0; stroke-opacity:1; 
stroke-linecap:round; stroke-linejoin:round;">
<circle cx="53820" cy="29386" r="196.85" /> 
</g>
<g style="fill:#000000; fill-opacity:1.0; 
stroke:#000000; stroke-width:19.685; stroke-opacity:1; 
stroke-linecap:round; stroke-linejoin:round;">
</g>
<g style="fill:#000000; fill-opacity:1.0; 
stroke:#000000; stroke-width:0; stroke-opacity:1; 
stroke-linecap:round; stroke-linejoin:round;">
<circle cx="47320" cy="29386" r="196.85" /> 
</g>
<g style="fill:#000000; fill-opacity:1.0; 
stroke:#000000; stroke-width:19.685; stroke-opacity:1; 
stroke-linecap:round; stroke-linejoin:round;">
</g>
<g style="fill:#000000; fill-opacity:1.0; 
stroke:#000000; stroke-width:0; stroke-opacity:1; 
stroke-linecap:round; stroke-linejoin:round;">
<circle cx="60520" cy="29386" r="196.85" /> 
</g>
<g style="fill:#000000; fill-opacity:1.0; 
stroke:#000000; stroke-width:19.685; stroke-opacity:1; 
stroke-linecap:round; stroke-linejoin:round;">
</g>
<g style="fill:#000000; fill-opacity:1.0; 
stroke:#000000; stroke-width:0; stroke-opacity:1; 
stroke-linecap:round; stroke-linejoin:round;">
<circle cx="67020" cy="29386" r="196.85" /> 
</g>
<g style="fill:#000000; fill-opacity:1.0; 
stroke:#000000; stroke-width:19.685; stroke-opacity:1; 
stroke-linecap:round; stroke-linejoin:round;">
</g>
<g style="fill:#000000; fill-opacity:1.0; 
stroke:#000000; stroke-width:0; stroke-opacity:1; 
stroke-linecap:round; stroke-linejoin:round;">
<circle cx="73520" cy="29386" r="196.85" /> 
</g>
<g style="fill:#000000; fill-opacity:1.0; 
stroke:#000000; stroke-width:19.685; stroke-opacity:1; 
stroke-linecap:round; stroke-linejoin:round;">
</g>
<g style="fill:#000000; fill-opacity:1.0; 
stroke:#000000; stroke-width:0; stroke-opacity:1; 
stroke-linecap:round; stroke-linejoin:round;">
<circle cx="93220" cy="29386" r="196.85" /> 
</g>
<g style="fill:#000000; fill-opacity:1.0; 
stroke:#000000; stroke-width:19.685; stroke-opacity:1; 
stroke-linecap:round; stroke-linejoin:round;">
</g>
<g style="fill:#000000; fill-opacity:1.0; 
stroke:#000000; stroke-width:0; stroke-opacity:1; 
stroke-linecap:round; stroke-linejoin:round;">
<circle cx="86720" cy="29386" r="196.85" /> 
</g>
<g style="fill:#000000; fill-opacity:1.0; 
stroke:#000000; stroke-width:19.685; stroke-opacity:1; 
stroke-linecap:round; stroke-linejoin:round;">
</g>
<g style="fill:#000000; fill-opacity:1.0; 
stroke:#000000; stroke-width:0; stroke-opacity:1; 
stroke-linecap:round; stroke-linejoin:round;">
<circle cx="99820" cy="29361" r="196.85" /> 
</g>
<g style="fill:#000000; fill-opacity:1.0; 
stroke:#000000; stroke-width:19.685; stroke-opacity:1; 
stroke-linecap:round; stroke-linejoin:round;">
</g>
<g style="fill:#000000; fill-opacity:1.0; 
stroke:#000000; stroke-width:0; stroke-opacity:1; 
stroke-linecap:round; stroke-linejoin:round;">
<circle cx="106400" cy="29221" r="196.85" /> 
</g>
<g style="fill:#000000; fill-opacity:1.0; 
stroke:#000000; stroke-width:19.685; stroke-opacity:1; 
stroke-linecap:round; stroke-linejoin:round;">
</g>
<g style="fill:#000000; fill-opacity:1.0; 
stroke:#000000; stroke-width:0; stroke-opacity:1; 
stroke-linecap:round; stroke-linejoin:round;">
<circle cx="34320" cy="29386" r="196.85" /> 
</g>
<g style="fill:#000000; fill-opacity:1.0; 
stroke:#000000; stroke-width:19.685; stroke-opacity:1; 
stroke-linecap:round; stroke-linejoin:round;">
</g>
<g style="fill:#000000; fill-opacity:1.0; 
stroke:#000000; stroke-width:0; stroke-opacity:1; 
stroke-linecap:round; stroke-linejoin:round;">
<circle cx="29100" cy="29321" r="196.85" /> 
</g>
<g style="fill:#000000; fill-opacity:1.0; 
stroke:#000000; stroke-width:19.685; stroke-opacity:1; 
stroke-linecap:round; stroke-linejoin:round;">
</g>
<g style="fill:#000000; fill-opacity:1.0; 
stroke:#000000; stroke-width:0; stroke-opacity:1; 
stroke-linecap:round; stroke-linejoin:round;">
<circle cx="80801" cy="26888" r="196.85" /> 
</g>
<g style="fill:#000000; fill-opacity:1.0; 
stroke:#000000; stroke-width:19.685; stroke-opacity:1; 
stroke-linecap:round; stroke-linejoin:round;">
</g>
<g style="fill:#000000; fill-opacity:1.0; 
stroke:#000000; stroke-width:0; stroke-opacity:1; 
stroke-linecap:round; stroke-linejoin:round;">
<circle cx="81601" cy="29388" r="196.85" /> 
</g>
<g style="fill:#000000; fill-opacity:1.0; 
stroke:#000000; stroke-width:19.685; stroke-opacity:1; 
stroke-linecap:round; stroke-linejoin:round;">
</g>
<g style="fill:#000000; fill-opacity:1.0; 
stroke:#000000; stroke-width:0; stroke-opacity:1; 
stroke-linecap:round; stroke-linejoin:round;">
<circle cx="114400" cy="29400" r="196.85" /> 
</g>
<g style="fill:#000000; fill-opacity:1.0; 
stroke:#000000; stroke-width:19.685; stroke-opacity:1; 
stroke-linecap:round; stroke-linejoin:round;">
</g>
<g style="fill:#000000; fill-opacity:1.0; 
stroke:#000000; stroke-width:0; stroke-opacity:1; 
stroke-linecap:round; stroke-linejoin:round;">
<circle cx="114100" cy="26700" r="196.85" /> 
</g>
<g style="fill:#000000; fill-opacity:1.0; 
stroke:#000000; stroke-width:19.685; stroke-opacity:1; 
stroke-linecap:round; stroke-linejoin:round;">
</g>
<g style="fill:#000000; fill-opacity:1.0; 
stroke:#000000; stroke-width:0; stroke-opacity:1; 
stroke-linecap:round; stroke-linejoin:round;">
<circle cx="45150" cy="29391" r="196.85" /> 
</g>
<g style="fill:#000000; fill-opacity:1.0; 
stroke:#000000; stroke-width:19.685; stroke-opacity:1; 
stroke-linecap:round; stroke-linejoin:round;">
</g>
<g style="fill:#000000; fill-opacity:1.0; 
stroke:#000000; stroke-width:0; stroke-opacity:1; 
stroke-linecap:round; stroke-linejoin:round;">
<circle cx="51740" cy="29401" r="196.85" /> 
</g>
<g style="fill:#000000; fill-opacity:1.0; 
stroke:#000000; stroke-width:19.685; stroke-opacity:1; 
stroke-linecap:round; stroke-linejoin:round;">
</g>
<g style="fill:#000000; fill-opacity:1.0; 
stroke:#000000; stroke-width:0; stroke-opacity:1; 
stroke-linecap:round; stroke-linejoin:round;">
<circle cx="58260" cy="29401" r="196.85" /> 
</g>
<g style="fill:#000000; fill-opacity:1.0; 
stroke:#000000; stroke-width:19.685; stroke-opacity:1; 
stroke-linecap:round; stroke-linejoin:round;">
</g>
<g style="fill:#000000; fill-opacity:1.0; 
stroke:#000000; stroke-width:0; stroke-opacity:1; 
stroke-linecap:round; stroke-linejoin:round;">
<circle cx="64830" cy="29391" r="196.85" /> 
</g>
<g style="fill:#000000; fill-opacity:1.0; 
stroke:#000000; stroke-width:19.685; stroke-opacity:1; 
stroke-linecap:round; stroke-linejoin:round;">
</g>
<g style="fill:#000000; fill-opacity:1.0; 
stroke:#000000; stroke-width:0; stroke-opacity:1; 
stroke-linecap:round; stroke-linejoin:round;">
<circle cx="71400" cy="29391" r="196.85" /> 
</g>
<g style="fill:#000000; fill-opacity:1.0; 
stroke:#000000; stroke-width:19.685; stroke-opacity:1; 
stroke-linecap:round; stroke-linejoin:round;">
</g>
<g style="fill:#000000; fill-opacity:1.0; 
stroke:#000000; stroke-width:0; stroke-opacity:1; 
stroke-linecap:round; stroke-linejoin:round;">
<circle cx="77920" cy="29381" r="196.85" /> 
</g>
<g style="fill:#000000; fill-opacity:1.0; 
stroke:#000000; stroke-width:19.685; stroke-opacity:1; 
stroke-linecap:round; stroke-linejoin:round;">
</g>
<g style="fill:#000000; fill-opacity:1.0; 
stroke:#000000; stroke-width:0; stroke-opacity:1; 
stroke-linecap:round; stroke-linejoin:round;">
<circle cx="91040" cy="29401" r="196.85" /> 
</g>
<g style="fill:#000000; fill-opacity:1.0; 
stroke:#000000; stroke-width:19.685; stroke-opacity:1; 
stroke-linecap:round; stroke-linejoin:round;">
</g>
<g style="fill:#000000; fill-opacity:1.0; 
stroke:#000000; stroke-width:0; stroke-opacity:1; 
stroke-linecap:round; stroke-linejoin:round;">
<circle cx="97610" cy="29391" r="196.85" /> 
</g>
<g style="fill:#000000; fill-opacity:1.0; 
stroke:#000000; stroke-width:19.685; stroke-opacity:1; 
stroke-linecap:round; stroke-linejoin:round;">
</g>
<g style="fill:#000000; fill-opacity:1.0; 
stroke:#000000; stroke-width:0; stroke-opacity:1; 
stroke-linecap:round; stroke-linejoin:round;">
<circle cx="103600" cy="29231" r="196.85" /> 
</g>
<g style="fill:#000000; fill-opacity:1.0; 
stroke:#000000; stroke-width:19.685; stroke-opacity:1; 
stroke-linecap:round; stroke-linejoin:round;">
</g>
<g style="fill:#000000; fill-opacity:1.0; 
stroke:#000000; stroke-width:0; stroke-opacity:1; 
stroke-linecap:round; stroke-linejoin:round;">
<circle cx="110700" cy="29321" r="196.85" /> 
</g>
<g style="fill:#000000; fill-opacity:1.0; 
stroke:#000000; stroke-width:19.685; stroke-opacity:1; 
stroke-linecap:round; stroke-linejoin:round;">
</g>
<g style="fill:#000000; fill-opacity:1.0; 
stroke:#000000; stroke-width:0; stroke-opacity:1; 
stroke-linecap:round; stroke-linejoin:round;">
<circle cx="38600" cy="29381" r="196.85" /> 
</g>
<g style="fill:#000000; fill-opacity:1.0; 
stroke:#000000; stroke-width:19.685; stroke-opacity:1; 
stroke-linecap:round; stroke-linejoin:round;">
</g>
<g style="fill:#000000; fill-opacity:1.0; 
stroke:#000000; stroke-width:0; stroke-opacity:1; 
stroke-linecap:round; stroke-linejoin:round;">
<circle cx="32200" cy="29421" r="196.85" /> 
</g>
<g style="fill:#000000; fill-opacity:1.0; 
stroke:#000000; stroke-width:19.685; stroke-opacity:1; 
stroke-linecap:round; stroke-linejoin:round;">
</g>
<g style="fill:#000000; fill-opacity:1.0; 
stroke:#000000; stroke-width:0; stroke-opacity:1; 
stroke-linecap:round; stroke-linejoin:round;">
<circle cx="78601" cy="26988" r="196.85" /> 
</g>
<g style="fill:#000000; fill-opacity:1.0; 
stroke:#000000; stroke-width:19.685; stroke-opacity:1; 
stroke-linecap:round; stroke-linejoin:round;">
</g>
<g style="fill:#000000; fill-opacity:1.0; 
stroke:#000000; stroke-width:0; stroke-opacity:1; 
stroke-linecap:round; stroke-linejoin:round;">
<circle cx="84801" cy="29388" r="196.85" /> 
</g>
<g style="fill:#000000; fill-opacity:1.0; 
stroke:#000000; stroke-width:19.685; stroke-opacity:1; 
stroke-linecap:round; stroke-linejoin:round;">
</g>
<g style="fill:#000000; fill-opacity:1.0; 
stroke:#000000; stroke-width:0; stroke-opacity:1; 
stroke-linecap:round; stroke-linejoin:round;">
<circle cx="111500" cy="26800" r="196.85" /> 
</g>
<g style="fill:#000000; fill-opacity:1.0; 
stroke:#000000; stroke-width:19.685; stroke-opacity:1; 
stroke-linecap:round; stroke-linejoin:round;">
</g>
<g style="fill:#000000; fill-opacity:1.0; 
stroke:#000000; stroke-width:0; stroke-opacity:1; 
stroke-linecap:round; stroke-linejoin:round;">
<circle cx="117600" cy="29400" r="196.85" /> 
</g>
<g style="fill:#000000; fill-opacity:1.0; 
stroke:#000000; stroke-width:19.685; stroke-opacity:1; 
stroke-linecap:round; stroke-linejoin:round;">
</g>
<g style="fill:#000000; fill-opacity:1.0; 
stroke:#000000; stroke-width:0; stroke-opacity:1; 
stroke-linecap:round; stroke-linejoin:round;">
<circle cx="29685" cy="26771.7" r="196.85" /> 
</g>
<g style="fill:#000000; fill-opacity:1.0; 
stroke:#000000; stroke-width:19.685; stroke-opacity:1; 
stroke-linecap:round; stroke-linejoin:round;">
</g>
<g style="fill:#000000; fill-opacity:1.0; 
stroke:#000000; stroke-width:0; stroke-opacity:1; 
stroke-linecap:round; stroke-linejoin:round;">
<circle cx="117677" cy="27322.8" r="196.85" /> 
</g>
<g style="fill:#000000; fill-opacity:1.0; 
stroke:#000000; stroke-width:19.685; stroke-opacity:1; 
stroke-linecap:round; stroke-linejoin:round;">
</g>
<g >
</g>
<g >
</g>
<g style="fill:#000000; fill-opacity:1.0; 
stroke:#000000; stroke-width:100; stroke-opacity:1; 
stroke-linecap:round; stroke-linejoin:round;">
<path style="fill:#000000; fill-opacity:1.0; 
stroke:#000000; stroke-width:100; stroke-opacity:1; 
stroke-linecap:round; stroke-linejoin:round;fill-rule:evenodd;"
d="M 23404,25467
23574,25554
23710,25689
23737,25743
23737,25745
23749,25766
23753,25776
23755,25778
23762,25792
23769,25800
23775,25809
23786,25821
23796,25833
23804,25840
23812,25848
23825,25857
23837,25867
23847,25872
23855,25878
23870,25884
23884,25892
23894,25895
23904,25899
23920,25903
23935,25907
23945,25908
23956,25911
23972,25911
23975,25911
23985,25911
24009,25912
24012,25911
122658,25911
122660,25912
122684,25911
122695,25911
122698,25911
122713,25911
122724,25908
122735,25907
122750,25903
122765,25899
122775,25895
122785,25892
122799,25884
122814,25878
122823,25872
122832,25867
122845,25857
122858,25848
122865,25840
122873,25833
122883,25821
122894,25809
122900,25800
122907,25792
122915,25778
122916,25776
122921,25766
122932,25745
122933,25743
122960,25690
123095,25554
123266,25467
123476,25434
125971,25434
126181,25467
126352,25554
126487,25690
126515,25743
126515,25745
126527,25766
126531,25776
126533,25778
126540,25792
126547,25800
126553,25809
126564,25821
126574,25833
126582,25840
126590,25848
126603,25857
126615,25867
126625,25872
126633,25878
126648,25884
126662,25892
126672,25895
126682,25899
126698,25903
126713,25907
126723,25908
126734,25911
126750,25911
126752,25911
126763,25911
126787,25912
126790,25911
126868,25911
127048,25940
127191,26013
127305,26127
127378,26270
127407,26450
127407,32313
127378,32494
127305,32637
127191,32751
127048,32824
126868,32852
126790,32852
126787,32852
126763,32852
126752,32852
126750,32852
126734,32853
126723,32855
126713,32856
126698,32861
126682,32864
126672,32868
126662,32872
126648,32879
126633,32885
126625,32891
126615,32897
126603,32907
126590,32916
126582,32923
126574,32930
126564,32943
126553,32954
126547,32963
126540,32971
126533,32985
126531,32987
126527,32997
126515,33018
126515,33021
126487,33074
126352,33209
126181,33296
125971,33329
123476,33329
123266,33296
123095,33209
122960,33074
122933,33021
122932,33018
122921,32997
122916,32987
122915,32985
122907,32971
122900,32963
122894,32954
122883,32943
122873,32930
122865,32923
122858,32916
122845,32907
122832,32897
122823,32891
122814,32885
122799,32879
122785,32872
122775,32868
122765,32864
122750,32861
122735,32856
122724,32855
122713,32853
122698,32852
122695,32852
122684,32852
122660,32852
122658,32852
24012,32852
24009,32852
23985,32852
23975,32852
23972,32852
23956,32853
23945,32855
23935,32856
23920,32861
23904,32864
23894,32868
23884,32872
23870,32879
23855,32885
23847,32892
23837,32897
23825,32907
23812,32916
23804,32924
23796,32930
23786,32943
23775,32954
23769,32963
23762,32971
23755,32985
23753,32988
23749,32997
23737,33018
23737,33021
23710,33074
23574,33209
23404,33296
23193,33329
20699,33329
20488,33296
20318,33209
20182,33074
20155,33021
20155,33018
20143,32997
20138,32988
20137,32985
20129,32971
20123,32963
20117,32954
20106,32943
20096,32930
20088,32924
20080,32916
20067,32907
20055,32897
20045,32892
20037,32885
20022,32879
20008,32872
19998,32868
19988,32864
19972,32861
19957,32856
19946,32855
19936,32853
19920,32852
19917,32852
19907,32852
19883,32852
19880,32852
19802,32852
19622,32824
19478,32751
19364,32637
19291,32493
19263,32313
19263,32029
20200,32029
20200,32039
20200,32050
20202,32066
20202,32068
20204,32079
20207,32102
20208,32105
20244,32331
20244,32334
20248,32358
20249,32368
20250,32371
20253,32386
20257,32396
20259,32407
20266,32421
20267,32424
20272,32433
20283,32454
20284,32457
20388,32660
20389,32663
20400,32684
20405,32694
20407,32696
20414,32710
20421,32718
20427,32727
20438,32739
20439,32740
20447,32748
20464,32765
20466,32767
20628,32929
20629,32931
20646,32948
20654,32955
20656,32957
20668,32968
20676,32974
20684,32981
20699,32988
20701,32990
20710,32994
20731,33006
20734,33006
20938,33110
20940,33112
20962,33122
20971,33127
20974,33128
20988,33135
20999,33138
21008,33142
21024,33145
21027,33145
21037,33147
21061,33151
21063,33151
21295,33188
21303,33190
21321,33192
21326,33193
21334,33193
21342,33194
21347,33194
21366,33195
21374,33194
22518,33194
22526,33195
22544,33194
22550,33194
22558,33193
22566,33193
22571,33192
22589,33190
22597,33188
22829,33151
22831,33151
22855,33147
22865,33145
22868,33145
22883,33142
22893,33138
22904,33135
22918,33128
22921,33127
22930,33122
22952,33112
22954,33110
23158,33006
23161,33006
23182,32994
23191,32990
23193,32988
23207,32981
23216,32974
23224,32968
23236,32957
23238,32955
23246,32948
23263,32931
23264,32929
23426,32767
23428,32765
23445,32748
23453,32740
23454,32739
23465,32727
23471,32718
23478,32710
23485,32696
23487,32694
23492,32684
23503,32663
23504,32660
23608,32457
23609,32454
23620,32433
23624,32424
23625,32421
23632,32407
23635,32396
23639,32386
23642,32371
23642,32368
23644,32358
23648,32334
23648,32331
23684,32105
23685,32102
23688,32079
23690,32068
23690,32066
23692,32050
23692,32039
23692,32029
23690,32013
23690,32010
23688,32000
23685,31976
23684,31973
23648,31747
23648,31744
23644,31721
23642,31710
23642,31708
23639,31692
23635,31682
23632,31672
23625,31657
23624,31655
23620,31645
23609,31624
23608,31622
23504,31418
23503,31416
23492,31394
23487,31385
23485,31383
23478,31369
23471,31360
23465,31351
23454,31340
23453,31338
23445,31330
23428,31313
23426,31312
23264,31149
23263,31147
23246,31131
23238,31123
23236,31121
23224,31110
23216,31105
23207,31098
23193,31090
23191,31089
23182,31084
23161,31073
23158,31072
22954,30968
22952,30966
22930,30956
22921,30951
22918,30950
22904,30943
22893,30941
22883,30937
22868,30934
22865,30933
22855,30931
22831,30927
22829,30927
22597,30891
22589,30888
22571,30887
22566,30886
22558,30885
22550,30884
22544,30884
22526,30883
22518,30884
21374,30884
21366,30883
21347,30884
21342,30884
21334,30885
21326,30886
21321,30887
21303,30888
21295,30891
21063,30927
21061,30927
21037,30931
21027,30933
21024,30934
21008,30937
20999,30941
20988,30943
20974,30950
20971,30951
20962,30956
20940,30966
20938,30968
20734,31072
20731,31073
20710,31084
20701,31089
20699,31090
20684,31098
20676,31105
20668,31110
20656,31121
20654,31123
20646,31131
20629,31147
20628,31149
20466,31312
20464,31313
20447,31330
20439,31338
20438,31340
20427,31351
20421,31360
20414,31369
20407,31383
20405,31385
20400,31394
20389,31416
20388,31418
20284,31622
20283,31624
20272,31645
20267,31655
20266,31657
20259,31672
20257,31682
20253,31692
20250,31708
20249,31710
20248,31721
20244,31744
20244,31747
20208,31973
20207,31976
20204,32000
20202,32010
20202,32013
20200,32029
19263,32029
19263,29775
19454,29775
19455,29789
19455,30550
19454,30563
19459,30616
19475,30667
19500,30713
19533,30754
19575,30788
19621,30813
19672,30829
19725,30834
19738,30832
21287,30832
21300,30834
21353,30829
21404,30813
21450,30788
21492,30754
21525,30713
21550,30667
21566,30616
21570,30576
21570,30576
21571,30563
21570,30550
21570,29789
21571,29775
21566,29723
21550,29672
21525,29625
21492,29584
21450,29550
21404,29525
21353,29510
21313,29506
21300,29504
21287,29506
19738,29506
19725,29504
19712,29506
19672,29510
19621,29525
19575,29550
19533,29584
19500,29625
19475,29672
19459,29723
19454,29775
19263,29775
19263,29354
24018,29354
24030,29481
24067,29604
24128,29717
24209,29816
24255,29854
24209,29892
24128,29991
24067,30104
24030,30226
24018,30354
24030,30481
24067,30604
24128,30717
24209,30816
24308,30897
24421,30957
24543,30994
24639,31004
24899,31004
24828,31091
24767,31204
24730,31326
24718,31454
24730,31581
24767,31704
24828,31817
24909,31916
25008,31997
25121,32057
25243,32094
25339,32104
25903,32104
25998,32094
26121,32057
26174,32029
122978,32029
122978,32039
122978,32050
122980,32066
122980,32068
122982,32079
122985,32102
122986,32105
123022,32331
123021,32334
123026,32358
123027,32368
123028,32371
123031,32386
123035,32396
123037,32407
123044,32421
123045,32423
123050,32433
123061,32454
123062,32457
123166,32660
123167,32663
123178,32684
123183,32694
123184,32696
123192,32710
123199,32718
123204,32727
123215,32738
123217,32740
123225,32748
123241,32765
123243,32767
123405,32929
123407,32931
123424,32948
123431,32955
123434,32957
123445,32968
123454,32974
123462,32980
123476,32988
123479,32990
123488,32994
123509,33006
123512,33006
123716,33110
123718,33112
123740,33122
123749,33127
123752,33128
123766,33135
123776,33138
123786,33142
123802,33145
123804,33145
123815,33147
123839,33151
123841,33151
124072,33188
124080,33190
124099,33192
124104,33193
124112,33193
124120,33194
124125,33194
124144,33195
124152,33194
125295,33194
125303,33195
125322,33194
125327,33194
125335,33193
125343,33193
125348,33192
125367,33190
125375,33188
125606,33151
125609,33151
125632,33147
125643,33145
125645,33145
125661,33142
125671,33138
125681,33135
125696,33128
125698,33127
125708,33122
125729,33112
125731,33110
125936,33006
125939,33006
125959,32994
125969,32990
125971,32988
125985,32980
125993,32974
126002,32968
126014,32957
126016,32955
126023,32948
126041,32931
126042,32929
126204,32767
126206,32765
126223,32748
126230,32740
126232,32738
126243,32727
126249,32718
126256,32710
126263,32696
126264,32694
126269,32684
126281,32663
126281,32660
126385,32457
126387,32454
126397,32433
126402,32423
126403,32421
126410,32407
126413,32396
126417,32386
126419,32371
126420,32368
126422,32358
126426,32334
126426,32331
126462,32105
126463,32102
126466,32079
126468,32068
126468,32066
126470,32050
126469,32039
126470,32029
126468,32013
126468,32010
126466,32000
126463,31976
126462,31973
126426,31747
126426,31744
126422,31721
126420,31710
126419,31708
126417,31692
126413,31682
126410,31672
126403,31657
126402,31655
126397,31645
126387,31624
126385,31622
126281,31418
126281,31416
126269,31394
126264,31385
126263,31383
126256,31369
126249,31360
126243,31351
126232,31340
126230,31338
126223,31330
126206,31313
126204,31312
126042,31149
126041,31147
126023,31131
126016,31123
126014,31121
126002,31110
125993,31105
125985,31098
125971,31090
125969,31089
125959,31084
125939,31073
125936,31072
125731,30968
125729,30966
125708,30956
125698,30951
125696,30950
125681,30943
125671,30940
125661,30937
125645,30934
125643,30933
125632,30931
125609,30927
125606,30927
125375,30891
125367,30888
125348,30887
125343,30886
125335,30885
125327,30884
125322,30884
125303,30883
125295,30884
124152,30884
124144,30883
124125,30884
124120,30884
124112,30885
124104,30886
124099,30887
124080,30888
124072,30891
123841,30927
123839,30927
123815,30931
123804,30933
123802,30934
123786,30937
123776,30941
123766,30943
123752,30950
123749,30951
123740,30956
123718,30966
123716,30968
123512,31072
123509,31073
123488,31084
123479,31089
123476,31090
123462,31098
123454,31105
123445,31110
123434,31121
123431,31123
123424,31131
123407,31147
123405,31149
123243,31312
123241,31313
123225,31330
123217,31338
123215,31340
123204,31351
123199,31360
123192,31369
123184,31383
123183,31385
123178,31394
123167,31416
123166,31418
123062,31622
123061,31624
123050,31645
123045,31655
123044,31657
123037,31672
123035,31682
123031,31692
123028,31708
123027,31710
123026,31721
123021,31744
123022,31747
122986,31973
122985,31976
122982,32000
122980,32010
122980,32013
122978,32029
26174,32029
26234,31997
26333,31916
26414,31817
26474,31704
26511,31581
26524,31454
26511,31326
26474,31204
26414,31091
26333,30992
26234,30911
26121,30850
25998,30813
25903,30804
25642,30804
25714,30717
25774,30604
25811,30481
25824,30354
25811,30226
25774,30104
25714,29991
25633,29892
25586,29854
25633,29816
25714,29717
25774,29604
25811,29481
25821,29386
29817,29386
29836,29553
29886,29712
29967,29859
30074,29987
30205,30092
30353,30170
30514,30217
30680,30232
30847,30215
31007,30165
31154,30085
31283,29979
31389,29849
31467,29701
31516,29541
31532,29376
31753,29376
31753,29465
31770,29551
31804,29632
31852,29705
31915,29768
31988,29816
32069,29850
32155,29867
32244,29867
32330,29850
32411,29816
32484,29768
32547,29705
32595,29632
32629,29551
32646,29465
32646,29376
32638,29336
38153,29336
38153,29425
38170,29511
38204,29592
38252,29665
38315,29728
38388,29776
38469,29810
38555,29827
38644,29827
38730,29810
38811,29776
38884,29728
38947,29665
38995,29592
39029,29511
39046,29425
39046,29346
44703,29346
44703,29435
44720,29521
44754,29602
44802,29675
44865,29738
44938,29786
45019,29820
45105,29837
45194,29837
45280,29820
45361,29786
45434,29738
45497,29675
45545,29602
45579,29521
45596,29435
45596,29356
51293,29356
51293,29445
51310,29531
51344,29612
51392,29685
51455,29748
51528,29796
51609,29830
51695,29847
51784,29847
51870,29830
51951,29796
52024,29748
52087,29685
52135,29612
52169,29531
52186,29445
52186,29356
57813,29356
57813,29445
57830,29531
57864,29612
57912,29685
57975,29748
58048,29796
58129,29830
58215,29847
58304,29847
58390,29830
58471,29796
58544,29748
58607,29685
58655,29612
58689,29531
58706,29445
58706,29356
58704,29346
64383,29346
64383,29435
64400,29521
64434,29602
64482,29675
64545,29738
64618,29786
64699,29820
64785,29837
64874,29837
64960,29820
65041,29786
65114,29738
65177,29675
65225,29602
65259,29521
65276,29435
65276,29346
70953,29346
70953,29435
70970,29521
71004,29602
71052,29675
71115,29738
71188,29786
71269,29820
71355,29837
71444,29837
71530,29820
71611,29786
71684,29738
71747,29675
71795,29602
71829,29521
71846,29435
71846,29346
71844,29336
77473,29336
77473,29425
77490,29511
77524,29592
77572,29665
77635,29728
77708,29776
77789,29810
77875,29827
77964,29827
78050,29810
78131,29776
78204,29728
78267,29665
78315,29592
78349,29511
78366,29425
78366,29411
82342,29411
82361,29578
82411,29737
82492,29884
82599,30012
82730,30117
82878,30195
83039,30242
83205,30257
83372,30240
83532,30190
83679,30110
83808,30004
83914,29874
83992,29726
84041,29566
84057,29400
84057,29376
84053,29343
84354,29343
84354,29432
84371,29518
84405,29599
84453,29672
84516,29735
84589,29783
84670,29817
84756,29834
84845,29834
84931,29817
85012,29783
85085,29735
85148,29672
85196,29599
85230,29518
85247,29432
85247,29356
90593,29356
90593,29445
90610,29531
90644,29612
90692,29685
90755,29748
90828,29796
90909,29830
90995,29847
91084,29847
91170,29830
91251,29796
91324,29748
91387,29685
91435,29612
91469,29531
91486,29445
91486,29356
91484,29346
97163,29346
97163,29435
97180,29521
97214,29602
97262,29675
97325,29738
97398,29786
97479,29820
97565,29837
97654,29837
97740,29820
97821,29786
97894,29738
97957,29675
98005,29602
98039,29521
98056,29435
98056,29346
98039,29260
98009,29186
103153,29186
103153,29275
103170,29361
103204,29442
103252,29515
103315,29578
103388,29626
103469,29660
103555,29677
103644,29677
103730,29660
103811,29626
103884,29578
103947,29515
103995,29442
104029,29361
104046,29276
110253,29276
110253,29365
110270,29451
110304,29532
110352,29605
110415,29668
110488,29716
110569,29750
110655,29767
110744,29767
110830,29750
110911,29716
110984,29668
111047,29605
111095,29532
111129,29451
111137,29411
115142,29411
115161,29578
115211,29737
115292,29884
115399,30012
115530,30117
115678,30195
115839,30242
116005,30257
116172,30240
116332,30190
116479,30110
116608,30004
116714,29874
116792,29726
116841,29566
116857,29400
116857,29376
116854,29355
117153,29355
117153,29444
117170,29530
117204,29611
117252,29684
117315,29747
117388,29795
117469,29829
117555,29846
117644,29846
117730,29829
117811,29795
117884,29747
117947,29684
117995,29611
118029,29530
118046,29444
118046,29355
118041,29330
120986,29330
120999,29458
121036,29580
121096,29693
121177,29792
121224,29830
121177,29868
121096,29967
121036,30080
120999,30203
120986,30330
120999,30458
121036,30580
121096,30693
121177,30792
121276,30873
121389,30934
121512,30971
121607,30980
122171,30980
122267,30971
122389,30934
122502,30873
122601,30792
122682,30693
122743,30580
122780,30458
122792,30330
122780,30203
122743,30080
122682,29967
122601,29868
122555,29830
122601,29792
122679,29698
125141,29698
125142,29711
125142,30472
125141,30485
125146,30538
125161,30589
125186,30636
125220,30677
125261,30710
125308,30735
125359,30751
125412,30756
125425,30755
126973,30755
126987,30756
127039,30751
127090,30735
127137,30710
127178,30677
127212,30636
127237,30589
127252,30538
127256,30498
127256,30498
127258,30485
127256,30472
127256,29711
127258,29698
127252,29645
127237,29594
127212,29547
127178,29506
127137,29472
127090,29447
127039,29432
127000,29428
126987,29427
126973,29428
125425,29428
125412,29427
125398,29428
125359,29432
125308,29447
125261,29472
125220,29506
125186,29547
125161,29594
125146,29645
125141,29698
122679,29698
122682,29693
122743,29580
122780,29458
122792,29330
122780,29203
122743,29080
122682,28967
122601,28868
122555,28830
122634,28754
122707,28650
122759,28533
122772,28481
122725,28380
121939,28380
121939,28388
121839,28388
121839,28380
121054,28380
121007,28481
121020,28533
121071,28650
121144,28754
121224,28830
121177,28868
121096,28967
121036,29080
120999,29203
120986,29330
118041,29330
118029,29269
117995,29188
117947,29115
117884,29052
117811,29004
117730,28970
117644,28953
117555,28953
117469,28970
117388,29004
117315,29052
117252,29115
117204,29188
117170,29269
117153,29355
116854,29355
116836,29210
116783,29051
116700,28905
116591,28778
116459,28675
116310,28600
116148,28555
115982,28542
115815,28562
115656,28614
115510,28695
115383,28804
115279,28935
115202,29084
115156,29245
115142,29411
111137,29411
111146,29365
111146,29276
111129,29190
111095,29109
111047,29036
110984,28973
110911,28925
110830,28891
110744,28874
110655,28874
110569,28891
110488,28925
110415,28973
110352,29036
110304,29109
110270,29190
110253,29276
104046,29276
104046,29275
104046,29186
104029,29100
103995,29019
103947,28946
103884,28883
103811,28835
103730,28801
103644,28784
103555,28784
103469,28801
103388,28835
103315,28883
103252,28946
103204,29019
103170,29100
103153,29186
98009,29186
98005,29179
97957,29106
97894,29043
97821,28995
97740,28961
97654,28944
97565,28944
97479,28961
97398,28995
97325,29043
97262,29106
97214,29179
97180,29260
97163,29346
91484,29346
91469,29270
91435,29189
91387,29116
91324,29053
91251,29005
91170,28971
91084,28954
90995,28954
90909,28971
90828,29005
90755,29053
90692,29116
90644,29189
90610,29270
90593,29356
85247,29356
85247,29343
85230,29257
85196,29176
85148,29103
85085,29040
85012,28992
84931,28958
84845,28941
84756,28941
84670,28958
84589,28992
84516,29040
84453,29103
84405,29176
84371,29257
84354,29343
84053,29343
84036,29210
83983,29051
83900,28905
83791,28778
83659,28675
83510,28600
83348,28555
83182,28542
83015,28562
82856,28614
82710,28695
82583,28804
82479,28935
82402,29084
82356,29245
82342,29411
78366,29411
78366,29336
78349,29250
78315,29169
78267,29096
78204,29033
78131,28985
78050,28951
77964,28934
77875,28934
77789,28951
77708,28985
77635,29033
77572,29096
77524,29169
77490,29250
77473,29336
71844,29336
71829,29260
71795,29179
71747,29106
71684,29043
71611,28995
71530,28961
71444,28944
71355,28944
71269,28961
71188,28995
71115,29043
71052,29106
71004,29179
70970,29260
70953,29346
65276,29346
65259,29260
65225,29179
65177,29106
65114,29043
65041,28995
64960,28961
64874,28944
64785,28944
64699,28961
64618,28995
64545,29043
64482,29106
64434,29179
64400,29260
64383,29346
58704,29346
58689,29270
58655,29189
58607,29116
58544,29053
58471,29005
58390,28971
58304,28954
58215,28954
58129,28971
58048,29005
57975,29053
57912,29116
57864,29189
57830,29270
57813,29356
52186,29356
52169,29270
52135,29189
52087,29116
52024,29053
51951,29005
51870,28971
51784,28954
51695,28954
51609,28971
51528,29005
51455,29053
51392,29116
51344,29189
51310,29270
51293,29356
45596,29356
45596,29346
45579,29260
45545,29179
45497,29106
45434,29043
45361,28995
45280,28961
45194,28944
45105,28944
45019,28961
44938,28995
44865,29043
44802,29106
44754,29179
44720,29260
44703,29346
39046,29346
39046,29336
39029,29250
38995,29169
38947,29096
38884,29033
38811,28985
38730,28951
38644,28934
38555,28934
38469,28951
38388,28985
38315,29033
38252,29096
38204,29169
38170,29250
38153,29336
32638,29336
32629,29290
32595,29209
32547,29136
32484,29073
32411,29025
32330,28991
32244,28974
32155,28974
32069,28991
31988,29025
31915,29073
31852,29136
31804,29209
31770,29290
31753,29376
31532,29376
31532,29375
31532,29351
31511,29185
31458,29026
31375,28880
31266,28753
31134,28650
30985,28575
30823,28530
30657,28517
30490,28537
30331,28589
30185,28670
30058,28779
29954,28910
29877,29059
29831,29220
29817,29386
25821,29386
25824,29354
25811,29226
25774,29104
25714,28991
25633,28892
25586,28854
25666,28778
25739,28673
25790,28556
25803,28505
25756,28404
24971,28404
24971,28412
24871,28412
24871,28404
24085,28404
24038,28505
24051,28556
24103,28673
24176,28778
24255,28854
24209,28892
24128,28991
24067,29104
24030,29226
24018,29354
19263,29354
19263,28201
19454,28201
19455,28214
19455,28975
19454,28988
19459,29041
19475,29092
19500,29139
19533,29180
19575,29213
19621,29238
19672,29254
19725,29259
19738,29258
21287,29258
21300,29259
21353,29254
21404,29238
21450,29213
21492,29180
21525,29139
21550,29092
21566,29041
21570,29001
21570,29001
21571,28988
21570,28975
21570,28214
21571,28203
24038,28203
24085,28304
24871,28304
24871,28296
24971,28296
24971,28304
25756,28304
25803,28203
25797,28179
121007,28179
121054,28280
121839,28280
121839,28272
121939,28272
121939,28280
122725,28280
122761,28201
125141,28201
125142,28215
125142,28976
125141,28989
125146,29042
125161,29093
125186,29139
125220,29181
125255,29209
125261,29214
125308,29239
125359,29255
125412,29260
125425,29259
126973,29259
126987,29260
127039,29255
127090,29239
127137,29214
127178,29181
127212,29139
127237,29093
127252,29042
127256,29002
127256,29002
127258,28989
127256,28976
127256,28215
127258,28201
127252,28149
127237,28098
127212,28051
127178,28010
127137,27976
127090,27951
127039,27936
127000,27932
126987,27931
126973,27932
125425,27932
125412,27931
125398,27932
125359,27936
125308,27951
125261,27976
125220,28010
125186,28051
125161,28098
125146,28149
125141,28201
122761,28201
122772,28179
122759,28128
122707,28011
122634,27906
122542,27818
122434,27749
122315,27702
122189,27680
121589,27680
121463,27702
121344,27749
121237,27818
121144,27906
121071,28011
121020,28128
121007,28179
25797,28179
25790,28151
25739,28034
25666,27930
25639,27904
25921,27904
26047,27882
26166,27835
26273,27767
26366,27678
26439,27573
26490,27456
26503,27405
26456,27304
25671,27304
25671,27312
25571,27312
25571,27304
24785,27304
24738,27405
24751,27456
24803,27573
24876,27678
24903,27704
24621,27704
24495,27726
24376,27772
24268,27841
24176,27930
24103,28034
24051,28151
24038,28203
21571,28203
21571,28201
21566,28148
21550,28097
21525,28050
21492,28009
21450,27975
21404,27950
21353,27935
21313,27931
21300,27930
21287,27931
19738,27931
19725,27930
19712,27931
19672,27935
19621,27950
19575,27975
19533,28009
19500,28050
19475,28097
19459,28148
19454,28201
19263,28201
19263,26714
20200,26714
20200,26724
20200,26735
20202,26751
20202,26753
20204,26764
20207,26788
20208,26790
20244,27016
20244,27019
20248,27043
20249,27053
20250,27056
20253,27072
20257,27081
20259,27092
20266,27106
20267,27109
20272,27118
20283,27139
20284,27142
20388,27345
20389,27348
20400,27369
20405,27379
20407,27381
20414,27395
20421,27403
20427,27412
20438,27424
20439,27425
20447,27433
20464,27450
20466,27452
20628,27614
20629,27616
20646,27633
20654,27640
20656,27642
20668,27653
20676,27659
20684,27666
20699,27673
20701,27675
20710,27679
20731,27691
20734,27691
20938,27795
20940,27797
20962,27807
20971,27812
20974,27813
20988,27820
20999,27823
21008,27827
21024,27830
21027,27830
21037,27832
21061,27836
21063,27836
21295,27873
21303,27875
21321,27877
21326,27878
21334,27878
21342,27879
21347,27879
21366,27880
21374,27879
22518,27879
22526,27880
22544,27879
22550,27879
22558,27878
22566,27878
22571,27877
22589,27875
22597,27873
22829,27836
22831,27836
22855,27832
22865,27830
22868,27830
22883,27827
22893,27823
22904,27820
22918,27813
22921,27812
22930,27807
22952,27797
22954,27795
23158,27691
23161,27691
23182,27679
23191,27675
23193,27673
23207,27666
23216,27659
23224,27653
23236,27642
23238,27640
23246,27633
23263,27616
23264,27614
23426,27452
23428,27450
23445,27433
23453,27425
23454,27424
23465,27412
23471,27403
23478,27395
23485,27381
23487,27379
23492,27369
23503,27348
23504,27345
23608,27142
23609,27139
23620,27118
23624,27109
23625,27106
23627,27103
24738,27103
24785,27204
25571,27204
25571,27196
25671,27196
25671,27204
26456,27204
26503,27103
26490,27051
26439,26934
26366,26830
26273,26741
26251,26727
29238,26727
29238,26815
29255,26901
29289,26983
29337,27056
29400,27118
29473,27167
29554,27201
29641,27218
29729,27218
29815,27201
29896,27167
29969,27118
30032,27056
30081,26983
30097,26943
78154,26943
78154,27032
78171,27118
78205,27199
78253,27272
78316,27335
78389,27383
78470,27417
78556,27434
78645,27434
78731,27417
78812,27383
78885,27335
78942,27278
117230,27278
117230,27366
117247,27453
117281,27534
117330,27607
117392,27669
117465,27718
117546,27752
117633,27769
117721,27769
117807,27752
117888,27718
117962,27669
118024,27607
118073,27534
118106,27453
118124,27366
118124,27278
118106,27192
118073,27111
118024,27037
117962,26975
117888,26926
117807,26893
117721,26875
117633,26875
117546,26893
117465,26926
117392,26975
117330,27037
117281,27111
117247,27192
117230,27278
78942,27278
78948,27272
78996,27199
79030,27118
79047,27032
79047,26943
79030,26857
78996,26776
78983,26755
111053,26755
111053,26844
111070,26930
111104,27011
111152,27084
111215,27147
111288,27195
111369,27229
111455,27246
111544,27246
111630,27229
111711,27195
111784,27147
111847,27084
111895,27011
111929,26930
111946,26844
111946,26755
111938,26714
122978,26714
122978,26724
122978,26735
122980,26751
122980,26753
122982,26764
122985,26788
122986,26790
123022,27016
123021,27019
123026,27043
123027,27053
123028,27056
123031,27071
123035,27081
123037,27092
123044,27106
123045,27108
123050,27118
123061,27139
123062,27142
123166,27345
123167,27348
123178,27369
123183,27379
123184,27381
123192,27395
123199,27403
123204,27412
123215,27423
123217,27425
123225,27433
123241,27450
123243,27452
123405,27614
123407,27616
123424,27633
123431,27640
123434,27642
123445,27653
123454,27659
123462,27666
123476,27673
123479,27675
123488,27679
123509,27691
123512,27691
123716,27795
123718,27797
123740,27807
123749,27812
123752,27813
123766,27820
123776,27823
123786,27827
123802,27830
123804,27830
123815,27832
123839,27836
123841,27836
124072,27873
124080,27875
124099,27877
124104,27878
124112,27878
124120,27879
124125,27879
124144,27880
124152,27879
125295,27879
125303,27880
125322,27879
125327,27879
125335,27878
125343,27878
125348,27877
125367,27875
125375,27873
125606,27836
125609,27836
125632,27832
125643,27830
125645,27830
125661,27827
125671,27823
125681,27820
125696,27813
125698,27812
125708,27807
125729,27797
125731,27795
125936,27691
125939,27691
125959,27679
125969,27675
125971,27673
125985,27666
125993,27659
126002,27653
126014,27642
126016,27640
126023,27633
126041,27616
126042,27614
126204,27452
126206,27450
126223,27433
126230,27425
126232,27423
126243,27412
126249,27403
126256,27395
126263,27381
126264,27379
126269,27369
126281,27348
126281,27345
126385,27142
126387,27139
126397,27118
126402,27108
126403,27106
126410,27092
126413,27081
126417,27071
126419,27056
126420,27053
126422,27043
126426,27019
126426,27016
126462,26790
126463,26788
126466,26764
126468,26753
126468,26751
126470,26735
126469,26724
126470,26714
126468,26698
126468,26695
126466,26685
126463,26661
126462,26658
126426,26432
126426,26429
126422,26406
126420,26395
126419,26393
126417,26377
126413,26367
126410,26357
126403,26342
126402,26340
126397,26331
126387,26309
126385,26307
126281,26103
126281,26101
126269,26079
126264,26070
126263,26068
126256,26054
126249,26045
126243,26036
126232,26025
126230,26023
126223,26015
126206,25998
126204,25997
126042,25834
126041,25832
126023,25816
126016,25808
126014,25806
126002,25795
125993,25790
125985,25783
125971,25775
125969,25774
125959,25769
125939,25758
125936,25757
125731,25653
125729,25651
125708,25641
125698,25636
125696,25635
125681,25628
125671,25626
125661,25622
125645,25619
125643,25618
125632,25617
125609,25612
125606,25612
125375,25576
125367,25573
125348,25572
125343,25571
125335,25570
125327,25570
125322,25570
125303,25568
125295,25570
124152,25570
124144,25568
124125,25570
124120,25570
124112,25570
124104,25571
124099,25572
124080,25573
124072,25576
123841,25612
123839,25612
123815,25617
123804,25618
123802,25619
123786,25622
123776,25626
123766,25628
123752,25635
123749,25636
123740,25641
123718,25651
123716,25653
123512,25757
123509,25758
123488,25769
123479,25774
123476,25775
123462,25783
123454,25790
123445,25795
123434,25806
123431,25808
123424,25816
123407,25832
123405,25834
123243,25997
123241,25998
123225,26015
123217,26023
123215,26025
123204,26036
123199,26045
123192,26054
123184,26068
123183,26070
123178,26079
123167,26101
123166,26103
123062,26307
123061,26309
123050,26331
123045,26340
123044,26342
123037,26357
123035,26367
123031,26377
123028,26393
123027,26395
123026,26406
123021,26429
123022,26432
122986,26658
122985,26661
122982,26685
122980,26695
122980,26698
122978,26714
111938,26714
111929,26669
111895,26588
111847,26515
111784,26452
111711,26404
111630,26370
111544,26353
111455,26353
111369,26370
111288,26404
111215,26452
111152,26515
111104,26588
111070,26669
111053,26755
78983,26755
78948,26703
78885,26640
78812,26592
78731,26558
78645,26541
78556,26541
78470,26558
78389,26592
78316,26640
78253,26703
78205,26776
78171,26857
78154,26943
30097,26943
30114,26901
30131,26815
30131,26727
30114,26641
30081,26559
30032,26486
29969,26424
29896,26375
29815,26341
29729,26324
29641,26324
29554,26341
29473,26375
29400,26424
29337,26486
29289,26559
29255,26641
29238,26727
26251,26727
26166,26672
26047,26626
25921,26604
25321,26604
25195,26626
25076,26672
24968,26741
24876,26830
24803,26934
24751,27051
24738,27103
23627,27103
23632,27092
23635,27081
23639,27072
23642,27056
23642,27053
23644,27043
23648,27019
23648,27016
23684,26790
23685,26788
23688,26764
23690,26753
23690,26751
23692,26735
23692,26724
23692,26714
23690,26698
23690,26695
23688,26685
23685,26661
23684,26658
23648,26432
23648,26429
23644,26406
23642,26395
23642,26393
23639,26377
23635,26367
23632,26357
23625,26342
23624,26340
23620,26330
23609,26309
23608,26307
23504,26103
23503,26101
23492,26079
23487,26070
23485,26068
23478,26054
23471,26045
23465,26036
23454,26025
23453,26023
23445,26015
23428,25998
23426,25997
23264,25834
23263,25832
23246,25816
23238,25808
23236,25806
23224,25795
23216,25790
23207,25783
23193,25775
23191,25774
23182,25769
23161,25758
23158,25757
22954,25653
22952,25651
22930,25641
22921,25636
22918,25635
22904,25628
22893,25626
22883,25622
22868,25619
22865,25618
22855,25617
22831,25612
22829,25612
22597,25576
22589,25573
22571,25572
22566,25571
22558,25570
22550,25570
22544,25570
22526,25568
22518,25570
21374,25570
21366,25568
21347,25570
21342,25570
21334,25570
21326,25571
21321,25572
21303,25573
21295,25576
21063,25612
21061,25612
21037,25617
21027,25618
21024,25619
21008,25622
20999,25626
20988,25628
20974,25635
20971,25636
20962,25641
20940,25651
20938,25653
20734,25757
20731,25758
20710,25769
20701,25774
20699,25775
20684,25783
20676,25790
20668,25795
20656,25806
20654,25808
20646,25816
20629,25832
20628,25834
20466,25997
20464,25998
20447,26015
20439,26023
20438,26025
20427,26036
20421,26045
20414,26054
20407,26068
20405,26070
20400,26079
20389,26101
20388,26103
20284,26307
20283,26309
20272,26330
20267,26340
20266,26342
20259,26357
20257,26367
20253,26377
20250,26393
20249,26395
20248,26406
20244,26429
20244,26432
20208,26658
20207,26661
20204,26685
20202,26695
20202,26698
20200,26714
19263,26714
19263,26450
19291,26270
19364,26126
19478,26013
19622,25940
19802,25911
19880,25911
19883,25912
19907,25911
19917,25911
19920,25911
19936,25911
19946,25908
19957,25907
19972,25903
19988,25899
19998,25895
20008,25892
20022,25884
20037,25878
20045,25872
20055,25867
20067,25857
20080,25848
20088,25840
20096,25833
20106,25821
20117,25809
20123,25800
20129,25792
20137,25778
20138,25776
20143,25766
20155,25745
20155,25743
20182,25689
20318,25554
20488,25467
20699,25434
23193,25434
23404,25467
Z" /> 
</g>
</g> 
</svg>
