<?xml version="1.0" standalone="no"?>
 <!DOCTYPE svg PUBLIC "-//W3C//DTD SVG 1.1//EN" 
 "http://www.w3.org/Graphics/SVG/1.1/DTD/svg11.dtd"> 
<svg xmlns="http://www.w3.org/2000/svg" version="1.1" 
    width="41.9989cm" height="29.7002cm" viewBox="0 0 165350 116930 ">
<title>SVG Picture created as BCInside-F_Mask.svg date 2019/04/12 10:45:59 </title>
  <desc>Picture generated by PCBNEW </desc>
<g style="fill:#000000; fill-opacity:1;stroke:#000000; stroke-opacity:1;
stroke-linecap:round; stroke-linejoin:round; "
 transform="translate(0 0) scale(1 1)">
</g>
<g style="fill:#000000; fill-opacity:0.0; 
stroke:#000000; stroke-width:-0.000393701; stroke-opacity:1; 
stroke-linecap:round; stroke-linejoin:round;">
<g >
</g>
<g style="fill:#000000; fill-opacity:0.0; 
stroke:#000000; stroke-width:957.48; stroke-opacity:1; 
stroke-linecap:round; stroke-linejoin:round;">
<path d="M24671 28354
L25171 28354
" />
<path d="M24671 29354
L25171 29354
" />
<path d="M24671 30354
L25171 30354
" />
<path d="M25371 27254
L25871 27254
" />
<path d="M25371 31454
L25871 31454
" />
</g>
<g >
<path d="M121639 28330
L122139 28330
" />
<path d="M121639 29330
L122139 29330
" />
<path d="M121639 30330
L122139 30330
" />
</g>
<g >
</g>
<g style="fill:#000000; fill-opacity:0.0; 
stroke:#000000; stroke-width:0; stroke-opacity:1; 
stroke-linecap:round; stroke-linejoin:round;">
</g>
<g style="fill:#000000; fill-opacity:1.0; 
stroke:#000000; stroke-width:0; stroke-opacity:1; 
stroke-linecap:round; stroke-linejoin:round;">
<path style="fill:#000000; fill-opacity:1.0; 
stroke:#000000; stroke-width:0; stroke-opacity:1; 
stroke-linecap:round; stroke-linejoin:round;fill-rule:evenodd;"
d="M 114040,29736
114040,30287
113292,30287
113292,29736
114040,29736
Z" /> 
<path style="fill:#000000; fill-opacity:1.0; 
stroke:#000000; stroke-width:0; stroke-opacity:1; 
stroke-linecap:round; stroke-linejoin:round;fill-rule:evenodd;"
d="M 114040,29106
114040,29657
113292,29657
113292,29106
114040,29106
Z" /> 
<path style="fill:#000000; fill-opacity:1.0; 
stroke:#000000; stroke-width:0; stroke-opacity:1; 
stroke-linecap:round; stroke-linejoin:round;fill-rule:evenodd;"
d="M 114040,28476
114040,29027
113292,29027
113292,28476
114040,28476
Z" /> 
<path style="fill:#000000; fill-opacity:1.0; 
stroke:#000000; stroke-width:0; stroke-opacity:1; 
stroke-linecap:round; stroke-linejoin:round;fill-rule:evenodd;"
d="M 112111,29736
112111,30287
111363,30287
111363,29736
112111,29736
Z" /> 
<path style="fill:#000000; fill-opacity:1.0; 
stroke:#000000; stroke-width:0; stroke-opacity:1; 
stroke-linecap:round; stroke-linejoin:round;fill-rule:evenodd;"
d="M 112111,29106
112111,29657
111363,29657
111363,29106
112111,29106
Z" /> 
<path style="fill:#000000; fill-opacity:1.0; 
stroke:#000000; stroke-width:0; stroke-opacity:1; 
stroke-linecap:round; stroke-linejoin:round;fill-rule:evenodd;"
d="M 112111,28476
112111,29027
111363,29027
111363,28476
112111,28476
Z" /> 
</g>
<g >
<path style="fill:#000000; fill-opacity:1.0; 
stroke:#000000; stroke-width:0; stroke-opacity:1; 
stroke-linecap:round; stroke-linejoin:round;fill-rule:evenodd;"
d="M 27880,27234
27893,27236
27906,27239
27919,27243
27931,27249
27942,27256
27953,27264
27962,27273
27971,27283
27979,27293
27986,27305
27992,27317
27996,27329
27999,27342
28001,27355
28002,27369
28002,27806
28001,27820
27999,27833
27996,27846
27992,27858
27986,27870
27979,27882
27971,27892
27962,27902
27953,27911
27942,27919
27931,27926
27919,27932
27906,27936
27893,27939
27880,27941
27867,27942
27596,27942
27583,27941
27570,27939
27557,27936
27544,27932
27532,27926
27521,27919
27510,27911
27500,27902
27491,27892
27484,27882
27477,27870
27471,27858
27467,27846
27463,27833
27461,27820
27461,27806
27461,27369
27461,27355
27463,27342
27467,27329
27471,27317
27477,27305
27484,27293
27491,27283
27500,27273
27510,27264
27521,27256
27532,27249
27544,27243
27557,27239
27570,27236
27583,27234
27596,27233
27867,27233
27880,27234
Z" /> 
<path style="fill:#000000; fill-opacity:1.0; 
stroke:#000000; stroke-width:0; stroke-opacity:1; 
stroke-linecap:round; stroke-linejoin:round;fill-rule:evenodd;"
d="M 28618,27234
28631,27236
28644,27239
28657,27243
28669,27249
28680,27256
28691,27264
28701,27273
28710,27283
28717,27293
28724,27305
28730,27317
28734,27329
28738,27342
28740,27355
28740,27369
28740,27806
28740,27820
28738,27833
28734,27846
28730,27858
28724,27870
28717,27882
28710,27892
28701,27902
28691,27911
28680,27919
28669,27926
28657,27932
28644,27936
28631,27939
28618,27941
28605,27942
28334,27942
28321,27941
28308,27939
28295,27936
28282,27932
28270,27926
28259,27919
28248,27911
28239,27902
28230,27892
28222,27882
28215,27870
28209,27858
28205,27846
28202,27833
28200,27820
28199,27806
28199,27369
28200,27355
28202,27342
28205,27329
28209,27317
28215,27305
28222,27293
28230,27283
28239,27273
28248,27264
28259,27256
28270,27249
28282,27243
28295,27239
28308,27236
28321,27234
28334,27233
28605,27233
28618,27234
Z" /> 
</g>
<g >
<path style="fill:#000000; fill-opacity:1.0; 
stroke:#000000; stroke-width:0; stroke-opacity:1; 
stroke-linecap:round; stroke-linejoin:round;fill-rule:evenodd;"
d="M 109715,29640
109728,29642
109741,29646
109753,29650
109765,29656
109777,29663
109787,29671
109797,29679
109806,29689
109814,29700
109821,29711
109827,29723
109831,29736
109834,29749
109836,29762
109837,29775
109837,30046
109836,30059
109834,30072
109831,30085
109827,30098
109821,30110
109814,30121
109806,30132
109797,30142
109787,30150
109777,30158
109765,30165
109753,30171
109741,30175
109728,30179
109715,30181
109701,30181
109264,30181
109250,30181
109237,30179
109224,30175
109212,30171
109200,30165
109188,30158
109178,30150
109168,30142
109159,30132
109151,30121
109144,30110
109138,30098
109134,30085
109131,30072
109129,30059
109128,30046
109128,29775
109129,29762
109131,29749
109134,29736
109138,29723
109144,29711
109151,29700
109159,29689
109168,29679
109178,29671
109188,29663
109200,29656
109212,29650
109224,29646
109237,29642
109250,29640
109264,29640
109701,29640
109715,29640
Z" /> 
<path style="fill:#000000; fill-opacity:1.0; 
stroke:#000000; stroke-width:0; stroke-opacity:1; 
stroke-linecap:round; stroke-linejoin:round;fill-rule:evenodd;"
d="M 109715,28902
109728,28904
109741,28907
109753,28912
109765,28918
109777,28924
109787,28932
109797,28941
109806,28951
109814,28962
109821,28973
109827,28985
109831,28998
109834,29011
109836,29024
109837,29037
109837,29308
109836,29321
109834,29334
109831,29347
109827,29359
109821,29371
109814,29383
109806,29394
109797,29403
109787,29412
109777,29420
109765,29427
109753,29433
109741,29437
109728,29440
109715,29442
109701,29443
109264,29443
109250,29442
109237,29440
109224,29437
109212,29433
109200,29427
109188,29420
109178,29412
109168,29403
109159,29394
109151,29383
109144,29371
109138,29359
109134,29347
109131,29334
109129,29321
109128,29308
109128,29037
109129,29024
109131,29011
109134,28998
109138,28985
109144,28973
109151,28962
109159,28951
109168,28941
109178,28932
109188,28924
109200,28918
109212,28912
109224,28907
109237,28904
109250,28902
109264,28902
109701,28902
109715,28902
Z" /> 
</g>
<g >
<path style="fill:#000000; fill-opacity:1.0; 
stroke:#000000; stroke-width:0; stroke-opacity:1; 
stroke-linecap:round; stroke-linejoin:round;fill-rule:evenodd;"
d="M 111679,27146
111692,27148
111705,27151
111718,27155
111730,27161
111741,27168
111752,27176
111761,27185
111770,27195
111778,27205
111785,27217
111791,27229
111795,27241
111798,27254
111800,27267
111801,27281
111801,27718
111800,27732
111798,27745
111795,27758
111791,27770
111785,27782
111778,27794
111770,27804
111761,27814
111752,27823
111741,27831
111730,27838
111718,27844
111705,27848
111692,27851
111679,27853
111666,27854
111395,27854
111382,27853
111369,27851
111356,27848
111343,27844
111331,27838
111320,27831
111309,27823
111299,27814
111290,27804
111283,27794
111276,27782
111270,27770
111266,27758
111262,27745
111260,27732
111260,27718
111260,27281
111260,27267
111262,27254
111266,27241
111270,27229
111276,27217
111283,27205
111290,27195
111299,27185
111309,27176
111320,27168
111331,27161
111343,27155
111356,27151
111369,27148
111382,27146
111395,27145
111666,27145
111679,27146
Z" /> 
<path style="fill:#000000; fill-opacity:1.0; 
stroke:#000000; stroke-width:0; stroke-opacity:1; 
stroke-linecap:round; stroke-linejoin:round;fill-rule:evenodd;"
d="M 112417,27146
112430,27148
112443,27151
112456,27155
112468,27161
112479,27168
112490,27176
112500,27185
112509,27195
112516,27205
112523,27217
112529,27229
112533,27241
112537,27254
112539,27267
112539,27281
112539,27718
112539,27732
112537,27745
112533,27758
112529,27770
112523,27782
112516,27794
112509,27804
112500,27814
112490,27823
112479,27831
112468,27838
112456,27844
112443,27848
112430,27851
112417,27853
112404,27854
112133,27854
112120,27853
112107,27851
112094,27848
112081,27844
112069,27838
112058,27831
112047,27823
112038,27814
112029,27804
112021,27794
112014,27782
112008,27770
112004,27758
112001,27745
111999,27732
111998,27718
111998,27281
111999,27267
112001,27254
112004,27241
112008,27229
112014,27217
112021,27205
112029,27195
112038,27185
112047,27176
112058,27168
112069,27161
112081,27155
112094,27151
112107,27148
112120,27146
112133,27145
112404,27145
112417,27146
Z" /> 
</g>
<g >
<path style="fill:#000000; fill-opacity:1.0; 
stroke:#000000; stroke-width:0; stroke-opacity:1; 
stroke-linecap:round; stroke-linejoin:round;fill-rule:evenodd;"
d="M 119118,27234
119131,27236
119144,27239
119157,27243
119169,27249
119180,27256
119191,27264
119201,27273
119210,27283
119217,27293
119224,27305
119230,27317
119234,27329
119238,27342
119240,27355
119240,27369
119240,27806
119240,27820
119238,27833
119234,27846
119230,27858
119224,27870
119217,27882
119210,27892
119201,27902
119191,27911
119180,27919
119169,27926
119157,27932
119144,27936
119131,27939
119118,27941
119105,27942
118834,27942
118821,27941
118808,27939
118795,27936
118782,27932
118770,27926
118759,27919
118748,27911
118739,27902
118730,27892
118722,27882
118715,27870
118709,27858
118705,27846
118702,27833
118700,27820
118699,27806
118699,27369
118700,27355
118702,27342
118705,27329
118709,27317
118715,27305
118722,27293
118730,27283
118739,27273
118748,27264
118759,27256
118770,27249
118782,27243
118795,27239
118808,27236
118821,27234
118834,27233
119105,27233
119118,27234
Z" /> 
<path style="fill:#000000; fill-opacity:1.0; 
stroke:#000000; stroke-width:0; stroke-opacity:1; 
stroke-linecap:round; stroke-linejoin:round;fill-rule:evenodd;"
d="M 118380,27234
118393,27236
118406,27239
118419,27243
118431,27249
118442,27256
118453,27264
118462,27273
118471,27283
118479,27293
118486,27305
118492,27317
118496,27329
118499,27342
118501,27355
118502,27369
118502,27806
118501,27820
118499,27833
118496,27846
118492,27858
118486,27870
118479,27882
118471,27892
118462,27902
118453,27911
118442,27919
118431,27926
118419,27932
118406,27936
118393,27939
118380,27941
118367,27942
118096,27942
118083,27941
118070,27939
118057,27936
118044,27932
118032,27926
118021,27919
118010,27911
118000,27902
117991,27892
117984,27882
117977,27870
117971,27858
117967,27846
117963,27833
117961,27820
117961,27806
117961,27369
117961,27355
117963,27342
117967,27329
117971,27317
117977,27305
117984,27293
117991,27283
118000,27273
118010,27264
118021,27256
118032,27249
118044,27243
118057,27239
118070,27236
118083,27234
118096,27233
118367,27233
118380,27234
Z" /> 
</g>
<g >
<path style="fill:#000000; fill-opacity:1.0; 
stroke:#000000; stroke-width:0; stroke-opacity:1; 
stroke-linecap:round; stroke-linejoin:round;fill-rule:evenodd;"
d="M 118673,28476
118673,29027
117925,29027
117925,28476
118673,28476
Z" /> 
<path style="fill:#000000; fill-opacity:1.0; 
stroke:#000000; stroke-width:0; stroke-opacity:1; 
stroke-linecap:round; stroke-linejoin:round;fill-rule:evenodd;"
d="M 118673,29106
118673,29657
117925,29657
117925,29106
118673,29106
Z" /> 
<path style="fill:#000000; fill-opacity:1.0; 
stroke:#000000; stroke-width:0; stroke-opacity:1; 
stroke-linecap:round; stroke-linejoin:round;fill-rule:evenodd;"
d="M 118673,29736
118673,30287
117925,30287
117925,29736
118673,29736
Z" /> 
<path style="fill:#000000; fill-opacity:1.0; 
stroke:#000000; stroke-width:0; stroke-opacity:1; 
stroke-linecap:round; stroke-linejoin:round;fill-rule:evenodd;"
d="M 120602,28476
120602,29027
119854,29027
119854,28476
120602,28476
Z" /> 
<path style="fill:#000000; fill-opacity:1.0; 
stroke:#000000; stroke-width:0; stroke-opacity:1; 
stroke-linecap:round; stroke-linejoin:round;fill-rule:evenodd;"
d="M 120602,29106
120602,29657
119854,29657
119854,29106
120602,29106
Z" /> 
<path style="fill:#000000; fill-opacity:1.0; 
stroke:#000000; stroke-width:0; stroke-opacity:1; 
stroke-linecap:round; stroke-linejoin:round;fill-rule:evenodd;"
d="M 120602,29736
120602,30287
119854,30287
119854,29736
120602,29736
Z" /> 
</g>
<g >
<path style="fill:#000000; fill-opacity:1.0; 
stroke:#000000; stroke-width:0; stroke-opacity:1; 
stroke-linecap:round; stroke-linejoin:round;fill-rule:evenodd;"
d="M 105550,28476
105550,29027
104802,29027
104802,28476
105550,28476
Z" /> 
<path style="fill:#000000; fill-opacity:1.0; 
stroke:#000000; stroke-width:0; stroke-opacity:1; 
stroke-linecap:round; stroke-linejoin:round;fill-rule:evenodd;"
d="M 105550,29106
105550,29657
104802,29657
104802,29106
105550,29106
Z" /> 
<path style="fill:#000000; fill-opacity:1.0; 
stroke:#000000; stroke-width:0; stroke-opacity:1; 
stroke-linecap:round; stroke-linejoin:round;fill-rule:evenodd;"
d="M 105550,29736
105550,30287
104802,30287
104802,29736
105550,29736
Z" /> 
<path style="fill:#000000; fill-opacity:1.0; 
stroke:#000000; stroke-width:0; stroke-opacity:1; 
stroke-linecap:round; stroke-linejoin:round;fill-rule:evenodd;"
d="M 107479,28476
107479,29027
106731,29027
106731,28476
107479,28476
Z" /> 
<path style="fill:#000000; fill-opacity:1.0; 
stroke:#000000; stroke-width:0; stroke-opacity:1; 
stroke-linecap:round; stroke-linejoin:round;fill-rule:evenodd;"
d="M 107479,29106
107479,29657
106731,29657
106731,29106
107479,29106
Z" /> 
<path style="fill:#000000; fill-opacity:1.0; 
stroke:#000000; stroke-width:0; stroke-opacity:1; 
stroke-linecap:round; stroke-linejoin:round;fill-rule:evenodd;"
d="M 107479,29736
107479,30287
106731,30287
106731,29736
107479,29736
Z" /> 
</g>
<g >
<path style="fill:#000000; fill-opacity:1.0; 
stroke:#000000; stroke-width:0; stroke-opacity:1; 
stroke-linecap:round; stroke-linejoin:round;fill-rule:evenodd;"
d="M 108636,28902
108649,28904
108662,28907
108674,28912
108686,28918
108698,28924
108708,28932
108718,28941
108727,28951
108735,28962
108742,28973
108748,28985
108752,28998
108755,29011
108757,29024
108758,29037
108758,29308
108757,29321
108755,29334
108752,29347
108748,29359
108742,29371
108735,29383
108727,29394
108718,29403
108708,29412
108698,29420
108686,29427
108674,29433
108662,29437
108649,29440
108636,29442
108622,29443
108185,29443
108171,29442
108158,29440
108145,29437
108133,29433
108121,29427
108109,29420
108099,29412
108089,29403
108080,29394
108072,29383
108065,29371
108059,29359
108055,29347
108052,29334
108050,29321
108049,29308
108049,29037
108050,29024
108052,29011
108055,28998
108059,28985
108065,28973
108072,28962
108080,28951
108089,28941
108099,28932
108109,28924
108121,28918
108133,28912
108145,28907
108158,28904
108171,28902
108185,28902
108622,28902
108636,28902
Z" /> 
<path style="fill:#000000; fill-opacity:1.0; 
stroke:#000000; stroke-width:0; stroke-opacity:1; 
stroke-linecap:round; stroke-linejoin:round;fill-rule:evenodd;"
d="M 108636,29640
108649,29642
108662,29646
108674,29650
108686,29656
108698,29663
108708,29671
108718,29679
108727,29689
108735,29700
108742,29711
108748,29723
108752,29736
108755,29749
108757,29762
108758,29775
108758,30046
108757,30059
108755,30072
108752,30085
108748,30098
108742,30110
108735,30121
108727,30132
108718,30142
108708,30150
108698,30158
108686,30165
108674,30171
108662,30175
108649,30179
108636,30181
108622,30181
108185,30181
108171,30181
108158,30179
108145,30175
108133,30171
108121,30165
108109,30158
108099,30150
108089,30142
108080,30132
108072,30121
108065,30110
108059,30098
108055,30085
108052,30072
108050,30059
108049,30046
108049,29775
108050,29762
108052,29749
108055,29736
108059,29723
108065,29711
108072,29700
108080,29689
108089,29679
108099,29671
108109,29663
108121,29656
108133,29650
108145,29646
108158,29642
108171,29640
108185,29640
108622,29640
108636,29640
Z" /> 
</g>
<g >
<path style="fill:#000000; fill-opacity:1.0; 
stroke:#000000; stroke-width:0; stroke-opacity:1; 
stroke-linecap:round; stroke-linejoin:round;fill-rule:evenodd;"
d="M 113479,27146
113492,27148
113505,27151
113518,27155
113530,27161
113541,27168
113552,27176
113561,27185
113570,27195
113578,27205
113585,27217
113591,27229
113595,27241
113598,27254
113600,27267
113601,27281
113601,27718
113600,27732
113598,27745
113595,27758
113591,27770
113585,27782
113578,27794
113570,27804
113561,27814
113552,27823
113541,27831
113530,27838
113518,27844
113505,27848
113492,27851
113479,27853
113466,27854
113195,27854
113182,27853
113169,27851
113156,27848
113143,27844
113131,27838
113120,27831
113109,27823
113099,27814
113090,27804
113083,27794
113076,27782
113070,27770
113066,27758
113062,27745
113060,27732
113060,27718
113060,27281
113060,27267
113062,27254
113066,27241
113070,27229
113076,27217
113083,27205
113090,27195
113099,27185
113109,27176
113120,27168
113131,27161
113143,27155
113156,27151
113169,27148
113182,27146
113195,27145
113466,27145
113479,27146
Z" /> 
<path style="fill:#000000; fill-opacity:1.0; 
stroke:#000000; stroke-width:0; stroke-opacity:1; 
stroke-linecap:round; stroke-linejoin:round;fill-rule:evenodd;"
d="M 114217,27146
114230,27148
114243,27151
114256,27155
114268,27161
114279,27168
114290,27176
114300,27185
114309,27195
114316,27205
114323,27217
114329,27229
114333,27241
114337,27254
114339,27267
114339,27281
114339,27718
114339,27732
114337,27745
114333,27758
114329,27770
114323,27782
114316,27794
114309,27804
114300,27814
114290,27823
114279,27831
114268,27838
114256,27844
114243,27848
114230,27851
114217,27853
114204,27854
113933,27854
113920,27853
113907,27851
113894,27848
113881,27844
113869,27838
113858,27831
113847,27823
113838,27814
113829,27804
113821,27794
113814,27782
113808,27770
113804,27758
113801,27745
113799,27732
113798,27718
113798,27281
113799,27267
113801,27254
113804,27241
113808,27229
113814,27217
113821,27205
113829,27195
113838,27185
113847,27176
113858,27168
113869,27161
113881,27155
113894,27151
113907,27148
113920,27146
113933,27145
114204,27145
114217,27146
Z" /> 
</g>
<g >
<path style="fill:#000000; fill-opacity:1.0; 
stroke:#000000; stroke-width:0; stroke-opacity:1; 
stroke-linecap:round; stroke-linejoin:round;fill-rule:evenodd;"
d="M 120618,27234
120631,27236
120644,27239
120657,27243
120669,27249
120680,27256
120691,27264
120701,27273
120710,27283
120717,27293
120724,27305
120730,27317
120734,27329
120738,27342
120740,27355
120740,27369
120740,27806
120740,27820
120738,27833
120734,27846
120730,27858
120724,27870
120717,27882
120710,27892
120701,27902
120691,27911
120680,27919
120669,27926
120657,27932
120644,27936
120631,27939
120618,27941
120605,27942
120334,27942
120321,27941
120308,27939
120295,27936
120282,27932
120270,27926
120259,27919
120248,27911
120239,27902
120230,27892
120222,27882
120215,27870
120209,27858
120205,27846
120202,27833
120200,27820
120199,27806
120199,27369
120200,27355
120202,27342
120205,27329
120209,27317
120215,27305
120222,27293
120230,27283
120239,27273
120248,27264
120259,27256
120270,27249
120282,27243
120295,27239
120308,27236
120321,27234
120334,27233
120605,27233
120618,27234
Z" /> 
<path style="fill:#000000; fill-opacity:1.0; 
stroke:#000000; stroke-width:0; stroke-opacity:1; 
stroke-linecap:round; stroke-linejoin:round;fill-rule:evenodd;"
d="M 119880,27234
119893,27236
119906,27239
119919,27243
119931,27249
119942,27256
119953,27264
119962,27273
119971,27283
119979,27293
119986,27305
119992,27317
119996,27329
119999,27342
120001,27355
120002,27369
120002,27806
120001,27820
119999,27833
119996,27846
119992,27858
119986,27870
119979,27882
119971,27892
119962,27902
119953,27911
119942,27919
119931,27926
119919,27932
119906,27936
119893,27939
119880,27941
119867,27942
119596,27942
119583,27941
119570,27939
119557,27936
119544,27932
119532,27926
119521,27919
119510,27911
119500,27902
119491,27892
119484,27882
119477,27870
119471,27858
119467,27846
119463,27833
119461,27820
119461,27806
119461,27369
119461,27355
119463,27342
119467,27329
119471,27317
119477,27305
119484,27293
119491,27283
119500,27273
119510,27264
119521,27256
119532,27249
119544,27243
119557,27239
119570,27236
119583,27234
119596,27233
119867,27233
119880,27234
Z" /> 
</g>
<g >
<path style="fill:#000000; fill-opacity:1.0; 
stroke:#000000; stroke-width:0; stroke-opacity:1; 
stroke-linecap:round; stroke-linejoin:round;fill-rule:evenodd;"
d="M 76777,28902
76790,28904
76803,28907
76816,28912
76828,28918
76839,28924
76850,28932
76860,28941
76869,28951
76876,28962
76883,28973
76889,28985
76893,28998
76897,29011
76899,29024
76899,29037
76899,29308
76899,29321
76897,29334
76893,29347
76889,29359
76883,29371
76876,29383
76869,29394
76860,29403
76850,29412
76839,29420
76828,29427
76816,29433
76803,29437
76790,29440
76777,29442
76764,29443
76326,29443
76313,29442
76300,29440
76287,29437
76274,29433
76262,29427
76251,29420
76240,29412
76230,29403
76221,29394
76213,29383
76207,29371
76201,29359
76196,29347
76193,29334
76191,29321
76191,29308
76191,29037
76191,29024
76193,29011
76196,28998
76201,28985
76207,28973
76213,28962
76221,28951
76230,28941
76240,28932
76251,28924
76262,28918
76274,28912
76287,28907
76300,28904
76313,28902
76326,28902
76764,28902
76777,28902
Z" /> 
<path style="fill:#000000; fill-opacity:1.0; 
stroke:#000000; stroke-width:0; stroke-opacity:1; 
stroke-linecap:round; stroke-linejoin:round;fill-rule:evenodd;"
d="M 76777,29640
76790,29642
76803,29646
76816,29650
76828,29656
76839,29663
76850,29671
76860,29679
76869,29689
76876,29700
76883,29711
76889,29723
76893,29736
76897,29749
76899,29762
76899,29775
76899,30046
76899,30059
76897,30072
76893,30085
76889,30098
76883,30110
76876,30121
76869,30132
76860,30142
76850,30150
76839,30158
76828,30165
76816,30171
76803,30175
76790,30179
76777,30181
76764,30181
76326,30181
76313,30181
76300,30179
76287,30175
76274,30171
76262,30165
76251,30158
76240,30150
76230,30142
76221,30132
76213,30121
76207,30110
76201,30098
76196,30085
76193,30072
76191,30059
76191,30046
76191,29775
76191,29762
76193,29749
76196,29736
76201,29723
76207,29711
76213,29700
76221,29689
76230,29679
76240,29671
76251,29663
76262,29656
76274,29650
76287,29646
76300,29642
76313,29640
76326,29640
76764,29640
76777,29640
Z" /> 
</g>
<g >
<path style="fill:#000000; fill-opacity:1.0; 
stroke:#000000; stroke-width:0; stroke-opacity:1; 
stroke-linecap:round; stroke-linejoin:round;fill-rule:evenodd;"
d="M 78780,27334
78793,27336
78806,27339
78819,27343
78831,27349
78842,27356
78853,27364
78862,27373
78871,27383
78879,27393
78886,27405
78892,27417
78896,27429
78899,27442
78901,27455
78902,27469
78902,27906
78901,27920
78899,27933
78896,27946
78892,27958
78886,27970
78879,27982
78871,27992
78862,28002
78853,28011
78842,28019
78831,28026
78819,28032
78806,28036
78793,28039
78780,28041
78767,28042
78496,28042
78483,28041
78470,28039
78457,28036
78444,28032
78432,28026
78421,28019
78410,28011
78400,28002
78391,27992
78384,27982
78377,27970
78371,27958
78367,27946
78363,27933
78361,27920
78361,27906
78361,27469
78361,27455
78363,27442
78367,27429
78371,27417
78377,27405
78384,27393
78391,27383
78400,27373
78410,27364
78421,27356
78432,27349
78444,27343
78457,27339
78470,27336
78483,27334
78496,27333
78767,27333
78780,27334
Z" /> 
<path style="fill:#000000; fill-opacity:1.0; 
stroke:#000000; stroke-width:0; stroke-opacity:1; 
stroke-linecap:round; stroke-linejoin:round;fill-rule:evenodd;"
d="M 79518,27334
79531,27336
79544,27339
79557,27343
79569,27349
79580,27356
79591,27364
79601,27373
79610,27383
79617,27393
79624,27405
79630,27417
79634,27429
79638,27442
79640,27455
79640,27469
79640,27906
79640,27920
79638,27933
79634,27946
79630,27958
79624,27970
79617,27982
79610,27992
79601,28002
79591,28011
79580,28019
79569,28026
79557,28032
79544,28036
79531,28039
79518,28041
79505,28042
79234,28042
79221,28041
79208,28039
79195,28036
79182,28032
79170,28026
79159,28019
79148,28011
79139,28002
79130,27992
79122,27982
79115,27970
79109,27958
79105,27946
79102,27933
79100,27920
79099,27906
79099,27469
79100,27455
79102,27442
79105,27429
79109,27417
79115,27405
79122,27393
79130,27383
79139,27373
79148,27364
79159,27356
79170,27349
79182,27343
79195,27339
79208,27336
79221,27334
79234,27333
79505,27333
79518,27334
Z" /> 
</g>
<g >
<path style="fill:#000000; fill-opacity:1.0; 
stroke:#000000; stroke-width:0; stroke-opacity:1; 
stroke-linecap:round; stroke-linejoin:round;fill-rule:evenodd;"
d="M 89884,28902
89898,28904
89911,28907
89923,28912
89935,28918
89946,28924
89957,28932
89967,28941
89976,28951
89984,28962
89991,28973
89996,28985
90001,28998
90004,29011
90006,29024
90007,29037
90007,29308
90006,29321
90004,29334
90001,29347
89996,29359
89991,29371
89984,29383
89976,29394
89967,29403
89957,29412
89946,29420
89935,29427
89923,29433
89911,29437
89898,29440
89884,29442
89871,29443
89433,29443
89420,29442
89407,29440
89394,29437
89381,29433
89369,29427
89358,29420
89347,29412
89338,29403
89329,29394
89321,29383
89314,29371
89308,29359
89304,29347
89300,29334
89299,29321
89298,29308
89298,29037
89299,29024
89300,29011
89304,28998
89308,28985
89314,28973
89321,28962
89329,28951
89338,28941
89347,28932
89358,28924
89369,28918
89381,28912
89394,28907
89407,28904
89420,28902
89433,28902
89871,28902
89884,28902
Z" /> 
<path style="fill:#000000; fill-opacity:1.0; 
stroke:#000000; stroke-width:0; stroke-opacity:1; 
stroke-linecap:round; stroke-linejoin:round;fill-rule:evenodd;"
d="M 89884,29640
89898,29642
89911,29646
89923,29650
89935,29656
89946,29663
89957,29671
89967,29679
89976,29689
89984,29700
89991,29711
89996,29723
90001,29736
90004,29749
90006,29762
90007,29775
90007,30046
90006,30059
90004,30072
90001,30085
89996,30098
89991,30110
89984,30121
89976,30132
89967,30142
89957,30150
89946,30158
89935,30165
89923,30171
89911,30175
89898,30179
89884,30181
89871,30181
89433,30181
89420,30181
89407,30179
89394,30175
89381,30171
89369,30165
89358,30158
89347,30150
89338,30142
89329,30132
89321,30121
89314,30110
89308,30098
89304,30085
89300,30072
89299,30059
89298,30046
89298,29775
89299,29762
89300,29749
89304,29736
89308,29723
89314,29711
89321,29700
89329,29689
89338,29679
89347,29671
89358,29663
89369,29656
89381,29650
89394,29646
89407,29642
89420,29640
89433,29640
89871,29640
89884,29640
Z" /> 
</g>
<g >
<path style="fill:#000000; fill-opacity:1.0; 
stroke:#000000; stroke-width:0; stroke-opacity:1; 
stroke-linecap:round; stroke-linejoin:round;fill-rule:evenodd;"
d="M 96438,28902
96451,28904
96464,28907
96477,28912
96489,28918
96500,28924
96511,28932
96521,28941
96529,28951
96537,28962
96544,28973
96550,28985
96554,28998
96558,29011
96560,29024
96560,29037
96560,29308
96560,29321
96558,29334
96554,29347
96550,29359
96544,29371
96537,29383
96529,29394
96521,29403
96511,29412
96500,29420
96489,29427
96477,29433
96464,29437
96451,29440
96438,29442
96425,29443
95987,29443
95974,29442
95960,29440
95948,29437
95935,29433
95923,29427
95912,29420
95901,29412
95891,29403
95882,29394
95874,29383
95868,29371
95862,29359
95857,29347
95854,29334
95852,29321
95852,29308
95852,29037
95852,29024
95854,29011
95857,28998
95862,28985
95868,28973
95874,28962
95882,28951
95891,28941
95901,28932
95912,28924
95923,28918
95935,28912
95948,28907
95960,28904
95974,28902
95987,28902
96425,28902
96438,28902
Z" /> 
<path style="fill:#000000; fill-opacity:1.0; 
stroke:#000000; stroke-width:0; stroke-opacity:1; 
stroke-linecap:round; stroke-linejoin:round;fill-rule:evenodd;"
d="M 96438,29640
96451,29642
96464,29646
96477,29650
96489,29656
96500,29663
96511,29671
96521,29679
96529,29689
96537,29700
96544,29711
96550,29723
96554,29736
96558,29749
96560,29762
96560,29775
96560,30046
96560,30059
96558,30072
96554,30085
96550,30098
96544,30110
96537,30121
96529,30132
96521,30142
96511,30150
96500,30158
96489,30165
96477,30171
96464,30175
96451,30179
96438,30181
96425,30181
95987,30181
95974,30181
95960,30179
95948,30175
95935,30171
95923,30165
95912,30158
95901,30150
95891,30142
95882,30132
95874,30121
95868,30110
95862,30098
95857,30085
95854,30072
95852,30059
95852,30046
95852,29775
95852,29762
95854,29749
95857,29736
95862,29723
95868,29711
95874,29700
95882,29689
95891,29679
95901,29671
95912,29663
95923,29656
95935,29650
95948,29646
95960,29642
95974,29640
95987,29640
96425,29640
96438,29640
Z" /> 
</g>
<g >
<path style="fill:#000000; fill-opacity:1.0; 
stroke:#000000; stroke-width:0; stroke-opacity:1; 
stroke-linecap:round; stroke-linejoin:round;fill-rule:evenodd;"
d="M 103171,28902
103184,28904
103197,28907
103209,28912
103221,28918
103233,28924
103243,28932
103253,28941
103262,28951
103270,28962
103277,28973
103283,28985
103287,28998
103290,29011
103292,29024
103293,29037
103293,29308
103292,29321
103290,29334
103287,29347
103283,29359
103277,29371
103270,29383
103262,29394
103253,29403
103243,29412
103233,29420
103221,29427
103209,29433
103197,29437
103184,29440
103171,29442
103158,29443
102720,29443
102706,29442
102693,29440
102680,29437
102668,29433
102656,29427
102644,29420
102634,29412
102624,29403
102615,29394
102607,29383
102600,29371
102595,29359
102590,29347
102587,29334
102585,29321
102584,29308
102584,29037
102585,29024
102587,29011
102590,28998
102595,28985
102600,28973
102607,28962
102615,28951
102624,28941
102634,28932
102644,28924
102656,28918
102668,28912
102680,28907
102693,28904
102706,28902
102720,28902
103158,28902
103171,28902
Z" /> 
<path style="fill:#000000; fill-opacity:1.0; 
stroke:#000000; stroke-width:0; stroke-opacity:1; 
stroke-linecap:round; stroke-linejoin:round;fill-rule:evenodd;"
d="M 103171,29640
103184,29642
103197,29646
103209,29650
103221,29656
103233,29663
103243,29671
103253,29679
103262,29689
103270,29700
103277,29711
103283,29723
103287,29736
103290,29749
103292,29762
103293,29775
103293,30046
103292,30059
103290,30072
103287,30085
103283,30098
103277,30110
103270,30121
103262,30132
103253,30142
103243,30150
103233,30158
103221,30165
103209,30171
103197,30175
103184,30179
103171,30181
103158,30181
102720,30181
102706,30181
102693,30179
102680,30175
102668,30171
102656,30165
102644,30158
102634,30150
102624,30142
102615,30132
102607,30121
102600,30110
102595,30098
102590,30085
102587,30072
102585,30059
102584,30046
102584,29775
102585,29762
102587,29749
102590,29736
102595,29723
102600,29711
102607,29700
102615,29689
102624,29679
102634,29671
102644,29663
102656,29656
102668,29650
102680,29646
102693,29642
102706,29640
102720,29640
103158,29640
103171,29640
Z" /> 
</g>
<g >
<path style="fill:#000000; fill-opacity:1.0; 
stroke:#000000; stroke-width:0; stroke-opacity:1; 
stroke-linecap:round; stroke-linejoin:round;fill-rule:evenodd;"
d="M 28742,29736
28742,30287
27994,30287
27994,29736
28742,29736
Z" /> 
<path style="fill:#000000; fill-opacity:1.0; 
stroke:#000000; stroke-width:0; stroke-opacity:1; 
stroke-linecap:round; stroke-linejoin:round;fill-rule:evenodd;"
d="M 28742,29106
28742,29657
27994,29657
27994,29106
28742,29106
Z" /> 
<path style="fill:#000000; fill-opacity:1.0; 
stroke:#000000; stroke-width:0; stroke-opacity:1; 
stroke-linecap:round; stroke-linejoin:round;fill-rule:evenodd;"
d="M 28742,28476
28742,29027
27994,29027
27994,28476
28742,28476
Z" /> 
<path style="fill:#000000; fill-opacity:1.0; 
stroke:#000000; stroke-width:0; stroke-opacity:1; 
stroke-linecap:round; stroke-linejoin:round;fill-rule:evenodd;"
d="M 26813,29736
26813,30287
26065,30287
26065,29736
26813,29736
Z" /> 
<path style="fill:#000000; fill-opacity:1.0; 
stroke:#000000; stroke-width:0; stroke-opacity:1; 
stroke-linecap:round; stroke-linejoin:round;fill-rule:evenodd;"
d="M 26813,29106
26813,29657
26065,29657
26065,29106
26813,29106
Z" /> 
<path style="fill:#000000; fill-opacity:1.0; 
stroke:#000000; stroke-width:0; stroke-opacity:1; 
stroke-linecap:round; stroke-linejoin:round;fill-rule:evenodd;"
d="M 26813,28476
26813,29027
26065,29027
26065,28476
26813,28476
Z" /> 
</g>
<g >
<path style="fill:#000000; fill-opacity:1.0; 
stroke:#000000; stroke-width:0; stroke-opacity:1; 
stroke-linecap:round; stroke-linejoin:round;fill-rule:evenodd;"
d="M 35303,29736
35303,30287
34555,30287
34555,29736
35303,29736
Z" /> 
<path style="fill:#000000; fill-opacity:1.0; 
stroke:#000000; stroke-width:0; stroke-opacity:1; 
stroke-linecap:round; stroke-linejoin:round;fill-rule:evenodd;"
d="M 35303,29106
35303,29657
34555,29657
34555,29106
35303,29106
Z" /> 
<path style="fill:#000000; fill-opacity:1.0; 
stroke:#000000; stroke-width:0; stroke-opacity:1; 
stroke-linecap:round; stroke-linejoin:round;fill-rule:evenodd;"
d="M 35303,28476
35303,29027
34555,29027
34555,28476
35303,28476
Z" /> 
<path style="fill:#000000; fill-opacity:1.0; 
stroke:#000000; stroke-width:0; stroke-opacity:1; 
stroke-linecap:round; stroke-linejoin:round;fill-rule:evenodd;"
d="M 33374,29736
33374,30287
32626,30287
32626,29736
33374,29736
Z" /> 
<path style="fill:#000000; fill-opacity:1.0; 
stroke:#000000; stroke-width:0; stroke-opacity:1; 
stroke-linecap:round; stroke-linejoin:round;fill-rule:evenodd;"
d="M 33374,29106
33374,29657
32626,29657
32626,29106
33374,29106
Z" /> 
<path style="fill:#000000; fill-opacity:1.0; 
stroke:#000000; stroke-width:0; stroke-opacity:1; 
stroke-linecap:round; stroke-linejoin:round;fill-rule:evenodd;"
d="M 33374,28476
33374,29027
32626,29027
32626,28476
33374,28476
Z" /> 
</g>
<g >
<path style="fill:#000000; fill-opacity:1.0; 
stroke:#000000; stroke-width:0; stroke-opacity:1; 
stroke-linecap:round; stroke-linejoin:round;fill-rule:evenodd;"
d="M 100917,29736
100917,30287
100169,30287
100169,29736
100917,29736
Z" /> 
<path style="fill:#000000; fill-opacity:1.0; 
stroke:#000000; stroke-width:0; stroke-opacity:1; 
stroke-linecap:round; stroke-linejoin:round;fill-rule:evenodd;"
d="M 100917,29106
100917,29657
100169,29657
100169,29106
100917,29106
Z" /> 
<path style="fill:#000000; fill-opacity:1.0; 
stroke:#000000; stroke-width:0; stroke-opacity:1; 
stroke-linecap:round; stroke-linejoin:round;fill-rule:evenodd;"
d="M 100917,28476
100917,29027
100169,29027
100169,28476
100917,28476
Z" /> 
<path style="fill:#000000; fill-opacity:1.0; 
stroke:#000000; stroke-width:0; stroke-opacity:1; 
stroke-linecap:round; stroke-linejoin:round;fill-rule:evenodd;"
d="M 98988,29736
98988,30287
98240,30287
98240,29736
98988,29736
Z" /> 
<path style="fill:#000000; fill-opacity:1.0; 
stroke:#000000; stroke-width:0; stroke-opacity:1; 
stroke-linecap:round; stroke-linejoin:round;fill-rule:evenodd;"
d="M 98988,29106
98988,29657
98240,29657
98240,29106
98988,29106
Z" /> 
<path style="fill:#000000; fill-opacity:1.0; 
stroke:#000000; stroke-width:0; stroke-opacity:1; 
stroke-linecap:round; stroke-linejoin:round;fill-rule:evenodd;"
d="M 98988,28476
98988,29027
98240,29027
98240,28476
98988,28476
Z" /> 
</g>
<g >
<path style="fill:#000000; fill-opacity:1.0; 
stroke:#000000; stroke-width:0; stroke-opacity:1; 
stroke-linecap:round; stroke-linejoin:round;fill-rule:evenodd;"
d="M 94356,29736
94356,30287
93608,30287
93608,29736
94356,29736
Z" /> 
<path style="fill:#000000; fill-opacity:1.0; 
stroke:#000000; stroke-width:0; stroke-opacity:1; 
stroke-linecap:round; stroke-linejoin:round;fill-rule:evenodd;"
d="M 94356,29106
94356,29657
93608,29657
93608,29106
94356,29106
Z" /> 
<path style="fill:#000000; fill-opacity:1.0; 
stroke:#000000; stroke-width:0; stroke-opacity:1; 
stroke-linecap:round; stroke-linejoin:round;fill-rule:evenodd;"
d="M 94356,28476
94356,29027
93608,29027
93608,28476
94356,28476
Z" /> 
<path style="fill:#000000; fill-opacity:1.0; 
stroke:#000000; stroke-width:0; stroke-opacity:1; 
stroke-linecap:round; stroke-linejoin:round;fill-rule:evenodd;"
d="M 92427,29736
92427,30287
91679,30287
91679,29736
92427,29736
Z" /> 
<path style="fill:#000000; fill-opacity:1.0; 
stroke:#000000; stroke-width:0; stroke-opacity:1; 
stroke-linecap:round; stroke-linejoin:round;fill-rule:evenodd;"
d="M 92427,29106
92427,29657
91679,29657
91679,29106
92427,29106
Z" /> 
<path style="fill:#000000; fill-opacity:1.0; 
stroke:#000000; stroke-width:0; stroke-opacity:1; 
stroke-linecap:round; stroke-linejoin:round;fill-rule:evenodd;"
d="M 92427,28476
92427,29027
91679,29027
91679,28476
92427,28476
Z" /> 
</g>
<g >
<path style="fill:#000000; fill-opacity:1.0; 
stroke:#000000; stroke-width:0; stroke-opacity:1; 
stroke-linecap:round; stroke-linejoin:round;fill-rule:evenodd;"
d="M 87794,29736
87794,30287
87046,30287
87046,29736
87794,29736
Z" /> 
<path style="fill:#000000; fill-opacity:1.0; 
stroke:#000000; stroke-width:0; stroke-opacity:1; 
stroke-linecap:round; stroke-linejoin:round;fill-rule:evenodd;"
d="M 87794,29106
87794,29657
87046,29657
87046,29106
87794,29106
Z" /> 
<path style="fill:#000000; fill-opacity:1.0; 
stroke:#000000; stroke-width:0; stroke-opacity:1; 
stroke-linecap:round; stroke-linejoin:round;fill-rule:evenodd;"
d="M 87794,28476
87794,29027
87046,29027
87046,28476
87794,28476
Z" /> 
<path style="fill:#000000; fill-opacity:1.0; 
stroke:#000000; stroke-width:0; stroke-opacity:1; 
stroke-linecap:round; stroke-linejoin:round;fill-rule:evenodd;"
d="M 85865,29736
85865,30287
85117,30287
85117,29736
85865,29736
Z" /> 
<path style="fill:#000000; fill-opacity:1.0; 
stroke:#000000; stroke-width:0; stroke-opacity:1; 
stroke-linecap:round; stroke-linejoin:round;fill-rule:evenodd;"
d="M 85865,29106
85865,29657
85117,29657
85117,29106
85865,29106
Z" /> 
<path style="fill:#000000; fill-opacity:1.0; 
stroke:#000000; stroke-width:0; stroke-opacity:1; 
stroke-linecap:round; stroke-linejoin:round;fill-rule:evenodd;"
d="M 85865,28476
85865,29027
85117,29027
85117,28476
85865,28476
Z" /> 
</g>
<g >
<path style="fill:#000000; fill-opacity:1.0; 
stroke:#000000; stroke-width:0; stroke-opacity:1; 
stroke-linecap:round; stroke-linejoin:round;fill-rule:evenodd;"
d="M 81233,29736
81233,30287
80485,30287
80485,29736
81233,29736
Z" /> 
<path style="fill:#000000; fill-opacity:1.0; 
stroke:#000000; stroke-width:0; stroke-opacity:1; 
stroke-linecap:round; stroke-linejoin:round;fill-rule:evenodd;"
d="M 81233,29106
81233,29657
80485,29657
80485,29106
81233,29106
Z" /> 
<path style="fill:#000000; fill-opacity:1.0; 
stroke:#000000; stroke-width:0; stroke-opacity:1; 
stroke-linecap:round; stroke-linejoin:round;fill-rule:evenodd;"
d="M 81233,28476
81233,29027
80485,29027
80485,28476
81233,28476
Z" /> 
<path style="fill:#000000; fill-opacity:1.0; 
stroke:#000000; stroke-width:0; stroke-opacity:1; 
stroke-linecap:round; stroke-linejoin:round;fill-rule:evenodd;"
d="M 79304,29736
79304,30287
78556,30287
78556,29736
79304,29736
Z" /> 
<path style="fill:#000000; fill-opacity:1.0; 
stroke:#000000; stroke-width:0; stroke-opacity:1; 
stroke-linecap:round; stroke-linejoin:round;fill-rule:evenodd;"
d="M 79304,29106
79304,29657
78556,29657
78556,29106
79304,29106
Z" /> 
<path style="fill:#000000; fill-opacity:1.0; 
stroke:#000000; stroke-width:0; stroke-opacity:1; 
stroke-linecap:round; stroke-linejoin:round;fill-rule:evenodd;"
d="M 79304,28476
79304,29027
78556,29027
78556,28476
79304,28476
Z" /> 
</g>
<g >
<path style="fill:#000000; fill-opacity:1.0; 
stroke:#000000; stroke-width:0; stroke-opacity:1; 
stroke-linecap:round; stroke-linejoin:round;fill-rule:evenodd;"
d="M 74672,29736
74672,30287
73924,30287
73924,29736
74672,29736
Z" /> 
<path style="fill:#000000; fill-opacity:1.0; 
stroke:#000000; stroke-width:0; stroke-opacity:1; 
stroke-linecap:round; stroke-linejoin:round;fill-rule:evenodd;"
d="M 74672,29106
74672,29657
73924,29657
73924,29106
74672,29106
Z" /> 
<path style="fill:#000000; fill-opacity:1.0; 
stroke:#000000; stroke-width:0; stroke-opacity:1; 
stroke-linecap:round; stroke-linejoin:round;fill-rule:evenodd;"
d="M 74672,28476
74672,29027
73924,29027
73924,28476
74672,28476
Z" /> 
<path style="fill:#000000; fill-opacity:1.0; 
stroke:#000000; stroke-width:0; stroke-opacity:1; 
stroke-linecap:round; stroke-linejoin:round;fill-rule:evenodd;"
d="M 72742,29736
72742,30287
71994,30287
71994,29736
72742,29736
Z" /> 
<path style="fill:#000000; fill-opacity:1.0; 
stroke:#000000; stroke-width:0; stroke-opacity:1; 
stroke-linecap:round; stroke-linejoin:round;fill-rule:evenodd;"
d="M 72742,29106
72742,29657
71994,29657
71994,29106
72742,29106
Z" /> 
<path style="fill:#000000; fill-opacity:1.0; 
stroke:#000000; stroke-width:0; stroke-opacity:1; 
stroke-linecap:round; stroke-linejoin:round;fill-rule:evenodd;"
d="M 72742,28476
72742,29027
71994,29027
71994,28476
72742,28476
Z" /> 
</g>
<g >
<path style="fill:#000000; fill-opacity:1.0; 
stroke:#000000; stroke-width:0; stroke-opacity:1; 
stroke-linecap:round; stroke-linejoin:round;fill-rule:evenodd;"
d="M 68110,29736
68110,30287
67362,30287
67362,29736
68110,29736
Z" /> 
<path style="fill:#000000; fill-opacity:1.0; 
stroke:#000000; stroke-width:0; stroke-opacity:1; 
stroke-linecap:round; stroke-linejoin:round;fill-rule:evenodd;"
d="M 68110,29106
68110,29657
67362,29657
67362,29106
68110,29106
Z" /> 
<path style="fill:#000000; fill-opacity:1.0; 
stroke:#000000; stroke-width:0; stroke-opacity:1; 
stroke-linecap:round; stroke-linejoin:round;fill-rule:evenodd;"
d="M 68110,28476
68110,29027
67362,29027
67362,28476
68110,28476
Z" /> 
<path style="fill:#000000; fill-opacity:1.0; 
stroke:#000000; stroke-width:0; stroke-opacity:1; 
stroke-linecap:round; stroke-linejoin:round;fill-rule:evenodd;"
d="M 66181,29736
66181,30287
65433,30287
65433,29736
66181,29736
Z" /> 
<path style="fill:#000000; fill-opacity:1.0; 
stroke:#000000; stroke-width:0; stroke-opacity:1; 
stroke-linecap:round; stroke-linejoin:round;fill-rule:evenodd;"
d="M 66181,29106
66181,29657
65433,29657
65433,29106
66181,29106
Z" /> 
<path style="fill:#000000; fill-opacity:1.0; 
stroke:#000000; stroke-width:0; stroke-opacity:1; 
stroke-linecap:round; stroke-linejoin:round;fill-rule:evenodd;"
d="M 66181,28476
66181,29027
65433,29027
65433,28476
66181,28476
Z" /> 
</g>
<g >
<path style="fill:#000000; fill-opacity:1.0; 
stroke:#000000; stroke-width:0; stroke-opacity:1; 
stroke-linecap:round; stroke-linejoin:round;fill-rule:evenodd;"
d="M 61549,29736
61549,30287
60801,30287
60801,29736
61549,29736
Z" /> 
<path style="fill:#000000; fill-opacity:1.0; 
stroke:#000000; stroke-width:0; stroke-opacity:1; 
stroke-linecap:round; stroke-linejoin:round;fill-rule:evenodd;"
d="M 61549,29106
61549,29657
60801,29657
60801,29106
61549,29106
Z" /> 
<path style="fill:#000000; fill-opacity:1.0; 
stroke:#000000; stroke-width:0; stroke-opacity:1; 
stroke-linecap:round; stroke-linejoin:round;fill-rule:evenodd;"
d="M 61549,28476
61549,29027
60801,29027
60801,28476
61549,28476
Z" /> 
<path style="fill:#000000; fill-opacity:1.0; 
stroke:#000000; stroke-width:0; stroke-opacity:1; 
stroke-linecap:round; stroke-linejoin:round;fill-rule:evenodd;"
d="M 59620,29736
59620,30287
58872,30287
58872,29736
59620,29736
Z" /> 
<path style="fill:#000000; fill-opacity:1.0; 
stroke:#000000; stroke-width:0; stroke-opacity:1; 
stroke-linecap:round; stroke-linejoin:round;fill-rule:evenodd;"
d="M 59620,29106
59620,29657
58872,29657
58872,29106
59620,29106
Z" /> 
<path style="fill:#000000; fill-opacity:1.0; 
stroke:#000000; stroke-width:0; stroke-opacity:1; 
stroke-linecap:round; stroke-linejoin:round;fill-rule:evenodd;"
d="M 59620,28476
59620,29027
58872,29027
58872,28476
59620,28476
Z" /> 
</g>
<g >
<path style="fill:#000000; fill-opacity:1.0; 
stroke:#000000; stroke-width:0; stroke-opacity:1; 
stroke-linecap:round; stroke-linejoin:round;fill-rule:evenodd;"
d="M 54988,29736
54988,30287
54240,30287
54240,29736
54988,29736
Z" /> 
<path style="fill:#000000; fill-opacity:1.0; 
stroke:#000000; stroke-width:0; stroke-opacity:1; 
stroke-linecap:round; stroke-linejoin:round;fill-rule:evenodd;"
d="M 54988,29106
54988,29657
54240,29657
54240,29106
54988,29106
Z" /> 
<path style="fill:#000000; fill-opacity:1.0; 
stroke:#000000; stroke-width:0; stroke-opacity:1; 
stroke-linecap:round; stroke-linejoin:round;fill-rule:evenodd;"
d="M 54988,28476
54988,29027
54240,29027
54240,28476
54988,28476
Z" /> 
<path style="fill:#000000; fill-opacity:1.0; 
stroke:#000000; stroke-width:0; stroke-opacity:1; 
stroke-linecap:round; stroke-linejoin:round;fill-rule:evenodd;"
d="M 53058,29736
53058,30287
52310,30287
52310,29736
53058,29736
Z" /> 
<path style="fill:#000000; fill-opacity:1.0; 
stroke:#000000; stroke-width:0; stroke-opacity:1; 
stroke-linecap:round; stroke-linejoin:round;fill-rule:evenodd;"
d="M 53058,29106
53058,29657
52310,29657
52310,29106
53058,29106
Z" /> 
<path style="fill:#000000; fill-opacity:1.0; 
stroke:#000000; stroke-width:0; stroke-opacity:1; 
stroke-linecap:round; stroke-linejoin:round;fill-rule:evenodd;"
d="M 53058,28476
53058,29027
52310,29027
52310,28476
53058,28476
Z" /> 
</g>
<g >
<path style="fill:#000000; fill-opacity:1.0; 
stroke:#000000; stroke-width:0; stroke-opacity:1; 
stroke-linecap:round; stroke-linejoin:round;fill-rule:evenodd;"
d="M 48426,29736
48426,30287
47678,30287
47678,29736
48426,29736
Z" /> 
<path style="fill:#000000; fill-opacity:1.0; 
stroke:#000000; stroke-width:0; stroke-opacity:1; 
stroke-linecap:round; stroke-linejoin:round;fill-rule:evenodd;"
d="M 48426,29106
48426,29657
47678,29657
47678,29106
48426,29106
Z" /> 
<path style="fill:#000000; fill-opacity:1.0; 
stroke:#000000; stroke-width:0; stroke-opacity:1; 
stroke-linecap:round; stroke-linejoin:round;fill-rule:evenodd;"
d="M 48426,28476
48426,29027
47678,29027
47678,28476
48426,28476
Z" /> 
<path style="fill:#000000; fill-opacity:1.0; 
stroke:#000000; stroke-width:0; stroke-opacity:1; 
stroke-linecap:round; stroke-linejoin:round;fill-rule:evenodd;"
d="M 46497,29736
46497,30287
45749,30287
45749,29736
46497,29736
Z" /> 
<path style="fill:#000000; fill-opacity:1.0; 
stroke:#000000; stroke-width:0; stroke-opacity:1; 
stroke-linecap:round; stroke-linejoin:round;fill-rule:evenodd;"
d="M 46497,29106
46497,29657
45749,29657
45749,29106
46497,29106
Z" /> 
<path style="fill:#000000; fill-opacity:1.0; 
stroke:#000000; stroke-width:0; stroke-opacity:1; 
stroke-linecap:round; stroke-linejoin:round;fill-rule:evenodd;"
d="M 46497,28476
46497,29027
45749,29027
45749,28476
46497,28476
Z" /> 
</g>
<g >
<path style="fill:#000000; fill-opacity:1.0; 
stroke:#000000; stroke-width:0; stroke-opacity:1; 
stroke-linecap:round; stroke-linejoin:round;fill-rule:evenodd;"
d="M 41865,29736
41865,30287
41117,30287
41117,29736
41865,29736
Z" /> 
<path style="fill:#000000; fill-opacity:1.0; 
stroke:#000000; stroke-width:0; stroke-opacity:1; 
stroke-linecap:round; stroke-linejoin:round;fill-rule:evenodd;"
d="M 41865,29106
41865,29657
41117,29657
41117,29106
41865,29106
Z" /> 
<path style="fill:#000000; fill-opacity:1.0; 
stroke:#000000; stroke-width:0; stroke-opacity:1; 
stroke-linecap:round; stroke-linejoin:round;fill-rule:evenodd;"
d="M 41865,28476
41865,29027
41117,29027
41117,28476
41865,28476
Z" /> 
<path style="fill:#000000; fill-opacity:1.0; 
stroke:#000000; stroke-width:0; stroke-opacity:1; 
stroke-linecap:round; stroke-linejoin:round;fill-rule:evenodd;"
d="M 39936,29736
39936,30287
39188,30287
39188,29736
39936,29736
Z" /> 
<path style="fill:#000000; fill-opacity:1.0; 
stroke:#000000; stroke-width:0; stroke-opacity:1; 
stroke-linecap:round; stroke-linejoin:round;fill-rule:evenodd;"
d="M 39936,29106
39936,29657
39188,29657
39188,29106
39936,29106
Z" /> 
<path style="fill:#000000; fill-opacity:1.0; 
stroke:#000000; stroke-width:0; stroke-opacity:1; 
stroke-linecap:round; stroke-linejoin:round;fill-rule:evenodd;"
d="M 39936,28476
39936,29027
39188,29027
39188,28476
39936,28476
Z" /> 
</g>
<g >
<path style="fill:#000000; fill-opacity:1.0; 
stroke:#000000; stroke-width:0; stroke-opacity:1; 
stroke-linecap:round; stroke-linejoin:round;fill-rule:evenodd;"
d="M 36355,29640
36369,29642
36381,29646
36394,29650
36406,29656
36417,29663
36428,29671
36438,29679
36447,29689
36455,29700
36461,29711
36467,29723
36472,29736
36475,29749
36477,29762
36477,29775
36477,30046
36477,30059
36475,30072
36472,30085
36467,30098
36461,30110
36455,30121
36447,30132
36438,30142
36428,30150
36417,30158
36406,30165
36394,30171
36381,30175
36369,30179
36355,30181
36342,30181
35904,30181
35891,30181
35878,30179
35865,30175
35852,30171
35840,30165
35829,30158
35818,30150
35808,30142
35800,30132
35792,30121
35785,30110
35779,30098
35775,30085
35771,30072
35769,30059
35769,30046
35769,29775
35769,29762
35771,29749
35775,29736
35779,29723
35785,29711
35792,29700
35800,29689
35808,29679
35818,29671
35829,29663
35840,29656
35852,29650
35865,29646
35878,29642
35891,29640
35904,29640
36342,29640
36355,29640
Z" /> 
<path style="fill:#000000; fill-opacity:1.0; 
stroke:#000000; stroke-width:0; stroke-opacity:1; 
stroke-linecap:round; stroke-linejoin:round;fill-rule:evenodd;"
d="M 36355,28902
36369,28904
36381,28907
36394,28912
36406,28918
36417,28924
36428,28932
36438,28941
36447,28951
36455,28962
36461,28973
36467,28985
36472,28998
36475,29011
36477,29024
36477,29037
36477,29308
36477,29321
36475,29334
36472,29347
36467,29359
36461,29371
36455,29383
36447,29394
36438,29403
36428,29412
36417,29420
36406,29427
36394,29433
36381,29437
36369,29440
36355,29442
36342,29443
35904,29443
35891,29442
35878,29440
35865,29437
35852,29433
35840,29427
35829,29420
35818,29412
35808,29403
35800,29394
35792,29383
35785,29371
35779,29359
35775,29347
35771,29334
35769,29321
35769,29308
35769,29037
35769,29024
35771,29011
35775,28998
35779,28985
35785,28973
35792,28962
35800,28951
35808,28941
35818,28932
35829,28924
35840,28918
35852,28912
35865,28907
35878,28904
35891,28902
35904,28902
36342,28902
36355,28902
Z" /> 
</g>
<g >
<path style="fill:#000000; fill-opacity:1.0; 
stroke:#000000; stroke-width:0; stroke-opacity:1; 
stroke-linecap:round; stroke-linejoin:round;fill-rule:evenodd;"
d="M 42909,29640
42922,29642
42935,29646
42948,29650
42960,29656
42971,29663
42982,29671
42991,29679
43000,29689
43008,29700
43015,29711
43021,29723
43025,29736
43029,29749
43030,29762
43031,29775
43031,30046
43030,30059
43029,30072
43025,30085
43021,30098
43015,30110
43008,30121
43000,30132
42991,30142
42982,30150
42971,30158
42960,30165
42948,30171
42935,30175
42922,30179
42909,30181
42896,30181
42458,30181
42445,30181
42431,30179
42418,30175
42406,30171
42394,30165
42383,30158
42372,30150
42362,30142
42353,30132
42345,30121
42338,30110
42333,30098
42328,30085
42325,30072
42323,30059
42322,30046
42322,29775
42323,29762
42325,29749
42328,29736
42333,29723
42338,29711
42345,29700
42353,29689
42362,29679
42372,29671
42383,29663
42394,29656
42406,29650
42418,29646
42431,29642
42445,29640
42458,29640
42896,29640
42909,29640
Z" /> 
<path style="fill:#000000; fill-opacity:1.0; 
stroke:#000000; stroke-width:0; stroke-opacity:1; 
stroke-linecap:round; stroke-linejoin:round;fill-rule:evenodd;"
d="M 42909,28902
42922,28904
42935,28907
42948,28912
42960,28918
42971,28924
42982,28932
42991,28941
43000,28951
43008,28962
43015,28973
43021,28985
43025,28998
43029,29011
43030,29024
43031,29037
43031,29308
43030,29321
43029,29334
43025,29347
43021,29359
43015,29371
43008,29383
43000,29394
42991,29403
42982,29412
42971,29420
42960,29427
42948,29433
42935,29437
42922,29440
42909,29442
42896,29443
42458,29443
42445,29442
42431,29440
42418,29437
42406,29433
42394,29427
42383,29420
42372,29412
42362,29403
42353,29394
42345,29383
42338,29371
42333,29359
42328,29347
42325,29334
42323,29321
42322,29308
42322,29037
42323,29024
42325,29011
42328,28998
42333,28985
42338,28973
42345,28962
42353,28951
42362,28941
42372,28932
42383,28924
42394,28918
42406,28912
42418,28907
42431,28904
42445,28902
42458,28902
42896,28902
42909,28902
Z" /> 
</g>
<g >
<path style="fill:#000000; fill-opacity:1.0; 
stroke:#000000; stroke-width:0; stroke-opacity:1; 
stroke-linecap:round; stroke-linejoin:round;fill-rule:evenodd;"
d="M 49463,29640
49476,29642
49489,29646
49501,29650
49513,29656
49525,29663
49535,29671
49545,29679
49554,29689
49562,29700
49569,29711
49574,29723
49579,29736
49582,29749
49584,29762
49585,29775
49585,30046
49584,30059
49582,30072
49579,30085
49574,30098
49569,30110
49562,30121
49554,30132
49545,30142
49535,30150
49525,30158
49513,30165
49501,30171
49489,30175
49476,30179
49463,30181
49449,30181
49011,30181
48998,30181
48985,30179
48972,30175
48960,30171
48948,30165
48936,30158
48926,30150
48916,30142
48907,30132
48899,30121
48892,30110
48886,30098
48882,30085
48879,30072
48877,30059
48876,30046
48876,29775
48877,29762
48879,29749
48882,29736
48886,29723
48892,29711
48899,29700
48907,29689
48916,29679
48926,29671
48936,29663
48948,29656
48960,29650
48972,29646
48985,29642
48998,29640
49011,29640
49449,29640
49463,29640
Z" /> 
<path style="fill:#000000; fill-opacity:1.0; 
stroke:#000000; stroke-width:0; stroke-opacity:1; 
stroke-linecap:round; stroke-linejoin:round;fill-rule:evenodd;"
d="M 49463,28902
49476,28904
49489,28907
49501,28912
49513,28918
49525,28924
49535,28932
49545,28941
49554,28951
49562,28962
49569,28973
49574,28985
49579,28998
49582,29011
49584,29024
49585,29037
49585,29308
49584,29321
49582,29334
49579,29347
49574,29359
49569,29371
49562,29383
49554,29394
49545,29403
49535,29412
49525,29420
49513,29427
49501,29433
49489,29437
49476,29440
49463,29442
49449,29443
49011,29443
48998,29442
48985,29440
48972,29437
48960,29433
48948,29427
48936,29420
48926,29412
48916,29403
48907,29394
48899,29383
48892,29371
48886,29359
48882,29347
48879,29334
48877,29321
48876,29308
48876,29037
48877,29024
48879,29011
48882,28998
48886,28985
48892,28973
48899,28962
48907,28951
48916,28941
48926,28932
48936,28924
48948,28918
48960,28912
48972,28907
48985,28904
48998,28902
49011,28902
49449,28902
49463,28902
Z" /> 
</g>
<g >
<path style="fill:#000000; fill-opacity:1.0; 
stroke:#000000; stroke-width:0; stroke-opacity:1; 
stroke-linecap:round; stroke-linejoin:round;fill-rule:evenodd;"
d="M 56016,29640
56029,29642
56042,29646
56055,29650
56067,29656
56078,29663
56089,29671
56099,29679
56108,29689
56116,29700
56122,29711
56128,29723
56133,29736
56136,29749
56138,29762
56138,29775
56138,30046
56138,30059
56136,30072
56133,30085
56128,30098
56122,30110
56116,30121
56108,30132
56099,30142
56089,30150
56078,30158
56067,30165
56055,30171
56042,30175
56029,30179
56016,30181
56003,30181
55565,30181
55552,30181
55539,30179
55526,30175
55513,30171
55501,30165
55490,30158
55479,30150
55469,30142
55460,30132
55453,30121
55446,30110
55440,30098
55436,30085
55432,30072
55430,30059
55430,30046
55430,29775
55430,29762
55432,29749
55436,29736
55440,29723
55446,29711
55453,29700
55460,29689
55469,29679
55479,29671
55490,29663
55501,29656
55513,29650
55526,29646
55539,29642
55552,29640
55565,29640
56003,29640
56016,29640
Z" /> 
<path style="fill:#000000; fill-opacity:1.0; 
stroke:#000000; stroke-width:0; stroke-opacity:1; 
stroke-linecap:round; stroke-linejoin:round;fill-rule:evenodd;"
d="M 56016,28902
56029,28904
56042,28907
56055,28912
56067,28918
56078,28924
56089,28932
56099,28941
56108,28951
56116,28962
56122,28973
56128,28985
56133,28998
56136,29011
56138,29024
56138,29037
56138,29308
56138,29321
56136,29334
56133,29347
56128,29359
56122,29371
56116,29383
56108,29394
56099,29403
56089,29412
56078,29420
56067,29427
56055,29433
56042,29437
56029,29440
56016,29442
56003,29443
55565,29443
55552,29442
55539,29440
55526,29437
55513,29433
55501,29427
55490,29420
55479,29412
55469,29403
55460,29394
55453,29383
55446,29371
55440,29359
55436,29347
55432,29334
55430,29321
55430,29308
55430,29037
55430,29024
55432,29011
55436,28998
55440,28985
55446,28973
55453,28962
55460,28951
55469,28941
55479,28932
55490,28924
55501,28918
55513,28912
55526,28907
55539,28904
55552,28902
55565,28902
56003,28902
56016,28902
Z" /> 
</g>
<g >
<path style="fill:#000000; fill-opacity:1.0; 
stroke:#000000; stroke-width:0; stroke-opacity:1; 
stroke-linecap:round; stroke-linejoin:round;fill-rule:evenodd;"
d="M 62570,29640
62583,29642
62596,29646
62608,29650
62620,29656
62632,29663
62643,29671
62652,29679
62661,29689
62669,29700
62676,29711
62682,29723
62686,29736
62689,29749
62691,29762
62692,29775
62692,30046
62691,30059
62689,30072
62686,30085
62682,30098
62676,30110
62669,30121
62661,30132
62652,30142
62643,30150
62632,30158
62620,30165
62608,30171
62596,30175
62583,30179
62570,30181
62557,30181
62119,30181
62105,30181
62092,30179
62079,30175
62067,30171
62055,30165
62043,30158
62033,30150
62023,30142
62014,30132
62006,30121
61999,30110
61994,30098
61989,30085
61986,30072
61984,30059
61983,30046
61983,29775
61984,29762
61986,29749
61989,29736
61994,29723
61999,29711
62006,29700
62014,29689
62023,29679
62033,29671
62043,29663
62055,29656
62067,29650
62079,29646
62092,29642
62105,29640
62119,29640
62557,29640
62570,29640
Z" /> 
<path style="fill:#000000; fill-opacity:1.0; 
stroke:#000000; stroke-width:0; stroke-opacity:1; 
stroke-linecap:round; stroke-linejoin:round;fill-rule:evenodd;"
d="M 62570,28902
62583,28904
62596,28907
62608,28912
62620,28918
62632,28924
62643,28932
62652,28941
62661,28951
62669,28962
62676,28973
62682,28985
62686,28998
62689,29011
62691,29024
62692,29037
62692,29308
62691,29321
62689,29334
62686,29347
62682,29359
62676,29371
62669,29383
62661,29394
62652,29403
62643,29412
62632,29420
62620,29427
62608,29433
62596,29437
62583,29440
62570,29442
62557,29443
62119,29443
62105,29442
62092,29440
62079,29437
62067,29433
62055,29427
62043,29420
62033,29412
62023,29403
62014,29394
62006,29383
61999,29371
61994,29359
61989,29347
61986,29334
61984,29321
61983,29308
61983,29037
61984,29024
61986,29011
61989,28998
61994,28985
61999,28973
62006,28962
62014,28951
62023,28941
62033,28932
62043,28924
62055,28918
62067,28912
62079,28907
62092,28904
62105,28902
62119,28902
62557,28902
62570,28902
Z" /> 
</g>
<g >
<path style="fill:#000000; fill-opacity:1.0; 
stroke:#000000; stroke-width:0; stroke-opacity:1; 
stroke-linecap:round; stroke-linejoin:round;fill-rule:evenodd;"
d="M 69124,29640
69137,29642
69150,29646
69162,29650
69174,29656
69186,29663
69196,29671
69206,29679
69215,29689
69223,29700
69230,29711
69235,29723
69240,29736
69243,29749
69245,29762
69246,29775
69246,30046
69245,30059
69243,30072
69240,30085
69235,30098
69230,30110
69223,30121
69215,30132
69206,30142
69196,30150
69186,30158
69174,30165
69162,30171
69150,30175
69137,30179
69124,30181
69110,30181
68672,30181
68659,30181
68646,30179
68633,30175
68621,30171
68609,30165
68597,30158
68586,30150
68577,30142
68568,30132
68560,30121
68553,30110
68547,30098
68543,30085
68540,30072
68538,30059
68537,30046
68537,29775
68538,29762
68540,29749
68543,29736
68547,29723
68553,29711
68560,29700
68568,29689
68577,29679
68586,29671
68597,29663
68609,29656
68621,29650
68633,29646
68646,29642
68659,29640
68672,29640
69110,29640
69124,29640
Z" /> 
<path style="fill:#000000; fill-opacity:1.0; 
stroke:#000000; stroke-width:0; stroke-opacity:1; 
stroke-linecap:round; stroke-linejoin:round;fill-rule:evenodd;"
d="M 69124,28902
69137,28904
69150,28907
69162,28912
69174,28918
69186,28924
69196,28932
69206,28941
69215,28951
69223,28962
69230,28973
69235,28985
69240,28998
69243,29011
69245,29024
69246,29037
69246,29308
69245,29321
69243,29334
69240,29347
69235,29359
69230,29371
69223,29383
69215,29394
69206,29403
69196,29412
69186,29420
69174,29427
69162,29433
69150,29437
69137,29440
69124,29442
69110,29443
68672,29443
68659,29442
68646,29440
68633,29437
68621,29433
68609,29427
68597,29420
68586,29412
68577,29403
68568,29394
68560,29383
68553,29371
68547,29359
68543,29347
68540,29334
68538,29321
68537,29308
68537,29037
68538,29024
68540,29011
68543,28998
68547,28985
68553,28973
68560,28962
68568,28951
68577,28941
68586,28932
68597,28924
68609,28918
68621,28912
68633,28907
68646,28904
68659,28902
68672,28902
69110,28902
69124,28902
Z" /> 
</g>
<g >
<path style="fill:#000000; fill-opacity:1.0; 
stroke:#000000; stroke-width:0; stroke-opacity:1; 
stroke-linecap:round; stroke-linejoin:round;fill-rule:evenodd;"
d="M 75677,29640
75690,29642
75703,29646
75716,29650
75728,29656
75739,29663
75750,29671
75760,29679
75769,29689
75776,29700
75783,29711
75789,29723
75793,29736
75797,29749
75799,29762
75799,29775
75799,30046
75799,30059
75797,30072
75793,30085
75789,30098
75783,30110
75776,30121
75769,30132
75760,30142
75750,30150
75739,30158
75728,30165
75716,30171
75703,30175
75690,30179
75677,30181
75664,30181
75226,30181
75213,30181
75200,30179
75187,30175
75174,30171
75162,30165
75151,30158
75140,30150
75130,30142
75121,30132
75113,30121
75107,30110
75101,30098
75096,30085
75093,30072
75091,30059
75091,30046
75091,29775
75091,29762
75093,29749
75096,29736
75101,29723
75107,29711
75113,29700
75121,29689
75130,29679
75140,29671
75151,29663
75162,29656
75174,29650
75187,29646
75200,29642
75213,29640
75226,29640
75664,29640
75677,29640
Z" /> 
<path style="fill:#000000; fill-opacity:1.0; 
stroke:#000000; stroke-width:0; stroke-opacity:1; 
stroke-linecap:round; stroke-linejoin:round;fill-rule:evenodd;"
d="M 75677,28902
75690,28904
75703,28907
75716,28912
75728,28918
75739,28924
75750,28932
75760,28941
75769,28951
75776,28962
75783,28973
75789,28985
75793,28998
75797,29011
75799,29024
75799,29037
75799,29308
75799,29321
75797,29334
75793,29347
75789,29359
75783,29371
75776,29383
75769,29394
75760,29403
75750,29412
75739,29420
75728,29427
75716,29433
75703,29437
75690,29440
75677,29442
75664,29443
75226,29443
75213,29442
75200,29440
75187,29437
75174,29433
75162,29427
75151,29420
75140,29412
75130,29403
75121,29394
75113,29383
75107,29371
75101,29359
75096,29347
75093,29334
75091,29321
75091,29308
75091,29037
75091,29024
75093,29011
75096,28998
75101,28985
75107,28973
75113,28962
75121,28951
75130,28941
75140,28932
75151,28924
75162,28918
75174,28912
75187,28907
75200,28904
75213,28902
75226,28902
75664,28902
75677,28902
Z" /> 
</g>
<g >
<path style="fill:#000000; fill-opacity:1.0; 
stroke:#000000; stroke-width:0; stroke-opacity:1; 
stroke-linecap:round; stroke-linejoin:round;fill-rule:evenodd;"
d="M 80280,27334
80293,27336
80306,27339
80319,27343
80331,27349
80342,27356
80353,27364
80362,27373
80371,27383
80379,27393
80386,27405
80392,27417
80396,27429
80399,27442
80401,27455
80402,27469
80402,27906
80401,27920
80399,27933
80396,27946
80392,27958
80386,27970
80379,27982
80371,27992
80362,28002
80353,28011
80342,28019
80331,28026
80319,28032
80306,28036
80293,28039
80280,28041
80267,28042
79996,28042
79983,28041
79970,28039
79957,28036
79944,28032
79932,28026
79921,28019
79910,28011
79900,28002
79891,27992
79884,27982
79877,27970
79871,27958
79867,27946
79863,27933
79861,27920
79861,27906
79861,27469
79861,27455
79863,27442
79867,27429
79871,27417
79877,27405
79884,27393
79891,27383
79900,27373
79910,27364
79921,27356
79932,27349
79944,27343
79957,27339
79970,27336
79983,27334
79996,27333
80267,27333
80280,27334
Z" /> 
<path style="fill:#000000; fill-opacity:1.0; 
stroke:#000000; stroke-width:0; stroke-opacity:1; 
stroke-linecap:round; stroke-linejoin:round;fill-rule:evenodd;"
d="M 81018,27334
81031,27336
81044,27339
81057,27343
81069,27349
81080,27356
81091,27364
81101,27373
81110,27383
81117,27393
81124,27405
81130,27417
81134,27429
81138,27442
81140,27455
81140,27469
81140,27906
81140,27920
81138,27933
81134,27946
81130,27958
81124,27970
81117,27982
81110,27992
81101,28002
81091,28011
81080,28019
81069,28026
81057,28032
81044,28036
81031,28039
81018,28041
81005,28042
80734,28042
80721,28041
80708,28039
80695,28036
80682,28032
80670,28026
80659,28019
80648,28011
80639,28002
80630,27992
80622,27982
80615,27970
80609,27958
80605,27946
80602,27933
80600,27920
80599,27906
80599,27469
80600,27455
80602,27442
80605,27429
80609,27417
80615,27405
80622,27393
80630,27383
80639,27373
80648,27364
80659,27356
80670,27349
80682,27343
80695,27339
80708,27336
80721,27334
80734,27333
81005,27333
81018,27334
Z" /> 
</g>
<g >
<path style="fill:#000000; fill-opacity:1.0; 
stroke:#000000; stroke-width:0; stroke-opacity:1; 
stroke-linecap:round; stroke-linejoin:round;fill-rule:evenodd;"
d="M 88784,29640
88798,29642
88811,29646
88823,29650
88835,29656
88846,29663
88857,29671
88867,29679
88876,29689
88884,29700
88891,29711
88896,29723
88901,29736
88904,29749
88906,29762
88907,29775
88907,30046
88906,30059
88904,30072
88901,30085
88896,30098
88891,30110
88884,30121
88876,30132
88867,30142
88857,30150
88846,30158
88835,30165
88823,30171
88811,30175
88798,30179
88784,30181
88771,30181
88333,30181
88320,30181
88307,30179
88294,30175
88281,30171
88269,30165
88258,30158
88247,30150
88238,30142
88229,30132
88221,30121
88214,30110
88208,30098
88204,30085
88200,30072
88199,30059
88198,30046
88198,29775
88199,29762
88200,29749
88204,29736
88208,29723
88214,29711
88221,29700
88229,29689
88238,29679
88247,29671
88258,29663
88269,29656
88281,29650
88294,29646
88307,29642
88320,29640
88333,29640
88771,29640
88784,29640
Z" /> 
<path style="fill:#000000; fill-opacity:1.0; 
stroke:#000000; stroke-width:0; stroke-opacity:1; 
stroke-linecap:round; stroke-linejoin:round;fill-rule:evenodd;"
d="M 88784,28902
88798,28904
88811,28907
88823,28912
88835,28918
88846,28924
88857,28932
88867,28941
88876,28951
88884,28962
88891,28973
88896,28985
88901,28998
88904,29011
88906,29024
88907,29037
88907,29308
88906,29321
88904,29334
88901,29347
88896,29359
88891,29371
88884,29383
88876,29394
88867,29403
88857,29412
88846,29420
88835,29427
88823,29433
88811,29437
88798,29440
88784,29442
88771,29443
88333,29443
88320,29442
88307,29440
88294,29437
88281,29433
88269,29427
88258,29420
88247,29412
88238,29403
88229,29394
88221,29383
88214,29371
88208,29359
88204,29347
88200,29334
88199,29321
88198,29308
88198,29037
88199,29024
88200,29011
88204,28998
88208,28985
88214,28973
88221,28962
88229,28951
88238,28941
88247,28932
88258,28924
88269,28918
88281,28912
88294,28907
88307,28904
88320,28902
88333,28902
88771,28902
88784,28902
Z" /> 
</g>
<g >
<path style="fill:#000000; fill-opacity:1.0; 
stroke:#000000; stroke-width:0; stroke-opacity:1; 
stroke-linecap:round; stroke-linejoin:round;fill-rule:evenodd;"
d="M 95338,29640
95351,29642
95364,29646
95377,29650
95389,29656
95400,29663
95411,29671
95421,29679
95429,29689
95437,29700
95444,29711
95450,29723
95454,29736
95458,29749
95460,29762
95460,29775
95460,30046
95460,30059
95458,30072
95454,30085
95450,30098
95444,30110
95437,30121
95429,30132
95421,30142
95411,30150
95400,30158
95389,30165
95377,30171
95364,30175
95351,30179
95338,30181
95325,30181
94887,30181
94874,30181
94860,30179
94848,30175
94835,30171
94823,30165
94812,30158
94801,30150
94791,30142
94782,30132
94774,30121
94768,30110
94762,30098
94757,30085
94754,30072
94752,30059
94752,30046
94752,29775
94752,29762
94754,29749
94757,29736
94762,29723
94768,29711
94774,29700
94782,29689
94791,29679
94801,29671
94812,29663
94823,29656
94835,29650
94848,29646
94860,29642
94874,29640
94887,29640
95325,29640
95338,29640
Z" /> 
<path style="fill:#000000; fill-opacity:1.0; 
stroke:#000000; stroke-width:0; stroke-opacity:1; 
stroke-linecap:round; stroke-linejoin:round;fill-rule:evenodd;"
d="M 95338,28902
95351,28904
95364,28907
95377,28912
95389,28918
95400,28924
95411,28932
95421,28941
95429,28951
95437,28962
95444,28973
95450,28985
95454,28998
95458,29011
95460,29024
95460,29037
95460,29308
95460,29321
95458,29334
95454,29347
95450,29359
95444,29371
95437,29383
95429,29394
95421,29403
95411,29412
95400,29420
95389,29427
95377,29433
95364,29437
95351,29440
95338,29442
95325,29443
94887,29443
94874,29442
94860,29440
94848,29437
94835,29433
94823,29427
94812,29420
94801,29412
94791,29403
94782,29394
94774,29383
94768,29371
94762,29359
94757,29347
94754,29334
94752,29321
94752,29308
94752,29037
94752,29024
94754,29011
94757,28998
94762,28985
94768,28973
94774,28962
94782,28951
94791,28941
94801,28932
94812,28924
94823,28918
94835,28912
94848,28907
94860,28904
94874,28902
94887,28902
95325,28902
95338,28902
Z" /> 
</g>
<g >
<path style="fill:#000000; fill-opacity:1.0; 
stroke:#000000; stroke-width:0; stroke-opacity:1; 
stroke-linecap:round; stroke-linejoin:round;fill-rule:evenodd;"
d="M 102033,29640
102046,29642
102059,29646
102071,29650
102083,29656
102095,29663
102105,29671
102115,29679
102124,29689
102132,29700
102139,29711
102144,29723
102149,29736
102152,29749
102154,29762
102155,29775
102155,30046
102154,30059
102152,30072
102149,30085
102144,30098
102139,30110
102132,30121
102124,30132
102115,30142
102105,30150
102095,30158
102083,30165
102071,30171
102059,30175
102046,30179
102033,30181
102019,30181
101581,30181
101568,30181
101555,30179
101542,30175
101530,30171
101518,30165
101506,30158
101496,30150
101486,30142
101477,30132
101469,30121
101462,30110
101456,30098
101452,30085
101449,30072
101447,30059
101446,30046
101446,29775
101447,29762
101449,29749
101452,29736
101456,29723
101462,29711
101469,29700
101477,29689
101486,29679
101496,29671
101506,29663
101518,29656
101530,29650
101542,29646
101555,29642
101568,29640
101581,29640
102019,29640
102033,29640
Z" /> 
<path style="fill:#000000; fill-opacity:1.0; 
stroke:#000000; stroke-width:0; stroke-opacity:1; 
stroke-linecap:round; stroke-linejoin:round;fill-rule:evenodd;"
d="M 102033,28902
102046,28904
102059,28907
102071,28912
102083,28918
102095,28924
102105,28932
102115,28941
102124,28951
102132,28962
102139,28973
102144,28985
102149,28998
102152,29011
102154,29024
102155,29037
102155,29308
102154,29321
102152,29334
102149,29347
102144,29359
102139,29371
102132,29383
102124,29394
102115,29403
102105,29412
102095,29420
102083,29427
102071,29433
102059,29437
102046,29440
102033,29442
102019,29443
101581,29443
101568,29442
101555,29440
101542,29437
101530,29433
101518,29427
101506,29420
101496,29412
101486,29403
101477,29394
101469,29383
101462,29371
101456,29359
101452,29347
101449,29334
101447,29321
101446,29308
101446,29037
101447,29024
101449,29011
101452,28998
101456,28985
101462,28973
101469,28962
101477,28951
101486,28941
101496,28932
101506,28924
101518,28918
101530,28912
101542,28907
101555,28904
101568,28902
101581,28902
102019,28902
102033,28902
Z" /> 
</g>
<g >
<path style="fill:#000000; fill-opacity:1.0; 
stroke:#000000; stroke-width:0; stroke-opacity:1; 
stroke-linecap:round; stroke-linejoin:round;fill-rule:evenodd;"
d="M 70224,28902
70237,28904
70250,28907
70262,28912
70274,28918
70286,28924
70296,28932
70306,28941
70315,28951
70323,28962
70330,28973
70335,28985
70340,28998
70343,29011
70345,29024
70346,29037
70346,29308
70345,29321
70343,29334
70340,29347
70335,29359
70330,29371
70323,29383
70315,29394
70306,29403
70296,29412
70286,29420
70274,29427
70262,29433
70250,29437
70237,29440
70224,29442
70210,29443
69772,29443
69759,29442
69746,29440
69733,29437
69721,29433
69709,29427
69697,29420
69686,29412
69677,29403
69668,29394
69660,29383
69653,29371
69647,29359
69643,29347
69640,29334
69638,29321
69637,29308
69637,29037
69638,29024
69640,29011
69643,28998
69647,28985
69653,28973
69660,28962
69668,28951
69677,28941
69686,28932
69697,28924
69709,28918
69721,28912
69733,28907
69746,28904
69759,28902
69772,28902
70210,28902
70224,28902
Z" /> 
<path style="fill:#000000; fill-opacity:1.0; 
stroke:#000000; stroke-width:0; stroke-opacity:1; 
stroke-linecap:round; stroke-linejoin:round;fill-rule:evenodd;"
d="M 70224,29640
70237,29642
70250,29646
70262,29650
70274,29656
70286,29663
70296,29671
70306,29679
70315,29689
70323,29700
70330,29711
70335,29723
70340,29736
70343,29749
70345,29762
70346,29775
70346,30046
70345,30059
70343,30072
70340,30085
70335,30098
70330,30110
70323,30121
70315,30132
70306,30142
70296,30150
70286,30158
70274,30165
70262,30171
70250,30175
70237,30179
70224,30181
70210,30181
69772,30181
69759,30181
69746,30179
69733,30175
69721,30171
69709,30165
69697,30158
69686,30150
69677,30142
69668,30132
69660,30121
69653,30110
69647,30098
69643,30085
69640,30072
69638,30059
69637,30046
69637,29775
69638,29762
69640,29749
69643,29736
69647,29723
69653,29711
69660,29700
69668,29689
69677,29679
69686,29671
69697,29663
69709,29656
69721,29650
69733,29646
69746,29642
69759,29640
69772,29640
70210,29640
70224,29640
Z" /> 
</g>
<g >
<path style="fill:#000000; fill-opacity:1.0; 
stroke:#000000; stroke-width:0; stroke-opacity:1; 
stroke-linecap:round; stroke-linejoin:round;fill-rule:evenodd;"
d="M 63670,28902
63683,28904
63696,28907
63708,28912
63720,28918
63732,28924
63743,28932
63752,28941
63761,28951
63769,28962
63776,28973
63782,28985
63786,28998
63789,29011
63791,29024
63792,29037
63792,29308
63791,29321
63789,29334
63786,29347
63782,29359
63776,29371
63769,29383
63761,29394
63752,29403
63743,29412
63732,29420
63720,29427
63708,29433
63696,29437
63683,29440
63670,29442
63657,29443
63219,29443
63205,29442
63192,29440
63179,29437
63167,29433
63155,29427
63143,29420
63133,29412
63123,29403
63114,29394
63106,29383
63099,29371
63094,29359
63089,29347
63086,29334
63084,29321
63083,29308
63083,29037
63084,29024
63086,29011
63089,28998
63094,28985
63099,28973
63106,28962
63114,28951
63123,28941
63133,28932
63143,28924
63155,28918
63167,28912
63179,28907
63192,28904
63205,28902
63219,28902
63657,28902
63670,28902
Z" /> 
<path style="fill:#000000; fill-opacity:1.0; 
stroke:#000000; stroke-width:0; stroke-opacity:1; 
stroke-linecap:round; stroke-linejoin:round;fill-rule:evenodd;"
d="M 63670,29640
63683,29642
63696,29646
63708,29650
63720,29656
63732,29663
63743,29671
63752,29679
63761,29689
63769,29700
63776,29711
63782,29723
63786,29736
63789,29749
63791,29762
63792,29775
63792,30046
63791,30059
63789,30072
63786,30085
63782,30098
63776,30110
63769,30121
63761,30132
63752,30142
63743,30150
63732,30158
63720,30165
63708,30171
63696,30175
63683,30179
63670,30181
63657,30181
63219,30181
63205,30181
63192,30179
63179,30175
63167,30171
63155,30165
63143,30158
63133,30150
63123,30142
63114,30132
63106,30121
63099,30110
63094,30098
63089,30085
63086,30072
63084,30059
63083,30046
63083,29775
63084,29762
63086,29749
63089,29736
63094,29723
63099,29711
63106,29700
63114,29689
63123,29679
63133,29671
63143,29663
63155,29656
63167,29650
63179,29646
63192,29642
63205,29640
63219,29640
63657,29640
63670,29640
Z" /> 
</g>
<g >
<path style="fill:#000000; fill-opacity:1.0; 
stroke:#000000; stroke-width:0; stroke-opacity:1; 
stroke-linecap:round; stroke-linejoin:round;fill-rule:evenodd;"
d="M 57116,28902
57129,28904
57142,28907
57155,28912
57167,28918
57178,28924
57189,28932
57199,28941
57208,28951
57216,28962
57222,28973
57228,28985
57233,28998
57236,29011
57238,29024
57238,29037
57238,29308
57238,29321
57236,29334
57233,29347
57228,29359
57222,29371
57216,29383
57208,29394
57199,29403
57189,29412
57178,29420
57167,29427
57155,29433
57142,29437
57129,29440
57116,29442
57103,29443
56665,29443
56652,29442
56639,29440
56626,29437
56613,29433
56601,29427
56590,29420
56579,29412
56569,29403
56560,29394
56553,29383
56546,29371
56540,29359
56536,29347
56532,29334
56530,29321
56530,29308
56530,29037
56530,29024
56532,29011
56536,28998
56540,28985
56546,28973
56553,28962
56560,28951
56569,28941
56579,28932
56590,28924
56601,28918
56613,28912
56626,28907
56639,28904
56652,28902
56665,28902
57103,28902
57116,28902
Z" /> 
<path style="fill:#000000; fill-opacity:1.0; 
stroke:#000000; stroke-width:0; stroke-opacity:1; 
stroke-linecap:round; stroke-linejoin:round;fill-rule:evenodd;"
d="M 57116,29640
57129,29642
57142,29646
57155,29650
57167,29656
57178,29663
57189,29671
57199,29679
57208,29689
57216,29700
57222,29711
57228,29723
57233,29736
57236,29749
57238,29762
57238,29775
57238,30046
57238,30059
57236,30072
57233,30085
57228,30098
57222,30110
57216,30121
57208,30132
57199,30142
57189,30150
57178,30158
57167,30165
57155,30171
57142,30175
57129,30179
57116,30181
57103,30181
56665,30181
56652,30181
56639,30179
56626,30175
56613,30171
56601,30165
56590,30158
56579,30150
56569,30142
56560,30132
56553,30121
56546,30110
56540,30098
56536,30085
56532,30072
56530,30059
56530,30046
56530,29775
56530,29762
56532,29749
56536,29736
56540,29723
56546,29711
56553,29700
56560,29689
56569,29679
56579,29671
56590,29663
56601,29656
56613,29650
56626,29646
56639,29642
56652,29640
56665,29640
57103,29640
57116,29640
Z" /> 
</g>
<g >
<path style="fill:#000000; fill-opacity:1.0; 
stroke:#000000; stroke-width:0; stroke-opacity:1; 
stroke-linecap:round; stroke-linejoin:round;fill-rule:evenodd;"
d="M 50563,28902
50576,28904
50589,28907
50601,28912
50613,28918
50625,28924
50635,28932
50645,28941
50654,28951
50662,28962
50669,28973
50674,28985
50679,28998
50682,29011
50684,29024
50685,29037
50685,29308
50684,29321
50682,29334
50679,29347
50674,29359
50669,29371
50662,29383
50654,29394
50645,29403
50635,29412
50625,29420
50613,29427
50601,29433
50589,29437
50576,29440
50563,29442
50549,29443
50111,29443
50098,29442
50085,29440
50072,29437
50060,29433
50048,29427
50036,29420
50026,29412
50016,29403
50007,29394
49999,29383
49992,29371
49986,29359
49982,29347
49979,29334
49977,29321
49976,29308
49976,29037
49977,29024
49979,29011
49982,28998
49986,28985
49992,28973
49999,28962
50007,28951
50016,28941
50026,28932
50036,28924
50048,28918
50060,28912
50072,28907
50085,28904
50098,28902
50111,28902
50549,28902
50563,28902
Z" /> 
<path style="fill:#000000; fill-opacity:1.0; 
stroke:#000000; stroke-width:0; stroke-opacity:1; 
stroke-linecap:round; stroke-linejoin:round;fill-rule:evenodd;"
d="M 50563,29640
50576,29642
50589,29646
50601,29650
50613,29656
50625,29663
50635,29671
50645,29679
50654,29689
50662,29700
50669,29711
50674,29723
50679,29736
50682,29749
50684,29762
50685,29775
50685,30046
50684,30059
50682,30072
50679,30085
50674,30098
50669,30110
50662,30121
50654,30132
50645,30142
50635,30150
50625,30158
50613,30165
50601,30171
50589,30175
50576,30179
50563,30181
50549,30181
50111,30181
50098,30181
50085,30179
50072,30175
50060,30171
50048,30165
50036,30158
50026,30150
50016,30142
50007,30132
49999,30121
49992,30110
49986,30098
49982,30085
49979,30072
49977,30059
49976,30046
49976,29775
49977,29762
49979,29749
49982,29736
49986,29723
49992,29711
49999,29700
50007,29689
50016,29679
50026,29671
50036,29663
50048,29656
50060,29650
50072,29646
50085,29642
50098,29640
50111,29640
50549,29640
50563,29640
Z" /> 
</g>
<g >
<path style="fill:#000000; fill-opacity:1.0; 
stroke:#000000; stroke-width:0; stroke-opacity:1; 
stroke-linecap:round; stroke-linejoin:round;fill-rule:evenodd;"
d="M 44009,28902
44022,28904
44035,28907
44048,28912
44060,28918
44071,28924
44082,28932
44091,28941
44100,28951
44108,28962
44115,28973
44121,28985
44125,28998
44129,29011
44130,29024
44131,29037
44131,29308
44130,29321
44129,29334
44125,29347
44121,29359
44115,29371
44108,29383
44100,29394
44091,29403
44082,29412
44071,29420
44060,29427
44048,29433
44035,29437
44022,29440
44009,29442
43996,29443
43558,29443
43545,29442
43531,29440
43518,29437
43506,29433
43494,29427
43483,29420
43472,29412
43462,29403
43453,29394
43445,29383
43438,29371
43433,29359
43428,29347
43425,29334
43423,29321
43422,29308
43422,29037
43423,29024
43425,29011
43428,28998
43433,28985
43438,28973
43445,28962
43453,28951
43462,28941
43472,28932
43483,28924
43494,28918
43506,28912
43518,28907
43531,28904
43545,28902
43558,28902
43996,28902
44009,28902
Z" /> 
<path style="fill:#000000; fill-opacity:1.0; 
stroke:#000000; stroke-width:0; stroke-opacity:1; 
stroke-linecap:round; stroke-linejoin:round;fill-rule:evenodd;"
d="M 44009,29640
44022,29642
44035,29646
44048,29650
44060,29656
44071,29663
44082,29671
44091,29679
44100,29689
44108,29700
44115,29711
44121,29723
44125,29736
44129,29749
44130,29762
44131,29775
44131,30046
44130,30059
44129,30072
44125,30085
44121,30098
44115,30110
44108,30121
44100,30132
44091,30142
44082,30150
44071,30158
44060,30165
44048,30171
44035,30175
44022,30179
44009,30181
43996,30181
43558,30181
43545,30181
43531,30179
43518,30175
43506,30171
43494,30165
43483,30158
43472,30150
43462,30142
43453,30132
43445,30121
43438,30110
43433,30098
43428,30085
43425,30072
43423,30059
43422,30046
43422,29775
43423,29762
43425,29749
43428,29736
43433,29723
43438,29711
43445,29700
43453,29689
43462,29679
43472,29671
43483,29663
43494,29656
43506,29650
43518,29646
43531,29642
43545,29640
43558,29640
43996,29640
44009,29640
Z" /> 
</g>
<g >
<path style="fill:#000000; fill-opacity:1.0; 
stroke:#000000; stroke-width:0; stroke-opacity:1; 
stroke-linecap:round; stroke-linejoin:round;fill-rule:evenodd;"
d="M 37455,28902
37469,28904
37481,28907
37494,28912
37506,28918
37517,28924
37528,28932
37538,28941
37547,28951
37555,28962
37561,28973
37567,28985
37572,28998
37575,29011
37577,29024
37577,29037
37577,29308
37577,29321
37575,29334
37572,29347
37567,29359
37561,29371
37555,29383
37547,29394
37538,29403
37528,29412
37517,29420
37506,29427
37494,29433
37481,29437
37469,29440
37455,29442
37442,29443
37004,29443
36991,29442
36978,29440
36965,29437
36952,29433
36940,29427
36929,29420
36918,29412
36908,29403
36900,29394
36892,29383
36885,29371
36879,29359
36875,29347
36871,29334
36869,29321
36869,29308
36869,29037
36869,29024
36871,29011
36875,28998
36879,28985
36885,28973
36892,28962
36900,28951
36908,28941
36918,28932
36929,28924
36940,28918
36952,28912
36965,28907
36978,28904
36991,28902
37004,28902
37442,28902
37455,28902
Z" /> 
<path style="fill:#000000; fill-opacity:1.0; 
stroke:#000000; stroke-width:0; stroke-opacity:1; 
stroke-linecap:round; stroke-linejoin:round;fill-rule:evenodd;"
d="M 37455,29640
37469,29642
37481,29646
37494,29650
37506,29656
37517,29663
37528,29671
37538,29679
37547,29689
37555,29700
37561,29711
37567,29723
37572,29736
37575,29749
37577,29762
37577,29775
37577,30046
37577,30059
37575,30072
37572,30085
37567,30098
37561,30110
37555,30121
37547,30132
37538,30142
37528,30150
37517,30158
37506,30165
37494,30171
37481,30175
37469,30179
37455,30181
37442,30181
37004,30181
36991,30181
36978,30179
36965,30175
36952,30171
36940,30165
36929,30158
36918,30150
36908,30142
36900,30132
36892,30121
36885,30110
36879,30098
36875,30085
36871,30072
36869,30059
36869,30046
36869,29775
36869,29762
36871,29749
36875,29736
36879,29723
36885,29711
36892,29700
36900,29689
36908,29679
36918,29671
36929,29663
36940,29656
36952,29650
36965,29646
36978,29642
36991,29640
37004,29640
37442,29640
37455,29640
Z" /> 
</g>
<g >
<path style="fill:#000000; fill-opacity:1.0; 
stroke:#000000; stroke-width:0; stroke-opacity:1; 
stroke-linecap:round; stroke-linejoin:round;fill-rule:evenodd;"
d="M 28627,26378
28641,26380
28653,26383
28666,26388
28678,26393
28689,26400
28700,26408
28710,26417
28719,26427
28727,26438
28734,26449
28739,26461
28744,26474
28747,26486
28749,26500
28750,26513
28750,26951
28749,26964
28747,26977
28744,26990
28739,27003
28734,27015
28727,27026
28719,27037
28710,27046
28700,27055
28689,27063
28678,27070
28666,27076
28653,27080
28641,27084
28627,27085
28614,27086
28343,27086
28330,27085
28317,27084
28304,27080
28292,27076
28280,27070
28268,27063
28258,27055
28248,27046
28239,27037
28231,27026
28224,27015
28218,27003
28214,26990
28211,26977
28209,26964
28208,26951
28208,26513
28209,26500
28211,26486
28214,26474
28218,26461
28224,26449
28231,26438
28239,26427
28248,26417
28258,26408
28268,26400
28280,26393
28292,26388
28304,26383
28317,26380
28330,26378
28343,26377
28614,26377
28627,26378
Z" /> 
<path style="fill:#000000; fill-opacity:1.0; 
stroke:#000000; stroke-width:0; stroke-opacity:1; 
stroke-linecap:round; stroke-linejoin:round;fill-rule:evenodd;"
d="M 27889,26378
27902,26380
27915,26383
27928,26388
27940,26393
27951,26400
27962,26408
27972,26417
27981,26427
27989,26438
27995,26449
28001,26461
28005,26474
28009,26486
28011,26500
28011,26513
28011,26951
28011,26964
28009,26977
28005,26990
28001,27003
27995,27015
27989,27026
27981,27037
27972,27046
27962,27055
27951,27063
27940,27070
27928,27076
27915,27080
27902,27084
27889,27085
27876,27086
27605,27086
27592,27085
27579,27084
27566,27080
27554,27076
27542,27070
27530,27063
27519,27055
27510,27046
27501,27037
27493,27026
27486,27015
27480,27003
27476,26990
27473,26977
27471,26964
27470,26951
27470,26513
27471,26500
27473,26486
27476,26474
27480,26461
27486,26449
27493,26438
27501,26427
27510,26417
27519,26408
27530,26400
27542,26393
27554,26388
27566,26383
27579,26380
27592,26378
27605,26377
27876,26377
27889,26378
Z" /> 
</g>
<g >
</g>
<g >
</g>
<g >
</g>
</g> 
</svg>
