<?xml version="1.0" standalone="no"?>
 <!DOCTYPE svg PUBLIC "-//W3C//DTD SVG 1.1//EN" 
 "http://www.w3.org/Graphics/SVG/1.1/DTD/svg11.dtd"> 
<svg xmlns="http://www.w3.org/2000/svg" version="1.1" 
    width="41.9989cm" height="29.7002cm" viewBox="0 0 165350 116930 ">
<title>SVG Picture created as BCInside-F_SilkS.svg date 2019/04/12 10:45:59 </title>
  <desc>Picture generated by PCBNEW </desc>
<g style="fill:#000000; fill-opacity:1;stroke:#000000; stroke-opacity:1;
stroke-linecap:round; stroke-linejoin:round; "
 transform="translate(0 0) scale(1 1)">
</g>
<g style="fill:#000000; fill-opacity:0.0; 
stroke:#000000; stroke-width:-0.000393701; stroke-opacity:1; 
stroke-linecap:round; stroke-linejoin:round;">
</g>
<g style="fill:#000000; fill-opacity:0.0; 
stroke:#000000; stroke-width:118.11; stroke-opacity:1; 
stroke-linecap:round; stroke-linejoin:round;">
<path d="M126895 32002
L127064 32058
L127120 32114
L127176 32227
L127176 32395
L127120 32508
L127064 32564
L126951 32620
L126501 32620
L126501 31439
L126895 31439
L127007 31496
L127064 31552
L127120 31664
L127120 31777
L127064 31889
L127007 31946
L126895 32002
L126501 32002
" />
<path d="M127176 27232
L127120 27289
L126951 27345
L126839 27345
L126670 27289
L126557 27176
L126501 27064
L126445 26839
L126445 26670
L126501 26445
L126557 26332
L126670 26220
L126839 26164
L126951 26164
L127120 26220
L127176 26276
" />
<path d="M19926 31923
L20095 31979
L20151 32035
L20208 32148
L20208 32317
L20151 32429
L20095 32485
L19983 32542
L19533 32542
L19533 31361
L19926 31361
L20039 31417
L20095 31473
L20151 31586
L20151 31698
L20095 31811
L20039 31867
L19926 31923
L19533 31923
" />
<path d="M20168 27232
L20112 27289
L19943 27345
L19831 27345
L19662 27289
L19550 27176
L19493 27064
L19437 26839
L19437 26670
L19493 26445
L19550 26332
L19662 26220
L19831 26164
L19943 26164
L20112 26220
L20168 26276
" />
</g>
<g style="fill:#000000; fill-opacity:0.0; 
stroke:#000000; stroke-width:3.93701; stroke-opacity:1; 
stroke-linecap:round; stroke-linejoin:round;">
<path d="M118283 29382
L120252 29382
" />
<path d="M119268 28397
L119268 30366
" />
<path d="M111721 29382
L113690 29382
" />
<path d="M112706 28397
L112706 30366
" />
<path d="M105159 29382
L107128 29382
" />
<path d="M106144 28397
L106144 30366
" />
<path d="M98597 29382
L100566 29382
" />
<path d="M99582 28397
L99582 30366
" />
<path d="M92036 29382
L94004 29382
" />
<path d="M93020 28397
L93020 30366
" />
<path d="M85474 29382
L87443 29382
" />
<path d="M86458 28397
L86458 30366
" />
<path d="M78912 29382
L80881 29382
" />
<path d="M79897 28397
L79897 30366
" />
<path d="M72351 29382
L74319 29382
" />
<path d="M73335 28397
L73335 30366
" />
<path d="M65789 29382
L67757 29382
" />
<path d="M66773 28397
L66773 30366
" />
<path d="M59227 29382
L61196 29382
" />
<path d="M60212 28397
L60212 30366
" />
<path d="M52666 29382
L54634 29382
" />
<path d="M53650 28397
L53650 30366
" />
<path d="M46104 29382
L48072 29382
" />
<path d="M47088 28397
L47088 30366
" />
<path d="M39542 29382
L41511 29382
" />
<path d="M40526 28397
L40526 30366
" />
<path d="M32981 29382
L34949 29382
" />
<path d="M33965 28397
L33965 30366
" />
<path d="M26419 29382
L28387 29382
" />
<path d="M27403 28397
L27403 30366
" />
<path d="M18179 29688
L18179 29688
" />
<path d="M18167 29816
L18179 29688
" />
<path d="M18127 29921
L18167 29816
" />
<path d="M18060 29992
L18127 29921
" />
<path d="M17962 30017
L18060 29992
" />
<path d="M17849 29985
L17962 30017
" />
<path d="M17776 29888
L17849 29985
" />
<path d="M17735 29725
L17776 29888
" />
<path d="M17721 29496
L17735 29725
" />
<path d="M17780 29437
L17721 29496
" />
<path d="M17845 29394
L17780 29437
" />
<path d="M17914 29368
L17845 29394
" />
<path d="M17984 29359
L17914 29368
" />
<path d="M18067 29377
L17984 29359
" />
<path d="M18128 29433
L18067 29377
" />
<path d="M18166 29535
L18128 29433
" />
<path d="M18179 29688
L18166 29535
" />
<path d="M18579 29665
L18579 29665
" />
<path d="M18541 29417
L18579 29665
" />
<path d="M18436 29234
L18541 29417
" />
<path d="M18280 29122
L18436 29234
" />
<path d="M18088 29083
L18280 29122
" />
<path d="M17993 29093
L18088 29083
" />
<path d="M17898 29123
L17993 29093
" />
<path d="M17806 29173
L17898 29123
" />
<path d="M17721 29242
L17806 29173
" />
<path d="M17758 29029
L17721 29242
" />
<path d="M17833 28874
L17758 29029
" />
<path d="M17940 28778
L17833 28874
" />
<path d="M18070 28746
L17940 28778
" />
<path d="M18128 28750
L18070 28746
" />
<path d="M18185 28763
L18128 28750
" />
<path d="M18240 28786
L18185 28763
" />
<path d="M18293 28817
L18240 28786
" />
<path d="M18331 28756
L18293 28817
" />
<path d="M18369 28695
L18331 28756
" />
<path d="M18407 28635
L18369 28695
" />
<path d="M18445 28574
L18407 28635
" />
<path d="M18366 28527
L18445 28574
" />
<path d="M18275 28491
L18366 28527
" />
<path d="M18175 28468
L18275 28491
" />
<path d="M18065 28460
L18175 28468
" />
<path d="M17745 28534
L18065 28460
" />
<path d="M17506 28742
L17745 28534
" />
<path d="M17355 29060
L17506 28742
" />
<path d="M17303 29468
L17355 29060
" />
<path d="M17340 29789
L17303 29468
" />
<path d="M17455 30055
L17340 29789
" />
<path d="M17658 30236
L17455 30055
" />
<path d="M17956 30304
L17658 30236
" />
<path d="M18215 30253
L17956 30304
" />
<path d="M18411 30116
L18215 30253
" />
<path d="M18536 29914
L18411 30116
" />
<path d="M18579 29665
L18536 29914
" />
<path d="M15712 30260
L15712 30260
" />
<path d="M15821 30260
L15712 30260
" />
<path d="M15929 30260
L15821 30260
" />
<path d="M16037 30260
L15929 30260
" />
<path d="M16145 30260
L16037 30260
" />
<path d="M16209 30134
L16145 30260
" />
<path d="M16273 30009
L16209 30134
" />
<path d="M16337 29883
L16273 30009
" />
<path d="M16401 29757
L16337 29883
" />
<path d="M16468 29883
L16401 29757
" />
<path d="M16534 30009
L16468 29883
" />
<path d="M16601 30134
L16534 30009
" />
<path d="M16667 30260
L16601 30134
" />
<path d="M16781 30260
L16667 30260
" />
<path d="M16894 30260
L16781 30260
" />
<path d="M17007 30260
L16894 30260
" />
<path d="M17121 30260
L17007 30260
" />
<path d="M17005 30080
L17121 30260
" />
<path d="M16889 29900
L17005 30080
" />
<path d="M16773 29719
L16889 29900
" />
<path d="M16657 29539
L16773 29719
" />
<path d="M16756 29383
L16657 29539
" />
<path d="M16855 29227
L16756 29383
" />
<path d="M16953 29071
L16855 29227
" />
<path d="M17052 28916
L16953 29071
" />
<path d="M16946 28916
L17052 28916
" />
<path d="M16839 28916
L16946 28916
" />
<path d="M16733 28916
L16839 28916
" />
<path d="M16627 28916
L16733 28916
" />
<path d="M16575 29023
L16627 28916
" />
<path d="M16523 29131
L16575 29023
" />
<path d="M16471 29239
L16523 29131
" />
<path d="M16419 29346
L16471 29239
" />
<path d="M16365 29239
L16419 29346
" />
<path d="M16311 29131
L16365 29239
" />
<path d="M16258 29023
L16311 29131
" />
<path d="M16204 28916
L16258 29023
" />
<path d="M16092 28916
L16204 28916
" />
<path d="M15980 28916
L16092 28916
" />
<path d="M15868 28916
L15980 28916
" />
<path d="M15755 28916
L15868 28916
" />
<path d="M15860 29075
L15755 28916
" />
<path d="M15964 29235
L15860 29075
" />
<path d="M16069 29394
L15964 29235
" />
<path d="M16173 29554
L16069 29394
" />
<path d="M16058 29731
L16173 29554
" />
<path d="M15943 29907
L16058 29731
" />
<path d="M15828 30084
L15943 29907
" />
<path d="M15712 30260
L15828 30084
" />
<path d="M30684 29962
L30505 29933
" />
<path d="M30863 29933
L30684 29962
" />
<path d="M31025 29851
L30863 29933
" />
<path d="M31153 29723
L31025 29851
" />
<path d="M31236 29561
L31153 29723
" />
<path d="M31264 29382
L31236 29561
" />
<path d="M31236 29203
L31264 29382
" />
<path d="M31153 29041
L31236 29203
" />
<path d="M31025 28912
L31153 29041
" />
<path d="M30863 28830
L31025 28912
" />
<path d="M30684 28802
L30863 28830
" />
<path d="M30505 28830
L30684 28802
" />
<path d="M30343 28912
L30505 28830
" />
<path d="M30215 29041
L30343 28912
" />
<path d="M30132 29203
L30215 29041
" />
<path d="M30104 29382
L30132 29203
" />
<path d="M30132 29561
L30104 29382
" />
<path d="M30215 29723
L30132 29561
" />
<path d="M30343 29851
L30215 29723
" />
<path d="M30505 29933
L30343 29851
" />
<path d="M76616 29962
L76437 29933
" />
<path d="M76795 29933
L76616 29962
" />
<path d="M76957 29851
L76795 29933
" />
<path d="M77085 29723
L76957 29851
" />
<path d="M77167 29561
L77085 29723
" />
<path d="M77196 29382
L77167 29561
" />
<path d="M77167 29203
L77196 29382
" />
<path d="M77085 29041
L77167 29203
" />
<path d="M76957 28912
L77085 29041
" />
<path d="M76795 28830
L76957 28912
" />
<path d="M76616 28802
L76795 28830
" />
<path d="M76437 28830
L76616 28802
" />
<path d="M76275 28912
L76437 28830
" />
<path d="M76146 29041
L76275 28912
" />
<path d="M76064 29203
L76146 29041
" />
<path d="M76036 29382
L76064 29203
" />
<path d="M76064 29561
L76036 29382
" />
<path d="M76146 29723
L76064 29561
" />
<path d="M76275 29851
L76146 29723
" />
<path d="M76437 29933
L76275 29851
" />
<path d="M115986 29962
L115807 29933
" />
<path d="M116165 29933
L115986 29962
" />
<path d="M116327 29851
L116165 29933
" />
<path d="M116455 29723
L116327 29851
" />
<path d="M116537 29561
L116455 29723
" />
<path d="M116566 29382
L116537 29561
" />
<path d="M116537 29203
L116566 29382
" />
<path d="M116455 29041
L116537 29203
" />
<path d="M116327 28912
L116455 29041
" />
<path d="M116165 28830
L116327 28912
" />
<path d="M115986 28802
L116165 28830
" />
<path d="M115807 28830
L115986 28802
" />
<path d="M115645 28912
L115807 28830
" />
<path d="M115516 29041
L115645 28912
" />
<path d="M115434 29203
L115516 29041
" />
<path d="M115516 29723
L115434 29561
" />
<path d="M115645 29851
L115516 29723
" />
<path d="M115807 29933
L115645 29851
" />
<path d="M120251 28397
L120251 30366
" />
<path d="M118283 28397
L120251 28397
" />
<path d="M118283 30366
L118283 28397
" />
<path d="M120251 30366
L118283 30366
" />
<path d="M113689 28397
L113689 30366
" />
<path d="M111721 28397
L113689 28397
" />
<path d="M111721 30366
L111721 28397
" />
<path d="M113689 30366
L111721 30366
" />
<path d="M107128 28397
L107128 30366
" />
<path d="M105159 28397
L107128 28397
" />
<path d="M105159 30366
L105159 28397
" />
<path d="M107128 30366
L105159 30366
" />
<path d="M100566 28397
L100566 30366
" />
<path d="M98597 28397
L100566 28397
" />
<path d="M98597 30366
L98597 28397
" />
<path d="M100566 30366
L98597 30366
" />
<path d="M94004 28397
L94004 30366
" />
<path d="M92036 28397
L94004 28397
" />
<path d="M92036 30366
L92036 28397
" />
<path d="M94004 30366
L92036 30366
" />
<path d="M87443 28397
L87443 30366
" />
<path d="M85474 28397
L87443 28397
" />
<path d="M85474 30366
L85474 28397
" />
<path d="M87443 30366
L85474 30366
" />
<path d="M80881 28397
L80881 30366
" />
<path d="M78912 28397
L80881 28397
" />
<path d="M78912 30366
L78912 28397
" />
<path d="M80881 30366
L78912 30366
" />
<path d="M74319 28397
L74319 30366
" />
<path d="M72351 28397
L74319 28397
" />
<path d="M72351 30366
L72351 28397
" />
<path d="M74319 30366
L72351 30366
" />
<path d="M67757 28397
L67757 30366
" />
<path d="M65789 28397
L67757 28397
" />
<path d="M65789 30366
L65789 28397
" />
<path d="M67757 30366
L65789 30366
" />
<path d="M61196 28397
L61196 30366
" />
<path d="M59227 28397
L61196 28397
" />
<path d="M59227 30366
L59227 28397
" />
<path d="M61196 30366
L59227 30366
" />
<path d="M54634 28397
L54634 30366
" />
<path d="M52666 28397
L54634 28397
" />
<path d="M52666 30366
L52666 28397
" />
<path d="M54634 30366
L52666 30366
" />
<path d="M48072 28397
L48072 30366
" />
<path d="M46104 28397
L48072 28397
" />
<path d="M46104 30366
L46104 28397
" />
<path d="M48072 30366
L46104 30366
" />
<path d="M41511 28397
L41511 30366
" />
<path d="M39542 28397
L41511 28397
" />
<path d="M39542 30366
L39542 28397
" />
<path d="M41511 30366
L39542 30366
" />
<path d="M34949 28397
L34949 30366
" />
<path d="M32981 28397
L34949 28397
" />
<path d="M32981 30366
L32981 28397
" />
<path d="M34949 30366
L32981 30366
" />
<path d="M28387 28397
L28387 30366
" />
<path d="M26419 28397
L28387 28397
" />
<path d="M26419 30366
L26419 28397
" />
<path d="M28387 30366
L26419 30366
" />
</g>
<g style="fill:#000000; fill-opacity:0.0; 
stroke:#000000; stroke-width:47.2441; stroke-opacity:1; 
stroke-linecap:round; stroke-linejoin:round;">
<path d="M114139 30464
L111265 30464
" />
<path d="M114139 30011
L114139 30464
" />
<path d="M114139 28299
L111265 28299
" />
<path d="M28202 27308
L27999 27308
" />
<path d="M28202 27867
L27999 27867
" />
<path d="M109203 29643
L109203 29440
" />
<path d="M109762 29643
L109762 29440
" />
<path d="M112001 27220
L111798 27220
" />
<path d="M112001 27779
L111798 27779
" />
<path d="M118702 27867
L118499 27867
" />
<path d="M118702 27308
L118499 27308
" />
<path d="M120701 28299
L117827 28299
" />
<path d="M120701 30011
L120701 30464
" />
<path d="M120701 30464
L117827 30464
" />
<path d="M107577 28299
L104703 28299
" />
<path d="M107577 30011
L107577 30464
" />
<path d="M107577 30464
L104703 30464
" />
<path d="M108683 29440
L108683 29643
" />
<path d="M108124 29440
L108124 29643
" />
<path d="M113801 27220
L113598 27220
" />
<path d="M113801 27779
L113598 27779
" />
<path d="M120202 27867
L119999 27867
" />
<path d="M120202 27308
L119999 27308
" />
<path d="M76824 29643
L76824 29440
" />
<path d="M76265 29643
L76265 29440
" />
<path d="M79102 27408
L78899 27408
" />
<path d="M79102 27967
L78899 27967
" />
<path d="M89932 29643
L89932 29440
" />
<path d="M89373 29643
L89373 29440
" />
<path d="M96485 29643
L96485 29440
" />
<path d="M95926 29643
L95926 29440
" />
<path d="M103218 29643
L103218 29440
" />
<path d="M102659 29643
L102659 29440
" />
<path d="M28841 30464
L25966 30464
" />
<path d="M28841 30011
L28841 30464
" />
<path d="M28841 28299
L25966 28299
" />
<path d="M35402 30464
L32528 30464
" />
<path d="M35402 30011
L35402 30464
" />
<path d="M35402 28299
L32528 28299
" />
<path d="M101016 30464
L98141 30464
" />
<path d="M101016 30011
L101016 30464
" />
<path d="M101016 28299
L98141 28299
" />
<path d="M94454 30464
L91580 30464
" />
<path d="M94454 30011
L94454 30464
" />
<path d="M94454 28299
L91580 28299
" />
<path d="M87893 30464
L85019 30464
" />
<path d="M87893 30011
L87893 30464
" />
<path d="M87893 28299
L85019 28299
" />
<path d="M81331 30464
L78457 30464
" />
<path d="M81331 30011
L81331 30464
" />
<path d="M81331 28299
L78457 28299
" />
<path d="M74770 30464
L71896 30464
" />
<path d="M74770 30011
L74770 30464
" />
<path d="M74770 28299
L71896 28299
" />
<path d="M68209 30464
L65335 30464
" />
<path d="M68209 30011
L68209 30464
" />
<path d="M68209 28299
L65335 28299
" />
<path d="M61647 30464
L58773 30464
" />
<path d="M61647 30011
L61647 30464
" />
<path d="M61647 28299
L58773 28299
" />
<path d="M55086 30464
L52212 30464
" />
<path d="M55086 30011
L55086 30464
" />
<path d="M55086 28299
L52212 28299
" />
<path d="M48525 30464
L45651 30464
" />
<path d="M48525 30011
L48525 30464
" />
<path d="M48525 28299
L45651 28299
" />
<path d="M41963 30464
L39089 30464
" />
<path d="M41963 30011
L41963 30464
" />
<path d="M41963 28299
L39089 28299
" />
<path d="M35844 29440
L35844 29643
" />
<path d="M36403 29440
L36403 29643
" />
<path d="M42397 29440
L42397 29643
" />
<path d="M42956 29440
L42956 29643
" />
<path d="M48951 29440
L48951 29643
" />
<path d="M49510 29440
L49510 29643
" />
<path d="M55505 29440
L55505 29643
" />
<path d="M56064 29440
L56064 29643
" />
<path d="M62058 29440
L62058 29643
" />
<path d="M62617 29440
L62617 29643
" />
<path d="M68612 29440
L68612 29643
" />
<path d="M69171 29440
L69171 29643
" />
<path d="M75165 29440
L75165 29643
" />
<path d="M75724 29440
L75724 29643
" />
<path d="M80602 27408
L80399 27408
" />
<path d="M80602 27967
L80399 27967
" />
<path d="M88273 29440
L88273 29643
" />
<path d="M88832 29440
L88832 29643
" />
<path d="M94826 29440
L94826 29643
" />
<path d="M95385 29440
L95385 29643
" />
<path d="M101521 29440
L101521 29643
" />
<path d="M102080 29440
L102080 29643
" />
<path d="M70271 29643
L70271 29440
" />
<path d="M69712 29643
L69712 29440
" />
<path d="M63717 29643
L63717 29440
" />
<path d="M63158 29643
L63158 29440
" />
<path d="M57164 29643
L57164 29440
" />
<path d="M56605 29643
L56605 29440
" />
<path d="M50610 29643
L50610 29440
" />
<path d="M50051 29643
L50051 29440
" />
<path d="M44056 29643
L44056 29440
" />
<path d="M43497 29643
L43497 29440
" />
<path d="M37503 29643
L37503 29440
" />
<path d="M36944 29643
L36944 29440
" />
<path d="M28008 27011
L28212 27011
" />
<path d="M28008 26452
L28212 26452
" />
</g>
<g style="fill:#000000; fill-opacity:0.0; 
stroke:#000000; stroke-width:59.0551; stroke-opacity:1; 
stroke-linecap:round; stroke-linejoin:round;">
<path d="M24346 27038
L24158 27038
L24140 27226
L24158 27207
L24196 27188
L24290 27188
L24327 27207
L24346 27226
L24365 27263
L24365 27357
L24346 27394
L24327 27413
L24290 27432
L24196 27432
L24158 27413
L24140 27394
" />
<path d="M24477 27038
L24608 27432
L24739 27038
" />
<path d="M23921 31257
L23883 31238
L23827 31238
L23771 31257
L23733 31294
L23715 31332
L23696 31407
L23696 31463
L23715 31538
L23733 31576
L23771 31613
L23827 31632
L23865 31632
L23921 31613
L23940 31594
L23940 31463
L23865 31463
" />
<path d="M24108 31632
L24108 31238
L24333 31632
L24333 31238
" />
<path d="M24521 31632
L24521 31238
L24614 31238
L24671 31257
L24708 31294
L24727 31332
L24746 31407
L24746 31463
L24727 31538
L24708 31576
L24671 31613
L24614 31632
L24521 31632
" />
<path d="M23218 29532
L23218 29138
L23311 29138
L23368 29157
L23405 29194
L23424 29232
L23443 29307
L23443 29363
L23424 29438
L23405 29476
L23368 29513
L23311 29532
L23218 29532
" />
<path d="M23611 29532
L23611 29138
" />
<path d="M23799 29532
L23799 29138
L24024 29532
L24024 29138
" />
<path d="M23646 28138
L23458 28138
L23440 28326
L23458 28307
L23496 28288
L23590 28288
L23627 28307
L23646 28326
L23665 28363
L23665 28457
L23646 28494
L23627 28513
L23590 28532
L23496 28532
L23458 28513
L23440 28494
" />
<path d="M23777 28138
L23908 28532
L24039 28138
" />
<path d="M23221 30157
L23183 30138
L23127 30138
L23071 30157
L23033 30194
L23015 30232
L22996 30307
L22996 30363
L23015 30438
L23033 30476
L23071 30513
L23127 30532
L23165 30532
L23221 30513
L23240 30494
L23240 30363
L23165 30363
" />
<path d="M23408 30532
L23408 30138
L23633 30532
L23633 30138
" />
<path d="M23821 30532
L23821 30138
L23914 30138
L23971 30157
L24008 30194
L24027 30232
L24046 30307
L24046 30363
L24027 30438
L24008 30476
L23971 30513
L23914 30532
L23821 30532
" />
<path d="M26746 27038
L26558 27038
L26540 27226
L26558 27207
L26596 27188
L26690 27188
L26727 27207
L26746 27226
L26765 27263
L26765 27357
L26746 27394
L26727 27413
L26690 27432
L26596 27432
L26558 27413
L26540 27394
" />
<path d="M26877 27038
L27008 27432
L27139 27038
" />
<path d="M26721 31257
L26683 31238
L26627 31238
L26571 31257
L26533 31294
L26515 31332
L26496 31407
L26496 31463
L26515 31538
L26533 31576
L26571 31613
L26627 31632
L26665 31632
L26721 31613
L26740 31594
L26740 31463
L26665 31463
" />
<path d="M26908 31632
L26908 31238
L27133 31632
L27133 31238
" />
<path d="M27321 31632
L27321 31238
L27414 31238
L27471 31257
L27508 31294
L27527 31332
L27546 31407
L27546 31463
L27527 31538
L27508 31576
L27471 31613
L27414 31632
L27321 31632
" />
<path d="M122786 29508
L122786 29115
L122880 29115
L122936 29133
L122974 29171
L122992 29208
L123011 29283
L123011 29340
L122992 29415
L122974 29452
L122936 29490
L122880 29508
L122786 29508
" />
<path d="M123180 29508
L123180 29115
" />
<path d="M123367 29508
L123367 29115
L123592 29508
L123592 29115
" />
<path d="M121814 27315
L121627 27315
L121608 27502
L121627 27483
L121664 27465
L121758 27465
L121796 27483
L121814 27502
L121833 27540
L121833 27633
L121814 27671
L121796 27690
L121758 27708
L121664 27708
L121627 27690
L121608 27671
" />
<path d="M121946 27315
L122077 27708
L122208 27315
" />
<path d="M121589 30933
L121552 30915
L121496 30915
L121439 30933
L121402 30971
L121383 31008
L121364 31083
L121364 31140
L121383 31215
L121402 31252
L121439 31290
L121496 31308
L121533 31308
L121589 31290
L121608 31271
L121608 31140
L121533 31140
" />
<path d="M121777 31308
L121777 30915
L122002 31308
L122002 30915
" />
<path d="M122189 31308
L122189 30915
L122283 30915
L122339 30933
L122377 30971
L122395 31008
L122414 31083
L122414 31140
L122395 31215
L122377 31252
L122339 31290
L122283 31308
L122189 31308
" />
<path d="M112224 30938
L112224 30544
L112318 30544
L112374 30563
L112411 30600
L112430 30638
L112449 30713
L112449 30769
L112430 30844
L112411 30881
L112374 30919
L112318 30938
L112224 30938
" />
<path d="M112824 30938
L112599 30938
" />
<path d="M112711 30938
L112711 30544
L112674 30600
L112636 30638
L112599 30656
" />
<path d="M113161 30675
L113161 30938
" />
<path d="M113067 30525
L112974 30806
L113217 30806
" />
<path d="M28853 27522
L29041 27391
" />
<path d="M28853 27297
L29247 27297
L29247 27447
L29228 27484
L29210 27503
L29172 27522
L29116 27522
L29078 27503
L29060 27484
L29041 27447
L29041 27297
" />
<path d="M28853 27897
L28853 27672
" />
<path d="M28853 27784
L29247 27784
L29191 27747
L29153 27709
L29135 27672
" />
<path d="M109230 28759
L109211 28778
L109155 28797
L109117 28797
L109061 28778
L109024 28740
L109005 28703
L108986 28628
L108986 28572
L109005 28497
L109024 28459
L109061 28422
L109117 28403
L109155 28403
L109211 28422
L109230 28440
" />
<path d="M109605 28797
L109380 28797
" />
<path d="M109492 28797
L109492 28403
L109455 28459
L109417 28497
L109380 28515
" />
<path d="M109736 28403
L109980 28403
L109848 28553
L109905 28553
L109942 28572
L109961 28590
L109980 28628
L109980 28722
L109961 28759
L109942 28778
L109905 28797
L109792 28797
L109755 28778
L109736 28759
" />
<path d="M111117 27752
L111136 27771
L111155 27827
L111155 27865
L111136 27921
L111098 27958
L111061 27977
L110986 27996
L110930 27996
L110855 27977
L110817 27958
L110780 27921
L110761 27865
L110761 27827
L110780 27771
L110798 27752
" />
<path d="M111155 27377
L111155 27602
" />
<path d="M111155 27490
L110761 27490
L110817 27527
L110855 27565
L110873 27602
" />
<path d="M110892 27040
L111155 27040
" />
<path d="M110742 27134
L111023 27227
L111023 26984
" />
<path d="M118368 27069
L118350 27088
L118293 27107
L118256 27107
L118200 27088
L118162 27050
L118143 27013
L118125 26938
L118125 26882
L118143 26807
L118162 26769
L118200 26732
L118256 26713
L118293 26713
L118350 26732
L118368 26751
" />
<path d="M118743 27107
L118518 27107
" />
<path d="M118631 27107
L118631 26713
L118593 26769
L118556 26807
L118518 26826
" />
<path d="M119100 26713
L118912 26713
L118893 26901
L118912 26882
L118950 26863
L119043 26863
L119081 26882
L119100 26901
L119118 26938
L119118 27032
L119100 27069
L119081 27088
L119043 27107
L118950 27107
L118912 27088
L118893 27069
" />
<path d="M118785 30938
L118785 30544
L118879 30544
L118935 30563
L118973 30600
L118992 30638
L119010 30713
L119010 30769
L118992 30844
L118973 30881
L118935 30919
L118879 30938
L118785 30938
" />
<path d="M119385 30938
L119160 30938
" />
<path d="M119273 30938
L119273 30544
L119235 30600
L119198 30638
L119160 30656
" />
<path d="M119742 30544
L119554 30544
L119535 30731
L119554 30713
L119592 30694
L119685 30694
L119723 30713
L119742 30731
L119760 30769
L119760 30863
L119742 30900
L119723 30919
L119685 30938
L119592 30938
L119554 30919
L119535 30900
" />
<path d="M105662 30938
L105662 30544
L105756 30544
L105812 30563
L105850 30600
L105868 30638
L105887 30713
L105887 30769
L105868 30844
L105850 30881
L105812 30919
L105756 30938
L105662 30938
" />
<path d="M106262 30938
L106037 30938
" />
<path d="M106150 30938
L106150 30544
L106112 30600
L106075 30638
L106037 30656
" />
<path d="M106393 30544
L106637 30544
L106506 30694
L106562 30694
L106599 30713
L106618 30731
L106637 30769
L106637 30863
L106618 30900
L106599 30919
L106562 30938
L106450 30938
L106412 30919
L106393 30900
" />
<path d="M108098 28797
L107967 28609
" />
<path d="M107873 28797
L107873 28403
L108023 28403
L108061 28422
L108079 28440
L108098 28478
L108098 28534
L108079 28572
L108061 28590
L108023 28609
L107873 28609
" />
<path d="M108473 28797
L108248 28797
" />
<path d="M108360 28797
L108360 28403
L108323 28459
L108285 28497
L108248 28515
" />
<path d="M108604 28403
L108848 28403
L108717 28553
L108773 28553
L108810 28572
L108829 28590
L108848 28628
L108848 28722
L108829 28759
L108810 28778
L108773 28797
L108660 28797
L108623 28778
L108604 28759
" />
<path d="M114444 27194
L114632 27063
" />
<path d="M114444 26969
L114838 26969
L114838 27119
L114819 27157
L114801 27175
L114763 27194
L114707 27194
L114669 27175
L114651 27157
L114632 27119
L114632 26969
" />
<path d="M114444 27569
L114444 27344
" />
<path d="M114444 27456
L114838 27456
L114782 27419
L114744 27381
L114726 27344
" />
<path d="M114707 27906
L114444 27906
" />
<path d="M114857 27813
L114576 27719
L114576 27963
" />
<path d="M119825 27107
L119694 26919
" />
<path d="M119600 27107
L119600 26713
L119750 26713
L119788 26732
L119806 26751
L119825 26788
L119825 26844
L119806 26882
L119788 26901
L119750 26919
L119600 26919
" />
<path d="M120200 27107
L119975 27107
" />
<path d="M120088 27107
L120088 26713
L120050 26769
L120013 26807
L119975 26826
" />
<path d="M120556 26713
L120369 26713
L120350 26901
L120369 26882
L120406 26863
L120500 26863
L120538 26882
L120556 26901
L120575 26938
L120575 27032
L120556 27069
L120538 27088
L120500 27107
L120406 27107
L120369 27088
L120350 27069
" />
<path d="M76430 28682
L76411 28701
L76355 28720
L76317 28720
L76261 28701
L76224 28663
L76205 28626
L76186 28551
L76186 28495
L76205 28420
L76224 28382
L76261 28345
L76317 28326
L76355 28326
L76411 28345
L76430 28363
" />
<path d="M76655 28495
L76617 28476
L76598 28457
L76580 28420
L76580 28401
L76598 28363
L76617 28345
L76655 28326
L76730 28326
L76767 28345
L76786 28363
L76805 28401
L76805 28420
L76786 28457
L76767 28476
L76730 28495
L76655 28495
L76617 28513
L76598 28532
L76580 28570
L76580 28645
L76598 28682
L76617 28701
L76655 28720
L76730 28720
L76767 28701
L76786 28682
L76805 28645
L76805 28570
L76786 28532
L76767 28513
L76730 28495
" />
<path d="M78141 27803
L78160 27821
L78179 27878
L78179 27915
L78160 27971
L78122 28009
L78085 28028
L78010 28046
L77954 28046
L77879 28028
L77841 28009
L77804 27971
L77785 27915
L77785 27878
L77804 27821
L77822 27803
" />
<path d="M78179 27615
L78179 27540
L78160 27503
L78141 27484
L78085 27447
L78010 27428
L77860 27428
L77822 27447
L77804 27465
L77785 27503
L77785 27578
L77804 27615
L77822 27634
L77860 27653
L77954 27653
L77991 27634
L78010 27615
L78029 27578
L78029 27503
L78010 27465
L77991 27447
L77954 27428
" />
<path d="M89350 28682
L89331 28701
L89275 28720
L89237 28720
L89181 28701
L89143 28663
L89125 28626
L89106 28551
L89106 28495
L89125 28420
L89143 28382
L89181 28345
L89237 28326
L89275 28326
L89331 28345
L89350 28363
" />
<path d="M89724 28720
L89500 28720
" />
<path d="M89612 28720
L89612 28326
L89574 28382
L89537 28420
L89500 28438
" />
<path d="M89968 28326
L90006 28326
L90043 28345
L90062 28363
L90081 28401
L90099 28476
L90099 28570
L90081 28645
L90062 28682
L90043 28701
L90006 28720
L89968 28720
L89931 28701
L89912 28682
L89893 28645
L89874 28570
L89874 28476
L89893 28401
L89912 28363
L89931 28345
L89968 28326
" />
<path d="M95903 28682
L95884 28701
L95828 28720
L95791 28720
L95734 28701
L95697 28663
L95678 28626
L95659 28551
L95659 28495
L95678 28420
L95697 28382
L95734 28345
L95791 28326
L95828 28326
L95884 28345
L95903 28363
" />
<path d="M96278 28720
L96053 28720
" />
<path d="M96166 28720
L96166 28326
L96128 28382
L96091 28420
L96053 28438
" />
<path d="M96653 28720
L96428 28720
" />
<path d="M96541 28720
L96541 28326
L96503 28382
L96466 28420
L96428 28438
" />
<path d="M102666 28651
L102648 28670
L102591 28689
L102554 28689
L102498 28670
L102460 28632
L102441 28595
L102423 28520
L102423 28464
L102441 28389
L102460 28351
L102498 28314
L102554 28295
L102591 28295
L102648 28314
L102666 28332
" />
<path d="M103041 28689
L102816 28689
" />
<path d="M102929 28689
L102929 28295
L102891 28351
L102854 28389
L102816 28407
" />
<path d="M103191 28332
L103210 28314
L103248 28295
L103341 28295
L103379 28314
L103398 28332
L103416 28370
L103416 28407
L103398 28464
L103173 28689
L103416 28689
" />
<path d="M27113 30938
L27113 30544
L27207 30544
L27263 30563
L27300 30600
L27319 30638
L27338 30713
L27338 30769
L27319 30844
L27300 30881
L27263 30919
L27207 30938
L27113 30938
" />
<path d="M27713 30938
L27488 30938
" />
<path d="M27600 30938
L27600 30544
L27563 30600
L27525 30638
L27488 30656
" />
<path d="M33674 30938
L33674 30544
L33768 30544
L33824 30563
L33862 30600
L33880 30638
L33899 30713
L33899 30769
L33880 30844
L33862 30881
L33824 30919
L33768 30938
L33674 30938
" />
<path d="M34049 30581
L34068 30563
L34105 30544
L34199 30544
L34237 30563
L34255 30581
L34274 30619
L34274 30656
L34255 30713
L34030 30938
L34274 30938
" />
<path d="M99100 30938
L99100 30544
L99194 30544
L99250 30563
L99288 30600
L99307 30638
L99325 30713
L99325 30769
L99307 30844
L99288 30881
L99250 30919
L99194 30938
L99100 30938
" />
<path d="M99700 30938
L99475 30938
" />
<path d="M99588 30938
L99588 30544
L99550 30600
L99513 30638
L99475 30656
" />
<path d="M99850 30581
L99869 30563
L99907 30544
L100000 30544
L100038 30563
L100057 30581
L100075 30619
L100075 30656
L100057 30713
L99832 30938
L100075 30938
" />
<path d="M92539 30938
L92539 30544
L92633 30544
L92689 30563
L92727 30600
L92745 30638
L92764 30713
L92764 30769
L92745 30844
L92727 30881
L92689 30919
L92633 30938
L92539 30938
" />
<path d="M93139 30938
L92914 30938
" />
<path d="M93027 30938
L93027 30544
L92989 30600
L92952 30638
L92914 30656
" />
<path d="M93514 30938
L93289 30938
" />
<path d="M93401 30938
L93401 30544
L93364 30600
L93326 30638
L93289 30656
" />
<path d="M85978 30938
L85978 30544
L86071 30544
L86128 30563
L86165 30600
L86184 30638
L86203 30713
L86203 30769
L86184 30844
L86165 30881
L86128 30919
L86071 30938
L85978 30938
" />
<path d="M86578 30938
L86353 30938
" />
<path d="M86465 30938
L86465 30544
L86428 30600
L86390 30638
L86353 30656
" />
<path d="M86821 30544
L86859 30544
L86896 30563
L86915 30581
L86934 30619
L86953 30694
L86953 30788
L86934 30863
L86915 30900
L86896 30919
L86859 30938
L86821 30938
L86784 30919
L86765 30900
L86746 30863
L86728 30788
L86728 30694
L86746 30619
L86765 30581
L86784 30563
L86821 30544
" />
<path d="M79604 30938
L79604 30544
L79698 30544
L79754 30563
L79791 30600
L79810 30638
L79829 30713
L79829 30769
L79810 30844
L79791 30881
L79754 30919
L79698 30938
L79604 30938
" />
<path d="M80016 30938
L80091 30938
L80129 30919
L80148 30900
L80185 30844
L80204 30769
L80204 30619
L80185 30581
L80166 30563
L80129 30544
L80054 30544
L80016 30563
L79998 30581
L79979 30619
L79979 30713
L79998 30750
L80016 30769
L80054 30788
L80129 30788
L80166 30769
L80185 30750
L80204 30713
" />
<path d="M73042 30938
L73042 30544
L73136 30544
L73192 30563
L73230 30600
L73249 30638
L73267 30713
L73267 30769
L73249 30844
L73230 30881
L73192 30919
L73136 30938
L73042 30938
" />
<path d="M73492 30713
L73455 30694
L73436 30675
L73417 30638
L73417 30619
L73436 30581
L73455 30563
L73492 30544
L73567 30544
L73605 30563
L73624 30581
L73642 30619
L73642 30638
L73624 30675
L73605 30694
L73567 30713
L73492 30713
L73455 30731
L73436 30750
L73417 30788
L73417 30863
L73436 30900
L73455 30919
L73492 30938
L73567 30938
L73605 30919
L73624 30900
L73642 30863
L73642 30788
L73624 30750
L73605 30731
L73567 30713
" />
<path d="M66481 30938
L66481 30544
L66575 30544
L66631 30563
L66669 30600
L66687 30638
L66706 30713
L66706 30769
L66687 30844
L66669 30881
L66631 30919
L66575 30938
L66481 30938
" />
<path d="M66837 30544
L67100 30544
L66931 30938
" />
<path d="M59920 30938
L59920 30544
L60013 30544
L60070 30563
L60107 30600
L60126 30638
L60145 30713
L60145 30769
L60126 30844
L60107 30881
L60070 30919
L60013 30938
L59920 30938
" />
<path d="M60482 30544
L60407 30544
L60370 30563
L60351 30581
L60313 30638
L60295 30713
L60295 30863
L60313 30900
L60332 30919
L60370 30938
L60445 30938
L60482 30919
L60501 30900
L60520 30863
L60520 30769
L60501 30731
L60482 30713
L60445 30694
L60370 30694
L60332 30713
L60313 30731
L60295 30769
" />
<path d="M53358 30938
L53358 30544
L53452 30544
L53508 30563
L53546 30600
L53565 30638
L53583 30713
L53583 30769
L53565 30844
L53546 30881
L53508 30919
L53452 30938
L53358 30938
" />
<path d="M53940 30544
L53752 30544
L53733 30731
L53752 30713
L53790 30694
L53883 30694
L53921 30713
L53940 30731
L53958 30769
L53958 30863
L53940 30900
L53921 30919
L53883 30938
L53790 30938
L53752 30919
L53733 30900
" />
<path d="M46797 30938
L46797 30544
L46891 30544
L46947 30563
L46984 30600
L47003 30638
L47022 30713
L47022 30769
L47003 30844
L46984 30881
L46947 30919
L46891 30938
L46797 30938
" />
<path d="M47359 30675
L47359 30938
" />
<path d="M47266 30525
L47172 30806
L47416 30806
" />
<path d="M40236 30938
L40236 30544
L40329 30544
L40386 30563
L40423 30600
L40442 30638
L40461 30713
L40461 30769
L40442 30844
L40423 30881
L40386 30919
L40329 30938
L40236 30938
" />
<path d="M40592 30544
L40836 30544
L40704 30694
L40761 30694
L40798 30713
L40817 30731
L40836 30769
L40836 30863
L40817 30900
L40798 30919
L40761 30938
L40648 30938
L40611 30919
L40592 30900
" />
<path d="M36107 28720
L35976 28532
" />
<path d="M35882 28720
L35882 28326
L36032 28326
L36070 28345
L36088 28363
L36107 28401
L36107 28457
L36088 28495
L36070 28513
L36032 28532
L35882 28532
" />
<path d="M36257 28363
L36276 28345
L36313 28326
L36407 28326
L36445 28345
L36463 28363
L36482 28401
L36482 28438
L36463 28495
L36238 28720
L36482 28720
" />
<path d="M42661 28720
L42530 28532
" />
<path d="M42436 28720
L42436 28326
L42586 28326
L42623 28345
L42642 28363
L42661 28401
L42661 28457
L42642 28495
L42623 28513
L42586 28532
L42436 28532
" />
<path d="M42792 28326
L43036 28326
L42904 28476
L42961 28476
L42998 28495
L43017 28513
L43036 28551
L43036 28645
L43017 28682
L42998 28701
L42961 28720
L42848 28720
L42811 28701
L42792 28682
" />
<path d="M49214 28720
L49083 28532
" />
<path d="M48989 28720
L48989 28326
L49139 28326
L49177 28345
L49196 28363
L49214 28401
L49214 28457
L49196 28495
L49177 28513
L49139 28532
L48989 28532
" />
<path d="M49552 28457
L49552 28720
" />
<path d="M49458 28307
L49364 28588
L49608 28588
" />
<path d="M55768 28720
L55637 28532
" />
<path d="M55543 28720
L55543 28326
L55693 28326
L55731 28345
L55749 28363
L55768 28401
L55768 28457
L55749 28495
L55731 28513
L55693 28532
L55543 28532
" />
<path d="M56124 28326
L55937 28326
L55918 28513
L55937 28495
L55974 28476
L56068 28476
L56105 28495
L56124 28513
L56143 28551
L56143 28645
L56124 28682
L56105 28701
L56068 28720
L55974 28720
L55937 28701
L55918 28682
" />
<path d="M62322 28720
L62190 28532
" />
<path d="M62097 28720
L62097 28326
L62247 28326
L62284 28345
L62303 28363
L62322 28401
L62322 28457
L62303 28495
L62284 28513
L62247 28532
L62097 28532
" />
<path d="M62659 28326
L62584 28326
L62547 28345
L62528 28363
L62490 28420
L62472 28495
L62472 28645
L62490 28682
L62509 28701
L62547 28720
L62622 28720
L62659 28701
L62678 28682
L62697 28645
L62697 28551
L62678 28513
L62659 28495
L62622 28476
L62547 28476
L62509 28495
L62490 28513
L62472 28551
" />
<path d="M68875 28720
L68744 28532
" />
<path d="M68650 28720
L68650 28326
L68800 28326
L68838 28345
L68857 28363
L68875 28401
L68875 28457
L68857 28495
L68838 28513
L68800 28532
L68650 28532
" />
<path d="M69007 28326
L69269 28326
L69100 28720
" />
<path d="M75429 28720
L75298 28532
" />
<path d="M75204 28720
L75204 28326
L75354 28326
L75391 28345
L75410 28363
L75429 28401
L75429 28457
L75410 28495
L75391 28513
L75354 28532
L75204 28532
" />
<path d="M75654 28495
L75616 28476
L75598 28457
L75579 28420
L75579 28401
L75598 28363
L75616 28345
L75654 28326
L75729 28326
L75766 28345
L75785 28363
L75804 28401
L75804 28420
L75785 28457
L75766 28476
L75729 28495
L75654 28495
L75616 28513
L75598 28532
L75579 28570
L75579 28645
L75598 28682
L75616 28701
L75654 28720
L75729 28720
L75766 28701
L75785 28682
L75804 28645
L75804 28570
L75785 28532
L75766 28513
L75729 28495
" />
<path d="M81322 27671
L81510 27540
" />
<path d="M81322 27447
L81716 27447
L81716 27596
L81697 27634
L81679 27653
L81641 27671
L81585 27671
L81547 27653
L81529 27634
L81510 27596
L81510 27447
" />
<path d="M81322 27859
L81322 27934
L81341 27971
L81360 27990
L81416 28028
L81491 28046
L81641 28046
L81679 28028
L81697 28009
L81716 27971
L81716 27896
L81697 27859
L81679 27840
L81641 27821
L81547 27821
L81510 27840
L81491 27859
L81472 27896
L81472 27971
L81491 28009
L81510 28028
L81547 28046
" />
<path d="M88349 28720
L88218 28532
" />
<path d="M88124 28720
L88124 28326
L88274 28326
L88311 28345
L88330 28363
L88349 28401
L88349 28457
L88330 28495
L88311 28513
L88274 28532
L88124 28532
" />
<path d="M88724 28720
L88499 28720
" />
<path d="M88611 28720
L88611 28326
L88574 28382
L88536 28420
L88499 28438
" />
<path d="M88967 28326
L89005 28326
L89042 28345
L89061 28363
L89080 28401
L89099 28476
L89099 28570
L89080 28645
L89061 28682
L89042 28701
L89005 28720
L88967 28720
L88930 28701
L88911 28682
L88892 28645
L88874 28570
L88874 28476
L88892 28401
L88911 28363
L88930 28345
L88967 28326
" />
<path d="M94902 28720
L94771 28532
" />
<path d="M94677 28720
L94677 28326
L94827 28326
L94865 28345
L94884 28363
L94902 28401
L94902 28457
L94884 28495
L94865 28513
L94827 28532
L94677 28532
" />
<path d="M95277 28720
L95052 28720
" />
<path d="M95165 28720
L95165 28326
L95127 28382
L95090 28420
L95052 28438
" />
<path d="M95652 28720
L95427 28720
" />
<path d="M95540 28720
L95540 28326
L95502 28382
L95465 28420
L95427 28438
" />
<path d="M101546 28678
L101415 28490
" />
<path d="M101321 28678
L101321 28284
L101471 28284
L101509 28303
L101528 28321
L101546 28359
L101546 28415
L101528 28453
L101509 28471
L101471 28490
L101321 28490
" />
<path d="M101921 28678
L101696 28678
" />
<path d="M101809 28678
L101809 28284
L101771 28340
L101734 28378
L101696 28396
" />
<path d="M102071 28321
L102090 28303
L102128 28284
L102221 28284
L102259 28303
L102278 28321
L102296 28359
L102296 28396
L102278 28453
L102053 28678
L102296 28678
" />
<path d="M69876 28682
L69857 28701
L69801 28720
L69764 28720
L69707 28701
L69670 28663
L69651 28626
L69632 28551
L69632 28495
L69651 28420
L69670 28382
L69707 28345
L69764 28326
L69801 28326
L69857 28345
L69876 28363
" />
<path d="M70007 28326
L70270 28326
L70101 28720
" />
<path d="M63322 28682
L63304 28701
L63247 28720
L63210 28720
L63154 28701
L63116 28663
L63097 28626
L63079 28551
L63079 28495
L63097 28420
L63116 28382
L63154 28345
L63210 28326
L63247 28326
L63304 28345
L63322 28363
" />
<path d="M63660 28326
L63585 28326
L63547 28345
L63529 28363
L63491 28420
L63472 28495
L63472 28645
L63491 28682
L63510 28701
L63547 28720
L63622 28720
L63660 28701
L63679 28682
L63697 28645
L63697 28551
L63679 28513
L63660 28495
L63622 28476
L63547 28476
L63510 28495
L63491 28513
L63472 28551
" />
<path d="M56769 28682
L56750 28701
L56694 28720
L56656 28720
L56600 28701
L56563 28663
L56544 28626
L56525 28551
L56525 28495
L56544 28420
L56563 28382
L56600 28345
L56656 28326
L56694 28326
L56750 28345
L56769 28363
" />
<path d="M57125 28326
L56938 28326
L56919 28513
L56938 28495
L56975 28476
L57069 28476
L57106 28495
L57125 28513
L57144 28551
L57144 28645
L57125 28682
L57106 28701
L57069 28720
L56975 28720
L56938 28701
L56919 28682
" />
<path d="M50215 28682
L50196 28701
L50140 28720
L50103 28720
L50046 28701
L50009 28663
L49990 28626
L49971 28551
L49971 28495
L49990 28420
L50009 28382
L50046 28345
L50103 28326
L50140 28326
L50196 28345
L50215 28363
" />
<path d="M50553 28457
L50553 28720
" />
<path d="M50459 28307
L50365 28588
L50609 28588
" />
<path d="M43662 28682
L43643 28701
L43587 28720
L43549 28720
L43493 28701
L43455 28663
L43437 28626
L43418 28551
L43418 28495
L43437 28420
L43455 28382
L43493 28345
L43549 28326
L43587 28326
L43643 28345
L43662 28363
" />
<path d="M43793 28326
L44037 28326
L43905 28476
L43962 28476
L43999 28495
L44018 28513
L44037 28551
L44037 28645
L44018 28682
L43999 28701
L43962 28720
L43849 28720
L43812 28701
L43793 28682
" />
<path d="M37108 28682
L37089 28701
L37033 28720
L36995 28720
L36939 28701
L36902 28663
L36883 28626
L36864 28551
L36864 28495
L36883 28420
L36902 28382
L36939 28345
L36995 28326
L37033 28326
L37089 28345
L37108 28363
" />
<path d="M37258 28363
L37277 28345
L37314 28326
L37408 28326
L37445 28345
L37464 28363
L37483 28401
L37483 28438
L37464 28495
L37239 28720
L37483 28720
" />
<path d="M29219 26797
L29238 26816
L29257 26872
L29257 26910
L29238 26966
L29201 27004
L29163 27022
L29088 27041
L29032 27041
L28957 27022
L28919 27004
L28882 26966
L28863 26910
L28863 26872
L28882 26816
L28901 26797
" />
<path d="M29257 26422
L29257 26647
" />
<path d="M29257 26535
L28863 26535
L28919 26572
L28957 26610
L28976 26647
" />
<g >
</g>
</g> 
</svg>
