G04 #@! TF.GenerationSoftware,KiCad,Pcbnew,(5.0.0-3-g5ebb6b6)*
G04 #@! TF.CreationDate,2019-02-17T13:25:32-08:00*
G04 #@! TF.ProjectId,BCInside,4243496E736964652E6B696361645F70,rev?*
G04 #@! TF.SameCoordinates,Original*
G04 #@! TF.FileFunction,Legend,Top*
G04 #@! TF.FilePolarity,Positive*
%FSLAX46Y46*%
G04 Gerber Fmt 4.6, Leading zero omitted, Abs format (unit mm)*
G04 Created by KiCad (PCBNEW (5.0.0-3-g5ebb6b6)) date Sunday, February 17, 2019 at 01:25:32 PM*
%MOMM*%
%LPD*%
G01*
G04 APERTURE LIST*
%ADD10C,0.200000*%
%ADD11C,0.300000*%
%ADD12C,0.010000*%
%ADD13C,0.120000*%
%ADD14C,0.150000*%
G04 APERTURE END LIST*
D10*
X61595000Y-72517000D02*
X62865000Y-72517000D01*
X62230000Y-71882000D02*
X62230000Y-73152000D01*
X61595000Y-76708000D02*
X62865000Y-76708000D01*
X62865000Y-74676000D02*
X61722000Y-75311000D01*
X61722000Y-74041000D02*
X62865000Y-74676000D01*
X61722000Y-74041000D02*
X61722000Y-75311000D01*
X309372000Y-72263000D02*
X310642000Y-72263000D01*
X310007000Y-71628000D02*
X310007000Y-72898000D01*
X309372000Y-76454000D02*
X310642000Y-76454000D01*
X310642000Y-74422000D02*
X309499000Y-75057000D01*
X309499000Y-73787000D02*
X310642000Y-74422000D01*
X309499000Y-73787000D02*
X309499000Y-75057000D01*
D11*
X319170285Y-74459714D02*
X319598857Y-74602571D01*
X319741714Y-74745428D01*
X319884571Y-75031142D01*
X319884571Y-75459714D01*
X319741714Y-75745428D01*
X319598857Y-75888285D01*
X319313142Y-76031142D01*
X318170285Y-76031142D01*
X318170285Y-73031142D01*
X319170285Y-73031142D01*
X319456000Y-73174000D01*
X319598857Y-73316857D01*
X319741714Y-73602571D01*
X319741714Y-73888285D01*
X319598857Y-74174000D01*
X319456000Y-74316857D01*
X319170285Y-74459714D01*
X318170285Y-74459714D01*
X322884571Y-75745428D02*
X322741714Y-75888285D01*
X322313142Y-76031142D01*
X322027428Y-76031142D01*
X321598857Y-75888285D01*
X321313142Y-75602571D01*
X321170285Y-75316857D01*
X321027428Y-74745428D01*
X321027428Y-74316857D01*
X321170285Y-73745428D01*
X321313142Y-73459714D01*
X321598857Y-73174000D01*
X322027428Y-73031142D01*
X322313142Y-73031142D01*
X322741714Y-73174000D01*
X322884571Y-73316857D01*
X50657285Y-74586714D02*
X51085857Y-74729571D01*
X51228714Y-74872428D01*
X51371571Y-75158142D01*
X51371571Y-75586714D01*
X51228714Y-75872428D01*
X51085857Y-76015285D01*
X50800142Y-76158142D01*
X49657285Y-76158142D01*
X49657285Y-73158142D01*
X50657285Y-73158142D01*
X50943000Y-73301000D01*
X51085857Y-73443857D01*
X51228714Y-73729571D01*
X51228714Y-74015285D01*
X51085857Y-74301000D01*
X50943000Y-74443857D01*
X50657285Y-74586714D01*
X49657285Y-74586714D01*
X54371571Y-75872428D02*
X54228714Y-76015285D01*
X53800142Y-76158142D01*
X53514428Y-76158142D01*
X53085857Y-76015285D01*
X52800142Y-75729571D01*
X52657285Y-75443857D01*
X52514428Y-74872428D01*
X52514428Y-74443857D01*
X52657285Y-73872428D01*
X52800142Y-73586714D01*
X53085857Y-73301000D01*
X53514428Y-73158142D01*
X53800142Y-73158142D01*
X54228714Y-73301000D01*
X54371571Y-73443857D01*
D12*
X300441243Y-74630808D02*
X305441243Y-74630808D01*
X302941243Y-72130808D02*
X302941243Y-77130808D01*
X283773763Y-74630808D02*
X288773763Y-74630808D01*
X286273763Y-72130808D02*
X286273763Y-77130808D01*
X267106283Y-74630808D02*
X272106283Y-74630808D01*
X269606283Y-72130808D02*
X269606283Y-77130808D01*
X250438803Y-74630808D02*
X255438803Y-74630808D01*
X252938803Y-72130808D02*
X252938803Y-77130808D01*
X233772103Y-74630808D02*
X238772103Y-74630808D01*
X236272103Y-72130808D02*
X236272103Y-77130808D01*
X217105403Y-74630808D02*
X222105403Y-74630808D01*
X219605403Y-72130808D02*
X219605403Y-77130808D01*
X200438703Y-74630808D02*
X205438703Y-74630808D01*
X202938703Y-72130808D02*
X202938703Y-77130808D01*
X183772003Y-74630808D02*
X188772003Y-74630808D01*
X186272003Y-72130808D02*
X186272003Y-77130808D01*
X167105303Y-74630808D02*
X172105303Y-74630808D01*
X169605303Y-72130808D02*
X169605303Y-77130808D01*
X150438603Y-74630808D02*
X155438603Y-74630808D01*
X152938603Y-72130808D02*
X152938603Y-77130808D01*
X133771903Y-74630808D02*
X138771903Y-74630808D01*
X136271903Y-72130808D02*
X136271903Y-77130808D01*
X117105203Y-74630808D02*
X122105203Y-74630808D01*
X119605203Y-72130808D02*
X119605203Y-77130808D01*
X100438503Y-74630808D02*
X105438503Y-74630808D01*
X102938503Y-72130808D02*
X102938503Y-77130808D01*
X83771803Y-74630808D02*
X88771803Y-74630808D01*
X86271803Y-72130808D02*
X86271803Y-77130808D01*
X67105103Y-74630808D02*
X72105103Y-74630808D01*
X69605103Y-72130808D02*
X69605103Y-77130808D01*
X46176733Y-75409056D02*
X46176733Y-75409056D01*
X46144570Y-75735136D02*
X46176733Y-75409056D01*
X46044872Y-76000901D02*
X46144570Y-75735136D01*
X45872827Y-76179818D02*
X46044872Y-76000901D01*
X45623623Y-76245352D02*
X45872827Y-76179818D01*
X45337225Y-76163144D02*
X45623623Y-76245352D01*
X45151581Y-75915700D02*
X45337225Y-76163144D01*
X45049167Y-75501793D02*
X45151581Y-75915700D01*
X45012463Y-74920196D02*
X45049167Y-75501793D01*
X45162225Y-74770957D02*
X45012463Y-74920196D01*
X45327668Y-74662137D02*
X45162225Y-74770957D01*
X45502768Y-74595531D02*
X45327668Y-74662137D01*
X45681501Y-74572931D02*
X45502768Y-74595531D01*
X45891794Y-74617655D02*
X45681501Y-74572931D01*
X46047262Y-74761873D02*
X45891794Y-74617655D01*
X46143658Y-75020651D02*
X46047262Y-74761873D01*
X46176733Y-75409056D02*
X46143658Y-75020651D01*
X47193036Y-75351178D02*
X47193036Y-75351178D01*
X47095758Y-74721121D02*
X47193036Y-75351178D01*
X46829643Y-74256865D02*
X47095758Y-74721121D01*
X46433272Y-73969891D02*
X46829643Y-74256865D01*
X45945223Y-73871682D02*
X46433272Y-73969891D01*
X45704475Y-73897006D02*
X45945223Y-73871682D01*
X45461919Y-73972989D02*
X45704475Y-73897006D01*
X45227825Y-74099647D02*
X45461919Y-73972989D01*
X45012463Y-74276997D02*
X45227825Y-74099647D01*
X45105955Y-73735307D02*
X45012463Y-74276997D01*
X45297114Y-73340168D02*
X45105955Y-73735307D01*
X45567856Y-73098217D02*
X45297114Y-73340168D01*
X45900092Y-73016092D02*
X45567856Y-73098217D01*
X46045583Y-73027071D02*
X45900092Y-73016092D01*
X46190428Y-73060383D02*
X46045583Y-73027071D01*
X46331655Y-73116595D02*
X46190428Y-73060383D01*
X46466294Y-73196271D02*
X46331655Y-73116595D01*
X46562756Y-73041887D02*
X46466294Y-73196271D01*
X46659219Y-72887504D02*
X46562756Y-73041887D01*
X46755682Y-72733121D02*
X46659219Y-72887504D01*
X46852144Y-72578737D02*
X46755682Y-72733121D01*
X46649847Y-72460269D02*
X46852144Y-72578737D01*
X46420388Y-72368931D02*
X46649847Y-72460269D01*
X46165607Y-72310149D02*
X46420388Y-72368931D01*
X45887345Y-72289349D02*
X46165607Y-72310149D01*
X45074580Y-72477694D02*
X45887345Y-72289349D01*
X44465662Y-73004939D02*
X45074580Y-72477694D01*
X44083507Y-73814402D02*
X44465662Y-73004939D01*
X43951029Y-74849400D02*
X44083507Y-73814402D01*
X44043915Y-75664208D02*
X43951029Y-74849400D01*
X44337031Y-76340265D02*
X44043915Y-75664208D01*
X44852064Y-76801606D02*
X44337031Y-76340265D01*
X45610704Y-76972268D02*
X44852064Y-76801606D01*
X46267730Y-76844716D02*
X45610704Y-76972268D01*
X46766125Y-76497038D02*
X46267730Y-76844716D01*
X47082392Y-75981703D02*
X46766125Y-76497038D01*
X47193036Y-75351178D02*
X47082392Y-75981703D01*
X39910966Y-76862886D02*
X39910966Y-76862886D01*
X40185928Y-76862886D02*
X39910966Y-76862886D01*
X40460889Y-76862886D02*
X40185928Y-76862886D01*
X40735851Y-76862886D02*
X40460889Y-76862886D01*
X41010813Y-76862886D02*
X40735851Y-76862886D01*
X41173249Y-76542879D02*
X41010813Y-76862886D01*
X41335685Y-76222873D02*
X41173249Y-76542879D01*
X41498121Y-75902867D02*
X41335685Y-76222873D01*
X41660558Y-75582861D02*
X41498121Y-75902867D01*
X41829410Y-75902867D02*
X41660558Y-75582861D01*
X41998263Y-76222873D02*
X41829410Y-75902867D01*
X42167116Y-76542879D02*
X41998263Y-76222873D01*
X42335969Y-76862886D02*
X42167116Y-76542879D01*
X42623849Y-76862886D02*
X42335969Y-76862886D01*
X42911730Y-76862886D02*
X42623849Y-76862886D01*
X43199611Y-76862886D02*
X42911730Y-76862886D01*
X43487492Y-76862886D02*
X43199611Y-76862886D01*
X43193194Y-76404559D02*
X43487492Y-76862886D01*
X42898897Y-75946232D02*
X43193194Y-76404559D01*
X42604600Y-75487905D02*
X42898897Y-75946232D01*
X42310303Y-75029578D02*
X42604600Y-75487905D01*
X42561149Y-74633952D02*
X42310303Y-75029578D01*
X42811995Y-74238326D02*
X42561149Y-74633952D01*
X43062841Y-73842700D02*
X42811995Y-74238326D01*
X43313687Y-73447074D02*
X43062841Y-73842700D01*
X43043548Y-73447074D02*
X43313687Y-73447074D01*
X42773410Y-73447074D02*
X43043548Y-73447074D01*
X42503271Y-73447074D02*
X42773410Y-73447074D01*
X42233132Y-73447074D02*
X42503271Y-73447074D01*
X42101228Y-73720485D02*
X42233132Y-73447074D01*
X41969324Y-73993896D02*
X42101228Y-73720485D01*
X41837420Y-74267308D02*
X41969324Y-73993896D01*
X41705516Y-74540719D02*
X41837420Y-74267308D01*
X41568832Y-74267308D02*
X41705516Y-74540719D01*
X41432148Y-73993896D02*
X41568832Y-74267308D01*
X41295464Y-73720485D02*
X41432148Y-73993896D01*
X41158779Y-73447074D02*
X41295464Y-73720485D01*
X40874128Y-73447074D02*
X41158779Y-73447074D01*
X40589477Y-73447074D02*
X40874128Y-73447074D01*
X40304826Y-73447074D02*
X40589477Y-73447074D01*
X40020175Y-73447074D02*
X40304826Y-73447074D01*
X40285534Y-73852346D02*
X40020175Y-73447074D01*
X40550892Y-74257618D02*
X40285534Y-73852346D01*
X40816251Y-74662891D02*
X40550892Y-74257618D01*
X41081609Y-75068163D02*
X40816251Y-74662891D01*
X40788948Y-75516844D02*
X41081609Y-75068163D01*
X40496288Y-75965525D02*
X40788948Y-75516844D01*
X40203627Y-76414205D02*
X40496288Y-75965525D01*
X39910966Y-76862886D02*
X40203627Y-76414205D01*
X77938403Y-76103816D02*
X77483202Y-76031809D01*
X78393702Y-76031809D02*
X77938403Y-76103816D01*
X78804301Y-75822810D02*
X78393702Y-76031809D01*
X79130301Y-75496806D02*
X78804301Y-75822810D01*
X79339503Y-75085810D02*
X79130301Y-75496806D01*
X79411601Y-74630808D02*
X79339503Y-75085810D01*
X79339503Y-74175807D02*
X79411601Y-74630808D01*
X79130301Y-73764811D02*
X79339503Y-74175807D01*
X78804301Y-73438807D02*
X79130301Y-73764811D01*
X78393702Y-73229807D02*
X78804301Y-73438807D01*
X77938403Y-73157801D02*
X78393702Y-73229807D01*
X77483202Y-73229807D02*
X77938403Y-73157801D01*
X77072501Y-73438807D02*
X77483202Y-73229807D01*
X76746603Y-73764811D02*
X77072501Y-73438807D01*
X76537302Y-74175807D02*
X76746603Y-73764811D01*
X76465201Y-74630808D02*
X76537302Y-74175807D01*
X76537302Y-75085810D02*
X76465201Y-74630808D01*
X76746603Y-75496806D02*
X76537302Y-75085810D01*
X77072501Y-75822810D02*
X76746603Y-75496806D01*
X77483202Y-76031809D02*
X77072501Y-75822810D01*
X194604997Y-76103816D02*
X194150011Y-76031809D01*
X195059999Y-76031809D02*
X194604997Y-76103816D01*
X195471010Y-75822810D02*
X195059999Y-76031809D01*
X195796999Y-75496806D02*
X195471010Y-75822810D01*
X196005998Y-75085810D02*
X195796999Y-75496806D01*
X196078005Y-74630808D02*
X196005998Y-75085810D01*
X196005998Y-74175807D02*
X196078005Y-74630808D01*
X195796999Y-73764811D02*
X196005998Y-74175807D01*
X195471010Y-73438807D02*
X195796999Y-73764811D01*
X195059999Y-73229807D02*
X195471010Y-73438807D01*
X194604997Y-73157801D02*
X195059999Y-73229807D01*
X194150011Y-73229807D02*
X194604997Y-73157801D01*
X193739000Y-73438807D02*
X194150011Y-73229807D01*
X193413011Y-73764811D02*
X193739000Y-73438807D01*
X193204012Y-74175807D02*
X193413011Y-73764811D01*
X193132005Y-74630808D02*
X193204012Y-74175807D01*
X193204012Y-75085810D02*
X193132005Y-74630808D01*
X193413011Y-75496806D02*
X193204012Y-75085810D01*
X193739000Y-75822810D02*
X193413011Y-75496806D01*
X194150011Y-76031809D02*
X193739000Y-75822810D01*
X294605000Y-76103816D02*
X294150014Y-76031809D01*
X295060017Y-76031809D02*
X294605000Y-76103816D01*
X295470998Y-75822810D02*
X295060017Y-76031809D01*
X295797017Y-75496806D02*
X295470998Y-75822810D01*
X296006001Y-75085810D02*
X295797017Y-75496806D01*
X296078023Y-74630808D02*
X296006001Y-75085810D01*
X296006001Y-74175807D02*
X296078023Y-74630808D01*
X295797017Y-73764811D02*
X296006001Y-74175807D01*
X295470998Y-73438807D02*
X295797017Y-73764811D01*
X295060017Y-73229807D02*
X295470998Y-73438807D01*
X294605000Y-73157801D02*
X295060017Y-73229807D01*
X294150014Y-73229807D02*
X294605000Y-73157801D01*
X293739003Y-73438807D02*
X294150014Y-73229807D01*
X293413014Y-73764811D02*
X293739003Y-73438807D01*
X293203999Y-74175807D02*
X293413014Y-73764811D01*
X293413014Y-75496806D02*
X293203999Y-75085810D01*
X293739003Y-75822810D02*
X293413014Y-75496806D01*
X294150014Y-76031809D02*
X293739003Y-75822810D01*
X305438903Y-72130808D02*
X305438903Y-77130808D01*
X300438903Y-72130808D02*
X305438903Y-72130808D01*
X300438903Y-77130808D02*
X300438903Y-72130808D01*
X305438903Y-77130808D02*
X300438903Y-77130808D01*
X288772203Y-72130808D02*
X288772203Y-77130808D01*
X283772203Y-72130808D02*
X288772203Y-72130808D01*
X283772203Y-77130808D02*
X283772203Y-72130808D01*
X288772203Y-77130808D02*
X283772203Y-77130808D01*
X272105503Y-72130808D02*
X272105503Y-77130808D01*
X267105503Y-72130808D02*
X272105503Y-72130808D01*
X267105503Y-77130808D02*
X267105503Y-72130808D01*
X272105503Y-77130808D02*
X267105503Y-77130808D01*
X255438803Y-72130808D02*
X255438803Y-77130808D01*
X250438803Y-72130808D02*
X255438803Y-72130808D01*
X250438803Y-77130808D02*
X250438803Y-72130808D01*
X255438803Y-77130808D02*
X250438803Y-77130808D01*
X238772103Y-72130808D02*
X238772103Y-77130808D01*
X233772103Y-72130808D02*
X238772103Y-72130808D01*
X233772103Y-77130808D02*
X233772103Y-72130808D01*
X238772103Y-77130808D02*
X233772103Y-77130808D01*
X222105403Y-72130808D02*
X222105403Y-77130808D01*
X217105403Y-72130808D02*
X222105403Y-72130808D01*
X217105403Y-77130808D02*
X217105403Y-72130808D01*
X222105403Y-77130808D02*
X217105403Y-77130808D01*
X205438703Y-72130808D02*
X205438703Y-77130808D01*
X200438703Y-72130808D02*
X205438703Y-72130808D01*
X200438703Y-77130808D02*
X200438703Y-72130808D01*
X205438703Y-77130808D02*
X200438703Y-77130808D01*
X188772003Y-72130808D02*
X188772003Y-77130808D01*
X183772003Y-72130808D02*
X188772003Y-72130808D01*
X183772003Y-77130808D02*
X183772003Y-72130808D01*
X188772003Y-77130808D02*
X183772003Y-77130808D01*
X172105303Y-72130808D02*
X172105303Y-77130808D01*
X167105303Y-72130808D02*
X172105303Y-72130808D01*
X167105303Y-77130808D02*
X167105303Y-72130808D01*
X172105303Y-77130808D02*
X167105303Y-77130808D01*
X155438603Y-72130808D02*
X155438603Y-77130808D01*
X150438603Y-72130808D02*
X155438603Y-72130808D01*
X150438603Y-77130808D02*
X150438603Y-72130808D01*
X155438603Y-77130808D02*
X150438603Y-77130808D01*
X138771903Y-72130808D02*
X138771903Y-77130808D01*
X133771903Y-72130808D02*
X138771903Y-72130808D01*
X133771903Y-77130808D02*
X133771903Y-72130808D01*
X138771903Y-77130808D02*
X133771903Y-77130808D01*
X122105203Y-72130808D02*
X122105203Y-77130808D01*
X117105203Y-72130808D02*
X122105203Y-72130808D01*
X117105203Y-77130808D02*
X117105203Y-72130808D01*
X122105203Y-77130808D02*
X117105203Y-77130808D01*
X105438503Y-72130808D02*
X105438503Y-77130808D01*
X100438503Y-72130808D02*
X105438503Y-72130808D01*
X100438503Y-77130808D02*
X100438503Y-72130808D01*
X105438503Y-77130808D02*
X100438503Y-77130808D01*
X88771803Y-72130808D02*
X88771803Y-77130808D01*
X83771803Y-72130808D02*
X88771803Y-72130808D01*
X83771803Y-77130808D02*
X83771803Y-72130808D01*
X88771803Y-77130808D02*
X83771803Y-77130808D01*
X72105103Y-72130808D02*
X72105103Y-77130808D01*
X67105103Y-72130808D02*
X72105103Y-72130808D01*
X67105103Y-77130808D02*
X67105103Y-72130808D01*
X72105103Y-77130808D02*
X67105103Y-77130808D01*
D13*
G04 #@! TO.C,D14*
X289913992Y-77380280D02*
X282613992Y-77380280D01*
X289913992Y-76230280D02*
X289913992Y-77380280D01*
X289913992Y-71880280D02*
X282613992Y-71880280D01*
G04 #@! TO.C,R1*
X71635118Y-69363520D02*
X71117962Y-69363520D01*
X71635118Y-70783520D02*
X71117962Y-70783520D01*
G04 #@! TO.C,C13*
X277376820Y-75295018D02*
X277376820Y-74777862D01*
X278796820Y-75295018D02*
X278796820Y-74777862D01*
G04 #@! TO.C,C14*
X284484578Y-69140000D02*
X283967422Y-69140000D01*
X284484578Y-70560000D02*
X283967422Y-70560000D01*
G04 #@! TO.C,C15*
X301505118Y-70783520D02*
X300987962Y-70783520D01*
X301505118Y-69363520D02*
X300987962Y-69363520D01*
G04 #@! TO.C,D15*
X306580657Y-71880280D02*
X299280657Y-71880280D01*
X306580657Y-76230280D02*
X306580657Y-77380280D01*
X306580657Y-77380280D02*
X299280657Y-77380280D01*
G04 #@! TO.C,D13*
X273247327Y-71880280D02*
X265947327Y-71880280D01*
X273247327Y-76230280D02*
X273247327Y-77380280D01*
X273247327Y-77380280D02*
X265947327Y-77380280D01*
G04 #@! TO.C,R13*
X276056160Y-74777862D02*
X276056160Y-75295018D01*
X274636160Y-74777862D02*
X274636160Y-75295018D01*
G04 #@! TO.C,R14*
X289056578Y-69140000D02*
X288539422Y-69140000D01*
X289056578Y-70560000D02*
X288539422Y-70560000D01*
G04 #@! TO.C,R15*
X305315118Y-70783520D02*
X304797962Y-70783520D01*
X305315118Y-69363520D02*
X304797962Y-69363520D01*
D14*
G04 #@! TO.C,J1*
X55067200Y-71937880D02*
X55575200Y-71937880D01*
X55575200Y-71429880D02*
X55575200Y-71937880D01*
X55067200Y-77779880D02*
X55067200Y-71429880D01*
X60655200Y-77779880D02*
X55067200Y-77779880D01*
X60655200Y-71429880D02*
X60655200Y-77779880D01*
X55067200Y-71429880D02*
X60655200Y-71429880D01*
D13*
G04 #@! TO.C,C8*
X195135452Y-75295018D02*
X195135452Y-74777862D01*
X193715452Y-75295018D02*
X193715452Y-74777862D01*
G04 #@! TO.C,C9*
X200921118Y-69617520D02*
X200403962Y-69617520D01*
X200921118Y-71037520D02*
X200403962Y-71037520D01*
G04 #@! TO.C,C10*
X228427924Y-75295018D02*
X228427924Y-74777862D01*
X227007924Y-75295018D02*
X227007924Y-74777862D01*
G04 #@! TO.C,C11*
X245074160Y-75295018D02*
X245074160Y-74777862D01*
X243654160Y-75295018D02*
X243654160Y-74777862D01*
G04 #@! TO.C,C12*
X262175300Y-75295018D02*
X262175300Y-74777862D01*
X260755300Y-75295018D02*
X260755300Y-74777862D01*
G04 #@! TO.C,D1*
X73256160Y-77380280D02*
X65956160Y-77380280D01*
X73256160Y-76230280D02*
X73256160Y-77380280D01*
X73256160Y-71880280D02*
X65956160Y-71880280D01*
G04 #@! TO.C,D2*
X89922023Y-77380280D02*
X82622023Y-77380280D01*
X89922023Y-76230280D02*
X89922023Y-77380280D01*
X89922023Y-71880280D02*
X82622023Y-71880280D01*
G04 #@! TO.C,D12*
X256580660Y-77380280D02*
X249280660Y-77380280D01*
X256580660Y-76230280D02*
X256580660Y-77380280D01*
X256580660Y-71880280D02*
X249280660Y-71880280D01*
G04 #@! TO.C,D11*
X239914790Y-77380280D02*
X232614790Y-77380280D01*
X239914790Y-76230280D02*
X239914790Y-77380280D01*
X239914790Y-71880280D02*
X232614790Y-71880280D01*
G04 #@! TO.C,D10*
X223248927Y-77380280D02*
X215948927Y-77380280D01*
X223248927Y-76230280D02*
X223248927Y-77380280D01*
X223248927Y-71880280D02*
X215948927Y-71880280D01*
G04 #@! TO.C,D9*
X206583064Y-77380280D02*
X199283064Y-77380280D01*
X206583064Y-76230280D02*
X206583064Y-77380280D01*
X206583064Y-71880280D02*
X199283064Y-71880280D01*
G04 #@! TO.C,D8*
X189917201Y-77380280D02*
X182617201Y-77380280D01*
X189917201Y-76230280D02*
X189917201Y-77380280D01*
X189917201Y-71880280D02*
X182617201Y-71880280D01*
G04 #@! TO.C,D7*
X173251338Y-77380280D02*
X165951338Y-77380280D01*
X173251338Y-76230280D02*
X173251338Y-77380280D01*
X173251338Y-71880280D02*
X165951338Y-71880280D01*
G04 #@! TO.C,D6*
X156585475Y-77380280D02*
X149285475Y-77380280D01*
X156585475Y-76230280D02*
X156585475Y-77380280D01*
X156585475Y-71880280D02*
X149285475Y-71880280D01*
G04 #@! TO.C,D5*
X139919612Y-77380280D02*
X132619612Y-77380280D01*
X139919612Y-76230280D02*
X139919612Y-77380280D01*
X139919612Y-71880280D02*
X132619612Y-71880280D01*
G04 #@! TO.C,D4*
X123253749Y-77380280D02*
X115953749Y-77380280D01*
X123253749Y-76230280D02*
X123253749Y-77380280D01*
X123253749Y-71880280D02*
X115953749Y-71880280D01*
G04 #@! TO.C,D3*
X106587886Y-77380280D02*
X99287886Y-77380280D01*
X106587886Y-76230280D02*
X106587886Y-77380280D01*
X106587886Y-71880280D02*
X99287886Y-71880280D01*
G04 #@! TO.C,R2*
X91044036Y-74777862D02*
X91044036Y-75295018D01*
X92464036Y-74777862D02*
X92464036Y-75295018D01*
G04 #@! TO.C,R3*
X107690272Y-74777862D02*
X107690272Y-75295018D01*
X109110272Y-74777862D02*
X109110272Y-75295018D01*
G04 #@! TO.C,R4*
X124336508Y-74777862D02*
X124336508Y-75295018D01*
X125756508Y-74777862D02*
X125756508Y-75295018D01*
G04 #@! TO.C,R5*
X140982744Y-74777862D02*
X140982744Y-75295018D01*
X142402744Y-74777862D02*
X142402744Y-75295018D01*
G04 #@! TO.C,R6*
X157628980Y-74777862D02*
X157628980Y-75295018D01*
X159048980Y-74777862D02*
X159048980Y-75295018D01*
G04 #@! TO.C,R7*
X174275216Y-74777862D02*
X174275216Y-75295018D01*
X175695216Y-74777862D02*
X175695216Y-75295018D01*
G04 #@! TO.C,R8*
X190921452Y-74777862D02*
X190921452Y-75295018D01*
X192341452Y-74777862D02*
X192341452Y-75295018D01*
G04 #@! TO.C,R9*
X204731118Y-69617520D02*
X204213962Y-69617520D01*
X204731118Y-71037520D02*
X204213962Y-71037520D01*
G04 #@! TO.C,R10*
X224213924Y-74777862D02*
X224213924Y-75295018D01*
X225633924Y-74777862D02*
X225633924Y-75295018D01*
G04 #@! TO.C,R11*
X240860160Y-74777862D02*
X240860160Y-75295018D01*
X242280160Y-74777862D02*
X242280160Y-75295018D01*
G04 #@! TO.C,R12*
X257864300Y-74777862D02*
X257864300Y-75295018D01*
X259284300Y-74777862D02*
X259284300Y-75295018D01*
G04 #@! TO.C,C7*
X178489216Y-75295018D02*
X178489216Y-74777862D01*
X177069216Y-75295018D02*
X177069216Y-74777862D01*
G04 #@! TO.C,C6*
X161842980Y-75295018D02*
X161842980Y-74777862D01*
X160422980Y-75295018D02*
X160422980Y-74777862D01*
G04 #@! TO.C,C5*
X145196744Y-75295018D02*
X145196744Y-74777862D01*
X143776744Y-75295018D02*
X143776744Y-74777862D01*
G04 #@! TO.C,C4*
X128550508Y-75295018D02*
X128550508Y-74777862D01*
X127130508Y-75295018D02*
X127130508Y-74777862D01*
G04 #@! TO.C,C3*
X111904272Y-75295018D02*
X111904272Y-74777862D01*
X110484272Y-75295018D02*
X110484272Y-74777862D01*
G04 #@! TO.C,C2*
X95258036Y-75295018D02*
X95258036Y-74777862D01*
X93838036Y-75295018D02*
X93838036Y-74777862D01*
G04 #@! TO.C,C1*
X69857118Y-66569520D02*
X69339962Y-66569520D01*
X69857118Y-67989520D02*
X69339962Y-67989520D01*
D14*
G04 #@! TO.C,J2*
X311241440Y-71785480D02*
X311749440Y-71785480D01*
X311749440Y-71277480D02*
X311749440Y-71785480D01*
X311241440Y-77627480D02*
X311241440Y-71277480D01*
X316829440Y-77627480D02*
X311241440Y-77627480D01*
X316829440Y-71277480D02*
X316829440Y-77627480D01*
X311241440Y-71277480D02*
X316829440Y-71277480D01*
G04 #@! TO.C,D14*
X285049706Y-78582660D02*
X285049706Y-77582660D01*
X285287801Y-77582660D01*
X285430658Y-77630280D01*
X285525896Y-77725518D01*
X285573515Y-77820756D01*
X285621134Y-78011232D01*
X285621134Y-78154089D01*
X285573515Y-78344565D01*
X285525896Y-78439803D01*
X285430658Y-78535041D01*
X285287801Y-78582660D01*
X285049706Y-78582660D01*
X286573515Y-78582660D02*
X286002087Y-78582660D01*
X286287801Y-78582660D02*
X286287801Y-77582660D01*
X286192563Y-77725518D01*
X286097325Y-77820756D01*
X286002087Y-77868375D01*
X287430658Y-77915994D02*
X287430658Y-78582660D01*
X287192563Y-77535041D02*
X286954468Y-78249327D01*
X287573515Y-78249327D01*
G04 #@! TO.C,R1*
X73288659Y-69906853D02*
X73764849Y-69573520D01*
X73288659Y-69335424D02*
X74288659Y-69335424D01*
X74288659Y-69716377D01*
X74241040Y-69811615D01*
X74193420Y-69859234D01*
X74098182Y-69906853D01*
X73955325Y-69906853D01*
X73860087Y-69859234D01*
X73812468Y-69811615D01*
X73764849Y-69716377D01*
X73764849Y-69335424D01*
X73288659Y-70859234D02*
X73288659Y-70287805D01*
X73288659Y-70573520D02*
X74288659Y-70573520D01*
X74145801Y-70478281D01*
X74050563Y-70383043D01*
X74002944Y-70287805D01*
G04 #@! TO.C,C13*
X277444962Y-73049162D02*
X277397343Y-73096781D01*
X277254486Y-73144400D01*
X277159248Y-73144400D01*
X277016391Y-73096781D01*
X276921153Y-73001543D01*
X276873534Y-72906305D01*
X276825915Y-72715829D01*
X276825915Y-72572972D01*
X276873534Y-72382496D01*
X276921153Y-72287258D01*
X277016391Y-72192020D01*
X277159248Y-72144400D01*
X277254486Y-72144400D01*
X277397343Y-72192020D01*
X277444962Y-72239639D01*
X278397343Y-73144400D02*
X277825915Y-73144400D01*
X278111629Y-73144400D02*
X278111629Y-72144400D01*
X278016391Y-72287258D01*
X277921153Y-72382496D01*
X277825915Y-72430115D01*
X278730677Y-72144400D02*
X279349724Y-72144400D01*
X279016391Y-72525353D01*
X279159248Y-72525353D01*
X279254486Y-72572972D01*
X279302105Y-72620591D01*
X279349724Y-72715829D01*
X279349724Y-72953924D01*
X279302105Y-73049162D01*
X279254486Y-73096781D01*
X279159248Y-73144400D01*
X278873534Y-73144400D01*
X278778296Y-73096781D01*
X278730677Y-73049162D01*
G04 #@! TO.C,C14*
X282238722Y-70491857D02*
X282286341Y-70539476D01*
X282333960Y-70682333D01*
X282333960Y-70777571D01*
X282286341Y-70920428D01*
X282191103Y-71015666D01*
X282095865Y-71063285D01*
X281905389Y-71110904D01*
X281762532Y-71110904D01*
X281572056Y-71063285D01*
X281476818Y-71015666D01*
X281381580Y-70920428D01*
X281333960Y-70777571D01*
X281333960Y-70682333D01*
X281381580Y-70539476D01*
X281429199Y-70491857D01*
X282333960Y-69539476D02*
X282333960Y-70110904D01*
X282333960Y-69825190D02*
X281333960Y-69825190D01*
X281476818Y-69920428D01*
X281572056Y-70015666D01*
X281619675Y-70110904D01*
X281667294Y-68682333D02*
X282333960Y-68682333D01*
X281286341Y-68920428D02*
X282000627Y-69158523D01*
X282000627Y-68539476D01*
G04 #@! TO.C,C15*
X299259262Y-70715377D02*
X299306881Y-70762996D01*
X299354500Y-70905853D01*
X299354500Y-71001091D01*
X299306881Y-71143948D01*
X299211643Y-71239186D01*
X299116405Y-71286805D01*
X298925929Y-71334424D01*
X298783072Y-71334424D01*
X298592596Y-71286805D01*
X298497358Y-71239186D01*
X298402120Y-71143948D01*
X298354500Y-71001091D01*
X298354500Y-70905853D01*
X298402120Y-70762996D01*
X298449739Y-70715377D01*
X299354500Y-69762996D02*
X299354500Y-70334424D01*
X299354500Y-70048710D02*
X298354500Y-70048710D01*
X298497358Y-70143948D01*
X298592596Y-70239186D01*
X298640215Y-70334424D01*
X298354500Y-68858234D02*
X298354500Y-69334424D01*
X298830691Y-69382043D01*
X298783072Y-69334424D01*
X298735453Y-69239186D01*
X298735453Y-69001091D01*
X298783072Y-68905853D01*
X298830691Y-68858234D01*
X298925929Y-68810615D01*
X299164024Y-68810615D01*
X299259262Y-68858234D01*
X299306881Y-68905853D01*
X299354500Y-69001091D01*
X299354500Y-69239186D01*
X299306881Y-69334424D01*
X299259262Y-69382043D01*
G04 #@! TO.C,D15*
X301716371Y-78582660D02*
X301716371Y-77582660D01*
X301954466Y-77582660D01*
X302097323Y-77630280D01*
X302192561Y-77725518D01*
X302240180Y-77820756D01*
X302287799Y-78011232D01*
X302287799Y-78154089D01*
X302240180Y-78344565D01*
X302192561Y-78439803D01*
X302097323Y-78535041D01*
X301954466Y-78582660D01*
X301716371Y-78582660D01*
X303240180Y-78582660D02*
X302668752Y-78582660D01*
X302954466Y-78582660D02*
X302954466Y-77582660D01*
X302859228Y-77725518D01*
X302763990Y-77820756D01*
X302668752Y-77868375D01*
X304144942Y-77582660D02*
X303668752Y-77582660D01*
X303621133Y-78058851D01*
X303668752Y-78011232D01*
X303763990Y-77963613D01*
X304002085Y-77963613D01*
X304097323Y-78011232D01*
X304144942Y-78058851D01*
X304192561Y-78154089D01*
X304192561Y-78392184D01*
X304144942Y-78487422D01*
X304097323Y-78535041D01*
X304002085Y-78582660D01*
X303763990Y-78582660D01*
X303668752Y-78535041D01*
X303621133Y-78487422D01*
G04 #@! TO.C,D13*
X268383041Y-78582660D02*
X268383041Y-77582660D01*
X268621136Y-77582660D01*
X268763993Y-77630280D01*
X268859231Y-77725518D01*
X268906850Y-77820756D01*
X268954469Y-78011232D01*
X268954469Y-78154089D01*
X268906850Y-78344565D01*
X268859231Y-78439803D01*
X268763993Y-78535041D01*
X268621136Y-78582660D01*
X268383041Y-78582660D01*
X269906850Y-78582660D02*
X269335422Y-78582660D01*
X269621136Y-78582660D02*
X269621136Y-77582660D01*
X269525898Y-77725518D01*
X269430660Y-77820756D01*
X269335422Y-77868375D01*
X270240184Y-77582660D02*
X270859231Y-77582660D01*
X270525898Y-77963613D01*
X270668755Y-77963613D01*
X270763993Y-78011232D01*
X270811612Y-78058851D01*
X270859231Y-78154089D01*
X270859231Y-78392184D01*
X270811612Y-78487422D01*
X270763993Y-78535041D01*
X270668755Y-78582660D01*
X270383041Y-78582660D01*
X270287803Y-78535041D01*
X270240184Y-78487422D01*
G04 #@! TO.C,R13*
X274570222Y-73144400D02*
X274236889Y-72668210D01*
X273998794Y-73144400D02*
X273998794Y-72144400D01*
X274379746Y-72144400D01*
X274474984Y-72192020D01*
X274522603Y-72239639D01*
X274570222Y-72334877D01*
X274570222Y-72477734D01*
X274522603Y-72572972D01*
X274474984Y-72620591D01*
X274379746Y-72668210D01*
X273998794Y-72668210D01*
X275522603Y-73144400D02*
X274951175Y-73144400D01*
X275236889Y-73144400D02*
X275236889Y-72144400D01*
X275141651Y-72287258D01*
X275046413Y-72382496D01*
X274951175Y-72430115D01*
X275855937Y-72144400D02*
X276474984Y-72144400D01*
X276141651Y-72525353D01*
X276284508Y-72525353D01*
X276379746Y-72572972D01*
X276427365Y-72620591D01*
X276474984Y-72715829D01*
X276474984Y-72953924D01*
X276427365Y-73049162D01*
X276379746Y-73096781D01*
X276284508Y-73144400D01*
X275998794Y-73144400D01*
X275903556Y-73096781D01*
X275855937Y-73049162D01*
G04 #@! TO.C,R14*
X290690039Y-69074062D02*
X291166229Y-68740729D01*
X290690039Y-68502634D02*
X291690039Y-68502634D01*
X291690039Y-68883586D01*
X291642420Y-68978824D01*
X291594800Y-69026443D01*
X291499562Y-69074062D01*
X291356705Y-69074062D01*
X291261467Y-69026443D01*
X291213848Y-68978824D01*
X291166229Y-68883586D01*
X291166229Y-68502634D01*
X290690039Y-70026443D02*
X290690039Y-69455015D01*
X290690039Y-69740729D02*
X291690039Y-69740729D01*
X291547181Y-69645491D01*
X291451943Y-69550253D01*
X291404324Y-69455015D01*
X291356705Y-70883586D02*
X290690039Y-70883586D01*
X291737658Y-70645491D02*
X291023372Y-70407396D01*
X291023372Y-71026443D01*
G04 #@! TO.C,R15*
X306948579Y-69297582D02*
X307424769Y-68964249D01*
X306948579Y-68726154D02*
X307948579Y-68726154D01*
X307948579Y-69107106D01*
X307900960Y-69202344D01*
X307853340Y-69249963D01*
X307758102Y-69297582D01*
X307615245Y-69297582D01*
X307520007Y-69249963D01*
X307472388Y-69202344D01*
X307424769Y-69107106D01*
X307424769Y-68726154D01*
X306948579Y-70249963D02*
X306948579Y-69678535D01*
X306948579Y-69964249D02*
X307948579Y-69964249D01*
X307805721Y-69869011D01*
X307710483Y-69773773D01*
X307662864Y-69678535D01*
X307948579Y-71154725D02*
X307948579Y-70678535D01*
X307472388Y-70630916D01*
X307520007Y-70678535D01*
X307567626Y-70773773D01*
X307567626Y-71011868D01*
X307520007Y-71107106D01*
X307472388Y-71154725D01*
X307377150Y-71202344D01*
X307139055Y-71202344D01*
X307043817Y-71154725D01*
X306996198Y-71107106D01*
X306948579Y-71011868D01*
X306948579Y-70773773D01*
X306996198Y-70678535D01*
X307043817Y-70630916D01*
G04 #@! TO.C,J1*
X57527866Y-69866260D02*
X57527866Y-70580546D01*
X57480247Y-70723403D01*
X57385009Y-70818641D01*
X57242152Y-70866260D01*
X57146914Y-70866260D01*
X58527866Y-70866260D02*
X57956438Y-70866260D01*
X58242152Y-70866260D02*
X58242152Y-69866260D01*
X58146914Y-70009118D01*
X58051676Y-70104356D01*
X57956438Y-70151975D01*
G04 #@! TO.C,C8*
X194132785Y-72853582D02*
X194085166Y-72901201D01*
X193942309Y-72948820D01*
X193847071Y-72948820D01*
X193704213Y-72901201D01*
X193608975Y-72805963D01*
X193561356Y-72710725D01*
X193513737Y-72520249D01*
X193513737Y-72377392D01*
X193561356Y-72186916D01*
X193608975Y-72091678D01*
X193704213Y-71996440D01*
X193847071Y-71948820D01*
X193942309Y-71948820D01*
X194085166Y-71996440D01*
X194132785Y-72044059D01*
X194704213Y-72377392D02*
X194608975Y-72329773D01*
X194561356Y-72282154D01*
X194513737Y-72186916D01*
X194513737Y-72139297D01*
X194561356Y-72044059D01*
X194608975Y-71996440D01*
X194704213Y-71948820D01*
X194894690Y-71948820D01*
X194989928Y-71996440D01*
X195037547Y-72044059D01*
X195085166Y-72139297D01*
X195085166Y-72186916D01*
X195037547Y-72282154D01*
X194989928Y-72329773D01*
X194894690Y-72377392D01*
X194704213Y-72377392D01*
X194608975Y-72425011D01*
X194561356Y-72472630D01*
X194513737Y-72567868D01*
X194513737Y-72758344D01*
X194561356Y-72853582D01*
X194608975Y-72901201D01*
X194704213Y-72948820D01*
X194894690Y-72948820D01*
X194989928Y-72901201D01*
X195037547Y-72853582D01*
X195085166Y-72758344D01*
X195085166Y-72567868D01*
X195037547Y-72472630D01*
X194989928Y-72425011D01*
X194894690Y-72377392D01*
G04 #@! TO.C,C9*
X198479682Y-70620186D02*
X198527301Y-70667805D01*
X198574920Y-70810662D01*
X198574920Y-70905900D01*
X198527301Y-71048758D01*
X198432063Y-71143996D01*
X198336825Y-71191615D01*
X198146349Y-71239234D01*
X198003492Y-71239234D01*
X197813016Y-71191615D01*
X197717778Y-71143996D01*
X197622540Y-71048758D01*
X197574920Y-70905900D01*
X197574920Y-70810662D01*
X197622540Y-70667805D01*
X197670159Y-70620186D01*
X198574920Y-70143996D02*
X198574920Y-69953520D01*
X198527301Y-69858281D01*
X198479682Y-69810662D01*
X198336825Y-69715424D01*
X198146349Y-69667805D01*
X197765397Y-69667805D01*
X197670159Y-69715424D01*
X197622540Y-69763043D01*
X197574920Y-69858281D01*
X197574920Y-70048758D01*
X197622540Y-70143996D01*
X197670159Y-70191615D01*
X197765397Y-70239234D01*
X198003492Y-70239234D01*
X198098730Y-70191615D01*
X198146349Y-70143996D01*
X198193968Y-70048758D01*
X198193968Y-69858281D01*
X198146349Y-69763043D01*
X198098730Y-69715424D01*
X198003492Y-69667805D01*
G04 #@! TO.C,C10*
X226949066Y-72853582D02*
X226901447Y-72901201D01*
X226758590Y-72948820D01*
X226663352Y-72948820D01*
X226520495Y-72901201D01*
X226425257Y-72805963D01*
X226377638Y-72710725D01*
X226330019Y-72520249D01*
X226330019Y-72377392D01*
X226377638Y-72186916D01*
X226425257Y-72091678D01*
X226520495Y-71996440D01*
X226663352Y-71948820D01*
X226758590Y-71948820D01*
X226901447Y-71996440D01*
X226949066Y-72044059D01*
X227901447Y-72948820D02*
X227330019Y-72948820D01*
X227615733Y-72948820D02*
X227615733Y-71948820D01*
X227520495Y-72091678D01*
X227425257Y-72186916D01*
X227330019Y-72234535D01*
X228520495Y-71948820D02*
X228615733Y-71948820D01*
X228710971Y-71996440D01*
X228758590Y-72044059D01*
X228806209Y-72139297D01*
X228853828Y-72329773D01*
X228853828Y-72567868D01*
X228806209Y-72758344D01*
X228758590Y-72853582D01*
X228710971Y-72901201D01*
X228615733Y-72948820D01*
X228520495Y-72948820D01*
X228425257Y-72901201D01*
X228377638Y-72853582D01*
X228330019Y-72758344D01*
X228282400Y-72567868D01*
X228282400Y-72329773D01*
X228330019Y-72139297D01*
X228377638Y-72044059D01*
X228425257Y-71996440D01*
X228520495Y-71948820D01*
G04 #@! TO.C,C11*
X243595302Y-72853582D02*
X243547683Y-72901201D01*
X243404826Y-72948820D01*
X243309588Y-72948820D01*
X243166731Y-72901201D01*
X243071493Y-72805963D01*
X243023874Y-72710725D01*
X242976255Y-72520249D01*
X242976255Y-72377392D01*
X243023874Y-72186916D01*
X243071493Y-72091678D01*
X243166731Y-71996440D01*
X243309588Y-71948820D01*
X243404826Y-71948820D01*
X243547683Y-71996440D01*
X243595302Y-72044059D01*
X244547683Y-72948820D02*
X243976255Y-72948820D01*
X244261969Y-72948820D02*
X244261969Y-71948820D01*
X244166731Y-72091678D01*
X244071493Y-72186916D01*
X243976255Y-72234535D01*
X245500064Y-72948820D02*
X244928636Y-72948820D01*
X245214350Y-72948820D02*
X245214350Y-71948820D01*
X245119112Y-72091678D01*
X245023874Y-72186916D01*
X244928636Y-72234535D01*
G04 #@! TO.C,C12*
X260773942Y-72775082D02*
X260726323Y-72822701D01*
X260583466Y-72870320D01*
X260488228Y-72870320D01*
X260345371Y-72822701D01*
X260250133Y-72727463D01*
X260202514Y-72632225D01*
X260154895Y-72441749D01*
X260154895Y-72298892D01*
X260202514Y-72108416D01*
X260250133Y-72013178D01*
X260345371Y-71917940D01*
X260488228Y-71870320D01*
X260583466Y-71870320D01*
X260726323Y-71917940D01*
X260773942Y-71965559D01*
X261726323Y-72870320D02*
X261154895Y-72870320D01*
X261440609Y-72870320D02*
X261440609Y-71870320D01*
X261345371Y-72013178D01*
X261250133Y-72108416D01*
X261154895Y-72156035D01*
X262107276Y-71965559D02*
X262154895Y-71917940D01*
X262250133Y-71870320D01*
X262488228Y-71870320D01*
X262583466Y-71917940D01*
X262631085Y-71965559D01*
X262678704Y-72060797D01*
X262678704Y-72156035D01*
X262631085Y-72298892D01*
X262059657Y-72870320D01*
X262678704Y-72870320D01*
G04 #@! TO.C,D1*
X68868064Y-78582660D02*
X68868064Y-77582660D01*
X69106160Y-77582660D01*
X69249017Y-77630280D01*
X69344255Y-77725518D01*
X69391874Y-77820756D01*
X69439493Y-78011232D01*
X69439493Y-78154089D01*
X69391874Y-78344565D01*
X69344255Y-78439803D01*
X69249017Y-78535041D01*
X69106160Y-78582660D01*
X68868064Y-78582660D01*
X70391874Y-78582660D02*
X69820445Y-78582660D01*
X70106160Y-78582660D02*
X70106160Y-77582660D01*
X70010921Y-77725518D01*
X69915683Y-77820756D01*
X69820445Y-77868375D01*
G04 #@! TO.C,D2*
X85533927Y-78582660D02*
X85533927Y-77582660D01*
X85772023Y-77582660D01*
X85914880Y-77630280D01*
X86010118Y-77725518D01*
X86057737Y-77820756D01*
X86105356Y-78011232D01*
X86105356Y-78154089D01*
X86057737Y-78344565D01*
X86010118Y-78439803D01*
X85914880Y-78535041D01*
X85772023Y-78582660D01*
X85533927Y-78582660D01*
X86486308Y-77677899D02*
X86533927Y-77630280D01*
X86629165Y-77582660D01*
X86867261Y-77582660D01*
X86962499Y-77630280D01*
X87010118Y-77677899D01*
X87057737Y-77773137D01*
X87057737Y-77868375D01*
X87010118Y-78011232D01*
X86438689Y-78582660D01*
X87057737Y-78582660D01*
G04 #@! TO.C,D12*
X251716374Y-78582660D02*
X251716374Y-77582660D01*
X251954469Y-77582660D01*
X252097326Y-77630280D01*
X252192564Y-77725518D01*
X252240183Y-77820756D01*
X252287802Y-78011232D01*
X252287802Y-78154089D01*
X252240183Y-78344565D01*
X252192564Y-78439803D01*
X252097326Y-78535041D01*
X251954469Y-78582660D01*
X251716374Y-78582660D01*
X253240183Y-78582660D02*
X252668755Y-78582660D01*
X252954469Y-78582660D02*
X252954469Y-77582660D01*
X252859231Y-77725518D01*
X252763993Y-77820756D01*
X252668755Y-77868375D01*
X253621136Y-77677899D02*
X253668755Y-77630280D01*
X253763993Y-77582660D01*
X254002088Y-77582660D01*
X254097326Y-77630280D01*
X254144945Y-77677899D01*
X254192564Y-77773137D01*
X254192564Y-77868375D01*
X254144945Y-78011232D01*
X253573517Y-78582660D01*
X254192564Y-78582660D01*
G04 #@! TO.C,D11*
X235050504Y-78582660D02*
X235050504Y-77582660D01*
X235288599Y-77582660D01*
X235431456Y-77630280D01*
X235526694Y-77725518D01*
X235574313Y-77820756D01*
X235621932Y-78011232D01*
X235621932Y-78154089D01*
X235574313Y-78344565D01*
X235526694Y-78439803D01*
X235431456Y-78535041D01*
X235288599Y-78582660D01*
X235050504Y-78582660D01*
X236574313Y-78582660D02*
X236002885Y-78582660D01*
X236288599Y-78582660D02*
X236288599Y-77582660D01*
X236193361Y-77725518D01*
X236098123Y-77820756D01*
X236002885Y-77868375D01*
X237526694Y-78582660D02*
X236955266Y-78582660D01*
X237240980Y-78582660D02*
X237240980Y-77582660D01*
X237145742Y-77725518D01*
X237050504Y-77820756D01*
X236955266Y-77868375D01*
G04 #@! TO.C,D10*
X218384641Y-78582660D02*
X218384641Y-77582660D01*
X218622736Y-77582660D01*
X218765593Y-77630280D01*
X218860831Y-77725518D01*
X218908450Y-77820756D01*
X218956069Y-78011232D01*
X218956069Y-78154089D01*
X218908450Y-78344565D01*
X218860831Y-78439803D01*
X218765593Y-78535041D01*
X218622736Y-78582660D01*
X218384641Y-78582660D01*
X219908450Y-78582660D02*
X219337022Y-78582660D01*
X219622736Y-78582660D02*
X219622736Y-77582660D01*
X219527498Y-77725518D01*
X219432260Y-77820756D01*
X219337022Y-77868375D01*
X220527498Y-77582660D02*
X220622736Y-77582660D01*
X220717974Y-77630280D01*
X220765593Y-77677899D01*
X220813212Y-77773137D01*
X220860831Y-77963613D01*
X220860831Y-78201708D01*
X220813212Y-78392184D01*
X220765593Y-78487422D01*
X220717974Y-78535041D01*
X220622736Y-78582660D01*
X220527498Y-78582660D01*
X220432260Y-78535041D01*
X220384641Y-78487422D01*
X220337022Y-78392184D01*
X220289403Y-78201708D01*
X220289403Y-77963613D01*
X220337022Y-77773137D01*
X220384641Y-77677899D01*
X220432260Y-77630280D01*
X220527498Y-77582660D01*
G04 #@! TO.C,D9*
X202194968Y-78582660D02*
X202194968Y-77582660D01*
X202433064Y-77582660D01*
X202575921Y-77630280D01*
X202671159Y-77725518D01*
X202718778Y-77820756D01*
X202766397Y-78011232D01*
X202766397Y-78154089D01*
X202718778Y-78344565D01*
X202671159Y-78439803D01*
X202575921Y-78535041D01*
X202433064Y-78582660D01*
X202194968Y-78582660D01*
X203242587Y-78582660D02*
X203433064Y-78582660D01*
X203528302Y-78535041D01*
X203575921Y-78487422D01*
X203671159Y-78344565D01*
X203718778Y-78154089D01*
X203718778Y-77773137D01*
X203671159Y-77677899D01*
X203623540Y-77630280D01*
X203528302Y-77582660D01*
X203337825Y-77582660D01*
X203242587Y-77630280D01*
X203194968Y-77677899D01*
X203147349Y-77773137D01*
X203147349Y-78011232D01*
X203194968Y-78106470D01*
X203242587Y-78154089D01*
X203337825Y-78201708D01*
X203528302Y-78201708D01*
X203623540Y-78154089D01*
X203671159Y-78106470D01*
X203718778Y-78011232D01*
G04 #@! TO.C,D8*
X185529105Y-78582660D02*
X185529105Y-77582660D01*
X185767201Y-77582660D01*
X185910058Y-77630280D01*
X186005296Y-77725518D01*
X186052915Y-77820756D01*
X186100534Y-78011232D01*
X186100534Y-78154089D01*
X186052915Y-78344565D01*
X186005296Y-78439803D01*
X185910058Y-78535041D01*
X185767201Y-78582660D01*
X185529105Y-78582660D01*
X186671962Y-78011232D02*
X186576724Y-77963613D01*
X186529105Y-77915994D01*
X186481486Y-77820756D01*
X186481486Y-77773137D01*
X186529105Y-77677899D01*
X186576724Y-77630280D01*
X186671962Y-77582660D01*
X186862439Y-77582660D01*
X186957677Y-77630280D01*
X187005296Y-77677899D01*
X187052915Y-77773137D01*
X187052915Y-77820756D01*
X187005296Y-77915994D01*
X186957677Y-77963613D01*
X186862439Y-78011232D01*
X186671962Y-78011232D01*
X186576724Y-78058851D01*
X186529105Y-78106470D01*
X186481486Y-78201708D01*
X186481486Y-78392184D01*
X186529105Y-78487422D01*
X186576724Y-78535041D01*
X186671962Y-78582660D01*
X186862439Y-78582660D01*
X186957677Y-78535041D01*
X187005296Y-78487422D01*
X187052915Y-78392184D01*
X187052915Y-78201708D01*
X187005296Y-78106470D01*
X186957677Y-78058851D01*
X186862439Y-78011232D01*
G04 #@! TO.C,D7*
X168863242Y-78582660D02*
X168863242Y-77582660D01*
X169101338Y-77582660D01*
X169244195Y-77630280D01*
X169339433Y-77725518D01*
X169387052Y-77820756D01*
X169434671Y-78011232D01*
X169434671Y-78154089D01*
X169387052Y-78344565D01*
X169339433Y-78439803D01*
X169244195Y-78535041D01*
X169101338Y-78582660D01*
X168863242Y-78582660D01*
X169768004Y-77582660D02*
X170434671Y-77582660D01*
X170006099Y-78582660D01*
G04 #@! TO.C,D6*
X152197379Y-78582660D02*
X152197379Y-77582660D01*
X152435475Y-77582660D01*
X152578332Y-77630280D01*
X152673570Y-77725518D01*
X152721189Y-77820756D01*
X152768808Y-78011232D01*
X152768808Y-78154089D01*
X152721189Y-78344565D01*
X152673570Y-78439803D01*
X152578332Y-78535041D01*
X152435475Y-78582660D01*
X152197379Y-78582660D01*
X153625951Y-77582660D02*
X153435475Y-77582660D01*
X153340236Y-77630280D01*
X153292617Y-77677899D01*
X153197379Y-77820756D01*
X153149760Y-78011232D01*
X153149760Y-78392184D01*
X153197379Y-78487422D01*
X153244998Y-78535041D01*
X153340236Y-78582660D01*
X153530713Y-78582660D01*
X153625951Y-78535041D01*
X153673570Y-78487422D01*
X153721189Y-78392184D01*
X153721189Y-78154089D01*
X153673570Y-78058851D01*
X153625951Y-78011232D01*
X153530713Y-77963613D01*
X153340236Y-77963613D01*
X153244998Y-78011232D01*
X153197379Y-78058851D01*
X153149760Y-78154089D01*
G04 #@! TO.C,D5*
X135531516Y-78582660D02*
X135531516Y-77582660D01*
X135769612Y-77582660D01*
X135912469Y-77630280D01*
X136007707Y-77725518D01*
X136055326Y-77820756D01*
X136102945Y-78011232D01*
X136102945Y-78154089D01*
X136055326Y-78344565D01*
X136007707Y-78439803D01*
X135912469Y-78535041D01*
X135769612Y-78582660D01*
X135531516Y-78582660D01*
X137007707Y-77582660D02*
X136531516Y-77582660D01*
X136483897Y-78058851D01*
X136531516Y-78011232D01*
X136626754Y-77963613D01*
X136864850Y-77963613D01*
X136960088Y-78011232D01*
X137007707Y-78058851D01*
X137055326Y-78154089D01*
X137055326Y-78392184D01*
X137007707Y-78487422D01*
X136960088Y-78535041D01*
X136864850Y-78582660D01*
X136626754Y-78582660D01*
X136531516Y-78535041D01*
X136483897Y-78487422D01*
G04 #@! TO.C,D4*
X118865653Y-78582660D02*
X118865653Y-77582660D01*
X119103749Y-77582660D01*
X119246606Y-77630280D01*
X119341844Y-77725518D01*
X119389463Y-77820756D01*
X119437082Y-78011232D01*
X119437082Y-78154089D01*
X119389463Y-78344565D01*
X119341844Y-78439803D01*
X119246606Y-78535041D01*
X119103749Y-78582660D01*
X118865653Y-78582660D01*
X120294225Y-77915994D02*
X120294225Y-78582660D01*
X120056129Y-77535041D02*
X119818034Y-78249327D01*
X120437082Y-78249327D01*
G04 #@! TO.C,D3*
X102199790Y-78582660D02*
X102199790Y-77582660D01*
X102437886Y-77582660D01*
X102580743Y-77630280D01*
X102675981Y-77725518D01*
X102723600Y-77820756D01*
X102771219Y-78011232D01*
X102771219Y-78154089D01*
X102723600Y-78344565D01*
X102675981Y-78439803D01*
X102580743Y-78535041D01*
X102437886Y-78582660D01*
X102199790Y-78582660D01*
X103104552Y-77582660D02*
X103723600Y-77582660D01*
X103390266Y-77963613D01*
X103533124Y-77963613D01*
X103628362Y-78011232D01*
X103675981Y-78058851D01*
X103723600Y-78154089D01*
X103723600Y-78392184D01*
X103675981Y-78487422D01*
X103628362Y-78535041D01*
X103533124Y-78582660D01*
X103247409Y-78582660D01*
X103152171Y-78535041D01*
X103104552Y-78487422D01*
G04 #@! TO.C,R2*
X91713369Y-72948820D02*
X91380036Y-72472630D01*
X91141940Y-72948820D02*
X91141940Y-71948820D01*
X91522893Y-71948820D01*
X91618131Y-71996440D01*
X91665750Y-72044059D01*
X91713369Y-72139297D01*
X91713369Y-72282154D01*
X91665750Y-72377392D01*
X91618131Y-72425011D01*
X91522893Y-72472630D01*
X91141940Y-72472630D01*
X92094321Y-72044059D02*
X92141940Y-71996440D01*
X92237178Y-71948820D01*
X92475274Y-71948820D01*
X92570512Y-71996440D01*
X92618131Y-72044059D01*
X92665750Y-72139297D01*
X92665750Y-72234535D01*
X92618131Y-72377392D01*
X92046702Y-72948820D01*
X92665750Y-72948820D01*
G04 #@! TO.C,R3*
X108359605Y-72948820D02*
X108026272Y-72472630D01*
X107788176Y-72948820D02*
X107788176Y-71948820D01*
X108169129Y-71948820D01*
X108264367Y-71996440D01*
X108311986Y-72044059D01*
X108359605Y-72139297D01*
X108359605Y-72282154D01*
X108311986Y-72377392D01*
X108264367Y-72425011D01*
X108169129Y-72472630D01*
X107788176Y-72472630D01*
X108692938Y-71948820D02*
X109311986Y-71948820D01*
X108978652Y-72329773D01*
X109121510Y-72329773D01*
X109216748Y-72377392D01*
X109264367Y-72425011D01*
X109311986Y-72520249D01*
X109311986Y-72758344D01*
X109264367Y-72853582D01*
X109216748Y-72901201D01*
X109121510Y-72948820D01*
X108835795Y-72948820D01*
X108740557Y-72901201D01*
X108692938Y-72853582D01*
G04 #@! TO.C,R4*
X125005841Y-72948820D02*
X124672508Y-72472630D01*
X124434412Y-72948820D02*
X124434412Y-71948820D01*
X124815365Y-71948820D01*
X124910603Y-71996440D01*
X124958222Y-72044059D01*
X125005841Y-72139297D01*
X125005841Y-72282154D01*
X124958222Y-72377392D01*
X124910603Y-72425011D01*
X124815365Y-72472630D01*
X124434412Y-72472630D01*
X125862984Y-72282154D02*
X125862984Y-72948820D01*
X125624888Y-71901201D02*
X125386793Y-72615487D01*
X126005841Y-72615487D01*
G04 #@! TO.C,R5*
X141652077Y-72948820D02*
X141318744Y-72472630D01*
X141080648Y-72948820D02*
X141080648Y-71948820D01*
X141461601Y-71948820D01*
X141556839Y-71996440D01*
X141604458Y-72044059D01*
X141652077Y-72139297D01*
X141652077Y-72282154D01*
X141604458Y-72377392D01*
X141556839Y-72425011D01*
X141461601Y-72472630D01*
X141080648Y-72472630D01*
X142556839Y-71948820D02*
X142080648Y-71948820D01*
X142033029Y-72425011D01*
X142080648Y-72377392D01*
X142175886Y-72329773D01*
X142413982Y-72329773D01*
X142509220Y-72377392D01*
X142556839Y-72425011D01*
X142604458Y-72520249D01*
X142604458Y-72758344D01*
X142556839Y-72853582D01*
X142509220Y-72901201D01*
X142413982Y-72948820D01*
X142175886Y-72948820D01*
X142080648Y-72901201D01*
X142033029Y-72853582D01*
G04 #@! TO.C,R6*
X158298313Y-72948820D02*
X157964980Y-72472630D01*
X157726884Y-72948820D02*
X157726884Y-71948820D01*
X158107837Y-71948820D01*
X158203075Y-71996440D01*
X158250694Y-72044059D01*
X158298313Y-72139297D01*
X158298313Y-72282154D01*
X158250694Y-72377392D01*
X158203075Y-72425011D01*
X158107837Y-72472630D01*
X157726884Y-72472630D01*
X159155456Y-71948820D02*
X158964980Y-71948820D01*
X158869741Y-71996440D01*
X158822122Y-72044059D01*
X158726884Y-72186916D01*
X158679265Y-72377392D01*
X158679265Y-72758344D01*
X158726884Y-72853582D01*
X158774503Y-72901201D01*
X158869741Y-72948820D01*
X159060218Y-72948820D01*
X159155456Y-72901201D01*
X159203075Y-72853582D01*
X159250694Y-72758344D01*
X159250694Y-72520249D01*
X159203075Y-72425011D01*
X159155456Y-72377392D01*
X159060218Y-72329773D01*
X158869741Y-72329773D01*
X158774503Y-72377392D01*
X158726884Y-72425011D01*
X158679265Y-72520249D01*
G04 #@! TO.C,R7*
X174944549Y-72948820D02*
X174611216Y-72472630D01*
X174373120Y-72948820D02*
X174373120Y-71948820D01*
X174754073Y-71948820D01*
X174849311Y-71996440D01*
X174896930Y-72044059D01*
X174944549Y-72139297D01*
X174944549Y-72282154D01*
X174896930Y-72377392D01*
X174849311Y-72425011D01*
X174754073Y-72472630D01*
X174373120Y-72472630D01*
X175277882Y-71948820D02*
X175944549Y-71948820D01*
X175515977Y-72948820D01*
G04 #@! TO.C,R8*
X191590785Y-72948820D02*
X191257452Y-72472630D01*
X191019356Y-72948820D02*
X191019356Y-71948820D01*
X191400309Y-71948820D01*
X191495547Y-71996440D01*
X191543166Y-72044059D01*
X191590785Y-72139297D01*
X191590785Y-72282154D01*
X191543166Y-72377392D01*
X191495547Y-72425011D01*
X191400309Y-72472630D01*
X191019356Y-72472630D01*
X192162213Y-72377392D02*
X192066975Y-72329773D01*
X192019356Y-72282154D01*
X191971737Y-72186916D01*
X191971737Y-72139297D01*
X192019356Y-72044059D01*
X192066975Y-71996440D01*
X192162213Y-71948820D01*
X192352690Y-71948820D01*
X192447928Y-71996440D01*
X192495547Y-72044059D01*
X192543166Y-72139297D01*
X192543166Y-72186916D01*
X192495547Y-72282154D01*
X192447928Y-72329773D01*
X192352690Y-72377392D01*
X192162213Y-72377392D01*
X192066975Y-72425011D01*
X192019356Y-72472630D01*
X191971737Y-72567868D01*
X191971737Y-72758344D01*
X192019356Y-72853582D01*
X192066975Y-72901201D01*
X192162213Y-72948820D01*
X192352690Y-72948820D01*
X192447928Y-72901201D01*
X192495547Y-72853582D01*
X192543166Y-72758344D01*
X192543166Y-72567868D01*
X192495547Y-72472630D01*
X192447928Y-72425011D01*
X192352690Y-72377392D01*
G04 #@! TO.C,R9*
X206560159Y-70286853D02*
X207036349Y-69953520D01*
X206560159Y-69715424D02*
X207560159Y-69715424D01*
X207560159Y-70096377D01*
X207512540Y-70191615D01*
X207464920Y-70239234D01*
X207369682Y-70286853D01*
X207226825Y-70286853D01*
X207131587Y-70239234D01*
X207083968Y-70191615D01*
X207036349Y-70096377D01*
X207036349Y-69715424D01*
X206560159Y-70763043D02*
X206560159Y-70953520D01*
X206607778Y-71048758D01*
X206655397Y-71096377D01*
X206798254Y-71191615D01*
X206988730Y-71239234D01*
X207369682Y-71239234D01*
X207464920Y-71191615D01*
X207512540Y-71143996D01*
X207560159Y-71048758D01*
X207560159Y-70858281D01*
X207512540Y-70763043D01*
X207464920Y-70715424D01*
X207369682Y-70667805D01*
X207131587Y-70667805D01*
X207036349Y-70715424D01*
X206988730Y-70763043D01*
X206941111Y-70858281D01*
X206941111Y-71048758D01*
X206988730Y-71143996D01*
X207036349Y-71191615D01*
X207131587Y-71239234D01*
G04 #@! TO.C,R10*
X224407066Y-72948820D02*
X224073733Y-72472630D01*
X223835638Y-72948820D02*
X223835638Y-71948820D01*
X224216590Y-71948820D01*
X224311828Y-71996440D01*
X224359447Y-72044059D01*
X224407066Y-72139297D01*
X224407066Y-72282154D01*
X224359447Y-72377392D01*
X224311828Y-72425011D01*
X224216590Y-72472630D01*
X223835638Y-72472630D01*
X225359447Y-72948820D02*
X224788019Y-72948820D01*
X225073733Y-72948820D02*
X225073733Y-71948820D01*
X224978495Y-72091678D01*
X224883257Y-72186916D01*
X224788019Y-72234535D01*
X225978495Y-71948820D02*
X226073733Y-71948820D01*
X226168971Y-71996440D01*
X226216590Y-72044059D01*
X226264209Y-72139297D01*
X226311828Y-72329773D01*
X226311828Y-72567868D01*
X226264209Y-72758344D01*
X226216590Y-72853582D01*
X226168971Y-72901201D01*
X226073733Y-72948820D01*
X225978495Y-72948820D01*
X225883257Y-72901201D01*
X225835638Y-72853582D01*
X225788019Y-72758344D01*
X225740400Y-72567868D01*
X225740400Y-72329773D01*
X225788019Y-72139297D01*
X225835638Y-72044059D01*
X225883257Y-71996440D01*
X225978495Y-71948820D01*
G04 #@! TO.C,R11*
X241053302Y-72948820D02*
X240719969Y-72472630D01*
X240481874Y-72948820D02*
X240481874Y-71948820D01*
X240862826Y-71948820D01*
X240958064Y-71996440D01*
X241005683Y-72044059D01*
X241053302Y-72139297D01*
X241053302Y-72282154D01*
X241005683Y-72377392D01*
X240958064Y-72425011D01*
X240862826Y-72472630D01*
X240481874Y-72472630D01*
X242005683Y-72948820D02*
X241434255Y-72948820D01*
X241719969Y-72948820D02*
X241719969Y-71948820D01*
X241624731Y-72091678D01*
X241529493Y-72186916D01*
X241434255Y-72234535D01*
X242958064Y-72948820D02*
X242386636Y-72948820D01*
X242672350Y-72948820D02*
X242672350Y-71948820D01*
X242577112Y-72091678D01*
X242481874Y-72186916D01*
X242386636Y-72234535D01*
G04 #@! TO.C,R12*
X257929142Y-72842380D02*
X257595809Y-72366190D01*
X257357714Y-72842380D02*
X257357714Y-71842380D01*
X257738666Y-71842380D01*
X257833904Y-71890000D01*
X257881523Y-71937619D01*
X257929142Y-72032857D01*
X257929142Y-72175714D01*
X257881523Y-72270952D01*
X257833904Y-72318571D01*
X257738666Y-72366190D01*
X257357714Y-72366190D01*
X258881523Y-72842380D02*
X258310095Y-72842380D01*
X258595809Y-72842380D02*
X258595809Y-71842380D01*
X258500571Y-71985238D01*
X258405333Y-72080476D01*
X258310095Y-72128095D01*
X259262476Y-71937619D02*
X259310095Y-71890000D01*
X259405333Y-71842380D01*
X259643428Y-71842380D01*
X259738666Y-71890000D01*
X259786285Y-71937619D01*
X259833904Y-72032857D01*
X259833904Y-72128095D01*
X259786285Y-72270952D01*
X259214857Y-72842380D01*
X259833904Y-72842380D01*
G04 #@! TO.C,C7*
X177486549Y-72853582D02*
X177438930Y-72901201D01*
X177296073Y-72948820D01*
X177200835Y-72948820D01*
X177057977Y-72901201D01*
X176962739Y-72805963D01*
X176915120Y-72710725D01*
X176867501Y-72520249D01*
X176867501Y-72377392D01*
X176915120Y-72186916D01*
X176962739Y-72091678D01*
X177057977Y-71996440D01*
X177200835Y-71948820D01*
X177296073Y-71948820D01*
X177438930Y-71996440D01*
X177486549Y-72044059D01*
X177819882Y-71948820D02*
X178486549Y-71948820D01*
X178057977Y-72948820D01*
G04 #@! TO.C,C6*
X160840313Y-72853582D02*
X160792694Y-72901201D01*
X160649837Y-72948820D01*
X160554599Y-72948820D01*
X160411741Y-72901201D01*
X160316503Y-72805963D01*
X160268884Y-72710725D01*
X160221265Y-72520249D01*
X160221265Y-72377392D01*
X160268884Y-72186916D01*
X160316503Y-72091678D01*
X160411741Y-71996440D01*
X160554599Y-71948820D01*
X160649837Y-71948820D01*
X160792694Y-71996440D01*
X160840313Y-72044059D01*
X161697456Y-71948820D02*
X161506980Y-71948820D01*
X161411741Y-71996440D01*
X161364122Y-72044059D01*
X161268884Y-72186916D01*
X161221265Y-72377392D01*
X161221265Y-72758344D01*
X161268884Y-72853582D01*
X161316503Y-72901201D01*
X161411741Y-72948820D01*
X161602218Y-72948820D01*
X161697456Y-72901201D01*
X161745075Y-72853582D01*
X161792694Y-72758344D01*
X161792694Y-72520249D01*
X161745075Y-72425011D01*
X161697456Y-72377392D01*
X161602218Y-72329773D01*
X161411741Y-72329773D01*
X161316503Y-72377392D01*
X161268884Y-72425011D01*
X161221265Y-72520249D01*
G04 #@! TO.C,C5*
X144194077Y-72853582D02*
X144146458Y-72901201D01*
X144003601Y-72948820D01*
X143908363Y-72948820D01*
X143765505Y-72901201D01*
X143670267Y-72805963D01*
X143622648Y-72710725D01*
X143575029Y-72520249D01*
X143575029Y-72377392D01*
X143622648Y-72186916D01*
X143670267Y-72091678D01*
X143765505Y-71996440D01*
X143908363Y-71948820D01*
X144003601Y-71948820D01*
X144146458Y-71996440D01*
X144194077Y-72044059D01*
X145098839Y-71948820D02*
X144622648Y-71948820D01*
X144575029Y-72425011D01*
X144622648Y-72377392D01*
X144717886Y-72329773D01*
X144955982Y-72329773D01*
X145051220Y-72377392D01*
X145098839Y-72425011D01*
X145146458Y-72520249D01*
X145146458Y-72758344D01*
X145098839Y-72853582D01*
X145051220Y-72901201D01*
X144955982Y-72948820D01*
X144717886Y-72948820D01*
X144622648Y-72901201D01*
X144575029Y-72853582D01*
G04 #@! TO.C,C4*
X127547841Y-72853582D02*
X127500222Y-72901201D01*
X127357365Y-72948820D01*
X127262127Y-72948820D01*
X127119269Y-72901201D01*
X127024031Y-72805963D01*
X126976412Y-72710725D01*
X126928793Y-72520249D01*
X126928793Y-72377392D01*
X126976412Y-72186916D01*
X127024031Y-72091678D01*
X127119269Y-71996440D01*
X127262127Y-71948820D01*
X127357365Y-71948820D01*
X127500222Y-71996440D01*
X127547841Y-72044059D01*
X128404984Y-72282154D02*
X128404984Y-72948820D01*
X128166888Y-71901201D02*
X127928793Y-72615487D01*
X128547841Y-72615487D01*
G04 #@! TO.C,C3*
X110901605Y-72853582D02*
X110853986Y-72901201D01*
X110711129Y-72948820D01*
X110615891Y-72948820D01*
X110473033Y-72901201D01*
X110377795Y-72805963D01*
X110330176Y-72710725D01*
X110282557Y-72520249D01*
X110282557Y-72377392D01*
X110330176Y-72186916D01*
X110377795Y-72091678D01*
X110473033Y-71996440D01*
X110615891Y-71948820D01*
X110711129Y-71948820D01*
X110853986Y-71996440D01*
X110901605Y-72044059D01*
X111234938Y-71948820D02*
X111853986Y-71948820D01*
X111520652Y-72329773D01*
X111663510Y-72329773D01*
X111758748Y-72377392D01*
X111806367Y-72425011D01*
X111853986Y-72520249D01*
X111853986Y-72758344D01*
X111806367Y-72853582D01*
X111758748Y-72901201D01*
X111663510Y-72948820D01*
X111377795Y-72948820D01*
X111282557Y-72901201D01*
X111234938Y-72853582D01*
G04 #@! TO.C,C2*
X94255369Y-72853582D02*
X94207750Y-72901201D01*
X94064893Y-72948820D01*
X93969655Y-72948820D01*
X93826797Y-72901201D01*
X93731559Y-72805963D01*
X93683940Y-72710725D01*
X93636321Y-72520249D01*
X93636321Y-72377392D01*
X93683940Y-72186916D01*
X93731559Y-72091678D01*
X93826797Y-71996440D01*
X93969655Y-71948820D01*
X94064893Y-71948820D01*
X94207750Y-71996440D01*
X94255369Y-72044059D01*
X94636321Y-72044059D02*
X94683940Y-71996440D01*
X94779178Y-71948820D01*
X95017274Y-71948820D01*
X95112512Y-71996440D01*
X95160131Y-72044059D01*
X95207750Y-72139297D01*
X95207750Y-72234535D01*
X95160131Y-72377392D01*
X94588702Y-72948820D01*
X95207750Y-72948820D01*
G04 #@! TO.C,C1*
X67494182Y-67446186D02*
X67541801Y-67493805D01*
X67589420Y-67636662D01*
X67589420Y-67731900D01*
X67541801Y-67874758D01*
X67446563Y-67969996D01*
X67351325Y-68017615D01*
X67160849Y-68065234D01*
X67017992Y-68065234D01*
X66827516Y-68017615D01*
X66732278Y-67969996D01*
X66637040Y-67874758D01*
X66589420Y-67731900D01*
X66589420Y-67636662D01*
X66637040Y-67493805D01*
X66684659Y-67446186D01*
X67589420Y-66493805D02*
X67589420Y-67065234D01*
X67589420Y-66779520D02*
X66589420Y-66779520D01*
X66732278Y-66874758D01*
X66827516Y-66969996D01*
X66875135Y-67065234D01*
G04 #@! TO.C,J2*
X313702106Y-69713860D02*
X313702106Y-70428146D01*
X313654487Y-70571003D01*
X313559249Y-70666241D01*
X313416392Y-70713860D01*
X313321154Y-70713860D01*
X314130678Y-69809099D02*
X314178297Y-69761480D01*
X314273535Y-69713860D01*
X314511630Y-69713860D01*
X314606868Y-69761480D01*
X314654487Y-69809099D01*
X314702106Y-69904337D01*
X314702106Y-69999575D01*
X314654487Y-70142432D01*
X314083059Y-70713860D01*
X314702106Y-70713860D01*
G04 #@! TD*
M02*
