<?xml version="1.0" standalone="no"?>
 <!DOCTYPE svg PUBLIC "-//W3C//DTD SVG 1.1//EN" 
 "http://www.w3.org/Graphics/SVG/1.1/DTD/svg11.dtd"> 
<svg xmlns="http://www.w3.org/2000/svg" version="1.1" 
    width="41.9989cm" height="29.7002cm" viewBox="0 0 165350 116930 ">
<title>SVG Picture created as BCInside-B_SilkS.svg date 2019/04/12 10:45:59 </title>
  <desc>Picture generated by PCBNEW </desc>
<g style="fill:#000000; fill-opacity:1;stroke:#000000; stroke-opacity:1;
stroke-linecap:round; stroke-linejoin:round; "
 transform="translate(0 0) scale(1 1)">
</g>
<g style="fill:#000000; fill-opacity:0.0; 
stroke:#000000; stroke-width:-0.000393701; stroke-opacity:1; 
stroke-linecap:round; stroke-linejoin:round;">
</g>
<g style="fill:#000000; fill-opacity:0.0; 
stroke:#000000; stroke-width:118.11; stroke-opacity:1; 
stroke-linecap:round; stroke-linejoin:round;">
<path d="M126445 27232
L126501 27289
L126670 27345
L126782 27345
L126951 27289
L127064 27176
L127120 27064
L127176 26839
L127176 26670
L127120 26445
L127064 26332
L126951 26220
L126782 26164
L126670 26164
L126501 26220
L126445 26276
" />
<path d="M19758 31923
L19589 31979
L19533 32035
L19476 32148
L19476 32317
L19533 32429
L19589 32485
L19701 32542
L20151 32542
L20151 31361
L19758 31361
L19645 31417
L19589 31473
L19533 31586
L19533 31698
L19589 31811
L19645 31867
L19758 31923
L20151 31923
" />
<path d="M19437 27232
L19493 27289
L19662 27345
L19775 27345
L19943 27289
L20056 27176
L20112 27064
L20168 26839
L20168 26670
L20112 26445
L20056 26332
L19943 26220
L19775 26164
L19662 26164
L19493 26220
L19437 26276
" />
<path d="M126726 32002
L126557 32058
L126501 32114
L126445 32227
L126445 32395
L126501 32508
L126557 32564
L126670 32620
L127120 32620
L127120 31439
L126726 31439
L126614 31496
L126557 31552
L126501 31664
L126501 31777
L126557 31889
L126614 31946
L126726 32002
L127120 32002
" />
<g >
</g>
</g> 
</svg>
