G04 #@! TF.GenerationSoftware,KiCad,Pcbnew,(5.0.0-3-g5ebb6b6)*
G04 #@! TF.CreationDate,2019-02-17T13:25:32-08:00*
G04 #@! TF.ProjectId,BCInside,4243496E736964652E6B696361645F70,rev?*
G04 #@! TF.SameCoordinates,Original*
G04 #@! TF.FileFunction,Soldermask,Top*
G04 #@! TF.FilePolarity,Negative*
%FSLAX46Y46*%
G04 Gerber Fmt 4.6, Leading zero omitted, Abs format (unit mm)*
G04 Created by KiCad (PCBNEW (5.0.0-3-g5ebb6b6)) date Sunday, February 17, 2019 at 01:25:32 PM*
%MOMM*%
%LPD*%
G01*
G04 APERTURE LIST*
%ADD10R,1.900000X1.400000*%
%ADD11C,0.050000*%
%ADD12C,1.375000*%
%ADD13O,5.480000X1.924000*%
G04 APERTURE END LIST*
D10*
G04 #@! TO.C,D14*
X288713992Y-76230280D03*
X288713992Y-74630280D03*
X288713992Y-73030280D03*
X283813992Y-76230280D03*
X283813992Y-74630280D03*
X283813992Y-73030280D03*
G04 #@! TD*
D11*
G04 #@! TO.C,R1*
G36*
X70816483Y-69175175D02*
X70849852Y-69180125D01*
X70882575Y-69188322D01*
X70914337Y-69199686D01*
X70944833Y-69214110D01*
X70973767Y-69231452D01*
X71000863Y-69251548D01*
X71025858Y-69274202D01*
X71048512Y-69299197D01*
X71068608Y-69326293D01*
X71085950Y-69355227D01*
X71100374Y-69385723D01*
X71111738Y-69417485D01*
X71119935Y-69450208D01*
X71124885Y-69483577D01*
X71126540Y-69517270D01*
X71126540Y-70629770D01*
X71124885Y-70663463D01*
X71119935Y-70696832D01*
X71111738Y-70729555D01*
X71100374Y-70761317D01*
X71085950Y-70791813D01*
X71068608Y-70820747D01*
X71048512Y-70847843D01*
X71025858Y-70872838D01*
X71000863Y-70895492D01*
X70973767Y-70915588D01*
X70944833Y-70932930D01*
X70914337Y-70947354D01*
X70882575Y-70958718D01*
X70849852Y-70966915D01*
X70816483Y-70971865D01*
X70782790Y-70973520D01*
X70095290Y-70973520D01*
X70061597Y-70971865D01*
X70028228Y-70966915D01*
X69995505Y-70958718D01*
X69963743Y-70947354D01*
X69933247Y-70932930D01*
X69904313Y-70915588D01*
X69877217Y-70895492D01*
X69852222Y-70872838D01*
X69829568Y-70847843D01*
X69809472Y-70820747D01*
X69792130Y-70791813D01*
X69777706Y-70761317D01*
X69766342Y-70729555D01*
X69758145Y-70696832D01*
X69753195Y-70663463D01*
X69751540Y-70629770D01*
X69751540Y-69517270D01*
X69753195Y-69483577D01*
X69758145Y-69450208D01*
X69766342Y-69417485D01*
X69777706Y-69385723D01*
X69792130Y-69355227D01*
X69809472Y-69326293D01*
X69829568Y-69299197D01*
X69852222Y-69274202D01*
X69877217Y-69251548D01*
X69904313Y-69231452D01*
X69933247Y-69214110D01*
X69963743Y-69199686D01*
X69995505Y-69188322D01*
X70028228Y-69180125D01*
X70061597Y-69175175D01*
X70095290Y-69173520D01*
X70782790Y-69173520D01*
X70816483Y-69175175D01*
X70816483Y-69175175D01*
G37*
D12*
X70439040Y-70073520D03*
D11*
G36*
X72691483Y-69175175D02*
X72724852Y-69180125D01*
X72757575Y-69188322D01*
X72789337Y-69199686D01*
X72819833Y-69214110D01*
X72848767Y-69231452D01*
X72875863Y-69251548D01*
X72900858Y-69274202D01*
X72923512Y-69299197D01*
X72943608Y-69326293D01*
X72960950Y-69355227D01*
X72975374Y-69385723D01*
X72986738Y-69417485D01*
X72994935Y-69450208D01*
X72999885Y-69483577D01*
X73001540Y-69517270D01*
X73001540Y-70629770D01*
X72999885Y-70663463D01*
X72994935Y-70696832D01*
X72986738Y-70729555D01*
X72975374Y-70761317D01*
X72960950Y-70791813D01*
X72943608Y-70820747D01*
X72923512Y-70847843D01*
X72900858Y-70872838D01*
X72875863Y-70895492D01*
X72848767Y-70915588D01*
X72819833Y-70932930D01*
X72789337Y-70947354D01*
X72757575Y-70958718D01*
X72724852Y-70966915D01*
X72691483Y-70971865D01*
X72657790Y-70973520D01*
X71970290Y-70973520D01*
X71936597Y-70971865D01*
X71903228Y-70966915D01*
X71870505Y-70958718D01*
X71838743Y-70947354D01*
X71808247Y-70932930D01*
X71779313Y-70915588D01*
X71752217Y-70895492D01*
X71727222Y-70872838D01*
X71704568Y-70847843D01*
X71684472Y-70820747D01*
X71667130Y-70791813D01*
X71652706Y-70761317D01*
X71641342Y-70729555D01*
X71633145Y-70696832D01*
X71628195Y-70663463D01*
X71626540Y-70629770D01*
X71626540Y-69517270D01*
X71628195Y-69483577D01*
X71633145Y-69450208D01*
X71641342Y-69417485D01*
X71652706Y-69385723D01*
X71667130Y-69355227D01*
X71684472Y-69326293D01*
X71704568Y-69299197D01*
X71727222Y-69274202D01*
X71752217Y-69251548D01*
X71779313Y-69231452D01*
X71808247Y-69214110D01*
X71838743Y-69199686D01*
X71870505Y-69188322D01*
X71903228Y-69180125D01*
X71936597Y-69175175D01*
X71970290Y-69173520D01*
X72657790Y-69173520D01*
X72691483Y-69175175D01*
X72691483Y-69175175D01*
G37*
D12*
X72314040Y-70073520D03*
G04 #@! TD*
D11*
G04 #@! TO.C,C13*
G36*
X278676763Y-75288095D02*
X278710132Y-75293045D01*
X278742855Y-75301242D01*
X278774617Y-75312606D01*
X278805113Y-75327030D01*
X278834047Y-75344372D01*
X278861143Y-75364468D01*
X278886138Y-75387122D01*
X278908792Y-75412117D01*
X278928888Y-75439213D01*
X278946230Y-75468147D01*
X278960654Y-75498643D01*
X278972018Y-75530405D01*
X278980215Y-75563128D01*
X278985165Y-75596497D01*
X278986820Y-75630190D01*
X278986820Y-76317690D01*
X278985165Y-76351383D01*
X278980215Y-76384752D01*
X278972018Y-76417475D01*
X278960654Y-76449237D01*
X278946230Y-76479733D01*
X278928888Y-76508667D01*
X278908792Y-76535763D01*
X278886138Y-76560758D01*
X278861143Y-76583412D01*
X278834047Y-76603508D01*
X278805113Y-76620850D01*
X278774617Y-76635274D01*
X278742855Y-76646638D01*
X278710132Y-76654835D01*
X278676763Y-76659785D01*
X278643070Y-76661440D01*
X277530570Y-76661440D01*
X277496877Y-76659785D01*
X277463508Y-76654835D01*
X277430785Y-76646638D01*
X277399023Y-76635274D01*
X277368527Y-76620850D01*
X277339593Y-76603508D01*
X277312497Y-76583412D01*
X277287502Y-76560758D01*
X277264848Y-76535763D01*
X277244752Y-76508667D01*
X277227410Y-76479733D01*
X277212986Y-76449237D01*
X277201622Y-76417475D01*
X277193425Y-76384752D01*
X277188475Y-76351383D01*
X277186820Y-76317690D01*
X277186820Y-75630190D01*
X277188475Y-75596497D01*
X277193425Y-75563128D01*
X277201622Y-75530405D01*
X277212986Y-75498643D01*
X277227410Y-75468147D01*
X277244752Y-75439213D01*
X277264848Y-75412117D01*
X277287502Y-75387122D01*
X277312497Y-75364468D01*
X277339593Y-75344372D01*
X277368527Y-75327030D01*
X277399023Y-75312606D01*
X277430785Y-75301242D01*
X277463508Y-75293045D01*
X277496877Y-75288095D01*
X277530570Y-75286440D01*
X278643070Y-75286440D01*
X278676763Y-75288095D01*
X278676763Y-75288095D01*
G37*
D12*
X278086820Y-75973940D03*
D11*
G36*
X278676763Y-73413095D02*
X278710132Y-73418045D01*
X278742855Y-73426242D01*
X278774617Y-73437606D01*
X278805113Y-73452030D01*
X278834047Y-73469372D01*
X278861143Y-73489468D01*
X278886138Y-73512122D01*
X278908792Y-73537117D01*
X278928888Y-73564213D01*
X278946230Y-73593147D01*
X278960654Y-73623643D01*
X278972018Y-73655405D01*
X278980215Y-73688128D01*
X278985165Y-73721497D01*
X278986820Y-73755190D01*
X278986820Y-74442690D01*
X278985165Y-74476383D01*
X278980215Y-74509752D01*
X278972018Y-74542475D01*
X278960654Y-74574237D01*
X278946230Y-74604733D01*
X278928888Y-74633667D01*
X278908792Y-74660763D01*
X278886138Y-74685758D01*
X278861143Y-74708412D01*
X278834047Y-74728508D01*
X278805113Y-74745850D01*
X278774617Y-74760274D01*
X278742855Y-74771638D01*
X278710132Y-74779835D01*
X278676763Y-74784785D01*
X278643070Y-74786440D01*
X277530570Y-74786440D01*
X277496877Y-74784785D01*
X277463508Y-74779835D01*
X277430785Y-74771638D01*
X277399023Y-74760274D01*
X277368527Y-74745850D01*
X277339593Y-74728508D01*
X277312497Y-74708412D01*
X277287502Y-74685758D01*
X277264848Y-74660763D01*
X277244752Y-74633667D01*
X277227410Y-74604733D01*
X277212986Y-74574237D01*
X277201622Y-74542475D01*
X277193425Y-74509752D01*
X277188475Y-74476383D01*
X277186820Y-74442690D01*
X277186820Y-73755190D01*
X277188475Y-73721497D01*
X277193425Y-73688128D01*
X277201622Y-73655405D01*
X277212986Y-73623643D01*
X277227410Y-73593147D01*
X277244752Y-73564213D01*
X277264848Y-73537117D01*
X277287502Y-73512122D01*
X277312497Y-73489468D01*
X277339593Y-73469372D01*
X277368527Y-73452030D01*
X277399023Y-73437606D01*
X277430785Y-73426242D01*
X277463508Y-73418045D01*
X277496877Y-73413095D01*
X277530570Y-73411440D01*
X278643070Y-73411440D01*
X278676763Y-73413095D01*
X278676763Y-73413095D01*
G37*
D12*
X278086820Y-74098940D03*
G04 #@! TD*
D11*
G04 #@! TO.C,C14*
G36*
X283665943Y-68951655D02*
X283699312Y-68956605D01*
X283732035Y-68964802D01*
X283763797Y-68976166D01*
X283794293Y-68990590D01*
X283823227Y-69007932D01*
X283850323Y-69028028D01*
X283875318Y-69050682D01*
X283897972Y-69075677D01*
X283918068Y-69102773D01*
X283935410Y-69131707D01*
X283949834Y-69162203D01*
X283961198Y-69193965D01*
X283969395Y-69226688D01*
X283974345Y-69260057D01*
X283976000Y-69293750D01*
X283976000Y-70406250D01*
X283974345Y-70439943D01*
X283969395Y-70473312D01*
X283961198Y-70506035D01*
X283949834Y-70537797D01*
X283935410Y-70568293D01*
X283918068Y-70597227D01*
X283897972Y-70624323D01*
X283875318Y-70649318D01*
X283850323Y-70671972D01*
X283823227Y-70692068D01*
X283794293Y-70709410D01*
X283763797Y-70723834D01*
X283732035Y-70735198D01*
X283699312Y-70743395D01*
X283665943Y-70748345D01*
X283632250Y-70750000D01*
X282944750Y-70750000D01*
X282911057Y-70748345D01*
X282877688Y-70743395D01*
X282844965Y-70735198D01*
X282813203Y-70723834D01*
X282782707Y-70709410D01*
X282753773Y-70692068D01*
X282726677Y-70671972D01*
X282701682Y-70649318D01*
X282679028Y-70624323D01*
X282658932Y-70597227D01*
X282641590Y-70568293D01*
X282627166Y-70537797D01*
X282615802Y-70506035D01*
X282607605Y-70473312D01*
X282602655Y-70439943D01*
X282601000Y-70406250D01*
X282601000Y-69293750D01*
X282602655Y-69260057D01*
X282607605Y-69226688D01*
X282615802Y-69193965D01*
X282627166Y-69162203D01*
X282641590Y-69131707D01*
X282658932Y-69102773D01*
X282679028Y-69075677D01*
X282701682Y-69050682D01*
X282726677Y-69028028D01*
X282753773Y-69007932D01*
X282782707Y-68990590D01*
X282813203Y-68976166D01*
X282844965Y-68964802D01*
X282877688Y-68956605D01*
X282911057Y-68951655D01*
X282944750Y-68950000D01*
X283632250Y-68950000D01*
X283665943Y-68951655D01*
X283665943Y-68951655D01*
G37*
D12*
X283288500Y-69850000D03*
D11*
G36*
X285540943Y-68951655D02*
X285574312Y-68956605D01*
X285607035Y-68964802D01*
X285638797Y-68976166D01*
X285669293Y-68990590D01*
X285698227Y-69007932D01*
X285725323Y-69028028D01*
X285750318Y-69050682D01*
X285772972Y-69075677D01*
X285793068Y-69102773D01*
X285810410Y-69131707D01*
X285824834Y-69162203D01*
X285836198Y-69193965D01*
X285844395Y-69226688D01*
X285849345Y-69260057D01*
X285851000Y-69293750D01*
X285851000Y-70406250D01*
X285849345Y-70439943D01*
X285844395Y-70473312D01*
X285836198Y-70506035D01*
X285824834Y-70537797D01*
X285810410Y-70568293D01*
X285793068Y-70597227D01*
X285772972Y-70624323D01*
X285750318Y-70649318D01*
X285725323Y-70671972D01*
X285698227Y-70692068D01*
X285669293Y-70709410D01*
X285638797Y-70723834D01*
X285607035Y-70735198D01*
X285574312Y-70743395D01*
X285540943Y-70748345D01*
X285507250Y-70750000D01*
X284819750Y-70750000D01*
X284786057Y-70748345D01*
X284752688Y-70743395D01*
X284719965Y-70735198D01*
X284688203Y-70723834D01*
X284657707Y-70709410D01*
X284628773Y-70692068D01*
X284601677Y-70671972D01*
X284576682Y-70649318D01*
X284554028Y-70624323D01*
X284533932Y-70597227D01*
X284516590Y-70568293D01*
X284502166Y-70537797D01*
X284490802Y-70506035D01*
X284482605Y-70473312D01*
X284477655Y-70439943D01*
X284476000Y-70406250D01*
X284476000Y-69293750D01*
X284477655Y-69260057D01*
X284482605Y-69226688D01*
X284490802Y-69193965D01*
X284502166Y-69162203D01*
X284516590Y-69131707D01*
X284533932Y-69102773D01*
X284554028Y-69075677D01*
X284576682Y-69050682D01*
X284601677Y-69028028D01*
X284628773Y-69007932D01*
X284657707Y-68990590D01*
X284688203Y-68976166D01*
X284719965Y-68964802D01*
X284752688Y-68956605D01*
X284786057Y-68951655D01*
X284819750Y-68950000D01*
X285507250Y-68950000D01*
X285540943Y-68951655D01*
X285540943Y-68951655D01*
G37*
D12*
X285163500Y-69850000D03*
G04 #@! TD*
D11*
G04 #@! TO.C,C15*
G36*
X302561483Y-69175175D02*
X302594852Y-69180125D01*
X302627575Y-69188322D01*
X302659337Y-69199686D01*
X302689833Y-69214110D01*
X302718767Y-69231452D01*
X302745863Y-69251548D01*
X302770858Y-69274202D01*
X302793512Y-69299197D01*
X302813608Y-69326293D01*
X302830950Y-69355227D01*
X302845374Y-69385723D01*
X302856738Y-69417485D01*
X302864935Y-69450208D01*
X302869885Y-69483577D01*
X302871540Y-69517270D01*
X302871540Y-70629770D01*
X302869885Y-70663463D01*
X302864935Y-70696832D01*
X302856738Y-70729555D01*
X302845374Y-70761317D01*
X302830950Y-70791813D01*
X302813608Y-70820747D01*
X302793512Y-70847843D01*
X302770858Y-70872838D01*
X302745863Y-70895492D01*
X302718767Y-70915588D01*
X302689833Y-70932930D01*
X302659337Y-70947354D01*
X302627575Y-70958718D01*
X302594852Y-70966915D01*
X302561483Y-70971865D01*
X302527790Y-70973520D01*
X301840290Y-70973520D01*
X301806597Y-70971865D01*
X301773228Y-70966915D01*
X301740505Y-70958718D01*
X301708743Y-70947354D01*
X301678247Y-70932930D01*
X301649313Y-70915588D01*
X301622217Y-70895492D01*
X301597222Y-70872838D01*
X301574568Y-70847843D01*
X301554472Y-70820747D01*
X301537130Y-70791813D01*
X301522706Y-70761317D01*
X301511342Y-70729555D01*
X301503145Y-70696832D01*
X301498195Y-70663463D01*
X301496540Y-70629770D01*
X301496540Y-69517270D01*
X301498195Y-69483577D01*
X301503145Y-69450208D01*
X301511342Y-69417485D01*
X301522706Y-69385723D01*
X301537130Y-69355227D01*
X301554472Y-69326293D01*
X301574568Y-69299197D01*
X301597222Y-69274202D01*
X301622217Y-69251548D01*
X301649313Y-69231452D01*
X301678247Y-69214110D01*
X301708743Y-69199686D01*
X301740505Y-69188322D01*
X301773228Y-69180125D01*
X301806597Y-69175175D01*
X301840290Y-69173520D01*
X302527790Y-69173520D01*
X302561483Y-69175175D01*
X302561483Y-69175175D01*
G37*
D12*
X302184040Y-70073520D03*
D11*
G36*
X300686483Y-69175175D02*
X300719852Y-69180125D01*
X300752575Y-69188322D01*
X300784337Y-69199686D01*
X300814833Y-69214110D01*
X300843767Y-69231452D01*
X300870863Y-69251548D01*
X300895858Y-69274202D01*
X300918512Y-69299197D01*
X300938608Y-69326293D01*
X300955950Y-69355227D01*
X300970374Y-69385723D01*
X300981738Y-69417485D01*
X300989935Y-69450208D01*
X300994885Y-69483577D01*
X300996540Y-69517270D01*
X300996540Y-70629770D01*
X300994885Y-70663463D01*
X300989935Y-70696832D01*
X300981738Y-70729555D01*
X300970374Y-70761317D01*
X300955950Y-70791813D01*
X300938608Y-70820747D01*
X300918512Y-70847843D01*
X300895858Y-70872838D01*
X300870863Y-70895492D01*
X300843767Y-70915588D01*
X300814833Y-70932930D01*
X300784337Y-70947354D01*
X300752575Y-70958718D01*
X300719852Y-70966915D01*
X300686483Y-70971865D01*
X300652790Y-70973520D01*
X299965290Y-70973520D01*
X299931597Y-70971865D01*
X299898228Y-70966915D01*
X299865505Y-70958718D01*
X299833743Y-70947354D01*
X299803247Y-70932930D01*
X299774313Y-70915588D01*
X299747217Y-70895492D01*
X299722222Y-70872838D01*
X299699568Y-70847843D01*
X299679472Y-70820747D01*
X299662130Y-70791813D01*
X299647706Y-70761317D01*
X299636342Y-70729555D01*
X299628145Y-70696832D01*
X299623195Y-70663463D01*
X299621540Y-70629770D01*
X299621540Y-69517270D01*
X299623195Y-69483577D01*
X299628145Y-69450208D01*
X299636342Y-69417485D01*
X299647706Y-69385723D01*
X299662130Y-69355227D01*
X299679472Y-69326293D01*
X299699568Y-69299197D01*
X299722222Y-69274202D01*
X299747217Y-69251548D01*
X299774313Y-69231452D01*
X299803247Y-69214110D01*
X299833743Y-69199686D01*
X299865505Y-69188322D01*
X299898228Y-69180125D01*
X299931597Y-69175175D01*
X299965290Y-69173520D01*
X300652790Y-69173520D01*
X300686483Y-69175175D01*
X300686483Y-69175175D01*
G37*
D12*
X300309040Y-70073520D03*
G04 #@! TD*
D10*
G04 #@! TO.C,D15*
X300480657Y-73030280D03*
X300480657Y-74630280D03*
X300480657Y-76230280D03*
X305380657Y-73030280D03*
X305380657Y-74630280D03*
X305380657Y-76230280D03*
G04 #@! TD*
G04 #@! TO.C,D13*
X267147327Y-73030280D03*
X267147327Y-74630280D03*
X267147327Y-76230280D03*
X272047327Y-73030280D03*
X272047327Y-74630280D03*
X272047327Y-76230280D03*
G04 #@! TD*
D11*
G04 #@! TO.C,R13*
G36*
X275936103Y-73413095D02*
X275969472Y-73418045D01*
X276002195Y-73426242D01*
X276033957Y-73437606D01*
X276064453Y-73452030D01*
X276093387Y-73469372D01*
X276120483Y-73489468D01*
X276145478Y-73512122D01*
X276168132Y-73537117D01*
X276188228Y-73564213D01*
X276205570Y-73593147D01*
X276219994Y-73623643D01*
X276231358Y-73655405D01*
X276239555Y-73688128D01*
X276244505Y-73721497D01*
X276246160Y-73755190D01*
X276246160Y-74442690D01*
X276244505Y-74476383D01*
X276239555Y-74509752D01*
X276231358Y-74542475D01*
X276219994Y-74574237D01*
X276205570Y-74604733D01*
X276188228Y-74633667D01*
X276168132Y-74660763D01*
X276145478Y-74685758D01*
X276120483Y-74708412D01*
X276093387Y-74728508D01*
X276064453Y-74745850D01*
X276033957Y-74760274D01*
X276002195Y-74771638D01*
X275969472Y-74779835D01*
X275936103Y-74784785D01*
X275902410Y-74786440D01*
X274789910Y-74786440D01*
X274756217Y-74784785D01*
X274722848Y-74779835D01*
X274690125Y-74771638D01*
X274658363Y-74760274D01*
X274627867Y-74745850D01*
X274598933Y-74728508D01*
X274571837Y-74708412D01*
X274546842Y-74685758D01*
X274524188Y-74660763D01*
X274504092Y-74633667D01*
X274486750Y-74604733D01*
X274472326Y-74574237D01*
X274460962Y-74542475D01*
X274452765Y-74509752D01*
X274447815Y-74476383D01*
X274446160Y-74442690D01*
X274446160Y-73755190D01*
X274447815Y-73721497D01*
X274452765Y-73688128D01*
X274460962Y-73655405D01*
X274472326Y-73623643D01*
X274486750Y-73593147D01*
X274504092Y-73564213D01*
X274524188Y-73537117D01*
X274546842Y-73512122D01*
X274571837Y-73489468D01*
X274598933Y-73469372D01*
X274627867Y-73452030D01*
X274658363Y-73437606D01*
X274690125Y-73426242D01*
X274722848Y-73418045D01*
X274756217Y-73413095D01*
X274789910Y-73411440D01*
X275902410Y-73411440D01*
X275936103Y-73413095D01*
X275936103Y-73413095D01*
G37*
D12*
X275346160Y-74098940D03*
D11*
G36*
X275936103Y-75288095D02*
X275969472Y-75293045D01*
X276002195Y-75301242D01*
X276033957Y-75312606D01*
X276064453Y-75327030D01*
X276093387Y-75344372D01*
X276120483Y-75364468D01*
X276145478Y-75387122D01*
X276168132Y-75412117D01*
X276188228Y-75439213D01*
X276205570Y-75468147D01*
X276219994Y-75498643D01*
X276231358Y-75530405D01*
X276239555Y-75563128D01*
X276244505Y-75596497D01*
X276246160Y-75630190D01*
X276246160Y-76317690D01*
X276244505Y-76351383D01*
X276239555Y-76384752D01*
X276231358Y-76417475D01*
X276219994Y-76449237D01*
X276205570Y-76479733D01*
X276188228Y-76508667D01*
X276168132Y-76535763D01*
X276145478Y-76560758D01*
X276120483Y-76583412D01*
X276093387Y-76603508D01*
X276064453Y-76620850D01*
X276033957Y-76635274D01*
X276002195Y-76646638D01*
X275969472Y-76654835D01*
X275936103Y-76659785D01*
X275902410Y-76661440D01*
X274789910Y-76661440D01*
X274756217Y-76659785D01*
X274722848Y-76654835D01*
X274690125Y-76646638D01*
X274658363Y-76635274D01*
X274627867Y-76620850D01*
X274598933Y-76603508D01*
X274571837Y-76583412D01*
X274546842Y-76560758D01*
X274524188Y-76535763D01*
X274504092Y-76508667D01*
X274486750Y-76479733D01*
X274472326Y-76449237D01*
X274460962Y-76417475D01*
X274452765Y-76384752D01*
X274447815Y-76351383D01*
X274446160Y-76317690D01*
X274446160Y-75630190D01*
X274447815Y-75596497D01*
X274452765Y-75563128D01*
X274460962Y-75530405D01*
X274472326Y-75498643D01*
X274486750Y-75468147D01*
X274504092Y-75439213D01*
X274524188Y-75412117D01*
X274546842Y-75387122D01*
X274571837Y-75364468D01*
X274598933Y-75344372D01*
X274627867Y-75327030D01*
X274658363Y-75312606D01*
X274690125Y-75301242D01*
X274722848Y-75293045D01*
X274756217Y-75288095D01*
X274789910Y-75286440D01*
X275902410Y-75286440D01*
X275936103Y-75288095D01*
X275936103Y-75288095D01*
G37*
D12*
X275346160Y-75973940D03*
G04 #@! TD*
D11*
G04 #@! TO.C,R14*
G36*
X288237943Y-68951655D02*
X288271312Y-68956605D01*
X288304035Y-68964802D01*
X288335797Y-68976166D01*
X288366293Y-68990590D01*
X288395227Y-69007932D01*
X288422323Y-69028028D01*
X288447318Y-69050682D01*
X288469972Y-69075677D01*
X288490068Y-69102773D01*
X288507410Y-69131707D01*
X288521834Y-69162203D01*
X288533198Y-69193965D01*
X288541395Y-69226688D01*
X288546345Y-69260057D01*
X288548000Y-69293750D01*
X288548000Y-70406250D01*
X288546345Y-70439943D01*
X288541395Y-70473312D01*
X288533198Y-70506035D01*
X288521834Y-70537797D01*
X288507410Y-70568293D01*
X288490068Y-70597227D01*
X288469972Y-70624323D01*
X288447318Y-70649318D01*
X288422323Y-70671972D01*
X288395227Y-70692068D01*
X288366293Y-70709410D01*
X288335797Y-70723834D01*
X288304035Y-70735198D01*
X288271312Y-70743395D01*
X288237943Y-70748345D01*
X288204250Y-70750000D01*
X287516750Y-70750000D01*
X287483057Y-70748345D01*
X287449688Y-70743395D01*
X287416965Y-70735198D01*
X287385203Y-70723834D01*
X287354707Y-70709410D01*
X287325773Y-70692068D01*
X287298677Y-70671972D01*
X287273682Y-70649318D01*
X287251028Y-70624323D01*
X287230932Y-70597227D01*
X287213590Y-70568293D01*
X287199166Y-70537797D01*
X287187802Y-70506035D01*
X287179605Y-70473312D01*
X287174655Y-70439943D01*
X287173000Y-70406250D01*
X287173000Y-69293750D01*
X287174655Y-69260057D01*
X287179605Y-69226688D01*
X287187802Y-69193965D01*
X287199166Y-69162203D01*
X287213590Y-69131707D01*
X287230932Y-69102773D01*
X287251028Y-69075677D01*
X287273682Y-69050682D01*
X287298677Y-69028028D01*
X287325773Y-69007932D01*
X287354707Y-68990590D01*
X287385203Y-68976166D01*
X287416965Y-68964802D01*
X287449688Y-68956605D01*
X287483057Y-68951655D01*
X287516750Y-68950000D01*
X288204250Y-68950000D01*
X288237943Y-68951655D01*
X288237943Y-68951655D01*
G37*
D12*
X287860500Y-69850000D03*
D11*
G36*
X290112943Y-68951655D02*
X290146312Y-68956605D01*
X290179035Y-68964802D01*
X290210797Y-68976166D01*
X290241293Y-68990590D01*
X290270227Y-69007932D01*
X290297323Y-69028028D01*
X290322318Y-69050682D01*
X290344972Y-69075677D01*
X290365068Y-69102773D01*
X290382410Y-69131707D01*
X290396834Y-69162203D01*
X290408198Y-69193965D01*
X290416395Y-69226688D01*
X290421345Y-69260057D01*
X290423000Y-69293750D01*
X290423000Y-70406250D01*
X290421345Y-70439943D01*
X290416395Y-70473312D01*
X290408198Y-70506035D01*
X290396834Y-70537797D01*
X290382410Y-70568293D01*
X290365068Y-70597227D01*
X290344972Y-70624323D01*
X290322318Y-70649318D01*
X290297323Y-70671972D01*
X290270227Y-70692068D01*
X290241293Y-70709410D01*
X290210797Y-70723834D01*
X290179035Y-70735198D01*
X290146312Y-70743395D01*
X290112943Y-70748345D01*
X290079250Y-70750000D01*
X289391750Y-70750000D01*
X289358057Y-70748345D01*
X289324688Y-70743395D01*
X289291965Y-70735198D01*
X289260203Y-70723834D01*
X289229707Y-70709410D01*
X289200773Y-70692068D01*
X289173677Y-70671972D01*
X289148682Y-70649318D01*
X289126028Y-70624323D01*
X289105932Y-70597227D01*
X289088590Y-70568293D01*
X289074166Y-70537797D01*
X289062802Y-70506035D01*
X289054605Y-70473312D01*
X289049655Y-70439943D01*
X289048000Y-70406250D01*
X289048000Y-69293750D01*
X289049655Y-69260057D01*
X289054605Y-69226688D01*
X289062802Y-69193965D01*
X289074166Y-69162203D01*
X289088590Y-69131707D01*
X289105932Y-69102773D01*
X289126028Y-69075677D01*
X289148682Y-69050682D01*
X289173677Y-69028028D01*
X289200773Y-69007932D01*
X289229707Y-68990590D01*
X289260203Y-68976166D01*
X289291965Y-68964802D01*
X289324688Y-68956605D01*
X289358057Y-68951655D01*
X289391750Y-68950000D01*
X290079250Y-68950000D01*
X290112943Y-68951655D01*
X290112943Y-68951655D01*
G37*
D12*
X289735500Y-69850000D03*
G04 #@! TD*
D11*
G04 #@! TO.C,R15*
G36*
X306371483Y-69175175D02*
X306404852Y-69180125D01*
X306437575Y-69188322D01*
X306469337Y-69199686D01*
X306499833Y-69214110D01*
X306528767Y-69231452D01*
X306555863Y-69251548D01*
X306580858Y-69274202D01*
X306603512Y-69299197D01*
X306623608Y-69326293D01*
X306640950Y-69355227D01*
X306655374Y-69385723D01*
X306666738Y-69417485D01*
X306674935Y-69450208D01*
X306679885Y-69483577D01*
X306681540Y-69517270D01*
X306681540Y-70629770D01*
X306679885Y-70663463D01*
X306674935Y-70696832D01*
X306666738Y-70729555D01*
X306655374Y-70761317D01*
X306640950Y-70791813D01*
X306623608Y-70820747D01*
X306603512Y-70847843D01*
X306580858Y-70872838D01*
X306555863Y-70895492D01*
X306528767Y-70915588D01*
X306499833Y-70932930D01*
X306469337Y-70947354D01*
X306437575Y-70958718D01*
X306404852Y-70966915D01*
X306371483Y-70971865D01*
X306337790Y-70973520D01*
X305650290Y-70973520D01*
X305616597Y-70971865D01*
X305583228Y-70966915D01*
X305550505Y-70958718D01*
X305518743Y-70947354D01*
X305488247Y-70932930D01*
X305459313Y-70915588D01*
X305432217Y-70895492D01*
X305407222Y-70872838D01*
X305384568Y-70847843D01*
X305364472Y-70820747D01*
X305347130Y-70791813D01*
X305332706Y-70761317D01*
X305321342Y-70729555D01*
X305313145Y-70696832D01*
X305308195Y-70663463D01*
X305306540Y-70629770D01*
X305306540Y-69517270D01*
X305308195Y-69483577D01*
X305313145Y-69450208D01*
X305321342Y-69417485D01*
X305332706Y-69385723D01*
X305347130Y-69355227D01*
X305364472Y-69326293D01*
X305384568Y-69299197D01*
X305407222Y-69274202D01*
X305432217Y-69251548D01*
X305459313Y-69231452D01*
X305488247Y-69214110D01*
X305518743Y-69199686D01*
X305550505Y-69188322D01*
X305583228Y-69180125D01*
X305616597Y-69175175D01*
X305650290Y-69173520D01*
X306337790Y-69173520D01*
X306371483Y-69175175D01*
X306371483Y-69175175D01*
G37*
D12*
X305994040Y-70073520D03*
D11*
G36*
X304496483Y-69175175D02*
X304529852Y-69180125D01*
X304562575Y-69188322D01*
X304594337Y-69199686D01*
X304624833Y-69214110D01*
X304653767Y-69231452D01*
X304680863Y-69251548D01*
X304705858Y-69274202D01*
X304728512Y-69299197D01*
X304748608Y-69326293D01*
X304765950Y-69355227D01*
X304780374Y-69385723D01*
X304791738Y-69417485D01*
X304799935Y-69450208D01*
X304804885Y-69483577D01*
X304806540Y-69517270D01*
X304806540Y-70629770D01*
X304804885Y-70663463D01*
X304799935Y-70696832D01*
X304791738Y-70729555D01*
X304780374Y-70761317D01*
X304765950Y-70791813D01*
X304748608Y-70820747D01*
X304728512Y-70847843D01*
X304705858Y-70872838D01*
X304680863Y-70895492D01*
X304653767Y-70915588D01*
X304624833Y-70932930D01*
X304594337Y-70947354D01*
X304562575Y-70958718D01*
X304529852Y-70966915D01*
X304496483Y-70971865D01*
X304462790Y-70973520D01*
X303775290Y-70973520D01*
X303741597Y-70971865D01*
X303708228Y-70966915D01*
X303675505Y-70958718D01*
X303643743Y-70947354D01*
X303613247Y-70932930D01*
X303584313Y-70915588D01*
X303557217Y-70895492D01*
X303532222Y-70872838D01*
X303509568Y-70847843D01*
X303489472Y-70820747D01*
X303472130Y-70791813D01*
X303457706Y-70761317D01*
X303446342Y-70729555D01*
X303438145Y-70696832D01*
X303433195Y-70663463D01*
X303431540Y-70629770D01*
X303431540Y-69517270D01*
X303433195Y-69483577D01*
X303438145Y-69450208D01*
X303446342Y-69417485D01*
X303457706Y-69385723D01*
X303472130Y-69355227D01*
X303489472Y-69326293D01*
X303509568Y-69299197D01*
X303532222Y-69274202D01*
X303557217Y-69251548D01*
X303584313Y-69231452D01*
X303613247Y-69214110D01*
X303643743Y-69199686D01*
X303675505Y-69188322D01*
X303708228Y-69180125D01*
X303741597Y-69175175D01*
X303775290Y-69173520D01*
X304462790Y-69173520D01*
X304496483Y-69175175D01*
X304496483Y-69175175D01*
G37*
D12*
X304119040Y-70073520D03*
G04 #@! TD*
D13*
G04 #@! TO.C,J1*
X57861200Y-76636880D03*
X57861200Y-74604880D03*
X57861200Y-72572880D03*
G04 #@! TD*
D11*
G04 #@! TO.C,C8*
G36*
X195015395Y-73413095D02*
X195048764Y-73418045D01*
X195081487Y-73426242D01*
X195113249Y-73437606D01*
X195143745Y-73452030D01*
X195172679Y-73469372D01*
X195199775Y-73489468D01*
X195224770Y-73512122D01*
X195247424Y-73537117D01*
X195267520Y-73564213D01*
X195284862Y-73593147D01*
X195299286Y-73623643D01*
X195310650Y-73655405D01*
X195318847Y-73688128D01*
X195323797Y-73721497D01*
X195325452Y-73755190D01*
X195325452Y-74442690D01*
X195323797Y-74476383D01*
X195318847Y-74509752D01*
X195310650Y-74542475D01*
X195299286Y-74574237D01*
X195284862Y-74604733D01*
X195267520Y-74633667D01*
X195247424Y-74660763D01*
X195224770Y-74685758D01*
X195199775Y-74708412D01*
X195172679Y-74728508D01*
X195143745Y-74745850D01*
X195113249Y-74760274D01*
X195081487Y-74771638D01*
X195048764Y-74779835D01*
X195015395Y-74784785D01*
X194981702Y-74786440D01*
X193869202Y-74786440D01*
X193835509Y-74784785D01*
X193802140Y-74779835D01*
X193769417Y-74771638D01*
X193737655Y-74760274D01*
X193707159Y-74745850D01*
X193678225Y-74728508D01*
X193651129Y-74708412D01*
X193626134Y-74685758D01*
X193603480Y-74660763D01*
X193583384Y-74633667D01*
X193566042Y-74604733D01*
X193551618Y-74574237D01*
X193540254Y-74542475D01*
X193532057Y-74509752D01*
X193527107Y-74476383D01*
X193525452Y-74442690D01*
X193525452Y-73755190D01*
X193527107Y-73721497D01*
X193532057Y-73688128D01*
X193540254Y-73655405D01*
X193551618Y-73623643D01*
X193566042Y-73593147D01*
X193583384Y-73564213D01*
X193603480Y-73537117D01*
X193626134Y-73512122D01*
X193651129Y-73489468D01*
X193678225Y-73469372D01*
X193707159Y-73452030D01*
X193737655Y-73437606D01*
X193769417Y-73426242D01*
X193802140Y-73418045D01*
X193835509Y-73413095D01*
X193869202Y-73411440D01*
X194981702Y-73411440D01*
X195015395Y-73413095D01*
X195015395Y-73413095D01*
G37*
D12*
X194425452Y-74098940D03*
D11*
G36*
X195015395Y-75288095D02*
X195048764Y-75293045D01*
X195081487Y-75301242D01*
X195113249Y-75312606D01*
X195143745Y-75327030D01*
X195172679Y-75344372D01*
X195199775Y-75364468D01*
X195224770Y-75387122D01*
X195247424Y-75412117D01*
X195267520Y-75439213D01*
X195284862Y-75468147D01*
X195299286Y-75498643D01*
X195310650Y-75530405D01*
X195318847Y-75563128D01*
X195323797Y-75596497D01*
X195325452Y-75630190D01*
X195325452Y-76317690D01*
X195323797Y-76351383D01*
X195318847Y-76384752D01*
X195310650Y-76417475D01*
X195299286Y-76449237D01*
X195284862Y-76479733D01*
X195267520Y-76508667D01*
X195247424Y-76535763D01*
X195224770Y-76560758D01*
X195199775Y-76583412D01*
X195172679Y-76603508D01*
X195143745Y-76620850D01*
X195113249Y-76635274D01*
X195081487Y-76646638D01*
X195048764Y-76654835D01*
X195015395Y-76659785D01*
X194981702Y-76661440D01*
X193869202Y-76661440D01*
X193835509Y-76659785D01*
X193802140Y-76654835D01*
X193769417Y-76646638D01*
X193737655Y-76635274D01*
X193707159Y-76620850D01*
X193678225Y-76603508D01*
X193651129Y-76583412D01*
X193626134Y-76560758D01*
X193603480Y-76535763D01*
X193583384Y-76508667D01*
X193566042Y-76479733D01*
X193551618Y-76449237D01*
X193540254Y-76417475D01*
X193532057Y-76384752D01*
X193527107Y-76351383D01*
X193525452Y-76317690D01*
X193525452Y-75630190D01*
X193527107Y-75596497D01*
X193532057Y-75563128D01*
X193540254Y-75530405D01*
X193551618Y-75498643D01*
X193566042Y-75468147D01*
X193583384Y-75439213D01*
X193603480Y-75412117D01*
X193626134Y-75387122D01*
X193651129Y-75364468D01*
X193678225Y-75344372D01*
X193707159Y-75327030D01*
X193737655Y-75312606D01*
X193769417Y-75301242D01*
X193802140Y-75293045D01*
X193835509Y-75288095D01*
X193869202Y-75286440D01*
X194981702Y-75286440D01*
X195015395Y-75288095D01*
X195015395Y-75288095D01*
G37*
D12*
X194425452Y-75973940D03*
G04 #@! TD*
D11*
G04 #@! TO.C,C9*
G36*
X200102483Y-69429175D02*
X200135852Y-69434125D01*
X200168575Y-69442322D01*
X200200337Y-69453686D01*
X200230833Y-69468110D01*
X200259767Y-69485452D01*
X200286863Y-69505548D01*
X200311858Y-69528202D01*
X200334512Y-69553197D01*
X200354608Y-69580293D01*
X200371950Y-69609227D01*
X200386374Y-69639723D01*
X200397738Y-69671485D01*
X200405935Y-69704208D01*
X200410885Y-69737577D01*
X200412540Y-69771270D01*
X200412540Y-70883770D01*
X200410885Y-70917463D01*
X200405935Y-70950832D01*
X200397738Y-70983555D01*
X200386374Y-71015317D01*
X200371950Y-71045813D01*
X200354608Y-71074747D01*
X200334512Y-71101843D01*
X200311858Y-71126838D01*
X200286863Y-71149492D01*
X200259767Y-71169588D01*
X200230833Y-71186930D01*
X200200337Y-71201354D01*
X200168575Y-71212718D01*
X200135852Y-71220915D01*
X200102483Y-71225865D01*
X200068790Y-71227520D01*
X199381290Y-71227520D01*
X199347597Y-71225865D01*
X199314228Y-71220915D01*
X199281505Y-71212718D01*
X199249743Y-71201354D01*
X199219247Y-71186930D01*
X199190313Y-71169588D01*
X199163217Y-71149492D01*
X199138222Y-71126838D01*
X199115568Y-71101843D01*
X199095472Y-71074747D01*
X199078130Y-71045813D01*
X199063706Y-71015317D01*
X199052342Y-70983555D01*
X199044145Y-70950832D01*
X199039195Y-70917463D01*
X199037540Y-70883770D01*
X199037540Y-69771270D01*
X199039195Y-69737577D01*
X199044145Y-69704208D01*
X199052342Y-69671485D01*
X199063706Y-69639723D01*
X199078130Y-69609227D01*
X199095472Y-69580293D01*
X199115568Y-69553197D01*
X199138222Y-69528202D01*
X199163217Y-69505548D01*
X199190313Y-69485452D01*
X199219247Y-69468110D01*
X199249743Y-69453686D01*
X199281505Y-69442322D01*
X199314228Y-69434125D01*
X199347597Y-69429175D01*
X199381290Y-69427520D01*
X200068790Y-69427520D01*
X200102483Y-69429175D01*
X200102483Y-69429175D01*
G37*
D12*
X199725040Y-70327520D03*
D11*
G36*
X201977483Y-69429175D02*
X202010852Y-69434125D01*
X202043575Y-69442322D01*
X202075337Y-69453686D01*
X202105833Y-69468110D01*
X202134767Y-69485452D01*
X202161863Y-69505548D01*
X202186858Y-69528202D01*
X202209512Y-69553197D01*
X202229608Y-69580293D01*
X202246950Y-69609227D01*
X202261374Y-69639723D01*
X202272738Y-69671485D01*
X202280935Y-69704208D01*
X202285885Y-69737577D01*
X202287540Y-69771270D01*
X202287540Y-70883770D01*
X202285885Y-70917463D01*
X202280935Y-70950832D01*
X202272738Y-70983555D01*
X202261374Y-71015317D01*
X202246950Y-71045813D01*
X202229608Y-71074747D01*
X202209512Y-71101843D01*
X202186858Y-71126838D01*
X202161863Y-71149492D01*
X202134767Y-71169588D01*
X202105833Y-71186930D01*
X202075337Y-71201354D01*
X202043575Y-71212718D01*
X202010852Y-71220915D01*
X201977483Y-71225865D01*
X201943790Y-71227520D01*
X201256290Y-71227520D01*
X201222597Y-71225865D01*
X201189228Y-71220915D01*
X201156505Y-71212718D01*
X201124743Y-71201354D01*
X201094247Y-71186930D01*
X201065313Y-71169588D01*
X201038217Y-71149492D01*
X201013222Y-71126838D01*
X200990568Y-71101843D01*
X200970472Y-71074747D01*
X200953130Y-71045813D01*
X200938706Y-71015317D01*
X200927342Y-70983555D01*
X200919145Y-70950832D01*
X200914195Y-70917463D01*
X200912540Y-70883770D01*
X200912540Y-69771270D01*
X200914195Y-69737577D01*
X200919145Y-69704208D01*
X200927342Y-69671485D01*
X200938706Y-69639723D01*
X200953130Y-69609227D01*
X200970472Y-69580293D01*
X200990568Y-69553197D01*
X201013222Y-69528202D01*
X201038217Y-69505548D01*
X201065313Y-69485452D01*
X201094247Y-69468110D01*
X201124743Y-69453686D01*
X201156505Y-69442322D01*
X201189228Y-69434125D01*
X201222597Y-69429175D01*
X201256290Y-69427520D01*
X201943790Y-69427520D01*
X201977483Y-69429175D01*
X201977483Y-69429175D01*
G37*
D12*
X201600040Y-70327520D03*
G04 #@! TD*
D11*
G04 #@! TO.C,C10*
G36*
X228307867Y-73413095D02*
X228341236Y-73418045D01*
X228373959Y-73426242D01*
X228405721Y-73437606D01*
X228436217Y-73452030D01*
X228465151Y-73469372D01*
X228492247Y-73489468D01*
X228517242Y-73512122D01*
X228539896Y-73537117D01*
X228559992Y-73564213D01*
X228577334Y-73593147D01*
X228591758Y-73623643D01*
X228603122Y-73655405D01*
X228611319Y-73688128D01*
X228616269Y-73721497D01*
X228617924Y-73755190D01*
X228617924Y-74442690D01*
X228616269Y-74476383D01*
X228611319Y-74509752D01*
X228603122Y-74542475D01*
X228591758Y-74574237D01*
X228577334Y-74604733D01*
X228559992Y-74633667D01*
X228539896Y-74660763D01*
X228517242Y-74685758D01*
X228492247Y-74708412D01*
X228465151Y-74728508D01*
X228436217Y-74745850D01*
X228405721Y-74760274D01*
X228373959Y-74771638D01*
X228341236Y-74779835D01*
X228307867Y-74784785D01*
X228274174Y-74786440D01*
X227161674Y-74786440D01*
X227127981Y-74784785D01*
X227094612Y-74779835D01*
X227061889Y-74771638D01*
X227030127Y-74760274D01*
X226999631Y-74745850D01*
X226970697Y-74728508D01*
X226943601Y-74708412D01*
X226918606Y-74685758D01*
X226895952Y-74660763D01*
X226875856Y-74633667D01*
X226858514Y-74604733D01*
X226844090Y-74574237D01*
X226832726Y-74542475D01*
X226824529Y-74509752D01*
X226819579Y-74476383D01*
X226817924Y-74442690D01*
X226817924Y-73755190D01*
X226819579Y-73721497D01*
X226824529Y-73688128D01*
X226832726Y-73655405D01*
X226844090Y-73623643D01*
X226858514Y-73593147D01*
X226875856Y-73564213D01*
X226895952Y-73537117D01*
X226918606Y-73512122D01*
X226943601Y-73489468D01*
X226970697Y-73469372D01*
X226999631Y-73452030D01*
X227030127Y-73437606D01*
X227061889Y-73426242D01*
X227094612Y-73418045D01*
X227127981Y-73413095D01*
X227161674Y-73411440D01*
X228274174Y-73411440D01*
X228307867Y-73413095D01*
X228307867Y-73413095D01*
G37*
D12*
X227717924Y-74098940D03*
D11*
G36*
X228307867Y-75288095D02*
X228341236Y-75293045D01*
X228373959Y-75301242D01*
X228405721Y-75312606D01*
X228436217Y-75327030D01*
X228465151Y-75344372D01*
X228492247Y-75364468D01*
X228517242Y-75387122D01*
X228539896Y-75412117D01*
X228559992Y-75439213D01*
X228577334Y-75468147D01*
X228591758Y-75498643D01*
X228603122Y-75530405D01*
X228611319Y-75563128D01*
X228616269Y-75596497D01*
X228617924Y-75630190D01*
X228617924Y-76317690D01*
X228616269Y-76351383D01*
X228611319Y-76384752D01*
X228603122Y-76417475D01*
X228591758Y-76449237D01*
X228577334Y-76479733D01*
X228559992Y-76508667D01*
X228539896Y-76535763D01*
X228517242Y-76560758D01*
X228492247Y-76583412D01*
X228465151Y-76603508D01*
X228436217Y-76620850D01*
X228405721Y-76635274D01*
X228373959Y-76646638D01*
X228341236Y-76654835D01*
X228307867Y-76659785D01*
X228274174Y-76661440D01*
X227161674Y-76661440D01*
X227127981Y-76659785D01*
X227094612Y-76654835D01*
X227061889Y-76646638D01*
X227030127Y-76635274D01*
X226999631Y-76620850D01*
X226970697Y-76603508D01*
X226943601Y-76583412D01*
X226918606Y-76560758D01*
X226895952Y-76535763D01*
X226875856Y-76508667D01*
X226858514Y-76479733D01*
X226844090Y-76449237D01*
X226832726Y-76417475D01*
X226824529Y-76384752D01*
X226819579Y-76351383D01*
X226817924Y-76317690D01*
X226817924Y-75630190D01*
X226819579Y-75596497D01*
X226824529Y-75563128D01*
X226832726Y-75530405D01*
X226844090Y-75498643D01*
X226858514Y-75468147D01*
X226875856Y-75439213D01*
X226895952Y-75412117D01*
X226918606Y-75387122D01*
X226943601Y-75364468D01*
X226970697Y-75344372D01*
X226999631Y-75327030D01*
X227030127Y-75312606D01*
X227061889Y-75301242D01*
X227094612Y-75293045D01*
X227127981Y-75288095D01*
X227161674Y-75286440D01*
X228274174Y-75286440D01*
X228307867Y-75288095D01*
X228307867Y-75288095D01*
G37*
D12*
X227717924Y-75973940D03*
G04 #@! TD*
D11*
G04 #@! TO.C,C11*
G36*
X244954103Y-73413095D02*
X244987472Y-73418045D01*
X245020195Y-73426242D01*
X245051957Y-73437606D01*
X245082453Y-73452030D01*
X245111387Y-73469372D01*
X245138483Y-73489468D01*
X245163478Y-73512122D01*
X245186132Y-73537117D01*
X245206228Y-73564213D01*
X245223570Y-73593147D01*
X245237994Y-73623643D01*
X245249358Y-73655405D01*
X245257555Y-73688128D01*
X245262505Y-73721497D01*
X245264160Y-73755190D01*
X245264160Y-74442690D01*
X245262505Y-74476383D01*
X245257555Y-74509752D01*
X245249358Y-74542475D01*
X245237994Y-74574237D01*
X245223570Y-74604733D01*
X245206228Y-74633667D01*
X245186132Y-74660763D01*
X245163478Y-74685758D01*
X245138483Y-74708412D01*
X245111387Y-74728508D01*
X245082453Y-74745850D01*
X245051957Y-74760274D01*
X245020195Y-74771638D01*
X244987472Y-74779835D01*
X244954103Y-74784785D01*
X244920410Y-74786440D01*
X243807910Y-74786440D01*
X243774217Y-74784785D01*
X243740848Y-74779835D01*
X243708125Y-74771638D01*
X243676363Y-74760274D01*
X243645867Y-74745850D01*
X243616933Y-74728508D01*
X243589837Y-74708412D01*
X243564842Y-74685758D01*
X243542188Y-74660763D01*
X243522092Y-74633667D01*
X243504750Y-74604733D01*
X243490326Y-74574237D01*
X243478962Y-74542475D01*
X243470765Y-74509752D01*
X243465815Y-74476383D01*
X243464160Y-74442690D01*
X243464160Y-73755190D01*
X243465815Y-73721497D01*
X243470765Y-73688128D01*
X243478962Y-73655405D01*
X243490326Y-73623643D01*
X243504750Y-73593147D01*
X243522092Y-73564213D01*
X243542188Y-73537117D01*
X243564842Y-73512122D01*
X243589837Y-73489468D01*
X243616933Y-73469372D01*
X243645867Y-73452030D01*
X243676363Y-73437606D01*
X243708125Y-73426242D01*
X243740848Y-73418045D01*
X243774217Y-73413095D01*
X243807910Y-73411440D01*
X244920410Y-73411440D01*
X244954103Y-73413095D01*
X244954103Y-73413095D01*
G37*
D12*
X244364160Y-74098940D03*
D11*
G36*
X244954103Y-75288095D02*
X244987472Y-75293045D01*
X245020195Y-75301242D01*
X245051957Y-75312606D01*
X245082453Y-75327030D01*
X245111387Y-75344372D01*
X245138483Y-75364468D01*
X245163478Y-75387122D01*
X245186132Y-75412117D01*
X245206228Y-75439213D01*
X245223570Y-75468147D01*
X245237994Y-75498643D01*
X245249358Y-75530405D01*
X245257555Y-75563128D01*
X245262505Y-75596497D01*
X245264160Y-75630190D01*
X245264160Y-76317690D01*
X245262505Y-76351383D01*
X245257555Y-76384752D01*
X245249358Y-76417475D01*
X245237994Y-76449237D01*
X245223570Y-76479733D01*
X245206228Y-76508667D01*
X245186132Y-76535763D01*
X245163478Y-76560758D01*
X245138483Y-76583412D01*
X245111387Y-76603508D01*
X245082453Y-76620850D01*
X245051957Y-76635274D01*
X245020195Y-76646638D01*
X244987472Y-76654835D01*
X244954103Y-76659785D01*
X244920410Y-76661440D01*
X243807910Y-76661440D01*
X243774217Y-76659785D01*
X243740848Y-76654835D01*
X243708125Y-76646638D01*
X243676363Y-76635274D01*
X243645867Y-76620850D01*
X243616933Y-76603508D01*
X243589837Y-76583412D01*
X243564842Y-76560758D01*
X243542188Y-76535763D01*
X243522092Y-76508667D01*
X243504750Y-76479733D01*
X243490326Y-76449237D01*
X243478962Y-76417475D01*
X243470765Y-76384752D01*
X243465815Y-76351383D01*
X243464160Y-76317690D01*
X243464160Y-75630190D01*
X243465815Y-75596497D01*
X243470765Y-75563128D01*
X243478962Y-75530405D01*
X243490326Y-75498643D01*
X243504750Y-75468147D01*
X243522092Y-75439213D01*
X243542188Y-75412117D01*
X243564842Y-75387122D01*
X243589837Y-75364468D01*
X243616933Y-75344372D01*
X243645867Y-75327030D01*
X243676363Y-75312606D01*
X243708125Y-75301242D01*
X243740848Y-75293045D01*
X243774217Y-75288095D01*
X243807910Y-75286440D01*
X244920410Y-75286440D01*
X244954103Y-75288095D01*
X244954103Y-75288095D01*
G37*
D12*
X244364160Y-75973940D03*
G04 #@! TD*
D11*
G04 #@! TO.C,C12*
G36*
X262055243Y-73413095D02*
X262088612Y-73418045D01*
X262121335Y-73426242D01*
X262153097Y-73437606D01*
X262183593Y-73452030D01*
X262212527Y-73469372D01*
X262239623Y-73489468D01*
X262264618Y-73512122D01*
X262287272Y-73537117D01*
X262307368Y-73564213D01*
X262324710Y-73593147D01*
X262339134Y-73623643D01*
X262350498Y-73655405D01*
X262358695Y-73688128D01*
X262363645Y-73721497D01*
X262365300Y-73755190D01*
X262365300Y-74442690D01*
X262363645Y-74476383D01*
X262358695Y-74509752D01*
X262350498Y-74542475D01*
X262339134Y-74574237D01*
X262324710Y-74604733D01*
X262307368Y-74633667D01*
X262287272Y-74660763D01*
X262264618Y-74685758D01*
X262239623Y-74708412D01*
X262212527Y-74728508D01*
X262183593Y-74745850D01*
X262153097Y-74760274D01*
X262121335Y-74771638D01*
X262088612Y-74779835D01*
X262055243Y-74784785D01*
X262021550Y-74786440D01*
X260909050Y-74786440D01*
X260875357Y-74784785D01*
X260841988Y-74779835D01*
X260809265Y-74771638D01*
X260777503Y-74760274D01*
X260747007Y-74745850D01*
X260718073Y-74728508D01*
X260690977Y-74708412D01*
X260665982Y-74685758D01*
X260643328Y-74660763D01*
X260623232Y-74633667D01*
X260605890Y-74604733D01*
X260591466Y-74574237D01*
X260580102Y-74542475D01*
X260571905Y-74509752D01*
X260566955Y-74476383D01*
X260565300Y-74442690D01*
X260565300Y-73755190D01*
X260566955Y-73721497D01*
X260571905Y-73688128D01*
X260580102Y-73655405D01*
X260591466Y-73623643D01*
X260605890Y-73593147D01*
X260623232Y-73564213D01*
X260643328Y-73537117D01*
X260665982Y-73512122D01*
X260690977Y-73489468D01*
X260718073Y-73469372D01*
X260747007Y-73452030D01*
X260777503Y-73437606D01*
X260809265Y-73426242D01*
X260841988Y-73418045D01*
X260875357Y-73413095D01*
X260909050Y-73411440D01*
X262021550Y-73411440D01*
X262055243Y-73413095D01*
X262055243Y-73413095D01*
G37*
D12*
X261465300Y-74098940D03*
D11*
G36*
X262055243Y-75288095D02*
X262088612Y-75293045D01*
X262121335Y-75301242D01*
X262153097Y-75312606D01*
X262183593Y-75327030D01*
X262212527Y-75344372D01*
X262239623Y-75364468D01*
X262264618Y-75387122D01*
X262287272Y-75412117D01*
X262307368Y-75439213D01*
X262324710Y-75468147D01*
X262339134Y-75498643D01*
X262350498Y-75530405D01*
X262358695Y-75563128D01*
X262363645Y-75596497D01*
X262365300Y-75630190D01*
X262365300Y-76317690D01*
X262363645Y-76351383D01*
X262358695Y-76384752D01*
X262350498Y-76417475D01*
X262339134Y-76449237D01*
X262324710Y-76479733D01*
X262307368Y-76508667D01*
X262287272Y-76535763D01*
X262264618Y-76560758D01*
X262239623Y-76583412D01*
X262212527Y-76603508D01*
X262183593Y-76620850D01*
X262153097Y-76635274D01*
X262121335Y-76646638D01*
X262088612Y-76654835D01*
X262055243Y-76659785D01*
X262021550Y-76661440D01*
X260909050Y-76661440D01*
X260875357Y-76659785D01*
X260841988Y-76654835D01*
X260809265Y-76646638D01*
X260777503Y-76635274D01*
X260747007Y-76620850D01*
X260718073Y-76603508D01*
X260690977Y-76583412D01*
X260665982Y-76560758D01*
X260643328Y-76535763D01*
X260623232Y-76508667D01*
X260605890Y-76479733D01*
X260591466Y-76449237D01*
X260580102Y-76417475D01*
X260571905Y-76384752D01*
X260566955Y-76351383D01*
X260565300Y-76317690D01*
X260565300Y-75630190D01*
X260566955Y-75596497D01*
X260571905Y-75563128D01*
X260580102Y-75530405D01*
X260591466Y-75498643D01*
X260605890Y-75468147D01*
X260623232Y-75439213D01*
X260643328Y-75412117D01*
X260665982Y-75387122D01*
X260690977Y-75364468D01*
X260718073Y-75344372D01*
X260747007Y-75327030D01*
X260777503Y-75312606D01*
X260809265Y-75301242D01*
X260841988Y-75293045D01*
X260875357Y-75288095D01*
X260909050Y-75286440D01*
X262021550Y-75286440D01*
X262055243Y-75288095D01*
X262055243Y-75288095D01*
G37*
D12*
X261465300Y-75973940D03*
G04 #@! TD*
D10*
G04 #@! TO.C,D1*
X72056160Y-76230280D03*
X72056160Y-74630280D03*
X72056160Y-73030280D03*
X67156160Y-76230280D03*
X67156160Y-74630280D03*
X67156160Y-73030280D03*
G04 #@! TD*
G04 #@! TO.C,D2*
X88722023Y-76230280D03*
X88722023Y-74630280D03*
X88722023Y-73030280D03*
X83822023Y-76230280D03*
X83822023Y-74630280D03*
X83822023Y-73030280D03*
G04 #@! TD*
G04 #@! TO.C,D12*
X255380660Y-76230280D03*
X255380660Y-74630280D03*
X255380660Y-73030280D03*
X250480660Y-76230280D03*
X250480660Y-74630280D03*
X250480660Y-73030280D03*
G04 #@! TD*
G04 #@! TO.C,D11*
X238714790Y-76230280D03*
X238714790Y-74630280D03*
X238714790Y-73030280D03*
X233814790Y-76230280D03*
X233814790Y-74630280D03*
X233814790Y-73030280D03*
G04 #@! TD*
G04 #@! TO.C,D10*
X222048927Y-76230280D03*
X222048927Y-74630280D03*
X222048927Y-73030280D03*
X217148927Y-76230280D03*
X217148927Y-74630280D03*
X217148927Y-73030280D03*
G04 #@! TD*
G04 #@! TO.C,D9*
X205383064Y-76230280D03*
X205383064Y-74630280D03*
X205383064Y-73030280D03*
X200483064Y-76230280D03*
X200483064Y-74630280D03*
X200483064Y-73030280D03*
G04 #@! TD*
G04 #@! TO.C,D8*
X188717201Y-76230280D03*
X188717201Y-74630280D03*
X188717201Y-73030280D03*
X183817201Y-76230280D03*
X183817201Y-74630280D03*
X183817201Y-73030280D03*
G04 #@! TD*
G04 #@! TO.C,D7*
X172051338Y-76230280D03*
X172051338Y-74630280D03*
X172051338Y-73030280D03*
X167151338Y-76230280D03*
X167151338Y-74630280D03*
X167151338Y-73030280D03*
G04 #@! TD*
G04 #@! TO.C,D6*
X155385475Y-76230280D03*
X155385475Y-74630280D03*
X155385475Y-73030280D03*
X150485475Y-76230280D03*
X150485475Y-74630280D03*
X150485475Y-73030280D03*
G04 #@! TD*
G04 #@! TO.C,D5*
X138719612Y-76230280D03*
X138719612Y-74630280D03*
X138719612Y-73030280D03*
X133819612Y-76230280D03*
X133819612Y-74630280D03*
X133819612Y-73030280D03*
G04 #@! TD*
G04 #@! TO.C,D4*
X122053749Y-76230280D03*
X122053749Y-74630280D03*
X122053749Y-73030280D03*
X117153749Y-76230280D03*
X117153749Y-74630280D03*
X117153749Y-73030280D03*
G04 #@! TD*
G04 #@! TO.C,D3*
X105387886Y-76230280D03*
X105387886Y-74630280D03*
X105387886Y-73030280D03*
X100487886Y-76230280D03*
X100487886Y-74630280D03*
X100487886Y-73030280D03*
G04 #@! TD*
D11*
G04 #@! TO.C,R2*
G36*
X92343979Y-75288095D02*
X92377348Y-75293045D01*
X92410071Y-75301242D01*
X92441833Y-75312606D01*
X92472329Y-75327030D01*
X92501263Y-75344372D01*
X92528359Y-75364468D01*
X92553354Y-75387122D01*
X92576008Y-75412117D01*
X92596104Y-75439213D01*
X92613446Y-75468147D01*
X92627870Y-75498643D01*
X92639234Y-75530405D01*
X92647431Y-75563128D01*
X92652381Y-75596497D01*
X92654036Y-75630190D01*
X92654036Y-76317690D01*
X92652381Y-76351383D01*
X92647431Y-76384752D01*
X92639234Y-76417475D01*
X92627870Y-76449237D01*
X92613446Y-76479733D01*
X92596104Y-76508667D01*
X92576008Y-76535763D01*
X92553354Y-76560758D01*
X92528359Y-76583412D01*
X92501263Y-76603508D01*
X92472329Y-76620850D01*
X92441833Y-76635274D01*
X92410071Y-76646638D01*
X92377348Y-76654835D01*
X92343979Y-76659785D01*
X92310286Y-76661440D01*
X91197786Y-76661440D01*
X91164093Y-76659785D01*
X91130724Y-76654835D01*
X91098001Y-76646638D01*
X91066239Y-76635274D01*
X91035743Y-76620850D01*
X91006809Y-76603508D01*
X90979713Y-76583412D01*
X90954718Y-76560758D01*
X90932064Y-76535763D01*
X90911968Y-76508667D01*
X90894626Y-76479733D01*
X90880202Y-76449237D01*
X90868838Y-76417475D01*
X90860641Y-76384752D01*
X90855691Y-76351383D01*
X90854036Y-76317690D01*
X90854036Y-75630190D01*
X90855691Y-75596497D01*
X90860641Y-75563128D01*
X90868838Y-75530405D01*
X90880202Y-75498643D01*
X90894626Y-75468147D01*
X90911968Y-75439213D01*
X90932064Y-75412117D01*
X90954718Y-75387122D01*
X90979713Y-75364468D01*
X91006809Y-75344372D01*
X91035743Y-75327030D01*
X91066239Y-75312606D01*
X91098001Y-75301242D01*
X91130724Y-75293045D01*
X91164093Y-75288095D01*
X91197786Y-75286440D01*
X92310286Y-75286440D01*
X92343979Y-75288095D01*
X92343979Y-75288095D01*
G37*
D12*
X91754036Y-75973940D03*
D11*
G36*
X92343979Y-73413095D02*
X92377348Y-73418045D01*
X92410071Y-73426242D01*
X92441833Y-73437606D01*
X92472329Y-73452030D01*
X92501263Y-73469372D01*
X92528359Y-73489468D01*
X92553354Y-73512122D01*
X92576008Y-73537117D01*
X92596104Y-73564213D01*
X92613446Y-73593147D01*
X92627870Y-73623643D01*
X92639234Y-73655405D01*
X92647431Y-73688128D01*
X92652381Y-73721497D01*
X92654036Y-73755190D01*
X92654036Y-74442690D01*
X92652381Y-74476383D01*
X92647431Y-74509752D01*
X92639234Y-74542475D01*
X92627870Y-74574237D01*
X92613446Y-74604733D01*
X92596104Y-74633667D01*
X92576008Y-74660763D01*
X92553354Y-74685758D01*
X92528359Y-74708412D01*
X92501263Y-74728508D01*
X92472329Y-74745850D01*
X92441833Y-74760274D01*
X92410071Y-74771638D01*
X92377348Y-74779835D01*
X92343979Y-74784785D01*
X92310286Y-74786440D01*
X91197786Y-74786440D01*
X91164093Y-74784785D01*
X91130724Y-74779835D01*
X91098001Y-74771638D01*
X91066239Y-74760274D01*
X91035743Y-74745850D01*
X91006809Y-74728508D01*
X90979713Y-74708412D01*
X90954718Y-74685758D01*
X90932064Y-74660763D01*
X90911968Y-74633667D01*
X90894626Y-74604733D01*
X90880202Y-74574237D01*
X90868838Y-74542475D01*
X90860641Y-74509752D01*
X90855691Y-74476383D01*
X90854036Y-74442690D01*
X90854036Y-73755190D01*
X90855691Y-73721497D01*
X90860641Y-73688128D01*
X90868838Y-73655405D01*
X90880202Y-73623643D01*
X90894626Y-73593147D01*
X90911968Y-73564213D01*
X90932064Y-73537117D01*
X90954718Y-73512122D01*
X90979713Y-73489468D01*
X91006809Y-73469372D01*
X91035743Y-73452030D01*
X91066239Y-73437606D01*
X91098001Y-73426242D01*
X91130724Y-73418045D01*
X91164093Y-73413095D01*
X91197786Y-73411440D01*
X92310286Y-73411440D01*
X92343979Y-73413095D01*
X92343979Y-73413095D01*
G37*
D12*
X91754036Y-74098940D03*
G04 #@! TD*
D11*
G04 #@! TO.C,R3*
G36*
X108990215Y-75288095D02*
X109023584Y-75293045D01*
X109056307Y-75301242D01*
X109088069Y-75312606D01*
X109118565Y-75327030D01*
X109147499Y-75344372D01*
X109174595Y-75364468D01*
X109199590Y-75387122D01*
X109222244Y-75412117D01*
X109242340Y-75439213D01*
X109259682Y-75468147D01*
X109274106Y-75498643D01*
X109285470Y-75530405D01*
X109293667Y-75563128D01*
X109298617Y-75596497D01*
X109300272Y-75630190D01*
X109300272Y-76317690D01*
X109298617Y-76351383D01*
X109293667Y-76384752D01*
X109285470Y-76417475D01*
X109274106Y-76449237D01*
X109259682Y-76479733D01*
X109242340Y-76508667D01*
X109222244Y-76535763D01*
X109199590Y-76560758D01*
X109174595Y-76583412D01*
X109147499Y-76603508D01*
X109118565Y-76620850D01*
X109088069Y-76635274D01*
X109056307Y-76646638D01*
X109023584Y-76654835D01*
X108990215Y-76659785D01*
X108956522Y-76661440D01*
X107844022Y-76661440D01*
X107810329Y-76659785D01*
X107776960Y-76654835D01*
X107744237Y-76646638D01*
X107712475Y-76635274D01*
X107681979Y-76620850D01*
X107653045Y-76603508D01*
X107625949Y-76583412D01*
X107600954Y-76560758D01*
X107578300Y-76535763D01*
X107558204Y-76508667D01*
X107540862Y-76479733D01*
X107526438Y-76449237D01*
X107515074Y-76417475D01*
X107506877Y-76384752D01*
X107501927Y-76351383D01*
X107500272Y-76317690D01*
X107500272Y-75630190D01*
X107501927Y-75596497D01*
X107506877Y-75563128D01*
X107515074Y-75530405D01*
X107526438Y-75498643D01*
X107540862Y-75468147D01*
X107558204Y-75439213D01*
X107578300Y-75412117D01*
X107600954Y-75387122D01*
X107625949Y-75364468D01*
X107653045Y-75344372D01*
X107681979Y-75327030D01*
X107712475Y-75312606D01*
X107744237Y-75301242D01*
X107776960Y-75293045D01*
X107810329Y-75288095D01*
X107844022Y-75286440D01*
X108956522Y-75286440D01*
X108990215Y-75288095D01*
X108990215Y-75288095D01*
G37*
D12*
X108400272Y-75973940D03*
D11*
G36*
X108990215Y-73413095D02*
X109023584Y-73418045D01*
X109056307Y-73426242D01*
X109088069Y-73437606D01*
X109118565Y-73452030D01*
X109147499Y-73469372D01*
X109174595Y-73489468D01*
X109199590Y-73512122D01*
X109222244Y-73537117D01*
X109242340Y-73564213D01*
X109259682Y-73593147D01*
X109274106Y-73623643D01*
X109285470Y-73655405D01*
X109293667Y-73688128D01*
X109298617Y-73721497D01*
X109300272Y-73755190D01*
X109300272Y-74442690D01*
X109298617Y-74476383D01*
X109293667Y-74509752D01*
X109285470Y-74542475D01*
X109274106Y-74574237D01*
X109259682Y-74604733D01*
X109242340Y-74633667D01*
X109222244Y-74660763D01*
X109199590Y-74685758D01*
X109174595Y-74708412D01*
X109147499Y-74728508D01*
X109118565Y-74745850D01*
X109088069Y-74760274D01*
X109056307Y-74771638D01*
X109023584Y-74779835D01*
X108990215Y-74784785D01*
X108956522Y-74786440D01*
X107844022Y-74786440D01*
X107810329Y-74784785D01*
X107776960Y-74779835D01*
X107744237Y-74771638D01*
X107712475Y-74760274D01*
X107681979Y-74745850D01*
X107653045Y-74728508D01*
X107625949Y-74708412D01*
X107600954Y-74685758D01*
X107578300Y-74660763D01*
X107558204Y-74633667D01*
X107540862Y-74604733D01*
X107526438Y-74574237D01*
X107515074Y-74542475D01*
X107506877Y-74509752D01*
X107501927Y-74476383D01*
X107500272Y-74442690D01*
X107500272Y-73755190D01*
X107501927Y-73721497D01*
X107506877Y-73688128D01*
X107515074Y-73655405D01*
X107526438Y-73623643D01*
X107540862Y-73593147D01*
X107558204Y-73564213D01*
X107578300Y-73537117D01*
X107600954Y-73512122D01*
X107625949Y-73489468D01*
X107653045Y-73469372D01*
X107681979Y-73452030D01*
X107712475Y-73437606D01*
X107744237Y-73426242D01*
X107776960Y-73418045D01*
X107810329Y-73413095D01*
X107844022Y-73411440D01*
X108956522Y-73411440D01*
X108990215Y-73413095D01*
X108990215Y-73413095D01*
G37*
D12*
X108400272Y-74098940D03*
G04 #@! TD*
D11*
G04 #@! TO.C,R4*
G36*
X125636451Y-75288095D02*
X125669820Y-75293045D01*
X125702543Y-75301242D01*
X125734305Y-75312606D01*
X125764801Y-75327030D01*
X125793735Y-75344372D01*
X125820831Y-75364468D01*
X125845826Y-75387122D01*
X125868480Y-75412117D01*
X125888576Y-75439213D01*
X125905918Y-75468147D01*
X125920342Y-75498643D01*
X125931706Y-75530405D01*
X125939903Y-75563128D01*
X125944853Y-75596497D01*
X125946508Y-75630190D01*
X125946508Y-76317690D01*
X125944853Y-76351383D01*
X125939903Y-76384752D01*
X125931706Y-76417475D01*
X125920342Y-76449237D01*
X125905918Y-76479733D01*
X125888576Y-76508667D01*
X125868480Y-76535763D01*
X125845826Y-76560758D01*
X125820831Y-76583412D01*
X125793735Y-76603508D01*
X125764801Y-76620850D01*
X125734305Y-76635274D01*
X125702543Y-76646638D01*
X125669820Y-76654835D01*
X125636451Y-76659785D01*
X125602758Y-76661440D01*
X124490258Y-76661440D01*
X124456565Y-76659785D01*
X124423196Y-76654835D01*
X124390473Y-76646638D01*
X124358711Y-76635274D01*
X124328215Y-76620850D01*
X124299281Y-76603508D01*
X124272185Y-76583412D01*
X124247190Y-76560758D01*
X124224536Y-76535763D01*
X124204440Y-76508667D01*
X124187098Y-76479733D01*
X124172674Y-76449237D01*
X124161310Y-76417475D01*
X124153113Y-76384752D01*
X124148163Y-76351383D01*
X124146508Y-76317690D01*
X124146508Y-75630190D01*
X124148163Y-75596497D01*
X124153113Y-75563128D01*
X124161310Y-75530405D01*
X124172674Y-75498643D01*
X124187098Y-75468147D01*
X124204440Y-75439213D01*
X124224536Y-75412117D01*
X124247190Y-75387122D01*
X124272185Y-75364468D01*
X124299281Y-75344372D01*
X124328215Y-75327030D01*
X124358711Y-75312606D01*
X124390473Y-75301242D01*
X124423196Y-75293045D01*
X124456565Y-75288095D01*
X124490258Y-75286440D01*
X125602758Y-75286440D01*
X125636451Y-75288095D01*
X125636451Y-75288095D01*
G37*
D12*
X125046508Y-75973940D03*
D11*
G36*
X125636451Y-73413095D02*
X125669820Y-73418045D01*
X125702543Y-73426242D01*
X125734305Y-73437606D01*
X125764801Y-73452030D01*
X125793735Y-73469372D01*
X125820831Y-73489468D01*
X125845826Y-73512122D01*
X125868480Y-73537117D01*
X125888576Y-73564213D01*
X125905918Y-73593147D01*
X125920342Y-73623643D01*
X125931706Y-73655405D01*
X125939903Y-73688128D01*
X125944853Y-73721497D01*
X125946508Y-73755190D01*
X125946508Y-74442690D01*
X125944853Y-74476383D01*
X125939903Y-74509752D01*
X125931706Y-74542475D01*
X125920342Y-74574237D01*
X125905918Y-74604733D01*
X125888576Y-74633667D01*
X125868480Y-74660763D01*
X125845826Y-74685758D01*
X125820831Y-74708412D01*
X125793735Y-74728508D01*
X125764801Y-74745850D01*
X125734305Y-74760274D01*
X125702543Y-74771638D01*
X125669820Y-74779835D01*
X125636451Y-74784785D01*
X125602758Y-74786440D01*
X124490258Y-74786440D01*
X124456565Y-74784785D01*
X124423196Y-74779835D01*
X124390473Y-74771638D01*
X124358711Y-74760274D01*
X124328215Y-74745850D01*
X124299281Y-74728508D01*
X124272185Y-74708412D01*
X124247190Y-74685758D01*
X124224536Y-74660763D01*
X124204440Y-74633667D01*
X124187098Y-74604733D01*
X124172674Y-74574237D01*
X124161310Y-74542475D01*
X124153113Y-74509752D01*
X124148163Y-74476383D01*
X124146508Y-74442690D01*
X124146508Y-73755190D01*
X124148163Y-73721497D01*
X124153113Y-73688128D01*
X124161310Y-73655405D01*
X124172674Y-73623643D01*
X124187098Y-73593147D01*
X124204440Y-73564213D01*
X124224536Y-73537117D01*
X124247190Y-73512122D01*
X124272185Y-73489468D01*
X124299281Y-73469372D01*
X124328215Y-73452030D01*
X124358711Y-73437606D01*
X124390473Y-73426242D01*
X124423196Y-73418045D01*
X124456565Y-73413095D01*
X124490258Y-73411440D01*
X125602758Y-73411440D01*
X125636451Y-73413095D01*
X125636451Y-73413095D01*
G37*
D12*
X125046508Y-74098940D03*
G04 #@! TD*
D11*
G04 #@! TO.C,R5*
G36*
X142282687Y-75288095D02*
X142316056Y-75293045D01*
X142348779Y-75301242D01*
X142380541Y-75312606D01*
X142411037Y-75327030D01*
X142439971Y-75344372D01*
X142467067Y-75364468D01*
X142492062Y-75387122D01*
X142514716Y-75412117D01*
X142534812Y-75439213D01*
X142552154Y-75468147D01*
X142566578Y-75498643D01*
X142577942Y-75530405D01*
X142586139Y-75563128D01*
X142591089Y-75596497D01*
X142592744Y-75630190D01*
X142592744Y-76317690D01*
X142591089Y-76351383D01*
X142586139Y-76384752D01*
X142577942Y-76417475D01*
X142566578Y-76449237D01*
X142552154Y-76479733D01*
X142534812Y-76508667D01*
X142514716Y-76535763D01*
X142492062Y-76560758D01*
X142467067Y-76583412D01*
X142439971Y-76603508D01*
X142411037Y-76620850D01*
X142380541Y-76635274D01*
X142348779Y-76646638D01*
X142316056Y-76654835D01*
X142282687Y-76659785D01*
X142248994Y-76661440D01*
X141136494Y-76661440D01*
X141102801Y-76659785D01*
X141069432Y-76654835D01*
X141036709Y-76646638D01*
X141004947Y-76635274D01*
X140974451Y-76620850D01*
X140945517Y-76603508D01*
X140918421Y-76583412D01*
X140893426Y-76560758D01*
X140870772Y-76535763D01*
X140850676Y-76508667D01*
X140833334Y-76479733D01*
X140818910Y-76449237D01*
X140807546Y-76417475D01*
X140799349Y-76384752D01*
X140794399Y-76351383D01*
X140792744Y-76317690D01*
X140792744Y-75630190D01*
X140794399Y-75596497D01*
X140799349Y-75563128D01*
X140807546Y-75530405D01*
X140818910Y-75498643D01*
X140833334Y-75468147D01*
X140850676Y-75439213D01*
X140870772Y-75412117D01*
X140893426Y-75387122D01*
X140918421Y-75364468D01*
X140945517Y-75344372D01*
X140974451Y-75327030D01*
X141004947Y-75312606D01*
X141036709Y-75301242D01*
X141069432Y-75293045D01*
X141102801Y-75288095D01*
X141136494Y-75286440D01*
X142248994Y-75286440D01*
X142282687Y-75288095D01*
X142282687Y-75288095D01*
G37*
D12*
X141692744Y-75973940D03*
D11*
G36*
X142282687Y-73413095D02*
X142316056Y-73418045D01*
X142348779Y-73426242D01*
X142380541Y-73437606D01*
X142411037Y-73452030D01*
X142439971Y-73469372D01*
X142467067Y-73489468D01*
X142492062Y-73512122D01*
X142514716Y-73537117D01*
X142534812Y-73564213D01*
X142552154Y-73593147D01*
X142566578Y-73623643D01*
X142577942Y-73655405D01*
X142586139Y-73688128D01*
X142591089Y-73721497D01*
X142592744Y-73755190D01*
X142592744Y-74442690D01*
X142591089Y-74476383D01*
X142586139Y-74509752D01*
X142577942Y-74542475D01*
X142566578Y-74574237D01*
X142552154Y-74604733D01*
X142534812Y-74633667D01*
X142514716Y-74660763D01*
X142492062Y-74685758D01*
X142467067Y-74708412D01*
X142439971Y-74728508D01*
X142411037Y-74745850D01*
X142380541Y-74760274D01*
X142348779Y-74771638D01*
X142316056Y-74779835D01*
X142282687Y-74784785D01*
X142248994Y-74786440D01*
X141136494Y-74786440D01*
X141102801Y-74784785D01*
X141069432Y-74779835D01*
X141036709Y-74771638D01*
X141004947Y-74760274D01*
X140974451Y-74745850D01*
X140945517Y-74728508D01*
X140918421Y-74708412D01*
X140893426Y-74685758D01*
X140870772Y-74660763D01*
X140850676Y-74633667D01*
X140833334Y-74604733D01*
X140818910Y-74574237D01*
X140807546Y-74542475D01*
X140799349Y-74509752D01*
X140794399Y-74476383D01*
X140792744Y-74442690D01*
X140792744Y-73755190D01*
X140794399Y-73721497D01*
X140799349Y-73688128D01*
X140807546Y-73655405D01*
X140818910Y-73623643D01*
X140833334Y-73593147D01*
X140850676Y-73564213D01*
X140870772Y-73537117D01*
X140893426Y-73512122D01*
X140918421Y-73489468D01*
X140945517Y-73469372D01*
X140974451Y-73452030D01*
X141004947Y-73437606D01*
X141036709Y-73426242D01*
X141069432Y-73418045D01*
X141102801Y-73413095D01*
X141136494Y-73411440D01*
X142248994Y-73411440D01*
X142282687Y-73413095D01*
X142282687Y-73413095D01*
G37*
D12*
X141692744Y-74098940D03*
G04 #@! TD*
D11*
G04 #@! TO.C,R6*
G36*
X158928923Y-75288095D02*
X158962292Y-75293045D01*
X158995015Y-75301242D01*
X159026777Y-75312606D01*
X159057273Y-75327030D01*
X159086207Y-75344372D01*
X159113303Y-75364468D01*
X159138298Y-75387122D01*
X159160952Y-75412117D01*
X159181048Y-75439213D01*
X159198390Y-75468147D01*
X159212814Y-75498643D01*
X159224178Y-75530405D01*
X159232375Y-75563128D01*
X159237325Y-75596497D01*
X159238980Y-75630190D01*
X159238980Y-76317690D01*
X159237325Y-76351383D01*
X159232375Y-76384752D01*
X159224178Y-76417475D01*
X159212814Y-76449237D01*
X159198390Y-76479733D01*
X159181048Y-76508667D01*
X159160952Y-76535763D01*
X159138298Y-76560758D01*
X159113303Y-76583412D01*
X159086207Y-76603508D01*
X159057273Y-76620850D01*
X159026777Y-76635274D01*
X158995015Y-76646638D01*
X158962292Y-76654835D01*
X158928923Y-76659785D01*
X158895230Y-76661440D01*
X157782730Y-76661440D01*
X157749037Y-76659785D01*
X157715668Y-76654835D01*
X157682945Y-76646638D01*
X157651183Y-76635274D01*
X157620687Y-76620850D01*
X157591753Y-76603508D01*
X157564657Y-76583412D01*
X157539662Y-76560758D01*
X157517008Y-76535763D01*
X157496912Y-76508667D01*
X157479570Y-76479733D01*
X157465146Y-76449237D01*
X157453782Y-76417475D01*
X157445585Y-76384752D01*
X157440635Y-76351383D01*
X157438980Y-76317690D01*
X157438980Y-75630190D01*
X157440635Y-75596497D01*
X157445585Y-75563128D01*
X157453782Y-75530405D01*
X157465146Y-75498643D01*
X157479570Y-75468147D01*
X157496912Y-75439213D01*
X157517008Y-75412117D01*
X157539662Y-75387122D01*
X157564657Y-75364468D01*
X157591753Y-75344372D01*
X157620687Y-75327030D01*
X157651183Y-75312606D01*
X157682945Y-75301242D01*
X157715668Y-75293045D01*
X157749037Y-75288095D01*
X157782730Y-75286440D01*
X158895230Y-75286440D01*
X158928923Y-75288095D01*
X158928923Y-75288095D01*
G37*
D12*
X158338980Y-75973940D03*
D11*
G36*
X158928923Y-73413095D02*
X158962292Y-73418045D01*
X158995015Y-73426242D01*
X159026777Y-73437606D01*
X159057273Y-73452030D01*
X159086207Y-73469372D01*
X159113303Y-73489468D01*
X159138298Y-73512122D01*
X159160952Y-73537117D01*
X159181048Y-73564213D01*
X159198390Y-73593147D01*
X159212814Y-73623643D01*
X159224178Y-73655405D01*
X159232375Y-73688128D01*
X159237325Y-73721497D01*
X159238980Y-73755190D01*
X159238980Y-74442690D01*
X159237325Y-74476383D01*
X159232375Y-74509752D01*
X159224178Y-74542475D01*
X159212814Y-74574237D01*
X159198390Y-74604733D01*
X159181048Y-74633667D01*
X159160952Y-74660763D01*
X159138298Y-74685758D01*
X159113303Y-74708412D01*
X159086207Y-74728508D01*
X159057273Y-74745850D01*
X159026777Y-74760274D01*
X158995015Y-74771638D01*
X158962292Y-74779835D01*
X158928923Y-74784785D01*
X158895230Y-74786440D01*
X157782730Y-74786440D01*
X157749037Y-74784785D01*
X157715668Y-74779835D01*
X157682945Y-74771638D01*
X157651183Y-74760274D01*
X157620687Y-74745850D01*
X157591753Y-74728508D01*
X157564657Y-74708412D01*
X157539662Y-74685758D01*
X157517008Y-74660763D01*
X157496912Y-74633667D01*
X157479570Y-74604733D01*
X157465146Y-74574237D01*
X157453782Y-74542475D01*
X157445585Y-74509752D01*
X157440635Y-74476383D01*
X157438980Y-74442690D01*
X157438980Y-73755190D01*
X157440635Y-73721497D01*
X157445585Y-73688128D01*
X157453782Y-73655405D01*
X157465146Y-73623643D01*
X157479570Y-73593147D01*
X157496912Y-73564213D01*
X157517008Y-73537117D01*
X157539662Y-73512122D01*
X157564657Y-73489468D01*
X157591753Y-73469372D01*
X157620687Y-73452030D01*
X157651183Y-73437606D01*
X157682945Y-73426242D01*
X157715668Y-73418045D01*
X157749037Y-73413095D01*
X157782730Y-73411440D01*
X158895230Y-73411440D01*
X158928923Y-73413095D01*
X158928923Y-73413095D01*
G37*
D12*
X158338980Y-74098940D03*
G04 #@! TD*
D11*
G04 #@! TO.C,R7*
G36*
X175575159Y-75288095D02*
X175608528Y-75293045D01*
X175641251Y-75301242D01*
X175673013Y-75312606D01*
X175703509Y-75327030D01*
X175732443Y-75344372D01*
X175759539Y-75364468D01*
X175784534Y-75387122D01*
X175807188Y-75412117D01*
X175827284Y-75439213D01*
X175844626Y-75468147D01*
X175859050Y-75498643D01*
X175870414Y-75530405D01*
X175878611Y-75563128D01*
X175883561Y-75596497D01*
X175885216Y-75630190D01*
X175885216Y-76317690D01*
X175883561Y-76351383D01*
X175878611Y-76384752D01*
X175870414Y-76417475D01*
X175859050Y-76449237D01*
X175844626Y-76479733D01*
X175827284Y-76508667D01*
X175807188Y-76535763D01*
X175784534Y-76560758D01*
X175759539Y-76583412D01*
X175732443Y-76603508D01*
X175703509Y-76620850D01*
X175673013Y-76635274D01*
X175641251Y-76646638D01*
X175608528Y-76654835D01*
X175575159Y-76659785D01*
X175541466Y-76661440D01*
X174428966Y-76661440D01*
X174395273Y-76659785D01*
X174361904Y-76654835D01*
X174329181Y-76646638D01*
X174297419Y-76635274D01*
X174266923Y-76620850D01*
X174237989Y-76603508D01*
X174210893Y-76583412D01*
X174185898Y-76560758D01*
X174163244Y-76535763D01*
X174143148Y-76508667D01*
X174125806Y-76479733D01*
X174111382Y-76449237D01*
X174100018Y-76417475D01*
X174091821Y-76384752D01*
X174086871Y-76351383D01*
X174085216Y-76317690D01*
X174085216Y-75630190D01*
X174086871Y-75596497D01*
X174091821Y-75563128D01*
X174100018Y-75530405D01*
X174111382Y-75498643D01*
X174125806Y-75468147D01*
X174143148Y-75439213D01*
X174163244Y-75412117D01*
X174185898Y-75387122D01*
X174210893Y-75364468D01*
X174237989Y-75344372D01*
X174266923Y-75327030D01*
X174297419Y-75312606D01*
X174329181Y-75301242D01*
X174361904Y-75293045D01*
X174395273Y-75288095D01*
X174428966Y-75286440D01*
X175541466Y-75286440D01*
X175575159Y-75288095D01*
X175575159Y-75288095D01*
G37*
D12*
X174985216Y-75973940D03*
D11*
G36*
X175575159Y-73413095D02*
X175608528Y-73418045D01*
X175641251Y-73426242D01*
X175673013Y-73437606D01*
X175703509Y-73452030D01*
X175732443Y-73469372D01*
X175759539Y-73489468D01*
X175784534Y-73512122D01*
X175807188Y-73537117D01*
X175827284Y-73564213D01*
X175844626Y-73593147D01*
X175859050Y-73623643D01*
X175870414Y-73655405D01*
X175878611Y-73688128D01*
X175883561Y-73721497D01*
X175885216Y-73755190D01*
X175885216Y-74442690D01*
X175883561Y-74476383D01*
X175878611Y-74509752D01*
X175870414Y-74542475D01*
X175859050Y-74574237D01*
X175844626Y-74604733D01*
X175827284Y-74633667D01*
X175807188Y-74660763D01*
X175784534Y-74685758D01*
X175759539Y-74708412D01*
X175732443Y-74728508D01*
X175703509Y-74745850D01*
X175673013Y-74760274D01*
X175641251Y-74771638D01*
X175608528Y-74779835D01*
X175575159Y-74784785D01*
X175541466Y-74786440D01*
X174428966Y-74786440D01*
X174395273Y-74784785D01*
X174361904Y-74779835D01*
X174329181Y-74771638D01*
X174297419Y-74760274D01*
X174266923Y-74745850D01*
X174237989Y-74728508D01*
X174210893Y-74708412D01*
X174185898Y-74685758D01*
X174163244Y-74660763D01*
X174143148Y-74633667D01*
X174125806Y-74604733D01*
X174111382Y-74574237D01*
X174100018Y-74542475D01*
X174091821Y-74509752D01*
X174086871Y-74476383D01*
X174085216Y-74442690D01*
X174085216Y-73755190D01*
X174086871Y-73721497D01*
X174091821Y-73688128D01*
X174100018Y-73655405D01*
X174111382Y-73623643D01*
X174125806Y-73593147D01*
X174143148Y-73564213D01*
X174163244Y-73537117D01*
X174185898Y-73512122D01*
X174210893Y-73489468D01*
X174237989Y-73469372D01*
X174266923Y-73452030D01*
X174297419Y-73437606D01*
X174329181Y-73426242D01*
X174361904Y-73418045D01*
X174395273Y-73413095D01*
X174428966Y-73411440D01*
X175541466Y-73411440D01*
X175575159Y-73413095D01*
X175575159Y-73413095D01*
G37*
D12*
X174985216Y-74098940D03*
G04 #@! TD*
D11*
G04 #@! TO.C,R8*
G36*
X192221395Y-75288095D02*
X192254764Y-75293045D01*
X192287487Y-75301242D01*
X192319249Y-75312606D01*
X192349745Y-75327030D01*
X192378679Y-75344372D01*
X192405775Y-75364468D01*
X192430770Y-75387122D01*
X192453424Y-75412117D01*
X192473520Y-75439213D01*
X192490862Y-75468147D01*
X192505286Y-75498643D01*
X192516650Y-75530405D01*
X192524847Y-75563128D01*
X192529797Y-75596497D01*
X192531452Y-75630190D01*
X192531452Y-76317690D01*
X192529797Y-76351383D01*
X192524847Y-76384752D01*
X192516650Y-76417475D01*
X192505286Y-76449237D01*
X192490862Y-76479733D01*
X192473520Y-76508667D01*
X192453424Y-76535763D01*
X192430770Y-76560758D01*
X192405775Y-76583412D01*
X192378679Y-76603508D01*
X192349745Y-76620850D01*
X192319249Y-76635274D01*
X192287487Y-76646638D01*
X192254764Y-76654835D01*
X192221395Y-76659785D01*
X192187702Y-76661440D01*
X191075202Y-76661440D01*
X191041509Y-76659785D01*
X191008140Y-76654835D01*
X190975417Y-76646638D01*
X190943655Y-76635274D01*
X190913159Y-76620850D01*
X190884225Y-76603508D01*
X190857129Y-76583412D01*
X190832134Y-76560758D01*
X190809480Y-76535763D01*
X190789384Y-76508667D01*
X190772042Y-76479733D01*
X190757618Y-76449237D01*
X190746254Y-76417475D01*
X190738057Y-76384752D01*
X190733107Y-76351383D01*
X190731452Y-76317690D01*
X190731452Y-75630190D01*
X190733107Y-75596497D01*
X190738057Y-75563128D01*
X190746254Y-75530405D01*
X190757618Y-75498643D01*
X190772042Y-75468147D01*
X190789384Y-75439213D01*
X190809480Y-75412117D01*
X190832134Y-75387122D01*
X190857129Y-75364468D01*
X190884225Y-75344372D01*
X190913159Y-75327030D01*
X190943655Y-75312606D01*
X190975417Y-75301242D01*
X191008140Y-75293045D01*
X191041509Y-75288095D01*
X191075202Y-75286440D01*
X192187702Y-75286440D01*
X192221395Y-75288095D01*
X192221395Y-75288095D01*
G37*
D12*
X191631452Y-75973940D03*
D11*
G36*
X192221395Y-73413095D02*
X192254764Y-73418045D01*
X192287487Y-73426242D01*
X192319249Y-73437606D01*
X192349745Y-73452030D01*
X192378679Y-73469372D01*
X192405775Y-73489468D01*
X192430770Y-73512122D01*
X192453424Y-73537117D01*
X192473520Y-73564213D01*
X192490862Y-73593147D01*
X192505286Y-73623643D01*
X192516650Y-73655405D01*
X192524847Y-73688128D01*
X192529797Y-73721497D01*
X192531452Y-73755190D01*
X192531452Y-74442690D01*
X192529797Y-74476383D01*
X192524847Y-74509752D01*
X192516650Y-74542475D01*
X192505286Y-74574237D01*
X192490862Y-74604733D01*
X192473520Y-74633667D01*
X192453424Y-74660763D01*
X192430770Y-74685758D01*
X192405775Y-74708412D01*
X192378679Y-74728508D01*
X192349745Y-74745850D01*
X192319249Y-74760274D01*
X192287487Y-74771638D01*
X192254764Y-74779835D01*
X192221395Y-74784785D01*
X192187702Y-74786440D01*
X191075202Y-74786440D01*
X191041509Y-74784785D01*
X191008140Y-74779835D01*
X190975417Y-74771638D01*
X190943655Y-74760274D01*
X190913159Y-74745850D01*
X190884225Y-74728508D01*
X190857129Y-74708412D01*
X190832134Y-74685758D01*
X190809480Y-74660763D01*
X190789384Y-74633667D01*
X190772042Y-74604733D01*
X190757618Y-74574237D01*
X190746254Y-74542475D01*
X190738057Y-74509752D01*
X190733107Y-74476383D01*
X190731452Y-74442690D01*
X190731452Y-73755190D01*
X190733107Y-73721497D01*
X190738057Y-73688128D01*
X190746254Y-73655405D01*
X190757618Y-73623643D01*
X190772042Y-73593147D01*
X190789384Y-73564213D01*
X190809480Y-73537117D01*
X190832134Y-73512122D01*
X190857129Y-73489468D01*
X190884225Y-73469372D01*
X190913159Y-73452030D01*
X190943655Y-73437606D01*
X190975417Y-73426242D01*
X191008140Y-73418045D01*
X191041509Y-73413095D01*
X191075202Y-73411440D01*
X192187702Y-73411440D01*
X192221395Y-73413095D01*
X192221395Y-73413095D01*
G37*
D12*
X191631452Y-74098940D03*
G04 #@! TD*
D11*
G04 #@! TO.C,R9*
G36*
X203912483Y-69429175D02*
X203945852Y-69434125D01*
X203978575Y-69442322D01*
X204010337Y-69453686D01*
X204040833Y-69468110D01*
X204069767Y-69485452D01*
X204096863Y-69505548D01*
X204121858Y-69528202D01*
X204144512Y-69553197D01*
X204164608Y-69580293D01*
X204181950Y-69609227D01*
X204196374Y-69639723D01*
X204207738Y-69671485D01*
X204215935Y-69704208D01*
X204220885Y-69737577D01*
X204222540Y-69771270D01*
X204222540Y-70883770D01*
X204220885Y-70917463D01*
X204215935Y-70950832D01*
X204207738Y-70983555D01*
X204196374Y-71015317D01*
X204181950Y-71045813D01*
X204164608Y-71074747D01*
X204144512Y-71101843D01*
X204121858Y-71126838D01*
X204096863Y-71149492D01*
X204069767Y-71169588D01*
X204040833Y-71186930D01*
X204010337Y-71201354D01*
X203978575Y-71212718D01*
X203945852Y-71220915D01*
X203912483Y-71225865D01*
X203878790Y-71227520D01*
X203191290Y-71227520D01*
X203157597Y-71225865D01*
X203124228Y-71220915D01*
X203091505Y-71212718D01*
X203059743Y-71201354D01*
X203029247Y-71186930D01*
X203000313Y-71169588D01*
X202973217Y-71149492D01*
X202948222Y-71126838D01*
X202925568Y-71101843D01*
X202905472Y-71074747D01*
X202888130Y-71045813D01*
X202873706Y-71015317D01*
X202862342Y-70983555D01*
X202854145Y-70950832D01*
X202849195Y-70917463D01*
X202847540Y-70883770D01*
X202847540Y-69771270D01*
X202849195Y-69737577D01*
X202854145Y-69704208D01*
X202862342Y-69671485D01*
X202873706Y-69639723D01*
X202888130Y-69609227D01*
X202905472Y-69580293D01*
X202925568Y-69553197D01*
X202948222Y-69528202D01*
X202973217Y-69505548D01*
X203000313Y-69485452D01*
X203029247Y-69468110D01*
X203059743Y-69453686D01*
X203091505Y-69442322D01*
X203124228Y-69434125D01*
X203157597Y-69429175D01*
X203191290Y-69427520D01*
X203878790Y-69427520D01*
X203912483Y-69429175D01*
X203912483Y-69429175D01*
G37*
D12*
X203535040Y-70327520D03*
D11*
G36*
X205787483Y-69429175D02*
X205820852Y-69434125D01*
X205853575Y-69442322D01*
X205885337Y-69453686D01*
X205915833Y-69468110D01*
X205944767Y-69485452D01*
X205971863Y-69505548D01*
X205996858Y-69528202D01*
X206019512Y-69553197D01*
X206039608Y-69580293D01*
X206056950Y-69609227D01*
X206071374Y-69639723D01*
X206082738Y-69671485D01*
X206090935Y-69704208D01*
X206095885Y-69737577D01*
X206097540Y-69771270D01*
X206097540Y-70883770D01*
X206095885Y-70917463D01*
X206090935Y-70950832D01*
X206082738Y-70983555D01*
X206071374Y-71015317D01*
X206056950Y-71045813D01*
X206039608Y-71074747D01*
X206019512Y-71101843D01*
X205996858Y-71126838D01*
X205971863Y-71149492D01*
X205944767Y-71169588D01*
X205915833Y-71186930D01*
X205885337Y-71201354D01*
X205853575Y-71212718D01*
X205820852Y-71220915D01*
X205787483Y-71225865D01*
X205753790Y-71227520D01*
X205066290Y-71227520D01*
X205032597Y-71225865D01*
X204999228Y-71220915D01*
X204966505Y-71212718D01*
X204934743Y-71201354D01*
X204904247Y-71186930D01*
X204875313Y-71169588D01*
X204848217Y-71149492D01*
X204823222Y-71126838D01*
X204800568Y-71101843D01*
X204780472Y-71074747D01*
X204763130Y-71045813D01*
X204748706Y-71015317D01*
X204737342Y-70983555D01*
X204729145Y-70950832D01*
X204724195Y-70917463D01*
X204722540Y-70883770D01*
X204722540Y-69771270D01*
X204724195Y-69737577D01*
X204729145Y-69704208D01*
X204737342Y-69671485D01*
X204748706Y-69639723D01*
X204763130Y-69609227D01*
X204780472Y-69580293D01*
X204800568Y-69553197D01*
X204823222Y-69528202D01*
X204848217Y-69505548D01*
X204875313Y-69485452D01*
X204904247Y-69468110D01*
X204934743Y-69453686D01*
X204966505Y-69442322D01*
X204999228Y-69434125D01*
X205032597Y-69429175D01*
X205066290Y-69427520D01*
X205753790Y-69427520D01*
X205787483Y-69429175D01*
X205787483Y-69429175D01*
G37*
D12*
X205410040Y-70327520D03*
G04 #@! TD*
D11*
G04 #@! TO.C,R10*
G36*
X225513867Y-75288095D02*
X225547236Y-75293045D01*
X225579959Y-75301242D01*
X225611721Y-75312606D01*
X225642217Y-75327030D01*
X225671151Y-75344372D01*
X225698247Y-75364468D01*
X225723242Y-75387122D01*
X225745896Y-75412117D01*
X225765992Y-75439213D01*
X225783334Y-75468147D01*
X225797758Y-75498643D01*
X225809122Y-75530405D01*
X225817319Y-75563128D01*
X225822269Y-75596497D01*
X225823924Y-75630190D01*
X225823924Y-76317690D01*
X225822269Y-76351383D01*
X225817319Y-76384752D01*
X225809122Y-76417475D01*
X225797758Y-76449237D01*
X225783334Y-76479733D01*
X225765992Y-76508667D01*
X225745896Y-76535763D01*
X225723242Y-76560758D01*
X225698247Y-76583412D01*
X225671151Y-76603508D01*
X225642217Y-76620850D01*
X225611721Y-76635274D01*
X225579959Y-76646638D01*
X225547236Y-76654835D01*
X225513867Y-76659785D01*
X225480174Y-76661440D01*
X224367674Y-76661440D01*
X224333981Y-76659785D01*
X224300612Y-76654835D01*
X224267889Y-76646638D01*
X224236127Y-76635274D01*
X224205631Y-76620850D01*
X224176697Y-76603508D01*
X224149601Y-76583412D01*
X224124606Y-76560758D01*
X224101952Y-76535763D01*
X224081856Y-76508667D01*
X224064514Y-76479733D01*
X224050090Y-76449237D01*
X224038726Y-76417475D01*
X224030529Y-76384752D01*
X224025579Y-76351383D01*
X224023924Y-76317690D01*
X224023924Y-75630190D01*
X224025579Y-75596497D01*
X224030529Y-75563128D01*
X224038726Y-75530405D01*
X224050090Y-75498643D01*
X224064514Y-75468147D01*
X224081856Y-75439213D01*
X224101952Y-75412117D01*
X224124606Y-75387122D01*
X224149601Y-75364468D01*
X224176697Y-75344372D01*
X224205631Y-75327030D01*
X224236127Y-75312606D01*
X224267889Y-75301242D01*
X224300612Y-75293045D01*
X224333981Y-75288095D01*
X224367674Y-75286440D01*
X225480174Y-75286440D01*
X225513867Y-75288095D01*
X225513867Y-75288095D01*
G37*
D12*
X224923924Y-75973940D03*
D11*
G36*
X225513867Y-73413095D02*
X225547236Y-73418045D01*
X225579959Y-73426242D01*
X225611721Y-73437606D01*
X225642217Y-73452030D01*
X225671151Y-73469372D01*
X225698247Y-73489468D01*
X225723242Y-73512122D01*
X225745896Y-73537117D01*
X225765992Y-73564213D01*
X225783334Y-73593147D01*
X225797758Y-73623643D01*
X225809122Y-73655405D01*
X225817319Y-73688128D01*
X225822269Y-73721497D01*
X225823924Y-73755190D01*
X225823924Y-74442690D01*
X225822269Y-74476383D01*
X225817319Y-74509752D01*
X225809122Y-74542475D01*
X225797758Y-74574237D01*
X225783334Y-74604733D01*
X225765992Y-74633667D01*
X225745896Y-74660763D01*
X225723242Y-74685758D01*
X225698247Y-74708412D01*
X225671151Y-74728508D01*
X225642217Y-74745850D01*
X225611721Y-74760274D01*
X225579959Y-74771638D01*
X225547236Y-74779835D01*
X225513867Y-74784785D01*
X225480174Y-74786440D01*
X224367674Y-74786440D01*
X224333981Y-74784785D01*
X224300612Y-74779835D01*
X224267889Y-74771638D01*
X224236127Y-74760274D01*
X224205631Y-74745850D01*
X224176697Y-74728508D01*
X224149601Y-74708412D01*
X224124606Y-74685758D01*
X224101952Y-74660763D01*
X224081856Y-74633667D01*
X224064514Y-74604733D01*
X224050090Y-74574237D01*
X224038726Y-74542475D01*
X224030529Y-74509752D01*
X224025579Y-74476383D01*
X224023924Y-74442690D01*
X224023924Y-73755190D01*
X224025579Y-73721497D01*
X224030529Y-73688128D01*
X224038726Y-73655405D01*
X224050090Y-73623643D01*
X224064514Y-73593147D01*
X224081856Y-73564213D01*
X224101952Y-73537117D01*
X224124606Y-73512122D01*
X224149601Y-73489468D01*
X224176697Y-73469372D01*
X224205631Y-73452030D01*
X224236127Y-73437606D01*
X224267889Y-73426242D01*
X224300612Y-73418045D01*
X224333981Y-73413095D01*
X224367674Y-73411440D01*
X225480174Y-73411440D01*
X225513867Y-73413095D01*
X225513867Y-73413095D01*
G37*
D12*
X224923924Y-74098940D03*
G04 #@! TD*
D11*
G04 #@! TO.C,R11*
G36*
X242160103Y-75288095D02*
X242193472Y-75293045D01*
X242226195Y-75301242D01*
X242257957Y-75312606D01*
X242288453Y-75327030D01*
X242317387Y-75344372D01*
X242344483Y-75364468D01*
X242369478Y-75387122D01*
X242392132Y-75412117D01*
X242412228Y-75439213D01*
X242429570Y-75468147D01*
X242443994Y-75498643D01*
X242455358Y-75530405D01*
X242463555Y-75563128D01*
X242468505Y-75596497D01*
X242470160Y-75630190D01*
X242470160Y-76317690D01*
X242468505Y-76351383D01*
X242463555Y-76384752D01*
X242455358Y-76417475D01*
X242443994Y-76449237D01*
X242429570Y-76479733D01*
X242412228Y-76508667D01*
X242392132Y-76535763D01*
X242369478Y-76560758D01*
X242344483Y-76583412D01*
X242317387Y-76603508D01*
X242288453Y-76620850D01*
X242257957Y-76635274D01*
X242226195Y-76646638D01*
X242193472Y-76654835D01*
X242160103Y-76659785D01*
X242126410Y-76661440D01*
X241013910Y-76661440D01*
X240980217Y-76659785D01*
X240946848Y-76654835D01*
X240914125Y-76646638D01*
X240882363Y-76635274D01*
X240851867Y-76620850D01*
X240822933Y-76603508D01*
X240795837Y-76583412D01*
X240770842Y-76560758D01*
X240748188Y-76535763D01*
X240728092Y-76508667D01*
X240710750Y-76479733D01*
X240696326Y-76449237D01*
X240684962Y-76417475D01*
X240676765Y-76384752D01*
X240671815Y-76351383D01*
X240670160Y-76317690D01*
X240670160Y-75630190D01*
X240671815Y-75596497D01*
X240676765Y-75563128D01*
X240684962Y-75530405D01*
X240696326Y-75498643D01*
X240710750Y-75468147D01*
X240728092Y-75439213D01*
X240748188Y-75412117D01*
X240770842Y-75387122D01*
X240795837Y-75364468D01*
X240822933Y-75344372D01*
X240851867Y-75327030D01*
X240882363Y-75312606D01*
X240914125Y-75301242D01*
X240946848Y-75293045D01*
X240980217Y-75288095D01*
X241013910Y-75286440D01*
X242126410Y-75286440D01*
X242160103Y-75288095D01*
X242160103Y-75288095D01*
G37*
D12*
X241570160Y-75973940D03*
D11*
G36*
X242160103Y-73413095D02*
X242193472Y-73418045D01*
X242226195Y-73426242D01*
X242257957Y-73437606D01*
X242288453Y-73452030D01*
X242317387Y-73469372D01*
X242344483Y-73489468D01*
X242369478Y-73512122D01*
X242392132Y-73537117D01*
X242412228Y-73564213D01*
X242429570Y-73593147D01*
X242443994Y-73623643D01*
X242455358Y-73655405D01*
X242463555Y-73688128D01*
X242468505Y-73721497D01*
X242470160Y-73755190D01*
X242470160Y-74442690D01*
X242468505Y-74476383D01*
X242463555Y-74509752D01*
X242455358Y-74542475D01*
X242443994Y-74574237D01*
X242429570Y-74604733D01*
X242412228Y-74633667D01*
X242392132Y-74660763D01*
X242369478Y-74685758D01*
X242344483Y-74708412D01*
X242317387Y-74728508D01*
X242288453Y-74745850D01*
X242257957Y-74760274D01*
X242226195Y-74771638D01*
X242193472Y-74779835D01*
X242160103Y-74784785D01*
X242126410Y-74786440D01*
X241013910Y-74786440D01*
X240980217Y-74784785D01*
X240946848Y-74779835D01*
X240914125Y-74771638D01*
X240882363Y-74760274D01*
X240851867Y-74745850D01*
X240822933Y-74728508D01*
X240795837Y-74708412D01*
X240770842Y-74685758D01*
X240748188Y-74660763D01*
X240728092Y-74633667D01*
X240710750Y-74604733D01*
X240696326Y-74574237D01*
X240684962Y-74542475D01*
X240676765Y-74509752D01*
X240671815Y-74476383D01*
X240670160Y-74442690D01*
X240670160Y-73755190D01*
X240671815Y-73721497D01*
X240676765Y-73688128D01*
X240684962Y-73655405D01*
X240696326Y-73623643D01*
X240710750Y-73593147D01*
X240728092Y-73564213D01*
X240748188Y-73537117D01*
X240770842Y-73512122D01*
X240795837Y-73489468D01*
X240822933Y-73469372D01*
X240851867Y-73452030D01*
X240882363Y-73437606D01*
X240914125Y-73426242D01*
X240946848Y-73418045D01*
X240980217Y-73413095D01*
X241013910Y-73411440D01*
X242126410Y-73411440D01*
X242160103Y-73413095D01*
X242160103Y-73413095D01*
G37*
D12*
X241570160Y-74098940D03*
G04 #@! TD*
D11*
G04 #@! TO.C,R12*
G36*
X259164243Y-75288095D02*
X259197612Y-75293045D01*
X259230335Y-75301242D01*
X259262097Y-75312606D01*
X259292593Y-75327030D01*
X259321527Y-75344372D01*
X259348623Y-75364468D01*
X259373618Y-75387122D01*
X259396272Y-75412117D01*
X259416368Y-75439213D01*
X259433710Y-75468147D01*
X259448134Y-75498643D01*
X259459498Y-75530405D01*
X259467695Y-75563128D01*
X259472645Y-75596497D01*
X259474300Y-75630190D01*
X259474300Y-76317690D01*
X259472645Y-76351383D01*
X259467695Y-76384752D01*
X259459498Y-76417475D01*
X259448134Y-76449237D01*
X259433710Y-76479733D01*
X259416368Y-76508667D01*
X259396272Y-76535763D01*
X259373618Y-76560758D01*
X259348623Y-76583412D01*
X259321527Y-76603508D01*
X259292593Y-76620850D01*
X259262097Y-76635274D01*
X259230335Y-76646638D01*
X259197612Y-76654835D01*
X259164243Y-76659785D01*
X259130550Y-76661440D01*
X258018050Y-76661440D01*
X257984357Y-76659785D01*
X257950988Y-76654835D01*
X257918265Y-76646638D01*
X257886503Y-76635274D01*
X257856007Y-76620850D01*
X257827073Y-76603508D01*
X257799977Y-76583412D01*
X257774982Y-76560758D01*
X257752328Y-76535763D01*
X257732232Y-76508667D01*
X257714890Y-76479733D01*
X257700466Y-76449237D01*
X257689102Y-76417475D01*
X257680905Y-76384752D01*
X257675955Y-76351383D01*
X257674300Y-76317690D01*
X257674300Y-75630190D01*
X257675955Y-75596497D01*
X257680905Y-75563128D01*
X257689102Y-75530405D01*
X257700466Y-75498643D01*
X257714890Y-75468147D01*
X257732232Y-75439213D01*
X257752328Y-75412117D01*
X257774982Y-75387122D01*
X257799977Y-75364468D01*
X257827073Y-75344372D01*
X257856007Y-75327030D01*
X257886503Y-75312606D01*
X257918265Y-75301242D01*
X257950988Y-75293045D01*
X257984357Y-75288095D01*
X258018050Y-75286440D01*
X259130550Y-75286440D01*
X259164243Y-75288095D01*
X259164243Y-75288095D01*
G37*
D12*
X258574300Y-75973940D03*
D11*
G36*
X259164243Y-73413095D02*
X259197612Y-73418045D01*
X259230335Y-73426242D01*
X259262097Y-73437606D01*
X259292593Y-73452030D01*
X259321527Y-73469372D01*
X259348623Y-73489468D01*
X259373618Y-73512122D01*
X259396272Y-73537117D01*
X259416368Y-73564213D01*
X259433710Y-73593147D01*
X259448134Y-73623643D01*
X259459498Y-73655405D01*
X259467695Y-73688128D01*
X259472645Y-73721497D01*
X259474300Y-73755190D01*
X259474300Y-74442690D01*
X259472645Y-74476383D01*
X259467695Y-74509752D01*
X259459498Y-74542475D01*
X259448134Y-74574237D01*
X259433710Y-74604733D01*
X259416368Y-74633667D01*
X259396272Y-74660763D01*
X259373618Y-74685758D01*
X259348623Y-74708412D01*
X259321527Y-74728508D01*
X259292593Y-74745850D01*
X259262097Y-74760274D01*
X259230335Y-74771638D01*
X259197612Y-74779835D01*
X259164243Y-74784785D01*
X259130550Y-74786440D01*
X258018050Y-74786440D01*
X257984357Y-74784785D01*
X257950988Y-74779835D01*
X257918265Y-74771638D01*
X257886503Y-74760274D01*
X257856007Y-74745850D01*
X257827073Y-74728508D01*
X257799977Y-74708412D01*
X257774982Y-74685758D01*
X257752328Y-74660763D01*
X257732232Y-74633667D01*
X257714890Y-74604733D01*
X257700466Y-74574237D01*
X257689102Y-74542475D01*
X257680905Y-74509752D01*
X257675955Y-74476383D01*
X257674300Y-74442690D01*
X257674300Y-73755190D01*
X257675955Y-73721497D01*
X257680905Y-73688128D01*
X257689102Y-73655405D01*
X257700466Y-73623643D01*
X257714890Y-73593147D01*
X257732232Y-73564213D01*
X257752328Y-73537117D01*
X257774982Y-73512122D01*
X257799977Y-73489468D01*
X257827073Y-73469372D01*
X257856007Y-73452030D01*
X257886503Y-73437606D01*
X257918265Y-73426242D01*
X257950988Y-73418045D01*
X257984357Y-73413095D01*
X258018050Y-73411440D01*
X259130550Y-73411440D01*
X259164243Y-73413095D01*
X259164243Y-73413095D01*
G37*
D12*
X258574300Y-74098940D03*
G04 #@! TD*
D11*
G04 #@! TO.C,C7*
G36*
X178369159Y-73413095D02*
X178402528Y-73418045D01*
X178435251Y-73426242D01*
X178467013Y-73437606D01*
X178497509Y-73452030D01*
X178526443Y-73469372D01*
X178553539Y-73489468D01*
X178578534Y-73512122D01*
X178601188Y-73537117D01*
X178621284Y-73564213D01*
X178638626Y-73593147D01*
X178653050Y-73623643D01*
X178664414Y-73655405D01*
X178672611Y-73688128D01*
X178677561Y-73721497D01*
X178679216Y-73755190D01*
X178679216Y-74442690D01*
X178677561Y-74476383D01*
X178672611Y-74509752D01*
X178664414Y-74542475D01*
X178653050Y-74574237D01*
X178638626Y-74604733D01*
X178621284Y-74633667D01*
X178601188Y-74660763D01*
X178578534Y-74685758D01*
X178553539Y-74708412D01*
X178526443Y-74728508D01*
X178497509Y-74745850D01*
X178467013Y-74760274D01*
X178435251Y-74771638D01*
X178402528Y-74779835D01*
X178369159Y-74784785D01*
X178335466Y-74786440D01*
X177222966Y-74786440D01*
X177189273Y-74784785D01*
X177155904Y-74779835D01*
X177123181Y-74771638D01*
X177091419Y-74760274D01*
X177060923Y-74745850D01*
X177031989Y-74728508D01*
X177004893Y-74708412D01*
X176979898Y-74685758D01*
X176957244Y-74660763D01*
X176937148Y-74633667D01*
X176919806Y-74604733D01*
X176905382Y-74574237D01*
X176894018Y-74542475D01*
X176885821Y-74509752D01*
X176880871Y-74476383D01*
X176879216Y-74442690D01*
X176879216Y-73755190D01*
X176880871Y-73721497D01*
X176885821Y-73688128D01*
X176894018Y-73655405D01*
X176905382Y-73623643D01*
X176919806Y-73593147D01*
X176937148Y-73564213D01*
X176957244Y-73537117D01*
X176979898Y-73512122D01*
X177004893Y-73489468D01*
X177031989Y-73469372D01*
X177060923Y-73452030D01*
X177091419Y-73437606D01*
X177123181Y-73426242D01*
X177155904Y-73418045D01*
X177189273Y-73413095D01*
X177222966Y-73411440D01*
X178335466Y-73411440D01*
X178369159Y-73413095D01*
X178369159Y-73413095D01*
G37*
D12*
X177779216Y-74098940D03*
D11*
G36*
X178369159Y-75288095D02*
X178402528Y-75293045D01*
X178435251Y-75301242D01*
X178467013Y-75312606D01*
X178497509Y-75327030D01*
X178526443Y-75344372D01*
X178553539Y-75364468D01*
X178578534Y-75387122D01*
X178601188Y-75412117D01*
X178621284Y-75439213D01*
X178638626Y-75468147D01*
X178653050Y-75498643D01*
X178664414Y-75530405D01*
X178672611Y-75563128D01*
X178677561Y-75596497D01*
X178679216Y-75630190D01*
X178679216Y-76317690D01*
X178677561Y-76351383D01*
X178672611Y-76384752D01*
X178664414Y-76417475D01*
X178653050Y-76449237D01*
X178638626Y-76479733D01*
X178621284Y-76508667D01*
X178601188Y-76535763D01*
X178578534Y-76560758D01*
X178553539Y-76583412D01*
X178526443Y-76603508D01*
X178497509Y-76620850D01*
X178467013Y-76635274D01*
X178435251Y-76646638D01*
X178402528Y-76654835D01*
X178369159Y-76659785D01*
X178335466Y-76661440D01*
X177222966Y-76661440D01*
X177189273Y-76659785D01*
X177155904Y-76654835D01*
X177123181Y-76646638D01*
X177091419Y-76635274D01*
X177060923Y-76620850D01*
X177031989Y-76603508D01*
X177004893Y-76583412D01*
X176979898Y-76560758D01*
X176957244Y-76535763D01*
X176937148Y-76508667D01*
X176919806Y-76479733D01*
X176905382Y-76449237D01*
X176894018Y-76417475D01*
X176885821Y-76384752D01*
X176880871Y-76351383D01*
X176879216Y-76317690D01*
X176879216Y-75630190D01*
X176880871Y-75596497D01*
X176885821Y-75563128D01*
X176894018Y-75530405D01*
X176905382Y-75498643D01*
X176919806Y-75468147D01*
X176937148Y-75439213D01*
X176957244Y-75412117D01*
X176979898Y-75387122D01*
X177004893Y-75364468D01*
X177031989Y-75344372D01*
X177060923Y-75327030D01*
X177091419Y-75312606D01*
X177123181Y-75301242D01*
X177155904Y-75293045D01*
X177189273Y-75288095D01*
X177222966Y-75286440D01*
X178335466Y-75286440D01*
X178369159Y-75288095D01*
X178369159Y-75288095D01*
G37*
D12*
X177779216Y-75973940D03*
G04 #@! TD*
D11*
G04 #@! TO.C,C6*
G36*
X161722923Y-73413095D02*
X161756292Y-73418045D01*
X161789015Y-73426242D01*
X161820777Y-73437606D01*
X161851273Y-73452030D01*
X161880207Y-73469372D01*
X161907303Y-73489468D01*
X161932298Y-73512122D01*
X161954952Y-73537117D01*
X161975048Y-73564213D01*
X161992390Y-73593147D01*
X162006814Y-73623643D01*
X162018178Y-73655405D01*
X162026375Y-73688128D01*
X162031325Y-73721497D01*
X162032980Y-73755190D01*
X162032980Y-74442690D01*
X162031325Y-74476383D01*
X162026375Y-74509752D01*
X162018178Y-74542475D01*
X162006814Y-74574237D01*
X161992390Y-74604733D01*
X161975048Y-74633667D01*
X161954952Y-74660763D01*
X161932298Y-74685758D01*
X161907303Y-74708412D01*
X161880207Y-74728508D01*
X161851273Y-74745850D01*
X161820777Y-74760274D01*
X161789015Y-74771638D01*
X161756292Y-74779835D01*
X161722923Y-74784785D01*
X161689230Y-74786440D01*
X160576730Y-74786440D01*
X160543037Y-74784785D01*
X160509668Y-74779835D01*
X160476945Y-74771638D01*
X160445183Y-74760274D01*
X160414687Y-74745850D01*
X160385753Y-74728508D01*
X160358657Y-74708412D01*
X160333662Y-74685758D01*
X160311008Y-74660763D01*
X160290912Y-74633667D01*
X160273570Y-74604733D01*
X160259146Y-74574237D01*
X160247782Y-74542475D01*
X160239585Y-74509752D01*
X160234635Y-74476383D01*
X160232980Y-74442690D01*
X160232980Y-73755190D01*
X160234635Y-73721497D01*
X160239585Y-73688128D01*
X160247782Y-73655405D01*
X160259146Y-73623643D01*
X160273570Y-73593147D01*
X160290912Y-73564213D01*
X160311008Y-73537117D01*
X160333662Y-73512122D01*
X160358657Y-73489468D01*
X160385753Y-73469372D01*
X160414687Y-73452030D01*
X160445183Y-73437606D01*
X160476945Y-73426242D01*
X160509668Y-73418045D01*
X160543037Y-73413095D01*
X160576730Y-73411440D01*
X161689230Y-73411440D01*
X161722923Y-73413095D01*
X161722923Y-73413095D01*
G37*
D12*
X161132980Y-74098940D03*
D11*
G36*
X161722923Y-75288095D02*
X161756292Y-75293045D01*
X161789015Y-75301242D01*
X161820777Y-75312606D01*
X161851273Y-75327030D01*
X161880207Y-75344372D01*
X161907303Y-75364468D01*
X161932298Y-75387122D01*
X161954952Y-75412117D01*
X161975048Y-75439213D01*
X161992390Y-75468147D01*
X162006814Y-75498643D01*
X162018178Y-75530405D01*
X162026375Y-75563128D01*
X162031325Y-75596497D01*
X162032980Y-75630190D01*
X162032980Y-76317690D01*
X162031325Y-76351383D01*
X162026375Y-76384752D01*
X162018178Y-76417475D01*
X162006814Y-76449237D01*
X161992390Y-76479733D01*
X161975048Y-76508667D01*
X161954952Y-76535763D01*
X161932298Y-76560758D01*
X161907303Y-76583412D01*
X161880207Y-76603508D01*
X161851273Y-76620850D01*
X161820777Y-76635274D01*
X161789015Y-76646638D01*
X161756292Y-76654835D01*
X161722923Y-76659785D01*
X161689230Y-76661440D01*
X160576730Y-76661440D01*
X160543037Y-76659785D01*
X160509668Y-76654835D01*
X160476945Y-76646638D01*
X160445183Y-76635274D01*
X160414687Y-76620850D01*
X160385753Y-76603508D01*
X160358657Y-76583412D01*
X160333662Y-76560758D01*
X160311008Y-76535763D01*
X160290912Y-76508667D01*
X160273570Y-76479733D01*
X160259146Y-76449237D01*
X160247782Y-76417475D01*
X160239585Y-76384752D01*
X160234635Y-76351383D01*
X160232980Y-76317690D01*
X160232980Y-75630190D01*
X160234635Y-75596497D01*
X160239585Y-75563128D01*
X160247782Y-75530405D01*
X160259146Y-75498643D01*
X160273570Y-75468147D01*
X160290912Y-75439213D01*
X160311008Y-75412117D01*
X160333662Y-75387122D01*
X160358657Y-75364468D01*
X160385753Y-75344372D01*
X160414687Y-75327030D01*
X160445183Y-75312606D01*
X160476945Y-75301242D01*
X160509668Y-75293045D01*
X160543037Y-75288095D01*
X160576730Y-75286440D01*
X161689230Y-75286440D01*
X161722923Y-75288095D01*
X161722923Y-75288095D01*
G37*
D12*
X161132980Y-75973940D03*
G04 #@! TD*
D11*
G04 #@! TO.C,C5*
G36*
X145076687Y-73413095D02*
X145110056Y-73418045D01*
X145142779Y-73426242D01*
X145174541Y-73437606D01*
X145205037Y-73452030D01*
X145233971Y-73469372D01*
X145261067Y-73489468D01*
X145286062Y-73512122D01*
X145308716Y-73537117D01*
X145328812Y-73564213D01*
X145346154Y-73593147D01*
X145360578Y-73623643D01*
X145371942Y-73655405D01*
X145380139Y-73688128D01*
X145385089Y-73721497D01*
X145386744Y-73755190D01*
X145386744Y-74442690D01*
X145385089Y-74476383D01*
X145380139Y-74509752D01*
X145371942Y-74542475D01*
X145360578Y-74574237D01*
X145346154Y-74604733D01*
X145328812Y-74633667D01*
X145308716Y-74660763D01*
X145286062Y-74685758D01*
X145261067Y-74708412D01*
X145233971Y-74728508D01*
X145205037Y-74745850D01*
X145174541Y-74760274D01*
X145142779Y-74771638D01*
X145110056Y-74779835D01*
X145076687Y-74784785D01*
X145042994Y-74786440D01*
X143930494Y-74786440D01*
X143896801Y-74784785D01*
X143863432Y-74779835D01*
X143830709Y-74771638D01*
X143798947Y-74760274D01*
X143768451Y-74745850D01*
X143739517Y-74728508D01*
X143712421Y-74708412D01*
X143687426Y-74685758D01*
X143664772Y-74660763D01*
X143644676Y-74633667D01*
X143627334Y-74604733D01*
X143612910Y-74574237D01*
X143601546Y-74542475D01*
X143593349Y-74509752D01*
X143588399Y-74476383D01*
X143586744Y-74442690D01*
X143586744Y-73755190D01*
X143588399Y-73721497D01*
X143593349Y-73688128D01*
X143601546Y-73655405D01*
X143612910Y-73623643D01*
X143627334Y-73593147D01*
X143644676Y-73564213D01*
X143664772Y-73537117D01*
X143687426Y-73512122D01*
X143712421Y-73489468D01*
X143739517Y-73469372D01*
X143768451Y-73452030D01*
X143798947Y-73437606D01*
X143830709Y-73426242D01*
X143863432Y-73418045D01*
X143896801Y-73413095D01*
X143930494Y-73411440D01*
X145042994Y-73411440D01*
X145076687Y-73413095D01*
X145076687Y-73413095D01*
G37*
D12*
X144486744Y-74098940D03*
D11*
G36*
X145076687Y-75288095D02*
X145110056Y-75293045D01*
X145142779Y-75301242D01*
X145174541Y-75312606D01*
X145205037Y-75327030D01*
X145233971Y-75344372D01*
X145261067Y-75364468D01*
X145286062Y-75387122D01*
X145308716Y-75412117D01*
X145328812Y-75439213D01*
X145346154Y-75468147D01*
X145360578Y-75498643D01*
X145371942Y-75530405D01*
X145380139Y-75563128D01*
X145385089Y-75596497D01*
X145386744Y-75630190D01*
X145386744Y-76317690D01*
X145385089Y-76351383D01*
X145380139Y-76384752D01*
X145371942Y-76417475D01*
X145360578Y-76449237D01*
X145346154Y-76479733D01*
X145328812Y-76508667D01*
X145308716Y-76535763D01*
X145286062Y-76560758D01*
X145261067Y-76583412D01*
X145233971Y-76603508D01*
X145205037Y-76620850D01*
X145174541Y-76635274D01*
X145142779Y-76646638D01*
X145110056Y-76654835D01*
X145076687Y-76659785D01*
X145042994Y-76661440D01*
X143930494Y-76661440D01*
X143896801Y-76659785D01*
X143863432Y-76654835D01*
X143830709Y-76646638D01*
X143798947Y-76635274D01*
X143768451Y-76620850D01*
X143739517Y-76603508D01*
X143712421Y-76583412D01*
X143687426Y-76560758D01*
X143664772Y-76535763D01*
X143644676Y-76508667D01*
X143627334Y-76479733D01*
X143612910Y-76449237D01*
X143601546Y-76417475D01*
X143593349Y-76384752D01*
X143588399Y-76351383D01*
X143586744Y-76317690D01*
X143586744Y-75630190D01*
X143588399Y-75596497D01*
X143593349Y-75563128D01*
X143601546Y-75530405D01*
X143612910Y-75498643D01*
X143627334Y-75468147D01*
X143644676Y-75439213D01*
X143664772Y-75412117D01*
X143687426Y-75387122D01*
X143712421Y-75364468D01*
X143739517Y-75344372D01*
X143768451Y-75327030D01*
X143798947Y-75312606D01*
X143830709Y-75301242D01*
X143863432Y-75293045D01*
X143896801Y-75288095D01*
X143930494Y-75286440D01*
X145042994Y-75286440D01*
X145076687Y-75288095D01*
X145076687Y-75288095D01*
G37*
D12*
X144486744Y-75973940D03*
G04 #@! TD*
D11*
G04 #@! TO.C,C4*
G36*
X128430451Y-73413095D02*
X128463820Y-73418045D01*
X128496543Y-73426242D01*
X128528305Y-73437606D01*
X128558801Y-73452030D01*
X128587735Y-73469372D01*
X128614831Y-73489468D01*
X128639826Y-73512122D01*
X128662480Y-73537117D01*
X128682576Y-73564213D01*
X128699918Y-73593147D01*
X128714342Y-73623643D01*
X128725706Y-73655405D01*
X128733903Y-73688128D01*
X128738853Y-73721497D01*
X128740508Y-73755190D01*
X128740508Y-74442690D01*
X128738853Y-74476383D01*
X128733903Y-74509752D01*
X128725706Y-74542475D01*
X128714342Y-74574237D01*
X128699918Y-74604733D01*
X128682576Y-74633667D01*
X128662480Y-74660763D01*
X128639826Y-74685758D01*
X128614831Y-74708412D01*
X128587735Y-74728508D01*
X128558801Y-74745850D01*
X128528305Y-74760274D01*
X128496543Y-74771638D01*
X128463820Y-74779835D01*
X128430451Y-74784785D01*
X128396758Y-74786440D01*
X127284258Y-74786440D01*
X127250565Y-74784785D01*
X127217196Y-74779835D01*
X127184473Y-74771638D01*
X127152711Y-74760274D01*
X127122215Y-74745850D01*
X127093281Y-74728508D01*
X127066185Y-74708412D01*
X127041190Y-74685758D01*
X127018536Y-74660763D01*
X126998440Y-74633667D01*
X126981098Y-74604733D01*
X126966674Y-74574237D01*
X126955310Y-74542475D01*
X126947113Y-74509752D01*
X126942163Y-74476383D01*
X126940508Y-74442690D01*
X126940508Y-73755190D01*
X126942163Y-73721497D01*
X126947113Y-73688128D01*
X126955310Y-73655405D01*
X126966674Y-73623643D01*
X126981098Y-73593147D01*
X126998440Y-73564213D01*
X127018536Y-73537117D01*
X127041190Y-73512122D01*
X127066185Y-73489468D01*
X127093281Y-73469372D01*
X127122215Y-73452030D01*
X127152711Y-73437606D01*
X127184473Y-73426242D01*
X127217196Y-73418045D01*
X127250565Y-73413095D01*
X127284258Y-73411440D01*
X128396758Y-73411440D01*
X128430451Y-73413095D01*
X128430451Y-73413095D01*
G37*
D12*
X127840508Y-74098940D03*
D11*
G36*
X128430451Y-75288095D02*
X128463820Y-75293045D01*
X128496543Y-75301242D01*
X128528305Y-75312606D01*
X128558801Y-75327030D01*
X128587735Y-75344372D01*
X128614831Y-75364468D01*
X128639826Y-75387122D01*
X128662480Y-75412117D01*
X128682576Y-75439213D01*
X128699918Y-75468147D01*
X128714342Y-75498643D01*
X128725706Y-75530405D01*
X128733903Y-75563128D01*
X128738853Y-75596497D01*
X128740508Y-75630190D01*
X128740508Y-76317690D01*
X128738853Y-76351383D01*
X128733903Y-76384752D01*
X128725706Y-76417475D01*
X128714342Y-76449237D01*
X128699918Y-76479733D01*
X128682576Y-76508667D01*
X128662480Y-76535763D01*
X128639826Y-76560758D01*
X128614831Y-76583412D01*
X128587735Y-76603508D01*
X128558801Y-76620850D01*
X128528305Y-76635274D01*
X128496543Y-76646638D01*
X128463820Y-76654835D01*
X128430451Y-76659785D01*
X128396758Y-76661440D01*
X127284258Y-76661440D01*
X127250565Y-76659785D01*
X127217196Y-76654835D01*
X127184473Y-76646638D01*
X127152711Y-76635274D01*
X127122215Y-76620850D01*
X127093281Y-76603508D01*
X127066185Y-76583412D01*
X127041190Y-76560758D01*
X127018536Y-76535763D01*
X126998440Y-76508667D01*
X126981098Y-76479733D01*
X126966674Y-76449237D01*
X126955310Y-76417475D01*
X126947113Y-76384752D01*
X126942163Y-76351383D01*
X126940508Y-76317690D01*
X126940508Y-75630190D01*
X126942163Y-75596497D01*
X126947113Y-75563128D01*
X126955310Y-75530405D01*
X126966674Y-75498643D01*
X126981098Y-75468147D01*
X126998440Y-75439213D01*
X127018536Y-75412117D01*
X127041190Y-75387122D01*
X127066185Y-75364468D01*
X127093281Y-75344372D01*
X127122215Y-75327030D01*
X127152711Y-75312606D01*
X127184473Y-75301242D01*
X127217196Y-75293045D01*
X127250565Y-75288095D01*
X127284258Y-75286440D01*
X128396758Y-75286440D01*
X128430451Y-75288095D01*
X128430451Y-75288095D01*
G37*
D12*
X127840508Y-75973940D03*
G04 #@! TD*
D11*
G04 #@! TO.C,C3*
G36*
X111784215Y-73413095D02*
X111817584Y-73418045D01*
X111850307Y-73426242D01*
X111882069Y-73437606D01*
X111912565Y-73452030D01*
X111941499Y-73469372D01*
X111968595Y-73489468D01*
X111993590Y-73512122D01*
X112016244Y-73537117D01*
X112036340Y-73564213D01*
X112053682Y-73593147D01*
X112068106Y-73623643D01*
X112079470Y-73655405D01*
X112087667Y-73688128D01*
X112092617Y-73721497D01*
X112094272Y-73755190D01*
X112094272Y-74442690D01*
X112092617Y-74476383D01*
X112087667Y-74509752D01*
X112079470Y-74542475D01*
X112068106Y-74574237D01*
X112053682Y-74604733D01*
X112036340Y-74633667D01*
X112016244Y-74660763D01*
X111993590Y-74685758D01*
X111968595Y-74708412D01*
X111941499Y-74728508D01*
X111912565Y-74745850D01*
X111882069Y-74760274D01*
X111850307Y-74771638D01*
X111817584Y-74779835D01*
X111784215Y-74784785D01*
X111750522Y-74786440D01*
X110638022Y-74786440D01*
X110604329Y-74784785D01*
X110570960Y-74779835D01*
X110538237Y-74771638D01*
X110506475Y-74760274D01*
X110475979Y-74745850D01*
X110447045Y-74728508D01*
X110419949Y-74708412D01*
X110394954Y-74685758D01*
X110372300Y-74660763D01*
X110352204Y-74633667D01*
X110334862Y-74604733D01*
X110320438Y-74574237D01*
X110309074Y-74542475D01*
X110300877Y-74509752D01*
X110295927Y-74476383D01*
X110294272Y-74442690D01*
X110294272Y-73755190D01*
X110295927Y-73721497D01*
X110300877Y-73688128D01*
X110309074Y-73655405D01*
X110320438Y-73623643D01*
X110334862Y-73593147D01*
X110352204Y-73564213D01*
X110372300Y-73537117D01*
X110394954Y-73512122D01*
X110419949Y-73489468D01*
X110447045Y-73469372D01*
X110475979Y-73452030D01*
X110506475Y-73437606D01*
X110538237Y-73426242D01*
X110570960Y-73418045D01*
X110604329Y-73413095D01*
X110638022Y-73411440D01*
X111750522Y-73411440D01*
X111784215Y-73413095D01*
X111784215Y-73413095D01*
G37*
D12*
X111194272Y-74098940D03*
D11*
G36*
X111784215Y-75288095D02*
X111817584Y-75293045D01*
X111850307Y-75301242D01*
X111882069Y-75312606D01*
X111912565Y-75327030D01*
X111941499Y-75344372D01*
X111968595Y-75364468D01*
X111993590Y-75387122D01*
X112016244Y-75412117D01*
X112036340Y-75439213D01*
X112053682Y-75468147D01*
X112068106Y-75498643D01*
X112079470Y-75530405D01*
X112087667Y-75563128D01*
X112092617Y-75596497D01*
X112094272Y-75630190D01*
X112094272Y-76317690D01*
X112092617Y-76351383D01*
X112087667Y-76384752D01*
X112079470Y-76417475D01*
X112068106Y-76449237D01*
X112053682Y-76479733D01*
X112036340Y-76508667D01*
X112016244Y-76535763D01*
X111993590Y-76560758D01*
X111968595Y-76583412D01*
X111941499Y-76603508D01*
X111912565Y-76620850D01*
X111882069Y-76635274D01*
X111850307Y-76646638D01*
X111817584Y-76654835D01*
X111784215Y-76659785D01*
X111750522Y-76661440D01*
X110638022Y-76661440D01*
X110604329Y-76659785D01*
X110570960Y-76654835D01*
X110538237Y-76646638D01*
X110506475Y-76635274D01*
X110475979Y-76620850D01*
X110447045Y-76603508D01*
X110419949Y-76583412D01*
X110394954Y-76560758D01*
X110372300Y-76535763D01*
X110352204Y-76508667D01*
X110334862Y-76479733D01*
X110320438Y-76449237D01*
X110309074Y-76417475D01*
X110300877Y-76384752D01*
X110295927Y-76351383D01*
X110294272Y-76317690D01*
X110294272Y-75630190D01*
X110295927Y-75596497D01*
X110300877Y-75563128D01*
X110309074Y-75530405D01*
X110320438Y-75498643D01*
X110334862Y-75468147D01*
X110352204Y-75439213D01*
X110372300Y-75412117D01*
X110394954Y-75387122D01*
X110419949Y-75364468D01*
X110447045Y-75344372D01*
X110475979Y-75327030D01*
X110506475Y-75312606D01*
X110538237Y-75301242D01*
X110570960Y-75293045D01*
X110604329Y-75288095D01*
X110638022Y-75286440D01*
X111750522Y-75286440D01*
X111784215Y-75288095D01*
X111784215Y-75288095D01*
G37*
D12*
X111194272Y-75973940D03*
G04 #@! TD*
D11*
G04 #@! TO.C,C2*
G36*
X95137979Y-73413095D02*
X95171348Y-73418045D01*
X95204071Y-73426242D01*
X95235833Y-73437606D01*
X95266329Y-73452030D01*
X95295263Y-73469372D01*
X95322359Y-73489468D01*
X95347354Y-73512122D01*
X95370008Y-73537117D01*
X95390104Y-73564213D01*
X95407446Y-73593147D01*
X95421870Y-73623643D01*
X95433234Y-73655405D01*
X95441431Y-73688128D01*
X95446381Y-73721497D01*
X95448036Y-73755190D01*
X95448036Y-74442690D01*
X95446381Y-74476383D01*
X95441431Y-74509752D01*
X95433234Y-74542475D01*
X95421870Y-74574237D01*
X95407446Y-74604733D01*
X95390104Y-74633667D01*
X95370008Y-74660763D01*
X95347354Y-74685758D01*
X95322359Y-74708412D01*
X95295263Y-74728508D01*
X95266329Y-74745850D01*
X95235833Y-74760274D01*
X95204071Y-74771638D01*
X95171348Y-74779835D01*
X95137979Y-74784785D01*
X95104286Y-74786440D01*
X93991786Y-74786440D01*
X93958093Y-74784785D01*
X93924724Y-74779835D01*
X93892001Y-74771638D01*
X93860239Y-74760274D01*
X93829743Y-74745850D01*
X93800809Y-74728508D01*
X93773713Y-74708412D01*
X93748718Y-74685758D01*
X93726064Y-74660763D01*
X93705968Y-74633667D01*
X93688626Y-74604733D01*
X93674202Y-74574237D01*
X93662838Y-74542475D01*
X93654641Y-74509752D01*
X93649691Y-74476383D01*
X93648036Y-74442690D01*
X93648036Y-73755190D01*
X93649691Y-73721497D01*
X93654641Y-73688128D01*
X93662838Y-73655405D01*
X93674202Y-73623643D01*
X93688626Y-73593147D01*
X93705968Y-73564213D01*
X93726064Y-73537117D01*
X93748718Y-73512122D01*
X93773713Y-73489468D01*
X93800809Y-73469372D01*
X93829743Y-73452030D01*
X93860239Y-73437606D01*
X93892001Y-73426242D01*
X93924724Y-73418045D01*
X93958093Y-73413095D01*
X93991786Y-73411440D01*
X95104286Y-73411440D01*
X95137979Y-73413095D01*
X95137979Y-73413095D01*
G37*
D12*
X94548036Y-74098940D03*
D11*
G36*
X95137979Y-75288095D02*
X95171348Y-75293045D01*
X95204071Y-75301242D01*
X95235833Y-75312606D01*
X95266329Y-75327030D01*
X95295263Y-75344372D01*
X95322359Y-75364468D01*
X95347354Y-75387122D01*
X95370008Y-75412117D01*
X95390104Y-75439213D01*
X95407446Y-75468147D01*
X95421870Y-75498643D01*
X95433234Y-75530405D01*
X95441431Y-75563128D01*
X95446381Y-75596497D01*
X95448036Y-75630190D01*
X95448036Y-76317690D01*
X95446381Y-76351383D01*
X95441431Y-76384752D01*
X95433234Y-76417475D01*
X95421870Y-76449237D01*
X95407446Y-76479733D01*
X95390104Y-76508667D01*
X95370008Y-76535763D01*
X95347354Y-76560758D01*
X95322359Y-76583412D01*
X95295263Y-76603508D01*
X95266329Y-76620850D01*
X95235833Y-76635274D01*
X95204071Y-76646638D01*
X95171348Y-76654835D01*
X95137979Y-76659785D01*
X95104286Y-76661440D01*
X93991786Y-76661440D01*
X93958093Y-76659785D01*
X93924724Y-76654835D01*
X93892001Y-76646638D01*
X93860239Y-76635274D01*
X93829743Y-76620850D01*
X93800809Y-76603508D01*
X93773713Y-76583412D01*
X93748718Y-76560758D01*
X93726064Y-76535763D01*
X93705968Y-76508667D01*
X93688626Y-76479733D01*
X93674202Y-76449237D01*
X93662838Y-76417475D01*
X93654641Y-76384752D01*
X93649691Y-76351383D01*
X93648036Y-76317690D01*
X93648036Y-75630190D01*
X93649691Y-75596497D01*
X93654641Y-75563128D01*
X93662838Y-75530405D01*
X93674202Y-75498643D01*
X93688626Y-75468147D01*
X93705968Y-75439213D01*
X93726064Y-75412117D01*
X93748718Y-75387122D01*
X93773713Y-75364468D01*
X93800809Y-75344372D01*
X93829743Y-75327030D01*
X93860239Y-75312606D01*
X93892001Y-75301242D01*
X93924724Y-75293045D01*
X93958093Y-75288095D01*
X93991786Y-75286440D01*
X95104286Y-75286440D01*
X95137979Y-75288095D01*
X95137979Y-75288095D01*
G37*
D12*
X94548036Y-75973940D03*
G04 #@! TD*
D11*
G04 #@! TO.C,C1*
G36*
X69038483Y-66381175D02*
X69071852Y-66386125D01*
X69104575Y-66394322D01*
X69136337Y-66405686D01*
X69166833Y-66420110D01*
X69195767Y-66437452D01*
X69222863Y-66457548D01*
X69247858Y-66480202D01*
X69270512Y-66505197D01*
X69290608Y-66532293D01*
X69307950Y-66561227D01*
X69322374Y-66591723D01*
X69333738Y-66623485D01*
X69341935Y-66656208D01*
X69346885Y-66689577D01*
X69348540Y-66723270D01*
X69348540Y-67835770D01*
X69346885Y-67869463D01*
X69341935Y-67902832D01*
X69333738Y-67935555D01*
X69322374Y-67967317D01*
X69307950Y-67997813D01*
X69290608Y-68026747D01*
X69270512Y-68053843D01*
X69247858Y-68078838D01*
X69222863Y-68101492D01*
X69195767Y-68121588D01*
X69166833Y-68138930D01*
X69136337Y-68153354D01*
X69104575Y-68164718D01*
X69071852Y-68172915D01*
X69038483Y-68177865D01*
X69004790Y-68179520D01*
X68317290Y-68179520D01*
X68283597Y-68177865D01*
X68250228Y-68172915D01*
X68217505Y-68164718D01*
X68185743Y-68153354D01*
X68155247Y-68138930D01*
X68126313Y-68121588D01*
X68099217Y-68101492D01*
X68074222Y-68078838D01*
X68051568Y-68053843D01*
X68031472Y-68026747D01*
X68014130Y-67997813D01*
X67999706Y-67967317D01*
X67988342Y-67935555D01*
X67980145Y-67902832D01*
X67975195Y-67869463D01*
X67973540Y-67835770D01*
X67973540Y-66723270D01*
X67975195Y-66689577D01*
X67980145Y-66656208D01*
X67988342Y-66623485D01*
X67999706Y-66591723D01*
X68014130Y-66561227D01*
X68031472Y-66532293D01*
X68051568Y-66505197D01*
X68074222Y-66480202D01*
X68099217Y-66457548D01*
X68126313Y-66437452D01*
X68155247Y-66420110D01*
X68185743Y-66405686D01*
X68217505Y-66394322D01*
X68250228Y-66386125D01*
X68283597Y-66381175D01*
X68317290Y-66379520D01*
X69004790Y-66379520D01*
X69038483Y-66381175D01*
X69038483Y-66381175D01*
G37*
D12*
X68661040Y-67279520D03*
D11*
G36*
X70913483Y-66381175D02*
X70946852Y-66386125D01*
X70979575Y-66394322D01*
X71011337Y-66405686D01*
X71041833Y-66420110D01*
X71070767Y-66437452D01*
X71097863Y-66457548D01*
X71122858Y-66480202D01*
X71145512Y-66505197D01*
X71165608Y-66532293D01*
X71182950Y-66561227D01*
X71197374Y-66591723D01*
X71208738Y-66623485D01*
X71216935Y-66656208D01*
X71221885Y-66689577D01*
X71223540Y-66723270D01*
X71223540Y-67835770D01*
X71221885Y-67869463D01*
X71216935Y-67902832D01*
X71208738Y-67935555D01*
X71197374Y-67967317D01*
X71182950Y-67997813D01*
X71165608Y-68026747D01*
X71145512Y-68053843D01*
X71122858Y-68078838D01*
X71097863Y-68101492D01*
X71070767Y-68121588D01*
X71041833Y-68138930D01*
X71011337Y-68153354D01*
X70979575Y-68164718D01*
X70946852Y-68172915D01*
X70913483Y-68177865D01*
X70879790Y-68179520D01*
X70192290Y-68179520D01*
X70158597Y-68177865D01*
X70125228Y-68172915D01*
X70092505Y-68164718D01*
X70060743Y-68153354D01*
X70030247Y-68138930D01*
X70001313Y-68121588D01*
X69974217Y-68101492D01*
X69949222Y-68078838D01*
X69926568Y-68053843D01*
X69906472Y-68026747D01*
X69889130Y-67997813D01*
X69874706Y-67967317D01*
X69863342Y-67935555D01*
X69855145Y-67902832D01*
X69850195Y-67869463D01*
X69848540Y-67835770D01*
X69848540Y-66723270D01*
X69850195Y-66689577D01*
X69855145Y-66656208D01*
X69863342Y-66623485D01*
X69874706Y-66591723D01*
X69889130Y-66561227D01*
X69906472Y-66532293D01*
X69926568Y-66505197D01*
X69949222Y-66480202D01*
X69974217Y-66457548D01*
X70001313Y-66437452D01*
X70030247Y-66420110D01*
X70060743Y-66405686D01*
X70092505Y-66394322D01*
X70125228Y-66386125D01*
X70158597Y-66381175D01*
X70192290Y-66379520D01*
X70879790Y-66379520D01*
X70913483Y-66381175D01*
X70913483Y-66381175D01*
G37*
D12*
X70536040Y-67279520D03*
G04 #@! TD*
D13*
G04 #@! TO.C,J2*
X314035440Y-76484480D03*
X314035440Y-74452480D03*
X314035440Y-72420480D03*
G04 #@! TD*
M02*
