<?xml version="1.0" standalone="no"?>
 <!DOCTYPE svg PUBLIC "-//W3C//DTD SVG 1.1//EN" 
 "http://www.w3.org/Graphics/SVG/1.1/DTD/svg11.dtd"> 
<svg xmlns="http://www.w3.org/2000/svg" version="1.1" 
    width="41.9989cm" height="29.7002cm" viewBox="0 0 165350 116930 ">
<title>SVG Picture created as BCInside-Edge_Cuts.svg date 2019/04/12 10:45:59 </title>
  <desc>Picture generated by PCBNEW </desc>
<g style="fill:#000000; fill-opacity:1;stroke:#000000; stroke-opacity:1;
stroke-linecap:round; stroke-linejoin:round; "
 transform="translate(0 0) scale(1 1)">
</g>
<g style="fill:#000000; fill-opacity:0.0; 
stroke:#000000; stroke-width:-0.000393701; stroke-opacity:1; 
stroke-linecap:round; stroke-linejoin:round;">
</g>
<g style="fill:#000000; fill-opacity:0.0; 
stroke:#000000; stroke-width:39.3701; stroke-opacity:1; 
stroke-linecap:round; stroke-linejoin:round;">
<circle cx="116000" cy="29400" r="580" /> 
<circle cx="83200" cy="29400" r="580" /> 
<circle cx="30675" cy="29375" r="580" /> 
<path d="M127638 26186
L127526 25966
" />
<path d="M125314 32924
L124133 32924
" />
<path d="M125588 32881
L125314 32924
" />
<path d="M125835 32755
L125588 32881
" />
<path d="M126030 32559
L125835 32755
" />
<path d="M126156 32313
L126030 32559
" />
<path d="M126199 32039
L126156 32313
" />
<path d="M126156 31766
L126199 32039
" />
<path d="M126030 31519
L126156 31766
" />
<path d="M125835 31323
L126030 31519
" />
<path d="M125588 31197
L125835 31323
" />
<path d="M125314 31154
L125588 31197
" />
<path d="M124133 31154
L125314 31154
" />
<path d="M123860 31197
L124133 31154
" />
<path d="M123613 31323
L123860 31197
" />
<path d="M123417 31519
L123613 31323
" />
<path d="M123292 31766
L123417 31519
" />
<path d="M123248 32039
L123292 31766
" />
<path d="M123292 32313
L123248 32039
" />
<path d="M123417 32559
L123292 32313
" />
<path d="M123613 32755
L123417 32559
" />
<path d="M123860 32881
L123613 32755
" />
<path d="M124133 32924
L123860 32881
" />
<path d="M22537 32924
L21355 32924
" />
<path d="M22810 32881
L22537 32924
" />
<path d="M23057 32755
L22810 32881
" />
<path d="M23252 32559
L23057 32755
" />
<path d="M23378 32313
L23252 32559
" />
<path d="M23422 32039
L23378 32313
" />
<path d="M23378 31766
L23422 32039
" />
<path d="M23252 31519
L23378 31766
" />
<path d="M23057 31323
L23252 31519
" />
<path d="M22810 31197
L23057 31323
" />
<path d="M22537 31154
L22810 31197
" />
<path d="M21355 31154
L22537 31154
" />
<path d="M21082 31197
L21355 31154
" />
<path d="M20835 31323
L21082 31197
" />
<path d="M20639 31519
L20835 31323
" />
<path d="M20514 31766
L20639 31519
" />
<path d="M20470 32039
L20514 31766
" />
<path d="M20514 32313
L20470 32039
" />
<path d="M20639 32559
L20514 32313
" />
<path d="M20835 32755
L20639 32559
" />
<path d="M21082 32881
L20835 32755
" />
<path d="M21355 32924
L21082 32881
" />
<path d="M125314 27609
L124133 27609
" />
<path d="M125588 27566
L125314 27609
" />
<path d="M125835 27440
L125588 27566
" />
<path d="M126030 27244
L125835 27440
" />
<path d="M126156 26998
L126030 27244
" />
<path d="M126199 26724
L126156 26998
" />
<path d="M126156 26451
L126199 26724
" />
<path d="M126030 26204
L126156 26451
" />
<path d="M125835 26008
L126030 26204
" />
<path d="M125588 25882
L125835 26008
" />
<path d="M125314 25839
L125588 25882
" />
<path d="M124133 25839
L125314 25839
" />
<path d="M123860 25882
L124133 25839
" />
<path d="M123613 26008
L123860 25882
" />
<path d="M123417 26204
L123613 26008
" />
<path d="M123292 26451
L123417 26204
" />
<path d="M123248 26724
L123292 26451
" />
<path d="M123292 26998
L123248 26724
" />
<path d="M123417 27244
L123292 26998
" />
<path d="M123613 27440
L123417 27244
" />
<path d="M123860 27566
L123613 27440
" />
<path d="M124133 27609
L123860 27566
" />
<path d="M22537 27609
L21355 27609
" />
<path d="M22810 27566
L22537 27609
" />
<path d="M23057 27440
L22810 27566
" />
<path d="M23252 27244
L23057 27440
" />
<path d="M23378 26998
L23252 27244
" />
<path d="M23422 26724
L23378 26998
" />
<path d="M23378 26451
L23422 26724
" />
<path d="M23252 26204
L23378 26451
" />
<path d="M23057 26008
L23252 26204
" />
<path d="M22810 25882
L23057 26008
" />
<path d="M22537 25839
L22810 25882
" />
<path d="M21355 25839
L22537 25839
" />
<path d="M21082 25882
L21355 25839
" />
<path d="M20835 26008
L21082 25882
" />
<path d="M20639 26204
L20835 26008
" />
<path d="M20514 26451
L20639 26204
" />
<path d="M20470 26724
L20514 26451
" />
<path d="M20514 26998
L20470 26724
" />
<path d="M20639 27244
L20514 26998
" />
<path d="M20835 27440
L20639 27244
" />
<path d="M21082 27566
L20835 27440
" />
<path d="M21355 27609
L21082 27566
" />
<path d="M126987 28201
L126987 28989
" />
<path d="M125412 28201
L126987 28201
" />
<path d="M125412 28989
L125412 28201
" />
<path d="M126987 28989
L125412 28989
" />
<path d="M126987 29698
L126987 30485
" />
<path d="M125412 29698
L126987 29698
" />
<path d="M125412 30485
L125412 29698
" />
<path d="M126987 30485
L125412 30485
" />
<path d="M21300 28201
L21300 28988
" />
<path d="M19725 28201
L21300 28201
" />
<path d="M19725 28988
L19725 28201
" />
<path d="M21300 28988
L19725 28988
" />
<path d="M21300 29775
L21300 30563
" />
<path d="M19725 29775
L21300 29775
" />
<path d="M19725 30563
L19725 29775
" />
<path d="M21300 30563
L19725 30563
" />
<path d="M127676 26429
L127638 26186
" />
<path d="M127676 32334
L127676 26429
" />
<path d="M127638 32578
L127676 32334
" />
<path d="M127526 32797
L127638 32578
" />
<path d="M127352 32971
L127526 32797
" />
<path d="M127133 33083
L127352 32971
" />
<path d="M126889 33122
L127133 33083
" />
<path d="M126766 33122
L126889 33122
" />
<path d="M126708 33234
L126766 33122
" />
<path d="M126512 33430
L126708 33234
" />
<path d="M126266 33556
L126512 33430
" />
<path d="M125992 33599
L126266 33556
" />
<path d="M123455 33599
L125992 33599
" />
<path d="M123182 33556
L123455 33599
" />
<path d="M122935 33430
L123182 33556
" />
<path d="M122739 33234
L122935 33430
" />
<path d="M122682 33122
L122739 33234
" />
<path d="M23988 33122
L122682 33122
" />
<path d="M23930 33234
L23988 33122
" />
<path d="M23735 33430
L23930 33234
" />
<path d="M23488 33556
L23735 33430
" />
<path d="M23214 33599
L23488 33556
" />
<path d="M20677 33599
L23214 33599
" />
<path d="M20404 33556
L20677 33599
" />
<path d="M20157 33430
L20404 33556
" />
<path d="M19961 33234
L20157 33430
" />
<path d="M19904 33122
L19961 33234
" />
<path d="M19781 33122
L19904 33122
" />
<path d="M19537 33083
L19781 33122
" />
<path d="M19318 32971
L19537 33083
" />
<path d="M19144 32797
L19318 32971
" />
<path d="M19032 32578
L19144 32797
" />
<path d="M18993 32334
L19032 32578
" />
<path d="M18993 26429
L18993 32334
" />
<path d="M19032 26186
L18993 26429
" />
<path d="M19144 25966
L19032 26186
" />
<path d="M19318 25792
L19144 25966
" />
<path d="M19537 25680
L19318 25792
" />
<path d="M19781 25642
L19537 25680
" />
<path d="M19904 25642
L19781 25642
" />
<path d="M19961 25529
L19904 25642
" />
<path d="M20157 25333
L19961 25529
" />
<path d="M20404 25208
L20157 25333
" />
<path d="M20677 25164
L20404 25208
" />
<path d="M23214 25164
L20677 25164
" />
<path d="M23488 25208
L23214 25164
" />
<path d="M23735 25333
L23488 25208
" />
<path d="M23930 25529
L23735 25333
" />
<path d="M23988 25642
L23930 25529
" />
<path d="M122682 25642
L23988 25642
" />
<path d="M122739 25529
L122682 25642
" />
<path d="M122935 25333
L122739 25529
" />
<path d="M123182 25208
L122935 25333
" />
<path d="M123455 25164
L123182 25208
" />
<path d="M125992 25164
L123455 25164
" />
<path d="M126266 25208
L125992 25164
" />
<path d="M126512 25333
L126266 25208
" />
<path d="M126708 25529
L126512 25333
" />
<path d="M126766 25642
L126708 25529
" />
<path d="M126889 25642
L126766 25642
" />
<path d="M127133 25680
L126889 25642
" />
<path d="M127352 25792
L127133 25680
" />
<path d="M127526 25966
L127352 25792
" />
<g >
</g>
<g >
</g>
<g >
</g>
<g >
</g>
<g >
</g>
<g >
</g>
<g >
</g>
<g >
</g>
<g >
</g>
<g >
</g>
<g >
</g>
<g >
</g>
<g >
</g>
<g >
</g>
<g >
</g>
<g >
</g>
<g >
</g>
<g >
</g>
<g >
</g>
<g >
</g>
<g >
</g>
<g >
</g>
<g >
</g>
<g >
</g>
<g >
</g>
<g >
</g>
<g >
</g>
<g >
</g>
<g >
</g>
<g >
</g>
<g >
</g>
<g >
</g>
<g >
</g>
<g >
</g>
<g >
</g>
<g >
</g>
<g >
</g>
<g >
</g>
<g >
</g>
<g >
</g>
<g >
</g>
<g >
</g>
<g >
</g>
<g >
</g>
<g >
</g>
<g >
</g>
<g >
</g>
<g >
</g>
</g> 
</svg>
