G04 #@! TF.GenerationSoftware,KiCad,Pcbnew,(5.0.0-3-g5ebb6b6)*
G04 #@! TF.CreationDate,2019-02-17T13:25:32-08:00*
G04 #@! TF.ProjectId,BCInside,4243496E736964652E6B696361645F70,rev?*
G04 #@! TF.SameCoordinates,Original*
G04 #@! TF.FileFunction,Copper,L3,Inr,Plane*
G04 #@! TF.FilePolarity,Positive*
%FSLAX46Y46*%
G04 Gerber Fmt 4.6, Leading zero omitted, Abs format (unit mm)*
G04 Created by KiCad (PCBNEW (5.0.0-3-g5ebb6b6)) date Sunday, February 17, 2019 at 01:25:32 PM*
%MOMM*%
%LPD*%
G01*
G04 APERTURE LIST*
G04 #@! TA.AperFunction,ViaPad*
%ADD10O,5.080000X1.524000*%
G04 #@! TD*
G04 #@! TA.AperFunction,ViaPad*
%ADD11C,1.000000*%
G04 #@! TD*
G04 #@! TA.AperFunction,Conductor*
%ADD12C,0.254000*%
G04 #@! TD*
G04 APERTURE END LIST*
D10*
G04 #@! TO.N,GND*
G04 #@! TO.C,J1*
X57861200Y-76636880D03*
G04 #@! TO.N,Net-(D1-Pad4)*
X57861200Y-74604880D03*
G04 #@! TO.N,+5V*
X57861200Y-72572880D03*
G04 #@! TD*
G04 #@! TO.N,GND*
G04 #@! TO.C,J2*
X314035440Y-76484480D03*
G04 #@! TO.N,Net-(D15-Pad3)*
X314035440Y-74452480D03*
G04 #@! TO.N,+5V*
X314035440Y-72420480D03*
G04 #@! TD*
D11*
G04 #@! TO.N,+5V*
X103682800Y-74640440D03*
X136702800Y-74640440D03*
X120192800Y-74640440D03*
X153720800Y-74640440D03*
X170230800Y-74640440D03*
X186740800Y-74640440D03*
X236778800Y-74640440D03*
X220268800Y-74640440D03*
X253542806Y-74576940D03*
X270256000Y-74221340D03*
X87172800Y-74640440D03*
X73914000Y-74475340D03*
X205234540Y-68295520D03*
X207266540Y-74645520D03*
X72392540Y-68041520D03*
X307088540Y-74137514D03*
X305818540Y-68549520D03*
X62748160Y-72572880D03*
X290576000Y-74676000D03*
X289814000Y-67818000D03*
G04 #@! TO.N,GND*
X114681000Y-74653140D03*
X131419600Y-74678540D03*
X147980400Y-74678540D03*
X164668200Y-74653140D03*
X181356000Y-74653140D03*
X197916800Y-74627740D03*
X231241600Y-74678540D03*
X247929400Y-74653140D03*
X263144000Y-74246740D03*
X281178000Y-74475340D03*
X98044000Y-74627740D03*
X81788000Y-74729340D03*
X199646540Y-68549520D03*
X215394540Y-74645520D03*
X67312540Y-69311520D03*
X300230540Y-68549520D03*
X62417960Y-76601320D03*
X283210000Y-68072000D03*
X298704000Y-74676000D03*
G04 #@! TD*
D12*
G04 #@! TO.N,+5V*
G36*
X59446435Y-64688418D02*
X59879848Y-64909041D01*
X60223483Y-65252469D01*
X60276828Y-65357258D01*
X60284950Y-65398091D01*
X60338136Y-65477690D01*
X60350359Y-65501700D01*
X60375526Y-65533648D01*
X60436348Y-65624675D01*
X60459327Y-65640029D01*
X60476426Y-65661735D01*
X60571906Y-65715252D01*
X60662932Y-65776073D01*
X60690038Y-65781465D01*
X60714142Y-65794975D01*
X60822833Y-65807879D01*
X60862743Y-65815818D01*
X60889699Y-65815818D01*
X60984750Y-65827103D01*
X61024819Y-65815818D01*
X311517957Y-65815818D01*
X311557610Y-65827037D01*
X311653082Y-65815818D01*
X311680450Y-65815818D01*
X311719958Y-65807959D01*
X311828257Y-65795233D01*
X311852744Y-65781547D01*
X311880261Y-65776073D01*
X311970948Y-65715478D01*
X312066131Y-65662277D01*
X312083515Y-65640264D01*
X312106845Y-65624675D01*
X312167437Y-65533992D01*
X312192390Y-65502394D01*
X312204830Y-65478030D01*
X312258243Y-65398091D01*
X312266283Y-65357669D01*
X312319898Y-65252662D01*
X312663504Y-64909040D01*
X313097158Y-64688408D01*
X313630953Y-64603812D01*
X319967158Y-64603812D01*
X320501915Y-64688442D01*
X320935513Y-64909046D01*
X321279120Y-65252654D01*
X321332719Y-65357647D01*
X321340764Y-65398091D01*
X321394166Y-65478013D01*
X321406594Y-65502358D01*
X321431558Y-65533975D01*
X321492162Y-65624675D01*
X321515472Y-65640250D01*
X321532843Y-65662250D01*
X321628046Y-65715469D01*
X321718746Y-65776073D01*
X321746242Y-65781542D01*
X321770710Y-65795220D01*
X321879032Y-65807956D01*
X321918557Y-65815818D01*
X321945901Y-65815818D01*
X322041355Y-65827041D01*
X322081031Y-65815818D01*
X322245126Y-65815818D01*
X322703630Y-65888400D01*
X323067626Y-66074007D01*
X323357015Y-66362721D01*
X323542166Y-66726524D01*
X323613993Y-67184229D01*
X323613992Y-82077395D01*
X323542166Y-82535093D01*
X323357015Y-82898896D01*
X323067626Y-83187610D01*
X322703630Y-83373217D01*
X322245126Y-83445799D01*
X322081031Y-83445799D01*
X322041355Y-83434576D01*
X321945901Y-83445799D01*
X321918557Y-83445799D01*
X321879032Y-83453661D01*
X321770710Y-83466397D01*
X321746242Y-83480075D01*
X321718746Y-83485544D01*
X321628046Y-83546148D01*
X321532843Y-83599367D01*
X321515472Y-83621367D01*
X321492162Y-83636942D01*
X321431558Y-83727642D01*
X321406594Y-83759259D01*
X321394166Y-83783604D01*
X321340764Y-83863526D01*
X321332719Y-83903970D01*
X321279120Y-84008963D01*
X320935513Y-84352571D01*
X320501915Y-84573175D01*
X319967158Y-84657805D01*
X313630953Y-84657805D01*
X313097158Y-84573209D01*
X312663504Y-84352577D01*
X312319898Y-84008955D01*
X312266283Y-83903948D01*
X312258243Y-83863526D01*
X312204830Y-83783587D01*
X312192390Y-83759223D01*
X312167437Y-83727625D01*
X312106845Y-83636942D01*
X312083515Y-83621353D01*
X312066131Y-83599340D01*
X311970948Y-83546139D01*
X311880261Y-83485544D01*
X311852744Y-83480070D01*
X311828257Y-83466384D01*
X311719958Y-83453658D01*
X311680450Y-83445799D01*
X311653082Y-83445799D01*
X311557610Y-83434580D01*
X311517957Y-83445799D01*
X61024819Y-83445799D01*
X60984750Y-83434514D01*
X60889699Y-83445799D01*
X60862743Y-83445799D01*
X60822833Y-83453738D01*
X60714142Y-83466642D01*
X60690038Y-83480152D01*
X60662932Y-83485544D01*
X60571906Y-83546365D01*
X60476426Y-83599882D01*
X60459327Y-83621588D01*
X60436348Y-83636942D01*
X60375526Y-83727969D01*
X60350359Y-83759917D01*
X60338136Y-83783927D01*
X60284950Y-83863526D01*
X60276828Y-83904359D01*
X60223483Y-84009148D01*
X59879848Y-84352576D01*
X59446435Y-84573199D01*
X58912112Y-84657805D01*
X52575883Y-84657805D01*
X52041477Y-84573199D01*
X51608174Y-84352594D01*
X51264522Y-84009151D01*
X51211175Y-83904358D01*
X51203053Y-83863526D01*
X51149867Y-83783927D01*
X51137644Y-83759917D01*
X51112477Y-83727969D01*
X51051655Y-83636942D01*
X51028676Y-83621588D01*
X51011577Y-83599882D01*
X50916093Y-83546363D01*
X50825071Y-83485544D01*
X50797967Y-83480153D01*
X50773861Y-83466641D01*
X50665163Y-83453736D01*
X50625260Y-83445799D01*
X50598307Y-83445799D01*
X50503253Y-83434514D01*
X50463184Y-83445799D01*
X50297961Y-83445799D01*
X49840323Y-83373234D01*
X49475874Y-83187611D01*
X49187090Y-82899080D01*
X49001499Y-82534581D01*
X48929007Y-82076906D01*
X48929007Y-70630805D01*
X49404540Y-70630805D01*
X49417960Y-70698271D01*
X49417959Y-72563350D01*
X49404540Y-72630812D01*
X49457704Y-72898085D01*
X49609102Y-73124669D01*
X49768984Y-73231498D01*
X49835686Y-73276067D01*
X50102959Y-73329231D01*
X50170420Y-73315812D01*
X54035513Y-73315812D01*
X54102974Y-73329231D01*
X54370247Y-73276067D01*
X54596831Y-73124669D01*
X54730675Y-72924357D01*
X54743940Y-72990157D01*
X55005570Y-73470906D01*
X55123338Y-73566083D01*
X55076020Y-73597700D01*
X54767256Y-74059798D01*
X54658832Y-74604880D01*
X54767256Y-75149962D01*
X55076020Y-75612060D01*
X55089220Y-75620880D01*
X55076020Y-75629700D01*
X54767256Y-76091798D01*
X54721239Y-76323139D01*
X54596831Y-76136948D01*
X54370247Y-75985550D01*
X54170436Y-75945805D01*
X54170435Y-75945805D01*
X54102974Y-75932386D01*
X54035512Y-75945805D01*
X50170421Y-75945805D01*
X50102959Y-75932386D01*
X50035498Y-75945805D01*
X50035497Y-75945805D01*
X49835686Y-75985550D01*
X49609102Y-76136948D01*
X49457704Y-76363532D01*
X49404540Y-76630805D01*
X49417960Y-76698271D01*
X49417959Y-78563350D01*
X49404540Y-78630812D01*
X49457704Y-78898085D01*
X49609102Y-79124669D01*
X49768984Y-79231498D01*
X49835686Y-79276067D01*
X50102959Y-79329231D01*
X50170420Y-79315812D01*
X52200296Y-79315812D01*
X52007918Y-79508462D01*
X51972044Y-79528532D01*
X51912430Y-79604084D01*
X51893023Y-79623519D01*
X51870731Y-79656933D01*
X51845849Y-79688467D01*
X51833370Y-79712933D01*
X51779959Y-79792990D01*
X51771968Y-79833313D01*
X51538860Y-80290326D01*
X51510563Y-80320944D01*
X51477462Y-80410698D01*
X51465244Y-80434651D01*
X51454168Y-80473857D01*
X51440070Y-80512085D01*
X51435866Y-80538644D01*
X51409860Y-80630704D01*
X51414743Y-80672109D01*
X51334345Y-81180075D01*
X51316998Y-81217694D01*
X51313221Y-81313541D01*
X51308977Y-81340358D01*
X51310571Y-81380809D01*
X51308977Y-81421260D01*
X51313221Y-81448077D01*
X51316998Y-81543925D01*
X51334346Y-81581544D01*
X51414743Y-82089508D01*
X51409860Y-82130913D01*
X51435866Y-82222972D01*
X51440070Y-82249532D01*
X51454168Y-82287760D01*
X51465244Y-82326966D01*
X51477462Y-82350919D01*
X51510563Y-82440673D01*
X51538860Y-82471291D01*
X51771968Y-82928304D01*
X51779959Y-82968627D01*
X51833370Y-83048684D01*
X51845849Y-83073150D01*
X51870731Y-83104684D01*
X51893023Y-83138098D01*
X51912430Y-83157533D01*
X51972044Y-83233085D01*
X52007918Y-83253155D01*
X52371322Y-83617072D01*
X52391804Y-83653611D01*
X52466792Y-83712678D01*
X52485660Y-83731572D01*
X52519696Y-83754349D01*
X52551844Y-83779671D01*
X52575623Y-83791775D01*
X52654972Y-83844875D01*
X52696056Y-83853077D01*
X53154114Y-84086236D01*
X53184491Y-84114315D01*
X53274536Y-84147533D01*
X53298787Y-84159877D01*
X53337702Y-84170835D01*
X53375625Y-84184825D01*
X53402495Y-84189080D01*
X53494887Y-84215097D01*
X53535968Y-84210218D01*
X54123576Y-84303275D01*
X54176539Y-84313810D01*
X54190099Y-84313810D01*
X54203486Y-84315930D01*
X54257418Y-84313810D01*
X57230582Y-84313810D01*
X57284514Y-84315930D01*
X57297901Y-84313810D01*
X57311463Y-84313810D01*
X57364433Y-84303274D01*
X57952033Y-84210218D01*
X57993114Y-84215097D01*
X58085506Y-84189080D01*
X58112376Y-84184825D01*
X58150299Y-84170835D01*
X58189214Y-84159877D01*
X58213463Y-84147534D01*
X58303511Y-84114315D01*
X58333888Y-84086236D01*
X58791947Y-83853077D01*
X58833030Y-83844875D01*
X58912373Y-83791778D01*
X58936159Y-83779671D01*
X58968319Y-83754339D01*
X59002342Y-83731571D01*
X59021202Y-83712685D01*
X59096199Y-83653611D01*
X59116684Y-83617068D01*
X59480086Y-83253154D01*
X59515958Y-83233085D01*
X59575568Y-83157538D01*
X59594980Y-83138098D01*
X59617279Y-83104674D01*
X59642152Y-83073151D01*
X59654627Y-83048693D01*
X59708044Y-82968627D01*
X59716036Y-82928301D01*
X59949142Y-82471294D01*
X59977441Y-82440673D01*
X60010543Y-82350916D01*
X60022758Y-82326968D01*
X60033833Y-82287764D01*
X60047933Y-82249531D01*
X60052137Y-82222970D01*
X60078142Y-82130915D01*
X60073260Y-82089510D01*
X60153657Y-81581544D01*
X60171004Y-81543925D01*
X60174781Y-81448077D01*
X60179025Y-81421260D01*
X60177431Y-81380809D01*
X60179024Y-81340372D01*
X312364897Y-81340372D01*
X312366491Y-81380809D01*
X312364897Y-81421246D01*
X312369143Y-81448076D01*
X312372922Y-81543939D01*
X312390265Y-81581546D01*
X312470629Y-82089371D01*
X312465746Y-82130649D01*
X312491751Y-82222838D01*
X312495973Y-82249518D01*
X312510027Y-82287629D01*
X312521055Y-82326723D01*
X312533319Y-82350789D01*
X312566461Y-82440661D01*
X312594674Y-82471190D01*
X312827502Y-82928081D01*
X312835488Y-82968438D01*
X312888862Y-83048491D01*
X312901316Y-83072930D01*
X312926199Y-83104490D01*
X312948502Y-83137942D01*
X312967884Y-83157363D01*
X313027449Y-83232913D01*
X313063343Y-83253012D01*
X313426632Y-83617027D01*
X313447203Y-83653708D01*
X313522077Y-83712663D01*
X313540821Y-83731444D01*
X313574981Y-83754318D01*
X313607266Y-83779739D01*
X313630905Y-83791766D01*
X313710100Y-83844797D01*
X313751344Y-83853044D01*
X314209719Y-84086259D01*
X314240010Y-84114266D01*
X314330151Y-84147533D01*
X314354503Y-84159923D01*
X314393319Y-84170845D01*
X314431136Y-84184802D01*
X314458114Y-84189078D01*
X314550612Y-84215106D01*
X314591580Y-84210233D01*
X315178538Y-84303267D01*
X315231539Y-84313810D01*
X315245051Y-84313810D01*
X315258395Y-84315925D01*
X315312383Y-84313810D01*
X318285547Y-84313810D01*
X318339452Y-84315934D01*
X318352872Y-84313810D01*
X318366463Y-84313810D01*
X318419394Y-84303281D01*
X319007342Y-84210225D01*
X319048382Y-84215108D01*
X319140814Y-84189100D01*
X319167724Y-84184841D01*
X319205613Y-84170867D01*
X319244492Y-84159928D01*
X319268778Y-84147572D01*
X319358865Y-84114348D01*
X319389216Y-84086298D01*
X319847702Y-83853039D01*
X319888959Y-83844788D01*
X319968133Y-83791768D01*
X319991763Y-83779746D01*
X320024070Y-83754309D01*
X320058235Y-83731430D01*
X320076962Y-83712665D01*
X320151829Y-83653718D01*
X320172411Y-83617019D01*
X320535677Y-83253006D01*
X320571559Y-83232913D01*
X320631131Y-83157355D01*
X320650520Y-83137926D01*
X320672814Y-83104486D01*
X320697693Y-83072931D01*
X320710153Y-83048480D01*
X320763530Y-82968418D01*
X320771512Y-82928071D01*
X321004330Y-82471203D01*
X321032534Y-82440686D01*
X321065685Y-82350803D01*
X321077954Y-82326726D01*
X321088978Y-82287646D01*
X321103030Y-82249546D01*
X321107255Y-82222852D01*
X321133264Y-82130652D01*
X321128382Y-82089387D01*
X321208771Y-81581547D01*
X321226125Y-81543911D01*
X321229899Y-81448074D01*
X321234141Y-81421275D01*
X321232548Y-81380809D01*
X321234141Y-81340343D01*
X321229899Y-81313544D01*
X321226125Y-81217707D01*
X321208771Y-81180071D01*
X321128382Y-80672230D01*
X321133264Y-80630965D01*
X321107255Y-80538765D01*
X321103030Y-80512071D01*
X321088978Y-80473971D01*
X321077954Y-80434891D01*
X321065685Y-80410814D01*
X321032534Y-80320931D01*
X321004330Y-80290414D01*
X320771512Y-79833546D01*
X320763530Y-79793199D01*
X320710153Y-79713137D01*
X320697693Y-79688686D01*
X320672814Y-79657131D01*
X320650520Y-79623691D01*
X320631131Y-79604262D01*
X320571559Y-79528704D01*
X320535677Y-79508611D01*
X320245741Y-79218079D01*
X322479549Y-79218079D01*
X322547010Y-79231498D01*
X322814283Y-79178334D01*
X323040867Y-79026936D01*
X323192265Y-78800352D01*
X323232010Y-78600541D01*
X323232010Y-78600540D01*
X323245429Y-78533079D01*
X323232010Y-78465617D01*
X323232010Y-76600534D01*
X323245429Y-76533072D01*
X323192265Y-76265799D01*
X323040867Y-76039215D01*
X322814283Y-75887817D01*
X322614472Y-75848072D01*
X322614471Y-75848072D01*
X322547010Y-75834653D01*
X322479548Y-75848072D01*
X318614479Y-75848072D01*
X318547017Y-75834653D01*
X318479556Y-75848072D01*
X318479555Y-75848072D01*
X318279744Y-75887817D01*
X318053160Y-76039215D01*
X317901762Y-76265799D01*
X317848598Y-76533072D01*
X317862018Y-76600538D01*
X317862017Y-78447807D01*
X315312383Y-78447807D01*
X315258395Y-78445692D01*
X315245051Y-78447807D01*
X315231539Y-78447807D01*
X315178538Y-78458350D01*
X314591580Y-78551384D01*
X314550612Y-78546511D01*
X314458114Y-78572539D01*
X314431136Y-78576815D01*
X314393319Y-78590772D01*
X314354503Y-78601694D01*
X314330151Y-78614084D01*
X314240010Y-78647351D01*
X314209719Y-78675358D01*
X313751344Y-78908573D01*
X313710100Y-78916820D01*
X313630905Y-78969851D01*
X313607266Y-78981878D01*
X313574981Y-79007299D01*
X313540821Y-79030173D01*
X313522077Y-79048954D01*
X313447203Y-79107909D01*
X313426632Y-79144590D01*
X313063343Y-79508605D01*
X313027449Y-79528704D01*
X312967884Y-79604254D01*
X312948502Y-79623675D01*
X312926199Y-79657127D01*
X312901316Y-79688687D01*
X312888862Y-79713126D01*
X312835488Y-79793179D01*
X312827502Y-79833536D01*
X312594674Y-80290427D01*
X312566461Y-80320956D01*
X312533319Y-80410828D01*
X312521055Y-80434894D01*
X312510027Y-80473988D01*
X312495973Y-80512099D01*
X312491751Y-80538779D01*
X312465746Y-80630968D01*
X312470629Y-80672246D01*
X312390265Y-81180073D01*
X312372922Y-81217679D01*
X312369143Y-81313542D01*
X312364897Y-81340372D01*
X60179024Y-81340372D01*
X60179025Y-81340358D01*
X60174781Y-81313541D01*
X60171004Y-81217693D01*
X60153657Y-81180074D01*
X60073260Y-80672107D01*
X60078142Y-80630702D01*
X60052137Y-80538646D01*
X60047933Y-80512086D01*
X60033833Y-80473854D01*
X60022758Y-80434649D01*
X60010542Y-80410700D01*
X59977441Y-80320945D01*
X59949143Y-80290325D01*
X59716036Y-79833316D01*
X59708044Y-79792990D01*
X59654627Y-79712924D01*
X59642152Y-79688466D01*
X59617279Y-79656943D01*
X59594980Y-79623519D01*
X59575568Y-79604079D01*
X59515958Y-79528532D01*
X59480086Y-79508463D01*
X59116684Y-79144549D01*
X59096199Y-79108006D01*
X59021202Y-79048932D01*
X59002342Y-79030046D01*
X58968319Y-79007278D01*
X58936159Y-78981946D01*
X58912373Y-78969839D01*
X58833030Y-78916742D01*
X58791947Y-78908540D01*
X58333888Y-78675381D01*
X58303511Y-78647302D01*
X58213463Y-78614083D01*
X58189214Y-78601740D01*
X58150299Y-78590782D01*
X58112376Y-78576792D01*
X58085506Y-78572537D01*
X57993114Y-78546520D01*
X57952033Y-78551399D01*
X57364433Y-78458343D01*
X57311463Y-78447807D01*
X57297901Y-78447807D01*
X57284514Y-78445687D01*
X57230582Y-78447807D01*
X54787974Y-78447807D01*
X54787974Y-77212969D01*
X55076020Y-77644060D01*
X55538118Y-77952824D01*
X55945612Y-78033880D01*
X59776788Y-78033880D01*
X60184282Y-77952824D01*
X60646380Y-77644060D01*
X60955144Y-77181962D01*
X61063568Y-76636880D01*
X61011587Y-76375554D01*
X61282960Y-76375554D01*
X61282960Y-76827086D01*
X61455753Y-77244246D01*
X61775034Y-77563527D01*
X62192194Y-77736320D01*
X62643726Y-77736320D01*
X63060886Y-77563527D01*
X63380167Y-77244246D01*
X63552960Y-76827086D01*
X63552960Y-76375554D01*
X63380167Y-75958394D01*
X63060886Y-75639113D01*
X62643726Y-75466320D01*
X62192194Y-75466320D01*
X61775034Y-75639113D01*
X61455753Y-75958394D01*
X61282960Y-76375554D01*
X61011587Y-76375554D01*
X60955144Y-76091798D01*
X60646380Y-75629700D01*
X60633180Y-75620880D01*
X60646380Y-75612060D01*
X60955144Y-75149962D01*
X61063568Y-74604880D01*
X60997305Y-74271754D01*
X75763117Y-74271754D01*
X75768735Y-74986996D01*
X76005729Y-75661856D01*
X76448544Y-76223564D01*
X77049432Y-76611553D01*
X77743600Y-76783985D01*
X78456196Y-76722268D01*
X79110382Y-76433056D01*
X79635616Y-75947534D01*
X79975263Y-75318057D01*
X80092700Y-74612500D01*
X80092431Y-74578286D01*
X80078787Y-74503574D01*
X80653000Y-74503574D01*
X80653000Y-74955106D01*
X80825793Y-75372266D01*
X81145074Y-75691547D01*
X81562234Y-75864340D01*
X82013766Y-75864340D01*
X82430926Y-75691547D01*
X82750207Y-75372266D01*
X82923000Y-74955106D01*
X82923000Y-74503574D01*
X82880916Y-74401974D01*
X96909000Y-74401974D01*
X96909000Y-74853506D01*
X97081793Y-75270666D01*
X97401074Y-75589947D01*
X97818234Y-75762740D01*
X98269766Y-75762740D01*
X98686926Y-75589947D01*
X99006207Y-75270666D01*
X99179000Y-74853506D01*
X99179000Y-74427374D01*
X113546000Y-74427374D01*
X113546000Y-74878906D01*
X113718793Y-75296066D01*
X114038074Y-75615347D01*
X114455234Y-75788140D01*
X114906766Y-75788140D01*
X115323926Y-75615347D01*
X115643207Y-75296066D01*
X115816000Y-74878906D01*
X115816000Y-74452774D01*
X130284600Y-74452774D01*
X130284600Y-74904306D01*
X130457393Y-75321466D01*
X130776674Y-75640747D01*
X131193834Y-75813540D01*
X131645366Y-75813540D01*
X132062526Y-75640747D01*
X132381807Y-75321466D01*
X132554600Y-74904306D01*
X132554600Y-74452774D01*
X146845400Y-74452774D01*
X146845400Y-74904306D01*
X147018193Y-75321466D01*
X147337474Y-75640747D01*
X147754634Y-75813540D01*
X148206166Y-75813540D01*
X148623326Y-75640747D01*
X148942607Y-75321466D01*
X149115400Y-74904306D01*
X149115400Y-74452774D01*
X149104879Y-74427374D01*
X163533200Y-74427374D01*
X163533200Y-74878906D01*
X163705993Y-75296066D01*
X164025274Y-75615347D01*
X164442434Y-75788140D01*
X164893966Y-75788140D01*
X165311126Y-75615347D01*
X165630407Y-75296066D01*
X165803200Y-74878906D01*
X165803200Y-74427374D01*
X180221000Y-74427374D01*
X180221000Y-74878906D01*
X180393793Y-75296066D01*
X180713074Y-75615347D01*
X181130234Y-75788140D01*
X181581766Y-75788140D01*
X181998926Y-75615347D01*
X182318207Y-75296066D01*
X182491000Y-74878906D01*
X182491000Y-74427374D01*
X182480479Y-74401974D01*
X196781800Y-74401974D01*
X196781800Y-74853506D01*
X196954593Y-75270666D01*
X197273874Y-75589947D01*
X197691034Y-75762740D01*
X198142566Y-75762740D01*
X198559726Y-75589947D01*
X198879007Y-75270666D01*
X199051800Y-74853506D01*
X199051800Y-74401974D01*
X199024164Y-74335254D01*
X209176617Y-74335254D01*
X209182235Y-75050496D01*
X209419229Y-75725356D01*
X209862044Y-76287064D01*
X210462932Y-76675053D01*
X211157100Y-76847485D01*
X211869696Y-76785768D01*
X212523882Y-76496556D01*
X213049116Y-76011034D01*
X213388763Y-75381557D01*
X213506200Y-74676000D01*
X213505931Y-74641786D01*
X213465381Y-74419754D01*
X214259540Y-74419754D01*
X214259540Y-74871286D01*
X214432333Y-75288446D01*
X214751614Y-75607727D01*
X215168774Y-75780520D01*
X215620306Y-75780520D01*
X216037466Y-75607727D01*
X216356747Y-75288446D01*
X216529540Y-74871286D01*
X216529540Y-74452774D01*
X230106600Y-74452774D01*
X230106600Y-74904306D01*
X230279393Y-75321466D01*
X230598674Y-75640747D01*
X231015834Y-75813540D01*
X231467366Y-75813540D01*
X231884526Y-75640747D01*
X232203807Y-75321466D01*
X232376600Y-74904306D01*
X232376600Y-74452774D01*
X232366079Y-74427374D01*
X246794400Y-74427374D01*
X246794400Y-74878906D01*
X246967193Y-75296066D01*
X247286474Y-75615347D01*
X247703634Y-75788140D01*
X248155166Y-75788140D01*
X248572326Y-75615347D01*
X248891607Y-75296066D01*
X249064400Y-74878906D01*
X249064400Y-74427374D01*
X248896064Y-74020974D01*
X262009000Y-74020974D01*
X262009000Y-74472506D01*
X262181793Y-74889666D01*
X262501074Y-75208947D01*
X262918234Y-75381740D01*
X263369766Y-75381740D01*
X263786926Y-75208947D01*
X264106207Y-74889666D01*
X264279000Y-74472506D01*
X264279000Y-74249574D01*
X280043000Y-74249574D01*
X280043000Y-74701106D01*
X280215793Y-75118266D01*
X280535074Y-75437547D01*
X280952234Y-75610340D01*
X281403766Y-75610340D01*
X281820926Y-75437547D01*
X282140207Y-75118266D01*
X282313000Y-74701106D01*
X282313000Y-74335254D01*
X292488617Y-74335254D01*
X292494235Y-75050496D01*
X292731229Y-75725356D01*
X293174044Y-76287064D01*
X293774932Y-76675053D01*
X294469100Y-76847485D01*
X295181696Y-76785768D01*
X295835882Y-76496556D01*
X296361116Y-76011034D01*
X296700763Y-75381557D01*
X296818200Y-74676000D01*
X296817931Y-74641786D01*
X296782948Y-74450234D01*
X297569000Y-74450234D01*
X297569000Y-74901766D01*
X297741793Y-75318926D01*
X298061074Y-75638207D01*
X298478234Y-75811000D01*
X298929766Y-75811000D01*
X299346926Y-75638207D01*
X299666207Y-75318926D01*
X299839000Y-74901766D01*
X299839000Y-74452480D01*
X310833072Y-74452480D01*
X310941496Y-74997562D01*
X311250260Y-75459660D01*
X311263460Y-75468480D01*
X311250260Y-75477300D01*
X310941496Y-75939398D01*
X310833072Y-76484480D01*
X310941496Y-77029562D01*
X311250260Y-77491660D01*
X311712358Y-77800424D01*
X312119852Y-77881480D01*
X315951028Y-77881480D01*
X316358522Y-77800424D01*
X316820620Y-77491660D01*
X317129384Y-77029562D01*
X317237808Y-76484480D01*
X317129384Y-75939398D01*
X316820620Y-75477300D01*
X316807420Y-75468480D01*
X316820620Y-75459660D01*
X317129384Y-74997562D01*
X317237808Y-74452480D01*
X317129384Y-73907398D01*
X316820620Y-73445300D01*
X316773302Y-73413683D01*
X316891070Y-73318506D01*
X317152700Y-72837757D01*
X317167660Y-72763550D01*
X317045160Y-72547480D01*
X314162440Y-72547480D01*
X314162440Y-72567480D01*
X313908440Y-72567480D01*
X313908440Y-72547480D01*
X311025720Y-72547480D01*
X310903220Y-72763550D01*
X310918180Y-72837757D01*
X311179810Y-73318506D01*
X311297578Y-73413683D01*
X311250260Y-73445300D01*
X310941496Y-73907398D01*
X310833072Y-74452480D01*
X299839000Y-74452480D01*
X299839000Y-74450234D01*
X299666207Y-74033074D01*
X299346926Y-73713793D01*
X298929766Y-73541000D01*
X298478234Y-73541000D01*
X298061074Y-73713793D01*
X297741793Y-74033074D01*
X297569000Y-74450234D01*
X296782948Y-74450234D01*
X296689426Y-73938161D01*
X296339934Y-73314096D01*
X295807138Y-72836885D01*
X295148491Y-72557984D01*
X294435013Y-72507467D01*
X293743639Y-72690781D01*
X293148919Y-73088161D01*
X292714982Y-73656755D01*
X292488617Y-74335254D01*
X282313000Y-74335254D01*
X282313000Y-74249574D01*
X282140207Y-73832414D01*
X281820926Y-73513133D01*
X281403766Y-73340340D01*
X280952234Y-73340340D01*
X280535074Y-73513133D01*
X280215793Y-73832414D01*
X280043000Y-74249574D01*
X264279000Y-74249574D01*
X264279000Y-74020974D01*
X264106207Y-73603814D01*
X263786926Y-73284533D01*
X263369766Y-73111740D01*
X262918234Y-73111740D01*
X262501074Y-73284533D01*
X262181793Y-73603814D01*
X262009000Y-74020974D01*
X248896064Y-74020974D01*
X248891607Y-74010214D01*
X248572326Y-73690933D01*
X248155166Y-73518140D01*
X247703634Y-73518140D01*
X247286474Y-73690933D01*
X246967193Y-74010214D01*
X246794400Y-74427374D01*
X232366079Y-74427374D01*
X232203807Y-74035614D01*
X231884526Y-73716333D01*
X231467366Y-73543540D01*
X231015834Y-73543540D01*
X230598674Y-73716333D01*
X230279393Y-74035614D01*
X230106600Y-74452774D01*
X216529540Y-74452774D01*
X216529540Y-74419754D01*
X216356747Y-74002594D01*
X216037466Y-73683313D01*
X215620306Y-73510520D01*
X215168774Y-73510520D01*
X214751614Y-73683313D01*
X214432333Y-74002594D01*
X214259540Y-74419754D01*
X213465381Y-74419754D01*
X213377426Y-73938161D01*
X213027934Y-73314096D01*
X212495138Y-72836885D01*
X211836491Y-72557984D01*
X211123013Y-72507467D01*
X210431639Y-72690781D01*
X209836919Y-73088161D01*
X209402982Y-73656755D01*
X209176617Y-74335254D01*
X199024164Y-74335254D01*
X198879007Y-73984814D01*
X198559726Y-73665533D01*
X198142566Y-73492740D01*
X197691034Y-73492740D01*
X197273874Y-73665533D01*
X196954593Y-73984814D01*
X196781800Y-74401974D01*
X182480479Y-74401974D01*
X182318207Y-74010214D01*
X181998926Y-73690933D01*
X181581766Y-73518140D01*
X181130234Y-73518140D01*
X180713074Y-73690933D01*
X180393793Y-74010214D01*
X180221000Y-74427374D01*
X165803200Y-74427374D01*
X165630407Y-74010214D01*
X165311126Y-73690933D01*
X164893966Y-73518140D01*
X164442434Y-73518140D01*
X164025274Y-73690933D01*
X163705993Y-74010214D01*
X163533200Y-74427374D01*
X149104879Y-74427374D01*
X148942607Y-74035614D01*
X148623326Y-73716333D01*
X148206166Y-73543540D01*
X147754634Y-73543540D01*
X147337474Y-73716333D01*
X147018193Y-74035614D01*
X146845400Y-74452774D01*
X132554600Y-74452774D01*
X132381807Y-74035614D01*
X132062526Y-73716333D01*
X131645366Y-73543540D01*
X131193834Y-73543540D01*
X130776674Y-73716333D01*
X130457393Y-74035614D01*
X130284600Y-74452774D01*
X115816000Y-74452774D01*
X115816000Y-74427374D01*
X115643207Y-74010214D01*
X115323926Y-73690933D01*
X114906766Y-73518140D01*
X114455234Y-73518140D01*
X114038074Y-73690933D01*
X113718793Y-74010214D01*
X113546000Y-74427374D01*
X99179000Y-74427374D01*
X99179000Y-74401974D01*
X99006207Y-73984814D01*
X98686926Y-73665533D01*
X98269766Y-73492740D01*
X97818234Y-73492740D01*
X97401074Y-73665533D01*
X97081793Y-73984814D01*
X96909000Y-74401974D01*
X82880916Y-74401974D01*
X82750207Y-74086414D01*
X82430926Y-73767133D01*
X82013766Y-73594340D01*
X81562234Y-73594340D01*
X81145074Y-73767133D01*
X80825793Y-74086414D01*
X80653000Y-74503574D01*
X80078787Y-74503574D01*
X79963926Y-73874661D01*
X79614434Y-73250596D01*
X79081638Y-72773385D01*
X78422991Y-72494484D01*
X77709513Y-72443967D01*
X77018139Y-72627281D01*
X76423419Y-73024661D01*
X75989482Y-73593255D01*
X75763117Y-74271754D01*
X60997305Y-74271754D01*
X60955144Y-74059798D01*
X60646380Y-73597700D01*
X60599062Y-73566083D01*
X60716830Y-73470906D01*
X60978460Y-72990157D01*
X60993420Y-72915950D01*
X60870920Y-72699880D01*
X57988200Y-72699880D01*
X57988200Y-72719880D01*
X57734200Y-72719880D01*
X57734200Y-72699880D01*
X57714200Y-72699880D01*
X57714200Y-72445880D01*
X57734200Y-72445880D01*
X57734200Y-71175880D01*
X57988200Y-71175880D01*
X57988200Y-72445880D01*
X60870920Y-72445880D01*
X60993420Y-72229810D01*
X60978460Y-72155603D01*
X60935907Y-72077410D01*
X310903220Y-72077410D01*
X311025720Y-72293480D01*
X313908440Y-72293480D01*
X313908440Y-71023480D01*
X314162440Y-71023480D01*
X314162440Y-72293480D01*
X317045160Y-72293480D01*
X317167660Y-72077410D01*
X317152700Y-72003203D01*
X316891070Y-71522454D01*
X316465381Y-71178421D01*
X315940440Y-71023480D01*
X314162440Y-71023480D01*
X313908440Y-71023480D01*
X312130440Y-71023480D01*
X311605499Y-71178421D01*
X311179810Y-71522454D01*
X310918180Y-72003203D01*
X310903220Y-72077410D01*
X60935907Y-72077410D01*
X60716830Y-71674854D01*
X60291141Y-71330821D01*
X59766200Y-71175880D01*
X57988200Y-71175880D01*
X57734200Y-71175880D01*
X55956200Y-71175880D01*
X55431259Y-71330821D01*
X55005570Y-71674854D01*
X54787974Y-72074690D01*
X54787974Y-70813809D01*
X57230581Y-70813809D01*
X57284513Y-70815929D01*
X57297900Y-70813809D01*
X57311463Y-70813809D01*
X57364434Y-70803272D01*
X57952032Y-70710218D01*
X57993114Y-70715097D01*
X58085506Y-70689080D01*
X58112376Y-70684825D01*
X58150301Y-70670835D01*
X58189214Y-70659877D01*
X58213461Y-70647535D01*
X58303510Y-70614316D01*
X58333889Y-70586235D01*
X58791949Y-70353076D01*
X58833031Y-70344874D01*
X58912374Y-70291778D01*
X58936159Y-70279671D01*
X58968315Y-70254342D01*
X59002343Y-70231571D01*
X59021206Y-70212681D01*
X59096199Y-70153611D01*
X59116683Y-70117070D01*
X59480086Y-69753153D01*
X59515957Y-69733085D01*
X59575567Y-69657537D01*
X59594980Y-69638097D01*
X59617278Y-69604674D01*
X59642152Y-69573150D01*
X59654629Y-69548689D01*
X59708044Y-69468625D01*
X59716035Y-69428301D01*
X59890758Y-69085754D01*
X66177540Y-69085754D01*
X66177540Y-69537286D01*
X66350333Y-69954446D01*
X66669614Y-70273727D01*
X67086774Y-70446520D01*
X67538306Y-70446520D01*
X67955466Y-70273727D01*
X68274747Y-69954446D01*
X68447540Y-69537286D01*
X68447540Y-69085754D01*
X68274747Y-68668594D01*
X67955466Y-68349313D01*
X67893761Y-68323754D01*
X198511540Y-68323754D01*
X198511540Y-68775286D01*
X198684333Y-69192446D01*
X199003614Y-69511727D01*
X199420774Y-69684520D01*
X199872306Y-69684520D01*
X200289466Y-69511727D01*
X200608747Y-69192446D01*
X200781540Y-68775286D01*
X200781540Y-68323754D01*
X200608747Y-67906594D01*
X200548387Y-67846234D01*
X282075000Y-67846234D01*
X282075000Y-68297766D01*
X282247793Y-68714926D01*
X282567074Y-69034207D01*
X282984234Y-69207000D01*
X283435766Y-69207000D01*
X283852926Y-69034207D01*
X284172207Y-68714926D01*
X284334235Y-68323754D01*
X299095540Y-68323754D01*
X299095540Y-68775286D01*
X299268333Y-69192446D01*
X299587614Y-69511727D01*
X300004774Y-69684520D01*
X300456306Y-69684520D01*
X300873466Y-69511727D01*
X301192747Y-69192446D01*
X301365540Y-68775286D01*
X301365540Y-68323754D01*
X301192747Y-67906594D01*
X301126524Y-67840371D01*
X312364897Y-67840371D01*
X312366491Y-67880808D01*
X312364897Y-67921245D01*
X312369143Y-67948075D01*
X312372922Y-68043938D01*
X312390265Y-68081544D01*
X312470629Y-68589371D01*
X312465746Y-68630650D01*
X312491751Y-68722840D01*
X312495973Y-68749518D01*
X312510026Y-68787626D01*
X312521055Y-68826724D01*
X312533320Y-68850792D01*
X312566461Y-68940661D01*
X312594673Y-68971189D01*
X312827502Y-69428080D01*
X312835487Y-69468436D01*
X312888861Y-69548488D01*
X312901316Y-69572930D01*
X312926201Y-69604492D01*
X312948502Y-69637941D01*
X312967885Y-69657363D01*
X313027450Y-69732912D01*
X313063341Y-69753010D01*
X313426632Y-70117027D01*
X313447203Y-70153708D01*
X313522077Y-70212663D01*
X313540820Y-70231443D01*
X313574978Y-70254316D01*
X313607266Y-70279739D01*
X313630907Y-70291767D01*
X313710099Y-70344796D01*
X313751341Y-70353042D01*
X314209719Y-70586259D01*
X314240011Y-70614267D01*
X314330153Y-70647534D01*
X314354503Y-70659923D01*
X314393317Y-70670845D01*
X314431136Y-70684802D01*
X314458114Y-70689078D01*
X314550612Y-70715106D01*
X314591581Y-70710233D01*
X315178537Y-70803266D01*
X315231539Y-70813809D01*
X315245052Y-70813809D01*
X315258396Y-70815924D01*
X315312384Y-70813809D01*
X317862018Y-70813809D01*
X317862017Y-72465617D01*
X317848598Y-72533079D01*
X317901762Y-72800352D01*
X318053160Y-73026936D01*
X318279744Y-73178334D01*
X318428282Y-73207880D01*
X318547017Y-73231498D01*
X318614478Y-73218079D01*
X322479549Y-73218079D01*
X322547010Y-73231498D01*
X322665746Y-73207880D01*
X322814283Y-73178334D01*
X323040867Y-73026936D01*
X323192265Y-72800352D01*
X323245429Y-72533079D01*
X323232010Y-72465617D01*
X323232010Y-70600534D01*
X323245429Y-70533072D01*
X323224781Y-70429265D01*
X323192265Y-70265799D01*
X323040867Y-70039215D01*
X322814283Y-69887817D01*
X322614472Y-69848072D01*
X322614471Y-69848072D01*
X322547010Y-69834653D01*
X322479548Y-69848072D01*
X320440805Y-69848072D01*
X320535675Y-69753006D01*
X320571559Y-69732913D01*
X320631133Y-69657352D01*
X320650520Y-69637925D01*
X320672814Y-69604486D01*
X320697693Y-69572930D01*
X320710153Y-69548479D01*
X320763530Y-69468417D01*
X320771512Y-69428071D01*
X321004329Y-68971203D01*
X321032534Y-68940686D01*
X321065685Y-68850803D01*
X321077954Y-68826726D01*
X321088978Y-68787646D01*
X321103030Y-68749546D01*
X321107255Y-68722852D01*
X321133264Y-68630652D01*
X321128382Y-68589387D01*
X321208771Y-68081546D01*
X321226125Y-68043910D01*
X321229899Y-67948073D01*
X321234141Y-67921274D01*
X321232548Y-67880808D01*
X321234141Y-67840342D01*
X321229899Y-67813543D01*
X321226125Y-67717706D01*
X321208771Y-67680070D01*
X321128382Y-67172230D01*
X321133264Y-67130965D01*
X321107255Y-67038765D01*
X321103030Y-67012071D01*
X321088978Y-66973971D01*
X321077954Y-66934891D01*
X321065685Y-66910814D01*
X321032534Y-66820931D01*
X321004330Y-66790414D01*
X320771512Y-66333546D01*
X320763530Y-66293199D01*
X320710153Y-66213137D01*
X320697693Y-66188686D01*
X320672814Y-66157131D01*
X320650520Y-66123691D01*
X320631131Y-66104262D01*
X320571559Y-66028704D01*
X320535677Y-66008611D01*
X320172411Y-65644598D01*
X320151829Y-65607899D01*
X320076962Y-65548952D01*
X320058235Y-65530187D01*
X320024070Y-65507308D01*
X319991763Y-65481871D01*
X319968133Y-65469849D01*
X319888959Y-65416829D01*
X319847702Y-65408578D01*
X319389216Y-65175319D01*
X319358865Y-65147269D01*
X319268778Y-65114045D01*
X319244492Y-65101689D01*
X319205613Y-65090750D01*
X319167724Y-65076776D01*
X319140814Y-65072517D01*
X319048382Y-65046509D01*
X319007342Y-65051392D01*
X318419394Y-64958336D01*
X318366463Y-64947807D01*
X318352872Y-64947807D01*
X318339452Y-64945683D01*
X318285547Y-64947807D01*
X315312383Y-64947807D01*
X315258395Y-64945692D01*
X315245051Y-64947807D01*
X315231539Y-64947807D01*
X315178538Y-64958350D01*
X314591580Y-65051384D01*
X314550612Y-65046511D01*
X314458114Y-65072539D01*
X314431136Y-65076815D01*
X314393319Y-65090772D01*
X314354503Y-65101694D01*
X314330151Y-65114084D01*
X314240010Y-65147351D01*
X314209719Y-65175358D01*
X313751344Y-65408573D01*
X313710100Y-65416820D01*
X313630905Y-65469851D01*
X313607266Y-65481878D01*
X313574981Y-65507299D01*
X313540821Y-65530173D01*
X313522077Y-65548954D01*
X313447203Y-65607909D01*
X313426632Y-65644590D01*
X313063343Y-66008605D01*
X313027449Y-66028704D01*
X312967884Y-66104254D01*
X312948502Y-66123675D01*
X312926199Y-66157127D01*
X312901316Y-66188687D01*
X312888862Y-66213126D01*
X312835488Y-66293179D01*
X312827502Y-66333536D01*
X312594674Y-66790427D01*
X312566461Y-66820956D01*
X312533319Y-66910828D01*
X312521055Y-66934894D01*
X312510027Y-66973988D01*
X312495973Y-67012099D01*
X312491751Y-67038779D01*
X312465746Y-67130968D01*
X312470629Y-67172246D01*
X312390265Y-67680071D01*
X312372922Y-67717678D01*
X312369143Y-67813541D01*
X312364897Y-67840371D01*
X301126524Y-67840371D01*
X300873466Y-67587313D01*
X300456306Y-67414520D01*
X300004774Y-67414520D01*
X299587614Y-67587313D01*
X299268333Y-67906594D01*
X299095540Y-68323754D01*
X284334235Y-68323754D01*
X284345000Y-68297766D01*
X284345000Y-67846234D01*
X284172207Y-67429074D01*
X283852926Y-67109793D01*
X283435766Y-66937000D01*
X282984234Y-66937000D01*
X282567074Y-67109793D01*
X282247793Y-67429074D01*
X282075000Y-67846234D01*
X200548387Y-67846234D01*
X200289466Y-67587313D01*
X199872306Y-67414520D01*
X199420774Y-67414520D01*
X199003614Y-67587313D01*
X198684333Y-67906594D01*
X198511540Y-68323754D01*
X67893761Y-68323754D01*
X67538306Y-68176520D01*
X67086774Y-68176520D01*
X66669614Y-68349313D01*
X66350333Y-68668594D01*
X66177540Y-69085754D01*
X59890758Y-69085754D01*
X59949143Y-68971291D01*
X59977441Y-68940672D01*
X60010541Y-68850921D01*
X60022758Y-68826969D01*
X60033834Y-68787760D01*
X60047933Y-68749531D01*
X60052136Y-68722973D01*
X60078142Y-68630916D01*
X60073260Y-68589511D01*
X60153657Y-68081543D01*
X60171004Y-68043924D01*
X60174781Y-67948076D01*
X60179025Y-67921259D01*
X60177431Y-67880808D01*
X60179025Y-67840357D01*
X60174781Y-67813540D01*
X60171004Y-67717692D01*
X60153657Y-67680073D01*
X60073260Y-67172107D01*
X60078142Y-67130702D01*
X60052137Y-67038647D01*
X60047933Y-67012086D01*
X60033833Y-66973853D01*
X60022758Y-66934649D01*
X60010543Y-66910701D01*
X59977441Y-66820944D01*
X59949142Y-66790323D01*
X59716036Y-66333316D01*
X59708044Y-66292990D01*
X59654627Y-66212924D01*
X59642152Y-66188466D01*
X59617279Y-66156943D01*
X59594980Y-66123519D01*
X59575568Y-66104079D01*
X59515958Y-66028532D01*
X59480086Y-66008463D01*
X59116684Y-65644549D01*
X59096199Y-65608006D01*
X59021202Y-65548932D01*
X59002342Y-65530046D01*
X58968319Y-65507278D01*
X58936159Y-65481946D01*
X58912373Y-65469839D01*
X58833030Y-65416742D01*
X58791947Y-65408540D01*
X58333888Y-65175381D01*
X58303511Y-65147302D01*
X58213463Y-65114083D01*
X58189214Y-65101740D01*
X58150299Y-65090782D01*
X58112376Y-65076792D01*
X58085506Y-65072537D01*
X57993114Y-65046520D01*
X57952033Y-65051399D01*
X57364433Y-64958343D01*
X57311463Y-64947807D01*
X57297901Y-64947807D01*
X57284514Y-64945687D01*
X57230582Y-64947807D01*
X54257418Y-64947807D01*
X54203486Y-64945687D01*
X54190099Y-64947807D01*
X54176539Y-64947807D01*
X54123576Y-64958342D01*
X53535968Y-65051399D01*
X53494887Y-65046520D01*
X53402495Y-65072537D01*
X53375625Y-65076792D01*
X53337702Y-65090782D01*
X53298787Y-65101740D01*
X53274536Y-65114084D01*
X53184491Y-65147302D01*
X53154114Y-65175381D01*
X52696056Y-65408540D01*
X52654972Y-65416742D01*
X52575623Y-65469842D01*
X52551844Y-65481946D01*
X52519696Y-65507268D01*
X52485660Y-65530045D01*
X52466792Y-65548939D01*
X52391804Y-65608006D01*
X52371322Y-65644545D01*
X52007918Y-66008462D01*
X51972044Y-66028532D01*
X51912430Y-66104084D01*
X51893023Y-66123519D01*
X51870731Y-66156933D01*
X51845849Y-66188467D01*
X51833370Y-66212933D01*
X51779959Y-66292990D01*
X51771968Y-66333313D01*
X51538860Y-66790326D01*
X51510563Y-66820944D01*
X51477462Y-66910698D01*
X51465244Y-66934651D01*
X51454168Y-66973857D01*
X51440070Y-67012085D01*
X51435866Y-67038645D01*
X51409860Y-67130704D01*
X51414743Y-67172109D01*
X51334346Y-67680073D01*
X51316998Y-67717692D01*
X51313221Y-67813540D01*
X51308977Y-67840357D01*
X51310571Y-67880808D01*
X51308977Y-67921259D01*
X51313221Y-67948076D01*
X51316998Y-68043923D01*
X51334345Y-68081542D01*
X51414743Y-68589508D01*
X51409860Y-68630914D01*
X51435867Y-68722975D01*
X51440070Y-68749532D01*
X51454167Y-68787756D01*
X51465244Y-68826967D01*
X51477463Y-68850922D01*
X51510563Y-68940673D01*
X51538859Y-68971291D01*
X51771966Y-69428300D01*
X51779958Y-69468625D01*
X51833371Y-69548685D01*
X51845850Y-69573150D01*
X51870733Y-69604686D01*
X51893023Y-69638096D01*
X51912427Y-69657527D01*
X51972044Y-69733084D01*
X52007920Y-69753155D01*
X52200298Y-69945805D01*
X50170421Y-69945805D01*
X50102959Y-69932386D01*
X50035498Y-69945805D01*
X50035497Y-69945805D01*
X49835686Y-69985550D01*
X49609102Y-70136948D01*
X49457704Y-70363532D01*
X49404540Y-70630805D01*
X48929007Y-70630805D01*
X48929007Y-67184711D01*
X49001499Y-66727036D01*
X49187090Y-66362537D01*
X49475874Y-66074006D01*
X49840323Y-65888383D01*
X50297961Y-65815818D01*
X50463184Y-65815818D01*
X50503253Y-65827103D01*
X50598307Y-65815818D01*
X50625260Y-65815818D01*
X50665163Y-65807881D01*
X50773861Y-65794976D01*
X50797967Y-65781464D01*
X50825071Y-65776073D01*
X50916093Y-65715254D01*
X51011577Y-65661735D01*
X51028676Y-65640029D01*
X51051655Y-65624675D01*
X51112477Y-65533648D01*
X51137644Y-65501700D01*
X51149867Y-65477690D01*
X51203053Y-65398091D01*
X51211175Y-65357259D01*
X51264522Y-65252466D01*
X51608174Y-64909023D01*
X52041477Y-64688418D01*
X52575883Y-64603812D01*
X58912112Y-64603812D01*
X59446435Y-64688418D01*
X59446435Y-64688418D01*
G37*
X59446435Y-64688418D02*
X59879848Y-64909041D01*
X60223483Y-65252469D01*
X60276828Y-65357258D01*
X60284950Y-65398091D01*
X60338136Y-65477690D01*
X60350359Y-65501700D01*
X60375526Y-65533648D01*
X60436348Y-65624675D01*
X60459327Y-65640029D01*
X60476426Y-65661735D01*
X60571906Y-65715252D01*
X60662932Y-65776073D01*
X60690038Y-65781465D01*
X60714142Y-65794975D01*
X60822833Y-65807879D01*
X60862743Y-65815818D01*
X60889699Y-65815818D01*
X60984750Y-65827103D01*
X61024819Y-65815818D01*
X311517957Y-65815818D01*
X311557610Y-65827037D01*
X311653082Y-65815818D01*
X311680450Y-65815818D01*
X311719958Y-65807959D01*
X311828257Y-65795233D01*
X311852744Y-65781547D01*
X311880261Y-65776073D01*
X311970948Y-65715478D01*
X312066131Y-65662277D01*
X312083515Y-65640264D01*
X312106845Y-65624675D01*
X312167437Y-65533992D01*
X312192390Y-65502394D01*
X312204830Y-65478030D01*
X312258243Y-65398091D01*
X312266283Y-65357669D01*
X312319898Y-65252662D01*
X312663504Y-64909040D01*
X313097158Y-64688408D01*
X313630953Y-64603812D01*
X319967158Y-64603812D01*
X320501915Y-64688442D01*
X320935513Y-64909046D01*
X321279120Y-65252654D01*
X321332719Y-65357647D01*
X321340764Y-65398091D01*
X321394166Y-65478013D01*
X321406594Y-65502358D01*
X321431558Y-65533975D01*
X321492162Y-65624675D01*
X321515472Y-65640250D01*
X321532843Y-65662250D01*
X321628046Y-65715469D01*
X321718746Y-65776073D01*
X321746242Y-65781542D01*
X321770710Y-65795220D01*
X321879032Y-65807956D01*
X321918557Y-65815818D01*
X321945901Y-65815818D01*
X322041355Y-65827041D01*
X322081031Y-65815818D01*
X322245126Y-65815818D01*
X322703630Y-65888400D01*
X323067626Y-66074007D01*
X323357015Y-66362721D01*
X323542166Y-66726524D01*
X323613993Y-67184229D01*
X323613992Y-82077395D01*
X323542166Y-82535093D01*
X323357015Y-82898896D01*
X323067626Y-83187610D01*
X322703630Y-83373217D01*
X322245126Y-83445799D01*
X322081031Y-83445799D01*
X322041355Y-83434576D01*
X321945901Y-83445799D01*
X321918557Y-83445799D01*
X321879032Y-83453661D01*
X321770710Y-83466397D01*
X321746242Y-83480075D01*
X321718746Y-83485544D01*
X321628046Y-83546148D01*
X321532843Y-83599367D01*
X321515472Y-83621367D01*
X321492162Y-83636942D01*
X321431558Y-83727642D01*
X321406594Y-83759259D01*
X321394166Y-83783604D01*
X321340764Y-83863526D01*
X321332719Y-83903970D01*
X321279120Y-84008963D01*
X320935513Y-84352571D01*
X320501915Y-84573175D01*
X319967158Y-84657805D01*
X313630953Y-84657805D01*
X313097158Y-84573209D01*
X312663504Y-84352577D01*
X312319898Y-84008955D01*
X312266283Y-83903948D01*
X312258243Y-83863526D01*
X312204830Y-83783587D01*
X312192390Y-83759223D01*
X312167437Y-83727625D01*
X312106845Y-83636942D01*
X312083515Y-83621353D01*
X312066131Y-83599340D01*
X311970948Y-83546139D01*
X311880261Y-83485544D01*
X311852744Y-83480070D01*
X311828257Y-83466384D01*
X311719958Y-83453658D01*
X311680450Y-83445799D01*
X311653082Y-83445799D01*
X311557610Y-83434580D01*
X311517957Y-83445799D01*
X61024819Y-83445799D01*
X60984750Y-83434514D01*
X60889699Y-83445799D01*
X60862743Y-83445799D01*
X60822833Y-83453738D01*
X60714142Y-83466642D01*
X60690038Y-83480152D01*
X60662932Y-83485544D01*
X60571906Y-83546365D01*
X60476426Y-83599882D01*
X60459327Y-83621588D01*
X60436348Y-83636942D01*
X60375526Y-83727969D01*
X60350359Y-83759917D01*
X60338136Y-83783927D01*
X60284950Y-83863526D01*
X60276828Y-83904359D01*
X60223483Y-84009148D01*
X59879848Y-84352576D01*
X59446435Y-84573199D01*
X58912112Y-84657805D01*
X52575883Y-84657805D01*
X52041477Y-84573199D01*
X51608174Y-84352594D01*
X51264522Y-84009151D01*
X51211175Y-83904358D01*
X51203053Y-83863526D01*
X51149867Y-83783927D01*
X51137644Y-83759917D01*
X51112477Y-83727969D01*
X51051655Y-83636942D01*
X51028676Y-83621588D01*
X51011577Y-83599882D01*
X50916093Y-83546363D01*
X50825071Y-83485544D01*
X50797967Y-83480153D01*
X50773861Y-83466641D01*
X50665163Y-83453736D01*
X50625260Y-83445799D01*
X50598307Y-83445799D01*
X50503253Y-83434514D01*
X50463184Y-83445799D01*
X50297961Y-83445799D01*
X49840323Y-83373234D01*
X49475874Y-83187611D01*
X49187090Y-82899080D01*
X49001499Y-82534581D01*
X48929007Y-82076906D01*
X48929007Y-70630805D01*
X49404540Y-70630805D01*
X49417960Y-70698271D01*
X49417959Y-72563350D01*
X49404540Y-72630812D01*
X49457704Y-72898085D01*
X49609102Y-73124669D01*
X49768984Y-73231498D01*
X49835686Y-73276067D01*
X50102959Y-73329231D01*
X50170420Y-73315812D01*
X54035513Y-73315812D01*
X54102974Y-73329231D01*
X54370247Y-73276067D01*
X54596831Y-73124669D01*
X54730675Y-72924357D01*
X54743940Y-72990157D01*
X55005570Y-73470906D01*
X55123338Y-73566083D01*
X55076020Y-73597700D01*
X54767256Y-74059798D01*
X54658832Y-74604880D01*
X54767256Y-75149962D01*
X55076020Y-75612060D01*
X55089220Y-75620880D01*
X55076020Y-75629700D01*
X54767256Y-76091798D01*
X54721239Y-76323139D01*
X54596831Y-76136948D01*
X54370247Y-75985550D01*
X54170436Y-75945805D01*
X54170435Y-75945805D01*
X54102974Y-75932386D01*
X54035512Y-75945805D01*
X50170421Y-75945805D01*
X50102959Y-75932386D01*
X50035498Y-75945805D01*
X50035497Y-75945805D01*
X49835686Y-75985550D01*
X49609102Y-76136948D01*
X49457704Y-76363532D01*
X49404540Y-76630805D01*
X49417960Y-76698271D01*
X49417959Y-78563350D01*
X49404540Y-78630812D01*
X49457704Y-78898085D01*
X49609102Y-79124669D01*
X49768984Y-79231498D01*
X49835686Y-79276067D01*
X50102959Y-79329231D01*
X50170420Y-79315812D01*
X52200296Y-79315812D01*
X52007918Y-79508462D01*
X51972044Y-79528532D01*
X51912430Y-79604084D01*
X51893023Y-79623519D01*
X51870731Y-79656933D01*
X51845849Y-79688467D01*
X51833370Y-79712933D01*
X51779959Y-79792990D01*
X51771968Y-79833313D01*
X51538860Y-80290326D01*
X51510563Y-80320944D01*
X51477462Y-80410698D01*
X51465244Y-80434651D01*
X51454168Y-80473857D01*
X51440070Y-80512085D01*
X51435866Y-80538644D01*
X51409860Y-80630704D01*
X51414743Y-80672109D01*
X51334345Y-81180075D01*
X51316998Y-81217694D01*
X51313221Y-81313541D01*
X51308977Y-81340358D01*
X51310571Y-81380809D01*
X51308977Y-81421260D01*
X51313221Y-81448077D01*
X51316998Y-81543925D01*
X51334346Y-81581544D01*
X51414743Y-82089508D01*
X51409860Y-82130913D01*
X51435866Y-82222972D01*
X51440070Y-82249532D01*
X51454168Y-82287760D01*
X51465244Y-82326966D01*
X51477462Y-82350919D01*
X51510563Y-82440673D01*
X51538860Y-82471291D01*
X51771968Y-82928304D01*
X51779959Y-82968627D01*
X51833370Y-83048684D01*
X51845849Y-83073150D01*
X51870731Y-83104684D01*
X51893023Y-83138098D01*
X51912430Y-83157533D01*
X51972044Y-83233085D01*
X52007918Y-83253155D01*
X52371322Y-83617072D01*
X52391804Y-83653611D01*
X52466792Y-83712678D01*
X52485660Y-83731572D01*
X52519696Y-83754349D01*
X52551844Y-83779671D01*
X52575623Y-83791775D01*
X52654972Y-83844875D01*
X52696056Y-83853077D01*
X53154114Y-84086236D01*
X53184491Y-84114315D01*
X53274536Y-84147533D01*
X53298787Y-84159877D01*
X53337702Y-84170835D01*
X53375625Y-84184825D01*
X53402495Y-84189080D01*
X53494887Y-84215097D01*
X53535968Y-84210218D01*
X54123576Y-84303275D01*
X54176539Y-84313810D01*
X54190099Y-84313810D01*
X54203486Y-84315930D01*
X54257418Y-84313810D01*
X57230582Y-84313810D01*
X57284514Y-84315930D01*
X57297901Y-84313810D01*
X57311463Y-84313810D01*
X57364433Y-84303274D01*
X57952033Y-84210218D01*
X57993114Y-84215097D01*
X58085506Y-84189080D01*
X58112376Y-84184825D01*
X58150299Y-84170835D01*
X58189214Y-84159877D01*
X58213463Y-84147534D01*
X58303511Y-84114315D01*
X58333888Y-84086236D01*
X58791947Y-83853077D01*
X58833030Y-83844875D01*
X58912373Y-83791778D01*
X58936159Y-83779671D01*
X58968319Y-83754339D01*
X59002342Y-83731571D01*
X59021202Y-83712685D01*
X59096199Y-83653611D01*
X59116684Y-83617068D01*
X59480086Y-83253154D01*
X59515958Y-83233085D01*
X59575568Y-83157538D01*
X59594980Y-83138098D01*
X59617279Y-83104674D01*
X59642152Y-83073151D01*
X59654627Y-83048693D01*
X59708044Y-82968627D01*
X59716036Y-82928301D01*
X59949142Y-82471294D01*
X59977441Y-82440673D01*
X60010543Y-82350916D01*
X60022758Y-82326968D01*
X60033833Y-82287764D01*
X60047933Y-82249531D01*
X60052137Y-82222970D01*
X60078142Y-82130915D01*
X60073260Y-82089510D01*
X60153657Y-81581544D01*
X60171004Y-81543925D01*
X60174781Y-81448077D01*
X60179025Y-81421260D01*
X60177431Y-81380809D01*
X60179024Y-81340372D01*
X312364897Y-81340372D01*
X312366491Y-81380809D01*
X312364897Y-81421246D01*
X312369143Y-81448076D01*
X312372922Y-81543939D01*
X312390265Y-81581546D01*
X312470629Y-82089371D01*
X312465746Y-82130649D01*
X312491751Y-82222838D01*
X312495973Y-82249518D01*
X312510027Y-82287629D01*
X312521055Y-82326723D01*
X312533319Y-82350789D01*
X312566461Y-82440661D01*
X312594674Y-82471190D01*
X312827502Y-82928081D01*
X312835488Y-82968438D01*
X312888862Y-83048491D01*
X312901316Y-83072930D01*
X312926199Y-83104490D01*
X312948502Y-83137942D01*
X312967884Y-83157363D01*
X313027449Y-83232913D01*
X313063343Y-83253012D01*
X313426632Y-83617027D01*
X313447203Y-83653708D01*
X313522077Y-83712663D01*
X313540821Y-83731444D01*
X313574981Y-83754318D01*
X313607266Y-83779739D01*
X313630905Y-83791766D01*
X313710100Y-83844797D01*
X313751344Y-83853044D01*
X314209719Y-84086259D01*
X314240010Y-84114266D01*
X314330151Y-84147533D01*
X314354503Y-84159923D01*
X314393319Y-84170845D01*
X314431136Y-84184802D01*
X314458114Y-84189078D01*
X314550612Y-84215106D01*
X314591580Y-84210233D01*
X315178538Y-84303267D01*
X315231539Y-84313810D01*
X315245051Y-84313810D01*
X315258395Y-84315925D01*
X315312383Y-84313810D01*
X318285547Y-84313810D01*
X318339452Y-84315934D01*
X318352872Y-84313810D01*
X318366463Y-84313810D01*
X318419394Y-84303281D01*
X319007342Y-84210225D01*
X319048382Y-84215108D01*
X319140814Y-84189100D01*
X319167724Y-84184841D01*
X319205613Y-84170867D01*
X319244492Y-84159928D01*
X319268778Y-84147572D01*
X319358865Y-84114348D01*
X319389216Y-84086298D01*
X319847702Y-83853039D01*
X319888959Y-83844788D01*
X319968133Y-83791768D01*
X319991763Y-83779746D01*
X320024070Y-83754309D01*
X320058235Y-83731430D01*
X320076962Y-83712665D01*
X320151829Y-83653718D01*
X320172411Y-83617019D01*
X320535677Y-83253006D01*
X320571559Y-83232913D01*
X320631131Y-83157355D01*
X320650520Y-83137926D01*
X320672814Y-83104486D01*
X320697693Y-83072931D01*
X320710153Y-83048480D01*
X320763530Y-82968418D01*
X320771512Y-82928071D01*
X321004330Y-82471203D01*
X321032534Y-82440686D01*
X321065685Y-82350803D01*
X321077954Y-82326726D01*
X321088978Y-82287646D01*
X321103030Y-82249546D01*
X321107255Y-82222852D01*
X321133264Y-82130652D01*
X321128382Y-82089387D01*
X321208771Y-81581547D01*
X321226125Y-81543911D01*
X321229899Y-81448074D01*
X321234141Y-81421275D01*
X321232548Y-81380809D01*
X321234141Y-81340343D01*
X321229899Y-81313544D01*
X321226125Y-81217707D01*
X321208771Y-81180071D01*
X321128382Y-80672230D01*
X321133264Y-80630965D01*
X321107255Y-80538765D01*
X321103030Y-80512071D01*
X321088978Y-80473971D01*
X321077954Y-80434891D01*
X321065685Y-80410814D01*
X321032534Y-80320931D01*
X321004330Y-80290414D01*
X320771512Y-79833546D01*
X320763530Y-79793199D01*
X320710153Y-79713137D01*
X320697693Y-79688686D01*
X320672814Y-79657131D01*
X320650520Y-79623691D01*
X320631131Y-79604262D01*
X320571559Y-79528704D01*
X320535677Y-79508611D01*
X320245741Y-79218079D01*
X322479549Y-79218079D01*
X322547010Y-79231498D01*
X322814283Y-79178334D01*
X323040867Y-79026936D01*
X323192265Y-78800352D01*
X323232010Y-78600541D01*
X323232010Y-78600540D01*
X323245429Y-78533079D01*
X323232010Y-78465617D01*
X323232010Y-76600534D01*
X323245429Y-76533072D01*
X323192265Y-76265799D01*
X323040867Y-76039215D01*
X322814283Y-75887817D01*
X322614472Y-75848072D01*
X322614471Y-75848072D01*
X322547010Y-75834653D01*
X322479548Y-75848072D01*
X318614479Y-75848072D01*
X318547017Y-75834653D01*
X318479556Y-75848072D01*
X318479555Y-75848072D01*
X318279744Y-75887817D01*
X318053160Y-76039215D01*
X317901762Y-76265799D01*
X317848598Y-76533072D01*
X317862018Y-76600538D01*
X317862017Y-78447807D01*
X315312383Y-78447807D01*
X315258395Y-78445692D01*
X315245051Y-78447807D01*
X315231539Y-78447807D01*
X315178538Y-78458350D01*
X314591580Y-78551384D01*
X314550612Y-78546511D01*
X314458114Y-78572539D01*
X314431136Y-78576815D01*
X314393319Y-78590772D01*
X314354503Y-78601694D01*
X314330151Y-78614084D01*
X314240010Y-78647351D01*
X314209719Y-78675358D01*
X313751344Y-78908573D01*
X313710100Y-78916820D01*
X313630905Y-78969851D01*
X313607266Y-78981878D01*
X313574981Y-79007299D01*
X313540821Y-79030173D01*
X313522077Y-79048954D01*
X313447203Y-79107909D01*
X313426632Y-79144590D01*
X313063343Y-79508605D01*
X313027449Y-79528704D01*
X312967884Y-79604254D01*
X312948502Y-79623675D01*
X312926199Y-79657127D01*
X312901316Y-79688687D01*
X312888862Y-79713126D01*
X312835488Y-79793179D01*
X312827502Y-79833536D01*
X312594674Y-80290427D01*
X312566461Y-80320956D01*
X312533319Y-80410828D01*
X312521055Y-80434894D01*
X312510027Y-80473988D01*
X312495973Y-80512099D01*
X312491751Y-80538779D01*
X312465746Y-80630968D01*
X312470629Y-80672246D01*
X312390265Y-81180073D01*
X312372922Y-81217679D01*
X312369143Y-81313542D01*
X312364897Y-81340372D01*
X60179024Y-81340372D01*
X60179025Y-81340358D01*
X60174781Y-81313541D01*
X60171004Y-81217693D01*
X60153657Y-81180074D01*
X60073260Y-80672107D01*
X60078142Y-80630702D01*
X60052137Y-80538646D01*
X60047933Y-80512086D01*
X60033833Y-80473854D01*
X60022758Y-80434649D01*
X60010542Y-80410700D01*
X59977441Y-80320945D01*
X59949143Y-80290325D01*
X59716036Y-79833316D01*
X59708044Y-79792990D01*
X59654627Y-79712924D01*
X59642152Y-79688466D01*
X59617279Y-79656943D01*
X59594980Y-79623519D01*
X59575568Y-79604079D01*
X59515958Y-79528532D01*
X59480086Y-79508463D01*
X59116684Y-79144549D01*
X59096199Y-79108006D01*
X59021202Y-79048932D01*
X59002342Y-79030046D01*
X58968319Y-79007278D01*
X58936159Y-78981946D01*
X58912373Y-78969839D01*
X58833030Y-78916742D01*
X58791947Y-78908540D01*
X58333888Y-78675381D01*
X58303511Y-78647302D01*
X58213463Y-78614083D01*
X58189214Y-78601740D01*
X58150299Y-78590782D01*
X58112376Y-78576792D01*
X58085506Y-78572537D01*
X57993114Y-78546520D01*
X57952033Y-78551399D01*
X57364433Y-78458343D01*
X57311463Y-78447807D01*
X57297901Y-78447807D01*
X57284514Y-78445687D01*
X57230582Y-78447807D01*
X54787974Y-78447807D01*
X54787974Y-77212969D01*
X55076020Y-77644060D01*
X55538118Y-77952824D01*
X55945612Y-78033880D01*
X59776788Y-78033880D01*
X60184282Y-77952824D01*
X60646380Y-77644060D01*
X60955144Y-77181962D01*
X61063568Y-76636880D01*
X61011587Y-76375554D01*
X61282960Y-76375554D01*
X61282960Y-76827086D01*
X61455753Y-77244246D01*
X61775034Y-77563527D01*
X62192194Y-77736320D01*
X62643726Y-77736320D01*
X63060886Y-77563527D01*
X63380167Y-77244246D01*
X63552960Y-76827086D01*
X63552960Y-76375554D01*
X63380167Y-75958394D01*
X63060886Y-75639113D01*
X62643726Y-75466320D01*
X62192194Y-75466320D01*
X61775034Y-75639113D01*
X61455753Y-75958394D01*
X61282960Y-76375554D01*
X61011587Y-76375554D01*
X60955144Y-76091798D01*
X60646380Y-75629700D01*
X60633180Y-75620880D01*
X60646380Y-75612060D01*
X60955144Y-75149962D01*
X61063568Y-74604880D01*
X60997305Y-74271754D01*
X75763117Y-74271754D01*
X75768735Y-74986996D01*
X76005729Y-75661856D01*
X76448544Y-76223564D01*
X77049432Y-76611553D01*
X77743600Y-76783985D01*
X78456196Y-76722268D01*
X79110382Y-76433056D01*
X79635616Y-75947534D01*
X79975263Y-75318057D01*
X80092700Y-74612500D01*
X80092431Y-74578286D01*
X80078787Y-74503574D01*
X80653000Y-74503574D01*
X80653000Y-74955106D01*
X80825793Y-75372266D01*
X81145074Y-75691547D01*
X81562234Y-75864340D01*
X82013766Y-75864340D01*
X82430926Y-75691547D01*
X82750207Y-75372266D01*
X82923000Y-74955106D01*
X82923000Y-74503574D01*
X82880916Y-74401974D01*
X96909000Y-74401974D01*
X96909000Y-74853506D01*
X97081793Y-75270666D01*
X97401074Y-75589947D01*
X97818234Y-75762740D01*
X98269766Y-75762740D01*
X98686926Y-75589947D01*
X99006207Y-75270666D01*
X99179000Y-74853506D01*
X99179000Y-74427374D01*
X113546000Y-74427374D01*
X113546000Y-74878906D01*
X113718793Y-75296066D01*
X114038074Y-75615347D01*
X114455234Y-75788140D01*
X114906766Y-75788140D01*
X115323926Y-75615347D01*
X115643207Y-75296066D01*
X115816000Y-74878906D01*
X115816000Y-74452774D01*
X130284600Y-74452774D01*
X130284600Y-74904306D01*
X130457393Y-75321466D01*
X130776674Y-75640747D01*
X131193834Y-75813540D01*
X131645366Y-75813540D01*
X132062526Y-75640747D01*
X132381807Y-75321466D01*
X132554600Y-74904306D01*
X132554600Y-74452774D01*
X146845400Y-74452774D01*
X146845400Y-74904306D01*
X147018193Y-75321466D01*
X147337474Y-75640747D01*
X147754634Y-75813540D01*
X148206166Y-75813540D01*
X148623326Y-75640747D01*
X148942607Y-75321466D01*
X149115400Y-74904306D01*
X149115400Y-74452774D01*
X149104879Y-74427374D01*
X163533200Y-74427374D01*
X163533200Y-74878906D01*
X163705993Y-75296066D01*
X164025274Y-75615347D01*
X164442434Y-75788140D01*
X164893966Y-75788140D01*
X165311126Y-75615347D01*
X165630407Y-75296066D01*
X165803200Y-74878906D01*
X165803200Y-74427374D01*
X180221000Y-74427374D01*
X180221000Y-74878906D01*
X180393793Y-75296066D01*
X180713074Y-75615347D01*
X181130234Y-75788140D01*
X181581766Y-75788140D01*
X181998926Y-75615347D01*
X182318207Y-75296066D01*
X182491000Y-74878906D01*
X182491000Y-74427374D01*
X182480479Y-74401974D01*
X196781800Y-74401974D01*
X196781800Y-74853506D01*
X196954593Y-75270666D01*
X197273874Y-75589947D01*
X197691034Y-75762740D01*
X198142566Y-75762740D01*
X198559726Y-75589947D01*
X198879007Y-75270666D01*
X199051800Y-74853506D01*
X199051800Y-74401974D01*
X199024164Y-74335254D01*
X209176617Y-74335254D01*
X209182235Y-75050496D01*
X209419229Y-75725356D01*
X209862044Y-76287064D01*
X210462932Y-76675053D01*
X211157100Y-76847485D01*
X211869696Y-76785768D01*
X212523882Y-76496556D01*
X213049116Y-76011034D01*
X213388763Y-75381557D01*
X213506200Y-74676000D01*
X213505931Y-74641786D01*
X213465381Y-74419754D01*
X214259540Y-74419754D01*
X214259540Y-74871286D01*
X214432333Y-75288446D01*
X214751614Y-75607727D01*
X215168774Y-75780520D01*
X215620306Y-75780520D01*
X216037466Y-75607727D01*
X216356747Y-75288446D01*
X216529540Y-74871286D01*
X216529540Y-74452774D01*
X230106600Y-74452774D01*
X230106600Y-74904306D01*
X230279393Y-75321466D01*
X230598674Y-75640747D01*
X231015834Y-75813540D01*
X231467366Y-75813540D01*
X231884526Y-75640747D01*
X232203807Y-75321466D01*
X232376600Y-74904306D01*
X232376600Y-74452774D01*
X232366079Y-74427374D01*
X246794400Y-74427374D01*
X246794400Y-74878906D01*
X246967193Y-75296066D01*
X247286474Y-75615347D01*
X247703634Y-75788140D01*
X248155166Y-75788140D01*
X248572326Y-75615347D01*
X248891607Y-75296066D01*
X249064400Y-74878906D01*
X249064400Y-74427374D01*
X248896064Y-74020974D01*
X262009000Y-74020974D01*
X262009000Y-74472506D01*
X262181793Y-74889666D01*
X262501074Y-75208947D01*
X262918234Y-75381740D01*
X263369766Y-75381740D01*
X263786926Y-75208947D01*
X264106207Y-74889666D01*
X264279000Y-74472506D01*
X264279000Y-74249574D01*
X280043000Y-74249574D01*
X280043000Y-74701106D01*
X280215793Y-75118266D01*
X280535074Y-75437547D01*
X280952234Y-75610340D01*
X281403766Y-75610340D01*
X281820926Y-75437547D01*
X282140207Y-75118266D01*
X282313000Y-74701106D01*
X282313000Y-74335254D01*
X292488617Y-74335254D01*
X292494235Y-75050496D01*
X292731229Y-75725356D01*
X293174044Y-76287064D01*
X293774932Y-76675053D01*
X294469100Y-76847485D01*
X295181696Y-76785768D01*
X295835882Y-76496556D01*
X296361116Y-76011034D01*
X296700763Y-75381557D01*
X296818200Y-74676000D01*
X296817931Y-74641786D01*
X296782948Y-74450234D01*
X297569000Y-74450234D01*
X297569000Y-74901766D01*
X297741793Y-75318926D01*
X298061074Y-75638207D01*
X298478234Y-75811000D01*
X298929766Y-75811000D01*
X299346926Y-75638207D01*
X299666207Y-75318926D01*
X299839000Y-74901766D01*
X299839000Y-74452480D01*
X310833072Y-74452480D01*
X310941496Y-74997562D01*
X311250260Y-75459660D01*
X311263460Y-75468480D01*
X311250260Y-75477300D01*
X310941496Y-75939398D01*
X310833072Y-76484480D01*
X310941496Y-77029562D01*
X311250260Y-77491660D01*
X311712358Y-77800424D01*
X312119852Y-77881480D01*
X315951028Y-77881480D01*
X316358522Y-77800424D01*
X316820620Y-77491660D01*
X317129384Y-77029562D01*
X317237808Y-76484480D01*
X317129384Y-75939398D01*
X316820620Y-75477300D01*
X316807420Y-75468480D01*
X316820620Y-75459660D01*
X317129384Y-74997562D01*
X317237808Y-74452480D01*
X317129384Y-73907398D01*
X316820620Y-73445300D01*
X316773302Y-73413683D01*
X316891070Y-73318506D01*
X317152700Y-72837757D01*
X317167660Y-72763550D01*
X317045160Y-72547480D01*
X314162440Y-72547480D01*
X314162440Y-72567480D01*
X313908440Y-72567480D01*
X313908440Y-72547480D01*
X311025720Y-72547480D01*
X310903220Y-72763550D01*
X310918180Y-72837757D01*
X311179810Y-73318506D01*
X311297578Y-73413683D01*
X311250260Y-73445300D01*
X310941496Y-73907398D01*
X310833072Y-74452480D01*
X299839000Y-74452480D01*
X299839000Y-74450234D01*
X299666207Y-74033074D01*
X299346926Y-73713793D01*
X298929766Y-73541000D01*
X298478234Y-73541000D01*
X298061074Y-73713793D01*
X297741793Y-74033074D01*
X297569000Y-74450234D01*
X296782948Y-74450234D01*
X296689426Y-73938161D01*
X296339934Y-73314096D01*
X295807138Y-72836885D01*
X295148491Y-72557984D01*
X294435013Y-72507467D01*
X293743639Y-72690781D01*
X293148919Y-73088161D01*
X292714982Y-73656755D01*
X292488617Y-74335254D01*
X282313000Y-74335254D01*
X282313000Y-74249574D01*
X282140207Y-73832414D01*
X281820926Y-73513133D01*
X281403766Y-73340340D01*
X280952234Y-73340340D01*
X280535074Y-73513133D01*
X280215793Y-73832414D01*
X280043000Y-74249574D01*
X264279000Y-74249574D01*
X264279000Y-74020974D01*
X264106207Y-73603814D01*
X263786926Y-73284533D01*
X263369766Y-73111740D01*
X262918234Y-73111740D01*
X262501074Y-73284533D01*
X262181793Y-73603814D01*
X262009000Y-74020974D01*
X248896064Y-74020974D01*
X248891607Y-74010214D01*
X248572326Y-73690933D01*
X248155166Y-73518140D01*
X247703634Y-73518140D01*
X247286474Y-73690933D01*
X246967193Y-74010214D01*
X246794400Y-74427374D01*
X232366079Y-74427374D01*
X232203807Y-74035614D01*
X231884526Y-73716333D01*
X231467366Y-73543540D01*
X231015834Y-73543540D01*
X230598674Y-73716333D01*
X230279393Y-74035614D01*
X230106600Y-74452774D01*
X216529540Y-74452774D01*
X216529540Y-74419754D01*
X216356747Y-74002594D01*
X216037466Y-73683313D01*
X215620306Y-73510520D01*
X215168774Y-73510520D01*
X214751614Y-73683313D01*
X214432333Y-74002594D01*
X214259540Y-74419754D01*
X213465381Y-74419754D01*
X213377426Y-73938161D01*
X213027934Y-73314096D01*
X212495138Y-72836885D01*
X211836491Y-72557984D01*
X211123013Y-72507467D01*
X210431639Y-72690781D01*
X209836919Y-73088161D01*
X209402982Y-73656755D01*
X209176617Y-74335254D01*
X199024164Y-74335254D01*
X198879007Y-73984814D01*
X198559726Y-73665533D01*
X198142566Y-73492740D01*
X197691034Y-73492740D01*
X197273874Y-73665533D01*
X196954593Y-73984814D01*
X196781800Y-74401974D01*
X182480479Y-74401974D01*
X182318207Y-74010214D01*
X181998926Y-73690933D01*
X181581766Y-73518140D01*
X181130234Y-73518140D01*
X180713074Y-73690933D01*
X180393793Y-74010214D01*
X180221000Y-74427374D01*
X165803200Y-74427374D01*
X165630407Y-74010214D01*
X165311126Y-73690933D01*
X164893966Y-73518140D01*
X164442434Y-73518140D01*
X164025274Y-73690933D01*
X163705993Y-74010214D01*
X163533200Y-74427374D01*
X149104879Y-74427374D01*
X148942607Y-74035614D01*
X148623326Y-73716333D01*
X148206166Y-73543540D01*
X147754634Y-73543540D01*
X147337474Y-73716333D01*
X147018193Y-74035614D01*
X146845400Y-74452774D01*
X132554600Y-74452774D01*
X132381807Y-74035614D01*
X132062526Y-73716333D01*
X131645366Y-73543540D01*
X131193834Y-73543540D01*
X130776674Y-73716333D01*
X130457393Y-74035614D01*
X130284600Y-74452774D01*
X115816000Y-74452774D01*
X115816000Y-74427374D01*
X115643207Y-74010214D01*
X115323926Y-73690933D01*
X114906766Y-73518140D01*
X114455234Y-73518140D01*
X114038074Y-73690933D01*
X113718793Y-74010214D01*
X113546000Y-74427374D01*
X99179000Y-74427374D01*
X99179000Y-74401974D01*
X99006207Y-73984814D01*
X98686926Y-73665533D01*
X98269766Y-73492740D01*
X97818234Y-73492740D01*
X97401074Y-73665533D01*
X97081793Y-73984814D01*
X96909000Y-74401974D01*
X82880916Y-74401974D01*
X82750207Y-74086414D01*
X82430926Y-73767133D01*
X82013766Y-73594340D01*
X81562234Y-73594340D01*
X81145074Y-73767133D01*
X80825793Y-74086414D01*
X80653000Y-74503574D01*
X80078787Y-74503574D01*
X79963926Y-73874661D01*
X79614434Y-73250596D01*
X79081638Y-72773385D01*
X78422991Y-72494484D01*
X77709513Y-72443967D01*
X77018139Y-72627281D01*
X76423419Y-73024661D01*
X75989482Y-73593255D01*
X75763117Y-74271754D01*
X60997305Y-74271754D01*
X60955144Y-74059798D01*
X60646380Y-73597700D01*
X60599062Y-73566083D01*
X60716830Y-73470906D01*
X60978460Y-72990157D01*
X60993420Y-72915950D01*
X60870920Y-72699880D01*
X57988200Y-72699880D01*
X57988200Y-72719880D01*
X57734200Y-72719880D01*
X57734200Y-72699880D01*
X57714200Y-72699880D01*
X57714200Y-72445880D01*
X57734200Y-72445880D01*
X57734200Y-71175880D01*
X57988200Y-71175880D01*
X57988200Y-72445880D01*
X60870920Y-72445880D01*
X60993420Y-72229810D01*
X60978460Y-72155603D01*
X60935907Y-72077410D01*
X310903220Y-72077410D01*
X311025720Y-72293480D01*
X313908440Y-72293480D01*
X313908440Y-71023480D01*
X314162440Y-71023480D01*
X314162440Y-72293480D01*
X317045160Y-72293480D01*
X317167660Y-72077410D01*
X317152700Y-72003203D01*
X316891070Y-71522454D01*
X316465381Y-71178421D01*
X315940440Y-71023480D01*
X314162440Y-71023480D01*
X313908440Y-71023480D01*
X312130440Y-71023480D01*
X311605499Y-71178421D01*
X311179810Y-71522454D01*
X310918180Y-72003203D01*
X310903220Y-72077410D01*
X60935907Y-72077410D01*
X60716830Y-71674854D01*
X60291141Y-71330821D01*
X59766200Y-71175880D01*
X57988200Y-71175880D01*
X57734200Y-71175880D01*
X55956200Y-71175880D01*
X55431259Y-71330821D01*
X55005570Y-71674854D01*
X54787974Y-72074690D01*
X54787974Y-70813809D01*
X57230581Y-70813809D01*
X57284513Y-70815929D01*
X57297900Y-70813809D01*
X57311463Y-70813809D01*
X57364434Y-70803272D01*
X57952032Y-70710218D01*
X57993114Y-70715097D01*
X58085506Y-70689080D01*
X58112376Y-70684825D01*
X58150301Y-70670835D01*
X58189214Y-70659877D01*
X58213461Y-70647535D01*
X58303510Y-70614316D01*
X58333889Y-70586235D01*
X58791949Y-70353076D01*
X58833031Y-70344874D01*
X58912374Y-70291778D01*
X58936159Y-70279671D01*
X58968315Y-70254342D01*
X59002343Y-70231571D01*
X59021206Y-70212681D01*
X59096199Y-70153611D01*
X59116683Y-70117070D01*
X59480086Y-69753153D01*
X59515957Y-69733085D01*
X59575567Y-69657537D01*
X59594980Y-69638097D01*
X59617278Y-69604674D01*
X59642152Y-69573150D01*
X59654629Y-69548689D01*
X59708044Y-69468625D01*
X59716035Y-69428301D01*
X59890758Y-69085754D01*
X66177540Y-69085754D01*
X66177540Y-69537286D01*
X66350333Y-69954446D01*
X66669614Y-70273727D01*
X67086774Y-70446520D01*
X67538306Y-70446520D01*
X67955466Y-70273727D01*
X68274747Y-69954446D01*
X68447540Y-69537286D01*
X68447540Y-69085754D01*
X68274747Y-68668594D01*
X67955466Y-68349313D01*
X67893761Y-68323754D01*
X198511540Y-68323754D01*
X198511540Y-68775286D01*
X198684333Y-69192446D01*
X199003614Y-69511727D01*
X199420774Y-69684520D01*
X199872306Y-69684520D01*
X200289466Y-69511727D01*
X200608747Y-69192446D01*
X200781540Y-68775286D01*
X200781540Y-68323754D01*
X200608747Y-67906594D01*
X200548387Y-67846234D01*
X282075000Y-67846234D01*
X282075000Y-68297766D01*
X282247793Y-68714926D01*
X282567074Y-69034207D01*
X282984234Y-69207000D01*
X283435766Y-69207000D01*
X283852926Y-69034207D01*
X284172207Y-68714926D01*
X284334235Y-68323754D01*
X299095540Y-68323754D01*
X299095540Y-68775286D01*
X299268333Y-69192446D01*
X299587614Y-69511727D01*
X300004774Y-69684520D01*
X300456306Y-69684520D01*
X300873466Y-69511727D01*
X301192747Y-69192446D01*
X301365540Y-68775286D01*
X301365540Y-68323754D01*
X301192747Y-67906594D01*
X301126524Y-67840371D01*
X312364897Y-67840371D01*
X312366491Y-67880808D01*
X312364897Y-67921245D01*
X312369143Y-67948075D01*
X312372922Y-68043938D01*
X312390265Y-68081544D01*
X312470629Y-68589371D01*
X312465746Y-68630650D01*
X312491751Y-68722840D01*
X312495973Y-68749518D01*
X312510026Y-68787626D01*
X312521055Y-68826724D01*
X312533320Y-68850792D01*
X312566461Y-68940661D01*
X312594673Y-68971189D01*
X312827502Y-69428080D01*
X312835487Y-69468436D01*
X312888861Y-69548488D01*
X312901316Y-69572930D01*
X312926201Y-69604492D01*
X312948502Y-69637941D01*
X312967885Y-69657363D01*
X313027450Y-69732912D01*
X313063341Y-69753010D01*
X313426632Y-70117027D01*
X313447203Y-70153708D01*
X313522077Y-70212663D01*
X313540820Y-70231443D01*
X313574978Y-70254316D01*
X313607266Y-70279739D01*
X313630907Y-70291767D01*
X313710099Y-70344796D01*
X313751341Y-70353042D01*
X314209719Y-70586259D01*
X314240011Y-70614267D01*
X314330153Y-70647534D01*
X314354503Y-70659923D01*
X314393317Y-70670845D01*
X314431136Y-70684802D01*
X314458114Y-70689078D01*
X314550612Y-70715106D01*
X314591581Y-70710233D01*
X315178537Y-70803266D01*
X315231539Y-70813809D01*
X315245052Y-70813809D01*
X315258396Y-70815924D01*
X315312384Y-70813809D01*
X317862018Y-70813809D01*
X317862017Y-72465617D01*
X317848598Y-72533079D01*
X317901762Y-72800352D01*
X318053160Y-73026936D01*
X318279744Y-73178334D01*
X318428282Y-73207880D01*
X318547017Y-73231498D01*
X318614478Y-73218079D01*
X322479549Y-73218079D01*
X322547010Y-73231498D01*
X322665746Y-73207880D01*
X322814283Y-73178334D01*
X323040867Y-73026936D01*
X323192265Y-72800352D01*
X323245429Y-72533079D01*
X323232010Y-72465617D01*
X323232010Y-70600534D01*
X323245429Y-70533072D01*
X323224781Y-70429265D01*
X323192265Y-70265799D01*
X323040867Y-70039215D01*
X322814283Y-69887817D01*
X322614472Y-69848072D01*
X322614471Y-69848072D01*
X322547010Y-69834653D01*
X322479548Y-69848072D01*
X320440805Y-69848072D01*
X320535675Y-69753006D01*
X320571559Y-69732913D01*
X320631133Y-69657352D01*
X320650520Y-69637925D01*
X320672814Y-69604486D01*
X320697693Y-69572930D01*
X320710153Y-69548479D01*
X320763530Y-69468417D01*
X320771512Y-69428071D01*
X321004329Y-68971203D01*
X321032534Y-68940686D01*
X321065685Y-68850803D01*
X321077954Y-68826726D01*
X321088978Y-68787646D01*
X321103030Y-68749546D01*
X321107255Y-68722852D01*
X321133264Y-68630652D01*
X321128382Y-68589387D01*
X321208771Y-68081546D01*
X321226125Y-68043910D01*
X321229899Y-67948073D01*
X321234141Y-67921274D01*
X321232548Y-67880808D01*
X321234141Y-67840342D01*
X321229899Y-67813543D01*
X321226125Y-67717706D01*
X321208771Y-67680070D01*
X321128382Y-67172230D01*
X321133264Y-67130965D01*
X321107255Y-67038765D01*
X321103030Y-67012071D01*
X321088978Y-66973971D01*
X321077954Y-66934891D01*
X321065685Y-66910814D01*
X321032534Y-66820931D01*
X321004330Y-66790414D01*
X320771512Y-66333546D01*
X320763530Y-66293199D01*
X320710153Y-66213137D01*
X320697693Y-66188686D01*
X320672814Y-66157131D01*
X320650520Y-66123691D01*
X320631131Y-66104262D01*
X320571559Y-66028704D01*
X320535677Y-66008611D01*
X320172411Y-65644598D01*
X320151829Y-65607899D01*
X320076962Y-65548952D01*
X320058235Y-65530187D01*
X320024070Y-65507308D01*
X319991763Y-65481871D01*
X319968133Y-65469849D01*
X319888959Y-65416829D01*
X319847702Y-65408578D01*
X319389216Y-65175319D01*
X319358865Y-65147269D01*
X319268778Y-65114045D01*
X319244492Y-65101689D01*
X319205613Y-65090750D01*
X319167724Y-65076776D01*
X319140814Y-65072517D01*
X319048382Y-65046509D01*
X319007342Y-65051392D01*
X318419394Y-64958336D01*
X318366463Y-64947807D01*
X318352872Y-64947807D01*
X318339452Y-64945683D01*
X318285547Y-64947807D01*
X315312383Y-64947807D01*
X315258395Y-64945692D01*
X315245051Y-64947807D01*
X315231539Y-64947807D01*
X315178538Y-64958350D01*
X314591580Y-65051384D01*
X314550612Y-65046511D01*
X314458114Y-65072539D01*
X314431136Y-65076815D01*
X314393319Y-65090772D01*
X314354503Y-65101694D01*
X314330151Y-65114084D01*
X314240010Y-65147351D01*
X314209719Y-65175358D01*
X313751344Y-65408573D01*
X313710100Y-65416820D01*
X313630905Y-65469851D01*
X313607266Y-65481878D01*
X313574981Y-65507299D01*
X313540821Y-65530173D01*
X313522077Y-65548954D01*
X313447203Y-65607909D01*
X313426632Y-65644590D01*
X313063343Y-66008605D01*
X313027449Y-66028704D01*
X312967884Y-66104254D01*
X312948502Y-66123675D01*
X312926199Y-66157127D01*
X312901316Y-66188687D01*
X312888862Y-66213126D01*
X312835488Y-66293179D01*
X312827502Y-66333536D01*
X312594674Y-66790427D01*
X312566461Y-66820956D01*
X312533319Y-66910828D01*
X312521055Y-66934894D01*
X312510027Y-66973988D01*
X312495973Y-67012099D01*
X312491751Y-67038779D01*
X312465746Y-67130968D01*
X312470629Y-67172246D01*
X312390265Y-67680071D01*
X312372922Y-67717678D01*
X312369143Y-67813541D01*
X312364897Y-67840371D01*
X301126524Y-67840371D01*
X300873466Y-67587313D01*
X300456306Y-67414520D01*
X300004774Y-67414520D01*
X299587614Y-67587313D01*
X299268333Y-67906594D01*
X299095540Y-68323754D01*
X284334235Y-68323754D01*
X284345000Y-68297766D01*
X284345000Y-67846234D01*
X284172207Y-67429074D01*
X283852926Y-67109793D01*
X283435766Y-66937000D01*
X282984234Y-66937000D01*
X282567074Y-67109793D01*
X282247793Y-67429074D01*
X282075000Y-67846234D01*
X200548387Y-67846234D01*
X200289466Y-67587313D01*
X199872306Y-67414520D01*
X199420774Y-67414520D01*
X199003614Y-67587313D01*
X198684333Y-67906594D01*
X198511540Y-68323754D01*
X67893761Y-68323754D01*
X67538306Y-68176520D01*
X67086774Y-68176520D01*
X66669614Y-68349313D01*
X66350333Y-68668594D01*
X66177540Y-69085754D01*
X59890758Y-69085754D01*
X59949143Y-68971291D01*
X59977441Y-68940672D01*
X60010541Y-68850921D01*
X60022758Y-68826969D01*
X60033834Y-68787760D01*
X60047933Y-68749531D01*
X60052136Y-68722973D01*
X60078142Y-68630916D01*
X60073260Y-68589511D01*
X60153657Y-68081543D01*
X60171004Y-68043924D01*
X60174781Y-67948076D01*
X60179025Y-67921259D01*
X60177431Y-67880808D01*
X60179025Y-67840357D01*
X60174781Y-67813540D01*
X60171004Y-67717692D01*
X60153657Y-67680073D01*
X60073260Y-67172107D01*
X60078142Y-67130702D01*
X60052137Y-67038647D01*
X60047933Y-67012086D01*
X60033833Y-66973853D01*
X60022758Y-66934649D01*
X60010543Y-66910701D01*
X59977441Y-66820944D01*
X59949142Y-66790323D01*
X59716036Y-66333316D01*
X59708044Y-66292990D01*
X59654627Y-66212924D01*
X59642152Y-66188466D01*
X59617279Y-66156943D01*
X59594980Y-66123519D01*
X59575568Y-66104079D01*
X59515958Y-66028532D01*
X59480086Y-66008463D01*
X59116684Y-65644549D01*
X59096199Y-65608006D01*
X59021202Y-65548932D01*
X59002342Y-65530046D01*
X58968319Y-65507278D01*
X58936159Y-65481946D01*
X58912373Y-65469839D01*
X58833030Y-65416742D01*
X58791947Y-65408540D01*
X58333888Y-65175381D01*
X58303511Y-65147302D01*
X58213463Y-65114083D01*
X58189214Y-65101740D01*
X58150299Y-65090782D01*
X58112376Y-65076792D01*
X58085506Y-65072537D01*
X57993114Y-65046520D01*
X57952033Y-65051399D01*
X57364433Y-64958343D01*
X57311463Y-64947807D01*
X57297901Y-64947807D01*
X57284514Y-64945687D01*
X57230582Y-64947807D01*
X54257418Y-64947807D01*
X54203486Y-64945687D01*
X54190099Y-64947807D01*
X54176539Y-64947807D01*
X54123576Y-64958342D01*
X53535968Y-65051399D01*
X53494887Y-65046520D01*
X53402495Y-65072537D01*
X53375625Y-65076792D01*
X53337702Y-65090782D01*
X53298787Y-65101740D01*
X53274536Y-65114084D01*
X53184491Y-65147302D01*
X53154114Y-65175381D01*
X52696056Y-65408540D01*
X52654972Y-65416742D01*
X52575623Y-65469842D01*
X52551844Y-65481946D01*
X52519696Y-65507268D01*
X52485660Y-65530045D01*
X52466792Y-65548939D01*
X52391804Y-65608006D01*
X52371322Y-65644545D01*
X52007918Y-66008462D01*
X51972044Y-66028532D01*
X51912430Y-66104084D01*
X51893023Y-66123519D01*
X51870731Y-66156933D01*
X51845849Y-66188467D01*
X51833370Y-66212933D01*
X51779959Y-66292990D01*
X51771968Y-66333313D01*
X51538860Y-66790326D01*
X51510563Y-66820944D01*
X51477462Y-66910698D01*
X51465244Y-66934651D01*
X51454168Y-66973857D01*
X51440070Y-67012085D01*
X51435866Y-67038645D01*
X51409860Y-67130704D01*
X51414743Y-67172109D01*
X51334346Y-67680073D01*
X51316998Y-67717692D01*
X51313221Y-67813540D01*
X51308977Y-67840357D01*
X51310571Y-67880808D01*
X51308977Y-67921259D01*
X51313221Y-67948076D01*
X51316998Y-68043923D01*
X51334345Y-68081542D01*
X51414743Y-68589508D01*
X51409860Y-68630914D01*
X51435867Y-68722975D01*
X51440070Y-68749532D01*
X51454167Y-68787756D01*
X51465244Y-68826967D01*
X51477463Y-68850922D01*
X51510563Y-68940673D01*
X51538859Y-68971291D01*
X51771966Y-69428300D01*
X51779958Y-69468625D01*
X51833371Y-69548685D01*
X51845850Y-69573150D01*
X51870733Y-69604686D01*
X51893023Y-69638096D01*
X51912427Y-69657527D01*
X51972044Y-69733084D01*
X52007920Y-69753155D01*
X52200298Y-69945805D01*
X50170421Y-69945805D01*
X50102959Y-69932386D01*
X50035498Y-69945805D01*
X50035497Y-69945805D01*
X49835686Y-69985550D01*
X49609102Y-70136948D01*
X49457704Y-70363532D01*
X49404540Y-70630805D01*
X48929007Y-70630805D01*
X48929007Y-67184711D01*
X49001499Y-66727036D01*
X49187090Y-66362537D01*
X49475874Y-66074006D01*
X49840323Y-65888383D01*
X50297961Y-65815818D01*
X50463184Y-65815818D01*
X50503253Y-65827103D01*
X50598307Y-65815818D01*
X50625260Y-65815818D01*
X50665163Y-65807881D01*
X50773861Y-65794976D01*
X50797967Y-65781464D01*
X50825071Y-65776073D01*
X50916093Y-65715254D01*
X51011577Y-65661735D01*
X51028676Y-65640029D01*
X51051655Y-65624675D01*
X51112477Y-65533648D01*
X51137644Y-65501700D01*
X51149867Y-65477690D01*
X51203053Y-65398091D01*
X51211175Y-65357259D01*
X51264522Y-65252466D01*
X51608174Y-64909023D01*
X52041477Y-64688418D01*
X52575883Y-64603812D01*
X58912112Y-64603812D01*
X59446435Y-64688418D01*
G04 #@! TD*
M02*
