<?xml version="1.0" standalone="no"?>
 <!DOCTYPE svg PUBLIC "-//W3C//DTD SVG 1.1//EN" 
 "http://www.w3.org/Graphics/SVG/1.1/DTD/svg11.dtd"> 
<svg xmlns="http://www.w3.org/2000/svg" version="1.1" 
    width="41.9989cm" height="29.7002cm" viewBox="0 0 165350 116930 ">
<title>SVG Picture created as BCInside-B_Cu.svg date 2019/04/12 10:45:59 </title>
  <desc>Picture generated by PCBNEW </desc>
<g style="fill:#000000; fill-opacity:1;stroke:#000000; stroke-opacity:1;
stroke-linecap:round; stroke-linejoin:round; "
 transform="translate(0 0) scale(1 1)">
</g>
<g style="fill:#000000; fill-opacity:0.0; 
stroke:#000000; stroke-width:-0.000393701; stroke-opacity:1; 
stroke-linecap:round; stroke-linejoin:round;">
<g >
</g>
<g style="fill:#000000; fill-opacity:0.0; 
stroke:#000000; stroke-width:800; stroke-opacity:1; 
stroke-linecap:round; stroke-linejoin:round;">
<path d="M24671 28354
L25171 28354
" />
<path d="M24671 29354
L25171 29354
" />
<path d="M24671 30354
L25171 30354
" />
<path d="M25371 27254
L25871 27254
" />
<path d="M25371 31454
L25871 31454
" />
</g>
<g >
<path d="M121639 28330
L122139 28330
" />
<path d="M121639 29330
L122139 29330
" />
<path d="M121639 30330
L122139 30330
" />
</g>
<g >
</g>
<g >
</g>
<g >
</g>
<g >
</g>
<g >
</g>
<g >
</g>
<g >
</g>
<g >
</g>
<g >
</g>
<g >
</g>
<g >
</g>
<g >
</g>
<g >
</g>
<g >
</g>
<g >
</g>
<g >
</g>
<g >
</g>
<g >
</g>
<g >
</g>
<g >
</g>
<g >
</g>
<g >
</g>
<g >
</g>
<g >
</g>
<g >
</g>
<g >
</g>
<g >
</g>
<g >
</g>
<g >
</g>
<g >
</g>
<g >
</g>
<g >
</g>
<g >
</g>
<g >
</g>
<g >
</g>
<g >
</g>
<g >
</g>
<g >
</g>
<g >
</g>
<g >
</g>
<g >
</g>
<g >
</g>
<g >
</g>
<g >
</g>
<g >
</g>
<g >
</g>
<g style="fill:#000000; fill-opacity:1.0; 
stroke:#000000; stroke-width:0; stroke-opacity:1; 
stroke-linecap:round; stroke-linejoin:round;">
<circle cx="40820" cy="29386" r="196.85" /> 
</g>
<g style="fill:#000000; fill-opacity:1.0; 
stroke:#000000; stroke-width:19.685; stroke-opacity:1; 
stroke-linecap:round; stroke-linejoin:round;">
</g>
<g style="fill:#000000; fill-opacity:1.0; 
stroke:#000000; stroke-width:0; stroke-opacity:1; 
stroke-linecap:round; stroke-linejoin:round;">
<circle cx="53820" cy="29386" r="196.85" /> 
</g>
<g style="fill:#000000; fill-opacity:1.0; 
stroke:#000000; stroke-width:19.685; stroke-opacity:1; 
stroke-linecap:round; stroke-linejoin:round;">
</g>
<g style="fill:#000000; fill-opacity:1.0; 
stroke:#000000; stroke-width:0; stroke-opacity:1; 
stroke-linecap:round; stroke-linejoin:round;">
<circle cx="47320" cy="29386" r="196.85" /> 
</g>
<g style="fill:#000000; fill-opacity:1.0; 
stroke:#000000; stroke-width:19.685; stroke-opacity:1; 
stroke-linecap:round; stroke-linejoin:round;">
</g>
<g style="fill:#000000; fill-opacity:1.0; 
stroke:#000000; stroke-width:0; stroke-opacity:1; 
stroke-linecap:round; stroke-linejoin:round;">
<circle cx="60520" cy="29386" r="196.85" /> 
</g>
<g style="fill:#000000; fill-opacity:1.0; 
stroke:#000000; stroke-width:19.685; stroke-opacity:1; 
stroke-linecap:round; stroke-linejoin:round;">
</g>
<g style="fill:#000000; fill-opacity:1.0; 
stroke:#000000; stroke-width:0; stroke-opacity:1; 
stroke-linecap:round; stroke-linejoin:round;">
<circle cx="67020" cy="29386" r="196.85" /> 
</g>
<g style="fill:#000000; fill-opacity:1.0; 
stroke:#000000; stroke-width:19.685; stroke-opacity:1; 
stroke-linecap:round; stroke-linejoin:round;">
</g>
<g style="fill:#000000; fill-opacity:1.0; 
stroke:#000000; stroke-width:0; stroke-opacity:1; 
stroke-linecap:round; stroke-linejoin:round;">
<circle cx="73520" cy="29386" r="196.85" /> 
</g>
<g style="fill:#000000; fill-opacity:1.0; 
stroke:#000000; stroke-width:19.685; stroke-opacity:1; 
stroke-linecap:round; stroke-linejoin:round;">
</g>
<g style="fill:#000000; fill-opacity:1.0; 
stroke:#000000; stroke-width:0; stroke-opacity:1; 
stroke-linecap:round; stroke-linejoin:round;">
<circle cx="93220" cy="29386" r="196.85" /> 
</g>
<g style="fill:#000000; fill-opacity:1.0; 
stroke:#000000; stroke-width:19.685; stroke-opacity:1; 
stroke-linecap:round; stroke-linejoin:round;">
</g>
<g style="fill:#000000; fill-opacity:1.0; 
stroke:#000000; stroke-width:0; stroke-opacity:1; 
stroke-linecap:round; stroke-linejoin:round;">
<circle cx="86720" cy="29386" r="196.85" /> 
</g>
<g style="fill:#000000; fill-opacity:1.0; 
stroke:#000000; stroke-width:19.685; stroke-opacity:1; 
stroke-linecap:round; stroke-linejoin:round;">
</g>
<g style="fill:#000000; fill-opacity:1.0; 
stroke:#000000; stroke-width:0; stroke-opacity:1; 
stroke-linecap:round; stroke-linejoin:round;">
<circle cx="99820" cy="29361" r="196.85" /> 
</g>
<g style="fill:#000000; fill-opacity:1.0; 
stroke:#000000; stroke-width:19.685; stroke-opacity:1; 
stroke-linecap:round; stroke-linejoin:round;">
</g>
<g style="fill:#000000; fill-opacity:1.0; 
stroke:#000000; stroke-width:0; stroke-opacity:1; 
stroke-linecap:round; stroke-linejoin:round;">
<circle cx="106400" cy="29221" r="196.85" /> 
</g>
<g style="fill:#000000; fill-opacity:1.0; 
stroke:#000000; stroke-width:19.685; stroke-opacity:1; 
stroke-linecap:round; stroke-linejoin:round;">
</g>
<g style="fill:#000000; fill-opacity:1.0; 
stroke:#000000; stroke-width:0; stroke-opacity:1; 
stroke-linecap:round; stroke-linejoin:round;">
<circle cx="34320" cy="29386" r="196.85" /> 
</g>
<g style="fill:#000000; fill-opacity:1.0; 
stroke:#000000; stroke-width:19.685; stroke-opacity:1; 
stroke-linecap:round; stroke-linejoin:round;">
</g>
<g style="fill:#000000; fill-opacity:1.0; 
stroke:#000000; stroke-width:0; stroke-opacity:1; 
stroke-linecap:round; stroke-linejoin:round;">
<circle cx="29100" cy="29321" r="196.85" /> 
</g>
<g style="fill:#000000; fill-opacity:1.0; 
stroke:#000000; stroke-width:19.685; stroke-opacity:1; 
stroke-linecap:round; stroke-linejoin:round;">
</g>
<g style="fill:#000000; fill-opacity:1.0; 
stroke:#000000; stroke-width:0; stroke-opacity:1; 
stroke-linecap:round; stroke-linejoin:round;">
<circle cx="80801" cy="26888" r="196.85" /> 
</g>
<g style="fill:#000000; fill-opacity:1.0; 
stroke:#000000; stroke-width:19.685; stroke-opacity:1; 
stroke-linecap:round; stroke-linejoin:round;">
</g>
<g style="fill:#000000; fill-opacity:1.0; 
stroke:#000000; stroke-width:0; stroke-opacity:1; 
stroke-linecap:round; stroke-linejoin:round;">
<circle cx="81601" cy="29388" r="196.85" /> 
</g>
<g style="fill:#000000; fill-opacity:1.0; 
stroke:#000000; stroke-width:19.685; stroke-opacity:1; 
stroke-linecap:round; stroke-linejoin:round;">
</g>
<g style="fill:#000000; fill-opacity:1.0; 
stroke:#000000; stroke-width:0; stroke-opacity:1; 
stroke-linecap:round; stroke-linejoin:round;">
<circle cx="114400" cy="29400" r="196.85" /> 
</g>
<g style="fill:#000000; fill-opacity:1.0; 
stroke:#000000; stroke-width:19.685; stroke-opacity:1; 
stroke-linecap:round; stroke-linejoin:round;">
</g>
<g style="fill:#000000; fill-opacity:1.0; 
stroke:#000000; stroke-width:0; stroke-opacity:1; 
stroke-linecap:round; stroke-linejoin:round;">
<circle cx="114100" cy="26700" r="196.85" /> 
</g>
<g style="fill:#000000; fill-opacity:1.0; 
stroke:#000000; stroke-width:19.685; stroke-opacity:1; 
stroke-linecap:round; stroke-linejoin:round;">
</g>
<g style="fill:#000000; fill-opacity:1.0; 
stroke:#000000; stroke-width:0; stroke-opacity:1; 
stroke-linecap:round; stroke-linejoin:round;">
<circle cx="45150" cy="29391" r="196.85" /> 
</g>
<g style="fill:#000000; fill-opacity:1.0; 
stroke:#000000; stroke-width:19.685; stroke-opacity:1; 
stroke-linecap:round; stroke-linejoin:round;">
</g>
<g style="fill:#000000; fill-opacity:1.0; 
stroke:#000000; stroke-width:0; stroke-opacity:1; 
stroke-linecap:round; stroke-linejoin:round;">
<circle cx="51740" cy="29401" r="196.85" /> 
</g>
<g style="fill:#000000; fill-opacity:1.0; 
stroke:#000000; stroke-width:19.685; stroke-opacity:1; 
stroke-linecap:round; stroke-linejoin:round;">
</g>
<g style="fill:#000000; fill-opacity:1.0; 
stroke:#000000; stroke-width:0; stroke-opacity:1; 
stroke-linecap:round; stroke-linejoin:round;">
<circle cx="58260" cy="29401" r="196.85" /> 
</g>
<g style="fill:#000000; fill-opacity:1.0; 
stroke:#000000; stroke-width:19.685; stroke-opacity:1; 
stroke-linecap:round; stroke-linejoin:round;">
</g>
<g style="fill:#000000; fill-opacity:1.0; 
stroke:#000000; stroke-width:0; stroke-opacity:1; 
stroke-linecap:round; stroke-linejoin:round;">
<circle cx="64830" cy="29391" r="196.85" /> 
</g>
<g style="fill:#000000; fill-opacity:1.0; 
stroke:#000000; stroke-width:19.685; stroke-opacity:1; 
stroke-linecap:round; stroke-linejoin:round;">
</g>
<g style="fill:#000000; fill-opacity:1.0; 
stroke:#000000; stroke-width:0; stroke-opacity:1; 
stroke-linecap:round; stroke-linejoin:round;">
<circle cx="71400" cy="29391" r="196.85" /> 
</g>
<g style="fill:#000000; fill-opacity:1.0; 
stroke:#000000; stroke-width:19.685; stroke-opacity:1; 
stroke-linecap:round; stroke-linejoin:round;">
</g>
<g style="fill:#000000; fill-opacity:1.0; 
stroke:#000000; stroke-width:0; stroke-opacity:1; 
stroke-linecap:round; stroke-linejoin:round;">
<circle cx="77920" cy="29381" r="196.85" /> 
</g>
<g style="fill:#000000; fill-opacity:1.0; 
stroke:#000000; stroke-width:19.685; stroke-opacity:1; 
stroke-linecap:round; stroke-linejoin:round;">
</g>
<g style="fill:#000000; fill-opacity:1.0; 
stroke:#000000; stroke-width:0; stroke-opacity:1; 
stroke-linecap:round; stroke-linejoin:round;">
<circle cx="91040" cy="29401" r="196.85" /> 
</g>
<g style="fill:#000000; fill-opacity:1.0; 
stroke:#000000; stroke-width:19.685; stroke-opacity:1; 
stroke-linecap:round; stroke-linejoin:round;">
</g>
<g style="fill:#000000; fill-opacity:1.0; 
stroke:#000000; stroke-width:0; stroke-opacity:1; 
stroke-linecap:round; stroke-linejoin:round;">
<circle cx="97610" cy="29391" r="196.85" /> 
</g>
<g style="fill:#000000; fill-opacity:1.0; 
stroke:#000000; stroke-width:19.685; stroke-opacity:1; 
stroke-linecap:round; stroke-linejoin:round;">
</g>
<g style="fill:#000000; fill-opacity:1.0; 
stroke:#000000; stroke-width:0; stroke-opacity:1; 
stroke-linecap:round; stroke-linejoin:round;">
<circle cx="103600" cy="29231" r="196.85" /> 
</g>
<g style="fill:#000000; fill-opacity:1.0; 
stroke:#000000; stroke-width:19.685; stroke-opacity:1; 
stroke-linecap:round; stroke-linejoin:round;">
</g>
<g style="fill:#000000; fill-opacity:1.0; 
stroke:#000000; stroke-width:0; stroke-opacity:1; 
stroke-linecap:round; stroke-linejoin:round;">
<circle cx="110700" cy="29321" r="196.85" /> 
</g>
<g style="fill:#000000; fill-opacity:1.0; 
stroke:#000000; stroke-width:19.685; stroke-opacity:1; 
stroke-linecap:round; stroke-linejoin:round;">
</g>
<g style="fill:#000000; fill-opacity:1.0; 
stroke:#000000; stroke-width:0; stroke-opacity:1; 
stroke-linecap:round; stroke-linejoin:round;">
<circle cx="38600" cy="29381" r="196.85" /> 
</g>
<g style="fill:#000000; fill-opacity:1.0; 
stroke:#000000; stroke-width:19.685; stroke-opacity:1; 
stroke-linecap:round; stroke-linejoin:round;">
</g>
<g style="fill:#000000; fill-opacity:1.0; 
stroke:#000000; stroke-width:0; stroke-opacity:1; 
stroke-linecap:round; stroke-linejoin:round;">
<circle cx="32200" cy="29421" r="196.85" /> 
</g>
<g style="fill:#000000; fill-opacity:1.0; 
stroke:#000000; stroke-width:19.685; stroke-opacity:1; 
stroke-linecap:round; stroke-linejoin:round;">
</g>
<g style="fill:#000000; fill-opacity:1.0; 
stroke:#000000; stroke-width:0; stroke-opacity:1; 
stroke-linecap:round; stroke-linejoin:round;">
<circle cx="78601" cy="26988" r="196.85" /> 
</g>
<g style="fill:#000000; fill-opacity:1.0; 
stroke:#000000; stroke-width:19.685; stroke-opacity:1; 
stroke-linecap:round; stroke-linejoin:round;">
</g>
<g style="fill:#000000; fill-opacity:1.0; 
stroke:#000000; stroke-width:0; stroke-opacity:1; 
stroke-linecap:round; stroke-linejoin:round;">
<circle cx="84801" cy="29388" r="196.85" /> 
</g>
<g style="fill:#000000; fill-opacity:1.0; 
stroke:#000000; stroke-width:19.685; stroke-opacity:1; 
stroke-linecap:round; stroke-linejoin:round;">
</g>
<g style="fill:#000000; fill-opacity:1.0; 
stroke:#000000; stroke-width:0; stroke-opacity:1; 
stroke-linecap:round; stroke-linejoin:round;">
<circle cx="111500" cy="26800" r="196.85" /> 
</g>
<g style="fill:#000000; fill-opacity:1.0; 
stroke:#000000; stroke-width:19.685; stroke-opacity:1; 
stroke-linecap:round; stroke-linejoin:round;">
</g>
<g style="fill:#000000; fill-opacity:1.0; 
stroke:#000000; stroke-width:0; stroke-opacity:1; 
stroke-linecap:round; stroke-linejoin:round;">
<circle cx="117600" cy="29400" r="196.85" /> 
</g>
<g style="fill:#000000; fill-opacity:1.0; 
stroke:#000000; stroke-width:19.685; stroke-opacity:1; 
stroke-linecap:round; stroke-linejoin:round;">
</g>
<g style="fill:#000000; fill-opacity:1.0; 
stroke:#000000; stroke-width:0; stroke-opacity:1; 
stroke-linecap:round; stroke-linejoin:round;">
<circle cx="29685" cy="26771.7" r="196.85" /> 
</g>
<g style="fill:#000000; fill-opacity:1.0; 
stroke:#000000; stroke-width:19.685; stroke-opacity:1; 
stroke-linecap:round; stroke-linejoin:round;">
</g>
<g style="fill:#000000; fill-opacity:1.0; 
stroke:#000000; stroke-width:0; stroke-opacity:1; 
stroke-linecap:round; stroke-linejoin:round;">
<circle cx="117677" cy="27322.8" r="196.85" /> 
</g>
<g style="fill:#000000; fill-opacity:1.0; 
stroke:#000000; stroke-width:19.685; stroke-opacity:1; 
stroke-linecap:round; stroke-linejoin:round;">
</g>
<g >
</g>
<g >
</g>
<g style="fill:#000000; fill-opacity:1.0; 
stroke:#000000; stroke-width:100; stroke-opacity:1; 
stroke-linecap:round; stroke-linejoin:round;">
<path style="fill:#000000; fill-opacity:1.0; 
stroke:#000000; stroke-width:100; stroke-opacity:1; 
stroke-linecap:round; stroke-linejoin:round;fill-rule:evenodd;"
d="M 20734,25757
20731,25758
20710,25769
20701,25774
20699,25775
20684,25783
20676,25790
20668,25795
20656,25806
20654,25808
20646,25816
20629,25832
20628,25834
20466,25997
20464,25998
20447,26015
20439,26023
20438,26025
20427,26036
20421,26045
20414,26054
20407,26068
20405,26070
20400,26079
20389,26101
20388,26103
20284,26307
20283,26309
20272,26330
20267,26340
20266,26342
20259,26357
20257,26367
20253,26377
20250,26393
20249,26395
20248,26406
20244,26429
20244,26432
20208,26658
20207,26661
20204,26685
20202,26695
20202,26698
20200,26714
20200,26724
20200,26735
20202,26751
20202,26753
20204,26764
20207,26788
20208,26790
20244,27016
20244,27019
20248,27043
20249,27053
20250,27056
20253,27072
20257,27081
20259,27092
20266,27106
20267,27109
20272,27118
20283,27139
20284,27142
20388,27345
20389,27348
20400,27369
20405,27379
20407,27381
20414,27395
20421,27403
20427,27412
20438,27424
20439,27425
20447,27433
20464,27450
20466,27452
20628,27614
20629,27616
20646,27633
20654,27640
20656,27642
20668,27653
20676,27659
20684,27666
20699,27673
20701,27675
20710,27679
20731,27691
20734,27691
20938,27795
20940,27797
20962,27807
20971,27812
20974,27813
20988,27820
20999,27823
21008,27827
21024,27830
21027,27830
21037,27832
21061,27836
21063,27836
21295,27873
21303,27875
21321,27877
21326,27878
21334,27878
21342,27879
21347,27879
21366,27880
21374,27879
22518,27879
22526,27880
22544,27879
22550,27879
22558,27878
22566,27878
22571,27877
22589,27875
22597,27873
22829,27836
22831,27836
22855,27832
22865,27830
22868,27830
22883,27827
22893,27823
22904,27820
22918,27813
22921,27812
22930,27807
22952,27797
22954,27795
23158,27691
23161,27691
23182,27679
23191,27675
23193,27673
23207,27666
23216,27659
23224,27653
23236,27642
23238,27640
23246,27633
23263,27616
23264,27614
23426,27452
23428,27450
23445,27433
23453,27425
23454,27424
23465,27412
23471,27403
23478,27395
23485,27381
23487,27379
23492,27369
23503,27348
23504,27345
23608,27142
23609,27139
23620,27118
23624,27109
23625,27106
23632,27092
23635,27081
23639,27072
23642,27056
23642,27053
23644,27043
23648,27019
23648,27016
23684,26790
23685,26788
23688,26764
23690,26753
23690,26751
23692,26735
23692,26724
23692,26714
23690,26698
23690,26695
23688,26685
23685,26661
23684,26658
23648,26432
23648,26429
23644,26406
23642,26395
23642,26393
23639,26377
23635,26367
23632,26357
23625,26342
23624,26340
23620,26330
23609,26309
23608,26307
23504,26103
23503,26101
23492,26079
23487,26070
23485,26068
23478,26054
23471,26045
23465,26036
23454,26025
23453,26023
23445,26015
23428,25998
23426,25997
23264,25834
23263,25832
23246,25816
23238,25808
23236,25806
23224,25795
23216,25790
23207,25783
23193,25775
23191,25774
23182,25769
23161,25758
23158,25757
23083,25719
23724,25719
23737,25743
23737,25745
23749,25766
23753,25776
23755,25778
23762,25792
23769,25800
23775,25809
23786,25821
23796,25833
23804,25840
23812,25848
23825,25857
23837,25867
23847,25872
23855,25878
23870,25884
23884,25892
23894,25895
23904,25899
23920,25903
23935,25907
23945,25908
23956,25911
23972,25911
23975,25911
23985,25911
24009,25912
24012,25911
122658,25911
122660,25912
122684,25911
122695,25911
122698,25911
122713,25911
122724,25908
122735,25907
122750,25903
122765,25899
122775,25895
122785,25892
122799,25884
122814,25878
122823,25872
122832,25867
122845,25857
122858,25848
122865,25840
122873,25833
122883,25821
122894,25809
122900,25800
122907,25792
122915,25778
122916,25776
122921,25766
122932,25745
122933,25743
122945,25719
123587,25719
123512,25757
123509,25758
123488,25769
123479,25774
123476,25775
123462,25783
123454,25790
123445,25795
123434,25806
123431,25808
123424,25816
123407,25832
123405,25834
123243,25997
123241,25998
123225,26015
123217,26023
123215,26025
123204,26036
123199,26045
123192,26054
123184,26068
123183,26070
123178,26079
123167,26101
123166,26103
123062,26307
123061,26309
123050,26331
123045,26340
123044,26342
123037,26357
123035,26367
123031,26377
123028,26393
123027,26395
123026,26406
123021,26429
123022,26432
122986,26658
122985,26661
122982,26685
122980,26695
122980,26698
122978,26714
122978,26724
122978,26735
122980,26751
122980,26753
122982,26764
122985,26788
122986,26790
123022,27016
123021,27019
123026,27043
123027,27053
123028,27056
123031,27071
123035,27081
123037,27092
123044,27106
123045,27108
123050,27118
123061,27139
123062,27142
123166,27345
123167,27348
123178,27369
123183,27379
123184,27381
123192,27395
123199,27403
123204,27412
123215,27423
123217,27425
123225,27433
123241,27450
123243,27452
123405,27614
123407,27616
123424,27633
123431,27640
123434,27642
123445,27653
123454,27659
123462,27666
123476,27673
123479,27675
123488,27679
123509,27691
123512,27691
123716,27795
123718,27797
123740,27807
123749,27812
123752,27813
123766,27820
123776,27823
123786,27827
123802,27830
123804,27830
123815,27832
123839,27836
123841,27836
124072,27873
124080,27875
124099,27877
124104,27878
124112,27878
124120,27879
124125,27879
124144,27880
124152,27879
125295,27879
125303,27880
125322,27879
125327,27879
125335,27878
125343,27878
125348,27877
125367,27875
125375,27873
125606,27836
125609,27836
125632,27832
125643,27830
125645,27830
125661,27827
125671,27823
125681,27820
125696,27813
125698,27812
125708,27807
125729,27797
125731,27795
125936,27691
125939,27691
125959,27679
125969,27675
125971,27673
125985,27666
125993,27659
126002,27653
126014,27642
126016,27640
126023,27633
126041,27616
126042,27614
126204,27452
126206,27450
126223,27433
126230,27425
126232,27423
126243,27412
126249,27403
126256,27395
126263,27381
126264,27379
126269,27369
126281,27348
126281,27345
126385,27142
126387,27139
126397,27118
126402,27108
126403,27106
126410,27092
126413,27081
126417,27071
126419,27056
126420,27053
126422,27043
126426,27019
126426,27016
126462,26790
126463,26788
126466,26764
126468,26753
126468,26751
126470,26735
126469,26724
126470,26714
126468,26698
126468,26695
126466,26685
126463,26661
126462,26658
126426,26432
126426,26429
126422,26406
126420,26395
126419,26393
126417,26377
126413,26367
126410,26357
126403,26342
126402,26340
126397,26331
126387,26309
126385,26307
126281,26103
126281,26101
126269,26079
126264,26070
126263,26068
126256,26054
126249,26045
126243,26036
126232,26025
126230,26023
126223,26015
126206,25998
126204,25997
126042,25834
126041,25832
126023,25816
126016,25808
126014,25806
126002,25795
125993,25790
125985,25783
125971,25775
125969,25774
125959,25769
125939,25758
125936,25757
125861,25719
126502,25719
126515,25743
126515,25745
126527,25766
126531,25776
126533,25778
126540,25792
126547,25800
126553,25809
126564,25821
126574,25833
126582,25840
126590,25848
126603,25857
126615,25867
126625,25872
126633,25878
126648,25884
126662,25892
126672,25895
126682,25899
126698,25903
126713,25907
126723,25908
126734,25911
126750,25911
126752,25911
126763,25911
126787,25912
126790,25911
126868,25911
127048,25940
127191,26013
127305,26127
127378,26270
127407,26450
127407,32313
127378,32494
127305,32637
127191,32751
127048,32824
126868,32852
126790,32852
126787,32852
126763,32852
126752,32852
126750,32852
126734,32853
126723,32855
126713,32856
126698,32861
126682,32864
126672,32868
126662,32872
126648,32879
126633,32885
126625,32891
126615,32897
126603,32907
126590,32916
126582,32923
126574,32930
126564,32943
126553,32954
126547,32963
126540,32971
126533,32985
126531,32987
126527,32997
126515,33018
126515,33021
126495,33060
125831,33060
125936,33006
125939,33006
125959,32994
125969,32990
125971,32988
125985,32980
125993,32974
126002,32968
126014,32957
126016,32955
126023,32948
126041,32931
126042,32929
126204,32767
126206,32765
126223,32748
126230,32740
126232,32738
126243,32727
126249,32718
126256,32710
126263,32696
126264,32694
126269,32684
126281,32663
126281,32660
126385,32457
126387,32454
126397,32433
126402,32423
126403,32421
126410,32407
126413,32396
126417,32386
126419,32371
126420,32368
126422,32358
126426,32334
126426,32331
126462,32105
126463,32102
126466,32079
126468,32068
126468,32066
126470,32050
126469,32039
126470,32029
126468,32013
126468,32010
126466,32000
126463,31976
126462,31973
126426,31747
126426,31744
126422,31721
126420,31710
126419,31708
126417,31692
126413,31682
126410,31672
126403,31657
126402,31655
126397,31645
126387,31624
126385,31622
126281,31418
126281,31416
126269,31394
126264,31385
126263,31383
126256,31369
126249,31360
126243,31351
126232,31340
126230,31338
126223,31330
126206,31313
126204,31312
126042,31149
126041,31147
126023,31131
126016,31123
126014,31121
126002,31110
125993,31105
125985,31098
125971,31090
125969,31089
125959,31084
125939,31073
125936,31072
125731,30968
125729,30966
125708,30956
125698,30951
125696,30950
125681,30943
125671,30940
125661,30937
125645,30934
125643,30933
125632,30931
125609,30927
125606,30927
125375,30891
125367,30888
125348,30887
125343,30886
125335,30885
125327,30884
125322,30884
125303,30883
125295,30884
124152,30884
124144,30883
124125,30884
124120,30884
124112,30885
124104,30886
124099,30887
124080,30888
124072,30891
123841,30927
123839,30927
123815,30931
123804,30933
123802,30934
123786,30937
123776,30941
123766,30943
123752,30950
123749,30951
123740,30956
123718,30966
123716,30968
123512,31072
123509,31073
123488,31084
123479,31089
123476,31090
123462,31098
123454,31105
123445,31110
123434,31121
123431,31123
123424,31131
123407,31147
123405,31149
123243,31312
123241,31313
123225,31330
123217,31338
123215,31340
123204,31351
123199,31360
123192,31369
123184,31383
123183,31385
123178,31394
123167,31416
123166,31418
123062,31622
123061,31624
123050,31645
123045,31655
123044,31657
123037,31672
123035,31682
123031,31692
123028,31708
123027,31710
123026,31721
123021,31744
123022,31747
122986,31973
122985,31976
122982,32000
122980,32010
122980,32013
122978,32029
122978,32039
122978,32050
122980,32066
122980,32068
122982,32079
122985,32102
122986,32105
123022,32331
123021,32334
123026,32358
123027,32368
123028,32371
123031,32386
123035,32396
123037,32407
123044,32421
123045,32423
123050,32433
123061,32454
123062,32457
123166,32660
123167,32663
123178,32684
123183,32694
123184,32696
123192,32710
123199,32718
123204,32727
123215,32738
123217,32740
123225,32748
123241,32765
123243,32767
123405,32929
123407,32931
123424,32948
123431,32955
123434,32957
123445,32968
123454,32974
123462,32980
123476,32988
123479,32990
123488,32994
123509,33006
123512,33006
123616,33060
122953,33060
122933,33021
122932,33018
122921,32997
122916,32987
122915,32985
122907,32971
122900,32963
122894,32954
122883,32943
122873,32930
122865,32923
122858,32916
122845,32907
122832,32897
122823,32891
122814,32885
122799,32879
122785,32872
122775,32868
122765,32864
122750,32861
122735,32856
122724,32855
122713,32853
122698,32852
122695,32852
122684,32852
122660,32852
122658,32852
24012,32852
24009,32852
23985,32852
23975,32852
23972,32852
23956,32853
23945,32855
23935,32856
23920,32861
23904,32864
23894,32868
23884,32872
23870,32879
23855,32885
23847,32892
23837,32897
23825,32907
23812,32916
23804,32924
23796,32930
23786,32943
23775,32954
23769,32963
23762,32971
23755,32985
23753,32988
23749,32997
23737,33018
23737,33021
23717,33060
23053,33060
23158,33006
23161,33006
23182,32994
23191,32990
23193,32988
23207,32981
23216,32974
23224,32968
23236,32957
23238,32955
23246,32948
23263,32931
23264,32929
23426,32767
23428,32765
23445,32748
23453,32740
23454,32739
23465,32727
23471,32718
23478,32710
23485,32696
23487,32694
23492,32684
23503,32663
23504,32660
23608,32457
23609,32454
23620,32433
23624,32424
23625,32421
23632,32407
23635,32396
23639,32386
23642,32371
23642,32368
23644,32358
23648,32334
23648,32331
23684,32105
23685,32102
23688,32079
23690,32068
23690,32066
23692,32050
23692,32039
23692,32029
23690,32013
23690,32010
23688,32000
23685,31976
23684,31973
23648,31747
23648,31744
23644,31721
23642,31710
23642,31708
23639,31692
23635,31682
23632,31672
23625,31657
23624,31655
23620,31645
23609,31624
23608,31622
23599,31605
24738,31605
24751,31656
24803,31773
24876,31878
24968,31967
25076,32035
25195,32082
25321,32104
25571,32104
25571,31504
25671,31504
25671,32104
25921,32104
26047,32082
26166,32035
26273,31967
26366,31878
26439,31773
26490,31656
26503,31605
26456,31504
25671,31504
25571,31504
24785,31504
24738,31605
23599,31605
23504,31418
23503,31416
23492,31394
23487,31385
23485,31383
23478,31369
23471,31360
23465,31351
23454,31340
23453,31338
23445,31330
23428,31313
23426,31312
23264,31149
23263,31147
23246,31131
23238,31123
23236,31121
23224,31110
23216,31105
23207,31098
23193,31090
23191,31089
23182,31084
23161,31073
23158,31072
22954,30968
22952,30966
22930,30956
22921,30951
22918,30950
22904,30943
22893,30941
22883,30937
22868,30934
22865,30933
22855,30931
22831,30927
22829,30927
22597,30891
22589,30888
22571,30887
22566,30886
22558,30885
22550,30884
22544,30884
22526,30883
22518,30884
21374,30884
21366,30883
21347,30884
21342,30884
21334,30885
21326,30886
21321,30887
21303,30888
21295,30891
21063,30927
21061,30927
21037,30931
21027,30933
21024,30934
21008,30937
20999,30941
20988,30943
20974,30950
20971,30951
20962,30956
20940,30966
20938,30968
20734,31072
20731,31073
20710,31084
20701,31089
20699,31090
20684,31098
20676,31105
20668,31110
20656,31121
20654,31123
20646,31131
20629,31147
20628,31149
20466,31312
20464,31313
20447,31330
20439,31338
20438,31340
20427,31351
20421,31360
20414,31369
20407,31383
20405,31385
20400,31394
20389,31416
20388,31418
20284,31622
20283,31624
20272,31645
20267,31655
20266,31657
20259,31672
20257,31682
20253,31692
20250,31708
20249,31710
20248,31721
20244,31744
20244,31747
20208,31973
20207,31976
20204,32000
20202,32010
20202,32013
20200,32029
20200,32039
20200,32050
20202,32066
20202,32068
20204,32079
20207,32102
20208,32105
20244,32331
20244,32334
20248,32358
20249,32368
20250,32371
20253,32386
20257,32396
20259,32407
20266,32421
20267,32424
20272,32433
20283,32454
20284,32457
20388,32660
20389,32663
20400,32684
20405,32694
20407,32696
20414,32710
20421,32718
20427,32727
20438,32739
20439,32740
20447,32748
20464,32765
20466,32767
20628,32929
20629,32931
20646,32948
20654,32955
20656,32957
20668,32968
20676,32974
20684,32981
20699,32988
20701,32990
20710,32994
20731,33006
20734,33006
20839,33060
20175,33060
20155,33021
20155,33018
20143,32997
20138,32988
20137,32985
20129,32971
20123,32963
20117,32954
20106,32943
20096,32930
20088,32924
20080,32916
20067,32907
20055,32897
20045,32892
20037,32885
20022,32879
20008,32872
19998,32868
19988,32864
19972,32861
19957,32856
19946,32855
19936,32853
19920,32852
19917,32852
19907,32852
19883,32852
19880,32852
19802,32852
19622,32824
19478,32751
19364,32637
19291,32493
19263,32313
19263,29775
19454,29775
19455,29789
19455,30550
19454,30563
19459,30616
19475,30667
19500,30713
19533,30754
19562,30778
19575,30788
19621,30813
19672,30829
19725,30834
19738,30832
21287,30832
21300,30834
21353,30829
21404,30813
21450,30788
21492,30754
21525,30713
21550,30667
21566,30616
21570,30576
21570,30576
21571,30563
21570,30550
21570,30505
24038,30505
24051,30556
24103,30673
24176,30778
24268,30867
24376,30935
24495,30982
24621,31004
24903,31004
24876,31030
24803,31134
24751,31251
24738,31303
24785,31404
25571,31404
25571,31396
25671,31396
25671,31404
26456,31404
26503,31303
26490,31251
26439,31134
26366,31030
26273,30941
26166,30872
26047,30826
25921,30804
25639,30804
25666,30778
25739,30673
25790,30556
25803,30505
25792,30481
121007,30481
121020,30533
121071,30650
121144,30754
121237,30843
121344,30912
121463,30958
121589,30980
121839,30980
121839,30380
121939,30380
121939,30980
122189,30980
122315,30958
122434,30912
122542,30843
122634,30754
122707,30650
122759,30533
122772,30481
122725,30380
121939,30380
121839,30380
121054,30380
121007,30481
25792,30481
25756,30404
24971,30404
24971,30412
24871,30412
24871,30404
24085,30404
24038,30505
21570,30505
21570,29789
21571,29775
21566,29723
21550,29672
21525,29625
21492,29584
21450,29550
21404,29525
21353,29510
21313,29506
21300,29504
21287,29506
19738,29506
19725,29504
19712,29506
19672,29510
19621,29525
19575,29550
19533,29584
19500,29625
19475,29672
19459,29723
19454,29775
19263,29775
19263,28201
19454,28201
19455,28214
19455,28975
19454,28988
19459,29041
19475,29092
19500,29139
19533,29180
19575,29213
19621,29238
19672,29254
19725,29259
19738,29258
21287,29258
21300,29259
21353,29254
21404,29238
21450,29213
21492,29180
21525,29139
21550,29092
21566,29041
21570,29001
21570,29001
21571,28988
21570,28975
21570,28354
24018,28354
24030,28481
24067,28604
24128,28717
24209,28816
24255,28854
24209,28892
24128,28991
24067,29104
24030,29226
24018,29354
24030,29481
24067,29604
24128,29717
24209,29816
24255,29854
24176,29930
24103,30034
24051,30151
24038,30203
24085,30304
24871,30304
24871,30296
24971,30296
24971,30304
25756,30304
25803,30203
25790,30151
25739,30034
25666,29930
25586,29854
25633,29816
25714,29717
25774,29604
25811,29481
25824,29354
25816,29276
28653,29276
28653,29365
28670,29451
28704,29532
28752,29605
28815,29668
28888,29716
28969,29750
29055,29767
29144,29767
29230,29750
29311,29716
29384,29668
29447,29605
29495,29532
29529,29451
29542,29386
29817,29386
29836,29553
29886,29712
29967,29859
30074,29987
30205,30092
30353,30170
30514,30217
30680,30232
30847,30215
31007,30165
31154,30085
31283,29979
31389,29849
31467,29701
31516,29541
31532,29375
31532,29351
31531,29341
33873,29341
33873,29430
33890,29516
33924,29597
33972,29670
34035,29733
34108,29781
34189,29815
34275,29832
34364,29832
34450,29815
34531,29781
34604,29733
34667,29670
34715,29597
34749,29516
34766,29430
34766,29341
40373,29341
40373,29430
40390,29516
40424,29597
40472,29670
40535,29733
40608,29781
40689,29815
40775,29832
40864,29832
40950,29815
41031,29781
41104,29733
41167,29670
41215,29597
41249,29516
41266,29430
41266,29341
46873,29341
46873,29430
46890,29516
46924,29597
46972,29670
47035,29733
47108,29781
47189,29815
47275,29832
47364,29832
47450,29815
47531,29781
47604,29733
47667,29670
47715,29597
47749,29516
47766,29430
47766,29341
53373,29341
53373,29430
53390,29516
53424,29597
53472,29670
53535,29733
53608,29781
53689,29815
53775,29832
53864,29832
53950,29815
54031,29781
54104,29733
54167,29670
54215,29597
54249,29516
54266,29430
54266,29341
60073,29341
60073,29430
60090,29516
60124,29597
60172,29670
60235,29733
60308,29781
60389,29815
60475,29832
60564,29832
60650,29815
60731,29781
60804,29733
60867,29670
60915,29597
60949,29516
60966,29430
60966,29341
66573,29341
66573,29430
66590,29516
66624,29597
66672,29670
66735,29733
66808,29781
66889,29815
66975,29832
67064,29832
67150,29815
67231,29781
67304,29733
67367,29670
67415,29597
67449,29516
67466,29430
67466,29341
73073,29341
73073,29430
73090,29516
73124,29597
73172,29670
73235,29733
73308,29781
73389,29815
73475,29832
73564,29832
73650,29815
73731,29781
73804,29733
73867,29670
73915,29597
73949,29516
73966,29430
73966,29343
81154,29343
81154,29432
81171,29518
81205,29599
81253,29672
81316,29735
81389,29783
81470,29817
81556,29834
81645,29834
81731,29817
81812,29783
81885,29735
81948,29672
81996,29599
82030,29518
82047,29432
82047,29411
82342,29411
82361,29578
82411,29737
82492,29884
82599,30012
82730,30117
82878,30195
83039,30242
83205,30257
83372,30240
83532,30190
83679,30110
83808,30004
83914,29874
83992,29726
84041,29566
84057,29400
84057,29376
84052,29341
86273,29341
86273,29430
86290,29516
86324,29597
86372,29670
86435,29733
86508,29781
86589,29815
86675,29832
86764,29832
86850,29815
86931,29781
87004,29733
87067,29670
87115,29597
87149,29516
87166,29430
87166,29341
92773,29341
92773,29430
92790,29516
92824,29597
92872,29670
92935,29733
93008,29781
93089,29815
93175,29832
93264,29832
93350,29815
93431,29781
93504,29733
93567,29670
93615,29597
93649,29516
93666,29430
93666,29341
93661,29316
99373,29316
99373,29405
99390,29491
99424,29572
99472,29645
99535,29708
99608,29756
99689,29790
99775,29807
99864,29807
99950,29790
100031,29756
100104,29708
100167,29645
100215,29572
100249,29491
100266,29405
100266,29316
100249,29230
100227,29176
105953,29176
105953,29265
105970,29351
106004,29432
106052,29505
106115,29568
106188,29616
106269,29650
106355,29667
106444,29667
106530,29650
106611,29616
106684,29568
106747,29505
106795,29432
106827,29355
113953,29355
113953,29444
113970,29530
114004,29611
114052,29684
114115,29747
114188,29795
114269,29829
114355,29846
114444,29846
114530,29829
114611,29795
114684,29747
114747,29684
114795,29611
114829,29530
114846,29444
114846,29411
115142,29411
115161,29578
115211,29737
115292,29884
115399,30012
115530,30117
115678,30195
115839,30242
116005,30257
116172,30240
116332,30190
116479,30110
116608,30004
116714,29874
116792,29726
116841,29566
116857,29400
116857,29376
116836,29210
116783,29051
116700,28905
116591,28778
116459,28675
116310,28600
116148,28555
115982,28542
115815,28562
115656,28614
115510,28695
115383,28804
115279,28935
115202,29084
115156,29245
115142,29411
114846,29411
114846,29355
114829,29269
114795,29188
114747,29115
114684,29052
114611,29004
114530,28970
114444,28953
114355,28953
114269,28970
114188,29004
114115,29052
114052,29115
114004,29188
113970,29269
113953,29355
106827,29355
106829,29351
106846,29265
106846,29176
106829,29090
106795,29009
106747,28936
106684,28873
106611,28825
106530,28791
106444,28774
106355,28774
106269,28791
106188,28825
106115,28873
106052,28936
106004,29009
105970,29090
105953,29176
100227,29176
100215,29149
100167,29076
100104,29013
100031,28965
99950,28931
99864,28914
99775,28914
99689,28931
99608,28965
99535,29013
99472,29076
99424,29149
99390,29230
99373,29316
93661,29316
93649,29255
93615,29174
93567,29101
93504,29038
93431,28990
93350,28956
93264,28939
93175,28939
93089,28956
93008,28990
92935,29038
92872,29101
92824,29174
92790,29255
92773,29341
87166,29341
87149,29255
87115,29174
87067,29101
87004,29038
86931,28990
86850,28956
86764,28939
86675,28939
86589,28956
86508,28990
86435,29038
86372,29101
86324,29174
86290,29255
86273,29341
84052,29341
84036,29210
83983,29051
83900,28905
83791,28778
83659,28675
83510,28600
83348,28555
83182,28542
83015,28562
82856,28614
82710,28695
82583,28804
82479,28935
82402,29084
82356,29245
82342,29411
82047,29411
82047,29343
82030,29257
81996,29176
81948,29103
81885,29040
81812,28992
81731,28958
81645,28941
81556,28941
81470,28958
81389,28992
81316,29040
81253,29103
81205,29176
81171,29257
81154,29343
73966,29343
73966,29341
73949,29255
73915,29174
73867,29101
73804,29038
73731,28990
73650,28956
73564,28939
73475,28939
73389,28956
73308,28990
73235,29038
73172,29101
73124,29174
73090,29255
73073,29341
67466,29341
67449,29255
67415,29174
67367,29101
67304,29038
67231,28990
67150,28956
67064,28939
66975,28939
66889,28956
66808,28990
66735,29038
66672,29101
66624,29174
66590,29255
66573,29341
60966,29341
60949,29255
60915,29174
60867,29101
60804,29038
60731,28990
60650,28956
60564,28939
60475,28939
60389,28956
60308,28990
60235,29038
60172,29101
60124,29174
60090,29255
60073,29341
54266,29341
54249,29255
54215,29174
54167,29101
54104,29038
54031,28990
53950,28956
53864,28939
53775,28939
53689,28956
53608,28990
53535,29038
53472,29101
53424,29174
53390,29255
53373,29341
47766,29341
47749,29255
47715,29174
47667,29101
47604,29038
47531,28990
47450,28956
47364,28939
47275,28939
47189,28956
47108,28990
47035,29038
46972,29101
46924,29174
46890,29255
46873,29341
41266,29341
41249,29255
41215,29174
41167,29101
41104,29038
41031,28990
40950,28956
40864,28939
40775,28939
40689,28956
40608,28990
40535,29038
40472,29101
40424,29174
40390,29255
40373,29341
34766,29341
34749,29255
34715,29174
34667,29101
34604,29038
34531,28990
34450,28956
34364,28939
34275,28939
34189,28956
34108,28990
34035,29038
33972,29101
33924,29174
33890,29255
33873,29341
31531,29341
31511,29185
31458,29026
31375,28880
31266,28753
31134,28650
30985,28575
30823,28530
30657,28517
30490,28537
30331,28589
30185,28670
30058,28779
29954,28910
29877,29059
29831,29220
29817,29386
29542,29386
29546,29365
29546,29276
29529,29190
29495,29109
29447,29036
29384,28973
29311,28925
29230,28891
29144,28874
29055,28874
28969,28891
28888,28925
28815,28973
28752,29036
28704,29109
28670,29190
28653,29276
25816,29276
25811,29226
25774,29104
25714,28991
25633,28892
25586,28854
25633,28816
25714,28717
25774,28604
25811,28481
25824,28354
25822,28330
120986,28330
120999,28458
121036,28580
121096,28693
121177,28792
121224,28830
121177,28868
121096,28967
121036,29080
120999,29203
120986,29330
120999,29458
121036,29580
121096,29693
121177,29792
121224,29830
121144,29906
121071,30011
121020,30128
121007,30179
121054,30280
121839,30280
121839,30272
121939,30272
121939,30280
122725,30280
122772,30179
122759,30128
122707,30011
122634,29906
122555,29830
122601,29792
122679,29698
125141,29698
125142,29711
125142,30472
125141,30485
125146,30538
125161,30589
125186,30636
125220,30677
125261,30710
125308,30735
125359,30751
125397,30754
125412,30756
125425,30755
126973,30755
126987,30756
127002,30754
127039,30751
127090,30735
127137,30710
127178,30677
127212,30636
127237,30589
127252,30538
127258,30485
127256,30472
127256,29711
127258,29698
127252,29645
127237,29594
127212,29547
127178,29506
127137,29472
127090,29447
127039,29432
127000,29428
126987,29427
126973,29428
125425,29428
125412,29427
125398,29428
125359,29432
125308,29447
125261,29472
125220,29506
125186,29547
125161,29594
125146,29645
125141,29698
122679,29698
122682,29693
122743,29580
122780,29458
122792,29330
122780,29203
122743,29080
122682,28967
122601,28868
122555,28830
122601,28792
122682,28693
122743,28580
122780,28458
122792,28330
122780,28203
122779,28201
125141,28201
125142,28215
125142,28976
125141,28989
125146,29042
125161,29093
125186,29139
125220,29181
125255,29210
125261,29214
125308,29239
125359,29255
125412,29260
125425,29259
126973,29259
126987,29260
127039,29255
127090,29239
127137,29214
127178,29181
127212,29139
127237,29093
127252,29042
127256,29002
127256,29002
127258,28989
127256,28976
127256,28215
127258,28201
127252,28149
127237,28098
127212,28051
127178,28010
127137,27976
127090,27951
127039,27936
127000,27932
126987,27931
126973,27932
125425,27932
125412,27931
125398,27932
125359,27936
125308,27951
125261,27976
125220,28010
125186,28051
125161,28098
125146,28149
125141,28201
122779,28201
122743,28080
122682,27967
122601,27868
122502,27787
122389,27727
122267,27690
122171,27680
121607,27680
121512,27690
121389,27727
121276,27787
121177,27868
121096,27967
121036,28080
120999,28203
120986,28330
25822,28330
25811,28226
25774,28104
25714,27991
25642,27904
25903,27904
25998,27894
26121,27857
26234,27797
26333,27716
26414,27617
26474,27504
26511,27381
26524,27254
26511,27126
26474,27004
26414,26891
26375,26843
80354,26843
80354,26932
80371,27018
80405,27099
80453,27172
80516,27235
80589,27283
80670,27317
80756,27334
80845,27334
80931,27317
81012,27283
81085,27235
81148,27172
81196,27099
81230,27018
81247,26932
81247,26843
81230,26757
81196,26676
81183,26655
113653,26655
113653,26744
113670,26830
113704,26911
113752,26984
113815,27047
113888,27095
113969,27129
114055,27146
114144,27146
114230,27129
114311,27095
114384,27047
114447,26984
114495,26911
114529,26830
114546,26744
114546,26655
114529,26569
114495,26488
114447,26415
114384,26352
114311,26304
114230,26270
114144,26253
114055,26253
113969,26270
113888,26304
113815,26352
113752,26415
113704,26488
113670,26569
113653,26655
81183,26655
81148,26603
81085,26540
81012,26492
80931,26458
80845,26441
80756,26441
80670,26458
80589,26492
80516,26540
80453,26603
80405,26676
80371,26757
80354,26843
26375,26843
26333,26792
26234,26711
26121,26650
25998,26613
25903,26604
25339,26604
25243,26613
25121,26650
25008,26711
24909,26792
24828,26891
24767,27004
24730,27126
24718,27254
24730,27381
24767,27504
24828,27617
24899,27704
24639,27704
24543,27713
24421,27750
24308,27811
24209,27892
24128,27991
24067,28104
24030,28226
24018,28354
21570,28354
21570,28214
21571,28201
21566,28148
21550,28097
21525,28050
21492,28009
21450,27975
21404,27950
21353,27935
21313,27931
21300,27930
21287,27931
19738,27931
19725,27930
19712,27931
19672,27935
19621,27950
19575,27975
19533,28009
19500,28050
19475,28097
19459,28148
19454,28201
19263,28201
19263,26450
19291,26270
19364,26126
19478,26013
19622,25940
19802,25911
19880,25911
19883,25912
19907,25911
19917,25911
19920,25911
19936,25911
19946,25908
19957,25907
19972,25903
19988,25899
19998,25895
20008,25892
20022,25884
20037,25878
20045,25872
20055,25867
20067,25857
20080,25848
20088,25840
20096,25833
20106,25821
20117,25809
20123,25800
20129,25792
20137,25778
20138,25776
20143,25766
20155,25745
20155,25743
20167,25719
20809,25719
20734,25757
Z" /> 
</g>
</g> 
</svg>
