G04 #@! TF.GenerationSoftware,KiCad,Pcbnew,(5.0.0-3-g5ebb6b6)*
G04 #@! TF.CreationDate,2019-02-17T13:25:32-08:00*
G04 #@! TF.ProjectId,BCInside,4243496E736964652E6B696361645F70,rev?*
G04 #@! TF.SameCoordinates,Original*
G04 #@! TF.FileFunction,Legend,Bot*
G04 #@! TF.FilePolarity,Positive*
%FSLAX46Y46*%
G04 Gerber Fmt 4.6, Leading zero omitted, Abs format (unit mm)*
G04 Created by KiCad (PCBNEW (5.0.0-3-g5ebb6b6)) date Sunday, February 17, 2019 at 01:25:32 PM*
%MOMM*%
%LPD*%
G01*
G04 APERTURE LIST*
%ADD10C,0.200000*%
%ADD11C,0.300000*%
G04 APERTURE END LIST*
D10*
X62230000Y-71882000D02*
X62230000Y-73152000D01*
X61722000Y-74041000D02*
X61722000Y-75311000D01*
X61595000Y-76708000D02*
X62865000Y-76708000D01*
X61595000Y-72517000D02*
X62865000Y-72517000D01*
X62865000Y-74676000D02*
X61722000Y-75311000D01*
X61722000Y-74041000D02*
X62865000Y-74676000D01*
X310007000Y-71628000D02*
X310007000Y-72898000D01*
X309499000Y-73787000D02*
X309499000Y-75057000D01*
X309372000Y-76454000D02*
X310642000Y-76454000D01*
X309372000Y-72263000D02*
X310642000Y-72263000D01*
X310642000Y-74422000D02*
X309499000Y-75057000D01*
X309499000Y-73787000D02*
X310642000Y-74422000D01*
D11*
X321706714Y-74459714D02*
X321278142Y-74602571D01*
X321135285Y-74745428D01*
X320992428Y-75031142D01*
X320992428Y-75459714D01*
X321135285Y-75745428D01*
X321278142Y-75888285D01*
X321563857Y-76031142D01*
X322706714Y-76031142D01*
X322706714Y-73031142D01*
X321706714Y-73031142D01*
X321421000Y-73174000D01*
X321278142Y-73316857D01*
X321135285Y-73602571D01*
X321135285Y-73888285D01*
X321278142Y-74174000D01*
X321421000Y-74316857D01*
X321706714Y-74459714D01*
X322706714Y-74459714D01*
X317992428Y-75745428D02*
X318135285Y-75888285D01*
X318563857Y-76031142D01*
X318849571Y-76031142D01*
X319278142Y-75888285D01*
X319563857Y-75602571D01*
X319706714Y-75316857D01*
X319849571Y-74745428D01*
X319849571Y-74316857D01*
X319706714Y-73745428D01*
X319563857Y-73459714D01*
X319278142Y-73174000D01*
X318849571Y-73031142D01*
X318563857Y-73031142D01*
X318135285Y-73174000D01*
X317992428Y-73316857D01*
X53228714Y-74586714D02*
X52800142Y-74729571D01*
X52657285Y-74872428D01*
X52514428Y-75158142D01*
X52514428Y-75586714D01*
X52657285Y-75872428D01*
X52800142Y-76015285D01*
X53085857Y-76158142D01*
X54228714Y-76158142D01*
X54228714Y-73158142D01*
X53228714Y-73158142D01*
X52943000Y-73301000D01*
X52800142Y-73443857D01*
X52657285Y-73729571D01*
X52657285Y-74015285D01*
X52800142Y-74301000D01*
X52943000Y-74443857D01*
X53228714Y-74586714D01*
X54228714Y-74586714D01*
X49514428Y-75872428D02*
X49657285Y-76015285D01*
X50085857Y-76158142D01*
X50371571Y-76158142D01*
X50800142Y-76015285D01*
X51085857Y-75729571D01*
X51228714Y-75443857D01*
X51371571Y-74872428D01*
X51371571Y-74443857D01*
X51228714Y-73872428D01*
X51085857Y-73586714D01*
X50800142Y-73301000D01*
X50371571Y-73158142D01*
X50085857Y-73158142D01*
X49657285Y-73301000D01*
X49514428Y-73443857D01*
M02*
