G04 #@! TF.GenerationSoftware,KiCad,Pcbnew,(5.0.0-3-g5ebb6b6)*
G04 #@! TF.CreationDate,2019-02-17T13:25:32-08:00*
G04 #@! TF.ProjectId,BCInside,4243496E736964652E6B696361645F70,rev?*
G04 #@! TF.SameCoordinates,Original*
G04 #@! TF.FileFunction,Profile,NP*
%FSLAX46Y46*%
G04 Gerber Fmt 4.6, Leading zero omitted, Abs format (unit mm)*
G04 Created by KiCad (PCBNEW (5.0.0-3-g5ebb6b6)) date Sunday, February 17, 2019 at 01:25:32 PM*
%MOMM*%
%LPD*%
G01*
G04 APERTURE LIST*
%ADD10C,0.100000*%
G04 APERTURE END LIST*
D10*
X296113200Y-74676000D02*
G75*
G03X296113200Y-74676000I-1473200J0D01*
G01*
X212801200Y-74676000D02*
G75*
G03X212801200Y-74676000I-1473200J0D01*
G01*
X79387700Y-74612500D02*
G75*
G03X79387700Y-74612500I-1473200J0D01*
G01*
X324202012Y-66512818D02*
X323918029Y-65954820D01*
X318299001Y-83628810D02*
X315299001Y-83628810D01*
X318994008Y-83518809D02*
X318299001Y-83628810D01*
X319621023Y-83199809D02*
X318994008Y-83518809D01*
X320118001Y-82701808D02*
X319621023Y-83199809D01*
X320437002Y-82075816D02*
X320118001Y-82701808D01*
X320547018Y-81380809D02*
X320437002Y-82075816D01*
X320437002Y-80685801D02*
X320547018Y-81380809D01*
X320118001Y-80059809D02*
X320437002Y-80685801D01*
X319621023Y-79561808D02*
X320118001Y-80059809D01*
X318994008Y-79242808D02*
X319621023Y-79561808D01*
X318299001Y-79132807D02*
X318994008Y-79242808D01*
X315299001Y-79132807D02*
X318299001Y-79132807D01*
X314605001Y-79242808D02*
X315299001Y-79132807D01*
X313978017Y-79561808D02*
X314605001Y-79242808D01*
X313481008Y-80059809D02*
X313978017Y-79561808D01*
X313162008Y-80685801D02*
X313481008Y-80059809D01*
X313052022Y-81380809D02*
X313162008Y-80685801D01*
X313162008Y-82075816D02*
X313052022Y-81380809D01*
X313481008Y-82701808D02*
X313162008Y-82075816D01*
X313978017Y-83199809D02*
X313481008Y-82701808D01*
X314605001Y-83518809D02*
X313978017Y-83199809D01*
X315299001Y-83628810D02*
X314605001Y-83518809D01*
X57244001Y-83628810D02*
X54244001Y-83628810D01*
X57938600Y-83518809D02*
X57244001Y-83628810D01*
X58565302Y-83199809D02*
X57938600Y-83518809D01*
X59062601Y-82701808D02*
X58565302Y-83199809D01*
X59381901Y-82075816D02*
X59062601Y-82701808D01*
X59491901Y-81380809D02*
X59381901Y-82075816D01*
X59381901Y-80685801D02*
X59491901Y-81380809D01*
X59062601Y-80059809D02*
X59381901Y-80685801D01*
X58565302Y-79561808D02*
X59062601Y-80059809D01*
X57938600Y-79242808D02*
X58565302Y-79561808D01*
X57244001Y-79132807D02*
X57938600Y-79242808D01*
X54244001Y-79132807D02*
X57244001Y-79132807D01*
X53549402Y-79242808D02*
X54244001Y-79132807D01*
X52922701Y-79561808D02*
X53549402Y-79242808D01*
X52425401Y-80059809D02*
X52922701Y-79561808D01*
X52106102Y-80685801D02*
X52425401Y-80059809D01*
X51996101Y-81380809D02*
X52106102Y-80685801D01*
X52106102Y-82075816D02*
X51996101Y-81380809D01*
X52425401Y-82701808D02*
X52106102Y-82075816D01*
X52922701Y-83199809D02*
X52425401Y-82701808D01*
X53549402Y-83518809D02*
X52922701Y-83199809D01*
X54244001Y-83628810D02*
X53549402Y-83518809D01*
X318299001Y-70128809D02*
X315299001Y-70128809D01*
X318994008Y-70018809D02*
X318299001Y-70128809D01*
X319621023Y-69699809D02*
X318994008Y-70018809D01*
X320118001Y-69201807D02*
X319621023Y-69699809D01*
X320437002Y-68575816D02*
X320118001Y-69201807D01*
X320547018Y-67880808D02*
X320437002Y-68575816D01*
X320437002Y-67185801D02*
X320547018Y-67880808D01*
X320118001Y-66559809D02*
X320437002Y-67185801D01*
X319621023Y-66061808D02*
X320118001Y-66559809D01*
X318994008Y-65742808D02*
X319621023Y-66061808D01*
X318299001Y-65632807D02*
X318994008Y-65742808D01*
X315299001Y-65632807D02*
X318299001Y-65632807D01*
X314605001Y-65742808D02*
X315299001Y-65632807D01*
X313978017Y-66061808D02*
X314605001Y-65742808D01*
X313481008Y-66559809D02*
X313978017Y-66061808D01*
X313162008Y-67185801D02*
X313481008Y-66559809D01*
X313052022Y-67880808D02*
X313162008Y-67185801D01*
X313162008Y-68575816D02*
X313052022Y-67880808D01*
X313481008Y-69201807D02*
X313162008Y-68575816D01*
X313978017Y-69699809D02*
X313481008Y-69201807D01*
X314605001Y-70018809D02*
X313978017Y-69699809D01*
X315299001Y-70128809D02*
X314605001Y-70018809D01*
X57244001Y-70128809D02*
X54244001Y-70128809D01*
X57938600Y-70018809D02*
X57244001Y-70128809D01*
X58565302Y-69699809D02*
X57938600Y-70018809D01*
X59062601Y-69201807D02*
X58565302Y-69699809D01*
X59381901Y-68575816D02*
X59062601Y-69201807D01*
X59491901Y-67880808D02*
X59381901Y-68575816D01*
X59381901Y-67185801D02*
X59491901Y-67880808D01*
X59062601Y-66559809D02*
X59381901Y-67185801D01*
X58565302Y-66061808D02*
X59062601Y-66559809D01*
X57938600Y-65742808D02*
X58565302Y-66061808D01*
X57244001Y-65632807D02*
X57938600Y-65742808D01*
X54244001Y-65632807D02*
X57244001Y-65632807D01*
X53549402Y-65742808D02*
X54244001Y-65632807D01*
X52922701Y-66061808D02*
X53549402Y-65742808D01*
X52425401Y-66559809D02*
X52922701Y-66061808D01*
X52106102Y-67185801D02*
X52425401Y-66559809D01*
X51996101Y-67880808D02*
X52106102Y-67185801D01*
X52106102Y-68575816D02*
X51996101Y-67880808D01*
X52425401Y-69201807D02*
X52106102Y-68575816D01*
X52922701Y-69699809D02*
X52425401Y-69201807D01*
X53549402Y-70018809D02*
X52922701Y-69699809D01*
X54244001Y-70128809D02*
X53549402Y-70018809D01*
X322547010Y-70533072D02*
X322547010Y-72533079D01*
X318547017Y-70533072D02*
X322547010Y-70533072D01*
X318547017Y-72533079D02*
X318547017Y-70533072D01*
X322547010Y-72533079D02*
X318547017Y-72533079D01*
X322547010Y-76533072D02*
X322547010Y-78533079D01*
X318547017Y-76533072D02*
X322547010Y-76533072D01*
X318547017Y-78533079D02*
X318547017Y-76533072D01*
X322547010Y-78533079D02*
X318547017Y-78533079D01*
X54102974Y-70630805D02*
X54102974Y-72630812D01*
X50102959Y-70630805D02*
X54102974Y-70630805D01*
X50102959Y-72630812D02*
X50102959Y-70630805D01*
X54102974Y-72630812D02*
X50102959Y-72630812D01*
X54102974Y-76630805D02*
X54102974Y-78630812D01*
X50102959Y-76630805D02*
X54102974Y-76630805D01*
X50102959Y-78630812D02*
X50102959Y-76630805D01*
X54102974Y-78630812D02*
X50102959Y-78630812D01*
X324298992Y-67130803D02*
X324202012Y-66512818D01*
X324298992Y-82130814D02*
X324298992Y-67130803D01*
X324202012Y-82748799D02*
X324298992Y-82130814D01*
X323918029Y-83306797D02*
X324202012Y-82748799D01*
X323474990Y-83748803D02*
X323918029Y-83306797D01*
X322918025Y-84032808D02*
X323474990Y-83748803D01*
X322299006Y-84130799D02*
X322918025Y-84032808D01*
X321986019Y-84130799D02*
X322299006Y-84130799D01*
X321840012Y-84416807D02*
X321986019Y-84130799D01*
X321343014Y-84913805D02*
X321840012Y-84416807D01*
X320715985Y-85232821D02*
X321343014Y-84913805D01*
X320021023Y-85342805D02*
X320715985Y-85232821D01*
X313577015Y-85342805D02*
X320021023Y-85342805D01*
X312883022Y-85232821D02*
X313577015Y-85342805D01*
X312255993Y-84913805D02*
X312883022Y-85232821D01*
X311759017Y-84416807D02*
X312255993Y-84913805D01*
X311612988Y-84130799D02*
X311759017Y-84416807D01*
X60930205Y-84130799D02*
X311612988Y-84130799D01*
X60784607Y-84416807D02*
X60930205Y-84130799D01*
X60287308Y-84913805D02*
X60784607Y-84416807D01*
X59660602Y-85232821D02*
X60287308Y-84913805D01*
X58966006Y-85342805D02*
X59660602Y-85232821D01*
X52521998Y-85342805D02*
X58966006Y-85342805D01*
X51827294Y-85232821D02*
X52521998Y-85342805D01*
X51200696Y-84913805D02*
X51827294Y-85232821D01*
X50703396Y-84416807D02*
X51200696Y-84913805D01*
X50557798Y-84130799D02*
X50703396Y-84416807D01*
X50243993Y-84130799D02*
X50557798Y-84130799D01*
X49626007Y-84032808D02*
X50243993Y-84130799D01*
X49068397Y-83748803D02*
X49626007Y-84032808D01*
X48626004Y-83306797D02*
X49068397Y-83748803D01*
X48341891Y-82748799D02*
X48626004Y-83306797D01*
X48244007Y-82130814D02*
X48341891Y-82748799D01*
X48244007Y-67130803D02*
X48244007Y-82130814D01*
X48341891Y-66512818D02*
X48244007Y-67130803D01*
X48626004Y-65954820D02*
X48341891Y-66512818D01*
X49068397Y-65512814D02*
X48626004Y-65954820D01*
X49626007Y-65228809D02*
X49068397Y-65512814D01*
X50243993Y-65130818D02*
X49626007Y-65228809D01*
X50557798Y-65130818D02*
X50243993Y-65130818D01*
X50703396Y-64844810D02*
X50557798Y-65130818D01*
X51200696Y-64347812D02*
X50703396Y-64844810D01*
X51827294Y-64028796D02*
X51200696Y-64347812D01*
X52521998Y-63918812D02*
X51827294Y-64028796D01*
X58966006Y-63918812D02*
X52521998Y-63918812D01*
X59660602Y-64028796D02*
X58966006Y-63918812D01*
X60287308Y-64347812D02*
X59660602Y-64028796D01*
X60784607Y-64844810D02*
X60287308Y-64347812D01*
X60930205Y-65130818D02*
X60784607Y-64844810D01*
X311612988Y-65130818D02*
X60930205Y-65130818D01*
X311759017Y-64844810D02*
X311612988Y-65130818D01*
X312255993Y-64347812D02*
X311759017Y-64844810D01*
X312883022Y-64028796D02*
X312255993Y-64347812D01*
X313577015Y-63918812D02*
X312883022Y-64028796D01*
X320021023Y-63918812D02*
X313577015Y-63918812D01*
X320715985Y-64028796D02*
X320021023Y-63918812D01*
X321343014Y-64347812D02*
X320715985Y-64028796D01*
X321840012Y-64844810D02*
X321343014Y-64347812D01*
X321986019Y-65130818D02*
X321840012Y-64844810D01*
X322299006Y-65130818D02*
X321986019Y-65130818D01*
X322918025Y-65228809D02*
X322299006Y-65130818D01*
X323474990Y-65512814D02*
X322918025Y-65228809D01*
X323918029Y-65954820D02*
X323474990Y-65512814D01*
M02*
