M48
INCH,TZ
T1C0.0236
T2C0.0433
%
G90
G05
T1
X27948Y-39969
X29154Y-39961
X29648Y-39954
X32766Y-40000
X33274Y-39596
X34509Y-39969
X35715Y-39961
X36209Y-39954
X39327Y-40000
X39928Y-39961
X41071Y-39969
X42277Y-39961
X42771Y-39954
X45889Y-40000
X46522Y-39980
X47633Y-39969
X48839Y-39961
X49333Y-39954
X52451Y-40000
X53097Y-39980
X54194Y-39969
X55400Y-39961
X55894Y-39954
X59012Y-40000
X59633Y-39980
X60756Y-39969
X61962Y-39961
X62456Y-39954
X65574Y-40000
X66207Y-39980
X67318Y-39969
X68524Y-39961
X69018Y-39954
X72136Y-40000
X72822Y-39980
X73879Y-39969
X75085Y-39961
X75579Y-39954
X78698Y-40000
X79278Y-39980
X80441Y-39969
X81647Y-39961
X82141Y-39954
X85259Y-40000
X85932Y-39980
X87003Y-39969
X88209Y-39961
X88703Y-39954
X91821Y-40000
X92507Y-40020
X93564Y-39969
X94771Y-39961
X95265Y-39954
X98570Y-40020
X99121Y-40020
X101329Y-39724
X101562Y-40157
X102074Y-39823
X107940Y-40610
X107945Y-40014
X108412Y-40295
X108570Y-39626
X114501Y-40610
X114507Y-40014
X114974Y-40295
X115131Y-39626
X121063Y-40610
X121068Y-40014
X121536Y-40295
X121693Y-39626
T2
X111549Y-39094
X111549Y-39672
X111549Y-40249
X111549Y-40827
X104987Y-39094
X104987Y-39672
X104987Y-40249
X104987Y-40827
X118110Y-39094
X118110Y-39672
X118110Y-40249
X118110Y-40827
X26837Y-39094
X26837Y-39672
X26837Y-40249
X26837Y-40827
X124082Y-39094
X124082Y-39672
X124082Y-40249
X124082Y-40827
T0
M30
