G04 #@! TF.GenerationSoftware,KiCad,Pcbnew,(5.1.0-0)*
G04 #@! TF.CreationDate,2019-04-22T12:47:30-07:00*
G04 #@! TF.ProjectId,EOutside,454f7574-7369-4646-952e-6b696361645f,rev?*
G04 #@! TF.SameCoordinates,Original*
G04 #@! TF.FileFunction,Soldermask,Top*
G04 #@! TF.FilePolarity,Negative*
%FSLAX46Y46*%
G04 Gerber Fmt 4.6, Leading zero omitted, Abs format (unit mm)*
G04 Created by KiCad (PCBNEW (5.1.0-0)) date 2019-04-22 12:47:30*
%MOMM*%
%LPD*%
G04 APERTURE LIST*
%ADD10R,1.900000X1.400000*%
%ADD11C,0.050000*%
%ADD12C,1.275000*%
%ADD13R,2.900000X1.600000*%
%ADD14O,4.400000X1.600000*%
G04 APERTURE END LIST*
D10*
X310783950Y-103100000D03*
X310783950Y-101500000D03*
X310783950Y-99900000D03*
X305883950Y-103100000D03*
X305883950Y-101500000D03*
X305883950Y-99900000D03*
X94116850Y-103100000D03*
X94116850Y-101500000D03*
X94116850Y-99900000D03*
X89216850Y-103100000D03*
X89216850Y-101500000D03*
X89216850Y-99900000D03*
X144116950Y-103100000D03*
X144116950Y-101500000D03*
X144116950Y-99900000D03*
X139216950Y-103100000D03*
X139216950Y-101500000D03*
X139216950Y-99900000D03*
X127450250Y-103100000D03*
X127450250Y-101500000D03*
X127450250Y-99900000D03*
X122550250Y-103100000D03*
X122550250Y-101500000D03*
X122550250Y-99900000D03*
D11*
G36*
X313271443Y-102651535D02*
G01*
X313302385Y-102656125D01*
X313332728Y-102663725D01*
X313362180Y-102674263D01*
X313390458Y-102687638D01*
X313417288Y-102703719D01*
X313442413Y-102722353D01*
X313465590Y-102743360D01*
X313486597Y-102766537D01*
X313505231Y-102791662D01*
X313521312Y-102818492D01*
X313534687Y-102846770D01*
X313545225Y-102876222D01*
X313552825Y-102906565D01*
X313557415Y-102937507D01*
X313558950Y-102968750D01*
X313558950Y-103606250D01*
X313557415Y-103637493D01*
X313552825Y-103668435D01*
X313545225Y-103698778D01*
X313534687Y-103728230D01*
X313521312Y-103756508D01*
X313505231Y-103783338D01*
X313486597Y-103808463D01*
X313465590Y-103831640D01*
X313442413Y-103852647D01*
X313417288Y-103871281D01*
X313390458Y-103887362D01*
X313362180Y-103900737D01*
X313332728Y-103911275D01*
X313302385Y-103918875D01*
X313271443Y-103923465D01*
X313240200Y-103925000D01*
X312527700Y-103925000D01*
X312496457Y-103923465D01*
X312465515Y-103918875D01*
X312435172Y-103911275D01*
X312405720Y-103900737D01*
X312377442Y-103887362D01*
X312350612Y-103871281D01*
X312325487Y-103852647D01*
X312302310Y-103831640D01*
X312281303Y-103808463D01*
X312262669Y-103783338D01*
X312246588Y-103756508D01*
X312233213Y-103728230D01*
X312222675Y-103698778D01*
X312215075Y-103668435D01*
X312210485Y-103637493D01*
X312208950Y-103606250D01*
X312208950Y-102968750D01*
X312210485Y-102937507D01*
X312215075Y-102906565D01*
X312222675Y-102876222D01*
X312233213Y-102846770D01*
X312246588Y-102818492D01*
X312262669Y-102791662D01*
X312281303Y-102766537D01*
X312302310Y-102743360D01*
X312325487Y-102722353D01*
X312350612Y-102703719D01*
X312377442Y-102687638D01*
X312405720Y-102674263D01*
X312435172Y-102663725D01*
X312465515Y-102656125D01*
X312496457Y-102651535D01*
X312527700Y-102650000D01*
X313240200Y-102650000D01*
X313271443Y-102651535D01*
X313271443Y-102651535D01*
G37*
D12*
X312883950Y-103287500D03*
D11*
G36*
X313271443Y-101076535D02*
G01*
X313302385Y-101081125D01*
X313332728Y-101088725D01*
X313362180Y-101099263D01*
X313390458Y-101112638D01*
X313417288Y-101128719D01*
X313442413Y-101147353D01*
X313465590Y-101168360D01*
X313486597Y-101191537D01*
X313505231Y-101216662D01*
X313521312Y-101243492D01*
X313534687Y-101271770D01*
X313545225Y-101301222D01*
X313552825Y-101331565D01*
X313557415Y-101362507D01*
X313558950Y-101393750D01*
X313558950Y-102031250D01*
X313557415Y-102062493D01*
X313552825Y-102093435D01*
X313545225Y-102123778D01*
X313534687Y-102153230D01*
X313521312Y-102181508D01*
X313505231Y-102208338D01*
X313486597Y-102233463D01*
X313465590Y-102256640D01*
X313442413Y-102277647D01*
X313417288Y-102296281D01*
X313390458Y-102312362D01*
X313362180Y-102325737D01*
X313332728Y-102336275D01*
X313302385Y-102343875D01*
X313271443Y-102348465D01*
X313240200Y-102350000D01*
X312527700Y-102350000D01*
X312496457Y-102348465D01*
X312465515Y-102343875D01*
X312435172Y-102336275D01*
X312405720Y-102325737D01*
X312377442Y-102312362D01*
X312350612Y-102296281D01*
X312325487Y-102277647D01*
X312302310Y-102256640D01*
X312281303Y-102233463D01*
X312262669Y-102208338D01*
X312246588Y-102181508D01*
X312233213Y-102153230D01*
X312222675Y-102123778D01*
X312215075Y-102093435D01*
X312210485Y-102062493D01*
X312208950Y-102031250D01*
X312208950Y-101393750D01*
X312210485Y-101362507D01*
X312215075Y-101331565D01*
X312222675Y-101301222D01*
X312233213Y-101271770D01*
X312246588Y-101243492D01*
X312262669Y-101216662D01*
X312281303Y-101191537D01*
X312302310Y-101168360D01*
X312325487Y-101147353D01*
X312350612Y-101128719D01*
X312377442Y-101112638D01*
X312405720Y-101099263D01*
X312435172Y-101088725D01*
X312465515Y-101081125D01*
X312496457Y-101076535D01*
X312527700Y-101075000D01*
X313240200Y-101075000D01*
X313271443Y-101076535D01*
X313271443Y-101076535D01*
G37*
D12*
X312883950Y-101712500D03*
D11*
G36*
X296604743Y-102651535D02*
G01*
X296635685Y-102656125D01*
X296666028Y-102663725D01*
X296695480Y-102674263D01*
X296723758Y-102687638D01*
X296750588Y-102703719D01*
X296775713Y-102722353D01*
X296798890Y-102743360D01*
X296819897Y-102766537D01*
X296838531Y-102791662D01*
X296854612Y-102818492D01*
X296867987Y-102846770D01*
X296878525Y-102876222D01*
X296886125Y-102906565D01*
X296890715Y-102937507D01*
X296892250Y-102968750D01*
X296892250Y-103606250D01*
X296890715Y-103637493D01*
X296886125Y-103668435D01*
X296878525Y-103698778D01*
X296867987Y-103728230D01*
X296854612Y-103756508D01*
X296838531Y-103783338D01*
X296819897Y-103808463D01*
X296798890Y-103831640D01*
X296775713Y-103852647D01*
X296750588Y-103871281D01*
X296723758Y-103887362D01*
X296695480Y-103900737D01*
X296666028Y-103911275D01*
X296635685Y-103918875D01*
X296604743Y-103923465D01*
X296573500Y-103925000D01*
X295861000Y-103925000D01*
X295829757Y-103923465D01*
X295798815Y-103918875D01*
X295768472Y-103911275D01*
X295739020Y-103900737D01*
X295710742Y-103887362D01*
X295683912Y-103871281D01*
X295658787Y-103852647D01*
X295635610Y-103831640D01*
X295614603Y-103808463D01*
X295595969Y-103783338D01*
X295579888Y-103756508D01*
X295566513Y-103728230D01*
X295555975Y-103698778D01*
X295548375Y-103668435D01*
X295543785Y-103637493D01*
X295542250Y-103606250D01*
X295542250Y-102968750D01*
X295543785Y-102937507D01*
X295548375Y-102906565D01*
X295555975Y-102876222D01*
X295566513Y-102846770D01*
X295579888Y-102818492D01*
X295595969Y-102791662D01*
X295614603Y-102766537D01*
X295635610Y-102743360D01*
X295658787Y-102722353D01*
X295683912Y-102703719D01*
X295710742Y-102687638D01*
X295739020Y-102674263D01*
X295768472Y-102663725D01*
X295798815Y-102656125D01*
X295829757Y-102651535D01*
X295861000Y-102650000D01*
X296573500Y-102650000D01*
X296604743Y-102651535D01*
X296604743Y-102651535D01*
G37*
D12*
X296217250Y-103287500D03*
D11*
G36*
X296604743Y-101076535D02*
G01*
X296635685Y-101081125D01*
X296666028Y-101088725D01*
X296695480Y-101099263D01*
X296723758Y-101112638D01*
X296750588Y-101128719D01*
X296775713Y-101147353D01*
X296798890Y-101168360D01*
X296819897Y-101191537D01*
X296838531Y-101216662D01*
X296854612Y-101243492D01*
X296867987Y-101271770D01*
X296878525Y-101301222D01*
X296886125Y-101331565D01*
X296890715Y-101362507D01*
X296892250Y-101393750D01*
X296892250Y-102031250D01*
X296890715Y-102062493D01*
X296886125Y-102093435D01*
X296878525Y-102123778D01*
X296867987Y-102153230D01*
X296854612Y-102181508D01*
X296838531Y-102208338D01*
X296819897Y-102233463D01*
X296798890Y-102256640D01*
X296775713Y-102277647D01*
X296750588Y-102296281D01*
X296723758Y-102312362D01*
X296695480Y-102325737D01*
X296666028Y-102336275D01*
X296635685Y-102343875D01*
X296604743Y-102348465D01*
X296573500Y-102350000D01*
X295861000Y-102350000D01*
X295829757Y-102348465D01*
X295798815Y-102343875D01*
X295768472Y-102336275D01*
X295739020Y-102325737D01*
X295710742Y-102312362D01*
X295683912Y-102296281D01*
X295658787Y-102277647D01*
X295635610Y-102256640D01*
X295614603Y-102233463D01*
X295595969Y-102208338D01*
X295579888Y-102181508D01*
X295566513Y-102153230D01*
X295555975Y-102123778D01*
X295548375Y-102093435D01*
X295543785Y-102062493D01*
X295542250Y-102031250D01*
X295542250Y-101393750D01*
X295543785Y-101362507D01*
X295548375Y-101331565D01*
X295555975Y-101301222D01*
X295566513Y-101271770D01*
X295579888Y-101243492D01*
X295595969Y-101216662D01*
X295614603Y-101191537D01*
X295635610Y-101168360D01*
X295658787Y-101147353D01*
X295683912Y-101128719D01*
X295710742Y-101112638D01*
X295739020Y-101099263D01*
X295768472Y-101088725D01*
X295798815Y-101081125D01*
X295829757Y-101076535D01*
X295861000Y-101075000D01*
X296573500Y-101075000D01*
X296604743Y-101076535D01*
X296604743Y-101076535D01*
G37*
D12*
X296217250Y-101712500D03*
D11*
G36*
X279938043Y-102651535D02*
G01*
X279968985Y-102656125D01*
X279999328Y-102663725D01*
X280028780Y-102674263D01*
X280057058Y-102687638D01*
X280083888Y-102703719D01*
X280109013Y-102722353D01*
X280132190Y-102743360D01*
X280153197Y-102766537D01*
X280171831Y-102791662D01*
X280187912Y-102818492D01*
X280201287Y-102846770D01*
X280211825Y-102876222D01*
X280219425Y-102906565D01*
X280224015Y-102937507D01*
X280225550Y-102968750D01*
X280225550Y-103606250D01*
X280224015Y-103637493D01*
X280219425Y-103668435D01*
X280211825Y-103698778D01*
X280201287Y-103728230D01*
X280187912Y-103756508D01*
X280171831Y-103783338D01*
X280153197Y-103808463D01*
X280132190Y-103831640D01*
X280109013Y-103852647D01*
X280083888Y-103871281D01*
X280057058Y-103887362D01*
X280028780Y-103900737D01*
X279999328Y-103911275D01*
X279968985Y-103918875D01*
X279938043Y-103923465D01*
X279906800Y-103925000D01*
X279194300Y-103925000D01*
X279163057Y-103923465D01*
X279132115Y-103918875D01*
X279101772Y-103911275D01*
X279072320Y-103900737D01*
X279044042Y-103887362D01*
X279017212Y-103871281D01*
X278992087Y-103852647D01*
X278968910Y-103831640D01*
X278947903Y-103808463D01*
X278929269Y-103783338D01*
X278913188Y-103756508D01*
X278899813Y-103728230D01*
X278889275Y-103698778D01*
X278881675Y-103668435D01*
X278877085Y-103637493D01*
X278875550Y-103606250D01*
X278875550Y-102968750D01*
X278877085Y-102937507D01*
X278881675Y-102906565D01*
X278889275Y-102876222D01*
X278899813Y-102846770D01*
X278913188Y-102818492D01*
X278929269Y-102791662D01*
X278947903Y-102766537D01*
X278968910Y-102743360D01*
X278992087Y-102722353D01*
X279017212Y-102703719D01*
X279044042Y-102687638D01*
X279072320Y-102674263D01*
X279101772Y-102663725D01*
X279132115Y-102656125D01*
X279163057Y-102651535D01*
X279194300Y-102650000D01*
X279906800Y-102650000D01*
X279938043Y-102651535D01*
X279938043Y-102651535D01*
G37*
D12*
X279550550Y-103287500D03*
D11*
G36*
X279938043Y-101076535D02*
G01*
X279968985Y-101081125D01*
X279999328Y-101088725D01*
X280028780Y-101099263D01*
X280057058Y-101112638D01*
X280083888Y-101128719D01*
X280109013Y-101147353D01*
X280132190Y-101168360D01*
X280153197Y-101191537D01*
X280171831Y-101216662D01*
X280187912Y-101243492D01*
X280201287Y-101271770D01*
X280211825Y-101301222D01*
X280219425Y-101331565D01*
X280224015Y-101362507D01*
X280225550Y-101393750D01*
X280225550Y-102031250D01*
X280224015Y-102062493D01*
X280219425Y-102093435D01*
X280211825Y-102123778D01*
X280201287Y-102153230D01*
X280187912Y-102181508D01*
X280171831Y-102208338D01*
X280153197Y-102233463D01*
X280132190Y-102256640D01*
X280109013Y-102277647D01*
X280083888Y-102296281D01*
X280057058Y-102312362D01*
X280028780Y-102325737D01*
X279999328Y-102336275D01*
X279968985Y-102343875D01*
X279938043Y-102348465D01*
X279906800Y-102350000D01*
X279194300Y-102350000D01*
X279163057Y-102348465D01*
X279132115Y-102343875D01*
X279101772Y-102336275D01*
X279072320Y-102325737D01*
X279044042Y-102312362D01*
X279017212Y-102296281D01*
X278992087Y-102277647D01*
X278968910Y-102256640D01*
X278947903Y-102233463D01*
X278929269Y-102208338D01*
X278913188Y-102181508D01*
X278899813Y-102153230D01*
X278889275Y-102123778D01*
X278881675Y-102093435D01*
X278877085Y-102062493D01*
X278875550Y-102031250D01*
X278875550Y-101393750D01*
X278877085Y-101362507D01*
X278881675Y-101331565D01*
X278889275Y-101301222D01*
X278899813Y-101271770D01*
X278913188Y-101243492D01*
X278929269Y-101216662D01*
X278947903Y-101191537D01*
X278968910Y-101168360D01*
X278992087Y-101147353D01*
X279017212Y-101128719D01*
X279044042Y-101112638D01*
X279072320Y-101099263D01*
X279101772Y-101088725D01*
X279132115Y-101081125D01*
X279163057Y-101076535D01*
X279194300Y-101075000D01*
X279906800Y-101075000D01*
X279938043Y-101076535D01*
X279938043Y-101076535D01*
G37*
D12*
X279550550Y-101712500D03*
D11*
G36*
X263454289Y-102451535D02*
G01*
X263485231Y-102456125D01*
X263515574Y-102463725D01*
X263545026Y-102474263D01*
X263573304Y-102487638D01*
X263600134Y-102503719D01*
X263625259Y-102522353D01*
X263648436Y-102543360D01*
X263669443Y-102566537D01*
X263688077Y-102591662D01*
X263704158Y-102618492D01*
X263717533Y-102646770D01*
X263728071Y-102676222D01*
X263735671Y-102706565D01*
X263740261Y-102737507D01*
X263741796Y-102768750D01*
X263741796Y-103406250D01*
X263740261Y-103437493D01*
X263735671Y-103468435D01*
X263728071Y-103498778D01*
X263717533Y-103528230D01*
X263704158Y-103556508D01*
X263688077Y-103583338D01*
X263669443Y-103608463D01*
X263648436Y-103631640D01*
X263625259Y-103652647D01*
X263600134Y-103671281D01*
X263573304Y-103687362D01*
X263545026Y-103700737D01*
X263515574Y-103711275D01*
X263485231Y-103718875D01*
X263454289Y-103723465D01*
X263423046Y-103725000D01*
X262710546Y-103725000D01*
X262679303Y-103723465D01*
X262648361Y-103718875D01*
X262618018Y-103711275D01*
X262588566Y-103700737D01*
X262560288Y-103687362D01*
X262533458Y-103671281D01*
X262508333Y-103652647D01*
X262485156Y-103631640D01*
X262464149Y-103608463D01*
X262445515Y-103583338D01*
X262429434Y-103556508D01*
X262416059Y-103528230D01*
X262405521Y-103498778D01*
X262397921Y-103468435D01*
X262393331Y-103437493D01*
X262391796Y-103406250D01*
X262391796Y-102768750D01*
X262393331Y-102737507D01*
X262397921Y-102706565D01*
X262405521Y-102676222D01*
X262416059Y-102646770D01*
X262429434Y-102618492D01*
X262445515Y-102591662D01*
X262464149Y-102566537D01*
X262485156Y-102543360D01*
X262508333Y-102522353D01*
X262533458Y-102503719D01*
X262560288Y-102487638D01*
X262588566Y-102474263D01*
X262618018Y-102463725D01*
X262648361Y-102456125D01*
X262679303Y-102451535D01*
X262710546Y-102450000D01*
X263423046Y-102450000D01*
X263454289Y-102451535D01*
X263454289Y-102451535D01*
G37*
D12*
X263066796Y-103087500D03*
D11*
G36*
X263454289Y-100876535D02*
G01*
X263485231Y-100881125D01*
X263515574Y-100888725D01*
X263545026Y-100899263D01*
X263573304Y-100912638D01*
X263600134Y-100928719D01*
X263625259Y-100947353D01*
X263648436Y-100968360D01*
X263669443Y-100991537D01*
X263688077Y-101016662D01*
X263704158Y-101043492D01*
X263717533Y-101071770D01*
X263728071Y-101101222D01*
X263735671Y-101131565D01*
X263740261Y-101162507D01*
X263741796Y-101193750D01*
X263741796Y-101831250D01*
X263740261Y-101862493D01*
X263735671Y-101893435D01*
X263728071Y-101923778D01*
X263717533Y-101953230D01*
X263704158Y-101981508D01*
X263688077Y-102008338D01*
X263669443Y-102033463D01*
X263648436Y-102056640D01*
X263625259Y-102077647D01*
X263600134Y-102096281D01*
X263573304Y-102112362D01*
X263545026Y-102125737D01*
X263515574Y-102136275D01*
X263485231Y-102143875D01*
X263454289Y-102148465D01*
X263423046Y-102150000D01*
X262710546Y-102150000D01*
X262679303Y-102148465D01*
X262648361Y-102143875D01*
X262618018Y-102136275D01*
X262588566Y-102125737D01*
X262560288Y-102112362D01*
X262533458Y-102096281D01*
X262508333Y-102077647D01*
X262485156Y-102056640D01*
X262464149Y-102033463D01*
X262445515Y-102008338D01*
X262429434Y-101981508D01*
X262416059Y-101953230D01*
X262405521Y-101923778D01*
X262397921Y-101893435D01*
X262393331Y-101862493D01*
X262391796Y-101831250D01*
X262391796Y-101193750D01*
X262393331Y-101162507D01*
X262397921Y-101131565D01*
X262405521Y-101101222D01*
X262416059Y-101071770D01*
X262429434Y-101043492D01*
X262445515Y-101016662D01*
X262464149Y-100991537D01*
X262485156Y-100968360D01*
X262508333Y-100947353D01*
X262533458Y-100928719D01*
X262560288Y-100912638D01*
X262588566Y-100899263D01*
X262618018Y-100888725D01*
X262648361Y-100881125D01*
X262679303Y-100876535D01*
X262710546Y-100875000D01*
X263423046Y-100875000D01*
X263454289Y-100876535D01*
X263454289Y-100876535D01*
G37*
D12*
X263066796Y-101512500D03*
D11*
G36*
X246954643Y-101451535D02*
G01*
X246985585Y-101456125D01*
X247015928Y-101463725D01*
X247045380Y-101474263D01*
X247073658Y-101487638D01*
X247100488Y-101503719D01*
X247125613Y-101522353D01*
X247148790Y-101543360D01*
X247169797Y-101566537D01*
X247188431Y-101591662D01*
X247204512Y-101618492D01*
X247217887Y-101646770D01*
X247228425Y-101676222D01*
X247236025Y-101706565D01*
X247240615Y-101737507D01*
X247242150Y-101768750D01*
X247242150Y-102406250D01*
X247240615Y-102437493D01*
X247236025Y-102468435D01*
X247228425Y-102498778D01*
X247217887Y-102528230D01*
X247204512Y-102556508D01*
X247188431Y-102583338D01*
X247169797Y-102608463D01*
X247148790Y-102631640D01*
X247125613Y-102652647D01*
X247100488Y-102671281D01*
X247073658Y-102687362D01*
X247045380Y-102700737D01*
X247015928Y-102711275D01*
X246985585Y-102718875D01*
X246954643Y-102723465D01*
X246923400Y-102725000D01*
X246210900Y-102725000D01*
X246179657Y-102723465D01*
X246148715Y-102718875D01*
X246118372Y-102711275D01*
X246088920Y-102700737D01*
X246060642Y-102687362D01*
X246033812Y-102671281D01*
X246008687Y-102652647D01*
X245985510Y-102631640D01*
X245964503Y-102608463D01*
X245945869Y-102583338D01*
X245929788Y-102556508D01*
X245916413Y-102528230D01*
X245905875Y-102498778D01*
X245898275Y-102468435D01*
X245893685Y-102437493D01*
X245892150Y-102406250D01*
X245892150Y-101768750D01*
X245893685Y-101737507D01*
X245898275Y-101706565D01*
X245905875Y-101676222D01*
X245916413Y-101646770D01*
X245929788Y-101618492D01*
X245945869Y-101591662D01*
X245964503Y-101566537D01*
X245985510Y-101543360D01*
X246008687Y-101522353D01*
X246033812Y-101503719D01*
X246060642Y-101487638D01*
X246088920Y-101474263D01*
X246118372Y-101463725D01*
X246148715Y-101456125D01*
X246179657Y-101451535D01*
X246210900Y-101450000D01*
X246923400Y-101450000D01*
X246954643Y-101451535D01*
X246954643Y-101451535D01*
G37*
D12*
X246567150Y-102087500D03*
D11*
G36*
X246954643Y-99876535D02*
G01*
X246985585Y-99881125D01*
X247015928Y-99888725D01*
X247045380Y-99899263D01*
X247073658Y-99912638D01*
X247100488Y-99928719D01*
X247125613Y-99947353D01*
X247148790Y-99968360D01*
X247169797Y-99991537D01*
X247188431Y-100016662D01*
X247204512Y-100043492D01*
X247217887Y-100071770D01*
X247228425Y-100101222D01*
X247236025Y-100131565D01*
X247240615Y-100162507D01*
X247242150Y-100193750D01*
X247242150Y-100831250D01*
X247240615Y-100862493D01*
X247236025Y-100893435D01*
X247228425Y-100923778D01*
X247217887Y-100953230D01*
X247204512Y-100981508D01*
X247188431Y-101008338D01*
X247169797Y-101033463D01*
X247148790Y-101056640D01*
X247125613Y-101077647D01*
X247100488Y-101096281D01*
X247073658Y-101112362D01*
X247045380Y-101125737D01*
X247015928Y-101136275D01*
X246985585Y-101143875D01*
X246954643Y-101148465D01*
X246923400Y-101150000D01*
X246210900Y-101150000D01*
X246179657Y-101148465D01*
X246148715Y-101143875D01*
X246118372Y-101136275D01*
X246088920Y-101125737D01*
X246060642Y-101112362D01*
X246033812Y-101096281D01*
X246008687Y-101077647D01*
X245985510Y-101056640D01*
X245964503Y-101033463D01*
X245945869Y-101008338D01*
X245929788Y-100981508D01*
X245916413Y-100953230D01*
X245905875Y-100923778D01*
X245898275Y-100893435D01*
X245893685Y-100862493D01*
X245892150Y-100831250D01*
X245892150Y-100193750D01*
X245893685Y-100162507D01*
X245898275Y-100131565D01*
X245905875Y-100101222D01*
X245916413Y-100071770D01*
X245929788Y-100043492D01*
X245945869Y-100016662D01*
X245964503Y-99991537D01*
X245985510Y-99968360D01*
X246008687Y-99947353D01*
X246033812Y-99928719D01*
X246060642Y-99912638D01*
X246088920Y-99899263D01*
X246118372Y-99888725D01*
X246148715Y-99881125D01*
X246179657Y-99876535D01*
X246210900Y-99875000D01*
X246923400Y-99875000D01*
X246954643Y-99876535D01*
X246954643Y-99876535D01*
G37*
D12*
X246567150Y-100512500D03*
D11*
G36*
X230287943Y-101451535D02*
G01*
X230318885Y-101456125D01*
X230349228Y-101463725D01*
X230378680Y-101474263D01*
X230406958Y-101487638D01*
X230433788Y-101503719D01*
X230458913Y-101522353D01*
X230482090Y-101543360D01*
X230503097Y-101566537D01*
X230521731Y-101591662D01*
X230537812Y-101618492D01*
X230551187Y-101646770D01*
X230561725Y-101676222D01*
X230569325Y-101706565D01*
X230573915Y-101737507D01*
X230575450Y-101768750D01*
X230575450Y-102406250D01*
X230573915Y-102437493D01*
X230569325Y-102468435D01*
X230561725Y-102498778D01*
X230551187Y-102528230D01*
X230537812Y-102556508D01*
X230521731Y-102583338D01*
X230503097Y-102608463D01*
X230482090Y-102631640D01*
X230458913Y-102652647D01*
X230433788Y-102671281D01*
X230406958Y-102687362D01*
X230378680Y-102700737D01*
X230349228Y-102711275D01*
X230318885Y-102718875D01*
X230287943Y-102723465D01*
X230256700Y-102725000D01*
X229544200Y-102725000D01*
X229512957Y-102723465D01*
X229482015Y-102718875D01*
X229451672Y-102711275D01*
X229422220Y-102700737D01*
X229393942Y-102687362D01*
X229367112Y-102671281D01*
X229341987Y-102652647D01*
X229318810Y-102631640D01*
X229297803Y-102608463D01*
X229279169Y-102583338D01*
X229263088Y-102556508D01*
X229249713Y-102528230D01*
X229239175Y-102498778D01*
X229231575Y-102468435D01*
X229226985Y-102437493D01*
X229225450Y-102406250D01*
X229225450Y-101768750D01*
X229226985Y-101737507D01*
X229231575Y-101706565D01*
X229239175Y-101676222D01*
X229249713Y-101646770D01*
X229263088Y-101618492D01*
X229279169Y-101591662D01*
X229297803Y-101566537D01*
X229318810Y-101543360D01*
X229341987Y-101522353D01*
X229367112Y-101503719D01*
X229393942Y-101487638D01*
X229422220Y-101474263D01*
X229451672Y-101463725D01*
X229482015Y-101456125D01*
X229512957Y-101451535D01*
X229544200Y-101450000D01*
X230256700Y-101450000D01*
X230287943Y-101451535D01*
X230287943Y-101451535D01*
G37*
D12*
X229900450Y-102087500D03*
D11*
G36*
X230287943Y-99876535D02*
G01*
X230318885Y-99881125D01*
X230349228Y-99888725D01*
X230378680Y-99899263D01*
X230406958Y-99912638D01*
X230433788Y-99928719D01*
X230458913Y-99947353D01*
X230482090Y-99968360D01*
X230503097Y-99991537D01*
X230521731Y-100016662D01*
X230537812Y-100043492D01*
X230551187Y-100071770D01*
X230561725Y-100101222D01*
X230569325Y-100131565D01*
X230573915Y-100162507D01*
X230575450Y-100193750D01*
X230575450Y-100831250D01*
X230573915Y-100862493D01*
X230569325Y-100893435D01*
X230561725Y-100923778D01*
X230551187Y-100953230D01*
X230537812Y-100981508D01*
X230521731Y-101008338D01*
X230503097Y-101033463D01*
X230482090Y-101056640D01*
X230458913Y-101077647D01*
X230433788Y-101096281D01*
X230406958Y-101112362D01*
X230378680Y-101125737D01*
X230349228Y-101136275D01*
X230318885Y-101143875D01*
X230287943Y-101148465D01*
X230256700Y-101150000D01*
X229544200Y-101150000D01*
X229512957Y-101148465D01*
X229482015Y-101143875D01*
X229451672Y-101136275D01*
X229422220Y-101125737D01*
X229393942Y-101112362D01*
X229367112Y-101096281D01*
X229341987Y-101077647D01*
X229318810Y-101056640D01*
X229297803Y-101033463D01*
X229279169Y-101008338D01*
X229263088Y-100981508D01*
X229249713Y-100953230D01*
X229239175Y-100923778D01*
X229231575Y-100893435D01*
X229226985Y-100862493D01*
X229225450Y-100831250D01*
X229225450Y-100193750D01*
X229226985Y-100162507D01*
X229231575Y-100131565D01*
X229239175Y-100101222D01*
X229249713Y-100071770D01*
X229263088Y-100043492D01*
X229279169Y-100016662D01*
X229297803Y-99991537D01*
X229318810Y-99968360D01*
X229341987Y-99947353D01*
X229367112Y-99928719D01*
X229393942Y-99912638D01*
X229422220Y-99899263D01*
X229451672Y-99888725D01*
X229482015Y-99881125D01*
X229512957Y-99876535D01*
X229544200Y-99875000D01*
X230256700Y-99875000D01*
X230287943Y-99876535D01*
X230287943Y-99876535D01*
G37*
D12*
X229900450Y-100512500D03*
D11*
G36*
X213621243Y-101451535D02*
G01*
X213652185Y-101456125D01*
X213682528Y-101463725D01*
X213711980Y-101474263D01*
X213740258Y-101487638D01*
X213767088Y-101503719D01*
X213792213Y-101522353D01*
X213815390Y-101543360D01*
X213836397Y-101566537D01*
X213855031Y-101591662D01*
X213871112Y-101618492D01*
X213884487Y-101646770D01*
X213895025Y-101676222D01*
X213902625Y-101706565D01*
X213907215Y-101737507D01*
X213908750Y-101768750D01*
X213908750Y-102406250D01*
X213907215Y-102437493D01*
X213902625Y-102468435D01*
X213895025Y-102498778D01*
X213884487Y-102528230D01*
X213871112Y-102556508D01*
X213855031Y-102583338D01*
X213836397Y-102608463D01*
X213815390Y-102631640D01*
X213792213Y-102652647D01*
X213767088Y-102671281D01*
X213740258Y-102687362D01*
X213711980Y-102700737D01*
X213682528Y-102711275D01*
X213652185Y-102718875D01*
X213621243Y-102723465D01*
X213590000Y-102725000D01*
X212877500Y-102725000D01*
X212846257Y-102723465D01*
X212815315Y-102718875D01*
X212784972Y-102711275D01*
X212755520Y-102700737D01*
X212727242Y-102687362D01*
X212700412Y-102671281D01*
X212675287Y-102652647D01*
X212652110Y-102631640D01*
X212631103Y-102608463D01*
X212612469Y-102583338D01*
X212596388Y-102556508D01*
X212583013Y-102528230D01*
X212572475Y-102498778D01*
X212564875Y-102468435D01*
X212560285Y-102437493D01*
X212558750Y-102406250D01*
X212558750Y-101768750D01*
X212560285Y-101737507D01*
X212564875Y-101706565D01*
X212572475Y-101676222D01*
X212583013Y-101646770D01*
X212596388Y-101618492D01*
X212612469Y-101591662D01*
X212631103Y-101566537D01*
X212652110Y-101543360D01*
X212675287Y-101522353D01*
X212700412Y-101503719D01*
X212727242Y-101487638D01*
X212755520Y-101474263D01*
X212784972Y-101463725D01*
X212815315Y-101456125D01*
X212846257Y-101451535D01*
X212877500Y-101450000D01*
X213590000Y-101450000D01*
X213621243Y-101451535D01*
X213621243Y-101451535D01*
G37*
D12*
X213233750Y-102087500D03*
D11*
G36*
X213621243Y-99876535D02*
G01*
X213652185Y-99881125D01*
X213682528Y-99888725D01*
X213711980Y-99899263D01*
X213740258Y-99912638D01*
X213767088Y-99928719D01*
X213792213Y-99947353D01*
X213815390Y-99968360D01*
X213836397Y-99991537D01*
X213855031Y-100016662D01*
X213871112Y-100043492D01*
X213884487Y-100071770D01*
X213895025Y-100101222D01*
X213902625Y-100131565D01*
X213907215Y-100162507D01*
X213908750Y-100193750D01*
X213908750Y-100831250D01*
X213907215Y-100862493D01*
X213902625Y-100893435D01*
X213895025Y-100923778D01*
X213884487Y-100953230D01*
X213871112Y-100981508D01*
X213855031Y-101008338D01*
X213836397Y-101033463D01*
X213815390Y-101056640D01*
X213792213Y-101077647D01*
X213767088Y-101096281D01*
X213740258Y-101112362D01*
X213711980Y-101125737D01*
X213682528Y-101136275D01*
X213652185Y-101143875D01*
X213621243Y-101148465D01*
X213590000Y-101150000D01*
X212877500Y-101150000D01*
X212846257Y-101148465D01*
X212815315Y-101143875D01*
X212784972Y-101136275D01*
X212755520Y-101125737D01*
X212727242Y-101112362D01*
X212700412Y-101096281D01*
X212675287Y-101077647D01*
X212652110Y-101056640D01*
X212631103Y-101033463D01*
X212612469Y-101008338D01*
X212596388Y-100981508D01*
X212583013Y-100953230D01*
X212572475Y-100923778D01*
X212564875Y-100893435D01*
X212560285Y-100862493D01*
X212558750Y-100831250D01*
X212558750Y-100193750D01*
X212560285Y-100162507D01*
X212564875Y-100131565D01*
X212572475Y-100101222D01*
X212583013Y-100071770D01*
X212596388Y-100043492D01*
X212612469Y-100016662D01*
X212631103Y-99991537D01*
X212652110Y-99968360D01*
X212675287Y-99947353D01*
X212700412Y-99928719D01*
X212727242Y-99912638D01*
X212755520Y-99899263D01*
X212784972Y-99888725D01*
X212815315Y-99881125D01*
X212846257Y-99876535D01*
X212877500Y-99875000D01*
X213590000Y-99875000D01*
X213621243Y-99876535D01*
X213621243Y-99876535D01*
G37*
D12*
X213233750Y-100512500D03*
D11*
G36*
X196954543Y-101451535D02*
G01*
X196985485Y-101456125D01*
X197015828Y-101463725D01*
X197045280Y-101474263D01*
X197073558Y-101487638D01*
X197100388Y-101503719D01*
X197125513Y-101522353D01*
X197148690Y-101543360D01*
X197169697Y-101566537D01*
X197188331Y-101591662D01*
X197204412Y-101618492D01*
X197217787Y-101646770D01*
X197228325Y-101676222D01*
X197235925Y-101706565D01*
X197240515Y-101737507D01*
X197242050Y-101768750D01*
X197242050Y-102406250D01*
X197240515Y-102437493D01*
X197235925Y-102468435D01*
X197228325Y-102498778D01*
X197217787Y-102528230D01*
X197204412Y-102556508D01*
X197188331Y-102583338D01*
X197169697Y-102608463D01*
X197148690Y-102631640D01*
X197125513Y-102652647D01*
X197100388Y-102671281D01*
X197073558Y-102687362D01*
X197045280Y-102700737D01*
X197015828Y-102711275D01*
X196985485Y-102718875D01*
X196954543Y-102723465D01*
X196923300Y-102725000D01*
X196210800Y-102725000D01*
X196179557Y-102723465D01*
X196148615Y-102718875D01*
X196118272Y-102711275D01*
X196088820Y-102700737D01*
X196060542Y-102687362D01*
X196033712Y-102671281D01*
X196008587Y-102652647D01*
X195985410Y-102631640D01*
X195964403Y-102608463D01*
X195945769Y-102583338D01*
X195929688Y-102556508D01*
X195916313Y-102528230D01*
X195905775Y-102498778D01*
X195898175Y-102468435D01*
X195893585Y-102437493D01*
X195892050Y-102406250D01*
X195892050Y-101768750D01*
X195893585Y-101737507D01*
X195898175Y-101706565D01*
X195905775Y-101676222D01*
X195916313Y-101646770D01*
X195929688Y-101618492D01*
X195945769Y-101591662D01*
X195964403Y-101566537D01*
X195985410Y-101543360D01*
X196008587Y-101522353D01*
X196033712Y-101503719D01*
X196060542Y-101487638D01*
X196088820Y-101474263D01*
X196118272Y-101463725D01*
X196148615Y-101456125D01*
X196179557Y-101451535D01*
X196210800Y-101450000D01*
X196923300Y-101450000D01*
X196954543Y-101451535D01*
X196954543Y-101451535D01*
G37*
D12*
X196567050Y-102087500D03*
D11*
G36*
X196954543Y-99876535D02*
G01*
X196985485Y-99881125D01*
X197015828Y-99888725D01*
X197045280Y-99899263D01*
X197073558Y-99912638D01*
X197100388Y-99928719D01*
X197125513Y-99947353D01*
X197148690Y-99968360D01*
X197169697Y-99991537D01*
X197188331Y-100016662D01*
X197204412Y-100043492D01*
X197217787Y-100071770D01*
X197228325Y-100101222D01*
X197235925Y-100131565D01*
X197240515Y-100162507D01*
X197242050Y-100193750D01*
X197242050Y-100831250D01*
X197240515Y-100862493D01*
X197235925Y-100893435D01*
X197228325Y-100923778D01*
X197217787Y-100953230D01*
X197204412Y-100981508D01*
X197188331Y-101008338D01*
X197169697Y-101033463D01*
X197148690Y-101056640D01*
X197125513Y-101077647D01*
X197100388Y-101096281D01*
X197073558Y-101112362D01*
X197045280Y-101125737D01*
X197015828Y-101136275D01*
X196985485Y-101143875D01*
X196954543Y-101148465D01*
X196923300Y-101150000D01*
X196210800Y-101150000D01*
X196179557Y-101148465D01*
X196148615Y-101143875D01*
X196118272Y-101136275D01*
X196088820Y-101125737D01*
X196060542Y-101112362D01*
X196033712Y-101096281D01*
X196008587Y-101077647D01*
X195985410Y-101056640D01*
X195964403Y-101033463D01*
X195945769Y-101008338D01*
X195929688Y-100981508D01*
X195916313Y-100953230D01*
X195905775Y-100923778D01*
X195898175Y-100893435D01*
X195893585Y-100862493D01*
X195892050Y-100831250D01*
X195892050Y-100193750D01*
X195893585Y-100162507D01*
X195898175Y-100131565D01*
X195905775Y-100101222D01*
X195916313Y-100071770D01*
X195929688Y-100043492D01*
X195945769Y-100016662D01*
X195964403Y-99991537D01*
X195985410Y-99968360D01*
X196008587Y-99947353D01*
X196033712Y-99928719D01*
X196060542Y-99912638D01*
X196088820Y-99899263D01*
X196118272Y-99888725D01*
X196148615Y-99881125D01*
X196179557Y-99876535D01*
X196210800Y-99875000D01*
X196923300Y-99875000D01*
X196954543Y-99876535D01*
X196954543Y-99876535D01*
G37*
D12*
X196567050Y-100512500D03*
D11*
G36*
X180287843Y-101451535D02*
G01*
X180318785Y-101456125D01*
X180349128Y-101463725D01*
X180378580Y-101474263D01*
X180406858Y-101487638D01*
X180433688Y-101503719D01*
X180458813Y-101522353D01*
X180481990Y-101543360D01*
X180502997Y-101566537D01*
X180521631Y-101591662D01*
X180537712Y-101618492D01*
X180551087Y-101646770D01*
X180561625Y-101676222D01*
X180569225Y-101706565D01*
X180573815Y-101737507D01*
X180575350Y-101768750D01*
X180575350Y-102406250D01*
X180573815Y-102437493D01*
X180569225Y-102468435D01*
X180561625Y-102498778D01*
X180551087Y-102528230D01*
X180537712Y-102556508D01*
X180521631Y-102583338D01*
X180502997Y-102608463D01*
X180481990Y-102631640D01*
X180458813Y-102652647D01*
X180433688Y-102671281D01*
X180406858Y-102687362D01*
X180378580Y-102700737D01*
X180349128Y-102711275D01*
X180318785Y-102718875D01*
X180287843Y-102723465D01*
X180256600Y-102725000D01*
X179544100Y-102725000D01*
X179512857Y-102723465D01*
X179481915Y-102718875D01*
X179451572Y-102711275D01*
X179422120Y-102700737D01*
X179393842Y-102687362D01*
X179367012Y-102671281D01*
X179341887Y-102652647D01*
X179318710Y-102631640D01*
X179297703Y-102608463D01*
X179279069Y-102583338D01*
X179262988Y-102556508D01*
X179249613Y-102528230D01*
X179239075Y-102498778D01*
X179231475Y-102468435D01*
X179226885Y-102437493D01*
X179225350Y-102406250D01*
X179225350Y-101768750D01*
X179226885Y-101737507D01*
X179231475Y-101706565D01*
X179239075Y-101676222D01*
X179249613Y-101646770D01*
X179262988Y-101618492D01*
X179279069Y-101591662D01*
X179297703Y-101566537D01*
X179318710Y-101543360D01*
X179341887Y-101522353D01*
X179367012Y-101503719D01*
X179393842Y-101487638D01*
X179422120Y-101474263D01*
X179451572Y-101463725D01*
X179481915Y-101456125D01*
X179512857Y-101451535D01*
X179544100Y-101450000D01*
X180256600Y-101450000D01*
X180287843Y-101451535D01*
X180287843Y-101451535D01*
G37*
D12*
X179900350Y-102087500D03*
D11*
G36*
X180287843Y-99876535D02*
G01*
X180318785Y-99881125D01*
X180349128Y-99888725D01*
X180378580Y-99899263D01*
X180406858Y-99912638D01*
X180433688Y-99928719D01*
X180458813Y-99947353D01*
X180481990Y-99968360D01*
X180502997Y-99991537D01*
X180521631Y-100016662D01*
X180537712Y-100043492D01*
X180551087Y-100071770D01*
X180561625Y-100101222D01*
X180569225Y-100131565D01*
X180573815Y-100162507D01*
X180575350Y-100193750D01*
X180575350Y-100831250D01*
X180573815Y-100862493D01*
X180569225Y-100893435D01*
X180561625Y-100923778D01*
X180551087Y-100953230D01*
X180537712Y-100981508D01*
X180521631Y-101008338D01*
X180502997Y-101033463D01*
X180481990Y-101056640D01*
X180458813Y-101077647D01*
X180433688Y-101096281D01*
X180406858Y-101112362D01*
X180378580Y-101125737D01*
X180349128Y-101136275D01*
X180318785Y-101143875D01*
X180287843Y-101148465D01*
X180256600Y-101150000D01*
X179544100Y-101150000D01*
X179512857Y-101148465D01*
X179481915Y-101143875D01*
X179451572Y-101136275D01*
X179422120Y-101125737D01*
X179393842Y-101112362D01*
X179367012Y-101096281D01*
X179341887Y-101077647D01*
X179318710Y-101056640D01*
X179297703Y-101033463D01*
X179279069Y-101008338D01*
X179262988Y-100981508D01*
X179249613Y-100953230D01*
X179239075Y-100923778D01*
X179231475Y-100893435D01*
X179226885Y-100862493D01*
X179225350Y-100831250D01*
X179225350Y-100193750D01*
X179226885Y-100162507D01*
X179231475Y-100131565D01*
X179239075Y-100101222D01*
X179249613Y-100071770D01*
X179262988Y-100043492D01*
X179279069Y-100016662D01*
X179297703Y-99991537D01*
X179318710Y-99968360D01*
X179341887Y-99947353D01*
X179367012Y-99928719D01*
X179393842Y-99912638D01*
X179422120Y-99899263D01*
X179451572Y-99888725D01*
X179481915Y-99881125D01*
X179512857Y-99876535D01*
X179544100Y-99875000D01*
X180256600Y-99875000D01*
X180287843Y-99876535D01*
X180287843Y-99876535D01*
G37*
D12*
X179900350Y-100512500D03*
D11*
G36*
X163621143Y-101451535D02*
G01*
X163652085Y-101456125D01*
X163682428Y-101463725D01*
X163711880Y-101474263D01*
X163740158Y-101487638D01*
X163766988Y-101503719D01*
X163792113Y-101522353D01*
X163815290Y-101543360D01*
X163836297Y-101566537D01*
X163854931Y-101591662D01*
X163871012Y-101618492D01*
X163884387Y-101646770D01*
X163894925Y-101676222D01*
X163902525Y-101706565D01*
X163907115Y-101737507D01*
X163908650Y-101768750D01*
X163908650Y-102406250D01*
X163907115Y-102437493D01*
X163902525Y-102468435D01*
X163894925Y-102498778D01*
X163884387Y-102528230D01*
X163871012Y-102556508D01*
X163854931Y-102583338D01*
X163836297Y-102608463D01*
X163815290Y-102631640D01*
X163792113Y-102652647D01*
X163766988Y-102671281D01*
X163740158Y-102687362D01*
X163711880Y-102700737D01*
X163682428Y-102711275D01*
X163652085Y-102718875D01*
X163621143Y-102723465D01*
X163589900Y-102725000D01*
X162877400Y-102725000D01*
X162846157Y-102723465D01*
X162815215Y-102718875D01*
X162784872Y-102711275D01*
X162755420Y-102700737D01*
X162727142Y-102687362D01*
X162700312Y-102671281D01*
X162675187Y-102652647D01*
X162652010Y-102631640D01*
X162631003Y-102608463D01*
X162612369Y-102583338D01*
X162596288Y-102556508D01*
X162582913Y-102528230D01*
X162572375Y-102498778D01*
X162564775Y-102468435D01*
X162560185Y-102437493D01*
X162558650Y-102406250D01*
X162558650Y-101768750D01*
X162560185Y-101737507D01*
X162564775Y-101706565D01*
X162572375Y-101676222D01*
X162582913Y-101646770D01*
X162596288Y-101618492D01*
X162612369Y-101591662D01*
X162631003Y-101566537D01*
X162652010Y-101543360D01*
X162675187Y-101522353D01*
X162700312Y-101503719D01*
X162727142Y-101487638D01*
X162755420Y-101474263D01*
X162784872Y-101463725D01*
X162815215Y-101456125D01*
X162846157Y-101451535D01*
X162877400Y-101450000D01*
X163589900Y-101450000D01*
X163621143Y-101451535D01*
X163621143Y-101451535D01*
G37*
D12*
X163233650Y-102087500D03*
D11*
G36*
X163621143Y-99876535D02*
G01*
X163652085Y-99881125D01*
X163682428Y-99888725D01*
X163711880Y-99899263D01*
X163740158Y-99912638D01*
X163766988Y-99928719D01*
X163792113Y-99947353D01*
X163815290Y-99968360D01*
X163836297Y-99991537D01*
X163854931Y-100016662D01*
X163871012Y-100043492D01*
X163884387Y-100071770D01*
X163894925Y-100101222D01*
X163902525Y-100131565D01*
X163907115Y-100162507D01*
X163908650Y-100193750D01*
X163908650Y-100831250D01*
X163907115Y-100862493D01*
X163902525Y-100893435D01*
X163894925Y-100923778D01*
X163884387Y-100953230D01*
X163871012Y-100981508D01*
X163854931Y-101008338D01*
X163836297Y-101033463D01*
X163815290Y-101056640D01*
X163792113Y-101077647D01*
X163766988Y-101096281D01*
X163740158Y-101112362D01*
X163711880Y-101125737D01*
X163682428Y-101136275D01*
X163652085Y-101143875D01*
X163621143Y-101148465D01*
X163589900Y-101150000D01*
X162877400Y-101150000D01*
X162846157Y-101148465D01*
X162815215Y-101143875D01*
X162784872Y-101136275D01*
X162755420Y-101125737D01*
X162727142Y-101112362D01*
X162700312Y-101096281D01*
X162675187Y-101077647D01*
X162652010Y-101056640D01*
X162631003Y-101033463D01*
X162612369Y-101008338D01*
X162596288Y-100981508D01*
X162582913Y-100953230D01*
X162572375Y-100923778D01*
X162564775Y-100893435D01*
X162560185Y-100862493D01*
X162558650Y-100831250D01*
X162558650Y-100193750D01*
X162560185Y-100162507D01*
X162564775Y-100131565D01*
X162572375Y-100101222D01*
X162582913Y-100071770D01*
X162596288Y-100043492D01*
X162612369Y-100016662D01*
X162631003Y-99991537D01*
X162652010Y-99968360D01*
X162675187Y-99947353D01*
X162700312Y-99928719D01*
X162727142Y-99912638D01*
X162755420Y-99899263D01*
X162784872Y-99888725D01*
X162815215Y-99881125D01*
X162846157Y-99876535D01*
X162877400Y-99875000D01*
X163589900Y-99875000D01*
X163621143Y-99876535D01*
X163621143Y-99876535D01*
G37*
D12*
X163233650Y-100512500D03*
D11*
G36*
X146954443Y-101451535D02*
G01*
X146985385Y-101456125D01*
X147015728Y-101463725D01*
X147045180Y-101474263D01*
X147073458Y-101487638D01*
X147100288Y-101503719D01*
X147125413Y-101522353D01*
X147148590Y-101543360D01*
X147169597Y-101566537D01*
X147188231Y-101591662D01*
X147204312Y-101618492D01*
X147217687Y-101646770D01*
X147228225Y-101676222D01*
X147235825Y-101706565D01*
X147240415Y-101737507D01*
X147241950Y-101768750D01*
X147241950Y-102406250D01*
X147240415Y-102437493D01*
X147235825Y-102468435D01*
X147228225Y-102498778D01*
X147217687Y-102528230D01*
X147204312Y-102556508D01*
X147188231Y-102583338D01*
X147169597Y-102608463D01*
X147148590Y-102631640D01*
X147125413Y-102652647D01*
X147100288Y-102671281D01*
X147073458Y-102687362D01*
X147045180Y-102700737D01*
X147015728Y-102711275D01*
X146985385Y-102718875D01*
X146954443Y-102723465D01*
X146923200Y-102725000D01*
X146210700Y-102725000D01*
X146179457Y-102723465D01*
X146148515Y-102718875D01*
X146118172Y-102711275D01*
X146088720Y-102700737D01*
X146060442Y-102687362D01*
X146033612Y-102671281D01*
X146008487Y-102652647D01*
X145985310Y-102631640D01*
X145964303Y-102608463D01*
X145945669Y-102583338D01*
X145929588Y-102556508D01*
X145916213Y-102528230D01*
X145905675Y-102498778D01*
X145898075Y-102468435D01*
X145893485Y-102437493D01*
X145891950Y-102406250D01*
X145891950Y-101768750D01*
X145893485Y-101737507D01*
X145898075Y-101706565D01*
X145905675Y-101676222D01*
X145916213Y-101646770D01*
X145929588Y-101618492D01*
X145945669Y-101591662D01*
X145964303Y-101566537D01*
X145985310Y-101543360D01*
X146008487Y-101522353D01*
X146033612Y-101503719D01*
X146060442Y-101487638D01*
X146088720Y-101474263D01*
X146118172Y-101463725D01*
X146148515Y-101456125D01*
X146179457Y-101451535D01*
X146210700Y-101450000D01*
X146923200Y-101450000D01*
X146954443Y-101451535D01*
X146954443Y-101451535D01*
G37*
D12*
X146566950Y-102087500D03*
D11*
G36*
X146954443Y-99876535D02*
G01*
X146985385Y-99881125D01*
X147015728Y-99888725D01*
X147045180Y-99899263D01*
X147073458Y-99912638D01*
X147100288Y-99928719D01*
X147125413Y-99947353D01*
X147148590Y-99968360D01*
X147169597Y-99991537D01*
X147188231Y-100016662D01*
X147204312Y-100043492D01*
X147217687Y-100071770D01*
X147228225Y-100101222D01*
X147235825Y-100131565D01*
X147240415Y-100162507D01*
X147241950Y-100193750D01*
X147241950Y-100831250D01*
X147240415Y-100862493D01*
X147235825Y-100893435D01*
X147228225Y-100923778D01*
X147217687Y-100953230D01*
X147204312Y-100981508D01*
X147188231Y-101008338D01*
X147169597Y-101033463D01*
X147148590Y-101056640D01*
X147125413Y-101077647D01*
X147100288Y-101096281D01*
X147073458Y-101112362D01*
X147045180Y-101125737D01*
X147015728Y-101136275D01*
X146985385Y-101143875D01*
X146954443Y-101148465D01*
X146923200Y-101150000D01*
X146210700Y-101150000D01*
X146179457Y-101148465D01*
X146148515Y-101143875D01*
X146118172Y-101136275D01*
X146088720Y-101125737D01*
X146060442Y-101112362D01*
X146033612Y-101096281D01*
X146008487Y-101077647D01*
X145985310Y-101056640D01*
X145964303Y-101033463D01*
X145945669Y-101008338D01*
X145929588Y-100981508D01*
X145916213Y-100953230D01*
X145905675Y-100923778D01*
X145898075Y-100893435D01*
X145893485Y-100862493D01*
X145891950Y-100831250D01*
X145891950Y-100193750D01*
X145893485Y-100162507D01*
X145898075Y-100131565D01*
X145905675Y-100101222D01*
X145916213Y-100071770D01*
X145929588Y-100043492D01*
X145945669Y-100016662D01*
X145964303Y-99991537D01*
X145985310Y-99968360D01*
X146008487Y-99947353D01*
X146033612Y-99928719D01*
X146060442Y-99912638D01*
X146088720Y-99899263D01*
X146118172Y-99888725D01*
X146148515Y-99881125D01*
X146179457Y-99876535D01*
X146210700Y-99875000D01*
X146923200Y-99875000D01*
X146954443Y-99876535D01*
X146954443Y-99876535D01*
G37*
D12*
X146566950Y-100512500D03*
D11*
G36*
X130287743Y-101451535D02*
G01*
X130318685Y-101456125D01*
X130349028Y-101463725D01*
X130378480Y-101474263D01*
X130406758Y-101487638D01*
X130433588Y-101503719D01*
X130458713Y-101522353D01*
X130481890Y-101543360D01*
X130502897Y-101566537D01*
X130521531Y-101591662D01*
X130537612Y-101618492D01*
X130550987Y-101646770D01*
X130561525Y-101676222D01*
X130569125Y-101706565D01*
X130573715Y-101737507D01*
X130575250Y-101768750D01*
X130575250Y-102406250D01*
X130573715Y-102437493D01*
X130569125Y-102468435D01*
X130561525Y-102498778D01*
X130550987Y-102528230D01*
X130537612Y-102556508D01*
X130521531Y-102583338D01*
X130502897Y-102608463D01*
X130481890Y-102631640D01*
X130458713Y-102652647D01*
X130433588Y-102671281D01*
X130406758Y-102687362D01*
X130378480Y-102700737D01*
X130349028Y-102711275D01*
X130318685Y-102718875D01*
X130287743Y-102723465D01*
X130256500Y-102725000D01*
X129544000Y-102725000D01*
X129512757Y-102723465D01*
X129481815Y-102718875D01*
X129451472Y-102711275D01*
X129422020Y-102700737D01*
X129393742Y-102687362D01*
X129366912Y-102671281D01*
X129341787Y-102652647D01*
X129318610Y-102631640D01*
X129297603Y-102608463D01*
X129278969Y-102583338D01*
X129262888Y-102556508D01*
X129249513Y-102528230D01*
X129238975Y-102498778D01*
X129231375Y-102468435D01*
X129226785Y-102437493D01*
X129225250Y-102406250D01*
X129225250Y-101768750D01*
X129226785Y-101737507D01*
X129231375Y-101706565D01*
X129238975Y-101676222D01*
X129249513Y-101646770D01*
X129262888Y-101618492D01*
X129278969Y-101591662D01*
X129297603Y-101566537D01*
X129318610Y-101543360D01*
X129341787Y-101522353D01*
X129366912Y-101503719D01*
X129393742Y-101487638D01*
X129422020Y-101474263D01*
X129451472Y-101463725D01*
X129481815Y-101456125D01*
X129512757Y-101451535D01*
X129544000Y-101450000D01*
X130256500Y-101450000D01*
X130287743Y-101451535D01*
X130287743Y-101451535D01*
G37*
D12*
X129900250Y-102087500D03*
D11*
G36*
X130287743Y-99876535D02*
G01*
X130318685Y-99881125D01*
X130349028Y-99888725D01*
X130378480Y-99899263D01*
X130406758Y-99912638D01*
X130433588Y-99928719D01*
X130458713Y-99947353D01*
X130481890Y-99968360D01*
X130502897Y-99991537D01*
X130521531Y-100016662D01*
X130537612Y-100043492D01*
X130550987Y-100071770D01*
X130561525Y-100101222D01*
X130569125Y-100131565D01*
X130573715Y-100162507D01*
X130575250Y-100193750D01*
X130575250Y-100831250D01*
X130573715Y-100862493D01*
X130569125Y-100893435D01*
X130561525Y-100923778D01*
X130550987Y-100953230D01*
X130537612Y-100981508D01*
X130521531Y-101008338D01*
X130502897Y-101033463D01*
X130481890Y-101056640D01*
X130458713Y-101077647D01*
X130433588Y-101096281D01*
X130406758Y-101112362D01*
X130378480Y-101125737D01*
X130349028Y-101136275D01*
X130318685Y-101143875D01*
X130287743Y-101148465D01*
X130256500Y-101150000D01*
X129544000Y-101150000D01*
X129512757Y-101148465D01*
X129481815Y-101143875D01*
X129451472Y-101136275D01*
X129422020Y-101125737D01*
X129393742Y-101112362D01*
X129366912Y-101096281D01*
X129341787Y-101077647D01*
X129318610Y-101056640D01*
X129297603Y-101033463D01*
X129278969Y-101008338D01*
X129262888Y-100981508D01*
X129249513Y-100953230D01*
X129238975Y-100923778D01*
X129231375Y-100893435D01*
X129226785Y-100862493D01*
X129225250Y-100831250D01*
X129225250Y-100193750D01*
X129226785Y-100162507D01*
X129231375Y-100131565D01*
X129238975Y-100101222D01*
X129249513Y-100071770D01*
X129262888Y-100043492D01*
X129278969Y-100016662D01*
X129297603Y-99991537D01*
X129318610Y-99968360D01*
X129341787Y-99947353D01*
X129366912Y-99928719D01*
X129393742Y-99912638D01*
X129422020Y-99899263D01*
X129451472Y-99888725D01*
X129481815Y-99881125D01*
X129512757Y-99876535D01*
X129544000Y-99875000D01*
X130256500Y-99875000D01*
X130287743Y-99876535D01*
X130287743Y-99876535D01*
G37*
D12*
X129900250Y-100512500D03*
D11*
G36*
X113621043Y-101451535D02*
G01*
X113651985Y-101456125D01*
X113682328Y-101463725D01*
X113711780Y-101474263D01*
X113740058Y-101487638D01*
X113766888Y-101503719D01*
X113792013Y-101522353D01*
X113815190Y-101543360D01*
X113836197Y-101566537D01*
X113854831Y-101591662D01*
X113870912Y-101618492D01*
X113884287Y-101646770D01*
X113894825Y-101676222D01*
X113902425Y-101706565D01*
X113907015Y-101737507D01*
X113908550Y-101768750D01*
X113908550Y-102406250D01*
X113907015Y-102437493D01*
X113902425Y-102468435D01*
X113894825Y-102498778D01*
X113884287Y-102528230D01*
X113870912Y-102556508D01*
X113854831Y-102583338D01*
X113836197Y-102608463D01*
X113815190Y-102631640D01*
X113792013Y-102652647D01*
X113766888Y-102671281D01*
X113740058Y-102687362D01*
X113711780Y-102700737D01*
X113682328Y-102711275D01*
X113651985Y-102718875D01*
X113621043Y-102723465D01*
X113589800Y-102725000D01*
X112877300Y-102725000D01*
X112846057Y-102723465D01*
X112815115Y-102718875D01*
X112784772Y-102711275D01*
X112755320Y-102700737D01*
X112727042Y-102687362D01*
X112700212Y-102671281D01*
X112675087Y-102652647D01*
X112651910Y-102631640D01*
X112630903Y-102608463D01*
X112612269Y-102583338D01*
X112596188Y-102556508D01*
X112582813Y-102528230D01*
X112572275Y-102498778D01*
X112564675Y-102468435D01*
X112560085Y-102437493D01*
X112558550Y-102406250D01*
X112558550Y-101768750D01*
X112560085Y-101737507D01*
X112564675Y-101706565D01*
X112572275Y-101676222D01*
X112582813Y-101646770D01*
X112596188Y-101618492D01*
X112612269Y-101591662D01*
X112630903Y-101566537D01*
X112651910Y-101543360D01*
X112675087Y-101522353D01*
X112700212Y-101503719D01*
X112727042Y-101487638D01*
X112755320Y-101474263D01*
X112784772Y-101463725D01*
X112815115Y-101456125D01*
X112846057Y-101451535D01*
X112877300Y-101450000D01*
X113589800Y-101450000D01*
X113621043Y-101451535D01*
X113621043Y-101451535D01*
G37*
D12*
X113233550Y-102087500D03*
D11*
G36*
X113621043Y-99876535D02*
G01*
X113651985Y-99881125D01*
X113682328Y-99888725D01*
X113711780Y-99899263D01*
X113740058Y-99912638D01*
X113766888Y-99928719D01*
X113792013Y-99947353D01*
X113815190Y-99968360D01*
X113836197Y-99991537D01*
X113854831Y-100016662D01*
X113870912Y-100043492D01*
X113884287Y-100071770D01*
X113894825Y-100101222D01*
X113902425Y-100131565D01*
X113907015Y-100162507D01*
X113908550Y-100193750D01*
X113908550Y-100831250D01*
X113907015Y-100862493D01*
X113902425Y-100893435D01*
X113894825Y-100923778D01*
X113884287Y-100953230D01*
X113870912Y-100981508D01*
X113854831Y-101008338D01*
X113836197Y-101033463D01*
X113815190Y-101056640D01*
X113792013Y-101077647D01*
X113766888Y-101096281D01*
X113740058Y-101112362D01*
X113711780Y-101125737D01*
X113682328Y-101136275D01*
X113651985Y-101143875D01*
X113621043Y-101148465D01*
X113589800Y-101150000D01*
X112877300Y-101150000D01*
X112846057Y-101148465D01*
X112815115Y-101143875D01*
X112784772Y-101136275D01*
X112755320Y-101125737D01*
X112727042Y-101112362D01*
X112700212Y-101096281D01*
X112675087Y-101077647D01*
X112651910Y-101056640D01*
X112630903Y-101033463D01*
X112612269Y-101008338D01*
X112596188Y-100981508D01*
X112582813Y-100953230D01*
X112572275Y-100923778D01*
X112564675Y-100893435D01*
X112560085Y-100862493D01*
X112558550Y-100831250D01*
X112558550Y-100193750D01*
X112560085Y-100162507D01*
X112564675Y-100131565D01*
X112572275Y-100101222D01*
X112582813Y-100071770D01*
X112596188Y-100043492D01*
X112612269Y-100016662D01*
X112630903Y-99991537D01*
X112651910Y-99968360D01*
X112675087Y-99947353D01*
X112700212Y-99928719D01*
X112727042Y-99912638D01*
X112755320Y-99899263D01*
X112784772Y-99888725D01*
X112815115Y-99881125D01*
X112846057Y-99876535D01*
X112877300Y-99875000D01*
X113589800Y-99875000D01*
X113621043Y-99876535D01*
X113621043Y-99876535D01*
G37*
D12*
X113233550Y-100512500D03*
D11*
G36*
X96954343Y-101451535D02*
G01*
X96985285Y-101456125D01*
X97015628Y-101463725D01*
X97045080Y-101474263D01*
X97073358Y-101487638D01*
X97100188Y-101503719D01*
X97125313Y-101522353D01*
X97148490Y-101543360D01*
X97169497Y-101566537D01*
X97188131Y-101591662D01*
X97204212Y-101618492D01*
X97217587Y-101646770D01*
X97228125Y-101676222D01*
X97235725Y-101706565D01*
X97240315Y-101737507D01*
X97241850Y-101768750D01*
X97241850Y-102406250D01*
X97240315Y-102437493D01*
X97235725Y-102468435D01*
X97228125Y-102498778D01*
X97217587Y-102528230D01*
X97204212Y-102556508D01*
X97188131Y-102583338D01*
X97169497Y-102608463D01*
X97148490Y-102631640D01*
X97125313Y-102652647D01*
X97100188Y-102671281D01*
X97073358Y-102687362D01*
X97045080Y-102700737D01*
X97015628Y-102711275D01*
X96985285Y-102718875D01*
X96954343Y-102723465D01*
X96923100Y-102725000D01*
X96210600Y-102725000D01*
X96179357Y-102723465D01*
X96148415Y-102718875D01*
X96118072Y-102711275D01*
X96088620Y-102700737D01*
X96060342Y-102687362D01*
X96033512Y-102671281D01*
X96008387Y-102652647D01*
X95985210Y-102631640D01*
X95964203Y-102608463D01*
X95945569Y-102583338D01*
X95929488Y-102556508D01*
X95916113Y-102528230D01*
X95905575Y-102498778D01*
X95897975Y-102468435D01*
X95893385Y-102437493D01*
X95891850Y-102406250D01*
X95891850Y-101768750D01*
X95893385Y-101737507D01*
X95897975Y-101706565D01*
X95905575Y-101676222D01*
X95916113Y-101646770D01*
X95929488Y-101618492D01*
X95945569Y-101591662D01*
X95964203Y-101566537D01*
X95985210Y-101543360D01*
X96008387Y-101522353D01*
X96033512Y-101503719D01*
X96060342Y-101487638D01*
X96088620Y-101474263D01*
X96118072Y-101463725D01*
X96148415Y-101456125D01*
X96179357Y-101451535D01*
X96210600Y-101450000D01*
X96923100Y-101450000D01*
X96954343Y-101451535D01*
X96954343Y-101451535D01*
G37*
D12*
X96566850Y-102087500D03*
D11*
G36*
X96954343Y-99876535D02*
G01*
X96985285Y-99881125D01*
X97015628Y-99888725D01*
X97045080Y-99899263D01*
X97073358Y-99912638D01*
X97100188Y-99928719D01*
X97125313Y-99947353D01*
X97148490Y-99968360D01*
X97169497Y-99991537D01*
X97188131Y-100016662D01*
X97204212Y-100043492D01*
X97217587Y-100071770D01*
X97228125Y-100101222D01*
X97235725Y-100131565D01*
X97240315Y-100162507D01*
X97241850Y-100193750D01*
X97241850Y-100831250D01*
X97240315Y-100862493D01*
X97235725Y-100893435D01*
X97228125Y-100923778D01*
X97217587Y-100953230D01*
X97204212Y-100981508D01*
X97188131Y-101008338D01*
X97169497Y-101033463D01*
X97148490Y-101056640D01*
X97125313Y-101077647D01*
X97100188Y-101096281D01*
X97073358Y-101112362D01*
X97045080Y-101125737D01*
X97015628Y-101136275D01*
X96985285Y-101143875D01*
X96954343Y-101148465D01*
X96923100Y-101150000D01*
X96210600Y-101150000D01*
X96179357Y-101148465D01*
X96148415Y-101143875D01*
X96118072Y-101136275D01*
X96088620Y-101125737D01*
X96060342Y-101112362D01*
X96033512Y-101096281D01*
X96008387Y-101077647D01*
X95985210Y-101056640D01*
X95964203Y-101033463D01*
X95945569Y-101008338D01*
X95929488Y-100981508D01*
X95916113Y-100953230D01*
X95905575Y-100923778D01*
X95897975Y-100893435D01*
X95893385Y-100862493D01*
X95891850Y-100831250D01*
X95891850Y-100193750D01*
X95893385Y-100162507D01*
X95897975Y-100131565D01*
X95905575Y-100101222D01*
X95916113Y-100071770D01*
X95929488Y-100043492D01*
X95945569Y-100016662D01*
X95964203Y-99991537D01*
X95985210Y-99968360D01*
X96008387Y-99947353D01*
X96033512Y-99928719D01*
X96060342Y-99912638D01*
X96088620Y-99899263D01*
X96118072Y-99888725D01*
X96148415Y-99881125D01*
X96179357Y-99876535D01*
X96210600Y-99875000D01*
X96923100Y-99875000D01*
X96954343Y-99876535D01*
X96954343Y-99876535D01*
G37*
D12*
X96566850Y-100512500D03*
D11*
G36*
X80287643Y-101451535D02*
G01*
X80318585Y-101456125D01*
X80348928Y-101463725D01*
X80378380Y-101474263D01*
X80406658Y-101487638D01*
X80433488Y-101503719D01*
X80458613Y-101522353D01*
X80481790Y-101543360D01*
X80502797Y-101566537D01*
X80521431Y-101591662D01*
X80537512Y-101618492D01*
X80550887Y-101646770D01*
X80561425Y-101676222D01*
X80569025Y-101706565D01*
X80573615Y-101737507D01*
X80575150Y-101768750D01*
X80575150Y-102406250D01*
X80573615Y-102437493D01*
X80569025Y-102468435D01*
X80561425Y-102498778D01*
X80550887Y-102528230D01*
X80537512Y-102556508D01*
X80521431Y-102583338D01*
X80502797Y-102608463D01*
X80481790Y-102631640D01*
X80458613Y-102652647D01*
X80433488Y-102671281D01*
X80406658Y-102687362D01*
X80378380Y-102700737D01*
X80348928Y-102711275D01*
X80318585Y-102718875D01*
X80287643Y-102723465D01*
X80256400Y-102725000D01*
X79543900Y-102725000D01*
X79512657Y-102723465D01*
X79481715Y-102718875D01*
X79451372Y-102711275D01*
X79421920Y-102700737D01*
X79393642Y-102687362D01*
X79366812Y-102671281D01*
X79341687Y-102652647D01*
X79318510Y-102631640D01*
X79297503Y-102608463D01*
X79278869Y-102583338D01*
X79262788Y-102556508D01*
X79249413Y-102528230D01*
X79238875Y-102498778D01*
X79231275Y-102468435D01*
X79226685Y-102437493D01*
X79225150Y-102406250D01*
X79225150Y-101768750D01*
X79226685Y-101737507D01*
X79231275Y-101706565D01*
X79238875Y-101676222D01*
X79249413Y-101646770D01*
X79262788Y-101618492D01*
X79278869Y-101591662D01*
X79297503Y-101566537D01*
X79318510Y-101543360D01*
X79341687Y-101522353D01*
X79366812Y-101503719D01*
X79393642Y-101487638D01*
X79421920Y-101474263D01*
X79451372Y-101463725D01*
X79481715Y-101456125D01*
X79512657Y-101451535D01*
X79543900Y-101450000D01*
X80256400Y-101450000D01*
X80287643Y-101451535D01*
X80287643Y-101451535D01*
G37*
D12*
X79900150Y-102087500D03*
D11*
G36*
X80287643Y-99876535D02*
G01*
X80318585Y-99881125D01*
X80348928Y-99888725D01*
X80378380Y-99899263D01*
X80406658Y-99912638D01*
X80433488Y-99928719D01*
X80458613Y-99947353D01*
X80481790Y-99968360D01*
X80502797Y-99991537D01*
X80521431Y-100016662D01*
X80537512Y-100043492D01*
X80550887Y-100071770D01*
X80561425Y-100101222D01*
X80569025Y-100131565D01*
X80573615Y-100162507D01*
X80575150Y-100193750D01*
X80575150Y-100831250D01*
X80573615Y-100862493D01*
X80569025Y-100893435D01*
X80561425Y-100923778D01*
X80550887Y-100953230D01*
X80537512Y-100981508D01*
X80521431Y-101008338D01*
X80502797Y-101033463D01*
X80481790Y-101056640D01*
X80458613Y-101077647D01*
X80433488Y-101096281D01*
X80406658Y-101112362D01*
X80378380Y-101125737D01*
X80348928Y-101136275D01*
X80318585Y-101143875D01*
X80287643Y-101148465D01*
X80256400Y-101150000D01*
X79543900Y-101150000D01*
X79512657Y-101148465D01*
X79481715Y-101143875D01*
X79451372Y-101136275D01*
X79421920Y-101125737D01*
X79393642Y-101112362D01*
X79366812Y-101096281D01*
X79341687Y-101077647D01*
X79318510Y-101056640D01*
X79297503Y-101033463D01*
X79278869Y-101008338D01*
X79262788Y-100981508D01*
X79249413Y-100953230D01*
X79238875Y-100923778D01*
X79231275Y-100893435D01*
X79226685Y-100862493D01*
X79225150Y-100831250D01*
X79225150Y-100193750D01*
X79226685Y-100162507D01*
X79231275Y-100131565D01*
X79238875Y-100101222D01*
X79249413Y-100071770D01*
X79262788Y-100043492D01*
X79278869Y-100016662D01*
X79297503Y-99991537D01*
X79318510Y-99968360D01*
X79341687Y-99947353D01*
X79366812Y-99928719D01*
X79393642Y-99912638D01*
X79421920Y-99899263D01*
X79451372Y-99888725D01*
X79481715Y-99881125D01*
X79512657Y-99876535D01*
X79543900Y-99875000D01*
X80256400Y-99875000D01*
X80287643Y-99876535D01*
X80287643Y-99876535D01*
G37*
D12*
X79900150Y-100512500D03*
D13*
X315167300Y-103700000D03*
X315167300Y-102233332D03*
X315167300Y-100766666D03*
X315167300Y-99300000D03*
D14*
X300000600Y-103700000D03*
X300000600Y-102233332D03*
X300000600Y-100766666D03*
X300000600Y-99300000D03*
X283333900Y-103700000D03*
X283333900Y-102233332D03*
X283333900Y-100766666D03*
X283333900Y-99300000D03*
X266667200Y-103700000D03*
X266667200Y-102233332D03*
X266667200Y-100766666D03*
X266667200Y-99300000D03*
D13*
X68166800Y-103700000D03*
X68166800Y-102233332D03*
X68166800Y-100766666D03*
X68166800Y-99300000D03*
D11*
G36*
X304204767Y-101076535D02*
G01*
X304235709Y-101081125D01*
X304266052Y-101088725D01*
X304295504Y-101099263D01*
X304323782Y-101112638D01*
X304350612Y-101128719D01*
X304375737Y-101147353D01*
X304398914Y-101168360D01*
X304419921Y-101191537D01*
X304438555Y-101216662D01*
X304454636Y-101243492D01*
X304468011Y-101271770D01*
X304478549Y-101301222D01*
X304486149Y-101331565D01*
X304490739Y-101362507D01*
X304492274Y-101393750D01*
X304492274Y-102031250D01*
X304490739Y-102062493D01*
X304486149Y-102093435D01*
X304478549Y-102123778D01*
X304468011Y-102153230D01*
X304454636Y-102181508D01*
X304438555Y-102208338D01*
X304419921Y-102233463D01*
X304398914Y-102256640D01*
X304375737Y-102277647D01*
X304350612Y-102296281D01*
X304323782Y-102312362D01*
X304295504Y-102325737D01*
X304266052Y-102336275D01*
X304235709Y-102343875D01*
X304204767Y-102348465D01*
X304173524Y-102350000D01*
X303461024Y-102350000D01*
X303429781Y-102348465D01*
X303398839Y-102343875D01*
X303368496Y-102336275D01*
X303339044Y-102325737D01*
X303310766Y-102312362D01*
X303283936Y-102296281D01*
X303258811Y-102277647D01*
X303235634Y-102256640D01*
X303214627Y-102233463D01*
X303195993Y-102208338D01*
X303179912Y-102181508D01*
X303166537Y-102153230D01*
X303155999Y-102123778D01*
X303148399Y-102093435D01*
X303143809Y-102062493D01*
X303142274Y-102031250D01*
X303142274Y-101393750D01*
X303143809Y-101362507D01*
X303148399Y-101331565D01*
X303155999Y-101301222D01*
X303166537Y-101271770D01*
X303179912Y-101243492D01*
X303195993Y-101216662D01*
X303214627Y-101191537D01*
X303235634Y-101168360D01*
X303258811Y-101147353D01*
X303283936Y-101128719D01*
X303310766Y-101112638D01*
X303339044Y-101099263D01*
X303368496Y-101088725D01*
X303398839Y-101081125D01*
X303429781Y-101076535D01*
X303461024Y-101075000D01*
X304173524Y-101075000D01*
X304204767Y-101076535D01*
X304204767Y-101076535D01*
G37*
D12*
X303817274Y-101712500D03*
D11*
G36*
X304204767Y-102651535D02*
G01*
X304235709Y-102656125D01*
X304266052Y-102663725D01*
X304295504Y-102674263D01*
X304323782Y-102687638D01*
X304350612Y-102703719D01*
X304375737Y-102722353D01*
X304398914Y-102743360D01*
X304419921Y-102766537D01*
X304438555Y-102791662D01*
X304454636Y-102818492D01*
X304468011Y-102846770D01*
X304478549Y-102876222D01*
X304486149Y-102906565D01*
X304490739Y-102937507D01*
X304492274Y-102968750D01*
X304492274Y-103606250D01*
X304490739Y-103637493D01*
X304486149Y-103668435D01*
X304478549Y-103698778D01*
X304468011Y-103728230D01*
X304454636Y-103756508D01*
X304438555Y-103783338D01*
X304419921Y-103808463D01*
X304398914Y-103831640D01*
X304375737Y-103852647D01*
X304350612Y-103871281D01*
X304323782Y-103887362D01*
X304295504Y-103900737D01*
X304266052Y-103911275D01*
X304235709Y-103918875D01*
X304204767Y-103923465D01*
X304173524Y-103925000D01*
X303461024Y-103925000D01*
X303429781Y-103923465D01*
X303398839Y-103918875D01*
X303368496Y-103911275D01*
X303339044Y-103900737D01*
X303310766Y-103887362D01*
X303283936Y-103871281D01*
X303258811Y-103852647D01*
X303235634Y-103831640D01*
X303214627Y-103808463D01*
X303195993Y-103783338D01*
X303179912Y-103756508D01*
X303166537Y-103728230D01*
X303155999Y-103698778D01*
X303148399Y-103668435D01*
X303143809Y-103637493D01*
X303142274Y-103606250D01*
X303142274Y-102968750D01*
X303143809Y-102937507D01*
X303148399Y-102906565D01*
X303155999Y-102876222D01*
X303166537Y-102846770D01*
X303179912Y-102818492D01*
X303195993Y-102791662D01*
X303214627Y-102766537D01*
X303235634Y-102743360D01*
X303258811Y-102722353D01*
X303283936Y-102703719D01*
X303310766Y-102687638D01*
X303339044Y-102674263D01*
X303368496Y-102663725D01*
X303398839Y-102656125D01*
X303429781Y-102651535D01*
X303461024Y-102650000D01*
X304173524Y-102650000D01*
X304204767Y-102651535D01*
X304204767Y-102651535D01*
G37*
D12*
X303817274Y-103287500D03*
D11*
G36*
X287538067Y-101076535D02*
G01*
X287569009Y-101081125D01*
X287599352Y-101088725D01*
X287628804Y-101099263D01*
X287657082Y-101112638D01*
X287683912Y-101128719D01*
X287709037Y-101147353D01*
X287732214Y-101168360D01*
X287753221Y-101191537D01*
X287771855Y-101216662D01*
X287787936Y-101243492D01*
X287801311Y-101271770D01*
X287811849Y-101301222D01*
X287819449Y-101331565D01*
X287824039Y-101362507D01*
X287825574Y-101393750D01*
X287825574Y-102031250D01*
X287824039Y-102062493D01*
X287819449Y-102093435D01*
X287811849Y-102123778D01*
X287801311Y-102153230D01*
X287787936Y-102181508D01*
X287771855Y-102208338D01*
X287753221Y-102233463D01*
X287732214Y-102256640D01*
X287709037Y-102277647D01*
X287683912Y-102296281D01*
X287657082Y-102312362D01*
X287628804Y-102325737D01*
X287599352Y-102336275D01*
X287569009Y-102343875D01*
X287538067Y-102348465D01*
X287506824Y-102350000D01*
X286794324Y-102350000D01*
X286763081Y-102348465D01*
X286732139Y-102343875D01*
X286701796Y-102336275D01*
X286672344Y-102325737D01*
X286644066Y-102312362D01*
X286617236Y-102296281D01*
X286592111Y-102277647D01*
X286568934Y-102256640D01*
X286547927Y-102233463D01*
X286529293Y-102208338D01*
X286513212Y-102181508D01*
X286499837Y-102153230D01*
X286489299Y-102123778D01*
X286481699Y-102093435D01*
X286477109Y-102062493D01*
X286475574Y-102031250D01*
X286475574Y-101393750D01*
X286477109Y-101362507D01*
X286481699Y-101331565D01*
X286489299Y-101301222D01*
X286499837Y-101271770D01*
X286513212Y-101243492D01*
X286529293Y-101216662D01*
X286547927Y-101191537D01*
X286568934Y-101168360D01*
X286592111Y-101147353D01*
X286617236Y-101128719D01*
X286644066Y-101112638D01*
X286672344Y-101099263D01*
X286701796Y-101088725D01*
X286732139Y-101081125D01*
X286763081Y-101076535D01*
X286794324Y-101075000D01*
X287506824Y-101075000D01*
X287538067Y-101076535D01*
X287538067Y-101076535D01*
G37*
D12*
X287150574Y-101712500D03*
D11*
G36*
X287538067Y-102651535D02*
G01*
X287569009Y-102656125D01*
X287599352Y-102663725D01*
X287628804Y-102674263D01*
X287657082Y-102687638D01*
X287683912Y-102703719D01*
X287709037Y-102722353D01*
X287732214Y-102743360D01*
X287753221Y-102766537D01*
X287771855Y-102791662D01*
X287787936Y-102818492D01*
X287801311Y-102846770D01*
X287811849Y-102876222D01*
X287819449Y-102906565D01*
X287824039Y-102937507D01*
X287825574Y-102968750D01*
X287825574Y-103606250D01*
X287824039Y-103637493D01*
X287819449Y-103668435D01*
X287811849Y-103698778D01*
X287801311Y-103728230D01*
X287787936Y-103756508D01*
X287771855Y-103783338D01*
X287753221Y-103808463D01*
X287732214Y-103831640D01*
X287709037Y-103852647D01*
X287683912Y-103871281D01*
X287657082Y-103887362D01*
X287628804Y-103900737D01*
X287599352Y-103911275D01*
X287569009Y-103918875D01*
X287538067Y-103923465D01*
X287506824Y-103925000D01*
X286794324Y-103925000D01*
X286763081Y-103923465D01*
X286732139Y-103918875D01*
X286701796Y-103911275D01*
X286672344Y-103900737D01*
X286644066Y-103887362D01*
X286617236Y-103871281D01*
X286592111Y-103852647D01*
X286568934Y-103831640D01*
X286547927Y-103808463D01*
X286529293Y-103783338D01*
X286513212Y-103756508D01*
X286499837Y-103728230D01*
X286489299Y-103698778D01*
X286481699Y-103668435D01*
X286477109Y-103637493D01*
X286475574Y-103606250D01*
X286475574Y-102968750D01*
X286477109Y-102937507D01*
X286481699Y-102906565D01*
X286489299Y-102876222D01*
X286499837Y-102846770D01*
X286513212Y-102818492D01*
X286529293Y-102791662D01*
X286547927Y-102766537D01*
X286568934Y-102743360D01*
X286592111Y-102722353D01*
X286617236Y-102703719D01*
X286644066Y-102687638D01*
X286672344Y-102674263D01*
X286701796Y-102663725D01*
X286732139Y-102656125D01*
X286763081Y-102651535D01*
X286794324Y-102650000D01*
X287506824Y-102650000D01*
X287538067Y-102651535D01*
X287538067Y-102651535D01*
G37*
D12*
X287150574Y-103287500D03*
D11*
G36*
X270871367Y-101076535D02*
G01*
X270902309Y-101081125D01*
X270932652Y-101088725D01*
X270962104Y-101099263D01*
X270990382Y-101112638D01*
X271017212Y-101128719D01*
X271042337Y-101147353D01*
X271065514Y-101168360D01*
X271086521Y-101191537D01*
X271105155Y-101216662D01*
X271121236Y-101243492D01*
X271134611Y-101271770D01*
X271145149Y-101301222D01*
X271152749Y-101331565D01*
X271157339Y-101362507D01*
X271158874Y-101393750D01*
X271158874Y-102031250D01*
X271157339Y-102062493D01*
X271152749Y-102093435D01*
X271145149Y-102123778D01*
X271134611Y-102153230D01*
X271121236Y-102181508D01*
X271105155Y-102208338D01*
X271086521Y-102233463D01*
X271065514Y-102256640D01*
X271042337Y-102277647D01*
X271017212Y-102296281D01*
X270990382Y-102312362D01*
X270962104Y-102325737D01*
X270932652Y-102336275D01*
X270902309Y-102343875D01*
X270871367Y-102348465D01*
X270840124Y-102350000D01*
X270127624Y-102350000D01*
X270096381Y-102348465D01*
X270065439Y-102343875D01*
X270035096Y-102336275D01*
X270005644Y-102325737D01*
X269977366Y-102312362D01*
X269950536Y-102296281D01*
X269925411Y-102277647D01*
X269902234Y-102256640D01*
X269881227Y-102233463D01*
X269862593Y-102208338D01*
X269846512Y-102181508D01*
X269833137Y-102153230D01*
X269822599Y-102123778D01*
X269814999Y-102093435D01*
X269810409Y-102062493D01*
X269808874Y-102031250D01*
X269808874Y-101393750D01*
X269810409Y-101362507D01*
X269814999Y-101331565D01*
X269822599Y-101301222D01*
X269833137Y-101271770D01*
X269846512Y-101243492D01*
X269862593Y-101216662D01*
X269881227Y-101191537D01*
X269902234Y-101168360D01*
X269925411Y-101147353D01*
X269950536Y-101128719D01*
X269977366Y-101112638D01*
X270005644Y-101099263D01*
X270035096Y-101088725D01*
X270065439Y-101081125D01*
X270096381Y-101076535D01*
X270127624Y-101075000D01*
X270840124Y-101075000D01*
X270871367Y-101076535D01*
X270871367Y-101076535D01*
G37*
D12*
X270483874Y-101712500D03*
D11*
G36*
X270871367Y-102651535D02*
G01*
X270902309Y-102656125D01*
X270932652Y-102663725D01*
X270962104Y-102674263D01*
X270990382Y-102687638D01*
X271017212Y-102703719D01*
X271042337Y-102722353D01*
X271065514Y-102743360D01*
X271086521Y-102766537D01*
X271105155Y-102791662D01*
X271121236Y-102818492D01*
X271134611Y-102846770D01*
X271145149Y-102876222D01*
X271152749Y-102906565D01*
X271157339Y-102937507D01*
X271158874Y-102968750D01*
X271158874Y-103606250D01*
X271157339Y-103637493D01*
X271152749Y-103668435D01*
X271145149Y-103698778D01*
X271134611Y-103728230D01*
X271121236Y-103756508D01*
X271105155Y-103783338D01*
X271086521Y-103808463D01*
X271065514Y-103831640D01*
X271042337Y-103852647D01*
X271017212Y-103871281D01*
X270990382Y-103887362D01*
X270962104Y-103900737D01*
X270932652Y-103911275D01*
X270902309Y-103918875D01*
X270871367Y-103923465D01*
X270840124Y-103925000D01*
X270127624Y-103925000D01*
X270096381Y-103923465D01*
X270065439Y-103918875D01*
X270035096Y-103911275D01*
X270005644Y-103900737D01*
X269977366Y-103887362D01*
X269950536Y-103871281D01*
X269925411Y-103852647D01*
X269902234Y-103831640D01*
X269881227Y-103808463D01*
X269862593Y-103783338D01*
X269846512Y-103756508D01*
X269833137Y-103728230D01*
X269822599Y-103698778D01*
X269814999Y-103668435D01*
X269810409Y-103637493D01*
X269808874Y-103606250D01*
X269808874Y-102968750D01*
X269810409Y-102937507D01*
X269814999Y-102906565D01*
X269822599Y-102876222D01*
X269833137Y-102846770D01*
X269846512Y-102818492D01*
X269862593Y-102791662D01*
X269881227Y-102766537D01*
X269902234Y-102743360D01*
X269925411Y-102722353D01*
X269950536Y-102703719D01*
X269977366Y-102687638D01*
X270005644Y-102674263D01*
X270035096Y-102663725D01*
X270065439Y-102656125D01*
X270096381Y-102651535D01*
X270127624Y-102650000D01*
X270840124Y-102650000D01*
X270871367Y-102651535D01*
X270871367Y-102651535D01*
G37*
D12*
X270483874Y-103287500D03*
D11*
G36*
X253954289Y-100976535D02*
G01*
X253985231Y-100981125D01*
X254015574Y-100988725D01*
X254045026Y-100999263D01*
X254073304Y-101012638D01*
X254100134Y-101028719D01*
X254125259Y-101047353D01*
X254148436Y-101068360D01*
X254169443Y-101091537D01*
X254188077Y-101116662D01*
X254204158Y-101143492D01*
X254217533Y-101171770D01*
X254228071Y-101201222D01*
X254235671Y-101231565D01*
X254240261Y-101262507D01*
X254241796Y-101293750D01*
X254241796Y-101931250D01*
X254240261Y-101962493D01*
X254235671Y-101993435D01*
X254228071Y-102023778D01*
X254217533Y-102053230D01*
X254204158Y-102081508D01*
X254188077Y-102108338D01*
X254169443Y-102133463D01*
X254148436Y-102156640D01*
X254125259Y-102177647D01*
X254100134Y-102196281D01*
X254073304Y-102212362D01*
X254045026Y-102225737D01*
X254015574Y-102236275D01*
X253985231Y-102243875D01*
X253954289Y-102248465D01*
X253923046Y-102250000D01*
X253210546Y-102250000D01*
X253179303Y-102248465D01*
X253148361Y-102243875D01*
X253118018Y-102236275D01*
X253088566Y-102225737D01*
X253060288Y-102212362D01*
X253033458Y-102196281D01*
X253008333Y-102177647D01*
X252985156Y-102156640D01*
X252964149Y-102133463D01*
X252945515Y-102108338D01*
X252929434Y-102081508D01*
X252916059Y-102053230D01*
X252905521Y-102023778D01*
X252897921Y-101993435D01*
X252893331Y-101962493D01*
X252891796Y-101931250D01*
X252891796Y-101293750D01*
X252893331Y-101262507D01*
X252897921Y-101231565D01*
X252905521Y-101201222D01*
X252916059Y-101171770D01*
X252929434Y-101143492D01*
X252945515Y-101116662D01*
X252964149Y-101091537D01*
X252985156Y-101068360D01*
X253008333Y-101047353D01*
X253033458Y-101028719D01*
X253060288Y-101012638D01*
X253088566Y-100999263D01*
X253118018Y-100988725D01*
X253148361Y-100981125D01*
X253179303Y-100976535D01*
X253210546Y-100975000D01*
X253923046Y-100975000D01*
X253954289Y-100976535D01*
X253954289Y-100976535D01*
G37*
D12*
X253566796Y-101612500D03*
D11*
G36*
X253954289Y-102551535D02*
G01*
X253985231Y-102556125D01*
X254015574Y-102563725D01*
X254045026Y-102574263D01*
X254073304Y-102587638D01*
X254100134Y-102603719D01*
X254125259Y-102622353D01*
X254148436Y-102643360D01*
X254169443Y-102666537D01*
X254188077Y-102691662D01*
X254204158Y-102718492D01*
X254217533Y-102746770D01*
X254228071Y-102776222D01*
X254235671Y-102806565D01*
X254240261Y-102837507D01*
X254241796Y-102868750D01*
X254241796Y-103506250D01*
X254240261Y-103537493D01*
X254235671Y-103568435D01*
X254228071Y-103598778D01*
X254217533Y-103628230D01*
X254204158Y-103656508D01*
X254188077Y-103683338D01*
X254169443Y-103708463D01*
X254148436Y-103731640D01*
X254125259Y-103752647D01*
X254100134Y-103771281D01*
X254073304Y-103787362D01*
X254045026Y-103800737D01*
X254015574Y-103811275D01*
X253985231Y-103818875D01*
X253954289Y-103823465D01*
X253923046Y-103825000D01*
X253210546Y-103825000D01*
X253179303Y-103823465D01*
X253148361Y-103818875D01*
X253118018Y-103811275D01*
X253088566Y-103800737D01*
X253060288Y-103787362D01*
X253033458Y-103771281D01*
X253008333Y-103752647D01*
X252985156Y-103731640D01*
X252964149Y-103708463D01*
X252945515Y-103683338D01*
X252929434Y-103656508D01*
X252916059Y-103628230D01*
X252905521Y-103598778D01*
X252897921Y-103568435D01*
X252893331Y-103537493D01*
X252891796Y-103506250D01*
X252891796Y-102868750D01*
X252893331Y-102837507D01*
X252897921Y-102806565D01*
X252905521Y-102776222D01*
X252916059Y-102746770D01*
X252929434Y-102718492D01*
X252945515Y-102691662D01*
X252964149Y-102666537D01*
X252985156Y-102643360D01*
X253008333Y-102622353D01*
X253033458Y-102603719D01*
X253060288Y-102587638D01*
X253088566Y-102574263D01*
X253118018Y-102563725D01*
X253148361Y-102556125D01*
X253179303Y-102551535D01*
X253210546Y-102550000D01*
X253923046Y-102550000D01*
X253954289Y-102551535D01*
X253954289Y-102551535D01*
G37*
D12*
X253566796Y-103187500D03*
D11*
G36*
X248712974Y-99876535D02*
G01*
X248743916Y-99881125D01*
X248774259Y-99888725D01*
X248803711Y-99899263D01*
X248831989Y-99912638D01*
X248858819Y-99928719D01*
X248883944Y-99947353D01*
X248907121Y-99968360D01*
X248928128Y-99991537D01*
X248946762Y-100016662D01*
X248962843Y-100043492D01*
X248976218Y-100071770D01*
X248986756Y-100101222D01*
X248994356Y-100131565D01*
X248998946Y-100162507D01*
X249000481Y-100193750D01*
X249000481Y-100831250D01*
X248998946Y-100862493D01*
X248994356Y-100893435D01*
X248986756Y-100923778D01*
X248976218Y-100953230D01*
X248962843Y-100981508D01*
X248946762Y-101008338D01*
X248928128Y-101033463D01*
X248907121Y-101056640D01*
X248883944Y-101077647D01*
X248858819Y-101096281D01*
X248831989Y-101112362D01*
X248803711Y-101125737D01*
X248774259Y-101136275D01*
X248743916Y-101143875D01*
X248712974Y-101148465D01*
X248681731Y-101150000D01*
X247969231Y-101150000D01*
X247937988Y-101148465D01*
X247907046Y-101143875D01*
X247876703Y-101136275D01*
X247847251Y-101125737D01*
X247818973Y-101112362D01*
X247792143Y-101096281D01*
X247767018Y-101077647D01*
X247743841Y-101056640D01*
X247722834Y-101033463D01*
X247704200Y-101008338D01*
X247688119Y-100981508D01*
X247674744Y-100953230D01*
X247664206Y-100923778D01*
X247656606Y-100893435D01*
X247652016Y-100862493D01*
X247650481Y-100831250D01*
X247650481Y-100193750D01*
X247652016Y-100162507D01*
X247656606Y-100131565D01*
X247664206Y-100101222D01*
X247674744Y-100071770D01*
X247688119Y-100043492D01*
X247704200Y-100016662D01*
X247722834Y-99991537D01*
X247743841Y-99968360D01*
X247767018Y-99947353D01*
X247792143Y-99928719D01*
X247818973Y-99912638D01*
X247847251Y-99899263D01*
X247876703Y-99888725D01*
X247907046Y-99881125D01*
X247937988Y-99876535D01*
X247969231Y-99875000D01*
X248681731Y-99875000D01*
X248712974Y-99876535D01*
X248712974Y-99876535D01*
G37*
D12*
X248325481Y-100512500D03*
D11*
G36*
X248712974Y-101451535D02*
G01*
X248743916Y-101456125D01*
X248774259Y-101463725D01*
X248803711Y-101474263D01*
X248831989Y-101487638D01*
X248858819Y-101503719D01*
X248883944Y-101522353D01*
X248907121Y-101543360D01*
X248928128Y-101566537D01*
X248946762Y-101591662D01*
X248962843Y-101618492D01*
X248976218Y-101646770D01*
X248986756Y-101676222D01*
X248994356Y-101706565D01*
X248998946Y-101737507D01*
X249000481Y-101768750D01*
X249000481Y-102406250D01*
X248998946Y-102437493D01*
X248994356Y-102468435D01*
X248986756Y-102498778D01*
X248976218Y-102528230D01*
X248962843Y-102556508D01*
X248946762Y-102583338D01*
X248928128Y-102608463D01*
X248907121Y-102631640D01*
X248883944Y-102652647D01*
X248858819Y-102671281D01*
X248831989Y-102687362D01*
X248803711Y-102700737D01*
X248774259Y-102711275D01*
X248743916Y-102718875D01*
X248712974Y-102723465D01*
X248681731Y-102725000D01*
X247969231Y-102725000D01*
X247937988Y-102723465D01*
X247907046Y-102718875D01*
X247876703Y-102711275D01*
X247847251Y-102700737D01*
X247818973Y-102687362D01*
X247792143Y-102671281D01*
X247767018Y-102652647D01*
X247743841Y-102631640D01*
X247722834Y-102608463D01*
X247704200Y-102583338D01*
X247688119Y-102556508D01*
X247674744Y-102528230D01*
X247664206Y-102498778D01*
X247656606Y-102468435D01*
X247652016Y-102437493D01*
X247650481Y-102406250D01*
X247650481Y-101768750D01*
X247652016Y-101737507D01*
X247656606Y-101706565D01*
X247664206Y-101676222D01*
X247674744Y-101646770D01*
X247688119Y-101618492D01*
X247704200Y-101591662D01*
X247722834Y-101566537D01*
X247743841Y-101543360D01*
X247767018Y-101522353D01*
X247792143Y-101503719D01*
X247818973Y-101487638D01*
X247847251Y-101474263D01*
X247876703Y-101463725D01*
X247907046Y-101456125D01*
X247937988Y-101451535D01*
X247969231Y-101450000D01*
X248681731Y-101450000D01*
X248712974Y-101451535D01*
X248712974Y-101451535D01*
G37*
D12*
X248325481Y-102087500D03*
D11*
G36*
X232046274Y-99876535D02*
G01*
X232077216Y-99881125D01*
X232107559Y-99888725D01*
X232137011Y-99899263D01*
X232165289Y-99912638D01*
X232192119Y-99928719D01*
X232217244Y-99947353D01*
X232240421Y-99968360D01*
X232261428Y-99991537D01*
X232280062Y-100016662D01*
X232296143Y-100043492D01*
X232309518Y-100071770D01*
X232320056Y-100101222D01*
X232327656Y-100131565D01*
X232332246Y-100162507D01*
X232333781Y-100193750D01*
X232333781Y-100831250D01*
X232332246Y-100862493D01*
X232327656Y-100893435D01*
X232320056Y-100923778D01*
X232309518Y-100953230D01*
X232296143Y-100981508D01*
X232280062Y-101008338D01*
X232261428Y-101033463D01*
X232240421Y-101056640D01*
X232217244Y-101077647D01*
X232192119Y-101096281D01*
X232165289Y-101112362D01*
X232137011Y-101125737D01*
X232107559Y-101136275D01*
X232077216Y-101143875D01*
X232046274Y-101148465D01*
X232015031Y-101150000D01*
X231302531Y-101150000D01*
X231271288Y-101148465D01*
X231240346Y-101143875D01*
X231210003Y-101136275D01*
X231180551Y-101125737D01*
X231152273Y-101112362D01*
X231125443Y-101096281D01*
X231100318Y-101077647D01*
X231077141Y-101056640D01*
X231056134Y-101033463D01*
X231037500Y-101008338D01*
X231021419Y-100981508D01*
X231008044Y-100953230D01*
X230997506Y-100923778D01*
X230989906Y-100893435D01*
X230985316Y-100862493D01*
X230983781Y-100831250D01*
X230983781Y-100193750D01*
X230985316Y-100162507D01*
X230989906Y-100131565D01*
X230997506Y-100101222D01*
X231008044Y-100071770D01*
X231021419Y-100043492D01*
X231037500Y-100016662D01*
X231056134Y-99991537D01*
X231077141Y-99968360D01*
X231100318Y-99947353D01*
X231125443Y-99928719D01*
X231152273Y-99912638D01*
X231180551Y-99899263D01*
X231210003Y-99888725D01*
X231240346Y-99881125D01*
X231271288Y-99876535D01*
X231302531Y-99875000D01*
X232015031Y-99875000D01*
X232046274Y-99876535D01*
X232046274Y-99876535D01*
G37*
D12*
X231658781Y-100512500D03*
D11*
G36*
X232046274Y-101451535D02*
G01*
X232077216Y-101456125D01*
X232107559Y-101463725D01*
X232137011Y-101474263D01*
X232165289Y-101487638D01*
X232192119Y-101503719D01*
X232217244Y-101522353D01*
X232240421Y-101543360D01*
X232261428Y-101566537D01*
X232280062Y-101591662D01*
X232296143Y-101618492D01*
X232309518Y-101646770D01*
X232320056Y-101676222D01*
X232327656Y-101706565D01*
X232332246Y-101737507D01*
X232333781Y-101768750D01*
X232333781Y-102406250D01*
X232332246Y-102437493D01*
X232327656Y-102468435D01*
X232320056Y-102498778D01*
X232309518Y-102528230D01*
X232296143Y-102556508D01*
X232280062Y-102583338D01*
X232261428Y-102608463D01*
X232240421Y-102631640D01*
X232217244Y-102652647D01*
X232192119Y-102671281D01*
X232165289Y-102687362D01*
X232137011Y-102700737D01*
X232107559Y-102711275D01*
X232077216Y-102718875D01*
X232046274Y-102723465D01*
X232015031Y-102725000D01*
X231302531Y-102725000D01*
X231271288Y-102723465D01*
X231240346Y-102718875D01*
X231210003Y-102711275D01*
X231180551Y-102700737D01*
X231152273Y-102687362D01*
X231125443Y-102671281D01*
X231100318Y-102652647D01*
X231077141Y-102631640D01*
X231056134Y-102608463D01*
X231037500Y-102583338D01*
X231021419Y-102556508D01*
X231008044Y-102528230D01*
X230997506Y-102498778D01*
X230989906Y-102468435D01*
X230985316Y-102437493D01*
X230983781Y-102406250D01*
X230983781Y-101768750D01*
X230985316Y-101737507D01*
X230989906Y-101706565D01*
X230997506Y-101676222D01*
X231008044Y-101646770D01*
X231021419Y-101618492D01*
X231037500Y-101591662D01*
X231056134Y-101566537D01*
X231077141Y-101543360D01*
X231100318Y-101522353D01*
X231125443Y-101503719D01*
X231152273Y-101487638D01*
X231180551Y-101474263D01*
X231210003Y-101463725D01*
X231240346Y-101456125D01*
X231271288Y-101451535D01*
X231302531Y-101450000D01*
X232015031Y-101450000D01*
X232046274Y-101451535D01*
X232046274Y-101451535D01*
G37*
D12*
X231658781Y-102087500D03*
D11*
G36*
X215379574Y-99876535D02*
G01*
X215410516Y-99881125D01*
X215440859Y-99888725D01*
X215470311Y-99899263D01*
X215498589Y-99912638D01*
X215525419Y-99928719D01*
X215550544Y-99947353D01*
X215573721Y-99968360D01*
X215594728Y-99991537D01*
X215613362Y-100016662D01*
X215629443Y-100043492D01*
X215642818Y-100071770D01*
X215653356Y-100101222D01*
X215660956Y-100131565D01*
X215665546Y-100162507D01*
X215667081Y-100193750D01*
X215667081Y-100831250D01*
X215665546Y-100862493D01*
X215660956Y-100893435D01*
X215653356Y-100923778D01*
X215642818Y-100953230D01*
X215629443Y-100981508D01*
X215613362Y-101008338D01*
X215594728Y-101033463D01*
X215573721Y-101056640D01*
X215550544Y-101077647D01*
X215525419Y-101096281D01*
X215498589Y-101112362D01*
X215470311Y-101125737D01*
X215440859Y-101136275D01*
X215410516Y-101143875D01*
X215379574Y-101148465D01*
X215348331Y-101150000D01*
X214635831Y-101150000D01*
X214604588Y-101148465D01*
X214573646Y-101143875D01*
X214543303Y-101136275D01*
X214513851Y-101125737D01*
X214485573Y-101112362D01*
X214458743Y-101096281D01*
X214433618Y-101077647D01*
X214410441Y-101056640D01*
X214389434Y-101033463D01*
X214370800Y-101008338D01*
X214354719Y-100981508D01*
X214341344Y-100953230D01*
X214330806Y-100923778D01*
X214323206Y-100893435D01*
X214318616Y-100862493D01*
X214317081Y-100831250D01*
X214317081Y-100193750D01*
X214318616Y-100162507D01*
X214323206Y-100131565D01*
X214330806Y-100101222D01*
X214341344Y-100071770D01*
X214354719Y-100043492D01*
X214370800Y-100016662D01*
X214389434Y-99991537D01*
X214410441Y-99968360D01*
X214433618Y-99947353D01*
X214458743Y-99928719D01*
X214485573Y-99912638D01*
X214513851Y-99899263D01*
X214543303Y-99888725D01*
X214573646Y-99881125D01*
X214604588Y-99876535D01*
X214635831Y-99875000D01*
X215348331Y-99875000D01*
X215379574Y-99876535D01*
X215379574Y-99876535D01*
G37*
D12*
X214992081Y-100512500D03*
D11*
G36*
X215379574Y-101451535D02*
G01*
X215410516Y-101456125D01*
X215440859Y-101463725D01*
X215470311Y-101474263D01*
X215498589Y-101487638D01*
X215525419Y-101503719D01*
X215550544Y-101522353D01*
X215573721Y-101543360D01*
X215594728Y-101566537D01*
X215613362Y-101591662D01*
X215629443Y-101618492D01*
X215642818Y-101646770D01*
X215653356Y-101676222D01*
X215660956Y-101706565D01*
X215665546Y-101737507D01*
X215667081Y-101768750D01*
X215667081Y-102406250D01*
X215665546Y-102437493D01*
X215660956Y-102468435D01*
X215653356Y-102498778D01*
X215642818Y-102528230D01*
X215629443Y-102556508D01*
X215613362Y-102583338D01*
X215594728Y-102608463D01*
X215573721Y-102631640D01*
X215550544Y-102652647D01*
X215525419Y-102671281D01*
X215498589Y-102687362D01*
X215470311Y-102700737D01*
X215440859Y-102711275D01*
X215410516Y-102718875D01*
X215379574Y-102723465D01*
X215348331Y-102725000D01*
X214635831Y-102725000D01*
X214604588Y-102723465D01*
X214573646Y-102718875D01*
X214543303Y-102711275D01*
X214513851Y-102700737D01*
X214485573Y-102687362D01*
X214458743Y-102671281D01*
X214433618Y-102652647D01*
X214410441Y-102631640D01*
X214389434Y-102608463D01*
X214370800Y-102583338D01*
X214354719Y-102556508D01*
X214341344Y-102528230D01*
X214330806Y-102498778D01*
X214323206Y-102468435D01*
X214318616Y-102437493D01*
X214317081Y-102406250D01*
X214317081Y-101768750D01*
X214318616Y-101737507D01*
X214323206Y-101706565D01*
X214330806Y-101676222D01*
X214341344Y-101646770D01*
X214354719Y-101618492D01*
X214370800Y-101591662D01*
X214389434Y-101566537D01*
X214410441Y-101543360D01*
X214433618Y-101522353D01*
X214458743Y-101503719D01*
X214485573Y-101487638D01*
X214513851Y-101474263D01*
X214543303Y-101463725D01*
X214573646Y-101456125D01*
X214604588Y-101451535D01*
X214635831Y-101450000D01*
X215348331Y-101450000D01*
X215379574Y-101451535D01*
X215379574Y-101451535D01*
G37*
D12*
X214992081Y-102087500D03*
D11*
G36*
X198712874Y-99876535D02*
G01*
X198743816Y-99881125D01*
X198774159Y-99888725D01*
X198803611Y-99899263D01*
X198831889Y-99912638D01*
X198858719Y-99928719D01*
X198883844Y-99947353D01*
X198907021Y-99968360D01*
X198928028Y-99991537D01*
X198946662Y-100016662D01*
X198962743Y-100043492D01*
X198976118Y-100071770D01*
X198986656Y-100101222D01*
X198994256Y-100131565D01*
X198998846Y-100162507D01*
X199000381Y-100193750D01*
X199000381Y-100831250D01*
X198998846Y-100862493D01*
X198994256Y-100893435D01*
X198986656Y-100923778D01*
X198976118Y-100953230D01*
X198962743Y-100981508D01*
X198946662Y-101008338D01*
X198928028Y-101033463D01*
X198907021Y-101056640D01*
X198883844Y-101077647D01*
X198858719Y-101096281D01*
X198831889Y-101112362D01*
X198803611Y-101125737D01*
X198774159Y-101136275D01*
X198743816Y-101143875D01*
X198712874Y-101148465D01*
X198681631Y-101150000D01*
X197969131Y-101150000D01*
X197937888Y-101148465D01*
X197906946Y-101143875D01*
X197876603Y-101136275D01*
X197847151Y-101125737D01*
X197818873Y-101112362D01*
X197792043Y-101096281D01*
X197766918Y-101077647D01*
X197743741Y-101056640D01*
X197722734Y-101033463D01*
X197704100Y-101008338D01*
X197688019Y-100981508D01*
X197674644Y-100953230D01*
X197664106Y-100923778D01*
X197656506Y-100893435D01*
X197651916Y-100862493D01*
X197650381Y-100831250D01*
X197650381Y-100193750D01*
X197651916Y-100162507D01*
X197656506Y-100131565D01*
X197664106Y-100101222D01*
X197674644Y-100071770D01*
X197688019Y-100043492D01*
X197704100Y-100016662D01*
X197722734Y-99991537D01*
X197743741Y-99968360D01*
X197766918Y-99947353D01*
X197792043Y-99928719D01*
X197818873Y-99912638D01*
X197847151Y-99899263D01*
X197876603Y-99888725D01*
X197906946Y-99881125D01*
X197937888Y-99876535D01*
X197969131Y-99875000D01*
X198681631Y-99875000D01*
X198712874Y-99876535D01*
X198712874Y-99876535D01*
G37*
D12*
X198325381Y-100512500D03*
D11*
G36*
X198712874Y-101451535D02*
G01*
X198743816Y-101456125D01*
X198774159Y-101463725D01*
X198803611Y-101474263D01*
X198831889Y-101487638D01*
X198858719Y-101503719D01*
X198883844Y-101522353D01*
X198907021Y-101543360D01*
X198928028Y-101566537D01*
X198946662Y-101591662D01*
X198962743Y-101618492D01*
X198976118Y-101646770D01*
X198986656Y-101676222D01*
X198994256Y-101706565D01*
X198998846Y-101737507D01*
X199000381Y-101768750D01*
X199000381Y-102406250D01*
X198998846Y-102437493D01*
X198994256Y-102468435D01*
X198986656Y-102498778D01*
X198976118Y-102528230D01*
X198962743Y-102556508D01*
X198946662Y-102583338D01*
X198928028Y-102608463D01*
X198907021Y-102631640D01*
X198883844Y-102652647D01*
X198858719Y-102671281D01*
X198831889Y-102687362D01*
X198803611Y-102700737D01*
X198774159Y-102711275D01*
X198743816Y-102718875D01*
X198712874Y-102723465D01*
X198681631Y-102725000D01*
X197969131Y-102725000D01*
X197937888Y-102723465D01*
X197906946Y-102718875D01*
X197876603Y-102711275D01*
X197847151Y-102700737D01*
X197818873Y-102687362D01*
X197792043Y-102671281D01*
X197766918Y-102652647D01*
X197743741Y-102631640D01*
X197722734Y-102608463D01*
X197704100Y-102583338D01*
X197688019Y-102556508D01*
X197674644Y-102528230D01*
X197664106Y-102498778D01*
X197656506Y-102468435D01*
X197651916Y-102437493D01*
X197650381Y-102406250D01*
X197650381Y-101768750D01*
X197651916Y-101737507D01*
X197656506Y-101706565D01*
X197664106Y-101676222D01*
X197674644Y-101646770D01*
X197688019Y-101618492D01*
X197704100Y-101591662D01*
X197722734Y-101566537D01*
X197743741Y-101543360D01*
X197766918Y-101522353D01*
X197792043Y-101503719D01*
X197818873Y-101487638D01*
X197847151Y-101474263D01*
X197876603Y-101463725D01*
X197906946Y-101456125D01*
X197937888Y-101451535D01*
X197969131Y-101450000D01*
X198681631Y-101450000D01*
X198712874Y-101451535D01*
X198712874Y-101451535D01*
G37*
D12*
X198325381Y-102087500D03*
D11*
G36*
X182046174Y-99876535D02*
G01*
X182077116Y-99881125D01*
X182107459Y-99888725D01*
X182136911Y-99899263D01*
X182165189Y-99912638D01*
X182192019Y-99928719D01*
X182217144Y-99947353D01*
X182240321Y-99968360D01*
X182261328Y-99991537D01*
X182279962Y-100016662D01*
X182296043Y-100043492D01*
X182309418Y-100071770D01*
X182319956Y-100101222D01*
X182327556Y-100131565D01*
X182332146Y-100162507D01*
X182333681Y-100193750D01*
X182333681Y-100831250D01*
X182332146Y-100862493D01*
X182327556Y-100893435D01*
X182319956Y-100923778D01*
X182309418Y-100953230D01*
X182296043Y-100981508D01*
X182279962Y-101008338D01*
X182261328Y-101033463D01*
X182240321Y-101056640D01*
X182217144Y-101077647D01*
X182192019Y-101096281D01*
X182165189Y-101112362D01*
X182136911Y-101125737D01*
X182107459Y-101136275D01*
X182077116Y-101143875D01*
X182046174Y-101148465D01*
X182014931Y-101150000D01*
X181302431Y-101150000D01*
X181271188Y-101148465D01*
X181240246Y-101143875D01*
X181209903Y-101136275D01*
X181180451Y-101125737D01*
X181152173Y-101112362D01*
X181125343Y-101096281D01*
X181100218Y-101077647D01*
X181077041Y-101056640D01*
X181056034Y-101033463D01*
X181037400Y-101008338D01*
X181021319Y-100981508D01*
X181007944Y-100953230D01*
X180997406Y-100923778D01*
X180989806Y-100893435D01*
X180985216Y-100862493D01*
X180983681Y-100831250D01*
X180983681Y-100193750D01*
X180985216Y-100162507D01*
X180989806Y-100131565D01*
X180997406Y-100101222D01*
X181007944Y-100071770D01*
X181021319Y-100043492D01*
X181037400Y-100016662D01*
X181056034Y-99991537D01*
X181077041Y-99968360D01*
X181100218Y-99947353D01*
X181125343Y-99928719D01*
X181152173Y-99912638D01*
X181180451Y-99899263D01*
X181209903Y-99888725D01*
X181240246Y-99881125D01*
X181271188Y-99876535D01*
X181302431Y-99875000D01*
X182014931Y-99875000D01*
X182046174Y-99876535D01*
X182046174Y-99876535D01*
G37*
D12*
X181658681Y-100512500D03*
D11*
G36*
X182046174Y-101451535D02*
G01*
X182077116Y-101456125D01*
X182107459Y-101463725D01*
X182136911Y-101474263D01*
X182165189Y-101487638D01*
X182192019Y-101503719D01*
X182217144Y-101522353D01*
X182240321Y-101543360D01*
X182261328Y-101566537D01*
X182279962Y-101591662D01*
X182296043Y-101618492D01*
X182309418Y-101646770D01*
X182319956Y-101676222D01*
X182327556Y-101706565D01*
X182332146Y-101737507D01*
X182333681Y-101768750D01*
X182333681Y-102406250D01*
X182332146Y-102437493D01*
X182327556Y-102468435D01*
X182319956Y-102498778D01*
X182309418Y-102528230D01*
X182296043Y-102556508D01*
X182279962Y-102583338D01*
X182261328Y-102608463D01*
X182240321Y-102631640D01*
X182217144Y-102652647D01*
X182192019Y-102671281D01*
X182165189Y-102687362D01*
X182136911Y-102700737D01*
X182107459Y-102711275D01*
X182077116Y-102718875D01*
X182046174Y-102723465D01*
X182014931Y-102725000D01*
X181302431Y-102725000D01*
X181271188Y-102723465D01*
X181240246Y-102718875D01*
X181209903Y-102711275D01*
X181180451Y-102700737D01*
X181152173Y-102687362D01*
X181125343Y-102671281D01*
X181100218Y-102652647D01*
X181077041Y-102631640D01*
X181056034Y-102608463D01*
X181037400Y-102583338D01*
X181021319Y-102556508D01*
X181007944Y-102528230D01*
X180997406Y-102498778D01*
X180989806Y-102468435D01*
X180985216Y-102437493D01*
X180983681Y-102406250D01*
X180983681Y-101768750D01*
X180985216Y-101737507D01*
X180989806Y-101706565D01*
X180997406Y-101676222D01*
X181007944Y-101646770D01*
X181021319Y-101618492D01*
X181037400Y-101591662D01*
X181056034Y-101566537D01*
X181077041Y-101543360D01*
X181100218Y-101522353D01*
X181125343Y-101503719D01*
X181152173Y-101487638D01*
X181180451Y-101474263D01*
X181209903Y-101463725D01*
X181240246Y-101456125D01*
X181271188Y-101451535D01*
X181302431Y-101450000D01*
X182014931Y-101450000D01*
X182046174Y-101451535D01*
X182046174Y-101451535D01*
G37*
D12*
X181658681Y-102087500D03*
D11*
G36*
X165379474Y-99876535D02*
G01*
X165410416Y-99881125D01*
X165440759Y-99888725D01*
X165470211Y-99899263D01*
X165498489Y-99912638D01*
X165525319Y-99928719D01*
X165550444Y-99947353D01*
X165573621Y-99968360D01*
X165594628Y-99991537D01*
X165613262Y-100016662D01*
X165629343Y-100043492D01*
X165642718Y-100071770D01*
X165653256Y-100101222D01*
X165660856Y-100131565D01*
X165665446Y-100162507D01*
X165666981Y-100193750D01*
X165666981Y-100831250D01*
X165665446Y-100862493D01*
X165660856Y-100893435D01*
X165653256Y-100923778D01*
X165642718Y-100953230D01*
X165629343Y-100981508D01*
X165613262Y-101008338D01*
X165594628Y-101033463D01*
X165573621Y-101056640D01*
X165550444Y-101077647D01*
X165525319Y-101096281D01*
X165498489Y-101112362D01*
X165470211Y-101125737D01*
X165440759Y-101136275D01*
X165410416Y-101143875D01*
X165379474Y-101148465D01*
X165348231Y-101150000D01*
X164635731Y-101150000D01*
X164604488Y-101148465D01*
X164573546Y-101143875D01*
X164543203Y-101136275D01*
X164513751Y-101125737D01*
X164485473Y-101112362D01*
X164458643Y-101096281D01*
X164433518Y-101077647D01*
X164410341Y-101056640D01*
X164389334Y-101033463D01*
X164370700Y-101008338D01*
X164354619Y-100981508D01*
X164341244Y-100953230D01*
X164330706Y-100923778D01*
X164323106Y-100893435D01*
X164318516Y-100862493D01*
X164316981Y-100831250D01*
X164316981Y-100193750D01*
X164318516Y-100162507D01*
X164323106Y-100131565D01*
X164330706Y-100101222D01*
X164341244Y-100071770D01*
X164354619Y-100043492D01*
X164370700Y-100016662D01*
X164389334Y-99991537D01*
X164410341Y-99968360D01*
X164433518Y-99947353D01*
X164458643Y-99928719D01*
X164485473Y-99912638D01*
X164513751Y-99899263D01*
X164543203Y-99888725D01*
X164573546Y-99881125D01*
X164604488Y-99876535D01*
X164635731Y-99875000D01*
X165348231Y-99875000D01*
X165379474Y-99876535D01*
X165379474Y-99876535D01*
G37*
D12*
X164991981Y-100512500D03*
D11*
G36*
X165379474Y-101451535D02*
G01*
X165410416Y-101456125D01*
X165440759Y-101463725D01*
X165470211Y-101474263D01*
X165498489Y-101487638D01*
X165525319Y-101503719D01*
X165550444Y-101522353D01*
X165573621Y-101543360D01*
X165594628Y-101566537D01*
X165613262Y-101591662D01*
X165629343Y-101618492D01*
X165642718Y-101646770D01*
X165653256Y-101676222D01*
X165660856Y-101706565D01*
X165665446Y-101737507D01*
X165666981Y-101768750D01*
X165666981Y-102406250D01*
X165665446Y-102437493D01*
X165660856Y-102468435D01*
X165653256Y-102498778D01*
X165642718Y-102528230D01*
X165629343Y-102556508D01*
X165613262Y-102583338D01*
X165594628Y-102608463D01*
X165573621Y-102631640D01*
X165550444Y-102652647D01*
X165525319Y-102671281D01*
X165498489Y-102687362D01*
X165470211Y-102700737D01*
X165440759Y-102711275D01*
X165410416Y-102718875D01*
X165379474Y-102723465D01*
X165348231Y-102725000D01*
X164635731Y-102725000D01*
X164604488Y-102723465D01*
X164573546Y-102718875D01*
X164543203Y-102711275D01*
X164513751Y-102700737D01*
X164485473Y-102687362D01*
X164458643Y-102671281D01*
X164433518Y-102652647D01*
X164410341Y-102631640D01*
X164389334Y-102608463D01*
X164370700Y-102583338D01*
X164354619Y-102556508D01*
X164341244Y-102528230D01*
X164330706Y-102498778D01*
X164323106Y-102468435D01*
X164318516Y-102437493D01*
X164316981Y-102406250D01*
X164316981Y-101768750D01*
X164318516Y-101737507D01*
X164323106Y-101706565D01*
X164330706Y-101676222D01*
X164341244Y-101646770D01*
X164354619Y-101618492D01*
X164370700Y-101591662D01*
X164389334Y-101566537D01*
X164410341Y-101543360D01*
X164433518Y-101522353D01*
X164458643Y-101503719D01*
X164485473Y-101487638D01*
X164513751Y-101474263D01*
X164543203Y-101463725D01*
X164573546Y-101456125D01*
X164604488Y-101451535D01*
X164635731Y-101450000D01*
X165348231Y-101450000D01*
X165379474Y-101451535D01*
X165379474Y-101451535D01*
G37*
D12*
X164991981Y-102087500D03*
D11*
G36*
X148712774Y-99876535D02*
G01*
X148743716Y-99881125D01*
X148774059Y-99888725D01*
X148803511Y-99899263D01*
X148831789Y-99912638D01*
X148858619Y-99928719D01*
X148883744Y-99947353D01*
X148906921Y-99968360D01*
X148927928Y-99991537D01*
X148946562Y-100016662D01*
X148962643Y-100043492D01*
X148976018Y-100071770D01*
X148986556Y-100101222D01*
X148994156Y-100131565D01*
X148998746Y-100162507D01*
X149000281Y-100193750D01*
X149000281Y-100831250D01*
X148998746Y-100862493D01*
X148994156Y-100893435D01*
X148986556Y-100923778D01*
X148976018Y-100953230D01*
X148962643Y-100981508D01*
X148946562Y-101008338D01*
X148927928Y-101033463D01*
X148906921Y-101056640D01*
X148883744Y-101077647D01*
X148858619Y-101096281D01*
X148831789Y-101112362D01*
X148803511Y-101125737D01*
X148774059Y-101136275D01*
X148743716Y-101143875D01*
X148712774Y-101148465D01*
X148681531Y-101150000D01*
X147969031Y-101150000D01*
X147937788Y-101148465D01*
X147906846Y-101143875D01*
X147876503Y-101136275D01*
X147847051Y-101125737D01*
X147818773Y-101112362D01*
X147791943Y-101096281D01*
X147766818Y-101077647D01*
X147743641Y-101056640D01*
X147722634Y-101033463D01*
X147704000Y-101008338D01*
X147687919Y-100981508D01*
X147674544Y-100953230D01*
X147664006Y-100923778D01*
X147656406Y-100893435D01*
X147651816Y-100862493D01*
X147650281Y-100831250D01*
X147650281Y-100193750D01*
X147651816Y-100162507D01*
X147656406Y-100131565D01*
X147664006Y-100101222D01*
X147674544Y-100071770D01*
X147687919Y-100043492D01*
X147704000Y-100016662D01*
X147722634Y-99991537D01*
X147743641Y-99968360D01*
X147766818Y-99947353D01*
X147791943Y-99928719D01*
X147818773Y-99912638D01*
X147847051Y-99899263D01*
X147876503Y-99888725D01*
X147906846Y-99881125D01*
X147937788Y-99876535D01*
X147969031Y-99875000D01*
X148681531Y-99875000D01*
X148712774Y-99876535D01*
X148712774Y-99876535D01*
G37*
D12*
X148325281Y-100512500D03*
D11*
G36*
X148712774Y-101451535D02*
G01*
X148743716Y-101456125D01*
X148774059Y-101463725D01*
X148803511Y-101474263D01*
X148831789Y-101487638D01*
X148858619Y-101503719D01*
X148883744Y-101522353D01*
X148906921Y-101543360D01*
X148927928Y-101566537D01*
X148946562Y-101591662D01*
X148962643Y-101618492D01*
X148976018Y-101646770D01*
X148986556Y-101676222D01*
X148994156Y-101706565D01*
X148998746Y-101737507D01*
X149000281Y-101768750D01*
X149000281Y-102406250D01*
X148998746Y-102437493D01*
X148994156Y-102468435D01*
X148986556Y-102498778D01*
X148976018Y-102528230D01*
X148962643Y-102556508D01*
X148946562Y-102583338D01*
X148927928Y-102608463D01*
X148906921Y-102631640D01*
X148883744Y-102652647D01*
X148858619Y-102671281D01*
X148831789Y-102687362D01*
X148803511Y-102700737D01*
X148774059Y-102711275D01*
X148743716Y-102718875D01*
X148712774Y-102723465D01*
X148681531Y-102725000D01*
X147969031Y-102725000D01*
X147937788Y-102723465D01*
X147906846Y-102718875D01*
X147876503Y-102711275D01*
X147847051Y-102700737D01*
X147818773Y-102687362D01*
X147791943Y-102671281D01*
X147766818Y-102652647D01*
X147743641Y-102631640D01*
X147722634Y-102608463D01*
X147704000Y-102583338D01*
X147687919Y-102556508D01*
X147674544Y-102528230D01*
X147664006Y-102498778D01*
X147656406Y-102468435D01*
X147651816Y-102437493D01*
X147650281Y-102406250D01*
X147650281Y-101768750D01*
X147651816Y-101737507D01*
X147656406Y-101706565D01*
X147664006Y-101676222D01*
X147674544Y-101646770D01*
X147687919Y-101618492D01*
X147704000Y-101591662D01*
X147722634Y-101566537D01*
X147743641Y-101543360D01*
X147766818Y-101522353D01*
X147791943Y-101503719D01*
X147818773Y-101487638D01*
X147847051Y-101474263D01*
X147876503Y-101463725D01*
X147906846Y-101456125D01*
X147937788Y-101451535D01*
X147969031Y-101450000D01*
X148681531Y-101450000D01*
X148712774Y-101451535D01*
X148712774Y-101451535D01*
G37*
D12*
X148325281Y-102087500D03*
D11*
G36*
X132046074Y-99876535D02*
G01*
X132077016Y-99881125D01*
X132107359Y-99888725D01*
X132136811Y-99899263D01*
X132165089Y-99912638D01*
X132191919Y-99928719D01*
X132217044Y-99947353D01*
X132240221Y-99968360D01*
X132261228Y-99991537D01*
X132279862Y-100016662D01*
X132295943Y-100043492D01*
X132309318Y-100071770D01*
X132319856Y-100101222D01*
X132327456Y-100131565D01*
X132332046Y-100162507D01*
X132333581Y-100193750D01*
X132333581Y-100831250D01*
X132332046Y-100862493D01*
X132327456Y-100893435D01*
X132319856Y-100923778D01*
X132309318Y-100953230D01*
X132295943Y-100981508D01*
X132279862Y-101008338D01*
X132261228Y-101033463D01*
X132240221Y-101056640D01*
X132217044Y-101077647D01*
X132191919Y-101096281D01*
X132165089Y-101112362D01*
X132136811Y-101125737D01*
X132107359Y-101136275D01*
X132077016Y-101143875D01*
X132046074Y-101148465D01*
X132014831Y-101150000D01*
X131302331Y-101150000D01*
X131271088Y-101148465D01*
X131240146Y-101143875D01*
X131209803Y-101136275D01*
X131180351Y-101125737D01*
X131152073Y-101112362D01*
X131125243Y-101096281D01*
X131100118Y-101077647D01*
X131076941Y-101056640D01*
X131055934Y-101033463D01*
X131037300Y-101008338D01*
X131021219Y-100981508D01*
X131007844Y-100953230D01*
X130997306Y-100923778D01*
X130989706Y-100893435D01*
X130985116Y-100862493D01*
X130983581Y-100831250D01*
X130983581Y-100193750D01*
X130985116Y-100162507D01*
X130989706Y-100131565D01*
X130997306Y-100101222D01*
X131007844Y-100071770D01*
X131021219Y-100043492D01*
X131037300Y-100016662D01*
X131055934Y-99991537D01*
X131076941Y-99968360D01*
X131100118Y-99947353D01*
X131125243Y-99928719D01*
X131152073Y-99912638D01*
X131180351Y-99899263D01*
X131209803Y-99888725D01*
X131240146Y-99881125D01*
X131271088Y-99876535D01*
X131302331Y-99875000D01*
X132014831Y-99875000D01*
X132046074Y-99876535D01*
X132046074Y-99876535D01*
G37*
D12*
X131658581Y-100512500D03*
D11*
G36*
X132046074Y-101451535D02*
G01*
X132077016Y-101456125D01*
X132107359Y-101463725D01*
X132136811Y-101474263D01*
X132165089Y-101487638D01*
X132191919Y-101503719D01*
X132217044Y-101522353D01*
X132240221Y-101543360D01*
X132261228Y-101566537D01*
X132279862Y-101591662D01*
X132295943Y-101618492D01*
X132309318Y-101646770D01*
X132319856Y-101676222D01*
X132327456Y-101706565D01*
X132332046Y-101737507D01*
X132333581Y-101768750D01*
X132333581Y-102406250D01*
X132332046Y-102437493D01*
X132327456Y-102468435D01*
X132319856Y-102498778D01*
X132309318Y-102528230D01*
X132295943Y-102556508D01*
X132279862Y-102583338D01*
X132261228Y-102608463D01*
X132240221Y-102631640D01*
X132217044Y-102652647D01*
X132191919Y-102671281D01*
X132165089Y-102687362D01*
X132136811Y-102700737D01*
X132107359Y-102711275D01*
X132077016Y-102718875D01*
X132046074Y-102723465D01*
X132014831Y-102725000D01*
X131302331Y-102725000D01*
X131271088Y-102723465D01*
X131240146Y-102718875D01*
X131209803Y-102711275D01*
X131180351Y-102700737D01*
X131152073Y-102687362D01*
X131125243Y-102671281D01*
X131100118Y-102652647D01*
X131076941Y-102631640D01*
X131055934Y-102608463D01*
X131037300Y-102583338D01*
X131021219Y-102556508D01*
X131007844Y-102528230D01*
X130997306Y-102498778D01*
X130989706Y-102468435D01*
X130985116Y-102437493D01*
X130983581Y-102406250D01*
X130983581Y-101768750D01*
X130985116Y-101737507D01*
X130989706Y-101706565D01*
X130997306Y-101676222D01*
X131007844Y-101646770D01*
X131021219Y-101618492D01*
X131037300Y-101591662D01*
X131055934Y-101566537D01*
X131076941Y-101543360D01*
X131100118Y-101522353D01*
X131125243Y-101503719D01*
X131152073Y-101487638D01*
X131180351Y-101474263D01*
X131209803Y-101463725D01*
X131240146Y-101456125D01*
X131271088Y-101451535D01*
X131302331Y-101450000D01*
X132014831Y-101450000D01*
X132046074Y-101451535D01*
X132046074Y-101451535D01*
G37*
D12*
X131658581Y-102087500D03*
D11*
G36*
X115379374Y-99876535D02*
G01*
X115410316Y-99881125D01*
X115440659Y-99888725D01*
X115470111Y-99899263D01*
X115498389Y-99912638D01*
X115525219Y-99928719D01*
X115550344Y-99947353D01*
X115573521Y-99968360D01*
X115594528Y-99991537D01*
X115613162Y-100016662D01*
X115629243Y-100043492D01*
X115642618Y-100071770D01*
X115653156Y-100101222D01*
X115660756Y-100131565D01*
X115665346Y-100162507D01*
X115666881Y-100193750D01*
X115666881Y-100831250D01*
X115665346Y-100862493D01*
X115660756Y-100893435D01*
X115653156Y-100923778D01*
X115642618Y-100953230D01*
X115629243Y-100981508D01*
X115613162Y-101008338D01*
X115594528Y-101033463D01*
X115573521Y-101056640D01*
X115550344Y-101077647D01*
X115525219Y-101096281D01*
X115498389Y-101112362D01*
X115470111Y-101125737D01*
X115440659Y-101136275D01*
X115410316Y-101143875D01*
X115379374Y-101148465D01*
X115348131Y-101150000D01*
X114635631Y-101150000D01*
X114604388Y-101148465D01*
X114573446Y-101143875D01*
X114543103Y-101136275D01*
X114513651Y-101125737D01*
X114485373Y-101112362D01*
X114458543Y-101096281D01*
X114433418Y-101077647D01*
X114410241Y-101056640D01*
X114389234Y-101033463D01*
X114370600Y-101008338D01*
X114354519Y-100981508D01*
X114341144Y-100953230D01*
X114330606Y-100923778D01*
X114323006Y-100893435D01*
X114318416Y-100862493D01*
X114316881Y-100831250D01*
X114316881Y-100193750D01*
X114318416Y-100162507D01*
X114323006Y-100131565D01*
X114330606Y-100101222D01*
X114341144Y-100071770D01*
X114354519Y-100043492D01*
X114370600Y-100016662D01*
X114389234Y-99991537D01*
X114410241Y-99968360D01*
X114433418Y-99947353D01*
X114458543Y-99928719D01*
X114485373Y-99912638D01*
X114513651Y-99899263D01*
X114543103Y-99888725D01*
X114573446Y-99881125D01*
X114604388Y-99876535D01*
X114635631Y-99875000D01*
X115348131Y-99875000D01*
X115379374Y-99876535D01*
X115379374Y-99876535D01*
G37*
D12*
X114991881Y-100512500D03*
D11*
G36*
X115379374Y-101451535D02*
G01*
X115410316Y-101456125D01*
X115440659Y-101463725D01*
X115470111Y-101474263D01*
X115498389Y-101487638D01*
X115525219Y-101503719D01*
X115550344Y-101522353D01*
X115573521Y-101543360D01*
X115594528Y-101566537D01*
X115613162Y-101591662D01*
X115629243Y-101618492D01*
X115642618Y-101646770D01*
X115653156Y-101676222D01*
X115660756Y-101706565D01*
X115665346Y-101737507D01*
X115666881Y-101768750D01*
X115666881Y-102406250D01*
X115665346Y-102437493D01*
X115660756Y-102468435D01*
X115653156Y-102498778D01*
X115642618Y-102528230D01*
X115629243Y-102556508D01*
X115613162Y-102583338D01*
X115594528Y-102608463D01*
X115573521Y-102631640D01*
X115550344Y-102652647D01*
X115525219Y-102671281D01*
X115498389Y-102687362D01*
X115470111Y-102700737D01*
X115440659Y-102711275D01*
X115410316Y-102718875D01*
X115379374Y-102723465D01*
X115348131Y-102725000D01*
X114635631Y-102725000D01*
X114604388Y-102723465D01*
X114573446Y-102718875D01*
X114543103Y-102711275D01*
X114513651Y-102700737D01*
X114485373Y-102687362D01*
X114458543Y-102671281D01*
X114433418Y-102652647D01*
X114410241Y-102631640D01*
X114389234Y-102608463D01*
X114370600Y-102583338D01*
X114354519Y-102556508D01*
X114341144Y-102528230D01*
X114330606Y-102498778D01*
X114323006Y-102468435D01*
X114318416Y-102437493D01*
X114316881Y-102406250D01*
X114316881Y-101768750D01*
X114318416Y-101737507D01*
X114323006Y-101706565D01*
X114330606Y-101676222D01*
X114341144Y-101646770D01*
X114354519Y-101618492D01*
X114370600Y-101591662D01*
X114389234Y-101566537D01*
X114410241Y-101543360D01*
X114433418Y-101522353D01*
X114458543Y-101503719D01*
X114485373Y-101487638D01*
X114513651Y-101474263D01*
X114543103Y-101463725D01*
X114573446Y-101456125D01*
X114604388Y-101451535D01*
X114635631Y-101450000D01*
X115348131Y-101450000D01*
X115379374Y-101451535D01*
X115379374Y-101451535D01*
G37*
D12*
X114991881Y-102087500D03*
D11*
G36*
X98712674Y-99876535D02*
G01*
X98743616Y-99881125D01*
X98773959Y-99888725D01*
X98803411Y-99899263D01*
X98831689Y-99912638D01*
X98858519Y-99928719D01*
X98883644Y-99947353D01*
X98906821Y-99968360D01*
X98927828Y-99991537D01*
X98946462Y-100016662D01*
X98962543Y-100043492D01*
X98975918Y-100071770D01*
X98986456Y-100101222D01*
X98994056Y-100131565D01*
X98998646Y-100162507D01*
X99000181Y-100193750D01*
X99000181Y-100831250D01*
X98998646Y-100862493D01*
X98994056Y-100893435D01*
X98986456Y-100923778D01*
X98975918Y-100953230D01*
X98962543Y-100981508D01*
X98946462Y-101008338D01*
X98927828Y-101033463D01*
X98906821Y-101056640D01*
X98883644Y-101077647D01*
X98858519Y-101096281D01*
X98831689Y-101112362D01*
X98803411Y-101125737D01*
X98773959Y-101136275D01*
X98743616Y-101143875D01*
X98712674Y-101148465D01*
X98681431Y-101150000D01*
X97968931Y-101150000D01*
X97937688Y-101148465D01*
X97906746Y-101143875D01*
X97876403Y-101136275D01*
X97846951Y-101125737D01*
X97818673Y-101112362D01*
X97791843Y-101096281D01*
X97766718Y-101077647D01*
X97743541Y-101056640D01*
X97722534Y-101033463D01*
X97703900Y-101008338D01*
X97687819Y-100981508D01*
X97674444Y-100953230D01*
X97663906Y-100923778D01*
X97656306Y-100893435D01*
X97651716Y-100862493D01*
X97650181Y-100831250D01*
X97650181Y-100193750D01*
X97651716Y-100162507D01*
X97656306Y-100131565D01*
X97663906Y-100101222D01*
X97674444Y-100071770D01*
X97687819Y-100043492D01*
X97703900Y-100016662D01*
X97722534Y-99991537D01*
X97743541Y-99968360D01*
X97766718Y-99947353D01*
X97791843Y-99928719D01*
X97818673Y-99912638D01*
X97846951Y-99899263D01*
X97876403Y-99888725D01*
X97906746Y-99881125D01*
X97937688Y-99876535D01*
X97968931Y-99875000D01*
X98681431Y-99875000D01*
X98712674Y-99876535D01*
X98712674Y-99876535D01*
G37*
D12*
X98325181Y-100512500D03*
D11*
G36*
X98712674Y-101451535D02*
G01*
X98743616Y-101456125D01*
X98773959Y-101463725D01*
X98803411Y-101474263D01*
X98831689Y-101487638D01*
X98858519Y-101503719D01*
X98883644Y-101522353D01*
X98906821Y-101543360D01*
X98927828Y-101566537D01*
X98946462Y-101591662D01*
X98962543Y-101618492D01*
X98975918Y-101646770D01*
X98986456Y-101676222D01*
X98994056Y-101706565D01*
X98998646Y-101737507D01*
X99000181Y-101768750D01*
X99000181Y-102406250D01*
X98998646Y-102437493D01*
X98994056Y-102468435D01*
X98986456Y-102498778D01*
X98975918Y-102528230D01*
X98962543Y-102556508D01*
X98946462Y-102583338D01*
X98927828Y-102608463D01*
X98906821Y-102631640D01*
X98883644Y-102652647D01*
X98858519Y-102671281D01*
X98831689Y-102687362D01*
X98803411Y-102700737D01*
X98773959Y-102711275D01*
X98743616Y-102718875D01*
X98712674Y-102723465D01*
X98681431Y-102725000D01*
X97968931Y-102725000D01*
X97937688Y-102723465D01*
X97906746Y-102718875D01*
X97876403Y-102711275D01*
X97846951Y-102700737D01*
X97818673Y-102687362D01*
X97791843Y-102671281D01*
X97766718Y-102652647D01*
X97743541Y-102631640D01*
X97722534Y-102608463D01*
X97703900Y-102583338D01*
X97687819Y-102556508D01*
X97674444Y-102528230D01*
X97663906Y-102498778D01*
X97656306Y-102468435D01*
X97651716Y-102437493D01*
X97650181Y-102406250D01*
X97650181Y-101768750D01*
X97651716Y-101737507D01*
X97656306Y-101706565D01*
X97663906Y-101676222D01*
X97674444Y-101646770D01*
X97687819Y-101618492D01*
X97703900Y-101591662D01*
X97722534Y-101566537D01*
X97743541Y-101543360D01*
X97766718Y-101522353D01*
X97791843Y-101503719D01*
X97818673Y-101487638D01*
X97846951Y-101474263D01*
X97876403Y-101463725D01*
X97906746Y-101456125D01*
X97937688Y-101451535D01*
X97968931Y-101450000D01*
X98681431Y-101450000D01*
X98712674Y-101451535D01*
X98712674Y-101451535D01*
G37*
D12*
X98325181Y-102087500D03*
D11*
G36*
X82045974Y-99876535D02*
G01*
X82076916Y-99881125D01*
X82107259Y-99888725D01*
X82136711Y-99899263D01*
X82164989Y-99912638D01*
X82191819Y-99928719D01*
X82216944Y-99947353D01*
X82240121Y-99968360D01*
X82261128Y-99991537D01*
X82279762Y-100016662D01*
X82295843Y-100043492D01*
X82309218Y-100071770D01*
X82319756Y-100101222D01*
X82327356Y-100131565D01*
X82331946Y-100162507D01*
X82333481Y-100193750D01*
X82333481Y-100831250D01*
X82331946Y-100862493D01*
X82327356Y-100893435D01*
X82319756Y-100923778D01*
X82309218Y-100953230D01*
X82295843Y-100981508D01*
X82279762Y-101008338D01*
X82261128Y-101033463D01*
X82240121Y-101056640D01*
X82216944Y-101077647D01*
X82191819Y-101096281D01*
X82164989Y-101112362D01*
X82136711Y-101125737D01*
X82107259Y-101136275D01*
X82076916Y-101143875D01*
X82045974Y-101148465D01*
X82014731Y-101150000D01*
X81302231Y-101150000D01*
X81270988Y-101148465D01*
X81240046Y-101143875D01*
X81209703Y-101136275D01*
X81180251Y-101125737D01*
X81151973Y-101112362D01*
X81125143Y-101096281D01*
X81100018Y-101077647D01*
X81076841Y-101056640D01*
X81055834Y-101033463D01*
X81037200Y-101008338D01*
X81021119Y-100981508D01*
X81007744Y-100953230D01*
X80997206Y-100923778D01*
X80989606Y-100893435D01*
X80985016Y-100862493D01*
X80983481Y-100831250D01*
X80983481Y-100193750D01*
X80985016Y-100162507D01*
X80989606Y-100131565D01*
X80997206Y-100101222D01*
X81007744Y-100071770D01*
X81021119Y-100043492D01*
X81037200Y-100016662D01*
X81055834Y-99991537D01*
X81076841Y-99968360D01*
X81100018Y-99947353D01*
X81125143Y-99928719D01*
X81151973Y-99912638D01*
X81180251Y-99899263D01*
X81209703Y-99888725D01*
X81240046Y-99881125D01*
X81270988Y-99876535D01*
X81302231Y-99875000D01*
X82014731Y-99875000D01*
X82045974Y-99876535D01*
X82045974Y-99876535D01*
G37*
D12*
X81658481Y-100512500D03*
D11*
G36*
X82045974Y-101451535D02*
G01*
X82076916Y-101456125D01*
X82107259Y-101463725D01*
X82136711Y-101474263D01*
X82164989Y-101487638D01*
X82191819Y-101503719D01*
X82216944Y-101522353D01*
X82240121Y-101543360D01*
X82261128Y-101566537D01*
X82279762Y-101591662D01*
X82295843Y-101618492D01*
X82309218Y-101646770D01*
X82319756Y-101676222D01*
X82327356Y-101706565D01*
X82331946Y-101737507D01*
X82333481Y-101768750D01*
X82333481Y-102406250D01*
X82331946Y-102437493D01*
X82327356Y-102468435D01*
X82319756Y-102498778D01*
X82309218Y-102528230D01*
X82295843Y-102556508D01*
X82279762Y-102583338D01*
X82261128Y-102608463D01*
X82240121Y-102631640D01*
X82216944Y-102652647D01*
X82191819Y-102671281D01*
X82164989Y-102687362D01*
X82136711Y-102700737D01*
X82107259Y-102711275D01*
X82076916Y-102718875D01*
X82045974Y-102723465D01*
X82014731Y-102725000D01*
X81302231Y-102725000D01*
X81270988Y-102723465D01*
X81240046Y-102718875D01*
X81209703Y-102711275D01*
X81180251Y-102700737D01*
X81151973Y-102687362D01*
X81125143Y-102671281D01*
X81100018Y-102652647D01*
X81076841Y-102631640D01*
X81055834Y-102608463D01*
X81037200Y-102583338D01*
X81021119Y-102556508D01*
X81007744Y-102528230D01*
X80997206Y-102498778D01*
X80989606Y-102468435D01*
X80985016Y-102437493D01*
X80983481Y-102406250D01*
X80983481Y-101768750D01*
X80985016Y-101737507D01*
X80989606Y-101706565D01*
X80997206Y-101676222D01*
X81007744Y-101646770D01*
X81021119Y-101618492D01*
X81037200Y-101591662D01*
X81055834Y-101566537D01*
X81076841Y-101543360D01*
X81100018Y-101522353D01*
X81125143Y-101503719D01*
X81151973Y-101487638D01*
X81180251Y-101474263D01*
X81209703Y-101463725D01*
X81240046Y-101456125D01*
X81270988Y-101451535D01*
X81302231Y-101450000D01*
X82014731Y-101450000D01*
X82045974Y-101451535D01*
X82045974Y-101451535D01*
G37*
D12*
X81658481Y-102087500D03*
D10*
X77450150Y-103100000D03*
X77450150Y-101500000D03*
X77450150Y-99900000D03*
X72550150Y-103100000D03*
X72550150Y-101500000D03*
X72550150Y-99900000D03*
X110783550Y-103100000D03*
X110783550Y-101500000D03*
X110783550Y-99900000D03*
X105883550Y-103100000D03*
X105883550Y-101500000D03*
X105883550Y-99900000D03*
X160783650Y-103100000D03*
X160783650Y-101500000D03*
X160783650Y-99900000D03*
X155883650Y-103100000D03*
X155883650Y-101500000D03*
X155883650Y-99900000D03*
X177450350Y-103100000D03*
X177450350Y-101500000D03*
X177450350Y-99900000D03*
X172550350Y-103100000D03*
X172550350Y-101500000D03*
X172550350Y-99900000D03*
X194117050Y-103100000D03*
X194117050Y-101500000D03*
X194117050Y-99900000D03*
X189217050Y-103100000D03*
X189217050Y-101500000D03*
X189217050Y-99900000D03*
X210783750Y-103100000D03*
X210783750Y-101500000D03*
X210783750Y-99900000D03*
X205883750Y-103100000D03*
X205883750Y-101500000D03*
X205883750Y-99900000D03*
X227450450Y-103100000D03*
X227450450Y-101500000D03*
X227450450Y-99900000D03*
X222550450Y-103100000D03*
X222550450Y-101500000D03*
X222550450Y-99900000D03*
X244117150Y-103100000D03*
X244117150Y-101500000D03*
X244117150Y-99900000D03*
X239217150Y-103100000D03*
X239217150Y-101500000D03*
X239217150Y-99900000D03*
X260783850Y-103100000D03*
X260783850Y-101500000D03*
X260783850Y-99900000D03*
X255883850Y-103100000D03*
X255883850Y-101500000D03*
X255883850Y-99900000D03*
X277450550Y-103100000D03*
X277450550Y-101500000D03*
X277450550Y-99900000D03*
X272550550Y-103100000D03*
X272550550Y-101500000D03*
X272550550Y-99900000D03*
X294117250Y-103100000D03*
X294117250Y-101500000D03*
X294117250Y-99900000D03*
X289217250Y-103100000D03*
X289217250Y-101500000D03*
X289217250Y-99900000D03*
M02*
