G04 #@! TF.GenerationSoftware,KiCad,Pcbnew,(5.1.0-0)*
G04 #@! TF.CreationDate,2019-04-22T12:47:30-07:00*
G04 #@! TF.ProjectId,EOutside,454f7574-7369-4646-952e-6b696361645f,rev?*
G04 #@! TF.SameCoordinates,Original*
G04 #@! TF.FileFunction,Copper,L2,Inr*
G04 #@! TF.FilePolarity,Positive*
%FSLAX46Y46*%
G04 Gerber Fmt 4.6, Leading zero omitted, Abs format (unit mm)*
G04 Created by KiCad (PCBNEW (5.1.0-0)) date 2019-04-22 12:47:30*
%MOMM*%
%LPD*%
G04 APERTURE LIST*
%ADD10R,2.500000X1.200000*%
%ADD11O,4.000000X1.200000*%
%ADD12C,1.000000*%
%ADD13C,0.254000*%
G04 APERTURE END LIST*
D10*
X315167300Y-103700000D03*
X315167300Y-102233332D03*
X315167300Y-100766666D03*
X315167300Y-99300000D03*
D11*
X300000600Y-103700000D03*
X300000600Y-102233332D03*
X300000600Y-100766666D03*
X300000600Y-99300000D03*
X283333900Y-103700000D03*
X283333900Y-102233332D03*
X283333900Y-100766666D03*
X283333900Y-99300000D03*
X266667200Y-103700000D03*
X266667200Y-102233332D03*
X266667200Y-100766666D03*
X266667200Y-99300000D03*
D10*
X68166800Y-103700000D03*
X68166800Y-102233332D03*
X68166800Y-100766666D03*
X68166800Y-99300000D03*
D12*
X240717152Y-101500000D03*
X224050452Y-101500000D03*
X207383752Y-101500000D03*
X190717052Y-101500000D03*
X174050352Y-101500000D03*
X157383652Y-101500000D03*
X140716952Y-101500000D03*
X124050252Y-101500000D03*
X107383552Y-101500000D03*
X90716852Y-101500000D03*
X74050152Y-101500000D03*
X257376876Y-100897905D03*
X75304914Y-101481954D03*
X83224891Y-101599821D03*
X307513792Y-101636404D03*
X290847092Y-101636404D03*
X237653796Y-101520000D03*
X220987096Y-101520000D03*
X204320396Y-101520000D03*
X187653696Y-101520000D03*
X170986996Y-101520000D03*
X154320296Y-101520000D03*
X137653596Y-101520000D03*
X120986896Y-101520000D03*
X104320196Y-101520000D03*
X87653496Y-101520000D03*
X70986796Y-101520000D03*
X84516796Y-100575000D03*
X101416796Y-101499994D03*
X118166796Y-101550004D03*
X134866796Y-101550000D03*
X151466796Y-101550000D03*
X168166796Y-101550000D03*
X184966796Y-101550002D03*
X201366796Y-101550000D03*
X218266796Y-101550000D03*
X234966796Y-101650000D03*
X250366796Y-101650000D03*
X274180392Y-101636404D03*
X259266796Y-101150000D03*
X233225191Y-101599821D03*
X225305214Y-101481954D03*
X290833496Y-103150000D03*
X275366796Y-102350000D03*
X116558291Y-101599821D03*
X108638314Y-101481954D03*
X99891591Y-101599821D03*
X91971614Y-101481954D03*
X133224991Y-101599821D03*
X125305014Y-101481954D03*
X149891691Y-101599821D03*
X141971714Y-101481954D03*
X166558391Y-101599821D03*
X158638414Y-101481954D03*
X183225091Y-101599821D03*
X175305114Y-101481954D03*
X199891791Y-101599821D03*
X191971814Y-101481954D03*
X216558491Y-101599821D03*
X208638514Y-101481954D03*
X241971914Y-101481954D03*
X251766796Y-101650004D03*
X274166796Y-103150000D03*
X257966796Y-101999958D03*
X307500196Y-103150000D03*
X292033496Y-102350000D03*
X275766796Y-100650000D03*
X308700196Y-102350000D03*
X292433496Y-100650000D03*
X309100196Y-100650000D03*
D13*
G36*
X264073738Y-98982391D02*
G01*
X264198469Y-99173000D01*
X266540200Y-99173000D01*
X266540200Y-99153000D01*
X266794200Y-99153000D01*
X266794200Y-99173000D01*
X269135931Y-99173000D01*
X269260662Y-98982391D01*
X269258361Y-98960000D01*
X280742739Y-98960000D01*
X280740438Y-98982391D01*
X280865169Y-99173000D01*
X283206900Y-99173000D01*
X283206900Y-99153000D01*
X283460900Y-99153000D01*
X283460900Y-99173000D01*
X285802631Y-99173000D01*
X285927362Y-98982391D01*
X285925061Y-98960000D01*
X297409439Y-98960000D01*
X297407138Y-98982391D01*
X297531869Y-99173000D01*
X299873600Y-99173000D01*
X299873600Y-99153000D01*
X300127600Y-99153000D01*
X300127600Y-99173000D01*
X302469331Y-99173000D01*
X302594062Y-98982391D01*
X302591761Y-98960000D01*
X313281770Y-98960000D01*
X313282300Y-99014250D01*
X313441050Y-99173000D01*
X315040300Y-99173000D01*
X315040300Y-99153000D01*
X315294300Y-99153000D01*
X315294300Y-99173000D01*
X315314300Y-99173000D01*
X315314300Y-99427000D01*
X315294300Y-99427000D01*
X315294300Y-99447000D01*
X315040300Y-99447000D01*
X315040300Y-99427000D01*
X313441050Y-99427000D01*
X313282300Y-99585750D01*
X313279228Y-99900000D01*
X313291488Y-100024482D01*
X313294173Y-100033333D01*
X313291488Y-100042184D01*
X313279228Y-100166666D01*
X313279228Y-101366666D01*
X313291488Y-101491148D01*
X313294173Y-101499999D01*
X313291488Y-101508850D01*
X313279228Y-101633332D01*
X313279228Y-102833332D01*
X313291488Y-102957814D01*
X313294173Y-102966666D01*
X313291488Y-102975518D01*
X313279228Y-103100000D01*
X313279228Y-104040000D01*
X308211162Y-104040000D01*
X308223716Y-104031612D01*
X308381808Y-103873520D01*
X308506020Y-103687624D01*
X308589950Y-103485000D01*
X308811984Y-103485000D01*
X309031263Y-103441383D01*
X309237820Y-103355824D01*
X309423716Y-103231612D01*
X309581808Y-103073520D01*
X309706020Y-102887624D01*
X309791579Y-102681067D01*
X309835196Y-102461788D01*
X309835196Y-102238212D01*
X309791579Y-102018933D01*
X309706020Y-101812376D01*
X309609307Y-101667635D01*
X309637820Y-101655824D01*
X309823716Y-101531612D01*
X309981808Y-101373520D01*
X310106020Y-101187624D01*
X310191579Y-100981067D01*
X310235196Y-100761788D01*
X310235196Y-100538212D01*
X310191579Y-100318933D01*
X310106020Y-100112376D01*
X309981808Y-99926480D01*
X309823716Y-99768388D01*
X309637820Y-99644176D01*
X309431263Y-99558617D01*
X309211984Y-99515000D01*
X308988408Y-99515000D01*
X308769129Y-99558617D01*
X308562572Y-99644176D01*
X308376676Y-99768388D01*
X308218584Y-99926480D01*
X308094372Y-100112376D01*
X308008813Y-100318933D01*
X307965196Y-100538212D01*
X307965196Y-100594866D01*
X307844859Y-100545021D01*
X307625580Y-100501404D01*
X307402004Y-100501404D01*
X307182725Y-100545021D01*
X306976168Y-100630580D01*
X306790272Y-100754792D01*
X306632180Y-100912884D01*
X306507968Y-101098780D01*
X306422409Y-101305337D01*
X306378792Y-101524616D01*
X306378792Y-101748192D01*
X306422409Y-101967471D01*
X306507968Y-102174028D01*
X306632180Y-102359924D01*
X306658660Y-102386404D01*
X306618584Y-102426480D01*
X306494372Y-102612376D01*
X306408813Y-102818933D01*
X306365196Y-103038212D01*
X306365196Y-103261788D01*
X306408813Y-103481067D01*
X306494372Y-103687624D01*
X306618584Y-103873520D01*
X306776676Y-104031612D01*
X306789230Y-104040000D01*
X302588033Y-104040000D01*
X302617730Y-103942102D01*
X302641575Y-103700000D01*
X302617730Y-103457898D01*
X302547111Y-103225099D01*
X302432433Y-103010551D01*
X302396418Y-102966666D01*
X302432433Y-102922781D01*
X302547111Y-102708233D01*
X302617730Y-102475434D01*
X302641575Y-102233332D01*
X302617730Y-101991230D01*
X302547111Y-101758431D01*
X302432433Y-101543883D01*
X302396418Y-101499999D01*
X302432433Y-101456115D01*
X302547111Y-101241567D01*
X302617730Y-101008768D01*
X302641575Y-100766666D01*
X302617730Y-100524564D01*
X302547111Y-100291765D01*
X302432433Y-100077217D01*
X302396669Y-100033638D01*
X302498021Y-99880533D01*
X302590191Y-99655282D01*
X302594062Y-99617609D01*
X302469331Y-99427000D01*
X300127600Y-99427000D01*
X300127600Y-99447000D01*
X299873600Y-99447000D01*
X299873600Y-99427000D01*
X297531869Y-99427000D01*
X297407138Y-99617609D01*
X297411009Y-99655282D01*
X297503179Y-99880533D01*
X297604531Y-100033638D01*
X297568767Y-100077217D01*
X297454089Y-100291765D01*
X297383470Y-100524564D01*
X297359625Y-100766666D01*
X297383470Y-101008768D01*
X297454089Y-101241567D01*
X297568767Y-101456115D01*
X297604782Y-101499999D01*
X297568767Y-101543883D01*
X297454089Y-101758431D01*
X297383470Y-101991230D01*
X297359625Y-102233332D01*
X297383470Y-102475434D01*
X297454089Y-102708233D01*
X297568767Y-102922781D01*
X297604782Y-102966666D01*
X297568767Y-103010551D01*
X297454089Y-103225099D01*
X297383470Y-103457898D01*
X297359625Y-103700000D01*
X297383470Y-103942102D01*
X297413167Y-104040000D01*
X291544462Y-104040000D01*
X291557016Y-104031612D01*
X291715108Y-103873520D01*
X291839320Y-103687624D01*
X291923250Y-103485000D01*
X292145284Y-103485000D01*
X292364563Y-103441383D01*
X292571120Y-103355824D01*
X292757016Y-103231612D01*
X292915108Y-103073520D01*
X293039320Y-102887624D01*
X293124879Y-102681067D01*
X293168496Y-102461788D01*
X293168496Y-102238212D01*
X293124879Y-102018933D01*
X293039320Y-101812376D01*
X292942607Y-101667635D01*
X292971120Y-101655824D01*
X293157016Y-101531612D01*
X293315108Y-101373520D01*
X293439320Y-101187624D01*
X293524879Y-100981067D01*
X293568496Y-100761788D01*
X293568496Y-100538212D01*
X293524879Y-100318933D01*
X293439320Y-100112376D01*
X293315108Y-99926480D01*
X293157016Y-99768388D01*
X292971120Y-99644176D01*
X292764563Y-99558617D01*
X292545284Y-99515000D01*
X292321708Y-99515000D01*
X292102429Y-99558617D01*
X291895872Y-99644176D01*
X291709976Y-99768388D01*
X291551884Y-99926480D01*
X291427672Y-100112376D01*
X291342113Y-100318933D01*
X291298496Y-100538212D01*
X291298496Y-100594866D01*
X291178159Y-100545021D01*
X290958880Y-100501404D01*
X290735304Y-100501404D01*
X290516025Y-100545021D01*
X290309468Y-100630580D01*
X290123572Y-100754792D01*
X289965480Y-100912884D01*
X289841268Y-101098780D01*
X289755709Y-101305337D01*
X289712092Y-101524616D01*
X289712092Y-101748192D01*
X289755709Y-101967471D01*
X289841268Y-102174028D01*
X289965480Y-102359924D01*
X289991960Y-102386404D01*
X289951884Y-102426480D01*
X289827672Y-102612376D01*
X289742113Y-102818933D01*
X289698496Y-103038212D01*
X289698496Y-103261788D01*
X289742113Y-103481067D01*
X289827672Y-103687624D01*
X289951884Y-103873520D01*
X290109976Y-104031612D01*
X290122530Y-104040000D01*
X285921333Y-104040000D01*
X285951030Y-103942102D01*
X285974875Y-103700000D01*
X285951030Y-103457898D01*
X285880411Y-103225099D01*
X285765733Y-103010551D01*
X285729718Y-102966666D01*
X285765733Y-102922781D01*
X285880411Y-102708233D01*
X285951030Y-102475434D01*
X285974875Y-102233332D01*
X285951030Y-101991230D01*
X285880411Y-101758431D01*
X285765733Y-101543883D01*
X285729718Y-101499999D01*
X285765733Y-101456115D01*
X285880411Y-101241567D01*
X285951030Y-101008768D01*
X285974875Y-100766666D01*
X285951030Y-100524564D01*
X285880411Y-100291765D01*
X285765733Y-100077217D01*
X285729969Y-100033638D01*
X285831321Y-99880533D01*
X285923491Y-99655282D01*
X285927362Y-99617609D01*
X285802631Y-99427000D01*
X283460900Y-99427000D01*
X283460900Y-99447000D01*
X283206900Y-99447000D01*
X283206900Y-99427000D01*
X280865169Y-99427000D01*
X280740438Y-99617609D01*
X280744309Y-99655282D01*
X280836479Y-99880533D01*
X280937831Y-100033638D01*
X280902067Y-100077217D01*
X280787389Y-100291765D01*
X280716770Y-100524564D01*
X280692925Y-100766666D01*
X280716770Y-101008768D01*
X280787389Y-101241567D01*
X280902067Y-101456115D01*
X280938082Y-101499999D01*
X280902067Y-101543883D01*
X280787389Y-101758431D01*
X280716770Y-101991230D01*
X280692925Y-102233332D01*
X280716770Y-102475434D01*
X280787389Y-102708233D01*
X280902067Y-102922781D01*
X280938082Y-102966666D01*
X280902067Y-103010551D01*
X280787389Y-103225099D01*
X280716770Y-103457898D01*
X280692925Y-103700000D01*
X280716770Y-103942102D01*
X280746467Y-104040000D01*
X274877762Y-104040000D01*
X274890316Y-104031612D01*
X275048408Y-103873520D01*
X275172620Y-103687624D01*
X275256550Y-103485000D01*
X275478584Y-103485000D01*
X275697863Y-103441383D01*
X275904420Y-103355824D01*
X276090316Y-103231612D01*
X276248408Y-103073520D01*
X276372620Y-102887624D01*
X276458179Y-102681067D01*
X276501796Y-102461788D01*
X276501796Y-102238212D01*
X276458179Y-102018933D01*
X276372620Y-101812376D01*
X276275907Y-101667635D01*
X276304420Y-101655824D01*
X276490316Y-101531612D01*
X276648408Y-101373520D01*
X276772620Y-101187624D01*
X276858179Y-100981067D01*
X276901796Y-100761788D01*
X276901796Y-100538212D01*
X276858179Y-100318933D01*
X276772620Y-100112376D01*
X276648408Y-99926480D01*
X276490316Y-99768388D01*
X276304420Y-99644176D01*
X276097863Y-99558617D01*
X275878584Y-99515000D01*
X275655008Y-99515000D01*
X275435729Y-99558617D01*
X275229172Y-99644176D01*
X275043276Y-99768388D01*
X274885184Y-99926480D01*
X274760972Y-100112376D01*
X274675413Y-100318933D01*
X274631796Y-100538212D01*
X274631796Y-100594866D01*
X274511459Y-100545021D01*
X274292180Y-100501404D01*
X274068604Y-100501404D01*
X273849325Y-100545021D01*
X273642768Y-100630580D01*
X273456872Y-100754792D01*
X273298780Y-100912884D01*
X273174568Y-101098780D01*
X273089009Y-101305337D01*
X273045392Y-101524616D01*
X273045392Y-101748192D01*
X273089009Y-101967471D01*
X273174568Y-102174028D01*
X273298780Y-102359924D01*
X273325260Y-102386404D01*
X273285184Y-102426480D01*
X273160972Y-102612376D01*
X273075413Y-102818933D01*
X273031796Y-103038212D01*
X273031796Y-103261788D01*
X273075413Y-103481067D01*
X273160972Y-103687624D01*
X273285184Y-103873520D01*
X273443276Y-104031612D01*
X273455830Y-104040000D01*
X269254633Y-104040000D01*
X269284330Y-103942102D01*
X269308175Y-103700000D01*
X269284330Y-103457898D01*
X269213711Y-103225099D01*
X269099033Y-103010551D01*
X269063018Y-102966666D01*
X269099033Y-102922781D01*
X269213711Y-102708233D01*
X269284330Y-102475434D01*
X269308175Y-102233332D01*
X269284330Y-101991230D01*
X269213711Y-101758431D01*
X269099033Y-101543883D01*
X269063018Y-101499999D01*
X269099033Y-101456115D01*
X269213711Y-101241567D01*
X269284330Y-101008768D01*
X269308175Y-100766666D01*
X269284330Y-100524564D01*
X269213711Y-100291765D01*
X269099033Y-100077217D01*
X269063269Y-100033638D01*
X269164621Y-99880533D01*
X269256791Y-99655282D01*
X269260662Y-99617609D01*
X269135931Y-99427000D01*
X266794200Y-99427000D01*
X266794200Y-99447000D01*
X266540200Y-99447000D01*
X266540200Y-99427000D01*
X264198469Y-99427000D01*
X264073738Y-99617609D01*
X264077609Y-99655282D01*
X264169779Y-99880533D01*
X264271131Y-100033638D01*
X264235367Y-100077217D01*
X264120689Y-100291765D01*
X264050070Y-100524564D01*
X264026225Y-100766666D01*
X264050070Y-101008768D01*
X264120689Y-101241567D01*
X264235367Y-101456115D01*
X264271382Y-101499999D01*
X264235367Y-101543883D01*
X264120689Y-101758431D01*
X264050070Y-101991230D01*
X264026225Y-102233332D01*
X264050070Y-102475434D01*
X264120689Y-102708233D01*
X264235367Y-102922781D01*
X264271382Y-102966666D01*
X264235367Y-103010551D01*
X264120689Y-103225099D01*
X264050070Y-103457898D01*
X264026225Y-103700000D01*
X264050070Y-103942102D01*
X264079767Y-104040000D01*
X70054872Y-104040000D01*
X70054872Y-103100000D01*
X70042612Y-102975518D01*
X70039927Y-102966666D01*
X70042612Y-102957814D01*
X70054872Y-102833332D01*
X70054872Y-102168223D01*
X70105184Y-102243520D01*
X70263276Y-102401612D01*
X70449172Y-102525824D01*
X70655729Y-102611383D01*
X70875008Y-102655000D01*
X71098584Y-102655000D01*
X71317863Y-102611383D01*
X71524420Y-102525824D01*
X71710316Y-102401612D01*
X71868408Y-102243520D01*
X71992620Y-102057624D01*
X72078179Y-101851067D01*
X72121796Y-101631788D01*
X72121796Y-101408212D01*
X72114229Y-101370166D01*
X74169914Y-101370166D01*
X74169914Y-101593742D01*
X74213531Y-101813021D01*
X74299090Y-102019578D01*
X74423302Y-102205474D01*
X74581394Y-102363566D01*
X74767290Y-102487778D01*
X74973847Y-102573337D01*
X75193126Y-102616954D01*
X75416702Y-102616954D01*
X75635981Y-102573337D01*
X75842538Y-102487778D01*
X76028434Y-102363566D01*
X76186526Y-102205474D01*
X76310738Y-102019578D01*
X76396297Y-101813021D01*
X76439914Y-101593742D01*
X76439914Y-101488033D01*
X82089891Y-101488033D01*
X82089891Y-101711609D01*
X82133508Y-101930888D01*
X82219067Y-102137445D01*
X82343279Y-102323341D01*
X82501371Y-102481433D01*
X82687267Y-102605645D01*
X82893824Y-102691204D01*
X83113103Y-102734821D01*
X83336679Y-102734821D01*
X83555958Y-102691204D01*
X83762515Y-102605645D01*
X83948411Y-102481433D01*
X84106503Y-102323341D01*
X84230715Y-102137445D01*
X84316274Y-101930888D01*
X84359891Y-101711609D01*
X84359891Y-101701026D01*
X84405008Y-101710000D01*
X84628584Y-101710000D01*
X84847863Y-101666383D01*
X85054420Y-101580824D01*
X85240316Y-101456612D01*
X85288716Y-101408212D01*
X86518496Y-101408212D01*
X86518496Y-101631788D01*
X86562113Y-101851067D01*
X86647672Y-102057624D01*
X86771884Y-102243520D01*
X86929976Y-102401612D01*
X87115872Y-102525824D01*
X87322429Y-102611383D01*
X87541708Y-102655000D01*
X87765284Y-102655000D01*
X87984563Y-102611383D01*
X88191120Y-102525824D01*
X88377016Y-102401612D01*
X88535108Y-102243520D01*
X88659320Y-102057624D01*
X88744879Y-101851067D01*
X88788496Y-101631788D01*
X88788496Y-101408212D01*
X88780929Y-101370166D01*
X90836614Y-101370166D01*
X90836614Y-101593742D01*
X90880231Y-101813021D01*
X90965790Y-102019578D01*
X91090002Y-102205474D01*
X91248094Y-102363566D01*
X91433990Y-102487778D01*
X91640547Y-102573337D01*
X91859826Y-102616954D01*
X92083402Y-102616954D01*
X92302681Y-102573337D01*
X92509238Y-102487778D01*
X92695134Y-102363566D01*
X92853226Y-102205474D01*
X92977438Y-102019578D01*
X93062997Y-101813021D01*
X93106614Y-101593742D01*
X93106614Y-101488033D01*
X98756591Y-101488033D01*
X98756591Y-101711609D01*
X98800208Y-101930888D01*
X98885767Y-102137445D01*
X99009979Y-102323341D01*
X99168071Y-102481433D01*
X99353967Y-102605645D01*
X99560524Y-102691204D01*
X99779803Y-102734821D01*
X100003379Y-102734821D01*
X100222658Y-102691204D01*
X100429215Y-102605645D01*
X100615111Y-102481433D01*
X100706261Y-102390283D01*
X100879172Y-102505818D01*
X101085729Y-102591377D01*
X101305008Y-102634994D01*
X101528584Y-102634994D01*
X101747863Y-102591377D01*
X101954420Y-102505818D01*
X102140316Y-102381606D01*
X102298408Y-102223514D01*
X102422620Y-102037618D01*
X102508179Y-101831061D01*
X102551796Y-101611782D01*
X102551796Y-101408212D01*
X103185196Y-101408212D01*
X103185196Y-101631788D01*
X103228813Y-101851067D01*
X103314372Y-102057624D01*
X103438584Y-102243520D01*
X103596676Y-102401612D01*
X103782572Y-102525824D01*
X103989129Y-102611383D01*
X104208408Y-102655000D01*
X104431984Y-102655000D01*
X104651263Y-102611383D01*
X104857820Y-102525824D01*
X105043716Y-102401612D01*
X105201808Y-102243520D01*
X105326020Y-102057624D01*
X105411579Y-101851067D01*
X105455196Y-101631788D01*
X105455196Y-101408212D01*
X105447629Y-101370166D01*
X107503314Y-101370166D01*
X107503314Y-101593742D01*
X107546931Y-101813021D01*
X107632490Y-102019578D01*
X107756702Y-102205474D01*
X107914794Y-102363566D01*
X108100690Y-102487778D01*
X108307247Y-102573337D01*
X108526526Y-102616954D01*
X108750102Y-102616954D01*
X108969381Y-102573337D01*
X109175938Y-102487778D01*
X109361834Y-102363566D01*
X109519926Y-102205474D01*
X109644138Y-102019578D01*
X109729697Y-101813021D01*
X109773314Y-101593742D01*
X109773314Y-101488033D01*
X115423291Y-101488033D01*
X115423291Y-101711609D01*
X115466908Y-101930888D01*
X115552467Y-102137445D01*
X115676679Y-102323341D01*
X115834771Y-102481433D01*
X116020667Y-102605645D01*
X116227224Y-102691204D01*
X116446503Y-102734821D01*
X116670079Y-102734821D01*
X116889358Y-102691204D01*
X117095915Y-102605645D01*
X117281811Y-102481433D01*
X117387452Y-102375792D01*
X117443276Y-102431616D01*
X117629172Y-102555828D01*
X117835729Y-102641387D01*
X118055008Y-102685004D01*
X118278584Y-102685004D01*
X118497863Y-102641387D01*
X118704420Y-102555828D01*
X118890316Y-102431616D01*
X119048408Y-102273524D01*
X119172620Y-102087628D01*
X119258179Y-101881071D01*
X119301796Y-101661792D01*
X119301796Y-101438216D01*
X119295828Y-101408212D01*
X119851896Y-101408212D01*
X119851896Y-101631788D01*
X119895513Y-101851067D01*
X119981072Y-102057624D01*
X120105284Y-102243520D01*
X120263376Y-102401612D01*
X120449272Y-102525824D01*
X120655829Y-102611383D01*
X120875108Y-102655000D01*
X121098684Y-102655000D01*
X121317963Y-102611383D01*
X121524520Y-102525824D01*
X121710416Y-102401612D01*
X121868508Y-102243520D01*
X121992720Y-102057624D01*
X122078279Y-101851067D01*
X122121896Y-101631788D01*
X122121896Y-101408212D01*
X122114329Y-101370166D01*
X124170014Y-101370166D01*
X124170014Y-101593742D01*
X124213631Y-101813021D01*
X124299190Y-102019578D01*
X124423402Y-102205474D01*
X124581494Y-102363566D01*
X124767390Y-102487778D01*
X124973947Y-102573337D01*
X125193226Y-102616954D01*
X125416802Y-102616954D01*
X125636081Y-102573337D01*
X125842638Y-102487778D01*
X126028534Y-102363566D01*
X126186626Y-102205474D01*
X126310838Y-102019578D01*
X126396397Y-101813021D01*
X126440014Y-101593742D01*
X126440014Y-101488033D01*
X132089991Y-101488033D01*
X132089991Y-101711609D01*
X132133608Y-101930888D01*
X132219167Y-102137445D01*
X132343379Y-102323341D01*
X132501471Y-102481433D01*
X132687367Y-102605645D01*
X132893924Y-102691204D01*
X133113203Y-102734821D01*
X133336779Y-102734821D01*
X133556058Y-102691204D01*
X133762615Y-102605645D01*
X133948511Y-102481433D01*
X134070804Y-102359140D01*
X134143276Y-102431612D01*
X134329172Y-102555824D01*
X134535729Y-102641383D01*
X134755008Y-102685000D01*
X134978584Y-102685000D01*
X135197863Y-102641383D01*
X135404420Y-102555824D01*
X135590316Y-102431612D01*
X135748408Y-102273520D01*
X135872620Y-102087624D01*
X135958179Y-101881067D01*
X136001796Y-101661788D01*
X136001796Y-101438212D01*
X135995829Y-101408212D01*
X136518596Y-101408212D01*
X136518596Y-101631788D01*
X136562213Y-101851067D01*
X136647772Y-102057624D01*
X136771984Y-102243520D01*
X136930076Y-102401612D01*
X137115972Y-102525824D01*
X137322529Y-102611383D01*
X137541808Y-102655000D01*
X137765384Y-102655000D01*
X137984663Y-102611383D01*
X138191220Y-102525824D01*
X138377116Y-102401612D01*
X138535208Y-102243520D01*
X138659420Y-102057624D01*
X138744979Y-101851067D01*
X138788596Y-101631788D01*
X138788596Y-101408212D01*
X138781029Y-101370166D01*
X140836714Y-101370166D01*
X140836714Y-101593742D01*
X140880331Y-101813021D01*
X140965890Y-102019578D01*
X141090102Y-102205474D01*
X141248194Y-102363566D01*
X141434090Y-102487778D01*
X141640647Y-102573337D01*
X141859926Y-102616954D01*
X142083502Y-102616954D01*
X142302781Y-102573337D01*
X142509338Y-102487778D01*
X142695234Y-102363566D01*
X142853326Y-102205474D01*
X142977538Y-102019578D01*
X143063097Y-101813021D01*
X143106714Y-101593742D01*
X143106714Y-101488033D01*
X148756691Y-101488033D01*
X148756691Y-101711609D01*
X148800308Y-101930888D01*
X148885867Y-102137445D01*
X149010079Y-102323341D01*
X149168171Y-102481433D01*
X149354067Y-102605645D01*
X149560624Y-102691204D01*
X149779903Y-102734821D01*
X150003479Y-102734821D01*
X150222758Y-102691204D01*
X150429315Y-102605645D01*
X150615211Y-102481433D01*
X150704154Y-102392490D01*
X150743276Y-102431612D01*
X150929172Y-102555824D01*
X151135729Y-102641383D01*
X151355008Y-102685000D01*
X151578584Y-102685000D01*
X151797863Y-102641383D01*
X152004420Y-102555824D01*
X152190316Y-102431612D01*
X152348408Y-102273520D01*
X152472620Y-102087624D01*
X152558179Y-101881067D01*
X152601796Y-101661788D01*
X152601796Y-101438212D01*
X152595829Y-101408212D01*
X153185296Y-101408212D01*
X153185296Y-101631788D01*
X153228913Y-101851067D01*
X153314472Y-102057624D01*
X153438684Y-102243520D01*
X153596776Y-102401612D01*
X153782672Y-102525824D01*
X153989229Y-102611383D01*
X154208508Y-102655000D01*
X154432084Y-102655000D01*
X154651363Y-102611383D01*
X154857920Y-102525824D01*
X155043816Y-102401612D01*
X155201908Y-102243520D01*
X155326120Y-102057624D01*
X155411679Y-101851067D01*
X155455296Y-101631788D01*
X155455296Y-101408212D01*
X155447729Y-101370166D01*
X157503414Y-101370166D01*
X157503414Y-101593742D01*
X157547031Y-101813021D01*
X157632590Y-102019578D01*
X157756802Y-102205474D01*
X157914894Y-102363566D01*
X158100790Y-102487778D01*
X158307347Y-102573337D01*
X158526626Y-102616954D01*
X158750202Y-102616954D01*
X158969481Y-102573337D01*
X159176038Y-102487778D01*
X159361934Y-102363566D01*
X159520026Y-102205474D01*
X159644238Y-102019578D01*
X159729797Y-101813021D01*
X159773414Y-101593742D01*
X159773414Y-101488033D01*
X165423391Y-101488033D01*
X165423391Y-101711609D01*
X165467008Y-101930888D01*
X165552567Y-102137445D01*
X165676779Y-102323341D01*
X165834871Y-102481433D01*
X166020767Y-102605645D01*
X166227324Y-102691204D01*
X166446603Y-102734821D01*
X166670179Y-102734821D01*
X166889458Y-102691204D01*
X167096015Y-102605645D01*
X167281911Y-102481433D01*
X167387504Y-102375840D01*
X167443276Y-102431612D01*
X167629172Y-102555824D01*
X167835729Y-102641383D01*
X168055008Y-102685000D01*
X168278584Y-102685000D01*
X168497863Y-102641383D01*
X168704420Y-102555824D01*
X168890316Y-102431612D01*
X169048408Y-102273520D01*
X169172620Y-102087624D01*
X169258179Y-101881067D01*
X169301796Y-101661788D01*
X169301796Y-101438212D01*
X169295829Y-101408212D01*
X169851996Y-101408212D01*
X169851996Y-101631788D01*
X169895613Y-101851067D01*
X169981172Y-102057624D01*
X170105384Y-102243520D01*
X170263476Y-102401612D01*
X170449372Y-102525824D01*
X170655929Y-102611383D01*
X170875208Y-102655000D01*
X171098784Y-102655000D01*
X171318063Y-102611383D01*
X171524620Y-102525824D01*
X171710516Y-102401612D01*
X171868608Y-102243520D01*
X171992820Y-102057624D01*
X172078379Y-101851067D01*
X172121996Y-101631788D01*
X172121996Y-101408212D01*
X172114429Y-101370166D01*
X174170114Y-101370166D01*
X174170114Y-101593742D01*
X174213731Y-101813021D01*
X174299290Y-102019578D01*
X174423502Y-102205474D01*
X174581594Y-102363566D01*
X174767490Y-102487778D01*
X174974047Y-102573337D01*
X175193326Y-102616954D01*
X175416902Y-102616954D01*
X175636181Y-102573337D01*
X175842738Y-102487778D01*
X176028634Y-102363566D01*
X176186726Y-102205474D01*
X176310938Y-102019578D01*
X176396497Y-101813021D01*
X176440114Y-101593742D01*
X176440114Y-101488033D01*
X182090091Y-101488033D01*
X182090091Y-101711609D01*
X182133708Y-101930888D01*
X182219267Y-102137445D01*
X182343479Y-102323341D01*
X182501571Y-102481433D01*
X182687467Y-102605645D01*
X182894024Y-102691204D01*
X183113303Y-102734821D01*
X183336879Y-102734821D01*
X183556158Y-102691204D01*
X183762715Y-102605645D01*
X183948611Y-102481433D01*
X184106703Y-102323341D01*
X184118038Y-102306376D01*
X184243276Y-102431614D01*
X184429172Y-102555826D01*
X184635729Y-102641385D01*
X184855008Y-102685002D01*
X185078584Y-102685002D01*
X185297863Y-102641385D01*
X185504420Y-102555826D01*
X185690316Y-102431614D01*
X185848408Y-102273522D01*
X185972620Y-102087626D01*
X186058179Y-101881069D01*
X186101796Y-101661790D01*
X186101796Y-101438214D01*
X186095829Y-101408212D01*
X186518696Y-101408212D01*
X186518696Y-101631788D01*
X186562313Y-101851067D01*
X186647872Y-102057624D01*
X186772084Y-102243520D01*
X186930176Y-102401612D01*
X187116072Y-102525824D01*
X187322629Y-102611383D01*
X187541908Y-102655000D01*
X187765484Y-102655000D01*
X187984763Y-102611383D01*
X188191320Y-102525824D01*
X188377216Y-102401612D01*
X188535308Y-102243520D01*
X188659520Y-102057624D01*
X188745079Y-101851067D01*
X188788696Y-101631788D01*
X188788696Y-101408212D01*
X188781129Y-101370166D01*
X190836814Y-101370166D01*
X190836814Y-101593742D01*
X190880431Y-101813021D01*
X190965990Y-102019578D01*
X191090202Y-102205474D01*
X191248294Y-102363566D01*
X191434190Y-102487778D01*
X191640747Y-102573337D01*
X191860026Y-102616954D01*
X192083602Y-102616954D01*
X192302881Y-102573337D01*
X192509438Y-102487778D01*
X192695334Y-102363566D01*
X192853426Y-102205474D01*
X192977638Y-102019578D01*
X193063197Y-101813021D01*
X193106814Y-101593742D01*
X193106814Y-101488033D01*
X198756791Y-101488033D01*
X198756791Y-101711609D01*
X198800408Y-101930888D01*
X198885967Y-102137445D01*
X199010179Y-102323341D01*
X199168271Y-102481433D01*
X199354167Y-102605645D01*
X199560724Y-102691204D01*
X199780003Y-102734821D01*
X200003579Y-102734821D01*
X200222858Y-102691204D01*
X200429415Y-102605645D01*
X200615311Y-102481433D01*
X200656378Y-102440366D01*
X200829172Y-102555824D01*
X201035729Y-102641383D01*
X201255008Y-102685000D01*
X201478584Y-102685000D01*
X201697863Y-102641383D01*
X201904420Y-102555824D01*
X202090316Y-102431612D01*
X202248408Y-102273520D01*
X202372620Y-102087624D01*
X202458179Y-101881067D01*
X202501796Y-101661788D01*
X202501796Y-101438212D01*
X202495829Y-101408212D01*
X203185396Y-101408212D01*
X203185396Y-101631788D01*
X203229013Y-101851067D01*
X203314572Y-102057624D01*
X203438784Y-102243520D01*
X203596876Y-102401612D01*
X203782772Y-102525824D01*
X203989329Y-102611383D01*
X204208608Y-102655000D01*
X204432184Y-102655000D01*
X204651463Y-102611383D01*
X204858020Y-102525824D01*
X205043916Y-102401612D01*
X205202008Y-102243520D01*
X205326220Y-102057624D01*
X205411779Y-101851067D01*
X205455396Y-101631788D01*
X205455396Y-101408212D01*
X205447829Y-101370166D01*
X207503514Y-101370166D01*
X207503514Y-101593742D01*
X207547131Y-101813021D01*
X207632690Y-102019578D01*
X207756902Y-102205474D01*
X207914994Y-102363566D01*
X208100890Y-102487778D01*
X208307447Y-102573337D01*
X208526726Y-102616954D01*
X208750302Y-102616954D01*
X208969581Y-102573337D01*
X209176138Y-102487778D01*
X209362034Y-102363566D01*
X209520126Y-102205474D01*
X209644338Y-102019578D01*
X209729897Y-101813021D01*
X209773514Y-101593742D01*
X209773514Y-101488033D01*
X215423491Y-101488033D01*
X215423491Y-101711609D01*
X215467108Y-101930888D01*
X215552667Y-102137445D01*
X215676879Y-102323341D01*
X215834971Y-102481433D01*
X216020867Y-102605645D01*
X216227424Y-102691204D01*
X216446703Y-102734821D01*
X216670279Y-102734821D01*
X216889558Y-102691204D01*
X217096115Y-102605645D01*
X217282011Y-102481433D01*
X217437554Y-102325890D01*
X217543276Y-102431612D01*
X217729172Y-102555824D01*
X217935729Y-102641383D01*
X218155008Y-102685000D01*
X218378584Y-102685000D01*
X218597863Y-102641383D01*
X218804420Y-102555824D01*
X218990316Y-102431612D01*
X219148408Y-102273520D01*
X219272620Y-102087624D01*
X219358179Y-101881067D01*
X219401796Y-101661788D01*
X219401796Y-101438212D01*
X219395829Y-101408212D01*
X219852096Y-101408212D01*
X219852096Y-101631788D01*
X219895713Y-101851067D01*
X219981272Y-102057624D01*
X220105484Y-102243520D01*
X220263576Y-102401612D01*
X220449472Y-102525824D01*
X220656029Y-102611383D01*
X220875308Y-102655000D01*
X221098884Y-102655000D01*
X221318163Y-102611383D01*
X221524720Y-102525824D01*
X221710616Y-102401612D01*
X221868708Y-102243520D01*
X221992920Y-102057624D01*
X222078479Y-101851067D01*
X222122096Y-101631788D01*
X222122096Y-101408212D01*
X222114529Y-101370166D01*
X224170214Y-101370166D01*
X224170214Y-101593742D01*
X224213831Y-101813021D01*
X224299390Y-102019578D01*
X224423602Y-102205474D01*
X224581694Y-102363566D01*
X224767590Y-102487778D01*
X224974147Y-102573337D01*
X225193426Y-102616954D01*
X225417002Y-102616954D01*
X225636281Y-102573337D01*
X225842838Y-102487778D01*
X226028734Y-102363566D01*
X226186826Y-102205474D01*
X226311038Y-102019578D01*
X226396597Y-101813021D01*
X226440214Y-101593742D01*
X226440214Y-101488033D01*
X232090191Y-101488033D01*
X232090191Y-101711609D01*
X232133808Y-101930888D01*
X232219367Y-102137445D01*
X232343579Y-102323341D01*
X232501671Y-102481433D01*
X232687567Y-102605645D01*
X232894124Y-102691204D01*
X233113403Y-102734821D01*
X233336979Y-102734821D01*
X233556258Y-102691204D01*
X233762815Y-102605645D01*
X233948711Y-102481433D01*
X234073744Y-102356400D01*
X234085184Y-102373520D01*
X234243276Y-102531612D01*
X234429172Y-102655824D01*
X234635729Y-102741383D01*
X234855008Y-102785000D01*
X235078584Y-102785000D01*
X235297863Y-102741383D01*
X235504420Y-102655824D01*
X235690316Y-102531612D01*
X235848408Y-102373520D01*
X235972620Y-102187624D01*
X236058179Y-101981067D01*
X236101796Y-101761788D01*
X236101796Y-101538212D01*
X236075938Y-101408212D01*
X236518796Y-101408212D01*
X236518796Y-101631788D01*
X236562413Y-101851067D01*
X236647972Y-102057624D01*
X236772184Y-102243520D01*
X236930276Y-102401612D01*
X237116172Y-102525824D01*
X237322729Y-102611383D01*
X237542008Y-102655000D01*
X237765584Y-102655000D01*
X237984863Y-102611383D01*
X238191420Y-102525824D01*
X238377316Y-102401612D01*
X238535408Y-102243520D01*
X238659620Y-102057624D01*
X238745179Y-101851067D01*
X238788796Y-101631788D01*
X238788796Y-101408212D01*
X238781229Y-101370166D01*
X240836914Y-101370166D01*
X240836914Y-101593742D01*
X240880531Y-101813021D01*
X240966090Y-102019578D01*
X241090302Y-102205474D01*
X241248394Y-102363566D01*
X241434290Y-102487778D01*
X241640847Y-102573337D01*
X241860126Y-102616954D01*
X242083702Y-102616954D01*
X242302981Y-102573337D01*
X242509538Y-102487778D01*
X242695434Y-102363566D01*
X242853526Y-102205474D01*
X242977738Y-102019578D01*
X243063297Y-101813021D01*
X243106914Y-101593742D01*
X243106914Y-101538212D01*
X249231796Y-101538212D01*
X249231796Y-101761788D01*
X249275413Y-101981067D01*
X249360972Y-102187624D01*
X249485184Y-102373520D01*
X249643276Y-102531612D01*
X249829172Y-102655824D01*
X250035729Y-102741383D01*
X250255008Y-102785000D01*
X250478584Y-102785000D01*
X250697863Y-102741383D01*
X250904420Y-102655824D01*
X251066793Y-102547330D01*
X251229172Y-102655828D01*
X251435729Y-102741387D01*
X251655008Y-102785004D01*
X251878584Y-102785004D01*
X252097863Y-102741387D01*
X252304420Y-102655828D01*
X252490316Y-102531616D01*
X252648408Y-102373524D01*
X252772620Y-102187628D01*
X252858179Y-101981071D01*
X252876658Y-101888170D01*
X256831796Y-101888170D01*
X256831796Y-102111746D01*
X256875413Y-102331025D01*
X256960972Y-102537582D01*
X257085184Y-102723478D01*
X257243276Y-102881570D01*
X257429172Y-103005782D01*
X257635729Y-103091341D01*
X257855008Y-103134958D01*
X258078584Y-103134958D01*
X258297863Y-103091341D01*
X258504420Y-103005782D01*
X258690316Y-102881570D01*
X258848408Y-102723478D01*
X258972620Y-102537582D01*
X259058179Y-102331025D01*
X259070671Y-102268224D01*
X259155008Y-102285000D01*
X259378584Y-102285000D01*
X259597863Y-102241383D01*
X259804420Y-102155824D01*
X259990316Y-102031612D01*
X260148408Y-101873520D01*
X260272620Y-101687624D01*
X260358179Y-101481067D01*
X260401796Y-101261788D01*
X260401796Y-101038212D01*
X260358179Y-100818933D01*
X260272620Y-100612376D01*
X260148408Y-100426480D01*
X259990316Y-100268388D01*
X259804420Y-100144176D01*
X259597863Y-100058617D01*
X259378584Y-100015000D01*
X259155008Y-100015000D01*
X258935729Y-100058617D01*
X258729172Y-100144176D01*
X258543276Y-100268388D01*
X258385184Y-100426480D01*
X258260972Y-100612376D01*
X258175413Y-100818933D01*
X258162921Y-100881734D01*
X258078584Y-100864958D01*
X257855008Y-100864958D01*
X257635729Y-100908575D01*
X257429172Y-100994134D01*
X257243276Y-101118346D01*
X257085184Y-101276438D01*
X256960972Y-101462334D01*
X256875413Y-101668891D01*
X256831796Y-101888170D01*
X252876658Y-101888170D01*
X252901796Y-101761792D01*
X252901796Y-101538216D01*
X252858179Y-101318937D01*
X252772620Y-101112380D01*
X252648408Y-100926484D01*
X252490316Y-100768392D01*
X252304420Y-100644180D01*
X252097863Y-100558621D01*
X251878584Y-100515004D01*
X251655008Y-100515004D01*
X251435729Y-100558621D01*
X251229172Y-100644180D01*
X251066799Y-100752674D01*
X250904420Y-100644176D01*
X250697863Y-100558617D01*
X250478584Y-100515000D01*
X250255008Y-100515000D01*
X250035729Y-100558617D01*
X249829172Y-100644176D01*
X249643276Y-100768388D01*
X249485184Y-100926480D01*
X249360972Y-101112376D01*
X249275413Y-101318933D01*
X249231796Y-101538212D01*
X243106914Y-101538212D01*
X243106914Y-101370166D01*
X243063297Y-101150887D01*
X242977738Y-100944330D01*
X242853526Y-100758434D01*
X242695434Y-100600342D01*
X242509538Y-100476130D01*
X242302981Y-100390571D01*
X242083702Y-100346954D01*
X241860126Y-100346954D01*
X241640847Y-100390571D01*
X241434290Y-100476130D01*
X241248394Y-100600342D01*
X241090302Y-100758434D01*
X240966090Y-100944330D01*
X240880531Y-101150887D01*
X240836914Y-101370166D01*
X238781229Y-101370166D01*
X238745179Y-101188933D01*
X238659620Y-100982376D01*
X238535408Y-100796480D01*
X238377316Y-100638388D01*
X238191420Y-100514176D01*
X237984863Y-100428617D01*
X237765584Y-100385000D01*
X237542008Y-100385000D01*
X237322729Y-100428617D01*
X237116172Y-100514176D01*
X236930276Y-100638388D01*
X236772184Y-100796480D01*
X236647972Y-100982376D01*
X236562413Y-101188933D01*
X236518796Y-101408212D01*
X236075938Y-101408212D01*
X236058179Y-101318933D01*
X235972620Y-101112376D01*
X235848408Y-100926480D01*
X235690316Y-100768388D01*
X235504420Y-100644176D01*
X235297863Y-100558617D01*
X235078584Y-100515000D01*
X234855008Y-100515000D01*
X234635729Y-100558617D01*
X234429172Y-100644176D01*
X234243276Y-100768388D01*
X234118243Y-100893421D01*
X234106803Y-100876301D01*
X233948711Y-100718209D01*
X233762815Y-100593997D01*
X233556258Y-100508438D01*
X233336979Y-100464821D01*
X233113403Y-100464821D01*
X232894124Y-100508438D01*
X232687567Y-100593997D01*
X232501671Y-100718209D01*
X232343579Y-100876301D01*
X232219367Y-101062197D01*
X232133808Y-101268754D01*
X232090191Y-101488033D01*
X226440214Y-101488033D01*
X226440214Y-101370166D01*
X226396597Y-101150887D01*
X226311038Y-100944330D01*
X226186826Y-100758434D01*
X226028734Y-100600342D01*
X225842838Y-100476130D01*
X225636281Y-100390571D01*
X225417002Y-100346954D01*
X225193426Y-100346954D01*
X224974147Y-100390571D01*
X224767590Y-100476130D01*
X224581694Y-100600342D01*
X224423602Y-100758434D01*
X224299390Y-100944330D01*
X224213831Y-101150887D01*
X224170214Y-101370166D01*
X222114529Y-101370166D01*
X222078479Y-101188933D01*
X221992920Y-100982376D01*
X221868708Y-100796480D01*
X221710616Y-100638388D01*
X221524720Y-100514176D01*
X221318163Y-100428617D01*
X221098884Y-100385000D01*
X220875308Y-100385000D01*
X220656029Y-100428617D01*
X220449472Y-100514176D01*
X220263576Y-100638388D01*
X220105484Y-100796480D01*
X219981272Y-100982376D01*
X219895713Y-101188933D01*
X219852096Y-101408212D01*
X219395829Y-101408212D01*
X219358179Y-101218933D01*
X219272620Y-101012376D01*
X219148408Y-100826480D01*
X218990316Y-100668388D01*
X218804420Y-100544176D01*
X218597863Y-100458617D01*
X218378584Y-100415000D01*
X218155008Y-100415000D01*
X217935729Y-100458617D01*
X217729172Y-100544176D01*
X217543276Y-100668388D01*
X217387733Y-100823931D01*
X217282011Y-100718209D01*
X217096115Y-100593997D01*
X216889558Y-100508438D01*
X216670279Y-100464821D01*
X216446703Y-100464821D01*
X216227424Y-100508438D01*
X216020867Y-100593997D01*
X215834971Y-100718209D01*
X215676879Y-100876301D01*
X215552667Y-101062197D01*
X215467108Y-101268754D01*
X215423491Y-101488033D01*
X209773514Y-101488033D01*
X209773514Y-101370166D01*
X209729897Y-101150887D01*
X209644338Y-100944330D01*
X209520126Y-100758434D01*
X209362034Y-100600342D01*
X209176138Y-100476130D01*
X208969581Y-100390571D01*
X208750302Y-100346954D01*
X208526726Y-100346954D01*
X208307447Y-100390571D01*
X208100890Y-100476130D01*
X207914994Y-100600342D01*
X207756902Y-100758434D01*
X207632690Y-100944330D01*
X207547131Y-101150887D01*
X207503514Y-101370166D01*
X205447829Y-101370166D01*
X205411779Y-101188933D01*
X205326220Y-100982376D01*
X205202008Y-100796480D01*
X205043916Y-100638388D01*
X204858020Y-100514176D01*
X204651463Y-100428617D01*
X204432184Y-100385000D01*
X204208608Y-100385000D01*
X203989329Y-100428617D01*
X203782772Y-100514176D01*
X203596876Y-100638388D01*
X203438784Y-100796480D01*
X203314572Y-100982376D01*
X203229013Y-101188933D01*
X203185396Y-101408212D01*
X202495829Y-101408212D01*
X202458179Y-101218933D01*
X202372620Y-101012376D01*
X202248408Y-100826480D01*
X202090316Y-100668388D01*
X201904420Y-100544176D01*
X201697863Y-100458617D01*
X201478584Y-100415000D01*
X201255008Y-100415000D01*
X201035729Y-100458617D01*
X200829172Y-100544176D01*
X200643276Y-100668388D01*
X200602209Y-100709455D01*
X200429415Y-100593997D01*
X200222858Y-100508438D01*
X200003579Y-100464821D01*
X199780003Y-100464821D01*
X199560724Y-100508438D01*
X199354167Y-100593997D01*
X199168271Y-100718209D01*
X199010179Y-100876301D01*
X198885967Y-101062197D01*
X198800408Y-101268754D01*
X198756791Y-101488033D01*
X193106814Y-101488033D01*
X193106814Y-101370166D01*
X193063197Y-101150887D01*
X192977638Y-100944330D01*
X192853426Y-100758434D01*
X192695334Y-100600342D01*
X192509438Y-100476130D01*
X192302881Y-100390571D01*
X192083602Y-100346954D01*
X191860026Y-100346954D01*
X191640747Y-100390571D01*
X191434190Y-100476130D01*
X191248294Y-100600342D01*
X191090202Y-100758434D01*
X190965990Y-100944330D01*
X190880431Y-101150887D01*
X190836814Y-101370166D01*
X188781129Y-101370166D01*
X188745079Y-101188933D01*
X188659520Y-100982376D01*
X188535308Y-100796480D01*
X188377216Y-100638388D01*
X188191320Y-100514176D01*
X187984763Y-100428617D01*
X187765484Y-100385000D01*
X187541908Y-100385000D01*
X187322629Y-100428617D01*
X187116072Y-100514176D01*
X186930176Y-100638388D01*
X186772084Y-100796480D01*
X186647872Y-100982376D01*
X186562313Y-101188933D01*
X186518696Y-101408212D01*
X186095829Y-101408212D01*
X186058179Y-101218935D01*
X185972620Y-101012378D01*
X185848408Y-100826482D01*
X185690316Y-100668390D01*
X185504420Y-100544178D01*
X185297863Y-100458619D01*
X185078584Y-100415002D01*
X184855008Y-100415002D01*
X184635729Y-100458619D01*
X184429172Y-100544178D01*
X184243276Y-100668390D01*
X184085184Y-100826482D01*
X184073849Y-100843447D01*
X183948611Y-100718209D01*
X183762715Y-100593997D01*
X183556158Y-100508438D01*
X183336879Y-100464821D01*
X183113303Y-100464821D01*
X182894024Y-100508438D01*
X182687467Y-100593997D01*
X182501571Y-100718209D01*
X182343479Y-100876301D01*
X182219267Y-101062197D01*
X182133708Y-101268754D01*
X182090091Y-101488033D01*
X176440114Y-101488033D01*
X176440114Y-101370166D01*
X176396497Y-101150887D01*
X176310938Y-100944330D01*
X176186726Y-100758434D01*
X176028634Y-100600342D01*
X175842738Y-100476130D01*
X175636181Y-100390571D01*
X175416902Y-100346954D01*
X175193326Y-100346954D01*
X174974047Y-100390571D01*
X174767490Y-100476130D01*
X174581594Y-100600342D01*
X174423502Y-100758434D01*
X174299290Y-100944330D01*
X174213731Y-101150887D01*
X174170114Y-101370166D01*
X172114429Y-101370166D01*
X172078379Y-101188933D01*
X171992820Y-100982376D01*
X171868608Y-100796480D01*
X171710516Y-100638388D01*
X171524620Y-100514176D01*
X171318063Y-100428617D01*
X171098784Y-100385000D01*
X170875208Y-100385000D01*
X170655929Y-100428617D01*
X170449372Y-100514176D01*
X170263476Y-100638388D01*
X170105384Y-100796480D01*
X169981172Y-100982376D01*
X169895613Y-101188933D01*
X169851996Y-101408212D01*
X169295829Y-101408212D01*
X169258179Y-101218933D01*
X169172620Y-101012376D01*
X169048408Y-100826480D01*
X168890316Y-100668388D01*
X168704420Y-100544176D01*
X168497863Y-100458617D01*
X168278584Y-100415000D01*
X168055008Y-100415000D01*
X167835729Y-100458617D01*
X167629172Y-100544176D01*
X167443276Y-100668388D01*
X167337683Y-100773981D01*
X167281911Y-100718209D01*
X167096015Y-100593997D01*
X166889458Y-100508438D01*
X166670179Y-100464821D01*
X166446603Y-100464821D01*
X166227324Y-100508438D01*
X166020767Y-100593997D01*
X165834871Y-100718209D01*
X165676779Y-100876301D01*
X165552567Y-101062197D01*
X165467008Y-101268754D01*
X165423391Y-101488033D01*
X159773414Y-101488033D01*
X159773414Y-101370166D01*
X159729797Y-101150887D01*
X159644238Y-100944330D01*
X159520026Y-100758434D01*
X159361934Y-100600342D01*
X159176038Y-100476130D01*
X158969481Y-100390571D01*
X158750202Y-100346954D01*
X158526626Y-100346954D01*
X158307347Y-100390571D01*
X158100790Y-100476130D01*
X157914894Y-100600342D01*
X157756802Y-100758434D01*
X157632590Y-100944330D01*
X157547031Y-101150887D01*
X157503414Y-101370166D01*
X155447729Y-101370166D01*
X155411679Y-101188933D01*
X155326120Y-100982376D01*
X155201908Y-100796480D01*
X155043816Y-100638388D01*
X154857920Y-100514176D01*
X154651363Y-100428617D01*
X154432084Y-100385000D01*
X154208508Y-100385000D01*
X153989229Y-100428617D01*
X153782672Y-100514176D01*
X153596776Y-100638388D01*
X153438684Y-100796480D01*
X153314472Y-100982376D01*
X153228913Y-101188933D01*
X153185296Y-101408212D01*
X152595829Y-101408212D01*
X152558179Y-101218933D01*
X152472620Y-101012376D01*
X152348408Y-100826480D01*
X152190316Y-100668388D01*
X152004420Y-100544176D01*
X151797863Y-100458617D01*
X151578584Y-100415000D01*
X151355008Y-100415000D01*
X151135729Y-100458617D01*
X150929172Y-100544176D01*
X150743276Y-100668388D01*
X150654333Y-100757331D01*
X150615211Y-100718209D01*
X150429315Y-100593997D01*
X150222758Y-100508438D01*
X150003479Y-100464821D01*
X149779903Y-100464821D01*
X149560624Y-100508438D01*
X149354067Y-100593997D01*
X149168171Y-100718209D01*
X149010079Y-100876301D01*
X148885867Y-101062197D01*
X148800308Y-101268754D01*
X148756691Y-101488033D01*
X143106714Y-101488033D01*
X143106714Y-101370166D01*
X143063097Y-101150887D01*
X142977538Y-100944330D01*
X142853326Y-100758434D01*
X142695234Y-100600342D01*
X142509338Y-100476130D01*
X142302781Y-100390571D01*
X142083502Y-100346954D01*
X141859926Y-100346954D01*
X141640647Y-100390571D01*
X141434090Y-100476130D01*
X141248194Y-100600342D01*
X141090102Y-100758434D01*
X140965890Y-100944330D01*
X140880331Y-101150887D01*
X140836714Y-101370166D01*
X138781029Y-101370166D01*
X138744979Y-101188933D01*
X138659420Y-100982376D01*
X138535208Y-100796480D01*
X138377116Y-100638388D01*
X138191220Y-100514176D01*
X137984663Y-100428617D01*
X137765384Y-100385000D01*
X137541808Y-100385000D01*
X137322529Y-100428617D01*
X137115972Y-100514176D01*
X136930076Y-100638388D01*
X136771984Y-100796480D01*
X136647772Y-100982376D01*
X136562213Y-101188933D01*
X136518596Y-101408212D01*
X135995829Y-101408212D01*
X135958179Y-101218933D01*
X135872620Y-101012376D01*
X135748408Y-100826480D01*
X135590316Y-100668388D01*
X135404420Y-100544176D01*
X135197863Y-100458617D01*
X134978584Y-100415000D01*
X134755008Y-100415000D01*
X134535729Y-100458617D01*
X134329172Y-100544176D01*
X134143276Y-100668388D01*
X134020983Y-100790681D01*
X133948511Y-100718209D01*
X133762615Y-100593997D01*
X133556058Y-100508438D01*
X133336779Y-100464821D01*
X133113203Y-100464821D01*
X132893924Y-100508438D01*
X132687367Y-100593997D01*
X132501471Y-100718209D01*
X132343379Y-100876301D01*
X132219167Y-101062197D01*
X132133608Y-101268754D01*
X132089991Y-101488033D01*
X126440014Y-101488033D01*
X126440014Y-101370166D01*
X126396397Y-101150887D01*
X126310838Y-100944330D01*
X126186626Y-100758434D01*
X126028534Y-100600342D01*
X125842638Y-100476130D01*
X125636081Y-100390571D01*
X125416802Y-100346954D01*
X125193226Y-100346954D01*
X124973947Y-100390571D01*
X124767390Y-100476130D01*
X124581494Y-100600342D01*
X124423402Y-100758434D01*
X124299190Y-100944330D01*
X124213631Y-101150887D01*
X124170014Y-101370166D01*
X122114329Y-101370166D01*
X122078279Y-101188933D01*
X121992720Y-100982376D01*
X121868508Y-100796480D01*
X121710416Y-100638388D01*
X121524520Y-100514176D01*
X121317963Y-100428617D01*
X121098684Y-100385000D01*
X120875108Y-100385000D01*
X120655829Y-100428617D01*
X120449272Y-100514176D01*
X120263376Y-100638388D01*
X120105284Y-100796480D01*
X119981072Y-100982376D01*
X119895513Y-101188933D01*
X119851896Y-101408212D01*
X119295828Y-101408212D01*
X119258179Y-101218937D01*
X119172620Y-101012380D01*
X119048408Y-100826484D01*
X118890316Y-100668392D01*
X118704420Y-100544180D01*
X118497863Y-100458621D01*
X118278584Y-100415004D01*
X118055008Y-100415004D01*
X117835729Y-100458621D01*
X117629172Y-100544180D01*
X117443276Y-100668392D01*
X117337635Y-100774033D01*
X117281811Y-100718209D01*
X117095915Y-100593997D01*
X116889358Y-100508438D01*
X116670079Y-100464821D01*
X116446503Y-100464821D01*
X116227224Y-100508438D01*
X116020667Y-100593997D01*
X115834771Y-100718209D01*
X115676679Y-100876301D01*
X115552467Y-101062197D01*
X115466908Y-101268754D01*
X115423291Y-101488033D01*
X109773314Y-101488033D01*
X109773314Y-101370166D01*
X109729697Y-101150887D01*
X109644138Y-100944330D01*
X109519926Y-100758434D01*
X109361834Y-100600342D01*
X109175938Y-100476130D01*
X108969381Y-100390571D01*
X108750102Y-100346954D01*
X108526526Y-100346954D01*
X108307247Y-100390571D01*
X108100690Y-100476130D01*
X107914794Y-100600342D01*
X107756702Y-100758434D01*
X107632490Y-100944330D01*
X107546931Y-101150887D01*
X107503314Y-101370166D01*
X105447629Y-101370166D01*
X105411579Y-101188933D01*
X105326020Y-100982376D01*
X105201808Y-100796480D01*
X105043716Y-100638388D01*
X104857820Y-100514176D01*
X104651263Y-100428617D01*
X104431984Y-100385000D01*
X104208408Y-100385000D01*
X103989129Y-100428617D01*
X103782572Y-100514176D01*
X103596676Y-100638388D01*
X103438584Y-100796480D01*
X103314372Y-100982376D01*
X103228813Y-101188933D01*
X103185196Y-101408212D01*
X102551796Y-101408212D01*
X102551796Y-101388206D01*
X102508179Y-101168927D01*
X102422620Y-100962370D01*
X102298408Y-100776474D01*
X102140316Y-100618382D01*
X101954420Y-100494170D01*
X101747863Y-100408611D01*
X101528584Y-100364994D01*
X101305008Y-100364994D01*
X101085729Y-100408611D01*
X100879172Y-100494170D01*
X100693276Y-100618382D01*
X100602126Y-100709532D01*
X100429215Y-100593997D01*
X100222658Y-100508438D01*
X100003379Y-100464821D01*
X99779803Y-100464821D01*
X99560524Y-100508438D01*
X99353967Y-100593997D01*
X99168071Y-100718209D01*
X99009979Y-100876301D01*
X98885767Y-101062197D01*
X98800208Y-101268754D01*
X98756591Y-101488033D01*
X93106614Y-101488033D01*
X93106614Y-101370166D01*
X93062997Y-101150887D01*
X92977438Y-100944330D01*
X92853226Y-100758434D01*
X92695134Y-100600342D01*
X92509238Y-100476130D01*
X92302681Y-100390571D01*
X92083402Y-100346954D01*
X91859826Y-100346954D01*
X91640547Y-100390571D01*
X91433990Y-100476130D01*
X91248094Y-100600342D01*
X91090002Y-100758434D01*
X90965790Y-100944330D01*
X90880231Y-101150887D01*
X90836614Y-101370166D01*
X88780929Y-101370166D01*
X88744879Y-101188933D01*
X88659320Y-100982376D01*
X88535108Y-100796480D01*
X88377016Y-100638388D01*
X88191120Y-100514176D01*
X87984563Y-100428617D01*
X87765284Y-100385000D01*
X87541708Y-100385000D01*
X87322429Y-100428617D01*
X87115872Y-100514176D01*
X86929976Y-100638388D01*
X86771884Y-100796480D01*
X86647672Y-100982376D01*
X86562113Y-101188933D01*
X86518496Y-101408212D01*
X85288716Y-101408212D01*
X85398408Y-101298520D01*
X85522620Y-101112624D01*
X85608179Y-100906067D01*
X85651796Y-100686788D01*
X85651796Y-100463212D01*
X85608179Y-100243933D01*
X85522620Y-100037376D01*
X85398408Y-99851480D01*
X85240316Y-99693388D01*
X85054420Y-99569176D01*
X84847863Y-99483617D01*
X84628584Y-99440000D01*
X84405008Y-99440000D01*
X84185729Y-99483617D01*
X83979172Y-99569176D01*
X83793276Y-99693388D01*
X83635184Y-99851480D01*
X83510972Y-100037376D01*
X83425413Y-100243933D01*
X83381796Y-100463212D01*
X83381796Y-100473795D01*
X83336679Y-100464821D01*
X83113103Y-100464821D01*
X82893824Y-100508438D01*
X82687267Y-100593997D01*
X82501371Y-100718209D01*
X82343279Y-100876301D01*
X82219067Y-101062197D01*
X82133508Y-101268754D01*
X82089891Y-101488033D01*
X76439914Y-101488033D01*
X76439914Y-101370166D01*
X76396297Y-101150887D01*
X76310738Y-100944330D01*
X76186526Y-100758434D01*
X76028434Y-100600342D01*
X75842538Y-100476130D01*
X75635981Y-100390571D01*
X75416702Y-100346954D01*
X75193126Y-100346954D01*
X74973847Y-100390571D01*
X74767290Y-100476130D01*
X74581394Y-100600342D01*
X74423302Y-100758434D01*
X74299090Y-100944330D01*
X74213531Y-101150887D01*
X74169914Y-101370166D01*
X72114229Y-101370166D01*
X72078179Y-101188933D01*
X71992620Y-100982376D01*
X71868408Y-100796480D01*
X71710316Y-100638388D01*
X71524420Y-100514176D01*
X71317863Y-100428617D01*
X71098584Y-100385000D01*
X70875008Y-100385000D01*
X70655729Y-100428617D01*
X70449172Y-100514176D01*
X70263276Y-100638388D01*
X70105184Y-100796480D01*
X70054872Y-100871777D01*
X70054872Y-100166666D01*
X70042612Y-100042184D01*
X70039927Y-100033333D01*
X70042612Y-100024482D01*
X70054872Y-99900000D01*
X70051800Y-99585750D01*
X69893050Y-99427000D01*
X68293800Y-99427000D01*
X68293800Y-99447000D01*
X68039800Y-99447000D01*
X68039800Y-99427000D01*
X68019800Y-99427000D01*
X68019800Y-99173000D01*
X68039800Y-99173000D01*
X68039800Y-99153000D01*
X68293800Y-99153000D01*
X68293800Y-99173000D01*
X69893050Y-99173000D01*
X70051800Y-99014250D01*
X70052330Y-98960000D01*
X264076039Y-98960000D01*
X264073738Y-98982391D01*
X264073738Y-98982391D01*
G37*
X264073738Y-98982391D02*
X264198469Y-99173000D01*
X266540200Y-99173000D01*
X266540200Y-99153000D01*
X266794200Y-99153000D01*
X266794200Y-99173000D01*
X269135931Y-99173000D01*
X269260662Y-98982391D01*
X269258361Y-98960000D01*
X280742739Y-98960000D01*
X280740438Y-98982391D01*
X280865169Y-99173000D01*
X283206900Y-99173000D01*
X283206900Y-99153000D01*
X283460900Y-99153000D01*
X283460900Y-99173000D01*
X285802631Y-99173000D01*
X285927362Y-98982391D01*
X285925061Y-98960000D01*
X297409439Y-98960000D01*
X297407138Y-98982391D01*
X297531869Y-99173000D01*
X299873600Y-99173000D01*
X299873600Y-99153000D01*
X300127600Y-99153000D01*
X300127600Y-99173000D01*
X302469331Y-99173000D01*
X302594062Y-98982391D01*
X302591761Y-98960000D01*
X313281770Y-98960000D01*
X313282300Y-99014250D01*
X313441050Y-99173000D01*
X315040300Y-99173000D01*
X315040300Y-99153000D01*
X315294300Y-99153000D01*
X315294300Y-99173000D01*
X315314300Y-99173000D01*
X315314300Y-99427000D01*
X315294300Y-99427000D01*
X315294300Y-99447000D01*
X315040300Y-99447000D01*
X315040300Y-99427000D01*
X313441050Y-99427000D01*
X313282300Y-99585750D01*
X313279228Y-99900000D01*
X313291488Y-100024482D01*
X313294173Y-100033333D01*
X313291488Y-100042184D01*
X313279228Y-100166666D01*
X313279228Y-101366666D01*
X313291488Y-101491148D01*
X313294173Y-101499999D01*
X313291488Y-101508850D01*
X313279228Y-101633332D01*
X313279228Y-102833332D01*
X313291488Y-102957814D01*
X313294173Y-102966666D01*
X313291488Y-102975518D01*
X313279228Y-103100000D01*
X313279228Y-104040000D01*
X308211162Y-104040000D01*
X308223716Y-104031612D01*
X308381808Y-103873520D01*
X308506020Y-103687624D01*
X308589950Y-103485000D01*
X308811984Y-103485000D01*
X309031263Y-103441383D01*
X309237820Y-103355824D01*
X309423716Y-103231612D01*
X309581808Y-103073520D01*
X309706020Y-102887624D01*
X309791579Y-102681067D01*
X309835196Y-102461788D01*
X309835196Y-102238212D01*
X309791579Y-102018933D01*
X309706020Y-101812376D01*
X309609307Y-101667635D01*
X309637820Y-101655824D01*
X309823716Y-101531612D01*
X309981808Y-101373520D01*
X310106020Y-101187624D01*
X310191579Y-100981067D01*
X310235196Y-100761788D01*
X310235196Y-100538212D01*
X310191579Y-100318933D01*
X310106020Y-100112376D01*
X309981808Y-99926480D01*
X309823716Y-99768388D01*
X309637820Y-99644176D01*
X309431263Y-99558617D01*
X309211984Y-99515000D01*
X308988408Y-99515000D01*
X308769129Y-99558617D01*
X308562572Y-99644176D01*
X308376676Y-99768388D01*
X308218584Y-99926480D01*
X308094372Y-100112376D01*
X308008813Y-100318933D01*
X307965196Y-100538212D01*
X307965196Y-100594866D01*
X307844859Y-100545021D01*
X307625580Y-100501404D01*
X307402004Y-100501404D01*
X307182725Y-100545021D01*
X306976168Y-100630580D01*
X306790272Y-100754792D01*
X306632180Y-100912884D01*
X306507968Y-101098780D01*
X306422409Y-101305337D01*
X306378792Y-101524616D01*
X306378792Y-101748192D01*
X306422409Y-101967471D01*
X306507968Y-102174028D01*
X306632180Y-102359924D01*
X306658660Y-102386404D01*
X306618584Y-102426480D01*
X306494372Y-102612376D01*
X306408813Y-102818933D01*
X306365196Y-103038212D01*
X306365196Y-103261788D01*
X306408813Y-103481067D01*
X306494372Y-103687624D01*
X306618584Y-103873520D01*
X306776676Y-104031612D01*
X306789230Y-104040000D01*
X302588033Y-104040000D01*
X302617730Y-103942102D01*
X302641575Y-103700000D01*
X302617730Y-103457898D01*
X302547111Y-103225099D01*
X302432433Y-103010551D01*
X302396418Y-102966666D01*
X302432433Y-102922781D01*
X302547111Y-102708233D01*
X302617730Y-102475434D01*
X302641575Y-102233332D01*
X302617730Y-101991230D01*
X302547111Y-101758431D01*
X302432433Y-101543883D01*
X302396418Y-101499999D01*
X302432433Y-101456115D01*
X302547111Y-101241567D01*
X302617730Y-101008768D01*
X302641575Y-100766666D01*
X302617730Y-100524564D01*
X302547111Y-100291765D01*
X302432433Y-100077217D01*
X302396669Y-100033638D01*
X302498021Y-99880533D01*
X302590191Y-99655282D01*
X302594062Y-99617609D01*
X302469331Y-99427000D01*
X300127600Y-99427000D01*
X300127600Y-99447000D01*
X299873600Y-99447000D01*
X299873600Y-99427000D01*
X297531869Y-99427000D01*
X297407138Y-99617609D01*
X297411009Y-99655282D01*
X297503179Y-99880533D01*
X297604531Y-100033638D01*
X297568767Y-100077217D01*
X297454089Y-100291765D01*
X297383470Y-100524564D01*
X297359625Y-100766666D01*
X297383470Y-101008768D01*
X297454089Y-101241567D01*
X297568767Y-101456115D01*
X297604782Y-101499999D01*
X297568767Y-101543883D01*
X297454089Y-101758431D01*
X297383470Y-101991230D01*
X297359625Y-102233332D01*
X297383470Y-102475434D01*
X297454089Y-102708233D01*
X297568767Y-102922781D01*
X297604782Y-102966666D01*
X297568767Y-103010551D01*
X297454089Y-103225099D01*
X297383470Y-103457898D01*
X297359625Y-103700000D01*
X297383470Y-103942102D01*
X297413167Y-104040000D01*
X291544462Y-104040000D01*
X291557016Y-104031612D01*
X291715108Y-103873520D01*
X291839320Y-103687624D01*
X291923250Y-103485000D01*
X292145284Y-103485000D01*
X292364563Y-103441383D01*
X292571120Y-103355824D01*
X292757016Y-103231612D01*
X292915108Y-103073520D01*
X293039320Y-102887624D01*
X293124879Y-102681067D01*
X293168496Y-102461788D01*
X293168496Y-102238212D01*
X293124879Y-102018933D01*
X293039320Y-101812376D01*
X292942607Y-101667635D01*
X292971120Y-101655824D01*
X293157016Y-101531612D01*
X293315108Y-101373520D01*
X293439320Y-101187624D01*
X293524879Y-100981067D01*
X293568496Y-100761788D01*
X293568496Y-100538212D01*
X293524879Y-100318933D01*
X293439320Y-100112376D01*
X293315108Y-99926480D01*
X293157016Y-99768388D01*
X292971120Y-99644176D01*
X292764563Y-99558617D01*
X292545284Y-99515000D01*
X292321708Y-99515000D01*
X292102429Y-99558617D01*
X291895872Y-99644176D01*
X291709976Y-99768388D01*
X291551884Y-99926480D01*
X291427672Y-100112376D01*
X291342113Y-100318933D01*
X291298496Y-100538212D01*
X291298496Y-100594866D01*
X291178159Y-100545021D01*
X290958880Y-100501404D01*
X290735304Y-100501404D01*
X290516025Y-100545021D01*
X290309468Y-100630580D01*
X290123572Y-100754792D01*
X289965480Y-100912884D01*
X289841268Y-101098780D01*
X289755709Y-101305337D01*
X289712092Y-101524616D01*
X289712092Y-101748192D01*
X289755709Y-101967471D01*
X289841268Y-102174028D01*
X289965480Y-102359924D01*
X289991960Y-102386404D01*
X289951884Y-102426480D01*
X289827672Y-102612376D01*
X289742113Y-102818933D01*
X289698496Y-103038212D01*
X289698496Y-103261788D01*
X289742113Y-103481067D01*
X289827672Y-103687624D01*
X289951884Y-103873520D01*
X290109976Y-104031612D01*
X290122530Y-104040000D01*
X285921333Y-104040000D01*
X285951030Y-103942102D01*
X285974875Y-103700000D01*
X285951030Y-103457898D01*
X285880411Y-103225099D01*
X285765733Y-103010551D01*
X285729718Y-102966666D01*
X285765733Y-102922781D01*
X285880411Y-102708233D01*
X285951030Y-102475434D01*
X285974875Y-102233332D01*
X285951030Y-101991230D01*
X285880411Y-101758431D01*
X285765733Y-101543883D01*
X285729718Y-101499999D01*
X285765733Y-101456115D01*
X285880411Y-101241567D01*
X285951030Y-101008768D01*
X285974875Y-100766666D01*
X285951030Y-100524564D01*
X285880411Y-100291765D01*
X285765733Y-100077217D01*
X285729969Y-100033638D01*
X285831321Y-99880533D01*
X285923491Y-99655282D01*
X285927362Y-99617609D01*
X285802631Y-99427000D01*
X283460900Y-99427000D01*
X283460900Y-99447000D01*
X283206900Y-99447000D01*
X283206900Y-99427000D01*
X280865169Y-99427000D01*
X280740438Y-99617609D01*
X280744309Y-99655282D01*
X280836479Y-99880533D01*
X280937831Y-100033638D01*
X280902067Y-100077217D01*
X280787389Y-100291765D01*
X280716770Y-100524564D01*
X280692925Y-100766666D01*
X280716770Y-101008768D01*
X280787389Y-101241567D01*
X280902067Y-101456115D01*
X280938082Y-101499999D01*
X280902067Y-101543883D01*
X280787389Y-101758431D01*
X280716770Y-101991230D01*
X280692925Y-102233332D01*
X280716770Y-102475434D01*
X280787389Y-102708233D01*
X280902067Y-102922781D01*
X280938082Y-102966666D01*
X280902067Y-103010551D01*
X280787389Y-103225099D01*
X280716770Y-103457898D01*
X280692925Y-103700000D01*
X280716770Y-103942102D01*
X280746467Y-104040000D01*
X274877762Y-104040000D01*
X274890316Y-104031612D01*
X275048408Y-103873520D01*
X275172620Y-103687624D01*
X275256550Y-103485000D01*
X275478584Y-103485000D01*
X275697863Y-103441383D01*
X275904420Y-103355824D01*
X276090316Y-103231612D01*
X276248408Y-103073520D01*
X276372620Y-102887624D01*
X276458179Y-102681067D01*
X276501796Y-102461788D01*
X276501796Y-102238212D01*
X276458179Y-102018933D01*
X276372620Y-101812376D01*
X276275907Y-101667635D01*
X276304420Y-101655824D01*
X276490316Y-101531612D01*
X276648408Y-101373520D01*
X276772620Y-101187624D01*
X276858179Y-100981067D01*
X276901796Y-100761788D01*
X276901796Y-100538212D01*
X276858179Y-100318933D01*
X276772620Y-100112376D01*
X276648408Y-99926480D01*
X276490316Y-99768388D01*
X276304420Y-99644176D01*
X276097863Y-99558617D01*
X275878584Y-99515000D01*
X275655008Y-99515000D01*
X275435729Y-99558617D01*
X275229172Y-99644176D01*
X275043276Y-99768388D01*
X274885184Y-99926480D01*
X274760972Y-100112376D01*
X274675413Y-100318933D01*
X274631796Y-100538212D01*
X274631796Y-100594866D01*
X274511459Y-100545021D01*
X274292180Y-100501404D01*
X274068604Y-100501404D01*
X273849325Y-100545021D01*
X273642768Y-100630580D01*
X273456872Y-100754792D01*
X273298780Y-100912884D01*
X273174568Y-101098780D01*
X273089009Y-101305337D01*
X273045392Y-101524616D01*
X273045392Y-101748192D01*
X273089009Y-101967471D01*
X273174568Y-102174028D01*
X273298780Y-102359924D01*
X273325260Y-102386404D01*
X273285184Y-102426480D01*
X273160972Y-102612376D01*
X273075413Y-102818933D01*
X273031796Y-103038212D01*
X273031796Y-103261788D01*
X273075413Y-103481067D01*
X273160972Y-103687624D01*
X273285184Y-103873520D01*
X273443276Y-104031612D01*
X273455830Y-104040000D01*
X269254633Y-104040000D01*
X269284330Y-103942102D01*
X269308175Y-103700000D01*
X269284330Y-103457898D01*
X269213711Y-103225099D01*
X269099033Y-103010551D01*
X269063018Y-102966666D01*
X269099033Y-102922781D01*
X269213711Y-102708233D01*
X269284330Y-102475434D01*
X269308175Y-102233332D01*
X269284330Y-101991230D01*
X269213711Y-101758431D01*
X269099033Y-101543883D01*
X269063018Y-101499999D01*
X269099033Y-101456115D01*
X269213711Y-101241567D01*
X269284330Y-101008768D01*
X269308175Y-100766666D01*
X269284330Y-100524564D01*
X269213711Y-100291765D01*
X269099033Y-100077217D01*
X269063269Y-100033638D01*
X269164621Y-99880533D01*
X269256791Y-99655282D01*
X269260662Y-99617609D01*
X269135931Y-99427000D01*
X266794200Y-99427000D01*
X266794200Y-99447000D01*
X266540200Y-99447000D01*
X266540200Y-99427000D01*
X264198469Y-99427000D01*
X264073738Y-99617609D01*
X264077609Y-99655282D01*
X264169779Y-99880533D01*
X264271131Y-100033638D01*
X264235367Y-100077217D01*
X264120689Y-100291765D01*
X264050070Y-100524564D01*
X264026225Y-100766666D01*
X264050070Y-101008768D01*
X264120689Y-101241567D01*
X264235367Y-101456115D01*
X264271382Y-101499999D01*
X264235367Y-101543883D01*
X264120689Y-101758431D01*
X264050070Y-101991230D01*
X264026225Y-102233332D01*
X264050070Y-102475434D01*
X264120689Y-102708233D01*
X264235367Y-102922781D01*
X264271382Y-102966666D01*
X264235367Y-103010551D01*
X264120689Y-103225099D01*
X264050070Y-103457898D01*
X264026225Y-103700000D01*
X264050070Y-103942102D01*
X264079767Y-104040000D01*
X70054872Y-104040000D01*
X70054872Y-103100000D01*
X70042612Y-102975518D01*
X70039927Y-102966666D01*
X70042612Y-102957814D01*
X70054872Y-102833332D01*
X70054872Y-102168223D01*
X70105184Y-102243520D01*
X70263276Y-102401612D01*
X70449172Y-102525824D01*
X70655729Y-102611383D01*
X70875008Y-102655000D01*
X71098584Y-102655000D01*
X71317863Y-102611383D01*
X71524420Y-102525824D01*
X71710316Y-102401612D01*
X71868408Y-102243520D01*
X71992620Y-102057624D01*
X72078179Y-101851067D01*
X72121796Y-101631788D01*
X72121796Y-101408212D01*
X72114229Y-101370166D01*
X74169914Y-101370166D01*
X74169914Y-101593742D01*
X74213531Y-101813021D01*
X74299090Y-102019578D01*
X74423302Y-102205474D01*
X74581394Y-102363566D01*
X74767290Y-102487778D01*
X74973847Y-102573337D01*
X75193126Y-102616954D01*
X75416702Y-102616954D01*
X75635981Y-102573337D01*
X75842538Y-102487778D01*
X76028434Y-102363566D01*
X76186526Y-102205474D01*
X76310738Y-102019578D01*
X76396297Y-101813021D01*
X76439914Y-101593742D01*
X76439914Y-101488033D01*
X82089891Y-101488033D01*
X82089891Y-101711609D01*
X82133508Y-101930888D01*
X82219067Y-102137445D01*
X82343279Y-102323341D01*
X82501371Y-102481433D01*
X82687267Y-102605645D01*
X82893824Y-102691204D01*
X83113103Y-102734821D01*
X83336679Y-102734821D01*
X83555958Y-102691204D01*
X83762515Y-102605645D01*
X83948411Y-102481433D01*
X84106503Y-102323341D01*
X84230715Y-102137445D01*
X84316274Y-101930888D01*
X84359891Y-101711609D01*
X84359891Y-101701026D01*
X84405008Y-101710000D01*
X84628584Y-101710000D01*
X84847863Y-101666383D01*
X85054420Y-101580824D01*
X85240316Y-101456612D01*
X85288716Y-101408212D01*
X86518496Y-101408212D01*
X86518496Y-101631788D01*
X86562113Y-101851067D01*
X86647672Y-102057624D01*
X86771884Y-102243520D01*
X86929976Y-102401612D01*
X87115872Y-102525824D01*
X87322429Y-102611383D01*
X87541708Y-102655000D01*
X87765284Y-102655000D01*
X87984563Y-102611383D01*
X88191120Y-102525824D01*
X88377016Y-102401612D01*
X88535108Y-102243520D01*
X88659320Y-102057624D01*
X88744879Y-101851067D01*
X88788496Y-101631788D01*
X88788496Y-101408212D01*
X88780929Y-101370166D01*
X90836614Y-101370166D01*
X90836614Y-101593742D01*
X90880231Y-101813021D01*
X90965790Y-102019578D01*
X91090002Y-102205474D01*
X91248094Y-102363566D01*
X91433990Y-102487778D01*
X91640547Y-102573337D01*
X91859826Y-102616954D01*
X92083402Y-102616954D01*
X92302681Y-102573337D01*
X92509238Y-102487778D01*
X92695134Y-102363566D01*
X92853226Y-102205474D01*
X92977438Y-102019578D01*
X93062997Y-101813021D01*
X93106614Y-101593742D01*
X93106614Y-101488033D01*
X98756591Y-101488033D01*
X98756591Y-101711609D01*
X98800208Y-101930888D01*
X98885767Y-102137445D01*
X99009979Y-102323341D01*
X99168071Y-102481433D01*
X99353967Y-102605645D01*
X99560524Y-102691204D01*
X99779803Y-102734821D01*
X100003379Y-102734821D01*
X100222658Y-102691204D01*
X100429215Y-102605645D01*
X100615111Y-102481433D01*
X100706261Y-102390283D01*
X100879172Y-102505818D01*
X101085729Y-102591377D01*
X101305008Y-102634994D01*
X101528584Y-102634994D01*
X101747863Y-102591377D01*
X101954420Y-102505818D01*
X102140316Y-102381606D01*
X102298408Y-102223514D01*
X102422620Y-102037618D01*
X102508179Y-101831061D01*
X102551796Y-101611782D01*
X102551796Y-101408212D01*
X103185196Y-101408212D01*
X103185196Y-101631788D01*
X103228813Y-101851067D01*
X103314372Y-102057624D01*
X103438584Y-102243520D01*
X103596676Y-102401612D01*
X103782572Y-102525824D01*
X103989129Y-102611383D01*
X104208408Y-102655000D01*
X104431984Y-102655000D01*
X104651263Y-102611383D01*
X104857820Y-102525824D01*
X105043716Y-102401612D01*
X105201808Y-102243520D01*
X105326020Y-102057624D01*
X105411579Y-101851067D01*
X105455196Y-101631788D01*
X105455196Y-101408212D01*
X105447629Y-101370166D01*
X107503314Y-101370166D01*
X107503314Y-101593742D01*
X107546931Y-101813021D01*
X107632490Y-102019578D01*
X107756702Y-102205474D01*
X107914794Y-102363566D01*
X108100690Y-102487778D01*
X108307247Y-102573337D01*
X108526526Y-102616954D01*
X108750102Y-102616954D01*
X108969381Y-102573337D01*
X109175938Y-102487778D01*
X109361834Y-102363566D01*
X109519926Y-102205474D01*
X109644138Y-102019578D01*
X109729697Y-101813021D01*
X109773314Y-101593742D01*
X109773314Y-101488033D01*
X115423291Y-101488033D01*
X115423291Y-101711609D01*
X115466908Y-101930888D01*
X115552467Y-102137445D01*
X115676679Y-102323341D01*
X115834771Y-102481433D01*
X116020667Y-102605645D01*
X116227224Y-102691204D01*
X116446503Y-102734821D01*
X116670079Y-102734821D01*
X116889358Y-102691204D01*
X117095915Y-102605645D01*
X117281811Y-102481433D01*
X117387452Y-102375792D01*
X117443276Y-102431616D01*
X117629172Y-102555828D01*
X117835729Y-102641387D01*
X118055008Y-102685004D01*
X118278584Y-102685004D01*
X118497863Y-102641387D01*
X118704420Y-102555828D01*
X118890316Y-102431616D01*
X119048408Y-102273524D01*
X119172620Y-102087628D01*
X119258179Y-101881071D01*
X119301796Y-101661792D01*
X119301796Y-101438216D01*
X119295828Y-101408212D01*
X119851896Y-101408212D01*
X119851896Y-101631788D01*
X119895513Y-101851067D01*
X119981072Y-102057624D01*
X120105284Y-102243520D01*
X120263376Y-102401612D01*
X120449272Y-102525824D01*
X120655829Y-102611383D01*
X120875108Y-102655000D01*
X121098684Y-102655000D01*
X121317963Y-102611383D01*
X121524520Y-102525824D01*
X121710416Y-102401612D01*
X121868508Y-102243520D01*
X121992720Y-102057624D01*
X122078279Y-101851067D01*
X122121896Y-101631788D01*
X122121896Y-101408212D01*
X122114329Y-101370166D01*
X124170014Y-101370166D01*
X124170014Y-101593742D01*
X124213631Y-101813021D01*
X124299190Y-102019578D01*
X124423402Y-102205474D01*
X124581494Y-102363566D01*
X124767390Y-102487778D01*
X124973947Y-102573337D01*
X125193226Y-102616954D01*
X125416802Y-102616954D01*
X125636081Y-102573337D01*
X125842638Y-102487778D01*
X126028534Y-102363566D01*
X126186626Y-102205474D01*
X126310838Y-102019578D01*
X126396397Y-101813021D01*
X126440014Y-101593742D01*
X126440014Y-101488033D01*
X132089991Y-101488033D01*
X132089991Y-101711609D01*
X132133608Y-101930888D01*
X132219167Y-102137445D01*
X132343379Y-102323341D01*
X132501471Y-102481433D01*
X132687367Y-102605645D01*
X132893924Y-102691204D01*
X133113203Y-102734821D01*
X133336779Y-102734821D01*
X133556058Y-102691204D01*
X133762615Y-102605645D01*
X133948511Y-102481433D01*
X134070804Y-102359140D01*
X134143276Y-102431612D01*
X134329172Y-102555824D01*
X134535729Y-102641383D01*
X134755008Y-102685000D01*
X134978584Y-102685000D01*
X135197863Y-102641383D01*
X135404420Y-102555824D01*
X135590316Y-102431612D01*
X135748408Y-102273520D01*
X135872620Y-102087624D01*
X135958179Y-101881067D01*
X136001796Y-101661788D01*
X136001796Y-101438212D01*
X135995829Y-101408212D01*
X136518596Y-101408212D01*
X136518596Y-101631788D01*
X136562213Y-101851067D01*
X136647772Y-102057624D01*
X136771984Y-102243520D01*
X136930076Y-102401612D01*
X137115972Y-102525824D01*
X137322529Y-102611383D01*
X137541808Y-102655000D01*
X137765384Y-102655000D01*
X137984663Y-102611383D01*
X138191220Y-102525824D01*
X138377116Y-102401612D01*
X138535208Y-102243520D01*
X138659420Y-102057624D01*
X138744979Y-101851067D01*
X138788596Y-101631788D01*
X138788596Y-101408212D01*
X138781029Y-101370166D01*
X140836714Y-101370166D01*
X140836714Y-101593742D01*
X140880331Y-101813021D01*
X140965890Y-102019578D01*
X141090102Y-102205474D01*
X141248194Y-102363566D01*
X141434090Y-102487778D01*
X141640647Y-102573337D01*
X141859926Y-102616954D01*
X142083502Y-102616954D01*
X142302781Y-102573337D01*
X142509338Y-102487778D01*
X142695234Y-102363566D01*
X142853326Y-102205474D01*
X142977538Y-102019578D01*
X143063097Y-101813021D01*
X143106714Y-101593742D01*
X143106714Y-101488033D01*
X148756691Y-101488033D01*
X148756691Y-101711609D01*
X148800308Y-101930888D01*
X148885867Y-102137445D01*
X149010079Y-102323341D01*
X149168171Y-102481433D01*
X149354067Y-102605645D01*
X149560624Y-102691204D01*
X149779903Y-102734821D01*
X150003479Y-102734821D01*
X150222758Y-102691204D01*
X150429315Y-102605645D01*
X150615211Y-102481433D01*
X150704154Y-102392490D01*
X150743276Y-102431612D01*
X150929172Y-102555824D01*
X151135729Y-102641383D01*
X151355008Y-102685000D01*
X151578584Y-102685000D01*
X151797863Y-102641383D01*
X152004420Y-102555824D01*
X152190316Y-102431612D01*
X152348408Y-102273520D01*
X152472620Y-102087624D01*
X152558179Y-101881067D01*
X152601796Y-101661788D01*
X152601796Y-101438212D01*
X152595829Y-101408212D01*
X153185296Y-101408212D01*
X153185296Y-101631788D01*
X153228913Y-101851067D01*
X153314472Y-102057624D01*
X153438684Y-102243520D01*
X153596776Y-102401612D01*
X153782672Y-102525824D01*
X153989229Y-102611383D01*
X154208508Y-102655000D01*
X154432084Y-102655000D01*
X154651363Y-102611383D01*
X154857920Y-102525824D01*
X155043816Y-102401612D01*
X155201908Y-102243520D01*
X155326120Y-102057624D01*
X155411679Y-101851067D01*
X155455296Y-101631788D01*
X155455296Y-101408212D01*
X155447729Y-101370166D01*
X157503414Y-101370166D01*
X157503414Y-101593742D01*
X157547031Y-101813021D01*
X157632590Y-102019578D01*
X157756802Y-102205474D01*
X157914894Y-102363566D01*
X158100790Y-102487778D01*
X158307347Y-102573337D01*
X158526626Y-102616954D01*
X158750202Y-102616954D01*
X158969481Y-102573337D01*
X159176038Y-102487778D01*
X159361934Y-102363566D01*
X159520026Y-102205474D01*
X159644238Y-102019578D01*
X159729797Y-101813021D01*
X159773414Y-101593742D01*
X159773414Y-101488033D01*
X165423391Y-101488033D01*
X165423391Y-101711609D01*
X165467008Y-101930888D01*
X165552567Y-102137445D01*
X165676779Y-102323341D01*
X165834871Y-102481433D01*
X166020767Y-102605645D01*
X166227324Y-102691204D01*
X166446603Y-102734821D01*
X166670179Y-102734821D01*
X166889458Y-102691204D01*
X167096015Y-102605645D01*
X167281911Y-102481433D01*
X167387504Y-102375840D01*
X167443276Y-102431612D01*
X167629172Y-102555824D01*
X167835729Y-102641383D01*
X168055008Y-102685000D01*
X168278584Y-102685000D01*
X168497863Y-102641383D01*
X168704420Y-102555824D01*
X168890316Y-102431612D01*
X169048408Y-102273520D01*
X169172620Y-102087624D01*
X169258179Y-101881067D01*
X169301796Y-101661788D01*
X169301796Y-101438212D01*
X169295829Y-101408212D01*
X169851996Y-101408212D01*
X169851996Y-101631788D01*
X169895613Y-101851067D01*
X169981172Y-102057624D01*
X170105384Y-102243520D01*
X170263476Y-102401612D01*
X170449372Y-102525824D01*
X170655929Y-102611383D01*
X170875208Y-102655000D01*
X171098784Y-102655000D01*
X171318063Y-102611383D01*
X171524620Y-102525824D01*
X171710516Y-102401612D01*
X171868608Y-102243520D01*
X171992820Y-102057624D01*
X172078379Y-101851067D01*
X172121996Y-101631788D01*
X172121996Y-101408212D01*
X172114429Y-101370166D01*
X174170114Y-101370166D01*
X174170114Y-101593742D01*
X174213731Y-101813021D01*
X174299290Y-102019578D01*
X174423502Y-102205474D01*
X174581594Y-102363566D01*
X174767490Y-102487778D01*
X174974047Y-102573337D01*
X175193326Y-102616954D01*
X175416902Y-102616954D01*
X175636181Y-102573337D01*
X175842738Y-102487778D01*
X176028634Y-102363566D01*
X176186726Y-102205474D01*
X176310938Y-102019578D01*
X176396497Y-101813021D01*
X176440114Y-101593742D01*
X176440114Y-101488033D01*
X182090091Y-101488033D01*
X182090091Y-101711609D01*
X182133708Y-101930888D01*
X182219267Y-102137445D01*
X182343479Y-102323341D01*
X182501571Y-102481433D01*
X182687467Y-102605645D01*
X182894024Y-102691204D01*
X183113303Y-102734821D01*
X183336879Y-102734821D01*
X183556158Y-102691204D01*
X183762715Y-102605645D01*
X183948611Y-102481433D01*
X184106703Y-102323341D01*
X184118038Y-102306376D01*
X184243276Y-102431614D01*
X184429172Y-102555826D01*
X184635729Y-102641385D01*
X184855008Y-102685002D01*
X185078584Y-102685002D01*
X185297863Y-102641385D01*
X185504420Y-102555826D01*
X185690316Y-102431614D01*
X185848408Y-102273522D01*
X185972620Y-102087626D01*
X186058179Y-101881069D01*
X186101796Y-101661790D01*
X186101796Y-101438214D01*
X186095829Y-101408212D01*
X186518696Y-101408212D01*
X186518696Y-101631788D01*
X186562313Y-101851067D01*
X186647872Y-102057624D01*
X186772084Y-102243520D01*
X186930176Y-102401612D01*
X187116072Y-102525824D01*
X187322629Y-102611383D01*
X187541908Y-102655000D01*
X187765484Y-102655000D01*
X187984763Y-102611383D01*
X188191320Y-102525824D01*
X188377216Y-102401612D01*
X188535308Y-102243520D01*
X188659520Y-102057624D01*
X188745079Y-101851067D01*
X188788696Y-101631788D01*
X188788696Y-101408212D01*
X188781129Y-101370166D01*
X190836814Y-101370166D01*
X190836814Y-101593742D01*
X190880431Y-101813021D01*
X190965990Y-102019578D01*
X191090202Y-102205474D01*
X191248294Y-102363566D01*
X191434190Y-102487778D01*
X191640747Y-102573337D01*
X191860026Y-102616954D01*
X192083602Y-102616954D01*
X192302881Y-102573337D01*
X192509438Y-102487778D01*
X192695334Y-102363566D01*
X192853426Y-102205474D01*
X192977638Y-102019578D01*
X193063197Y-101813021D01*
X193106814Y-101593742D01*
X193106814Y-101488033D01*
X198756791Y-101488033D01*
X198756791Y-101711609D01*
X198800408Y-101930888D01*
X198885967Y-102137445D01*
X199010179Y-102323341D01*
X199168271Y-102481433D01*
X199354167Y-102605645D01*
X199560724Y-102691204D01*
X199780003Y-102734821D01*
X200003579Y-102734821D01*
X200222858Y-102691204D01*
X200429415Y-102605645D01*
X200615311Y-102481433D01*
X200656378Y-102440366D01*
X200829172Y-102555824D01*
X201035729Y-102641383D01*
X201255008Y-102685000D01*
X201478584Y-102685000D01*
X201697863Y-102641383D01*
X201904420Y-102555824D01*
X202090316Y-102431612D01*
X202248408Y-102273520D01*
X202372620Y-102087624D01*
X202458179Y-101881067D01*
X202501796Y-101661788D01*
X202501796Y-101438212D01*
X202495829Y-101408212D01*
X203185396Y-101408212D01*
X203185396Y-101631788D01*
X203229013Y-101851067D01*
X203314572Y-102057624D01*
X203438784Y-102243520D01*
X203596876Y-102401612D01*
X203782772Y-102525824D01*
X203989329Y-102611383D01*
X204208608Y-102655000D01*
X204432184Y-102655000D01*
X204651463Y-102611383D01*
X204858020Y-102525824D01*
X205043916Y-102401612D01*
X205202008Y-102243520D01*
X205326220Y-102057624D01*
X205411779Y-101851067D01*
X205455396Y-101631788D01*
X205455396Y-101408212D01*
X205447829Y-101370166D01*
X207503514Y-101370166D01*
X207503514Y-101593742D01*
X207547131Y-101813021D01*
X207632690Y-102019578D01*
X207756902Y-102205474D01*
X207914994Y-102363566D01*
X208100890Y-102487778D01*
X208307447Y-102573337D01*
X208526726Y-102616954D01*
X208750302Y-102616954D01*
X208969581Y-102573337D01*
X209176138Y-102487778D01*
X209362034Y-102363566D01*
X209520126Y-102205474D01*
X209644338Y-102019578D01*
X209729897Y-101813021D01*
X209773514Y-101593742D01*
X209773514Y-101488033D01*
X215423491Y-101488033D01*
X215423491Y-101711609D01*
X215467108Y-101930888D01*
X215552667Y-102137445D01*
X215676879Y-102323341D01*
X215834971Y-102481433D01*
X216020867Y-102605645D01*
X216227424Y-102691204D01*
X216446703Y-102734821D01*
X216670279Y-102734821D01*
X216889558Y-102691204D01*
X217096115Y-102605645D01*
X217282011Y-102481433D01*
X217437554Y-102325890D01*
X217543276Y-102431612D01*
X217729172Y-102555824D01*
X217935729Y-102641383D01*
X218155008Y-102685000D01*
X218378584Y-102685000D01*
X218597863Y-102641383D01*
X218804420Y-102555824D01*
X218990316Y-102431612D01*
X219148408Y-102273520D01*
X219272620Y-102087624D01*
X219358179Y-101881067D01*
X219401796Y-101661788D01*
X219401796Y-101438212D01*
X219395829Y-101408212D01*
X219852096Y-101408212D01*
X219852096Y-101631788D01*
X219895713Y-101851067D01*
X219981272Y-102057624D01*
X220105484Y-102243520D01*
X220263576Y-102401612D01*
X220449472Y-102525824D01*
X220656029Y-102611383D01*
X220875308Y-102655000D01*
X221098884Y-102655000D01*
X221318163Y-102611383D01*
X221524720Y-102525824D01*
X221710616Y-102401612D01*
X221868708Y-102243520D01*
X221992920Y-102057624D01*
X222078479Y-101851067D01*
X222122096Y-101631788D01*
X222122096Y-101408212D01*
X222114529Y-101370166D01*
X224170214Y-101370166D01*
X224170214Y-101593742D01*
X224213831Y-101813021D01*
X224299390Y-102019578D01*
X224423602Y-102205474D01*
X224581694Y-102363566D01*
X224767590Y-102487778D01*
X224974147Y-102573337D01*
X225193426Y-102616954D01*
X225417002Y-102616954D01*
X225636281Y-102573337D01*
X225842838Y-102487778D01*
X226028734Y-102363566D01*
X226186826Y-102205474D01*
X226311038Y-102019578D01*
X226396597Y-101813021D01*
X226440214Y-101593742D01*
X226440214Y-101488033D01*
X232090191Y-101488033D01*
X232090191Y-101711609D01*
X232133808Y-101930888D01*
X232219367Y-102137445D01*
X232343579Y-102323341D01*
X232501671Y-102481433D01*
X232687567Y-102605645D01*
X232894124Y-102691204D01*
X233113403Y-102734821D01*
X233336979Y-102734821D01*
X233556258Y-102691204D01*
X233762815Y-102605645D01*
X233948711Y-102481433D01*
X234073744Y-102356400D01*
X234085184Y-102373520D01*
X234243276Y-102531612D01*
X234429172Y-102655824D01*
X234635729Y-102741383D01*
X234855008Y-102785000D01*
X235078584Y-102785000D01*
X235297863Y-102741383D01*
X235504420Y-102655824D01*
X235690316Y-102531612D01*
X235848408Y-102373520D01*
X235972620Y-102187624D01*
X236058179Y-101981067D01*
X236101796Y-101761788D01*
X236101796Y-101538212D01*
X236075938Y-101408212D01*
X236518796Y-101408212D01*
X236518796Y-101631788D01*
X236562413Y-101851067D01*
X236647972Y-102057624D01*
X236772184Y-102243520D01*
X236930276Y-102401612D01*
X237116172Y-102525824D01*
X237322729Y-102611383D01*
X237542008Y-102655000D01*
X237765584Y-102655000D01*
X237984863Y-102611383D01*
X238191420Y-102525824D01*
X238377316Y-102401612D01*
X238535408Y-102243520D01*
X238659620Y-102057624D01*
X238745179Y-101851067D01*
X238788796Y-101631788D01*
X238788796Y-101408212D01*
X238781229Y-101370166D01*
X240836914Y-101370166D01*
X240836914Y-101593742D01*
X240880531Y-101813021D01*
X240966090Y-102019578D01*
X241090302Y-102205474D01*
X241248394Y-102363566D01*
X241434290Y-102487778D01*
X241640847Y-102573337D01*
X241860126Y-102616954D01*
X242083702Y-102616954D01*
X242302981Y-102573337D01*
X242509538Y-102487778D01*
X242695434Y-102363566D01*
X242853526Y-102205474D01*
X242977738Y-102019578D01*
X243063297Y-101813021D01*
X243106914Y-101593742D01*
X243106914Y-101538212D01*
X249231796Y-101538212D01*
X249231796Y-101761788D01*
X249275413Y-101981067D01*
X249360972Y-102187624D01*
X249485184Y-102373520D01*
X249643276Y-102531612D01*
X249829172Y-102655824D01*
X250035729Y-102741383D01*
X250255008Y-102785000D01*
X250478584Y-102785000D01*
X250697863Y-102741383D01*
X250904420Y-102655824D01*
X251066793Y-102547330D01*
X251229172Y-102655828D01*
X251435729Y-102741387D01*
X251655008Y-102785004D01*
X251878584Y-102785004D01*
X252097863Y-102741387D01*
X252304420Y-102655828D01*
X252490316Y-102531616D01*
X252648408Y-102373524D01*
X252772620Y-102187628D01*
X252858179Y-101981071D01*
X252876658Y-101888170D01*
X256831796Y-101888170D01*
X256831796Y-102111746D01*
X256875413Y-102331025D01*
X256960972Y-102537582D01*
X257085184Y-102723478D01*
X257243276Y-102881570D01*
X257429172Y-103005782D01*
X257635729Y-103091341D01*
X257855008Y-103134958D01*
X258078584Y-103134958D01*
X258297863Y-103091341D01*
X258504420Y-103005782D01*
X258690316Y-102881570D01*
X258848408Y-102723478D01*
X258972620Y-102537582D01*
X259058179Y-102331025D01*
X259070671Y-102268224D01*
X259155008Y-102285000D01*
X259378584Y-102285000D01*
X259597863Y-102241383D01*
X259804420Y-102155824D01*
X259990316Y-102031612D01*
X260148408Y-101873520D01*
X260272620Y-101687624D01*
X260358179Y-101481067D01*
X260401796Y-101261788D01*
X260401796Y-101038212D01*
X260358179Y-100818933D01*
X260272620Y-100612376D01*
X260148408Y-100426480D01*
X259990316Y-100268388D01*
X259804420Y-100144176D01*
X259597863Y-100058617D01*
X259378584Y-100015000D01*
X259155008Y-100015000D01*
X258935729Y-100058617D01*
X258729172Y-100144176D01*
X258543276Y-100268388D01*
X258385184Y-100426480D01*
X258260972Y-100612376D01*
X258175413Y-100818933D01*
X258162921Y-100881734D01*
X258078584Y-100864958D01*
X257855008Y-100864958D01*
X257635729Y-100908575D01*
X257429172Y-100994134D01*
X257243276Y-101118346D01*
X257085184Y-101276438D01*
X256960972Y-101462334D01*
X256875413Y-101668891D01*
X256831796Y-101888170D01*
X252876658Y-101888170D01*
X252901796Y-101761792D01*
X252901796Y-101538216D01*
X252858179Y-101318937D01*
X252772620Y-101112380D01*
X252648408Y-100926484D01*
X252490316Y-100768392D01*
X252304420Y-100644180D01*
X252097863Y-100558621D01*
X251878584Y-100515004D01*
X251655008Y-100515004D01*
X251435729Y-100558621D01*
X251229172Y-100644180D01*
X251066799Y-100752674D01*
X250904420Y-100644176D01*
X250697863Y-100558617D01*
X250478584Y-100515000D01*
X250255008Y-100515000D01*
X250035729Y-100558617D01*
X249829172Y-100644176D01*
X249643276Y-100768388D01*
X249485184Y-100926480D01*
X249360972Y-101112376D01*
X249275413Y-101318933D01*
X249231796Y-101538212D01*
X243106914Y-101538212D01*
X243106914Y-101370166D01*
X243063297Y-101150887D01*
X242977738Y-100944330D01*
X242853526Y-100758434D01*
X242695434Y-100600342D01*
X242509538Y-100476130D01*
X242302981Y-100390571D01*
X242083702Y-100346954D01*
X241860126Y-100346954D01*
X241640847Y-100390571D01*
X241434290Y-100476130D01*
X241248394Y-100600342D01*
X241090302Y-100758434D01*
X240966090Y-100944330D01*
X240880531Y-101150887D01*
X240836914Y-101370166D01*
X238781229Y-101370166D01*
X238745179Y-101188933D01*
X238659620Y-100982376D01*
X238535408Y-100796480D01*
X238377316Y-100638388D01*
X238191420Y-100514176D01*
X237984863Y-100428617D01*
X237765584Y-100385000D01*
X237542008Y-100385000D01*
X237322729Y-100428617D01*
X237116172Y-100514176D01*
X236930276Y-100638388D01*
X236772184Y-100796480D01*
X236647972Y-100982376D01*
X236562413Y-101188933D01*
X236518796Y-101408212D01*
X236075938Y-101408212D01*
X236058179Y-101318933D01*
X235972620Y-101112376D01*
X235848408Y-100926480D01*
X235690316Y-100768388D01*
X235504420Y-100644176D01*
X235297863Y-100558617D01*
X235078584Y-100515000D01*
X234855008Y-100515000D01*
X234635729Y-100558617D01*
X234429172Y-100644176D01*
X234243276Y-100768388D01*
X234118243Y-100893421D01*
X234106803Y-100876301D01*
X233948711Y-100718209D01*
X233762815Y-100593997D01*
X233556258Y-100508438D01*
X233336979Y-100464821D01*
X233113403Y-100464821D01*
X232894124Y-100508438D01*
X232687567Y-100593997D01*
X232501671Y-100718209D01*
X232343579Y-100876301D01*
X232219367Y-101062197D01*
X232133808Y-101268754D01*
X232090191Y-101488033D01*
X226440214Y-101488033D01*
X226440214Y-101370166D01*
X226396597Y-101150887D01*
X226311038Y-100944330D01*
X226186826Y-100758434D01*
X226028734Y-100600342D01*
X225842838Y-100476130D01*
X225636281Y-100390571D01*
X225417002Y-100346954D01*
X225193426Y-100346954D01*
X224974147Y-100390571D01*
X224767590Y-100476130D01*
X224581694Y-100600342D01*
X224423602Y-100758434D01*
X224299390Y-100944330D01*
X224213831Y-101150887D01*
X224170214Y-101370166D01*
X222114529Y-101370166D01*
X222078479Y-101188933D01*
X221992920Y-100982376D01*
X221868708Y-100796480D01*
X221710616Y-100638388D01*
X221524720Y-100514176D01*
X221318163Y-100428617D01*
X221098884Y-100385000D01*
X220875308Y-100385000D01*
X220656029Y-100428617D01*
X220449472Y-100514176D01*
X220263576Y-100638388D01*
X220105484Y-100796480D01*
X219981272Y-100982376D01*
X219895713Y-101188933D01*
X219852096Y-101408212D01*
X219395829Y-101408212D01*
X219358179Y-101218933D01*
X219272620Y-101012376D01*
X219148408Y-100826480D01*
X218990316Y-100668388D01*
X218804420Y-100544176D01*
X218597863Y-100458617D01*
X218378584Y-100415000D01*
X218155008Y-100415000D01*
X217935729Y-100458617D01*
X217729172Y-100544176D01*
X217543276Y-100668388D01*
X217387733Y-100823931D01*
X217282011Y-100718209D01*
X217096115Y-100593997D01*
X216889558Y-100508438D01*
X216670279Y-100464821D01*
X216446703Y-100464821D01*
X216227424Y-100508438D01*
X216020867Y-100593997D01*
X215834971Y-100718209D01*
X215676879Y-100876301D01*
X215552667Y-101062197D01*
X215467108Y-101268754D01*
X215423491Y-101488033D01*
X209773514Y-101488033D01*
X209773514Y-101370166D01*
X209729897Y-101150887D01*
X209644338Y-100944330D01*
X209520126Y-100758434D01*
X209362034Y-100600342D01*
X209176138Y-100476130D01*
X208969581Y-100390571D01*
X208750302Y-100346954D01*
X208526726Y-100346954D01*
X208307447Y-100390571D01*
X208100890Y-100476130D01*
X207914994Y-100600342D01*
X207756902Y-100758434D01*
X207632690Y-100944330D01*
X207547131Y-101150887D01*
X207503514Y-101370166D01*
X205447829Y-101370166D01*
X205411779Y-101188933D01*
X205326220Y-100982376D01*
X205202008Y-100796480D01*
X205043916Y-100638388D01*
X204858020Y-100514176D01*
X204651463Y-100428617D01*
X204432184Y-100385000D01*
X204208608Y-100385000D01*
X203989329Y-100428617D01*
X203782772Y-100514176D01*
X203596876Y-100638388D01*
X203438784Y-100796480D01*
X203314572Y-100982376D01*
X203229013Y-101188933D01*
X203185396Y-101408212D01*
X202495829Y-101408212D01*
X202458179Y-101218933D01*
X202372620Y-101012376D01*
X202248408Y-100826480D01*
X202090316Y-100668388D01*
X201904420Y-100544176D01*
X201697863Y-100458617D01*
X201478584Y-100415000D01*
X201255008Y-100415000D01*
X201035729Y-100458617D01*
X200829172Y-100544176D01*
X200643276Y-100668388D01*
X200602209Y-100709455D01*
X200429415Y-100593997D01*
X200222858Y-100508438D01*
X200003579Y-100464821D01*
X199780003Y-100464821D01*
X199560724Y-100508438D01*
X199354167Y-100593997D01*
X199168271Y-100718209D01*
X199010179Y-100876301D01*
X198885967Y-101062197D01*
X198800408Y-101268754D01*
X198756791Y-101488033D01*
X193106814Y-101488033D01*
X193106814Y-101370166D01*
X193063197Y-101150887D01*
X192977638Y-100944330D01*
X192853426Y-100758434D01*
X192695334Y-100600342D01*
X192509438Y-100476130D01*
X192302881Y-100390571D01*
X192083602Y-100346954D01*
X191860026Y-100346954D01*
X191640747Y-100390571D01*
X191434190Y-100476130D01*
X191248294Y-100600342D01*
X191090202Y-100758434D01*
X190965990Y-100944330D01*
X190880431Y-101150887D01*
X190836814Y-101370166D01*
X188781129Y-101370166D01*
X188745079Y-101188933D01*
X188659520Y-100982376D01*
X188535308Y-100796480D01*
X188377216Y-100638388D01*
X188191320Y-100514176D01*
X187984763Y-100428617D01*
X187765484Y-100385000D01*
X187541908Y-100385000D01*
X187322629Y-100428617D01*
X187116072Y-100514176D01*
X186930176Y-100638388D01*
X186772084Y-100796480D01*
X186647872Y-100982376D01*
X186562313Y-101188933D01*
X186518696Y-101408212D01*
X186095829Y-101408212D01*
X186058179Y-101218935D01*
X185972620Y-101012378D01*
X185848408Y-100826482D01*
X185690316Y-100668390D01*
X185504420Y-100544178D01*
X185297863Y-100458619D01*
X185078584Y-100415002D01*
X184855008Y-100415002D01*
X184635729Y-100458619D01*
X184429172Y-100544178D01*
X184243276Y-100668390D01*
X184085184Y-100826482D01*
X184073849Y-100843447D01*
X183948611Y-100718209D01*
X183762715Y-100593997D01*
X183556158Y-100508438D01*
X183336879Y-100464821D01*
X183113303Y-100464821D01*
X182894024Y-100508438D01*
X182687467Y-100593997D01*
X182501571Y-100718209D01*
X182343479Y-100876301D01*
X182219267Y-101062197D01*
X182133708Y-101268754D01*
X182090091Y-101488033D01*
X176440114Y-101488033D01*
X176440114Y-101370166D01*
X176396497Y-101150887D01*
X176310938Y-100944330D01*
X176186726Y-100758434D01*
X176028634Y-100600342D01*
X175842738Y-100476130D01*
X175636181Y-100390571D01*
X175416902Y-100346954D01*
X175193326Y-100346954D01*
X174974047Y-100390571D01*
X174767490Y-100476130D01*
X174581594Y-100600342D01*
X174423502Y-100758434D01*
X174299290Y-100944330D01*
X174213731Y-101150887D01*
X174170114Y-101370166D01*
X172114429Y-101370166D01*
X172078379Y-101188933D01*
X171992820Y-100982376D01*
X171868608Y-100796480D01*
X171710516Y-100638388D01*
X171524620Y-100514176D01*
X171318063Y-100428617D01*
X171098784Y-100385000D01*
X170875208Y-100385000D01*
X170655929Y-100428617D01*
X170449372Y-100514176D01*
X170263476Y-100638388D01*
X170105384Y-100796480D01*
X169981172Y-100982376D01*
X169895613Y-101188933D01*
X169851996Y-101408212D01*
X169295829Y-101408212D01*
X169258179Y-101218933D01*
X169172620Y-101012376D01*
X169048408Y-100826480D01*
X168890316Y-100668388D01*
X168704420Y-100544176D01*
X168497863Y-100458617D01*
X168278584Y-100415000D01*
X168055008Y-100415000D01*
X167835729Y-100458617D01*
X167629172Y-100544176D01*
X167443276Y-100668388D01*
X167337683Y-100773981D01*
X167281911Y-100718209D01*
X167096015Y-100593997D01*
X166889458Y-100508438D01*
X166670179Y-100464821D01*
X166446603Y-100464821D01*
X166227324Y-100508438D01*
X166020767Y-100593997D01*
X165834871Y-100718209D01*
X165676779Y-100876301D01*
X165552567Y-101062197D01*
X165467008Y-101268754D01*
X165423391Y-101488033D01*
X159773414Y-101488033D01*
X159773414Y-101370166D01*
X159729797Y-101150887D01*
X159644238Y-100944330D01*
X159520026Y-100758434D01*
X159361934Y-100600342D01*
X159176038Y-100476130D01*
X158969481Y-100390571D01*
X158750202Y-100346954D01*
X158526626Y-100346954D01*
X158307347Y-100390571D01*
X158100790Y-100476130D01*
X157914894Y-100600342D01*
X157756802Y-100758434D01*
X157632590Y-100944330D01*
X157547031Y-101150887D01*
X157503414Y-101370166D01*
X155447729Y-101370166D01*
X155411679Y-101188933D01*
X155326120Y-100982376D01*
X155201908Y-100796480D01*
X155043816Y-100638388D01*
X154857920Y-100514176D01*
X154651363Y-100428617D01*
X154432084Y-100385000D01*
X154208508Y-100385000D01*
X153989229Y-100428617D01*
X153782672Y-100514176D01*
X153596776Y-100638388D01*
X153438684Y-100796480D01*
X153314472Y-100982376D01*
X153228913Y-101188933D01*
X153185296Y-101408212D01*
X152595829Y-101408212D01*
X152558179Y-101218933D01*
X152472620Y-101012376D01*
X152348408Y-100826480D01*
X152190316Y-100668388D01*
X152004420Y-100544176D01*
X151797863Y-100458617D01*
X151578584Y-100415000D01*
X151355008Y-100415000D01*
X151135729Y-100458617D01*
X150929172Y-100544176D01*
X150743276Y-100668388D01*
X150654333Y-100757331D01*
X150615211Y-100718209D01*
X150429315Y-100593997D01*
X150222758Y-100508438D01*
X150003479Y-100464821D01*
X149779903Y-100464821D01*
X149560624Y-100508438D01*
X149354067Y-100593997D01*
X149168171Y-100718209D01*
X149010079Y-100876301D01*
X148885867Y-101062197D01*
X148800308Y-101268754D01*
X148756691Y-101488033D01*
X143106714Y-101488033D01*
X143106714Y-101370166D01*
X143063097Y-101150887D01*
X142977538Y-100944330D01*
X142853326Y-100758434D01*
X142695234Y-100600342D01*
X142509338Y-100476130D01*
X142302781Y-100390571D01*
X142083502Y-100346954D01*
X141859926Y-100346954D01*
X141640647Y-100390571D01*
X141434090Y-100476130D01*
X141248194Y-100600342D01*
X141090102Y-100758434D01*
X140965890Y-100944330D01*
X140880331Y-101150887D01*
X140836714Y-101370166D01*
X138781029Y-101370166D01*
X138744979Y-101188933D01*
X138659420Y-100982376D01*
X138535208Y-100796480D01*
X138377116Y-100638388D01*
X138191220Y-100514176D01*
X137984663Y-100428617D01*
X137765384Y-100385000D01*
X137541808Y-100385000D01*
X137322529Y-100428617D01*
X137115972Y-100514176D01*
X136930076Y-100638388D01*
X136771984Y-100796480D01*
X136647772Y-100982376D01*
X136562213Y-101188933D01*
X136518596Y-101408212D01*
X135995829Y-101408212D01*
X135958179Y-101218933D01*
X135872620Y-101012376D01*
X135748408Y-100826480D01*
X135590316Y-100668388D01*
X135404420Y-100544176D01*
X135197863Y-100458617D01*
X134978584Y-100415000D01*
X134755008Y-100415000D01*
X134535729Y-100458617D01*
X134329172Y-100544176D01*
X134143276Y-100668388D01*
X134020983Y-100790681D01*
X133948511Y-100718209D01*
X133762615Y-100593997D01*
X133556058Y-100508438D01*
X133336779Y-100464821D01*
X133113203Y-100464821D01*
X132893924Y-100508438D01*
X132687367Y-100593997D01*
X132501471Y-100718209D01*
X132343379Y-100876301D01*
X132219167Y-101062197D01*
X132133608Y-101268754D01*
X132089991Y-101488033D01*
X126440014Y-101488033D01*
X126440014Y-101370166D01*
X126396397Y-101150887D01*
X126310838Y-100944330D01*
X126186626Y-100758434D01*
X126028534Y-100600342D01*
X125842638Y-100476130D01*
X125636081Y-100390571D01*
X125416802Y-100346954D01*
X125193226Y-100346954D01*
X124973947Y-100390571D01*
X124767390Y-100476130D01*
X124581494Y-100600342D01*
X124423402Y-100758434D01*
X124299190Y-100944330D01*
X124213631Y-101150887D01*
X124170014Y-101370166D01*
X122114329Y-101370166D01*
X122078279Y-101188933D01*
X121992720Y-100982376D01*
X121868508Y-100796480D01*
X121710416Y-100638388D01*
X121524520Y-100514176D01*
X121317963Y-100428617D01*
X121098684Y-100385000D01*
X120875108Y-100385000D01*
X120655829Y-100428617D01*
X120449272Y-100514176D01*
X120263376Y-100638388D01*
X120105284Y-100796480D01*
X119981072Y-100982376D01*
X119895513Y-101188933D01*
X119851896Y-101408212D01*
X119295828Y-101408212D01*
X119258179Y-101218937D01*
X119172620Y-101012380D01*
X119048408Y-100826484D01*
X118890316Y-100668392D01*
X118704420Y-100544180D01*
X118497863Y-100458621D01*
X118278584Y-100415004D01*
X118055008Y-100415004D01*
X117835729Y-100458621D01*
X117629172Y-100544180D01*
X117443276Y-100668392D01*
X117337635Y-100774033D01*
X117281811Y-100718209D01*
X117095915Y-100593997D01*
X116889358Y-100508438D01*
X116670079Y-100464821D01*
X116446503Y-100464821D01*
X116227224Y-100508438D01*
X116020667Y-100593997D01*
X115834771Y-100718209D01*
X115676679Y-100876301D01*
X115552467Y-101062197D01*
X115466908Y-101268754D01*
X115423291Y-101488033D01*
X109773314Y-101488033D01*
X109773314Y-101370166D01*
X109729697Y-101150887D01*
X109644138Y-100944330D01*
X109519926Y-100758434D01*
X109361834Y-100600342D01*
X109175938Y-100476130D01*
X108969381Y-100390571D01*
X108750102Y-100346954D01*
X108526526Y-100346954D01*
X108307247Y-100390571D01*
X108100690Y-100476130D01*
X107914794Y-100600342D01*
X107756702Y-100758434D01*
X107632490Y-100944330D01*
X107546931Y-101150887D01*
X107503314Y-101370166D01*
X105447629Y-101370166D01*
X105411579Y-101188933D01*
X105326020Y-100982376D01*
X105201808Y-100796480D01*
X105043716Y-100638388D01*
X104857820Y-100514176D01*
X104651263Y-100428617D01*
X104431984Y-100385000D01*
X104208408Y-100385000D01*
X103989129Y-100428617D01*
X103782572Y-100514176D01*
X103596676Y-100638388D01*
X103438584Y-100796480D01*
X103314372Y-100982376D01*
X103228813Y-101188933D01*
X103185196Y-101408212D01*
X102551796Y-101408212D01*
X102551796Y-101388206D01*
X102508179Y-101168927D01*
X102422620Y-100962370D01*
X102298408Y-100776474D01*
X102140316Y-100618382D01*
X101954420Y-100494170D01*
X101747863Y-100408611D01*
X101528584Y-100364994D01*
X101305008Y-100364994D01*
X101085729Y-100408611D01*
X100879172Y-100494170D01*
X100693276Y-100618382D01*
X100602126Y-100709532D01*
X100429215Y-100593997D01*
X100222658Y-100508438D01*
X100003379Y-100464821D01*
X99779803Y-100464821D01*
X99560524Y-100508438D01*
X99353967Y-100593997D01*
X99168071Y-100718209D01*
X99009979Y-100876301D01*
X98885767Y-101062197D01*
X98800208Y-101268754D01*
X98756591Y-101488033D01*
X93106614Y-101488033D01*
X93106614Y-101370166D01*
X93062997Y-101150887D01*
X92977438Y-100944330D01*
X92853226Y-100758434D01*
X92695134Y-100600342D01*
X92509238Y-100476130D01*
X92302681Y-100390571D01*
X92083402Y-100346954D01*
X91859826Y-100346954D01*
X91640547Y-100390571D01*
X91433990Y-100476130D01*
X91248094Y-100600342D01*
X91090002Y-100758434D01*
X90965790Y-100944330D01*
X90880231Y-101150887D01*
X90836614Y-101370166D01*
X88780929Y-101370166D01*
X88744879Y-101188933D01*
X88659320Y-100982376D01*
X88535108Y-100796480D01*
X88377016Y-100638388D01*
X88191120Y-100514176D01*
X87984563Y-100428617D01*
X87765284Y-100385000D01*
X87541708Y-100385000D01*
X87322429Y-100428617D01*
X87115872Y-100514176D01*
X86929976Y-100638388D01*
X86771884Y-100796480D01*
X86647672Y-100982376D01*
X86562113Y-101188933D01*
X86518496Y-101408212D01*
X85288716Y-101408212D01*
X85398408Y-101298520D01*
X85522620Y-101112624D01*
X85608179Y-100906067D01*
X85651796Y-100686788D01*
X85651796Y-100463212D01*
X85608179Y-100243933D01*
X85522620Y-100037376D01*
X85398408Y-99851480D01*
X85240316Y-99693388D01*
X85054420Y-99569176D01*
X84847863Y-99483617D01*
X84628584Y-99440000D01*
X84405008Y-99440000D01*
X84185729Y-99483617D01*
X83979172Y-99569176D01*
X83793276Y-99693388D01*
X83635184Y-99851480D01*
X83510972Y-100037376D01*
X83425413Y-100243933D01*
X83381796Y-100463212D01*
X83381796Y-100473795D01*
X83336679Y-100464821D01*
X83113103Y-100464821D01*
X82893824Y-100508438D01*
X82687267Y-100593997D01*
X82501371Y-100718209D01*
X82343279Y-100876301D01*
X82219067Y-101062197D01*
X82133508Y-101268754D01*
X82089891Y-101488033D01*
X76439914Y-101488033D01*
X76439914Y-101370166D01*
X76396297Y-101150887D01*
X76310738Y-100944330D01*
X76186526Y-100758434D01*
X76028434Y-100600342D01*
X75842538Y-100476130D01*
X75635981Y-100390571D01*
X75416702Y-100346954D01*
X75193126Y-100346954D01*
X74973847Y-100390571D01*
X74767290Y-100476130D01*
X74581394Y-100600342D01*
X74423302Y-100758434D01*
X74299090Y-100944330D01*
X74213531Y-101150887D01*
X74169914Y-101370166D01*
X72114229Y-101370166D01*
X72078179Y-101188933D01*
X71992620Y-100982376D01*
X71868408Y-100796480D01*
X71710316Y-100638388D01*
X71524420Y-100514176D01*
X71317863Y-100428617D01*
X71098584Y-100385000D01*
X70875008Y-100385000D01*
X70655729Y-100428617D01*
X70449172Y-100514176D01*
X70263276Y-100638388D01*
X70105184Y-100796480D01*
X70054872Y-100871777D01*
X70054872Y-100166666D01*
X70042612Y-100042184D01*
X70039927Y-100033333D01*
X70042612Y-100024482D01*
X70054872Y-99900000D01*
X70051800Y-99585750D01*
X69893050Y-99427000D01*
X68293800Y-99427000D01*
X68293800Y-99447000D01*
X68039800Y-99447000D01*
X68039800Y-99427000D01*
X68019800Y-99427000D01*
X68019800Y-99173000D01*
X68039800Y-99173000D01*
X68039800Y-99153000D01*
X68293800Y-99153000D01*
X68293800Y-99173000D01*
X69893050Y-99173000D01*
X70051800Y-99014250D01*
X70052330Y-98960000D01*
X264076039Y-98960000D01*
X264073738Y-98982391D01*
M02*
