G04 #@! TF.GenerationSoftware,KiCad,Pcbnew,(5.1.0-0)*
G04 #@! TF.CreationDate,2019-04-22T12:47:30-07:00*
G04 #@! TF.ProjectId,EOutside,454f7574-7369-4646-952e-6b696361645f,rev?*
G04 #@! TF.SameCoordinates,Original*
G04 #@! TF.FileFunction,Paste,Top*
G04 #@! TF.FilePolarity,Positive*
%FSLAX46Y46*%
G04 Gerber Fmt 4.6, Leading zero omitted, Abs format (unit mm)*
G04 Created by KiCad (PCBNEW (5.1.0-0)) date 2019-04-22 12:47:30*
%MOMM*%
%LPD*%
G04 APERTURE LIST*
%ADD10R,1.500000X1.000000*%
%ADD11C,0.050000*%
%ADD12C,0.875000*%
G04 APERTURE END LIST*
D10*
X310783950Y-103100000D03*
X310783950Y-101500000D03*
X310783950Y-99900000D03*
X305883950Y-103100000D03*
X305883950Y-101500000D03*
X305883950Y-99900000D03*
X94116850Y-103100000D03*
X94116850Y-101500000D03*
X94116850Y-99900000D03*
X89216850Y-103100000D03*
X89216850Y-101500000D03*
X89216850Y-99900000D03*
X144116950Y-103100000D03*
X144116950Y-101500000D03*
X144116950Y-99900000D03*
X139216950Y-103100000D03*
X139216950Y-101500000D03*
X139216950Y-99900000D03*
X127450250Y-103100000D03*
X127450250Y-101500000D03*
X127450250Y-99900000D03*
X122550250Y-103100000D03*
X122550250Y-101500000D03*
X122550250Y-99900000D03*
D11*
G36*
X313161641Y-102851053D02*
G01*
X313182876Y-102854203D01*
X313203700Y-102859419D01*
X313223912Y-102866651D01*
X313243318Y-102875830D01*
X313261731Y-102886866D01*
X313278974Y-102899654D01*
X313294880Y-102914070D01*
X313309296Y-102929976D01*
X313322084Y-102947219D01*
X313333120Y-102965632D01*
X313342299Y-102985038D01*
X313349531Y-103005250D01*
X313354747Y-103026074D01*
X313357897Y-103047309D01*
X313358950Y-103068750D01*
X313358950Y-103506250D01*
X313357897Y-103527691D01*
X313354747Y-103548926D01*
X313349531Y-103569750D01*
X313342299Y-103589962D01*
X313333120Y-103609368D01*
X313322084Y-103627781D01*
X313309296Y-103645024D01*
X313294880Y-103660930D01*
X313278974Y-103675346D01*
X313261731Y-103688134D01*
X313243318Y-103699170D01*
X313223912Y-103708349D01*
X313203700Y-103715581D01*
X313182876Y-103720797D01*
X313161641Y-103723947D01*
X313140200Y-103725000D01*
X312627700Y-103725000D01*
X312606259Y-103723947D01*
X312585024Y-103720797D01*
X312564200Y-103715581D01*
X312543988Y-103708349D01*
X312524582Y-103699170D01*
X312506169Y-103688134D01*
X312488926Y-103675346D01*
X312473020Y-103660930D01*
X312458604Y-103645024D01*
X312445816Y-103627781D01*
X312434780Y-103609368D01*
X312425601Y-103589962D01*
X312418369Y-103569750D01*
X312413153Y-103548926D01*
X312410003Y-103527691D01*
X312408950Y-103506250D01*
X312408950Y-103068750D01*
X312410003Y-103047309D01*
X312413153Y-103026074D01*
X312418369Y-103005250D01*
X312425601Y-102985038D01*
X312434780Y-102965632D01*
X312445816Y-102947219D01*
X312458604Y-102929976D01*
X312473020Y-102914070D01*
X312488926Y-102899654D01*
X312506169Y-102886866D01*
X312524582Y-102875830D01*
X312543988Y-102866651D01*
X312564200Y-102859419D01*
X312585024Y-102854203D01*
X312606259Y-102851053D01*
X312627700Y-102850000D01*
X313140200Y-102850000D01*
X313161641Y-102851053D01*
X313161641Y-102851053D01*
G37*
D12*
X312883950Y-103287500D03*
D11*
G36*
X313161641Y-101276053D02*
G01*
X313182876Y-101279203D01*
X313203700Y-101284419D01*
X313223912Y-101291651D01*
X313243318Y-101300830D01*
X313261731Y-101311866D01*
X313278974Y-101324654D01*
X313294880Y-101339070D01*
X313309296Y-101354976D01*
X313322084Y-101372219D01*
X313333120Y-101390632D01*
X313342299Y-101410038D01*
X313349531Y-101430250D01*
X313354747Y-101451074D01*
X313357897Y-101472309D01*
X313358950Y-101493750D01*
X313358950Y-101931250D01*
X313357897Y-101952691D01*
X313354747Y-101973926D01*
X313349531Y-101994750D01*
X313342299Y-102014962D01*
X313333120Y-102034368D01*
X313322084Y-102052781D01*
X313309296Y-102070024D01*
X313294880Y-102085930D01*
X313278974Y-102100346D01*
X313261731Y-102113134D01*
X313243318Y-102124170D01*
X313223912Y-102133349D01*
X313203700Y-102140581D01*
X313182876Y-102145797D01*
X313161641Y-102148947D01*
X313140200Y-102150000D01*
X312627700Y-102150000D01*
X312606259Y-102148947D01*
X312585024Y-102145797D01*
X312564200Y-102140581D01*
X312543988Y-102133349D01*
X312524582Y-102124170D01*
X312506169Y-102113134D01*
X312488926Y-102100346D01*
X312473020Y-102085930D01*
X312458604Y-102070024D01*
X312445816Y-102052781D01*
X312434780Y-102034368D01*
X312425601Y-102014962D01*
X312418369Y-101994750D01*
X312413153Y-101973926D01*
X312410003Y-101952691D01*
X312408950Y-101931250D01*
X312408950Y-101493750D01*
X312410003Y-101472309D01*
X312413153Y-101451074D01*
X312418369Y-101430250D01*
X312425601Y-101410038D01*
X312434780Y-101390632D01*
X312445816Y-101372219D01*
X312458604Y-101354976D01*
X312473020Y-101339070D01*
X312488926Y-101324654D01*
X312506169Y-101311866D01*
X312524582Y-101300830D01*
X312543988Y-101291651D01*
X312564200Y-101284419D01*
X312585024Y-101279203D01*
X312606259Y-101276053D01*
X312627700Y-101275000D01*
X313140200Y-101275000D01*
X313161641Y-101276053D01*
X313161641Y-101276053D01*
G37*
D12*
X312883950Y-101712500D03*
D11*
G36*
X296494941Y-102851053D02*
G01*
X296516176Y-102854203D01*
X296537000Y-102859419D01*
X296557212Y-102866651D01*
X296576618Y-102875830D01*
X296595031Y-102886866D01*
X296612274Y-102899654D01*
X296628180Y-102914070D01*
X296642596Y-102929976D01*
X296655384Y-102947219D01*
X296666420Y-102965632D01*
X296675599Y-102985038D01*
X296682831Y-103005250D01*
X296688047Y-103026074D01*
X296691197Y-103047309D01*
X296692250Y-103068750D01*
X296692250Y-103506250D01*
X296691197Y-103527691D01*
X296688047Y-103548926D01*
X296682831Y-103569750D01*
X296675599Y-103589962D01*
X296666420Y-103609368D01*
X296655384Y-103627781D01*
X296642596Y-103645024D01*
X296628180Y-103660930D01*
X296612274Y-103675346D01*
X296595031Y-103688134D01*
X296576618Y-103699170D01*
X296557212Y-103708349D01*
X296537000Y-103715581D01*
X296516176Y-103720797D01*
X296494941Y-103723947D01*
X296473500Y-103725000D01*
X295961000Y-103725000D01*
X295939559Y-103723947D01*
X295918324Y-103720797D01*
X295897500Y-103715581D01*
X295877288Y-103708349D01*
X295857882Y-103699170D01*
X295839469Y-103688134D01*
X295822226Y-103675346D01*
X295806320Y-103660930D01*
X295791904Y-103645024D01*
X295779116Y-103627781D01*
X295768080Y-103609368D01*
X295758901Y-103589962D01*
X295751669Y-103569750D01*
X295746453Y-103548926D01*
X295743303Y-103527691D01*
X295742250Y-103506250D01*
X295742250Y-103068750D01*
X295743303Y-103047309D01*
X295746453Y-103026074D01*
X295751669Y-103005250D01*
X295758901Y-102985038D01*
X295768080Y-102965632D01*
X295779116Y-102947219D01*
X295791904Y-102929976D01*
X295806320Y-102914070D01*
X295822226Y-102899654D01*
X295839469Y-102886866D01*
X295857882Y-102875830D01*
X295877288Y-102866651D01*
X295897500Y-102859419D01*
X295918324Y-102854203D01*
X295939559Y-102851053D01*
X295961000Y-102850000D01*
X296473500Y-102850000D01*
X296494941Y-102851053D01*
X296494941Y-102851053D01*
G37*
D12*
X296217250Y-103287500D03*
D11*
G36*
X296494941Y-101276053D02*
G01*
X296516176Y-101279203D01*
X296537000Y-101284419D01*
X296557212Y-101291651D01*
X296576618Y-101300830D01*
X296595031Y-101311866D01*
X296612274Y-101324654D01*
X296628180Y-101339070D01*
X296642596Y-101354976D01*
X296655384Y-101372219D01*
X296666420Y-101390632D01*
X296675599Y-101410038D01*
X296682831Y-101430250D01*
X296688047Y-101451074D01*
X296691197Y-101472309D01*
X296692250Y-101493750D01*
X296692250Y-101931250D01*
X296691197Y-101952691D01*
X296688047Y-101973926D01*
X296682831Y-101994750D01*
X296675599Y-102014962D01*
X296666420Y-102034368D01*
X296655384Y-102052781D01*
X296642596Y-102070024D01*
X296628180Y-102085930D01*
X296612274Y-102100346D01*
X296595031Y-102113134D01*
X296576618Y-102124170D01*
X296557212Y-102133349D01*
X296537000Y-102140581D01*
X296516176Y-102145797D01*
X296494941Y-102148947D01*
X296473500Y-102150000D01*
X295961000Y-102150000D01*
X295939559Y-102148947D01*
X295918324Y-102145797D01*
X295897500Y-102140581D01*
X295877288Y-102133349D01*
X295857882Y-102124170D01*
X295839469Y-102113134D01*
X295822226Y-102100346D01*
X295806320Y-102085930D01*
X295791904Y-102070024D01*
X295779116Y-102052781D01*
X295768080Y-102034368D01*
X295758901Y-102014962D01*
X295751669Y-101994750D01*
X295746453Y-101973926D01*
X295743303Y-101952691D01*
X295742250Y-101931250D01*
X295742250Y-101493750D01*
X295743303Y-101472309D01*
X295746453Y-101451074D01*
X295751669Y-101430250D01*
X295758901Y-101410038D01*
X295768080Y-101390632D01*
X295779116Y-101372219D01*
X295791904Y-101354976D01*
X295806320Y-101339070D01*
X295822226Y-101324654D01*
X295839469Y-101311866D01*
X295857882Y-101300830D01*
X295877288Y-101291651D01*
X295897500Y-101284419D01*
X295918324Y-101279203D01*
X295939559Y-101276053D01*
X295961000Y-101275000D01*
X296473500Y-101275000D01*
X296494941Y-101276053D01*
X296494941Y-101276053D01*
G37*
D12*
X296217250Y-101712500D03*
D11*
G36*
X279828241Y-102851053D02*
G01*
X279849476Y-102854203D01*
X279870300Y-102859419D01*
X279890512Y-102866651D01*
X279909918Y-102875830D01*
X279928331Y-102886866D01*
X279945574Y-102899654D01*
X279961480Y-102914070D01*
X279975896Y-102929976D01*
X279988684Y-102947219D01*
X279999720Y-102965632D01*
X280008899Y-102985038D01*
X280016131Y-103005250D01*
X280021347Y-103026074D01*
X280024497Y-103047309D01*
X280025550Y-103068750D01*
X280025550Y-103506250D01*
X280024497Y-103527691D01*
X280021347Y-103548926D01*
X280016131Y-103569750D01*
X280008899Y-103589962D01*
X279999720Y-103609368D01*
X279988684Y-103627781D01*
X279975896Y-103645024D01*
X279961480Y-103660930D01*
X279945574Y-103675346D01*
X279928331Y-103688134D01*
X279909918Y-103699170D01*
X279890512Y-103708349D01*
X279870300Y-103715581D01*
X279849476Y-103720797D01*
X279828241Y-103723947D01*
X279806800Y-103725000D01*
X279294300Y-103725000D01*
X279272859Y-103723947D01*
X279251624Y-103720797D01*
X279230800Y-103715581D01*
X279210588Y-103708349D01*
X279191182Y-103699170D01*
X279172769Y-103688134D01*
X279155526Y-103675346D01*
X279139620Y-103660930D01*
X279125204Y-103645024D01*
X279112416Y-103627781D01*
X279101380Y-103609368D01*
X279092201Y-103589962D01*
X279084969Y-103569750D01*
X279079753Y-103548926D01*
X279076603Y-103527691D01*
X279075550Y-103506250D01*
X279075550Y-103068750D01*
X279076603Y-103047309D01*
X279079753Y-103026074D01*
X279084969Y-103005250D01*
X279092201Y-102985038D01*
X279101380Y-102965632D01*
X279112416Y-102947219D01*
X279125204Y-102929976D01*
X279139620Y-102914070D01*
X279155526Y-102899654D01*
X279172769Y-102886866D01*
X279191182Y-102875830D01*
X279210588Y-102866651D01*
X279230800Y-102859419D01*
X279251624Y-102854203D01*
X279272859Y-102851053D01*
X279294300Y-102850000D01*
X279806800Y-102850000D01*
X279828241Y-102851053D01*
X279828241Y-102851053D01*
G37*
D12*
X279550550Y-103287500D03*
D11*
G36*
X279828241Y-101276053D02*
G01*
X279849476Y-101279203D01*
X279870300Y-101284419D01*
X279890512Y-101291651D01*
X279909918Y-101300830D01*
X279928331Y-101311866D01*
X279945574Y-101324654D01*
X279961480Y-101339070D01*
X279975896Y-101354976D01*
X279988684Y-101372219D01*
X279999720Y-101390632D01*
X280008899Y-101410038D01*
X280016131Y-101430250D01*
X280021347Y-101451074D01*
X280024497Y-101472309D01*
X280025550Y-101493750D01*
X280025550Y-101931250D01*
X280024497Y-101952691D01*
X280021347Y-101973926D01*
X280016131Y-101994750D01*
X280008899Y-102014962D01*
X279999720Y-102034368D01*
X279988684Y-102052781D01*
X279975896Y-102070024D01*
X279961480Y-102085930D01*
X279945574Y-102100346D01*
X279928331Y-102113134D01*
X279909918Y-102124170D01*
X279890512Y-102133349D01*
X279870300Y-102140581D01*
X279849476Y-102145797D01*
X279828241Y-102148947D01*
X279806800Y-102150000D01*
X279294300Y-102150000D01*
X279272859Y-102148947D01*
X279251624Y-102145797D01*
X279230800Y-102140581D01*
X279210588Y-102133349D01*
X279191182Y-102124170D01*
X279172769Y-102113134D01*
X279155526Y-102100346D01*
X279139620Y-102085930D01*
X279125204Y-102070024D01*
X279112416Y-102052781D01*
X279101380Y-102034368D01*
X279092201Y-102014962D01*
X279084969Y-101994750D01*
X279079753Y-101973926D01*
X279076603Y-101952691D01*
X279075550Y-101931250D01*
X279075550Y-101493750D01*
X279076603Y-101472309D01*
X279079753Y-101451074D01*
X279084969Y-101430250D01*
X279092201Y-101410038D01*
X279101380Y-101390632D01*
X279112416Y-101372219D01*
X279125204Y-101354976D01*
X279139620Y-101339070D01*
X279155526Y-101324654D01*
X279172769Y-101311866D01*
X279191182Y-101300830D01*
X279210588Y-101291651D01*
X279230800Y-101284419D01*
X279251624Y-101279203D01*
X279272859Y-101276053D01*
X279294300Y-101275000D01*
X279806800Y-101275000D01*
X279828241Y-101276053D01*
X279828241Y-101276053D01*
G37*
D12*
X279550550Y-101712500D03*
D11*
G36*
X263344487Y-102651053D02*
G01*
X263365722Y-102654203D01*
X263386546Y-102659419D01*
X263406758Y-102666651D01*
X263426164Y-102675830D01*
X263444577Y-102686866D01*
X263461820Y-102699654D01*
X263477726Y-102714070D01*
X263492142Y-102729976D01*
X263504930Y-102747219D01*
X263515966Y-102765632D01*
X263525145Y-102785038D01*
X263532377Y-102805250D01*
X263537593Y-102826074D01*
X263540743Y-102847309D01*
X263541796Y-102868750D01*
X263541796Y-103306250D01*
X263540743Y-103327691D01*
X263537593Y-103348926D01*
X263532377Y-103369750D01*
X263525145Y-103389962D01*
X263515966Y-103409368D01*
X263504930Y-103427781D01*
X263492142Y-103445024D01*
X263477726Y-103460930D01*
X263461820Y-103475346D01*
X263444577Y-103488134D01*
X263426164Y-103499170D01*
X263406758Y-103508349D01*
X263386546Y-103515581D01*
X263365722Y-103520797D01*
X263344487Y-103523947D01*
X263323046Y-103525000D01*
X262810546Y-103525000D01*
X262789105Y-103523947D01*
X262767870Y-103520797D01*
X262747046Y-103515581D01*
X262726834Y-103508349D01*
X262707428Y-103499170D01*
X262689015Y-103488134D01*
X262671772Y-103475346D01*
X262655866Y-103460930D01*
X262641450Y-103445024D01*
X262628662Y-103427781D01*
X262617626Y-103409368D01*
X262608447Y-103389962D01*
X262601215Y-103369750D01*
X262595999Y-103348926D01*
X262592849Y-103327691D01*
X262591796Y-103306250D01*
X262591796Y-102868750D01*
X262592849Y-102847309D01*
X262595999Y-102826074D01*
X262601215Y-102805250D01*
X262608447Y-102785038D01*
X262617626Y-102765632D01*
X262628662Y-102747219D01*
X262641450Y-102729976D01*
X262655866Y-102714070D01*
X262671772Y-102699654D01*
X262689015Y-102686866D01*
X262707428Y-102675830D01*
X262726834Y-102666651D01*
X262747046Y-102659419D01*
X262767870Y-102654203D01*
X262789105Y-102651053D01*
X262810546Y-102650000D01*
X263323046Y-102650000D01*
X263344487Y-102651053D01*
X263344487Y-102651053D01*
G37*
D12*
X263066796Y-103087500D03*
D11*
G36*
X263344487Y-101076053D02*
G01*
X263365722Y-101079203D01*
X263386546Y-101084419D01*
X263406758Y-101091651D01*
X263426164Y-101100830D01*
X263444577Y-101111866D01*
X263461820Y-101124654D01*
X263477726Y-101139070D01*
X263492142Y-101154976D01*
X263504930Y-101172219D01*
X263515966Y-101190632D01*
X263525145Y-101210038D01*
X263532377Y-101230250D01*
X263537593Y-101251074D01*
X263540743Y-101272309D01*
X263541796Y-101293750D01*
X263541796Y-101731250D01*
X263540743Y-101752691D01*
X263537593Y-101773926D01*
X263532377Y-101794750D01*
X263525145Y-101814962D01*
X263515966Y-101834368D01*
X263504930Y-101852781D01*
X263492142Y-101870024D01*
X263477726Y-101885930D01*
X263461820Y-101900346D01*
X263444577Y-101913134D01*
X263426164Y-101924170D01*
X263406758Y-101933349D01*
X263386546Y-101940581D01*
X263365722Y-101945797D01*
X263344487Y-101948947D01*
X263323046Y-101950000D01*
X262810546Y-101950000D01*
X262789105Y-101948947D01*
X262767870Y-101945797D01*
X262747046Y-101940581D01*
X262726834Y-101933349D01*
X262707428Y-101924170D01*
X262689015Y-101913134D01*
X262671772Y-101900346D01*
X262655866Y-101885930D01*
X262641450Y-101870024D01*
X262628662Y-101852781D01*
X262617626Y-101834368D01*
X262608447Y-101814962D01*
X262601215Y-101794750D01*
X262595999Y-101773926D01*
X262592849Y-101752691D01*
X262591796Y-101731250D01*
X262591796Y-101293750D01*
X262592849Y-101272309D01*
X262595999Y-101251074D01*
X262601215Y-101230250D01*
X262608447Y-101210038D01*
X262617626Y-101190632D01*
X262628662Y-101172219D01*
X262641450Y-101154976D01*
X262655866Y-101139070D01*
X262671772Y-101124654D01*
X262689015Y-101111866D01*
X262707428Y-101100830D01*
X262726834Y-101091651D01*
X262747046Y-101084419D01*
X262767870Y-101079203D01*
X262789105Y-101076053D01*
X262810546Y-101075000D01*
X263323046Y-101075000D01*
X263344487Y-101076053D01*
X263344487Y-101076053D01*
G37*
D12*
X263066796Y-101512500D03*
D11*
G36*
X246844841Y-101651053D02*
G01*
X246866076Y-101654203D01*
X246886900Y-101659419D01*
X246907112Y-101666651D01*
X246926518Y-101675830D01*
X246944931Y-101686866D01*
X246962174Y-101699654D01*
X246978080Y-101714070D01*
X246992496Y-101729976D01*
X247005284Y-101747219D01*
X247016320Y-101765632D01*
X247025499Y-101785038D01*
X247032731Y-101805250D01*
X247037947Y-101826074D01*
X247041097Y-101847309D01*
X247042150Y-101868750D01*
X247042150Y-102306250D01*
X247041097Y-102327691D01*
X247037947Y-102348926D01*
X247032731Y-102369750D01*
X247025499Y-102389962D01*
X247016320Y-102409368D01*
X247005284Y-102427781D01*
X246992496Y-102445024D01*
X246978080Y-102460930D01*
X246962174Y-102475346D01*
X246944931Y-102488134D01*
X246926518Y-102499170D01*
X246907112Y-102508349D01*
X246886900Y-102515581D01*
X246866076Y-102520797D01*
X246844841Y-102523947D01*
X246823400Y-102525000D01*
X246310900Y-102525000D01*
X246289459Y-102523947D01*
X246268224Y-102520797D01*
X246247400Y-102515581D01*
X246227188Y-102508349D01*
X246207782Y-102499170D01*
X246189369Y-102488134D01*
X246172126Y-102475346D01*
X246156220Y-102460930D01*
X246141804Y-102445024D01*
X246129016Y-102427781D01*
X246117980Y-102409368D01*
X246108801Y-102389962D01*
X246101569Y-102369750D01*
X246096353Y-102348926D01*
X246093203Y-102327691D01*
X246092150Y-102306250D01*
X246092150Y-101868750D01*
X246093203Y-101847309D01*
X246096353Y-101826074D01*
X246101569Y-101805250D01*
X246108801Y-101785038D01*
X246117980Y-101765632D01*
X246129016Y-101747219D01*
X246141804Y-101729976D01*
X246156220Y-101714070D01*
X246172126Y-101699654D01*
X246189369Y-101686866D01*
X246207782Y-101675830D01*
X246227188Y-101666651D01*
X246247400Y-101659419D01*
X246268224Y-101654203D01*
X246289459Y-101651053D01*
X246310900Y-101650000D01*
X246823400Y-101650000D01*
X246844841Y-101651053D01*
X246844841Y-101651053D01*
G37*
D12*
X246567150Y-102087500D03*
D11*
G36*
X246844841Y-100076053D02*
G01*
X246866076Y-100079203D01*
X246886900Y-100084419D01*
X246907112Y-100091651D01*
X246926518Y-100100830D01*
X246944931Y-100111866D01*
X246962174Y-100124654D01*
X246978080Y-100139070D01*
X246992496Y-100154976D01*
X247005284Y-100172219D01*
X247016320Y-100190632D01*
X247025499Y-100210038D01*
X247032731Y-100230250D01*
X247037947Y-100251074D01*
X247041097Y-100272309D01*
X247042150Y-100293750D01*
X247042150Y-100731250D01*
X247041097Y-100752691D01*
X247037947Y-100773926D01*
X247032731Y-100794750D01*
X247025499Y-100814962D01*
X247016320Y-100834368D01*
X247005284Y-100852781D01*
X246992496Y-100870024D01*
X246978080Y-100885930D01*
X246962174Y-100900346D01*
X246944931Y-100913134D01*
X246926518Y-100924170D01*
X246907112Y-100933349D01*
X246886900Y-100940581D01*
X246866076Y-100945797D01*
X246844841Y-100948947D01*
X246823400Y-100950000D01*
X246310900Y-100950000D01*
X246289459Y-100948947D01*
X246268224Y-100945797D01*
X246247400Y-100940581D01*
X246227188Y-100933349D01*
X246207782Y-100924170D01*
X246189369Y-100913134D01*
X246172126Y-100900346D01*
X246156220Y-100885930D01*
X246141804Y-100870024D01*
X246129016Y-100852781D01*
X246117980Y-100834368D01*
X246108801Y-100814962D01*
X246101569Y-100794750D01*
X246096353Y-100773926D01*
X246093203Y-100752691D01*
X246092150Y-100731250D01*
X246092150Y-100293750D01*
X246093203Y-100272309D01*
X246096353Y-100251074D01*
X246101569Y-100230250D01*
X246108801Y-100210038D01*
X246117980Y-100190632D01*
X246129016Y-100172219D01*
X246141804Y-100154976D01*
X246156220Y-100139070D01*
X246172126Y-100124654D01*
X246189369Y-100111866D01*
X246207782Y-100100830D01*
X246227188Y-100091651D01*
X246247400Y-100084419D01*
X246268224Y-100079203D01*
X246289459Y-100076053D01*
X246310900Y-100075000D01*
X246823400Y-100075000D01*
X246844841Y-100076053D01*
X246844841Y-100076053D01*
G37*
D12*
X246567150Y-100512500D03*
D11*
G36*
X230178141Y-101651053D02*
G01*
X230199376Y-101654203D01*
X230220200Y-101659419D01*
X230240412Y-101666651D01*
X230259818Y-101675830D01*
X230278231Y-101686866D01*
X230295474Y-101699654D01*
X230311380Y-101714070D01*
X230325796Y-101729976D01*
X230338584Y-101747219D01*
X230349620Y-101765632D01*
X230358799Y-101785038D01*
X230366031Y-101805250D01*
X230371247Y-101826074D01*
X230374397Y-101847309D01*
X230375450Y-101868750D01*
X230375450Y-102306250D01*
X230374397Y-102327691D01*
X230371247Y-102348926D01*
X230366031Y-102369750D01*
X230358799Y-102389962D01*
X230349620Y-102409368D01*
X230338584Y-102427781D01*
X230325796Y-102445024D01*
X230311380Y-102460930D01*
X230295474Y-102475346D01*
X230278231Y-102488134D01*
X230259818Y-102499170D01*
X230240412Y-102508349D01*
X230220200Y-102515581D01*
X230199376Y-102520797D01*
X230178141Y-102523947D01*
X230156700Y-102525000D01*
X229644200Y-102525000D01*
X229622759Y-102523947D01*
X229601524Y-102520797D01*
X229580700Y-102515581D01*
X229560488Y-102508349D01*
X229541082Y-102499170D01*
X229522669Y-102488134D01*
X229505426Y-102475346D01*
X229489520Y-102460930D01*
X229475104Y-102445024D01*
X229462316Y-102427781D01*
X229451280Y-102409368D01*
X229442101Y-102389962D01*
X229434869Y-102369750D01*
X229429653Y-102348926D01*
X229426503Y-102327691D01*
X229425450Y-102306250D01*
X229425450Y-101868750D01*
X229426503Y-101847309D01*
X229429653Y-101826074D01*
X229434869Y-101805250D01*
X229442101Y-101785038D01*
X229451280Y-101765632D01*
X229462316Y-101747219D01*
X229475104Y-101729976D01*
X229489520Y-101714070D01*
X229505426Y-101699654D01*
X229522669Y-101686866D01*
X229541082Y-101675830D01*
X229560488Y-101666651D01*
X229580700Y-101659419D01*
X229601524Y-101654203D01*
X229622759Y-101651053D01*
X229644200Y-101650000D01*
X230156700Y-101650000D01*
X230178141Y-101651053D01*
X230178141Y-101651053D01*
G37*
D12*
X229900450Y-102087500D03*
D11*
G36*
X230178141Y-100076053D02*
G01*
X230199376Y-100079203D01*
X230220200Y-100084419D01*
X230240412Y-100091651D01*
X230259818Y-100100830D01*
X230278231Y-100111866D01*
X230295474Y-100124654D01*
X230311380Y-100139070D01*
X230325796Y-100154976D01*
X230338584Y-100172219D01*
X230349620Y-100190632D01*
X230358799Y-100210038D01*
X230366031Y-100230250D01*
X230371247Y-100251074D01*
X230374397Y-100272309D01*
X230375450Y-100293750D01*
X230375450Y-100731250D01*
X230374397Y-100752691D01*
X230371247Y-100773926D01*
X230366031Y-100794750D01*
X230358799Y-100814962D01*
X230349620Y-100834368D01*
X230338584Y-100852781D01*
X230325796Y-100870024D01*
X230311380Y-100885930D01*
X230295474Y-100900346D01*
X230278231Y-100913134D01*
X230259818Y-100924170D01*
X230240412Y-100933349D01*
X230220200Y-100940581D01*
X230199376Y-100945797D01*
X230178141Y-100948947D01*
X230156700Y-100950000D01*
X229644200Y-100950000D01*
X229622759Y-100948947D01*
X229601524Y-100945797D01*
X229580700Y-100940581D01*
X229560488Y-100933349D01*
X229541082Y-100924170D01*
X229522669Y-100913134D01*
X229505426Y-100900346D01*
X229489520Y-100885930D01*
X229475104Y-100870024D01*
X229462316Y-100852781D01*
X229451280Y-100834368D01*
X229442101Y-100814962D01*
X229434869Y-100794750D01*
X229429653Y-100773926D01*
X229426503Y-100752691D01*
X229425450Y-100731250D01*
X229425450Y-100293750D01*
X229426503Y-100272309D01*
X229429653Y-100251074D01*
X229434869Y-100230250D01*
X229442101Y-100210038D01*
X229451280Y-100190632D01*
X229462316Y-100172219D01*
X229475104Y-100154976D01*
X229489520Y-100139070D01*
X229505426Y-100124654D01*
X229522669Y-100111866D01*
X229541082Y-100100830D01*
X229560488Y-100091651D01*
X229580700Y-100084419D01*
X229601524Y-100079203D01*
X229622759Y-100076053D01*
X229644200Y-100075000D01*
X230156700Y-100075000D01*
X230178141Y-100076053D01*
X230178141Y-100076053D01*
G37*
D12*
X229900450Y-100512500D03*
D11*
G36*
X213511441Y-101651053D02*
G01*
X213532676Y-101654203D01*
X213553500Y-101659419D01*
X213573712Y-101666651D01*
X213593118Y-101675830D01*
X213611531Y-101686866D01*
X213628774Y-101699654D01*
X213644680Y-101714070D01*
X213659096Y-101729976D01*
X213671884Y-101747219D01*
X213682920Y-101765632D01*
X213692099Y-101785038D01*
X213699331Y-101805250D01*
X213704547Y-101826074D01*
X213707697Y-101847309D01*
X213708750Y-101868750D01*
X213708750Y-102306250D01*
X213707697Y-102327691D01*
X213704547Y-102348926D01*
X213699331Y-102369750D01*
X213692099Y-102389962D01*
X213682920Y-102409368D01*
X213671884Y-102427781D01*
X213659096Y-102445024D01*
X213644680Y-102460930D01*
X213628774Y-102475346D01*
X213611531Y-102488134D01*
X213593118Y-102499170D01*
X213573712Y-102508349D01*
X213553500Y-102515581D01*
X213532676Y-102520797D01*
X213511441Y-102523947D01*
X213490000Y-102525000D01*
X212977500Y-102525000D01*
X212956059Y-102523947D01*
X212934824Y-102520797D01*
X212914000Y-102515581D01*
X212893788Y-102508349D01*
X212874382Y-102499170D01*
X212855969Y-102488134D01*
X212838726Y-102475346D01*
X212822820Y-102460930D01*
X212808404Y-102445024D01*
X212795616Y-102427781D01*
X212784580Y-102409368D01*
X212775401Y-102389962D01*
X212768169Y-102369750D01*
X212762953Y-102348926D01*
X212759803Y-102327691D01*
X212758750Y-102306250D01*
X212758750Y-101868750D01*
X212759803Y-101847309D01*
X212762953Y-101826074D01*
X212768169Y-101805250D01*
X212775401Y-101785038D01*
X212784580Y-101765632D01*
X212795616Y-101747219D01*
X212808404Y-101729976D01*
X212822820Y-101714070D01*
X212838726Y-101699654D01*
X212855969Y-101686866D01*
X212874382Y-101675830D01*
X212893788Y-101666651D01*
X212914000Y-101659419D01*
X212934824Y-101654203D01*
X212956059Y-101651053D01*
X212977500Y-101650000D01*
X213490000Y-101650000D01*
X213511441Y-101651053D01*
X213511441Y-101651053D01*
G37*
D12*
X213233750Y-102087500D03*
D11*
G36*
X213511441Y-100076053D02*
G01*
X213532676Y-100079203D01*
X213553500Y-100084419D01*
X213573712Y-100091651D01*
X213593118Y-100100830D01*
X213611531Y-100111866D01*
X213628774Y-100124654D01*
X213644680Y-100139070D01*
X213659096Y-100154976D01*
X213671884Y-100172219D01*
X213682920Y-100190632D01*
X213692099Y-100210038D01*
X213699331Y-100230250D01*
X213704547Y-100251074D01*
X213707697Y-100272309D01*
X213708750Y-100293750D01*
X213708750Y-100731250D01*
X213707697Y-100752691D01*
X213704547Y-100773926D01*
X213699331Y-100794750D01*
X213692099Y-100814962D01*
X213682920Y-100834368D01*
X213671884Y-100852781D01*
X213659096Y-100870024D01*
X213644680Y-100885930D01*
X213628774Y-100900346D01*
X213611531Y-100913134D01*
X213593118Y-100924170D01*
X213573712Y-100933349D01*
X213553500Y-100940581D01*
X213532676Y-100945797D01*
X213511441Y-100948947D01*
X213490000Y-100950000D01*
X212977500Y-100950000D01*
X212956059Y-100948947D01*
X212934824Y-100945797D01*
X212914000Y-100940581D01*
X212893788Y-100933349D01*
X212874382Y-100924170D01*
X212855969Y-100913134D01*
X212838726Y-100900346D01*
X212822820Y-100885930D01*
X212808404Y-100870024D01*
X212795616Y-100852781D01*
X212784580Y-100834368D01*
X212775401Y-100814962D01*
X212768169Y-100794750D01*
X212762953Y-100773926D01*
X212759803Y-100752691D01*
X212758750Y-100731250D01*
X212758750Y-100293750D01*
X212759803Y-100272309D01*
X212762953Y-100251074D01*
X212768169Y-100230250D01*
X212775401Y-100210038D01*
X212784580Y-100190632D01*
X212795616Y-100172219D01*
X212808404Y-100154976D01*
X212822820Y-100139070D01*
X212838726Y-100124654D01*
X212855969Y-100111866D01*
X212874382Y-100100830D01*
X212893788Y-100091651D01*
X212914000Y-100084419D01*
X212934824Y-100079203D01*
X212956059Y-100076053D01*
X212977500Y-100075000D01*
X213490000Y-100075000D01*
X213511441Y-100076053D01*
X213511441Y-100076053D01*
G37*
D12*
X213233750Y-100512500D03*
D11*
G36*
X196844741Y-101651053D02*
G01*
X196865976Y-101654203D01*
X196886800Y-101659419D01*
X196907012Y-101666651D01*
X196926418Y-101675830D01*
X196944831Y-101686866D01*
X196962074Y-101699654D01*
X196977980Y-101714070D01*
X196992396Y-101729976D01*
X197005184Y-101747219D01*
X197016220Y-101765632D01*
X197025399Y-101785038D01*
X197032631Y-101805250D01*
X197037847Y-101826074D01*
X197040997Y-101847309D01*
X197042050Y-101868750D01*
X197042050Y-102306250D01*
X197040997Y-102327691D01*
X197037847Y-102348926D01*
X197032631Y-102369750D01*
X197025399Y-102389962D01*
X197016220Y-102409368D01*
X197005184Y-102427781D01*
X196992396Y-102445024D01*
X196977980Y-102460930D01*
X196962074Y-102475346D01*
X196944831Y-102488134D01*
X196926418Y-102499170D01*
X196907012Y-102508349D01*
X196886800Y-102515581D01*
X196865976Y-102520797D01*
X196844741Y-102523947D01*
X196823300Y-102525000D01*
X196310800Y-102525000D01*
X196289359Y-102523947D01*
X196268124Y-102520797D01*
X196247300Y-102515581D01*
X196227088Y-102508349D01*
X196207682Y-102499170D01*
X196189269Y-102488134D01*
X196172026Y-102475346D01*
X196156120Y-102460930D01*
X196141704Y-102445024D01*
X196128916Y-102427781D01*
X196117880Y-102409368D01*
X196108701Y-102389962D01*
X196101469Y-102369750D01*
X196096253Y-102348926D01*
X196093103Y-102327691D01*
X196092050Y-102306250D01*
X196092050Y-101868750D01*
X196093103Y-101847309D01*
X196096253Y-101826074D01*
X196101469Y-101805250D01*
X196108701Y-101785038D01*
X196117880Y-101765632D01*
X196128916Y-101747219D01*
X196141704Y-101729976D01*
X196156120Y-101714070D01*
X196172026Y-101699654D01*
X196189269Y-101686866D01*
X196207682Y-101675830D01*
X196227088Y-101666651D01*
X196247300Y-101659419D01*
X196268124Y-101654203D01*
X196289359Y-101651053D01*
X196310800Y-101650000D01*
X196823300Y-101650000D01*
X196844741Y-101651053D01*
X196844741Y-101651053D01*
G37*
D12*
X196567050Y-102087500D03*
D11*
G36*
X196844741Y-100076053D02*
G01*
X196865976Y-100079203D01*
X196886800Y-100084419D01*
X196907012Y-100091651D01*
X196926418Y-100100830D01*
X196944831Y-100111866D01*
X196962074Y-100124654D01*
X196977980Y-100139070D01*
X196992396Y-100154976D01*
X197005184Y-100172219D01*
X197016220Y-100190632D01*
X197025399Y-100210038D01*
X197032631Y-100230250D01*
X197037847Y-100251074D01*
X197040997Y-100272309D01*
X197042050Y-100293750D01*
X197042050Y-100731250D01*
X197040997Y-100752691D01*
X197037847Y-100773926D01*
X197032631Y-100794750D01*
X197025399Y-100814962D01*
X197016220Y-100834368D01*
X197005184Y-100852781D01*
X196992396Y-100870024D01*
X196977980Y-100885930D01*
X196962074Y-100900346D01*
X196944831Y-100913134D01*
X196926418Y-100924170D01*
X196907012Y-100933349D01*
X196886800Y-100940581D01*
X196865976Y-100945797D01*
X196844741Y-100948947D01*
X196823300Y-100950000D01*
X196310800Y-100950000D01*
X196289359Y-100948947D01*
X196268124Y-100945797D01*
X196247300Y-100940581D01*
X196227088Y-100933349D01*
X196207682Y-100924170D01*
X196189269Y-100913134D01*
X196172026Y-100900346D01*
X196156120Y-100885930D01*
X196141704Y-100870024D01*
X196128916Y-100852781D01*
X196117880Y-100834368D01*
X196108701Y-100814962D01*
X196101469Y-100794750D01*
X196096253Y-100773926D01*
X196093103Y-100752691D01*
X196092050Y-100731250D01*
X196092050Y-100293750D01*
X196093103Y-100272309D01*
X196096253Y-100251074D01*
X196101469Y-100230250D01*
X196108701Y-100210038D01*
X196117880Y-100190632D01*
X196128916Y-100172219D01*
X196141704Y-100154976D01*
X196156120Y-100139070D01*
X196172026Y-100124654D01*
X196189269Y-100111866D01*
X196207682Y-100100830D01*
X196227088Y-100091651D01*
X196247300Y-100084419D01*
X196268124Y-100079203D01*
X196289359Y-100076053D01*
X196310800Y-100075000D01*
X196823300Y-100075000D01*
X196844741Y-100076053D01*
X196844741Y-100076053D01*
G37*
D12*
X196567050Y-100512500D03*
D11*
G36*
X180178041Y-101651053D02*
G01*
X180199276Y-101654203D01*
X180220100Y-101659419D01*
X180240312Y-101666651D01*
X180259718Y-101675830D01*
X180278131Y-101686866D01*
X180295374Y-101699654D01*
X180311280Y-101714070D01*
X180325696Y-101729976D01*
X180338484Y-101747219D01*
X180349520Y-101765632D01*
X180358699Y-101785038D01*
X180365931Y-101805250D01*
X180371147Y-101826074D01*
X180374297Y-101847309D01*
X180375350Y-101868750D01*
X180375350Y-102306250D01*
X180374297Y-102327691D01*
X180371147Y-102348926D01*
X180365931Y-102369750D01*
X180358699Y-102389962D01*
X180349520Y-102409368D01*
X180338484Y-102427781D01*
X180325696Y-102445024D01*
X180311280Y-102460930D01*
X180295374Y-102475346D01*
X180278131Y-102488134D01*
X180259718Y-102499170D01*
X180240312Y-102508349D01*
X180220100Y-102515581D01*
X180199276Y-102520797D01*
X180178041Y-102523947D01*
X180156600Y-102525000D01*
X179644100Y-102525000D01*
X179622659Y-102523947D01*
X179601424Y-102520797D01*
X179580600Y-102515581D01*
X179560388Y-102508349D01*
X179540982Y-102499170D01*
X179522569Y-102488134D01*
X179505326Y-102475346D01*
X179489420Y-102460930D01*
X179475004Y-102445024D01*
X179462216Y-102427781D01*
X179451180Y-102409368D01*
X179442001Y-102389962D01*
X179434769Y-102369750D01*
X179429553Y-102348926D01*
X179426403Y-102327691D01*
X179425350Y-102306250D01*
X179425350Y-101868750D01*
X179426403Y-101847309D01*
X179429553Y-101826074D01*
X179434769Y-101805250D01*
X179442001Y-101785038D01*
X179451180Y-101765632D01*
X179462216Y-101747219D01*
X179475004Y-101729976D01*
X179489420Y-101714070D01*
X179505326Y-101699654D01*
X179522569Y-101686866D01*
X179540982Y-101675830D01*
X179560388Y-101666651D01*
X179580600Y-101659419D01*
X179601424Y-101654203D01*
X179622659Y-101651053D01*
X179644100Y-101650000D01*
X180156600Y-101650000D01*
X180178041Y-101651053D01*
X180178041Y-101651053D01*
G37*
D12*
X179900350Y-102087500D03*
D11*
G36*
X180178041Y-100076053D02*
G01*
X180199276Y-100079203D01*
X180220100Y-100084419D01*
X180240312Y-100091651D01*
X180259718Y-100100830D01*
X180278131Y-100111866D01*
X180295374Y-100124654D01*
X180311280Y-100139070D01*
X180325696Y-100154976D01*
X180338484Y-100172219D01*
X180349520Y-100190632D01*
X180358699Y-100210038D01*
X180365931Y-100230250D01*
X180371147Y-100251074D01*
X180374297Y-100272309D01*
X180375350Y-100293750D01*
X180375350Y-100731250D01*
X180374297Y-100752691D01*
X180371147Y-100773926D01*
X180365931Y-100794750D01*
X180358699Y-100814962D01*
X180349520Y-100834368D01*
X180338484Y-100852781D01*
X180325696Y-100870024D01*
X180311280Y-100885930D01*
X180295374Y-100900346D01*
X180278131Y-100913134D01*
X180259718Y-100924170D01*
X180240312Y-100933349D01*
X180220100Y-100940581D01*
X180199276Y-100945797D01*
X180178041Y-100948947D01*
X180156600Y-100950000D01*
X179644100Y-100950000D01*
X179622659Y-100948947D01*
X179601424Y-100945797D01*
X179580600Y-100940581D01*
X179560388Y-100933349D01*
X179540982Y-100924170D01*
X179522569Y-100913134D01*
X179505326Y-100900346D01*
X179489420Y-100885930D01*
X179475004Y-100870024D01*
X179462216Y-100852781D01*
X179451180Y-100834368D01*
X179442001Y-100814962D01*
X179434769Y-100794750D01*
X179429553Y-100773926D01*
X179426403Y-100752691D01*
X179425350Y-100731250D01*
X179425350Y-100293750D01*
X179426403Y-100272309D01*
X179429553Y-100251074D01*
X179434769Y-100230250D01*
X179442001Y-100210038D01*
X179451180Y-100190632D01*
X179462216Y-100172219D01*
X179475004Y-100154976D01*
X179489420Y-100139070D01*
X179505326Y-100124654D01*
X179522569Y-100111866D01*
X179540982Y-100100830D01*
X179560388Y-100091651D01*
X179580600Y-100084419D01*
X179601424Y-100079203D01*
X179622659Y-100076053D01*
X179644100Y-100075000D01*
X180156600Y-100075000D01*
X180178041Y-100076053D01*
X180178041Y-100076053D01*
G37*
D12*
X179900350Y-100512500D03*
D11*
G36*
X163511341Y-101651053D02*
G01*
X163532576Y-101654203D01*
X163553400Y-101659419D01*
X163573612Y-101666651D01*
X163593018Y-101675830D01*
X163611431Y-101686866D01*
X163628674Y-101699654D01*
X163644580Y-101714070D01*
X163658996Y-101729976D01*
X163671784Y-101747219D01*
X163682820Y-101765632D01*
X163691999Y-101785038D01*
X163699231Y-101805250D01*
X163704447Y-101826074D01*
X163707597Y-101847309D01*
X163708650Y-101868750D01*
X163708650Y-102306250D01*
X163707597Y-102327691D01*
X163704447Y-102348926D01*
X163699231Y-102369750D01*
X163691999Y-102389962D01*
X163682820Y-102409368D01*
X163671784Y-102427781D01*
X163658996Y-102445024D01*
X163644580Y-102460930D01*
X163628674Y-102475346D01*
X163611431Y-102488134D01*
X163593018Y-102499170D01*
X163573612Y-102508349D01*
X163553400Y-102515581D01*
X163532576Y-102520797D01*
X163511341Y-102523947D01*
X163489900Y-102525000D01*
X162977400Y-102525000D01*
X162955959Y-102523947D01*
X162934724Y-102520797D01*
X162913900Y-102515581D01*
X162893688Y-102508349D01*
X162874282Y-102499170D01*
X162855869Y-102488134D01*
X162838626Y-102475346D01*
X162822720Y-102460930D01*
X162808304Y-102445024D01*
X162795516Y-102427781D01*
X162784480Y-102409368D01*
X162775301Y-102389962D01*
X162768069Y-102369750D01*
X162762853Y-102348926D01*
X162759703Y-102327691D01*
X162758650Y-102306250D01*
X162758650Y-101868750D01*
X162759703Y-101847309D01*
X162762853Y-101826074D01*
X162768069Y-101805250D01*
X162775301Y-101785038D01*
X162784480Y-101765632D01*
X162795516Y-101747219D01*
X162808304Y-101729976D01*
X162822720Y-101714070D01*
X162838626Y-101699654D01*
X162855869Y-101686866D01*
X162874282Y-101675830D01*
X162893688Y-101666651D01*
X162913900Y-101659419D01*
X162934724Y-101654203D01*
X162955959Y-101651053D01*
X162977400Y-101650000D01*
X163489900Y-101650000D01*
X163511341Y-101651053D01*
X163511341Y-101651053D01*
G37*
D12*
X163233650Y-102087500D03*
D11*
G36*
X163511341Y-100076053D02*
G01*
X163532576Y-100079203D01*
X163553400Y-100084419D01*
X163573612Y-100091651D01*
X163593018Y-100100830D01*
X163611431Y-100111866D01*
X163628674Y-100124654D01*
X163644580Y-100139070D01*
X163658996Y-100154976D01*
X163671784Y-100172219D01*
X163682820Y-100190632D01*
X163691999Y-100210038D01*
X163699231Y-100230250D01*
X163704447Y-100251074D01*
X163707597Y-100272309D01*
X163708650Y-100293750D01*
X163708650Y-100731250D01*
X163707597Y-100752691D01*
X163704447Y-100773926D01*
X163699231Y-100794750D01*
X163691999Y-100814962D01*
X163682820Y-100834368D01*
X163671784Y-100852781D01*
X163658996Y-100870024D01*
X163644580Y-100885930D01*
X163628674Y-100900346D01*
X163611431Y-100913134D01*
X163593018Y-100924170D01*
X163573612Y-100933349D01*
X163553400Y-100940581D01*
X163532576Y-100945797D01*
X163511341Y-100948947D01*
X163489900Y-100950000D01*
X162977400Y-100950000D01*
X162955959Y-100948947D01*
X162934724Y-100945797D01*
X162913900Y-100940581D01*
X162893688Y-100933349D01*
X162874282Y-100924170D01*
X162855869Y-100913134D01*
X162838626Y-100900346D01*
X162822720Y-100885930D01*
X162808304Y-100870024D01*
X162795516Y-100852781D01*
X162784480Y-100834368D01*
X162775301Y-100814962D01*
X162768069Y-100794750D01*
X162762853Y-100773926D01*
X162759703Y-100752691D01*
X162758650Y-100731250D01*
X162758650Y-100293750D01*
X162759703Y-100272309D01*
X162762853Y-100251074D01*
X162768069Y-100230250D01*
X162775301Y-100210038D01*
X162784480Y-100190632D01*
X162795516Y-100172219D01*
X162808304Y-100154976D01*
X162822720Y-100139070D01*
X162838626Y-100124654D01*
X162855869Y-100111866D01*
X162874282Y-100100830D01*
X162893688Y-100091651D01*
X162913900Y-100084419D01*
X162934724Y-100079203D01*
X162955959Y-100076053D01*
X162977400Y-100075000D01*
X163489900Y-100075000D01*
X163511341Y-100076053D01*
X163511341Y-100076053D01*
G37*
D12*
X163233650Y-100512500D03*
D11*
G36*
X146844641Y-101651053D02*
G01*
X146865876Y-101654203D01*
X146886700Y-101659419D01*
X146906912Y-101666651D01*
X146926318Y-101675830D01*
X146944731Y-101686866D01*
X146961974Y-101699654D01*
X146977880Y-101714070D01*
X146992296Y-101729976D01*
X147005084Y-101747219D01*
X147016120Y-101765632D01*
X147025299Y-101785038D01*
X147032531Y-101805250D01*
X147037747Y-101826074D01*
X147040897Y-101847309D01*
X147041950Y-101868750D01*
X147041950Y-102306250D01*
X147040897Y-102327691D01*
X147037747Y-102348926D01*
X147032531Y-102369750D01*
X147025299Y-102389962D01*
X147016120Y-102409368D01*
X147005084Y-102427781D01*
X146992296Y-102445024D01*
X146977880Y-102460930D01*
X146961974Y-102475346D01*
X146944731Y-102488134D01*
X146926318Y-102499170D01*
X146906912Y-102508349D01*
X146886700Y-102515581D01*
X146865876Y-102520797D01*
X146844641Y-102523947D01*
X146823200Y-102525000D01*
X146310700Y-102525000D01*
X146289259Y-102523947D01*
X146268024Y-102520797D01*
X146247200Y-102515581D01*
X146226988Y-102508349D01*
X146207582Y-102499170D01*
X146189169Y-102488134D01*
X146171926Y-102475346D01*
X146156020Y-102460930D01*
X146141604Y-102445024D01*
X146128816Y-102427781D01*
X146117780Y-102409368D01*
X146108601Y-102389962D01*
X146101369Y-102369750D01*
X146096153Y-102348926D01*
X146093003Y-102327691D01*
X146091950Y-102306250D01*
X146091950Y-101868750D01*
X146093003Y-101847309D01*
X146096153Y-101826074D01*
X146101369Y-101805250D01*
X146108601Y-101785038D01*
X146117780Y-101765632D01*
X146128816Y-101747219D01*
X146141604Y-101729976D01*
X146156020Y-101714070D01*
X146171926Y-101699654D01*
X146189169Y-101686866D01*
X146207582Y-101675830D01*
X146226988Y-101666651D01*
X146247200Y-101659419D01*
X146268024Y-101654203D01*
X146289259Y-101651053D01*
X146310700Y-101650000D01*
X146823200Y-101650000D01*
X146844641Y-101651053D01*
X146844641Y-101651053D01*
G37*
D12*
X146566950Y-102087500D03*
D11*
G36*
X146844641Y-100076053D02*
G01*
X146865876Y-100079203D01*
X146886700Y-100084419D01*
X146906912Y-100091651D01*
X146926318Y-100100830D01*
X146944731Y-100111866D01*
X146961974Y-100124654D01*
X146977880Y-100139070D01*
X146992296Y-100154976D01*
X147005084Y-100172219D01*
X147016120Y-100190632D01*
X147025299Y-100210038D01*
X147032531Y-100230250D01*
X147037747Y-100251074D01*
X147040897Y-100272309D01*
X147041950Y-100293750D01*
X147041950Y-100731250D01*
X147040897Y-100752691D01*
X147037747Y-100773926D01*
X147032531Y-100794750D01*
X147025299Y-100814962D01*
X147016120Y-100834368D01*
X147005084Y-100852781D01*
X146992296Y-100870024D01*
X146977880Y-100885930D01*
X146961974Y-100900346D01*
X146944731Y-100913134D01*
X146926318Y-100924170D01*
X146906912Y-100933349D01*
X146886700Y-100940581D01*
X146865876Y-100945797D01*
X146844641Y-100948947D01*
X146823200Y-100950000D01*
X146310700Y-100950000D01*
X146289259Y-100948947D01*
X146268024Y-100945797D01*
X146247200Y-100940581D01*
X146226988Y-100933349D01*
X146207582Y-100924170D01*
X146189169Y-100913134D01*
X146171926Y-100900346D01*
X146156020Y-100885930D01*
X146141604Y-100870024D01*
X146128816Y-100852781D01*
X146117780Y-100834368D01*
X146108601Y-100814962D01*
X146101369Y-100794750D01*
X146096153Y-100773926D01*
X146093003Y-100752691D01*
X146091950Y-100731250D01*
X146091950Y-100293750D01*
X146093003Y-100272309D01*
X146096153Y-100251074D01*
X146101369Y-100230250D01*
X146108601Y-100210038D01*
X146117780Y-100190632D01*
X146128816Y-100172219D01*
X146141604Y-100154976D01*
X146156020Y-100139070D01*
X146171926Y-100124654D01*
X146189169Y-100111866D01*
X146207582Y-100100830D01*
X146226988Y-100091651D01*
X146247200Y-100084419D01*
X146268024Y-100079203D01*
X146289259Y-100076053D01*
X146310700Y-100075000D01*
X146823200Y-100075000D01*
X146844641Y-100076053D01*
X146844641Y-100076053D01*
G37*
D12*
X146566950Y-100512500D03*
D11*
G36*
X130177941Y-101651053D02*
G01*
X130199176Y-101654203D01*
X130220000Y-101659419D01*
X130240212Y-101666651D01*
X130259618Y-101675830D01*
X130278031Y-101686866D01*
X130295274Y-101699654D01*
X130311180Y-101714070D01*
X130325596Y-101729976D01*
X130338384Y-101747219D01*
X130349420Y-101765632D01*
X130358599Y-101785038D01*
X130365831Y-101805250D01*
X130371047Y-101826074D01*
X130374197Y-101847309D01*
X130375250Y-101868750D01*
X130375250Y-102306250D01*
X130374197Y-102327691D01*
X130371047Y-102348926D01*
X130365831Y-102369750D01*
X130358599Y-102389962D01*
X130349420Y-102409368D01*
X130338384Y-102427781D01*
X130325596Y-102445024D01*
X130311180Y-102460930D01*
X130295274Y-102475346D01*
X130278031Y-102488134D01*
X130259618Y-102499170D01*
X130240212Y-102508349D01*
X130220000Y-102515581D01*
X130199176Y-102520797D01*
X130177941Y-102523947D01*
X130156500Y-102525000D01*
X129644000Y-102525000D01*
X129622559Y-102523947D01*
X129601324Y-102520797D01*
X129580500Y-102515581D01*
X129560288Y-102508349D01*
X129540882Y-102499170D01*
X129522469Y-102488134D01*
X129505226Y-102475346D01*
X129489320Y-102460930D01*
X129474904Y-102445024D01*
X129462116Y-102427781D01*
X129451080Y-102409368D01*
X129441901Y-102389962D01*
X129434669Y-102369750D01*
X129429453Y-102348926D01*
X129426303Y-102327691D01*
X129425250Y-102306250D01*
X129425250Y-101868750D01*
X129426303Y-101847309D01*
X129429453Y-101826074D01*
X129434669Y-101805250D01*
X129441901Y-101785038D01*
X129451080Y-101765632D01*
X129462116Y-101747219D01*
X129474904Y-101729976D01*
X129489320Y-101714070D01*
X129505226Y-101699654D01*
X129522469Y-101686866D01*
X129540882Y-101675830D01*
X129560288Y-101666651D01*
X129580500Y-101659419D01*
X129601324Y-101654203D01*
X129622559Y-101651053D01*
X129644000Y-101650000D01*
X130156500Y-101650000D01*
X130177941Y-101651053D01*
X130177941Y-101651053D01*
G37*
D12*
X129900250Y-102087500D03*
D11*
G36*
X130177941Y-100076053D02*
G01*
X130199176Y-100079203D01*
X130220000Y-100084419D01*
X130240212Y-100091651D01*
X130259618Y-100100830D01*
X130278031Y-100111866D01*
X130295274Y-100124654D01*
X130311180Y-100139070D01*
X130325596Y-100154976D01*
X130338384Y-100172219D01*
X130349420Y-100190632D01*
X130358599Y-100210038D01*
X130365831Y-100230250D01*
X130371047Y-100251074D01*
X130374197Y-100272309D01*
X130375250Y-100293750D01*
X130375250Y-100731250D01*
X130374197Y-100752691D01*
X130371047Y-100773926D01*
X130365831Y-100794750D01*
X130358599Y-100814962D01*
X130349420Y-100834368D01*
X130338384Y-100852781D01*
X130325596Y-100870024D01*
X130311180Y-100885930D01*
X130295274Y-100900346D01*
X130278031Y-100913134D01*
X130259618Y-100924170D01*
X130240212Y-100933349D01*
X130220000Y-100940581D01*
X130199176Y-100945797D01*
X130177941Y-100948947D01*
X130156500Y-100950000D01*
X129644000Y-100950000D01*
X129622559Y-100948947D01*
X129601324Y-100945797D01*
X129580500Y-100940581D01*
X129560288Y-100933349D01*
X129540882Y-100924170D01*
X129522469Y-100913134D01*
X129505226Y-100900346D01*
X129489320Y-100885930D01*
X129474904Y-100870024D01*
X129462116Y-100852781D01*
X129451080Y-100834368D01*
X129441901Y-100814962D01*
X129434669Y-100794750D01*
X129429453Y-100773926D01*
X129426303Y-100752691D01*
X129425250Y-100731250D01*
X129425250Y-100293750D01*
X129426303Y-100272309D01*
X129429453Y-100251074D01*
X129434669Y-100230250D01*
X129441901Y-100210038D01*
X129451080Y-100190632D01*
X129462116Y-100172219D01*
X129474904Y-100154976D01*
X129489320Y-100139070D01*
X129505226Y-100124654D01*
X129522469Y-100111866D01*
X129540882Y-100100830D01*
X129560288Y-100091651D01*
X129580500Y-100084419D01*
X129601324Y-100079203D01*
X129622559Y-100076053D01*
X129644000Y-100075000D01*
X130156500Y-100075000D01*
X130177941Y-100076053D01*
X130177941Y-100076053D01*
G37*
D12*
X129900250Y-100512500D03*
D11*
G36*
X113511241Y-101651053D02*
G01*
X113532476Y-101654203D01*
X113553300Y-101659419D01*
X113573512Y-101666651D01*
X113592918Y-101675830D01*
X113611331Y-101686866D01*
X113628574Y-101699654D01*
X113644480Y-101714070D01*
X113658896Y-101729976D01*
X113671684Y-101747219D01*
X113682720Y-101765632D01*
X113691899Y-101785038D01*
X113699131Y-101805250D01*
X113704347Y-101826074D01*
X113707497Y-101847309D01*
X113708550Y-101868750D01*
X113708550Y-102306250D01*
X113707497Y-102327691D01*
X113704347Y-102348926D01*
X113699131Y-102369750D01*
X113691899Y-102389962D01*
X113682720Y-102409368D01*
X113671684Y-102427781D01*
X113658896Y-102445024D01*
X113644480Y-102460930D01*
X113628574Y-102475346D01*
X113611331Y-102488134D01*
X113592918Y-102499170D01*
X113573512Y-102508349D01*
X113553300Y-102515581D01*
X113532476Y-102520797D01*
X113511241Y-102523947D01*
X113489800Y-102525000D01*
X112977300Y-102525000D01*
X112955859Y-102523947D01*
X112934624Y-102520797D01*
X112913800Y-102515581D01*
X112893588Y-102508349D01*
X112874182Y-102499170D01*
X112855769Y-102488134D01*
X112838526Y-102475346D01*
X112822620Y-102460930D01*
X112808204Y-102445024D01*
X112795416Y-102427781D01*
X112784380Y-102409368D01*
X112775201Y-102389962D01*
X112767969Y-102369750D01*
X112762753Y-102348926D01*
X112759603Y-102327691D01*
X112758550Y-102306250D01*
X112758550Y-101868750D01*
X112759603Y-101847309D01*
X112762753Y-101826074D01*
X112767969Y-101805250D01*
X112775201Y-101785038D01*
X112784380Y-101765632D01*
X112795416Y-101747219D01*
X112808204Y-101729976D01*
X112822620Y-101714070D01*
X112838526Y-101699654D01*
X112855769Y-101686866D01*
X112874182Y-101675830D01*
X112893588Y-101666651D01*
X112913800Y-101659419D01*
X112934624Y-101654203D01*
X112955859Y-101651053D01*
X112977300Y-101650000D01*
X113489800Y-101650000D01*
X113511241Y-101651053D01*
X113511241Y-101651053D01*
G37*
D12*
X113233550Y-102087500D03*
D11*
G36*
X113511241Y-100076053D02*
G01*
X113532476Y-100079203D01*
X113553300Y-100084419D01*
X113573512Y-100091651D01*
X113592918Y-100100830D01*
X113611331Y-100111866D01*
X113628574Y-100124654D01*
X113644480Y-100139070D01*
X113658896Y-100154976D01*
X113671684Y-100172219D01*
X113682720Y-100190632D01*
X113691899Y-100210038D01*
X113699131Y-100230250D01*
X113704347Y-100251074D01*
X113707497Y-100272309D01*
X113708550Y-100293750D01*
X113708550Y-100731250D01*
X113707497Y-100752691D01*
X113704347Y-100773926D01*
X113699131Y-100794750D01*
X113691899Y-100814962D01*
X113682720Y-100834368D01*
X113671684Y-100852781D01*
X113658896Y-100870024D01*
X113644480Y-100885930D01*
X113628574Y-100900346D01*
X113611331Y-100913134D01*
X113592918Y-100924170D01*
X113573512Y-100933349D01*
X113553300Y-100940581D01*
X113532476Y-100945797D01*
X113511241Y-100948947D01*
X113489800Y-100950000D01*
X112977300Y-100950000D01*
X112955859Y-100948947D01*
X112934624Y-100945797D01*
X112913800Y-100940581D01*
X112893588Y-100933349D01*
X112874182Y-100924170D01*
X112855769Y-100913134D01*
X112838526Y-100900346D01*
X112822620Y-100885930D01*
X112808204Y-100870024D01*
X112795416Y-100852781D01*
X112784380Y-100834368D01*
X112775201Y-100814962D01*
X112767969Y-100794750D01*
X112762753Y-100773926D01*
X112759603Y-100752691D01*
X112758550Y-100731250D01*
X112758550Y-100293750D01*
X112759603Y-100272309D01*
X112762753Y-100251074D01*
X112767969Y-100230250D01*
X112775201Y-100210038D01*
X112784380Y-100190632D01*
X112795416Y-100172219D01*
X112808204Y-100154976D01*
X112822620Y-100139070D01*
X112838526Y-100124654D01*
X112855769Y-100111866D01*
X112874182Y-100100830D01*
X112893588Y-100091651D01*
X112913800Y-100084419D01*
X112934624Y-100079203D01*
X112955859Y-100076053D01*
X112977300Y-100075000D01*
X113489800Y-100075000D01*
X113511241Y-100076053D01*
X113511241Y-100076053D01*
G37*
D12*
X113233550Y-100512500D03*
D11*
G36*
X96844541Y-101651053D02*
G01*
X96865776Y-101654203D01*
X96886600Y-101659419D01*
X96906812Y-101666651D01*
X96926218Y-101675830D01*
X96944631Y-101686866D01*
X96961874Y-101699654D01*
X96977780Y-101714070D01*
X96992196Y-101729976D01*
X97004984Y-101747219D01*
X97016020Y-101765632D01*
X97025199Y-101785038D01*
X97032431Y-101805250D01*
X97037647Y-101826074D01*
X97040797Y-101847309D01*
X97041850Y-101868750D01*
X97041850Y-102306250D01*
X97040797Y-102327691D01*
X97037647Y-102348926D01*
X97032431Y-102369750D01*
X97025199Y-102389962D01*
X97016020Y-102409368D01*
X97004984Y-102427781D01*
X96992196Y-102445024D01*
X96977780Y-102460930D01*
X96961874Y-102475346D01*
X96944631Y-102488134D01*
X96926218Y-102499170D01*
X96906812Y-102508349D01*
X96886600Y-102515581D01*
X96865776Y-102520797D01*
X96844541Y-102523947D01*
X96823100Y-102525000D01*
X96310600Y-102525000D01*
X96289159Y-102523947D01*
X96267924Y-102520797D01*
X96247100Y-102515581D01*
X96226888Y-102508349D01*
X96207482Y-102499170D01*
X96189069Y-102488134D01*
X96171826Y-102475346D01*
X96155920Y-102460930D01*
X96141504Y-102445024D01*
X96128716Y-102427781D01*
X96117680Y-102409368D01*
X96108501Y-102389962D01*
X96101269Y-102369750D01*
X96096053Y-102348926D01*
X96092903Y-102327691D01*
X96091850Y-102306250D01*
X96091850Y-101868750D01*
X96092903Y-101847309D01*
X96096053Y-101826074D01*
X96101269Y-101805250D01*
X96108501Y-101785038D01*
X96117680Y-101765632D01*
X96128716Y-101747219D01*
X96141504Y-101729976D01*
X96155920Y-101714070D01*
X96171826Y-101699654D01*
X96189069Y-101686866D01*
X96207482Y-101675830D01*
X96226888Y-101666651D01*
X96247100Y-101659419D01*
X96267924Y-101654203D01*
X96289159Y-101651053D01*
X96310600Y-101650000D01*
X96823100Y-101650000D01*
X96844541Y-101651053D01*
X96844541Y-101651053D01*
G37*
D12*
X96566850Y-102087500D03*
D11*
G36*
X96844541Y-100076053D02*
G01*
X96865776Y-100079203D01*
X96886600Y-100084419D01*
X96906812Y-100091651D01*
X96926218Y-100100830D01*
X96944631Y-100111866D01*
X96961874Y-100124654D01*
X96977780Y-100139070D01*
X96992196Y-100154976D01*
X97004984Y-100172219D01*
X97016020Y-100190632D01*
X97025199Y-100210038D01*
X97032431Y-100230250D01*
X97037647Y-100251074D01*
X97040797Y-100272309D01*
X97041850Y-100293750D01*
X97041850Y-100731250D01*
X97040797Y-100752691D01*
X97037647Y-100773926D01*
X97032431Y-100794750D01*
X97025199Y-100814962D01*
X97016020Y-100834368D01*
X97004984Y-100852781D01*
X96992196Y-100870024D01*
X96977780Y-100885930D01*
X96961874Y-100900346D01*
X96944631Y-100913134D01*
X96926218Y-100924170D01*
X96906812Y-100933349D01*
X96886600Y-100940581D01*
X96865776Y-100945797D01*
X96844541Y-100948947D01*
X96823100Y-100950000D01*
X96310600Y-100950000D01*
X96289159Y-100948947D01*
X96267924Y-100945797D01*
X96247100Y-100940581D01*
X96226888Y-100933349D01*
X96207482Y-100924170D01*
X96189069Y-100913134D01*
X96171826Y-100900346D01*
X96155920Y-100885930D01*
X96141504Y-100870024D01*
X96128716Y-100852781D01*
X96117680Y-100834368D01*
X96108501Y-100814962D01*
X96101269Y-100794750D01*
X96096053Y-100773926D01*
X96092903Y-100752691D01*
X96091850Y-100731250D01*
X96091850Y-100293750D01*
X96092903Y-100272309D01*
X96096053Y-100251074D01*
X96101269Y-100230250D01*
X96108501Y-100210038D01*
X96117680Y-100190632D01*
X96128716Y-100172219D01*
X96141504Y-100154976D01*
X96155920Y-100139070D01*
X96171826Y-100124654D01*
X96189069Y-100111866D01*
X96207482Y-100100830D01*
X96226888Y-100091651D01*
X96247100Y-100084419D01*
X96267924Y-100079203D01*
X96289159Y-100076053D01*
X96310600Y-100075000D01*
X96823100Y-100075000D01*
X96844541Y-100076053D01*
X96844541Y-100076053D01*
G37*
D12*
X96566850Y-100512500D03*
D11*
G36*
X80177841Y-101651053D02*
G01*
X80199076Y-101654203D01*
X80219900Y-101659419D01*
X80240112Y-101666651D01*
X80259518Y-101675830D01*
X80277931Y-101686866D01*
X80295174Y-101699654D01*
X80311080Y-101714070D01*
X80325496Y-101729976D01*
X80338284Y-101747219D01*
X80349320Y-101765632D01*
X80358499Y-101785038D01*
X80365731Y-101805250D01*
X80370947Y-101826074D01*
X80374097Y-101847309D01*
X80375150Y-101868750D01*
X80375150Y-102306250D01*
X80374097Y-102327691D01*
X80370947Y-102348926D01*
X80365731Y-102369750D01*
X80358499Y-102389962D01*
X80349320Y-102409368D01*
X80338284Y-102427781D01*
X80325496Y-102445024D01*
X80311080Y-102460930D01*
X80295174Y-102475346D01*
X80277931Y-102488134D01*
X80259518Y-102499170D01*
X80240112Y-102508349D01*
X80219900Y-102515581D01*
X80199076Y-102520797D01*
X80177841Y-102523947D01*
X80156400Y-102525000D01*
X79643900Y-102525000D01*
X79622459Y-102523947D01*
X79601224Y-102520797D01*
X79580400Y-102515581D01*
X79560188Y-102508349D01*
X79540782Y-102499170D01*
X79522369Y-102488134D01*
X79505126Y-102475346D01*
X79489220Y-102460930D01*
X79474804Y-102445024D01*
X79462016Y-102427781D01*
X79450980Y-102409368D01*
X79441801Y-102389962D01*
X79434569Y-102369750D01*
X79429353Y-102348926D01*
X79426203Y-102327691D01*
X79425150Y-102306250D01*
X79425150Y-101868750D01*
X79426203Y-101847309D01*
X79429353Y-101826074D01*
X79434569Y-101805250D01*
X79441801Y-101785038D01*
X79450980Y-101765632D01*
X79462016Y-101747219D01*
X79474804Y-101729976D01*
X79489220Y-101714070D01*
X79505126Y-101699654D01*
X79522369Y-101686866D01*
X79540782Y-101675830D01*
X79560188Y-101666651D01*
X79580400Y-101659419D01*
X79601224Y-101654203D01*
X79622459Y-101651053D01*
X79643900Y-101650000D01*
X80156400Y-101650000D01*
X80177841Y-101651053D01*
X80177841Y-101651053D01*
G37*
D12*
X79900150Y-102087500D03*
D11*
G36*
X80177841Y-100076053D02*
G01*
X80199076Y-100079203D01*
X80219900Y-100084419D01*
X80240112Y-100091651D01*
X80259518Y-100100830D01*
X80277931Y-100111866D01*
X80295174Y-100124654D01*
X80311080Y-100139070D01*
X80325496Y-100154976D01*
X80338284Y-100172219D01*
X80349320Y-100190632D01*
X80358499Y-100210038D01*
X80365731Y-100230250D01*
X80370947Y-100251074D01*
X80374097Y-100272309D01*
X80375150Y-100293750D01*
X80375150Y-100731250D01*
X80374097Y-100752691D01*
X80370947Y-100773926D01*
X80365731Y-100794750D01*
X80358499Y-100814962D01*
X80349320Y-100834368D01*
X80338284Y-100852781D01*
X80325496Y-100870024D01*
X80311080Y-100885930D01*
X80295174Y-100900346D01*
X80277931Y-100913134D01*
X80259518Y-100924170D01*
X80240112Y-100933349D01*
X80219900Y-100940581D01*
X80199076Y-100945797D01*
X80177841Y-100948947D01*
X80156400Y-100950000D01*
X79643900Y-100950000D01*
X79622459Y-100948947D01*
X79601224Y-100945797D01*
X79580400Y-100940581D01*
X79560188Y-100933349D01*
X79540782Y-100924170D01*
X79522369Y-100913134D01*
X79505126Y-100900346D01*
X79489220Y-100885930D01*
X79474804Y-100870024D01*
X79462016Y-100852781D01*
X79450980Y-100834368D01*
X79441801Y-100814962D01*
X79434569Y-100794750D01*
X79429353Y-100773926D01*
X79426203Y-100752691D01*
X79425150Y-100731250D01*
X79425150Y-100293750D01*
X79426203Y-100272309D01*
X79429353Y-100251074D01*
X79434569Y-100230250D01*
X79441801Y-100210038D01*
X79450980Y-100190632D01*
X79462016Y-100172219D01*
X79474804Y-100154976D01*
X79489220Y-100139070D01*
X79505126Y-100124654D01*
X79522369Y-100111866D01*
X79540782Y-100100830D01*
X79560188Y-100091651D01*
X79580400Y-100084419D01*
X79601224Y-100079203D01*
X79622459Y-100076053D01*
X79643900Y-100075000D01*
X80156400Y-100075000D01*
X80177841Y-100076053D01*
X80177841Y-100076053D01*
G37*
D12*
X79900150Y-100512500D03*
D11*
G36*
X304094965Y-101276053D02*
G01*
X304116200Y-101279203D01*
X304137024Y-101284419D01*
X304157236Y-101291651D01*
X304176642Y-101300830D01*
X304195055Y-101311866D01*
X304212298Y-101324654D01*
X304228204Y-101339070D01*
X304242620Y-101354976D01*
X304255408Y-101372219D01*
X304266444Y-101390632D01*
X304275623Y-101410038D01*
X304282855Y-101430250D01*
X304288071Y-101451074D01*
X304291221Y-101472309D01*
X304292274Y-101493750D01*
X304292274Y-101931250D01*
X304291221Y-101952691D01*
X304288071Y-101973926D01*
X304282855Y-101994750D01*
X304275623Y-102014962D01*
X304266444Y-102034368D01*
X304255408Y-102052781D01*
X304242620Y-102070024D01*
X304228204Y-102085930D01*
X304212298Y-102100346D01*
X304195055Y-102113134D01*
X304176642Y-102124170D01*
X304157236Y-102133349D01*
X304137024Y-102140581D01*
X304116200Y-102145797D01*
X304094965Y-102148947D01*
X304073524Y-102150000D01*
X303561024Y-102150000D01*
X303539583Y-102148947D01*
X303518348Y-102145797D01*
X303497524Y-102140581D01*
X303477312Y-102133349D01*
X303457906Y-102124170D01*
X303439493Y-102113134D01*
X303422250Y-102100346D01*
X303406344Y-102085930D01*
X303391928Y-102070024D01*
X303379140Y-102052781D01*
X303368104Y-102034368D01*
X303358925Y-102014962D01*
X303351693Y-101994750D01*
X303346477Y-101973926D01*
X303343327Y-101952691D01*
X303342274Y-101931250D01*
X303342274Y-101493750D01*
X303343327Y-101472309D01*
X303346477Y-101451074D01*
X303351693Y-101430250D01*
X303358925Y-101410038D01*
X303368104Y-101390632D01*
X303379140Y-101372219D01*
X303391928Y-101354976D01*
X303406344Y-101339070D01*
X303422250Y-101324654D01*
X303439493Y-101311866D01*
X303457906Y-101300830D01*
X303477312Y-101291651D01*
X303497524Y-101284419D01*
X303518348Y-101279203D01*
X303539583Y-101276053D01*
X303561024Y-101275000D01*
X304073524Y-101275000D01*
X304094965Y-101276053D01*
X304094965Y-101276053D01*
G37*
D12*
X303817274Y-101712500D03*
D11*
G36*
X304094965Y-102851053D02*
G01*
X304116200Y-102854203D01*
X304137024Y-102859419D01*
X304157236Y-102866651D01*
X304176642Y-102875830D01*
X304195055Y-102886866D01*
X304212298Y-102899654D01*
X304228204Y-102914070D01*
X304242620Y-102929976D01*
X304255408Y-102947219D01*
X304266444Y-102965632D01*
X304275623Y-102985038D01*
X304282855Y-103005250D01*
X304288071Y-103026074D01*
X304291221Y-103047309D01*
X304292274Y-103068750D01*
X304292274Y-103506250D01*
X304291221Y-103527691D01*
X304288071Y-103548926D01*
X304282855Y-103569750D01*
X304275623Y-103589962D01*
X304266444Y-103609368D01*
X304255408Y-103627781D01*
X304242620Y-103645024D01*
X304228204Y-103660930D01*
X304212298Y-103675346D01*
X304195055Y-103688134D01*
X304176642Y-103699170D01*
X304157236Y-103708349D01*
X304137024Y-103715581D01*
X304116200Y-103720797D01*
X304094965Y-103723947D01*
X304073524Y-103725000D01*
X303561024Y-103725000D01*
X303539583Y-103723947D01*
X303518348Y-103720797D01*
X303497524Y-103715581D01*
X303477312Y-103708349D01*
X303457906Y-103699170D01*
X303439493Y-103688134D01*
X303422250Y-103675346D01*
X303406344Y-103660930D01*
X303391928Y-103645024D01*
X303379140Y-103627781D01*
X303368104Y-103609368D01*
X303358925Y-103589962D01*
X303351693Y-103569750D01*
X303346477Y-103548926D01*
X303343327Y-103527691D01*
X303342274Y-103506250D01*
X303342274Y-103068750D01*
X303343327Y-103047309D01*
X303346477Y-103026074D01*
X303351693Y-103005250D01*
X303358925Y-102985038D01*
X303368104Y-102965632D01*
X303379140Y-102947219D01*
X303391928Y-102929976D01*
X303406344Y-102914070D01*
X303422250Y-102899654D01*
X303439493Y-102886866D01*
X303457906Y-102875830D01*
X303477312Y-102866651D01*
X303497524Y-102859419D01*
X303518348Y-102854203D01*
X303539583Y-102851053D01*
X303561024Y-102850000D01*
X304073524Y-102850000D01*
X304094965Y-102851053D01*
X304094965Y-102851053D01*
G37*
D12*
X303817274Y-103287500D03*
D11*
G36*
X287428265Y-101276053D02*
G01*
X287449500Y-101279203D01*
X287470324Y-101284419D01*
X287490536Y-101291651D01*
X287509942Y-101300830D01*
X287528355Y-101311866D01*
X287545598Y-101324654D01*
X287561504Y-101339070D01*
X287575920Y-101354976D01*
X287588708Y-101372219D01*
X287599744Y-101390632D01*
X287608923Y-101410038D01*
X287616155Y-101430250D01*
X287621371Y-101451074D01*
X287624521Y-101472309D01*
X287625574Y-101493750D01*
X287625574Y-101931250D01*
X287624521Y-101952691D01*
X287621371Y-101973926D01*
X287616155Y-101994750D01*
X287608923Y-102014962D01*
X287599744Y-102034368D01*
X287588708Y-102052781D01*
X287575920Y-102070024D01*
X287561504Y-102085930D01*
X287545598Y-102100346D01*
X287528355Y-102113134D01*
X287509942Y-102124170D01*
X287490536Y-102133349D01*
X287470324Y-102140581D01*
X287449500Y-102145797D01*
X287428265Y-102148947D01*
X287406824Y-102150000D01*
X286894324Y-102150000D01*
X286872883Y-102148947D01*
X286851648Y-102145797D01*
X286830824Y-102140581D01*
X286810612Y-102133349D01*
X286791206Y-102124170D01*
X286772793Y-102113134D01*
X286755550Y-102100346D01*
X286739644Y-102085930D01*
X286725228Y-102070024D01*
X286712440Y-102052781D01*
X286701404Y-102034368D01*
X286692225Y-102014962D01*
X286684993Y-101994750D01*
X286679777Y-101973926D01*
X286676627Y-101952691D01*
X286675574Y-101931250D01*
X286675574Y-101493750D01*
X286676627Y-101472309D01*
X286679777Y-101451074D01*
X286684993Y-101430250D01*
X286692225Y-101410038D01*
X286701404Y-101390632D01*
X286712440Y-101372219D01*
X286725228Y-101354976D01*
X286739644Y-101339070D01*
X286755550Y-101324654D01*
X286772793Y-101311866D01*
X286791206Y-101300830D01*
X286810612Y-101291651D01*
X286830824Y-101284419D01*
X286851648Y-101279203D01*
X286872883Y-101276053D01*
X286894324Y-101275000D01*
X287406824Y-101275000D01*
X287428265Y-101276053D01*
X287428265Y-101276053D01*
G37*
D12*
X287150574Y-101712500D03*
D11*
G36*
X287428265Y-102851053D02*
G01*
X287449500Y-102854203D01*
X287470324Y-102859419D01*
X287490536Y-102866651D01*
X287509942Y-102875830D01*
X287528355Y-102886866D01*
X287545598Y-102899654D01*
X287561504Y-102914070D01*
X287575920Y-102929976D01*
X287588708Y-102947219D01*
X287599744Y-102965632D01*
X287608923Y-102985038D01*
X287616155Y-103005250D01*
X287621371Y-103026074D01*
X287624521Y-103047309D01*
X287625574Y-103068750D01*
X287625574Y-103506250D01*
X287624521Y-103527691D01*
X287621371Y-103548926D01*
X287616155Y-103569750D01*
X287608923Y-103589962D01*
X287599744Y-103609368D01*
X287588708Y-103627781D01*
X287575920Y-103645024D01*
X287561504Y-103660930D01*
X287545598Y-103675346D01*
X287528355Y-103688134D01*
X287509942Y-103699170D01*
X287490536Y-103708349D01*
X287470324Y-103715581D01*
X287449500Y-103720797D01*
X287428265Y-103723947D01*
X287406824Y-103725000D01*
X286894324Y-103725000D01*
X286872883Y-103723947D01*
X286851648Y-103720797D01*
X286830824Y-103715581D01*
X286810612Y-103708349D01*
X286791206Y-103699170D01*
X286772793Y-103688134D01*
X286755550Y-103675346D01*
X286739644Y-103660930D01*
X286725228Y-103645024D01*
X286712440Y-103627781D01*
X286701404Y-103609368D01*
X286692225Y-103589962D01*
X286684993Y-103569750D01*
X286679777Y-103548926D01*
X286676627Y-103527691D01*
X286675574Y-103506250D01*
X286675574Y-103068750D01*
X286676627Y-103047309D01*
X286679777Y-103026074D01*
X286684993Y-103005250D01*
X286692225Y-102985038D01*
X286701404Y-102965632D01*
X286712440Y-102947219D01*
X286725228Y-102929976D01*
X286739644Y-102914070D01*
X286755550Y-102899654D01*
X286772793Y-102886866D01*
X286791206Y-102875830D01*
X286810612Y-102866651D01*
X286830824Y-102859419D01*
X286851648Y-102854203D01*
X286872883Y-102851053D01*
X286894324Y-102850000D01*
X287406824Y-102850000D01*
X287428265Y-102851053D01*
X287428265Y-102851053D01*
G37*
D12*
X287150574Y-103287500D03*
D11*
G36*
X270761565Y-101276053D02*
G01*
X270782800Y-101279203D01*
X270803624Y-101284419D01*
X270823836Y-101291651D01*
X270843242Y-101300830D01*
X270861655Y-101311866D01*
X270878898Y-101324654D01*
X270894804Y-101339070D01*
X270909220Y-101354976D01*
X270922008Y-101372219D01*
X270933044Y-101390632D01*
X270942223Y-101410038D01*
X270949455Y-101430250D01*
X270954671Y-101451074D01*
X270957821Y-101472309D01*
X270958874Y-101493750D01*
X270958874Y-101931250D01*
X270957821Y-101952691D01*
X270954671Y-101973926D01*
X270949455Y-101994750D01*
X270942223Y-102014962D01*
X270933044Y-102034368D01*
X270922008Y-102052781D01*
X270909220Y-102070024D01*
X270894804Y-102085930D01*
X270878898Y-102100346D01*
X270861655Y-102113134D01*
X270843242Y-102124170D01*
X270823836Y-102133349D01*
X270803624Y-102140581D01*
X270782800Y-102145797D01*
X270761565Y-102148947D01*
X270740124Y-102150000D01*
X270227624Y-102150000D01*
X270206183Y-102148947D01*
X270184948Y-102145797D01*
X270164124Y-102140581D01*
X270143912Y-102133349D01*
X270124506Y-102124170D01*
X270106093Y-102113134D01*
X270088850Y-102100346D01*
X270072944Y-102085930D01*
X270058528Y-102070024D01*
X270045740Y-102052781D01*
X270034704Y-102034368D01*
X270025525Y-102014962D01*
X270018293Y-101994750D01*
X270013077Y-101973926D01*
X270009927Y-101952691D01*
X270008874Y-101931250D01*
X270008874Y-101493750D01*
X270009927Y-101472309D01*
X270013077Y-101451074D01*
X270018293Y-101430250D01*
X270025525Y-101410038D01*
X270034704Y-101390632D01*
X270045740Y-101372219D01*
X270058528Y-101354976D01*
X270072944Y-101339070D01*
X270088850Y-101324654D01*
X270106093Y-101311866D01*
X270124506Y-101300830D01*
X270143912Y-101291651D01*
X270164124Y-101284419D01*
X270184948Y-101279203D01*
X270206183Y-101276053D01*
X270227624Y-101275000D01*
X270740124Y-101275000D01*
X270761565Y-101276053D01*
X270761565Y-101276053D01*
G37*
D12*
X270483874Y-101712500D03*
D11*
G36*
X270761565Y-102851053D02*
G01*
X270782800Y-102854203D01*
X270803624Y-102859419D01*
X270823836Y-102866651D01*
X270843242Y-102875830D01*
X270861655Y-102886866D01*
X270878898Y-102899654D01*
X270894804Y-102914070D01*
X270909220Y-102929976D01*
X270922008Y-102947219D01*
X270933044Y-102965632D01*
X270942223Y-102985038D01*
X270949455Y-103005250D01*
X270954671Y-103026074D01*
X270957821Y-103047309D01*
X270958874Y-103068750D01*
X270958874Y-103506250D01*
X270957821Y-103527691D01*
X270954671Y-103548926D01*
X270949455Y-103569750D01*
X270942223Y-103589962D01*
X270933044Y-103609368D01*
X270922008Y-103627781D01*
X270909220Y-103645024D01*
X270894804Y-103660930D01*
X270878898Y-103675346D01*
X270861655Y-103688134D01*
X270843242Y-103699170D01*
X270823836Y-103708349D01*
X270803624Y-103715581D01*
X270782800Y-103720797D01*
X270761565Y-103723947D01*
X270740124Y-103725000D01*
X270227624Y-103725000D01*
X270206183Y-103723947D01*
X270184948Y-103720797D01*
X270164124Y-103715581D01*
X270143912Y-103708349D01*
X270124506Y-103699170D01*
X270106093Y-103688134D01*
X270088850Y-103675346D01*
X270072944Y-103660930D01*
X270058528Y-103645024D01*
X270045740Y-103627781D01*
X270034704Y-103609368D01*
X270025525Y-103589962D01*
X270018293Y-103569750D01*
X270013077Y-103548926D01*
X270009927Y-103527691D01*
X270008874Y-103506250D01*
X270008874Y-103068750D01*
X270009927Y-103047309D01*
X270013077Y-103026074D01*
X270018293Y-103005250D01*
X270025525Y-102985038D01*
X270034704Y-102965632D01*
X270045740Y-102947219D01*
X270058528Y-102929976D01*
X270072944Y-102914070D01*
X270088850Y-102899654D01*
X270106093Y-102886866D01*
X270124506Y-102875830D01*
X270143912Y-102866651D01*
X270164124Y-102859419D01*
X270184948Y-102854203D01*
X270206183Y-102851053D01*
X270227624Y-102850000D01*
X270740124Y-102850000D01*
X270761565Y-102851053D01*
X270761565Y-102851053D01*
G37*
D12*
X270483874Y-103287500D03*
D11*
G36*
X253844487Y-101176053D02*
G01*
X253865722Y-101179203D01*
X253886546Y-101184419D01*
X253906758Y-101191651D01*
X253926164Y-101200830D01*
X253944577Y-101211866D01*
X253961820Y-101224654D01*
X253977726Y-101239070D01*
X253992142Y-101254976D01*
X254004930Y-101272219D01*
X254015966Y-101290632D01*
X254025145Y-101310038D01*
X254032377Y-101330250D01*
X254037593Y-101351074D01*
X254040743Y-101372309D01*
X254041796Y-101393750D01*
X254041796Y-101831250D01*
X254040743Y-101852691D01*
X254037593Y-101873926D01*
X254032377Y-101894750D01*
X254025145Y-101914962D01*
X254015966Y-101934368D01*
X254004930Y-101952781D01*
X253992142Y-101970024D01*
X253977726Y-101985930D01*
X253961820Y-102000346D01*
X253944577Y-102013134D01*
X253926164Y-102024170D01*
X253906758Y-102033349D01*
X253886546Y-102040581D01*
X253865722Y-102045797D01*
X253844487Y-102048947D01*
X253823046Y-102050000D01*
X253310546Y-102050000D01*
X253289105Y-102048947D01*
X253267870Y-102045797D01*
X253247046Y-102040581D01*
X253226834Y-102033349D01*
X253207428Y-102024170D01*
X253189015Y-102013134D01*
X253171772Y-102000346D01*
X253155866Y-101985930D01*
X253141450Y-101970024D01*
X253128662Y-101952781D01*
X253117626Y-101934368D01*
X253108447Y-101914962D01*
X253101215Y-101894750D01*
X253095999Y-101873926D01*
X253092849Y-101852691D01*
X253091796Y-101831250D01*
X253091796Y-101393750D01*
X253092849Y-101372309D01*
X253095999Y-101351074D01*
X253101215Y-101330250D01*
X253108447Y-101310038D01*
X253117626Y-101290632D01*
X253128662Y-101272219D01*
X253141450Y-101254976D01*
X253155866Y-101239070D01*
X253171772Y-101224654D01*
X253189015Y-101211866D01*
X253207428Y-101200830D01*
X253226834Y-101191651D01*
X253247046Y-101184419D01*
X253267870Y-101179203D01*
X253289105Y-101176053D01*
X253310546Y-101175000D01*
X253823046Y-101175000D01*
X253844487Y-101176053D01*
X253844487Y-101176053D01*
G37*
D12*
X253566796Y-101612500D03*
D11*
G36*
X253844487Y-102751053D02*
G01*
X253865722Y-102754203D01*
X253886546Y-102759419D01*
X253906758Y-102766651D01*
X253926164Y-102775830D01*
X253944577Y-102786866D01*
X253961820Y-102799654D01*
X253977726Y-102814070D01*
X253992142Y-102829976D01*
X254004930Y-102847219D01*
X254015966Y-102865632D01*
X254025145Y-102885038D01*
X254032377Y-102905250D01*
X254037593Y-102926074D01*
X254040743Y-102947309D01*
X254041796Y-102968750D01*
X254041796Y-103406250D01*
X254040743Y-103427691D01*
X254037593Y-103448926D01*
X254032377Y-103469750D01*
X254025145Y-103489962D01*
X254015966Y-103509368D01*
X254004930Y-103527781D01*
X253992142Y-103545024D01*
X253977726Y-103560930D01*
X253961820Y-103575346D01*
X253944577Y-103588134D01*
X253926164Y-103599170D01*
X253906758Y-103608349D01*
X253886546Y-103615581D01*
X253865722Y-103620797D01*
X253844487Y-103623947D01*
X253823046Y-103625000D01*
X253310546Y-103625000D01*
X253289105Y-103623947D01*
X253267870Y-103620797D01*
X253247046Y-103615581D01*
X253226834Y-103608349D01*
X253207428Y-103599170D01*
X253189015Y-103588134D01*
X253171772Y-103575346D01*
X253155866Y-103560930D01*
X253141450Y-103545024D01*
X253128662Y-103527781D01*
X253117626Y-103509368D01*
X253108447Y-103489962D01*
X253101215Y-103469750D01*
X253095999Y-103448926D01*
X253092849Y-103427691D01*
X253091796Y-103406250D01*
X253091796Y-102968750D01*
X253092849Y-102947309D01*
X253095999Y-102926074D01*
X253101215Y-102905250D01*
X253108447Y-102885038D01*
X253117626Y-102865632D01*
X253128662Y-102847219D01*
X253141450Y-102829976D01*
X253155866Y-102814070D01*
X253171772Y-102799654D01*
X253189015Y-102786866D01*
X253207428Y-102775830D01*
X253226834Y-102766651D01*
X253247046Y-102759419D01*
X253267870Y-102754203D01*
X253289105Y-102751053D01*
X253310546Y-102750000D01*
X253823046Y-102750000D01*
X253844487Y-102751053D01*
X253844487Y-102751053D01*
G37*
D12*
X253566796Y-103187500D03*
D11*
G36*
X248603172Y-100076053D02*
G01*
X248624407Y-100079203D01*
X248645231Y-100084419D01*
X248665443Y-100091651D01*
X248684849Y-100100830D01*
X248703262Y-100111866D01*
X248720505Y-100124654D01*
X248736411Y-100139070D01*
X248750827Y-100154976D01*
X248763615Y-100172219D01*
X248774651Y-100190632D01*
X248783830Y-100210038D01*
X248791062Y-100230250D01*
X248796278Y-100251074D01*
X248799428Y-100272309D01*
X248800481Y-100293750D01*
X248800481Y-100731250D01*
X248799428Y-100752691D01*
X248796278Y-100773926D01*
X248791062Y-100794750D01*
X248783830Y-100814962D01*
X248774651Y-100834368D01*
X248763615Y-100852781D01*
X248750827Y-100870024D01*
X248736411Y-100885930D01*
X248720505Y-100900346D01*
X248703262Y-100913134D01*
X248684849Y-100924170D01*
X248665443Y-100933349D01*
X248645231Y-100940581D01*
X248624407Y-100945797D01*
X248603172Y-100948947D01*
X248581731Y-100950000D01*
X248069231Y-100950000D01*
X248047790Y-100948947D01*
X248026555Y-100945797D01*
X248005731Y-100940581D01*
X247985519Y-100933349D01*
X247966113Y-100924170D01*
X247947700Y-100913134D01*
X247930457Y-100900346D01*
X247914551Y-100885930D01*
X247900135Y-100870024D01*
X247887347Y-100852781D01*
X247876311Y-100834368D01*
X247867132Y-100814962D01*
X247859900Y-100794750D01*
X247854684Y-100773926D01*
X247851534Y-100752691D01*
X247850481Y-100731250D01*
X247850481Y-100293750D01*
X247851534Y-100272309D01*
X247854684Y-100251074D01*
X247859900Y-100230250D01*
X247867132Y-100210038D01*
X247876311Y-100190632D01*
X247887347Y-100172219D01*
X247900135Y-100154976D01*
X247914551Y-100139070D01*
X247930457Y-100124654D01*
X247947700Y-100111866D01*
X247966113Y-100100830D01*
X247985519Y-100091651D01*
X248005731Y-100084419D01*
X248026555Y-100079203D01*
X248047790Y-100076053D01*
X248069231Y-100075000D01*
X248581731Y-100075000D01*
X248603172Y-100076053D01*
X248603172Y-100076053D01*
G37*
D12*
X248325481Y-100512500D03*
D11*
G36*
X248603172Y-101651053D02*
G01*
X248624407Y-101654203D01*
X248645231Y-101659419D01*
X248665443Y-101666651D01*
X248684849Y-101675830D01*
X248703262Y-101686866D01*
X248720505Y-101699654D01*
X248736411Y-101714070D01*
X248750827Y-101729976D01*
X248763615Y-101747219D01*
X248774651Y-101765632D01*
X248783830Y-101785038D01*
X248791062Y-101805250D01*
X248796278Y-101826074D01*
X248799428Y-101847309D01*
X248800481Y-101868750D01*
X248800481Y-102306250D01*
X248799428Y-102327691D01*
X248796278Y-102348926D01*
X248791062Y-102369750D01*
X248783830Y-102389962D01*
X248774651Y-102409368D01*
X248763615Y-102427781D01*
X248750827Y-102445024D01*
X248736411Y-102460930D01*
X248720505Y-102475346D01*
X248703262Y-102488134D01*
X248684849Y-102499170D01*
X248665443Y-102508349D01*
X248645231Y-102515581D01*
X248624407Y-102520797D01*
X248603172Y-102523947D01*
X248581731Y-102525000D01*
X248069231Y-102525000D01*
X248047790Y-102523947D01*
X248026555Y-102520797D01*
X248005731Y-102515581D01*
X247985519Y-102508349D01*
X247966113Y-102499170D01*
X247947700Y-102488134D01*
X247930457Y-102475346D01*
X247914551Y-102460930D01*
X247900135Y-102445024D01*
X247887347Y-102427781D01*
X247876311Y-102409368D01*
X247867132Y-102389962D01*
X247859900Y-102369750D01*
X247854684Y-102348926D01*
X247851534Y-102327691D01*
X247850481Y-102306250D01*
X247850481Y-101868750D01*
X247851534Y-101847309D01*
X247854684Y-101826074D01*
X247859900Y-101805250D01*
X247867132Y-101785038D01*
X247876311Y-101765632D01*
X247887347Y-101747219D01*
X247900135Y-101729976D01*
X247914551Y-101714070D01*
X247930457Y-101699654D01*
X247947700Y-101686866D01*
X247966113Y-101675830D01*
X247985519Y-101666651D01*
X248005731Y-101659419D01*
X248026555Y-101654203D01*
X248047790Y-101651053D01*
X248069231Y-101650000D01*
X248581731Y-101650000D01*
X248603172Y-101651053D01*
X248603172Y-101651053D01*
G37*
D12*
X248325481Y-102087500D03*
D11*
G36*
X231936472Y-100076053D02*
G01*
X231957707Y-100079203D01*
X231978531Y-100084419D01*
X231998743Y-100091651D01*
X232018149Y-100100830D01*
X232036562Y-100111866D01*
X232053805Y-100124654D01*
X232069711Y-100139070D01*
X232084127Y-100154976D01*
X232096915Y-100172219D01*
X232107951Y-100190632D01*
X232117130Y-100210038D01*
X232124362Y-100230250D01*
X232129578Y-100251074D01*
X232132728Y-100272309D01*
X232133781Y-100293750D01*
X232133781Y-100731250D01*
X232132728Y-100752691D01*
X232129578Y-100773926D01*
X232124362Y-100794750D01*
X232117130Y-100814962D01*
X232107951Y-100834368D01*
X232096915Y-100852781D01*
X232084127Y-100870024D01*
X232069711Y-100885930D01*
X232053805Y-100900346D01*
X232036562Y-100913134D01*
X232018149Y-100924170D01*
X231998743Y-100933349D01*
X231978531Y-100940581D01*
X231957707Y-100945797D01*
X231936472Y-100948947D01*
X231915031Y-100950000D01*
X231402531Y-100950000D01*
X231381090Y-100948947D01*
X231359855Y-100945797D01*
X231339031Y-100940581D01*
X231318819Y-100933349D01*
X231299413Y-100924170D01*
X231281000Y-100913134D01*
X231263757Y-100900346D01*
X231247851Y-100885930D01*
X231233435Y-100870024D01*
X231220647Y-100852781D01*
X231209611Y-100834368D01*
X231200432Y-100814962D01*
X231193200Y-100794750D01*
X231187984Y-100773926D01*
X231184834Y-100752691D01*
X231183781Y-100731250D01*
X231183781Y-100293750D01*
X231184834Y-100272309D01*
X231187984Y-100251074D01*
X231193200Y-100230250D01*
X231200432Y-100210038D01*
X231209611Y-100190632D01*
X231220647Y-100172219D01*
X231233435Y-100154976D01*
X231247851Y-100139070D01*
X231263757Y-100124654D01*
X231281000Y-100111866D01*
X231299413Y-100100830D01*
X231318819Y-100091651D01*
X231339031Y-100084419D01*
X231359855Y-100079203D01*
X231381090Y-100076053D01*
X231402531Y-100075000D01*
X231915031Y-100075000D01*
X231936472Y-100076053D01*
X231936472Y-100076053D01*
G37*
D12*
X231658781Y-100512500D03*
D11*
G36*
X231936472Y-101651053D02*
G01*
X231957707Y-101654203D01*
X231978531Y-101659419D01*
X231998743Y-101666651D01*
X232018149Y-101675830D01*
X232036562Y-101686866D01*
X232053805Y-101699654D01*
X232069711Y-101714070D01*
X232084127Y-101729976D01*
X232096915Y-101747219D01*
X232107951Y-101765632D01*
X232117130Y-101785038D01*
X232124362Y-101805250D01*
X232129578Y-101826074D01*
X232132728Y-101847309D01*
X232133781Y-101868750D01*
X232133781Y-102306250D01*
X232132728Y-102327691D01*
X232129578Y-102348926D01*
X232124362Y-102369750D01*
X232117130Y-102389962D01*
X232107951Y-102409368D01*
X232096915Y-102427781D01*
X232084127Y-102445024D01*
X232069711Y-102460930D01*
X232053805Y-102475346D01*
X232036562Y-102488134D01*
X232018149Y-102499170D01*
X231998743Y-102508349D01*
X231978531Y-102515581D01*
X231957707Y-102520797D01*
X231936472Y-102523947D01*
X231915031Y-102525000D01*
X231402531Y-102525000D01*
X231381090Y-102523947D01*
X231359855Y-102520797D01*
X231339031Y-102515581D01*
X231318819Y-102508349D01*
X231299413Y-102499170D01*
X231281000Y-102488134D01*
X231263757Y-102475346D01*
X231247851Y-102460930D01*
X231233435Y-102445024D01*
X231220647Y-102427781D01*
X231209611Y-102409368D01*
X231200432Y-102389962D01*
X231193200Y-102369750D01*
X231187984Y-102348926D01*
X231184834Y-102327691D01*
X231183781Y-102306250D01*
X231183781Y-101868750D01*
X231184834Y-101847309D01*
X231187984Y-101826074D01*
X231193200Y-101805250D01*
X231200432Y-101785038D01*
X231209611Y-101765632D01*
X231220647Y-101747219D01*
X231233435Y-101729976D01*
X231247851Y-101714070D01*
X231263757Y-101699654D01*
X231281000Y-101686866D01*
X231299413Y-101675830D01*
X231318819Y-101666651D01*
X231339031Y-101659419D01*
X231359855Y-101654203D01*
X231381090Y-101651053D01*
X231402531Y-101650000D01*
X231915031Y-101650000D01*
X231936472Y-101651053D01*
X231936472Y-101651053D01*
G37*
D12*
X231658781Y-102087500D03*
D11*
G36*
X215269772Y-100076053D02*
G01*
X215291007Y-100079203D01*
X215311831Y-100084419D01*
X215332043Y-100091651D01*
X215351449Y-100100830D01*
X215369862Y-100111866D01*
X215387105Y-100124654D01*
X215403011Y-100139070D01*
X215417427Y-100154976D01*
X215430215Y-100172219D01*
X215441251Y-100190632D01*
X215450430Y-100210038D01*
X215457662Y-100230250D01*
X215462878Y-100251074D01*
X215466028Y-100272309D01*
X215467081Y-100293750D01*
X215467081Y-100731250D01*
X215466028Y-100752691D01*
X215462878Y-100773926D01*
X215457662Y-100794750D01*
X215450430Y-100814962D01*
X215441251Y-100834368D01*
X215430215Y-100852781D01*
X215417427Y-100870024D01*
X215403011Y-100885930D01*
X215387105Y-100900346D01*
X215369862Y-100913134D01*
X215351449Y-100924170D01*
X215332043Y-100933349D01*
X215311831Y-100940581D01*
X215291007Y-100945797D01*
X215269772Y-100948947D01*
X215248331Y-100950000D01*
X214735831Y-100950000D01*
X214714390Y-100948947D01*
X214693155Y-100945797D01*
X214672331Y-100940581D01*
X214652119Y-100933349D01*
X214632713Y-100924170D01*
X214614300Y-100913134D01*
X214597057Y-100900346D01*
X214581151Y-100885930D01*
X214566735Y-100870024D01*
X214553947Y-100852781D01*
X214542911Y-100834368D01*
X214533732Y-100814962D01*
X214526500Y-100794750D01*
X214521284Y-100773926D01*
X214518134Y-100752691D01*
X214517081Y-100731250D01*
X214517081Y-100293750D01*
X214518134Y-100272309D01*
X214521284Y-100251074D01*
X214526500Y-100230250D01*
X214533732Y-100210038D01*
X214542911Y-100190632D01*
X214553947Y-100172219D01*
X214566735Y-100154976D01*
X214581151Y-100139070D01*
X214597057Y-100124654D01*
X214614300Y-100111866D01*
X214632713Y-100100830D01*
X214652119Y-100091651D01*
X214672331Y-100084419D01*
X214693155Y-100079203D01*
X214714390Y-100076053D01*
X214735831Y-100075000D01*
X215248331Y-100075000D01*
X215269772Y-100076053D01*
X215269772Y-100076053D01*
G37*
D12*
X214992081Y-100512500D03*
D11*
G36*
X215269772Y-101651053D02*
G01*
X215291007Y-101654203D01*
X215311831Y-101659419D01*
X215332043Y-101666651D01*
X215351449Y-101675830D01*
X215369862Y-101686866D01*
X215387105Y-101699654D01*
X215403011Y-101714070D01*
X215417427Y-101729976D01*
X215430215Y-101747219D01*
X215441251Y-101765632D01*
X215450430Y-101785038D01*
X215457662Y-101805250D01*
X215462878Y-101826074D01*
X215466028Y-101847309D01*
X215467081Y-101868750D01*
X215467081Y-102306250D01*
X215466028Y-102327691D01*
X215462878Y-102348926D01*
X215457662Y-102369750D01*
X215450430Y-102389962D01*
X215441251Y-102409368D01*
X215430215Y-102427781D01*
X215417427Y-102445024D01*
X215403011Y-102460930D01*
X215387105Y-102475346D01*
X215369862Y-102488134D01*
X215351449Y-102499170D01*
X215332043Y-102508349D01*
X215311831Y-102515581D01*
X215291007Y-102520797D01*
X215269772Y-102523947D01*
X215248331Y-102525000D01*
X214735831Y-102525000D01*
X214714390Y-102523947D01*
X214693155Y-102520797D01*
X214672331Y-102515581D01*
X214652119Y-102508349D01*
X214632713Y-102499170D01*
X214614300Y-102488134D01*
X214597057Y-102475346D01*
X214581151Y-102460930D01*
X214566735Y-102445024D01*
X214553947Y-102427781D01*
X214542911Y-102409368D01*
X214533732Y-102389962D01*
X214526500Y-102369750D01*
X214521284Y-102348926D01*
X214518134Y-102327691D01*
X214517081Y-102306250D01*
X214517081Y-101868750D01*
X214518134Y-101847309D01*
X214521284Y-101826074D01*
X214526500Y-101805250D01*
X214533732Y-101785038D01*
X214542911Y-101765632D01*
X214553947Y-101747219D01*
X214566735Y-101729976D01*
X214581151Y-101714070D01*
X214597057Y-101699654D01*
X214614300Y-101686866D01*
X214632713Y-101675830D01*
X214652119Y-101666651D01*
X214672331Y-101659419D01*
X214693155Y-101654203D01*
X214714390Y-101651053D01*
X214735831Y-101650000D01*
X215248331Y-101650000D01*
X215269772Y-101651053D01*
X215269772Y-101651053D01*
G37*
D12*
X214992081Y-102087500D03*
D11*
G36*
X198603072Y-100076053D02*
G01*
X198624307Y-100079203D01*
X198645131Y-100084419D01*
X198665343Y-100091651D01*
X198684749Y-100100830D01*
X198703162Y-100111866D01*
X198720405Y-100124654D01*
X198736311Y-100139070D01*
X198750727Y-100154976D01*
X198763515Y-100172219D01*
X198774551Y-100190632D01*
X198783730Y-100210038D01*
X198790962Y-100230250D01*
X198796178Y-100251074D01*
X198799328Y-100272309D01*
X198800381Y-100293750D01*
X198800381Y-100731250D01*
X198799328Y-100752691D01*
X198796178Y-100773926D01*
X198790962Y-100794750D01*
X198783730Y-100814962D01*
X198774551Y-100834368D01*
X198763515Y-100852781D01*
X198750727Y-100870024D01*
X198736311Y-100885930D01*
X198720405Y-100900346D01*
X198703162Y-100913134D01*
X198684749Y-100924170D01*
X198665343Y-100933349D01*
X198645131Y-100940581D01*
X198624307Y-100945797D01*
X198603072Y-100948947D01*
X198581631Y-100950000D01*
X198069131Y-100950000D01*
X198047690Y-100948947D01*
X198026455Y-100945797D01*
X198005631Y-100940581D01*
X197985419Y-100933349D01*
X197966013Y-100924170D01*
X197947600Y-100913134D01*
X197930357Y-100900346D01*
X197914451Y-100885930D01*
X197900035Y-100870024D01*
X197887247Y-100852781D01*
X197876211Y-100834368D01*
X197867032Y-100814962D01*
X197859800Y-100794750D01*
X197854584Y-100773926D01*
X197851434Y-100752691D01*
X197850381Y-100731250D01*
X197850381Y-100293750D01*
X197851434Y-100272309D01*
X197854584Y-100251074D01*
X197859800Y-100230250D01*
X197867032Y-100210038D01*
X197876211Y-100190632D01*
X197887247Y-100172219D01*
X197900035Y-100154976D01*
X197914451Y-100139070D01*
X197930357Y-100124654D01*
X197947600Y-100111866D01*
X197966013Y-100100830D01*
X197985419Y-100091651D01*
X198005631Y-100084419D01*
X198026455Y-100079203D01*
X198047690Y-100076053D01*
X198069131Y-100075000D01*
X198581631Y-100075000D01*
X198603072Y-100076053D01*
X198603072Y-100076053D01*
G37*
D12*
X198325381Y-100512500D03*
D11*
G36*
X198603072Y-101651053D02*
G01*
X198624307Y-101654203D01*
X198645131Y-101659419D01*
X198665343Y-101666651D01*
X198684749Y-101675830D01*
X198703162Y-101686866D01*
X198720405Y-101699654D01*
X198736311Y-101714070D01*
X198750727Y-101729976D01*
X198763515Y-101747219D01*
X198774551Y-101765632D01*
X198783730Y-101785038D01*
X198790962Y-101805250D01*
X198796178Y-101826074D01*
X198799328Y-101847309D01*
X198800381Y-101868750D01*
X198800381Y-102306250D01*
X198799328Y-102327691D01*
X198796178Y-102348926D01*
X198790962Y-102369750D01*
X198783730Y-102389962D01*
X198774551Y-102409368D01*
X198763515Y-102427781D01*
X198750727Y-102445024D01*
X198736311Y-102460930D01*
X198720405Y-102475346D01*
X198703162Y-102488134D01*
X198684749Y-102499170D01*
X198665343Y-102508349D01*
X198645131Y-102515581D01*
X198624307Y-102520797D01*
X198603072Y-102523947D01*
X198581631Y-102525000D01*
X198069131Y-102525000D01*
X198047690Y-102523947D01*
X198026455Y-102520797D01*
X198005631Y-102515581D01*
X197985419Y-102508349D01*
X197966013Y-102499170D01*
X197947600Y-102488134D01*
X197930357Y-102475346D01*
X197914451Y-102460930D01*
X197900035Y-102445024D01*
X197887247Y-102427781D01*
X197876211Y-102409368D01*
X197867032Y-102389962D01*
X197859800Y-102369750D01*
X197854584Y-102348926D01*
X197851434Y-102327691D01*
X197850381Y-102306250D01*
X197850381Y-101868750D01*
X197851434Y-101847309D01*
X197854584Y-101826074D01*
X197859800Y-101805250D01*
X197867032Y-101785038D01*
X197876211Y-101765632D01*
X197887247Y-101747219D01*
X197900035Y-101729976D01*
X197914451Y-101714070D01*
X197930357Y-101699654D01*
X197947600Y-101686866D01*
X197966013Y-101675830D01*
X197985419Y-101666651D01*
X198005631Y-101659419D01*
X198026455Y-101654203D01*
X198047690Y-101651053D01*
X198069131Y-101650000D01*
X198581631Y-101650000D01*
X198603072Y-101651053D01*
X198603072Y-101651053D01*
G37*
D12*
X198325381Y-102087500D03*
D11*
G36*
X181936372Y-100076053D02*
G01*
X181957607Y-100079203D01*
X181978431Y-100084419D01*
X181998643Y-100091651D01*
X182018049Y-100100830D01*
X182036462Y-100111866D01*
X182053705Y-100124654D01*
X182069611Y-100139070D01*
X182084027Y-100154976D01*
X182096815Y-100172219D01*
X182107851Y-100190632D01*
X182117030Y-100210038D01*
X182124262Y-100230250D01*
X182129478Y-100251074D01*
X182132628Y-100272309D01*
X182133681Y-100293750D01*
X182133681Y-100731250D01*
X182132628Y-100752691D01*
X182129478Y-100773926D01*
X182124262Y-100794750D01*
X182117030Y-100814962D01*
X182107851Y-100834368D01*
X182096815Y-100852781D01*
X182084027Y-100870024D01*
X182069611Y-100885930D01*
X182053705Y-100900346D01*
X182036462Y-100913134D01*
X182018049Y-100924170D01*
X181998643Y-100933349D01*
X181978431Y-100940581D01*
X181957607Y-100945797D01*
X181936372Y-100948947D01*
X181914931Y-100950000D01*
X181402431Y-100950000D01*
X181380990Y-100948947D01*
X181359755Y-100945797D01*
X181338931Y-100940581D01*
X181318719Y-100933349D01*
X181299313Y-100924170D01*
X181280900Y-100913134D01*
X181263657Y-100900346D01*
X181247751Y-100885930D01*
X181233335Y-100870024D01*
X181220547Y-100852781D01*
X181209511Y-100834368D01*
X181200332Y-100814962D01*
X181193100Y-100794750D01*
X181187884Y-100773926D01*
X181184734Y-100752691D01*
X181183681Y-100731250D01*
X181183681Y-100293750D01*
X181184734Y-100272309D01*
X181187884Y-100251074D01*
X181193100Y-100230250D01*
X181200332Y-100210038D01*
X181209511Y-100190632D01*
X181220547Y-100172219D01*
X181233335Y-100154976D01*
X181247751Y-100139070D01*
X181263657Y-100124654D01*
X181280900Y-100111866D01*
X181299313Y-100100830D01*
X181318719Y-100091651D01*
X181338931Y-100084419D01*
X181359755Y-100079203D01*
X181380990Y-100076053D01*
X181402431Y-100075000D01*
X181914931Y-100075000D01*
X181936372Y-100076053D01*
X181936372Y-100076053D01*
G37*
D12*
X181658681Y-100512500D03*
D11*
G36*
X181936372Y-101651053D02*
G01*
X181957607Y-101654203D01*
X181978431Y-101659419D01*
X181998643Y-101666651D01*
X182018049Y-101675830D01*
X182036462Y-101686866D01*
X182053705Y-101699654D01*
X182069611Y-101714070D01*
X182084027Y-101729976D01*
X182096815Y-101747219D01*
X182107851Y-101765632D01*
X182117030Y-101785038D01*
X182124262Y-101805250D01*
X182129478Y-101826074D01*
X182132628Y-101847309D01*
X182133681Y-101868750D01*
X182133681Y-102306250D01*
X182132628Y-102327691D01*
X182129478Y-102348926D01*
X182124262Y-102369750D01*
X182117030Y-102389962D01*
X182107851Y-102409368D01*
X182096815Y-102427781D01*
X182084027Y-102445024D01*
X182069611Y-102460930D01*
X182053705Y-102475346D01*
X182036462Y-102488134D01*
X182018049Y-102499170D01*
X181998643Y-102508349D01*
X181978431Y-102515581D01*
X181957607Y-102520797D01*
X181936372Y-102523947D01*
X181914931Y-102525000D01*
X181402431Y-102525000D01*
X181380990Y-102523947D01*
X181359755Y-102520797D01*
X181338931Y-102515581D01*
X181318719Y-102508349D01*
X181299313Y-102499170D01*
X181280900Y-102488134D01*
X181263657Y-102475346D01*
X181247751Y-102460930D01*
X181233335Y-102445024D01*
X181220547Y-102427781D01*
X181209511Y-102409368D01*
X181200332Y-102389962D01*
X181193100Y-102369750D01*
X181187884Y-102348926D01*
X181184734Y-102327691D01*
X181183681Y-102306250D01*
X181183681Y-101868750D01*
X181184734Y-101847309D01*
X181187884Y-101826074D01*
X181193100Y-101805250D01*
X181200332Y-101785038D01*
X181209511Y-101765632D01*
X181220547Y-101747219D01*
X181233335Y-101729976D01*
X181247751Y-101714070D01*
X181263657Y-101699654D01*
X181280900Y-101686866D01*
X181299313Y-101675830D01*
X181318719Y-101666651D01*
X181338931Y-101659419D01*
X181359755Y-101654203D01*
X181380990Y-101651053D01*
X181402431Y-101650000D01*
X181914931Y-101650000D01*
X181936372Y-101651053D01*
X181936372Y-101651053D01*
G37*
D12*
X181658681Y-102087500D03*
D11*
G36*
X165269672Y-100076053D02*
G01*
X165290907Y-100079203D01*
X165311731Y-100084419D01*
X165331943Y-100091651D01*
X165351349Y-100100830D01*
X165369762Y-100111866D01*
X165387005Y-100124654D01*
X165402911Y-100139070D01*
X165417327Y-100154976D01*
X165430115Y-100172219D01*
X165441151Y-100190632D01*
X165450330Y-100210038D01*
X165457562Y-100230250D01*
X165462778Y-100251074D01*
X165465928Y-100272309D01*
X165466981Y-100293750D01*
X165466981Y-100731250D01*
X165465928Y-100752691D01*
X165462778Y-100773926D01*
X165457562Y-100794750D01*
X165450330Y-100814962D01*
X165441151Y-100834368D01*
X165430115Y-100852781D01*
X165417327Y-100870024D01*
X165402911Y-100885930D01*
X165387005Y-100900346D01*
X165369762Y-100913134D01*
X165351349Y-100924170D01*
X165331943Y-100933349D01*
X165311731Y-100940581D01*
X165290907Y-100945797D01*
X165269672Y-100948947D01*
X165248231Y-100950000D01*
X164735731Y-100950000D01*
X164714290Y-100948947D01*
X164693055Y-100945797D01*
X164672231Y-100940581D01*
X164652019Y-100933349D01*
X164632613Y-100924170D01*
X164614200Y-100913134D01*
X164596957Y-100900346D01*
X164581051Y-100885930D01*
X164566635Y-100870024D01*
X164553847Y-100852781D01*
X164542811Y-100834368D01*
X164533632Y-100814962D01*
X164526400Y-100794750D01*
X164521184Y-100773926D01*
X164518034Y-100752691D01*
X164516981Y-100731250D01*
X164516981Y-100293750D01*
X164518034Y-100272309D01*
X164521184Y-100251074D01*
X164526400Y-100230250D01*
X164533632Y-100210038D01*
X164542811Y-100190632D01*
X164553847Y-100172219D01*
X164566635Y-100154976D01*
X164581051Y-100139070D01*
X164596957Y-100124654D01*
X164614200Y-100111866D01*
X164632613Y-100100830D01*
X164652019Y-100091651D01*
X164672231Y-100084419D01*
X164693055Y-100079203D01*
X164714290Y-100076053D01*
X164735731Y-100075000D01*
X165248231Y-100075000D01*
X165269672Y-100076053D01*
X165269672Y-100076053D01*
G37*
D12*
X164991981Y-100512500D03*
D11*
G36*
X165269672Y-101651053D02*
G01*
X165290907Y-101654203D01*
X165311731Y-101659419D01*
X165331943Y-101666651D01*
X165351349Y-101675830D01*
X165369762Y-101686866D01*
X165387005Y-101699654D01*
X165402911Y-101714070D01*
X165417327Y-101729976D01*
X165430115Y-101747219D01*
X165441151Y-101765632D01*
X165450330Y-101785038D01*
X165457562Y-101805250D01*
X165462778Y-101826074D01*
X165465928Y-101847309D01*
X165466981Y-101868750D01*
X165466981Y-102306250D01*
X165465928Y-102327691D01*
X165462778Y-102348926D01*
X165457562Y-102369750D01*
X165450330Y-102389962D01*
X165441151Y-102409368D01*
X165430115Y-102427781D01*
X165417327Y-102445024D01*
X165402911Y-102460930D01*
X165387005Y-102475346D01*
X165369762Y-102488134D01*
X165351349Y-102499170D01*
X165331943Y-102508349D01*
X165311731Y-102515581D01*
X165290907Y-102520797D01*
X165269672Y-102523947D01*
X165248231Y-102525000D01*
X164735731Y-102525000D01*
X164714290Y-102523947D01*
X164693055Y-102520797D01*
X164672231Y-102515581D01*
X164652019Y-102508349D01*
X164632613Y-102499170D01*
X164614200Y-102488134D01*
X164596957Y-102475346D01*
X164581051Y-102460930D01*
X164566635Y-102445024D01*
X164553847Y-102427781D01*
X164542811Y-102409368D01*
X164533632Y-102389962D01*
X164526400Y-102369750D01*
X164521184Y-102348926D01*
X164518034Y-102327691D01*
X164516981Y-102306250D01*
X164516981Y-101868750D01*
X164518034Y-101847309D01*
X164521184Y-101826074D01*
X164526400Y-101805250D01*
X164533632Y-101785038D01*
X164542811Y-101765632D01*
X164553847Y-101747219D01*
X164566635Y-101729976D01*
X164581051Y-101714070D01*
X164596957Y-101699654D01*
X164614200Y-101686866D01*
X164632613Y-101675830D01*
X164652019Y-101666651D01*
X164672231Y-101659419D01*
X164693055Y-101654203D01*
X164714290Y-101651053D01*
X164735731Y-101650000D01*
X165248231Y-101650000D01*
X165269672Y-101651053D01*
X165269672Y-101651053D01*
G37*
D12*
X164991981Y-102087500D03*
D11*
G36*
X148602972Y-100076053D02*
G01*
X148624207Y-100079203D01*
X148645031Y-100084419D01*
X148665243Y-100091651D01*
X148684649Y-100100830D01*
X148703062Y-100111866D01*
X148720305Y-100124654D01*
X148736211Y-100139070D01*
X148750627Y-100154976D01*
X148763415Y-100172219D01*
X148774451Y-100190632D01*
X148783630Y-100210038D01*
X148790862Y-100230250D01*
X148796078Y-100251074D01*
X148799228Y-100272309D01*
X148800281Y-100293750D01*
X148800281Y-100731250D01*
X148799228Y-100752691D01*
X148796078Y-100773926D01*
X148790862Y-100794750D01*
X148783630Y-100814962D01*
X148774451Y-100834368D01*
X148763415Y-100852781D01*
X148750627Y-100870024D01*
X148736211Y-100885930D01*
X148720305Y-100900346D01*
X148703062Y-100913134D01*
X148684649Y-100924170D01*
X148665243Y-100933349D01*
X148645031Y-100940581D01*
X148624207Y-100945797D01*
X148602972Y-100948947D01*
X148581531Y-100950000D01*
X148069031Y-100950000D01*
X148047590Y-100948947D01*
X148026355Y-100945797D01*
X148005531Y-100940581D01*
X147985319Y-100933349D01*
X147965913Y-100924170D01*
X147947500Y-100913134D01*
X147930257Y-100900346D01*
X147914351Y-100885930D01*
X147899935Y-100870024D01*
X147887147Y-100852781D01*
X147876111Y-100834368D01*
X147866932Y-100814962D01*
X147859700Y-100794750D01*
X147854484Y-100773926D01*
X147851334Y-100752691D01*
X147850281Y-100731250D01*
X147850281Y-100293750D01*
X147851334Y-100272309D01*
X147854484Y-100251074D01*
X147859700Y-100230250D01*
X147866932Y-100210038D01*
X147876111Y-100190632D01*
X147887147Y-100172219D01*
X147899935Y-100154976D01*
X147914351Y-100139070D01*
X147930257Y-100124654D01*
X147947500Y-100111866D01*
X147965913Y-100100830D01*
X147985319Y-100091651D01*
X148005531Y-100084419D01*
X148026355Y-100079203D01*
X148047590Y-100076053D01*
X148069031Y-100075000D01*
X148581531Y-100075000D01*
X148602972Y-100076053D01*
X148602972Y-100076053D01*
G37*
D12*
X148325281Y-100512500D03*
D11*
G36*
X148602972Y-101651053D02*
G01*
X148624207Y-101654203D01*
X148645031Y-101659419D01*
X148665243Y-101666651D01*
X148684649Y-101675830D01*
X148703062Y-101686866D01*
X148720305Y-101699654D01*
X148736211Y-101714070D01*
X148750627Y-101729976D01*
X148763415Y-101747219D01*
X148774451Y-101765632D01*
X148783630Y-101785038D01*
X148790862Y-101805250D01*
X148796078Y-101826074D01*
X148799228Y-101847309D01*
X148800281Y-101868750D01*
X148800281Y-102306250D01*
X148799228Y-102327691D01*
X148796078Y-102348926D01*
X148790862Y-102369750D01*
X148783630Y-102389962D01*
X148774451Y-102409368D01*
X148763415Y-102427781D01*
X148750627Y-102445024D01*
X148736211Y-102460930D01*
X148720305Y-102475346D01*
X148703062Y-102488134D01*
X148684649Y-102499170D01*
X148665243Y-102508349D01*
X148645031Y-102515581D01*
X148624207Y-102520797D01*
X148602972Y-102523947D01*
X148581531Y-102525000D01*
X148069031Y-102525000D01*
X148047590Y-102523947D01*
X148026355Y-102520797D01*
X148005531Y-102515581D01*
X147985319Y-102508349D01*
X147965913Y-102499170D01*
X147947500Y-102488134D01*
X147930257Y-102475346D01*
X147914351Y-102460930D01*
X147899935Y-102445024D01*
X147887147Y-102427781D01*
X147876111Y-102409368D01*
X147866932Y-102389962D01*
X147859700Y-102369750D01*
X147854484Y-102348926D01*
X147851334Y-102327691D01*
X147850281Y-102306250D01*
X147850281Y-101868750D01*
X147851334Y-101847309D01*
X147854484Y-101826074D01*
X147859700Y-101805250D01*
X147866932Y-101785038D01*
X147876111Y-101765632D01*
X147887147Y-101747219D01*
X147899935Y-101729976D01*
X147914351Y-101714070D01*
X147930257Y-101699654D01*
X147947500Y-101686866D01*
X147965913Y-101675830D01*
X147985319Y-101666651D01*
X148005531Y-101659419D01*
X148026355Y-101654203D01*
X148047590Y-101651053D01*
X148069031Y-101650000D01*
X148581531Y-101650000D01*
X148602972Y-101651053D01*
X148602972Y-101651053D01*
G37*
D12*
X148325281Y-102087500D03*
D11*
G36*
X131936272Y-100076053D02*
G01*
X131957507Y-100079203D01*
X131978331Y-100084419D01*
X131998543Y-100091651D01*
X132017949Y-100100830D01*
X132036362Y-100111866D01*
X132053605Y-100124654D01*
X132069511Y-100139070D01*
X132083927Y-100154976D01*
X132096715Y-100172219D01*
X132107751Y-100190632D01*
X132116930Y-100210038D01*
X132124162Y-100230250D01*
X132129378Y-100251074D01*
X132132528Y-100272309D01*
X132133581Y-100293750D01*
X132133581Y-100731250D01*
X132132528Y-100752691D01*
X132129378Y-100773926D01*
X132124162Y-100794750D01*
X132116930Y-100814962D01*
X132107751Y-100834368D01*
X132096715Y-100852781D01*
X132083927Y-100870024D01*
X132069511Y-100885930D01*
X132053605Y-100900346D01*
X132036362Y-100913134D01*
X132017949Y-100924170D01*
X131998543Y-100933349D01*
X131978331Y-100940581D01*
X131957507Y-100945797D01*
X131936272Y-100948947D01*
X131914831Y-100950000D01*
X131402331Y-100950000D01*
X131380890Y-100948947D01*
X131359655Y-100945797D01*
X131338831Y-100940581D01*
X131318619Y-100933349D01*
X131299213Y-100924170D01*
X131280800Y-100913134D01*
X131263557Y-100900346D01*
X131247651Y-100885930D01*
X131233235Y-100870024D01*
X131220447Y-100852781D01*
X131209411Y-100834368D01*
X131200232Y-100814962D01*
X131193000Y-100794750D01*
X131187784Y-100773926D01*
X131184634Y-100752691D01*
X131183581Y-100731250D01*
X131183581Y-100293750D01*
X131184634Y-100272309D01*
X131187784Y-100251074D01*
X131193000Y-100230250D01*
X131200232Y-100210038D01*
X131209411Y-100190632D01*
X131220447Y-100172219D01*
X131233235Y-100154976D01*
X131247651Y-100139070D01*
X131263557Y-100124654D01*
X131280800Y-100111866D01*
X131299213Y-100100830D01*
X131318619Y-100091651D01*
X131338831Y-100084419D01*
X131359655Y-100079203D01*
X131380890Y-100076053D01*
X131402331Y-100075000D01*
X131914831Y-100075000D01*
X131936272Y-100076053D01*
X131936272Y-100076053D01*
G37*
D12*
X131658581Y-100512500D03*
D11*
G36*
X131936272Y-101651053D02*
G01*
X131957507Y-101654203D01*
X131978331Y-101659419D01*
X131998543Y-101666651D01*
X132017949Y-101675830D01*
X132036362Y-101686866D01*
X132053605Y-101699654D01*
X132069511Y-101714070D01*
X132083927Y-101729976D01*
X132096715Y-101747219D01*
X132107751Y-101765632D01*
X132116930Y-101785038D01*
X132124162Y-101805250D01*
X132129378Y-101826074D01*
X132132528Y-101847309D01*
X132133581Y-101868750D01*
X132133581Y-102306250D01*
X132132528Y-102327691D01*
X132129378Y-102348926D01*
X132124162Y-102369750D01*
X132116930Y-102389962D01*
X132107751Y-102409368D01*
X132096715Y-102427781D01*
X132083927Y-102445024D01*
X132069511Y-102460930D01*
X132053605Y-102475346D01*
X132036362Y-102488134D01*
X132017949Y-102499170D01*
X131998543Y-102508349D01*
X131978331Y-102515581D01*
X131957507Y-102520797D01*
X131936272Y-102523947D01*
X131914831Y-102525000D01*
X131402331Y-102525000D01*
X131380890Y-102523947D01*
X131359655Y-102520797D01*
X131338831Y-102515581D01*
X131318619Y-102508349D01*
X131299213Y-102499170D01*
X131280800Y-102488134D01*
X131263557Y-102475346D01*
X131247651Y-102460930D01*
X131233235Y-102445024D01*
X131220447Y-102427781D01*
X131209411Y-102409368D01*
X131200232Y-102389962D01*
X131193000Y-102369750D01*
X131187784Y-102348926D01*
X131184634Y-102327691D01*
X131183581Y-102306250D01*
X131183581Y-101868750D01*
X131184634Y-101847309D01*
X131187784Y-101826074D01*
X131193000Y-101805250D01*
X131200232Y-101785038D01*
X131209411Y-101765632D01*
X131220447Y-101747219D01*
X131233235Y-101729976D01*
X131247651Y-101714070D01*
X131263557Y-101699654D01*
X131280800Y-101686866D01*
X131299213Y-101675830D01*
X131318619Y-101666651D01*
X131338831Y-101659419D01*
X131359655Y-101654203D01*
X131380890Y-101651053D01*
X131402331Y-101650000D01*
X131914831Y-101650000D01*
X131936272Y-101651053D01*
X131936272Y-101651053D01*
G37*
D12*
X131658581Y-102087500D03*
D11*
G36*
X115269572Y-100076053D02*
G01*
X115290807Y-100079203D01*
X115311631Y-100084419D01*
X115331843Y-100091651D01*
X115351249Y-100100830D01*
X115369662Y-100111866D01*
X115386905Y-100124654D01*
X115402811Y-100139070D01*
X115417227Y-100154976D01*
X115430015Y-100172219D01*
X115441051Y-100190632D01*
X115450230Y-100210038D01*
X115457462Y-100230250D01*
X115462678Y-100251074D01*
X115465828Y-100272309D01*
X115466881Y-100293750D01*
X115466881Y-100731250D01*
X115465828Y-100752691D01*
X115462678Y-100773926D01*
X115457462Y-100794750D01*
X115450230Y-100814962D01*
X115441051Y-100834368D01*
X115430015Y-100852781D01*
X115417227Y-100870024D01*
X115402811Y-100885930D01*
X115386905Y-100900346D01*
X115369662Y-100913134D01*
X115351249Y-100924170D01*
X115331843Y-100933349D01*
X115311631Y-100940581D01*
X115290807Y-100945797D01*
X115269572Y-100948947D01*
X115248131Y-100950000D01*
X114735631Y-100950000D01*
X114714190Y-100948947D01*
X114692955Y-100945797D01*
X114672131Y-100940581D01*
X114651919Y-100933349D01*
X114632513Y-100924170D01*
X114614100Y-100913134D01*
X114596857Y-100900346D01*
X114580951Y-100885930D01*
X114566535Y-100870024D01*
X114553747Y-100852781D01*
X114542711Y-100834368D01*
X114533532Y-100814962D01*
X114526300Y-100794750D01*
X114521084Y-100773926D01*
X114517934Y-100752691D01*
X114516881Y-100731250D01*
X114516881Y-100293750D01*
X114517934Y-100272309D01*
X114521084Y-100251074D01*
X114526300Y-100230250D01*
X114533532Y-100210038D01*
X114542711Y-100190632D01*
X114553747Y-100172219D01*
X114566535Y-100154976D01*
X114580951Y-100139070D01*
X114596857Y-100124654D01*
X114614100Y-100111866D01*
X114632513Y-100100830D01*
X114651919Y-100091651D01*
X114672131Y-100084419D01*
X114692955Y-100079203D01*
X114714190Y-100076053D01*
X114735631Y-100075000D01*
X115248131Y-100075000D01*
X115269572Y-100076053D01*
X115269572Y-100076053D01*
G37*
D12*
X114991881Y-100512500D03*
D11*
G36*
X115269572Y-101651053D02*
G01*
X115290807Y-101654203D01*
X115311631Y-101659419D01*
X115331843Y-101666651D01*
X115351249Y-101675830D01*
X115369662Y-101686866D01*
X115386905Y-101699654D01*
X115402811Y-101714070D01*
X115417227Y-101729976D01*
X115430015Y-101747219D01*
X115441051Y-101765632D01*
X115450230Y-101785038D01*
X115457462Y-101805250D01*
X115462678Y-101826074D01*
X115465828Y-101847309D01*
X115466881Y-101868750D01*
X115466881Y-102306250D01*
X115465828Y-102327691D01*
X115462678Y-102348926D01*
X115457462Y-102369750D01*
X115450230Y-102389962D01*
X115441051Y-102409368D01*
X115430015Y-102427781D01*
X115417227Y-102445024D01*
X115402811Y-102460930D01*
X115386905Y-102475346D01*
X115369662Y-102488134D01*
X115351249Y-102499170D01*
X115331843Y-102508349D01*
X115311631Y-102515581D01*
X115290807Y-102520797D01*
X115269572Y-102523947D01*
X115248131Y-102525000D01*
X114735631Y-102525000D01*
X114714190Y-102523947D01*
X114692955Y-102520797D01*
X114672131Y-102515581D01*
X114651919Y-102508349D01*
X114632513Y-102499170D01*
X114614100Y-102488134D01*
X114596857Y-102475346D01*
X114580951Y-102460930D01*
X114566535Y-102445024D01*
X114553747Y-102427781D01*
X114542711Y-102409368D01*
X114533532Y-102389962D01*
X114526300Y-102369750D01*
X114521084Y-102348926D01*
X114517934Y-102327691D01*
X114516881Y-102306250D01*
X114516881Y-101868750D01*
X114517934Y-101847309D01*
X114521084Y-101826074D01*
X114526300Y-101805250D01*
X114533532Y-101785038D01*
X114542711Y-101765632D01*
X114553747Y-101747219D01*
X114566535Y-101729976D01*
X114580951Y-101714070D01*
X114596857Y-101699654D01*
X114614100Y-101686866D01*
X114632513Y-101675830D01*
X114651919Y-101666651D01*
X114672131Y-101659419D01*
X114692955Y-101654203D01*
X114714190Y-101651053D01*
X114735631Y-101650000D01*
X115248131Y-101650000D01*
X115269572Y-101651053D01*
X115269572Y-101651053D01*
G37*
D12*
X114991881Y-102087500D03*
D11*
G36*
X98602872Y-100076053D02*
G01*
X98624107Y-100079203D01*
X98644931Y-100084419D01*
X98665143Y-100091651D01*
X98684549Y-100100830D01*
X98702962Y-100111866D01*
X98720205Y-100124654D01*
X98736111Y-100139070D01*
X98750527Y-100154976D01*
X98763315Y-100172219D01*
X98774351Y-100190632D01*
X98783530Y-100210038D01*
X98790762Y-100230250D01*
X98795978Y-100251074D01*
X98799128Y-100272309D01*
X98800181Y-100293750D01*
X98800181Y-100731250D01*
X98799128Y-100752691D01*
X98795978Y-100773926D01*
X98790762Y-100794750D01*
X98783530Y-100814962D01*
X98774351Y-100834368D01*
X98763315Y-100852781D01*
X98750527Y-100870024D01*
X98736111Y-100885930D01*
X98720205Y-100900346D01*
X98702962Y-100913134D01*
X98684549Y-100924170D01*
X98665143Y-100933349D01*
X98644931Y-100940581D01*
X98624107Y-100945797D01*
X98602872Y-100948947D01*
X98581431Y-100950000D01*
X98068931Y-100950000D01*
X98047490Y-100948947D01*
X98026255Y-100945797D01*
X98005431Y-100940581D01*
X97985219Y-100933349D01*
X97965813Y-100924170D01*
X97947400Y-100913134D01*
X97930157Y-100900346D01*
X97914251Y-100885930D01*
X97899835Y-100870024D01*
X97887047Y-100852781D01*
X97876011Y-100834368D01*
X97866832Y-100814962D01*
X97859600Y-100794750D01*
X97854384Y-100773926D01*
X97851234Y-100752691D01*
X97850181Y-100731250D01*
X97850181Y-100293750D01*
X97851234Y-100272309D01*
X97854384Y-100251074D01*
X97859600Y-100230250D01*
X97866832Y-100210038D01*
X97876011Y-100190632D01*
X97887047Y-100172219D01*
X97899835Y-100154976D01*
X97914251Y-100139070D01*
X97930157Y-100124654D01*
X97947400Y-100111866D01*
X97965813Y-100100830D01*
X97985219Y-100091651D01*
X98005431Y-100084419D01*
X98026255Y-100079203D01*
X98047490Y-100076053D01*
X98068931Y-100075000D01*
X98581431Y-100075000D01*
X98602872Y-100076053D01*
X98602872Y-100076053D01*
G37*
D12*
X98325181Y-100512500D03*
D11*
G36*
X98602872Y-101651053D02*
G01*
X98624107Y-101654203D01*
X98644931Y-101659419D01*
X98665143Y-101666651D01*
X98684549Y-101675830D01*
X98702962Y-101686866D01*
X98720205Y-101699654D01*
X98736111Y-101714070D01*
X98750527Y-101729976D01*
X98763315Y-101747219D01*
X98774351Y-101765632D01*
X98783530Y-101785038D01*
X98790762Y-101805250D01*
X98795978Y-101826074D01*
X98799128Y-101847309D01*
X98800181Y-101868750D01*
X98800181Y-102306250D01*
X98799128Y-102327691D01*
X98795978Y-102348926D01*
X98790762Y-102369750D01*
X98783530Y-102389962D01*
X98774351Y-102409368D01*
X98763315Y-102427781D01*
X98750527Y-102445024D01*
X98736111Y-102460930D01*
X98720205Y-102475346D01*
X98702962Y-102488134D01*
X98684549Y-102499170D01*
X98665143Y-102508349D01*
X98644931Y-102515581D01*
X98624107Y-102520797D01*
X98602872Y-102523947D01*
X98581431Y-102525000D01*
X98068931Y-102525000D01*
X98047490Y-102523947D01*
X98026255Y-102520797D01*
X98005431Y-102515581D01*
X97985219Y-102508349D01*
X97965813Y-102499170D01*
X97947400Y-102488134D01*
X97930157Y-102475346D01*
X97914251Y-102460930D01*
X97899835Y-102445024D01*
X97887047Y-102427781D01*
X97876011Y-102409368D01*
X97866832Y-102389962D01*
X97859600Y-102369750D01*
X97854384Y-102348926D01*
X97851234Y-102327691D01*
X97850181Y-102306250D01*
X97850181Y-101868750D01*
X97851234Y-101847309D01*
X97854384Y-101826074D01*
X97859600Y-101805250D01*
X97866832Y-101785038D01*
X97876011Y-101765632D01*
X97887047Y-101747219D01*
X97899835Y-101729976D01*
X97914251Y-101714070D01*
X97930157Y-101699654D01*
X97947400Y-101686866D01*
X97965813Y-101675830D01*
X97985219Y-101666651D01*
X98005431Y-101659419D01*
X98026255Y-101654203D01*
X98047490Y-101651053D01*
X98068931Y-101650000D01*
X98581431Y-101650000D01*
X98602872Y-101651053D01*
X98602872Y-101651053D01*
G37*
D12*
X98325181Y-102087500D03*
D11*
G36*
X81936172Y-100076053D02*
G01*
X81957407Y-100079203D01*
X81978231Y-100084419D01*
X81998443Y-100091651D01*
X82017849Y-100100830D01*
X82036262Y-100111866D01*
X82053505Y-100124654D01*
X82069411Y-100139070D01*
X82083827Y-100154976D01*
X82096615Y-100172219D01*
X82107651Y-100190632D01*
X82116830Y-100210038D01*
X82124062Y-100230250D01*
X82129278Y-100251074D01*
X82132428Y-100272309D01*
X82133481Y-100293750D01*
X82133481Y-100731250D01*
X82132428Y-100752691D01*
X82129278Y-100773926D01*
X82124062Y-100794750D01*
X82116830Y-100814962D01*
X82107651Y-100834368D01*
X82096615Y-100852781D01*
X82083827Y-100870024D01*
X82069411Y-100885930D01*
X82053505Y-100900346D01*
X82036262Y-100913134D01*
X82017849Y-100924170D01*
X81998443Y-100933349D01*
X81978231Y-100940581D01*
X81957407Y-100945797D01*
X81936172Y-100948947D01*
X81914731Y-100950000D01*
X81402231Y-100950000D01*
X81380790Y-100948947D01*
X81359555Y-100945797D01*
X81338731Y-100940581D01*
X81318519Y-100933349D01*
X81299113Y-100924170D01*
X81280700Y-100913134D01*
X81263457Y-100900346D01*
X81247551Y-100885930D01*
X81233135Y-100870024D01*
X81220347Y-100852781D01*
X81209311Y-100834368D01*
X81200132Y-100814962D01*
X81192900Y-100794750D01*
X81187684Y-100773926D01*
X81184534Y-100752691D01*
X81183481Y-100731250D01*
X81183481Y-100293750D01*
X81184534Y-100272309D01*
X81187684Y-100251074D01*
X81192900Y-100230250D01*
X81200132Y-100210038D01*
X81209311Y-100190632D01*
X81220347Y-100172219D01*
X81233135Y-100154976D01*
X81247551Y-100139070D01*
X81263457Y-100124654D01*
X81280700Y-100111866D01*
X81299113Y-100100830D01*
X81318519Y-100091651D01*
X81338731Y-100084419D01*
X81359555Y-100079203D01*
X81380790Y-100076053D01*
X81402231Y-100075000D01*
X81914731Y-100075000D01*
X81936172Y-100076053D01*
X81936172Y-100076053D01*
G37*
D12*
X81658481Y-100512500D03*
D11*
G36*
X81936172Y-101651053D02*
G01*
X81957407Y-101654203D01*
X81978231Y-101659419D01*
X81998443Y-101666651D01*
X82017849Y-101675830D01*
X82036262Y-101686866D01*
X82053505Y-101699654D01*
X82069411Y-101714070D01*
X82083827Y-101729976D01*
X82096615Y-101747219D01*
X82107651Y-101765632D01*
X82116830Y-101785038D01*
X82124062Y-101805250D01*
X82129278Y-101826074D01*
X82132428Y-101847309D01*
X82133481Y-101868750D01*
X82133481Y-102306250D01*
X82132428Y-102327691D01*
X82129278Y-102348926D01*
X82124062Y-102369750D01*
X82116830Y-102389962D01*
X82107651Y-102409368D01*
X82096615Y-102427781D01*
X82083827Y-102445024D01*
X82069411Y-102460930D01*
X82053505Y-102475346D01*
X82036262Y-102488134D01*
X82017849Y-102499170D01*
X81998443Y-102508349D01*
X81978231Y-102515581D01*
X81957407Y-102520797D01*
X81936172Y-102523947D01*
X81914731Y-102525000D01*
X81402231Y-102525000D01*
X81380790Y-102523947D01*
X81359555Y-102520797D01*
X81338731Y-102515581D01*
X81318519Y-102508349D01*
X81299113Y-102499170D01*
X81280700Y-102488134D01*
X81263457Y-102475346D01*
X81247551Y-102460930D01*
X81233135Y-102445024D01*
X81220347Y-102427781D01*
X81209311Y-102409368D01*
X81200132Y-102389962D01*
X81192900Y-102369750D01*
X81187684Y-102348926D01*
X81184534Y-102327691D01*
X81183481Y-102306250D01*
X81183481Y-101868750D01*
X81184534Y-101847309D01*
X81187684Y-101826074D01*
X81192900Y-101805250D01*
X81200132Y-101785038D01*
X81209311Y-101765632D01*
X81220347Y-101747219D01*
X81233135Y-101729976D01*
X81247551Y-101714070D01*
X81263457Y-101699654D01*
X81280700Y-101686866D01*
X81299113Y-101675830D01*
X81318519Y-101666651D01*
X81338731Y-101659419D01*
X81359555Y-101654203D01*
X81380790Y-101651053D01*
X81402231Y-101650000D01*
X81914731Y-101650000D01*
X81936172Y-101651053D01*
X81936172Y-101651053D01*
G37*
D12*
X81658481Y-102087500D03*
D10*
X77450150Y-103100000D03*
X77450150Y-101500000D03*
X77450150Y-99900000D03*
X72550150Y-103100000D03*
X72550150Y-101500000D03*
X72550150Y-99900000D03*
X110783550Y-103100000D03*
X110783550Y-101500000D03*
X110783550Y-99900000D03*
X105883550Y-103100000D03*
X105883550Y-101500000D03*
X105883550Y-99900000D03*
X160783650Y-103100000D03*
X160783650Y-101500000D03*
X160783650Y-99900000D03*
X155883650Y-103100000D03*
X155883650Y-101500000D03*
X155883650Y-99900000D03*
X177450350Y-103100000D03*
X177450350Y-101500000D03*
X177450350Y-99900000D03*
X172550350Y-103100000D03*
X172550350Y-101500000D03*
X172550350Y-99900000D03*
X194117050Y-103100000D03*
X194117050Y-101500000D03*
X194117050Y-99900000D03*
X189217050Y-103100000D03*
X189217050Y-101500000D03*
X189217050Y-99900000D03*
X210783750Y-103100000D03*
X210783750Y-101500000D03*
X210783750Y-99900000D03*
X205883750Y-103100000D03*
X205883750Y-101500000D03*
X205883750Y-99900000D03*
X227450450Y-103100000D03*
X227450450Y-101500000D03*
X227450450Y-99900000D03*
X222550450Y-103100000D03*
X222550450Y-101500000D03*
X222550450Y-99900000D03*
X244117150Y-103100000D03*
X244117150Y-101500000D03*
X244117150Y-99900000D03*
X239217150Y-103100000D03*
X239217150Y-101500000D03*
X239217150Y-99900000D03*
X260783850Y-103100000D03*
X260783850Y-101500000D03*
X260783850Y-99900000D03*
X255883850Y-103100000D03*
X255883850Y-101500000D03*
X255883850Y-99900000D03*
X277450550Y-103100000D03*
X277450550Y-101500000D03*
X277450550Y-99900000D03*
X272550550Y-103100000D03*
X272550550Y-101500000D03*
X272550550Y-99900000D03*
X294117250Y-103100000D03*
X294117250Y-101500000D03*
X294117250Y-99900000D03*
X289217250Y-103100000D03*
X289217250Y-101500000D03*
X289217250Y-99900000D03*
M02*
