G04 #@! TF.GenerationSoftware,KiCad,Pcbnew,(5.1.0-0)*
G04 #@! TF.CreationDate,2019-04-22T12:47:30-07:00*
G04 #@! TF.ProjectId,EOutside,454f7574-7369-4646-952e-6b696361645f,rev?*
G04 #@! TF.SameCoordinates,Original*
G04 #@! TF.FileFunction,Paste,Bot*
G04 #@! TF.FilePolarity,Positive*
%FSLAX46Y46*%
G04 Gerber Fmt 4.6, Leading zero omitted, Abs format (unit mm)*
G04 Created by KiCad (PCBNEW (5.1.0-0)) date 2019-04-22 12:47:30*
%MOMM*%
%LPD*%
G04 APERTURE LIST*
%ADD10R,2.000000X2.000000*%
G04 APERTURE END LIST*
D10*
X255333386Y-103750000D03*
X261333386Y-103750000D03*
X258333386Y-103750000D03*
X261333386Y-99250000D03*
X255333386Y-99250000D03*
X258333386Y-99250000D03*
X238666726Y-103750000D03*
X244666726Y-103750000D03*
X241666726Y-103750000D03*
X244666726Y-99250000D03*
X238666726Y-99250000D03*
X241666726Y-99250000D03*
X228000066Y-99250000D03*
X222000066Y-99250000D03*
X225000066Y-99250000D03*
X222000066Y-103750000D03*
X228000066Y-103750000D03*
X225000066Y-103750000D03*
X211333406Y-99250000D03*
X205333406Y-99250000D03*
X208333406Y-99250000D03*
X205333406Y-103750000D03*
X211333406Y-103750000D03*
X208333406Y-103750000D03*
X188666746Y-103750000D03*
X194666746Y-103750000D03*
X191666746Y-103750000D03*
X194666746Y-99250000D03*
X188666746Y-99250000D03*
X191666746Y-99250000D03*
X72000126Y-103500000D03*
X78000126Y-103500000D03*
X75000126Y-103500000D03*
X78000126Y-99000000D03*
X72000126Y-99000000D03*
X75000126Y-99000000D03*
X94666786Y-99250000D03*
X88666786Y-99250000D03*
X91666786Y-99250000D03*
X88666786Y-103750000D03*
X94666786Y-103750000D03*
X91666786Y-103750000D03*
X105333446Y-103750000D03*
X111333446Y-103750000D03*
X108333446Y-103750000D03*
X111333446Y-99250000D03*
X105333446Y-99250000D03*
X108333446Y-99250000D03*
X122000106Y-103500000D03*
X128000106Y-103500000D03*
X125000106Y-103500000D03*
X128000106Y-99000000D03*
X122000106Y-99000000D03*
X125000106Y-99000000D03*
X138666766Y-103750000D03*
X144666766Y-103750000D03*
X141666766Y-103750000D03*
X144666766Y-99250000D03*
X138666766Y-99250000D03*
X141666766Y-99250000D03*
X155333426Y-103500000D03*
X161333426Y-103500000D03*
X158333426Y-103500000D03*
X161333426Y-99000000D03*
X155333426Y-99000000D03*
X158333426Y-99000000D03*
X172000086Y-103750000D03*
X178000086Y-103750000D03*
X175000086Y-103750000D03*
X178000086Y-99250000D03*
X172000086Y-99250000D03*
X175000086Y-99250000D03*
M02*
