G04 #@! TF.GenerationSoftware,KiCad,Pcbnew,(5.1.0-0)*
G04 #@! TF.CreationDate,2019-04-22T12:47:30-07:00*
G04 #@! TF.ProjectId,EOutside,454f7574-7369-4646-952e-6b696361645f,rev?*
G04 #@! TF.SameCoordinates,Original*
G04 #@! TF.FileFunction,Copper,L4,Bot*
G04 #@! TF.FilePolarity,Positive*
%FSLAX46Y46*%
G04 Gerber Fmt 4.6, Leading zero omitted, Abs format (unit mm)*
G04 Created by KiCad (PCBNEW (5.1.0-0)) date 2019-04-22 12:47:30*
%MOMM*%
%LPD*%
G04 APERTURE LIST*
%ADD10R,2.000000X2.000000*%
%ADD11R,2.500000X1.200000*%
%ADD12O,4.000000X1.200000*%
%ADD13C,1.000000*%
%ADD14C,0.300000*%
%ADD15C,1.000000*%
%ADD16C,0.254000*%
G04 APERTURE END LIST*
D10*
X255333386Y-103750000D03*
X261333386Y-103750000D03*
X258333386Y-103750000D03*
X261333386Y-99250000D03*
X255333386Y-99250000D03*
X258333386Y-99250000D03*
X238666726Y-103750000D03*
X244666726Y-103750000D03*
X241666726Y-103750000D03*
X244666726Y-99250000D03*
X238666726Y-99250000D03*
X241666726Y-99250000D03*
X228000066Y-99250000D03*
X222000066Y-99250000D03*
X225000066Y-99250000D03*
X222000066Y-103750000D03*
X228000066Y-103750000D03*
X225000066Y-103750000D03*
X211333406Y-99250000D03*
X205333406Y-99250000D03*
X208333406Y-99250000D03*
X205333406Y-103750000D03*
X211333406Y-103750000D03*
X208333406Y-103750000D03*
X188666746Y-103750000D03*
X194666746Y-103750000D03*
X191666746Y-103750000D03*
X194666746Y-99250000D03*
X188666746Y-99250000D03*
X191666746Y-99250000D03*
X72000126Y-103500000D03*
X78000126Y-103500000D03*
X75000126Y-103500000D03*
X78000126Y-99000000D03*
X72000126Y-99000000D03*
X75000126Y-99000000D03*
X94666786Y-99250000D03*
X88666786Y-99250000D03*
X91666786Y-99250000D03*
X88666786Y-103750000D03*
X94666786Y-103750000D03*
X91666786Y-103750000D03*
X105333446Y-103750000D03*
X111333446Y-103750000D03*
X108333446Y-103750000D03*
X111333446Y-99250000D03*
X105333446Y-99250000D03*
X108333446Y-99250000D03*
X122000106Y-103500000D03*
X128000106Y-103500000D03*
X125000106Y-103500000D03*
X128000106Y-99000000D03*
X122000106Y-99000000D03*
X125000106Y-99000000D03*
X138666766Y-103750000D03*
X144666766Y-103750000D03*
X141666766Y-103750000D03*
X144666766Y-99250000D03*
X138666766Y-99250000D03*
X141666766Y-99250000D03*
X155333426Y-103500000D03*
X161333426Y-103500000D03*
X158333426Y-103500000D03*
X161333426Y-99000000D03*
X155333426Y-99000000D03*
X158333426Y-99000000D03*
X172000086Y-103750000D03*
X178000086Y-103750000D03*
X175000086Y-103750000D03*
X178000086Y-99250000D03*
X172000086Y-99250000D03*
X175000086Y-99250000D03*
D11*
X315167300Y-103700000D03*
X315167300Y-102233332D03*
X315167300Y-100766666D03*
X315167300Y-99300000D03*
D12*
X300000600Y-103700000D03*
X300000600Y-102233332D03*
X300000600Y-100766666D03*
X300000600Y-99300000D03*
X283333900Y-103700000D03*
X283333900Y-102233332D03*
X283333900Y-100766666D03*
X283333900Y-99300000D03*
X266667200Y-103700000D03*
X266667200Y-102233332D03*
X266667200Y-100766666D03*
X266667200Y-99300000D03*
D11*
X68166800Y-103700000D03*
X68166800Y-102233332D03*
X68166800Y-100766666D03*
X68166800Y-99300000D03*
D13*
X240717152Y-101500000D03*
X224050452Y-101500000D03*
X207383752Y-101500000D03*
X190717052Y-101500000D03*
X174050352Y-101500000D03*
X157383652Y-101500000D03*
X140716952Y-101500000D03*
X124050252Y-101500000D03*
X107383552Y-101500000D03*
X90716852Y-101500000D03*
X74050152Y-101500000D03*
X257376876Y-100897905D03*
X75304914Y-101481954D03*
X83224891Y-101599821D03*
X307513792Y-101636404D03*
X290847092Y-101636404D03*
X237653796Y-101520000D03*
X220987096Y-101520000D03*
X204320396Y-101520000D03*
X187653696Y-101520000D03*
X170986996Y-101520000D03*
X154320296Y-101520000D03*
X137653596Y-101520000D03*
X120986896Y-101520000D03*
X104320196Y-101520000D03*
X87653496Y-101520000D03*
X70986796Y-101520000D03*
X84516796Y-100575000D03*
X101416796Y-101499994D03*
X118166796Y-101550004D03*
X134866796Y-101550000D03*
X151466796Y-101550000D03*
X168166796Y-101550000D03*
X184966796Y-101550002D03*
X201366796Y-101550000D03*
X218266796Y-101550000D03*
X234966796Y-101650000D03*
X250366796Y-101650000D03*
X274180392Y-101636404D03*
X259266796Y-101150000D03*
X233225191Y-101599821D03*
X225305214Y-101481954D03*
X290833496Y-103150000D03*
X275366796Y-102350000D03*
X116558291Y-101599821D03*
X108638314Y-101481954D03*
X99891591Y-101599821D03*
X91971614Y-101481954D03*
X133224991Y-101599821D03*
X125305014Y-101481954D03*
X149891691Y-101599821D03*
X141971714Y-101481954D03*
X166558391Y-101599821D03*
X158638414Y-101481954D03*
X183225091Y-101599821D03*
X175305114Y-101481954D03*
X199891791Y-101599821D03*
X191971814Y-101481954D03*
X216558491Y-101599821D03*
X208638514Y-101481954D03*
X241971914Y-101481954D03*
X251766796Y-101650004D03*
X274166796Y-103150000D03*
X257966796Y-101999958D03*
X307500196Y-103150000D03*
X292033496Y-102350000D03*
X275766796Y-100650000D03*
X308700196Y-102350000D03*
X292433496Y-100650000D03*
X309100196Y-100650000D03*
D14*
X240717152Y-101500000D02*
X240813796Y-101403356D01*
X240813796Y-99853330D02*
X241667126Y-99000000D01*
X240813796Y-101403356D02*
X240813796Y-99853330D01*
X240833796Y-103500000D02*
X240823796Y-103490000D01*
X240823796Y-101606644D02*
X240717152Y-101500000D01*
X240823796Y-103490000D02*
X240823796Y-101606644D01*
X241667126Y-103500000D02*
X240833796Y-103500000D01*
X224050452Y-101500000D02*
X224147096Y-101403356D01*
X224147096Y-99853330D02*
X225000426Y-99000000D01*
X224147096Y-101403356D02*
X224147096Y-99853330D01*
X224167096Y-103500000D02*
X224157096Y-103490000D01*
X224157096Y-101606644D02*
X224050452Y-101500000D01*
X224157096Y-103490000D02*
X224157096Y-101606644D01*
X225000426Y-103500000D02*
X224167096Y-103500000D01*
X207383752Y-101500000D02*
X207480396Y-101403356D01*
X207480396Y-99853330D02*
X208333726Y-99000000D01*
X207480396Y-101403356D02*
X207480396Y-99853330D01*
X207500396Y-103500000D02*
X207490396Y-103490000D01*
X207490396Y-101606644D02*
X207383752Y-101500000D01*
X207490396Y-103490000D02*
X207490396Y-101606644D01*
X208333726Y-103500000D02*
X207500396Y-103500000D01*
X190717052Y-101500000D02*
X190813696Y-101403356D01*
X190813696Y-99853330D02*
X191667026Y-99000000D01*
X190813696Y-101403356D02*
X190813696Y-99853330D01*
X190833696Y-103500000D02*
X190823696Y-103490000D01*
X190823696Y-101606644D02*
X190717052Y-101500000D01*
X190823696Y-103490000D02*
X190823696Y-101606644D01*
X191667026Y-103500000D02*
X190833696Y-103500000D01*
X174050352Y-101500000D02*
X174146996Y-101403356D01*
X174146996Y-99853330D02*
X175000326Y-99000000D01*
X174146996Y-101403356D02*
X174146996Y-99853330D01*
X174166996Y-103500000D02*
X174156996Y-103490000D01*
X174156996Y-101606644D02*
X174050352Y-101500000D01*
X174156996Y-103490000D02*
X174156996Y-101606644D01*
X175000326Y-103500000D02*
X174166996Y-103500000D01*
X157383652Y-101500000D02*
X157480296Y-101403356D01*
X157480296Y-99853330D02*
X158333626Y-99000000D01*
X157480296Y-101403356D02*
X157480296Y-99853330D01*
X157500296Y-103500000D02*
X157490296Y-103490000D01*
X157490296Y-101606644D02*
X157383652Y-101500000D01*
X157490296Y-103490000D02*
X157490296Y-101606644D01*
X158333626Y-103500000D02*
X157500296Y-103500000D01*
X140716952Y-101500000D02*
X140813596Y-101403356D01*
X140813596Y-99853330D02*
X141666926Y-99000000D01*
X140813596Y-101403356D02*
X140813596Y-99853330D01*
X140833596Y-103500000D02*
X140823596Y-103490000D01*
X140823596Y-101606644D02*
X140716952Y-101500000D01*
X140823596Y-103490000D02*
X140823596Y-101606644D01*
X141666926Y-103500000D02*
X140833596Y-103500000D01*
X124050252Y-101500000D02*
X124146896Y-101403356D01*
X124146896Y-99853330D02*
X125000226Y-99000000D01*
X124146896Y-101403356D02*
X124146896Y-99853330D01*
X124166896Y-103500000D02*
X124156896Y-103490000D01*
X124156896Y-101606644D02*
X124050252Y-101500000D01*
X124156896Y-103490000D02*
X124156896Y-101606644D01*
X125000226Y-103500000D02*
X124166896Y-103500000D01*
X107383552Y-101500000D02*
X107480196Y-101403356D01*
X107480196Y-99853330D02*
X108333526Y-99000000D01*
X107480196Y-101403356D02*
X107480196Y-99853330D01*
X107500196Y-103500000D02*
X107490196Y-103490000D01*
X107490196Y-101606644D02*
X107383552Y-101500000D01*
X107490196Y-103490000D02*
X107490196Y-101606644D01*
X108333526Y-103500000D02*
X107500196Y-103500000D01*
X90716852Y-101500000D02*
X90813496Y-101403356D01*
X90813496Y-99853330D02*
X91666826Y-99000000D01*
X90813496Y-101403356D02*
X90813496Y-99853330D01*
X90833496Y-103500000D02*
X90823496Y-103490000D01*
X90823496Y-101606644D02*
X90716852Y-101500000D01*
X90823496Y-103490000D02*
X90823496Y-101606644D01*
X91666826Y-103500000D02*
X90833496Y-103500000D01*
X74156796Y-101606644D02*
X74050152Y-101500000D01*
X74156796Y-103490000D02*
X74156796Y-101606644D01*
X74166796Y-103500000D02*
X74156796Y-103490000D01*
X75000126Y-103500000D02*
X74166796Y-103500000D01*
X74146796Y-99853330D02*
X75000126Y-99000000D01*
X74146796Y-101403356D02*
X74146796Y-99853330D01*
X74050152Y-101500000D02*
X74146796Y-101403356D01*
X256876877Y-101397904D02*
X257376876Y-100897905D01*
X257033386Y-103750000D02*
X256876877Y-103593491D01*
X258333386Y-103750000D02*
X257033386Y-103750000D01*
X257985481Y-100897905D02*
X257376876Y-100897905D01*
X256876877Y-103593491D02*
X256876877Y-101397904D01*
X258333386Y-99250000D02*
X258333386Y-100550000D01*
X258333386Y-100550000D02*
X257985481Y-100897905D01*
D15*
X300000600Y-99300000D02*
X315167300Y-99300000D01*
X283333900Y-99300000D02*
X300000600Y-99300000D01*
X266667200Y-99300000D02*
X283333900Y-99300000D01*
D14*
X75304914Y-101481954D02*
X83107024Y-101481954D01*
X83107024Y-101481954D02*
X83224891Y-101599821D01*
X237653796Y-102486670D02*
X238667126Y-103500000D01*
X237653796Y-101520000D02*
X237653796Y-100013330D01*
X237653796Y-100013330D02*
X238667126Y-99000000D01*
X237653796Y-101520000D02*
X237653796Y-102486670D01*
X220987096Y-102486670D02*
X222000426Y-103500000D01*
X220987096Y-101520000D02*
X220987096Y-100013330D01*
X220987096Y-100013330D02*
X222000426Y-99000000D01*
X220987096Y-101520000D02*
X220987096Y-102486670D01*
X204320396Y-102486670D02*
X205333726Y-103500000D01*
X204320396Y-101520000D02*
X204320396Y-100013330D01*
X204320396Y-100013330D02*
X205333726Y-99000000D01*
X204320396Y-101520000D02*
X204320396Y-102486670D01*
X187653696Y-102486670D02*
X188667026Y-103500000D01*
X187653696Y-101520000D02*
X187653696Y-100013330D01*
X187653696Y-100013330D02*
X188667026Y-99000000D01*
X187653696Y-101520000D02*
X187653696Y-102486670D01*
X170986996Y-102486670D02*
X172000326Y-103500000D01*
X170986996Y-101520000D02*
X170986996Y-100013330D01*
X170986996Y-100013330D02*
X172000326Y-99000000D01*
X170986996Y-101520000D02*
X170986996Y-102486670D01*
X154320296Y-102486670D02*
X155333626Y-103500000D01*
X154320296Y-101520000D02*
X154320296Y-100013330D01*
X154320296Y-100013330D02*
X155333626Y-99000000D01*
X154320296Y-101520000D02*
X154320296Y-102486670D01*
X137653596Y-102486670D02*
X138666926Y-103500000D01*
X137653596Y-101520000D02*
X137653596Y-100013330D01*
X137653596Y-100013330D02*
X138666926Y-99000000D01*
X137653596Y-101520000D02*
X137653596Y-102486670D01*
X120986896Y-102486670D02*
X122000226Y-103500000D01*
X120986896Y-101520000D02*
X120986896Y-100013330D01*
X120986896Y-100013330D02*
X122000226Y-99000000D01*
X120986896Y-101520000D02*
X120986896Y-102486670D01*
X104320196Y-102486670D02*
X105333526Y-103500000D01*
X104320196Y-101520000D02*
X104320196Y-100013330D01*
X104320196Y-100013330D02*
X105333526Y-99000000D01*
X104320196Y-101520000D02*
X104320196Y-102486670D01*
X87653496Y-102486670D02*
X88666826Y-103500000D01*
X87653496Y-101520000D02*
X87653496Y-100013330D01*
X87653496Y-100013330D02*
X88666826Y-99000000D01*
X87653496Y-101520000D02*
X87653496Y-102486670D01*
X70986796Y-102486670D02*
X72000126Y-103500000D01*
X70986796Y-101520000D02*
X70986796Y-102486670D01*
X70986796Y-100013330D02*
X72000126Y-99000000D01*
X70986796Y-101520000D02*
X70986796Y-100013330D01*
X283283900Y-103750000D02*
X283333900Y-103700000D01*
X260433386Y-101450000D02*
X259166796Y-101450000D01*
X261333386Y-100550000D02*
X260433386Y-101450000D01*
X261333386Y-99250000D02*
X261333386Y-100550000D01*
X259166796Y-101250000D02*
X259266796Y-101150000D01*
X259166796Y-101450000D02*
X259166796Y-101250000D01*
X233107324Y-101481954D02*
X233225191Y-101599821D01*
X225305214Y-101481954D02*
X233107324Y-101481954D01*
X285633900Y-102233332D02*
X283333900Y-102233332D01*
X289209722Y-102233332D02*
X285633900Y-102233332D01*
X290126390Y-103150000D02*
X289209722Y-102233332D01*
X290833496Y-103150000D02*
X290126390Y-103150000D01*
X283800556Y-101766676D02*
X283333900Y-102233332D01*
X281933900Y-102233332D02*
X281917232Y-102250000D01*
X283333900Y-102233332D02*
X281933900Y-102233332D01*
X283333900Y-102233332D02*
X275483464Y-102233332D01*
X275483464Y-102233332D02*
X275366796Y-102350000D01*
X116440424Y-101481954D02*
X116558291Y-101599821D01*
X108638314Y-101481954D02*
X116440424Y-101481954D01*
X99773724Y-101481954D02*
X99891591Y-101599821D01*
X91971614Y-101481954D02*
X99773724Y-101481954D01*
X133107124Y-101481954D02*
X133224991Y-101599821D01*
X125305014Y-101481954D02*
X133107124Y-101481954D01*
X149773824Y-101481954D02*
X149891691Y-101599821D01*
X141971714Y-101481954D02*
X149773824Y-101481954D01*
X166440524Y-101481954D02*
X166558391Y-101599821D01*
X158638414Y-101481954D02*
X166440524Y-101481954D01*
X183107224Y-101481954D02*
X183225091Y-101599821D01*
X175305114Y-101481954D02*
X183107224Y-101481954D01*
X199773924Y-101481954D02*
X199891791Y-101599821D01*
X191971814Y-101481954D02*
X199773924Y-101481954D01*
X216440624Y-101481954D02*
X216558491Y-101599821D01*
X208638514Y-101481954D02*
X216440624Y-101481954D01*
X241971914Y-101481954D02*
X242803867Y-100650001D01*
X242803867Y-100650001D02*
X250766793Y-100650001D01*
X250766793Y-100650001D02*
X251266797Y-101150005D01*
X251266797Y-101150005D02*
X251766796Y-101650004D01*
X268967200Y-102233332D02*
X266667200Y-102233332D01*
X272543022Y-102233332D02*
X268967200Y-102233332D01*
X273459690Y-103150000D02*
X272543022Y-102233332D01*
X274166796Y-103150000D02*
X273459690Y-103150000D01*
X259770054Y-102233332D02*
X259653387Y-102349999D01*
X258316837Y-102349999D02*
X257966796Y-101999958D01*
X266667200Y-102233332D02*
X259770054Y-102233332D01*
X259653387Y-102349999D02*
X258316837Y-102349999D01*
X302300600Y-102233332D02*
X300000600Y-102233332D01*
X305876422Y-102233332D02*
X302300600Y-102233332D01*
X306793090Y-103150000D02*
X305876422Y-102233332D01*
X307500196Y-103150000D02*
X306793090Y-103150000D01*
X292150164Y-102233332D02*
X292033496Y-102350000D01*
X300000600Y-102233332D02*
X292150164Y-102233332D01*
X283217234Y-100650000D02*
X283333900Y-100766666D01*
X275766796Y-100650000D02*
X283217234Y-100650000D01*
X292433496Y-100650000D02*
X299883934Y-100650000D01*
X308816864Y-102233332D02*
X308700196Y-102350000D01*
X315167300Y-102233332D02*
X308816864Y-102233332D01*
X315050634Y-100650000D02*
X315167300Y-100766666D01*
X309100196Y-100650000D02*
X315050634Y-100650000D01*
D16*
G36*
X87031786Y-98964250D02*
G01*
X87190536Y-99123000D01*
X88539786Y-99123000D01*
X88539786Y-99103000D01*
X88793786Y-99103000D01*
X88793786Y-99123000D01*
X88813786Y-99123000D01*
X88813786Y-99377000D01*
X88793786Y-99377000D01*
X88793786Y-100726250D01*
X88952536Y-100885000D01*
X89666786Y-100888072D01*
X89767290Y-100878174D01*
X89711028Y-100962376D01*
X89625469Y-101168933D01*
X89581852Y-101388212D01*
X89581852Y-101611788D01*
X89625469Y-101831067D01*
X89711028Y-102037624D01*
X89767290Y-102121826D01*
X89666786Y-102111928D01*
X88952536Y-102115000D01*
X88793786Y-102273750D01*
X88793786Y-103623000D01*
X88813786Y-103623000D01*
X88813786Y-103877000D01*
X88793786Y-103877000D01*
X88793786Y-103897000D01*
X88539786Y-103897000D01*
X88539786Y-103877000D01*
X87190536Y-103877000D01*
X87031786Y-104035750D01*
X87031768Y-104040000D01*
X79636220Y-104040000D01*
X79635126Y-103785750D01*
X79476376Y-103627000D01*
X78127126Y-103627000D01*
X78127126Y-103647000D01*
X77873126Y-103647000D01*
X77873126Y-103627000D01*
X77853126Y-103627000D01*
X77853126Y-103373000D01*
X77873126Y-103373000D01*
X77873126Y-103353000D01*
X78127126Y-103353000D01*
X78127126Y-103373000D01*
X79476376Y-103373000D01*
X79635126Y-103214250D01*
X79637122Y-102750000D01*
X87028714Y-102750000D01*
X87031786Y-103464250D01*
X87190536Y-103623000D01*
X88539786Y-103623000D01*
X88539786Y-102273750D01*
X88381036Y-102115000D01*
X87666786Y-102111928D01*
X87542304Y-102124188D01*
X87422606Y-102160498D01*
X87312292Y-102219463D01*
X87215601Y-102298815D01*
X87136249Y-102395506D01*
X87077284Y-102505820D01*
X87040974Y-102625518D01*
X87028714Y-102750000D01*
X79637122Y-102750000D01*
X79638198Y-102500000D01*
X79625938Y-102375518D01*
X79593005Y-102266954D01*
X82305602Y-102266954D01*
X82343279Y-102323341D01*
X82501371Y-102481433D01*
X82687267Y-102605645D01*
X82893824Y-102691204D01*
X83113103Y-102734821D01*
X83336679Y-102734821D01*
X83555958Y-102691204D01*
X83762515Y-102605645D01*
X83948411Y-102481433D01*
X84106503Y-102323341D01*
X84230715Y-102137445D01*
X84316274Y-101930888D01*
X84359891Y-101711609D01*
X84359891Y-101488033D01*
X84316274Y-101268754D01*
X84230715Y-101062197D01*
X84106503Y-100876301D01*
X83948411Y-100718209D01*
X83762515Y-100593997D01*
X83555958Y-100508438D01*
X83336679Y-100464821D01*
X83113103Y-100464821D01*
X82893824Y-100508438D01*
X82687267Y-100593997D01*
X82533181Y-100696954D01*
X76125046Y-100696954D01*
X76060243Y-100632151D01*
X76124608Y-100625812D01*
X76244306Y-100589502D01*
X76354620Y-100530537D01*
X76451311Y-100451185D01*
X76500126Y-100391704D01*
X76548941Y-100451185D01*
X76645632Y-100530537D01*
X76755946Y-100589502D01*
X76875644Y-100625812D01*
X77000126Y-100638072D01*
X77714376Y-100635000D01*
X77873126Y-100476250D01*
X77873126Y-99127000D01*
X78127126Y-99127000D01*
X78127126Y-100476250D01*
X78285876Y-100635000D01*
X79000126Y-100638072D01*
X79124608Y-100625812D01*
X79244306Y-100589502D01*
X79354620Y-100530537D01*
X79451311Y-100451185D01*
X79530663Y-100354494D01*
X79586517Y-100250000D01*
X87028714Y-100250000D01*
X87040974Y-100374482D01*
X87077284Y-100494180D01*
X87136249Y-100604494D01*
X87215601Y-100701185D01*
X87312292Y-100780537D01*
X87422606Y-100839502D01*
X87542304Y-100875812D01*
X87666786Y-100888072D01*
X88381036Y-100885000D01*
X88539786Y-100726250D01*
X88539786Y-99377000D01*
X87190536Y-99377000D01*
X87031786Y-99535750D01*
X87028714Y-100250000D01*
X79586517Y-100250000D01*
X79589628Y-100244180D01*
X79625938Y-100124482D01*
X79638198Y-100000000D01*
X79635126Y-99285750D01*
X79476376Y-99127000D01*
X78127126Y-99127000D01*
X77873126Y-99127000D01*
X77853126Y-99127000D01*
X77853126Y-98960000D01*
X87031768Y-98960000D01*
X87031786Y-98964250D01*
X87031786Y-98964250D01*
G37*
X87031786Y-98964250D02*
X87190536Y-99123000D01*
X88539786Y-99123000D01*
X88539786Y-99103000D01*
X88793786Y-99103000D01*
X88793786Y-99123000D01*
X88813786Y-99123000D01*
X88813786Y-99377000D01*
X88793786Y-99377000D01*
X88793786Y-100726250D01*
X88952536Y-100885000D01*
X89666786Y-100888072D01*
X89767290Y-100878174D01*
X89711028Y-100962376D01*
X89625469Y-101168933D01*
X89581852Y-101388212D01*
X89581852Y-101611788D01*
X89625469Y-101831067D01*
X89711028Y-102037624D01*
X89767290Y-102121826D01*
X89666786Y-102111928D01*
X88952536Y-102115000D01*
X88793786Y-102273750D01*
X88793786Y-103623000D01*
X88813786Y-103623000D01*
X88813786Y-103877000D01*
X88793786Y-103877000D01*
X88793786Y-103897000D01*
X88539786Y-103897000D01*
X88539786Y-103877000D01*
X87190536Y-103877000D01*
X87031786Y-104035750D01*
X87031768Y-104040000D01*
X79636220Y-104040000D01*
X79635126Y-103785750D01*
X79476376Y-103627000D01*
X78127126Y-103627000D01*
X78127126Y-103647000D01*
X77873126Y-103647000D01*
X77873126Y-103627000D01*
X77853126Y-103627000D01*
X77853126Y-103373000D01*
X77873126Y-103373000D01*
X77873126Y-103353000D01*
X78127126Y-103353000D01*
X78127126Y-103373000D01*
X79476376Y-103373000D01*
X79635126Y-103214250D01*
X79637122Y-102750000D01*
X87028714Y-102750000D01*
X87031786Y-103464250D01*
X87190536Y-103623000D01*
X88539786Y-103623000D01*
X88539786Y-102273750D01*
X88381036Y-102115000D01*
X87666786Y-102111928D01*
X87542304Y-102124188D01*
X87422606Y-102160498D01*
X87312292Y-102219463D01*
X87215601Y-102298815D01*
X87136249Y-102395506D01*
X87077284Y-102505820D01*
X87040974Y-102625518D01*
X87028714Y-102750000D01*
X79637122Y-102750000D01*
X79638198Y-102500000D01*
X79625938Y-102375518D01*
X79593005Y-102266954D01*
X82305602Y-102266954D01*
X82343279Y-102323341D01*
X82501371Y-102481433D01*
X82687267Y-102605645D01*
X82893824Y-102691204D01*
X83113103Y-102734821D01*
X83336679Y-102734821D01*
X83555958Y-102691204D01*
X83762515Y-102605645D01*
X83948411Y-102481433D01*
X84106503Y-102323341D01*
X84230715Y-102137445D01*
X84316274Y-101930888D01*
X84359891Y-101711609D01*
X84359891Y-101488033D01*
X84316274Y-101268754D01*
X84230715Y-101062197D01*
X84106503Y-100876301D01*
X83948411Y-100718209D01*
X83762515Y-100593997D01*
X83555958Y-100508438D01*
X83336679Y-100464821D01*
X83113103Y-100464821D01*
X82893824Y-100508438D01*
X82687267Y-100593997D01*
X82533181Y-100696954D01*
X76125046Y-100696954D01*
X76060243Y-100632151D01*
X76124608Y-100625812D01*
X76244306Y-100589502D01*
X76354620Y-100530537D01*
X76451311Y-100451185D01*
X76500126Y-100391704D01*
X76548941Y-100451185D01*
X76645632Y-100530537D01*
X76755946Y-100589502D01*
X76875644Y-100625812D01*
X77000126Y-100638072D01*
X77714376Y-100635000D01*
X77873126Y-100476250D01*
X77873126Y-99127000D01*
X78127126Y-99127000D01*
X78127126Y-100476250D01*
X78285876Y-100635000D01*
X79000126Y-100638072D01*
X79124608Y-100625812D01*
X79244306Y-100589502D01*
X79354620Y-100530537D01*
X79451311Y-100451185D01*
X79530663Y-100354494D01*
X79586517Y-100250000D01*
X87028714Y-100250000D01*
X87040974Y-100374482D01*
X87077284Y-100494180D01*
X87136249Y-100604494D01*
X87215601Y-100701185D01*
X87312292Y-100780537D01*
X87422606Y-100839502D01*
X87542304Y-100875812D01*
X87666786Y-100888072D01*
X88381036Y-100885000D01*
X88539786Y-100726250D01*
X88539786Y-99377000D01*
X87190536Y-99377000D01*
X87031786Y-99535750D01*
X87028714Y-100250000D01*
X79586517Y-100250000D01*
X79589628Y-100244180D01*
X79625938Y-100124482D01*
X79638198Y-100000000D01*
X79635126Y-99285750D01*
X79476376Y-99127000D01*
X78127126Y-99127000D01*
X77873126Y-99127000D01*
X77853126Y-99127000D01*
X77853126Y-98960000D01*
X87031768Y-98960000D01*
X87031786Y-98964250D01*
G36*
X170365086Y-98964250D02*
G01*
X170523836Y-99123000D01*
X171873086Y-99123000D01*
X171873086Y-99103000D01*
X172127086Y-99103000D01*
X172127086Y-99123000D01*
X172147086Y-99123000D01*
X172147086Y-99377000D01*
X172127086Y-99377000D01*
X172127086Y-100726250D01*
X172285836Y-100885000D01*
X173000086Y-100888072D01*
X173100805Y-100878152D01*
X173044528Y-100962376D01*
X172958969Y-101168933D01*
X172915352Y-101388212D01*
X172915352Y-101611788D01*
X172958969Y-101831067D01*
X173044528Y-102037624D01*
X173100805Y-102121848D01*
X173000086Y-102111928D01*
X172285836Y-102115000D01*
X172127086Y-102273750D01*
X172127086Y-103623000D01*
X172147086Y-103623000D01*
X172147086Y-103877000D01*
X172127086Y-103877000D01*
X172127086Y-103897000D01*
X171873086Y-103897000D01*
X171873086Y-103877000D01*
X170523836Y-103877000D01*
X170365086Y-104035750D01*
X170365068Y-104040000D01*
X162969520Y-104040000D01*
X162968426Y-103785750D01*
X162809676Y-103627000D01*
X161460426Y-103627000D01*
X161460426Y-103647000D01*
X161206426Y-103647000D01*
X161206426Y-103627000D01*
X161186426Y-103627000D01*
X161186426Y-103373000D01*
X161206426Y-103373000D01*
X161206426Y-103353000D01*
X161460426Y-103353000D01*
X161460426Y-103373000D01*
X162809676Y-103373000D01*
X162968426Y-103214250D01*
X162970422Y-102750000D01*
X170362014Y-102750000D01*
X170365086Y-103464250D01*
X170523836Y-103623000D01*
X171873086Y-103623000D01*
X171873086Y-102273750D01*
X171714336Y-102115000D01*
X171000086Y-102111928D01*
X170875604Y-102124188D01*
X170755906Y-102160498D01*
X170645592Y-102219463D01*
X170548901Y-102298815D01*
X170469549Y-102395506D01*
X170410584Y-102505820D01*
X170374274Y-102625518D01*
X170362014Y-102750000D01*
X162970422Y-102750000D01*
X162971498Y-102500000D01*
X162959238Y-102375518D01*
X162926305Y-102266954D01*
X165639102Y-102266954D01*
X165676779Y-102323341D01*
X165834871Y-102481433D01*
X166020767Y-102605645D01*
X166227324Y-102691204D01*
X166446603Y-102734821D01*
X166670179Y-102734821D01*
X166889458Y-102691204D01*
X167096015Y-102605645D01*
X167281911Y-102481433D01*
X167440003Y-102323341D01*
X167564215Y-102137445D01*
X167649774Y-101930888D01*
X167693391Y-101711609D01*
X167693391Y-101488033D01*
X167649774Y-101268754D01*
X167564215Y-101062197D01*
X167440003Y-100876301D01*
X167281911Y-100718209D01*
X167096015Y-100593997D01*
X166889458Y-100508438D01*
X166670179Y-100464821D01*
X166446603Y-100464821D01*
X166227324Y-100508438D01*
X166020767Y-100593997D01*
X165866681Y-100696954D01*
X159458546Y-100696954D01*
X159393725Y-100632133D01*
X159457908Y-100625812D01*
X159577606Y-100589502D01*
X159687920Y-100530537D01*
X159784611Y-100451185D01*
X159833426Y-100391704D01*
X159882241Y-100451185D01*
X159978932Y-100530537D01*
X160089246Y-100589502D01*
X160208944Y-100625812D01*
X160333426Y-100638072D01*
X161047676Y-100635000D01*
X161206426Y-100476250D01*
X161206426Y-99127000D01*
X161460426Y-99127000D01*
X161460426Y-100476250D01*
X161619176Y-100635000D01*
X162333426Y-100638072D01*
X162457908Y-100625812D01*
X162577606Y-100589502D01*
X162687920Y-100530537D01*
X162784611Y-100451185D01*
X162863963Y-100354494D01*
X162919817Y-100250000D01*
X170362014Y-100250000D01*
X170374274Y-100374482D01*
X170410584Y-100494180D01*
X170469549Y-100604494D01*
X170548901Y-100701185D01*
X170645592Y-100780537D01*
X170755906Y-100839502D01*
X170875604Y-100875812D01*
X171000086Y-100888072D01*
X171714336Y-100885000D01*
X171873086Y-100726250D01*
X171873086Y-99377000D01*
X170523836Y-99377000D01*
X170365086Y-99535750D01*
X170362014Y-100250000D01*
X162919817Y-100250000D01*
X162922928Y-100244180D01*
X162959238Y-100124482D01*
X162971498Y-100000000D01*
X162968426Y-99285750D01*
X162809676Y-99127000D01*
X161460426Y-99127000D01*
X161206426Y-99127000D01*
X161186426Y-99127000D01*
X161186426Y-98960000D01*
X170365068Y-98960000D01*
X170365086Y-98964250D01*
X170365086Y-98964250D01*
G37*
X170365086Y-98964250D02*
X170523836Y-99123000D01*
X171873086Y-99123000D01*
X171873086Y-99103000D01*
X172127086Y-99103000D01*
X172127086Y-99123000D01*
X172147086Y-99123000D01*
X172147086Y-99377000D01*
X172127086Y-99377000D01*
X172127086Y-100726250D01*
X172285836Y-100885000D01*
X173000086Y-100888072D01*
X173100805Y-100878152D01*
X173044528Y-100962376D01*
X172958969Y-101168933D01*
X172915352Y-101388212D01*
X172915352Y-101611788D01*
X172958969Y-101831067D01*
X173044528Y-102037624D01*
X173100805Y-102121848D01*
X173000086Y-102111928D01*
X172285836Y-102115000D01*
X172127086Y-102273750D01*
X172127086Y-103623000D01*
X172147086Y-103623000D01*
X172147086Y-103877000D01*
X172127086Y-103877000D01*
X172127086Y-103897000D01*
X171873086Y-103897000D01*
X171873086Y-103877000D01*
X170523836Y-103877000D01*
X170365086Y-104035750D01*
X170365068Y-104040000D01*
X162969520Y-104040000D01*
X162968426Y-103785750D01*
X162809676Y-103627000D01*
X161460426Y-103627000D01*
X161460426Y-103647000D01*
X161206426Y-103647000D01*
X161206426Y-103627000D01*
X161186426Y-103627000D01*
X161186426Y-103373000D01*
X161206426Y-103373000D01*
X161206426Y-103353000D01*
X161460426Y-103353000D01*
X161460426Y-103373000D01*
X162809676Y-103373000D01*
X162968426Y-103214250D01*
X162970422Y-102750000D01*
X170362014Y-102750000D01*
X170365086Y-103464250D01*
X170523836Y-103623000D01*
X171873086Y-103623000D01*
X171873086Y-102273750D01*
X171714336Y-102115000D01*
X171000086Y-102111928D01*
X170875604Y-102124188D01*
X170755906Y-102160498D01*
X170645592Y-102219463D01*
X170548901Y-102298815D01*
X170469549Y-102395506D01*
X170410584Y-102505820D01*
X170374274Y-102625518D01*
X170362014Y-102750000D01*
X162970422Y-102750000D01*
X162971498Y-102500000D01*
X162959238Y-102375518D01*
X162926305Y-102266954D01*
X165639102Y-102266954D01*
X165676779Y-102323341D01*
X165834871Y-102481433D01*
X166020767Y-102605645D01*
X166227324Y-102691204D01*
X166446603Y-102734821D01*
X166670179Y-102734821D01*
X166889458Y-102691204D01*
X167096015Y-102605645D01*
X167281911Y-102481433D01*
X167440003Y-102323341D01*
X167564215Y-102137445D01*
X167649774Y-101930888D01*
X167693391Y-101711609D01*
X167693391Y-101488033D01*
X167649774Y-101268754D01*
X167564215Y-101062197D01*
X167440003Y-100876301D01*
X167281911Y-100718209D01*
X167096015Y-100593997D01*
X166889458Y-100508438D01*
X166670179Y-100464821D01*
X166446603Y-100464821D01*
X166227324Y-100508438D01*
X166020767Y-100593997D01*
X165866681Y-100696954D01*
X159458546Y-100696954D01*
X159393725Y-100632133D01*
X159457908Y-100625812D01*
X159577606Y-100589502D01*
X159687920Y-100530537D01*
X159784611Y-100451185D01*
X159833426Y-100391704D01*
X159882241Y-100451185D01*
X159978932Y-100530537D01*
X160089246Y-100589502D01*
X160208944Y-100625812D01*
X160333426Y-100638072D01*
X161047676Y-100635000D01*
X161206426Y-100476250D01*
X161206426Y-99127000D01*
X161460426Y-99127000D01*
X161460426Y-100476250D01*
X161619176Y-100635000D01*
X162333426Y-100638072D01*
X162457908Y-100625812D01*
X162577606Y-100589502D01*
X162687920Y-100530537D01*
X162784611Y-100451185D01*
X162863963Y-100354494D01*
X162919817Y-100250000D01*
X170362014Y-100250000D01*
X170374274Y-100374482D01*
X170410584Y-100494180D01*
X170469549Y-100604494D01*
X170548901Y-100701185D01*
X170645592Y-100780537D01*
X170755906Y-100839502D01*
X170875604Y-100875812D01*
X171000086Y-100888072D01*
X171714336Y-100885000D01*
X171873086Y-100726250D01*
X171873086Y-99377000D01*
X170523836Y-99377000D01*
X170365086Y-99535750D01*
X170362014Y-100250000D01*
X162919817Y-100250000D01*
X162922928Y-100244180D01*
X162959238Y-100124482D01*
X162971498Y-100000000D01*
X162968426Y-99285750D01*
X162809676Y-99127000D01*
X161460426Y-99127000D01*
X161206426Y-99127000D01*
X161186426Y-99127000D01*
X161186426Y-98960000D01*
X170365068Y-98960000D01*
X170365086Y-98964250D01*
G36*
X280836479Y-103119467D02*
G01*
X280744309Y-103344718D01*
X280740438Y-103382391D01*
X280865169Y-103573000D01*
X283206900Y-103573000D01*
X283206900Y-103553000D01*
X283460900Y-103553000D01*
X283460900Y-103573000D01*
X285802631Y-103573000D01*
X285927362Y-103382391D01*
X285923491Y-103344718D01*
X285831321Y-103119467D01*
X285764372Y-103018332D01*
X288884565Y-103018332D01*
X289544047Y-103677815D01*
X289568626Y-103707764D01*
X289598574Y-103732342D01*
X289598577Y-103732345D01*
X289616894Y-103747377D01*
X289688157Y-103805862D01*
X289824530Y-103878754D01*
X289938062Y-103913194D01*
X289972502Y-103923641D01*
X289986880Y-103925057D01*
X290005228Y-103926864D01*
X290109976Y-104031612D01*
X290122530Y-104040000D01*
X285925061Y-104040000D01*
X285927362Y-104017609D01*
X285802631Y-103827000D01*
X283460900Y-103827000D01*
X283460900Y-103847000D01*
X283206900Y-103847000D01*
X283206900Y-103827000D01*
X280865169Y-103827000D01*
X280740438Y-104017609D01*
X280742739Y-104040000D01*
X274877762Y-104040000D01*
X274890316Y-104031612D01*
X275048408Y-103873520D01*
X275172620Y-103687624D01*
X275256550Y-103485000D01*
X275478584Y-103485000D01*
X275697863Y-103441383D01*
X275904420Y-103355824D01*
X276090316Y-103231612D01*
X276248408Y-103073520D01*
X276285284Y-103018332D01*
X280903428Y-103018332D01*
X280836479Y-103119467D01*
X280836479Y-103119467D01*
G37*
X280836479Y-103119467D02*
X280744309Y-103344718D01*
X280740438Y-103382391D01*
X280865169Y-103573000D01*
X283206900Y-103573000D01*
X283206900Y-103553000D01*
X283460900Y-103553000D01*
X283460900Y-103573000D01*
X285802631Y-103573000D01*
X285927362Y-103382391D01*
X285923491Y-103344718D01*
X285831321Y-103119467D01*
X285764372Y-103018332D01*
X288884565Y-103018332D01*
X289544047Y-103677815D01*
X289568626Y-103707764D01*
X289598574Y-103732342D01*
X289598577Y-103732345D01*
X289616894Y-103747377D01*
X289688157Y-103805862D01*
X289824530Y-103878754D01*
X289938062Y-103913194D01*
X289972502Y-103923641D01*
X289986880Y-103925057D01*
X290005228Y-103926864D01*
X290109976Y-104031612D01*
X290122530Y-104040000D01*
X285925061Y-104040000D01*
X285927362Y-104017609D01*
X285802631Y-103827000D01*
X283460900Y-103827000D01*
X283460900Y-103847000D01*
X283206900Y-103847000D01*
X283206900Y-103827000D01*
X280865169Y-103827000D01*
X280740438Y-104017609D01*
X280742739Y-104040000D01*
X274877762Y-104040000D01*
X274890316Y-104031612D01*
X275048408Y-103873520D01*
X275172620Y-103687624D01*
X275256550Y-103485000D01*
X275478584Y-103485000D01*
X275697863Y-103441383D01*
X275904420Y-103355824D01*
X276090316Y-103231612D01*
X276248408Y-103073520D01*
X276285284Y-103018332D01*
X280903428Y-103018332D01*
X280836479Y-103119467D01*
G36*
X237031726Y-98964250D02*
G01*
X237190476Y-99123000D01*
X238539726Y-99123000D01*
X238539726Y-99103000D01*
X238793726Y-99103000D01*
X238793726Y-99123000D01*
X238813726Y-99123000D01*
X238813726Y-99377000D01*
X238793726Y-99377000D01*
X238793726Y-100726250D01*
X238952476Y-100885000D01*
X239666726Y-100888072D01*
X239767616Y-100878136D01*
X239711328Y-100962376D01*
X239625769Y-101168933D01*
X239582152Y-101388212D01*
X239582152Y-101611788D01*
X239625769Y-101831067D01*
X239711328Y-102037624D01*
X239767616Y-102121864D01*
X239666726Y-102111928D01*
X238952476Y-102115000D01*
X238793726Y-102273750D01*
X238793726Y-103623000D01*
X238813726Y-103623000D01*
X238813726Y-103877000D01*
X238793726Y-103877000D01*
X238793726Y-103897000D01*
X238539726Y-103897000D01*
X238539726Y-103877000D01*
X237190476Y-103877000D01*
X237031726Y-104035750D01*
X237031708Y-104040000D01*
X229635084Y-104040000D01*
X229635066Y-104035750D01*
X229476316Y-103877000D01*
X228127066Y-103877000D01*
X228127066Y-103897000D01*
X227873066Y-103897000D01*
X227873066Y-103877000D01*
X227853066Y-103877000D01*
X227853066Y-103623000D01*
X227873066Y-103623000D01*
X227873066Y-103603000D01*
X228127066Y-103603000D01*
X228127066Y-103623000D01*
X229476316Y-103623000D01*
X229635066Y-103464250D01*
X229638138Y-102750000D01*
X237028654Y-102750000D01*
X237031726Y-103464250D01*
X237190476Y-103623000D01*
X238539726Y-103623000D01*
X238539726Y-102273750D01*
X238380976Y-102115000D01*
X237666726Y-102111928D01*
X237542244Y-102124188D01*
X237422546Y-102160498D01*
X237312232Y-102219463D01*
X237215541Y-102298815D01*
X237136189Y-102395506D01*
X237077224Y-102505820D01*
X237040914Y-102625518D01*
X237028654Y-102750000D01*
X229638138Y-102750000D01*
X229625878Y-102625518D01*
X229589568Y-102505820D01*
X229530603Y-102395506D01*
X229451251Y-102298815D01*
X229412428Y-102266954D01*
X232305902Y-102266954D01*
X232343579Y-102323341D01*
X232501671Y-102481433D01*
X232687567Y-102605645D01*
X232894124Y-102691204D01*
X233113403Y-102734821D01*
X233336979Y-102734821D01*
X233556258Y-102691204D01*
X233762815Y-102605645D01*
X233948711Y-102481433D01*
X234106803Y-102323341D01*
X234231015Y-102137445D01*
X234316574Y-101930888D01*
X234360191Y-101711609D01*
X234360191Y-101488033D01*
X234316574Y-101268754D01*
X234231015Y-101062197D01*
X234106803Y-100876301D01*
X233948711Y-100718209D01*
X233762815Y-100593997D01*
X233556258Y-100508438D01*
X233336979Y-100464821D01*
X233113403Y-100464821D01*
X232894124Y-100508438D01*
X232687567Y-100593997D01*
X232533481Y-100696954D01*
X229454723Y-100696954D01*
X229530603Y-100604494D01*
X229589568Y-100494180D01*
X229625878Y-100374482D01*
X229638138Y-100250000D01*
X237028654Y-100250000D01*
X237040914Y-100374482D01*
X237077224Y-100494180D01*
X237136189Y-100604494D01*
X237215541Y-100701185D01*
X237312232Y-100780537D01*
X237422546Y-100839502D01*
X237542244Y-100875812D01*
X237666726Y-100888072D01*
X238380976Y-100885000D01*
X238539726Y-100726250D01*
X238539726Y-99377000D01*
X237190476Y-99377000D01*
X237031726Y-99535750D01*
X237028654Y-100250000D01*
X229638138Y-100250000D01*
X229635066Y-99535750D01*
X229476316Y-99377000D01*
X228127066Y-99377000D01*
X228127066Y-99397000D01*
X227873066Y-99397000D01*
X227873066Y-99377000D01*
X227853066Y-99377000D01*
X227853066Y-99123000D01*
X227873066Y-99123000D01*
X227873066Y-99103000D01*
X228127066Y-99103000D01*
X228127066Y-99123000D01*
X229476316Y-99123000D01*
X229635066Y-98964250D01*
X229635084Y-98960000D01*
X237031708Y-98960000D01*
X237031726Y-98964250D01*
X237031726Y-98964250D01*
G37*
X237031726Y-98964250D02*
X237190476Y-99123000D01*
X238539726Y-99123000D01*
X238539726Y-99103000D01*
X238793726Y-99103000D01*
X238793726Y-99123000D01*
X238813726Y-99123000D01*
X238813726Y-99377000D01*
X238793726Y-99377000D01*
X238793726Y-100726250D01*
X238952476Y-100885000D01*
X239666726Y-100888072D01*
X239767616Y-100878136D01*
X239711328Y-100962376D01*
X239625769Y-101168933D01*
X239582152Y-101388212D01*
X239582152Y-101611788D01*
X239625769Y-101831067D01*
X239711328Y-102037624D01*
X239767616Y-102121864D01*
X239666726Y-102111928D01*
X238952476Y-102115000D01*
X238793726Y-102273750D01*
X238793726Y-103623000D01*
X238813726Y-103623000D01*
X238813726Y-103877000D01*
X238793726Y-103877000D01*
X238793726Y-103897000D01*
X238539726Y-103897000D01*
X238539726Y-103877000D01*
X237190476Y-103877000D01*
X237031726Y-104035750D01*
X237031708Y-104040000D01*
X229635084Y-104040000D01*
X229635066Y-104035750D01*
X229476316Y-103877000D01*
X228127066Y-103877000D01*
X228127066Y-103897000D01*
X227873066Y-103897000D01*
X227873066Y-103877000D01*
X227853066Y-103877000D01*
X227853066Y-103623000D01*
X227873066Y-103623000D01*
X227873066Y-103603000D01*
X228127066Y-103603000D01*
X228127066Y-103623000D01*
X229476316Y-103623000D01*
X229635066Y-103464250D01*
X229638138Y-102750000D01*
X237028654Y-102750000D01*
X237031726Y-103464250D01*
X237190476Y-103623000D01*
X238539726Y-103623000D01*
X238539726Y-102273750D01*
X238380976Y-102115000D01*
X237666726Y-102111928D01*
X237542244Y-102124188D01*
X237422546Y-102160498D01*
X237312232Y-102219463D01*
X237215541Y-102298815D01*
X237136189Y-102395506D01*
X237077224Y-102505820D01*
X237040914Y-102625518D01*
X237028654Y-102750000D01*
X229638138Y-102750000D01*
X229625878Y-102625518D01*
X229589568Y-102505820D01*
X229530603Y-102395506D01*
X229451251Y-102298815D01*
X229412428Y-102266954D01*
X232305902Y-102266954D01*
X232343579Y-102323341D01*
X232501671Y-102481433D01*
X232687567Y-102605645D01*
X232894124Y-102691204D01*
X233113403Y-102734821D01*
X233336979Y-102734821D01*
X233556258Y-102691204D01*
X233762815Y-102605645D01*
X233948711Y-102481433D01*
X234106803Y-102323341D01*
X234231015Y-102137445D01*
X234316574Y-101930888D01*
X234360191Y-101711609D01*
X234360191Y-101488033D01*
X234316574Y-101268754D01*
X234231015Y-101062197D01*
X234106803Y-100876301D01*
X233948711Y-100718209D01*
X233762815Y-100593997D01*
X233556258Y-100508438D01*
X233336979Y-100464821D01*
X233113403Y-100464821D01*
X232894124Y-100508438D01*
X232687567Y-100593997D01*
X232533481Y-100696954D01*
X229454723Y-100696954D01*
X229530603Y-100604494D01*
X229589568Y-100494180D01*
X229625878Y-100374482D01*
X229638138Y-100250000D01*
X237028654Y-100250000D01*
X237040914Y-100374482D01*
X237077224Y-100494180D01*
X237136189Y-100604494D01*
X237215541Y-100701185D01*
X237312232Y-100780537D01*
X237422546Y-100839502D01*
X237542244Y-100875812D01*
X237666726Y-100888072D01*
X238380976Y-100885000D01*
X238539726Y-100726250D01*
X238539726Y-99377000D01*
X237190476Y-99377000D01*
X237031726Y-99535750D01*
X237028654Y-100250000D01*
X229638138Y-100250000D01*
X229635066Y-99535750D01*
X229476316Y-99377000D01*
X228127066Y-99377000D01*
X228127066Y-99397000D01*
X227873066Y-99397000D01*
X227873066Y-99377000D01*
X227853066Y-99377000D01*
X227853066Y-99123000D01*
X227873066Y-99123000D01*
X227873066Y-99103000D01*
X228127066Y-99103000D01*
X228127066Y-99123000D01*
X229476316Y-99123000D01*
X229635066Y-98964250D01*
X229635084Y-98960000D01*
X237031708Y-98960000D01*
X237031726Y-98964250D01*
G36*
X137031766Y-98964250D02*
G01*
X137190516Y-99123000D01*
X138539766Y-99123000D01*
X138539766Y-99103000D01*
X138793766Y-99103000D01*
X138793766Y-99123000D01*
X138813766Y-99123000D01*
X138813766Y-99377000D01*
X138793766Y-99377000D01*
X138793766Y-100726250D01*
X138952516Y-100885000D01*
X139666766Y-100888072D01*
X139767399Y-100878161D01*
X139711128Y-100962376D01*
X139625569Y-101168933D01*
X139581952Y-101388212D01*
X139581952Y-101611788D01*
X139625569Y-101831067D01*
X139711128Y-102037624D01*
X139767399Y-102121839D01*
X139666766Y-102111928D01*
X138952516Y-102115000D01*
X138793766Y-102273750D01*
X138793766Y-103623000D01*
X138813766Y-103623000D01*
X138813766Y-103877000D01*
X138793766Y-103877000D01*
X138793766Y-103897000D01*
X138539766Y-103897000D01*
X138539766Y-103877000D01*
X137190516Y-103877000D01*
X137031766Y-104035750D01*
X137031748Y-104040000D01*
X129636200Y-104040000D01*
X129635106Y-103785750D01*
X129476356Y-103627000D01*
X128127106Y-103627000D01*
X128127106Y-103647000D01*
X127873106Y-103647000D01*
X127873106Y-103627000D01*
X127853106Y-103627000D01*
X127853106Y-103373000D01*
X127873106Y-103373000D01*
X127873106Y-103353000D01*
X128127106Y-103353000D01*
X128127106Y-103373000D01*
X129476356Y-103373000D01*
X129635106Y-103214250D01*
X129637102Y-102750000D01*
X137028694Y-102750000D01*
X137031766Y-103464250D01*
X137190516Y-103623000D01*
X138539766Y-103623000D01*
X138539766Y-102273750D01*
X138381016Y-102115000D01*
X137666766Y-102111928D01*
X137542284Y-102124188D01*
X137422586Y-102160498D01*
X137312272Y-102219463D01*
X137215581Y-102298815D01*
X137136229Y-102395506D01*
X137077264Y-102505820D01*
X137040954Y-102625518D01*
X137028694Y-102750000D01*
X129637102Y-102750000D01*
X129638178Y-102500000D01*
X129625918Y-102375518D01*
X129592985Y-102266954D01*
X132305702Y-102266954D01*
X132343379Y-102323341D01*
X132501471Y-102481433D01*
X132687367Y-102605645D01*
X132893924Y-102691204D01*
X133113203Y-102734821D01*
X133336779Y-102734821D01*
X133556058Y-102691204D01*
X133762615Y-102605645D01*
X133948511Y-102481433D01*
X134106603Y-102323341D01*
X134230815Y-102137445D01*
X134316374Y-101930888D01*
X134359991Y-101711609D01*
X134359991Y-101488033D01*
X134316374Y-101268754D01*
X134230815Y-101062197D01*
X134106603Y-100876301D01*
X133948511Y-100718209D01*
X133762615Y-100593997D01*
X133556058Y-100508438D01*
X133336779Y-100464821D01*
X133113203Y-100464821D01*
X132893924Y-100508438D01*
X132687367Y-100593997D01*
X132533281Y-100696954D01*
X126125146Y-100696954D01*
X126060332Y-100632140D01*
X126124588Y-100625812D01*
X126244286Y-100589502D01*
X126354600Y-100530537D01*
X126451291Y-100451185D01*
X126500106Y-100391704D01*
X126548921Y-100451185D01*
X126645612Y-100530537D01*
X126755926Y-100589502D01*
X126875624Y-100625812D01*
X127000106Y-100638072D01*
X127714356Y-100635000D01*
X127873106Y-100476250D01*
X127873106Y-99127000D01*
X128127106Y-99127000D01*
X128127106Y-100476250D01*
X128285856Y-100635000D01*
X129000106Y-100638072D01*
X129124588Y-100625812D01*
X129244286Y-100589502D01*
X129354600Y-100530537D01*
X129451291Y-100451185D01*
X129530643Y-100354494D01*
X129586497Y-100250000D01*
X137028694Y-100250000D01*
X137040954Y-100374482D01*
X137077264Y-100494180D01*
X137136229Y-100604494D01*
X137215581Y-100701185D01*
X137312272Y-100780537D01*
X137422586Y-100839502D01*
X137542284Y-100875812D01*
X137666766Y-100888072D01*
X138381016Y-100885000D01*
X138539766Y-100726250D01*
X138539766Y-99377000D01*
X137190516Y-99377000D01*
X137031766Y-99535750D01*
X137028694Y-100250000D01*
X129586497Y-100250000D01*
X129589608Y-100244180D01*
X129625918Y-100124482D01*
X129638178Y-100000000D01*
X129635106Y-99285750D01*
X129476356Y-99127000D01*
X128127106Y-99127000D01*
X127873106Y-99127000D01*
X127853106Y-99127000D01*
X127853106Y-98960000D01*
X137031748Y-98960000D01*
X137031766Y-98964250D01*
X137031766Y-98964250D01*
G37*
X137031766Y-98964250D02*
X137190516Y-99123000D01*
X138539766Y-99123000D01*
X138539766Y-99103000D01*
X138793766Y-99103000D01*
X138793766Y-99123000D01*
X138813766Y-99123000D01*
X138813766Y-99377000D01*
X138793766Y-99377000D01*
X138793766Y-100726250D01*
X138952516Y-100885000D01*
X139666766Y-100888072D01*
X139767399Y-100878161D01*
X139711128Y-100962376D01*
X139625569Y-101168933D01*
X139581952Y-101388212D01*
X139581952Y-101611788D01*
X139625569Y-101831067D01*
X139711128Y-102037624D01*
X139767399Y-102121839D01*
X139666766Y-102111928D01*
X138952516Y-102115000D01*
X138793766Y-102273750D01*
X138793766Y-103623000D01*
X138813766Y-103623000D01*
X138813766Y-103877000D01*
X138793766Y-103877000D01*
X138793766Y-103897000D01*
X138539766Y-103897000D01*
X138539766Y-103877000D01*
X137190516Y-103877000D01*
X137031766Y-104035750D01*
X137031748Y-104040000D01*
X129636200Y-104040000D01*
X129635106Y-103785750D01*
X129476356Y-103627000D01*
X128127106Y-103627000D01*
X128127106Y-103647000D01*
X127873106Y-103647000D01*
X127873106Y-103627000D01*
X127853106Y-103627000D01*
X127853106Y-103373000D01*
X127873106Y-103373000D01*
X127873106Y-103353000D01*
X128127106Y-103353000D01*
X128127106Y-103373000D01*
X129476356Y-103373000D01*
X129635106Y-103214250D01*
X129637102Y-102750000D01*
X137028694Y-102750000D01*
X137031766Y-103464250D01*
X137190516Y-103623000D01*
X138539766Y-103623000D01*
X138539766Y-102273750D01*
X138381016Y-102115000D01*
X137666766Y-102111928D01*
X137542284Y-102124188D01*
X137422586Y-102160498D01*
X137312272Y-102219463D01*
X137215581Y-102298815D01*
X137136229Y-102395506D01*
X137077264Y-102505820D01*
X137040954Y-102625518D01*
X137028694Y-102750000D01*
X129637102Y-102750000D01*
X129638178Y-102500000D01*
X129625918Y-102375518D01*
X129592985Y-102266954D01*
X132305702Y-102266954D01*
X132343379Y-102323341D01*
X132501471Y-102481433D01*
X132687367Y-102605645D01*
X132893924Y-102691204D01*
X133113203Y-102734821D01*
X133336779Y-102734821D01*
X133556058Y-102691204D01*
X133762615Y-102605645D01*
X133948511Y-102481433D01*
X134106603Y-102323341D01*
X134230815Y-102137445D01*
X134316374Y-101930888D01*
X134359991Y-101711609D01*
X134359991Y-101488033D01*
X134316374Y-101268754D01*
X134230815Y-101062197D01*
X134106603Y-100876301D01*
X133948511Y-100718209D01*
X133762615Y-100593997D01*
X133556058Y-100508438D01*
X133336779Y-100464821D01*
X133113203Y-100464821D01*
X132893924Y-100508438D01*
X132687367Y-100593997D01*
X132533281Y-100696954D01*
X126125146Y-100696954D01*
X126060332Y-100632140D01*
X126124588Y-100625812D01*
X126244286Y-100589502D01*
X126354600Y-100530537D01*
X126451291Y-100451185D01*
X126500106Y-100391704D01*
X126548921Y-100451185D01*
X126645612Y-100530537D01*
X126755926Y-100589502D01*
X126875624Y-100625812D01*
X127000106Y-100638072D01*
X127714356Y-100635000D01*
X127873106Y-100476250D01*
X127873106Y-99127000D01*
X128127106Y-99127000D01*
X128127106Y-100476250D01*
X128285856Y-100635000D01*
X129000106Y-100638072D01*
X129124588Y-100625812D01*
X129244286Y-100589502D01*
X129354600Y-100530537D01*
X129451291Y-100451185D01*
X129530643Y-100354494D01*
X129586497Y-100250000D01*
X137028694Y-100250000D01*
X137040954Y-100374482D01*
X137077264Y-100494180D01*
X137136229Y-100604494D01*
X137215581Y-100701185D01*
X137312272Y-100780537D01*
X137422586Y-100839502D01*
X137542284Y-100875812D01*
X137666766Y-100888072D01*
X138381016Y-100885000D01*
X138539766Y-100726250D01*
X138539766Y-99377000D01*
X137190516Y-99377000D01*
X137031766Y-99535750D01*
X137028694Y-100250000D01*
X129586497Y-100250000D01*
X129589608Y-100244180D01*
X129625918Y-100124482D01*
X129638178Y-100000000D01*
X129635106Y-99285750D01*
X129476356Y-99127000D01*
X128127106Y-99127000D01*
X127873106Y-99127000D01*
X127853106Y-99127000D01*
X127853106Y-98960000D01*
X137031748Y-98960000D01*
X137031766Y-98964250D01*
G36*
X103698446Y-98964250D02*
G01*
X103857196Y-99123000D01*
X105206446Y-99123000D01*
X105206446Y-99103000D01*
X105460446Y-99103000D01*
X105460446Y-99123000D01*
X105480446Y-99123000D01*
X105480446Y-99377000D01*
X105460446Y-99377000D01*
X105460446Y-100726250D01*
X105619196Y-100885000D01*
X106333446Y-100888072D01*
X106433993Y-100878169D01*
X106377728Y-100962376D01*
X106292169Y-101168933D01*
X106248552Y-101388212D01*
X106248552Y-101611788D01*
X106292169Y-101831067D01*
X106377728Y-102037624D01*
X106433993Y-102121831D01*
X106333446Y-102111928D01*
X105619196Y-102115000D01*
X105460446Y-102273750D01*
X105460446Y-103623000D01*
X105480446Y-103623000D01*
X105480446Y-103877000D01*
X105460446Y-103877000D01*
X105460446Y-103897000D01*
X105206446Y-103897000D01*
X105206446Y-103877000D01*
X103857196Y-103877000D01*
X103698446Y-104035750D01*
X103698428Y-104040000D01*
X96301804Y-104040000D01*
X96301786Y-104035750D01*
X96143036Y-103877000D01*
X94793786Y-103877000D01*
X94793786Y-103897000D01*
X94539786Y-103897000D01*
X94539786Y-103877000D01*
X94519786Y-103877000D01*
X94519786Y-103623000D01*
X94539786Y-103623000D01*
X94539786Y-103603000D01*
X94793786Y-103603000D01*
X94793786Y-103623000D01*
X96143036Y-103623000D01*
X96301786Y-103464250D01*
X96304858Y-102750000D01*
X103695374Y-102750000D01*
X103698446Y-103464250D01*
X103857196Y-103623000D01*
X105206446Y-103623000D01*
X105206446Y-102273750D01*
X105047696Y-102115000D01*
X104333446Y-102111928D01*
X104208964Y-102124188D01*
X104089266Y-102160498D01*
X103978952Y-102219463D01*
X103882261Y-102298815D01*
X103802909Y-102395506D01*
X103743944Y-102505820D01*
X103707634Y-102625518D01*
X103695374Y-102750000D01*
X96304858Y-102750000D01*
X96292598Y-102625518D01*
X96256288Y-102505820D01*
X96197323Y-102395506D01*
X96117971Y-102298815D01*
X96079148Y-102266954D01*
X98972302Y-102266954D01*
X99009979Y-102323341D01*
X99168071Y-102481433D01*
X99353967Y-102605645D01*
X99560524Y-102691204D01*
X99779803Y-102734821D01*
X100003379Y-102734821D01*
X100222658Y-102691204D01*
X100429215Y-102605645D01*
X100615111Y-102481433D01*
X100773203Y-102323341D01*
X100897415Y-102137445D01*
X100982974Y-101930888D01*
X101026591Y-101711609D01*
X101026591Y-101488033D01*
X100982974Y-101268754D01*
X100897415Y-101062197D01*
X100773203Y-100876301D01*
X100615111Y-100718209D01*
X100429215Y-100593997D01*
X100222658Y-100508438D01*
X100003379Y-100464821D01*
X99779803Y-100464821D01*
X99560524Y-100508438D01*
X99353967Y-100593997D01*
X99199881Y-100696954D01*
X96121443Y-100696954D01*
X96197323Y-100604494D01*
X96256288Y-100494180D01*
X96292598Y-100374482D01*
X96304858Y-100250000D01*
X103695374Y-100250000D01*
X103707634Y-100374482D01*
X103743944Y-100494180D01*
X103802909Y-100604494D01*
X103882261Y-100701185D01*
X103978952Y-100780537D01*
X104089266Y-100839502D01*
X104208964Y-100875812D01*
X104333446Y-100888072D01*
X105047696Y-100885000D01*
X105206446Y-100726250D01*
X105206446Y-99377000D01*
X103857196Y-99377000D01*
X103698446Y-99535750D01*
X103695374Y-100250000D01*
X96304858Y-100250000D01*
X96301786Y-99535750D01*
X96143036Y-99377000D01*
X94793786Y-99377000D01*
X94793786Y-99397000D01*
X94539786Y-99397000D01*
X94539786Y-99377000D01*
X94519786Y-99377000D01*
X94519786Y-99123000D01*
X94539786Y-99123000D01*
X94539786Y-99103000D01*
X94793786Y-99103000D01*
X94793786Y-99123000D01*
X96143036Y-99123000D01*
X96301786Y-98964250D01*
X96301804Y-98960000D01*
X103698428Y-98960000D01*
X103698446Y-98964250D01*
X103698446Y-98964250D01*
G37*
X103698446Y-98964250D02*
X103857196Y-99123000D01*
X105206446Y-99123000D01*
X105206446Y-99103000D01*
X105460446Y-99103000D01*
X105460446Y-99123000D01*
X105480446Y-99123000D01*
X105480446Y-99377000D01*
X105460446Y-99377000D01*
X105460446Y-100726250D01*
X105619196Y-100885000D01*
X106333446Y-100888072D01*
X106433993Y-100878169D01*
X106377728Y-100962376D01*
X106292169Y-101168933D01*
X106248552Y-101388212D01*
X106248552Y-101611788D01*
X106292169Y-101831067D01*
X106377728Y-102037624D01*
X106433993Y-102121831D01*
X106333446Y-102111928D01*
X105619196Y-102115000D01*
X105460446Y-102273750D01*
X105460446Y-103623000D01*
X105480446Y-103623000D01*
X105480446Y-103877000D01*
X105460446Y-103877000D01*
X105460446Y-103897000D01*
X105206446Y-103897000D01*
X105206446Y-103877000D01*
X103857196Y-103877000D01*
X103698446Y-104035750D01*
X103698428Y-104040000D01*
X96301804Y-104040000D01*
X96301786Y-104035750D01*
X96143036Y-103877000D01*
X94793786Y-103877000D01*
X94793786Y-103897000D01*
X94539786Y-103897000D01*
X94539786Y-103877000D01*
X94519786Y-103877000D01*
X94519786Y-103623000D01*
X94539786Y-103623000D01*
X94539786Y-103603000D01*
X94793786Y-103603000D01*
X94793786Y-103623000D01*
X96143036Y-103623000D01*
X96301786Y-103464250D01*
X96304858Y-102750000D01*
X103695374Y-102750000D01*
X103698446Y-103464250D01*
X103857196Y-103623000D01*
X105206446Y-103623000D01*
X105206446Y-102273750D01*
X105047696Y-102115000D01*
X104333446Y-102111928D01*
X104208964Y-102124188D01*
X104089266Y-102160498D01*
X103978952Y-102219463D01*
X103882261Y-102298815D01*
X103802909Y-102395506D01*
X103743944Y-102505820D01*
X103707634Y-102625518D01*
X103695374Y-102750000D01*
X96304858Y-102750000D01*
X96292598Y-102625518D01*
X96256288Y-102505820D01*
X96197323Y-102395506D01*
X96117971Y-102298815D01*
X96079148Y-102266954D01*
X98972302Y-102266954D01*
X99009979Y-102323341D01*
X99168071Y-102481433D01*
X99353967Y-102605645D01*
X99560524Y-102691204D01*
X99779803Y-102734821D01*
X100003379Y-102734821D01*
X100222658Y-102691204D01*
X100429215Y-102605645D01*
X100615111Y-102481433D01*
X100773203Y-102323341D01*
X100897415Y-102137445D01*
X100982974Y-101930888D01*
X101026591Y-101711609D01*
X101026591Y-101488033D01*
X100982974Y-101268754D01*
X100897415Y-101062197D01*
X100773203Y-100876301D01*
X100615111Y-100718209D01*
X100429215Y-100593997D01*
X100222658Y-100508438D01*
X100003379Y-100464821D01*
X99779803Y-100464821D01*
X99560524Y-100508438D01*
X99353967Y-100593997D01*
X99199881Y-100696954D01*
X96121443Y-100696954D01*
X96197323Y-100604494D01*
X96256288Y-100494180D01*
X96292598Y-100374482D01*
X96304858Y-100250000D01*
X103695374Y-100250000D01*
X103707634Y-100374482D01*
X103743944Y-100494180D01*
X103802909Y-100604494D01*
X103882261Y-100701185D01*
X103978952Y-100780537D01*
X104089266Y-100839502D01*
X104208964Y-100875812D01*
X104333446Y-100888072D01*
X105047696Y-100885000D01*
X105206446Y-100726250D01*
X105206446Y-99377000D01*
X103857196Y-99377000D01*
X103698446Y-99535750D01*
X103695374Y-100250000D01*
X96304858Y-100250000D01*
X96301786Y-99535750D01*
X96143036Y-99377000D01*
X94793786Y-99377000D01*
X94793786Y-99397000D01*
X94539786Y-99397000D01*
X94539786Y-99377000D01*
X94519786Y-99377000D01*
X94519786Y-99123000D01*
X94539786Y-99123000D01*
X94539786Y-99103000D01*
X94793786Y-99103000D01*
X94793786Y-99123000D01*
X96143036Y-99123000D01*
X96301786Y-98964250D01*
X96301804Y-98960000D01*
X103698428Y-98960000D01*
X103698446Y-98964250D01*
G36*
X264169779Y-103119467D02*
G01*
X264077609Y-103344718D01*
X264073738Y-103382391D01*
X264198469Y-103573000D01*
X266540200Y-103573000D01*
X266540200Y-103553000D01*
X266794200Y-103553000D01*
X266794200Y-103573000D01*
X269135931Y-103573000D01*
X269260662Y-103382391D01*
X269256791Y-103344718D01*
X269164621Y-103119467D01*
X269097672Y-103018332D01*
X272217865Y-103018332D01*
X272877347Y-103677815D01*
X272901926Y-103707764D01*
X272931874Y-103732342D01*
X272931877Y-103732345D01*
X272950194Y-103747377D01*
X273021457Y-103805862D01*
X273157830Y-103878754D01*
X273271362Y-103913194D01*
X273305802Y-103923641D01*
X273320180Y-103925057D01*
X273338528Y-103926864D01*
X273443276Y-104031612D01*
X273455830Y-104040000D01*
X269258361Y-104040000D01*
X269260662Y-104017609D01*
X269135931Y-103827000D01*
X266794200Y-103827000D01*
X266794200Y-103847000D01*
X266540200Y-103847000D01*
X266540200Y-103827000D01*
X264198469Y-103827000D01*
X264073738Y-104017609D01*
X264076039Y-104040000D01*
X262968404Y-104040000D01*
X262968386Y-104035750D01*
X262809636Y-103877000D01*
X261460386Y-103877000D01*
X261460386Y-103897000D01*
X261206386Y-103897000D01*
X261206386Y-103877000D01*
X261186386Y-103877000D01*
X261186386Y-103623000D01*
X261206386Y-103623000D01*
X261206386Y-103603000D01*
X261460386Y-103603000D01*
X261460386Y-103623000D01*
X262809636Y-103623000D01*
X262968386Y-103464250D01*
X262970304Y-103018332D01*
X264236728Y-103018332D01*
X264169779Y-103119467D01*
X264169779Y-103119467D01*
G37*
X264169779Y-103119467D02*
X264077609Y-103344718D01*
X264073738Y-103382391D01*
X264198469Y-103573000D01*
X266540200Y-103573000D01*
X266540200Y-103553000D01*
X266794200Y-103553000D01*
X266794200Y-103573000D01*
X269135931Y-103573000D01*
X269260662Y-103382391D01*
X269256791Y-103344718D01*
X269164621Y-103119467D01*
X269097672Y-103018332D01*
X272217865Y-103018332D01*
X272877347Y-103677815D01*
X272901926Y-103707764D01*
X272931874Y-103732342D01*
X272931877Y-103732345D01*
X272950194Y-103747377D01*
X273021457Y-103805862D01*
X273157830Y-103878754D01*
X273271362Y-103913194D01*
X273305802Y-103923641D01*
X273320180Y-103925057D01*
X273338528Y-103926864D01*
X273443276Y-104031612D01*
X273455830Y-104040000D01*
X269258361Y-104040000D01*
X269260662Y-104017609D01*
X269135931Y-103827000D01*
X266794200Y-103827000D01*
X266794200Y-103847000D01*
X266540200Y-103847000D01*
X266540200Y-103827000D01*
X264198469Y-103827000D01*
X264073738Y-104017609D01*
X264076039Y-104040000D01*
X262968404Y-104040000D01*
X262968386Y-104035750D01*
X262809636Y-103877000D01*
X261460386Y-103877000D01*
X261460386Y-103897000D01*
X261206386Y-103897000D01*
X261206386Y-103877000D01*
X261186386Y-103877000D01*
X261186386Y-103623000D01*
X261206386Y-103623000D01*
X261206386Y-103603000D01*
X261460386Y-103603000D01*
X261460386Y-103623000D01*
X262809636Y-103623000D01*
X262968386Y-103464250D01*
X262970304Y-103018332D01*
X264236728Y-103018332D01*
X264169779Y-103119467D01*
G36*
X313279228Y-103100000D02*
G01*
X313282300Y-103414250D01*
X313441050Y-103573000D01*
X315040300Y-103573000D01*
X315040300Y-103553000D01*
X315294300Y-103553000D01*
X315294300Y-103573000D01*
X315314300Y-103573000D01*
X315314300Y-103827000D01*
X315294300Y-103827000D01*
X315294300Y-103847000D01*
X315040300Y-103847000D01*
X315040300Y-103827000D01*
X313441050Y-103827000D01*
X313282300Y-103985750D01*
X313281770Y-104040000D01*
X308211162Y-104040000D01*
X308223716Y-104031612D01*
X308381808Y-103873520D01*
X308506020Y-103687624D01*
X308589950Y-103485000D01*
X308811984Y-103485000D01*
X309031263Y-103441383D01*
X309237820Y-103355824D01*
X309423716Y-103231612D01*
X309581808Y-103073520D01*
X309618684Y-103018332D01*
X313287271Y-103018332D01*
X313279228Y-103100000D01*
X313279228Y-103100000D01*
G37*
X313279228Y-103100000D02*
X313282300Y-103414250D01*
X313441050Y-103573000D01*
X315040300Y-103573000D01*
X315040300Y-103553000D01*
X315294300Y-103553000D01*
X315294300Y-103573000D01*
X315314300Y-103573000D01*
X315314300Y-103827000D01*
X315294300Y-103827000D01*
X315294300Y-103847000D01*
X315040300Y-103847000D01*
X315040300Y-103827000D01*
X313441050Y-103827000D01*
X313282300Y-103985750D01*
X313281770Y-104040000D01*
X308211162Y-104040000D01*
X308223716Y-104031612D01*
X308381808Y-103873520D01*
X308506020Y-103687624D01*
X308589950Y-103485000D01*
X308811984Y-103485000D01*
X309031263Y-103441383D01*
X309237820Y-103355824D01*
X309423716Y-103231612D01*
X309581808Y-103073520D01*
X309618684Y-103018332D01*
X313287271Y-103018332D01*
X313279228Y-103100000D01*
G36*
X253698386Y-98964250D02*
G01*
X253857136Y-99123000D01*
X255206386Y-99123000D01*
X255206386Y-99103000D01*
X255460386Y-99103000D01*
X255460386Y-99123000D01*
X255480386Y-99123000D01*
X255480386Y-99377000D01*
X255460386Y-99377000D01*
X255460386Y-100726250D01*
X255619136Y-100885000D01*
X256241876Y-100887678D01*
X256241876Y-100934253D01*
X256221016Y-100959671D01*
X256194279Y-101009693D01*
X256148123Y-101096045D01*
X256103236Y-101244018D01*
X256088080Y-101397904D01*
X256091878Y-101436467D01*
X256091878Y-102112967D01*
X255619136Y-102115000D01*
X255460386Y-102273750D01*
X255460386Y-103623000D01*
X255480386Y-103623000D01*
X255480386Y-103877000D01*
X255460386Y-103877000D01*
X255460386Y-103897000D01*
X255206386Y-103897000D01*
X255206386Y-103877000D01*
X253857136Y-103877000D01*
X253698386Y-104035750D01*
X253698368Y-104040000D01*
X246301744Y-104040000D01*
X246301726Y-104035750D01*
X246142976Y-103877000D01*
X244793726Y-103877000D01*
X244793726Y-103897000D01*
X244539726Y-103897000D01*
X244539726Y-103877000D01*
X244519726Y-103877000D01*
X244519726Y-103623000D01*
X244539726Y-103623000D01*
X244539726Y-102273750D01*
X244793726Y-102273750D01*
X244793726Y-103623000D01*
X246142976Y-103623000D01*
X246301726Y-103464250D01*
X246304798Y-102750000D01*
X246292538Y-102625518D01*
X246256228Y-102505820D01*
X246197263Y-102395506D01*
X246117911Y-102298815D01*
X246021220Y-102219463D01*
X245910906Y-102160498D01*
X245791208Y-102124188D01*
X245666726Y-102111928D01*
X244952476Y-102115000D01*
X244793726Y-102273750D01*
X244539726Y-102273750D01*
X244380976Y-102115000D01*
X243666726Y-102111928D01*
X243542244Y-102124188D01*
X243422546Y-102160498D01*
X243312232Y-102219463D01*
X243215541Y-102298815D01*
X243166726Y-102358296D01*
X243117911Y-102298815D01*
X243021220Y-102219463D01*
X242910906Y-102160498D01*
X242888184Y-102153605D01*
X242977738Y-102019578D01*
X243063297Y-101813021D01*
X243106914Y-101593742D01*
X243106914Y-101457112D01*
X243129025Y-101435001D01*
X250441636Y-101435001D01*
X250631796Y-101625161D01*
X250631796Y-101761792D01*
X250675413Y-101981071D01*
X250760972Y-102187628D01*
X250885184Y-102373524D01*
X251043276Y-102531616D01*
X251229172Y-102655828D01*
X251435729Y-102741387D01*
X251655008Y-102785004D01*
X251878584Y-102785004D01*
X252054562Y-102750000D01*
X253695314Y-102750000D01*
X253698386Y-103464250D01*
X253857136Y-103623000D01*
X255206386Y-103623000D01*
X255206386Y-102273750D01*
X255047636Y-102115000D01*
X254333386Y-102111928D01*
X254208904Y-102124188D01*
X254089206Y-102160498D01*
X253978892Y-102219463D01*
X253882201Y-102298815D01*
X253802849Y-102395506D01*
X253743884Y-102505820D01*
X253707574Y-102625518D01*
X253695314Y-102750000D01*
X252054562Y-102750000D01*
X252097863Y-102741387D01*
X252304420Y-102655828D01*
X252490316Y-102531616D01*
X252648408Y-102373524D01*
X252772620Y-102187628D01*
X252858179Y-101981071D01*
X252901796Y-101761792D01*
X252901796Y-101538216D01*
X252858179Y-101318937D01*
X252772620Y-101112380D01*
X252648408Y-100926484D01*
X252490316Y-100768392D01*
X252304420Y-100644180D01*
X252097863Y-100558621D01*
X251878584Y-100515004D01*
X251741953Y-100515004D01*
X251476949Y-100250000D01*
X253695314Y-100250000D01*
X253707574Y-100374482D01*
X253743884Y-100494180D01*
X253802849Y-100604494D01*
X253882201Y-100701185D01*
X253978892Y-100780537D01*
X254089206Y-100839502D01*
X254208904Y-100875812D01*
X254333386Y-100888072D01*
X255047636Y-100885000D01*
X255206386Y-100726250D01*
X255206386Y-99377000D01*
X253857136Y-99377000D01*
X253698386Y-99535750D01*
X253695314Y-100250000D01*
X251476949Y-100250000D01*
X251349140Y-100122191D01*
X251324557Y-100092237D01*
X251205026Y-99994139D01*
X251068653Y-99921247D01*
X250920680Y-99876360D01*
X250805354Y-99865001D01*
X250805346Y-99865001D01*
X250766793Y-99861204D01*
X250728240Y-99865001D01*
X246303142Y-99865001D01*
X246301726Y-99535750D01*
X246142976Y-99377000D01*
X244793726Y-99377000D01*
X244793726Y-99397000D01*
X244539726Y-99397000D01*
X244539726Y-99377000D01*
X244519726Y-99377000D01*
X244519726Y-99123000D01*
X244539726Y-99123000D01*
X244539726Y-99103000D01*
X244793726Y-99103000D01*
X244793726Y-99123000D01*
X246142976Y-99123000D01*
X246301726Y-98964250D01*
X246301744Y-98960000D01*
X253698368Y-98960000D01*
X253698386Y-98964250D01*
X253698386Y-98964250D01*
G37*
X253698386Y-98964250D02*
X253857136Y-99123000D01*
X255206386Y-99123000D01*
X255206386Y-99103000D01*
X255460386Y-99103000D01*
X255460386Y-99123000D01*
X255480386Y-99123000D01*
X255480386Y-99377000D01*
X255460386Y-99377000D01*
X255460386Y-100726250D01*
X255619136Y-100885000D01*
X256241876Y-100887678D01*
X256241876Y-100934253D01*
X256221016Y-100959671D01*
X256194279Y-101009693D01*
X256148123Y-101096045D01*
X256103236Y-101244018D01*
X256088080Y-101397904D01*
X256091878Y-101436467D01*
X256091878Y-102112967D01*
X255619136Y-102115000D01*
X255460386Y-102273750D01*
X255460386Y-103623000D01*
X255480386Y-103623000D01*
X255480386Y-103877000D01*
X255460386Y-103877000D01*
X255460386Y-103897000D01*
X255206386Y-103897000D01*
X255206386Y-103877000D01*
X253857136Y-103877000D01*
X253698386Y-104035750D01*
X253698368Y-104040000D01*
X246301744Y-104040000D01*
X246301726Y-104035750D01*
X246142976Y-103877000D01*
X244793726Y-103877000D01*
X244793726Y-103897000D01*
X244539726Y-103897000D01*
X244539726Y-103877000D01*
X244519726Y-103877000D01*
X244519726Y-103623000D01*
X244539726Y-103623000D01*
X244539726Y-102273750D01*
X244793726Y-102273750D01*
X244793726Y-103623000D01*
X246142976Y-103623000D01*
X246301726Y-103464250D01*
X246304798Y-102750000D01*
X246292538Y-102625518D01*
X246256228Y-102505820D01*
X246197263Y-102395506D01*
X246117911Y-102298815D01*
X246021220Y-102219463D01*
X245910906Y-102160498D01*
X245791208Y-102124188D01*
X245666726Y-102111928D01*
X244952476Y-102115000D01*
X244793726Y-102273750D01*
X244539726Y-102273750D01*
X244380976Y-102115000D01*
X243666726Y-102111928D01*
X243542244Y-102124188D01*
X243422546Y-102160498D01*
X243312232Y-102219463D01*
X243215541Y-102298815D01*
X243166726Y-102358296D01*
X243117911Y-102298815D01*
X243021220Y-102219463D01*
X242910906Y-102160498D01*
X242888184Y-102153605D01*
X242977738Y-102019578D01*
X243063297Y-101813021D01*
X243106914Y-101593742D01*
X243106914Y-101457112D01*
X243129025Y-101435001D01*
X250441636Y-101435001D01*
X250631796Y-101625161D01*
X250631796Y-101761792D01*
X250675413Y-101981071D01*
X250760972Y-102187628D01*
X250885184Y-102373524D01*
X251043276Y-102531616D01*
X251229172Y-102655828D01*
X251435729Y-102741387D01*
X251655008Y-102785004D01*
X251878584Y-102785004D01*
X252054562Y-102750000D01*
X253695314Y-102750000D01*
X253698386Y-103464250D01*
X253857136Y-103623000D01*
X255206386Y-103623000D01*
X255206386Y-102273750D01*
X255047636Y-102115000D01*
X254333386Y-102111928D01*
X254208904Y-102124188D01*
X254089206Y-102160498D01*
X253978892Y-102219463D01*
X253882201Y-102298815D01*
X253802849Y-102395506D01*
X253743884Y-102505820D01*
X253707574Y-102625518D01*
X253695314Y-102750000D01*
X252054562Y-102750000D01*
X252097863Y-102741387D01*
X252304420Y-102655828D01*
X252490316Y-102531616D01*
X252648408Y-102373524D01*
X252772620Y-102187628D01*
X252858179Y-101981071D01*
X252901796Y-101761792D01*
X252901796Y-101538216D01*
X252858179Y-101318937D01*
X252772620Y-101112380D01*
X252648408Y-100926484D01*
X252490316Y-100768392D01*
X252304420Y-100644180D01*
X252097863Y-100558621D01*
X251878584Y-100515004D01*
X251741953Y-100515004D01*
X251476949Y-100250000D01*
X253695314Y-100250000D01*
X253707574Y-100374482D01*
X253743884Y-100494180D01*
X253802849Y-100604494D01*
X253882201Y-100701185D01*
X253978892Y-100780537D01*
X254089206Y-100839502D01*
X254208904Y-100875812D01*
X254333386Y-100888072D01*
X255047636Y-100885000D01*
X255206386Y-100726250D01*
X255206386Y-99377000D01*
X253857136Y-99377000D01*
X253698386Y-99535750D01*
X253695314Y-100250000D01*
X251476949Y-100250000D01*
X251349140Y-100122191D01*
X251324557Y-100092237D01*
X251205026Y-99994139D01*
X251068653Y-99921247D01*
X250920680Y-99876360D01*
X250805354Y-99865001D01*
X250805346Y-99865001D01*
X250766793Y-99861204D01*
X250728240Y-99865001D01*
X246303142Y-99865001D01*
X246301726Y-99535750D01*
X246142976Y-99377000D01*
X244793726Y-99377000D01*
X244793726Y-99397000D01*
X244539726Y-99397000D01*
X244539726Y-99377000D01*
X244519726Y-99377000D01*
X244519726Y-99123000D01*
X244539726Y-99123000D01*
X244539726Y-99103000D01*
X244793726Y-99103000D01*
X244793726Y-99123000D01*
X246142976Y-99123000D01*
X246301726Y-98964250D01*
X246301744Y-98960000D01*
X253698368Y-98960000D01*
X253698386Y-98964250D01*
G36*
X72147126Y-99127000D02*
G01*
X72127126Y-99127000D01*
X72127126Y-100476250D01*
X72285876Y-100635000D01*
X73000126Y-100638072D01*
X73124608Y-100625812D01*
X73244306Y-100589502D01*
X73354620Y-100530537D01*
X73361797Y-100524647D01*
X73361797Y-100594892D01*
X73326632Y-100618388D01*
X73168540Y-100776480D01*
X73044328Y-100962376D01*
X72958769Y-101168933D01*
X72915152Y-101388212D01*
X72915152Y-101611788D01*
X72958769Y-101831067D01*
X72971603Y-101862051D01*
X72285876Y-101865000D01*
X72127126Y-102023750D01*
X72127126Y-103373000D01*
X72147126Y-103373000D01*
X72147126Y-103627000D01*
X72127126Y-103627000D01*
X72127126Y-103647000D01*
X71873126Y-103647000D01*
X71873126Y-103627000D01*
X70523876Y-103627000D01*
X70365126Y-103785750D01*
X70364032Y-104040000D01*
X70052330Y-104040000D01*
X70051800Y-103985750D01*
X69893050Y-103827000D01*
X68293800Y-103827000D01*
X68293800Y-103847000D01*
X68039800Y-103847000D01*
X68039800Y-103827000D01*
X68019800Y-103827000D01*
X68019800Y-103573000D01*
X68039800Y-103573000D01*
X68039800Y-103553000D01*
X68293800Y-103553000D01*
X68293800Y-103573000D01*
X69893050Y-103573000D01*
X70051800Y-103414250D01*
X70054872Y-103100000D01*
X70042612Y-102975518D01*
X70039927Y-102966666D01*
X70042612Y-102957814D01*
X70054872Y-102833332D01*
X70054872Y-102500000D01*
X70362054Y-102500000D01*
X70365126Y-103214250D01*
X70523876Y-103373000D01*
X71873126Y-103373000D01*
X71873126Y-102023750D01*
X71714376Y-101865000D01*
X71000126Y-101861928D01*
X70875644Y-101874188D01*
X70755946Y-101910498D01*
X70645632Y-101969463D01*
X70548941Y-102048815D01*
X70469589Y-102145506D01*
X70410624Y-102255820D01*
X70374314Y-102375518D01*
X70362054Y-102500000D01*
X70054872Y-102500000D01*
X70054872Y-101633332D01*
X70042612Y-101508850D01*
X70039927Y-101499999D01*
X70042612Y-101491148D01*
X70054872Y-101366666D01*
X70054872Y-100166666D01*
X70042612Y-100042184D01*
X70039927Y-100033333D01*
X70042612Y-100024482D01*
X70045023Y-100000000D01*
X70362054Y-100000000D01*
X70374314Y-100124482D01*
X70410624Y-100244180D01*
X70469589Y-100354494D01*
X70548941Y-100451185D01*
X70645632Y-100530537D01*
X70755946Y-100589502D01*
X70875644Y-100625812D01*
X71000126Y-100638072D01*
X71714376Y-100635000D01*
X71873126Y-100476250D01*
X71873126Y-99127000D01*
X70523876Y-99127000D01*
X70365126Y-99285750D01*
X70362054Y-100000000D01*
X70045023Y-100000000D01*
X70054872Y-99900000D01*
X70054872Y-98960000D01*
X72147126Y-98960000D01*
X72147126Y-99127000D01*
X72147126Y-99127000D01*
G37*
X72147126Y-99127000D02*
X72127126Y-99127000D01*
X72127126Y-100476250D01*
X72285876Y-100635000D01*
X73000126Y-100638072D01*
X73124608Y-100625812D01*
X73244306Y-100589502D01*
X73354620Y-100530537D01*
X73361797Y-100524647D01*
X73361797Y-100594892D01*
X73326632Y-100618388D01*
X73168540Y-100776480D01*
X73044328Y-100962376D01*
X72958769Y-101168933D01*
X72915152Y-101388212D01*
X72915152Y-101611788D01*
X72958769Y-101831067D01*
X72971603Y-101862051D01*
X72285876Y-101865000D01*
X72127126Y-102023750D01*
X72127126Y-103373000D01*
X72147126Y-103373000D01*
X72147126Y-103627000D01*
X72127126Y-103627000D01*
X72127126Y-103647000D01*
X71873126Y-103647000D01*
X71873126Y-103627000D01*
X70523876Y-103627000D01*
X70365126Y-103785750D01*
X70364032Y-104040000D01*
X70052330Y-104040000D01*
X70051800Y-103985750D01*
X69893050Y-103827000D01*
X68293800Y-103827000D01*
X68293800Y-103847000D01*
X68039800Y-103847000D01*
X68039800Y-103827000D01*
X68019800Y-103827000D01*
X68019800Y-103573000D01*
X68039800Y-103573000D01*
X68039800Y-103553000D01*
X68293800Y-103553000D01*
X68293800Y-103573000D01*
X69893050Y-103573000D01*
X70051800Y-103414250D01*
X70054872Y-103100000D01*
X70042612Y-102975518D01*
X70039927Y-102966666D01*
X70042612Y-102957814D01*
X70054872Y-102833332D01*
X70054872Y-102500000D01*
X70362054Y-102500000D01*
X70365126Y-103214250D01*
X70523876Y-103373000D01*
X71873126Y-103373000D01*
X71873126Y-102023750D01*
X71714376Y-101865000D01*
X71000126Y-101861928D01*
X70875644Y-101874188D01*
X70755946Y-101910498D01*
X70645632Y-101969463D01*
X70548941Y-102048815D01*
X70469589Y-102145506D01*
X70410624Y-102255820D01*
X70374314Y-102375518D01*
X70362054Y-102500000D01*
X70054872Y-102500000D01*
X70054872Y-101633332D01*
X70042612Y-101508850D01*
X70039927Y-101499999D01*
X70042612Y-101491148D01*
X70054872Y-101366666D01*
X70054872Y-100166666D01*
X70042612Y-100042184D01*
X70039927Y-100033333D01*
X70042612Y-100024482D01*
X70045023Y-100000000D01*
X70362054Y-100000000D01*
X70374314Y-100124482D01*
X70410624Y-100244180D01*
X70469589Y-100354494D01*
X70548941Y-100451185D01*
X70645632Y-100530537D01*
X70755946Y-100589502D01*
X70875644Y-100625812D01*
X71000126Y-100638072D01*
X71714376Y-100635000D01*
X71873126Y-100476250D01*
X71873126Y-99127000D01*
X70523876Y-99127000D01*
X70365126Y-99285750D01*
X70362054Y-100000000D01*
X70045023Y-100000000D01*
X70054872Y-99900000D01*
X70054872Y-98960000D01*
X72147126Y-98960000D01*
X72147126Y-99127000D01*
G36*
X203698406Y-98964250D02*
G01*
X203857156Y-99123000D01*
X205206406Y-99123000D01*
X205206406Y-99103000D01*
X205460406Y-99103000D01*
X205460406Y-99123000D01*
X205480406Y-99123000D01*
X205480406Y-99377000D01*
X205460406Y-99377000D01*
X205460406Y-100726250D01*
X205619156Y-100885000D01*
X206333406Y-100888072D01*
X206434210Y-100878144D01*
X206377928Y-100962376D01*
X206292369Y-101168933D01*
X206248752Y-101388212D01*
X206248752Y-101611788D01*
X206292369Y-101831067D01*
X206377928Y-102037624D01*
X206434210Y-102121856D01*
X206333406Y-102111928D01*
X205619156Y-102115000D01*
X205460406Y-102273750D01*
X205460406Y-103623000D01*
X205480406Y-103623000D01*
X205480406Y-103877000D01*
X205460406Y-103877000D01*
X205460406Y-103897000D01*
X205206406Y-103897000D01*
X205206406Y-103877000D01*
X203857156Y-103877000D01*
X203698406Y-104035750D01*
X203698388Y-104040000D01*
X196301764Y-104040000D01*
X196301746Y-104035750D01*
X196142996Y-103877000D01*
X194793746Y-103877000D01*
X194793746Y-103897000D01*
X194539746Y-103897000D01*
X194539746Y-103877000D01*
X194519746Y-103877000D01*
X194519746Y-103623000D01*
X194539746Y-103623000D01*
X194539746Y-103603000D01*
X194793746Y-103603000D01*
X194793746Y-103623000D01*
X196142996Y-103623000D01*
X196301746Y-103464250D01*
X196304818Y-102750000D01*
X203695334Y-102750000D01*
X203698406Y-103464250D01*
X203857156Y-103623000D01*
X205206406Y-103623000D01*
X205206406Y-102273750D01*
X205047656Y-102115000D01*
X204333406Y-102111928D01*
X204208924Y-102124188D01*
X204089226Y-102160498D01*
X203978912Y-102219463D01*
X203882221Y-102298815D01*
X203802869Y-102395506D01*
X203743904Y-102505820D01*
X203707594Y-102625518D01*
X203695334Y-102750000D01*
X196304818Y-102750000D01*
X196292558Y-102625518D01*
X196256248Y-102505820D01*
X196197283Y-102395506D01*
X196117931Y-102298815D01*
X196079108Y-102266954D01*
X198972502Y-102266954D01*
X199010179Y-102323341D01*
X199168271Y-102481433D01*
X199354167Y-102605645D01*
X199560724Y-102691204D01*
X199780003Y-102734821D01*
X200003579Y-102734821D01*
X200222858Y-102691204D01*
X200429415Y-102605645D01*
X200615311Y-102481433D01*
X200773403Y-102323341D01*
X200897615Y-102137445D01*
X200983174Y-101930888D01*
X201026791Y-101711609D01*
X201026791Y-101488033D01*
X200983174Y-101268754D01*
X200897615Y-101062197D01*
X200773403Y-100876301D01*
X200615311Y-100718209D01*
X200429415Y-100593997D01*
X200222858Y-100508438D01*
X200003579Y-100464821D01*
X199780003Y-100464821D01*
X199560724Y-100508438D01*
X199354167Y-100593997D01*
X199200081Y-100696954D01*
X196121403Y-100696954D01*
X196197283Y-100604494D01*
X196256248Y-100494180D01*
X196292558Y-100374482D01*
X196304818Y-100250000D01*
X203695334Y-100250000D01*
X203707594Y-100374482D01*
X203743904Y-100494180D01*
X203802869Y-100604494D01*
X203882221Y-100701185D01*
X203978912Y-100780537D01*
X204089226Y-100839502D01*
X204208924Y-100875812D01*
X204333406Y-100888072D01*
X205047656Y-100885000D01*
X205206406Y-100726250D01*
X205206406Y-99377000D01*
X203857156Y-99377000D01*
X203698406Y-99535750D01*
X203695334Y-100250000D01*
X196304818Y-100250000D01*
X196301746Y-99535750D01*
X196142996Y-99377000D01*
X194793746Y-99377000D01*
X194793746Y-99397000D01*
X194539746Y-99397000D01*
X194539746Y-99377000D01*
X194519746Y-99377000D01*
X194519746Y-99123000D01*
X194539746Y-99123000D01*
X194539746Y-99103000D01*
X194793746Y-99103000D01*
X194793746Y-99123000D01*
X196142996Y-99123000D01*
X196301746Y-98964250D01*
X196301764Y-98960000D01*
X203698388Y-98960000D01*
X203698406Y-98964250D01*
X203698406Y-98964250D01*
G37*
X203698406Y-98964250D02*
X203857156Y-99123000D01*
X205206406Y-99123000D01*
X205206406Y-99103000D01*
X205460406Y-99103000D01*
X205460406Y-99123000D01*
X205480406Y-99123000D01*
X205480406Y-99377000D01*
X205460406Y-99377000D01*
X205460406Y-100726250D01*
X205619156Y-100885000D01*
X206333406Y-100888072D01*
X206434210Y-100878144D01*
X206377928Y-100962376D01*
X206292369Y-101168933D01*
X206248752Y-101388212D01*
X206248752Y-101611788D01*
X206292369Y-101831067D01*
X206377928Y-102037624D01*
X206434210Y-102121856D01*
X206333406Y-102111928D01*
X205619156Y-102115000D01*
X205460406Y-102273750D01*
X205460406Y-103623000D01*
X205480406Y-103623000D01*
X205480406Y-103877000D01*
X205460406Y-103877000D01*
X205460406Y-103897000D01*
X205206406Y-103897000D01*
X205206406Y-103877000D01*
X203857156Y-103877000D01*
X203698406Y-104035750D01*
X203698388Y-104040000D01*
X196301764Y-104040000D01*
X196301746Y-104035750D01*
X196142996Y-103877000D01*
X194793746Y-103877000D01*
X194793746Y-103897000D01*
X194539746Y-103897000D01*
X194539746Y-103877000D01*
X194519746Y-103877000D01*
X194519746Y-103623000D01*
X194539746Y-103623000D01*
X194539746Y-103603000D01*
X194793746Y-103603000D01*
X194793746Y-103623000D01*
X196142996Y-103623000D01*
X196301746Y-103464250D01*
X196304818Y-102750000D01*
X203695334Y-102750000D01*
X203698406Y-103464250D01*
X203857156Y-103623000D01*
X205206406Y-103623000D01*
X205206406Y-102273750D01*
X205047656Y-102115000D01*
X204333406Y-102111928D01*
X204208924Y-102124188D01*
X204089226Y-102160498D01*
X203978912Y-102219463D01*
X203882221Y-102298815D01*
X203802869Y-102395506D01*
X203743904Y-102505820D01*
X203707594Y-102625518D01*
X203695334Y-102750000D01*
X196304818Y-102750000D01*
X196292558Y-102625518D01*
X196256248Y-102505820D01*
X196197283Y-102395506D01*
X196117931Y-102298815D01*
X196079108Y-102266954D01*
X198972502Y-102266954D01*
X199010179Y-102323341D01*
X199168271Y-102481433D01*
X199354167Y-102605645D01*
X199560724Y-102691204D01*
X199780003Y-102734821D01*
X200003579Y-102734821D01*
X200222858Y-102691204D01*
X200429415Y-102605645D01*
X200615311Y-102481433D01*
X200773403Y-102323341D01*
X200897615Y-102137445D01*
X200983174Y-101930888D01*
X201026791Y-101711609D01*
X201026791Y-101488033D01*
X200983174Y-101268754D01*
X200897615Y-101062197D01*
X200773403Y-100876301D01*
X200615311Y-100718209D01*
X200429415Y-100593997D01*
X200222858Y-100508438D01*
X200003579Y-100464821D01*
X199780003Y-100464821D01*
X199560724Y-100508438D01*
X199354167Y-100593997D01*
X199200081Y-100696954D01*
X196121403Y-100696954D01*
X196197283Y-100604494D01*
X196256248Y-100494180D01*
X196292558Y-100374482D01*
X196304818Y-100250000D01*
X203695334Y-100250000D01*
X203707594Y-100374482D01*
X203743904Y-100494180D01*
X203802869Y-100604494D01*
X203882221Y-100701185D01*
X203978912Y-100780537D01*
X204089226Y-100839502D01*
X204208924Y-100875812D01*
X204333406Y-100888072D01*
X205047656Y-100885000D01*
X205206406Y-100726250D01*
X205206406Y-99377000D01*
X203857156Y-99377000D01*
X203698406Y-99535750D01*
X203695334Y-100250000D01*
X196304818Y-100250000D01*
X196301746Y-99535750D01*
X196142996Y-99377000D01*
X194793746Y-99377000D01*
X194793746Y-99397000D01*
X194539746Y-99397000D01*
X194539746Y-99377000D01*
X194519746Y-99377000D01*
X194519746Y-99123000D01*
X194539746Y-99123000D01*
X194539746Y-99103000D01*
X194793746Y-99103000D01*
X194793746Y-99123000D01*
X196142996Y-99123000D01*
X196301746Y-98964250D01*
X196301764Y-98960000D01*
X203698388Y-98960000D01*
X203698406Y-98964250D01*
G36*
X155480426Y-99127000D02*
G01*
X155460426Y-99127000D01*
X155460426Y-100476250D01*
X155619176Y-100635000D01*
X156333426Y-100638072D01*
X156457908Y-100625812D01*
X156577606Y-100589502D01*
X156687920Y-100530537D01*
X156695297Y-100524483D01*
X156695297Y-100594892D01*
X156660132Y-100618388D01*
X156502040Y-100776480D01*
X156377828Y-100962376D01*
X156292269Y-101168933D01*
X156248652Y-101388212D01*
X156248652Y-101611788D01*
X156292269Y-101831067D01*
X156305103Y-101862050D01*
X155619176Y-101865000D01*
X155460426Y-102023750D01*
X155460426Y-103373000D01*
X155480426Y-103373000D01*
X155480426Y-103627000D01*
X155460426Y-103627000D01*
X155460426Y-103647000D01*
X155206426Y-103647000D01*
X155206426Y-103627000D01*
X153857176Y-103627000D01*
X153698426Y-103785750D01*
X153697332Y-104040000D01*
X146301784Y-104040000D01*
X146301766Y-104035750D01*
X146143016Y-103877000D01*
X144793766Y-103877000D01*
X144793766Y-103897000D01*
X144539766Y-103897000D01*
X144539766Y-103877000D01*
X144519766Y-103877000D01*
X144519766Y-103623000D01*
X144539766Y-103623000D01*
X144539766Y-103603000D01*
X144793766Y-103603000D01*
X144793766Y-103623000D01*
X146143016Y-103623000D01*
X146301766Y-103464250D01*
X146304838Y-102750000D01*
X146292578Y-102625518D01*
X146256268Y-102505820D01*
X146197303Y-102395506D01*
X146117951Y-102298815D01*
X146079128Y-102266954D01*
X148972402Y-102266954D01*
X149010079Y-102323341D01*
X149168171Y-102481433D01*
X149354067Y-102605645D01*
X149560624Y-102691204D01*
X149779903Y-102734821D01*
X150003479Y-102734821D01*
X150222758Y-102691204D01*
X150429315Y-102605645D01*
X150587423Y-102500000D01*
X153695354Y-102500000D01*
X153698426Y-103214250D01*
X153857176Y-103373000D01*
X155206426Y-103373000D01*
X155206426Y-102023750D01*
X155047676Y-101865000D01*
X154333426Y-101861928D01*
X154208944Y-101874188D01*
X154089246Y-101910498D01*
X153978932Y-101969463D01*
X153882241Y-102048815D01*
X153802889Y-102145506D01*
X153743924Y-102255820D01*
X153707614Y-102375518D01*
X153695354Y-102500000D01*
X150587423Y-102500000D01*
X150615211Y-102481433D01*
X150773303Y-102323341D01*
X150897515Y-102137445D01*
X150983074Y-101930888D01*
X151026691Y-101711609D01*
X151026691Y-101488033D01*
X150983074Y-101268754D01*
X150897515Y-101062197D01*
X150773303Y-100876301D01*
X150615211Y-100718209D01*
X150429315Y-100593997D01*
X150222758Y-100508438D01*
X150003479Y-100464821D01*
X149779903Y-100464821D01*
X149560624Y-100508438D01*
X149354067Y-100593997D01*
X149199981Y-100696954D01*
X146121423Y-100696954D01*
X146197303Y-100604494D01*
X146256268Y-100494180D01*
X146292578Y-100374482D01*
X146304838Y-100250000D01*
X146303763Y-100000000D01*
X153695354Y-100000000D01*
X153707614Y-100124482D01*
X153743924Y-100244180D01*
X153802889Y-100354494D01*
X153882241Y-100451185D01*
X153978932Y-100530537D01*
X154089246Y-100589502D01*
X154208944Y-100625812D01*
X154333426Y-100638072D01*
X155047676Y-100635000D01*
X155206426Y-100476250D01*
X155206426Y-99127000D01*
X153857176Y-99127000D01*
X153698426Y-99285750D01*
X153695354Y-100000000D01*
X146303763Y-100000000D01*
X146301766Y-99535750D01*
X146143016Y-99377000D01*
X144793766Y-99377000D01*
X144793766Y-99397000D01*
X144539766Y-99397000D01*
X144539766Y-99377000D01*
X144519766Y-99377000D01*
X144519766Y-99123000D01*
X144539766Y-99123000D01*
X144539766Y-99103000D01*
X144793766Y-99103000D01*
X144793766Y-99123000D01*
X146143016Y-99123000D01*
X146301766Y-98964250D01*
X146301784Y-98960000D01*
X155480426Y-98960000D01*
X155480426Y-99127000D01*
X155480426Y-99127000D01*
G37*
X155480426Y-99127000D02*
X155460426Y-99127000D01*
X155460426Y-100476250D01*
X155619176Y-100635000D01*
X156333426Y-100638072D01*
X156457908Y-100625812D01*
X156577606Y-100589502D01*
X156687920Y-100530537D01*
X156695297Y-100524483D01*
X156695297Y-100594892D01*
X156660132Y-100618388D01*
X156502040Y-100776480D01*
X156377828Y-100962376D01*
X156292269Y-101168933D01*
X156248652Y-101388212D01*
X156248652Y-101611788D01*
X156292269Y-101831067D01*
X156305103Y-101862050D01*
X155619176Y-101865000D01*
X155460426Y-102023750D01*
X155460426Y-103373000D01*
X155480426Y-103373000D01*
X155480426Y-103627000D01*
X155460426Y-103627000D01*
X155460426Y-103647000D01*
X155206426Y-103647000D01*
X155206426Y-103627000D01*
X153857176Y-103627000D01*
X153698426Y-103785750D01*
X153697332Y-104040000D01*
X146301784Y-104040000D01*
X146301766Y-104035750D01*
X146143016Y-103877000D01*
X144793766Y-103877000D01*
X144793766Y-103897000D01*
X144539766Y-103897000D01*
X144539766Y-103877000D01*
X144519766Y-103877000D01*
X144519766Y-103623000D01*
X144539766Y-103623000D01*
X144539766Y-103603000D01*
X144793766Y-103603000D01*
X144793766Y-103623000D01*
X146143016Y-103623000D01*
X146301766Y-103464250D01*
X146304838Y-102750000D01*
X146292578Y-102625518D01*
X146256268Y-102505820D01*
X146197303Y-102395506D01*
X146117951Y-102298815D01*
X146079128Y-102266954D01*
X148972402Y-102266954D01*
X149010079Y-102323341D01*
X149168171Y-102481433D01*
X149354067Y-102605645D01*
X149560624Y-102691204D01*
X149779903Y-102734821D01*
X150003479Y-102734821D01*
X150222758Y-102691204D01*
X150429315Y-102605645D01*
X150587423Y-102500000D01*
X153695354Y-102500000D01*
X153698426Y-103214250D01*
X153857176Y-103373000D01*
X155206426Y-103373000D01*
X155206426Y-102023750D01*
X155047676Y-101865000D01*
X154333426Y-101861928D01*
X154208944Y-101874188D01*
X154089246Y-101910498D01*
X153978932Y-101969463D01*
X153882241Y-102048815D01*
X153802889Y-102145506D01*
X153743924Y-102255820D01*
X153707614Y-102375518D01*
X153695354Y-102500000D01*
X150587423Y-102500000D01*
X150615211Y-102481433D01*
X150773303Y-102323341D01*
X150897515Y-102137445D01*
X150983074Y-101930888D01*
X151026691Y-101711609D01*
X151026691Y-101488033D01*
X150983074Y-101268754D01*
X150897515Y-101062197D01*
X150773303Y-100876301D01*
X150615211Y-100718209D01*
X150429315Y-100593997D01*
X150222758Y-100508438D01*
X150003479Y-100464821D01*
X149779903Y-100464821D01*
X149560624Y-100508438D01*
X149354067Y-100593997D01*
X149199981Y-100696954D01*
X146121423Y-100696954D01*
X146197303Y-100604494D01*
X146256268Y-100494180D01*
X146292578Y-100374482D01*
X146304838Y-100250000D01*
X146303763Y-100000000D01*
X153695354Y-100000000D01*
X153707614Y-100124482D01*
X153743924Y-100244180D01*
X153802889Y-100354494D01*
X153882241Y-100451185D01*
X153978932Y-100530537D01*
X154089246Y-100589502D01*
X154208944Y-100625812D01*
X154333426Y-100638072D01*
X155047676Y-100635000D01*
X155206426Y-100476250D01*
X155206426Y-99127000D01*
X153857176Y-99127000D01*
X153698426Y-99285750D01*
X153695354Y-100000000D01*
X146303763Y-100000000D01*
X146301766Y-99535750D01*
X146143016Y-99377000D01*
X144793766Y-99377000D01*
X144793766Y-99397000D01*
X144539766Y-99397000D01*
X144539766Y-99377000D01*
X144519766Y-99377000D01*
X144519766Y-99123000D01*
X144539766Y-99123000D01*
X144539766Y-99103000D01*
X144793766Y-99103000D01*
X144793766Y-99123000D01*
X146143016Y-99123000D01*
X146301766Y-98964250D01*
X146301784Y-98960000D01*
X155480426Y-98960000D01*
X155480426Y-99127000D01*
G36*
X297503179Y-103119467D02*
G01*
X297411009Y-103344718D01*
X297407138Y-103382391D01*
X297531869Y-103573000D01*
X299873600Y-103573000D01*
X299873600Y-103553000D01*
X300127600Y-103553000D01*
X300127600Y-103573000D01*
X302469331Y-103573000D01*
X302594062Y-103382391D01*
X302590191Y-103344718D01*
X302498021Y-103119467D01*
X302431072Y-103018332D01*
X305551265Y-103018332D01*
X306210747Y-103677815D01*
X306235326Y-103707764D01*
X306265274Y-103732342D01*
X306265277Y-103732345D01*
X306283594Y-103747377D01*
X306354857Y-103805862D01*
X306491230Y-103878754D01*
X306604762Y-103913194D01*
X306639202Y-103923641D01*
X306653580Y-103925057D01*
X306671928Y-103926864D01*
X306776676Y-104031612D01*
X306789230Y-104040000D01*
X302591761Y-104040000D01*
X302594062Y-104017609D01*
X302469331Y-103827000D01*
X300127600Y-103827000D01*
X300127600Y-103847000D01*
X299873600Y-103847000D01*
X299873600Y-103827000D01*
X297531869Y-103827000D01*
X297407138Y-104017609D01*
X297409439Y-104040000D01*
X291544462Y-104040000D01*
X291557016Y-104031612D01*
X291715108Y-103873520D01*
X291839320Y-103687624D01*
X291923250Y-103485000D01*
X292145284Y-103485000D01*
X292364563Y-103441383D01*
X292571120Y-103355824D01*
X292757016Y-103231612D01*
X292915108Y-103073520D01*
X292951984Y-103018332D01*
X297570128Y-103018332D01*
X297503179Y-103119467D01*
X297503179Y-103119467D01*
G37*
X297503179Y-103119467D02*
X297411009Y-103344718D01*
X297407138Y-103382391D01*
X297531869Y-103573000D01*
X299873600Y-103573000D01*
X299873600Y-103553000D01*
X300127600Y-103553000D01*
X300127600Y-103573000D01*
X302469331Y-103573000D01*
X302594062Y-103382391D01*
X302590191Y-103344718D01*
X302498021Y-103119467D01*
X302431072Y-103018332D01*
X305551265Y-103018332D01*
X306210747Y-103677815D01*
X306235326Y-103707764D01*
X306265274Y-103732342D01*
X306265277Y-103732345D01*
X306283594Y-103747377D01*
X306354857Y-103805862D01*
X306491230Y-103878754D01*
X306604762Y-103913194D01*
X306639202Y-103923641D01*
X306653580Y-103925057D01*
X306671928Y-103926864D01*
X306776676Y-104031612D01*
X306789230Y-104040000D01*
X302591761Y-104040000D01*
X302594062Y-104017609D01*
X302469331Y-103827000D01*
X300127600Y-103827000D01*
X300127600Y-103847000D01*
X299873600Y-103847000D01*
X299873600Y-103827000D01*
X297531869Y-103827000D01*
X297407138Y-104017609D01*
X297409439Y-104040000D01*
X291544462Y-104040000D01*
X291557016Y-104031612D01*
X291715108Y-103873520D01*
X291839320Y-103687624D01*
X291923250Y-103485000D01*
X292145284Y-103485000D01*
X292364563Y-103441383D01*
X292571120Y-103355824D01*
X292757016Y-103231612D01*
X292915108Y-103073520D01*
X292951984Y-103018332D01*
X297570128Y-103018332D01*
X297503179Y-103119467D01*
G36*
X122147106Y-99127000D02*
G01*
X122127106Y-99127000D01*
X122127106Y-100476250D01*
X122285856Y-100635000D01*
X123000106Y-100638072D01*
X123124588Y-100625812D01*
X123244286Y-100589502D01*
X123354600Y-100530537D01*
X123361897Y-100524549D01*
X123361897Y-100594892D01*
X123326732Y-100618388D01*
X123168640Y-100776480D01*
X123044428Y-100962376D01*
X122958869Y-101168933D01*
X122915252Y-101388212D01*
X122915252Y-101611788D01*
X122958869Y-101831067D01*
X122971703Y-101862050D01*
X122285856Y-101865000D01*
X122127106Y-102023750D01*
X122127106Y-103373000D01*
X122147106Y-103373000D01*
X122147106Y-103627000D01*
X122127106Y-103627000D01*
X122127106Y-103647000D01*
X121873106Y-103647000D01*
X121873106Y-103627000D01*
X120523856Y-103627000D01*
X120365106Y-103785750D01*
X120364012Y-104040000D01*
X112968464Y-104040000D01*
X112968446Y-104035750D01*
X112809696Y-103877000D01*
X111460446Y-103877000D01*
X111460446Y-103897000D01*
X111206446Y-103897000D01*
X111206446Y-103877000D01*
X111186446Y-103877000D01*
X111186446Y-103623000D01*
X111206446Y-103623000D01*
X111206446Y-103603000D01*
X111460446Y-103603000D01*
X111460446Y-103623000D01*
X112809696Y-103623000D01*
X112968446Y-103464250D01*
X112971518Y-102750000D01*
X112959258Y-102625518D01*
X112922948Y-102505820D01*
X112863983Y-102395506D01*
X112784631Y-102298815D01*
X112745808Y-102266954D01*
X115639002Y-102266954D01*
X115676679Y-102323341D01*
X115834771Y-102481433D01*
X116020667Y-102605645D01*
X116227224Y-102691204D01*
X116446503Y-102734821D01*
X116670079Y-102734821D01*
X116889358Y-102691204D01*
X117095915Y-102605645D01*
X117254023Y-102500000D01*
X120362034Y-102500000D01*
X120365106Y-103214250D01*
X120523856Y-103373000D01*
X121873106Y-103373000D01*
X121873106Y-102023750D01*
X121714356Y-101865000D01*
X121000106Y-101861928D01*
X120875624Y-101874188D01*
X120755926Y-101910498D01*
X120645612Y-101969463D01*
X120548921Y-102048815D01*
X120469569Y-102145506D01*
X120410604Y-102255820D01*
X120374294Y-102375518D01*
X120362034Y-102500000D01*
X117254023Y-102500000D01*
X117281811Y-102481433D01*
X117439903Y-102323341D01*
X117564115Y-102137445D01*
X117649674Y-101930888D01*
X117693291Y-101711609D01*
X117693291Y-101488033D01*
X117649674Y-101268754D01*
X117564115Y-101062197D01*
X117439903Y-100876301D01*
X117281811Y-100718209D01*
X117095915Y-100593997D01*
X116889358Y-100508438D01*
X116670079Y-100464821D01*
X116446503Y-100464821D01*
X116227224Y-100508438D01*
X116020667Y-100593997D01*
X115866581Y-100696954D01*
X112788103Y-100696954D01*
X112863983Y-100604494D01*
X112922948Y-100494180D01*
X112959258Y-100374482D01*
X112971518Y-100250000D01*
X112970443Y-100000000D01*
X120362034Y-100000000D01*
X120374294Y-100124482D01*
X120410604Y-100244180D01*
X120469569Y-100354494D01*
X120548921Y-100451185D01*
X120645612Y-100530537D01*
X120755926Y-100589502D01*
X120875624Y-100625812D01*
X121000106Y-100638072D01*
X121714356Y-100635000D01*
X121873106Y-100476250D01*
X121873106Y-99127000D01*
X120523856Y-99127000D01*
X120365106Y-99285750D01*
X120362034Y-100000000D01*
X112970443Y-100000000D01*
X112968446Y-99535750D01*
X112809696Y-99377000D01*
X111460446Y-99377000D01*
X111460446Y-99397000D01*
X111206446Y-99397000D01*
X111206446Y-99377000D01*
X111186446Y-99377000D01*
X111186446Y-99123000D01*
X111206446Y-99123000D01*
X111206446Y-99103000D01*
X111460446Y-99103000D01*
X111460446Y-99123000D01*
X112809696Y-99123000D01*
X112968446Y-98964250D01*
X112968464Y-98960000D01*
X122147106Y-98960000D01*
X122147106Y-99127000D01*
X122147106Y-99127000D01*
G37*
X122147106Y-99127000D02*
X122127106Y-99127000D01*
X122127106Y-100476250D01*
X122285856Y-100635000D01*
X123000106Y-100638072D01*
X123124588Y-100625812D01*
X123244286Y-100589502D01*
X123354600Y-100530537D01*
X123361897Y-100524549D01*
X123361897Y-100594892D01*
X123326732Y-100618388D01*
X123168640Y-100776480D01*
X123044428Y-100962376D01*
X122958869Y-101168933D01*
X122915252Y-101388212D01*
X122915252Y-101611788D01*
X122958869Y-101831067D01*
X122971703Y-101862050D01*
X122285856Y-101865000D01*
X122127106Y-102023750D01*
X122127106Y-103373000D01*
X122147106Y-103373000D01*
X122147106Y-103627000D01*
X122127106Y-103627000D01*
X122127106Y-103647000D01*
X121873106Y-103647000D01*
X121873106Y-103627000D01*
X120523856Y-103627000D01*
X120365106Y-103785750D01*
X120364012Y-104040000D01*
X112968464Y-104040000D01*
X112968446Y-104035750D01*
X112809696Y-103877000D01*
X111460446Y-103877000D01*
X111460446Y-103897000D01*
X111206446Y-103897000D01*
X111206446Y-103877000D01*
X111186446Y-103877000D01*
X111186446Y-103623000D01*
X111206446Y-103623000D01*
X111206446Y-103603000D01*
X111460446Y-103603000D01*
X111460446Y-103623000D01*
X112809696Y-103623000D01*
X112968446Y-103464250D01*
X112971518Y-102750000D01*
X112959258Y-102625518D01*
X112922948Y-102505820D01*
X112863983Y-102395506D01*
X112784631Y-102298815D01*
X112745808Y-102266954D01*
X115639002Y-102266954D01*
X115676679Y-102323341D01*
X115834771Y-102481433D01*
X116020667Y-102605645D01*
X116227224Y-102691204D01*
X116446503Y-102734821D01*
X116670079Y-102734821D01*
X116889358Y-102691204D01*
X117095915Y-102605645D01*
X117254023Y-102500000D01*
X120362034Y-102500000D01*
X120365106Y-103214250D01*
X120523856Y-103373000D01*
X121873106Y-103373000D01*
X121873106Y-102023750D01*
X121714356Y-101865000D01*
X121000106Y-101861928D01*
X120875624Y-101874188D01*
X120755926Y-101910498D01*
X120645612Y-101969463D01*
X120548921Y-102048815D01*
X120469569Y-102145506D01*
X120410604Y-102255820D01*
X120374294Y-102375518D01*
X120362034Y-102500000D01*
X117254023Y-102500000D01*
X117281811Y-102481433D01*
X117439903Y-102323341D01*
X117564115Y-102137445D01*
X117649674Y-101930888D01*
X117693291Y-101711609D01*
X117693291Y-101488033D01*
X117649674Y-101268754D01*
X117564115Y-101062197D01*
X117439903Y-100876301D01*
X117281811Y-100718209D01*
X117095915Y-100593997D01*
X116889358Y-100508438D01*
X116670079Y-100464821D01*
X116446503Y-100464821D01*
X116227224Y-100508438D01*
X116020667Y-100593997D01*
X115866581Y-100696954D01*
X112788103Y-100696954D01*
X112863983Y-100604494D01*
X112922948Y-100494180D01*
X112959258Y-100374482D01*
X112971518Y-100250000D01*
X112970443Y-100000000D01*
X120362034Y-100000000D01*
X120374294Y-100124482D01*
X120410604Y-100244180D01*
X120469569Y-100354494D01*
X120548921Y-100451185D01*
X120645612Y-100530537D01*
X120755926Y-100589502D01*
X120875624Y-100625812D01*
X121000106Y-100638072D01*
X121714356Y-100635000D01*
X121873106Y-100476250D01*
X121873106Y-99127000D01*
X120523856Y-99127000D01*
X120365106Y-99285750D01*
X120362034Y-100000000D01*
X112970443Y-100000000D01*
X112968446Y-99535750D01*
X112809696Y-99377000D01*
X111460446Y-99377000D01*
X111460446Y-99397000D01*
X111206446Y-99397000D01*
X111206446Y-99377000D01*
X111186446Y-99377000D01*
X111186446Y-99123000D01*
X111206446Y-99123000D01*
X111206446Y-99103000D01*
X111460446Y-99103000D01*
X111460446Y-99123000D01*
X112809696Y-99123000D01*
X112968446Y-98964250D01*
X112968464Y-98960000D01*
X122147106Y-98960000D01*
X122147106Y-99127000D01*
G36*
X220365066Y-98964250D02*
G01*
X220523816Y-99123000D01*
X221873066Y-99123000D01*
X221873066Y-99103000D01*
X222127066Y-99103000D01*
X222127066Y-99123000D01*
X222147066Y-99123000D01*
X222147066Y-99377000D01*
X222127066Y-99377000D01*
X222127066Y-100726250D01*
X222285816Y-100885000D01*
X223000066Y-100888072D01*
X223100913Y-100878140D01*
X223044628Y-100962376D01*
X222959069Y-101168933D01*
X222915452Y-101388212D01*
X222915452Y-101611788D01*
X222959069Y-101831067D01*
X223044628Y-102037624D01*
X223100913Y-102121860D01*
X223000066Y-102111928D01*
X222285816Y-102115000D01*
X222127066Y-102273750D01*
X222127066Y-103623000D01*
X222147066Y-103623000D01*
X222147066Y-103877000D01*
X222127066Y-103877000D01*
X222127066Y-103897000D01*
X221873066Y-103897000D01*
X221873066Y-103877000D01*
X220523816Y-103877000D01*
X220365066Y-104035750D01*
X220365048Y-104040000D01*
X212968424Y-104040000D01*
X212968406Y-104035750D01*
X212809656Y-103877000D01*
X211460406Y-103877000D01*
X211460406Y-103897000D01*
X211206406Y-103897000D01*
X211206406Y-103877000D01*
X211186406Y-103877000D01*
X211186406Y-103623000D01*
X211206406Y-103623000D01*
X211206406Y-103603000D01*
X211460406Y-103603000D01*
X211460406Y-103623000D01*
X212809656Y-103623000D01*
X212968406Y-103464250D01*
X212971478Y-102750000D01*
X220361994Y-102750000D01*
X220365066Y-103464250D01*
X220523816Y-103623000D01*
X221873066Y-103623000D01*
X221873066Y-102273750D01*
X221714316Y-102115000D01*
X221000066Y-102111928D01*
X220875584Y-102124188D01*
X220755886Y-102160498D01*
X220645572Y-102219463D01*
X220548881Y-102298815D01*
X220469529Y-102395506D01*
X220410564Y-102505820D01*
X220374254Y-102625518D01*
X220361994Y-102750000D01*
X212971478Y-102750000D01*
X212959218Y-102625518D01*
X212922908Y-102505820D01*
X212863943Y-102395506D01*
X212784591Y-102298815D01*
X212745768Y-102266954D01*
X215639202Y-102266954D01*
X215676879Y-102323341D01*
X215834971Y-102481433D01*
X216020867Y-102605645D01*
X216227424Y-102691204D01*
X216446703Y-102734821D01*
X216670279Y-102734821D01*
X216889558Y-102691204D01*
X217096115Y-102605645D01*
X217282011Y-102481433D01*
X217440103Y-102323341D01*
X217564315Y-102137445D01*
X217649874Y-101930888D01*
X217693491Y-101711609D01*
X217693491Y-101488033D01*
X217649874Y-101268754D01*
X217564315Y-101062197D01*
X217440103Y-100876301D01*
X217282011Y-100718209D01*
X217096115Y-100593997D01*
X216889558Y-100508438D01*
X216670279Y-100464821D01*
X216446703Y-100464821D01*
X216227424Y-100508438D01*
X216020867Y-100593997D01*
X215866781Y-100696954D01*
X212788063Y-100696954D01*
X212863943Y-100604494D01*
X212922908Y-100494180D01*
X212959218Y-100374482D01*
X212971478Y-100250000D01*
X220361994Y-100250000D01*
X220374254Y-100374482D01*
X220410564Y-100494180D01*
X220469529Y-100604494D01*
X220548881Y-100701185D01*
X220645572Y-100780537D01*
X220755886Y-100839502D01*
X220875584Y-100875812D01*
X221000066Y-100888072D01*
X221714316Y-100885000D01*
X221873066Y-100726250D01*
X221873066Y-99377000D01*
X220523816Y-99377000D01*
X220365066Y-99535750D01*
X220361994Y-100250000D01*
X212971478Y-100250000D01*
X212968406Y-99535750D01*
X212809656Y-99377000D01*
X211460406Y-99377000D01*
X211460406Y-99397000D01*
X211206406Y-99397000D01*
X211206406Y-99377000D01*
X211186406Y-99377000D01*
X211186406Y-99123000D01*
X211206406Y-99123000D01*
X211206406Y-99103000D01*
X211460406Y-99103000D01*
X211460406Y-99123000D01*
X212809656Y-99123000D01*
X212968406Y-98964250D01*
X212968424Y-98960000D01*
X220365048Y-98960000D01*
X220365066Y-98964250D01*
X220365066Y-98964250D01*
G37*
X220365066Y-98964250D02*
X220523816Y-99123000D01*
X221873066Y-99123000D01*
X221873066Y-99103000D01*
X222127066Y-99103000D01*
X222127066Y-99123000D01*
X222147066Y-99123000D01*
X222147066Y-99377000D01*
X222127066Y-99377000D01*
X222127066Y-100726250D01*
X222285816Y-100885000D01*
X223000066Y-100888072D01*
X223100913Y-100878140D01*
X223044628Y-100962376D01*
X222959069Y-101168933D01*
X222915452Y-101388212D01*
X222915452Y-101611788D01*
X222959069Y-101831067D01*
X223044628Y-102037624D01*
X223100913Y-102121860D01*
X223000066Y-102111928D01*
X222285816Y-102115000D01*
X222127066Y-102273750D01*
X222127066Y-103623000D01*
X222147066Y-103623000D01*
X222147066Y-103877000D01*
X222127066Y-103877000D01*
X222127066Y-103897000D01*
X221873066Y-103897000D01*
X221873066Y-103877000D01*
X220523816Y-103877000D01*
X220365066Y-104035750D01*
X220365048Y-104040000D01*
X212968424Y-104040000D01*
X212968406Y-104035750D01*
X212809656Y-103877000D01*
X211460406Y-103877000D01*
X211460406Y-103897000D01*
X211206406Y-103897000D01*
X211206406Y-103877000D01*
X211186406Y-103877000D01*
X211186406Y-103623000D01*
X211206406Y-103623000D01*
X211206406Y-103603000D01*
X211460406Y-103603000D01*
X211460406Y-103623000D01*
X212809656Y-103623000D01*
X212968406Y-103464250D01*
X212971478Y-102750000D01*
X220361994Y-102750000D01*
X220365066Y-103464250D01*
X220523816Y-103623000D01*
X221873066Y-103623000D01*
X221873066Y-102273750D01*
X221714316Y-102115000D01*
X221000066Y-102111928D01*
X220875584Y-102124188D01*
X220755886Y-102160498D01*
X220645572Y-102219463D01*
X220548881Y-102298815D01*
X220469529Y-102395506D01*
X220410564Y-102505820D01*
X220374254Y-102625518D01*
X220361994Y-102750000D01*
X212971478Y-102750000D01*
X212959218Y-102625518D01*
X212922908Y-102505820D01*
X212863943Y-102395506D01*
X212784591Y-102298815D01*
X212745768Y-102266954D01*
X215639202Y-102266954D01*
X215676879Y-102323341D01*
X215834971Y-102481433D01*
X216020867Y-102605645D01*
X216227424Y-102691204D01*
X216446703Y-102734821D01*
X216670279Y-102734821D01*
X216889558Y-102691204D01*
X217096115Y-102605645D01*
X217282011Y-102481433D01*
X217440103Y-102323341D01*
X217564315Y-102137445D01*
X217649874Y-101930888D01*
X217693491Y-101711609D01*
X217693491Y-101488033D01*
X217649874Y-101268754D01*
X217564315Y-101062197D01*
X217440103Y-100876301D01*
X217282011Y-100718209D01*
X217096115Y-100593997D01*
X216889558Y-100508438D01*
X216670279Y-100464821D01*
X216446703Y-100464821D01*
X216227424Y-100508438D01*
X216020867Y-100593997D01*
X215866781Y-100696954D01*
X212788063Y-100696954D01*
X212863943Y-100604494D01*
X212922908Y-100494180D01*
X212959218Y-100374482D01*
X212971478Y-100250000D01*
X220361994Y-100250000D01*
X220374254Y-100374482D01*
X220410564Y-100494180D01*
X220469529Y-100604494D01*
X220548881Y-100701185D01*
X220645572Y-100780537D01*
X220755886Y-100839502D01*
X220875584Y-100875812D01*
X221000066Y-100888072D01*
X221714316Y-100885000D01*
X221873066Y-100726250D01*
X221873066Y-99377000D01*
X220523816Y-99377000D01*
X220365066Y-99535750D01*
X220361994Y-100250000D01*
X212971478Y-100250000D01*
X212968406Y-99535750D01*
X212809656Y-99377000D01*
X211460406Y-99377000D01*
X211460406Y-99397000D01*
X211206406Y-99397000D01*
X211206406Y-99377000D01*
X211186406Y-99377000D01*
X211186406Y-99123000D01*
X211206406Y-99123000D01*
X211206406Y-99103000D01*
X211460406Y-99103000D01*
X211460406Y-99123000D01*
X212809656Y-99123000D01*
X212968406Y-98964250D01*
X212968424Y-98960000D01*
X220365048Y-98960000D01*
X220365066Y-98964250D01*
G36*
X187031746Y-98964250D02*
G01*
X187190496Y-99123000D01*
X188539746Y-99123000D01*
X188539746Y-99103000D01*
X188793746Y-99103000D01*
X188793746Y-99123000D01*
X188813746Y-99123000D01*
X188813746Y-99377000D01*
X188793746Y-99377000D01*
X188793746Y-100726250D01*
X188952496Y-100885000D01*
X189666746Y-100888072D01*
X189767507Y-100878148D01*
X189711228Y-100962376D01*
X189625669Y-101168933D01*
X189582052Y-101388212D01*
X189582052Y-101611788D01*
X189625669Y-101831067D01*
X189711228Y-102037624D01*
X189767507Y-102121852D01*
X189666746Y-102111928D01*
X188952496Y-102115000D01*
X188793746Y-102273750D01*
X188793746Y-103623000D01*
X188813746Y-103623000D01*
X188813746Y-103877000D01*
X188793746Y-103877000D01*
X188793746Y-103897000D01*
X188539746Y-103897000D01*
X188539746Y-103877000D01*
X187190496Y-103877000D01*
X187031746Y-104035750D01*
X187031728Y-104040000D01*
X179635104Y-104040000D01*
X179635086Y-104035750D01*
X179476336Y-103877000D01*
X178127086Y-103877000D01*
X178127086Y-103897000D01*
X177873086Y-103897000D01*
X177873086Y-103877000D01*
X177853086Y-103877000D01*
X177853086Y-103623000D01*
X177873086Y-103623000D01*
X177873086Y-103603000D01*
X178127086Y-103603000D01*
X178127086Y-103623000D01*
X179476336Y-103623000D01*
X179635086Y-103464250D01*
X179638158Y-102750000D01*
X187028674Y-102750000D01*
X187031746Y-103464250D01*
X187190496Y-103623000D01*
X188539746Y-103623000D01*
X188539746Y-102273750D01*
X188380996Y-102115000D01*
X187666746Y-102111928D01*
X187542264Y-102124188D01*
X187422566Y-102160498D01*
X187312252Y-102219463D01*
X187215561Y-102298815D01*
X187136209Y-102395506D01*
X187077244Y-102505820D01*
X187040934Y-102625518D01*
X187028674Y-102750000D01*
X179638158Y-102750000D01*
X179625898Y-102625518D01*
X179589588Y-102505820D01*
X179530623Y-102395506D01*
X179451271Y-102298815D01*
X179412448Y-102266954D01*
X182305802Y-102266954D01*
X182343479Y-102323341D01*
X182501571Y-102481433D01*
X182687467Y-102605645D01*
X182894024Y-102691204D01*
X183113303Y-102734821D01*
X183336879Y-102734821D01*
X183556158Y-102691204D01*
X183762715Y-102605645D01*
X183948611Y-102481433D01*
X184106703Y-102323341D01*
X184230915Y-102137445D01*
X184316474Y-101930888D01*
X184360091Y-101711609D01*
X184360091Y-101488033D01*
X184316474Y-101268754D01*
X184230915Y-101062197D01*
X184106703Y-100876301D01*
X183948611Y-100718209D01*
X183762715Y-100593997D01*
X183556158Y-100508438D01*
X183336879Y-100464821D01*
X183113303Y-100464821D01*
X182894024Y-100508438D01*
X182687467Y-100593997D01*
X182533381Y-100696954D01*
X179454743Y-100696954D01*
X179530623Y-100604494D01*
X179589588Y-100494180D01*
X179625898Y-100374482D01*
X179638158Y-100250000D01*
X187028674Y-100250000D01*
X187040934Y-100374482D01*
X187077244Y-100494180D01*
X187136209Y-100604494D01*
X187215561Y-100701185D01*
X187312252Y-100780537D01*
X187422566Y-100839502D01*
X187542264Y-100875812D01*
X187666746Y-100888072D01*
X188380996Y-100885000D01*
X188539746Y-100726250D01*
X188539746Y-99377000D01*
X187190496Y-99377000D01*
X187031746Y-99535750D01*
X187028674Y-100250000D01*
X179638158Y-100250000D01*
X179635086Y-99535750D01*
X179476336Y-99377000D01*
X178127086Y-99377000D01*
X178127086Y-99397000D01*
X177873086Y-99397000D01*
X177873086Y-99377000D01*
X177853086Y-99377000D01*
X177853086Y-99123000D01*
X177873086Y-99123000D01*
X177873086Y-99103000D01*
X178127086Y-99103000D01*
X178127086Y-99123000D01*
X179476336Y-99123000D01*
X179635086Y-98964250D01*
X179635104Y-98960000D01*
X187031728Y-98960000D01*
X187031746Y-98964250D01*
X187031746Y-98964250D01*
G37*
X187031746Y-98964250D02*
X187190496Y-99123000D01*
X188539746Y-99123000D01*
X188539746Y-99103000D01*
X188793746Y-99103000D01*
X188793746Y-99123000D01*
X188813746Y-99123000D01*
X188813746Y-99377000D01*
X188793746Y-99377000D01*
X188793746Y-100726250D01*
X188952496Y-100885000D01*
X189666746Y-100888072D01*
X189767507Y-100878148D01*
X189711228Y-100962376D01*
X189625669Y-101168933D01*
X189582052Y-101388212D01*
X189582052Y-101611788D01*
X189625669Y-101831067D01*
X189711228Y-102037624D01*
X189767507Y-102121852D01*
X189666746Y-102111928D01*
X188952496Y-102115000D01*
X188793746Y-102273750D01*
X188793746Y-103623000D01*
X188813746Y-103623000D01*
X188813746Y-103877000D01*
X188793746Y-103877000D01*
X188793746Y-103897000D01*
X188539746Y-103897000D01*
X188539746Y-103877000D01*
X187190496Y-103877000D01*
X187031746Y-104035750D01*
X187031728Y-104040000D01*
X179635104Y-104040000D01*
X179635086Y-104035750D01*
X179476336Y-103877000D01*
X178127086Y-103877000D01*
X178127086Y-103897000D01*
X177873086Y-103897000D01*
X177873086Y-103877000D01*
X177853086Y-103877000D01*
X177853086Y-103623000D01*
X177873086Y-103623000D01*
X177873086Y-103603000D01*
X178127086Y-103603000D01*
X178127086Y-103623000D01*
X179476336Y-103623000D01*
X179635086Y-103464250D01*
X179638158Y-102750000D01*
X187028674Y-102750000D01*
X187031746Y-103464250D01*
X187190496Y-103623000D01*
X188539746Y-103623000D01*
X188539746Y-102273750D01*
X188380996Y-102115000D01*
X187666746Y-102111928D01*
X187542264Y-102124188D01*
X187422566Y-102160498D01*
X187312252Y-102219463D01*
X187215561Y-102298815D01*
X187136209Y-102395506D01*
X187077244Y-102505820D01*
X187040934Y-102625518D01*
X187028674Y-102750000D01*
X179638158Y-102750000D01*
X179625898Y-102625518D01*
X179589588Y-102505820D01*
X179530623Y-102395506D01*
X179451271Y-102298815D01*
X179412448Y-102266954D01*
X182305802Y-102266954D01*
X182343479Y-102323341D01*
X182501571Y-102481433D01*
X182687467Y-102605645D01*
X182894024Y-102691204D01*
X183113303Y-102734821D01*
X183336879Y-102734821D01*
X183556158Y-102691204D01*
X183762715Y-102605645D01*
X183948611Y-102481433D01*
X184106703Y-102323341D01*
X184230915Y-102137445D01*
X184316474Y-101930888D01*
X184360091Y-101711609D01*
X184360091Y-101488033D01*
X184316474Y-101268754D01*
X184230915Y-101062197D01*
X184106703Y-100876301D01*
X183948611Y-100718209D01*
X183762715Y-100593997D01*
X183556158Y-100508438D01*
X183336879Y-100464821D01*
X183113303Y-100464821D01*
X182894024Y-100508438D01*
X182687467Y-100593997D01*
X182533381Y-100696954D01*
X179454743Y-100696954D01*
X179530623Y-100604494D01*
X179589588Y-100494180D01*
X179625898Y-100374482D01*
X179638158Y-100250000D01*
X187028674Y-100250000D01*
X187040934Y-100374482D01*
X187077244Y-100494180D01*
X187136209Y-100604494D01*
X187215561Y-100701185D01*
X187312252Y-100780537D01*
X187422566Y-100839502D01*
X187542264Y-100875812D01*
X187666746Y-100888072D01*
X188380996Y-100885000D01*
X188539746Y-100726250D01*
X188539746Y-99377000D01*
X187190496Y-99377000D01*
X187031746Y-99535750D01*
X187028674Y-100250000D01*
X179638158Y-100250000D01*
X179635086Y-99535750D01*
X179476336Y-99377000D01*
X178127086Y-99377000D01*
X178127086Y-99397000D01*
X177873086Y-99397000D01*
X177873086Y-99377000D01*
X177853086Y-99377000D01*
X177853086Y-99123000D01*
X177873086Y-99123000D01*
X177873086Y-99103000D01*
X178127086Y-99103000D01*
X178127086Y-99123000D01*
X179476336Y-99123000D01*
X179635086Y-98964250D01*
X179635104Y-98960000D01*
X187031728Y-98960000D01*
X187031746Y-98964250D01*
G36*
X291298496Y-100538212D02*
G01*
X291298496Y-100761788D01*
X291342113Y-100981067D01*
X291427672Y-101187624D01*
X291524385Y-101332365D01*
X291495872Y-101344176D01*
X291309976Y-101468388D01*
X291151884Y-101626480D01*
X291027672Y-101812376D01*
X290943742Y-102015000D01*
X290721708Y-102015000D01*
X290502429Y-102058617D01*
X290295872Y-102144176D01*
X290256818Y-102170271D01*
X289792067Y-101705520D01*
X289767486Y-101675568D01*
X289647955Y-101577470D01*
X289511582Y-101504578D01*
X289363609Y-101459691D01*
X289248283Y-101448332D01*
X289248275Y-101448332D01*
X289209722Y-101444535D01*
X289171169Y-101448332D01*
X285769893Y-101448332D01*
X285880411Y-101241567D01*
X285951030Y-101008768D01*
X285974875Y-100766666D01*
X285951030Y-100524564D01*
X285923861Y-100435000D01*
X291319026Y-100435000D01*
X291298496Y-100538212D01*
X291298496Y-100538212D01*
G37*
X291298496Y-100538212D02*
X291298496Y-100761788D01*
X291342113Y-100981067D01*
X291427672Y-101187624D01*
X291524385Y-101332365D01*
X291495872Y-101344176D01*
X291309976Y-101468388D01*
X291151884Y-101626480D01*
X291027672Y-101812376D01*
X290943742Y-102015000D01*
X290721708Y-102015000D01*
X290502429Y-102058617D01*
X290295872Y-102144176D01*
X290256818Y-102170271D01*
X289792067Y-101705520D01*
X289767486Y-101675568D01*
X289647955Y-101577470D01*
X289511582Y-101504578D01*
X289363609Y-101459691D01*
X289248283Y-101448332D01*
X289248275Y-101448332D01*
X289209722Y-101444535D01*
X289171169Y-101448332D01*
X285769893Y-101448332D01*
X285880411Y-101241567D01*
X285951030Y-101008768D01*
X285974875Y-100766666D01*
X285951030Y-100524564D01*
X285923861Y-100435000D01*
X291319026Y-100435000D01*
X291298496Y-100538212D01*
G36*
X274631796Y-100538212D02*
G01*
X274631796Y-100761788D01*
X274675413Y-100981067D01*
X274760972Y-101187624D01*
X274857685Y-101332365D01*
X274829172Y-101344176D01*
X274643276Y-101468388D01*
X274485184Y-101626480D01*
X274360972Y-101812376D01*
X274277042Y-102015000D01*
X274055008Y-102015000D01*
X273835729Y-102058617D01*
X273629172Y-102144176D01*
X273590118Y-102170271D01*
X273125367Y-101705520D01*
X273100786Y-101675568D01*
X272981255Y-101577470D01*
X272844882Y-101504578D01*
X272696909Y-101459691D01*
X272581583Y-101448332D01*
X272581575Y-101448332D01*
X272543022Y-101444535D01*
X272504469Y-101448332D01*
X269103193Y-101448332D01*
X269213711Y-101241567D01*
X269284330Y-101008768D01*
X269308175Y-100766666D01*
X269284330Y-100524564D01*
X269257161Y-100435000D01*
X274652326Y-100435000D01*
X274631796Y-100538212D01*
X274631796Y-100538212D01*
G37*
X274631796Y-100538212D02*
X274631796Y-100761788D01*
X274675413Y-100981067D01*
X274760972Y-101187624D01*
X274857685Y-101332365D01*
X274829172Y-101344176D01*
X274643276Y-101468388D01*
X274485184Y-101626480D01*
X274360972Y-101812376D01*
X274277042Y-102015000D01*
X274055008Y-102015000D01*
X273835729Y-102058617D01*
X273629172Y-102144176D01*
X273590118Y-102170271D01*
X273125367Y-101705520D01*
X273100786Y-101675568D01*
X272981255Y-101577470D01*
X272844882Y-101504578D01*
X272696909Y-101459691D01*
X272581583Y-101448332D01*
X272581575Y-101448332D01*
X272543022Y-101444535D01*
X272504469Y-101448332D01*
X269103193Y-101448332D01*
X269213711Y-101241567D01*
X269284330Y-101008768D01*
X269308175Y-100766666D01*
X269284330Y-100524564D01*
X269257161Y-100435000D01*
X274652326Y-100435000D01*
X274631796Y-100538212D01*
G36*
X307965196Y-100538212D02*
G01*
X307965196Y-100761788D01*
X308008813Y-100981067D01*
X308094372Y-101187624D01*
X308191085Y-101332365D01*
X308162572Y-101344176D01*
X307976676Y-101468388D01*
X307818584Y-101626480D01*
X307694372Y-101812376D01*
X307610442Y-102015000D01*
X307388408Y-102015000D01*
X307169129Y-102058617D01*
X306962572Y-102144176D01*
X306923518Y-102170271D01*
X306458767Y-101705520D01*
X306434186Y-101675568D01*
X306314655Y-101577470D01*
X306178282Y-101504578D01*
X306030309Y-101459691D01*
X305914983Y-101448332D01*
X305914975Y-101448332D01*
X305876422Y-101444535D01*
X305837869Y-101448332D01*
X302436593Y-101448332D01*
X302547111Y-101241567D01*
X302617730Y-101008768D01*
X302641575Y-100766666D01*
X302617730Y-100524564D01*
X302590561Y-100435000D01*
X307985726Y-100435000D01*
X307965196Y-100538212D01*
X307965196Y-100538212D01*
G37*
X307965196Y-100538212D02*
X307965196Y-100761788D01*
X308008813Y-100981067D01*
X308094372Y-101187624D01*
X308191085Y-101332365D01*
X308162572Y-101344176D01*
X307976676Y-101468388D01*
X307818584Y-101626480D01*
X307694372Y-101812376D01*
X307610442Y-102015000D01*
X307388408Y-102015000D01*
X307169129Y-102058617D01*
X306962572Y-102144176D01*
X306923518Y-102170271D01*
X306458767Y-101705520D01*
X306434186Y-101675568D01*
X306314655Y-101577470D01*
X306178282Y-101504578D01*
X306030309Y-101459691D01*
X305914983Y-101448332D01*
X305914975Y-101448332D01*
X305876422Y-101444535D01*
X305837869Y-101448332D01*
X302436593Y-101448332D01*
X302547111Y-101241567D01*
X302617730Y-101008768D01*
X302641575Y-100766666D01*
X302617730Y-100524564D01*
X302590561Y-100435000D01*
X307985726Y-100435000D01*
X307965196Y-100538212D01*
G36*
X264050070Y-99057898D02*
G01*
X264026225Y-99300000D01*
X264050070Y-99542102D01*
X264120689Y-99774901D01*
X264235367Y-99989449D01*
X264271382Y-100033333D01*
X264235367Y-100077217D01*
X264120689Y-100291765D01*
X264050070Y-100524564D01*
X264026225Y-100766666D01*
X264050070Y-101008768D01*
X264120689Y-101241567D01*
X264231207Y-101448332D01*
X259808606Y-101448332D01*
X259770053Y-101444535D01*
X259731501Y-101448332D01*
X259731493Y-101448332D01*
X259616167Y-101459691D01*
X259468194Y-101504578D01*
X259355153Y-101564999D01*
X259015145Y-101564999D01*
X258972620Y-101462334D01*
X258848408Y-101276438D01*
X258782757Y-101210787D01*
X258861196Y-101132347D01*
X258891150Y-101107764D01*
X258989248Y-100988233D01*
X259042785Y-100888072D01*
X259333386Y-100888072D01*
X259457868Y-100875812D01*
X259577566Y-100839502D01*
X259687880Y-100780537D01*
X259784571Y-100701185D01*
X259833386Y-100641704D01*
X259882201Y-100701185D01*
X259978892Y-100780537D01*
X260089206Y-100839502D01*
X260208904Y-100875812D01*
X260333386Y-100888072D01*
X261047636Y-100885000D01*
X261206386Y-100726250D01*
X261206386Y-99377000D01*
X261460386Y-99377000D01*
X261460386Y-100726250D01*
X261619136Y-100885000D01*
X262333386Y-100888072D01*
X262457868Y-100875812D01*
X262577566Y-100839502D01*
X262687880Y-100780537D01*
X262784571Y-100701185D01*
X262863923Y-100604494D01*
X262922888Y-100494180D01*
X262959198Y-100374482D01*
X262971458Y-100250000D01*
X262968386Y-99535750D01*
X262809636Y-99377000D01*
X261460386Y-99377000D01*
X261206386Y-99377000D01*
X261186386Y-99377000D01*
X261186386Y-99123000D01*
X261206386Y-99123000D01*
X261206386Y-99103000D01*
X261460386Y-99103000D01*
X261460386Y-99123000D01*
X262809636Y-99123000D01*
X262968386Y-98964250D01*
X262968404Y-98960000D01*
X264079767Y-98960000D01*
X264050070Y-99057898D01*
X264050070Y-99057898D01*
G37*
X264050070Y-99057898D02*
X264026225Y-99300000D01*
X264050070Y-99542102D01*
X264120689Y-99774901D01*
X264235367Y-99989449D01*
X264271382Y-100033333D01*
X264235367Y-100077217D01*
X264120689Y-100291765D01*
X264050070Y-100524564D01*
X264026225Y-100766666D01*
X264050070Y-101008768D01*
X264120689Y-101241567D01*
X264231207Y-101448332D01*
X259808606Y-101448332D01*
X259770053Y-101444535D01*
X259731501Y-101448332D01*
X259731493Y-101448332D01*
X259616167Y-101459691D01*
X259468194Y-101504578D01*
X259355153Y-101564999D01*
X259015145Y-101564999D01*
X258972620Y-101462334D01*
X258848408Y-101276438D01*
X258782757Y-101210787D01*
X258861196Y-101132347D01*
X258891150Y-101107764D01*
X258989248Y-100988233D01*
X259042785Y-100888072D01*
X259333386Y-100888072D01*
X259457868Y-100875812D01*
X259577566Y-100839502D01*
X259687880Y-100780537D01*
X259784571Y-100701185D01*
X259833386Y-100641704D01*
X259882201Y-100701185D01*
X259978892Y-100780537D01*
X260089206Y-100839502D01*
X260208904Y-100875812D01*
X260333386Y-100888072D01*
X261047636Y-100885000D01*
X261206386Y-100726250D01*
X261206386Y-99377000D01*
X261460386Y-99377000D01*
X261460386Y-100726250D01*
X261619136Y-100885000D01*
X262333386Y-100888072D01*
X262457868Y-100875812D01*
X262577566Y-100839502D01*
X262687880Y-100780537D01*
X262784571Y-100701185D01*
X262863923Y-100604494D01*
X262922888Y-100494180D01*
X262959198Y-100374482D01*
X262971458Y-100250000D01*
X262968386Y-99535750D01*
X262809636Y-99377000D01*
X261460386Y-99377000D01*
X261206386Y-99377000D01*
X261186386Y-99377000D01*
X261186386Y-99123000D01*
X261206386Y-99123000D01*
X261206386Y-99103000D01*
X261460386Y-99103000D01*
X261460386Y-99123000D01*
X262809636Y-99123000D01*
X262968386Y-98964250D01*
X262968404Y-98960000D01*
X264079767Y-98960000D01*
X264050070Y-99057898D01*
M02*
