<?xml version="1.0" standalone="no"?>
 <!DOCTYPE svg PUBLIC "-//W3C//DTD SVG 1.1//EN" 
 "http://www.w3.org/Graphics/SVG/1.1/DTD/svg11.dtd"> 
<svg xmlns="http://www.w3.org/2000/svg" version="1.1" 
    width="41.9989cm" height="29.7002cm" viewBox="0 0 165350 116930 ">
<title>SVG Picture created as DInside-F_SilkS.svg date 2019/04/12 10:46:18 </title>
  <desc>Picture generated by PCBNEW </desc>
<g style="fill:#000000; fill-opacity:1;stroke:#000000; stroke-opacity:1;
stroke-linecap:round; stroke-linejoin:round; "
 transform="translate(0 0) scale(1 1)">
</g>
<g style="fill:#000000; fill-opacity:0.0; 
stroke:#000000; stroke-width:-0.000393701; stroke-opacity:1; 
stroke-linecap:round; stroke-linejoin:round;">
</g>
<g style="fill:#000000; fill-opacity:0.0; 
stroke:#000000; stroke-width:118.11; stroke-opacity:1; 
stroke-linecap:round; stroke-linejoin:round;">
<path d="M133538 41357
L133538 40176
L133819 40176
L133988 40232
L134101 40344
L134157 40457
L134213 40682
L134213 40850
L134157 41075
L134101 41188
L133988 41300
L133819 41357
L133538 41357
" />
<path d="M19003 41475
L19003 40294
L19284 40294
L19453 40350
L19565 40462
L19621 40575
L19678 40800
L19678 40969
L19621 41194
L19565 41306
L19453 41419
L19284 41475
L19003 41475
" />
</g>
<g style="fill:#000000; fill-opacity:0.0; 
stroke:#000000; stroke-width:3.93701; stroke-opacity:1; 
stroke-linecap:round; stroke-linejoin:round;">
<path d="M124845 43453
L126814 43453
" />
<path d="M125830 42469
L125830 44438
" />
<path d="M118283 43453
L120252 43453
" />
<path d="M119268 42469
L119268 44438
" />
<path d="M111721 43453
L113690 43453
" />
<path d="M112706 42469
L112706 44438
" />
<path d="M105159 43453
L107128 43453
" />
<path d="M106144 42469
L106144 44438
" />
<path d="M98597 43453
L100566 43453
" />
<path d="M99582 42469
L99582 44438
" />
<path d="M92036 43453
L94004 43453
" />
<path d="M93020 42469
L93020 44438
" />
<path d="M85474 43453
L87443 43453
" />
<path d="M86458 42469
L86458 44438
" />
<path d="M78912 43453
L80881 43453
" />
<path d="M79897 42469
L79897 44438
" />
<path d="M72351 43453
L74319 43453
" />
<path d="M73335 42469
L73335 44438
" />
<path d="M65789 43453
L67757 43453
" />
<path d="M66773 42469
L66773 44438
" />
<path d="M59227 43453
L61196 43453
" />
<path d="M60212 42469
L60212 44438
" />
<path d="M52666 43453
L54634 43453
" />
<path d="M53650 42469
L53650 44438
" />
<path d="M46104 43453
L48072 43453
" />
<path d="M47088 42469
L47088 44438
" />
<path d="M39542 43453
L41511 43453
" />
<path d="M40526 42469
L40526 44438
" />
<path d="M32981 43453
L34949 43453
" />
<path d="M33965 42469
L33965 44438
" />
<path d="M26419 43453
L28387 43453
" />
<path d="M27403 42469
L27403 44438
" />
<path d="M122547 44033
L122368 44005
" />
<path d="M122727 44005
L122547 44033
" />
<path d="M122888 43923
L122727 44005
" />
<path d="M123017 43794
L122888 43923
" />
<path d="M123099 43632
L123017 43794
" />
<path d="M123127 43453
L123099 43632
" />
<path d="M123099 43274
L123127 43453
" />
<path d="M123017 43112
L123099 43274
" />
<path d="M122888 42984
L123017 43112
" />
<path d="M122727 42902
L122888 42984
" />
<path d="M122547 42873
L122727 42902
" />
<path d="M122368 42902
L122547 42873
" />
<path d="M122206 42984
L122368 42902
" />
<path d="M122078 43112
L122206 42984
" />
<path d="M121996 43274
L122078 43112
" />
<path d="M121967 43453
L121996 43274
" />
<path d="M121996 43632
L121967 43453
" />
<path d="M122078 43794
L121996 43632
" />
<path d="M122206 43923
L122078 43794
" />
<path d="M122368 44005
L122206 43923
" />
<path d="M76616 44033
L76436 44005
" />
<path d="M76795 44005
L76616 44033
" />
<path d="M76956 43923
L76795 44005
" />
<path d="M77085 43794
L76956 43923
" />
<path d="M77167 43632
L77085 43794
" />
<path d="M77196 43453
L77167 43632
" />
<path d="M77167 43274
L77196 43453
" />
<path d="M77085 43112
L77167 43274
" />
<path d="M76956 42984
L77085 43112
" />
<path d="M76795 42902
L76956 42984
" />
<path d="M76616 42873
L76795 42902
" />
<path d="M76436 42902
L76616 42873
" />
<path d="M76275 42984
L76436 42902
" />
<path d="M76147 43112
L76275 42984
" />
<path d="M76064 43274
L76147 43112
" />
<path d="M76036 43453
L76064 43274
" />
<path d="M76064 43632
L76036 43453
" />
<path d="M76147 43794
L76064 43632
" />
<path d="M76275 43923
L76147 43794
" />
<path d="M76436 44005
L76275 43923
" />
<path d="M30684 44033
L30505 44005
" />
<path d="M30863 44005
L30684 44033
" />
<path d="M31025 43923
L30863 44005
" />
<path d="M31153 43794
L31025 43923
" />
<path d="M31236 43632
L31153 43794
" />
<path d="M31264 43453
L31236 43632
" />
<path d="M31236 43274
L31264 43453
" />
<path d="M31153 43112
L31236 43274
" />
<path d="M31025 42984
L31153 43112
" />
<path d="M30863 42902
L31025 42984
" />
<path d="M30684 42873
L30863 42902
" />
<path d="M30505 42902
L30684 42873
" />
<path d="M30343 42984
L30505 42902
" />
<path d="M30215 43112
L30343 42984
" />
<path d="M30132 43274
L30215 43112
" />
<path d="M30104 43453
L30132 43274
" />
<path d="M30132 43632
L30104 43453
" />
<path d="M30215 43794
L30132 43632
" />
<path d="M30343 43923
L30215 43794
" />
<path d="M30505 44005
L30343 43923
" />
<path d="M126813 42469
L126813 44438
" />
<path d="M124844 42469
L126813 42469
" />
<path d="M124844 44438
L124844 42469
" />
<path d="M126813 44438
L124844 44438
" />
<path d="M120251 42469
L120251 44438
" />
<path d="M118283 42469
L120251 42469
" />
<path d="M118283 44438
L118283 42469
" />
<path d="M120251 44438
L118283 44438
" />
<path d="M113689 42469
L113689 44438
" />
<path d="M111721 42469
L113689 42469
" />
<path d="M111721 44438
L111721 42469
" />
<path d="M113689 44438
L111721 44438
" />
<path d="M107128 42469
L107128 44438
" />
<path d="M105159 42469
L107128 42469
" />
<path d="M105159 44438
L105159 42469
" />
<path d="M107128 44438
L105159 44438
" />
<path d="M100566 42469
L100566 44438
" />
<path d="M98597 42469
L100566 42469
" />
<path d="M98597 44438
L98597 42469
" />
<path d="M100566 44438
L98597 44438
" />
<path d="M94004 42469
L94004 44438
" />
<path d="M92036 42469
L94004 42469
" />
<path d="M92036 44438
L92036 42469
" />
<path d="M94004 44438
L92036 44438
" />
<path d="M87443 42469
L87443 44438
" />
<path d="M85474 42469
L87443 42469
" />
<path d="M85474 44438
L85474 42469
" />
<path d="M87443 44438
L85474 44438
" />
<path d="M80881 42469
L80881 44438
" />
<path d="M78912 42469
L80881 42469
" />
<path d="M78912 44438
L78912 42469
" />
<path d="M80881 44438
L78912 44438
" />
<path d="M74319 42469
L74319 44438
" />
<path d="M72351 42469
L74319 42469
" />
<path d="M72351 44438
L72351 42469
" />
<path d="M74319 44438
L72351 44438
" />
<path d="M67757 42469
L67757 44438
" />
<path d="M65789 42469
L67757 42469
" />
<path d="M65789 44438
L65789 42469
" />
<path d="M67757 44438
L65789 44438
" />
<path d="M61196 42469
L61196 44438
" />
<path d="M59227 42469
L61196 42469
" />
<path d="M59227 44438
L59227 42469
" />
<path d="M61196 44438
L59227 44438
" />
<path d="M54634 42469
L54634 44438
" />
<path d="M52666 42469
L54634 42469
" />
<path d="M52666 44438
L52666 42469
" />
<path d="M54634 44438
L52666 44438
" />
<path d="M48072 42469
L48072 44438
" />
<path d="M46104 42469
L48072 42469
" />
<path d="M46104 44438
L46104 42469
" />
<path d="M48072 44438
L46104 44438
" />
<path d="M41511 42469
L41511 44438
" />
<path d="M39542 42469
L41511 42469
" />
<path d="M39542 44438
L39542 42469
" />
<path d="M41511 44438
L39542 44438
" />
<path d="M34949 42469
L34949 44438
" />
<path d="M32981 42469
L34949 42469
" />
<path d="M32981 44438
L32981 42469
" />
<path d="M34949 44438
L32981 44438
" />
<path d="M28387 42469
L28387 44438
" />
<path d="M26419 42469
L28387 42469
" />
<path d="M26419 44438
L26419 42469
" />
<path d="M28387 44438
L26419 44438
" />
<path d="M139596 42913
L139596 42913
" />
<path d="M139596 43250
L139596 42913
" />
<path d="M139596 43587
L139596 43250
" />
<path d="M139596 43924
L139596 43587
" />
<path d="M139596 44261
L139596 43924
" />
<path d="M139814 44261
L139596 44261
" />
<path d="M140032 44261
L139814 44261
" />
<path d="M140250 44261
L140032 44261
" />
<path d="M140468 44261
L140250 44261
" />
<path d="M140475 44198
L140468 44261
" />
<path d="M140483 44135
L140475 44198
" />
<path d="M140491 44071
L140483 44135
" />
<path d="M140499 44008
L140491 44071
" />
<path d="M140353 44008
L140499 44008
" />
<path d="M140207 44008
L140353 44008
" />
<path d="M140061 44008
L140207 44008
" />
<path d="M139915 44008
L140061 44008
" />
<path d="M139915 43734
L139915 44008
" />
<path d="M139915 43461
L139915 43734
" />
<path d="M139915 43187
L139915 43461
" />
<path d="M139915 42913
L139915 43187
" />
<path d="M139835 42913
L139915 42913
" />
<path d="M139756 42913
L139835 42913
" />
<path d="M139676 42913
L139756 42913
" />
<path d="M139596 42913
L139676 42913
" />
<path d="M139019 43821
L139019 43821
" />
<path d="M139009 43920
L139019 43821
" />
<path d="M138979 44000
L139009 43920
" />
<path d="M138927 44054
L138979 44000
" />
<path d="M138851 44074
L138927 44054
" />
<path d="M138765 44049
L138851 44074
" />
<path d="M138709 43975
L138765 44049
" />
<path d="M138678 43849
L138709 43975
" />
<path d="M138667 43674
L138678 43849
" />
<path d="M138712 43628
L138667 43674
" />
<path d="M138762 43595
L138712 43628
" />
<path d="M138815 43575
L138762 43595
" />
<path d="M138869 43568
L138815 43575
" />
<path d="M138933 43582
L138869 43568
" />
<path d="M138980 43626
L138933 43582
" />
<path d="M139009 43704
L138980 43626
" />
<path d="M139019 43821
L139009 43704
" />
<path d="M139326 43804
L139326 43804
" />
<path d="M139297 43613
L139326 43804
" />
<path d="M139216 43473
L139297 43613
" />
<path d="M139096 43386
L139216 43473
" />
<path d="M138949 43356
L139096 43386
" />
<path d="M138876 43364
L138949 43356
" />
<path d="M138803 43387
L138876 43364
" />
<path d="M138732 43425
L138803 43387
" />
<path d="M138667 43479
L138732 43425
" />
<path d="M138695 43315
L138667 43479
" />
<path d="M138753 43196
L138695 43315
" />
<path d="M138835 43123
L138753 43196
" />
<path d="M138935 43098
L138835 43123
" />
<path d="M138979 43101
L138935 43098
" />
<path d="M139023 43111
L138979 43101
" />
<path d="M139066 43128
L139023 43111
" />
<path d="M139106 43152
L139066 43128
" />
<path d="M139136 43105
L139106 43152
" />
<path d="M139165 43059
L139136 43105
" />
<path d="M139194 43012
L139165 43059
" />
<path d="M139223 42965
L139194 43012
" />
<path d="M139162 42930
L139223 42965
" />
<path d="M139093 42902
L139162 42930
" />
<path d="M139015 42884
L139093 42902
" />
<path d="M138931 42878
L139015 42884
" />
<path d="M138685 42935
L138931 42878
" />
<path d="M138501 43094
L138685 42935
" />
<path d="M138386 43339
L138501 43094
" />
<path d="M138346 43652
L138386 43339
" />
<path d="M138374 43899
L138346 43652
" />
<path d="M138462 44103
L138374 43899
" />
<path d="M138618 44243
L138462 44103
" />
<path d="M138848 44294
L138618 44243
" />
<path d="M139046 44256
L138848 44294
" />
<path d="M139197 44150
L139046 44256
" />
<path d="M139293 43995
L139197 44150
" />
<path d="M139326 43804
L139293 43995
" />
<path d="M17388 43216
L17480 43166
" />
<path d="M17303 43286
L17388 43216
" />
<path d="M17340 43073
L17303 43286
" />
<path d="M17415 42917
L17340 43073
" />
<path d="M17522 42822
L17415 42917
" />
<path d="M17653 42790
L17522 42822
" />
<path d="M17670 43127
L17862 43165
" />
<path d="M17576 43137
L17670 43127
" />
<path d="M17480 43166
L17576 43137
" />
<path d="M18123 43461
L18162 43709
" />
<path d="M18018 43278
L18123 43461
" />
<path d="M17862 43165
L18018 43278
" />
<path d="M138028 44028
L138091 44028
" />
<path d="M137965 44028
L138028 44028
" />
<path d="M137903 44028
L137965 44028
" />
<path d="M137903 43749
L137903 44028
" />
<path d="M137903 43470
L137903 43749
" />
<path d="M137903 43192
L137903 43470
" />
<path d="M137903 42913
L137903 43192
" />
<path d="M137835 42913
L137903 42913
" />
<path d="M137767 42913
L137835 42913
" />
<path d="M137698 42913
L137767 42913
" />
<path d="M137630 42913
L137698 42913
" />
<path d="M137521 42979
L137630 42913
" />
<path d="M137412 43045
L137521 42979
" />
<path d="M137303 43111
L137412 43045
" />
<path d="M137195 43177
L137303 43111
" />
<path d="M137227 43230
L137195 43177
" />
<path d="M137260 43283
L137227 43230
" />
<path d="M137292 43336
L137260 43283
" />
<path d="M137325 43389
L137292 43336
" />
<path d="M137394 43346
L137325 43389
" />
<path d="M137464 43302
L137394 43346
" />
<path d="M137534 43258
L137464 43302
" />
<path d="M137603 43214
L137534 43258
" />
<path d="M137603 43418
L137603 43214
" />
<path d="M137603 43621
L137603 43418
" />
<path d="M137603 43824
L137603 43621
" />
<path d="M137603 44028
L137603 43824
" />
<path d="M137522 44028
L137603 44028
" />
<path d="M137441 44028
L137522 44028
" />
<path d="M137359 44028
L137441 44028
" />
<path d="M137278 44028
L137359 44028
" />
<path d="M137278 44086
L137278 44028
" />
<path d="M137278 44144
L137278 44086
" />
<path d="M137278 44203
L137278 44144
" />
<path d="M137278 44261
L137278 44203
" />
<path d="M137497 44261
L137278 44261
" />
<path d="M137716 44261
L137497 44261
" />
<path d="M137935 44261
L137716 44261
" />
<path d="M138154 44261
L137935 44261
" />
<path d="M138154 44203
L138154 44261
" />
<path d="M138154 44144
L138154 44203
" />
<path d="M138154 44086
L138154 44144
" />
<path d="M138154 44028
L138154 44086
" />
<path d="M15562 42959
L15674 42959
" />
<path d="M15450 42959
L15562 42959
" />
<path d="M15338 42959
L15450 42959
" />
<path d="M15442 43119
L15338 42959
" />
<path d="M15547 43279
L15442 43119
" />
<path d="M15651 43438
L15547 43279
" />
<path d="M138154 44028
L138154 44028
" />
<path d="M138091 44028
L138154 44028
" />
<path d="M17710 42794
L17653 42790
" />
<path d="M17767 42807
L17710 42794
" />
<path d="M17822 42829
L17767 42807
" />
<path d="M17875 42861
L17822 42829
" />
<path d="M17913 42800
L17875 42861
" />
<path d="M17951 42739
L17913 42800
" />
<path d="M17989 42678
L17951 42739
" />
<path d="M18027 42618
L17989 42678
" />
<path d="M17948 42571
L18027 42618
" />
<path d="M17857 42535
L17948 42571
" />
<path d="M17757 42512
L17857 42535
" />
<path d="M17647 42504
L17757 42512
" />
<path d="M17328 42578
L17647 42504
" />
<path d="M17088 42785
L17328 42578
" />
<path d="M16937 43104
L17088 42785
" />
<path d="M16885 43511
L16937 43104
" />
<path d="M16922 43832
L16885 43511
" />
<path d="M17037 44098
L16922 43832
" />
<path d="M17240 44280
L17037 44098
" />
<path d="M17539 44347
L17240 44280
" />
<path d="M17797 44297
L17539 44347
" />
<path d="M17993 44160
L17797 44297
" />
<path d="M18118 43957
L17993 44160
" />
<path d="M18162 43709
L18118 43957
" />
<path d="M15295 44304
L15295 44304
" />
<path d="M15403 44304
L15295 44304
" />
<path d="M15511 44304
L15403 44304
" />
<path d="M15619 44304
L15511 44304
" />
<path d="M15728 44304
L15619 44304
" />
<path d="M15792 44178
L15728 44304
" />
<path d="M15856 44052
L15792 44178
" />
<path d="M15919 43926
L15856 44052
" />
<path d="M15983 43800
L15919 43926
" />
<path d="M16050 43926
L15983 43800
" />
<path d="M16116 44052
L16050 43926
" />
<path d="M16183 44178
L16116 44052
" />
<path d="M16249 44304
L16183 44178
" />
<path d="M16363 44304
L16249 44304
" />
<path d="M16476 44304
L16363 44304
" />
<path d="M16589 44304
L16476 44304
" />
<path d="M16703 44304
L16589 44304
" />
<path d="M16587 44124
L16703 44304
" />
<path d="M16471 43943
L16587 44124
" />
<path d="M16355 43763
L16471 43943
" />
<path d="M16239 43582
L16355 43763
" />
<path d="M16338 43427
L16239 43582
" />
<path d="M16437 43271
L16338 43427
" />
<path d="M16535 43115
L16437 43271
" />
<path d="M16634 42959
L16535 43115
" />
<path d="M16528 42959
L16634 42959
" />
<path d="M16422 42959
L16528 42959
" />
<path d="M16315 42959
L16422 42959
" />
<path d="M16209 42959
L16315 42959
" />
<path d="M16157 43067
L16209 42959
" />
<path d="M16105 43175
L16157 43067
" />
<path d="M16053 43282
L16105 43175
" />
<path d="M16001 43390
L16053 43282
" />
<path d="M15947 43282
L16001 43390
" />
<path d="M15893 43175
L15947 43282
" />
<path d="M15840 43067
L15893 43175
" />
<path d="M15786 42959
L15840 43067
" />
<path d="M15674 42959
L15786 42959
" />
<path d="M15295 44304
L15410 44128
" />
<path d="M17710 43477
L17649 43420
" />
<path d="M17748 43579
L17710 43477
" />
<path d="M17761 43732
L17748 43579
" />
<path d="M17761 43732
L17761 43732
" />
<path d="M17749 43860
L17761 43732
" />
<path d="M17710 43965
L17749 43860
" />
<path d="M17642 44035
L17710 43965
" />
<path d="M17544 44061
L17642 44035
" />
<path d="M17431 44029
L17544 44061
" />
<path d="M17358 43931
L17431 44029
" />
<path d="M17318 43768
L17358 43931
" />
<path d="M17303 43539
L17318 43768
" />
<path d="M17362 43481
L17303 43539
" />
<path d="M17427 43438
L17362 43481
" />
<path d="M18162 43709
L18162 43709
" />
<path d="M15755 43598
L15651 43438
" />
<path d="M15640 43774
L15755 43598
" />
<path d="M15525 43951
L15640 43774
" />
<path d="M15410 44128
L15525 43951
" />
<path d="M17496 43412
L17427 43438
" />
<path d="M17566 43403
L17496 43412
" />
<path d="M17649 43420
L17566 43403
" />
</g>
<g style="fill:#000000; fill-opacity:0.0; 
stroke:#000000; stroke-width:47.2441; stroke-opacity:1; 
stroke-linecap:round; stroke-linejoin:round;">
<path d="M28841 44536
L25966 44536
" />
<path d="M28841 44083
L28841 44536
" />
<path d="M28841 42371
L25966 42371
" />
<path d="M126237 41427
L126034 41427
" />
<path d="M126237 41986
L126034 41986
" />
<path d="M28236 45153
L28033 45153
" />
<path d="M28236 45712
L28033 45712
" />
<path d="M109762 43715
L109762 43512
" />
<path d="M109203 43715
L109203 43512
" />
<path d="M116324 43715
L116324 43512
" />
<path d="M115765 43715
L115765 43512
" />
<path d="M118702 41380
L118499 41380
" />
<path d="M118702 41939
L118499 41939
" />
<path d="M124461 41419
L124258 41419
" />
<path d="M124461 41978
L124258 41978
" />
<path d="M127262 44536
L124388 44536
" />
<path d="M127262 44083
L127262 44536
" />
<path d="M127262 42371
L124388 42371
" />
<path d="M120701 44536
L117827 44536
" />
<path d="M120701 44083
L120701 44536
" />
<path d="M120701 42371
L117827 42371
" />
<path d="M114139 44536
L111265 44536
" />
<path d="M114139 44083
L114139 44536
" />
<path d="M114139 42371
L111265 42371
" />
<path d="M107577 44536
L104703 44536
" />
<path d="M107577 44083
L107577 44536
" />
<path d="M107577 42371
L104703 42371
" />
<path d="M108124 43512
L108124 43715
" />
<path d="M108683 43512
L108683 43715
" />
<path d="M114686 43512
L114686 43715
" />
<path d="M115245 43512
L115245 43715
" />
<path d="M120202 41380
L119999 41380
" />
<path d="M120202 41939
L119999 41939
" />
<path d="M76824 43715
L76824 43512
" />
<path d="M76265 43715
L76265 43512
" />
<path d="M79102 41480
L78899 41480
" />
<path d="M79102 42039
L78899 42039
" />
<path d="M89932 43715
L89932 43512
" />
<path d="M89373 43715
L89373 43512
" />
<path d="M96485 43715
L96485 43512
" />
<path d="M95926 43715
L95926 43512
" />
<path d="M103218 43715
L103218 43512
" />
<path d="M102659 43715
L102659 43512
" />
<path d="M35402 44536
L32528 44536
" />
<path d="M35402 44083
L35402 44536
" />
<path d="M35402 42371
L32528 42371
" />
<path d="M101016 44536
L98141 44536
" />
<path d="M101016 44083
L101016 44536
" />
<path d="M101016 42371
L98141 42371
" />
<path d="M94454 44536
L91580 44536
" />
<path d="M94454 44083
L94454 44536
" />
<path d="M94454 42371
L91580 42371
" />
<path d="M87893 44536
L85019 44536
" />
<path d="M87893 44083
L87893 44536
" />
<path d="M87893 42371
L85019 42371
" />
<path d="M81331 44536
L78457 44536
" />
<path d="M81331 44083
L81331 44536
" />
<path d="M81331 42371
L78457 42371
" />
<path d="M74770 44536
L71896 44536
" />
<path d="M74770 44083
L74770 44536
" />
<path d="M74770 42371
L71896 42371
" />
<path d="M68209 44536
L65335 44536
" />
<path d="M68209 44083
L68209 44536
" />
<path d="M68209 42371
L65335 42371
" />
<path d="M61647 44536
L58773 44536
" />
<path d="M61647 44083
L61647 44536
" />
<path d="M61647 42371
L58773 42371
" />
<path d="M55086 44536
L52212 44536
" />
<path d="M55086 44083
L55086 44536
" />
<path d="M55086 42371
L52212 42371
" />
<path d="M48525 44536
L45651 44536
" />
<path d="M48525 44083
L48525 44536
" />
<path d="M48525 42371
L45651 42371
" />
<path d="M41963 44536
L39089 44536
" />
<path d="M41963 44083
L41963 44536
" />
<path d="M41963 42371
L39089 42371
" />
<path d="M35844 43512
L35844 43715
" />
<path d="M36403 43512
L36403 43715
" />
<path d="M42397 43512
L42397 43715
" />
<path d="M42956 43512
L42956 43715
" />
<path d="M48951 43512
L48951 43715
" />
<path d="M49510 43512
L49510 43715
" />
<path d="M55505 43512
L55505 43715
" />
<path d="M56064 43512
L56064 43715
" />
<path d="M62058 43512
L62058 43715
" />
<path d="M62617 43512
L62617 43715
" />
<path d="M68612 43512
L68612 43715
" />
<path d="M69171 43512
L69171 43715
" />
<path d="M75165 43512
L75165 43715
" />
<path d="M75724 43512
L75724 43715
" />
<path d="M80602 41480
L80399 41480
" />
<path d="M80602 42039
L80399 42039
" />
<path d="M88273 43512
L88273 43715
" />
<path d="M88832 43512
L88832 43715
" />
<path d="M94826 43512
L94826 43715
" />
<path d="M95385 43512
L95385 43715
" />
<path d="M101521 43512
L101521 43715
" />
<path d="M102080 43512
L102080 43715
" />
<path d="M70271 43715
L70271 43512
" />
<path d="M69712 43715
L69712 43512
" />
<path d="M63717 43715
L63717 43512
" />
<path d="M63158 43715
L63158 43512
" />
<path d="M57164 43715
L57164 43512
" />
<path d="M56605 43715
L56605 43512
" />
<path d="M50610 43715
L50610 43512
" />
<path d="M50051 43715
L50051 43512
" />
<path d="M44056 43715
L44056 43512
" />
<path d="M43497 43715
L43497 43512
" />
<path d="M37503 43715
L37503 43512
" />
<path d="M36944 43715
L36944 43512
" />
<path d="M28236 41374
L28033 41374
" />
<path d="M28236 41933
L28033 41933
" />
</g>
<g style="fill:#000000; fill-opacity:0.0; 
stroke:#000000; stroke-width:59.0551; stroke-opacity:1; 
stroke-linecap:round; stroke-linejoin:round;">
<path d="M27113 45010
L27113 44616
L27207 44616
L27263 44635
L27300 44672
L27319 44710
L27338 44785
L27338 44841
L27319 44916
L27300 44953
L27263 44991
L27207 45010
L27113 45010
" />
<path d="M27713 45010
L27488 45010
" />
<path d="M27600 45010
L27600 44616
L27563 44672
L27525 44710
L27488 44728
" />
<path d="M26445 45233
L26408 45215
L26351 45215
L26295 45233
L26258 45271
L26239 45308
L26220 45383
L26220 45440
L26239 45515
L26258 45552
L26295 45590
L26351 45608
L26389 45608
L26445 45590
L26464 45571
L26464 45440
L26389 45440
" />
<path d="M26633 45608
L26633 45215
L26858 45608
L26858 45215
" />
<path d="M27045 45608
L27045 45215
L27139 45215
L27195 45233
L27233 45271
L27251 45308
L27270 45383
L27270 45440
L27251 45515
L27233 45552
L27195 45590
L27139 45608
L27045 45608
" />
<path d="M26470 41015
L26283 41015
L26264 41202
L26283 41183
L26320 41165
L26414 41165
L26451 41183
L26470 41202
L26489 41240
L26489 41333
L26470 41371
L26451 41390
L26414 41408
L26320 41408
L26283 41390
L26264 41371
" />
<path d="M26601 41015
L26733 41408
L26864 41015
" />
<path d="M22945 44133
L22908 44115
L22851 44115
L22795 44133
L22758 44171
L22739 44208
L22720 44283
L22720 44340
L22739 44415
L22758 44452
L22795 44490
L22851 44508
L22889 44508
L22945 44490
L22964 44471
L22964 44340
L22889 44340
" />
<path d="M23133 44508
L23133 44115
L23358 44508
L23358 44115
" />
<path d="M23545 44508
L23545 44115
L23639 44115
L23695 44133
L23733 44171
L23751 44208
L23770 44283
L23770 44340
L23751 44415
L23733 44452
L23695 44490
L23639 44508
L23545 44508
" />
<path d="M23370 42115
L23183 42115
L23164 42302
L23183 42283
L23220 42265
L23314 42265
L23351 42283
L23370 42302
L23389 42340
L23389 42433
L23370 42471
L23351 42490
L23314 42508
L23220 42508
L23183 42490
L23164 42471
" />
<path d="M23501 42115
L23633 42508
L23764 42115
" />
<path d="M22942 43508
L22942 43115
L23036 43115
L23092 43133
L23130 43171
L23148 43208
L23167 43283
L23167 43340
L23148 43415
L23130 43452
L23092 43490
L23036 43508
L22942 43508
" />
<path d="M23336 43508
L23336 43115
" />
<path d="M23523 43508
L23523 43115
L23748 43508
L23748 43115
" />
<path d="M23645 45233
L23608 45215
L23551 45215
L23495 45233
L23458 45271
L23439 45308
L23420 45383
L23420 45440
L23439 45515
L23458 45552
L23495 45590
L23551 45608
L23589 45608
L23645 45590
L23664 45571
L23664 45440
L23589 45440
" />
<path d="M23833 45608
L23833 45215
L24058 45608
L24058 45215
" />
<path d="M24245 45608
L24245 45215
L24339 45215
L24395 45233
L24433 45271
L24451 45308
L24470 45383
L24470 45440
L24451 45515
L24433 45552
L24395 45590
L24339 45608
L24245 45608
" />
<path d="M24070 41015
L23883 41015
L23864 41202
L23883 41183
L23920 41165
L24014 41165
L24051 41183
L24070 41202
L24089 41240
L24089 41333
L24070 41371
L24051 41390
L24014 41408
L23920 41408
L23883 41390
L23864 41371
" />
<path d="M24201 41015
L24333 41408
L24464 41015
" />
<path d="M128282 45051
L128245 45033
L128188 45033
L128132 45051
L128095 45089
L128076 45126
L128057 45201
L128057 45258
L128076 45333
L128095 45370
L128132 45408
L128188 45426
L128226 45426
L128282 45408
L128301 45389
L128301 45258
L128226 45258
" />
<path d="M128470 45426
L128470 45033
L128695 45426
L128695 45033
" />
<path d="M128882 45426
L128882 45033
L128976 45033
L129032 45051
L129070 45089
L129088 45126
L129107 45201
L129107 45258
L129088 45333
L129070 45370
L129032 45408
L128976 45426
L128882 45426
" />
<path d="M128507 41433
L128320 41433
L128301 41620
L128320 41601
L128357 41583
L128451 41583
L128488 41601
L128507 41620
L128526 41658
L128526 41751
L128507 41789
L128488 41808
L128451 41826
L128357 41826
L128320 41808
L128301 41789
" />
<path d="M128638 41433
L128770 41826
L128901 41433
" />
<path d="M129517 43626
L129517 43233
L129610 43233
L129667 43251
L129704 43289
L129723 43326
L129742 43401
L129742 43458
L129723 43533
L129704 43570
L129667 43608
L129610 43626
L129517 43626
" />
<path d="M129985 43233
L130060 43233
L130098 43251
L130135 43289
L130154 43364
L130154 43495
L130135 43570
L130098 43608
L130060 43626
L129985 43626
L129948 43608
L129910 43570
L129892 43495
L129892 43364
L129910 43289
L129948 43251
L129985 43233
" />
<path d="M130323 43233
L130323 43551
L130342 43589
L130360 43608
L130398 43626
L130473 43626
L130510 43608
L130529 43589
L130548 43551
L130548 43233
" />
<path d="M130679 43233
L130904 43233
" />
<path d="M130791 43626
L130791 43233
" />
<path d="M127237 41907
L127049 42038
" />
<path d="M127237 42132
L126843 42132
L126843 41982
L126862 41945
L126880 41926
L126918 41907
L126974 41907
L127012 41926
L127030 41945
L127049 41982
L127049 42132
" />
<path d="M127237 41532
L127237 41757
" />
<path d="M127237 41645
L126843 41645
L126899 41682
L126937 41720
L126955 41757
" />
<path d="M126843 41195
L126843 41270
L126862 41307
L126880 41326
L126937 41364
L127012 41382
L127162 41382
L127199 41364
L127218 41345
L127237 41307
L127237 41232
L127218 41195
L127199 41176
L127162 41157
L127068 41157
L127030 41176
L127012 41195
L126993 41232
L126993 41307
L127012 41345
L127030 41364
L127068 41382
" />
<path d="M28887 45367
L29075 45236
" />
<path d="M28887 45142
L29281 45142
L29281 45292
L29262 45329
L29243 45348
L29206 45367
L29150 45367
L29112 45348
L29093 45329
L29075 45292
L29075 45142
" />
<path d="M28887 45742
L28887 45517
" />
<path d="M28887 45629
L29281 45629
L29225 45592
L29187 45554
L29168 45517
" />
<path d="M109230 42831
L109211 42850
L109155 42869
L109117 42869
L109061 42850
L109024 42812
L109005 42775
L108986 42700
L108986 42644
L109005 42569
L109024 42531
L109061 42494
L109117 42475
L109155 42475
L109211 42494
L109230 42512
" />
<path d="M109605 42869
L109380 42869
" />
<path d="M109492 42869
L109492 42475
L109455 42531
L109417 42569
L109380 42587
" />
<path d="M109736 42475
L109980 42475
L109848 42625
L109905 42625
L109942 42644
L109961 42662
L109980 42700
L109980 42794
L109961 42831
L109942 42850
L109905 42869
L109792 42869
L109755 42850
L109736 42831
" />
<path d="M115791 42831
L115773 42850
L115716 42869
L115679 42869
L115623 42850
L115585 42812
L115567 42775
L115548 42700
L115548 42644
L115567 42569
L115585 42531
L115623 42494
L115679 42475
L115716 42475
L115773 42494
L115791 42512
" />
<path d="M116166 42869
L115941 42869
" />
<path d="M116054 42869
L116054 42475
L116016 42531
L115979 42569
L115941 42587
" />
<path d="M116504 42606
L116504 42869
" />
<path d="M116410 42456
L116316 42737
L116560 42737
" />
<path d="M117818 41912
L117837 41931
L117856 41987
L117856 42025
L117837 42081
L117799 42118
L117762 42137
L117687 42156
L117631 42156
L117556 42137
L117518 42118
L117481 42081
L117462 42025
L117462 41987
L117481 41931
L117499 41912
" />
<path d="M117856 41537
L117856 41762
" />
<path d="M117856 41650
L117462 41650
L117518 41687
L117556 41725
L117574 41762
" />
<path d="M117462 41181
L117462 41369
L117649 41387
L117631 41369
L117612 41331
L117612 41237
L117631 41200
L117649 41181
L117687 41162
L117781 41162
L117818 41181
L117837 41200
L117856 41237
L117856 41331
L117837 41369
L117818 41387
" />
<path d="M123577 41951
L123596 41970
L123615 42026
L123615 42064
L123596 42120
L123558 42157
L123521 42176
L123446 42195
L123390 42195
L123315 42176
L123277 42157
L123240 42120
L123221 42064
L123221 42026
L123240 41970
L123258 41951
" />
<path d="M123615 41576
L123615 41801
" />
<path d="M123615 41689
L123221 41689
L123277 41726
L123315 41764
L123333 41801
" />
<path d="M123221 41239
L123221 41314
L123240 41351
L123258 41370
L123315 41408
L123390 41426
L123540 41426
L123577 41408
L123596 41389
L123615 41351
L123615 41276
L123596 41239
L123577 41220
L123540 41201
L123446 41201
L123408 41220
L123390 41239
L123371 41276
L123371 41351
L123390 41389
L123408 41408
L123446 41426
" />
<path d="M125347 45010
L125347 44616
L125441 44616
L125497 44635
L125535 44672
L125553 44710
L125572 44785
L125572 44841
L125553 44916
L125535 44953
L125497 44991
L125441 45010
L125347 45010
" />
<path d="M125947 45010
L125722 45010
" />
<path d="M125835 45010
L125835 44616
L125797 44672
L125760 44710
L125722 44728
" />
<path d="M126285 44616
L126210 44616
L126172 44635
L126153 44653
L126116 44710
L126097 44785
L126097 44935
L126116 44972
L126135 44991
L126172 45010
L126247 45010
L126285 44991
L126303 44972
L126322 44935
L126322 44841
L126303 44803
L126285 44785
L126247 44766
L126172 44766
L126135 44785
L126116 44803
L126097 44841
" />
<path d="M118785 45010
L118785 44616
L118879 44616
L118935 44635
L118973 44672
L118992 44710
L119010 44785
L119010 44841
L118992 44916
L118973 44953
L118935 44991
L118879 45010
L118785 45010
" />
<path d="M119385 45010
L119160 45010
" />
<path d="M119273 45010
L119273 44616
L119235 44672
L119198 44710
L119160 44728
" />
<path d="M119742 44616
L119554 44616
L119535 44803
L119554 44785
L119592 44766
L119685 44766
L119723 44785
L119742 44803
L119760 44841
L119760 44935
L119742 44972
L119723 44991
L119685 45010
L119592 45010
L119554 44991
L119535 44972
" />
<path d="M112224 45010
L112224 44616
L112318 44616
L112374 44635
L112411 44672
L112430 44710
L112449 44785
L112449 44841
L112430 44916
L112411 44953
L112374 44991
L112318 45010
L112224 45010
" />
<path d="M112824 45010
L112599 45010
" />
<path d="M112711 45010
L112711 44616
L112674 44672
L112636 44710
L112599 44728
" />
<path d="M113161 44747
L113161 45010
" />
<path d="M113067 44597
L112974 44878
L113217 44878
" />
<path d="M105662 45010
L105662 44616
L105756 44616
L105812 44635
L105850 44672
L105868 44710
L105887 44785
L105887 44841
L105868 44916
L105850 44953
L105812 44991
L105756 45010
L105662 45010
" />
<path d="M106262 45010
L106037 45010
" />
<path d="M106150 45010
L106150 44616
L106112 44672
L106075 44710
L106037 44728
" />
<path d="M106393 44616
L106637 44616
L106506 44766
L106562 44766
L106599 44785
L106618 44803
L106637 44841
L106637 44935
L106618 44972
L106599 44991
L106562 45010
L106450 45010
L106412 44991
L106393 44972
" />
<path d="M108098 42869
L107967 42681
" />
<path d="M107873 42869
L107873 42475
L108023 42475
L108061 42494
L108079 42512
L108098 42550
L108098 42606
L108079 42644
L108061 42662
L108023 42681
L107873 42681
" />
<path d="M108473 42869
L108248 42869
" />
<path d="M108360 42869
L108360 42475
L108323 42531
L108285 42569
L108248 42587
" />
<path d="M108604 42475
L108848 42475
L108717 42625
L108773 42625
L108810 42644
L108829 42662
L108848 42700
L108848 42794
L108829 42831
L108810 42850
L108773 42869
L108660 42869
L108623 42850
L108604 42831
" />
<path d="M114660 42869
L114528 42681
" />
<path d="M114435 42869
L114435 42475
L114585 42475
L114622 42494
L114641 42512
L114660 42550
L114660 42606
L114641 42644
L114622 42662
L114585 42681
L114435 42681
" />
<path d="M115035 42869
L114810 42869
" />
<path d="M114922 42869
L114922 42475
L114885 42531
L114847 42569
L114810 42587
" />
<path d="M115372 42606
L115372 42869
" />
<path d="M115278 42456
L115185 42737
L115428 42737
" />
<path d="M120845 41354
L121033 41223
" />
<path d="M120845 41129
L121239 41129
L121239 41279
L121220 41317
L121202 41335
L121164 41354
L121108 41354
L121070 41335
L121052 41317
L121033 41279
L121033 41129
" />
<path d="M120845 41729
L120845 41504
" />
<path d="M120845 41616
L121239 41616
L121183 41579
L121145 41541
L121127 41504
" />
<path d="M121239 42085
L121239 41898
L121052 41879
L121070 41898
L121089 41935
L121089 42029
L121070 42066
L121052 42085
L121014 42104
L120920 42104
L120883 42085
L120864 42066
L120845 42029
L120845 41935
L120864 41898
L120883 41879
" />
<path d="M76430 42754
L76411 42773
L76355 42792
L76317 42792
L76261 42773
L76224 42735
L76205 42698
L76186 42623
L76186 42567
L76205 42492
L76224 42454
L76261 42417
L76317 42398
L76355 42398
L76411 42417
L76430 42435
" />
<path d="M76655 42567
L76617 42548
L76598 42529
L76580 42492
L76580 42473
L76598 42435
L76617 42417
L76655 42398
L76730 42398
L76767 42417
L76786 42435
L76805 42473
L76805 42492
L76786 42529
L76767 42548
L76730 42567
L76655 42567
L76617 42585
L76598 42604
L76580 42642
L76580 42717
L76598 42754
L76617 42773
L76655 42792
L76730 42792
L76767 42773
L76786 42754
L76805 42717
L76805 42642
L76786 42604
L76767 42585
L76730 42567
" />
<path d="M78141 41875
L78160 41893
L78179 41950
L78179 41987
L78160 42043
L78122 42081
L78085 42100
L78010 42118
L77954 42118
L77879 42100
L77841 42081
L77804 42043
L77785 41987
L77785 41950
L77804 41893
L77822 41875
" />
<path d="M78179 41687
L78179 41612
L78160 41575
L78141 41556
L78085 41519
L78010 41500
L77860 41500
L77822 41519
L77804 41537
L77785 41575
L77785 41650
L77804 41687
L77822 41706
L77860 41725
L77954 41725
L77991 41706
L78010 41687
L78029 41650
L78029 41575
L78010 41537
L77991 41519
L77954 41500
" />
<path d="M89350 42754
L89331 42773
L89275 42792
L89237 42792
L89181 42773
L89143 42735
L89125 42698
L89106 42623
L89106 42567
L89125 42492
L89143 42454
L89181 42417
L89237 42398
L89275 42398
L89331 42417
L89350 42435
" />
<path d="M89724 42792
L89500 42792
" />
<path d="M89612 42792
L89612 42398
L89574 42454
L89537 42492
L89500 42510
" />
<path d="M89968 42398
L90006 42398
L90043 42417
L90062 42435
L90081 42473
L90099 42548
L90099 42642
L90081 42717
L90062 42754
L90043 42773
L90006 42792
L89968 42792
L89931 42773
L89912 42754
L89893 42717
L89874 42642
L89874 42548
L89893 42473
L89912 42435
L89931 42417
L89968 42398
" />
<path d="M95903 42754
L95884 42773
L95828 42792
L95791 42792
L95734 42773
L95697 42735
L95678 42698
L95659 42623
L95659 42567
L95678 42492
L95697 42454
L95734 42417
L95791 42398
L95828 42398
L95884 42417
L95903 42435
" />
<path d="M96278 42792
L96053 42792
" />
<path d="M96166 42792
L96166 42398
L96128 42454
L96091 42492
L96053 42510
" />
<path d="M96653 42792
L96428 42792
" />
<path d="M96541 42792
L96541 42398
L96503 42454
L96466 42492
L96428 42510
" />
<path d="M102666 42723
L102648 42742
L102591 42761
L102554 42761
L102498 42742
L102460 42704
L102441 42667
L102423 42592
L102423 42536
L102441 42461
L102460 42423
L102498 42386
L102554 42367
L102591 42367
L102648 42386
L102666 42404
" />
<path d="M103041 42761
L102816 42761
" />
<path d="M102929 42761
L102929 42367
L102891 42423
L102854 42461
L102816 42479
" />
<path d="M103191 42404
L103210 42386
L103248 42367
L103341 42367
L103379 42386
L103398 42404
L103416 42442
L103416 42479
L103398 42536
L103173 42761
L103416 42761
" />
<path d="M33674 45010
L33674 44616
L33768 44616
L33824 44635
L33862 44672
L33880 44710
L33899 44785
L33899 44841
L33880 44916
L33862 44953
L33824 44991
L33768 45010
L33674 45010
" />
<path d="M34049 44653
L34068 44635
L34105 44616
L34199 44616
L34237 44635
L34255 44653
L34274 44691
L34274 44728
L34255 44785
L34030 45010
L34274 45010
" />
<path d="M99100 45010
L99100 44616
L99194 44616
L99250 44635
L99288 44672
L99307 44710
L99325 44785
L99325 44841
L99307 44916
L99288 44953
L99250 44991
L99194 45010
L99100 45010
" />
<path d="M99700 45010
L99475 45010
" />
<path d="M99588 45010
L99588 44616
L99550 44672
L99513 44710
L99475 44728
" />
<path d="M99850 44653
L99869 44635
L99907 44616
L100000 44616
L100038 44635
L100057 44653
L100075 44691
L100075 44728
L100057 44785
L99832 45010
L100075 45010
" />
<path d="M92539 45010
L92539 44616
L92633 44616
L92689 44635
L92727 44672
L92745 44710
L92764 44785
L92764 44841
L92745 44916
L92727 44953
L92689 44991
L92633 45010
L92539 45010
" />
<path d="M93139 45010
L92914 45010
" />
<path d="M93027 45010
L93027 44616
L92989 44672
L92952 44710
L92914 44728
" />
<path d="M93514 45010
L93289 45010
" />
<path d="M93401 45010
L93401 44616
L93364 44672
L93326 44710
L93289 44728
" />
<path d="M85978 45010
L85978 44616
L86071 44616
L86128 44635
L86165 44672
L86184 44710
L86203 44785
L86203 44841
L86184 44916
L86165 44953
L86128 44991
L86071 45010
L85978 45010
" />
<path d="M86578 45010
L86353 45010
" />
<path d="M86465 45010
L86465 44616
L86428 44672
L86390 44710
L86353 44728
" />
<path d="M86821 44616
L86859 44616
L86896 44635
L86915 44653
L86934 44691
L86953 44766
L86953 44860
L86934 44935
L86915 44972
L86896 44991
L86859 45010
L86821 45010
L86784 44991
L86765 44972
L86746 44935
L86728 44860
L86728 44766
L86746 44691
L86765 44653
L86784 44635
L86821 44616
" />
<path d="M79604 45010
L79604 44616
L79698 44616
L79754 44635
L79791 44672
L79810 44710
L79829 44785
L79829 44841
L79810 44916
L79791 44953
L79754 44991
L79698 45010
L79604 45010
" />
<path d="M80016 45010
L80091 45010
L80129 44991
L80148 44972
L80185 44916
L80204 44841
L80204 44691
L80185 44653
L80166 44635
L80129 44616
L80054 44616
L80016 44635
L79998 44653
L79979 44691
L79979 44785
L79998 44822
L80016 44841
L80054 44860
L80129 44860
L80166 44841
L80185 44822
L80204 44785
" />
<path d="M73042 45010
L73042 44616
L73136 44616
L73192 44635
L73230 44672
L73249 44710
L73267 44785
L73267 44841
L73249 44916
L73230 44953
L73192 44991
L73136 45010
L73042 45010
" />
<path d="M73492 44785
L73455 44766
L73436 44747
L73417 44710
L73417 44691
L73436 44653
L73455 44635
L73492 44616
L73567 44616
L73605 44635
L73624 44653
L73642 44691
L73642 44710
L73624 44747
L73605 44766
L73567 44785
L73492 44785
L73455 44803
L73436 44822
L73417 44860
L73417 44935
L73436 44972
L73455 44991
L73492 45010
L73567 45010
L73605 44991
L73624 44972
L73642 44935
L73642 44860
L73624 44822
L73605 44803
L73567 44785
" />
<path d="M66481 45010
L66481 44616
L66575 44616
L66631 44635
L66669 44672
L66687 44710
L66706 44785
L66706 44841
L66687 44916
L66669 44953
L66631 44991
L66575 45010
L66481 45010
" />
<path d="M66837 44616
L67100 44616
L66931 45010
" />
<path d="M59920 45010
L59920 44616
L60013 44616
L60070 44635
L60107 44672
L60126 44710
L60145 44785
L60145 44841
L60126 44916
L60107 44953
L60070 44991
L60013 45010
L59920 45010
" />
<path d="M60482 44616
L60407 44616
L60370 44635
L60351 44653
L60313 44710
L60295 44785
L60295 44935
L60313 44972
L60332 44991
L60370 45010
L60445 45010
L60482 44991
L60501 44972
L60520 44935
L60520 44841
L60501 44803
L60482 44785
L60445 44766
L60370 44766
L60332 44785
L60313 44803
L60295 44841
" />
<path d="M53358 45010
L53358 44616
L53452 44616
L53508 44635
L53546 44672
L53565 44710
L53583 44785
L53583 44841
L53565 44916
L53546 44953
L53508 44991
L53452 45010
L53358 45010
" />
<path d="M53940 44616
L53752 44616
L53733 44803
L53752 44785
L53790 44766
L53883 44766
L53921 44785
L53940 44803
L53958 44841
L53958 44935
L53940 44972
L53921 44991
L53883 45010
L53790 45010
L53752 44991
L53733 44972
" />
<path d="M46797 45010
L46797 44616
L46891 44616
L46947 44635
L46984 44672
L47003 44710
L47022 44785
L47022 44841
L47003 44916
L46984 44953
L46947 44991
L46891 45010
L46797 45010
" />
<path d="M47359 44747
L47359 45010
" />
<path d="M47266 44597
L47172 44878
L47416 44878
" />
<path d="M40236 45010
L40236 44616
L40329 44616
L40386 44635
L40423 44672
L40442 44710
L40461 44785
L40461 44841
L40442 44916
L40423 44953
L40386 44991
L40329 45010
L40236 45010
" />
<path d="M40592 44616
L40836 44616
L40704 44766
L40761 44766
L40798 44785
L40817 44803
L40836 44841
L40836 44935
L40817 44972
L40798 44991
L40761 45010
L40648 45010
L40611 44991
L40592 44972
" />
<path d="M36107 42792
L35976 42604
" />
<path d="M35882 42792
L35882 42398
L36032 42398
L36070 42417
L36088 42435
L36107 42473
L36107 42529
L36088 42567
L36070 42585
L36032 42604
L35882 42604
" />
<path d="M36257 42435
L36276 42417
L36313 42398
L36407 42398
L36445 42417
L36463 42435
L36482 42473
L36482 42510
L36463 42567
L36238 42792
L36482 42792
" />
<path d="M42661 42792
L42530 42604
" />
<path d="M42436 42792
L42436 42398
L42586 42398
L42623 42417
L42642 42435
L42661 42473
L42661 42529
L42642 42567
L42623 42585
L42586 42604
L42436 42604
" />
<path d="M42792 42398
L43036 42398
L42904 42548
L42961 42548
L42998 42567
L43017 42585
L43036 42623
L43036 42717
L43017 42754
L42998 42773
L42961 42792
L42848 42792
L42811 42773
L42792 42754
" />
<path d="M49214 42792
L49083 42604
" />
<path d="M48989 42792
L48989 42398
L49139 42398
L49177 42417
L49196 42435
L49214 42473
L49214 42529
L49196 42567
L49177 42585
L49139 42604
L48989 42604
" />
<path d="M49552 42529
L49552 42792
" />
<path d="M49458 42379
L49364 42660
L49608 42660
" />
<path d="M55768 42792
L55637 42604
" />
<path d="M55543 42792
L55543 42398
L55693 42398
L55731 42417
L55749 42435
L55768 42473
L55768 42529
L55749 42567
L55731 42585
L55693 42604
L55543 42604
" />
<path d="M56124 42398
L55937 42398
L55918 42585
L55937 42567
L55974 42548
L56068 42548
L56105 42567
L56124 42585
L56143 42623
L56143 42717
L56124 42754
L56105 42773
L56068 42792
L55974 42792
L55937 42773
L55918 42754
" />
<path d="M62322 42792
L62190 42604
" />
<path d="M62097 42792
L62097 42398
L62247 42398
L62284 42417
L62303 42435
L62322 42473
L62322 42529
L62303 42567
L62284 42585
L62247 42604
L62097 42604
" />
<path d="M62659 42398
L62584 42398
L62547 42417
L62528 42435
L62490 42492
L62472 42567
L62472 42717
L62490 42754
L62509 42773
L62547 42792
L62622 42792
L62659 42773
L62678 42754
L62697 42717
L62697 42623
L62678 42585
L62659 42567
L62622 42548
L62547 42548
L62509 42567
L62490 42585
L62472 42623
" />
<path d="M68875 42792
L68744 42604
" />
<path d="M68650 42792
L68650 42398
L68800 42398
L68838 42417
L68857 42435
L68875 42473
L68875 42529
L68857 42567
L68838 42585
L68800 42604
L68650 42604
" />
<path d="M69007 42398
L69269 42398
L69100 42792
" />
<path d="M75429 42792
L75298 42604
" />
<path d="M75204 42792
L75204 42398
L75354 42398
L75391 42417
L75410 42435
L75429 42473
L75429 42529
L75410 42567
L75391 42585
L75354 42604
L75204 42604
" />
<path d="M75654 42567
L75616 42548
L75598 42529
L75579 42492
L75579 42473
L75598 42435
L75616 42417
L75654 42398
L75729 42398
L75766 42417
L75785 42435
L75804 42473
L75804 42492
L75785 42529
L75766 42548
L75729 42567
L75654 42567
L75616 42585
L75598 42604
L75579 42642
L75579 42717
L75598 42754
L75616 42773
L75654 42792
L75729 42792
L75766 42773
L75785 42754
L75804 42717
L75804 42642
L75785 42604
L75766 42585
L75729 42567
" />
<path d="M81322 41743
L81510 41612
" />
<path d="M81322 41519
L81716 41519
L81716 41668
L81697 41706
L81679 41725
L81641 41743
L81585 41743
L81547 41725
L81529 41706
L81510 41668
L81510 41519
" />
<path d="M81322 41931
L81322 42006
L81341 42043
L81360 42062
L81416 42100
L81491 42118
L81641 42118
L81679 42100
L81697 42081
L81716 42043
L81716 41968
L81697 41931
L81679 41912
L81641 41893
L81547 41893
L81510 41912
L81491 41931
L81472 41968
L81472 42043
L81491 42081
L81510 42100
L81547 42118
" />
<path d="M88349 42792
L88218 42604
" />
<path d="M88124 42792
L88124 42398
L88274 42398
L88311 42417
L88330 42435
L88349 42473
L88349 42529
L88330 42567
L88311 42585
L88274 42604
L88124 42604
" />
<path d="M88724 42792
L88499 42792
" />
<path d="M88611 42792
L88611 42398
L88574 42454
L88536 42492
L88499 42510
" />
<path d="M88967 42398
L89005 42398
L89042 42417
L89061 42435
L89080 42473
L89099 42548
L89099 42642
L89080 42717
L89061 42754
L89042 42773
L89005 42792
L88967 42792
L88930 42773
L88911 42754
L88892 42717
L88874 42642
L88874 42548
L88892 42473
L88911 42435
L88930 42417
L88967 42398
" />
<path d="M94902 42792
L94771 42604
" />
<path d="M94677 42792
L94677 42398
L94827 42398
L94865 42417
L94884 42435
L94902 42473
L94902 42529
L94884 42567
L94865 42585
L94827 42604
L94677 42604
" />
<path d="M95277 42792
L95052 42792
" />
<path d="M95165 42792
L95165 42398
L95127 42454
L95090 42492
L95052 42510
" />
<path d="M95652 42792
L95427 42792
" />
<path d="M95540 42792
L95540 42398
L95502 42454
L95465 42492
L95427 42510
" />
<path d="M100297 42792
L100166 42604
" />
<path d="M100072 42792
L100072 42398
L100222 42398
L100260 42417
L100279 42435
L100297 42473
L100297 42529
L100279 42567
L100260 42585
L100222 42604
L100072 42604
" />
<path d="M100672 42792
L100447 42792
" />
<path d="M100560 42792
L100560 42398
L100522 42454
L100485 42492
L100447 42510
" />
<path d="M100822 42435
L100841 42417
L100878 42398
L100972 42398
L101010 42417
L101028 42435
L101047 42473
L101047 42510
L101028 42567
L100803 42792
L101047 42792
" />
<path d="M69876 42754
L69857 42773
L69801 42792
L69764 42792
L69707 42773
L69670 42735
L69651 42698
L69632 42623
L69632 42567
L69651 42492
L69670 42454
L69707 42417
L69764 42398
L69801 42398
L69857 42417
L69876 42435
" />
<path d="M70007 42398
L70270 42398
L70101 42792
" />
<path d="M63322 42754
L63304 42773
L63247 42792
L63210 42792
L63154 42773
L63116 42735
L63097 42698
L63079 42623
L63079 42567
L63097 42492
L63116 42454
L63154 42417
L63210 42398
L63247 42398
L63304 42417
L63322 42435
" />
<path d="M63660 42398
L63585 42398
L63547 42417
L63529 42435
L63491 42492
L63472 42567
L63472 42717
L63491 42754
L63510 42773
L63547 42792
L63622 42792
L63660 42773
L63679 42754
L63697 42717
L63697 42623
L63679 42585
L63660 42567
L63622 42548
L63547 42548
L63510 42567
L63491 42585
L63472 42623
" />
<path d="M56769 42754
L56750 42773
L56694 42792
L56656 42792
L56600 42773
L56563 42735
L56544 42698
L56525 42623
L56525 42567
L56544 42492
L56563 42454
L56600 42417
L56656 42398
L56694 42398
L56750 42417
L56769 42435
" />
<path d="M57125 42398
L56938 42398
L56919 42585
L56938 42567
L56975 42548
L57069 42548
L57106 42567
L57125 42585
L57144 42623
L57144 42717
L57125 42754
L57106 42773
L57069 42792
L56975 42792
L56938 42773
L56919 42754
" />
<path d="M50215 42754
L50196 42773
L50140 42792
L50103 42792
L50046 42773
L50009 42735
L49990 42698
L49971 42623
L49971 42567
L49990 42492
L50009 42454
L50046 42417
L50103 42398
L50140 42398
L50196 42417
L50215 42435
" />
<path d="M50553 42529
L50553 42792
" />
<path d="M50459 42379
L50365 42660
L50609 42660
" />
<path d="M43662 42754
L43643 42773
L43587 42792
L43549 42792
L43493 42773
L43455 42735
L43437 42698
L43418 42623
L43418 42567
L43437 42492
L43455 42454
L43493 42417
L43549 42398
L43587 42398
L43643 42417
L43662 42435
" />
<path d="M43793 42398
L44037 42398
L43905 42548
L43962 42548
L43999 42567
L44018 42585
L44037 42623
L44037 42717
L44018 42754
L43999 42773
L43962 42792
L43849 42792
L43812 42773
L43793 42754
" />
<path d="M37108 42754
L37089 42773
L37033 42792
L36995 42792
L36939 42773
L36902 42735
L36883 42698
L36864 42623
L36864 42567
L36883 42492
L36902 42454
L36939 42417
L36995 42398
L37033 42398
L37089 42417
L37108 42435
" />
<path d="M37258 42435
L37277 42417
L37314 42398
L37408 42398
L37445 42417
L37464 42435
L37483 42473
L37483 42510
L37464 42567
L37239 42792
L37483 42792
" />
<path d="M27306 41719
L27325 41737
L27343 41794
L27343 41831
L27325 41887
L27287 41925
L27250 41944
L27175 41962
L27118 41962
L27043 41944
L27006 41925
L26968 41887
L26950 41831
L26950 41794
L26968 41737
L26987 41719
" />
<path d="M27343 41344
L27343 41569
" />
<path d="M27343 41456
L26950 41456
L27006 41494
L27043 41531
L27062 41569
" />
<g >
</g>
</g> 
</svg>
