<?xml version="1.0" standalone="no"?>
 <!DOCTYPE svg PUBLIC "-//W3C//DTD SVG 1.1//EN" 
 "http://www.w3.org/Graphics/SVG/1.1/DTD/svg11.dtd"> 
<svg xmlns="http://www.w3.org/2000/svg" version="1.1" 
    width="41.9989cm" height="29.7002cm" viewBox="0 0 165350 116930 ">
<title>SVG Picture created as DInside-F_Mask.svg date 2019/04/12 10:46:18 </title>
  <desc>Picture generated by PCBNEW </desc>
<g style="fill:#000000; fill-opacity:1;stroke:#000000; stroke-opacity:1;
stroke-linecap:round; stroke-linejoin:round; "
 transform="translate(0 0) scale(1 1)">
</g>
<g style="fill:#000000; fill-opacity:0.0; 
stroke:#000000; stroke-width:-0.000393701; stroke-opacity:1; 
stroke-linecap:round; stroke-linejoin:round;">
<g >
</g>
<g style="fill:#000000; fill-opacity:0.0; 
stroke:#000000; stroke-width:0; stroke-opacity:1; 
stroke-linecap:round; stroke-linejoin:round;">
</g>
<g style="fill:#000000; fill-opacity:1.0; 
stroke:#000000; stroke-width:0; stroke-opacity:1; 
stroke-linecap:round; stroke-linejoin:round;">
<path style="fill:#000000; fill-opacity:1.0; 
stroke:#000000; stroke-width:0; stroke-opacity:1; 
stroke-linecap:round; stroke-linejoin:round;fill-rule:evenodd;"
d="M 28742,43808
28742,44359
27994,44359
27994,43808
28742,43808
Z" /> 
<path style="fill:#000000; fill-opacity:1.0; 
stroke:#000000; stroke-width:0; stroke-opacity:1; 
stroke-linecap:round; stroke-linejoin:round;fill-rule:evenodd;"
d="M 28742,43178
28742,43729
27994,43729
27994,43178
28742,43178
Z" /> 
<path style="fill:#000000; fill-opacity:1.0; 
stroke:#000000; stroke-width:0; stroke-opacity:1; 
stroke-linecap:round; stroke-linejoin:round;fill-rule:evenodd;"
d="M 28742,42548
28742,43099
27994,43099
27994,42548
28742,42548
Z" /> 
<path style="fill:#000000; fill-opacity:1.0; 
stroke:#000000; stroke-width:0; stroke-opacity:1; 
stroke-linecap:round; stroke-linejoin:round;fill-rule:evenodd;"
d="M 26813,43808
26813,44359
26065,44359
26065,43808
26813,43808
Z" /> 
<path style="fill:#000000; fill-opacity:1.0; 
stroke:#000000; stroke-width:0; stroke-opacity:1; 
stroke-linecap:round; stroke-linejoin:round;fill-rule:evenodd;"
d="M 26813,43178
26813,43729
26065,43729
26065,43178
26813,43178
Z" /> 
<path style="fill:#000000; fill-opacity:1.0; 
stroke:#000000; stroke-width:0; stroke-opacity:1; 
stroke-linecap:round; stroke-linejoin:round;fill-rule:evenodd;"
d="M 26813,42548
26813,43099
26065,43099
26065,42548
26813,42548
Z" /> 
</g>
<g >
</g>
<g style="fill:#000000; fill-opacity:1.0; 
stroke:#000000; stroke-width:957.48; stroke-opacity:1; 
stroke-linecap:round; stroke-linejoin:round;">
</g>
<g style="fill:#000000; fill-opacity:0.0; 
stroke:#000000; stroke-width:957.48; stroke-opacity:1; 
stroke-linecap:round; stroke-linejoin:round;">
<path d="M25095 45430
L25595 45430
" />
<path d="M25095 41230
L25595 41230
" />
<path d="M24395 44330
L24895 44330
" />
<path d="M24395 43330
L24895 43330
" />
<path d="M24395 42330
L24895 42330
" />
</g>
<g >
<path d="M128332 44448
L128832 44448
" />
<path d="M128332 43448
L128832 43448
" />
<path d="M128332 42448
L128832 42448
" />
</g>
<g >
</g>
<g style="fill:#000000; fill-opacity:0.0; 
stroke:#000000; stroke-width:0; stroke-opacity:1; 
stroke-linecap:round; stroke-linejoin:round;">
</g>
<g style="fill:#000000; fill-opacity:1.0; 
stroke:#000000; stroke-width:0; stroke-opacity:1; 
stroke-linecap:round; stroke-linejoin:round;">
<path style="fill:#000000; fill-opacity:1.0; 
stroke:#000000; stroke-width:0; stroke-opacity:1; 
stroke-linecap:round; stroke-linejoin:round;fill-rule:evenodd;"
d="M 125915,41353
125928,41355
125941,41358
125954,41362
125966,41368
125977,41375
125988,41383
125997,41392
126006,41402
126014,41412
126021,41424
126027,41436
126031,41448
126034,41461
126036,41474
126037,41488
126037,41925
126036,41939
126034,41952
126031,41965
126027,41977
126021,41989
126014,42001
126006,42011
125997,42021
125988,42030
125977,42038
125966,42045
125954,42051
125941,42055
125928,42058
125915,42060
125902,42061
125631,42061
125618,42060
125605,42058
125592,42055
125579,42051
125567,42045
125556,42038
125545,42030
125535,42021
125526,42011
125519,42001
125512,41989
125506,41977
125502,41965
125498,41952
125496,41939
125496,41925
125496,41488
125496,41474
125498,41461
125502,41448
125506,41436
125512,41424
125519,41412
125526,41402
125535,41392
125545,41383
125556,41375
125567,41368
125579,41362
125592,41358
125605,41355
125618,41353
125631,41352
125902,41352
125915,41353
Z" /> 
<path style="fill:#000000; fill-opacity:1.0; 
stroke:#000000; stroke-width:0; stroke-opacity:1; 
stroke-linecap:round; stroke-linejoin:round;fill-rule:evenodd;"
d="M 126653,41353
126666,41355
126679,41358
126692,41362
126704,41368
126715,41375
126726,41383
126736,41392
126745,41402
126752,41412
126759,41424
126765,41436
126769,41448
126773,41461
126775,41474
126775,41488
126775,41925
126775,41939
126773,41952
126769,41965
126765,41977
126759,41989
126752,42001
126745,42011
126736,42021
126726,42030
126715,42038
126704,42045
126692,42051
126679,42055
126666,42058
126653,42060
126640,42061
126369,42061
126356,42060
126343,42058
126330,42055
126317,42051
126305,42045
126294,42038
126283,42030
126274,42021
126265,42011
126257,42001
126250,41989
126244,41977
126240,41965
126237,41952
126235,41939
126234,41925
126234,41488
126235,41474
126237,41461
126240,41448
126244,41436
126250,41424
126257,41412
126265,41402
126274,41392
126283,41383
126294,41375
126305,41368
126317,41362
126330,41358
126343,41355
126356,41353
126369,41352
126640,41352
126653,41353
Z" /> 
</g>
<g >
<path style="fill:#000000; fill-opacity:1.0; 
stroke:#000000; stroke-width:0; stroke-opacity:1; 
stroke-linecap:round; stroke-linejoin:round;fill-rule:evenodd;"
d="M 27914,45079
27927,45081
27940,45084
27952,45089
27964,45094
27976,45101
27986,45109
27996,45118
28005,45128
28013,45138
28020,45150
28026,45162
28030,45174
28033,45187
28035,45200
28036,45214
28036,45652
28035,45665
28033,45678
28030,45691
28026,45703
28020,45715
28013,45727
28005,45737
27996,45747
27986,45756
27976,45764
27964,45771
27952,45777
27940,45781
27927,45784
27914,45786
27901,45787
27630,45787
27617,45786
27604,45784
27591,45781
27578,45777
27566,45771
27555,45764
27544,45756
27534,45747
27525,45737
27517,45727
27511,45715
27505,45703
27500,45691
27497,45678
27495,45665
27495,45652
27495,45214
27495,45200
27497,45187
27500,45174
27505,45162
27511,45150
27517,45138
27525,45128
27534,45118
27544,45109
27555,45101
27566,45094
27578,45089
27591,45084
27604,45081
27617,45079
27630,45078
27901,45078
27914,45079
Z" /> 
<path style="fill:#000000; fill-opacity:1.0; 
stroke:#000000; stroke-width:0; stroke-opacity:1; 
stroke-linecap:round; stroke-linejoin:round;fill-rule:evenodd;"
d="M 28652,45079
28665,45081
28678,45084
28691,45089
28703,45094
28714,45101
28725,45109
28734,45118
28743,45128
28751,45138
28758,45150
28764,45162
28768,45174
28772,45187
28773,45200
28774,45214
28774,45652
28773,45665
28772,45678
28768,45691
28764,45703
28758,45715
28751,45727
28743,45737
28734,45747
28725,45756
28714,45764
28703,45771
28691,45777
28678,45781
28665,45784
28652,45786
28639,45787
28368,45787
28355,45786
28342,45784
28329,45781
28316,45777
28304,45771
28293,45764
28282,45756
28272,45747
28263,45737
28256,45727
28249,45715
28243,45703
28239,45691
28235,45678
28233,45665
28233,45652
28233,45214
28233,45200
28235,45187
28239,45174
28243,45162
28249,45150
28256,45138
28263,45128
28272,45118
28282,45109
28293,45101
28304,45094
28316,45089
28329,45084
28342,45081
28355,45079
28368,45078
28639,45078
28652,45079
Z" /> 
</g>
<g >
<path style="fill:#000000; fill-opacity:1.0; 
stroke:#000000; stroke-width:0; stroke-opacity:1; 
stroke-linecap:round; stroke-linejoin:round;fill-rule:evenodd;"
d="M 109715,42974
109728,42976
109741,42979
109753,42984
109765,42990
109777,42996
109787,43004
109797,43013
109806,43023
109814,43034
109821,43045
109827,43057
109831,43070
109834,43083
109836,43096
109837,43109
109837,43380
109836,43393
109834,43406
109831,43419
109827,43431
109821,43443
109814,43455
109806,43466
109797,43475
109787,43484
109777,43492
109765,43499
109753,43505
109741,43509
109728,43512
109715,43514
109701,43515
109264,43515
109250,43514
109237,43512
109224,43509
109212,43505
109200,43499
109188,43492
109178,43484
109168,43475
109159,43466
109151,43455
109144,43443
109138,43431
109134,43419
109131,43406
109129,43393
109128,43380
109128,43109
109129,43096
109131,43083
109134,43070
109138,43057
109144,43045
109151,43034
109159,43023
109168,43013
109178,43004
109188,42996
109200,42990
109212,42984
109224,42979
109237,42976
109250,42974
109264,42974
109701,42974
109715,42974
Z" /> 
<path style="fill:#000000; fill-opacity:1.0; 
stroke:#000000; stroke-width:0; stroke-opacity:1; 
stroke-linecap:round; stroke-linejoin:round;fill-rule:evenodd;"
d="M 109715,43712
109728,43714
109741,43718
109753,43722
109765,43728
109777,43735
109787,43743
109797,43751
109806,43761
109814,43772
109821,43783
109827,43795
109831,43808
109834,43821
109836,43834
109837,43847
109837,44118
109836,44131
109834,44144
109831,44157
109827,44170
109821,44182
109814,44193
109806,44204
109797,44214
109787,44222
109777,44230
109765,44237
109753,44243
109741,44247
109728,44251
109715,44253
109701,44253
109264,44253
109250,44253
109237,44251
109224,44247
109212,44243
109200,44237
109188,44230
109178,44222
109168,44214
109159,44204
109151,44193
109144,44182
109138,44170
109134,44157
109131,44144
109129,44131
109128,44118
109128,43847
109129,43834
109131,43821
109134,43808
109138,43795
109144,43783
109151,43772
109159,43761
109168,43751
109178,43743
109188,43735
109200,43728
109212,43722
109224,43718
109237,43714
109250,43712
109264,43712
109701,43712
109715,43712
Z" /> 
</g>
<g >
<path style="fill:#000000; fill-opacity:1.0; 
stroke:#000000; stroke-width:0; stroke-opacity:1; 
stroke-linecap:round; stroke-linejoin:round;fill-rule:evenodd;"
d="M 116276,42974
116290,42976
116302,42979
116315,42984
116327,42990
116338,42996
116349,43004
116359,43013
116368,43023
116376,43034
116383,43045
116388,43057
116393,43070
116396,43083
116398,43096
116399,43109
116399,43380
116398,43393
116396,43406
116393,43419
116388,43431
116383,43443
116376,43455
116368,43466
116359,43475
116349,43484
116338,43492
116327,43499
116315,43505
116302,43509
116290,43512
116276,43514
116263,43515
115825,43515
115812,43514
115799,43512
115786,43509
115773,43505
115761,43499
115750,43492
115739,43484
115729,43475
115721,43466
115713,43455
115706,43443
115700,43431
115696,43419
115692,43406
115691,43393
115690,43380
115690,43109
115691,43096
115692,43083
115696,43070
115700,43057
115706,43045
115713,43034
115721,43023
115729,43013
115739,43004
115750,42996
115761,42990
115773,42984
115786,42979
115799,42976
115812,42974
115825,42974
116263,42974
116276,42974
Z" /> 
<path style="fill:#000000; fill-opacity:1.0; 
stroke:#000000; stroke-width:0; stroke-opacity:1; 
stroke-linecap:round; stroke-linejoin:round;fill-rule:evenodd;"
d="M 116276,43712
116290,43714
116302,43718
116315,43722
116327,43728
116338,43735
116349,43743
116359,43751
116368,43761
116376,43772
116383,43783
116388,43795
116393,43808
116396,43821
116398,43834
116399,43847
116399,44118
116398,44131
116396,44144
116393,44157
116388,44170
116383,44182
116376,44193
116368,44204
116359,44214
116349,44222
116338,44230
116327,44237
116315,44243
116302,44247
116290,44251
116276,44253
116263,44253
115825,44253
115812,44253
115799,44251
115786,44247
115773,44243
115761,44237
115750,44230
115739,44222
115729,44214
115721,44204
115713,44193
115706,44182
115700,44170
115696,44157
115692,44144
115691,44131
115690,44118
115690,43847
115691,43834
115692,43821
115696,43808
115700,43795
115706,43783
115713,43772
115721,43761
115729,43751
115739,43743
115750,43735
115761,43728
115773,43722
115786,43718
115799,43714
115812,43712
115825,43712
116263,43712
116276,43712
Z" /> 
</g>
<g >
<path style="fill:#000000; fill-opacity:1.0; 
stroke:#000000; stroke-width:0; stroke-opacity:1; 
stroke-linecap:round; stroke-linejoin:round;fill-rule:evenodd;"
d="M 118380,41306
118393,41308
118406,41311
118419,41315
118431,41321
118442,41328
118453,41336
118462,41345
118471,41355
118479,41365
118486,41377
118492,41389
118496,41401
118499,41414
118501,41427
118502,41441
118502,41878
118501,41892
118499,41905
118496,41918
118492,41930
118486,41942
118479,41954
118471,41964
118462,41974
118453,41983
118442,41991
118431,41998
118419,42004
118406,42008
118393,42011
118380,42013
118367,42014
118096,42014
118083,42013
118070,42011
118057,42008
118044,42004
118032,41998
118021,41991
118010,41983
118000,41974
117991,41964
117984,41954
117977,41942
117971,41930
117967,41918
117963,41905
117961,41892
117961,41878
117961,41441
117961,41427
117963,41414
117967,41401
117971,41389
117977,41377
117984,41365
117991,41355
118000,41345
118010,41336
118021,41328
118032,41321
118044,41315
118057,41311
118070,41308
118083,41306
118096,41305
118367,41305
118380,41306
Z" /> 
<path style="fill:#000000; fill-opacity:1.0; 
stroke:#000000; stroke-width:0; stroke-opacity:1; 
stroke-linecap:round; stroke-linejoin:round;fill-rule:evenodd;"
d="M 119118,41306
119131,41308
119144,41311
119157,41315
119169,41321
119180,41328
119191,41336
119201,41345
119210,41355
119217,41365
119224,41377
119230,41389
119234,41401
119238,41414
119240,41427
119240,41441
119240,41878
119240,41892
119238,41905
119234,41918
119230,41930
119224,41942
119217,41954
119210,41964
119201,41974
119191,41983
119180,41991
119169,41998
119157,42004
119144,42008
119131,42011
119118,42013
119105,42014
118834,42014
118821,42013
118808,42011
118795,42008
118782,42004
118770,41998
118759,41991
118748,41983
118739,41974
118730,41964
118722,41954
118715,41942
118709,41930
118705,41918
118702,41905
118700,41892
118699,41878
118699,41441
118700,41427
118702,41414
118705,41401
118709,41389
118715,41377
118722,41365
118730,41355
118739,41345
118748,41336
118759,41328
118770,41321
118782,41315
118795,41311
118808,41308
118821,41306
118834,41305
119105,41305
119118,41306
Z" /> 
</g>
<g >
<path style="fill:#000000; fill-opacity:1.0; 
stroke:#000000; stroke-width:0; stroke-opacity:1; 
stroke-linecap:round; stroke-linejoin:round;fill-rule:evenodd;"
d="M 124139,41345
124152,41347
124165,41350
124178,41354
124190,41360
124201,41367
124212,41375
124221,41384
124230,41394
124238,41404
124245,41416
124251,41428
124255,41440
124258,41453
124260,41466
124261,41480
124261,41917
124260,41931
124258,41944
124255,41957
124251,41969
124245,41981
124238,41993
124230,42003
124221,42013
124212,42022
124201,42030
124190,42037
124178,42043
124165,42047
124152,42050
124139,42052
124126,42053
123855,42053
123842,42052
123829,42050
123816,42047
123803,42043
123791,42037
123780,42030
123769,42022
123759,42013
123750,42003
123743,41993
123736,41981
123730,41969
123726,41957
123722,41944
123720,41931
123720,41917
123720,41480
123720,41466
123722,41453
123726,41440
123730,41428
123736,41416
123743,41404
123750,41394
123759,41384
123769,41375
123780,41367
123791,41360
123803,41354
123816,41350
123829,41347
123842,41345
123855,41344
124126,41344
124139,41345
Z" /> 
<path style="fill:#000000; fill-opacity:1.0; 
stroke:#000000; stroke-width:0; stroke-opacity:1; 
stroke-linecap:round; stroke-linejoin:round;fill-rule:evenodd;"
d="M 124877,41345
124890,41347
124903,41350
124916,41354
124928,41360
124939,41367
124950,41375
124960,41384
124969,41394
124976,41404
124983,41416
124989,41428
124993,41440
124997,41453
124999,41466
124999,41480
124999,41917
124999,41931
124997,41944
124993,41957
124989,41969
124983,41981
124976,41993
124969,42003
124960,42013
124950,42022
124939,42030
124928,42037
124916,42043
124903,42047
124890,42050
124877,42052
124864,42053
124593,42053
124580,42052
124567,42050
124554,42047
124541,42043
124529,42037
124518,42030
124507,42022
124498,42013
124489,42003
124481,41993
124474,41981
124468,41969
124464,41957
124461,41944
124459,41931
124458,41917
124458,41480
124459,41466
124461,41453
124464,41440
124468,41428
124474,41416
124481,41404
124489,41394
124498,41384
124507,41375
124518,41367
124529,41360
124541,41354
124554,41350
124567,41347
124580,41345
124593,41344
124864,41344
124877,41345
Z" /> 
</g>
<g >
<path style="fill:#000000; fill-opacity:1.0; 
stroke:#000000; stroke-width:0; stroke-opacity:1; 
stroke-linecap:round; stroke-linejoin:round;fill-rule:evenodd;"
d="M 127164,43808
127164,44359
126416,44359
126416,43808
127164,43808
Z" /> 
<path style="fill:#000000; fill-opacity:1.0; 
stroke:#000000; stroke-width:0; stroke-opacity:1; 
stroke-linecap:round; stroke-linejoin:round;fill-rule:evenodd;"
d="M 127164,43178
127164,43729
126416,43729
126416,43178
127164,43178
Z" /> 
<path style="fill:#000000; fill-opacity:1.0; 
stroke:#000000; stroke-width:0; stroke-opacity:1; 
stroke-linecap:round; stroke-linejoin:round;fill-rule:evenodd;"
d="M 127164,42548
127164,43099
126416,43099
126416,42548
127164,42548
Z" /> 
<path style="fill:#000000; fill-opacity:1.0; 
stroke:#000000; stroke-width:0; stroke-opacity:1; 
stroke-linecap:round; stroke-linejoin:round;fill-rule:evenodd;"
d="M 125235,43808
125235,44359
124487,44359
124487,43808
125235,43808
Z" /> 
<path style="fill:#000000; fill-opacity:1.0; 
stroke:#000000; stroke-width:0; stroke-opacity:1; 
stroke-linecap:round; stroke-linejoin:round;fill-rule:evenodd;"
d="M 125235,43178
125235,43729
124487,43729
124487,43178
125235,43178
Z" /> 
<path style="fill:#000000; fill-opacity:1.0; 
stroke:#000000; stroke-width:0; stroke-opacity:1; 
stroke-linecap:round; stroke-linejoin:round;fill-rule:evenodd;"
d="M 125235,42548
125235,43099
124487,43099
124487,42548
125235,42548
Z" /> 
</g>
<g >
<path style="fill:#000000; fill-opacity:1.0; 
stroke:#000000; stroke-width:0; stroke-opacity:1; 
stroke-linecap:round; stroke-linejoin:round;fill-rule:evenodd;"
d="M 120602,43808
120602,44359
119854,44359
119854,43808
120602,43808
Z" /> 
<path style="fill:#000000; fill-opacity:1.0; 
stroke:#000000; stroke-width:0; stroke-opacity:1; 
stroke-linecap:round; stroke-linejoin:round;fill-rule:evenodd;"
d="M 120602,43178
120602,43729
119854,43729
119854,43178
120602,43178
Z" /> 
<path style="fill:#000000; fill-opacity:1.0; 
stroke:#000000; stroke-width:0; stroke-opacity:1; 
stroke-linecap:round; stroke-linejoin:round;fill-rule:evenodd;"
d="M 120602,42548
120602,43099
119854,43099
119854,42548
120602,42548
Z" /> 
<path style="fill:#000000; fill-opacity:1.0; 
stroke:#000000; stroke-width:0; stroke-opacity:1; 
stroke-linecap:round; stroke-linejoin:round;fill-rule:evenodd;"
d="M 118673,43808
118673,44359
117925,44359
117925,43808
118673,43808
Z" /> 
<path style="fill:#000000; fill-opacity:1.0; 
stroke:#000000; stroke-width:0; stroke-opacity:1; 
stroke-linecap:round; stroke-linejoin:round;fill-rule:evenodd;"
d="M 118673,43178
118673,43729
117925,43729
117925,43178
118673,43178
Z" /> 
<path style="fill:#000000; fill-opacity:1.0; 
stroke:#000000; stroke-width:0; stroke-opacity:1; 
stroke-linecap:round; stroke-linejoin:round;fill-rule:evenodd;"
d="M 118673,42548
118673,43099
117925,43099
117925,42548
118673,42548
Z" /> 
</g>
<g >
<path style="fill:#000000; fill-opacity:1.0; 
stroke:#000000; stroke-width:0; stroke-opacity:1; 
stroke-linecap:round; stroke-linejoin:round;fill-rule:evenodd;"
d="M 114040,43808
114040,44359
113292,44359
113292,43808
114040,43808
Z" /> 
<path style="fill:#000000; fill-opacity:1.0; 
stroke:#000000; stroke-width:0; stroke-opacity:1; 
stroke-linecap:round; stroke-linejoin:round;fill-rule:evenodd;"
d="M 114040,43178
114040,43729
113292,43729
113292,43178
114040,43178
Z" /> 
<path style="fill:#000000; fill-opacity:1.0; 
stroke:#000000; stroke-width:0; stroke-opacity:1; 
stroke-linecap:round; stroke-linejoin:round;fill-rule:evenodd;"
d="M 114040,42548
114040,43099
113292,43099
113292,42548
114040,42548
Z" /> 
<path style="fill:#000000; fill-opacity:1.0; 
stroke:#000000; stroke-width:0; stroke-opacity:1; 
stroke-linecap:round; stroke-linejoin:round;fill-rule:evenodd;"
d="M 112111,43808
112111,44359
111363,44359
111363,43808
112111,43808
Z" /> 
<path style="fill:#000000; fill-opacity:1.0; 
stroke:#000000; stroke-width:0; stroke-opacity:1; 
stroke-linecap:round; stroke-linejoin:round;fill-rule:evenodd;"
d="M 112111,43178
112111,43729
111363,43729
111363,43178
112111,43178
Z" /> 
<path style="fill:#000000; fill-opacity:1.0; 
stroke:#000000; stroke-width:0; stroke-opacity:1; 
stroke-linecap:round; stroke-linejoin:round;fill-rule:evenodd;"
d="M 112111,42548
112111,43099
111363,43099
111363,42548
112111,42548
Z" /> 
</g>
<g >
<path style="fill:#000000; fill-opacity:1.0; 
stroke:#000000; stroke-width:0; stroke-opacity:1; 
stroke-linecap:round; stroke-linejoin:round;fill-rule:evenodd;"
d="M 107479,43808
107479,44359
106731,44359
106731,43808
107479,43808
Z" /> 
<path style="fill:#000000; fill-opacity:1.0; 
stroke:#000000; stroke-width:0; stroke-opacity:1; 
stroke-linecap:round; stroke-linejoin:round;fill-rule:evenodd;"
d="M 107479,43178
107479,43729
106731,43729
106731,43178
107479,43178
Z" /> 
<path style="fill:#000000; fill-opacity:1.0; 
stroke:#000000; stroke-width:0; stroke-opacity:1; 
stroke-linecap:round; stroke-linejoin:round;fill-rule:evenodd;"
d="M 107479,42548
107479,43099
106731,43099
106731,42548
107479,42548
Z" /> 
<path style="fill:#000000; fill-opacity:1.0; 
stroke:#000000; stroke-width:0; stroke-opacity:1; 
stroke-linecap:round; stroke-linejoin:round;fill-rule:evenodd;"
d="M 105550,43808
105550,44359
104802,44359
104802,43808
105550,43808
Z" /> 
<path style="fill:#000000; fill-opacity:1.0; 
stroke:#000000; stroke-width:0; stroke-opacity:1; 
stroke-linecap:round; stroke-linejoin:round;fill-rule:evenodd;"
d="M 105550,43178
105550,43729
104802,43729
104802,43178
105550,43178
Z" /> 
<path style="fill:#000000; fill-opacity:1.0; 
stroke:#000000; stroke-width:0; stroke-opacity:1; 
stroke-linecap:round; stroke-linejoin:round;fill-rule:evenodd;"
d="M 105550,42548
105550,43099
104802,43099
104802,42548
105550,42548
Z" /> 
</g>
<g >
<path style="fill:#000000; fill-opacity:1.0; 
stroke:#000000; stroke-width:0; stroke-opacity:1; 
stroke-linecap:round; stroke-linejoin:round;fill-rule:evenodd;"
d="M 108636,43712
108649,43714
108662,43718
108674,43722
108686,43728
108698,43735
108708,43743
108718,43751
108727,43761
108735,43772
108742,43783
108748,43795
108752,43808
108755,43821
108757,43834
108758,43847
108758,44118
108757,44131
108755,44144
108752,44157
108748,44170
108742,44182
108735,44193
108727,44204
108718,44214
108708,44222
108698,44230
108686,44237
108674,44243
108662,44247
108649,44251
108636,44253
108622,44253
108185,44253
108171,44253
108158,44251
108145,44247
108133,44243
108121,44237
108109,44230
108099,44222
108089,44214
108080,44204
108072,44193
108065,44182
108059,44170
108055,44157
108052,44144
108050,44131
108049,44118
108049,43847
108050,43834
108052,43821
108055,43808
108059,43795
108065,43783
108072,43772
108080,43761
108089,43751
108099,43743
108109,43735
108121,43728
108133,43722
108145,43718
108158,43714
108171,43712
108185,43712
108622,43712
108636,43712
Z" /> 
<path style="fill:#000000; fill-opacity:1.0; 
stroke:#000000; stroke-width:0; stroke-opacity:1; 
stroke-linecap:round; stroke-linejoin:round;fill-rule:evenodd;"
d="M 108636,42974
108649,42976
108662,42979
108674,42984
108686,42990
108698,42996
108708,43004
108718,43013
108727,43023
108735,43034
108742,43045
108748,43057
108752,43070
108755,43083
108757,43096
108758,43109
108758,43380
108757,43393
108755,43406
108752,43419
108748,43431
108742,43443
108735,43455
108727,43466
108718,43475
108708,43484
108698,43492
108686,43499
108674,43505
108662,43509
108649,43512
108636,43514
108622,43515
108185,43515
108171,43514
108158,43512
108145,43509
108133,43505
108121,43499
108109,43492
108099,43484
108089,43475
108080,43466
108072,43455
108065,43443
108059,43431
108055,43419
108052,43406
108050,43393
108049,43380
108049,43109
108050,43096
108052,43083
108055,43070
108059,43057
108065,43045
108072,43034
108080,43023
108089,43013
108099,43004
108109,42996
108121,42990
108133,42984
108145,42979
108158,42976
108171,42974
108185,42974
108622,42974
108636,42974
Z" /> 
</g>
<g >
<path style="fill:#000000; fill-opacity:1.0; 
stroke:#000000; stroke-width:0; stroke-opacity:1; 
stroke-linecap:round; stroke-linejoin:round;fill-rule:evenodd;"
d="M 115197,43712
115211,43714
115223,43718
115236,43722
115248,43728
115259,43735
115270,43743
115280,43751
115289,43761
115297,43772
115304,43783
115309,43795
115314,43808
115317,43821
115319,43834
115320,43847
115320,44118
115319,44131
115317,44144
115314,44157
115309,44170
115304,44182
115297,44193
115289,44204
115280,44214
115270,44222
115259,44230
115248,44237
115236,44243
115223,44247
115211,44251
115197,44253
115184,44253
114746,44253
114733,44253
114720,44251
114707,44247
114694,44243
114682,44237
114671,44230
114660,44222
114650,44214
114642,44204
114634,44193
114627,44182
114621,44170
114617,44157
114613,44144
114612,44131
114611,44118
114611,43847
114612,43834
114613,43821
114617,43808
114621,43795
114627,43783
114634,43772
114642,43761
114650,43751
114660,43743
114671,43735
114682,43728
114694,43722
114707,43718
114720,43714
114733,43712
114746,43712
115184,43712
115197,43712
Z" /> 
<path style="fill:#000000; fill-opacity:1.0; 
stroke:#000000; stroke-width:0; stroke-opacity:1; 
stroke-linecap:round; stroke-linejoin:round;fill-rule:evenodd;"
d="M 115197,42974
115211,42976
115223,42979
115236,42984
115248,42990
115259,42996
115270,43004
115280,43013
115289,43023
115297,43034
115304,43045
115309,43057
115314,43070
115317,43083
115319,43096
115320,43109
115320,43380
115319,43393
115317,43406
115314,43419
115309,43431
115304,43443
115297,43455
115289,43466
115280,43475
115270,43484
115259,43492
115248,43499
115236,43505
115223,43509
115211,43512
115197,43514
115184,43515
114746,43515
114733,43514
114720,43512
114707,43509
114694,43505
114682,43499
114671,43492
114660,43484
114650,43475
114642,43466
114634,43455
114627,43443
114621,43431
114617,43419
114613,43406
114612,43393
114611,43380
114611,43109
114612,43096
114613,43083
114617,43070
114621,43057
114627,43045
114634,43034
114642,43023
114650,43013
114660,43004
114671,42996
114682,42990
114694,42984
114707,42979
114720,42976
114733,42974
114746,42974
115184,42974
115197,42974
Z" /> 
</g>
<g >
<path style="fill:#000000; fill-opacity:1.0; 
stroke:#000000; stroke-width:0; stroke-opacity:1; 
stroke-linecap:round; stroke-linejoin:round;fill-rule:evenodd;"
d="M 119880,41306
119893,41308
119906,41311
119919,41315
119931,41321
119942,41328
119953,41336
119962,41345
119971,41355
119979,41365
119986,41377
119992,41389
119996,41401
119999,41414
120001,41427
120002,41441
120002,41878
120001,41892
119999,41905
119996,41918
119992,41930
119986,41942
119979,41954
119971,41964
119962,41974
119953,41983
119942,41991
119931,41998
119919,42004
119906,42008
119893,42011
119880,42013
119867,42014
119596,42014
119583,42013
119570,42011
119557,42008
119544,42004
119532,41998
119521,41991
119510,41983
119500,41974
119491,41964
119484,41954
119477,41942
119471,41930
119467,41918
119463,41905
119461,41892
119461,41878
119461,41441
119461,41427
119463,41414
119467,41401
119471,41389
119477,41377
119484,41365
119491,41355
119500,41345
119510,41336
119521,41328
119532,41321
119544,41315
119557,41311
119570,41308
119583,41306
119596,41305
119867,41305
119880,41306
Z" /> 
<path style="fill:#000000; fill-opacity:1.0; 
stroke:#000000; stroke-width:0; stroke-opacity:1; 
stroke-linecap:round; stroke-linejoin:round;fill-rule:evenodd;"
d="M 120618,41306
120631,41308
120644,41311
120657,41315
120669,41321
120680,41328
120691,41336
120701,41345
120710,41355
120717,41365
120724,41377
120730,41389
120734,41401
120738,41414
120740,41427
120740,41441
120740,41878
120740,41892
120738,41905
120734,41918
120730,41930
120724,41942
120717,41954
120710,41964
120701,41974
120691,41983
120680,41991
120669,41998
120657,42004
120644,42008
120631,42011
120618,42013
120605,42014
120334,42014
120321,42013
120308,42011
120295,42008
120282,42004
120270,41998
120259,41991
120248,41983
120239,41974
120230,41964
120222,41954
120215,41942
120209,41930
120205,41918
120202,41905
120200,41892
120199,41878
120199,41441
120200,41427
120202,41414
120205,41401
120209,41389
120215,41377
120222,41365
120230,41355
120239,41345
120248,41336
120259,41328
120270,41321
120282,41315
120295,41311
120308,41308
120321,41306
120334,41305
120605,41305
120618,41306
Z" /> 
</g>
<g >
<path style="fill:#000000; fill-opacity:1.0; 
stroke:#000000; stroke-width:0; stroke-opacity:1; 
stroke-linecap:round; stroke-linejoin:round;fill-rule:evenodd;"
d="M 76777,42974
76790,42976
76803,42979
76816,42984
76828,42990
76839,42996
76850,43004
76860,43013
76869,43023
76876,43034
76883,43045
76889,43057
76893,43070
76897,43083
76899,43096
76899,43109
76899,43380
76899,43393
76897,43406
76893,43419
76889,43431
76883,43443
76876,43455
76869,43466
76860,43475
76850,43484
76839,43492
76828,43499
76816,43505
76803,43509
76790,43512
76777,43514
76764,43515
76326,43515
76313,43514
76300,43512
76287,43509
76274,43505
76262,43499
76251,43492
76240,43484
76230,43475
76221,43466
76213,43455
76207,43443
76201,43431
76196,43419
76193,43406
76191,43393
76191,43380
76191,43109
76191,43096
76193,43083
76196,43070
76201,43057
76207,43045
76213,43034
76221,43023
76230,43013
76240,43004
76251,42996
76262,42990
76274,42984
76287,42979
76300,42976
76313,42974
76326,42974
76764,42974
76777,42974
Z" /> 
<path style="fill:#000000; fill-opacity:1.0; 
stroke:#000000; stroke-width:0; stroke-opacity:1; 
stroke-linecap:round; stroke-linejoin:round;fill-rule:evenodd;"
d="M 76777,43712
76790,43714
76803,43718
76816,43722
76828,43728
76839,43735
76850,43743
76860,43751
76869,43761
76876,43772
76883,43783
76889,43795
76893,43808
76897,43821
76899,43834
76899,43847
76899,44118
76899,44131
76897,44144
76893,44157
76889,44170
76883,44182
76876,44193
76869,44204
76860,44214
76850,44222
76839,44230
76828,44237
76816,44243
76803,44247
76790,44251
76777,44253
76764,44253
76326,44253
76313,44253
76300,44251
76287,44247
76274,44243
76262,44237
76251,44230
76240,44222
76230,44214
76221,44204
76213,44193
76207,44182
76201,44170
76196,44157
76193,44144
76191,44131
76191,44118
76191,43847
76191,43834
76193,43821
76196,43808
76201,43795
76207,43783
76213,43772
76221,43761
76230,43751
76240,43743
76251,43735
76262,43728
76274,43722
76287,43718
76300,43714
76313,43712
76326,43712
76764,43712
76777,43712
Z" /> 
</g>
<g >
<path style="fill:#000000; fill-opacity:1.0; 
stroke:#000000; stroke-width:0; stroke-opacity:1; 
stroke-linecap:round; stroke-linejoin:round;fill-rule:evenodd;"
d="M 78780,41406
78793,41408
78806,41411
78819,41415
78831,41421
78842,41428
78853,41436
78862,41445
78871,41455
78879,41465
78886,41477
78892,41489
78896,41501
78899,41514
78901,41527
78902,41541
78902,41978
78901,41992
78899,42005
78896,42018
78892,42030
78886,42042
78879,42054
78871,42064
78862,42074
78853,42083
78842,42091
78831,42098
78819,42104
78806,42108
78793,42111
78780,42113
78767,42114
78496,42114
78483,42113
78470,42111
78457,42108
78444,42104
78432,42098
78421,42091
78410,42083
78400,42074
78391,42064
78384,42054
78377,42042
78371,42030
78367,42018
78363,42005
78361,41992
78361,41978
78361,41541
78361,41527
78363,41514
78367,41501
78371,41489
78377,41477
78384,41465
78391,41455
78400,41445
78410,41436
78421,41428
78432,41421
78444,41415
78457,41411
78470,41408
78483,41406
78496,41405
78767,41405
78780,41406
Z" /> 
<path style="fill:#000000; fill-opacity:1.0; 
stroke:#000000; stroke-width:0; stroke-opacity:1; 
stroke-linecap:round; stroke-linejoin:round;fill-rule:evenodd;"
d="M 79518,41406
79531,41408
79544,41411
79557,41415
79569,41421
79580,41428
79591,41436
79601,41445
79610,41455
79617,41465
79624,41477
79630,41489
79634,41501
79638,41514
79640,41527
79640,41541
79640,41978
79640,41992
79638,42005
79634,42018
79630,42030
79624,42042
79617,42054
79610,42064
79601,42074
79591,42083
79580,42091
79569,42098
79557,42104
79544,42108
79531,42111
79518,42113
79505,42114
79234,42114
79221,42113
79208,42111
79195,42108
79182,42104
79170,42098
79159,42091
79148,42083
79139,42074
79130,42064
79122,42054
79115,42042
79109,42030
79105,42018
79102,42005
79100,41992
79099,41978
79099,41541
79100,41527
79102,41514
79105,41501
79109,41489
79115,41477
79122,41465
79130,41455
79139,41445
79148,41436
79159,41428
79170,41421
79182,41415
79195,41411
79208,41408
79221,41406
79234,41405
79505,41405
79518,41406
Z" /> 
</g>
<g >
<path style="fill:#000000; fill-opacity:1.0; 
stroke:#000000; stroke-width:0; stroke-opacity:1; 
stroke-linecap:round; stroke-linejoin:round;fill-rule:evenodd;"
d="M 89884,42974
89898,42976
89911,42979
89923,42984
89935,42990
89946,42996
89957,43004
89967,43013
89976,43023
89984,43034
89991,43045
89996,43057
90001,43070
90004,43083
90006,43096
90007,43109
90007,43380
90006,43393
90004,43406
90001,43419
89996,43431
89991,43443
89984,43455
89976,43466
89967,43475
89957,43484
89946,43492
89935,43499
89923,43505
89911,43509
89898,43512
89884,43514
89871,43515
89433,43515
89420,43514
89407,43512
89394,43509
89381,43505
89369,43499
89358,43492
89347,43484
89338,43475
89329,43466
89321,43455
89314,43443
89308,43431
89304,43419
89300,43406
89299,43393
89298,43380
89298,43109
89299,43096
89300,43083
89304,43070
89308,43057
89314,43045
89321,43034
89329,43023
89338,43013
89347,43004
89358,42996
89369,42990
89381,42984
89394,42979
89407,42976
89420,42974
89433,42974
89871,42974
89884,42974
Z" /> 
<path style="fill:#000000; fill-opacity:1.0; 
stroke:#000000; stroke-width:0; stroke-opacity:1; 
stroke-linecap:round; stroke-linejoin:round;fill-rule:evenodd;"
d="M 89884,43712
89898,43714
89911,43718
89923,43722
89935,43728
89946,43735
89957,43743
89967,43751
89976,43761
89984,43772
89991,43783
89996,43795
90001,43808
90004,43821
90006,43834
90007,43847
90007,44118
90006,44131
90004,44144
90001,44157
89996,44170
89991,44182
89984,44193
89976,44204
89967,44214
89957,44222
89946,44230
89935,44237
89923,44243
89911,44247
89898,44251
89884,44253
89871,44253
89433,44253
89420,44253
89407,44251
89394,44247
89381,44243
89369,44237
89358,44230
89347,44222
89338,44214
89329,44204
89321,44193
89314,44182
89308,44170
89304,44157
89300,44144
89299,44131
89298,44118
89298,43847
89299,43834
89300,43821
89304,43808
89308,43795
89314,43783
89321,43772
89329,43761
89338,43751
89347,43743
89358,43735
89369,43728
89381,43722
89394,43718
89407,43714
89420,43712
89433,43712
89871,43712
89884,43712
Z" /> 
</g>
<g >
<path style="fill:#000000; fill-opacity:1.0; 
stroke:#000000; stroke-width:0; stroke-opacity:1; 
stroke-linecap:round; stroke-linejoin:round;fill-rule:evenodd;"
d="M 96438,42974
96451,42976
96464,42979
96477,42984
96489,42990
96500,42996
96511,43004
96521,43013
96529,43023
96537,43034
96544,43045
96550,43057
96554,43070
96558,43083
96560,43096
96560,43109
96560,43380
96560,43393
96558,43406
96554,43419
96550,43431
96544,43443
96537,43455
96529,43466
96521,43475
96511,43484
96500,43492
96489,43499
96477,43505
96464,43509
96451,43512
96438,43514
96425,43515
95987,43515
95974,43514
95960,43512
95948,43509
95935,43505
95923,43499
95912,43492
95901,43484
95891,43475
95882,43466
95874,43455
95868,43443
95862,43431
95857,43419
95854,43406
95852,43393
95852,43380
95852,43109
95852,43096
95854,43083
95857,43070
95862,43057
95868,43045
95874,43034
95882,43023
95891,43013
95901,43004
95912,42996
95923,42990
95935,42984
95948,42979
95960,42976
95974,42974
95987,42974
96425,42974
96438,42974
Z" /> 
<path style="fill:#000000; fill-opacity:1.0; 
stroke:#000000; stroke-width:0; stroke-opacity:1; 
stroke-linecap:round; stroke-linejoin:round;fill-rule:evenodd;"
d="M 96438,43712
96451,43714
96464,43718
96477,43722
96489,43728
96500,43735
96511,43743
96521,43751
96529,43761
96537,43772
96544,43783
96550,43795
96554,43808
96558,43821
96560,43834
96560,43847
96560,44118
96560,44131
96558,44144
96554,44157
96550,44170
96544,44182
96537,44193
96529,44204
96521,44214
96511,44222
96500,44230
96489,44237
96477,44243
96464,44247
96451,44251
96438,44253
96425,44253
95987,44253
95974,44253
95960,44251
95948,44247
95935,44243
95923,44237
95912,44230
95901,44222
95891,44214
95882,44204
95874,44193
95868,44182
95862,44170
95857,44157
95854,44144
95852,44131
95852,44118
95852,43847
95852,43834
95854,43821
95857,43808
95862,43795
95868,43783
95874,43772
95882,43761
95891,43751
95901,43743
95912,43735
95923,43728
95935,43722
95948,43718
95960,43714
95974,43712
95987,43712
96425,43712
96438,43712
Z" /> 
</g>
<g >
<path style="fill:#000000; fill-opacity:1.0; 
stroke:#000000; stroke-width:0; stroke-opacity:1; 
stroke-linecap:round; stroke-linejoin:round;fill-rule:evenodd;"
d="M 103171,42974
103184,42976
103197,42979
103209,42984
103221,42990
103233,42996
103243,43004
103253,43013
103262,43023
103270,43034
103277,43045
103283,43057
103287,43070
103290,43083
103292,43096
103293,43109
103293,43380
103292,43393
103290,43406
103287,43419
103283,43431
103277,43443
103270,43455
103262,43466
103253,43475
103243,43484
103233,43492
103221,43499
103209,43505
103197,43509
103184,43512
103171,43514
103158,43515
102720,43515
102706,43514
102693,43512
102680,43509
102668,43505
102656,43499
102644,43492
102634,43484
102624,43475
102615,43466
102607,43455
102600,43443
102595,43431
102590,43419
102587,43406
102585,43393
102584,43380
102584,43109
102585,43096
102587,43083
102590,43070
102595,43057
102600,43045
102607,43034
102615,43023
102624,43013
102634,43004
102644,42996
102656,42990
102668,42984
102680,42979
102693,42976
102706,42974
102720,42974
103158,42974
103171,42974
Z" /> 
<path style="fill:#000000; fill-opacity:1.0; 
stroke:#000000; stroke-width:0; stroke-opacity:1; 
stroke-linecap:round; stroke-linejoin:round;fill-rule:evenodd;"
d="M 103171,43712
103184,43714
103197,43718
103209,43722
103221,43728
103233,43735
103243,43743
103253,43751
103262,43761
103270,43772
103277,43783
103283,43795
103287,43808
103290,43821
103292,43834
103293,43847
103293,44118
103292,44131
103290,44144
103287,44157
103283,44170
103277,44182
103270,44193
103262,44204
103253,44214
103243,44222
103233,44230
103221,44237
103209,44243
103197,44247
103184,44251
103171,44253
103158,44253
102720,44253
102706,44253
102693,44251
102680,44247
102668,44243
102656,44237
102644,44230
102634,44222
102624,44214
102615,44204
102607,44193
102600,44182
102595,44170
102590,44157
102587,44144
102585,44131
102584,44118
102584,43847
102585,43834
102587,43821
102590,43808
102595,43795
102600,43783
102607,43772
102615,43761
102624,43751
102634,43743
102644,43735
102656,43728
102668,43722
102680,43718
102693,43714
102706,43712
102720,43712
103158,43712
103171,43712
Z" /> 
</g>
<g >
<path style="fill:#000000; fill-opacity:1.0; 
stroke:#000000; stroke-width:0; stroke-opacity:1; 
stroke-linecap:round; stroke-linejoin:round;fill-rule:evenodd;"
d="M 35303,43808
35303,44359
34555,44359
34555,43808
35303,43808
Z" /> 
<path style="fill:#000000; fill-opacity:1.0; 
stroke:#000000; stroke-width:0; stroke-opacity:1; 
stroke-linecap:round; stroke-linejoin:round;fill-rule:evenodd;"
d="M 35303,43178
35303,43729
34555,43729
34555,43178
35303,43178
Z" /> 
<path style="fill:#000000; fill-opacity:1.0; 
stroke:#000000; stroke-width:0; stroke-opacity:1; 
stroke-linecap:round; stroke-linejoin:round;fill-rule:evenodd;"
d="M 35303,42548
35303,43099
34555,43099
34555,42548
35303,42548
Z" /> 
<path style="fill:#000000; fill-opacity:1.0; 
stroke:#000000; stroke-width:0; stroke-opacity:1; 
stroke-linecap:round; stroke-linejoin:round;fill-rule:evenodd;"
d="M 33374,43808
33374,44359
32626,44359
32626,43808
33374,43808
Z" /> 
<path style="fill:#000000; fill-opacity:1.0; 
stroke:#000000; stroke-width:0; stroke-opacity:1; 
stroke-linecap:round; stroke-linejoin:round;fill-rule:evenodd;"
d="M 33374,43178
33374,43729
32626,43729
32626,43178
33374,43178
Z" /> 
<path style="fill:#000000; fill-opacity:1.0; 
stroke:#000000; stroke-width:0; stroke-opacity:1; 
stroke-linecap:round; stroke-linejoin:round;fill-rule:evenodd;"
d="M 33374,42548
33374,43099
32626,43099
32626,42548
33374,42548
Z" /> 
</g>
<g >
<path style="fill:#000000; fill-opacity:1.0; 
stroke:#000000; stroke-width:0; stroke-opacity:1; 
stroke-linecap:round; stroke-linejoin:round;fill-rule:evenodd;"
d="M 100917,43808
100917,44359
100169,44359
100169,43808
100917,43808
Z" /> 
<path style="fill:#000000; fill-opacity:1.0; 
stroke:#000000; stroke-width:0; stroke-opacity:1; 
stroke-linecap:round; stroke-linejoin:round;fill-rule:evenodd;"
d="M 100917,43178
100917,43729
100169,43729
100169,43178
100917,43178
Z" /> 
<path style="fill:#000000; fill-opacity:1.0; 
stroke:#000000; stroke-width:0; stroke-opacity:1; 
stroke-linecap:round; stroke-linejoin:round;fill-rule:evenodd;"
d="M 100917,42548
100917,43099
100169,43099
100169,42548
100917,42548
Z" /> 
<path style="fill:#000000; fill-opacity:1.0; 
stroke:#000000; stroke-width:0; stroke-opacity:1; 
stroke-linecap:round; stroke-linejoin:round;fill-rule:evenodd;"
d="M 98988,43808
98988,44359
98240,44359
98240,43808
98988,43808
Z" /> 
<path style="fill:#000000; fill-opacity:1.0; 
stroke:#000000; stroke-width:0; stroke-opacity:1; 
stroke-linecap:round; stroke-linejoin:round;fill-rule:evenodd;"
d="M 98988,43178
98988,43729
98240,43729
98240,43178
98988,43178
Z" /> 
<path style="fill:#000000; fill-opacity:1.0; 
stroke:#000000; stroke-width:0; stroke-opacity:1; 
stroke-linecap:round; stroke-linejoin:round;fill-rule:evenodd;"
d="M 98988,42548
98988,43099
98240,43099
98240,42548
98988,42548
Z" /> 
</g>
<g >
<path style="fill:#000000; fill-opacity:1.0; 
stroke:#000000; stroke-width:0; stroke-opacity:1; 
stroke-linecap:round; stroke-linejoin:round;fill-rule:evenodd;"
d="M 94356,43808
94356,44359
93608,44359
93608,43808
94356,43808
Z" /> 
<path style="fill:#000000; fill-opacity:1.0; 
stroke:#000000; stroke-width:0; stroke-opacity:1; 
stroke-linecap:round; stroke-linejoin:round;fill-rule:evenodd;"
d="M 94356,43178
94356,43729
93608,43729
93608,43178
94356,43178
Z" /> 
<path style="fill:#000000; fill-opacity:1.0; 
stroke:#000000; stroke-width:0; stroke-opacity:1; 
stroke-linecap:round; stroke-linejoin:round;fill-rule:evenodd;"
d="M 94356,42548
94356,43099
93608,43099
93608,42548
94356,42548
Z" /> 
<path style="fill:#000000; fill-opacity:1.0; 
stroke:#000000; stroke-width:0; stroke-opacity:1; 
stroke-linecap:round; stroke-linejoin:round;fill-rule:evenodd;"
d="M 92427,43808
92427,44359
91679,44359
91679,43808
92427,43808
Z" /> 
<path style="fill:#000000; fill-opacity:1.0; 
stroke:#000000; stroke-width:0; stroke-opacity:1; 
stroke-linecap:round; stroke-linejoin:round;fill-rule:evenodd;"
d="M 92427,43178
92427,43729
91679,43729
91679,43178
92427,43178
Z" /> 
<path style="fill:#000000; fill-opacity:1.0; 
stroke:#000000; stroke-width:0; stroke-opacity:1; 
stroke-linecap:round; stroke-linejoin:round;fill-rule:evenodd;"
d="M 92427,42548
92427,43099
91679,43099
91679,42548
92427,42548
Z" /> 
</g>
<g >
<path style="fill:#000000; fill-opacity:1.0; 
stroke:#000000; stroke-width:0; stroke-opacity:1; 
stroke-linecap:round; stroke-linejoin:round;fill-rule:evenodd;"
d="M 87794,43808
87794,44359
87046,44359
87046,43808
87794,43808
Z" /> 
<path style="fill:#000000; fill-opacity:1.0; 
stroke:#000000; stroke-width:0; stroke-opacity:1; 
stroke-linecap:round; stroke-linejoin:round;fill-rule:evenodd;"
d="M 87794,43178
87794,43729
87046,43729
87046,43178
87794,43178
Z" /> 
<path style="fill:#000000; fill-opacity:1.0; 
stroke:#000000; stroke-width:0; stroke-opacity:1; 
stroke-linecap:round; stroke-linejoin:round;fill-rule:evenodd;"
d="M 87794,42548
87794,43099
87046,43099
87046,42548
87794,42548
Z" /> 
<path style="fill:#000000; fill-opacity:1.0; 
stroke:#000000; stroke-width:0; stroke-opacity:1; 
stroke-linecap:round; stroke-linejoin:round;fill-rule:evenodd;"
d="M 85865,43808
85865,44359
85117,44359
85117,43808
85865,43808
Z" /> 
<path style="fill:#000000; fill-opacity:1.0; 
stroke:#000000; stroke-width:0; stroke-opacity:1; 
stroke-linecap:round; stroke-linejoin:round;fill-rule:evenodd;"
d="M 85865,43178
85865,43729
85117,43729
85117,43178
85865,43178
Z" /> 
<path style="fill:#000000; fill-opacity:1.0; 
stroke:#000000; stroke-width:0; stroke-opacity:1; 
stroke-linecap:round; stroke-linejoin:round;fill-rule:evenodd;"
d="M 85865,42548
85865,43099
85117,43099
85117,42548
85865,42548
Z" /> 
</g>
<g >
<path style="fill:#000000; fill-opacity:1.0; 
stroke:#000000; stroke-width:0; stroke-opacity:1; 
stroke-linecap:round; stroke-linejoin:round;fill-rule:evenodd;"
d="M 81233,43808
81233,44359
80485,44359
80485,43808
81233,43808
Z" /> 
<path style="fill:#000000; fill-opacity:1.0; 
stroke:#000000; stroke-width:0; stroke-opacity:1; 
stroke-linecap:round; stroke-linejoin:round;fill-rule:evenodd;"
d="M 81233,43178
81233,43729
80485,43729
80485,43178
81233,43178
Z" /> 
<path style="fill:#000000; fill-opacity:1.0; 
stroke:#000000; stroke-width:0; stroke-opacity:1; 
stroke-linecap:round; stroke-linejoin:round;fill-rule:evenodd;"
d="M 81233,42548
81233,43099
80485,43099
80485,42548
81233,42548
Z" /> 
<path style="fill:#000000; fill-opacity:1.0; 
stroke:#000000; stroke-width:0; stroke-opacity:1; 
stroke-linecap:round; stroke-linejoin:round;fill-rule:evenodd;"
d="M 79304,43808
79304,44359
78556,44359
78556,43808
79304,43808
Z" /> 
<path style="fill:#000000; fill-opacity:1.0; 
stroke:#000000; stroke-width:0; stroke-opacity:1; 
stroke-linecap:round; stroke-linejoin:round;fill-rule:evenodd;"
d="M 79304,43178
79304,43729
78556,43729
78556,43178
79304,43178
Z" /> 
<path style="fill:#000000; fill-opacity:1.0; 
stroke:#000000; stroke-width:0; stroke-opacity:1; 
stroke-linecap:round; stroke-linejoin:round;fill-rule:evenodd;"
d="M 79304,42548
79304,43099
78556,43099
78556,42548
79304,42548
Z" /> 
</g>
<g >
<path style="fill:#000000; fill-opacity:1.0; 
stroke:#000000; stroke-width:0; stroke-opacity:1; 
stroke-linecap:round; stroke-linejoin:round;fill-rule:evenodd;"
d="M 74672,43808
74672,44359
73924,44359
73924,43808
74672,43808
Z" /> 
<path style="fill:#000000; fill-opacity:1.0; 
stroke:#000000; stroke-width:0; stroke-opacity:1; 
stroke-linecap:round; stroke-linejoin:round;fill-rule:evenodd;"
d="M 74672,43178
74672,43729
73924,43729
73924,43178
74672,43178
Z" /> 
<path style="fill:#000000; fill-opacity:1.0; 
stroke:#000000; stroke-width:0; stroke-opacity:1; 
stroke-linecap:round; stroke-linejoin:round;fill-rule:evenodd;"
d="M 74672,42548
74672,43099
73924,43099
73924,42548
74672,42548
Z" /> 
<path style="fill:#000000; fill-opacity:1.0; 
stroke:#000000; stroke-width:0; stroke-opacity:1; 
stroke-linecap:round; stroke-linejoin:round;fill-rule:evenodd;"
d="M 72742,43808
72742,44359
71994,44359
71994,43808
72742,43808
Z" /> 
<path style="fill:#000000; fill-opacity:1.0; 
stroke:#000000; stroke-width:0; stroke-opacity:1; 
stroke-linecap:round; stroke-linejoin:round;fill-rule:evenodd;"
d="M 72742,43178
72742,43729
71994,43729
71994,43178
72742,43178
Z" /> 
<path style="fill:#000000; fill-opacity:1.0; 
stroke:#000000; stroke-width:0; stroke-opacity:1; 
stroke-linecap:round; stroke-linejoin:round;fill-rule:evenodd;"
d="M 72742,42548
72742,43099
71994,43099
71994,42548
72742,42548
Z" /> 
</g>
<g >
<path style="fill:#000000; fill-opacity:1.0; 
stroke:#000000; stroke-width:0; stroke-opacity:1; 
stroke-linecap:round; stroke-linejoin:round;fill-rule:evenodd;"
d="M 68110,43808
68110,44359
67362,44359
67362,43808
68110,43808
Z" /> 
<path style="fill:#000000; fill-opacity:1.0; 
stroke:#000000; stroke-width:0; stroke-opacity:1; 
stroke-linecap:round; stroke-linejoin:round;fill-rule:evenodd;"
d="M 68110,43178
68110,43729
67362,43729
67362,43178
68110,43178
Z" /> 
<path style="fill:#000000; fill-opacity:1.0; 
stroke:#000000; stroke-width:0; stroke-opacity:1; 
stroke-linecap:round; stroke-linejoin:round;fill-rule:evenodd;"
d="M 68110,42548
68110,43099
67362,43099
67362,42548
68110,42548
Z" /> 
<path style="fill:#000000; fill-opacity:1.0; 
stroke:#000000; stroke-width:0; stroke-opacity:1; 
stroke-linecap:round; stroke-linejoin:round;fill-rule:evenodd;"
d="M 66181,43808
66181,44359
65433,44359
65433,43808
66181,43808
Z" /> 
<path style="fill:#000000; fill-opacity:1.0; 
stroke:#000000; stroke-width:0; stroke-opacity:1; 
stroke-linecap:round; stroke-linejoin:round;fill-rule:evenodd;"
d="M 66181,43178
66181,43729
65433,43729
65433,43178
66181,43178
Z" /> 
<path style="fill:#000000; fill-opacity:1.0; 
stroke:#000000; stroke-width:0; stroke-opacity:1; 
stroke-linecap:round; stroke-linejoin:round;fill-rule:evenodd;"
d="M 66181,42548
66181,43099
65433,43099
65433,42548
66181,42548
Z" /> 
</g>
<g >
<path style="fill:#000000; fill-opacity:1.0; 
stroke:#000000; stroke-width:0; stroke-opacity:1; 
stroke-linecap:round; stroke-linejoin:round;fill-rule:evenodd;"
d="M 61549,43808
61549,44359
60801,44359
60801,43808
61549,43808
Z" /> 
<path style="fill:#000000; fill-opacity:1.0; 
stroke:#000000; stroke-width:0; stroke-opacity:1; 
stroke-linecap:round; stroke-linejoin:round;fill-rule:evenodd;"
d="M 61549,43178
61549,43729
60801,43729
60801,43178
61549,43178
Z" /> 
<path style="fill:#000000; fill-opacity:1.0; 
stroke:#000000; stroke-width:0; stroke-opacity:1; 
stroke-linecap:round; stroke-linejoin:round;fill-rule:evenodd;"
d="M 61549,42548
61549,43099
60801,43099
60801,42548
61549,42548
Z" /> 
<path style="fill:#000000; fill-opacity:1.0; 
stroke:#000000; stroke-width:0; stroke-opacity:1; 
stroke-linecap:round; stroke-linejoin:round;fill-rule:evenodd;"
d="M 59620,43808
59620,44359
58872,44359
58872,43808
59620,43808
Z" /> 
<path style="fill:#000000; fill-opacity:1.0; 
stroke:#000000; stroke-width:0; stroke-opacity:1; 
stroke-linecap:round; stroke-linejoin:round;fill-rule:evenodd;"
d="M 59620,43178
59620,43729
58872,43729
58872,43178
59620,43178
Z" /> 
<path style="fill:#000000; fill-opacity:1.0; 
stroke:#000000; stroke-width:0; stroke-opacity:1; 
stroke-linecap:round; stroke-linejoin:round;fill-rule:evenodd;"
d="M 59620,42548
59620,43099
58872,43099
58872,42548
59620,42548
Z" /> 
</g>
<g >
<path style="fill:#000000; fill-opacity:1.0; 
stroke:#000000; stroke-width:0; stroke-opacity:1; 
stroke-linecap:round; stroke-linejoin:round;fill-rule:evenodd;"
d="M 54988,43808
54988,44359
54240,44359
54240,43808
54988,43808
Z" /> 
<path style="fill:#000000; fill-opacity:1.0; 
stroke:#000000; stroke-width:0; stroke-opacity:1; 
stroke-linecap:round; stroke-linejoin:round;fill-rule:evenodd;"
d="M 54988,43178
54988,43729
54240,43729
54240,43178
54988,43178
Z" /> 
<path style="fill:#000000; fill-opacity:1.0; 
stroke:#000000; stroke-width:0; stroke-opacity:1; 
stroke-linecap:round; stroke-linejoin:round;fill-rule:evenodd;"
d="M 54988,42548
54988,43099
54240,43099
54240,42548
54988,42548
Z" /> 
<path style="fill:#000000; fill-opacity:1.0; 
stroke:#000000; stroke-width:0; stroke-opacity:1; 
stroke-linecap:round; stroke-linejoin:round;fill-rule:evenodd;"
d="M 53058,43808
53058,44359
52310,44359
52310,43808
53058,43808
Z" /> 
<path style="fill:#000000; fill-opacity:1.0; 
stroke:#000000; stroke-width:0; stroke-opacity:1; 
stroke-linecap:round; stroke-linejoin:round;fill-rule:evenodd;"
d="M 53058,43178
53058,43729
52310,43729
52310,43178
53058,43178
Z" /> 
<path style="fill:#000000; fill-opacity:1.0; 
stroke:#000000; stroke-width:0; stroke-opacity:1; 
stroke-linecap:round; stroke-linejoin:round;fill-rule:evenodd;"
d="M 53058,42548
53058,43099
52310,43099
52310,42548
53058,42548
Z" /> 
</g>
<g >
<path style="fill:#000000; fill-opacity:1.0; 
stroke:#000000; stroke-width:0; stroke-opacity:1; 
stroke-linecap:round; stroke-linejoin:round;fill-rule:evenodd;"
d="M 48426,43808
48426,44359
47678,44359
47678,43808
48426,43808
Z" /> 
<path style="fill:#000000; fill-opacity:1.0; 
stroke:#000000; stroke-width:0; stroke-opacity:1; 
stroke-linecap:round; stroke-linejoin:round;fill-rule:evenodd;"
d="M 48426,43178
48426,43729
47678,43729
47678,43178
48426,43178
Z" /> 
<path style="fill:#000000; fill-opacity:1.0; 
stroke:#000000; stroke-width:0; stroke-opacity:1; 
stroke-linecap:round; stroke-linejoin:round;fill-rule:evenodd;"
d="M 48426,42548
48426,43099
47678,43099
47678,42548
48426,42548
Z" /> 
<path style="fill:#000000; fill-opacity:1.0; 
stroke:#000000; stroke-width:0; stroke-opacity:1; 
stroke-linecap:round; stroke-linejoin:round;fill-rule:evenodd;"
d="M 46497,43808
46497,44359
45749,44359
45749,43808
46497,43808
Z" /> 
<path style="fill:#000000; fill-opacity:1.0; 
stroke:#000000; stroke-width:0; stroke-opacity:1; 
stroke-linecap:round; stroke-linejoin:round;fill-rule:evenodd;"
d="M 46497,43178
46497,43729
45749,43729
45749,43178
46497,43178
Z" /> 
<path style="fill:#000000; fill-opacity:1.0; 
stroke:#000000; stroke-width:0; stroke-opacity:1; 
stroke-linecap:round; stroke-linejoin:round;fill-rule:evenodd;"
d="M 46497,42548
46497,43099
45749,43099
45749,42548
46497,42548
Z" /> 
</g>
<g >
<path style="fill:#000000; fill-opacity:1.0; 
stroke:#000000; stroke-width:0; stroke-opacity:1; 
stroke-linecap:round; stroke-linejoin:round;fill-rule:evenodd;"
d="M 41865,43808
41865,44359
41117,44359
41117,43808
41865,43808
Z" /> 
<path style="fill:#000000; fill-opacity:1.0; 
stroke:#000000; stroke-width:0; stroke-opacity:1; 
stroke-linecap:round; stroke-linejoin:round;fill-rule:evenodd;"
d="M 41865,43178
41865,43729
41117,43729
41117,43178
41865,43178
Z" /> 
<path style="fill:#000000; fill-opacity:1.0; 
stroke:#000000; stroke-width:0; stroke-opacity:1; 
stroke-linecap:round; stroke-linejoin:round;fill-rule:evenodd;"
d="M 41865,42548
41865,43099
41117,43099
41117,42548
41865,42548
Z" /> 
<path style="fill:#000000; fill-opacity:1.0; 
stroke:#000000; stroke-width:0; stroke-opacity:1; 
stroke-linecap:round; stroke-linejoin:round;fill-rule:evenodd;"
d="M 39936,43808
39936,44359
39188,44359
39188,43808
39936,43808
Z" /> 
<path style="fill:#000000; fill-opacity:1.0; 
stroke:#000000; stroke-width:0; stroke-opacity:1; 
stroke-linecap:round; stroke-linejoin:round;fill-rule:evenodd;"
d="M 39936,43178
39936,43729
39188,43729
39188,43178
39936,43178
Z" /> 
<path style="fill:#000000; fill-opacity:1.0; 
stroke:#000000; stroke-width:0; stroke-opacity:1; 
stroke-linecap:round; stroke-linejoin:round;fill-rule:evenodd;"
d="M 39936,42548
39936,43099
39188,43099
39188,42548
39936,42548
Z" /> 
</g>
<g >
<path style="fill:#000000; fill-opacity:1.0; 
stroke:#000000; stroke-width:0; stroke-opacity:1; 
stroke-linecap:round; stroke-linejoin:round;fill-rule:evenodd;"
d="M 36355,43712
36369,43714
36381,43718
36394,43722
36406,43728
36417,43735
36428,43743
36438,43751
36447,43761
36455,43772
36461,43783
36467,43795
36472,43808
36475,43821
36477,43834
36477,43847
36477,44118
36477,44131
36475,44144
36472,44157
36467,44170
36461,44182
36455,44193
36447,44204
36438,44214
36428,44222
36417,44230
36406,44237
36394,44243
36381,44247
36369,44251
36355,44253
36342,44253
35904,44253
35891,44253
35878,44251
35865,44247
35852,44243
35840,44237
35829,44230
35818,44222
35808,44214
35800,44204
35792,44193
35785,44182
35779,44170
35775,44157
35771,44144
35769,44131
35769,44118
35769,43847
35769,43834
35771,43821
35775,43808
35779,43795
35785,43783
35792,43772
35800,43761
35808,43751
35818,43743
35829,43735
35840,43728
35852,43722
35865,43718
35878,43714
35891,43712
35904,43712
36342,43712
36355,43712
Z" /> 
<path style="fill:#000000; fill-opacity:1.0; 
stroke:#000000; stroke-width:0; stroke-opacity:1; 
stroke-linecap:round; stroke-linejoin:round;fill-rule:evenodd;"
d="M 36355,42974
36369,42976
36381,42979
36394,42984
36406,42990
36417,42996
36428,43004
36438,43013
36447,43023
36455,43034
36461,43045
36467,43057
36472,43070
36475,43083
36477,43096
36477,43109
36477,43380
36477,43393
36475,43406
36472,43419
36467,43431
36461,43443
36455,43455
36447,43466
36438,43475
36428,43484
36417,43492
36406,43499
36394,43505
36381,43509
36369,43512
36355,43514
36342,43515
35904,43515
35891,43514
35878,43512
35865,43509
35852,43505
35840,43499
35829,43492
35818,43484
35808,43475
35800,43466
35792,43455
35785,43443
35779,43431
35775,43419
35771,43406
35769,43393
35769,43380
35769,43109
35769,43096
35771,43083
35775,43070
35779,43057
35785,43045
35792,43034
35800,43023
35808,43013
35818,43004
35829,42996
35840,42990
35852,42984
35865,42979
35878,42976
35891,42974
35904,42974
36342,42974
36355,42974
Z" /> 
</g>
<g >
<path style="fill:#000000; fill-opacity:1.0; 
stroke:#000000; stroke-width:0; stroke-opacity:1; 
stroke-linecap:round; stroke-linejoin:round;fill-rule:evenodd;"
d="M 42909,43712
42922,43714
42935,43718
42948,43722
42960,43728
42971,43735
42982,43743
42991,43751
43000,43761
43008,43772
43015,43783
43021,43795
43025,43808
43029,43821
43030,43834
43031,43847
43031,44118
43030,44131
43029,44144
43025,44157
43021,44170
43015,44182
43008,44193
43000,44204
42991,44214
42982,44222
42971,44230
42960,44237
42948,44243
42935,44247
42922,44251
42909,44253
42896,44253
42458,44253
42445,44253
42431,44251
42418,44247
42406,44243
42394,44237
42383,44230
42372,44222
42362,44214
42353,44204
42345,44193
42338,44182
42333,44170
42328,44157
42325,44144
42323,44131
42322,44118
42322,43847
42323,43834
42325,43821
42328,43808
42333,43795
42338,43783
42345,43772
42353,43761
42362,43751
42372,43743
42383,43735
42394,43728
42406,43722
42418,43718
42431,43714
42445,43712
42458,43712
42896,43712
42909,43712
Z" /> 
<path style="fill:#000000; fill-opacity:1.0; 
stroke:#000000; stroke-width:0; stroke-opacity:1; 
stroke-linecap:round; stroke-linejoin:round;fill-rule:evenodd;"
d="M 42909,42974
42922,42976
42935,42979
42948,42984
42960,42990
42971,42996
42982,43004
42991,43013
43000,43023
43008,43034
43015,43045
43021,43057
43025,43070
43029,43083
43030,43096
43031,43109
43031,43380
43030,43393
43029,43406
43025,43419
43021,43431
43015,43443
43008,43455
43000,43466
42991,43475
42982,43484
42971,43492
42960,43499
42948,43505
42935,43509
42922,43512
42909,43514
42896,43515
42458,43515
42445,43514
42431,43512
42418,43509
42406,43505
42394,43499
42383,43492
42372,43484
42362,43475
42353,43466
42345,43455
42338,43443
42333,43431
42328,43419
42325,43406
42323,43393
42322,43380
42322,43109
42323,43096
42325,43083
42328,43070
42333,43057
42338,43045
42345,43034
42353,43023
42362,43013
42372,43004
42383,42996
42394,42990
42406,42984
42418,42979
42431,42976
42445,42974
42458,42974
42896,42974
42909,42974
Z" /> 
</g>
<g >
<path style="fill:#000000; fill-opacity:1.0; 
stroke:#000000; stroke-width:0; stroke-opacity:1; 
stroke-linecap:round; stroke-linejoin:round;fill-rule:evenodd;"
d="M 49463,43712
49476,43714
49489,43718
49501,43722
49513,43728
49525,43735
49535,43743
49545,43751
49554,43761
49562,43772
49569,43783
49574,43795
49579,43808
49582,43821
49584,43834
49585,43847
49585,44118
49584,44131
49582,44144
49579,44157
49574,44170
49569,44182
49562,44193
49554,44204
49545,44214
49535,44222
49525,44230
49513,44237
49501,44243
49489,44247
49476,44251
49463,44253
49449,44253
49011,44253
48998,44253
48985,44251
48972,44247
48960,44243
48948,44237
48936,44230
48926,44222
48916,44214
48907,44204
48899,44193
48892,44182
48886,44170
48882,44157
48879,44144
48877,44131
48876,44118
48876,43847
48877,43834
48879,43821
48882,43808
48886,43795
48892,43783
48899,43772
48907,43761
48916,43751
48926,43743
48936,43735
48948,43728
48960,43722
48972,43718
48985,43714
48998,43712
49011,43712
49449,43712
49463,43712
Z" /> 
<path style="fill:#000000; fill-opacity:1.0; 
stroke:#000000; stroke-width:0; stroke-opacity:1; 
stroke-linecap:round; stroke-linejoin:round;fill-rule:evenodd;"
d="M 49463,42974
49476,42976
49489,42979
49501,42984
49513,42990
49525,42996
49535,43004
49545,43013
49554,43023
49562,43034
49569,43045
49574,43057
49579,43070
49582,43083
49584,43096
49585,43109
49585,43380
49584,43393
49582,43406
49579,43419
49574,43431
49569,43443
49562,43455
49554,43466
49545,43475
49535,43484
49525,43492
49513,43499
49501,43505
49489,43509
49476,43512
49463,43514
49449,43515
49011,43515
48998,43514
48985,43512
48972,43509
48960,43505
48948,43499
48936,43492
48926,43484
48916,43475
48907,43466
48899,43455
48892,43443
48886,43431
48882,43419
48879,43406
48877,43393
48876,43380
48876,43109
48877,43096
48879,43083
48882,43070
48886,43057
48892,43045
48899,43034
48907,43023
48916,43013
48926,43004
48936,42996
48948,42990
48960,42984
48972,42979
48985,42976
48998,42974
49011,42974
49449,42974
49463,42974
Z" /> 
</g>
<g >
<path style="fill:#000000; fill-opacity:1.0; 
stroke:#000000; stroke-width:0; stroke-opacity:1; 
stroke-linecap:round; stroke-linejoin:round;fill-rule:evenodd;"
d="M 56016,43712
56029,43714
56042,43718
56055,43722
56067,43728
56078,43735
56089,43743
56099,43751
56108,43761
56116,43772
56122,43783
56128,43795
56133,43808
56136,43821
56138,43834
56138,43847
56138,44118
56138,44131
56136,44144
56133,44157
56128,44170
56122,44182
56116,44193
56108,44204
56099,44214
56089,44222
56078,44230
56067,44237
56055,44243
56042,44247
56029,44251
56016,44253
56003,44253
55565,44253
55552,44253
55539,44251
55526,44247
55513,44243
55501,44237
55490,44230
55479,44222
55469,44214
55460,44204
55453,44193
55446,44182
55440,44170
55436,44157
55432,44144
55430,44131
55430,44118
55430,43847
55430,43834
55432,43821
55436,43808
55440,43795
55446,43783
55453,43772
55460,43761
55469,43751
55479,43743
55490,43735
55501,43728
55513,43722
55526,43718
55539,43714
55552,43712
55565,43712
56003,43712
56016,43712
Z" /> 
<path style="fill:#000000; fill-opacity:1.0; 
stroke:#000000; stroke-width:0; stroke-opacity:1; 
stroke-linecap:round; stroke-linejoin:round;fill-rule:evenodd;"
d="M 56016,42974
56029,42976
56042,42979
56055,42984
56067,42990
56078,42996
56089,43004
56099,43013
56108,43023
56116,43034
56122,43045
56128,43057
56133,43070
56136,43083
56138,43096
56138,43109
56138,43380
56138,43393
56136,43406
56133,43419
56128,43431
56122,43443
56116,43455
56108,43466
56099,43475
56089,43484
56078,43492
56067,43499
56055,43505
56042,43509
56029,43512
56016,43514
56003,43515
55565,43515
55552,43514
55539,43512
55526,43509
55513,43505
55501,43499
55490,43492
55479,43484
55469,43475
55460,43466
55453,43455
55446,43443
55440,43431
55436,43419
55432,43406
55430,43393
55430,43380
55430,43109
55430,43096
55432,43083
55436,43070
55440,43057
55446,43045
55453,43034
55460,43023
55469,43013
55479,43004
55490,42996
55501,42990
55513,42984
55526,42979
55539,42976
55552,42974
55565,42974
56003,42974
56016,42974
Z" /> 
</g>
<g >
<path style="fill:#000000; fill-opacity:1.0; 
stroke:#000000; stroke-width:0; stroke-opacity:1; 
stroke-linecap:round; stroke-linejoin:round;fill-rule:evenodd;"
d="M 62570,43712
62583,43714
62596,43718
62608,43722
62620,43728
62632,43735
62643,43743
62652,43751
62661,43761
62669,43772
62676,43783
62682,43795
62686,43808
62689,43821
62691,43834
62692,43847
62692,44118
62691,44131
62689,44144
62686,44157
62682,44170
62676,44182
62669,44193
62661,44204
62652,44214
62643,44222
62632,44230
62620,44237
62608,44243
62596,44247
62583,44251
62570,44253
62557,44253
62119,44253
62105,44253
62092,44251
62079,44247
62067,44243
62055,44237
62043,44230
62033,44222
62023,44214
62014,44204
62006,44193
61999,44182
61994,44170
61989,44157
61986,44144
61984,44131
61983,44118
61983,43847
61984,43834
61986,43821
61989,43808
61994,43795
61999,43783
62006,43772
62014,43761
62023,43751
62033,43743
62043,43735
62055,43728
62067,43722
62079,43718
62092,43714
62105,43712
62119,43712
62557,43712
62570,43712
Z" /> 
<path style="fill:#000000; fill-opacity:1.0; 
stroke:#000000; stroke-width:0; stroke-opacity:1; 
stroke-linecap:round; stroke-linejoin:round;fill-rule:evenodd;"
d="M 62570,42974
62583,42976
62596,42979
62608,42984
62620,42990
62632,42996
62643,43004
62652,43013
62661,43023
62669,43034
62676,43045
62682,43057
62686,43070
62689,43083
62691,43096
62692,43109
62692,43380
62691,43393
62689,43406
62686,43419
62682,43431
62676,43443
62669,43455
62661,43466
62652,43475
62643,43484
62632,43492
62620,43499
62608,43505
62596,43509
62583,43512
62570,43514
62557,43515
62119,43515
62105,43514
62092,43512
62079,43509
62067,43505
62055,43499
62043,43492
62033,43484
62023,43475
62014,43466
62006,43455
61999,43443
61994,43431
61989,43419
61986,43406
61984,43393
61983,43380
61983,43109
61984,43096
61986,43083
61989,43070
61994,43057
61999,43045
62006,43034
62014,43023
62023,43013
62033,43004
62043,42996
62055,42990
62067,42984
62079,42979
62092,42976
62105,42974
62119,42974
62557,42974
62570,42974
Z" /> 
</g>
<g >
<path style="fill:#000000; fill-opacity:1.0; 
stroke:#000000; stroke-width:0; stroke-opacity:1; 
stroke-linecap:round; stroke-linejoin:round;fill-rule:evenodd;"
d="M 69124,43712
69137,43714
69150,43718
69162,43722
69174,43728
69186,43735
69196,43743
69206,43751
69215,43761
69223,43772
69230,43783
69235,43795
69240,43808
69243,43821
69245,43834
69246,43847
69246,44118
69245,44131
69243,44144
69240,44157
69235,44170
69230,44182
69223,44193
69215,44204
69206,44214
69196,44222
69186,44230
69174,44237
69162,44243
69150,44247
69137,44251
69124,44253
69110,44253
68672,44253
68659,44253
68646,44251
68633,44247
68621,44243
68609,44237
68597,44230
68586,44222
68577,44214
68568,44204
68560,44193
68553,44182
68547,44170
68543,44157
68540,44144
68538,44131
68537,44118
68537,43847
68538,43834
68540,43821
68543,43808
68547,43795
68553,43783
68560,43772
68568,43761
68577,43751
68586,43743
68597,43735
68609,43728
68621,43722
68633,43718
68646,43714
68659,43712
68672,43712
69110,43712
69124,43712
Z" /> 
<path style="fill:#000000; fill-opacity:1.0; 
stroke:#000000; stroke-width:0; stroke-opacity:1; 
stroke-linecap:round; stroke-linejoin:round;fill-rule:evenodd;"
d="M 69124,42974
69137,42976
69150,42979
69162,42984
69174,42990
69186,42996
69196,43004
69206,43013
69215,43023
69223,43034
69230,43045
69235,43057
69240,43070
69243,43083
69245,43096
69246,43109
69246,43380
69245,43393
69243,43406
69240,43419
69235,43431
69230,43443
69223,43455
69215,43466
69206,43475
69196,43484
69186,43492
69174,43499
69162,43505
69150,43509
69137,43512
69124,43514
69110,43515
68672,43515
68659,43514
68646,43512
68633,43509
68621,43505
68609,43499
68597,43492
68586,43484
68577,43475
68568,43466
68560,43455
68553,43443
68547,43431
68543,43419
68540,43406
68538,43393
68537,43380
68537,43109
68538,43096
68540,43083
68543,43070
68547,43057
68553,43045
68560,43034
68568,43023
68577,43013
68586,43004
68597,42996
68609,42990
68621,42984
68633,42979
68646,42976
68659,42974
68672,42974
69110,42974
69124,42974
Z" /> 
</g>
<g >
<path style="fill:#000000; fill-opacity:1.0; 
stroke:#000000; stroke-width:0; stroke-opacity:1; 
stroke-linecap:round; stroke-linejoin:round;fill-rule:evenodd;"
d="M 75677,43712
75690,43714
75703,43718
75716,43722
75728,43728
75739,43735
75750,43743
75760,43751
75769,43761
75776,43772
75783,43783
75789,43795
75793,43808
75797,43821
75799,43834
75799,43847
75799,44118
75799,44131
75797,44144
75793,44157
75789,44170
75783,44182
75776,44193
75769,44204
75760,44214
75750,44222
75739,44230
75728,44237
75716,44243
75703,44247
75690,44251
75677,44253
75664,44253
75226,44253
75213,44253
75200,44251
75187,44247
75174,44243
75162,44237
75151,44230
75140,44222
75130,44214
75121,44204
75113,44193
75107,44182
75101,44170
75096,44157
75093,44144
75091,44131
75091,44118
75091,43847
75091,43834
75093,43821
75096,43808
75101,43795
75107,43783
75113,43772
75121,43761
75130,43751
75140,43743
75151,43735
75162,43728
75174,43722
75187,43718
75200,43714
75213,43712
75226,43712
75664,43712
75677,43712
Z" /> 
<path style="fill:#000000; fill-opacity:1.0; 
stroke:#000000; stroke-width:0; stroke-opacity:1; 
stroke-linecap:round; stroke-linejoin:round;fill-rule:evenodd;"
d="M 75677,42974
75690,42976
75703,42979
75716,42984
75728,42990
75739,42996
75750,43004
75760,43013
75769,43023
75776,43034
75783,43045
75789,43057
75793,43070
75797,43083
75799,43096
75799,43109
75799,43380
75799,43393
75797,43406
75793,43419
75789,43431
75783,43443
75776,43455
75769,43466
75760,43475
75750,43484
75739,43492
75728,43499
75716,43505
75703,43509
75690,43512
75677,43514
75664,43515
75226,43515
75213,43514
75200,43512
75187,43509
75174,43505
75162,43499
75151,43492
75140,43484
75130,43475
75121,43466
75113,43455
75107,43443
75101,43431
75096,43419
75093,43406
75091,43393
75091,43380
75091,43109
75091,43096
75093,43083
75096,43070
75101,43057
75107,43045
75113,43034
75121,43023
75130,43013
75140,43004
75151,42996
75162,42990
75174,42984
75187,42979
75200,42976
75213,42974
75226,42974
75664,42974
75677,42974
Z" /> 
</g>
<g >
<path style="fill:#000000; fill-opacity:1.0; 
stroke:#000000; stroke-width:0; stroke-opacity:1; 
stroke-linecap:round; stroke-linejoin:round;fill-rule:evenodd;"
d="M 80280,41406
80293,41408
80306,41411
80319,41415
80331,41421
80342,41428
80353,41436
80362,41445
80371,41455
80379,41465
80386,41477
80392,41489
80396,41501
80399,41514
80401,41527
80402,41541
80402,41978
80401,41992
80399,42005
80396,42018
80392,42030
80386,42042
80379,42054
80371,42064
80362,42074
80353,42083
80342,42091
80331,42098
80319,42104
80306,42108
80293,42111
80280,42113
80267,42114
79996,42114
79983,42113
79970,42111
79957,42108
79944,42104
79932,42098
79921,42091
79910,42083
79900,42074
79891,42064
79884,42054
79877,42042
79871,42030
79867,42018
79863,42005
79861,41992
79861,41978
79861,41541
79861,41527
79863,41514
79867,41501
79871,41489
79877,41477
79884,41465
79891,41455
79900,41445
79910,41436
79921,41428
79932,41421
79944,41415
79957,41411
79970,41408
79983,41406
79996,41405
80267,41405
80280,41406
Z" /> 
<path style="fill:#000000; fill-opacity:1.0; 
stroke:#000000; stroke-width:0; stroke-opacity:1; 
stroke-linecap:round; stroke-linejoin:round;fill-rule:evenodd;"
d="M 81018,41406
81031,41408
81044,41411
81057,41415
81069,41421
81080,41428
81091,41436
81101,41445
81110,41455
81117,41465
81124,41477
81130,41489
81134,41501
81138,41514
81140,41527
81140,41541
81140,41978
81140,41992
81138,42005
81134,42018
81130,42030
81124,42042
81117,42054
81110,42064
81101,42074
81091,42083
81080,42091
81069,42098
81057,42104
81044,42108
81031,42111
81018,42113
81005,42114
80734,42114
80721,42113
80708,42111
80695,42108
80682,42104
80670,42098
80659,42091
80648,42083
80639,42074
80630,42064
80622,42054
80615,42042
80609,42030
80605,42018
80602,42005
80600,41992
80599,41978
80599,41541
80600,41527
80602,41514
80605,41501
80609,41489
80615,41477
80622,41465
80630,41455
80639,41445
80648,41436
80659,41428
80670,41421
80682,41415
80695,41411
80708,41408
80721,41406
80734,41405
81005,41405
81018,41406
Z" /> 
</g>
<g >
<path style="fill:#000000; fill-opacity:1.0; 
stroke:#000000; stroke-width:0; stroke-opacity:1; 
stroke-linecap:round; stroke-linejoin:round;fill-rule:evenodd;"
d="M 88784,43712
88798,43714
88811,43718
88823,43722
88835,43728
88846,43735
88857,43743
88867,43751
88876,43761
88884,43772
88891,43783
88896,43795
88901,43808
88904,43821
88906,43834
88907,43847
88907,44118
88906,44131
88904,44144
88901,44157
88896,44170
88891,44182
88884,44193
88876,44204
88867,44214
88857,44222
88846,44230
88835,44237
88823,44243
88811,44247
88798,44251
88784,44253
88771,44253
88333,44253
88320,44253
88307,44251
88294,44247
88281,44243
88269,44237
88258,44230
88247,44222
88238,44214
88229,44204
88221,44193
88214,44182
88208,44170
88204,44157
88200,44144
88199,44131
88198,44118
88198,43847
88199,43834
88200,43821
88204,43808
88208,43795
88214,43783
88221,43772
88229,43761
88238,43751
88247,43743
88258,43735
88269,43728
88281,43722
88294,43718
88307,43714
88320,43712
88333,43712
88771,43712
88784,43712
Z" /> 
<path style="fill:#000000; fill-opacity:1.0; 
stroke:#000000; stroke-width:0; stroke-opacity:1; 
stroke-linecap:round; stroke-linejoin:round;fill-rule:evenodd;"
d="M 88784,42974
88798,42976
88811,42979
88823,42984
88835,42990
88846,42996
88857,43004
88867,43013
88876,43023
88884,43034
88891,43045
88896,43057
88901,43070
88904,43083
88906,43096
88907,43109
88907,43380
88906,43393
88904,43406
88901,43419
88896,43431
88891,43443
88884,43455
88876,43466
88867,43475
88857,43484
88846,43492
88835,43499
88823,43505
88811,43509
88798,43512
88784,43514
88771,43515
88333,43515
88320,43514
88307,43512
88294,43509
88281,43505
88269,43499
88258,43492
88247,43484
88238,43475
88229,43466
88221,43455
88214,43443
88208,43431
88204,43419
88200,43406
88199,43393
88198,43380
88198,43109
88199,43096
88200,43083
88204,43070
88208,43057
88214,43045
88221,43034
88229,43023
88238,43013
88247,43004
88258,42996
88269,42990
88281,42984
88294,42979
88307,42976
88320,42974
88333,42974
88771,42974
88784,42974
Z" /> 
</g>
<g >
<path style="fill:#000000; fill-opacity:1.0; 
stroke:#000000; stroke-width:0; stroke-opacity:1; 
stroke-linecap:round; stroke-linejoin:round;fill-rule:evenodd;"
d="M 95338,43712
95351,43714
95364,43718
95377,43722
95389,43728
95400,43735
95411,43743
95421,43751
95429,43761
95437,43772
95444,43783
95450,43795
95454,43808
95458,43821
95460,43834
95460,43847
95460,44118
95460,44131
95458,44144
95454,44157
95450,44170
95444,44182
95437,44193
95429,44204
95421,44214
95411,44222
95400,44230
95389,44237
95377,44243
95364,44247
95351,44251
95338,44253
95325,44253
94887,44253
94874,44253
94860,44251
94848,44247
94835,44243
94823,44237
94812,44230
94801,44222
94791,44214
94782,44204
94774,44193
94768,44182
94762,44170
94757,44157
94754,44144
94752,44131
94752,44118
94752,43847
94752,43834
94754,43821
94757,43808
94762,43795
94768,43783
94774,43772
94782,43761
94791,43751
94801,43743
94812,43735
94823,43728
94835,43722
94848,43718
94860,43714
94874,43712
94887,43712
95325,43712
95338,43712
Z" /> 
<path style="fill:#000000; fill-opacity:1.0; 
stroke:#000000; stroke-width:0; stroke-opacity:1; 
stroke-linecap:round; stroke-linejoin:round;fill-rule:evenodd;"
d="M 95338,42974
95351,42976
95364,42979
95377,42984
95389,42990
95400,42996
95411,43004
95421,43013
95429,43023
95437,43034
95444,43045
95450,43057
95454,43070
95458,43083
95460,43096
95460,43109
95460,43380
95460,43393
95458,43406
95454,43419
95450,43431
95444,43443
95437,43455
95429,43466
95421,43475
95411,43484
95400,43492
95389,43499
95377,43505
95364,43509
95351,43512
95338,43514
95325,43515
94887,43515
94874,43514
94860,43512
94848,43509
94835,43505
94823,43499
94812,43492
94801,43484
94791,43475
94782,43466
94774,43455
94768,43443
94762,43431
94757,43419
94754,43406
94752,43393
94752,43380
94752,43109
94752,43096
94754,43083
94757,43070
94762,43057
94768,43045
94774,43034
94782,43023
94791,43013
94801,43004
94812,42996
94823,42990
94835,42984
94848,42979
94860,42976
94874,42974
94887,42974
95325,42974
95338,42974
Z" /> 
</g>
<g >
<path style="fill:#000000; fill-opacity:1.0; 
stroke:#000000; stroke-width:0; stroke-opacity:1; 
stroke-linecap:round; stroke-linejoin:round;fill-rule:evenodd;"
d="M 102033,43712
102046,43714
102059,43718
102071,43722
102083,43728
102095,43735
102105,43743
102115,43751
102124,43761
102132,43772
102139,43783
102144,43795
102149,43808
102152,43821
102154,43834
102155,43847
102155,44118
102154,44131
102152,44144
102149,44157
102144,44170
102139,44182
102132,44193
102124,44204
102115,44214
102105,44222
102095,44230
102083,44237
102071,44243
102059,44247
102046,44251
102033,44253
102019,44253
101581,44253
101568,44253
101555,44251
101542,44247
101530,44243
101518,44237
101506,44230
101496,44222
101486,44214
101477,44204
101469,44193
101462,44182
101456,44170
101452,44157
101449,44144
101447,44131
101446,44118
101446,43847
101447,43834
101449,43821
101452,43808
101456,43795
101462,43783
101469,43772
101477,43761
101486,43751
101496,43743
101506,43735
101518,43728
101530,43722
101542,43718
101555,43714
101568,43712
101581,43712
102019,43712
102033,43712
Z" /> 
<path style="fill:#000000; fill-opacity:1.0; 
stroke:#000000; stroke-width:0; stroke-opacity:1; 
stroke-linecap:round; stroke-linejoin:round;fill-rule:evenodd;"
d="M 102033,42974
102046,42976
102059,42979
102071,42984
102083,42990
102095,42996
102105,43004
102115,43013
102124,43023
102132,43034
102139,43045
102144,43057
102149,43070
102152,43083
102154,43096
102155,43109
102155,43380
102154,43393
102152,43406
102149,43419
102144,43431
102139,43443
102132,43455
102124,43466
102115,43475
102105,43484
102095,43492
102083,43499
102071,43505
102059,43509
102046,43512
102033,43514
102019,43515
101581,43515
101568,43514
101555,43512
101542,43509
101530,43505
101518,43499
101506,43492
101496,43484
101486,43475
101477,43466
101469,43455
101462,43443
101456,43431
101452,43419
101449,43406
101447,43393
101446,43380
101446,43109
101447,43096
101449,43083
101452,43070
101456,43057
101462,43045
101469,43034
101477,43023
101486,43013
101496,43004
101506,42996
101518,42990
101530,42984
101542,42979
101555,42976
101568,42974
101581,42974
102019,42974
102033,42974
Z" /> 
</g>
<g >
<path style="fill:#000000; fill-opacity:1.0; 
stroke:#000000; stroke-width:0; stroke-opacity:1; 
stroke-linecap:round; stroke-linejoin:round;fill-rule:evenodd;"
d="M 70224,42974
70237,42976
70250,42979
70262,42984
70274,42990
70286,42996
70296,43004
70306,43013
70315,43023
70323,43034
70330,43045
70335,43057
70340,43070
70343,43083
70345,43096
70346,43109
70346,43380
70345,43393
70343,43406
70340,43419
70335,43431
70330,43443
70323,43455
70315,43466
70306,43475
70296,43484
70286,43492
70274,43499
70262,43505
70250,43509
70237,43512
70224,43514
70210,43515
69772,43515
69759,43514
69746,43512
69733,43509
69721,43505
69709,43499
69697,43492
69686,43484
69677,43475
69668,43466
69660,43455
69653,43443
69647,43431
69643,43419
69640,43406
69638,43393
69637,43380
69637,43109
69638,43096
69640,43083
69643,43070
69647,43057
69653,43045
69660,43034
69668,43023
69677,43013
69686,43004
69697,42996
69709,42990
69721,42984
69733,42979
69746,42976
69759,42974
69772,42974
70210,42974
70224,42974
Z" /> 
<path style="fill:#000000; fill-opacity:1.0; 
stroke:#000000; stroke-width:0; stroke-opacity:1; 
stroke-linecap:round; stroke-linejoin:round;fill-rule:evenodd;"
d="M 70224,43712
70237,43714
70250,43718
70262,43722
70274,43728
70286,43735
70296,43743
70306,43751
70315,43761
70323,43772
70330,43783
70335,43795
70340,43808
70343,43821
70345,43834
70346,43847
70346,44118
70345,44131
70343,44144
70340,44157
70335,44170
70330,44182
70323,44193
70315,44204
70306,44214
70296,44222
70286,44230
70274,44237
70262,44243
70250,44247
70237,44251
70224,44253
70210,44253
69772,44253
69759,44253
69746,44251
69733,44247
69721,44243
69709,44237
69697,44230
69686,44222
69677,44214
69668,44204
69660,44193
69653,44182
69647,44170
69643,44157
69640,44144
69638,44131
69637,44118
69637,43847
69638,43834
69640,43821
69643,43808
69647,43795
69653,43783
69660,43772
69668,43761
69677,43751
69686,43743
69697,43735
69709,43728
69721,43722
69733,43718
69746,43714
69759,43712
69772,43712
70210,43712
70224,43712
Z" /> 
</g>
<g >
<path style="fill:#000000; fill-opacity:1.0; 
stroke:#000000; stroke-width:0; stroke-opacity:1; 
stroke-linecap:round; stroke-linejoin:round;fill-rule:evenodd;"
d="M 63670,42974
63683,42976
63696,42979
63708,42984
63720,42990
63732,42996
63743,43004
63752,43013
63761,43023
63769,43034
63776,43045
63782,43057
63786,43070
63789,43083
63791,43096
63792,43109
63792,43380
63791,43393
63789,43406
63786,43419
63782,43431
63776,43443
63769,43455
63761,43466
63752,43475
63743,43484
63732,43492
63720,43499
63708,43505
63696,43509
63683,43512
63670,43514
63657,43515
63219,43515
63205,43514
63192,43512
63179,43509
63167,43505
63155,43499
63143,43492
63133,43484
63123,43475
63114,43466
63106,43455
63099,43443
63094,43431
63089,43419
63086,43406
63084,43393
63083,43380
63083,43109
63084,43096
63086,43083
63089,43070
63094,43057
63099,43045
63106,43034
63114,43023
63123,43013
63133,43004
63143,42996
63155,42990
63167,42984
63179,42979
63192,42976
63205,42974
63219,42974
63657,42974
63670,42974
Z" /> 
<path style="fill:#000000; fill-opacity:1.0; 
stroke:#000000; stroke-width:0; stroke-opacity:1; 
stroke-linecap:round; stroke-linejoin:round;fill-rule:evenodd;"
d="M 63670,43712
63683,43714
63696,43718
63708,43722
63720,43728
63732,43735
63743,43743
63752,43751
63761,43761
63769,43772
63776,43783
63782,43795
63786,43808
63789,43821
63791,43834
63792,43847
63792,44118
63791,44131
63789,44144
63786,44157
63782,44170
63776,44182
63769,44193
63761,44204
63752,44214
63743,44222
63732,44230
63720,44237
63708,44243
63696,44247
63683,44251
63670,44253
63657,44253
63219,44253
63205,44253
63192,44251
63179,44247
63167,44243
63155,44237
63143,44230
63133,44222
63123,44214
63114,44204
63106,44193
63099,44182
63094,44170
63089,44157
63086,44144
63084,44131
63083,44118
63083,43847
63084,43834
63086,43821
63089,43808
63094,43795
63099,43783
63106,43772
63114,43761
63123,43751
63133,43743
63143,43735
63155,43728
63167,43722
63179,43718
63192,43714
63205,43712
63219,43712
63657,43712
63670,43712
Z" /> 
</g>
<g >
<path style="fill:#000000; fill-opacity:1.0; 
stroke:#000000; stroke-width:0; stroke-opacity:1; 
stroke-linecap:round; stroke-linejoin:round;fill-rule:evenodd;"
d="M 57116,42974
57129,42976
57142,42979
57155,42984
57167,42990
57178,42996
57189,43004
57199,43013
57208,43023
57216,43034
57222,43045
57228,43057
57233,43070
57236,43083
57238,43096
57238,43109
57238,43380
57238,43393
57236,43406
57233,43419
57228,43431
57222,43443
57216,43455
57208,43466
57199,43475
57189,43484
57178,43492
57167,43499
57155,43505
57142,43509
57129,43512
57116,43514
57103,43515
56665,43515
56652,43514
56639,43512
56626,43509
56613,43505
56601,43499
56590,43492
56579,43484
56569,43475
56560,43466
56553,43455
56546,43443
56540,43431
56536,43419
56532,43406
56530,43393
56530,43380
56530,43109
56530,43096
56532,43083
56536,43070
56540,43057
56546,43045
56553,43034
56560,43023
56569,43013
56579,43004
56590,42996
56601,42990
56613,42984
56626,42979
56639,42976
56652,42974
56665,42974
57103,42974
57116,42974
Z" /> 
<path style="fill:#000000; fill-opacity:1.0; 
stroke:#000000; stroke-width:0; stroke-opacity:1; 
stroke-linecap:round; stroke-linejoin:round;fill-rule:evenodd;"
d="M 57116,43712
57129,43714
57142,43718
57155,43722
57167,43728
57178,43735
57189,43743
57199,43751
57208,43761
57216,43772
57222,43783
57228,43795
57233,43808
57236,43821
57238,43834
57238,43847
57238,44118
57238,44131
57236,44144
57233,44157
57228,44170
57222,44182
57216,44193
57208,44204
57199,44214
57189,44222
57178,44230
57167,44237
57155,44243
57142,44247
57129,44251
57116,44253
57103,44253
56665,44253
56652,44253
56639,44251
56626,44247
56613,44243
56601,44237
56590,44230
56579,44222
56569,44214
56560,44204
56553,44193
56546,44182
56540,44170
56536,44157
56532,44144
56530,44131
56530,44118
56530,43847
56530,43834
56532,43821
56536,43808
56540,43795
56546,43783
56553,43772
56560,43761
56569,43751
56579,43743
56590,43735
56601,43728
56613,43722
56626,43718
56639,43714
56652,43712
56665,43712
57103,43712
57116,43712
Z" /> 
</g>
<g >
<path style="fill:#000000; fill-opacity:1.0; 
stroke:#000000; stroke-width:0; stroke-opacity:1; 
stroke-linecap:round; stroke-linejoin:round;fill-rule:evenodd;"
d="M 50563,42974
50576,42976
50589,42979
50601,42984
50613,42990
50625,42996
50635,43004
50645,43013
50654,43023
50662,43034
50669,43045
50674,43057
50679,43070
50682,43083
50684,43096
50685,43109
50685,43380
50684,43393
50682,43406
50679,43419
50674,43431
50669,43443
50662,43455
50654,43466
50645,43475
50635,43484
50625,43492
50613,43499
50601,43505
50589,43509
50576,43512
50563,43514
50549,43515
50111,43515
50098,43514
50085,43512
50072,43509
50060,43505
50048,43499
50036,43492
50026,43484
50016,43475
50007,43466
49999,43455
49992,43443
49986,43431
49982,43419
49979,43406
49977,43393
49976,43380
49976,43109
49977,43096
49979,43083
49982,43070
49986,43057
49992,43045
49999,43034
50007,43023
50016,43013
50026,43004
50036,42996
50048,42990
50060,42984
50072,42979
50085,42976
50098,42974
50111,42974
50549,42974
50563,42974
Z" /> 
<path style="fill:#000000; fill-opacity:1.0; 
stroke:#000000; stroke-width:0; stroke-opacity:1; 
stroke-linecap:round; stroke-linejoin:round;fill-rule:evenodd;"
d="M 50563,43712
50576,43714
50589,43718
50601,43722
50613,43728
50625,43735
50635,43743
50645,43751
50654,43761
50662,43772
50669,43783
50674,43795
50679,43808
50682,43821
50684,43834
50685,43847
50685,44118
50684,44131
50682,44144
50679,44157
50674,44170
50669,44182
50662,44193
50654,44204
50645,44214
50635,44222
50625,44230
50613,44237
50601,44243
50589,44247
50576,44251
50563,44253
50549,44253
50111,44253
50098,44253
50085,44251
50072,44247
50060,44243
50048,44237
50036,44230
50026,44222
50016,44214
50007,44204
49999,44193
49992,44182
49986,44170
49982,44157
49979,44144
49977,44131
49976,44118
49976,43847
49977,43834
49979,43821
49982,43808
49986,43795
49992,43783
49999,43772
50007,43761
50016,43751
50026,43743
50036,43735
50048,43728
50060,43722
50072,43718
50085,43714
50098,43712
50111,43712
50549,43712
50563,43712
Z" /> 
</g>
<g >
<path style="fill:#000000; fill-opacity:1.0; 
stroke:#000000; stroke-width:0; stroke-opacity:1; 
stroke-linecap:round; stroke-linejoin:round;fill-rule:evenodd;"
d="M 44009,42974
44022,42976
44035,42979
44048,42984
44060,42990
44071,42996
44082,43004
44091,43013
44100,43023
44108,43034
44115,43045
44121,43057
44125,43070
44129,43083
44130,43096
44131,43109
44131,43380
44130,43393
44129,43406
44125,43419
44121,43431
44115,43443
44108,43455
44100,43466
44091,43475
44082,43484
44071,43492
44060,43499
44048,43505
44035,43509
44022,43512
44009,43514
43996,43515
43558,43515
43545,43514
43531,43512
43518,43509
43506,43505
43494,43499
43483,43492
43472,43484
43462,43475
43453,43466
43445,43455
43438,43443
43433,43431
43428,43419
43425,43406
43423,43393
43422,43380
43422,43109
43423,43096
43425,43083
43428,43070
43433,43057
43438,43045
43445,43034
43453,43023
43462,43013
43472,43004
43483,42996
43494,42990
43506,42984
43518,42979
43531,42976
43545,42974
43558,42974
43996,42974
44009,42974
Z" /> 
<path style="fill:#000000; fill-opacity:1.0; 
stroke:#000000; stroke-width:0; stroke-opacity:1; 
stroke-linecap:round; stroke-linejoin:round;fill-rule:evenodd;"
d="M 44009,43712
44022,43714
44035,43718
44048,43722
44060,43728
44071,43735
44082,43743
44091,43751
44100,43761
44108,43772
44115,43783
44121,43795
44125,43808
44129,43821
44130,43834
44131,43847
44131,44118
44130,44131
44129,44144
44125,44157
44121,44170
44115,44182
44108,44193
44100,44204
44091,44214
44082,44222
44071,44230
44060,44237
44048,44243
44035,44247
44022,44251
44009,44253
43996,44253
43558,44253
43545,44253
43531,44251
43518,44247
43506,44243
43494,44237
43483,44230
43472,44222
43462,44214
43453,44204
43445,44193
43438,44182
43433,44170
43428,44157
43425,44144
43423,44131
43422,44118
43422,43847
43423,43834
43425,43821
43428,43808
43433,43795
43438,43783
43445,43772
43453,43761
43462,43751
43472,43743
43483,43735
43494,43728
43506,43722
43518,43718
43531,43714
43545,43712
43558,43712
43996,43712
44009,43712
Z" /> 
</g>
<g >
<path style="fill:#000000; fill-opacity:1.0; 
stroke:#000000; stroke-width:0; stroke-opacity:1; 
stroke-linecap:round; stroke-linejoin:round;fill-rule:evenodd;"
d="M 37455,42974
37469,42976
37481,42979
37494,42984
37506,42990
37517,42996
37528,43004
37538,43013
37547,43023
37555,43034
37561,43045
37567,43057
37572,43070
37575,43083
37577,43096
37577,43109
37577,43380
37577,43393
37575,43406
37572,43419
37567,43431
37561,43443
37555,43455
37547,43466
37538,43475
37528,43484
37517,43492
37506,43499
37494,43505
37481,43509
37469,43512
37455,43514
37442,43515
37004,43515
36991,43514
36978,43512
36965,43509
36952,43505
36940,43499
36929,43492
36918,43484
36908,43475
36900,43466
36892,43455
36885,43443
36879,43431
36875,43419
36871,43406
36869,43393
36869,43380
36869,43109
36869,43096
36871,43083
36875,43070
36879,43057
36885,43045
36892,43034
36900,43023
36908,43013
36918,43004
36929,42996
36940,42990
36952,42984
36965,42979
36978,42976
36991,42974
37004,42974
37442,42974
37455,42974
Z" /> 
<path style="fill:#000000; fill-opacity:1.0; 
stroke:#000000; stroke-width:0; stroke-opacity:1; 
stroke-linecap:round; stroke-linejoin:round;fill-rule:evenodd;"
d="M 37455,43712
37469,43714
37481,43718
37494,43722
37506,43728
37517,43735
37528,43743
37538,43751
37547,43761
37555,43772
37561,43783
37567,43795
37572,43808
37575,43821
37577,43834
37577,43847
37577,44118
37577,44131
37575,44144
37572,44157
37567,44170
37561,44182
37555,44193
37547,44204
37538,44214
37528,44222
37517,44230
37506,44237
37494,44243
37481,44247
37469,44251
37455,44253
37442,44253
37004,44253
36991,44253
36978,44251
36965,44247
36952,44243
36940,44237
36929,44230
36918,44222
36908,44214
36900,44204
36892,44193
36885,44182
36879,44170
36875,44157
36871,44144
36869,44131
36869,44118
36869,43847
36869,43834
36871,43821
36875,43808
36879,43795
36885,43783
36892,43772
36900,43761
36908,43751
36918,43743
36929,43735
36940,43728
36952,43722
36965,43718
36978,43714
36991,43712
37004,43712
37442,43712
37455,43712
Z" /> 
</g>
<g >
<path style="fill:#000000; fill-opacity:1.0; 
stroke:#000000; stroke-width:0; stroke-opacity:1; 
stroke-linecap:round; stroke-linejoin:round;fill-rule:evenodd;"
d="M 27914,41299
27927,41301
27940,41305
27952,41309
27964,41315
27976,41322
27986,41329
27996,41338
28005,41348
28013,41359
28020,41370
28026,41382
28030,41395
28033,41408
28035,41421
28036,41434
28036,41872
28035,41885
28033,41898
28030,41911
28026,41924
28020,41936
28013,41947
28005,41958
27996,41968
27986,41977
27976,41985
27964,41991
27952,41997
27940,42002
27927,42005
27914,42007
27901,42007
27630,42007
27617,42007
27604,42005
27591,42002
27578,41997
27566,41991
27555,41985
27544,41977
27534,41968
27525,41958
27517,41947
27511,41936
27505,41924
27500,41911
27497,41898
27495,41885
27495,41872
27495,41434
27495,41421
27497,41408
27500,41395
27505,41382
27511,41370
27517,41359
27525,41348
27534,41338
27544,41329
27555,41322
27566,41315
27578,41309
27591,41305
27604,41301
27617,41299
27630,41299
27901,41299
27914,41299
Z" /> 
<path style="fill:#000000; fill-opacity:1.0; 
stroke:#000000; stroke-width:0; stroke-opacity:1; 
stroke-linecap:round; stroke-linejoin:round;fill-rule:evenodd;"
d="M 28652,41299
28665,41301
28678,41305
28691,41309
28703,41315
28714,41322
28725,41329
28734,41338
28743,41348
28751,41359
28758,41370
28764,41382
28768,41395
28772,41408
28773,41421
28774,41434
28774,41872
28773,41885
28772,41898
28768,41911
28764,41924
28758,41936
28751,41947
28743,41958
28734,41968
28725,41977
28714,41985
28703,41991
28691,41997
28678,42002
28665,42005
28652,42007
28639,42007
28368,42007
28355,42007
28342,42005
28329,42002
28316,41997
28304,41991
28293,41985
28282,41977
28272,41968
28263,41958
28256,41947
28249,41936
28243,41924
28239,41911
28235,41898
28233,41885
28233,41872
28233,41434
28233,41421
28235,41408
28239,41395
28243,41382
28249,41370
28256,41359
28263,41348
28272,41338
28282,41329
28293,41322
28304,41315
28316,41309
28329,41305
28342,41301
28355,41299
28368,41299
28639,41299
28652,41299
Z" /> 
</g>
<g >
</g>
<g >
</g>
<g >
</g>
</g> 
</svg>
