<?xml version="1.0" standalone="no"?>
 <!DOCTYPE svg PUBLIC "-//W3C//DTD SVG 1.1//EN" 
 "http://www.w3.org/Graphics/SVG/1.1/DTD/svg11.dtd"> 
<svg xmlns="http://www.w3.org/2000/svg" version="1.1" 
    width="41.9989cm" height="29.7002cm" viewBox="0 0 165350 116930 ">
<title>SVG Picture created as DInside-In2_Cu.svg date 2019/04/12 10:46:18 </title>
  <desc>Picture generated by PCBNEW </desc>
<g style="fill:#000000; fill-opacity:1;stroke:#000000; stroke-opacity:1;
stroke-linecap:round; stroke-linejoin:round; "
 transform="translate(0 0) scale(1 1)">
</g>
<g style="fill:#000000; fill-opacity:0.0; 
stroke:#000000; stroke-width:-0.000393701; stroke-opacity:1; 
stroke-linecap:round; stroke-linejoin:round;">
<g >
</g>
<g >
</g>
<g style="fill:#000000; fill-opacity:0.0; 
stroke:#000000; stroke-width:800; stroke-opacity:1; 
stroke-linecap:round; stroke-linejoin:round;">
<path d="M25095 45430
L25595 45430
" />
<path d="M25095 41230
L25595 41230
" />
<path d="M24395 44330
L24895 44330
" />
<path d="M24395 43330
L24895 43330
" />
<path d="M24395 42330
L24895 42330
" />
</g>
<g >
<path d="M128332 44448
L128832 44448
" />
<path d="M128332 43448
L128832 43448
" />
<path d="M128332 42448
L128832 42448
" />
</g>
<g >
</g>
<g >
</g>
<g >
</g>
<g >
</g>
<g >
</g>
<g >
</g>
<g >
</g>
<g >
</g>
<g >
</g>
<g >
</g>
<g >
</g>
<g >
</g>
<g >
</g>
<g >
</g>
<g >
</g>
<g >
</g>
<g >
</g>
<g >
</g>
<g >
</g>
<g >
</g>
<g >
</g>
<g >
</g>
<g >
</g>
<g >
</g>
<g >
</g>
<g >
</g>
<g >
</g>
<g >
</g>
<g >
</g>
<g >
</g>
<g >
</g>
<g >
</g>
<g >
</g>
<g >
</g>
<g >
</g>
<g >
</g>
<g >
</g>
<g >
</g>
<g >
</g>
<g >
</g>
<g >
</g>
<g >
</g>
<g >
</g>
<g >
</g>
<g >
</g>
<g >
</g>
<g >
</g>
<g >
</g>
<g style="fill:#000000; fill-opacity:1.0; 
stroke:#000000; stroke-width:0; stroke-opacity:1; 
stroke-linecap:round; stroke-linejoin:round;">
<circle cx="40820" cy="43458" r="196.85" /> 
</g>
<g style="fill:#000000; fill-opacity:1.0; 
stroke:#000000; stroke-width:19.685; stroke-opacity:1; 
stroke-linecap:round; stroke-linejoin:round;">
</g>
<g style="fill:#000000; fill-opacity:1.0; 
stroke:#000000; stroke-width:0; stroke-opacity:1; 
stroke-linecap:round; stroke-linejoin:round;">
<circle cx="53820" cy="43458" r="196.85" /> 
</g>
<g style="fill:#000000; fill-opacity:1.0; 
stroke:#000000; stroke-width:19.685; stroke-opacity:1; 
stroke-linecap:round; stroke-linejoin:round;">
</g>
<g style="fill:#000000; fill-opacity:1.0; 
stroke:#000000; stroke-width:0; stroke-opacity:1; 
stroke-linecap:round; stroke-linejoin:round;">
<circle cx="47320" cy="43458" r="196.85" /> 
</g>
<g style="fill:#000000; fill-opacity:1.0; 
stroke:#000000; stroke-width:19.685; stroke-opacity:1; 
stroke-linecap:round; stroke-linejoin:round;">
</g>
<g style="fill:#000000; fill-opacity:1.0; 
stroke:#000000; stroke-width:0; stroke-opacity:1; 
stroke-linecap:round; stroke-linejoin:round;">
<circle cx="60520" cy="43458" r="196.85" /> 
</g>
<g style="fill:#000000; fill-opacity:1.0; 
stroke:#000000; stroke-width:19.685; stroke-opacity:1; 
stroke-linecap:round; stroke-linejoin:round;">
</g>
<g style="fill:#000000; fill-opacity:1.0; 
stroke:#000000; stroke-width:0; stroke-opacity:1; 
stroke-linecap:round; stroke-linejoin:round;">
<circle cx="67020" cy="43458" r="196.85" /> 
</g>
<g style="fill:#000000; fill-opacity:1.0; 
stroke:#000000; stroke-width:19.685; stroke-opacity:1; 
stroke-linecap:round; stroke-linejoin:round;">
</g>
<g style="fill:#000000; fill-opacity:1.0; 
stroke:#000000; stroke-width:0; stroke-opacity:1; 
stroke-linecap:round; stroke-linejoin:round;">
<circle cx="73520" cy="43458" r="196.85" /> 
</g>
<g style="fill:#000000; fill-opacity:1.0; 
stroke:#000000; stroke-width:19.685; stroke-opacity:1; 
stroke-linecap:round; stroke-linejoin:round;">
</g>
<g style="fill:#000000; fill-opacity:1.0; 
stroke:#000000; stroke-width:0; stroke-opacity:1; 
stroke-linecap:round; stroke-linejoin:round;">
<circle cx="93220" cy="43458" r="196.85" /> 
</g>
<g style="fill:#000000; fill-opacity:1.0; 
stroke:#000000; stroke-width:19.685; stroke-opacity:1; 
stroke-linecap:round; stroke-linejoin:round;">
</g>
<g style="fill:#000000; fill-opacity:1.0; 
stroke:#000000; stroke-width:0; stroke-opacity:1; 
stroke-linecap:round; stroke-linejoin:round;">
<circle cx="86720" cy="43458" r="196.85" /> 
</g>
<g style="fill:#000000; fill-opacity:1.0; 
stroke:#000000; stroke-width:19.685; stroke-opacity:1; 
stroke-linecap:round; stroke-linejoin:round;">
</g>
<g style="fill:#000000; fill-opacity:1.0; 
stroke:#000000; stroke-width:0; stroke-opacity:1; 
stroke-linecap:round; stroke-linejoin:round;">
<circle cx="99820" cy="43433" r="196.85" /> 
</g>
<g style="fill:#000000; fill-opacity:1.0; 
stroke:#000000; stroke-width:19.685; stroke-opacity:1; 
stroke-linecap:round; stroke-linejoin:round;">
</g>
<g style="fill:#000000; fill-opacity:1.0; 
stroke:#000000; stroke-width:0; stroke-opacity:1; 
stroke-linecap:round; stroke-linejoin:round;">
<circle cx="113000" cy="43493" r="196.85" /> 
</g>
<g style="fill:#000000; fill-opacity:1.0; 
stroke:#000000; stroke-width:19.685; stroke-opacity:1; 
stroke-linecap:round; stroke-linejoin:round;">
</g>
<g style="fill:#000000; fill-opacity:1.0; 
stroke:#000000; stroke-width:0; stroke-opacity:1; 
stroke-linecap:round; stroke-linejoin:round;">
<circle cx="106400" cy="43293" r="196.85" /> 
</g>
<g style="fill:#000000; fill-opacity:1.0; 
stroke:#000000; stroke-width:19.685; stroke-opacity:1; 
stroke-linecap:round; stroke-linejoin:round;">
</g>
<g style="fill:#000000; fill-opacity:1.0; 
stroke:#000000; stroke-width:0; stroke-opacity:1; 
stroke-linecap:round; stroke-linejoin:round;">
<circle cx="34320" cy="43458" r="196.85" /> 
</g>
<g style="fill:#000000; fill-opacity:1.0; 
stroke:#000000; stroke-width:19.685; stroke-opacity:1; 
stroke-linecap:round; stroke-linejoin:round;">
</g>
<g style="fill:#000000; fill-opacity:1.0; 
stroke:#000000; stroke-width:0; stroke-opacity:1; 
stroke-linecap:round; stroke-linejoin:round;">
<circle cx="126501" cy="40960" r="196.85" /> 
</g>
<g style="fill:#000000; fill-opacity:1.0; 
stroke:#000000; stroke-width:19.685; stroke-opacity:1; 
stroke-linecap:round; stroke-linejoin:round;">
</g>
<g style="fill:#000000; fill-opacity:1.0; 
stroke:#000000; stroke-width:0; stroke-opacity:1; 
stroke-linecap:round; stroke-linejoin:round;">
<circle cx="80801" cy="40960" r="196.85" /> 
</g>
<g style="fill:#000000; fill-opacity:1.0; 
stroke:#000000; stroke-width:19.685; stroke-opacity:1; 
stroke-linecap:round; stroke-linejoin:round;">
</g>
<g style="fill:#000000; fill-opacity:1.0; 
stroke:#000000; stroke-width:0; stroke-opacity:1; 
stroke-linecap:round; stroke-linejoin:round;">
<circle cx="81601" cy="43460" r="196.85" /> 
</g>
<g style="fill:#000000; fill-opacity:1.0; 
stroke:#000000; stroke-width:19.685; stroke-opacity:1; 
stroke-linecap:round; stroke-linejoin:round;">
</g>
<g style="fill:#000000; fill-opacity:1.0; 
stroke:#000000; stroke-width:0; stroke-opacity:1; 
stroke-linecap:round; stroke-linejoin:round;">
<circle cx="120901" cy="43260" r="196.85" /> 
</g>
<g style="fill:#000000; fill-opacity:1.0; 
stroke:#000000; stroke-width:19.685; stroke-opacity:1; 
stroke-linecap:round; stroke-linejoin:round;">
</g>
<g style="fill:#000000; fill-opacity:1.0; 
stroke:#000000; stroke-width:0; stroke-opacity:1; 
stroke-linecap:round; stroke-linejoin:round;">
<circle cx="120401" cy="41060" r="196.85" /> 
</g>
<g style="fill:#000000; fill-opacity:1.0; 
stroke:#000000; stroke-width:19.685; stroke-opacity:1; 
stroke-linecap:round; stroke-linejoin:round;">
</g>
<g style="fill:#000000; fill-opacity:1.0; 
stroke:#000000; stroke-width:0; stroke-opacity:1; 
stroke-linecap:round; stroke-linejoin:round;">
<circle cx="29488.2" cy="45433.1" r="196.85" /> 
</g>
<g style="fill:#000000; fill-opacity:1.0; 
stroke:#000000; stroke-width:19.685; stroke-opacity:1; 
stroke-linecap:round; stroke-linejoin:round;">
</g>
<g style="fill:#000000; fill-opacity:1.0; 
stroke:#000000; stroke-width:0; stroke-opacity:1; 
stroke-linecap:round; stroke-linejoin:round;">
<circle cx="29488.2" cy="43425.2" r="196.85" /> 
</g>
<g style="fill:#000000; fill-opacity:1.0; 
stroke:#000000; stroke-width:19.685; stroke-opacity:1; 
stroke-linecap:round; stroke-linejoin:round;">
</g>
<g style="fill:#000000; fill-opacity:1.0; 
stroke:#000000; stroke-width:0; stroke-opacity:1; 
stroke-linecap:round; stroke-linejoin:round;">
<circle cx="45150" cy="43463" r="196.85" /> 
</g>
<g style="fill:#000000; fill-opacity:1.0; 
stroke:#000000; stroke-width:19.685; stroke-opacity:1; 
stroke-linecap:round; stroke-linejoin:round;">
</g>
<g style="fill:#000000; fill-opacity:1.0; 
stroke:#000000; stroke-width:0; stroke-opacity:1; 
stroke-linecap:round; stroke-linejoin:round;">
<circle cx="51740" cy="43473" r="196.85" /> 
</g>
<g style="fill:#000000; fill-opacity:1.0; 
stroke:#000000; stroke-width:19.685; stroke-opacity:1; 
stroke-linecap:round; stroke-linejoin:round;">
</g>
<g style="fill:#000000; fill-opacity:1.0; 
stroke:#000000; stroke-width:0; stroke-opacity:1; 
stroke-linecap:round; stroke-linejoin:round;">
<circle cx="58260" cy="43473" r="196.85" /> 
</g>
<g style="fill:#000000; fill-opacity:1.0; 
stroke:#000000; stroke-width:19.685; stroke-opacity:1; 
stroke-linecap:round; stroke-linejoin:round;">
</g>
<g style="fill:#000000; fill-opacity:1.0; 
stroke:#000000; stroke-width:0; stroke-opacity:1; 
stroke-linecap:round; stroke-linejoin:round;">
<circle cx="64830" cy="43463" r="196.85" /> 
</g>
<g style="fill:#000000; fill-opacity:1.0; 
stroke:#000000; stroke-width:19.685; stroke-opacity:1; 
stroke-linecap:round; stroke-linejoin:round;">
</g>
<g style="fill:#000000; fill-opacity:1.0; 
stroke:#000000; stroke-width:0; stroke-opacity:1; 
stroke-linecap:round; stroke-linejoin:round;">
<circle cx="71400" cy="43463" r="196.85" /> 
</g>
<g style="fill:#000000; fill-opacity:1.0; 
stroke:#000000; stroke-width:19.685; stroke-opacity:1; 
stroke-linecap:round; stroke-linejoin:round;">
</g>
<g style="fill:#000000; fill-opacity:1.0; 
stroke:#000000; stroke-width:0; stroke-opacity:1; 
stroke-linecap:round; stroke-linejoin:round;">
<circle cx="77920" cy="43453" r="196.85" /> 
</g>
<g style="fill:#000000; fill-opacity:1.0; 
stroke:#000000; stroke-width:19.685; stroke-opacity:1; 
stroke-linecap:round; stroke-linejoin:round;">
</g>
<g style="fill:#000000; fill-opacity:1.0; 
stroke:#000000; stroke-width:0; stroke-opacity:1; 
stroke-linecap:round; stroke-linejoin:round;">
<circle cx="91040" cy="43473" r="196.85" /> 
</g>
<g style="fill:#000000; fill-opacity:1.0; 
stroke:#000000; stroke-width:19.685; stroke-opacity:1; 
stroke-linecap:round; stroke-linejoin:round;">
</g>
<g style="fill:#000000; fill-opacity:1.0; 
stroke:#000000; stroke-width:0; stroke-opacity:1; 
stroke-linecap:round; stroke-linejoin:round;">
<circle cx="97610" cy="43463" r="196.85" /> 
</g>
<g style="fill:#000000; fill-opacity:1.0; 
stroke:#000000; stroke-width:19.685; stroke-opacity:1; 
stroke-linecap:round; stroke-linejoin:round;">
</g>
<g style="fill:#000000; fill-opacity:1.0; 
stroke:#000000; stroke-width:0; stroke-opacity:1; 
stroke-linecap:round; stroke-linejoin:round;">
<circle cx="103600" cy="43303" r="196.85" /> 
</g>
<g style="fill:#000000; fill-opacity:1.0; 
stroke:#000000; stroke-width:19.685; stroke-opacity:1; 
stroke-linecap:round; stroke-linejoin:round;">
</g>
<g style="fill:#000000; fill-opacity:1.0; 
stroke:#000000; stroke-width:0; stroke-opacity:1; 
stroke-linecap:round; stroke-linejoin:round;">
<circle cx="110700" cy="43393" r="196.85" /> 
</g>
<g style="fill:#000000; fill-opacity:1.0; 
stroke:#000000; stroke-width:19.685; stroke-opacity:1; 
stroke-linecap:round; stroke-linejoin:round;">
</g>
<g style="fill:#000000; fill-opacity:1.0; 
stroke:#000000; stroke-width:0; stroke-opacity:1; 
stroke-linecap:round; stroke-linejoin:round;">
<circle cx="117300" cy="43293" r="196.85" /> 
</g>
<g style="fill:#000000; fill-opacity:1.0; 
stroke:#000000; stroke-width:19.685; stroke-opacity:1; 
stroke-linecap:round; stroke-linejoin:round;">
</g>
<g style="fill:#000000; fill-opacity:1.0; 
stroke:#000000; stroke-width:0; stroke-opacity:1; 
stroke-linecap:round; stroke-linejoin:round;">
<circle cx="38600" cy="43453" r="196.85" /> 
</g>
<g style="fill:#000000; fill-opacity:1.0; 
stroke:#000000; stroke-width:19.685; stroke-opacity:1; 
stroke-linecap:round; stroke-linejoin:round;">
</g>
<g style="fill:#000000; fill-opacity:1.0; 
stroke:#000000; stroke-width:0; stroke-opacity:1; 
stroke-linecap:round; stroke-linejoin:round;">
<circle cx="32200" cy="43493" r="196.85" /> 
</g>
<g style="fill:#000000; fill-opacity:1.0; 
stroke:#000000; stroke-width:19.685; stroke-opacity:1; 
stroke-linecap:round; stroke-linejoin:round;">
</g>
<g style="fill:#000000; fill-opacity:1.0; 
stroke:#000000; stroke-width:0; stroke-opacity:1; 
stroke-linecap:round; stroke-linejoin:round;">
<circle cx="123992" cy="41027" r="196.85" /> 
</g>
<g style="fill:#000000; fill-opacity:1.0; 
stroke:#000000; stroke-width:19.685; stroke-opacity:1; 
stroke-linecap:round; stroke-linejoin:round;">
</g>
<g style="fill:#000000; fill-opacity:1.0; 
stroke:#000000; stroke-width:0; stroke-opacity:1; 
stroke-linecap:round; stroke-linejoin:round;">
<circle cx="78601" cy="41060" r="196.85" /> 
</g>
<g style="fill:#000000; fill-opacity:1.0; 
stroke:#000000; stroke-width:19.685; stroke-opacity:1; 
stroke-linecap:round; stroke-linejoin:round;">
</g>
<g style="fill:#000000; fill-opacity:1.0; 
stroke:#000000; stroke-width:0; stroke-opacity:1; 
stroke-linecap:round; stroke-linejoin:round;">
<circle cx="84801" cy="43460" r="196.85" /> 
</g>
<g style="fill:#000000; fill-opacity:1.0; 
stroke:#000000; stroke-width:19.685; stroke-opacity:1; 
stroke-linecap:round; stroke-linejoin:round;">
</g>
<g style="fill:#000000; fill-opacity:1.0; 
stroke:#000000; stroke-width:0; stroke-opacity:1; 
stroke-linecap:round; stroke-linejoin:round;">
<circle cx="118201" cy="41060" r="196.85" /> 
</g>
<g style="fill:#000000; fill-opacity:1.0; 
stroke:#000000; stroke-width:19.685; stroke-opacity:1; 
stroke-linecap:round; stroke-linejoin:round;">
</g>
<g style="fill:#000000; fill-opacity:1.0; 
stroke:#000000; stroke-width:0; stroke-opacity:1; 
stroke-linecap:round; stroke-linejoin:round;">
<circle cx="124201" cy="43460" r="196.85" /> 
</g>
<g style="fill:#000000; fill-opacity:1.0; 
stroke:#000000; stroke-width:19.685; stroke-opacity:1; 
stroke-linecap:round; stroke-linejoin:round;">
</g>
<g style="fill:#000000; fill-opacity:1.0; 
stroke:#000000; stroke-width:0; stroke-opacity:1; 
stroke-linecap:round; stroke-linejoin:round;">
<circle cx="27755.9" cy="40905.5" r="196.85" /> 
</g>
<g style="fill:#000000; fill-opacity:1.0; 
stroke:#000000; stroke-width:19.685; stroke-opacity:1; 
stroke-linecap:round; stroke-linejoin:round;">
</g>
<g >
</g>
<g >
</g>
<g style="fill:#000000; fill-opacity:1.0; 
stroke:#000000; stroke-width:100; stroke-opacity:1; 
stroke-linecap:round; stroke-linejoin:round;">
<path style="fill:#000000; fill-opacity:1.0; 
stroke:#000000; stroke-width:100; stroke-opacity:1; 
stroke-linecap:round; stroke-linejoin:round;fill-rule:evenodd;"
d="M 22983,39539
23154,39626
23289,39761
23316,39814
23317,39817
23328,39838
23333,39847
23334,39850
23342,39864
23349,39872
23354,39881
23365,39892
23376,39905
23384,39912
23391,39919
23404,39928
23417,39938
23426,39943
23435,39950
23449,39956
23463,39964
23474,39967
23483,39971
23499,39974
23514,39979
23525,39980
23535,39982
23551,39983
23554,39983
23565,39983
23588,39983
23591,39983
129641,39983
129644,39983
129667,39983
129678,39983
129681,39983
129697,39982
129707,39980
129717,39979
129733,39974
129749,39971
129758,39967
129768,39964
129782,39956
129797,39949
129806,39943
129815,39938
129827,39928
129841,39919
129848,39911
129856,39905
129866,39892
129877,39880
129883,39872
129890,39864
129897,39849
129899,39847
129904,39838
129915,39817
129916,39814
129943,39761
130078,39626
130248,39539
130459,39506
132953,39506
133164,39539
133334,39626
133470,39761
133497,39814
133497,39817
133509,39838
133514,39848
133515,39850
133522,39864
133529,39872
133535,39881
133546,39893
133556,39905
133565,39912
133572,39919
133585,39928
133597,39938
133607,39944
133616,39950
133630,39956
133644,39964
133654,39967
133664,39971
133680,39974
133695,39979
133706,39980
133716,39982
133732,39983
133735,39983
133745,39983
133769,39983
133772,39983
133850,39983
134030,40011
134174,40084
134288,40198
134361,40342
134389,40522
134389,46385
134361,46565
134288,46708
134174,46822
134030,46895
133850,46924
133772,46924
133769,46923
133745,46924
133735,46924
133732,46924
133716,46924
133706,46927
133695,46928
133680,46932
133664,46936
133654,46940
133644,46943
133630,46951
133616,46957
133607,46963
133597,46968
133585,46978
133572,46987
133565,46995
133556,47002
133546,47014
133535,47026
133529,47035
133522,47043
133515,47057
133514,47059
133509,47069
133497,47090
133497,47092
133470,47145
133334,47281
133164,47368
132953,47401
130459,47401
130248,47368
130078,47281
129943,47146
129916,47093
129915,47090
129904,47069
129899,47060
129897,47057
129890,47043
129883,47035
129877,47026
129866,47014
129856,47002
129848,46995
129841,46988
129827,46978
129815,46968
129806,46963
129797,46957
129782,46951
129768,46943
129758,46940
129749,46936
129733,46932
129717,46928
129707,46927
129697,46924
129681,46924
129678,46924
129667,46924
129644,46923
129641,46924
23591,46924
23588,46923
23565,46924
23554,46924
23551,46924
23535,46924
23525,46927
23514,46928
23499,46932
23483,46936
23474,46940
23463,46943
23449,46951
23435,46957
23426,46963
23417,46968
23404,46978
23391,46987
23384,46995
23376,47002
23365,47014
23354,47026
23349,47035
23342,47043
23334,47057
23333,47059
23328,47069
23317,47090
23316,47092
23289,47146
23154,47281
22983,47368
22773,47401
20278,47401
20068,47368
19897,47281
19762,47146
19735,47092
19734,47090
19723,47069
19718,47059
19716,47057
19709,47043
19702,47035
19696,47026
19685,47014
19675,47002
19667,46995
19660,46987
19646,46978
19634,46968
19625,46963
19616,46957
19601,46951
19587,46943
19577,46940
19567,46936
19552,46932
19536,46928
19526,46927
19516,46924
19499,46924
19497,46924
19486,46924
19462,46923
19460,46924
19381,46924
19201,46895
19058,46822
18944,46709
18871,46565
18842,46385
18842,46100
19779,46100
19780,46111
19779,46121
19781,46137
19781,46140
19783,46150
19786,46174
19787,46177
19823,46403
19823,46406
19827,46429
19829,46440
19830,46442
19832,46458
19836,46468
19839,46478
19846,46493
19847,46495
19852,46505
19862,46526
19864,46528
19968,46732
19968,46734
19980,46756
19985,46765
19986,46767
19993,46781
20000,46790
20006,46799
20017,46810
20019,46812
20026,46820
20043,46837
20045,46838
20207,47001
20209,47003
20226,47019
20233,47027
20235,47029
20247,47040
20256,47045
20264,47052
20278,47060
20280,47061
20290,47066
20311,47077
20313,47078
20518,47182
20520,47184
20541,47194
20551,47199
20553,47200
20568,47207
20578,47209
20588,47213
20604,47216
20606,47217
20617,47218
20640,47223
20643,47223
20874,47259
20882,47262
20900,47263
20906,47264
20914,47265
20922,47266
20927,47266
20945,47267
20953,47266
22097,47266
22105,47267
22124,47266
22129,47266
22137,47265
22145,47264
22150,47263
22169,47262
22176,47259
22408,47223
22411,47223
22434,47218
22445,47217
22447,47216
22463,47213
22473,47209
22483,47207
22497,47200
22500,47199
22509,47194
22531,47184
22533,47182
22737,47078
22740,47077
22761,47066
22770,47061
22773,47060
22787,47052
22795,47045
22804,47040
22815,47029
22818,47027
22825,47019
22842,47003
22844,47001
23006,46838
23008,46837
23024,46820
23032,46812
23034,46810
23045,46799
23050,46790
23057,46781
23065,46767
23066,46765
23071,46756
23082,46734
23083,46732
23187,46528
23189,46526
23199,46505
23204,46495
23205,46493
23212,46478
23215,46468
23218,46458
23221,46442
23222,46440
23224,46429
23228,46406
23228,46403
23264,46177
23264,46174
23268,46150
23269,46140
23270,46137
23272,46121
23271,46111
23272,46100
129960,46100
129960,46111
129960,46121
129962,46137
129962,46140
129964,46150
129967,46174
129968,46177
130004,46403
130004,46406
130008,46429
130010,46440
130010,46442
130013,46458
130017,46468
130020,46478
130027,46493
130027,46495
130032,46504
130043,46526
130044,46528
130148,46732
130149,46735
130160,46756
130165,46765
130167,46767
130174,46781
130181,46790
130187,46799
130198,46810
130199,46812
130207,46820
130223,46837
130226,46838
130388,47001
130389,47003
130407,47019
130414,47027
130416,47029
130428,47040
130437,47045
130445,47052
130459,47060
130461,47061
130471,47066
130492,47077
130494,47078
130698,47182
130700,47184
130722,47194
130731,47199
130734,47200
130748,47207
130758,47209
130768,47213
130784,47216
130787,47217
130797,47218
130821,47223
130823,47223
131055,47259
131063,47262
131081,47263
131086,47264
131094,47265
131102,47266
131108,47266
131126,47267
131134,47266
132278,47266
132286,47267
132305,47266
132310,47266
132318,47265
132326,47264
132331,47263
132350,47262
132357,47259
132588,47223
132591,47223
132615,47218
132625,47217
132628,47216
132643,47213
132653,47209
132664,47207
132678,47200
132680,47199
132690,47194
132711,47184
132714,47182
132918,47078
132921,47077
132942,47066
132951,47061
132953,47060
132967,47052
132976,47045
132984,47040
132996,47029
132998,47027
133006,47019
133023,47003
133024,47001
133186,46839
133188,46837
133205,46820
133213,46812
133214,46810
133225,46799
133231,46790
133238,46781
133245,46767
133246,46765
133251,46756
133263,46734
133264,46732
133368,46528
133369,46526
133380,46505
133385,46495
133386,46493
133393,46478
133395,46468
133399,46458
133402,46442
133403,46440
133404,46429
133408,46406
133408,46403
133444,46177
133445,46174
133448,46150
133450,46140
133450,46137
133452,46121
133452,46111
133452,46100
133450,46084
133450,46082
133448,46071
133445,46047
133444,46045
133408,45818
133408,45816
133404,45792
133403,45782
133402,45779
133399,45763
133395,45754
133393,45743
133386,45729
133385,45726
133380,45717
133369,45696
133368,45693
133264,45490
133263,45487
133251,45466
133246,45456
133245,45454
133238,45440
133231,45432
133225,45423
133214,45411
133213,45410
133205,45402
133188,45384
133186,45383
133024,45221
133023,45219
133006,45202
132998,45195
132996,45193
132984,45182
132976,45176
132967,45169
132953,45162
132951,45160
132942,45156
132921,45144
132918,45144
132714,45040
132711,45038
132690,45028
132680,45023
132678,45022
132664,45015
132653,45012
132643,45008
132628,45005
132625,45005
132615,45003
132591,44999
132588,44999
132363,44963
133873,44963
133886,44964
133939,44959
133990,44944
134037,44919
134078,44885
134111,44844
134136,44797
134152,44746
134156,44707
134156,44707
134157,44693
134156,44680
134156,43919
134157,43906
134152,43853
134136,43802
134111,43756
134078,43714
134037,43681
133990,43656
133939,43640
133899,43636
133886,43635
133873,43636
132325,43636
132311,43635
132298,43636
132258,43640
132208,43656
132161,43681
132120,43714
132086,43756
132061,43802
132046,43853
132040,43906
132042,43919
132042,44680
132040,44693
132046,44746
132061,44797
132086,44844
132120,44885
132150,44910
132161,44919
132208,44944
132248,44956
131134,44956
131126,44955
131108,44956
131102,44956
131094,44957
131086,44957
131081,44958
131063,44960
131055,44962
130823,44999
130821,44999
130797,45003
130787,45005
130784,45005
130768,45008
130758,45012
130748,45015
130734,45022
130731,45023
130722,45028
130700,45038
130698,45040
130494,45144
130492,45144
130471,45156
130461,45160
130459,45162
130445,45169
130437,45176
130428,45182
130416,45193
130414,45195
130407,45202
130389,45219
130388,45221
130226,45383
130223,45385
130207,45402
130199,45409
130198,45411
130187,45423
130181,45432
130174,45440
130167,45454
130165,45456
130160,45466
130149,45487
130148,45490
130044,45693
130043,45696
130032,45717
130027,45727
130027,45729
130020,45743
130017,45754
130013,45764
130010,45779
130010,45782
130008,45792
130004,45816
130004,45819
129968,46045
129967,46048
129964,46071
129962,46082
129962,46084
129960,46100
23272,46100
23272,46100
23270,46084
23269,46082
23268,46071
23264,46047
23264,46045
23228,45819
23228,45816
23224,45792
23222,45782
23221,45779
23218,45763
23215,45754
23212,45743
23205,45729
23204,45726
23199,45717
23189,45696
23187,45693
23083,45490
23082,45487
23071,45466
23066,45456
23065,45454
23057,45440
23050,45432
23045,45423
23034,45411
23032,45410
23024,45402
23008,45385
23006,45383
22844,45221
22842,45219
22825,45202
22818,45195
22815,45193
22804,45182
22795,45176
22787,45169
22773,45162
22770,45160
22761,45156
22740,45144
22737,45144
22533,45040
22531,45038
22509,45028
22500,45023
22497,45022
22483,45015
22473,45012
22463,45008
22447,45005
22445,45005
22434,45003
22411,44999
22408,44999
22176,44962
22169,44960
22150,44958
22145,44957
22137,44957
22129,44956
22124,44956
22105,44955
22097,44956
20953,44956
20945,44955
20927,44956
20922,44956
20914,44957
20906,44957
20900,44958
20882,44960
20874,44962
20643,44999
20640,44999
20617,45003
20606,45005
20604,45005
20588,45008
20578,45012
20568,45015
20553,45022
20551,45023
20541,45028
20520,45038
20518,45040
20313,45144
20311,45144
20290,45156
20280,45160
20278,45162
20264,45169
20256,45176
20247,45182
20235,45193
20233,45195
20226,45202
20209,45219
20207,45221
20045,45383
20043,45385
20026,45402
20019,45410
20017,45411
20006,45423
20000,45432
19993,45440
19986,45454
19985,45456
19980,45466
19968,45487
19968,45490
19864,45693
19862,45696
19852,45717
19847,45726
19846,45729
19839,45743
19836,45754
19832,45763
19830,45779
19829,45782
19827,45792
19823,45816
19823,45819
19787,46045
19786,46047
19783,46071
19781,46082
19781,46084
19779,46100
18842,46100
18842,43886
19036,43886
19038,43900
19038,44661
19036,44674
19041,44727
19057,44777
19082,44824
19116,44865
19157,44899
19203,44924
19254,44940
19307,44945
19320,44943
20869,44943
20882,44945
20935,44940
20986,44924
21033,44899
21074,44865
21107,44824
21132,44777
21148,44727
21152,44687
21152,44687
21153,44674
21152,44661
21152,43900
21153,43886
21148,43834
21132,43783
21107,43736
21074,43695
21033,43661
20986,43636
20935,43621
20895,43617
20882,43615
20869,43617
19320,43617
19307,43615
19294,43617
19254,43621
19203,43636
19157,43661
19116,43695
19082,43736
19057,43783
19041,43834
19036,43886
18842,43886
18842,43330
23742,43330
23755,43458
23792,43580
23852,43693
23933,43792
23980,43830
23933,43868
23852,43967
23792,44080
23755,44203
23742,44330
23755,44458
23792,44580
23852,44693
23933,44792
24032,44873
24145,44934
24268,44971
24363,44980
24624,44980
24552,45067
24492,45180
24455,45303
24442,45430
24455,45558
24492,45680
24552,45793
24633,45892
24732,45973
24845,46034
24968,46071
25063,46080
25627,46080
25723,46071
25845,46034
25958,45973
26057,45892
26138,45793
26199,45680
26236,45558
26248,45430
26236,45303
26199,45180
26138,45067
26057,44968
25958,44887
25845,44827
25723,44790
25627,44780
25367,44780
25438,44693
25499,44580
25536,44458
25548,44330
25536,44203
25499,44080
25438,43967
25357,43868
25311,43830
25357,43792
25438,43693
25499,43580
25535,43461
29817,43461
29836,43628
29886,43787
29967,43934
30074,44062
30205,44167
30353,44245
30514,44292
30680,44307
30847,44290
31007,44240
31154,44160
31283,44054
31389,43924
31467,43776
31516,43616
31532,43450
31532,43448
31753,43448
31753,43537
31770,43623
31804,43704
31852,43777
31915,43840
31988,43888
32069,43922
32155,43939
32244,43939
32330,43922
32411,43888
32484,43840
32547,43777
32595,43704
32629,43623
32646,43537
32646,43448
32638,43408
38153,43408
38153,43497
38170,43583
38204,43664
38252,43737
38315,43800
38388,43848
38469,43882
38555,43899
38644,43899
38730,43882
38811,43848
38884,43800
38947,43737
38995,43664
39029,43583
39046,43497
39046,43418
44703,43418
44703,43507
44720,43593
44754,43674
44802,43747
44865,43810
44938,43858
45019,43892
45105,43909
45194,43909
45280,43892
45361,43858
45434,43810
45497,43747
45545,43674
45579,43593
45596,43507
45596,43428
51293,43428
51293,43517
51310,43603
51344,43684
51392,43757
51455,43820
51528,43868
51609,43902
51695,43919
51784,43919
51870,43902
51951,43868
52024,43820
52087,43757
52135,43684
52169,43603
52186,43517
52186,43428
57813,43428
57813,43517
57830,43603
57864,43684
57912,43757
57975,43820
58048,43868
58129,43902
58215,43919
58304,43919
58390,43902
58471,43868
58544,43820
58607,43757
58655,43684
58689,43603
58706,43517
58706,43428
58704,43418
64383,43418
64383,43507
64400,43593
64434,43674
64482,43747
64545,43810
64618,43858
64699,43892
64785,43909
64874,43909
64960,43892
65041,43858
65114,43810
65177,43747
65225,43674
65259,43593
65276,43507
65276,43418
70953,43418
70953,43507
70970,43593
71004,43674
71052,43747
71115,43810
71188,43858
71269,43892
71355,43909
71444,43909
71530,43892
71611,43858
71684,43810
71747,43747
71795,43674
71829,43593
71846,43507
71846,43418
71844,43408
77473,43408
77473,43497
77490,43583
77524,43664
77572,43737
77635,43800
77708,43848
77789,43882
77875,43899
77964,43899
78050,43882
78131,43848
78204,43800
78267,43737
78315,43664
78349,43583
78366,43497
78366,43468
82391,43468
82410,43635
82460,43794
82541,43941
82648,44069
82779,44174
82927,44252
83088,44299
83254,44314
83421,44297
83581,44247
83728,44167
83857,44061
83963,43931
84041,43783
84090,43623
84106,43457
84106,43433
84104,43415
84354,43415
84354,43504
84371,43590
84405,43671
84453,43744
84516,43807
84589,43855
84670,43889
84756,43906
84845,43906
84931,43889
85012,43855
85085,43807
85148,43744
85196,43671
85230,43590
85247,43504
85247,43428
90593,43428
90593,43517
90610,43603
90644,43684
90692,43757
90755,43820
90828,43868
90909,43902
90995,43919
91084,43919
91170,43902
91251,43868
91324,43820
91387,43757
91435,43684
91469,43603
91486,43517
91486,43428
91484,43418
97163,43418
97163,43507
97180,43593
97214,43674
97262,43747
97325,43810
97398,43858
97479,43892
97565,43909
97654,43909
97740,43892
97821,43858
97894,43810
97957,43747
98005,43674
98039,43593
98056,43507
98056,43418
98039,43332
98009,43258
103153,43258
103153,43347
103170,43433
103204,43514
103252,43587
103315,43650
103388,43698
103469,43732
103555,43749
103644,43749
103730,43732
103811,43698
103884,43650
103947,43587
103995,43514
104029,43433
104046,43348
110253,43348
110253,43437
110270,43523
110304,43604
110352,43677
110415,43740
110488,43788
110569,43822
110655,43839
110744,43839
110830,43822
110911,43788
110984,43740
111047,43677
111095,43604
111129,43523
111146,43437
111146,43348
111129,43262
111124,43248
116853,43248
116853,43337
116870,43423
116904,43504
116952,43577
117015,43640
117088,43688
117169,43722
117255,43739
117344,43739
117430,43722
117511,43688
117584,43640
117647,43577
117695,43504
117713,43461
121692,43461
121711,43628
121761,43787
121842,43934
121949,44062
122080,44167
122228,44245
122389,44292
122555,44307
122722,44290
122882,44240
123029,44160
123158,44054
123264,43924
123342,43776
123391,43616
123407,43450
123407,43426
123405,43415
123754,43415
123754,43504
123771,43590
123805,43671
123853,43744
123916,43807
123989,43855
124070,43889
124156,43906
124245,43906
124331,43889
124412,43855
124485,43807
124548,43744
124596,43671
124630,43590
124647,43504
124647,43448
127679,43448
127692,43576
127729,43698
127789,43811
127870,43910
127917,43948
127870,43986
127789,44085
127729,44198
127692,44321
127679,44448
127692,44576
127729,44698
127789,44811
127870,44910
127969,44991
128082,45052
128205,45089
128300,45098
128864,45098
128960,45089
129082,45052
129195,44991
129294,44910
129375,44811
129436,44698
129473,44576
129485,44448
129473,44321
129436,44198
129375,44085
129294,43986
129248,43948
129294,43910
129375,43811
129436,43698
129473,43576
129485,43448
129473,43321
129436,43198
129375,43085
129294,42986
129248,42949
129327,42873
129400,42768
129452,42651
129464,42599
129418,42498
128632,42498
128632,42506
128532,42506
128532,42498
127747,42498
127700,42599
127713,42651
127764,42768
127837,42873
127917,42949
127870,42986
127789,43085
127729,43198
127692,43321
127679,43448
124647,43448
124647,43415
124630,43329
124596,43248
124548,43175
124485,43112
124412,43064
124331,43030
124245,43013
124156,43013
124070,43030
123989,43064
123916,43112
123853,43175
123805,43248
123771,43329
123754,43415
123405,43415
123386,43260
123333,43101
123250,42955
123141,42828
123009,42725
122860,42650
122698,42605
122532,42592
122365,42612
122206,42664
122060,42745
121933,42854
121829,42985
121752,43134
121706,43295
121692,43461
117713,43461
117729,43423
117746,43337
117746,43248
117729,43162
117695,43081
117647,43008
117584,42945
117511,42897
117430,42863
117344,42846
117255,42846
117169,42863
117088,42897
117015,42945
116952,43008
116904,43081
116870,43162
116853,43248
111124,43248
111095,43181
111047,43108
110984,43045
110911,42997
110830,42963
110744,42946
110655,42946
110569,42963
110488,42997
110415,43045
110352,43108
110304,43181
110270,43262
110253,43348
104046,43348
104046,43347
104046,43258
104029,43172
103995,43091
103947,43018
103884,42955
103811,42907
103730,42873
103644,42856
103555,42856
103469,42873
103388,42907
103315,42955
103252,43018
103204,43091
103170,43172
103153,43258
98009,43258
98005,43251
97957,43178
97894,43115
97821,43067
97740,43033
97654,43016
97565,43016
97479,43033
97398,43067
97325,43115
97262,43178
97214,43251
97180,43332
97163,43418
91484,43418
91469,43342
91435,43261
91387,43188
91324,43125
91251,43077
91170,43043
91084,43026
90995,43026
90909,43043
90828,43077
90755,43125
90692,43188
90644,43261
90610,43342
90593,43428
85247,43428
85247,43415
85230,43329
85196,43248
85148,43175
85085,43112
85012,43064
84931,43030
84845,43013
84756,43013
84670,43030
84589,43064
84516,43112
84453,43175
84405,43248
84371,43329
84354,43415
84104,43415
84085,43267
84032,43108
83949,42962
83840,42835
83708,42732
83559,42657
83397,42612
83231,42599
83064,42619
82905,42671
82759,42752
82632,42861
82528,42992
82451,43141
82405,43302
82391,43468
78366,43468
78366,43408
78349,43322
78315,43241
78267,43168
78204,43105
78131,43057
78050,43023
77964,43006
77875,43006
77789,43023
77708,43057
77635,43105
77572,43168
77524,43241
77490,43322
77473,43408
71844,43408
71829,43332
71795,43251
71747,43178
71684,43115
71611,43067
71530,43033
71444,43016
71355,43016
71269,43033
71188,43067
71115,43115
71052,43178
71004,43251
70970,43332
70953,43418
65276,43418
65259,43332
65225,43251
65177,43178
65114,43115
65041,43067
64960,43033
64874,43016
64785,43016
64699,43033
64618,43067
64545,43115
64482,43178
64434,43251
64400,43332
64383,43418
58704,43418
58689,43342
58655,43261
58607,43188
58544,43125
58471,43077
58390,43043
58304,43026
58215,43026
58129,43043
58048,43077
57975,43125
57912,43188
57864,43261
57830,43342
57813,43428
52186,43428
52169,43342
52135,43261
52087,43188
52024,43125
51951,43077
51870,43043
51784,43026
51695,43026
51609,43043
51528,43077
51455,43125
51392,43188
51344,43261
51310,43342
51293,43428
45596,43428
45596,43418
45579,43332
45545,43251
45497,43178
45434,43115
45361,43067
45280,43033
45194,43016
45105,43016
45019,43033
44938,43067
44865,43115
44802,43178
44754,43251
44720,43332
44703,43418
39046,43418
39046,43408
39029,43322
38995,43241
38947,43168
38884,43105
38811,43057
38730,43023
38644,43006
38555,43006
38469,43023
38388,43057
38315,43105
38252,43168
38204,43241
38170,43322
38153,43408
32638,43408
32629,43362
32595,43281
32547,43208
32484,43145
32411,43097
32330,43063
32244,43046
32155,43046
32069,43063
31988,43097
31915,43145
31852,43208
31804,43281
31770,43362
31753,43448
31532,43448
31532,43426
31511,43260
31458,43101
31375,42955
31266,42828
31134,42725
30985,42650
30823,42605
30657,42592
30490,42612
30331,42664
30185,42745
30058,42854
29954,42985
29877,43134
29831,43295
29817,43461
25535,43461
25536,43458
25548,43330
25536,43203
25499,43080
25438,42967
25357,42868
25311,42830
25390,42754
25463,42650
25515,42533
25527,42481
25481,42380
24695,42380
24695,42388
24595,42388
24595,42380
23810,42380
23763,42481
23776,42533
23827,42650
23900,42754
23980,42830
23933,42868
23852,42967
23792,43080
23755,43203
23742,43330
18842,43330
18842,42233
19036,42233
19038,42246
19038,43007
19036,43020
19041,43073
19057,43124
19082,43171
19116,43212
19147,43238
19157,43246
19203,43271
19254,43286
19307,43291
19320,43290
20869,43290
20882,43291
20935,43286
20986,43271
21033,43246
21074,43212
21107,43171
21132,43124
21148,43073
21152,43033
21152,43033
21153,43020
21152,43007
21152,42298
127700,42298
127747,42398
128532,42398
128532,42390
128632,42390
128632,42398
129418,42398
129464,42298
129452,42246
129400,42129
129327,42024
129235,41936
129127,41867
129008,41821
128882,41798
128282,41798
128156,41821
128037,41867
127929,41936
127837,42024
127764,42129
127713,42246
127700,42298
21152,42298
21152,42246
21153,42233
21148,42180
21148,42179
23763,42179
23810,42280
24595,42280
24595,42272
24695,42272
24695,42280
25481,42280
25527,42179
25515,42128
25463,42011
25390,41906
25363,41880
25645,41880
25771,41858
25890,41812
25998,41743
26090,41654
26163,41550
26215,41433
26227,41381
26181,41280
25395,41280
25395,41288
25295,41288
25295,41280
24510,41280
24463,41381
24476,41433
24527,41550
24600,41654
24627,41680
24345,41680
24219,41702
24100,41749
23992,41818
23900,41906
23827,42011
23776,42128
23763,42179
21148,42179
21132,42129
21107,42082
21074,42041
21033,42008
20986,41982
20935,41967
20895,41963
20882,41962
20869,41963
19320,41963
19307,41962
19294,41963
19254,41967
19203,41982
19157,42008
19116,42041
19082,42082
19057,42129
19041,42180
19036,42233
18842,42233
18842,40785
19779,40785
19780,40796
19779,40806
19781,40822
19781,40825
19783,40835
19786,40859
19787,40862
19823,41088
19823,41091
19827,41114
19829,41125
19830,41127
19832,41143
19836,41153
19839,41163
19846,41178
19847,41180
19852,41190
19862,41211
19864,41213
19968,41417
19968,41419
19980,41441
19985,41450
19986,41452
19993,41466
20000,41475
20006,41484
20017,41495
20019,41497
20026,41505
20043,41522
20045,41523
20207,41686
20209,41688
20226,41704
20233,41712
20235,41714
20247,41725
20256,41731
20264,41737
20278,41745
20280,41746
20290,41751
20311,41762
20313,41763
20518,41867
20520,41869
20541,41879
20551,41884
20553,41885
20568,41892
20578,41895
20588,41898
20604,41901
20606,41902
20617,41904
20640,41908
20643,41908
20874,41944
20882,41947
20900,41948
20906,41949
20914,41950
20922,41951
20927,41951
20945,41952
20953,41951
22097,41951
22105,41952
22124,41951
22129,41951
22137,41950
22145,41949
22150,41948
22169,41947
22176,41944
22408,41908
22411,41908
22434,41904
22445,41902
22447,41901
22463,41898
22473,41895
22483,41892
22497,41885
22500,41884
22509,41879
22531,41869
22533,41867
22737,41763
22740,41762
22761,41751
22770,41746
22773,41745
22787,41737
22795,41731
22804,41725
22815,41714
22818,41712
22825,41704
22842,41688
22844,41686
23006,41523
23008,41522
23024,41505
23032,41497
23034,41495
23045,41484
23050,41475
23057,41466
23065,41452
23066,41450
23071,41441
23082,41419
23083,41417
23187,41213
23189,41211
23199,41190
23204,41180
23205,41178
23212,41163
23215,41153
23218,41143
23221,41127
23222,41125
23224,41114
23228,41091
23228,41088
23229,41079
24463,41079
24510,41180
25295,41180
25295,41172
25395,41172
25395,41180
26181,41180
26227,41079
26215,41028
26163,40911
26129,40861
27309,40861
27309,40949
27326,41035
27359,41117
27408,41190
27471,41252
27544,41301
27625,41335
27711,41352
27799,41352
27886,41335
27967,41301
28040,41252
28102,41190
28151,41117
28185,41035
28189,41015
78154,41015
78154,41104
78171,41190
78205,41271
78253,41344
78316,41407
78389,41455
78470,41489
78556,41506
78645,41506
78731,41489
78812,41455
78885,41407
78948,41344
78996,41271
79030,41190
79047,41104
79047,41015
117754,41015
117754,41104
117771,41190
117805,41271
117853,41344
117916,41407
117989,41455
118070,41489
118156,41506
118245,41506
118331,41489
118412,41455
118485,41407
118548,41344
118596,41271
118630,41190
118647,41104
118647,41015
118641,40982
123545,40982
123545,41071
123562,41157
123596,41238
123644,41311
123707,41374
123780,41422
123861,41456
123947,41473
124036,41473
124122,41456
124203,41422
124276,41374
124339,41311
124387,41238
124421,41157
124438,41071
124438,40982
124421,40896
124387,40815
124368,40785
129960,40785
129960,40796
129960,40806
129962,40822
129962,40825
129964,40835
129967,40859
129968,40862
130004,41088
130004,41091
130008,41114
130010,41125
130010,41127
130013,41143
130017,41153
130020,41163
130027,41178
130027,41180
130032,41190
130043,41211
130044,41213
130148,41417
130149,41420
130160,41441
130165,41450
130167,41452
130174,41466
130181,41475
130187,41484
130198,41495
130199,41497
130207,41505
130223,41522
130226,41523
130388,41686
130389,41688
130407,41705
130414,41712
130416,41714
130428,41725
130437,41731
130445,41737
130459,41745
130461,41746
130471,41751
130492,41762
130494,41763
130698,41867
130700,41869
130722,41879
130731,41884
130734,41885
130748,41892
130758,41894
130768,41898
130784,41901
130787,41902
130797,41904
130821,41908
130823,41908
131055,41944
131063,41947
131081,41948
131086,41949
131094,41950
131102,41951
131108,41951
131126,41952
131134,41951
132248,41951
132208,41963
132161,41988
132120,42022
132086,42063
132061,42109
132046,42160
132040,42213
132042,42226
132042,42987
132040,43001
132046,43053
132061,43104
132086,43151
132120,43192
132144,43212
132161,43226
132208,43251
132258,43266
132311,43272
132325,43270
133873,43270
133886,43272
133939,43266
133990,43251
134037,43226
134078,43192
134111,43151
134136,43104
134152,43053
134156,43014
134156,43014
134157,43001
134156,42987
134156,42226
134157,42213
134152,42160
134136,42109
134111,42063
134078,42022
134037,41988
133990,41963
133939,41947
133899,41943
133886,41942
133873,41943
132363,41943
132588,41908
132591,41908
132615,41904
132625,41902
132628,41901
132643,41898
132653,41895
132664,41892
132678,41885
132680,41884
132690,41879
132711,41869
132714,41867
132918,41763
132921,41762
132942,41751
132951,41746
132953,41745
132967,41737
132976,41731
132984,41725
132996,41714
132998,41712
133006,41704
133023,41688
133024,41686
133186,41524
133188,41522
133205,41505
133213,41497
133214,41495
133225,41484
133231,41475
133238,41466
133245,41452
133246,41450
133251,41441
133263,41419
133264,41417
133368,41213
133369,41211
133380,41190
133385,41180
133386,41178
133393,41163
133395,41153
133399,41143
133402,41127
133403,41125
133404,41114
133408,41091
133408,41088
133444,40862
133445,40859
133448,40835
133450,40825
133450,40822
133452,40806
133452,40796
133452,40785
133450,40769
133450,40767
133448,40756
133445,40733
133444,40730
133408,40503
133408,40501
133404,40477
133403,40467
133402,40464
133399,40448
133395,40439
133393,40428
133386,40414
133385,40411
133380,40402
133369,40381
133368,40378
133264,40175
133263,40172
133251,40151
133246,40141
133245,40139
133238,40125
133231,40117
133225,40108
133214,40096
133213,40095
133205,40087
133188,40069
133186,40068
133024,39906
133023,39904
133006,39887
132998,39880
132996,39878
132984,39867
132976,39861
132967,39855
132953,39847
132951,39845
132942,39841
132921,39829
132918,39829
132714,39725
132711,39723
132690,39713
132680,39708
132678,39707
132664,39700
132653,39697
132643,39693
132628,39690
132625,39690
132615,39688
132591,39684
132588,39684
132357,39647
132350,39645
132331,39643
132326,39642
132318,39642
132310,39641
132305,39641
132286,39640
132278,39641
131134,39641
131126,39640
131108,39641
131102,39641
131094,39642
131086,39642
131081,39643
131063,39645
131055,39647
130823,39684
130821,39684
130797,39688
130787,39690
130784,39690
130768,39693
130758,39697
130748,39700
130734,39707
130731,39708
130722,39713
130700,39723
130698,39725
130494,39829
130492,39829
130471,39841
130461,39845
130459,39847
130445,39854
130437,39861
130428,39867
130416,39878
130414,39880
130407,39887
130389,39904
130388,39906
130226,40068
130223,40070
130207,40087
130199,40094
130198,40096
130187,40108
130181,40117
130174,40125
130167,40139
130165,40141
130160,40151
130149,40172
130148,40175
130044,40378
130043,40381
130032,40402
130027,40412
130027,40414
130020,40428
130017,40439
130013,40449
130010,40464
130010,40467
130008,40477
130004,40501
130004,40504
129968,40730
129967,40733
129964,40756
129962,40767
129962,40769
129960,40785
124368,40785
124339,40742
124276,40679
124203,40631
124122,40597
124036,40580
123947,40580
123861,40597
123780,40631
123707,40679
123644,40742
123596,40815
123562,40896
123545,40982
118641,40982
118630,40929
118596,40848
118548,40775
118485,40712
118412,40664
118331,40630
118245,40613
118156,40613
118070,40630
117989,40664
117916,40712
117853,40775
117805,40848
117771,40929
117754,41015
79047,41015
79030,40929
78996,40848
78948,40775
78885,40712
78812,40664
78731,40630
78645,40613
78556,40613
78470,40630
78389,40664
78316,40712
78253,40775
78205,40848
78171,40929
78154,41015
28189,41015
28202,40949
28202,40861
28185,40775
28151,40693
28102,40620
28040,40558
27967,40509
27886,40475
27799,40458
27711,40458
27625,40475
27544,40509
27471,40558
27408,40620
27359,40693
27326,40775
27309,40861
26129,40861
26090,40806
25998,40718
25890,40649
25771,40602
25645,40580
25045,40580
24919,40602
24800,40649
24692,40718
24600,40806
24527,40911
24476,41028
24463,41079
23229,41079
23264,40862
23264,40859
23268,40835
23269,40825
23270,40822
23272,40806
23271,40796
23272,40785
23270,40769
23269,40767
23268,40756
23264,40733
23264,40730
23228,40504
23228,40501
23224,40477
23222,40467
23221,40464
23218,40449
23215,40439
23212,40428
23205,40414
23204,40411
23199,40402
23189,40381
23187,40378
23083,40175
23082,40172
23071,40151
23066,40141
23065,40139
23057,40125
23050,40117
23045,40108
23034,40096
23032,40095
23024,40087
23008,40070
23006,40068
22844,39906
22842,39904
22825,39887
22818,39880
22815,39878
22804,39867
22795,39861
22787,39854
22773,39847
22770,39845
22761,39841
22740,39829
22737,39829
22533,39725
22531,39723
22509,39713
22500,39708
22497,39707
22483,39700
22473,39697
22463,39693
22447,39690
22445,39690
22434,39688
22411,39684
22408,39684
22176,39647
22169,39645
22150,39643
22145,39642
22137,39642
22129,39641
22124,39641
22105,39640
22097,39641
20953,39641
20945,39640
20927,39641
20922,39641
20914,39642
20906,39642
20900,39643
20882,39645
20874,39647
20643,39684
20640,39684
20617,39688
20606,39690
20604,39690
20588,39693
20578,39697
20568,39700
20553,39707
20551,39708
20541,39713
20520,39723
20518,39725
20313,39829
20311,39829
20290,39841
20280,39845
20278,39847
20264,39854
20256,39861
20247,39867
20235,39878
20233,39880
20226,39887
20209,39904
20207,39906
20045,40068
20043,40070
20026,40087
20019,40095
20017,40096
20006,40108
20000,40117
19993,40125
19986,40139
19985,40141
19980,40151
19968,40172
19968,40175
19864,40378
19862,40381
19852,40402
19847,40411
19846,40414
19839,40428
19836,40439
19832,40449
19830,40464
19829,40467
19827,40477
19823,40501
19823,40504
19787,40730
19786,40733
19783,40756
19781,40767
19781,40769
19779,40785
18842,40785
18842,40522
18871,40342
18944,40198
19058,40084
19201,40011
19381,39983
19460,39983
19462,39983
19486,39983
19497,39983
19499,39983
19516,39982
19526,39980
19536,39979
19552,39974
19567,39971
19577,39967
19587,39964
19601,39956
19616,39950
19625,39943
19634,39938
19646,39928
19660,39919
19667,39911
19675,39905
19685,39892
19696,39881
19702,39872
19709,39864
19716,39850
19718,39847
19723,39838
19734,39817
19735,39814
19762,39761
19897,39626
20068,39539
20278,39506
22773,39506
22983,39539
Z" /> 
</g>
</g> 
</svg>
