G04 #@! TF.GenerationSoftware,KiCad,Pcbnew,(5.0.0-3-g5ebb6b6)*
G04 #@! TF.CreationDate,2019-02-17T13:26:06-08:00*
G04 #@! TF.ProjectId,DInside,44496E736964652E6B696361645F7063,rev?*
G04 #@! TF.SameCoordinates,Original*
G04 #@! TF.FileFunction,Legend,Top*
G04 #@! TF.FilePolarity,Positive*
%FSLAX46Y46*%
G04 Gerber Fmt 4.6, Leading zero omitted, Abs format (unit mm)*
G04 Created by KiCad (PCBNEW (5.0.0-3-g5ebb6b6)) date Sunday, February 17, 2019 at 01:26:06 PM*
%MOMM*%
%LPD*%
G01*
G04 APERTURE LIST*
%ADD10C,0.200000*%
%ADD11C,0.300000*%
%ADD12C,0.010000*%
%ADD13C,0.120000*%
%ADD14C,0.150000*%
G04 APERTURE END LIST*
D10*
X61341000Y-108204000D02*
X62611000Y-108204000D01*
X61976000Y-107569000D02*
X61976000Y-108839000D01*
X61341000Y-112395000D02*
X62611000Y-112395000D01*
X62611000Y-110363000D02*
X61468000Y-110998000D01*
X61468000Y-109728000D02*
X62611000Y-110363000D01*
X61468000Y-109728000D02*
X61468000Y-110998000D01*
X326771000Y-107823000D02*
X328041000Y-107823000D01*
X327406000Y-107188000D02*
X327406000Y-108458000D01*
X326771000Y-112014000D02*
X328041000Y-112014000D01*
X328041000Y-109982000D02*
X326898000Y-110617000D01*
X326898000Y-109347000D02*
X328041000Y-109982000D01*
X326898000Y-109347000D02*
X326898000Y-110617000D01*
D11*
X337288285Y-111847142D02*
X337288285Y-108847142D01*
X338002571Y-108847142D01*
X338431142Y-108990000D01*
X338716857Y-109275714D01*
X338859714Y-109561428D01*
X339002571Y-110132857D01*
X339002571Y-110561428D01*
X338859714Y-111132857D01*
X338716857Y-111418571D01*
X338431142Y-111704285D01*
X338002571Y-111847142D01*
X337288285Y-111847142D01*
X50268285Y-111847142D02*
X50268285Y-108847142D01*
X50982571Y-108847142D01*
X51411142Y-108990000D01*
X51696857Y-109275714D01*
X51839714Y-109561428D01*
X51982571Y-110132857D01*
X51982571Y-110561428D01*
X51839714Y-111132857D01*
X51696857Y-111418571D01*
X51411142Y-111704285D01*
X50982571Y-111847142D01*
X50268285Y-111847142D01*
D12*
X317108723Y-110372666D02*
X322108723Y-110372666D01*
X319608723Y-107872666D02*
X319608723Y-112872666D01*
X300441243Y-110372666D02*
X305441243Y-110372666D01*
X302941243Y-107872666D02*
X302941243Y-112872666D01*
X283773763Y-110372666D02*
X288773763Y-110372666D01*
X286273763Y-107872666D02*
X286273763Y-112872666D01*
X267106283Y-110372666D02*
X272106283Y-110372666D01*
X269606283Y-107872666D02*
X269606283Y-112872666D01*
X250438803Y-110372666D02*
X255438803Y-110372666D01*
X252938803Y-107872666D02*
X252938803Y-112872666D01*
X233772103Y-110372666D02*
X238772103Y-110372666D01*
X236272103Y-107872666D02*
X236272103Y-112872666D01*
X217105403Y-110372666D02*
X222105403Y-110372666D01*
X219605403Y-107872666D02*
X219605403Y-112872666D01*
X200438703Y-110372666D02*
X205438703Y-110372666D01*
X202938703Y-107872666D02*
X202938703Y-112872666D01*
X183772003Y-110372666D02*
X188772003Y-110372666D01*
X186272003Y-107872666D02*
X186272003Y-112872666D01*
X167105303Y-110372666D02*
X172105303Y-110372666D01*
X169605303Y-107872666D02*
X169605303Y-112872666D01*
X150438603Y-110372666D02*
X155438603Y-110372666D01*
X152938603Y-107872666D02*
X152938603Y-112872666D01*
X133771903Y-110372666D02*
X138771903Y-110372666D01*
X136271903Y-107872666D02*
X136271903Y-112872666D01*
X117105203Y-110372666D02*
X122105203Y-110372666D01*
X119605203Y-107872666D02*
X119605203Y-112872666D01*
X100438503Y-110372666D02*
X105438503Y-110372666D01*
X102938503Y-107872666D02*
X102938503Y-112872666D01*
X83771803Y-110372666D02*
X88771803Y-110372666D01*
X86271803Y-107872666D02*
X86271803Y-112872666D01*
X67105103Y-110372666D02*
X72105103Y-110372666D01*
X69605103Y-107872666D02*
X69605103Y-112872666D01*
X311271716Y-111845669D02*
X310816699Y-111773663D01*
X311726703Y-111773663D02*
X311271716Y-111845669D01*
X312137714Y-111564664D02*
X311726703Y-111773663D01*
X312463702Y-111238660D02*
X312137714Y-111564664D01*
X312672717Y-110827664D02*
X312463702Y-111238660D01*
X312744708Y-110372662D02*
X312672717Y-110827664D01*
X312672717Y-109917660D02*
X312744708Y-110372662D01*
X312463702Y-109506665D02*
X312672717Y-109917660D01*
X312137714Y-109180661D02*
X312463702Y-109506665D01*
X311726703Y-108971661D02*
X312137714Y-109180661D01*
X311271716Y-108899655D02*
X311726703Y-108971661D01*
X310816699Y-108971661D02*
X311271716Y-108899655D01*
X310405719Y-109180661D02*
X310816699Y-108971661D01*
X310079700Y-109506665D02*
X310405719Y-109180661D01*
X309870715Y-109917660D02*
X310079700Y-109506665D01*
X309798694Y-110372662D02*
X309870715Y-109917660D01*
X309870715Y-110827664D02*
X309798694Y-110372662D01*
X310079700Y-111238660D02*
X309870715Y-110827664D01*
X310405719Y-111564664D02*
X310079700Y-111238660D01*
X310816699Y-111773663D02*
X310405719Y-111564664D01*
X194604706Y-111845669D02*
X194149704Y-111773663D01*
X195060699Y-111773663D02*
X194604706Y-111845669D01*
X195470703Y-111564664D02*
X195060699Y-111773663D01*
X195796707Y-111238660D02*
X195470703Y-111564664D01*
X196005707Y-110827664D02*
X195796707Y-111238660D01*
X196078705Y-110372662D02*
X196005707Y-110827664D01*
X196005707Y-109917660D02*
X196078705Y-110372662D01*
X195796707Y-109506665D02*
X196005707Y-109917660D01*
X195470703Y-109180661D02*
X195796707Y-109506665D01*
X195060699Y-108971661D02*
X195470703Y-109180661D01*
X194604706Y-108899655D02*
X195060699Y-108971661D01*
X194149704Y-108971661D02*
X194604706Y-108899655D01*
X193738708Y-109180661D02*
X194149704Y-108971661D01*
X193413711Y-109506665D02*
X193738708Y-109180661D01*
X193203705Y-109917660D02*
X193413711Y-109506665D01*
X193131698Y-110372662D02*
X193203705Y-109917660D01*
X193203705Y-110827664D02*
X193131698Y-110372662D01*
X193413711Y-111238660D02*
X193203705Y-110827664D01*
X193738708Y-111564664D02*
X193413711Y-111238660D01*
X194149704Y-111773663D02*
X193738708Y-111564664D01*
X77938401Y-111845669D02*
X77483200Y-111773663D01*
X78393700Y-111773663D02*
X77938401Y-111845669D01*
X78804303Y-111564664D02*
X78393700Y-111773663D01*
X79130303Y-111238660D02*
X78804303Y-111564664D01*
X79339501Y-110827664D02*
X79130303Y-111238660D01*
X79411602Y-110372662D02*
X79339501Y-110827664D01*
X79339501Y-109917660D02*
X79411602Y-110372662D01*
X79130303Y-109506665D02*
X79339501Y-109917660D01*
X78804303Y-109180661D02*
X79130303Y-109506665D01*
X78393700Y-108971661D02*
X78804303Y-109180661D01*
X77938401Y-108899655D02*
X78393700Y-108971661D01*
X77483200Y-108971661D02*
X77938401Y-108899655D01*
X77072503Y-109180661D02*
X77483200Y-108971661D01*
X76746601Y-109506665D02*
X77072503Y-109180661D01*
X76537300Y-109917660D02*
X76746601Y-109506665D01*
X76465203Y-110372662D02*
X76537300Y-109917660D01*
X76537300Y-110827664D02*
X76465203Y-110372662D01*
X76746601Y-111238660D02*
X76537300Y-110827664D01*
X77072503Y-111564664D02*
X76746601Y-111238660D01*
X77483200Y-111773663D02*
X77072503Y-111564664D01*
X322105603Y-107872666D02*
X322105603Y-112872666D01*
X317105603Y-107872666D02*
X322105603Y-107872666D01*
X317105603Y-112872666D02*
X317105603Y-107872666D01*
X322105603Y-112872666D02*
X317105603Y-112872666D01*
X305438903Y-107872666D02*
X305438903Y-112872666D01*
X300438903Y-107872666D02*
X305438903Y-107872666D01*
X300438903Y-112872666D02*
X300438903Y-107872666D01*
X305438903Y-112872666D02*
X300438903Y-112872666D01*
X288772203Y-107872666D02*
X288772203Y-112872666D01*
X283772203Y-107872666D02*
X288772203Y-107872666D01*
X283772203Y-112872666D02*
X283772203Y-107872666D01*
X288772203Y-112872666D02*
X283772203Y-112872666D01*
X272105503Y-107872666D02*
X272105503Y-112872666D01*
X267105503Y-107872666D02*
X272105503Y-107872666D01*
X267105503Y-112872666D02*
X267105503Y-107872666D01*
X272105503Y-112872666D02*
X267105503Y-112872666D01*
X255438803Y-107872666D02*
X255438803Y-112872666D01*
X250438803Y-107872666D02*
X255438803Y-107872666D01*
X250438803Y-112872666D02*
X250438803Y-107872666D01*
X255438803Y-112872666D02*
X250438803Y-112872666D01*
X238772103Y-107872666D02*
X238772103Y-112872666D01*
X233772103Y-107872666D02*
X238772103Y-107872666D01*
X233772103Y-112872666D02*
X233772103Y-107872666D01*
X238772103Y-112872666D02*
X233772103Y-112872666D01*
X222105403Y-107872666D02*
X222105403Y-112872666D01*
X217105403Y-107872666D02*
X222105403Y-107872666D01*
X217105403Y-112872666D02*
X217105403Y-107872666D01*
X222105403Y-112872666D02*
X217105403Y-112872666D01*
X205438703Y-107872666D02*
X205438703Y-112872666D01*
X200438703Y-107872666D02*
X205438703Y-107872666D01*
X200438703Y-112872666D02*
X200438703Y-107872666D01*
X205438703Y-112872666D02*
X200438703Y-112872666D01*
X188772003Y-107872666D02*
X188772003Y-112872666D01*
X183772003Y-107872666D02*
X188772003Y-107872666D01*
X183772003Y-112872666D02*
X183772003Y-107872666D01*
X188772003Y-112872666D02*
X183772003Y-112872666D01*
X172105303Y-107872666D02*
X172105303Y-112872666D01*
X167105303Y-107872666D02*
X172105303Y-107872666D01*
X167105303Y-112872666D02*
X167105303Y-107872666D01*
X172105303Y-112872666D02*
X167105303Y-112872666D01*
X155438603Y-107872666D02*
X155438603Y-112872666D01*
X150438603Y-107872666D02*
X155438603Y-107872666D01*
X150438603Y-112872666D02*
X150438603Y-107872666D01*
X155438603Y-112872666D02*
X150438603Y-112872666D01*
X138771903Y-107872666D02*
X138771903Y-112872666D01*
X133771903Y-107872666D02*
X138771903Y-107872666D01*
X133771903Y-112872666D02*
X133771903Y-107872666D01*
X138771903Y-112872666D02*
X133771903Y-112872666D01*
X122105203Y-107872666D02*
X122105203Y-112872666D01*
X117105203Y-107872666D02*
X122105203Y-107872666D01*
X117105203Y-112872666D02*
X117105203Y-107872666D01*
X122105203Y-112872666D02*
X117105203Y-112872666D01*
X105438503Y-107872666D02*
X105438503Y-112872666D01*
X100438503Y-107872666D02*
X105438503Y-107872666D01*
X100438503Y-112872666D02*
X100438503Y-107872666D01*
X105438503Y-112872666D02*
X100438503Y-112872666D01*
X88771803Y-107872666D02*
X88771803Y-112872666D01*
X83771803Y-107872666D02*
X88771803Y-107872666D01*
X83771803Y-112872666D02*
X83771803Y-107872666D01*
X88771803Y-112872666D02*
X83771803Y-112872666D01*
X72105103Y-107872666D02*
X72105103Y-112872666D01*
X67105103Y-107872666D02*
X72105103Y-107872666D01*
X67105103Y-112872666D02*
X67105103Y-107872666D01*
X72105103Y-112872666D02*
X67105103Y-112872666D01*
X354574974Y-108999991D02*
X354574974Y-108999991D01*
X354574974Y-109856097D02*
X354574974Y-108999991D01*
X354574974Y-110712204D02*
X354574974Y-109856097D01*
X354574974Y-111568310D02*
X354574974Y-110712204D01*
X354574974Y-112424416D02*
X354574974Y-111568310D01*
X355128428Y-112424416D02*
X354574974Y-112424416D01*
X355681883Y-112424416D02*
X355128428Y-112424416D01*
X356235337Y-112424416D02*
X355681883Y-112424416D01*
X356788792Y-112424416D02*
X356235337Y-112424416D01*
X356808601Y-112263832D02*
X356788792Y-112424416D01*
X356828410Y-112103247D02*
X356808601Y-112263832D01*
X356848220Y-111942663D02*
X356828410Y-112103247D01*
X356868029Y-111782078D02*
X356848220Y-111942663D01*
X356497423Y-111782078D02*
X356868029Y-111782078D01*
X356126817Y-111782078D02*
X356497423Y-111782078D01*
X355756211Y-111782078D02*
X356126817Y-111782078D01*
X355385604Y-111782078D02*
X355756211Y-111782078D01*
X355385604Y-111086556D02*
X355385604Y-111782078D01*
X355385604Y-110391035D02*
X355385604Y-111086556D01*
X355385604Y-109695513D02*
X355385604Y-110391035D01*
X355385604Y-108999991D02*
X355385604Y-109695513D01*
X355182947Y-108999991D02*
X355385604Y-108999991D01*
X354980289Y-108999991D02*
X355182947Y-108999991D01*
X354777631Y-108999991D02*
X354980289Y-108999991D01*
X354574974Y-108999991D02*
X354777631Y-108999991D01*
X353109085Y-111307688D02*
X353109085Y-111307688D01*
X353084372Y-111558117D02*
X353109085Y-111307688D01*
X353007757Y-111762247D02*
X353084372Y-111558117D01*
X352875524Y-111899682D02*
X353007757Y-111762247D01*
X352683961Y-111950026D02*
X352875524Y-111899682D01*
X352464045Y-111886860D02*
X352683961Y-111950026D01*
X352321450Y-111696747D02*
X352464045Y-111886860D01*
X352242805Y-111378768D02*
X352321450Y-111696747D01*
X352214739Y-110932001D02*
X352242805Y-111378768D01*
X352329783Y-110817349D02*
X352214739Y-110932001D01*
X352456843Y-110733735D02*
X352329783Y-110817349D01*
X352591266Y-110682549D02*
X352456843Y-110733735D01*
X352728402Y-110665178D02*
X352591266Y-110682549D01*
X352890058Y-110699538D02*
X352728402Y-110665178D01*
X353009565Y-110810346D02*
X352890058Y-110699538D01*
X353083662Y-111009198D02*
X353009565Y-110810346D01*
X353109085Y-111307688D02*
X353083662Y-111009198D01*
X353889744Y-111263074D02*
X353889744Y-111263074D01*
X353815034Y-110779041D02*
X353889744Y-111263074D01*
X353610648Y-110422407D02*
X353815034Y-110779041D01*
X353306204Y-110201972D02*
X353610648Y-110422407D01*
X352931318Y-110126537D02*
X353306204Y-110201972D01*
X352746344Y-110146010D02*
X352931318Y-110126537D01*
X352559980Y-110204418D02*
X352746344Y-110146010D01*
X352380141Y-110301745D02*
X352559980Y-110204418D01*
X352214739Y-110437974D02*
X352380141Y-110301745D01*
X352286434Y-110021823D02*
X352214739Y-110437974D01*
X352433287Y-109718294D02*
X352286434Y-110021823D01*
X352641311Y-109532458D02*
X352433287Y-109718294D01*
X352896523Y-109469385D02*
X352641311Y-109532458D01*
X353008203Y-109477796D02*
X352896523Y-109469385D01*
X353119464Y-109503341D02*
X353008203Y-109477796D01*
X353227947Y-109546488D02*
X353119464Y-109503341D01*
X353331294Y-109607706D02*
X353227947Y-109546488D01*
X353405450Y-109489109D02*
X353331294Y-109607706D01*
X353479605Y-109370511D02*
X353405450Y-109489109D01*
X353553761Y-109251914D02*
X353479605Y-109370511D01*
X353627917Y-109133316D02*
X353553761Y-109251914D01*
X353472543Y-109042323D02*
X353627917Y-109133316D01*
X353296240Y-108972129D02*
X353472543Y-109042323D01*
X353100430Y-108926934D02*
X353296240Y-108972129D01*
X352886532Y-108910935D02*
X353100430Y-108926934D01*
X352262313Y-109055638D02*
X352886532Y-108910935D01*
X351794609Y-109460708D02*
X352262313Y-109055638D01*
X351501055Y-110082594D02*
X351794609Y-109460708D01*
X351399284Y-110877740D02*
X351501055Y-110082594D01*
X351470609Y-111503596D02*
X351399284Y-110877740D01*
X351695735Y-112022933D02*
X351470609Y-111503596D01*
X352091393Y-112377358D02*
X351695735Y-112022933D01*
X352674314Y-112508476D02*
X352091393Y-112377358D01*
X353179032Y-112410485D02*
X352674314Y-112508476D01*
X353561857Y-112143382D02*
X353179032Y-112410485D01*
X353804769Y-111747476D02*
X353561857Y-112143382D01*
X353889744Y-111263074D02*
X353804769Y-111747476D01*
X44166391Y-109770704D02*
X44400485Y-109644046D01*
X43951029Y-109948054D02*
X44166391Y-109770704D01*
X44044521Y-109406364D02*
X43951029Y-109948054D01*
X44235680Y-109011225D02*
X44044521Y-109406364D01*
X44506422Y-108769274D02*
X44235680Y-109011225D01*
X44838658Y-108687149D02*
X44506422Y-108769274D01*
X44883789Y-109542739D02*
X45371838Y-109640948D01*
X44643041Y-109568063D02*
X44883789Y-109542739D01*
X44400485Y-109644046D02*
X44643041Y-109568063D01*
X46034324Y-110392178D02*
X46131603Y-111022235D01*
X45768210Y-109927922D02*
X46034324Y-110392178D01*
X45371838Y-109640948D02*
X45768210Y-109927922D01*
X350592960Y-111831343D02*
X350752382Y-111831343D01*
X350433538Y-111831343D02*
X350592960Y-111831343D01*
X350274116Y-111831343D02*
X350433538Y-111831343D01*
X350274116Y-111123505D02*
X350274116Y-111831343D01*
X350274116Y-110415667D02*
X350274116Y-111123505D01*
X350274116Y-109707829D02*
X350274116Y-110415667D01*
X350274116Y-108999991D02*
X350274116Y-109707829D01*
X350101173Y-108999991D02*
X350274116Y-108999991D01*
X349928229Y-108999991D02*
X350101173Y-108999991D01*
X349755285Y-108999991D02*
X349928229Y-108999991D01*
X349582341Y-108999991D02*
X349755285Y-108999991D01*
X349305614Y-109167983D02*
X349582341Y-108999991D01*
X349028887Y-109335974D02*
X349305614Y-109167983D01*
X348752159Y-109503966D02*
X349028887Y-109335974D01*
X348475432Y-109671957D02*
X348752159Y-109503966D01*
X348558200Y-109806617D02*
X348475432Y-109671957D01*
X348640969Y-109941277D02*
X348558200Y-109806617D01*
X348723737Y-110075938D02*
X348640969Y-109941277D01*
X348806506Y-110210598D02*
X348723737Y-110075938D01*
X348983153Y-110099407D02*
X348806506Y-110210598D01*
X349159800Y-109988217D02*
X348983153Y-110099407D01*
X349336447Y-109877026D02*
X349159800Y-109988217D01*
X349513095Y-109765836D02*
X349336447Y-109877026D01*
X349513095Y-110282213D02*
X349513095Y-109765836D01*
X349513095Y-110798589D02*
X349513095Y-110282213D01*
X349513095Y-111314966D02*
X349513095Y-110798589D01*
X349513095Y-111831343D02*
X349513095Y-111314966D01*
X349306820Y-111831343D02*
X349513095Y-111831343D01*
X349100545Y-111831343D02*
X349306820Y-111831343D01*
X348894269Y-111831343D02*
X349100545Y-111831343D01*
X348687994Y-111831343D02*
X348894269Y-111831343D01*
X348687994Y-111979611D02*
X348687994Y-111831343D01*
X348687994Y-112127880D02*
X348687994Y-111979611D01*
X348687994Y-112276148D02*
X348687994Y-112127880D01*
X348687994Y-112424416D02*
X348687994Y-112276148D01*
X349243947Y-112424416D02*
X348687994Y-112424416D01*
X349799899Y-112424416D02*
X349243947Y-112424416D01*
X350355851Y-112424416D02*
X349799899Y-112424416D01*
X350911803Y-112424416D02*
X350355851Y-112424416D01*
X350911803Y-112276148D02*
X350911803Y-112424416D01*
X350911803Y-112127880D02*
X350911803Y-112276148D01*
X350911803Y-111979611D02*
X350911803Y-112127880D01*
X350911803Y-111831343D02*
X350911803Y-111979611D01*
X39528044Y-109118131D02*
X39812695Y-109118131D01*
X39243392Y-109118131D02*
X39528044Y-109118131D01*
X38958741Y-109118131D02*
X39243392Y-109118131D01*
X39224100Y-109523403D02*
X38958741Y-109118131D01*
X39489458Y-109928676D02*
X39224100Y-109523403D01*
X39754817Y-110333948D02*
X39489458Y-109928676D01*
X350911803Y-111831343D02*
X350911803Y-111831343D01*
X350752382Y-111831343D02*
X350911803Y-111831343D01*
X44984149Y-108698128D02*
X44838658Y-108687149D01*
X45128994Y-108731440D02*
X44984149Y-108698128D01*
X45270221Y-108787652D02*
X45128994Y-108731440D01*
X45404860Y-108867328D02*
X45270221Y-108787652D01*
X45501322Y-108712944D02*
X45404860Y-108867328D01*
X45597785Y-108558561D02*
X45501322Y-108712944D01*
X45694248Y-108404178D02*
X45597785Y-108558561D01*
X45790710Y-108249794D02*
X45694248Y-108404178D01*
X45588413Y-108131326D02*
X45790710Y-108249794D01*
X45358954Y-108039988D02*
X45588413Y-108131326D01*
X45104173Y-107981206D02*
X45358954Y-108039988D01*
X44825911Y-107960406D02*
X45104173Y-107981206D01*
X44013146Y-108148751D02*
X44825911Y-107960406D01*
X43404228Y-108675996D02*
X44013146Y-108148751D01*
X43022073Y-109485459D02*
X43404228Y-108675996D01*
X42889595Y-110520457D02*
X43022073Y-109485459D01*
X42982481Y-111335265D02*
X42889595Y-110520457D01*
X43275597Y-112011322D02*
X42982481Y-111335265D01*
X43790631Y-112472663D02*
X43275597Y-112011322D01*
X44549270Y-112643325D02*
X43790631Y-112472663D01*
X45206296Y-112515773D02*
X44549270Y-112643325D01*
X45704691Y-112168095D02*
X45206296Y-112515773D01*
X46020958Y-111652760D02*
X45704691Y-112168095D01*
X46131603Y-111022235D02*
X46020958Y-111652760D01*
X38849532Y-112533943D02*
X38849532Y-112533943D01*
X39124494Y-112533943D02*
X38849532Y-112533943D01*
X39399455Y-112533943D02*
X39124494Y-112533943D01*
X39674417Y-112533943D02*
X39399455Y-112533943D01*
X39949379Y-112533943D02*
X39674417Y-112533943D01*
X40111815Y-112213937D02*
X39949379Y-112533943D01*
X40274251Y-111893930D02*
X40111815Y-112213937D01*
X40436687Y-111573924D02*
X40274251Y-111893930D01*
X40599124Y-111253918D02*
X40436687Y-111573924D01*
X40767976Y-111573924D02*
X40599124Y-111253918D01*
X40936829Y-111893930D02*
X40767976Y-111573924D01*
X41105682Y-112213937D02*
X40936829Y-111893930D01*
X41274535Y-112533943D02*
X41105682Y-112213937D01*
X41562415Y-112533943D02*
X41274535Y-112533943D01*
X41850296Y-112533943D02*
X41562415Y-112533943D01*
X42138177Y-112533943D02*
X41850296Y-112533943D01*
X42426058Y-112533943D02*
X42138177Y-112533943D01*
X42131761Y-112075616D02*
X42426058Y-112533943D01*
X41837463Y-111617289D02*
X42131761Y-112075616D01*
X41543166Y-111158962D02*
X41837463Y-111617289D01*
X41248869Y-110700635D02*
X41543166Y-111158962D01*
X41499715Y-110305009D02*
X41248869Y-110700635D01*
X41750561Y-109909383D02*
X41499715Y-110305009D01*
X42001407Y-109513757D02*
X41750561Y-109909383D01*
X42252253Y-109118131D02*
X42001407Y-109513757D01*
X41982114Y-109118131D02*
X42252253Y-109118131D01*
X41711976Y-109118131D02*
X41982114Y-109118131D01*
X41441837Y-109118131D02*
X41711976Y-109118131D01*
X41171699Y-109118131D02*
X41441837Y-109118131D01*
X41039794Y-109391542D02*
X41171699Y-109118131D01*
X40907890Y-109664953D02*
X41039794Y-109391542D01*
X40775986Y-109938365D02*
X40907890Y-109664953D01*
X40644082Y-110211776D02*
X40775986Y-109938365D01*
X40507398Y-109938365D02*
X40644082Y-110211776D01*
X40370714Y-109664953D02*
X40507398Y-109938365D01*
X40234030Y-109391542D02*
X40370714Y-109664953D01*
X40097346Y-109118131D02*
X40234030Y-109391542D01*
X39812695Y-109118131D02*
X40097346Y-109118131D01*
X38849532Y-112533943D02*
X39142193Y-112085262D01*
X44985828Y-110432930D02*
X44830360Y-110288712D01*
X45082224Y-110691708D02*
X44985828Y-110432930D01*
X45115299Y-111080113D02*
X45082224Y-110691708D01*
X45115299Y-111080113D02*
X45115299Y-111080113D01*
X45083136Y-111406194D02*
X45115299Y-111080113D01*
X44983438Y-111671958D02*
X45083136Y-111406194D01*
X44811394Y-111850875D02*
X44983438Y-111671958D01*
X44562189Y-111916409D02*
X44811394Y-111850875D01*
X44275792Y-111834201D02*
X44562189Y-111916409D01*
X44090147Y-111586757D02*
X44275792Y-111834201D01*
X43987733Y-111172850D02*
X44090147Y-111586757D01*
X43951029Y-110591253D02*
X43987733Y-111172850D01*
X44100791Y-110442014D02*
X43951029Y-110591253D01*
X44266234Y-110333194D02*
X44100791Y-110442014D01*
X46131603Y-111022235D02*
X46131603Y-111022235D01*
X40020175Y-110739220D02*
X39754817Y-110333948D01*
X39727515Y-111187901D02*
X40020175Y-110739220D01*
X39434854Y-111636582D02*
X39727515Y-111187901D01*
X39142193Y-112085262D02*
X39434854Y-111636582D01*
X44441334Y-110266588D02*
X44266234Y-110333194D01*
X44620067Y-110243988D02*
X44441334Y-110266588D01*
X44830360Y-110288712D02*
X44620067Y-110243988D01*
D13*
G04 #@! TO.C,R16*
X320644018Y-105225780D02*
X320126862Y-105225780D01*
X320644018Y-106645780D02*
X320126862Y-106645780D01*
G04 #@! TO.C,R1*
X71635118Y-105106400D02*
X71117962Y-105106400D01*
X71635118Y-106526400D02*
X71117962Y-106526400D01*
G04 #@! TO.C,C13*
X277376820Y-111037898D02*
X277376820Y-110520742D01*
X278796820Y-111037898D02*
X278796820Y-110520742D01*
G04 #@! TO.C,C14*
X295463486Y-111037898D02*
X295463486Y-110520742D01*
X294043486Y-111037898D02*
X294043486Y-110520742D01*
G04 #@! TO.C,C15*
X301505118Y-106526400D02*
X300987962Y-106526400D01*
X301505118Y-105106400D02*
X300987962Y-105106400D01*
G04 #@! TO.C,C16*
X316132978Y-105205460D02*
X315615822Y-105205460D01*
X316132978Y-106625460D02*
X315615822Y-106625460D01*
G04 #@! TO.C,D16*
X323247322Y-113123160D02*
X315947322Y-113123160D01*
X323247322Y-111973160D02*
X323247322Y-113123160D01*
X323247322Y-107623160D02*
X315947322Y-107623160D01*
G04 #@! TO.C,D15*
X306580657Y-107623160D02*
X299280657Y-107623160D01*
X306580657Y-111973160D02*
X306580657Y-113123160D01*
X306580657Y-113123160D02*
X299280657Y-113123160D01*
G04 #@! TO.C,D14*
X289913992Y-113123160D02*
X282613992Y-113123160D01*
X289913992Y-111973160D02*
X289913992Y-113123160D01*
X289913992Y-107623160D02*
X282613992Y-107623160D01*
G04 #@! TO.C,D13*
X273247327Y-107623160D02*
X265947327Y-107623160D01*
X273247327Y-111973160D02*
X273247327Y-113123160D01*
X273247327Y-113123160D02*
X265947327Y-113123160D01*
G04 #@! TO.C,R13*
X276056160Y-110520742D02*
X276056160Y-111037898D01*
X274636160Y-110520742D02*
X274636160Y-111037898D01*
G04 #@! TO.C,R14*
X291302826Y-110520742D02*
X291302826Y-111037898D01*
X292722826Y-110520742D02*
X292722826Y-111037898D01*
G04 #@! TO.C,R15*
X305315118Y-106526400D02*
X304797962Y-106526400D01*
X305315118Y-105106400D02*
X304797962Y-105106400D01*
D14*
G04 #@! TO.C,J1*
X55067200Y-107680760D02*
X55575200Y-107680760D01*
X55575200Y-107172760D02*
X55575200Y-107680760D01*
X55067200Y-113522760D02*
X55067200Y-107172760D01*
X60655200Y-113522760D02*
X55067200Y-113522760D01*
X60655200Y-107172760D02*
X60655200Y-113522760D01*
X55067200Y-107172760D02*
X60655200Y-107172760D01*
D13*
G04 #@! TO.C,C8*
X195135452Y-111037898D02*
X195135452Y-110520742D01*
X193715452Y-111037898D02*
X193715452Y-110520742D01*
G04 #@! TO.C,C9*
X200921118Y-105360400D02*
X200403962Y-105360400D01*
X200921118Y-106780400D02*
X200403962Y-106780400D01*
G04 #@! TO.C,C10*
X228427924Y-111037898D02*
X228427924Y-110520742D01*
X227007924Y-111037898D02*
X227007924Y-110520742D01*
G04 #@! TO.C,C11*
X245074160Y-111037898D02*
X245074160Y-110520742D01*
X243654160Y-111037898D02*
X243654160Y-110520742D01*
G04 #@! TO.C,C12*
X262175300Y-111037898D02*
X262175300Y-110520742D01*
X260755300Y-111037898D02*
X260755300Y-110520742D01*
G04 #@! TO.C,D1*
X73256160Y-113123160D02*
X65956160Y-113123160D01*
X73256160Y-111973160D02*
X73256160Y-113123160D01*
X73256160Y-107623160D02*
X65956160Y-107623160D01*
G04 #@! TO.C,D2*
X89922023Y-113123160D02*
X82622023Y-113123160D01*
X89922023Y-111973160D02*
X89922023Y-113123160D01*
X89922023Y-107623160D02*
X82622023Y-107623160D01*
G04 #@! TO.C,D12*
X256580660Y-113123160D02*
X249280660Y-113123160D01*
X256580660Y-111973160D02*
X256580660Y-113123160D01*
X256580660Y-107623160D02*
X249280660Y-107623160D01*
G04 #@! TO.C,D11*
X239914790Y-113123160D02*
X232614790Y-113123160D01*
X239914790Y-111973160D02*
X239914790Y-113123160D01*
X239914790Y-107623160D02*
X232614790Y-107623160D01*
G04 #@! TO.C,D10*
X223248927Y-113123160D02*
X215948927Y-113123160D01*
X223248927Y-111973160D02*
X223248927Y-113123160D01*
X223248927Y-107623160D02*
X215948927Y-107623160D01*
G04 #@! TO.C,D9*
X206583064Y-113123160D02*
X199283064Y-113123160D01*
X206583064Y-111973160D02*
X206583064Y-113123160D01*
X206583064Y-107623160D02*
X199283064Y-107623160D01*
G04 #@! TO.C,D8*
X189917201Y-113123160D02*
X182617201Y-113123160D01*
X189917201Y-111973160D02*
X189917201Y-113123160D01*
X189917201Y-107623160D02*
X182617201Y-107623160D01*
G04 #@! TO.C,D7*
X173251338Y-113123160D02*
X165951338Y-113123160D01*
X173251338Y-111973160D02*
X173251338Y-113123160D01*
X173251338Y-107623160D02*
X165951338Y-107623160D01*
G04 #@! TO.C,D6*
X156585475Y-113123160D02*
X149285475Y-113123160D01*
X156585475Y-111973160D02*
X156585475Y-113123160D01*
X156585475Y-107623160D02*
X149285475Y-107623160D01*
G04 #@! TO.C,D5*
X139919612Y-113123160D02*
X132619612Y-113123160D01*
X139919612Y-111973160D02*
X139919612Y-113123160D01*
X139919612Y-107623160D02*
X132619612Y-107623160D01*
G04 #@! TO.C,D4*
X123253749Y-113123160D02*
X115953749Y-113123160D01*
X123253749Y-111973160D02*
X123253749Y-113123160D01*
X123253749Y-107623160D02*
X115953749Y-107623160D01*
G04 #@! TO.C,D3*
X106587886Y-113123160D02*
X99287886Y-113123160D01*
X106587886Y-111973160D02*
X106587886Y-113123160D01*
X106587886Y-107623160D02*
X99287886Y-107623160D01*
G04 #@! TO.C,R2*
X91044036Y-110520742D02*
X91044036Y-111037898D01*
X92464036Y-110520742D02*
X92464036Y-111037898D01*
G04 #@! TO.C,R3*
X107690272Y-110520742D02*
X107690272Y-111037898D01*
X109110272Y-110520742D02*
X109110272Y-111037898D01*
G04 #@! TO.C,R4*
X124336508Y-110520742D02*
X124336508Y-111037898D01*
X125756508Y-110520742D02*
X125756508Y-111037898D01*
G04 #@! TO.C,R5*
X140982744Y-110520742D02*
X140982744Y-111037898D01*
X142402744Y-110520742D02*
X142402744Y-111037898D01*
G04 #@! TO.C,R6*
X157628980Y-110520742D02*
X157628980Y-111037898D01*
X159048980Y-110520742D02*
X159048980Y-111037898D01*
G04 #@! TO.C,R7*
X174275216Y-110520742D02*
X174275216Y-111037898D01*
X175695216Y-110520742D02*
X175695216Y-111037898D01*
G04 #@! TO.C,R8*
X190921452Y-110520742D02*
X190921452Y-111037898D01*
X192341452Y-110520742D02*
X192341452Y-111037898D01*
G04 #@! TO.C,R9*
X204731118Y-105360400D02*
X204213962Y-105360400D01*
X204731118Y-106780400D02*
X204213962Y-106780400D01*
G04 #@! TO.C,R10*
X224213924Y-110520742D02*
X224213924Y-111037898D01*
X225633924Y-110520742D02*
X225633924Y-111037898D01*
G04 #@! TO.C,R11*
X240860160Y-110520742D02*
X240860160Y-111037898D01*
X242280160Y-110520742D02*
X242280160Y-111037898D01*
G04 #@! TO.C,R12*
X257864300Y-110520742D02*
X257864300Y-111037898D01*
X259284300Y-110520742D02*
X259284300Y-111037898D01*
G04 #@! TO.C,C7*
X178489216Y-111037898D02*
X178489216Y-110520742D01*
X177069216Y-111037898D02*
X177069216Y-110520742D01*
G04 #@! TO.C,C6*
X161842980Y-111037898D02*
X161842980Y-110520742D01*
X160422980Y-111037898D02*
X160422980Y-110520742D01*
G04 #@! TO.C,C5*
X145196744Y-111037898D02*
X145196744Y-110520742D01*
X143776744Y-111037898D02*
X143776744Y-110520742D01*
G04 #@! TO.C,C4*
X128550508Y-111037898D02*
X128550508Y-110520742D01*
X127130508Y-111037898D02*
X127130508Y-110520742D01*
G04 #@! TO.C,C3*
X111904272Y-111037898D02*
X111904272Y-110520742D01*
X110484272Y-111037898D02*
X110484272Y-110520742D01*
G04 #@! TO.C,C2*
X95258036Y-111037898D02*
X95258036Y-110520742D01*
X93838036Y-111037898D02*
X93838036Y-110520742D01*
G04 #@! TO.C,C1*
X69857118Y-102312400D02*
X69339962Y-102312400D01*
X69857118Y-103732400D02*
X69339962Y-103732400D01*
D14*
G04 #@! TO.C,J2*
X328612500Y-107251500D02*
X329120500Y-107251500D01*
X329120500Y-106743500D02*
X329120500Y-107251500D01*
X328612500Y-113093500D02*
X328612500Y-106743500D01*
X334200500Y-113093500D02*
X328612500Y-113093500D01*
X334200500Y-106743500D02*
X334200500Y-113093500D01*
X328612500Y-106743500D02*
X334200500Y-106743500D01*
G04 #@! TO.C,R16*
X323182240Y-106445557D02*
X322706050Y-106778890D01*
X323182240Y-107016985D02*
X322182240Y-107016985D01*
X322182240Y-106636033D01*
X322229860Y-106540795D01*
X322277479Y-106493176D01*
X322372717Y-106445557D01*
X322515574Y-106445557D01*
X322610812Y-106493176D01*
X322658431Y-106540795D01*
X322706050Y-106636033D01*
X322706050Y-107016985D01*
X323182240Y-105493176D02*
X323182240Y-106064604D01*
X323182240Y-105778890D02*
X322182240Y-105778890D01*
X322325098Y-105874128D01*
X322420336Y-105969366D01*
X322467955Y-106064604D01*
X322182240Y-104636033D02*
X322182240Y-104826509D01*
X322229860Y-104921747D01*
X322277479Y-104969366D01*
X322420336Y-105064604D01*
X322610812Y-105112223D01*
X322991764Y-105112223D01*
X323087002Y-105064604D01*
X323134621Y-105016985D01*
X323182240Y-104921747D01*
X323182240Y-104731271D01*
X323134621Y-104636033D01*
X323087002Y-104588414D01*
X322991764Y-104540795D01*
X322753669Y-104540795D01*
X322658431Y-104588414D01*
X322610812Y-104636033D01*
X322563193Y-104731271D01*
X322563193Y-104921747D01*
X322610812Y-105016985D01*
X322658431Y-105064604D01*
X322753669Y-105112223D01*
G04 #@! TO.C,R1*
X73288659Y-105649733D02*
X73764849Y-105316400D01*
X73288659Y-105078304D02*
X74288659Y-105078304D01*
X74288659Y-105459257D01*
X74241040Y-105554495D01*
X74193420Y-105602114D01*
X74098182Y-105649733D01*
X73955325Y-105649733D01*
X73860087Y-105602114D01*
X73812468Y-105554495D01*
X73764849Y-105459257D01*
X73764849Y-105078304D01*
X73288659Y-106602114D02*
X73288659Y-106030685D01*
X73288659Y-106316400D02*
X74288659Y-106316400D01*
X74145801Y-106221161D01*
X74050563Y-106125923D01*
X74002944Y-106030685D01*
G04 #@! TO.C,C13*
X277444962Y-108792042D02*
X277397343Y-108839661D01*
X277254486Y-108887280D01*
X277159248Y-108887280D01*
X277016391Y-108839661D01*
X276921153Y-108744423D01*
X276873534Y-108649185D01*
X276825915Y-108458709D01*
X276825915Y-108315852D01*
X276873534Y-108125376D01*
X276921153Y-108030138D01*
X277016391Y-107934900D01*
X277159248Y-107887280D01*
X277254486Y-107887280D01*
X277397343Y-107934900D01*
X277444962Y-107982519D01*
X278397343Y-108887280D02*
X277825915Y-108887280D01*
X278111629Y-108887280D02*
X278111629Y-107887280D01*
X278016391Y-108030138D01*
X277921153Y-108125376D01*
X277825915Y-108172995D01*
X278730677Y-107887280D02*
X279349724Y-107887280D01*
X279016391Y-108268233D01*
X279159248Y-108268233D01*
X279254486Y-108315852D01*
X279302105Y-108363471D01*
X279349724Y-108458709D01*
X279349724Y-108696804D01*
X279302105Y-108792042D01*
X279254486Y-108839661D01*
X279159248Y-108887280D01*
X278873534Y-108887280D01*
X278778296Y-108839661D01*
X278730677Y-108792042D01*
G04 #@! TO.C,C14*
X294111628Y-108792042D02*
X294064009Y-108839661D01*
X293921152Y-108887280D01*
X293825914Y-108887280D01*
X293683057Y-108839661D01*
X293587819Y-108744423D01*
X293540200Y-108649185D01*
X293492581Y-108458709D01*
X293492581Y-108315852D01*
X293540200Y-108125376D01*
X293587819Y-108030138D01*
X293683057Y-107934900D01*
X293825914Y-107887280D01*
X293921152Y-107887280D01*
X294064009Y-107934900D01*
X294111628Y-107982519D01*
X295064009Y-108887280D02*
X294492581Y-108887280D01*
X294778295Y-108887280D02*
X294778295Y-107887280D01*
X294683057Y-108030138D01*
X294587819Y-108125376D01*
X294492581Y-108172995D01*
X295921152Y-108220614D02*
X295921152Y-108887280D01*
X295683057Y-107839661D02*
X295444962Y-108553947D01*
X296064009Y-108553947D01*
G04 #@! TO.C,C15*
X299259262Y-106458257D02*
X299306881Y-106505876D01*
X299354500Y-106648733D01*
X299354500Y-106743971D01*
X299306881Y-106886828D01*
X299211643Y-106982066D01*
X299116405Y-107029685D01*
X298925929Y-107077304D01*
X298783072Y-107077304D01*
X298592596Y-107029685D01*
X298497358Y-106982066D01*
X298402120Y-106886828D01*
X298354500Y-106743971D01*
X298354500Y-106648733D01*
X298402120Y-106505876D01*
X298449739Y-106458257D01*
X299354500Y-105505876D02*
X299354500Y-106077304D01*
X299354500Y-105791590D02*
X298354500Y-105791590D01*
X298497358Y-105886828D01*
X298592596Y-105982066D01*
X298640215Y-106077304D01*
X298354500Y-104601114D02*
X298354500Y-105077304D01*
X298830691Y-105124923D01*
X298783072Y-105077304D01*
X298735453Y-104982066D01*
X298735453Y-104743971D01*
X298783072Y-104648733D01*
X298830691Y-104601114D01*
X298925929Y-104553495D01*
X299164024Y-104553495D01*
X299259262Y-104601114D01*
X299306881Y-104648733D01*
X299354500Y-104743971D01*
X299354500Y-104982066D01*
X299306881Y-105077304D01*
X299259262Y-105124923D01*
G04 #@! TO.C,C16*
X313887122Y-106557317D02*
X313934741Y-106604936D01*
X313982360Y-106747793D01*
X313982360Y-106843031D01*
X313934741Y-106985888D01*
X313839503Y-107081126D01*
X313744265Y-107128745D01*
X313553789Y-107176364D01*
X313410932Y-107176364D01*
X313220456Y-107128745D01*
X313125218Y-107081126D01*
X313029980Y-106985888D01*
X312982360Y-106843031D01*
X312982360Y-106747793D01*
X313029980Y-106604936D01*
X313077599Y-106557317D01*
X313982360Y-105604936D02*
X313982360Y-106176364D01*
X313982360Y-105890650D02*
X312982360Y-105890650D01*
X313125218Y-105985888D01*
X313220456Y-106081126D01*
X313268075Y-106176364D01*
X312982360Y-104747793D02*
X312982360Y-104938269D01*
X313029980Y-105033507D01*
X313077599Y-105081126D01*
X313220456Y-105176364D01*
X313410932Y-105223983D01*
X313791884Y-105223983D01*
X313887122Y-105176364D01*
X313934741Y-105128745D01*
X313982360Y-105033507D01*
X313982360Y-104843031D01*
X313934741Y-104747793D01*
X313887122Y-104700174D01*
X313791884Y-104652555D01*
X313553789Y-104652555D01*
X313458551Y-104700174D01*
X313410932Y-104747793D01*
X313363313Y-104843031D01*
X313363313Y-105033507D01*
X313410932Y-105128745D01*
X313458551Y-105176364D01*
X313553789Y-105223983D01*
G04 #@! TO.C,D16*
X318383036Y-114325540D02*
X318383036Y-113325540D01*
X318621131Y-113325540D01*
X318763988Y-113373160D01*
X318859226Y-113468398D01*
X318906845Y-113563636D01*
X318954464Y-113754112D01*
X318954464Y-113896969D01*
X318906845Y-114087445D01*
X318859226Y-114182683D01*
X318763988Y-114277921D01*
X318621131Y-114325540D01*
X318383036Y-114325540D01*
X319906845Y-114325540D02*
X319335417Y-114325540D01*
X319621131Y-114325540D02*
X319621131Y-113325540D01*
X319525893Y-113468398D01*
X319430655Y-113563636D01*
X319335417Y-113611255D01*
X320763988Y-113325540D02*
X320573512Y-113325540D01*
X320478274Y-113373160D01*
X320430655Y-113420779D01*
X320335417Y-113563636D01*
X320287798Y-113754112D01*
X320287798Y-114135064D01*
X320335417Y-114230302D01*
X320383036Y-114277921D01*
X320478274Y-114325540D01*
X320668750Y-114325540D01*
X320763988Y-114277921D01*
X320811607Y-114230302D01*
X320859226Y-114135064D01*
X320859226Y-113896969D01*
X320811607Y-113801731D01*
X320763988Y-113754112D01*
X320668750Y-113706493D01*
X320478274Y-113706493D01*
X320383036Y-113754112D01*
X320335417Y-113801731D01*
X320287798Y-113896969D01*
G04 #@! TO.C,D15*
X301716371Y-114325540D02*
X301716371Y-113325540D01*
X301954466Y-113325540D01*
X302097323Y-113373160D01*
X302192561Y-113468398D01*
X302240180Y-113563636D01*
X302287799Y-113754112D01*
X302287799Y-113896969D01*
X302240180Y-114087445D01*
X302192561Y-114182683D01*
X302097323Y-114277921D01*
X301954466Y-114325540D01*
X301716371Y-114325540D01*
X303240180Y-114325540D02*
X302668752Y-114325540D01*
X302954466Y-114325540D02*
X302954466Y-113325540D01*
X302859228Y-113468398D01*
X302763990Y-113563636D01*
X302668752Y-113611255D01*
X304144942Y-113325540D02*
X303668752Y-113325540D01*
X303621133Y-113801731D01*
X303668752Y-113754112D01*
X303763990Y-113706493D01*
X304002085Y-113706493D01*
X304097323Y-113754112D01*
X304144942Y-113801731D01*
X304192561Y-113896969D01*
X304192561Y-114135064D01*
X304144942Y-114230302D01*
X304097323Y-114277921D01*
X304002085Y-114325540D01*
X303763990Y-114325540D01*
X303668752Y-114277921D01*
X303621133Y-114230302D01*
G04 #@! TO.C,D14*
X285049706Y-114325540D02*
X285049706Y-113325540D01*
X285287801Y-113325540D01*
X285430658Y-113373160D01*
X285525896Y-113468398D01*
X285573515Y-113563636D01*
X285621134Y-113754112D01*
X285621134Y-113896969D01*
X285573515Y-114087445D01*
X285525896Y-114182683D01*
X285430658Y-114277921D01*
X285287801Y-114325540D01*
X285049706Y-114325540D01*
X286573515Y-114325540D02*
X286002087Y-114325540D01*
X286287801Y-114325540D02*
X286287801Y-113325540D01*
X286192563Y-113468398D01*
X286097325Y-113563636D01*
X286002087Y-113611255D01*
X287430658Y-113658874D02*
X287430658Y-114325540D01*
X287192563Y-113277921D02*
X286954468Y-113992207D01*
X287573515Y-113992207D01*
G04 #@! TO.C,D13*
X268383041Y-114325540D02*
X268383041Y-113325540D01*
X268621136Y-113325540D01*
X268763993Y-113373160D01*
X268859231Y-113468398D01*
X268906850Y-113563636D01*
X268954469Y-113754112D01*
X268954469Y-113896969D01*
X268906850Y-114087445D01*
X268859231Y-114182683D01*
X268763993Y-114277921D01*
X268621136Y-114325540D01*
X268383041Y-114325540D01*
X269906850Y-114325540D02*
X269335422Y-114325540D01*
X269621136Y-114325540D02*
X269621136Y-113325540D01*
X269525898Y-113468398D01*
X269430660Y-113563636D01*
X269335422Y-113611255D01*
X270240184Y-113325540D02*
X270859231Y-113325540D01*
X270525898Y-113706493D01*
X270668755Y-113706493D01*
X270763993Y-113754112D01*
X270811612Y-113801731D01*
X270859231Y-113896969D01*
X270859231Y-114135064D01*
X270811612Y-114230302D01*
X270763993Y-114277921D01*
X270668755Y-114325540D01*
X270383041Y-114325540D01*
X270287803Y-114277921D01*
X270240184Y-114230302D01*
G04 #@! TO.C,R13*
X274570222Y-108887280D02*
X274236889Y-108411090D01*
X273998794Y-108887280D02*
X273998794Y-107887280D01*
X274379746Y-107887280D01*
X274474984Y-107934900D01*
X274522603Y-107982519D01*
X274570222Y-108077757D01*
X274570222Y-108220614D01*
X274522603Y-108315852D01*
X274474984Y-108363471D01*
X274379746Y-108411090D01*
X273998794Y-108411090D01*
X275522603Y-108887280D02*
X274951175Y-108887280D01*
X275236889Y-108887280D02*
X275236889Y-107887280D01*
X275141651Y-108030138D01*
X275046413Y-108125376D01*
X274951175Y-108172995D01*
X275855937Y-107887280D02*
X276474984Y-107887280D01*
X276141651Y-108268233D01*
X276284508Y-108268233D01*
X276379746Y-108315852D01*
X276427365Y-108363471D01*
X276474984Y-108458709D01*
X276474984Y-108696804D01*
X276427365Y-108792042D01*
X276379746Y-108839661D01*
X276284508Y-108887280D01*
X275998794Y-108887280D01*
X275903556Y-108839661D01*
X275855937Y-108792042D01*
G04 #@! TO.C,R14*
X291236888Y-108887280D02*
X290903555Y-108411090D01*
X290665460Y-108887280D02*
X290665460Y-107887280D01*
X291046412Y-107887280D01*
X291141650Y-107934900D01*
X291189269Y-107982519D01*
X291236888Y-108077757D01*
X291236888Y-108220614D01*
X291189269Y-108315852D01*
X291141650Y-108363471D01*
X291046412Y-108411090D01*
X290665460Y-108411090D01*
X292189269Y-108887280D02*
X291617841Y-108887280D01*
X291903555Y-108887280D02*
X291903555Y-107887280D01*
X291808317Y-108030138D01*
X291713079Y-108125376D01*
X291617841Y-108172995D01*
X293046412Y-108220614D02*
X293046412Y-108887280D01*
X292808317Y-107839661D02*
X292570222Y-108553947D01*
X293189269Y-108553947D01*
G04 #@! TO.C,R15*
X306948579Y-105040462D02*
X307424769Y-104707129D01*
X306948579Y-104469034D02*
X307948579Y-104469034D01*
X307948579Y-104849986D01*
X307900960Y-104945224D01*
X307853340Y-104992843D01*
X307758102Y-105040462D01*
X307615245Y-105040462D01*
X307520007Y-104992843D01*
X307472388Y-104945224D01*
X307424769Y-104849986D01*
X307424769Y-104469034D01*
X306948579Y-105992843D02*
X306948579Y-105421415D01*
X306948579Y-105707129D02*
X307948579Y-105707129D01*
X307805721Y-105611891D01*
X307710483Y-105516653D01*
X307662864Y-105421415D01*
X307948579Y-106897605D02*
X307948579Y-106421415D01*
X307472388Y-106373796D01*
X307520007Y-106421415D01*
X307567626Y-106516653D01*
X307567626Y-106754748D01*
X307520007Y-106849986D01*
X307472388Y-106897605D01*
X307377150Y-106945224D01*
X307139055Y-106945224D01*
X307043817Y-106897605D01*
X306996198Y-106849986D01*
X306948579Y-106754748D01*
X306948579Y-106516653D01*
X306996198Y-106421415D01*
X307043817Y-106373796D01*
G04 #@! TO.C,J1*
X57527866Y-105609140D02*
X57527866Y-106323426D01*
X57480247Y-106466283D01*
X57385009Y-106561521D01*
X57242152Y-106609140D01*
X57146914Y-106609140D01*
X58527866Y-106609140D02*
X57956438Y-106609140D01*
X58242152Y-106609140D02*
X58242152Y-105609140D01*
X58146914Y-105751998D01*
X58051676Y-105847236D01*
X57956438Y-105894855D01*
G04 #@! TO.C,C8*
X194132785Y-108596462D02*
X194085166Y-108644081D01*
X193942309Y-108691700D01*
X193847071Y-108691700D01*
X193704213Y-108644081D01*
X193608975Y-108548843D01*
X193561356Y-108453605D01*
X193513737Y-108263129D01*
X193513737Y-108120272D01*
X193561356Y-107929796D01*
X193608975Y-107834558D01*
X193704213Y-107739320D01*
X193847071Y-107691700D01*
X193942309Y-107691700D01*
X194085166Y-107739320D01*
X194132785Y-107786939D01*
X194704213Y-108120272D02*
X194608975Y-108072653D01*
X194561356Y-108025034D01*
X194513737Y-107929796D01*
X194513737Y-107882177D01*
X194561356Y-107786939D01*
X194608975Y-107739320D01*
X194704213Y-107691700D01*
X194894690Y-107691700D01*
X194989928Y-107739320D01*
X195037547Y-107786939D01*
X195085166Y-107882177D01*
X195085166Y-107929796D01*
X195037547Y-108025034D01*
X194989928Y-108072653D01*
X194894690Y-108120272D01*
X194704213Y-108120272D01*
X194608975Y-108167891D01*
X194561356Y-108215510D01*
X194513737Y-108310748D01*
X194513737Y-108501224D01*
X194561356Y-108596462D01*
X194608975Y-108644081D01*
X194704213Y-108691700D01*
X194894690Y-108691700D01*
X194989928Y-108644081D01*
X195037547Y-108596462D01*
X195085166Y-108501224D01*
X195085166Y-108310748D01*
X195037547Y-108215510D01*
X194989928Y-108167891D01*
X194894690Y-108120272D01*
G04 #@! TO.C,C9*
X198479682Y-106363066D02*
X198527301Y-106410685D01*
X198574920Y-106553542D01*
X198574920Y-106648780D01*
X198527301Y-106791638D01*
X198432063Y-106886876D01*
X198336825Y-106934495D01*
X198146349Y-106982114D01*
X198003492Y-106982114D01*
X197813016Y-106934495D01*
X197717778Y-106886876D01*
X197622540Y-106791638D01*
X197574920Y-106648780D01*
X197574920Y-106553542D01*
X197622540Y-106410685D01*
X197670159Y-106363066D01*
X198574920Y-105886876D02*
X198574920Y-105696400D01*
X198527301Y-105601161D01*
X198479682Y-105553542D01*
X198336825Y-105458304D01*
X198146349Y-105410685D01*
X197765397Y-105410685D01*
X197670159Y-105458304D01*
X197622540Y-105505923D01*
X197574920Y-105601161D01*
X197574920Y-105791638D01*
X197622540Y-105886876D01*
X197670159Y-105934495D01*
X197765397Y-105982114D01*
X198003492Y-105982114D01*
X198098730Y-105934495D01*
X198146349Y-105886876D01*
X198193968Y-105791638D01*
X198193968Y-105601161D01*
X198146349Y-105505923D01*
X198098730Y-105458304D01*
X198003492Y-105410685D01*
G04 #@! TO.C,C10*
X226949066Y-108596462D02*
X226901447Y-108644081D01*
X226758590Y-108691700D01*
X226663352Y-108691700D01*
X226520495Y-108644081D01*
X226425257Y-108548843D01*
X226377638Y-108453605D01*
X226330019Y-108263129D01*
X226330019Y-108120272D01*
X226377638Y-107929796D01*
X226425257Y-107834558D01*
X226520495Y-107739320D01*
X226663352Y-107691700D01*
X226758590Y-107691700D01*
X226901447Y-107739320D01*
X226949066Y-107786939D01*
X227901447Y-108691700D02*
X227330019Y-108691700D01*
X227615733Y-108691700D02*
X227615733Y-107691700D01*
X227520495Y-107834558D01*
X227425257Y-107929796D01*
X227330019Y-107977415D01*
X228520495Y-107691700D02*
X228615733Y-107691700D01*
X228710971Y-107739320D01*
X228758590Y-107786939D01*
X228806209Y-107882177D01*
X228853828Y-108072653D01*
X228853828Y-108310748D01*
X228806209Y-108501224D01*
X228758590Y-108596462D01*
X228710971Y-108644081D01*
X228615733Y-108691700D01*
X228520495Y-108691700D01*
X228425257Y-108644081D01*
X228377638Y-108596462D01*
X228330019Y-108501224D01*
X228282400Y-108310748D01*
X228282400Y-108072653D01*
X228330019Y-107882177D01*
X228377638Y-107786939D01*
X228425257Y-107739320D01*
X228520495Y-107691700D01*
G04 #@! TO.C,C11*
X243595302Y-108596462D02*
X243547683Y-108644081D01*
X243404826Y-108691700D01*
X243309588Y-108691700D01*
X243166731Y-108644081D01*
X243071493Y-108548843D01*
X243023874Y-108453605D01*
X242976255Y-108263129D01*
X242976255Y-108120272D01*
X243023874Y-107929796D01*
X243071493Y-107834558D01*
X243166731Y-107739320D01*
X243309588Y-107691700D01*
X243404826Y-107691700D01*
X243547683Y-107739320D01*
X243595302Y-107786939D01*
X244547683Y-108691700D02*
X243976255Y-108691700D01*
X244261969Y-108691700D02*
X244261969Y-107691700D01*
X244166731Y-107834558D01*
X244071493Y-107929796D01*
X243976255Y-107977415D01*
X245500064Y-108691700D02*
X244928636Y-108691700D01*
X245214350Y-108691700D02*
X245214350Y-107691700D01*
X245119112Y-107834558D01*
X245023874Y-107929796D01*
X244928636Y-107977415D01*
G04 #@! TO.C,C12*
X260773942Y-108517962D02*
X260726323Y-108565581D01*
X260583466Y-108613200D01*
X260488228Y-108613200D01*
X260345371Y-108565581D01*
X260250133Y-108470343D01*
X260202514Y-108375105D01*
X260154895Y-108184629D01*
X260154895Y-108041772D01*
X260202514Y-107851296D01*
X260250133Y-107756058D01*
X260345371Y-107660820D01*
X260488228Y-107613200D01*
X260583466Y-107613200D01*
X260726323Y-107660820D01*
X260773942Y-107708439D01*
X261726323Y-108613200D02*
X261154895Y-108613200D01*
X261440609Y-108613200D02*
X261440609Y-107613200D01*
X261345371Y-107756058D01*
X261250133Y-107851296D01*
X261154895Y-107898915D01*
X262107276Y-107708439D02*
X262154895Y-107660820D01*
X262250133Y-107613200D01*
X262488228Y-107613200D01*
X262583466Y-107660820D01*
X262631085Y-107708439D01*
X262678704Y-107803677D01*
X262678704Y-107898915D01*
X262631085Y-108041772D01*
X262059657Y-108613200D01*
X262678704Y-108613200D01*
G04 #@! TO.C,D1*
X68868064Y-114325540D02*
X68868064Y-113325540D01*
X69106160Y-113325540D01*
X69249017Y-113373160D01*
X69344255Y-113468398D01*
X69391874Y-113563636D01*
X69439493Y-113754112D01*
X69439493Y-113896969D01*
X69391874Y-114087445D01*
X69344255Y-114182683D01*
X69249017Y-114277921D01*
X69106160Y-114325540D01*
X68868064Y-114325540D01*
X70391874Y-114325540D02*
X69820445Y-114325540D01*
X70106160Y-114325540D02*
X70106160Y-113325540D01*
X70010921Y-113468398D01*
X69915683Y-113563636D01*
X69820445Y-113611255D01*
G04 #@! TO.C,D2*
X85533927Y-114325540D02*
X85533927Y-113325540D01*
X85772023Y-113325540D01*
X85914880Y-113373160D01*
X86010118Y-113468398D01*
X86057737Y-113563636D01*
X86105356Y-113754112D01*
X86105356Y-113896969D01*
X86057737Y-114087445D01*
X86010118Y-114182683D01*
X85914880Y-114277921D01*
X85772023Y-114325540D01*
X85533927Y-114325540D01*
X86486308Y-113420779D02*
X86533927Y-113373160D01*
X86629165Y-113325540D01*
X86867261Y-113325540D01*
X86962499Y-113373160D01*
X87010118Y-113420779D01*
X87057737Y-113516017D01*
X87057737Y-113611255D01*
X87010118Y-113754112D01*
X86438689Y-114325540D01*
X87057737Y-114325540D01*
G04 #@! TO.C,D12*
X251716374Y-114325540D02*
X251716374Y-113325540D01*
X251954469Y-113325540D01*
X252097326Y-113373160D01*
X252192564Y-113468398D01*
X252240183Y-113563636D01*
X252287802Y-113754112D01*
X252287802Y-113896969D01*
X252240183Y-114087445D01*
X252192564Y-114182683D01*
X252097326Y-114277921D01*
X251954469Y-114325540D01*
X251716374Y-114325540D01*
X253240183Y-114325540D02*
X252668755Y-114325540D01*
X252954469Y-114325540D02*
X252954469Y-113325540D01*
X252859231Y-113468398D01*
X252763993Y-113563636D01*
X252668755Y-113611255D01*
X253621136Y-113420779D02*
X253668755Y-113373160D01*
X253763993Y-113325540D01*
X254002088Y-113325540D01*
X254097326Y-113373160D01*
X254144945Y-113420779D01*
X254192564Y-113516017D01*
X254192564Y-113611255D01*
X254144945Y-113754112D01*
X253573517Y-114325540D01*
X254192564Y-114325540D01*
G04 #@! TO.C,D11*
X235050504Y-114325540D02*
X235050504Y-113325540D01*
X235288599Y-113325540D01*
X235431456Y-113373160D01*
X235526694Y-113468398D01*
X235574313Y-113563636D01*
X235621932Y-113754112D01*
X235621932Y-113896969D01*
X235574313Y-114087445D01*
X235526694Y-114182683D01*
X235431456Y-114277921D01*
X235288599Y-114325540D01*
X235050504Y-114325540D01*
X236574313Y-114325540D02*
X236002885Y-114325540D01*
X236288599Y-114325540D02*
X236288599Y-113325540D01*
X236193361Y-113468398D01*
X236098123Y-113563636D01*
X236002885Y-113611255D01*
X237526694Y-114325540D02*
X236955266Y-114325540D01*
X237240980Y-114325540D02*
X237240980Y-113325540D01*
X237145742Y-113468398D01*
X237050504Y-113563636D01*
X236955266Y-113611255D01*
G04 #@! TO.C,D10*
X218384641Y-114325540D02*
X218384641Y-113325540D01*
X218622736Y-113325540D01*
X218765593Y-113373160D01*
X218860831Y-113468398D01*
X218908450Y-113563636D01*
X218956069Y-113754112D01*
X218956069Y-113896969D01*
X218908450Y-114087445D01*
X218860831Y-114182683D01*
X218765593Y-114277921D01*
X218622736Y-114325540D01*
X218384641Y-114325540D01*
X219908450Y-114325540D02*
X219337022Y-114325540D01*
X219622736Y-114325540D02*
X219622736Y-113325540D01*
X219527498Y-113468398D01*
X219432260Y-113563636D01*
X219337022Y-113611255D01*
X220527498Y-113325540D02*
X220622736Y-113325540D01*
X220717974Y-113373160D01*
X220765593Y-113420779D01*
X220813212Y-113516017D01*
X220860831Y-113706493D01*
X220860831Y-113944588D01*
X220813212Y-114135064D01*
X220765593Y-114230302D01*
X220717974Y-114277921D01*
X220622736Y-114325540D01*
X220527498Y-114325540D01*
X220432260Y-114277921D01*
X220384641Y-114230302D01*
X220337022Y-114135064D01*
X220289403Y-113944588D01*
X220289403Y-113706493D01*
X220337022Y-113516017D01*
X220384641Y-113420779D01*
X220432260Y-113373160D01*
X220527498Y-113325540D01*
G04 #@! TO.C,D9*
X202194968Y-114325540D02*
X202194968Y-113325540D01*
X202433064Y-113325540D01*
X202575921Y-113373160D01*
X202671159Y-113468398D01*
X202718778Y-113563636D01*
X202766397Y-113754112D01*
X202766397Y-113896969D01*
X202718778Y-114087445D01*
X202671159Y-114182683D01*
X202575921Y-114277921D01*
X202433064Y-114325540D01*
X202194968Y-114325540D01*
X203242587Y-114325540D02*
X203433064Y-114325540D01*
X203528302Y-114277921D01*
X203575921Y-114230302D01*
X203671159Y-114087445D01*
X203718778Y-113896969D01*
X203718778Y-113516017D01*
X203671159Y-113420779D01*
X203623540Y-113373160D01*
X203528302Y-113325540D01*
X203337825Y-113325540D01*
X203242587Y-113373160D01*
X203194968Y-113420779D01*
X203147349Y-113516017D01*
X203147349Y-113754112D01*
X203194968Y-113849350D01*
X203242587Y-113896969D01*
X203337825Y-113944588D01*
X203528302Y-113944588D01*
X203623540Y-113896969D01*
X203671159Y-113849350D01*
X203718778Y-113754112D01*
G04 #@! TO.C,D8*
X185529105Y-114325540D02*
X185529105Y-113325540D01*
X185767201Y-113325540D01*
X185910058Y-113373160D01*
X186005296Y-113468398D01*
X186052915Y-113563636D01*
X186100534Y-113754112D01*
X186100534Y-113896969D01*
X186052915Y-114087445D01*
X186005296Y-114182683D01*
X185910058Y-114277921D01*
X185767201Y-114325540D01*
X185529105Y-114325540D01*
X186671962Y-113754112D02*
X186576724Y-113706493D01*
X186529105Y-113658874D01*
X186481486Y-113563636D01*
X186481486Y-113516017D01*
X186529105Y-113420779D01*
X186576724Y-113373160D01*
X186671962Y-113325540D01*
X186862439Y-113325540D01*
X186957677Y-113373160D01*
X187005296Y-113420779D01*
X187052915Y-113516017D01*
X187052915Y-113563636D01*
X187005296Y-113658874D01*
X186957677Y-113706493D01*
X186862439Y-113754112D01*
X186671962Y-113754112D01*
X186576724Y-113801731D01*
X186529105Y-113849350D01*
X186481486Y-113944588D01*
X186481486Y-114135064D01*
X186529105Y-114230302D01*
X186576724Y-114277921D01*
X186671962Y-114325540D01*
X186862439Y-114325540D01*
X186957677Y-114277921D01*
X187005296Y-114230302D01*
X187052915Y-114135064D01*
X187052915Y-113944588D01*
X187005296Y-113849350D01*
X186957677Y-113801731D01*
X186862439Y-113754112D01*
G04 #@! TO.C,D7*
X168863242Y-114325540D02*
X168863242Y-113325540D01*
X169101338Y-113325540D01*
X169244195Y-113373160D01*
X169339433Y-113468398D01*
X169387052Y-113563636D01*
X169434671Y-113754112D01*
X169434671Y-113896969D01*
X169387052Y-114087445D01*
X169339433Y-114182683D01*
X169244195Y-114277921D01*
X169101338Y-114325540D01*
X168863242Y-114325540D01*
X169768004Y-113325540D02*
X170434671Y-113325540D01*
X170006099Y-114325540D01*
G04 #@! TO.C,D6*
X152197379Y-114325540D02*
X152197379Y-113325540D01*
X152435475Y-113325540D01*
X152578332Y-113373160D01*
X152673570Y-113468398D01*
X152721189Y-113563636D01*
X152768808Y-113754112D01*
X152768808Y-113896969D01*
X152721189Y-114087445D01*
X152673570Y-114182683D01*
X152578332Y-114277921D01*
X152435475Y-114325540D01*
X152197379Y-114325540D01*
X153625951Y-113325540D02*
X153435475Y-113325540D01*
X153340236Y-113373160D01*
X153292617Y-113420779D01*
X153197379Y-113563636D01*
X153149760Y-113754112D01*
X153149760Y-114135064D01*
X153197379Y-114230302D01*
X153244998Y-114277921D01*
X153340236Y-114325540D01*
X153530713Y-114325540D01*
X153625951Y-114277921D01*
X153673570Y-114230302D01*
X153721189Y-114135064D01*
X153721189Y-113896969D01*
X153673570Y-113801731D01*
X153625951Y-113754112D01*
X153530713Y-113706493D01*
X153340236Y-113706493D01*
X153244998Y-113754112D01*
X153197379Y-113801731D01*
X153149760Y-113896969D01*
G04 #@! TO.C,D5*
X135531516Y-114325540D02*
X135531516Y-113325540D01*
X135769612Y-113325540D01*
X135912469Y-113373160D01*
X136007707Y-113468398D01*
X136055326Y-113563636D01*
X136102945Y-113754112D01*
X136102945Y-113896969D01*
X136055326Y-114087445D01*
X136007707Y-114182683D01*
X135912469Y-114277921D01*
X135769612Y-114325540D01*
X135531516Y-114325540D01*
X137007707Y-113325540D02*
X136531516Y-113325540D01*
X136483897Y-113801731D01*
X136531516Y-113754112D01*
X136626754Y-113706493D01*
X136864850Y-113706493D01*
X136960088Y-113754112D01*
X137007707Y-113801731D01*
X137055326Y-113896969D01*
X137055326Y-114135064D01*
X137007707Y-114230302D01*
X136960088Y-114277921D01*
X136864850Y-114325540D01*
X136626754Y-114325540D01*
X136531516Y-114277921D01*
X136483897Y-114230302D01*
G04 #@! TO.C,D4*
X118865653Y-114325540D02*
X118865653Y-113325540D01*
X119103749Y-113325540D01*
X119246606Y-113373160D01*
X119341844Y-113468398D01*
X119389463Y-113563636D01*
X119437082Y-113754112D01*
X119437082Y-113896969D01*
X119389463Y-114087445D01*
X119341844Y-114182683D01*
X119246606Y-114277921D01*
X119103749Y-114325540D01*
X118865653Y-114325540D01*
X120294225Y-113658874D02*
X120294225Y-114325540D01*
X120056129Y-113277921D02*
X119818034Y-113992207D01*
X120437082Y-113992207D01*
G04 #@! TO.C,D3*
X102199790Y-114325540D02*
X102199790Y-113325540D01*
X102437886Y-113325540D01*
X102580743Y-113373160D01*
X102675981Y-113468398D01*
X102723600Y-113563636D01*
X102771219Y-113754112D01*
X102771219Y-113896969D01*
X102723600Y-114087445D01*
X102675981Y-114182683D01*
X102580743Y-114277921D01*
X102437886Y-114325540D01*
X102199790Y-114325540D01*
X103104552Y-113325540D02*
X103723600Y-113325540D01*
X103390266Y-113706493D01*
X103533124Y-113706493D01*
X103628362Y-113754112D01*
X103675981Y-113801731D01*
X103723600Y-113896969D01*
X103723600Y-114135064D01*
X103675981Y-114230302D01*
X103628362Y-114277921D01*
X103533124Y-114325540D01*
X103247409Y-114325540D01*
X103152171Y-114277921D01*
X103104552Y-114230302D01*
G04 #@! TO.C,R2*
X91713369Y-108691700D02*
X91380036Y-108215510D01*
X91141940Y-108691700D02*
X91141940Y-107691700D01*
X91522893Y-107691700D01*
X91618131Y-107739320D01*
X91665750Y-107786939D01*
X91713369Y-107882177D01*
X91713369Y-108025034D01*
X91665750Y-108120272D01*
X91618131Y-108167891D01*
X91522893Y-108215510D01*
X91141940Y-108215510D01*
X92094321Y-107786939D02*
X92141940Y-107739320D01*
X92237178Y-107691700D01*
X92475274Y-107691700D01*
X92570512Y-107739320D01*
X92618131Y-107786939D01*
X92665750Y-107882177D01*
X92665750Y-107977415D01*
X92618131Y-108120272D01*
X92046702Y-108691700D01*
X92665750Y-108691700D01*
G04 #@! TO.C,R3*
X108359605Y-108691700D02*
X108026272Y-108215510D01*
X107788176Y-108691700D02*
X107788176Y-107691700D01*
X108169129Y-107691700D01*
X108264367Y-107739320D01*
X108311986Y-107786939D01*
X108359605Y-107882177D01*
X108359605Y-108025034D01*
X108311986Y-108120272D01*
X108264367Y-108167891D01*
X108169129Y-108215510D01*
X107788176Y-108215510D01*
X108692938Y-107691700D02*
X109311986Y-107691700D01*
X108978652Y-108072653D01*
X109121510Y-108072653D01*
X109216748Y-108120272D01*
X109264367Y-108167891D01*
X109311986Y-108263129D01*
X109311986Y-108501224D01*
X109264367Y-108596462D01*
X109216748Y-108644081D01*
X109121510Y-108691700D01*
X108835795Y-108691700D01*
X108740557Y-108644081D01*
X108692938Y-108596462D01*
G04 #@! TO.C,R4*
X125005841Y-108691700D02*
X124672508Y-108215510D01*
X124434412Y-108691700D02*
X124434412Y-107691700D01*
X124815365Y-107691700D01*
X124910603Y-107739320D01*
X124958222Y-107786939D01*
X125005841Y-107882177D01*
X125005841Y-108025034D01*
X124958222Y-108120272D01*
X124910603Y-108167891D01*
X124815365Y-108215510D01*
X124434412Y-108215510D01*
X125862984Y-108025034D02*
X125862984Y-108691700D01*
X125624888Y-107644081D02*
X125386793Y-108358367D01*
X126005841Y-108358367D01*
G04 #@! TO.C,R5*
X141652077Y-108691700D02*
X141318744Y-108215510D01*
X141080648Y-108691700D02*
X141080648Y-107691700D01*
X141461601Y-107691700D01*
X141556839Y-107739320D01*
X141604458Y-107786939D01*
X141652077Y-107882177D01*
X141652077Y-108025034D01*
X141604458Y-108120272D01*
X141556839Y-108167891D01*
X141461601Y-108215510D01*
X141080648Y-108215510D01*
X142556839Y-107691700D02*
X142080648Y-107691700D01*
X142033029Y-108167891D01*
X142080648Y-108120272D01*
X142175886Y-108072653D01*
X142413982Y-108072653D01*
X142509220Y-108120272D01*
X142556839Y-108167891D01*
X142604458Y-108263129D01*
X142604458Y-108501224D01*
X142556839Y-108596462D01*
X142509220Y-108644081D01*
X142413982Y-108691700D01*
X142175886Y-108691700D01*
X142080648Y-108644081D01*
X142033029Y-108596462D01*
G04 #@! TO.C,R6*
X158298313Y-108691700D02*
X157964980Y-108215510D01*
X157726884Y-108691700D02*
X157726884Y-107691700D01*
X158107837Y-107691700D01*
X158203075Y-107739320D01*
X158250694Y-107786939D01*
X158298313Y-107882177D01*
X158298313Y-108025034D01*
X158250694Y-108120272D01*
X158203075Y-108167891D01*
X158107837Y-108215510D01*
X157726884Y-108215510D01*
X159155456Y-107691700D02*
X158964980Y-107691700D01*
X158869741Y-107739320D01*
X158822122Y-107786939D01*
X158726884Y-107929796D01*
X158679265Y-108120272D01*
X158679265Y-108501224D01*
X158726884Y-108596462D01*
X158774503Y-108644081D01*
X158869741Y-108691700D01*
X159060218Y-108691700D01*
X159155456Y-108644081D01*
X159203075Y-108596462D01*
X159250694Y-108501224D01*
X159250694Y-108263129D01*
X159203075Y-108167891D01*
X159155456Y-108120272D01*
X159060218Y-108072653D01*
X158869741Y-108072653D01*
X158774503Y-108120272D01*
X158726884Y-108167891D01*
X158679265Y-108263129D01*
G04 #@! TO.C,R7*
X174944549Y-108691700D02*
X174611216Y-108215510D01*
X174373120Y-108691700D02*
X174373120Y-107691700D01*
X174754073Y-107691700D01*
X174849311Y-107739320D01*
X174896930Y-107786939D01*
X174944549Y-107882177D01*
X174944549Y-108025034D01*
X174896930Y-108120272D01*
X174849311Y-108167891D01*
X174754073Y-108215510D01*
X174373120Y-108215510D01*
X175277882Y-107691700D02*
X175944549Y-107691700D01*
X175515977Y-108691700D01*
G04 #@! TO.C,R8*
X191590785Y-108691700D02*
X191257452Y-108215510D01*
X191019356Y-108691700D02*
X191019356Y-107691700D01*
X191400309Y-107691700D01*
X191495547Y-107739320D01*
X191543166Y-107786939D01*
X191590785Y-107882177D01*
X191590785Y-108025034D01*
X191543166Y-108120272D01*
X191495547Y-108167891D01*
X191400309Y-108215510D01*
X191019356Y-108215510D01*
X192162213Y-108120272D02*
X192066975Y-108072653D01*
X192019356Y-108025034D01*
X191971737Y-107929796D01*
X191971737Y-107882177D01*
X192019356Y-107786939D01*
X192066975Y-107739320D01*
X192162213Y-107691700D01*
X192352690Y-107691700D01*
X192447928Y-107739320D01*
X192495547Y-107786939D01*
X192543166Y-107882177D01*
X192543166Y-107929796D01*
X192495547Y-108025034D01*
X192447928Y-108072653D01*
X192352690Y-108120272D01*
X192162213Y-108120272D01*
X192066975Y-108167891D01*
X192019356Y-108215510D01*
X191971737Y-108310748D01*
X191971737Y-108501224D01*
X192019356Y-108596462D01*
X192066975Y-108644081D01*
X192162213Y-108691700D01*
X192352690Y-108691700D01*
X192447928Y-108644081D01*
X192495547Y-108596462D01*
X192543166Y-108501224D01*
X192543166Y-108310748D01*
X192495547Y-108215510D01*
X192447928Y-108167891D01*
X192352690Y-108120272D01*
G04 #@! TO.C,R9*
X206560159Y-106029733D02*
X207036349Y-105696400D01*
X206560159Y-105458304D02*
X207560159Y-105458304D01*
X207560159Y-105839257D01*
X207512540Y-105934495D01*
X207464920Y-105982114D01*
X207369682Y-106029733D01*
X207226825Y-106029733D01*
X207131587Y-105982114D01*
X207083968Y-105934495D01*
X207036349Y-105839257D01*
X207036349Y-105458304D01*
X206560159Y-106505923D02*
X206560159Y-106696400D01*
X206607778Y-106791638D01*
X206655397Y-106839257D01*
X206798254Y-106934495D01*
X206988730Y-106982114D01*
X207369682Y-106982114D01*
X207464920Y-106934495D01*
X207512540Y-106886876D01*
X207560159Y-106791638D01*
X207560159Y-106601161D01*
X207512540Y-106505923D01*
X207464920Y-106458304D01*
X207369682Y-106410685D01*
X207131587Y-106410685D01*
X207036349Y-106458304D01*
X206988730Y-106505923D01*
X206941111Y-106601161D01*
X206941111Y-106791638D01*
X206988730Y-106886876D01*
X207036349Y-106934495D01*
X207131587Y-106982114D01*
G04 #@! TO.C,R10*
X224407066Y-108691700D02*
X224073733Y-108215510D01*
X223835638Y-108691700D02*
X223835638Y-107691700D01*
X224216590Y-107691700D01*
X224311828Y-107739320D01*
X224359447Y-107786939D01*
X224407066Y-107882177D01*
X224407066Y-108025034D01*
X224359447Y-108120272D01*
X224311828Y-108167891D01*
X224216590Y-108215510D01*
X223835638Y-108215510D01*
X225359447Y-108691700D02*
X224788019Y-108691700D01*
X225073733Y-108691700D02*
X225073733Y-107691700D01*
X224978495Y-107834558D01*
X224883257Y-107929796D01*
X224788019Y-107977415D01*
X225978495Y-107691700D02*
X226073733Y-107691700D01*
X226168971Y-107739320D01*
X226216590Y-107786939D01*
X226264209Y-107882177D01*
X226311828Y-108072653D01*
X226311828Y-108310748D01*
X226264209Y-108501224D01*
X226216590Y-108596462D01*
X226168971Y-108644081D01*
X226073733Y-108691700D01*
X225978495Y-108691700D01*
X225883257Y-108644081D01*
X225835638Y-108596462D01*
X225788019Y-108501224D01*
X225740400Y-108310748D01*
X225740400Y-108072653D01*
X225788019Y-107882177D01*
X225835638Y-107786939D01*
X225883257Y-107739320D01*
X225978495Y-107691700D01*
G04 #@! TO.C,R11*
X241053302Y-108691700D02*
X240719969Y-108215510D01*
X240481874Y-108691700D02*
X240481874Y-107691700D01*
X240862826Y-107691700D01*
X240958064Y-107739320D01*
X241005683Y-107786939D01*
X241053302Y-107882177D01*
X241053302Y-108025034D01*
X241005683Y-108120272D01*
X240958064Y-108167891D01*
X240862826Y-108215510D01*
X240481874Y-108215510D01*
X242005683Y-108691700D02*
X241434255Y-108691700D01*
X241719969Y-108691700D02*
X241719969Y-107691700D01*
X241624731Y-107834558D01*
X241529493Y-107929796D01*
X241434255Y-107977415D01*
X242958064Y-108691700D02*
X242386636Y-108691700D01*
X242672350Y-108691700D02*
X242672350Y-107691700D01*
X242577112Y-107834558D01*
X242481874Y-107929796D01*
X242386636Y-107977415D01*
G04 #@! TO.C,R12*
X254756442Y-108691700D02*
X254423109Y-108215510D01*
X254185014Y-108691700D02*
X254185014Y-107691700D01*
X254565966Y-107691700D01*
X254661204Y-107739320D01*
X254708823Y-107786939D01*
X254756442Y-107882177D01*
X254756442Y-108025034D01*
X254708823Y-108120272D01*
X254661204Y-108167891D01*
X254565966Y-108215510D01*
X254185014Y-108215510D01*
X255708823Y-108691700D02*
X255137395Y-108691700D01*
X255423109Y-108691700D02*
X255423109Y-107691700D01*
X255327871Y-107834558D01*
X255232633Y-107929796D01*
X255137395Y-107977415D01*
X256089776Y-107786939D02*
X256137395Y-107739320D01*
X256232633Y-107691700D01*
X256470728Y-107691700D01*
X256565966Y-107739320D01*
X256613585Y-107786939D01*
X256661204Y-107882177D01*
X256661204Y-107977415D01*
X256613585Y-108120272D01*
X256042157Y-108691700D01*
X256661204Y-108691700D01*
G04 #@! TO.C,C7*
X177486549Y-108596462D02*
X177438930Y-108644081D01*
X177296073Y-108691700D01*
X177200835Y-108691700D01*
X177057977Y-108644081D01*
X176962739Y-108548843D01*
X176915120Y-108453605D01*
X176867501Y-108263129D01*
X176867501Y-108120272D01*
X176915120Y-107929796D01*
X176962739Y-107834558D01*
X177057977Y-107739320D01*
X177200835Y-107691700D01*
X177296073Y-107691700D01*
X177438930Y-107739320D01*
X177486549Y-107786939D01*
X177819882Y-107691700D02*
X178486549Y-107691700D01*
X178057977Y-108691700D01*
G04 #@! TO.C,C6*
X160840313Y-108596462D02*
X160792694Y-108644081D01*
X160649837Y-108691700D01*
X160554599Y-108691700D01*
X160411741Y-108644081D01*
X160316503Y-108548843D01*
X160268884Y-108453605D01*
X160221265Y-108263129D01*
X160221265Y-108120272D01*
X160268884Y-107929796D01*
X160316503Y-107834558D01*
X160411741Y-107739320D01*
X160554599Y-107691700D01*
X160649837Y-107691700D01*
X160792694Y-107739320D01*
X160840313Y-107786939D01*
X161697456Y-107691700D02*
X161506980Y-107691700D01*
X161411741Y-107739320D01*
X161364122Y-107786939D01*
X161268884Y-107929796D01*
X161221265Y-108120272D01*
X161221265Y-108501224D01*
X161268884Y-108596462D01*
X161316503Y-108644081D01*
X161411741Y-108691700D01*
X161602218Y-108691700D01*
X161697456Y-108644081D01*
X161745075Y-108596462D01*
X161792694Y-108501224D01*
X161792694Y-108263129D01*
X161745075Y-108167891D01*
X161697456Y-108120272D01*
X161602218Y-108072653D01*
X161411741Y-108072653D01*
X161316503Y-108120272D01*
X161268884Y-108167891D01*
X161221265Y-108263129D01*
G04 #@! TO.C,C5*
X144194077Y-108596462D02*
X144146458Y-108644081D01*
X144003601Y-108691700D01*
X143908363Y-108691700D01*
X143765505Y-108644081D01*
X143670267Y-108548843D01*
X143622648Y-108453605D01*
X143575029Y-108263129D01*
X143575029Y-108120272D01*
X143622648Y-107929796D01*
X143670267Y-107834558D01*
X143765505Y-107739320D01*
X143908363Y-107691700D01*
X144003601Y-107691700D01*
X144146458Y-107739320D01*
X144194077Y-107786939D01*
X145098839Y-107691700D02*
X144622648Y-107691700D01*
X144575029Y-108167891D01*
X144622648Y-108120272D01*
X144717886Y-108072653D01*
X144955982Y-108072653D01*
X145051220Y-108120272D01*
X145098839Y-108167891D01*
X145146458Y-108263129D01*
X145146458Y-108501224D01*
X145098839Y-108596462D01*
X145051220Y-108644081D01*
X144955982Y-108691700D01*
X144717886Y-108691700D01*
X144622648Y-108644081D01*
X144575029Y-108596462D01*
G04 #@! TO.C,C4*
X127547841Y-108596462D02*
X127500222Y-108644081D01*
X127357365Y-108691700D01*
X127262127Y-108691700D01*
X127119269Y-108644081D01*
X127024031Y-108548843D01*
X126976412Y-108453605D01*
X126928793Y-108263129D01*
X126928793Y-108120272D01*
X126976412Y-107929796D01*
X127024031Y-107834558D01*
X127119269Y-107739320D01*
X127262127Y-107691700D01*
X127357365Y-107691700D01*
X127500222Y-107739320D01*
X127547841Y-107786939D01*
X128404984Y-108025034D02*
X128404984Y-108691700D01*
X128166888Y-107644081D02*
X127928793Y-108358367D01*
X128547841Y-108358367D01*
G04 #@! TO.C,C3*
X110901605Y-108596462D02*
X110853986Y-108644081D01*
X110711129Y-108691700D01*
X110615891Y-108691700D01*
X110473033Y-108644081D01*
X110377795Y-108548843D01*
X110330176Y-108453605D01*
X110282557Y-108263129D01*
X110282557Y-108120272D01*
X110330176Y-107929796D01*
X110377795Y-107834558D01*
X110473033Y-107739320D01*
X110615891Y-107691700D01*
X110711129Y-107691700D01*
X110853986Y-107739320D01*
X110901605Y-107786939D01*
X111234938Y-107691700D02*
X111853986Y-107691700D01*
X111520652Y-108072653D01*
X111663510Y-108072653D01*
X111758748Y-108120272D01*
X111806367Y-108167891D01*
X111853986Y-108263129D01*
X111853986Y-108501224D01*
X111806367Y-108596462D01*
X111758748Y-108644081D01*
X111663510Y-108691700D01*
X111377795Y-108691700D01*
X111282557Y-108644081D01*
X111234938Y-108596462D01*
G04 #@! TO.C,C2*
X94255369Y-108596462D02*
X94207750Y-108644081D01*
X94064893Y-108691700D01*
X93969655Y-108691700D01*
X93826797Y-108644081D01*
X93731559Y-108548843D01*
X93683940Y-108453605D01*
X93636321Y-108263129D01*
X93636321Y-108120272D01*
X93683940Y-107929796D01*
X93731559Y-107834558D01*
X93826797Y-107739320D01*
X93969655Y-107691700D01*
X94064893Y-107691700D01*
X94207750Y-107739320D01*
X94255369Y-107786939D01*
X94636321Y-107786939D02*
X94683940Y-107739320D01*
X94779178Y-107691700D01*
X95017274Y-107691700D01*
X95112512Y-107739320D01*
X95160131Y-107786939D01*
X95207750Y-107882177D01*
X95207750Y-107977415D01*
X95160131Y-108120272D01*
X94588702Y-108691700D01*
X95207750Y-108691700D01*
G04 #@! TO.C,C1*
X67494182Y-103189066D02*
X67541801Y-103236685D01*
X67589420Y-103379542D01*
X67589420Y-103474780D01*
X67541801Y-103617638D01*
X67446563Y-103712876D01*
X67351325Y-103760495D01*
X67160849Y-103808114D01*
X67017992Y-103808114D01*
X66827516Y-103760495D01*
X66732278Y-103712876D01*
X66637040Y-103617638D01*
X66589420Y-103474780D01*
X66589420Y-103379542D01*
X66637040Y-103236685D01*
X66684659Y-103189066D01*
X67589420Y-102236685D02*
X67589420Y-102808114D01*
X67589420Y-102522400D02*
X66589420Y-102522400D01*
X66732278Y-102617638D01*
X66827516Y-102712876D01*
X66875135Y-102808114D01*
G04 #@! TO.C,J2*
X331073166Y-105179880D02*
X331073166Y-105894166D01*
X331025547Y-106037023D01*
X330930309Y-106132261D01*
X330787452Y-106179880D01*
X330692214Y-106179880D01*
X331501738Y-105275119D02*
X331549357Y-105227500D01*
X331644595Y-105179880D01*
X331882690Y-105179880D01*
X331977928Y-105227500D01*
X332025547Y-105275119D01*
X332073166Y-105370357D01*
X332073166Y-105465595D01*
X332025547Y-105608452D01*
X331454119Y-106179880D01*
X332073166Y-106179880D01*
G04 #@! TD*
M02*
