<?xml version="1.0" standalone="no"?>
 <!DOCTYPE svg PUBLIC "-//W3C//DTD SVG 1.1//EN" 
 "http://www.w3.org/Graphics/SVG/1.1/DTD/svg11.dtd"> 
<svg xmlns="http://www.w3.org/2000/svg" version="1.1" 
    width="41.9989cm" height="29.7002cm" viewBox="0 0 165350 116930 ">
<title>SVG Picture created as DInside-In1_Cu.svg date 2019/04/12 10:46:18 </title>
  <desc>Picture generated by PCBNEW </desc>
<g style="fill:#000000; fill-opacity:1;stroke:#000000; stroke-opacity:1;
stroke-linecap:round; stroke-linejoin:round; "
 transform="translate(0 0) scale(1 1)">
</g>
<g style="fill:#000000; fill-opacity:0.0; 
stroke:#000000; stroke-width:-0.000393701; stroke-opacity:1; 
stroke-linecap:round; stroke-linejoin:round;">
<g >
</g>
<g >
</g>
<g style="fill:#000000; fill-opacity:0.0; 
stroke:#000000; stroke-width:800; stroke-opacity:1; 
stroke-linecap:round; stroke-linejoin:round;">
<path d="M25095 45430
L25595 45430
" />
<path d="M25095 41230
L25595 41230
" />
<path d="M24395 44330
L24895 44330
" />
<path d="M24395 43330
L24895 43330
" />
<path d="M24395 42330
L24895 42330
" />
</g>
<g >
<path d="M128332 44448
L128832 44448
" />
<path d="M128332 43448
L128832 43448
" />
<path d="M128332 42448
L128832 42448
" />
</g>
<g >
</g>
<g >
</g>
<g >
</g>
<g >
</g>
<g >
</g>
<g >
</g>
<g >
</g>
<g >
</g>
<g >
</g>
<g >
</g>
<g >
</g>
<g >
</g>
<g >
</g>
<g >
</g>
<g >
</g>
<g >
</g>
<g >
</g>
<g >
</g>
<g >
</g>
<g >
</g>
<g >
</g>
<g >
</g>
<g >
</g>
<g >
</g>
<g >
</g>
<g >
</g>
<g >
</g>
<g >
</g>
<g >
</g>
<g >
</g>
<g >
</g>
<g >
</g>
<g >
</g>
<g >
</g>
<g >
</g>
<g >
</g>
<g >
</g>
<g >
</g>
<g >
</g>
<g >
</g>
<g >
</g>
<g >
</g>
<g >
</g>
<g >
</g>
<g >
</g>
<g >
</g>
<g >
</g>
<g >
</g>
<g style="fill:#000000; fill-opacity:1.0; 
stroke:#000000; stroke-width:0; stroke-opacity:1; 
stroke-linecap:round; stroke-linejoin:round;">
<circle cx="40820" cy="43458" r="196.85" /> 
</g>
<g style="fill:#000000; fill-opacity:1.0; 
stroke:#000000; stroke-width:19.685; stroke-opacity:1; 
stroke-linecap:round; stroke-linejoin:round;">
</g>
<g style="fill:#000000; fill-opacity:1.0; 
stroke:#000000; stroke-width:0; stroke-opacity:1; 
stroke-linecap:round; stroke-linejoin:round;">
<circle cx="53820" cy="43458" r="196.85" /> 
</g>
<g style="fill:#000000; fill-opacity:1.0; 
stroke:#000000; stroke-width:19.685; stroke-opacity:1; 
stroke-linecap:round; stroke-linejoin:round;">
</g>
<g style="fill:#000000; fill-opacity:1.0; 
stroke:#000000; stroke-width:0; stroke-opacity:1; 
stroke-linecap:round; stroke-linejoin:round;">
<circle cx="47320" cy="43458" r="196.85" /> 
</g>
<g style="fill:#000000; fill-opacity:1.0; 
stroke:#000000; stroke-width:19.685; stroke-opacity:1; 
stroke-linecap:round; stroke-linejoin:round;">
</g>
<g style="fill:#000000; fill-opacity:1.0; 
stroke:#000000; stroke-width:0; stroke-opacity:1; 
stroke-linecap:round; stroke-linejoin:round;">
<circle cx="60520" cy="43458" r="196.85" /> 
</g>
<g style="fill:#000000; fill-opacity:1.0; 
stroke:#000000; stroke-width:19.685; stroke-opacity:1; 
stroke-linecap:round; stroke-linejoin:round;">
</g>
<g style="fill:#000000; fill-opacity:1.0; 
stroke:#000000; stroke-width:0; stroke-opacity:1; 
stroke-linecap:round; stroke-linejoin:round;">
<circle cx="67020" cy="43458" r="196.85" /> 
</g>
<g style="fill:#000000; fill-opacity:1.0; 
stroke:#000000; stroke-width:19.685; stroke-opacity:1; 
stroke-linecap:round; stroke-linejoin:round;">
</g>
<g style="fill:#000000; fill-opacity:1.0; 
stroke:#000000; stroke-width:0; stroke-opacity:1; 
stroke-linecap:round; stroke-linejoin:round;">
<circle cx="73520" cy="43458" r="196.85" /> 
</g>
<g style="fill:#000000; fill-opacity:1.0; 
stroke:#000000; stroke-width:19.685; stroke-opacity:1; 
stroke-linecap:round; stroke-linejoin:round;">
</g>
<g style="fill:#000000; fill-opacity:1.0; 
stroke:#000000; stroke-width:0; stroke-opacity:1; 
stroke-linecap:round; stroke-linejoin:round;">
<circle cx="93220" cy="43458" r="196.85" /> 
</g>
<g style="fill:#000000; fill-opacity:1.0; 
stroke:#000000; stroke-width:19.685; stroke-opacity:1; 
stroke-linecap:round; stroke-linejoin:round;">
</g>
<g style="fill:#000000; fill-opacity:1.0; 
stroke:#000000; stroke-width:0; stroke-opacity:1; 
stroke-linecap:round; stroke-linejoin:round;">
<circle cx="86720" cy="43458" r="196.85" /> 
</g>
<g style="fill:#000000; fill-opacity:1.0; 
stroke:#000000; stroke-width:19.685; stroke-opacity:1; 
stroke-linecap:round; stroke-linejoin:round;">
</g>
<g style="fill:#000000; fill-opacity:1.0; 
stroke:#000000; stroke-width:0; stroke-opacity:1; 
stroke-linecap:round; stroke-linejoin:round;">
<circle cx="99820" cy="43433" r="196.85" /> 
</g>
<g style="fill:#000000; fill-opacity:1.0; 
stroke:#000000; stroke-width:19.685; stroke-opacity:1; 
stroke-linecap:round; stroke-linejoin:round;">
</g>
<g style="fill:#000000; fill-opacity:1.0; 
stroke:#000000; stroke-width:0; stroke-opacity:1; 
stroke-linecap:round; stroke-linejoin:round;">
<circle cx="113000" cy="43493" r="196.85" /> 
</g>
<g style="fill:#000000; fill-opacity:1.0; 
stroke:#000000; stroke-width:19.685; stroke-opacity:1; 
stroke-linecap:round; stroke-linejoin:round;">
</g>
<g style="fill:#000000; fill-opacity:1.0; 
stroke:#000000; stroke-width:0; stroke-opacity:1; 
stroke-linecap:round; stroke-linejoin:round;">
<circle cx="106400" cy="43293" r="196.85" /> 
</g>
<g style="fill:#000000; fill-opacity:1.0; 
stroke:#000000; stroke-width:19.685; stroke-opacity:1; 
stroke-linecap:round; stroke-linejoin:round;">
</g>
<g style="fill:#000000; fill-opacity:1.0; 
stroke:#000000; stroke-width:0; stroke-opacity:1; 
stroke-linecap:round; stroke-linejoin:round;">
<circle cx="34320" cy="43458" r="196.85" /> 
</g>
<g style="fill:#000000; fill-opacity:1.0; 
stroke:#000000; stroke-width:19.685; stroke-opacity:1; 
stroke-linecap:round; stroke-linejoin:round;">
</g>
<g style="fill:#000000; fill-opacity:1.0; 
stroke:#000000; stroke-width:0; stroke-opacity:1; 
stroke-linecap:round; stroke-linejoin:round;">
<circle cx="126501" cy="40960" r="196.85" /> 
</g>
<g style="fill:#000000; fill-opacity:1.0; 
stroke:#000000; stroke-width:19.685; stroke-opacity:1; 
stroke-linecap:round; stroke-linejoin:round;">
</g>
<g style="fill:#000000; fill-opacity:1.0; 
stroke:#000000; stroke-width:0; stroke-opacity:1; 
stroke-linecap:round; stroke-linejoin:round;">
<circle cx="80801" cy="40960" r="196.85" /> 
</g>
<g style="fill:#000000; fill-opacity:1.0; 
stroke:#000000; stroke-width:19.685; stroke-opacity:1; 
stroke-linecap:round; stroke-linejoin:round;">
</g>
<g style="fill:#000000; fill-opacity:1.0; 
stroke:#000000; stroke-width:0; stroke-opacity:1; 
stroke-linecap:round; stroke-linejoin:round;">
<circle cx="81601" cy="43460" r="196.85" /> 
</g>
<g style="fill:#000000; fill-opacity:1.0; 
stroke:#000000; stroke-width:19.685; stroke-opacity:1; 
stroke-linecap:round; stroke-linejoin:round;">
</g>
<g style="fill:#000000; fill-opacity:1.0; 
stroke:#000000; stroke-width:0; stroke-opacity:1; 
stroke-linecap:round; stroke-linejoin:round;">
<circle cx="120901" cy="43260" r="196.85" /> 
</g>
<g style="fill:#000000; fill-opacity:1.0; 
stroke:#000000; stroke-width:19.685; stroke-opacity:1; 
stroke-linecap:round; stroke-linejoin:round;">
</g>
<g style="fill:#000000; fill-opacity:1.0; 
stroke:#000000; stroke-width:0; stroke-opacity:1; 
stroke-linecap:round; stroke-linejoin:round;">
<circle cx="120401" cy="41060" r="196.85" /> 
</g>
<g style="fill:#000000; fill-opacity:1.0; 
stroke:#000000; stroke-width:19.685; stroke-opacity:1; 
stroke-linecap:round; stroke-linejoin:round;">
</g>
<g style="fill:#000000; fill-opacity:1.0; 
stroke:#000000; stroke-width:0; stroke-opacity:1; 
stroke-linecap:round; stroke-linejoin:round;">
<circle cx="29488.2" cy="45433.1" r="196.85" /> 
</g>
<g style="fill:#000000; fill-opacity:1.0; 
stroke:#000000; stroke-width:19.685; stroke-opacity:1; 
stroke-linecap:round; stroke-linejoin:round;">
</g>
<g style="fill:#000000; fill-opacity:1.0; 
stroke:#000000; stroke-width:0; stroke-opacity:1; 
stroke-linecap:round; stroke-linejoin:round;">
<circle cx="29488.2" cy="43425.2" r="196.85" /> 
</g>
<g style="fill:#000000; fill-opacity:1.0; 
stroke:#000000; stroke-width:19.685; stroke-opacity:1; 
stroke-linecap:round; stroke-linejoin:round;">
</g>
<g style="fill:#000000; fill-opacity:1.0; 
stroke:#000000; stroke-width:0; stroke-opacity:1; 
stroke-linecap:round; stroke-linejoin:round;">
<circle cx="45150" cy="43463" r="196.85" /> 
</g>
<g style="fill:#000000; fill-opacity:1.0; 
stroke:#000000; stroke-width:19.685; stroke-opacity:1; 
stroke-linecap:round; stroke-linejoin:round;">
</g>
<g style="fill:#000000; fill-opacity:1.0; 
stroke:#000000; stroke-width:0; stroke-opacity:1; 
stroke-linecap:round; stroke-linejoin:round;">
<circle cx="51740" cy="43473" r="196.85" /> 
</g>
<g style="fill:#000000; fill-opacity:1.0; 
stroke:#000000; stroke-width:19.685; stroke-opacity:1; 
stroke-linecap:round; stroke-linejoin:round;">
</g>
<g style="fill:#000000; fill-opacity:1.0; 
stroke:#000000; stroke-width:0; stroke-opacity:1; 
stroke-linecap:round; stroke-linejoin:round;">
<circle cx="58260" cy="43473" r="196.85" /> 
</g>
<g style="fill:#000000; fill-opacity:1.0; 
stroke:#000000; stroke-width:19.685; stroke-opacity:1; 
stroke-linecap:round; stroke-linejoin:round;">
</g>
<g style="fill:#000000; fill-opacity:1.0; 
stroke:#000000; stroke-width:0; stroke-opacity:1; 
stroke-linecap:round; stroke-linejoin:round;">
<circle cx="64830" cy="43463" r="196.85" /> 
</g>
<g style="fill:#000000; fill-opacity:1.0; 
stroke:#000000; stroke-width:19.685; stroke-opacity:1; 
stroke-linecap:round; stroke-linejoin:round;">
</g>
<g style="fill:#000000; fill-opacity:1.0; 
stroke:#000000; stroke-width:0; stroke-opacity:1; 
stroke-linecap:round; stroke-linejoin:round;">
<circle cx="71400" cy="43463" r="196.85" /> 
</g>
<g style="fill:#000000; fill-opacity:1.0; 
stroke:#000000; stroke-width:19.685; stroke-opacity:1; 
stroke-linecap:round; stroke-linejoin:round;">
</g>
<g style="fill:#000000; fill-opacity:1.0; 
stroke:#000000; stroke-width:0; stroke-opacity:1; 
stroke-linecap:round; stroke-linejoin:round;">
<circle cx="77920" cy="43453" r="196.85" /> 
</g>
<g style="fill:#000000; fill-opacity:1.0; 
stroke:#000000; stroke-width:19.685; stroke-opacity:1; 
stroke-linecap:round; stroke-linejoin:round;">
</g>
<g style="fill:#000000; fill-opacity:1.0; 
stroke:#000000; stroke-width:0; stroke-opacity:1; 
stroke-linecap:round; stroke-linejoin:round;">
<circle cx="91040" cy="43473" r="196.85" /> 
</g>
<g style="fill:#000000; fill-opacity:1.0; 
stroke:#000000; stroke-width:19.685; stroke-opacity:1; 
stroke-linecap:round; stroke-linejoin:round;">
</g>
<g style="fill:#000000; fill-opacity:1.0; 
stroke:#000000; stroke-width:0; stroke-opacity:1; 
stroke-linecap:round; stroke-linejoin:round;">
<circle cx="97610" cy="43463" r="196.85" /> 
</g>
<g style="fill:#000000; fill-opacity:1.0; 
stroke:#000000; stroke-width:19.685; stroke-opacity:1; 
stroke-linecap:round; stroke-linejoin:round;">
</g>
<g style="fill:#000000; fill-opacity:1.0; 
stroke:#000000; stroke-width:0; stroke-opacity:1; 
stroke-linecap:round; stroke-linejoin:round;">
<circle cx="103600" cy="43303" r="196.85" /> 
</g>
<g style="fill:#000000; fill-opacity:1.0; 
stroke:#000000; stroke-width:19.685; stroke-opacity:1; 
stroke-linecap:round; stroke-linejoin:round;">
</g>
<g style="fill:#000000; fill-opacity:1.0; 
stroke:#000000; stroke-width:0; stroke-opacity:1; 
stroke-linecap:round; stroke-linejoin:round;">
<circle cx="110700" cy="43393" r="196.85" /> 
</g>
<g style="fill:#000000; fill-opacity:1.0; 
stroke:#000000; stroke-width:19.685; stroke-opacity:1; 
stroke-linecap:round; stroke-linejoin:round;">
</g>
<g style="fill:#000000; fill-opacity:1.0; 
stroke:#000000; stroke-width:0; stroke-opacity:1; 
stroke-linecap:round; stroke-linejoin:round;">
<circle cx="117300" cy="43293" r="196.85" /> 
</g>
<g style="fill:#000000; fill-opacity:1.0; 
stroke:#000000; stroke-width:19.685; stroke-opacity:1; 
stroke-linecap:round; stroke-linejoin:round;">
</g>
<g style="fill:#000000; fill-opacity:1.0; 
stroke:#000000; stroke-width:0; stroke-opacity:1; 
stroke-linecap:round; stroke-linejoin:round;">
<circle cx="38600" cy="43453" r="196.85" /> 
</g>
<g style="fill:#000000; fill-opacity:1.0; 
stroke:#000000; stroke-width:19.685; stroke-opacity:1; 
stroke-linecap:round; stroke-linejoin:round;">
</g>
<g style="fill:#000000; fill-opacity:1.0; 
stroke:#000000; stroke-width:0; stroke-opacity:1; 
stroke-linecap:round; stroke-linejoin:round;">
<circle cx="32200" cy="43493" r="196.85" /> 
</g>
<g style="fill:#000000; fill-opacity:1.0; 
stroke:#000000; stroke-width:19.685; stroke-opacity:1; 
stroke-linecap:round; stroke-linejoin:round;">
</g>
<g style="fill:#000000; fill-opacity:1.0; 
stroke:#000000; stroke-width:0; stroke-opacity:1; 
stroke-linecap:round; stroke-linejoin:round;">
<circle cx="123992" cy="41027" r="196.85" /> 
</g>
<g style="fill:#000000; fill-opacity:1.0; 
stroke:#000000; stroke-width:19.685; stroke-opacity:1; 
stroke-linecap:round; stroke-linejoin:round;">
</g>
<g style="fill:#000000; fill-opacity:1.0; 
stroke:#000000; stroke-width:0; stroke-opacity:1; 
stroke-linecap:round; stroke-linejoin:round;">
<circle cx="78601" cy="41060" r="196.85" /> 
</g>
<g style="fill:#000000; fill-opacity:1.0; 
stroke:#000000; stroke-width:19.685; stroke-opacity:1; 
stroke-linecap:round; stroke-linejoin:round;">
</g>
<g style="fill:#000000; fill-opacity:1.0; 
stroke:#000000; stroke-width:0; stroke-opacity:1; 
stroke-linecap:round; stroke-linejoin:round;">
<circle cx="84801" cy="43460" r="196.85" /> 
</g>
<g style="fill:#000000; fill-opacity:1.0; 
stroke:#000000; stroke-width:19.685; stroke-opacity:1; 
stroke-linecap:round; stroke-linejoin:round;">
</g>
<g style="fill:#000000; fill-opacity:1.0; 
stroke:#000000; stroke-width:0; stroke-opacity:1; 
stroke-linecap:round; stroke-linejoin:round;">
<circle cx="118201" cy="41060" r="196.85" /> 
</g>
<g style="fill:#000000; fill-opacity:1.0; 
stroke:#000000; stroke-width:19.685; stroke-opacity:1; 
stroke-linecap:round; stroke-linejoin:round;">
</g>
<g style="fill:#000000; fill-opacity:1.0; 
stroke:#000000; stroke-width:0; stroke-opacity:1; 
stroke-linecap:round; stroke-linejoin:round;">
<circle cx="124201" cy="43460" r="196.85" /> 
</g>
<g style="fill:#000000; fill-opacity:1.0; 
stroke:#000000; stroke-width:19.685; stroke-opacity:1; 
stroke-linecap:round; stroke-linejoin:round;">
</g>
<g style="fill:#000000; fill-opacity:1.0; 
stroke:#000000; stroke-width:0; stroke-opacity:1; 
stroke-linecap:round; stroke-linejoin:round;">
<circle cx="27755.9" cy="40905.5" r="196.85" /> 
</g>
<g style="fill:#000000; fill-opacity:1.0; 
stroke:#000000; stroke-width:19.685; stroke-opacity:1; 
stroke-linecap:round; stroke-linejoin:round;">
</g>
<g >
</g>
<g >
</g>
<g style="fill:#000000; fill-opacity:1.0; 
stroke:#000000; stroke-width:100; stroke-opacity:1; 
stroke-linecap:round; stroke-linejoin:round;">
<path style="fill:#000000; fill-opacity:1.0; 
stroke:#000000; stroke-width:100; stroke-opacity:1; 
stroke-linecap:round; stroke-linejoin:round;fill-rule:evenodd;"
d="M 22983,39539
23154,39626
23289,39761
23316,39814
23317,39817
23328,39838
23333,39847
23334,39850
23342,39864
23349,39872
23354,39881
23365,39892
23376,39905
23384,39912
23391,39919
23404,39928
23417,39938
23426,39943
23435,39950
23449,39956
23463,39964
23474,39967
23483,39971
23499,39974
23514,39979
23525,39980
23535,39982
23551,39983
23554,39983
23565,39983
23588,39983
23591,39983
129641,39983
129644,39983
129667,39983
129678,39983
129681,39983
129697,39982
129707,39980
129717,39979
129733,39974
129749,39971
129758,39967
129768,39964
129782,39956
129797,39949
129806,39943
129815,39938
129827,39928
129841,39919
129848,39911
129856,39905
129866,39892
129877,39880
129883,39872
129890,39864
129897,39849
129899,39847
129904,39838
129915,39817
129916,39814
129943,39761
130078,39626
130248,39539
130459,39506
132953,39506
133164,39539
133334,39626
133470,39761
133497,39814
133497,39817
133509,39838
133514,39848
133515,39850
133522,39864
133529,39872
133535,39881
133546,39893
133556,39905
133565,39912
133572,39919
133585,39928
133597,39938
133607,39944
133616,39950
133630,39956
133644,39964
133654,39967
133664,39971
133680,39974
133695,39979
133706,39980
133716,39982
133732,39983
133735,39983
133745,39983
133769,39983
133772,39983
133850,39983
134030,40011
134174,40084
134288,40198
134361,40342
134389,40522
134389,46385
134361,46565
134288,46708
134174,46822
134030,46895
133850,46924
133772,46924
133769,46923
133745,46924
133735,46924
133732,46924
133716,46924
133706,46927
133695,46928
133680,46932
133664,46936
133654,46940
133644,46943
133630,46951
133616,46957
133607,46963
133597,46968
133585,46978
133572,46987
133565,46995
133556,47002
133546,47014
133535,47026
133529,47035
133522,47043
133515,47057
133514,47059
133509,47069
133497,47090
133497,47092
133470,47145
133334,47281
133164,47368
132953,47401
130459,47401
130248,47368
130078,47281
129943,47146
129916,47093
129915,47090
129904,47069
129899,47060
129897,47057
129890,47043
129883,47035
129877,47026
129866,47014
129856,47002
129848,46995
129841,46988
129827,46978
129815,46968
129806,46963
129797,46957
129782,46951
129768,46943
129758,46940
129749,46936
129733,46932
129717,46928
129707,46927
129697,46924
129681,46924
129678,46924
129667,46924
129644,46923
129641,46924
23591,46924
23588,46923
23565,46924
23554,46924
23551,46924
23535,46924
23525,46927
23514,46928
23499,46932
23483,46936
23474,46940
23463,46943
23449,46951
23435,46957
23426,46963
23417,46968
23404,46978
23391,46987
23384,46995
23376,47002
23365,47014
23354,47026
23349,47035
23342,47043
23334,47057
23333,47059
23328,47069
23317,47090
23316,47092
23289,47146
23154,47281
22983,47368
22773,47401
20278,47401
20068,47368
19897,47281
19762,47146
19735,47092
19734,47090
19723,47069
19718,47059
19716,47057
19709,47043
19702,47035
19696,47026
19685,47014
19675,47002
19667,46995
19660,46987
19646,46978
19634,46968
19625,46963
19616,46957
19601,46951
19587,46943
19577,46940
19567,46936
19552,46932
19536,46928
19526,46927
19516,46924
19499,46924
19497,46924
19486,46924
19462,46923
19460,46924
19381,46924
19201,46895
19058,46822
18944,46709
18871,46565
18842,46385
18842,46100
19779,46100
19780,46111
19779,46121
19781,46137
19781,46140
19783,46150
19786,46174
19787,46177
19823,46403
19823,46406
19827,46429
19829,46440
19830,46442
19832,46458
19836,46468
19839,46478
19846,46493
19847,46495
19852,46505
19862,46526
19864,46528
19968,46732
19968,46734
19980,46756
19985,46765
19986,46767
19993,46781
20000,46790
20006,46799
20017,46810
20019,46812
20026,46820
20043,46837
20045,46838
20207,47001
20209,47003
20226,47019
20233,47027
20235,47029
20247,47040
20256,47045
20264,47052
20278,47060
20280,47061
20290,47066
20311,47077
20313,47078
20518,47182
20520,47184
20541,47194
20551,47199
20553,47200
20568,47207
20578,47209
20588,47213
20604,47216
20606,47217
20617,47218
20640,47223
20643,47223
20874,47259
20882,47262
20900,47263
20906,47264
20914,47265
20922,47266
20927,47266
20945,47267
20953,47266
22097,47266
22105,47267
22124,47266
22129,47266
22137,47265
22145,47264
22150,47263
22169,47262
22176,47259
22408,47223
22411,47223
22434,47218
22445,47217
22447,47216
22463,47213
22473,47209
22483,47207
22497,47200
22500,47199
22509,47194
22531,47184
22533,47182
22737,47078
22740,47077
22761,47066
22770,47061
22773,47060
22787,47052
22795,47045
22804,47040
22815,47029
22818,47027
22825,47019
22842,47003
22844,47001
23006,46838
23008,46837
23024,46820
23032,46812
23034,46810
23045,46799
23050,46790
23057,46781
23065,46767
23066,46765
23071,46756
23082,46734
23083,46732
23187,46528
23189,46526
23199,46505
23204,46495
23205,46493
23212,46478
23215,46468
23218,46458
23221,46442
23222,46440
23224,46429
23228,46406
23228,46403
23264,46177
23264,46174
23268,46150
23269,46140
23270,46137
23272,46121
23271,46111
23272,46100
129960,46100
129960,46111
129960,46121
129962,46137
129962,46140
129964,46150
129967,46174
129968,46177
130004,46403
130004,46406
130008,46429
130010,46440
130010,46442
130013,46458
130017,46468
130020,46478
130027,46493
130027,46495
130032,46504
130043,46526
130044,46528
130148,46732
130149,46735
130160,46756
130165,46765
130167,46767
130174,46781
130181,46790
130187,46799
130198,46810
130199,46812
130207,46820
130223,46837
130226,46838
130388,47001
130389,47003
130407,47019
130414,47027
130416,47029
130428,47040
130437,47045
130445,47052
130459,47060
130461,47061
130471,47066
130492,47077
130494,47078
130698,47182
130700,47184
130722,47194
130731,47199
130734,47200
130748,47207
130758,47209
130768,47213
130784,47216
130787,47217
130797,47218
130821,47223
130823,47223
131055,47259
131063,47262
131081,47263
131086,47264
131094,47265
131102,47266
131108,47266
131126,47267
131134,47266
132278,47266
132286,47267
132305,47266
132310,47266
132318,47265
132326,47264
132331,47263
132350,47262
132357,47259
132588,47223
132591,47223
132615,47218
132625,47217
132628,47216
132643,47213
132653,47209
132664,47207
132678,47200
132680,47199
132690,47194
132711,47184
132714,47182
132918,47078
132921,47077
132942,47066
132951,47061
132953,47060
132967,47052
132976,47045
132984,47040
132996,47029
132998,47027
133006,47019
133023,47003
133024,47001
133186,46839
133188,46837
133205,46820
133213,46812
133214,46810
133225,46799
133231,46790
133238,46781
133245,46767
133246,46765
133251,46756
133263,46734
133264,46732
133368,46528
133369,46526
133380,46505
133385,46495
133386,46493
133393,46478
133395,46468
133399,46458
133402,46442
133403,46440
133404,46429
133408,46406
133408,46403
133444,46177
133445,46174
133448,46150
133450,46140
133450,46137
133452,46121
133452,46111
133452,46100
133450,46084
133450,46082
133448,46071
133445,46047
133444,46045
133408,45818
133408,45816
133404,45792
133403,45782
133402,45779
133399,45763
133395,45754
133393,45743
133386,45729
133385,45726
133380,45717
133369,45696
133368,45693
133264,45490
133263,45487
133251,45466
133246,45456
133245,45454
133238,45440
133231,45432
133225,45423
133214,45411
133213,45410
133205,45402
133188,45384
133186,45383
133024,45221
133023,45219
133006,45202
132998,45195
132996,45193
132984,45182
132976,45176
132967,45169
132953,45162
132951,45160
132942,45156
132921,45144
132918,45144
132714,45040
132711,45038
132690,45028
132680,45023
132678,45022
132664,45015
132653,45012
132643,45008
132628,45005
132625,45005
132615,45003
132591,44999
132588,44999
132363,44963
133873,44963
133886,44964
133939,44959
133990,44944
134037,44919
134078,44885
134111,44844
134136,44797
134152,44746
134156,44707
134156,44707
134157,44693
134156,44680
134156,43919
134157,43906
134152,43853
134136,43802
134111,43756
134078,43714
134037,43681
133990,43656
133939,43640
133899,43636
133886,43635
133873,43636
132325,43636
132311,43635
132298,43636
132258,43640
132208,43656
132161,43681
132120,43714
132086,43756
132061,43802
132046,43853
132040,43906
132042,43919
132042,44680
132040,44693
132046,44746
132061,44797
132086,44844
132120,44885
132152,44912
132161,44919
132208,44944
132248,44956
131134,44956
131126,44955
131108,44956
131102,44956
131094,44957
131086,44957
131081,44958
131063,44960
131055,44962
130823,44999
130821,44999
130797,45003
130787,45005
130784,45005
130768,45008
130758,45012
130748,45015
130734,45022
130731,45023
130722,45028
130700,45038
130698,45040
130494,45144
130492,45144
130471,45156
130461,45160
130459,45162
130445,45169
130437,45176
130428,45182
130416,45193
130414,45195
130407,45202
130389,45219
130388,45221
130226,45383
130223,45385
130207,45402
130199,45409
130198,45411
130187,45423
130181,45432
130174,45440
130167,45454
130165,45456
130160,45466
130149,45487
130148,45490
130044,45693
130043,45696
130032,45717
130027,45727
130027,45729
130020,45743
130017,45754
130013,45764
130010,45779
130010,45782
130008,45792
130004,45816
130004,45819
129968,46045
129967,46048
129964,46071
129962,46082
129962,46084
129960,46100
23272,46100
23272,46100
23270,46084
23269,46082
23268,46071
23264,46047
23264,46045
23228,45819
23228,45816
23224,45792
23222,45782
23221,45779
23218,45763
23215,45754
23212,45743
23205,45729
23204,45726
23199,45717
23189,45696
23187,45693
23130,45581
24463,45581
24476,45633
24527,45750
24600,45854
24692,45943
24800,46012
24919,46058
25045,46080
25295,46080
25295,45480
25395,45480
25395,46080
25645,46080
25771,46058
25890,46012
25998,45943
26090,45854
26163,45750
26215,45633
26227,45581
26181,45480
25395,45480
25295,45480
24510,45480
24463,45581
23130,45581
23083,45490
23082,45487
23071,45466
23066,45456
23065,45454
23057,45440
23050,45432
23045,45423
23034,45411
23032,45410
23024,45402
23012,45389
29041,45389
29041,45477
29058,45563
29092,45644
29141,45717
29203,45780
29276,45829
29357,45862
29444,45879
29532,45879
29618,45862
29699,45829
29773,45780
29835,45717
29884,45644
29917,45563
29935,45477
29935,45389
29917,45302
29884,45221
29835,45148
29773,45085
29699,45037
29618,45003
29532,44986
29444,44986
29357,45003
29276,45037
29203,45085
29141,45148
29092,45221
29058,45302
29041,45389
23012,45389
23008,45385
23006,45383
22844,45221
22842,45219
22825,45202
22818,45195
22815,45193
22804,45182
22795,45176
22787,45169
22773,45162
22770,45160
22761,45156
22740,45144
22737,45144
22533,45040
22531,45038
22509,45028
22500,45023
22497,45022
22483,45015
22473,45012
22463,45008
22447,45005
22445,45005
22434,45003
22411,44999
22408,44999
22176,44962
22169,44960
22150,44958
22145,44957
22137,44957
22129,44956
22124,44956
22105,44955
22097,44956
20953,44956
20945,44955
20927,44956
20922,44956
20914,44957
20906,44957
20900,44958
20882,44960
20874,44962
20643,44999
20640,44999
20617,45003
20606,45005
20604,45005
20588,45008
20578,45012
20568,45015
20553,45022
20551,45023
20541,45028
20520,45038
20518,45040
20313,45144
20311,45144
20290,45156
20280,45160
20278,45162
20264,45169
20256,45176
20247,45182
20235,45193
20233,45195
20226,45202
20209,45219
20207,45221
20045,45383
20043,45385
20026,45402
20019,45410
20017,45411
20006,45423
20000,45432
19993,45440
19986,45454
19985,45456
19980,45466
19968,45487
19968,45490
19864,45693
19862,45696
19852,45717
19847,45726
19846,45729
19839,45743
19836,45754
19832,45763
19830,45779
19829,45782
19827,45792
19823,45816
19823,45819
19787,46045
19786,46047
19783,46071
19781,46082
19781,46084
19779,46100
18842,46100
18842,43886
19036,43886
19038,43900
19038,44661
19036,44674
19041,44727
19057,44777
19082,44824
19116,44865
19140,44885
19157,44899
19203,44924
19254,44940
19307,44945
19320,44943
20869,44943
20882,44945
20935,44940
20986,44924
21033,44899
21074,44865
21107,44824
21132,44777
21148,44727
21152,44687
21152,44687
21153,44674
21152,44661
21152,44481
23763,44481
23776,44533
23827,44650
23900,44754
23992,44843
24100,44912
24219,44958
24345,44980
24627,44980
24600,45006
24527,45111
24476,45228
24463,45279
24510,45380
25295,45380
25295,45372
25395,45372
25395,45380
26181,45380
26227,45279
26215,45228
26163,45111
26090,45006
25998,44918
25890,44849
25771,44802
25645,44780
25363,44780
25390,44754
25463,44650
25486,44599
127700,44599
127713,44651
127764,44768
127837,44873
127929,44961
128037,45030
128156,45076
128282,45098
128532,45098
128532,44498
128632,44498
128632,45098
128882,45098
129008,45076
129127,45030
129235,44961
129327,44873
129400,44768
129452,44651
129464,44599
129418,44498
128632,44498
128532,44498
127747,44498
127700,44599
25486,44599
25515,44533
25527,44481
25481,44380
24695,44380
24695,44388
24595,44388
24595,44380
23810,44380
23763,44481
21152,44481
21152,43900
21153,43886
21148,43834
21132,43783
21107,43736
21074,43695
21033,43661
20986,43636
20935,43621
20895,43617
20882,43615
20869,43617
19320,43617
19307,43615
19294,43617
19254,43621
19203,43636
19157,43661
19116,43695
19082,43736
19057,43783
19041,43834
19036,43886
18842,43886
18842,42233
19036,42233
19038,42246
19038,43007
19036,43020
19041,43073
19057,43124
19082,43171
19116,43212
19147,43238
19157,43246
19203,43271
19254,43286
19307,43291
19320,43290
20869,43290
20882,43291
20935,43286
20986,43271
21033,43246
21074,43212
21107,43171
21132,43124
21148,43073
21152,43033
21152,43033
21153,43020
21152,43007
21152,42330
23742,42330
23755,42458
23792,42580
23852,42693
23933,42792
23980,42830
23933,42868
23852,42967
23792,43080
23755,43203
23742,43330
23755,43458
23792,43580
23852,43693
23933,43792
23980,43830
23900,43906
23827,44011
23776,44128
23763,44179
23810,44280
24595,44280
24595,44272
24695,44272
24695,44280
25481,44280
25527,44179
25515,44128
25463,44011
25390,43906
25311,43830
25357,43792
25438,43693
25499,43580
25536,43458
25543,43381
29041,43381
29041,43469
29058,43555
29092,43636
29141,43710
29203,43772
29276,43821
29357,43854
29444,43872
29532,43872
29618,43854
29699,43821
29773,43772
29835,43710
29853,43682
29886,43787
29967,43934
30074,44062
30205,44167
30353,44245
30514,44292
30680,44307
30847,44290
31007,44240
31154,44160
31283,44054
31389,43924
31467,43776
31516,43616
31532,43450
31532,43426
31530,43413
33873,43413
33873,43502
33890,43588
33924,43669
33972,43742
34035,43805
34108,43853
34189,43887
34275,43904
34364,43904
34450,43887
34531,43853
34604,43805
34667,43742
34715,43669
34749,43588
34766,43502
34766,43413
40373,43413
40373,43502
40390,43588
40424,43669
40472,43742
40535,43805
40608,43853
40689,43887
40775,43904
40864,43904
40950,43887
41031,43853
41104,43805
41167,43742
41215,43669
41249,43588
41266,43502
41266,43413
46873,43413
46873,43502
46890,43588
46924,43669
46972,43742
47035,43805
47108,43853
47189,43887
47275,43904
47364,43904
47450,43887
47531,43853
47604,43805
47667,43742
47715,43669
47749,43588
47766,43502
47766,43413
53373,43413
53373,43502
53390,43588
53424,43669
53472,43742
53535,43805
53608,43853
53689,43887
53775,43904
53864,43904
53950,43887
54031,43853
54104,43805
54167,43742
54215,43669
54249,43588
54266,43502
54266,43413
60073,43413
60073,43502
60090,43588
60124,43669
60172,43742
60235,43805
60308,43853
60389,43887
60475,43904
60564,43904
60650,43887
60731,43853
60804,43805
60867,43742
60915,43669
60949,43588
60966,43502
60966,43413
66573,43413
66573,43502
66590,43588
66624,43669
66672,43742
66735,43805
66808,43853
66889,43887
66975,43904
67064,43904
67150,43887
67231,43853
67304,43805
67367,43742
67415,43669
67449,43588
67466,43502
67466,43413
73073,43413
73073,43502
73090,43588
73124,43669
73172,43742
73235,43805
73308,43853
73389,43887
73475,43904
73564,43904
73650,43887
73731,43853
73804,43805
73867,43742
73915,43669
73949,43588
73966,43502
73966,43415
81154,43415
81154,43504
81171,43590
81205,43671
81253,43744
81316,43807
81389,43855
81470,43889
81556,43906
81645,43906
81731,43889
81812,43855
81885,43807
81948,43744
81996,43671
82030,43590
82047,43504
82047,43468
82391,43468
82410,43635
82460,43794
82541,43941
82648,44069
82779,44174
82927,44252
83088,44299
83254,44314
83421,44297
83581,44247
83728,44167
83857,44061
83963,43931
84041,43783
84090,43623
84106,43457
84106,43433
84103,43413
86273,43413
86273,43502
86290,43588
86324,43669
86372,43742
86435,43805
86508,43853
86589,43887
86675,43904
86764,43904
86850,43887
86931,43853
87004,43805
87067,43742
87115,43669
87149,43588
87166,43502
87166,43413
92773,43413
92773,43502
92790,43588
92824,43669
92872,43742
92935,43805
93008,43853
93089,43887
93175,43904
93264,43904
93350,43887
93431,43853
93504,43805
93567,43742
93615,43669
93649,43588
93666,43502
93666,43413
93661,43388
99373,43388
99373,43477
99390,43563
99424,43644
99472,43717
99535,43780
99608,43828
99689,43862
99775,43879
99864,43879
99950,43862
100031,43828
100104,43780
100167,43717
100215,43644
100249,43563
100266,43477
100266,43388
100249,43302
100227,43248
105953,43248
105953,43337
105970,43423
106004,43504
106052,43577
106115,43640
106188,43688
106269,43722
106355,43739
106444,43739
106530,43722
106611,43688
106684,43640
106747,43577
106795,43504
106819,43448
112553,43448
112553,43537
112570,43623
112604,43704
112652,43777
112715,43840
112788,43888
112869,43922
112955,43939
113044,43939
113130,43922
113211,43888
113284,43840
113347,43777
113395,43704
113429,43623
113446,43537
113446,43448
113429,43362
113395,43281
113352,43215
120454,43215
120454,43304
120471,43390
120505,43471
120553,43544
120616,43607
120689,43655
120770,43689
120856,43706
120945,43706
121031,43689
121112,43655
121185,43607
121248,43544
121296,43471
121301,43461
121692,43461
121711,43628
121761,43787
121842,43934
121949,44062
122080,44167
122228,44245
122389,44292
122555,44307
122722,44290
122882,44240
123029,44160
123158,44054
123264,43924
123342,43776
123391,43616
123407,43450
123407,43426
123386,43260
123333,43101
123250,42955
123141,42828
123009,42725
122860,42650
122698,42605
122532,42592
122365,42612
122206,42664
122060,42745
121933,42854
121829,42985
121752,43134
121706,43295
121692,43461
121301,43461
121330,43390
121347,43304
121347,43215
121330,43129
121296,43048
121248,42975
121185,42912
121112,42864
121031,42830
120945,42813
120856,42813
120770,42830
120689,42864
120616,42912
120553,42975
120505,43048
120471,43129
120454,43215
113352,43215
113347,43208
113284,43145
113211,43097
113130,43063
113044,43046
112955,43046
112869,43063
112788,43097
112715,43145
112652,43208
112604,43281
112570,43362
112553,43448
106819,43448
106829,43423
106846,43337
106846,43248
106829,43162
106795,43081
106747,43008
106684,42945
106611,42897
106530,42863
106444,42846
106355,42846
106269,42863
106188,42897
106115,42945
106052,43008
106004,43081
105970,43162
105953,43248
100227,43248
100215,43221
100167,43148
100104,43085
100031,43037
99950,43003
99864,42986
99775,42986
99689,43003
99608,43037
99535,43085
99472,43148
99424,43221
99390,43302
99373,43388
93661,43388
93649,43327
93615,43246
93567,43173
93504,43110
93431,43062
93350,43028
93264,43011
93175,43011
93089,43028
93008,43062
92935,43110
92872,43173
92824,43246
92790,43327
92773,43413
87166,43413
87149,43327
87115,43246
87067,43173
87004,43110
86931,43062
86850,43028
86764,43011
86675,43011
86589,43028
86508,43062
86435,43110
86372,43173
86324,43246
86290,43327
86273,43413
84103,43413
84085,43267
84032,43108
83949,42962
83840,42835
83708,42732
83559,42657
83397,42612
83231,42599
83064,42619
82905,42671
82759,42752
82632,42861
82528,42992
82451,43141
82405,43302
82391,43468
82047,43468
82047,43415
82030,43329
81996,43248
81948,43175
81885,43112
81812,43064
81731,43030
81645,43013
81556,43013
81470,43030
81389,43064
81316,43112
81253,43175
81205,43248
81171,43329
81154,43415
73966,43415
73966,43413
73949,43327
73915,43246
73867,43173
73804,43110
73731,43062
73650,43028
73564,43011
73475,43011
73389,43028
73308,43062
73235,43110
73172,43173
73124,43246
73090,43327
73073,43413
67466,43413
67449,43327
67415,43246
67367,43173
67304,43110
67231,43062
67150,43028
67064,43011
66975,43011
66889,43028
66808,43062
66735,43110
66672,43173
66624,43246
66590,43327
66573,43413
60966,43413
60949,43327
60915,43246
60867,43173
60804,43110
60731,43062
60650,43028
60564,43011
60475,43011
60389,43028
60308,43062
60235,43110
60172,43173
60124,43246
60090,43327
60073,43413
54266,43413
54249,43327
54215,43246
54167,43173
54104,43110
54031,43062
53950,43028
53864,43011
53775,43011
53689,43028
53608,43062
53535,43110
53472,43173
53424,43246
53390,43327
53373,43413
47766,43413
47749,43327
47715,43246
47667,43173
47604,43110
47531,43062
47450,43028
47364,43011
47275,43011
47189,43028
47108,43062
47035,43110
46972,43173
46924,43246
46890,43327
46873,43413
41266,43413
41249,43327
41215,43246
41167,43173
41104,43110
41031,43062
40950,43028
40864,43011
40775,43011
40689,43028
40608,43062
40535,43110
40472,43173
40424,43246
40390,43327
40373,43413
34766,43413
34749,43327
34715,43246
34667,43173
34604,43110
34531,43062
34450,43028
34364,43011
34275,43011
34189,43028
34108,43062
34035,43110
33972,43173
33924,43246
33890,43327
33873,43413
31530,43413
31511,43260
31458,43101
31375,42955
31266,42828
31134,42725
30985,42650
30823,42605
30657,42592
30490,42612
30331,42664
30185,42745
30058,42854
29954,42985
29877,43134
29863,43182
29835,43140
29773,43078
29699,43029
29618,42995
29532,42978
29444,42978
29357,42995
29276,43029
29203,43078
29141,43140
29092,43213
29058,43294
29041,43381
25543,43381
25548,43330
25536,43203
25499,43080
25438,42967
25357,42868
25311,42830
25357,42792
25438,42693
25499,42580
25536,42458
25537,42448
127679,42448
127692,42576
127729,42698
127789,42811
127870,42910
127917,42948
127870,42986
127789,43085
127729,43198
127692,43321
127679,43448
127692,43576
127729,43698
127789,43811
127870,43910
127917,43948
127837,44024
127764,44129
127713,44246
127700,44298
127747,44398
128532,44398
128532,44390
128632,44390
128632,44398
129418,44398
129464,44298
129452,44246
129400,44129
129327,44024
129248,43948
129294,43910
129375,43811
129436,43698
129473,43576
129485,43448
129473,43321
129436,43198
129375,43085
129294,42986
129248,42948
129294,42910
129375,42811
129436,42698
129473,42576
129485,42448
129473,42321
129436,42198
129375,42085
129294,41986
129195,41905
129082,41845
128960,41808
128864,41798
128300,41798
128205,41808
128082,41845
127969,41905
127870,41986
127789,42085
127729,42198
127692,42321
127679,42448
25537,42448
25548,42330
25536,42203
25499,42080
25438,41967
25367,41880
25627,41880
25723,41871
25845,41834
25958,41773
26057,41692
26138,41593
26199,41480
26236,41358
26248,41230
26236,41103
26199,40980
26164,40915
80354,40915
80354,41004
80371,41090
80405,41171
80453,41244
80516,41307
80589,41355
80670,41389
80756,41406
80845,41406
80931,41389
81012,41355
81085,41307
81148,41244
81196,41171
81230,41090
81245,41015
119954,41015
119954,41104
119971,41190
120005,41271
120053,41344
120116,41407
120189,41455
120270,41489
120356,41506
120445,41506
120531,41489
120612,41455
120685,41407
120748,41344
120796,41271
120830,41190
120847,41104
120847,41015
120830,40929
120825,40915
126054,40915
126054,41004
126071,41090
126105,41171
126153,41244
126216,41307
126289,41355
126370,41389
126456,41406
126545,41406
126631,41389
126712,41355
126785,41307
126848,41244
126896,41171
126930,41090
126947,41004
126947,40915
126930,40829
126912,40785
129960,40785
129960,40796
129960,40806
129962,40822
129962,40825
129964,40835
129967,40859
129968,40862
130004,41088
130004,41091
130008,41114
130010,41125
130010,41127
130013,41143
130017,41153
130020,41163
130027,41178
130027,41180
130032,41190
130043,41211
130044,41213
130148,41417
130149,41420
130160,41441
130165,41450
130167,41452
130174,41466
130181,41475
130187,41484
130198,41495
130199,41497
130207,41505
130223,41522
130226,41523
130388,41686
130389,41688
130407,41705
130414,41712
130416,41714
130428,41725
130437,41731
130445,41737
130459,41745
130461,41746
130471,41751
130492,41762
130494,41763
130698,41867
130700,41869
130722,41879
130731,41884
130734,41885
130748,41892
130758,41894
130768,41898
130784,41901
130787,41902
130797,41904
130821,41908
130823,41908
131055,41944
131063,41947
131081,41948
131086,41949
131094,41950
131102,41951
131108,41951
131126,41952
131134,41951
132248,41951
132208,41963
132161,41988
132120,42022
132086,42063
132061,42109
132046,42160
132040,42213
132042,42226
132042,42987
132040,43001
132046,43053
132061,43104
132086,43151
132120,43192
132144,43212
132161,43226
132208,43251
132258,43266
132311,43272
132325,43270
133873,43270
133886,43272
133939,43266
133990,43251
134037,43226
134078,43192
134111,43151
134136,43104
134152,43053
134156,43014
134156,43014
134157,43001
134156,42987
134156,42226
134157,42213
134152,42160
134136,42109
134111,42063
134078,42022
134037,41988
133990,41963
133939,41947
133899,41943
133886,41942
133873,41943
132363,41943
132588,41908
132591,41908
132615,41904
132625,41902
132628,41901
132643,41898
132653,41895
132664,41892
132678,41885
132680,41884
132690,41879
132711,41869
132714,41867
132918,41763
132921,41762
132942,41751
132951,41746
132953,41745
132967,41737
132976,41731
132984,41725
132996,41714
132998,41712
133006,41704
133023,41688
133024,41686
133186,41524
133188,41522
133205,41505
133213,41497
133214,41495
133225,41484
133231,41475
133238,41466
133245,41452
133246,41450
133251,41441
133263,41419
133264,41417
133368,41213
133369,41211
133380,41190
133385,41180
133386,41178
133393,41163
133395,41153
133399,41143
133402,41127
133403,41125
133404,41114
133408,41091
133408,41088
133444,40862
133445,40859
133448,40835
133450,40825
133450,40822
133452,40806
133452,40796
133452,40785
133450,40769
133450,40767
133448,40756
133445,40733
133444,40730
133408,40503
133408,40501
133404,40477
133403,40467
133402,40464
133399,40448
133395,40439
133393,40428
133386,40414
133385,40411
133380,40402
133369,40381
133368,40378
133264,40175
133263,40172
133251,40151
133246,40141
133245,40139
133238,40125
133231,40117
133225,40108
133214,40096
133213,40095
133205,40087
133188,40069
133186,40068
133024,39906
133023,39904
133006,39887
132998,39880
132996,39878
132984,39867
132976,39861
132967,39855
132953,39847
132951,39845
132942,39841
132921,39829
132918,39829
132714,39725
132711,39723
132690,39713
132680,39708
132678,39707
132664,39700
132653,39697
132643,39693
132628,39690
132625,39690
132615,39688
132591,39684
132588,39684
132357,39647
132350,39645
132331,39643
132326,39642
132318,39642
132310,39641
132305,39641
132286,39640
132278,39641
131134,39641
131126,39640
131108,39641
131102,39641
131094,39642
131086,39642
131081,39643
131063,39645
131055,39647
130823,39684
130821,39684
130797,39688
130787,39690
130784,39690
130768,39693
130758,39697
130748,39700
130734,39707
130731,39708
130722,39713
130700,39723
130698,39725
130494,39829
130492,39829
130471,39841
130461,39845
130459,39847
130445,39854
130437,39861
130428,39867
130416,39878
130414,39880
130407,39887
130389,39904
130388,39906
130226,40068
130223,40070
130207,40087
130199,40094
130198,40096
130187,40108
130181,40117
130174,40125
130167,40139
130165,40141
130160,40151
130149,40172
130148,40175
130044,40378
130043,40381
130032,40402
130027,40412
130027,40414
130020,40428
130017,40439
130013,40449
130010,40464
130010,40467
130008,40477
130004,40501
130004,40504
129968,40730
129967,40733
129964,40756
129962,40767
129962,40769
129960,40785
126912,40785
126896,40748
126848,40675
126785,40612
126712,40564
126631,40530
126545,40513
126456,40513
126370,40530
126289,40564
126216,40612
126153,40675
126105,40748
126071,40829
126054,40915
120825,40915
120796,40848
120748,40775
120685,40712
120612,40664
120531,40630
120445,40613
120356,40613
120270,40630
120189,40664
120116,40712
120053,40775
120005,40848
119971,40929
119954,41015
81245,41015
81247,41004
81247,40915
81230,40829
81196,40748
81148,40675
81085,40612
81012,40564
80931,40530
80845,40513
80756,40513
80670,40530
80589,40564
80516,40612
80453,40675
80405,40748
80371,40829
80354,40915
26164,40915
26138,40867
26057,40768
25958,40687
25845,40627
25723,40590
25627,40580
25063,40580
24968,40590
24845,40627
24732,40687
24633,40768
24552,40867
24492,40980
24455,41103
24442,41230
24455,41358
24492,41480
24552,41593
24624,41680
24363,41680
24268,41690
24145,41727
24032,41787
23933,41868
23852,41967
23792,42080
23755,42203
23742,42330
21152,42330
21152,42246
21153,42233
21148,42180
21132,42129
21107,42082
21074,42041
21033,42008
20986,41982
20935,41967
20895,41963
20882,41962
20869,41963
19320,41963
19307,41962
19294,41963
19254,41967
19203,41982
19157,42008
19116,42041
19082,42082
19057,42129
19041,42180
19036,42233
18842,42233
18842,40785
19779,40785
19780,40796
19779,40806
19781,40822
19781,40825
19783,40835
19786,40859
19787,40862
19823,41088
19823,41091
19827,41114
19829,41125
19830,41127
19832,41143
19836,41153
19839,41163
19846,41178
19847,41180
19852,41190
19862,41211
19864,41213
19968,41417
19968,41419
19980,41441
19985,41450
19986,41452
19993,41466
20000,41475
20006,41484
20017,41495
20019,41497
20026,41505
20043,41522
20045,41523
20207,41686
20209,41688
20226,41704
20233,41712
20235,41714
20247,41725
20256,41731
20264,41737
20278,41745
20280,41746
20290,41751
20311,41762
20313,41763
20518,41867
20520,41869
20541,41879
20551,41884
20553,41885
20568,41892
20578,41895
20588,41898
20604,41901
20606,41902
20617,41904
20640,41908
20643,41908
20874,41944
20882,41947
20900,41948
20906,41949
20914,41950
20922,41951
20927,41951
20945,41952
20953,41951
22097,41951
22105,41952
22124,41951
22129,41951
22137,41950
22145,41949
22150,41948
22169,41947
22176,41944
22408,41908
22411,41908
22434,41904
22445,41902
22447,41901
22463,41898
22473,41895
22483,41892
22497,41885
22500,41884
22509,41879
22531,41869
22533,41867
22737,41763
22740,41762
22761,41751
22770,41746
22773,41745
22787,41737
22795,41731
22804,41725
22815,41714
22818,41712
22825,41704
22842,41688
22844,41686
23006,41523
23008,41522
23024,41505
23032,41497
23034,41495
23045,41484
23050,41475
23057,41466
23065,41452
23066,41450
23071,41441
23082,41419
23083,41417
23187,41213
23189,41211
23199,41190
23204,41180
23205,41178
23212,41163
23215,41153
23218,41143
23221,41127
23222,41125
23224,41114
23228,41091
23228,41088
23264,40862
23264,40859
23268,40835
23269,40825
23270,40822
23272,40806
23271,40796
23272,40785
23270,40769
23269,40767
23268,40756
23264,40733
23264,40730
23228,40504
23228,40501
23224,40477
23222,40467
23221,40464
23218,40449
23215,40439
23212,40428
23205,40414
23204,40411
23199,40402
23189,40381
23187,40378
23083,40175
23082,40172
23071,40151
23066,40141
23065,40139
23057,40125
23050,40117
23045,40108
23034,40096
23032,40095
23024,40087
23008,40070
23006,40068
22844,39906
22842,39904
22825,39887
22818,39880
22815,39878
22804,39867
22795,39861
22787,39854
22773,39847
22770,39845
22761,39841
22740,39829
22737,39829
22533,39725
22531,39723
22509,39713
22500,39708
22497,39707
22483,39700
22473,39697
22463,39693
22447,39690
22445,39690
22434,39688
22411,39684
22408,39684
22176,39647
22169,39645
22150,39643
22145,39642
22137,39642
22129,39641
22124,39641
22105,39640
22097,39641
20953,39641
20945,39640
20927,39641
20922,39641
20914,39642
20906,39642
20900,39643
20882,39645
20874,39647
20643,39684
20640,39684
20617,39688
20606,39690
20604,39690
20588,39693
20578,39697
20568,39700
20553,39707
20551,39708
20541,39713
20520,39723
20518,39725
20313,39829
20311,39829
20290,39841
20280,39845
20278,39847
20264,39854
20256,39861
20247,39867
20235,39878
20233,39880
20226,39887
20209,39904
20207,39906
20045,40068
20043,40070
20026,40087
20019,40095
20017,40096
20006,40108
20000,40117
19993,40125
19986,40139
19985,40141
19980,40151
19968,40172
19968,40175
19864,40378
19862,40381
19852,40402
19847,40411
19846,40414
19839,40428
19836,40439
19832,40449
19830,40464
19829,40467
19827,40477
19823,40501
19823,40504
19787,40730
19786,40733
19783,40756
19781,40767
19781,40769
19779,40785
18842,40785
18842,40522
18871,40342
18944,40198
19058,40084
19201,40011
19381,39983
19460,39983
19462,39983
19486,39983
19497,39983
19499,39983
19516,39982
19526,39980
19536,39979
19552,39974
19567,39971
19577,39967
19587,39964
19601,39956
19616,39950
19625,39943
19634,39938
19646,39928
19660,39919
19667,39911
19675,39905
19685,39892
19696,39881
19702,39872
19709,39864
19716,39850
19718,39847
19723,39838
19734,39817
19735,39814
19762,39761
19897,39626
20068,39539
20278,39506
22773,39506
22983,39539
Z" /> 
</g>
</g> 
</svg>
