G04 #@! TF.GenerationSoftware,KiCad,Pcbnew,(5.0.0-3-g5ebb6b6)*
G04 #@! TF.CreationDate,2019-02-17T13:26:06-08:00*
G04 #@! TF.ProjectId,DInside,44496E736964652E6B696361645F7063,rev?*
G04 #@! TF.SameCoordinates,Original*
G04 #@! TF.FileFunction,Copper,L4,Bot,Signal*
G04 #@! TF.FilePolarity,Positive*
%FSLAX46Y46*%
G04 Gerber Fmt 4.6, Leading zero omitted, Abs format (unit mm)*
G04 Created by KiCad (PCBNEW (5.0.0-3-g5ebb6b6)) date Sunday, February 17, 2019 at 01:26:06 PM*
%MOMM*%
%LPD*%
G01*
G04 APERTURE LIST*
G04 #@! TA.AperFunction,ComponentPad*
%ADD10O,5.080000X1.524000*%
G04 #@! TD*
G04 #@! TA.AperFunction,ViaPad*
%ADD11C,1.000000*%
G04 #@! TD*
G04 #@! TA.AperFunction,Conductor*
%ADD12C,0.500000*%
G04 #@! TD*
G04 APERTURE END LIST*
D10*
G04 #@! TO.P,J1,3*
G04 #@! TO.N,GND*
X57861200Y-112379760D03*
G04 #@! TO.P,J1,2*
G04 #@! TO.N,Net-(D1-Pad4)*
X57861200Y-110347760D03*
G04 #@! TO.P,J1,1*
G04 #@! TO.N,+5V*
X57861200Y-108315760D03*
G04 #@! TD*
G04 #@! TO.P,J2,3*
G04 #@! TO.N,GND*
X331406500Y-111950500D03*
G04 #@! TO.P,J2,2*
G04 #@! TO.N,Net-(D16-Pad3)*
X331406500Y-109918500D03*
G04 #@! TO.P,J2,1*
G04 #@! TO.N,+5V*
X331406500Y-107886500D03*
G04 #@! TD*
D11*
G04 #@! TO.N,+5V*
X103682800Y-110383320D03*
X136702800Y-110383320D03*
X120192800Y-110383320D03*
X153720800Y-110383320D03*
X170230800Y-110383320D03*
X186740800Y-110383320D03*
X236778800Y-110383320D03*
X220268800Y-110383320D03*
X253542806Y-110319820D03*
X287020000Y-110472220D03*
X270256000Y-109964220D03*
X87172800Y-110383320D03*
X73914000Y-110218220D03*
X321312540Y-104038400D03*
X205234540Y-104038400D03*
X207266540Y-110388400D03*
X72392540Y-103784400D03*
X307088540Y-109880394D03*
X305818540Y-104292400D03*
X62748160Y-108315760D03*
G04 #@! TO.N,GND*
X114681000Y-110396020D03*
X131419600Y-110421420D03*
X147980400Y-110421420D03*
X164668200Y-110396020D03*
X181356000Y-110396020D03*
X197916800Y-110370620D03*
X231241600Y-110421420D03*
X247929400Y-110396020D03*
X263144000Y-109989620D03*
X281178000Y-110218220D03*
X297942000Y-109964220D03*
X98044000Y-110370620D03*
X81788000Y-110472220D03*
X314939680Y-104208580D03*
X199646540Y-104292400D03*
X215394540Y-110388400D03*
X67312540Y-105054400D03*
X300230540Y-104292400D03*
X315470540Y-110388400D03*
X62417960Y-112344200D03*
G04 #@! TD*
D12*
G04 #@! TO.N,+5V*
X62748160Y-108315760D02*
X57861200Y-108315760D01*
G04 #@! TO.N,GND*
X57896760Y-112344200D02*
X57861200Y-112379760D01*
X62417960Y-112344200D02*
X57896760Y-112344200D01*
G04 #@! TD*
M02*
