M48
INCH,TZ
T1C0.0236
T2C0.0500
%
G90
G05
T1
X24574Y-44230
X24704Y-42644
X26501Y-41360
X28501Y-40860
X29100Y-43393
X32200Y-43493
X34320Y-43458
X38600Y-43453
X40820Y-43458
X45150Y-43463
X47320Y-43458
X51740Y-43473
X53820Y-43458
X58260Y-43473
X60520Y-43458
X64830Y-43463
X67020Y-43458
X71400Y-43463
X73520Y-43458
X77920Y-43453
X78601Y-41060
X80801Y-40960
X81601Y-43460
X84801Y-43460
X86720Y-43458
X91040Y-43473
X93220Y-43458
X97610Y-43463
X99820Y-43433
X103600Y-43303
X106400Y-43293
X110700Y-43393
X113000Y-43493
X117300Y-43293
X118201Y-41060
X120401Y-41060
X120901Y-43260
X123992Y-41027
X124201Y-43460
X126501Y-40960
T2
X130475Y-42475G85X130475Y-42475
G05
X130475Y-43275G85X130475Y-43275
G05
X130475Y-44075G85X130475Y-44075
G05
X22780Y-42644G85X22780Y-42644
G05
X22780Y-43444G85X22780Y-43444
G05
X22780Y-44244G85X22780Y-44244
G05
T0
M30
