<?xml version="1.0" standalone="no"?>
 <!DOCTYPE svg PUBLIC "-//W3C//DTD SVG 1.1//EN" 
 "http://www.w3.org/Graphics/SVG/1.1/DTD/svg11.dtd"> 
<svg xmlns="http://www.w3.org/2000/svg" version="1.1" 
    width="41.9989cm" height="29.7002cm" viewBox="0 0 165350 116930 ">
<title>SVG Picture created as DInside-F_Paste.svg date 2019/04/12 10:46:18 </title>
  <desc>Picture generated by PCBNEW </desc>
<g style="fill:#000000; fill-opacity:1;stroke:#000000; stroke-opacity:1;
stroke-linecap:round; stroke-linejoin:round; "
 transform="translate(0 0) scale(1 1)">
</g>
<g style="fill:#000000; fill-opacity:0.0; 
stroke:#000000; stroke-width:-0.000393701; stroke-opacity:1; 
stroke-linecap:round; stroke-linejoin:round;">
<g >
</g>
<g style="fill:#000000; fill-opacity:0.0; 
stroke:#000000; stroke-width:0; stroke-opacity:1; 
stroke-linecap:round; stroke-linejoin:round;">
</g>
<g style="fill:#000000; fill-opacity:1.0; 
stroke:#000000; stroke-width:0; stroke-opacity:1; 
stroke-linecap:round; stroke-linejoin:round;">
<path style="fill:#000000; fill-opacity:1.0; 
stroke:#000000; stroke-width:0; stroke-opacity:1; 
stroke-linecap:round; stroke-linejoin:round;fill-rule:evenodd;"
d="M 28663,43887
28663,44280
28073,44280
28073,43887
28663,43887
Z" /> 
<path style="fill:#000000; fill-opacity:1.0; 
stroke:#000000; stroke-width:0; stroke-opacity:1; 
stroke-linecap:round; stroke-linejoin:round;fill-rule:evenodd;"
d="M 28663,43257
28663,43650
28073,43650
28073,43257
28663,43257
Z" /> 
<path style="fill:#000000; fill-opacity:1.0; 
stroke:#000000; stroke-width:0; stroke-opacity:1; 
stroke-linecap:round; stroke-linejoin:round;fill-rule:evenodd;"
d="M 28663,42627
28663,43020
28073,43020
28073,42627
28663,42627
Z" /> 
<path style="fill:#000000; fill-opacity:1.0; 
stroke:#000000; stroke-width:0; stroke-opacity:1; 
stroke-linecap:round; stroke-linejoin:round;fill-rule:evenodd;"
d="M 26734,43887
26734,44280
26144,44280
26144,43887
26734,43887
Z" /> 
<path style="fill:#000000; fill-opacity:1.0; 
stroke:#000000; stroke-width:0; stroke-opacity:1; 
stroke-linecap:round; stroke-linejoin:round;fill-rule:evenodd;"
d="M 26734,43257
26734,43650
26144,43650
26144,43257
26734,43257
Z" /> 
<path style="fill:#000000; fill-opacity:1.0; 
stroke:#000000; stroke-width:0; stroke-opacity:1; 
stroke-linecap:round; stroke-linejoin:round;fill-rule:evenodd;"
d="M 26734,42627
26734,43020
26144,43020
26144,42627
26734,42627
Z" /> 
</g>
<g >
</g>
<g >
</g>
<g >
<path style="fill:#000000; fill-opacity:1.0; 
stroke:#000000; stroke-width:0; stroke-opacity:1; 
stroke-linecap:round; stroke-linejoin:round;fill-rule:evenodd;"
d="M 125872,41431
125881,41433
125890,41435
125899,41438
125908,41442
125916,41447
125923,41453
125930,41459
125937,41466
125942,41474
125947,41482
125951,41490
125954,41499
125956,41508
125958,41517
125958,41527
125958,41886
125958,41896
125956,41905
125954,41914
125951,41923
125947,41931
125942,41939
125937,41947
125930,41954
125923,41960
125916,41966
125908,41971
125899,41975
125890,41978
125881,41980
125872,41982
125862,41982
125670,41982
125661,41982
125652,41980
125643,41978
125634,41975
125625,41971
125617,41966
125610,41960
125603,41954
125596,41947
125591,41939
125586,41931
125582,41923
125579,41914
125576,41905
125575,41896
125574,41886
125574,41527
125575,41517
125576,41508
125579,41499
125582,41490
125586,41482
125591,41474
125596,41466
125603,41459
125610,41453
125617,41447
125625,41442
125634,41438
125643,41435
125652,41433
125661,41431
125670,41431
125862,41431
125872,41431
Z" /> 
<path style="fill:#000000; fill-opacity:1.0; 
stroke:#000000; stroke-width:0; stroke-opacity:1; 
stroke-linecap:round; stroke-linejoin:round;fill-rule:evenodd;"
d="M 126610,41431
126619,41433
126628,41435
126637,41438
126646,41442
126654,41447
126661,41453
126668,41459
126675,41466
126680,41474
126685,41482
126689,41490
126692,41499
126695,41508
126696,41517
126697,41527
126697,41886
126696,41896
126695,41905
126692,41914
126689,41923
126685,41931
126680,41939
126675,41947
126668,41954
126661,41960
126654,41966
126646,41971
126637,41975
126628,41978
126619,41980
126610,41982
126601,41982
126409,41982
126399,41982
126390,41980
126381,41978
126372,41975
126363,41971
126355,41966
126348,41960
126341,41954
126334,41947
126329,41939
126324,41931
126320,41923
126317,41914
126315,41905
126313,41896
126313,41886
126313,41527
126313,41517
126315,41508
126317,41499
126320,41490
126324,41482
126329,41474
126334,41466
126341,41459
126348,41453
126355,41447
126363,41442
126372,41438
126381,41435
126390,41433
126399,41431
126409,41431
126601,41431
126610,41431
Z" /> 
</g>
<g >
<path style="fill:#000000; fill-opacity:1.0; 
stroke:#000000; stroke-width:0; stroke-opacity:1; 
stroke-linecap:round; stroke-linejoin:round;fill-rule:evenodd;"
d="M 27871,45157
27880,45159
27889,45161
27898,45164
27906,45168
27915,45173
27922,45179
27929,45185
27935,45192
27941,45200
27946,45208
27950,45216
27953,45225
27955,45234
27957,45244
27957,45253
27957,45612
27957,45622
27955,45631
27953,45640
27950,45649
27946,45657
27941,45666
27935,45673
27929,45680
27922,45686
27915,45692
27906,45697
27898,45701
27889,45704
27880,45706
27871,45708
27861,45708
27669,45708
27660,45708
27651,45706
27641,45704
27633,45701
27624,45697
27616,45692
27608,45686
27601,45680
27595,45673
27589,45666
27585,45657
27581,45649
27577,45640
27575,45631
27574,45622
27573,45612
27573,45253
27574,45244
27575,45234
27577,45225
27581,45216
27585,45208
27589,45200
27595,45192
27601,45185
27608,45179
27616,45173
27624,45168
27633,45164
27641,45161
27651,45159
27660,45157
27669,45157
27861,45157
27871,45157
Z" /> 
<path style="fill:#000000; fill-opacity:1.0; 
stroke:#000000; stroke-width:0; stroke-opacity:1; 
stroke-linecap:round; stroke-linejoin:round;fill-rule:evenodd;"
d="M 28609,45157
28618,45159
28627,45161
28636,45164
28645,45168
28653,45173
28660,45179
28667,45185
28674,45192
28679,45200
28684,45208
28688,45216
28691,45225
28694,45234
28695,45244
28695,45253
28695,45612
28695,45622
28694,45631
28691,45640
28688,45649
28684,45657
28679,45666
28674,45673
28667,45680
28660,45686
28653,45692
28645,45697
28636,45701
28627,45704
28618,45706
28609,45708
28599,45708
28407,45708
28398,45708
28389,45706
28380,45704
28371,45701
28362,45697
28354,45692
28347,45686
28340,45680
28333,45673
28328,45666
28323,45657
28319,45649
28316,45640
28313,45631
28312,45622
28312,45612
28312,45253
28312,45244
28313,45234
28316,45225
28319,45216
28323,45208
28328,45200
28333,45192
28340,45185
28347,45179
28354,45173
28362,45168
28371,45164
28380,45161
28389,45159
28398,45157
28407,45157
28599,45157
28609,45157
Z" /> 
</g>
<g >
<path style="fill:#000000; fill-opacity:1.0; 
stroke:#000000; stroke-width:0; stroke-opacity:1; 
stroke-linecap:round; stroke-linejoin:round;fill-rule:evenodd;"
d="M 109672,43053
109681,43054
109690,43057
109699,43060
109707,43064
109715,43069
109723,43074
109730,43080
109736,43087
109742,43095
109747,43103
109751,43112
109754,43120
109756,43130
109758,43139
109758,43148
109758,43340
109758,43350
109756,43359
109754,43368
109751,43377
109747,43386
109742,43394
109736,43401
109730,43408
109723,43414
109715,43420
109707,43425
109699,43429
109690,43432
109681,43434
109672,43436
109662,43436
109303,43436
109293,43436
109284,43434
109275,43432
109266,43429
109258,43425
109250,43420
109242,43414
109235,43408
109229,43401
109223,43394
109218,43386
109214,43377
109211,43368
109209,43359
109207,43350
109207,43340
109207,43148
109207,43139
109209,43130
109211,43120
109214,43112
109218,43103
109223,43095
109229,43087
109235,43080
109242,43074
109250,43069
109258,43064
109266,43060
109275,43057
109284,43054
109293,43053
109303,43052
109662,43052
109672,43053
Z" /> 
<path style="fill:#000000; fill-opacity:1.0; 
stroke:#000000; stroke-width:0; stroke-opacity:1; 
stroke-linecap:round; stroke-linejoin:round;fill-rule:evenodd;"
d="M 109672,43791
109681,43792
109690,43795
109699,43798
109707,43802
109715,43807
109723,43812
109730,43819
109736,43826
109742,43833
109747,43841
109751,43850
109754,43859
109756,43868
109758,43877
109758,43887
109758,44078
109758,44088
109756,44097
109754,44106
109751,44115
109747,44124
109742,44132
109736,44139
109730,44146
109723,44153
109715,44158
109707,44163
109699,44167
109690,44170
109681,44173
109672,44174
109662,44174
109303,44174
109293,44174
109284,44173
109275,44170
109266,44167
109258,44163
109250,44158
109242,44153
109235,44146
109229,44139
109223,44132
109218,44124
109214,44115
109211,44106
109209,44097
109207,44088
109207,44078
109207,43887
109207,43877
109209,43868
109211,43859
109214,43850
109218,43841
109223,43833
109229,43826
109235,43819
109242,43812
109250,43807
109258,43802
109266,43798
109275,43795
109284,43792
109293,43791
109303,43791
109662,43791
109672,43791
Z" /> 
</g>
<g >
<path style="fill:#000000; fill-opacity:1.0; 
stroke:#000000; stroke-width:0; stroke-opacity:1; 
stroke-linecap:round; stroke-linejoin:round;fill-rule:evenodd;"
d="M 116233,43053
116243,43054
116252,43057
116261,43060
116269,43064
116277,43069
116285,43074
116292,43080
116298,43087
116304,43095
116308,43103
116312,43112
116316,43120
116318,43130
116319,43139
116320,43148
116320,43340
116319,43350
116318,43359
116316,43368
116312,43377
116308,43386
116304,43394
116298,43401
116292,43408
116285,43414
116277,43420
116269,43425
116261,43429
116252,43432
116243,43434
116233,43436
116224,43436
115865,43436
115855,43436
115846,43434
115837,43432
115828,43429
115819,43425
115811,43420
115804,43414
115797,43408
115790,43401
115785,43394
115780,43386
115776,43377
115773,43368
115770,43359
115769,43350
115769,43340
115769,43148
115769,43139
115770,43130
115773,43120
115776,43112
115780,43103
115785,43095
115790,43087
115797,43080
115804,43074
115811,43069
115819,43064
115828,43060
115837,43057
115846,43054
115855,43053
115865,43052
116224,43052
116233,43053
Z" /> 
<path style="fill:#000000; fill-opacity:1.0; 
stroke:#000000; stroke-width:0; stroke-opacity:1; 
stroke-linecap:round; stroke-linejoin:round;fill-rule:evenodd;"
d="M 116233,43791
116243,43792
116252,43795
116261,43798
116269,43802
116277,43807
116285,43812
116292,43819
116298,43826
116304,43833
116308,43841
116312,43850
116316,43859
116318,43868
116319,43877
116320,43887
116320,44078
116319,44088
116318,44097
116316,44106
116312,44115
116308,44124
116304,44132
116298,44139
116292,44146
116285,44153
116277,44158
116269,44163
116261,44167
116252,44170
116243,44173
116233,44174
116224,44174
115865,44174
115855,44174
115846,44173
115837,44170
115828,44167
115819,44163
115811,44158
115804,44153
115797,44146
115790,44139
115785,44132
115780,44124
115776,44115
115773,44106
115770,44097
115769,44088
115769,44078
115769,43887
115769,43877
115770,43868
115773,43859
115776,43850
115780,43841
115785,43833
115790,43826
115797,43819
115804,43812
115811,43807
115819,43802
115828,43798
115837,43795
115846,43792
115855,43791
115865,43791
116224,43791
116233,43791
Z" /> 
</g>
<g >
<path style="fill:#000000; fill-opacity:1.0; 
stroke:#000000; stroke-width:0; stroke-opacity:1; 
stroke-linecap:round; stroke-linejoin:round;fill-rule:evenodd;"
d="M 118337,41384
118346,41386
118355,41388
118364,41391
118373,41395
118381,41400
118388,41406
118395,41412
118402,41419
118407,41427
118412,41435
118416,41443
118419,41452
118421,41461
118423,41470
118423,41480
118423,41839
118423,41849
118421,41858
118419,41867
118416,41876
118412,41884
118407,41892
118402,41900
118395,41907
118388,41913
118381,41919
118373,41924
118364,41928
118355,41931
118346,41933
118337,41935
118327,41935
118135,41935
118126,41935
118117,41933
118108,41931
118099,41928
118090,41924
118082,41919
118075,41913
118068,41907
118061,41900
118056,41892
118051,41884
118047,41876
118044,41867
118041,41858
118040,41849
118039,41839
118039,41480
118040,41470
118041,41461
118044,41452
118047,41443
118051,41435
118056,41427
118061,41419
118068,41412
118075,41406
118082,41400
118090,41395
118099,41391
118108,41388
118117,41386
118126,41384
118135,41384
118327,41384
118337,41384
Z" /> 
<path style="fill:#000000; fill-opacity:1.0; 
stroke:#000000; stroke-width:0; stroke-opacity:1; 
stroke-linecap:round; stroke-linejoin:round;fill-rule:evenodd;"
d="M 119075,41384
119084,41386
119093,41388
119102,41391
119111,41395
119119,41400
119126,41406
119133,41412
119140,41419
119145,41427
119150,41435
119154,41443
119157,41452
119160,41461
119161,41470
119162,41480
119162,41839
119161,41849
119160,41858
119157,41867
119154,41876
119150,41884
119145,41892
119140,41900
119133,41907
119126,41913
119119,41919
119111,41924
119102,41928
119093,41931
119084,41933
119075,41935
119066,41935
118874,41935
118864,41935
118855,41933
118846,41931
118837,41928
118828,41924
118820,41919
118813,41913
118806,41907
118799,41900
118794,41892
118789,41884
118785,41876
118782,41867
118780,41858
118778,41849
118778,41839
118778,41480
118778,41470
118780,41461
118782,41452
118785,41443
118789,41435
118794,41427
118799,41419
118806,41412
118813,41406
118820,41400
118828,41395
118837,41391
118846,41388
118855,41386
118864,41384
118874,41384
119066,41384
119075,41384
Z" /> 
</g>
<g >
<path style="fill:#000000; fill-opacity:1.0; 
stroke:#000000; stroke-width:0; stroke-opacity:1; 
stroke-linecap:round; stroke-linejoin:round;fill-rule:evenodd;"
d="M 124096,41423
124105,41425
124114,41427
124123,41430
124132,41434
124140,41439
124147,41445
124154,41451
124161,41458
124166,41466
124171,41474
124175,41482
124178,41491
124180,41500
124182,41509
124182,41519
124182,41878
124182,41888
124180,41897
124178,41906
124175,41915
124171,41923
124166,41931
124161,41939
124154,41946
124147,41952
124140,41958
124132,41963
124123,41967
124114,41970
124105,41972
124096,41974
124086,41974
123894,41974
123885,41974
123876,41972
123867,41970
123858,41967
123849,41963
123841,41958
123834,41952
123827,41946
123820,41939
123815,41931
123810,41923
123806,41915
123803,41906
123800,41897
123799,41888
123798,41878
123798,41519
123799,41509
123800,41500
123803,41491
123806,41482
123810,41474
123815,41466
123820,41458
123827,41451
123834,41445
123841,41439
123849,41434
123858,41430
123867,41427
123876,41425
123885,41423
123894,41423
124086,41423
124096,41423
Z" /> 
<path style="fill:#000000; fill-opacity:1.0; 
stroke:#000000; stroke-width:0; stroke-opacity:1; 
stroke-linecap:round; stroke-linejoin:round;fill-rule:evenodd;"
d="M 124834,41423
124843,41425
124852,41427
124861,41430
124870,41434
124878,41439
124885,41445
124892,41451
124899,41458
124904,41466
124909,41474
124913,41482
124916,41491
124919,41500
124920,41509
124921,41519
124921,41878
124920,41888
124919,41897
124916,41906
124913,41915
124909,41923
124904,41931
124899,41939
124892,41946
124885,41952
124878,41958
124870,41963
124861,41967
124852,41970
124843,41972
124834,41974
124825,41974
124633,41974
124623,41974
124614,41972
124605,41970
124596,41967
124587,41963
124579,41958
124572,41952
124565,41946
124558,41939
124553,41931
124548,41923
124544,41915
124541,41906
124539,41897
124537,41888
124537,41878
124537,41519
124537,41509
124539,41500
124541,41491
124544,41482
124548,41474
124553,41466
124558,41458
124565,41451
124572,41445
124579,41439
124587,41434
124596,41430
124605,41427
124614,41425
124623,41423
124633,41423
124825,41423
124834,41423
Z" /> 
</g>
<g >
<path style="fill:#000000; fill-opacity:1.0; 
stroke:#000000; stroke-width:0; stroke-opacity:1; 
stroke-linecap:round; stroke-linejoin:round;fill-rule:evenodd;"
d="M 127085,43887
127085,44280
126495,44280
126495,43887
127085,43887
Z" /> 
<path style="fill:#000000; fill-opacity:1.0; 
stroke:#000000; stroke-width:0; stroke-opacity:1; 
stroke-linecap:round; stroke-linejoin:round;fill-rule:evenodd;"
d="M 127085,43257
127085,43650
126495,43650
126495,43257
127085,43257
Z" /> 
<path style="fill:#000000; fill-opacity:1.0; 
stroke:#000000; stroke-width:0; stroke-opacity:1; 
stroke-linecap:round; stroke-linejoin:round;fill-rule:evenodd;"
d="M 127085,42627
127085,43020
126495,43020
126495,42627
127085,42627
Z" /> 
<path style="fill:#000000; fill-opacity:1.0; 
stroke:#000000; stroke-width:0; stroke-opacity:1; 
stroke-linecap:round; stroke-linejoin:round;fill-rule:evenodd;"
d="M 125156,43887
125156,44280
124565,44280
124565,43887
125156,43887
Z" /> 
<path style="fill:#000000; fill-opacity:1.0; 
stroke:#000000; stroke-width:0; stroke-opacity:1; 
stroke-linecap:round; stroke-linejoin:round;fill-rule:evenodd;"
d="M 125156,43257
125156,43650
124565,43650
124565,43257
125156,43257
Z" /> 
<path style="fill:#000000; fill-opacity:1.0; 
stroke:#000000; stroke-width:0; stroke-opacity:1; 
stroke-linecap:round; stroke-linejoin:round;fill-rule:evenodd;"
d="M 125156,42627
125156,43020
124565,43020
124565,42627
125156,42627
Z" /> 
</g>
<g >
<path style="fill:#000000; fill-opacity:1.0; 
stroke:#000000; stroke-width:0; stroke-opacity:1; 
stroke-linecap:round; stroke-linejoin:round;fill-rule:evenodd;"
d="M 120523,43887
120523,44280
119933,44280
119933,43887
120523,43887
Z" /> 
<path style="fill:#000000; fill-opacity:1.0; 
stroke:#000000; stroke-width:0; stroke-opacity:1; 
stroke-linecap:round; stroke-linejoin:round;fill-rule:evenodd;"
d="M 120523,43257
120523,43650
119933,43650
119933,43257
120523,43257
Z" /> 
<path style="fill:#000000; fill-opacity:1.0; 
stroke:#000000; stroke-width:0; stroke-opacity:1; 
stroke-linecap:round; stroke-linejoin:round;fill-rule:evenodd;"
d="M 120523,42627
120523,43020
119933,43020
119933,42627
120523,42627
Z" /> 
<path style="fill:#000000; fill-opacity:1.0; 
stroke:#000000; stroke-width:0; stroke-opacity:1; 
stroke-linecap:round; stroke-linejoin:round;fill-rule:evenodd;"
d="M 118594,43887
118594,44280
118004,44280
118004,43887
118594,43887
Z" /> 
<path style="fill:#000000; fill-opacity:1.0; 
stroke:#000000; stroke-width:0; stroke-opacity:1; 
stroke-linecap:round; stroke-linejoin:round;fill-rule:evenodd;"
d="M 118594,43257
118594,43650
118004,43650
118004,43257
118594,43257
Z" /> 
<path style="fill:#000000; fill-opacity:1.0; 
stroke:#000000; stroke-width:0; stroke-opacity:1; 
stroke-linecap:round; stroke-linejoin:round;fill-rule:evenodd;"
d="M 118594,42627
118594,43020
118004,43020
118004,42627
118594,42627
Z" /> 
</g>
<g >
<path style="fill:#000000; fill-opacity:1.0; 
stroke:#000000; stroke-width:0; stroke-opacity:1; 
stroke-linecap:round; stroke-linejoin:round;fill-rule:evenodd;"
d="M 113962,43887
113962,44280
113371,44280
113371,43887
113962,43887
Z" /> 
<path style="fill:#000000; fill-opacity:1.0; 
stroke:#000000; stroke-width:0; stroke-opacity:1; 
stroke-linecap:round; stroke-linejoin:round;fill-rule:evenodd;"
d="M 113962,43257
113962,43650
113371,43650
113371,43257
113962,43257
Z" /> 
<path style="fill:#000000; fill-opacity:1.0; 
stroke:#000000; stroke-width:0; stroke-opacity:1; 
stroke-linecap:round; stroke-linejoin:round;fill-rule:evenodd;"
d="M 113962,42627
113962,43020
113371,43020
113371,42627
113962,42627
Z" /> 
<path style="fill:#000000; fill-opacity:1.0; 
stroke:#000000; stroke-width:0; stroke-opacity:1; 
stroke-linecap:round; stroke-linejoin:round;fill-rule:evenodd;"
d="M 112033,43887
112033,44280
111442,44280
111442,43887
112033,43887
Z" /> 
<path style="fill:#000000; fill-opacity:1.0; 
stroke:#000000; stroke-width:0; stroke-opacity:1; 
stroke-linecap:round; stroke-linejoin:round;fill-rule:evenodd;"
d="M 112033,43257
112033,43650
111442,43650
111442,43257
112033,43257
Z" /> 
<path style="fill:#000000; fill-opacity:1.0; 
stroke:#000000; stroke-width:0; stroke-opacity:1; 
stroke-linecap:round; stroke-linejoin:round;fill-rule:evenodd;"
d="M 112033,42627
112033,43020
111442,43020
111442,42627
112033,42627
Z" /> 
</g>
<g >
<path style="fill:#000000; fill-opacity:1.0; 
stroke:#000000; stroke-width:0; stroke-opacity:1; 
stroke-linecap:round; stroke-linejoin:round;fill-rule:evenodd;"
d="M 107400,43887
107400,44280
106809,44280
106809,43887
107400,43887
Z" /> 
<path style="fill:#000000; fill-opacity:1.0; 
stroke:#000000; stroke-width:0; stroke-opacity:1; 
stroke-linecap:round; stroke-linejoin:round;fill-rule:evenodd;"
d="M 107400,43257
107400,43650
106809,43650
106809,43257
107400,43257
Z" /> 
<path style="fill:#000000; fill-opacity:1.0; 
stroke:#000000; stroke-width:0; stroke-opacity:1; 
stroke-linecap:round; stroke-linejoin:round;fill-rule:evenodd;"
d="M 107400,42627
107400,43020
106809,43020
106809,42627
107400,42627
Z" /> 
<path style="fill:#000000; fill-opacity:1.0; 
stroke:#000000; stroke-width:0; stroke-opacity:1; 
stroke-linecap:round; stroke-linejoin:round;fill-rule:evenodd;"
d="M 105471,43887
105471,44280
104880,44280
104880,43887
105471,43887
Z" /> 
<path style="fill:#000000; fill-opacity:1.0; 
stroke:#000000; stroke-width:0; stroke-opacity:1; 
stroke-linecap:round; stroke-linejoin:round;fill-rule:evenodd;"
d="M 105471,43257
105471,43650
104880,43650
104880,43257
105471,43257
Z" /> 
<path style="fill:#000000; fill-opacity:1.0; 
stroke:#000000; stroke-width:0; stroke-opacity:1; 
stroke-linecap:round; stroke-linejoin:round;fill-rule:evenodd;"
d="M 105471,42627
105471,43020
104880,43020
104880,42627
105471,42627
Z" /> 
</g>
<g >
<path style="fill:#000000; fill-opacity:1.0; 
stroke:#000000; stroke-width:0; stroke-opacity:1; 
stroke-linecap:round; stroke-linejoin:round;fill-rule:evenodd;"
d="M 108593,43791
108602,43792
108611,43795
108620,43798
108628,43802
108636,43807
108644,43812
108651,43819
108657,43826
108663,43833
108668,43841
108672,43850
108675,43859
108677,43868
108679,43877
108679,43887
108679,44078
108679,44088
108677,44097
108675,44106
108672,44115
108668,44124
108663,44132
108657,44139
108651,44146
108644,44153
108636,44158
108628,44163
108620,44167
108611,44170
108602,44173
108593,44174
108583,44174
108224,44174
108214,44174
108205,44173
108196,44170
108187,44167
108179,44163
108171,44158
108163,44153
108156,44146
108150,44139
108144,44132
108139,44124
108135,44115
108132,44106
108130,44097
108128,44088
108128,44078
108128,43887
108128,43877
108130,43868
108132,43859
108135,43850
108139,43841
108144,43833
108150,43826
108156,43819
108163,43812
108171,43807
108179,43802
108187,43798
108196,43795
108205,43792
108214,43791
108224,43791
108583,43791
108593,43791
Z" /> 
<path style="fill:#000000; fill-opacity:1.0; 
stroke:#000000; stroke-width:0; stroke-opacity:1; 
stroke-linecap:round; stroke-linejoin:round;fill-rule:evenodd;"
d="M 108593,43053
108602,43054
108611,43057
108620,43060
108628,43064
108636,43069
108644,43074
108651,43080
108657,43087
108663,43095
108668,43103
108672,43112
108675,43120
108677,43130
108679,43139
108679,43148
108679,43340
108679,43350
108677,43359
108675,43368
108672,43377
108668,43386
108663,43394
108657,43401
108651,43408
108644,43414
108636,43420
108628,43425
108620,43429
108611,43432
108602,43434
108593,43436
108583,43436
108224,43436
108214,43436
108205,43434
108196,43432
108187,43429
108179,43425
108171,43420
108163,43414
108156,43408
108150,43401
108144,43394
108139,43386
108135,43377
108132,43368
108130,43359
108128,43350
108128,43340
108128,43148
108128,43139
108130,43130
108132,43120
108135,43112
108139,43103
108144,43095
108150,43087
108156,43080
108163,43074
108171,43069
108179,43064
108187,43060
108196,43057
108205,43054
108214,43053
108224,43052
108583,43052
108593,43053
Z" /> 
</g>
<g >
<path style="fill:#000000; fill-opacity:1.0; 
stroke:#000000; stroke-width:0; stroke-opacity:1; 
stroke-linecap:round; stroke-linejoin:round;fill-rule:evenodd;"
d="M 115154,43791
115164,43792
115173,43795
115182,43798
115190,43802
115198,43807
115206,43812
115213,43819
115219,43826
115225,43833
115229,43841
115233,43850
115237,43859
115239,43868
115240,43877
115241,43887
115241,44078
115240,44088
115239,44097
115237,44106
115233,44115
115229,44124
115225,44132
115219,44139
115213,44146
115206,44153
115198,44158
115190,44163
115182,44167
115173,44170
115164,44173
115154,44174
115145,44174
114786,44174
114776,44174
114767,44173
114758,44170
114749,44167
114740,44163
114732,44158
114725,44153
114718,44146
114711,44139
114706,44132
114701,44124
114697,44115
114694,44106
114691,44097
114690,44088
114690,44078
114690,43887
114690,43877
114691,43868
114694,43859
114697,43850
114701,43841
114706,43833
114711,43826
114718,43819
114725,43812
114732,43807
114740,43802
114749,43798
114758,43795
114767,43792
114776,43791
114786,43791
115145,43791
115154,43791
Z" /> 
<path style="fill:#000000; fill-opacity:1.0; 
stroke:#000000; stroke-width:0; stroke-opacity:1; 
stroke-linecap:round; stroke-linejoin:round;fill-rule:evenodd;"
d="M 115154,43053
115164,43054
115173,43057
115182,43060
115190,43064
115198,43069
115206,43074
115213,43080
115219,43087
115225,43095
115229,43103
115233,43112
115237,43120
115239,43130
115240,43139
115241,43148
115241,43340
115240,43350
115239,43359
115237,43368
115233,43377
115229,43386
115225,43394
115219,43401
115213,43408
115206,43414
115198,43420
115190,43425
115182,43429
115173,43432
115164,43434
115154,43436
115145,43436
114786,43436
114776,43436
114767,43434
114758,43432
114749,43429
114740,43425
114732,43420
114725,43414
114718,43408
114711,43401
114706,43394
114701,43386
114697,43377
114694,43368
114691,43359
114690,43350
114690,43340
114690,43148
114690,43139
114691,43130
114694,43120
114697,43112
114701,43103
114706,43095
114711,43087
114718,43080
114725,43074
114732,43069
114740,43064
114749,43060
114758,43057
114767,43054
114776,43053
114786,43052
115145,43052
115154,43053
Z" /> 
</g>
<g >
<path style="fill:#000000; fill-opacity:1.0; 
stroke:#000000; stroke-width:0; stroke-opacity:1; 
stroke-linecap:round; stroke-linejoin:round;fill-rule:evenodd;"
d="M 119837,41384
119846,41386
119855,41388
119864,41391
119873,41395
119881,41400
119888,41406
119895,41412
119902,41419
119907,41427
119912,41435
119916,41443
119919,41452
119921,41461
119923,41470
119923,41480
119923,41839
119923,41849
119921,41858
119919,41867
119916,41876
119912,41884
119907,41892
119902,41900
119895,41907
119888,41913
119881,41919
119873,41924
119864,41928
119855,41931
119846,41933
119837,41935
119827,41935
119635,41935
119626,41935
119617,41933
119608,41931
119599,41928
119590,41924
119582,41919
119575,41913
119568,41907
119561,41900
119556,41892
119551,41884
119547,41876
119544,41867
119541,41858
119540,41849
119539,41839
119539,41480
119540,41470
119541,41461
119544,41452
119547,41443
119551,41435
119556,41427
119561,41419
119568,41412
119575,41406
119582,41400
119590,41395
119599,41391
119608,41388
119617,41386
119626,41384
119635,41384
119827,41384
119837,41384
Z" /> 
<path style="fill:#000000; fill-opacity:1.0; 
stroke:#000000; stroke-width:0; stroke-opacity:1; 
stroke-linecap:round; stroke-linejoin:round;fill-rule:evenodd;"
d="M 120575,41384
120584,41386
120593,41388
120602,41391
120611,41395
120619,41400
120626,41406
120633,41412
120640,41419
120645,41427
120650,41435
120654,41443
120657,41452
120660,41461
120661,41470
120662,41480
120662,41839
120661,41849
120660,41858
120657,41867
120654,41876
120650,41884
120645,41892
120640,41900
120633,41907
120626,41913
120619,41919
120611,41924
120602,41928
120593,41931
120584,41933
120575,41935
120566,41935
120374,41935
120364,41935
120355,41933
120346,41931
120337,41928
120328,41924
120320,41919
120313,41913
120306,41907
120299,41900
120294,41892
120289,41884
120285,41876
120282,41867
120280,41858
120278,41849
120278,41839
120278,41480
120278,41470
120280,41461
120282,41452
120285,41443
120289,41435
120294,41427
120299,41419
120306,41412
120313,41406
120320,41400
120328,41395
120337,41391
120346,41388
120355,41386
120364,41384
120374,41384
120566,41384
120575,41384
Z" /> 
</g>
<g >
<path style="fill:#000000; fill-opacity:1.0; 
stroke:#000000; stroke-width:0; stroke-opacity:1; 
stroke-linecap:round; stroke-linejoin:round;fill-rule:evenodd;"
d="M 76734,43053
76743,43054
76752,43057
76761,43060
76770,43064
76778,43069
76785,43074
76792,43080
76799,43087
76804,43095
76809,43103
76813,43112
76816,43120
76819,43130
76820,43139
76821,43148
76821,43340
76820,43350
76819,43359
76816,43368
76813,43377
76809,43386
76804,43394
76799,43401
76792,43408
76785,43414
76778,43420
76770,43425
76761,43429
76752,43432
76743,43434
76734,43436
76725,43436
76365,43436
76356,43436
76347,43434
76337,43432
76329,43429
76320,43425
76312,43420
76304,43414
76297,43408
76291,43401
76286,43394
76281,43386
76277,43377
76273,43368
76271,43359
76270,43350
76269,43340
76269,43148
76270,43139
76271,43130
76273,43120
76277,43112
76281,43103
76286,43095
76291,43087
76297,43080
76304,43074
76312,43069
76320,43064
76329,43060
76337,43057
76347,43054
76356,43053
76365,43052
76725,43052
76734,43053
Z" /> 
<path style="fill:#000000; fill-opacity:1.0; 
stroke:#000000; stroke-width:0; stroke-opacity:1; 
stroke-linecap:round; stroke-linejoin:round;fill-rule:evenodd;"
d="M 76734,43791
76743,43792
76752,43795
76761,43798
76770,43802
76778,43807
76785,43812
76792,43819
76799,43826
76804,43833
76809,43841
76813,43850
76816,43859
76819,43868
76820,43877
76821,43887
76821,44078
76820,44088
76819,44097
76816,44106
76813,44115
76809,44124
76804,44132
76799,44139
76792,44146
76785,44153
76778,44158
76770,44163
76761,44167
76752,44170
76743,44173
76734,44174
76725,44174
76365,44174
76356,44174
76347,44173
76337,44170
76329,44167
76320,44163
76312,44158
76304,44153
76297,44146
76291,44139
76286,44132
76281,44124
76277,44115
76273,44106
76271,44097
76270,44088
76269,44078
76269,43887
76270,43877
76271,43868
76273,43859
76277,43850
76281,43841
76286,43833
76291,43826
76297,43819
76304,43812
76312,43807
76320,43802
76329,43798
76337,43795
76347,43792
76356,43791
76365,43791
76725,43791
76734,43791
Z" /> 
</g>
<g >
<path style="fill:#000000; fill-opacity:1.0; 
stroke:#000000; stroke-width:0; stroke-opacity:1; 
stroke-linecap:round; stroke-linejoin:round;fill-rule:evenodd;"
d="M 78737,41484
78746,41486
78755,41488
78764,41491
78773,41495
78781,41500
78788,41506
78795,41512
78802,41519
78807,41527
78812,41535
78816,41543
78819,41552
78821,41561
78823,41570
78823,41580
78823,41939
78823,41949
78821,41958
78819,41967
78816,41976
78812,41984
78807,41992
78802,42000
78795,42007
78788,42013
78781,42019
78773,42024
78764,42028
78755,42031
78746,42033
78737,42035
78727,42035
78535,42035
78526,42035
78517,42033
78508,42031
78499,42028
78490,42024
78482,42019
78475,42013
78468,42007
78461,42000
78456,41992
78451,41984
78447,41976
78444,41967
78441,41958
78440,41949
78439,41939
78439,41580
78440,41570
78441,41561
78444,41552
78447,41543
78451,41535
78456,41527
78461,41519
78468,41512
78475,41506
78482,41500
78490,41495
78499,41491
78508,41488
78517,41486
78526,41484
78535,41484
78727,41484
78737,41484
Z" /> 
<path style="fill:#000000; fill-opacity:1.0; 
stroke:#000000; stroke-width:0; stroke-opacity:1; 
stroke-linecap:round; stroke-linejoin:round;fill-rule:evenodd;"
d="M 79475,41484
79484,41486
79493,41488
79502,41491
79511,41495
79519,41500
79526,41506
79533,41512
79540,41519
79545,41527
79550,41535
79554,41543
79557,41552
79560,41561
79561,41570
79562,41580
79562,41939
79561,41949
79560,41958
79557,41967
79554,41976
79550,41984
79545,41992
79540,42000
79533,42007
79526,42013
79519,42019
79511,42024
79502,42028
79493,42031
79484,42033
79475,42035
79466,42035
79274,42035
79264,42035
79255,42033
79246,42031
79237,42028
79228,42024
79220,42019
79213,42013
79206,42007
79199,42000
79194,41992
79189,41984
79185,41976
79182,41967
79180,41958
79178,41949
79178,41939
79178,41580
79178,41570
79180,41561
79182,41552
79185,41543
79189,41535
79194,41527
79199,41519
79206,41512
79213,41506
79220,41500
79228,41495
79237,41491
79246,41488
79255,41486
79264,41484
79274,41484
79466,41484
79475,41484
Z" /> 
</g>
<g >
<path style="fill:#000000; fill-opacity:1.0; 
stroke:#000000; stroke-width:0; stroke-opacity:1; 
stroke-linecap:round; stroke-linejoin:round;fill-rule:evenodd;"
d="M 89841,43053
89851,43054
89860,43057
89869,43060
89877,43064
89885,43069
89893,43074
89900,43080
89906,43087
89912,43095
89916,43103
89921,43112
89924,43120
89926,43130
89927,43139
89928,43148
89928,43340
89927,43350
89926,43359
89924,43368
89921,43377
89916,43386
89912,43394
89906,43401
89900,43408
89893,43414
89885,43420
89877,43425
89869,43429
89860,43432
89851,43434
89841,43436
89832,43436
89473,43436
89463,43436
89454,43434
89445,43432
89436,43429
89427,43425
89419,43420
89412,43414
89405,43408
89398,43401
89393,43394
89388,43386
89384,43377
89381,43368
89378,43359
89377,43350
89377,43340
89377,43148
89377,43139
89378,43130
89381,43120
89384,43112
89388,43103
89393,43095
89398,43087
89405,43080
89412,43074
89419,43069
89427,43064
89436,43060
89445,43057
89454,43054
89463,43053
89473,43052
89832,43052
89841,43053
Z" /> 
<path style="fill:#000000; fill-opacity:1.0; 
stroke:#000000; stroke-width:0; stroke-opacity:1; 
stroke-linecap:round; stroke-linejoin:round;fill-rule:evenodd;"
d="M 89841,43791
89851,43792
89860,43795
89869,43798
89877,43802
89885,43807
89893,43812
89900,43819
89906,43826
89912,43833
89916,43841
89921,43850
89924,43859
89926,43868
89927,43877
89928,43887
89928,44078
89927,44088
89926,44097
89924,44106
89921,44115
89916,44124
89912,44132
89906,44139
89900,44146
89893,44153
89885,44158
89877,44163
89869,44167
89860,44170
89851,44173
89841,44174
89832,44174
89473,44174
89463,44174
89454,44173
89445,44170
89436,44167
89427,44163
89419,44158
89412,44153
89405,44146
89398,44139
89393,44132
89388,44124
89384,44115
89381,44106
89378,44097
89377,44088
89377,44078
89377,43887
89377,43877
89378,43868
89381,43859
89384,43850
89388,43841
89393,43833
89398,43826
89405,43819
89412,43812
89419,43807
89427,43802
89436,43798
89445,43795
89454,43792
89463,43791
89473,43791
89832,43791
89841,43791
Z" /> 
</g>
<g >
<path style="fill:#000000; fill-opacity:1.0; 
stroke:#000000; stroke-width:0; stroke-opacity:1; 
stroke-linecap:round; stroke-linejoin:round;fill-rule:evenodd;"
d="M 96395,43053
96404,43054
96413,43057
96422,43060
96431,43064
96439,43069
96446,43074
96453,43080
96460,43087
96465,43095
96470,43103
96474,43112
96477,43120
96480,43130
96481,43139
96481,43148
96481,43340
96481,43350
96480,43359
96477,43368
96474,43377
96470,43386
96465,43394
96460,43401
96453,43408
96446,43414
96439,43420
96431,43425
96422,43429
96413,43432
96404,43434
96395,43436
96385,43436
96026,43436
96017,43436
96008,43434
95998,43432
95990,43429
95981,43425
95973,43420
95965,43414
95958,43408
95952,43401
95946,43394
95942,43386
95938,43377
95934,43368
95932,43359
95931,43350
95930,43340
95930,43148
95931,43139
95932,43130
95934,43120
95938,43112
95942,43103
95946,43095
95952,43087
95958,43080
95965,43074
95973,43069
95981,43064
95990,43060
95998,43057
96008,43054
96017,43053
96026,43052
96385,43052
96395,43053
Z" /> 
<path style="fill:#000000; fill-opacity:1.0; 
stroke:#000000; stroke-width:0; stroke-opacity:1; 
stroke-linecap:round; stroke-linejoin:round;fill-rule:evenodd;"
d="M 96395,43791
96404,43792
96413,43795
96422,43798
96431,43802
96439,43807
96446,43812
96453,43819
96460,43826
96465,43833
96470,43841
96474,43850
96477,43859
96480,43868
96481,43877
96481,43887
96481,44078
96481,44088
96480,44097
96477,44106
96474,44115
96470,44124
96465,44132
96460,44139
96453,44146
96446,44153
96439,44158
96431,44163
96422,44167
96413,44170
96404,44173
96395,44174
96385,44174
96026,44174
96017,44174
96008,44173
95998,44170
95990,44167
95981,44163
95973,44158
95965,44153
95958,44146
95952,44139
95946,44132
95942,44124
95938,44115
95934,44106
95932,44097
95931,44088
95930,44078
95930,43887
95931,43877
95932,43868
95934,43859
95938,43850
95942,43841
95946,43833
95952,43826
95958,43819
95965,43812
95973,43807
95981,43802
95990,43798
95998,43795
96008,43792
96017,43791
96026,43791
96385,43791
96395,43791
Z" /> 
</g>
<g >
<path style="fill:#000000; fill-opacity:1.0; 
stroke:#000000; stroke-width:0; stroke-opacity:1; 
stroke-linecap:round; stroke-linejoin:round;fill-rule:evenodd;"
d="M 103128,43053
103137,43054
103146,43057
103155,43060
103163,43064
103172,43069
103179,43074
103186,43080
103192,43087
103198,43095
103203,43103
103207,43112
103210,43120
103212,43130
103214,43139
103214,43148
103214,43340
103214,43350
103212,43359
103210,43368
103207,43377
103203,43386
103198,43394
103192,43401
103186,43408
103179,43414
103172,43420
103163,43425
103155,43429
103146,43432
103137,43434
103128,43436
103118,43436
102759,43436
102750,43436
102740,43434
102731,43432
102722,43429
102714,43425
102706,43420
102698,43414
102691,43408
102685,43401
102679,43394
102674,43386
102670,43377
102667,43368
102665,43359
102663,43350
102663,43340
102663,43148
102663,43139
102665,43130
102667,43120
102670,43112
102674,43103
102679,43095
102685,43087
102691,43080
102698,43074
102706,43069
102714,43064
102722,43060
102731,43057
102740,43054
102750,43053
102759,43052
103118,43052
103128,43053
Z" /> 
<path style="fill:#000000; fill-opacity:1.0; 
stroke:#000000; stroke-width:0; stroke-opacity:1; 
stroke-linecap:round; stroke-linejoin:round;fill-rule:evenodd;"
d="M 103128,43791
103137,43792
103146,43795
103155,43798
103163,43802
103172,43807
103179,43812
103186,43819
103192,43826
103198,43833
103203,43841
103207,43850
103210,43859
103212,43868
103214,43877
103214,43887
103214,44078
103214,44088
103212,44097
103210,44106
103207,44115
103203,44124
103198,44132
103192,44139
103186,44146
103179,44153
103172,44158
103163,44163
103155,44167
103146,44170
103137,44173
103128,44174
103118,44174
102759,44174
102750,44174
102740,44173
102731,44170
102722,44167
102714,44163
102706,44158
102698,44153
102691,44146
102685,44139
102679,44132
102674,44124
102670,44115
102667,44106
102665,44097
102663,44088
102663,44078
102663,43887
102663,43877
102665,43868
102667,43859
102670,43850
102674,43841
102679,43833
102685,43826
102691,43819
102698,43812
102706,43807
102714,43802
102722,43798
102731,43795
102740,43792
102750,43791
102759,43791
103118,43791
103128,43791
Z" /> 
</g>
<g >
<path style="fill:#000000; fill-opacity:1.0; 
stroke:#000000; stroke-width:0; stroke-opacity:1; 
stroke-linecap:round; stroke-linejoin:round;fill-rule:evenodd;"
d="M 35225,43887
35225,44280
34634,44280
34634,43887
35225,43887
Z" /> 
<path style="fill:#000000; fill-opacity:1.0; 
stroke:#000000; stroke-width:0; stroke-opacity:1; 
stroke-linecap:round; stroke-linejoin:round;fill-rule:evenodd;"
d="M 35225,43257
35225,43650
34634,43650
34634,43257
35225,43257
Z" /> 
<path style="fill:#000000; fill-opacity:1.0; 
stroke:#000000; stroke-width:0; stroke-opacity:1; 
stroke-linecap:round; stroke-linejoin:round;fill-rule:evenodd;"
d="M 35225,42627
35225,43020
34634,43020
34634,42627
35225,42627
Z" /> 
<path style="fill:#000000; fill-opacity:1.0; 
stroke:#000000; stroke-width:0; stroke-opacity:1; 
stroke-linecap:round; stroke-linejoin:round;fill-rule:evenodd;"
d="M 33296,43887
33296,44280
32705,44280
32705,43887
33296,43887
Z" /> 
<path style="fill:#000000; fill-opacity:1.0; 
stroke:#000000; stroke-width:0; stroke-opacity:1; 
stroke-linecap:round; stroke-linejoin:round;fill-rule:evenodd;"
d="M 33296,43257
33296,43650
32705,43650
32705,43257
33296,43257
Z" /> 
<path style="fill:#000000; fill-opacity:1.0; 
stroke:#000000; stroke-width:0; stroke-opacity:1; 
stroke-linecap:round; stroke-linejoin:round;fill-rule:evenodd;"
d="M 33296,42627
33296,43020
32705,43020
32705,42627
33296,42627
Z" /> 
</g>
<g >
<path style="fill:#000000; fill-opacity:1.0; 
stroke:#000000; stroke-width:0; stroke-opacity:1; 
stroke-linecap:round; stroke-linejoin:round;fill-rule:evenodd;"
d="M 100838,43887
100838,44280
100248,44280
100248,43887
100838,43887
Z" /> 
<path style="fill:#000000; fill-opacity:1.0; 
stroke:#000000; stroke-width:0; stroke-opacity:1; 
stroke-linecap:round; stroke-linejoin:round;fill-rule:evenodd;"
d="M 100838,43257
100838,43650
100248,43650
100248,43257
100838,43257
Z" /> 
<path style="fill:#000000; fill-opacity:1.0; 
stroke:#000000; stroke-width:0; stroke-opacity:1; 
stroke-linecap:round; stroke-linejoin:round;fill-rule:evenodd;"
d="M 100838,42627
100838,43020
100248,43020
100248,42627
100838,42627
Z" /> 
<path style="fill:#000000; fill-opacity:1.0; 
stroke:#000000; stroke-width:0; stroke-opacity:1; 
stroke-linecap:round; stroke-linejoin:round;fill-rule:evenodd;"
d="M 98909,43887
98909,44280
98319,44280
98319,43887
98909,43887
Z" /> 
<path style="fill:#000000; fill-opacity:1.0; 
stroke:#000000; stroke-width:0; stroke-opacity:1; 
stroke-linecap:round; stroke-linejoin:round;fill-rule:evenodd;"
d="M 98909,43257
98909,43650
98319,43650
98319,43257
98909,43257
Z" /> 
<path style="fill:#000000; fill-opacity:1.0; 
stroke:#000000; stroke-width:0; stroke-opacity:1; 
stroke-linecap:round; stroke-linejoin:round;fill-rule:evenodd;"
d="M 98909,42627
98909,43020
98319,43020
98319,42627
98909,42627
Z" /> 
</g>
<g >
<path style="fill:#000000; fill-opacity:1.0; 
stroke:#000000; stroke-width:0; stroke-opacity:1; 
stroke-linecap:round; stroke-linejoin:round;fill-rule:evenodd;"
d="M 94277,43887
94277,44280
93686,44280
93686,43887
94277,43887
Z" /> 
<path style="fill:#000000; fill-opacity:1.0; 
stroke:#000000; stroke-width:0; stroke-opacity:1; 
stroke-linecap:round; stroke-linejoin:round;fill-rule:evenodd;"
d="M 94277,43257
94277,43650
93686,43650
93686,43257
94277,43257
Z" /> 
<path style="fill:#000000; fill-opacity:1.0; 
stroke:#000000; stroke-width:0; stroke-opacity:1; 
stroke-linecap:round; stroke-linejoin:round;fill-rule:evenodd;"
d="M 94277,42627
94277,43020
93686,43020
93686,42627
94277,42627
Z" /> 
<path style="fill:#000000; fill-opacity:1.0; 
stroke:#000000; stroke-width:0; stroke-opacity:1; 
stroke-linecap:round; stroke-linejoin:round;fill-rule:evenodd;"
d="M 92348,43887
92348,44280
91757,44280
91757,43887
92348,43887
Z" /> 
<path style="fill:#000000; fill-opacity:1.0; 
stroke:#000000; stroke-width:0; stroke-opacity:1; 
stroke-linecap:round; stroke-linejoin:round;fill-rule:evenodd;"
d="M 92348,43257
92348,43650
91757,43650
91757,43257
92348,43257
Z" /> 
<path style="fill:#000000; fill-opacity:1.0; 
stroke:#000000; stroke-width:0; stroke-opacity:1; 
stroke-linecap:round; stroke-linejoin:round;fill-rule:evenodd;"
d="M 92348,42627
92348,43020
91757,43020
91757,42627
92348,42627
Z" /> 
</g>
<g >
<path style="fill:#000000; fill-opacity:1.0; 
stroke:#000000; stroke-width:0; stroke-opacity:1; 
stroke-linecap:round; stroke-linejoin:round;fill-rule:evenodd;"
d="M 87716,43887
87716,44280
87125,44280
87125,43887
87716,43887
Z" /> 
<path style="fill:#000000; fill-opacity:1.0; 
stroke:#000000; stroke-width:0; stroke-opacity:1; 
stroke-linecap:round; stroke-linejoin:round;fill-rule:evenodd;"
d="M 87716,43257
87716,43650
87125,43650
87125,43257
87716,43257
Z" /> 
<path style="fill:#000000; fill-opacity:1.0; 
stroke:#000000; stroke-width:0; stroke-opacity:1; 
stroke-linecap:round; stroke-linejoin:round;fill-rule:evenodd;"
d="M 87716,42627
87716,43020
87125,43020
87125,42627
87716,42627
Z" /> 
<path style="fill:#000000; fill-opacity:1.0; 
stroke:#000000; stroke-width:0; stroke-opacity:1; 
stroke-linecap:round; stroke-linejoin:round;fill-rule:evenodd;"
d="M 85786,43887
85786,44280
85196,44280
85196,43887
85786,43887
Z" /> 
<path style="fill:#000000; fill-opacity:1.0; 
stroke:#000000; stroke-width:0; stroke-opacity:1; 
stroke-linecap:round; stroke-linejoin:round;fill-rule:evenodd;"
d="M 85786,43257
85786,43650
85196,43650
85196,43257
85786,43257
Z" /> 
<path style="fill:#000000; fill-opacity:1.0; 
stroke:#000000; stroke-width:0; stroke-opacity:1; 
stroke-linecap:round; stroke-linejoin:round;fill-rule:evenodd;"
d="M 85786,42627
85786,43020
85196,43020
85196,42627
85786,42627
Z" /> 
</g>
<g >
<path style="fill:#000000; fill-opacity:1.0; 
stroke:#000000; stroke-width:0; stroke-opacity:1; 
stroke-linecap:round; stroke-linejoin:round;fill-rule:evenodd;"
d="M 81154,43887
81154,44280
80564,44280
80564,43887
81154,43887
Z" /> 
<path style="fill:#000000; fill-opacity:1.0; 
stroke:#000000; stroke-width:0; stroke-opacity:1; 
stroke-linecap:round; stroke-linejoin:round;fill-rule:evenodd;"
d="M 81154,43257
81154,43650
80564,43650
80564,43257
81154,43257
Z" /> 
<path style="fill:#000000; fill-opacity:1.0; 
stroke:#000000; stroke-width:0; stroke-opacity:1; 
stroke-linecap:round; stroke-linejoin:round;fill-rule:evenodd;"
d="M 81154,42627
81154,43020
80564,43020
80564,42627
81154,42627
Z" /> 
<path style="fill:#000000; fill-opacity:1.0; 
stroke:#000000; stroke-width:0; stroke-opacity:1; 
stroke-linecap:round; stroke-linejoin:round;fill-rule:evenodd;"
d="M 79225,43887
79225,44280
78635,44280
78635,43887
79225,43887
Z" /> 
<path style="fill:#000000; fill-opacity:1.0; 
stroke:#000000; stroke-width:0; stroke-opacity:1; 
stroke-linecap:round; stroke-linejoin:round;fill-rule:evenodd;"
d="M 79225,43257
79225,43650
78635,43650
78635,43257
79225,43257
Z" /> 
<path style="fill:#000000; fill-opacity:1.0; 
stroke:#000000; stroke-width:0; stroke-opacity:1; 
stroke-linecap:round; stroke-linejoin:round;fill-rule:evenodd;"
d="M 79225,42627
79225,43020
78635,43020
78635,42627
79225,42627
Z" /> 
</g>
<g >
<path style="fill:#000000; fill-opacity:1.0; 
stroke:#000000; stroke-width:0; stroke-opacity:1; 
stroke-linecap:round; stroke-linejoin:round;fill-rule:evenodd;"
d="M 74593,43887
74593,44280
74002,44280
74002,43887
74593,43887
Z" /> 
<path style="fill:#000000; fill-opacity:1.0; 
stroke:#000000; stroke-width:0; stroke-opacity:1; 
stroke-linecap:round; stroke-linejoin:round;fill-rule:evenodd;"
d="M 74593,43257
74593,43650
74002,43650
74002,43257
74593,43257
Z" /> 
<path style="fill:#000000; fill-opacity:1.0; 
stroke:#000000; stroke-width:0; stroke-opacity:1; 
stroke-linecap:round; stroke-linejoin:round;fill-rule:evenodd;"
d="M 74593,42627
74593,43020
74002,43020
74002,42627
74593,42627
Z" /> 
<path style="fill:#000000; fill-opacity:1.0; 
stroke:#000000; stroke-width:0; stroke-opacity:1; 
stroke-linecap:round; stroke-linejoin:round;fill-rule:evenodd;"
d="M 72664,43887
72664,44280
72073,44280
72073,43887
72664,43887
Z" /> 
<path style="fill:#000000; fill-opacity:1.0; 
stroke:#000000; stroke-width:0; stroke-opacity:1; 
stroke-linecap:round; stroke-linejoin:round;fill-rule:evenodd;"
d="M 72664,43257
72664,43650
72073,43650
72073,43257
72664,43257
Z" /> 
<path style="fill:#000000; fill-opacity:1.0; 
stroke:#000000; stroke-width:0; stroke-opacity:1; 
stroke-linecap:round; stroke-linejoin:round;fill-rule:evenodd;"
d="M 72664,42627
72664,43020
72073,43020
72073,42627
72664,42627
Z" /> 
</g>
<g >
<path style="fill:#000000; fill-opacity:1.0; 
stroke:#000000; stroke-width:0; stroke-opacity:1; 
stroke-linecap:round; stroke-linejoin:round;fill-rule:evenodd;"
d="M 68032,43887
68032,44280
67441,44280
67441,43887
68032,43887
Z" /> 
<path style="fill:#000000; fill-opacity:1.0; 
stroke:#000000; stroke-width:0; stroke-opacity:1; 
stroke-linecap:round; stroke-linejoin:round;fill-rule:evenodd;"
d="M 68032,43257
68032,43650
67441,43650
67441,43257
68032,43257
Z" /> 
<path style="fill:#000000; fill-opacity:1.0; 
stroke:#000000; stroke-width:0; stroke-opacity:1; 
stroke-linecap:round; stroke-linejoin:round;fill-rule:evenodd;"
d="M 68032,42627
68032,43020
67441,43020
67441,42627
68032,42627
Z" /> 
<path style="fill:#000000; fill-opacity:1.0; 
stroke:#000000; stroke-width:0; stroke-opacity:1; 
stroke-linecap:round; stroke-linejoin:round;fill-rule:evenodd;"
d="M 66102,43887
66102,44280
65512,44280
65512,43887
66102,43887
Z" /> 
<path style="fill:#000000; fill-opacity:1.0; 
stroke:#000000; stroke-width:0; stroke-opacity:1; 
stroke-linecap:round; stroke-linejoin:round;fill-rule:evenodd;"
d="M 66102,43257
66102,43650
65512,43650
65512,43257
66102,43257
Z" /> 
<path style="fill:#000000; fill-opacity:1.0; 
stroke:#000000; stroke-width:0; stroke-opacity:1; 
stroke-linecap:round; stroke-linejoin:round;fill-rule:evenodd;"
d="M 66102,42627
66102,43020
65512,43020
65512,42627
66102,42627
Z" /> 
</g>
<g >
<path style="fill:#000000; fill-opacity:1.0; 
stroke:#000000; stroke-width:0; stroke-opacity:1; 
stroke-linecap:round; stroke-linejoin:round;fill-rule:evenodd;"
d="M 61470,43887
61470,44280
60880,44280
60880,43887
61470,43887
Z" /> 
<path style="fill:#000000; fill-opacity:1.0; 
stroke:#000000; stroke-width:0; stroke-opacity:1; 
stroke-linecap:round; stroke-linejoin:round;fill-rule:evenodd;"
d="M 61470,43257
61470,43650
60880,43650
60880,43257
61470,43257
Z" /> 
<path style="fill:#000000; fill-opacity:1.0; 
stroke:#000000; stroke-width:0; stroke-opacity:1; 
stroke-linecap:round; stroke-linejoin:round;fill-rule:evenodd;"
d="M 61470,42627
61470,43020
60880,43020
60880,42627
61470,42627
Z" /> 
<path style="fill:#000000; fill-opacity:1.0; 
stroke:#000000; stroke-width:0; stroke-opacity:1; 
stroke-linecap:round; stroke-linejoin:round;fill-rule:evenodd;"
d="M 59541,43887
59541,44280
58950,44280
58950,43887
59541,43887
Z" /> 
<path style="fill:#000000; fill-opacity:1.0; 
stroke:#000000; stroke-width:0; stroke-opacity:1; 
stroke-linecap:round; stroke-linejoin:round;fill-rule:evenodd;"
d="M 59541,43257
59541,43650
58950,43650
58950,43257
59541,43257
Z" /> 
<path style="fill:#000000; fill-opacity:1.0; 
stroke:#000000; stroke-width:0; stroke-opacity:1; 
stroke-linecap:round; stroke-linejoin:round;fill-rule:evenodd;"
d="M 59541,42627
59541,43020
58950,43020
58950,42627
59541,42627
Z" /> 
</g>
<g >
<path style="fill:#000000; fill-opacity:1.0; 
stroke:#000000; stroke-width:0; stroke-opacity:1; 
stroke-linecap:round; stroke-linejoin:round;fill-rule:evenodd;"
d="M 54909,43887
54909,44280
54318,44280
54318,43887
54909,43887
Z" /> 
<path style="fill:#000000; fill-opacity:1.0; 
stroke:#000000; stroke-width:0; stroke-opacity:1; 
stroke-linecap:round; stroke-linejoin:round;fill-rule:evenodd;"
d="M 54909,43257
54909,43650
54318,43650
54318,43257
54909,43257
Z" /> 
<path style="fill:#000000; fill-opacity:1.0; 
stroke:#000000; stroke-width:0; stroke-opacity:1; 
stroke-linecap:round; stroke-linejoin:round;fill-rule:evenodd;"
d="M 54909,42627
54909,43020
54318,43020
54318,42627
54909,42627
Z" /> 
<path style="fill:#000000; fill-opacity:1.0; 
stroke:#000000; stroke-width:0; stroke-opacity:1; 
stroke-linecap:round; stroke-linejoin:round;fill-rule:evenodd;"
d="M 52980,43887
52980,44280
52389,44280
52389,43887
52980,43887
Z" /> 
<path style="fill:#000000; fill-opacity:1.0; 
stroke:#000000; stroke-width:0; stroke-opacity:1; 
stroke-linecap:round; stroke-linejoin:round;fill-rule:evenodd;"
d="M 52980,43257
52980,43650
52389,43650
52389,43257
52980,43257
Z" /> 
<path style="fill:#000000; fill-opacity:1.0; 
stroke:#000000; stroke-width:0; stroke-opacity:1; 
stroke-linecap:round; stroke-linejoin:round;fill-rule:evenodd;"
d="M 52980,42627
52980,43020
52389,43020
52389,42627
52980,42627
Z" /> 
</g>
<g >
<path style="fill:#000000; fill-opacity:1.0; 
stroke:#000000; stroke-width:0; stroke-opacity:1; 
stroke-linecap:round; stroke-linejoin:round;fill-rule:evenodd;"
d="M 48347,43887
48347,44280
47757,44280
47757,43887
48347,43887
Z" /> 
<path style="fill:#000000; fill-opacity:1.0; 
stroke:#000000; stroke-width:0; stroke-opacity:1; 
stroke-linecap:round; stroke-linejoin:round;fill-rule:evenodd;"
d="M 48347,43257
48347,43650
47757,43650
47757,43257
48347,43257
Z" /> 
<path style="fill:#000000; fill-opacity:1.0; 
stroke:#000000; stroke-width:0; stroke-opacity:1; 
stroke-linecap:round; stroke-linejoin:round;fill-rule:evenodd;"
d="M 48347,42627
48347,43020
47757,43020
47757,42627
48347,42627
Z" /> 
<path style="fill:#000000; fill-opacity:1.0; 
stroke:#000000; stroke-width:0; stroke-opacity:1; 
stroke-linecap:round; stroke-linejoin:round;fill-rule:evenodd;"
d="M 46418,43887
46418,44280
45828,44280
45828,43887
46418,43887
Z" /> 
<path style="fill:#000000; fill-opacity:1.0; 
stroke:#000000; stroke-width:0; stroke-opacity:1; 
stroke-linecap:round; stroke-linejoin:round;fill-rule:evenodd;"
d="M 46418,43257
46418,43650
45828,43650
45828,43257
46418,43257
Z" /> 
<path style="fill:#000000; fill-opacity:1.0; 
stroke:#000000; stroke-width:0; stroke-opacity:1; 
stroke-linecap:round; stroke-linejoin:round;fill-rule:evenodd;"
d="M 46418,42627
46418,43020
45828,43020
45828,42627
46418,42627
Z" /> 
</g>
<g >
<path style="fill:#000000; fill-opacity:1.0; 
stroke:#000000; stroke-width:0; stroke-opacity:1; 
stroke-linecap:round; stroke-linejoin:round;fill-rule:evenodd;"
d="M 41786,43887
41786,44280
41196,44280
41196,43887
41786,43887
Z" /> 
<path style="fill:#000000; fill-opacity:1.0; 
stroke:#000000; stroke-width:0; stroke-opacity:1; 
stroke-linecap:round; stroke-linejoin:round;fill-rule:evenodd;"
d="M 41786,43257
41786,43650
41196,43650
41196,43257
41786,43257
Z" /> 
<path style="fill:#000000; fill-opacity:1.0; 
stroke:#000000; stroke-width:0; stroke-opacity:1; 
stroke-linecap:round; stroke-linejoin:round;fill-rule:evenodd;"
d="M 41786,42627
41786,43020
41196,43020
41196,42627
41786,42627
Z" /> 
<path style="fill:#000000; fill-opacity:1.0; 
stroke:#000000; stroke-width:0; stroke-opacity:1; 
stroke-linecap:round; stroke-linejoin:round;fill-rule:evenodd;"
d="M 39857,43887
39857,44280
39266,44280
39266,43887
39857,43887
Z" /> 
<path style="fill:#000000; fill-opacity:1.0; 
stroke:#000000; stroke-width:0; stroke-opacity:1; 
stroke-linecap:round; stroke-linejoin:round;fill-rule:evenodd;"
d="M 39857,43257
39857,43650
39266,43650
39266,43257
39857,43257
Z" /> 
<path style="fill:#000000; fill-opacity:1.0; 
stroke:#000000; stroke-width:0; stroke-opacity:1; 
stroke-linecap:round; stroke-linejoin:round;fill-rule:evenodd;"
d="M 39857,42627
39857,43020
39266,43020
39266,42627
39857,42627
Z" /> 
</g>
<g >
<path style="fill:#000000; fill-opacity:1.0; 
stroke:#000000; stroke-width:0; stroke-opacity:1; 
stroke-linecap:round; stroke-linejoin:round;fill-rule:evenodd;"
d="M 36312,43791
36321,43792
36331,43795
36339,43798
36348,43802
36356,43807
36364,43812
36371,43819
36377,43826
36383,43833
36387,43841
36391,43850
36395,43859
36397,43868
36398,43877
36399,43887
36399,44078
36398,44088
36397,44097
36395,44106
36391,44115
36387,44124
36383,44132
36377,44139
36371,44146
36364,44153
36356,44158
36348,44163
36339,44167
36331,44170
36321,44173
36312,44174
36303,44174
35944,44174
35934,44174
35925,44173
35916,44170
35907,44167
35898,44163
35890,44158
35883,44153
35876,44146
35869,44139
35864,44132
35859,44124
35855,44115
35852,44106
35849,44097
35848,44088
35848,44078
35848,43887
35848,43877
35849,43868
35852,43859
35855,43850
35859,43841
35864,43833
35869,43826
35876,43819
35883,43812
35890,43807
35898,43802
35907,43798
35916,43795
35925,43792
35934,43791
35944,43791
36303,43791
36312,43791
Z" /> 
<path style="fill:#000000; fill-opacity:1.0; 
stroke:#000000; stroke-width:0; stroke-opacity:1; 
stroke-linecap:round; stroke-linejoin:round;fill-rule:evenodd;"
d="M 36312,43053
36321,43054
36331,43057
36339,43060
36348,43064
36356,43069
36364,43074
36371,43080
36377,43087
36383,43095
36387,43103
36391,43112
36395,43120
36397,43130
36398,43139
36399,43148
36399,43340
36398,43350
36397,43359
36395,43368
36391,43377
36387,43386
36383,43394
36377,43401
36371,43408
36364,43414
36356,43420
36348,43425
36339,43429
36331,43432
36321,43434
36312,43436
36303,43436
35944,43436
35934,43436
35925,43434
35916,43432
35907,43429
35898,43425
35890,43420
35883,43414
35876,43408
35869,43401
35864,43394
35859,43386
35855,43377
35852,43368
35849,43359
35848,43350
35848,43340
35848,43148
35848,43139
35849,43130
35852,43120
35855,43112
35859,43103
35864,43095
35869,43087
35876,43080
35883,43074
35890,43069
35898,43064
35907,43060
35916,43057
35925,43054
35934,43053
35944,43052
36303,43052
36312,43053
Z" /> 
</g>
<g >
<path style="fill:#000000; fill-opacity:1.0; 
stroke:#000000; stroke-width:0; stroke-opacity:1; 
stroke-linecap:round; stroke-linejoin:round;fill-rule:evenodd;"
d="M 42866,43791
42875,43792
42884,43795
42893,43798
42902,43802
42910,43807
42917,43812
42924,43819
42931,43826
42936,43833
42941,43841
42945,43850
42948,43859
42951,43868
42952,43877
42952,43887
42952,44078
42952,44088
42951,44097
42948,44106
42945,44115
42941,44124
42936,44132
42931,44139
42924,44146
42917,44153
42910,44158
42902,44163
42893,44167
42884,44170
42875,44173
42866,44174
42856,44174
42497,44174
42488,44174
42478,44173
42469,44170
42460,44167
42452,44163
42444,44158
42436,44153
42429,44146
42423,44139
42417,44132
42413,44124
42408,44115
42405,44106
42403,44097
42402,44088
42401,44078
42401,43887
42402,43877
42403,43868
42405,43859
42408,43850
42413,43841
42417,43833
42423,43826
42429,43819
42436,43812
42444,43807
42452,43802
42460,43798
42469,43795
42478,43792
42488,43791
42497,43791
42856,43791
42866,43791
Z" /> 
<path style="fill:#000000; fill-opacity:1.0; 
stroke:#000000; stroke-width:0; stroke-opacity:1; 
stroke-linecap:round; stroke-linejoin:round;fill-rule:evenodd;"
d="M 42866,43053
42875,43054
42884,43057
42893,43060
42902,43064
42910,43069
42917,43074
42924,43080
42931,43087
42936,43095
42941,43103
42945,43112
42948,43120
42951,43130
42952,43139
42952,43148
42952,43340
42952,43350
42951,43359
42948,43368
42945,43377
42941,43386
42936,43394
42931,43401
42924,43408
42917,43414
42910,43420
42902,43425
42893,43429
42884,43432
42875,43434
42866,43436
42856,43436
42497,43436
42488,43436
42478,43434
42469,43432
42460,43429
42452,43425
42444,43420
42436,43414
42429,43408
42423,43401
42417,43394
42413,43386
42408,43377
42405,43368
42403,43359
42402,43350
42401,43340
42401,43148
42402,43139
42403,43130
42405,43120
42408,43112
42413,43103
42417,43095
42423,43087
42429,43080
42436,43074
42444,43069
42452,43064
42460,43060
42469,43057
42478,43054
42488,43053
42497,43052
42856,43052
42866,43053
Z" /> 
</g>
<g >
<path style="fill:#000000; fill-opacity:1.0; 
stroke:#000000; stroke-width:0; stroke-opacity:1; 
stroke-linecap:round; stroke-linejoin:round;fill-rule:evenodd;"
d="M 49419,43791
49429,43792
49438,43795
49447,43798
49455,43802
49463,43807
49471,43812
49478,43819
49484,43826
49490,43833
49495,43841
49499,43850
49502,43859
49504,43868
49506,43877
49506,43887
49506,44078
49506,44088
49504,44097
49502,44106
49499,44115
49495,44124
49490,44132
49484,44139
49478,44146
49471,44153
49463,44158
49455,44163
49447,44167
49438,44170
49429,44173
49419,44174
49410,44174
49051,44174
49041,44174
49032,44173
49023,44170
49014,44167
49006,44163
48997,44158
48990,44153
48983,44146
48977,44139
48971,44132
48966,44124
48962,44115
48959,44106
48957,44097
48955,44088
48955,44078
48955,43887
48955,43877
48957,43868
48959,43859
48962,43850
48966,43841
48971,43833
48977,43826
48983,43819
48990,43812
48997,43807
49006,43802
49014,43798
49023,43795
49032,43792
49041,43791
49051,43791
49410,43791
49419,43791
Z" /> 
<path style="fill:#000000; fill-opacity:1.0; 
stroke:#000000; stroke-width:0; stroke-opacity:1; 
stroke-linecap:round; stroke-linejoin:round;fill-rule:evenodd;"
d="M 49419,43053
49429,43054
49438,43057
49447,43060
49455,43064
49463,43069
49471,43074
49478,43080
49484,43087
49490,43095
49495,43103
49499,43112
49502,43120
49504,43130
49506,43139
49506,43148
49506,43340
49506,43350
49504,43359
49502,43368
49499,43377
49495,43386
49490,43394
49484,43401
49478,43408
49471,43414
49463,43420
49455,43425
49447,43429
49438,43432
49429,43434
49419,43436
49410,43436
49051,43436
49041,43436
49032,43434
49023,43432
49014,43429
49006,43425
48997,43420
48990,43414
48983,43408
48977,43401
48971,43394
48966,43386
48962,43377
48959,43368
48957,43359
48955,43350
48955,43340
48955,43148
48955,43139
48957,43130
48959,43120
48962,43112
48966,43103
48971,43095
48977,43087
48983,43080
48990,43074
48997,43069
49006,43064
49014,43060
49023,43057
49032,43054
49041,43053
49051,43052
49410,43052
49419,43053
Z" /> 
</g>
<g >
<path style="fill:#000000; fill-opacity:1.0; 
stroke:#000000; stroke-width:0; stroke-opacity:1; 
stroke-linecap:round; stroke-linejoin:round;fill-rule:evenodd;"
d="M 55973,43791
55982,43792
55992,43795
56000,43798
56009,43802
56017,43807
56025,43812
56032,43819
56038,43826
56043,43833
56048,43841
56052,43850
56056,43859
56058,43868
56059,43877
56060,43887
56060,44078
56059,44088
56058,44097
56056,44106
56052,44115
56048,44124
56043,44132
56038,44139
56032,44146
56025,44153
56017,44158
56009,44163
56000,44167
55992,44170
55982,44173
55973,44174
55964,44174
55604,44174
55595,44174
55586,44173
55577,44170
55568,44167
55559,44163
55551,44158
55544,44153
55537,44146
55530,44139
55525,44132
55520,44124
55516,44115
55513,44106
55510,44097
55509,44088
55508,44078
55508,43887
55509,43877
55510,43868
55513,43859
55516,43850
55520,43841
55525,43833
55530,43826
55537,43819
55544,43812
55551,43807
55559,43802
55568,43798
55577,43795
55586,43792
55595,43791
55604,43791
55964,43791
55973,43791
Z" /> 
<path style="fill:#000000; fill-opacity:1.0; 
stroke:#000000; stroke-width:0; stroke-opacity:1; 
stroke-linecap:round; stroke-linejoin:round;fill-rule:evenodd;"
d="M 55973,43053
55982,43054
55992,43057
56000,43060
56009,43064
56017,43069
56025,43074
56032,43080
56038,43087
56043,43095
56048,43103
56052,43112
56056,43120
56058,43130
56059,43139
56060,43148
56060,43340
56059,43350
56058,43359
56056,43368
56052,43377
56048,43386
56043,43394
56038,43401
56032,43408
56025,43414
56017,43420
56009,43425
56000,43429
55992,43432
55982,43434
55973,43436
55964,43436
55604,43436
55595,43436
55586,43434
55577,43432
55568,43429
55559,43425
55551,43420
55544,43414
55537,43408
55530,43401
55525,43394
55520,43386
55516,43377
55513,43368
55510,43359
55509,43350
55508,43340
55508,43148
55509,43139
55510,43130
55513,43120
55516,43112
55520,43103
55525,43095
55530,43087
55537,43080
55544,43074
55551,43069
55559,43064
55568,43060
55577,43057
55586,43054
55595,43053
55604,43052
55964,43052
55973,43053
Z" /> 
</g>
<g >
<path style="fill:#000000; fill-opacity:1.0; 
stroke:#000000; stroke-width:0; stroke-opacity:1; 
stroke-linecap:round; stroke-linejoin:round;fill-rule:evenodd;"
d="M 62527,43791
62536,43792
62545,43795
62554,43798
62563,43802
62571,43807
62578,43812
62585,43819
62591,43826
62597,43833
62602,43841
62606,43850
62609,43859
62611,43868
62613,43877
62613,43887
62613,44078
62613,44088
62611,44097
62609,44106
62606,44115
62602,44124
62597,44132
62591,44139
62585,44146
62578,44153
62571,44158
62563,44163
62554,44167
62545,44170
62536,44173
62527,44174
62517,44174
62158,44174
62149,44174
62139,44173
62130,44170
62121,44167
62113,44163
62105,44158
62097,44153
62090,44146
62084,44139
62078,44132
62073,44124
62069,44115
62066,44106
62064,44097
62063,44088
62062,44078
62062,43887
62063,43877
62064,43868
62066,43859
62069,43850
62073,43841
62078,43833
62084,43826
62090,43819
62097,43812
62105,43807
62113,43802
62121,43798
62130,43795
62139,43792
62149,43791
62158,43791
62517,43791
62527,43791
Z" /> 
<path style="fill:#000000; fill-opacity:1.0; 
stroke:#000000; stroke-width:0; stroke-opacity:1; 
stroke-linecap:round; stroke-linejoin:round;fill-rule:evenodd;"
d="M 62527,43053
62536,43054
62545,43057
62554,43060
62563,43064
62571,43069
62578,43074
62585,43080
62591,43087
62597,43095
62602,43103
62606,43112
62609,43120
62611,43130
62613,43139
62613,43148
62613,43340
62613,43350
62611,43359
62609,43368
62606,43377
62602,43386
62597,43394
62591,43401
62585,43408
62578,43414
62571,43420
62563,43425
62554,43429
62545,43432
62536,43434
62527,43436
62517,43436
62158,43436
62149,43436
62139,43434
62130,43432
62121,43429
62113,43425
62105,43420
62097,43414
62090,43408
62084,43401
62078,43394
62073,43386
62069,43377
62066,43368
62064,43359
62063,43350
62062,43340
62062,43148
62063,43139
62064,43130
62066,43120
62069,43112
62073,43103
62078,43095
62084,43087
62090,43080
62097,43074
62105,43069
62113,43064
62121,43060
62130,43057
62139,43054
62149,43053
62158,43052
62517,43052
62527,43053
Z" /> 
</g>
<g >
<path style="fill:#000000; fill-opacity:1.0; 
stroke:#000000; stroke-width:0; stroke-opacity:1; 
stroke-linecap:round; stroke-linejoin:round;fill-rule:evenodd;"
d="M 69080,43791
69090,43792
69099,43795
69108,43798
69116,43802
69124,43807
69132,43812
69139,43819
69145,43826
69151,43833
69156,43841
69160,43850
69163,43859
69165,43868
69166,43877
69167,43887
69167,44078
69166,44088
69165,44097
69163,44106
69160,44115
69156,44124
69151,44132
69145,44139
69139,44146
69132,44153
69124,44158
69116,44163
69108,44167
69099,44170
69090,44173
69080,44174
69071,44174
68712,44174
68702,44174
68693,44173
68684,44170
68675,44167
68666,44163
68658,44158
68651,44153
68644,44146
68638,44139
68632,44132
68627,44124
68623,44115
68620,44106
68618,44097
68616,44088
68616,44078
68616,43887
68616,43877
68618,43868
68620,43859
68623,43850
68627,43841
68632,43833
68638,43826
68644,43819
68651,43812
68658,43807
68666,43802
68675,43798
68684,43795
68693,43792
68702,43791
68712,43791
69071,43791
69080,43791
Z" /> 
<path style="fill:#000000; fill-opacity:1.0; 
stroke:#000000; stroke-width:0; stroke-opacity:1; 
stroke-linecap:round; stroke-linejoin:round;fill-rule:evenodd;"
d="M 69080,43053
69090,43054
69099,43057
69108,43060
69116,43064
69124,43069
69132,43074
69139,43080
69145,43087
69151,43095
69156,43103
69160,43112
69163,43120
69165,43130
69166,43139
69167,43148
69167,43340
69166,43350
69165,43359
69163,43368
69160,43377
69156,43386
69151,43394
69145,43401
69139,43408
69132,43414
69124,43420
69116,43425
69108,43429
69099,43432
69090,43434
69080,43436
69071,43436
68712,43436
68702,43436
68693,43434
68684,43432
68675,43429
68666,43425
68658,43420
68651,43414
68644,43408
68638,43401
68632,43394
68627,43386
68623,43377
68620,43368
68618,43359
68616,43350
68616,43340
68616,43148
68616,43139
68618,43130
68620,43120
68623,43112
68627,43103
68632,43095
68638,43087
68644,43080
68651,43074
68658,43069
68666,43064
68675,43060
68684,43057
68693,43054
68702,43053
68712,43052
69071,43052
69080,43053
Z" /> 
</g>
<g >
<path style="fill:#000000; fill-opacity:1.0; 
stroke:#000000; stroke-width:0; stroke-opacity:1; 
stroke-linecap:round; stroke-linejoin:round;fill-rule:evenodd;"
d="M 75634,43791
75643,43792
75652,43795
75661,43798
75670,43802
75678,43807
75685,43812
75692,43819
75699,43826
75704,43833
75709,43841
75713,43850
75716,43859
75719,43868
75720,43877
75721,43887
75721,44078
75720,44088
75719,44097
75716,44106
75713,44115
75709,44124
75704,44132
75699,44139
75692,44146
75685,44153
75678,44158
75670,44163
75661,44167
75652,44170
75643,44173
75634,44174
75625,44174
75265,44174
75256,44174
75247,44173
75237,44170
75229,44167
75220,44163
75212,44158
75204,44153
75197,44146
75191,44139
75186,44132
75181,44124
75177,44115
75173,44106
75171,44097
75170,44088
75169,44078
75169,43887
75170,43877
75171,43868
75173,43859
75177,43850
75181,43841
75186,43833
75191,43826
75197,43819
75204,43812
75212,43807
75220,43802
75229,43798
75237,43795
75247,43792
75256,43791
75265,43791
75625,43791
75634,43791
Z" /> 
<path style="fill:#000000; fill-opacity:1.0; 
stroke:#000000; stroke-width:0; stroke-opacity:1; 
stroke-linecap:round; stroke-linejoin:round;fill-rule:evenodd;"
d="M 75634,43053
75643,43054
75652,43057
75661,43060
75670,43064
75678,43069
75685,43074
75692,43080
75699,43087
75704,43095
75709,43103
75713,43112
75716,43120
75719,43130
75720,43139
75721,43148
75721,43340
75720,43350
75719,43359
75716,43368
75713,43377
75709,43386
75704,43394
75699,43401
75692,43408
75685,43414
75678,43420
75670,43425
75661,43429
75652,43432
75643,43434
75634,43436
75625,43436
75265,43436
75256,43436
75247,43434
75237,43432
75229,43429
75220,43425
75212,43420
75204,43414
75197,43408
75191,43401
75186,43394
75181,43386
75177,43377
75173,43368
75171,43359
75170,43350
75169,43340
75169,43148
75170,43139
75171,43130
75173,43120
75177,43112
75181,43103
75186,43095
75191,43087
75197,43080
75204,43074
75212,43069
75220,43064
75229,43060
75237,43057
75247,43054
75256,43053
75265,43052
75625,43052
75634,43053
Z" /> 
</g>
<g >
<path style="fill:#000000; fill-opacity:1.0; 
stroke:#000000; stroke-width:0; stroke-opacity:1; 
stroke-linecap:round; stroke-linejoin:round;fill-rule:evenodd;"
d="M 80237,41484
80246,41486
80255,41488
80264,41491
80273,41495
80281,41500
80288,41506
80295,41512
80302,41519
80307,41527
80312,41535
80316,41543
80319,41552
80321,41561
80323,41570
80323,41580
80323,41939
80323,41949
80321,41958
80319,41967
80316,41976
80312,41984
80307,41992
80302,42000
80295,42007
80288,42013
80281,42019
80273,42024
80264,42028
80255,42031
80246,42033
80237,42035
80227,42035
80035,42035
80026,42035
80017,42033
80008,42031
79999,42028
79990,42024
79982,42019
79975,42013
79968,42007
79961,42000
79956,41992
79951,41984
79947,41976
79944,41967
79941,41958
79940,41949
79939,41939
79939,41580
79940,41570
79941,41561
79944,41552
79947,41543
79951,41535
79956,41527
79961,41519
79968,41512
79975,41506
79982,41500
79990,41495
79999,41491
80008,41488
80017,41486
80026,41484
80035,41484
80227,41484
80237,41484
Z" /> 
<path style="fill:#000000; fill-opacity:1.0; 
stroke:#000000; stroke-width:0; stroke-opacity:1; 
stroke-linecap:round; stroke-linejoin:round;fill-rule:evenodd;"
d="M 80975,41484
80984,41486
80993,41488
81002,41491
81011,41495
81019,41500
81026,41506
81033,41512
81040,41519
81045,41527
81050,41535
81054,41543
81057,41552
81060,41561
81061,41570
81062,41580
81062,41939
81061,41949
81060,41958
81057,41967
81054,41976
81050,41984
81045,41992
81040,42000
81033,42007
81026,42013
81019,42019
81011,42024
81002,42028
80993,42031
80984,42033
80975,42035
80966,42035
80774,42035
80764,42035
80755,42033
80746,42031
80737,42028
80728,42024
80720,42019
80713,42013
80706,42007
80699,42000
80694,41992
80689,41984
80685,41976
80682,41967
80680,41958
80678,41949
80678,41939
80678,41580
80678,41570
80680,41561
80682,41552
80685,41543
80689,41535
80694,41527
80699,41519
80706,41512
80713,41506
80720,41500
80728,41495
80737,41491
80746,41488
80755,41486
80764,41484
80774,41484
80966,41484
80975,41484
Z" /> 
</g>
<g >
<path style="fill:#000000; fill-opacity:1.0; 
stroke:#000000; stroke-width:0; stroke-opacity:1; 
stroke-linecap:round; stroke-linejoin:round;fill-rule:evenodd;"
d="M 88741,43791
88751,43792
88760,43795
88769,43798
88777,43802
88785,43807
88793,43812
88800,43819
88806,43826
88812,43833
88816,43841
88821,43850
88824,43859
88826,43868
88827,43877
88828,43887
88828,44078
88827,44088
88826,44097
88824,44106
88821,44115
88816,44124
88812,44132
88806,44139
88800,44146
88793,44153
88785,44158
88777,44163
88769,44167
88760,44170
88751,44173
88741,44174
88732,44174
88373,44174
88363,44174
88354,44173
88345,44170
88336,44167
88327,44163
88319,44158
88312,44153
88305,44146
88298,44139
88293,44132
88288,44124
88284,44115
88281,44106
88278,44097
88277,44088
88277,44078
88277,43887
88277,43877
88278,43868
88281,43859
88284,43850
88288,43841
88293,43833
88298,43826
88305,43819
88312,43812
88319,43807
88327,43802
88336,43798
88345,43795
88354,43792
88363,43791
88373,43791
88732,43791
88741,43791
Z" /> 
<path style="fill:#000000; fill-opacity:1.0; 
stroke:#000000; stroke-width:0; stroke-opacity:1; 
stroke-linecap:round; stroke-linejoin:round;fill-rule:evenodd;"
d="M 88741,43053
88751,43054
88760,43057
88769,43060
88777,43064
88785,43069
88793,43074
88800,43080
88806,43087
88812,43095
88816,43103
88821,43112
88824,43120
88826,43130
88827,43139
88828,43148
88828,43340
88827,43350
88826,43359
88824,43368
88821,43377
88816,43386
88812,43394
88806,43401
88800,43408
88793,43414
88785,43420
88777,43425
88769,43429
88760,43432
88751,43434
88741,43436
88732,43436
88373,43436
88363,43436
88354,43434
88345,43432
88336,43429
88327,43425
88319,43420
88312,43414
88305,43408
88298,43401
88293,43394
88288,43386
88284,43377
88281,43368
88278,43359
88277,43350
88277,43340
88277,43148
88277,43139
88278,43130
88281,43120
88284,43112
88288,43103
88293,43095
88298,43087
88305,43080
88312,43074
88319,43069
88327,43064
88336,43060
88345,43057
88354,43054
88363,43053
88373,43052
88732,43052
88741,43053
Z" /> 
</g>
<g >
<path style="fill:#000000; fill-opacity:1.0; 
stroke:#000000; stroke-width:0; stroke-opacity:1; 
stroke-linecap:round; stroke-linejoin:round;fill-rule:evenodd;"
d="M 95295,43791
95304,43792
95313,43795
95322,43798
95331,43802
95339,43807
95346,43812
95353,43819
95360,43826
95365,43833
95370,43841
95374,43850
95377,43859
95380,43868
95381,43877
95381,43887
95381,44078
95381,44088
95380,44097
95377,44106
95374,44115
95370,44124
95365,44132
95360,44139
95353,44146
95346,44153
95339,44158
95331,44163
95322,44167
95313,44170
95304,44173
95295,44174
95285,44174
94926,44174
94917,44174
94908,44173
94898,44170
94890,44167
94881,44163
94873,44158
94865,44153
94858,44146
94852,44139
94846,44132
94842,44124
94838,44115
94834,44106
94832,44097
94831,44088
94830,44078
94830,43887
94831,43877
94832,43868
94834,43859
94838,43850
94842,43841
94846,43833
94852,43826
94858,43819
94865,43812
94873,43807
94881,43802
94890,43798
94898,43795
94908,43792
94917,43791
94926,43791
95285,43791
95295,43791
Z" /> 
<path style="fill:#000000; fill-opacity:1.0; 
stroke:#000000; stroke-width:0; stroke-opacity:1; 
stroke-linecap:round; stroke-linejoin:round;fill-rule:evenodd;"
d="M 95295,43053
95304,43054
95313,43057
95322,43060
95331,43064
95339,43069
95346,43074
95353,43080
95360,43087
95365,43095
95370,43103
95374,43112
95377,43120
95380,43130
95381,43139
95381,43148
95381,43340
95381,43350
95380,43359
95377,43368
95374,43377
95370,43386
95365,43394
95360,43401
95353,43408
95346,43414
95339,43420
95331,43425
95322,43429
95313,43432
95304,43434
95295,43436
95285,43436
94926,43436
94917,43436
94908,43434
94898,43432
94890,43429
94881,43425
94873,43420
94865,43414
94858,43408
94852,43401
94846,43394
94842,43386
94838,43377
94834,43368
94832,43359
94831,43350
94830,43340
94830,43148
94831,43139
94832,43130
94834,43120
94838,43112
94842,43103
94846,43095
94852,43087
94858,43080
94865,43074
94873,43069
94881,43064
94890,43060
94898,43057
94908,43054
94917,43053
94926,43052
95285,43052
95295,43053
Z" /> 
</g>
<g >
<path style="fill:#000000; fill-opacity:1.0; 
stroke:#000000; stroke-width:0; stroke-opacity:1; 
stroke-linecap:round; stroke-linejoin:round;fill-rule:evenodd;"
d="M 101989,43791
101999,43792
102008,43795
102017,43798
102025,43802
102033,43807
102041,43812
102048,43819
102054,43826
102060,43833
102065,43841
102069,43850
102072,43859
102074,43868
102076,43877
102076,43887
102076,44078
102076,44088
102074,44097
102072,44106
102069,44115
102065,44124
102060,44132
102054,44139
102048,44146
102041,44153
102033,44158
102025,44163
102017,44167
102008,44170
101999,44173
101989,44174
101980,44174
101621,44174
101611,44174
101602,44173
101593,44170
101584,44167
101576,44163
101567,44158
101560,44153
101553,44146
101547,44139
101541,44132
101536,44124
101532,44115
101529,44106
101527,44097
101525,44088
101525,44078
101525,43887
101525,43877
101527,43868
101529,43859
101532,43850
101536,43841
101541,43833
101547,43826
101553,43819
101560,43812
101567,43807
101576,43802
101584,43798
101593,43795
101602,43792
101611,43791
101621,43791
101980,43791
101989,43791
Z" /> 
<path style="fill:#000000; fill-opacity:1.0; 
stroke:#000000; stroke-width:0; stroke-opacity:1; 
stroke-linecap:round; stroke-linejoin:round;fill-rule:evenodd;"
d="M 101989,43053
101999,43054
102008,43057
102017,43060
102025,43064
102033,43069
102041,43074
102048,43080
102054,43087
102060,43095
102065,43103
102069,43112
102072,43120
102074,43130
102076,43139
102076,43148
102076,43340
102076,43350
102074,43359
102072,43368
102069,43377
102065,43386
102060,43394
102054,43401
102048,43408
102041,43414
102033,43420
102025,43425
102017,43429
102008,43432
101999,43434
101989,43436
101980,43436
101621,43436
101611,43436
101602,43434
101593,43432
101584,43429
101576,43425
101567,43420
101560,43414
101553,43408
101547,43401
101541,43394
101536,43386
101532,43377
101529,43368
101527,43359
101525,43350
101525,43340
101525,43148
101525,43139
101527,43130
101529,43120
101532,43112
101536,43103
101541,43095
101547,43087
101553,43080
101560,43074
101567,43069
101576,43064
101584,43060
101593,43057
101602,43054
101611,43053
101621,43052
101980,43052
101989,43053
Z" /> 
</g>
<g >
<path style="fill:#000000; fill-opacity:1.0; 
stroke:#000000; stroke-width:0; stroke-opacity:1; 
stroke-linecap:round; stroke-linejoin:round;fill-rule:evenodd;"
d="M 70180,43053
70190,43054
70199,43057
70208,43060
70216,43064
70224,43069
70232,43074
70239,43080
70245,43087
70251,43095
70256,43103
70260,43112
70263,43120
70265,43130
70266,43139
70267,43148
70267,43340
70266,43350
70265,43359
70263,43368
70260,43377
70256,43386
70251,43394
70245,43401
70239,43408
70232,43414
70224,43420
70216,43425
70208,43429
70199,43432
70190,43434
70180,43436
70171,43436
69812,43436
69802,43436
69793,43434
69784,43432
69775,43429
69766,43425
69758,43420
69751,43414
69744,43408
69738,43401
69732,43394
69727,43386
69723,43377
69720,43368
69718,43359
69716,43350
69716,43340
69716,43148
69716,43139
69718,43130
69720,43120
69723,43112
69727,43103
69732,43095
69738,43087
69744,43080
69751,43074
69758,43069
69766,43064
69775,43060
69784,43057
69793,43054
69802,43053
69812,43052
70171,43052
70180,43053
Z" /> 
<path style="fill:#000000; fill-opacity:1.0; 
stroke:#000000; stroke-width:0; stroke-opacity:1; 
stroke-linecap:round; stroke-linejoin:round;fill-rule:evenodd;"
d="M 70180,43791
70190,43792
70199,43795
70208,43798
70216,43802
70224,43807
70232,43812
70239,43819
70245,43826
70251,43833
70256,43841
70260,43850
70263,43859
70265,43868
70266,43877
70267,43887
70267,44078
70266,44088
70265,44097
70263,44106
70260,44115
70256,44124
70251,44132
70245,44139
70239,44146
70232,44153
70224,44158
70216,44163
70208,44167
70199,44170
70190,44173
70180,44174
70171,44174
69812,44174
69802,44174
69793,44173
69784,44170
69775,44167
69766,44163
69758,44158
69751,44153
69744,44146
69738,44139
69732,44132
69727,44124
69723,44115
69720,44106
69718,44097
69716,44088
69716,44078
69716,43887
69716,43877
69718,43868
69720,43859
69723,43850
69727,43841
69732,43833
69738,43826
69744,43819
69751,43812
69758,43807
69766,43802
69775,43798
69784,43795
69793,43792
69802,43791
69812,43791
70171,43791
70180,43791
Z" /> 
</g>
<g >
<path style="fill:#000000; fill-opacity:1.0; 
stroke:#000000; stroke-width:0; stroke-opacity:1; 
stroke-linecap:round; stroke-linejoin:round;fill-rule:evenodd;"
d="M 63627,43053
63636,43054
63645,43057
63654,43060
63663,43064
63671,43069
63678,43074
63685,43080
63691,43087
63697,43095
63702,43103
63706,43112
63709,43120
63711,43130
63713,43139
63713,43148
63713,43340
63713,43350
63711,43359
63709,43368
63706,43377
63702,43386
63697,43394
63691,43401
63685,43408
63678,43414
63671,43420
63663,43425
63654,43429
63645,43432
63636,43434
63627,43436
63617,43436
63258,43436
63249,43436
63239,43434
63230,43432
63221,43429
63213,43425
63205,43420
63197,43414
63190,43408
63184,43401
63178,43394
63173,43386
63169,43377
63166,43368
63164,43359
63163,43350
63162,43340
63162,43148
63163,43139
63164,43130
63166,43120
63169,43112
63173,43103
63178,43095
63184,43087
63190,43080
63197,43074
63205,43069
63213,43064
63221,43060
63230,43057
63239,43054
63249,43053
63258,43052
63617,43052
63627,43053
Z" /> 
<path style="fill:#000000; fill-opacity:1.0; 
stroke:#000000; stroke-width:0; stroke-opacity:1; 
stroke-linecap:round; stroke-linejoin:round;fill-rule:evenodd;"
d="M 63627,43791
63636,43792
63645,43795
63654,43798
63663,43802
63671,43807
63678,43812
63685,43819
63691,43826
63697,43833
63702,43841
63706,43850
63709,43859
63711,43868
63713,43877
63713,43887
63713,44078
63713,44088
63711,44097
63709,44106
63706,44115
63702,44124
63697,44132
63691,44139
63685,44146
63678,44153
63671,44158
63663,44163
63654,44167
63645,44170
63636,44173
63627,44174
63617,44174
63258,44174
63249,44174
63239,44173
63230,44170
63221,44167
63213,44163
63205,44158
63197,44153
63190,44146
63184,44139
63178,44132
63173,44124
63169,44115
63166,44106
63164,44097
63163,44088
63162,44078
63162,43887
63163,43877
63164,43868
63166,43859
63169,43850
63173,43841
63178,43833
63184,43826
63190,43819
63197,43812
63205,43807
63213,43802
63221,43798
63230,43795
63239,43792
63249,43791
63258,43791
63617,43791
63627,43791
Z" /> 
</g>
<g >
<path style="fill:#000000; fill-opacity:1.0; 
stroke:#000000; stroke-width:0; stroke-opacity:1; 
stroke-linecap:round; stroke-linejoin:round;fill-rule:evenodd;"
d="M 57073,43053
57082,43054
57092,43057
57100,43060
57109,43064
57117,43069
57125,43074
57132,43080
57138,43087
57143,43095
57148,43103
57152,43112
57156,43120
57158,43130
57159,43139
57160,43148
57160,43340
57159,43350
57158,43359
57156,43368
57152,43377
57148,43386
57143,43394
57138,43401
57132,43408
57125,43414
57117,43420
57109,43425
57100,43429
57092,43432
57082,43434
57073,43436
57064,43436
56704,43436
56695,43436
56686,43434
56677,43432
56668,43429
56659,43425
56651,43420
56644,43414
56637,43408
56630,43401
56625,43394
56620,43386
56616,43377
56613,43368
56610,43359
56609,43350
56608,43340
56608,43148
56609,43139
56610,43130
56613,43120
56616,43112
56620,43103
56625,43095
56630,43087
56637,43080
56644,43074
56651,43069
56659,43064
56668,43060
56677,43057
56686,43054
56695,43053
56704,43052
57064,43052
57073,43053
Z" /> 
<path style="fill:#000000; fill-opacity:1.0; 
stroke:#000000; stroke-width:0; stroke-opacity:1; 
stroke-linecap:round; stroke-linejoin:round;fill-rule:evenodd;"
d="M 57073,43791
57082,43792
57092,43795
57100,43798
57109,43802
57117,43807
57125,43812
57132,43819
57138,43826
57143,43833
57148,43841
57152,43850
57156,43859
57158,43868
57159,43877
57160,43887
57160,44078
57159,44088
57158,44097
57156,44106
57152,44115
57148,44124
57143,44132
57138,44139
57132,44146
57125,44153
57117,44158
57109,44163
57100,44167
57092,44170
57082,44173
57073,44174
57064,44174
56704,44174
56695,44174
56686,44173
56677,44170
56668,44167
56659,44163
56651,44158
56644,44153
56637,44146
56630,44139
56625,44132
56620,44124
56616,44115
56613,44106
56610,44097
56609,44088
56608,44078
56608,43887
56609,43877
56610,43868
56613,43859
56616,43850
56620,43841
56625,43833
56630,43826
56637,43819
56644,43812
56651,43807
56659,43802
56668,43798
56677,43795
56686,43792
56695,43791
56704,43791
57064,43791
57073,43791
Z" /> 
</g>
<g >
<path style="fill:#000000; fill-opacity:1.0; 
stroke:#000000; stroke-width:0; stroke-opacity:1; 
stroke-linecap:round; stroke-linejoin:round;fill-rule:evenodd;"
d="M 50519,43053
50529,43054
50538,43057
50547,43060
50555,43064
50563,43069
50571,43074
50578,43080
50584,43087
50590,43095
50595,43103
50599,43112
50602,43120
50604,43130
50606,43139
50606,43148
50606,43340
50606,43350
50604,43359
50602,43368
50599,43377
50595,43386
50590,43394
50584,43401
50578,43408
50571,43414
50563,43420
50555,43425
50547,43429
50538,43432
50529,43434
50519,43436
50510,43436
50151,43436
50141,43436
50132,43434
50123,43432
50114,43429
50106,43425
50097,43420
50090,43414
50083,43408
50077,43401
50071,43394
50066,43386
50062,43377
50059,43368
50057,43359
50055,43350
50055,43340
50055,43148
50055,43139
50057,43130
50059,43120
50062,43112
50066,43103
50071,43095
50077,43087
50083,43080
50090,43074
50097,43069
50106,43064
50114,43060
50123,43057
50132,43054
50141,43053
50151,43052
50510,43052
50519,43053
Z" /> 
<path style="fill:#000000; fill-opacity:1.0; 
stroke:#000000; stroke-width:0; stroke-opacity:1; 
stroke-linecap:round; stroke-linejoin:round;fill-rule:evenodd;"
d="M 50519,43791
50529,43792
50538,43795
50547,43798
50555,43802
50563,43807
50571,43812
50578,43819
50584,43826
50590,43833
50595,43841
50599,43850
50602,43859
50604,43868
50606,43877
50606,43887
50606,44078
50606,44088
50604,44097
50602,44106
50599,44115
50595,44124
50590,44132
50584,44139
50578,44146
50571,44153
50563,44158
50555,44163
50547,44167
50538,44170
50529,44173
50519,44174
50510,44174
50151,44174
50141,44174
50132,44173
50123,44170
50114,44167
50106,44163
50097,44158
50090,44153
50083,44146
50077,44139
50071,44132
50066,44124
50062,44115
50059,44106
50057,44097
50055,44088
50055,44078
50055,43887
50055,43877
50057,43868
50059,43859
50062,43850
50066,43841
50071,43833
50077,43826
50083,43819
50090,43812
50097,43807
50106,43802
50114,43798
50123,43795
50132,43792
50141,43791
50151,43791
50510,43791
50519,43791
Z" /> 
</g>
<g >
<path style="fill:#000000; fill-opacity:1.0; 
stroke:#000000; stroke-width:0; stroke-opacity:1; 
stroke-linecap:round; stroke-linejoin:round;fill-rule:evenodd;"
d="M 43966,43053
43975,43054
43984,43057
43993,43060
44002,43064
44010,43069
44017,43074
44024,43080
44031,43087
44036,43095
44041,43103
44045,43112
44048,43120
44051,43130
44052,43139
44052,43148
44052,43340
44052,43350
44051,43359
44048,43368
44045,43377
44041,43386
44036,43394
44031,43401
44024,43408
44017,43414
44010,43420
44002,43425
43993,43429
43984,43432
43975,43434
43966,43436
43956,43436
43597,43436
43588,43436
43578,43434
43569,43432
43560,43429
43552,43425
43544,43420
43536,43414
43529,43408
43523,43401
43517,43394
43513,43386
43508,43377
43505,43368
43503,43359
43502,43350
43501,43340
43501,43148
43502,43139
43503,43130
43505,43120
43508,43112
43513,43103
43517,43095
43523,43087
43529,43080
43536,43074
43544,43069
43552,43064
43560,43060
43569,43057
43578,43054
43588,43053
43597,43052
43956,43052
43966,43053
Z" /> 
<path style="fill:#000000; fill-opacity:1.0; 
stroke:#000000; stroke-width:0; stroke-opacity:1; 
stroke-linecap:round; stroke-linejoin:round;fill-rule:evenodd;"
d="M 43966,43791
43975,43792
43984,43795
43993,43798
44002,43802
44010,43807
44017,43812
44024,43819
44031,43826
44036,43833
44041,43841
44045,43850
44048,43859
44051,43868
44052,43877
44052,43887
44052,44078
44052,44088
44051,44097
44048,44106
44045,44115
44041,44124
44036,44132
44031,44139
44024,44146
44017,44153
44010,44158
44002,44163
43993,44167
43984,44170
43975,44173
43966,44174
43956,44174
43597,44174
43588,44174
43578,44173
43569,44170
43560,44167
43552,44163
43544,44158
43536,44153
43529,44146
43523,44139
43517,44132
43513,44124
43508,44115
43505,44106
43503,44097
43502,44088
43501,44078
43501,43887
43502,43877
43503,43868
43505,43859
43508,43850
43513,43841
43517,43833
43523,43826
43529,43819
43536,43812
43544,43807
43552,43802
43560,43798
43569,43795
43578,43792
43588,43791
43597,43791
43956,43791
43966,43791
Z" /> 
</g>
<g >
<path style="fill:#000000; fill-opacity:1.0; 
stroke:#000000; stroke-width:0; stroke-opacity:1; 
stroke-linecap:round; stroke-linejoin:round;fill-rule:evenodd;"
d="M 37412,43053
37421,43054
37431,43057
37439,43060
37448,43064
37456,43069
37464,43074
37471,43080
37477,43087
37483,43095
37487,43103
37491,43112
37495,43120
37497,43130
37498,43139
37499,43148
37499,43340
37498,43350
37497,43359
37495,43368
37491,43377
37487,43386
37483,43394
37477,43401
37471,43408
37464,43414
37456,43420
37448,43425
37439,43429
37431,43432
37421,43434
37412,43436
37403,43436
37044,43436
37034,43436
37025,43434
37016,43432
37007,43429
36998,43425
36990,43420
36983,43414
36976,43408
36969,43401
36964,43394
36959,43386
36955,43377
36952,43368
36949,43359
36948,43350
36948,43340
36948,43148
36948,43139
36949,43130
36952,43120
36955,43112
36959,43103
36964,43095
36969,43087
36976,43080
36983,43074
36990,43069
36998,43064
37007,43060
37016,43057
37025,43054
37034,43053
37044,43052
37403,43052
37412,43053
Z" /> 
<path style="fill:#000000; fill-opacity:1.0; 
stroke:#000000; stroke-width:0; stroke-opacity:1; 
stroke-linecap:round; stroke-linejoin:round;fill-rule:evenodd;"
d="M 37412,43791
37421,43792
37431,43795
37439,43798
37448,43802
37456,43807
37464,43812
37471,43819
37477,43826
37483,43833
37487,43841
37491,43850
37495,43859
37497,43868
37498,43877
37499,43887
37499,44078
37498,44088
37497,44097
37495,44106
37491,44115
37487,44124
37483,44132
37477,44139
37471,44146
37464,44153
37456,44158
37448,44163
37439,44167
37431,44170
37421,44173
37412,44174
37403,44174
37044,44174
37034,44174
37025,44173
37016,44170
37007,44167
36998,44163
36990,44158
36983,44153
36976,44146
36969,44139
36964,44132
36959,44124
36955,44115
36952,44106
36949,44097
36948,44088
36948,44078
36948,43887
36948,43877
36949,43868
36952,43859
36955,43850
36959,43841
36964,43833
36969,43826
36976,43819
36983,43812
36990,43807
36998,43802
37007,43798
37016,43795
37025,43792
37034,43791
37044,43791
37403,43791
37412,43791
Z" /> 
</g>
<g >
<path style="fill:#000000; fill-opacity:1.0; 
stroke:#000000; stroke-width:0; stroke-opacity:1; 
stroke-linecap:round; stroke-linejoin:round;fill-rule:evenodd;"
d="M 27871,41378
27880,41379
27889,41382
27898,41385
27906,41389
27915,41394
27922,41399
27929,41406
27935,41413
27941,41420
27946,41428
27950,41437
27953,41446
27955,41455
27957,41464
27957,41473
27957,41833
27957,41842
27955,41851
27953,41861
27950,41869
27946,41878
27941,41886
27935,41894
27929,41901
27922,41907
27915,41912
27906,41917
27898,41921
27889,41925
27880,41927
27871,41928
27861,41929
27669,41929
27660,41928
27651,41927
27641,41925
27633,41921
27624,41917
27616,41912
27608,41907
27601,41901
27595,41894
27589,41886
27585,41878
27581,41869
27577,41861
27575,41851
27574,41842
27573,41833
27573,41473
27574,41464
27575,41455
27577,41446
27581,41437
27585,41428
27589,41420
27595,41413
27601,41406
27608,41399
27616,41394
27624,41389
27633,41385
27641,41382
27651,41379
27660,41378
27669,41377
27861,41377
27871,41378
Z" /> 
<path style="fill:#000000; fill-opacity:1.0; 
stroke:#000000; stroke-width:0; stroke-opacity:1; 
stroke-linecap:round; stroke-linejoin:round;fill-rule:evenodd;"
d="M 28609,41378
28618,41379
28627,41382
28636,41385
28645,41389
28653,41394
28660,41399
28667,41406
28674,41413
28679,41420
28684,41428
28688,41437
28691,41446
28694,41455
28695,41464
28695,41473
28695,41833
28695,41842
28694,41851
28691,41861
28688,41869
28684,41878
28679,41886
28674,41894
28667,41901
28660,41907
28653,41912
28645,41917
28636,41921
28627,41925
28618,41927
28609,41928
28599,41929
28407,41929
28398,41928
28389,41927
28380,41925
28371,41921
28362,41917
28354,41912
28347,41907
28340,41901
28333,41894
28328,41886
28323,41878
28319,41869
28316,41861
28313,41851
28312,41842
28312,41833
28312,41473
28312,41464
28313,41455
28316,41446
28319,41437
28323,41428
28328,41420
28333,41413
28340,41406
28347,41399
28354,41394
28362,41389
28371,41385
28380,41382
28389,41379
28398,41378
28407,41377
28599,41377
28609,41378
Z" /> 
</g>
<g >
</g>
<g >
</g>
<g >
</g>
</g> 
</svg>
