<?xml version="1.0" standalone="no"?>
 <!DOCTYPE svg PUBLIC "-//W3C//DTD SVG 1.1//EN" 
 "http://www.w3.org/Graphics/SVG/1.1/DTD/svg11.dtd"> 
<svg xmlns="http://www.w3.org/2000/svg" version="1.1" 
    width="41.9989cm" height="29.7002cm" viewBox="0 0 165350 116930 ">
<title>SVG Picture created as DInside-Edge_Cuts.svg date 2019/04/12 10:46:18 </title>
  <desc>Picture generated by PCBNEW </desc>
<g style="fill:#000000; fill-opacity:1;stroke:#000000; stroke-opacity:1;
stroke-linecap:round; stroke-linejoin:round; "
 transform="translate(0 0) scale(1 1)">
</g>
<g style="fill:#000000; fill-opacity:0.0; 
stroke:#000000; stroke-width:-0.000393701; stroke-opacity:1; 
stroke-linecap:round; stroke-linejoin:round;">
</g>
<g style="fill:#000000; fill-opacity:0.0; 
stroke:#000000; stroke-width:39.3701; stroke-opacity:1; 
stroke-linecap:round; stroke-linejoin:round;">
<circle cx="122550" cy="43450" r="580" /> 
<circle cx="83249" cy="43457" r="580" /> 
<circle cx="30675" cy="43450" r="580" /> 
<path d="M20415 41512
L20219 41316
" />
<path d="M20661 41638
L20415 41512
" />
<path d="M132297 46996
L131116 46996
" />
<path d="M132570 46953
L132297 46996
" />
<path d="M132817 46827
L132570 46953
" />
<path d="M133012 46631
L132817 46827
" />
<path d="M133138 46384
L133012 46631
" />
<path d="M133182 46111
L133138 46384
" />
<path d="M133138 45837
L133182 46111
" />
<path d="M133012 45591
L133138 45837
" />
<path d="M132817 45395
L133012 45591
" />
<path d="M132570 45269
L132817 45395
" />
<path d="M132297 45226
L132570 45269
" />
<path d="M131116 45226
L132297 45226
" />
<path d="M130842 45269
L131116 45226
" />
<path d="M130595 45395
L130842 45269
" />
<path d="M130399 45591
L130595 45395
" />
<path d="M130274 45837
L130399 45591
" />
<path d="M130230 46111
L130274 45837
" />
<path d="M130274 46384
L130230 46111
" />
<path d="M130399 46631
L130274 46384
" />
<path d="M130595 46827
L130399 46631
" />
<path d="M130842 46953
L130595 46827
" />
<path d="M131116 46996
L130842 46953
" />
<path d="M22116 46996
L20935 46996
" />
<path d="M22389 46953
L22116 46996
" />
<path d="M22636 46827
L22389 46953
" />
<path d="M22832 46631
L22636 46827
" />
<path d="M22958 46384
L22832 46631
" />
<path d="M23001 46111
L22958 46384
" />
<path d="M22958 45837
L23001 46111
" />
<path d="M22832 45591
L22958 45837
" />
<path d="M22636 45395
L22832 45591
" />
<path d="M22389 45269
L22636 45395
" />
<path d="M22116 45226
L22389 45269
" />
<path d="M20935 45226
L22116 45226
" />
<path d="M20661 45269
L20935 45226
" />
<path d="M20415 45395
L20661 45269
" />
<path d="M20219 45591
L20415 45395
" />
<path d="M20093 45837
L20219 45591
" />
<path d="M20050 46111
L20093 45837
" />
<path d="M20093 46384
L20050 46111
" />
<path d="M20219 46631
L20093 46384
" />
<path d="M20415 46827
L20219 46631
" />
<path d="M20661 46953
L20415 46827
" />
<path d="M20935 46996
L20661 46953
" />
<path d="M22116 41681
L20935 41681
" />
<path d="M22389 41638
L22116 41681
" />
<path d="M22636 41512
L22389 41638
" />
<path d="M22832 41316
L22636 41512
" />
<path d="M22958 41069
L22832 41316
" />
<path d="M23001 40796
L22958 41069
" />
<path d="M22958 40522
L23001 40796
" />
<path d="M22832 40276
L22958 40522
" />
<path d="M22636 40080
L22832 40276
" />
<path d="M22389 39954
L22636 40080
" />
<path d="M22116 39911
L22389 39954
" />
<path d="M20093 41069
L20050 40796
" />
<path d="M20219 41316
L20093 41069
" />
<path d="M20093 40522
L20219 40276
" />
<path d="M20050 40796
L20093 40522
" />
<path d="M20935 39911
L22116 39911
" />
<path d="M20661 39954
L20935 39911
" />
<path d="M20415 40080
L20661 39954
" />
<path d="M20219 40276
L20415 40080
" />
<path d="M20935 41681
L20661 41638
" />
<path d="M134620 40257
L134508 40038
" />
<path d="M18611 40257
L18573 40501
" />
<path d="M18723 40038
L18611 40257
" />
<path d="M18897 39864
L18723 40038
" />
<path d="M19117 39752
L18897 39864
" />
<path d="M19360 39713
L19117 39752
" />
<path d="M19484 39713
L19360 39713
" />
<path d="M19541 39601
L19484 39713
" />
<path d="M19737 39405
L19541 39601
" />
<path d="M19983 39279
L19737 39405
" />
<path d="M20257 39236
L19983 39279
" />
<path d="M22794 39236
L20257 39236
" />
<path d="M23067 39279
L22794 39236
" />
<path d="M23314 39405
L23067 39279
" />
<path d="M23510 39601
L23314 39405
" />
<path d="M23567 39713
L23510 39601
" />
<path d="M129664 39713
L23567 39713
" />
<path d="M129721 39601
L129664 39713
" />
<path d="M129917 39405
L129721 39601
" />
<path d="M130164 39279
L129917 39405
" />
<path d="M130438 39236
L130164 39279
" />
<path d="M132975 39236
L130438 39236
" />
<path d="M133248 39279
L132975 39236
" />
<path d="M133495 39405
L133248 39279
" />
<path d="M133690 39601
L133495 39405
" />
<path d="M133748 39713
L133690 39601
" />
<path d="M133871 39713
L133748 39713
" />
<path d="M134115 39752
L133871 39713
" />
<path d="M134334 39864
L134115 39752
" />
<path d="M134508 40038
L134334 39864
" />
<path d="M130164 47627
L130438 47671
" />
<path d="M129917 47502
L130164 47627
" />
<path d="M129721 47306
L129917 47502
" />
<path d="M129664 47193
L129721 47306
" />
<path d="M23567 47193
L129664 47193
" />
<path d="M23510 47306
L23567 47193
" />
<path d="M23314 47502
L23510 47306
" />
<path d="M23067 47627
L23314 47502
" />
<path d="M22794 47671
L23067 47627
" />
<path d="M20257 47671
L22794 47671
" />
<path d="M19983 47627
L20257 47671
" />
<path d="M19737 47502
L19983 47627
" />
<path d="M19541 47306
L19737 47502
" />
<path d="M19484 47193
L19541 47306
" />
<path d="M19360 47193
L19484 47193
" />
<path d="M19117 47155
L19360 47193
" />
<path d="M18897 47043
L19117 47155
" />
<path d="M18723 46869
L18897 47043
" />
<path d="M18611 46649
L18723 46869
" />
<path d="M18573 46406
L18611 46649
" />
<path d="M18573 40501
L18573 46406
" />
<path d="M134115 47155
L134334 47043
" />
<path d="M133871 47193
L134115 47155
" />
<path d="M133748 47193
L133871 47193
" />
<path d="M133690 47306
L133748 47193
" />
<path d="M133495 47502
L133690 47306
" />
<path d="M133248 47627
L133495 47502
" />
<path d="M132975 47671
L133248 47627
" />
<path d="M130438 47671
L132975 47671
" />
<path d="M134659 40501
L134620 40257
" />
<path d="M134659 46406
L134659 40501
" />
<path d="M134620 46649
L134659 46406
" />
<path d="M134508 46869
L134620 46649
" />
<path d="M134334 47043
L134508 46869
" />
<path d="M133886 43906
L133886 44693
" />
<path d="M132311 43906
L133886 43906
" />
<path d="M132311 44693
L132311 43906
" />
<path d="M133886 44693
L132311 44693
" />
<path d="M20882 42233
L20882 43020
" />
<path d="M19307 42233
L20882 42233
" />
<path d="M19307 43020
L19307 42233
" />
<path d="M20882 43020
L19307 43020
" />
<path d="M20882 43886
L20882 44674
" />
<path d="M19307 43886
L20882 43886
" />
<path d="M19307 44674
L19307 43886
" />
<path d="M20882 44674
L19307 44674
" />
<path d="M133886 42213
L133886 43001
" />
<path d="M132311 42213
L133886 42213
" />
<path d="M132311 43001
L132311 42213
" />
<path d="M133886 43001
L132311 43001
" />
<path d="M132297 41681
L131116 41681
" />
<path d="M132570 41638
L132297 41681
" />
<path d="M132817 41512
L132570 41638
" />
<path d="M133012 41316
L132817 41512
" />
<path d="M133138 41069
L133012 41316
" />
<path d="M133182 40796
L133138 41069
" />
<path d="M133138 40522
L133182 40796
" />
<path d="M133012 40276
L133138 40522
" />
<path d="M132817 40080
L133012 40276
" />
<path d="M132570 39954
L132817 40080
" />
<path d="M132297 39911
L132570 39954
" />
<path d="M131116 39911
L132297 39911
" />
<path d="M130842 39954
L131116 39911
" />
<path d="M130595 40080
L130842 39954
" />
<path d="M130399 40276
L130595 40080
" />
<path d="M130274 40522
L130399 40276
" />
<path d="M130230 40796
L130274 40522
" />
<path d="M130274 41069
L130230 40796
" />
<path d="M130399 41316
L130274 41069
" />
<path d="M130595 41512
L130399 41316
" />
<path d="M130842 41638
L130595 41512
" />
<path d="M131116 41681
L130842 41638
" />
<g >
</g>
<g >
</g>
<g >
</g>
<g >
</g>
<g >
</g>
<g >
</g>
<g >
</g>
<g >
</g>
<g >
</g>
<g >
</g>
<g >
</g>
<g >
</g>
<g >
</g>
<g >
</g>
<g >
</g>
<g >
</g>
<g >
</g>
<g >
</g>
<g >
</g>
<g >
</g>
<g >
</g>
<g >
</g>
<g >
</g>
<g >
</g>
<g >
</g>
<g >
</g>
<g >
</g>
<g >
</g>
<g >
</g>
<g >
</g>
<g >
</g>
<g >
</g>
<g >
</g>
<g >
</g>
<g >
</g>
<g >
</g>
<g >
</g>
<g >
</g>
<g >
</g>
<g >
</g>
<g >
</g>
<g >
</g>
<g >
</g>
<g >
</g>
<g >
</g>
<g >
</g>
<g >
</g>
<g >
</g>
<g >
</g>
<g >
</g>
<g >
</g>
</g> 
</svg>
