G04 #@! TF.GenerationSoftware,KiCad,Pcbnew,(5.1.0-0)*
G04 #@! TF.CreationDate,2019-04-21T19:21:51-07:00*
G04 #@! TF.ProjectId,FInside,46496e73-6964-4652-9e6b-696361645f70,rev?*
G04 #@! TF.SameCoordinates,Original*
G04 #@! TF.FileFunction,Copper,L2,Bot*
G04 #@! TF.FilePolarity,Positive*
%FSLAX46Y46*%
G04 Gerber Fmt 4.6, Leading zero omitted, Abs format (unit mm)*
G04 Created by KiCad (PCBNEW (5.1.0-0)) date 2019-04-21 19:21:51*
%MOMM*%
%LPD*%
G04 APERTURE LIST*
%ADD10R,2.000000X6.000000*%
%ADD11C,0.300000*%
%ADD12C,0.050000*%
%ADD13O,3.000000X1.250000*%
%ADD14C,1.000000*%
%ADD15C,0.300000*%
%ADD16C,0.500000*%
%ADD17C,0.254000*%
G04 APERTURE END LIST*
D10*
X102938320Y-145237000D03*
X99938320Y-145237000D03*
X105938320Y-145237000D03*
X122604980Y-145237000D03*
X116604980Y-145237000D03*
X119604980Y-145237000D03*
X136271640Y-145237000D03*
X133271640Y-145237000D03*
X139271640Y-145237000D03*
X269604920Y-145237000D03*
X266604920Y-145237000D03*
X272604920Y-145237000D03*
X255938260Y-145237000D03*
X249938260Y-145237000D03*
X252938260Y-145237000D03*
X236271600Y-145237000D03*
X233271600Y-145237000D03*
X239271600Y-145237000D03*
X222604940Y-145237000D03*
X216604940Y-145237000D03*
X219604940Y-145237000D03*
X202938280Y-145237000D03*
X199938280Y-145237000D03*
X205938280Y-145237000D03*
X189271620Y-145237000D03*
X183271620Y-145237000D03*
X186271620Y-145237000D03*
X169604960Y-145237000D03*
X166604960Y-145237000D03*
X172604960Y-145237000D03*
X155805000Y-145237000D03*
X149805000Y-145237000D03*
X152805000Y-145237000D03*
D11*
X74480000Y-142437000D03*
D12*
G36*
X75480000Y-142437000D02*
G01*
X74980000Y-143187000D01*
X73980000Y-143187000D01*
X73980000Y-141687000D01*
X74980000Y-141687000D01*
X75480000Y-142437000D01*
X75480000Y-142437000D01*
G37*
D11*
X75930000Y-142437000D03*
D12*
G36*
X76430000Y-143187000D02*
G01*
X75280000Y-143187000D01*
X75780000Y-142437000D01*
X75280000Y-141687000D01*
X76430000Y-141687000D01*
X76430000Y-143187000D01*
X76430000Y-143187000D01*
G37*
D11*
X62580000Y-141737000D03*
D12*
G36*
X63580000Y-141737000D02*
G01*
X63080000Y-142487000D01*
X62080000Y-142487000D01*
X62080000Y-140987000D01*
X63080000Y-140987000D01*
X63580000Y-141737000D01*
X63580000Y-141737000D01*
G37*
D11*
X64030000Y-141737000D03*
D12*
G36*
X64530000Y-142487000D02*
G01*
X63380000Y-142487000D01*
X63880000Y-141737000D01*
X63380000Y-140987000D01*
X64530000Y-140987000D01*
X64530000Y-142487000D01*
X64530000Y-142487000D01*
G37*
D11*
X297030000Y-141837000D03*
D12*
G36*
X296030000Y-141837000D02*
G01*
X296530000Y-141087000D01*
X297530000Y-141087000D01*
X297530000Y-142587000D01*
X296530000Y-142587000D01*
X296030000Y-141837000D01*
X296030000Y-141837000D01*
G37*
D11*
X295580000Y-141837000D03*
D12*
G36*
X295080000Y-141087000D02*
G01*
X296230000Y-141087000D01*
X295730000Y-141837000D01*
X296230000Y-142587000D01*
X295080000Y-142587000D01*
X295080000Y-141087000D01*
X295080000Y-141087000D01*
G37*
D11*
X311996636Y-141637000D03*
D12*
G36*
X310996636Y-141637000D02*
G01*
X311496636Y-140887000D01*
X312496636Y-140887000D01*
X312496636Y-142387000D01*
X311496636Y-142387000D01*
X310996636Y-141637000D01*
X310996636Y-141637000D01*
G37*
D11*
X310546636Y-141637000D03*
D12*
G36*
X310046636Y-140887000D02*
G01*
X311196636Y-140887000D01*
X310696636Y-141637000D01*
X311196636Y-142387000D01*
X310046636Y-142387000D01*
X310046636Y-140887000D01*
X310046636Y-140887000D01*
G37*
D13*
X59188335Y-149237000D03*
X59188335Y-147237000D03*
X311270588Y-150487000D03*
X311270588Y-148487000D03*
X311270588Y-146487000D03*
X311270588Y-144487000D03*
X63355000Y-150487000D03*
X63355000Y-148487000D03*
X63355000Y-146487000D03*
X63355000Y-144487000D03*
X315437238Y-149237000D03*
X315437238Y-147237000D03*
D14*
X269604984Y-141237000D03*
X252938318Y-141237000D03*
X236271652Y-141237000D03*
X219604986Y-141237000D03*
X202938320Y-141237000D03*
X186271654Y-141237000D03*
X169604988Y-141237000D03*
X136271632Y-141237000D03*
X119604972Y-141237000D03*
X90371600Y-148086991D03*
X158146610Y-148037000D03*
X147729950Y-144037000D03*
X97729982Y-144237000D03*
X108146642Y-148137000D03*
X114396638Y-144337000D03*
X124813298Y-148037000D03*
X131063294Y-144137000D03*
X141479954Y-147937000D03*
X164396606Y-144137000D03*
X174813266Y-147937000D03*
X191479922Y-148237000D03*
X181063262Y-144237000D03*
X197729918Y-144237000D03*
X208146578Y-148137000D03*
X214396574Y-144137000D03*
X224813234Y-148037000D03*
X231063230Y-144337000D03*
X241479890Y-147937000D03*
X247729886Y-144537000D03*
X258146546Y-148037000D03*
X264396542Y-144137000D03*
X274813202Y-148037000D03*
X102938312Y-141237000D03*
X286405000Y-144837000D03*
X282005000Y-144137000D03*
X90438264Y-144336990D03*
X86121638Y-148086999D03*
X158146610Y-144237000D03*
X108146642Y-144337000D03*
X97729982Y-148137000D03*
X124813298Y-144237000D03*
X114396638Y-148137000D03*
X141479954Y-144237000D03*
X131063294Y-148237000D03*
X174813266Y-144137000D03*
X164396606Y-148037000D03*
X181063262Y-148037000D03*
X191479922Y-144337000D03*
X197729918Y-147937000D03*
X208146578Y-144237000D03*
X224813234Y-144437000D03*
X231063230Y-147937000D03*
X241479890Y-144337000D03*
X247729886Y-148037000D03*
X258146546Y-144337000D03*
X274813202Y-144137000D03*
X264396546Y-148037000D03*
X282104864Y-147937000D03*
X68679480Y-146959310D03*
X147729950Y-147736990D03*
X72405000Y-142037000D03*
X302205000Y-148537000D03*
X305805000Y-144537000D03*
X308905000Y-150437000D03*
X65505000Y-150537000D03*
X214396540Y-147837000D03*
X290505000Y-143437004D03*
X208305000Y-146637000D03*
X214474645Y-146589429D03*
X264471600Y-146637000D03*
X257904998Y-146537000D03*
X90705000Y-146637000D03*
X97805000Y-146637000D03*
X114471672Y-146637000D03*
X107904996Y-146737000D03*
X131138338Y-146637000D03*
X124905000Y-146637000D03*
X147610358Y-146442354D03*
X141305000Y-146537000D03*
X164427024Y-146592354D03*
X158105000Y-146537000D03*
X181093685Y-146592349D03*
X174905000Y-146637000D03*
X197805002Y-146637000D03*
X191705000Y-146537000D03*
X231138334Y-146637000D03*
X224805000Y-146637000D03*
X247805000Y-146637000D03*
X241405000Y-146637000D03*
X281138332Y-146637000D03*
X274805000Y-146637000D03*
X65705000Y-144837000D03*
X69505000Y-143937000D03*
X298636683Y-146278938D03*
X306804994Y-146637000D03*
X76672658Y-144696299D03*
X82062828Y-148022870D03*
X298971939Y-145074723D03*
X290231619Y-146635931D03*
X73705000Y-147037000D03*
X80204445Y-150036956D03*
X298705000Y-148237000D03*
X314304990Y-144737003D03*
X290226189Y-150384875D03*
X75289751Y-145067068D03*
X82327365Y-149244570D03*
X297395966Y-146126801D03*
X290234914Y-147885938D03*
X74305000Y-145837000D03*
X81450567Y-150135499D03*
X297508136Y-147371768D03*
X290193955Y-149135279D03*
D15*
X269604992Y-141237008D02*
X269604984Y-141237000D01*
X269604992Y-145237000D02*
X269604992Y-141237008D01*
X252938326Y-141237008D02*
X252938318Y-141237000D01*
X252938326Y-145237000D02*
X252938326Y-141237008D01*
X236271660Y-141237008D02*
X236271652Y-141237000D01*
X236271660Y-145237000D02*
X236271660Y-141237008D01*
X219604994Y-141237008D02*
X219604986Y-141237000D01*
X219604994Y-145237000D02*
X219604994Y-141237008D01*
X202938328Y-141237008D02*
X202938320Y-141237000D01*
X202938328Y-145237000D02*
X202938328Y-141237008D01*
X186271662Y-141237008D02*
X186271654Y-141237000D01*
X186271662Y-145237000D02*
X186271662Y-141237008D01*
X169604996Y-141237008D02*
X169604988Y-141237000D01*
X169604996Y-145237000D02*
X169604996Y-141237008D01*
X136271640Y-141237008D02*
X136271632Y-141237000D01*
X136271640Y-145237000D02*
X136271640Y-141237008D01*
X119604980Y-141237008D02*
X119604972Y-141237000D01*
X119604980Y-145237000D02*
X119604980Y-141237008D01*
X102938320Y-141237008D02*
X102938312Y-141237000D01*
X102938320Y-145237000D02*
X102938320Y-141237008D01*
X141979953Y-148436999D02*
X141479954Y-147937000D01*
X151404999Y-148637001D02*
X142179955Y-148637001D01*
X152805000Y-147237000D02*
X151404999Y-148637001D01*
X152805000Y-145237000D02*
X152805000Y-147237000D01*
X142179955Y-148637001D02*
X141979953Y-148436999D01*
D16*
X197729954Y-148037000D02*
X198437060Y-148037000D01*
X198437060Y-148037000D02*
X199938328Y-146535732D01*
X214396620Y-148037000D02*
X215103726Y-148037000D01*
X215103726Y-148037000D02*
X216604994Y-146535732D01*
X231063286Y-148037000D02*
X231770392Y-148037000D01*
X231770392Y-148037000D02*
X233271660Y-146535732D01*
X247729952Y-148037000D02*
X248437058Y-148037000D01*
X248437058Y-148037000D02*
X249938326Y-146535732D01*
D15*
X74005000Y-140437000D02*
X72904999Y-141537001D01*
X86538274Y-140437000D02*
X74005000Y-140437000D01*
X90438264Y-144336990D02*
X86538274Y-140437000D01*
X72904999Y-141537001D02*
X72405000Y-142037000D01*
D16*
X266604920Y-146535732D02*
X266604920Y-145237000D01*
X265103652Y-148037000D02*
X266604920Y-146535732D01*
X264396546Y-148037000D02*
X265103652Y-148037000D01*
X183271620Y-145828642D02*
X181063262Y-148037000D01*
X183271620Y-145237000D02*
X183271620Y-145828642D01*
X166604960Y-145828646D02*
X164396606Y-148037000D01*
X166604960Y-145237000D02*
X166604960Y-145828646D01*
X149805000Y-145237000D02*
X149805000Y-145661940D01*
X149805000Y-145661940D02*
X147729950Y-147736990D01*
X133271640Y-146028654D02*
X131063294Y-148237000D01*
X133271640Y-145237000D02*
X133271640Y-146028654D01*
X116604980Y-145928658D02*
X114396638Y-148137000D01*
X116604980Y-145237000D02*
X116604980Y-145928658D01*
X99938320Y-145928662D02*
X97729982Y-148137000D01*
X99938320Y-145237000D02*
X99938320Y-145928662D01*
D15*
X208305000Y-146637000D02*
X214427074Y-146637000D01*
X214427074Y-146637000D02*
X214474645Y-146589429D01*
X264471600Y-146637000D02*
X258004998Y-146637000D01*
X258004998Y-146637000D02*
X257904998Y-146537000D01*
X90705000Y-146637000D02*
X97805000Y-146637000D01*
X114471672Y-146637000D02*
X108004996Y-146637000D01*
X108004996Y-146637000D02*
X107904996Y-146737000D01*
X131138338Y-146637000D02*
X124905000Y-146637000D01*
X141399646Y-146442354D02*
X141305000Y-146537000D01*
X147610358Y-146442354D02*
X141399646Y-146442354D01*
X158160354Y-146592354D02*
X158105000Y-146537000D01*
X164427024Y-146592354D02*
X158160354Y-146592354D01*
X174949651Y-146592349D02*
X174905000Y-146637000D01*
X181093685Y-146592349D02*
X174949651Y-146592349D01*
X197805002Y-146637000D02*
X191805000Y-146637000D01*
X191805000Y-146637000D02*
X191705000Y-146537000D01*
X231138334Y-146637000D02*
X224805000Y-146637000D01*
X247805000Y-146637000D02*
X241405000Y-146637000D01*
X281138332Y-146637000D02*
X274805000Y-146637000D01*
X65705000Y-147012000D02*
X65705000Y-144837000D01*
X64230000Y-148487000D02*
X65705000Y-147012000D01*
X63355000Y-148487000D02*
X64230000Y-148487000D01*
X72980000Y-143937000D02*
X70212106Y-143937000D01*
X70212106Y-143937000D02*
X69505000Y-143937000D01*
X74480000Y-142437000D02*
X72980000Y-143937000D01*
X63355000Y-146487000D02*
X62480000Y-146487000D01*
X62009290Y-142307710D02*
X62580000Y-141737000D01*
X62480000Y-146487000D02*
X60755011Y-144762011D01*
X60755011Y-143561989D02*
X62009290Y-142307710D01*
X60755011Y-144762011D02*
X60755011Y-143561989D01*
X297030000Y-144464871D02*
X298636683Y-146071554D01*
X298636683Y-146071554D02*
X298636683Y-146278938D01*
X297030000Y-141837000D02*
X297030000Y-144464871D01*
X312567346Y-142207710D02*
X311996636Y-141637000D01*
X315205000Y-144262020D02*
X313150690Y-142207710D01*
X313150690Y-142207710D02*
X312567346Y-142207710D01*
X315037002Y-145937000D02*
X315205000Y-145769002D01*
X313620588Y-145937000D02*
X315037002Y-145937000D01*
X313070588Y-146487000D02*
X313620588Y-145937000D01*
X315205000Y-145769002D02*
X315205000Y-144262020D01*
X311270588Y-146487000D02*
X313070588Y-146487000D01*
X311270588Y-146487000D02*
X306954994Y-146487000D01*
X306954994Y-146487000D02*
X306804994Y-146637000D01*
X76005000Y-144028641D02*
X76672658Y-144696299D01*
X76005000Y-142337000D02*
X76005000Y-144028641D01*
X317337248Y-148211990D02*
X317337248Y-145159413D01*
X317337248Y-145159413D02*
X316252494Y-144074659D01*
X316312238Y-149237000D02*
X317337248Y-148211990D01*
X312905000Y-140237000D02*
X303809662Y-140237000D01*
X299471938Y-144574724D02*
X298971939Y-145074723D01*
X315437238Y-149237000D02*
X316312238Y-149237000D01*
X313105000Y-141322220D02*
X313105000Y-140437000D01*
X316252494Y-144074659D02*
X315462328Y-143679548D01*
X313105000Y-140437000D02*
X312905000Y-140237000D01*
X303809662Y-140237000D02*
X299471938Y-144574724D01*
X315462328Y-143679548D02*
X313105000Y-141322220D01*
X82797976Y-148022870D02*
X83962118Y-149187012D01*
X83962118Y-149187012D02*
X286816477Y-149187012D01*
X289367558Y-146635931D02*
X289524513Y-146635931D01*
X286816477Y-149187012D02*
X289367558Y-146635931D01*
X289524513Y-146635931D02*
X290231619Y-146635931D01*
X82062828Y-148022870D02*
X82797976Y-148022870D01*
X298705000Y-148237000D02*
X299412106Y-148237000D01*
X313804991Y-144237004D02*
X314304990Y-144737003D01*
X299412106Y-148237000D02*
X300084724Y-147564382D01*
X300084724Y-147564382D02*
X300084724Y-146857276D01*
X312904987Y-143337000D02*
X313804991Y-144237004D01*
X300084724Y-146857276D02*
X303605000Y-143337000D01*
X303605000Y-143337000D02*
X312904987Y-143337000D01*
X73205001Y-146537001D02*
X73705000Y-147037000D01*
X64080001Y-142237000D02*
X64717332Y-142237000D01*
X68517355Y-146037023D02*
X68968870Y-146037023D01*
X72826614Y-146158614D02*
X73205001Y-146537001D01*
X69090461Y-146158614D02*
X72826614Y-146158614D01*
X64717332Y-142237000D02*
X68517355Y-146037023D01*
X68968870Y-146037023D02*
X69090461Y-146158614D01*
X80204445Y-150036956D02*
X80204445Y-150744062D01*
X289726190Y-150884874D02*
X290226189Y-150384875D01*
X289574064Y-151037000D02*
X289726190Y-150884874D01*
X80204445Y-150744062D02*
X80497383Y-151037000D01*
X80497383Y-151037000D02*
X289574064Y-151037000D01*
X295580000Y-141837000D02*
X295580000Y-144310835D01*
X296895967Y-145626802D02*
X297395966Y-146126801D01*
X295580000Y-144310835D02*
X296895967Y-145626802D01*
X68504999Y-143436999D02*
X68504999Y-144469001D01*
X56705000Y-147628665D02*
X56705000Y-145018465D01*
X69424514Y-144937001D02*
X69546105Y-145058592D01*
X56705000Y-145018465D02*
X61686486Y-140036979D01*
X61686486Y-140036979D02*
X65104979Y-140036979D01*
X68504999Y-144469001D02*
X68972999Y-144937001D01*
X58313335Y-149237000D02*
X56705000Y-147628665D01*
X73851406Y-145058592D02*
X74342929Y-144567069D01*
X59188335Y-149237000D02*
X58313335Y-149237000D01*
X65104979Y-140036979D02*
X68504999Y-143436999D01*
X68972999Y-144937001D02*
X69424514Y-144937001D01*
X74789752Y-144567069D02*
X75289751Y-145067068D01*
X74342929Y-144567069D02*
X74789752Y-144567069D01*
X69546105Y-145058592D02*
X73851406Y-145058592D01*
X288096294Y-149744569D02*
X289954925Y-147885938D01*
X82827364Y-149744569D02*
X288096294Y-149744569D01*
X82327365Y-149244570D02*
X82827364Y-149744569D01*
X289954925Y-147885938D02*
X290234914Y-147885938D01*
X299534713Y-146629454D02*
X299534713Y-146710412D01*
X298215242Y-147371768D02*
X297508136Y-147371768D01*
X299534713Y-146710412D02*
X298908125Y-147337000D01*
X298250010Y-147337000D02*
X298215242Y-147371768D01*
X309996647Y-142786989D02*
X303377178Y-142786989D01*
X310546636Y-142237000D02*
X309996647Y-142786989D01*
X303377178Y-142786989D02*
X299534713Y-146629454D01*
X298908125Y-147337000D02*
X298250010Y-147337000D01*
X69318283Y-145608603D02*
X73369497Y-145608603D01*
X59188335Y-143312963D02*
X61914308Y-140586990D01*
X68745177Y-145487012D02*
X69196692Y-145487012D01*
X73369497Y-145608603D02*
X73597894Y-145837000D01*
X59188335Y-147237000D02*
X59188335Y-143312963D01*
X67954988Y-144696823D02*
X68745177Y-145487012D01*
X69196692Y-145487012D02*
X69318283Y-145608603D01*
X64877158Y-140586990D02*
X67954988Y-143664820D01*
X61914308Y-140586990D02*
X64877158Y-140586990D01*
X73597894Y-145837000D02*
X74305000Y-145837000D01*
X67954988Y-143664820D02*
X67954988Y-144696823D01*
X289693956Y-149635278D02*
X290193955Y-149135279D01*
X288942201Y-150387033D02*
X289693956Y-149635278D01*
X82157673Y-150135499D02*
X82409207Y-150387033D01*
X82409207Y-150387033D02*
X288942201Y-150387033D01*
X81450567Y-150135499D02*
X82157673Y-150135499D01*
D17*
G36*
X58039809Y-138438689D02*
G01*
X58214249Y-138525912D01*
X58550938Y-138862601D01*
X58616360Y-138993456D01*
X58619093Y-139002465D01*
X58646499Y-139053739D01*
X58657367Y-139075476D01*
X58662346Y-139083386D01*
X58682700Y-139121466D01*
X58698214Y-139140370D01*
X58711235Y-139161056D01*
X58740909Y-139192394D01*
X58768301Y-139225770D01*
X58787206Y-139241285D01*
X58804012Y-139259033D01*
X58839222Y-139283974D01*
X58872605Y-139311371D01*
X58894177Y-139322902D01*
X58914120Y-139337028D01*
X58953522Y-139354622D01*
X58991606Y-139374978D01*
X59015010Y-139382077D01*
X59037328Y-139392043D01*
X59079408Y-139401612D01*
X59120729Y-139414147D01*
X59145069Y-139416544D01*
X59168901Y-139421964D01*
X59212037Y-139423140D01*
X59221365Y-139424059D01*
X59245731Y-139424059D01*
X59303784Y-139425642D01*
X59313056Y-139424059D01*
X61195929Y-139424059D01*
X61190987Y-139428115D01*
X61158673Y-139454634D01*
X61158670Y-139454637D01*
X61128722Y-139479215D01*
X61104144Y-139509163D01*
X58397878Y-142215429D01*
X58476212Y-141693187D01*
X58476588Y-141692131D01*
X58486197Y-141626620D01*
X58491044Y-141594305D01*
X58491101Y-141593187D01*
X58496170Y-141558626D01*
X58494512Y-141525969D01*
X58496170Y-141493312D01*
X58491101Y-141458751D01*
X58491044Y-141457633D01*
X58486197Y-141425320D01*
X58476588Y-141359807D01*
X58476212Y-141358751D01*
X58389193Y-140778604D01*
X58389383Y-140771611D01*
X58379194Y-140711942D01*
X58375232Y-140685530D01*
X58373533Y-140678795D01*
X58366670Y-140638603D01*
X58357069Y-140613513D01*
X58350502Y-140587477D01*
X58333016Y-140550661D01*
X58330528Y-140544159D01*
X58318560Y-140520224D01*
X58292613Y-140465593D01*
X58288439Y-140459984D01*
X58023944Y-139931012D01*
X58021218Y-139922025D01*
X57993807Y-139870741D01*
X57982924Y-139848975D01*
X57977954Y-139841079D01*
X57957613Y-139803023D01*
X57942087Y-139784103D01*
X57929052Y-139763397D01*
X57899394Y-139732080D01*
X57893463Y-139724852D01*
X57876216Y-139707604D01*
X57836271Y-139665424D01*
X57828615Y-139660001D01*
X57416845Y-139248215D01*
X57411407Y-139240537D01*
X57369206Y-139200573D01*
X57352004Y-139183371D01*
X57344774Y-139177438D01*
X57313433Y-139147758D01*
X57292740Y-139134732D01*
X57273837Y-139119218D01*
X57235767Y-139098868D01*
X57227854Y-139093887D01*
X57206099Y-139083010D01*
X57154837Y-139055608D01*
X57145833Y-139052876D01*
X56616828Y-138788374D01*
X56611221Y-138784201D01*
X56556566Y-138758243D01*
X56532647Y-138746283D01*
X56526154Y-138743798D01*
X56489337Y-138726312D01*
X56463294Y-138719744D01*
X56438203Y-138710142D01*
X56398022Y-138703281D01*
X56391285Y-138701582D01*
X56364842Y-138697616D01*
X56305195Y-138687431D01*
X56298210Y-138687621D01*
X55701867Y-138598173D01*
X55685128Y-138593095D01*
X55635284Y-138588186D01*
X55619179Y-138585770D01*
X55601807Y-138584888D01*
X55584492Y-138583183D01*
X55568200Y-138583183D01*
X55518187Y-138580645D01*
X55500884Y-138583183D01*
X52602195Y-138583183D01*
X52584892Y-138580645D01*
X52534878Y-138583183D01*
X52518587Y-138583183D01*
X52501273Y-138584888D01*
X52483899Y-138585770D01*
X52467791Y-138588186D01*
X52417951Y-138593095D01*
X52401213Y-138598172D01*
X51804864Y-138687621D01*
X51797873Y-138687431D01*
X51738254Y-138697612D01*
X51711795Y-138701581D01*
X51705045Y-138703284D01*
X51664866Y-138710145D01*
X51639782Y-138719744D01*
X51613742Y-138726312D01*
X51576924Y-138743799D01*
X51570422Y-138746287D01*
X51546489Y-138758254D01*
X51491858Y-138784201D01*
X51486249Y-138788375D01*
X50957262Y-139052878D01*
X50948263Y-139055608D01*
X50896997Y-139083012D01*
X50875239Y-139093891D01*
X50867331Y-139098869D01*
X50829263Y-139119218D01*
X50810352Y-139134739D01*
X50789661Y-139147764D01*
X50758336Y-139177429D01*
X50751096Y-139183371D01*
X50733858Y-139200610D01*
X50691688Y-139240545D01*
X50686257Y-139248213D01*
X50274492Y-139659996D01*
X50266830Y-139665423D01*
X50226851Y-139707640D01*
X50209638Y-139724853D01*
X50203719Y-139732066D01*
X50174049Y-139763396D01*
X50161009Y-139784111D01*
X50145488Y-139803024D01*
X50125155Y-139841067D01*
X50120177Y-139848974D01*
X50109278Y-139870771D01*
X50081883Y-139922026D01*
X50079158Y-139931008D01*
X49814661Y-140459984D01*
X49810487Y-140465593D01*
X49784544Y-140520216D01*
X49772572Y-140544159D01*
X49770083Y-140550664D01*
X49752598Y-140587478D01*
X49746030Y-140613518D01*
X49736431Y-140638603D01*
X49729569Y-140678787D01*
X49727868Y-140685530D01*
X49723903Y-140711964D01*
X49713717Y-140771611D01*
X49713907Y-140778604D01*
X49626888Y-141358753D01*
X49626513Y-141359806D01*
X49616929Y-141425150D01*
X49612056Y-141457635D01*
X49611999Y-141458759D01*
X49606931Y-141493311D01*
X49608588Y-141525969D01*
X49606931Y-141558627D01*
X49611999Y-141593179D01*
X49612056Y-141594303D01*
X49616929Y-141626790D01*
X49626513Y-141692132D01*
X49626888Y-141693185D01*
X49713907Y-142273335D01*
X49713717Y-142280328D01*
X49723903Y-142339976D01*
X49727868Y-142366409D01*
X49729569Y-142373152D01*
X49736431Y-142413336D01*
X49746030Y-142438421D01*
X49752598Y-142464461D01*
X49770082Y-142501273D01*
X49772572Y-142507780D01*
X49784549Y-142531734D01*
X49810487Y-142586345D01*
X49814660Y-142591952D01*
X50079158Y-143120931D01*
X50081883Y-143129913D01*
X50109278Y-143181168D01*
X50120177Y-143202965D01*
X50125155Y-143210872D01*
X50145488Y-143248915D01*
X50161009Y-143267828D01*
X50174049Y-143288543D01*
X50203719Y-143319873D01*
X50209638Y-143327086D01*
X50226851Y-143344299D01*
X50266830Y-143386516D01*
X50274492Y-143391943D01*
X50686257Y-143803726D01*
X50691688Y-143811394D01*
X50733858Y-143851329D01*
X50751096Y-143868568D01*
X50758336Y-143874510D01*
X50789661Y-143904175D01*
X50810352Y-143917200D01*
X50829263Y-143932721D01*
X50867331Y-143953070D01*
X50875239Y-143958048D01*
X50896997Y-143968927D01*
X50948263Y-143996331D01*
X50957262Y-143999061D01*
X51486249Y-144263564D01*
X51491858Y-144267738D01*
X51546489Y-144293685D01*
X51570422Y-144305652D01*
X51576924Y-144308140D01*
X51613742Y-144325627D01*
X51639782Y-144332195D01*
X51664866Y-144341794D01*
X51705045Y-144348655D01*
X51711795Y-144350358D01*
X51738254Y-144354327D01*
X51797873Y-144364508D01*
X51804864Y-144364318D01*
X52401213Y-144453767D01*
X52417951Y-144458844D01*
X52467791Y-144463753D01*
X52483899Y-144466169D01*
X52501273Y-144467051D01*
X52518587Y-144468756D01*
X52534878Y-144468756D01*
X52584892Y-144471294D01*
X52602195Y-144468756D01*
X55500884Y-144468756D01*
X55518187Y-144471294D01*
X55568200Y-144468756D01*
X55584492Y-144468756D01*
X55601807Y-144467051D01*
X55619179Y-144466169D01*
X55635284Y-144463753D01*
X55685128Y-144458844D01*
X55701867Y-144453766D01*
X56240305Y-144373003D01*
X56177185Y-144436123D01*
X56147237Y-144460701D01*
X56122659Y-144490649D01*
X56122655Y-144490653D01*
X56108217Y-144508246D01*
X56049139Y-144580232D01*
X56021682Y-144631601D01*
X55976246Y-144716606D01*
X55931359Y-144864579D01*
X55916203Y-145018465D01*
X55920001Y-145057028D01*
X55920000Y-147590112D01*
X55916203Y-147628665D01*
X55920000Y-147667218D01*
X55920000Y-147667225D01*
X55931359Y-147782551D01*
X55976246Y-147930524D01*
X56049138Y-148066897D01*
X56147236Y-148186429D01*
X56177190Y-148211012D01*
X57061221Y-149095043D01*
X57047239Y-149237000D01*
X57071567Y-149484003D01*
X57143615Y-149721514D01*
X57260615Y-149940405D01*
X57418070Y-150132265D01*
X57609930Y-150289720D01*
X57828821Y-150406720D01*
X58066332Y-150478768D01*
X58251442Y-150497000D01*
X60125228Y-150497000D01*
X60310338Y-150478768D01*
X60547849Y-150406720D01*
X60766740Y-150289720D01*
X60958600Y-150132265D01*
X61116055Y-149940405D01*
X61233055Y-149721514D01*
X61305103Y-149484003D01*
X61329431Y-149237000D01*
X61305103Y-148989997D01*
X61233055Y-148752486D01*
X61116055Y-148533595D01*
X60958600Y-148341735D01*
X60830980Y-148237000D01*
X60958600Y-148132265D01*
X61116055Y-147940405D01*
X61233055Y-147721514D01*
X61305103Y-147484003D01*
X61329431Y-147237000D01*
X61305103Y-146989997D01*
X61233055Y-146752486D01*
X61116055Y-146533595D01*
X60958600Y-146341735D01*
X60766740Y-146184280D01*
X60547849Y-146067280D01*
X60310338Y-145995232D01*
X60125228Y-145977000D01*
X59973335Y-145977000D01*
X59973335Y-144834319D01*
X59981370Y-144915897D01*
X60026257Y-145063870D01*
X60099149Y-145200243D01*
X60197247Y-145319775D01*
X60227201Y-145344358D01*
X61227886Y-146345043D01*
X61213904Y-146487000D01*
X61238232Y-146734003D01*
X61310280Y-146971514D01*
X61427280Y-147190405D01*
X61584735Y-147382265D01*
X61712355Y-147487000D01*
X61584735Y-147591735D01*
X61427280Y-147783595D01*
X61310280Y-148002486D01*
X61238232Y-148239997D01*
X61213904Y-148487000D01*
X61238232Y-148734003D01*
X61310280Y-148971514D01*
X61427280Y-149190405D01*
X61584735Y-149382265D01*
X61710619Y-149485575D01*
X61674385Y-149509906D01*
X61499243Y-149685848D01*
X61361791Y-149892578D01*
X61267311Y-150122151D01*
X61261718Y-150165460D01*
X61386098Y-150360000D01*
X63228000Y-150360000D01*
X63228000Y-150340000D01*
X63482000Y-150340000D01*
X63482000Y-150360000D01*
X65323902Y-150360000D01*
X65448282Y-150165460D01*
X65442689Y-150122151D01*
X65348209Y-149892578D01*
X65210757Y-149685848D01*
X65035615Y-149509906D01*
X64999381Y-149485575D01*
X65125265Y-149382265D01*
X65282720Y-149190405D01*
X65399720Y-148971514D01*
X65471768Y-148734003D01*
X65496096Y-148487000D01*
X65482114Y-148345043D01*
X66232817Y-147594341D01*
X66262764Y-147569764D01*
X66288128Y-147538859D01*
X66321030Y-147498768D01*
X66360862Y-147450233D01*
X66433754Y-147313860D01*
X66478641Y-147165887D01*
X66490000Y-147050561D01*
X66490000Y-147050554D01*
X66493797Y-147012001D01*
X66490000Y-146973448D01*
X66490000Y-145657132D01*
X66586612Y-145560520D01*
X66710824Y-145374624D01*
X66720775Y-145350601D01*
X67935013Y-146564839D01*
X67959591Y-146594787D01*
X67989539Y-146619365D01*
X67989542Y-146619368D01*
X68011026Y-146636999D01*
X68079122Y-146692885D01*
X68215495Y-146765777D01*
X68363468Y-146810664D01*
X68478794Y-146822023D01*
X68478801Y-146822023D01*
X68517354Y-146825820D01*
X68555907Y-146822023D01*
X68666348Y-146822023D01*
X68788601Y-146887368D01*
X68826179Y-146898767D01*
X68936575Y-146932256D01*
X69003623Y-146938859D01*
X69051900Y-146943614D01*
X69051906Y-146943614D01*
X69090461Y-146947411D01*
X69129017Y-146943614D01*
X72501457Y-146943614D01*
X72570000Y-147012157D01*
X72570000Y-147148788D01*
X72613617Y-147368067D01*
X72699176Y-147574624D01*
X72823388Y-147760520D01*
X72981480Y-147918612D01*
X73167376Y-148042824D01*
X73373933Y-148128383D01*
X73593212Y-148172000D01*
X73816788Y-148172000D01*
X74036067Y-148128383D01*
X74242624Y-148042824D01*
X74428520Y-147918612D01*
X74586612Y-147760520D01*
X74710824Y-147574624D01*
X74796383Y-147368067D01*
X74840000Y-147148788D01*
X74840000Y-146925212D01*
X74825059Y-146850100D01*
X74842624Y-146842824D01*
X75028520Y-146718612D01*
X75186612Y-146560520D01*
X75310824Y-146374624D01*
X75382299Y-146202068D01*
X75401539Y-146202068D01*
X75620818Y-146158451D01*
X75827375Y-146072892D01*
X76013271Y-145948680D01*
X76171363Y-145790588D01*
X76209785Y-145733086D01*
X76341591Y-145787682D01*
X76560870Y-145831299D01*
X76784446Y-145831299D01*
X77003725Y-145787682D01*
X77210282Y-145702123D01*
X77396178Y-145577911D01*
X77554270Y-145419819D01*
X77678482Y-145233923D01*
X77764041Y-145027366D01*
X77807658Y-144808087D01*
X77807658Y-144584511D01*
X77764041Y-144365232D01*
X77678482Y-144158675D01*
X77656123Y-144125212D01*
X96594982Y-144125212D01*
X96594982Y-144348788D01*
X96638599Y-144568067D01*
X96724158Y-144774624D01*
X96848370Y-144960520D01*
X97006462Y-145118612D01*
X97192358Y-145242824D01*
X97398915Y-145328383D01*
X97618194Y-145372000D01*
X97841770Y-145372000D01*
X98061049Y-145328383D01*
X98267606Y-145242824D01*
X98453502Y-145118612D01*
X98462114Y-145110000D01*
X99811320Y-145110000D01*
X99811320Y-141760750D01*
X99652570Y-141602000D01*
X98938320Y-141598928D01*
X98813838Y-141611188D01*
X98694140Y-141647498D01*
X98583826Y-141706463D01*
X98487135Y-141785815D01*
X98407783Y-141882506D01*
X98348818Y-141992820D01*
X98312508Y-142112518D01*
X98300248Y-142237000D01*
X98301399Y-143253756D01*
X98267606Y-143231176D01*
X98061049Y-143145617D01*
X97841770Y-143102000D01*
X97618194Y-143102000D01*
X97398915Y-143145617D01*
X97192358Y-143231176D01*
X97006462Y-143355388D01*
X96848370Y-143513480D01*
X96724158Y-143699376D01*
X96638599Y-143905933D01*
X96594982Y-144125212D01*
X77656123Y-144125212D01*
X77554270Y-143972779D01*
X77396178Y-143814687D01*
X77210282Y-143690475D01*
X77003725Y-143604916D01*
X76921853Y-143588631D01*
X76960537Y-143541494D01*
X77019502Y-143431180D01*
X77055812Y-143311482D01*
X77068072Y-143187000D01*
X77068072Y-141687000D01*
X77055812Y-141562518D01*
X77019502Y-141442820D01*
X76960537Y-141332506D01*
X76881185Y-141235815D01*
X76784494Y-141156463D01*
X76674180Y-141097498D01*
X76554482Y-141061188D01*
X76430000Y-141048928D01*
X75280000Y-141048928D01*
X75156173Y-141061059D01*
X75130065Y-141068949D01*
X75104482Y-141061188D01*
X74980000Y-141048928D01*
X73980000Y-141048928D01*
X73855518Y-141061188D01*
X73735820Y-141097498D01*
X73625506Y-141156463D01*
X73528815Y-141235815D01*
X73449463Y-141332506D01*
X73390498Y-141442820D01*
X73354188Y-141562518D01*
X73341928Y-141687000D01*
X73341928Y-142464914D01*
X72654843Y-143152000D01*
X70325132Y-143152000D01*
X70228520Y-143055388D01*
X70042624Y-142931176D01*
X69836067Y-142845617D01*
X69616788Y-142802000D01*
X69393212Y-142802000D01*
X69173933Y-142845617D01*
X69070376Y-142888512D01*
X69062763Y-142879235D01*
X69032816Y-142854658D01*
X65687326Y-139509169D01*
X65662743Y-139479215D01*
X65595536Y-139424059D01*
X313373336Y-139424059D01*
X313382588Y-139425639D01*
X313440673Y-139424059D01*
X313465048Y-139424059D01*
X313474348Y-139423143D01*
X313517471Y-139421970D01*
X313541329Y-139416546D01*
X313565684Y-139414147D01*
X313606982Y-139401619D01*
X313649046Y-139392056D01*
X313671384Y-139382083D01*
X313694807Y-139374978D01*
X313732868Y-139354634D01*
X313772257Y-139337049D01*
X313792220Y-139322910D01*
X313813808Y-139311371D01*
X313847173Y-139283989D01*
X313882370Y-139259060D01*
X313899191Y-139241298D01*
X313918112Y-139225770D01*
X313945492Y-139192408D01*
X313975152Y-139161089D01*
X313988184Y-139140387D01*
X314003713Y-139121466D01*
X314024056Y-139083406D01*
X314029026Y-139075512D01*
X314039909Y-139053748D01*
X314067320Y-139002465D01*
X314070046Y-138993478D01*
X314135484Y-138862613D01*
X314296421Y-138701676D01*
X316320893Y-138703754D01*
X316283460Y-138710147D01*
X316258374Y-138719747D01*
X316232345Y-138726312D01*
X316195532Y-138743796D01*
X316189016Y-138746290D01*
X316165050Y-138758274D01*
X316110461Y-138784201D01*
X316104852Y-138788375D01*
X315575891Y-139052875D01*
X315566901Y-139055602D01*
X315515610Y-139083018D01*
X315493855Y-139093896D01*
X315485961Y-139098865D01*
X315447901Y-139119209D01*
X315428982Y-139134735D01*
X315408278Y-139147769D01*
X315376957Y-139177431D01*
X315369731Y-139183361D01*
X315352496Y-139200596D01*
X315310306Y-139240551D01*
X315304880Y-139248212D01*
X314893100Y-139659992D01*
X314885432Y-139665423D01*
X314845457Y-139707635D01*
X314828250Y-139724842D01*
X314822326Y-139732061D01*
X314792651Y-139763396D01*
X314779617Y-139784101D01*
X314764098Y-139803011D01*
X314743757Y-139841066D01*
X314738779Y-139848974D01*
X314727891Y-139870750D01*
X314700491Y-139922011D01*
X314697763Y-139931003D01*
X314433262Y-140459989D01*
X314429079Y-140465610D01*
X314403124Y-140520262D01*
X314391175Y-140544160D01*
X314388685Y-140550666D01*
X314371194Y-140587497D01*
X314364629Y-140613531D01*
X314355034Y-140638604D01*
X314348171Y-140678795D01*
X314346467Y-140685550D01*
X314342503Y-140711982D01*
X314332320Y-140771612D01*
X314332511Y-140778614D01*
X314246316Y-141353379D01*
X313890000Y-140997063D01*
X313890000Y-140475556D01*
X313893797Y-140437000D01*
X313890000Y-140398444D01*
X313890000Y-140398439D01*
X313885760Y-140355386D01*
X313878642Y-140283113D01*
X313837885Y-140148758D01*
X313833754Y-140135140D01*
X313760862Y-139998767D01*
X313662764Y-139879236D01*
X313632806Y-139854650D01*
X313487348Y-139709191D01*
X313462764Y-139679236D01*
X313343233Y-139581138D01*
X313206860Y-139508246D01*
X313058887Y-139463359D01*
X312943561Y-139452000D01*
X312943553Y-139452000D01*
X312905000Y-139448203D01*
X312866447Y-139452000D01*
X303848214Y-139452000D01*
X303809661Y-139448203D01*
X303771108Y-139452000D01*
X303771101Y-139452000D01*
X303670152Y-139461943D01*
X303655774Y-139463359D01*
X303507802Y-139508246D01*
X303371429Y-139581138D01*
X303339980Y-139606948D01*
X303281849Y-139654655D01*
X303281846Y-139654658D01*
X303251898Y-139679236D01*
X303227320Y-139709184D01*
X298996782Y-143939723D01*
X298860151Y-143939723D01*
X298640872Y-143983340D01*
X298434315Y-144068899D01*
X298248419Y-144193111D01*
X298090327Y-144351203D01*
X298064757Y-144389471D01*
X297815000Y-144139714D01*
X297815000Y-143154683D01*
X297884494Y-143117537D01*
X297981185Y-143038185D01*
X298060537Y-142941494D01*
X298119502Y-142831180D01*
X298155812Y-142711482D01*
X298168072Y-142587000D01*
X298168072Y-141087000D01*
X298155812Y-140962518D01*
X298119502Y-140842820D01*
X298060537Y-140732506D01*
X297981185Y-140635815D01*
X297884494Y-140556463D01*
X297774180Y-140497498D01*
X297654482Y-140461188D01*
X297530000Y-140448928D01*
X296530000Y-140448928D01*
X296404864Y-140461319D01*
X296379936Y-140468909D01*
X296354482Y-140461188D01*
X296230000Y-140448928D01*
X295080000Y-140448928D01*
X294955518Y-140461188D01*
X294835820Y-140497498D01*
X294725506Y-140556463D01*
X294628815Y-140635815D01*
X294549463Y-140732506D01*
X294490498Y-140842820D01*
X294454188Y-140962518D01*
X294441928Y-141087000D01*
X294441928Y-142587000D01*
X294454188Y-142711482D01*
X294490498Y-142831180D01*
X294549463Y-142941494D01*
X294628815Y-143038185D01*
X294725506Y-143117537D01*
X294795001Y-143154683D01*
X294795001Y-144272272D01*
X294791203Y-144310835D01*
X294806359Y-144464721D01*
X294851246Y-144612694D01*
X294856695Y-144622888D01*
X294924139Y-144749068D01*
X294945113Y-144774624D01*
X294997655Y-144838647D01*
X294997659Y-144838651D01*
X295022237Y-144868599D01*
X295052185Y-144893177D01*
X296260966Y-146101959D01*
X296260966Y-146238589D01*
X296304583Y-146457868D01*
X296390142Y-146664425D01*
X296502928Y-146833221D01*
X296502312Y-146834144D01*
X296416753Y-147040701D01*
X296373136Y-147259980D01*
X296373136Y-147483556D01*
X296416753Y-147702835D01*
X296502312Y-147909392D01*
X296626524Y-148095288D01*
X296784616Y-148253380D01*
X296970512Y-148377592D01*
X297177069Y-148463151D01*
X297396348Y-148506768D01*
X297601424Y-148506768D01*
X297613617Y-148568067D01*
X297699176Y-148774624D01*
X297823388Y-148960520D01*
X297981480Y-149118612D01*
X298167376Y-149242824D01*
X298373933Y-149328383D01*
X298593212Y-149372000D01*
X298816788Y-149372000D01*
X299036067Y-149328383D01*
X299242624Y-149242824D01*
X299428520Y-149118612D01*
X299533268Y-149013864D01*
X299565993Y-149010641D01*
X299713966Y-148965754D01*
X299850339Y-148892862D01*
X299969870Y-148794764D01*
X299994453Y-148764811D01*
X300612540Y-148146723D01*
X300642488Y-148122146D01*
X300740586Y-148002615D01*
X300813478Y-147866242D01*
X300855621Y-147727314D01*
X300858365Y-147718270D01*
X300860226Y-147699376D01*
X300869724Y-147602943D01*
X300869724Y-147602936D01*
X300873521Y-147564383D01*
X300869724Y-147525830D01*
X300869724Y-147182433D01*
X303930158Y-144122000D01*
X309189614Y-144122000D01*
X309153820Y-144239997D01*
X309129492Y-144487000D01*
X309153820Y-144734003D01*
X309225868Y-144971514D01*
X309342868Y-145190405D01*
X309500323Y-145382265D01*
X309627943Y-145487000D01*
X309500323Y-145591735D01*
X309409831Y-145702000D01*
X307448613Y-145702000D01*
X307342618Y-145631176D01*
X307136061Y-145545617D01*
X306916782Y-145502000D01*
X306693206Y-145502000D01*
X306473927Y-145545617D01*
X306267370Y-145631176D01*
X306081474Y-145755388D01*
X305923382Y-145913480D01*
X305799170Y-146099376D01*
X305713611Y-146305933D01*
X305669994Y-146525212D01*
X305669994Y-146748788D01*
X305713611Y-146968067D01*
X305799170Y-147174624D01*
X305923382Y-147360520D01*
X306081474Y-147518612D01*
X306267370Y-147642824D01*
X306473927Y-147728383D01*
X306693206Y-147772000D01*
X306916782Y-147772000D01*
X307136061Y-147728383D01*
X307342618Y-147642824D01*
X307528514Y-147518612D01*
X307686606Y-147360520D01*
X307745753Y-147272000D01*
X309409831Y-147272000D01*
X309500323Y-147382265D01*
X309627943Y-147487000D01*
X309500323Y-147591735D01*
X309342868Y-147783595D01*
X309225868Y-148002486D01*
X309153820Y-148239997D01*
X309129492Y-148487000D01*
X309153820Y-148734003D01*
X309225868Y-148971514D01*
X309342868Y-149190405D01*
X309500323Y-149382265D01*
X309626207Y-149485575D01*
X309589973Y-149509906D01*
X309414831Y-149685848D01*
X309277379Y-149892578D01*
X309182899Y-150122151D01*
X309177306Y-150165460D01*
X309301686Y-150360000D01*
X311143588Y-150360000D01*
X311143588Y-150340000D01*
X311397588Y-150340000D01*
X311397588Y-150360000D01*
X313239490Y-150360000D01*
X313363870Y-150165460D01*
X313358277Y-150122151D01*
X313263797Y-149892578D01*
X313126345Y-149685848D01*
X312951203Y-149509906D01*
X312914969Y-149485575D01*
X313040853Y-149382265D01*
X313198308Y-149190405D01*
X313315308Y-148971514D01*
X313387356Y-148734003D01*
X313411684Y-148487000D01*
X313387356Y-148239997D01*
X313315308Y-148002486D01*
X313198308Y-147783595D01*
X313040853Y-147591735D01*
X312913233Y-147487000D01*
X313040853Y-147382265D01*
X313133297Y-147269622D01*
X313224475Y-147260641D01*
X313296324Y-147238846D01*
X313320470Y-147484003D01*
X313392518Y-147721514D01*
X313509518Y-147940405D01*
X313666973Y-148132265D01*
X313794593Y-148237000D01*
X313666973Y-148341735D01*
X313509518Y-148533595D01*
X313392518Y-148752486D01*
X313320470Y-148989997D01*
X313296142Y-149237000D01*
X313320470Y-149484003D01*
X313392518Y-149721514D01*
X313509518Y-149940405D01*
X313666973Y-150132265D01*
X313858833Y-150289720D01*
X314077724Y-150406720D01*
X314315235Y-150478768D01*
X314500345Y-150497000D01*
X316374131Y-150497000D01*
X316559241Y-150478768D01*
X316796752Y-150406720D01*
X317015643Y-150289720D01*
X317207503Y-150132265D01*
X317364958Y-149940405D01*
X317481958Y-149721514D01*
X317554006Y-149484003D01*
X317578334Y-149237000D01*
X317564352Y-149095043D01*
X317865065Y-148794331D01*
X317895012Y-148769754D01*
X317920369Y-148738858D01*
X317961955Y-148688185D01*
X317993110Y-148650223D01*
X318066002Y-148513850D01*
X318110889Y-148365877D01*
X318122248Y-148250551D01*
X318122248Y-148250544D01*
X318126045Y-148211991D01*
X318122248Y-148173438D01*
X318122248Y-145197969D01*
X318126045Y-145159413D01*
X318122248Y-145120857D01*
X318122248Y-145120852D01*
X318117049Y-145068070D01*
X318110890Y-145005526D01*
X318066002Y-144857553D01*
X318055897Y-144838647D01*
X317993110Y-144721180D01*
X317895012Y-144601649D01*
X317865058Y-144577066D01*
X317756748Y-144468756D01*
X320119487Y-144468756D01*
X320136790Y-144471294D01*
X320186803Y-144468756D01*
X320203095Y-144468756D01*
X320220410Y-144467051D01*
X320237782Y-144466169D01*
X320253887Y-144463753D01*
X320303731Y-144458844D01*
X320320471Y-144453766D01*
X320916812Y-144364318D01*
X320923797Y-144364508D01*
X320983444Y-144354323D01*
X321009887Y-144350357D01*
X321016624Y-144348658D01*
X321056805Y-144341797D01*
X321081896Y-144332195D01*
X321107939Y-144325627D01*
X321144758Y-144308140D01*
X321151249Y-144305656D01*
X321175158Y-144293702D01*
X321229824Y-144267738D01*
X321235433Y-144263564D01*
X321764427Y-143999066D01*
X321773425Y-143996337D01*
X321824702Y-143968929D01*
X321846456Y-143958052D01*
X321854359Y-143953077D01*
X321892426Y-143932730D01*
X321911336Y-143917210D01*
X321932035Y-143904181D01*
X321963371Y-143874507D01*
X321970595Y-143868578D01*
X321987804Y-143851369D01*
X322030009Y-143811402D01*
X322035442Y-143803731D01*
X322447232Y-143391943D01*
X322454895Y-143386516D01*
X322494836Y-143344340D01*
X322512078Y-143327098D01*
X322518014Y-143319865D01*
X322547676Y-143288543D01*
X322560707Y-143267843D01*
X322576229Y-143248929D01*
X322596572Y-143210869D01*
X322601548Y-143202965D01*
X322612434Y-143181194D01*
X322639836Y-143129928D01*
X322642563Y-143120937D01*
X322907062Y-142591960D01*
X322911228Y-142586362D01*
X322937172Y-142531741D01*
X322949153Y-142507781D01*
X322951639Y-142501286D01*
X322969121Y-142464480D01*
X322975693Y-142438428D01*
X322985294Y-142413337D01*
X322992153Y-142373170D01*
X322993854Y-142366428D01*
X322997826Y-142339955D01*
X323008008Y-142280329D01*
X323007818Y-142273349D01*
X323094857Y-141693184D01*
X323095238Y-141692112D01*
X323104819Y-141626778D01*
X323109688Y-141594323D01*
X323109746Y-141593180D01*
X323114816Y-141558607D01*
X323113159Y-141525969D01*
X323114816Y-141493331D01*
X323109746Y-141458759D01*
X323109688Y-141457614D01*
X323104816Y-141425141D01*
X323095238Y-141359825D01*
X323094857Y-141358753D01*
X323007818Y-140778590D01*
X323008008Y-140771610D01*
X322997826Y-140711985D01*
X322993854Y-140685511D01*
X322992153Y-140678769D01*
X322985294Y-140638602D01*
X322975693Y-140613511D01*
X322969121Y-140587459D01*
X322951639Y-140550653D01*
X322949153Y-140544158D01*
X322937172Y-140520198D01*
X322911228Y-140465577D01*
X322907062Y-140459979D01*
X322642563Y-139931002D01*
X322639836Y-139922011D01*
X322612434Y-139870745D01*
X322601548Y-139848974D01*
X322596572Y-139841070D01*
X322576229Y-139803010D01*
X322560707Y-139784096D01*
X322547676Y-139763396D01*
X322518014Y-139732074D01*
X322512078Y-139724841D01*
X322494836Y-139707599D01*
X322454895Y-139665423D01*
X322447232Y-139659996D01*
X322035442Y-139248208D01*
X322030009Y-139240537D01*
X321987804Y-139200570D01*
X321970595Y-139183361D01*
X321963371Y-139177432D01*
X321932035Y-139147758D01*
X321911336Y-139134729D01*
X321892426Y-139119209D01*
X321854359Y-139098862D01*
X321846456Y-139093887D01*
X321824702Y-139083010D01*
X321773425Y-139055602D01*
X321764427Y-139052873D01*
X321235433Y-138788375D01*
X321229824Y-138784201D01*
X321175158Y-138758237D01*
X321151249Y-138746283D01*
X321144758Y-138743799D01*
X321107939Y-138726312D01*
X321081896Y-138719744D01*
X321056805Y-138710142D01*
X321047805Y-138708605D01*
X322982259Y-138710590D01*
X323134288Y-138862633D01*
X323199754Y-138993516D01*
X323202469Y-139002465D01*
X323229906Y-139053796D01*
X323240805Y-139075586D01*
X323245751Y-139083441D01*
X323266076Y-139121466D01*
X323281632Y-139140420D01*
X323294689Y-139161156D01*
X323324325Y-139192442D01*
X323351677Y-139225770D01*
X323370629Y-139241324D01*
X323387483Y-139259116D01*
X323422651Y-139284017D01*
X323455981Y-139311371D01*
X323477607Y-139322930D01*
X323497606Y-139337091D01*
X323536957Y-139354653D01*
X323574982Y-139374978D01*
X323598446Y-139382096D01*
X323620824Y-139392083D01*
X323662845Y-139401631D01*
X323704105Y-139414147D01*
X323728506Y-139416550D01*
X323752402Y-139421980D01*
X323795477Y-139423147D01*
X323804741Y-139424059D01*
X323829168Y-139424059D01*
X323887287Y-139425633D01*
X323896496Y-139424059D01*
X324099170Y-139424059D01*
X324576660Y-139503636D01*
X324949536Y-139690074D01*
X325250926Y-139991479D01*
X325437392Y-140364380D01*
X325516983Y-140841850D01*
X325516982Y-151106816D01*
X313246913Y-151106816D01*
X313263797Y-151081422D01*
X313358277Y-150851849D01*
X313363870Y-150808540D01*
X313239490Y-150614000D01*
X311397588Y-150614000D01*
X311397588Y-150634000D01*
X311143588Y-150634000D01*
X311143588Y-150614000D01*
X309301686Y-150614000D01*
X309177306Y-150808540D01*
X309182899Y-150851849D01*
X309277379Y-151081422D01*
X309294263Y-151106816D01*
X291108856Y-151106816D01*
X291232013Y-150922499D01*
X291317572Y-150715942D01*
X291361189Y-150496663D01*
X291361189Y-150273087D01*
X291317572Y-150053808D01*
X291232013Y-149847251D01*
X291157648Y-149735956D01*
X291199779Y-149672903D01*
X291285338Y-149466346D01*
X291328955Y-149247067D01*
X291328955Y-149023491D01*
X291285338Y-148804212D01*
X291199779Y-148597655D01*
X291162096Y-148541258D01*
X291240738Y-148423562D01*
X291326297Y-148217005D01*
X291369914Y-147997726D01*
X291369914Y-147774150D01*
X291326297Y-147554871D01*
X291240738Y-147348314D01*
X291180705Y-147258469D01*
X291237443Y-147173555D01*
X291323002Y-146966998D01*
X291366619Y-146747719D01*
X291366619Y-146524143D01*
X291323002Y-146304864D01*
X291237443Y-146098307D01*
X291113231Y-145912411D01*
X290955139Y-145754319D01*
X290769243Y-145630107D01*
X290562686Y-145544548D01*
X290343407Y-145500931D01*
X290119831Y-145500931D01*
X289900552Y-145544548D01*
X289693995Y-145630107D01*
X289508099Y-145754319D01*
X289411487Y-145850931D01*
X289406110Y-145850931D01*
X289367557Y-145847134D01*
X289329004Y-145850931D01*
X289328997Y-145850931D01*
X289236830Y-145860009D01*
X289213670Y-145862290D01*
X289192098Y-145868834D01*
X289065698Y-145907177D01*
X288929325Y-145980069D01*
X288873605Y-146025798D01*
X288839745Y-146053586D01*
X288839742Y-146053589D01*
X288809794Y-146078167D01*
X288785216Y-146108115D01*
X286491320Y-148402012D01*
X275890524Y-148402012D01*
X275904585Y-148368067D01*
X275948202Y-148148788D01*
X275948202Y-147925212D01*
X275904585Y-147705933D01*
X275819026Y-147499376D01*
X275767325Y-147422000D01*
X280318200Y-147422000D01*
X280414812Y-147518612D01*
X280600708Y-147642824D01*
X280807265Y-147728383D01*
X281026544Y-147772000D01*
X281250120Y-147772000D01*
X281469399Y-147728383D01*
X281675956Y-147642824D01*
X281861852Y-147518612D01*
X282019944Y-147360520D01*
X282144156Y-147174624D01*
X282229715Y-146968067D01*
X282273332Y-146748788D01*
X282273332Y-146525212D01*
X282229715Y-146305933D01*
X282144156Y-146099376D01*
X282019944Y-145913480D01*
X281861852Y-145755388D01*
X281675956Y-145631176D01*
X281469399Y-145545617D01*
X281250120Y-145502000D01*
X281026544Y-145502000D01*
X280807265Y-145545617D01*
X280600708Y-145631176D01*
X280414812Y-145755388D01*
X280318200Y-145852000D01*
X275625132Y-145852000D01*
X275528520Y-145755388D01*
X275342624Y-145631176D01*
X275136067Y-145545617D01*
X274916788Y-145502000D01*
X274693212Y-145502000D01*
X274473933Y-145545617D01*
X274267376Y-145631176D01*
X274240063Y-145649426D01*
X274239920Y-145522750D01*
X274081170Y-145364000D01*
X272731920Y-145364000D01*
X272731920Y-145384000D01*
X272477920Y-145384000D01*
X272477920Y-145364000D01*
X272457920Y-145364000D01*
X272457920Y-145110000D01*
X272477920Y-145110000D01*
X272477920Y-141760750D01*
X272731920Y-141760750D01*
X272731920Y-145110000D01*
X274081170Y-145110000D01*
X274239920Y-144951250D01*
X274240968Y-144025212D01*
X280870000Y-144025212D01*
X280870000Y-144248788D01*
X280913617Y-144468067D01*
X280999176Y-144674624D01*
X281123388Y-144860520D01*
X281281480Y-145018612D01*
X281467376Y-145142824D01*
X281673933Y-145228383D01*
X281893212Y-145272000D01*
X282116788Y-145272000D01*
X282336067Y-145228383D01*
X282542624Y-145142824D01*
X282728520Y-145018612D01*
X282886612Y-144860520D01*
X282977022Y-144725212D01*
X285270000Y-144725212D01*
X285270000Y-144948788D01*
X285313617Y-145168067D01*
X285399176Y-145374624D01*
X285523388Y-145560520D01*
X285681480Y-145718612D01*
X285867376Y-145842824D01*
X286073933Y-145928383D01*
X286293212Y-145972000D01*
X286516788Y-145972000D01*
X286736067Y-145928383D01*
X286942624Y-145842824D01*
X287128520Y-145718612D01*
X287286612Y-145560520D01*
X287410824Y-145374624D01*
X287496383Y-145168067D01*
X287540000Y-144948788D01*
X287540000Y-144725212D01*
X287496383Y-144505933D01*
X287410824Y-144299376D01*
X287286612Y-144113480D01*
X287128520Y-143955388D01*
X286942624Y-143831176D01*
X286736067Y-143745617D01*
X286516788Y-143702000D01*
X286293212Y-143702000D01*
X286073933Y-143745617D01*
X285867376Y-143831176D01*
X285681480Y-143955388D01*
X285523388Y-144113480D01*
X285399176Y-144299376D01*
X285313617Y-144505933D01*
X285270000Y-144725212D01*
X282977022Y-144725212D01*
X283010824Y-144674624D01*
X283096383Y-144468067D01*
X283140000Y-144248788D01*
X283140000Y-144025212D01*
X283096383Y-143805933D01*
X283010824Y-143599376D01*
X282886612Y-143413480D01*
X282728520Y-143255388D01*
X282542624Y-143131176D01*
X282336067Y-143045617D01*
X282116788Y-143002000D01*
X281893212Y-143002000D01*
X281673933Y-143045617D01*
X281467376Y-143131176D01*
X281281480Y-143255388D01*
X281123388Y-143413480D01*
X280999176Y-143599376D01*
X280913617Y-143805933D01*
X280870000Y-144025212D01*
X274240968Y-144025212D01*
X274242992Y-142237000D01*
X274230732Y-142112518D01*
X274194422Y-141992820D01*
X274135457Y-141882506D01*
X274056105Y-141785815D01*
X273959414Y-141706463D01*
X273849100Y-141647498D01*
X273729402Y-141611188D01*
X273604920Y-141598928D01*
X272890670Y-141602000D01*
X272731920Y-141760750D01*
X272477920Y-141760750D01*
X272319170Y-141602000D01*
X271604920Y-141598928D01*
X271480438Y-141611188D01*
X271360740Y-141647498D01*
X271250426Y-141706463D01*
X271153735Y-141785815D01*
X271104920Y-141845296D01*
X271056105Y-141785815D01*
X270959414Y-141706463D01*
X270849100Y-141647498D01*
X270729402Y-141611188D01*
X270680501Y-141606372D01*
X270696367Y-141568067D01*
X270739984Y-141348788D01*
X270739984Y-141125212D01*
X270696367Y-140905933D01*
X270610808Y-140699376D01*
X270486596Y-140513480D01*
X270328504Y-140355388D01*
X270142608Y-140231176D01*
X269936051Y-140145617D01*
X269716772Y-140102000D01*
X269493196Y-140102000D01*
X269273917Y-140145617D01*
X269067360Y-140231176D01*
X268881464Y-140355388D01*
X268723372Y-140513480D01*
X268599160Y-140699376D01*
X268513601Y-140905933D01*
X268469984Y-141125212D01*
X268469984Y-141348788D01*
X268513601Y-141568067D01*
X268529462Y-141606360D01*
X268480438Y-141611188D01*
X268360740Y-141647498D01*
X268250426Y-141706463D01*
X268153735Y-141785815D01*
X268104920Y-141845296D01*
X268056105Y-141785815D01*
X267959414Y-141706463D01*
X267849100Y-141647498D01*
X267729402Y-141611188D01*
X267604920Y-141598928D01*
X266890670Y-141602000D01*
X266731920Y-141760750D01*
X266731920Y-145110000D01*
X266751920Y-145110000D01*
X266751920Y-145364000D01*
X266731920Y-145364000D01*
X266731920Y-145384000D01*
X266477920Y-145384000D01*
X266477920Y-145364000D01*
X265128670Y-145364000D01*
X264969920Y-145522750D01*
X264969816Y-145614853D01*
X264802667Y-145545617D01*
X264583388Y-145502000D01*
X264359812Y-145502000D01*
X264140533Y-145545617D01*
X263933976Y-145631176D01*
X263748080Y-145755388D01*
X263651468Y-145852000D01*
X258812348Y-145852000D01*
X258786610Y-145813480D01*
X258628518Y-145655388D01*
X258442622Y-145531176D01*
X258236065Y-145445617D01*
X258016786Y-145402000D01*
X257793210Y-145402000D01*
X257573931Y-145445617D01*
X257518915Y-145468405D01*
X257414510Y-145364000D01*
X256065260Y-145364000D01*
X256065260Y-145384000D01*
X255811260Y-145384000D01*
X255811260Y-145364000D01*
X255791260Y-145364000D01*
X255791260Y-145110000D01*
X255811260Y-145110000D01*
X255811260Y-141760750D01*
X256065260Y-141760750D01*
X256065260Y-145110000D01*
X257414510Y-145110000D01*
X257573260Y-144951250D01*
X257574308Y-144025212D01*
X263261542Y-144025212D01*
X263261542Y-144248788D01*
X263305159Y-144468067D01*
X263390718Y-144674624D01*
X263514930Y-144860520D01*
X263673022Y-145018612D01*
X263858918Y-145142824D01*
X264065475Y-145228383D01*
X264284754Y-145272000D01*
X264508330Y-145272000D01*
X264727609Y-145228383D01*
X264934166Y-145142824D01*
X265070439Y-145051769D01*
X265128670Y-145110000D01*
X266477920Y-145110000D01*
X266477920Y-141760750D01*
X266319170Y-141602000D01*
X265604920Y-141598928D01*
X265480438Y-141611188D01*
X265360740Y-141647498D01*
X265250426Y-141706463D01*
X265153735Y-141785815D01*
X265074383Y-141882506D01*
X265015418Y-141992820D01*
X264979108Y-142112518D01*
X264966848Y-142237000D01*
X264967886Y-143153707D01*
X264934166Y-143131176D01*
X264727609Y-143045617D01*
X264508330Y-143002000D01*
X264284754Y-143002000D01*
X264065475Y-143045617D01*
X263858918Y-143131176D01*
X263673022Y-143255388D01*
X263514930Y-143413480D01*
X263390718Y-143599376D01*
X263305159Y-143805933D01*
X263261542Y-144025212D01*
X257574308Y-144025212D01*
X257576332Y-142237000D01*
X257564072Y-142112518D01*
X257527762Y-141992820D01*
X257468797Y-141882506D01*
X257389445Y-141785815D01*
X257292754Y-141706463D01*
X257182440Y-141647498D01*
X257062742Y-141611188D01*
X256938260Y-141598928D01*
X256224010Y-141602000D01*
X256065260Y-141760750D01*
X255811260Y-141760750D01*
X255652510Y-141602000D01*
X254938260Y-141598928D01*
X254813778Y-141611188D01*
X254694080Y-141647498D01*
X254583766Y-141706463D01*
X254487075Y-141785815D01*
X254438260Y-141845296D01*
X254389445Y-141785815D01*
X254292754Y-141706463D01*
X254182440Y-141647498D01*
X254062742Y-141611188D01*
X254013835Y-141606371D01*
X254029701Y-141568067D01*
X254073318Y-141348788D01*
X254073318Y-141125212D01*
X254029701Y-140905933D01*
X253944142Y-140699376D01*
X253819930Y-140513480D01*
X253661838Y-140355388D01*
X253475942Y-140231176D01*
X253269385Y-140145617D01*
X253050106Y-140102000D01*
X252826530Y-140102000D01*
X252607251Y-140145617D01*
X252400694Y-140231176D01*
X252214798Y-140355388D01*
X252056706Y-140513480D01*
X251932494Y-140699376D01*
X251846935Y-140905933D01*
X251803318Y-141125212D01*
X251803318Y-141348788D01*
X251846935Y-141568067D01*
X251862797Y-141606360D01*
X251813778Y-141611188D01*
X251694080Y-141647498D01*
X251583766Y-141706463D01*
X251487075Y-141785815D01*
X251438260Y-141845296D01*
X251389445Y-141785815D01*
X251292754Y-141706463D01*
X251182440Y-141647498D01*
X251062742Y-141611188D01*
X250938260Y-141598928D01*
X250224010Y-141602000D01*
X250065260Y-141760750D01*
X250065260Y-145110000D01*
X250085260Y-145110000D01*
X250085260Y-145364000D01*
X250065260Y-145364000D01*
X250065260Y-145384000D01*
X249811260Y-145384000D01*
X249811260Y-145364000D01*
X249791260Y-145364000D01*
X249791260Y-145110000D01*
X249811260Y-145110000D01*
X249811260Y-141760750D01*
X249652510Y-141602000D01*
X248938260Y-141598928D01*
X248813778Y-141611188D01*
X248694080Y-141647498D01*
X248583766Y-141706463D01*
X248487075Y-141785815D01*
X248407723Y-141882506D01*
X248348758Y-141992820D01*
X248312448Y-142112518D01*
X248300188Y-142237000D01*
X248301679Y-143554007D01*
X248267510Y-143531176D01*
X248060953Y-143445617D01*
X247841674Y-143402000D01*
X247618098Y-143402000D01*
X247398819Y-143445617D01*
X247192262Y-143531176D01*
X247006366Y-143655388D01*
X246848274Y-143813480D01*
X246724062Y-143999376D01*
X246638503Y-144205933D01*
X246594886Y-144425212D01*
X246594886Y-144648788D01*
X246638503Y-144868067D01*
X246724062Y-145074624D01*
X246848274Y-145260520D01*
X247006366Y-145418612D01*
X247192262Y-145542824D01*
X247336469Y-145602557D01*
X247267376Y-145631176D01*
X247081480Y-145755388D01*
X246984868Y-145852000D01*
X242225132Y-145852000D01*
X242128520Y-145755388D01*
X241942624Y-145631176D01*
X241736067Y-145545617D01*
X241516788Y-145502000D01*
X241293212Y-145502000D01*
X241073933Y-145545617D01*
X240906704Y-145614886D01*
X240906600Y-145522750D01*
X240747850Y-145364000D01*
X239398600Y-145364000D01*
X239398600Y-145384000D01*
X239144600Y-145384000D01*
X239144600Y-145364000D01*
X239124600Y-145364000D01*
X239124600Y-145110000D01*
X239144600Y-145110000D01*
X239144600Y-141760750D01*
X239398600Y-141760750D01*
X239398600Y-145110000D01*
X240747850Y-145110000D01*
X240906600Y-144951250D01*
X240909672Y-142237000D01*
X240897412Y-142112518D01*
X240861102Y-141992820D01*
X240802137Y-141882506D01*
X240722785Y-141785815D01*
X240626094Y-141706463D01*
X240515780Y-141647498D01*
X240396082Y-141611188D01*
X240271600Y-141598928D01*
X239557350Y-141602000D01*
X239398600Y-141760750D01*
X239144600Y-141760750D01*
X238985850Y-141602000D01*
X238271600Y-141598928D01*
X238147118Y-141611188D01*
X238027420Y-141647498D01*
X237917106Y-141706463D01*
X237820415Y-141785815D01*
X237771600Y-141845296D01*
X237722785Y-141785815D01*
X237626094Y-141706463D01*
X237515780Y-141647498D01*
X237396082Y-141611188D01*
X237347169Y-141606371D01*
X237363035Y-141568067D01*
X237406652Y-141348788D01*
X237406652Y-141125212D01*
X237363035Y-140905933D01*
X237277476Y-140699376D01*
X237153264Y-140513480D01*
X236995172Y-140355388D01*
X236809276Y-140231176D01*
X236602719Y-140145617D01*
X236383440Y-140102000D01*
X236159864Y-140102000D01*
X235940585Y-140145617D01*
X235734028Y-140231176D01*
X235548132Y-140355388D01*
X235390040Y-140513480D01*
X235265828Y-140699376D01*
X235180269Y-140905933D01*
X235136652Y-141125212D01*
X235136652Y-141348788D01*
X235180269Y-141568067D01*
X235196131Y-141606361D01*
X235147118Y-141611188D01*
X235027420Y-141647498D01*
X234917106Y-141706463D01*
X234820415Y-141785815D01*
X234771600Y-141845296D01*
X234722785Y-141785815D01*
X234626094Y-141706463D01*
X234515780Y-141647498D01*
X234396082Y-141611188D01*
X234271600Y-141598928D01*
X233557350Y-141602000D01*
X233398600Y-141760750D01*
X233398600Y-145110000D01*
X233418600Y-145110000D01*
X233418600Y-145364000D01*
X233398600Y-145364000D01*
X233398600Y-145384000D01*
X233144600Y-145384000D01*
X233144600Y-145364000D01*
X233124600Y-145364000D01*
X233124600Y-145110000D01*
X233144600Y-145110000D01*
X233144600Y-141760750D01*
X232985850Y-141602000D01*
X232271600Y-141598928D01*
X232147118Y-141611188D01*
X232027420Y-141647498D01*
X231917106Y-141706463D01*
X231820415Y-141785815D01*
X231741063Y-141882506D01*
X231682098Y-141992820D01*
X231645788Y-142112518D01*
X231633528Y-142237000D01*
X231634792Y-143353853D01*
X231600854Y-143331176D01*
X231394297Y-143245617D01*
X231175018Y-143202000D01*
X230951442Y-143202000D01*
X230732163Y-143245617D01*
X230525606Y-143331176D01*
X230339710Y-143455388D01*
X230181618Y-143613480D01*
X230057406Y-143799376D01*
X229971847Y-144005933D01*
X229928230Y-144225212D01*
X229928230Y-144448788D01*
X229971847Y-144668067D01*
X230057406Y-144874624D01*
X230181618Y-145060520D01*
X230339710Y-145218612D01*
X230525606Y-145342824D01*
X230732163Y-145428383D01*
X230951442Y-145472000D01*
X231175018Y-145472000D01*
X231394297Y-145428383D01*
X231600854Y-145342824D01*
X231636600Y-145318939D01*
X231636600Y-145364002D01*
X231795348Y-145364002D01*
X231636600Y-145522750D01*
X231636496Y-145614830D01*
X231469401Y-145545617D01*
X231250122Y-145502000D01*
X231026546Y-145502000D01*
X230807267Y-145545617D01*
X230600710Y-145631176D01*
X230414814Y-145755388D01*
X230318202Y-145852000D01*
X225625132Y-145852000D01*
X225528520Y-145755388D01*
X225342624Y-145631176D01*
X225136067Y-145545617D01*
X224916788Y-145502000D01*
X224693212Y-145502000D01*
X224473933Y-145545617D01*
X224267376Y-145631176D01*
X224240083Y-145649412D01*
X224239940Y-145522750D01*
X224081190Y-145364000D01*
X222731940Y-145364000D01*
X222731940Y-145384000D01*
X222477940Y-145384000D01*
X222477940Y-145364000D01*
X222457940Y-145364000D01*
X222457940Y-145110000D01*
X222477940Y-145110000D01*
X222477940Y-141760750D01*
X222731940Y-141760750D01*
X222731940Y-145110000D01*
X224081190Y-145110000D01*
X224239940Y-144951250D01*
X224243012Y-142237000D01*
X224230752Y-142112518D01*
X224194442Y-141992820D01*
X224135477Y-141882506D01*
X224056125Y-141785815D01*
X223959434Y-141706463D01*
X223849120Y-141647498D01*
X223729422Y-141611188D01*
X223604940Y-141598928D01*
X222890690Y-141602000D01*
X222731940Y-141760750D01*
X222477940Y-141760750D01*
X222319190Y-141602000D01*
X221604940Y-141598928D01*
X221480458Y-141611188D01*
X221360760Y-141647498D01*
X221250446Y-141706463D01*
X221153755Y-141785815D01*
X221104940Y-141845296D01*
X221056125Y-141785815D01*
X220959434Y-141706463D01*
X220849120Y-141647498D01*
X220729422Y-141611188D01*
X220680503Y-141606370D01*
X220696369Y-141568067D01*
X220739986Y-141348788D01*
X220739986Y-141125212D01*
X220696369Y-140905933D01*
X220610810Y-140699376D01*
X220486598Y-140513480D01*
X220328506Y-140355388D01*
X220142610Y-140231176D01*
X219936053Y-140145617D01*
X219716774Y-140102000D01*
X219493198Y-140102000D01*
X219273919Y-140145617D01*
X219067362Y-140231176D01*
X218881466Y-140355388D01*
X218723374Y-140513480D01*
X218599162Y-140699376D01*
X218513603Y-140905933D01*
X218469986Y-141125212D01*
X218469986Y-141348788D01*
X218513603Y-141568067D01*
X218529465Y-141606361D01*
X218480458Y-141611188D01*
X218360760Y-141647498D01*
X218250446Y-141706463D01*
X218153755Y-141785815D01*
X218104940Y-141845296D01*
X218056125Y-141785815D01*
X217959434Y-141706463D01*
X217849120Y-141647498D01*
X217729422Y-141611188D01*
X217604940Y-141598928D01*
X216890690Y-141602000D01*
X216731940Y-141760750D01*
X216731940Y-145110000D01*
X216751940Y-145110000D01*
X216751940Y-145364000D01*
X216731940Y-145364000D01*
X216731940Y-145384000D01*
X216477940Y-145384000D01*
X216477940Y-145364000D01*
X215128690Y-145364000D01*
X214969940Y-145522750D01*
X214969891Y-145566051D01*
X214805712Y-145498046D01*
X214586433Y-145454429D01*
X214362857Y-145454429D01*
X214143578Y-145498046D01*
X213937021Y-145583605D01*
X213751125Y-145707817D01*
X213606942Y-145852000D01*
X209125132Y-145852000D01*
X209028520Y-145755388D01*
X208842624Y-145631176D01*
X208636067Y-145545617D01*
X208416788Y-145502000D01*
X208193212Y-145502000D01*
X207973933Y-145545617D01*
X207767376Y-145631176D01*
X207581480Y-145755388D01*
X207573552Y-145763316D01*
X207573280Y-145522750D01*
X207414530Y-145364000D01*
X206065280Y-145364000D01*
X206065280Y-145384000D01*
X205811280Y-145384000D01*
X205811280Y-145364000D01*
X205791280Y-145364000D01*
X205791280Y-145110000D01*
X205811280Y-145110000D01*
X205811280Y-141760750D01*
X206065280Y-141760750D01*
X206065280Y-145110000D01*
X207414530Y-145110000D01*
X207573280Y-144951250D01*
X207574328Y-144025212D01*
X213261574Y-144025212D01*
X213261574Y-144248788D01*
X213305191Y-144468067D01*
X213390750Y-144674624D01*
X213514962Y-144860520D01*
X213673054Y-145018612D01*
X213858950Y-145142824D01*
X214065507Y-145228383D01*
X214284786Y-145272000D01*
X214508362Y-145272000D01*
X214727641Y-145228383D01*
X214934198Y-145142824D01*
X215070464Y-145051774D01*
X215128690Y-145110000D01*
X216477940Y-145110000D01*
X216477940Y-141760750D01*
X216319190Y-141602000D01*
X215604940Y-141598928D01*
X215480458Y-141611188D01*
X215360760Y-141647498D01*
X215250446Y-141706463D01*
X215153755Y-141785815D01*
X215074403Y-141882506D01*
X215015438Y-141992820D01*
X214979128Y-142112518D01*
X214966868Y-142237000D01*
X214967906Y-143153699D01*
X214934198Y-143131176D01*
X214727641Y-143045617D01*
X214508362Y-143002000D01*
X214284786Y-143002000D01*
X214065507Y-143045617D01*
X213858950Y-143131176D01*
X213673054Y-143255388D01*
X213514962Y-143413480D01*
X213390750Y-143599376D01*
X213305191Y-143805933D01*
X213261574Y-144025212D01*
X207574328Y-144025212D01*
X207576352Y-142237000D01*
X207564092Y-142112518D01*
X207527782Y-141992820D01*
X207468817Y-141882506D01*
X207389465Y-141785815D01*
X207292774Y-141706463D01*
X207182460Y-141647498D01*
X207062762Y-141611188D01*
X206938280Y-141598928D01*
X206224030Y-141602000D01*
X206065280Y-141760750D01*
X205811280Y-141760750D01*
X205652530Y-141602000D01*
X204938280Y-141598928D01*
X204813798Y-141611188D01*
X204694100Y-141647498D01*
X204583786Y-141706463D01*
X204487095Y-141785815D01*
X204438280Y-141845296D01*
X204389465Y-141785815D01*
X204292774Y-141706463D01*
X204182460Y-141647498D01*
X204062762Y-141611188D01*
X204013838Y-141606370D01*
X204029703Y-141568067D01*
X204073320Y-141348788D01*
X204073320Y-141125212D01*
X204029703Y-140905933D01*
X203944144Y-140699376D01*
X203819932Y-140513480D01*
X203661840Y-140355388D01*
X203475944Y-140231176D01*
X203269387Y-140145617D01*
X203050108Y-140102000D01*
X202826532Y-140102000D01*
X202607253Y-140145617D01*
X202400696Y-140231176D01*
X202214800Y-140355388D01*
X202056708Y-140513480D01*
X201932496Y-140699376D01*
X201846937Y-140905933D01*
X201803320Y-141125212D01*
X201803320Y-141348788D01*
X201846937Y-141568067D01*
X201862799Y-141606362D01*
X201813798Y-141611188D01*
X201694100Y-141647498D01*
X201583786Y-141706463D01*
X201487095Y-141785815D01*
X201438280Y-141845296D01*
X201389465Y-141785815D01*
X201292774Y-141706463D01*
X201182460Y-141647498D01*
X201062762Y-141611188D01*
X200938280Y-141598928D01*
X200224030Y-141602000D01*
X200065280Y-141760750D01*
X200065280Y-145110000D01*
X200085280Y-145110000D01*
X200085280Y-145364000D01*
X200065280Y-145364000D01*
X200065280Y-145384000D01*
X199811280Y-145384000D01*
X199811280Y-145364000D01*
X198462030Y-145364000D01*
X198303280Y-145522750D01*
X198303176Y-145614835D01*
X198136069Y-145545617D01*
X197916790Y-145502000D01*
X197693214Y-145502000D01*
X197473935Y-145545617D01*
X197267378Y-145631176D01*
X197081482Y-145755388D01*
X196984870Y-145852000D01*
X192612350Y-145852000D01*
X192586612Y-145813480D01*
X192428520Y-145655388D01*
X192242624Y-145531176D01*
X192036067Y-145445617D01*
X191816788Y-145402000D01*
X191593212Y-145402000D01*
X191373933Y-145445617D01*
X191167376Y-145531176D01*
X190981480Y-145655388D01*
X190906855Y-145730013D01*
X190906620Y-145522750D01*
X190747870Y-145364000D01*
X189398620Y-145364000D01*
X189398620Y-145384000D01*
X189144620Y-145384000D01*
X189144620Y-145364000D01*
X189124620Y-145364000D01*
X189124620Y-145110000D01*
X189144620Y-145110000D01*
X189144620Y-141760750D01*
X189398620Y-141760750D01*
X189398620Y-145110000D01*
X190747870Y-145110000D01*
X190906620Y-144951250D01*
X190907554Y-144125212D01*
X196594918Y-144125212D01*
X196594918Y-144348788D01*
X196638535Y-144568067D01*
X196724094Y-144774624D01*
X196848306Y-144960520D01*
X197006398Y-145118612D01*
X197192294Y-145242824D01*
X197398851Y-145328383D01*
X197618130Y-145372000D01*
X197841706Y-145372000D01*
X198060985Y-145328383D01*
X198267542Y-145242824D01*
X198453438Y-145118612D01*
X198462050Y-145110000D01*
X199811280Y-145110000D01*
X199811280Y-141760750D01*
X199652530Y-141602000D01*
X198938280Y-141598928D01*
X198813798Y-141611188D01*
X198694100Y-141647498D01*
X198583786Y-141706463D01*
X198487095Y-141785815D01*
X198407743Y-141882506D01*
X198348778Y-141992820D01*
X198312468Y-142112518D01*
X198300208Y-142237000D01*
X198301359Y-143253772D01*
X198267542Y-143231176D01*
X198060985Y-143145617D01*
X197841706Y-143102000D01*
X197618130Y-143102000D01*
X197398851Y-143145617D01*
X197192294Y-143231176D01*
X197006398Y-143355388D01*
X196848306Y-143513480D01*
X196724094Y-143699376D01*
X196638535Y-143905933D01*
X196594918Y-144125212D01*
X190907554Y-144125212D01*
X190909692Y-142237000D01*
X190897432Y-142112518D01*
X190861122Y-141992820D01*
X190802157Y-141882506D01*
X190722805Y-141785815D01*
X190626114Y-141706463D01*
X190515800Y-141647498D01*
X190396102Y-141611188D01*
X190271620Y-141598928D01*
X189557370Y-141602000D01*
X189398620Y-141760750D01*
X189144620Y-141760750D01*
X188985870Y-141602000D01*
X188271620Y-141598928D01*
X188147138Y-141611188D01*
X188027440Y-141647498D01*
X187917126Y-141706463D01*
X187820435Y-141785815D01*
X187771620Y-141845296D01*
X187722805Y-141785815D01*
X187626114Y-141706463D01*
X187515800Y-141647498D01*
X187396102Y-141611188D01*
X187347172Y-141606369D01*
X187363037Y-141568067D01*
X187406654Y-141348788D01*
X187406654Y-141125212D01*
X187363037Y-140905933D01*
X187277478Y-140699376D01*
X187153266Y-140513480D01*
X186995174Y-140355388D01*
X186809278Y-140231176D01*
X186602721Y-140145617D01*
X186383442Y-140102000D01*
X186159866Y-140102000D01*
X185940587Y-140145617D01*
X185734030Y-140231176D01*
X185548134Y-140355388D01*
X185390042Y-140513480D01*
X185265830Y-140699376D01*
X185180271Y-140905933D01*
X185136654Y-141125212D01*
X185136654Y-141348788D01*
X185180271Y-141568067D01*
X185196134Y-141606363D01*
X185147138Y-141611188D01*
X185027440Y-141647498D01*
X184917126Y-141706463D01*
X184820435Y-141785815D01*
X184771620Y-141845296D01*
X184722805Y-141785815D01*
X184626114Y-141706463D01*
X184515800Y-141647498D01*
X184396102Y-141611188D01*
X184271620Y-141598928D01*
X183557370Y-141602000D01*
X183398620Y-141760750D01*
X183398620Y-145110000D01*
X183418620Y-145110000D01*
X183418620Y-145364000D01*
X183398620Y-145364000D01*
X183398620Y-145384000D01*
X183144620Y-145384000D01*
X183144620Y-145364000D01*
X181795370Y-145364000D01*
X181636620Y-145522750D01*
X181636544Y-145590023D01*
X181631309Y-145586525D01*
X181424752Y-145500966D01*
X181205473Y-145457349D01*
X180981897Y-145457349D01*
X180762618Y-145500966D01*
X180556061Y-145586525D01*
X180370165Y-145710737D01*
X180273553Y-145807349D01*
X175680481Y-145807349D01*
X175628520Y-145755388D01*
X175442624Y-145631176D01*
X175236067Y-145545617D01*
X175016788Y-145502000D01*
X174793212Y-145502000D01*
X174573933Y-145545617D01*
X174367376Y-145631176D01*
X174240179Y-145716167D01*
X174239960Y-145522750D01*
X174081210Y-145364000D01*
X172731960Y-145364000D01*
X172731960Y-145384000D01*
X172477960Y-145384000D01*
X172477960Y-145364000D01*
X172457960Y-145364000D01*
X172457960Y-145110000D01*
X172477960Y-145110000D01*
X172477960Y-141760750D01*
X172731960Y-141760750D01*
X172731960Y-145110000D01*
X174081210Y-145110000D01*
X174239960Y-144951250D01*
X174240894Y-144125212D01*
X179928262Y-144125212D01*
X179928262Y-144348788D01*
X179971879Y-144568067D01*
X180057438Y-144774624D01*
X180181650Y-144960520D01*
X180339742Y-145118612D01*
X180525638Y-145242824D01*
X180732195Y-145328383D01*
X180951474Y-145372000D01*
X181175050Y-145372000D01*
X181394329Y-145328383D01*
X181600886Y-145242824D01*
X181786782Y-145118612D01*
X181795394Y-145110000D01*
X183144620Y-145110000D01*
X183144620Y-141760750D01*
X182985870Y-141602000D01*
X182271620Y-141598928D01*
X182147138Y-141611188D01*
X182027440Y-141647498D01*
X181917126Y-141706463D01*
X181820435Y-141785815D01*
X181741083Y-141882506D01*
X181682118Y-141992820D01*
X181645808Y-142112518D01*
X181633548Y-142237000D01*
X181634699Y-143253769D01*
X181600886Y-143231176D01*
X181394329Y-143145617D01*
X181175050Y-143102000D01*
X180951474Y-143102000D01*
X180732195Y-143145617D01*
X180525638Y-143231176D01*
X180339742Y-143355388D01*
X180181650Y-143513480D01*
X180057438Y-143699376D01*
X179971879Y-143905933D01*
X179928262Y-144125212D01*
X174240894Y-144125212D01*
X174243032Y-142237000D01*
X174230772Y-142112518D01*
X174194462Y-141992820D01*
X174135497Y-141882506D01*
X174056145Y-141785815D01*
X173959454Y-141706463D01*
X173849140Y-141647498D01*
X173729442Y-141611188D01*
X173604960Y-141598928D01*
X172890710Y-141602000D01*
X172731960Y-141760750D01*
X172477960Y-141760750D01*
X172319210Y-141602000D01*
X171604960Y-141598928D01*
X171480478Y-141611188D01*
X171360780Y-141647498D01*
X171250466Y-141706463D01*
X171153775Y-141785815D01*
X171104960Y-141845296D01*
X171056145Y-141785815D01*
X170959454Y-141706463D01*
X170849140Y-141647498D01*
X170729442Y-141611188D01*
X170680506Y-141606368D01*
X170696371Y-141568067D01*
X170739988Y-141348788D01*
X170739988Y-141125212D01*
X170696371Y-140905933D01*
X170610812Y-140699376D01*
X170486600Y-140513480D01*
X170328508Y-140355388D01*
X170142612Y-140231176D01*
X169936055Y-140145617D01*
X169716776Y-140102000D01*
X169493200Y-140102000D01*
X169273921Y-140145617D01*
X169067364Y-140231176D01*
X168881468Y-140355388D01*
X168723376Y-140513480D01*
X168599164Y-140699376D01*
X168513605Y-140905933D01*
X168469988Y-141125212D01*
X168469988Y-141348788D01*
X168513605Y-141568067D01*
X168529468Y-141606363D01*
X168480478Y-141611188D01*
X168360780Y-141647498D01*
X168250466Y-141706463D01*
X168153775Y-141785815D01*
X168104960Y-141845296D01*
X168056145Y-141785815D01*
X167959454Y-141706463D01*
X167849140Y-141647498D01*
X167729442Y-141611188D01*
X167604960Y-141598928D01*
X166890710Y-141602000D01*
X166731960Y-141760750D01*
X166731960Y-145110000D01*
X166751960Y-145110000D01*
X166751960Y-145364000D01*
X166731960Y-145364000D01*
X166731960Y-145384000D01*
X166477960Y-145384000D01*
X166477960Y-145364000D01*
X165128710Y-145364000D01*
X164969960Y-145522750D01*
X164969884Y-145590028D01*
X164964648Y-145586530D01*
X164758091Y-145500971D01*
X164538812Y-145457354D01*
X164315236Y-145457354D01*
X164095957Y-145500971D01*
X163889400Y-145586530D01*
X163703504Y-145710742D01*
X163606892Y-145807354D01*
X158980486Y-145807354D01*
X158828520Y-145655388D01*
X158642624Y-145531176D01*
X158436067Y-145445617D01*
X158216788Y-145402000D01*
X157993212Y-145402000D01*
X157773933Y-145445617D01*
X157567376Y-145531176D01*
X157440106Y-145616215D01*
X157440000Y-145522750D01*
X157281250Y-145364000D01*
X155932000Y-145364000D01*
X155932000Y-145384000D01*
X155678000Y-145384000D01*
X155678000Y-145364000D01*
X155658000Y-145364000D01*
X155658000Y-145110000D01*
X155678000Y-145110000D01*
X155678000Y-141760750D01*
X155932000Y-141760750D01*
X155932000Y-145110000D01*
X157281250Y-145110000D01*
X157440000Y-144951250D01*
X157441048Y-144025212D01*
X163261606Y-144025212D01*
X163261606Y-144248788D01*
X163305223Y-144468067D01*
X163390782Y-144674624D01*
X163514994Y-144860520D01*
X163673086Y-145018612D01*
X163858982Y-145142824D01*
X164065539Y-145228383D01*
X164284818Y-145272000D01*
X164508394Y-145272000D01*
X164727673Y-145228383D01*
X164934230Y-145142824D01*
X165070489Y-145051779D01*
X165128710Y-145110000D01*
X166477960Y-145110000D01*
X166477960Y-141760750D01*
X166319210Y-141602000D01*
X165604960Y-141598928D01*
X165480478Y-141611188D01*
X165360780Y-141647498D01*
X165250466Y-141706463D01*
X165153775Y-141785815D01*
X165074423Y-141882506D01*
X165015458Y-141992820D01*
X164979148Y-142112518D01*
X164966888Y-142237000D01*
X164967926Y-143153691D01*
X164934230Y-143131176D01*
X164727673Y-143045617D01*
X164508394Y-143002000D01*
X164284818Y-143002000D01*
X164065539Y-143045617D01*
X163858982Y-143131176D01*
X163673086Y-143255388D01*
X163514994Y-143413480D01*
X163390782Y-143599376D01*
X163305223Y-143805933D01*
X163261606Y-144025212D01*
X157441048Y-144025212D01*
X157443072Y-142237000D01*
X157430812Y-142112518D01*
X157394502Y-141992820D01*
X157335537Y-141882506D01*
X157256185Y-141785815D01*
X157159494Y-141706463D01*
X157049180Y-141647498D01*
X156929482Y-141611188D01*
X156805000Y-141598928D01*
X156090750Y-141602000D01*
X155932000Y-141760750D01*
X155678000Y-141760750D01*
X155519250Y-141602000D01*
X154805000Y-141598928D01*
X154680518Y-141611188D01*
X154560820Y-141647498D01*
X154450506Y-141706463D01*
X154353815Y-141785815D01*
X154305000Y-141845296D01*
X154256185Y-141785815D01*
X154159494Y-141706463D01*
X154049180Y-141647498D01*
X153929482Y-141611188D01*
X153805000Y-141598928D01*
X151805000Y-141598928D01*
X151680518Y-141611188D01*
X151560820Y-141647498D01*
X151450506Y-141706463D01*
X151353815Y-141785815D01*
X151305000Y-141845296D01*
X151256185Y-141785815D01*
X151159494Y-141706463D01*
X151049180Y-141647498D01*
X150929482Y-141611188D01*
X150805000Y-141598928D01*
X150090750Y-141602000D01*
X149932000Y-141760750D01*
X149932000Y-145110000D01*
X149952000Y-145110000D01*
X149952000Y-145364000D01*
X149932000Y-145364000D01*
X149932000Y-145384000D01*
X149678000Y-145384000D01*
X149678000Y-145364000D01*
X148328750Y-145364000D01*
X148212866Y-145479884D01*
X148147982Y-145436530D01*
X147941425Y-145350971D01*
X147722146Y-145307354D01*
X147498570Y-145307354D01*
X147279291Y-145350971D01*
X147072734Y-145436530D01*
X146886838Y-145560742D01*
X146790226Y-145657354D01*
X142030486Y-145657354D01*
X142028520Y-145655388D01*
X141842624Y-145531176D01*
X141636067Y-145445617D01*
X141416788Y-145402000D01*
X141193212Y-145402000D01*
X140973933Y-145445617D01*
X140871808Y-145487918D01*
X140747890Y-145364000D01*
X139398640Y-145364000D01*
X139398640Y-145384000D01*
X139144640Y-145384000D01*
X139144640Y-145364000D01*
X139124640Y-145364000D01*
X139124640Y-145110000D01*
X139144640Y-145110000D01*
X139144640Y-141760750D01*
X139398640Y-141760750D01*
X139398640Y-145110000D01*
X140747890Y-145110000D01*
X140906640Y-144951250D01*
X140907801Y-143925212D01*
X146594950Y-143925212D01*
X146594950Y-144148788D01*
X146638567Y-144368067D01*
X146724126Y-144574624D01*
X146848338Y-144760520D01*
X147006430Y-144918612D01*
X147192326Y-145042824D01*
X147398883Y-145128383D01*
X147618162Y-145172000D01*
X147841738Y-145172000D01*
X148061017Y-145128383D01*
X148263331Y-145044581D01*
X148328750Y-145110000D01*
X149678000Y-145110000D01*
X149678000Y-141760750D01*
X149519250Y-141602000D01*
X148805000Y-141598928D01*
X148680518Y-141611188D01*
X148560820Y-141647498D01*
X148450506Y-141706463D01*
X148353815Y-141785815D01*
X148274463Y-141882506D01*
X148215498Y-141992820D01*
X148179188Y-142112518D01*
X148166928Y-142237000D01*
X148167780Y-142989840D01*
X148061017Y-142945617D01*
X147841738Y-142902000D01*
X147618162Y-142902000D01*
X147398883Y-142945617D01*
X147192326Y-143031176D01*
X147006430Y-143155388D01*
X146848338Y-143313480D01*
X146724126Y-143499376D01*
X146638567Y-143705933D01*
X146594950Y-143925212D01*
X140907801Y-143925212D01*
X140909712Y-142237000D01*
X140897452Y-142112518D01*
X140861142Y-141992820D01*
X140802177Y-141882506D01*
X140722825Y-141785815D01*
X140626134Y-141706463D01*
X140515820Y-141647498D01*
X140396122Y-141611188D01*
X140271640Y-141598928D01*
X139557390Y-141602000D01*
X139398640Y-141760750D01*
X139144640Y-141760750D01*
X138985890Y-141602000D01*
X138271640Y-141598928D01*
X138147158Y-141611188D01*
X138027460Y-141647498D01*
X137917146Y-141706463D01*
X137820455Y-141785815D01*
X137771640Y-141845296D01*
X137722825Y-141785815D01*
X137626134Y-141706463D01*
X137515820Y-141647498D01*
X137396122Y-141611188D01*
X137347151Y-141606365D01*
X137363015Y-141568067D01*
X137406632Y-141348788D01*
X137406632Y-141125212D01*
X137363015Y-140905933D01*
X137277456Y-140699376D01*
X137153244Y-140513480D01*
X136995152Y-140355388D01*
X136809256Y-140231176D01*
X136602699Y-140145617D01*
X136383420Y-140102000D01*
X136159844Y-140102000D01*
X135940565Y-140145617D01*
X135734008Y-140231176D01*
X135548112Y-140355388D01*
X135390020Y-140513480D01*
X135265808Y-140699376D01*
X135180249Y-140905933D01*
X135136632Y-141125212D01*
X135136632Y-141348788D01*
X135180249Y-141568067D01*
X135196113Y-141606366D01*
X135147158Y-141611188D01*
X135027460Y-141647498D01*
X134917146Y-141706463D01*
X134820455Y-141785815D01*
X134771640Y-141845296D01*
X134722825Y-141785815D01*
X134626134Y-141706463D01*
X134515820Y-141647498D01*
X134396122Y-141611188D01*
X134271640Y-141598928D01*
X133557390Y-141602000D01*
X133398640Y-141760750D01*
X133398640Y-145110000D01*
X133418640Y-145110000D01*
X133418640Y-145364000D01*
X133398640Y-145364000D01*
X133398640Y-145384000D01*
X133144640Y-145384000D01*
X133144640Y-145364000D01*
X131795390Y-145364000D01*
X131636640Y-145522750D01*
X131636536Y-145614845D01*
X131469405Y-145545617D01*
X131250126Y-145502000D01*
X131026550Y-145502000D01*
X130807271Y-145545617D01*
X130600714Y-145631176D01*
X130414818Y-145755388D01*
X130318206Y-145852000D01*
X125725132Y-145852000D01*
X125628520Y-145755388D01*
X125442624Y-145631176D01*
X125236067Y-145545617D01*
X125016788Y-145502000D01*
X124793212Y-145502000D01*
X124573933Y-145545617D01*
X124367376Y-145631176D01*
X124240199Y-145716153D01*
X124239980Y-145522750D01*
X124081230Y-145364000D01*
X122731980Y-145364000D01*
X122731980Y-145384000D01*
X122477980Y-145384000D01*
X122477980Y-145364000D01*
X122457980Y-145364000D01*
X122457980Y-145110000D01*
X122477980Y-145110000D01*
X122477980Y-141760750D01*
X122731980Y-141760750D01*
X122731980Y-145110000D01*
X124081230Y-145110000D01*
X124239980Y-144951250D01*
X124241028Y-144025212D01*
X129928294Y-144025212D01*
X129928294Y-144248788D01*
X129971911Y-144468067D01*
X130057470Y-144674624D01*
X130181682Y-144860520D01*
X130339774Y-145018612D01*
X130525670Y-145142824D01*
X130732227Y-145228383D01*
X130951506Y-145272000D01*
X131175082Y-145272000D01*
X131394361Y-145228383D01*
X131600918Y-145142824D01*
X131737172Y-145051782D01*
X131795390Y-145110000D01*
X133144640Y-145110000D01*
X133144640Y-141760750D01*
X132985890Y-141602000D01*
X132271640Y-141598928D01*
X132147158Y-141611188D01*
X132027460Y-141647498D01*
X131917146Y-141706463D01*
X131820455Y-141785815D01*
X131741103Y-141882506D01*
X131682138Y-141992820D01*
X131645828Y-142112518D01*
X131633568Y-142237000D01*
X131634606Y-143153685D01*
X131600918Y-143131176D01*
X131394361Y-143045617D01*
X131175082Y-143002000D01*
X130951506Y-143002000D01*
X130732227Y-143045617D01*
X130525670Y-143131176D01*
X130339774Y-143255388D01*
X130181682Y-143413480D01*
X130057470Y-143599376D01*
X129971911Y-143805933D01*
X129928294Y-144025212D01*
X124241028Y-144025212D01*
X124243052Y-142237000D01*
X124230792Y-142112518D01*
X124194482Y-141992820D01*
X124135517Y-141882506D01*
X124056165Y-141785815D01*
X123959474Y-141706463D01*
X123849160Y-141647498D01*
X123729462Y-141611188D01*
X123604980Y-141598928D01*
X122890730Y-141602000D01*
X122731980Y-141760750D01*
X122477980Y-141760750D01*
X122319230Y-141602000D01*
X121604980Y-141598928D01*
X121480498Y-141611188D01*
X121360800Y-141647498D01*
X121250486Y-141706463D01*
X121153795Y-141785815D01*
X121104980Y-141845296D01*
X121056165Y-141785815D01*
X120959474Y-141706463D01*
X120849160Y-141647498D01*
X120729462Y-141611188D01*
X120680491Y-141606365D01*
X120696355Y-141568067D01*
X120739972Y-141348788D01*
X120739972Y-141125212D01*
X120696355Y-140905933D01*
X120610796Y-140699376D01*
X120486584Y-140513480D01*
X120328492Y-140355388D01*
X120142596Y-140231176D01*
X119936039Y-140145617D01*
X119716760Y-140102000D01*
X119493184Y-140102000D01*
X119273905Y-140145617D01*
X119067348Y-140231176D01*
X118881452Y-140355388D01*
X118723360Y-140513480D01*
X118599148Y-140699376D01*
X118513589Y-140905933D01*
X118469972Y-141125212D01*
X118469972Y-141348788D01*
X118513589Y-141568067D01*
X118529453Y-141606366D01*
X118480498Y-141611188D01*
X118360800Y-141647498D01*
X118250486Y-141706463D01*
X118153795Y-141785815D01*
X118104980Y-141845296D01*
X118056165Y-141785815D01*
X117959474Y-141706463D01*
X117849160Y-141647498D01*
X117729462Y-141611188D01*
X117604980Y-141598928D01*
X116890730Y-141602000D01*
X116731980Y-141760750D01*
X116731980Y-145110000D01*
X116751980Y-145110000D01*
X116751980Y-145364000D01*
X116731980Y-145364000D01*
X116731980Y-145384000D01*
X116477980Y-145384000D01*
X116477980Y-145364000D01*
X116457980Y-145364000D01*
X116457980Y-145110000D01*
X116477980Y-145110000D01*
X116477980Y-141760750D01*
X116319230Y-141602000D01*
X115604980Y-141598928D01*
X115480498Y-141611188D01*
X115360800Y-141647498D01*
X115250486Y-141706463D01*
X115153795Y-141785815D01*
X115074443Y-141882506D01*
X115015478Y-141992820D01*
X114979168Y-142112518D01*
X114966908Y-142237000D01*
X114968172Y-143353834D01*
X114934262Y-143331176D01*
X114727705Y-143245617D01*
X114508426Y-143202000D01*
X114284850Y-143202000D01*
X114065571Y-143245617D01*
X113859014Y-143331176D01*
X113673118Y-143455388D01*
X113515026Y-143613480D01*
X113390814Y-143799376D01*
X113305255Y-144005933D01*
X113261638Y-144225212D01*
X113261638Y-144448788D01*
X113305255Y-144668067D01*
X113390814Y-144874624D01*
X113515026Y-145060520D01*
X113673118Y-145218612D01*
X113859014Y-145342824D01*
X114065571Y-145428383D01*
X114284850Y-145472000D01*
X114508426Y-145472000D01*
X114727705Y-145428383D01*
X114934262Y-145342824D01*
X114969980Y-145318958D01*
X114969980Y-145364002D01*
X115128728Y-145364002D01*
X114969980Y-145522750D01*
X114969876Y-145614848D01*
X114802739Y-145545617D01*
X114583460Y-145502000D01*
X114359884Y-145502000D01*
X114140605Y-145545617D01*
X113934048Y-145631176D01*
X113748152Y-145755388D01*
X113651540Y-145852000D01*
X108623446Y-145852000D01*
X108442620Y-145731176D01*
X108236063Y-145645617D01*
X108016784Y-145602000D01*
X107793208Y-145602000D01*
X107573929Y-145645617D01*
X107573459Y-145645812D01*
X107573320Y-145522750D01*
X107414570Y-145364000D01*
X106065320Y-145364000D01*
X106065320Y-145384000D01*
X105811320Y-145384000D01*
X105811320Y-145364000D01*
X105791320Y-145364000D01*
X105791320Y-145110000D01*
X105811320Y-145110000D01*
X105811320Y-141760750D01*
X106065320Y-141760750D01*
X106065320Y-145110000D01*
X107414570Y-145110000D01*
X107573320Y-144951250D01*
X107576392Y-142237000D01*
X107564132Y-142112518D01*
X107527822Y-141992820D01*
X107468857Y-141882506D01*
X107389505Y-141785815D01*
X107292814Y-141706463D01*
X107182500Y-141647498D01*
X107062802Y-141611188D01*
X106938320Y-141598928D01*
X106224070Y-141602000D01*
X106065320Y-141760750D01*
X105811320Y-141760750D01*
X105652570Y-141602000D01*
X104938320Y-141598928D01*
X104813838Y-141611188D01*
X104694140Y-141647498D01*
X104583826Y-141706463D01*
X104487135Y-141785815D01*
X104438320Y-141845296D01*
X104389505Y-141785815D01*
X104292814Y-141706463D01*
X104182500Y-141647498D01*
X104062802Y-141611188D01*
X104013831Y-141606365D01*
X104029695Y-141568067D01*
X104073312Y-141348788D01*
X104073312Y-141125212D01*
X104029695Y-140905933D01*
X103944136Y-140699376D01*
X103819924Y-140513480D01*
X103661832Y-140355388D01*
X103475936Y-140231176D01*
X103269379Y-140145617D01*
X103050100Y-140102000D01*
X102826524Y-140102000D01*
X102607245Y-140145617D01*
X102400688Y-140231176D01*
X102214792Y-140355388D01*
X102056700Y-140513480D01*
X101932488Y-140699376D01*
X101846929Y-140905933D01*
X101803312Y-141125212D01*
X101803312Y-141348788D01*
X101846929Y-141568067D01*
X101862793Y-141606366D01*
X101813838Y-141611188D01*
X101694140Y-141647498D01*
X101583826Y-141706463D01*
X101487135Y-141785815D01*
X101438320Y-141845296D01*
X101389505Y-141785815D01*
X101292814Y-141706463D01*
X101182500Y-141647498D01*
X101062802Y-141611188D01*
X100938320Y-141598928D01*
X100224070Y-141602000D01*
X100065320Y-141760750D01*
X100065320Y-145110000D01*
X100085320Y-145110000D01*
X100085320Y-145364000D01*
X100065320Y-145364000D01*
X100065320Y-145384000D01*
X99811320Y-145384000D01*
X99811320Y-145364000D01*
X98462070Y-145364000D01*
X98303320Y-145522750D01*
X98303216Y-145614853D01*
X98136067Y-145545617D01*
X97916788Y-145502000D01*
X97693212Y-145502000D01*
X97473933Y-145545617D01*
X97267376Y-145631176D01*
X97081480Y-145755388D01*
X96984868Y-145852000D01*
X91525132Y-145852000D01*
X91428520Y-145755388D01*
X91242624Y-145631176D01*
X91036067Y-145545617D01*
X90816788Y-145502000D01*
X90593212Y-145502000D01*
X90373933Y-145545617D01*
X90167376Y-145631176D01*
X89981480Y-145755388D01*
X89823388Y-145913480D01*
X89699176Y-146099376D01*
X89613617Y-146305933D01*
X89570000Y-146525212D01*
X89570000Y-146748788D01*
X89613617Y-146968067D01*
X89698077Y-147171972D01*
X89648080Y-147205379D01*
X89489988Y-147363471D01*
X89365776Y-147549367D01*
X89280217Y-147755924D01*
X89236600Y-147975203D01*
X89236600Y-148198779D01*
X89277025Y-148402012D01*
X84287276Y-148402012D01*
X83380323Y-147495060D01*
X83355740Y-147465106D01*
X83236209Y-147367008D01*
X83099836Y-147294116D01*
X82951863Y-147249229D01*
X82888032Y-147242942D01*
X82786348Y-147141258D01*
X82600452Y-147017046D01*
X82393895Y-146931487D01*
X82174616Y-146887870D01*
X81951040Y-146887870D01*
X81731761Y-146931487D01*
X81525204Y-147017046D01*
X81339308Y-147141258D01*
X81181216Y-147299350D01*
X81057004Y-147485246D01*
X80971445Y-147691803D01*
X80927828Y-147911082D01*
X80927828Y-148134658D01*
X80971445Y-148353937D01*
X81057004Y-148560494D01*
X81181216Y-148746390D01*
X81268888Y-148834062D01*
X81235982Y-148913503D01*
X81213730Y-149025373D01*
X81119500Y-149044116D01*
X80912943Y-149129675D01*
X80901246Y-149137491D01*
X80742069Y-149031132D01*
X80535512Y-148945573D01*
X80316233Y-148901956D01*
X80092657Y-148901956D01*
X79873378Y-148945573D01*
X79666821Y-149031132D01*
X79480925Y-149155344D01*
X79322833Y-149313436D01*
X79198621Y-149499332D01*
X79113062Y-149705889D01*
X79069445Y-149925168D01*
X79069445Y-150148744D01*
X79113062Y-150368023D01*
X79198621Y-150574580D01*
X79322833Y-150760476D01*
X79427581Y-150865224D01*
X79430804Y-150897948D01*
X79475691Y-151045921D01*
X79475692Y-151045922D01*
X79508240Y-151106816D01*
X65331325Y-151106816D01*
X65348209Y-151081422D01*
X65442689Y-150851849D01*
X65448282Y-150808540D01*
X65323902Y-150614000D01*
X63482000Y-150614000D01*
X63482000Y-150634000D01*
X63228000Y-150634000D01*
X63228000Y-150614000D01*
X61386098Y-150614000D01*
X61261718Y-150808540D01*
X61267311Y-150851849D01*
X61361791Y-151081422D01*
X61378675Y-151106816D01*
X47169473Y-151106816D01*
X47169473Y-140841834D01*
X47249048Y-140364362D01*
X47435491Y-139991478D01*
X47736888Y-139690080D01*
X48109791Y-139503635D01*
X48587269Y-139424059D01*
X48790001Y-139424059D01*
X48799252Y-139425639D01*
X48857337Y-139424059D01*
X48881714Y-139424059D01*
X48891015Y-139423143D01*
X48934135Y-139421970D01*
X48957993Y-139416546D01*
X48982350Y-139414147D01*
X49023645Y-139401620D01*
X49065710Y-139392057D01*
X49088051Y-139382083D01*
X49111473Y-139374978D01*
X49149530Y-139354636D01*
X49188922Y-139337050D01*
X49208889Y-139322909D01*
X49230474Y-139311371D01*
X49263830Y-139283996D01*
X49299035Y-139259062D01*
X49315860Y-139241295D01*
X49334778Y-139225770D01*
X49362156Y-139192410D01*
X49391817Y-139161090D01*
X49404849Y-139140389D01*
X49420379Y-139121466D01*
X49440724Y-139083403D01*
X49445691Y-139075513D01*
X49456569Y-139053760D01*
X49483986Y-139002465D01*
X49486712Y-138993477D01*
X49552149Y-138862614D01*
X49888856Y-138525910D01*
X50079629Y-138430520D01*
X58039809Y-138438689D01*
X58039809Y-138438689D01*
G37*
X58039809Y-138438689D02*
X58214249Y-138525912D01*
X58550938Y-138862601D01*
X58616360Y-138993456D01*
X58619093Y-139002465D01*
X58646499Y-139053739D01*
X58657367Y-139075476D01*
X58662346Y-139083386D01*
X58682700Y-139121466D01*
X58698214Y-139140370D01*
X58711235Y-139161056D01*
X58740909Y-139192394D01*
X58768301Y-139225770D01*
X58787206Y-139241285D01*
X58804012Y-139259033D01*
X58839222Y-139283974D01*
X58872605Y-139311371D01*
X58894177Y-139322902D01*
X58914120Y-139337028D01*
X58953522Y-139354622D01*
X58991606Y-139374978D01*
X59015010Y-139382077D01*
X59037328Y-139392043D01*
X59079408Y-139401612D01*
X59120729Y-139414147D01*
X59145069Y-139416544D01*
X59168901Y-139421964D01*
X59212037Y-139423140D01*
X59221365Y-139424059D01*
X59245731Y-139424059D01*
X59303784Y-139425642D01*
X59313056Y-139424059D01*
X61195929Y-139424059D01*
X61190987Y-139428115D01*
X61158673Y-139454634D01*
X61158670Y-139454637D01*
X61128722Y-139479215D01*
X61104144Y-139509163D01*
X58397878Y-142215429D01*
X58476212Y-141693187D01*
X58476588Y-141692131D01*
X58486197Y-141626620D01*
X58491044Y-141594305D01*
X58491101Y-141593187D01*
X58496170Y-141558626D01*
X58494512Y-141525969D01*
X58496170Y-141493312D01*
X58491101Y-141458751D01*
X58491044Y-141457633D01*
X58486197Y-141425320D01*
X58476588Y-141359807D01*
X58476212Y-141358751D01*
X58389193Y-140778604D01*
X58389383Y-140771611D01*
X58379194Y-140711942D01*
X58375232Y-140685530D01*
X58373533Y-140678795D01*
X58366670Y-140638603D01*
X58357069Y-140613513D01*
X58350502Y-140587477D01*
X58333016Y-140550661D01*
X58330528Y-140544159D01*
X58318560Y-140520224D01*
X58292613Y-140465593D01*
X58288439Y-140459984D01*
X58023944Y-139931012D01*
X58021218Y-139922025D01*
X57993807Y-139870741D01*
X57982924Y-139848975D01*
X57977954Y-139841079D01*
X57957613Y-139803023D01*
X57942087Y-139784103D01*
X57929052Y-139763397D01*
X57899394Y-139732080D01*
X57893463Y-139724852D01*
X57876216Y-139707604D01*
X57836271Y-139665424D01*
X57828615Y-139660001D01*
X57416845Y-139248215D01*
X57411407Y-139240537D01*
X57369206Y-139200573D01*
X57352004Y-139183371D01*
X57344774Y-139177438D01*
X57313433Y-139147758D01*
X57292740Y-139134732D01*
X57273837Y-139119218D01*
X57235767Y-139098868D01*
X57227854Y-139093887D01*
X57206099Y-139083010D01*
X57154837Y-139055608D01*
X57145833Y-139052876D01*
X56616828Y-138788374D01*
X56611221Y-138784201D01*
X56556566Y-138758243D01*
X56532647Y-138746283D01*
X56526154Y-138743798D01*
X56489337Y-138726312D01*
X56463294Y-138719744D01*
X56438203Y-138710142D01*
X56398022Y-138703281D01*
X56391285Y-138701582D01*
X56364842Y-138697616D01*
X56305195Y-138687431D01*
X56298210Y-138687621D01*
X55701867Y-138598173D01*
X55685128Y-138593095D01*
X55635284Y-138588186D01*
X55619179Y-138585770D01*
X55601807Y-138584888D01*
X55584492Y-138583183D01*
X55568200Y-138583183D01*
X55518187Y-138580645D01*
X55500884Y-138583183D01*
X52602195Y-138583183D01*
X52584892Y-138580645D01*
X52534878Y-138583183D01*
X52518587Y-138583183D01*
X52501273Y-138584888D01*
X52483899Y-138585770D01*
X52467791Y-138588186D01*
X52417951Y-138593095D01*
X52401213Y-138598172D01*
X51804864Y-138687621D01*
X51797873Y-138687431D01*
X51738254Y-138697612D01*
X51711795Y-138701581D01*
X51705045Y-138703284D01*
X51664866Y-138710145D01*
X51639782Y-138719744D01*
X51613742Y-138726312D01*
X51576924Y-138743799D01*
X51570422Y-138746287D01*
X51546489Y-138758254D01*
X51491858Y-138784201D01*
X51486249Y-138788375D01*
X50957262Y-139052878D01*
X50948263Y-139055608D01*
X50896997Y-139083012D01*
X50875239Y-139093891D01*
X50867331Y-139098869D01*
X50829263Y-139119218D01*
X50810352Y-139134739D01*
X50789661Y-139147764D01*
X50758336Y-139177429D01*
X50751096Y-139183371D01*
X50733858Y-139200610D01*
X50691688Y-139240545D01*
X50686257Y-139248213D01*
X50274492Y-139659996D01*
X50266830Y-139665423D01*
X50226851Y-139707640D01*
X50209638Y-139724853D01*
X50203719Y-139732066D01*
X50174049Y-139763396D01*
X50161009Y-139784111D01*
X50145488Y-139803024D01*
X50125155Y-139841067D01*
X50120177Y-139848974D01*
X50109278Y-139870771D01*
X50081883Y-139922026D01*
X50079158Y-139931008D01*
X49814661Y-140459984D01*
X49810487Y-140465593D01*
X49784544Y-140520216D01*
X49772572Y-140544159D01*
X49770083Y-140550664D01*
X49752598Y-140587478D01*
X49746030Y-140613518D01*
X49736431Y-140638603D01*
X49729569Y-140678787D01*
X49727868Y-140685530D01*
X49723903Y-140711964D01*
X49713717Y-140771611D01*
X49713907Y-140778604D01*
X49626888Y-141358753D01*
X49626513Y-141359806D01*
X49616929Y-141425150D01*
X49612056Y-141457635D01*
X49611999Y-141458759D01*
X49606931Y-141493311D01*
X49608588Y-141525969D01*
X49606931Y-141558627D01*
X49611999Y-141593179D01*
X49612056Y-141594303D01*
X49616929Y-141626790D01*
X49626513Y-141692132D01*
X49626888Y-141693185D01*
X49713907Y-142273335D01*
X49713717Y-142280328D01*
X49723903Y-142339976D01*
X49727868Y-142366409D01*
X49729569Y-142373152D01*
X49736431Y-142413336D01*
X49746030Y-142438421D01*
X49752598Y-142464461D01*
X49770082Y-142501273D01*
X49772572Y-142507780D01*
X49784549Y-142531734D01*
X49810487Y-142586345D01*
X49814660Y-142591952D01*
X50079158Y-143120931D01*
X50081883Y-143129913D01*
X50109278Y-143181168D01*
X50120177Y-143202965D01*
X50125155Y-143210872D01*
X50145488Y-143248915D01*
X50161009Y-143267828D01*
X50174049Y-143288543D01*
X50203719Y-143319873D01*
X50209638Y-143327086D01*
X50226851Y-143344299D01*
X50266830Y-143386516D01*
X50274492Y-143391943D01*
X50686257Y-143803726D01*
X50691688Y-143811394D01*
X50733858Y-143851329D01*
X50751096Y-143868568D01*
X50758336Y-143874510D01*
X50789661Y-143904175D01*
X50810352Y-143917200D01*
X50829263Y-143932721D01*
X50867331Y-143953070D01*
X50875239Y-143958048D01*
X50896997Y-143968927D01*
X50948263Y-143996331D01*
X50957262Y-143999061D01*
X51486249Y-144263564D01*
X51491858Y-144267738D01*
X51546489Y-144293685D01*
X51570422Y-144305652D01*
X51576924Y-144308140D01*
X51613742Y-144325627D01*
X51639782Y-144332195D01*
X51664866Y-144341794D01*
X51705045Y-144348655D01*
X51711795Y-144350358D01*
X51738254Y-144354327D01*
X51797873Y-144364508D01*
X51804864Y-144364318D01*
X52401213Y-144453767D01*
X52417951Y-144458844D01*
X52467791Y-144463753D01*
X52483899Y-144466169D01*
X52501273Y-144467051D01*
X52518587Y-144468756D01*
X52534878Y-144468756D01*
X52584892Y-144471294D01*
X52602195Y-144468756D01*
X55500884Y-144468756D01*
X55518187Y-144471294D01*
X55568200Y-144468756D01*
X55584492Y-144468756D01*
X55601807Y-144467051D01*
X55619179Y-144466169D01*
X55635284Y-144463753D01*
X55685128Y-144458844D01*
X55701867Y-144453766D01*
X56240305Y-144373003D01*
X56177185Y-144436123D01*
X56147237Y-144460701D01*
X56122659Y-144490649D01*
X56122655Y-144490653D01*
X56108217Y-144508246D01*
X56049139Y-144580232D01*
X56021682Y-144631601D01*
X55976246Y-144716606D01*
X55931359Y-144864579D01*
X55916203Y-145018465D01*
X55920001Y-145057028D01*
X55920000Y-147590112D01*
X55916203Y-147628665D01*
X55920000Y-147667218D01*
X55920000Y-147667225D01*
X55931359Y-147782551D01*
X55976246Y-147930524D01*
X56049138Y-148066897D01*
X56147236Y-148186429D01*
X56177190Y-148211012D01*
X57061221Y-149095043D01*
X57047239Y-149237000D01*
X57071567Y-149484003D01*
X57143615Y-149721514D01*
X57260615Y-149940405D01*
X57418070Y-150132265D01*
X57609930Y-150289720D01*
X57828821Y-150406720D01*
X58066332Y-150478768D01*
X58251442Y-150497000D01*
X60125228Y-150497000D01*
X60310338Y-150478768D01*
X60547849Y-150406720D01*
X60766740Y-150289720D01*
X60958600Y-150132265D01*
X61116055Y-149940405D01*
X61233055Y-149721514D01*
X61305103Y-149484003D01*
X61329431Y-149237000D01*
X61305103Y-148989997D01*
X61233055Y-148752486D01*
X61116055Y-148533595D01*
X60958600Y-148341735D01*
X60830980Y-148237000D01*
X60958600Y-148132265D01*
X61116055Y-147940405D01*
X61233055Y-147721514D01*
X61305103Y-147484003D01*
X61329431Y-147237000D01*
X61305103Y-146989997D01*
X61233055Y-146752486D01*
X61116055Y-146533595D01*
X60958600Y-146341735D01*
X60766740Y-146184280D01*
X60547849Y-146067280D01*
X60310338Y-145995232D01*
X60125228Y-145977000D01*
X59973335Y-145977000D01*
X59973335Y-144834319D01*
X59981370Y-144915897D01*
X60026257Y-145063870D01*
X60099149Y-145200243D01*
X60197247Y-145319775D01*
X60227201Y-145344358D01*
X61227886Y-146345043D01*
X61213904Y-146487000D01*
X61238232Y-146734003D01*
X61310280Y-146971514D01*
X61427280Y-147190405D01*
X61584735Y-147382265D01*
X61712355Y-147487000D01*
X61584735Y-147591735D01*
X61427280Y-147783595D01*
X61310280Y-148002486D01*
X61238232Y-148239997D01*
X61213904Y-148487000D01*
X61238232Y-148734003D01*
X61310280Y-148971514D01*
X61427280Y-149190405D01*
X61584735Y-149382265D01*
X61710619Y-149485575D01*
X61674385Y-149509906D01*
X61499243Y-149685848D01*
X61361791Y-149892578D01*
X61267311Y-150122151D01*
X61261718Y-150165460D01*
X61386098Y-150360000D01*
X63228000Y-150360000D01*
X63228000Y-150340000D01*
X63482000Y-150340000D01*
X63482000Y-150360000D01*
X65323902Y-150360000D01*
X65448282Y-150165460D01*
X65442689Y-150122151D01*
X65348209Y-149892578D01*
X65210757Y-149685848D01*
X65035615Y-149509906D01*
X64999381Y-149485575D01*
X65125265Y-149382265D01*
X65282720Y-149190405D01*
X65399720Y-148971514D01*
X65471768Y-148734003D01*
X65496096Y-148487000D01*
X65482114Y-148345043D01*
X66232817Y-147594341D01*
X66262764Y-147569764D01*
X66288128Y-147538859D01*
X66321030Y-147498768D01*
X66360862Y-147450233D01*
X66433754Y-147313860D01*
X66478641Y-147165887D01*
X66490000Y-147050561D01*
X66490000Y-147050554D01*
X66493797Y-147012001D01*
X66490000Y-146973448D01*
X66490000Y-145657132D01*
X66586612Y-145560520D01*
X66710824Y-145374624D01*
X66720775Y-145350601D01*
X67935013Y-146564839D01*
X67959591Y-146594787D01*
X67989539Y-146619365D01*
X67989542Y-146619368D01*
X68011026Y-146636999D01*
X68079122Y-146692885D01*
X68215495Y-146765777D01*
X68363468Y-146810664D01*
X68478794Y-146822023D01*
X68478801Y-146822023D01*
X68517354Y-146825820D01*
X68555907Y-146822023D01*
X68666348Y-146822023D01*
X68788601Y-146887368D01*
X68826179Y-146898767D01*
X68936575Y-146932256D01*
X69003623Y-146938859D01*
X69051900Y-146943614D01*
X69051906Y-146943614D01*
X69090461Y-146947411D01*
X69129017Y-146943614D01*
X72501457Y-146943614D01*
X72570000Y-147012157D01*
X72570000Y-147148788D01*
X72613617Y-147368067D01*
X72699176Y-147574624D01*
X72823388Y-147760520D01*
X72981480Y-147918612D01*
X73167376Y-148042824D01*
X73373933Y-148128383D01*
X73593212Y-148172000D01*
X73816788Y-148172000D01*
X74036067Y-148128383D01*
X74242624Y-148042824D01*
X74428520Y-147918612D01*
X74586612Y-147760520D01*
X74710824Y-147574624D01*
X74796383Y-147368067D01*
X74840000Y-147148788D01*
X74840000Y-146925212D01*
X74825059Y-146850100D01*
X74842624Y-146842824D01*
X75028520Y-146718612D01*
X75186612Y-146560520D01*
X75310824Y-146374624D01*
X75382299Y-146202068D01*
X75401539Y-146202068D01*
X75620818Y-146158451D01*
X75827375Y-146072892D01*
X76013271Y-145948680D01*
X76171363Y-145790588D01*
X76209785Y-145733086D01*
X76341591Y-145787682D01*
X76560870Y-145831299D01*
X76784446Y-145831299D01*
X77003725Y-145787682D01*
X77210282Y-145702123D01*
X77396178Y-145577911D01*
X77554270Y-145419819D01*
X77678482Y-145233923D01*
X77764041Y-145027366D01*
X77807658Y-144808087D01*
X77807658Y-144584511D01*
X77764041Y-144365232D01*
X77678482Y-144158675D01*
X77656123Y-144125212D01*
X96594982Y-144125212D01*
X96594982Y-144348788D01*
X96638599Y-144568067D01*
X96724158Y-144774624D01*
X96848370Y-144960520D01*
X97006462Y-145118612D01*
X97192358Y-145242824D01*
X97398915Y-145328383D01*
X97618194Y-145372000D01*
X97841770Y-145372000D01*
X98061049Y-145328383D01*
X98267606Y-145242824D01*
X98453502Y-145118612D01*
X98462114Y-145110000D01*
X99811320Y-145110000D01*
X99811320Y-141760750D01*
X99652570Y-141602000D01*
X98938320Y-141598928D01*
X98813838Y-141611188D01*
X98694140Y-141647498D01*
X98583826Y-141706463D01*
X98487135Y-141785815D01*
X98407783Y-141882506D01*
X98348818Y-141992820D01*
X98312508Y-142112518D01*
X98300248Y-142237000D01*
X98301399Y-143253756D01*
X98267606Y-143231176D01*
X98061049Y-143145617D01*
X97841770Y-143102000D01*
X97618194Y-143102000D01*
X97398915Y-143145617D01*
X97192358Y-143231176D01*
X97006462Y-143355388D01*
X96848370Y-143513480D01*
X96724158Y-143699376D01*
X96638599Y-143905933D01*
X96594982Y-144125212D01*
X77656123Y-144125212D01*
X77554270Y-143972779D01*
X77396178Y-143814687D01*
X77210282Y-143690475D01*
X77003725Y-143604916D01*
X76921853Y-143588631D01*
X76960537Y-143541494D01*
X77019502Y-143431180D01*
X77055812Y-143311482D01*
X77068072Y-143187000D01*
X77068072Y-141687000D01*
X77055812Y-141562518D01*
X77019502Y-141442820D01*
X76960537Y-141332506D01*
X76881185Y-141235815D01*
X76784494Y-141156463D01*
X76674180Y-141097498D01*
X76554482Y-141061188D01*
X76430000Y-141048928D01*
X75280000Y-141048928D01*
X75156173Y-141061059D01*
X75130065Y-141068949D01*
X75104482Y-141061188D01*
X74980000Y-141048928D01*
X73980000Y-141048928D01*
X73855518Y-141061188D01*
X73735820Y-141097498D01*
X73625506Y-141156463D01*
X73528815Y-141235815D01*
X73449463Y-141332506D01*
X73390498Y-141442820D01*
X73354188Y-141562518D01*
X73341928Y-141687000D01*
X73341928Y-142464914D01*
X72654843Y-143152000D01*
X70325132Y-143152000D01*
X70228520Y-143055388D01*
X70042624Y-142931176D01*
X69836067Y-142845617D01*
X69616788Y-142802000D01*
X69393212Y-142802000D01*
X69173933Y-142845617D01*
X69070376Y-142888512D01*
X69062763Y-142879235D01*
X69032816Y-142854658D01*
X65687326Y-139509169D01*
X65662743Y-139479215D01*
X65595536Y-139424059D01*
X313373336Y-139424059D01*
X313382588Y-139425639D01*
X313440673Y-139424059D01*
X313465048Y-139424059D01*
X313474348Y-139423143D01*
X313517471Y-139421970D01*
X313541329Y-139416546D01*
X313565684Y-139414147D01*
X313606982Y-139401619D01*
X313649046Y-139392056D01*
X313671384Y-139382083D01*
X313694807Y-139374978D01*
X313732868Y-139354634D01*
X313772257Y-139337049D01*
X313792220Y-139322910D01*
X313813808Y-139311371D01*
X313847173Y-139283989D01*
X313882370Y-139259060D01*
X313899191Y-139241298D01*
X313918112Y-139225770D01*
X313945492Y-139192408D01*
X313975152Y-139161089D01*
X313988184Y-139140387D01*
X314003713Y-139121466D01*
X314024056Y-139083406D01*
X314029026Y-139075512D01*
X314039909Y-139053748D01*
X314067320Y-139002465D01*
X314070046Y-138993478D01*
X314135484Y-138862613D01*
X314296421Y-138701676D01*
X316320893Y-138703754D01*
X316283460Y-138710147D01*
X316258374Y-138719747D01*
X316232345Y-138726312D01*
X316195532Y-138743796D01*
X316189016Y-138746290D01*
X316165050Y-138758274D01*
X316110461Y-138784201D01*
X316104852Y-138788375D01*
X315575891Y-139052875D01*
X315566901Y-139055602D01*
X315515610Y-139083018D01*
X315493855Y-139093896D01*
X315485961Y-139098865D01*
X315447901Y-139119209D01*
X315428982Y-139134735D01*
X315408278Y-139147769D01*
X315376957Y-139177431D01*
X315369731Y-139183361D01*
X315352496Y-139200596D01*
X315310306Y-139240551D01*
X315304880Y-139248212D01*
X314893100Y-139659992D01*
X314885432Y-139665423D01*
X314845457Y-139707635D01*
X314828250Y-139724842D01*
X314822326Y-139732061D01*
X314792651Y-139763396D01*
X314779617Y-139784101D01*
X314764098Y-139803011D01*
X314743757Y-139841066D01*
X314738779Y-139848974D01*
X314727891Y-139870750D01*
X314700491Y-139922011D01*
X314697763Y-139931003D01*
X314433262Y-140459989D01*
X314429079Y-140465610D01*
X314403124Y-140520262D01*
X314391175Y-140544160D01*
X314388685Y-140550666D01*
X314371194Y-140587497D01*
X314364629Y-140613531D01*
X314355034Y-140638604D01*
X314348171Y-140678795D01*
X314346467Y-140685550D01*
X314342503Y-140711982D01*
X314332320Y-140771612D01*
X314332511Y-140778614D01*
X314246316Y-141353379D01*
X313890000Y-140997063D01*
X313890000Y-140475556D01*
X313893797Y-140437000D01*
X313890000Y-140398444D01*
X313890000Y-140398439D01*
X313885760Y-140355386D01*
X313878642Y-140283113D01*
X313837885Y-140148758D01*
X313833754Y-140135140D01*
X313760862Y-139998767D01*
X313662764Y-139879236D01*
X313632806Y-139854650D01*
X313487348Y-139709191D01*
X313462764Y-139679236D01*
X313343233Y-139581138D01*
X313206860Y-139508246D01*
X313058887Y-139463359D01*
X312943561Y-139452000D01*
X312943553Y-139452000D01*
X312905000Y-139448203D01*
X312866447Y-139452000D01*
X303848214Y-139452000D01*
X303809661Y-139448203D01*
X303771108Y-139452000D01*
X303771101Y-139452000D01*
X303670152Y-139461943D01*
X303655774Y-139463359D01*
X303507802Y-139508246D01*
X303371429Y-139581138D01*
X303339980Y-139606948D01*
X303281849Y-139654655D01*
X303281846Y-139654658D01*
X303251898Y-139679236D01*
X303227320Y-139709184D01*
X298996782Y-143939723D01*
X298860151Y-143939723D01*
X298640872Y-143983340D01*
X298434315Y-144068899D01*
X298248419Y-144193111D01*
X298090327Y-144351203D01*
X298064757Y-144389471D01*
X297815000Y-144139714D01*
X297815000Y-143154683D01*
X297884494Y-143117537D01*
X297981185Y-143038185D01*
X298060537Y-142941494D01*
X298119502Y-142831180D01*
X298155812Y-142711482D01*
X298168072Y-142587000D01*
X298168072Y-141087000D01*
X298155812Y-140962518D01*
X298119502Y-140842820D01*
X298060537Y-140732506D01*
X297981185Y-140635815D01*
X297884494Y-140556463D01*
X297774180Y-140497498D01*
X297654482Y-140461188D01*
X297530000Y-140448928D01*
X296530000Y-140448928D01*
X296404864Y-140461319D01*
X296379936Y-140468909D01*
X296354482Y-140461188D01*
X296230000Y-140448928D01*
X295080000Y-140448928D01*
X294955518Y-140461188D01*
X294835820Y-140497498D01*
X294725506Y-140556463D01*
X294628815Y-140635815D01*
X294549463Y-140732506D01*
X294490498Y-140842820D01*
X294454188Y-140962518D01*
X294441928Y-141087000D01*
X294441928Y-142587000D01*
X294454188Y-142711482D01*
X294490498Y-142831180D01*
X294549463Y-142941494D01*
X294628815Y-143038185D01*
X294725506Y-143117537D01*
X294795001Y-143154683D01*
X294795001Y-144272272D01*
X294791203Y-144310835D01*
X294806359Y-144464721D01*
X294851246Y-144612694D01*
X294856695Y-144622888D01*
X294924139Y-144749068D01*
X294945113Y-144774624D01*
X294997655Y-144838647D01*
X294997659Y-144838651D01*
X295022237Y-144868599D01*
X295052185Y-144893177D01*
X296260966Y-146101959D01*
X296260966Y-146238589D01*
X296304583Y-146457868D01*
X296390142Y-146664425D01*
X296502928Y-146833221D01*
X296502312Y-146834144D01*
X296416753Y-147040701D01*
X296373136Y-147259980D01*
X296373136Y-147483556D01*
X296416753Y-147702835D01*
X296502312Y-147909392D01*
X296626524Y-148095288D01*
X296784616Y-148253380D01*
X296970512Y-148377592D01*
X297177069Y-148463151D01*
X297396348Y-148506768D01*
X297601424Y-148506768D01*
X297613617Y-148568067D01*
X297699176Y-148774624D01*
X297823388Y-148960520D01*
X297981480Y-149118612D01*
X298167376Y-149242824D01*
X298373933Y-149328383D01*
X298593212Y-149372000D01*
X298816788Y-149372000D01*
X299036067Y-149328383D01*
X299242624Y-149242824D01*
X299428520Y-149118612D01*
X299533268Y-149013864D01*
X299565993Y-149010641D01*
X299713966Y-148965754D01*
X299850339Y-148892862D01*
X299969870Y-148794764D01*
X299994453Y-148764811D01*
X300612540Y-148146723D01*
X300642488Y-148122146D01*
X300740586Y-148002615D01*
X300813478Y-147866242D01*
X300855621Y-147727314D01*
X300858365Y-147718270D01*
X300860226Y-147699376D01*
X300869724Y-147602943D01*
X300869724Y-147602936D01*
X300873521Y-147564383D01*
X300869724Y-147525830D01*
X300869724Y-147182433D01*
X303930158Y-144122000D01*
X309189614Y-144122000D01*
X309153820Y-144239997D01*
X309129492Y-144487000D01*
X309153820Y-144734003D01*
X309225868Y-144971514D01*
X309342868Y-145190405D01*
X309500323Y-145382265D01*
X309627943Y-145487000D01*
X309500323Y-145591735D01*
X309409831Y-145702000D01*
X307448613Y-145702000D01*
X307342618Y-145631176D01*
X307136061Y-145545617D01*
X306916782Y-145502000D01*
X306693206Y-145502000D01*
X306473927Y-145545617D01*
X306267370Y-145631176D01*
X306081474Y-145755388D01*
X305923382Y-145913480D01*
X305799170Y-146099376D01*
X305713611Y-146305933D01*
X305669994Y-146525212D01*
X305669994Y-146748788D01*
X305713611Y-146968067D01*
X305799170Y-147174624D01*
X305923382Y-147360520D01*
X306081474Y-147518612D01*
X306267370Y-147642824D01*
X306473927Y-147728383D01*
X306693206Y-147772000D01*
X306916782Y-147772000D01*
X307136061Y-147728383D01*
X307342618Y-147642824D01*
X307528514Y-147518612D01*
X307686606Y-147360520D01*
X307745753Y-147272000D01*
X309409831Y-147272000D01*
X309500323Y-147382265D01*
X309627943Y-147487000D01*
X309500323Y-147591735D01*
X309342868Y-147783595D01*
X309225868Y-148002486D01*
X309153820Y-148239997D01*
X309129492Y-148487000D01*
X309153820Y-148734003D01*
X309225868Y-148971514D01*
X309342868Y-149190405D01*
X309500323Y-149382265D01*
X309626207Y-149485575D01*
X309589973Y-149509906D01*
X309414831Y-149685848D01*
X309277379Y-149892578D01*
X309182899Y-150122151D01*
X309177306Y-150165460D01*
X309301686Y-150360000D01*
X311143588Y-150360000D01*
X311143588Y-150340000D01*
X311397588Y-150340000D01*
X311397588Y-150360000D01*
X313239490Y-150360000D01*
X313363870Y-150165460D01*
X313358277Y-150122151D01*
X313263797Y-149892578D01*
X313126345Y-149685848D01*
X312951203Y-149509906D01*
X312914969Y-149485575D01*
X313040853Y-149382265D01*
X313198308Y-149190405D01*
X313315308Y-148971514D01*
X313387356Y-148734003D01*
X313411684Y-148487000D01*
X313387356Y-148239997D01*
X313315308Y-148002486D01*
X313198308Y-147783595D01*
X313040853Y-147591735D01*
X312913233Y-147487000D01*
X313040853Y-147382265D01*
X313133297Y-147269622D01*
X313224475Y-147260641D01*
X313296324Y-147238846D01*
X313320470Y-147484003D01*
X313392518Y-147721514D01*
X313509518Y-147940405D01*
X313666973Y-148132265D01*
X313794593Y-148237000D01*
X313666973Y-148341735D01*
X313509518Y-148533595D01*
X313392518Y-148752486D01*
X313320470Y-148989997D01*
X313296142Y-149237000D01*
X313320470Y-149484003D01*
X313392518Y-149721514D01*
X313509518Y-149940405D01*
X313666973Y-150132265D01*
X313858833Y-150289720D01*
X314077724Y-150406720D01*
X314315235Y-150478768D01*
X314500345Y-150497000D01*
X316374131Y-150497000D01*
X316559241Y-150478768D01*
X316796752Y-150406720D01*
X317015643Y-150289720D01*
X317207503Y-150132265D01*
X317364958Y-149940405D01*
X317481958Y-149721514D01*
X317554006Y-149484003D01*
X317578334Y-149237000D01*
X317564352Y-149095043D01*
X317865065Y-148794331D01*
X317895012Y-148769754D01*
X317920369Y-148738858D01*
X317961955Y-148688185D01*
X317993110Y-148650223D01*
X318066002Y-148513850D01*
X318110889Y-148365877D01*
X318122248Y-148250551D01*
X318122248Y-148250544D01*
X318126045Y-148211991D01*
X318122248Y-148173438D01*
X318122248Y-145197969D01*
X318126045Y-145159413D01*
X318122248Y-145120857D01*
X318122248Y-145120852D01*
X318117049Y-145068070D01*
X318110890Y-145005526D01*
X318066002Y-144857553D01*
X318055897Y-144838647D01*
X317993110Y-144721180D01*
X317895012Y-144601649D01*
X317865058Y-144577066D01*
X317756748Y-144468756D01*
X320119487Y-144468756D01*
X320136790Y-144471294D01*
X320186803Y-144468756D01*
X320203095Y-144468756D01*
X320220410Y-144467051D01*
X320237782Y-144466169D01*
X320253887Y-144463753D01*
X320303731Y-144458844D01*
X320320471Y-144453766D01*
X320916812Y-144364318D01*
X320923797Y-144364508D01*
X320983444Y-144354323D01*
X321009887Y-144350357D01*
X321016624Y-144348658D01*
X321056805Y-144341797D01*
X321081896Y-144332195D01*
X321107939Y-144325627D01*
X321144758Y-144308140D01*
X321151249Y-144305656D01*
X321175158Y-144293702D01*
X321229824Y-144267738D01*
X321235433Y-144263564D01*
X321764427Y-143999066D01*
X321773425Y-143996337D01*
X321824702Y-143968929D01*
X321846456Y-143958052D01*
X321854359Y-143953077D01*
X321892426Y-143932730D01*
X321911336Y-143917210D01*
X321932035Y-143904181D01*
X321963371Y-143874507D01*
X321970595Y-143868578D01*
X321987804Y-143851369D01*
X322030009Y-143811402D01*
X322035442Y-143803731D01*
X322447232Y-143391943D01*
X322454895Y-143386516D01*
X322494836Y-143344340D01*
X322512078Y-143327098D01*
X322518014Y-143319865D01*
X322547676Y-143288543D01*
X322560707Y-143267843D01*
X322576229Y-143248929D01*
X322596572Y-143210869D01*
X322601548Y-143202965D01*
X322612434Y-143181194D01*
X322639836Y-143129928D01*
X322642563Y-143120937D01*
X322907062Y-142591960D01*
X322911228Y-142586362D01*
X322937172Y-142531741D01*
X322949153Y-142507781D01*
X322951639Y-142501286D01*
X322969121Y-142464480D01*
X322975693Y-142438428D01*
X322985294Y-142413337D01*
X322992153Y-142373170D01*
X322993854Y-142366428D01*
X322997826Y-142339955D01*
X323008008Y-142280329D01*
X323007818Y-142273349D01*
X323094857Y-141693184D01*
X323095238Y-141692112D01*
X323104819Y-141626778D01*
X323109688Y-141594323D01*
X323109746Y-141593180D01*
X323114816Y-141558607D01*
X323113159Y-141525969D01*
X323114816Y-141493331D01*
X323109746Y-141458759D01*
X323109688Y-141457614D01*
X323104816Y-141425141D01*
X323095238Y-141359825D01*
X323094857Y-141358753D01*
X323007818Y-140778590D01*
X323008008Y-140771610D01*
X322997826Y-140711985D01*
X322993854Y-140685511D01*
X322992153Y-140678769D01*
X322985294Y-140638602D01*
X322975693Y-140613511D01*
X322969121Y-140587459D01*
X322951639Y-140550653D01*
X322949153Y-140544158D01*
X322937172Y-140520198D01*
X322911228Y-140465577D01*
X322907062Y-140459979D01*
X322642563Y-139931002D01*
X322639836Y-139922011D01*
X322612434Y-139870745D01*
X322601548Y-139848974D01*
X322596572Y-139841070D01*
X322576229Y-139803010D01*
X322560707Y-139784096D01*
X322547676Y-139763396D01*
X322518014Y-139732074D01*
X322512078Y-139724841D01*
X322494836Y-139707599D01*
X322454895Y-139665423D01*
X322447232Y-139659996D01*
X322035442Y-139248208D01*
X322030009Y-139240537D01*
X321987804Y-139200570D01*
X321970595Y-139183361D01*
X321963371Y-139177432D01*
X321932035Y-139147758D01*
X321911336Y-139134729D01*
X321892426Y-139119209D01*
X321854359Y-139098862D01*
X321846456Y-139093887D01*
X321824702Y-139083010D01*
X321773425Y-139055602D01*
X321764427Y-139052873D01*
X321235433Y-138788375D01*
X321229824Y-138784201D01*
X321175158Y-138758237D01*
X321151249Y-138746283D01*
X321144758Y-138743799D01*
X321107939Y-138726312D01*
X321081896Y-138719744D01*
X321056805Y-138710142D01*
X321047805Y-138708605D01*
X322982259Y-138710590D01*
X323134288Y-138862633D01*
X323199754Y-138993516D01*
X323202469Y-139002465D01*
X323229906Y-139053796D01*
X323240805Y-139075586D01*
X323245751Y-139083441D01*
X323266076Y-139121466D01*
X323281632Y-139140420D01*
X323294689Y-139161156D01*
X323324325Y-139192442D01*
X323351677Y-139225770D01*
X323370629Y-139241324D01*
X323387483Y-139259116D01*
X323422651Y-139284017D01*
X323455981Y-139311371D01*
X323477607Y-139322930D01*
X323497606Y-139337091D01*
X323536957Y-139354653D01*
X323574982Y-139374978D01*
X323598446Y-139382096D01*
X323620824Y-139392083D01*
X323662845Y-139401631D01*
X323704105Y-139414147D01*
X323728506Y-139416550D01*
X323752402Y-139421980D01*
X323795477Y-139423147D01*
X323804741Y-139424059D01*
X323829168Y-139424059D01*
X323887287Y-139425633D01*
X323896496Y-139424059D01*
X324099170Y-139424059D01*
X324576660Y-139503636D01*
X324949536Y-139690074D01*
X325250926Y-139991479D01*
X325437392Y-140364380D01*
X325516983Y-140841850D01*
X325516982Y-151106816D01*
X313246913Y-151106816D01*
X313263797Y-151081422D01*
X313358277Y-150851849D01*
X313363870Y-150808540D01*
X313239490Y-150614000D01*
X311397588Y-150614000D01*
X311397588Y-150634000D01*
X311143588Y-150634000D01*
X311143588Y-150614000D01*
X309301686Y-150614000D01*
X309177306Y-150808540D01*
X309182899Y-150851849D01*
X309277379Y-151081422D01*
X309294263Y-151106816D01*
X291108856Y-151106816D01*
X291232013Y-150922499D01*
X291317572Y-150715942D01*
X291361189Y-150496663D01*
X291361189Y-150273087D01*
X291317572Y-150053808D01*
X291232013Y-149847251D01*
X291157648Y-149735956D01*
X291199779Y-149672903D01*
X291285338Y-149466346D01*
X291328955Y-149247067D01*
X291328955Y-149023491D01*
X291285338Y-148804212D01*
X291199779Y-148597655D01*
X291162096Y-148541258D01*
X291240738Y-148423562D01*
X291326297Y-148217005D01*
X291369914Y-147997726D01*
X291369914Y-147774150D01*
X291326297Y-147554871D01*
X291240738Y-147348314D01*
X291180705Y-147258469D01*
X291237443Y-147173555D01*
X291323002Y-146966998D01*
X291366619Y-146747719D01*
X291366619Y-146524143D01*
X291323002Y-146304864D01*
X291237443Y-146098307D01*
X291113231Y-145912411D01*
X290955139Y-145754319D01*
X290769243Y-145630107D01*
X290562686Y-145544548D01*
X290343407Y-145500931D01*
X290119831Y-145500931D01*
X289900552Y-145544548D01*
X289693995Y-145630107D01*
X289508099Y-145754319D01*
X289411487Y-145850931D01*
X289406110Y-145850931D01*
X289367557Y-145847134D01*
X289329004Y-145850931D01*
X289328997Y-145850931D01*
X289236830Y-145860009D01*
X289213670Y-145862290D01*
X289192098Y-145868834D01*
X289065698Y-145907177D01*
X288929325Y-145980069D01*
X288873605Y-146025798D01*
X288839745Y-146053586D01*
X288839742Y-146053589D01*
X288809794Y-146078167D01*
X288785216Y-146108115D01*
X286491320Y-148402012D01*
X275890524Y-148402012D01*
X275904585Y-148368067D01*
X275948202Y-148148788D01*
X275948202Y-147925212D01*
X275904585Y-147705933D01*
X275819026Y-147499376D01*
X275767325Y-147422000D01*
X280318200Y-147422000D01*
X280414812Y-147518612D01*
X280600708Y-147642824D01*
X280807265Y-147728383D01*
X281026544Y-147772000D01*
X281250120Y-147772000D01*
X281469399Y-147728383D01*
X281675956Y-147642824D01*
X281861852Y-147518612D01*
X282019944Y-147360520D01*
X282144156Y-147174624D01*
X282229715Y-146968067D01*
X282273332Y-146748788D01*
X282273332Y-146525212D01*
X282229715Y-146305933D01*
X282144156Y-146099376D01*
X282019944Y-145913480D01*
X281861852Y-145755388D01*
X281675956Y-145631176D01*
X281469399Y-145545617D01*
X281250120Y-145502000D01*
X281026544Y-145502000D01*
X280807265Y-145545617D01*
X280600708Y-145631176D01*
X280414812Y-145755388D01*
X280318200Y-145852000D01*
X275625132Y-145852000D01*
X275528520Y-145755388D01*
X275342624Y-145631176D01*
X275136067Y-145545617D01*
X274916788Y-145502000D01*
X274693212Y-145502000D01*
X274473933Y-145545617D01*
X274267376Y-145631176D01*
X274240063Y-145649426D01*
X274239920Y-145522750D01*
X274081170Y-145364000D01*
X272731920Y-145364000D01*
X272731920Y-145384000D01*
X272477920Y-145384000D01*
X272477920Y-145364000D01*
X272457920Y-145364000D01*
X272457920Y-145110000D01*
X272477920Y-145110000D01*
X272477920Y-141760750D01*
X272731920Y-141760750D01*
X272731920Y-145110000D01*
X274081170Y-145110000D01*
X274239920Y-144951250D01*
X274240968Y-144025212D01*
X280870000Y-144025212D01*
X280870000Y-144248788D01*
X280913617Y-144468067D01*
X280999176Y-144674624D01*
X281123388Y-144860520D01*
X281281480Y-145018612D01*
X281467376Y-145142824D01*
X281673933Y-145228383D01*
X281893212Y-145272000D01*
X282116788Y-145272000D01*
X282336067Y-145228383D01*
X282542624Y-145142824D01*
X282728520Y-145018612D01*
X282886612Y-144860520D01*
X282977022Y-144725212D01*
X285270000Y-144725212D01*
X285270000Y-144948788D01*
X285313617Y-145168067D01*
X285399176Y-145374624D01*
X285523388Y-145560520D01*
X285681480Y-145718612D01*
X285867376Y-145842824D01*
X286073933Y-145928383D01*
X286293212Y-145972000D01*
X286516788Y-145972000D01*
X286736067Y-145928383D01*
X286942624Y-145842824D01*
X287128520Y-145718612D01*
X287286612Y-145560520D01*
X287410824Y-145374624D01*
X287496383Y-145168067D01*
X287540000Y-144948788D01*
X287540000Y-144725212D01*
X287496383Y-144505933D01*
X287410824Y-144299376D01*
X287286612Y-144113480D01*
X287128520Y-143955388D01*
X286942624Y-143831176D01*
X286736067Y-143745617D01*
X286516788Y-143702000D01*
X286293212Y-143702000D01*
X286073933Y-143745617D01*
X285867376Y-143831176D01*
X285681480Y-143955388D01*
X285523388Y-144113480D01*
X285399176Y-144299376D01*
X285313617Y-144505933D01*
X285270000Y-144725212D01*
X282977022Y-144725212D01*
X283010824Y-144674624D01*
X283096383Y-144468067D01*
X283140000Y-144248788D01*
X283140000Y-144025212D01*
X283096383Y-143805933D01*
X283010824Y-143599376D01*
X282886612Y-143413480D01*
X282728520Y-143255388D01*
X282542624Y-143131176D01*
X282336067Y-143045617D01*
X282116788Y-143002000D01*
X281893212Y-143002000D01*
X281673933Y-143045617D01*
X281467376Y-143131176D01*
X281281480Y-143255388D01*
X281123388Y-143413480D01*
X280999176Y-143599376D01*
X280913617Y-143805933D01*
X280870000Y-144025212D01*
X274240968Y-144025212D01*
X274242992Y-142237000D01*
X274230732Y-142112518D01*
X274194422Y-141992820D01*
X274135457Y-141882506D01*
X274056105Y-141785815D01*
X273959414Y-141706463D01*
X273849100Y-141647498D01*
X273729402Y-141611188D01*
X273604920Y-141598928D01*
X272890670Y-141602000D01*
X272731920Y-141760750D01*
X272477920Y-141760750D01*
X272319170Y-141602000D01*
X271604920Y-141598928D01*
X271480438Y-141611188D01*
X271360740Y-141647498D01*
X271250426Y-141706463D01*
X271153735Y-141785815D01*
X271104920Y-141845296D01*
X271056105Y-141785815D01*
X270959414Y-141706463D01*
X270849100Y-141647498D01*
X270729402Y-141611188D01*
X270680501Y-141606372D01*
X270696367Y-141568067D01*
X270739984Y-141348788D01*
X270739984Y-141125212D01*
X270696367Y-140905933D01*
X270610808Y-140699376D01*
X270486596Y-140513480D01*
X270328504Y-140355388D01*
X270142608Y-140231176D01*
X269936051Y-140145617D01*
X269716772Y-140102000D01*
X269493196Y-140102000D01*
X269273917Y-140145617D01*
X269067360Y-140231176D01*
X268881464Y-140355388D01*
X268723372Y-140513480D01*
X268599160Y-140699376D01*
X268513601Y-140905933D01*
X268469984Y-141125212D01*
X268469984Y-141348788D01*
X268513601Y-141568067D01*
X268529462Y-141606360D01*
X268480438Y-141611188D01*
X268360740Y-141647498D01*
X268250426Y-141706463D01*
X268153735Y-141785815D01*
X268104920Y-141845296D01*
X268056105Y-141785815D01*
X267959414Y-141706463D01*
X267849100Y-141647498D01*
X267729402Y-141611188D01*
X267604920Y-141598928D01*
X266890670Y-141602000D01*
X266731920Y-141760750D01*
X266731920Y-145110000D01*
X266751920Y-145110000D01*
X266751920Y-145364000D01*
X266731920Y-145364000D01*
X266731920Y-145384000D01*
X266477920Y-145384000D01*
X266477920Y-145364000D01*
X265128670Y-145364000D01*
X264969920Y-145522750D01*
X264969816Y-145614853D01*
X264802667Y-145545617D01*
X264583388Y-145502000D01*
X264359812Y-145502000D01*
X264140533Y-145545617D01*
X263933976Y-145631176D01*
X263748080Y-145755388D01*
X263651468Y-145852000D01*
X258812348Y-145852000D01*
X258786610Y-145813480D01*
X258628518Y-145655388D01*
X258442622Y-145531176D01*
X258236065Y-145445617D01*
X258016786Y-145402000D01*
X257793210Y-145402000D01*
X257573931Y-145445617D01*
X257518915Y-145468405D01*
X257414510Y-145364000D01*
X256065260Y-145364000D01*
X256065260Y-145384000D01*
X255811260Y-145384000D01*
X255811260Y-145364000D01*
X255791260Y-145364000D01*
X255791260Y-145110000D01*
X255811260Y-145110000D01*
X255811260Y-141760750D01*
X256065260Y-141760750D01*
X256065260Y-145110000D01*
X257414510Y-145110000D01*
X257573260Y-144951250D01*
X257574308Y-144025212D01*
X263261542Y-144025212D01*
X263261542Y-144248788D01*
X263305159Y-144468067D01*
X263390718Y-144674624D01*
X263514930Y-144860520D01*
X263673022Y-145018612D01*
X263858918Y-145142824D01*
X264065475Y-145228383D01*
X264284754Y-145272000D01*
X264508330Y-145272000D01*
X264727609Y-145228383D01*
X264934166Y-145142824D01*
X265070439Y-145051769D01*
X265128670Y-145110000D01*
X266477920Y-145110000D01*
X266477920Y-141760750D01*
X266319170Y-141602000D01*
X265604920Y-141598928D01*
X265480438Y-141611188D01*
X265360740Y-141647498D01*
X265250426Y-141706463D01*
X265153735Y-141785815D01*
X265074383Y-141882506D01*
X265015418Y-141992820D01*
X264979108Y-142112518D01*
X264966848Y-142237000D01*
X264967886Y-143153707D01*
X264934166Y-143131176D01*
X264727609Y-143045617D01*
X264508330Y-143002000D01*
X264284754Y-143002000D01*
X264065475Y-143045617D01*
X263858918Y-143131176D01*
X263673022Y-143255388D01*
X263514930Y-143413480D01*
X263390718Y-143599376D01*
X263305159Y-143805933D01*
X263261542Y-144025212D01*
X257574308Y-144025212D01*
X257576332Y-142237000D01*
X257564072Y-142112518D01*
X257527762Y-141992820D01*
X257468797Y-141882506D01*
X257389445Y-141785815D01*
X257292754Y-141706463D01*
X257182440Y-141647498D01*
X257062742Y-141611188D01*
X256938260Y-141598928D01*
X256224010Y-141602000D01*
X256065260Y-141760750D01*
X255811260Y-141760750D01*
X255652510Y-141602000D01*
X254938260Y-141598928D01*
X254813778Y-141611188D01*
X254694080Y-141647498D01*
X254583766Y-141706463D01*
X254487075Y-141785815D01*
X254438260Y-141845296D01*
X254389445Y-141785815D01*
X254292754Y-141706463D01*
X254182440Y-141647498D01*
X254062742Y-141611188D01*
X254013835Y-141606371D01*
X254029701Y-141568067D01*
X254073318Y-141348788D01*
X254073318Y-141125212D01*
X254029701Y-140905933D01*
X253944142Y-140699376D01*
X253819930Y-140513480D01*
X253661838Y-140355388D01*
X253475942Y-140231176D01*
X253269385Y-140145617D01*
X253050106Y-140102000D01*
X252826530Y-140102000D01*
X252607251Y-140145617D01*
X252400694Y-140231176D01*
X252214798Y-140355388D01*
X252056706Y-140513480D01*
X251932494Y-140699376D01*
X251846935Y-140905933D01*
X251803318Y-141125212D01*
X251803318Y-141348788D01*
X251846935Y-141568067D01*
X251862797Y-141606360D01*
X251813778Y-141611188D01*
X251694080Y-141647498D01*
X251583766Y-141706463D01*
X251487075Y-141785815D01*
X251438260Y-141845296D01*
X251389445Y-141785815D01*
X251292754Y-141706463D01*
X251182440Y-141647498D01*
X251062742Y-141611188D01*
X250938260Y-141598928D01*
X250224010Y-141602000D01*
X250065260Y-141760750D01*
X250065260Y-145110000D01*
X250085260Y-145110000D01*
X250085260Y-145364000D01*
X250065260Y-145364000D01*
X250065260Y-145384000D01*
X249811260Y-145384000D01*
X249811260Y-145364000D01*
X249791260Y-145364000D01*
X249791260Y-145110000D01*
X249811260Y-145110000D01*
X249811260Y-141760750D01*
X249652510Y-141602000D01*
X248938260Y-141598928D01*
X248813778Y-141611188D01*
X248694080Y-141647498D01*
X248583766Y-141706463D01*
X248487075Y-141785815D01*
X248407723Y-141882506D01*
X248348758Y-141992820D01*
X248312448Y-142112518D01*
X248300188Y-142237000D01*
X248301679Y-143554007D01*
X248267510Y-143531176D01*
X248060953Y-143445617D01*
X247841674Y-143402000D01*
X247618098Y-143402000D01*
X247398819Y-143445617D01*
X247192262Y-143531176D01*
X247006366Y-143655388D01*
X246848274Y-143813480D01*
X246724062Y-143999376D01*
X246638503Y-144205933D01*
X246594886Y-144425212D01*
X246594886Y-144648788D01*
X246638503Y-144868067D01*
X246724062Y-145074624D01*
X246848274Y-145260520D01*
X247006366Y-145418612D01*
X247192262Y-145542824D01*
X247336469Y-145602557D01*
X247267376Y-145631176D01*
X247081480Y-145755388D01*
X246984868Y-145852000D01*
X242225132Y-145852000D01*
X242128520Y-145755388D01*
X241942624Y-145631176D01*
X241736067Y-145545617D01*
X241516788Y-145502000D01*
X241293212Y-145502000D01*
X241073933Y-145545617D01*
X240906704Y-145614886D01*
X240906600Y-145522750D01*
X240747850Y-145364000D01*
X239398600Y-145364000D01*
X239398600Y-145384000D01*
X239144600Y-145384000D01*
X239144600Y-145364000D01*
X239124600Y-145364000D01*
X239124600Y-145110000D01*
X239144600Y-145110000D01*
X239144600Y-141760750D01*
X239398600Y-141760750D01*
X239398600Y-145110000D01*
X240747850Y-145110000D01*
X240906600Y-144951250D01*
X240909672Y-142237000D01*
X240897412Y-142112518D01*
X240861102Y-141992820D01*
X240802137Y-141882506D01*
X240722785Y-141785815D01*
X240626094Y-141706463D01*
X240515780Y-141647498D01*
X240396082Y-141611188D01*
X240271600Y-141598928D01*
X239557350Y-141602000D01*
X239398600Y-141760750D01*
X239144600Y-141760750D01*
X238985850Y-141602000D01*
X238271600Y-141598928D01*
X238147118Y-141611188D01*
X238027420Y-141647498D01*
X237917106Y-141706463D01*
X237820415Y-141785815D01*
X237771600Y-141845296D01*
X237722785Y-141785815D01*
X237626094Y-141706463D01*
X237515780Y-141647498D01*
X237396082Y-141611188D01*
X237347169Y-141606371D01*
X237363035Y-141568067D01*
X237406652Y-141348788D01*
X237406652Y-141125212D01*
X237363035Y-140905933D01*
X237277476Y-140699376D01*
X237153264Y-140513480D01*
X236995172Y-140355388D01*
X236809276Y-140231176D01*
X236602719Y-140145617D01*
X236383440Y-140102000D01*
X236159864Y-140102000D01*
X235940585Y-140145617D01*
X235734028Y-140231176D01*
X235548132Y-140355388D01*
X235390040Y-140513480D01*
X235265828Y-140699376D01*
X235180269Y-140905933D01*
X235136652Y-141125212D01*
X235136652Y-141348788D01*
X235180269Y-141568067D01*
X235196131Y-141606361D01*
X235147118Y-141611188D01*
X235027420Y-141647498D01*
X234917106Y-141706463D01*
X234820415Y-141785815D01*
X234771600Y-141845296D01*
X234722785Y-141785815D01*
X234626094Y-141706463D01*
X234515780Y-141647498D01*
X234396082Y-141611188D01*
X234271600Y-141598928D01*
X233557350Y-141602000D01*
X233398600Y-141760750D01*
X233398600Y-145110000D01*
X233418600Y-145110000D01*
X233418600Y-145364000D01*
X233398600Y-145364000D01*
X233398600Y-145384000D01*
X233144600Y-145384000D01*
X233144600Y-145364000D01*
X233124600Y-145364000D01*
X233124600Y-145110000D01*
X233144600Y-145110000D01*
X233144600Y-141760750D01*
X232985850Y-141602000D01*
X232271600Y-141598928D01*
X232147118Y-141611188D01*
X232027420Y-141647498D01*
X231917106Y-141706463D01*
X231820415Y-141785815D01*
X231741063Y-141882506D01*
X231682098Y-141992820D01*
X231645788Y-142112518D01*
X231633528Y-142237000D01*
X231634792Y-143353853D01*
X231600854Y-143331176D01*
X231394297Y-143245617D01*
X231175018Y-143202000D01*
X230951442Y-143202000D01*
X230732163Y-143245617D01*
X230525606Y-143331176D01*
X230339710Y-143455388D01*
X230181618Y-143613480D01*
X230057406Y-143799376D01*
X229971847Y-144005933D01*
X229928230Y-144225212D01*
X229928230Y-144448788D01*
X229971847Y-144668067D01*
X230057406Y-144874624D01*
X230181618Y-145060520D01*
X230339710Y-145218612D01*
X230525606Y-145342824D01*
X230732163Y-145428383D01*
X230951442Y-145472000D01*
X231175018Y-145472000D01*
X231394297Y-145428383D01*
X231600854Y-145342824D01*
X231636600Y-145318939D01*
X231636600Y-145364002D01*
X231795348Y-145364002D01*
X231636600Y-145522750D01*
X231636496Y-145614830D01*
X231469401Y-145545617D01*
X231250122Y-145502000D01*
X231026546Y-145502000D01*
X230807267Y-145545617D01*
X230600710Y-145631176D01*
X230414814Y-145755388D01*
X230318202Y-145852000D01*
X225625132Y-145852000D01*
X225528520Y-145755388D01*
X225342624Y-145631176D01*
X225136067Y-145545617D01*
X224916788Y-145502000D01*
X224693212Y-145502000D01*
X224473933Y-145545617D01*
X224267376Y-145631176D01*
X224240083Y-145649412D01*
X224239940Y-145522750D01*
X224081190Y-145364000D01*
X222731940Y-145364000D01*
X222731940Y-145384000D01*
X222477940Y-145384000D01*
X222477940Y-145364000D01*
X222457940Y-145364000D01*
X222457940Y-145110000D01*
X222477940Y-145110000D01*
X222477940Y-141760750D01*
X222731940Y-141760750D01*
X222731940Y-145110000D01*
X224081190Y-145110000D01*
X224239940Y-144951250D01*
X224243012Y-142237000D01*
X224230752Y-142112518D01*
X224194442Y-141992820D01*
X224135477Y-141882506D01*
X224056125Y-141785815D01*
X223959434Y-141706463D01*
X223849120Y-141647498D01*
X223729422Y-141611188D01*
X223604940Y-141598928D01*
X222890690Y-141602000D01*
X222731940Y-141760750D01*
X222477940Y-141760750D01*
X222319190Y-141602000D01*
X221604940Y-141598928D01*
X221480458Y-141611188D01*
X221360760Y-141647498D01*
X221250446Y-141706463D01*
X221153755Y-141785815D01*
X221104940Y-141845296D01*
X221056125Y-141785815D01*
X220959434Y-141706463D01*
X220849120Y-141647498D01*
X220729422Y-141611188D01*
X220680503Y-141606370D01*
X220696369Y-141568067D01*
X220739986Y-141348788D01*
X220739986Y-141125212D01*
X220696369Y-140905933D01*
X220610810Y-140699376D01*
X220486598Y-140513480D01*
X220328506Y-140355388D01*
X220142610Y-140231176D01*
X219936053Y-140145617D01*
X219716774Y-140102000D01*
X219493198Y-140102000D01*
X219273919Y-140145617D01*
X219067362Y-140231176D01*
X218881466Y-140355388D01*
X218723374Y-140513480D01*
X218599162Y-140699376D01*
X218513603Y-140905933D01*
X218469986Y-141125212D01*
X218469986Y-141348788D01*
X218513603Y-141568067D01*
X218529465Y-141606361D01*
X218480458Y-141611188D01*
X218360760Y-141647498D01*
X218250446Y-141706463D01*
X218153755Y-141785815D01*
X218104940Y-141845296D01*
X218056125Y-141785815D01*
X217959434Y-141706463D01*
X217849120Y-141647498D01*
X217729422Y-141611188D01*
X217604940Y-141598928D01*
X216890690Y-141602000D01*
X216731940Y-141760750D01*
X216731940Y-145110000D01*
X216751940Y-145110000D01*
X216751940Y-145364000D01*
X216731940Y-145364000D01*
X216731940Y-145384000D01*
X216477940Y-145384000D01*
X216477940Y-145364000D01*
X215128690Y-145364000D01*
X214969940Y-145522750D01*
X214969891Y-145566051D01*
X214805712Y-145498046D01*
X214586433Y-145454429D01*
X214362857Y-145454429D01*
X214143578Y-145498046D01*
X213937021Y-145583605D01*
X213751125Y-145707817D01*
X213606942Y-145852000D01*
X209125132Y-145852000D01*
X209028520Y-145755388D01*
X208842624Y-145631176D01*
X208636067Y-145545617D01*
X208416788Y-145502000D01*
X208193212Y-145502000D01*
X207973933Y-145545617D01*
X207767376Y-145631176D01*
X207581480Y-145755388D01*
X207573552Y-145763316D01*
X207573280Y-145522750D01*
X207414530Y-145364000D01*
X206065280Y-145364000D01*
X206065280Y-145384000D01*
X205811280Y-145384000D01*
X205811280Y-145364000D01*
X205791280Y-145364000D01*
X205791280Y-145110000D01*
X205811280Y-145110000D01*
X205811280Y-141760750D01*
X206065280Y-141760750D01*
X206065280Y-145110000D01*
X207414530Y-145110000D01*
X207573280Y-144951250D01*
X207574328Y-144025212D01*
X213261574Y-144025212D01*
X213261574Y-144248788D01*
X213305191Y-144468067D01*
X213390750Y-144674624D01*
X213514962Y-144860520D01*
X213673054Y-145018612D01*
X213858950Y-145142824D01*
X214065507Y-145228383D01*
X214284786Y-145272000D01*
X214508362Y-145272000D01*
X214727641Y-145228383D01*
X214934198Y-145142824D01*
X215070464Y-145051774D01*
X215128690Y-145110000D01*
X216477940Y-145110000D01*
X216477940Y-141760750D01*
X216319190Y-141602000D01*
X215604940Y-141598928D01*
X215480458Y-141611188D01*
X215360760Y-141647498D01*
X215250446Y-141706463D01*
X215153755Y-141785815D01*
X215074403Y-141882506D01*
X215015438Y-141992820D01*
X214979128Y-142112518D01*
X214966868Y-142237000D01*
X214967906Y-143153699D01*
X214934198Y-143131176D01*
X214727641Y-143045617D01*
X214508362Y-143002000D01*
X214284786Y-143002000D01*
X214065507Y-143045617D01*
X213858950Y-143131176D01*
X213673054Y-143255388D01*
X213514962Y-143413480D01*
X213390750Y-143599376D01*
X213305191Y-143805933D01*
X213261574Y-144025212D01*
X207574328Y-144025212D01*
X207576352Y-142237000D01*
X207564092Y-142112518D01*
X207527782Y-141992820D01*
X207468817Y-141882506D01*
X207389465Y-141785815D01*
X207292774Y-141706463D01*
X207182460Y-141647498D01*
X207062762Y-141611188D01*
X206938280Y-141598928D01*
X206224030Y-141602000D01*
X206065280Y-141760750D01*
X205811280Y-141760750D01*
X205652530Y-141602000D01*
X204938280Y-141598928D01*
X204813798Y-141611188D01*
X204694100Y-141647498D01*
X204583786Y-141706463D01*
X204487095Y-141785815D01*
X204438280Y-141845296D01*
X204389465Y-141785815D01*
X204292774Y-141706463D01*
X204182460Y-141647498D01*
X204062762Y-141611188D01*
X204013838Y-141606370D01*
X204029703Y-141568067D01*
X204073320Y-141348788D01*
X204073320Y-141125212D01*
X204029703Y-140905933D01*
X203944144Y-140699376D01*
X203819932Y-140513480D01*
X203661840Y-140355388D01*
X203475944Y-140231176D01*
X203269387Y-140145617D01*
X203050108Y-140102000D01*
X202826532Y-140102000D01*
X202607253Y-140145617D01*
X202400696Y-140231176D01*
X202214800Y-140355388D01*
X202056708Y-140513480D01*
X201932496Y-140699376D01*
X201846937Y-140905933D01*
X201803320Y-141125212D01*
X201803320Y-141348788D01*
X201846937Y-141568067D01*
X201862799Y-141606362D01*
X201813798Y-141611188D01*
X201694100Y-141647498D01*
X201583786Y-141706463D01*
X201487095Y-141785815D01*
X201438280Y-141845296D01*
X201389465Y-141785815D01*
X201292774Y-141706463D01*
X201182460Y-141647498D01*
X201062762Y-141611188D01*
X200938280Y-141598928D01*
X200224030Y-141602000D01*
X200065280Y-141760750D01*
X200065280Y-145110000D01*
X200085280Y-145110000D01*
X200085280Y-145364000D01*
X200065280Y-145364000D01*
X200065280Y-145384000D01*
X199811280Y-145384000D01*
X199811280Y-145364000D01*
X198462030Y-145364000D01*
X198303280Y-145522750D01*
X198303176Y-145614835D01*
X198136069Y-145545617D01*
X197916790Y-145502000D01*
X197693214Y-145502000D01*
X197473935Y-145545617D01*
X197267378Y-145631176D01*
X197081482Y-145755388D01*
X196984870Y-145852000D01*
X192612350Y-145852000D01*
X192586612Y-145813480D01*
X192428520Y-145655388D01*
X192242624Y-145531176D01*
X192036067Y-145445617D01*
X191816788Y-145402000D01*
X191593212Y-145402000D01*
X191373933Y-145445617D01*
X191167376Y-145531176D01*
X190981480Y-145655388D01*
X190906855Y-145730013D01*
X190906620Y-145522750D01*
X190747870Y-145364000D01*
X189398620Y-145364000D01*
X189398620Y-145384000D01*
X189144620Y-145384000D01*
X189144620Y-145364000D01*
X189124620Y-145364000D01*
X189124620Y-145110000D01*
X189144620Y-145110000D01*
X189144620Y-141760750D01*
X189398620Y-141760750D01*
X189398620Y-145110000D01*
X190747870Y-145110000D01*
X190906620Y-144951250D01*
X190907554Y-144125212D01*
X196594918Y-144125212D01*
X196594918Y-144348788D01*
X196638535Y-144568067D01*
X196724094Y-144774624D01*
X196848306Y-144960520D01*
X197006398Y-145118612D01*
X197192294Y-145242824D01*
X197398851Y-145328383D01*
X197618130Y-145372000D01*
X197841706Y-145372000D01*
X198060985Y-145328383D01*
X198267542Y-145242824D01*
X198453438Y-145118612D01*
X198462050Y-145110000D01*
X199811280Y-145110000D01*
X199811280Y-141760750D01*
X199652530Y-141602000D01*
X198938280Y-141598928D01*
X198813798Y-141611188D01*
X198694100Y-141647498D01*
X198583786Y-141706463D01*
X198487095Y-141785815D01*
X198407743Y-141882506D01*
X198348778Y-141992820D01*
X198312468Y-142112518D01*
X198300208Y-142237000D01*
X198301359Y-143253772D01*
X198267542Y-143231176D01*
X198060985Y-143145617D01*
X197841706Y-143102000D01*
X197618130Y-143102000D01*
X197398851Y-143145617D01*
X197192294Y-143231176D01*
X197006398Y-143355388D01*
X196848306Y-143513480D01*
X196724094Y-143699376D01*
X196638535Y-143905933D01*
X196594918Y-144125212D01*
X190907554Y-144125212D01*
X190909692Y-142237000D01*
X190897432Y-142112518D01*
X190861122Y-141992820D01*
X190802157Y-141882506D01*
X190722805Y-141785815D01*
X190626114Y-141706463D01*
X190515800Y-141647498D01*
X190396102Y-141611188D01*
X190271620Y-141598928D01*
X189557370Y-141602000D01*
X189398620Y-141760750D01*
X189144620Y-141760750D01*
X188985870Y-141602000D01*
X188271620Y-141598928D01*
X188147138Y-141611188D01*
X188027440Y-141647498D01*
X187917126Y-141706463D01*
X187820435Y-141785815D01*
X187771620Y-141845296D01*
X187722805Y-141785815D01*
X187626114Y-141706463D01*
X187515800Y-141647498D01*
X187396102Y-141611188D01*
X187347172Y-141606369D01*
X187363037Y-141568067D01*
X187406654Y-141348788D01*
X187406654Y-141125212D01*
X187363037Y-140905933D01*
X187277478Y-140699376D01*
X187153266Y-140513480D01*
X186995174Y-140355388D01*
X186809278Y-140231176D01*
X186602721Y-140145617D01*
X186383442Y-140102000D01*
X186159866Y-140102000D01*
X185940587Y-140145617D01*
X185734030Y-140231176D01*
X185548134Y-140355388D01*
X185390042Y-140513480D01*
X185265830Y-140699376D01*
X185180271Y-140905933D01*
X185136654Y-141125212D01*
X185136654Y-141348788D01*
X185180271Y-141568067D01*
X185196134Y-141606363D01*
X185147138Y-141611188D01*
X185027440Y-141647498D01*
X184917126Y-141706463D01*
X184820435Y-141785815D01*
X184771620Y-141845296D01*
X184722805Y-141785815D01*
X184626114Y-141706463D01*
X184515800Y-141647498D01*
X184396102Y-141611188D01*
X184271620Y-141598928D01*
X183557370Y-141602000D01*
X183398620Y-141760750D01*
X183398620Y-145110000D01*
X183418620Y-145110000D01*
X183418620Y-145364000D01*
X183398620Y-145364000D01*
X183398620Y-145384000D01*
X183144620Y-145384000D01*
X183144620Y-145364000D01*
X181795370Y-145364000D01*
X181636620Y-145522750D01*
X181636544Y-145590023D01*
X181631309Y-145586525D01*
X181424752Y-145500966D01*
X181205473Y-145457349D01*
X180981897Y-145457349D01*
X180762618Y-145500966D01*
X180556061Y-145586525D01*
X180370165Y-145710737D01*
X180273553Y-145807349D01*
X175680481Y-145807349D01*
X175628520Y-145755388D01*
X175442624Y-145631176D01*
X175236067Y-145545617D01*
X175016788Y-145502000D01*
X174793212Y-145502000D01*
X174573933Y-145545617D01*
X174367376Y-145631176D01*
X174240179Y-145716167D01*
X174239960Y-145522750D01*
X174081210Y-145364000D01*
X172731960Y-145364000D01*
X172731960Y-145384000D01*
X172477960Y-145384000D01*
X172477960Y-145364000D01*
X172457960Y-145364000D01*
X172457960Y-145110000D01*
X172477960Y-145110000D01*
X172477960Y-141760750D01*
X172731960Y-141760750D01*
X172731960Y-145110000D01*
X174081210Y-145110000D01*
X174239960Y-144951250D01*
X174240894Y-144125212D01*
X179928262Y-144125212D01*
X179928262Y-144348788D01*
X179971879Y-144568067D01*
X180057438Y-144774624D01*
X180181650Y-144960520D01*
X180339742Y-145118612D01*
X180525638Y-145242824D01*
X180732195Y-145328383D01*
X180951474Y-145372000D01*
X181175050Y-145372000D01*
X181394329Y-145328383D01*
X181600886Y-145242824D01*
X181786782Y-145118612D01*
X181795394Y-145110000D01*
X183144620Y-145110000D01*
X183144620Y-141760750D01*
X182985870Y-141602000D01*
X182271620Y-141598928D01*
X182147138Y-141611188D01*
X182027440Y-141647498D01*
X181917126Y-141706463D01*
X181820435Y-141785815D01*
X181741083Y-141882506D01*
X181682118Y-141992820D01*
X181645808Y-142112518D01*
X181633548Y-142237000D01*
X181634699Y-143253769D01*
X181600886Y-143231176D01*
X181394329Y-143145617D01*
X181175050Y-143102000D01*
X180951474Y-143102000D01*
X180732195Y-143145617D01*
X180525638Y-143231176D01*
X180339742Y-143355388D01*
X180181650Y-143513480D01*
X180057438Y-143699376D01*
X179971879Y-143905933D01*
X179928262Y-144125212D01*
X174240894Y-144125212D01*
X174243032Y-142237000D01*
X174230772Y-142112518D01*
X174194462Y-141992820D01*
X174135497Y-141882506D01*
X174056145Y-141785815D01*
X173959454Y-141706463D01*
X173849140Y-141647498D01*
X173729442Y-141611188D01*
X173604960Y-141598928D01*
X172890710Y-141602000D01*
X172731960Y-141760750D01*
X172477960Y-141760750D01*
X172319210Y-141602000D01*
X171604960Y-141598928D01*
X171480478Y-141611188D01*
X171360780Y-141647498D01*
X171250466Y-141706463D01*
X171153775Y-141785815D01*
X171104960Y-141845296D01*
X171056145Y-141785815D01*
X170959454Y-141706463D01*
X170849140Y-141647498D01*
X170729442Y-141611188D01*
X170680506Y-141606368D01*
X170696371Y-141568067D01*
X170739988Y-141348788D01*
X170739988Y-141125212D01*
X170696371Y-140905933D01*
X170610812Y-140699376D01*
X170486600Y-140513480D01*
X170328508Y-140355388D01*
X170142612Y-140231176D01*
X169936055Y-140145617D01*
X169716776Y-140102000D01*
X169493200Y-140102000D01*
X169273921Y-140145617D01*
X169067364Y-140231176D01*
X168881468Y-140355388D01*
X168723376Y-140513480D01*
X168599164Y-140699376D01*
X168513605Y-140905933D01*
X168469988Y-141125212D01*
X168469988Y-141348788D01*
X168513605Y-141568067D01*
X168529468Y-141606363D01*
X168480478Y-141611188D01*
X168360780Y-141647498D01*
X168250466Y-141706463D01*
X168153775Y-141785815D01*
X168104960Y-141845296D01*
X168056145Y-141785815D01*
X167959454Y-141706463D01*
X167849140Y-141647498D01*
X167729442Y-141611188D01*
X167604960Y-141598928D01*
X166890710Y-141602000D01*
X166731960Y-141760750D01*
X166731960Y-145110000D01*
X166751960Y-145110000D01*
X166751960Y-145364000D01*
X166731960Y-145364000D01*
X166731960Y-145384000D01*
X166477960Y-145384000D01*
X166477960Y-145364000D01*
X165128710Y-145364000D01*
X164969960Y-145522750D01*
X164969884Y-145590028D01*
X164964648Y-145586530D01*
X164758091Y-145500971D01*
X164538812Y-145457354D01*
X164315236Y-145457354D01*
X164095957Y-145500971D01*
X163889400Y-145586530D01*
X163703504Y-145710742D01*
X163606892Y-145807354D01*
X158980486Y-145807354D01*
X158828520Y-145655388D01*
X158642624Y-145531176D01*
X158436067Y-145445617D01*
X158216788Y-145402000D01*
X157993212Y-145402000D01*
X157773933Y-145445617D01*
X157567376Y-145531176D01*
X157440106Y-145616215D01*
X157440000Y-145522750D01*
X157281250Y-145364000D01*
X155932000Y-145364000D01*
X155932000Y-145384000D01*
X155678000Y-145384000D01*
X155678000Y-145364000D01*
X155658000Y-145364000D01*
X155658000Y-145110000D01*
X155678000Y-145110000D01*
X155678000Y-141760750D01*
X155932000Y-141760750D01*
X155932000Y-145110000D01*
X157281250Y-145110000D01*
X157440000Y-144951250D01*
X157441048Y-144025212D01*
X163261606Y-144025212D01*
X163261606Y-144248788D01*
X163305223Y-144468067D01*
X163390782Y-144674624D01*
X163514994Y-144860520D01*
X163673086Y-145018612D01*
X163858982Y-145142824D01*
X164065539Y-145228383D01*
X164284818Y-145272000D01*
X164508394Y-145272000D01*
X164727673Y-145228383D01*
X164934230Y-145142824D01*
X165070489Y-145051779D01*
X165128710Y-145110000D01*
X166477960Y-145110000D01*
X166477960Y-141760750D01*
X166319210Y-141602000D01*
X165604960Y-141598928D01*
X165480478Y-141611188D01*
X165360780Y-141647498D01*
X165250466Y-141706463D01*
X165153775Y-141785815D01*
X165074423Y-141882506D01*
X165015458Y-141992820D01*
X164979148Y-142112518D01*
X164966888Y-142237000D01*
X164967926Y-143153691D01*
X164934230Y-143131176D01*
X164727673Y-143045617D01*
X164508394Y-143002000D01*
X164284818Y-143002000D01*
X164065539Y-143045617D01*
X163858982Y-143131176D01*
X163673086Y-143255388D01*
X163514994Y-143413480D01*
X163390782Y-143599376D01*
X163305223Y-143805933D01*
X163261606Y-144025212D01*
X157441048Y-144025212D01*
X157443072Y-142237000D01*
X157430812Y-142112518D01*
X157394502Y-141992820D01*
X157335537Y-141882506D01*
X157256185Y-141785815D01*
X157159494Y-141706463D01*
X157049180Y-141647498D01*
X156929482Y-141611188D01*
X156805000Y-141598928D01*
X156090750Y-141602000D01*
X155932000Y-141760750D01*
X155678000Y-141760750D01*
X155519250Y-141602000D01*
X154805000Y-141598928D01*
X154680518Y-141611188D01*
X154560820Y-141647498D01*
X154450506Y-141706463D01*
X154353815Y-141785815D01*
X154305000Y-141845296D01*
X154256185Y-141785815D01*
X154159494Y-141706463D01*
X154049180Y-141647498D01*
X153929482Y-141611188D01*
X153805000Y-141598928D01*
X151805000Y-141598928D01*
X151680518Y-141611188D01*
X151560820Y-141647498D01*
X151450506Y-141706463D01*
X151353815Y-141785815D01*
X151305000Y-141845296D01*
X151256185Y-141785815D01*
X151159494Y-141706463D01*
X151049180Y-141647498D01*
X150929482Y-141611188D01*
X150805000Y-141598928D01*
X150090750Y-141602000D01*
X149932000Y-141760750D01*
X149932000Y-145110000D01*
X149952000Y-145110000D01*
X149952000Y-145364000D01*
X149932000Y-145364000D01*
X149932000Y-145384000D01*
X149678000Y-145384000D01*
X149678000Y-145364000D01*
X148328750Y-145364000D01*
X148212866Y-145479884D01*
X148147982Y-145436530D01*
X147941425Y-145350971D01*
X147722146Y-145307354D01*
X147498570Y-145307354D01*
X147279291Y-145350971D01*
X147072734Y-145436530D01*
X146886838Y-145560742D01*
X146790226Y-145657354D01*
X142030486Y-145657354D01*
X142028520Y-145655388D01*
X141842624Y-145531176D01*
X141636067Y-145445617D01*
X141416788Y-145402000D01*
X141193212Y-145402000D01*
X140973933Y-145445617D01*
X140871808Y-145487918D01*
X140747890Y-145364000D01*
X139398640Y-145364000D01*
X139398640Y-145384000D01*
X139144640Y-145384000D01*
X139144640Y-145364000D01*
X139124640Y-145364000D01*
X139124640Y-145110000D01*
X139144640Y-145110000D01*
X139144640Y-141760750D01*
X139398640Y-141760750D01*
X139398640Y-145110000D01*
X140747890Y-145110000D01*
X140906640Y-144951250D01*
X140907801Y-143925212D01*
X146594950Y-143925212D01*
X146594950Y-144148788D01*
X146638567Y-144368067D01*
X146724126Y-144574624D01*
X146848338Y-144760520D01*
X147006430Y-144918612D01*
X147192326Y-145042824D01*
X147398883Y-145128383D01*
X147618162Y-145172000D01*
X147841738Y-145172000D01*
X148061017Y-145128383D01*
X148263331Y-145044581D01*
X148328750Y-145110000D01*
X149678000Y-145110000D01*
X149678000Y-141760750D01*
X149519250Y-141602000D01*
X148805000Y-141598928D01*
X148680518Y-141611188D01*
X148560820Y-141647498D01*
X148450506Y-141706463D01*
X148353815Y-141785815D01*
X148274463Y-141882506D01*
X148215498Y-141992820D01*
X148179188Y-142112518D01*
X148166928Y-142237000D01*
X148167780Y-142989840D01*
X148061017Y-142945617D01*
X147841738Y-142902000D01*
X147618162Y-142902000D01*
X147398883Y-142945617D01*
X147192326Y-143031176D01*
X147006430Y-143155388D01*
X146848338Y-143313480D01*
X146724126Y-143499376D01*
X146638567Y-143705933D01*
X146594950Y-143925212D01*
X140907801Y-143925212D01*
X140909712Y-142237000D01*
X140897452Y-142112518D01*
X140861142Y-141992820D01*
X140802177Y-141882506D01*
X140722825Y-141785815D01*
X140626134Y-141706463D01*
X140515820Y-141647498D01*
X140396122Y-141611188D01*
X140271640Y-141598928D01*
X139557390Y-141602000D01*
X139398640Y-141760750D01*
X139144640Y-141760750D01*
X138985890Y-141602000D01*
X138271640Y-141598928D01*
X138147158Y-141611188D01*
X138027460Y-141647498D01*
X137917146Y-141706463D01*
X137820455Y-141785815D01*
X137771640Y-141845296D01*
X137722825Y-141785815D01*
X137626134Y-141706463D01*
X137515820Y-141647498D01*
X137396122Y-141611188D01*
X137347151Y-141606365D01*
X137363015Y-141568067D01*
X137406632Y-141348788D01*
X137406632Y-141125212D01*
X137363015Y-140905933D01*
X137277456Y-140699376D01*
X137153244Y-140513480D01*
X136995152Y-140355388D01*
X136809256Y-140231176D01*
X136602699Y-140145617D01*
X136383420Y-140102000D01*
X136159844Y-140102000D01*
X135940565Y-140145617D01*
X135734008Y-140231176D01*
X135548112Y-140355388D01*
X135390020Y-140513480D01*
X135265808Y-140699376D01*
X135180249Y-140905933D01*
X135136632Y-141125212D01*
X135136632Y-141348788D01*
X135180249Y-141568067D01*
X135196113Y-141606366D01*
X135147158Y-141611188D01*
X135027460Y-141647498D01*
X134917146Y-141706463D01*
X134820455Y-141785815D01*
X134771640Y-141845296D01*
X134722825Y-141785815D01*
X134626134Y-141706463D01*
X134515820Y-141647498D01*
X134396122Y-141611188D01*
X134271640Y-141598928D01*
X133557390Y-141602000D01*
X133398640Y-141760750D01*
X133398640Y-145110000D01*
X133418640Y-145110000D01*
X133418640Y-145364000D01*
X133398640Y-145364000D01*
X133398640Y-145384000D01*
X133144640Y-145384000D01*
X133144640Y-145364000D01*
X131795390Y-145364000D01*
X131636640Y-145522750D01*
X131636536Y-145614845D01*
X131469405Y-145545617D01*
X131250126Y-145502000D01*
X131026550Y-145502000D01*
X130807271Y-145545617D01*
X130600714Y-145631176D01*
X130414818Y-145755388D01*
X130318206Y-145852000D01*
X125725132Y-145852000D01*
X125628520Y-145755388D01*
X125442624Y-145631176D01*
X125236067Y-145545617D01*
X125016788Y-145502000D01*
X124793212Y-145502000D01*
X124573933Y-145545617D01*
X124367376Y-145631176D01*
X124240199Y-145716153D01*
X124239980Y-145522750D01*
X124081230Y-145364000D01*
X122731980Y-145364000D01*
X122731980Y-145384000D01*
X122477980Y-145384000D01*
X122477980Y-145364000D01*
X122457980Y-145364000D01*
X122457980Y-145110000D01*
X122477980Y-145110000D01*
X122477980Y-141760750D01*
X122731980Y-141760750D01*
X122731980Y-145110000D01*
X124081230Y-145110000D01*
X124239980Y-144951250D01*
X124241028Y-144025212D01*
X129928294Y-144025212D01*
X129928294Y-144248788D01*
X129971911Y-144468067D01*
X130057470Y-144674624D01*
X130181682Y-144860520D01*
X130339774Y-145018612D01*
X130525670Y-145142824D01*
X130732227Y-145228383D01*
X130951506Y-145272000D01*
X131175082Y-145272000D01*
X131394361Y-145228383D01*
X131600918Y-145142824D01*
X131737172Y-145051782D01*
X131795390Y-145110000D01*
X133144640Y-145110000D01*
X133144640Y-141760750D01*
X132985890Y-141602000D01*
X132271640Y-141598928D01*
X132147158Y-141611188D01*
X132027460Y-141647498D01*
X131917146Y-141706463D01*
X131820455Y-141785815D01*
X131741103Y-141882506D01*
X131682138Y-141992820D01*
X131645828Y-142112518D01*
X131633568Y-142237000D01*
X131634606Y-143153685D01*
X131600918Y-143131176D01*
X131394361Y-143045617D01*
X131175082Y-143002000D01*
X130951506Y-143002000D01*
X130732227Y-143045617D01*
X130525670Y-143131176D01*
X130339774Y-143255388D01*
X130181682Y-143413480D01*
X130057470Y-143599376D01*
X129971911Y-143805933D01*
X129928294Y-144025212D01*
X124241028Y-144025212D01*
X124243052Y-142237000D01*
X124230792Y-142112518D01*
X124194482Y-141992820D01*
X124135517Y-141882506D01*
X124056165Y-141785815D01*
X123959474Y-141706463D01*
X123849160Y-141647498D01*
X123729462Y-141611188D01*
X123604980Y-141598928D01*
X122890730Y-141602000D01*
X122731980Y-141760750D01*
X122477980Y-141760750D01*
X122319230Y-141602000D01*
X121604980Y-141598928D01*
X121480498Y-141611188D01*
X121360800Y-141647498D01*
X121250486Y-141706463D01*
X121153795Y-141785815D01*
X121104980Y-141845296D01*
X121056165Y-141785815D01*
X120959474Y-141706463D01*
X120849160Y-141647498D01*
X120729462Y-141611188D01*
X120680491Y-141606365D01*
X120696355Y-141568067D01*
X120739972Y-141348788D01*
X120739972Y-141125212D01*
X120696355Y-140905933D01*
X120610796Y-140699376D01*
X120486584Y-140513480D01*
X120328492Y-140355388D01*
X120142596Y-140231176D01*
X119936039Y-140145617D01*
X119716760Y-140102000D01*
X119493184Y-140102000D01*
X119273905Y-140145617D01*
X119067348Y-140231176D01*
X118881452Y-140355388D01*
X118723360Y-140513480D01*
X118599148Y-140699376D01*
X118513589Y-140905933D01*
X118469972Y-141125212D01*
X118469972Y-141348788D01*
X118513589Y-141568067D01*
X118529453Y-141606366D01*
X118480498Y-141611188D01*
X118360800Y-141647498D01*
X118250486Y-141706463D01*
X118153795Y-141785815D01*
X118104980Y-141845296D01*
X118056165Y-141785815D01*
X117959474Y-141706463D01*
X117849160Y-141647498D01*
X117729462Y-141611188D01*
X117604980Y-141598928D01*
X116890730Y-141602000D01*
X116731980Y-141760750D01*
X116731980Y-145110000D01*
X116751980Y-145110000D01*
X116751980Y-145364000D01*
X116731980Y-145364000D01*
X116731980Y-145384000D01*
X116477980Y-145384000D01*
X116477980Y-145364000D01*
X116457980Y-145364000D01*
X116457980Y-145110000D01*
X116477980Y-145110000D01*
X116477980Y-141760750D01*
X116319230Y-141602000D01*
X115604980Y-141598928D01*
X115480498Y-141611188D01*
X115360800Y-141647498D01*
X115250486Y-141706463D01*
X115153795Y-141785815D01*
X115074443Y-141882506D01*
X115015478Y-141992820D01*
X114979168Y-142112518D01*
X114966908Y-142237000D01*
X114968172Y-143353834D01*
X114934262Y-143331176D01*
X114727705Y-143245617D01*
X114508426Y-143202000D01*
X114284850Y-143202000D01*
X114065571Y-143245617D01*
X113859014Y-143331176D01*
X113673118Y-143455388D01*
X113515026Y-143613480D01*
X113390814Y-143799376D01*
X113305255Y-144005933D01*
X113261638Y-144225212D01*
X113261638Y-144448788D01*
X113305255Y-144668067D01*
X113390814Y-144874624D01*
X113515026Y-145060520D01*
X113673118Y-145218612D01*
X113859014Y-145342824D01*
X114065571Y-145428383D01*
X114284850Y-145472000D01*
X114508426Y-145472000D01*
X114727705Y-145428383D01*
X114934262Y-145342824D01*
X114969980Y-145318958D01*
X114969980Y-145364002D01*
X115128728Y-145364002D01*
X114969980Y-145522750D01*
X114969876Y-145614848D01*
X114802739Y-145545617D01*
X114583460Y-145502000D01*
X114359884Y-145502000D01*
X114140605Y-145545617D01*
X113934048Y-145631176D01*
X113748152Y-145755388D01*
X113651540Y-145852000D01*
X108623446Y-145852000D01*
X108442620Y-145731176D01*
X108236063Y-145645617D01*
X108016784Y-145602000D01*
X107793208Y-145602000D01*
X107573929Y-145645617D01*
X107573459Y-145645812D01*
X107573320Y-145522750D01*
X107414570Y-145364000D01*
X106065320Y-145364000D01*
X106065320Y-145384000D01*
X105811320Y-145384000D01*
X105811320Y-145364000D01*
X105791320Y-145364000D01*
X105791320Y-145110000D01*
X105811320Y-145110000D01*
X105811320Y-141760750D01*
X106065320Y-141760750D01*
X106065320Y-145110000D01*
X107414570Y-145110000D01*
X107573320Y-144951250D01*
X107576392Y-142237000D01*
X107564132Y-142112518D01*
X107527822Y-141992820D01*
X107468857Y-141882506D01*
X107389505Y-141785815D01*
X107292814Y-141706463D01*
X107182500Y-141647498D01*
X107062802Y-141611188D01*
X106938320Y-141598928D01*
X106224070Y-141602000D01*
X106065320Y-141760750D01*
X105811320Y-141760750D01*
X105652570Y-141602000D01*
X104938320Y-141598928D01*
X104813838Y-141611188D01*
X104694140Y-141647498D01*
X104583826Y-141706463D01*
X104487135Y-141785815D01*
X104438320Y-141845296D01*
X104389505Y-141785815D01*
X104292814Y-141706463D01*
X104182500Y-141647498D01*
X104062802Y-141611188D01*
X104013831Y-141606365D01*
X104029695Y-141568067D01*
X104073312Y-141348788D01*
X104073312Y-141125212D01*
X104029695Y-140905933D01*
X103944136Y-140699376D01*
X103819924Y-140513480D01*
X103661832Y-140355388D01*
X103475936Y-140231176D01*
X103269379Y-140145617D01*
X103050100Y-140102000D01*
X102826524Y-140102000D01*
X102607245Y-140145617D01*
X102400688Y-140231176D01*
X102214792Y-140355388D01*
X102056700Y-140513480D01*
X101932488Y-140699376D01*
X101846929Y-140905933D01*
X101803312Y-141125212D01*
X101803312Y-141348788D01*
X101846929Y-141568067D01*
X101862793Y-141606366D01*
X101813838Y-141611188D01*
X101694140Y-141647498D01*
X101583826Y-141706463D01*
X101487135Y-141785815D01*
X101438320Y-141845296D01*
X101389505Y-141785815D01*
X101292814Y-141706463D01*
X101182500Y-141647498D01*
X101062802Y-141611188D01*
X100938320Y-141598928D01*
X100224070Y-141602000D01*
X100065320Y-141760750D01*
X100065320Y-145110000D01*
X100085320Y-145110000D01*
X100085320Y-145364000D01*
X100065320Y-145364000D01*
X100065320Y-145384000D01*
X99811320Y-145384000D01*
X99811320Y-145364000D01*
X98462070Y-145364000D01*
X98303320Y-145522750D01*
X98303216Y-145614853D01*
X98136067Y-145545617D01*
X97916788Y-145502000D01*
X97693212Y-145502000D01*
X97473933Y-145545617D01*
X97267376Y-145631176D01*
X97081480Y-145755388D01*
X96984868Y-145852000D01*
X91525132Y-145852000D01*
X91428520Y-145755388D01*
X91242624Y-145631176D01*
X91036067Y-145545617D01*
X90816788Y-145502000D01*
X90593212Y-145502000D01*
X90373933Y-145545617D01*
X90167376Y-145631176D01*
X89981480Y-145755388D01*
X89823388Y-145913480D01*
X89699176Y-146099376D01*
X89613617Y-146305933D01*
X89570000Y-146525212D01*
X89570000Y-146748788D01*
X89613617Y-146968067D01*
X89698077Y-147171972D01*
X89648080Y-147205379D01*
X89489988Y-147363471D01*
X89365776Y-147549367D01*
X89280217Y-147755924D01*
X89236600Y-147975203D01*
X89236600Y-148198779D01*
X89277025Y-148402012D01*
X84287276Y-148402012D01*
X83380323Y-147495060D01*
X83355740Y-147465106D01*
X83236209Y-147367008D01*
X83099836Y-147294116D01*
X82951863Y-147249229D01*
X82888032Y-147242942D01*
X82786348Y-147141258D01*
X82600452Y-147017046D01*
X82393895Y-146931487D01*
X82174616Y-146887870D01*
X81951040Y-146887870D01*
X81731761Y-146931487D01*
X81525204Y-147017046D01*
X81339308Y-147141258D01*
X81181216Y-147299350D01*
X81057004Y-147485246D01*
X80971445Y-147691803D01*
X80927828Y-147911082D01*
X80927828Y-148134658D01*
X80971445Y-148353937D01*
X81057004Y-148560494D01*
X81181216Y-148746390D01*
X81268888Y-148834062D01*
X81235982Y-148913503D01*
X81213730Y-149025373D01*
X81119500Y-149044116D01*
X80912943Y-149129675D01*
X80901246Y-149137491D01*
X80742069Y-149031132D01*
X80535512Y-148945573D01*
X80316233Y-148901956D01*
X80092657Y-148901956D01*
X79873378Y-148945573D01*
X79666821Y-149031132D01*
X79480925Y-149155344D01*
X79322833Y-149313436D01*
X79198621Y-149499332D01*
X79113062Y-149705889D01*
X79069445Y-149925168D01*
X79069445Y-150148744D01*
X79113062Y-150368023D01*
X79198621Y-150574580D01*
X79322833Y-150760476D01*
X79427581Y-150865224D01*
X79430804Y-150897948D01*
X79475691Y-151045921D01*
X79475692Y-151045922D01*
X79508240Y-151106816D01*
X65331325Y-151106816D01*
X65348209Y-151081422D01*
X65442689Y-150851849D01*
X65448282Y-150808540D01*
X65323902Y-150614000D01*
X63482000Y-150614000D01*
X63482000Y-150634000D01*
X63228000Y-150634000D01*
X63228000Y-150614000D01*
X61386098Y-150614000D01*
X61261718Y-150808540D01*
X61267311Y-150851849D01*
X61361791Y-151081422D01*
X61378675Y-151106816D01*
X47169473Y-151106816D01*
X47169473Y-140841834D01*
X47249048Y-140364362D01*
X47435491Y-139991478D01*
X47736888Y-139690080D01*
X48109791Y-139503635D01*
X48587269Y-139424059D01*
X48790001Y-139424059D01*
X48799252Y-139425639D01*
X48857337Y-139424059D01*
X48881714Y-139424059D01*
X48891015Y-139423143D01*
X48934135Y-139421970D01*
X48957993Y-139416546D01*
X48982350Y-139414147D01*
X49023645Y-139401620D01*
X49065710Y-139392057D01*
X49088051Y-139382083D01*
X49111473Y-139374978D01*
X49149530Y-139354636D01*
X49188922Y-139337050D01*
X49208889Y-139322909D01*
X49230474Y-139311371D01*
X49263830Y-139283996D01*
X49299035Y-139259062D01*
X49315860Y-139241295D01*
X49334778Y-139225770D01*
X49362156Y-139192410D01*
X49391817Y-139161090D01*
X49404849Y-139140389D01*
X49420379Y-139121466D01*
X49440724Y-139083403D01*
X49445691Y-139075513D01*
X49456569Y-139053760D01*
X49483986Y-139002465D01*
X49486712Y-138993477D01*
X49552149Y-138862614D01*
X49888856Y-138525910D01*
X50079629Y-138430520D01*
X58039809Y-138438689D01*
G36*
X130414818Y-147518612D02*
G01*
X130600714Y-147642824D01*
X130807271Y-147728383D01*
X131026550Y-147772000D01*
X131250126Y-147772000D01*
X131469405Y-147728383D01*
X131634221Y-147660114D01*
X131633568Y-148237000D01*
X131645828Y-148361482D01*
X131658123Y-148402012D01*
X125890620Y-148402012D01*
X125904681Y-148368067D01*
X125948298Y-148148788D01*
X125948298Y-147925212D01*
X125904681Y-147705933D01*
X125819122Y-147499376D01*
X125767421Y-147422000D01*
X130318206Y-147422000D01*
X130414818Y-147518612D01*
X130414818Y-147518612D01*
G37*
X130414818Y-147518612D02*
X130600714Y-147642824D01*
X130807271Y-147728383D01*
X131026550Y-147772000D01*
X131250126Y-147772000D01*
X131469405Y-147728383D01*
X131634221Y-147660114D01*
X131633568Y-148237000D01*
X131645828Y-148361482D01*
X131658123Y-148402012D01*
X125890620Y-148402012D01*
X125904681Y-148368067D01*
X125948298Y-148148788D01*
X125948298Y-147925212D01*
X125904681Y-147705933D01*
X125819122Y-147499376D01*
X125767421Y-147422000D01*
X130318206Y-147422000D01*
X130414818Y-147518612D01*
G36*
X180370165Y-147473961D02*
G01*
X180556061Y-147598173D01*
X180762618Y-147683732D01*
X180981897Y-147727349D01*
X181205473Y-147727349D01*
X181424752Y-147683732D01*
X181631309Y-147598173D01*
X181634273Y-147596192D01*
X181633548Y-148237000D01*
X181645808Y-148361482D01*
X181658103Y-148402012D01*
X175849167Y-148402012D01*
X175904649Y-148268067D01*
X175948266Y-148048788D01*
X175948266Y-147825212D01*
X175904649Y-147605933D01*
X175819090Y-147399376D01*
X175804372Y-147377349D01*
X180273553Y-147377349D01*
X180370165Y-147473961D01*
X180370165Y-147473961D01*
G37*
X180370165Y-147473961D02*
X180556061Y-147598173D01*
X180762618Y-147683732D01*
X180981897Y-147727349D01*
X181205473Y-147727349D01*
X181424752Y-147683732D01*
X181631309Y-147598173D01*
X181634273Y-147596192D01*
X181633548Y-148237000D01*
X181645808Y-148361482D01*
X181658103Y-148402012D01*
X175849167Y-148402012D01*
X175904649Y-148268067D01*
X175948266Y-148048788D01*
X175948266Y-147825212D01*
X175904649Y-147605933D01*
X175819090Y-147399376D01*
X175804372Y-147377349D01*
X180273553Y-147377349D01*
X180370165Y-147473961D01*
G36*
X263748080Y-147518612D02*
G01*
X263933976Y-147642824D01*
X264140533Y-147728383D01*
X264359812Y-147772000D01*
X264583388Y-147772000D01*
X264802667Y-147728383D01*
X264967501Y-147660106D01*
X264966848Y-148237000D01*
X264979108Y-148361482D01*
X264991403Y-148402012D01*
X259223868Y-148402012D01*
X259237929Y-148368067D01*
X259281546Y-148148788D01*
X259281546Y-147925212D01*
X259237929Y-147705933D01*
X259152370Y-147499376D01*
X259100669Y-147422000D01*
X263651468Y-147422000D01*
X263748080Y-147518612D01*
X263748080Y-147518612D01*
G37*
X263748080Y-147518612D02*
X263933976Y-147642824D01*
X264140533Y-147728383D01*
X264359812Y-147772000D01*
X264583388Y-147772000D01*
X264802667Y-147728383D01*
X264967501Y-147660106D01*
X264966848Y-148237000D01*
X264979108Y-148361482D01*
X264991403Y-148402012D01*
X259223868Y-148402012D01*
X259237929Y-148368067D01*
X259281546Y-148148788D01*
X259281546Y-147925212D01*
X259237929Y-147705933D01*
X259152370Y-147499376D01*
X259100669Y-147422000D01*
X263651468Y-147422000D01*
X263748080Y-147518612D01*
G36*
X247081480Y-147518612D02*
G01*
X247267376Y-147642824D01*
X247473933Y-147728383D01*
X247693212Y-147772000D01*
X247916788Y-147772000D01*
X248136067Y-147728383D01*
X248300841Y-147660131D01*
X248300188Y-148237000D01*
X248312448Y-148361482D01*
X248324743Y-148402012D01*
X242515791Y-148402012D01*
X242571273Y-148268067D01*
X242614890Y-148048788D01*
X242614890Y-147825212D01*
X242571273Y-147605933D01*
X242495085Y-147422000D01*
X246984868Y-147422000D01*
X247081480Y-147518612D01*
X247081480Y-147518612D01*
G37*
X247081480Y-147518612D02*
X247267376Y-147642824D01*
X247473933Y-147728383D01*
X247693212Y-147772000D01*
X247916788Y-147772000D01*
X248136067Y-147728383D01*
X248300841Y-147660131D01*
X248300188Y-148237000D01*
X248312448Y-148361482D01*
X248324743Y-148402012D01*
X242515791Y-148402012D01*
X242571273Y-148268067D01*
X242614890Y-148048788D01*
X242614890Y-147825212D01*
X242571273Y-147605933D01*
X242495085Y-147422000D01*
X246984868Y-147422000D01*
X247081480Y-147518612D01*
G36*
X113748152Y-147518612D02*
G01*
X113934048Y-147642824D01*
X114140605Y-147728383D01*
X114359884Y-147772000D01*
X114583460Y-147772000D01*
X114802739Y-147728383D01*
X114967561Y-147660111D01*
X114966908Y-148237000D01*
X114979168Y-148361482D01*
X114991463Y-148402012D01*
X109251164Y-148402012D01*
X109281642Y-148248788D01*
X109281642Y-148025212D01*
X109238025Y-147805933D01*
X109152466Y-147599376D01*
X109033947Y-147422000D01*
X113651540Y-147422000D01*
X113748152Y-147518612D01*
X113748152Y-147518612D01*
G37*
X113748152Y-147518612D02*
X113934048Y-147642824D01*
X114140605Y-147728383D01*
X114359884Y-147772000D01*
X114583460Y-147772000D01*
X114802739Y-147728383D01*
X114967561Y-147660111D01*
X114966908Y-148237000D01*
X114979168Y-148361482D01*
X114991463Y-148402012D01*
X109251164Y-148402012D01*
X109281642Y-148248788D01*
X109281642Y-148025212D01*
X109238025Y-147805933D01*
X109152466Y-147599376D01*
X109033947Y-147422000D01*
X113651540Y-147422000D01*
X113748152Y-147518612D01*
G36*
X97081480Y-147518612D02*
G01*
X97267376Y-147642824D01*
X97473933Y-147728383D01*
X97693212Y-147772000D01*
X97916788Y-147772000D01*
X98136067Y-147728383D01*
X98300901Y-147660106D01*
X98300248Y-148237000D01*
X98312508Y-148361482D01*
X98324803Y-148402012D01*
X91466175Y-148402012D01*
X91506600Y-148198779D01*
X91506600Y-147975203D01*
X91462983Y-147755924D01*
X91378523Y-147552019D01*
X91428520Y-147518612D01*
X91525132Y-147422000D01*
X96984868Y-147422000D01*
X97081480Y-147518612D01*
X97081480Y-147518612D01*
G37*
X97081480Y-147518612D02*
X97267376Y-147642824D01*
X97473933Y-147728383D01*
X97693212Y-147772000D01*
X97916788Y-147772000D01*
X98136067Y-147728383D01*
X98300901Y-147660106D01*
X98300248Y-148237000D01*
X98312508Y-148361482D01*
X98324803Y-148402012D01*
X91466175Y-148402012D01*
X91506600Y-148198779D01*
X91506600Y-147975203D01*
X91462983Y-147755924D01*
X91378523Y-147552019D01*
X91428520Y-147518612D01*
X91525132Y-147422000D01*
X96984868Y-147422000D01*
X97081480Y-147518612D01*
G36*
X163703504Y-147473966D02*
G01*
X163889400Y-147598178D01*
X164095957Y-147683737D01*
X164315236Y-147727354D01*
X164538812Y-147727354D01*
X164758091Y-147683737D01*
X164964648Y-147598178D01*
X164967613Y-147596197D01*
X164966888Y-148237000D01*
X164979148Y-148361482D01*
X164991443Y-148402012D01*
X159223932Y-148402012D01*
X159237993Y-148368067D01*
X159281610Y-148148788D01*
X159281610Y-147925212D01*
X159237993Y-147705933D01*
X159152434Y-147499376D01*
X159070901Y-147377354D01*
X163606892Y-147377354D01*
X163703504Y-147473966D01*
X163703504Y-147473966D01*
G37*
X163703504Y-147473966D02*
X163889400Y-147598178D01*
X164095957Y-147683737D01*
X164315236Y-147727354D01*
X164538812Y-147727354D01*
X164758091Y-147683737D01*
X164964648Y-147598178D01*
X164967613Y-147596197D01*
X164966888Y-148237000D01*
X164979148Y-148361482D01*
X164991443Y-148402012D01*
X159223932Y-148402012D01*
X159237993Y-148368067D01*
X159281610Y-148148788D01*
X159281610Y-147925212D01*
X159237993Y-147705933D01*
X159152434Y-147499376D01*
X159070901Y-147377354D01*
X163606892Y-147377354D01*
X163703504Y-147473966D01*
G36*
X197081482Y-147518612D02*
G01*
X197267378Y-147642824D01*
X197473935Y-147728383D01*
X197693214Y-147772000D01*
X197916790Y-147772000D01*
X198136069Y-147728383D01*
X198300861Y-147660124D01*
X198300208Y-148237000D01*
X198312468Y-148361482D01*
X198324763Y-148402012D01*
X192604335Y-148402012D01*
X192614922Y-148348788D01*
X192614922Y-148125212D01*
X192571305Y-147905933D01*
X192485746Y-147699376D01*
X192361534Y-147513480D01*
X192331496Y-147483442D01*
X192423450Y-147422000D01*
X196984870Y-147422000D01*
X197081482Y-147518612D01*
X197081482Y-147518612D01*
G37*
X197081482Y-147518612D02*
X197267378Y-147642824D01*
X197473935Y-147728383D01*
X197693214Y-147772000D01*
X197916790Y-147772000D01*
X198136069Y-147728383D01*
X198300861Y-147660124D01*
X198300208Y-148237000D01*
X198312468Y-148361482D01*
X198324763Y-148402012D01*
X192604335Y-148402012D01*
X192614922Y-148348788D01*
X192614922Y-148125212D01*
X192571305Y-147905933D01*
X192485746Y-147699376D01*
X192361534Y-147513480D01*
X192331496Y-147483442D01*
X192423450Y-147422000D01*
X196984870Y-147422000D01*
X197081482Y-147518612D01*
G36*
X230414814Y-147518612D02*
G01*
X230600710Y-147642824D01*
X230807267Y-147728383D01*
X231026546Y-147772000D01*
X231250122Y-147772000D01*
X231469401Y-147728383D01*
X231634181Y-147660129D01*
X231633528Y-148237000D01*
X231645788Y-148361482D01*
X231658083Y-148402012D01*
X225890556Y-148402012D01*
X225904617Y-148368067D01*
X225948234Y-148148788D01*
X225948234Y-147925212D01*
X225904617Y-147705933D01*
X225819058Y-147499376D01*
X225767357Y-147422000D01*
X230318202Y-147422000D01*
X230414814Y-147518612D01*
X230414814Y-147518612D01*
G37*
X230414814Y-147518612D02*
X230600710Y-147642824D01*
X230807267Y-147728383D01*
X231026546Y-147772000D01*
X231250122Y-147772000D01*
X231469401Y-147728383D01*
X231634181Y-147660129D01*
X231633528Y-148237000D01*
X231645788Y-148361482D01*
X231658083Y-148402012D01*
X225890556Y-148402012D01*
X225904617Y-148368067D01*
X225948234Y-148148788D01*
X225948234Y-147925212D01*
X225904617Y-147705933D01*
X225819058Y-147499376D01*
X225767357Y-147422000D01*
X230318202Y-147422000D01*
X230414814Y-147518612D01*
G36*
X213751125Y-147471041D02*
G01*
X213937021Y-147595253D01*
X214143578Y-147680812D01*
X214362857Y-147724429D01*
X214586433Y-147724429D01*
X214805712Y-147680812D01*
X214967573Y-147613767D01*
X214966868Y-148237000D01*
X214979128Y-148361482D01*
X214991423Y-148402012D01*
X209251100Y-148402012D01*
X209281578Y-148248788D01*
X209281578Y-148025212D01*
X209237961Y-147805933D01*
X209152402Y-147599376D01*
X209070432Y-147476700D01*
X209125132Y-147422000D01*
X213702084Y-147422000D01*
X213751125Y-147471041D01*
X213751125Y-147471041D01*
G37*
X213751125Y-147471041D02*
X213937021Y-147595253D01*
X214143578Y-147680812D01*
X214362857Y-147724429D01*
X214586433Y-147724429D01*
X214805712Y-147680812D01*
X214967573Y-147613767D01*
X214966868Y-148237000D01*
X214979128Y-148361482D01*
X214991423Y-148402012D01*
X209251100Y-148402012D01*
X209281578Y-148248788D01*
X209281578Y-148025212D01*
X209237961Y-147805933D01*
X209152402Y-147599376D01*
X209070432Y-147476700D01*
X209125132Y-147422000D01*
X213702084Y-147422000D01*
X213751125Y-147471041D01*
G36*
X146886838Y-147323966D02*
G01*
X147072734Y-147448178D01*
X147279291Y-147533737D01*
X147498570Y-147577354D01*
X147722146Y-147577354D01*
X147941425Y-147533737D01*
X148147982Y-147448178D01*
X148167836Y-147434912D01*
X148167364Y-147852001D01*
X142614954Y-147852001D01*
X142614954Y-147825212D01*
X142571337Y-147605933D01*
X142485778Y-147399376D01*
X142370836Y-147227354D01*
X146790226Y-147227354D01*
X146886838Y-147323966D01*
X146886838Y-147323966D01*
G37*
X146886838Y-147323966D02*
X147072734Y-147448178D01*
X147279291Y-147533737D01*
X147498570Y-147577354D01*
X147722146Y-147577354D01*
X147941425Y-147533737D01*
X148147982Y-147448178D01*
X148167836Y-147434912D01*
X148167364Y-147852001D01*
X142614954Y-147852001D01*
X142614954Y-147825212D01*
X142571337Y-147605933D01*
X142485778Y-147399376D01*
X142370836Y-147227354D01*
X146790226Y-147227354D01*
X146886838Y-147323966D01*
M02*
