G04 #@! TF.GenerationSoftware,KiCad,Pcbnew,(5.1.0-0)*
G04 #@! TF.CreationDate,2019-04-21T19:21:51-07:00*
G04 #@! TF.ProjectId,FInside,46496e73-6964-4652-9e6b-696361645f70,rev?*
G04 #@! TF.SameCoordinates,Original*
G04 #@! TF.FileFunction,Soldermask,Bot*
G04 #@! TF.FilePolarity,Negative*
%FSLAX46Y46*%
G04 Gerber Fmt 4.6, Leading zero omitted, Abs format (unit mm)*
G04 Created by KiCad (PCBNEW (5.1.0-0)) date 2019-04-21 19:21:51*
%MOMM*%
%LPD*%
G04 APERTURE LIST*
%ADD10R,2.400000X6.400000*%
%ADD11C,0.300000*%
%ADD12C,0.050000*%
%ADD13O,3.400000X1.650000*%
G04 APERTURE END LIST*
D10*
X102938320Y-145237000D03*
X99938320Y-145237000D03*
X105938320Y-145237000D03*
X122604980Y-145237000D03*
X116604980Y-145237000D03*
X119604980Y-145237000D03*
X136271640Y-145237000D03*
X133271640Y-145237000D03*
X139271640Y-145237000D03*
X269604920Y-145237000D03*
X266604920Y-145237000D03*
X272604920Y-145237000D03*
X255938260Y-145237000D03*
X249938260Y-145237000D03*
X252938260Y-145237000D03*
X236271600Y-145237000D03*
X233271600Y-145237000D03*
X239271600Y-145237000D03*
X222604940Y-145237000D03*
X216604940Y-145237000D03*
X219604940Y-145237000D03*
X202938280Y-145237000D03*
X199938280Y-145237000D03*
X205938280Y-145237000D03*
X189271620Y-145237000D03*
X183271620Y-145237000D03*
X186271620Y-145237000D03*
X169604960Y-145237000D03*
X166604960Y-145237000D03*
X172604960Y-145237000D03*
X155805000Y-145237000D03*
X149805000Y-145237000D03*
X152805000Y-145237000D03*
D11*
X74480000Y-142437000D03*
D12*
G36*
X75019018Y-141490843D02*
G01*
X75056537Y-141502224D01*
X75091114Y-141520706D01*
X75121421Y-141545579D01*
X75146410Y-141576060D01*
X75646410Y-142326060D01*
X75664856Y-142360657D01*
X75676198Y-142398187D01*
X75680000Y-142437209D01*
X75676116Y-142476223D01*
X75664696Y-142513730D01*
X75646410Y-142547940D01*
X75146410Y-143297940D01*
X75121569Y-143328273D01*
X75091288Y-143353178D01*
X75056730Y-143371696D01*
X75019223Y-143383116D01*
X74980000Y-143387000D01*
X73980000Y-143387000D01*
X73940982Y-143383157D01*
X73903463Y-143371776D01*
X73868886Y-143353294D01*
X73838579Y-143328421D01*
X73813706Y-143298114D01*
X73795224Y-143263537D01*
X73783843Y-143226018D01*
X73780000Y-143187000D01*
X73780000Y-141687000D01*
X73783843Y-141647982D01*
X73795224Y-141610463D01*
X73813706Y-141575886D01*
X73838579Y-141545579D01*
X73868886Y-141520706D01*
X73903463Y-141502224D01*
X73940982Y-141490843D01*
X73980000Y-141487000D01*
X74980000Y-141487000D01*
X75019018Y-141490843D01*
X75019018Y-141490843D01*
G37*
D11*
X75930000Y-142437000D03*
D12*
G36*
X76469018Y-141490843D02*
G01*
X76506537Y-141502224D01*
X76541114Y-141520706D01*
X76571421Y-141545579D01*
X76596294Y-141575886D01*
X76614776Y-141610463D01*
X76626157Y-141647982D01*
X76630000Y-141687000D01*
X76630000Y-143187000D01*
X76626157Y-143226018D01*
X76614776Y-143263537D01*
X76596294Y-143298114D01*
X76571421Y-143328421D01*
X76541114Y-143353294D01*
X76506537Y-143371776D01*
X76469018Y-143383157D01*
X76430000Y-143387000D01*
X75280000Y-143387000D01*
X75240982Y-143383157D01*
X75203463Y-143371776D01*
X75168886Y-143353294D01*
X75138579Y-143328421D01*
X75113706Y-143298114D01*
X75095224Y-143263537D01*
X75083843Y-143226018D01*
X75080000Y-143187000D01*
X75083843Y-143147982D01*
X75095224Y-143110463D01*
X75113590Y-143076060D01*
X75539630Y-142437000D01*
X75113590Y-141797940D01*
X75095144Y-141763343D01*
X75083802Y-141725813D01*
X75080000Y-141686791D01*
X75083884Y-141647777D01*
X75095304Y-141610270D01*
X75113822Y-141575712D01*
X75138727Y-141545431D01*
X75169060Y-141520590D01*
X75203657Y-141502144D01*
X75241187Y-141490802D01*
X75280000Y-141487000D01*
X76430000Y-141487000D01*
X76469018Y-141490843D01*
X76469018Y-141490843D01*
G37*
D11*
X62580000Y-141737000D03*
D12*
G36*
X63119018Y-140790843D02*
G01*
X63156537Y-140802224D01*
X63191114Y-140820706D01*
X63221421Y-140845579D01*
X63246410Y-140876060D01*
X63746410Y-141626060D01*
X63764856Y-141660657D01*
X63776198Y-141698187D01*
X63780000Y-141737209D01*
X63776116Y-141776223D01*
X63764696Y-141813730D01*
X63746410Y-141847940D01*
X63246410Y-142597940D01*
X63221569Y-142628273D01*
X63191288Y-142653178D01*
X63156730Y-142671696D01*
X63119223Y-142683116D01*
X63080000Y-142687000D01*
X62080000Y-142687000D01*
X62040982Y-142683157D01*
X62003463Y-142671776D01*
X61968886Y-142653294D01*
X61938579Y-142628421D01*
X61913706Y-142598114D01*
X61895224Y-142563537D01*
X61883843Y-142526018D01*
X61880000Y-142487000D01*
X61880000Y-140987000D01*
X61883843Y-140947982D01*
X61895224Y-140910463D01*
X61913706Y-140875886D01*
X61938579Y-140845579D01*
X61968886Y-140820706D01*
X62003463Y-140802224D01*
X62040982Y-140790843D01*
X62080000Y-140787000D01*
X63080000Y-140787000D01*
X63119018Y-140790843D01*
X63119018Y-140790843D01*
G37*
D11*
X64030000Y-141737000D03*
D12*
G36*
X64569018Y-140790843D02*
G01*
X64606537Y-140802224D01*
X64641114Y-140820706D01*
X64671421Y-140845579D01*
X64696294Y-140875886D01*
X64714776Y-140910463D01*
X64726157Y-140947982D01*
X64730000Y-140987000D01*
X64730000Y-142487000D01*
X64726157Y-142526018D01*
X64714776Y-142563537D01*
X64696294Y-142598114D01*
X64671421Y-142628421D01*
X64641114Y-142653294D01*
X64606537Y-142671776D01*
X64569018Y-142683157D01*
X64530000Y-142687000D01*
X63380000Y-142687000D01*
X63340982Y-142683157D01*
X63303463Y-142671776D01*
X63268886Y-142653294D01*
X63238579Y-142628421D01*
X63213706Y-142598114D01*
X63195224Y-142563537D01*
X63183843Y-142526018D01*
X63180000Y-142487000D01*
X63183843Y-142447982D01*
X63195224Y-142410463D01*
X63213590Y-142376060D01*
X63639630Y-141737000D01*
X63213590Y-141097940D01*
X63195144Y-141063343D01*
X63183802Y-141025813D01*
X63180000Y-140986791D01*
X63183884Y-140947777D01*
X63195304Y-140910270D01*
X63213822Y-140875712D01*
X63238727Y-140845431D01*
X63269060Y-140820590D01*
X63303657Y-140802144D01*
X63341187Y-140790802D01*
X63380000Y-140787000D01*
X64530000Y-140787000D01*
X64569018Y-140790843D01*
X64569018Y-140790843D01*
G37*
D11*
X297030000Y-141837000D03*
D12*
G36*
X296490982Y-142783157D02*
G01*
X296453463Y-142771776D01*
X296418886Y-142753294D01*
X296388579Y-142728421D01*
X296363590Y-142697940D01*
X295863590Y-141947940D01*
X295845144Y-141913343D01*
X295833802Y-141875813D01*
X295830000Y-141836791D01*
X295833884Y-141797777D01*
X295845304Y-141760270D01*
X295863590Y-141726060D01*
X296363590Y-140976060D01*
X296388431Y-140945727D01*
X296418712Y-140920822D01*
X296453270Y-140902304D01*
X296490777Y-140890884D01*
X296530000Y-140887000D01*
X297530000Y-140887000D01*
X297569018Y-140890843D01*
X297606537Y-140902224D01*
X297641114Y-140920706D01*
X297671421Y-140945579D01*
X297696294Y-140975886D01*
X297714776Y-141010463D01*
X297726157Y-141047982D01*
X297730000Y-141087000D01*
X297730000Y-142587000D01*
X297726157Y-142626018D01*
X297714776Y-142663537D01*
X297696294Y-142698114D01*
X297671421Y-142728421D01*
X297641114Y-142753294D01*
X297606537Y-142771776D01*
X297569018Y-142783157D01*
X297530000Y-142787000D01*
X296530000Y-142787000D01*
X296490982Y-142783157D01*
X296490982Y-142783157D01*
G37*
D11*
X295580000Y-141837000D03*
D12*
G36*
X295040982Y-142783157D02*
G01*
X295003463Y-142771776D01*
X294968886Y-142753294D01*
X294938579Y-142728421D01*
X294913706Y-142698114D01*
X294895224Y-142663537D01*
X294883843Y-142626018D01*
X294880000Y-142587000D01*
X294880000Y-141087000D01*
X294883843Y-141047982D01*
X294895224Y-141010463D01*
X294913706Y-140975886D01*
X294938579Y-140945579D01*
X294968886Y-140920706D01*
X295003463Y-140902224D01*
X295040982Y-140890843D01*
X295080000Y-140887000D01*
X296230000Y-140887000D01*
X296269018Y-140890843D01*
X296306537Y-140902224D01*
X296341114Y-140920706D01*
X296371421Y-140945579D01*
X296396294Y-140975886D01*
X296414776Y-141010463D01*
X296426157Y-141047982D01*
X296430000Y-141087000D01*
X296426157Y-141126018D01*
X296414776Y-141163537D01*
X296396410Y-141197940D01*
X295970370Y-141837000D01*
X296396410Y-142476060D01*
X296414856Y-142510657D01*
X296426198Y-142548187D01*
X296430000Y-142587209D01*
X296426116Y-142626223D01*
X296414696Y-142663730D01*
X296396178Y-142698288D01*
X296371273Y-142728569D01*
X296340940Y-142753410D01*
X296306343Y-142771856D01*
X296268813Y-142783198D01*
X296230000Y-142787000D01*
X295080000Y-142787000D01*
X295040982Y-142783157D01*
X295040982Y-142783157D01*
G37*
D11*
X311996636Y-141637000D03*
D12*
G36*
X311457618Y-142583157D02*
G01*
X311420099Y-142571776D01*
X311385522Y-142553294D01*
X311355215Y-142528421D01*
X311330226Y-142497940D01*
X310830226Y-141747940D01*
X310811780Y-141713343D01*
X310800438Y-141675813D01*
X310796636Y-141636791D01*
X310800520Y-141597777D01*
X310811940Y-141560270D01*
X310830226Y-141526060D01*
X311330226Y-140776060D01*
X311355067Y-140745727D01*
X311385348Y-140720822D01*
X311419906Y-140702304D01*
X311457413Y-140690884D01*
X311496636Y-140687000D01*
X312496636Y-140687000D01*
X312535654Y-140690843D01*
X312573173Y-140702224D01*
X312607750Y-140720706D01*
X312638057Y-140745579D01*
X312662930Y-140775886D01*
X312681412Y-140810463D01*
X312692793Y-140847982D01*
X312696636Y-140887000D01*
X312696636Y-142387000D01*
X312692793Y-142426018D01*
X312681412Y-142463537D01*
X312662930Y-142498114D01*
X312638057Y-142528421D01*
X312607750Y-142553294D01*
X312573173Y-142571776D01*
X312535654Y-142583157D01*
X312496636Y-142587000D01*
X311496636Y-142587000D01*
X311457618Y-142583157D01*
X311457618Y-142583157D01*
G37*
D11*
X310546636Y-141637000D03*
D12*
G36*
X310007618Y-142583157D02*
G01*
X309970099Y-142571776D01*
X309935522Y-142553294D01*
X309905215Y-142528421D01*
X309880342Y-142498114D01*
X309861860Y-142463537D01*
X309850479Y-142426018D01*
X309846636Y-142387000D01*
X309846636Y-140887000D01*
X309850479Y-140847982D01*
X309861860Y-140810463D01*
X309880342Y-140775886D01*
X309905215Y-140745579D01*
X309935522Y-140720706D01*
X309970099Y-140702224D01*
X310007618Y-140690843D01*
X310046636Y-140687000D01*
X311196636Y-140687000D01*
X311235654Y-140690843D01*
X311273173Y-140702224D01*
X311307750Y-140720706D01*
X311338057Y-140745579D01*
X311362930Y-140775886D01*
X311381412Y-140810463D01*
X311392793Y-140847982D01*
X311396636Y-140887000D01*
X311392793Y-140926018D01*
X311381412Y-140963537D01*
X311363046Y-140997940D01*
X310937006Y-141637000D01*
X311363046Y-142276060D01*
X311381492Y-142310657D01*
X311392834Y-142348187D01*
X311396636Y-142387209D01*
X311392752Y-142426223D01*
X311381332Y-142463730D01*
X311362814Y-142498288D01*
X311337909Y-142528569D01*
X311307576Y-142553410D01*
X311272979Y-142571856D01*
X311235449Y-142583198D01*
X311196636Y-142587000D01*
X310046636Y-142587000D01*
X310007618Y-142583157D01*
X310007618Y-142583157D01*
G37*
D13*
X59188335Y-149237000D03*
X59188335Y-147237000D03*
X311270588Y-150487000D03*
X311270588Y-148487000D03*
X311270588Y-146487000D03*
X311270588Y-144487000D03*
X63355000Y-150487000D03*
X63355000Y-148487000D03*
X63355000Y-146487000D03*
X63355000Y-144487000D03*
X315437238Y-149237000D03*
X315437238Y-147237000D03*
M02*
