M48
INCH,TZ
T1C0.0236
T2C0.0394
%
G90
G05
T1
X25789Y-59267
X25868Y-57022
X27039Y-57858
X27364Y-56668
X28506Y-55920
X29018Y-57889
X29254Y-57416
X29642Y-57113
X30186Y-56967
X31577Y-59070
X32067Y-59108
X32308Y-58277
X32412Y-58758
X33906Y-58302
X35579Y-58302
X35606Y-56826
X35711Y-57731
X38476Y-56786
X38476Y-58322
X38506Y-57731
X40527Y-55605
X42482Y-57770
X42577Y-56826
X42577Y-58322
X45038Y-56826
X45038Y-58322
X45068Y-57731
X47089Y-55605
X49139Y-56786
X49139Y-58282
X49175Y-57731
X51600Y-56747
X51600Y-58361
X51629Y-57731
X53650Y-55605
X55632Y-57692
X55701Y-56786
X55701Y-58243
X58114Y-57654
X58161Y-56707
X58161Y-58164
X62246Y-57692
X62262Y-56786
X62262Y-58282
X64723Y-56747
X64723Y-58282
X64735Y-57714
X66774Y-55605
X68824Y-56747
X68824Y-58243
X68860Y-57731
X71285Y-56786
X71285Y-58282
X71297Y-57714
X73335Y-55605
X75386Y-56826
X75386Y-58361
X75474Y-57692
X77846Y-56786
X77846Y-58243
X77876Y-57731
X79897Y-55605
X81947Y-56786
X81947Y-58322
X82010Y-57731
X84408Y-58204
X84408Y-56747
X84439Y-57712
X86459Y-55605
X88506Y-57731
X88509Y-56865
X88509Y-58282
X90970Y-56826
X90970Y-58243
X90999Y-57731
X93020Y-55605
X95041Y-57731
X95071Y-56826
X95071Y-58243
X97531Y-56904
X97531Y-58282
X97561Y-57731
X99582Y-55605
X101537Y-57692
X101632Y-56826
X101632Y-58282
X104093Y-56747
X104093Y-58282
X104123Y-57731
X106144Y-55605
X108191Y-57731
X108194Y-56747
X108194Y-58282
X110684Y-57731
X111026Y-56747
X111065Y-58243
X112758Y-57022
X114250Y-58715
X114262Y-59207
X114264Y-57731
X114266Y-58223
X114372Y-56471
X117085Y-57530
X117129Y-58020
X117573Y-57590
X117600Y-58361
X117705Y-57116
X118978Y-58479
X120396Y-56904
X120789Y-57731
X121616Y-59227
X123742Y-56983
T2
X24943Y-56885
X24943Y-57672
X24943Y-58459
X24943Y-59247
X23302Y-57967
X23302Y-58755
X122547Y-56885
X122547Y-57672
X122547Y-58459
X122547Y-59247
X124188Y-57967
X124188Y-58755
T0
M30
