  0
SECTION
  2
HEADER
  9
$ACADVER
  1
AC1024
  9
$ACADMAINTVER
 70
     6
  9
$DWGCODEPAGE
  3
UNDEFINED
  9
$INSBASE
 10
0.0
 20
0.0
 30
0.0
  9
$EXTMIN
 10
1.000000000000000E+20
 20
1.000000000000000E+20
 30
1.000000000000000E+20
  9
$EXTMAX
 10
-1.000000000000000E+20
 20
-1.000000000000000E+20
 30
-1.000000000000000E+20
  9
$LIMMIN
 10
0.0
 20
0.0
  9
$LIMMAX
 10
12.0
 20
9.0
  9
$ORTHOMODE
 70
     0
  9
$REGENMODE
 70
     1
  9
$FILLMODE
 70
     1
  9
$QTEXTMODE
 70
     0
  9
$MIRRTEXT
 70
     1
  9
$LTSCALE
 40
1.0
  9
$ATTMODE
 70
     1
  9
$TEXTSIZE
 40
0.2
  9
$TRACEWID
 40
0.05
  9
$TEXTSTYLE
  7
Standard
  9
$CLAYER
  8
0
  9
$CELTYPE
  6
ByLayer
  9
$CECOLOR
 62
   256
  9
$CELTSCALE
 40
1.0
  9
$DISPSILH
 70
     0
  9
$DIMSCALE
 40
1.0
  9
$DIMASZ
 40
0.18
  9
$DIMEXO
 40
0.0625
  9
$DIMDLI
 40
0.38
  9
$DIMRND
 40
0.0
  9
$DIMDLE
 40
0.0
  9
$DIMEXE
 40
0.18
  9
$DIMTP
 40
0.0
  9
$DIMTM
 40
0.0
  9
$DIMTXT
 40
0.18
  9
$DIMCEN
 40
0.09
  9
$DIMTSZ
 40
0.0
  9
$DIMTOL
 70
     0
  9
$DIMLIM
 70
     0
  9
$DIMTIH
 70
     1
  9
$DIMTOH
 70
     1
  9
$DIMSE1
 70
     0
  9
$DIMSE2
 70
     0
  9
$DIMTAD
 70
     0
  9
$DIMZIN
 70
     0
  9
$DIMBLK
  1

  9
$DIMASO
 70
     1
  9
$DIMSHO
 70
     1
  9
$DIMPOST
  1

  9
$DIMAPOST
  1

  9
$DIMALT
 70
     0
  9
$DIMALTD
 70
     2
  9
$DIMALTF
 40
25.4
  9
$DIMLFAC
 40
1.0
  9
$DIMTOFL
 70
     0
  9
$DIMTVP
 40
0.0
  9
$DIMTIX
 70
     0
  9
$DIMSOXD
 70
     0
  9
$DIMSAH
 70
     0
  9
$DIMBLK1
  1

  9
$DIMBLK2
  1

  9
$DIMSTYLE
  2
Standard
  9
$DIMCLRD
 70
     0
  9
$DIMCLRE
 70
     0
  9
$DIMCLRT
 70
     0
  9
$DIMTFAC
 40
1.0
  9
$DIMGAP
 40
0.09
  9
$DIMJUST
 70
     0
  9
$DIMSD1
 70
     0
  9
$DIMSD2
 70
     0
  9
$DIMTOLJ
 70
     1
  9
$DIMTZIN
 70
     0
  9
$DIMALTZ
 70
     0
  9
$DIMALTTZ
 70
     0
  9
$DIMUPT
 70
     0
  9
$DIMDEC
 70
     4
  9
$DIMTDEC
 70
     4
  9
$DIMALTU
 70
     2
  9
$DIMALTTD
 70
     2
  9
$DIMTXSTY
  7
Standard
  9
$DIMAUNIT
 70
     0
  9
$DIMADEC
 70
     0
  9
$DIMALTRND
 40
0.0
  9
$DIMAZIN
 70
     0
  9
$DIMDSEP
 70
    46
  9
$DIMATFIT
 70
     3
  9
$DIMFRAC
 70
     0
  9
$DIMLDRBLK
  1

  9
$DIMLUNIT
 70
     2
  9
$DIMLWD
 70
    -2
  9
$DIMLWE
 70
    -2
  9
$DIMTMOVE
 70
     0
  9
$DIMFXL
 40
1.0
  9
$DIMFXLON
 70
     0
  9
$DIMJOGANG
 40
0.7853981633974483
  9
$DIMTFILL
 70
     0
  9
$DIMTFILLCLR
 70
     0
  9
$DIMARCSYM
 70
     0
  9
$DIMLTYPE
  6

  9
$DIMLTEX1
  6

  9
$DIMLTEX2
  6

  9
$DIMTXTDIRECTION
 70
     0
  9
$LUNITS
 70
     2
  9
$LUPREC
 70
     4
  9
$SKETCHINC
 40
0.1
  9
$FILLETRAD
 40
0.5
  9
$AUNITS
 70
     0
  9
$AUPREC
 70
     0
  9
$MENU
  1
.
  9
$ELEVATION
 40
0.0
  9
$PELEVATION
 40
0.0
  9
$THICKNESS
 40
0.0
  9
$LIMCHECK
 70
     0
  9
$CHAMFERA
 40
0.5
  9
$CHAMFERB
 40
0.5
  9
$CHAMFERC
 40
1.0
  9
$CHAMFERD
 40
0.0
  9
$SKPOLY
 70
     0
  9
$TDCREATE
 40
2458537.537847222
  9
$TDUCREATE
 40
2458537.871180556
  9
$TDUPDATE
 40
2458537.537847222
  9
$TDUUPDATE
 40
2458537.871180556
  9
$TDINDWG
 40
0.0000000116
  9
$TDUSRTIMER
 40
0.0000000116
  9
$USRTIMER
 70
     1
  9
$ANGBASE
 50
0.0
  9
$ANGDIR
 70
     0
  9
$PDMODE
 70
     0
  9
$PDSIZE
 40
0.0
  9
$PLINEWID
 40
0.0
  9
$SPLFRAME
 70
     0
  9
$SPLINETYPE
 70
     6
  9
$SPLINESEGS
 70
     8
  9
$HANDSEED
  5
3FC
  9
$SURFTAB1
 70
     6
  9
$SURFTAB2
 70
     6
  9
$SURFTYPE
 70
     6
  9
$SURFU
 70
     6
  9
$SURFV
 70
     6
  9
$UCSBASE
  2

  9
$UCSNAME
  2

  9
$UCSORG
 10
0.0
 20
0.0
 30
0.0
  9
$UCSXDIR
 10
1.0
 20
0.0
 30
0.0
  9
$UCSYDIR
 10
0.0
 20
1.0
 30
0.0
  9
$UCSORTHOREF
  2

  9
$UCSORTHOVIEW
 70
     0
  9
$UCSORGTOP
 10
0.0
 20
0.0
 30
0.0
  9
$UCSORGBOTTOM
 10
0.0
 20
0.0
 30
0.0
  9
$UCSORGLEFT
 10
0.0
 20
0.0
 30
0.0
  9
$UCSORGRIGHT
 10
0.0
 20
0.0
 30
0.0
  9
$UCSORGFRONT
 10
0.0
 20
0.0
 30
0.0
  9
$UCSORGBACK
 10
0.0
 20
0.0
 30
0.0
  9
$PUCSBASE
  2

  9
$PUCSNAME
  2

  9
$PUCSORG
 10
0.0
 20
0.0
 30
0.0
  9
$PUCSXDIR
 10
1.0
 20
0.0
 30
0.0
  9
$PUCSYDIR
 10
0.0
 20
1.0
 30
0.0
  9
$PUCSORTHOREF
  2

  9
$PUCSORTHOVIEW
 70
     0
  9
$PUCSORGTOP
 10
0.0
 20
0.0
 30
0.0
  9
$PUCSORGBOTTOM
 10
0.0
 20
0.0
 30
0.0
  9
$PUCSORGLEFT
 10
0.0
 20
0.0
 30
0.0
  9
$PUCSORGRIGHT
 10
0.0
 20
0.0
 30
0.0
  9
$PUCSORGFRONT
 10
0.0
 20
0.0
 30
0.0
  9
$PUCSORGBACK
 10
0.0
 20
0.0
 30
0.0
  9
$USERI1
 70
     0
  9
$USERI2
 70
     0
  9
$USERI3
 70
     0
  9
$USERI4
 70
     0
  9
$USERI5
 70
     0
  9
$USERR1
 40
0.0
  9
$USERR2
 40
0.0
  9
$USERR3
 40
0.0
  9
$USERR4
 40
0.0
  9
$USERR5
 40
0.0
  9
$WORLDVIEW
 70
     1
  9
$SHADEDGE
 70
     3
  9
$SHADEDIF
 70
    70
  9
$TILEMODE
 70
     1
  9
$MAXACTVP
 70
    64
  9
$PINSBASE
 10
0.0
 20
0.0
 30
0.0
  9
$PLIMCHECK
 70
     0
  9
$PEXTMIN
 10
1.000000000000000E+20
 20
1.000000000000000E+20
 30
1.000000000000000E+20
  9
$PEXTMAX
 10
-1.000000000000000E+20
 20
-1.000000000000000E+20
 30
-1.000000000000000E+20
  9
$PLIMMIN
 10
0.0
 20
0.0
  9
$PLIMMAX
 10
12.0
 20
9.0
  9
$UNITMODE
 70
     0
  9
$VISRETAIN
 70
     1
  9
$PLINEGEN
 70
     0
  9
$PSLTSCALE
 70
     1
  9
$TREEDEPTH
 70
  3020
  9
$CMLSTYLE
  2
Standard
  9
$CMLJUST
 70
     0
  9
$CMLSCALE
 40
1.0
  9
$PROXYGRAPHICS
 70
     1
  9
$MEASUREMENT
 70
     0
  9
$CELWEIGHT
370
    -1
  9
$ENDCAPS
280
     0
  9
$JOINSTYLE
280
     0
  9
$LWDISPLAY
290
     1
  9
$INSUNITS
 70
     1
  9
$HYPERLINKBASE
  1

  9
$STYLESHEET
  1

  9
$XEDIT
290
     1
  9
$CEPSNTYPE
380
     0
  9
$PSTYLEMODE
290
     1
  9
$FINGERPRINTGUID
  2
{66127ED6-036F-5ADF-5B74-A15E91F17E18}
  9
$VERSIONGUID
  2
{FAEB1C32-E019-11D5-929B-00C0DF256EC4}
  9
$EXTNAMES
290
     1
  9
$PSVPSCALE
 40
0.0
  9
$OLESTARTUP
290
     0
  9
$SORTENTS
280
   127
  9
$INDEXCTL
280
     0
  9
$HIDETEXT
280
     1
  9
$XCLIPFRAME
280
     2
  9
$HALOGAP
280
     0
  9
$OBSCOLOR
 70
   257
  9
$OBSLTYPE
280
     0
  9
$INTERSECTIONDISPLAY
280
     0
  9
$INTERSECTIONCOLOR
 70
   257
  9
$DIMASSOC
280
     2
  9
$PROJECTNAME
  1

  9
$CAMERADISPLAY
290
     0
  9
$LENSLENGTH
 40
50.0
  9
$CAMERAHEIGHT
 40
0.0
  9
$STEPSPERSEC
 40
2.0
  9
$STEPSIZE
 40
6.0
  9
$3DDWFPREC
 40
2.0
  9
$PSOLWIDTH
 40
0.25
  9
$PSOLHEIGHT
 40
4.0
  9
$LOFTANG1
 40
1.570796326794897
  9
$LOFTANG2
 40
1.570796326794897
  9
$LOFTMAG1
 40
0.0
  9
$LOFTMAG2
 40
0.0
  9
$LOFTPARAM
 70
     7
  9
$LOFTNORMALS
280
     1
  9
$LATITUDE
 40
37.795
  9
$LONGITUDE
 40
-122.394
  9
$NORTHDIRECTION
 40
0.0
  9
$TIMEZONE
 70
 -8000
  9
$LIGHTGLYPHDISPLAY
280
     1
  9
$TILEMODELIGHTSYNCH
280
     1
  9
$CMATERIAL
347
3C
  9
$SOLIDHIST
280
     1
  9
$SHOWHIST
280
     1
  9
$DWFFRAME
280
     2
  9
$DGNFRAME
280
     2
  9
$REALWORLDSCALE
290
     1
  9
$INTERFERECOLOR
 62
   256
  9
$CSHADOW
280
     0
  9
$SHADOWPLANELOCATION
 40
0.0
  0
ENDSEC
  0
SECTION
  2
CLASSES
  0
CLASS
  1
ACDBDICTIONARYWDFLT
  2
AcDbDictionaryWithDefault
  3
ObjectDBX Classes
 90
        0
 91
        4
280
     0
281
     0
  0
CLASS
  1
VISUALSTYLE
  2
AcDbVisualStyle
  3
ObjectDBX Classes
 90
     4095
 91
        4
280
     0
281
     0
  0
CLASS
  1
MATERIAL
  2
AcDbMaterial
  3
ObjectDBX Classes
 90
     1153
 91
        4
280
     0
281
     0
  0
CLASS
  1
SUN
  2
AcDbSun
  3
SCENEOE
 90
     1024
 91
        4
280
     0
281
     0
  0
ENDSEC
  0
SECTION
  2
TABLES
  0
TABLE
  2
VPORT
  5
8
330
0
100
AcDbSymbolTable
 70
     1
  0
VPORT
  5
29
330
8
100
AcDbSymbolTableRecord
100
AcDbViewportTableRecord
  2
*Active
 70
     0
 10
0.0
 20
0.0
 11
1.0
 21
1.0
 12
0.0
 22
0.0
 13
0.0
 23
0.0
 14
0.5
 24
0.5
 15
0.5
 25
0.5
 16
0.0
 26
0.0
 36
1.0
 17
15.80972290039062
 27
11.89722188313806
 37
0.0
 40
23.79444376627612
 41
1.328858371784909
 42
50.0
 43
0.0
 44
0.0
 50
0.0
 51
0.0
 71
     0
 72
   100
 73
     1
 74
     3
 75
     0
 76
     0
 77
     0
 78
     0
281
     0
 65
     1
110
0.0
120
0.0
130
0.0
111
1.0
121
0.0
131
0.0
112
0.0
122
1.0
132
0.0
 79
     0
146
0.0
 60
     3
 61
     5
292
     1
282
     1
141
0.0
142
0.0
 63
   250
361
3F
  0
ENDTAB
  0
TABLE
  2
LTYPE
  5
5
330
0
100
AcDbSymbolTable
 70
     1
  0
LTYPE
  5
14
330
5
100
AcDbSymbolTableRecord
100
AcDbLinetypeTableRecord
  2
ByBlock
 70
     0
  3

 72
    65
 73
     0
 40
0.0
  0
LTYPE
  5
15
330
5
100
AcDbSymbolTableRecord
100
AcDbLinetypeTableRecord
  2
ByLayer
 70
     0
  3

 72
    65
 73
     0
 40
0.0
  0
LTYPE
  5
16
330
5
100
AcDbSymbolTableRecord
100
AcDbLinetypeTableRecord
  2
Continuous
 70
     0
  3
Solid line
 72
    65
 73
     0
 40
0.0
  0
ENDTAB
  0
TABLE
  2
LAYER
  5
2
330
0
100
AcDbSymbolTable
 70
     3
  0
LAYER
  5
10
330
2
100
AcDbSymbolTableRecord
100
AcDbLayerTableRecord
  2
0
 70
     0
 62
     7
  6
Continuous
370
    -3
390
F
347
3E
  0
LAYER
  5
40
330
2
100
AcDbSymbolTableRecord
100
AcDbLayerTableRecord
  2
Board Outlines
 70
     1
 62
     7
  6
Continuous
370
    -3
390
F
347
3E
  0
LAYER
  5
41
330
2
100
AcDbSymbolTableRecord
100
AcDbLayerTableRecord
  2
Silkscreen
 70
     0
 62
     7
  6
Continuous
370
    -3
390
F
347
3E
  0
ENDTAB
  0
TABLE
  2
STYLE
  5
3
330
0
100
AcDbSymbolTable
 70
     1
  0
STYLE
  5
11
330
3
100
AcDbSymbolTableRecord
100
AcDbTextStyleTableRecord
  2
Standard
 70
     0
 40
0.0
 41
1.0
 50
0.0
 71
     0
 42
0.2
  3
txt
  4

  0
ENDTAB
  0
TABLE
  2
VIEW
  5
6
330
0
100
AcDbSymbolTable
 70
     0
  0
ENDTAB
  0
TABLE
  2
UCS
  5
7
330
0
100
AcDbSymbolTable
 70
     0
  0
ENDTAB
  0
TABLE
  2
APPID
  5
9
330
0
100
AcDbSymbolTable
 70
     1
  0
APPID
  5
12
330
9
100
AcDbSymbolTableRecord
100
AcDbRegAppTableRecord
  2
ACAD
 70
     0
  0
ENDTAB
  0
TABLE
  2
DIMSTYLE
  5
A
330
0
100
AcDbSymbolTable
 70
     1
100
AcDbDimStyleTable
  0
DIMSTYLE
105
27
330
A
100
AcDbSymbolTableRecord
100
AcDbDimStyleTableRecord
  2
Standard
 70
     0
178
     0
340
11
  0
ENDTAB
  0
TABLE
  2
BLOCK_RECORD
  5
1
330
0
100
AcDbSymbolTable
 70
     2
  0
BLOCK_RECORD
  5
1F
330
1
100
AcDbSymbolTableRecord
100
AcDbBlockTableRecord
  2
*Model_Space
340
22
 70
     0
280
     1
281
     0
  0
BLOCK_RECORD
  5
1B
330
1
100
AcDbSymbolTableRecord
100
AcDbBlockTableRecord
  2
*Paper_Space
340
1E
 70
     0
280
     1
281
     0
  0
BLOCK_RECORD
  5
23
330
1
100
AcDbSymbolTableRecord
100
AcDbBlockTableRecord
  2
*Paper_Space0
340
26
 70
     0
280
     1
281
     0
  0
BLOCK_RECORD
  5
42
330
1
100
AcDbSymbolTableRecord
100
AcDbBlockTableRecord
  2
block 2
340
0
102
{BLKREFS
331
43
102
}
 70
     0
280
     1
281
     0
  0
ENDTAB
  0
ENDSEC
  0
SECTION
  2
BLOCKS
  0
BLOCK
  5
20
330
1F
100
AcDbEntity
  8
0
100
AcDbBlockBegin
  2
*Model_Space
 70
     0
 10
0.0
 20
0.0
 30
0.0
  3
*Model_Space
  1

  0
ENDBLK
  5
21
330
1F
100
AcDbEntity
  8
0
100
AcDbBlockEnd
  0
BLOCK
  5
1C
330
1B
100
AcDbEntity
 67
     1
  8
0
100
AcDbBlockBegin
  2
*Paper_Space
 70
     0
 10
0.0
 20
0.0
 30
0.0
  3
*Paper_Space
  1

  0
ENDBLK
  5
1D
330
1B
100
AcDbEntity
 67
     1
  8
0
100
AcDbBlockEnd
  0
BLOCK
  5
24
330
23
100
AcDbEntity
  8
0
100
AcDbBlockBegin
  2
*Paper_Space0
 70
     0
 10
0.0
 20
0.0
 30
0.0
  3
*Paper_Space0
  1

  0
ENDBLK
  5
25
330
23
100
AcDbEntity
  8
0
100
AcDbBlockEnd
  0
BLOCK
  5
44
330
42
100
AcDbEntity
  8
0
100
AcDbBlockBegin
  2
block 2
 70
     0
 10
0.0
 20
0.0
 30
0.0
  3
block 2
  1

  0
POLYLINE
  5
46
330
42
100
AcDbEntity
  8
Silkscreen
 62
   132
420
    47827
370
    35
100
AcDb2dPolyline
 66
     1
 10
0.0
 20
0.0
 30
0.0
  0
VERTEX
  5
47
330
46
100
AcDbEntity
  8
Silkscreen
 62
   132
420
    47827
370
    35
100
AcDbVertex
100
AcDb2dVertex
 10
14.04166666666667
 20
16.6236097547743
 30
0.0
  0
VERTEX
  5
48
330
46
100
AcDbEntity
  8
Silkscreen
 62
   132
420
    47827
370
    35
100
AcDbVertex
100
AcDb2dVertex
 10
14.03055572509764
 20
16.64583333333333
 30
0.0
  0
VERTEX
  5
49
330
46
100
AcDbEntity
  8
Silkscreen
 62
   132
420
    47827
370
    35
100
AcDbVertex
100
AcDb2dVertex
 10
14.01250033908416
 20
16.66388787163624
 30
0.0
  0
VERTEX
  5
4A
330
46
100
AcDbEntity
  8
Silkscreen
 62
   132
420
    47827
370
    35
100
AcDbVertex
100
AcDb2dVertex
 10
13.99027845594625
 20
16.67499796549487
 30
0.0
  0
VERTEX
  5
4B
330
46
100
AcDbEntity
  8
Silkscreen
 62
   132
420
    47827
370
    35
100
AcDbVertex
100
AcDb2dVertex
 10
13.96666717529292
 20
16.67916531032986
 30
0.0
  0
VERTEX
  5
4C
330
46
100
AcDbEntity
  8
Silkscreen
 62
   132
420
    47827
370
    35
100
AcDbVertex
100
AcDb2dVertex
 10
13.95416683620875
 20
16.67916531032986
 30
0.0
  0
VERTEX
  5
4D
330
46
100
AcDbEntity
  8
Silkscreen
 62
   132
420
    47827
370
    35
100
AcDbVertex
100
AcDb2dVertex
 10
13.94861094156902
 20
16.69027709960945
 30
0.0
  0
VERTEX
  5
4E
330
46
100
AcDbEntity
  8
Silkscreen
 62
   132
420
    47827
370
    35
100
AcDbVertex
100
AcDb2dVertex
 10
13.92916615804041
 20
16.70972018771709
 30
0.0
  0
VERTEX
  5
4F
330
46
100
AcDbEntity
  8
Silkscreen
 62
   132
420
    47827
370
    35
100
AcDbVertex
100
AcDb2dVertex
 10
13.9041663275825
 20
16.72222052680125
 30
0.0
  0
VERTEX
  5
50
330
46
100
AcDbEntity
  8
Silkscreen
 62
   132
420
    47827
370
    35
100
AcDbVertex
100
AcDb2dVertex
 10
13.87638854980469
 20
16.72638617621528
 30
0.0
  0
VERTEX
  5
51
330
46
100
AcDbEntity
  8
Silkscreen
 62
   132
420
    47827
370
    35
100
AcDbVertex
100
AcDb2dVertex
 10
13.62222205268012
 20
16.72638617621528
 30
0.0
  0
VERTEX
  5
52
330
46
100
AcDbEntity
  8
Silkscreen
 62
   132
420
    47827
370
    35
100
AcDbVertex
100
AcDb2dVertex
 10
13.59444427490234
 20
16.72222052680125
 30
0.0
  0
VERTEX
  5
53
330
46
100
AcDbEntity
  8
Silkscreen
 62
   132
420
    47827
370
    35
100
AcDbVertex
100
AcDb2dVertex
 10
13.56944444444444
 20
16.70972018771709
 30
0.0
  0
VERTEX
  5
54
330
46
100
AcDbEntity
  8
Silkscreen
 62
   132
420
    47827
370
    35
100
AcDbVertex
100
AcDb2dVertex
 10
13.5499996609158
 20
16.69027709960945
 30
0.0
  0
VERTEX
  5
55
330
46
100
AcDbEntity
  8
Silkscreen
 62
   132
420
    47827
370
    35
100
AcDbVertex
100
AcDb2dVertex
 10
13.54444376627604
 20
16.67916531032986
 30
0.0
  0
VERTEX
  5
56
330
46
100
AcDbEntity
  8
Silkscreen
 62
   132
420
    47827
370
    35
100
AcDbVertex
100
AcDb2dVertex
 10
10.94518788655599
 20
16.67916531032986
 30
0.0
  0
VERTEX
  5
57
330
46
100
AcDbEntity
  8
Silkscreen
 62
   132
420
    47827
370
    35
100
AcDbVertex
100
AcDb2dVertex
 10
10.94518788655599
 20
16.84305487738723
 30
0.0
  0
VERTEX
  5
58
330
46
100
AcDbEntity
  8
Silkscreen
 62
   132
420
    47827
370
    35
100
AcDbVertex
100
AcDb2dVertex
 10
13.54722256130642
 20
16.84305487738723
 30
0.0
  0
VERTEX
  5
59
330
46
100
AcDbEntity
  8
Silkscreen
 62
   132
420
    47827
370
    35
100
AcDbVertex
100
AcDb2dVertex
 10
13.55277845594618
 20
16.83194478352861
 30
0.0
  0
VERTEX
  5
5A
330
46
100
AcDbEntity
  8
Silkscreen
 62
   132
420
    47827
370
    35
100
AcDbVertex
100
AcDb2dVertex
 10
13.57222323947483
 20
16.8125
 30
0.0
  0
VERTEX
  5
5B
330
46
100
AcDbEntity
  8
Silkscreen
 62
   132
420
    47827
370
    35
100
AcDbVertex
100
AcDb2dVertex
 10
13.59722306993272
 20
16.8000013563368
 30
0.0
  0
VERTEX
  5
5C
330
46
100
AcDbEntity
  8
Silkscreen
 62
   132
420
    47827
370
    35
100
AcDbVertex
100
AcDb2dVertex
 10
13.6250008477105
 20
16.79583401150181
 30
0.0
  0
VERTEX
  5
5D
330
46
100
AcDbEntity
  8
Silkscreen
 62
   132
420
    47827
370
    35
100
AcDbVertex
100
AcDb2dVertex
 10
13.87916734483507
 20
16.79583401150181
 30
0.0
  0
VERTEX
  5
5E
330
46
100
AcDbEntity
  8
Silkscreen
 62
   132
420
    47827
370
    35
100
AcDbVertex
100
AcDb2dVertex
 10
13.90694512261292
 20
16.8000013563368
 30
0.0
  0
VERTEX
  5
5F
330
46
100
AcDbEntity
  8
Silkscreen
 62
   132
420
    47827
370
    35
100
AcDbVertex
100
AcDb2dVertex
 10
13.9319449530707
 20
16.8125
 30
0.0
  0
VERTEX
  5
60
330
46
100
AcDbEntity
  8
Silkscreen
 62
   132
420
    47827
370
    35
100
AcDbVertex
100
AcDb2dVertex
 10
13.95138973659944
 20
16.83194478352861
 30
0.0
  0
VERTEX
  5
61
330
46
100
AcDbEntity
  8
Silkscreen
 62
   132
420
    47827
370
    35
100
AcDbVertex
100
AcDb2dVertex
 10
13.95694563123916
 20
16.84305487738723
 30
0.0
  0
VERTEX
  5
62
330
46
100
AcDbEntity
  8
Silkscreen
 62
   132
420
    47827
370
    35
100
AcDbVertex
100
AcDb2dVertex
 10
13.96944597032334
 20
16.84305487738723
 30
0.0
  0
VERTEX
  5
63
330
46
100
AcDbEntity
  8
Silkscreen
 62
   132
420
    47827
370
    35
100
AcDbVertex
100
AcDb2dVertex
 10
13.99305725097652
 20
16.84722222222222
 30
0.0
  0
VERTEX
  5
64
330
46
100
AcDbEntity
  8
Silkscreen
 62
   132
420
    47827
370
    35
100
AcDbVertex
100
AcDb2dVertex
 10
14.01527913411458
 20
16.85833401150181
 30
0.0
  0
VERTEX
  5
65
330
46
100
AcDbEntity
  8
Silkscreen
 62
   132
420
    47827
370
    35
100
AcDbVertex
100
AcDb2dVertex
 10
14.03333452012805
 20
16.87638854980472
 30
0.0
  0
VERTEX
  5
66
330
46
100
AcDbEntity
  8
Silkscreen
 62
   132
420
    47827
370
    35
100
AcDbVertex
100
AcDb2dVertex
 10
14.04444546169709
 20
16.89861043294278
 30
0.0
  0
VERTEX
  5
67
330
46
100
AcDbEntity
  8
Silkscreen
 62
   132
420
    47827
370
    35
100
AcDbVertex
100
AcDb2dVertex
 10
14.04861195882166
 20
16.92222086588541
 30
0.0
  0
VERTEX
  5
68
330
46
100
AcDbEntity
  8
Silkscreen
 62
   132
420
    47827
370
    35
100
AcDbVertex
100
AcDb2dVertex
 10
14.04861195882166
 20
17.13888888888889
 30
0.0
  0
VERTEX
  5
69
330
46
100
AcDbEntity
  8
Silkscreen
 62
   132
420
    47827
370
    35
100
AcDbVertex
100
AcDb2dVertex
 10
14.10972256130638
 20
17.13888888888889
 30
0.0
  0
VERTEX
  5
6A
330
46
100
AcDbEntity
  8
Silkscreen
 62
   132
420
    47827
370
    35
100
AcDbVertex
100
AcDb2dVertex
 10
14.10972256130638
 20
16.38333299424917
 30
0.0
  0
VERTEX
  5
6B
330
46
100
AcDbEntity
  8
Silkscreen
 62
   132
420
    47827
370
    35
100
AcDbVertex
100
AcDb2dVertex
 10
14.04861195882166
 20
16.38333299424917
 30
0.0
  0
VERTEX
  5
6C
330
46
100
AcDbEntity
  8
Silkscreen
 62
   132
420
    47827
370
    35
100
AcDbVertex
100
AcDb2dVertex
 10
14.04861195882166
 20
16.59861077202695
 30
0.0
  0
VERTEX
  5
6D
330
46
100
AcDbEntity
  8
Silkscreen
 62
   132
420
    47827
370
    35
100
AcDbVertex
100
AcDb2dVertex
 10
14.04166666666667
 20
16.6236097547743
 30
0.0
  0
SEQEND
  5
6E
330
46
100
AcDbEntity
  8
Silkscreen
 62
   132
420
    47827
370
    35
  0
POLYLINE
  5
6F
330
42
100
AcDbEntity
  8
Silkscreen
 62
   132
420
    47827
370
    35
100
AcDb2dPolyline
 66
     1
 10
0.0
 20
0.0
 30
0.0
  0
VERTEX
  5
70
330
6F
100
AcDbEntity
  8
Silkscreen
 62
   132
420
    47827
370
    35
100
AcDbVertex
100
AcDb2dVertex
 10
13.56944529215495
 20
14.39444308810764
 30
0.0
  0
VERTEX
  5
71
330
6F
100
AcDbEntity
  8
Silkscreen
 62
   132
420
    47827
370
    35
100
AcDbVertex
100
AcDb2dVertex
 10
13.56944529215495
 20
14.43402777777778
 30
0.0
  0
VERTEX
  5
72
330
6F
100
AcDbEntity
  8
Silkscreen
 62
   132
420
    47827
370
    35
100
AcDbVertex
100
AcDb2dVertex
 10
13.6875008477105
 20
14.43402777777778
 30
0.0
  0
VERTEX
  5
73
330
6F
100
AcDbEntity
  8
Silkscreen
 62
   132
420
    47827
370
    35
100
AcDbVertex
100
AcDb2dVertex
 10
13.6875008477105
 20
14.39444308810764
 30
0.0
  0
VERTEX
  5
74
330
6F
100
AcDbEntity
  8
Silkscreen
 62
   132
420
    47827
370
    35
100
AcDbVertex
100
AcDb2dVertex
 10
13.74305555555556
 20
14.39444308810764
 30
0.0
  0
VERTEX
  5
75
330
6F
100
AcDbEntity
  8
Silkscreen
 62
   132
420
    47827
370
    35
100
AcDbVertex
100
AcDb2dVertex
 10
13.74305555555556
 20
14.44513787163625
 30
0.0
  0
VERTEX
  5
76
330
6F
100
AcDbEntity
  8
Silkscreen
 62
   132
420
    47827
370
    35
100
AcDbVertex
100
AcDb2dVertex
 10
13.80972205268012
 20
14.44513787163625
 30
0.0
  0
VERTEX
  5
77
330
6F
100
AcDbEntity
  8
Silkscreen
 62
   132
420
    47827
370
    35
100
AcDbVertex
100
AcDb2dVertex
 10
13.80972205268012
 20
14.33333333333333
 30
0.0
  0
VERTEX
  5
78
330
6F
100
AcDbEntity
  8
Silkscreen
 62
   132
420
    47827
370
    35
100
AcDbVertex
100
AcDb2dVertex
 10
13.71805572509766
 20
14.33333333333333
 30
0.0
  0
VERTEX
  5
79
330
6F
100
AcDbEntity
  8
Silkscreen
 62
   132
420
    47827
370
    35
100
AcDbVertex
100
AcDb2dVertex
 10
13.71805572509766
 20
14.29166666666667
 30
0.0
  0
VERTEX
  5
7A
330
6F
100
AcDbEntity
  8
Silkscreen
 62
   132
420
    47827
370
    35
100
AcDbVertex
100
AcDb2dVertex
 10
13.57083299424913
 20
14.29166666666667
 30
0.0
  0
VERTEX
  5
7B
330
6F
100
AcDbEntity
  8
Silkscreen
 62
   132
420
    47827
370
    35
100
AcDbVertex
100
AcDb2dVertex
 10
13.57083299424913
 20
14.33194308810764
 30
0.0
  0
VERTEX
  5
7C
330
6F
100
AcDbEntity
  8
Silkscreen
 62
   132
420
    47827
370
    35
100
AcDbVertex
100
AcDb2dVertex
 10
10.94518788655599
 20
14.33194308810764
 30
0.0
  0
VERTEX
  5
7D
330
6F
100
AcDbEntity
  8
Silkscreen
 62
   132
420
    47827
370
    35
100
AcDbVertex
100
AcDb2dVertex
 10
10.94518788655599
 20
14.39444308810764
 30
0.0
  0
VERTEX
  5
7E
330
6F
100
AcDbEntity
  8
Silkscreen
 62
   132
420
    47827
370
    35
100
AcDbVertex
100
AcDb2dVertex
 10
13.56944529215495
 20
14.39444308810764
 30
0.0
  0
SEQEND
  5
7F
330
6F
100
AcDbEntity
  8
Silkscreen
 62
   132
420
    47827
370
    35
  0
POLYLINE
  5
80
330
42
100
AcDbEntity
  8
Silkscreen
 62
   132
420
    47827
370
    35
100
AcDb2dPolyline
 66
     1
 10
0.0
 20
0.0
 30
0.0
  0
VERTEX
  5
81
330
80
100
AcDbEntity
  8
Silkscreen
 62
   132
420
    47827
370
    35
100
AcDbVertex
100
AcDb2dVertex
 10
13.90507507324222
 20
13.73194376627604
 30
0.0
  0
VERTEX
  5
82
330
80
100
AcDbEntity
  8
Silkscreen
 62
   132
420
    47827
370
    35
100
AcDbVertex
100
AcDb2dVertex
 10
13.90507507324222
 20
13.69305419921875
 30
0.0
  0
VERTEX
  5
83
330
80
100
AcDbEntity
  8
Silkscreen
 62
   132
420
    47827
370
    35
100
AcDbVertex
100
AcDb2dVertex
 10
13.78701951768663
 20
13.69305419921875
 30
0.0
  0
VERTEX
  5
84
330
80
100
AcDbEntity
  8
Silkscreen
 62
   132
420
    47827
370
    35
100
AcDbVertex
100
AcDb2dVertex
 10
13.78701951768663
 20
13.73194376627604
 30
0.0
  0
VERTEX
  5
85
330
80
100
AcDbEntity
  8
Silkscreen
 62
   132
420
    47827
370
    35
100
AcDbVertex
100
AcDb2dVertex
 10
10.94518788655599
 20
13.73194376627604
 30
0.0
  0
VERTEX
  5
86
330
80
100
AcDbEntity
  8
Silkscreen
 62
   132
420
    47827
370
    35
100
AcDbVertex
100
AcDb2dVertex
 10
10.94518788655599
 20
13.79583231608073
 30
0.0
  0
VERTEX
  5
87
330
80
100
AcDbEntity
  8
Silkscreen
 62
   132
420
    47827
370
    35
100
AcDbVertex
100
AcDb2dVertex
 10
13.78701951768663
 20
13.79583231608073
 30
0.0
  0
VERTEX
  5
88
330
80
100
AcDbEntity
  8
Silkscreen
 62
   132
420
    47827
370
    35
100
AcDbVertex
100
AcDb2dVertex
 10
13.78701951768663
 20
13.83472103542752
 30
0.0
  0
VERTEX
  5
89
330
80
100
AcDbEntity
  8
Silkscreen
 62
   132
420
    47827
370
    35
100
AcDbVertex
100
AcDb2dVertex
 10
13.90507507324222
 20
13.83472103542752
 30
0.0
  0
VERTEX
  5
8A
330
80
100
AcDbEntity
  8
Silkscreen
 62
   132
420
    47827
370
    35
100
AcDbVertex
100
AcDb2dVertex
 10
13.90507507324222
 20
13.79583231608073
 30
0.0
  0
VERTEX
  5
8B
330
80
100
AcDbEntity
  8
Silkscreen
 62
   132
420
    47827
370
    35
100
AcDbVertex
100
AcDb2dVertex
 10
13.94444444444444
 20
13.79583231608073
 30
0.0
  0
VERTEX
  5
8C
330
80
100
AcDbEntity
  8
Silkscreen
 62
   132
420
    47827
370
    35
100
AcDbVertex
100
AcDb2dVertex
 10
13.94444444444444
 20
13.83472103542752
 30
0.0
  0
VERTEX
  5
8D
330
80
100
AcDbEntity
  8
Silkscreen
 62
   132
420
    47827
370
    35
100
AcDbVertex
100
AcDb2dVertex
 10
14.00833384195958
 20
13.83472103542752
 30
0.0
  0
VERTEX
  5
8E
330
80
100
AcDbEntity
  8
Silkscreen
 62
   132
420
    47827
370
    35
100
AcDbVertex
100
AcDb2dVertex
 10
14.00833384195958
 20
13.69305419921875
 30
0.0
  0
VERTEX
  5
8F
330
80
100
AcDbEntity
  8
Silkscreen
 62
   132
420
    47827
370
    35
100
AcDbVertex
100
AcDb2dVertex
 10
13.94444444444444
 20
13.69305419921875
 30
0.0
  0
VERTEX
  5
90
330
80
100
AcDbEntity
  8
Silkscreen
 62
   132
420
    47827
370
    35
100
AcDbVertex
100
AcDb2dVertex
 10
13.94444444444444
 20
13.73194376627604
 30
0.0
  0
VERTEX
  5
91
330
80
100
AcDbEntity
  8
Silkscreen
 62
   132
420
    47827
370
    35
100
AcDbVertex
100
AcDb2dVertex
 10
13.90507507324222
 20
13.73194376627604
 30
0.0
  0
SEQEND
  5
92
330
80
100
AcDbEntity
  8
Silkscreen
 62
   132
420
    47827
370
    35
  0
POLYLINE
  5
93
330
42
100
AcDbEntity
  8
Silkscreen
 62
   132
420
    47827
370
    35
100
AcDb2dPolyline
 66
     1
 10
0.0
 20
0.0
 30
0.0
  0
VERTEX
  5
94
330
93
100
AcDbEntity
  8
Silkscreen
 62
   132
420
    47827
370
    35
100
AcDbVertex
100
AcDb2dVertex
 10
3.025481330023871
 20
12.83333248562283
 30
0.0
  0
VERTEX
  5
95
330
93
100
AcDbEntity
  8
Silkscreen
 62
   132
420
    47827
370
    35
100
AcDbVertex
100
AcDb2dVertex
 10
3.025481330023871
 20
12.79444376627604
 30
0.0
  0
VERTEX
  5
96
330
93
100
AcDbEntity
  8
Silkscreen
 62
   132
420
    47827
370
    35
100
AcDbVertex
100
AcDb2dVertex
 10
2.907425774468316
 20
12.79444376627604
 30
0.0
  0
VERTEX
  5
97
330
93
100
AcDbEntity
  8
Silkscreen
 62
   132
420
    47827
370
    35
100
AcDbVertex
100
AcDb2dVertex
 10
2.907425774468316
 20
12.83333248562283
 30
0.0
  0
VERTEX
  5
98
330
93
100
AcDbEntity
  8
Silkscreen
 62
   132
420
    47827
370
    35
100
AcDbVertex
100
AcDb2dVertex
 10
2.868055555555555
 20
12.83333248562283
 30
0.0
  0
VERTEX
  5
99
330
93
100
AcDbEntity
  8
Silkscreen
 62
   132
420
    47827
370
    35
100
AcDbVertex
100
AcDb2dVertex
 10
2.868055555555555
 20
12.79444376627604
 30
0.0
  0
VERTEX
  5
9A
330
93
100
AcDbEntity
  8
Silkscreen
 62
   132
420
    47827
370
    35
100
AcDbVertex
100
AcDb2dVertex
 10
2.805556403266059
 20
12.79444376627604
 30
0.0
  0
VERTEX
  5
9B
330
93
100
AcDbEntity
  8
Silkscreen
 62
   132
420
    47827
370
    35
100
AcDbVertex
100
AcDb2dVertex
 10
2.805556403266059
 20
12.93611060248481
 30
0.0
  0
VERTEX
  5
9C
330
93
100
AcDbEntity
  8
Silkscreen
 62
   132
420
    47827
370
    35
100
AcDbVertex
100
AcDb2dVertex
 10
2.868055555555555
 20
12.93611060248481
 30
0.0
  0
VERTEX
  5
9D
330
93
100
AcDbEntity
  8
Silkscreen
 62
   132
420
    47827
370
    35
100
AcDbVertex
100
AcDb2dVertex
 10
2.868055555555555
 20
12.89722188313802
 30
0.0
  0
VERTEX
  5
9E
330
93
100
AcDbEntity
  8
Silkscreen
 62
   132
420
    47827
370
    35
100
AcDbVertex
100
AcDb2dVertex
 10
2.907425774468316
 20
12.89722188313802
 30
0.0
  0
VERTEX
  5
9F
330
93
100
AcDbEntity
  8
Silkscreen
 62
   132
420
    47827
370
    35
100
AcDbVertex
100
AcDb2dVertex
 10
2.907425774468316
 20
12.93472205268012
 30
0.0
  0
VERTEX
  5
A0
330
93
100
AcDbEntity
  8
Silkscreen
 62
   132
420
    47827
370
    35
100
AcDbVertex
100
AcDb2dVertex
 10
3.025481330023871
 20
12.93472205268012
 30
0.0
  0
VERTEX
  5
A1
330
93
100
AcDbEntity
  8
Silkscreen
 62
   132
420
    47827
370
    35
100
AcDbVertex
100
AcDb2dVertex
 10
3.025481330023871
 20
12.89722188313802
 30
0.0
  0
VERTEX
  5
A2
330
93
100
AcDbEntity
  8
Silkscreen
 62
   132
420
    47827
370
    35
100
AcDbVertex
100
AcDb2dVertex
 10
5.538932800292969
 20
12.89722188313802
 30
0.0
  0
VERTEX
  5
A3
330
93
100
AcDbEntity
  8
Silkscreen
 62
   132
420
    47827
370
    35
100
AcDbVertex
100
AcDb2dVertex
 10
5.538932800292969
 20
12.83333248562283
 30
0.0
  0
VERTEX
  5
A4
330
93
100
AcDbEntity
  8
Silkscreen
 62
   132
420
    47827
370
    35
100
AcDbVertex
100
AcDb2dVertex
 10
3.025481330023871
 20
12.83333248562283
 30
0.0
  0
SEQEND
  5
A5
330
93
100
AcDbEntity
  8
Silkscreen
 62
   132
420
    47827
370
    35
  0
POLYLINE
  5
A6
330
42
100
AcDbEntity
  8
Silkscreen
 62
   132
420
    47827
370
    35
100
AcDb2dPolyline
 66
     1
 10
0.0
 20
0.0
 30
0.0
  0
VERTEX
  5
A7
330
A6
100
AcDbEntity
  8
Silkscreen
 62
   132
420
    47827
370
    35
100
AcDbVertex
100
AcDb2dVertex
 10
5.695877075195325
 20
12.89722188313802
 30
0.0
  0
VERTEX
  5
A8
330
A6
100
AcDbEntity
  8
Silkscreen
 62
   132
420
    47827
370
    35
100
AcDbVertex
100
AcDb2dVertex
 10
10.78824361165364
 20
12.89722188313802
 30
0.0
  0
VERTEX
  5
A9
330
A6
100
AcDbEntity
  8
Silkscreen
 62
   132
420
    47827
370
    35
100
AcDbVertex
100
AcDb2dVertex
 10
10.78824361165364
 20
12.83333248562283
 30
0.0
  0
VERTEX
  5
AA
330
A6
100
AcDbEntity
  8
Silkscreen
 62
   132
420
    47827
370
    35
100
AcDbVertex
100
AcDb2dVertex
 10
5.695877075195325
 20
12.83333248562283
 30
0.0
  0
VERTEX
  5
AB
330
A6
100
AcDbEntity
  8
Silkscreen
 62
   132
420
    47827
370
    35
100
AcDbVertex
100
AcDb2dVertex
 10
5.695877075195325
 20
12.89722188313802
 30
0.0
  0
SEQEND
  5
AC
330
A6
100
AcDbEntity
  8
Silkscreen
 62
   132
420
    47827
370
    35
  0
POLYLINE
  5
AD
330
42
100
AcDbEntity
  8
Silkscreen
 62
   132
420
    47827
370
    35
100
AcDb2dPolyline
 66
     1
 10
0.0
 20
0.0
 30
0.0
  0
VERTEX
  5
AE
330
AD
100
AcDbEntity
  8
Silkscreen
 62
   132
420
    47827
370
    35
100
AcDbVertex
100
AcDb2dVertex
 10
5.695877075195325
 20
13.13333299424913
 30
0.0
  0
VERTEX
  5
AF
330
AD
100
AcDbEntity
  8
Silkscreen
 62
   132
420
    47827
370
    35
100
AcDbVertex
100
AcDb2dVertex
 10
5.695877075195325
 20
13.19722154405382
 30
0.0
  0
VERTEX
  5
B0
330
AD
100
AcDbEntity
  8
Silkscreen
 62
   132
420
    47827
370
    35
100
AcDbVertex
100
AcDb2dVertex
 10
10.78824361165364
 20
13.19722154405382
 30
0.0
  0
VERTEX
  5
B1
330
AD
100
AcDbEntity
  8
Silkscreen
 62
   132
420
    47827
370
    35
100
AcDbVertex
100
AcDb2dVertex
 10
10.78824361165364
 20
13.13333299424913
 30
0.0
  0
VERTEX
  5
B2
330
AD
100
AcDbEntity
  8
Silkscreen
 62
   132
420
    47827
370
    35
100
AcDbVertex
100
AcDb2dVertex
 10
5.695877075195325
 20
13.13333299424913
 30
0.0
  0
SEQEND
  5
B3
330
AD
100
AcDbEntity
  8
Silkscreen
 62
   132
420
    47827
370
    35
  0
POLYLINE
  5
B4
330
42
100
AcDbEntity
  8
Silkscreen
 62
   132
420
    47827
370
    35
100
AcDb2dPolyline
 66
     1
 10
0.0
 20
0.0
 30
0.0
  0
VERTEX
  5
B5
330
B4
100
AcDbEntity
  8
Silkscreen
 62
   132
420
    47827
370
    35
100
AcDbVertex
100
AcDb2dVertex
 10
5.695877075195325
 20
13.43333265516493
 30
0.0
  0
VERTEX
  5
B6
330
B4
100
AcDbEntity
  8
Silkscreen
 62
   132
420
    47827
370
    35
100
AcDbVertex
100
AcDb2dVertex
 10
5.695877075195325
 20
13.49583265516493
 30
0.0
  0
VERTEX
  5
B7
330
B4
100
AcDbEntity
  8
Silkscreen
 62
   132
420
    47827
370
    35
100
AcDbVertex
100
AcDb2dVertex
 10
10.78824361165364
 20
13.49583265516493
 30
0.0
  0
VERTEX
  5
B8
330
B4
100
AcDbEntity
  8
Silkscreen
 62
   132
420
    47827
370
    35
100
AcDbVertex
100
AcDb2dVertex
 10
10.78824361165364
 20
13.43333265516493
 30
0.0
  0
VERTEX
  5
B9
330
B4
100
AcDbEntity
  8
Silkscreen
 62
   132
420
    47827
370
    35
100
AcDbVertex
100
AcDb2dVertex
 10
5.695877075195325
 20
13.43333265516493
 30
0.0
  0
SEQEND
  5
BA
330
B4
100
AcDbEntity
  8
Silkscreen
 62
   132
420
    47827
370
    35
  0
POLYLINE
  5
BB
330
42
100
AcDbEntity
  8
Silkscreen
 62
   132
420
    47827
370
    35
100
AcDb2dPolyline
 66
     1
 10
0.0
 20
0.0
 30
0.0
  0
VERTEX
  5
BC
330
BB
100
AcDbEntity
  8
Silkscreen
 62
   132
420
    47827
370
    35
100
AcDbVertex
100
AcDb2dVertex
 10
2.368537055121528
 20
13.43333265516493
 30
0.0
  0
VERTEX
  5
BD
330
BB
100
AcDbEntity
  8
Silkscreen
 62
   132
420
    47827
370
    35
100
AcDbVertex
100
AcDb2dVertex
 10
2.368537055121528
 20
13.39444393581814
 30
0.0
  0
VERTEX
  5
BE
330
BB
100
AcDbEntity
  8
Silkscreen
 62
   132
420
    47827
370
    35
100
AcDbVertex
100
AcDb2dVertex
 10
2.250481499565972
 20
13.39444393581814
 30
0.0
  0
VERTEX
  5
BF
330
BB
100
AcDbEntity
  8
Silkscreen
 62
   132
420
    47827
370
    35
100
AcDbVertex
100
AcDb2dVertex
 10
2.250481499565972
 20
13.43333265516493
 30
0.0
  0
VERTEX
  5
C0
330
BB
100
AcDbEntity
  8
Silkscreen
 62
   132
420
    47827
370
    35
100
AcDbVertex
100
AcDb2dVertex
 10
2.211111280653212
 20
13.43333265516493
 30
0.0
  0
VERTEX
  5
C1
330
BB
100
AcDbEntity
  8
Silkscreen
 62
   132
420
    47827
370
    35
100
AcDbVertex
100
AcDb2dVertex
 10
2.211111280653212
 20
13.39166598849826
 30
0.0
  0
VERTEX
  5
C2
330
BB
100
AcDbEntity
  8
Silkscreen
 62
   132
420
    47827
370
    35
100
AcDbVertex
100
AcDb2dVertex
 10
2.148611280653212
 20
13.39166598849826
 30
0.0
  0
VERTEX
  5
C3
330
BB
100
AcDbEntity
  8
Silkscreen
 62
   132
420
    47827
370
    35
100
AcDbVertex
100
AcDb2dVertex
 10
2.148611280653212
 20
13.49444410536024
 30
0.0
  0
VERTEX
  5
C4
330
BB
100
AcDbEntity
  8
Silkscreen
 62
   132
420
    47827
370
    35
100
AcDbVertex
100
AcDb2dVertex
 10
2.476388719346788
 20
13.49444410536024
 30
0.0
  0
VERTEX
  5
C5
330
BB
100
AcDbEntity
  8
Silkscreen
 62
   132
420
    47827
370
    35
100
AcDbVertex
100
AcDb2dVertex
 10
2.476388719346788
 20
13.53611077202691
 30
0.0
  0
VERTEX
  5
C6
330
BB
100
AcDbEntity
  8
Silkscreen
 62
   132
420
    47827
370
    35
100
AcDbVertex
100
AcDb2dVertex
 10
2.538888719346788
 20
13.53611077202691
 30
0.0
  0
VERTEX
  5
C7
330
BB
100
AcDbEntity
  8
Silkscreen
 62
   132
420
    47827
370
    35
100
AcDbVertex
100
AcDb2dVertex
 10
2.538888719346788
 20
13.49583265516493
 30
0.0
  0
VERTEX
  5
C8
330
BB
100
AcDbEntity
  8
Silkscreen
 62
   132
420
    47827
370
    35
100
AcDbVertex
100
AcDb2dVertex
 10
2.578258938259561
 20
13.49583265516493
 30
0.0
  0
VERTEX
  5
C9
330
BB
100
AcDbEntity
  8
Silkscreen
 62
   132
420
    47827
370
    35
100
AcDbVertex
100
AcDb2dVertex
 10
2.578258938259561
 20
13.53472137451172
 30
0.0
  0
VERTEX
  5
CA
330
BB
100
AcDbEntity
  8
Silkscreen
 62
   132
420
    47827
370
    35
100
AcDbVertex
100
AcDb2dVertex
 10
2.696314493815116
 20
13.53472137451172
 30
0.0
  0
VERTEX
  5
CB
330
BB
100
AcDbEntity
  8
Silkscreen
 62
   132
420
    47827
370
    35
100
AcDbVertex
100
AcDb2dVertex
 10
2.696314493815116
 20
13.49583265516493
 30
0.0
  0
VERTEX
  5
CC
330
BB
100
AcDbEntity
  8
Silkscreen
 62
   132
420
    47827
370
    35
100
AcDbVertex
100
AcDb2dVertex
 10
5.538932800292969
 20
13.49583265516493
 30
0.0
  0
VERTEX
  5
CD
330
BB
100
AcDbEntity
  8
Silkscreen
 62
   132
420
    47827
370
    35
100
AcDbVertex
100
AcDb2dVertex
 10
5.538932800292969
 20
13.43333265516493
 30
0.0
  0
VERTEX
  5
CE
330
BB
100
AcDbEntity
  8
Silkscreen
 62
   132
420
    47827
370
    35
100
AcDbVertex
100
AcDb2dVertex
 10
2.368537055121528
 20
13.43333265516493
 30
0.0
  0
SEQEND
  5
CF
330
BB
100
AcDbEntity
  8
Silkscreen
 62
   132
420
    47827
370
    35
  0
POLYLINE
  5
D0
330
42
100
AcDbEntity
  8
Silkscreen
 62
   132
420
    47827
370
    35
100
AcDb2dPolyline
 66
     1
 10
0.0
 20
0.0
 30
0.0
  0
VERTEX
  5
D1
330
D0
100
AcDbEntity
  8
Silkscreen
 62
   132
420
    47827
370
    35
100
AcDbVertex
100
AcDb2dVertex
 10
2.795833163791233
 20
14.39444308810764
 30
0.0
  0
VERTEX
  5
D2
330
D0
100
AcDbEntity
  8
Silkscreen
 62
   132
420
    47827
370
    35
100
AcDbVertex
100
AcDb2dVertex
 10
2.795833163791233
 20
14.43402777777778
 30
0.0
  0
VERTEX
  5
D3
330
D0
100
AcDbEntity
  8
Silkscreen
 62
   132
420
    47827
370
    35
100
AcDbVertex
100
AcDb2dVertex
 10
2.913888719346788
 20
14.43402777777778
 30
0.0
  0
VERTEX
  5
D4
330
D0
100
AcDbEntity
  8
Silkscreen
 62
   132
420
    47827
370
    35
100
AcDbVertex
100
AcDb2dVertex
 10
2.913888719346788
 20
14.39444308810764
 30
0.0
  0
VERTEX
  5
D5
330
D0
100
AcDbEntity
  8
Silkscreen
 62
   132
420
    47827
370
    35
100
AcDbVertex
100
AcDb2dVertex
 10
5.538932800292969
 20
14.39444308810764
 30
0.0
  0
VERTEX
  5
D6
330
D0
100
AcDbEntity
  8
Silkscreen
 62
   132
420
    47827
370
    35
100
AcDbVertex
100
AcDb2dVertex
 10
5.538932800292969
 20
14.33194308810764
 30
0.0
  0
VERTEX
  5
D7
330
D0
100
AcDbEntity
  8
Silkscreen
 62
   132
420
    47827
370
    35
100
AcDbVertex
100
AcDb2dVertex
 10
2.9125001695421
 20
14.33194308810764
 30
0.0
  0
VERTEX
  5
D8
330
D0
100
AcDbEntity
  8
Silkscreen
 62
   132
420
    47827
370
    35
100
AcDbVertex
100
AcDb2dVertex
 10
2.9125001695421
 20
14.29166666666667
 30
0.0
  0
VERTEX
  5
D9
330
D0
100
AcDbEntity
  8
Silkscreen
 62
   132
420
    47827
370
    35
100
AcDbVertex
100
AcDb2dVertex
 10
2.766666836208767
 20
14.29166666666667
 30
0.0
  0
VERTEX
  5
DA
330
D0
100
AcDbEntity
  8
Silkscreen
 62
   132
420
    47827
370
    35
100
AcDbVertex
100
AcDb2dVertex
 10
2.766666836208767
 20
14.33055453830291
 30
0.0
  0
VERTEX
  5
DB
330
D0
100
AcDbEntity
  8
Silkscreen
 62
   132
420
    47827
370
    35
100
AcDbVertex
100
AcDb2dVertex
 10
2.674999660915811
 20
14.33055453830291
 30
0.0
  0
VERTEX
  5
DC
330
D0
100
AcDbEntity
  8
Silkscreen
 62
   132
420
    47827
370
    35
100
AcDbVertex
100
AcDb2dVertex
 10
2.674999660915811
 20
14.45277574327264
 30
0.0
  0
VERTEX
  5
DD
330
D0
100
AcDbEntity
  8
Silkscreen
 62
   132
420
    47827
370
    35
100
AcDbVertex
100
AcDb2dVertex
 10
2.736111111111111
 20
14.45277574327264
 30
0.0
  0
VERTEX
  5
DE
330
D0
100
AcDbEntity
  8
Silkscreen
 62
   132
420
    47827
370
    35
100
AcDbVertex
100
AcDb2dVertex
 10
2.736111111111111
 20
14.39444308810764
 30
0.0
  0
VERTEX
  5
DF
330
D0
100
AcDbEntity
  8
Silkscreen
 62
   132
420
    47827
370
    35
100
AcDbVertex
100
AcDb2dVertex
 10
2.795833163791233
 20
14.39444308810764
 30
0.0
  0
SEQEND
  5
E0
330
D0
100
AcDbEntity
  8
Silkscreen
 62
   132
420
    47827
370
    35
  0
POLYLINE
  5
E1
330
42
100
AcDbEntity
  8
Silkscreen
 62
   132
420
    47827
370
    35
100
AcDb2dPolyline
 66
     1
 10
0.0
 20
0.0
 30
0.0
  0
VERTEX
  5
E2
330
E1
100
AcDbEntity
  8
Silkscreen
 62
   132
420
    47827
370
    35
100
AcDbVertex
100
AcDb2dVertex
 10
2.766666836208767
 20
14.09583282470708
 30
0.0
  0
VERTEX
  5
E3
330
E1
100
AcDbEntity
  8
Silkscreen
 62
   132
420
    47827
370
    35
100
AcDbVertex
100
AcDb2dVertex
 10
2.766666836208767
 20
14.13472154405389
 30
0.0
  0
VERTEX
  5
E4
330
E1
100
AcDbEntity
  8
Silkscreen
 62
   132
420
    47827
370
    35
100
AcDbVertex
100
AcDb2dVertex
 10
2.9125001695421
 20
14.13472154405389
 30
0.0
  0
VERTEX
  5
E5
330
E1
100
AcDbEntity
  8
Silkscreen
 62
   132
420
    47827
370
    35
100
AcDbVertex
100
AcDb2dVertex
 10
2.9125001695421
 20
14.09583282470708
 30
0.0
  0
VERTEX
  5
E6
330
E1
100
AcDbEntity
  8
Silkscreen
 62
   132
420
    47827
370
    35
100
AcDbVertex
100
AcDb2dVertex
 10
5.538932800292969
 20
14.09583282470708
 30
0.0
  0
VERTEX
  5
E7
330
E1
100
AcDbEntity
  8
Silkscreen
 62
   132
420
    47827
370
    35
100
AcDbVertex
100
AcDb2dVertex
 10
5.538932800292969
 20
14.0319434271918
 30
0.0
  0
VERTEX
  5
E8
330
E1
100
AcDbEntity
  8
Silkscreen
 62
   132
420
    47827
370
    35
100
AcDbVertex
100
AcDb2dVertex
 10
2.696314493815116
 20
14.0319434271918
 30
0.0
  0
VERTEX
  5
E9
330
E1
100
AcDbEntity
  8
Silkscreen
 62
   132
420
    47827
370
    35
100
AcDbVertex
100
AcDb2dVertex
 10
2.696314493815116
 20
13.99305555555556
 30
0.0
  0
VERTEX
  5
EA
330
E1
100
AcDbEntity
  8
Silkscreen
 62
   132
420
    47827
370
    35
100
AcDbVertex
100
AcDb2dVertex
 10
2.578258938259561
 20
13.99305555555556
 30
0.0
  0
VERTEX
  5
EB
330
E1
100
AcDbEntity
  8
Silkscreen
 62
   132
420
    47827
370
    35
100
AcDbVertex
100
AcDb2dVertex
 10
2.578258938259561
 20
14.0319434271918
 30
0.0
  0
VERTEX
  5
EC
330
E1
100
AcDbEntity
  8
Silkscreen
 62
   132
420
    47827
370
    35
100
AcDbVertex
100
AcDb2dVertex
 10
2.538888719346788
 20
14.0319434271918
 30
0.0
  0
VERTEX
  5
ED
330
E1
100
AcDbEntity
  8
Silkscreen
 62
   132
420
    47827
370
    35
100
AcDbVertex
100
AcDb2dVertex
 10
2.538888719346788
 20
13.993054707845
 30
0.0
  0
VERTEX
  5
EE
330
E1
100
AcDbEntity
  8
Silkscreen
 62
   132
420
    47827
370
    35
100
AcDbVertex
100
AcDb2dVertex
 10
2.476388719346788
 20
13.993054707845
 30
0.0
  0
VERTEX
  5
EF
330
E1
100
AcDbEntity
  8
Silkscreen
 62
   132
420
    47827
370
    35
100
AcDbVertex
100
AcDb2dVertex
 10
2.476388719346788
 20
14.09583282470708
 30
0.0
  0
VERTEX
  5
F0
330
E1
100
AcDbEntity
  8
Silkscreen
 62
   132
420
    47827
370
    35
100
AcDbVertex
100
AcDb2dVertex
 10
2.766666836208767
 20
14.09583282470708
 30
0.0
  0
SEQEND
  5
F1
330
E1
100
AcDbEntity
  8
Silkscreen
 62
   132
420
    47827
370
    35
  0
POLYLINE
  5
F2
330
42
100
AcDbEntity
  8
Silkscreen
 62
   132
420
    47827
370
    35
100
AcDb2dPolyline
 66
     1
 10
0.0
 20
0.0
 30
0.0
  0
VERTEX
  5
F3
330
F2
100
AcDbEntity
  8
Silkscreen
 62
   132
420
    47827
370
    35
100
AcDbVertex
100
AcDb2dVertex
 10
5.695877075195325
 20
14.09583282470708
 30
0.0
  0
VERTEX
  5
F4
330
F2
100
AcDbEntity
  8
Silkscreen
 62
   132
420
    47827
370
    35
100
AcDbVertex
100
AcDb2dVertex
 10
10.78824361165364
 20
14.09583282470708
 30
0.0
  0
VERTEX
  5
F5
330
F2
100
AcDbEntity
  8
Silkscreen
 62
   132
420
    47827
370
    35
100
AcDbVertex
100
AcDb2dVertex
 10
10.78824361165364
 20
14.0319434271918
 30
0.0
  0
VERTEX
  5
F6
330
F2
100
AcDbEntity
  8
Silkscreen
 62
   132
420
    47827
370
    35
100
AcDbVertex
100
AcDb2dVertex
 10
5.695877075195325
 20
14.0319434271918
 30
0.0
  0
VERTEX
  5
F7
330
F2
100
AcDbEntity
  8
Silkscreen
 62
   132
420
    47827
370
    35
100
AcDbVertex
100
AcDb2dVertex
 10
5.695877075195325
 20
14.09583282470708
 30
0.0
  0
SEQEND
  5
F8
330
F2
100
AcDbEntity
  8
Silkscreen
 62
   132
420
    47827
370
    35
  0
POLYLINE
  5
F9
330
42
100
AcDbEntity
  8
Silkscreen
 62
   132
420
    47827
370
    35
100
AcDb2dPolyline
 66
     1
 10
0.0
 20
0.0
 30
0.0
  0
VERTEX
  5
FA
330
F9
100
AcDbEntity
  8
Silkscreen
 62
   132
420
    47827
370
    35
100
AcDbVertex
100
AcDb2dVertex
 10
2.538888719346788
 20
13.83611043294271
 30
0.0
  0
VERTEX
  5
FB
330
F9
100
AcDbEntity
  8
Silkscreen
 62
   132
420
    47827
370
    35
100
AcDbVertex
100
AcDb2dVertex
 10
2.538888719346788
 20
13.79583231608073
 30
0.0
  0
VERTEX
  5
FC
330
F9
100
AcDbEntity
  8
Silkscreen
 62
   132
420
    47827
370
    35
100
AcDbVertex
100
AcDb2dVertex
 10
2.578258938259561
 20
13.79583231608073
 30
0.0
  0
VERTEX
  5
FD
330
F9
100
AcDbEntity
  8
Silkscreen
 62
   132
420
    47827
370
    35
100
AcDbVertex
100
AcDb2dVertex
 10
2.578258938259561
 20
13.83472188313802
 30
0.0
  0
VERTEX
  5
FE
330
F9
100
AcDbEntity
  8
Silkscreen
 62
   132
420
    47827
370
    35
100
AcDbVertex
100
AcDb2dVertex
 10
2.696314493815116
 20
13.83472188313802
 30
0.0
  0
VERTEX
  5
FF
330
F9
100
AcDbEntity
  8
Silkscreen
 62
   132
420
    47827
370
    35
100
AcDbVertex
100
AcDb2dVertex
 10
2.696314493815116
 20
13.79583231608073
 30
0.0
  0
VERTEX
  5
100
330
F9
100
AcDbEntity
  8
Silkscreen
 62
   132
420
    47827
370
    35
100
AcDbVertex
100
AcDb2dVertex
 10
5.538932800292969
 20
13.79583231608073
 30
0.0
  0
VERTEX
  5
101
330
F9
100
AcDbEntity
  8
Silkscreen
 62
   132
420
    47827
370
    35
100
AcDbVertex
100
AcDb2dVertex
 10
5.538932800292969
 20
13.73194376627604
 30
0.0
  0
VERTEX
  5
102
330
F9
100
AcDbEntity
  8
Silkscreen
 62
   132
420
    47827
370
    35
100
AcDbVertex
100
AcDb2dVertex
 10
2.696314493815116
 20
13.73194376627604
 30
0.0
  0
VERTEX
  5
103
330
F9
100
AcDbEntity
  8
Silkscreen
 62
   132
420
    47827
370
    35
100
AcDbVertex
100
AcDb2dVertex
 10
2.696314493815116
 20
13.69305504692925
 30
0.0
  0
VERTEX
  5
104
330
F9
100
AcDbEntity
  8
Silkscreen
 62
   132
420
    47827
370
    35
100
AcDbVertex
100
AcDb2dVertex
 10
2.578258938259561
 20
13.69305504692925
 30
0.0
  0
VERTEX
  5
105
330
F9
100
AcDbEntity
  8
Silkscreen
 62
   132
420
    47827
370
    35
100
AcDbVertex
100
AcDb2dVertex
 10
2.578258938259561
 20
13.73194376627604
 30
0.0
  0
VERTEX
  5
106
330
F9
100
AcDbEntity
  8
Silkscreen
 62
   132
420
    47827
370
    35
100
AcDbVertex
100
AcDb2dVertex
 10
2.538888719346788
 20
13.73194376627604
 30
0.0
  0
VERTEX
  5
107
330
F9
100
AcDbEntity
  8
Silkscreen
 62
   132
420
    47827
370
    35
100
AcDbVertex
100
AcDb2dVertex
 10
2.538888719346788
 20
13.69305504692925
 30
0.0
  0
VERTEX
  5
108
330
F9
100
AcDbEntity
  8
Silkscreen
 62
   132
420
    47827
370
    35
100
AcDbVertex
100
AcDb2dVertex
 10
2.476388719346788
 20
13.69305504692925
 30
0.0
  0
VERTEX
  5
109
330
F9
100
AcDbEntity
  8
Silkscreen
 62
   132
420
    47827
370
    35
100
AcDbVertex
100
AcDb2dVertex
 10
2.476388719346788
 20
13.83611043294271
 30
0.0
  0
VERTEX
  5
10A
330
F9
100
AcDbEntity
  8
Silkscreen
 62
   132
420
    47827
370
    35
100
AcDbVertex
100
AcDb2dVertex
 10
2.538888719346788
 20
13.83611043294271
 30
0.0
  0
SEQEND
  5
10B
330
F9
100
AcDbEntity
  8
Silkscreen
 62
   132
420
    47827
370
    35
  0
POLYLINE
  5
10C
330
42
100
AcDbEntity
  8
Silkscreen
 62
   132
420
    47827
370
    35
100
AcDb2dPolyline
 66
     1
 10
0.0
 20
0.0
 30
0.0
  0
VERTEX
  5
10D
330
10C
100
AcDbEntity
  8
Silkscreen
 62
   132
420
    47827
370
    35
100
AcDbVertex
100
AcDb2dVertex
 10
5.695877075195325
 20
13.73194376627604
 30
0.0
  0
VERTEX
  5
10E
330
10C
100
AcDbEntity
  8
Silkscreen
 62
   132
420
    47827
370
    35
100
AcDbVertex
100
AcDb2dVertex
 10
5.695877075195325
 20
13.79583231608073
 30
0.0
  0
VERTEX
  5
10F
330
10C
100
AcDbEntity
  8
Silkscreen
 62
   132
420
    47827
370
    35
100
AcDbVertex
100
AcDb2dVertex
 10
10.78824361165364
 20
13.79583231608073
 30
0.0
  0
VERTEX
  5
110
330
10C
100
AcDbEntity
  8
Silkscreen
 62
   132
420
    47827
370
    35
100
AcDbVertex
100
AcDb2dVertex
 10
10.78824361165364
 20
13.73194376627604
 30
0.0
  0
VERTEX
  5
111
330
10C
100
AcDbEntity
  8
Silkscreen
 62
   132
420
    47827
370
    35
100
AcDbVertex
100
AcDb2dVertex
 10
5.695877075195325
 20
13.73194376627604
 30
0.0
  0
SEQEND
  5
112
330
10C
100
AcDbEntity
  8
Silkscreen
 62
   132
420
    47827
370
    35
  0
POLYLINE
  5
113
330
42
100
AcDbEntity
  8
Silkscreen
 62
   132
420
    47827
370
    35
100
AcDb2dPolyline
 66
     1
 10
0.0
 20
0.0
 30
0.0
  0
VERTEX
  5
114
330
113
100
AcDbEntity
  8
Silkscreen
 62
   132
420
    47827
370
    35
100
AcDbVertex
100
AcDb2dVertex
 10
13.94444444444444
 20
13.993054707845
 30
0.0
  0
VERTEX
  5
115
330
113
100
AcDbEntity
  8
Silkscreen
 62
   132
420
    47827
370
    35
100
AcDbVertex
100
AcDb2dVertex
 10
13.94444444444444
 20
14.0319434271918
 30
0.0
  0
VERTEX
  5
116
330
113
100
AcDbEntity
  8
Silkscreen
 62
   132
420
    47827
370
    35
100
AcDbVertex
100
AcDb2dVertex
 10
13.90507507324222
 20
14.0319434271918
 30
0.0
  0
VERTEX
  5
117
330
113
100
AcDbEntity
  8
Silkscreen
 62
   132
420
    47827
370
    35
100
AcDbVertex
100
AcDb2dVertex
 10
13.90507507324222
 20
13.993054707845
 30
0.0
  0
VERTEX
  5
118
330
113
100
AcDbEntity
  8
Silkscreen
 62
   132
420
    47827
370
    35
100
AcDbVertex
100
AcDb2dVertex
 10
13.78701951768663
 20
13.993054707845
 30
0.0
  0
VERTEX
  5
119
330
113
100
AcDbEntity
  8
Silkscreen
 62
   132
420
    47827
370
    35
100
AcDbVertex
100
AcDb2dVertex
 10
13.78701951768663
 20
14.0319434271918
 30
0.0
  0
VERTEX
  5
11A
330
113
100
AcDbEntity
  8
Silkscreen
 62
   132
420
    47827
370
    35
100
AcDbVertex
100
AcDb2dVertex
 10
10.94518788655599
 20
14.0319434271918
 30
0.0
  0
VERTEX
  5
11B
330
113
100
AcDbEntity
  8
Silkscreen
 62
   132
420
    47827
370
    35
100
AcDbVertex
100
AcDb2dVertex
 10
10.94518788655599
 20
14.09583282470708
 30
0.0
  0
VERTEX
  5
11C
330
113
100
AcDbEntity
  8
Silkscreen
 62
   132
420
    47827
370
    35
100
AcDbVertex
100
AcDb2dVertex
 10
13.57083299424913
 20
14.09583282470708
 30
0.0
  0
VERTEX
  5
11D
330
113
100
AcDbEntity
  8
Silkscreen
 62
   132
420
    47827
370
    35
100
AcDbVertex
100
AcDb2dVertex
 10
13.57083299424913
 20
14.13333299424917
 30
0.0
  0
VERTEX
  5
11E
330
113
100
AcDbEntity
  8
Silkscreen
 62
   132
420
    47827
370
    35
100
AcDbVertex
100
AcDb2dVertex
 10
13.71805572509766
 20
14.13333299424917
 30
0.0
  0
VERTEX
  5
11F
330
113
100
AcDbEntity
  8
Silkscreen
 62
   132
420
    47827
370
    35
100
AcDbVertex
100
AcDb2dVertex
 10
13.71805572509766
 20
14.09861161973736
 30
0.0
  0
VERTEX
  5
120
330
113
100
AcDbEntity
  8
Silkscreen
 62
   132
420
    47827
370
    35
100
AcDbVertex
100
AcDb2dVertex
 10
14.00833384195958
 20
14.09861161973736
 30
0.0
  0
VERTEX
  5
121
330
113
100
AcDbEntity
  8
Silkscreen
 62
   132
420
    47827
370
    35
100
AcDbVertex
100
AcDb2dVertex
 10
14.00833384195958
 20
13.993054707845
 30
0.0
  0
VERTEX
  5
122
330
113
100
AcDbEntity
  8
Silkscreen
 62
   132
420
    47827
370
    35
100
AcDbVertex
100
AcDb2dVertex
 10
13.94444444444444
 20
13.993054707845
 30
0.0
  0
SEQEND
  5
123
330
113
100
AcDbEntity
  8
Silkscreen
 62
   132
420
    47827
370
    35
  0
POLYLINE
  5
124
330
42
100
AcDbEntity
  8
Silkscreen
 62
   132
420
    47827
370
    35
100
AcDb2dPolyline
 66
     1
 10
0.0
 20
0.0
 30
0.0
  0
VERTEX
  5
125
330
124
100
AcDbEntity
  8
Silkscreen
 62
   132
420
    47827
370
    35
100
AcDbVertex
100
AcDb2dVertex
 10
10.78824361165364
 20
14.33194308810764
 30
0.0
  0
VERTEX
  5
126
330
124
100
AcDbEntity
  8
Silkscreen
 62
   132
420
    47827
370
    35
100
AcDbVertex
100
AcDb2dVertex
 10
5.695877075195325
 20
14.33194308810764
 30
0.0
  0
VERTEX
  5
127
330
124
100
AcDbEntity
  8
Silkscreen
 62
   132
420
    47827
370
    35
100
AcDbVertex
100
AcDb2dVertex
 10
5.695877075195325
 20
14.39444308810764
 30
0.0
  0
VERTEX
  5
128
330
124
100
AcDbEntity
  8
Silkscreen
 62
   132
420
    47827
370
    35
100
AcDbVertex
100
AcDb2dVertex
 10
10.78824361165364
 20
14.39444308810764
 30
0.0
  0
VERTEX
  5
129
330
124
100
AcDbEntity
  8
Silkscreen
 62
   132
420
    47827
370
    35
100
AcDbVertex
100
AcDb2dVertex
 10
10.78824361165364
 20
14.33194308810764
 30
0.0
  0
SEQEND
  5
12A
330
124
100
AcDbEntity
  8
Silkscreen
 62
   132
420
    47827
370
    35
  0
POLYLINE
  5
12B
330
42
100
AcDbEntity
  8
Silkscreen
 62
   132
420
    47827
370
    35
100
AcDb2dPolyline
 66
     1
 10
0.0
 20
0.0
 30
0.0
  0
VERTEX
  5
12C
330
12B
100
AcDbEntity
  8
Silkscreen
 62
   132
420
    47827
370
    35
100
AcDbVertex
100
AcDb2dVertex
 10
5.695877075195325
 20
14.90833197699653
 30
0.0
  0
VERTEX
  5
12D
330
12B
100
AcDbEntity
  8
Silkscreen
 62
   132
420
    47827
370
    35
100
AcDbVertex
100
AcDb2dVertex
 10
5.695877075195325
 20
15.02361043294278
 30
0.0
  0
VERTEX
  5
12E
330
12B
100
AcDbEntity
  8
Silkscreen
 62
   132
420
    47827
370
    35
100
AcDbVertex
100
AcDb2dVertex
 10
10.78824361165364
 20
15.02361043294278
 30
0.0
  0
VERTEX
  5
12F
330
12B
100
AcDbEntity
  8
Silkscreen
 62
   132
420
    47827
370
    35
100
AcDbVertex
100
AcDb2dVertex
 10
10.78824361165364
 20
14.90833197699653
 30
0.0
  0
VERTEX
  5
130
330
12B
100
AcDbEntity
  8
Silkscreen
 62
   132
420
    47827
370
    35
100
AcDbVertex
100
AcDb2dVertex
 10
5.695877075195325
 20
14.90833197699653
 30
0.0
  0
SEQEND
  5
131
330
12B
100
AcDbEntity
  8
Silkscreen
 62
   132
420
    47827
370
    35
  0
POLYLINE
  5
132
330
42
100
AcDbEntity
  8
Silkscreen
 62
   132
420
    47827
370
    35
100
AcDb2dPolyline
 66
     1
 10
0.0
 20
0.0
 30
0.0
  0
VERTEX
  5
133
330
132
100
AcDbEntity
  8
Silkscreen
 62
   132
420
    47827
370
    35
100
AcDbVertex
100
AcDb2dVertex
 10
5.695877075195325
 20
15.77222018771709
 30
0.0
  0
VERTEX
  5
134
330
132
100
AcDbEntity
  8
Silkscreen
 62
   132
420
    47827
370
    35
100
AcDbVertex
100
AcDb2dVertex
 10
5.695877075195325
 20
15.92916700575083
 30
0.0
  0
VERTEX
  5
135
330
132
100
AcDbEntity
  8
Silkscreen
 62
   132
420
    47827
370
    35
100
AcDbVertex
100
AcDb2dVertex
 10
10.78824361165364
 20
15.92916700575083
 30
0.0
  0
VERTEX
  5
136
330
132
100
AcDbEntity
  8
Silkscreen
 62
   132
420
    47827
370
    35
100
AcDbVertex
100
AcDb2dVertex
 10
10.78824361165364
 20
15.77222018771709
 30
0.0
  0
VERTEX
  5
137
330
132
100
AcDbEntity
  8
Silkscreen
 62
   132
420
    47827
370
    35
100
AcDbVertex
100
AcDb2dVertex
 10
5.695877075195325
 20
15.77222018771709
 30
0.0
  0
SEQEND
  5
138
330
132
100
AcDbEntity
  8
Silkscreen
 62
   132
420
    47827
370
    35
  0
POLYLINE
  5
139
330
42
100
AcDbEntity
  8
Silkscreen
 62
   132
420
    47827
370
    35
100
AcDb2dPolyline
 66
     1
 10
0.0
 20
0.0
 30
0.0
  0
VERTEX
  5
13A
330
139
100
AcDbEntity
  8
Silkscreen
 62
   132
420
    47827
370
    35
100
AcDbVertex
100
AcDb2dVertex
 10
5.695877075195325
 20
16.67916531032986
 30
0.0
  0
VERTEX
  5
13B
330
139
100
AcDbEntity
  8
Silkscreen
 62
   132
420
    47827
370
    35
100
AcDbVertex
100
AcDb2dVertex
 10
5.695877075195325
 20
16.84305487738723
 30
0.0
  0
VERTEX
  5
13C
330
139
100
AcDbEntity
  8
Silkscreen
 62
   132
420
    47827
370
    35
100
AcDbVertex
100
AcDb2dVertex
 10
10.78824361165364
 20
16.84305487738723
 30
0.0
  0
VERTEX
  5
13D
330
139
100
AcDbEntity
  8
Silkscreen
 62
   132
420
    47827
370
    35
100
AcDbVertex
100
AcDb2dVertex
 10
10.78824361165364
 20
16.67916531032986
 30
0.0
  0
VERTEX
  5
13E
330
139
100
AcDbEntity
  8
Silkscreen
 62
   132
420
    47827
370
    35
100
AcDbVertex
100
AcDb2dVertex
 10
5.695877075195325
 20
16.67916531032986
 30
0.0
  0
SEQEND
  5
13F
330
139
100
AcDbEntity
  8
Silkscreen
 62
   132
420
    47827
370
    35
  0
POLYLINE
  5
140
330
42
100
AcDbEntity
  8
Silkscreen
 62
   132
420
    47827
370
    35
100
AcDb2dPolyline
 66
     1
 10
0.0
 20
0.0
 30
0.0
  0
VERTEX
  5
141
330
140
100
AcDbEntity
  8
Silkscreen
 62
   132
420
    47827
370
    35
100
AcDbVertex
100
AcDb2dVertex
 10
10.78824361165364
 20
19.72916666666666
 30
0.0
  0
VERTEX
  5
142
330
140
100
AcDbEntity
  8
Silkscreen
 62
   132
420
    47827
370
    35
100
AcDbVertex
100
AcDb2dVertex
 10
10.78824361165364
 20
19.66666666666666
 30
0.0
  0
VERTEX
  5
143
330
140
100
AcDbEntity
  8
Silkscreen
 62
   132
420
    47827
370
    35
100
AcDbVertex
100
AcDb2dVertex
 10
5.695877075195325
 20
19.66666666666666
 30
0.0
  0
VERTEX
  5
144
330
140
100
AcDbEntity
  8
Silkscreen
 62
   132
420
    47827
370
    35
100
AcDbVertex
100
AcDb2dVertex
 10
5.695877075195325
 20
19.72916666666666
 30
0.0
  0
VERTEX
  5
145
330
140
100
AcDbEntity
  8
Silkscreen
 62
   132
420
    47827
370
    35
100
AcDbVertex
100
AcDb2dVertex
 10
10.78824361165364
 20
19.72916666666666
 30
0.0
  0
SEQEND
  5
146
330
140
100
AcDbEntity
  8
Silkscreen
 62
   132
420
    47827
370
    35
  0
POLYLINE
  5
147
330
42
100
AcDbEntity
  8
Silkscreen
 62
   132
420
    47827
370
    35
100
AcDb2dPolyline
 66
     1
 10
0.0
 20
0.0
 30
0.0
  0
VERTEX
  5
148
330
147
100
AcDbEntity
  8
Silkscreen
 62
   132
420
    47827
370
    35
100
AcDbVertex
100
AcDb2dVertex
 10
12.57777828640408
 20
19.72916666666666
 30
0.0
  0
VERTEX
  5
149
330
147
100
AcDbEntity
  8
Silkscreen
 62
   132
420
    47827
370
    35
100
AcDbVertex
100
AcDb2dVertex
 10
12.57777828640408
 20
19.7687513563368
 30
0.0
  0
VERTEX
  5
14A
330
147
100
AcDbEntity
  8
Silkscreen
 62
   132
420
    47827
370
    35
100
AcDbVertex
100
AcDb2dVertex
 10
12.69583384195963
 20
19.7687513563368
 30
0.0
  0
VERTEX
  5
14B
330
147
100
AcDbEntity
  8
Silkscreen
 62
   132
420
    47827
370
    35
100
AcDbVertex
100
AcDb2dVertex
 10
12.69583384195963
 20
19.72916666666666
 30
0.0
  0
VERTEX
  5
14C
330
147
100
AcDbEntity
  8
Silkscreen
 62
   132
420
    47827
370
    35
100
AcDbVertex
100
AcDb2dVertex
 10
12.79027896457248
 20
19.72916666666666
 30
0.0
  0
VERTEX
  5
14D
330
147
100
AcDbEntity
  8
Silkscreen
 62
   132
420
    47827
370
    35
100
AcDbVertex
100
AcDb2dVertex
 10
12.79027896457248
 20
19.79583231608069
 30
0.0
  0
VERTEX
  5
14E
330
147
100
AcDbEntity
  8
Silkscreen
 62
   132
420
    47827
370
    35
100
AcDbVertex
100
AcDb2dVertex
 10
12.85555521647135
 20
19.79583231608069
 30
0.0
  0
VERTEX
  5
14F
330
147
100
AcDbEntity
  8
Silkscreen
 62
   132
420
    47827
370
    35
100
AcDbVertex
100
AcDb2dVertex
 10
12.85555521647135
 20
19.66527642144097
 30
0.0
  0
VERTEX
  5
150
330
147
100
AcDbEntity
  8
Silkscreen
 62
   132
420
    47827
370
    35
100
AcDbVertex
100
AcDb2dVertex
 10
12.69444444444444
 20
19.66527642144097
 30
0.0
  0
VERTEX
  5
151
330
147
100
AcDbEntity
  8
Silkscreen
 62
   132
420
    47827
370
    35
100
AcDbVertex
100
AcDb2dVertex
 10
12.69444444444444
 20
19.62638685438376
 30
0.0
  0
VERTEX
  5
152
330
147
100
AcDbEntity
  8
Silkscreen
 62
   132
420
    47827
370
    35
100
AcDbVertex
100
AcDb2dVertex
 10
12.63194444444444
 20
19.62638685438376
 30
0.0
  0
VERTEX
  5
153
330
147
100
AcDbEntity
  8
Silkscreen
 62
   132
420
    47827
370
    35
100
AcDbVertex
100
AcDb2dVertex
 10
12.63194444444444
 20
19.66666666666666
 30
0.0
  0
VERTEX
  5
154
330
147
100
AcDbEntity
  8
Silkscreen
 62
   132
420
    47827
370
    35
100
AcDbVertex
100
AcDb2dVertex
 10
12.59257507324219
 20
19.66666666666666
 30
0.0
  0
VERTEX
  5
155
330
147
100
AcDbEntity
  8
Silkscreen
 62
   132
420
    47827
370
    35
100
AcDbVertex
100
AcDb2dVertex
 10
12.59257507324219
 20
19.62708197699653
 30
0.0
  0
VERTEX
  5
156
330
147
100
AcDbEntity
  8
Silkscreen
 62
   132
420
    47827
370
    35
100
AcDbVertex
100
AcDb2dVertex
 10
12.47451951768663
 20
19.62708197699653
 30
0.0
  0
VERTEX
  5
157
330
147
100
AcDbEntity
  8
Silkscreen
 62
   132
420
    47827
370
    35
100
AcDbVertex
100
AcDb2dVertex
 10
12.47451951768663
 20
19.66666666666666
 30
0.0
  0
VERTEX
  5
158
330
147
100
AcDbEntity
  8
Silkscreen
 62
   132
420
    47827
370
    35
100
AcDbVertex
100
AcDb2dVertex
 10
10.94518788655599
 20
19.66666666666666
 30
0.0
  0
VERTEX
  5
159
330
147
100
AcDbEntity
  8
Silkscreen
 62
   132
420
    47827
370
    35
100
AcDbVertex
100
AcDb2dVertex
 10
10.94518788655599
 20
19.72916666666666
 30
0.0
  0
VERTEX
  5
15A
330
147
100
AcDbEntity
  8
Silkscreen
 62
   132
420
    47827
370
    35
100
AcDbVertex
100
AcDb2dVertex
 10
12.57777828640408
 20
19.72916666666666
 30
0.0
  0
SEQEND
  5
15B
330
147
100
AcDbEntity
  8
Silkscreen
 62
   132
420
    47827
370
    35
  0
POLYLINE
  5
15C
330
42
100
AcDbEntity
  8
Silkscreen
 62
   132
420
    47827
370
    35
100
AcDb2dPolyline
 66
     1
 10
0.0
 20
0.0
 30
0.0
  0
VERTEX
  5
15D
330
15C
100
AcDbEntity
  8
Silkscreen
 62
   132
420
    47827
370
    35
100
AcDbVertex
100
AcDb2dVertex
 10
10.78824361165364
 20
19.42916531032986
 30
0.0
  0
VERTEX
  5
15E
330
15C
100
AcDbEntity
  8
Silkscreen
 62
   132
420
    47827
370
    35
100
AcDbVertex
100
AcDb2dVertex
 10
10.78824361165364
 20
19.36805555555555
 30
0.0
  0
VERTEX
  5
15F
330
15C
100
AcDbEntity
  8
Silkscreen
 62
   132
420
    47827
370
    35
100
AcDbVertex
100
AcDb2dVertex
 10
5.695877075195325
 20
19.36805555555555
 30
0.0
  0
VERTEX
  5
160
330
15C
100
AcDbEntity
  8
Silkscreen
 62
   132
420
    47827
370
    35
100
AcDbVertex
100
AcDb2dVertex
 10
5.695877075195325
 20
19.42916531032986
 30
0.0
  0
VERTEX
  5
161
330
15C
100
AcDbEntity
  8
Silkscreen
 62
   132
420
    47827
370
    35
100
AcDbVertex
100
AcDb2dVertex
 10
10.78824361165364
 20
19.42916531032986
 30
0.0
  0
SEQEND
  5
162
330
15C
100
AcDbEntity
  8
Silkscreen
 62
   132
420
    47827
370
    35
  0
POLYLINE
  5
163
330
42
100
AcDbEntity
  8
Silkscreen
 62
   132
420
    47827
370
    35
100
AcDb2dPolyline
 66
     1
 10
0.0
 20
0.0
 30
0.0
  0
VERTEX
  5
164
330
163
100
AcDbEntity
  8
Silkscreen
 62
   132
420
    47827
370
    35
100
AcDbVertex
100
AcDb2dVertex
 10
10.78824361165364
 20
18.61805555555555
 30
0.0
  0
VERTEX
  5
165
330
163
100
AcDbEntity
  8
Silkscreen
 62
   132
420
    47827
370
    35
100
AcDbVertex
100
AcDb2dVertex
 10
10.78824361165364
 20
18.46111043294278
 30
0.0
  0
VERTEX
  5
166
330
163
100
AcDbEntity
  8
Silkscreen
 62
   132
420
    47827
370
    35
100
AcDbVertex
100
AcDb2dVertex
 10
5.695877075195325
 20
18.46111043294278
 30
0.0
  0
VERTEX
  5
167
330
163
100
AcDbEntity
  8
Silkscreen
 62
   132
420
    47827
370
    35
100
AcDbVertex
100
AcDb2dVertex
 10
5.695877075195325
 20
18.61805555555555
 30
0.0
  0
VERTEX
  5
168
330
163
100
AcDbEntity
  8
Silkscreen
 62
   132
420
    47827
370
    35
100
AcDbVertex
100
AcDb2dVertex
 10
10.78824361165364
 20
18.61805555555555
 30
0.0
  0
SEQEND
  5
169
330
163
100
AcDbEntity
  8
Silkscreen
 62
   132
420
    47827
370
    35
  0
POLYLINE
  5
16A
330
42
100
AcDbEntity
  8
Silkscreen
 62
   132
420
    47827
370
    35
100
AcDb2dPolyline
 66
     1
 10
0.0
 20
0.0
 30
0.0
  0
VERTEX
  5
16B
330
16A
100
AcDbEntity
  8
Silkscreen
 62
   132
420
    47827
370
    35
100
AcDbVertex
100
AcDb2dVertex
 10
13.17638821072049
 20
18.61805555555555
 30
0.0
  0
VERTEX
  5
16C
330
16A
100
AcDbEntity
  8
Silkscreen
 62
   132
420
    47827
370
    35
100
AcDbVertex
100
AcDb2dVertex
 10
13.18194410536024
 20
18.60694376627612
 30
0.0
  0
VERTEX
  5
16D
330
16A
100
AcDbEntity
  8
Silkscreen
 62
   132
420
    47827
370
    35
100
AcDbVertex
100
AcDb2dVertex
 10
13.20138888888889
 20
18.58750067816848
 30
0.0
  0
VERTEX
  5
16E
330
16A
100
AcDbEntity
  8
Silkscreen
 62
   132
420
    47827
370
    35
100
AcDbVertex
100
AcDb2dVertex
 10
13.22638871934679
 20
18.57500033908416
 30
0.0
  0
VERTEX
  5
16F
330
16A
100
AcDbEntity
  8
Silkscreen
 62
   132
420
    47827
370
    35
100
AcDbVertex
100
AcDb2dVertex
 10
13.25416649712457
 20
18.57083468967014
 30
0.0
  0
VERTEX
  5
170
330
16A
100
AcDbEntity
  8
Silkscreen
 62
   132
420
    47827
370
    35
100
AcDbVertex
100
AcDb2dVertex
 10
13.50833299424913
 20
18.57083468967014
 30
0.0
  0
VERTEX
  5
171
330
16A
100
AcDbEntity
  8
Silkscreen
 62
   132
420
    47827
370
    35
100
AcDbVertex
100
AcDb2dVertex
 10
13.53611077202691
 20
18.57500033908416
 30
0.0
  0
VERTEX
  5
172
330
16A
100
AcDbEntity
  8
Silkscreen
 62
   132
420
    47827
370
    35
100
AcDbVertex
100
AcDb2dVertex
 10
13.56111060248481
 20
18.58750067816848
 30
0.0
  0
VERTEX
  5
173
330
16A
100
AcDbEntity
  8
Silkscreen
 62
   132
420
    47827
370
    35
100
AcDbVertex
100
AcDb2dVertex
 10
13.58055538601345
 20
18.60694376627612
 30
0.0
  0
VERTEX
  5
174
330
16A
100
AcDbEntity
  8
Silkscreen
 62
   132
420
    47827
370
    35
100
AcDbVertex
100
AcDb2dVertex
 10
13.58611128065321
 20
18.61805555555555
 30
0.0
  0
VERTEX
  5
175
330
16A
100
AcDbEntity
  8
Silkscreen
 62
   132
420
    47827
370
    35
100
AcDbVertex
100
AcDb2dVertex
 10
13.59861161973741
 20
18.61805555555555
 30
0.0
  0
VERTEX
  5
176
330
16A
100
AcDbEntity
  8
Silkscreen
 62
   132
420
    47827
370
    35
100
AcDbVertex
100
AcDb2dVertex
 10
13.62361145019531
 20
18.6222229003907
 30
0.0
  0
VERTEX
  5
177
330
16A
100
AcDbEntity
  8
Silkscreen
 62
   132
420
    47827
370
    35
100
AcDbVertex
100
AcDb2dVertex
 10
13.64583333333333
 20
18.63333299424917
 30
0.0
  0
VERTEX
  5
178
330
16A
100
AcDbEntity
  8
Silkscreen
 62
   132
420
    47827
370
    35
100
AcDbVertex
100
AcDb2dVertex
 10
13.66388871934679
 20
18.65138753255208
 30
0.0
  0
VERTEX
  5
179
330
16A
100
AcDbEntity
  8
Silkscreen
 62
   132
420
    47827
370
    35
100
AcDbVertex
100
AcDb2dVertex
 10
13.6749996609158
 20
18.67361111111111
 30
0.0
  0
VERTEX
  5
17A
330
16A
100
AcDbEntity
  8
Silkscreen
 62
   132
420
    47827
370
    35
100
AcDbVertex
100
AcDb2dVertex
 10
13.67916615804036
 20
18.69722154405389
 30
0.0
  0
VERTEX
  5
17B
330
16A
100
AcDbEntity
  8
Silkscreen
 62
   132
420
    47827
370
    35
100
AcDbVertex
100
AcDb2dVertex
 10
13.67916615804036
 20
18.91527642144097
 30
0.0
  0
VERTEX
  5
17C
330
16A
100
AcDbEntity
  8
Silkscreen
 62
   132
420
    47827
370
    35
100
AcDbVertex
100
AcDb2dVertex
 10
13.73888905843099
 20
18.91527642144097
 30
0.0
  0
VERTEX
  5
17D
330
16A
100
AcDbEntity
  8
Silkscreen
 62
   132
420
    47827
370
    35
100
AcDbVertex
100
AcDb2dVertex
 10
13.73888905843099
 20
18.16527642144097
 30
0.0
  0
VERTEX
  5
17E
330
16A
100
AcDbEntity
  8
Silkscreen
 62
   132
420
    47827
370
    35
100
AcDbVertex
100
AcDb2dVertex
 10
13.67916615804036
 20
18.16527642144097
 30
0.0
  0
VERTEX
  5
17F
330
16A
100
AcDbEntity
  8
Silkscreen
 62
   132
420
    47827
370
    35
100
AcDbVertex
100
AcDb2dVertex
 10
13.67916615804036
 20
18.38055419921875
 30
0.0
  0
VERTEX
  5
180
330
16A
100
AcDbEntity
  8
Silkscreen
 62
   132
420
    47827
370
    35
100
AcDbVertex
100
AcDb2dVertex
 10
13.67222256130642
 20
18.40555487738723
 30
0.0
  0
VERTEX
  5
181
330
16A
100
AcDbEntity
  8
Silkscreen
 62
   132
420
    47827
370
    35
100
AcDbVertex
100
AcDb2dVertex
 10
13.66111161973741
 20
18.42777845594626
 30
0.0
  0
VERTEX
  5
182
330
16A
100
AcDbEntity
  8
Silkscreen
 62
   132
420
    47827
370
    35
100
AcDbVertex
100
AcDb2dVertex
 10
13.64305623372396
 20
18.44583299424917
 30
0.0
  0
VERTEX
  5
183
330
16A
100
AcDbEntity
  8
Silkscreen
 62
   132
420
    47827
370
    35
100
AcDbVertex
100
AcDb2dVertex
 10
13.62083435058594
 20
18.45694308810764
 30
0.0
  0
VERTEX
  5
184
330
16A
100
AcDbEntity
  8
Silkscreen
 62
   132
420
    47827
370
    35
100
AcDbVertex
100
AcDb2dVertex
 10
13.59583452012804
 20
18.46111043294278
 30
0.0
  0
VERTEX
  5
185
330
16A
100
AcDbEntity
  8
Silkscreen
 62
   132
420
    47827
370
    35
100
AcDbVertex
100
AcDb2dVertex
 10
13.58333418104384
 20
18.46111043294278
 30
0.0
  0
VERTEX
  5
186
330
16A
100
AcDbEntity
  8
Silkscreen
 62
   132
420
    47827
370
    35
100
AcDbVertex
100
AcDb2dVertex
 10
13.57777828640408
 20
18.47222222222222
 30
0.0
  0
VERTEX
  5
187
330
16A
100
AcDbEntity
  8
Silkscreen
 62
   132
420
    47827
370
    35
100
AcDbVertex
100
AcDb2dVertex
 10
13.55833350287543
 20
18.49166531032986
 30
0.0
  0
VERTEX
  5
188
330
16A
100
AcDbEntity
  8
Silkscreen
 62
   132
420
    47827
370
    35
100
AcDbVertex
100
AcDb2dVertex
 10
13.53333367241753
 20
18.50416564941402
 30
0.0
  0
VERTEX
  5
189
330
16A
100
AcDbEntity
  8
Silkscreen
 62
   132
420
    47827
370
    35
100
AcDbVertex
100
AcDb2dVertex
 10
13.50555589463976
 20
18.5083312988282
 30
0.0
  0
VERTEX
  5
18A
330
16A
100
AcDbEntity
  8
Silkscreen
 62
   132
420
    47827
370
    35
100
AcDbVertex
100
AcDb2dVertex
 10
13.25138939751519
 20
18.5083312988282
 30
0.0
  0
VERTEX
  5
18B
330
16A
100
AcDbEntity
  8
Silkscreen
 62
   132
420
    47827
370
    35
100
AcDbVertex
100
AcDb2dVertex
 10
13.22361161973741
 20
18.50416564941402
 30
0.0
  0
VERTEX
  5
18C
330
16A
100
AcDbEntity
  8
Silkscreen
 62
   132
420
    47827
370
    35
100
AcDbVertex
100
AcDb2dVertex
 10
13.19861178927951
 20
18.49166531032986
 30
0.0
  0
VERTEX
  5
18D
330
16A
100
AcDbEntity
  8
Silkscreen
 62
   132
420
    47827
370
    35
100
AcDbVertex
100
AcDb2dVertex
 10
13.17916700575087
 20
18.47222222222222
 30
0.0
  0
VERTEX
  5
18E
330
16A
100
AcDbEntity
  8
Silkscreen
 62
   132
420
    47827
370
    35
100
AcDbVertex
100
AcDb2dVertex
 10
13.17361111111111
 20
18.46111043294278
 30
0.0
  0
VERTEX
  5
18F
330
16A
100
AcDbEntity
  8
Silkscreen
 62
   132
420
    47827
370
    35
100
AcDbVertex
100
AcDb2dVertex
 10
10.94518788655599
 20
18.46111043294278
 30
0.0
  0
VERTEX
  5
190
330
16A
100
AcDbEntity
  8
Silkscreen
 62
   132
420
    47827
370
    35
100
AcDbVertex
100
AcDb2dVertex
 10
10.94518788655599
 20
18.61805555555555
 30
0.0
  0
VERTEX
  5
191
330
16A
100
AcDbEntity
  8
Silkscreen
 62
   132
420
    47827
370
    35
100
AcDbVertex
100
AcDb2dVertex
 10
13.17638821072049
 20
18.61805555555555
 30
0.0
  0
SEQEND
  5
192
330
16A
100
AcDbEntity
  8
Silkscreen
 62
   132
420
    47827
370
    35
  0
POLYLINE
  5
193
330
42
100
AcDbEntity
  8
Silkscreen
 62
   132
420
    47827
370
    35
100
AcDb2dPolyline
 66
     1
 10
0.0
 20
0.0
 30
0.0
  0
VERTEX
  5
194
330
193
100
AcDbEntity
  8
Silkscreen
 62
   132
420
    47827
370
    35
100
AcDbVertex
100
AcDb2dVertex
 10
10.78824361165364
 20
17.70972357855903
 30
0.0
  0
VERTEX
  5
195
330
193
100
AcDbEntity
  8
Silkscreen
 62
   132
420
    47827
370
    35
100
AcDbVertex
100
AcDb2dVertex
 10
10.78824361165364
 20
17.59305487738723
 30
0.0
  0
VERTEX
  5
196
330
193
100
AcDbEntity
  8
Silkscreen
 62
   132
420
    47827
370
    35
100
AcDbVertex
100
AcDb2dVertex
 10
5.695877075195325
 20
17.59305487738723
 30
0.0
  0
VERTEX
  5
197
330
193
100
AcDbEntity
  8
Silkscreen
 62
   132
420
    47827
370
    35
100
AcDbVertex
100
AcDb2dVertex
 10
5.695877075195325
 20
17.70972357855903
 30
0.0
  0
VERTEX
  5
198
330
193
100
AcDbEntity
  8
Silkscreen
 62
   132
420
    47827
370
    35
100
AcDbVertex
100
AcDb2dVertex
 10
10.78824361165364
 20
17.70972357855903
 30
0.0
  0
SEQEND
  5
199
330
193
100
AcDbEntity
  8
Silkscreen
 62
   132
420
    47827
370
    35
  0
POLYLINE
  5
19A
330
42
100
AcDbEntity
  8
Silkscreen
 62
   132
420
    47827
370
    35
100
AcDb2dPolyline
 66
     1
 10
0.0
 20
0.0
 30
0.0
  0
VERTEX
  5
19B
330
19A
100
AcDbEntity
  8
Silkscreen
 62
   132
420
    47827
370
    35
100
AcDbVertex
100
AcDb2dVertex
 10
14.04861195882166
 20
17.29583401150181
 30
0.0
  0
VERTEX
  5
19C
330
19A
100
AcDbEntity
  8
Silkscreen
 62
   132
420
    47827
370
    35
100
AcDbVertex
100
AcDb2dVertex
 10
14.04861195882166
 20
17.51249864366319
 30
0.0
  0
VERTEX
  5
19D
330
19A
100
AcDbEntity
  8
Silkscreen
 62
   132
420
    47827
370
    35
100
AcDbVertex
100
AcDb2dVertex
 10
14.04166666666667
 20
17.53749932183167
 30
0.0
  0
VERTEX
  5
19E
330
19A
100
AcDbEntity
  8
Silkscreen
 62
   132
420
    47827
370
    35
100
AcDbVertex
100
AcDb2dVertex
 10
14.03055572509764
 20
17.5597229003907
 30
0.0
  0
VERTEX
  5
19F
330
19A
100
AcDbEntity
  8
Silkscreen
 62
   132
420
    47827
370
    35
100
AcDbVertex
100
AcDb2dVertex
 10
14.01250033908416
 20
17.57777743869361
 30
0.0
  0
VERTEX
  5
1A0
330
19A
100
AcDbEntity
  8
Silkscreen
 62
   132
420
    47827
370
    35
100
AcDbVertex
100
AcDb2dVertex
 10
13.99027845594625
 20
17.58888753255208
 30
0.0
  0
VERTEX
  5
1A1
330
19A
100
AcDbEntity
  8
Silkscreen
 62
   132
420
    47827
370
    35
100
AcDbVertex
100
AcDb2dVertex
 10
13.96666717529292
 20
17.59305487738723
 30
0.0
  0
VERTEX
  5
1A2
330
19A
100
AcDbEntity
  8
Silkscreen
 62
   132
420
    47827
370
    35
100
AcDbVertex
100
AcDb2dVertex
 10
13.95416683620875
 20
17.59305487738723
 30
0.0
  0
VERTEX
  5
1A3
330
19A
100
AcDbEntity
  8
Silkscreen
 62
   132
420
    47827
370
    35
100
AcDbVertex
100
AcDb2dVertex
 10
13.94861094156902
 20
17.60416666666666
 30
0.0
  0
VERTEX
  5
1A4
330
19A
100
AcDbEntity
  8
Silkscreen
 62
   132
420
    47827
370
    35
100
AcDbVertex
100
AcDb2dVertex
 10
13.92916615804041
 20
17.6236097547743
 30
0.0
  0
VERTEX
  5
1A5
330
19A
100
AcDbEntity
  8
Silkscreen
 62
   132
420
    47827
370
    35
100
AcDbVertex
100
AcDb2dVertex
 10
13.9041663275825
 20
17.63611009385847
 30
0.0
  0
VERTEX
  5
1A6
330
19A
100
AcDbEntity
  8
Silkscreen
 62
   132
420
    47827
370
    35
100
AcDbVertex
100
AcDb2dVertex
 10
13.87638854980469
 20
17.64027574327265
 30
0.0
  0
VERTEX
  5
1A7
330
19A
100
AcDbEntity
  8
Silkscreen
 62
   132
420
    47827
370
    35
100
AcDbVertex
100
AcDb2dVertex
 10
13.62222205268012
 20
17.64027574327265
 30
0.0
  0
VERTEX
  5
1A8
330
19A
100
AcDbEntity
  8
Silkscreen
 62
   132
420
    47827
370
    35
100
AcDbVertex
100
AcDb2dVertex
 10
13.59444427490234
 20
17.63611009385847
 30
0.0
  0
VERTEX
  5
1A9
330
19A
100
AcDbEntity
  8
Silkscreen
 62
   132
420
    47827
370
    35
100
AcDbVertex
100
AcDb2dVertex
 10
13.56944444444444
 20
17.6236097547743
 30
0.0
  0
VERTEX
  5
1AA
330
19A
100
AcDbEntity
  8
Silkscreen
 62
   132
420
    47827
370
    35
100
AcDbVertex
100
AcDb2dVertex
 10
13.5499996609158
 20
17.60416666666666
 30
0.0
  0
VERTEX
  5
1AB
330
19A
100
AcDbEntity
  8
Silkscreen
 62
   132
420
    47827
370
    35
100
AcDbVertex
100
AcDb2dVertex
 10
13.54444376627604
 20
17.59305487738723
 30
0.0
  0
VERTEX
  5
1AC
330
19A
100
AcDbEntity
  8
Silkscreen
 62
   132
420
    47827
370
    35
100
AcDbVertex
100
AcDb2dVertex
 10
10.94518788655599
 20
17.59305487738723
 30
0.0
  0
VERTEX
  5
1AD
330
19A
100
AcDbEntity
  8
Silkscreen
 62
   132
420
    47827
370
    35
100
AcDbVertex
100
AcDb2dVertex
 10
10.94518788655599
 20
17.70972357855903
 30
0.0
  0
VERTEX
  5
1AE
330
19A
100
AcDbEntity
  8
Silkscreen
 62
   132
420
    47827
370
    35
100
AcDbVertex
100
AcDb2dVertex
 10
13.17638821072049
 20
17.70972357855903
 30
0.0
  0
VERTEX
  5
1AF
330
19A
100
AcDbEntity
  8
Silkscreen
 62
   132
420
    47827
370
    35
100
AcDbVertex
100
AcDb2dVertex
 10
13.18194410536024
 20
17.69861178927959
 30
0.0
  0
VERTEX
  5
1B0
330
19A
100
AcDbEntity
  8
Silkscreen
 62
   132
420
    47827
370
    35
100
AcDbVertex
100
AcDb2dVertex
 10
13.20138888888889
 20
17.67916700575083
 30
0.0
  0
VERTEX
  5
1B1
330
19A
100
AcDbEntity
  8
Silkscreen
 62
   132
420
    47827
370
    35
100
AcDbVertex
100
AcDb2dVertex
 10
13.22638871934679
 20
17.66666666666666
 30
0.0
  0
VERTEX
  5
1B2
330
19A
100
AcDbEntity
  8
Silkscreen
 62
   132
420
    47827
370
    35
100
AcDbVertex
100
AcDb2dVertex
 10
13.25416649712457
 20
17.66250101725264
 30
0.0
  0
VERTEX
  5
1B3
330
19A
100
AcDbEntity
  8
Silkscreen
 62
   132
420
    47827
370
    35
100
AcDbVertex
100
AcDb2dVertex
 10
13.50833299424913
 20
17.66250101725264
 30
0.0
  0
VERTEX
  5
1B4
330
19A
100
AcDbEntity
  8
Silkscreen
 62
   132
420
    47827
370
    35
100
AcDbVertex
100
AcDb2dVertex
 10
13.53611077202691
 20
17.66666666666666
 30
0.0
  0
VERTEX
  5
1B5
330
19A
100
AcDbEntity
  8
Silkscreen
 62
   132
420
    47827
370
    35
100
AcDbVertex
100
AcDb2dVertex
 10
13.56111060248481
 20
17.67916700575083
 30
0.0
  0
VERTEX
  5
1B6
330
19A
100
AcDbEntity
  8
Silkscreen
 62
   132
420
    47827
370
    35
100
AcDbVertex
100
AcDb2dVertex
 10
13.58055538601345
 20
17.69861178927959
 30
0.0
  0
VERTEX
  5
1B7
330
19A
100
AcDbEntity
  8
Silkscreen
 62
   132
420
    47827
370
    35
100
AcDbVertex
100
AcDb2dVertex
 10
13.58611128065321
 20
17.70972357855903
 30
0.0
  0
VERTEX
  5
1B8
330
19A
100
AcDbEntity
  8
Silkscreen
 62
   132
420
    47827
370
    35
100
AcDbVertex
100
AcDb2dVertex
 10
13.59861161973741
 20
17.70972357855903
 30
0.0
  0
VERTEX
  5
1B9
330
19A
100
AcDbEntity
  8
Silkscreen
 62
   132
420
    47827
370
    35
100
AcDbVertex
100
AcDb2dVertex
 10
13.62361145019531
 20
17.71388922797305
 30
0.0
  0
VERTEX
  5
1BA
330
19A
100
AcDbEntity
  8
Silkscreen
 62
   132
420
    47827
370
    35
100
AcDbVertex
100
AcDb2dVertex
 10
13.64583333333333
 20
17.72499932183167
 30
0.0
  0
VERTEX
  5
1BB
330
19A
100
AcDbEntity
  8
Silkscreen
 62
   132
420
    47827
370
    35
100
AcDbVertex
100
AcDb2dVertex
 10
13.66388871934679
 20
17.74305555555555
 30
0.0
  0
VERTEX
  5
1BC
330
19A
100
AcDbEntity
  8
Silkscreen
 62
   132
420
    47827
370
    35
100
AcDbVertex
100
AcDb2dVertex
 10
13.6749996609158
 20
17.76527743869361
 30
0.0
  0
VERTEX
  5
1BD
330
19A
100
AcDbEntity
  8
Silkscreen
 62
   132
420
    47827
370
    35
100
AcDbVertex
100
AcDb2dVertex
 10
13.67916615804036
 20
17.79027642144097
 30
0.0
  0
VERTEX
  5
1BE
330
19A
100
AcDbEntity
  8
Silkscreen
 62
   132
420
    47827
370
    35
100
AcDbVertex
100
AcDb2dVertex
 10
13.67916615804036
 20
18.00833299424917
 30
0.0
  0
VERTEX
  5
1BF
330
19A
100
AcDbEntity
  8
Silkscreen
 62
   132
420
    47827
370
    35
100
AcDbVertex
100
AcDb2dVertex
 10
13.73888905843099
 20
18.00833299424917
 30
0.0
  0
VERTEX
  5
1C0
330
19A
100
AcDbEntity
  8
Silkscreen
 62
   132
420
    47827
370
    35
100
AcDbVertex
100
AcDb2dVertex
 10
13.73888905843099
 20
17.71111043294278
 30
0.0
  0
VERTEX
  5
1C1
330
19A
100
AcDbEntity
  8
Silkscreen
 62
   132
420
    47827
370
    35
100
AcDbVertex
100
AcDb2dVertex
 10
14.10972256130638
 20
17.71111043294278
 30
0.0
  0
VERTEX
  5
1C2
330
19A
100
AcDbEntity
  8
Silkscreen
 62
   132
420
    47827
370
    35
100
AcDbVertex
100
AcDb2dVertex
 10
14.10972256130638
 20
17.29583401150181
 30
0.0
  0
VERTEX
  5
1C3
330
19A
100
AcDbEntity
  8
Silkscreen
 62
   132
420
    47827
370
    35
100
AcDbVertex
100
AcDb2dVertex
 10
14.04861195882166
 20
17.29583401150181
 30
0.0
  0
SEQEND
  5
1C4
330
19A
100
AcDbEntity
  8
Silkscreen
 62
   132
420
    47827
370
    35
  0
POLYLINE
  5
1C5
330
42
100
AcDbEntity
  8
Silkscreen
 62
   132
420
    47827
370
    35
100
AcDb2dPolyline
 66
     1
 10
0.0
 20
0.0
 30
0.0
  0
VERTEX
  5
1C6
330
1C5
100
AcDbEntity
  8
Silkscreen
 62
   132
420
    47827
370
    35
100
AcDbVertex
100
AcDb2dVertex
 10
13.07604217529297
 20
19.48578219943584
 30
0.0
  0
VERTEX
  5
1C7
330
1C5
100
AcDbEntity
  8
Silkscreen
 62
   132
420
    47827
370
    35
100
AcDbVertex
100
AcDb2dVertex
 10
13.73900434705946
 20
19.48578219943584
 30
0.0
  0
VERTEX
  5
1C8
330
1C5
100
AcDbEntity
  8
Silkscreen
 62
   132
420
    47827
370
    35
100
AcDbVertex
100
AcDb2dVertex
 10
13.73900434705946
 20
19.41527642144097
 30
0.0
  0
VERTEX
  5
1C9
330
1C5
100
AcDbEntity
  8
Silkscreen
 62
   132
420
    47827
370
    35
100
AcDbVertex
100
AcDb2dVertex
 10
13.73888905843099
 20
19.41527642144097
 30
0.0
  0
VERTEX
  5
1CA
330
1C5
100
AcDbEntity
  8
Silkscreen
 62
   132
420
    47827
370
    35
100
AcDbVertex
100
AcDb2dVertex
 10
13.73888905843099
 20
19.07222154405389
 30
0.0
  0
VERTEX
  5
1CB
330
1C5
100
AcDbEntity
  8
Silkscreen
 62
   132
420
    47827
370
    35
100
AcDbVertex
100
AcDb2dVertex
 10
13.67916615804036
 20
19.07222154405389
 30
0.0
  0
VERTEX
  5
1CC
330
1C5
100
AcDbEntity
  8
Silkscreen
 62
   132
420
    47827
370
    35
100
AcDbVertex
100
AcDb2dVertex
 10
13.67916615804036
 20
19.28749932183167
 30
0.0
  0
VERTEX
  5
1CD
330
1C5
100
AcDbEntity
  8
Silkscreen
 62
   132
420
    47827
370
    35
100
AcDbVertex
100
AcDb2dVertex
 10
13.67222256130642
 20
19.3125
 30
0.0
  0
VERTEX
  5
1CE
330
1C5
100
AcDbEntity
  8
Silkscreen
 62
   132
420
    47827
370
    35
100
AcDbVertex
100
AcDb2dVertex
 10
13.66111161973741
 20
19.33472188313806
 30
0.0
  0
VERTEX
  5
1CF
330
1C5
100
AcDbEntity
  8
Silkscreen
 62
   132
420
    47827
370
    35
100
AcDbVertex
100
AcDb2dVertex
 10
13.64305623372396
 20
19.35277642144097
 30
0.0
  0
VERTEX
  5
1D0
330
1C5
100
AcDbEntity
  8
Silkscreen
 62
   132
420
    47827
370
    35
100
AcDbVertex
100
AcDb2dVertex
 10
13.62083435058594
 20
19.36388821072056
 30
0.0
  0
VERTEX
  5
1D1
330
1C5
100
AcDbEntity
  8
Silkscreen
 62
   132
420
    47827
370
    35
100
AcDbVertex
100
AcDb2dVertex
 10
13.59583452012804
 20
19.36805555555555
 30
0.0
  0
VERTEX
  5
1D2
330
1C5
100
AcDbEntity
  8
Silkscreen
 62
   132
420
    47827
370
    35
100
AcDbVertex
100
AcDb2dVertex
 10
13.58333418104384
 20
19.36805555555555
 30
0.0
  0
VERTEX
  5
1D3
330
1C5
100
AcDbEntity
  8
Silkscreen
 62
   132
420
    47827
370
    35
100
AcDbVertex
100
AcDb2dVertex
 10
13.57777828640408
 20
19.37916564941402
 30
0.0
  0
VERTEX
  5
1D4
330
1C5
100
AcDbEntity
  8
Silkscreen
 62
   132
420
    47827
370
    35
100
AcDbVertex
100
AcDb2dVertex
 10
13.55833350287543
 20
19.39861043294278
 30
0.0
  0
VERTEX
  5
1D5
330
1C5
100
AcDbEntity
  8
Silkscreen
 62
   132
420
    47827
370
    35
100
AcDbVertex
100
AcDb2dVertex
 10
13.53333367241753
 20
19.41110907660598
 30
0.0
  0
VERTEX
  5
1D6
330
1C5
100
AcDbEntity
  8
Silkscreen
 62
   132
420
    47827
370
    35
100
AcDbVertex
100
AcDb2dVertex
 10
13.50555589463976
 20
19.41527642144097
 30
0.0
  0
VERTEX
  5
1D7
330
1C5
100
AcDbEntity
  8
Silkscreen
 62
   132
420
    47827
370
    35
100
AcDbVertex
100
AcDb2dVertex
 10
13.25138939751519
 20
19.41527642144097
 30
0.0
  0
VERTEX
  5
1D8
330
1C5
100
AcDbEntity
  8
Silkscreen
 62
   132
420
    47827
370
    35
100
AcDbVertex
100
AcDb2dVertex
 10
13.22361161973741
 20
19.41110907660598
 30
0.0
  0
VERTEX
  5
1D9
330
1C5
100
AcDbEntity
  8
Silkscreen
 62
   132
420
    47827
370
    35
100
AcDbVertex
100
AcDb2dVertex
 10
13.19861178927951
 20
19.39861043294278
 30
0.0
  0
VERTEX
  5
1DA
330
1C5
100
AcDbEntity
  8
Silkscreen
 62
   132
420
    47827
370
    35
100
AcDbVertex
100
AcDb2dVertex
 10
13.17916700575087
 20
19.37916564941402
 30
0.0
  0
VERTEX
  5
1DB
330
1C5
100
AcDbEntity
  8
Silkscreen
 62
   132
420
    47827
370
    35
100
AcDbVertex
100
AcDb2dVertex
 10
13.17361111111111
 20
19.36805555555555
 30
0.0
  0
VERTEX
  5
1DC
330
1C5
100
AcDbEntity
  8
Silkscreen
 62
   132
420
    47827
370
    35
100
AcDbVertex
100
AcDb2dVertex
 10
10.94518788655599
 20
19.36805555555555
 30
0.0
  0
VERTEX
  5
1DD
330
1C5
100
AcDbEntity
  8
Silkscreen
 62
   132
420
    47827
370
    35
100
AcDbVertex
100
AcDb2dVertex
 10
10.94518788655599
 20
19.42916531032986
 30
0.0
  0
VERTEX
  5
1DE
330
1C5
100
AcDbEntity
  8
Silkscreen
 62
   132
420
    47827
370
    35
100
AcDbVertex
100
AcDb2dVertex
 10
12.47451951768663
 20
19.42916531032986
 30
0.0
  0
VERTEX
  5
1DF
330
1C5
100
AcDbEntity
  8
Silkscreen
 62
   132
420
    47827
370
    35
100
AcDbVertex
100
AcDb2dVertex
 10
12.47451951768663
 20
19.46875
 30
0.0
  0
VERTEX
  5
1E0
330
1C5
100
AcDbEntity
  8
Silkscreen
 62
   132
420
    47827
370
    35
100
AcDbVertex
100
AcDb2dVertex
 10
12.59257507324219
 20
19.46875
 30
0.0
  0
VERTEX
  5
1E1
330
1C5
100
AcDbEntity
  8
Silkscreen
 62
   132
420
    47827
370
    35
100
AcDbVertex
100
AcDb2dVertex
 10
12.59257507324219
 20
19.42916531032986
 30
0.0
  0
VERTEX
  5
1E2
330
1C5
100
AcDbEntity
  8
Silkscreen
 62
   132
420
    47827
370
    35
100
AcDbVertex
100
AcDb2dVertex
 10
12.63194444444444
 20
19.42916531032986
 30
0.0
  0
VERTEX
  5
1E3
330
1C5
100
AcDbEntity
  8
Silkscreen
 62
   132
420
    47827
370
    35
100
AcDbVertex
100
AcDb2dVertex
 10
12.63194444444444
 20
19.4694434271918
 30
0.0
  0
VERTEX
  5
1E4
330
1C5
100
AcDbEntity
  8
Silkscreen
 62
   132
420
    47827
370
    35
100
AcDbVertex
100
AcDb2dVertex
 10
12.69444444444444
 20
19.4694434271918
 30
0.0
  0
VERTEX
  5
1E5
330
1C5
100
AcDbEntity
  8
Silkscreen
 62
   132
420
    47827
370
    35
100
AcDbVertex
100
AcDb2dVertex
 10
12.69444444444444
 20
19.43055555555555
 30
0.0
  0
VERTEX
  5
1E6
330
1C5
100
AcDbEntity
  8
Silkscreen
 62
   132
420
    47827
370
    35
100
AcDbVertex
100
AcDb2dVertex
 10
13.07604217529297
 20
19.43055555555555
 30
0.0
  0
VERTEX
  5
1E7
330
1C5
100
AcDbEntity
  8
Silkscreen
 62
   132
420
    47827
370
    35
100
AcDbVertex
100
AcDb2dVertex
 10
13.07604217529297
 20
19.48578219943584
 30
0.0
  0
SEQEND
  5
1E8
330
1C5
100
AcDbEntity
  8
Silkscreen
 62
   132
420
    47827
370
    35
  0
POLYLINE
  5
1E9
330
42
100
AcDbEntity
  8
Silkscreen
 62
   132
420
    47827
370
    35
100
AcDb2dPolyline
 66
     1
 10
0.0
 20
0.0
 30
0.0
  0
VERTEX
  5
1EA
330
1E9
100
AcDbEntity
  8
Silkscreen
 62
   132
420
    47827
370
    35
100
AcDbVertex
100
AcDb2dVertex
 10
12.85555521647135
 20
20.34999932183167
 30
0.0
  0
VERTEX
  5
1EB
330
1E9
100
AcDbEntity
  8
Silkscreen
 62
   132
420
    47827
370
    35
100
AcDbVertex
100
AcDb2dVertex
 10
12.85555521647135
 20
19.95277574327264
 30
0.0
  0
VERTEX
  5
1EC
330
1E9
100
AcDbEntity
  8
Silkscreen
 62
   132
420
    47827
370
    35
100
AcDbVertex
100
AcDb2dVertex
 10
12.79027896457248
 20
19.95277574327264
 30
0.0
  0
VERTEX
  5
1ED
330
1E9
100
AcDbEntity
  8
Silkscreen
 62
   132
420
    47827
370
    35
100
AcDbVertex
100
AcDb2dVertex
 10
12.79027896457248
 20
20.16249932183167
 30
0.0
  0
VERTEX
  5
1EE
330
1E9
100
AcDbEntity
  8
Silkscreen
 62
   132
420
    47827
370
    35
100
AcDbVertex
100
AcDb2dVertex
 10
12.78888871934679
 20
20.1861097547743
 30
0.0
  0
VERTEX
  5
1EF
330
1E9
100
AcDbEntity
  8
Silkscreen
 62
   132
420
    47827
370
    35
100
AcDbVertex
100
AcDb2dVertex
 10
12.77777777777778
 20
20.20833333333333
 30
0.0
  0
VERTEX
  5
1F0
330
1E9
100
AcDbEntity
  8
Silkscreen
 62
   132
420
    47827
370
    35
100
AcDbVertex
100
AcDb2dVertex
 10
12.75972239176432
 20
20.22638956705737
 30
0.0
  0
VERTEX
  5
1F1
330
1E9
100
AcDbEntity
  8
Silkscreen
 62
   132
420
    47827
370
    35
100
AcDbVertex
100
AcDb2dVertex
 10
12.7375005086263
 20
20.23749966091583
 30
0.0
  0
VERTEX
  5
1F2
330
1E9
100
AcDbEntity
  8
Silkscreen
 62
   132
420
    47827
370
    35
100
AcDbVertex
100
AcDb2dVertex
 10
12.71388922797309
 20
20.24166531032986
 30
0.0
  0
VERTEX
  5
1F3
330
1E9
100
AcDbEntity
  8
Silkscreen
 62
   132
420
    47827
370
    35
100
AcDbVertex
100
AcDb2dVertex
 10
12.70138888888889
 20
20.24166531032986
 30
0.0
  0
VERTEX
  5
1F4
330
1E9
100
AcDbEntity
  8
Silkscreen
 62
   132
420
    47827
370
    35
100
AcDbVertex
100
AcDb2dVertex
 10
12.69583299424913
 20
20.25277709960945
 30
0.0
  0
VERTEX
  5
1F5
330
1E9
100
AcDbEntity
  8
Silkscreen
 62
   132
420
    47827
370
    35
100
AcDbVertex
100
AcDb2dVertex
 10
12.67638821072049
 20
20.27222188313806
 30
0.0
  0
VERTEX
  5
1F6
330
1E9
100
AcDbEntity
  8
Silkscreen
 62
   132
420
    47827
370
    35
100
AcDbVertex
100
AcDb2dVertex
 10
12.65138838026259
 20
20.28472222222222
 30
0.0
  0
VERTEX
  5
1F7
330
1E9
100
AcDbEntity
  8
Silkscreen
 62
   132
420
    47827
370
    35
100
AcDbVertex
100
AcDb2dVertex
 10
12.62361060248481
 20
20.28888787163624
 30
0.0
  0
VERTEX
  5
1F8
330
1E9
100
AcDbEntity
  8
Silkscreen
 62
   132
420
    47827
370
    35
100
AcDbVertex
100
AcDb2dVertex
 10
12.36944410536024
 20
20.28888787163624
 30
0.0
  0
VERTEX
  5
1F9
330
1E9
100
AcDbEntity
  8
Silkscreen
 62
   132
420
    47827
370
    35
100
AcDbVertex
100
AcDb2dVertex
 10
12.34166632758246
 20
20.28472222222222
 30
0.0
  0
VERTEX
  5
1FA
330
1E9
100
AcDbEntity
  8
Silkscreen
 62
   132
420
    47827
370
    35
100
AcDbVertex
100
AcDb2dVertex
 10
12.31666649712457
 20
20.27222188313806
 30
0.0
  0
VERTEX
  5
1FB
330
1E9
100
AcDbEntity
  8
Silkscreen
 62
   132
420
    47827
370
    35
100
AcDbVertex
100
AcDb2dVertex
 10
12.29722171359592
 20
20.25277709960945
 30
0.0
  0
VERTEX
  5
1FC
330
1E9
100
AcDbEntity
  8
Silkscreen
 62
   132
420
    47827
370
    35
100
AcDbVertex
100
AcDb2dVertex
 10
12.29166581895616
 20
20.24166531032986
 30
0.0
  0
VERTEX
  5
1FD
330
1E9
100
AcDbEntity
  8
Silkscreen
 62
   132
420
    47827
370
    35
100
AcDbVertex
100
AcDb2dVertex
 10
10.94518788655599
 20
20.24166531032986
 30
0.0
  0
VERTEX
  5
1FE
330
1E9
100
AcDbEntity
  8
Silkscreen
 62
   132
420
    47827
370
    35
100
AcDbVertex
100
AcDb2dVertex
 10
10.94518788655599
 20
20.34999932183167
 30
0.0
  0
VERTEX
  5
1FF
330
1E9
100
AcDbEntity
  8
Silkscreen
 62
   132
420
    47827
370
    35
100
AcDbVertex
100
AcDb2dVertex
 10
12.85555521647135
 20
20.34999932183167
 30
0.0
  0
SEQEND
  5
200
330
1E9
100
AcDbEntity
  8
Silkscreen
 62
   132
420
    47827
370
    35
  0
POLYLINE
  5
201
330
42
100
AcDbEntity
  8
Silkscreen
 62
   132
420
    47827
370
    35
100
AcDb2dPolyline
 66
     1
 10
0.0
 20
0.0
 30
0.0
  0
VERTEX
  5
202
330
201
100
AcDbEntity
  8
Silkscreen
 62
   132
420
    47827
370
    35
100
AcDbVertex
100
AcDb2dVertex
 10
10.78824361165364
 20
20.34999932183167
 30
0.0
  0
VERTEX
  5
203
330
201
100
AcDbEntity
  8
Silkscreen
 62
   132
420
    47827
370
    35
100
AcDbVertex
100
AcDb2dVertex
 10
10.78824361165364
 20
20.24166531032986
 30
0.0
  0
VERTEX
  5
204
330
201
100
AcDbEntity
  8
Silkscreen
 62
   132
420
    47827
370
    35
100
AcDbVertex
100
AcDb2dVertex
 10
5.695877075195325
 20
20.24166531032986
 30
0.0
  0
VERTEX
  5
205
330
201
100
AcDbEntity
  8
Silkscreen
 62
   132
420
    47827
370
    35
100
AcDbVertex
100
AcDb2dVertex
 10
5.695877075195325
 20
20.34999932183167
 30
0.0
  0
VERTEX
  5
206
330
201
100
AcDbEntity
  8
Silkscreen
 62
   132
420
    47827
370
    35
100
AcDbVertex
100
AcDb2dVertex
 10
10.78824361165364
 20
20.34999932183167
 30
0.0
  0
SEQEND
  5
207
330
201
100
AcDbEntity
  8
Silkscreen
 62
   132
420
    47827
370
    35
  0
POLYLINE
  5
208
330
42
100
AcDbEntity
  8
Silkscreen
 62
   132
420
    47827
370
    35
100
AcDb2dPolyline
 66
     1
 10
0.0
 20
0.0
 30
0.0
  0
VERTEX
  5
209
330
208
100
AcDbEntity
  8
Silkscreen
 62
   132
420
    47827
370
    35
100
AcDbVertex
100
AcDb2dVertex
 10
3.627777947319878
 20
20.34999932183167
 30
0.0
  0
VERTEX
  5
20A
330
208
100
AcDbEntity
  8
Silkscreen
 62
   132
420
    47827
370
    35
100
AcDbVertex
100
AcDb2dVertex
 10
5.538932800292969
 20
20.34999932183167
 30
0.0
  0
VERTEX
  5
20B
330
208
100
AcDbEntity
  8
Silkscreen
 62
   132
420
    47827
370
    35
100
AcDbVertex
100
AcDb2dVertex
 10
5.538932800292969
 20
20.24166531032986
 30
0.0
  0
VERTEX
  5
20C
330
208
100
AcDbEntity
  8
Silkscreen
 62
   132
420
    47827
370
    35
100
AcDbVertex
100
AcDb2dVertex
 10
4.190277947319879
 20
20.24166531032986
 30
0.0
  0
VERTEX
  5
20D
330
208
100
AcDbEntity
  8
Silkscreen
 62
   132
420
    47827
370
    35
100
AcDbVertex
100
AcDb2dVertex
 10
4.184722900390625
 20
20.25277709960945
 30
0.0
  0
VERTEX
  5
20E
330
208
100
AcDbEntity
  8
Silkscreen
 62
   132
420
    47827
370
    35
100
AcDbVertex
100
AcDb2dVertex
 10
4.165278116861992
 20
20.27222188313806
 30
0.0
  0
VERTEX
  5
20F
330
208
100
AcDbEntity
  8
Silkscreen
 62
   132
420
    47827
370
    35
100
AcDbVertex
100
AcDb2dVertex
 10
4.140278286404079
 20
20.28472222222222
 30
0.0
  0
VERTEX
  5
210
330
208
100
AcDbEntity
  8
Silkscreen
 62
   132
420
    47827
370
    35
100
AcDbVertex
100
AcDb2dVertex
 10
4.112500508626302
 20
20.28888787163624
 30
0.0
  0
VERTEX
  5
211
330
208
100
AcDbEntity
  8
Silkscreen
 62
   132
420
    47827
370
    35
100
AcDbVertex
100
AcDb2dVertex
 10
3.858334011501736
 20
20.28888787163624
 30
0.0
  0
VERTEX
  5
212
330
208
100
AcDbEntity
  8
Silkscreen
 62
   132
420
    47827
370
    35
100
AcDbVertex
100
AcDb2dVertex
 10
3.830556233723958
 20
20.28472222222222
 30
0.0
  0
VERTEX
  5
213
330
208
100
AcDbEntity
  8
Silkscreen
 62
   132
420
    47827
370
    35
100
AcDbVertex
100
AcDb2dVertex
 10
3.805556403266059
 20
20.27222188313806
 30
0.0
  0
VERTEX
  5
214
330
208
100
AcDbEntity
  8
Silkscreen
 62
   132
420
    47827
370
    35
100
AcDbVertex
100
AcDb2dVertex
 10
3.786112467447917
 20
20.25277709960945
 30
0.0
  0
VERTEX
  5
215
330
208
100
AcDbEntity
  8
Silkscreen
 62
   132
420
    47827
370
    35
100
AcDbVertex
100
AcDb2dVertex
 10
3.780556572808172
 20
20.24166531032986
 30
0.0
  0
VERTEX
  5
216
330
208
100
AcDbEntity
  8
Silkscreen
 62
   132
420
    47827
370
    35
100
AcDbVertex
100
AcDb2dVertex
 10
3.768057081434462
 20
20.24166531032986
 30
0.0
  0
VERTEX
  5
217
330
208
100
AcDbEntity
  8
Silkscreen
 62
   132
420
    47827
370
    35
100
AcDbVertex
100
AcDb2dVertex
 10
3.74444580078125
 20
20.23749966091583
 30
0.0
  0
VERTEX
  5
218
330
208
100
AcDbEntity
  8
Silkscreen
 62
   132
420
    47827
370
    35
100
AcDbVertex
100
AcDb2dVertex
 10
3.722223069932725
 20
20.22638956705737
 30
0.0
  0
VERTEX
  5
219
330
208
100
AcDbEntity
  8
Silkscreen
 62
   132
420
    47827
370
    35
100
AcDbVertex
100
AcDb2dVertex
 10
3.704167683919283
 20
20.20833333333333
 30
0.0
  0
VERTEX
  5
21A
330
208
100
AcDbEntity
  8
Silkscreen
 62
   132
420
    47827
370
    35
100
AcDbVertex
100
AcDb2dVertex
 10
3.69305674235026
 20
20.1861097547743
 30
0.0
  0
VERTEX
  5
21B
330
208
100
AcDbEntity
  8
Silkscreen
 62
   132
420
    47827
370
    35
100
AcDbVertex
100
AcDb2dVertex
 10
3.688890245225694
 20
20.16249932183167
 30
0.0
  0
VERTEX
  5
21C
330
208
100
AcDbEntity
  8
Silkscreen
 62
   132
420
    47827
370
    35
100
AcDbVertex
100
AcDb2dVertex
 10
3.688890245225694
 20
19.95277574327264
 30
0.0
  0
VERTEX
  5
21D
330
208
100
AcDbEntity
  8
Silkscreen
 62
   132
420
    47827
370
    35
100
AcDbVertex
100
AcDb2dVertex
 10
3.627777947319878
 20
19.95277574327264
 30
0.0
  0
VERTEX
  5
21E
330
208
100
AcDbEntity
  8
Silkscreen
 62
   132
420
    47827
370
    35
100
AcDbVertex
100
AcDb2dVertex
 10
3.627777947319878
 20
20.34999932183167
 30
0.0
  0
SEQEND
  5
21F
330
208
100
AcDbEntity
  8
Silkscreen
 62
   132
420
    47827
370
    35
  0
POLYLINE
  5
220
330
42
100
AcDbEntity
  8
Silkscreen
 62
   132
420
    47827
370
    35
100
AcDb2dPolyline
 66
     1
 10
0.0
 20
0.0
 30
0.0
  0
VERTEX
  5
221
330
220
100
AcDbEntity
  8
Silkscreen
 62
   132
420
    47827
370
    35
100
AcDbVertex
100
AcDb2dVertex
 10
3.627777947319878
 20
19.79583231608069
 30
0.0
  0
VERTEX
  5
222
330
220
100
AcDbEntity
  8
Silkscreen
 62
   132
420
    47827
370
    35
100
AcDbVertex
100
AcDb2dVertex
 10
3.688890245225694
 20
19.79583231608069
 30
0.0
  0
VERTEX
  5
223
330
220
100
AcDbEntity
  8
Silkscreen
 62
   132
420
    47827
370
    35
100
AcDbVertex
100
AcDb2dVertex
 10
3.688890245225694
 20
19.72916666666666
 30
0.0
  0
VERTEX
  5
224
330
220
100
AcDbEntity
  8
Silkscreen
 62
   132
420
    47827
370
    35
100
AcDbVertex
100
AcDb2dVertex
 10
3.787501017252616
 20
19.72916666666666
 30
0.0
  0
VERTEX
  5
225
330
220
100
AcDbEntity
  8
Silkscreen
 62
   132
420
    47827
370
    35
100
AcDbVertex
100
AcDb2dVertex
 10
3.787501017252616
 20
19.7687513563368
 30
0.0
  0
VERTEX
  5
226
330
220
100
AcDbEntity
  8
Silkscreen
 62
   132
420
    47827
370
    35
100
AcDbVertex
100
AcDb2dVertex
 10
3.905556572808172
 20
19.7687513563368
 30
0.0
  0
VERTEX
  5
227
330
220
100
AcDbEntity
  8
Silkscreen
 62
   132
420
    47827
370
    35
100
AcDbVertex
100
AcDb2dVertex
 10
3.905556572808172
 20
19.72916666666666
 30
0.0
  0
VERTEX
  5
228
330
220
100
AcDbEntity
  8
Silkscreen
 62
   132
420
    47827
370
    35
100
AcDbVertex
100
AcDb2dVertex
 10
5.538932800292969
 20
19.72916666666666
 30
0.0
  0
VERTEX
  5
229
330
220
100
AcDbEntity
  8
Silkscreen
 62
   132
420
    47827
370
    35
100
AcDbVertex
100
AcDb2dVertex
 10
5.538932800292969
 20
19.66666666666666
 30
0.0
  0
VERTEX
  5
22A
330
220
100
AcDbEntity
  8
Silkscreen
 62
   132
420
    47827
370
    35
100
AcDbVertex
100
AcDb2dVertex
 10
4.008814493815117
 20
19.66666666666666
 30
0.0
  0
VERTEX
  5
22B
330
220
100
AcDbEntity
  8
Silkscreen
 62
   132
420
    47827
370
    35
100
AcDbVertex
100
AcDb2dVertex
 10
4.008814493815117
 20
19.62708197699653
 30
0.0
  0
VERTEX
  5
22C
330
220
100
AcDbEntity
  8
Silkscreen
 62
   132
420
    47827
370
    35
100
AcDbVertex
100
AcDb2dVertex
 10
3.890758938259561
 20
19.62708197699653
 30
0.0
  0
VERTEX
  5
22D
330
220
100
AcDbEntity
  8
Silkscreen
 62
   132
420
    47827
370
    35
100
AcDbVertex
100
AcDb2dVertex
 10
3.890758938259561
 20
19.66666666666666
 30
0.0
  0
VERTEX
  5
22E
330
220
100
AcDbEntity
  8
Silkscreen
 62
   132
420
    47827
370
    35
100
AcDbVertex
100
AcDb2dVertex
 10
3.851388719346788
 20
19.66666666666666
 30
0.0
  0
VERTEX
  5
22F
330
220
100
AcDbEntity
  8
Silkscreen
 62
   132
420
    47827
370
    35
100
AcDbVertex
100
AcDb2dVertex
 10
3.851388719346788
 20
19.62638685438376
 30
0.0
  0
VERTEX
  5
230
330
220
100
AcDbEntity
  8
Silkscreen
 62
   132
420
    47827
370
    35
100
AcDbVertex
100
AcDb2dVertex
 10
3.788888719346788
 20
19.62638685438376
 30
0.0
  0
VERTEX
  5
231
330
220
100
AcDbEntity
  8
Silkscreen
 62
   132
420
    47827
370
    35
100
AcDbVertex
100
AcDb2dVertex
 10
3.788888719346788
 20
19.66527642144097
 30
0.0
  0
VERTEX
  5
232
330
220
100
AcDbEntity
  8
Silkscreen
 62
   132
420
    47827
370
    35
100
AcDbVertex
100
AcDb2dVertex
 10
3.627777947319878
 20
19.66527642144097
 30
0.0
  0
VERTEX
  5
233
330
220
100
AcDbEntity
  8
Silkscreen
 62
   132
420
    47827
370
    35
100
AcDbVertex
100
AcDb2dVertex
 10
3.627777947319878
 20
19.79583231608069
 30
0.0
  0
SEQEND
  5
234
330
220
100
AcDbEntity
  8
Silkscreen
 62
   132
420
    47827
370
    35
  0
POLYLINE
  5
235
330
42
100
AcDbEntity
  8
Silkscreen
 62
   132
420
    47827
370
    35
100
AcDb2dPolyline
 66
     1
 10
0.0
 20
0.0
 30
0.0
  0
VERTEX
  5
236
330
235
100
AcDbEntity
  8
Silkscreen
 62
   132
420
    47827
370
    35
100
AcDbVertex
100
AcDb2dVertex
 10
2.744444953070746
 20
19.48525153266055
 30
0.0
  0
VERTEX
  5
237
330
235
100
AcDbEntity
  8
Silkscreen
 62
   132
420
    47827
370
    35
100
AcDbVertex
100
AcDb2dVertex
 10
3.407407124837239
 20
19.48525153266055
 30
0.0
  0
VERTEX
  5
238
330
235
100
AcDbEntity
  8
Silkscreen
 62
   132
420
    47827
370
    35
100
AcDbVertex
100
AcDb2dVertex
 10
3.407407124837239
 20
19.43055555555555
 30
0.0
  0
VERTEX
  5
239
330
235
100
AcDbEntity
  8
Silkscreen
 62
   132
420
    47827
370
    35
100
AcDbVertex
100
AcDb2dVertex
 10
3.788888719346788
 20
19.43055555555555
 30
0.0
  0
VERTEX
  5
23A
330
235
100
AcDbEntity
  8
Silkscreen
 62
   132
420
    47827
370
    35
100
AcDbVertex
100
AcDb2dVertex
 10
3.788888719346788
 20
19.4694434271918
 30
0.0
  0
VERTEX
  5
23B
330
235
100
AcDbEntity
  8
Silkscreen
 62
   132
420
    47827
370
    35
100
AcDbVertex
100
AcDb2dVertex
 10
3.851388719346788
 20
19.4694434271918
 30
0.0
  0
VERTEX
  5
23C
330
235
100
AcDbEntity
  8
Silkscreen
 62
   132
420
    47827
370
    35
100
AcDbVertex
100
AcDb2dVertex
 10
3.851388719346788
 20
19.42916531032986
 30
0.0
  0
VERTEX
  5
23D
330
235
100
AcDbEntity
  8
Silkscreen
 62
   132
420
    47827
370
    35
100
AcDbVertex
100
AcDb2dVertex
 10
3.890758938259561
 20
19.42916531032986
 30
0.0
  0
VERTEX
  5
23E
330
235
100
AcDbEntity
  8
Silkscreen
 62
   132
420
    47827
370
    35
100
AcDbVertex
100
AcDb2dVertex
 10
3.890758938259561
 20
19.46875
 30
0.0
  0
VERTEX
  5
23F
330
235
100
AcDbEntity
  8
Silkscreen
 62
   132
420
    47827
370
    35
100
AcDbVertex
100
AcDb2dVertex
 10
4.008814493815117
 20
19.46875
 30
0.0
  0
VERTEX
  5
240
330
235
100
AcDbEntity
  8
Silkscreen
 62
   132
420
    47827
370
    35
100
AcDbVertex
100
AcDb2dVertex
 10
4.008814493815117
 20
19.42916531032986
 30
0.0
  0
VERTEX
  5
241
330
235
100
AcDbEntity
  8
Silkscreen
 62
   132
420
    47827
370
    35
100
AcDbVertex
100
AcDb2dVertex
 10
5.538932800292969
 20
19.42916531032986
 30
0.0
  0
VERTEX
  5
242
330
235
100
AcDbEntity
  8
Silkscreen
 62
   132
420
    47827
370
    35
100
AcDbVertex
100
AcDb2dVertex
 10
5.538932800292969
 20
19.36805555555555
 30
0.0
  0
VERTEX
  5
243
330
235
100
AcDbEntity
  8
Silkscreen
 62
   132
420
    47827
370
    35
100
AcDbVertex
100
AcDb2dVertex
 10
3.306944953070746
 20
19.36805555555555
 30
0.0
  0
VERTEX
  5
244
330
235
100
AcDbEntity
  8
Silkscreen
 62
   132
420
    47827
370
    35
100
AcDbVertex
100
AcDb2dVertex
 10
3.301389058430989
 20
19.37916564941402
 30
0.0
  0
VERTEX
  5
245
330
235
100
AcDbEntity
  8
Silkscreen
 62
   132
420
    47827
370
    35
100
AcDbVertex
100
AcDb2dVertex
 10
3.281945122612847
 20
19.39861043294278
 30
0.0
  0
VERTEX
  5
246
330
235
100
AcDbEntity
  8
Silkscreen
 62
   132
420
    47827
370
    35
100
AcDbVertex
100
AcDb2dVertex
 10
3.256944444444444
 20
19.41110907660598
 30
0.0
  0
VERTEX
  5
247
330
235
100
AcDbEntity
  8
Silkscreen
 62
   132
420
    47827
370
    35
100
AcDbVertex
100
AcDb2dVertex
 10
3.229166666666667
 20
19.41527642144097
 30
0.0
  0
VERTEX
  5
248
330
235
100
AcDbEntity
  8
Silkscreen
 62
   132
420
    47827
370
    35
100
AcDbVertex
100
AcDb2dVertex
 10
2.9750001695421
 20
19.41527642144097
 30
0.0
  0
VERTEX
  5
249
330
235
100
AcDbEntity
  8
Silkscreen
 62
   132
420
    47827
370
    35
100
AcDbVertex
100
AcDb2dVertex
 10
2.947222391764323
 20
19.41110907660598
 30
0.0
  0
VERTEX
  5
24A
330
235
100
AcDbEntity
  8
Silkscreen
 62
   132
420
    47827
370
    35
100
AcDbVertex
100
AcDb2dVertex
 10
2.922222561306436
 20
19.39861043294278
 30
0.0
  0
VERTEX
  5
24B
330
235
100
AcDbEntity
  8
Silkscreen
 62
   132
420
    47827
370
    35
100
AcDbVertex
100
AcDb2dVertex
 10
2.902777777777778
 20
19.37916564941402
 30
0.0
  0
VERTEX
  5
24C
330
235
100
AcDbEntity
  8
Silkscreen
 62
   132
420
    47827
370
    35
100
AcDbVertex
100
AcDb2dVertex
 10
2.897222730848524
 20
19.36805555555555
 30
0.0
  0
VERTEX
  5
24D
330
235
100
AcDbEntity
  8
Silkscreen
 62
   132
420
    47827
370
    35
100
AcDbVertex
100
AcDb2dVertex
 10
2.884722391764323
 20
19.36805555555555
 30
0.0
  0
VERTEX
  5
24E
330
235
100
AcDbEntity
  8
Silkscreen
 62
   132
420
    47827
370
    35
100
AcDbVertex
100
AcDb2dVertex
 10
2.859722561306436
 20
19.36388821072056
 30
0.0
  0
VERTEX
  5
24F
330
235
100
AcDbEntity
  8
Silkscreen
 62
   132
420
    47827
370
    35
100
AcDbVertex
100
AcDb2dVertex
 10
2.837500678168403
 20
19.35277642144097
 30
0.0
  0
VERTEX
  5
250
330
235
100
AcDbEntity
  8
Silkscreen
 62
   132
420
    47827
370
    35
100
AcDbVertex
100
AcDb2dVertex
 10
2.819444444444444
 20
19.33472188313806
 30
0.0
  0
VERTEX
  5
251
330
235
100
AcDbEntity
  8
Silkscreen
 62
   132
420
    47827
370
    35
100
AcDbVertex
100
AcDb2dVertex
 10
2.808333502875434
 20
19.3125
 30
0.0
  0
VERTEX
  5
252
330
235
100
AcDbEntity
  8
Silkscreen
 62
   132
420
    47827
370
    35
100
AcDbVertex
100
AcDb2dVertex
 10
2.804167005750881
 20
19.28888787163624
 30
0.0
  0
VERTEX
  5
253
330
235
100
AcDbEntity
  8
Silkscreen
 62
   132
420
    47827
370
    35
100
AcDbVertex
100
AcDb2dVertex
 10
2.804167005750881
 20
19.07222154405389
 30
0.0
  0
VERTEX
  5
254
330
235
100
AcDbEntity
  8
Silkscreen
 62
   132
420
    47827
370
    35
100
AcDbVertex
100
AcDb2dVertex
 10
2.744444953070746
 20
19.07222154405389
 30
0.0
  0
VERTEX
  5
255
330
235
100
AcDbEntity
  8
Silkscreen
 62
   132
420
    47827
370
    35
100
AcDbVertex
100
AcDb2dVertex
 10
2.744444953070746
 20
19.48525153266055
 30
0.0
  0
SEQEND
  5
256
330
235
100
AcDbEntity
  8
Silkscreen
 62
   132
420
    47827
370
    35
  0
POLYLINE
  5
257
330
42
100
AcDbEntity
  8
Silkscreen
 62
   132
420
    47827
370
    35
100
AcDb2dPolyline
 66
     1
 10
0.0
 20
0.0
 30
0.0
  0
VERTEX
  5
258
330
257
100
AcDbEntity
  8
Silkscreen
 62
   132
420
    47827
370
    35
100
AcDbVertex
100
AcDb2dVertex
 10
2.744444953070746
 20
18.91388787163624
 30
0.0
  0
VERTEX
  5
259
330
257
100
AcDbEntity
  8
Silkscreen
 62
   132
420
    47827
370
    35
100
AcDbVertex
100
AcDb2dVertex
 10
2.804167005750881
 20
18.91388787163624
 30
0.0
  0
VERTEX
  5
25A
330
257
100
AcDbEntity
  8
Silkscreen
 62
   132
420
    47827
370
    35
100
AcDbVertex
100
AcDb2dVertex
 10
2.804167005750881
 20
18.69722154405389
 30
0.0
  0
VERTEX
  5
25B
330
257
100
AcDbEntity
  8
Silkscreen
 62
   132
420
    47827
370
    35
100
AcDbVertex
100
AcDb2dVertex
 10
2.808333502875434
 20
18.67361111111111
 30
0.0
  0
VERTEX
  5
25C
330
257
100
AcDbEntity
  8
Silkscreen
 62
   132
420
    47827
370
    35
100
AcDbVertex
100
AcDb2dVertex
 10
2.819444444444444
 20
18.65138753255208
 30
0.0
  0
VERTEX
  5
25D
330
257
100
AcDbEntity
  8
Silkscreen
 62
   132
420
    47827
370
    35
100
AcDbVertex
100
AcDb2dVertex
 10
2.837500678168403
 20
18.63333299424917
 30
0.0
  0
VERTEX
  5
25E
330
257
100
AcDbEntity
  8
Silkscreen
 62
   132
420
    47827
370
    35
100
AcDbVertex
100
AcDb2dVertex
 10
2.859722561306436
 20
18.6222229003907
 30
0.0
  0
VERTEX
  5
25F
330
257
100
AcDbEntity
  8
Silkscreen
 62
   132
420
    47827
370
    35
100
AcDbVertex
100
AcDb2dVertex
 10
2.884722391764323
 20
18.61805555555555
 30
0.0
  0
VERTEX
  5
260
330
257
100
AcDbEntity
  8
Silkscreen
 62
   132
420
    47827
370
    35
100
AcDbVertex
100
AcDb2dVertex
 10
2.897222730848524
 20
18.61805555555555
 30
0.0
  0
VERTEX
  5
261
330
257
100
AcDbEntity
  8
Silkscreen
 62
   132
420
    47827
370
    35
100
AcDbVertex
100
AcDb2dVertex
 10
2.902777777777778
 20
18.60694376627612
 30
0.0
  0
VERTEX
  5
262
330
257
100
AcDbEntity
  8
Silkscreen
 62
   132
420
    47827
370
    35
100
AcDbVertex
100
AcDb2dVertex
 10
2.922222561306436
 20
18.58750067816848
 30
0.0
  0
VERTEX
  5
263
330
257
100
AcDbEntity
  8
Silkscreen
 62
   132
420
    47827
370
    35
100
AcDbVertex
100
AcDb2dVertex
 10
2.947222391764323
 20
18.57500033908416
 30
0.0
  0
VERTEX
  5
264
330
257
100
AcDbEntity
  8
Silkscreen
 62
   132
420
    47827
370
    35
100
AcDbVertex
100
AcDb2dVertex
 10
2.9750001695421
 20
18.57083468967014
 30
0.0
  0
VERTEX
  5
265
330
257
100
AcDbEntity
  8
Silkscreen
 62
   132
420
    47827
370
    35
100
AcDbVertex
100
AcDb2dVertex
 10
3.229166666666667
 20
18.57083468967014
 30
0.0
  0
VERTEX
  5
266
330
257
100
AcDbEntity
  8
Silkscreen
 62
   132
420
    47827
370
    35
100
AcDbVertex
100
AcDb2dVertex
 10
3.256944444444444
 20
18.57500033908416
 30
0.0
  0
VERTEX
  5
267
330
257
100
AcDbEntity
  8
Silkscreen
 62
   132
420
    47827
370
    35
100
AcDbVertex
100
AcDb2dVertex
 10
3.281945122612847
 20
18.58750067816848
 30
0.0
  0
VERTEX
  5
268
330
257
100
AcDbEntity
  8
Silkscreen
 62
   132
420
    47827
370
    35
100
AcDbVertex
100
AcDb2dVertex
 10
3.301389058430989
 20
18.60694376627612
 30
0.0
  0
VERTEX
  5
269
330
257
100
AcDbEntity
  8
Silkscreen
 62
   132
420
    47827
370
    35
100
AcDbVertex
100
AcDb2dVertex
 10
3.306944953070746
 20
18.61805555555555
 30
0.0
  0
VERTEX
  5
26A
330
257
100
AcDbEntity
  8
Silkscreen
 62
   132
420
    47827
370
    35
100
AcDbVertex
100
AcDb2dVertex
 10
5.538932800292969
 20
18.61805555555555
 30
0.0
  0
VERTEX
  5
26B
330
257
100
AcDbEntity
  8
Silkscreen
 62
   132
420
    47827
370
    35
100
AcDbVertex
100
AcDb2dVertex
 10
5.538932800292969
 20
18.46111043294278
 30
0.0
  0
VERTEX
  5
26C
330
257
100
AcDbEntity
  8
Silkscreen
 62
   132
420
    47827
370
    35
100
AcDbVertex
100
AcDb2dVertex
 10
3.306944953070746
 20
18.46111043294278
 30
0.0
  0
VERTEX
  5
26D
330
257
100
AcDbEntity
  8
Silkscreen
 62
   132
420
    47827
370
    35
100
AcDbVertex
100
AcDb2dVertex
 10
3.301389058430989
 20
18.47222222222222
 30
0.0
  0
VERTEX
  5
26E
330
257
100
AcDbEntity
  8
Silkscreen
 62
   132
420
    47827
370
    35
100
AcDbVertex
100
AcDb2dVertex
 10
3.281945122612847
 20
18.49166531032986
 30
0.0
  0
VERTEX
  5
26F
330
257
100
AcDbEntity
  8
Silkscreen
 62
   132
420
    47827
370
    35
100
AcDbVertex
100
AcDb2dVertex
 10
3.256944444444444
 20
18.50416564941402
 30
0.0
  0
VERTEX
  5
270
330
257
100
AcDbEntity
  8
Silkscreen
 62
   132
420
    47827
370
    35
100
AcDbVertex
100
AcDb2dVertex
 10
3.229166666666667
 20
18.5083312988282
 30
0.0
  0
VERTEX
  5
271
330
257
100
AcDbEntity
  8
Silkscreen
 62
   132
420
    47827
370
    35
100
AcDbVertex
100
AcDb2dVertex
 10
2.9750001695421
 20
18.5083312988282
 30
0.0
  0
VERTEX
  5
272
330
257
100
AcDbEntity
  8
Silkscreen
 62
   132
420
    47827
370
    35
100
AcDbVertex
100
AcDb2dVertex
 10
2.947222391764323
 20
18.50416564941402
 30
0.0
  0
VERTEX
  5
273
330
257
100
AcDbEntity
  8
Silkscreen
 62
   132
420
    47827
370
    35
100
AcDbVertex
100
AcDb2dVertex
 10
2.922222561306436
 20
18.49166531032986
 30
0.0
  0
VERTEX
  5
274
330
257
100
AcDbEntity
  8
Silkscreen
 62
   132
420
    47827
370
    35
100
AcDbVertex
100
AcDb2dVertex
 10
2.902777777777778
 20
18.47222222222222
 30
0.0
  0
VERTEX
  5
275
330
257
100
AcDbEntity
  8
Silkscreen
 62
   132
420
    47827
370
    35
100
AcDbVertex
100
AcDb2dVertex
 10
2.897222730848524
 20
18.46111043294278
 30
0.0
  0
VERTEX
  5
276
330
257
100
AcDbEntity
  8
Silkscreen
 62
   132
420
    47827
370
    35
100
AcDbVertex
100
AcDb2dVertex
 10
2.884722391764323
 20
18.46111043294278
 30
0.0
  0
VERTEX
  5
277
330
257
100
AcDbEntity
  8
Silkscreen
 62
   132
420
    47827
370
    35
100
AcDbVertex
100
AcDb2dVertex
 10
2.859722561306436
 20
18.45694308810764
 30
0.0
  0
VERTEX
  5
278
330
257
100
AcDbEntity
  8
Silkscreen
 62
   132
420
    47827
370
    35
100
AcDbVertex
100
AcDb2dVertex
 10
2.837500678168403
 20
18.44583299424917
 30
0.0
  0
VERTEX
  5
279
330
257
100
AcDbEntity
  8
Silkscreen
 62
   132
420
    47827
370
    35
100
AcDbVertex
100
AcDb2dVertex
 10
2.819444444444444
 20
18.42777845594626
 30
0.0
  0
VERTEX
  5
27A
330
257
100
AcDbEntity
  8
Silkscreen
 62
   132
420
    47827
370
    35
100
AcDbVertex
100
AcDb2dVertex
 10
2.808333502875434
 20
18.40555487738723
 30
0.0
  0
VERTEX
  5
27B
330
257
100
AcDbEntity
  8
Silkscreen
 62
   132
420
    47827
370
    35
100
AcDbVertex
100
AcDb2dVertex
 10
2.804167005750881
 20
18.38055419921875
 30
0.0
  0
VERTEX
  5
27C
330
257
100
AcDbEntity
  8
Silkscreen
 62
   132
420
    47827
370
    35
100
AcDbVertex
100
AcDb2dVertex
 10
2.804167005750881
 20
18.16388787163624
 30
0.0
  0
VERTEX
  5
27D
330
257
100
AcDbEntity
  8
Silkscreen
 62
   132
420
    47827
370
    35
100
AcDbVertex
100
AcDb2dVertex
 10
2.744444953070746
 20
18.16388787163624
 30
0.0
  0
VERTEX
  5
27E
330
257
100
AcDbEntity
  8
Silkscreen
 62
   132
420
    47827
370
    35
100
AcDbVertex
100
AcDb2dVertex
 10
2.744444953070746
 20
18.91388787163624
 30
0.0
  0
SEQEND
  5
27F
330
257
100
AcDbEntity
  8
Silkscreen
 62
   132
420
    47827
370
    35
  0
POLYLINE
  5
280
330
42
100
AcDbEntity
  8
Silkscreen
 62
   132
420
    47827
370
    35
100
AcDb2dPolyline
 66
     1
 10
0.0
 20
0.0
 30
0.0
  0
VERTEX
  5
281
330
280
100
AcDbEntity
  8
Silkscreen
 62
   132
420
    47827
370
    35
100
AcDbVertex
100
AcDb2dVertex
 10
2.375
 20
17.71111043294278
 30
0.0
  0
VERTEX
  5
282
330
280
100
AcDbEntity
  8
Silkscreen
 62
   132
420
    47827
370
    35
100
AcDbVertex
100
AcDb2dVertex
 10
2.745833502875434
 20
17.71111043294278
 30
0.0
  0
VERTEX
  5
283
330
280
100
AcDbEntity
  8
Silkscreen
 62
   132
420
    47827
370
    35
100
AcDbVertex
100
AcDb2dVertex
 10
2.745833502875434
 20
18.00694444444444
 30
0.0
  0
VERTEX
  5
284
330
280
100
AcDbEntity
  8
Silkscreen
 62
   132
420
    47827
370
    35
100
AcDbVertex
100
AcDb2dVertex
 10
2.804167005750881
 20
18.00694444444444
 30
0.0
  0
VERTEX
  5
285
330
280
100
AcDbEntity
  8
Silkscreen
 62
   132
420
    47827
370
    35
100
AcDbVertex
100
AcDb2dVertex
 10
2.804167005750881
 20
17.79027642144097
 30
0.0
  0
VERTEX
  5
286
330
280
100
AcDbEntity
  8
Silkscreen
 62
   132
420
    47827
370
    35
100
AcDbVertex
100
AcDb2dVertex
 10
2.808333502875434
 20
17.76527743869361
 30
0.0
  0
VERTEX
  5
287
330
280
100
AcDbEntity
  8
Silkscreen
 62
   132
420
    47827
370
    35
100
AcDbVertex
100
AcDb2dVertex
 10
2.819444444444444
 20
17.74305555555555
 30
0.0
  0
VERTEX
  5
288
330
280
100
AcDbEntity
  8
Silkscreen
 62
   132
420
    47827
370
    35
100
AcDbVertex
100
AcDb2dVertex
 10
2.837500678168403
 20
17.72499932183167
 30
0.0
  0
VERTEX
  5
289
330
280
100
AcDbEntity
  8
Silkscreen
 62
   132
420
    47827
370
    35
100
AcDbVertex
100
AcDb2dVertex
 10
2.859722561306436
 20
17.71388922797305
 30
0.0
  0
VERTEX
  5
28A
330
280
100
AcDbEntity
  8
Silkscreen
 62
   132
420
    47827
370
    35
100
AcDbVertex
100
AcDb2dVertex
 10
2.884722391764323
 20
17.70972357855903
 30
0.0
  0
VERTEX
  5
28B
330
280
100
AcDbEntity
  8
Silkscreen
 62
   132
420
    47827
370
    35
100
AcDbVertex
100
AcDb2dVertex
 10
2.897222730848524
 20
17.70972357855903
 30
0.0
  0
VERTEX
  5
28C
330
280
100
AcDbEntity
  8
Silkscreen
 62
   132
420
    47827
370
    35
100
AcDbVertex
100
AcDb2dVertex
 10
2.902777777777778
 20
17.69861178927959
 30
0.0
  0
VERTEX
  5
28D
330
280
100
AcDbEntity
  8
Silkscreen
 62
   132
420
    47827
370
    35
100
AcDbVertex
100
AcDb2dVertex
 10
2.922222561306436
 20
17.67916700575083
 30
0.0
  0
VERTEX
  5
28E
330
280
100
AcDbEntity
  8
Silkscreen
 62
   132
420
    47827
370
    35
100
AcDbVertex
100
AcDb2dVertex
 10
2.947222391764323
 20
17.66666666666666
 30
0.0
  0
VERTEX
  5
28F
330
280
100
AcDbEntity
  8
Silkscreen
 62
   132
420
    47827
370
    35
100
AcDbVertex
100
AcDb2dVertex
 10
2.9750001695421
 20
17.66250101725264
 30
0.0
  0
VERTEX
  5
290
330
280
100
AcDbEntity
  8
Silkscreen
 62
   132
420
    47827
370
    35
100
AcDbVertex
100
AcDb2dVertex
 10
3.229166666666667
 20
17.66250101725264
 30
0.0
  0
VERTEX
  5
291
330
280
100
AcDbEntity
  8
Silkscreen
 62
   132
420
    47827
370
    35
100
AcDbVertex
100
AcDb2dVertex
 10
3.256944444444444
 20
17.66666666666666
 30
0.0
  0
VERTEX
  5
292
330
280
100
AcDbEntity
  8
Silkscreen
 62
   132
420
    47827
370
    35
100
AcDbVertex
100
AcDb2dVertex
 10
3.281945122612847
 20
17.67916700575083
 30
0.0
  0
VERTEX
  5
293
330
280
100
AcDbEntity
  8
Silkscreen
 62
   132
420
    47827
370
    35
100
AcDbVertex
100
AcDb2dVertex
 10
3.301389058430989
 20
17.69861178927959
 30
0.0
  0
VERTEX
  5
294
330
280
100
AcDbEntity
  8
Silkscreen
 62
   132
420
    47827
370
    35
100
AcDbVertex
100
AcDb2dVertex
 10
3.306944953070746
 20
17.70972357855903
 30
0.0
  0
VERTEX
  5
295
330
280
100
AcDbEntity
  8
Silkscreen
 62
   132
420
    47827
370
    35
100
AcDbVertex
100
AcDb2dVertex
 10
5.538932800292969
 20
17.70972357855903
 30
0.0
  0
VERTEX
  5
296
330
280
100
AcDbEntity
  8
Silkscreen
 62
   132
420
    47827
370
    35
100
AcDbVertex
100
AcDb2dVertex
 10
5.538932800292969
 20
17.59305487738723
 30
0.0
  0
VERTEX
  5
297
330
280
100
AcDbEntity
  8
Silkscreen
 62
   132
420
    47827
370
    35
100
AcDbVertex
100
AcDb2dVertex
 10
2.9375
 20
17.59305487738723
 30
0.0
  0
VERTEX
  5
298
330
280
100
AcDbEntity
  8
Silkscreen
 62
   132
420
    47827
370
    35
100
AcDbVertex
100
AcDb2dVertex
 10
2.931944953070746
 20
17.60416666666666
 30
0.0
  0
VERTEX
  5
299
330
280
100
AcDbEntity
  8
Silkscreen
 62
   132
420
    47827
370
    35
100
AcDbVertex
100
AcDb2dVertex
 10
2.9125001695421
 20
17.6236097547743
 30
0.0
  0
VERTEX
  5
29A
330
280
100
AcDbEntity
  8
Silkscreen
 62
   132
420
    47827
370
    35
100
AcDbVertex
100
AcDb2dVertex
 10
2.887500339084214
 20
17.63611009385847
 30
0.0
  0
VERTEX
  5
29B
330
280
100
AcDbEntity
  8
Silkscreen
 62
   132
420
    47827
370
    35
100
AcDbVertex
100
AcDb2dVertex
 10
2.859722561306436
 20
17.64027574327265
 30
0.0
  0
VERTEX
  5
29C
330
280
100
AcDbEntity
  8
Silkscreen
 62
   132
420
    47827
370
    35
100
AcDbVertex
100
AcDb2dVertex
 10
2.605556064181858
 20
17.64027574327265
 30
0.0
  0
VERTEX
  5
29D
330
280
100
AcDbEntity
  8
Silkscreen
 62
   132
420
    47827
370
    35
100
AcDbVertex
100
AcDb2dVertex
 10
2.57777828640408
 20
17.63611009385847
 30
0.0
  0
VERTEX
  5
29E
330
280
100
AcDbEntity
  8
Silkscreen
 62
   132
420
    47827
370
    35
100
AcDbVertex
100
AcDb2dVertex
 10
2.552777608235677
 20
17.6236097547743
 30
0.0
  0
VERTEX
  5
29F
330
280
100
AcDbEntity
  8
Silkscreen
 62
   132
420
    47827
370
    35
100
AcDbVertex
100
AcDb2dVertex
 10
2.533333672417547
 20
17.60416666666666
 30
0.0
  0
VERTEX
  5
2A0
330
280
100
AcDbEntity
  8
Silkscreen
 62
   132
420
    47827
370
    35
100
AcDbVertex
100
AcDb2dVertex
 10
2.527777777777778
 20
17.59305487738723
 30
0.0
  0
VERTEX
  5
2A1
330
280
100
AcDbEntity
  8
Silkscreen
 62
   132
420
    47827
370
    35
100
AcDbVertex
100
AcDb2dVertex
 10
2.51527828640408
 20
17.59305487738723
 30
0.0
  0
VERTEX
  5
2A2
330
280
100
AcDbEntity
  8
Silkscreen
 62
   132
420
    47827
370
    35
100
AcDbVertex
100
AcDb2dVertex
 10
2.49027845594618
 20
17.58888753255208
 30
0.0
  0
VERTEX
  5
2A3
330
280
100
AcDbEntity
  8
Silkscreen
 62
   132
420
    47827
370
    35
100
AcDbVertex
100
AcDb2dVertex
 10
2.468055725097656
 20
17.57777743869361
 30
0.0
  0
VERTEX
  5
2A4
330
280
100
AcDbEntity
  8
Silkscreen
 62
   132
420
    47827
370
    35
100
AcDbVertex
100
AcDb2dVertex
 10
2.450000339084214
 20
17.5597229003907
 30
0.0
  0
VERTEX
  5
2A5
330
280
100
AcDbEntity
  8
Silkscreen
 62
   132
420
    47827
370
    35
100
AcDbVertex
100
AcDb2dVertex
 10
2.438889397515191
 20
17.53749932183167
 30
0.0
  0
VERTEX
  5
2A6
330
280
100
AcDbEntity
  8
Silkscreen
 62
   132
420
    47827
370
    35
100
AcDbVertex
100
AcDb2dVertex
 10
2.434722052680121
 20
17.51249864366319
 30
0.0
  0
VERTEX
  5
2A7
330
280
100
AcDbEntity
  8
Silkscreen
 62
   132
420
    47827
370
    35
100
AcDbVertex
100
AcDb2dVertex
 10
2.434722052680121
 20
17.29444376627612
 30
0.0
  0
VERTEX
  5
2A8
330
280
100
AcDbEntity
  8
Silkscreen
 62
   132
420
    47827
370
    35
100
AcDbVertex
100
AcDb2dVertex
 10
2.375
 20
17.29444376627612
 30
0.0
  0
VERTEX
  5
2A9
330
280
100
AcDbEntity
  8
Silkscreen
 62
   132
420
    47827
370
    35
100
AcDbVertex
100
AcDb2dVertex
 10
2.375
 20
17.71111043294278
 30
0.0
  0
SEQEND
  5
2AA
330
280
100
AcDbEntity
  8
Silkscreen
 62
   132
420
    47827
370
    35
  0
POLYLINE
  5
2AB
330
42
100
AcDbEntity
  8
Silkscreen
 62
   132
420
    47827
370
    35
100
AcDb2dPolyline
 66
     1
 10
0.0
 20
0.0
 30
0.0
  0
VERTEX
  5
2AC
330
2AB
100
AcDbEntity
  8
Silkscreen
 62
   132
420
    47827
370
    35
100
AcDbVertex
100
AcDb2dVertex
 10
2.375
 20
17.13749864366319
 30
0.0
  0
VERTEX
  5
2AD
330
2AB
100
AcDbEntity
  8
Silkscreen
 62
   132
420
    47827
370
    35
100
AcDbVertex
100
AcDb2dVertex
 10
2.434722052680121
 20
17.13749864366319
 30
0.0
  0
VERTEX
  5
2AE
330
2AB
100
AcDbEntity
  8
Silkscreen
 62
   132
420
    47827
370
    35
100
AcDbVertex
100
AcDb2dVertex
 10
2.434722052680121
 20
16.92222086588541
 30
0.0
  0
VERTEX
  5
2AF
330
2AB
100
AcDbEntity
  8
Silkscreen
 62
   132
420
    47827
370
    35
100
AcDbVertex
100
AcDb2dVertex
 10
2.438889397515191
 20
16.89861043294278
 30
0.0
  0
VERTEX
  5
2B0
330
2AB
100
AcDbEntity
  8
Silkscreen
 62
   132
420
    47827
370
    35
100
AcDbVertex
100
AcDb2dVertex
 10
2.450000339084214
 20
16.87638854980472
 30
0.0
  0
VERTEX
  5
2B1
330
2AB
100
AcDbEntity
  8
Silkscreen
 62
   132
420
    47827
370
    35
100
AcDbVertex
100
AcDb2dVertex
 10
2.468055725097656
 20
16.85833401150181
 30
0.0
  0
VERTEX
  5
2B2
330
2AB
100
AcDbEntity
  8
Silkscreen
 62
   132
420
    47827
370
    35
100
AcDbVertex
100
AcDb2dVertex
 10
2.49027845594618
 20
16.84722222222222
 30
0.0
  0
VERTEX
  5
2B3
330
2AB
100
AcDbEntity
  8
Silkscreen
 62
   132
420
    47827
370
    35
100
AcDbVertex
100
AcDb2dVertex
 10
2.51527828640408
 20
16.84305487738723
 30
0.0
  0
VERTEX
  5
2B4
330
2AB
100
AcDbEntity
  8
Silkscreen
 62
   132
420
    47827
370
    35
100
AcDbVertex
100
AcDb2dVertex
 10
2.527777777777778
 20
16.84305487738723
 30
0.0
  0
VERTEX
  5
2B5
330
2AB
100
AcDbEntity
  8
Silkscreen
 62
   132
420
    47827
370
    35
100
AcDbVertex
100
AcDb2dVertex
 10
2.533333672417547
 20
16.83194478352861
 30
0.0
  0
VERTEX
  5
2B6
330
2AB
100
AcDbEntity
  8
Silkscreen
 62
   132
420
    47827
370
    35
100
AcDbVertex
100
AcDb2dVertex
 10
2.552777608235677
 20
16.8125
 30
0.0
  0
VERTEX
  5
2B7
330
2AB
100
AcDbEntity
  8
Silkscreen
 62
   132
420
    47827
370
    35
100
AcDbVertex
100
AcDb2dVertex
 10
2.57777828640408
 20
16.8000013563368
 30
0.0
  0
VERTEX
  5
2B8
330
2AB
100
AcDbEntity
  8
Silkscreen
 62
   132
420
    47827
370
    35
100
AcDbVertex
100
AcDb2dVertex
 10
2.605556064181858
 20
16.79583401150181
 30
0.0
  0
VERTEX
  5
2B9
330
2AB
100
AcDbEntity
  8
Silkscreen
 62
   132
420
    47827
370
    35
100
AcDbVertex
100
AcDb2dVertex
 10
2.859722561306436
 20
16.79583401150181
 30
0.0
  0
VERTEX
  5
2BA
330
2AB
100
AcDbEntity
  8
Silkscreen
 62
   132
420
    47827
370
    35
100
AcDbVertex
100
AcDb2dVertex
 10
2.887500339084214
 20
16.8000013563368
 30
0.0
  0
VERTEX
  5
2BB
330
2AB
100
AcDbEntity
  8
Silkscreen
 62
   132
420
    47827
370
    35
100
AcDbVertex
100
AcDb2dVertex
 10
2.9125001695421
 20
16.8125
 30
0.0
  0
VERTEX
  5
2BC
330
2AB
100
AcDbEntity
  8
Silkscreen
 62
   132
420
    47827
370
    35
100
AcDbVertex
100
AcDb2dVertex
 10
2.931944953070746
 20
16.83194478352861
 30
0.0
  0
VERTEX
  5
2BD
330
2AB
100
AcDbEntity
  8
Silkscreen
 62
   132
420
    47827
370
    35
100
AcDbVertex
100
AcDb2dVertex
 10
2.9375
 20
16.84305487738723
 30
0.0
  0
VERTEX
  5
2BE
330
2AB
100
AcDbEntity
  8
Silkscreen
 62
   132
420
    47827
370
    35
100
AcDbVertex
100
AcDb2dVertex
 10
5.538932800292969
 20
16.84305487738723
 30
0.0
  0
VERTEX
  5
2BF
330
2AB
100
AcDbEntity
  8
Silkscreen
 62
   132
420
    47827
370
    35
100
AcDbVertex
100
AcDb2dVertex
 10
5.538932800292969
 20
16.67916531032986
 30
0.0
  0
VERTEX
  5
2C0
330
2AB
100
AcDbEntity
  8
Silkscreen
 62
   132
420
    47827
370
    35
100
AcDbVertex
100
AcDb2dVertex
 10
2.9375
 20
16.67916531032986
 30
0.0
  0
VERTEX
  5
2C1
330
2AB
100
AcDbEntity
  8
Silkscreen
 62
   132
420
    47827
370
    35
100
AcDbVertex
100
AcDb2dVertex
 10
2.931944953070746
 20
16.69027709960945
 30
0.0
  0
VERTEX
  5
2C2
330
2AB
100
AcDbEntity
  8
Silkscreen
 62
   132
420
    47827
370
    35
100
AcDbVertex
100
AcDb2dVertex
 10
2.9125001695421
 20
16.70972018771709
 30
0.0
  0
VERTEX
  5
2C3
330
2AB
100
AcDbEntity
  8
Silkscreen
 62
   132
420
    47827
370
    35
100
AcDbVertex
100
AcDb2dVertex
 10
2.887500339084214
 20
16.72222052680125
 30
0.0
  0
VERTEX
  5
2C4
330
2AB
100
AcDbEntity
  8
Silkscreen
 62
   132
420
    47827
370
    35
100
AcDbVertex
100
AcDb2dVertex
 10
2.859722561306436
 20
16.72638617621528
 30
0.0
  0
VERTEX
  5
2C5
330
2AB
100
AcDbEntity
  8
Silkscreen
 62
   132
420
    47827
370
    35
100
AcDbVertex
100
AcDb2dVertex
 10
2.605556064181858
 20
16.72638617621528
 30
0.0
  0
VERTEX
  5
2C6
330
2AB
100
AcDbEntity
  8
Silkscreen
 62
   132
420
    47827
370
    35
100
AcDbVertex
100
AcDb2dVertex
 10
2.57777828640408
 20
16.72222052680125
 30
0.0
  0
VERTEX
  5
2C7
330
2AB
100
AcDbEntity
  8
Silkscreen
 62
   132
420
    47827
370
    35
100
AcDbVertex
100
AcDb2dVertex
 10
2.552777608235677
 20
16.70972018771709
 30
0.0
  0
VERTEX
  5
2C8
330
2AB
100
AcDbEntity
  8
Silkscreen
 62
   132
420
    47827
370
    35
100
AcDbVertex
100
AcDb2dVertex
 10
2.533333672417547
 20
16.69027709960945
 30
0.0
  0
VERTEX
  5
2C9
330
2AB
100
AcDbEntity
  8
Silkscreen
 62
   132
420
    47827
370
    35
100
AcDbVertex
100
AcDb2dVertex
 10
2.527777777777778
 20
16.67916531032986
 30
0.0
  0
VERTEX
  5
2CA
330
2AB
100
AcDbEntity
  8
Silkscreen
 62
   132
420
    47827
370
    35
100
AcDbVertex
100
AcDb2dVertex
 10
2.51527828640408
 20
16.67916531032986
 30
0.0
  0
VERTEX
  5
2CB
330
2AB
100
AcDbEntity
  8
Silkscreen
 62
   132
420
    47827
370
    35
100
AcDbVertex
100
AcDb2dVertex
 10
2.49027845594618
 20
16.67499796549487
 30
0.0
  0
VERTEX
  5
2CC
330
2AB
100
AcDbEntity
  8
Silkscreen
 62
   132
420
    47827
370
    35
100
AcDbVertex
100
AcDb2dVertex
 10
2.468055725097656
 20
16.66388787163624
 30
0.0
  0
VERTEX
  5
2CD
330
2AB
100
AcDbEntity
  8
Silkscreen
 62
   132
420
    47827
370
    35
100
AcDbVertex
100
AcDb2dVertex
 10
2.450000339084214
 20
16.64583333333333
 30
0.0
  0
VERTEX
  5
2CE
330
2AB
100
AcDbEntity
  8
Silkscreen
 62
   132
420
    47827
370
    35
100
AcDbVertex
100
AcDb2dVertex
 10
2.438889397515191
 20
16.6236097547743
 30
0.0
  0
VERTEX
  5
2CF
330
2AB
100
AcDbEntity
  8
Silkscreen
 62
   132
420
    47827
370
    35
100
AcDbVertex
100
AcDb2dVertex
 10
2.434722052680121
 20
16.59861077202695
 30
0.0
  0
VERTEX
  5
2D0
330
2AB
100
AcDbEntity
  8
Silkscreen
 62
   132
420
    47827
370
    35
100
AcDbVertex
100
AcDb2dVertex
 10
2.434722052680121
 20
16.38194444444444
 30
0.0
  0
VERTEX
  5
2D1
330
2AB
100
AcDbEntity
  8
Silkscreen
 62
   132
420
    47827
370
    35
100
AcDbVertex
100
AcDb2dVertex
 10
2.375
 20
16.38194444444444
 30
0.0
  0
VERTEX
  5
2D2
330
2AB
100
AcDbEntity
  8
Silkscreen
 62
   132
420
    47827
370
    35
100
AcDbVertex
100
AcDb2dVertex
 10
2.375
 20
17.13749864366319
 30
0.0
  0
SEQEND
  5
2D3
330
2AB
100
AcDbEntity
  8
Silkscreen
 62
   132
420
    47827
370
    35
  0
POLYLINE
  5
2D4
330
42
100
AcDbEntity
  8
Silkscreen
 62
   132
420
    47827
370
    35
100
AcDb2dPolyline
 66
     1
 10
0.0
 20
0.0
 30
0.0
  0
VERTEX
  5
2D5
330
2D4
100
AcDbEntity
  8
Silkscreen
 62
   132
420
    47827
370
    35
100
AcDbVertex
100
AcDb2dVertex
 10
2.122222052680121
 20
15.92777506510417
 30
0.0
  0
VERTEX
  5
2D6
330
2D4
100
AcDbEntity
  8
Silkscreen
 62
   132
420
    47827
370
    35
100
AcDbVertex
100
AcDb2dVertex
 10
2.375
 20
15.92777506510417
 30
0.0
  0
VERTEX
  5
2D7
330
2D4
100
AcDbEntity
  8
Silkscreen
 62
   132
420
    47827
370
    35
100
AcDbVertex
100
AcDb2dVertex
 10
2.375
 20
16.22499932183167
 30
0.0
  0
VERTEX
  5
2D8
330
2D4
100
AcDbEntity
  8
Silkscreen
 62
   132
420
    47827
370
    35
100
AcDbVertex
100
AcDb2dVertex
 10
2.434722052680121
 20
16.22499932183167
 30
0.0
  0
VERTEX
  5
2D9
330
2D4
100
AcDbEntity
  8
Silkscreen
 62
   132
420
    47827
370
    35
100
AcDbVertex
100
AcDb2dVertex
 10
2.434722052680121
 20
16.00833299424917
 30
0.0
  0
VERTEX
  5
2DA
330
2D4
100
AcDbEntity
  8
Silkscreen
 62
   132
420
    47827
370
    35
100
AcDbVertex
100
AcDb2dVertex
 10
2.438889397515191
 20
15.98472086588542
 30
0.0
  0
VERTEX
  5
2DB
330
2D4
100
AcDbEntity
  8
Silkscreen
 62
   132
420
    47827
370
    35
100
AcDbVertex
100
AcDb2dVertex
 10
2.450000339084214
 20
15.96250067816848
 30
0.0
  0
VERTEX
  5
2DC
330
2D4
100
AcDbEntity
  8
Silkscreen
 62
   132
420
    47827
370
    35
100
AcDbVertex
100
AcDb2dVertex
 10
2.468055725097656
 20
15.94444444444444
 30
0.0
  0
VERTEX
  5
2DD
330
2D4
100
AcDbEntity
  8
Silkscreen
 62
   132
420
    47827
370
    35
100
AcDbVertex
100
AcDb2dVertex
 10
2.49027845594618
 20
15.933332655165
 30
0.0
  0
VERTEX
  5
2DE
330
2D4
100
AcDbEntity
  8
Silkscreen
 62
   132
420
    47827
370
    35
100
AcDbVertex
100
AcDb2dVertex
 10
2.51527828640408
 20
15.92916700575083
 30
0.0
  0
VERTEX
  5
2DF
330
2D4
100
AcDbEntity
  8
Silkscreen
 62
   132
420
    47827
370
    35
100
AcDbVertex
100
AcDb2dVertex
 10
2.527777777777778
 20
15.92916700575083
 30
0.0
  0
VERTEX
  5
2E0
330
2D4
100
AcDbEntity
  8
Silkscreen
 62
   132
420
    47827
370
    35
100
AcDbVertex
100
AcDb2dVertex
 10
2.533333672417547
 20
15.91805691189236
 30
0.0
  0
VERTEX
  5
2E1
330
2D4
100
AcDbEntity
  8
Silkscreen
 62
   132
420
    47827
370
    35
100
AcDbVertex
100
AcDb2dVertex
 10
2.552777608235677
 20
15.89861043294278
 30
0.0
  0
VERTEX
  5
2E2
330
2D4
100
AcDbEntity
  8
Silkscreen
 62
   132
420
    47827
370
    35
100
AcDbVertex
100
AcDb2dVertex
 10
2.57777828640408
 20
15.88611178927959
 30
0.0
  0
VERTEX
  5
2E3
330
2D4
100
AcDbEntity
  8
Silkscreen
 62
   132
420
    47827
370
    35
100
AcDbVertex
100
AcDb2dVertex
 10
2.605556064181858
 20
15.88194444444444
 30
0.0
  0
VERTEX
  5
2E4
330
2D4
100
AcDbEntity
  8
Silkscreen
 62
   132
420
    47827
370
    35
100
AcDbVertex
100
AcDb2dVertex
 10
2.859722561306436
 20
15.88194444444444
 30
0.0
  0
VERTEX
  5
2E5
330
2D4
100
AcDbEntity
  8
Silkscreen
 62
   132
420
    47827
370
    35
100
AcDbVertex
100
AcDb2dVertex
 10
2.887500339084214
 20
15.88611178927959
 30
0.0
  0
VERTEX
  5
2E6
330
2D4
100
AcDbEntity
  8
Silkscreen
 62
   132
420
    47827
370
    35
100
AcDbVertex
100
AcDb2dVertex
 10
2.9125001695421
 20
15.89861043294278
 30
0.0
  0
VERTEX
  5
2E7
330
2D4
100
AcDbEntity
  8
Silkscreen
 62
   132
420
    47827
370
    35
100
AcDbVertex
100
AcDb2dVertex
 10
2.931944953070746
 20
15.91805691189236
 30
0.0
  0
VERTEX
  5
2E8
330
2D4
100
AcDbEntity
  8
Silkscreen
 62
   132
420
    47827
370
    35
100
AcDbVertex
100
AcDb2dVertex
 10
2.9375
 20
15.92916700575083
 30
0.0
  0
VERTEX
  5
2E9
330
2D4
100
AcDbEntity
  8
Silkscreen
 62
   132
420
    47827
370
    35
100
AcDbVertex
100
AcDb2dVertex
 10
5.538932800292969
 20
15.92916700575083
 30
0.0
  0
VERTEX
  5
2EA
330
2D4
100
AcDbEntity
  8
Silkscreen
 62
   132
420
    47827
370
    35
100
AcDbVertex
100
AcDb2dVertex
 10
5.538932800292969
 20
15.77222018771709
 30
0.0
  0
VERTEX
  5
2EB
330
2D4
100
AcDbEntity
  8
Silkscreen
 62
   132
420
    47827
370
    35
100
AcDbVertex
100
AcDb2dVertex
 10
2.683333502875434
 20
15.77222018771709
 30
0.0
  0
VERTEX
  5
2EC
330
2D4
100
AcDbEntity
  8
Silkscreen
 62
   132
420
    47827
370
    35
100
AcDbVertex
100
AcDb2dVertex
 10
2.677777608235677
 20
15.78333197699653
 30
0.0
  0
VERTEX
  5
2ED
330
2D4
100
AcDbEntity
  8
Silkscreen
 62
   132
420
    47827
370
    35
100
AcDbVertex
100
AcDb2dVertex
 10
2.658333672417547
 20
15.80277676052513
 30
0.0
  0
VERTEX
  5
2EE
330
2D4
100
AcDbEntity
  8
Silkscreen
 62
   132
420
    47827
370
    35
100
AcDbVertex
100
AcDb2dVertex
 10
2.633333841959635
 20
15.81527709960945
 30
0.0
  0
VERTEX
  5
2EF
330
2D4
100
AcDbEntity
  8
Silkscreen
 62
   132
420
    47827
370
    35
100
AcDbVertex
100
AcDb2dVertex
 10
2.605556064181858
 20
15.81944444444444
 30
0.0
  0
VERTEX
  5
2F0
330
2D4
100
AcDbEntity
  8
Silkscreen
 62
   132
420
    47827
370
    35
100
AcDbVertex
100
AcDb2dVertex
 10
2.351388719346788
 20
15.81944444444444
 30
0.0
  0
VERTEX
  5
2F1
330
2D4
100
AcDbEntity
  8
Silkscreen
 62
   132
420
    47827
370
    35
100
AcDbVertex
100
AcDb2dVertex
 10
2.32361094156901
 20
15.81527709960945
 30
0.0
  0
VERTEX
  5
2F2
330
2D4
100
AcDbEntity
  8
Silkscreen
 62
   132
420
    47827
370
    35
100
AcDbVertex
100
AcDb2dVertex
 10
2.298611111111111
 20
15.80277676052513
 30
0.0
  0
VERTEX
  5
2F3
330
2D4
100
AcDbEntity
  8
Silkscreen
 62
   132
420
    47827
370
    35
100
AcDbVertex
100
AcDb2dVertex
 10
2.279167175292969
 20
15.78333197699653
 30
0.0
  0
VERTEX
  5
2F4
330
2D4
100
AcDbEntity
  8
Silkscreen
 62
   132
420
    47827
370
    35
100
AcDbVertex
100
AcDb2dVertex
 10
2.273611280653212
 20
15.77222018771709
 30
0.0
  0
VERTEX
  5
2F5
330
2D4
100
AcDbEntity
  8
Silkscreen
 62
   132
420
    47827
370
    35
100
AcDbVertex
100
AcDb2dVertex
 10
2.261111789279514
 20
15.77222018771709
 30
0.0
  0
VERTEX
  5
2F6
330
2D4
100
AcDbEntity
  8
Silkscreen
 62
   132
420
    47827
370
    35
100
AcDbVertex
100
AcDb2dVertex
 10
2.237500508626302
 20
15.76805453830291
 30
0.0
  0
VERTEX
  5
2F7
330
2D4
100
AcDbEntity
  8
Silkscreen
 62
   132
420
    47827
370
    35
100
AcDbVertex
100
AcDb2dVertex
 10
2.215277777777778
 20
15.75694444444444
 30
0.0
  0
VERTEX
  5
2F8
330
2D4
100
AcDbEntity
  8
Silkscreen
 62
   132
420
    47827
370
    35
100
AcDbVertex
100
AcDb2dVertex
 10
2.197222391764323
 20
15.73888821072056
 30
0.0
  0
VERTEX
  5
2F9
330
2D4
100
AcDbEntity
  8
Silkscreen
 62
   132
420
    47827
370
    35
100
AcDbVertex
100
AcDb2dVertex
 10
2.186111450195325
 20
15.7166663275825
 30
0.0
  0
VERTEX
  5
2FA
330
2D4
100
AcDbEntity
  8
Silkscreen
 62
   132
420
    47827
370
    35
100
AcDbVertex
100
AcDb2dVertex
 10
2.181944953070746
 20
15.69305419921875
 30
0.0
  0
VERTEX
  5
2FB
330
2D4
100
AcDbEntity
  8
Silkscreen
 62
   132
420
    47827
370
    35
100
AcDbVertex
100
AcDb2dVertex
 10
2.181944953070746
 20
15.47360907660598
 30
0.0
  0
VERTEX
  5
2FC
330
2D4
100
AcDbEntity
  8
Silkscreen
 62
   132
420
    47827
370
    35
100
AcDbVertex
100
AcDb2dVertex
 10
2.122222052680121
 20
15.47360907660598
 30
0.0
  0
VERTEX
  5
2FD
330
2D4
100
AcDbEntity
  8
Silkscreen
 62
   132
420
    47827
370
    35
100
AcDbVertex
100
AcDb2dVertex
 10
2.122222052680121
 20
15.92777506510417
 30
0.0
  0
SEQEND
  5
2FE
330
2D4
100
AcDbEntity
  8
Silkscreen
 62
   132
420
    47827
370
    35
  0
POLYLINE
  5
2FF
330
42
100
AcDbEntity
  8
Silkscreen
 62
   132
420
    47827
370
    35
100
AcDb2dPolyline
 66
     1
 10
0.0
 20
0.0
 30
0.0
  0
VERTEX
  5
300
330
2FF
100
AcDbEntity
  8
Silkscreen
 62
   132
420
    47827
370
    35
100
AcDbVertex
100
AcDb2dVertex
 10
2.122222052680121
 20
15.31666395399306
 30
0.0
  0
VERTEX
  5
301
330
2FF
100
AcDbEntity
  8
Silkscreen
 62
   132
420
    47827
370
    35
100
AcDbVertex
100
AcDb2dVertex
 10
2.181944953070746
 20
15.31666395399306
 30
0.0
  0
VERTEX
  5
302
330
2FF
100
AcDbEntity
  8
Silkscreen
 62
   132
420
    47827
370
    35
100
AcDbVertex
100
AcDb2dVertex
 10
2.181944953070746
 20
15.10277642144097
 30
0.0
  0
VERTEX
  5
303
330
2FF
100
AcDbEntity
  8
Silkscreen
 62
   132
420
    47827
370
    35
100
AcDbVertex
100
AcDb2dVertex
 10
2.186111450195325
 20
15.07916598849834
 30
0.0
  0
VERTEX
  5
304
330
2FF
100
AcDbEntity
  8
Silkscreen
 62
   132
420
    47827
370
    35
100
AcDbVertex
100
AcDb2dVertex
 10
2.197222391764323
 20
15.05694410536028
 30
0.0
  0
VERTEX
  5
305
330
2FF
100
AcDbEntity
  8
Silkscreen
 62
   132
420
    47827
370
    35
100
AcDbVertex
100
AcDb2dVertex
 10
2.215277777777778
 20
15.03888956705737
 30
0.0
  0
VERTEX
  5
306
330
2FF
100
AcDbEntity
  8
Silkscreen
 62
   132
420
    47827
370
    35
100
AcDbVertex
100
AcDb2dVertex
 10
2.237500508626302
 20
15.02777777777778
 30
0.0
  0
VERTEX
  5
307
330
2FF
100
AcDbEntity
  8
Silkscreen
 62
   132
420
    47827
370
    35
100
AcDbVertex
100
AcDb2dVertex
 10
2.261111789279514
 20
15.02361043294278
 30
0.0
  0
VERTEX
  5
308
330
2FF
100
AcDbEntity
  8
Silkscreen
 62
   132
420
    47827
370
    35
100
AcDbVertex
100
AcDb2dVertex
 10
2.273611280653212
 20
15.02361043294278
 30
0.0
  0
VERTEX
  5
309
330
2FF
100
AcDbEntity
  8
Silkscreen
 62
   132
420
    47827
370
    35
100
AcDbVertex
100
AcDb2dVertex
 10
2.279167175292969
 20
15.01250033908416
 30
0.0
  0
VERTEX
  5
30A
330
2FF
100
AcDbEntity
  8
Silkscreen
 62
   132
420
    47827
370
    35
100
AcDbVertex
100
AcDb2dVertex
 10
2.298611111111111
 20
14.99305555555556
 30
0.0
  0
VERTEX
  5
30B
330
2FF
100
AcDbEntity
  8
Silkscreen
 62
   132
420
    47827
370
    35
100
AcDbVertex
100
AcDb2dVertex
 10
2.32361094156901
 20
14.98055521647139
 30
0.0
  0
VERTEX
  5
30C
330
2FF
100
AcDbEntity
  8
Silkscreen
 62
   132
420
    47827
370
    35
100
AcDbVertex
100
AcDb2dVertex
 10
2.351388719346788
 20
14.97638956705737
 30
0.0
  0
VERTEX
  5
30D
330
2FF
100
AcDbEntity
  8
Silkscreen
 62
   132
420
    47827
370
    35
100
AcDbVertex
100
AcDb2dVertex
 10
2.605556064181858
 20
14.97638956705737
 30
0.0
  0
VERTEX
  5
30E
330
2FF
100
AcDbEntity
  8
Silkscreen
 62
   132
420
    47827
370
    35
100
AcDbVertex
100
AcDb2dVertex
 10
2.633333841959635
 20
14.98055521647139
 30
0.0
  0
VERTEX
  5
30F
330
2FF
100
AcDbEntity
  8
Silkscreen
 62
   132
420
    47827
370
    35
100
AcDbVertex
100
AcDb2dVertex
 10
2.658333672417547
 20
14.99305555555556
 30
0.0
  0
VERTEX
  5
310
330
2FF
100
AcDbEntity
  8
Silkscreen
 62
   132
420
    47827
370
    35
100
AcDbVertex
100
AcDb2dVertex
 10
2.677777608235677
 20
15.01250033908416
 30
0.0
  0
VERTEX
  5
311
330
2FF
100
AcDbEntity
  8
Silkscreen
 62
   132
420
    47827
370
    35
100
AcDbVertex
100
AcDb2dVertex
 10
2.683333502875434
 20
15.02361043294278
 30
0.0
  0
VERTEX
  5
312
330
2FF
100
AcDbEntity
  8
Silkscreen
 62
   132
420
    47827
370
    35
100
AcDbVertex
100
AcDb2dVertex
 10
5.538932800292969
 20
15.02361043294278
 30
0.0
  0
VERTEX
  5
313
330
2FF
100
AcDbEntity
  8
Silkscreen
 62
   132
420
    47827
370
    35
100
AcDbVertex
100
AcDb2dVertex
 10
5.538932800292969
 20
14.90833197699653
 30
0.0
  0
VERTEX
  5
314
330
2FF
100
AcDbEntity
  8
Silkscreen
 62
   132
420
    47827
370
    35
100
AcDbVertex
100
AcDb2dVertex
 10
3.237500508626302
 20
14.90833197699653
 30
0.0
  0
VERTEX
  5
315
330
2FF
100
AcDbEntity
  8
Silkscreen
 62
   132
420
    47827
370
    35
100
AcDbVertex
100
AcDb2dVertex
 10
3.231944613986545
 20
14.91944376627612
 30
0.0
  0
VERTEX
  5
316
330
2FF
100
AcDbEntity
  8
Silkscreen
 62
   132
420
    47827
370
    35
100
AcDbVertex
100
AcDb2dVertex
 10
3.212500678168403
 20
14.93888685438375
 30
0.0
  0
VERTEX
  5
317
330
2FF
100
AcDbEntity
  8
Silkscreen
 62
   132
420
    47827
370
    35
100
AcDbVertex
100
AcDb2dVertex
 10
3.1875
 20
14.95138888888889
 30
0.0
  0
VERTEX
  5
318
330
2FF
100
AcDbEntity
  8
Silkscreen
 62
   132
420
    47827
370
    35
100
AcDbVertex
100
AcDb2dVertex
 10
3.159722222222222
 20
14.95555453830291
 30
0.0
  0
VERTEX
  5
319
330
2FF
100
AcDbEntity
  8
Silkscreen
 62
   132
420
    47827
370
    35
100
AcDbVertex
100
AcDb2dVertex
 10
2.905555725097656
 20
14.95555453830291
 30
0.0
  0
VERTEX
  5
31A
330
2FF
100
AcDbEntity
  8
Silkscreen
 62
   132
420
    47827
370
    35
100
AcDbVertex
100
AcDb2dVertex
 10
2.877777947319878
 20
14.95138888888889
 30
0.0
  0
VERTEX
  5
31B
330
2FF
100
AcDbEntity
  8
Silkscreen
 62
   132
420
    47827
370
    35
100
AcDbVertex
100
AcDb2dVertex
 10
2.852778116861991
 20
14.93888685438375
 30
0.0
  0
VERTEX
  5
31C
330
2FF
100
AcDbEntity
  8
Silkscreen
 62
   132
420
    47827
370
    35
100
AcDbVertex
100
AcDb2dVertex
 10
2.833333333333333
 20
14.91944376627612
 30
0.0
  0
VERTEX
  5
31D
330
2FF
100
AcDbEntity
  8
Silkscreen
 62
   132
420
    47827
370
    35
100
AcDbVertex
100
AcDb2dVertex
 10
2.82777828640408
 20
14.90833197699653
 30
0.0
  0
VERTEX
  5
31E
330
2FF
100
AcDbEntity
  8
Silkscreen
 62
   132
420
    47827
370
    35
100
AcDbVertex
100
AcDb2dVertex
 10
2.815277947319878
 20
14.90833197699653
 30
0.0
  0
VERTEX
  5
31F
330
2FF
100
AcDbEntity
  8
Silkscreen
 62
   132
420
    47827
370
    35
100
AcDbVertex
100
AcDb2dVertex
 10
2.79166751437717
 20
14.90416463216153
 30
0.0
  0
VERTEX
  5
320
330
2FF
100
AcDbEntity
  8
Silkscreen
 62
   132
420
    47827
370
    35
100
AcDbVertex
100
AcDb2dVertex
 10
2.769444783528658
 20
14.89305453830291
 30
0.0
  0
VERTEX
  5
321
330
2FF
100
AcDbEntity
  8
Silkscreen
 62
   132
420
    47827
370
    35
100
AcDbVertex
100
AcDb2dVertex
 10
2.751389397515191
 20
14.875
 30
0.0
  0
VERTEX
  5
322
330
2FF
100
AcDbEntity
  8
Silkscreen
 62
   132
420
    47827
370
    35
100
AcDbVertex
100
AcDb2dVertex
 10
2.74027845594618
 20
14.85277642144097
 30
0.0
  0
VERTEX
  5
323
330
2FF
100
AcDbEntity
  8
Silkscreen
 62
   132
420
    47827
370
    35
100
AcDbVertex
100
AcDb2dVertex
 10
2.736111111111111
 20
14.82777743869361
 30
0.0
  0
VERTEX
  5
324
330
2FF
100
AcDbEntity
  8
Silkscreen
 62
   132
420
    47827
370
    35
100
AcDbVertex
100
AcDb2dVertex
 10
2.736111111111111
 20
14.60972086588542
 30
0.0
  0
VERTEX
  5
325
330
2FF
100
AcDbEntity
  8
Silkscreen
 62
   132
420
    47827
370
    35
100
AcDbVertex
100
AcDb2dVertex
 10
2.674999660915811
 20
14.60972086588542
 30
0.0
  0
VERTEX
  5
326
330
2FF
100
AcDbEntity
  8
Silkscreen
 62
   132
420
    47827
370
    35
100
AcDbVertex
100
AcDb2dVertex
 10
2.674999660915811
 20
14.90555487738723
 30
0.0
  0
VERTEX
  5
327
330
2FF
100
AcDbEntity
  8
Silkscreen
 62
   132
420
    47827
370
    35
100
AcDbVertex
100
AcDb2dVertex
 10
2.122222052680121
 20
14.90555487738723
 30
0.0
  0
VERTEX
  5
328
330
2FF
100
AcDbEntity
  8
Silkscreen
 62
   132
420
    47827
370
    35
100
AcDbVertex
100
AcDb2dVertex
 10
2.122222052680121
 20
15.31666395399306
 30
0.0
  0
SEQEND
  5
329
330
2FF
100
AcDbEntity
  8
Silkscreen
 62
   132
420
    47827
370
    35
  0
POLYLINE
  5
32A
330
42
100
AcDbEntity
  8
Silkscreen
 62
   132
420
    47827
370
    35
100
AcDb2dPolyline
 66
     1
 10
0.0
 20
0.0
 30
0.0
  0
VERTEX
  5
32B
330
32A
100
AcDbEntity
  8
Silkscreen
 62
   132
420
    47827
370
    35
100
AcDbVertex
100
AcDb2dVertex
 10
2.148611280653212
 20
13.13194359673394
 30
0.0
  0
VERTEX
  5
32C
330
32A
100
AcDbEntity
  8
Silkscreen
 62
   132
420
    47827
370
    35
100
AcDbVertex
100
AcDb2dVertex
 10
2.148611280653212
 20
13.23472171359592
 30
0.0
  0
VERTEX
  5
32D
330
32A
100
AcDbEntity
  8
Silkscreen
 62
   132
420
    47827
370
    35
100
AcDbVertex
100
AcDb2dVertex
 10
2.211111280653212
 20
13.23472171359592
 30
0.0
  0
VERTEX
  5
32E
330
32A
100
AcDbEntity
  8
Silkscreen
 62
   132
420
    47827
370
    35
100
AcDbVertex
100
AcDb2dVertex
 10
2.211111280653212
 20
13.19722154405382
 30
0.0
  0
VERTEX
  5
32F
330
32A
100
AcDbEntity
  8
Silkscreen
 62
   132
420
    47827
370
    35
100
AcDbVertex
100
AcDb2dVertex
 10
2.250481499565972
 20
13.19722154405382
 30
0.0
  0
VERTEX
  5
330
330
32A
100
AcDbEntity
  8
Silkscreen
 62
   132
420
    47827
370
    35
100
AcDbVertex
100
AcDb2dVertex
 10
2.250481499565972
 20
13.23472171359592
 30
0.0
  0
VERTEX
  5
331
330
32A
100
AcDbEntity
  8
Silkscreen
 62
   132
420
    47827
370
    35
100
AcDbVertex
100
AcDb2dVertex
 10
2.368537055121528
 20
13.23472171359592
 30
0.0
  0
VERTEX
  5
332
330
32A
100
AcDbEntity
  8
Silkscreen
 62
   132
420
    47827
370
    35
100
AcDbVertex
100
AcDb2dVertex
 10
2.368537055121528
 20
13.19722154405382
 30
0.0
  0
VERTEX
  5
333
330
32A
100
AcDbEntity
  8
Silkscreen
 62
   132
420
    47827
370
    35
100
AcDbVertex
100
AcDb2dVertex
 10
5.538932800292969
 20
13.19722154405382
 30
0.0
  0
VERTEX
  5
334
330
32A
100
AcDbEntity
  8
Silkscreen
 62
   132
420
    47827
370
    35
100
AcDbVertex
100
AcDb2dVertex
 10
5.538932800292969
 20
13.13333299424913
 30
0.0
  0
VERTEX
  5
335
330
32A
100
AcDbEntity
  8
Silkscreen
 62
   132
420
    47827
370
    35
100
AcDbVertex
100
AcDb2dVertex
 10
3.025481330023871
 20
13.13333299424913
 30
0.0
  0
VERTEX
  5
336
330
32A
100
AcDbEntity
  8
Silkscreen
 62
   132
420
    47827
370
    35
100
AcDbVertex
100
AcDb2dVertex
 10
3.025481330023871
 20
13.09305572509766
 30
0.0
  0
VERTEX
  5
337
330
32A
100
AcDbEntity
  8
Silkscreen
 62
   132
420
    47827
370
    35
100
AcDbVertex
100
AcDb2dVertex
 10
2.907425774468316
 20
13.09305572509766
 30
0.0
  0
VERTEX
  5
338
330
32A
100
AcDbEntity
  8
Silkscreen
 62
   132
420
    47827
370
    35
100
AcDbVertex
100
AcDb2dVertex
 10
2.907425774468316
 20
13.13333299424913
 30
0.0
  0
VERTEX
  5
339
330
32A
100
AcDbEntity
  8
Silkscreen
 62
   132
420
    47827
370
    35
100
AcDbVertex
100
AcDb2dVertex
 10
2.868055555555555
 20
13.13333299424913
 30
0.0
  0
VERTEX
  5
33A
330
32A
100
AcDbEntity
  8
Silkscreen
 62
   132
420
    47827
370
    35
100
AcDbVertex
100
AcDb2dVertex
 10
2.868055555555555
 20
13.09305487738715
 30
0.0
  0
VERTEX
  5
33B
330
32A
100
AcDbEntity
  8
Silkscreen
 62
   132
420
    47827
370
    35
100
AcDbVertex
100
AcDb2dVertex
 10
2.804167005750881
 20
13.09305487738715
 30
0.0
  0
VERTEX
  5
33C
330
32A
100
AcDbEntity
  8
Silkscreen
 62
   132
420
    47827
370
    35
100
AcDbVertex
100
AcDb2dVertex
 10
2.804167005750881
 20
13.13194359673394
 30
0.0
  0
VERTEX
  5
33D
330
32A
100
AcDbEntity
  8
Silkscreen
 62
   132
420
    47827
370
    35
100
AcDbVertex
100
AcDb2dVertex
 10
2.148611280653212
 20
13.13194359673394
 30
0.0
  0
SEQEND
  5
33E
330
32A
100
AcDbEntity
  8
Silkscreen
 62
   132
420
    47827
370
    35
  0
POLYLINE
  5
33F
330
42
100
AcDbEntity
  8
Silkscreen
 62
   132
420
    47827
370
    35
100
AcDb2dPolyline
 66
     1
 10
0.0
 20
0.0
 30
0.0
  0
VERTEX
  5
340
330
33F
100
AcDbEntity
  8
Silkscreen
 62
   132
420
    47827
370
    35
100
AcDbVertex
100
AcDb2dVertex
 10
2.805556403266059
 20
12.53472137451172
 30
0.0
  0
VERTEX
  5
341
330
33F
100
AcDbEntity
  8
Silkscreen
 62
   132
420
    47827
370
    35
100
AcDbVertex
100
AcDb2dVertex
 10
2.805556403266059
 20
12.6374994913737
 30
0.0
  0
VERTEX
  5
342
330
33F
100
AcDbEntity
  8
Silkscreen
 62
   132
420
    47827
370
    35
100
AcDbVertex
100
AcDb2dVertex
 10
2.868055555555555
 20
12.6374994913737
 30
0.0
  0
VERTEX
  5
343
330
33F
100
AcDbEntity
  8
Silkscreen
 62
   132
420
    47827
370
    35
100
AcDbVertex
100
AcDb2dVertex
 10
2.868055555555555
 20
12.59722137451172
 30
0.0
  0
VERTEX
  5
344
330
33F
100
AcDbEntity
  8
Silkscreen
 62
   132
420
    47827
370
    35
100
AcDbVertex
100
AcDb2dVertex
 10
2.907425774468316
 20
12.59722137451172
 30
0.0
  0
VERTEX
  5
345
330
33F
100
AcDbEntity
  8
Silkscreen
 62
   132
420
    47827
370
    35
100
AcDbVertex
100
AcDb2dVertex
 10
2.907425774468316
 20
12.63472154405382
 30
0.0
  0
VERTEX
  5
346
330
33F
100
AcDbEntity
  8
Silkscreen
 62
   132
420
    47827
370
    35
100
AcDbVertex
100
AcDb2dVertex
 10
3.025481330023871
 20
12.63472154405382
 30
0.0
  0
VERTEX
  5
347
330
33F
100
AcDbEntity
  8
Silkscreen
 62
   132
420
    47827
370
    35
100
AcDbVertex
100
AcDb2dVertex
 10
3.025481330023871
 20
12.59722137451172
 30
0.0
  0
VERTEX
  5
348
330
33F
100
AcDbEntity
  8
Silkscreen
 62
   132
420
    47827
370
    35
100
AcDbVertex
100
AcDb2dVertex
 10
5.538932800292969
 20
12.59722137451172
 30
0.0
  0
VERTEX
  5
349
330
33F
100
AcDbEntity
  8
Silkscreen
 62
   132
420
    47827
370
    35
100
AcDbVertex
100
AcDb2dVertex
 10
5.538932800292969
 20
12.53472137451172
 30
0.0
  0
VERTEX
  5
34A
330
33F
100
AcDbEntity
  8
Silkscreen
 62
   132
420
    47827
370
    35
100
AcDbVertex
100
AcDb2dVertex
 10
2.805556403266059
 20
12.53472137451172
 30
0.0
  0
SEQEND
  5
34B
330
33F
100
AcDbEntity
  8
Silkscreen
 62
   132
420
    47827
370
    35
  0
POLYLINE
  5
34C
330
42
100
AcDbEntity
  8
Silkscreen
 62
   132
420
    47827
370
    35
100
AcDb2dPolyline
 66
     1
 10
0.0
 20
0.0
 30
0.0
  0
VERTEX
  5
34D
330
34C
100
AcDbEntity
  8
Silkscreen
 62
   132
420
    47827
370
    35
100
AcDbVertex
100
AcDb2dVertex
 10
5.695877075195325
 20
12.53472137451172
 30
0.0
  0
VERTEX
  5
34E
330
34C
100
AcDbEntity
  8
Silkscreen
 62
   132
420
    47827
370
    35
100
AcDbVertex
100
AcDb2dVertex
 10
5.695877075195325
 20
12.59722137451172
 30
0.0
  0
VERTEX
  5
34F
330
34C
100
AcDbEntity
  8
Silkscreen
 62
   132
420
    47827
370
    35
100
AcDbVertex
100
AcDb2dVertex
 10
10.78824361165364
 20
12.59722137451172
 30
0.0
  0
VERTEX
  5
350
330
34C
100
AcDbEntity
  8
Silkscreen
 62
   132
420
    47827
370
    35
100
AcDbVertex
100
AcDb2dVertex
 10
10.78824361165364
 20
12.53472137451172
 30
0.0
  0
VERTEX
  5
351
330
34C
100
AcDbEntity
  8
Silkscreen
 62
   132
420
    47827
370
    35
100
AcDbVertex
100
AcDb2dVertex
 10
5.695877075195325
 20
12.53472137451172
 30
0.0
  0
SEQEND
  5
352
330
34C
100
AcDbEntity
  8
Silkscreen
 62
   132
420
    47827
370
    35
  0
POLYLINE
  5
353
330
42
100
AcDbEntity
  8
Silkscreen
 62
   132
420
    47827
370
    35
100
AcDb2dPolyline
 66
     1
 10
0.0
 20
0.0
 30
0.0
  0
VERTEX
  5
354
330
353
100
AcDbEntity
  8
Silkscreen
 62
   132
420
    47827
370
    35
100
AcDbVertex
100
AcDb2dVertex
 10
13.68055640326606
 20
12.53472137451172
 30
0.0
  0
VERTEX
  5
355
330
353
100
AcDbEntity
  8
Silkscreen
 62
   132
420
    47827
370
    35
100
AcDbVertex
100
AcDb2dVertex
 10
10.94518788655599
 20
12.53472137451172
 30
0.0
  0
VERTEX
  5
356
330
353
100
AcDbEntity
  8
Silkscreen
 62
   132
420
    47827
370
    35
100
AcDbVertex
100
AcDb2dVertex
 10
10.94518788655599
 20
12.59722137451172
 30
0.0
  0
VERTEX
  5
357
330
353
100
AcDbEntity
  8
Silkscreen
 62
   132
420
    47827
370
    35
100
AcDbVertex
100
AcDb2dVertex
 10
13.45785268147786
 20
12.59722137451172
 30
0.0
  0
VERTEX
  5
358
330
353
100
AcDbEntity
  8
Silkscreen
 62
   132
420
    47827
370
    35
100
AcDbVertex
100
AcDb2dVertex
 10
13.45785268147786
 20
12.63472069634332
 30
0.0
  0
VERTEX
  5
359
330
353
100
AcDbEntity
  8
Silkscreen
 62
   132
420
    47827
370
    35
100
AcDbVertex
100
AcDb2dVertex
 10
13.57590823703342
 20
12.63472069634332
 30
0.0
  0
VERTEX
  5
35A
330
353
100
AcDbEntity
  8
Silkscreen
 62
   132
420
    47827
370
    35
100
AcDbVertex
100
AcDb2dVertex
 10
13.57590823703342
 20
12.59722137451172
 30
0.0
  0
VERTEX
  5
35B
330
353
100
AcDbEntity
  8
Silkscreen
 62
   132
420
    47827
370
    35
100
AcDbVertex
100
AcDb2dVertex
 10
13.61666700575087
 20
12.59722137451172
 30
0.0
  0
VERTEX
  5
35C
330
353
100
AcDbEntity
  8
Silkscreen
 62
   132
420
    47827
370
    35
100
AcDbVertex
100
AcDb2dVertex
 10
13.61666700575087
 20
12.63472069634332
 30
0.0
  0
VERTEX
  5
35D
330
353
100
AcDbEntity
  8
Silkscreen
 62
   132
420
    47827
370
    35
100
AcDbVertex
100
AcDb2dVertex
 10
13.68055640326606
 20
12.63472069634332
 30
0.0
  0
VERTEX
  5
35E
330
353
100
AcDbEntity
  8
Silkscreen
 62
   132
420
    47827
370
    35
100
AcDbVertex
100
AcDb2dVertex
 10
13.68055640326606
 20
12.53472137451172
 30
0.0
  0
SEQEND
  5
35F
330
353
100
AcDbEntity
  8
Silkscreen
 62
   132
420
    47827
370
    35
  0
POLYLINE
  5
360
330
42
100
AcDbEntity
  8
Silkscreen
 62
   132
420
    47827
370
    35
100
AcDb2dPolyline
 66
     1
 10
0.0
 20
0.0
 30
0.0
  0
VERTEX
  5
361
330
360
100
AcDbEntity
  8
Silkscreen
 62
   132
420
    47827
370
    35
100
AcDbVertex
100
AcDb2dVertex
 10
13.68055640326606
 20
12.79305436876085
 30
0.0
  0
VERTEX
  5
362
330
360
100
AcDbEntity
  8
Silkscreen
 62
   132
420
    47827
370
    35
100
AcDbVertex
100
AcDb2dVertex
 10
13.61666700575087
 20
12.79305436876085
 30
0.0
  0
VERTEX
  5
363
330
360
100
AcDbEntity
  8
Silkscreen
 62
   132
420
    47827
370
    35
100
AcDbVertex
100
AcDb2dVertex
 10
13.61666700575087
 20
12.83333248562283
 30
0.0
  0
VERTEX
  5
364
330
360
100
AcDbEntity
  8
Silkscreen
 62
   132
420
    47827
370
    35
100
AcDbVertex
100
AcDb2dVertex
 10
13.57590823703342
 20
12.83333248562283
 30
0.0
  0
VERTEX
  5
365
330
360
100
AcDbEntity
  8
Silkscreen
 62
   132
420
    47827
370
    35
100
AcDbVertex
100
AcDb2dVertex
 10
13.57590823703342
 20
12.79305436876085
 30
0.0
  0
VERTEX
  5
366
330
360
100
AcDbEntity
  8
Silkscreen
 62
   132
420
    47827
370
    35
100
AcDbVertex
100
AcDb2dVertex
 10
13.45785268147786
 20
12.79305436876085
 30
0.0
  0
VERTEX
  5
367
330
360
100
AcDbEntity
  8
Silkscreen
 62
   132
420
    47827
370
    35
100
AcDbVertex
100
AcDb2dVertex
 10
13.45785268147786
 20
12.83333248562283
 30
0.0
  0
VERTEX
  5
368
330
360
100
AcDbEntity
  8
Silkscreen
 62
   132
420
    47827
370
    35
100
AcDbVertex
100
AcDb2dVertex
 10
10.94518788655599
 20
12.83333248562283
 30
0.0
  0
VERTEX
  5
369
330
360
100
AcDbEntity
  8
Silkscreen
 62
   132
420
    47827
370
    35
100
AcDbVertex
100
AcDb2dVertex
 10
10.94518788655599
 20
12.89722188313802
 30
0.0
  0
VERTEX
  5
36A
330
360
100
AcDbEntity
  8
Silkscreen
 62
   132
420
    47827
370
    35
100
AcDbVertex
100
AcDb2dVertex
 10
13.45785268147786
 20
12.89722188313802
 30
0.0
  0
VERTEX
  5
36B
330
360
100
AcDbEntity
  8
Silkscreen
 62
   132
420
    47827
370
    35
100
AcDbVertex
100
AcDb2dVertex
 10
13.45785268147786
 20
12.93472120496962
 30
0.0
  0
VERTEX
  5
36C
330
360
100
AcDbEntity
  8
Silkscreen
 62
   132
420
    47827
370
    35
100
AcDbVertex
100
AcDb2dVertex
 10
13.57590823703342
 20
12.93472120496962
 30
0.0
  0
VERTEX
  5
36D
330
360
100
AcDbEntity
  8
Silkscreen
 62
   132
420
    47827
370
    35
100
AcDbVertex
100
AcDb2dVertex
 10
13.57590823703342
 20
12.89722188313802
 30
0.0
  0
VERTEX
  5
36E
330
360
100
AcDbEntity
  8
Silkscreen
 62
   132
420
    47827
370
    35
100
AcDbVertex
100
AcDb2dVertex
 10
13.61666700575087
 20
12.89722188313802
 30
0.0
  0
VERTEX
  5
36F
330
360
100
AcDbEntity
  8
Silkscreen
 62
   132
420
    47827
370
    35
100
AcDbVertex
100
AcDb2dVertex
 10
13.61666700575087
 20
12.93472120496962
 30
0.0
  0
VERTEX
  5
370
330
360
100
AcDbEntity
  8
Silkscreen
 62
   132
420
    47827
370
    35
100
AcDbVertex
100
AcDb2dVertex
 10
13.68055640326606
 20
12.93472120496962
 30
0.0
  0
VERTEX
  5
371
330
360
100
AcDbEntity
  8
Silkscreen
 62
   132
420
    47827
370
    35
100
AcDbVertex
100
AcDb2dVertex
 10
13.68055640326606
 20
12.79305436876085
 30
0.0
  0
SEQEND
  5
372
330
360
100
AcDbEntity
  8
Silkscreen
 62
   132
420
    47827
370
    35
  0
POLYLINE
  5
373
330
42
100
AcDbEntity
  8
Silkscreen
 62
   132
420
    47827
370
    35
100
AcDb2dPolyline
 66
     1
 10
0.0
 20
0.0
 30
0.0
  0
VERTEX
  5
374
330
373
100
AcDbEntity
  8
Silkscreen
 62
   132
420
    47827
370
    35
100
AcDbVertex
100
AcDb2dVertex
 10
14.33611212836375
 20
13.13472069634332
 30
0.0
  0
VERTEX
  5
375
330
373
100
AcDbEntity
  8
Silkscreen
 62
   132
420
    47827
370
    35
100
AcDbVertex
100
AcDb2dVertex
 10
13.68055640326606
 20
13.13472069634332
 30
0.0
  0
VERTEX
  5
376
330
373
100
AcDbEntity
  8
Silkscreen
 62
   132
420
    47827
370
    35
100
AcDbVertex
100
AcDb2dVertex
 10
13.68055640326606
 20
13.09305487738715
 30
0.0
  0
VERTEX
  5
377
330
373
100
AcDbEntity
  8
Silkscreen
 62
   132
420
    47827
370
    35
100
AcDbVertex
100
AcDb2dVertex
 10
13.61666700575087
 20
13.09305487738715
 30
0.0
  0
VERTEX
  5
378
330
373
100
AcDbEntity
  8
Silkscreen
 62
   132
420
    47827
370
    35
100
AcDbVertex
100
AcDb2dVertex
 10
13.61666700575087
 20
13.13333299424913
 30
0.0
  0
VERTEX
  5
379
330
373
100
AcDbEntity
  8
Silkscreen
 62
   132
420
    47827
370
    35
100
AcDbVertex
100
AcDb2dVertex
 10
13.57590823703342
 20
13.13333299424913
 30
0.0
  0
VERTEX
  5
37A
330
373
100
AcDbEntity
  8
Silkscreen
 62
   132
420
    47827
370
    35
100
AcDbVertex
100
AcDb2dVertex
 10
13.57590823703342
 20
13.09305487738715
 30
0.0
  0
VERTEX
  5
37B
330
373
100
AcDbEntity
  8
Silkscreen
 62
   132
420
    47827
370
    35
100
AcDbVertex
100
AcDb2dVertex
 10
13.45785268147786
 20
13.09305487738715
 30
0.0
  0
VERTEX
  5
37C
330
373
100
AcDbEntity
  8
Silkscreen
 62
   132
420
    47827
370
    35
100
AcDbVertex
100
AcDb2dVertex
 10
13.45785268147786
 20
13.13333299424913
 30
0.0
  0
VERTEX
  5
37D
330
373
100
AcDbEntity
  8
Silkscreen
 62
   132
420
    47827
370
    35
100
AcDbVertex
100
AcDb2dVertex
 10
10.94518788655599
 20
13.13333299424913
 30
0.0
  0
VERTEX
  5
37E
330
373
100
AcDbEntity
  8
Silkscreen
 62
   132
420
    47827
370
    35
100
AcDbVertex
100
AcDb2dVertex
 10
10.94518788655599
 20
13.19722154405382
 30
0.0
  0
VERTEX
  5
37F
330
373
100
AcDbEntity
  8
Silkscreen
 62
   132
420
    47827
370
    35
100
AcDbVertex
100
AcDb2dVertex
 10
14.11479695638028
 20
13.19722154405382
 30
0.0
  0
VERTEX
  5
380
330
373
100
AcDbEntity
  8
Silkscreen
 62
   132
420
    47827
370
    35
100
AcDbVertex
100
AcDb2dVertex
 10
14.11479695638028
 20
13.23611026340061
 30
0.0
  0
VERTEX
  5
381
330
373
100
AcDbEntity
  8
Silkscreen
 62
   132
420
    47827
370
    35
100
AcDbVertex
100
AcDb2dVertex
 10
14.23285251193584
 20
13.23611026340061
 30
0.0
  0
VERTEX
  5
382
330
373
100
AcDbEntity
  8
Silkscreen
 62
   132
420
    47827
370
    35
100
AcDbVertex
100
AcDb2dVertex
 10
14.23285251193584
 20
13.19722154405382
 30
0.0
  0
VERTEX
  5
383
330
373
100
AcDbEntity
  8
Silkscreen
 62
   132
420
    47827
370
    35
100
AcDbVertex
100
AcDb2dVertex
 10
14.27222188313806
 20
13.19722154405382
 30
0.0
  0
VERTEX
  5
384
330
373
100
AcDbEntity
  8
Silkscreen
 62
   132
420
    47827
370
    35
100
AcDbVertex
100
AcDb2dVertex
 10
14.27222188313806
 20
13.23749881320529
 30
0.0
  0
VERTEX
  5
385
330
373
100
AcDbEntity
  8
Silkscreen
 62
   132
420
    47827
370
    35
100
AcDbVertex
100
AcDb2dVertex
 10
14.33611212836375
 20
13.23749881320529
 30
0.0
  0
VERTEX
  5
386
330
373
100
AcDbEntity
  8
Silkscreen
 62
   132
420
    47827
370
    35
100
AcDbVertex
100
AcDb2dVertex
 10
14.33611212836375
 20
13.13472069634332
 30
0.0
  0
SEQEND
  5
387
330
373
100
AcDbEntity
  8
Silkscreen
 62
   132
420
    47827
370
    35
  0
POLYLINE
  5
388
330
42
100
AcDbEntity
  8
Silkscreen
 62
   132
420
    47827
370
    35
100
AcDb2dPolyline
 66
     1
 10
0.0
 20
0.0
 30
0.0
  0
VERTEX
  5
389
330
388
100
AcDbEntity
  8
Silkscreen
 62
   132
420
    47827
370
    35
100
AcDbVertex
100
AcDb2dVertex
 10
14.33611212836375
 20
13.39444308810764
 30
0.0
  0
VERTEX
  5
38A
330
388
100
AcDbEntity
  8
Silkscreen
 62
   132
420
    47827
370
    35
100
AcDbVertex
100
AcDb2dVertex
 10
14.27222188313806
 20
13.39444308810764
 30
0.0
  0
VERTEX
  5
38B
330
388
100
AcDbEntity
  8
Silkscreen
 62
   132
420
    47827
370
    35
100
AcDbVertex
100
AcDb2dVertex
 10
14.27222188313806
 20
13.43333265516493
 30
0.0
  0
VERTEX
  5
38C
330
388
100
AcDbEntity
  8
Silkscreen
 62
   132
420
    47827
370
    35
100
AcDbVertex
100
AcDb2dVertex
 10
14.23285251193584
 20
13.43333265516493
 30
0.0
  0
VERTEX
  5
38D
330
388
100
AcDbEntity
  8
Silkscreen
 62
   132
420
    47827
370
    35
100
AcDbVertex
100
AcDb2dVertex
 10
14.23285251193584
 20
13.39444393581814
 30
0.0
  0
VERTEX
  5
38E
330
388
100
AcDbEntity
  8
Silkscreen
 62
   132
420
    47827
370
    35
100
AcDbVertex
100
AcDb2dVertex
 10
14.11479695638028
 20
13.39444393581814
 30
0.0
  0
VERTEX
  5
38F
330
388
100
AcDbEntity
  8
Silkscreen
 62
   132
420
    47827
370
    35
100
AcDbVertex
100
AcDb2dVertex
 10
14.11479695638028
 20
13.43333265516493
 30
0.0
  0
VERTEX
  5
390
330
388
100
AcDbEntity
  8
Silkscreen
 62
   132
420
    47827
370
    35
100
AcDbVertex
100
AcDb2dVertex
 10
10.94518788655599
 20
13.43333265516493
 30
0.0
  0
VERTEX
  5
391
330
388
100
AcDbEntity
  8
Silkscreen
 62
   132
420
    47827
370
    35
100
AcDbVertex
100
AcDb2dVertex
 10
10.94518788655599
 20
13.49583265516493
 30
0.0
  0
VERTEX
  5
392
330
388
100
AcDbEntity
  8
Silkscreen
 62
   132
420
    47827
370
    35
100
AcDbVertex
100
AcDb2dVertex
 10
13.78701951768663
 20
13.49583265516493
 30
0.0
  0
VERTEX
  5
393
330
388
100
AcDbEntity
  8
Silkscreen
 62
   132
420
    47827
370
    35
100
AcDbVertex
100
AcDb2dVertex
 10
13.78701951768663
 20
13.53472052680121
 30
0.0
  0
VERTEX
  5
394
330
388
100
AcDbEntity
  8
Silkscreen
 62
   132
420
    47827
370
    35
100
AcDbVertex
100
AcDb2dVertex
 10
13.90507507324222
 20
13.53472052680121
 30
0.0
  0
VERTEX
  5
395
330
388
100
AcDbEntity
  8
Silkscreen
 62
   132
420
    47827
370
    35
100
AcDbVertex
100
AcDb2dVertex
 10
13.90507507324222
 20
13.49583265516493
 30
0.0
  0
VERTEX
  5
396
330
388
100
AcDbEntity
  8
Silkscreen
 62
   132
420
    47827
370
    35
100
AcDbVertex
100
AcDb2dVertex
 10
13.94444444444444
 20
13.49583265516493
 30
0.0
  0
VERTEX
  5
397
330
388
100
AcDbEntity
  8
Silkscreen
 62
   132
420
    47827
370
    35
100
AcDbVertex
100
AcDb2dVertex
 10
13.94444444444444
 20
13.53472052680121
 30
0.0
  0
VERTEX
  5
398
330
388
100
AcDbEntity
  8
Silkscreen
 62
   132
420
    47827
370
    35
100
AcDbVertex
100
AcDb2dVertex
 10
14.00833384195958
 20
13.53472052680121
 30
0.0
  0
VERTEX
  5
399
330
388
100
AcDbEntity
  8
Silkscreen
 62
   132
420
    47827
370
    35
100
AcDbVertex
100
AcDb2dVertex
 10
14.00833384195958
 20
13.49722120496962
 30
0.0
  0
VERTEX
  5
39A
330
388
100
AcDbEntity
  8
Silkscreen
 62
   132
420
    47827
370
    35
100
AcDbVertex
100
AcDb2dVertex
 10
14.33611212836375
 20
13.49722120496962
 30
0.0
  0
VERTEX
  5
39B
330
388
100
AcDbEntity
  8
Silkscreen
 62
   132
420
    47827
370
    35
100
AcDbVertex
100
AcDb2dVertex
 10
14.33611212836375
 20
13.39444308810764
 30
0.0
  0
SEQEND
  5
39C
330
388
100
AcDbEntity
  8
Silkscreen
 62
   132
420
    47827
370
    35
  0
POLYLINE
  5
39D
330
42
100
AcDbEntity
  8
Silkscreen
 62
   132
420
    47827
370
    35
100
AcDb2dPolyline
 66
     1
 10
0.0
 20
0.0
 30
0.0
  0
VERTEX
  5
39E
330
39D
100
AcDbEntity
  8
Silkscreen
 62
   132
420
    47827
370
    35
100
AcDbVertex
100
AcDb2dVertex
 10
14.36249966091584
 20
14.90833197699653
 30
0.0
  0
VERTEX
  5
39F
330
39D
100
AcDbEntity
  8
Silkscreen
 62
   132
420
    47827
370
    35
100
AcDbVertex
100
AcDb2dVertex
 10
13.80972205268012
 20
14.90833197699653
 30
0.0
  0
VERTEX
  5
3A0
330
39D
100
AcDbEntity
  8
Silkscreen
 62
   132
420
    47827
370
    35
100
AcDbVertex
100
AcDb2dVertex
 10
13.80972205268012
 20
14.60347154405389
 30
0.0
  0
VERTEX
  5
3A1
330
39D
100
AcDbEntity
  8
Silkscreen
 62
   132
420
    47827
370
    35
100
AcDbVertex
100
AcDb2dVertex
 10
13.74305555555556
 20
14.60347154405389
 30
0.0
  0
VERTEX
  5
3A2
330
39D
100
AcDbEntity
  8
Silkscreen
 62
   132
420
    47827
370
    35
100
AcDbVertex
100
AcDb2dVertex
 10
13.74305555555556
 20
14.85277642144097
 30
0.0
  0
VERTEX
  5
3A3
330
39D
100
AcDbEntity
  8
Silkscreen
 62
   132
420
    47827
370
    35
100
AcDbVertex
100
AcDb2dVertex
 10
13.73194461398654
 20
14.875
 30
0.0
  0
VERTEX
  5
3A4
330
39D
100
AcDbEntity
  8
Silkscreen
 62
   132
420
    47827
370
    35
100
AcDbVertex
100
AcDb2dVertex
 10
13.71388922797309
 20
14.89305453830291
 30
0.0
  0
VERTEX
  5
3A5
330
39D
100
AcDbEntity
  8
Silkscreen
 62
   132
420
    47827
370
    35
100
AcDbVertex
100
AcDb2dVertex
 10
13.69166734483507
 20
14.90416463216153
 30
0.0
  0
VERTEX
  5
3A6
330
39D
100
AcDbEntity
  8
Silkscreen
 62
   132
420
    47827
370
    35
100
AcDbVertex
100
AcDb2dVertex
 10
13.66805606418186
 20
14.90833197699653
 30
0.0
  0
VERTEX
  5
3A7
330
39D
100
AcDbEntity
  8
Silkscreen
 62
   132
420
    47827
370
    35
100
AcDbVertex
100
AcDb2dVertex
 10
13.65555572509766
 20
14.90833197699653
 30
0.0
  0
VERTEX
  5
3A8
330
39D
100
AcDbEntity
  8
Silkscreen
 62
   132
420
    47827
370
    35
100
AcDbVertex
100
AcDb2dVertex
 10
13.6499998304579
 20
14.91944376627612
 30
0.0
  0
VERTEX
  5
3A9
330
39D
100
AcDbEntity
  8
Silkscreen
 62
   132
420
    47827
370
    35
100
AcDbVertex
100
AcDb2dVertex
 10
13.63055504692925
 20
14.93888685438375
 30
0.0
  0
VERTEX
  5
3AA
330
39D
100
AcDbEntity
  8
Silkscreen
 62
   132
420
    47827
370
    35
100
AcDbVertex
100
AcDb2dVertex
 10
13.60555521647135
 20
14.95138888888889
 30
0.0
  0
VERTEX
  5
3AB
330
39D
100
AcDbEntity
  8
Silkscreen
 62
   132
420
    47827
370
    35
100
AcDbVertex
100
AcDb2dVertex
 10
13.57777743869358
 20
14.95555453830291
 30
0.0
  0
VERTEX
  5
3AC
330
39D
100
AcDbEntity
  8
Silkscreen
 62
   132
420
    47827
370
    35
100
AcDbVertex
100
AcDb2dVertex
 10
13.32361094156901
 20
14.95555453830291
 30
0.0
  0
VERTEX
  5
3AD
330
39D
100
AcDbEntity
  8
Silkscreen
 62
   132
420
    47827
370
    35
100
AcDbVertex
100
AcDb2dVertex
 10
13.29583316379123
 20
14.95138888888889
 30
0.0
  0
VERTEX
  5
3AE
330
39D
100
AcDbEntity
  8
Silkscreen
 62
   132
420
    47827
370
    35
100
AcDbVertex
100
AcDb2dVertex
 10
13.27083333333333
 20
14.93888685438375
 30
0.0
  0
VERTEX
  5
3AF
330
39D
100
AcDbEntity
  8
Silkscreen
 62
   132
420
    47827
370
    35
100
AcDbVertex
100
AcDb2dVertex
 10
13.25138854980469
 20
14.91944376627612
 30
0.0
  0
VERTEX
  5
3B0
330
39D
100
AcDbEntity
  8
Silkscreen
 62
   132
420
    47827
370
    35
100
AcDbVertex
100
AcDb2dVertex
 10
13.24583265516493
 20
14.90833197699653
 30
0.0
  0
VERTEX
  5
3B1
330
39D
100
AcDbEntity
  8
Silkscreen
 62
   132
420
    47827
370
    35
100
AcDbVertex
100
AcDb2dVertex
 10
10.94518788655599
 20
14.90833197699653
 30
0.0
  0
VERTEX
  5
3B2
330
39D
100
AcDbEntity
  8
Silkscreen
 62
   132
420
    47827
370
    35
100
AcDbVertex
100
AcDb2dVertex
 10
10.94518788655599
 20
15.02361043294278
 30
0.0
  0
VERTEX
  5
3B3
330
39D
100
AcDbEntity
  8
Silkscreen
 62
   132
420
    47827
370
    35
100
AcDbVertex
100
AcDb2dVertex
 10
13.79861111111111
 20
15.02361043294278
 30
0.0
  0
VERTEX
  5
3B4
330
39D
100
AcDbEntity
  8
Silkscreen
 62
   132
420
    47827
370
    35
100
AcDbVertex
100
AcDb2dVertex
 10
13.80416700575087
 20
15.01250033908416
 30
0.0
  0
VERTEX
  5
3B5
330
39D
100
AcDbEntity
  8
Silkscreen
 62
   132
420
    47827
370
    35
100
AcDbVertex
100
AcDb2dVertex
 10
13.82361178927951
 20
14.99305555555556
 30
0.0
  0
VERTEX
  5
3B6
330
39D
100
AcDbEntity
  8
Silkscreen
 62
   132
420
    47827
370
    35
100
AcDbVertex
100
AcDb2dVertex
 10
13.84861161973741
 20
14.98055521647139
 30
0.0
  0
VERTEX
  5
3B7
330
39D
100
AcDbEntity
  8
Silkscreen
 62
   132
420
    47827
370
    35
100
AcDbVertex
100
AcDb2dVertex
 10
13.87638939751519
 20
14.97638956705737
 30
0.0
  0
VERTEX
  5
3B8
330
39D
100
AcDbEntity
  8
Silkscreen
 62
   132
420
    47827
370
    35
100
AcDbVertex
100
AcDb2dVertex
 10
14.13055589463972
 20
14.97638956705737
 30
0.0
  0
VERTEX
  5
3B9
330
39D
100
AcDbEntity
  8
Silkscreen
 62
   132
420
    47827
370
    35
100
AcDbVertex
100
AcDb2dVertex
 10
14.1583336724175
 20
14.98055521647139
 30
0.0
  0
VERTEX
  5
3BA
330
39D
100
AcDbEntity
  8
Silkscreen
 62
   132
420
    47827
370
    35
100
AcDbVertex
100
AcDb2dVertex
 10
14.18333350287542
 20
14.99305555555556
 30
0.0
  0
VERTEX
  5
3BB
330
39D
100
AcDbEntity
  8
Silkscreen
 62
   132
420
    47827
370
    35
100
AcDbVertex
100
AcDb2dVertex
 10
14.20277828640403
 20
15.01250033908416
 30
0.0
  0
VERTEX
  5
3BC
330
39D
100
AcDbEntity
  8
Silkscreen
 62
   132
420
    47827
370
    35
100
AcDbVertex
100
AcDb2dVertex
 10
14.20833418104389
 20
15.02361043294278
 30
0.0
  0
VERTEX
  5
3BD
330
39D
100
AcDbEntity
  8
Silkscreen
 62
   132
420
    47827
370
    35
100
AcDbVertex
100
AcDb2dVertex
 10
14.22083452012805
 20
15.02361043294278
 30
0.0
  0
VERTEX
  5
3BE
330
39D
100
AcDbEntity
  8
Silkscreen
 62
   132
420
    47827
370
    35
100
AcDbVertex
100
AcDb2dVertex
 10
14.24583435058597
 20
15.02777777777778
 30
0.0
  0
VERTEX
  5
3BF
330
39D
100
AcDbEntity
  8
Silkscreen
 62
   132
420
    47827
370
    35
100
AcDbVertex
100
AcDb2dVertex
 10
14.26805623372403
 20
15.03888956705737
 30
0.0
  0
VERTEX
  5
3C0
330
39D
100
AcDbEntity
  8
Silkscreen
 62
   132
420
    47827
370
    35
100
AcDbVertex
100
AcDb2dVertex
 10
14.28611246744792
 20
15.05694410536028
 30
0.0
  0
VERTEX
  5
3C1
330
39D
100
AcDbEntity
  8
Silkscreen
 62
   132
420
    47827
370
    35
100
AcDbVertex
100
AcDb2dVertex
 10
14.2972242567275
 20
15.07916598849834
 30
0.0
  0
VERTEX
  5
3C2
330
39D
100
AcDbEntity
  8
Silkscreen
 62
   132
420
    47827
370
    35
100
AcDbVertex
100
AcDb2dVertex
 10
14.3013916015625
 20
15.10277642144097
 30
0.0
  0
VERTEX
  5
3C3
330
39D
100
AcDbEntity
  8
Silkscreen
 62
   132
420
    47827
370
    35
100
AcDbVertex
100
AcDb2dVertex
 10
14.3013916015625
 20
15.31666395399306
 30
0.0
  0
VERTEX
  5
3C4
330
39D
100
AcDbEntity
  8
Silkscreen
 62
   132
420
    47827
370
    35
100
AcDbVertex
100
AcDb2dVertex
 10
14.36249966091584
 20
15.31666395399306
 30
0.0
  0
VERTEX
  5
3C5
330
39D
100
AcDbEntity
  8
Silkscreen
 62
   132
420
    47827
370
    35
100
AcDbVertex
100
AcDb2dVertex
 10
14.36249966091584
 20
14.90833197699653
 30
0.0
  0
SEQEND
  5
3C6
330
39D
100
AcDbEntity
  8
Silkscreen
 62
   132
420
    47827
370
    35
  0
POLYLINE
  5
3C7
330
42
100
AcDbEntity
  8
Silkscreen
 62
   132
420
    47827
370
    35
100
AcDb2dPolyline
 66
     1
 10
0.0
 20
0.0
 30
0.0
  0
VERTEX
  5
3C8
330
3C7
100
AcDbEntity
  8
Silkscreen
 62
   132
420
    47827
370
    35
100
AcDbVertex
100
AcDb2dVertex
 10
14.36249966091584
 20
15.47499762641055
 30
0.0
  0
VERTEX
  5
3C9
330
3C7
100
AcDbEntity
  8
Silkscreen
 62
   132
420
    47827
370
    35
100
AcDbVertex
100
AcDb2dVertex
 10
14.3013916015625
 20
15.47499762641055
 30
0.0
  0
VERTEX
  5
3CA
330
3C7
100
AcDbEntity
  8
Silkscreen
 62
   132
420
    47827
370
    35
100
AcDbVertex
100
AcDb2dVertex
 10
14.3013916015625
 20
15.69305419921875
 30
0.0
  0
VERTEX
  5
3CB
330
3C7
100
AcDbEntity
  8
Silkscreen
 62
   132
420
    47827
370
    35
100
AcDbVertex
100
AcDb2dVertex
 10
14.29583401150181
 20
15.7166663275825
 30
0.0
  0
VERTEX
  5
3CC
330
3C7
100
AcDbEntity
  8
Silkscreen
 62
   132
420
    47827
370
    35
100
AcDbVertex
100
AcDb2dVertex
 10
14.28472222222222
 20
15.73888821072056
 30
0.0
  0
VERTEX
  5
3CD
330
3C7
100
AcDbEntity
  8
Silkscreen
 62
   132
420
    47827
370
    35
100
AcDbVertex
100
AcDb2dVertex
 10
14.26666598849834
 20
15.75694444444444
 30
0.0
  0
VERTEX
  5
3CE
330
3C7
100
AcDbEntity
  8
Silkscreen
 62
   132
420
    47827
370
    35
100
AcDbVertex
100
AcDb2dVertex
 10
14.24444410536028
 20
15.76805453830291
 30
0.0
  0
VERTEX
  5
3CF
330
3C7
100
AcDbEntity
  8
Silkscreen
 62
   132
420
    47827
370
    35
100
AcDbVertex
100
AcDb2dVertex
 10
14.21944427490236
 20
15.77222018771709
 30
0.0
  0
VERTEX
  5
3D0
330
3C7
100
AcDbEntity
  8
Silkscreen
 62
   132
420
    47827
370
    35
100
AcDbVertex
100
AcDb2dVertex
 10
14.20694393581819
 20
15.77222018771709
 30
0.0
  0
VERTEX
  5
3D1
330
3C7
100
AcDbEntity
  8
Silkscreen
 62
   132
420
    47827
370
    35
100
AcDbVertex
100
AcDb2dVertex
 10
14.20138804117833
 20
15.78333197699653
 30
0.0
  0
VERTEX
  5
3D2
330
3C7
100
AcDbEntity
  8
Silkscreen
 62
   132
420
    47827
370
    35
100
AcDbVertex
100
AcDb2dVertex
 10
14.18194325764973
 20
15.80277676052513
 30
0.0
  0
VERTEX
  5
3D3
330
3C7
100
AcDbEntity
  8
Silkscreen
 62
   132
420
    47827
370
    35
100
AcDbVertex
100
AcDb2dVertex
 10
14.1569434271918
 20
15.81527709960945
 30
0.0
  0
VERTEX
  5
3D4
330
3C7
100
AcDbEntity
  8
Silkscreen
 62
   132
420
    47827
370
    35
100
AcDbVertex
100
AcDb2dVertex
 10
14.12916564941402
 20
15.81944444444444
 30
0.0
  0
VERTEX
  5
3D5
330
3C7
100
AcDbEntity
  8
Silkscreen
 62
   132
420
    47827
370
    35
100
AcDbVertex
100
AcDb2dVertex
 10
13.8749991522895
 20
15.81944444444444
 30
0.0
  0
VERTEX
  5
3D6
330
3C7
100
AcDbEntity
  8
Silkscreen
 62
   132
420
    47827
370
    35
100
AcDbVertex
100
AcDb2dVertex
 10
13.84722137451172
 20
15.81527709960945
 30
0.0
  0
VERTEX
  5
3D7
330
3C7
100
AcDbEntity
  8
Silkscreen
 62
   132
420
    47827
370
    35
100
AcDbVertex
100
AcDb2dVertex
 10
13.82222154405382
 20
15.80277676052513
 30
0.0
  0
VERTEX
  5
3D8
330
3C7
100
AcDbEntity
  8
Silkscreen
 62
   132
420
    47827
370
    35
100
AcDbVertex
100
AcDb2dVertex
 10
13.80277676052517
 20
15.78333197699653
 30
0.0
  0
VERTEX
  5
3D9
330
3C7
100
AcDbEntity
  8
Silkscreen
 62
   132
420
    47827
370
    35
100
AcDbVertex
100
AcDb2dVertex
 10
13.79722086588542
 20
15.77222018771709
 30
0.0
  0
VERTEX
  5
3DA
330
3C7
100
AcDbEntity
  8
Silkscreen
 62
   132
420
    47827
370
    35
100
AcDbVertex
100
AcDb2dVertex
 10
10.94518788655599
 20
15.77222018771709
 30
0.0
  0
VERTEX
  5
3DB
330
3C7
100
AcDbEntity
  8
Silkscreen
 62
   132
420
    47827
370
    35
100
AcDbVertex
100
AcDb2dVertex
 10
10.94518788655599
 20
15.92916700575083
 30
0.0
  0
VERTEX
  5
3DC
330
3C7
100
AcDbEntity
  8
Silkscreen
 62
   132
420
    47827
370
    35
100
AcDbVertex
100
AcDb2dVertex
 10
13.54722256130642
 20
15.92916700575083
 30
0.0
  0
VERTEX
  5
3DD
330
3C7
100
AcDbEntity
  8
Silkscreen
 62
   132
420
    47827
370
    35
100
AcDbVertex
100
AcDb2dVertex
 10
13.55277845594618
 20
15.91805691189236
 30
0.0
  0
VERTEX
  5
3DE
330
3C7
100
AcDbEntity
  8
Silkscreen
 62
   132
420
    47827
370
    35
100
AcDbVertex
100
AcDb2dVertex
 10
13.57222323947483
 20
15.89861043294278
 30
0.0
  0
VERTEX
  5
3DF
330
3C7
100
AcDbEntity
  8
Silkscreen
 62
   132
420
    47827
370
    35
100
AcDbVertex
100
AcDb2dVertex
 10
13.59722306993272
 20
15.88611178927959
 30
0.0
  0
VERTEX
  5
3E0
330
3C7
100
AcDbEntity
  8
Silkscreen
 62
   132
420
    47827
370
    35
100
AcDbVertex
100
AcDb2dVertex
 10
13.6250008477105
 20
15.88194444444444
 30
0.0
  0
VERTEX
  5
3E1
330
3C7
100
AcDbEntity
  8
Silkscreen
 62
   132
420
    47827
370
    35
100
AcDbVertex
100
AcDb2dVertex
 10
13.87916734483507
 20
15.88194444444444
 30
0.0
  0
VERTEX
  5
3E2
330
3C7
100
AcDbEntity
  8
Silkscreen
 62
   132
420
    47827
370
    35
100
AcDbVertex
100
AcDb2dVertex
 10
13.90694512261292
 20
15.88611178927959
 30
0.0
  0
VERTEX
  5
3E3
330
3C7
100
AcDbEntity
  8
Silkscreen
 62
   132
420
    47827
370
    35
100
AcDbVertex
100
AcDb2dVertex
 10
13.9319449530707
 20
15.89861043294278
 30
0.0
  0
VERTEX
  5
3E4
330
3C7
100
AcDbEntity
  8
Silkscreen
 62
   132
420
    47827
370
    35
100
AcDbVertex
100
AcDb2dVertex
 10
13.95138973659944
 20
15.91805691189236
 30
0.0
  0
VERTEX
  5
3E5
330
3C7
100
AcDbEntity
  8
Silkscreen
 62
   132
420
    47827
370
    35
100
AcDbVertex
100
AcDb2dVertex
 10
13.95694563123916
 20
15.92916700575083
 30
0.0
  0
VERTEX
  5
3E6
330
3C7
100
AcDbEntity
  8
Silkscreen
 62
   132
420
    47827
370
    35
100
AcDbVertex
100
AcDb2dVertex
 10
13.96944597032334
 20
15.92916700575083
 30
0.0
  0
VERTEX
  5
3E7
330
3C7
100
AcDbEntity
  8
Silkscreen
 62
   132
420
    47827
370
    35
100
AcDbVertex
100
AcDb2dVertex
 10
13.99305725097652
 20
15.933332655165
 30
0.0
  0
VERTEX
  5
3E8
330
3C7
100
AcDbEntity
  8
Silkscreen
 62
   132
420
    47827
370
    35
100
AcDbVertex
100
AcDb2dVertex
 10
14.01527913411458
 20
15.94444444444444
 30
0.0
  0
VERTEX
  5
3E9
330
3C7
100
AcDbEntity
  8
Silkscreen
 62
   132
420
    47827
370
    35
100
AcDbVertex
100
AcDb2dVertex
 10
14.03333452012805
 20
15.96250067816848
 30
0.0
  0
VERTEX
  5
3EA
330
3C7
100
AcDbEntity
  8
Silkscreen
 62
   132
420
    47827
370
    35
100
AcDbVertex
100
AcDb2dVertex
 10
14.04444546169709
 20
15.98472086588542
 30
0.0
  0
VERTEX
  5
3EB
330
3C7
100
AcDbEntity
  8
Silkscreen
 62
   132
420
    47827
370
    35
100
AcDbVertex
100
AcDb2dVertex
 10
14.04861195882166
 20
16.00833299424917
 30
0.0
  0
VERTEX
  5
3EC
330
3C7
100
AcDbEntity
  8
Silkscreen
 62
   132
420
    47827
370
    35
100
AcDbVertex
100
AcDb2dVertex
 10
14.04861195882166
 20
16.22499932183167
 30
0.0
  0
VERTEX
  5
3ED
330
3C7
100
AcDbEntity
  8
Silkscreen
 62
   132
420
    47827
370
    35
100
AcDbVertex
100
AcDb2dVertex
 10
14.10972256130638
 20
16.22499932183167
 30
0.0
  0
VERTEX
  5
3EE
330
3C7
100
AcDbEntity
  8
Silkscreen
 62
   132
420
    47827
370
    35
100
AcDbVertex
100
AcDb2dVertex
 10
14.10972256130638
 20
15.92916531032986
 30
0.0
  0
VERTEX
  5
3EF
330
3C7
100
AcDbEntity
  8
Silkscreen
 62
   132
420
    47827
370
    35
100
AcDbVertex
100
AcDb2dVertex
 10
14.36249966091584
 20
15.92916531032986
 30
0.0
  0
VERTEX
  5
3F0
330
3C7
100
AcDbEntity
  8
Silkscreen
 62
   132
420
    47827
370
    35
100
AcDbVertex
100
AcDb2dVertex
 10
14.36249966091584
 20
15.47499762641055
 30
0.0
  0
SEQEND
  5
3F1
330
3C7
100
AcDbEntity
  8
Silkscreen
 62
   132
420
    47827
370
    35
  0
ENDBLK
  5
45
330
42
100
AcDbEntity
  8
0
100
AcDbBlockEnd
  0
ENDSEC
  0
SECTION
  2
ENTITIES
  0
INSERT
  5
43
330
1F
100
AcDbEntity
  8
Silkscreen
100
AcDbBlockReference
  2
block 2
 10
0.0
 20
0.0
 30
0.0
  0
POLYLINE
  5
3F2
330
1F
100
AcDbEntity
  8
Silkscreen
 62
   132
420
    47827
370
    35
100
AcDb2dPolyline
 66
     1
 10
0.0
 20
0.0
 30
0.0
  0
VERTEX
  5
3F3
330
3F2
100
AcDbEntity
  8
Silkscreen
 62
   132
420
    47827
370
    35
100
AcDbVertex
100
AcDb2dVertex
 10
1.94305589463977
 20
20.57638888888889
 30
0.0
  0
VERTEX
  5
3F4
330
3F2
100
AcDbEntity
  8
Silkscreen
 62
   132
420
    47827
370
    35
100
AcDbVertex
100
AcDb2dVertex
 10
1.94305589463977
 20
20.15138753255216
 30
0.0
  0
SEQEND
  5
3F5
330
3F2
100
AcDbEntity
  8
Silkscreen
 62
   132
420
    47827
370
    35
  0
POLYLINE
  5
3F6
330
1F
100
AcDbEntity
  8
Silkscreen
 62
   132
420
    47827
370
    35
100
AcDb2dPolyline
 66
     1
 10
0.0
 20
0.0
 30
0.0
  0
VERTEX
  5
3F7
330
3F6
100
AcDbEntity
  8
Silkscreen
 62
   132
420
    47827
370
    35
100
AcDbVertex
100
AcDb2dVertex
 10
2.217592592592597
 20
20.5775536431207
 30
0.0
  0
VERTEX
  5
3F8
330
3F6
100
AcDbEntity
  8
Silkscreen
 62
   132
420
    47827
370
    35
100
AcDbVertex
100
AcDb2dVertex
 10
1.94305589463977
 20
20.57638888888889
 30
0.0
  0
SEQEND
  5
3F9
330
3F6
100
AcDbEntity
  8
Silkscreen
 62
   132
420
    47827
370
    35
  0
ENDSEC
  0
SECTION
  2
OBJECTS
  0
DICTIONARY
  5
C
330
0
100
AcDbDictionary
281
     1
  3
ACAD_GROUP
350
D
  3
ACAD_LAYOUT
350
1A
  3
ACAD_MATERIAL
350
3B
  3
ACAD_MLEADERSTYLE
350
3FB
  3
ACAD_MLINESTYLE
350
17
  3
ACAD_PLOTSETTINGS
350
19
  3
ACAD_PLOTSTYLENAME
350
E
  3
ACAD_TABLESTYLE
350
3FA
  3
ACAD_VISUALSTYLE
350
2A
  0
SUN
  5
3F
330
29
100
AcDbSun
 90
        1
290
     0
 63
     7
421
 16777215
 40
1.0
291
     1
 91
  2455826
 92
 54000000
292
     0
 70
     2
 71
   256
280
     1
  0
DICTIONARY
  5
D
102
{ACAD_REACTORS
330
C
102
}
330
C
100
AcDbDictionary
281
     1
  0
DICTIONARY
  5
1A
102
{ACAD_REACTORS
330
C
102
}
330
C
100
AcDbDictionary
281
     1
  3
Layout1
350
1E
  3
Layout2
350
26
  3
Model
350
22
  0
DICTIONARY
  5
3B
102
{ACAD_REACTORS
330
C
102
}
330
C
100
AcDbDictionary
281
     1
  3
ByBlock
350
3D
  3
ByLayer
350
3C
  3
Global
350
3E
  0
DICTIONARY
  5
3FB
102
{ACAD_REACTORS
330
C
102
}
330
C
100
AcDbDictionary
281
     1
  0
DICTIONARY
  5
17
102
{ACAD_REACTORS
330
C
102
}
330
C
100
AcDbDictionary
281
     1
  3
Standard
350
18
  0
DICTIONARY
  5
19
102
{ACAD_REACTORS
330
C
102
}
330
C
100
AcDbDictionary
281
     1
  0
ACDBDICTIONARYWDFLT
  5
E
102
{ACAD_REACTORS
330
C
102
}
330
C
100
AcDbDictionary
281
     1
  3
Normal
350
F
100
AcDbDictionaryWithDefault
340
F
  0
DICTIONARY
  5
3FA
102
{ACAD_REACTORS
330
C
102
}
330
C
100
AcDbDictionary
281
     1
  0
DICTIONARY
  5
2A
102
{ACAD_REACTORS
330
C
102
}
330
C
100
AcDbDictionary
281
     1
  3
2dWireframe
350
2F
  3
3D Hidden
350
31
  3
3dWireframe
350
30
  3
Basic
350
32
  3
Brighten
350
36
  3
ColorChange
350
3A
  3
Conceptual
350
34
  3
Dim
350
35
  3
Facepattern
350
39
  3
Flat
350
2B
  3
FlatWithEdges
350
2C
  3
Gouraud
350
2D
  3
GouraudWithEdges
350
2E
  3
Linepattern
350
38
  3
Realistic
350
33
  3
Thicken
350
37
  0
LAYOUT
  5
1E
102
{ACAD_REACTORS
330
1A
102
}
330
1A
100
AcDbPlotSettings
  1

  2
none_device
  4

  6

 40
0.0
 41
0.0
 42
0.0
 43
0.0
 44
0.0
 45
0.0
 46
0.0
 47
0.0
 48
0.0
 49
0.0
140
0.0
141
0.0
142
1.0
143
1.0
 70
   688
 72
     0
 73
     0
 74
     5
  7

 75
    16
 76
     0
 77
     2
 78
   300
147
1.0
148
0.0
149
0.0
100
AcDbLayout
  1
Layout1
 70
     1
 71
     1
 10
0.0
 20
0.0
 11
12.0
 21
9.0
 12
0.0
 22
0.0
 32
0.0
 14
1.000000000000000E+20
 24
1.000000000000000E+20
 34
1.000000000000000E+20
 15
-1.000000000000000E+20
 25
-1.000000000000000E+20
 35
-1.000000000000000E+20
146
0.0
 13
0.0
 23
0.0
 33
0.0
 16
1.0
 26
0.0
 36
0.0
 17
0.0
 27
1.0
 37
0.0
 76
     0
330
1B
  0
LAYOUT
  5
26
102
{ACAD_REACTORS
330
1A
102
}
330
1A
100
AcDbPlotSettings
  1

  2
none_device
  4

  6

 40
0.0
 41
0.0
 42
0.0
 43
0.0
 44
0.0
 45
0.0
 46
0.0
 47
0.0
 48
0.0
 49
0.0
140
0.0
141
0.0
142
1.0
143
1.0
 70
   688
 72
     0
 73
     0
 74
     5
  7

 75
    16
 76
     0
 77
     2
 78
   300
147
1.0
148
0.0
149
0.0
100
AcDbLayout
  1
Layout2
 70
     1
 71
     2
 10
0.0
 20
0.0
 11
0.0
 21
0.0
 12
0.0
 22
0.0
 32
0.0
 14
0.0
 24
0.0
 34
0.0
 15
0.0
 25
0.0
 35
0.0
146
0.0
 13
0.0
 23
0.0
 33
0.0
 16
1.0
 26
0.0
 36
0.0
 17
0.0
 27
1.0
 37
0.0
 76
     0
330
23
  0
LAYOUT
  5
22
102
{ACAD_REACTORS
330
1A
102
}
330
1A
100
AcDbPlotSettings
  1

  2
none_device
  4

  6

 40
0.0
 41
0.0
 42
0.0
 43
0.0
 44
0.0
 45
0.0
 46
0.0
 47
0.0
 48
0.0
 49
0.0
140
0.0
141
0.0
142
1.0
143
1.0
 70
  1712
 72
     0
 73
     0
 74
     0
  7

 75
     0
 76
     0
 77
     2
 78
   300
147
1.0
148
0.0
149
0.0
100
AcDbLayout
  1
Model
 70
     1
 71
     0
 10
0.0
 20
0.0
 11
12.0
 21
9.0
 12
0.0
 22
0.0
 32
0.0
 14
1.000000000000000E+20
 24
1.000000000000000E+20
 34
1.000000000000000E+20
 15
-1.000000000000000E+20
 25
-1.000000000000000E+20
 35
-1.000000000000000E+20
146
0.0
 13
0.0
 23
0.0
 33
0.0
 16
1.0
 26
0.0
 36
0.0
 17
0.0
 27
1.0
 37
0.0
 76
     0
330
1F
331
29
  0
MATERIAL
  5
3D
102
{ACAD_REACTORS
330
3B
102
}
330
3B
100
AcDbMaterial
  1
ByBlock
 72
     1
 94
      127
  0
MATERIAL
  5
3C
102
{ACAD_REACTORS
330
3B
102
}
330
3B
100
AcDbMaterial
  1
ByLayer
 72
     1
 94
      127
  0
MATERIAL
  5
3E
102
{ACAD_REACTORS
330
3B
102
}
330
3B
100
AcDbMaterial
  1
Global
 72
     1
 94
      127
  0
MLINESTYLE
  5
18
102
{ACAD_REACTORS
330
17
102
}
330
17
100
AcDbMlineStyle
  2
Standard
 70
     0
  3

 62
   256
 51
90.0
 52
90.0
 71
     2
 49
0.5
 62
   256
  6
BYLAYER
 49
-0.5
 62
   256
  6
BYLAYER
  0
ACDBPLACEHOLDER
  5
F
102
{ACAD_REACTORS
330
E
102
}
330
E
  0
VISUALSTYLE
  5
2F
102
{ACAD_REACTORS
330
2A
102
}
330
2A
100
AcDbVisualStyle
  2
2dWireframe
 70
     4
177
     2
291
     0
 71
     0
176
     1
 72
     2
176
     1
 73
     0
176
     1
 90
        0
176
     1
 40
-0.6
176
     1
 41
-30.0
176
     1
 62
     5
 63
     7
421
 16777215
176
     1
 74
     1
176
     1
 91
        4
176
     1
 64
     7
176
     1
 65
   257
176
     1
 75
     1
176
     1
175
     1
176
     1
 42
1.0
176
     1
 92
        0
176
     1
 66
   257
176
     1
 43
1.0
176
     1
 76
     1
176
     1
 77
     6
176
     1
 78
     2
176
     1
 67
     7
176
     1
 79
     5
176
     1
170
     0
176
     1
171
     0
176
     1
290
     0
176
     1
 93
        1
176
     1
 44
0.0
176
     1
173
     0
176
     1
  0
VISUALSTYLE
  5
31
102
{ACAD_REACTORS
330
2A
102
}
330
2A
100
AcDbVisualStyle
  2
3D Hidden
 70
     6
177
     2
291
     0
 71
     1
176
     1
 72
     2
176
     1
 73
     2
176
     1
 90
        0
176
     1
 40
-0.6
176
     1
 41
-30.0
176
     1
 62
     5
 63
     7
421
 16777215
176
     1
 74
     2
176
     1
 91
        2
176
     1
 64
     7
176
     1
 65
   257
176
     1
 75
     2
176
     1
175
     1
176
     1
 42
40.0
176
     1
 92
        0
176
     1
 66
   257
176
     1
 43
1.0
176
     1
 76
     1
176
     1
 77
     6
176
     1
 78
     2
176
     1
 67
     7
176
     1
 79
     3
176
     1
170
     0
176
     1
171
     0
176
     1
290
     0
176
     1
 93
        1
176
     1
 44
0.0
176
     1
173
     0
176
     1
  0
VISUALSTYLE
  5
30
102
{ACAD_REACTORS
330
2A
102
}
330
2A
100
AcDbVisualStyle
  2
3dWireframe
 70
     5
177
     2
291
     0
 71
     0
176
     1
 72
     2
176
     1
 73
     0
176
     1
 90
        0
176
     1
 40
-0.6
176
     1
 41
-30.0
176
     1
 62
     5
 63
     7
421
 16777215
176
     1
 74
     1
176
     1
 91
        4
176
     1
 64
     7
176
     1
 65
   257
176
     1
 75
     1
176
     1
175
     1
176
     1
 42
1.0
176
     1
 92
        0
176
     1
 66
   257
176
     1
 43
1.0
176
     1
 76
     1
176
     1
 77
     6
176
     1
 78
     2
176
     1
 67
     7
176
     1
 79
     5
176
     1
170
     0
176
     1
171
     0
176
     1
290
     0
176
     1
 93
        1
176
     1
 44
0.0
176
     1
173
     0
176
     1
  0
VISUALSTYLE
  5
32
102
{ACAD_REACTORS
330
2A
102
}
330
2A
100
AcDbVisualStyle
  2
Basic
 70
     7
177
     2
291
     1
 71
     1
176
     1
 72
     0
176
     1
 73
     1
176
     1
 90
        0
176
     1
 40
-0.6
176
     1
 41
-30.0
176
     1
 62
     5
 63
     7
421
 16777215
176
     1
 74
     0
176
     1
 91
        4
176
     1
 64
     7
176
     1
 65
   257
176
     1
 75
     1
176
     1
175
     1
176
     1
 42
1.0
176
     1
 92
        8
176
     1
 66
     7
176
     1
 43
1.0
176
     1
 76
     1
176
     1
 77
     6
176
     1
 78
     2
176
     1
 67
     7
176
     1
 79
     5
176
     1
170
     0
176
     1
171
     0
176
     1
290
     0
176
     1
 93
        1
176
     1
 44
0.0
176
     1
173
     0
176
     1
  0
VISUALSTYLE
  5
36
102
{ACAD_REACTORS
330
2A
102
}
330
2A
100
AcDbVisualStyle
  2
Brighten
 70
    12
177
     2
291
     1
 71
     2
176
     1
 72
     2
176
     1
 73
     0
176
     1
 90
        0
176
     1
 40
-0.6
176
     1
 41
-30.0
176
     1
 62
     5
 63
     7
421
 16777215
176
     1
 74
     1
176
     1
 91
        4
176
     1
 64
     7
176
     1
 65
   257
176
     1
 75
     1
176
     1
175
     1
176
     1
 42
1.0
176
     1
 92
        8
176
     1
 66
     7
176
     1
 43
1.0
176
     1
 76
     1
176
     1
 77
     6
176
     1
 78
     2
176
     1
 67
     7
176
     1
 79
     5
176
     1
170
     0
176
     1
171
     0
176
     1
290
     0
176
     1
 93
        1
176
     1
 44
50.0
176
     1
173
     0
176
     1
  0
VISUALSTYLE
  5
3A
102
{ACAD_REACTORS
330
2A
102
}
330
2A
100
AcDbVisualStyle
  2
ColorChange
 70
    16
177
     2
291
     1
 71
     2
176
     1
 72
     2
176
     1
 73
     3
176
     1
 90
        0
176
     1
 40
-0.6
176
     1
 41
-30.0
176
     1
 62
     5
 63
     8
421
  8421504
176
     1
 74
     1
176
     1
 91
        4
176
     1
 64
     7
176
     1
 65
   257
176
     1
 75
     1
176
     1
175
     1
176
     1
 42
1.0
176
     1
 92
        8
176
     1
 66
     8
424
  8421504
176
     1
 43
1.0
176
     1
 76
     1
176
     1
 77
     6
176
     1
 78
     2
176
     1
 67
     7
176
     1
 79
     5
176
     1
170
     0
176
     1
171
     0
176
     1
290
     0
176
     1
 93
        1
176
     1
 44
0.0
176
     1
173
     0
176
     1
  0
VISUALSTYLE
  5
34
102
{ACAD_REACTORS
330
2A
102
}
330
2A
100
AcDbVisualStyle
  2
Conceptual
 70
     9
177
     2
291
     0
 71
     3
176
     1
 72
     2
176
     1
 73
     0
176
     1
 90
        0
176
     1
 40
-0.6
176
     1
 41
-30.0
176
     1
 62
     5
 63
     7
421
 16777215
176
     1
 74
     2
176
     1
 91
        2
176
     1
 64
     7
176
     1
 65
   257
176
     1
 75
     1
176
     1
175
     1
176
     1
 42
40.0
176
     1
 92
        8
176
     1
 66
     7
176
     1
 43
1.0
176
     1
 76
     1
176
     1
 77
     6
176
     1
 78
     2
176
     1
 67
     7
176
     1
 79
     3
176
     1
170
     0
176
     1
171
     0
176
     1
290
     0
176
     1
 93
        1
176
     1
 44
0.0
176
     1
173
     0
176
     1
  0
VISUALSTYLE
  5
35
102
{ACAD_REACTORS
330
2A
102
}
330
2A
100
AcDbVisualStyle
  2
Dim
 70
    11
177
     2
291
     1
 71
     2
176
     1
 72
     2
176
     1
 73
     0
176
     1
 90
        0
176
     1
 40
-0.6
176
     1
 41
-30.0
176
     1
 62
     5
 63
     7
421
 16777215
176
     1
 74
     1
176
     1
 91
        4
176
     1
 64
     7
176
     1
 65
   257
176
     1
 75
     1
176
     1
175
     1
176
     1
 42
1.0
176
     1
 92
        8
176
     1
 66
     7
176
     1
 43
1.0
176
     1
 76
     1
176
     1
 77
     6
176
     1
 78
     2
176
     1
 67
     7
176
     1
 79
     5
176
     1
170
     0
176
     1
171
     0
176
     1
290
     0
176
     1
 93
        1
176
     1
 44
-50.0
176
     1
173
     0
176
     1
  0
VISUALSTYLE
  5
39
102
{ACAD_REACTORS
330
2A
102
}
330
2A
100
AcDbVisualStyle
  2
Facepattern
 70
    15
177
     2
291
     1
 71
     2
176
     1
 72
     2
176
     1
 73
     0
176
     1
 90
        0
176
     1
 40
-0.6
176
     1
 41
-30.0
176
     1
 62
     5
 63
     7
421
 16777215
176
     1
 74
     1
176
     1
 91
        4
176
     1
 64
     7
176
     1
 65
   257
176
     1
 75
     1
176
     1
175
     1
176
     1
 42
1.0
176
     1
 92
        8
176
     1
 66
     7
176
     1
 43
1.0
176
     1
 76
     1
176
     1
 77
     6
176
     1
 78
     2
176
     1
 67
     7
176
     1
 79
     5
176
     1
170
     0
176
     1
171
     0
176
     1
290
     0
176
     1
 93
        1
176
     1
 44
0.0
176
     1
173
     0
176
     1
  0
VISUALSTYLE
  5
2B
102
{ACAD_REACTORS
330
2A
102
}
330
2A
100
AcDbVisualStyle
  2
Flat
 70
     0
177
     2
291
     1
 71
     2
176
     1
 72
     1
176
     1
 73
     1
176
     1
 90
        2
176
     1
 40
-0.6
176
     1
 41
30.0
176
     1
 62
     5
 63
     7
421
 16777215
176
     1
 74
     0
176
     1
 91
        4
176
     1
 64
     7
176
     1
 65
   257
176
     1
 75
     1
176
     1
175
     1
176
     1
 42
1.0
176
     1
 92
        8
176
     1
 66
     7
176
     1
 43
1.0
176
     1
 76
     1
176
     1
 77
     6
176
     1
 78
     2
176
     1
 67
     7
176
     1
 79
     5
176
     1
170
     0
176
     1
171
     0
176
     1
290
     0
176
     1
 93
       13
176
     1
 44
0.0
176
     1
173
     0
176
     1
  0
VISUALSTYLE
  5
2C
102
{ACAD_REACTORS
330
2A
102
}
330
2A
100
AcDbVisualStyle
  2
FlatWithEdges
 70
     1
177
     2
291
     1
 71
     2
176
     1
 72
     1
176
     1
 73
     1
176
     1
 90
        2
176
     1
 40
-0.6
176
     1
 41
30.0
176
     1
 62
     5
 63
     7
421
 16777215
176
     1
 74
     1
176
     1
 91
        4
176
     1
 64
     7
176
     1
 65
   257
176
     1
 75
     1
176
     1
175
     1
176
     1
 42
1.0
176
     1
 92
        0
176
     1
 66
   257
176
     1
 43
1.0
176
     1
 76
     1
176
     1
 77
     6
176
     1
 78
     2
176
     1
 67
     7
176
     1
 79
     5
176
     1
170
     0
176
     1
171
     0
176
     1
290
     0
176
     1
 93
       13
176
     1
 44
0.0
176
     1
173
     0
176
     1
  0
VISUALSTYLE
  5
2D
102
{ACAD_REACTORS
330
2A
102
}
330
2A
100
AcDbVisualStyle
  2
Gouraud
 70
     2
177
     2
291
     1
 71
     2
176
     1
 72
     2
176
     1
 73
     1
176
     1
 90
        2
176
     1
 40
-0.6
176
     1
 41
30.0
176
     1
 62
     5
 63
     7
421
 16777215
176
     1
 74
     0
176
     1
 91
        4
176
     1
 64
     7
176
     1
 65
   257
176
     1
 75
     1
176
     1
175
     1
176
     1
 42
1.0
176
     1
 92
        0
176
     1
 66
     7
176
     1
 43
1.0
176
     1
 76
     1
176
     1
 77
     6
176
     1
 78
     2
176
     1
 67
     7
176
     1
 79
     5
176
     1
170
     0
176
     1
171
     0
176
     1
290
     0
176
     1
 93
       13
176
     1
 44
0.0
176
     1
173
     0
176
     1
  0
VISUALSTYLE
  5
2E
102
{ACAD_REACTORS
330
2A
102
}
330
2A
100
AcDbVisualStyle
  2
GouraudWithEdges
 70
     3
177
     2
291
     1
 71
     2
176
     1
 72
     2
176
     1
 73
     1
176
     1
 90
        2
176
     1
 40
-0.6
176
     1
 41
30.0
176
     1
 62
     5
 63
     7
421
 16777215
176
     1
 74
     1
176
     1
 91
        4
176
     1
 64
     7
176
     1
 65
   257
176
     1
 75
     1
176
     1
175
     1
176
     1
 42
1.0
176
     1
 92
        0
176
     1
 66
   257
176
     1
 43
1.0
176
     1
 76
     1
176
     1
 77
     6
176
     1
 78
     2
176
     1
 67
     7
176
     1
 79
     5
176
     1
170
     0
176
     1
171
     0
176
     1
290
     0
176
     1
 93
       13
176
     1
 44
0.0
176
     1
173
     0
176
     1
  0
VISUALSTYLE
  5
38
102
{ACAD_REACTORS
330
2A
102
}
330
2A
100
AcDbVisualStyle
  2
Linepattern
 70
    14
177
     2
291
     1
 71
     2
176
     1
 72
     2
176
     1
 73
     0
176
     1
 90
        0
176
     1
 40
-0.6
176
     1
 41
-30.0
176
     1
 62
     5
 63
     7
421
 16777215
176
     1
 74
     1
176
     1
 91
        4
176
     1
 64
     7
176
     1
 65
   257
176
     1
 75
     7
176
     1
175
     7
176
     1
 42
1.0
176
     1
 92
        8
176
     1
 66
     7
176
     1
 43
1.0
176
     1
 76
     1
176
     1
 77
     6
176
     1
 78
     2
176
     1
 67
     7
176
     1
 79
     5
176
     1
170
     0
176
     1
171
     0
176
     1
290
     0
176
     1
 93
        1
176
     1
 44
0.0
176
     1
173
     0
176
     1
  0
VISUALSTYLE
  5
33
102
{ACAD_REACTORS
330
2A
102
}
330
2A
100
AcDbVisualStyle
  2
Realistic
 70
     8
177
     2
291
     0
 71
     2
176
     1
 72
     2
176
     1
 73
     0
176
     1
 90
        0
176
     1
 40
-0.6
176
     1
 41
-30.0
176
     1
 62
     5
 63
     7
421
 16777215
176
     1
 74
     1
176
     1
 91
        0
176
     1
 64
     7
176
     1
 65
   257
176
     1
 75
     1
176
     1
175
     1
176
     1
 42
1.0
176
     1
 92
        8
176
     1
 66
     8
424
  7895160
176
     1
 43
1.0
176
     1
 76
     1
176
     1
 77
     6
176
     1
 78
     2
176
     1
 67
     7
176
     1
 79
     5
176
     1
170
     0
176
     1
171
     0
176
     1
290
     0
176
     1
 93
       13
176
     1
 44
0.0
176
     1
173
     0
176
     1
  0
VISUALSTYLE
  5
37
102
{ACAD_REACTORS
330
2A
102
}
330
2A
100
AcDbVisualStyle
  2
Thicken
 70
    13
177
     2
291
     1
 71
     2
176
     1
 72
     2
176
     1
 73
     0
176
     1
 90
        0
176
     1
 40
-0.6
176
     1
 41
-30.0
176
     1
 62
     5
 63
     7
421
 16777215
176
     1
 74
     1
176
     1
 91
        4
176
     1
 64
     7
176
     1
 65
   257
176
     1
 75
     1
176
     1
175
     1
176
     1
 42
1.0
176
     1
 92
       12
176
     1
 66
     7
176
     1
 43
1.0
176
     1
 76
     1
176
     1
 77
     6
176
     1
 78
     2
176
     1
 67
     7
176
     1
 79
     5
176
     1
170
     0
176
     1
171
     0
176
     1
290
     0
176
     1
 93
        1
176
     1
 44
0.0
176
     1
173
     0
176
     1
  0
ENDSEC
  0
EOF
