  0
SECTION
  2
HEADER
  9
$ACADVER
  1
AC1024
  9
$ACADMAINTVER
 70
     6
  9
$DWGCODEPAGE
  3
UNDEFINED
  9
$INSBASE
 10
0.0
 20
0.0
 30
0.0
  9
$EXTMIN
 10
1.000000000000000E+20
 20
1.000000000000000E+20
 30
1.000000000000000E+20
  9
$EXTMAX
 10
-1.000000000000000E+20
 20
-1.000000000000000E+20
 30
-1.000000000000000E+20
  9
$LIMMIN
 10
0.0
 20
0.0
  9
$LIMMAX
 10
12.0
 20
9.0
  9
$ORTHOMODE
 70
     0
  9
$REGENMODE
 70
     1
  9
$FILLMODE
 70
     1
  9
$QTEXTMODE
 70
     0
  9
$MIRRTEXT
 70
     1
  9
$LTSCALE
 40
1.0
  9
$ATTMODE
 70
     1
  9
$TEXTSIZE
 40
0.2
  9
$TRACEWID
 40
0.05
  9
$TEXTSTYLE
  7
Standard
  9
$CLAYER
  8
0
  9
$CELTYPE
  6
ByLayer
  9
$CECOLOR
 62
   256
  9
$CELTSCALE
 40
1.0
  9
$DISPSILH
 70
     0
  9
$DIMSCALE
 40
1.0
  9
$DIMASZ
 40
0.18
  9
$DIMEXO
 40
0.0625
  9
$DIMDLI
 40
0.38
  9
$DIMRND
 40
0.0
  9
$DIMDLE
 40
0.0
  9
$DIMEXE
 40
0.18
  9
$DIMTP
 40
0.0
  9
$DIMTM
 40
0.0
  9
$DIMTXT
 40
0.18
  9
$DIMCEN
 40
0.09
  9
$DIMTSZ
 40
0.0
  9
$DIMTOL
 70
     0
  9
$DIMLIM
 70
     0
  9
$DIMTIH
 70
     1
  9
$DIMTOH
 70
     1
  9
$DIMSE1
 70
     0
  9
$DIMSE2
 70
     0
  9
$DIMTAD
 70
     0
  9
$DIMZIN
 70
     0
  9
$DIMBLK
  1

  9
$DIMASO
 70
     1
  9
$DIMSHO
 70
     1
  9
$DIMPOST
  1

  9
$DIMAPOST
  1

  9
$DIMALT
 70
     0
  9
$DIMALTD
 70
     2
  9
$DIMALTF
 40
25.4
  9
$DIMLFAC
 40
1.0
  9
$DIMTOFL
 70
     0
  9
$DIMTVP
 40
0.0
  9
$DIMTIX
 70
     0
  9
$DIMSOXD
 70
     0
  9
$DIMSAH
 70
     0
  9
$DIMBLK1
  1

  9
$DIMBLK2
  1

  9
$DIMSTYLE
  2
Standard
  9
$DIMCLRD
 70
     0
  9
$DIMCLRE
 70
     0
  9
$DIMCLRT
 70
     0
  9
$DIMTFAC
 40
1.0
  9
$DIMGAP
 40
0.09
  9
$DIMJUST
 70
     0
  9
$DIMSD1
 70
     0
  9
$DIMSD2
 70
     0
  9
$DIMTOLJ
 70
     1
  9
$DIMTZIN
 70
     0
  9
$DIMALTZ
 70
     0
  9
$DIMALTTZ
 70
     0
  9
$DIMUPT
 70
     0
  9
$DIMDEC
 70
     4
  9
$DIMTDEC
 70
     4
  9
$DIMALTU
 70
     2
  9
$DIMALTTD
 70
     2
  9
$DIMTXSTY
  7
Standard
  9
$DIMAUNIT
 70
     0
  9
$DIMADEC
 70
     0
  9
$DIMALTRND
 40
0.0
  9
$DIMAZIN
 70
     0
  9
$DIMDSEP
 70
    46
  9
$DIMATFIT
 70
     3
  9
$DIMFRAC
 70
     0
  9
$DIMLDRBLK
  1

  9
$DIMLUNIT
 70
     2
  9
$DIMLWD
 70
    -2
  9
$DIMLWE
 70
    -2
  9
$DIMTMOVE
 70
     0
  9
$DIMFXL
 40
1.0
  9
$DIMFXLON
 70
     0
  9
$DIMJOGANG
 40
0.7853981633974483
  9
$DIMTFILL
 70
     0
  9
$DIMTFILLCLR
 70
     0
  9
$DIMARCSYM
 70
     0
  9
$DIMLTYPE
  6

  9
$DIMLTEX1
  6

  9
$DIMLTEX2
  6

  9
$DIMTXTDIRECTION
 70
     0
  9
$LUNITS
 70
     2
  9
$LUPREC
 70
     4
  9
$SKETCHINC
 40
0.1
  9
$FILLETRAD
 40
0.5
  9
$AUNITS
 70
     0
  9
$AUPREC
 70
     0
  9
$MENU
  1
.
  9
$ELEVATION
 40
0.0
  9
$PELEVATION
 40
0.0
  9
$THICKNESS
 40
0.0
  9
$LIMCHECK
 70
     0
  9
$CHAMFERA
 40
0.5
  9
$CHAMFERB
 40
0.5
  9
$CHAMFERC
 40
1.0
  9
$CHAMFERD
 40
0.0
  9
$SKPOLY
 70
     0
  9
$TDCREATE
 40
2458536.541076377
  9
$TDUCREATE
 40
2458536.874409722
  9
$TDUPDATE
 40
2458536.541076377
  9
$TDUUPDATE
 40
2458536.874409722
  9
$TDINDWG
 40
0.0000000116
  9
$TDUSRTIMER
 40
0.0000000116
  9
$USRTIMER
 70
     1
  9
$ANGBASE
 50
0.0
  9
$ANGDIR
 70
     0
  9
$PDMODE
 70
     0
  9
$PDSIZE
 40
0.0
  9
$PLINEWID
 40
0.0
  9
$SPLFRAME
 70
     0
  9
$SPLINETYPE
 70
     6
  9
$SPLINESEGS
 70
     8
  9
$HANDSEED
  5
186
  9
$SURFTAB1
 70
     6
  9
$SURFTAB2
 70
     6
  9
$SURFTYPE
 70
     6
  9
$SURFU
 70
     6
  9
$SURFV
 70
     6
  9
$UCSBASE
  2

  9
$UCSNAME
  2

  9
$UCSORG
 10
0.0
 20
0.0
 30
0.0
  9
$UCSXDIR
 10
1.0
 20
0.0
 30
0.0
  9
$UCSYDIR
 10
0.0
 20
1.0
 30
0.0
  9
$UCSORTHOREF
  2

  9
$UCSORTHOVIEW
 70
     0
  9
$UCSORGTOP
 10
0.0
 20
0.0
 30
0.0
  9
$UCSORGBOTTOM
 10
0.0
 20
0.0
 30
0.0
  9
$UCSORGLEFT
 10
0.0
 20
0.0
 30
0.0
  9
$UCSORGRIGHT
 10
0.0
 20
0.0
 30
0.0
  9
$UCSORGFRONT
 10
0.0
 20
0.0
 30
0.0
  9
$UCSORGBACK
 10
0.0
 20
0.0
 30
0.0
  9
$PUCSBASE
  2

  9
$PUCSNAME
  2

  9
$PUCSORG
 10
0.0
 20
0.0
 30
0.0
  9
$PUCSXDIR
 10
1.0
 20
0.0
 30
0.0
  9
$PUCSYDIR
 10
0.0
 20
1.0
 30
0.0
  9
$PUCSORTHOREF
  2

  9
$PUCSORTHOVIEW
 70
     0
  9
$PUCSORGTOP
 10
0.0
 20
0.0
 30
0.0
  9
$PUCSORGBOTTOM
 10
0.0
 20
0.0
 30
0.0
  9
$PUCSORGLEFT
 10
0.0
 20
0.0
 30
0.0
  9
$PUCSORGRIGHT
 10
0.0
 20
0.0
 30
0.0
  9
$PUCSORGFRONT
 10
0.0
 20
0.0
 30
0.0
  9
$PUCSORGBACK
 10
0.0
 20
0.0
 30
0.0
  9
$USERI1
 70
     0
  9
$USERI2
 70
     0
  9
$USERI3
 70
     0
  9
$USERI4
 70
     0
  9
$USERI5
 70
     0
  9
$USERR1
 40
0.0
  9
$USERR2
 40
0.0
  9
$USERR3
 40
0.0
  9
$USERR4
 40
0.0
  9
$USERR5
 40
0.0
  9
$WORLDVIEW
 70
     1
  9
$SHADEDGE
 70
     3
  9
$SHADEDIF
 70
    70
  9
$TILEMODE
 70
     1
  9
$MAXACTVP
 70
    64
  9
$PINSBASE
 10
0.0
 20
0.0
 30
0.0
  9
$PLIMCHECK
 70
     0
  9
$PEXTMIN
 10
1.000000000000000E+20
 20
1.000000000000000E+20
 30
1.000000000000000E+20
  9
$PEXTMAX
 10
-1.000000000000000E+20
 20
-1.000000000000000E+20
 30
-1.000000000000000E+20
  9
$PLIMMIN
 10
0.0
 20
0.0
  9
$PLIMMAX
 10
12.0
 20
9.0
  9
$UNITMODE
 70
     0
  9
$VISRETAIN
 70
     1
  9
$PLINEGEN
 70
     0
  9
$PSLTSCALE
 70
     1
  9
$TREEDEPTH
 70
  3020
  9
$CMLSTYLE
  2
Standard
  9
$CMLJUST
 70
     0
  9
$CMLSCALE
 40
1.0
  9
$PROXYGRAPHICS
 70
     1
  9
$MEASUREMENT
 70
     0
  9
$CELWEIGHT
370
    -1
  9
$ENDCAPS
280
     0
  9
$JOINSTYLE
280
     0
  9
$LWDISPLAY
290
     1
  9
$INSUNITS
 70
     1
  9
$HYPERLINKBASE
  1

  9
$STYLESHEET
  1

  9
$XEDIT
290
     1
  9
$CEPSNTYPE
380
     0
  9
$PSTYLEMODE
290
     1
  9
$FINGERPRINTGUID
  2
{AD619C12-6D66-63D9-8442-4054BBDE3269}
  9
$VERSIONGUID
  2
{FAEB1C32-E019-11D5-929B-00C0DF256EC4}
  9
$EXTNAMES
290
     1
  9
$PSVPSCALE
 40
0.0
  9
$OLESTARTUP
290
     0
  9
$SORTENTS
280
   127
  9
$INDEXCTL
280
     0
  9
$HIDETEXT
280
     1
  9
$XCLIPFRAME
280
     2
  9
$HALOGAP
280
     0
  9
$OBSCOLOR
 70
   257
  9
$OBSLTYPE
280
     0
  9
$INTERSECTIONDISPLAY
280
     0
  9
$INTERSECTIONCOLOR
 70
   257
  9
$DIMASSOC
280
     2
  9
$PROJECTNAME
  1

  9
$CAMERADISPLAY
290
     0
  9
$LENSLENGTH
 40
50.0
  9
$CAMERAHEIGHT
 40
0.0
  9
$STEPSPERSEC
 40
2.0
  9
$STEPSIZE
 40
6.0
  9
$3DDWFPREC
 40
2.0
  9
$PSOLWIDTH
 40
0.25
  9
$PSOLHEIGHT
 40
4.0
  9
$LOFTANG1
 40
1.570796326794897
  9
$LOFTANG2
 40
1.570796326794897
  9
$LOFTMAG1
 40
0.0
  9
$LOFTMAG2
 40
0.0
  9
$LOFTPARAM
 70
     7
  9
$LOFTNORMALS
280
     1
  9
$LATITUDE
 40
37.795
  9
$LONGITUDE
 40
-122.394
  9
$NORTHDIRECTION
 40
0.0
  9
$TIMEZONE
 70
 -8000
  9
$LIGHTGLYPHDISPLAY
280
     1
  9
$TILEMODELIGHTSYNCH
280
     1
  9
$CMATERIAL
347
3C
  9
$SOLIDHIST
280
     1
  9
$SHOWHIST
280
     1
  9
$DWFFRAME
280
     2
  9
$DGNFRAME
280
     2
  9
$REALWORLDSCALE
290
     1
  9
$INTERFERECOLOR
 62
   256
  9
$CSHADOW
280
     0
  9
$SHADOWPLANELOCATION
 40
0.0
  0
ENDSEC
  0
SECTION
  2
CLASSES
  0
CLASS
  1
ACDBDICTIONARYWDFLT
  2
AcDbDictionaryWithDefault
  3
ObjectDBX Classes
 90
        0
 91
        4
280
     0
281
     0
  0
CLASS
  1
VISUALSTYLE
  2
AcDbVisualStyle
  3
ObjectDBX Classes
 90
     4095
 91
        4
280
     0
281
     0
  0
CLASS
  1
MATERIAL
  2
AcDbMaterial
  3
ObjectDBX Classes
 90
     1153
 91
        4
280
     0
281
     0
  0
CLASS
  1
SUN
  2
AcDbSun
  3
SCENEOE
 90
     1024
 91
        4
280
     0
281
     0
  0
ENDSEC
  0
SECTION
  2
TABLES
  0
TABLE
  2
VPORT
  5
8
330
0
100
AcDbSymbolTable
 70
     1
  0
VPORT
  5
29
330
8
100
AcDbSymbolTableRecord
100
AcDbViewportTableRecord
  2
*Active
 70
     0
 10
0.0
 20
0.0
 11
1.0
 21
1.0
 12
0.0
 22
0.0
 13
0.0
 23
0.0
 14
0.5
 24
0.5
 15
0.5
 25
0.5
 16
0.0
 26
0.0
 36
1.0
 17
15.80972290039062
 27
11.89722188313802
 37
0.0
 40
23.79444376627604
 41
1.328858371784913
 42
50.0
 43
0.0
 44
0.0
 50
0.0
 51
0.0
 71
     0
 72
   100
 73
     1
 74
     3
 75
     0
 76
     0
 77
     0
 78
     0
281
     0
 65
     1
110
0.0
120
0.0
130
0.0
111
1.0
121
0.0
131
0.0
112
0.0
122
1.0
132
0.0
 79
     0
146
0.0
 60
     3
 61
     5
292
     1
282
     1
141
0.0
142
0.0
 63
   250
361
3F
  0
ENDTAB
  0
TABLE
  2
LTYPE
  5
5
330
0
100
AcDbSymbolTable
 70
     1
  0
LTYPE
  5
14
330
5
100
AcDbSymbolTableRecord
100
AcDbLinetypeTableRecord
  2
ByBlock
 70
     0
  3

 72
    65
 73
     0
 40
0.0
  0
LTYPE
  5
15
330
5
100
AcDbSymbolTableRecord
100
AcDbLinetypeTableRecord
  2
ByLayer
 70
     0
  3

 72
    65
 73
     0
 40
0.0
  0
LTYPE
  5
16
330
5
100
AcDbSymbolTableRecord
100
AcDbLinetypeTableRecord
  2
Continuous
 70
     0
  3
Solid line
 72
    65
 73
     0
 40
0.0
  0
ENDTAB
  0
TABLE
  2
LAYER
  5
2
330
0
100
AcDbSymbolTable
 70
     3
  0
LAYER
  5
10
330
2
100
AcDbSymbolTableRecord
100
AcDbLayerTableRecord
  2
0
 70
     0
 62
     7
  6
Continuous
370
    -3
390
F
347
3E
  0
LAYER
  5
40
330
2
100
AcDbSymbolTableRecord
100
AcDbLayerTableRecord
  2
Board Outlines
 70
     1
 62
     7
  6
Continuous
370
    -3
390
F
347
3E
  0
LAYER
  5
41
330
2
100
AcDbSymbolTableRecord
100
AcDbLayerTableRecord
  2
Silkscreen
 70
     0
 62
     7
  6
Continuous
370
    -3
390
F
347
3E
  0
ENDTAB
  0
TABLE
  2
STYLE
  5
3
330
0
100
AcDbSymbolTable
 70
     1
  0
STYLE
  5
11
330
3
100
AcDbSymbolTableRecord
100
AcDbTextStyleTableRecord
  2
Standard
 70
     0
 40
0.0
 41
1.0
 50
0.0
 71
     0
 42
0.2
  3
txt
  4

  0
ENDTAB
  0
TABLE
  2
VIEW
  5
6
330
0
100
AcDbSymbolTable
 70
     0
  0
ENDTAB
  0
TABLE
  2
UCS
  5
7
330
0
100
AcDbSymbolTable
 70
     0
  0
ENDTAB
  0
TABLE
  2
APPID
  5
9
330
0
100
AcDbSymbolTable
 70
     1
  0
APPID
  5
12
330
9
100
AcDbSymbolTableRecord
100
AcDbRegAppTableRecord
  2
ACAD
 70
     0
  0
ENDTAB
  0
TABLE
  2
DIMSTYLE
  5
A
330
0
100
AcDbSymbolTable
 70
     1
100
AcDbDimStyleTable
  0
DIMSTYLE
105
27
330
A
100
AcDbSymbolTableRecord
100
AcDbDimStyleTableRecord
  2
Standard
 70
     0
178
     0
340
11
  0
ENDTAB
  0
TABLE
  2
BLOCK_RECORD
  5
1
330
0
100
AcDbSymbolTable
 70
     1
  0
BLOCK_RECORD
  5
1F
330
1
100
AcDbSymbolTableRecord
100
AcDbBlockTableRecord
  2
*Model_Space
340
22
 70
     0
280
     1
281
     0
  0
BLOCK_RECORD
  5
1B
330
1
100
AcDbSymbolTableRecord
100
AcDbBlockTableRecord
  2
*Paper_Space
340
1E
 70
     0
280
     1
281
     0
  0
BLOCK_RECORD
  5
23
330
1
100
AcDbSymbolTableRecord
100
AcDbBlockTableRecord
  2
*Paper_Space0
340
26
 70
     0
280
     1
281
     0
  0
ENDTAB
  0
ENDSEC
  0
SECTION
  2
BLOCKS
  0
BLOCK
  5
20
330
1F
100
AcDbEntity
  8
0
100
AcDbBlockBegin
  2
*Model_Space
 70
     0
 10
0.0
 20
0.0
 30
0.0
  3
*Model_Space
  1

  0
ENDBLK
  5
21
330
1F
100
AcDbEntity
  8
0
100
AcDbBlockEnd
  0
BLOCK
  5
1C
330
1B
100
AcDbEntity
 67
     1
  8
0
100
AcDbBlockBegin
  2
*Paper_Space
 70
     0
 10
0.0
 20
0.0
 30
0.0
  3
*Paper_Space
  1

  0
ENDBLK
  5
1D
330
1B
100
AcDbEntity
 67
     1
  8
0
100
AcDbBlockEnd
  0
BLOCK
  5
24
330
23
100
AcDbEntity
  8
0
100
AcDbBlockBegin
  2
*Paper_Space0
 70
     0
 10
0.0
 20
0.0
 30
0.0
  3
*Paper_Space0
  1

  0
ENDBLK
  5
25
330
23
100
AcDbEntity
  8
0
100
AcDbBlockEnd
  0
ENDSEC
  0
SECTION
  2
ENTITIES
  0
POLYLINE
  5
42
330
1F
100
AcDbEntity
  8
Silkscreen
 62
   140
420
  3059455
370
    35
100
AcDb2dPolyline
 66
     1
 10
0.0
 20
0.0
 30
0.0
  0
VERTEX
  5
43
330
42
100
AcDbEntity
  8
Silkscreen
 62
   140
420
  3059455
370
    35
100
AcDbVertex
100
AcDb2dVertex
 10
3.3125
 20
14.63194359673394
 30
0.0
  0
VERTEX
  5
44
330
42
100
AcDbEntity
  8
Silkscreen
 62
   140
420
  3059455
370
    35
100
AcDbVertex
100
AcDb2dVertex
 10
3.509722179836697
 20
14.63194359673394
 30
0.0
  0
VERTEX
  5
45
330
42
100
AcDbEntity
  8
Silkscreen
 62
   140
420
  3059455
370
    35
100
AcDbVertex
100
AcDb2dVertex
 10
3.509722179836697
 20
14.43472120496962
 30
0.0
  0
VERTEX
  5
46
330
42
100
AcDbEntity
  8
Silkscreen
 62
   140
420
  3059455
370
    35
100
AcDbVertex
100
AcDb2dVertex
 10
3.3125
 20
14.43472120496962
 30
0.0
  0
VERTEX
  5
47
330
42
100
AcDbEntity
  8
Silkscreen
 62
   140
420
  3059455
370
    35
100
AcDbVertex
100
AcDb2dVertex
 10
3.3125
 20
14.63194359673394
 30
0.0
  0
SEQEND
  5
48
330
42
100
AcDbEntity
  8
Silkscreen
 62
   140
420
  3059455
370
    35
  0
POLYLINE
  5
49
330
1F
100
AcDbEntity
  8
Silkscreen
 62
   140
420
  3059455
370
    35
100
AcDb2dPolyline
 66
     1
 10
0.0
 20
0.0
 30
0.0
  0
VERTEX
  5
4A
330
49
100
AcDbEntity
  8
Silkscreen
 62
   140
420
  3059455
370
    35
100
AcDbVertex
100
AcDb2dVertex
 10
3.411111195882161
 20
14.63194359673394
 30
0.0
  0
VERTEX
  5
4B
330
49
100
AcDbEntity
  8
Silkscreen
 62
   140
420
  3059455
370
    35
100
AcDbVertex
100
AcDb2dVertex
 10
3.411111195882161
 20
14.43472120496962
 30
0.0
  0
SEQEND
  5
4C
330
49
100
AcDbEntity
  8
Silkscreen
 62
   140
420
  3059455
370
    35
  0
POLYLINE
  5
4D
330
1F
100
AcDbEntity
  8
Silkscreen
 62
   140
420
  3059455
370
    35
100
AcDb2dPolyline
 66
     1
 10
0.0
 20
0.0
 30
0.0
  0
VERTEX
  5
4E
330
4D
100
AcDbEntity
  8
Silkscreen
 62
   140
420
  3059455
370
    35
100
AcDbVertex
100
AcDb2dVertex
 10
3.3125
 20
14.53333282470703
 30
0.0
  0
VERTEX
  5
4F
330
4D
100
AcDbEntity
  8
Silkscreen
 62
   140
420
  3059455
370
    35
100
AcDbVertex
100
AcDb2dVertex
 10
3.509722179836697
 20
14.53333282470703
 30
0.0
  0
SEQEND
  5
50
330
4D
100
AcDbEntity
  8
Silkscreen
 62
   140
420
  3059455
370
    35
  0
POLYLINE
  5
51
330
1F
100
AcDbEntity
  8
Silkscreen
 62
   140
420
  3059455
370
    35
100
AcDb2dPolyline
 66
     1
 10
0.0
 20
0.0
 30
0.0
  0
VERTEX
  5
52
330
51
100
AcDbEntity
  8
Silkscreen
 62
   140
420
  3059455
370
    35
100
AcDbVertex
100
AcDb2dVertex
 10
4.534722222222222
 20
19.96527693006727
 30
0.0
  0
VERTEX
  5
53
330
51
100
AcDbEntity
  8
Silkscreen
 62
   140
420
  3059455
370
    35
100
AcDbVertex
100
AcDb2dVertex
 10
4.731944613986545
 20
19.96527693006727
 30
0.0
  0
VERTEX
  5
54
330
51
100
AcDbEntity
  8
Silkscreen
 62
   140
420
  3059455
370
    35
100
AcDbVertex
100
AcDb2dVertex
 10
4.731944613986545
 20
19.76805453830295
 30
0.0
  0
VERTEX
  5
55
330
51
100
AcDbEntity
  8
Silkscreen
 62
   140
420
  3059455
370
    35
100
AcDbVertex
100
AcDb2dVertex
 10
4.534722222222222
 20
19.76805453830295
 30
0.0
  0
VERTEX
  5
56
330
51
100
AcDbEntity
  8
Silkscreen
 62
   140
420
  3059455
370
    35
100
AcDbVertex
100
AcDb2dVertex
 10
4.534722222222222
 20
19.96527693006727
 30
0.0
  0
SEQEND
  5
57
330
51
100
AcDbEntity
  8
Silkscreen
 62
   140
420
  3059455
370
    35
  0
POLYLINE
  5
58
330
1F
100
AcDbEntity
  8
Silkscreen
 62
   140
420
  3059455
370
    35
100
AcDb2dPolyline
 66
     1
 10
0.0
 20
0.0
 30
0.0
  0
VERTEX
  5
59
330
58
100
AcDbEntity
  8
Silkscreen
 62
   140
420
  3059455
370
    35
100
AcDbVertex
100
AcDb2dVertex
 10
4.633333418104383
 20
19.96527693006727
 30
0.0
  0
VERTEX
  5
5A
330
58
100
AcDbEntity
  8
Silkscreen
 62
   140
420
  3059455
370
    35
100
AcDbVertex
100
AcDb2dVertex
 10
4.633333418104383
 20
19.7680549621582
 30
0.0
  0
SEQEND
  5
5B
330
58
100
AcDbEntity
  8
Silkscreen
 62
   140
420
  3059455
370
    35
  0
POLYLINE
  5
5C
330
1F
100
AcDbEntity
  8
Silkscreen
 62
   140
420
  3059455
370
    35
100
AcDb2dPolyline
 66
     1
 10
0.0
 20
0.0
 30
0.0
  0
VERTEX
  5
5D
330
5C
100
AcDbEntity
  8
Silkscreen
 62
   140
420
  3059455
370
    35
100
AcDbVertex
100
AcDb2dVertex
 10
4.534722222222222
 20
19.86666615804036
 30
0.0
  0
VERTEX
  5
5E
330
5C
100
AcDbEntity
  8
Silkscreen
 62
   140
420
  3059455
370
    35
100
AcDbVertex
100
AcDb2dVertex
 10
4.731944613986545
 20
19.86666615804036
 30
0.0
  0
SEQEND
  5
5F
330
5C
100
AcDbEntity
  8
Silkscreen
 62
   140
420
  3059455
370
    35
  0
POLYLINE
  5
60
330
1F
100
AcDbEntity
  8
Silkscreen
 62
   140
420
  3059455
370
    35
100
AcDb2dPolyline
 66
     1
 10
0.0
 20
0.0
 30
0.0
  0
VERTEX
  5
61
330
60
100
AcDbEntity
  8
Silkscreen
 62
   140
420
  3059455
370
    35
100
AcDbVertex
100
AcDb2dVertex
 10
3.55000008477105
 20
19.09166590372721
 30
0.0
  0
VERTEX
  5
62
330
60
100
AcDbEntity
  8
Silkscreen
 62
   140
420
  3059455
370
    35
100
AcDbVertex
100
AcDb2dVertex
 10
3.747222476535373
 20
19.09166590372721
 30
0.0
  0
VERTEX
  5
63
330
60
100
AcDbEntity
  8
Silkscreen
 62
   140
420
  3059455
370
    35
100
AcDbVertex
100
AcDb2dVertex
 10
3.747222476535373
 20
18.89444351196289
 30
0.0
  0
VERTEX
  5
64
330
60
100
AcDbEntity
  8
Silkscreen
 62
   140
420
  3059455
370
    35
100
AcDbVertex
100
AcDb2dVertex
 10
3.55000008477105
 20
18.89444351196289
 30
0.0
  0
VERTEX
  5
65
330
60
100
AcDbEntity
  8
Silkscreen
 62
   140
420
  3059455
370
    35
100
AcDbVertex
100
AcDb2dVertex
 10
3.55000008477105
 20
19.09166590372721
 30
0.0
  0
SEQEND
  5
66
330
60
100
AcDbEntity
  8
Silkscreen
 62
   140
420
  3059455
370
    35
  0
POLYLINE
  5
67
330
1F
100
AcDbEntity
  8
Silkscreen
 62
   140
420
  3059455
370
    35
100
AcDb2dPolyline
 66
     1
 10
0.0
 20
0.0
 30
0.0
  0
VERTEX
  5
68
330
67
100
AcDbEntity
  8
Silkscreen
 62
   140
420
  3059455
370
    35
100
AcDbVertex
100
AcDb2dVertex
 10
3.648611280653212
 20
19.09166590372721
 30
0.0
  0
VERTEX
  5
69
330
67
100
AcDbEntity
  8
Silkscreen
 62
   140
420
  3059455
370
    35
100
AcDbVertex
100
AcDb2dVertex
 10
3.648611280653212
 20
18.89444393581814
 30
0.0
  0
SEQEND
  5
6A
330
67
100
AcDbEntity
  8
Silkscreen
 62
   140
420
  3059455
370
    35
  0
POLYLINE
  5
6B
330
1F
100
AcDbEntity
  8
Silkscreen
 62
   140
420
  3059455
370
    35
100
AcDb2dPolyline
 66
     1
 10
0.0
 20
0.0
 30
0.0
  0
VERTEX
  5
6C
330
6B
100
AcDbEntity
  8
Silkscreen
 62
   140
420
  3059455
370
    35
100
AcDbVertex
100
AcDb2dVertex
 10
3.55000008477105
 20
18.99305470784505
 30
0.0
  0
VERTEX
  5
6D
330
6B
100
AcDbEntity
  8
Silkscreen
 62
   140
420
  3059455
370
    35
100
AcDbVertex
100
AcDb2dVertex
 10
3.747222052680121
 20
18.99305470784505
 30
0.0
  0
SEQEND
  5
6E
330
6B
100
AcDbEntity
  8
Silkscreen
 62
   140
420
  3059455
370
    35
  0
POLYLINE
  5
6F
330
1F
100
AcDbEntity
  8
Silkscreen
 62
   140
420
  3059455
370
    35
100
AcDb2dPolyline
 66
     1
 10
0.0
 20
0.0
 30
0.0
  0
VERTEX
  5
70
330
6F
100
AcDbEntity
  8
Silkscreen
 62
   140
420
  3059455
370
    35
100
AcDbVertex
100
AcDb2dVertex
 10
3.55000008477105
 20
18.18333265516493
 30
0.0
  0
VERTEX
  5
71
330
6F
100
AcDbEntity
  8
Silkscreen
 62
   140
420
  3059455
370
    35
100
AcDbVertex
100
AcDb2dVertex
 10
3.747222476535373
 20
18.18333265516493
 30
0.0
  0
VERTEX
  5
72
330
6F
100
AcDbEntity
  8
Silkscreen
 62
   140
420
  3059455
370
    35
100
AcDbVertex
100
AcDb2dVertex
 10
3.747222476535373
 20
17.98611026340061
 30
0.0
  0
VERTEX
  5
73
330
6F
100
AcDbEntity
  8
Silkscreen
 62
   140
420
  3059455
370
    35
100
AcDbVertex
100
AcDb2dVertex
 10
3.55000008477105
 20
17.98611026340061
 30
0.0
  0
VERTEX
  5
74
330
6F
100
AcDbEntity
  8
Silkscreen
 62
   140
420
  3059455
370
    35
100
AcDbVertex
100
AcDb2dVertex
 10
3.55000008477105
 20
18.18333265516493
 30
0.0
  0
SEQEND
  5
75
330
6F
100
AcDbEntity
  8
Silkscreen
 62
   140
420
  3059455
370
    35
  0
POLYLINE
  5
76
330
1F
100
AcDbEntity
  8
Silkscreen
 62
   140
420
  3059455
370
    35
100
AcDb2dPolyline
 66
     1
 10
0.0
 20
0.0
 30
0.0
  0
VERTEX
  5
77
330
76
100
AcDbEntity
  8
Silkscreen
 62
   140
420
  3059455
370
    35
100
AcDbVertex
100
AcDb2dVertex
 10
3.648611280653212
 20
18.18333265516493
 30
0.0
  0
VERTEX
  5
78
330
76
100
AcDbEntity
  8
Silkscreen
 62
   140
420
  3059455
370
    35
100
AcDbVertex
100
AcDb2dVertex
 10
3.648611280653212
 20
17.98749923706055
 30
0.0
  0
SEQEND
  5
79
330
76
100
AcDbEntity
  8
Silkscreen
 62
   140
420
  3059455
370
    35
  0
POLYLINE
  5
7A
330
1F
100
AcDbEntity
  8
Silkscreen
 62
   140
420
  3059455
370
    35
100
AcDb2dPolyline
 66
     1
 10
0.0
 20
0.0
 30
0.0
  0
VERTEX
  5
7B
330
7A
100
AcDbEntity
  8
Silkscreen
 62
   140
420
  3059455
370
    35
100
AcDbVertex
100
AcDb2dVertex
 10
3.55000008477105
 20
18.08472145928277
 30
0.0
  0
VERTEX
  5
7C
330
7A
100
AcDbEntity
  8
Silkscreen
 62
   140
420
  3059455
370
    35
100
AcDbVertex
100
AcDb2dVertex
 10
3.747222052680121
 20
18.08472145928277
 30
0.0
  0
SEQEND
  5
7D
330
7A
100
AcDbEntity
  8
Silkscreen
 62
   140
420
  3059455
370
    35
  0
POLYLINE
  5
7E
330
1F
100
AcDbEntity
  8
Silkscreen
 62
   140
420
  3059455
370
    35
100
AcDb2dPolyline
 66
     1
 10
0.0
 20
0.0
 30
0.0
  0
VERTEX
  5
7F
330
7E
100
AcDbEntity
  8
Silkscreen
 62
   140
420
  3059455
370
    35
100
AcDbVertex
100
AcDb2dVertex
 10
3.55000008477105
 20
13.1124996609158
 30
0.0
  0
VERTEX
  5
80
330
7E
100
AcDbEntity
  8
Silkscreen
 62
   140
420
  3059455
370
    35
100
AcDbVertex
100
AcDb2dVertex
 10
3.747222476535373
 20
13.1124996609158
 30
0.0
  0
VERTEX
  5
81
330
7E
100
AcDbEntity
  8
Silkscreen
 62
   140
420
  3059455
370
    35
100
AcDbVertex
100
AcDb2dVertex
 10
3.747222476535373
 20
12.91527726915147
 30
0.0
  0
VERTEX
  5
82
330
7E
100
AcDbEntity
  8
Silkscreen
 62
   140
420
  3059455
370
    35
100
AcDbVertex
100
AcDb2dVertex
 10
3.55000008477105
 20
12.91527726915147
 30
0.0
  0
VERTEX
  5
83
330
7E
100
AcDbEntity
  8
Silkscreen
 62
   140
420
  3059455
370
    35
100
AcDbVertex
100
AcDb2dVertex
 10
3.55000008477105
 20
13.1124996609158
 30
0.0
  0
SEQEND
  5
84
330
7E
100
AcDbEntity
  8
Silkscreen
 62
   140
420
  3059455
370
    35
  0
POLYLINE
  5
85
330
1F
100
AcDbEntity
  8
Silkscreen
 62
   140
420
  3059455
370
    35
100
AcDb2dPolyline
 66
     1
 10
0.0
 20
0.0
 30
0.0
  0
VERTEX
  5
86
330
85
100
AcDbEntity
  8
Silkscreen
 62
   140
420
  3059455
370
    35
100
AcDbVertex
100
AcDb2dVertex
 10
3.647222306993272
 20
13.1124996609158
 30
0.0
  0
VERTEX
  5
87
330
85
100
AcDbEntity
  8
Silkscreen
 62
   140
420
  3059455
370
    35
100
AcDbVertex
100
AcDb2dVertex
 10
3.647222306993272
 20
12.91666581895616
 30
0.0
  0
SEQEND
  5
88
330
85
100
AcDbEntity
  8
Silkscreen
 62
   140
420
  3059455
370
    35
  0
POLYLINE
  5
89
330
1F
100
AcDbEntity
  8
Silkscreen
 62
   140
420
  3059455
370
    35
100
AcDb2dPolyline
 66
     1
 10
0.0
 20
0.0
 30
0.0
  0
VERTEX
  5
8A
330
89
100
AcDbEntity
  8
Silkscreen
 62
   140
420
  3059455
370
    35
100
AcDbVertex
100
AcDb2dVertex
 10
3.55000008477105
 20
13.01527743869358
 30
0.0
  0
VERTEX
  5
8B
330
89
100
AcDbEntity
  8
Silkscreen
 62
   140
420
  3059455
370
    35
100
AcDbVertex
100
AcDb2dVertex
 10
3.745833502875434
 20
13.01527743869358
 30
0.0
  0
SEQEND
  5
8C
330
89
100
AcDbEntity
  8
Silkscreen
 62
   140
420
  3059455
370
    35
  0
POLYLINE
  5
8D
330
1F
100
AcDbEntity
  8
Silkscreen
 62
   140
420
  3059455
370
    35
100
AcDb2dPolyline
 66
     1
 10
0.0
 20
0.0
 30
0.0
  0
VERTEX
  5
8E
330
8D
100
AcDbEntity
  8
Silkscreen
 62
   140
420
  3059455
370
    35
100
AcDbVertex
100
AcDb2dVertex
 10
3.55000008477105
 20
12.81388854980469
 30
0.0
  0
VERTEX
  5
8F
330
8D
100
AcDbEntity
  8
Silkscreen
 62
   140
420
  3059455
370
    35
100
AcDbVertex
100
AcDb2dVertex
 10
3.747222476535373
 20
12.81388854980469
 30
0.0
  0
VERTEX
  5
90
330
8D
100
AcDbEntity
  8
Silkscreen
 62
   140
420
  3059455
370
    35
100
AcDbVertex
100
AcDb2dVertex
 10
3.747222476535373
 20
12.61666615804036
 30
0.0
  0
VERTEX
  5
91
330
8D
100
AcDbEntity
  8
Silkscreen
 62
   140
420
  3059455
370
    35
100
AcDbVertex
100
AcDb2dVertex
 10
3.55000008477105
 20
12.61666615804036
 30
0.0
  0
VERTEX
  5
92
330
8D
100
AcDbEntity
  8
Silkscreen
 62
   140
420
  3059455
370
    35
100
AcDbVertex
100
AcDb2dVertex
 10
3.55000008477105
 20
12.81388854980469
 30
0.0
  0
SEQEND
  5
93
330
8D
100
AcDbEntity
  8
Silkscreen
 62
   140
420
  3059455
370
    35
  0
POLYLINE
  5
94
330
1F
100
AcDbEntity
  8
Silkscreen
 62
   140
420
  3059455
370
    35
100
AcDb2dPolyline
 66
     1
 10
0.0
 20
0.0
 30
0.0
  0
VERTEX
  5
95
330
94
100
AcDbEntity
  8
Silkscreen
 62
   140
420
  3059455
370
    35
100
AcDbVertex
100
AcDb2dVertex
 10
3.647222306993272
 20
12.81388854980469
 30
0.0
  0
VERTEX
  5
96
330
94
100
AcDbEntity
  8
Silkscreen
 62
   140
420
  3059455
370
    35
100
AcDbVertex
100
AcDb2dVertex
 10
3.647222306993272
 20
12.61666615804036
 30
0.0
  0
SEQEND
  5
97
330
94
100
AcDbEntity
  8
Silkscreen
 62
   140
420
  3059455
370
    35
  0
POLYLINE
  5
98
330
1F
100
AcDbEntity
  8
Silkscreen
 62
   140
420
  3059455
370
    35
100
AcDb2dPolyline
 66
     1
 10
0.0
 20
0.0
 30
0.0
  0
VERTEX
  5
99
330
98
100
AcDbEntity
  8
Silkscreen
 62
   140
420
  3059455
370
    35
100
AcDbVertex
100
AcDb2dVertex
 10
3.55000008477105
 20
12.71527693006727
 30
0.0
  0
VERTEX
  5
9A
330
98
100
AcDbEntity
  8
Silkscreen
 62
   140
420
  3059455
370
    35
100
AcDbVertex
100
AcDb2dVertex
 10
3.745833502875434
 20
12.71527693006727
 30
0.0
  0
SEQEND
  5
9B
330
98
100
AcDbEntity
  8
Silkscreen
 62
   140
420
  3059455
370
    35
  0
POLYLINE
  5
9C
330
1F
100
AcDbEntity
  8
Silkscreen
 62
   140
420
  3059455
370
    35
100
AcDb2dPolyline
 66
     1
 10
0.0
 20
0.0
 30
0.0
  0
VERTEX
  5
9D
330
9C
100
AcDbEntity
  8
Silkscreen
 62
   140
420
  3059455
370
    35
100
AcDbVertex
100
AcDb2dVertex
 10
3.222222222222222
 20
17.31527709960938
 30
0.0
  0
VERTEX
  5
9E
330
9C
100
AcDbEntity
  8
Silkscreen
 62
   140
420
  3059455
370
    35
100
AcDbVertex
100
AcDb2dVertex
 10
3.419444402058919
 20
17.31527709960938
 30
0.0
  0
VERTEX
  5
9F
330
9C
100
AcDbEntity
  8
Silkscreen
 62
   140
420
  3059455
370
    35
100
AcDbVertex
100
AcDb2dVertex
 10
3.419444402058919
 20
17.11805470784505
 30
0.0
  0
VERTEX
  5
A0
330
9C
100
AcDbEntity
  8
Silkscreen
 62
   140
420
  3059455
370
    35
100
AcDbVertex
100
AcDb2dVertex
 10
3.222222222222222
 20
17.11805470784505
 30
0.0
  0
VERTEX
  5
A1
330
9C
100
AcDbEntity
  8
Silkscreen
 62
   140
420
  3059455
370
    35
100
AcDbVertex
100
AcDb2dVertex
 10
3.222222222222222
 20
17.31527709960938
 30
0.0
  0
SEQEND
  5
A2
330
9C
100
AcDbEntity
  8
Silkscreen
 62
   140
420
  3059455
370
    35
  0
POLYLINE
  5
A3
330
1F
100
AcDbEntity
  8
Silkscreen
 62
   140
420
  3059455
370
    35
100
AcDb2dPolyline
 66
     1
 10
0.0
 20
0.0
 30
0.0
  0
VERTEX
  5
A4
330
A3
100
AcDbEntity
  8
Silkscreen
 62
   140
420
  3059455
370
    35
100
AcDbVertex
100
AcDb2dVertex
 10
3.320833418104383
 20
17.31527709960938
 30
0.0
  0
VERTEX
  5
A5
330
A3
100
AcDbEntity
  8
Silkscreen
 62
   140
420
  3059455
370
    35
100
AcDbVertex
100
AcDb2dVertex
 10
3.320833418104383
 20
17.11944368150499
 30
0.0
  0
SEQEND
  5
A6
330
A3
100
AcDbEntity
  8
Silkscreen
 62
   140
420
  3059455
370
    35
  0
POLYLINE
  5
A7
330
1F
100
AcDbEntity
  8
Silkscreen
 62
   140
420
  3059455
370
    35
100
AcDb2dPolyline
 66
     1
 10
0.0
 20
0.0
 30
0.0
  0
VERTEX
  5
A8
330
A7
100
AcDbEntity
  8
Silkscreen
 62
   140
420
  3059455
370
    35
100
AcDbVertex
100
AcDb2dVertex
 10
3.222222222222222
 20
17.21666590372721
 30
0.0
  0
VERTEX
  5
A9
330
A7
100
AcDbEntity
  8
Silkscreen
 62
   140
420
  3059455
370
    35
100
AcDbVertex
100
AcDb2dVertex
 10
3.419444402058919
 20
17.21666590372721
 30
0.0
  0
SEQEND
  5
AA
330
A7
100
AcDbEntity
  8
Silkscreen
 62
   140
420
  3059455
370
    35
  0
POLYLINE
  5
AB
330
1F
100
AcDbEntity
  8
Silkscreen
 62
   140
420
  3059455
370
    35
100
AcDb2dPolyline
 66
     1
 10
0.0
 20
0.0
 30
0.0
  0
VERTEX
  5
AC
330
AB
100
AcDbEntity
  8
Silkscreen
 62
   140
420
  3059455
370
    35
100
AcDbVertex
100
AcDb2dVertex
 10
3.222222222222222
 20
16.40277693006727
 30
0.0
  0
VERTEX
  5
AD
330
AB
100
AcDbEntity
  8
Silkscreen
 62
   140
420
  3059455
370
    35
100
AcDbVertex
100
AcDb2dVertex
 10
3.419444402058919
 20
16.40277693006727
 30
0.0
  0
VERTEX
  5
AE
330
AB
100
AcDbEntity
  8
Silkscreen
 62
   140
420
  3059455
370
    35
100
AcDbVertex
100
AcDb2dVertex
 10
3.419444402058919
 20
16.20555453830295
 30
0.0
  0
VERTEX
  5
AF
330
AB
100
AcDbEntity
  8
Silkscreen
 62
   140
420
  3059455
370
    35
100
AcDbVertex
100
AcDb2dVertex
 10
3.222222222222222
 20
16.20555453830295
 30
0.0
  0
VERTEX
  5
B0
330
AB
100
AcDbEntity
  8
Silkscreen
 62
   140
420
  3059455
370
    35
100
AcDbVertex
100
AcDb2dVertex
 10
3.222222222222222
 20
16.40277693006727
 30
0.0
  0
SEQEND
  5
B1
330
AB
100
AcDbEntity
  8
Silkscreen
 62
   140
420
  3059455
370
    35
  0
POLYLINE
  5
B2
330
1F
100
AcDbEntity
  8
Silkscreen
 62
   140
420
  3059455
370
    35
100
AcDb2dPolyline
 66
     1
 10
0.0
 20
0.0
 30
0.0
  0
VERTEX
  5
B3
330
B2
100
AcDbEntity
  8
Silkscreen
 62
   140
420
  3059455
370
    35
100
AcDbVertex
100
AcDb2dVertex
 10
3.320833418104383
 20
16.40277693006727
 30
0.0
  0
VERTEX
  5
B4
330
B2
100
AcDbEntity
  8
Silkscreen
 62
   140
420
  3059455
370
    35
100
AcDbVertex
100
AcDb2dVertex
 10
3.320833418104383
 20
16.20555453830295
 30
0.0
  0
SEQEND
  5
B5
330
B2
100
AcDbEntity
  8
Silkscreen
 62
   140
420
  3059455
370
    35
  0
POLYLINE
  5
B6
330
1F
100
AcDbEntity
  8
Silkscreen
 62
   140
420
  3059455
370
    35
100
AcDb2dPolyline
 66
     1
 10
0.0
 20
0.0
 30
0.0
  0
VERTEX
  5
B7
330
B6
100
AcDbEntity
  8
Silkscreen
 62
   140
420
  3059455
370
    35
100
AcDbVertex
100
AcDb2dVertex
 10
3.222222222222222
 20
16.30416615804036
 30
0.0
  0
VERTEX
  5
B8
330
B6
100
AcDbEntity
  8
Silkscreen
 62
   140
420
  3059455
370
    35
100
AcDbVertex
100
AcDb2dVertex
 10
3.419444402058919
 20
16.30416615804036
 30
0.0
  0
SEQEND
  5
B9
330
B6
100
AcDbEntity
  8
Silkscreen
 62
   140
420
  3059455
370
    35
  0
POLYLINE
  5
BA
330
1F
100
AcDbEntity
  8
Silkscreen
 62
   140
420
  3059455
370
    35
100
AcDb2dPolyline
 66
     1
 10
0.0
 20
0.0
 30
0.0
  0
VERTEX
  5
BB
330
BA
100
AcDbEntity
  8
Silkscreen
 62
   140
420
  3059455
370
    35
100
AcDbVertex
100
AcDb2dVertex
 10
3.220833248562283
 20
14.0124994913737
 30
0.0
  0
VERTEX
  5
BC
330
BA
100
AcDbEntity
  8
Silkscreen
 62
   140
420
  3059455
370
    35
100
AcDbVertex
100
AcDb2dVertex
 10
3.41805542839898
 20
14.0124994913737
 30
0.0
  0
VERTEX
  5
BD
330
BA
100
AcDbEntity
  8
Silkscreen
 62
   140
420
  3059455
370
    35
100
AcDbVertex
100
AcDb2dVertex
 10
3.41805542839898
 20
13.81527709960938
 30
0.0
  0
VERTEX
  5
BE
330
BA
100
AcDbEntity
  8
Silkscreen
 62
   140
420
  3059455
370
    35
100
AcDbVertex
100
AcDb2dVertex
 10
3.220833248562283
 20
13.81527709960938
 30
0.0
  0
VERTEX
  5
BF
330
BA
100
AcDbEntity
  8
Silkscreen
 62
   140
420
  3059455
370
    35
100
AcDbVertex
100
AcDb2dVertex
 10
3.220833248562283
 20
14.0124994913737
 30
0.0
  0
SEQEND
  5
C0
330
BA
100
AcDbEntity
  8
Silkscreen
 62
   140
420
  3059455
370
    35
  0
POLYLINE
  5
C1
330
1F
100
AcDbEntity
  8
Silkscreen
 62
   140
420
  3059455
370
    35
100
AcDb2dPolyline
 66
     1
 10
0.0
 20
0.0
 30
0.0
  0
VERTEX
  5
C2
330
C1
100
AcDbEntity
  8
Silkscreen
 62
   140
420
  3059455
370
    35
100
AcDbVertex
100
AcDb2dVertex
 10
3.319444444444444
 20
14.0124994913737
 30
0.0
  0
VERTEX
  5
C3
330
C1
100
AcDbEntity
  8
Silkscreen
 62
   140
420
  3059455
370
    35
100
AcDbVertex
100
AcDb2dVertex
 10
3.319444444444444
 20
13.81527709960938
 30
0.0
  0
SEQEND
  5
C4
330
C1
100
AcDbEntity
  8
Silkscreen
 62
   140
420
  3059455
370
    35
  0
POLYLINE
  5
C5
330
1F
100
AcDbEntity
  8
Silkscreen
 62
   140
420
  3059455
370
    35
100
AcDb2dPolyline
 66
     1
 10
0.0
 20
0.0
 30
0.0
  0
VERTEX
  5
C6
330
C5
100
AcDbEntity
  8
Silkscreen
 62
   140
420
  3059455
370
    35
100
AcDbVertex
100
AcDb2dVertex
 10
3.220833248562283
 20
13.91388787163628
 30
0.0
  0
VERTEX
  5
C7
330
C5
100
AcDbEntity
  8
Silkscreen
 62
   140
420
  3059455
370
    35
100
AcDbVertex
100
AcDb2dVertex
 10
3.418055640326606
 20
13.91388787163628
 30
0.0
  0
SEQEND
  5
C8
330
C5
100
AcDbEntity
  8
Silkscreen
 62
   140
420
  3059455
370
    35
  0
POLYLINE
  5
C9
330
1F
100
AcDbEntity
  8
Silkscreen
 62
   140
420
  3059455
370
    35
100
AcDb2dPolyline
 66
     1
 10
0.0
 20
0.0
 30
0.0
  0
VERTEX
  5
CA
330
C9
100
AcDbEntity
  8
Silkscreen
 62
   140
420
  3059455
370
    35
100
AcDbVertex
100
AcDb2dVertex
 10
3.222222222222222
 20
13.71249898274739
 30
0.0
  0
VERTEX
  5
CB
330
C9
100
AcDbEntity
  8
Silkscreen
 62
   140
420
  3059455
370
    35
100
AcDbVertex
100
AcDb2dVertex
 10
3.419444402058919
 20
13.71249898274739
 30
0.0
  0
VERTEX
  5
CC
330
C9
100
AcDbEntity
  8
Silkscreen
 62
   140
420
  3059455
370
    35
100
AcDbVertex
100
AcDb2dVertex
 10
3.419444402058919
 20
13.51527659098307
 30
0.0
  0
VERTEX
  5
CD
330
C9
100
AcDbEntity
  8
Silkscreen
 62
   140
420
  3059455
370
    35
100
AcDbVertex
100
AcDb2dVertex
 10
3.222222222222222
 20
13.51527659098307
 30
0.0
  0
VERTEX
  5
CE
330
C9
100
AcDbEntity
  8
Silkscreen
 62
   140
420
  3059455
370
    35
100
AcDbVertex
100
AcDb2dVertex
 10
3.222222222222222
 20
13.71249898274739
 30
0.0
  0
SEQEND
  5
CF
330
C9
100
AcDbEntity
  8
Silkscreen
 62
   140
420
  3059455
370
    35
  0
POLYLINE
  5
D0
330
1F
100
AcDbEntity
  8
Silkscreen
 62
   140
420
  3059455
370
    35
100
AcDb2dPolyline
 66
     1
 10
0.0
 20
0.0
 30
0.0
  0
VERTEX
  5
D1
330
D0
100
AcDbEntity
  8
Silkscreen
 62
   140
420
  3059455
370
    35
100
AcDbVertex
100
AcDb2dVertex
 10
3.320833418104383
 20
13.71249898274739
 30
0.0
  0
VERTEX
  5
D2
330
D0
100
AcDbEntity
  8
Silkscreen
 62
   140
420
  3059455
370
    35
100
AcDbVertex
100
AcDb2dVertex
 10
3.320833418104383
 20
13.51666598849826
 30
0.0
  0
SEQEND
  5
D3
330
D0
100
AcDbEntity
  8
Silkscreen
 62
   140
420
  3059455
370
    35
  0
POLYLINE
  5
D4
330
1F
100
AcDbEntity
  8
Silkscreen
 62
   140
420
  3059455
370
    35
100
AcDb2dPolyline
 66
     1
 10
0.0
 20
0.0
 30
0.0
  0
VERTEX
  5
D5
330
D4
100
AcDbEntity
  8
Silkscreen
 62
   140
420
  3059455
370
    35
100
AcDbVertex
100
AcDb2dVertex
 10
3.222222222222222
 20
13.61527676052517
 30
0.0
  0
VERTEX
  5
D6
330
D4
100
AcDbEntity
  8
Silkscreen
 62
   140
420
  3059455
370
    35
100
AcDbVertex
100
AcDb2dVertex
 10
3.419444402058919
 20
13.61527676052517
 30
0.0
  0
SEQEND
  5
D7
330
D4
100
AcDbEntity
  8
Silkscreen
 62
   140
420
  3059455
370
    35
  0
POLYLINE
  5
D8
330
1F
100
AcDbEntity
  8
Silkscreen
 62
   140
420
  3059455
370
    35
100
AcDb2dPolyline
 66
     1
 10
0.0
 20
0.0
 30
0.0
  0
VERTEX
  5
D9
330
D8
100
AcDbEntity
  8
Silkscreen
 62
   140
420
  3059455
370
    35
100
AcDbVertex
100
AcDb2dVertex
 10
2.894444359673394
 20
15.49444410536024
 30
0.0
  0
VERTEX
  5
DA
330
D8
100
AcDbEntity
  8
Silkscreen
 62
   140
420
  3059455
370
    35
100
AcDbVertex
100
AcDb2dVertex
 10
3.091666539510091
 20
15.49444410536024
 30
0.0
  0
VERTEX
  5
DB
330
D8
100
AcDbEntity
  8
Silkscreen
 62
   140
420
  3059455
370
    35
100
AcDbVertex
100
AcDb2dVertex
 10
3.091666539510091
 20
15.29722171359592
 30
0.0
  0
VERTEX
  5
DC
330
D8
100
AcDbEntity
  8
Silkscreen
 62
   140
420
  3059455
370
    35
100
AcDbVertex
100
AcDb2dVertex
 10
2.894444359673394
 20
15.29722171359592
 30
0.0
  0
VERTEX
  5
DD
330
D8
100
AcDbEntity
  8
Silkscreen
 62
   140
420
  3059455
370
    35
100
AcDbVertex
100
AcDb2dVertex
 10
2.894444359673394
 20
15.49444410536024
 30
0.0
  0
SEQEND
  5
DE
330
D8
100
AcDbEntity
  8
Silkscreen
 62
   140
420
  3059455
370
    35
  0
POLYLINE
  5
DF
330
1F
100
AcDbEntity
  8
Silkscreen
 62
   140
420
  3059455
370
    35
100
AcDb2dPolyline
 66
     1
 10
0.0
 20
0.0
 30
0.0
  0
VERTEX
  5
E0
330
DF
100
AcDbEntity
  8
Silkscreen
 62
   140
420
  3059455
370
    35
100
AcDbVertex
100
AcDb2dVertex
 10
2.993055555555555
 20
15.49444410536024
 30
0.0
  0
VERTEX
  5
E1
330
DF
100
AcDbEntity
  8
Silkscreen
 62
   140
420
  3059455
370
    35
100
AcDbVertex
100
AcDb2dVertex
 10
2.993055555555555
 20
15.29861026340061
 30
0.0
  0
SEQEND
  5
E2
330
DF
100
AcDbEntity
  8
Silkscreen
 62
   140
420
  3059455
370
    35
  0
POLYLINE
  5
E3
330
1F
100
AcDbEntity
  8
Silkscreen
 62
   140
420
  3059455
370
    35
100
AcDb2dPolyline
 66
     1
 10
0.0
 20
0.0
 30
0.0
  0
VERTEX
  5
E4
330
E3
100
AcDbEntity
  8
Silkscreen
 62
   140
420
  3059455
370
    35
100
AcDbVertex
100
AcDb2dVertex
 10
2.894444359673394
 20
15.39722188313802
 30
0.0
  0
VERTEX
  5
E5
330
E3
100
AcDbEntity
  8
Silkscreen
 62
   140
420
  3059455
370
    35
100
AcDbVertex
100
AcDb2dVertex
 10
3.090277777777778
 20
15.39722188313802
 30
0.0
  0
SEQEND
  5
E6
330
E3
100
AcDbEntity
  8
Silkscreen
 62
   140
420
  3059455
370
    35
  0
POLYLINE
  5
E7
330
1F
100
AcDbEntity
  8
Silkscreen
 62
   140
420
  3059455
370
    35
100
AcDb2dPolyline
 66
     1
 10
0.0
 20
0.0
 30
0.0
  0
VERTEX
  5
E8
330
E7
100
AcDbEntity
  8
Silkscreen
 62
   140
420
  3059455
370
    35
100
AcDbVertex
100
AcDb2dVertex
 10
2.893055597941081
 20
13.41388787163628
 30
0.0
  0
VERTEX
  5
E9
330
E7
100
AcDbEntity
  8
Silkscreen
 62
   140
420
  3059455
370
    35
100
AcDbVertex
100
AcDb2dVertex
 10
3.090277777777778
 20
13.41388787163628
 30
0.0
  0
VERTEX
  5
EA
330
E7
100
AcDbEntity
  8
Silkscreen
 62
   140
420
  3059455
370
    35
100
AcDbVertex
100
AcDb2dVertex
 10
3.090277777777778
 20
13.21666547987196
 30
0.0
  0
VERTEX
  5
EB
330
E7
100
AcDbEntity
  8
Silkscreen
 62
   140
420
  3059455
370
    35
100
AcDbVertex
100
AcDb2dVertex
 10
2.893055597941081
 20
13.21666547987196
 30
0.0
  0
VERTEX
  5
EC
330
E7
100
AcDbEntity
  8
Silkscreen
 62
   140
420
  3059455
370
    35
100
AcDbVertex
100
AcDb2dVertex
 10
2.893055597941081
 20
13.41388787163628
 30
0.0
  0
SEQEND
  5
ED
330
E7
100
AcDbEntity
  8
Silkscreen
 62
   140
420
  3059455
370
    35
  0
POLYLINE
  5
EE
330
1F
100
AcDbEntity
  8
Silkscreen
 62
   140
420
  3059455
370
    35
100
AcDb2dPolyline
 66
     1
 10
0.0
 20
0.0
 30
0.0
  0
VERTEX
  5
EF
330
EE
100
AcDbEntity
  8
Silkscreen
 62
   140
420
  3059455
370
    35
100
AcDbVertex
100
AcDb2dVertex
 10
2.991666581895616
 20
13.41388787163628
 30
0.0
  0
VERTEX
  5
F0
330
EE
100
AcDbEntity
  8
Silkscreen
 62
   140
420
  3059455
370
    35
100
AcDbVertex
100
AcDb2dVertex
 10
2.991666581895616
 20
13.21666632758246
 30
0.0
  0
SEQEND
  5
F1
330
EE
100
AcDbEntity
  8
Silkscreen
 62
   140
420
  3059455
370
    35
  0
POLYLINE
  5
F2
330
1F
100
AcDbEntity
  8
Silkscreen
 62
   140
420
  3059455
370
    35
100
AcDb2dPolyline
 66
     1
 10
0.0
 20
0.0
 30
0.0
  0
VERTEX
  5
F3
330
F2
100
AcDbEntity
  8
Silkscreen
 62
   140
420
  3059455
370
    35
100
AcDbVertex
100
AcDb2dVertex
 10
2.893055597941081
 20
13.31527709960938
 30
0.0
  0
VERTEX
  5
F4
330
F2
100
AcDbEntity
  8
Silkscreen
 62
   140
420
  3059455
370
    35
100
AcDbVertex
100
AcDb2dVertex
 10
3.090277777777778
 20
13.31527709960938
 30
0.0
  0
SEQEND
  5
F5
330
F2
100
AcDbEntity
  8
Silkscreen
 62
   140
420
  3059455
370
    35
  0
POLYLINE
  5
F6
330
1F
100
AcDbEntity
  8
Silkscreen
 62
   140
420
  3059455
370
    35
100
AcDb2dPolyline
 66
     1
 10
0.0
 20
0.0
 30
0.0
  0
VERTEX
  5
F7
330
F6
100
AcDbEntity
  8
Silkscreen
 62
   140
420
  3059455
370
    35
100
AcDbVertex
100
AcDb2dVertex
 10
3.109722137451172
 20
14.3124991522895
 30
0.0
  0
VERTEX
  5
F8
330
F6
100
AcDbEntity
  8
Silkscreen
 62
   140
420
  3059455
370
    35
100
AcDbVertex
100
AcDb2dVertex
 10
3.306944317287869
 20
14.3124991522895
 30
0.0
  0
VERTEX
  5
F9
330
F6
100
AcDbEntity
  8
Silkscreen
 62
   140
420
  3059455
370
    35
100
AcDbVertex
100
AcDb2dVertex
 10
3.306944317287869
 20
14.11527676052517
 30
0.0
  0
VERTEX
  5
FA
330
F6
100
AcDbEntity
  8
Silkscreen
 62
   140
420
  3059455
370
    35
100
AcDbVertex
100
AcDb2dVertex
 10
3.109722137451172
 20
14.11527676052517
 30
0.0
  0
VERTEX
  5
FB
330
F6
100
AcDbEntity
  8
Silkscreen
 62
   140
420
  3059455
370
    35
100
AcDbVertex
100
AcDb2dVertex
 10
3.109722137451172
 20
14.3124991522895
 30
0.0
  0
SEQEND
  5
FC
330
F6
100
AcDbEntity
  8
Silkscreen
 62
   140
420
  3059455
370
    35
  0
POLYLINE
  5
FD
330
1F
100
AcDbEntity
  8
Silkscreen
 62
   140
420
  3059455
370
    35
100
AcDb2dPolyline
 66
     1
 10
0.0
 20
0.0
 30
0.0
  0
VERTEX
  5
FE
330
FD
100
AcDbEntity
  8
Silkscreen
 62
   140
420
  3059455
370
    35
100
AcDbVertex
100
AcDb2dVertex
 10
3.208333333333333
 20
14.3124991522895
 30
0.0
  0
VERTEX
  5
FF
330
FD
100
AcDbEntity
  8
Silkscreen
 62
   140
420
  3059455
370
    35
100
AcDbVertex
100
AcDb2dVertex
 10
3.208333333333333
 20
14.11527676052517
 30
0.0
  0
SEQEND
  5
100
330
FD
100
AcDbEntity
  8
Silkscreen
 62
   140
420
  3059455
370
    35
  0
POLYLINE
  5
101
330
1F
100
AcDbEntity
  8
Silkscreen
 62
   140
420
  3059455
370
    35
100
AcDb2dPolyline
 66
     1
 10
0.0
 20
0.0
 30
0.0
  0
VERTEX
  5
102
330
101
100
AcDbEntity
  8
Silkscreen
 62
   140
420
  3059455
370
    35
100
AcDbVertex
100
AcDb2dVertex
 10
3.109722137451172
 20
14.21388838026259
 30
0.0
  0
VERTEX
  5
103
330
101
100
AcDbEntity
  8
Silkscreen
 62
   140
420
  3059455
370
    35
100
AcDbVertex
100
AcDb2dVertex
 10
3.306944529215495
 20
14.21388838026259
 30
0.0
  0
SEQEND
  5
104
330
101
100
AcDbEntity
  8
Silkscreen
 62
   140
420
  3059455
370
    35
  0
POLYLINE
  5
105
330
1F
100
AcDbEntity
  8
Silkscreen
 62
   140
420
  3059455
370
    35
100
AcDb2dPolyline
 66
     1
 10
0.0
 20
0.0
 30
0.0
  0
VERTEX
  5
106
330
105
100
AcDbEntity
  8
Silkscreen
 62
   140
420
  3059455
370
    35
100
AcDbVertex
100
AcDb2dVertex
 10
4.533333248562283
 20
19.64583248562283
 30
0.0
  0
VERTEX
  5
107
330
105
100
AcDbEntity
  8
Silkscreen
 62
   140
420
  3059455
370
    35
100
AcDbVertex
100
AcDb2dVertex
 10
4.730555640326606
 20
19.64583248562283
 30
0.0
  0
VERTEX
  5
108
330
105
100
AcDbEntity
  8
Silkscreen
 62
   140
420
  3059455
370
    35
100
AcDbVertex
100
AcDb2dVertex
 10
4.730555640326606
 20
19.44861009385851
 30
0.0
  0
VERTEX
  5
109
330
105
100
AcDbEntity
  8
Silkscreen
 62
   140
420
  3059455
370
    35
100
AcDbVertex
100
AcDb2dVertex
 10
4.533333248562283
 20
19.44861009385851
 30
0.0
  0
VERTEX
  5
10A
330
105
100
AcDbEntity
  8
Silkscreen
 62
   140
420
  3059455
370
    35
100
AcDbVertex
100
AcDb2dVertex
 10
4.533333248562283
 20
19.64583248562283
 30
0.0
  0
SEQEND
  5
10B
330
105
100
AcDbEntity
  8
Silkscreen
 62
   140
420
  3059455
370
    35
  0
POLYLINE
  5
10C
330
1F
100
AcDbEntity
  8
Silkscreen
 62
   140
420
  3059455
370
    35
100
AcDb2dPolyline
 66
     1
 10
0.0
 20
0.0
 30
0.0
  0
VERTEX
  5
10D
330
10C
100
AcDbEntity
  8
Silkscreen
 62
   140
420
  3059455
370
    35
100
AcDbVertex
100
AcDb2dVertex
 10
4.631944444444444
 20
19.64583248562283
 30
0.0
  0
VERTEX
  5
10E
330
10C
100
AcDbEntity
  8
Silkscreen
 62
   140
420
  3059455
370
    35
100
AcDbVertex
100
AcDb2dVertex
 10
4.631944444444444
 20
19.4499994913737
 30
0.0
  0
SEQEND
  5
10F
330
10C
100
AcDbEntity
  8
Silkscreen
 62
   140
420
  3059455
370
    35
  0
POLYLINE
  5
110
330
1F
100
AcDbEntity
  8
Silkscreen
 62
   140
420
  3059455
370
    35
100
AcDb2dPolyline
 66
     1
 10
0.0
 20
0.0
 30
0.0
  0
VERTEX
  5
111
330
110
100
AcDbEntity
  8
Silkscreen
 62
   140
420
  3059455
370
    35
100
AcDbVertex
100
AcDb2dVertex
 10
4.533333248562283
 20
19.54861026340061
 30
0.0
  0
VERTEX
  5
112
330
110
100
AcDbEntity
  8
Silkscreen
 62
   140
420
  3059455
370
    35
100
AcDbVertex
100
AcDb2dVertex
 10
4.730555640326606
 20
19.54861026340061
 30
0.0
  0
SEQEND
  5
113
330
110
100
AcDbEntity
  8
Silkscreen
 62
   140
420
  3059455
370
    35
  0
POLYLINE
  5
114
330
1F
100
AcDbEntity
  8
Silkscreen
 62
   140
420
  3059455
370
    35
100
AcDb2dPolyline
 66
     1
 10
0.0
 20
0.0
 30
0.0
  0
VERTEX
  5
115
330
114
100
AcDbEntity
  8
Silkscreen
 62
   140
420
  3059455
370
    35
100
AcDbVertex
100
AcDb2dVertex
 10
2.868055555555555
 20
12.79444376627604
 30
0.0
  0
VERTEX
  5
116
330
114
100
AcDbEntity
  8
Silkscreen
 62
   140
420
  3059455
370
    35
100
AcDbVertex
100
AcDb2dVertex
 10
2.868055555555555
 20
12.6374994913737
 30
0.0
  0
SEQEND
  5
117
330
114
100
AcDbEntity
  8
Silkscreen
 62
   140
420
  3059455
370
    35
  0
POLYLINE
  5
118
330
1F
100
AcDbEntity
  8
Silkscreen
 62
   140
420
  3059455
370
    35
100
AcDb2dPolyline
 66
     1
 10
0.0
 20
0.0
 30
0.0
  0
VERTEX
  5
119
330
118
100
AcDbEntity
  8
Silkscreen
 62
   140
420
  3059455
370
    35
100
AcDbVertex
100
AcDb2dVertex
 10
2.868055555555555
 20
12.93611060248481
 30
0.0
  0
VERTEX
  5
11A
330
118
100
AcDbEntity
  8
Silkscreen
 62
   140
420
  3059455
370
    35
100
AcDbVertex
100
AcDb2dVertex
 10
2.868055555555555
 20
13.09305487738715
 30
0.0
  0
SEQEND
  5
11B
330
118
100
AcDbEntity
  8
Silkscreen
 62
   140
420
  3059455
370
    35
  0
POLYLINE
  5
11C
330
1F
100
AcDbEntity
  8
Silkscreen
 62
   140
420
  3059455
370
    35
100
AcDb2dPolyline
 66
     1
 10
0.0
 20
0.0
 30
0.0
  0
VERTEX
  5
11D
330
11C
100
AcDbEntity
  8
Silkscreen
 62
   140
420
  3059455
370
    35
100
AcDbVertex
100
AcDb2dVertex
 10
2.211111280653212
 20
13.39166598849826
 30
0.0
  0
VERTEX
  5
11E
330
11C
100
AcDbEntity
  8
Silkscreen
 62
   140
420
  3059455
370
    35
100
AcDbVertex
100
AcDb2dVertex
 10
2.211111280653212
 20
13.23472171359592
 30
0.0
  0
SEQEND
  5
11F
330
11C
100
AcDbEntity
  8
Silkscreen
 62
   140
420
  3059455
370
    35
  0
POLYLINE
  5
120
330
1F
100
AcDbEntity
  8
Silkscreen
 62
   140
420
  3059455
370
    35
100
AcDb2dPolyline
 66
     1
 10
0.0
 20
0.0
 30
0.0
  0
VERTEX
  5
121
330
120
100
AcDbEntity
  8
Silkscreen
 62
   140
420
  3059455
370
    35
100
AcDbVertex
100
AcDb2dVertex
 10
2.538888719346788
 20
13.69305504692925
 30
0.0
  0
VERTEX
  5
122
330
120
100
AcDbEntity
  8
Silkscreen
 62
   140
420
  3059455
370
    35
100
AcDbVertex
100
AcDb2dVertex
 10
2.538888719346788
 20
13.53611077202691
 30
0.0
  0
SEQEND
  5
123
330
120
100
AcDbEntity
  8
Silkscreen
 62
   140
420
  3059455
370
    35
  0
POLYLINE
  5
124
330
1F
100
AcDbEntity
  8
Silkscreen
 62
   140
420
  3059455
370
    35
100
AcDb2dPolyline
 66
     1
 10
0.0
 20
0.0
 30
0.0
  0
VERTEX
  5
125
330
124
100
AcDbEntity
  8
Silkscreen
 62
   140
420
  3059455
370
    35
100
AcDbVertex
100
AcDb2dVertex
 10
2.538888719346788
 20
13.99305470784505
 30
0.0
  0
VERTEX
  5
126
330
124
100
AcDbEntity
  8
Silkscreen
 62
   140
420
  3059455
370
    35
100
AcDbVertex
100
AcDb2dVertex
 10
2.538888719346788
 20
13.83611043294271
 30
0.0
  0
SEQEND
  5
127
330
124
100
AcDbEntity
  8
Silkscreen
 62
   140
420
  3059455
370
    35
  0
POLYLINE
  5
128
330
1F
100
AcDbEntity
  8
Silkscreen
 62
   140
420
  3059455
370
    35
100
AcDb2dPolyline
 66
     1
 10
0.0
 20
0.0
 30
0.0
  0
VERTEX
  5
129
330
128
100
AcDbEntity
  8
Silkscreen
 62
   140
420
  3059455
370
    35
100
AcDbVertex
100
AcDb2dVertex
 10
2.829166836208767
 20
14.29166666666667
 30
0.0
  0
VERTEX
  5
12A
330
128
100
AcDbEntity
  8
Silkscreen
 62
   140
420
  3059455
370
    35
100
AcDbVertex
100
AcDb2dVertex
 10
2.829166836208767
 20
14.13472154405382
 30
0.0
  0
SEQEND
  5
12B
330
128
100
AcDbEntity
  8
Silkscreen
 62
   140
420
  3059455
370
    35
  0
POLYLINE
  5
12C
330
1F
100
AcDbEntity
  8
Silkscreen
 62
   140
420
  3059455
370
    35
100
AcDb2dPolyline
 66
     1
 10
0.0
 20
0.0
 30
0.0
  0
VERTEX
  5
12D
330
12C
100
AcDbEntity
  8
Silkscreen
 62
   140
420
  3059455
370
    35
100
AcDbVertex
100
AcDb2dVertex
 10
2.736111111111111
 20
14.60972086588542
 30
0.0
  0
VERTEX
  5
12E
330
12C
100
AcDbEntity
  8
Silkscreen
 62
   140
420
  3059455
370
    35
100
AcDbVertex
100
AcDb2dVertex
 10
2.736111111111111
 20
14.45277574327257
 30
0.0
  0
SEQEND
  5
12F
330
12C
100
AcDbEntity
  8
Silkscreen
 62
   140
420
  3059455
370
    35
  0
POLYLINE
  5
130
330
1F
100
AcDbEntity
  8
Silkscreen
 62
   140
420
  3059455
370
    35
100
AcDb2dPolyline
 66
     1
 10
0.0
 20
0.0
 30
0.0
  0
VERTEX
  5
131
330
130
100
AcDbEntity
  8
Silkscreen
 62
   140
420
  3059455
370
    35
100
AcDbVertex
100
AcDb2dVertex
 10
2.181944953070746
 20
15.4736090766059
 30
0.0
  0
VERTEX
  5
132
330
130
100
AcDbEntity
  8
Silkscreen
 62
   140
420
  3059455
370
    35
100
AcDbVertex
100
AcDb2dVertex
 10
2.181944953070746
 20
15.31666395399306
 30
0.0
  0
SEQEND
  5
133
330
130
100
AcDbEntity
  8
Silkscreen
 62
   140
420
  3059455
370
    35
  0
POLYLINE
  5
134
330
1F
100
AcDbEntity
  8
Silkscreen
 62
   140
420
  3059455
370
    35
100
AcDb2dPolyline
 66
     1
 10
0.0
 20
0.0
 30
0.0
  0
VERTEX
  5
135
330
134
100
AcDbEntity
  8
Silkscreen
 62
   140
420
  3059455
370
    35
100
AcDbVertex
100
AcDb2dVertex
 10
2.434722052680121
 20
16.38194444444444
 30
0.0
  0
VERTEX
  5
136
330
134
100
AcDbEntity
  8
Silkscreen
 62
   140
420
  3059455
370
    35
100
AcDbVertex
100
AcDb2dVertex
 10
2.434722052680121
 20
16.2249993218316
 30
0.0
  0
SEQEND
  5
137
330
134
100
AcDbEntity
  8
Silkscreen
 62
   140
420
  3059455
370
    35
  0
POLYLINE
  5
138
330
1F
100
AcDbEntity
  8
Silkscreen
 62
   140
420
  3059455
370
    35
100
AcDb2dPolyline
 66
     1
 10
0.0
 20
0.0
 30
0.0
  0
VERTEX
  5
139
330
138
100
AcDbEntity
  8
Silkscreen
 62
   140
420
  3059455
370
    35
100
AcDbVertex
100
AcDb2dVertex
 10
2.434722052680121
 20
17.13749864366319
 30
0.0
  0
VERTEX
  5
13A
330
138
100
AcDbEntity
  8
Silkscreen
 62
   140
420
  3059455
370
    35
100
AcDbVertex
100
AcDb2dVertex
 10
2.434722052680121
 20
17.29513719346788
 30
0.0
  0
SEQEND
  5
13B
330
138
100
AcDbEntity
  8
Silkscreen
 62
   140
420
  3059455
370
    35
  0
POLYLINE
  5
13C
330
1F
100
AcDbEntity
  8
Silkscreen
 62
   140
420
  3059455
370
    35
100
AcDb2dPolyline
 66
     1
 10
0.0
 20
0.0
 30
0.0
  0
VERTEX
  5
13D
330
13C
100
AcDbEntity
  8
Silkscreen
 62
   140
420
  3059455
370
    35
100
AcDbVertex
100
AcDb2dVertex
 10
2.804167005750868
 20
18.16388787163628
 30
0.0
  0
VERTEX
  5
13E
330
13C
100
AcDbEntity
  8
Silkscreen
 62
   140
420
  3059455
370
    35
100
AcDbVertex
100
AcDb2dVertex
 10
2.804167005750868
 20
18.00694444444444
 30
0.0
  0
SEQEND
  5
13F
330
13C
100
AcDbEntity
  8
Silkscreen
 62
   140
420
  3059455
370
    35
  0
POLYLINE
  5
140
330
1F
100
AcDbEntity
  8
Silkscreen
 62
   140
420
  3059455
370
    35
100
AcDb2dPolyline
 66
     1
 10
0.0
 20
0.0
 30
0.0
  0
VERTEX
  5
141
330
140
100
AcDbEntity
  8
Silkscreen
 62
   140
420
  3059455
370
    35
100
AcDbVertex
100
AcDb2dVertex
 10
2.804167005750868
 20
19.07222154405382
 30
0.0
  0
VERTEX
  5
142
330
140
100
AcDbEntity
  8
Silkscreen
 62
   140
420
  3059455
370
    35
100
AcDbVertex
100
AcDb2dVertex
 10
2.804167005750868
 20
18.91388787163628
 30
0.0
  0
SEQEND
  5
143
330
140
100
AcDbEntity
  8
Silkscreen
 62
   140
420
  3059455
370
    35
  0
POLYLINE
  5
144
330
1F
100
AcDbEntity
  8
Silkscreen
 62
   140
420
  3059455
370
    35
100
AcDb2dPolyline
 66
     1
 10
0.0
 20
0.0
 30
0.0
  0
VERTEX
  5
145
330
144
100
AcDbEntity
  8
Silkscreen
 62
   140
420
  3059455
370
    35
100
AcDbVertex
100
AcDb2dVertex
 10
3.851388719346788
 20
19.62638685438368
 30
0.0
  0
VERTEX
  5
146
330
144
100
AcDbEntity
  8
Silkscreen
 62
   140
420
  3059455
370
    35
100
AcDbVertex
100
AcDb2dVertex
 10
3.851388719346788
 20
19.46944342719184
 30
0.0
  0
SEQEND
  5
147
330
144
100
AcDbEntity
  8
Silkscreen
 62
   140
420
  3059455
370
    35
  0
POLYLINE
  5
148
330
1F
100
AcDbEntity
  8
Silkscreen
 62
   140
420
  3059455
370
    35
100
AcDb2dPolyline
 66
     1
 10
0.0
 20
0.0
 30
0.0
  0
VERTEX
  5
149
330
148
100
AcDbEntity
  8
Silkscreen
 62
   140
420
  3059455
370
    35
100
AcDbVertex
100
AcDb2dVertex
 10
3.688890245225694
 20
19.79583231608073
 30
0.0
  0
VERTEX
  5
14A
330
148
100
AcDbEntity
  8
Silkscreen
 62
   140
420
  3059455
370
    35
100
AcDbVertex
100
AcDb2dVertex
 10
3.688890245225694
 20
19.95277574327257
 30
0.0
  0
SEQEND
  5
14B
330
148
100
AcDbEntity
  8
Silkscreen
 62
   140
420
  3059455
370
    35
  0
POLYLINE
  5
14C
330
1F
100
AcDbEntity
  8
Silkscreen
 62
   140
420
  3059455
370
    35
100
AcDb2dPolyline
 66
     1
 10
0.0
 20
0.0
 30
0.0
  0
VERTEX
  5
14D
330
14C
100
AcDbEntity
  8
Silkscreen
 62
   140
420
  3059455
370
    35
100
AcDbVertex
100
AcDb2dVertex
 10
13.61666700578017
 20
12.79444376603476
 30
0.0
  0
VERTEX
  5
14E
330
14C
100
AcDbEntity
  8
Silkscreen
 62
   140
420
  3059455
370
    35
100
AcDbVertex
100
AcDb2dVertex
 10
13.61666700577312
 20
12.63749949113242
 30
0.0
  0
SEQEND
  5
14F
330
14C
100
AcDbEntity
  8
Silkscreen
 62
   140
420
  3059455
370
    35
  0
POLYLINE
  5
150
330
1F
100
AcDbEntity
  8
Silkscreen
 62
   140
420
  3059455
370
    35
100
AcDb2dPolyline
 66
     1
 10
0.0
 20
0.0
 30
0.0
  0
VERTEX
  5
151
330
150
100
AcDbEntity
  8
Silkscreen
 62
   140
420
  3059455
370
    35
100
AcDbVertex
100
AcDb2dVertex
 10
13.61666700578654
 20
12.93611060224353
 30
0.0
  0
VERTEX
  5
152
330
150
100
AcDbEntity
  8
Silkscreen
 62
   140
420
  3059455
370
    35
100
AcDbVertex
100
AcDb2dVertex
 10
13.61666700579358
 20
13.09305487714587
 30
0.0
  0
SEQEND
  5
153
330
150
100
AcDbEntity
  8
Silkscreen
 62
   140
420
  3059455
370
    35
  0
POLYLINE
  5
154
330
1F
100
AcDbEntity
  8
Silkscreen
 62
   140
420
  3059455
370
    35
100
AcDb2dPolyline
 66
     1
 10
0.0
 20
0.0
 30
0.0
  0
VERTEX
  5
155
330
154
100
AcDbEntity
  8
Silkscreen
 62
   140
420
  3059455
370
    35
100
AcDbVertex
100
AcDb2dVertex
 10
14.27361128070933
 20
13.39166598822749
 30
0.0
  0
VERTEX
  5
156
330
154
100
AcDbEntity
  8
Silkscreen
 62
   140
420
  3059455
370
    35
100
AcDbVertex
100
AcDb2dVertex
 10
14.27361128070229
 20
13.23472171332514
 30
0.0
  0
SEQEND
  5
157
330
154
100
AcDbEntity
  8
Silkscreen
 62
   140
420
  3059455
370
    35
  0
POLYLINE
  5
158
330
1F
100
AcDbEntity
  8
Silkscreen
 62
   140
420
  3059455
370
    35
100
AcDb2dPolyline
 66
     1
 10
0.0
 20
0.0
 30
0.0
  0
VERTEX
  5
159
330
158
100
AcDbEntity
  8
Silkscreen
 62
   140
420
  3059455
370
    35
100
AcDbVertex
100
AcDb2dVertex
 10
13.94583384202929
 20
13.69305504667319
 30
0.0
  0
VERTEX
  5
15A
330
158
100
AcDbEntity
  8
Silkscreen
 62
   140
420
  3059455
370
    35
100
AcDbVertex
100
AcDb2dVertex
 10
13.94583384202224
 20
13.53611077177085
 30
0.0
  0
SEQEND
  5
15B
330
158
100
AcDbEntity
  8
Silkscreen
 62
   140
420
  3059455
370
    35
  0
POLYLINE
  5
15C
330
1F
100
AcDbEntity
  8
Silkscreen
 62
   140
420
  3059455
370
    35
100
AcDb2dPolyline
 66
     1
 10
0.0
 20
0.0
 30
0.0
  0
VERTEX
  5
15D
330
15C
100
AcDbEntity
  8
Silkscreen
 62
   140
420
  3059455
370
    35
100
AcDbVertex
100
AcDb2dVertex
 10
13.94583384204275
 20
13.99305470758899
 30
0.0
  0
VERTEX
  5
15E
330
15C
100
AcDbEntity
  8
Silkscreen
 62
   140
420
  3059455
370
    35
100
AcDbVertex
100
AcDb2dVertex
 10
13.9458338420357
 20
13.83611043268665
 30
0.0
  0
SEQEND
  5
15F
330
15C
100
AcDbEntity
  8
Silkscreen
 62
   140
420
  3059455
370
    35
  0
POLYLINE
  5
160
330
1F
100
AcDbEntity
  8
Silkscreen
 62
   140
420
  3059455
370
    35
100
AcDb2dPolyline
 66
     1
 10
0.0
 20
0.0
 30
0.0
  0
VERTEX
  5
161
330
160
100
AcDbEntity
  8
Silkscreen
 62
   140
420
  3059455
370
    35
100
AcDbVertex
100
AcDb2dVertex
 10
13.65555572519419
 20
14.29166666642363
 30
0.0
  0
VERTEX
  5
162
330
160
100
AcDbEntity
  8
Silkscreen
 62
   140
420
  3059455
370
    35
100
AcDbVertex
100
AcDb2dVertex
 10
13.65555572518714
 20
14.13472154381078
 30
0.0
  0
SEQEND
  5
163
330
160
100
AcDbEntity
  8
Silkscreen
 62
   140
420
  3059455
370
    35
  0
POLYLINE
  5
164
330
1F
100
AcDbEntity
  8
Silkscreen
 62
   140
420
  3059455
370
    35
100
AcDb2dPolyline
 66
     1
 10
0.0
 20
0.0
 30
0.0
  0
VERTEX
  5
165
330
164
100
AcDbEntity
  8
Silkscreen
 62
   140
420
  3059455
370
    35
100
AcDbVertex
100
AcDb2dVertex
 10
13.74861145030612
 20
14.60972086563821
 30
0.0
  0
VERTEX
  5
166
330
164
100
AcDbEntity
  8
Silkscreen
 62
   140
420
  3059455
370
    35
100
AcDbVertex
100
AcDb2dVertex
 10
13.74861145029907
 20
14.45277574302536
 30
0.0
  0
SEQEND
  5
167
330
164
100
AcDbEntity
  8
Silkscreen
 62
   140
420
  3059455
370
    35
  0
POLYLINE
  5
168
330
1F
100
AcDbEntity
  8
Silkscreen
 62
   140
420
  3059455
370
    35
100
AcDb2dPolyline
 66
     1
 10
0.0
 20
0.0
 30
0.0
  0
VERTEX
  5
169
330
168
100
AcDbEntity
  8
Silkscreen
 62
   140
420
  3059455
370
    35
100
AcDbVertex
100
AcDb2dVertex
 10
14.30277760838528
 20
15.47360907633381
 30
0.0
  0
VERTEX
  5
16A
330
168
100
AcDbEntity
  8
Silkscreen
 62
   140
420
  3059455
370
    35
100
AcDbVertex
100
AcDb2dVertex
 10
14.30277760837823
 20
15.31666395372096
 30
0.0
  0
SEQEND
  5
16B
330
168
100
AcDbEntity
  8
Silkscreen
 62
   140
420
  3059455
370
    35
  0
POLYLINE
  5
16C
330
1F
100
AcDbEntity
  8
Silkscreen
 62
   140
420
  3059455
370
    35
100
AcDb2dPolyline
 66
     1
 10
0.0
 20
0.0
 30
0.0
  0
VERTEX
  5
16D
330
16C
100
AcDbEntity
  8
Silkscreen
 62
   140
420
  3059455
370
    35
100
AcDbVertex
100
AcDb2dVertex
 10
14.05000050881668
 20
16.38194444418371
 30
0.0
  0
VERTEX
  5
16E
330
16C
100
AcDbEntity
  8
Silkscreen
 62
   140
420
  3059455
370
    35
100
AcDbVertex
100
AcDb2dVertex
 10
14.05000050880963
 20
16.22499932157086
 30
0.0
  0
SEQEND
  5
16F
330
16C
100
AcDbEntity
  8
Silkscreen
 62
   140
420
  3059455
370
    35
  0
POLYLINE
  5
170
330
1F
100
AcDbEntity
  8
Silkscreen
 62
   140
420
  3059455
370
    35
100
AcDb2dPolyline
 66
     1
 10
0.0
 20
0.0
 30
0.0
  0
VERTEX
  5
171
330
170
100
AcDbEntity
  8
Silkscreen
 62
   140
420
  3059455
370
    35
100
AcDbVertex
100
AcDb2dVertex
 10
14.05000050885059
 20
17.13749864340246
 30
0.0
  0
VERTEX
  5
172
330
170
100
AcDbEntity
  8
Silkscreen
 62
   140
420
  3059455
370
    35
100
AcDbVertex
100
AcDb2dVertex
 10
14.05000050885768
 20
17.29513719320715
 30
0.0
  0
SEQEND
  5
173
330
170
100
AcDbEntity
  8
Silkscreen
 62
   140
420
  3059455
370
    35
  0
POLYLINE
  5
174
330
1F
100
AcDbEntity
  8
Silkscreen
 62
   140
420
  3059455
370
    35
100
AcDb2dPolyline
 66
     1
 10
0.0
 20
0.0
 30
0.0
  0
VERTEX
  5
175
330
174
100
AcDbEntity
  8
Silkscreen
 62
   140
420
  3059455
370
    35
100
AcDbVertex
100
AcDb2dVertex
 10
13.68055555582593
 20
18.16388787139213
 30
0.0
  0
VERTEX
  5
176
330
174
100
AcDbEntity
  8
Silkscreen
 62
   140
420
  3059455
370
    35
100
AcDbVertex
100
AcDb2dVertex
 10
13.68055555581889
 20
18.00694444420029
 30
0.0
  0
SEQEND
  5
177
330
174
100
AcDbEntity
  8
Silkscreen
 62
   140
420
  3059455
370
    35
  0
POLYLINE
  5
178
330
1F
100
AcDbEntity
  8
Silkscreen
 62
   140
420
  3059455
370
    35
100
AcDb2dPolyline
 66
     1
 10
0.0
 20
0.0
 30
0.0
  0
VERTEX
  5
179
330
178
100
AcDbEntity
  8
Silkscreen
 62
   140
420
  3059455
370
    35
100
AcDbVertex
100
AcDb2dVertex
 10
13.68055555586672
 20
19.07222154380967
 30
0.0
  0
VERTEX
  5
17A
330
178
100
AcDbEntity
  8
Silkscreen
 62
   140
420
  3059455
370
    35
100
AcDbVertex
100
AcDb2dVertex
 10
13.6805555558596
 20
18.91388787139213
 30
0.0
  0
SEQEND
  5
17B
330
178
100
AcDbEntity
  8
Silkscreen
 62
   140
420
  3059455
370
    35
  0
POLYLINE
  5
17C
330
1F
100
AcDbEntity
  8
Silkscreen
 62
   140
420
  3059455
370
    35
100
AcDb2dPolyline
 66
     1
 10
0.0
 20
0.0
 30
0.0
  0
VERTEX
  5
17D
330
17C
100
AcDbEntity
  8
Silkscreen
 62
   140
420
  3059455
370
    35
100
AcDbVertex
100
AcDb2dVertex
 10
12.63333384229567
 20
19.62638685418655
 30
0.0
  0
VERTEX
  5
17E
330
17C
100
AcDbEntity
  8
Silkscreen
 62
   140
420
  3059455
370
    35
100
AcDbVertex
100
AcDb2dVertex
 10
12.63333384228863
 20
19.4694434269947
 30
0.0
  0
SEQEND
  5
17F
330
17C
100
AcDbEntity
  8
Silkscreen
 62
   140
420
  3059455
370
    35
  0
POLYLINE
  5
180
330
1F
100
AcDbEntity
  8
Silkscreen
 62
   140
420
  3059455
370
    35
100
AcDb2dPolyline
 66
     1
 10
0.0
 20
0.0
 30
0.0
  0
VERTEX
  5
181
330
180
100
AcDbEntity
  8
Silkscreen
 62
   140
420
  3059455
370
    35
100
AcDbVertex
100
AcDb2dVertex
 10
12.79583231642438
 20
19.79583231587629
 30
0.0
  0
VERTEX
  5
182
330
180
100
AcDbEntity
  8
Silkscreen
 62
   140
420
  3059455
370
    35
100
AcDbVertex
100
AcDb2dVertex
 10
12.79583231643142
 20
19.95277574306813
 30
0.0
  0
SEQEND
  5
183
330
180
100
AcDbEntity
  8
Silkscreen
 62
   140
420
  3059455
370
    35
  0
ENDSEC
  0
SECTION
  2
OBJECTS
  0
DICTIONARY
  5
C
330
0
100
AcDbDictionary
281
     1
  3
ACAD_GROUP
350
D
  3
ACAD_LAYOUT
350
1A
  3
ACAD_MATERIAL
350
3B
  3
ACAD_MLEADERSTYLE
350
185
  3
ACAD_MLINESTYLE
350
17
  3
ACAD_PLOTSETTINGS
350
19
  3
ACAD_PLOTSTYLENAME
350
E
  3
ACAD_TABLESTYLE
350
184
  3
ACAD_VISUALSTYLE
350
2A
  0
SUN
  5
3F
330
29
100
AcDbSun
 90
        1
290
     0
 63
     7
421
 16777215
 40
1.0
291
     1
 91
  2455826
 92
 54000000
292
     0
 70
     2
 71
   256
280
     1
  0
DICTIONARY
  5
D
102
{ACAD_REACTORS
330
C
102
}
330
C
100
AcDbDictionary
281
     1
  0
DICTIONARY
  5
1A
102
{ACAD_REACTORS
330
C
102
}
330
C
100
AcDbDictionary
281
     1
  3
Layout1
350
1E
  3
Layout2
350
26
  3
Model
350
22
  0
DICTIONARY
  5
3B
102
{ACAD_REACTORS
330
C
102
}
330
C
100
AcDbDictionary
281
     1
  3
ByBlock
350
3D
  3
ByLayer
350
3C
  3
Global
350
3E
  0
DICTIONARY
  5
185
102
{ACAD_REACTORS
330
C
102
}
330
C
100
AcDbDictionary
281
     1
  0
DICTIONARY
  5
17
102
{ACAD_REACTORS
330
C
102
}
330
C
100
AcDbDictionary
281
     1
  3
Standard
350
18
  0
DICTIONARY
  5
19
102
{ACAD_REACTORS
330
C
102
}
330
C
100
AcDbDictionary
281
     1
  0
ACDBDICTIONARYWDFLT
  5
E
102
{ACAD_REACTORS
330
C
102
}
330
C
100
AcDbDictionary
281
     1
  3
Normal
350
F
100
AcDbDictionaryWithDefault
340
F
  0
DICTIONARY
  5
184
102
{ACAD_REACTORS
330
C
102
}
330
C
100
AcDbDictionary
281
     1
  0
DICTIONARY
  5
2A
102
{ACAD_REACTORS
330
C
102
}
330
C
100
AcDbDictionary
281
     1
  3
2dWireframe
350
2F
  3
3D Hidden
350
31
  3
3dWireframe
350
30
  3
Basic
350
32
  3
Brighten
350
36
  3
ColorChange
350
3A
  3
Conceptual
350
34
  3
Dim
350
35
  3
Facepattern
350
39
  3
Flat
350
2B
  3
FlatWithEdges
350
2C
  3
Gouraud
350
2D
  3
GouraudWithEdges
350
2E
  3
Linepattern
350
38
  3
Realistic
350
33
  3
Thicken
350
37
  0
LAYOUT
  5
1E
102
{ACAD_REACTORS
330
1A
102
}
330
1A
100
AcDbPlotSettings
  1

  2
none_device
  4

  6

 40
0.0
 41
0.0
 42
0.0
 43
0.0
 44
0.0
 45
0.0
 46
0.0
 47
0.0
 48
0.0
 49
0.0
140
0.0
141
0.0
142
1.0
143
1.0
 70
   688
 72
     0
 73
     0
 74
     5
  7

 75
    16
 76
     0
 77
     2
 78
   300
147
1.0
148
0.0
149
0.0
100
AcDbLayout
  1
Layout1
 70
     1
 71
     1
 10
0.0
 20
0.0
 11
12.0
 21
9.0
 12
0.0
 22
0.0
 32
0.0
 14
1.000000000000000E+20
 24
1.000000000000000E+20
 34
1.000000000000000E+20
 15
-1.000000000000000E+20
 25
-1.000000000000000E+20
 35
-1.000000000000000E+20
146
0.0
 13
0.0
 23
0.0
 33
0.0
 16
1.0
 26
0.0
 36
0.0
 17
0.0
 27
1.0
 37
0.0
 76
     0
330
1B
  0
LAYOUT
  5
26
102
{ACAD_REACTORS
330
1A
102
}
330
1A
100
AcDbPlotSettings
  1

  2
none_device
  4

  6

 40
0.0
 41
0.0
 42
0.0
 43
0.0
 44
0.0
 45
0.0
 46
0.0
 47
0.0
 48
0.0
 49
0.0
140
0.0
141
0.0
142
1.0
143
1.0
 70
   688
 72
     0
 73
     0
 74
     5
  7

 75
    16
 76
     0
 77
     2
 78
   300
147
1.0
148
0.0
149
0.0
100
AcDbLayout
  1
Layout2
 70
     1
 71
     2
 10
0.0
 20
0.0
 11
0.0
 21
0.0
 12
0.0
 22
0.0
 32
0.0
 14
0.0
 24
0.0
 34
0.0
 15
0.0
 25
0.0
 35
0.0
146
0.0
 13
0.0
 23
0.0
 33
0.0
 16
1.0
 26
0.0
 36
0.0
 17
0.0
 27
1.0
 37
0.0
 76
     0
330
23
  0
LAYOUT
  5
22
102
{ACAD_REACTORS
330
1A
102
}
330
1A
100
AcDbPlotSettings
  1

  2
none_device
  4

  6

 40
0.0
 41
0.0
 42
0.0
 43
0.0
 44
0.0
 45
0.0
 46
0.0
 47
0.0
 48
0.0
 49
0.0
140
0.0
141
0.0
142
1.0
143
1.0
 70
  1712
 72
     0
 73
     0
 74
     0
  7

 75
     0
 76
     0
 77
     2
 78
   300
147
1.0
148
0.0
149
0.0
100
AcDbLayout
  1
Model
 70
     1
 71
     0
 10
0.0
 20
0.0
 11
12.0
 21
9.0
 12
0.0
 22
0.0
 32
0.0
 14
1.000000000000000E+20
 24
1.000000000000000E+20
 34
1.000000000000000E+20
 15
-1.000000000000000E+20
 25
-1.000000000000000E+20
 35
-1.000000000000000E+20
146
0.0
 13
0.0
 23
0.0
 33
0.0
 16
1.0
 26
0.0
 36
0.0
 17
0.0
 27
1.0
 37
0.0
 76
     0
330
1F
331
29
  0
MATERIAL
  5
3D
102
{ACAD_REACTORS
330
3B
102
}
330
3B
100
AcDbMaterial
  1
ByBlock
 72
     1
 94
      127
  0
MATERIAL
  5
3C
102
{ACAD_REACTORS
330
3B
102
}
330
3B
100
AcDbMaterial
  1
ByLayer
 72
     1
 94
      127
  0
MATERIAL
  5
3E
102
{ACAD_REACTORS
330
3B
102
}
330
3B
100
AcDbMaterial
  1
Global
 72
     1
 94
      127
  0
MLINESTYLE
  5
18
102
{ACAD_REACTORS
330
17
102
}
330
17
100
AcDbMlineStyle
  2
Standard
 70
     0
  3

 62
   256
 51
90.0
 52
90.0
 71
     2
 49
0.5
 62
   256
  6
BYLAYER
 49
-0.5
 62
   256
  6
BYLAYER
  0
ACDBPLACEHOLDER
  5
F
102
{ACAD_REACTORS
330
E
102
}
330
E
  0
VISUALSTYLE
  5
2F
102
{ACAD_REACTORS
330
2A
102
}
330
2A
100
AcDbVisualStyle
  2
2dWireframe
 70
     4
177
     2
291
     0
 71
     0
176
     1
 72
     2
176
     1
 73
     0
176
     1
 90
        0
176
     1
 40
-0.6
176
     1
 41
-30.0
176
     1
 62
     5
 63
     7
421
 16777215
176
     1
 74
     1
176
     1
 91
        4
176
     1
 64
     7
176
     1
 65
   257
176
     1
 75
     1
176
     1
175
     1
176
     1
 42
1.0
176
     1
 92
        0
176
     1
 66
   257
176
     1
 43
1.0
176
     1
 76
     1
176
     1
 77
     6
176
     1
 78
     2
176
     1
 67
     7
176
     1
 79
     5
176
     1
170
     0
176
     1
171
     0
176
     1
290
     0
176
     1
 93
        1
176
     1
 44
0.0
176
     1
173
     0
176
     1
  0
VISUALSTYLE
  5
31
102
{ACAD_REACTORS
330
2A
102
}
330
2A
100
AcDbVisualStyle
  2
3D Hidden
 70
     6
177
     2
291
     0
 71
     1
176
     1
 72
     2
176
     1
 73
     2
176
     1
 90
        0
176
     1
 40
-0.6
176
     1
 41
-30.0
176
     1
 62
     5
 63
     7
421
 16777215
176
     1
 74
     2
176
     1
 91
        2
176
     1
 64
     7
176
     1
 65
   257
176
     1
 75
     2
176
     1
175
     1
176
     1
 42
40.0
176
     1
 92
        0
176
     1
 66
   257
176
     1
 43
1.0
176
     1
 76
     1
176
     1
 77
     6
176
     1
 78
     2
176
     1
 67
     7
176
     1
 79
     3
176
     1
170
     0
176
     1
171
     0
176
     1
290
     0
176
     1
 93
        1
176
     1
 44
0.0
176
     1
173
     0
176
     1
  0
VISUALSTYLE
  5
30
102
{ACAD_REACTORS
330
2A
102
}
330
2A
100
AcDbVisualStyle
  2
3dWireframe
 70
     5
177
     2
291
     0
 71
     0
176
     1
 72
     2
176
     1
 73
     0
176
     1
 90
        0
176
     1
 40
-0.6
176
     1
 41
-30.0
176
     1
 62
     5
 63
     7
421
 16777215
176
     1
 74
     1
176
     1
 91
        4
176
     1
 64
     7
176
     1
 65
   257
176
     1
 75
     1
176
     1
175
     1
176
     1
 42
1.0
176
     1
 92
        0
176
     1
 66
   257
176
     1
 43
1.0
176
     1
 76
     1
176
     1
 77
     6
176
     1
 78
     2
176
     1
 67
     7
176
     1
 79
     5
176
     1
170
     0
176
     1
171
     0
176
     1
290
     0
176
     1
 93
        1
176
     1
 44
0.0
176
     1
173
     0
176
     1
  0
VISUALSTYLE
  5
32
102
{ACAD_REACTORS
330
2A
102
}
330
2A
100
AcDbVisualStyle
  2
Basic
 70
     7
177
     2
291
     1
 71
     1
176
     1
 72
     0
176
     1
 73
     1
176
     1
 90
        0
176
     1
 40
-0.6
176
     1
 41
-30.0
176
     1
 62
     5
 63
     7
421
 16777215
176
     1
 74
     0
176
     1
 91
        4
176
     1
 64
     7
176
     1
 65
   257
176
     1
 75
     1
176
     1
175
     1
176
     1
 42
1.0
176
     1
 92
        8
176
     1
 66
     7
176
     1
 43
1.0
176
     1
 76
     1
176
     1
 77
     6
176
     1
 78
     2
176
     1
 67
     7
176
     1
 79
     5
176
     1
170
     0
176
     1
171
     0
176
     1
290
     0
176
     1
 93
        1
176
     1
 44
0.0
176
     1
173
     0
176
     1
  0
VISUALSTYLE
  5
36
102
{ACAD_REACTORS
330
2A
102
}
330
2A
100
AcDbVisualStyle
  2
Brighten
 70
    12
177
     2
291
     1
 71
     2
176
     1
 72
     2
176
     1
 73
     0
176
     1
 90
        0
176
     1
 40
-0.6
176
     1
 41
-30.0
176
     1
 62
     5
 63
     7
421
 16777215
176
     1
 74
     1
176
     1
 91
        4
176
     1
 64
     7
176
     1
 65
   257
176
     1
 75
     1
176
     1
175
     1
176
     1
 42
1.0
176
     1
 92
        8
176
     1
 66
     7
176
     1
 43
1.0
176
     1
 76
     1
176
     1
 77
     6
176
     1
 78
     2
176
     1
 67
     7
176
     1
 79
     5
176
     1
170
     0
176
     1
171
     0
176
     1
290
     0
176
     1
 93
        1
176
     1
 44
50.0
176
     1
173
     0
176
     1
  0
VISUALSTYLE
  5
3A
102
{ACAD_REACTORS
330
2A
102
}
330
2A
100
AcDbVisualStyle
  2
ColorChange
 70
    16
177
     2
291
     1
 71
     2
176
     1
 72
     2
176
     1
 73
     3
176
     1
 90
        0
176
     1
 40
-0.6
176
     1
 41
-30.0
176
     1
 62
     5
 63
     8
421
  8421504
176
     1
 74
     1
176
     1
 91
        4
176
     1
 64
     7
176
     1
 65
   257
176
     1
 75
     1
176
     1
175
     1
176
     1
 42
1.0
176
     1
 92
        8
176
     1
 66
     8
424
  8421504
176
     1
 43
1.0
176
     1
 76
     1
176
     1
 77
     6
176
     1
 78
     2
176
     1
 67
     7
176
     1
 79
     5
176
     1
170
     0
176
     1
171
     0
176
     1
290
     0
176
     1
 93
        1
176
     1
 44
0.0
176
     1
173
     0
176
     1
  0
VISUALSTYLE
  5
34
102
{ACAD_REACTORS
330
2A
102
}
330
2A
100
AcDbVisualStyle
  2
Conceptual
 70
     9
177
     2
291
     0
 71
     3
176
     1
 72
     2
176
     1
 73
     0
176
     1
 90
        0
176
     1
 40
-0.6
176
     1
 41
-30.0
176
     1
 62
     5
 63
     7
421
 16777215
176
     1
 74
     2
176
     1
 91
        2
176
     1
 64
     7
176
     1
 65
   257
176
     1
 75
     1
176
     1
175
     1
176
     1
 42
40.0
176
     1
 92
        8
176
     1
 66
     7
176
     1
 43
1.0
176
     1
 76
     1
176
     1
 77
     6
176
     1
 78
     2
176
     1
 67
     7
176
     1
 79
     3
176
     1
170
     0
176
     1
171
     0
176
     1
290
     0
176
     1
 93
        1
176
     1
 44
0.0
176
     1
173
     0
176
     1
  0
VISUALSTYLE
  5
35
102
{ACAD_REACTORS
330
2A
102
}
330
2A
100
AcDbVisualStyle
  2
Dim
 70
    11
177
     2
291
     1
 71
     2
176
     1
 72
     2
176
     1
 73
     0
176
     1
 90
        0
176
     1
 40
-0.6
176
     1
 41
-30.0
176
     1
 62
     5
 63
     7
421
 16777215
176
     1
 74
     1
176
     1
 91
        4
176
     1
 64
     7
176
     1
 65
   257
176
     1
 75
     1
176
     1
175
     1
176
     1
 42
1.0
176
     1
 92
        8
176
     1
 66
     7
176
     1
 43
1.0
176
     1
 76
     1
176
     1
 77
     6
176
     1
 78
     2
176
     1
 67
     7
176
     1
 79
     5
176
     1
170
     0
176
     1
171
     0
176
     1
290
     0
176
     1
 93
        1
176
     1
 44
-50.0
176
     1
173
     0
176
     1
  0
VISUALSTYLE
  5
39
102
{ACAD_REACTORS
330
2A
102
}
330
2A
100
AcDbVisualStyle
  2
Facepattern
 70
    15
177
     2
291
     1
 71
     2
176
     1
 72
     2
176
     1
 73
     0
176
     1
 90
        0
176
     1
 40
-0.6
176
     1
 41
-30.0
176
     1
 62
     5
 63
     7
421
 16777215
176
     1
 74
     1
176
     1
 91
        4
176
     1
 64
     7
176
     1
 65
   257
176
     1
 75
     1
176
     1
175
     1
176
     1
 42
1.0
176
     1
 92
        8
176
     1
 66
     7
176
     1
 43
1.0
176
     1
 76
     1
176
     1
 77
     6
176
     1
 78
     2
176
     1
 67
     7
176
     1
 79
     5
176
     1
170
     0
176
     1
171
     0
176
     1
290
     0
176
     1
 93
        1
176
     1
 44
0.0
176
     1
173
     0
176
     1
  0
VISUALSTYLE
  5
2B
102
{ACAD_REACTORS
330
2A
102
}
330
2A
100
AcDbVisualStyle
  2
Flat
 70
     0
177
     2
291
     1
 71
     2
176
     1
 72
     1
176
     1
 73
     1
176
     1
 90
        2
176
     1
 40
-0.6
176
     1
 41
30.0
176
     1
 62
     5
 63
     7
421
 16777215
176
     1
 74
     0
176
     1
 91
        4
176
     1
 64
     7
176
     1
 65
   257
176
     1
 75
     1
176
     1
175
     1
176
     1
 42
1.0
176
     1
 92
        8
176
     1
 66
     7
176
     1
 43
1.0
176
     1
 76
     1
176
     1
 77
     6
176
     1
 78
     2
176
     1
 67
     7
176
     1
 79
     5
176
     1
170
     0
176
     1
171
     0
176
     1
290
     0
176
     1
 93
       13
176
     1
 44
0.0
176
     1
173
     0
176
     1
  0
VISUALSTYLE
  5
2C
102
{ACAD_REACTORS
330
2A
102
}
330
2A
100
AcDbVisualStyle
  2
FlatWithEdges
 70
     1
177
     2
291
     1
 71
     2
176
     1
 72
     1
176
     1
 73
     1
176
     1
 90
        2
176
     1
 40
-0.6
176
     1
 41
30.0
176
     1
 62
     5
 63
     7
421
 16777215
176
     1
 74
     1
176
     1
 91
        4
176
     1
 64
     7
176
     1
 65
   257
176
     1
 75
     1
176
     1
175
     1
176
     1
 42
1.0
176
     1
 92
        0
176
     1
 66
   257
176
     1
 43
1.0
176
     1
 76
     1
176
     1
 77
     6
176
     1
 78
     2
176
     1
 67
     7
176
     1
 79
     5
176
     1
170
     0
176
     1
171
     0
176
     1
290
     0
176
     1
 93
       13
176
     1
 44
0.0
176
     1
173
     0
176
     1
  0
VISUALSTYLE
  5
2D
102
{ACAD_REACTORS
330
2A
102
}
330
2A
100
AcDbVisualStyle
  2
Gouraud
 70
     2
177
     2
291
     1
 71
     2
176
     1
 72
     2
176
     1
 73
     1
176
     1
 90
        2
176
     1
 40
-0.6
176
     1
 41
30.0
176
     1
 62
     5
 63
     7
421
 16777215
176
     1
 74
     0
176
     1
 91
        4
176
     1
 64
     7
176
     1
 65
   257
176
     1
 75
     1
176
     1
175
     1
176
     1
 42
1.0
176
     1
 92
        0
176
     1
 66
     7
176
     1
 43
1.0
176
     1
 76
     1
176
     1
 77
     6
176
     1
 78
     2
176
     1
 67
     7
176
     1
 79
     5
176
     1
170
     0
176
     1
171
     0
176
     1
290
     0
176
     1
 93
       13
176
     1
 44
0.0
176
     1
173
     0
176
     1
  0
VISUALSTYLE
  5
2E
102
{ACAD_REACTORS
330
2A
102
}
330
2A
100
AcDbVisualStyle
  2
GouraudWithEdges
 70
     3
177
     2
291
     1
 71
     2
176
     1
 72
     2
176
     1
 73
     1
176
     1
 90
        2
176
     1
 40
-0.6
176
     1
 41
30.0
176
     1
 62
     5
 63
     7
421
 16777215
176
     1
 74
     1
176
     1
 91
        4
176
     1
 64
     7
176
     1
 65
   257
176
     1
 75
     1
176
     1
175
     1
176
     1
 42
1.0
176
     1
 92
        0
176
     1
 66
   257
176
     1
 43
1.0
176
     1
 76
     1
176
     1
 77
     6
176
     1
 78
     2
176
     1
 67
     7
176
     1
 79
     5
176
     1
170
     0
176
     1
171
     0
176
     1
290
     0
176
     1
 93
       13
176
     1
 44
0.0
176
     1
173
     0
176
     1
  0
VISUALSTYLE
  5
38
102
{ACAD_REACTORS
330
2A
102
}
330
2A
100
AcDbVisualStyle
  2
Linepattern
 70
    14
177
     2
291
     1
 71
     2
176
     1
 72
     2
176
     1
 73
     0
176
     1
 90
        0
176
     1
 40
-0.6
176
     1
 41
-30.0
176
     1
 62
     5
 63
     7
421
 16777215
176
     1
 74
     1
176
     1
 91
        4
176
     1
 64
     7
176
     1
 65
   257
176
     1
 75
     7
176
     1
175
     7
176
     1
 42
1.0
176
     1
 92
        8
176
     1
 66
     7
176
     1
 43
1.0
176
     1
 76
     1
176
     1
 77
     6
176
     1
 78
     2
176
     1
 67
     7
176
     1
 79
     5
176
     1
170
     0
176
     1
171
     0
176
     1
290
     0
176
     1
 93
        1
176
     1
 44
0.0
176
     1
173
     0
176
     1
  0
VISUALSTYLE
  5
33
102
{ACAD_REACTORS
330
2A
102
}
330
2A
100
AcDbVisualStyle
  2
Realistic
 70
     8
177
     2
291
     0
 71
     2
176
     1
 72
     2
176
     1
 73
     0
176
     1
 90
        0
176
     1
 40
-0.6
176
     1
 41
-30.0
176
     1
 62
     5
 63
     7
421
 16777215
176
     1
 74
     1
176
     1
 91
        0
176
     1
 64
     7
176
     1
 65
   257
176
     1
 75
     1
176
     1
175
     1
176
     1
 42
1.0
176
     1
 92
        8
176
     1
 66
     8
424
  7895160
176
     1
 43
1.0
176
     1
 76
     1
176
     1
 77
     6
176
     1
 78
     2
176
     1
 67
     7
176
     1
 79
     5
176
     1
170
     0
176
     1
171
     0
176
     1
290
     0
176
     1
 93
       13
176
     1
 44
0.0
176
     1
173
     0
176
     1
  0
VISUALSTYLE
  5
37
102
{ACAD_REACTORS
330
2A
102
}
330
2A
100
AcDbVisualStyle
  2
Thicken
 70
    13
177
     2
291
     1
 71
     2
176
     1
 72
     2
176
     1
 73
     0
176
     1
 90
        0
176
     1
 40
-0.6
176
     1
 41
-30.0
176
     1
 62
     5
 63
     7
421
 16777215
176
     1
 74
     1
176
     1
 91
        4
176
     1
 64
     7
176
     1
 65
   257
176
     1
 75
     1
176
     1
175
     1
176
     1
 42
1.0
176
     1
 92
       12
176
     1
 66
     7
176
     1
 43
1.0
176
     1
 76
     1
176
     1
 77
     6
176
     1
 78
     2
176
     1
 67
     7
176
     1
 79
     5
176
     1
170
     0
176
     1
171
     0
176
     1
290
     0
176
     1
 93
        1
176
     1
 44
0.0
176
     1
173
     0
176
     1
  0
ENDSEC
  0
EOF
