<?xml version="1.0" encoding="utf-8"?>
<!-- Generator: Adobe Illustrator 22.1.0, SVG Export Plug-In . SVG Version: 6.00 Build 0)  -->
<svg version="1.1" id="Layer_1" xmlns="http://www.w3.org/2000/svg" xmlns:xlink="http://www.w3.org/1999/xlink" x="0px" y="0px"
	 viewBox="0 0 2276.6 1713.2" style="enable-background:new 0 0 2276.6 1713.2;" xml:space="preserve">
<style type="text/css">
	.st0{display:none;fill:#007005;}
	.st1{fill:none;stroke:#0099DD;stroke-miterlimit:10;}
</style>
<path class="st0" d="M381.8,231.7L381.8,231.7l-11.3-0.1v0.1H139.9V827H1047V231.7H381.8z M258.9,472l0.9-1.3l1.3-0.9l1.6-0.3
	l1.6,0.3l1.3,0.9l0.9,1.3l0.3,1.6l-0.3,1.6l-0.9,1.3l-1.3,0.9l-1.6,0.3l-1.6-0.3l-1.3-0.9l-0.9-1.3l-0.3-1.6L258.9,472z
	 M207.4,334.4h11.3v5.6h-11.3V334.4z M207.4,351.4h11.3v5.7h-11.3V351.4z M207.4,399.7h11.3v5.7h-11.3V399.7z M207.4,416.7h11.3v5.7
	h-11.3V416.7z M186.4,452.4l0.9-1.8l1.4-1.4l1.8-0.9l2-0.3h8.5l2,0.3l1.8,0.9l1.4,1.4l0.9,1.8l0.3,2l-0.3,2l-0.9,1.8l-1.4,1.4
	l-1.8,0.9l-2,0.3h-8.5l-2-0.3l-1.8-0.9l-1.4-1.4l-0.9-1.8l-0.3-2L186.4,452.4z M207.1,494.7l-0.9,1.8l-1.4,1.4l-1.8,0.9l-2,0.3h-8.5
	l-2-0.3l-1.8-0.9l-1.4-1.4l-0.9-1.8l-0.3-2l0.3-2l0.9-1.8l1.4-1.4l1.8-0.9l2-0.3h8.5l2,0.3l1.8,0.9l1.4,1.4l0.9,1.8l0.3,2
	L207.1,494.7z M207.4,520.2l-0.3,2l-0.9,1.8l-1.4,1.4l-1.8,0.9l-2,0.3h-8.5l-2-0.3l-1.8-0.9l-1.4-1.4l-0.9-1.8l-0.3-2l0.3-2l0.9-1.8
	l1.4-1.4l1.8-0.9l2-0.3h8.5l2,0.3l1.8,0.9l1.4,1.4l0.9,1.8L207.4,520.2z M180.8,462.2h11.3v5.7h-11.3V462.2z M180.8,479.3h11.3v5.6
	h-11.3V479.3z M180.8,528h11.3v5.7h-11.3V528z M180.8,545h11.3v5.7h-11.3V545z M162.8,593.3h11.3v5.7h-11.3V593.3z M162.8,610.4h10
	v-0.1h1.3v5.7h-11.3V610.4z M188.9,625.8l-0.9,1.8l-1.4,1.4l-1.8,0.9l-2,0.3h-8.5l-2-0.3l-1.8-0.9l-1.4-1.4l-0.9-1.8l-0.3-2l0.3-2
	l0.9-1.8l1.4-1.4l1.8-0.9l2-0.3h8.5l2,0.3l1.8,0.9l1.4,1.4l0.9,1.8l0.3,2L188.9,625.8z M188.9,587.5l-0.9,1.8l-1.4,1.4l-1.8,0.9
	l-2,0.3h-8.5l-2-0.3l-1.8-0.9l-1.4-1.4l-0.9-1.8l-0.3-2l0.3-2l0.9-1.8l1.4-1.4l1.8-0.9l2-0.3h8.5l2,0.3l1.8,0.9l1.4,1.4l0.9,1.8
	l0.3,2L188.9,587.5z M192.5,564.8l-2-0.3l-1.8-0.9l-1.4-1.4l-0.9-1.8l-0.3-2l0.3-2l0.9-1.8l1.4-1.4l1.8-0.9l2-0.3h8.5l2,0.3l1.8,0.9
	l1.4,1.4l0.9,1.8l0.3,2l-0.3,2l-0.9,1.8l-1.4,1.4l-1.8,0.9l-2,0.3H192.5z M209.8,661.1h-8.5v-5.7h8.5V661.1z M228.7,649.6l-0.9,1.8
	l-1.4,1.4l-1.8,0.9l-2,0.3h-8.5l-2-0.3l-1.8-0.9l-1.4-1.4l-0.9-1.8l-0.3-2l0.3-2l0.9-1.8l1.4-1.4l1.8-0.9l2-0.3h8.5l2,0.3l1.8,0.9
	l1.4,1.4l0.9,1.8l0.3,2L228.7,649.6z M233.7,432.2l-0.9,1.8l-1.4,1.4l-1.8,0.9l-2,0.3h-8.5l-2-0.3l-1.8-0.9l-1.4-1.4l-0.9-1.8
	l-0.3-2l0.3-2l0.9-1.8l1.4-1.4l1.8-0.9l2-0.3h8.5l2,0.3l1.8,0.9l1.4,1.4l0.9,1.8l0.3,2L233.7,432.2z M233.7,393.9l-0.9,1.8l-1.4,1.4
	l-1.8,0.9l-2,0.3h-8.5l-2-0.3l-1.8-0.9l-1.4-1.4l-0.9-1.8l-0.3-2l0.3-2l0.9-1.8l1.4-1.4l1.8-0.9l2-0.3h8.5l2,0.3l1.8,0.9l1.4,1.4
	l0.9,1.8l0.3,2L233.7,393.9z M233.7,366.8l-0.9,1.8l-1.4,1.4l-1.8,0.9l-2,0.3h-8.5l-2-0.3l-1.8-0.9l-1.4-1.4l-0.9-1.8l-0.3-2l0.3-2
	l0.9-1.8l1.4-1.4l1.8-0.9l2-0.3h8.5l2,0.3l1.8,0.9l1.4,1.4l0.9,1.8l0.3,2L233.7,366.8z M233.7,328.6l-0.9,1.8l-1.4,1.4l-1.8,0.9
	l-2,0.3h-8.5l-2-0.3l-1.8-0.9l-1.4-1.4l-0.9-1.8l-0.3-2l0.3-2l0.9-1.8l1.4-1.4l1.8-0.9l2-0.3h8.5l2,0.3l1.8,0.9l1.4,1.4l0.9,1.8
	l0.3,2L233.7,328.6z M243.1,606.2l-0.9,1.3l-1.3,0.9l-1.6,0.3l-1.6-0.3l-1.3-0.9l-0.9-1.3l-0.3-1.6l0.3-1.6l0.9-1.3l1.3-0.9l1.6-0.3
	l1.6,0.3l1.3,0.9l0.9,1.3l0.3,1.6L243.1,606.2z M258.9,537.7l0.9-1.3l1.3-0.9l1.6-0.3l1.6,0.3l1.3,0.9l0.9,1.3l0.3,1.6l-0.3,1.6
	l-0.9,1.3l-1.3,0.9l-1.6,0.3l-1.6-0.3l-1.3-0.9l-0.9-1.3l-0.3-1.6L258.9,537.7z M266.9,667.8l-0.4,1l-0.6,0.8l-0.8,0.7l-0.5,0.3
	l-0.6,0.2l-0.6,0.1l-0.6,0.1l-1.6-0.3l-1.3-0.9l-0.9-1.3l-0.3-1.6l0.1-1.1l0.4-1l0.6-0.8l0.8-0.7l0.5-0.3l0.6-0.2l0.6-0.1l0.6-0.1
	l1.6,0.3l1.3,0.9l0.9,1.3l0.3,1.6L266.9,667.8z M271.3,270.8h11.3v5.7h-11.3V270.8z M290.1,412.6l-0.9,1.3l-1.3,0.9l-1.6,0.3
	l-1.6-0.3l-1.3-0.9l-0.9-1.3l-0.3-1.6l0.3-1.6l0.9-1.3l1.3-0.9l1.6-0.3l1.6,0.3l1.3,0.9l0.9,1.3l0.3,1.6L290.1,412.6z M290.1,347.3
	l-0.9,1.3l-1.3,0.9l-1.6,0.3l-1.6-0.3l-1.3-0.9l-0.9-1.3l-0.3-1.6l0.3-1.6l0.9-1.3l1.3-0.9l1.6-0.3l1.6,0.3l1.3,0.9l0.9,1.3l0.3,1.6
	L290.1,347.3z M297.3,265.6l-0.9,1.8l-1.4,1.4l-1.8,0.9l-2,0.3h-8.5l-2-0.3l-1.8-0.9l-1.4-1.4l-0.9-1.8l-0.3-2l0.3-2l0.9-1.8
	l1.4-1.4l1.8-0.9l2-0.3h8.5l2,0.3l1.8,0.9l1.4,1.4l0.9,1.8l0.3,2L297.3,265.6z M316.9,284.3l-0.9,1.3l-1.3,0.9l-1.6,0.3l-1.6-0.3
	l-1.3-0.9l-0.9-1.3l-0.3-1.6l0.3-1.6l0.9-1.3l1.3-0.9l1.6-0.3l1.6,0.3l1.3,0.9l0.9,1.3l0.3,1.6L316.9,284.3z M1014.6,579.4l1.8,0.9
	l1.4,1.4l0.9,1.8l0.3,2l-0.3,2l-0.9,1.8l-1.4,1.4l-1.8,0.9l-2,0.3h-8.5l-2-0.3l-1.8-0.9l-1.4-1.4l-0.9-1.8l-0.3-2l0.3-2l0.9-1.8
	l1.4-1.4l1.8-0.9l2-0.3h8.5L1014.6,579.4z M968.4,356.8v-5.5h11.3v5.5H968.4z M979.7,399.4v5.7h-11.3v-5.7H979.7z M973.8,394
	l-0.9,1.8l-1.4,1.4l-1.8,0.9l-2,0.3h-8.5l-2-0.3l-1.8-0.9l-1.4-1.4l-0.9-1.8l-0.3-2l0.3-2l0.9-1.8l1.4-1.4l1.8-0.9l2-0.3h8.5l2,0.3
	l1.8,0.9l1.4,1.4l0.9,1.8l0.3,2L973.8,394z M968.4,416.4h0.4v0.2h10.9v5.5h-11.3V416.4z M996.3,486.6l1.8,0.9l1.4,1.4l0.9,1.8l0.3,2
	l-0.3,2l-0.9,1.8l-1.4,1.4l-1.8,0.9l-2,0.3h-8.5l-2-0.3l-1.8-0.9l-1.4-1.4l-0.9-1.8l-0.3-2l0.3-2l0.9-1.8l1.4-1.4l1.8-0.9l2-0.3h8.5
	L996.3,486.6z M994.5,484.9v-5.7h11.3v5.7H994.5z M979.7,518.2l0.9-1.8l1.4-1.4l1.8-0.9l2-0.3h8.5l2,0.3l1.8,0.9l1.4,1.4l0.9,1.8
	l0.3,2l-0.3,2l-0.9,1.8l-1.4,1.4l-1.8,0.9l-2,0.3h-8.5l-2-0.3l-1.8-0.9l-1.4-1.4l-0.9-1.8l-0.3-2L979.7,518.2z M1005.8,528v5.6
	h-11.3V528H1005.8z M994.5,545h11.3v5.7h-11.3V545z M1005.8,467.9h-11.3v-5.7h11.3V467.9z M982,449.2l1.8-0.9l2-0.3h8.5l2,0.3
	l1.8,0.9l1.4,1.4l0.9,1.8l0.3,2l-0.3,2l-0.9,1.8l-1.4,1.4l-1.8,0.9l-2,0.3h-8.5l-2-0.3l-1.8-0.9l-1.4-1.4l-0.9-1.8l-0.3-2l0.3-2
	l0.9-1.8L982,449.2z M979.7,339.8h-11.3v-5.7h11.3V339.8z M953.1,324.6l0.9-1.8l1.4-1.4l1.8-0.9l2-0.3h8.5l2,0.3l1.8,0.9l1.4,1.4
	l0.9,1.8l0.3,2l-0.3,2l-0.9,1.8l-1.4,1.4l-1.8,0.9l-2,0.3h-8.5l-2-0.3l-1.8-0.9l-1.4-1.4l-0.9-1.8l-0.3-2L953.1,324.6z M953,362.8
	l0.9-1.8l1.4-1.4l1.8-0.9l2-0.3h8.5l2,0.3l1.8,0.9l1.4,1.4l0.9,1.8l0.3,2l-0.3,2l-0.9,1.8l-1.4,1.4l-1.8,0.9l-2,0.3h-8.5l-2-0.3
	l-1.8-0.9l-1.4-1.4l-0.9-1.8l-0.3-2L953,362.8z M920.4,472l0.9-1.3l1.3-0.9l1.6-0.3l1.6,0.3l1.3,0.9l0.9,1.3l0.3,1.6l-0.3,1.6
	l-0.9,1.3l-1.3,0.9l-1.6,0.3l-1.6-0.3l-1.3-0.9l-0.9-1.3l-0.3-1.6L920.4,472z M599,284.3v-3.2l0.3,1.6L599,284.3z M620.8,606.4
	l-0.9,1.3l-1.3,0.9l-1.6,0.3l-1.6-0.3l-1.3-0.9l-0.9-1.3l-0.3-1.6l0.3-1.6l0.9-1.3l1.3-0.9l1.6-0.3l1.6,0.3l1.3,0.9l0.9,1.3l0.3,1.6
	L620.8,606.4z M644.4,668.5l-0.9,1.3l-1.3,0.9l-1.6,0.3l-1.6-0.3l-1.3-0.9l-0.9-1.3l-0.3-1.6l0.3-1.6l0.9-1.3l1.3-0.9l1.6-0.3
	l1.6,0.3l1.3,0.9l0.9,1.3l0.3,1.6L644.4,668.5z M645,541l-0.9,1.3l-1.3,0.9l-1.6,0.3l-1.6-0.3l-1.3-0.9l-0.9-1.3l-0.3-1.6l0.3-1.6
	l0.9-1.3l1.3-0.9l1.6-0.3l1.6,0.3l1.3,0.9l0.9,1.3l0.3,1.6L645,541z M645,475.2l-0.9,1.3l-1.3,0.9l-1.6,0.3l-1.6-0.3l-1.3-0.9
	l-0.9-1.3l-0.3-1.6l0.3-1.6l0.9-1.3l1.3-0.9l1.6-0.3l1.6,0.3l1.3,0.9l0.9,1.3l0.3,1.6L645,475.2z M668.3,412.8l-0.9,1.3l-1.3,0.9
	l-1.6,0.3l-1.6-0.3l-1.3-0.9l-0.9-1.3l-0.3-1.6l0.3-1.6l0.9-1.3l1.3-0.9l1.6-0.3l1.6,0.3l1.3,0.9l0.9,1.3l0.3,1.6L668.3,412.8z
	 M668.3,347.5l-0.9,1.3l-1.3,0.9l-1.6,0.3l-1.6-0.3l-1.3-0.9l-0.9-1.3l-0.3-1.6l0.3-1.6l0.9-1.3l1.3-0.9l1.6-0.3l1.6,0.3l1.3,0.9
	l0.9,1.3l0.3,1.6L668.3,347.5z M873.5,286.9c-2.3,0-4.2-1.9-4.2-4.2s1.9-4.2,4.2-4.2s4.2,1.9,4.2,4.2S875.8,286.9,873.5,286.9z
	 M893.6,269.7l-1.8-0.9l-1.4-1.4l-0.9-1.8l-0.3-2l0.3-2l0.9-1.8l1.4-1.4l1.8-0.9l2-0.3h8.5l2,0.3l1.8,0.9l1.4,1.4l0.9,1.8l0.3,2
	l-0.3,2l-0.9,1.8l-1.4,1.4l-1.8,0.9l-2,0.3h-8.5L893.6,269.7z M904.5,412.8l-0.9,1.3l-1.3,0.9l-1.6,0.3L899,415l-1.3-0.9l-0.9-1.3
	l-0.3-1.6l0.3-1.6l0.9-1.3l1.3-0.9l1.6-0.3l1.6,0.3l1.3,0.9l0.9,1.3l0.3,1.6L904.5,412.8z M904.5,347.5l-0.9,1.3l-1.3,0.9l-1.6,0.3
	l-1.6-0.3l-1.3-0.9l-0.9-1.3l-0.3-1.6l0.3-1.6l0.9-1.3l1.3-0.9l1.6-0.3l1.6,0.3l1.3,0.9l0.9,1.3l0.3,1.6L904.5,347.5z M916.1,276.4
	h-11.3v-5.7h11.3V276.4z M920.4,537.7l0.9-1.3l1.3-0.9l1.6-0.3l1.6,0.3l1.3,0.9l0.9,1.3l0.3,1.6l-0.3,1.6l-0.9,1.3l-1.3,0.9
	l-1.6,0.3l-1.6-0.3l-1.3-0.9l-0.9-1.3l-0.3-1.6L920.4,537.7z M928.2,668.3l-0.9,1.3l-1.3,0.9l-1.6,0.3l-1.6-0.3l-1.3-0.9l-0.9-1.3
	l-0.3-1.6l0.3-1.6l0.9-1.3l1.3-0.9l1.6-0.3l1.6,0.3l1.3,0.9l0.9,1.3l0.3,1.6L928.2,668.3z M951.7,606.2l-0.9,1.3l-1.3,0.9l-1.6,0.3
	l-1.6-0.3l-1.3-0.9l-0.9-1.3l-0.3-1.6l0.3-1.6l0.9-1.3l1.3-0.9l1.6-0.3l1.6,0.3l1.3,0.9l0.9,1.3l0.3,1.6L951.7,606.2z M955.3,435.4
	l-1.4-1.4l-0.9-1.8l-0.3-2l0.3-2l0.9-1.8l1.4-1.4l1.8-0.9l2-0.3h8.5l2,0.3l1.8,0.9l1.4,1.4l0.9,1.8l0.3,2l-0.3,2l-0.9,1.8l-1.4,1.4
	l-1.8,0.9l-2,0.3h-8.5l-2-0.3L955.3,435.4z M978.8,649.6l-0.9,1.8l-1.4,1.4l-1.8,0.9l-2,0.3h-8.5l-2-0.3l-1.8-0.9l-1.4-1.4l-0.9-1.8
	l-0.3-2l0.3-2l0.9-1.8l1.4-1.4l1.8-0.9l2-0.3h8.5l2,0.3l1.8,0.9l1.4,1.4l0.9,1.8l0.3,2L978.8,649.6z M994.3,564.8h-8.5l-2-0.3
	l-1.8-0.9l-1.4-1.4l-0.9-1.8l-0.3-2l0.3-2l0.9-1.8l1.4-1.4l1.8-0.9l2-0.3h8.5l2,0.3l1.8,0.9l1.4,1.4l0.9,1.8l0.3,2l-0.3,2l-0.9,1.8
	l-1.4,1.4l-1.8,0.9L994.3,564.8z M1018.6,625.8l-0.9,1.8l-1.4,1.4l-1.8,0.9l-2,0.3h-8.5l-2-0.3l-1.8-0.9l-1.4-1.4l-0.9-1.8l-0.3-2
	l0.3-2l0.9-1.8l1.4-1.4l1.8-0.9l2-0.3h8.5l2,0.3l1.8,0.9l1.4,1.4l0.9,1.8l0.3,2L1018.6,625.8z M1024,616h-11.3v-5.7h11.3V616z
	 M1024,598.9h-9.9v0.1h-1.4v-5.7h11.3V598.9z"/>
<g>
	<polygon class="st1" points="1011,516.3 1010.2,514.7 1008.9,513.4 1007.3,512.6 1005.6,512.3 1004.7,512.3 1004.3,511.5 
		1002.9,510.1 1001.1,509.2 999.1,508.9 980.8,508.9 978.8,509.2 977,510.1 975.6,511.5 975.2,512.3 816.4,512.3 816.4,500.5 
		975.4,500.5 975.8,501.3 977.2,502.7 979,503.6 981,503.9 999.3,503.9 1001.3,503.6 1003.1,502.7 1004.5,501.3 1004.9,500.5 
		1005.8,500.5 1007.5,500.2 1009.1,499.4 1010.4,498.1 1011.2,496.5 1011.5,494.8 1011.5,479.2 1015.9,479.2 1015.9,533.6 
		1011.5,533.6 1011.5,518.1 	"/>
	<polygon class="st1" points="976.4,676.8 976.4,671.9 977.5,671.9 977.5,672.4 987.7,672.4 987.7,676.8 989.5,676.8 989.5,672.4 
		994.3,672.4 994.3,681.2 987.7,681.2 987.7,684 975.6,684 975.6,684.2 974.4,684.2 974.4,681.3 816.4,681.3 816.4,676.8 	"/>
	<rect x="976.6" y="654" class="st1" width="11.3" height="5.6"/>
	<polygon class="st1" points="1000.2,724.5 1000.2,727.6 990.3,727.6 990.3,724.5 816.4,724.5 816.4,719.9 990.3,719.9 990.3,717.4 
		1000.2,717.4 1000.2,719.9 1004,719.9 1004,717 1008.6,717 1008.6,727.6 1004,727.6 1004,724.5 	"/>
	<polygon class="st1" points="219.8,789.2 219.8,792 218,792 209.8,792 209.8,789.2 206.5,789.2 206.5,792 202,792 202,781.8 
		206.5,781.8 206.5,784.6 209.8,784.6 209.8,781.8 217,781.8 219.8,781.8 219.8,784.6 370.5,784.6 370.5,789.2 	"/>
	<rect x="381.8" y="784.6" class="st1" width="205.9" height="4.6"/>
	<polygon class="st1" points="170.6,746 170.6,748.9 162.1,748.9 162.1,746 159.2,746 159.2,749 154.7,749 154.7,741.6 178.3,741.6 
		178.3,738.6 182.8,738.6 182.8,741.5 186.2,741.5 186.2,738.6 195.5,738.6 196.1,738.6 196.1,741.5 370.5,741.5 370.5,746 	"/>
	<polygon class="st1" points="201.2,676.8 201.2,672.6 209.4,672.6 209.4,672.6 209.7,672.6 209.7,676.8 370.5,676.8 370.5,681.3 
		209.7,681.3 209.7,684.2 203.7,684.2 199.2,684.2 199.2,681.4 192.6,681.4 192.6,672.6 197,672.6 197,676.8 	"/>
	<rect x="599" y="292.7" class="st1" width="206.1" height="4.5"/>
	<polygon class="st1" points="904.6,292.7 904.6,287.8 910.4,287.8 910.4,287.9 915.9,287.9 915.9,292.7 920.9,292.7 920.9,287.9 
		925.6,287.9 925.6,297.3 914,297.3 914,300.1 909.5,300.1 909.5,297.2 904.1,297.2 904.1,300.1 895.6,300.1 895.6,297.2 
		816.4,297.2 816.4,292.7 	"/>
	<polygon class="st1" points="948.7,372.7 949.1,373.5 950.5,374.9 952.3,375.8 954.3,376.1 972.6,376.1 974.6,375.8 976.4,374.9 
		977.8,373.5 978.2,372.7 979.1,372.7 980.9,372.4 982.5,371.6 983.8,370.3 984.6,368.7 984.9,367 984.9,351.3 989.2,351.3 
		989.2,405.3 984.9,405.3 984.9,389.8 984.4,388 983.6,386.4 982.3,385.1 980.7,384.3 978.9,384 978,384 977.6,383.2 976.2,381.8 
		974.4,380.9 972.4,380.6 954.1,380.6 952.1,380.9 950.3,381.8 948.9,383.2 948.5,384 816.4,384 816.4,372.7 	"/>
	<rect x="599" y="372.7" class="st1" width="206.1" height="11.3"/>
	<rect x="599" y="438.1" class="st1" width="206.1" height="8.4"/>
	<rect x="599" y="314.3" class="st1" width="206.1" height="4.4"/>
	<rect x="381.8" y="292.7" class="st1" width="205.9" height="4.5"/>
	<rect x="381.8" y="314.3" class="st1" width="205.9" height="4.4"/>
	<rect x="381.8" y="372.7" class="st1" width="205.9" height="11.3"/>
	<rect x="381.8" y="438.1" class="st1" width="205.9" height="8.4"/>
	<rect x="381.8" y="500.5" class="st1" width="205.9" height="11.8"/>
	<rect x="381.8" y="566.3" class="st1" width="205.9" height="11.3"/>
	<rect x="381.8" y="631.5" class="st1" width="205.9" height="8.3"/>
	<rect x="381.8" y="676.8" class="st1" width="205.9" height="4.5"/>
	<polygon class="st1" points="983.1,695.5 983.1,695.3 987.7,695.3 987.7,698.1 1008.6,698.1 1008.6,705.5 1004,705.5 1004,702.9 
		1000.2,702.9 1000.2,705.5 994.4,705.5 994.4,706 990.3,706 990.3,702.9 816.4,702.9 816.4,698.3 974.4,698.3 974.4,695.5 	"/>
	<rect x="599" y="698.3" class="st1" width="206.1" height="4.6"/>
	<rect x="381.8" y="698.3" class="st1" width="205.9" height="4.6"/>
	<rect x="381.8" y="719.9" class="st1" width="205.9" height="4.6"/>
	<polygon class="st1" points="199.2,698.3 199.2,695.5 203.7,695.5 209.7,695.5 209.7,698.3 370.5,698.3 370.5,702.9 196.1,702.9 
		196.1,705.7 192.5,705.7 186.2,705.7 186.2,702.9 182.8,702.9 182.8,705.7 178.3,705.7 178.3,698.3 	"/>
	<polygon class="st1" points="182.8,717 182.8,719.9 186.2,719.9 186.2,717 192.5,717 196.1,717 196.1,719.9 370.5,719.9 
		370.5,724.5 196.1,724.5 196.1,727.3 195.5,727.3 186.2,727.3 186.2,724.5 182.8,724.5 182.8,727.3 178.3,727.3 178.3,717 	"/>
	<rect x="381.8" y="741.5" class="st1" width="205.9" height="4.5"/>
	<rect x="381.8" y="763" class="st1" width="205.9" height="4.6"/>
	<rect x="599" y="784.6" class="st1" width="206.1" height="4.6"/>
	<rect x="599" y="763" class="st1" width="206.1" height="4.6"/>
	<rect x="599" y="741.5" class="st1" width="206.1" height="4.5"/>
	<rect x="599" y="719.9" class="st1" width="206.1" height="4.6"/>
	<rect x="599" y="676.8" class="st1" width="206.1" height="4.5"/>
	<rect x="599" y="631.5" class="st1" width="206.1" height="8.3"/>
	<rect x="599" y="566.3" class="st1" width="206.1" height="11.3"/>
	<rect x="599" y="500.5" class="st1" width="206.1" height="11.8"/>
	<polygon class="st1" points="1011.5,467.9 1011.5,452.3 1011,450.5 1010.2,448.9 1008.9,447.6 1007.3,446.8 1005.6,446.5 
		1004.7,446.5 1004.3,445.7 1002.9,444.3 1001.1,443.4 999.1,443.1 980.8,443.1 978.8,443.4 977,444.3 975.6,445.7 975.2,446.5 
		816.4,446.5 816.4,438.1 948.7,438.1 949.1,438.9 950.5,440.3 952.3,441.2 954.3,441.5 972.6,441.5 974.6,441.2 976.4,440.3 
		977.8,438.9 978.2,438.1 979.1,438.1 980.9,437.8 982.5,437 983.8,435.7 984.6,434.1 984.9,432.3 984.9,416.6 989.2,416.6 
		989.2,438 1015.9,438 1015.9,467.9 	"/>
	<polygon class="st1" points="989.2,340 984.9,340 984.9,324.5 984.4,322.7 983.6,321.1 982.3,319.8 980.7,319 978.9,318.7 
		978,318.7 977.6,317.9 976.2,316.5 974.4,315.6 972.4,315.3 954.1,315.3 952.1,315.6 950.3,316.5 948.9,317.9 948.5,318.7 
		816.4,318.7 816.4,314.3 895.6,314.3 895.6,311.4 895.7,311.4 895.7,311.4 904.1,311.4 904.1,314.3 909.5,314.3 909.5,311.4 
		914,311.4 914,314.2 989.2,314.2 	"/>
	<polygon class="st1" points="925.6,248 925.6,276.6 920.9,276.6 920.9,261.5 920.8,259.8 920,258.2 918.7,256.9 917.1,256.1 
		915.4,255.8 914.5,255.8 914.1,255 912.7,253.6 910.9,252.7 908.9,252.4 890.6,252.4 888.6,252.7 886.8,253.6 885.4,255 885,255.8 
		816.4,255.8 816.4,248 	"/>
	<rect x="599" y="248" class="st1" width="206.1" height="7.8"/>
	<rect x="381.8" y="248" class="st1" width="205.9" height="7.8"/>
	<polygon class="st1" points="261.2,248 370.5,248 370.5,255.8 301.7,255.8 301.3,255 299.9,253.6 298.1,252.7 296.1,252.4 
		277.8,252.4 275.8,252.7 274,253.6 272.6,255 272.2,255.8 271.3,255.8 269.6,256.1 268,256.9 266.7,258.2 265.9,259.8 265.6,261.5 
		265.6,276.6 261.2,276.6 	"/>
	<polygon class="st1" points="261.2,287.9 265.6,287.9 265.6,292.7 271.1,292.7 271.1,287.9 276.4,287.9 276.4,287.8 282.4,287.8 
		282.4,292.7 370.5,292.7 370.5,297.2 291.4,297.2 291.4,300.1 282.9,300.1 282.9,297.2 277.3,297.2 277.3,300.1 272.8,300.1 
		272.8,297.3 261.2,297.3 	"/>
	<polygon class="st1" points="197.6,314.2 272.8,314.2 272.8,311.4 277.3,311.4 277.3,314.3 282.9,314.3 282.9,311.5 291.4,311.5 
		291.4,314.3 370.5,314.3 370.5,318.7 238.1,318.7 237.7,317.9 236.3,316.5 234.5,315.6 232.5,315.3 214.2,315.3 212.2,315.6 
		210.4,316.5 209,317.9 208.6,318.7 207.7,318.7 205.9,319 204.3,319.8 203,321.1 202.2,322.7 201.9,324.4 201.9,340 197.6,340 	"/>
	<polygon class="st1" points="197.6,351.4 201.9,351.4 201.9,367 202.2,368.7 203,370.3 204.3,371.6 205.9,372.4 207.7,372.7 
		208.6,372.7 209,373.5 210.4,374.9 212.2,375.8 214.2,376.1 232.5,376.1 234.5,375.8 236.3,374.9 237.7,373.5 238.1,372.7 
		370.5,372.7 370.5,384 238.1,384 237.7,383.2 236.3,381.8 234.5,380.9 232.5,380.6 214.2,380.6 212.2,380.9 210.4,381.8 209,383.2 
		208.6,384 207.7,384 205.9,384.3 204.3,385.1 203,386.4 202.2,388 201.9,389.8 201.9,405.4 197.6,405.4 	"/>
	<polygon class="st1" points="171,438 197.7,438 197.7,416.7 201.9,416.7 201.9,432.3 202.2,434.1 203,435.7 204.3,437 205.9,437.8 
		207.7,438.1 208.6,438.1 209,438.9 210.4,440.3 212.2,441.2 214.2,441.5 232.5,441.5 234.5,441.2 236.3,440.3 237.7,438.9 
		238.1,438.1 370.5,438.1 370.5,446.5 211.5,446.5 211.1,445.7 209.7,444.3 207.9,443.4 205.9,443.1 187.6,443.1 185.6,443.4 
		183.8,444.3 182.4,445.7 182,446.5 181.1,446.5 179.3,446.8 177.7,447.6 176.4,448.9 175.6,450.5 175.3,452.3 175.3,468 171,468 	
		"/>
	<polygon class="st1" points="171,479.3 175.3,479.3 175.3,494.8 175.6,496.5 176.4,498.1 177.7,499.4 179.3,500.2 181.1,500.5 
		182,500.5 182.4,501.3 183.8,502.7 185.6,503.6 187.6,503.9 205.9,503.9 207.9,503.6 209.7,502.7 211.1,501.3 211.5,500.5 
		370.5,500.5 370.5,512.3 211.5,512.3 211.1,511.5 209.7,510.1 207.9,509.2 205.9,508.9 187.6,508.9 185.6,509.2 183.8,510.1 
		182.4,511.5 182,512.3 181.1,512.3 179.3,512.6 177.7,513.4 176.4,514.7 175.6,516.3 175.3,518.1 175.3,533.7 171,533.7 	"/>
	<polygon class="st1" points="152.8,566.4 171,566.4 171,545 175.3,545 175.3,560.6 175.6,562.3 176.4,563.9 177.7,565.2 179.3,566 
		181.1,566.3 182,566.3 182.4,567.1 183.8,568.5 185.6,569.4 187.6,569.7 205.9,569.7 207.9,569.4 209.7,568.5 211.1,567.1 
		211.5,566.3 370.5,566.3 370.5,577.6 193.2,577.6 192.8,576.8 191.4,575.4 189.6,574.5 187.6,574.2 169.3,574.2 167.3,574.5 
		165.5,575.4 164.1,576.8 163.7,577.6 162.8,577.6 161.1,577.9 159.5,578.7 158.2,580 157.4,581.6 157.1,583.3 157.1,599.1 
		152.8,599.1 	"/>
	<polygon class="st1" points="152.8,610.4 157.1,610.4 157.1,625.8 157.4,627.5 158.2,629.1 159.5,630.4 161.1,631.2 162.8,631.5 
		163.7,631.5 164.1,632.3 165.5,633.7 167.3,634.6 169.3,634.9 187.6,634.9 189.6,634.6 191.4,633.7 192.8,632.3 193.2,631.5 
		370.5,631.5 370.5,639.8 233.1,639.8 232.7,639 231.3,637.6 229.5,636.7 227.5,636.4 209.2,636.4 207.2,636.7 205.4,637.6 204,639 
		203.6,639.8 202.7,639.8 201,640.1 199.4,640.9 198.1,642.2 197.3,643.8 197,645.6 197,661.3 192.6,661.3 192.6,640 152.8,640 	"/>
	<polygon class="st1" points="154.7,767.7 154.7,760.3 159.2,760.3 159.2,763 162.1,763 162.1,760.3 170.6,760.3 170.6,763 
		370.5,763 370.5,767.6 219.8,767.6 219.8,770.5 217,770.5 209.8,770.5 209.8,767.6 206.5,767.6 206.5,770.5 201.9,770.5 
		201.9,767.7 	"/>
	<polygon class="st1" points="202,803.3 206.5,803.3 206.5,806.2 209.8,806.2 209.8,803.4 219.8,803.4 219.8,806.2 370.5,806.2 
		370.5,810.7 202,810.7 	"/>
	<rect x="381.8" y="806.2" class="st1" width="205.9" height="4.5"/>
	<rect x="599" y="806.2" class="st1" width="206.1" height="4.5"/>
	<polygon class="st1" points="985,810.7 816.4,810.7 816.4,806.2 965.9,806.2 965.9,803.4 977.3,803.4 977.3,806.2 980.4,806.2 
		980.4,803.3 985,803.3 	"/>
	<polygon class="st1" points="985,792 980.4,792 980.4,789.2 977.3,789.2 977.3,792 969,792 965.9,792 965.9,789.2 816.4,789.2 
		816.4,784.6 965.9,784.6 965.9,781.8 977.3,781.8 977.3,784.6 980.4,784.6 980.4,781.6 985,781.6 	"/>
	<polygon class="st1" points="1032.2,767.5 985,767.5 985,770.3 980.4,770.3 980.4,767.6 977.3,767.6 977.3,770.3 969.9,770.3 
		969.9,770.5 965.9,770.5 965.9,767.6 816.4,767.6 816.4,763 1016.3,763 1016.3,760.2 1024.8,760.2 1024.8,763 1027.6,763 
		1027.6,760.1 1032.2,760.1 	"/>
	<polygon class="st1" points="1032.2,748.8 1027.6,748.8 1027.6,746 1024.8,746 1024.8,748.8 1016.3,748.8 1016.3,746 816.4,746 
		816.4,741.5 990.3,741.5 990.3,739 1000.2,739 1000.2,741.5 1004,741.5 1004,738.9 1008.6,738.9 1008.6,741.4 1032.2,741.4 	"/>
	<polygon class="st1" points="1034.1,639.8 994.3,639.8 994.3,659.6 989.5,659.6 989.5,645.6 989.5,643.8 988.7,642.2 987.4,640.9 
		985.8,640.1 984.1,639.8 983.2,639.8 982.8,639 981.4,637.6 979.6,636.7 977.6,636.4 959.3,636.4 957.3,636.7 955.5,637.6 
		954.1,639 953.7,639.8 816.4,639.8 816.4,631.5 993.5,631.5 993.9,632.3 995.3,633.7 997.1,634.6 999.1,634.9 1017.4,634.9 
		1019.4,634.6 1021.2,633.7 1022.6,632.3 1023,631.5 1023.9,631.5 1025.7,631.2 1027.3,630.4 1028.6,629.1 1029.4,627.5 
		1029.7,625.8 1029.7,610.2 1034.1,610.2 	"/>
	<polygon class="st1" points="1034.1,598.9 1029.7,598.9 1029.7,583.3 1029.3,581.6 1028.5,580 1027.2,578.7 1025.6,577.9 
		1023.8,577.6 1022.9,577.6 1022.5,576.8 1021.1,575.4 1019.3,574.5 1017.3,574.2 999,574.2 997,574.5 995.2,575.4 993.8,576.8 
		993.4,577.6 816.4,577.6 816.4,566.3 975.4,566.3 975.8,567.1 977.2,568.5 979,569.4 981,569.7 999.3,569.7 1001.3,569.4 
		1003.1,568.5 1004.5,567.1 1004.9,566.3 1005.8,566.3 1007.5,566 1009.1,565.2 1010.4,563.9 1011.2,562.3 1011.5,560.6 1011.5,545 
		1015.9,545 1015.9,566.3 1034.1,566.3 	"/>
	<polyline class="st1" points="178.3,231.7 139.9,231.7 139.9,279.7 	"/>
</g>
</svg>
