<svg version="1.1" xmlns="http://www.w3.org/2000/svg" xmlns:xlink="http://www.w3.org/1999/xlink" stroke-linecap="round" stroke-linejoin="round" stroke-width="0" fill-rule="evenodd" width="324.999999mm" height="185mm" viewBox="57904.994 -240948.615 324999.999 185000" id="O9cD24Yi1fZX3d4RK569"><g transform="translate(0,-296897.23) scale(1,-1)" fill="currentColor" stroke="currentColor"><path d="M 382904.993 -55948.615 57904.994 -55948.615 57904.994 -240948.615 382904.993 -240948.615 382904.993 -55948.615 M 121845.839 -75831.888 A 1473.2 1473.2 0 0 1 118899.439 -75831.888 1473.2 1473.2 0 0 1 121845.839 -75831.888 M 121845.839 -99315.888 A 1473.2 1473.2 0 0 1 118899.439 -99315.888 1473.2 1473.2 0 0 1 121845.839 -99315.888 M 321845.799 -75831.888 A 1473.2 1473.2 0 0 1 318899.399 -75831.888 1473.2 1473.2 0 0 1 321845.799 -75831.888 M 221845.839 -75831.888 A 1473.2 1473.2 0 0 1 218899.439 -75831.888 1473.2 1473.2 0 0 1 221845.839 -75831.888 M 321845.799 -99315.888 A 1473.2 1473.2 0 0 1 318899.399 -99315.888 1473.2 1473.2 0 0 1 321845.799 -99315.888 M 221845.839 -99315.888 A 1473.2 1473.2 0 0 1 218899.439 -99315.888 1473.2 1473.2 0 0 1 221845.839 -99315.888 M 130179.539 -136618.662 A 1473.2 1473.2 0 0 1 127233.139 -136618.662 1473.2 1473.2 0 0 1 130179.539 -136618.662 M 213512.539 -136618.662 A 1473.2 1473.2 0 0 1 210566.139 -136618.662 1473.2 1473.2 0 0 1 213512.539 -136618.662 M 230179.139 -136618.662 A 1473.2 1473.2 0 0 1 227232.739 -136618.662 1473.2 1473.2 0 0 1 230179.139 -136618.662 M 313512.139 -136618.662 A 1473.2 1473.2 0 0 1 310565.739 -136618.662 1473.2 1473.2 0 0 1 313512.139 -136618.662 M 130179.539 -160173.662 A 1473.2 1473.2 0 0 1 127233.139 -160173.662 1473.2 1473.2 0 0 1 130179.539 -160173.662 M 213512.539 -160173.662 A 1473.2 1473.2 0 0 1 210566.139 -160173.662 1473.2 1473.2 0 0 1 213512.539 -160173.662 M 230179.139 -160173.662 A 1473.2 1473.2 0 0 1 227232.739 -160173.662 1473.2 1473.2 0 0 1 230179.139 -160173.662 M 313512.139 -160173.662 A 1473.2 1473.2 0 0 1 310565.739 -160173.662 1473.2 1473.2 0 0 1 313512.139 -160173.662 M 345852.784 -169981.14 346346.681 -170475.038 346981.677 -170792.525 347687.232 -170898.375 354143.061 -170898.375 354848.617 -170792.525 355483.613 -170475.038 355977.51 -169981.14 356118.63 -169698.922 356436.138 -169698.922 357071.134 -169593.093 357635.57 -169310.875 358094.177 -168852.247 358376.395 -168287.811 358482.224 -167652.815 358482.224 -162120.81 360482.209 -162120.81 360482.209 -181604.828 358482.224 -181604.828 358482.224 -176214.481 358376.395 -175579.485 358094.177 -175015.049 357635.57 -174556.421 357071.134 -174274.203 356436.138 -174168.374 356083.339 -174168.374 355942.219 -173886.156 355448.322 -173392.258 354813.326 -173074.771 354107.771 -172968.921 347651.942 -172968.921 346946.386 -173074.771 346311.39 -173392.258 345817.493 -173886.156 345676.373 -174168.374 320513.74 -174168.374 320513.74 -169698.922 345711.664 -169698.922 345852.784 -169981.14 M 352379.172 -174732.831 353084.728 -174838.66 353719.724 -175156.169 354213.621 -175650.045 354531.13 -176285.04 354636.959 -176990.596 354531.13 -177696.152 354213.621 -178331.169 353719.724 -178825.045 353084.728 -179142.553 352379.172 -179248.382 349380.561 -179248.382 348675.006 -179142.553 348040.01 -178825.045 347546.113 -178331.169 347228.604 -177696.152 347122.775 -176990.596 347228.604 -176285.04 347546.113 -175650.045 348040.01 -175156.169 348675.006 -174838.66 349380.561 -174732.831 352379.172 -174732.831 M 124331.529 -125057.978 218405.007 -125057.978 218405.007 -127058.889 124331.529 -127058.889 124331.529 -125057.978 M 124331.529 -108805.611 218405.007 -108805.611 218405.007 -112005.2 124331.529 -112005.2 124331.529 -108805.611 M 368977.363 -201497.713 368271.807 -201603.542 365273.196 -201603.542 364567.64 -201497.713 363932.645 -201180.205 363438.747 -200686.329 363121.239 -200051.333 363015.41 -199345.778 363121.239 -198640.222 363438.747 -198005.226 363932.645 -197511.329 364567.64 -197193.842 365273.196 -197088.013 368271.807 -197088.013 368977.363 -197193.842 369612.358 -197511.329 370106.256 -198005.226 370423.764 -198640.222 370529.593 -199345.778 370423.764 -200051.333 370106.256 -200686.329 369612.358 -201180.205 368977.363 -201497.713 M 354531.13 -189761.156 354636.959 -190466.711 354531.13 -191172.267 354213.621 -191807.284 353719.724 -192301.16 353084.728 -192618.669 352379.172 -192724.498 349380.561 -192724.498 348675.006 -192618.669 348040.01 -192301.16 347546.113 -191807.284 347228.604 -191172.267 347122.775 -190466.711 347228.604 -189761.156 347546.113 -189126.16 348040.01 -188632.284 348675.006 -188314.776 349380.561 -188208.947 352379.172 -188208.947 353084.728 -188314.776 353719.724 -188632.284 354213.621 -189126.16 354531.13 -189761.156 M 78958.739 -90284.799 81957.35 -90284.799 82662.905 -90390.628 83297.901 -90708.137 83791.798 -91202.012 84109.307 -91837.008 84215.136 -92542.564 84109.307 -93248.119 83791.798 -93883.115 83297.901 -94377.012 82662.905 -94694.5 81957.35 -94800.329 78958.739 -94800.329 78253.183 -94694.5 77618.187 -94377.012 77124.29 -93883.115 76806.803 -93248.119 76700.952 -92542.564 76806.803 -91837.008 77124.29 -91202.012 77618.187 -90708.137 78253.183 -90390.628 78958.739 -90284.799 M 84109.307 -105348.393 84215.136 -106053.948 84109.307 -106759.504 83791.798 -107394.5 83297.901 -107888.397 82662.905 -108205.884 81957.35 -108311.713 78958.739 -108311.713 78253.183 -108205.884 77618.187 -107888.397 77124.29 -107394.5 76806.803 -106759.504 76700.952 -106053.948 76806.803 -105348.393 77124.29 -104713.397 77618.187 -104219.521 78253.183 -103902.012 78958.739 -103796.183 81957.35 -103796.183 82662.905 -103902.012 83297.901 -104219.521 83791.798 -104713.397 84109.307 -105348.393 M 67317.072 -215220.778 67881.529 -215502.995 68516.525 -215608.825 68869.303 -215608.825 69010.401 -215891.042 69504.298 -216384.94 70139.294 -216702.427 70844.85 -216808.256 77300.679 -216808.256 77970.965 -216702.427 78605.961 -216384.94 79099.858 -215891.042 79240.978 -215608.825 120331.536 -215608.825 120331.536 -218807.466 93316.82 -218807.466 93175.7 -218525.249 92681.824 -218031.351 92046.807 -217713.842 91341.252 -217608.013 84885.422 -217608.013 84179.867 -217713.842 83544.871 -218031.351 83050.974 -218525.249 82909.876 -218807.466 82592.367 -218807.466 81957.371 -218913.296 81392.935 -219195.513 80934.307 -219654.12 80652.089 -220218.556 80546.26 -220853.552 80546.26 -225115.329 78546.253 -225115.329 78546.253 -218807.466 64470.411 -218807.466 64470.411 -209088.831 66470.418 -209088.831 66470.418 -213562.739 66576.247 -214197.735 66858.465 -214762.171 67317.072 -215220.778 M 64470.411 -205088.816 64470.411 -193253.665 80327.776 -193253.665 80327.776 -185604.82 82327.784 -185604.82 82327.784 -191278.118 82433.613 -191913.113 82715.831 -192477.549 83174.437 -192936.177 83738.895 -193218.395 84373.89 -193324.224 84691.377 -193324.224 84832.497 -193606.442 85326.395 -194100.34 85961.39 -194417.827 86666.946 -194523.677 93122.775 -194523.677 93757.771 -194347.267 94392.788 -194029.78 94886.664 -193535.882 95027.784 -193253.665 120331.536 -193253.665 120331.536 -196523.577 79240.957 -196523.577 79099.858 -196241.359 78605.961 -195747.483 77970.965 -195429.974 77265.41 -195324.145 70809.581 -195324.145 70104.025 -195429.974 69469.029 -195747.483 68975.132 -196241.359 68834.012 -196523.577 68516.525 -196523.577 67881.529 -196629.406 67317.072 -196911.624 66858.465 -197370.231 66576.247 -197934.688 66470.418 -198569.684 66470.418 -205088.816 64470.411 -205088.816 M 70890.971 -112534.367 70890.971 -101262.897 72890.957 -101262.897 72890.957 -106759.525 72996.786 -107394.521 73279.025 -107958.957 73737.632 -108417.564 74302.068 -108699.782 74937.063 -108805.611 75254.572 -108805.611 75395.692 -109087.829 75889.568 -109581.726 76524.563 -109899.213 77230.119 -110005.042 83685.969 -110005.042 84391.525 -109899.213 85026.521 -109581.726 85520.418 -109087.829 85661.516 -108805.611 120331.536 -108805.611 120331.536 -112005.2 117499.732 -112005.2 117358.613 -111722.982 116864.715 -111229.106 116229.719 -110911.598 115524.164 -110805.769 109103.604 -110805.769 108398.048 -110911.598 107763.053 -111229.106 107269.177 -111722.982 107128.057 -112040.491 106810.548 -112040.491 106175.553 -112146.32 105611.117 -112428.538 105152.51 -112887.144 104905.561 -113416.311 104799.732 -114051.328 104799.732 -117319.454 102799.725 -117319.454 102799.725 -112534.367 70890.971 -112534.367 M 94886.664 -146426.398 95027.784 -146144.18 120331.536 -146144.18 120331.536 -150613.632 95027.784 -150613.632 94886.664 -150331.414 94392.766 -149837.516 93757.771 -149520.029 93052.215 -149414.2 86631.655 -149414.2 85926.1 -149520.029 85291.104 -149837.516 84797.228 -150331.414 84656.108 -150613.632 84338.6 -150613.632 83738.895 -150790.042 83174.437 -151072.26 82715.831 -151530.867 82433.613 -152095.324 82327.784 -152730.32 82327.784 -158120.818 80327.776 -158120.818 80327.776 -138636.822 82327.784 -138636.822 82327.784 -144168.633 82433.613 -144803.629 82715.831 -145368.086 83174.437 -145826.693 83738.895 -146108.911 84373.89 -146214.74 84691.377 -146214.74 84832.497 -146496.979 85326.395 -146990.855 85961.39 -147308.364 86666.946 -147414.193 93122.775 -147414.193 93757.771 -147237.782 94392.788 -146920.295 94886.664 -146426.398 M 104799.732 -125057.978 120331.536 -125057.978 120331.536 -127058.889 95027.784 -127058.889 94886.664 -126776.671 94392.766 -126282.774 93757.771 -125965.287 93052.215 -125859.458 86631.655 -125859.458 85926.1 -125965.287 85291.104 -126282.774 84797.228 -126776.671 84656.108 -127058.889 84338.6 -127058.889 83738.895 -127235.3 83174.437 -127517.518 82715.831 -127976.124 82433.613 -128540.582 82327.784 -129175.577 82327.784 -134636.829 80327.776 -134636.829 80327.776 -123849.481 102799.725 -123849.481 102799.725 -121319.446 104799.732 -121319.446 104799.732 -125057.978 M 222405 -193253.665 316513.748 -193253.665 316513.748 -196523.577 222405 -196523.577 222405 -193253.665 M 316513.748 -218807.466 222405 -218807.466 222405 -215608.825 316513.748 -215608.825 316513.748 -218807.466 M 316513.748 -174168.374 222405 -174168.374 222405 -169698.922 316513.748 -169698.922 316513.748 -174168.374 M 124331.529 -193253.665 218405.007 -193253.665 218405.007 -196523.577 124331.529 -196523.577 124331.529 -193253.665 M 93510.822 -176285.04 93616.672 -176990.596 93510.822 -177696.152 93193.335 -178331.169 92699.437 -178825.045 92064.442 -179142.553 91358.886 -179248.382 88360.275 -179248.382 87654.719 -179142.553 87019.724 -178825.045 86525.826 -178331.169 86208.339 -177696.152 86102.489 -176990.596 86208.339 -176285.04 86525.826 -175650.045 87019.724 -175156.169 87654.719 -174838.66 88360.275 -174732.831 91358.886 -174732.831 92064.442 -174838.66 92699.437 -175156.169 93193.335 -175650.045 93510.822 -176285.04 M 362521.512 -71210.403 361815.957 -71316.232 358817.345 -71316.232 358111.79 -71210.403 357476.794 -70892.895 356982.897 -70399.019 356665.388 -69764.023 356559.559 -69058.467 356665.388 -68352.912 356982.897 -67717.916 357476.794 -67224.019 358111.79 -66906.532 358817.345 -66800.703 361815.957 -66800.703 362521.512 -66906.532 363156.508 -67224.019 363650.405 -67717.916 363967.914 -68352.912 364073.743 -69058.467 363967.914 -69764.023 363650.405 -70399.019 363156.508 -70892.895 362521.512 -71210.403 M 369919.036 -97262.883 367919.029 -97262.883 367919.029 -91766.47 367813.2 -91131.474 367530.982 -90567.017 367072.376 -90108.41 366507.94 -89826.192 365872.944 -89720.363 365555.435 -89720.363 365414.316 -89438.145 364920.418 -88944.269 364285.422 -88626.761 363579.867 -88520.932 357124.038 -88520.932 356418.482 -88626.761 355783.487 -88944.269 355289.589 -89438.145 355148.469 -89720.363 320513.74 -89720.363 320513.74 -85321.514 355148.469 -85321.514 355289.589 -85603.732 355783.487 -86097.608 356418.482 -86415.117 357124.038 -86520.946 363579.867 -86520.946 364285.422 -86415.117 364920.418 -86097.608 365414.316 -85603.732 365555.435 -85321.514 365872.944 -85321.514 366507.94 -85215.685 367072.376 -84933.467 367530.982 -84474.861 367813.2 -83910.403 367919.029 -83275.408 367919.029 -77778.887 369919.036 -77778.887 369919.036 -97262.883 M 369919.036 -112534.367 338010.261 -112534.367 338010.261 -117319.454 335975.006 -117319.454 335975.006 -114051.328 336010.275 -114051.328 335904.446 -113416.311 335622.228 -112851.875 335163.621 -112393.269 334599.185 -112111.051 333964.19 -112005.2 333646.681 -112005.2 333505.561 -111722.982 333011.664 -111229.106 332376.668 -110911.598 331671.113 -110805.769 325215.284 -110805.769 324509.728 -110911.598 323874.732 -111229.106 323380.835 -111722.982 323239.715 -112005.2 320513.74 -112005.2 320513.74 -108805.611 355148.469 -108805.611 355289.589 -109087.829 355783.487 -109581.726 356418.482 -109899.213 357124.038 -110005.042 363579.867 -110005.042 364285.422 -109899.213 364920.418 -109581.726 365414.316 -109087.829 365555.435 -108805.611 365872.944 -108805.611 366507.94 -108699.782 367072.376 -108417.564 367530.982 -107958.957 367813.2 -107394.521 367919.029 -106759.525 367919.029 -101262.897 369919.036 -101262.897 369919.036 -112534.367 M 360482.209 -134636.829 358482.224 -134636.829 358482.224 -129105.018 358376.395 -128470 358094.177 -127905.565 357635.57 -127446.958 357071.134 -127164.718 356436.138 -127058.889 356083.339 -127058.889 355942.219 -126776.671 355448.322 -126282.774 354813.326 -125965.287 354107.771 -125859.458 347651.942 -125859.458 346946.386 -125965.287 346311.39 -126282.774 345817.493 -126776.671 345676.373 -127058.889 320513.74 -127058.889 320513.74 -125057.978 335975.006 -125057.978 335975.006 -121319.446 338010.261 -121319.446 338010.261 -123849.481 360482.209 -123849.481 360482.209 -134636.829 M 360482.209 -158120.818 358482.224 -158120.818 358482.224 -152659.76 358376.395 -152024.743 358094.177 -151460.307 357635.57 -151001.7 357071.134 -150719.461 356436.138 -150613.632 356083.339 -150613.632 355942.219 -150331.414 355448.322 -149837.516 354813.326 -149520.029 354107.771 -149414.2 347651.942 -149414.2 346946.386 -149520.029 346311.39 -149837.516 345817.493 -150331.414 345676.373 -150613.632 320513.74 -150613.632 320513.74 -146144.18 345711.664 -146144.18 345852.784 -146426.398 346346.681 -146920.295 346981.677 -147237.782 347687.232 -147343.633 354143.061 -147343.633 354848.617 -147237.782 355483.613 -146920.295 355977.51 -146426.398 356118.63 -146144.18 356436.138 -146144.18 357071.134 -146038.351 357635.57 -145756.133 358094.177 -145297.505 358376.395 -144733.069 358482.224 -144098.073 358482.224 -138636.822 360482.209 -138636.822 360482.209 -158120.818 M 82327.784 -181604.828 80327.776 -181604.828 80327.776 -162120.81 82327.784 -162120.81 82327.784 -167723.375 82433.613 -168358.371 82715.831 -168922.828 83174.437 -169381.435 83738.895 -169663.653 84373.89 -169769.482 84691.377 -169769.482 84832.497 -170051.722 85326.395 -170545.598 85961.39 -170863.106 86666.946 -170968.935 93122.775 -170968.935 93757.771 -170792.525 94392.788 -170475.038 94886.664 -169981.14 95027.784 -169698.922 120331.536 -169698.922 120331.536 -174168.374 95027.784 -174168.374 94886.664 -173886.156 94392.766 -173392.258 93757.771 -173074.771 93052.215 -172968.921 86631.655 -172968.921 85926.1 -173074.771 85291.104 -173392.258 84797.228 -173886.156 84656.108 -174168.374 84338.6 -174168.374 83738.895 -174344.763 83174.437 -174627.002 82715.831 -175085.609 82433.613 -175650.045 82327.784 -176285.062 82327.784 -181604.828 M 368977.363 -214973.829 368271.807 -215079.658 365273.196 -215079.658 364567.64 -214973.829 363932.645 -214656.32 363438.747 -214162.444 363121.239 -213527.449 363015.41 -212821.893 363121.239 -212116.337 363438.747 -211481.342 363932.645 -210987.444 364567.64 -210669.957 365273.196 -210564.128 368271.807 -210564.128 368977.363 -210669.957 369612.358 -210987.444 370106.256 -211481.342 370423.764 -212116.337 370529.593 -212821.893 370423.764 -213527.449 370106.256 -214162.444 369612.358 -214656.32 368977.363 -214973.829 M 320513.74 -231860.223 360263.747 -231860.223 360263.747 -229115.343 362263.733 -229115.343 362263.733 -233860.23 320513.74 -233860.23 320513.74 -231860.223 M 316513.748 -233860.23 222405 -233860.23 222405 -231860.223 316513.748 -231860.223 316513.748 -233860.23 M 218405.007 -233860.23 124331.529 -233860.23 124331.529 -231860.223 218405.007 -231860.223 218405.007 -233860.23 M 120331.536 -233860.23 78546.253 -233860.23 78546.253 -229115.343 80546.26 -229115.343 80546.26 -231860.223 120331.536 -231860.223 120331.536 -233860.23 M 84462.085 -222299.932 84356.256 -221594.376 84462.085 -220888.821 84779.593 -220253.825 85273.491 -219759.928 85908.487 -219442.419 86614.042 -219336.59 89612.653 -219336.59 90318.209 -219442.419 90953.205 -219759.928 91447.102 -220253.825 91764.589 -220888.821 91870.44 -221594.376 91764.589 -222299.932 91447.102 -222934.928 90953.205 -223428.825 90318.209 -223746.334 89612.653 -223852.163 86614.042 -223852.163 85908.487 -223746.334 85273.491 -223428.825 84779.593 -222934.928 84462.085 -222299.932 M 70703.752 -198005.226 71197.627 -197511.329 71832.623 -197193.842 72538.179 -197088.013 75536.79 -197088.013 76242.345 -197193.842 76877.363 -197511.329 77371.239 -198005.226 77688.747 -198640.222 77794.576 -199345.778 77688.747 -200051.333 77371.239 -200686.329 76877.363 -201180.205 76242.345 -201497.713 75536.79 -201603.542 72538.179 -201603.542 71832.623 -201497.713 71197.627 -201180.205 70703.752 -200686.329 70386.243 -200051.333 70280.414 -199345.778 70386.243 -198640.222 70703.752 -198005.226 M 77688.747 -212116.337 77794.576 -212821.893 77688.747 -213527.449 77371.239 -214162.444 76877.363 -214656.32 76242.345 -214973.829 75536.79 -215079.658 72538.179 -215079.658 71832.623 -214973.829 71197.627 -214656.32 70703.752 -214162.444 70386.243 -213527.449 70280.414 -212821.893 70386.243 -212116.337 70703.752 -211481.342 71197.627 -210987.444 71832.623 -210669.957 72538.179 -210564.128 75536.79 -210564.128 76242.345 -210669.957 76877.363 -210987.444 77371.239 -211481.342 77688.747 -212116.337 M 108997.775 -116132.704 108680.288 -115497.709 108574.437 -114792.153 108680.288 -114086.598 108997.775 -113451.602 109491.672 -112957.704 110126.668 -112640.217 110832.224 -112534.367 113830.835 -112534.367 114536.39 -112640.217 115171.386 -112957.704 115665.284 -113451.602 115982.771 -114086.598 116088.621 -114792.153 115982.771 -115497.709 115665.284 -116132.704 115136.117 -116626.602 114501.121 -116944.089 113795.566 -117049.939 110832.224 -117049.939 110126.668 -116944.089 109491.672 -116626.602 108997.775 -116132.704 M 93510.822 -189761.156 93616.672 -190466.711 93510.822 -191172.267 93193.335 -191807.284 92699.437 -192301.16 92064.442 -192618.669 91358.886 -192724.498 88360.275 -192724.498 87654.719 -192618.669 87019.724 -192301.16 86525.826 -191807.284 86208.339 -191172.267 86102.489 -190466.711 86208.339 -189761.156 86525.826 -189126.16 87019.724 -188632.284 87654.719 -188314.776 88360.275 -188208.947 91358.886 -188208.947 92064.442 -188314.776 92699.437 -188632.284 93193.335 -189126.16 93510.822 -189761.156 M 320513.74 -63037 369919.036 -63037 369919.036 -73778.894 367919.029 -73778.894 367919.029 -68282.352 367813.2 -67647.356 367530.982 -67082.921 367072.376 -66624.314 366507.94 -66342.096 365872.944 -66236.267 365555.435 -66236.267 365414.316 -65954.049 364920.418 -65460.151 364285.422 -65142.664 363579.867 -65036.835 357124.038 -65036.835 356418.482 -65142.664 355783.487 -65460.151 355289.589 -65954.049 355148.469 -66236.267 320513.74 -66236.267 320513.74 -63037 M 376339.575 -209088.831 376339.575 -218807.466 362263.733 -218807.466 362263.733 -225115.329 360263.747 -225115.329 360263.747 -220853.552 360157.918 -220218.556 359875.7 -219654.12 359417.093 -219195.513 358852.658 -218913.296 358217.662 -218807.466 357900.153 -218807.466 357759.034 -218525.249 357265.136 -218031.351 356630.14 -217713.842 355924.585 -217608.013 349468.756 -217608.013 348763.2 -217713.842 348128.205 -218031.351 347634.307 -218525.249 347493.187 -218807.466 320513.74 -218807.466 320513.74 -215608.825 361569.029 -215608.825 361710.149 -215891.042 362204.047 -216384.94 362839.042 -216702.427 363544.598 -216808.256 370000.427 -216808.256 370705.982 -216702.427 371340.978 -216384.94 371834.876 -215891.042 371975.995 -215608.825 372293.504 -215608.825 372928.5 -215502.995 373492.935 -215220.778 373951.542 -214762.171 374233.76 -214197.735 374339.589 -213562.739 374339.589 -209088.831 376339.575 -209088.831 M 376339.575 -193253.665 376339.575 -205088.816 374339.589 -205088.816 374339.589 -198569.684 374233.76 -197934.688 373951.542 -197370.231 373492.935 -196911.624 372928.5 -196629.406 372293.504 -196523.577 371975.995 -196523.577 371834.876 -196241.359 371340.978 -195747.483 370705.982 -195429.974 370000.427 -195324.145 363544.598 -195324.145 362839.042 -195429.974 362204.047 -195747.483 361710.149 -196241.359 361569.029 -196523.577 320513.74 -196523.577 320513.74 -193253.665 345711.664 -193253.665 345852.784 -193535.882 346346.681 -194029.78 346981.677 -194347.267 347687.232 -194453.096 354143.061 -194453.096 354848.617 -194347.267 355483.613 -194029.78 355977.51 -193535.882 356118.63 -193253.665 356436.138 -193253.665 357071.134 -193147.835 357635.57 -192865.596 358094.177 -192406.989 358376.395 -191842.553 358482.224 -191207.536 358482.224 -185604.82 360482.209 -185604.82 360482.209 -193253.665 376339.575 -193253.665 M 363156.508 -84404.279 362521.512 -84721.788 361815.957 -84827.617 358817.345 -84827.617 358111.79 -84721.788 357476.794 -84404.279 356982.897 -83910.403 356665.388 -83275.408 356559.559 -82569.852 356665.388 -81864.296 356982.897 -81229.301 357476.794 -80735.403 358111.79 -80417.916 358817.345 -80312.087 361815.957 -80312.087 362521.512 -80417.916 363156.508 -80735.403 363650.405 -81229.301 363967.914 -81864.296 364073.743 -82569.852 363967.914 -83275.408 363650.405 -83910.403 363156.508 -84404.279 M 78958.739 -66800.703 81957.35 -66800.703 82662.905 -66906.532 83297.901 -67224.019 83791.798 -67717.916 84109.307 -68352.912 84215.136 -69058.467 84109.307 -69764.023 83791.798 -70399.019 83297.901 -70892.895 82662.905 -71210.403 81957.35 -71316.232 78958.739 -71316.232 78253.183 -71210.403 77618.187 -70892.895 77124.29 -70399.019 76806.803 -69764.023 76700.952 -69058.467 76806.803 -68352.912 77124.29 -67717.916 77618.187 -67224.019 78253.183 -66906.532 78958.739 -66800.703 M 84109.307 -81864.296 84215.136 -82569.852 84109.307 -83275.408 83791.798 -83910.403 83297.901 -84404.279 82662.905 -84721.788 81957.35 -84827.617 78958.739 -84827.617 78253.183 -84721.788 77618.187 -84404.279 77124.29 -83910.403 76806.803 -83275.408 76700.952 -82569.852 76806.803 -81864.296 77124.29 -81229.301 77618.187 -80735.403 78253.183 -80417.916 78958.739 -80312.087 81957.35 -80312.087 82662.905 -80417.916 83297.901 -80735.403 83791.798 -81229.301 84109.307 -81864.296 M 353084.728 -164760.033 353719.724 -165077.542 354213.621 -165571.418 354531.13 -166206.435 354636.959 -166911.991 354531.13 -167617.546 354213.621 -168252.542 353719.724 -168746.418 353084.728 -169063.927 352379.172 -169169.756 349380.561 -169169.756 348675.006 -169063.927 348040.01 -168746.418 347546.113 -168252.542 347228.604 -167617.546 347122.775 -166911.991 347228.604 -166206.435 347546.113 -165571.418 348040.01 -165077.542 348675.006 -164760.033 349380.561 -164654.204 352379.172 -164654.204 353084.728 -164760.033 M 348675.006 -155587.811 348040.01 -155270.303 347546.113 -154776.427 347228.604 -154141.431 347122.775 -153435.875 347228.604 -152730.32 347546.113 -152095.303 348040.01 -151601.427 348675.006 -151283.918 349380.561 -151178.089 352379.172 -151178.089 353084.728 -151283.918 353719.724 -151601.427 354213.621 -152095.303 354531.13 -152730.32 354636.959 -153435.875 354531.13 -154141.431 354213.621 -154776.427 353719.724 -155270.303 353084.728 -155587.811 352379.172 -155693.64 349380.561 -155693.64 348675.006 -155587.811 M 354531.13 -142651.693 354636.959 -143357.248 354531.13 -144062.804 354213.621 -144697.8 353719.724 -145191.676 353084.728 -145509.184 352379.172 -145615.013 349380.561 -145615.013 348675.006 -145509.184 348040.01 -145191.676 347546.113 -144697.8 347228.604 -144062.804 347122.775 -143357.248 347228.604 -142651.693 347546.113 -142016.676 348040.01 -141522.8 348675.006 -141205.291 349380.561 -141099.462 352379.172 -141099.462 353084.728 -141205.291 353719.724 -141522.8 354213.621 -142016.676 354531.13 -142651.693 M 347228.604 -130586.689 347122.775 -129881.133 347228.604 -129175.577 347546.113 -128540.56 348040.01 -128046.684 348675.006 -127729.176 349380.561 -127623.347 352379.172 -127623.347 353084.728 -127729.176 353719.724 -128046.684 354213.621 -128540.56 354531.13 -129175.577 354636.959 -129881.133 354531.13 -130586.689 354213.621 -131221.684 353719.724 -131715.56 353084.728 -132033.069 352379.172 -132138.898 349380.561 -132138.898 348675.006 -132033.069 348040.01 -131715.56 347546.113 -131221.684 347228.604 -130586.689 M 324862.484 -115497.709 324756.655 -114792.153 324862.484 -114086.598 325179.993 -113451.602 325673.89 -112957.704 326308.886 -112640.217 327014.442 -112534.367 330013.053 -112534.367 330718.608 -112640.217 331353.604 -112957.704 331847.502 -113451.602 332165.01 -114086.598 332270.839 -114792.153 332165.01 -115497.709 331847.502 -116132.704 331353.604 -116626.602 330718.608 -116944.089 330013.053 -117049.939 327014.442 -117049.939 326308.886 -116944.089 325673.89 -116626.602 325179.993 -116132.704 324862.484 -115497.709 M 363967.914 -105348.393 364073.743 -106053.948 363967.914 -106759.504 363650.405 -107394.5 363156.508 -107888.397 362521.512 -108205.884 361815.957 -108311.713 358817.345 -108311.713 358111.79 -108205.884 357476.794 -107888.397 356982.897 -107394.5 356665.388 -106759.504 356559.559 -106053.948 356665.388 -105348.393 356982.897 -104713.397 357476.794 -104219.521 358111.79 -103902.012 358817.345 -103796.183 361815.957 -103796.183 362521.512 -103902.012 363156.508 -104219.521 363650.405 -104713.397 363967.914 -105348.393 M 356665.388 -93248.119 356559.559 -92542.564 356665.388 -91837.008 356982.897 -91202.012 357476.794 -90708.137 358111.79 -90390.628 358817.345 -90284.799 361815.957 -90284.799 362521.512 -90390.628 363156.508 -90708.137 363650.405 -91202.012 363967.914 -91837.008 364073.743 -92542.564 363967.914 -93248.119 363650.405 -93883.115 363156.508 -94377.012 362521.512 -94694.5 361815.957 -94800.329 358817.345 -94800.329 358111.79 -94694.5 357476.794 -94377.012 356982.897 -93883.115 356665.388 -93248.119 M 356489.042 -221594.376 356383.213 -222299.932 356065.705 -222934.928 355571.807 -223428.825 354936.811 -223746.334 354231.256 -223852.163 351232.645 -223852.163 350527.089 -223746.334 349892.093 -223428.825 349398.196 -222934.928 349080.687 -222299.932 348974.858 -221594.376 349080.687 -220888.821 349398.196 -220253.825 349892.093 -219759.928 350527.089 -219442.419 351232.645 -219336.59 354231.256 -219336.59 354936.811 -219442.419 355571.807 -219759.928 356065.705 -220253.825 356383.213 -220888.821 356489.042 -221594.376 M 218405.007 -218807.466 124331.529 -218807.466 124331.529 -215608.825 218405.007 -215608.825 218405.007 -218807.466 M 222405 -85321.514 316513.748 -85321.514 316513.748 -89720.363 222405 -89720.363 222405 -85321.514 M 70890.971 -97262.883 70890.971 -77778.887 72890.957 -77778.887 72890.957 -83275.408 72996.786 -83910.403 73279.025 -84474.861 73737.632 -84933.467 74302.068 -85215.685 74937.063 -85321.514 75254.572 -85321.514 75395.692 -85603.732 75889.568 -86097.608 76524.563 -86415.117 77230.119 -86520.946 83685.969 -86520.946 84391.525 -86415.117 85026.521 -86097.608 85520.418 -85603.732 85661.516 -85321.514 120331.536 -85321.514 120331.536 -89720.363 85661.516 -89720.363 85520.397 -89438.145 85026.521 -88944.269 84391.525 -88626.761 83685.969 -88520.932 77230.119 -88520.932 76524.563 -88626.761 75889.568 -88944.269 75395.692 -89438.145 75254.572 -89720.363 74937.063 -89720.363 74302.068 -89826.192 73737.632 -90108.41 73279.025 -90567.017 72996.786 -91131.474 72890.957 -91766.47 72890.957 -97262.883 70890.971 -97262.883 M 124331.529 -85321.514 218405.007 -85321.514 218405.007 -89720.363 124331.529 -89720.363 124331.529 -85321.514 M 316513.748 -112005.2 222405 -112005.2 222405 -108805.611 316513.748 -108805.611 316513.748 -112005.2 M 316513.748 -127058.889 222405 -127058.889 222405 -125057.978 316513.748 -125057.978 316513.748 -127058.889 M 316513.748 -150613.632 222405 -150613.632 222405 -146144.18 316513.748 -146144.18 316513.748 -150613.632 M 86208.339 -130586.689 86102.489 -129881.133 86208.339 -129175.577 86525.826 -128540.56 87019.724 -128046.684 87654.719 -127729.176 88360.275 -127623.347 91358.886 -127623.347 92064.442 -127729.176 92699.437 -128046.684 93193.335 -128540.56 93510.822 -129175.577 93616.672 -129881.133 93510.822 -130586.689 93193.335 -131221.684 92699.437 -131715.56 92064.442 -132033.069 91358.886 -132138.898 88360.275 -132138.898 87654.719 -132033.069 87019.724 -131715.56 86525.826 -131221.684 86208.339 -130586.689 M 93510.822 -142651.693 93616.672 -143357.248 93510.822 -144062.804 93193.335 -144697.8 92699.437 -145191.676 92064.442 -145509.184 91358.886 -145615.013 88360.275 -145615.013 87654.719 -145509.184 87019.724 -145191.676 86525.826 -144697.8 86208.339 -144062.804 86102.489 -143357.248 86208.339 -142651.693 86525.826 -142016.676 87019.724 -141522.8 87654.719 -141205.291 88360.275 -141099.462 91358.886 -141099.462 92064.442 -141205.291 92699.437 -141522.8 93193.335 -142016.676 93510.822 -142651.693 M 218405.007 -150613.632 124331.529 -150613.632 124331.529 -146144.18 218405.007 -146144.18 218405.007 -150613.632 M 86208.339 -154141.431 86102.489 -153435.875 86208.339 -152730.32 86525.826 -152095.303 87019.724 -151601.427 87654.719 -151283.918 88360.275 -151178.089 91358.886 -151178.089 92064.442 -151283.918 92699.437 -151601.427 93193.335 -152095.303 93510.822 -152730.32 93616.672 -153435.875 93510.822 -154141.431 93193.335 -154776.427 92699.437 -155270.303 92064.442 -155587.811 91358.886 -155693.64 88360.275 -155693.64 87654.719 -155587.811 87019.724 -155270.303 86525.826 -154776.427 86208.339 -154141.431 M 93510.822 -166206.435 93616.672 -166911.991 93510.822 -167617.546 93193.335 -168252.542 92699.437 -168746.418 92064.442 -169063.927 91358.886 -169169.756 88360.275 -169169.756 87654.719 -169063.927 87019.724 -168746.418 86525.826 -168252.542 86208.339 -167617.546 86102.489 -166911.991 86208.339 -166206.435 86525.826 -165571.418 87019.724 -165077.542 87654.719 -164760.033 88360.275 -164654.204 91358.886 -164654.204 92064.442 -164760.033 92699.437 -165077.542 93193.335 -165571.418 93510.822 -166206.435 M 218405.007 -174168.374 124331.529 -174168.374 124331.529 -169698.922 218405.007 -169698.922 218405.007 -174168.374 M 222405 -66236.267 222405 -63037 316513.748 -63037 316513.748 -66236.267 222405 -66236.267 M 73737.632 -66624.314 73279.025 -67082.921 72996.786 -67647.356 72890.957 -68282.352 72890.957 -73778.894 70890.971 -73778.894 70890.971 -63037 120331.536 -63037 120331.536 -66236.267 85661.516 -66236.267 85520.397 -65954.049 85026.521 -65460.151 84391.525 -65142.664 83685.969 -65036.835 77230.119 -65036.835 76524.563 -65142.664 75889.568 -65460.151 75395.692 -65954.049 75254.572 -66236.267 74937.063 -66236.267 74302.068 -66342.096 73737.632 -66624.314 M 124331.529 -63037 218405.007 -63037 218405.007 -66236.267 124331.529 -66236.267 124331.529 -63037 M 313512.139 -183728.662 A 1473.2 1473.2 0 0 1 310565.739 -183728.662 1473.2 1473.2 0 0 1 313512.139 -183728.662 M 230179.139 -183728.662 A 1473.2 1473.2 0 0 1 227232.739 -183728.662 1473.2 1473.2 0 0 1 230179.139 -183728.662 M 213512.539 -183728.662 A 1473.2 1473.2 0 0 1 210566.139 -183728.662 1473.2 1473.2 0 0 1 213512.539 -183728.662 M 130179.539 -183728.662 A 1473.2 1473.2 0 0 1 127233.139 -183728.662 1473.2 1473.2 0 0 1 130179.539 -183728.662 M 213598.145 -206055.82 A 1473.2 1473.2 0 0 1 210651.745 -206055.82 1473.2 1473.2 0 0 1 213598.145 -206055.82 M 330264.771 -206055.82 A 1473.2 1473.2 0 0 1 327318.371 -206055.82 1473.2 1473.2 0 0 1 330264.771 -206055.82 M 230264.811 -206055.82 A 1473.2 1473.2 0 0 1 227318.411 -206055.82 1473.2 1473.2 0 0 1 230264.811 -206055.82 M 113598.191 -206055.82 A 1473.2 1473.2 0 0 1 110651.791 -206055.82 1473.2 1473.2 0 0 1 113598.191 -206055.82" fill="none" stroke-width="100"/></g></svg>