<svg version="1.1" xmlns="http://www.w3.org/2000/svg" xmlns:xlink="http://www.w3.org/1999/xlink" stroke-linecap="round" stroke-linejoin="round" stroke-width="0" fill-rule="evenodd" width="308.8mm" height="167.041mm" viewBox="65995 -232587 308800 167041" id="fTjqTGTOcTCKumXgMkwR"><defs><circle cx="0" cy="0" r="450" id="fTjqTGTOcTCKumXgMkwR_pad-10"/><rect x="-825" y="-2200" width="1650" height="4400" id="fTjqTGTOcTCKumXgMkwR_pad-11"/><rect x="-1200" y="-2200" width="2400" height="4400" id="fTjqTGTOcTCKumXgMkwR_pad-12"/><rect x="-1700" y="-825" width="3400" height="1650" rx="825" ry="825" id="fTjqTGTOcTCKumXgMkwR_pad-13"/></defs><g transform="translate(0,-298133) scale(1,-1)" fill="currentColor" stroke="currentColor"><use xlink:href="#fTjqTGTOcTCKumXgMkwR_pad-10" x="367945" y="-75296"/><use xlink:href="#fTjqTGTOcTCKumXgMkwR_pad-10" x="367945" y="-74296"/><use xlink:href="#fTjqTGTOcTCKumXgMkwR_pad-10" x="367945" y="-76296"/><use xlink:href="#fTjqTGTOcTCKumXgMkwR_pad-10" x="367945" y="-77296"/><use xlink:href="#fTjqTGTOcTCKumXgMkwR_pad-10" x="367945" y="-100796"/><use xlink:href="#fTjqTGTOcTCKumXgMkwR_pad-10" x="367945" y="-99796"/><use xlink:href="#fTjqTGTOcTCKumXgMkwR_pad-10" x="367945" y="-97796"/><use xlink:href="#fTjqTGTOcTCKumXgMkwR_pad-10" x="367945" y="-98796"/><use xlink:href="#fTjqTGTOcTCKumXgMkwR_pad-10" x="335945" y="-118796"/><use xlink:href="#fTjqTGTOcTCKumXgMkwR_pad-10" x="335945" y="-117796"/><use xlink:href="#fTjqTGTOcTCKumXgMkwR_pad-10" x="335945" y="-119796"/><use xlink:href="#fTjqTGTOcTCKumXgMkwR_pad-10" x="335945" y="-120796"/><use xlink:href="#fTjqTGTOcTCKumXgMkwR_pad-10" x="358445" y="-138196"/><use xlink:href="#fTjqTGTOcTCKumXgMkwR_pad-10" x="358445" y="-137196"/><use xlink:href="#fTjqTGTOcTCKumXgMkwR_pad-10" x="358445" y="-135196"/><use xlink:href="#fTjqTGTOcTCKumXgMkwR_pad-10" x="358445" y="-136196"/><use xlink:href="#fTjqTGTOcTCKumXgMkwR_pad-10" x="358545" y="-159596"/><use xlink:href="#fTjqTGTOcTCKumXgMkwR_pad-10" x="358545" y="-158596"/><use xlink:href="#fTjqTGTOcTCKumXgMkwR_pad-10" x="358545" y="-160596"/><use xlink:href="#fTjqTGTOcTCKumXgMkwR_pad-10" x="358545" y="-161596"/><use xlink:href="#fTjqTGTOcTCKumXgMkwR_pad-10" x="358545" y="-185096"/><use xlink:href="#fTjqTGTOcTCKumXgMkwR_pad-10" x="358545" y="-184096"/><use xlink:href="#fTjqTGTOcTCKumXgMkwR_pad-10" x="358545" y="-182096"/><use xlink:href="#fTjqTGTOcTCKumXgMkwR_pad-10" x="358545" y="-183096"/><use xlink:href="#fTjqTGTOcTCKumXgMkwR_pad-10" x="374345" y="-206596"/><use xlink:href="#fTjqTGTOcTCKumXgMkwR_pad-10" x="374345" y="-205596"/><use xlink:href="#fTjqTGTOcTCKumXgMkwR_pad-10" x="374345" y="-207596"/><use xlink:href="#fTjqTGTOcTCKumXgMkwR_pad-10" x="374345" y="-208596"/><use xlink:href="#fTjqTGTOcTCKumXgMkwR_pad-10" x="360245" y="-228596"/><use xlink:href="#fTjqTGTOcTCKumXgMkwR_pad-10" x="360245" y="-227596"/><use xlink:href="#fTjqTGTOcTCKumXgMkwR_pad-10" x="360245" y="-225596"/><use xlink:href="#fTjqTGTOcTCKumXgMkwR_pad-10" x="360245" y="-226596"/><use xlink:href="#fTjqTGTOcTCKumXgMkwR_pad-10" x="80545" y="-226596"/><use xlink:href="#fTjqTGTOcTCKumXgMkwR_pad-10" x="80545" y="-225596"/><use xlink:href="#fTjqTGTOcTCKumXgMkwR_pad-10" x="80545" y="-227596"/><use xlink:href="#fTjqTGTOcTCKumXgMkwR_pad-10" x="80545" y="-228596"/><use xlink:href="#fTjqTGTOcTCKumXgMkwR_pad-10" x="66445" y="-208596"/><use xlink:href="#fTjqTGTOcTCKumXgMkwR_pad-10" x="66445" y="-207596"/><use xlink:href="#fTjqTGTOcTCKumXgMkwR_pad-10" x="66445" y="-205596"/><use xlink:href="#fTjqTGTOcTCKumXgMkwR_pad-10" x="66445" y="-206596"/><use xlink:href="#fTjqTGTOcTCKumXgMkwR_pad-10" x="82345" y="-183096"/><use xlink:href="#fTjqTGTOcTCKumXgMkwR_pad-10" x="82345" y="-182096"/><use xlink:href="#fTjqTGTOcTCKumXgMkwR_pad-10" x="82345" y="-184096"/><use xlink:href="#fTjqTGTOcTCKumXgMkwR_pad-10" x="82345" y="-185096"/><use xlink:href="#fTjqTGTOcTCKumXgMkwR_pad-10" x="82345" y="-161596"/><use xlink:href="#fTjqTGTOcTCKumXgMkwR_pad-10" x="82345" y="-160596"/><use xlink:href="#fTjqTGTOcTCKumXgMkwR_pad-10" x="82345" y="-158596"/><use xlink:href="#fTjqTGTOcTCKumXgMkwR_pad-10" x="82345" y="-159596"/><use xlink:href="#fTjqTGTOcTCKumXgMkwR_pad-10" x="82345" y="-136096"/><use xlink:href="#fTjqTGTOcTCKumXgMkwR_pad-10" x="82345" y="-135096"/><use xlink:href="#fTjqTGTOcTCKumXgMkwR_pad-10" x="82345" y="-137096"/><use xlink:href="#fTjqTGTOcTCKumXgMkwR_pad-10" x="82345" y="-138096"/><use xlink:href="#fTjqTGTOcTCKumXgMkwR_pad-10" x="104745" y="-120896"/><use xlink:href="#fTjqTGTOcTCKumXgMkwR_pad-10" x="104745" y="-119896"/><use xlink:href="#fTjqTGTOcTCKumXgMkwR_pad-10" x="104745" y="-117896"/><use xlink:href="#fTjqTGTOcTCKumXgMkwR_pad-10" x="104745" y="-118896"/><use xlink:href="#fTjqTGTOcTCKumXgMkwR_pad-10" x="72745" y="-98780"/><use xlink:href="#fTjqTGTOcTCKumXgMkwR_pad-10" x="72745" y="-97780"/><use xlink:href="#fTjqTGTOcTCKumXgMkwR_pad-10" x="72745" y="-99780"/><use xlink:href="#fTjqTGTOcTCKumXgMkwR_pad-10" x="72745" y="-100780"/><use xlink:href="#fTjqTGTOcTCKumXgMkwR_pad-10" x="72745" y="-77296"/><use xlink:href="#fTjqTGTOcTCKumXgMkwR_pad-10" x="72745" y="-76296"/><use xlink:href="#fTjqTGTOcTCKumXgMkwR_pad-10" x="72745" y="-74296"/><use xlink:href="#fTjqTGTOcTCKumXgMkwR_pad-10" x="72745" y="-75296"/><use xlink:href="#fTjqTGTOcTCKumXgMkwR_pad-11" x="103730.465" y="-104315.888"/><use xlink:href="#fTjqTGTOcTCKumXgMkwR_pad-11" x="105980.465" y="-104315.888"/><use xlink:href="#fTjqTGTOcTCKumXgMkwR_pad-11" x="101480.465" y="-104315.888"/><use xlink:href="#fTjqTGTOcTCKumXgMkwR_pad-12" x="184064.53" y="-94315.888"/><use xlink:href="#fTjqTGTOcTCKumXgMkwR_pad-12" x="190064.53" y="-94315.888"/><use xlink:href="#fTjqTGTOcTCKumXgMkwR_pad-12" x="187064.53" y="-94315.888"/><use xlink:href="#fTjqTGTOcTCKumXgMkwR_pad-11" x="337063.914" y="-94315.888"/><use xlink:href="#fTjqTGTOcTCKumXgMkwR_pad-11" x="339313.914" y="-94315.888"/><use xlink:href="#fTjqTGTOcTCKumXgMkwR_pad-11" x="334813.914" y="-94315.888"/><use xlink:href="#fTjqTGTOcTCKumXgMkwR_pad-13" x="351647.22" y="-96315.888"/><use xlink:href="#fTjqTGTOcTCKumXgMkwR_pad-13" x="351647.22" y="-98315.888"/><use xlink:href="#fTjqTGTOcTCKumXgMkwR_pad-13" x="351647.22" y="-100315.888"/><use xlink:href="#fTjqTGTOcTCKumXgMkwR_pad-13" x="351647.22" y="-102315.888"/><use xlink:href="#fTjqTGTOcTCKumXgMkwR_pad-12" x="303730.718" y="-94315.888"/><use xlink:href="#fTjqTGTOcTCKumXgMkwR_pad-12" x="306730.718" y="-94315.888"/><use xlink:href="#fTjqTGTOcTCKumXgMkwR_pad-12" x="300730.718" y="-94315.888"/><use xlink:href="#fTjqTGTOcTCKumXgMkwR_pad-12" x="137064.67" y="-104315.888"/><use xlink:href="#fTjqTGTOcTCKumXgMkwR_pad-12" x="140064.67" y="-104315.888"/><use xlink:href="#fTjqTGTOcTCKumXgMkwR_pad-12" x="134064.67" y="-104315.888"/><use xlink:href="#fTjqTGTOcTCKumXgMkwR_pad-13" x="89148.186" y="-96349.222"/><use xlink:href="#fTjqTGTOcTCKumXgMkwR_pad-13" x="89148.186" y="-98349.222"/><use xlink:href="#fTjqTGTOcTCKumXgMkwR_pad-13" x="89148.186" y="-100349.222"/><use xlink:href="#fTjqTGTOcTCKumXgMkwR_pad-13" x="89148.186" y="-102349.222"/><use xlink:href="#fTjqTGTOcTCKumXgMkwR_pad-12" x="250730.858" y="-104315.888"/><use xlink:href="#fTjqTGTOcTCKumXgMkwR_pad-12" x="256730.858" y="-104315.888"/><use xlink:href="#fTjqTGTOcTCKumXgMkwR_pad-12" x="253730.858" y="-104315.888"/><use xlink:href="#fTjqTGTOcTCKumXgMkwR_pad-10" x="220974" y="-232137"/><use xlink:href="#fTjqTGTOcTCKumXgMkwR_pad-10" x="221974" y="-232137"/><use xlink:href="#fTjqTGTOcTCKumXgMkwR_pad-10" x="219974" y="-232137"/><use xlink:href="#fTjqTGTOcTCKumXgMkwR_pad-10" x="218974" y="-232137"/><use xlink:href="#fTjqTGTOcTCKumXgMkwR_pad-10" x="317045" y="-232096"/><use xlink:href="#fTjqTGTOcTCKumXgMkwR_pad-10" x="318045" y="-232096"/><use xlink:href="#fTjqTGTOcTCKumXgMkwR_pad-10" x="320045" y="-232096"/><use xlink:href="#fTjqTGTOcTCKumXgMkwR_pad-10" x="319045" y="-232096"/><use xlink:href="#fTjqTGTOcTCKumXgMkwR_pad-10" x="120805" y="-232137"/><use xlink:href="#fTjqTGTOcTCKumXgMkwR_pad-10" x="121805" y="-232137"/><use xlink:href="#fTjqTGTOcTCKumXgMkwR_pad-10" x="123805" y="-232137"/><use xlink:href="#fTjqTGTOcTCKumXgMkwR_pad-10" x="122805" y="-232137"/><use xlink:href="#fTjqTGTOcTCKumXgMkwR_pad-10" x="218974" y="-218537"/><use xlink:href="#fTjqTGTOcTCKumXgMkwR_pad-10" x="219974" y="-218537"/><use xlink:href="#fTjqTGTOcTCKumXgMkwR_pad-10" x="221974" y="-218537"/><use xlink:href="#fTjqTGTOcTCKumXgMkwR_pad-10" x="220974" y="-218537"/><use xlink:href="#fTjqTGTOcTCKumXgMkwR_pad-10" x="319045" y="-218496"/><use xlink:href="#fTjqTGTOcTCKumXgMkwR_pad-10" x="320045" y="-218496"/><use xlink:href="#fTjqTGTOcTCKumXgMkwR_pad-10" x="318045" y="-218496"/><use xlink:href="#fTjqTGTOcTCKumXgMkwR_pad-10" x="317045" y="-218496"/><use xlink:href="#fTjqTGTOcTCKumXgMkwR_pad-10" x="122805" y="-218537"/><use xlink:href="#fTjqTGTOcTCKumXgMkwR_pad-10" x="123805" y="-218537"/><use xlink:href="#fTjqTGTOcTCKumXgMkwR_pad-10" x="121805" y="-218537"/><use xlink:href="#fTjqTGTOcTCKumXgMkwR_pad-10" x="120805" y="-218537"/><use xlink:href="#fTjqTGTOcTCKumXgMkwR_pad-10" x="220974" y="-215837"/><use xlink:href="#fTjqTGTOcTCKumXgMkwR_pad-10" x="221974" y="-215837"/><use xlink:href="#fTjqTGTOcTCKumXgMkwR_pad-10" x="219974" y="-215837"/><use xlink:href="#fTjqTGTOcTCKumXgMkwR_pad-10" x="218974" y="-215837"/><use xlink:href="#fTjqTGTOcTCKumXgMkwR_pad-10" x="317045" y="-215796"/><use xlink:href="#fTjqTGTOcTCKumXgMkwR_pad-10" x="318045" y="-215796"/><use xlink:href="#fTjqTGTOcTCKumXgMkwR_pad-10" x="320045" y="-215796"/><use xlink:href="#fTjqTGTOcTCKumXgMkwR_pad-10" x="319045" y="-215796"/><use xlink:href="#fTjqTGTOcTCKumXgMkwR_pad-10" x="120805" y="-215837"/><use xlink:href="#fTjqTGTOcTCKumXgMkwR_pad-10" x="121805" y="-215837"/><use xlink:href="#fTjqTGTOcTCKumXgMkwR_pad-10" x="123805" y="-215837"/><use xlink:href="#fTjqTGTOcTCKumXgMkwR_pad-10" x="122805" y="-215837"/><use xlink:href="#fTjqTGTOcTCKumXgMkwR_pad-10" x="218974" y="-196337"/><use xlink:href="#fTjqTGTOcTCKumXgMkwR_pad-10" x="219974" y="-196337"/><use xlink:href="#fTjqTGTOcTCKumXgMkwR_pad-10" x="221974" y="-196337"/><use xlink:href="#fTjqTGTOcTCKumXgMkwR_pad-10" x="220974" y="-196337"/><use xlink:href="#fTjqTGTOcTCKumXgMkwR_pad-10" x="319045" y="-196296"/><use xlink:href="#fTjqTGTOcTCKumXgMkwR_pad-10" x="320045" y="-196296"/><use xlink:href="#fTjqTGTOcTCKumXgMkwR_pad-10" x="318045" y="-196296"/><use xlink:href="#fTjqTGTOcTCKumXgMkwR_pad-10" x="317045" y="-196296"/><use xlink:href="#fTjqTGTOcTCKumXgMkwR_pad-10" x="122805" y="-196337"/><use xlink:href="#fTjqTGTOcTCKumXgMkwR_pad-10" x="123805" y="-196337"/><use xlink:href="#fTjqTGTOcTCKumXgMkwR_pad-10" x="121805" y="-196337"/><use xlink:href="#fTjqTGTOcTCKumXgMkwR_pad-10" x="120805" y="-196337"/><use xlink:href="#fTjqTGTOcTCKumXgMkwR_pad-10" x="220974" y="-193437"/><use xlink:href="#fTjqTGTOcTCKumXgMkwR_pad-10" x="221974" y="-193437"/><use xlink:href="#fTjqTGTOcTCKumXgMkwR_pad-10" x="219974" y="-193437"/><use xlink:href="#fTjqTGTOcTCKumXgMkwR_pad-10" x="218974" y="-193437"/><use xlink:href="#fTjqTGTOcTCKumXgMkwR_pad-10" x="317045" y="-193396"/><use xlink:href="#fTjqTGTOcTCKumXgMkwR_pad-10" x="318045" y="-193396"/><use xlink:href="#fTjqTGTOcTCKumXgMkwR_pad-10" x="320045" y="-193396"/><use xlink:href="#fTjqTGTOcTCKumXgMkwR_pad-10" x="319045" y="-193396"/><use xlink:href="#fTjqTGTOcTCKumXgMkwR_pad-10" x="120805" y="-193437"/><use xlink:href="#fTjqTGTOcTCKumXgMkwR_pad-10" x="121805" y="-193437"/><use xlink:href="#fTjqTGTOcTCKumXgMkwR_pad-10" x="123805" y="-193437"/><use xlink:href="#fTjqTGTOcTCKumXgMkwR_pad-10" x="122805" y="-193437"/><use xlink:href="#fTjqTGTOcTCKumXgMkwR_pad-10" x="218974" y="-173937"/><use xlink:href="#fTjqTGTOcTCKumXgMkwR_pad-10" x="219974" y="-173937"/><use xlink:href="#fTjqTGTOcTCKumXgMkwR_pad-10" x="221974" y="-173937"/><use xlink:href="#fTjqTGTOcTCKumXgMkwR_pad-10" x="220974" y="-173937"/><use xlink:href="#fTjqTGTOcTCKumXgMkwR_pad-10" x="319045" y="-173896"/><use xlink:href="#fTjqTGTOcTCKumXgMkwR_pad-10" x="320045" y="-173896"/><use xlink:href="#fTjqTGTOcTCKumXgMkwR_pad-10" x="318045" y="-173896"/><use xlink:href="#fTjqTGTOcTCKumXgMkwR_pad-10" x="317045" y="-173896"/><use xlink:href="#fTjqTGTOcTCKumXgMkwR_pad-10" x="122805" y="-173937"/><use xlink:href="#fTjqTGTOcTCKumXgMkwR_pad-10" x="123805" y="-173937"/><use xlink:href="#fTjqTGTOcTCKumXgMkwR_pad-10" x="121805" y="-173937"/><use xlink:href="#fTjqTGTOcTCKumXgMkwR_pad-10" x="120805" y="-173937"/><use xlink:href="#fTjqTGTOcTCKumXgMkwR_pad-10" x="220974" y="-169937"/><use xlink:href="#fTjqTGTOcTCKumXgMkwR_pad-10" x="221974" y="-169937"/><use xlink:href="#fTjqTGTOcTCKumXgMkwR_pad-10" x="219974" y="-169937"/><use xlink:href="#fTjqTGTOcTCKumXgMkwR_pad-10" x="218974" y="-169937"/><use xlink:href="#fTjqTGTOcTCKumXgMkwR_pad-10" x="317045" y="-169896"/><use xlink:href="#fTjqTGTOcTCKumXgMkwR_pad-10" x="318045" y="-169896"/><use xlink:href="#fTjqTGTOcTCKumXgMkwR_pad-10" x="320045" y="-169896"/><use xlink:href="#fTjqTGTOcTCKumXgMkwR_pad-10" x="319045" y="-169896"/><use xlink:href="#fTjqTGTOcTCKumXgMkwR_pad-10" x="120805" y="-169937"/><use xlink:href="#fTjqTGTOcTCKumXgMkwR_pad-10" x="121805" y="-169937"/><use xlink:href="#fTjqTGTOcTCKumXgMkwR_pad-10" x="123805" y="-169937"/><use xlink:href="#fTjqTGTOcTCKumXgMkwR_pad-10" x="122805" y="-169937"/><use xlink:href="#fTjqTGTOcTCKumXgMkwR_pad-10" x="218974" y="-150437"/><use xlink:href="#fTjqTGTOcTCKumXgMkwR_pad-10" x="219974" y="-150437"/><use xlink:href="#fTjqTGTOcTCKumXgMkwR_pad-10" x="221974" y="-150437"/><use xlink:href="#fTjqTGTOcTCKumXgMkwR_pad-10" x="220974" y="-150437"/><use xlink:href="#fTjqTGTOcTCKumXgMkwR_pad-10" x="319045" y="-150396"/><use xlink:href="#fTjqTGTOcTCKumXgMkwR_pad-10" x="320045" y="-150396"/><use xlink:href="#fTjqTGTOcTCKumXgMkwR_pad-10" x="318045" y="-150396"/><use xlink:href="#fTjqTGTOcTCKumXgMkwR_pad-10" x="317045" y="-150396"/><use xlink:href="#fTjqTGTOcTCKumXgMkwR_pad-10" x="122805" y="-150437"/><use xlink:href="#fTjqTGTOcTCKumXgMkwR_pad-10" x="123805" y="-150437"/><use xlink:href="#fTjqTGTOcTCKumXgMkwR_pad-10" x="121805" y="-150437"/><use xlink:href="#fTjqTGTOcTCKumXgMkwR_pad-10" x="120805" y="-150437"/><use xlink:href="#fTjqTGTOcTCKumXgMkwR_pad-10" x="220974" y="-146337"/><use xlink:href="#fTjqTGTOcTCKumXgMkwR_pad-10" x="221974" y="-146337"/><use xlink:href="#fTjqTGTOcTCKumXgMkwR_pad-10" x="219974" y="-146337"/><use xlink:href="#fTjqTGTOcTCKumXgMkwR_pad-10" x="218974" y="-146337"/><use xlink:href="#fTjqTGTOcTCKumXgMkwR_pad-10" x="317045" y="-146296"/><use xlink:href="#fTjqTGTOcTCKumXgMkwR_pad-10" x="318045" y="-146296"/><use xlink:href="#fTjqTGTOcTCKumXgMkwR_pad-10" x="320045" y="-146296"/><use xlink:href="#fTjqTGTOcTCKumXgMkwR_pad-10" x="319045" y="-146296"/><use xlink:href="#fTjqTGTOcTCKumXgMkwR_pad-10" x="120805" y="-146337"/><use xlink:href="#fTjqTGTOcTCKumXgMkwR_pad-10" x="121805" y="-146337"/><use xlink:href="#fTjqTGTOcTCKumXgMkwR_pad-10" x="123805" y="-146337"/><use xlink:href="#fTjqTGTOcTCKumXgMkwR_pad-10" x="122805" y="-146337"/><use xlink:href="#fTjqTGTOcTCKumXgMkwR_pad-10" x="218974" y="-126837"/><use xlink:href="#fTjqTGTOcTCKumXgMkwR_pad-10" x="219974" y="-126837"/><use xlink:href="#fTjqTGTOcTCKumXgMkwR_pad-10" x="221974" y="-126837"/><use xlink:href="#fTjqTGTOcTCKumXgMkwR_pad-10" x="220974" y="-126837"/><use xlink:href="#fTjqTGTOcTCKumXgMkwR_pad-10" x="319045" y="-126796"/><use xlink:href="#fTjqTGTOcTCKumXgMkwR_pad-10" x="320045" y="-126796"/><use xlink:href="#fTjqTGTOcTCKumXgMkwR_pad-10" x="318045" y="-126796"/><use xlink:href="#fTjqTGTOcTCKumXgMkwR_pad-10" x="317045" y="-126796"/><use xlink:href="#fTjqTGTOcTCKumXgMkwR_pad-10" x="122805" y="-126837"/><use xlink:href="#fTjqTGTOcTCKumXgMkwR_pad-10" x="123805" y="-126837"/><use xlink:href="#fTjqTGTOcTCKumXgMkwR_pad-10" x="121805" y="-126837"/><use xlink:href="#fTjqTGTOcTCKumXgMkwR_pad-10" x="120805" y="-126837"/><use xlink:href="#fTjqTGTOcTCKumXgMkwR_pad-10" x="220974" y="-125237"/><use xlink:href="#fTjqTGTOcTCKumXgMkwR_pad-10" x="221974" y="-125237"/><use xlink:href="#fTjqTGTOcTCKumXgMkwR_pad-10" x="219974" y="-125237"/><use xlink:href="#fTjqTGTOcTCKumXgMkwR_pad-10" x="218974" y="-125237"/><use xlink:href="#fTjqTGTOcTCKumXgMkwR_pad-10" x="317045" y="-125196"/><use xlink:href="#fTjqTGTOcTCKumXgMkwR_pad-10" x="318045" y="-125196"/><use xlink:href="#fTjqTGTOcTCKumXgMkwR_pad-10" x="320045" y="-125196"/><use xlink:href="#fTjqTGTOcTCKumXgMkwR_pad-10" x="319045" y="-125196"/><use xlink:href="#fTjqTGTOcTCKumXgMkwR_pad-10" x="120805" y="-125237"/><use xlink:href="#fTjqTGTOcTCKumXgMkwR_pad-10" x="121805" y="-125237"/><use xlink:href="#fTjqTGTOcTCKumXgMkwR_pad-10" x="123805" y="-125237"/><use xlink:href="#fTjqTGTOcTCKumXgMkwR_pad-10" x="122805" y="-125237"/><use xlink:href="#fTjqTGTOcTCKumXgMkwR_pad-10" x="218974" y="-111837"/><use xlink:href="#fTjqTGTOcTCKumXgMkwR_pad-10" x="219974" y="-111837"/><use xlink:href="#fTjqTGTOcTCKumXgMkwR_pad-10" x="221974" y="-111837"/><use xlink:href="#fTjqTGTOcTCKumXgMkwR_pad-10" x="220974" y="-111837"/><use xlink:href="#fTjqTGTOcTCKumXgMkwR_pad-10" x="319045" y="-111796"/><use xlink:href="#fTjqTGTOcTCKumXgMkwR_pad-10" x="320045" y="-111796"/><use xlink:href="#fTjqTGTOcTCKumXgMkwR_pad-10" x="318045" y="-111796"/><use xlink:href="#fTjqTGTOcTCKumXgMkwR_pad-10" x="317045" y="-111796"/><use xlink:href="#fTjqTGTOcTCKumXgMkwR_pad-10" x="122805" y="-111837"/><use xlink:href="#fTjqTGTOcTCKumXgMkwR_pad-10" x="123805" y="-111837"/><use xlink:href="#fTjqTGTOcTCKumXgMkwR_pad-10" x="121805" y="-111837"/><use xlink:href="#fTjqTGTOcTCKumXgMkwR_pad-10" x="120805" y="-111837"/><use xlink:href="#fTjqTGTOcTCKumXgMkwR_pad-10" x="120805" y="-109037"/><use xlink:href="#fTjqTGTOcTCKumXgMkwR_pad-10" x="121805" y="-109037"/><use xlink:href="#fTjqTGTOcTCKumXgMkwR_pad-10" x="123805" y="-109037"/><use xlink:href="#fTjqTGTOcTCKumXgMkwR_pad-10" x="122805" y="-109037"/><use xlink:href="#fTjqTGTOcTCKumXgMkwR_pad-10" x="317045" y="-108996"/><use xlink:href="#fTjqTGTOcTCKumXgMkwR_pad-10" x="318045" y="-108996"/><use xlink:href="#fTjqTGTOcTCKumXgMkwR_pad-10" x="320045" y="-108996"/><use xlink:href="#fTjqTGTOcTCKumXgMkwR_pad-10" x="319045" y="-108996"/><use xlink:href="#fTjqTGTOcTCKumXgMkwR_pad-10" x="220974" y="-109037"/><use xlink:href="#fTjqTGTOcTCKumXgMkwR_pad-10" x="221974" y="-109037"/><use xlink:href="#fTjqTGTOcTCKumXgMkwR_pad-10" x="219974" y="-109037"/><use xlink:href="#fTjqTGTOcTCKumXgMkwR_pad-10" x="218974" y="-109037"/><use xlink:href="#fTjqTGTOcTCKumXgMkwR_pad-10" x="218974" y="-89537"/><use xlink:href="#fTjqTGTOcTCKumXgMkwR_pad-10" x="219974" y="-89537"/><use xlink:href="#fTjqTGTOcTCKumXgMkwR_pad-10" x="221974" y="-89537"/><use xlink:href="#fTjqTGTOcTCKumXgMkwR_pad-10" x="220974" y="-89537"/><use xlink:href="#fTjqTGTOcTCKumXgMkwR_pad-10" x="122805" y="-89537"/><use xlink:href="#fTjqTGTOcTCKumXgMkwR_pad-10" x="123805" y="-89537"/><use xlink:href="#fTjqTGTOcTCKumXgMkwR_pad-10" x="121805" y="-89537"/><use xlink:href="#fTjqTGTOcTCKumXgMkwR_pad-10" x="120805" y="-89537"/><use xlink:href="#fTjqTGTOcTCKumXgMkwR_pad-10" x="319045" y="-89496"/><use xlink:href="#fTjqTGTOcTCKumXgMkwR_pad-10" x="320045" y="-89496"/><use xlink:href="#fTjqTGTOcTCKumXgMkwR_pad-10" x="318045" y="-89496"/><use xlink:href="#fTjqTGTOcTCKumXgMkwR_pad-10" x="317045" y="-89496"/><use xlink:href="#fTjqTGTOcTCKumXgMkwR_pad-10" x="220974" y="-85537"/><use xlink:href="#fTjqTGTOcTCKumXgMkwR_pad-10" x="221974" y="-85537"/><use xlink:href="#fTjqTGTOcTCKumXgMkwR_pad-10" x="219974" y="-85537"/><use xlink:href="#fTjqTGTOcTCKumXgMkwR_pad-10" x="218974" y="-85537"/><use xlink:href="#fTjqTGTOcTCKumXgMkwR_pad-10" x="120805" y="-85537"/><use xlink:href="#fTjqTGTOcTCKumXgMkwR_pad-10" x="121805" y="-85537"/><use xlink:href="#fTjqTGTOcTCKumXgMkwR_pad-10" x="123805" y="-85537"/><use xlink:href="#fTjqTGTOcTCKumXgMkwR_pad-10" x="122805" y="-85537"/><use xlink:href="#fTjqTGTOcTCKumXgMkwR_pad-10" x="317045" y="-85496"/><use xlink:href="#fTjqTGTOcTCKumXgMkwR_pad-10" x="318045" y="-85496"/><use xlink:href="#fTjqTGTOcTCKumXgMkwR_pad-10" x="320045" y="-85496"/><use xlink:href="#fTjqTGTOcTCKumXgMkwR_pad-10" x="319045" y="-85496"/><use xlink:href="#fTjqTGTOcTCKumXgMkwR_pad-10" x="319045" y="-65996"/><use xlink:href="#fTjqTGTOcTCKumXgMkwR_pad-10" x="320045" y="-65996"/><use xlink:href="#fTjqTGTOcTCKumXgMkwR_pad-10" x="318045" y="-65996"/><use xlink:href="#fTjqTGTOcTCKumXgMkwR_pad-10" x="317045" y="-65996"/><use xlink:href="#fTjqTGTOcTCKumXgMkwR_pad-10" x="218974" y="-66037"/><use xlink:href="#fTjqTGTOcTCKumXgMkwR_pad-10" x="219974" y="-66037"/><use xlink:href="#fTjqTGTOcTCKumXgMkwR_pad-10" x="221974" y="-66037"/><use xlink:href="#fTjqTGTOcTCKumXgMkwR_pad-10" x="220974" y="-66037"/><use xlink:href="#fTjqTGTOcTCKumXgMkwR_pad-10" x="122805" y="-66037"/><use xlink:href="#fTjqTGTOcTCKumXgMkwR_pad-10" x="123805" y="-66037"/><use xlink:href="#fTjqTGTOcTCKumXgMkwR_pad-10" x="121805" y="-66037"/><use xlink:href="#fTjqTGTOcTCKumXgMkwR_pad-10" x="120805" y="-66037"/><use xlink:href="#fTjqTGTOcTCKumXgMkwR_pad-12" x="142372.594" y="-141618.662"/><use xlink:href="#fTjqTGTOcTCKumXgMkwR_pad-12" x="148372.594" y="-141618.662"/><use xlink:href="#fTjqTGTOcTCKumXgMkwR_pad-12" x="145372.594" y="-141618.662"/><use xlink:href="#fTjqTGTOcTCKumXgMkwR_pad-12" x="262038.782" y="-141618.662"/><use xlink:href="#fTjqTGTOcTCKumXgMkwR_pad-12" x="265038.782" y="-141618.662"/><use xlink:href="#fTjqTGTOcTCKumXgMkwR_pad-12" x="259038.782" y="-141618.662"/><use xlink:href="#fTjqTGTOcTCKumXgMkwR_pad-13" x="97456.11" y="-139651.996"/><use xlink:href="#fTjqTGTOcTCKumXgMkwR_pad-13" x="97456.11" y="-137651.996"/><use xlink:href="#fTjqTGTOcTCKumXgMkwR_pad-13" x="97456.11" y="-135651.996"/><use xlink:href="#fTjqTGTOcTCKumXgMkwR_pad-13" x="97456.11" y="-133651.996"/><use xlink:href="#fTjqTGTOcTCKumXgMkwR_pad-11" x="109788.658" y="-141618.662"/><use xlink:href="#fTjqTGTOcTCKumXgMkwR_pad-11" x="114288.658" y="-141618.662"/><use xlink:href="#fTjqTGTOcTCKumXgMkwR_pad-11" x="112038.658" y="-141618.662"/><use xlink:href="#fTjqTGTOcTCKumXgMkwR_pad-12" x="178705.794" y="-131618.662"/><use xlink:href="#fTjqTGTOcTCKumXgMkwR_pad-12" x="181705.794" y="-131618.662"/><use xlink:href="#fTjqTGTOcTCKumXgMkwR_pad-12" x="175705.794" y="-131618.662"/><use xlink:href="#fTjqTGTOcTCKumXgMkwR_pad-13" x="343288.484" y="-139618.662"/><use xlink:href="#fTjqTGTOcTCKumXgMkwR_pad-13" x="343288.484" y="-137618.662"/><use xlink:href="#fTjqTGTOcTCKumXgMkwR_pad-13" x="343288.484" y="-135618.662"/><use xlink:href="#fTjqTGTOcTCKumXgMkwR_pad-13" x="343288.484" y="-133618.662"/><use xlink:href="#fTjqTGTOcTCKumXgMkwR_pad-11" x="326455.178" y="-131618.662"/><use xlink:href="#fTjqTGTOcTCKumXgMkwR_pad-11" x="330955.178" y="-131618.662"/><use xlink:href="#fTjqTGTOcTCKumXgMkwR_pad-11" x="328705.178" y="-131618.662"/><use xlink:href="#fTjqTGTOcTCKumXgMkwR_pad-12" x="292371.982" y="-131618.662"/><use xlink:href="#fTjqTGTOcTCKumXgMkwR_pad-12" x="298371.982" y="-131618.662"/><use xlink:href="#fTjqTGTOcTCKumXgMkwR_pad-12" x="295371.982" y="-131618.662"/><use xlink:href="#fTjqTGTOcTCKumXgMkwR_pad-12" x="145372.594" y="-165173.662"/><use xlink:href="#fTjqTGTOcTCKumXgMkwR_pad-12" x="148372.594" y="-165173.662"/><use xlink:href="#fTjqTGTOcTCKumXgMkwR_pad-12" x="142372.594" y="-165173.662"/><use xlink:href="#fTjqTGTOcTCKumXgMkwR_pad-12" x="259038.782" y="-165173.662"/><use xlink:href="#fTjqTGTOcTCKumXgMkwR_pad-12" x="265038.782" y="-165173.662"/><use xlink:href="#fTjqTGTOcTCKumXgMkwR_pad-12" x="262038.782" y="-165173.662"/><use xlink:href="#fTjqTGTOcTCKumXgMkwR_pad-13" x="97456.11" y="-157206.996"/><use xlink:href="#fTjqTGTOcTCKumXgMkwR_pad-13" x="97456.11" y="-159206.996"/><use xlink:href="#fTjqTGTOcTCKumXgMkwR_pad-13" x="97456.11" y="-161206.996"/><use xlink:href="#fTjqTGTOcTCKumXgMkwR_pad-13" x="97456.11" y="-163206.996"/><use xlink:href="#fTjqTGTOcTCKumXgMkwR_pad-11" x="112038.658" y="-165173.662"/><use xlink:href="#fTjqTGTOcTCKumXgMkwR_pad-11" x="114288.658" y="-165173.662"/><use xlink:href="#fTjqTGTOcTCKumXgMkwR_pad-11" x="109788.658" y="-165173.662"/><use xlink:href="#fTjqTGTOcTCKumXgMkwR_pad-12" x="175705.794" y="-155173.662"/><use xlink:href="#fTjqTGTOcTCKumXgMkwR_pad-12" x="181705.794" y="-155173.662"/><use xlink:href="#fTjqTGTOcTCKumXgMkwR_pad-12" x="178705.794" y="-155173.662"/><use xlink:href="#fTjqTGTOcTCKumXgMkwR_pad-13" x="343288.484" y="-157173.662"/><use xlink:href="#fTjqTGTOcTCKumXgMkwR_pad-13" x="343288.484" y="-159173.662"/><use xlink:href="#fTjqTGTOcTCKumXgMkwR_pad-13" x="343288.484" y="-161173.662"/><use xlink:href="#fTjqTGTOcTCKumXgMkwR_pad-13" x="343288.484" y="-163173.662"/><use xlink:href="#fTjqTGTOcTCKumXgMkwR_pad-12" x="295371.982" y="-155173.662"/><use xlink:href="#fTjqTGTOcTCKumXgMkwR_pad-12" x="298371.982" y="-155173.662"/><use xlink:href="#fTjqTGTOcTCKumXgMkwR_pad-12" x="292371.982" y="-155173.662"/><use xlink:href="#fTjqTGTOcTCKumXgMkwR_pad-11" x="328705.178" y="-155173.662"/><use xlink:href="#fTjqTGTOcTCKumXgMkwR_pad-11" x="330955.178" y="-155173.662"/><use xlink:href="#fTjqTGTOcTCKumXgMkwR_pad-11" x="326455.178" y="-155173.662"/><use xlink:href="#fTjqTGTOcTCKumXgMkwR_pad-12" x="266866.415" y="-116365.487"/><use xlink:href="#fTjqTGTOcTCKumXgMkwR_pad-12" x="272866.415" y="-116365.487"/><use xlink:href="#fTjqTGTOcTCKumXgMkwR_pad-12" x="269866.415" y="-116365.487"/><use xlink:href="#fTjqTGTOcTCKumXgMkwR_pad-12" x="150200.229" y="-116365.487"/><use xlink:href="#fTjqTGTOcTCKumXgMkwR_pad-12" x="156200.229" y="-116365.487"/><use xlink:href="#fTjqTGTOcTCKumXgMkwR_pad-12" x="153200.229" y="-116365.487"/><use xlink:href="#fTjqTGTOcTCKumXgMkwR_pad-11" x="300949.611" y="-116365.487"/><use xlink:href="#fTjqTGTOcTCKumXgMkwR_pad-11" x="305449.611" y="-116365.487"/><use xlink:href="#fTjqTGTOcTCKumXgMkwR_pad-11" x="303199.611" y="-116365.487"/><use xlink:href="#fTjqTGTOcTCKumXgMkwR_pad-13" x="319865.927" y="-123815.487"/><use xlink:href="#fTjqTGTOcTCKumXgMkwR_pad-13" x="319865.927" y="-121815.487"/><use xlink:href="#fTjqTGTOcTCKumXgMkwR_pad-13" x="319865.927" y="-119815.487"/><use xlink:href="#fTjqTGTOcTCKumXgMkwR_pad-13" x="319865.927" y="-117815.487"/><use xlink:href="#fTjqTGTOcTCKumXgMkwR_pad-13" x="121950.337" y="-123815.487"/><use xlink:href="#fTjqTGTOcTCKumXgMkwR_pad-13" x="121950.337" y="-121815.487"/><use xlink:href="#fTjqTGTOcTCKumXgMkwR_pad-13" x="121950.337" y="-119815.487"/><use xlink:href="#fTjqTGTOcTCKumXgMkwR_pad-13" x="121950.337" y="-117815.487"/><use xlink:href="#fTjqTGTOcTCKumXgMkwR_pad-11" x="109788.658" y="-188728.662"/><use xlink:href="#fTjqTGTOcTCKumXgMkwR_pad-11" x="114288.658" y="-188728.662"/><use xlink:href="#fTjqTGTOcTCKumXgMkwR_pad-11" x="112038.658" y="-188728.662"/><use xlink:href="#fTjqTGTOcTCKumXgMkwR_pad-12" x="178705.794" y="-178728.662"/><use xlink:href="#fTjqTGTOcTCKumXgMkwR_pad-12" x="181705.794" y="-178728.662"/><use xlink:href="#fTjqTGTOcTCKumXgMkwR_pad-12" x="175705.794" y="-178728.662"/><use xlink:href="#fTjqTGTOcTCKumXgMkwR_pad-12" x="142372.594" y="-188728.662"/><use xlink:href="#fTjqTGTOcTCKumXgMkwR_pad-12" x="148372.594" y="-188728.662"/><use xlink:href="#fTjqTGTOcTCKumXgMkwR_pad-12" x="145372.594" y="-188728.662"/><use xlink:href="#fTjqTGTOcTCKumXgMkwR_pad-12" x="262038.782" y="-188728.662"/><use xlink:href="#fTjqTGTOcTCKumXgMkwR_pad-12" x="265038.782" y="-188728.662"/><use xlink:href="#fTjqTGTOcTCKumXgMkwR_pad-12" x="259038.782" y="-188728.662"/><use xlink:href="#fTjqTGTOcTCKumXgMkwR_pad-12" x="292371.982" y="-178728.662"/><use xlink:href="#fTjqTGTOcTCKumXgMkwR_pad-12" x="298371.982" y="-178728.662"/><use xlink:href="#fTjqTGTOcTCKumXgMkwR_pad-12" x="295371.982" y="-178728.662"/><use xlink:href="#fTjqTGTOcTCKumXgMkwR_pad-11" x="326455.178" y="-178728.662"/><use xlink:href="#fTjqTGTOcTCKumXgMkwR_pad-11" x="330955.178" y="-178728.662"/><use xlink:href="#fTjqTGTOcTCKumXgMkwR_pad-11" x="328705.178" y="-178728.662"/><use xlink:href="#fTjqTGTOcTCKumXgMkwR_pad-13" x="343288.484" y="-186728.662"/><use xlink:href="#fTjqTGTOcTCKumXgMkwR_pad-13" x="343288.484" y="-184728.662"/><use xlink:href="#fTjqTGTOcTCKumXgMkwR_pad-13" x="343288.484" y="-182728.662"/><use xlink:href="#fTjqTGTOcTCKumXgMkwR_pad-13" x="343288.484" y="-180728.662"/><use xlink:href="#fTjqTGTOcTCKumXgMkwR_pad-13" x="97456.11" y="-186761.996"/><use xlink:href="#fTjqTGTOcTCKumXgMkwR_pad-13" x="97456.11" y="-184761.996"/><use xlink:href="#fTjqTGTOcTCKumXgMkwR_pad-13" x="97456.11" y="-182761.996"/><use xlink:href="#fTjqTGTOcTCKumXgMkwR_pad-13" x="97456.11" y="-180761.996"/><use xlink:href="#fTjqTGTOcTCKumXgMkwR_pad-11" x="95404.911" y="-211083.82"/><use xlink:href="#fTjqTGTOcTCKumXgMkwR_pad-11" x="97654.911" y="-211083.82"/><use xlink:href="#fTjqTGTOcTCKumXgMkwR_pad-11" x="93154.911" y="-211083.82"/><use xlink:href="#fTjqTGTOcTCKumXgMkwR_pad-12" x="195405.516" y="-201083.82"/><use xlink:href="#fTjqTGTOcTCKumXgMkwR_pad-12" x="198405.516" y="-201083.82"/><use xlink:href="#fTjqTGTOcTCKumXgMkwR_pad-12" x="192405.516" y="-201083.82"/><use xlink:href="#fTjqTGTOcTCKumXgMkwR_pad-12" x="125739.116" y="-211083.82"/><use xlink:href="#fTjqTGTOcTCKumXgMkwR_pad-12" x="131739.116" y="-211083.82"/><use xlink:href="#fTjqTGTOcTCKumXgMkwR_pad-12" x="128739.116" y="-211083.82"/><use xlink:href="#fTjqTGTOcTCKumXgMkwR_pad-12" x="245405.304" y="-211083.82"/><use xlink:href="#fTjqTGTOcTCKumXgMkwR_pad-12" x="248405.304" y="-211083.82"/><use xlink:href="#fTjqTGTOcTCKumXgMkwR_pad-12" x="242405.304" y="-211083.82"/><use xlink:href="#fTjqTGTOcTCKumXgMkwR_pad-12" x="309071.704" y="-201083.82"/><use xlink:href="#fTjqTGTOcTCKumXgMkwR_pad-12" x="315071.704" y="-201083.82"/><use xlink:href="#fTjqTGTOcTCKumXgMkwR_pad-12" x="312071.704" y="-201083.82"/><use xlink:href="#fTjqTGTOcTCKumXgMkwR_pad-11" x="343154.9" y="-201083.82"/><use xlink:href="#fTjqTGTOcTCKumXgMkwR_pad-11" x="347654.9" y="-201083.82"/><use xlink:href="#fTjqTGTOcTCKumXgMkwR_pad-11" x="345404.9" y="-201083.82"/><use xlink:href="#fTjqTGTOcTCKumXgMkwR_pad-13" x="359988.206" y="-209083.82"/><use xlink:href="#fTjqTGTOcTCKumXgMkwR_pad-13" x="359988.206" y="-207083.82"/><use xlink:href="#fTjqTGTOcTCKumXgMkwR_pad-13" x="359988.206" y="-205083.82"/><use xlink:href="#fTjqTGTOcTCKumXgMkwR_pad-13" x="359988.206" y="-203083.82"/><use xlink:href="#fTjqTGTOcTCKumXgMkwR_pad-13" x="80822.632" y="-209117.154"/><use xlink:href="#fTjqTGTOcTCKumXgMkwR_pad-13" x="80822.632" y="-207117.154"/><use xlink:href="#fTjqTGTOcTCKumXgMkwR_pad-13" x="80822.632" y="-205117.154"/><use xlink:href="#fTjqTGTOcTCKumXgMkwR_pad-13" x="80822.632" y="-203117.154"/><use xlink:href="#fTjqTGTOcTCKumXgMkwR_pad-12" x="284099.354" y="-223167.7"/><use xlink:href="#fTjqTGTOcTCKumXgMkwR_pad-12" x="290099.354" y="-223167.7"/><use xlink:href="#fTjqTGTOcTCKumXgMkwR_pad-12" x="287099.354" y="-223167.7"/><use xlink:href="#fTjqTGTOcTCKumXgMkwR_pad-12" x="167433.168" y="-223167.7"/><use xlink:href="#fTjqTGTOcTCKumXgMkwR_pad-12" x="173433.168" y="-223167.7"/><use xlink:href="#fTjqTGTOcTCKumXgMkwR_pad-12" x="170433.168" y="-223167.7"/><use xlink:href="#fTjqTGTOcTCKumXgMkwR_pad-11" x="318182.55" y="-223167.7"/><use xlink:href="#fTjqTGTOcTCKumXgMkwR_pad-11" x="322682.55" y="-223167.7"/><use xlink:href="#fTjqTGTOcTCKumXgMkwR_pad-11" x="320432.55" y="-223167.7"/><use xlink:href="#fTjqTGTOcTCKumXgMkwR_pad-13" x="345432.364" y="-230617.7"/><use xlink:href="#fTjqTGTOcTCKumXgMkwR_pad-13" x="345432.364" y="-228617.7"/><use xlink:href="#fTjqTGTOcTCKumXgMkwR_pad-13" x="345432.364" y="-226617.7"/><use xlink:href="#fTjqTGTOcTCKumXgMkwR_pad-13" x="345432.364" y="-224617.7"/><use xlink:href="#fTjqTGTOcTCKumXgMkwR_pad-13" x="97516.776" y="-230617.7"/><use xlink:href="#fTjqTGTOcTCKumXgMkwR_pad-13" x="97516.776" y="-228617.7"/><use xlink:href="#fTjqTGTOcTCKumXgMkwR_pad-13" x="97516.776" y="-226617.7"/><use xlink:href="#fTjqTGTOcTCKumXgMkwR_pad-13" x="97516.776" y="-224617.7"/><use xlink:href="#fTjqTGTOcTCKumXgMkwR_pad-11" x="101480.465" y="-80831.888"/><use xlink:href="#fTjqTGTOcTCKumXgMkwR_pad-11" x="105980.465" y="-80831.888"/><use xlink:href="#fTjqTGTOcTCKumXgMkwR_pad-11" x="103730.465" y="-80831.888"/><use xlink:href="#fTjqTGTOcTCKumXgMkwR_pad-12" x="187064.53" y="-70831.888"/><use xlink:href="#fTjqTGTOcTCKumXgMkwR_pad-12" x="190064.53" y="-70831.888"/><use xlink:href="#fTjqTGTOcTCKumXgMkwR_pad-12" x="184064.53" y="-70831.888"/><use xlink:href="#fTjqTGTOcTCKumXgMkwR_pad-12" x="134064.67" y="-80831.888"/><use xlink:href="#fTjqTGTOcTCKumXgMkwR_pad-12" x="140064.67" y="-80831.888"/><use xlink:href="#fTjqTGTOcTCKumXgMkwR_pad-12" x="137064.67" y="-80831.888"/><use xlink:href="#fTjqTGTOcTCKumXgMkwR_pad-12" x="253730.858" y="-80831.888"/><use xlink:href="#fTjqTGTOcTCKumXgMkwR_pad-12" x="256730.858" y="-80831.888"/><use xlink:href="#fTjqTGTOcTCKumXgMkwR_pad-12" x="250730.858" y="-80831.888"/><use xlink:href="#fTjqTGTOcTCKumXgMkwR_pad-12" x="300730.718" y="-70831.888"/><use xlink:href="#fTjqTGTOcTCKumXgMkwR_pad-12" x="306730.718" y="-70831.888"/><use xlink:href="#fTjqTGTOcTCKumXgMkwR_pad-12" x="303730.718" y="-70831.888"/><use xlink:href="#fTjqTGTOcTCKumXgMkwR_pad-11" x="334813.914" y="-70831.888"/><use xlink:href="#fTjqTGTOcTCKumXgMkwR_pad-11" x="339313.914" y="-70831.888"/><use xlink:href="#fTjqTGTOcTCKumXgMkwR_pad-11" x="337063.914" y="-70831.888"/><use xlink:href="#fTjqTGTOcTCKumXgMkwR_pad-13" x="351647.22" y="-78831.888"/><use xlink:href="#fTjqTGTOcTCKumXgMkwR_pad-13" x="351647.22" y="-76831.888"/><use xlink:href="#fTjqTGTOcTCKumXgMkwR_pad-13" x="351647.22" y="-74831.888"/><use xlink:href="#fTjqTGTOcTCKumXgMkwR_pad-13" x="351647.22" y="-72831.888"/><use xlink:href="#fTjqTGTOcTCKumXgMkwR_pad-13" x="89148.186" y="-78865.222"/><use xlink:href="#fTjqTGTOcTCKumXgMkwR_pad-13" x="89148.186" y="-76865.222"/><use xlink:href="#fTjqTGTOcTCKumXgMkwR_pad-13" x="89148.186" y="-74865.222"/><use xlink:href="#fTjqTGTOcTCKumXgMkwR_pad-13" x="89148.186" y="-72865.222"/></g></svg>