<svg version="1.1" xmlns="http://www.w3.org/2000/svg" xmlns:xlink="http://www.w3.org/1999/xlink" stroke-linecap="round" stroke-linejoin="round" stroke-width="0" fill-rule="evenodd" width="255.749989mm" height="156.335812mm" viewBox="92529.911 -225167.7 255749.989 156335.812" id="mZ5m7OWBCz0s1iFeKaPu"><defs><rect x="-625" y="-2000" width="1250" height="4000" id="mZ5m7OWBCz0s1iFeKaPu_pad-10"/><rect x="-1000" y="-2000" width="2000" height="4000" id="mZ5m7OWBCz0s1iFeKaPu_pad-11"/></defs><g transform="translate(0,-293999.588) scale(1,-1)" fill="currentColor" stroke="currentColor"><use xlink:href="#mZ5m7OWBCz0s1iFeKaPu_pad-10" x="103730.465" y="-104315.888"/><use xlink:href="#mZ5m7OWBCz0s1iFeKaPu_pad-10" x="105980.465" y="-104315.888"/><use xlink:href="#mZ5m7OWBCz0s1iFeKaPu_pad-10" x="101480.465" y="-104315.888"/><use xlink:href="#mZ5m7OWBCz0s1iFeKaPu_pad-11" x="184064.53" y="-94315.888"/><use xlink:href="#mZ5m7OWBCz0s1iFeKaPu_pad-11" x="190064.53" y="-94315.888"/><use xlink:href="#mZ5m7OWBCz0s1iFeKaPu_pad-11" x="187064.53" y="-94315.888"/><use xlink:href="#mZ5m7OWBCz0s1iFeKaPu_pad-10" x="337063.914" y="-94315.888"/><use xlink:href="#mZ5m7OWBCz0s1iFeKaPu_pad-10" x="339313.914" y="-94315.888"/><use xlink:href="#mZ5m7OWBCz0s1iFeKaPu_pad-10" x="334813.914" y="-94315.888"/><use xlink:href="#mZ5m7OWBCz0s1iFeKaPu_pad-11" x="303730.718" y="-94315.888"/><use xlink:href="#mZ5m7OWBCz0s1iFeKaPu_pad-11" x="306730.718" y="-94315.888"/><use xlink:href="#mZ5m7OWBCz0s1iFeKaPu_pad-11" x="300730.718" y="-94315.888"/><use xlink:href="#mZ5m7OWBCz0s1iFeKaPu_pad-11" x="137064.67" y="-104315.888"/><use xlink:href="#mZ5m7OWBCz0s1iFeKaPu_pad-11" x="140064.67" y="-104315.888"/><use xlink:href="#mZ5m7OWBCz0s1iFeKaPu_pad-11" x="134064.67" y="-104315.888"/><use xlink:href="#mZ5m7OWBCz0s1iFeKaPu_pad-11" x="250730.858" y="-104315.888"/><use xlink:href="#mZ5m7OWBCz0s1iFeKaPu_pad-11" x="256730.858" y="-104315.888"/><use xlink:href="#mZ5m7OWBCz0s1iFeKaPu_pad-11" x="253730.858" y="-104315.888"/><use xlink:href="#mZ5m7OWBCz0s1iFeKaPu_pad-11" x="142372.594" y="-141618.662"/><use xlink:href="#mZ5m7OWBCz0s1iFeKaPu_pad-11" x="148372.594" y="-141618.662"/><use xlink:href="#mZ5m7OWBCz0s1iFeKaPu_pad-11" x="145372.594" y="-141618.662"/><use xlink:href="#mZ5m7OWBCz0s1iFeKaPu_pad-11" x="262038.782" y="-141618.662"/><use xlink:href="#mZ5m7OWBCz0s1iFeKaPu_pad-11" x="265038.782" y="-141618.662"/><use xlink:href="#mZ5m7OWBCz0s1iFeKaPu_pad-11" x="259038.782" y="-141618.662"/><use xlink:href="#mZ5m7OWBCz0s1iFeKaPu_pad-10" x="109788.658" y="-141618.662"/><use xlink:href="#mZ5m7OWBCz0s1iFeKaPu_pad-10" x="114288.658" y="-141618.662"/><use xlink:href="#mZ5m7OWBCz0s1iFeKaPu_pad-10" x="112038.658" y="-141618.662"/><use xlink:href="#mZ5m7OWBCz0s1iFeKaPu_pad-11" x="178705.794" y="-131618.662"/><use xlink:href="#mZ5m7OWBCz0s1iFeKaPu_pad-11" x="181705.794" y="-131618.662"/><use xlink:href="#mZ5m7OWBCz0s1iFeKaPu_pad-11" x="175705.794" y="-131618.662"/><use xlink:href="#mZ5m7OWBCz0s1iFeKaPu_pad-10" x="326455.178" y="-131618.662"/><use xlink:href="#mZ5m7OWBCz0s1iFeKaPu_pad-10" x="330955.178" y="-131618.662"/><use xlink:href="#mZ5m7OWBCz0s1iFeKaPu_pad-10" x="328705.178" y="-131618.662"/><use xlink:href="#mZ5m7OWBCz0s1iFeKaPu_pad-11" x="292371.982" y="-131618.662"/><use xlink:href="#mZ5m7OWBCz0s1iFeKaPu_pad-11" x="298371.982" y="-131618.662"/><use xlink:href="#mZ5m7OWBCz0s1iFeKaPu_pad-11" x="295371.982" y="-131618.662"/><use xlink:href="#mZ5m7OWBCz0s1iFeKaPu_pad-11" x="145372.594" y="-165173.662"/><use xlink:href="#mZ5m7OWBCz0s1iFeKaPu_pad-11" x="148372.594" y="-165173.662"/><use xlink:href="#mZ5m7OWBCz0s1iFeKaPu_pad-11" x="142372.594" y="-165173.662"/><use xlink:href="#mZ5m7OWBCz0s1iFeKaPu_pad-11" x="259038.782" y="-165173.662"/><use xlink:href="#mZ5m7OWBCz0s1iFeKaPu_pad-11" x="265038.782" y="-165173.662"/><use xlink:href="#mZ5m7OWBCz0s1iFeKaPu_pad-11" x="262038.782" y="-165173.662"/><use xlink:href="#mZ5m7OWBCz0s1iFeKaPu_pad-10" x="112038.658" y="-165173.662"/><use xlink:href="#mZ5m7OWBCz0s1iFeKaPu_pad-10" x="114288.658" y="-165173.662"/><use xlink:href="#mZ5m7OWBCz0s1iFeKaPu_pad-10" x="109788.658" y="-165173.662"/><use xlink:href="#mZ5m7OWBCz0s1iFeKaPu_pad-11" x="175705.794" y="-155173.662"/><use xlink:href="#mZ5m7OWBCz0s1iFeKaPu_pad-11" x="181705.794" y="-155173.662"/><use xlink:href="#mZ5m7OWBCz0s1iFeKaPu_pad-11" x="178705.794" y="-155173.662"/><use xlink:href="#mZ5m7OWBCz0s1iFeKaPu_pad-11" x="295371.982" y="-155173.662"/><use xlink:href="#mZ5m7OWBCz0s1iFeKaPu_pad-11" x="298371.982" y="-155173.662"/><use xlink:href="#mZ5m7OWBCz0s1iFeKaPu_pad-11" x="292371.982" y="-155173.662"/><use xlink:href="#mZ5m7OWBCz0s1iFeKaPu_pad-10" x="328705.178" y="-155173.662"/><use xlink:href="#mZ5m7OWBCz0s1iFeKaPu_pad-10" x="330955.178" y="-155173.662"/><use xlink:href="#mZ5m7OWBCz0s1iFeKaPu_pad-10" x="326455.178" y="-155173.662"/><use xlink:href="#mZ5m7OWBCz0s1iFeKaPu_pad-11" x="266866.415" y="-116365.487"/><use xlink:href="#mZ5m7OWBCz0s1iFeKaPu_pad-11" x="272866.415" y="-116365.487"/><use xlink:href="#mZ5m7OWBCz0s1iFeKaPu_pad-11" x="269866.415" y="-116365.487"/><use xlink:href="#mZ5m7OWBCz0s1iFeKaPu_pad-11" x="150200.229" y="-116365.487"/><use xlink:href="#mZ5m7OWBCz0s1iFeKaPu_pad-11" x="156200.229" y="-116365.487"/><use xlink:href="#mZ5m7OWBCz0s1iFeKaPu_pad-11" x="153200.229" y="-116365.487"/><use xlink:href="#mZ5m7OWBCz0s1iFeKaPu_pad-10" x="300949.611" y="-116365.487"/><use xlink:href="#mZ5m7OWBCz0s1iFeKaPu_pad-10" x="305449.611" y="-116365.487"/><use xlink:href="#mZ5m7OWBCz0s1iFeKaPu_pad-10" x="303199.611" y="-116365.487"/><use xlink:href="#mZ5m7OWBCz0s1iFeKaPu_pad-10" x="109788.658" y="-188728.662"/><use xlink:href="#mZ5m7OWBCz0s1iFeKaPu_pad-10" x="114288.658" y="-188728.662"/><use xlink:href="#mZ5m7OWBCz0s1iFeKaPu_pad-10" x="112038.658" y="-188728.662"/><use xlink:href="#mZ5m7OWBCz0s1iFeKaPu_pad-11" x="178705.794" y="-178728.662"/><use xlink:href="#mZ5m7OWBCz0s1iFeKaPu_pad-11" x="181705.794" y="-178728.662"/><use xlink:href="#mZ5m7OWBCz0s1iFeKaPu_pad-11" x="175705.794" y="-178728.662"/><use xlink:href="#mZ5m7OWBCz0s1iFeKaPu_pad-11" x="142372.594" y="-188728.662"/><use xlink:href="#mZ5m7OWBCz0s1iFeKaPu_pad-11" x="148372.594" y="-188728.662"/><use xlink:href="#mZ5m7OWBCz0s1iFeKaPu_pad-11" x="145372.594" y="-188728.662"/><use xlink:href="#mZ5m7OWBCz0s1iFeKaPu_pad-11" x="262038.782" y="-188728.662"/><use xlink:href="#mZ5m7OWBCz0s1iFeKaPu_pad-11" x="265038.782" y="-188728.662"/><use xlink:href="#mZ5m7OWBCz0s1iFeKaPu_pad-11" x="259038.782" y="-188728.662"/><use xlink:href="#mZ5m7OWBCz0s1iFeKaPu_pad-11" x="292371.982" y="-178728.662"/><use xlink:href="#mZ5m7OWBCz0s1iFeKaPu_pad-11" x="298371.982" y="-178728.662"/><use xlink:href="#mZ5m7OWBCz0s1iFeKaPu_pad-11" x="295371.982" y="-178728.662"/><use xlink:href="#mZ5m7OWBCz0s1iFeKaPu_pad-10" x="326455.178" y="-178728.662"/><use xlink:href="#mZ5m7OWBCz0s1iFeKaPu_pad-10" x="330955.178" y="-178728.662"/><use xlink:href="#mZ5m7OWBCz0s1iFeKaPu_pad-10" x="328705.178" y="-178728.662"/><use xlink:href="#mZ5m7OWBCz0s1iFeKaPu_pad-10" x="95404.911" y="-211083.82"/><use xlink:href="#mZ5m7OWBCz0s1iFeKaPu_pad-10" x="97654.911" y="-211083.82"/><use xlink:href="#mZ5m7OWBCz0s1iFeKaPu_pad-10" x="93154.911" y="-211083.82"/><use xlink:href="#mZ5m7OWBCz0s1iFeKaPu_pad-11" x="195405.516" y="-201083.82"/><use xlink:href="#mZ5m7OWBCz0s1iFeKaPu_pad-11" x="198405.516" y="-201083.82"/><use xlink:href="#mZ5m7OWBCz0s1iFeKaPu_pad-11" x="192405.516" y="-201083.82"/><use xlink:href="#mZ5m7OWBCz0s1iFeKaPu_pad-11" x="125739.116" y="-211083.82"/><use xlink:href="#mZ5m7OWBCz0s1iFeKaPu_pad-11" x="131739.116" y="-211083.82"/><use xlink:href="#mZ5m7OWBCz0s1iFeKaPu_pad-11" x="128739.116" y="-211083.82"/><use xlink:href="#mZ5m7OWBCz0s1iFeKaPu_pad-11" x="245405.304" y="-211083.82"/><use xlink:href="#mZ5m7OWBCz0s1iFeKaPu_pad-11" x="248405.304" y="-211083.82"/><use xlink:href="#mZ5m7OWBCz0s1iFeKaPu_pad-11" x="242405.304" y="-211083.82"/><use xlink:href="#mZ5m7OWBCz0s1iFeKaPu_pad-11" x="309071.704" y="-201083.82"/><use xlink:href="#mZ5m7OWBCz0s1iFeKaPu_pad-11" x="315071.704" y="-201083.82"/><use xlink:href="#mZ5m7OWBCz0s1iFeKaPu_pad-11" x="312071.704" y="-201083.82"/><use xlink:href="#mZ5m7OWBCz0s1iFeKaPu_pad-10" x="343154.9" y="-201083.82"/><use xlink:href="#mZ5m7OWBCz0s1iFeKaPu_pad-10" x="347654.9" y="-201083.82"/><use xlink:href="#mZ5m7OWBCz0s1iFeKaPu_pad-10" x="345404.9" y="-201083.82"/><use xlink:href="#mZ5m7OWBCz0s1iFeKaPu_pad-11" x="284099.354" y="-223167.7"/><use xlink:href="#mZ5m7OWBCz0s1iFeKaPu_pad-11" x="290099.354" y="-223167.7"/><use xlink:href="#mZ5m7OWBCz0s1iFeKaPu_pad-11" x="287099.354" y="-223167.7"/><use xlink:href="#mZ5m7OWBCz0s1iFeKaPu_pad-11" x="167433.168" y="-223167.7"/><use xlink:href="#mZ5m7OWBCz0s1iFeKaPu_pad-11" x="173433.168" y="-223167.7"/><use xlink:href="#mZ5m7OWBCz0s1iFeKaPu_pad-11" x="170433.168" y="-223167.7"/><use xlink:href="#mZ5m7OWBCz0s1iFeKaPu_pad-10" x="318182.55" y="-223167.7"/><use xlink:href="#mZ5m7OWBCz0s1iFeKaPu_pad-10" x="322682.55" y="-223167.7"/><use xlink:href="#mZ5m7OWBCz0s1iFeKaPu_pad-10" x="320432.55" y="-223167.7"/><use xlink:href="#mZ5m7OWBCz0s1iFeKaPu_pad-10" x="101480.465" y="-80831.888"/><use xlink:href="#mZ5m7OWBCz0s1iFeKaPu_pad-10" x="105980.465" y="-80831.888"/><use xlink:href="#mZ5m7OWBCz0s1iFeKaPu_pad-10" x="103730.465" y="-80831.888"/><use xlink:href="#mZ5m7OWBCz0s1iFeKaPu_pad-11" x="187064.53" y="-70831.888"/><use xlink:href="#mZ5m7OWBCz0s1iFeKaPu_pad-11" x="190064.53" y="-70831.888"/><use xlink:href="#mZ5m7OWBCz0s1iFeKaPu_pad-11" x="184064.53" y="-70831.888"/><use xlink:href="#mZ5m7OWBCz0s1iFeKaPu_pad-11" x="134064.67" y="-80831.888"/><use xlink:href="#mZ5m7OWBCz0s1iFeKaPu_pad-11" x="140064.67" y="-80831.888"/><use xlink:href="#mZ5m7OWBCz0s1iFeKaPu_pad-11" x="137064.67" y="-80831.888"/><use xlink:href="#mZ5m7OWBCz0s1iFeKaPu_pad-11" x="253730.858" y="-80831.888"/><use xlink:href="#mZ5m7OWBCz0s1iFeKaPu_pad-11" x="256730.858" y="-80831.888"/><use xlink:href="#mZ5m7OWBCz0s1iFeKaPu_pad-11" x="250730.858" y="-80831.888"/><use xlink:href="#mZ5m7OWBCz0s1iFeKaPu_pad-11" x="300730.718" y="-70831.888"/><use xlink:href="#mZ5m7OWBCz0s1iFeKaPu_pad-11" x="306730.718" y="-70831.888"/><use xlink:href="#mZ5m7OWBCz0s1iFeKaPu_pad-11" x="303730.718" y="-70831.888"/><use xlink:href="#mZ5m7OWBCz0s1iFeKaPu_pad-10" x="334813.914" y="-70831.888"/><use xlink:href="#mZ5m7OWBCz0s1iFeKaPu_pad-10" x="339313.914" y="-70831.888"/><use xlink:href="#mZ5m7OWBCz0s1iFeKaPu_pad-10" x="337063.914" y="-70831.888"/></g></svg>