M48
INCH,TZ
T1C0.0197
T2C0.0236
%
G90
G05
T1
X109101Y-60285
X109495Y-60285
X109889Y-60285
X110282Y-60285
X35331Y-88524
X35331Y-45020
X35331Y-45413
X35331Y-45807
X35331Y-46201
X35331Y-51713
X35331Y-52106
X35331Y-52500
X35331Y-88917
X35331Y-89311
X35331Y-89705
X35331Y-85177
X35331Y-85571
X35331Y-85965
X35331Y-86358
X71916Y-57715
X72310Y-57715
X72703Y-57715
X73097Y-57715
X109101Y-80364
X109495Y-80364
X109889Y-80364
X110282Y-80364
X35331Y-41673
X35331Y-52894
X109091Y-51022
X109485Y-51022
X109879Y-51022
X110272Y-51022
X35331Y-61752
X35331Y-62146
X35331Y-62539
X35331Y-62933
X146887Y-78484
X146887Y-78878
X146887Y-79272
X146887Y-79665
X146887Y-51713
X146887Y-52106
X146887Y-52500
X146887Y-52894
X71926Y-83711
X72320Y-83711
X72713Y-83711
X73107Y-83711
X71916Y-64408
X72310Y-64408
X72703Y-64408
X73097Y-64408
X146887Y-85177
X146887Y-85571
X146887Y-85965
X146887Y-86358
X146887Y-58406
X146887Y-58799
X146887Y-59193
X146887Y-59587
X71916Y-54369
X72310Y-54369
X72703Y-54369
X109091Y-61061
X109485Y-61061
X109879Y-61061
X110272Y-61061
X71916Y-51022
X72310Y-51022
X72703Y-51022
X73097Y-51022
X71926Y-56939
X72320Y-56939
X35331Y-42067
X73097Y-54369
X35331Y-42461
X35331Y-42854
X109101Y-63632
X109495Y-63632
X109889Y-63632
X110282Y-63632
X71926Y-53593
X72320Y-53593
X72713Y-53593
X73107Y-53593
X71926Y-63632
X72320Y-63632
X72713Y-63632
X73107Y-63632
X71926Y-66978
X72320Y-66978
X72713Y-66978
X73107Y-66978
X35331Y-65098
X35331Y-65492
X35331Y-65886
X35331Y-66280
X109101Y-66978
X109495Y-66978
X109889Y-66978
X110282Y-66978
X71926Y-80364
X72320Y-80364
X72713Y-80364
X73107Y-80364
X109091Y-71101
X109485Y-71101
X109879Y-71101
X110272Y-71101
X109101Y-50246
X109495Y-50246
X109889Y-50246
X72320Y-50246
X110282Y-50246
X146887Y-75138
X146887Y-75531
X146887Y-75925
X146887Y-76319
X71916Y-87833
X72310Y-87833
X72703Y-87833
X73097Y-87833
X109091Y-77794
X109485Y-77794
X109879Y-77794
X110272Y-77794
X71916Y-67754
X72310Y-67754
X72703Y-67754
X73097Y-67754
X71916Y-91180
X72310Y-91180
X72703Y-47676
X72703Y-91180
X73097Y-91180
X109091Y-64408
X71926Y-60285
X72320Y-60285
X72713Y-60285
X73107Y-60285
X109091Y-81140
X109485Y-81140
X109879Y-81140
X110272Y-81140
X35331Y-78484
X35331Y-78878
X35331Y-79272
X35331Y-79665
X109101Y-53593
X71916Y-81140
X72310Y-81140
X72703Y-81140
X73097Y-81140
X71916Y-47676
X72310Y-47676
X73097Y-47676
X109091Y-47676
X109485Y-47676
X109879Y-47676
X110272Y-47676
X109495Y-53593
X109101Y-93750
X109495Y-93750
X109889Y-93750
X110282Y-93750
X109485Y-64408
X35331Y-76319
X109091Y-57715
X109879Y-64408
X110272Y-64408
X35331Y-75925
X110272Y-57715
X109889Y-53593
X35331Y-75138
X35331Y-75531
X109879Y-57715
X110282Y-53593
X71926Y-50246
X72713Y-50246
X73107Y-50246
X109485Y-57715
X72713Y-56939
X35331Y-55059
X35331Y-55453
X35331Y-55846
X35331Y-56240
X109101Y-83711
X109495Y-83711
X109889Y-83711
X110282Y-83711
X35331Y-68445
X35331Y-68839
X35331Y-69232
X35331Y-69626
X109101Y-70325
X109495Y-70325
X109889Y-70325
X110282Y-70325
X109101Y-56939
X109495Y-56939
X109889Y-56939
X110282Y-56939
X35331Y-48366
X35331Y-48760
X35331Y-49154
X35331Y-49547
X35331Y-71791
X35331Y-72185
X35331Y-72579
X35331Y-72972
X71916Y-40983
X72310Y-40983
X72703Y-40983
X73097Y-40983
X71916Y-84487
X72310Y-84487
X72703Y-84487
X73097Y-84487
X71926Y-43553
X72320Y-43553
X72713Y-43553
X73107Y-43553
X146887Y-65492
X146887Y-65886
X146887Y-66280
X35331Y-58406
X35331Y-58799
X35331Y-59193
X35331Y-59587
X146887Y-81831
X146887Y-65098
X146887Y-82224
X146887Y-82618
X146887Y-83012
X109091Y-87833
X109485Y-87833
X109879Y-87833
X110272Y-87833
X146887Y-48366
X146887Y-48760
X146887Y-49154
X146887Y-49547
X109091Y-54369
X109485Y-54369
X109879Y-54369
X73107Y-56939
X110272Y-54369
X71916Y-74447
X72310Y-74447
X72703Y-74447
X73097Y-74447
X71926Y-73671
X72320Y-73671
X72713Y-73671
X73107Y-73671
X109101Y-90404
X109495Y-90404
X109889Y-90404
X110282Y-90404
X146887Y-55059
X146887Y-55453
X146887Y-55846
X146887Y-56240
X71916Y-71101
X72310Y-71101
X72703Y-71101
X73097Y-71101
X109101Y-87057
X109495Y-87057
X109889Y-87057
X110282Y-87057
X146887Y-71791
X146887Y-72185
X146887Y-72579
X146887Y-72972
X109091Y-40983
X109485Y-40983
X109879Y-40983
X110272Y-40983
X71926Y-70325
X72320Y-70325
X72713Y-70325
X73107Y-70325
X71916Y-44329
X72310Y-44329
X72703Y-44329
X73097Y-44329
X109101Y-73671
X109495Y-73671
X109889Y-73671
X110282Y-73671
X146887Y-61752
X146887Y-62146
X146887Y-62539
X146887Y-62933
X109091Y-91180
X109485Y-91180
X109879Y-91180
X110272Y-91180
X109101Y-43553
X109495Y-43553
X109889Y-43553
X110282Y-43553
X109091Y-44329
X109485Y-44329
X109879Y-44329
X110272Y-44329
X109101Y-77018
X109495Y-77018
X109889Y-77018
X110282Y-77018
X71926Y-46900
X72320Y-46900
X72713Y-46900
X73107Y-46900
X71926Y-87057
X109091Y-74447
X109485Y-74447
X109879Y-74447
X72320Y-87057
X72713Y-87057
X73107Y-87057
X110272Y-74447
X71926Y-77018
X72320Y-77018
X72713Y-77018
X73107Y-77018
X146887Y-68445
X146887Y-68839
X146887Y-45020
X146887Y-45413
X146887Y-45807
X146887Y-69232
X146887Y-69626
X146887Y-91870
X146887Y-92264
X146887Y-92657
X146887Y-93051
X146887Y-46201
X109091Y-84487
X109485Y-84487
X109879Y-84487
X110272Y-84487
X71926Y-93750
X72320Y-93750
X72713Y-93750
X73107Y-93750
X35331Y-81831
X35331Y-82224
X35331Y-82618
X35331Y-83012
X109091Y-67754
X109485Y-67754
X109101Y-46900
X109495Y-46900
X109889Y-46900
X35331Y-91870
X109879Y-67754
X110272Y-67754
X71916Y-77794
X72310Y-77794
X35331Y-92264
X35331Y-92657
X72703Y-77794
X110282Y-46900
X73097Y-77794
X146887Y-88524
X146887Y-88917
X146887Y-89311
X146887Y-89705
X35331Y-93051
X71926Y-90404
X72320Y-90404
X146887Y-41673
X146887Y-42067
X146887Y-42461
X146887Y-42854
X72713Y-90404
X73107Y-90404
X71916Y-61061
X72310Y-61061
X72703Y-61061
X73097Y-61061
T2
X36667Y-42244
X36667Y-42244
X36667Y-45591
X36667Y-45591
X36667Y-48937
X36667Y-48937
X36667Y-52284
X36667Y-52284
X36667Y-55630
X36667Y-55630
X36667Y-58976
X36667Y-58976
X36667Y-62323
X36667Y-62323
X36667Y-65669
X36667Y-65669
X36667Y-69016
X36667Y-69016
X36667Y-72362
X36667Y-72362
X36667Y-75709
X36667Y-75709
X36667Y-79055
X36667Y-79055
X36667Y-82402
X36667Y-82402
X36667Y-85748
X36667Y-85748
X36667Y-89095
X36667Y-89095
X36667Y-92441
X36667Y-92441
X38261Y-42284
X38261Y-42284
X38261Y-45630
X38261Y-45630
X38261Y-48976
X38261Y-48976
X38261Y-52323
X38261Y-52323
X38261Y-55669
X38261Y-55669
X38261Y-59016
X38261Y-59016
X38261Y-62362
X38261Y-62362
X38261Y-65709
X38261Y-65709
X38261Y-69055
X38261Y-69055
X38261Y-72402
X38261Y-72402
X38261Y-75748
X38261Y-75748
X38261Y-79095
X38261Y-79095
X38261Y-82441
X38261Y-82441
X38261Y-85787
X38261Y-85787
X38261Y-89134
X38261Y-89134
X38261Y-92480
X38261Y-92480
X38629Y-41976
X38629Y-41976
X38629Y-45322
X38629Y-45322
X38629Y-48669
X38629Y-48669
X38629Y-52015
X38629Y-52015
X38629Y-55362
X38629Y-55362
X38629Y-58708
X38629Y-58708
X38629Y-62055
X38629Y-62055
X38629Y-65401
X38629Y-65401
X38629Y-68748
X38629Y-68748
X38629Y-72094
X38629Y-72094
X38629Y-75441
X38629Y-75441
X38629Y-78787
X38629Y-78787
X38629Y-82133
X38629Y-82133
X38629Y-85480
X38629Y-85480
X38629Y-88826
X38629Y-88826
X38629Y-92173
X38629Y-92173
X38952Y-42295
X38952Y-42295
X38952Y-45642
X38952Y-45642
X38952Y-48988
X38952Y-48988
X38952Y-52335
X38952Y-52335
X38952Y-55681
X38952Y-55681
X38952Y-59027
X38952Y-59027
X38952Y-62374
X38952Y-62374
X38952Y-65720
X38952Y-65720
X38952Y-69067
X38952Y-69067
X38952Y-72413
X38952Y-72413
X38952Y-75760
X38952Y-75760
X38952Y-79106
X38952Y-79106
X38952Y-82453
X38952Y-82453
X38952Y-85799
X38952Y-85799
X38952Y-89146
X38952Y-89146
X38952Y-92492
X38952Y-92492
X40048Y-42283
X40048Y-42283
X40048Y-45629
X40048Y-45629
X40048Y-48976
X40048Y-48976
X40048Y-52322
X40048Y-52322
X40048Y-55668
X40048Y-55668
X40048Y-59015
X40048Y-59015
X40048Y-62361
X40048Y-62361
X40048Y-65708
X40048Y-65708
X40048Y-69054
X40048Y-69054
X40048Y-72401
X40048Y-72401
X40048Y-75747
X40048Y-75747
X40048Y-79094
X40048Y-79094
X40048Y-82440
X40048Y-82440
X40048Y-85787
X40048Y-85787
X40048Y-89133
X40048Y-89133
X40048Y-92479
X40048Y-92479
X40531Y-42294
X40531Y-42294
X40531Y-45641
X40531Y-45641
X40531Y-48987
X40531Y-48987
X40531Y-52333
X40531Y-52333
X40531Y-55680
X40531Y-55680
X40531Y-59026
X40531Y-59026
X40531Y-62373
X40531Y-62373
X40531Y-65719
X40531Y-65719
X40531Y-69066
X40531Y-69066
X40531Y-72412
X40531Y-72412
X40531Y-75759
X40531Y-75759
X40531Y-79105
X40531Y-79105
X40531Y-82452
X40531Y-82452
X40531Y-85798
X40531Y-85798
X40531Y-89144
X40531Y-89144
X40531Y-92491
X40531Y-92491
X41363Y-42299
X41363Y-42299
X41363Y-45645
X41363Y-45645
X41363Y-48992
X41363Y-48992
X41363Y-52338
X41363Y-52338
X41363Y-55685
X41363Y-55685
X41363Y-59031
X41363Y-59031
X41363Y-62378
X41363Y-62378
X41363Y-65724
X41363Y-65724
X41363Y-69071
X41363Y-69071
X41363Y-72417
X41363Y-72417
X41363Y-75763
X41363Y-75763
X41363Y-79110
X41363Y-79110
X41363Y-82456
X41363Y-82456
X41363Y-85803
X41363Y-85803
X41363Y-89149
X41363Y-89149
X41363Y-92496
X41363Y-92496
X42159Y-42218
X42159Y-42218
X42159Y-45564
X42159Y-45564
X42159Y-48911
X42159Y-48911
X42159Y-52257
X42159Y-52257
X42159Y-55604
X42159Y-55604
X42159Y-58950
X42159Y-58950
X42159Y-62297
X42159Y-62297
X42159Y-65643
X42159Y-65643
X42159Y-68990
X42159Y-68990
X42159Y-72336
X42159Y-72336
X42159Y-75683
X42159Y-75683
X42159Y-79029
X42159Y-79029
X42159Y-82375
X42159Y-82375
X42159Y-85722
X42159Y-85722
X42159Y-89068
X42159Y-89068
X42159Y-92415
X42159Y-92415
X42605Y-42303
X42605Y-42303
X42605Y-45650
X42605Y-45650
X42605Y-48996
X42605Y-48996
X42605Y-52343
X42605Y-52343
X42605Y-55689
X42605Y-55689
X42605Y-59036
X42605Y-59036
X42605Y-62382
X42605Y-62382
X42605Y-65728
X42605Y-65728
X42605Y-69075
X42605Y-69075
X42605Y-72421
X42605Y-72421
X42605Y-75768
X42605Y-75768
X42605Y-79114
X42605Y-79114
X42605Y-82461
X42605Y-82461
X42605Y-85807
X42605Y-85807
X42605Y-89154
X42605Y-89154
X42605Y-92500
X42605Y-92500
X43058Y-42321
X43058Y-42321
X43058Y-45668
X43058Y-45668
X43058Y-49014
X43058Y-49014
X43058Y-52361
X43058Y-52361
X43058Y-55707
X43058Y-55707
X43058Y-59053
X43058Y-59053
X43058Y-62400
X43058Y-62400
X43058Y-65746
X43058Y-65746
X43058Y-69093
X43058Y-69093
X43058Y-72439
X43058Y-72439
X43058Y-75786
X43058Y-75786
X43058Y-79132
X43058Y-79132
X43058Y-82479
X43058Y-82479
X43058Y-85825
X43058Y-85825
X43058Y-89172
X43058Y-89172
X43058Y-92518
X43058Y-92518
X43517Y-42254
X43517Y-42254
X43517Y-45600
X43517Y-45600
X43517Y-48947
X43517Y-48947
X43517Y-52293
X43517Y-52293
X43517Y-55640
X43517Y-55640
X43517Y-58986
X43517Y-58986
X43517Y-62333
X43517Y-62333
X43517Y-65679
X43517Y-65679
X43517Y-69026
X43517Y-69026
X43517Y-72372
X43517Y-72372
X43517Y-75719
X43517Y-75719
X43517Y-79065
X43517Y-79065
X43517Y-82412
X43517Y-82412
X43517Y-85758
X43517Y-85758
X43517Y-89104
X43517Y-89104
X43517Y-92451
X43517Y-92451
X44623Y-42361
X44623Y-42361
X44623Y-45707
X44623Y-45707
X44623Y-49054
X44623Y-49054
X44623Y-52400
X44623Y-52400
X44623Y-55747
X44623Y-55747
X44623Y-59093
X44623Y-59093
X44623Y-62440
X44623Y-62440
X44623Y-65786
X44623Y-65786
X44623Y-69132
X44623Y-69132
X44623Y-72479
X44623Y-72479
X44623Y-75825
X44623Y-75825
X44623Y-79172
X44623Y-79172
X44623Y-82518
X44623Y-82518
X44623Y-85865
X44623Y-85865
X44623Y-89211
X44623Y-89211
X44623Y-92558
X44623Y-92558
X45343Y-42255
X45343Y-42255
X45343Y-45601
X45343Y-45601
X45343Y-48947
X45343Y-48947
X45343Y-52294
X45343Y-52294
X45343Y-55640
X45343Y-55640
X45343Y-58987
X45343Y-58987
X45343Y-62333
X45343Y-62333
X45343Y-65680
X45343Y-65680
X45343Y-69026
X45343Y-69026
X45343Y-72373
X45343Y-72373
X45343Y-75719
X45343Y-75719
X45343Y-79066
X45343Y-79066
X45343Y-82412
X45343Y-82412
X45343Y-85758
X45343Y-85758
X45343Y-89105
X45343Y-89105
X45343Y-92451
X45343Y-92451
X48485Y-42283
X48485Y-42283
X48485Y-45630
X48485Y-45630
X48485Y-48976
X48485Y-48976
X48485Y-52323
X48485Y-52323
X48485Y-55669
X48485Y-55669
X48485Y-59015
X48485Y-59015
X48485Y-62362
X48485Y-62362
X48485Y-65708
X48485Y-65708
X48485Y-69055
X48485Y-69055
X48485Y-72401
X48485Y-72401
X48485Y-75748
X48485Y-75748
X48485Y-79094
X48485Y-79094
X48485Y-82441
X48485Y-82441
X48485Y-85787
X48485Y-85787
X48485Y-89134
X48485Y-89134
X48485Y-92480
X48485Y-92480
X49001Y-42280
X49001Y-42280
X49001Y-45626
X49001Y-45626
X49001Y-48973
X49001Y-48973
X49001Y-52319
X49001Y-52319
X49001Y-55665
X49001Y-55665
X49001Y-59012
X49001Y-59012
X49001Y-62358
X49001Y-62358
X49001Y-65705
X49001Y-65705
X49001Y-69051
X49001Y-69051
X49001Y-72398
X49001Y-72398
X49001Y-75744
X49001Y-75744
X49001Y-79091
X49001Y-79091
X49001Y-82437
X49001Y-82437
X49001Y-85784
X49001Y-85784
X49001Y-89130
X49001Y-89130
X49001Y-92476
X49001Y-92476
X49521Y-42280
X49521Y-42280
X49521Y-45626
X49521Y-45626
X49521Y-48973
X49521Y-48973
X49521Y-52319
X49521Y-52319
X49521Y-55665
X49521Y-55665
X49521Y-59012
X49521Y-59012
X49521Y-62358
X49521Y-62358
X49521Y-65705
X49521Y-65705
X49521Y-69051
X49521Y-69051
X49521Y-72398
X49521Y-72398
X49521Y-75744
X49521Y-75744
X49521Y-79091
X49521Y-79091
X49521Y-82437
X49521Y-82437
X49521Y-85784
X49521Y-85784
X49521Y-89130
X49521Y-89130
X49521Y-92476
X49521Y-92476
X51470Y-42244
X51470Y-42244
X51470Y-45591
X51470Y-45591
X51470Y-48937
X51470Y-48937
X51470Y-52284
X51470Y-52284
X51470Y-55630
X51470Y-55630
X51470Y-58976
X51470Y-58976
X51470Y-62323
X51470Y-62323
X51470Y-65669
X51470Y-65669
X51470Y-69016
X51470Y-69016
X51470Y-72362
X51470Y-72362
X51470Y-75709
X51470Y-75709
X51470Y-79055
X51470Y-79055
X51470Y-82402
X51470Y-82402
X51470Y-85748
X51470Y-85748
X51470Y-89095
X51470Y-89095
X51470Y-92441
X51470Y-92441
X52226Y-42178
X52226Y-42178
X52226Y-45524
X52226Y-45524
X52226Y-48870
X52226Y-48870
X52226Y-52217
X52226Y-52217
X52226Y-55563
X52226Y-55563
X52226Y-58910
X52226Y-58910
X52226Y-62256
X52226Y-62256
X52226Y-65603
X52226Y-65603
X52226Y-68949
X52226Y-68949
X52226Y-72296
X52226Y-72296
X52226Y-75642
X52226Y-75642
X52226Y-78989
X52226Y-78989
X52226Y-82335
X52226Y-82335
X52226Y-85681
X52226Y-85681
X52226Y-89028
X52226Y-89028
X52226Y-92374
X52226Y-92374
X53867Y-42170
X53867Y-42170
X53867Y-45516
X53867Y-45516
X53867Y-48863
X53867Y-48863
X53867Y-52209
X53867Y-52209
X53867Y-55556
X53867Y-55556
X53867Y-58902
X53867Y-58902
X53867Y-62249
X53867Y-62249
X53867Y-65595
X53867Y-65595
X53867Y-68941
X53867Y-68941
X53867Y-72288
X53867Y-72288
X53867Y-75634
X53867Y-75634
X53867Y-78981
X53867Y-78981
X53867Y-82327
X53867Y-82327
X53867Y-85674
X53867Y-85674
X53867Y-89020
X53867Y-89020
X53867Y-92367
X53867Y-92367
X56352Y-42283
X56352Y-42283
X56352Y-45629
X56352Y-45629
X56352Y-48976
X56352Y-48976
X56352Y-52322
X56352Y-52322
X56352Y-55668
X56352Y-55668
X56352Y-59015
X56352Y-59015
X56352Y-62361
X56352Y-62361
X56352Y-65708
X56352Y-65708
X56352Y-69054
X56352Y-69054
X56352Y-72401
X56352Y-72401
X56352Y-75747
X56352Y-75747
X56352Y-79094
X56352Y-79094
X56352Y-82440
X56352Y-82440
X56352Y-85787
X56352Y-85787
X56352Y-89133
X56352Y-89133
X56352Y-92479
X56352Y-92479
X58032Y-42321
X58032Y-42321
X58032Y-45667
X58032Y-45667
X58032Y-49014
X58032Y-49014
X58032Y-52360
X58032Y-52360
X58032Y-55707
X58032Y-55707
X58032Y-59053
X58032Y-59053
X58032Y-62399
X58032Y-62399
X58032Y-65746
X58032Y-65746
X58032Y-69092
X58032Y-69092
X58032Y-72439
X58032Y-72439
X58032Y-75785
X58032Y-75785
X58032Y-79132
X58032Y-79132
X58032Y-82478
X58032Y-82478
X58032Y-85825
X58032Y-85825
X58032Y-89171
X58032Y-89171
X58032Y-92518
X58032Y-92518
X58517Y-42402
X58517Y-42402
X58517Y-45748
X58517Y-45748
X58517Y-49095
X58517Y-49095
X58517Y-52441
X58517Y-52441
X58517Y-55787
X58517Y-55787
X58517Y-59134
X58517Y-59134
X58517Y-62480
X58517Y-62480
X58517Y-65827
X58517Y-65827
X58517Y-69173
X58517Y-69173
X58517Y-72520
X58517Y-72520
X58517Y-75866
X58517Y-75866
X58517Y-79213
X58517Y-79213
X58517Y-82559
X58517Y-82559
X58517Y-85906
X58517Y-85906
X58517Y-89252
X58517Y-89252
X58517Y-92599
X58517Y-92599
X61583Y-42446
X61583Y-42446
X61583Y-45792
X61583Y-45792
X61583Y-49139
X61583Y-49139
X61583Y-52485
X61583Y-52485
X61583Y-55832
X61583Y-55832
X61583Y-59178
X61583Y-59178
X61583Y-62525
X61583Y-62525
X61583Y-65871
X61583Y-65871
X61583Y-69218
X61583Y-69218
X61583Y-72564
X61583Y-72564
X61583Y-75911
X61583Y-75911
X61583Y-79257
X61583Y-79257
X61583Y-82603
X61583Y-82603
X61583Y-85950
X61583Y-85950
X61583Y-89296
X61583Y-89296
X61583Y-92643
X61583Y-92643
X62178Y-42284
X62178Y-42284
X62178Y-45630
X62178Y-45630
X62178Y-48976
X62178Y-48976
X62178Y-52323
X62178Y-52323
X62178Y-55669
X62178Y-55669
X62178Y-59016
X62178Y-59016
X62178Y-62362
X62178Y-62362
X62178Y-65709
X62178Y-65709
X62178Y-69055
X62178Y-69055
X62178Y-72402
X62178Y-72402
X62178Y-75748
X62178Y-75748
X62178Y-79095
X62178Y-79095
X62178Y-82441
X62178Y-82441
X62178Y-85787
X62178Y-85787
X62178Y-89134
X62178Y-89134
X62178Y-92480
X62178Y-92480
X62730Y-42244
X62730Y-42244
X62730Y-45591
X62730Y-45591
X62730Y-48937
X62730Y-48937
X62730Y-52284
X62730Y-52284
X62730Y-55630
X62730Y-55630
X62730Y-58976
X62730Y-58976
X62730Y-62323
X62730Y-62323
X62730Y-65669
X62730Y-65669
X62730Y-69016
X62730Y-69016
X62730Y-72362
X62730Y-72362
X62730Y-75709
X62730Y-75709
X62730Y-79055
X62730Y-79055
X62730Y-82402
X62730Y-82402
X62730Y-85748
X62730Y-85748
X62730Y-89095
X62730Y-89095
X62730Y-92441
X62730Y-92441
X63276Y-42272
X63276Y-42272
X63276Y-45618
X63276Y-45618
X63276Y-48965
X63276Y-48965
X63276Y-52311
X63276Y-52311
X63276Y-55658
X63276Y-55658
X63276Y-59004
X63276Y-59004
X63276Y-62350
X63276Y-62350
X63276Y-65697
X63276Y-65697
X63276Y-69043
X63276Y-69043
X63276Y-72390
X63276Y-72390
X63276Y-75736
X63276Y-75736
X63276Y-79083
X63276Y-79083
X63276Y-82429
X63276Y-82429
X63276Y-85776
X63276Y-85776
X63276Y-89122
X63276Y-89122
X63276Y-92469
X63276Y-92469
X64482Y-42264
X64482Y-42264
X64482Y-45610
X64482Y-45610
X64482Y-48957
X64482Y-48957
X64482Y-52303
X64482Y-52303
X64482Y-55650
X64482Y-55650
X64482Y-58996
X64482Y-58996
X64482Y-62343
X64482Y-62343
X64482Y-65689
X64482Y-65689
X64482Y-69036
X64482Y-69036
X64482Y-72382
X64482Y-72382
X64482Y-75728
X64482Y-75728
X64482Y-79075
X64482Y-79075
X64482Y-82421
X64482Y-82421
X64482Y-85768
X64482Y-85768
X64482Y-89114
X64482Y-89114
X64482Y-92461
X64482Y-92461
X64976Y-42257
X64976Y-42257
X64976Y-45603
X64976Y-45603
X64976Y-48950
X64976Y-48950
X64976Y-52296
X64976Y-52296
X64976Y-55643
X64976Y-55643
X64976Y-58989
X64976Y-58989
X64976Y-62336
X64976Y-62336
X64976Y-65682
X64976Y-65682
X64976Y-69028
X64976Y-69028
X64976Y-72375
X64976Y-72375
X64976Y-75721
X64976Y-75721
X64976Y-79068
X64976Y-79068
X64976Y-82414
X64976Y-82414
X64976Y-85761
X64976Y-85761
X64976Y-89107
X64976Y-89107
X64976Y-92454
X64976Y-92454
X68094Y-42303
X68094Y-42303
X68094Y-45650
X68094Y-45650
X68094Y-48996
X68094Y-48996
X68094Y-52343
X68094Y-52343
X68094Y-55689
X68094Y-55689
X68094Y-59035
X68094Y-59035
X68094Y-62382
X68094Y-62382
X68094Y-65728
X68094Y-65728
X68094Y-69075
X68094Y-69075
X68094Y-72421
X68094Y-72421
X68094Y-75768
X68094Y-75768
X68094Y-79114
X68094Y-79114
X68094Y-82461
X68094Y-82461
X68094Y-85807
X68094Y-85807
X68094Y-89154
X68094Y-89154
X68094Y-92500
X68094Y-92500
X68714Y-42284
X68714Y-42284
X68714Y-45630
X68714Y-45630
X68714Y-48976
X68714Y-48976
X68714Y-52323
X68714Y-52323
X68714Y-55669
X68714Y-55669
X68714Y-59016
X68714Y-59016
X68714Y-62362
X68714Y-62362
X68714Y-65709
X68714Y-65709
X68714Y-69055
X68714Y-69055
X68714Y-72402
X68714Y-72402
X68714Y-75748
X68714Y-75748
X68714Y-79095
X68714Y-79095
X68714Y-82441
X68714Y-82441
X68714Y-85787
X68714Y-85787
X68714Y-89134
X68714Y-89134
X68714Y-92480
X68714Y-92480
X69837Y-42272
X69837Y-42272
X69837Y-45618
X69837Y-45618
X69837Y-48965
X69837Y-48965
X69837Y-52311
X69837Y-52311
X69837Y-55658
X69837Y-55658
X69837Y-59004
X69837Y-59004
X69837Y-62350
X69837Y-62350
X69837Y-65697
X69837Y-65697
X69837Y-69043
X69837Y-69043
X69837Y-72390
X69837Y-72390
X69837Y-75736
X69837Y-75736
X69837Y-79083
X69837Y-79083
X69837Y-82429
X69837Y-82429
X69837Y-85776
X69837Y-85776
X69837Y-89122
X69837Y-89122
X69837Y-92469
X69837Y-92469
X71043Y-42264
X71043Y-42264
X71043Y-45610
X71043Y-45610
X71043Y-48957
X71043Y-48957
X71043Y-52303
X71043Y-52303
X71043Y-55650
X71043Y-55650
X71043Y-58996
X71043Y-58996
X71043Y-62343
X71043Y-62343
X71043Y-65689
X71043Y-65689
X71043Y-69036
X71043Y-69036
X71043Y-72382
X71043Y-72382
X71043Y-75728
X71043Y-75728
X71043Y-79075
X71043Y-79075
X71043Y-82421
X71043Y-82421
X71043Y-85768
X71043Y-85768
X71043Y-89114
X71043Y-89114
X71043Y-92461
X71043Y-92461
X71537Y-42257
X71537Y-42257
X71537Y-45603
X71537Y-45603
X71537Y-48950
X71537Y-48950
X71537Y-52296
X71537Y-52296
X71537Y-55643
X71537Y-55643
X71537Y-58989
X71537Y-58989
X71537Y-62336
X71537Y-62336
X71537Y-65682
X71537Y-65682
X71537Y-69028
X71537Y-69028
X71537Y-72375
X71537Y-72375
X71537Y-75721
X71537Y-75721
X71537Y-79068
X71537Y-79068
X71537Y-82414
X71537Y-82414
X71537Y-85761
X71537Y-85761
X71537Y-89107
X71537Y-89107
X71537Y-92454
X71537Y-92454
X74655Y-42303
X74655Y-42303
X74655Y-45650
X74655Y-45650
X74655Y-48996
X74655Y-48996
X74655Y-52343
X74655Y-52343
X74655Y-55689
X74655Y-55689
X74655Y-59035
X74655Y-59035
X74655Y-62382
X74655Y-62382
X74655Y-65728
X74655Y-65728
X74655Y-69075
X74655Y-69075
X74655Y-72421
X74655Y-72421
X74655Y-75768
X74655Y-75768
X74655Y-79114
X74655Y-79114
X74655Y-82461
X74655Y-82461
X74655Y-85807
X74655Y-85807
X74655Y-89154
X74655Y-89154
X74655Y-92500
X74655Y-92500
X75289Y-42284
X75289Y-42284
X75289Y-45630
X75289Y-45630
X75289Y-48976
X75289Y-48976
X75289Y-52323
X75289Y-52323
X75289Y-55669
X75289Y-55669
X75289Y-59016
X75289Y-59016
X75289Y-62362
X75289Y-62362
X75289Y-65709
X75289Y-65709
X75289Y-69055
X75289Y-69055
X75289Y-72402
X75289Y-72402
X75289Y-75748
X75289Y-75748
X75289Y-79095
X75289Y-79095
X75289Y-82441
X75289Y-82441
X75289Y-85787
X75289Y-85787
X75289Y-89134
X75289Y-89134
X75289Y-92480
X75289Y-92480
X76399Y-42272
X76399Y-42272
X76399Y-45618
X76399Y-45618
X76399Y-48965
X76399Y-48965
X76399Y-52311
X76399Y-52311
X76399Y-55658
X76399Y-55658
X76399Y-59004
X76399Y-59004
X76399Y-62350
X76399Y-62350
X76399Y-65697
X76399Y-65697
X76399Y-69043
X76399Y-69043
X76399Y-72390
X76399Y-72390
X76399Y-75736
X76399Y-75736
X76399Y-79083
X76399Y-79083
X76399Y-82429
X76399Y-82429
X76399Y-85776
X76399Y-85776
X76399Y-89122
X76399Y-89122
X76399Y-92469
X76399Y-92469
X77605Y-42264
X77605Y-42264
X77605Y-45610
X77605Y-45610
X77605Y-48957
X77605Y-48957
X77605Y-52303
X77605Y-52303
X77605Y-55650
X77605Y-55650
X77605Y-58996
X77605Y-58996
X77605Y-62343
X77605Y-62343
X77605Y-65689
X77605Y-65689
X77605Y-69036
X77605Y-69036
X77605Y-72382
X77605Y-72382
X77605Y-75728
X77605Y-75728
X77605Y-79075
X77605Y-79075
X77605Y-82421
X77605Y-82421
X77605Y-85768
X77605Y-85768
X77605Y-89114
X77605Y-89114
X77605Y-92461
X77605Y-92461
X78099Y-42257
X78099Y-42257
X78099Y-45603
X78099Y-45603
X78099Y-48950
X78099Y-48950
X78099Y-52296
X78099Y-52296
X78099Y-55643
X78099Y-55643
X78099Y-58989
X78099Y-58989
X78099Y-62336
X78099Y-62336
X78099Y-65682
X78099Y-65682
X78099Y-69028
X78099Y-69028
X78099Y-72375
X78099Y-72375
X78099Y-75721
X78099Y-75721
X78099Y-79068
X78099Y-79068
X78099Y-82414
X78099Y-82414
X78099Y-85761
X78099Y-85761
X78099Y-89107
X78099Y-89107
X78099Y-92454
X78099Y-92454
X81217Y-42303
X81217Y-42303
X81217Y-45650
X81217Y-45650
X81217Y-48996
X81217Y-48996
X81217Y-52343
X81217Y-52343
X81217Y-55689
X81217Y-55689
X81217Y-59035
X81217Y-59035
X81217Y-62382
X81217Y-62382
X81217Y-65728
X81217Y-65728
X81217Y-69075
X81217Y-69075
X81217Y-72421
X81217Y-72421
X81217Y-75768
X81217Y-75768
X81217Y-79114
X81217Y-79114
X81217Y-82461
X81217Y-82461
X81217Y-85807
X81217Y-85807
X81217Y-89154
X81217Y-89154
X81217Y-92500
X81217Y-92500
X81903Y-42284
X81903Y-42284
X81903Y-45630
X81903Y-45630
X81903Y-48976
X81903Y-48976
X81903Y-52323
X81903Y-52323
X81903Y-55669
X81903Y-55669
X81903Y-59016
X81903Y-59016
X81903Y-62362
X81903Y-62362
X81903Y-65709
X81903Y-65709
X81903Y-69055
X81903Y-69055
X81903Y-72402
X81903Y-72402
X81903Y-75748
X81903Y-75748
X81903Y-79095
X81903Y-79095
X81903Y-82441
X81903Y-82441
X81903Y-85787
X81903Y-85787
X81903Y-89134
X81903Y-89134
X81903Y-92480
X81903Y-92480
X82961Y-42272
X82961Y-42272
X82961Y-45618
X82961Y-45618
X82961Y-48965
X82961Y-48965
X82961Y-52311
X82961Y-52311
X82961Y-55658
X82961Y-55658
X82961Y-59004
X82961Y-59004
X82961Y-62350
X82961Y-62350
X82961Y-65697
X82961Y-65697
X82961Y-69043
X82961Y-69043
X82961Y-72390
X82961Y-72390
X82961Y-75736
X82961Y-75736
X82961Y-79083
X82961Y-79083
X82961Y-82429
X82961Y-82429
X82961Y-85776
X82961Y-85776
X82961Y-89122
X82961Y-89122
X82961Y-92469
X82961Y-92469
X84167Y-42264
X84167Y-42264
X84167Y-45610
X84167Y-45610
X84167Y-48957
X84167Y-48957
X84167Y-52303
X84167Y-52303
X84167Y-55650
X84167Y-55650
X84167Y-58996
X84167Y-58996
X84167Y-62343
X84167Y-62343
X84167Y-65689
X84167Y-65689
X84167Y-69036
X84167Y-69036
X84167Y-72382
X84167Y-72382
X84167Y-75728
X84167Y-75728
X84167Y-79075
X84167Y-79075
X84167Y-82421
X84167Y-82421
X84167Y-85768
X84167Y-85768
X84167Y-89114
X84167Y-89114
X84167Y-92461
X84167Y-92461
X84661Y-42257
X84661Y-42257
X84661Y-45603
X84661Y-45603
X84661Y-48950
X84661Y-48950
X84661Y-52296
X84661Y-52296
X84661Y-55643
X84661Y-55643
X84661Y-58989
X84661Y-58989
X84661Y-62336
X84661Y-62336
X84661Y-65682
X84661Y-65682
X84661Y-69028
X84661Y-69028
X84661Y-72375
X84661Y-72375
X84661Y-75721
X84661Y-75721
X84661Y-79068
X84661Y-79068
X84661Y-82414
X84661Y-82414
X84661Y-85761
X84661Y-85761
X84661Y-89107
X84661Y-89107
X84661Y-92454
X84661Y-92454
X87779Y-42303
X87779Y-42303
X87779Y-45650
X87779Y-45650
X87779Y-48996
X87779Y-48996
X87779Y-52343
X87779Y-52343
X87779Y-55689
X87779Y-55689
X87779Y-59035
X87779Y-59035
X87779Y-62382
X87779Y-62382
X87779Y-65728
X87779Y-65728
X87779Y-69075
X87779Y-69075
X87779Y-72421
X87779Y-72421
X87779Y-75768
X87779Y-75768
X87779Y-79114
X87779Y-79114
X87779Y-82461
X87779Y-82461
X87779Y-85807
X87779Y-85807
X87779Y-89154
X87779Y-89154
X87779Y-92500
X87779Y-92500
X88359Y-42284
X88359Y-42284
X88359Y-45630
X88359Y-45630
X88359Y-48976
X88359Y-48976
X88359Y-52323
X88359Y-52323
X88359Y-55669
X88359Y-55669
X88359Y-59016
X88359Y-59016
X88359Y-62362
X88359Y-62362
X88359Y-65709
X88359Y-65709
X88359Y-69055
X88359Y-69055
X88359Y-72402
X88359Y-72402
X88359Y-75748
X88359Y-75748
X88359Y-79095
X88359Y-79095
X88359Y-82441
X88359Y-82441
X88359Y-85787
X88359Y-85787
X88359Y-89134
X88359Y-89134
X88359Y-92480
X88359Y-92480
X89522Y-42272
X89522Y-42272
X89522Y-45618
X89522Y-45618
X89522Y-48965
X89522Y-48965
X89522Y-52311
X89522Y-52311
X89522Y-55658
X89522Y-55658
X89522Y-59004
X89522Y-59004
X89522Y-62350
X89522Y-62350
X89522Y-65697
X89522Y-65697
X89522Y-69043
X89522Y-69043
X89522Y-72390
X89522Y-72390
X89522Y-75736
X89522Y-75736
X89522Y-79083
X89522Y-79083
X89522Y-82429
X89522Y-82429
X89522Y-85776
X89522Y-85776
X89522Y-89122
X89522Y-89122
X89522Y-92469
X89522Y-92469
X90728Y-42264
X90728Y-42264
X90728Y-45610
X90728Y-45610
X90728Y-48957
X90728Y-48957
X90728Y-52303
X90728Y-52303
X90728Y-55650
X90728Y-55650
X90728Y-58996
X90728Y-58996
X90728Y-62343
X90728Y-62343
X90728Y-65689
X90728Y-65689
X90728Y-69036
X90728Y-69036
X90728Y-72382
X90728Y-72382
X90728Y-75728
X90728Y-75728
X90728Y-79075
X90728Y-79075
X90728Y-82421
X90728Y-82421
X90728Y-85768
X90728Y-85768
X90728Y-89114
X90728Y-89114
X90728Y-92461
X90728Y-92461
X91222Y-42257
X91222Y-42257
X91222Y-45603
X91222Y-45603
X91222Y-48950
X91222Y-48950
X91222Y-52296
X91222Y-52296
X91222Y-55643
X91222Y-55643
X91222Y-58989
X91222Y-58989
X91222Y-62336
X91222Y-62336
X91222Y-65682
X91222Y-65682
X91222Y-69028
X91222Y-69028
X91222Y-72375
X91222Y-72375
X91222Y-75721
X91222Y-75721
X91222Y-79068
X91222Y-79068
X91222Y-82414
X91222Y-82414
X91222Y-85761
X91222Y-85761
X91222Y-89107
X91222Y-89107
X91222Y-92454
X91222Y-92454
X94340Y-42303
X94340Y-42303
X94340Y-45650
X94340Y-45650
X94340Y-48996
X94340Y-48996
X94340Y-52343
X94340Y-52343
X94340Y-55689
X94340Y-55689
X94340Y-59035
X94340Y-59035
X94340Y-62382
X94340Y-62382
X94340Y-65728
X94340Y-65728
X94340Y-69075
X94340Y-69075
X94340Y-72421
X94340Y-72421
X94340Y-75768
X94340Y-75768
X94340Y-79114
X94340Y-79114
X94340Y-82461
X94340Y-82461
X94340Y-85807
X94340Y-85807
X94340Y-89154
X94340Y-89154
X94340Y-92500
X94340Y-92500
X95013Y-42284
X95013Y-42284
X95013Y-45630
X95013Y-45630
X95013Y-48976
X95013Y-48976
X95013Y-52323
X95013Y-52323
X95013Y-55669
X95013Y-55669
X95013Y-59016
X95013Y-59016
X95013Y-62362
X95013Y-62362
X95013Y-65709
X95013Y-65709
X95013Y-69055
X95013Y-69055
X95013Y-72402
X95013Y-72402
X95013Y-75748
X95013Y-75748
X95013Y-79095
X95013Y-79095
X95013Y-82441
X95013Y-82441
X95013Y-85787
X95013Y-85787
X95013Y-89134
X95013Y-89134
X95013Y-92480
X95013Y-92480
X96084Y-42272
X96084Y-42272
X96084Y-45618
X96084Y-45618
X96084Y-48965
X96084Y-48965
X96084Y-52311
X96084Y-52311
X96084Y-55658
X96084Y-55658
X96084Y-59004
X96084Y-59004
X96084Y-62350
X96084Y-62350
X96084Y-65697
X96084Y-65697
X96084Y-69043
X96084Y-69043
X96084Y-72390
X96084Y-72390
X96084Y-75736
X96084Y-75736
X96084Y-79083
X96084Y-79083
X96084Y-82429
X96084Y-82429
X96084Y-85776
X96084Y-85776
X96084Y-89122
X96084Y-89122
X96084Y-92469
X96084Y-92469
X97290Y-42264
X97290Y-42264
X97290Y-45610
X97290Y-45610
X97290Y-48957
X97290Y-48957
X97290Y-52303
X97290Y-52303
X97290Y-55650
X97290Y-55650
X97290Y-58996
X97290Y-58996
X97290Y-62343
X97290Y-62343
X97290Y-65689
X97290Y-65689
X97290Y-69036
X97290Y-69036
X97290Y-72382
X97290Y-72382
X97290Y-75728
X97290Y-75728
X97290Y-79075
X97290Y-79075
X97290Y-82421
X97290Y-82421
X97290Y-85768
X97290Y-85768
X97290Y-89114
X97290Y-89114
X97290Y-92461
X97290Y-92461
X97926Y-42244
X97926Y-42244
X97926Y-45591
X97926Y-45591
X97926Y-48937
X97926Y-48937
X97926Y-52284
X97926Y-52284
X97926Y-55630
X97926Y-55630
X97926Y-58976
X97926Y-58976
X97926Y-62323
X97926Y-62323
X97926Y-65669
X97926Y-65669
X97926Y-69016
X97926Y-69016
X97926Y-72362
X97926Y-72362
X97926Y-75709
X97926Y-75709
X97926Y-79055
X97926Y-79055
X97926Y-82402
X97926Y-82402
X97926Y-85748
X97926Y-85748
X97926Y-89095
X97926Y-89095
X97926Y-92441
X97926Y-92441
X99948Y-42333
X99948Y-42333
X99948Y-45679
X99948Y-45679
X99948Y-49026
X99948Y-49026
X99948Y-52372
X99948Y-52372
X99948Y-55719
X99948Y-55719
X99948Y-59065
X99948Y-59065
X99948Y-62412
X99948Y-62412
X99948Y-65758
X99948Y-65758
X99948Y-69105
X99948Y-69105
X99948Y-72451
X99948Y-72451
X99948Y-75797
X99948Y-75797
X99948Y-79144
X99948Y-79144
X99948Y-82490
X99948Y-82490
X99948Y-85837
X99948Y-85837
X99948Y-89183
X99948Y-89183
X99948Y-92530
X99948Y-92530
X100407Y-42155
X100407Y-42155
X100407Y-45501
X100407Y-45501
X100407Y-48848
X100407Y-48848
X100407Y-52194
X100407Y-52194
X100407Y-55541
X100407Y-55541
X100407Y-58887
X100407Y-58887
X100407Y-62233
X100407Y-62233
X100407Y-65580
X100407Y-65580
X100407Y-68926
X100407Y-68926
X100407Y-72273
X100407Y-72273
X100407Y-75619
X100407Y-75619
X100407Y-78966
X100407Y-78966
X100407Y-82312
X100407Y-82312
X100407Y-85659
X100407Y-85659
X100407Y-89005
X100407Y-89005
X100407Y-92352
X100407Y-92352
X101115Y-42244
X101115Y-42244
X101115Y-45591
X101115Y-45591
X101115Y-48937
X101115Y-48937
X101115Y-52284
X101115Y-52284
X101115Y-55630
X101115Y-55630
X101115Y-58976
X101115Y-58976
X101115Y-62323
X101115Y-62323
X101115Y-65669
X101115Y-65669
X101115Y-69016
X101115Y-69016
X101115Y-72362
X101115Y-72362
X101115Y-75709
X101115Y-75709
X101115Y-79055
X101115Y-79055
X101115Y-82402
X101115Y-82402
X101115Y-85748
X101115Y-85748
X101115Y-89095
X101115Y-89095
X101115Y-92441
X101115Y-92441
X101692Y-42287
X101692Y-42287
X101692Y-45633
X101692Y-45633
X101692Y-48980
X101692Y-48980
X101692Y-52326
X101692Y-52326
X101692Y-55672
X101692Y-55672
X101692Y-59019
X101692Y-59019
X101692Y-62365
X101692Y-62365
X101692Y-65712
X101692Y-65712
X101692Y-69058
X101692Y-69058
X101692Y-72405
X101692Y-72405
X101692Y-75751
X101692Y-75751
X101692Y-79098
X101692Y-79098
X101692Y-82444
X101692Y-82444
X101692Y-85791
X101692Y-85791
X101692Y-89137
X101692Y-89137
X101692Y-92484
X101692Y-92484
X102185Y-42255
X102185Y-42255
X102185Y-45601
X102185Y-45601
X102185Y-48948
X102185Y-48948
X102185Y-52294
X102185Y-52294
X102185Y-55640
X102185Y-55640
X102185Y-58987
X102185Y-58987
X102185Y-62333
X102185Y-62333
X102185Y-65680
X102185Y-65680
X102185Y-69026
X102185Y-69026
X102185Y-72373
X102185Y-72373
X102185Y-75719
X102185Y-75719
X102185Y-79066
X102185Y-79066
X102185Y-82412
X102185Y-82412
X102185Y-85759
X102185Y-85759
X102185Y-89105
X102185Y-89105
X102185Y-92452
X102185Y-92452
X102739Y-42276
X102739Y-42276
X102739Y-45622
X102739Y-45622
X102739Y-48969
X102739Y-48969
X102739Y-52315
X102739Y-52315
X102739Y-55662
X102739Y-55662
X102739Y-59008
X102739Y-59008
X102739Y-62355
X102739Y-62355
X102739Y-65701
X102739Y-65701
X102739Y-69047
X102739Y-69047
X102739Y-72394
X102739Y-72394
X102739Y-75740
X102739Y-75740
X102739Y-79087
X102739Y-79087
X102739Y-82433
X102739Y-82433
X102739Y-85780
X102739Y-85780
X102739Y-89126
X102739Y-89126
X102739Y-92473
X102739Y-92473
X103800Y-41957
X103800Y-41957
X103800Y-45303
X103800Y-45303
X103800Y-48650
X103800Y-48650
X103800Y-51996
X103800Y-51996
X103800Y-55343
X103800Y-55343
X103800Y-58689
X103800Y-58689
X103800Y-62036
X103800Y-62036
X103800Y-65382
X103800Y-65382
X103800Y-68729
X103800Y-68729
X103800Y-72075
X103800Y-72075
X103800Y-75421
X103800Y-75421
X103800Y-78768
X103800Y-78768
X103800Y-82114
X103800Y-82114
X103800Y-85461
X103800Y-85461
X103800Y-88807
X103800Y-88807
X103800Y-92154
X103800Y-92154
X103852Y-42589
X103852Y-42589
X103852Y-45935
X103852Y-45935
X103852Y-49282
X103852Y-49282
X103852Y-52628
X103852Y-52628
X103852Y-55974
X103852Y-55974
X103852Y-59321
X103852Y-59321
X103852Y-62667
X103852Y-62667
X103852Y-66014
X103852Y-66014
X103852Y-69360
X103852Y-69360
X103852Y-72707
X103852Y-72707
X103852Y-76053
X103852Y-76053
X103852Y-79400
X103852Y-79400
X103852Y-82746
X103852Y-82746
X103852Y-86093
X103852Y-86093
X103852Y-89439
X103852Y-89439
X103852Y-92786
X103852Y-92786
X104600Y-42373
X104600Y-42373
X104600Y-45720
X104600Y-45720
X104600Y-49066
X104600Y-49066
X104600Y-52412
X104600Y-52412
X104600Y-55759
X104600Y-55759
X104600Y-59105
X104600Y-59105
X104600Y-62452
X104600Y-62452
X104600Y-65798
X104600Y-65798
X104600Y-69145
X104600Y-69145
X104600Y-72491
X104600Y-72491
X104600Y-75838
X104600Y-75838
X104600Y-79184
X104600Y-79184
X104600Y-82531
X104600Y-82531
X104600Y-85877
X104600Y-85877
X104600Y-89223
X104600Y-89223
X104600Y-92570
X104600Y-92570
X106105Y-41969
X106105Y-41969
X106105Y-45315
X106105Y-45315
X106105Y-48662
X106105Y-48662
X106105Y-52008
X106105Y-52008
X106105Y-55354
X106105Y-55354
X106105Y-58701
X106105Y-58701
X106105Y-62047
X106105Y-62047
X106105Y-65394
X106105Y-65394
X106105Y-68740
X106105Y-68740
X106105Y-72087
X106105Y-72087
X106105Y-75433
X106105Y-75433
X106105Y-78780
X106105Y-78780
X106105Y-82126
X106105Y-82126
X106105Y-85473
X106105Y-85473
X106105Y-88819
X106105Y-88819
X106105Y-92165
X106105Y-92165
X106800Y-42380
X106800Y-42380
X106800Y-45726
X106800Y-45726
X106800Y-49073
X106800Y-49073
X106800Y-52419
X106800Y-52419
X106800Y-55765
X106800Y-55765
X106800Y-59112
X106800Y-59112
X106800Y-62458
X106800Y-62458
X106800Y-65805
X106800Y-65805
X106800Y-69151
X106800Y-69151
X106800Y-72498
X106800Y-72498
X106800Y-75844
X106800Y-75844
X106800Y-79191
X106800Y-79191
X106800Y-82537
X106800Y-82537
X106800Y-85884
X106800Y-85884
X106800Y-89230
X106800Y-89230
X106800Y-92576
X106800Y-92576
X107572Y-42442
X107572Y-42442
X107572Y-45788
X107572Y-45788
X107572Y-49135
X107572Y-49135
X107572Y-52481
X107572Y-52481
X107572Y-55828
X107572Y-55828
X107572Y-59174
X107572Y-59174
X107572Y-62521
X107572Y-62521
X107572Y-65867
X107572Y-65867
X107572Y-69214
X107572Y-69214
X107572Y-72560
X107572Y-72560
X107572Y-75907
X107572Y-75907
X107572Y-79253
X107572Y-79253
X107572Y-82599
X107572Y-82599
X107572Y-85946
X107572Y-85946
X107572Y-89292
X107572Y-89292
X107572Y-92639
X107572Y-92639
X108281Y-42350
X108281Y-42350
X108281Y-45697
X108281Y-45697
X108281Y-49043
X108281Y-49043
X108281Y-52390
X108281Y-52390
X108281Y-55736
X108281Y-55736
X108281Y-59082
X108281Y-59082
X108281Y-62429
X108281Y-62429
X108281Y-65775
X108281Y-65775
X108281Y-69122
X108281Y-69122
X108281Y-72468
X108281Y-72468
X108281Y-75815
X108281Y-75815
X108281Y-79161
X108281Y-79161
X108281Y-82508
X108281Y-82508
X108281Y-85854
X108281Y-85854
X108281Y-89201
X108281Y-89201
X108281Y-92547
X108281Y-92547
X108989Y-42471
X108989Y-42471
X108989Y-45817
X108989Y-45817
X108989Y-49163
X108989Y-49163
X108989Y-52510
X108989Y-52510
X108989Y-55856
X108989Y-55856
X108989Y-59203
X108989Y-59203
X108989Y-62549
X108989Y-62549
X108989Y-65896
X108989Y-65896
X108989Y-69242
X108989Y-69242
X108989Y-72589
X108989Y-72589
X108989Y-75935
X108989Y-75935
X108989Y-79282
X108989Y-79282
X108989Y-82628
X108989Y-82628
X108989Y-85975
X108989Y-85975
X108989Y-89321
X108989Y-89321
X108989Y-92667
X108989Y-92667
X109354Y-42802
X109354Y-42802
X109354Y-46148
X109354Y-46148
X109354Y-49495
X109354Y-49495
X109354Y-52841
X109354Y-52841
X109354Y-56187
X109354Y-56187
X109354Y-59534
X109354Y-59534
X109354Y-62880
X109354Y-62880
X109354Y-66227
X109354Y-66227
X109354Y-69573
X109354Y-69573
X109354Y-72920
X109354Y-72920
X109354Y-76266
X109354Y-76266
X109354Y-79613
X109354Y-79613
X109354Y-82959
X109354Y-82959
X109354Y-86306
X109354Y-86306
X109354Y-89652
X109354Y-89652
X109354Y-92999
X109354Y-92999
X109389Y-42183
X109389Y-42183
X109389Y-45530
X109389Y-45530
X109389Y-48876
X109389Y-48876
X109389Y-52223
X109389Y-52223
X109389Y-55569
X109389Y-55569
X109389Y-58916
X109389Y-58916
X109389Y-62262
X109389Y-62262
X109389Y-65609
X109389Y-65609
X109389Y-68955
X109389Y-68955
X109389Y-72301
X109389Y-72301
X109389Y-75648
X109389Y-75648
X109389Y-78994
X109389Y-78994
X109389Y-82341
X109389Y-82341
X109389Y-85687
X109389Y-85687
X109389Y-89034
X109389Y-89034
X109389Y-92380
X109389Y-92380
X110375Y-42243
X110375Y-42243
X110375Y-45590
X110375Y-45590
X110375Y-48936
X110375Y-48936
X110375Y-52283
X110375Y-52283
X110375Y-55629
X110375Y-55629
X110375Y-58975
X110375Y-58975
X110375Y-62322
X110375Y-62322
X110375Y-65668
X110375Y-65668
X110375Y-69015
X110375Y-69015
X110375Y-72361
X110375Y-72361
X110375Y-75708
X110375Y-75708
X110375Y-79054
X110375Y-79054
X110375Y-82401
X110375Y-82401
X110375Y-85747
X110375Y-85747
X110375Y-89094
X110375Y-89094
X110375Y-92440
X110375Y-92440
X110761Y-42591
X110761Y-42591
X110761Y-45937
X110761Y-45937
X110761Y-49283
X110761Y-49283
X110761Y-52630
X110761Y-52630
X110761Y-55976
X110761Y-55976
X110761Y-59323
X110761Y-59323
X110761Y-62669
X110761Y-62669
X110761Y-66016
X110761Y-66016
X110761Y-69362
X110761Y-69362
X110761Y-72709
X110761Y-72709
X110761Y-76055
X110761Y-76055
X110761Y-79402
X110761Y-79402
X110761Y-82748
X110761Y-82748
X110761Y-86094
X110761Y-86094
X110761Y-89441
X110761Y-89441
X110761Y-92787
X110761Y-92787
X110770Y-41904
X110770Y-41904
X110770Y-45250
X110770Y-45250
X110770Y-48597
X110770Y-48597
X110770Y-51943
X110770Y-51943
X110770Y-55290
X110770Y-55290
X110770Y-58636
X110770Y-58636
X110770Y-61983
X110770Y-61983
X110770Y-65329
X110770Y-65329
X110770Y-68675
X110770Y-68675
X110770Y-72022
X110770Y-72022
X110770Y-75368
X110770Y-75368
X110770Y-78715
X110770Y-78715
X110770Y-82061
X110770Y-82061
X110770Y-85408
X110770Y-85408
X110770Y-88754
X110770Y-88754
X110770Y-92101
X110770Y-92101
X111096Y-42244
X111096Y-42244
X111096Y-45591
X111096Y-45591
X111096Y-48937
X111096Y-48937
X111096Y-52284
X111096Y-52284
X111096Y-55630
X111096Y-55630
X111096Y-58976
X111096Y-58976
X111096Y-62323
X111096Y-62323
X111096Y-65669
X111096Y-65669
X111096Y-69016
X111096Y-69016
X111096Y-72362
X111096Y-72362
X111096Y-75709
X111096Y-75709
X111096Y-79055
X111096Y-79055
X111096Y-82402
X111096Y-82402
X111096Y-85748
X111096Y-85748
X111096Y-89095
X111096Y-89095
X111096Y-92441
X111096Y-92441
X112336Y-42441
X112336Y-42441
X112336Y-45787
X112336Y-45787
X112336Y-49134
X112336Y-49134
X112336Y-52480
X112336Y-52480
X112336Y-55827
X112336Y-55827
X112336Y-59173
X112336Y-59173
X112336Y-62520
X112336Y-62520
X112336Y-65866
X112336Y-65866
X112336Y-69213
X112336Y-69213
X112336Y-72559
X112336Y-72559
X112336Y-75906
X112336Y-75906
X112336Y-79252
X112336Y-79252
X112336Y-82599
X112336Y-82599
X112336Y-85945
X112336Y-85945
X112336Y-89291
X112336Y-89291
X112336Y-92638
X112336Y-92638
X113208Y-42597
X113208Y-42597
X113208Y-45943
X113208Y-45943
X113208Y-49290
X113208Y-49290
X113208Y-52636
X113208Y-52636
X113208Y-55982
X113208Y-55982
X113208Y-59329
X113208Y-59329
X113208Y-62675
X113208Y-62675
X113208Y-66022
X113208Y-66022
X113208Y-69368
X113208Y-69368
X113208Y-72715
X113208Y-72715
X113208Y-76061
X113208Y-76061
X113208Y-79408
X113208Y-79408
X113208Y-82754
X113208Y-82754
X113208Y-86101
X113208Y-86101
X113208Y-89447
X113208Y-89447
X113208Y-92793
X113208Y-92793
X114068Y-41250
X114068Y-41250
X114068Y-41585
X114068Y-41585
X114068Y-42028
X114068Y-42028
X114068Y-42402
X114068Y-42402
X114068Y-44597
X114068Y-44597
X114068Y-44931
X114068Y-44931
X114068Y-45374
X114068Y-45374
X114068Y-45748
X114068Y-45748
X114068Y-47943
X114068Y-47943
X114068Y-48278
X114068Y-48278
X114068Y-48721
X114068Y-48721
X114068Y-49095
X114068Y-49095
X114068Y-51289
X114068Y-51289
X114068Y-51624
X114068Y-51624
X114068Y-52067
X114068Y-52067
X114068Y-52441
X114068Y-52441
X114068Y-54636
X114068Y-54636
X114068Y-54971
X114068Y-54971
X114068Y-55413
X114068Y-55413
X114068Y-55787
X114068Y-55787
X114068Y-57982
X114068Y-57982
X114068Y-58317
X114068Y-58317
X114068Y-58760
X114068Y-58760
X114068Y-59134
X114068Y-59134
X114068Y-61329
X114068Y-61329
X114068Y-61663
X114068Y-61663
X114068Y-62106
X114068Y-62106
X114068Y-62480
X114068Y-62480
X114068Y-64675
X114068Y-64675
X114068Y-65010
X114068Y-65010
X114068Y-65453
X114068Y-65453
X114068Y-65827
X114068Y-65827
X114068Y-68022
X114068Y-68022
X114068Y-68356
X114068Y-68356
X114068Y-68799
X114068Y-68799
X114068Y-69173
X114068Y-69173
X114068Y-71368
X114068Y-71368
X114068Y-71703
X114068Y-71703
X114068Y-72146
X114068Y-72146
X114068Y-72520
X114068Y-72520
X114068Y-74715
X114068Y-74715
X114068Y-75049
X114068Y-75049
X114068Y-75492
X114068Y-75492
X114068Y-75866
X114068Y-75866
X114068Y-78061
X114068Y-78061
X114068Y-78396
X114068Y-78396
X114068Y-78839
X114068Y-78839
X114068Y-79213
X114068Y-79213
X114068Y-81408
X114068Y-81408
X114068Y-81742
X114068Y-81742
X114068Y-82185
X114068Y-82185
X114068Y-82559
X114068Y-82559
X114068Y-84754
X114068Y-84754
X114068Y-85089
X114068Y-85089
X114068Y-85532
X114068Y-85532
X114068Y-85906
X114068Y-85906
X114068Y-88100
X114068Y-88100
X114068Y-88435
X114068Y-88435
X114068Y-88878
X114068Y-88878
X114068Y-89252
X114068Y-89252
X114068Y-91447
X114068Y-91447
X114068Y-91782
X114068Y-91782
X114068Y-92224
X114068Y-92224
X114068Y-92599
X114068Y-92599
X114877Y-42652
X114877Y-42652
X114877Y-45998
X114877Y-45998
X114877Y-49345
X114877Y-49345
X114877Y-52691
X114877Y-52691
X114877Y-56038
X114877Y-56038
X114877Y-59384
X114877Y-59384
X114877Y-62730
X114877Y-62730
X114877Y-66077
X114877Y-66077
X114877Y-69423
X114877Y-69423
X114877Y-72770
X114877Y-72770
X114877Y-76116
X114877Y-76116
X114877Y-79463
X114877Y-79463
X114877Y-82809
X114877Y-82809
X114877Y-86156
X114877Y-86156
X114877Y-89502
X114877Y-89502
X114877Y-92849
X114877Y-92849
X115407Y-42165
X115407Y-42165
X115407Y-45512
X115407Y-45512
X115407Y-48858
X115407Y-48858
X115407Y-52205
X115407Y-52205
X115407Y-55551
X115407Y-55551
X115407Y-58898
X115407Y-58898
X115407Y-62244
X115407Y-62244
X115407Y-65591
X115407Y-65591
X115407Y-68937
X115407Y-68937
X115407Y-72284
X115407Y-72284
X115407Y-75630
X115407Y-75630
X115407Y-78976
X115407Y-78976
X115407Y-82323
X115407Y-82323
X115407Y-85669
X115407Y-85669
X115407Y-89016
X115407Y-89016
X115407Y-92362
X115407Y-92362
X115913Y-42171
X115913Y-42171
X115913Y-45517
X115913Y-45517
X115913Y-48864
X115913Y-48864
X115913Y-52210
X115913Y-52210
X115913Y-55557
X115913Y-55557
X115913Y-58903
X115913Y-58903
X115913Y-62250
X115913Y-62250
X115913Y-65596
X115913Y-65596
X115913Y-68942
X115913Y-68942
X115913Y-72289
X115913Y-72289
X115913Y-75635
X115913Y-75635
X115913Y-78982
X115913Y-78982
X115913Y-82328
X115913Y-82328
X115913Y-85675
X115913Y-85675
X115913Y-89021
X115913Y-89021
X115913Y-92368
X115913Y-92368
X116937Y-42264
X116937Y-42264
X116937Y-45610
X116937Y-45610
X116937Y-48957
X116937Y-48957
X116937Y-52303
X116937Y-52303
X116937Y-55650
X116937Y-55650
X116937Y-58996
X116937Y-58996
X116937Y-62343
X116937Y-62343
X116937Y-65689
X116937Y-65689
X116937Y-69036
X116937Y-69036
X116937Y-72382
X116937Y-72382
X116937Y-75728
X116937Y-75728
X116937Y-79075
X116937Y-79075
X116937Y-82421
X116937Y-82421
X116937Y-85768
X116937Y-85768
X116937Y-89114
X116937Y-89114
X116937Y-92461
X116937Y-92461
X117315Y-41932
X117315Y-41932
X117315Y-45278
X117315Y-45278
X117315Y-48624
X117315Y-48624
X117315Y-51971
X117315Y-51971
X117315Y-55317
X117315Y-55317
X117315Y-58664
X117315Y-58664
X117315Y-62010
X117315Y-62010
X117315Y-65357
X117315Y-65357
X117315Y-68703
X117315Y-68703
X117315Y-72050
X117315Y-72050
X117315Y-75396
X117315Y-75396
X117315Y-78743
X117315Y-78743
X117315Y-82089
X117315Y-82089
X117315Y-85436
X117315Y-85436
X117315Y-88782
X117315Y-88782
X117315Y-92128
X117315Y-92128
X117330Y-42570
X117330Y-42570
X117330Y-45916
X117330Y-45916
X117330Y-49263
X117330Y-49263
X117330Y-52609
X117330Y-52609
X117330Y-55956
X117330Y-55956
X117330Y-59302
X117330Y-59302
X117330Y-62649
X117330Y-62649
X117330Y-65995
X117330Y-65995
X117330Y-69342
X117330Y-69342
X117330Y-72688
X117330Y-72688
X117330Y-76034
X117330Y-76034
X117330Y-79381
X117330Y-79381
X117330Y-82727
X117330Y-82727
X117330Y-86074
X117330Y-86074
X117330Y-89420
X117330Y-89420
X117330Y-92767
X117330Y-92767
X117749Y-42247
X117749Y-42247
X117749Y-45594
X117749Y-45594
X117749Y-48940
X117749Y-48940
X117749Y-52287
X117749Y-52287
X117749Y-55633
X117749Y-55633
X117749Y-58980
X117749Y-58980
X117749Y-62326
X117749Y-62326
X117749Y-65673
X117749Y-65673
X117749Y-69019
X117749Y-69019
X117749Y-72366
X117749Y-72366
X117749Y-75712
X117749Y-75712
X117749Y-79058
X117749Y-79058
X117749Y-82405
X117749Y-82405
X117749Y-85751
X117749Y-85751
X117749Y-89098
X117749Y-89098
X117749Y-92444
X117749Y-92444
X118898Y-42441
X118898Y-42441
X118898Y-45787
X118898Y-45787
X118898Y-49134
X118898Y-49134
X118898Y-52480
X118898Y-52480
X118898Y-55827
X118898Y-55827
X118898Y-59173
X118898Y-59173
X118898Y-62520
X118898Y-62520
X118898Y-65866
X118898Y-65866
X118898Y-69213
X118898Y-69213
X118898Y-72559
X118898Y-72559
X118898Y-75906
X118898Y-75906
X118898Y-79252
X118898Y-79252
X118898Y-82599
X118898Y-82599
X118898Y-85945
X118898Y-85945
X118898Y-89291
X118898Y-89291
X118898Y-92638
X118898Y-92638
X119600Y-42471
X119600Y-42471
X119600Y-45817
X119600Y-45817
X119600Y-49163
X119600Y-49163
X119600Y-52510
X119600Y-52510
X119600Y-55856
X119600Y-55856
X119600Y-59203
X119600Y-59203
X119600Y-62549
X119600Y-62549
X119600Y-65896
X119600Y-65896
X119600Y-69242
X119600Y-69242
X119600Y-72589
X119600Y-72589
X119600Y-75935
X119600Y-75935
X119600Y-79282
X119600Y-79282
X119600Y-82628
X119600Y-82628
X119600Y-85975
X119600Y-85975
X119600Y-89321
X119600Y-89321
X119600Y-92667
X119600Y-92667
X120630Y-41250
X120630Y-41250
X120630Y-41585
X120630Y-41585
X120630Y-42028
X120630Y-42028
X120630Y-42402
X120630Y-42402
X120630Y-44597
X120630Y-44597
X120630Y-44931
X120630Y-44931
X120630Y-45374
X120630Y-45374
X120630Y-45748
X120630Y-45748
X120630Y-47943
X120630Y-47943
X120630Y-48278
X120630Y-48278
X120630Y-48721
X120630Y-48721
X120630Y-49095
X120630Y-49095
X120630Y-51289
X120630Y-51289
X120630Y-51624
X120630Y-51624
X120630Y-52067
X120630Y-52067
X120630Y-52441
X120630Y-52441
X120630Y-54636
X120630Y-54636
X120630Y-54971
X120630Y-54971
X120630Y-55413
X120630Y-55413
X120630Y-55787
X120630Y-55787
X120630Y-57982
X120630Y-57982
X120630Y-58317
X120630Y-58317
X120630Y-58760
X120630Y-58760
X120630Y-59134
X120630Y-59134
X120630Y-61329
X120630Y-61329
X120630Y-61663
X120630Y-61663
X120630Y-62106
X120630Y-62106
X120630Y-62480
X120630Y-62480
X120630Y-64675
X120630Y-64675
X120630Y-65010
X120630Y-65010
X120630Y-65453
X120630Y-65453
X120630Y-65827
X120630Y-65827
X120630Y-68022
X120630Y-68022
X120630Y-68356
X120630Y-68356
X120630Y-68799
X120630Y-68799
X120630Y-69173
X120630Y-69173
X120630Y-71368
X120630Y-71368
X120630Y-71703
X120630Y-71703
X120630Y-72146
X120630Y-72146
X120630Y-72520
X120630Y-72520
X120630Y-74715
X120630Y-74715
X120630Y-75049
X120630Y-75049
X120630Y-75492
X120630Y-75492
X120630Y-75866
X120630Y-75866
X120630Y-78061
X120630Y-78061
X120630Y-78396
X120630Y-78396
X120630Y-78839
X120630Y-78839
X120630Y-79213
X120630Y-79213
X120630Y-81408
X120630Y-81408
X120630Y-81742
X120630Y-81742
X120630Y-82185
X120630Y-82185
X120630Y-82559
X120630Y-82559
X120630Y-84754
X120630Y-84754
X120630Y-85089
X120630Y-85089
X120630Y-85532
X120630Y-85532
X120630Y-85906
X120630Y-85906
X120630Y-88100
X120630Y-88100
X120630Y-88435
X120630Y-88435
X120630Y-88878
X120630Y-88878
X120630Y-89252
X120630Y-89252
X120630Y-91447
X120630Y-91447
X120630Y-91782
X120630Y-91782
X120630Y-92224
X120630Y-92224
X120630Y-92599
X120630Y-92599
X121421Y-42451
X121421Y-42451
X121421Y-45797
X121421Y-45797
X121421Y-49144
X121421Y-49144
X121421Y-52490
X121421Y-52490
X121421Y-55837
X121421Y-55837
X121421Y-59183
X121421Y-59183
X121421Y-62530
X121421Y-62530
X121421Y-65876
X121421Y-65876
X121421Y-69223
X121421Y-69223
X121421Y-72569
X121421Y-72569
X121421Y-75915
X121421Y-75915
X121421Y-79262
X121421Y-79262
X121421Y-82608
X121421Y-82608
X121421Y-85955
X121421Y-85955
X121421Y-89301
X121421Y-89301
X121421Y-92648
X121421Y-92648
X122022Y-42135
X122022Y-42135
X122022Y-45482
X122022Y-45482
X122022Y-48828
X122022Y-48828
X122022Y-52175
X122022Y-52175
X122022Y-55521
X122022Y-55521
X122022Y-58868
X122022Y-58868
X122022Y-62214
X122022Y-62214
X122022Y-65560
X122022Y-65560
X122022Y-68907
X122022Y-68907
X122022Y-72253
X122022Y-72253
X122022Y-75600
X122022Y-75600
X122022Y-78946
X122022Y-78946
X122022Y-82293
X122022Y-82293
X122022Y-85639
X122022Y-85639
X122022Y-88986
X122022Y-88986
X122022Y-92332
X122022Y-92332
X122475Y-42171
X122475Y-42171
X122475Y-45517
X122475Y-45517
X122475Y-48864
X122475Y-48864
X122475Y-52210
X122475Y-52210
X122475Y-55557
X122475Y-55557
X122475Y-58903
X122475Y-58903
X122475Y-62250
X122475Y-62250
X122475Y-65596
X122475Y-65596
X122475Y-68942
X122475Y-68942
X122475Y-72289
X122475Y-72289
X122475Y-75635
X122475Y-75635
X122475Y-78982
X122475Y-78982
X122475Y-82328
X122475Y-82328
X122475Y-85675
X122475Y-85675
X122475Y-89021
X122475Y-89021
X122475Y-92368
X122475Y-92368
X123498Y-42274
X123498Y-42274
X123498Y-45620
X123498Y-45620
X123498Y-48967
X123498Y-48967
X123498Y-52313
X123498Y-52313
X123498Y-55660
X123498Y-55660
X123498Y-59006
X123498Y-59006
X123498Y-62352
X123498Y-62352
X123498Y-65699
X123498Y-65699
X123498Y-69045
X123498Y-69045
X123498Y-72392
X123498Y-72392
X123498Y-75738
X123498Y-75738
X123498Y-79085
X123498Y-79085
X123498Y-82431
X123498Y-82431
X123498Y-85778
X123498Y-85778
X123498Y-89124
X123498Y-89124
X123498Y-92471
X123498Y-92471
X123877Y-41932
X123877Y-41932
X123877Y-45278
X123877Y-45278
X123877Y-48624
X123877Y-48624
X123877Y-51971
X123877Y-51971
X123877Y-55317
X123877Y-55317
X123877Y-58664
X123877Y-58664
X123877Y-62010
X123877Y-62010
X123877Y-65357
X123877Y-65357
X123877Y-68703
X123877Y-68703
X123877Y-72050
X123877Y-72050
X123877Y-75396
X123877Y-75396
X123877Y-78743
X123877Y-78743
X123877Y-82089
X123877Y-82089
X123877Y-85436
X123877Y-85436
X123877Y-88782
X123877Y-88782
X123877Y-92128
X123877Y-92128
X123895Y-42572
X123895Y-42572
X123895Y-45919
X123895Y-45919
X123895Y-49265
X123895Y-49265
X123895Y-52612
X123895Y-52612
X123895Y-55958
X123895Y-55958
X123895Y-59304
X123895Y-59304
X123895Y-62651
X123895Y-62651
X123895Y-65997
X123895Y-65997
X123895Y-69344
X123895Y-69344
X123895Y-72690
X123895Y-72690
X123895Y-76037
X123895Y-76037
X123895Y-79383
X123895Y-79383
X123895Y-82730
X123895Y-82730
X123895Y-86076
X123895Y-86076
X123895Y-89423
X123895Y-89423
X123895Y-92769
X123895Y-92769
X124311Y-42247
X124311Y-42247
X124311Y-45594
X124311Y-45594
X124311Y-48940
X124311Y-48940
X124311Y-52287
X124311Y-52287
X124311Y-55633
X124311Y-55633
X124311Y-58980
X124311Y-58980
X124311Y-62326
X124311Y-62326
X124311Y-65673
X124311Y-65673
X124311Y-69019
X124311Y-69019
X124311Y-72366
X124311Y-72366
X124311Y-75712
X124311Y-75712
X124311Y-79058
X124311Y-79058
X124311Y-82405
X124311Y-82405
X124311Y-85751
X124311Y-85751
X124311Y-89098
X124311Y-89098
X124311Y-92444
X124311Y-92444
X125370Y-42433
X125370Y-42433
X125370Y-45780
X125370Y-45780
X125370Y-49126
X125370Y-49126
X125370Y-52473
X125370Y-52473
X125370Y-55819
X125370Y-55819
X125370Y-59166
X125370Y-59166
X125370Y-62512
X125370Y-62512
X125370Y-65859
X125370Y-65859
X125370Y-69205
X125370Y-69205
X125370Y-72551
X125370Y-72551
X125370Y-75898
X125370Y-75898
X125370Y-79244
X125370Y-79244
X125370Y-82591
X125370Y-82591
X125370Y-85937
X125370Y-85937
X125370Y-89284
X125370Y-89284
X125370Y-92630
X125370Y-92630
X126145Y-42480
X126145Y-42480
X126145Y-45827
X126145Y-45827
X126145Y-49173
X126145Y-49173
X126145Y-52520
X126145Y-52520
X126145Y-55866
X126145Y-55866
X126145Y-59213
X126145Y-59213
X126145Y-62559
X126145Y-62559
X126145Y-65906
X126145Y-65906
X126145Y-69252
X126145Y-69252
X126145Y-72599
X126145Y-72599
X126145Y-75945
X126145Y-75945
X126145Y-79291
X126145Y-79291
X126145Y-82638
X126145Y-82638
X126145Y-85984
X126145Y-85984
X126145Y-89331
X126145Y-89331
X126145Y-92677
X126145Y-92677
X127191Y-41250
X127191Y-41250
X127191Y-41585
X127191Y-41585
X127191Y-42028
X127191Y-42028
X127191Y-42402
X127191Y-42402
X127191Y-44597
X127191Y-44597
X127191Y-44931
X127191Y-44931
X127191Y-45374
X127191Y-45374
X127191Y-45748
X127191Y-45748
X127191Y-47943
X127191Y-47943
X127191Y-48278
X127191Y-48278
X127191Y-48721
X127191Y-48721
X127191Y-49095
X127191Y-49095
X127191Y-51289
X127191Y-51289
X127191Y-51624
X127191Y-51624
X127191Y-52067
X127191Y-52067
X127191Y-52441
X127191Y-52441
X127191Y-54636
X127191Y-54636
X127191Y-54971
X127191Y-54971
X127191Y-55413
X127191Y-55413
X127191Y-55787
X127191Y-55787
X127191Y-57982
X127191Y-57982
X127191Y-58317
X127191Y-58317
X127191Y-58760
X127191Y-58760
X127191Y-59134
X127191Y-59134
X127191Y-61329
X127191Y-61329
X127191Y-61663
X127191Y-61663
X127191Y-62106
X127191Y-62106
X127191Y-62480
X127191Y-62480
X127191Y-64675
X127191Y-64675
X127191Y-65010
X127191Y-65010
X127191Y-65453
X127191Y-65453
X127191Y-65827
X127191Y-65827
X127191Y-68022
X127191Y-68022
X127191Y-68356
X127191Y-68356
X127191Y-68799
X127191Y-68799
X127191Y-69173
X127191Y-69173
X127191Y-71368
X127191Y-71368
X127191Y-71703
X127191Y-71703
X127191Y-72146
X127191Y-72146
X127191Y-72520
X127191Y-72520
X127191Y-74715
X127191Y-74715
X127191Y-75049
X127191Y-75049
X127191Y-75492
X127191Y-75492
X127191Y-75866
X127191Y-75866
X127191Y-78061
X127191Y-78061
X127191Y-78396
X127191Y-78396
X127191Y-78839
X127191Y-78839
X127191Y-79213
X127191Y-79213
X127191Y-81408
X127191Y-81408
X127191Y-81742
X127191Y-81742
X127191Y-82185
X127191Y-82185
X127191Y-82559
X127191Y-82559
X127191Y-84754
X127191Y-84754
X127191Y-85089
X127191Y-85089
X127191Y-85532
X127191Y-85532
X127191Y-85906
X127191Y-85906
X127191Y-88100
X127191Y-88100
X127191Y-88435
X127191Y-88435
X127191Y-88878
X127191Y-88878
X127191Y-89252
X127191Y-89252
X127191Y-91447
X127191Y-91447
X127191Y-91782
X127191Y-91782
X127191Y-92224
X127191Y-92224
X127191Y-92599
X127191Y-92599
X128025Y-42412
X128025Y-42412
X128025Y-45758
X128025Y-45758
X128025Y-49104
X128025Y-49104
X128025Y-52451
X128025Y-52451
X128025Y-55797
X128025Y-55797
X128025Y-59144
X128025Y-59144
X128025Y-62490
X128025Y-62490
X128025Y-65837
X128025Y-65837
X128025Y-69183
X128025Y-69183
X128025Y-72530
X128025Y-72530
X128025Y-75876
X128025Y-75876
X128025Y-79223
X128025Y-79223
X128025Y-82569
X128025Y-82569
X128025Y-85915
X128025Y-85915
X128025Y-89262
X128025Y-89262
X128025Y-92608
X128025Y-92608
X128608Y-42107
X128608Y-42107
X128608Y-45454
X128608Y-45454
X128608Y-48800
X128608Y-48800
X128608Y-52147
X128608Y-52147
X128608Y-55493
X128608Y-55493
X128608Y-58840
X128608Y-58840
X128608Y-62186
X128608Y-62186
X128608Y-65533
X128608Y-65533
X128608Y-68879
X128608Y-68879
X128608Y-72226
X128608Y-72226
X128608Y-75572
X128608Y-75572
X128608Y-78919
X128608Y-78919
X128608Y-82265
X128608Y-82265
X128608Y-85611
X128608Y-85611
X128608Y-88958
X128608Y-88958
X128608Y-92304
X128608Y-92304
X129057Y-42173
X129057Y-42173
X129057Y-45520
X129057Y-45520
X129057Y-48866
X129057Y-48866
X129057Y-52213
X129057Y-52213
X129057Y-55559
X129057Y-55559
X129057Y-58906
X129057Y-58906
X129057Y-62252
X129057Y-62252
X129057Y-65599
X129057Y-65599
X129057Y-68945
X129057Y-68945
X129057Y-72292
X129057Y-72292
X129057Y-75638
X129057Y-75638
X129057Y-78985
X129057Y-78985
X129057Y-82331
X129057Y-82331
X129057Y-85677
X129057Y-85677
X129057Y-89024
X129057Y-89024
X129057Y-92370
X129057Y-92370
X130060Y-42284
X130060Y-42284
X130060Y-45630
X130060Y-45630
X130060Y-48976
X130060Y-48976
X130060Y-52323
X130060Y-52323
X130060Y-55669
X130060Y-55669
X130060Y-59016
X130060Y-59016
X130060Y-62362
X130060Y-62362
X130060Y-65709
X130060Y-65709
X130060Y-69055
X130060Y-69055
X130060Y-72402
X130060Y-72402
X130060Y-75748
X130060Y-75748
X130060Y-79095
X130060Y-79095
X130060Y-82441
X130060Y-82441
X130060Y-85787
X130060Y-85787
X130060Y-89134
X130060Y-89134
X130060Y-92480
X130060Y-92480
X130453Y-42570
X130453Y-42570
X130453Y-45916
X130453Y-45916
X130453Y-49263
X130453Y-49263
X130453Y-52609
X130453Y-52609
X130453Y-55956
X130453Y-55956
X130453Y-59302
X130453Y-59302
X130453Y-62649
X130453Y-62649
X130453Y-65995
X130453Y-65995
X130453Y-69342
X130453Y-69342
X130453Y-72688
X130453Y-72688
X130453Y-76034
X130453Y-76034
X130453Y-79381
X130453Y-79381
X130453Y-82727
X130453Y-82727
X130453Y-86074
X130453Y-86074
X130453Y-89420
X130453Y-89420
X130453Y-92767
X130453Y-92767
X130455Y-41922
X130455Y-41922
X130455Y-45269
X130455Y-45269
X130455Y-48615
X130455Y-48615
X130455Y-51962
X130455Y-51962
X130455Y-55308
X130455Y-55308
X130455Y-58654
X130455Y-58654
X130455Y-62001
X130455Y-62001
X130455Y-65347
X130455Y-65347
X130455Y-68694
X130455Y-68694
X130455Y-72040
X130455Y-72040
X130455Y-75387
X130455Y-75387
X130455Y-78733
X130455Y-78733
X130455Y-82080
X130455Y-82080
X130455Y-85426
X130455Y-85426
X130455Y-88773
X130455Y-88773
X130455Y-92119
X130455Y-92119
X130873Y-42247
X130873Y-42247
X130873Y-45594
X130873Y-45594
X130873Y-48940
X130873Y-48940
X130873Y-52287
X130873Y-52287
X130873Y-55633
X130873Y-55633
X130873Y-58980
X130873Y-58980
X130873Y-62326
X130873Y-62326
X130873Y-65673
X130873Y-65673
X130873Y-69019
X130873Y-69019
X130873Y-72366
X130873Y-72366
X130873Y-75712
X130873Y-75712
X130873Y-79058
X130873Y-79058
X130873Y-82405
X130873Y-82405
X130873Y-85751
X130873Y-85751
X130873Y-89098
X130873Y-89098
X130873Y-92444
X130873Y-92444
X131980Y-42444
X131980Y-42444
X131980Y-45791
X131980Y-45791
X131980Y-49137
X131980Y-49137
X131980Y-52483
X131980Y-52483
X131980Y-55830
X131980Y-55830
X131980Y-59176
X131980Y-59176
X131980Y-62523
X131980Y-62523
X131980Y-65869
X131980Y-65869
X131980Y-69216
X131980Y-69216
X131980Y-72562
X131980Y-72562
X131980Y-75909
X131980Y-75909
X131980Y-79255
X131980Y-79255
X131980Y-82602
X131980Y-82602
X131980Y-85948
X131980Y-85948
X131980Y-89294
X131980Y-89294
X131980Y-92641
X131980Y-92641
X132734Y-42461
X132734Y-42461
X132734Y-45807
X132734Y-45807
X132734Y-49154
X132734Y-49154
X132734Y-52500
X132734Y-52500
X132734Y-55847
X132734Y-55847
X132734Y-59193
X132734Y-59193
X132734Y-62539
X132734Y-62539
X132734Y-65886
X132734Y-65886
X132734Y-69232
X132734Y-69232
X132734Y-72579
X132734Y-72579
X132734Y-75925
X132734Y-75925
X132734Y-79272
X132734Y-79272
X132734Y-82618
X132734Y-82618
X132734Y-85965
X132734Y-85965
X132734Y-89311
X132734Y-89311
X132734Y-92658
X132734Y-92658
X133753Y-41250
X133753Y-41250
X133753Y-41585
X133753Y-41585
X133753Y-42028
X133753Y-42028
X133753Y-42402
X133753Y-42402
X133753Y-44597
X133753Y-44597
X133753Y-44931
X133753Y-44931
X133753Y-45374
X133753Y-45374
X133753Y-45748
X133753Y-45748
X133753Y-47943
X133753Y-47943
X133753Y-48278
X133753Y-48278
X133753Y-48721
X133753Y-48721
X133753Y-49095
X133753Y-49095
X133753Y-51289
X133753Y-51289
X133753Y-51624
X133753Y-51624
X133753Y-52067
X133753Y-52067
X133753Y-52441
X133753Y-52441
X133753Y-54636
X133753Y-54636
X133753Y-54971
X133753Y-54971
X133753Y-55413
X133753Y-55413
X133753Y-55787
X133753Y-55787
X133753Y-57982
X133753Y-57982
X133753Y-58317
X133753Y-58317
X133753Y-58760
X133753Y-58760
X133753Y-59134
X133753Y-59134
X133753Y-61329
X133753Y-61329
X133753Y-61663
X133753Y-61663
X133753Y-62106
X133753Y-62106
X133753Y-62480
X133753Y-62480
X133753Y-64675
X133753Y-64675
X133753Y-65010
X133753Y-65010
X133753Y-65453
X133753Y-65453
X133753Y-65827
X133753Y-65827
X133753Y-68022
X133753Y-68022
X133753Y-68356
X133753Y-68356
X133753Y-68799
X133753Y-68799
X133753Y-69173
X133753Y-69173
X133753Y-71368
X133753Y-71368
X133753Y-71703
X133753Y-71703
X133753Y-72146
X133753Y-72146
X133753Y-72520
X133753Y-72520
X133753Y-74715
X133753Y-74715
X133753Y-75049
X133753Y-75049
X133753Y-75492
X133753Y-75492
X133753Y-75866
X133753Y-75866
X133753Y-78061
X133753Y-78061
X133753Y-78396
X133753Y-78396
X133753Y-78839
X133753Y-78839
X133753Y-79213
X133753Y-79213
X133753Y-81408
X133753Y-81408
X133753Y-81742
X133753Y-81742
X133753Y-82185
X133753Y-82185
X133753Y-82559
X133753Y-82559
X133753Y-84754
X133753Y-84754
X133753Y-85089
X133753Y-85089
X133753Y-85532
X133753Y-85532
X133753Y-85906
X133753Y-85906
X133753Y-88100
X133753Y-88100
X133753Y-88435
X133753Y-88435
X133753Y-88878
X133753Y-88878
X133753Y-89252
X133753Y-89252
X133753Y-91447
X133753Y-91447
X133753Y-91782
X133753Y-91782
X133753Y-92224
X133753Y-92224
X133753Y-92599
X133753Y-92599
X134580Y-42382
X134580Y-42382
X134580Y-45728
X134580Y-45728
X134580Y-49075
X134580Y-49075
X134580Y-52421
X134580Y-52421
X134580Y-55768
X134580Y-55768
X134580Y-59114
X134580Y-59114
X134580Y-62461
X134580Y-62461
X134580Y-65807
X134580Y-65807
X134580Y-69154
X134580Y-69154
X134580Y-72500
X134580Y-72500
X134580Y-75847
X134580Y-75847
X134580Y-79193
X134580Y-79193
X134580Y-82539
X134580Y-82539
X134580Y-85886
X134580Y-85886
X134580Y-89232
X134580Y-89232
X134580Y-92579
X134580Y-92579
X135204Y-42102
X135204Y-42102
X135204Y-45449
X135204Y-45449
X135204Y-48795
X135204Y-48795
X135204Y-52142
X135204Y-52142
X135204Y-55488
X135204Y-55488
X135204Y-58835
X135204Y-58835
X135204Y-62181
X135204Y-62181
X135204Y-65528
X135204Y-65528
X135204Y-68874
X135204Y-68874
X135204Y-72221
X135204Y-72221
X135204Y-75567
X135204Y-75567
X135204Y-78913
X135204Y-78913
X135204Y-82260
X135204Y-82260
X135204Y-85606
X135204Y-85606
X135204Y-88953
X135204Y-88953
X135204Y-92299
X135204Y-92299
X135652Y-42178
X135652Y-42178
X135652Y-45524
X135652Y-45524
X135652Y-48871
X135652Y-48871
X135652Y-52217
X135652Y-52217
X135652Y-55563
X135652Y-55563
X135652Y-58910
X135652Y-58910
X135652Y-62256
X135652Y-62256
X135652Y-65603
X135652Y-65603
X135652Y-68949
X135652Y-68949
X135652Y-72296
X135652Y-72296
X135652Y-75642
X135652Y-75642
X135652Y-78989
X135652Y-78989
X135652Y-82335
X135652Y-82335
X135652Y-85682
X135652Y-85682
X135652Y-89028
X135652Y-89028
X135652Y-92374
X135652Y-92374
X136622Y-42264
X136622Y-42264
X136622Y-45610
X136622Y-45610
X136622Y-48957
X136622Y-48957
X136622Y-52303
X136622Y-52303
X136622Y-55650
X136622Y-55650
X136622Y-58996
X136622Y-58996
X136622Y-62343
X136622Y-62343
X136622Y-65689
X136622Y-65689
X136622Y-69036
X136622Y-69036
X136622Y-72382
X136622Y-72382
X136622Y-75728
X136622Y-75728
X136622Y-79075
X136622Y-79075
X136622Y-82421
X136622Y-82421
X136622Y-85768
X136622Y-85768
X136622Y-89114
X136622Y-89114
X136622Y-92461
X136622Y-92461
X137000Y-41932
X137000Y-41932
X137000Y-45278
X137000Y-45278
X137000Y-48624
X137000Y-48624
X137000Y-51971
X137000Y-51971
X137000Y-55317
X137000Y-55317
X137000Y-58664
X137000Y-58664
X137000Y-62010
X137000Y-62010
X137000Y-65357
X137000Y-65357
X137000Y-68703
X137000Y-68703
X137000Y-72050
X137000Y-72050
X137000Y-75396
X137000Y-75396
X137000Y-78743
X137000Y-78743
X137000Y-82089
X137000Y-82089
X137000Y-85436
X137000Y-85436
X137000Y-88782
X137000Y-88782
X137000Y-92128
X137000Y-92128
X137015Y-42570
X137015Y-42570
X137015Y-45916
X137015Y-45916
X137015Y-49263
X137015Y-49263
X137015Y-52609
X137015Y-52609
X137015Y-55956
X137015Y-55956
X137015Y-59302
X137015Y-59302
X137015Y-62649
X137015Y-62649
X137015Y-65995
X137015Y-65995
X137015Y-69342
X137015Y-69342
X137015Y-72688
X137015Y-72688
X137015Y-76034
X137015Y-76034
X137015Y-79381
X137015Y-79381
X137015Y-82727
X137015Y-82727
X137015Y-86074
X137015Y-86074
X137015Y-89420
X137015Y-89420
X137015Y-92767
X137015Y-92767
X137434Y-42247
X137434Y-42247
X137434Y-45594
X137434Y-45594
X137434Y-48940
X137434Y-48940
X137434Y-52287
X137434Y-52287
X137434Y-55633
X137434Y-55633
X137434Y-58980
X137434Y-58980
X137434Y-62326
X137434Y-62326
X137434Y-65673
X137434Y-65673
X137434Y-69019
X137434Y-69019
X137434Y-72366
X137434Y-72366
X137434Y-75712
X137434Y-75712
X137434Y-79058
X137434Y-79058
X137434Y-82405
X137434Y-82405
X137434Y-85751
X137434Y-85751
X137434Y-89098
X137434Y-89098
X137434Y-92444
X137434Y-92444
X138582Y-42441
X138582Y-42441
X138582Y-45787
X138582Y-45787
X138582Y-49134
X138582Y-49134
X138582Y-52480
X138582Y-52480
X138582Y-55827
X138582Y-55827
X138582Y-59173
X138582Y-59173
X138582Y-62520
X138582Y-62520
X138582Y-65866
X138582Y-65866
X138582Y-69213
X138582Y-69213
X138582Y-72559
X138582Y-72559
X138582Y-75906
X138582Y-75906
X138582Y-79252
X138582Y-79252
X138582Y-82599
X138582Y-82599
X138582Y-85945
X138582Y-85945
X138582Y-89291
X138582Y-89291
X138582Y-92638
X138582Y-92638
X139295Y-42471
X139295Y-42471
X139295Y-45817
X139295Y-45817
X139295Y-49163
X139295Y-49163
X139295Y-52510
X139295Y-52510
X139295Y-55856
X139295Y-55856
X139295Y-59203
X139295Y-59203
X139295Y-62549
X139295Y-62549
X139295Y-65896
X139295Y-65896
X139295Y-69242
X139295Y-69242
X139295Y-72589
X139295Y-72589
X139295Y-75935
X139295Y-75935
X139295Y-79282
X139295Y-79282
X139295Y-82628
X139295Y-82628
X139295Y-85974
X139295Y-85974
X139295Y-89321
X139295Y-89321
X139295Y-92667
X139295Y-92667
X140315Y-41250
X140315Y-41250
X140315Y-41585
X140315Y-41585
X140315Y-42028
X140315Y-42028
X140315Y-42402
X140315Y-42402
X140315Y-44597
X140315Y-44597
X140315Y-44931
X140315Y-44931
X140315Y-45374
X140315Y-45374
X140315Y-45748
X140315Y-45748
X140315Y-47943
X140315Y-47943
X140315Y-48278
X140315Y-48278
X140315Y-48721
X140315Y-48721
X140315Y-49095
X140315Y-49095
X140315Y-51289
X140315Y-51289
X140315Y-51624
X140315Y-51624
X140315Y-52067
X140315Y-52067
X140315Y-52441
X140315Y-52441
X140315Y-54636
X140315Y-54636
X140315Y-54971
X140315Y-54971
X140315Y-55413
X140315Y-55413
X140315Y-55787
X140315Y-55787
X140315Y-57982
X140315Y-57982
X140315Y-58317
X140315Y-58317
X140315Y-58760
X140315Y-58760
X140315Y-59134
X140315Y-59134
X140315Y-61329
X140315Y-61329
X140315Y-61663
X140315Y-61663
X140315Y-62106
X140315Y-62106
X140315Y-62480
X140315Y-62480
X140315Y-64675
X140315Y-64675
X140315Y-65010
X140315Y-65010
X140315Y-65453
X140315Y-65453
X140315Y-65827
X140315Y-65827
X140315Y-68022
X140315Y-68022
X140315Y-68356
X140315Y-68356
X140315Y-68799
X140315Y-68799
X140315Y-69173
X140315Y-69173
X140315Y-71368
X140315Y-71368
X140315Y-71703
X140315Y-71703
X140315Y-72146
X140315Y-72146
X140315Y-72520
X140315Y-72520
X140315Y-74715
X140315Y-74715
X140315Y-75049
X140315Y-75049
X140315Y-75492
X140315Y-75492
X140315Y-75866
X140315Y-75866
X140315Y-78061
X140315Y-78061
X140315Y-78396
X140315Y-78396
X140315Y-78839
X140315Y-78839
X140315Y-79213
X140315Y-79213
X140315Y-81408
X140315Y-81408
X140315Y-81742
X140315Y-81742
X140315Y-82185
X140315Y-82185
X140315Y-82559
X140315Y-82559
X140315Y-84754
X140315Y-84754
X140315Y-85089
X140315Y-85089
X140315Y-85532
X140315Y-85532
X140315Y-85906
X140315Y-85906
X140315Y-88100
X140315Y-88100
X140315Y-88435
X140315Y-88435
X140315Y-88878
X140315Y-88878
X140315Y-89252
X140315Y-89252
X140315Y-91447
X140315Y-91447
X140315Y-91782
X140315Y-91782
X140315Y-92224
X140315Y-92224
X140315Y-92599
X140315Y-92599
X141106Y-42402
X141106Y-42402
X141106Y-45748
X141106Y-45748
X141106Y-49095
X141106Y-49095
X141106Y-52441
X141106Y-52441
X141106Y-55787
X141106Y-55787
X141106Y-59134
X141106Y-59134
X141106Y-62480
X141106Y-62480
X141106Y-65827
X141106Y-65827
X141106Y-69173
X141106Y-69173
X141106Y-72520
X141106Y-72520
X141106Y-75866
X141106Y-75866
X141106Y-79213
X141106Y-79213
X141106Y-82559
X141106Y-82559
X141106Y-85906
X141106Y-85906
X141106Y-89252
X141106Y-89252
X141106Y-92599
X141106Y-92599
X141718Y-42141
X141718Y-42141
X141718Y-45488
X141718Y-45488
X141718Y-48834
X141718Y-48834
X141718Y-52181
X141718Y-52181
X141718Y-55527
X141718Y-55527
X141718Y-58873
X141718Y-58873
X141718Y-62220
X141718Y-62220
X141718Y-65566
X141718Y-65566
X141718Y-68913
X141718Y-68913
X141718Y-72259
X141718Y-72259
X141718Y-75606
X141718Y-75606
X141718Y-78952
X141718Y-78952
X141718Y-82299
X141718Y-82299
X141718Y-85645
X141718Y-85645
X141718Y-88992
X141718Y-88992
X141718Y-92338
X141718Y-92338
X142171Y-42172
X142171Y-42172
X142171Y-45518
X142171Y-45518
X142171Y-48864
X142171Y-48864
X142171Y-52211
X142171Y-52211
X142171Y-55557
X142171Y-55557
X142171Y-58904
X142171Y-58904
X142171Y-62250
X142171Y-62250
X142171Y-65597
X142171Y-65597
X142171Y-68943
X142171Y-68943
X142171Y-72290
X142171Y-72290
X142171Y-75636
X142171Y-75636
X142171Y-78983
X142171Y-78983
X142171Y-82329
X142171Y-82329
X142171Y-85675
X142171Y-85675
X142171Y-89022
X142171Y-89022
X142171Y-92368
X142171Y-92368
X143183Y-42264
X143183Y-42264
X143183Y-45610
X143183Y-45610
X143183Y-48957
X143183Y-48957
X143183Y-52303
X143183Y-52303
X143183Y-55650
X143183Y-55650
X143183Y-58996
X143183Y-58996
X143183Y-62343
X143183Y-62343
X143183Y-65689
X143183Y-65689
X143183Y-69036
X143183Y-69036
X143183Y-72382
X143183Y-72382
X143183Y-75728
X143183Y-75728
X143183Y-79075
X143183Y-79075
X143183Y-82421
X143183Y-82421
X143183Y-85768
X143183Y-85768
X143183Y-89114
X143183Y-89114
X143183Y-92461
X143183Y-92461
X143562Y-41932
X143562Y-41932
X143562Y-45278
X143562Y-45278
X143562Y-48624
X143562Y-48624
X143562Y-51971
X143562Y-51971
X143562Y-55317
X143562Y-55317
X143562Y-58664
X143562Y-58664
X143562Y-62010
X143562Y-62010
X143562Y-65357
X143562Y-65357
X143562Y-68703
X143562Y-68703
X143562Y-72050
X143562Y-72050
X143562Y-75396
X143562Y-75396
X143562Y-78743
X143562Y-78743
X143562Y-82089
X143562Y-82089
X143562Y-85436
X143562Y-85436
X143562Y-88782
X143562Y-88782
X143562Y-92128
X143562Y-92128
X143576Y-42570
X143576Y-42570
X143576Y-45916
X143576Y-45916
X143576Y-49263
X143576Y-49263
X143576Y-52609
X143576Y-52609
X143576Y-55956
X143576Y-55956
X143576Y-59302
X143576Y-59302
X143576Y-62649
X143576Y-62649
X143576Y-65995
X143576Y-65995
X143576Y-69342
X143576Y-69342
X143576Y-72688
X143576Y-72688
X143576Y-76034
X143576Y-76034
X143576Y-79381
X143576Y-79381
X143576Y-82727
X143576Y-82727
X143576Y-86074
X143576Y-86074
X143576Y-89420
X143576Y-89420
X143576Y-92767
X143576Y-92767
X143996Y-42247
X143996Y-42247
X143996Y-45594
X143996Y-45594
X143996Y-48940
X143996Y-48940
X143996Y-52287
X143996Y-52287
X143996Y-55633
X143996Y-55633
X143996Y-58980
X143996Y-58980
X143996Y-62326
X143996Y-62326
X143996Y-65673
X143996Y-65673
X143996Y-69019
X143996Y-69019
X143996Y-72366
X143996Y-72366
X143996Y-75712
X143996Y-75712
X143996Y-79058
X143996Y-79058
X143996Y-82405
X143996Y-82405
X143996Y-85751
X143996Y-85751
X143996Y-89098
X143996Y-89098
X143996Y-92444
X143996Y-92444
X145236Y-42244
X145236Y-42244
X145236Y-45591
X145236Y-45591
X145236Y-48937
X145236Y-48937
X145236Y-52284
X145236Y-52284
X145236Y-55630
X145236Y-55630
X145236Y-58976
X145236Y-58976
X145236Y-62323
X145236Y-62323
X145236Y-65669
X145236Y-65669
X145236Y-69016
X145236Y-69016
X145236Y-72362
X145236Y-72362
X145236Y-75709
X145236Y-75709
X145236Y-79055
X145236Y-79055
X145236Y-82402
X145236Y-82402
X145236Y-85748
X145236Y-85748
X145236Y-89095
X145236Y-89095
X145236Y-92441
X145236Y-92441
X146056Y-42047
X146056Y-42047
X146056Y-45394
X146056Y-45394
X146056Y-48740
X146056Y-48740
X146056Y-52087
X146056Y-52087
X146056Y-55433
X146056Y-55433
X146056Y-58780
X146056Y-58780
X146056Y-62126
X146056Y-62126
X146056Y-65473
X146056Y-65473
X146056Y-68819
X146056Y-68819
X146056Y-72165
X146056Y-72165
X146056Y-75512
X146056Y-75512
X146056Y-78858
X146056Y-78858
X146056Y-82205
X146056Y-82205
X146056Y-85551
X146056Y-85551
X146056Y-88898
X146056Y-88898
X146056Y-92244
X146056Y-92244
X146466Y-42362
X146466Y-42362
X146466Y-45709
X146466Y-45709
X146466Y-49055
X146466Y-49055
X146466Y-52402
X146466Y-52402
X146466Y-55748
X146466Y-55748
X146466Y-59095
X146466Y-59095
X146466Y-62441
X146466Y-62441
X146466Y-65787
X146466Y-65787
X146466Y-69134
X146466Y-69134
X146466Y-72480
X146466Y-72480
X146466Y-75827
X146466Y-75827
X146466Y-79173
X146466Y-79173
X146466Y-82520
X146466Y-82520
X146466Y-85866
X146466Y-85866
X146466Y-89213
X146466Y-89213
X146466Y-92559
X146466Y-92559
T0
M30
