G04 #@! TF.GenerationSoftware,KiCad,Pcbnew,(5.1.0-0)*
G04 #@! TF.CreationDate,2019-05-15T00:47:19-07:00*
G04 #@! TF.ProjectId,EOutside,454f7574-7369-4646-952e-6b696361645f,rev?*
G04 #@! TF.SameCoordinates,Original*
G04 #@! TF.FileFunction,Paste,Bot*
G04 #@! TF.FilePolarity,Positive*
%FSLAX46Y46*%
G04 Gerber Fmt 4.6, Leading zero omitted, Abs format (unit mm)*
G04 Created by KiCad (PCBNEW (5.1.0-0)) date 2019-05-15 00:47:19*
%MOMM*%
%LPD*%
G04 APERTURE LIST*
%ADD10R,1.250000X1.750000*%
%ADD11R,2.000000X1.750000*%
G04 APERTURE END LIST*
D10*
X350315393Y-215950228D03*
X345815393Y-215950228D03*
X348065393Y-215950228D03*
X100316427Y-207450228D03*
X95816427Y-207450228D03*
X98066427Y-207450228D03*
D11*
X201066383Y-232950228D03*
X195066383Y-232950228D03*
X198066383Y-232950228D03*
X214733043Y-228250228D03*
X217733043Y-228250228D03*
X211733043Y-228250228D03*
X261733023Y-219750228D03*
X267733023Y-219750228D03*
X264733023Y-219750228D03*
D10*
X100316427Y-224450228D03*
X95816427Y-224450228D03*
X98066427Y-224450228D03*
X95816427Y-228250228D03*
X100316427Y-228250228D03*
X98066427Y-228250228D03*
D11*
X251066363Y-224450228D03*
X245066363Y-224450228D03*
X248066363Y-224450228D03*
X267733023Y-224450228D03*
X261733023Y-224450228D03*
X264733023Y-224450228D03*
X261733023Y-228250228D03*
X267733023Y-228250228D03*
X264733023Y-228250228D03*
D10*
X283649775Y-224450228D03*
X279149775Y-224450228D03*
X281399775Y-224450228D03*
X333649779Y-224450228D03*
X329149779Y-224450228D03*
X331399779Y-224450228D03*
D11*
X178399723Y-228200228D03*
X184399723Y-228200228D03*
X181399723Y-228200228D03*
X217733043Y-224450228D03*
X211733043Y-224450228D03*
X214733043Y-224450228D03*
X211733043Y-228250228D03*
X217733043Y-228250228D03*
X214733043Y-228250228D03*
X228399703Y-228250228D03*
X234399703Y-228250228D03*
X231399703Y-228250228D03*
X234399703Y-224450228D03*
X228399703Y-224450228D03*
X231399703Y-224450228D03*
X245066363Y-228250228D03*
X251066363Y-228250228D03*
X248066363Y-228250228D03*
D10*
X312483111Y-219750228D03*
X316983111Y-219750228D03*
X314733111Y-219750228D03*
X329149779Y-219750228D03*
X333649779Y-219750228D03*
X331399779Y-219750228D03*
X314733111Y-215950228D03*
X312483111Y-215950228D03*
X316983111Y-215950228D03*
D11*
X248066363Y-207450228D03*
X245066363Y-207450228D03*
X251066363Y-207450228D03*
X264733023Y-207450228D03*
X261733023Y-207450228D03*
X267733023Y-207450228D03*
X264733023Y-211250228D03*
X267733023Y-211250228D03*
X261733023Y-211250228D03*
D10*
X281399775Y-207450228D03*
X279149775Y-207450228D03*
X283649775Y-207450228D03*
D11*
X264733023Y-236750228D03*
X267733023Y-236750228D03*
X261733023Y-236750228D03*
X261733023Y-211250228D03*
X267733023Y-211250228D03*
X264733023Y-211250228D03*
D10*
X300316443Y-207450228D03*
X295816443Y-207450228D03*
X298066443Y-207450228D03*
X314733111Y-207450228D03*
X312483111Y-207450228D03*
X316983111Y-207450228D03*
X364731993Y-211250228D03*
X366981993Y-211250228D03*
X362481993Y-211250228D03*
X295816443Y-236750228D03*
X300316443Y-236750228D03*
X298066443Y-236750228D03*
D11*
X195066383Y-211250228D03*
X201066383Y-211250228D03*
X198066383Y-211250228D03*
X184399723Y-207450228D03*
X178399723Y-207450228D03*
X181399723Y-207450228D03*
X248066363Y-228250228D03*
X251066363Y-228250228D03*
X245066363Y-228250228D03*
D10*
X364731993Y-232950228D03*
X362481993Y-232950228D03*
X366981993Y-232950228D03*
X316983111Y-215950228D03*
X312483111Y-215950228D03*
X314733111Y-215950228D03*
X95816427Y-219750228D03*
X100316427Y-219750228D03*
X98066427Y-219750228D03*
X300316443Y-215950228D03*
X295816443Y-215950228D03*
X298066443Y-215950228D03*
D11*
X184399723Y-215950228D03*
X178399723Y-215950228D03*
X181399723Y-215950228D03*
D10*
X314733111Y-236750228D03*
X316983111Y-236750228D03*
X312483111Y-236750228D03*
D11*
X217733043Y-232950228D03*
X211733043Y-232950228D03*
X214733043Y-232950228D03*
D10*
X279149775Y-228250228D03*
X283649775Y-228250228D03*
X281399775Y-228250228D03*
X281399775Y-232950228D03*
X279149775Y-232950228D03*
X283649775Y-232950228D03*
X316983111Y-207450228D03*
X312483111Y-207450228D03*
X314733111Y-207450228D03*
X362481993Y-211250228D03*
X366981993Y-211250228D03*
X364731993Y-211250228D03*
X95816427Y-236750228D03*
X100316427Y-236750228D03*
X98066427Y-236750228D03*
X100316427Y-232950228D03*
X95816427Y-232950228D03*
X98066427Y-232950228D03*
X112483072Y-236750228D03*
X116983072Y-236750228D03*
X114733072Y-236750228D03*
D11*
X195066383Y-236750228D03*
X201066383Y-236750228D03*
X198066383Y-236750228D03*
D10*
X333649779Y-232950228D03*
X329149779Y-232950228D03*
X331399779Y-232950228D03*
X114733072Y-236750228D03*
X116983072Y-236750228D03*
X112483072Y-236750228D03*
X366981993Y-232950228D03*
X362481993Y-232950228D03*
X364731993Y-232950228D03*
X350315393Y-224450228D03*
X345815393Y-224450228D03*
X348065393Y-224450228D03*
X98066427Y-207450228D03*
X95816427Y-207450228D03*
X100316427Y-207450228D03*
D11*
X245066363Y-219750228D03*
X251066363Y-219750228D03*
X248066363Y-219750228D03*
D10*
X95816427Y-211250228D03*
X100316427Y-211250228D03*
X98066427Y-211250228D03*
X331399779Y-236750228D03*
X333649779Y-236750228D03*
X329149779Y-236750228D03*
D11*
X201066383Y-224450228D03*
X195066383Y-224450228D03*
X198066383Y-224450228D03*
D10*
X364731993Y-219750228D03*
X366981993Y-219750228D03*
X362481993Y-219750228D03*
X348065393Y-219750228D03*
X350315393Y-219750228D03*
X345815393Y-219750228D03*
X331399779Y-219750228D03*
X333649779Y-219750228D03*
X329149779Y-219750228D03*
D11*
X264733023Y-219750228D03*
X267733023Y-219750228D03*
X261733023Y-219750228D03*
X231399703Y-224450228D03*
X228399703Y-224450228D03*
X234399703Y-224450228D03*
D10*
X100316427Y-232950228D03*
X95816427Y-232950228D03*
X98066427Y-232950228D03*
D11*
X214733043Y-232950228D03*
X211733043Y-232950228D03*
X217733043Y-232950228D03*
D10*
X95816427Y-211250228D03*
X100316427Y-211250228D03*
X98066427Y-211250228D03*
X100316427Y-207450228D03*
X95816427Y-207450228D03*
X98066427Y-207450228D03*
X283649775Y-207450228D03*
X279149775Y-207450228D03*
X281399775Y-207450228D03*
X345815393Y-228250228D03*
X350315393Y-228250228D03*
X348065393Y-228250228D03*
D11*
X251066363Y-207450228D03*
X245066363Y-207450228D03*
X248066363Y-207450228D03*
D10*
X298066443Y-219750228D03*
X300316443Y-219750228D03*
X295816443Y-219750228D03*
X364731993Y-215950228D03*
X362481993Y-215950228D03*
X366981993Y-215950228D03*
D11*
X181399723Y-224450228D03*
X178399723Y-224450228D03*
X184399723Y-224450228D03*
D10*
X331399779Y-224450228D03*
X329149779Y-224450228D03*
X333649779Y-224450228D03*
X295816443Y-211250228D03*
X300316443Y-211250228D03*
X298066443Y-211250228D03*
X279149775Y-211250228D03*
X283649775Y-211250228D03*
X281399775Y-211250228D03*
X283649775Y-215950228D03*
X279149775Y-215950228D03*
X281399775Y-215950228D03*
D11*
X198066383Y-224450228D03*
X195066383Y-224450228D03*
X201066383Y-224450228D03*
X198066383Y-228250228D03*
X201066383Y-228250228D03*
X195066383Y-228250228D03*
X181399723Y-211200228D03*
X184399723Y-211200228D03*
X178399723Y-211200228D03*
X214733043Y-207450228D03*
X211733043Y-207450228D03*
X217733043Y-207450228D03*
X214733043Y-211250228D03*
X217733043Y-211250228D03*
X211733043Y-211250228D03*
X231399703Y-211250228D03*
X234399703Y-211250228D03*
X228399703Y-211250228D03*
X231399703Y-207450228D03*
X228399703Y-207450228D03*
X234399703Y-207450228D03*
X248066363Y-211250228D03*
X251066363Y-211250228D03*
X245066363Y-211250228D03*
D10*
X348065393Y-211250228D03*
X350315393Y-211250228D03*
X345815393Y-211250228D03*
X116983072Y-215950228D03*
X112483072Y-215950228D03*
X114733072Y-215950228D03*
D11*
X181399723Y-215950228D03*
X178399723Y-215950228D03*
X184399723Y-215950228D03*
D10*
X98066427Y-219750228D03*
X100316427Y-219750228D03*
X95816427Y-219750228D03*
X345815393Y-236750228D03*
X350315393Y-236750228D03*
X348065393Y-236750228D03*
D11*
X231399703Y-215950228D03*
X228399703Y-215950228D03*
X234399703Y-215950228D03*
D10*
X314733111Y-219750228D03*
X316983111Y-219750228D03*
X312483111Y-219750228D03*
D11*
X261733023Y-236750228D03*
X267733023Y-236750228D03*
X264733023Y-236750228D03*
D10*
X314733111Y-224450228D03*
X312483111Y-224450228D03*
X316983111Y-224450228D03*
X364731993Y-228250228D03*
X366981993Y-228250228D03*
X362481993Y-228250228D03*
X98066427Y-236750228D03*
X100316427Y-236750228D03*
X95816427Y-236750228D03*
D11*
X267733023Y-232950228D03*
X261733023Y-232950228D03*
X264733023Y-232950228D03*
D10*
X98066427Y-232950228D03*
X95816427Y-232950228D03*
X100316427Y-232950228D03*
X98066427Y-232950228D03*
X95816427Y-232950228D03*
X100316427Y-232950228D03*
X98066427Y-215950228D03*
X95816427Y-215950228D03*
X100316427Y-215950228D03*
X114733072Y-219750228D03*
X116983072Y-219750228D03*
X112483072Y-219750228D03*
X114733072Y-215950228D03*
X112483072Y-215950228D03*
X116983072Y-215950228D03*
D11*
X198066383Y-215950228D03*
X195066383Y-215950228D03*
X201066383Y-215950228D03*
X198066383Y-219750228D03*
X201066383Y-219750228D03*
X195066383Y-219750228D03*
X248066363Y-215950228D03*
X245066363Y-215950228D03*
X251066363Y-215950228D03*
X264733023Y-215950228D03*
X261733023Y-215950228D03*
X267733023Y-215950228D03*
X181399723Y-219700228D03*
X184399723Y-219700228D03*
X178399723Y-219700228D03*
X214733043Y-215950228D03*
X211733043Y-215950228D03*
X217733043Y-215950228D03*
X214733043Y-219750228D03*
X217733043Y-219750228D03*
X211733043Y-219750228D03*
X231399703Y-219750228D03*
X234399703Y-219750228D03*
X228399703Y-219750228D03*
X178399723Y-236700228D03*
X184399723Y-236700228D03*
X181399723Y-236700228D03*
X214733043Y-224450228D03*
X211733043Y-224450228D03*
X217733043Y-224450228D03*
D10*
X348065393Y-228250228D03*
X350315393Y-228250228D03*
X345815393Y-228250228D03*
D11*
X181399723Y-228200228D03*
X184399723Y-228200228D03*
X178399723Y-228200228D03*
X201066383Y-207450228D03*
X195066383Y-207450228D03*
X198066383Y-207450228D03*
D10*
X345815393Y-219750228D03*
X350315393Y-219750228D03*
X348065393Y-219750228D03*
X329149779Y-236750228D03*
X333649779Y-236750228D03*
X331399779Y-236750228D03*
X98066427Y-228250228D03*
X100316427Y-228250228D03*
X95816427Y-228250228D03*
X316983111Y-232950228D03*
X312483111Y-232950228D03*
X314733111Y-232950228D03*
X348065393Y-215950228D03*
X345815393Y-215950228D03*
X350315393Y-215950228D03*
X114733072Y-207450228D03*
X112483072Y-207450228D03*
X116983072Y-207450228D03*
X348065393Y-207450228D03*
X345815393Y-207450228D03*
X350315393Y-207450228D03*
X298066443Y-236750228D03*
X300316443Y-236750228D03*
X295816443Y-236750228D03*
X98066427Y-211250228D03*
X100316427Y-211250228D03*
X95816427Y-211250228D03*
X98066427Y-207450228D03*
X95816427Y-207450228D03*
X100316427Y-207450228D03*
X114733072Y-211250228D03*
X116983072Y-211250228D03*
X112483072Y-211250228D03*
X316983111Y-224450228D03*
X312483111Y-224450228D03*
X314733111Y-224450228D03*
X362481993Y-228250228D03*
X366981993Y-228250228D03*
X364731993Y-228250228D03*
D11*
X198066383Y-232950228D03*
X195066383Y-232950228D03*
X201066383Y-232950228D03*
X198066383Y-236750228D03*
X201066383Y-236750228D03*
X195066383Y-236750228D03*
D10*
X333649779Y-207450228D03*
X329149779Y-207450228D03*
X331399779Y-207450228D03*
D11*
X178399723Y-211200228D03*
X184399723Y-211200228D03*
X181399723Y-211200228D03*
X217733043Y-207450228D03*
X211733043Y-207450228D03*
X214733043Y-207450228D03*
X211733043Y-211250228D03*
X217733043Y-211250228D03*
X214733043Y-211250228D03*
X228399703Y-211250228D03*
X234399703Y-211250228D03*
X231399703Y-211250228D03*
X234399703Y-207450228D03*
X228399703Y-207450228D03*
X231399703Y-207450228D03*
X245066363Y-211250228D03*
X251066363Y-211250228D03*
X248066363Y-211250228D03*
D10*
X350315393Y-207450228D03*
X345815393Y-207450228D03*
X348065393Y-207450228D03*
X116983072Y-232950228D03*
X112483072Y-232950228D03*
X114733072Y-232950228D03*
X345815393Y-211250228D03*
X350315393Y-211250228D03*
X348065393Y-211250228D03*
D11*
X184399723Y-232950228D03*
X178399723Y-232950228D03*
X181399723Y-232950228D03*
D10*
X298066443Y-224450228D03*
X295816443Y-224450228D03*
X300316443Y-224450228D03*
X362481993Y-236750228D03*
X366981993Y-236750228D03*
X364731993Y-236750228D03*
D11*
X267733023Y-207450228D03*
X261733023Y-207450228D03*
X264733023Y-207450228D03*
D10*
X98066427Y-211250228D03*
X100316427Y-211250228D03*
X95816427Y-211250228D03*
X298066443Y-207450228D03*
X295816443Y-207450228D03*
X300316443Y-207450228D03*
X362481993Y-219750228D03*
X366981993Y-219750228D03*
X364731993Y-219750228D03*
D11*
X178399723Y-219700228D03*
X184399723Y-219700228D03*
X181399723Y-219700228D03*
X251066363Y-232950228D03*
X245066363Y-232950228D03*
X248066363Y-232950228D03*
D10*
X283649775Y-232950228D03*
X279149775Y-232950228D03*
X281399775Y-232950228D03*
D11*
X231399703Y-228250228D03*
X234399703Y-228250228D03*
X228399703Y-228250228D03*
D10*
X279149775Y-236750228D03*
X283649775Y-236750228D03*
X281399775Y-236750228D03*
X100316427Y-224450228D03*
X95816427Y-224450228D03*
X98066427Y-224450228D03*
D11*
X248066363Y-224450228D03*
X245066363Y-224450228D03*
X251066363Y-224450228D03*
X264733023Y-224450228D03*
X261733023Y-224450228D03*
X267733023Y-224450228D03*
X264733023Y-228250228D03*
X267733023Y-228250228D03*
X261733023Y-228250228D03*
D10*
X281399775Y-224450228D03*
X279149775Y-224450228D03*
X283649775Y-224450228D03*
X112483072Y-211250228D03*
X116983072Y-211250228D03*
X114733072Y-211250228D03*
X116983072Y-207450228D03*
X112483072Y-207450228D03*
X114733072Y-207450228D03*
X295816443Y-219750228D03*
X300316443Y-219750228D03*
X298066443Y-219750228D03*
X366981993Y-215950228D03*
X362481993Y-215950228D03*
X364731993Y-215950228D03*
X100316427Y-215950228D03*
X95816427Y-215950228D03*
X98066427Y-215950228D03*
D11*
X234399703Y-215950228D03*
X228399703Y-215950228D03*
X231399703Y-215950228D03*
D10*
X116983072Y-224450228D03*
X112483072Y-224450228D03*
X114733072Y-224450228D03*
X331399779Y-207450228D03*
X329149779Y-207450228D03*
X333649779Y-207450228D03*
X281399775Y-215950228D03*
X279149775Y-215950228D03*
X283649775Y-215950228D03*
X331399779Y-215950228D03*
X329149779Y-215950228D03*
X333649779Y-215950228D03*
X281399775Y-219750228D03*
X283649775Y-219750228D03*
X279149775Y-219750228D03*
X95816427Y-228250228D03*
X100316427Y-228250228D03*
X98066427Y-228250228D03*
X300316443Y-224450228D03*
X295816443Y-224450228D03*
X298066443Y-224450228D03*
X364731993Y-236750228D03*
X366981993Y-236750228D03*
X362481993Y-236750228D03*
X314733111Y-232950228D03*
X312483111Y-232950228D03*
X316983111Y-232950228D03*
D11*
X184399723Y-224450228D03*
X178399723Y-224450228D03*
X181399723Y-224450228D03*
X198066383Y-207450228D03*
X195066383Y-207450228D03*
X201066383Y-207450228D03*
X198066383Y-211250228D03*
X201066383Y-211250228D03*
X195066383Y-211250228D03*
X181399723Y-207450228D03*
X178399723Y-207450228D03*
X184399723Y-207450228D03*
D10*
X364731993Y-207450228D03*
X362481993Y-207450228D03*
X366981993Y-207450228D03*
X314733111Y-211250228D03*
X316983111Y-211250228D03*
X312483111Y-211250228D03*
X331399779Y-211250228D03*
X333649779Y-211250228D03*
X329149779Y-211250228D03*
X298066443Y-211250228D03*
X300316443Y-211250228D03*
X295816443Y-211250228D03*
X281399775Y-211250228D03*
X283649775Y-211250228D03*
X279149775Y-211250228D03*
D11*
X181399723Y-232950228D03*
X178399723Y-232950228D03*
X184399723Y-232950228D03*
D10*
X114733072Y-232950228D03*
X112483072Y-232950228D03*
X116983072Y-232950228D03*
D11*
X248066363Y-232950228D03*
X245066363Y-232950228D03*
X251066363Y-232950228D03*
X264733023Y-232950228D03*
X261733023Y-232950228D03*
X267733023Y-232950228D03*
D10*
X348065393Y-232950228D03*
X345815393Y-232950228D03*
X350315393Y-232950228D03*
X348065393Y-236750228D03*
X350315393Y-236750228D03*
X345815393Y-236750228D03*
X333649779Y-215950228D03*
X329149779Y-215950228D03*
X331399779Y-215950228D03*
D11*
X251066363Y-215950228D03*
X245066363Y-215950228D03*
X248066363Y-215950228D03*
X267733023Y-215950228D03*
X261733023Y-215950228D03*
X264733023Y-215950228D03*
D10*
X95816427Y-219750228D03*
X100316427Y-219750228D03*
X98066427Y-219750228D03*
X100316427Y-215950228D03*
X95816427Y-215950228D03*
X98066427Y-215950228D03*
X112483072Y-219750228D03*
X116983072Y-219750228D03*
X114733072Y-219750228D03*
D11*
X201066383Y-215950228D03*
X195066383Y-215950228D03*
X198066383Y-215950228D03*
X195066383Y-219750228D03*
X201066383Y-219750228D03*
X198066383Y-219750228D03*
X217733043Y-215950228D03*
X211733043Y-215950228D03*
X214733043Y-215950228D03*
X211733043Y-219750228D03*
X217733043Y-219750228D03*
X214733043Y-219750228D03*
X228399703Y-219750228D03*
X234399703Y-219750228D03*
X231399703Y-219750228D03*
D10*
X331399779Y-232950228D03*
X329149779Y-232950228D03*
X333649779Y-232950228D03*
X366981993Y-224450228D03*
X362481993Y-224450228D03*
X364731993Y-224450228D03*
X312483111Y-228250228D03*
X316983111Y-228250228D03*
X314733111Y-228250228D03*
X112483072Y-228250228D03*
X116983072Y-228250228D03*
X114733072Y-228250228D03*
X295816443Y-228250228D03*
X300316443Y-228250228D03*
X298066443Y-228250228D03*
D11*
X181399723Y-236700228D03*
X184399723Y-236700228D03*
X178399723Y-236700228D03*
D10*
X95816427Y-236750228D03*
X100316427Y-236750228D03*
X98066427Y-236750228D03*
X300316443Y-232950228D03*
X295816443Y-232950228D03*
X298066443Y-232950228D03*
D11*
X211733043Y-236750228D03*
X217733043Y-236750228D03*
X214733043Y-236750228D03*
X228399703Y-236750228D03*
X234399703Y-236750228D03*
X231399703Y-236750228D03*
X234399703Y-232950228D03*
X228399703Y-232950228D03*
X231399703Y-232950228D03*
X245066363Y-236750228D03*
X251066363Y-236750228D03*
X248066363Y-236750228D03*
D10*
X114733072Y-228250228D03*
X116983072Y-228250228D03*
X112483072Y-228250228D03*
X98066427Y-228250228D03*
X100316427Y-228250228D03*
X95816427Y-228250228D03*
X98066427Y-224450228D03*
X95816427Y-224450228D03*
X100316427Y-224450228D03*
X350315393Y-232950228D03*
X345815393Y-232950228D03*
X348065393Y-232950228D03*
X281399775Y-228250228D03*
X283649775Y-228250228D03*
X279149775Y-228250228D03*
X98066427Y-224450228D03*
X95816427Y-224450228D03*
X100316427Y-224450228D03*
X364731993Y-224450228D03*
X362481993Y-224450228D03*
X366981993Y-224450228D03*
X314733111Y-228250228D03*
X316983111Y-228250228D03*
X312483111Y-228250228D03*
X331399779Y-228250228D03*
X333649779Y-228250228D03*
X329149779Y-228250228D03*
X298066443Y-228250228D03*
X300316443Y-228250228D03*
X295816443Y-228250228D03*
X114733072Y-224450228D03*
X112483072Y-224450228D03*
X116983072Y-224450228D03*
D11*
X248066363Y-219750228D03*
X251066363Y-219750228D03*
X245066363Y-219750228D03*
D10*
X98066427Y-215950228D03*
X95816427Y-215950228D03*
X100316427Y-215950228D03*
D11*
X195066383Y-228250228D03*
X201066383Y-228250228D03*
X198066383Y-228250228D03*
D10*
X329149779Y-228250228D03*
X333649779Y-228250228D03*
X331399779Y-228250228D03*
X281399775Y-236750228D03*
X283649775Y-236750228D03*
X279149775Y-236750228D03*
X98066427Y-236750228D03*
X100316427Y-236750228D03*
X95816427Y-236750228D03*
X298066443Y-232950228D03*
X295816443Y-232950228D03*
X300316443Y-232950228D03*
D11*
X214733043Y-236750228D03*
X217733043Y-236750228D03*
X211733043Y-236750228D03*
X231399703Y-236750228D03*
X234399703Y-236750228D03*
X228399703Y-236750228D03*
X231399703Y-232950228D03*
X228399703Y-232950228D03*
X234399703Y-232950228D03*
X248066363Y-236750228D03*
X251066363Y-236750228D03*
X245066363Y-236750228D03*
D10*
X98066427Y-219750228D03*
X100316427Y-219750228D03*
X95816427Y-219750228D03*
X298066443Y-215950228D03*
X295816443Y-215950228D03*
X300316443Y-215950228D03*
X366981993Y-207450228D03*
X362481993Y-207450228D03*
X364731993Y-207450228D03*
X312483111Y-211250228D03*
X316983111Y-211250228D03*
X314733111Y-211250228D03*
X329149779Y-211250228D03*
X333649779Y-211250228D03*
X331399779Y-211250228D03*
X348065393Y-224450228D03*
X345815393Y-224450228D03*
X350315393Y-224450228D03*
X312483111Y-236750228D03*
X316983111Y-236750228D03*
X314733111Y-236750228D03*
X279149775Y-219750228D03*
X283649775Y-219750228D03*
X281399775Y-219750228D03*
X350315393Y-181950228D03*
X345815393Y-181950228D03*
X348065393Y-181950228D03*
X116983072Y-173450228D03*
X112483072Y-173450228D03*
X114733072Y-173450228D03*
X350315393Y-173450228D03*
X345815393Y-173450228D03*
X348065393Y-173450228D03*
X295816443Y-202750228D03*
X300316443Y-202750228D03*
X298066443Y-202750228D03*
X95816427Y-177250228D03*
X100316427Y-177250228D03*
X98066427Y-177250228D03*
X100316427Y-173450228D03*
X95816427Y-173450228D03*
X98066427Y-173450228D03*
X112483072Y-177250228D03*
X116983072Y-177250228D03*
X114733072Y-177250228D03*
X314733111Y-190450228D03*
X312483111Y-190450228D03*
X316983111Y-190450228D03*
X364731993Y-194250228D03*
X366981993Y-194250228D03*
X362481993Y-194250228D03*
D11*
X201066383Y-198950228D03*
X195066383Y-198950228D03*
X198066383Y-198950228D03*
X195066383Y-202750228D03*
X201066383Y-202750228D03*
X198066383Y-202750228D03*
D10*
X331399779Y-173450228D03*
X329149779Y-173450228D03*
X333649779Y-173450228D03*
D11*
X181399723Y-177200228D03*
X184399723Y-177200228D03*
X178399723Y-177200228D03*
X214733043Y-173450228D03*
X211733043Y-173450228D03*
X217733043Y-173450228D03*
X214733043Y-177250228D03*
X217733043Y-177250228D03*
X211733043Y-177250228D03*
X231399703Y-177250228D03*
X234399703Y-177250228D03*
X228399703Y-177250228D03*
X231399703Y-173450228D03*
X228399703Y-173450228D03*
X234399703Y-173450228D03*
X248066363Y-177250228D03*
X251066363Y-177250228D03*
X245066363Y-177250228D03*
D10*
X348065393Y-173450228D03*
X345815393Y-173450228D03*
X350315393Y-173450228D03*
X114733072Y-198950228D03*
X112483072Y-198950228D03*
X116983072Y-198950228D03*
X348065393Y-177250228D03*
X350315393Y-177250228D03*
X345815393Y-177250228D03*
D11*
X181399723Y-198950228D03*
X178399723Y-198950228D03*
X184399723Y-198950228D03*
D10*
X300316443Y-190450228D03*
X295816443Y-190450228D03*
X298066443Y-190450228D03*
X364731993Y-202750228D03*
X366981993Y-202750228D03*
X362481993Y-202750228D03*
D11*
X245066363Y-194250228D03*
X251066363Y-194250228D03*
X248066363Y-194250228D03*
D10*
X366981993Y-198950228D03*
X362481993Y-198950228D03*
X364731993Y-198950228D03*
D11*
X181399723Y-181950228D03*
X178399723Y-181950228D03*
X184399723Y-181950228D03*
D10*
X312483111Y-202750228D03*
X316983111Y-202750228D03*
X314733111Y-202750228D03*
D11*
X214733043Y-198950228D03*
X211733043Y-198950228D03*
X217733043Y-198950228D03*
D10*
X281399775Y-194250228D03*
X283649775Y-194250228D03*
X279149775Y-194250228D03*
X283649775Y-198950228D03*
X279149775Y-198950228D03*
X281399775Y-198950228D03*
X314733111Y-173450228D03*
X312483111Y-173450228D03*
X316983111Y-173450228D03*
X364731993Y-177250228D03*
X366981993Y-177250228D03*
X362481993Y-177250228D03*
X98066427Y-202750228D03*
X100316427Y-202750228D03*
X95816427Y-202750228D03*
X98066427Y-198950228D03*
X95816427Y-198950228D03*
X100316427Y-198950228D03*
X114733072Y-202750228D03*
X116983072Y-202750228D03*
X112483072Y-202750228D03*
D11*
X198066383Y-202750228D03*
X201066383Y-202750228D03*
X195066383Y-202750228D03*
D10*
X331399779Y-198950228D03*
X329149779Y-198950228D03*
X333649779Y-198950228D03*
X112483072Y-202750228D03*
X116983072Y-202750228D03*
X114733072Y-202750228D03*
X364731993Y-198950228D03*
X362481993Y-198950228D03*
X366981993Y-198950228D03*
X98066427Y-198950228D03*
X95816427Y-198950228D03*
X100316427Y-198950228D03*
D11*
X198066383Y-194250228D03*
X201066383Y-194250228D03*
X195066383Y-194250228D03*
D10*
X331399779Y-194250228D03*
X333649779Y-194250228D03*
X329149779Y-194250228D03*
X279149775Y-202750228D03*
X283649775Y-202750228D03*
X281399775Y-202750228D03*
X95816427Y-202750228D03*
X100316427Y-202750228D03*
X98066427Y-202750228D03*
X300316443Y-198950228D03*
X295816443Y-198950228D03*
X298066443Y-198950228D03*
D11*
X211733043Y-202750228D03*
X217733043Y-202750228D03*
X214733043Y-202750228D03*
X228399703Y-202750228D03*
X234399703Y-202750228D03*
X231399703Y-202750228D03*
X234399703Y-198950228D03*
X228399703Y-198950228D03*
X231399703Y-198950228D03*
X245066363Y-202750228D03*
X251066363Y-202750228D03*
X248066363Y-202750228D03*
D10*
X95816427Y-185750228D03*
X100316427Y-185750228D03*
X98066427Y-185750228D03*
X300316443Y-181950228D03*
X295816443Y-181950228D03*
X298066443Y-181950228D03*
X364731993Y-173450228D03*
X362481993Y-173450228D03*
X366981993Y-173450228D03*
X314733111Y-177250228D03*
X316983111Y-177250228D03*
X312483111Y-177250228D03*
X331399779Y-177250228D03*
X333649779Y-177250228D03*
X329149779Y-177250228D03*
X314733111Y-185750228D03*
X316983111Y-185750228D03*
X312483111Y-185750228D03*
X331399779Y-185750228D03*
X333649779Y-185750228D03*
X329149779Y-185750228D03*
D11*
X251066363Y-173450228D03*
X245066363Y-173450228D03*
X248066363Y-173450228D03*
X267733023Y-173450228D03*
X261733023Y-173450228D03*
X264733023Y-173450228D03*
X261733023Y-177250228D03*
X267733023Y-177250228D03*
X264733023Y-177250228D03*
D10*
X283649775Y-173450228D03*
X279149775Y-173450228D03*
X281399775Y-173450228D03*
X348065393Y-181950228D03*
X345815393Y-181950228D03*
X350315393Y-181950228D03*
X98066427Y-194250228D03*
X100316427Y-194250228D03*
X95816427Y-194250228D03*
D11*
X248066363Y-190450228D03*
X245066363Y-190450228D03*
X251066363Y-190450228D03*
X264733023Y-190450228D03*
X261733023Y-190450228D03*
X267733023Y-190450228D03*
X264733023Y-194250228D03*
X267733023Y-194250228D03*
X261733023Y-194250228D03*
D10*
X281399775Y-190450228D03*
X279149775Y-190450228D03*
X283649775Y-190450228D03*
X331399779Y-190450228D03*
X329149779Y-190450228D03*
X333649779Y-190450228D03*
D11*
X181399723Y-194200228D03*
X184399723Y-194200228D03*
X178399723Y-194200228D03*
X214733043Y-190450228D03*
X211733043Y-190450228D03*
X217733043Y-190450228D03*
X214733043Y-194250228D03*
X217733043Y-194250228D03*
X211733043Y-194250228D03*
X231399703Y-194250228D03*
X234399703Y-194250228D03*
X228399703Y-194250228D03*
X231399703Y-190450228D03*
X228399703Y-190450228D03*
X234399703Y-190450228D03*
X248066363Y-194250228D03*
X251066363Y-194250228D03*
X245066363Y-194250228D03*
D10*
X348065393Y-194250228D03*
X350315393Y-194250228D03*
X345815393Y-194250228D03*
D11*
X211733043Y-194250228D03*
X217733043Y-194250228D03*
X214733043Y-194250228D03*
X264733023Y-185750228D03*
X267733023Y-185750228D03*
X261733023Y-185750228D03*
X217733043Y-198950228D03*
X211733043Y-198950228D03*
X214733043Y-198950228D03*
D10*
X98066427Y-177250228D03*
X100316427Y-177250228D03*
X95816427Y-177250228D03*
X98066427Y-173450228D03*
X95816427Y-173450228D03*
X100316427Y-173450228D03*
X281399775Y-173450228D03*
X279149775Y-173450228D03*
X283649775Y-173450228D03*
D11*
X198066383Y-177250228D03*
X201066383Y-177250228D03*
X195066383Y-177250228D03*
X181399723Y-173450228D03*
X178399723Y-173450228D03*
X184399723Y-173450228D03*
D10*
X348065393Y-190450228D03*
X345815393Y-190450228D03*
X350315393Y-190450228D03*
X100316427Y-173450228D03*
X95816427Y-173450228D03*
X98066427Y-173450228D03*
D11*
X248066363Y-185750228D03*
X251066363Y-185750228D03*
X245066363Y-185750228D03*
D10*
X98066427Y-177250228D03*
X100316427Y-177250228D03*
X95816427Y-177250228D03*
X329149779Y-202750228D03*
X333649779Y-202750228D03*
X331399779Y-202750228D03*
D11*
X198066383Y-190450228D03*
X195066383Y-190450228D03*
X201066383Y-190450228D03*
D10*
X98066427Y-190450228D03*
X95816427Y-190450228D03*
X100316427Y-190450228D03*
X316983111Y-181950228D03*
X312483111Y-181950228D03*
X314733111Y-181950228D03*
D11*
X261733023Y-202750228D03*
X267733023Y-202750228D03*
X264733023Y-202750228D03*
X264733023Y-177250228D03*
X267733023Y-177250228D03*
X261733023Y-177250228D03*
D10*
X298066443Y-173450228D03*
X295816443Y-173450228D03*
X300316443Y-173450228D03*
X316983111Y-173450228D03*
X312483111Y-173450228D03*
X314733111Y-173450228D03*
X362481993Y-177250228D03*
X366981993Y-177250228D03*
X364731993Y-177250228D03*
X298066443Y-202750228D03*
X300316443Y-202750228D03*
X295816443Y-202750228D03*
X314733111Y-181950228D03*
X312483111Y-181950228D03*
X316983111Y-181950228D03*
X98066427Y-185750228D03*
X100316427Y-185750228D03*
X95816427Y-185750228D03*
X298066443Y-181950228D03*
X295816443Y-181950228D03*
X300316443Y-181950228D03*
X362481993Y-185750228D03*
X366981993Y-185750228D03*
X364731993Y-185750228D03*
D11*
X198066383Y-198950228D03*
X195066383Y-198950228D03*
X201066383Y-198950228D03*
D10*
X98066427Y-173450228D03*
X95816427Y-173450228D03*
X100316427Y-173450228D03*
D11*
X248066363Y-173450228D03*
X245066363Y-173450228D03*
X251066363Y-173450228D03*
X264733023Y-173450228D03*
X261733023Y-173450228D03*
X267733023Y-173450228D03*
D10*
X95816427Y-177250228D03*
X100316427Y-177250228D03*
X98066427Y-177250228D03*
X300316443Y-173450228D03*
X295816443Y-173450228D03*
X298066443Y-173450228D03*
X364731993Y-185750228D03*
X366981993Y-185750228D03*
X362481993Y-185750228D03*
D11*
X181399723Y-185700228D03*
X184399723Y-185700228D03*
X178399723Y-185700228D03*
X248066363Y-198950228D03*
X245066363Y-198950228D03*
X251066363Y-198950228D03*
D10*
X281399775Y-198950228D03*
X279149775Y-198950228D03*
X283649775Y-198950228D03*
D11*
X228399703Y-194250228D03*
X234399703Y-194250228D03*
X231399703Y-194250228D03*
D10*
X281399775Y-202750228D03*
X283649775Y-202750228D03*
X279149775Y-202750228D03*
X98066427Y-190450228D03*
X95816427Y-190450228D03*
X100316427Y-190450228D03*
D11*
X251066363Y-190450228D03*
X245066363Y-190450228D03*
X248066363Y-190450228D03*
X267733023Y-190450228D03*
X261733023Y-190450228D03*
X264733023Y-190450228D03*
X261733023Y-194250228D03*
X267733023Y-194250228D03*
X264733023Y-194250228D03*
D10*
X283649775Y-190450228D03*
X279149775Y-190450228D03*
X281399775Y-190450228D03*
X114733072Y-177250228D03*
X116983072Y-177250228D03*
X112483072Y-177250228D03*
X114733072Y-173450228D03*
X112483072Y-173450228D03*
X116983072Y-173450228D03*
X298066443Y-185750228D03*
X300316443Y-185750228D03*
X295816443Y-185750228D03*
X364731993Y-181950228D03*
X362481993Y-181950228D03*
X366981993Y-181950228D03*
X98066427Y-181950228D03*
X95816427Y-181950228D03*
X100316427Y-181950228D03*
D11*
X231399703Y-181950228D03*
X228399703Y-181950228D03*
X234399703Y-181950228D03*
D10*
X114733072Y-190450228D03*
X112483072Y-190450228D03*
X116983072Y-190450228D03*
X333649779Y-173450228D03*
X329149779Y-173450228D03*
X331399779Y-173450228D03*
D11*
X178399723Y-177200228D03*
X184399723Y-177200228D03*
X181399723Y-177200228D03*
X217733043Y-173450228D03*
X211733043Y-173450228D03*
X214733043Y-173450228D03*
X211733043Y-177250228D03*
X217733043Y-177250228D03*
X214733043Y-177250228D03*
X228399703Y-177250228D03*
X234399703Y-177250228D03*
X231399703Y-177250228D03*
X234399703Y-173450228D03*
X228399703Y-173450228D03*
X231399703Y-173450228D03*
X245066363Y-177250228D03*
X251066363Y-177250228D03*
X248066363Y-177250228D03*
D10*
X345815393Y-177250228D03*
X350315393Y-177250228D03*
X348065393Y-177250228D03*
X114733072Y-181950228D03*
X112483072Y-181950228D03*
X116983072Y-181950228D03*
D11*
X248066363Y-181950228D03*
X245066363Y-181950228D03*
X251066363Y-181950228D03*
X264733023Y-181950228D03*
X261733023Y-181950228D03*
X267733023Y-181950228D03*
D10*
X98066427Y-185750228D03*
X100316427Y-185750228D03*
X95816427Y-185750228D03*
X98066427Y-181950228D03*
X95816427Y-181950228D03*
X100316427Y-181950228D03*
X114733072Y-185750228D03*
X116983072Y-185750228D03*
X112483072Y-185750228D03*
D11*
X198066383Y-181950228D03*
X195066383Y-181950228D03*
X201066383Y-181950228D03*
X198066383Y-185750228D03*
X201066383Y-185750228D03*
X195066383Y-185750228D03*
X214733043Y-181950228D03*
X211733043Y-181950228D03*
X217733043Y-181950228D03*
X214733043Y-185750228D03*
X217733043Y-185750228D03*
X211733043Y-185750228D03*
X231399703Y-185750228D03*
X234399703Y-185750228D03*
X228399703Y-185750228D03*
D10*
X333649779Y-198950228D03*
X329149779Y-198950228D03*
X331399779Y-198950228D03*
X364731993Y-190450228D03*
X362481993Y-190450228D03*
X366981993Y-190450228D03*
X314733111Y-194250228D03*
X316983111Y-194250228D03*
X312483111Y-194250228D03*
X114733072Y-194250228D03*
X116983072Y-194250228D03*
X112483072Y-194250228D03*
X298066443Y-194250228D03*
X300316443Y-194250228D03*
X295816443Y-194250228D03*
D11*
X178399723Y-202700228D03*
X184399723Y-202700228D03*
X181399723Y-202700228D03*
D10*
X98066427Y-202750228D03*
X100316427Y-202750228D03*
X95816427Y-202750228D03*
X298066443Y-198950228D03*
X295816443Y-198950228D03*
X300316443Y-198950228D03*
D11*
X214733043Y-202750228D03*
X217733043Y-202750228D03*
X211733043Y-202750228D03*
X231399703Y-202750228D03*
X234399703Y-202750228D03*
X228399703Y-202750228D03*
X231399703Y-198950228D03*
X228399703Y-198950228D03*
X234399703Y-198950228D03*
X248066363Y-202750228D03*
X251066363Y-202750228D03*
X245066363Y-202750228D03*
D10*
X112483072Y-194250228D03*
X116983072Y-194250228D03*
X114733072Y-194250228D03*
X95816427Y-194250228D03*
X100316427Y-194250228D03*
X98066427Y-194250228D03*
X100316427Y-190450228D03*
X95816427Y-190450228D03*
X98066427Y-190450228D03*
X348065393Y-198950228D03*
X345815393Y-198950228D03*
X350315393Y-198950228D03*
X279149775Y-194250228D03*
X283649775Y-194250228D03*
X281399775Y-194250228D03*
X100316427Y-190450228D03*
X95816427Y-190450228D03*
X98066427Y-190450228D03*
X366981993Y-190450228D03*
X362481993Y-190450228D03*
X364731993Y-190450228D03*
X312483111Y-194250228D03*
X316983111Y-194250228D03*
X314733111Y-194250228D03*
X329149779Y-194250228D03*
X333649779Y-194250228D03*
X331399779Y-194250228D03*
X295816443Y-194250228D03*
X300316443Y-194250228D03*
X298066443Y-194250228D03*
X116983072Y-190450228D03*
X112483072Y-190450228D03*
X114733072Y-190450228D03*
X350315393Y-190450228D03*
X345815393Y-190450228D03*
X348065393Y-190450228D03*
D11*
X201066383Y-190450228D03*
X195066383Y-190450228D03*
X198066383Y-190450228D03*
X195066383Y-194250228D03*
X201066383Y-194250228D03*
X198066383Y-194250228D03*
X184399723Y-190450228D03*
X178399723Y-190450228D03*
X181399723Y-190450228D03*
D10*
X333649779Y-190450228D03*
X329149779Y-190450228D03*
X331399779Y-190450228D03*
X298066443Y-177250228D03*
X300316443Y-177250228D03*
X295816443Y-177250228D03*
X281399775Y-177250228D03*
X283649775Y-177250228D03*
X279149775Y-177250228D03*
X345815393Y-194250228D03*
X350315393Y-194250228D03*
X348065393Y-194250228D03*
D11*
X217733043Y-190450228D03*
X211733043Y-190450228D03*
X214733043Y-190450228D03*
X178399723Y-194200228D03*
X184399723Y-194200228D03*
X181399723Y-194200228D03*
X198066383Y-173450228D03*
X195066383Y-173450228D03*
X201066383Y-173450228D03*
D10*
X331399779Y-202750228D03*
X333649779Y-202750228D03*
X329149779Y-202750228D03*
X95816427Y-194250228D03*
X100316427Y-194250228D03*
X98066427Y-194250228D03*
X314733111Y-198950228D03*
X312483111Y-198950228D03*
X316983111Y-198950228D03*
X316983111Y-190450228D03*
X312483111Y-190450228D03*
X314733111Y-190450228D03*
X362481993Y-194250228D03*
X366981993Y-194250228D03*
X364731993Y-194250228D03*
X95816427Y-202750228D03*
X100316427Y-202750228D03*
X98066427Y-202750228D03*
D11*
X264733023Y-198950228D03*
X261733023Y-198950228D03*
X267733023Y-198950228D03*
D10*
X100316427Y-198950228D03*
X95816427Y-198950228D03*
X98066427Y-198950228D03*
X100316427Y-198950228D03*
X95816427Y-198950228D03*
X98066427Y-198950228D03*
X100316427Y-181950228D03*
X95816427Y-181950228D03*
X98066427Y-181950228D03*
X112483072Y-185750228D03*
X116983072Y-185750228D03*
X114733072Y-185750228D03*
D11*
X201066383Y-181950228D03*
X195066383Y-181950228D03*
X198066383Y-181950228D03*
X195066383Y-185750228D03*
X201066383Y-185750228D03*
X198066383Y-185750228D03*
X261733023Y-185750228D03*
X267733023Y-185750228D03*
X264733023Y-185750228D03*
D10*
X312483111Y-185750228D03*
X316983111Y-185750228D03*
X314733111Y-185750228D03*
X329149779Y-185750228D03*
X333649779Y-185750228D03*
X331399779Y-185750228D03*
X345815393Y-185750228D03*
X350315393Y-185750228D03*
X348065393Y-185750228D03*
D11*
X184399723Y-181950228D03*
X178399723Y-181950228D03*
X181399723Y-181950228D03*
D10*
X116983072Y-181950228D03*
X112483072Y-181950228D03*
X114733072Y-181950228D03*
D11*
X251066363Y-181950228D03*
X245066363Y-181950228D03*
X248066363Y-181950228D03*
X267733023Y-181950228D03*
X261733023Y-181950228D03*
X264733023Y-181950228D03*
D10*
X283649775Y-181950228D03*
X279149775Y-181950228D03*
X281399775Y-181950228D03*
X333649779Y-181950228D03*
X329149779Y-181950228D03*
X331399779Y-181950228D03*
X279149775Y-185750228D03*
X283649775Y-185750228D03*
X281399775Y-185750228D03*
X98066427Y-194250228D03*
X100316427Y-194250228D03*
X95816427Y-194250228D03*
X298066443Y-190450228D03*
X295816443Y-190450228D03*
X300316443Y-190450228D03*
X362481993Y-202750228D03*
X366981993Y-202750228D03*
X364731993Y-202750228D03*
X316983111Y-198950228D03*
X312483111Y-198950228D03*
X314733111Y-198950228D03*
D11*
X181399723Y-190450228D03*
X178399723Y-190450228D03*
X184399723Y-190450228D03*
X201066383Y-173450228D03*
X195066383Y-173450228D03*
X198066383Y-173450228D03*
X195066383Y-177250228D03*
X201066383Y-177250228D03*
X198066383Y-177250228D03*
X184399723Y-173450228D03*
X178399723Y-173450228D03*
X181399723Y-173450228D03*
D10*
X366981993Y-173450228D03*
X362481993Y-173450228D03*
X364731993Y-173450228D03*
X312483111Y-177250228D03*
X316983111Y-177250228D03*
X314733111Y-177250228D03*
X329149779Y-177250228D03*
X333649779Y-177250228D03*
X331399779Y-177250228D03*
X295816443Y-177250228D03*
X300316443Y-177250228D03*
X298066443Y-177250228D03*
X279149775Y-177250228D03*
X283649775Y-177250228D03*
X281399775Y-177250228D03*
D11*
X184399723Y-198950228D03*
X178399723Y-198950228D03*
X181399723Y-198950228D03*
D10*
X116983072Y-198950228D03*
X112483072Y-198950228D03*
X114733072Y-198950228D03*
D11*
X251066363Y-198950228D03*
X245066363Y-198950228D03*
X248066363Y-198950228D03*
X267733023Y-198950228D03*
X261733023Y-198950228D03*
X264733023Y-198950228D03*
D10*
X350315393Y-198950228D03*
X345815393Y-198950228D03*
X348065393Y-198950228D03*
X345815393Y-202750228D03*
X350315393Y-202750228D03*
X348065393Y-202750228D03*
X331399779Y-181950228D03*
X329149779Y-181950228D03*
X333649779Y-181950228D03*
X281399775Y-185750228D03*
X283649775Y-185750228D03*
X279149775Y-185750228D03*
X281399775Y-181950228D03*
X279149775Y-181950228D03*
X283649775Y-181950228D03*
X348065393Y-185750228D03*
X350315393Y-185750228D03*
X345815393Y-185750228D03*
D11*
X234399703Y-190450228D03*
X228399703Y-190450228D03*
X231399703Y-190450228D03*
X264733023Y-202750228D03*
X267733023Y-202750228D03*
X261733023Y-202750228D03*
D10*
X314733111Y-202750228D03*
X316983111Y-202750228D03*
X312483111Y-202750228D03*
X348065393Y-202750228D03*
X350315393Y-202750228D03*
X345815393Y-202750228D03*
D11*
X181399723Y-202700228D03*
X184399723Y-202700228D03*
X178399723Y-202700228D03*
X178399723Y-185700228D03*
X184399723Y-185700228D03*
X181399723Y-185700228D03*
X217733043Y-181950228D03*
X211733043Y-181950228D03*
X214733043Y-181950228D03*
X211733043Y-185750228D03*
X217733043Y-185750228D03*
X214733043Y-185750228D03*
X228399703Y-185750228D03*
X234399703Y-185750228D03*
X231399703Y-185750228D03*
X234399703Y-181950228D03*
X228399703Y-181950228D03*
X231399703Y-181950228D03*
X245066363Y-185750228D03*
X251066363Y-185750228D03*
X248066363Y-185750228D03*
D10*
X295816443Y-185750228D03*
X300316443Y-185750228D03*
X298066443Y-185750228D03*
X366981993Y-181950228D03*
X362481993Y-181950228D03*
X364731993Y-181950228D03*
X100316427Y-181950228D03*
X95816427Y-181950228D03*
X98066427Y-181950228D03*
X95816427Y-185750228D03*
X100316427Y-185750228D03*
X98066427Y-185750228D03*
X316983111Y-147950228D03*
X312483111Y-147950228D03*
X314733111Y-147950228D03*
X95816427Y-151750228D03*
X100316427Y-151750228D03*
X98066427Y-151750228D03*
X300316443Y-147950228D03*
X295816443Y-147950228D03*
X298066443Y-147950228D03*
D11*
X195066383Y-160250228D03*
X201066383Y-160250228D03*
X198066383Y-160250228D03*
D10*
X329149779Y-160250228D03*
X333649779Y-160250228D03*
X331399779Y-160250228D03*
X281399775Y-168750228D03*
X283649775Y-168750228D03*
X279149775Y-168750228D03*
X95816427Y-160250228D03*
X100316427Y-160250228D03*
X98066427Y-160250228D03*
D11*
X251066363Y-156450228D03*
X245066363Y-156450228D03*
X248066363Y-156450228D03*
X267733023Y-156450228D03*
X261733023Y-156450228D03*
X264733023Y-156450228D03*
X261733023Y-160250228D03*
X267733023Y-160250228D03*
X264733023Y-160250228D03*
D10*
X283649775Y-156450228D03*
X279149775Y-156450228D03*
X281399775Y-156450228D03*
X333649779Y-156450228D03*
X329149779Y-156450228D03*
X331399779Y-156450228D03*
D11*
X178399723Y-160200228D03*
X184399723Y-160200228D03*
X181399723Y-160200228D03*
X217733043Y-156450228D03*
X211733043Y-156450228D03*
X214733043Y-156450228D03*
X211733043Y-160250228D03*
X217733043Y-160250228D03*
X214733043Y-160250228D03*
X228399703Y-160250228D03*
X234399703Y-160250228D03*
X231399703Y-160250228D03*
X234399703Y-156450228D03*
X228399703Y-156450228D03*
X231399703Y-156450228D03*
X245066363Y-160250228D03*
X251066363Y-160250228D03*
X248066363Y-160250228D03*
D10*
X345815393Y-160250228D03*
X350315393Y-160250228D03*
X348065393Y-160250228D03*
X350315393Y-156450228D03*
X345815393Y-156450228D03*
X348065393Y-156450228D03*
D11*
X201066383Y-156450228D03*
X195066383Y-156450228D03*
X198066383Y-156450228D03*
X248066363Y-139450228D03*
X245066363Y-139450228D03*
X251066363Y-139450228D03*
X264733023Y-139450228D03*
X261733023Y-139450228D03*
X267733023Y-139450228D03*
X264733023Y-143250228D03*
X267733023Y-143250228D03*
X261733023Y-143250228D03*
D10*
X281399775Y-139450228D03*
X279149775Y-139450228D03*
X283649775Y-139450228D03*
X350315393Y-147950228D03*
X345815393Y-147950228D03*
X348065393Y-147950228D03*
X98066427Y-168750228D03*
X100316427Y-168750228D03*
X95816427Y-168750228D03*
X298066443Y-164950228D03*
X295816443Y-164950228D03*
X300316443Y-164950228D03*
D11*
X214733043Y-168750228D03*
X217733043Y-168750228D03*
X211733043Y-168750228D03*
X231399703Y-168750228D03*
X234399703Y-168750228D03*
X228399703Y-168750228D03*
X231399703Y-164950228D03*
X228399703Y-164950228D03*
X234399703Y-164950228D03*
X248066363Y-168750228D03*
X251066363Y-168750228D03*
X245066363Y-168750228D03*
D10*
X98066427Y-151750228D03*
X100316427Y-151750228D03*
X95816427Y-151750228D03*
X298066443Y-147950228D03*
X295816443Y-147950228D03*
X300316443Y-147950228D03*
D11*
X217733043Y-164950228D03*
X211733043Y-164950228D03*
X214733043Y-164950228D03*
D10*
X279149775Y-160250228D03*
X283649775Y-160250228D03*
X281399775Y-160250228D03*
X281399775Y-164950228D03*
X279149775Y-164950228D03*
X283649775Y-164950228D03*
X316983111Y-139450228D03*
X312483111Y-139450228D03*
X314733111Y-139450228D03*
X362481993Y-143250228D03*
X366981993Y-143250228D03*
X364731993Y-143250228D03*
X100316427Y-156450228D03*
X95816427Y-156450228D03*
X98066427Y-156450228D03*
D11*
X245066363Y-151750228D03*
X251066363Y-151750228D03*
X248066363Y-151750228D03*
D10*
X95816427Y-143250228D03*
X100316427Y-143250228D03*
X98066427Y-143250228D03*
X300316443Y-139450228D03*
X295816443Y-139450228D03*
X298066443Y-139450228D03*
X364731993Y-151750228D03*
X366981993Y-151750228D03*
X362481993Y-151750228D03*
X314733111Y-147950228D03*
X312483111Y-147950228D03*
X316983111Y-147950228D03*
X348065393Y-147950228D03*
X345815393Y-147950228D03*
X350315393Y-147950228D03*
X114733072Y-139450228D03*
X112483072Y-139450228D03*
X116983072Y-139450228D03*
X348065393Y-139450228D03*
X345815393Y-139450228D03*
X350315393Y-139450228D03*
X298066443Y-168750228D03*
X300316443Y-168750228D03*
X295816443Y-168750228D03*
X98066427Y-143250228D03*
X100316427Y-143250228D03*
X95816427Y-143250228D03*
X98066427Y-139450228D03*
X95816427Y-139450228D03*
X100316427Y-139450228D03*
X114733072Y-143250228D03*
X116983072Y-143250228D03*
X112483072Y-143250228D03*
X316983111Y-156450228D03*
X312483111Y-156450228D03*
X314733111Y-156450228D03*
X362481993Y-160250228D03*
X366981993Y-160250228D03*
X364731993Y-160250228D03*
D11*
X198066383Y-164950228D03*
X195066383Y-164950228D03*
X201066383Y-164950228D03*
X198066383Y-168750228D03*
X201066383Y-168750228D03*
X195066383Y-168750228D03*
X264733023Y-168750228D03*
X267733023Y-168750228D03*
X261733023Y-168750228D03*
D10*
X314733111Y-168750228D03*
X316983111Y-168750228D03*
X312483111Y-168750228D03*
X331399779Y-168750228D03*
X333649779Y-168750228D03*
X329149779Y-168750228D03*
X98066427Y-139450228D03*
X95816427Y-139450228D03*
X100316427Y-139450228D03*
X100316427Y-156450228D03*
X95816427Y-156450228D03*
X98066427Y-156450228D03*
D11*
X214733043Y-164950228D03*
X211733043Y-164950228D03*
X217733043Y-164950228D03*
D10*
X314733111Y-139450228D03*
X312483111Y-139450228D03*
X316983111Y-139450228D03*
X364731993Y-143250228D03*
X366981993Y-143250228D03*
X362481993Y-143250228D03*
X98066427Y-143250228D03*
X100316427Y-143250228D03*
X95816427Y-143250228D03*
X298066443Y-139450228D03*
X295816443Y-139450228D03*
X300316443Y-139450228D03*
X362481993Y-151750228D03*
X366981993Y-151750228D03*
X364731993Y-151750228D03*
D11*
X178399723Y-151700228D03*
X184399723Y-151700228D03*
X181399723Y-151700228D03*
X217733043Y-147950228D03*
X211733043Y-147950228D03*
X214733043Y-147950228D03*
X211733043Y-151750228D03*
X217733043Y-151750228D03*
X214733043Y-151750228D03*
X228399703Y-151750228D03*
X234399703Y-151750228D03*
X231399703Y-151750228D03*
D10*
X331399779Y-164950228D03*
X329149779Y-164950228D03*
X333649779Y-164950228D03*
X366981993Y-156450228D03*
X362481993Y-156450228D03*
X364731993Y-156450228D03*
X312483111Y-160250228D03*
X316983111Y-160250228D03*
X314733111Y-160250228D03*
X112483072Y-160250228D03*
X116983072Y-160250228D03*
X114733072Y-160250228D03*
X295816443Y-160250228D03*
X300316443Y-160250228D03*
X298066443Y-160250228D03*
D11*
X234399703Y-147950228D03*
X228399703Y-147950228D03*
X231399703Y-147950228D03*
D10*
X116983072Y-156450228D03*
X112483072Y-156450228D03*
X114733072Y-156450228D03*
X331399779Y-139450228D03*
X329149779Y-139450228D03*
X333649779Y-139450228D03*
D11*
X181399723Y-143200228D03*
X184399723Y-143200228D03*
X178399723Y-143200228D03*
X214733043Y-139450228D03*
X211733043Y-139450228D03*
X217733043Y-139450228D03*
X214733043Y-143250228D03*
X217733043Y-143250228D03*
X211733043Y-143250228D03*
X231399703Y-143250228D03*
X234399703Y-143250228D03*
X228399703Y-143250228D03*
X231399703Y-139450228D03*
X228399703Y-139450228D03*
X234399703Y-139450228D03*
X248066363Y-143250228D03*
X251066363Y-143250228D03*
X245066363Y-143250228D03*
D10*
X348065393Y-143250228D03*
X350315393Y-143250228D03*
X345815393Y-143250228D03*
X116983072Y-147950228D03*
X112483072Y-147950228D03*
X114733072Y-147950228D03*
D11*
X251066363Y-147950228D03*
X245066363Y-147950228D03*
X248066363Y-147950228D03*
X267733023Y-147950228D03*
X261733023Y-147950228D03*
X264733023Y-147950228D03*
X184399723Y-147950228D03*
X178399723Y-147950228D03*
X181399723Y-147950228D03*
D10*
X295816443Y-151750228D03*
X300316443Y-151750228D03*
X298066443Y-151750228D03*
X366981993Y-147950228D03*
X362481993Y-147950228D03*
X364731993Y-147950228D03*
X100316427Y-147950228D03*
X95816427Y-147950228D03*
X98066427Y-147950228D03*
X95816427Y-151750228D03*
X100316427Y-151750228D03*
X98066427Y-151750228D03*
X100316427Y-147950228D03*
X95816427Y-147950228D03*
X98066427Y-147950228D03*
X112483072Y-151750228D03*
X116983072Y-151750228D03*
X114733072Y-151750228D03*
D11*
X201066383Y-147950228D03*
X195066383Y-147950228D03*
X198066383Y-147950228D03*
X195066383Y-151750228D03*
X201066383Y-151750228D03*
X198066383Y-151750228D03*
X261733023Y-151750228D03*
X267733023Y-151750228D03*
X264733023Y-151750228D03*
D10*
X312483111Y-151750228D03*
X316983111Y-151750228D03*
X314733111Y-151750228D03*
X329149779Y-151750228D03*
X333649779Y-151750228D03*
X331399779Y-151750228D03*
X345815393Y-151750228D03*
X350315393Y-151750228D03*
X348065393Y-151750228D03*
D11*
X181399723Y-168700228D03*
X184399723Y-168700228D03*
X178399723Y-168700228D03*
D10*
X95816427Y-168750228D03*
X100316427Y-168750228D03*
X98066427Y-168750228D03*
X300316443Y-164950228D03*
X295816443Y-164950228D03*
X298066443Y-164950228D03*
D11*
X211733043Y-168750228D03*
X217733043Y-168750228D03*
X214733043Y-168750228D03*
X228399703Y-168750228D03*
X234399703Y-168750228D03*
X231399703Y-168750228D03*
X234399703Y-164950228D03*
X228399703Y-164950228D03*
X231399703Y-164950228D03*
X245066363Y-168750228D03*
X251066363Y-168750228D03*
X248066363Y-168750228D03*
X178399723Y-168700228D03*
X184399723Y-168700228D03*
X181399723Y-168700228D03*
X181399723Y-151700228D03*
X184399723Y-151700228D03*
X178399723Y-151700228D03*
X214733043Y-147950228D03*
X211733043Y-147950228D03*
X217733043Y-147950228D03*
X214733043Y-151750228D03*
X217733043Y-151750228D03*
X211733043Y-151750228D03*
X231399703Y-151750228D03*
X234399703Y-151750228D03*
X228399703Y-151750228D03*
X231399703Y-147950228D03*
X228399703Y-147950228D03*
X234399703Y-147950228D03*
X248066363Y-151750228D03*
X251066363Y-151750228D03*
X245066363Y-151750228D03*
D10*
X298066443Y-151750228D03*
X300316443Y-151750228D03*
X295816443Y-151750228D03*
X364731993Y-147950228D03*
X362481993Y-147950228D03*
X366981993Y-147950228D03*
X98066427Y-147950228D03*
X95816427Y-147950228D03*
X100316427Y-147950228D03*
X98066427Y-151750228D03*
X100316427Y-151750228D03*
X95816427Y-151750228D03*
X98066427Y-147950228D03*
X95816427Y-147950228D03*
X100316427Y-147950228D03*
X114733072Y-151750228D03*
X116983072Y-151750228D03*
X112483072Y-151750228D03*
D11*
X198066383Y-147950228D03*
X195066383Y-147950228D03*
X201066383Y-147950228D03*
X198066383Y-151750228D03*
X201066383Y-151750228D03*
X195066383Y-151750228D03*
X264733023Y-151750228D03*
X267733023Y-151750228D03*
X261733023Y-151750228D03*
D10*
X314733111Y-151750228D03*
X316983111Y-151750228D03*
X312483111Y-151750228D03*
X331399779Y-151750228D03*
X333649779Y-151750228D03*
X329149779Y-151750228D03*
X348065393Y-151750228D03*
X350315393Y-151750228D03*
X345815393Y-151750228D03*
D11*
X181399723Y-147950228D03*
X178399723Y-147950228D03*
X184399723Y-147950228D03*
D10*
X114733072Y-147950228D03*
X112483072Y-147950228D03*
X116983072Y-147950228D03*
D11*
X248066363Y-147950228D03*
X245066363Y-147950228D03*
X251066363Y-147950228D03*
X264733023Y-147950228D03*
X261733023Y-147950228D03*
X267733023Y-147950228D03*
D10*
X281399775Y-147950228D03*
X279149775Y-147950228D03*
X283649775Y-147950228D03*
X331399779Y-147950228D03*
X329149779Y-147950228D03*
X333649779Y-147950228D03*
X281399775Y-151750228D03*
X283649775Y-151750228D03*
X279149775Y-151750228D03*
X95816427Y-160250228D03*
X100316427Y-160250228D03*
X98066427Y-160250228D03*
X300316443Y-156450228D03*
X295816443Y-156450228D03*
X298066443Y-156450228D03*
X364731993Y-168750228D03*
X366981993Y-168750228D03*
X362481993Y-168750228D03*
X314733111Y-164950228D03*
X312483111Y-164950228D03*
X316983111Y-164950228D03*
D11*
X184399723Y-156450228D03*
X178399723Y-156450228D03*
X181399723Y-156450228D03*
D10*
X364731993Y-164950228D03*
X362481993Y-164950228D03*
X366981993Y-164950228D03*
X98066427Y-164950228D03*
X95816427Y-164950228D03*
X100316427Y-164950228D03*
X98066427Y-168750228D03*
X100316427Y-168750228D03*
X95816427Y-168750228D03*
X98066427Y-164950228D03*
X95816427Y-164950228D03*
X100316427Y-164950228D03*
X114733072Y-168750228D03*
X116983072Y-168750228D03*
X112483072Y-168750228D03*
D11*
X198066383Y-139450228D03*
X195066383Y-139450228D03*
X201066383Y-139450228D03*
X198066383Y-143250228D03*
X201066383Y-143250228D03*
X195066383Y-143250228D03*
X181399723Y-139450228D03*
X178399723Y-139450228D03*
X184399723Y-139450228D03*
D10*
X364731993Y-139450228D03*
X362481993Y-139450228D03*
X366981993Y-139450228D03*
X314733111Y-143250228D03*
X316983111Y-143250228D03*
X312483111Y-143250228D03*
X331399779Y-143250228D03*
X333649779Y-143250228D03*
X329149779Y-143250228D03*
X298066443Y-143250228D03*
X300316443Y-143250228D03*
X295816443Y-143250228D03*
X281399775Y-143250228D03*
X283649775Y-143250228D03*
X279149775Y-143250228D03*
D11*
X181399723Y-164950228D03*
X178399723Y-164950228D03*
X184399723Y-164950228D03*
D10*
X114733072Y-164950228D03*
X112483072Y-164950228D03*
X116983072Y-164950228D03*
D11*
X248066363Y-164950228D03*
X245066363Y-164950228D03*
X251066363Y-164950228D03*
X264733023Y-164950228D03*
X261733023Y-164950228D03*
X267733023Y-164950228D03*
D10*
X348065393Y-164950228D03*
X345815393Y-164950228D03*
X350315393Y-164950228D03*
X348065393Y-168750228D03*
X350315393Y-168750228D03*
X345815393Y-168750228D03*
X333649779Y-147950228D03*
X329149779Y-147950228D03*
X331399779Y-147950228D03*
X279149775Y-151750228D03*
X283649775Y-151750228D03*
X281399775Y-151750228D03*
X283649775Y-147950228D03*
X279149775Y-147950228D03*
X281399775Y-147950228D03*
D11*
X251066363Y-139450228D03*
X245066363Y-139450228D03*
X248066363Y-139450228D03*
X267733023Y-139450228D03*
X261733023Y-139450228D03*
X264733023Y-139450228D03*
X261733023Y-143250228D03*
X267733023Y-143250228D03*
X264733023Y-143250228D03*
D10*
X283649775Y-139450228D03*
X279149775Y-139450228D03*
X281399775Y-139450228D03*
X333649779Y-139450228D03*
X329149779Y-139450228D03*
X331399779Y-139450228D03*
D11*
X178399723Y-143200228D03*
X184399723Y-143200228D03*
X181399723Y-143200228D03*
X217733043Y-139450228D03*
X211733043Y-139450228D03*
X214733043Y-139450228D03*
X211733043Y-143250228D03*
X217733043Y-143250228D03*
X214733043Y-143250228D03*
X228399703Y-143250228D03*
X234399703Y-143250228D03*
X231399703Y-143250228D03*
X234399703Y-139450228D03*
X228399703Y-139450228D03*
X231399703Y-139450228D03*
X245066363Y-143250228D03*
X251066363Y-143250228D03*
X248066363Y-143250228D03*
D10*
X345815393Y-143250228D03*
X350315393Y-143250228D03*
X348065393Y-143250228D03*
X350315393Y-139450228D03*
X345815393Y-139450228D03*
X348065393Y-139450228D03*
D11*
X201066383Y-139450228D03*
X195066383Y-139450228D03*
X198066383Y-139450228D03*
X195066383Y-143250228D03*
X201066383Y-143250228D03*
X198066383Y-143250228D03*
X184399723Y-139450228D03*
X178399723Y-139450228D03*
X181399723Y-139450228D03*
D10*
X366981993Y-139450228D03*
X362481993Y-139450228D03*
X364731993Y-139450228D03*
X312483111Y-143250228D03*
X316983111Y-143250228D03*
X314733111Y-143250228D03*
X329149779Y-143250228D03*
X333649779Y-143250228D03*
X331399779Y-143250228D03*
X295816443Y-143250228D03*
X300316443Y-143250228D03*
X298066443Y-143250228D03*
X279149775Y-143250228D03*
X283649775Y-143250228D03*
X281399775Y-143250228D03*
X100316427Y-139450228D03*
X95816427Y-139450228D03*
X98066427Y-139450228D03*
X95816427Y-143250228D03*
X100316427Y-143250228D03*
X98066427Y-143250228D03*
X100316427Y-139450228D03*
X95816427Y-139450228D03*
X98066427Y-139450228D03*
X112483072Y-143250228D03*
X116983072Y-143250228D03*
X114733072Y-143250228D03*
X116983072Y-139450228D03*
X112483072Y-139450228D03*
X114733072Y-139450228D03*
X98066427Y-160250228D03*
X100316427Y-160250228D03*
X95816427Y-160250228D03*
X298066443Y-156450228D03*
X295816443Y-156450228D03*
X300316443Y-156450228D03*
X362481993Y-168750228D03*
X366981993Y-168750228D03*
X364731993Y-168750228D03*
X316983111Y-164950228D03*
X312483111Y-164950228D03*
X314733111Y-164950228D03*
X295816443Y-168750228D03*
X300316443Y-168750228D03*
X298066443Y-168750228D03*
X314733111Y-156450228D03*
X312483111Y-156450228D03*
X316983111Y-156450228D03*
X364731993Y-160250228D03*
X366981993Y-160250228D03*
X362481993Y-160250228D03*
X350315393Y-164950228D03*
X345815393Y-164950228D03*
X348065393Y-164950228D03*
X366981993Y-164950228D03*
X362481993Y-164950228D03*
X364731993Y-164950228D03*
X100316427Y-164950228D03*
X95816427Y-164950228D03*
X98066427Y-164950228D03*
X95816427Y-168750228D03*
X100316427Y-168750228D03*
X98066427Y-168750228D03*
X100316427Y-164950228D03*
X95816427Y-164950228D03*
X98066427Y-164950228D03*
X112483072Y-168750228D03*
X116983072Y-168750228D03*
X114733072Y-168750228D03*
D11*
X201066383Y-164950228D03*
X195066383Y-164950228D03*
X198066383Y-164950228D03*
X195066383Y-168750228D03*
X201066383Y-168750228D03*
X198066383Y-168750228D03*
X261733023Y-168750228D03*
X267733023Y-168750228D03*
X264733023Y-168750228D03*
D10*
X312483111Y-168750228D03*
X316983111Y-168750228D03*
X314733111Y-168750228D03*
X329149779Y-168750228D03*
X333649779Y-168750228D03*
X331399779Y-168750228D03*
X345815393Y-168750228D03*
X350315393Y-168750228D03*
X348065393Y-168750228D03*
D11*
X184399723Y-164950228D03*
X178399723Y-164950228D03*
X181399723Y-164950228D03*
D10*
X116983072Y-164950228D03*
X112483072Y-164950228D03*
X114733072Y-164950228D03*
D11*
X251066363Y-164950228D03*
X245066363Y-164950228D03*
X248066363Y-164950228D03*
X267733023Y-164950228D03*
X261733023Y-164950228D03*
X264733023Y-164950228D03*
D10*
X283649775Y-164950228D03*
X279149775Y-164950228D03*
X281399775Y-164950228D03*
X333649779Y-164950228D03*
X329149779Y-164950228D03*
X331399779Y-164950228D03*
X279149775Y-168750228D03*
X283649775Y-168750228D03*
X281399775Y-168750228D03*
D11*
X248066363Y-156450228D03*
X245066363Y-156450228D03*
X251066363Y-156450228D03*
X264733023Y-156450228D03*
X261733023Y-156450228D03*
X267733023Y-156450228D03*
X264733023Y-160250228D03*
X267733023Y-160250228D03*
X261733023Y-160250228D03*
D10*
X281399775Y-156450228D03*
X279149775Y-156450228D03*
X283649775Y-156450228D03*
X331399779Y-156450228D03*
X329149779Y-156450228D03*
X333649779Y-156450228D03*
D11*
X181399723Y-160200228D03*
X184399723Y-160200228D03*
X178399723Y-160200228D03*
X214733043Y-156450228D03*
X211733043Y-156450228D03*
X217733043Y-156450228D03*
X214733043Y-160250228D03*
X217733043Y-160250228D03*
X211733043Y-160250228D03*
X231399703Y-160250228D03*
X234399703Y-160250228D03*
X228399703Y-160250228D03*
X231399703Y-156450228D03*
X228399703Y-156450228D03*
X234399703Y-156450228D03*
X248066363Y-160250228D03*
X251066363Y-160250228D03*
X245066363Y-160250228D03*
D10*
X348065393Y-160250228D03*
X350315393Y-160250228D03*
X345815393Y-160250228D03*
X348065393Y-156450228D03*
X345815393Y-156450228D03*
X350315393Y-156450228D03*
D11*
X198066383Y-156450228D03*
X195066383Y-156450228D03*
X201066383Y-156450228D03*
X198066383Y-160250228D03*
X201066383Y-160250228D03*
X195066383Y-160250228D03*
X181399723Y-156450228D03*
X178399723Y-156450228D03*
X184399723Y-156450228D03*
D10*
X364731993Y-156450228D03*
X362481993Y-156450228D03*
X366981993Y-156450228D03*
X314733111Y-160250228D03*
X316983111Y-160250228D03*
X312483111Y-160250228D03*
X331399779Y-160250228D03*
X333649779Y-160250228D03*
X329149779Y-160250228D03*
X298066443Y-160250228D03*
X300316443Y-160250228D03*
X295816443Y-160250228D03*
X281399775Y-160250228D03*
X283649775Y-160250228D03*
X279149775Y-160250228D03*
X98066427Y-156450228D03*
X95816427Y-156450228D03*
X100316427Y-156450228D03*
X98066427Y-160250228D03*
X100316427Y-160250228D03*
X95816427Y-160250228D03*
X98066427Y-156450228D03*
X95816427Y-156450228D03*
X100316427Y-156450228D03*
X114733072Y-160250228D03*
X116983072Y-160250228D03*
X112483072Y-160250228D03*
X114733072Y-156450228D03*
X112483072Y-156450228D03*
X116983072Y-156450228D03*
X98066427Y-117750228D03*
X100316427Y-117750228D03*
X95816427Y-117750228D03*
X298066443Y-113950228D03*
X295816443Y-113950228D03*
X300316443Y-113950228D03*
D11*
X217733043Y-130950228D03*
X211733043Y-130950228D03*
X214733043Y-130950228D03*
D10*
X316983111Y-105450228D03*
X312483111Y-105450228D03*
X314733111Y-105450228D03*
X362481993Y-109250228D03*
X366981993Y-109250228D03*
X364731993Y-109250228D03*
X95816427Y-109250228D03*
X100316427Y-109250228D03*
X98066427Y-109250228D03*
X300316443Y-105450228D03*
X295816443Y-105450228D03*
X298066443Y-105450228D03*
X364731993Y-117750228D03*
X366981993Y-117750228D03*
X362481993Y-117750228D03*
X314733111Y-113950228D03*
X312483111Y-113950228D03*
X316983111Y-113950228D03*
X348065393Y-113950228D03*
X345815393Y-113950228D03*
X350315393Y-113950228D03*
X95816427Y-134750228D03*
X100316427Y-134750228D03*
X98066427Y-134750228D03*
X300316443Y-130950228D03*
X295816443Y-130950228D03*
X298066443Y-130950228D03*
D11*
X211733043Y-134750228D03*
X217733043Y-134750228D03*
X214733043Y-134750228D03*
X228399703Y-134750228D03*
X234399703Y-134750228D03*
X231399703Y-134750228D03*
X234399703Y-130950228D03*
X228399703Y-130950228D03*
X231399703Y-130950228D03*
X245066363Y-134750228D03*
X251066363Y-134750228D03*
X248066363Y-134750228D03*
X178399723Y-134700228D03*
X184399723Y-134700228D03*
X181399723Y-134700228D03*
X181399723Y-117700228D03*
X184399723Y-117700228D03*
X178399723Y-117700228D03*
X214733043Y-113950228D03*
X211733043Y-113950228D03*
X217733043Y-113950228D03*
X214733043Y-117750228D03*
X217733043Y-117750228D03*
X211733043Y-117750228D03*
X231399703Y-117750228D03*
X234399703Y-117750228D03*
X228399703Y-117750228D03*
X231399703Y-113950228D03*
X228399703Y-113950228D03*
X234399703Y-113950228D03*
X248066363Y-117750228D03*
X251066363Y-117750228D03*
X245066363Y-117750228D03*
D10*
X298066443Y-117750228D03*
X300316443Y-117750228D03*
X295816443Y-117750228D03*
X364731993Y-113950228D03*
X362481993Y-113950228D03*
X366981993Y-113950228D03*
X98066427Y-113950228D03*
X95816427Y-113950228D03*
X100316427Y-113950228D03*
X98066427Y-117750228D03*
X100316427Y-117750228D03*
X95816427Y-117750228D03*
X98066427Y-113950228D03*
X95816427Y-113950228D03*
X100316427Y-113950228D03*
X114733072Y-117750228D03*
X116983072Y-117750228D03*
X112483072Y-117750228D03*
D11*
X198066383Y-113950228D03*
X195066383Y-113950228D03*
X201066383Y-113950228D03*
X198066383Y-117750228D03*
X201066383Y-117750228D03*
X195066383Y-117750228D03*
X264733023Y-117750228D03*
X267733023Y-117750228D03*
X261733023Y-117750228D03*
D10*
X314733111Y-117750228D03*
X316983111Y-117750228D03*
X312483111Y-117750228D03*
X331399779Y-117750228D03*
X333649779Y-117750228D03*
X329149779Y-117750228D03*
X348065393Y-117750228D03*
X350315393Y-117750228D03*
X345815393Y-117750228D03*
D11*
X181399723Y-113950228D03*
X178399723Y-113950228D03*
X184399723Y-113950228D03*
D10*
X114733072Y-113950228D03*
X112483072Y-113950228D03*
X116983072Y-113950228D03*
D11*
X248066363Y-113950228D03*
X245066363Y-113950228D03*
X251066363Y-113950228D03*
X264733023Y-113950228D03*
X261733023Y-113950228D03*
X267733023Y-113950228D03*
D10*
X281399775Y-113950228D03*
X279149775Y-113950228D03*
X283649775Y-113950228D03*
X331399779Y-113950228D03*
X329149779Y-113950228D03*
X333649779Y-113950228D03*
X281399775Y-117750228D03*
X283649775Y-117750228D03*
X279149775Y-117750228D03*
D11*
X251066363Y-105450228D03*
X245066363Y-105450228D03*
X248066363Y-105450228D03*
X267733023Y-105450228D03*
X261733023Y-105450228D03*
X264733023Y-105450228D03*
X261733023Y-109250228D03*
X267733023Y-109250228D03*
X264733023Y-109250228D03*
D10*
X283649775Y-105450228D03*
X279149775Y-105450228D03*
X281399775Y-105450228D03*
X333649779Y-105450228D03*
X329149779Y-105450228D03*
X331399779Y-105450228D03*
D11*
X178399723Y-109200228D03*
X184399723Y-109200228D03*
X181399723Y-109200228D03*
X217733043Y-105450228D03*
X211733043Y-105450228D03*
X214733043Y-105450228D03*
X211733043Y-109250228D03*
X217733043Y-109250228D03*
X214733043Y-109250228D03*
X228399703Y-109250228D03*
X234399703Y-109250228D03*
X231399703Y-109250228D03*
X234399703Y-105450228D03*
X228399703Y-105450228D03*
X231399703Y-105450228D03*
X245066363Y-109250228D03*
X251066363Y-109250228D03*
X248066363Y-109250228D03*
D10*
X345815393Y-109250228D03*
X350315393Y-109250228D03*
X348065393Y-109250228D03*
X350315393Y-105450228D03*
X345815393Y-105450228D03*
X348065393Y-105450228D03*
D11*
X201066383Y-105450228D03*
X195066383Y-105450228D03*
X198066383Y-105450228D03*
X195066383Y-109250228D03*
X201066383Y-109250228D03*
X198066383Y-109250228D03*
X184399723Y-105450228D03*
X178399723Y-105450228D03*
X181399723Y-105450228D03*
D10*
X366981993Y-105450228D03*
X362481993Y-105450228D03*
X364731993Y-105450228D03*
X312483111Y-109250228D03*
X316983111Y-109250228D03*
X314733111Y-109250228D03*
X329149779Y-109250228D03*
X333649779Y-109250228D03*
X331399779Y-109250228D03*
X295816443Y-109250228D03*
X300316443Y-109250228D03*
X298066443Y-109250228D03*
X279149775Y-109250228D03*
X283649775Y-109250228D03*
X281399775Y-109250228D03*
X100316427Y-105450228D03*
X95816427Y-105450228D03*
X98066427Y-105450228D03*
X95816427Y-109250228D03*
X100316427Y-109250228D03*
X98066427Y-109250228D03*
X100316427Y-105450228D03*
X95816427Y-105450228D03*
X98066427Y-105450228D03*
X112483072Y-109250228D03*
X116983072Y-109250228D03*
X114733072Y-109250228D03*
X116983072Y-105450228D03*
X112483072Y-105450228D03*
X114733072Y-105450228D03*
X98066427Y-126250228D03*
X100316427Y-126250228D03*
X95816427Y-126250228D03*
X298066443Y-122450228D03*
X295816443Y-122450228D03*
X300316443Y-122450228D03*
X362481993Y-134750228D03*
X366981993Y-134750228D03*
X364731993Y-134750228D03*
X316983111Y-130950228D03*
X312483111Y-130950228D03*
X314733111Y-130950228D03*
X295816443Y-134750228D03*
X300316443Y-134750228D03*
X298066443Y-134750228D03*
X314733111Y-122450228D03*
X312483111Y-122450228D03*
X316983111Y-122450228D03*
X364731993Y-126250228D03*
X366981993Y-126250228D03*
X362481993Y-126250228D03*
X350315393Y-130950228D03*
X345815393Y-130950228D03*
X348065393Y-130950228D03*
X366981993Y-130950228D03*
X362481993Y-130950228D03*
X364731993Y-130950228D03*
X100316427Y-130950228D03*
X95816427Y-130950228D03*
X98066427Y-130950228D03*
X95816427Y-134750228D03*
X100316427Y-134750228D03*
X98066427Y-134750228D03*
X100316427Y-130950228D03*
X95816427Y-130950228D03*
X98066427Y-130950228D03*
X112483072Y-134750228D03*
X116983072Y-134750228D03*
X114733072Y-134750228D03*
D11*
X201066383Y-130950228D03*
X195066383Y-130950228D03*
X198066383Y-130950228D03*
X195066383Y-134750228D03*
X201066383Y-134750228D03*
X198066383Y-134750228D03*
X261733023Y-134750228D03*
X267733023Y-134750228D03*
X264733023Y-134750228D03*
D10*
X312483111Y-134750228D03*
X316983111Y-134750228D03*
X314733111Y-134750228D03*
X329149779Y-134750228D03*
X333649779Y-134750228D03*
X331399779Y-134750228D03*
X345815393Y-134750228D03*
X350315393Y-134750228D03*
X348065393Y-134750228D03*
D11*
X184399723Y-130950228D03*
X178399723Y-130950228D03*
X181399723Y-130950228D03*
D10*
X116983072Y-130950228D03*
X112483072Y-130950228D03*
X114733072Y-130950228D03*
D11*
X251066363Y-130950228D03*
X245066363Y-130950228D03*
X248066363Y-130950228D03*
X267733023Y-130950228D03*
X261733023Y-130950228D03*
X264733023Y-130950228D03*
D10*
X283649775Y-130950228D03*
X279149775Y-130950228D03*
X281399775Y-130950228D03*
X333649779Y-130950228D03*
X329149779Y-130950228D03*
X331399779Y-130950228D03*
X279149775Y-134750228D03*
X283649775Y-134750228D03*
X281399775Y-134750228D03*
D11*
X248066363Y-122450228D03*
X245066363Y-122450228D03*
X251066363Y-122450228D03*
X264733023Y-122450228D03*
X261733023Y-122450228D03*
X267733023Y-122450228D03*
X264733023Y-126250228D03*
X267733023Y-126250228D03*
X261733023Y-126250228D03*
D10*
X281399775Y-122450228D03*
X279149775Y-122450228D03*
X283649775Y-122450228D03*
X331399779Y-122450228D03*
X329149779Y-122450228D03*
X333649779Y-122450228D03*
D11*
X181399723Y-126200228D03*
X184399723Y-126200228D03*
X178399723Y-126200228D03*
X214733043Y-122450228D03*
X211733043Y-122450228D03*
X217733043Y-122450228D03*
X214733043Y-126250228D03*
X217733043Y-126250228D03*
X211733043Y-126250228D03*
X231399703Y-126250228D03*
X234399703Y-126250228D03*
X228399703Y-126250228D03*
X231399703Y-122450228D03*
X228399703Y-122450228D03*
X234399703Y-122450228D03*
X248066363Y-126250228D03*
X251066363Y-126250228D03*
X245066363Y-126250228D03*
D10*
X348065393Y-126250228D03*
X350315393Y-126250228D03*
X345815393Y-126250228D03*
X348065393Y-122450228D03*
X345815393Y-122450228D03*
X350315393Y-122450228D03*
D11*
X198066383Y-122450228D03*
X195066383Y-122450228D03*
X201066383Y-122450228D03*
X198066383Y-126250228D03*
X201066383Y-126250228D03*
X195066383Y-126250228D03*
X181399723Y-122450228D03*
X178399723Y-122450228D03*
X184399723Y-122450228D03*
D10*
X364731993Y-122450228D03*
X362481993Y-122450228D03*
X366981993Y-122450228D03*
X314733111Y-126250228D03*
X316983111Y-126250228D03*
X312483111Y-126250228D03*
X331399779Y-126250228D03*
X333649779Y-126250228D03*
X329149779Y-126250228D03*
X298066443Y-126250228D03*
X300316443Y-126250228D03*
X295816443Y-126250228D03*
X281399775Y-126250228D03*
X283649775Y-126250228D03*
X279149775Y-126250228D03*
X98066427Y-122450228D03*
X95816427Y-122450228D03*
X100316427Y-122450228D03*
X98066427Y-126250228D03*
X100316427Y-126250228D03*
X95816427Y-126250228D03*
X98066427Y-122450228D03*
X95816427Y-122450228D03*
X100316427Y-122450228D03*
X114733072Y-126250228D03*
X116983072Y-126250228D03*
X112483072Y-126250228D03*
X114733072Y-122450228D03*
X112483072Y-122450228D03*
X116983072Y-122450228D03*
X98066427Y-134750228D03*
X100316427Y-134750228D03*
X95816427Y-134750228D03*
X298066443Y-130950228D03*
X295816443Y-130950228D03*
X300316443Y-130950228D03*
X316983111Y-122450228D03*
X312483111Y-122450228D03*
X314733111Y-122450228D03*
X362481993Y-126250228D03*
X366981993Y-126250228D03*
X364731993Y-126250228D03*
X95816427Y-126250228D03*
X100316427Y-126250228D03*
X98066427Y-126250228D03*
X300316443Y-122450228D03*
X295816443Y-122450228D03*
X298066443Y-122450228D03*
X364731993Y-134750228D03*
X366981993Y-134750228D03*
X362481993Y-134750228D03*
X314733111Y-130950228D03*
X312483111Y-130950228D03*
X316983111Y-130950228D03*
X348065393Y-130950228D03*
X345815393Y-130950228D03*
X350315393Y-130950228D03*
D11*
X181399723Y-134700228D03*
X184399723Y-134700228D03*
X178399723Y-134700228D03*
X214733043Y-130950228D03*
X211733043Y-130950228D03*
X217733043Y-130950228D03*
X214733043Y-134750228D03*
X217733043Y-134750228D03*
X211733043Y-134750228D03*
X231399703Y-134750228D03*
X234399703Y-134750228D03*
X228399703Y-134750228D03*
X231399703Y-130950228D03*
X228399703Y-130950228D03*
X234399703Y-130950228D03*
X248066363Y-134750228D03*
X251066363Y-134750228D03*
X245066363Y-134750228D03*
D10*
X298066443Y-134750228D03*
X300316443Y-134750228D03*
X295816443Y-134750228D03*
X364731993Y-130950228D03*
X362481993Y-130950228D03*
X366981993Y-130950228D03*
X98066427Y-130950228D03*
X95816427Y-130950228D03*
X100316427Y-130950228D03*
X98066427Y-134750228D03*
X100316427Y-134750228D03*
X95816427Y-134750228D03*
X98066427Y-130950228D03*
X95816427Y-130950228D03*
X100316427Y-130950228D03*
X114733072Y-134750228D03*
X116983072Y-134750228D03*
X112483072Y-134750228D03*
D11*
X198066383Y-130950228D03*
X195066383Y-130950228D03*
X201066383Y-130950228D03*
X198066383Y-134750228D03*
X201066383Y-134750228D03*
X195066383Y-134750228D03*
X264733023Y-134750228D03*
X267733023Y-134750228D03*
X261733023Y-134750228D03*
D10*
X314733111Y-134750228D03*
X316983111Y-134750228D03*
X312483111Y-134750228D03*
X331399779Y-134750228D03*
X333649779Y-134750228D03*
X329149779Y-134750228D03*
X348065393Y-134750228D03*
X350315393Y-134750228D03*
X345815393Y-134750228D03*
D11*
X181399723Y-130950228D03*
X178399723Y-130950228D03*
X184399723Y-130950228D03*
D10*
X114733072Y-130950228D03*
X112483072Y-130950228D03*
X116983072Y-130950228D03*
D11*
X248066363Y-130950228D03*
X245066363Y-130950228D03*
X251066363Y-130950228D03*
X264733023Y-130950228D03*
X261733023Y-130950228D03*
X267733023Y-130950228D03*
D10*
X281399775Y-130950228D03*
X279149775Y-130950228D03*
X283649775Y-130950228D03*
X331399779Y-130950228D03*
X329149779Y-130950228D03*
X333649779Y-130950228D03*
X281399775Y-134750228D03*
X283649775Y-134750228D03*
X279149775Y-134750228D03*
D11*
X251066363Y-122450228D03*
X245066363Y-122450228D03*
X248066363Y-122450228D03*
X267733023Y-122450228D03*
X261733023Y-122450228D03*
X264733023Y-122450228D03*
X261733023Y-126250228D03*
X267733023Y-126250228D03*
X264733023Y-126250228D03*
D10*
X283649775Y-122450228D03*
X279149775Y-122450228D03*
X281399775Y-122450228D03*
X333649779Y-122450228D03*
X329149779Y-122450228D03*
X331399779Y-122450228D03*
D11*
X178399723Y-126200228D03*
X184399723Y-126200228D03*
X181399723Y-126200228D03*
X217733043Y-122450228D03*
X211733043Y-122450228D03*
X214733043Y-122450228D03*
X211733043Y-126250228D03*
X217733043Y-126250228D03*
X214733043Y-126250228D03*
X228399703Y-126250228D03*
X234399703Y-126250228D03*
X231399703Y-126250228D03*
X234399703Y-122450228D03*
X228399703Y-122450228D03*
X231399703Y-122450228D03*
X245066363Y-126250228D03*
X251066363Y-126250228D03*
X248066363Y-126250228D03*
D10*
X345815393Y-126250228D03*
X350315393Y-126250228D03*
X348065393Y-126250228D03*
X350315393Y-122450228D03*
X345815393Y-122450228D03*
X348065393Y-122450228D03*
D11*
X201066383Y-122450228D03*
X195066383Y-122450228D03*
X198066383Y-122450228D03*
X195066383Y-126250228D03*
X201066383Y-126250228D03*
X198066383Y-126250228D03*
X184399723Y-122450228D03*
X178399723Y-122450228D03*
X181399723Y-122450228D03*
D10*
X366981993Y-122450228D03*
X362481993Y-122450228D03*
X364731993Y-122450228D03*
X312483111Y-126250228D03*
X316983111Y-126250228D03*
X314733111Y-126250228D03*
X329149779Y-126250228D03*
X333649779Y-126250228D03*
X331399779Y-126250228D03*
X295816443Y-126250228D03*
X300316443Y-126250228D03*
X298066443Y-126250228D03*
X279149775Y-126250228D03*
X283649775Y-126250228D03*
X281399775Y-126250228D03*
X100316427Y-122450228D03*
X95816427Y-122450228D03*
X98066427Y-122450228D03*
X95816427Y-126250228D03*
X100316427Y-126250228D03*
X98066427Y-126250228D03*
X100316427Y-122450228D03*
X95816427Y-122450228D03*
X98066427Y-122450228D03*
X112483072Y-126250228D03*
X116983072Y-126250228D03*
X114733072Y-126250228D03*
X116983072Y-122450228D03*
X112483072Y-122450228D03*
X114733072Y-122450228D03*
X316983111Y-113950228D03*
X312483111Y-113950228D03*
X314733111Y-113950228D03*
X362481993Y-117750228D03*
X366981993Y-117750228D03*
X364731993Y-117750228D03*
X95816427Y-117750228D03*
X100316427Y-117750228D03*
X98066427Y-117750228D03*
X300316443Y-113950228D03*
X295816443Y-113950228D03*
X298066443Y-113950228D03*
D11*
X251066363Y-113950228D03*
X245066363Y-113950228D03*
X248066363Y-113950228D03*
X267733023Y-113950228D03*
X261733023Y-113950228D03*
X264733023Y-113950228D03*
X261733023Y-117750228D03*
X267733023Y-117750228D03*
X264733023Y-117750228D03*
D10*
X283649775Y-113950228D03*
X279149775Y-113950228D03*
X281399775Y-113950228D03*
X333649779Y-113950228D03*
X329149779Y-113950228D03*
X331399779Y-113950228D03*
D11*
X178399723Y-117700228D03*
X184399723Y-117700228D03*
X181399723Y-117700228D03*
X217733043Y-113950228D03*
X211733043Y-113950228D03*
X214733043Y-113950228D03*
X211733043Y-117750228D03*
X217733043Y-117750228D03*
X214733043Y-117750228D03*
X228399703Y-117750228D03*
X234399703Y-117750228D03*
X231399703Y-117750228D03*
X234399703Y-113950228D03*
X228399703Y-113950228D03*
X231399703Y-113950228D03*
X245066363Y-117750228D03*
X251066363Y-117750228D03*
X248066363Y-117750228D03*
D10*
X345815393Y-117750228D03*
X350315393Y-117750228D03*
X348065393Y-117750228D03*
X350315393Y-113950228D03*
X345815393Y-113950228D03*
X348065393Y-113950228D03*
D11*
X201066383Y-113950228D03*
X195066383Y-113950228D03*
X198066383Y-113950228D03*
X195066383Y-117750228D03*
X201066383Y-117750228D03*
X198066383Y-117750228D03*
X184399723Y-113950228D03*
X178399723Y-113950228D03*
X181399723Y-113950228D03*
D10*
X366981993Y-113950228D03*
X362481993Y-113950228D03*
X364731993Y-113950228D03*
X312483111Y-117750228D03*
X316983111Y-117750228D03*
X314733111Y-117750228D03*
X329149779Y-117750228D03*
X333649779Y-117750228D03*
X331399779Y-117750228D03*
X295816443Y-117750228D03*
X300316443Y-117750228D03*
X298066443Y-117750228D03*
X279149775Y-117750228D03*
X283649775Y-117750228D03*
X281399775Y-117750228D03*
X100316427Y-113950228D03*
X95816427Y-113950228D03*
X98066427Y-113950228D03*
X95816427Y-117750228D03*
X100316427Y-117750228D03*
X98066427Y-117750228D03*
X100316427Y-113950228D03*
X95816427Y-113950228D03*
X98066427Y-113950228D03*
X112483072Y-117750228D03*
X116983072Y-117750228D03*
X114733072Y-117750228D03*
X116983072Y-113950228D03*
X112483072Y-113950228D03*
X114733072Y-113950228D03*
X364731993Y-109250228D03*
X366981993Y-109250228D03*
X362481993Y-109250228D03*
X364731993Y-105450228D03*
X362481993Y-105450228D03*
X366981993Y-105450228D03*
X114733072Y-105450228D03*
X112483072Y-105450228D03*
X116983072Y-105450228D03*
X114733072Y-109250228D03*
X116983072Y-109250228D03*
X112483072Y-109250228D03*
X98066427Y-105450228D03*
X95816427Y-105450228D03*
X100316427Y-105450228D03*
X98066427Y-109250228D03*
X100316427Y-109250228D03*
X95816427Y-109250228D03*
X348065393Y-105450228D03*
X345815393Y-105450228D03*
X350315393Y-105450228D03*
X348065393Y-109250228D03*
X350315393Y-109250228D03*
X345815393Y-109250228D03*
X98066427Y-109250228D03*
X100316427Y-109250228D03*
X95816427Y-109250228D03*
X98066427Y-105450228D03*
X95816427Y-105450228D03*
X100316427Y-105450228D03*
X281399775Y-109250228D03*
X283649775Y-109250228D03*
X279149775Y-109250228D03*
X298066443Y-109250228D03*
X300316443Y-109250228D03*
X295816443Y-109250228D03*
X331399779Y-109250228D03*
X333649779Y-109250228D03*
X329149779Y-109250228D03*
X314733111Y-109250228D03*
X316983111Y-109250228D03*
X312483111Y-109250228D03*
X331399779Y-105450228D03*
X329149779Y-105450228D03*
X333649779Y-105450228D03*
X314733111Y-105450228D03*
X312483111Y-105450228D03*
X316983111Y-105450228D03*
X298066443Y-105450228D03*
X295816443Y-105450228D03*
X300316443Y-105450228D03*
X281399775Y-105450228D03*
X279149775Y-105450228D03*
X283649775Y-105450228D03*
D11*
X264733023Y-109250228D03*
X267733023Y-109250228D03*
X261733023Y-109250228D03*
X264733023Y-105450228D03*
X261733023Y-105450228D03*
X267733023Y-105450228D03*
X248066363Y-105450228D03*
X245066363Y-105450228D03*
X251066363Y-105450228D03*
X248066363Y-109250228D03*
X251066363Y-109250228D03*
X245066363Y-109250228D03*
X231399703Y-105450228D03*
X228399703Y-105450228D03*
X234399703Y-105450228D03*
X231399703Y-109250228D03*
X234399703Y-109250228D03*
X228399703Y-109250228D03*
X214733043Y-109250228D03*
X217733043Y-109250228D03*
X211733043Y-109250228D03*
X214733043Y-105450228D03*
X211733043Y-105450228D03*
X217733043Y-105450228D03*
X181399723Y-109200228D03*
X184399723Y-109200228D03*
X178399723Y-109200228D03*
X181399723Y-105450228D03*
X178399723Y-105450228D03*
X184399723Y-105450228D03*
X198066383Y-109250228D03*
X201066383Y-109250228D03*
X195066383Y-109250228D03*
X198066383Y-105450228D03*
X195066383Y-105450228D03*
X201066383Y-105450228D03*
M02*
