G04 #@! TF.GenerationSoftware,KiCad,Pcbnew,(5.1.0-0)*
G04 #@! TF.CreationDate,2019-05-15T00:47:19-07:00*
G04 #@! TF.ProjectId,EOutside,454f7574-7369-4646-952e-6b696361645f,rev?*
G04 #@! TF.SameCoordinates,Original*
G04 #@! TF.FileFunction,Profile,NP*
%FSLAX46Y46*%
G04 Gerber Fmt 4.6, Leading zero omitted, Abs format (unit mm)*
G04 Created by KiCad (PCBNEW (5.1.0-0)) date 2019-05-15 00:47:19*
%MOMM*%
%LPD*%
G04 APERTURE LIST*
%ADD10C,0.100000*%
G04 APERTURE END LIST*
D10*
X182178118Y-240100339D02*
X182178118Y-238100339D01*
X186178218Y-240100339D02*
X186178218Y-238100339D01*
X276623171Y-240100339D02*
X276623171Y-238100339D01*
X280622927Y-240100339D02*
X280622927Y-238100339D01*
X186178218Y-240100339D02*
X276623171Y-240100339D01*
X87733065Y-240100249D02*
X182178118Y-240100339D01*
X280622927Y-240100339D02*
X375066796Y-240100249D01*
X182178118Y-161600358D02*
X182178118Y-163600235D01*
X89733093Y-161600358D02*
X182178118Y-161600358D01*
X89733093Y-160350369D02*
X89733093Y-161600358D01*
X87733065Y-160350369D02*
X89733093Y-160350369D01*
X375066796Y-194350361D02*
X375066796Y-198850173D01*
X373065993Y-194350361D02*
X375066796Y-194350361D01*
X373065497Y-195600349D02*
X373065993Y-194350361D01*
X280622927Y-195600349D02*
X373065497Y-195600349D01*
X280622927Y-197600227D02*
X280622927Y-195600349D01*
X373068038Y-197600227D02*
X280622927Y-197600227D01*
X373067543Y-198850173D02*
X373068038Y-197600227D01*
X375066796Y-198850173D02*
X373067543Y-198850173D01*
X375066796Y-202850273D02*
X375066796Y-207350257D01*
X373065993Y-202850273D02*
X375066796Y-202850273D01*
X276623171Y-104100228D02*
X186178218Y-104100228D01*
X276623171Y-102100200D02*
X276623171Y-104100228D01*
X375066796Y-109350381D02*
X375066796Y-113850193D01*
X373065993Y-109350381D02*
X375066796Y-109350381D01*
X373065497Y-110600348D02*
X373065993Y-109350381D01*
X280622927Y-110600348D02*
X373065497Y-110600348D01*
X280622927Y-112600226D02*
X280622927Y-110600348D01*
X373068038Y-112600226D02*
X280622927Y-112600226D01*
X373067543Y-113850193D02*
X373068038Y-112600226D01*
X375066796Y-113850193D02*
X373067543Y-113850193D01*
X375066796Y-117850293D02*
X375066796Y-122350277D01*
X373065993Y-117850293D02*
X375066796Y-117850293D01*
X373065497Y-119100346D02*
X373065993Y-117850293D01*
X280622927Y-119100346D02*
X373065497Y-119100346D01*
X280622927Y-121100224D02*
X280622927Y-119100346D01*
X373068038Y-121100224D02*
X280622927Y-121100224D01*
X373067543Y-122350277D02*
X373068038Y-121100224D01*
X375066796Y-122350277D02*
X373067543Y-122350277D01*
X375066796Y-126350377D02*
X375066796Y-130850189D01*
X373065993Y-126350377D02*
X375066796Y-126350377D01*
X373065497Y-127600344D02*
X373065993Y-126350377D01*
X280622927Y-127600344D02*
X373065497Y-127600344D01*
X280622927Y-129600222D02*
X280622927Y-127600344D01*
X373068038Y-129600222D02*
X280622927Y-129600222D01*
X373067543Y-130850189D02*
X373068038Y-129600222D01*
X375066796Y-130850189D02*
X373067543Y-130850189D01*
X375066796Y-134850289D02*
X375066796Y-139350273D01*
X373065993Y-134850289D02*
X375066796Y-134850289D01*
X373065497Y-136100342D02*
X373065993Y-134850289D01*
X280622927Y-136100342D02*
X373065497Y-136100342D01*
X280622927Y-138100220D02*
X280622927Y-136100342D01*
X89733093Y-105350281D02*
X87733065Y-105350281D01*
X89733093Y-104100228D02*
X89733093Y-105350281D01*
X182178118Y-104100228D02*
X89733093Y-104100228D01*
X182178118Y-102100200D02*
X182178118Y-104100228D01*
X186178218Y-172100233D02*
X186178218Y-170100355D01*
X276623171Y-180600231D02*
X186178218Y-180600231D01*
X276623171Y-178600353D02*
X276623171Y-180600231D01*
X182178118Y-195600349D02*
X182178118Y-197600227D01*
X89733093Y-195600349D02*
X182178118Y-195600349D01*
X89733093Y-194350361D02*
X89733093Y-195600349D01*
X87733065Y-194350361D02*
X89733093Y-194350361D01*
X82733068Y-97100203D02*
X82733068Y-245100322D01*
X375066796Y-215850168D02*
X373067543Y-215850168D01*
X375066796Y-219850269D02*
X375066796Y-224350253D01*
X373065993Y-219850269D02*
X375066796Y-219850269D01*
X373065497Y-221100343D02*
X373065993Y-219850269D01*
X280622927Y-221100343D02*
X373065497Y-221100343D01*
X280622927Y-223100221D02*
X280622927Y-221100343D01*
X373068038Y-223100221D02*
X280622927Y-223100221D01*
X373067543Y-224350253D02*
X373068038Y-223100221D01*
X375066796Y-224350253D02*
X373067543Y-224350253D01*
X375066796Y-228350353D02*
X375066796Y-232850164D01*
X373065993Y-228350353D02*
X375066796Y-228350353D01*
X373065497Y-229600341D02*
X373065993Y-228350353D01*
X280622927Y-229600341D02*
X373065497Y-229600341D01*
X280622927Y-231600219D02*
X280622927Y-229600341D01*
X373068038Y-231600219D02*
X280622927Y-231600219D01*
X373067543Y-232850164D02*
X373068038Y-231600219D01*
X375066796Y-232850164D02*
X373067543Y-232850164D01*
X375066796Y-236850265D02*
X375066796Y-240100249D01*
X373065993Y-236850265D02*
X375066796Y-236850265D01*
X373065497Y-238100339D02*
X373065993Y-236850265D01*
X280622927Y-238100339D02*
X373065497Y-238100339D01*
X186178218Y-178600353D02*
X276623171Y-178600353D01*
X186178218Y-180600231D02*
X186178218Y-178600353D01*
X276623171Y-189100229D02*
X186178218Y-189100229D01*
X373065993Y-177350365D02*
X375066796Y-177350365D01*
X373065497Y-178600353D02*
X373065993Y-177350365D01*
X280622927Y-178600353D02*
X373065497Y-178600353D01*
X280622927Y-180600231D02*
X280622927Y-178600353D01*
X373068038Y-180600231D02*
X280622927Y-180600231D01*
X373067543Y-181850177D02*
X373068038Y-180600231D01*
X375066796Y-181850177D02*
X373067543Y-181850177D01*
X375066796Y-185850277D02*
X375066796Y-190350261D01*
X373065993Y-185850277D02*
X375066796Y-185850277D01*
X373065497Y-187100351D02*
X373065993Y-185850277D01*
X280622927Y-187100351D02*
X373065497Y-187100351D01*
X280622927Y-189100229D02*
X280622927Y-187100351D01*
X373068038Y-189100229D02*
X280622927Y-189100229D01*
X373067543Y-190350261D02*
X373068038Y-189100229D01*
X375066796Y-190350261D02*
X373067543Y-190350261D01*
X380066771Y-245100322D02*
X380066771Y-97100203D01*
X82733068Y-245100322D02*
X380066771Y-245100322D01*
X87733065Y-190350261D02*
X87733065Y-185850277D01*
X89733093Y-190350261D02*
X87733065Y-190350261D01*
X89733093Y-189100229D02*
X89733093Y-190350261D01*
X182178118Y-189100229D02*
X89733093Y-189100229D01*
X182178118Y-187100351D02*
X182178118Y-189100229D01*
X89733093Y-187100351D02*
X182178118Y-187100351D01*
X89733093Y-185850277D02*
X89733093Y-187100351D01*
X87733065Y-185850277D02*
X89733093Y-185850277D01*
X186178218Y-102100200D02*
X276623171Y-102100200D01*
X87733065Y-102100200D02*
X182178118Y-102100200D01*
X276623171Y-112600226D02*
X186178218Y-112600226D01*
X276623171Y-110600348D02*
X276623171Y-112600226D01*
X186178218Y-110600348D02*
X276623171Y-110600348D01*
X186178218Y-112600226D02*
X186178218Y-110600348D01*
X182178118Y-129600222D02*
X89733093Y-129600222D01*
X182178118Y-127600344D02*
X182178118Y-129600222D01*
X89733093Y-127600344D02*
X182178118Y-127600344D01*
X89733093Y-126350377D02*
X89733093Y-127600344D01*
X87733065Y-126350377D02*
X89733093Y-126350377D01*
X87733065Y-122350277D02*
X87733065Y-117850293D01*
X89733093Y-122350277D02*
X87733065Y-122350277D01*
X89733093Y-121100224D02*
X89733093Y-122350277D01*
X182178118Y-121100224D02*
X89733093Y-121100224D01*
X182178118Y-119100346D02*
X182178118Y-121100224D01*
X89733093Y-119100346D02*
X182178118Y-119100346D01*
X89733093Y-117850293D02*
X89733093Y-119100346D01*
X87733065Y-117850293D02*
X89733093Y-117850293D01*
X87733065Y-113850193D02*
X87733065Y-109350381D01*
X89733093Y-113850193D02*
X87733065Y-113850193D01*
X89733093Y-112600226D02*
X89733093Y-113850193D01*
X182178118Y-112600226D02*
X89733093Y-112600226D01*
X182178118Y-110600348D02*
X182178118Y-112600226D01*
X89733093Y-110600348D02*
X182178118Y-110600348D01*
X89733093Y-109350381D02*
X89733093Y-110600348D01*
X87733065Y-109350381D02*
X89733093Y-109350381D01*
X87733065Y-105350281D02*
X87733065Y-102100200D01*
X89733093Y-151850285D02*
X89733093Y-153100338D01*
X87733065Y-151850285D02*
X89733093Y-151850285D01*
X87733065Y-147850185D02*
X87733065Y-143350373D01*
X89733093Y-147850185D02*
X87733065Y-147850185D01*
X89733093Y-146600218D02*
X89733093Y-147850185D01*
X182178118Y-146600218D02*
X89733093Y-146600218D01*
X182178118Y-144600340D02*
X182178118Y-146600218D01*
X89733093Y-144600340D02*
X182178118Y-144600340D01*
X89733093Y-143350373D02*
X89733093Y-144600340D01*
X87733065Y-143350373D02*
X89733093Y-143350373D01*
X87733065Y-139350273D02*
X87733065Y-134850289D01*
X89733093Y-139350273D02*
X87733065Y-139350273D01*
X89733093Y-138100220D02*
X89733093Y-139350273D01*
X87733065Y-156350269D02*
X87733065Y-151850285D01*
X89733093Y-156350269D02*
X87733065Y-156350269D01*
X89733093Y-155100237D02*
X89733093Y-156350269D01*
X182178118Y-155100237D02*
X89733093Y-155100237D01*
X182178118Y-153100338D02*
X182178118Y-155100237D01*
X89733093Y-153100338D02*
X182178118Y-153100338D01*
X87733065Y-181850177D02*
X87733065Y-177350365D01*
X89733093Y-181850177D02*
X87733065Y-181850177D01*
X89733093Y-180600231D02*
X89733093Y-181850177D01*
X182178118Y-180600231D02*
X89733093Y-180600231D01*
X182178118Y-178600353D02*
X182178118Y-180600231D01*
X89733093Y-178600353D02*
X182178118Y-178600353D01*
X89733093Y-177350365D02*
X89733093Y-178600353D01*
X87733065Y-177350365D02*
X89733093Y-177350365D01*
X87733065Y-173350265D02*
X87733065Y-168850281D01*
X373065497Y-204100347D02*
X373065993Y-202850273D01*
X280622927Y-204100347D02*
X373065497Y-204100347D01*
X280622927Y-206100225D02*
X280622927Y-204100347D01*
X373068038Y-206100225D02*
X280622927Y-206100225D01*
X373067543Y-207350257D02*
X373068038Y-206100225D01*
X375066796Y-207350257D02*
X373067543Y-207350257D01*
X375066796Y-211350357D02*
X375066796Y-215850168D01*
X373065993Y-211350357D02*
X375066796Y-211350357D01*
X373065497Y-212600345D02*
X373065993Y-211350357D01*
X280622927Y-212600345D02*
X373065497Y-212600345D01*
X280622927Y-214600223D02*
X280622927Y-212600345D01*
X373068038Y-214600223D02*
X280622927Y-214600223D01*
X373067543Y-215850168D02*
X373068038Y-214600223D01*
X89733093Y-173350265D02*
X87733065Y-173350265D01*
X89733093Y-172100233D02*
X89733093Y-173350265D01*
X182178118Y-172100233D02*
X89733093Y-172100233D01*
X182178118Y-170100355D02*
X182178118Y-172100233D01*
X89733093Y-170100355D02*
X182178118Y-170100355D01*
X89733093Y-168850281D02*
X89733093Y-170100355D01*
X87733065Y-168850281D02*
X89733093Y-168850281D01*
X375066796Y-102100200D02*
X375066796Y-105350281D01*
X280622927Y-102100200D02*
X375066796Y-102100200D01*
X280622927Y-104100228D02*
X280622927Y-102100200D01*
X373068038Y-104100228D02*
X280622927Y-104100228D01*
X373067543Y-105350281D02*
X373068038Y-104100228D01*
X375066796Y-105350281D02*
X373067543Y-105350281D01*
X182178118Y-138100220D02*
X89733093Y-138100220D01*
X182178118Y-136100342D02*
X182178118Y-138100220D01*
X89733093Y-136100342D02*
X182178118Y-136100342D01*
X89733093Y-134850289D02*
X89733093Y-136100342D01*
X87733065Y-134850289D02*
X89733093Y-134850289D01*
X87733065Y-130850189D02*
X87733065Y-126350377D01*
X89733093Y-130850189D02*
X87733065Y-130850189D01*
X89733093Y-129600222D02*
X89733093Y-130850189D01*
X87733065Y-240100249D02*
X87733065Y-236850265D01*
X89733093Y-238100339D02*
X182178118Y-238100339D01*
X89733093Y-236850265D02*
X89733093Y-238100339D01*
X87733065Y-236850265D02*
X89733093Y-236850265D01*
X87733065Y-232850164D02*
X87733065Y-228350353D01*
X89733093Y-232850164D02*
X87733065Y-232850164D01*
X89733093Y-231600219D02*
X89733093Y-232850164D01*
X182178118Y-231600219D02*
X89733093Y-231600219D01*
X182178118Y-229600341D02*
X182178118Y-231600219D01*
X89733093Y-229600341D02*
X182178118Y-229600341D01*
X89733093Y-228350353D02*
X89733093Y-229600341D01*
X87733065Y-228350353D02*
X89733093Y-228350353D01*
X87733065Y-224350253D02*
X87733065Y-219850269D01*
X89733093Y-224350253D02*
X87733065Y-224350253D01*
X89733093Y-223100221D02*
X89733093Y-224350253D01*
X182178118Y-223100221D02*
X89733093Y-223100221D01*
X182178118Y-221100343D02*
X182178118Y-223100221D01*
X89733093Y-221100343D02*
X182178118Y-221100343D01*
X89733093Y-219850269D02*
X89733093Y-221100343D01*
X87733065Y-219850269D02*
X89733093Y-219850269D01*
X87733065Y-215850168D02*
X87733065Y-211350357D01*
X89733093Y-215850168D02*
X87733065Y-215850168D01*
X89733093Y-214600223D02*
X89733093Y-215850168D01*
X182178118Y-214600223D02*
X89733093Y-214600223D01*
X182178118Y-212600345D02*
X182178118Y-214600223D01*
X89733093Y-212600345D02*
X182178118Y-212600345D01*
X89733093Y-211350357D02*
X89733093Y-212600345D01*
X87733065Y-211350357D02*
X89733093Y-211350357D01*
X87733065Y-207350257D02*
X87733065Y-202850273D01*
X89733093Y-207350257D02*
X87733065Y-207350257D01*
X89733093Y-206100225D02*
X89733093Y-207350257D01*
X182178118Y-206100225D02*
X89733093Y-206100225D01*
X182178118Y-204100347D02*
X182178118Y-206100225D01*
X89733093Y-204100347D02*
X182178118Y-204100347D01*
X89733093Y-202850273D02*
X89733093Y-204100347D01*
X87733065Y-202850273D02*
X89733093Y-202850273D01*
X87733065Y-198850173D02*
X87733065Y-194350361D01*
X89733093Y-198850173D02*
X87733065Y-198850173D01*
X89733093Y-197600227D02*
X89733093Y-198850173D01*
X182178118Y-197600227D02*
X89733093Y-197600227D01*
X373068038Y-138100220D02*
X280622927Y-138100220D01*
X373067543Y-139350273D02*
X373068038Y-138100220D01*
X375066796Y-139350273D02*
X373067543Y-139350273D01*
X375066796Y-143350373D02*
X375066796Y-147850185D01*
X373065993Y-143350373D02*
X375066796Y-143350373D01*
X373065497Y-144600340D02*
X373065993Y-143350373D01*
X280622927Y-144600340D02*
X373065497Y-144600340D01*
X280622927Y-146600218D02*
X280622927Y-144600340D01*
X373068038Y-146600218D02*
X280622927Y-146600218D01*
X373067543Y-147850185D02*
X373068038Y-146600218D01*
X375066796Y-147850185D02*
X373067543Y-147850185D01*
X375066796Y-151850285D02*
X375066796Y-156350269D01*
X373065993Y-151850285D02*
X375066796Y-151850285D01*
X373065497Y-153100338D02*
X373065993Y-151850285D01*
X280622927Y-153100338D02*
X373065497Y-153100338D01*
X280622927Y-155100237D02*
X280622927Y-153100338D01*
X373068038Y-155100237D02*
X280622927Y-155100237D01*
X373067543Y-156350269D02*
X373068038Y-155100237D01*
X375066796Y-156350269D02*
X373067543Y-156350269D01*
X375066796Y-160350369D02*
X375066796Y-164850181D01*
X373065993Y-160350369D02*
X375066796Y-160350369D01*
X373065497Y-161600358D02*
X373065993Y-160350369D01*
X280622927Y-161600358D02*
X373065497Y-161600358D01*
X280622927Y-163600235D02*
X280622927Y-161600358D01*
X373068038Y-163600235D02*
X280622927Y-163600235D01*
X373067543Y-164850181D02*
X373068038Y-163600235D01*
X375066796Y-164850181D02*
X373067543Y-164850181D01*
X375066796Y-168850281D02*
X375066796Y-173350265D01*
X373065993Y-168850281D02*
X375066796Y-168850281D01*
X373065497Y-170100355D02*
X373065993Y-168850281D01*
X280622927Y-170100355D02*
X373065497Y-170100355D01*
X280622927Y-172100233D02*
X280622927Y-170100355D01*
X373068038Y-172100233D02*
X280622927Y-172100233D01*
X373067543Y-173350265D02*
X373068038Y-172100233D01*
X375066796Y-173350265D02*
X373067543Y-173350265D01*
X375066796Y-177350365D02*
X375066796Y-181850177D01*
X87733065Y-164850181D02*
X87733065Y-160350369D01*
X89733093Y-164850181D02*
X87733065Y-164850181D01*
X89733093Y-163600235D02*
X89733093Y-164850181D01*
X182178118Y-163600235D02*
X89733093Y-163600235D01*
X276623171Y-187100351D02*
X276623171Y-189100229D01*
X186178218Y-187100351D02*
X276623171Y-187100351D01*
X186178218Y-189100229D02*
X186178218Y-187100351D01*
X276623171Y-197600227D02*
X186178218Y-197600227D01*
X276623171Y-195600349D02*
X276623171Y-197600227D01*
X186178218Y-195600349D02*
X276623171Y-195600349D01*
X186178218Y-197600227D02*
X186178218Y-195600349D01*
X276623171Y-206100225D02*
X186178218Y-206100225D01*
X276623171Y-204100347D02*
X276623171Y-206100225D01*
X186178218Y-204100347D02*
X276623171Y-204100347D01*
X186178218Y-206100225D02*
X186178218Y-204100347D01*
X276623171Y-214600223D02*
X186178218Y-214600223D01*
X276623171Y-212600345D02*
X276623171Y-214600223D01*
X186178218Y-212600345D02*
X276623171Y-212600345D01*
X186178218Y-214600223D02*
X186178218Y-212600345D01*
X276623171Y-223100221D02*
X186178218Y-223100221D01*
X276623171Y-221100343D02*
X276623171Y-223100221D01*
X186178218Y-221100343D02*
X276623171Y-221100343D01*
X186178218Y-223100221D02*
X186178218Y-221100343D01*
X276623171Y-231600219D02*
X186178218Y-231600219D01*
X276623171Y-229600341D02*
X276623171Y-231600219D01*
X186178218Y-229600341D02*
X276623171Y-229600341D01*
X186178218Y-231600219D02*
X186178218Y-229600341D01*
X186178218Y-238100339D02*
X276623171Y-238100339D01*
X186178218Y-104100228D02*
X186178218Y-102100200D01*
X380066771Y-97100203D02*
X82733068Y-97100203D01*
X186178218Y-146600218D02*
X186178218Y-144600340D01*
X276623171Y-155100237D02*
X186178218Y-155100237D01*
X276623171Y-153100338D02*
X276623171Y-155100237D01*
X186178218Y-153100338D02*
X276623171Y-153100338D01*
X186178218Y-155100237D02*
X186178218Y-153100338D01*
X276623171Y-163600235D02*
X186178218Y-163600235D01*
X276623171Y-161600358D02*
X276623171Y-163600235D01*
X186178218Y-161600358D02*
X276623171Y-161600358D01*
X186178218Y-163600235D02*
X186178218Y-161600358D01*
X276623171Y-172100233D02*
X186178218Y-172100233D01*
X276623171Y-170100355D02*
X276623171Y-172100233D01*
X186178218Y-170100355D02*
X276623171Y-170100355D01*
X186178218Y-127600344D02*
X276623171Y-127600344D01*
X186178218Y-129600222D02*
X186178218Y-127600344D01*
X276623171Y-138100220D02*
X186178218Y-138100220D01*
X276623171Y-136100342D02*
X276623171Y-138100220D01*
X186178218Y-136100342D02*
X276623171Y-136100342D01*
X186178218Y-138100220D02*
X186178218Y-136100342D01*
X276623171Y-146600218D02*
X186178218Y-146600218D01*
X276623171Y-144600340D02*
X276623171Y-146600218D01*
X186178218Y-144600340D02*
X276623171Y-144600340D01*
X276623171Y-121100224D02*
X186178218Y-121100224D01*
X276623171Y-119100346D02*
X276623171Y-121100224D01*
X186178218Y-119100346D02*
X276623171Y-119100346D01*
X186178218Y-121100224D02*
X186178218Y-119100346D01*
X276623171Y-129600222D02*
X186178218Y-129600222D01*
X276623171Y-127600344D02*
X276623171Y-129600222D01*
M02*
