<?xml version="1.0" standalone="no"?>
 <!DOCTYPE svg PUBLIC "-//W3C//DTD SVG 1.1//EN" 
 "http://www.w3.org/Graphics/SVG/1.1/DTD/svg11.dtd"> 
<svg xmlns="http://www.w3.org/2000/svg" version="1.1" 
    width="84.0994cm" height="59.4004cm" viewBox="0 0 331100 233860 ">
<title>SVG Picture created as AInside-F_Mask.svg date 2019/04/12 10:44:05 </title>
  <desc>Picture generated by PCBNEW </desc>
<g style="fill:#000000; fill-opacity:1;stroke:#000000; stroke-opacity:1;
stroke-linecap:round; stroke-linejoin:round; "
 transform="translate(0 0) scale(1 1)">
</g>
<g style="fill:#000000; fill-opacity:0.0; 
stroke:#000000; stroke-width:-0.000393701; stroke-opacity:1; 
stroke-linecap:round; stroke-linejoin:round;">
<g >
</g>
<g style="fill:#000000; fill-opacity:0.0; 
stroke:#000000; stroke-width:957.48; stroke-opacity:1; 
stroke-linecap:round; stroke-linejoin:round;">
<path d="M100734 12464
L101234 12464
" />
<path d="M100734 13464
L101234 13464
" />
<path d="M100734 14464
L101234 14464
" />
</g>
<g >
<path d="M22584 12448
L23084 12448
" />
<path d="M22584 13448
L23084 13448
" />
<path d="M22584 14448
L23084 14448
" />
<path d="M23284 11348
L23784 11348
" />
<path d="M21084 14448
L21584 14448
" />
</g>
<g >
</g>
<g style="fill:#000000; fill-opacity:0.0; 
stroke:#000000; stroke-width:0; stroke-opacity:1; 
stroke-linecap:round; stroke-linejoin:round;">
</g>
<g style="fill:#000000; fill-opacity:1.0; 
stroke:#000000; stroke-width:0; stroke-opacity:1; 
stroke-linecap:round; stroke-linejoin:round;">
<path style="fill:#000000; fill-opacity:1.0; 
stroke:#000000; stroke-width:0; stroke-opacity:1; 
stroke-linecap:round; stroke-linejoin:round;fill-rule:evenodd;"
d="M 75057,13341
75070,13343
75083,13346
75096,13351
75108,13357
75119,13363
75130,13371
75140,13380
75149,13390
75156,13401
75163,13412
75169,13424
75173,13437
75177,13450
75179,13463
75179,13476
75179,13747
75179,13760
75177,13773
75173,13786
75169,13798
75163,13810
75156,13822
75149,13833
75140,13842
75130,13851
75119,13859
75108,13866
75096,13872
75083,13876
75070,13879
75057,13881
75044,13882
74606,13882
74593,13881
74580,13879
74567,13876
74554,13872
74542,13866
74531,13859
74520,13851
74510,13842
74501,13833
74493,13822
74487,13810
74481,13798
74476,13786
74473,13773
74471,13760
74471,13747
74471,13476
74471,13463
74473,13450
74476,13437
74481,13424
74487,13412
74493,13401
74501,13390
74510,13380
74520,13371
74531,13363
74542,13357
74554,13351
74567,13346
74580,13343
74593,13341
74606,13341
75044,13341
75057,13341
Z" /> 
<path style="fill:#000000; fill-opacity:1.0; 
stroke:#000000; stroke-width:0; stroke-opacity:1; 
stroke-linecap:round; stroke-linejoin:round;fill-rule:evenodd;"
d="M 75057,14079
75070,14081
75083,14085
75096,14089
75108,14095
75119,14102
75130,14110
75140,14118
75149,14128
75156,14139
75163,14150
75169,14162
75173,14175
75177,14188
75179,14201
75179,14214
75179,14485
75179,14498
75177,14511
75173,14524
75169,14537
75163,14549
75156,14560
75149,14571
75140,14581
75130,14589
75119,14597
75108,14604
75096,14610
75083,14614
75070,14618
75057,14620
75044,14620
74606,14620
74593,14620
74580,14618
74567,14614
74554,14610
74542,14604
74531,14597
74520,14589
74510,14581
74501,14571
74493,14560
74487,14549
74481,14537
74476,14524
74473,14511
74471,14498
74471,14485
74471,14214
74471,14201
74473,14188
74476,14175
74481,14162
74487,14150
74493,14139
74501,14128
74510,14118
74520,14110
74531,14102
74542,14095
74554,14089
74567,14085
74580,14081
74593,14079
74606,14079
75044,14079
75057,14079
Z" /> 
</g>
<g >
<path style="fill:#000000; fill-opacity:1.0; 
stroke:#000000; stroke-width:0; stroke-opacity:1; 
stroke-linecap:round; stroke-linejoin:round;fill-rule:evenodd;"
d="M 81611,13341
81624,13343
81637,13346
81649,13351
81661,13357
81673,13363
81683,13371
81693,13380
81702,13390
81710,13401
81717,13412
81723,13424
81727,13437
81730,13450
81732,13463
81733,13476
81733,13747
81732,13760
81730,13773
81727,13786
81723,13798
81717,13810
81710,13822
81702,13833
81693,13842
81683,13851
81673,13859
81661,13866
81649,13872
81637,13876
81624,13879
81611,13881
81598,13882
81160,13882
81146,13881
81133,13879
81120,13876
81108,13872
81096,13866
81084,13859
81074,13851
81064,13842
81055,13833
81047,13822
81040,13810
81035,13798
81030,13786
81027,13773
81025,13760
81024,13747
81024,13476
81025,13463
81027,13450
81030,13437
81035,13424
81040,13412
81047,13401
81055,13390
81064,13380
81074,13371
81084,13363
81096,13357
81108,13351
81120,13346
81133,13343
81146,13341
81160,13341
81598,13341
81611,13341
Z" /> 
<path style="fill:#000000; fill-opacity:1.0; 
stroke:#000000; stroke-width:0; stroke-opacity:1; 
stroke-linecap:round; stroke-linejoin:round;fill-rule:evenodd;"
d="M 81611,14079
81624,14081
81637,14085
81649,14089
81661,14095
81673,14102
81683,14110
81693,14118
81702,14128
81710,14139
81717,14150
81723,14162
81727,14175
81730,14188
81732,14201
81733,14214
81733,14485
81732,14498
81730,14511
81727,14524
81723,14537
81717,14549
81710,14560
81702,14571
81693,14581
81683,14589
81673,14597
81661,14604
81649,14610
81637,14614
81624,14618
81611,14620
81598,14620
81160,14620
81146,14620
81133,14618
81120,14614
81108,14610
81096,14604
81084,14597
81074,14589
81064,14581
81055,14571
81047,14560
81040,14549
81035,14537
81030,14524
81027,14511
81025,14498
81024,14485
81024,14214
81025,14201
81027,14188
81030,14175
81035,14162
81040,14150
81047,14139
81055,14128
81064,14118
81074,14110
81084,14102
81096,14095
81108,14089
81120,14085
81133,14081
81146,14079
81160,14079
81598,14079
81611,14079
Z" /> 
</g>
<g >
<path style="fill:#000000; fill-opacity:1.0; 
stroke:#000000; stroke-width:0; stroke-opacity:1; 
stroke-linecap:round; stroke-linejoin:round;fill-rule:evenodd;"
d="M 88164,13341
88178,13343
88191,13346
88203,13351
88215,13357
88226,13363
88237,13371
88247,13380
88256,13390
88264,13401
88271,13412
88276,13424
88281,13437
88284,13450
88286,13463
88287,13476
88287,13747
88286,13760
88284,13773
88281,13786
88276,13798
88271,13810
88264,13822
88256,13833
88247,13842
88237,13851
88226,13859
88215,13866
88203,13872
88191,13876
88178,13879
88164,13881
88151,13882
87713,13882
87700,13881
87687,13879
87674,13876
87661,13872
87649,13866
87638,13859
87627,13851
87618,13842
87609,13833
87601,13822
87594,13810
87588,13798
87584,13786
87580,13773
87579,13760
87578,13747
87578,13476
87579,13463
87580,13450
87584,13437
87588,13424
87594,13412
87601,13401
87609,13390
87618,13380
87627,13371
87638,13363
87649,13357
87661,13351
87674,13346
87687,13343
87700,13341
87713,13341
88151,13341
88164,13341
Z" /> 
<path style="fill:#000000; fill-opacity:1.0; 
stroke:#000000; stroke-width:0; stroke-opacity:1; 
stroke-linecap:round; stroke-linejoin:round;fill-rule:evenodd;"
d="M 88164,14079
88178,14081
88191,14085
88203,14089
88215,14095
88226,14102
88237,14110
88247,14118
88256,14128
88264,14139
88271,14150
88276,14162
88281,14175
88284,14188
88286,14201
88287,14214
88287,14485
88286,14498
88284,14511
88281,14524
88276,14537
88271,14549
88264,14560
88256,14571
88247,14581
88237,14589
88226,14597
88215,14604
88203,14610
88191,14614
88178,14618
88164,14620
88151,14620
87713,14620
87700,14620
87687,14618
87674,14614
87661,14610
87649,14604
87638,14597
87627,14589
87618,14581
87609,14571
87601,14560
87594,14549
87588,14537
87584,14524
87580,14511
87579,14498
87578,14485
87578,14214
87579,14201
87580,14188
87584,14175
87588,14162
87594,14150
87601,14139
87609,14128
87618,14118
87627,14110
87638,14102
87649,14095
87661,14089
87674,14085
87687,14081
87700,14079
87713,14079
88151,14079
88164,14079
Z" /> 
</g>
<g >
<path style="fill:#000000; fill-opacity:1.0; 
stroke:#000000; stroke-width:0; stroke-opacity:1; 
stroke-linecap:round; stroke-linejoin:round;fill-rule:evenodd;"
d="M 94718,13341
94731,13343
94744,13346
94757,13351
94769,13357
94780,13363
94791,13371
94801,13380
94809,13390
94817,13401
94824,13412
94830,13424
94834,13437
94838,13450
94840,13463
94840,13476
94840,13747
94840,13760
94838,13773
94834,13786
94830,13798
94824,13810
94817,13822
94809,13833
94801,13842
94791,13851
94780,13859
94769,13866
94757,13872
94744,13876
94731,13879
94718,13881
94705,13882
94267,13882
94254,13881
94240,13879
94228,13876
94215,13872
94203,13866
94192,13859
94181,13851
94171,13842
94162,13833
94154,13822
94148,13810
94142,13798
94137,13786
94134,13773
94132,13760
94132,13747
94132,13476
94132,13463
94134,13450
94137,13437
94142,13424
94148,13412
94154,13401
94162,13390
94171,13380
94181,13371
94192,13363
94203,13357
94215,13351
94228,13346
94240,13343
94254,13341
94267,13341
94705,13341
94718,13341
Z" /> 
<path style="fill:#000000; fill-opacity:1.0; 
stroke:#000000; stroke-width:0; stroke-opacity:1; 
stroke-linecap:round; stroke-linejoin:round;fill-rule:evenodd;"
d="M 94718,14079
94731,14081
94744,14085
94757,14089
94769,14095
94780,14102
94791,14110
94801,14118
94809,14128
94817,14139
94824,14150
94830,14162
94834,14175
94838,14188
94840,14201
94840,14214
94840,14485
94840,14498
94838,14511
94834,14524
94830,14537
94824,14549
94817,14560
94809,14571
94801,14581
94791,14589
94780,14597
94769,14604
94757,14610
94744,14614
94731,14618
94718,14620
94705,14620
94267,14620
94254,14620
94240,14618
94228,14614
94215,14610
94203,14604
94192,14597
94181,14589
94171,14581
94162,14571
94154,14560
94148,14549
94142,14537
94137,14524
94134,14511
94132,14498
94132,14485
94132,14214
94132,14201
94134,14188
94137,14175
94142,14162
94148,14150
94154,14139
94162,14128
94171,14118
94181,14110
94192,14102
94203,14095
94215,14089
94228,14085
94240,14081
94254,14079
94267,14079
94705,14079
94718,14079
Z" /> 
</g>
<g >
<path style="fill:#000000; fill-opacity:1.0; 
stroke:#000000; stroke-width:0; stroke-opacity:1; 
stroke-linecap:round; stroke-linejoin:round;fill-rule:evenodd;"
d="M 96567,11946
96580,11948
96593,11951
96606,11955
96618,11961
96629,11968
96640,11976
96650,11985
96659,11995
96666,12005
96673,12017
96679,12029
96683,12041
96687,12054
96689,12067
96689,12081
96689,12518
96689,12532
96687,12545
96683,12558
96679,12570
96673,12582
96666,12594
96659,12604
96650,12614
96640,12623
96629,12631
96618,12638
96606,12644
96593,12648
96580,12651
96567,12653
96554,12654
96283,12654
96270,12653
96257,12651
96244,12648
96231,12644
96219,12638
96208,12631
96197,12623
96188,12614
96179,12604
96171,12594
96164,12582
96158,12570
96154,12558
96151,12545
96149,12532
96148,12518
96148,12081
96149,12067
96151,12054
96154,12041
96158,12029
96164,12017
96171,12005
96179,11995
96188,11985
96197,11976
96208,11968
96219,11961
96231,11955
96244,11951
96257,11948
96270,11946
96283,11945
96554,11945
96567,11946
Z" /> 
<path style="fill:#000000; fill-opacity:1.0; 
stroke:#000000; stroke-width:0; stroke-opacity:1; 
stroke-linecap:round; stroke-linejoin:round;fill-rule:evenodd;"
d="M 97305,11946
97319,11948
97331,11951
97344,11955
97356,11961
97367,11968
97378,11976
97388,11985
97397,11995
97405,12005
97411,12017
97417,12029
97422,12041
97425,12054
97427,12067
97427,12081
97427,12518
97427,12532
97425,12545
97422,12558
97417,12570
97411,12582
97405,12594
97397,12604
97388,12614
97378,12623
97367,12631
97356,12638
97344,12644
97331,12648
97319,12651
97305,12653
97292,12654
97021,12654
97008,12653
96995,12651
96982,12648
96970,12644
96958,12638
96946,12631
96936,12623
96926,12614
96917,12604
96909,12594
96902,12582
96896,12570
96892,12558
96889,12545
96887,12532
96886,12518
96886,12081
96887,12067
96889,12054
96892,12041
96896,12029
96902,12017
96909,12005
96917,11995
96926,11985
96936,11976
96946,11968
96958,11961
96970,11955
96982,11951
96995,11948
97008,11946
97021,11945
97292,11945
97305,11946
Z" /> 
</g>
<g >
<path style="fill:#000000; fill-opacity:1.0; 
stroke:#000000; stroke-width:0; stroke-opacity:1; 
stroke-linecap:round; stroke-linejoin:round;fill-rule:evenodd;"
d="M 27022,14175
27022,14726
26274,14726
26274,14175
27022,14175
Z" /> 
<path style="fill:#000000; fill-opacity:1.0; 
stroke:#000000; stroke-width:0; stroke-opacity:1; 
stroke-linecap:round; stroke-linejoin:round;fill-rule:evenodd;"
d="M 27022,13545
27022,14096
26274,14096
26274,13545
27022,13545
Z" /> 
<path style="fill:#000000; fill-opacity:1.0; 
stroke:#000000; stroke-width:0; stroke-opacity:1; 
stroke-linecap:round; stroke-linejoin:round;fill-rule:evenodd;"
d="M 27022,12915
27022,13466
26274,13466
26274,12915
27022,12915
Z" /> 
<path style="fill:#000000; fill-opacity:1.0; 
stroke:#000000; stroke-width:0; stroke-opacity:1; 
stroke-linecap:round; stroke-linejoin:round;fill-rule:evenodd;"
d="M 25093,14175
25093,14726
24345,14726
24345,14175
25093,14175
Z" /> 
<path style="fill:#000000; fill-opacity:1.0; 
stroke:#000000; stroke-width:0; stroke-opacity:1; 
stroke-linecap:round; stroke-linejoin:round;fill-rule:evenodd;"
d="M 25093,13545
25093,14096
24345,14096
24345,13545
25093,13545
Z" /> 
<path style="fill:#000000; fill-opacity:1.0; 
stroke:#000000; stroke-width:0; stroke-opacity:1; 
stroke-linecap:round; stroke-linejoin:round;fill-rule:evenodd;"
d="M 25093,12915
25093,13466
24345,13466
24345,12915
25093,12915
Z" /> 
</g>
<g >
<path style="fill:#000000; fill-opacity:1.0; 
stroke:#000000; stroke-width:0; stroke-opacity:1; 
stroke-linecap:round; stroke-linejoin:round;fill-rule:evenodd;"
d="M 33583,14175
33583,14726
32835,14726
32835,14175
33583,14175
Z" /> 
<path style="fill:#000000; fill-opacity:1.0; 
stroke:#000000; stroke-width:0; stroke-opacity:1; 
stroke-linecap:round; stroke-linejoin:round;fill-rule:evenodd;"
d="M 33583,13545
33583,14096
32835,14096
32835,13545
33583,13545
Z" /> 
<path style="fill:#000000; fill-opacity:1.0; 
stroke:#000000; stroke-width:0; stroke-opacity:1; 
stroke-linecap:round; stroke-linejoin:round;fill-rule:evenodd;"
d="M 33583,12915
33583,13466
32835,13466
32835,12915
33583,12915
Z" /> 
<path style="fill:#000000; fill-opacity:1.0; 
stroke:#000000; stroke-width:0; stroke-opacity:1; 
stroke-linecap:round; stroke-linejoin:round;fill-rule:evenodd;"
d="M 31654,14175
31654,14726
30906,14726
30906,14175
31654,14175
Z" /> 
<path style="fill:#000000; fill-opacity:1.0; 
stroke:#000000; stroke-width:0; stroke-opacity:1; 
stroke-linecap:round; stroke-linejoin:round;fill-rule:evenodd;"
d="M 31654,13545
31654,14096
30906,14096
30906,13545
31654,13545
Z" /> 
<path style="fill:#000000; fill-opacity:1.0; 
stroke:#000000; stroke-width:0; stroke-opacity:1; 
stroke-linecap:round; stroke-linejoin:round;fill-rule:evenodd;"
d="M 31654,12915
31654,13466
30906,13466
30906,12915
31654,12915
Z" /> 
</g>
<g >
<path style="fill:#000000; fill-opacity:1.0; 
stroke:#000000; stroke-width:0; stroke-opacity:1; 
stroke-linecap:round; stroke-linejoin:round;fill-rule:evenodd;"
d="M 99197,14175
99197,14726
98449,14726
98449,14175
99197,14175
Z" /> 
<path style="fill:#000000; fill-opacity:1.0; 
stroke:#000000; stroke-width:0; stroke-opacity:1; 
stroke-linecap:round; stroke-linejoin:round;fill-rule:evenodd;"
d="M 99197,13545
99197,14096
98449,14096
98449,13545
99197,13545
Z" /> 
<path style="fill:#000000; fill-opacity:1.0; 
stroke:#000000; stroke-width:0; stroke-opacity:1; 
stroke-linecap:round; stroke-linejoin:round;fill-rule:evenodd;"
d="M 99197,12915
99197,13466
98449,13466
98449,12915
99197,12915
Z" /> 
<path style="fill:#000000; fill-opacity:1.0; 
stroke:#000000; stroke-width:0; stroke-opacity:1; 
stroke-linecap:round; stroke-linejoin:round;fill-rule:evenodd;"
d="M 97268,14175
97268,14726
96520,14726
96520,14175
97268,14175
Z" /> 
<path style="fill:#000000; fill-opacity:1.0; 
stroke:#000000; stroke-width:0; stroke-opacity:1; 
stroke-linecap:round; stroke-linejoin:round;fill-rule:evenodd;"
d="M 97268,13545
97268,14096
96520,14096
96520,13545
97268,13545
Z" /> 
<path style="fill:#000000; fill-opacity:1.0; 
stroke:#000000; stroke-width:0; stroke-opacity:1; 
stroke-linecap:round; stroke-linejoin:round;fill-rule:evenodd;"
d="M 97268,12915
97268,13466
96520,13466
96520,12915
97268,12915
Z" /> 
</g>
<g >
<path style="fill:#000000; fill-opacity:1.0; 
stroke:#000000; stroke-width:0; stroke-opacity:1; 
stroke-linecap:round; stroke-linejoin:round;fill-rule:evenodd;"
d="M 92636,14175
92636,14726
91888,14726
91888,14175
92636,14175
Z" /> 
<path style="fill:#000000; fill-opacity:1.0; 
stroke:#000000; stroke-width:0; stroke-opacity:1; 
stroke-linecap:round; stroke-linejoin:round;fill-rule:evenodd;"
d="M 92636,13545
92636,14096
91888,14096
91888,13545
92636,13545
Z" /> 
<path style="fill:#000000; fill-opacity:1.0; 
stroke:#000000; stroke-width:0; stroke-opacity:1; 
stroke-linecap:round; stroke-linejoin:round;fill-rule:evenodd;"
d="M 92636,12915
92636,13466
91888,13466
91888,12915
92636,12915
Z" /> 
<path style="fill:#000000; fill-opacity:1.0; 
stroke:#000000; stroke-width:0; stroke-opacity:1; 
stroke-linecap:round; stroke-linejoin:round;fill-rule:evenodd;"
d="M 90707,14175
90707,14726
89959,14726
89959,14175
90707,14175
Z" /> 
<path style="fill:#000000; fill-opacity:1.0; 
stroke:#000000; stroke-width:0; stroke-opacity:1; 
stroke-linecap:round; stroke-linejoin:round;fill-rule:evenodd;"
d="M 90707,13545
90707,14096
89959,14096
89959,13545
90707,13545
Z" /> 
<path style="fill:#000000; fill-opacity:1.0; 
stroke:#000000; stroke-width:0; stroke-opacity:1; 
stroke-linecap:round; stroke-linejoin:round;fill-rule:evenodd;"
d="M 90707,12915
90707,13466
89959,13466
89959,12915
90707,12915
Z" /> 
</g>
<g >
<path style="fill:#000000; fill-opacity:1.0; 
stroke:#000000; stroke-width:0; stroke-opacity:1; 
stroke-linecap:round; stroke-linejoin:round;fill-rule:evenodd;"
d="M 86074,14175
86074,14726
85326,14726
85326,14175
86074,14175
Z" /> 
<path style="fill:#000000; fill-opacity:1.0; 
stroke:#000000; stroke-width:0; stroke-opacity:1; 
stroke-linecap:round; stroke-linejoin:round;fill-rule:evenodd;"
d="M 86074,13545
86074,14096
85326,14096
85326,13545
86074,13545
Z" /> 
<path style="fill:#000000; fill-opacity:1.0; 
stroke:#000000; stroke-width:0; stroke-opacity:1; 
stroke-linecap:round; stroke-linejoin:round;fill-rule:evenodd;"
d="M 86074,12915
86074,13466
85326,13466
85326,12915
86074,12915
Z" /> 
<path style="fill:#000000; fill-opacity:1.0; 
stroke:#000000; stroke-width:0; stroke-opacity:1; 
stroke-linecap:round; stroke-linejoin:round;fill-rule:evenodd;"
d="M 84145,14175
84145,14726
83397,14726
83397,14175
84145,14175
Z" /> 
<path style="fill:#000000; fill-opacity:1.0; 
stroke:#000000; stroke-width:0; stroke-opacity:1; 
stroke-linecap:round; stroke-linejoin:round;fill-rule:evenodd;"
d="M 84145,13545
84145,14096
83397,14096
83397,13545
84145,13545
Z" /> 
<path style="fill:#000000; fill-opacity:1.0; 
stroke:#000000; stroke-width:0; stroke-opacity:1; 
stroke-linecap:round; stroke-linejoin:round;fill-rule:evenodd;"
d="M 84145,12915
84145,13466
83397,13466
83397,12915
84145,12915
Z" /> 
</g>
<g >
<path style="fill:#000000; fill-opacity:1.0; 
stroke:#000000; stroke-width:0; stroke-opacity:1; 
stroke-linecap:round; stroke-linejoin:round;fill-rule:evenodd;"
d="M 79513,14175
79513,14726
78765,14726
78765,14175
79513,14175
Z" /> 
<path style="fill:#000000; fill-opacity:1.0; 
stroke:#000000; stroke-width:0; stroke-opacity:1; 
stroke-linecap:round; stroke-linejoin:round;fill-rule:evenodd;"
d="M 79513,13545
79513,14096
78765,14096
78765,13545
79513,13545
Z" /> 
<path style="fill:#000000; fill-opacity:1.0; 
stroke:#000000; stroke-width:0; stroke-opacity:1; 
stroke-linecap:round; stroke-linejoin:round;fill-rule:evenodd;"
d="M 79513,12915
79513,13466
78765,13466
78765,12915
79513,12915
Z" /> 
<path style="fill:#000000; fill-opacity:1.0; 
stroke:#000000; stroke-width:0; stroke-opacity:1; 
stroke-linecap:round; stroke-linejoin:round;fill-rule:evenodd;"
d="M 77584,14175
77584,14726
76836,14726
76836,14175
77584,14175
Z" /> 
<path style="fill:#000000; fill-opacity:1.0; 
stroke:#000000; stroke-width:0; stroke-opacity:1; 
stroke-linecap:round; stroke-linejoin:round;fill-rule:evenodd;"
d="M 77584,13545
77584,14096
76836,14096
76836,13545
77584,13545
Z" /> 
<path style="fill:#000000; fill-opacity:1.0; 
stroke:#000000; stroke-width:0; stroke-opacity:1; 
stroke-linecap:round; stroke-linejoin:round;fill-rule:evenodd;"
d="M 77584,12915
77584,13466
76836,13466
76836,12915
77584,12915
Z" /> 
</g>
<g >
<path style="fill:#000000; fill-opacity:1.0; 
stroke:#000000; stroke-width:0; stroke-opacity:1; 
stroke-linecap:round; stroke-linejoin:round;fill-rule:evenodd;"
d="M 72952,14175
72952,14726
72204,14726
72204,14175
72952,14175
Z" /> 
<path style="fill:#000000; fill-opacity:1.0; 
stroke:#000000; stroke-width:0; stroke-opacity:1; 
stroke-linecap:round; stroke-linejoin:round;fill-rule:evenodd;"
d="M 72952,13545
72952,14096
72204,14096
72204,13545
72952,13545
Z" /> 
<path style="fill:#000000; fill-opacity:1.0; 
stroke:#000000; stroke-width:0; stroke-opacity:1; 
stroke-linecap:round; stroke-linejoin:round;fill-rule:evenodd;"
d="M 72952,12915
72952,13466
72204,13466
72204,12915
72952,12915
Z" /> 
<path style="fill:#000000; fill-opacity:1.0; 
stroke:#000000; stroke-width:0; stroke-opacity:1; 
stroke-linecap:round; stroke-linejoin:round;fill-rule:evenodd;"
d="M 71022,14175
71022,14726
70274,14726
70274,14175
71022,14175
Z" /> 
<path style="fill:#000000; fill-opacity:1.0; 
stroke:#000000; stroke-width:0; stroke-opacity:1; 
stroke-linecap:round; stroke-linejoin:round;fill-rule:evenodd;"
d="M 71022,13545
71022,14096
70274,14096
70274,13545
71022,13545
Z" /> 
<path style="fill:#000000; fill-opacity:1.0; 
stroke:#000000; stroke-width:0; stroke-opacity:1; 
stroke-linecap:round; stroke-linejoin:round;fill-rule:evenodd;"
d="M 71022,12915
71022,13466
70274,13466
70274,12915
71022,12915
Z" /> 
</g>
<g >
<path style="fill:#000000; fill-opacity:1.0; 
stroke:#000000; stroke-width:0; stroke-opacity:1; 
stroke-linecap:round; stroke-linejoin:round;fill-rule:evenodd;"
d="M 66390,14175
66390,14726
65642,14726
65642,14175
66390,14175
Z" /> 
<path style="fill:#000000; fill-opacity:1.0; 
stroke:#000000; stroke-width:0; stroke-opacity:1; 
stroke-linecap:round; stroke-linejoin:round;fill-rule:evenodd;"
d="M 66390,13545
66390,14096
65642,14096
65642,13545
66390,13545
Z" /> 
<path style="fill:#000000; fill-opacity:1.0; 
stroke:#000000; stroke-width:0; stroke-opacity:1; 
stroke-linecap:round; stroke-linejoin:round;fill-rule:evenodd;"
d="M 66390,12915
66390,13466
65642,13466
65642,12915
66390,12915
Z" /> 
<path style="fill:#000000; fill-opacity:1.0; 
stroke:#000000; stroke-width:0; stroke-opacity:1; 
stroke-linecap:round; stroke-linejoin:round;fill-rule:evenodd;"
d="M 64461,14175
64461,14726
63713,14726
63713,14175
64461,14175
Z" /> 
<path style="fill:#000000; fill-opacity:1.0; 
stroke:#000000; stroke-width:0; stroke-opacity:1; 
stroke-linecap:round; stroke-linejoin:round;fill-rule:evenodd;"
d="M 64461,13545
64461,14096
63713,14096
63713,13545
64461,13545
Z" /> 
<path style="fill:#000000; fill-opacity:1.0; 
stroke:#000000; stroke-width:0; stroke-opacity:1; 
stroke-linecap:round; stroke-linejoin:round;fill-rule:evenodd;"
d="M 64461,12915
64461,13466
63713,13466
63713,12915
64461,12915
Z" /> 
</g>
<g >
<path style="fill:#000000; fill-opacity:1.0; 
stroke:#000000; stroke-width:0; stroke-opacity:1; 
stroke-linecap:round; stroke-linejoin:round;fill-rule:evenodd;"
d="M 59829,14175
59829,14726
59081,14726
59081,14175
59829,14175
Z" /> 
<path style="fill:#000000; fill-opacity:1.0; 
stroke:#000000; stroke-width:0; stroke-opacity:1; 
stroke-linecap:round; stroke-linejoin:round;fill-rule:evenodd;"
d="M 59829,13545
59829,14096
59081,14096
59081,13545
59829,13545
Z" /> 
<path style="fill:#000000; fill-opacity:1.0; 
stroke:#000000; stroke-width:0; stroke-opacity:1; 
stroke-linecap:round; stroke-linejoin:round;fill-rule:evenodd;"
d="M 59829,12915
59829,13466
59081,13466
59081,12915
59829,12915
Z" /> 
<path style="fill:#000000; fill-opacity:1.0; 
stroke:#000000; stroke-width:0; stroke-opacity:1; 
stroke-linecap:round; stroke-linejoin:round;fill-rule:evenodd;"
d="M 57900,14175
57900,14726
57152,14726
57152,14175
57900,14175
Z" /> 
<path style="fill:#000000; fill-opacity:1.0; 
stroke:#000000; stroke-width:0; stroke-opacity:1; 
stroke-linecap:round; stroke-linejoin:round;fill-rule:evenodd;"
d="M 57900,13545
57900,14096
57152,14096
57152,13545
57900,13545
Z" /> 
<path style="fill:#000000; fill-opacity:1.0; 
stroke:#000000; stroke-width:0; stroke-opacity:1; 
stroke-linecap:round; stroke-linejoin:round;fill-rule:evenodd;"
d="M 57900,12915
57900,13466
57152,13466
57152,12915
57900,12915
Z" /> 
</g>
<g >
<path style="fill:#000000; fill-opacity:1.0; 
stroke:#000000; stroke-width:0; stroke-opacity:1; 
stroke-linecap:round; stroke-linejoin:round;fill-rule:evenodd;"
d="M 53268,14175
53268,14726
52520,14726
52520,14175
53268,14175
Z" /> 
<path style="fill:#000000; fill-opacity:1.0; 
stroke:#000000; stroke-width:0; stroke-opacity:1; 
stroke-linecap:round; stroke-linejoin:round;fill-rule:evenodd;"
d="M 53268,13545
53268,14096
52520,14096
52520,13545
53268,13545
Z" /> 
<path style="fill:#000000; fill-opacity:1.0; 
stroke:#000000; stroke-width:0; stroke-opacity:1; 
stroke-linecap:round; stroke-linejoin:round;fill-rule:evenodd;"
d="M 53268,12915
53268,13466
52520,13466
52520,12915
53268,12915
Z" /> 
<path style="fill:#000000; fill-opacity:1.0; 
stroke:#000000; stroke-width:0; stroke-opacity:1; 
stroke-linecap:round; stroke-linejoin:round;fill-rule:evenodd;"
d="M 51338,14175
51338,14726
50590,14726
50590,14175
51338,14175
Z" /> 
<path style="fill:#000000; fill-opacity:1.0; 
stroke:#000000; stroke-width:0; stroke-opacity:1; 
stroke-linecap:round; stroke-linejoin:round;fill-rule:evenodd;"
d="M 51338,13545
51338,14096
50590,14096
50590,13545
51338,13545
Z" /> 
<path style="fill:#000000; fill-opacity:1.0; 
stroke:#000000; stroke-width:0; stroke-opacity:1; 
stroke-linecap:round; stroke-linejoin:round;fill-rule:evenodd;"
d="M 51338,12915
51338,13466
50590,13466
50590,12915
51338,12915
Z" /> 
</g>
<g >
<path style="fill:#000000; fill-opacity:1.0; 
stroke:#000000; stroke-width:0; stroke-opacity:1; 
stroke-linecap:round; stroke-linejoin:round;fill-rule:evenodd;"
d="M 46706,14175
46706,14726
45958,14726
45958,14175
46706,14175
Z" /> 
<path style="fill:#000000; fill-opacity:1.0; 
stroke:#000000; stroke-width:0; stroke-opacity:1; 
stroke-linecap:round; stroke-linejoin:round;fill-rule:evenodd;"
d="M 46706,13545
46706,14096
45958,14096
45958,13545
46706,13545
Z" /> 
<path style="fill:#000000; fill-opacity:1.0; 
stroke:#000000; stroke-width:0; stroke-opacity:1; 
stroke-linecap:round; stroke-linejoin:round;fill-rule:evenodd;"
d="M 46706,12915
46706,13466
45958,13466
45958,12915
46706,12915
Z" /> 
<path style="fill:#000000; fill-opacity:1.0; 
stroke:#000000; stroke-width:0; stroke-opacity:1; 
stroke-linecap:round; stroke-linejoin:round;fill-rule:evenodd;"
d="M 44777,14175
44777,14726
44029,14726
44029,14175
44777,14175
Z" /> 
<path style="fill:#000000; fill-opacity:1.0; 
stroke:#000000; stroke-width:0; stroke-opacity:1; 
stroke-linecap:round; stroke-linejoin:round;fill-rule:evenodd;"
d="M 44777,13545
44777,14096
44029,14096
44029,13545
44777,13545
Z" /> 
<path style="fill:#000000; fill-opacity:1.0; 
stroke:#000000; stroke-width:0; stroke-opacity:1; 
stroke-linecap:round; stroke-linejoin:round;fill-rule:evenodd;"
d="M 44777,12915
44777,13466
44029,13466
44029,12915
44777,12915
Z" /> 
</g>
<g >
<path style="fill:#000000; fill-opacity:1.0; 
stroke:#000000; stroke-width:0; stroke-opacity:1; 
stroke-linecap:round; stroke-linejoin:round;fill-rule:evenodd;"
d="M 40145,14175
40145,14726
39397,14726
39397,14175
40145,14175
Z" /> 
<path style="fill:#000000; fill-opacity:1.0; 
stroke:#000000; stroke-width:0; stroke-opacity:1; 
stroke-linecap:round; stroke-linejoin:round;fill-rule:evenodd;"
d="M 40145,13545
40145,14096
39397,14096
39397,13545
40145,13545
Z" /> 
<path style="fill:#000000; fill-opacity:1.0; 
stroke:#000000; stroke-width:0; stroke-opacity:1; 
stroke-linecap:round; stroke-linejoin:round;fill-rule:evenodd;"
d="M 40145,12915
40145,13466
39397,13466
39397,12915
40145,12915
Z" /> 
<path style="fill:#000000; fill-opacity:1.0; 
stroke:#000000; stroke-width:0; stroke-opacity:1; 
stroke-linecap:round; stroke-linejoin:round;fill-rule:evenodd;"
d="M 38216,14175
38216,14726
37468,14726
37468,14175
38216,14175
Z" /> 
<path style="fill:#000000; fill-opacity:1.0; 
stroke:#000000; stroke-width:0; stroke-opacity:1; 
stroke-linecap:round; stroke-linejoin:round;fill-rule:evenodd;"
d="M 38216,13545
38216,14096
37468,14096
37468,13545
38216,13545
Z" /> 
<path style="fill:#000000; fill-opacity:1.0; 
stroke:#000000; stroke-width:0; stroke-opacity:1; 
stroke-linecap:round; stroke-linejoin:round;fill-rule:evenodd;"
d="M 38216,12915
38216,13466
37468,13466
37468,12915
38216,12915
Z" /> 
</g>
<g >
<path style="fill:#000000; fill-opacity:1.0; 
stroke:#000000; stroke-width:0; stroke-opacity:1; 
stroke-linecap:round; stroke-linejoin:round;fill-rule:evenodd;"
d="M 27982,13929
27995,13931
28008,13935
28020,13939
28032,13945
28044,13952
28054,13960
28064,13968
28073,13978
28081,13989
28088,14000
28094,14012
28098,14025
28101,14038
28103,14051
28104,14064
28104,14335
28103,14348
28101,14361
28098,14374
28094,14387
28088,14399
28081,14410
28073,14421
28064,14431
28054,14439
28044,14447
28032,14454
28020,14460
28008,14464
27995,14468
27982,14470
27968,14470
27531,14470
27517,14470
27504,14468
27491,14464
27479,14460
27467,14454
27455,14447
27445,14439
27435,14431
27426,14421
27418,14410
27411,14399
27405,14387
27401,14374
27398,14361
27396,14348
27395,14335
27395,14064
27396,14051
27398,14038
27401,14025
27405,14012
27411,14000
27418,13989
27426,13978
27435,13968
27445,13960
27455,13952
27467,13945
27479,13939
27491,13935
27504,13931
27517,13929
27531,13929
27968,13929
27982,13929
Z" /> 
<path style="fill:#000000; fill-opacity:1.0; 
stroke:#000000; stroke-width:0; stroke-opacity:1; 
stroke-linecap:round; stroke-linejoin:round;fill-rule:evenodd;"
d="M 27982,13191
27995,13193
28008,13196
28020,13201
28032,13207
28044,13213
28054,13221
28064,13230
28073,13240
28081,13251
28088,13262
28094,13274
28098,13287
28101,13300
28103,13313
28104,13326
28104,13597
28103,13610
28101,13623
28098,13636
28094,13648
28088,13660
28081,13672
28073,13683
28064,13692
28054,13701
28044,13709
28032,13716
28020,13722
28008,13726
27995,13729
27982,13731
27968,13732
27531,13732
27517,13731
27504,13729
27491,13726
27479,13722
27467,13716
27455,13709
27445,13701
27435,13692
27426,13683
27418,13672
27411,13660
27405,13648
27401,13636
27398,13623
27396,13610
27395,13597
27395,13326
27396,13313
27398,13300
27401,13287
27405,13274
27411,13262
27418,13251
27426,13240
27435,13230
27445,13221
27455,13213
27467,13207
27479,13201
27491,13196
27504,13193
27517,13191
27531,13191
27968,13191
27982,13191
Z" /> 
</g>
<g >
<path style="fill:#000000; fill-opacity:1.0; 
stroke:#000000; stroke-width:0; stroke-opacity:1; 
stroke-linecap:round; stroke-linejoin:round;fill-rule:evenodd;"
d="M 34635,14079
34649,14081
34661,14085
34674,14089
34686,14095
34697,14102
34708,14110
34718,14118
34727,14128
34735,14139
34741,14150
34747,14162
34752,14175
34755,14188
34757,14201
34757,14214
34757,14485
34757,14498
34755,14511
34752,14524
34747,14537
34741,14549
34735,14560
34727,14571
34718,14581
34708,14589
34697,14597
34686,14604
34674,14610
34661,14614
34649,14618
34635,14620
34622,14620
34184,14620
34171,14620
34158,14618
34145,14614
34132,14610
34120,14604
34109,14597
34098,14589
34088,14581
34080,14571
34072,14560
34065,14549
34059,14537
34055,14524
34051,14511
34049,14498
34049,14485
34049,14214
34049,14201
34051,14188
34055,14175
34059,14162
34065,14150
34072,14139
34080,14128
34088,14118
34098,14110
34109,14102
34120,14095
34132,14089
34145,14085
34158,14081
34171,14079
34184,14079
34622,14079
34635,14079
Z" /> 
<path style="fill:#000000; fill-opacity:1.0; 
stroke:#000000; stroke-width:0; stroke-opacity:1; 
stroke-linecap:round; stroke-linejoin:round;fill-rule:evenodd;"
d="M 34635,13341
34649,13343
34661,13346
34674,13351
34686,13357
34697,13363
34708,13371
34718,13380
34727,13390
34735,13401
34741,13412
34747,13424
34752,13437
34755,13450
34757,13463
34757,13476
34757,13747
34757,13760
34755,13773
34752,13786
34747,13798
34741,13810
34735,13822
34727,13833
34718,13842
34708,13851
34697,13859
34686,13866
34674,13872
34661,13876
34649,13879
34635,13881
34622,13882
34184,13882
34171,13881
34158,13879
34145,13876
34132,13872
34120,13866
34109,13859
34098,13851
34088,13842
34080,13833
34072,13822
34065,13810
34059,13798
34055,13786
34051,13773
34049,13760
34049,13747
34049,13476
34049,13463
34051,13450
34055,13437
34059,13424
34065,13412
34072,13401
34080,13390
34088,13380
34098,13371
34109,13363
34120,13357
34132,13351
34145,13346
34158,13343
34171,13341
34184,13341
34622,13341
34635,13341
Z" /> 
</g>
<g >
<path style="fill:#000000; fill-opacity:1.0; 
stroke:#000000; stroke-width:0; stroke-opacity:1; 
stroke-linecap:round; stroke-linejoin:round;fill-rule:evenodd;"
d="M 41189,14079
41202,14081
41215,14085
41228,14089
41240,14095
41251,14102
41262,14110
41271,14118
41280,14128
41288,14139
41295,14150
41301,14162
41305,14175
41309,14188
41310,14201
41311,14214
41311,14485
41310,14498
41309,14511
41305,14524
41301,14537
41295,14549
41288,14560
41280,14571
41271,14581
41262,14589
41251,14597
41240,14604
41228,14610
41215,14614
41202,14618
41189,14620
41176,14620
40738,14620
40725,14620
40711,14618
40698,14614
40686,14610
40674,14604
40663,14597
40652,14589
40642,14581
40633,14571
40625,14560
40618,14549
40613,14537
40608,14524
40605,14511
40603,14498
40602,14485
40602,14214
40603,14201
40605,14188
40608,14175
40613,14162
40618,14150
40625,14139
40633,14128
40642,14118
40652,14110
40663,14102
40674,14095
40686,14089
40698,14085
40711,14081
40725,14079
40738,14079
41176,14079
41189,14079
Z" /> 
<path style="fill:#000000; fill-opacity:1.0; 
stroke:#000000; stroke-width:0; stroke-opacity:1; 
stroke-linecap:round; stroke-linejoin:round;fill-rule:evenodd;"
d="M 41189,13341
41202,13343
41215,13346
41228,13351
41240,13357
41251,13363
41262,13371
41271,13380
41280,13390
41288,13401
41295,13412
41301,13424
41305,13437
41309,13450
41310,13463
41311,13476
41311,13747
41310,13760
41309,13773
41305,13786
41301,13798
41295,13810
41288,13822
41280,13833
41271,13842
41262,13851
41251,13859
41240,13866
41228,13872
41215,13876
41202,13879
41189,13881
41176,13882
40738,13882
40725,13881
40711,13879
40698,13876
40686,13872
40674,13866
40663,13859
40652,13851
40642,13842
40633,13833
40625,13822
40618,13810
40613,13798
40608,13786
40605,13773
40603,13760
40602,13747
40602,13476
40603,13463
40605,13450
40608,13437
40613,13424
40618,13412
40625,13401
40633,13390
40642,13380
40652,13371
40663,13363
40674,13357
40686,13351
40698,13346
40711,13343
40725,13341
40738,13341
41176,13341
41189,13341
Z" /> 
</g>
<g >
<path style="fill:#000000; fill-opacity:1.0; 
stroke:#000000; stroke-width:0; stroke-opacity:1; 
stroke-linecap:round; stroke-linejoin:round;fill-rule:evenodd;"
d="M 47743,14079
47756,14081
47769,14085
47781,14089
47793,14095
47805,14102
47815,14110
47825,14118
47834,14128
47842,14139
47849,14150
47854,14162
47859,14175
47862,14188
47864,14201
47865,14214
47865,14485
47864,14498
47862,14511
47859,14524
47854,14537
47849,14549
47842,14560
47834,14571
47825,14581
47815,14589
47805,14597
47793,14604
47781,14610
47769,14614
47756,14618
47743,14620
47729,14620
47291,14620
47278,14620
47265,14618
47252,14614
47240,14610
47228,14604
47216,14597
47206,14589
47196,14581
47187,14571
47179,14560
47172,14549
47166,14537
47162,14524
47159,14511
47157,14498
47156,14485
47156,14214
47157,14201
47159,14188
47162,14175
47166,14162
47172,14150
47179,14139
47187,14128
47196,14118
47206,14110
47216,14102
47228,14095
47240,14089
47252,14085
47265,14081
47278,14079
47291,14079
47729,14079
47743,14079
Z" /> 
<path style="fill:#000000; fill-opacity:1.0; 
stroke:#000000; stroke-width:0; stroke-opacity:1; 
stroke-linecap:round; stroke-linejoin:round;fill-rule:evenodd;"
d="M 47743,13341
47756,13343
47769,13346
47781,13351
47793,13357
47805,13363
47815,13371
47825,13380
47834,13390
47842,13401
47849,13412
47854,13424
47859,13437
47862,13450
47864,13463
47865,13476
47865,13747
47864,13760
47862,13773
47859,13786
47854,13798
47849,13810
47842,13822
47834,13833
47825,13842
47815,13851
47805,13859
47793,13866
47781,13872
47769,13876
47756,13879
47743,13881
47729,13882
47291,13882
47278,13881
47265,13879
47252,13876
47240,13872
47228,13866
47216,13859
47206,13851
47196,13842
47187,13833
47179,13822
47172,13810
47166,13798
47162,13786
47159,13773
47157,13760
47156,13747
47156,13476
47157,13463
47159,13450
47162,13437
47166,13424
47172,13412
47179,13401
47187,13390
47196,13380
47206,13371
47216,13363
47228,13357
47240,13351
47252,13346
47265,13343
47278,13341
47291,13341
47729,13341
47743,13341
Z" /> 
</g>
<g >
<path style="fill:#000000; fill-opacity:1.0; 
stroke:#000000; stroke-width:0; stroke-opacity:1; 
stroke-linecap:round; stroke-linejoin:round;fill-rule:evenodd;"
d="M 54296,14079
54309,14081
54322,14085
54335,14089
54347,14095
54358,14102
54369,14110
54379,14118
54388,14128
54396,14139
54402,14150
54408,14162
54413,14175
54416,14188
54418,14201
54418,14214
54418,14485
54418,14498
54416,14511
54413,14524
54408,14537
54402,14549
54396,14560
54388,14571
54379,14581
54369,14589
54358,14597
54347,14604
54335,14610
54322,14614
54309,14618
54296,14620
54283,14620
53845,14620
53832,14620
53819,14618
53806,14614
53793,14610
53781,14604
53770,14597
53759,14589
53749,14581
53740,14571
53733,14560
53726,14549
53720,14537
53716,14524
53712,14511
53710,14498
53710,14485
53710,14214
53710,14201
53712,14188
53716,14175
53720,14162
53726,14150
53733,14139
53740,14128
53749,14118
53759,14110
53770,14102
53781,14095
53793,14089
53806,14085
53819,14081
53832,14079
53845,14079
54283,14079
54296,14079
Z" /> 
<path style="fill:#000000; fill-opacity:1.0; 
stroke:#000000; stroke-width:0; stroke-opacity:1; 
stroke-linecap:round; stroke-linejoin:round;fill-rule:evenodd;"
d="M 54296,13341
54309,13343
54322,13346
54335,13351
54347,13357
54358,13363
54369,13371
54379,13380
54388,13390
54396,13401
54402,13412
54408,13424
54413,13437
54416,13450
54418,13463
54418,13476
54418,13747
54418,13760
54416,13773
54413,13786
54408,13798
54402,13810
54396,13822
54388,13833
54379,13842
54369,13851
54358,13859
54347,13866
54335,13872
54322,13876
54309,13879
54296,13881
54283,13882
53845,13882
53832,13881
53819,13879
53806,13876
53793,13872
53781,13866
53770,13859
53759,13851
53749,13842
53740,13833
53733,13822
53726,13810
53720,13798
53716,13786
53712,13773
53710,13760
53710,13747
53710,13476
53710,13463
53712,13450
53716,13437
53720,13424
53726,13412
53733,13401
53740,13390
53749,13380
53759,13371
53770,13363
53781,13357
53793,13351
53806,13346
53819,13343
53832,13341
53845,13341
54283,13341
54296,13341
Z" /> 
</g>
<g >
<path style="fill:#000000; fill-opacity:1.0; 
stroke:#000000; stroke-width:0; stroke-opacity:1; 
stroke-linecap:round; stroke-linejoin:round;fill-rule:evenodd;"
d="M 60682,14079
60695,14081
60708,14085
60720,14089
60732,14095
60744,14102
60754,14110
60764,14118
60773,14128
60781,14139
60788,14150
60794,14162
60798,14175
60801,14188
60803,14201
60804,14214
60804,14485
60803,14498
60801,14511
60798,14524
60794,14537
60788,14549
60781,14560
60773,14571
60764,14581
60754,14589
60744,14597
60732,14604
60720,14610
60708,14614
60695,14618
60682,14620
60668,14620
60231,14620
60217,14620
60204,14618
60191,14614
60179,14610
60167,14604
60155,14597
60145,14589
60135,14581
60126,14571
60118,14560
60111,14549
60105,14537
60101,14524
60098,14511
60096,14498
60095,14485
60095,14214
60096,14201
60098,14188
60101,14175
60105,14162
60111,14150
60118,14139
60126,14128
60135,14118
60145,14110
60155,14102
60167,14095
60179,14089
60191,14085
60204,14081
60217,14079
60231,14079
60668,14079
60682,14079
Z" /> 
<path style="fill:#000000; fill-opacity:1.0; 
stroke:#000000; stroke-width:0; stroke-opacity:1; 
stroke-linecap:round; stroke-linejoin:round;fill-rule:evenodd;"
d="M 60682,13341
60695,13343
60708,13346
60720,13351
60732,13357
60744,13363
60754,13371
60764,13380
60773,13390
60781,13401
60788,13412
60794,13424
60798,13437
60801,13450
60803,13463
60804,13476
60804,13747
60803,13760
60801,13773
60798,13786
60794,13798
60788,13810
60781,13822
60773,13833
60764,13842
60754,13851
60744,13859
60732,13866
60720,13872
60708,13876
60695,13879
60682,13881
60668,13882
60231,13882
60217,13881
60204,13879
60191,13876
60179,13872
60167,13866
60155,13859
60145,13851
60135,13842
60126,13833
60118,13822
60111,13810
60105,13798
60101,13786
60098,13773
60096,13760
60095,13747
60095,13476
60096,13463
60098,13450
60101,13437
60105,13424
60111,13412
60118,13401
60126,13390
60135,13380
60145,13371
60155,13363
60167,13357
60179,13351
60191,13346
60204,13343
60217,13341
60231,13341
60668,13341
60682,13341
Z" /> 
</g>
<g >
<path style="fill:#000000; fill-opacity:1.0; 
stroke:#000000; stroke-width:0; stroke-opacity:1; 
stroke-linecap:round; stroke-linejoin:round;fill-rule:evenodd;"
d="M 67404,14079
67417,14081
67430,14085
67442,14089
67454,14095
67466,14102
67476,14110
67486,14118
67495,14128
67503,14139
67510,14150
67515,14162
67520,14175
67523,14188
67525,14201
67526,14214
67526,14485
67525,14498
67523,14511
67520,14524
67515,14537
67510,14549
67503,14560
67495,14571
67486,14581
67476,14589
67466,14597
67454,14604
67442,14610
67430,14614
67417,14618
67404,14620
67390,14620
66952,14620
66939,14620
66926,14618
66913,14614
66901,14610
66889,14604
66877,14597
66866,14589
66857,14581
66848,14571
66840,14560
66833,14549
66827,14537
66823,14524
66820,14511
66818,14498
66817,14485
66817,14214
66818,14201
66820,14188
66823,14175
66827,14162
66833,14150
66840,14139
66848,14128
66857,14118
66866,14110
66877,14102
66889,14095
66901,14089
66913,14085
66926,14081
66939,14079
66952,14079
67390,14079
67404,14079
Z" /> 
<path style="fill:#000000; fill-opacity:1.0; 
stroke:#000000; stroke-width:0; stroke-opacity:1; 
stroke-linecap:round; stroke-linejoin:round;fill-rule:evenodd;"
d="M 67404,13341
67417,13343
67430,13346
67442,13351
67454,13357
67466,13363
67476,13371
67486,13380
67495,13390
67503,13401
67510,13412
67515,13424
67520,13437
67523,13450
67525,13463
67526,13476
67526,13747
67525,13760
67523,13773
67520,13786
67515,13798
67510,13810
67503,13822
67495,13833
67486,13842
67476,13851
67466,13859
67454,13866
67442,13872
67430,13876
67417,13879
67404,13881
67390,13882
66952,13882
66939,13881
66926,13879
66913,13876
66901,13872
66889,13866
66877,13859
66866,13851
66857,13842
66848,13833
66840,13822
66833,13810
66827,13798
66823,13786
66820,13773
66818,13760
66817,13747
66817,13476
66818,13463
66820,13450
66823,13437
66827,13424
66833,13412
66840,13401
66848,13390
66857,13380
66866,13371
66877,13363
66889,13357
66901,13351
66913,13346
66926,13343
66939,13341
66952,13341
67390,13341
67404,13341
Z" /> 
</g>
<g >
<path style="fill:#000000; fill-opacity:1.0; 
stroke:#000000; stroke-width:0; stroke-opacity:1; 
stroke-linecap:round; stroke-linejoin:round;fill-rule:evenodd;"
d="M 73957,14079
73970,14081
73983,14085
73996,14089
74008,14095
74019,14102
74030,14110
74040,14118
74049,14128
74056,14139
74063,14150
74069,14162
74073,14175
74077,14188
74079,14201
74079,14214
74079,14485
74079,14498
74077,14511
74073,14524
74069,14537
74063,14549
74056,14560
74049,14571
74040,14581
74030,14589
74019,14597
74008,14604
73996,14610
73983,14614
73970,14618
73957,14620
73944,14620
73506,14620
73493,14620
73480,14618
73467,14614
73454,14610
73442,14604
73431,14597
73420,14589
73410,14581
73401,14571
73393,14560
73387,14549
73381,14537
73376,14524
73373,14511
73371,14498
73371,14485
73371,14214
73371,14201
73373,14188
73376,14175
73381,14162
73387,14150
73393,14139
73401,14128
73410,14118
73420,14110
73431,14102
73442,14095
73454,14089
73467,14085
73480,14081
73493,14079
73506,14079
73944,14079
73957,14079
Z" /> 
<path style="fill:#000000; fill-opacity:1.0; 
stroke:#000000; stroke-width:0; stroke-opacity:1; 
stroke-linecap:round; stroke-linejoin:round;fill-rule:evenodd;"
d="M 73957,13341
73970,13343
73983,13346
73996,13351
74008,13357
74019,13363
74030,13371
74040,13380
74049,13390
74056,13401
74063,13412
74069,13424
74073,13437
74077,13450
74079,13463
74079,13476
74079,13747
74079,13760
74077,13773
74073,13786
74069,13798
74063,13810
74056,13822
74049,13833
74040,13842
74030,13851
74019,13859
74008,13866
73996,13872
73983,13876
73970,13879
73957,13881
73944,13882
73506,13882
73493,13881
73480,13879
73467,13876
73454,13872
73442,13866
73431,13859
73420,13851
73410,13842
73401,13833
73393,13822
73387,13810
73381,13798
73376,13786
73373,13773
73371,13760
73371,13747
73371,13476
73371,13463
73373,13450
73376,13437
73381,13424
73387,13412
73393,13401
73401,13390
73410,13380
73420,13371
73431,13363
73442,13357
73454,13351
73467,13346
73480,13343
73493,13341
73506,13341
73944,13341
73957,13341
Z" /> 
</g>
<g >
<path style="fill:#000000; fill-opacity:1.0; 
stroke:#000000; stroke-width:0; stroke-opacity:1; 
stroke-linecap:round; stroke-linejoin:round;fill-rule:evenodd;"
d="M 80511,14079
80524,14081
80537,14085
80549,14089
80561,14095
80573,14102
80583,14110
80593,14118
80602,14128
80610,14139
80617,14150
80623,14162
80627,14175
80630,14188
80632,14201
80633,14214
80633,14485
80632,14498
80630,14511
80627,14524
80623,14537
80617,14549
80610,14560
80602,14571
80593,14581
80583,14589
80573,14597
80561,14604
80549,14610
80537,14614
80524,14618
80511,14620
80498,14620
80060,14620
80046,14620
80033,14618
80020,14614
80008,14610
79996,14604
79984,14597
79974,14589
79964,14581
79955,14571
79947,14560
79940,14549
79935,14537
79930,14524
79927,14511
79925,14498
79924,14485
79924,14214
79925,14201
79927,14188
79930,14175
79935,14162
79940,14150
79947,14139
79955,14128
79964,14118
79974,14110
79984,14102
79996,14095
80008,14089
80020,14085
80033,14081
80046,14079
80060,14079
80498,14079
80511,14079
Z" /> 
<path style="fill:#000000; fill-opacity:1.0; 
stroke:#000000; stroke-width:0; stroke-opacity:1; 
stroke-linecap:round; stroke-linejoin:round;fill-rule:evenodd;"
d="M 80511,13341
80524,13343
80537,13346
80549,13351
80561,13357
80573,13363
80583,13371
80593,13380
80602,13390
80610,13401
80617,13412
80623,13424
80627,13437
80630,13450
80632,13463
80633,13476
80633,13747
80632,13760
80630,13773
80627,13786
80623,13798
80617,13810
80610,13822
80602,13833
80593,13842
80583,13851
80573,13859
80561,13866
80549,13872
80537,13876
80524,13879
80511,13881
80498,13882
80060,13882
80046,13881
80033,13879
80020,13876
80008,13872
79996,13866
79984,13859
79974,13851
79964,13842
79955,13833
79947,13822
79940,13810
79935,13798
79930,13786
79927,13773
79925,13760
79924,13747
79924,13476
79925,13463
79927,13450
79930,13437
79935,13424
79940,13412
79947,13401
79955,13390
79964,13380
79974,13371
79984,13363
79996,13357
80008,13351
80020,13346
80033,13343
80046,13341
80060,13341
80498,13341
80511,13341
Z" /> 
</g>
<g >
<path style="fill:#000000; fill-opacity:1.0; 
stroke:#000000; stroke-width:0; stroke-opacity:1; 
stroke-linecap:round; stroke-linejoin:round;fill-rule:evenodd;"
d="M 87064,14079
87078,14081
87091,14085
87103,14089
87115,14095
87126,14102
87137,14110
87147,14118
87156,14128
87164,14139
87171,14150
87176,14162
87181,14175
87184,14188
87186,14201
87187,14214
87187,14485
87186,14498
87184,14511
87181,14524
87176,14537
87171,14549
87164,14560
87156,14571
87147,14581
87137,14589
87126,14597
87115,14604
87103,14610
87091,14614
87078,14618
87064,14620
87051,14620
86613,14620
86600,14620
86587,14618
86574,14614
86561,14610
86549,14604
86538,14597
86527,14589
86518,14581
86509,14571
86501,14560
86494,14549
86488,14537
86484,14524
86480,14511
86479,14498
86478,14485
86478,14214
86479,14201
86480,14188
86484,14175
86488,14162
86494,14150
86501,14139
86509,14128
86518,14118
86527,14110
86538,14102
86549,14095
86561,14089
86574,14085
86587,14081
86600,14079
86613,14079
87051,14079
87064,14079
Z" /> 
<path style="fill:#000000; fill-opacity:1.0; 
stroke:#000000; stroke-width:0; stroke-opacity:1; 
stroke-linecap:round; stroke-linejoin:round;fill-rule:evenodd;"
d="M 87064,13341
87078,13343
87091,13346
87103,13351
87115,13357
87126,13363
87137,13371
87147,13380
87156,13390
87164,13401
87171,13412
87176,13424
87181,13437
87184,13450
87186,13463
87187,13476
87187,13747
87186,13760
87184,13773
87181,13786
87176,13798
87171,13810
87164,13822
87156,13833
87147,13842
87137,13851
87126,13859
87115,13866
87103,13872
87091,13876
87078,13879
87064,13881
87051,13882
86613,13882
86600,13881
86587,13879
86574,13876
86561,13872
86549,13866
86538,13859
86527,13851
86518,13842
86509,13833
86501,13822
86494,13810
86488,13798
86484,13786
86480,13773
86479,13760
86478,13747
86478,13476
86479,13463
86480,13450
86484,13437
86488,13424
86494,13412
86501,13401
86509,13390
86518,13380
86527,13371
86538,13363
86549,13357
86561,13351
86574,13346
86587,13343
86600,13341
86613,13341
87051,13341
87064,13341
Z" /> 
</g>
<g >
<path style="fill:#000000; fill-opacity:1.0; 
stroke:#000000; stroke-width:0; stroke-opacity:1; 
stroke-linecap:round; stroke-linejoin:round;fill-rule:evenodd;"
d="M 93618,14079
93631,14081
93644,14085
93657,14089
93669,14095
93680,14102
93691,14110
93701,14118
93709,14128
93717,14139
93724,14150
93730,14162
93734,14175
93738,14188
93740,14201
93740,14214
93740,14485
93740,14498
93738,14511
93734,14524
93730,14537
93724,14549
93717,14560
93709,14571
93701,14581
93691,14589
93680,14597
93669,14604
93657,14610
93644,14614
93631,14618
93618,14620
93605,14620
93167,14620
93154,14620
93140,14618
93128,14614
93115,14610
93103,14604
93092,14597
93081,14589
93071,14581
93062,14571
93054,14560
93048,14549
93042,14537
93037,14524
93034,14511
93032,14498
93032,14485
93032,14214
93032,14201
93034,14188
93037,14175
93042,14162
93048,14150
93054,14139
93062,14128
93071,14118
93081,14110
93092,14102
93103,14095
93115,14089
93128,14085
93140,14081
93154,14079
93167,14079
93605,14079
93618,14079
Z" /> 
<path style="fill:#000000; fill-opacity:1.0; 
stroke:#000000; stroke-width:0; stroke-opacity:1; 
stroke-linecap:round; stroke-linejoin:round;fill-rule:evenodd;"
d="M 93618,13341
93631,13343
93644,13346
93657,13351
93669,13357
93680,13363
93691,13371
93701,13380
93709,13390
93717,13401
93724,13412
93730,13424
93734,13437
93738,13450
93740,13463
93740,13476
93740,13747
93740,13760
93738,13773
93734,13786
93730,13798
93724,13810
93717,13822
93709,13833
93701,13842
93691,13851
93680,13859
93669,13866
93657,13872
93644,13876
93631,13879
93618,13881
93605,13882
93167,13882
93154,13881
93140,13879
93128,13876
93115,13872
93103,13866
93092,13859
93081,13851
93071,13842
93062,13833
93054,13822
93048,13810
93042,13798
93037,13786
93034,13773
93032,13760
93032,13747
93032,13476
93032,13463
93034,13450
93037,13437
93042,13424
93048,13412
93054,13401
93062,13390
93071,13380
93081,13371
93092,13363
93103,13357
93115,13351
93128,13346
93140,13343
93154,13341
93167,13341
93605,13341
93618,13341
Z" /> 
</g>
<g >
<path style="fill:#000000; fill-opacity:1.0; 
stroke:#000000; stroke-width:0; stroke-opacity:1; 
stroke-linecap:round; stroke-linejoin:round;fill-rule:evenodd;"
d="M 97967,11946
97980,11948
97993,11951
98006,11955
98018,11961
98029,11968
98040,11976
98050,11985
98059,11995
98066,12005
98073,12017
98079,12029
98083,12041
98087,12054
98089,12067
98089,12081
98089,12518
98089,12532
98087,12545
98083,12558
98079,12570
98073,12582
98066,12594
98059,12604
98050,12614
98040,12623
98029,12631
98018,12638
98006,12644
97993,12648
97980,12651
97967,12653
97954,12654
97683,12654
97670,12653
97657,12651
97644,12648
97631,12644
97619,12638
97608,12631
97597,12623
97588,12614
97579,12604
97571,12594
97564,12582
97558,12570
97554,12558
97551,12545
97549,12532
97548,12518
97548,12081
97549,12067
97551,12054
97554,12041
97558,12029
97564,12017
97571,12005
97579,11995
97588,11985
97597,11976
97608,11968
97619,11961
97631,11955
97644,11951
97657,11948
97670,11946
97683,11945
97954,11945
97967,11946
Z" /> 
<path style="fill:#000000; fill-opacity:1.0; 
stroke:#000000; stroke-width:0; stroke-opacity:1; 
stroke-linecap:round; stroke-linejoin:round;fill-rule:evenodd;"
d="M 98705,11946
98719,11948
98731,11951
98744,11955
98756,11961
98767,11968
98778,11976
98788,11985
98797,11995
98805,12005
98811,12017
98817,12029
98822,12041
98825,12054
98827,12067
98827,12081
98827,12518
98827,12532
98825,12545
98822,12558
98817,12570
98811,12582
98805,12594
98797,12604
98788,12614
98778,12623
98767,12631
98756,12638
98744,12644
98731,12648
98719,12651
98705,12653
98692,12654
98421,12654
98408,12653
98395,12651
98382,12648
98370,12644
98358,12638
98346,12631
98336,12623
98326,12614
98317,12604
98309,12594
98302,12582
98296,12570
98292,12558
98289,12545
98287,12532
98286,12518
98286,12081
98287,12067
98289,12054
98292,12041
98296,12029
98302,12017
98309,12005
98317,11995
98326,11985
98336,11976
98346,11968
98358,11961
98370,11955
98382,11951
98395,11948
98408,11946
98421,11945
98692,11945
98705,11946
Z" /> 
</g>
<g >
<path style="fill:#000000; fill-opacity:1.0; 
stroke:#000000; stroke-width:0; stroke-opacity:1; 
stroke-linecap:round; stroke-linejoin:round;fill-rule:evenodd;"
d="M 68504,13341
68517,13343
68530,13346
68542,13351
68554,13357
68566,13363
68576,13371
68586,13380
68595,13390
68603,13401
68610,13412
68615,13424
68620,13437
68623,13450
68625,13463
68626,13476
68626,13747
68625,13760
68623,13773
68620,13786
68615,13798
68610,13810
68603,13822
68595,13833
68586,13842
68576,13851
68566,13859
68554,13866
68542,13872
68530,13876
68517,13879
68504,13881
68490,13882
68052,13882
68039,13881
68026,13879
68013,13876
68001,13872
67989,13866
67977,13859
67966,13851
67957,13842
67948,13833
67940,13822
67933,13810
67927,13798
67923,13786
67920,13773
67918,13760
67917,13747
67917,13476
67918,13463
67920,13450
67923,13437
67927,13424
67933,13412
67940,13401
67948,13390
67957,13380
67966,13371
67977,13363
67989,13357
68001,13351
68013,13346
68026,13343
68039,13341
68052,13341
68490,13341
68504,13341
Z" /> 
<path style="fill:#000000; fill-opacity:1.0; 
stroke:#000000; stroke-width:0; stroke-opacity:1; 
stroke-linecap:round; stroke-linejoin:round;fill-rule:evenodd;"
d="M 68504,14079
68517,14081
68530,14085
68542,14089
68554,14095
68566,14102
68576,14110
68586,14118
68595,14128
68603,14139
68610,14150
68615,14162
68620,14175
68623,14188
68625,14201
68626,14214
68626,14485
68625,14498
68623,14511
68620,14524
68615,14537
68610,14549
68603,14560
68595,14571
68586,14581
68576,14589
68566,14597
68554,14604
68542,14610
68530,14614
68517,14618
68504,14620
68490,14620
68052,14620
68039,14620
68026,14618
68013,14614
68001,14610
67989,14604
67977,14597
67966,14589
67957,14581
67948,14571
67940,14560
67933,14549
67927,14537
67923,14524
67920,14511
67918,14498
67917,14485
67917,14214
67918,14201
67920,14188
67923,14175
67927,14162
67933,14150
67940,14139
67948,14128
67957,14118
67966,14110
67977,14102
67989,14095
68001,14089
68013,14085
68026,14081
68039,14079
68052,14079
68490,14079
68504,14079
Z" /> 
</g>
<g >
<path style="fill:#000000; fill-opacity:1.0; 
stroke:#000000; stroke-width:0; stroke-opacity:1; 
stroke-linecap:round; stroke-linejoin:round;fill-rule:evenodd;"
d="M 61449,11786
61462,11788
61475,11791
61488,11795
61500,11801
61511,11808
61522,11816
61531,11825
61540,11835
61548,11845
61555,11857
61561,11869
61565,11881
61568,11894
61570,11907
61571,11921
61571,12358
61570,12372
61568,12385
61565,12398
61561,12410
61555,12422
61548,12434
61540,12444
61531,12454
61522,12463
61511,12471
61500,12478
61488,12484
61475,12488
61462,12491
61449,12493
61436,12494
61165,12494
61152,12493
61139,12491
61126,12488
61113,12484
61101,12478
61090,12471
61079,12463
61069,12454
61060,12444
61053,12434
61046,12422
61040,12410
61036,12398
61032,12385
61030,12372
61030,12358
61030,11921
61030,11907
61032,11894
61036,11881
61040,11869
61046,11857
61053,11845
61060,11835
61069,11825
61079,11816
61090,11808
61101,11801
61113,11795
61126,11791
61139,11788
61152,11786
61165,11785
61436,11785
61449,11786
Z" /> 
<path style="fill:#000000; fill-opacity:1.0; 
stroke:#000000; stroke-width:0; stroke-opacity:1; 
stroke-linecap:round; stroke-linejoin:round;fill-rule:evenodd;"
d="M 62187,11786
62200,11788
62213,11791
62226,11795
62238,11801
62249,11808
62260,11816
62270,11825
62279,11835
62286,11845
62293,11857
62299,11869
62303,11881
62307,11894
62309,11907
62309,11921
62309,12358
62309,12372
62307,12385
62303,12398
62299,12410
62293,12422
62286,12434
62279,12444
62270,12454
62260,12463
62249,12471
62238,12478
62226,12484
62213,12488
62200,12491
62187,12493
62174,12494
61903,12494
61890,12493
61877,12491
61864,12488
61851,12484
61839,12478
61828,12471
61817,12463
61808,12454
61799,12444
61791,12434
61784,12422
61778,12410
61774,12398
61771,12385
61769,12372
61768,12358
61768,11921
61769,11907
61771,11894
61774,11881
61778,11869
61784,11857
61791,11845
61799,11835
61808,11825
61817,11816
61828,11808
61839,11801
61851,11795
61864,11791
61877,11788
61890,11786
61903,11785
62174,11785
62187,11786
Z" /> 
</g>
<g >
<path style="fill:#000000; fill-opacity:1.0; 
stroke:#000000; stroke-width:0; stroke-opacity:1; 
stroke-linecap:round; stroke-linejoin:round;fill-rule:evenodd;"
d="M 55396,13341
55409,13343
55422,13346
55435,13351
55447,13357
55458,13363
55469,13371
55479,13380
55488,13390
55496,13401
55502,13412
55508,13424
55513,13437
55516,13450
55518,13463
55518,13476
55518,13747
55518,13760
55516,13773
55513,13786
55508,13798
55502,13810
55496,13822
55488,13833
55479,13842
55469,13851
55458,13859
55447,13866
55435,13872
55422,13876
55409,13879
55396,13881
55383,13882
54945,13882
54932,13881
54919,13879
54906,13876
54893,13872
54881,13866
54870,13859
54859,13851
54849,13842
54840,13833
54833,13822
54826,13810
54820,13798
54816,13786
54812,13773
54810,13760
54810,13747
54810,13476
54810,13463
54812,13450
54816,13437
54820,13424
54826,13412
54833,13401
54840,13390
54849,13380
54859,13371
54870,13363
54881,13357
54893,13351
54906,13346
54919,13343
54932,13341
54945,13341
55383,13341
55396,13341
Z" /> 
<path style="fill:#000000; fill-opacity:1.0; 
stroke:#000000; stroke-width:0; stroke-opacity:1; 
stroke-linecap:round; stroke-linejoin:round;fill-rule:evenodd;"
d="M 55396,14079
55409,14081
55422,14085
55435,14089
55447,14095
55458,14102
55469,14110
55479,14118
55488,14128
55496,14139
55502,14150
55508,14162
55513,14175
55516,14188
55518,14201
55518,14214
55518,14485
55518,14498
55516,14511
55513,14524
55508,14537
55502,14549
55496,14560
55488,14571
55479,14581
55469,14589
55458,14597
55447,14604
55435,14610
55422,14614
55409,14618
55396,14620
55383,14620
54945,14620
54932,14620
54919,14618
54906,14614
54893,14610
54881,14604
54870,14597
54859,14589
54849,14581
54840,14571
54833,14560
54826,14549
54820,14537
54816,14524
54812,14511
54810,14498
54810,14485
54810,14214
54810,14201
54812,14188
54816,14175
54820,14162
54826,14150
54833,14139
54840,14128
54849,14118
54859,14110
54870,14102
54881,14095
54893,14089
54906,14085
54919,14081
54932,14079
54945,14079
55383,14079
55396,14079
Z" /> 
</g>
<g >
<path style="fill:#000000; fill-opacity:1.0; 
stroke:#000000; stroke-width:0; stroke-opacity:1; 
stroke-linecap:round; stroke-linejoin:round;fill-rule:evenodd;"
d="M 48843,13341
48856,13343
48869,13346
48881,13351
48893,13357
48905,13363
48915,13371
48925,13380
48934,13390
48942,13401
48949,13412
48954,13424
48959,13437
48962,13450
48964,13463
48965,13476
48965,13747
48964,13760
48962,13773
48959,13786
48954,13798
48949,13810
48942,13822
48934,13833
48925,13842
48915,13851
48905,13859
48893,13866
48881,13872
48869,13876
48856,13879
48843,13881
48829,13882
48391,13882
48378,13881
48365,13879
48352,13876
48340,13872
48328,13866
48316,13859
48306,13851
48296,13842
48287,13833
48279,13822
48272,13810
48266,13798
48262,13786
48259,13773
48257,13760
48256,13747
48256,13476
48257,13463
48259,13450
48262,13437
48266,13424
48272,13412
48279,13401
48287,13390
48296,13380
48306,13371
48316,13363
48328,13357
48340,13351
48352,13346
48365,13343
48378,13341
48391,13341
48829,13341
48843,13341
Z" /> 
<path style="fill:#000000; fill-opacity:1.0; 
stroke:#000000; stroke-width:0; stroke-opacity:1; 
stroke-linecap:round; stroke-linejoin:round;fill-rule:evenodd;"
d="M 48843,14079
48856,14081
48869,14085
48881,14089
48893,14095
48905,14102
48915,14110
48925,14118
48934,14128
48942,14139
48949,14150
48954,14162
48959,14175
48962,14188
48964,14201
48965,14214
48965,14485
48964,14498
48962,14511
48959,14524
48954,14537
48949,14549
48942,14560
48934,14571
48925,14581
48915,14589
48905,14597
48893,14604
48881,14610
48869,14614
48856,14618
48843,14620
48829,14620
48391,14620
48378,14620
48365,14618
48352,14614
48340,14610
48328,14604
48316,14597
48306,14589
48296,14581
48287,14571
48279,14560
48272,14549
48266,14537
48262,14524
48259,14511
48257,14498
48256,14485
48256,14214
48257,14201
48259,14188
48262,14175
48266,14162
48272,14150
48279,14139
48287,14128
48296,14118
48306,14110
48316,14102
48328,14095
48340,14089
48352,14085
48365,14081
48378,14079
48391,14079
48829,14079
48843,14079
Z" /> 
</g>
<g >
<path style="fill:#000000; fill-opacity:1.0; 
stroke:#000000; stroke-width:0; stroke-opacity:1; 
stroke-linecap:round; stroke-linejoin:round;fill-rule:evenodd;"
d="M 42289,13341
42302,13343
42315,13346
42328,13351
42340,13357
42351,13363
42362,13371
42371,13380
42380,13390
42388,13401
42395,13412
42401,13424
42405,13437
42409,13450
42410,13463
42411,13476
42411,13747
42410,13760
42409,13773
42405,13786
42401,13798
42395,13810
42388,13822
42380,13833
42371,13842
42362,13851
42351,13859
42340,13866
42328,13872
42315,13876
42302,13879
42289,13881
42276,13882
41838,13882
41825,13881
41811,13879
41798,13876
41786,13872
41774,13866
41763,13859
41752,13851
41742,13842
41733,13833
41725,13822
41718,13810
41713,13798
41708,13786
41705,13773
41703,13760
41702,13747
41702,13476
41703,13463
41705,13450
41708,13437
41713,13424
41718,13412
41725,13401
41733,13390
41742,13380
41752,13371
41763,13363
41774,13357
41786,13351
41798,13346
41811,13343
41825,13341
41838,13341
42276,13341
42289,13341
Z" /> 
<path style="fill:#000000; fill-opacity:1.0; 
stroke:#000000; stroke-width:0; stroke-opacity:1; 
stroke-linecap:round; stroke-linejoin:round;fill-rule:evenodd;"
d="M 42289,14079
42302,14081
42315,14085
42328,14089
42340,14095
42351,14102
42362,14110
42371,14118
42380,14128
42388,14139
42395,14150
42401,14162
42405,14175
42409,14188
42410,14201
42411,14214
42411,14485
42410,14498
42409,14511
42405,14524
42401,14537
42395,14549
42388,14560
42380,14571
42371,14581
42362,14589
42351,14597
42340,14604
42328,14610
42315,14614
42302,14618
42289,14620
42276,14620
41838,14620
41825,14620
41811,14618
41798,14614
41786,14610
41774,14604
41763,14597
41752,14589
41742,14581
41733,14571
41725,14560
41718,14549
41713,14537
41708,14524
41705,14511
41703,14498
41702,14485
41702,14214
41703,14201
41705,14188
41708,14175
41713,14162
41718,14150
41725,14139
41733,14128
41742,14118
41752,14110
41763,14102
41774,14095
41786,14089
41798,14085
41811,14081
41825,14079
41838,14079
42276,14079
42289,14079
Z" /> 
</g>
<g >
<path style="fill:#000000; fill-opacity:1.0; 
stroke:#000000; stroke-width:0; stroke-opacity:1; 
stroke-linecap:round; stroke-linejoin:round;fill-rule:evenodd;"
d="M 35735,13341
35749,13343
35761,13346
35774,13351
35786,13357
35797,13363
35808,13371
35818,13380
35827,13390
35835,13401
35841,13412
35847,13424
35852,13437
35855,13450
35857,13463
35857,13476
35857,13747
35857,13760
35855,13773
35852,13786
35847,13798
35841,13810
35835,13822
35827,13833
35818,13842
35808,13851
35797,13859
35786,13866
35774,13872
35761,13876
35749,13879
35735,13881
35722,13882
35284,13882
35271,13881
35258,13879
35245,13876
35232,13872
35220,13866
35209,13859
35198,13851
35188,13842
35180,13833
35172,13822
35165,13810
35159,13798
35155,13786
35151,13773
35149,13760
35149,13747
35149,13476
35149,13463
35151,13450
35155,13437
35159,13424
35165,13412
35172,13401
35180,13390
35188,13380
35198,13371
35209,13363
35220,13357
35232,13351
35245,13346
35258,13343
35271,13341
35284,13341
35722,13341
35735,13341
Z" /> 
<path style="fill:#000000; fill-opacity:1.0; 
stroke:#000000; stroke-width:0; stroke-opacity:1; 
stroke-linecap:round; stroke-linejoin:round;fill-rule:evenodd;"
d="M 35735,14079
35749,14081
35761,14085
35774,14089
35786,14095
35797,14102
35808,14110
35818,14118
35827,14128
35835,14139
35841,14150
35847,14162
35852,14175
35855,14188
35857,14201
35857,14214
35857,14485
35857,14498
35855,14511
35852,14524
35847,14537
35841,14549
35835,14560
35827,14571
35818,14581
35808,14589
35797,14597
35786,14604
35774,14610
35761,14614
35749,14618
35735,14620
35722,14620
35284,14620
35271,14620
35258,14618
35245,14614
35232,14610
35220,14604
35209,14597
35198,14589
35188,14581
35180,14571
35172,14560
35165,14549
35159,14537
35155,14524
35151,14511
35149,14498
35149,14485
35149,14214
35149,14201
35151,14188
35155,14175
35159,14162
35165,14150
35172,14139
35180,14128
35188,14118
35198,14110
35209,14102
35220,14095
35232,14089
35245,14085
35258,14081
35271,14079
35284,14079
35722,14079
35735,14079
Z" /> 
</g>
<g >
<path style="fill:#000000; fill-opacity:1.0; 
stroke:#000000; stroke-width:0; stroke-opacity:1; 
stroke-linecap:round; stroke-linejoin:round;fill-rule:evenodd;"
d="M 28982,13191
28995,13193
29008,13196
29020,13201
29032,13207
29044,13213
29054,13221
29064,13230
29073,13240
29081,13251
29088,13262
29094,13274
29098,13287
29101,13300
29103,13313
29104,13326
29104,13597
29103,13610
29101,13623
29098,13636
29094,13648
29088,13660
29081,13672
29073,13683
29064,13692
29054,13701
29044,13709
29032,13716
29020,13722
29008,13726
28995,13729
28982,13731
28968,13732
28531,13732
28517,13731
28504,13729
28491,13726
28479,13722
28467,13716
28455,13709
28445,13701
28435,13692
28426,13683
28418,13672
28411,13660
28405,13648
28401,13636
28398,13623
28396,13610
28395,13597
28395,13326
28396,13313
28398,13300
28401,13287
28405,13274
28411,13262
28418,13251
28426,13240
28435,13230
28445,13221
28455,13213
28467,13207
28479,13201
28491,13196
28504,13193
28517,13191
28531,13191
28968,13191
28982,13191
Z" /> 
<path style="fill:#000000; fill-opacity:1.0; 
stroke:#000000; stroke-width:0; stroke-opacity:1; 
stroke-linecap:round; stroke-linejoin:round;fill-rule:evenodd;"
d="M 28982,13929
28995,13931
29008,13935
29020,13939
29032,13945
29044,13952
29054,13960
29064,13968
29073,13978
29081,13989
29088,14000
29094,14012
29098,14025
29101,14038
29103,14051
29104,14064
29104,14335
29103,14348
29101,14361
29098,14374
29094,14387
29088,14399
29081,14410
29073,14421
29064,14431
29054,14439
29044,14447
29032,14454
29020,14460
29008,14464
28995,14468
28982,14470
28968,14470
28531,14470
28517,14470
28504,14468
28491,14464
28479,14460
28467,14454
28455,14447
28445,14439
28435,14431
28426,14421
28418,14410
28411,14399
28405,14387
28401,14374
28398,14361
28396,14348
28395,14335
28395,14064
28396,14051
28398,14038
28401,14025
28405,14012
28411,14000
28418,13989
28426,13978
28435,13968
28445,13960
28455,13952
28467,13945
28479,13939
28491,13935
28504,13931
28517,13929
28531,13929
28968,13929
28982,13929
Z" /> 
</g>
<g >
</g>
<g >
</g>
<g >
</g>
</g> 
</svg>
