<?xml version="1.0" standalone="no"?>
 <!DOCTYPE svg PUBLIC "-//W3C//DTD SVG 1.1//EN" 
 "http://www.w3.org/Graphics/SVG/1.1/DTD/svg11.dtd"> 
<svg xmlns="http://www.w3.org/2000/svg" version="1.1" 
    width="84.0994cm" height="59.4004cm" viewBox="0 0 331100 233860 ">
<title>SVG Picture created as AInside-Edge_Cuts.svg date 2019/04/12 10:44:05 </title>
  <desc>Picture generated by PCBNEW </desc>
<g style="fill:#000000; fill-opacity:1;stroke:#000000; stroke-opacity:1;
stroke-linecap:round; stroke-linejoin:round; "
 transform="translate(0 0) scale(1 1)">
</g>
<g style="fill:#000000; fill-opacity:0.0; 
stroke:#000000; stroke-width:-0.000393701; stroke-opacity:1; 
stroke-linecap:round; stroke-linejoin:round;">
</g>
<g style="fill:#000000; fill-opacity:0.0; 
stroke:#000000; stroke-width:59.0551; stroke-opacity:1; 
stroke-linecap:round; stroke-linejoin:round;">
<circle cx="62020" cy="13800" r="580" /> 
</g>
<g style="fill:#000000; fill-opacity:0.0; 
stroke:#000000; stroke-width:39.3701; stroke-opacity:1; 
stroke-linecap:round; stroke-linejoin:round;">
<path d="M102855 11160
L102898 10887
" />
<path d="M102898 11434
L102855 11160
" />
<path d="M103024 11680
L102898 11434
" />
<path d="M103219 11876
L103024 11680
" />
<path d="M103466 12002
L103219 11876
" />
<path d="M103740 12045
L103466 12002
" />
<path d="M19807 12045
L18626 12045
" />
<path d="M20081 12002
L19807 12045
" />
<path d="M20327 11876
L20081 12002
" />
<path d="M20523 11680
L20327 11876
" />
<path d="M20649 11434
L20523 11680
" />
<path d="M20692 11160
L20649 11434
" />
<path d="M20649 10887
L20692 11160
" />
<path d="M20523 10640
L20649 10887
" />
<path d="M20327 10444
L20523 10640
" />
<path d="M20081 10318
L20327 10444
" />
<path d="M19807 10275
L20081 10318
" />
<path d="M18626 10275
L19807 10275
" />
<path d="M18353 10318
L18626 10275
" />
<path d="M18106 10444
L18353 10318
" />
<path d="M17910 10640
L18106 10444
" />
<path d="M17784 10887
L17910 10640
" />
<path d="M17741 11160
L17784 10887
" />
<path d="M17784 11434
L17741 11160
" />
<path d="M17910 11680
L17784 11434
" />
<path d="M18106 11876
L17910 11680
" />
<path d="M18353 12002
L18106 11876
" />
<path d="M18626 12045
L18353 12002
" />
<path d="M106593 12700
L106593 13487
" />
<path d="M105019 12700
L106593 12700
" />
<path d="M105019 13487
L105019 12700
" />
<path d="M106593 13487
L105019 13487
" />
<path d="M18640 12666
L18640 13454
" />
<path d="M17066 12666
L18640 12666
" />
<path d="M17066 13454
L17066 12666
" />
<path d="M18640 13454
L17066 13454
" />
<path d="M107283 10865
L107245 10622
" />
<path d="M107283 15196
L107283 10865
" />
<path d="M106593 15196
L107283 15196
" />
<path d="M106593 14511
L106593 15196
" />
<path d="M105019 14511
L106593 14511
" />
<path d="M105019 15196
L105019 14511
" />
<path d="M18601 15196
L105019 15196
" />
<path d="M18601 14517
L18601 15196
" />
<path d="M17026 14517
L18601 14517
" />
<path d="M17026 15196
L17026 14517
" />
<path d="M16264 15196
L17026 15196
" />
<path d="M16264 10865
L16264 15196
" />
<path d="M16302 10622
L16264 10865
" />
<path d="M16414 10402
L16302 10622
" />
<path d="M16588 10228
L16414 10402
" />
<path d="M16808 10116
L16588 10228
" />
<path d="M17051 10078
L16808 10116
" />
<path d="M17175 10078
L17051 10078
" />
<path d="M17232 9965
L17175 10078
" />
<path d="M17428 9769
L17232 9965
" />
<path d="M17675 9644
L17428 9769
" />
<path d="M17948 9600
L17675 9644
" />
<path d="M20485 9600
L17948 9600
" />
<path d="M20759 9644
L20485 9600
" />
<path d="M21005 9769
L20759 9644
" />
<path d="M21201 9965
L21005 9769
" />
<path d="M21258 10078
L21201 9965
" />
<path d="M102288 10078
L21258 10078
" />
<path d="M102346 9965
L102288 10078
" />
<path d="M102541 9769
L102346 9965
" />
<path d="M102788 9644
L102541 9769
" />
<path d="M103062 9600
L102788 9644
" />
<path d="M105599 9600
L103062 9600
" />
<path d="M105872 9644
L105599 9600
" />
<path d="M106119 9769
L105872 9644
" />
<path d="M106315 9965
L106119 9769
" />
<path d="M106372 10078
L106315 9965
" />
<path d="M106496 10078
L106372 10078
" />
<path d="M106739 10116
L106496 10078
" />
<path d="M106958 10228
L106739 10116
" />
<path d="M107133 10402
L106958 10228
" />
<path d="M107245 10622
L107133 10402
" />
<path d="M104921 12045
L103740 12045
" />
<path d="M105194 12002
L104921 12045
" />
<path d="M105441 11876
L105194 12002
" />
<path d="M105637 11680
L105441 11876
" />
<path d="M105763 11434
L105637 11680
" />
<path d="M105806 11160
L105763 11434
" />
<path d="M105763 10887
L105806 11160
" />
<path d="M105637 10640
L105763 10887
" />
<path d="M105441 10444
L105637 10640
" />
<path d="M105194 10318
L105441 10444
" />
<path d="M104921 10275
L105194 10318
" />
<path d="M103740 10275
L104921 10275
" />
<path d="M103466 10318
L103740 10275
" />
<path d="M103219 10444
L103466 10318
" />
<path d="M103024 10640
L103219 10444
" />
<path d="M102898 10887
L103024 10640
" />
<g >
</g>
<g >
</g>
<g >
</g>
<g >
</g>
<g >
</g>
<g >
</g>
<g >
</g>
<g >
</g>
<g >
</g>
<g >
</g>
<g >
</g>
<g >
</g>
<g >
</g>
<g >
</g>
<g >
</g>
<g >
</g>
<g >
</g>
<g >
</g>
<g >
</g>
<g >
</g>
<g >
</g>
<g >
</g>
<g >
</g>
<g >
</g>
<g >
</g>
<g >
</g>
<g >
</g>
<g >
</g>
<g >
</g>
<g >
</g>
<g >
</g>
<g >
</g>
<g >
</g>
<g >
</g>
<g >
</g>
<g >
</g>
<g >
</g>
<g >
</g>
<g >
</g>
</g> 
</svg>
