<?xml version="1.0" standalone="no"?>
 <!DOCTYPE svg PUBLIC "-//W3C//DTD SVG 1.1//EN" 
 "http://www.w3.org/Graphics/SVG/1.1/DTD/svg11.dtd"> 
<svg xmlns="http://www.w3.org/2000/svg" version="1.1" 
    width="84.0994cm" height="59.4004cm" viewBox="0 0 331100 233860 ">
<title>SVG Picture created as AInside-In2_Cu.svg date 2019/04/12 10:44:05 </title>
  <desc>Picture generated by PCBNEW </desc>
<g style="fill:#000000; fill-opacity:1;stroke:#000000; stroke-opacity:1;
stroke-linecap:round; stroke-linejoin:round; "
 transform="translate(0 0) scale(1 1)">
</g>
<g style="fill:#000000; fill-opacity:0.0; 
stroke:#000000; stroke-width:-0.000393701; stroke-opacity:1; 
stroke-linecap:round; stroke-linejoin:round;">
<g >
</g>
<g style="fill:#000000; fill-opacity:0.0; 
stroke:#000000; stroke-width:800; stroke-opacity:1; 
stroke-linecap:round; stroke-linejoin:round;">
<path d="M100734 12464
L101234 12464
" />
<path d="M100734 13464
L101234 13464
" />
<path d="M100734 14464
L101234 14464
" />
</g>
<g >
<path d="M22584 12448
L23084 12448
" />
<path d="M22584 13448
L23084 13448
" />
<path d="M22584 14448
L23084 14448
" />
<path d="M23284 11348
L23784 11348
" />
<path d="M21084 14448
L21584 14448
" />
</g>
<g >
</g>
<g >
</g>
<g >
</g>
<g >
</g>
<g >
</g>
<g >
</g>
<g >
</g>
<g >
</g>
<g >
</g>
<g >
</g>
<g >
</g>
<g >
</g>
<g >
</g>
<g >
</g>
<g >
</g>
<g >
</g>
<g >
</g>
<g >
</g>
<g >
</g>
<g >
</g>
<g >
</g>
<g >
</g>
<g >
</g>
<g >
</g>
<g >
</g>
<g >
</g>
<g >
</g>
<g >
</g>
<g >
</g>
<g >
</g>
<g >
</g>
<g >
</g>
<g >
</g>
<g >
</g>
<g >
</g>
<g >
</g>
<g >
</g>
<g style="fill:#000000; fill-opacity:1.0; 
stroke:#000000; stroke-width:0; stroke-opacity:1; 
stroke-linecap:round; stroke-linejoin:round;">
<circle cx="25950" cy="13850" r="196.85" /> 
</g>
<g style="fill:#000000; fill-opacity:1.0; 
stroke:#000000; stroke-width:19.685; stroke-opacity:1; 
stroke-linecap:round; stroke-linejoin:round;">
</g>
<g style="fill:#000000; fill-opacity:1.0; 
stroke:#000000; stroke-width:0; stroke-opacity:1; 
stroke-linecap:round; stroke-linejoin:round;">
<circle cx="32600" cy="13825" r="196.85" /> 
</g>
<g style="fill:#000000; fill-opacity:1.0; 
stroke:#000000; stroke-width:19.685; stroke-opacity:1; 
stroke-linecap:round; stroke-linejoin:round;">
</g>
<g style="fill:#000000; fill-opacity:1.0; 
stroke:#000000; stroke-width:0; stroke-opacity:1; 
stroke-linecap:round; stroke-linejoin:round;">
<circle cx="39100" cy="13825" r="196.85" /> 
</g>
<g style="fill:#000000; fill-opacity:1.0; 
stroke:#000000; stroke-width:19.685; stroke-opacity:1; 
stroke-linecap:round; stroke-linejoin:round;">
</g>
<g style="fill:#000000; fill-opacity:1.0; 
stroke:#000000; stroke-width:0; stroke-opacity:1; 
stroke-linecap:round; stroke-linejoin:round;">
<circle cx="52100" cy="13825" r="196.85" /> 
</g>
<g style="fill:#000000; fill-opacity:1.0; 
stroke:#000000; stroke-width:19.685; stroke-opacity:1; 
stroke-linecap:round; stroke-linejoin:round;">
</g>
<g style="fill:#000000; fill-opacity:1.0; 
stroke:#000000; stroke-width:0; stroke-opacity:1; 
stroke-linecap:round; stroke-linejoin:round;">
<circle cx="45600" cy="13825" r="196.85" /> 
</g>
<g style="fill:#000000; fill-opacity:1.0; 
stroke:#000000; stroke-width:19.685; stroke-opacity:1; 
stroke-linecap:round; stroke-linejoin:round;">
</g>
<g style="fill:#000000; fill-opacity:1.0; 
stroke:#000000; stroke-width:0; stroke-opacity:1; 
stroke-linecap:round; stroke-linejoin:round;">
<circle cx="58800" cy="13825" r="196.85" /> 
</g>
<g style="fill:#000000; fill-opacity:1.0; 
stroke:#000000; stroke-width:19.685; stroke-opacity:1; 
stroke-linecap:round; stroke-linejoin:round;">
</g>
<g style="fill:#000000; fill-opacity:1.0; 
stroke:#000000; stroke-width:0; stroke-opacity:1; 
stroke-linecap:round; stroke-linejoin:round;">
<circle cx="65300" cy="13825" r="196.85" /> 
</g>
<g style="fill:#000000; fill-opacity:1.0; 
stroke:#000000; stroke-width:19.685; stroke-opacity:1; 
stroke-linecap:round; stroke-linejoin:round;">
</g>
<g style="fill:#000000; fill-opacity:1.0; 
stroke:#000000; stroke-width:0; stroke-opacity:1; 
stroke-linecap:round; stroke-linejoin:round;">
<circle cx="78300" cy="13825" r="196.85" /> 
</g>
<g style="fill:#000000; fill-opacity:1.0; 
stroke:#000000; stroke-width:19.685; stroke-opacity:1; 
stroke-linecap:round; stroke-linejoin:round;">
</g>
<g style="fill:#000000; fill-opacity:1.0; 
stroke:#000000; stroke-width:0; stroke-opacity:1; 
stroke-linecap:round; stroke-linejoin:round;">
<circle cx="71800" cy="13825" r="196.85" /> 
</g>
<g style="fill:#000000; fill-opacity:1.0; 
stroke:#000000; stroke-width:19.685; stroke-opacity:1; 
stroke-linecap:round; stroke-linejoin:round;">
</g>
<g style="fill:#000000; fill-opacity:1.0; 
stroke:#000000; stroke-width:0; stroke-opacity:1; 
stroke-linecap:round; stroke-linejoin:round;">
<circle cx="91500" cy="13825" r="196.85" /> 
</g>
<g style="fill:#000000; fill-opacity:1.0; 
stroke:#000000; stroke-width:19.685; stroke-opacity:1; 
stroke-linecap:round; stroke-linejoin:round;">
</g>
<g style="fill:#000000; fill-opacity:1.0; 
stroke:#000000; stroke-width:0; stroke-opacity:1; 
stroke-linecap:round; stroke-linejoin:round;">
<circle cx="85000" cy="13825" r="196.85" /> 
</g>
<g style="fill:#000000; fill-opacity:1.0; 
stroke:#000000; stroke-width:19.685; stroke-opacity:1; 
stroke-linecap:round; stroke-linejoin:round;">
</g>
<g style="fill:#000000; fill-opacity:1.0; 
stroke:#000000; stroke-width:0; stroke-opacity:1; 
stroke-linecap:round; stroke-linejoin:round;">
<circle cx="30161" cy="13821" r="196.85" /> 
</g>
<g style="fill:#000000; fill-opacity:1.0; 
stroke:#000000; stroke-width:19.685; stroke-opacity:1; 
stroke-linecap:round; stroke-linejoin:round;">
</g>
<g style="fill:#000000; fill-opacity:1.0; 
stroke:#000000; stroke-width:0; stroke-opacity:1; 
stroke-linecap:round; stroke-linejoin:round;">
<circle cx="36880" cy="13820" r="196.85" /> 
</g>
<g style="fill:#000000; fill-opacity:1.0; 
stroke:#000000; stroke-width:19.685; stroke-opacity:1; 
stroke-linecap:round; stroke-linejoin:round;">
</g>
<g style="fill:#000000; fill-opacity:1.0; 
stroke:#000000; stroke-width:0; stroke-opacity:1; 
stroke-linecap:round; stroke-linejoin:round;">
<circle cx="43430" cy="13830" r="196.85" /> 
</g>
<g style="fill:#000000; fill-opacity:1.0; 
stroke:#000000; stroke-width:19.685; stroke-opacity:1; 
stroke-linecap:round; stroke-linejoin:round;">
</g>
<g style="fill:#000000; fill-opacity:1.0; 
stroke:#000000; stroke-width:0; stroke-opacity:1; 
stroke-linecap:round; stroke-linejoin:round;">
<circle cx="50020" cy="13840" r="196.85" /> 
</g>
<g style="fill:#000000; fill-opacity:1.0; 
stroke:#000000; stroke-width:19.685; stroke-opacity:1; 
stroke-linecap:round; stroke-linejoin:round;">
</g>
<g style="fill:#000000; fill-opacity:1.0; 
stroke:#000000; stroke-width:0; stroke-opacity:1; 
stroke-linecap:round; stroke-linejoin:round;">
<circle cx="56540" cy="13840" r="196.85" /> 
</g>
<g style="fill:#000000; fill-opacity:1.0; 
stroke:#000000; stroke-width:19.685; stroke-opacity:1; 
stroke-linecap:round; stroke-linejoin:round;">
</g>
<g style="fill:#000000; fill-opacity:1.0; 
stroke:#000000; stroke-width:0; stroke-opacity:1; 
stroke-linecap:round; stroke-linejoin:round;">
<circle cx="69680" cy="13830" r="196.85" /> 
</g>
<g style="fill:#000000; fill-opacity:1.0; 
stroke:#000000; stroke-width:19.685; stroke-opacity:1; 
stroke-linecap:round; stroke-linejoin:round;">
</g>
<g style="fill:#000000; fill-opacity:1.0; 
stroke:#000000; stroke-width:0; stroke-opacity:1; 
stroke-linecap:round; stroke-linejoin:round;">
<circle cx="76200" cy="13820" r="196.85" /> 
</g>
<g style="fill:#000000; fill-opacity:1.0; 
stroke:#000000; stroke-width:19.685; stroke-opacity:1; 
stroke-linecap:round; stroke-linejoin:round;">
</g>
<g style="fill:#000000; fill-opacity:1.0; 
stroke:#000000; stroke-width:0; stroke-opacity:1; 
stroke-linecap:round; stroke-linejoin:round;">
<circle cx="82800" cy="13830" r="196.85" /> 
</g>
<g style="fill:#000000; fill-opacity:1.0; 
stroke:#000000; stroke-width:19.685; stroke-opacity:1; 
stroke-linecap:round; stroke-linejoin:round;">
</g>
<g style="fill:#000000; fill-opacity:1.0; 
stroke:#000000; stroke-width:0; stroke-opacity:1; 
stroke-linecap:round; stroke-linejoin:round;">
<circle cx="89320" cy="13840" r="196.85" /> 
</g>
<g style="fill:#000000; fill-opacity:1.0; 
stroke:#000000; stroke-width:19.685; stroke-opacity:1; 
stroke-linecap:round; stroke-linejoin:round;">
</g>
<g style="fill:#000000; fill-opacity:1.0; 
stroke:#000000; stroke-width:0; stroke-opacity:1; 
stroke-linecap:round; stroke-linejoin:round;">
<circle cx="95890" cy="13830" r="196.85" /> 
</g>
<g style="fill:#000000; fill-opacity:1.0; 
stroke:#000000; stroke-width:19.685; stroke-opacity:1; 
stroke-linecap:round; stroke-linejoin:round;">
</g>
<g style="fill:#000000; fill-opacity:1.0; 
stroke:#000000; stroke-width:0; stroke-opacity:1; 
stroke-linecap:round; stroke-linejoin:round;">
<circle cx="95188.2" cy="12300" r="196.85" /> 
</g>
<g style="fill:#000000; fill-opacity:1.0; 
stroke:#000000; stroke-width:19.685; stroke-opacity:1; 
stroke-linecap:round; stroke-linejoin:round;">
</g>
<g style="fill:#000000; fill-opacity:1.0; 
stroke:#000000; stroke-width:0; stroke-opacity:1; 
stroke-linecap:round; stroke-linejoin:round;">
<circle cx="63425.2" cy="13779.5" r="196.85" /> 
</g>
<g style="fill:#000000; fill-opacity:1.0; 
stroke:#000000; stroke-width:19.685; stroke-opacity:1; 
stroke-linecap:round; stroke-linejoin:round;">
</g>
<g >
</g>
<g >
</g>
<g style="fill:#000000; fill-opacity:1.0; 
stroke:#000000; stroke-width:100; stroke-opacity:1; 
stroke-linecap:round; stroke-linejoin:round;">
<path style="fill:#000000; fill-opacity:1.0; 
stroke:#000000; stroke-width:100; stroke-opacity:1; 
stroke-linecap:round; stroke-linejoin:round;fill-rule:evenodd;"
d="M 20674,9903
20845,9990
20980,10125
21007,10179
21008,10181
21019,10202
21024,10212
21026,10214
21033,10228
21040,10236
21046,10245
21057,10257
21067,10269
21075,10276
21082,10284
21096,10293
21108,10303
21117,10308
21126,10314
21141,10320
21155,10328
21165,10331
21175,10335
21190,10339
21206,10343
21216,10344
21227,10347
21243,10347
21245,10347
21256,10347
21280,10348
21282,10347
102264,10347
102267,10348
102291,10347
102302,10347
102304,10347
102320,10347
102330,10344
102341,10343
102356,10339
102372,10335
102382,10331
102392,10328
102406,10320
102421,10314
102429,10308
102439,10303
102451,10293
102464,10284
102472,10276
102480,10269
102490,10257
102501,10245
102507,10236
102514,10228
102521,10214
102522,10212
102527,10202
102539,10181
102539,10179
102567,10125
102702,9990
102873,9903
103083,9870
105578,9870
105788,9903
105959,9990
106094,10125
106121,10179
106122,10181
106133,10202
106138,10212
106139,10214
106147,10228
106154,10236
106159,10245
106170,10257
106181,10269
106189,10276
106196,10284
106209,10293
106222,10303
106231,10308
106240,10314
106254,10320
106268,10328
106279,10331
106289,10335
106304,10339
106319,10343
106330,10344
106341,10347
106356,10347
106359,10347
106370,10347
106394,10348
106396,10347
106475,10347
106655,10376
106798,10449
106912,10563
106985,10706
107014,10886
107014,14926
106863,14926
106863,14524
106864,14511
106859,14458
106844,14407
106819,14360
106785,14319
106744,14286
106697,14261
106646,14245
106607,14241
106593,14240
106580,14241
105032,14241
105019,14240
105005,14241
104966,14245
104915,14261
104868,14286
104827,14319
104793,14360
104768,14407
104753,14458
104748,14511
104749,14524
104749,14926
101696,14926
101696,14926
101777,14827
101837,14714
101874,14591
101887,14464
101874,14337
101837,14214
101777,14101
101696,14002
101649,13964
101696,13926
101777,13827
101837,13714
101874,13591
101887,13464
101874,13337
101837,13214
101777,13101
101696,13002
101649,12964
101729,12888
101802,12784
101839,12700
104748,12700
104749,12713
104749,13474
104748,13487
104753,13540
104768,13591
104793,13638
104827,13679
104858,13704
104868,13713
104915,13738
104966,13753
105019,13758
105032,13757
106580,13757
106593,13758
106646,13753
106697,13738
106744,13713
106785,13679
106819,13638
106844,13591
106859,13540
106863,13501
106863,13501
106864,13487
106863,13474
106863,12713
106864,12700
106859,12647
106844,12596
106819,12549
106785,12508
106744,12475
106697,12450
106646,12434
106607,12430
106593,12429
106580,12430
105032,12430
105019,12429
105005,12430
104966,12434
104915,12450
104868,12475
104827,12508
104793,12549
104768,12596
104753,12647
104748,12700
101839,12700
101853,12667
101866,12615
101819,12514
101034,12514
101034,12522
100934,12522
100934,12514
100148,12514
100101,12615
100114,12667
100166,12784
100239,12888
100318,12964
100272,13002
100191,13101
100130,13214
100093,13337
100081,13464
100093,13591
100130,13714
100191,13827
100272,13926
100318,13964
100272,14002
100191,14101
100130,14214
100093,14337
100081,14464
100093,14591
100130,14714
100191,14827
100272,14926
100272,14926
23527,14926
23546,14910
23627,14811
23688,14698
23725,14576
23737,14448
23725,14321
23688,14198
23627,14085
23546,13986
23499,13948
23546,13910
23627,13811
23646,13776
29714,13776
29714,13865
29731,13951
29765,14032
29813,14105
29876,14168
29949,14216
30030,14250
30116,14267
30205,14267
30291,14250
30372,14216
30445,14168
30508,14105
30556,14032
30590,13951
30607,13865
30607,13776
30607,13775
36433,13775
36433,13864
36450,13950
36484,14031
36532,14104
36595,14167
36668,14215
36749,14249
36835,14266
36924,14266
37010,14249
37091,14215
37164,14167
37227,14104
37275,14031
37309,13950
37326,13864
37326,13785
42983,13785
42983,13874
43000,13960
43034,14041
43082,14114
43145,14177
43218,14225
43299,14259
43385,14276
43474,14276
43560,14259
43641,14225
43714,14177
43777,14114
43825,14041
43859,13960
43876,13874
43876,13795
49573,13795
49573,13884
49590,13970
49624,14051
49672,14124
49735,14187
49808,14235
49889,14269
49975,14286
50064,14286
50150,14269
50231,14235
50304,14187
50367,14124
50415,14051
50449,13970
50466,13884
50466,13795
56093,13795
56093,13884
56110,13970
56144,14051
56192,14124
56255,14187
56328,14235
56409,14269
56495,14286
56584,14286
56670,14269
56751,14235
56824,14187
56887,14124
56935,14051
56969,13970
56986,13884
56986,13812
61152,13812
61171,13980
61222,14141
61304,14290
61413,14419
61545,14525
61695,14604
61857,14652
62026,14667
62194,14649
62356,14599
62505,14519
62635,14411
62742,14280
62821,14130
62870,13968
62887,13800
62887,13775
62881,13735
62978,13735
62978,13823
62995,13909
63029,13991
63078,14064
63140,14126
63213,14175
63294,14209
63381,14226
63469,14226
63555,14209
63636,14175
63710,14126
63772,14064
63821,13991
63854,13909
63872,13823
63872,13785
69233,13785
69233,13874
69250,13960
69284,14041
69332,14114
69395,14177
69468,14225
69549,14259
69635,14276
69724,14276
69810,14259
69891,14225
69964,14177
70027,14114
70075,14041
70109,13960
70126,13874
70126,13785
70124,13775
75753,13775
75753,13864
75770,13950
75804,14031
75852,14104
75915,14167
75988,14215
76069,14249
76155,14266
76244,14266
76330,14249
76411,14215
76484,14167
76547,14104
76595,14031
76629,13950
76646,13864
76646,13785
82353,13785
82353,13874
82370,13960
82404,14041
82452,14114
82515,14177
82588,14225
82669,14259
82755,14276
82844,14276
82930,14259
83011,14225
83084,14177
83147,14114
83195,14041
83229,13960
83246,13874
83246,13795
88873,13795
88873,13884
88890,13970
88924,14051
88972,14124
89035,14187
89108,14235
89189,14269
89275,14286
89364,14286
89450,14269
89531,14235
89604,14187
89667,14124
89715,14051
89749,13970
89766,13884
89766,13795
89764,13785
95443,13785
95443,13874
95460,13960
95494,14041
95542,14114
95605,14177
95678,14225
95759,14259
95845,14276
95934,14276
96020,14259
96101,14225
96174,14177
96237,14114
96285,14041
96319,13960
96336,13874
96336,13785
96319,13699
96285,13618
96237,13545
96174,13482
96101,13434
96020,13400
95934,13383
95845,13383
95759,13400
95678,13434
95605,13482
95542,13545
95494,13618
95460,13699
95443,13785
89764,13785
89749,13709
89715,13628
89667,13555
89604,13492
89531,13444
89450,13410
89364,13393
89275,13393
89189,13410
89108,13444
89035,13492
88972,13555
88924,13628
88890,13709
88873,13795
83246,13795
83246,13785
83229,13699
83195,13618
83147,13545
83084,13482
83011,13434
82930,13400
82844,13383
82755,13383
82669,13400
82588,13434
82515,13482
82452,13545
82404,13618
82370,13699
82353,13785
76646,13785
76646,13775
76629,13689
76595,13608
76547,13535
76484,13472
76411,13424
76330,13390
76244,13373
76155,13373
76069,13390
75988,13424
75915,13472
75852,13535
75804,13608
75770,13689
75753,13775
70124,13775
70109,13699
70075,13618
70027,13545
69964,13482
69891,13434
69810,13400
69724,13383
69635,13383
69549,13400
69468,13434
69395,13482
69332,13545
69284,13618
69250,13699
69233,13785
63872,13785
63872,13735
63854,13649
63821,13567
63772,13494
63710,13432
63636,13383
63555,13349
63469,13332
63381,13332
63294,13349
63213,13383
63140,13432
63078,13494
63029,13567
62995,13649
62978,13735
62881,13735
62865,13607
62812,13447
62728,13300
62618,13171
62484,13067
62333,12991
62170,12945
62001,12932
61833,12952
61672,13005
61524,13087
61396,13197
61290,13330
61213,13480
61166,13643
61152,13812
56986,13812
56986,13795
56969,13709
56935,13628
56887,13555
56824,13492
56751,13444
56670,13410
56584,13393
56495,13393
56409,13410
56328,13444
56255,13492
56192,13555
56144,13628
56110,13709
56093,13795
50466,13795
50449,13709
50415,13628
50367,13555
50304,13492
50231,13444
50150,13410
50064,13393
49975,13393
49889,13410
49808,13444
49735,13492
49672,13555
49624,13628
49590,13709
49573,13795
43876,13795
43876,13785
43859,13699
43825,13618
43777,13545
43714,13482
43641,13434
43560,13400
43474,13383
43385,13383
43299,13400
43218,13434
43145,13482
43082,13545
43034,13618
43000,13699
42983,13785
37326,13785
37326,13775
37309,13689
37275,13608
37227,13535
37164,13472
37091,13424
37010,13390
36924,13373
36835,13373
36749,13390
36668,13424
36595,13472
36532,13535
36484,13608
36450,13689
36433,13775
30607,13775
30590,13690
30556,13609
30508,13536
30445,13473
30372,13425
30291,13391
30205,13374
30116,13374
30030,13391
29949,13425
29876,13473
29813,13536
29765,13609
29731,13690
29714,13776
23646,13776
23688,13698
23725,13576
23737,13448
23725,13321
23688,13198
23627,13085
23546,12986
23500,12949
23579,12873
23652,12768
23704,12651
23716,12599
23670,12498
22884,12498
22884,12506
22784,12506
22784,12498
21999,12498
21952,12599
21964,12651
22016,12768
22089,12873
22168,12949
22122,12986
22041,13085
21981,13198
21944,13321
21931,13448
21944,13576
21981,13698
22041,13811
22122,13910
22169,13948
22122,13986
22084,14033
22046,13986
21947,13905
21834,13845
21712,13808
21616,13798
21052,13798
20957,13808
20834,13845
20721,13905
20622,13986
20541,14085
20481,14198
20444,14321
20431,14448
20444,14576
20481,14698
20541,14811
20622,14910
20642,14926
18871,14926
18871,14530
18872,14517
18867,14464
18851,14413
18826,14366
18793,14325
18752,14292
18705,14267
18654,14251
18614,14247
18601,14246
18588,14247
17039,14247
17026,14246
17013,14247
16973,14251
16922,14267
16876,14292
16835,14325
16801,14366
16776,14413
16760,14464
16755,14517
16756,14530
16756,14926
16534,14926
16534,12666
16795,12666
16796,12680
16796,13441
16795,13454
16800,13507
16815,13558
16840,13604
16874,13646
16915,13679
16915,13679
16962,13704
17013,13720
17066,13725
17079,13724
18627,13724
18640,13725
18693,13720
18744,13704
18791,13679
18832,13646
18866,13604
18891,13558
18906,13507
18910,13467
18910,13467
18911,13454
18910,13441
18910,12680
18911,12666
18906,12614
18891,12563
18866,12516
18832,12475
18791,12441
18744,12416
18693,12401
18654,12397
18640,12395
18627,12397
17079,12397
17066,12395
17052,12397
17013,12401
16962,12416
16915,12441
16874,12475
16840,12516
16815,12563
16800,12614
16795,12666
16534,12666
16534,11150
17470,11150
17471,11160
17470,11171
17473,11187
17473,11189
17474,11200
17478,11223
17478,11226
17514,11452
17514,11455
17518,11479
17520,11489
17521,11492
17524,11507
17527,11517
17530,11528
17537,11542
17538,11545
17543,11554
17553,11575
17555,11578
17659,11781
17660,11784
17671,11805
17676,11815
17677,11817
17685,11831
17692,11839
17697,11848
17708,11860
17710,11861
17718,11869
17734,11886
17736,11888
17898,12050
17900,12052
17917,12069
17924,12076
17927,12078
17938,12089
17947,12095
17955,12102
17969,12109
17972,12111
17981,12115
18002,12127
18005,12127
18209,12231
18211,12233
18233,12243
18242,12248
18245,12249
18259,12256
18269,12259
18279,12263
18295,12266
18297,12266
18308,12268
18331,12272
18334,12272
18566,12309
18573,12311
18592,12313
18597,12314
18605,12314
18613,12315
18618,12315
18637,12316
18645,12315
19789,12315
19797,12316
19815,12315
19820,12315
19828,12314
19836,12314
19842,12313
19860,12311
19868,12309
19938,12298
21952,12298
21999,12398
22784,12398
22784,12390
22884,12390
22884,12398
23670,12398
23716,12298
23706,12255
94741,12255
94741,12344
94758,12430
94792,12511
94841,12584
94903,12647
94976,12695
95057,12729
95144,12746
95232,12746
95318,12729
95399,12695
95473,12647
95535,12584
95584,12511
95617,12430
95635,12344
95635,12313
100101,12313
100148,12414
100934,12414
100934,12406
101034,12406
101034,12414
101819,12414
101866,12313
101853,12262
101802,12145
101729,12040
101636,11951
101529,11883
101410,11836
101284,11814
100684,11814
100558,11836
100439,11883
100331,11951
100239,12040
100166,12145
100114,12262
100101,12313
95635,12313
95635,12255
95617,12169
95584,12088
95535,12015
95473,11952
95399,11904
95318,11870
95232,11853
95144,11853
95057,11870
94976,11904
94903,11952
94841,12015
94792,12088
94758,12169
94741,12255
23706,12255
23704,12246
23652,12129
23579,12024
23552,11998
23834,11998
23960,11976
24079,11930
24187,11861
24279,11773
24352,11668
24404,11551
24416,11499
24370,11398
23584,11398
23584,11406
23484,11406
23484,11398
22699,11398
22652,11499
22664,11551
22716,11668
22789,11773
22816,11798
22534,11798
22408,11821
22289,11867
22181,11936
22089,12024
22016,12129
21964,12246
21952,12298
19938,12298
20099,12272
20102,12272
20125,12268
20136,12266
20138,12266
20154,12263
20164,12259
20174,12256
20189,12249
20191,12248
20201,12243
20222,12233
20224,12231
20429,12127
20431,12127
20452,12115
20462,12111
20464,12109
20478,12102
20486,12095
20495,12089
20507,12078
20509,12076
20516,12069
20533,12052
20535,12050
20697,11888
20699,11886
20716,11869
20723,11861
20725,11860
20736,11848
20742,11839
20749,11831
20756,11817
20757,11815
20762,11805
20774,11784
20774,11781
20878,11578
20880,11575
20890,11554
20895,11545
20896,11542
20903,11528
20906,11517
20910,11507
20913,11492
20913,11489
20915,11479
20919,11455
20919,11452
20955,11226
20956,11223
20959,11200
20959,11198
22652,11198
22699,11298
23484,11298
23484,11290
23584,11290
23584,11298
24370,11298
24416,11198
24405,11150
102584,11150
102585,11160
102584,11171
102586,11187
102586,11189
102588,11200
102591,11223
102592,11226
102628,11452
102628,11455
102632,11479
102634,11489
102635,11492
102637,11507
102641,11517
102644,11528
102651,11542
102652,11544
102657,11554
102667,11575
102669,11578
102773,11781
102773,11784
102785,11805
102789,11815
102791,11817
102798,11831
102805,11839
102811,11848
102822,11859
102824,11861
102831,11869
102848,11886
102850,11888
103012,12050
103013,12052
103031,12069
103038,12076
103040,12078
103052,12089
103061,12095
103069,12102
103083,12109
103085,12111
103095,12115
103115,12127
103118,12127
103323,12231
103325,12233
103346,12243
103356,12248
103358,12249
103373,12256
103383,12259
103393,12263
103409,12266
103411,12266
103422,12268
103445,12272
103448,12272
103679,12309
103687,12311
103706,12313
103711,12314
103719,12314
103727,12315
103732,12315
103751,12316
103758,12315
104902,12315
104910,12316
104929,12315
104934,12315
104942,12314
104950,12314
104955,12313
104974,12311
104982,12309
105213,12272
105215,12272
105239,12268
105250,12266
105252,12266
105268,12263
105278,12259
105288,12256
105302,12249
105305,12248
105314,12243
105336,12233
105338,12231
105542,12127
105545,12127
105566,12115
105575,12111
105578,12109
105592,12102
105600,12095
105609,12089
105620,12078
105623,12076
105630,12069
105647,12052
105649,12050
105811,11888
105812,11887
105829,11869
105837,11861
105838,11860
105849,11848
105855,11839
105862,11831
105870,11817
105871,11815
105876,11805
105887,11784
105888,11781
105992,11578
105994,11575
106004,11554
106009,11545
106010,11542
106017,11528
106020,11517
106023,11508
106026,11492
106027,11489
106029,11479
106033,11455
106033,11453
106069,11226
106070,11223
106073,11200
106074,11189
106075,11187
106077,11171
106076,11160
106077,11150
106075,11134
106074,11131
106073,11121
106070,11097
106069,11094
106033,10868
106033,10865
106029,10842
106027,10831
106026,10829
106023,10813
106020,10803
106017,10793
106010,10778
106009,10776
106004,10766
105994,10745
105992,10743
105888,10539
105887,10537
105876,10515
105871,10506
105870,10504
105862,10490
105855,10481
105849,10472
105838,10461
105837,10459
105829,10451
105812,10434
105811,10432
105649,10270
105647,10268
105630,10252
105623,10244
105620,10242
105609,10231
105600,10226
105592,10219
105578,10211
105575,10210
105566,10205
105545,10194
105542,10193
105338,10089
105336,10087
105314,10077
105305,10072
105302,10071
105288,10064
105278,10062
105268,10058
105252,10055
105250,10054
105239,10053
105215,10048
105213,10048
104982,10012
104974,10009
104955,10008
104950,10007
104942,10006
104934,10005
104929,10005
104910,10004
104902,10005
103758,10005
103751,10004
103732,10005
103727,10005
103719,10006
103711,10007
103706,10008
103687,10009
103679,10012
103448,10048
103445,10048
103422,10053
103411,10054
103409,10055
103393,10058
103383,10062
103373,10064
103358,10071
103356,10072
103346,10077
103325,10087
103323,10089
103118,10193
103115,10194
103095,10205
103085,10210
103083,10211
103069,10219
103061,10226
103052,10231
103040,10242
103038,10244
103031,10252
103013,10268
103012,10270
102850,10433
102848,10434
102831,10451
102824,10459
102822,10461
102811,10472
102805,10481
102798,10490
102791,10504
102789,10506
102785,10515
102773,10537
102773,10539
102669,10743
102667,10745
102657,10766
102652,10776
102651,10778
102644,10793
102641,10803
102637,10813
102635,10829
102634,10831
102632,10842
102628,10865
102628,10868
102592,11094
102591,11097
102588,11121
102586,11131
102586,11134
102584,11150
24405,11150
24404,11146
24352,11029
24279,10924
24187,10836
24079,10767
23960,10721
23834,10698
23234,10698
23108,10721
22989,10767
22881,10836
22789,10924
22716,11029
22664,11146
22652,11198
20959,11198
20961,11189
20961,11187
20963,11171
20962,11160
20963,11150
20961,11134
20961,11131
20959,11121
20956,11097
20955,11094
20919,10868
20919,10865
20915,10842
20913,10831
20913,10829
20910,10813
20906,10803
20903,10793
20896,10778
20895,10776
20890,10766
20880,10745
20878,10743
20774,10539
20774,10537
20762,10515
20757,10506
20756,10504
20749,10490
20742,10481
20736,10472
20725,10461
20723,10459
20716,10451
20699,10434
20697,10433
20535,10270
20533,10268
20516,10252
20509,10244
20507,10242
20495,10231
20486,10226
20478,10219
20464,10211
20462,10210
20452,10205
20431,10194
20429,10193
20224,10089
20222,10087
20201,10077
20191,10072
20189,10071
20174,10064
20164,10062
20154,10058
20138,10055
20136,10054
20125,10053
20102,10048
20099,10048
19868,10012
19860,10009
19842,10008
19836,10007
19828,10006
19820,10005
19815,10005
19797,10004
19789,10005
18645,10005
18637,10004
18618,10005
18613,10005
18605,10006
18597,10007
18592,10008
18573,10009
18566,10012
18334,10048
18331,10048
18308,10053
18297,10054
18295,10055
18279,10058
18269,10062
18259,10064
18245,10071
18242,10072
18233,10077
18211,10087
18209,10089
18005,10193
18002,10194
17981,10205
17972,10210
17969,10211
17955,10219
17947,10226
17938,10231
17927,10242
17924,10244
17917,10252
17900,10268
17898,10270
17736,10433
17734,10434
17718,10451
17710,10459
17708,10461
17697,10472
17692,10481
17685,10490
17677,10504
17676,10506
17671,10515
17660,10537
17659,10539
17555,10743
17553,10745
17543,10766
17538,10776
17537,10778
17530,10793
17527,10803
17524,10813
17521,10829
17520,10831
17518,10842
17514,10865
17514,10868
17478,11094
17478,11097
17474,11121
17473,11131
17473,11134
17470,11150
16534,11150
16534,10886
16562,10706
16635,10562
16749,10449
16892,10376
17073,10347
17151,10347
17154,10348
17178,10347
17188,10347
17191,10347
17207,10347
17217,10344
17228,10343
17243,10339
17259,10335
17268,10331
17279,10328
17293,10320
17307,10314
17316,10308
17325,10303
17338,10293
17351,10284
17358,10276
17366,10269
17377,10257
17388,10245
17393,10236
17400,10228
17408,10214
17409,10212
17414,10202
17425,10181
17426,10179
17453,10125
17588,9990
17759,9903
17969,9870
20464,9870
20674,9903
Z" /> 
</g>
</g> 
</svg>
