<?xml version="1.0" standalone="no"?>
 <!DOCTYPE svg PUBLIC "-//W3C//DTD SVG 1.1//EN" 
 "http://www.w3.org/Graphics/SVG/1.1/DTD/svg11.dtd"> 
<svg xmlns="http://www.w3.org/2000/svg" version="1.1" 
    width="84.0994cm" height="59.4004cm" viewBox="0 0 331100 233860 ">
<title>SVG Picture created as AInside-F_Paste.svg date 2019/04/12 10:44:05 </title>
  <desc>Picture generated by PCBNEW </desc>
<g style="fill:#000000; fill-opacity:1;stroke:#000000; stroke-opacity:1;
stroke-linecap:round; stroke-linejoin:round; "
 transform="translate(0 0) scale(1 1)">
</g>
<g style="fill:#000000; fill-opacity:0.0; 
stroke:#000000; stroke-width:-0.000393701; stroke-opacity:1; 
stroke-linecap:round; stroke-linejoin:round;">
<g >
</g>
<g >
</g>
<g >
</g>
<g style="fill:#000000; fill-opacity:0.0; 
stroke:#000000; stroke-width:0; stroke-opacity:1; 
stroke-linecap:round; stroke-linejoin:round;">
</g>
<g style="fill:#000000; fill-opacity:1.0; 
stroke:#000000; stroke-width:0; stroke-opacity:1; 
stroke-linecap:round; stroke-linejoin:round;">
<path style="fill:#000000; fill-opacity:1.0; 
stroke:#000000; stroke-width:0; stroke-opacity:1; 
stroke-linecap:round; stroke-linejoin:round;fill-rule:evenodd;"
d="M 75014,13420
75023,13421
75032,13424
75041,13427
75050,13431
75058,13436
75065,13441
75072,13447
75079,13454
75084,13462
75089,13470
75093,13479
75096,13487
75099,13497
75100,13506
75101,13515
75101,13707
75100,13717
75099,13726
75096,13735
75093,13744
75089,13753
75084,13761
75079,13768
75072,13775
75065,13781
75058,13787
75050,13792
75041,13796
75032,13799
75023,13801
75014,13803
75005,13803
74645,13803
74636,13803
74627,13801
74617,13799
74609,13796
74600,13792
74592,13787
74584,13781
74577,13775
74571,13768
74566,13761
74561,13753
74557,13744
74553,13735
74551,13726
74550,13717
74549,13707
74549,13515
74550,13506
74551,13497
74553,13487
74557,13479
74561,13470
74566,13462
74571,13454
74577,13447
74584,13441
74592,13436
74600,13431
74609,13427
74617,13424
74627,13421
74636,13420
74645,13419
75005,13419
75014,13420
Z" /> 
<path style="fill:#000000; fill-opacity:1.0; 
stroke:#000000; stroke-width:0; stroke-opacity:1; 
stroke-linecap:round; stroke-linejoin:round;fill-rule:evenodd;"
d="M 75014,14158
75023,14159
75032,14162
75041,14165
75050,14169
75058,14174
75065,14179
75072,14186
75079,14193
75084,14200
75089,14208
75093,14217
75096,14226
75099,14235
75100,14244
75101,14254
75101,14445
75100,14455
75099,14464
75096,14473
75093,14482
75089,14491
75084,14499
75079,14506
75072,14513
75065,14520
75058,14525
75050,14530
75041,14534
75032,14537
75023,14540
75014,14541
75005,14541
74645,14541
74636,14541
74627,14540
74617,14537
74609,14534
74600,14530
74592,14525
74584,14520
74577,14513
74571,14506
74566,14499
74561,14491
74557,14482
74553,14473
74551,14464
74550,14455
74549,14445
74549,14254
74550,14244
74551,14235
74553,14226
74557,14217
74561,14208
74566,14200
74571,14193
74577,14186
74584,14179
74592,14174
74600,14169
74609,14165
74617,14162
74627,14159
74636,14158
74645,14158
75005,14158
75014,14158
Z" /> 
</g>
<g >
<path style="fill:#000000; fill-opacity:1.0; 
stroke:#000000; stroke-width:0; stroke-opacity:1; 
stroke-linecap:round; stroke-linejoin:round;fill-rule:evenodd;"
d="M 81568,13420
81577,13421
81586,13424
81595,13427
81603,13431
81612,13436
81619,13441
81626,13447
81632,13454
81638,13462
81643,13470
81647,13479
81650,13487
81652,13497
81654,13506
81654,13515
81654,13707
81654,13717
81652,13726
81650,13735
81647,13744
81643,13753
81638,13761
81632,13768
81626,13775
81619,13781
81612,13787
81603,13792
81595,13796
81586,13799
81577,13801
81568,13803
81558,13803
81199,13803
81190,13803
81180,13801
81171,13799
81162,13796
81154,13792
81146,13787
81138,13781
81131,13775
81125,13768
81119,13761
81114,13753
81110,13744
81107,13735
81105,13726
81103,13717
81103,13707
81103,13515
81103,13506
81105,13497
81107,13487
81110,13479
81114,13470
81119,13462
81125,13454
81131,13447
81138,13441
81146,13436
81154,13431
81162,13427
81171,13424
81180,13421
81190,13420
81199,13419
81558,13419
81568,13420
Z" /> 
<path style="fill:#000000; fill-opacity:1.0; 
stroke:#000000; stroke-width:0; stroke-opacity:1; 
stroke-linecap:round; stroke-linejoin:round;fill-rule:evenodd;"
d="M 81568,14158
81577,14159
81586,14162
81595,14165
81603,14169
81612,14174
81619,14179
81626,14186
81632,14193
81638,14200
81643,14208
81647,14217
81650,14226
81652,14235
81654,14244
81654,14254
81654,14445
81654,14455
81652,14464
81650,14473
81647,14482
81643,14491
81638,14499
81632,14506
81626,14513
81619,14520
81612,14525
81603,14530
81595,14534
81586,14537
81577,14540
81568,14541
81558,14541
81199,14541
81190,14541
81180,14540
81171,14537
81162,14534
81154,14530
81146,14525
81138,14520
81131,14513
81125,14506
81119,14499
81114,14491
81110,14482
81107,14473
81105,14464
81103,14455
81103,14445
81103,14254
81103,14244
81105,14235
81107,14226
81110,14217
81114,14208
81119,14200
81125,14193
81131,14186
81138,14179
81146,14174
81154,14169
81162,14165
81171,14162
81180,14159
81190,14158
81199,14158
81558,14158
81568,14158
Z" /> 
</g>
<g >
<path style="fill:#000000; fill-opacity:1.0; 
stroke:#000000; stroke-width:0; stroke-opacity:1; 
stroke-linecap:round; stroke-linejoin:round;fill-rule:evenodd;"
d="M 88121,13420
88131,13421
88140,13424
88149,13427
88157,13431
88165,13436
88173,13441
88180,13447
88186,13454
88192,13462
88196,13470
88201,13479
88204,13487
88206,13497
88207,13506
88208,13515
88208,13707
88207,13717
88206,13726
88204,13735
88201,13744
88196,13753
88192,13761
88186,13768
88180,13775
88173,13781
88165,13787
88157,13792
88149,13796
88140,13799
88131,13801
88121,13803
88112,13803
87753,13803
87743,13803
87734,13801
87725,13799
87716,13796
87707,13792
87699,13787
87692,13781
87685,13775
87678,13768
87673,13761
87668,13753
87664,13744
87661,13735
87658,13726
87657,13717
87657,13707
87657,13515
87657,13506
87658,13497
87661,13487
87664,13479
87668,13470
87673,13462
87678,13454
87685,13447
87692,13441
87699,13436
87707,13431
87716,13427
87725,13424
87734,13421
87743,13420
87753,13419
88112,13419
88121,13420
Z" /> 
<path style="fill:#000000; fill-opacity:1.0; 
stroke:#000000; stroke-width:0; stroke-opacity:1; 
stroke-linecap:round; stroke-linejoin:round;fill-rule:evenodd;"
d="M 88121,14158
88131,14159
88140,14162
88149,14165
88157,14169
88165,14174
88173,14179
88180,14186
88186,14193
88192,14200
88196,14208
88201,14217
88204,14226
88206,14235
88207,14244
88208,14254
88208,14445
88207,14455
88206,14464
88204,14473
88201,14482
88196,14491
88192,14499
88186,14506
88180,14513
88173,14520
88165,14525
88157,14530
88149,14534
88140,14537
88131,14540
88121,14541
88112,14541
87753,14541
87743,14541
87734,14540
87725,14537
87716,14534
87707,14530
87699,14525
87692,14520
87685,14513
87678,14506
87673,14499
87668,14491
87664,14482
87661,14473
87658,14464
87657,14455
87657,14445
87657,14254
87657,14244
87658,14235
87661,14226
87664,14217
87668,14208
87673,14200
87678,14193
87685,14186
87692,14179
87699,14174
87707,14169
87716,14165
87725,14162
87734,14159
87743,14158
87753,14158
88112,14158
88121,14158
Z" /> 
</g>
<g >
<path style="fill:#000000; fill-opacity:1.0; 
stroke:#000000; stroke-width:0; stroke-opacity:1; 
stroke-linecap:round; stroke-linejoin:round;fill-rule:evenodd;"
d="M 94675,13420
94684,13421
94693,13424
94702,13427
94711,13431
94719,13436
94726,13441
94733,13447
94740,13454
94745,13462
94750,13470
94754,13479
94757,13487
94760,13497
94761,13506
94761,13515
94761,13707
94761,13717
94760,13726
94757,13735
94754,13744
94750,13753
94745,13761
94740,13768
94733,13775
94726,13781
94719,13787
94711,13792
94702,13796
94693,13799
94684,13801
94675,13803
94665,13803
94306,13803
94297,13803
94288,13801
94278,13799
94270,13796
94261,13792
94253,13787
94245,13781
94238,13775
94232,13768
94226,13761
94222,13753
94218,13744
94214,13735
94212,13726
94211,13717
94210,13707
94210,13515
94211,13506
94212,13497
94214,13487
94218,13479
94222,13470
94226,13462
94232,13454
94238,13447
94245,13441
94253,13436
94261,13431
94270,13427
94278,13424
94288,13421
94297,13420
94306,13419
94665,13419
94675,13420
Z" /> 
<path style="fill:#000000; fill-opacity:1.0; 
stroke:#000000; stroke-width:0; stroke-opacity:1; 
stroke-linecap:round; stroke-linejoin:round;fill-rule:evenodd;"
d="M 94675,14158
94684,14159
94693,14162
94702,14165
94711,14169
94719,14174
94726,14179
94733,14186
94740,14193
94745,14200
94750,14208
94754,14217
94757,14226
94760,14235
94761,14244
94761,14254
94761,14445
94761,14455
94760,14464
94757,14473
94754,14482
94750,14491
94745,14499
94740,14506
94733,14513
94726,14520
94719,14525
94711,14530
94702,14534
94693,14537
94684,14540
94675,14541
94665,14541
94306,14541
94297,14541
94288,14540
94278,14537
94270,14534
94261,14530
94253,14525
94245,14520
94238,14513
94232,14506
94226,14499
94222,14491
94218,14482
94214,14473
94212,14464
94211,14455
94210,14445
94210,14254
94211,14244
94212,14235
94214,14226
94218,14217
94222,14208
94226,14200
94232,14193
94238,14186
94245,14179
94253,14174
94261,14169
94270,14165
94278,14162
94288,14159
94297,14158
94306,14158
94665,14158
94675,14158
Z" /> 
</g>
<g >
<path style="fill:#000000; fill-opacity:1.0; 
stroke:#000000; stroke-width:0; stroke-opacity:1; 
stroke-linecap:round; stroke-linejoin:round;fill-rule:evenodd;"
d="M 96524,12024
96533,12026
96542,12028
96551,12031
96560,12035
96568,12040
96575,12046
96582,12052
96589,12059
96594,12067
96599,12075
96603,12083
96606,12092
96609,12101
96610,12110
96611,12120
96611,12479
96610,12489
96609,12498
96606,12507
96603,12516
96599,12524
96594,12532
96589,12540
96582,12547
96575,12553
96568,12559
96560,12564
96551,12568
96542,12571
96533,12573
96524,12575
96515,12575
96323,12575
96313,12575
96304,12573
96295,12571
96286,12568
96277,12564
96269,12559
96262,12553
96255,12547
96248,12540
96243,12532
96238,12524
96234,12516
96231,12507
96229,12498
96227,12489
96227,12479
96227,12120
96227,12110
96229,12101
96231,12092
96234,12083
96238,12075
96243,12067
96248,12059
96255,12052
96262,12046
96269,12040
96277,12035
96286,12031
96295,12028
96304,12026
96313,12024
96323,12024
96515,12024
96524,12024
Z" /> 
<path style="fill:#000000; fill-opacity:1.0; 
stroke:#000000; stroke-width:0; stroke-opacity:1; 
stroke-linecap:round; stroke-linejoin:round;fill-rule:evenodd;"
d="M 97262,12024
97271,12026
97281,12028
97289,12031
97298,12035
97306,12040
97314,12046
97321,12052
97327,12059
97333,12067
97337,12075
97341,12083
97345,12092
97347,12101
97348,12110
97349,12120
97349,12479
97348,12489
97347,12498
97345,12507
97341,12516
97337,12524
97333,12532
97327,12540
97321,12547
97314,12553
97306,12559
97298,12564
97289,12568
97281,12571
97271,12573
97262,12575
97253,12575
97061,12575
97051,12575
97042,12573
97033,12571
97024,12568
97016,12564
97008,12559
97000,12553
96993,12547
96987,12540
96981,12532
96976,12524
96972,12516
96969,12507
96967,12498
96965,12489
96965,12479
96965,12120
96965,12110
96967,12101
96969,12092
96972,12083
96976,12075
96981,12067
96987,12059
96993,12052
97000,12046
97008,12040
97016,12035
97024,12031
97033,12028
97042,12026
97051,12024
97061,12024
97253,12024
97262,12024
Z" /> 
</g>
<g >
<path style="fill:#000000; fill-opacity:1.0; 
stroke:#000000; stroke-width:0; stroke-opacity:1; 
stroke-linecap:round; stroke-linejoin:round;fill-rule:evenodd;"
d="M 26943,14254
26943,14647
26353,14647
26353,14254
26943,14254
Z" /> 
<path style="fill:#000000; fill-opacity:1.0; 
stroke:#000000; stroke-width:0; stroke-opacity:1; 
stroke-linecap:round; stroke-linejoin:round;fill-rule:evenodd;"
d="M 26943,13624
26943,14017
26353,14017
26353,13624
26943,13624
Z" /> 
<path style="fill:#000000; fill-opacity:1.0; 
stroke:#000000; stroke-width:0; stroke-opacity:1; 
stroke-linecap:round; stroke-linejoin:round;fill-rule:evenodd;"
d="M 26943,12994
26943,13387
26353,13387
26353,12994
26943,12994
Z" /> 
<path style="fill:#000000; fill-opacity:1.0; 
stroke:#000000; stroke-width:0; stroke-opacity:1; 
stroke-linecap:round; stroke-linejoin:round;fill-rule:evenodd;"
d="M 25014,14254
25014,14647
24424,14647
24424,14254
25014,14254
Z" /> 
<path style="fill:#000000; fill-opacity:1.0; 
stroke:#000000; stroke-width:0; stroke-opacity:1; 
stroke-linecap:round; stroke-linejoin:round;fill-rule:evenodd;"
d="M 25014,13624
25014,14017
24424,14017
24424,13624
25014,13624
Z" /> 
<path style="fill:#000000; fill-opacity:1.0; 
stroke:#000000; stroke-width:0; stroke-opacity:1; 
stroke-linecap:round; stroke-linejoin:round;fill-rule:evenodd;"
d="M 25014,12994
25014,13387
24424,13387
24424,12994
25014,12994
Z" /> 
</g>
<g >
<path style="fill:#000000; fill-opacity:1.0; 
stroke:#000000; stroke-width:0; stroke-opacity:1; 
stroke-linecap:round; stroke-linejoin:round;fill-rule:evenodd;"
d="M 33505,14254
33505,14647
32914,14647
32914,14254
33505,14254
Z" /> 
<path style="fill:#000000; fill-opacity:1.0; 
stroke:#000000; stroke-width:0; stroke-opacity:1; 
stroke-linecap:round; stroke-linejoin:round;fill-rule:evenodd;"
d="M 33505,13624
33505,14017
32914,14017
32914,13624
33505,13624
Z" /> 
<path style="fill:#000000; fill-opacity:1.0; 
stroke:#000000; stroke-width:0; stroke-opacity:1; 
stroke-linecap:round; stroke-linejoin:round;fill-rule:evenodd;"
d="M 33505,12994
33505,13387
32914,13387
32914,12994
33505,12994
Z" /> 
<path style="fill:#000000; fill-opacity:1.0; 
stroke:#000000; stroke-width:0; stroke-opacity:1; 
stroke-linecap:round; stroke-linejoin:round;fill-rule:evenodd;"
d="M 31576,14254
31576,14647
30985,14647
30985,14254
31576,14254
Z" /> 
<path style="fill:#000000; fill-opacity:1.0; 
stroke:#000000; stroke-width:0; stroke-opacity:1; 
stroke-linecap:round; stroke-linejoin:round;fill-rule:evenodd;"
d="M 31576,13624
31576,14017
30985,14017
30985,13624
31576,13624
Z" /> 
<path style="fill:#000000; fill-opacity:1.0; 
stroke:#000000; stroke-width:0; stroke-opacity:1; 
stroke-linecap:round; stroke-linejoin:round;fill-rule:evenodd;"
d="M 31576,12994
31576,13387
30985,13387
30985,12994
31576,12994
Z" /> 
</g>
<g >
<path style="fill:#000000; fill-opacity:1.0; 
stroke:#000000; stroke-width:0; stroke-opacity:1; 
stroke-linecap:round; stroke-linejoin:round;fill-rule:evenodd;"
d="M 99118,14254
99118,14647
98528,14647
98528,14254
99118,14254
Z" /> 
<path style="fill:#000000; fill-opacity:1.0; 
stroke:#000000; stroke-width:0; stroke-opacity:1; 
stroke-linecap:round; stroke-linejoin:round;fill-rule:evenodd;"
d="M 99118,13624
99118,14017
98528,14017
98528,13624
99118,13624
Z" /> 
<path style="fill:#000000; fill-opacity:1.0; 
stroke:#000000; stroke-width:0; stroke-opacity:1; 
stroke-linecap:round; stroke-linejoin:round;fill-rule:evenodd;"
d="M 99118,12994
99118,13387
98528,13387
98528,12994
99118,12994
Z" /> 
<path style="fill:#000000; fill-opacity:1.0; 
stroke:#000000; stroke-width:0; stroke-opacity:1; 
stroke-linecap:round; stroke-linejoin:round;fill-rule:evenodd;"
d="M 97189,14254
97189,14647
96599,14647
96599,14254
97189,14254
Z" /> 
<path style="fill:#000000; fill-opacity:1.0; 
stroke:#000000; stroke-width:0; stroke-opacity:1; 
stroke-linecap:round; stroke-linejoin:round;fill-rule:evenodd;"
d="M 97189,13624
97189,14017
96599,14017
96599,13624
97189,13624
Z" /> 
<path style="fill:#000000; fill-opacity:1.0; 
stroke:#000000; stroke-width:0; stroke-opacity:1; 
stroke-linecap:round; stroke-linejoin:round;fill-rule:evenodd;"
d="M 97189,12994
97189,13387
96599,13387
96599,12994
97189,12994
Z" /> 
</g>
<g >
<path style="fill:#000000; fill-opacity:1.0; 
stroke:#000000; stroke-width:0; stroke-opacity:1; 
stroke-linecap:round; stroke-linejoin:round;fill-rule:evenodd;"
d="M 92557,14254
92557,14647
91966,14647
91966,14254
92557,14254
Z" /> 
<path style="fill:#000000; fill-opacity:1.0; 
stroke:#000000; stroke-width:0; stroke-opacity:1; 
stroke-linecap:round; stroke-linejoin:round;fill-rule:evenodd;"
d="M 92557,13624
92557,14017
91966,14017
91966,13624
92557,13624
Z" /> 
<path style="fill:#000000; fill-opacity:1.0; 
stroke:#000000; stroke-width:0; stroke-opacity:1; 
stroke-linecap:round; stroke-linejoin:round;fill-rule:evenodd;"
d="M 92557,12994
92557,13387
91966,13387
91966,12994
92557,12994
Z" /> 
<path style="fill:#000000; fill-opacity:1.0; 
stroke:#000000; stroke-width:0; stroke-opacity:1; 
stroke-linecap:round; stroke-linejoin:round;fill-rule:evenodd;"
d="M 90628,14254
90628,14647
90037,14647
90037,14254
90628,14254
Z" /> 
<path style="fill:#000000; fill-opacity:1.0; 
stroke:#000000; stroke-width:0; stroke-opacity:1; 
stroke-linecap:round; stroke-linejoin:round;fill-rule:evenodd;"
d="M 90628,13624
90628,14017
90037,14017
90037,13624
90628,13624
Z" /> 
<path style="fill:#000000; fill-opacity:1.0; 
stroke:#000000; stroke-width:0; stroke-opacity:1; 
stroke-linecap:round; stroke-linejoin:round;fill-rule:evenodd;"
d="M 90628,12994
90628,13387
90037,13387
90037,12994
90628,12994
Z" /> 
</g>
<g >
<path style="fill:#000000; fill-opacity:1.0; 
stroke:#000000; stroke-width:0; stroke-opacity:1; 
stroke-linecap:round; stroke-linejoin:round;fill-rule:evenodd;"
d="M 85996,14254
85996,14647
85405,14647
85405,14254
85996,14254
Z" /> 
<path style="fill:#000000; fill-opacity:1.0; 
stroke:#000000; stroke-width:0; stroke-opacity:1; 
stroke-linecap:round; stroke-linejoin:round;fill-rule:evenodd;"
d="M 85996,13624
85996,14017
85405,14017
85405,13624
85996,13624
Z" /> 
<path style="fill:#000000; fill-opacity:1.0; 
stroke:#000000; stroke-width:0; stroke-opacity:1; 
stroke-linecap:round; stroke-linejoin:round;fill-rule:evenodd;"
d="M 85996,12994
85996,13387
85405,13387
85405,12994
85996,12994
Z" /> 
<path style="fill:#000000; fill-opacity:1.0; 
stroke:#000000; stroke-width:0; stroke-opacity:1; 
stroke-linecap:round; stroke-linejoin:round;fill-rule:evenodd;"
d="M 84066,14254
84066,14647
83476,14647
83476,14254
84066,14254
Z" /> 
<path style="fill:#000000; fill-opacity:1.0; 
stroke:#000000; stroke-width:0; stroke-opacity:1; 
stroke-linecap:round; stroke-linejoin:round;fill-rule:evenodd;"
d="M 84066,13624
84066,14017
83476,14017
83476,13624
84066,13624
Z" /> 
<path style="fill:#000000; fill-opacity:1.0; 
stroke:#000000; stroke-width:0; stroke-opacity:1; 
stroke-linecap:round; stroke-linejoin:round;fill-rule:evenodd;"
d="M 84066,12994
84066,13387
83476,13387
83476,12994
84066,12994
Z" /> 
</g>
<g >
<path style="fill:#000000; fill-opacity:1.0; 
stroke:#000000; stroke-width:0; stroke-opacity:1; 
stroke-linecap:round; stroke-linejoin:round;fill-rule:evenodd;"
d="M 79434,14254
79434,14647
78844,14647
78844,14254
79434,14254
Z" /> 
<path style="fill:#000000; fill-opacity:1.0; 
stroke:#000000; stroke-width:0; stroke-opacity:1; 
stroke-linecap:round; stroke-linejoin:round;fill-rule:evenodd;"
d="M 79434,13624
79434,14017
78844,14017
78844,13624
79434,13624
Z" /> 
<path style="fill:#000000; fill-opacity:1.0; 
stroke:#000000; stroke-width:0; stroke-opacity:1; 
stroke-linecap:round; stroke-linejoin:round;fill-rule:evenodd;"
d="M 79434,12994
79434,13387
78844,13387
78844,12994
79434,12994
Z" /> 
<path style="fill:#000000; fill-opacity:1.0; 
stroke:#000000; stroke-width:0; stroke-opacity:1; 
stroke-linecap:round; stroke-linejoin:round;fill-rule:evenodd;"
d="M 77505,14254
77505,14647
76915,14647
76915,14254
77505,14254
Z" /> 
<path style="fill:#000000; fill-opacity:1.0; 
stroke:#000000; stroke-width:0; stroke-opacity:1; 
stroke-linecap:round; stroke-linejoin:round;fill-rule:evenodd;"
d="M 77505,13624
77505,14017
76915,14017
76915,13624
77505,13624
Z" /> 
<path style="fill:#000000; fill-opacity:1.0; 
stroke:#000000; stroke-width:0; stroke-opacity:1; 
stroke-linecap:round; stroke-linejoin:round;fill-rule:evenodd;"
d="M 77505,12994
77505,13387
76915,13387
76915,12994
77505,12994
Z" /> 
</g>
<g >
<path style="fill:#000000; fill-opacity:1.0; 
stroke:#000000; stroke-width:0; stroke-opacity:1; 
stroke-linecap:round; stroke-linejoin:round;fill-rule:evenodd;"
d="M 72873,14254
72873,14647
72282,14647
72282,14254
72873,14254
Z" /> 
<path style="fill:#000000; fill-opacity:1.0; 
stroke:#000000; stroke-width:0; stroke-opacity:1; 
stroke-linecap:round; stroke-linejoin:round;fill-rule:evenodd;"
d="M 72873,13624
72873,14017
72282,14017
72282,13624
72873,13624
Z" /> 
<path style="fill:#000000; fill-opacity:1.0; 
stroke:#000000; stroke-width:0; stroke-opacity:1; 
stroke-linecap:round; stroke-linejoin:round;fill-rule:evenodd;"
d="M 72873,12994
72873,13387
72282,13387
72282,12994
72873,12994
Z" /> 
<path style="fill:#000000; fill-opacity:1.0; 
stroke:#000000; stroke-width:0; stroke-opacity:1; 
stroke-linecap:round; stroke-linejoin:round;fill-rule:evenodd;"
d="M 70944,14254
70944,14647
70353,14647
70353,14254
70944,14254
Z" /> 
<path style="fill:#000000; fill-opacity:1.0; 
stroke:#000000; stroke-width:0; stroke-opacity:1; 
stroke-linecap:round; stroke-linejoin:round;fill-rule:evenodd;"
d="M 70944,13624
70944,14017
70353,14017
70353,13624
70944,13624
Z" /> 
<path style="fill:#000000; fill-opacity:1.0; 
stroke:#000000; stroke-width:0; stroke-opacity:1; 
stroke-linecap:round; stroke-linejoin:round;fill-rule:evenodd;"
d="M 70944,12994
70944,13387
70353,13387
70353,12994
70944,12994
Z" /> 
</g>
<g >
<path style="fill:#000000; fill-opacity:1.0; 
stroke:#000000; stroke-width:0; stroke-opacity:1; 
stroke-linecap:round; stroke-linejoin:round;fill-rule:evenodd;"
d="M 66312,14254
66312,14647
65721,14647
65721,14254
66312,14254
Z" /> 
<path style="fill:#000000; fill-opacity:1.0; 
stroke:#000000; stroke-width:0; stroke-opacity:1; 
stroke-linecap:round; stroke-linejoin:round;fill-rule:evenodd;"
d="M 66312,13624
66312,14017
65721,14017
65721,13624
66312,13624
Z" /> 
<path style="fill:#000000; fill-opacity:1.0; 
stroke:#000000; stroke-width:0; stroke-opacity:1; 
stroke-linecap:round; stroke-linejoin:round;fill-rule:evenodd;"
d="M 66312,12994
66312,13387
65721,13387
65721,12994
66312,12994
Z" /> 
<path style="fill:#000000; fill-opacity:1.0; 
stroke:#000000; stroke-width:0; stroke-opacity:1; 
stroke-linecap:round; stroke-linejoin:round;fill-rule:evenodd;"
d="M 64382,14254
64382,14647
63792,14647
63792,14254
64382,14254
Z" /> 
<path style="fill:#000000; fill-opacity:1.0; 
stroke:#000000; stroke-width:0; stroke-opacity:1; 
stroke-linecap:round; stroke-linejoin:round;fill-rule:evenodd;"
d="M 64382,13624
64382,14017
63792,14017
63792,13624
64382,13624
Z" /> 
<path style="fill:#000000; fill-opacity:1.0; 
stroke:#000000; stroke-width:0; stroke-opacity:1; 
stroke-linecap:round; stroke-linejoin:round;fill-rule:evenodd;"
d="M 64382,12994
64382,13387
63792,13387
63792,12994
64382,12994
Z" /> 
</g>
<g >
<path style="fill:#000000; fill-opacity:1.0; 
stroke:#000000; stroke-width:0; stroke-opacity:1; 
stroke-linecap:round; stroke-linejoin:round;fill-rule:evenodd;"
d="M 59750,14254
59750,14647
59160,14647
59160,14254
59750,14254
Z" /> 
<path style="fill:#000000; fill-opacity:1.0; 
stroke:#000000; stroke-width:0; stroke-opacity:1; 
stroke-linecap:round; stroke-linejoin:round;fill-rule:evenodd;"
d="M 59750,13624
59750,14017
59160,14017
59160,13624
59750,13624
Z" /> 
<path style="fill:#000000; fill-opacity:1.0; 
stroke:#000000; stroke-width:0; stroke-opacity:1; 
stroke-linecap:round; stroke-linejoin:round;fill-rule:evenodd;"
d="M 59750,12994
59750,13387
59160,13387
59160,12994
59750,12994
Z" /> 
<path style="fill:#000000; fill-opacity:1.0; 
stroke:#000000; stroke-width:0; stroke-opacity:1; 
stroke-linecap:round; stroke-linejoin:round;fill-rule:evenodd;"
d="M 57821,14254
57821,14647
57230,14647
57230,14254
57821,14254
Z" /> 
<path style="fill:#000000; fill-opacity:1.0; 
stroke:#000000; stroke-width:0; stroke-opacity:1; 
stroke-linecap:round; stroke-linejoin:round;fill-rule:evenodd;"
d="M 57821,13624
57821,14017
57230,14017
57230,13624
57821,13624
Z" /> 
<path style="fill:#000000; fill-opacity:1.0; 
stroke:#000000; stroke-width:0; stroke-opacity:1; 
stroke-linecap:round; stroke-linejoin:round;fill-rule:evenodd;"
d="M 57821,12994
57821,13387
57230,13387
57230,12994
57821,12994
Z" /> 
</g>
<g >
<path style="fill:#000000; fill-opacity:1.0; 
stroke:#000000; stroke-width:0; stroke-opacity:1; 
stroke-linecap:round; stroke-linejoin:round;fill-rule:evenodd;"
d="M 53189,14254
53189,14647
52598,14647
52598,14254
53189,14254
Z" /> 
<path style="fill:#000000; fill-opacity:1.0; 
stroke:#000000; stroke-width:0; stroke-opacity:1; 
stroke-linecap:round; stroke-linejoin:round;fill-rule:evenodd;"
d="M 53189,13624
53189,14017
52598,14017
52598,13624
53189,13624
Z" /> 
<path style="fill:#000000; fill-opacity:1.0; 
stroke:#000000; stroke-width:0; stroke-opacity:1; 
stroke-linecap:round; stroke-linejoin:round;fill-rule:evenodd;"
d="M 53189,12994
53189,13387
52598,13387
52598,12994
53189,12994
Z" /> 
<path style="fill:#000000; fill-opacity:1.0; 
stroke:#000000; stroke-width:0; stroke-opacity:1; 
stroke-linecap:round; stroke-linejoin:round;fill-rule:evenodd;"
d="M 51260,14254
51260,14647
50669,14647
50669,14254
51260,14254
Z" /> 
<path style="fill:#000000; fill-opacity:1.0; 
stroke:#000000; stroke-width:0; stroke-opacity:1; 
stroke-linecap:round; stroke-linejoin:round;fill-rule:evenodd;"
d="M 51260,13624
51260,14017
50669,14017
50669,13624
51260,13624
Z" /> 
<path style="fill:#000000; fill-opacity:1.0; 
stroke:#000000; stroke-width:0; stroke-opacity:1; 
stroke-linecap:round; stroke-linejoin:round;fill-rule:evenodd;"
d="M 51260,12994
51260,13387
50669,13387
50669,12994
51260,12994
Z" /> 
</g>
<g >
<path style="fill:#000000; fill-opacity:1.0; 
stroke:#000000; stroke-width:0; stroke-opacity:1; 
stroke-linecap:round; stroke-linejoin:round;fill-rule:evenodd;"
d="M 46627,14254
46627,14647
46037,14647
46037,14254
46627,14254
Z" /> 
<path style="fill:#000000; fill-opacity:1.0; 
stroke:#000000; stroke-width:0; stroke-opacity:1; 
stroke-linecap:round; stroke-linejoin:round;fill-rule:evenodd;"
d="M 46627,13624
46627,14017
46037,14017
46037,13624
46627,13624
Z" /> 
<path style="fill:#000000; fill-opacity:1.0; 
stroke:#000000; stroke-width:0; stroke-opacity:1; 
stroke-linecap:round; stroke-linejoin:round;fill-rule:evenodd;"
d="M 46627,12994
46627,13387
46037,13387
46037,12994
46627,12994
Z" /> 
<path style="fill:#000000; fill-opacity:1.0; 
stroke:#000000; stroke-width:0; stroke-opacity:1; 
stroke-linecap:round; stroke-linejoin:round;fill-rule:evenodd;"
d="M 44698,14254
44698,14647
44108,14647
44108,14254
44698,14254
Z" /> 
<path style="fill:#000000; fill-opacity:1.0; 
stroke:#000000; stroke-width:0; stroke-opacity:1; 
stroke-linecap:round; stroke-linejoin:round;fill-rule:evenodd;"
d="M 44698,13624
44698,14017
44108,14017
44108,13624
44698,13624
Z" /> 
<path style="fill:#000000; fill-opacity:1.0; 
stroke:#000000; stroke-width:0; stroke-opacity:1; 
stroke-linecap:round; stroke-linejoin:round;fill-rule:evenodd;"
d="M 44698,12994
44698,13387
44108,13387
44108,12994
44698,12994
Z" /> 
</g>
<g >
<path style="fill:#000000; fill-opacity:1.0; 
stroke:#000000; stroke-width:0; stroke-opacity:1; 
stroke-linecap:round; stroke-linejoin:round;fill-rule:evenodd;"
d="M 40066,14254
40066,14647
39476,14647
39476,14254
40066,14254
Z" /> 
<path style="fill:#000000; fill-opacity:1.0; 
stroke:#000000; stroke-width:0; stroke-opacity:1; 
stroke-linecap:round; stroke-linejoin:round;fill-rule:evenodd;"
d="M 40066,13624
40066,14017
39476,14017
39476,13624
40066,13624
Z" /> 
<path style="fill:#000000; fill-opacity:1.0; 
stroke:#000000; stroke-width:0; stroke-opacity:1; 
stroke-linecap:round; stroke-linejoin:round;fill-rule:evenodd;"
d="M 40066,12994
40066,13387
39476,13387
39476,12994
40066,12994
Z" /> 
<path style="fill:#000000; fill-opacity:1.0; 
stroke:#000000; stroke-width:0; stroke-opacity:1; 
stroke-linecap:round; stroke-linejoin:round;fill-rule:evenodd;"
d="M 38137,14254
38137,14647
37546,14647
37546,14254
38137,14254
Z" /> 
<path style="fill:#000000; fill-opacity:1.0; 
stroke:#000000; stroke-width:0; stroke-opacity:1; 
stroke-linecap:round; stroke-linejoin:round;fill-rule:evenodd;"
d="M 38137,13624
38137,14017
37546,14017
37546,13624
38137,13624
Z" /> 
<path style="fill:#000000; fill-opacity:1.0; 
stroke:#000000; stroke-width:0; stroke-opacity:1; 
stroke-linecap:round; stroke-linejoin:round;fill-rule:evenodd;"
d="M 38137,12994
38137,13387
37546,13387
37546,12994
38137,12994
Z" /> 
</g>
<g >
<path style="fill:#000000; fill-opacity:1.0; 
stroke:#000000; stroke-width:0; stroke-opacity:1; 
stroke-linecap:round; stroke-linejoin:round;fill-rule:evenodd;"
d="M 27939,14008
27948,14009
27957,14012
27966,14015
27974,14019
27982,14024
27990,14029
27997,14036
28003,14043
28009,14050
28014,14058
28018,14067
28021,14076
28023,14085
28025,14094
28025,14104
28025,14295
28025,14305
28023,14314
28021,14323
28018,14332
28014,14341
28009,14349
28003,14356
27997,14363
27990,14370
27982,14375
27974,14380
27966,14384
27957,14387
27948,14390
27939,14391
27929,14391
27570,14391
27560,14391
27551,14390
27542,14387
27533,14384
27525,14380
27517,14375
27509,14370
27502,14363
27496,14356
27490,14349
27485,14341
27481,14332
27478,14323
27476,14314
27474,14305
27474,14295
27474,14104
27474,14094
27476,14085
27478,14076
27481,14067
27485,14058
27490,14050
27496,14043
27502,14036
27509,14029
27517,14024
27525,14019
27533,14015
27542,14012
27551,14009
27560,14008
27570,14008
27929,14008
27939,14008
Z" /> 
<path style="fill:#000000; fill-opacity:1.0; 
stroke:#000000; stroke-width:0; stroke-opacity:1; 
stroke-linecap:round; stroke-linejoin:round;fill-rule:evenodd;"
d="M 27939,13270
27948,13271
27957,13274
27966,13277
27974,13281
27982,13286
27990,13291
27997,13297
28003,13304
28009,13312
28014,13320
28018,13329
28021,13337
28023,13347
28025,13356
28025,13365
28025,13557
28025,13567
28023,13576
28021,13585
28018,13594
28014,13603
28009,13611
28003,13618
27997,13625
27990,13631
27982,13637
27974,13642
27966,13646
27957,13649
27948,13651
27939,13653
27929,13653
27570,13653
27560,13653
27551,13651
27542,13649
27533,13646
27525,13642
27517,13637
27509,13631
27502,13625
27496,13618
27490,13611
27485,13603
27481,13594
27478,13585
27476,13576
27474,13567
27474,13557
27474,13365
27474,13356
27476,13347
27478,13337
27481,13329
27485,13320
27490,13312
27496,13304
27502,13297
27509,13291
27517,13286
27525,13281
27533,13277
27542,13274
27551,13271
27560,13270
27570,13269
27929,13269
27939,13270
Z" /> 
</g>
<g >
<path style="fill:#000000; fill-opacity:1.0; 
stroke:#000000; stroke-width:0; stroke-opacity:1; 
stroke-linecap:round; stroke-linejoin:round;fill-rule:evenodd;"
d="M 34592,14158
34601,14159
34611,14162
34619,14165
34628,14169
34636,14174
34644,14179
34651,14186
34657,14193
34663,14200
34667,14208
34671,14217
34675,14226
34677,14235
34678,14244
34679,14254
34679,14445
34678,14455
34677,14464
34675,14473
34671,14482
34667,14491
34663,14499
34657,14506
34651,14513
34644,14520
34636,14525
34628,14530
34619,14534
34611,14537
34601,14540
34592,14541
34583,14541
34224,14541
34214,14541
34205,14540
34196,14537
34187,14534
34178,14530
34170,14525
34163,14520
34156,14513
34149,14506
34144,14499
34139,14491
34135,14482
34132,14473
34129,14464
34128,14455
34128,14445
34128,14254
34128,14244
34129,14235
34132,14226
34135,14217
34139,14208
34144,14200
34149,14193
34156,14186
34163,14179
34170,14174
34178,14169
34187,14165
34196,14162
34205,14159
34214,14158
34224,14158
34583,14158
34592,14158
Z" /> 
<path style="fill:#000000; fill-opacity:1.0; 
stroke:#000000; stroke-width:0; stroke-opacity:1; 
stroke-linecap:round; stroke-linejoin:round;fill-rule:evenodd;"
d="M 34592,13420
34601,13421
34611,13424
34619,13427
34628,13431
34636,13436
34644,13441
34651,13447
34657,13454
34663,13462
34667,13470
34671,13479
34675,13487
34677,13497
34678,13506
34679,13515
34679,13707
34678,13717
34677,13726
34675,13735
34671,13744
34667,13753
34663,13761
34657,13768
34651,13775
34644,13781
34636,13787
34628,13792
34619,13796
34611,13799
34601,13801
34592,13803
34583,13803
34224,13803
34214,13803
34205,13801
34196,13799
34187,13796
34178,13792
34170,13787
34163,13781
34156,13775
34149,13768
34144,13761
34139,13753
34135,13744
34132,13735
34129,13726
34128,13717
34128,13707
34128,13515
34128,13506
34129,13497
34132,13487
34135,13479
34139,13470
34144,13462
34149,13454
34156,13447
34163,13441
34170,13436
34178,13431
34187,13427
34196,13424
34205,13421
34214,13420
34224,13419
34583,13419
34592,13420
Z" /> 
</g>
<g >
<path style="fill:#000000; fill-opacity:1.0; 
stroke:#000000; stroke-width:0; stroke-opacity:1; 
stroke-linecap:round; stroke-linejoin:round;fill-rule:evenodd;"
d="M 41146,14158
41155,14159
41164,14162
41173,14165
41182,14169
41190,14174
41197,14179
41204,14186
41211,14193
41216,14200
41221,14208
41225,14217
41228,14226
41231,14235
41232,14244
41232,14254
41232,14445
41232,14455
41231,14464
41228,14473
41225,14482
41221,14491
41216,14499
41211,14506
41204,14513
41197,14520
41190,14525
41182,14530
41173,14534
41164,14537
41155,14540
41146,14541
41136,14541
40777,14541
40768,14541
40758,14540
40749,14537
40740,14534
40732,14530
40724,14525
40716,14520
40709,14513
40703,14506
40697,14499
40693,14491
40688,14482
40685,14473
40683,14464
40682,14455
40681,14445
40681,14254
40682,14244
40683,14235
40685,14226
40688,14217
40693,14208
40697,14200
40703,14193
40709,14186
40716,14179
40724,14174
40732,14169
40740,14165
40749,14162
40758,14159
40768,14158
40777,14158
41136,14158
41146,14158
Z" /> 
<path style="fill:#000000; fill-opacity:1.0; 
stroke:#000000; stroke-width:0; stroke-opacity:1; 
stroke-linecap:round; stroke-linejoin:round;fill-rule:evenodd;"
d="M 41146,13420
41155,13421
41164,13424
41173,13427
41182,13431
41190,13436
41197,13441
41204,13447
41211,13454
41216,13462
41221,13470
41225,13479
41228,13487
41231,13497
41232,13506
41232,13515
41232,13707
41232,13717
41231,13726
41228,13735
41225,13744
41221,13753
41216,13761
41211,13768
41204,13775
41197,13781
41190,13787
41182,13792
41173,13796
41164,13799
41155,13801
41146,13803
41136,13803
40777,13803
40768,13803
40758,13801
40749,13799
40740,13796
40732,13792
40724,13787
40716,13781
40709,13775
40703,13768
40697,13761
40693,13753
40688,13744
40685,13735
40683,13726
40682,13717
40681,13707
40681,13515
40682,13506
40683,13497
40685,13487
40688,13479
40693,13470
40697,13462
40703,13454
40709,13447
40716,13441
40724,13436
40732,13431
40740,13427
40749,13424
40758,13421
40768,13420
40777,13419
41136,13419
41146,13420
Z" /> 
</g>
<g >
<path style="fill:#000000; fill-opacity:1.0; 
stroke:#000000; stroke-width:0; stroke-opacity:1; 
stroke-linecap:round; stroke-linejoin:round;fill-rule:evenodd;"
d="M 47699,14158
47709,14159
47718,14162
47727,14165
47735,14169
47743,14174
47751,14179
47758,14186
47764,14193
47770,14200
47775,14208
47779,14217
47782,14226
47784,14235
47786,14244
47786,14254
47786,14445
47786,14455
47784,14464
47782,14473
47779,14482
47775,14491
47770,14499
47764,14506
47758,14513
47751,14520
47743,14525
47735,14530
47727,14534
47718,14537
47709,14540
47699,14541
47690,14541
47331,14541
47321,14541
47312,14540
47303,14537
47294,14534
47286,14530
47277,14525
47270,14520
47263,14513
47257,14506
47251,14499
47246,14491
47242,14482
47239,14473
47237,14464
47235,14455
47235,14445
47235,14254
47235,14244
47237,14235
47239,14226
47242,14217
47246,14208
47251,14200
47257,14193
47263,14186
47270,14179
47277,14174
47286,14169
47294,14165
47303,14162
47312,14159
47321,14158
47331,14158
47690,14158
47699,14158
Z" /> 
<path style="fill:#000000; fill-opacity:1.0; 
stroke:#000000; stroke-width:0; stroke-opacity:1; 
stroke-linecap:round; stroke-linejoin:round;fill-rule:evenodd;"
d="M 47699,13420
47709,13421
47718,13424
47727,13427
47735,13431
47743,13436
47751,13441
47758,13447
47764,13454
47770,13462
47775,13470
47779,13479
47782,13487
47784,13497
47786,13506
47786,13515
47786,13707
47786,13717
47784,13726
47782,13735
47779,13744
47775,13753
47770,13761
47764,13768
47758,13775
47751,13781
47743,13787
47735,13792
47727,13796
47718,13799
47709,13801
47699,13803
47690,13803
47331,13803
47321,13803
47312,13801
47303,13799
47294,13796
47286,13792
47277,13787
47270,13781
47263,13775
47257,13768
47251,13761
47246,13753
47242,13744
47239,13735
47237,13726
47235,13717
47235,13707
47235,13515
47235,13506
47237,13497
47239,13487
47242,13479
47246,13470
47251,13462
47257,13454
47263,13447
47270,13441
47277,13436
47286,13431
47294,13427
47303,13424
47312,13421
47321,13420
47331,13419
47690,13419
47699,13420
Z" /> 
</g>
<g >
<path style="fill:#000000; fill-opacity:1.0; 
stroke:#000000; stroke-width:0; stroke-opacity:1; 
stroke-linecap:round; stroke-linejoin:round;fill-rule:evenodd;"
d="M 54253,14158
54262,14159
54272,14162
54280,14165
54289,14169
54297,14174
54305,14179
54312,14186
54318,14193
54323,14200
54328,14208
54332,14217
54336,14226
54338,14235
54339,14244
54340,14254
54340,14445
54339,14455
54338,14464
54336,14473
54332,14482
54328,14491
54323,14499
54318,14506
54312,14513
54305,14520
54297,14525
54289,14530
54280,14534
54272,14537
54262,14540
54253,14541
54244,14541
53884,14541
53875,14541
53866,14540
53857,14537
53848,14534
53839,14530
53831,14525
53824,14520
53817,14513
53810,14506
53805,14499
53800,14491
53796,14482
53793,14473
53790,14464
53789,14455
53788,14445
53788,14254
53789,14244
53790,14235
53793,14226
53796,14217
53800,14208
53805,14200
53810,14193
53817,14186
53824,14179
53831,14174
53839,14169
53848,14165
53857,14162
53866,14159
53875,14158
53884,14158
54244,14158
54253,14158
Z" /> 
<path style="fill:#000000; fill-opacity:1.0; 
stroke:#000000; stroke-width:0; stroke-opacity:1; 
stroke-linecap:round; stroke-linejoin:round;fill-rule:evenodd;"
d="M 54253,13420
54262,13421
54272,13424
54280,13427
54289,13431
54297,13436
54305,13441
54312,13447
54318,13454
54323,13462
54328,13470
54332,13479
54336,13487
54338,13497
54339,13506
54340,13515
54340,13707
54339,13717
54338,13726
54336,13735
54332,13744
54328,13753
54323,13761
54318,13768
54312,13775
54305,13781
54297,13787
54289,13792
54280,13796
54272,13799
54262,13801
54253,13803
54244,13803
53884,13803
53875,13803
53866,13801
53857,13799
53848,13796
53839,13792
53831,13787
53824,13781
53817,13775
53810,13768
53805,13761
53800,13753
53796,13744
53793,13735
53790,13726
53789,13717
53788,13707
53788,13515
53789,13506
53790,13497
53793,13487
53796,13479
53800,13470
53805,13462
53810,13454
53817,13447
53824,13441
53831,13436
53839,13431
53848,13427
53857,13424
53866,13421
53875,13420
53884,13419
54244,13419
54253,13420
Z" /> 
</g>
<g >
<path style="fill:#000000; fill-opacity:1.0; 
stroke:#000000; stroke-width:0; stroke-opacity:1; 
stroke-linecap:round; stroke-linejoin:round;fill-rule:evenodd;"
d="M 60639,14158
60648,14159
60657,14162
60666,14165
60674,14169
60682,14174
60690,14179
60697,14186
60703,14193
60709,14200
60714,14208
60718,14217
60721,14226
60723,14235
60725,14244
60725,14254
60725,14445
60725,14455
60723,14464
60721,14473
60718,14482
60714,14491
60709,14499
60703,14506
60697,14513
60690,14520
60682,14525
60674,14530
60666,14534
60657,14537
60648,14540
60639,14541
60629,14541
60270,14541
60260,14541
60251,14540
60242,14537
60233,14534
60225,14530
60217,14525
60209,14520
60202,14513
60196,14506
60190,14499
60185,14491
60181,14482
60178,14473
60176,14464
60174,14455
60174,14445
60174,14254
60174,14244
60176,14235
60178,14226
60181,14217
60185,14208
60190,14200
60196,14193
60202,14186
60209,14179
60217,14174
60225,14169
60233,14165
60242,14162
60251,14159
60260,14158
60270,14158
60629,14158
60639,14158
Z" /> 
<path style="fill:#000000; fill-opacity:1.0; 
stroke:#000000; stroke-width:0; stroke-opacity:1; 
stroke-linecap:round; stroke-linejoin:round;fill-rule:evenodd;"
d="M 60639,13420
60648,13421
60657,13424
60666,13427
60674,13431
60682,13436
60690,13441
60697,13447
60703,13454
60709,13462
60714,13470
60718,13479
60721,13487
60723,13497
60725,13506
60725,13515
60725,13707
60725,13717
60723,13726
60721,13735
60718,13744
60714,13753
60709,13761
60703,13768
60697,13775
60690,13781
60682,13787
60674,13792
60666,13796
60657,13799
60648,13801
60639,13803
60629,13803
60270,13803
60260,13803
60251,13801
60242,13799
60233,13796
60225,13792
60217,13787
60209,13781
60202,13775
60196,13768
60190,13761
60185,13753
60181,13744
60178,13735
60176,13726
60174,13717
60174,13707
60174,13515
60174,13506
60176,13497
60178,13487
60181,13479
60185,13470
60190,13462
60196,13454
60202,13447
60209,13441
60217,13436
60225,13431
60233,13427
60242,13424
60251,13421
60260,13420
60270,13419
60629,13419
60639,13420
Z" /> 
</g>
<g >
<path style="fill:#000000; fill-opacity:1.0; 
stroke:#000000; stroke-width:0; stroke-opacity:1; 
stroke-linecap:round; stroke-linejoin:round;fill-rule:evenodd;"
d="M 67360,14158
67370,14159
67379,14162
67388,14165
67396,14169
67404,14174
67412,14179
67419,14186
67425,14193
67431,14200
67436,14208
67440,14217
67443,14226
67445,14235
67446,14244
67447,14254
67447,14445
67446,14455
67445,14464
67443,14473
67440,14482
67436,14491
67431,14499
67425,14506
67419,14513
67412,14520
67404,14525
67396,14530
67388,14534
67379,14537
67370,14540
67360,14541
67351,14541
66992,14541
66982,14541
66973,14540
66964,14537
66955,14534
66946,14530
66938,14525
66931,14520
66924,14513
66918,14506
66912,14499
66907,14491
66903,14482
66900,14473
66898,14464
66896,14455
66896,14445
66896,14254
66896,14244
66898,14235
66900,14226
66903,14217
66907,14208
66912,14200
66918,14193
66924,14186
66931,14179
66938,14174
66946,14169
66955,14165
66964,14162
66973,14159
66982,14158
66992,14158
67351,14158
67360,14158
Z" /> 
<path style="fill:#000000; fill-opacity:1.0; 
stroke:#000000; stroke-width:0; stroke-opacity:1; 
stroke-linecap:round; stroke-linejoin:round;fill-rule:evenodd;"
d="M 67360,13420
67370,13421
67379,13424
67388,13427
67396,13431
67404,13436
67412,13441
67419,13447
67425,13454
67431,13462
67436,13470
67440,13479
67443,13487
67445,13497
67446,13506
67447,13515
67447,13707
67446,13717
67445,13726
67443,13735
67440,13744
67436,13753
67431,13761
67425,13768
67419,13775
67412,13781
67404,13787
67396,13792
67388,13796
67379,13799
67370,13801
67360,13803
67351,13803
66992,13803
66982,13803
66973,13801
66964,13799
66955,13796
66946,13792
66938,13787
66931,13781
66924,13775
66918,13768
66912,13761
66907,13753
66903,13744
66900,13735
66898,13726
66896,13717
66896,13707
66896,13515
66896,13506
66898,13497
66900,13487
66903,13479
66907,13470
66912,13462
66918,13454
66924,13447
66931,13441
66938,13436
66946,13431
66955,13427
66964,13424
66973,13421
66982,13420
66992,13419
67351,13419
67360,13420
Z" /> 
</g>
<g >
<path style="fill:#000000; fill-opacity:1.0; 
stroke:#000000; stroke-width:0; stroke-opacity:1; 
stroke-linecap:round; stroke-linejoin:round;fill-rule:evenodd;"
d="M 73914,14158
73923,14159
73932,14162
73941,14165
73950,14169
73958,14174
73965,14179
73972,14186
73979,14193
73984,14200
73989,14208
73993,14217
73996,14226
73999,14235
74000,14244
74001,14254
74001,14445
74000,14455
73999,14464
73996,14473
73993,14482
73989,14491
73984,14499
73979,14506
73972,14513
73965,14520
73958,14525
73950,14530
73941,14534
73932,14537
73923,14540
73914,14541
73905,14541
73545,14541
73536,14541
73527,14540
73517,14537
73509,14534
73500,14530
73492,14525
73484,14520
73477,14513
73471,14506
73466,14499
73461,14491
73457,14482
73453,14473
73451,14464
73450,14455
73449,14445
73449,14254
73450,14244
73451,14235
73453,14226
73457,14217
73461,14208
73466,14200
73471,14193
73477,14186
73484,14179
73492,14174
73500,14169
73509,14165
73517,14162
73527,14159
73536,14158
73545,14158
73905,14158
73914,14158
Z" /> 
<path style="fill:#000000; fill-opacity:1.0; 
stroke:#000000; stroke-width:0; stroke-opacity:1; 
stroke-linecap:round; stroke-linejoin:round;fill-rule:evenodd;"
d="M 73914,13420
73923,13421
73932,13424
73941,13427
73950,13431
73958,13436
73965,13441
73972,13447
73979,13454
73984,13462
73989,13470
73993,13479
73996,13487
73999,13497
74000,13506
74001,13515
74001,13707
74000,13717
73999,13726
73996,13735
73993,13744
73989,13753
73984,13761
73979,13768
73972,13775
73965,13781
73958,13787
73950,13792
73941,13796
73932,13799
73923,13801
73914,13803
73905,13803
73545,13803
73536,13803
73527,13801
73517,13799
73509,13796
73500,13792
73492,13787
73484,13781
73477,13775
73471,13768
73466,13761
73461,13753
73457,13744
73453,13735
73451,13726
73450,13717
73449,13707
73449,13515
73450,13506
73451,13497
73453,13487
73457,13479
73461,13470
73466,13462
73471,13454
73477,13447
73484,13441
73492,13436
73500,13431
73509,13427
73517,13424
73527,13421
73536,13420
73545,13419
73905,13419
73914,13420
Z" /> 
</g>
<g >
<path style="fill:#000000; fill-opacity:1.0; 
stroke:#000000; stroke-width:0; stroke-opacity:1; 
stroke-linecap:round; stroke-linejoin:round;fill-rule:evenodd;"
d="M 80468,14158
80477,14159
80486,14162
80495,14165
80503,14169
80512,14174
80519,14179
80526,14186
80532,14193
80538,14200
80543,14208
80547,14217
80550,14226
80552,14235
80554,14244
80554,14254
80554,14445
80554,14455
80552,14464
80550,14473
80547,14482
80543,14491
80538,14499
80532,14506
80526,14513
80519,14520
80512,14525
80503,14530
80495,14534
80486,14537
80477,14540
80468,14541
80458,14541
80099,14541
80090,14541
80080,14540
80071,14537
80062,14534
80054,14530
80046,14525
80038,14520
80031,14513
80025,14506
80019,14499
80014,14491
80010,14482
80007,14473
80005,14464
80003,14455
80003,14445
80003,14254
80003,14244
80005,14235
80007,14226
80010,14217
80014,14208
80019,14200
80025,14193
80031,14186
80038,14179
80046,14174
80054,14169
80062,14165
80071,14162
80080,14159
80090,14158
80099,14158
80458,14158
80468,14158
Z" /> 
<path style="fill:#000000; fill-opacity:1.0; 
stroke:#000000; stroke-width:0; stroke-opacity:1; 
stroke-linecap:round; stroke-linejoin:round;fill-rule:evenodd;"
d="M 80468,13420
80477,13421
80486,13424
80495,13427
80503,13431
80512,13436
80519,13441
80526,13447
80532,13454
80538,13462
80543,13470
80547,13479
80550,13487
80552,13497
80554,13506
80554,13515
80554,13707
80554,13717
80552,13726
80550,13735
80547,13744
80543,13753
80538,13761
80532,13768
80526,13775
80519,13781
80512,13787
80503,13792
80495,13796
80486,13799
80477,13801
80468,13803
80458,13803
80099,13803
80090,13803
80080,13801
80071,13799
80062,13796
80054,13792
80046,13787
80038,13781
80031,13775
80025,13768
80019,13761
80014,13753
80010,13744
80007,13735
80005,13726
80003,13717
80003,13707
80003,13515
80003,13506
80005,13497
80007,13487
80010,13479
80014,13470
80019,13462
80025,13454
80031,13447
80038,13441
80046,13436
80054,13431
80062,13427
80071,13424
80080,13421
80090,13420
80099,13419
80458,13419
80468,13420
Z" /> 
</g>
<g >
<path style="fill:#000000; fill-opacity:1.0; 
stroke:#000000; stroke-width:0; stroke-opacity:1; 
stroke-linecap:round; stroke-linejoin:round;fill-rule:evenodd;"
d="M 87021,14158
87031,14159
87040,14162
87049,14165
87057,14169
87065,14174
87073,14179
87080,14186
87086,14193
87092,14200
87096,14208
87101,14217
87104,14226
87106,14235
87107,14244
87108,14254
87108,14445
87107,14455
87106,14464
87104,14473
87101,14482
87096,14491
87092,14499
87086,14506
87080,14513
87073,14520
87065,14525
87057,14530
87049,14534
87040,14537
87031,14540
87021,14541
87012,14541
86653,14541
86643,14541
86634,14540
86625,14537
86616,14534
86607,14530
86599,14525
86592,14520
86585,14513
86578,14506
86573,14499
86568,14491
86564,14482
86561,14473
86558,14464
86557,14455
86557,14445
86557,14254
86557,14244
86558,14235
86561,14226
86564,14217
86568,14208
86573,14200
86578,14193
86585,14186
86592,14179
86599,14174
86607,14169
86616,14165
86625,14162
86634,14159
86643,14158
86653,14158
87012,14158
87021,14158
Z" /> 
<path style="fill:#000000; fill-opacity:1.0; 
stroke:#000000; stroke-width:0; stroke-opacity:1; 
stroke-linecap:round; stroke-linejoin:round;fill-rule:evenodd;"
d="M 87021,13420
87031,13421
87040,13424
87049,13427
87057,13431
87065,13436
87073,13441
87080,13447
87086,13454
87092,13462
87096,13470
87101,13479
87104,13487
87106,13497
87107,13506
87108,13515
87108,13707
87107,13717
87106,13726
87104,13735
87101,13744
87096,13753
87092,13761
87086,13768
87080,13775
87073,13781
87065,13787
87057,13792
87049,13796
87040,13799
87031,13801
87021,13803
87012,13803
86653,13803
86643,13803
86634,13801
86625,13799
86616,13796
86607,13792
86599,13787
86592,13781
86585,13775
86578,13768
86573,13761
86568,13753
86564,13744
86561,13735
86558,13726
86557,13717
86557,13707
86557,13515
86557,13506
86558,13497
86561,13487
86564,13479
86568,13470
86573,13462
86578,13454
86585,13447
86592,13441
86599,13436
86607,13431
86616,13427
86625,13424
86634,13421
86643,13420
86653,13419
87012,13419
87021,13420
Z" /> 
</g>
<g >
<path style="fill:#000000; fill-opacity:1.0; 
stroke:#000000; stroke-width:0; stroke-opacity:1; 
stroke-linecap:round; stroke-linejoin:round;fill-rule:evenodd;"
d="M 93575,14158
93584,14159
93593,14162
93602,14165
93611,14169
93619,14174
93626,14179
93633,14186
93640,14193
93645,14200
93650,14208
93654,14217
93657,14226
93660,14235
93661,14244
93661,14254
93661,14445
93661,14455
93660,14464
93657,14473
93654,14482
93650,14491
93645,14499
93640,14506
93633,14513
93626,14520
93619,14525
93611,14530
93602,14534
93593,14537
93584,14540
93575,14541
93565,14541
93206,14541
93197,14541
93188,14540
93178,14537
93170,14534
93161,14530
93153,14525
93145,14520
93138,14513
93132,14506
93126,14499
93122,14491
93118,14482
93114,14473
93112,14464
93111,14455
93110,14445
93110,14254
93111,14244
93112,14235
93114,14226
93118,14217
93122,14208
93126,14200
93132,14193
93138,14186
93145,14179
93153,14174
93161,14169
93170,14165
93178,14162
93188,14159
93197,14158
93206,14158
93565,14158
93575,14158
Z" /> 
<path style="fill:#000000; fill-opacity:1.0; 
stroke:#000000; stroke-width:0; stroke-opacity:1; 
stroke-linecap:round; stroke-linejoin:round;fill-rule:evenodd;"
d="M 93575,13420
93584,13421
93593,13424
93602,13427
93611,13431
93619,13436
93626,13441
93633,13447
93640,13454
93645,13462
93650,13470
93654,13479
93657,13487
93660,13497
93661,13506
93661,13515
93661,13707
93661,13717
93660,13726
93657,13735
93654,13744
93650,13753
93645,13761
93640,13768
93633,13775
93626,13781
93619,13787
93611,13792
93602,13796
93593,13799
93584,13801
93575,13803
93565,13803
93206,13803
93197,13803
93188,13801
93178,13799
93170,13796
93161,13792
93153,13787
93145,13781
93138,13775
93132,13768
93126,13761
93122,13753
93118,13744
93114,13735
93112,13726
93111,13717
93110,13707
93110,13515
93111,13506
93112,13497
93114,13487
93118,13479
93122,13470
93126,13462
93132,13454
93138,13447
93145,13441
93153,13436
93161,13431
93170,13427
93178,13424
93188,13421
93197,13420
93206,13419
93565,13419
93575,13420
Z" /> 
</g>
<g >
<path style="fill:#000000; fill-opacity:1.0; 
stroke:#000000; stroke-width:0; stroke-opacity:1; 
stroke-linecap:round; stroke-linejoin:round;fill-rule:evenodd;"
d="M 97924,12024
97933,12026
97942,12028
97951,12031
97960,12035
97968,12040
97975,12046
97982,12052
97989,12059
97994,12067
97999,12075
98003,12083
98006,12092
98009,12101
98010,12110
98011,12120
98011,12479
98010,12489
98009,12498
98006,12507
98003,12516
97999,12524
97994,12532
97989,12540
97982,12547
97975,12553
97968,12559
97960,12564
97951,12568
97942,12571
97933,12573
97924,12575
97915,12575
97723,12575
97713,12575
97704,12573
97695,12571
97686,12568
97677,12564
97669,12559
97662,12553
97655,12547
97648,12540
97643,12532
97638,12524
97634,12516
97631,12507
97629,12498
97627,12489
97627,12479
97627,12120
97627,12110
97629,12101
97631,12092
97634,12083
97638,12075
97643,12067
97648,12059
97655,12052
97662,12046
97669,12040
97677,12035
97686,12031
97695,12028
97704,12026
97713,12024
97723,12024
97915,12024
97924,12024
Z" /> 
<path style="fill:#000000; fill-opacity:1.0; 
stroke:#000000; stroke-width:0; stroke-opacity:1; 
stroke-linecap:round; stroke-linejoin:round;fill-rule:evenodd;"
d="M 98662,12024
98671,12026
98681,12028
98689,12031
98698,12035
98706,12040
98714,12046
98721,12052
98727,12059
98733,12067
98737,12075
98741,12083
98745,12092
98747,12101
98748,12110
98749,12120
98749,12479
98748,12489
98747,12498
98745,12507
98741,12516
98737,12524
98733,12532
98727,12540
98721,12547
98714,12553
98706,12559
98698,12564
98689,12568
98681,12571
98671,12573
98662,12575
98653,12575
98461,12575
98451,12575
98442,12573
98433,12571
98424,12568
98416,12564
98408,12559
98400,12553
98393,12547
98387,12540
98381,12532
98376,12524
98372,12516
98369,12507
98367,12498
98365,12489
98365,12479
98365,12120
98365,12110
98367,12101
98369,12092
98372,12083
98376,12075
98381,12067
98387,12059
98393,12052
98400,12046
98408,12040
98416,12035
98424,12031
98433,12028
98442,12026
98451,12024
98461,12024
98653,12024
98662,12024
Z" /> 
</g>
<g >
<path style="fill:#000000; fill-opacity:1.0; 
stroke:#000000; stroke-width:0; stroke-opacity:1; 
stroke-linecap:round; stroke-linejoin:round;fill-rule:evenodd;"
d="M 68460,13420
68470,13421
68479,13424
68488,13427
68496,13431
68504,13436
68512,13441
68519,13447
68525,13454
68531,13462
68536,13470
68540,13479
68543,13487
68545,13497
68546,13506
68547,13515
68547,13707
68546,13717
68545,13726
68543,13735
68540,13744
68536,13753
68531,13761
68525,13768
68519,13775
68512,13781
68504,13787
68496,13792
68488,13796
68479,13799
68470,13801
68460,13803
68451,13803
68092,13803
68082,13803
68073,13801
68064,13799
68055,13796
68046,13792
68038,13787
68031,13781
68024,13775
68018,13768
68012,13761
68007,13753
68003,13744
68000,13735
67998,13726
67996,13717
67996,13707
67996,13515
67996,13506
67998,13497
68000,13487
68003,13479
68007,13470
68012,13462
68018,13454
68024,13447
68031,13441
68038,13436
68046,13431
68055,13427
68064,13424
68073,13421
68082,13420
68092,13419
68451,13419
68460,13420
Z" /> 
<path style="fill:#000000; fill-opacity:1.0; 
stroke:#000000; stroke-width:0; stroke-opacity:1; 
stroke-linecap:round; stroke-linejoin:round;fill-rule:evenodd;"
d="M 68460,14158
68470,14159
68479,14162
68488,14165
68496,14169
68504,14174
68512,14179
68519,14186
68525,14193
68531,14200
68536,14208
68540,14217
68543,14226
68545,14235
68546,14244
68547,14254
68547,14445
68546,14455
68545,14464
68543,14473
68540,14482
68536,14491
68531,14499
68525,14506
68519,14513
68512,14520
68504,14525
68496,14530
68488,14534
68479,14537
68470,14540
68460,14541
68451,14541
68092,14541
68082,14541
68073,14540
68064,14537
68055,14534
68046,14530
68038,14525
68031,14520
68024,14513
68018,14506
68012,14499
68007,14491
68003,14482
68000,14473
67998,14464
67996,14455
67996,14445
67996,14254
67996,14244
67998,14235
68000,14226
68003,14217
68007,14208
68012,14200
68018,14193
68024,14186
68031,14179
68038,14174
68046,14169
68055,14165
68064,14162
68073,14159
68082,14158
68092,14158
68451,14158
68460,14158
Z" /> 
</g>
<g >
<path style="fill:#000000; fill-opacity:1.0; 
stroke:#000000; stroke-width:0; stroke-opacity:1; 
stroke-linecap:round; stroke-linejoin:round;fill-rule:evenodd;"
d="M 61406,11864
61415,11866
61424,11868
61433,11871
61442,11875
61450,11880
61457,11886
61464,11892
61471,11899
61476,11907
61481,11915
61485,11923
61488,11932
61490,11941
61492,11950
61492,11960
61492,12319
61492,12329
61490,12338
61488,12347
61485,12356
61481,12364
61476,12372
61471,12380
61464,12387
61457,12393
61450,12399
61442,12404
61433,12408
61424,12411
61415,12413
61406,12415
61396,12415
61204,12415
61195,12415
61186,12413
61177,12411
61168,12408
61159,12404
61151,12399
61144,12393
61137,12387
61130,12380
61125,12372
61120,12364
61116,12356
61113,12347
61110,12338
61109,12329
61108,12319
61108,11960
61109,11950
61110,11941
61113,11932
61116,11923
61120,11915
61125,11907
61130,11899
61137,11892
61144,11886
61151,11880
61159,11875
61168,11871
61177,11868
61186,11866
61195,11864
61204,11864
61396,11864
61406,11864
Z" /> 
<path style="fill:#000000; fill-opacity:1.0; 
stroke:#000000; stroke-width:0; stroke-opacity:1; 
stroke-linecap:round; stroke-linejoin:round;fill-rule:evenodd;"
d="M 62144,11864
62153,11866
62162,11868
62171,11871
62180,11875
62188,11880
62195,11886
62202,11892
62209,11899
62214,11907
62219,11915
62223,11923
62226,11932
62229,11941
62230,11950
62231,11960
62231,12319
62230,12329
62229,12338
62226,12347
62223,12356
62219,12364
62214,12372
62209,12380
62202,12387
62195,12393
62188,12399
62180,12404
62171,12408
62162,12411
62153,12413
62144,12415
62135,12415
61943,12415
61933,12415
61924,12413
61915,12411
61906,12408
61897,12404
61889,12399
61882,12393
61875,12387
61868,12380
61863,12372
61858,12364
61854,12356
61851,12347
61849,12338
61847,12329
61847,12319
61847,11960
61847,11950
61849,11941
61851,11932
61854,11923
61858,11915
61863,11907
61868,11899
61875,11892
61882,11886
61889,11880
61897,11875
61906,11871
61915,11868
61924,11866
61933,11864
61943,11864
62135,11864
62144,11864
Z" /> 
</g>
<g >
<path style="fill:#000000; fill-opacity:1.0; 
stroke:#000000; stroke-width:0; stroke-opacity:1; 
stroke-linecap:round; stroke-linejoin:round;fill-rule:evenodd;"
d="M 55353,13420
55362,13421
55372,13424
55380,13427
55389,13431
55397,13436
55405,13441
55412,13447
55418,13454
55423,13462
55428,13470
55432,13479
55436,13487
55438,13497
55439,13506
55440,13515
55440,13707
55439,13717
55438,13726
55436,13735
55432,13744
55428,13753
55423,13761
55418,13768
55412,13775
55405,13781
55397,13787
55389,13792
55380,13796
55372,13799
55362,13801
55353,13803
55344,13803
54984,13803
54975,13803
54966,13801
54957,13799
54948,13796
54939,13792
54931,13787
54924,13781
54917,13775
54910,13768
54905,13761
54900,13753
54896,13744
54893,13735
54890,13726
54889,13717
54888,13707
54888,13515
54889,13506
54890,13497
54893,13487
54896,13479
54900,13470
54905,13462
54910,13454
54917,13447
54924,13441
54931,13436
54939,13431
54948,13427
54957,13424
54966,13421
54975,13420
54984,13419
55344,13419
55353,13420
Z" /> 
<path style="fill:#000000; fill-opacity:1.0; 
stroke:#000000; stroke-width:0; stroke-opacity:1; 
stroke-linecap:round; stroke-linejoin:round;fill-rule:evenodd;"
d="M 55353,14158
55362,14159
55372,14162
55380,14165
55389,14169
55397,14174
55405,14179
55412,14186
55418,14193
55423,14200
55428,14208
55432,14217
55436,14226
55438,14235
55439,14244
55440,14254
55440,14445
55439,14455
55438,14464
55436,14473
55432,14482
55428,14491
55423,14499
55418,14506
55412,14513
55405,14520
55397,14525
55389,14530
55380,14534
55372,14537
55362,14540
55353,14541
55344,14541
54984,14541
54975,14541
54966,14540
54957,14537
54948,14534
54939,14530
54931,14525
54924,14520
54917,14513
54910,14506
54905,14499
54900,14491
54896,14482
54893,14473
54890,14464
54889,14455
54888,14445
54888,14254
54889,14244
54890,14235
54893,14226
54896,14217
54900,14208
54905,14200
54910,14193
54917,14186
54924,14179
54931,14174
54939,14169
54948,14165
54957,14162
54966,14159
54975,14158
54984,14158
55344,14158
55353,14158
Z" /> 
</g>
<g >
<path style="fill:#000000; fill-opacity:1.0; 
stroke:#000000; stroke-width:0; stroke-opacity:1; 
stroke-linecap:round; stroke-linejoin:round;fill-rule:evenodd;"
d="M 48799,13420
48809,13421
48818,13424
48827,13427
48835,13431
48843,13436
48851,13441
48858,13447
48864,13454
48870,13462
48875,13470
48879,13479
48882,13487
48884,13497
48886,13506
48886,13515
48886,13707
48886,13717
48884,13726
48882,13735
48879,13744
48875,13753
48870,13761
48864,13768
48858,13775
48851,13781
48843,13787
48835,13792
48827,13796
48818,13799
48809,13801
48799,13803
48790,13803
48431,13803
48421,13803
48412,13801
48403,13799
48394,13796
48386,13792
48377,13787
48370,13781
48363,13775
48357,13768
48351,13761
48346,13753
48342,13744
48339,13735
48337,13726
48335,13717
48335,13707
48335,13515
48335,13506
48337,13497
48339,13487
48342,13479
48346,13470
48351,13462
48357,13454
48363,13447
48370,13441
48377,13436
48386,13431
48394,13427
48403,13424
48412,13421
48421,13420
48431,13419
48790,13419
48799,13420
Z" /> 
<path style="fill:#000000; fill-opacity:1.0; 
stroke:#000000; stroke-width:0; stroke-opacity:1; 
stroke-linecap:round; stroke-linejoin:round;fill-rule:evenodd;"
d="M 48799,14158
48809,14159
48818,14162
48827,14165
48835,14169
48843,14174
48851,14179
48858,14186
48864,14193
48870,14200
48875,14208
48879,14217
48882,14226
48884,14235
48886,14244
48886,14254
48886,14445
48886,14455
48884,14464
48882,14473
48879,14482
48875,14491
48870,14499
48864,14506
48858,14513
48851,14520
48843,14525
48835,14530
48827,14534
48818,14537
48809,14540
48799,14541
48790,14541
48431,14541
48421,14541
48412,14540
48403,14537
48394,14534
48386,14530
48377,14525
48370,14520
48363,14513
48357,14506
48351,14499
48346,14491
48342,14482
48339,14473
48337,14464
48335,14455
48335,14445
48335,14254
48335,14244
48337,14235
48339,14226
48342,14217
48346,14208
48351,14200
48357,14193
48363,14186
48370,14179
48377,14174
48386,14169
48394,14165
48403,14162
48412,14159
48421,14158
48431,14158
48790,14158
48799,14158
Z" /> 
</g>
<g >
<path style="fill:#000000; fill-opacity:1.0; 
stroke:#000000; stroke-width:0; stroke-opacity:1; 
stroke-linecap:round; stroke-linejoin:round;fill-rule:evenodd;"
d="M 42246,13420
42255,13421
42264,13424
42273,13427
42282,13431
42290,13436
42297,13441
42304,13447
42311,13454
42316,13462
42321,13470
42325,13479
42328,13487
42331,13497
42332,13506
42332,13515
42332,13707
42332,13717
42331,13726
42328,13735
42325,13744
42321,13753
42316,13761
42311,13768
42304,13775
42297,13781
42290,13787
42282,13792
42273,13796
42264,13799
42255,13801
42246,13803
42236,13803
41877,13803
41868,13803
41858,13801
41849,13799
41840,13796
41832,13792
41824,13787
41816,13781
41809,13775
41803,13768
41797,13761
41793,13753
41788,13744
41785,13735
41783,13726
41782,13717
41781,13707
41781,13515
41782,13506
41783,13497
41785,13487
41788,13479
41793,13470
41797,13462
41803,13454
41809,13447
41816,13441
41824,13436
41832,13431
41840,13427
41849,13424
41858,13421
41868,13420
41877,13419
42236,13419
42246,13420
Z" /> 
<path style="fill:#000000; fill-opacity:1.0; 
stroke:#000000; stroke-width:0; stroke-opacity:1; 
stroke-linecap:round; stroke-linejoin:round;fill-rule:evenodd;"
d="M 42246,14158
42255,14159
42264,14162
42273,14165
42282,14169
42290,14174
42297,14179
42304,14186
42311,14193
42316,14200
42321,14208
42325,14217
42328,14226
42331,14235
42332,14244
42332,14254
42332,14445
42332,14455
42331,14464
42328,14473
42325,14482
42321,14491
42316,14499
42311,14506
42304,14513
42297,14520
42290,14525
42282,14530
42273,14534
42264,14537
42255,14540
42246,14541
42236,14541
41877,14541
41868,14541
41858,14540
41849,14537
41840,14534
41832,14530
41824,14525
41816,14520
41809,14513
41803,14506
41797,14499
41793,14491
41788,14482
41785,14473
41783,14464
41782,14455
41781,14445
41781,14254
41782,14244
41783,14235
41785,14226
41788,14217
41793,14208
41797,14200
41803,14193
41809,14186
41816,14179
41824,14174
41832,14169
41840,14165
41849,14162
41858,14159
41868,14158
41877,14158
42236,14158
42246,14158
Z" /> 
</g>
<g >
<path style="fill:#000000; fill-opacity:1.0; 
stroke:#000000; stroke-width:0; stroke-opacity:1; 
stroke-linecap:round; stroke-linejoin:round;fill-rule:evenodd;"
d="M 35692,13420
35701,13421
35711,13424
35719,13427
35728,13431
35736,13436
35744,13441
35751,13447
35757,13454
35763,13462
35767,13470
35771,13479
35775,13487
35777,13497
35778,13506
35779,13515
35779,13707
35778,13717
35777,13726
35775,13735
35771,13744
35767,13753
35763,13761
35757,13768
35751,13775
35744,13781
35736,13787
35728,13792
35719,13796
35711,13799
35701,13801
35692,13803
35683,13803
35324,13803
35314,13803
35305,13801
35296,13799
35287,13796
35278,13792
35270,13787
35263,13781
35256,13775
35249,13768
35244,13761
35239,13753
35235,13744
35232,13735
35229,13726
35228,13717
35228,13707
35228,13515
35228,13506
35229,13497
35232,13487
35235,13479
35239,13470
35244,13462
35249,13454
35256,13447
35263,13441
35270,13436
35278,13431
35287,13427
35296,13424
35305,13421
35314,13420
35324,13419
35683,13419
35692,13420
Z" /> 
<path style="fill:#000000; fill-opacity:1.0; 
stroke:#000000; stroke-width:0; stroke-opacity:1; 
stroke-linecap:round; stroke-linejoin:round;fill-rule:evenodd;"
d="M 35692,14158
35701,14159
35711,14162
35719,14165
35728,14169
35736,14174
35744,14179
35751,14186
35757,14193
35763,14200
35767,14208
35771,14217
35775,14226
35777,14235
35778,14244
35779,14254
35779,14445
35778,14455
35777,14464
35775,14473
35771,14482
35767,14491
35763,14499
35757,14506
35751,14513
35744,14520
35736,14525
35728,14530
35719,14534
35711,14537
35701,14540
35692,14541
35683,14541
35324,14541
35314,14541
35305,14540
35296,14537
35287,14534
35278,14530
35270,14525
35263,14520
35256,14513
35249,14506
35244,14499
35239,14491
35235,14482
35232,14473
35229,14464
35228,14455
35228,14445
35228,14254
35228,14244
35229,14235
35232,14226
35235,14217
35239,14208
35244,14200
35249,14193
35256,14186
35263,14179
35270,14174
35278,14169
35287,14165
35296,14162
35305,14159
35314,14158
35324,14158
35683,14158
35692,14158
Z" /> 
</g>
<g >
<path style="fill:#000000; fill-opacity:1.0; 
stroke:#000000; stroke-width:0; stroke-opacity:1; 
stroke-linecap:round; stroke-linejoin:round;fill-rule:evenodd;"
d="M 28939,13270
28948,13271
28957,13274
28966,13277
28974,13281
28982,13286
28990,13291
28997,13297
29003,13304
29009,13312
29014,13320
29018,13329
29021,13337
29023,13347
29025,13356
29025,13365
29025,13557
29025,13567
29023,13576
29021,13585
29018,13594
29014,13603
29009,13611
29003,13618
28997,13625
28990,13631
28982,13637
28974,13642
28966,13646
28957,13649
28948,13651
28939,13653
28929,13653
28570,13653
28560,13653
28551,13651
28542,13649
28533,13646
28525,13642
28517,13637
28509,13631
28502,13625
28496,13618
28490,13611
28485,13603
28481,13594
28478,13585
28476,13576
28474,13567
28474,13557
28474,13365
28474,13356
28476,13347
28478,13337
28481,13329
28485,13320
28490,13312
28496,13304
28502,13297
28509,13291
28517,13286
28525,13281
28533,13277
28542,13274
28551,13271
28560,13270
28570,13269
28929,13269
28939,13270
Z" /> 
<path style="fill:#000000; fill-opacity:1.0; 
stroke:#000000; stroke-width:0; stroke-opacity:1; 
stroke-linecap:round; stroke-linejoin:round;fill-rule:evenodd;"
d="M 28939,14008
28948,14009
28957,14012
28966,14015
28974,14019
28982,14024
28990,14029
28997,14036
29003,14043
29009,14050
29014,14058
29018,14067
29021,14076
29023,14085
29025,14094
29025,14104
29025,14295
29025,14305
29023,14314
29021,14323
29018,14332
29014,14341
29009,14349
29003,14356
28997,14363
28990,14370
28982,14375
28974,14380
28966,14384
28957,14387
28948,14390
28939,14391
28929,14391
28570,14391
28560,14391
28551,14390
28542,14387
28533,14384
28525,14380
28517,14375
28509,14370
28502,14363
28496,14356
28490,14349
28485,14341
28481,14332
28478,14323
28476,14314
28474,14305
28474,14295
28474,14104
28474,14094
28476,14085
28478,14076
28481,14067
28485,14058
28490,14050
28496,14043
28502,14036
28509,14029
28517,14024
28525,14019
28533,14015
28542,14012
28551,14009
28560,14008
28570,14008
28929,14008
28939,14008
Z" /> 
</g>
<g >
</g>
<g >
</g>
<g >
</g>
</g> 
</svg>
