<?xml version="1.0" standalone="no"?>
 <!DOCTYPE svg PUBLIC "-//W3C//DTD SVG 1.1//EN" 
 "http://www.w3.org/Graphics/SVG/1.1/DTD/svg11.dtd"> 
<svg xmlns="http://www.w3.org/2000/svg" version="1.1" 
    width="84.0994cm" height="59.4004cm" viewBox="0 0 331100 233860 ">
<title>SVG Picture created as AInside-B_Cu.svg date 2019/04/12 10:44:05 </title>
  <desc>Picture generated by PCBNEW </desc>
<g style="fill:#000000; fill-opacity:1;stroke:#000000; stroke-opacity:1;
stroke-linecap:round; stroke-linejoin:round; "
 transform="translate(0 0) scale(1 1)">
</g>
<g style="fill:#000000; fill-opacity:0.0; 
stroke:#000000; stroke-width:-0.000393701; stroke-opacity:1; 
stroke-linecap:round; stroke-linejoin:round;">
<g >
</g>
<g style="fill:#000000; fill-opacity:0.0; 
stroke:#000000; stroke-width:800; stroke-opacity:1; 
stroke-linecap:round; stroke-linejoin:round;">
<path d="M100734 12464
L101234 12464
" />
<path d="M100734 13464
L101234 13464
" />
<path d="M100734 14464
L101234 14464
" />
</g>
<g >
<path d="M22584 12448
L23084 12448
" />
<path d="M22584 13448
L23084 13448
" />
<path d="M22584 14448
L23084 14448
" />
<path d="M23284 11348
L23784 11348
" />
<path d="M21084 14448
L21584 14448
" />
</g>
<g >
</g>
<g >
</g>
<g >
</g>
<g >
</g>
<g >
</g>
<g >
</g>
<g >
</g>
<g >
</g>
<g >
</g>
<g >
</g>
<g >
</g>
<g >
</g>
<g >
</g>
<g >
</g>
<g >
</g>
<g >
</g>
<g >
</g>
<g >
</g>
<g >
</g>
<g >
</g>
<g >
</g>
<g >
</g>
<g >
</g>
<g >
</g>
<g >
</g>
<g >
</g>
<g >
</g>
<g >
</g>
<g >
</g>
<g >
</g>
<g >
</g>
<g >
</g>
<g >
</g>
<g >
</g>
<g >
</g>
<g >
</g>
<g >
</g>
<g style="fill:#000000; fill-opacity:1.0; 
stroke:#000000; stroke-width:0; stroke-opacity:1; 
stroke-linecap:round; stroke-linejoin:round;">
<circle cx="25950" cy="13850" r="196.85" /> 
</g>
<g style="fill:#000000; fill-opacity:1.0; 
stroke:#000000; stroke-width:19.685; stroke-opacity:1; 
stroke-linecap:round; stroke-linejoin:round;">
</g>
<g style="fill:#000000; fill-opacity:1.0; 
stroke:#000000; stroke-width:0; stroke-opacity:1; 
stroke-linecap:round; stroke-linejoin:round;">
<circle cx="32600" cy="13825" r="196.85" /> 
</g>
<g style="fill:#000000; fill-opacity:1.0; 
stroke:#000000; stroke-width:19.685; stroke-opacity:1; 
stroke-linecap:round; stroke-linejoin:round;">
</g>
<g style="fill:#000000; fill-opacity:1.0; 
stroke:#000000; stroke-width:0; stroke-opacity:1; 
stroke-linecap:round; stroke-linejoin:round;">
<circle cx="39100" cy="13825" r="196.85" /> 
</g>
<g style="fill:#000000; fill-opacity:1.0; 
stroke:#000000; stroke-width:19.685; stroke-opacity:1; 
stroke-linecap:round; stroke-linejoin:round;">
</g>
<g style="fill:#000000; fill-opacity:1.0; 
stroke:#000000; stroke-width:0; stroke-opacity:1; 
stroke-linecap:round; stroke-linejoin:round;">
<circle cx="52100" cy="13825" r="196.85" /> 
</g>
<g style="fill:#000000; fill-opacity:1.0; 
stroke:#000000; stroke-width:19.685; stroke-opacity:1; 
stroke-linecap:round; stroke-linejoin:round;">
</g>
<g style="fill:#000000; fill-opacity:1.0; 
stroke:#000000; stroke-width:0; stroke-opacity:1; 
stroke-linecap:round; stroke-linejoin:round;">
<circle cx="45600" cy="13825" r="196.85" /> 
</g>
<g style="fill:#000000; fill-opacity:1.0; 
stroke:#000000; stroke-width:19.685; stroke-opacity:1; 
stroke-linecap:round; stroke-linejoin:round;">
</g>
<g style="fill:#000000; fill-opacity:1.0; 
stroke:#000000; stroke-width:0; stroke-opacity:1; 
stroke-linecap:round; stroke-linejoin:round;">
<circle cx="58800" cy="13825" r="196.85" /> 
</g>
<g style="fill:#000000; fill-opacity:1.0; 
stroke:#000000; stroke-width:19.685; stroke-opacity:1; 
stroke-linecap:round; stroke-linejoin:round;">
</g>
<g style="fill:#000000; fill-opacity:1.0; 
stroke:#000000; stroke-width:0; stroke-opacity:1; 
stroke-linecap:round; stroke-linejoin:round;">
<circle cx="65300" cy="13825" r="196.85" /> 
</g>
<g style="fill:#000000; fill-opacity:1.0; 
stroke:#000000; stroke-width:19.685; stroke-opacity:1; 
stroke-linecap:round; stroke-linejoin:round;">
</g>
<g style="fill:#000000; fill-opacity:1.0; 
stroke:#000000; stroke-width:0; stroke-opacity:1; 
stroke-linecap:round; stroke-linejoin:round;">
<circle cx="78300" cy="13825" r="196.85" /> 
</g>
<g style="fill:#000000; fill-opacity:1.0; 
stroke:#000000; stroke-width:19.685; stroke-opacity:1; 
stroke-linecap:round; stroke-linejoin:round;">
</g>
<g style="fill:#000000; fill-opacity:1.0; 
stroke:#000000; stroke-width:0; stroke-opacity:1; 
stroke-linecap:round; stroke-linejoin:round;">
<circle cx="71800" cy="13825" r="196.85" /> 
</g>
<g style="fill:#000000; fill-opacity:1.0; 
stroke:#000000; stroke-width:19.685; stroke-opacity:1; 
stroke-linecap:round; stroke-linejoin:round;">
</g>
<g style="fill:#000000; fill-opacity:1.0; 
stroke:#000000; stroke-width:0; stroke-opacity:1; 
stroke-linecap:round; stroke-linejoin:round;">
<circle cx="91500" cy="13825" r="196.85" /> 
</g>
<g style="fill:#000000; fill-opacity:1.0; 
stroke:#000000; stroke-width:19.685; stroke-opacity:1; 
stroke-linecap:round; stroke-linejoin:round;">
</g>
<g style="fill:#000000; fill-opacity:1.0; 
stroke:#000000; stroke-width:0; stroke-opacity:1; 
stroke-linecap:round; stroke-linejoin:round;">
<circle cx="85000" cy="13825" r="196.85" /> 
</g>
<g style="fill:#000000; fill-opacity:1.0; 
stroke:#000000; stroke-width:19.685; stroke-opacity:1; 
stroke-linecap:round; stroke-linejoin:round;">
</g>
<g style="fill:#000000; fill-opacity:1.0; 
stroke:#000000; stroke-width:0; stroke-opacity:1; 
stroke-linecap:round; stroke-linejoin:round;">
<circle cx="30161" cy="13821" r="196.85" /> 
</g>
<g style="fill:#000000; fill-opacity:1.0; 
stroke:#000000; stroke-width:19.685; stroke-opacity:1; 
stroke-linecap:round; stroke-linejoin:round;">
</g>
<g style="fill:#000000; fill-opacity:1.0; 
stroke:#000000; stroke-width:0; stroke-opacity:1; 
stroke-linecap:round; stroke-linejoin:round;">
<circle cx="36880" cy="13820" r="196.85" /> 
</g>
<g style="fill:#000000; fill-opacity:1.0; 
stroke:#000000; stroke-width:19.685; stroke-opacity:1; 
stroke-linecap:round; stroke-linejoin:round;">
</g>
<g style="fill:#000000; fill-opacity:1.0; 
stroke:#000000; stroke-width:0; stroke-opacity:1; 
stroke-linecap:round; stroke-linejoin:round;">
<circle cx="43430" cy="13830" r="196.85" /> 
</g>
<g style="fill:#000000; fill-opacity:1.0; 
stroke:#000000; stroke-width:19.685; stroke-opacity:1; 
stroke-linecap:round; stroke-linejoin:round;">
</g>
<g style="fill:#000000; fill-opacity:1.0; 
stroke:#000000; stroke-width:0; stroke-opacity:1; 
stroke-linecap:round; stroke-linejoin:round;">
<circle cx="50020" cy="13840" r="196.85" /> 
</g>
<g style="fill:#000000; fill-opacity:1.0; 
stroke:#000000; stroke-width:19.685; stroke-opacity:1; 
stroke-linecap:round; stroke-linejoin:round;">
</g>
<g style="fill:#000000; fill-opacity:1.0; 
stroke:#000000; stroke-width:0; stroke-opacity:1; 
stroke-linecap:round; stroke-linejoin:round;">
<circle cx="56540" cy="13840" r="196.85" /> 
</g>
<g style="fill:#000000; fill-opacity:1.0; 
stroke:#000000; stroke-width:19.685; stroke-opacity:1; 
stroke-linecap:round; stroke-linejoin:round;">
</g>
<g style="fill:#000000; fill-opacity:1.0; 
stroke:#000000; stroke-width:0; stroke-opacity:1; 
stroke-linecap:round; stroke-linejoin:round;">
<circle cx="69680" cy="13830" r="196.85" /> 
</g>
<g style="fill:#000000; fill-opacity:1.0; 
stroke:#000000; stroke-width:19.685; stroke-opacity:1; 
stroke-linecap:round; stroke-linejoin:round;">
</g>
<g style="fill:#000000; fill-opacity:1.0; 
stroke:#000000; stroke-width:0; stroke-opacity:1; 
stroke-linecap:round; stroke-linejoin:round;">
<circle cx="76200" cy="13820" r="196.85" /> 
</g>
<g style="fill:#000000; fill-opacity:1.0; 
stroke:#000000; stroke-width:19.685; stroke-opacity:1; 
stroke-linecap:round; stroke-linejoin:round;">
</g>
<g style="fill:#000000; fill-opacity:1.0; 
stroke:#000000; stroke-width:0; stroke-opacity:1; 
stroke-linecap:round; stroke-linejoin:round;">
<circle cx="82800" cy="13830" r="196.85" /> 
</g>
<g style="fill:#000000; fill-opacity:1.0; 
stroke:#000000; stroke-width:19.685; stroke-opacity:1; 
stroke-linecap:round; stroke-linejoin:round;">
</g>
<g style="fill:#000000; fill-opacity:1.0; 
stroke:#000000; stroke-width:0; stroke-opacity:1; 
stroke-linecap:round; stroke-linejoin:round;">
<circle cx="89320" cy="13840" r="196.85" /> 
</g>
<g style="fill:#000000; fill-opacity:1.0; 
stroke:#000000; stroke-width:19.685; stroke-opacity:1; 
stroke-linecap:round; stroke-linejoin:round;">
</g>
<g style="fill:#000000; fill-opacity:1.0; 
stroke:#000000; stroke-width:0; stroke-opacity:1; 
stroke-linecap:round; stroke-linejoin:round;">
<circle cx="95890" cy="13830" r="196.85" /> 
</g>
<g style="fill:#000000; fill-opacity:1.0; 
stroke:#000000; stroke-width:19.685; stroke-opacity:1; 
stroke-linecap:round; stroke-linejoin:round;">
</g>
<g style="fill:#000000; fill-opacity:1.0; 
stroke:#000000; stroke-width:0; stroke-opacity:1; 
stroke-linecap:round; stroke-linejoin:round;">
<circle cx="95188.2" cy="12300" r="196.85" /> 
</g>
<g style="fill:#000000; fill-opacity:1.0; 
stroke:#000000; stroke-width:19.685; stroke-opacity:1; 
stroke-linecap:round; stroke-linejoin:round;">
</g>
<g style="fill:#000000; fill-opacity:1.0; 
stroke:#000000; stroke-width:0; stroke-opacity:1; 
stroke-linecap:round; stroke-linejoin:round;">
<circle cx="63425.2" cy="13779.5" r="196.85" /> 
</g>
<g style="fill:#000000; fill-opacity:1.0; 
stroke:#000000; stroke-width:19.685; stroke-opacity:1; 
stroke-linecap:round; stroke-linejoin:round;">
</g>
<g >
</g>
<g >
</g>
<g style="fill:#000000; fill-opacity:1.0; 
stroke:#000000; stroke-width:100; stroke-opacity:1; 
stroke-linecap:round; stroke-linejoin:round;">
<path style="fill:#000000; fill-opacity:1.0; 
stroke:#000000; stroke-width:100; stroke-opacity:1; 
stroke-linecap:round; stroke-linejoin:round;fill-rule:evenodd;"
d="M 20674,9903
20845,9990
20980,10125
21007,10179
21008,10181
21019,10202
21024,10212
21026,10214
21033,10228
21040,10236
21046,10245
21057,10257
21067,10269
21075,10276
21082,10284
21096,10293
21108,10303
21117,10308
21126,10314
21141,10320
21155,10328
21165,10331
21175,10335
21190,10339
21206,10343
21216,10344
21227,10347
21243,10347
21245,10347
21256,10347
21280,10348
21282,10347
102264,10347
102267,10348
102291,10347
102302,10347
102304,10347
102320,10347
102330,10344
102341,10343
102356,10339
102372,10335
102382,10331
102392,10328
102406,10320
102421,10314
102429,10308
102439,10303
102451,10293
102464,10284
102472,10276
102480,10269
102490,10257
102501,10245
102507,10236
102514,10228
102521,10214
102522,10212
102527,10202
102539,10181
102539,10179
102567,10125
102702,9990
102873,9903
103083,9870
105578,9870
105788,9903
105959,9990
106094,10125
106121,10179
106122,10181
106133,10202
106138,10212
106139,10214
106147,10228
106154,10236
106159,10245
106170,10257
106181,10269
106189,10276
106196,10284
106209,10293
106222,10303
106231,10308
106240,10314
106254,10320
106268,10328
106279,10331
106289,10335
106304,10339
106319,10343
106330,10344
106341,10347
106356,10347
106359,10347
106370,10347
106394,10348
106396,10347
106475,10347
106655,10376
106798,10449
106912,10563
106985,10706
107014,10886
107014,14926
106863,14926
106863,14524
106864,14511
106859,14458
106844,14407
106819,14360
106785,14319
106744,14286
106697,14261
106646,14245
106607,14241
106593,14240
106580,14241
105032,14241
105019,14240
105005,14241
104966,14245
104915,14261
104868,14286
104827,14319
104793,14360
104768,14407
104753,14458
104748,14511
104749,14524
104749,14926
101689,14926
101729,14888
101802,14784
101853,14667
101866,14615
101819,14514
101034,14514
101034,14522
100934,14522
100934,14514
100148,14514
100101,14615
100114,14667
100166,14784
100239,14888
100278,14926
23523,14926
23579,14873
23652,14768
23704,14651
23716,14599
23670,14498
22884,14498
22884,14506
22784,14506
22784,14498
21384,14498
21384,14506
21284,14506
21284,14498
20499,14498
20452,14599
20464,14651
20516,14768
20589,14873
20645,14926
18871,14926
18871,14530
18872,14517
18867,14464
18851,14413
18826,14366
18793,14325
18759,14298
20452,14298
20499,14398
21284,14398
21284,14390
21384,14390
21384,14398
22784,14398
22784,14390
22884,14390
22884,14398
23670,14398
23716,14298
23704,14246
23652,14129
23579,14024
23500,13948
23546,13910
23627,13811
23630,13805
25503,13805
25503,13894
25520,13980
25554,14061
25602,14134
25665,14197
25738,14245
25819,14279
25905,14296
25994,14296
26080,14279
26161,14245
26234,14197
26297,14134
26345,14061
26379,13980
26396,13894
26396,13805
26391,13780
32153,13780
32153,13869
32170,13955
32204,14036
32252,14109
32315,14172
32388,14220
32469,14254
32555,14271
32644,14271
32730,14254
32811,14220
32884,14172
32947,14109
32995,14036
33029,13955
33046,13869
33046,13780
38653,13780
38653,13869
38670,13955
38704,14036
38752,14109
38815,14172
38888,14220
38969,14254
39055,14271
39144,14271
39230,14254
39311,14220
39384,14172
39447,14109
39495,14036
39529,13955
39546,13869
39546,13780
45153,13780
45153,13869
45170,13955
45204,14036
45252,14109
45315,14172
45388,14220
45469,14254
45555,14271
45644,14271
45730,14254
45811,14220
45884,14172
45947,14109
45995,14036
46029,13955
46046,13869
46046,13780
51653,13780
51653,13869
51670,13955
51704,14036
51752,14109
51815,14172
51888,14220
51969,14254
52055,14271
52144,14271
52230,14254
52311,14220
52384,14172
52447,14109
52495,14036
52529,13955
52546,13869
52546,13780
58353,13780
58353,13869
58370,13955
58404,14036
58452,14109
58515,14172
58588,14220
58669,14254
58755,14271
58844,14271
58930,14254
59011,14220
59084,14172
59147,14109
59195,14036
59229,13955
59246,13869
59246,13812
61152,13812
61171,13980
61222,14141
61304,14290
61413,14419
61545,14525
61695,14604
61857,14652
62026,14667
62194,14649
62356,14599
62505,14519
62635,14411
62742,14280
62821,14130
62870,13968
62887,13800
62887,13780
64853,13780
64853,13869
64870,13955
64904,14036
64952,14109
65015,14172
65088,14220
65169,14254
65255,14271
65344,14271
65430,14254
65511,14220
65584,14172
65647,14109
65695,14036
65729,13955
65746,13869
65746,13780
71353,13780
71353,13869
71370,13955
71404,14036
71452,14109
71515,14172
71588,14220
71669,14254
71755,14271
71844,14271
71930,14254
72011,14220
72084,14172
72147,14109
72195,14036
72229,13955
72246,13869
72246,13780
77853,13780
77853,13869
77870,13955
77904,14036
77952,14109
78015,14172
78088,14220
78169,14254
78255,14271
78344,14271
78430,14254
78511,14220
78584,14172
78647,14109
78695,14036
78729,13955
78746,13869
78746,13780
84553,13780
84553,13869
84570,13955
84604,14036
84652,14109
84715,14172
84788,14220
84869,14254
84955,14271
85044,14271
85130,14254
85211,14220
85284,14172
85347,14109
85395,14036
85429,13955
85446,13869
85446,13780
91053,13780
91053,13869
91070,13955
91104,14036
91152,14109
91215,14172
91288,14220
91369,14254
91455,14271
91544,14271
91630,14254
91711,14220
91784,14172
91847,14109
91895,14036
91929,13955
91946,13869
91946,13780
91929,13694
91895,13613
91847,13540
91784,13477
91711,13429
91630,13395
91544,13378
91455,13378
91369,13395
91288,13429
91215,13477
91152,13540
91104,13613
91070,13694
91053,13780
85446,13780
85429,13694
85395,13613
85347,13540
85284,13477
85211,13429
85130,13395
85044,13378
84955,13378
84869,13395
84788,13429
84715,13477
84652,13540
84604,13613
84570,13694
84553,13780
78746,13780
78729,13694
78695,13613
78647,13540
78584,13477
78511,13429
78430,13395
78344,13378
78255,13378
78169,13395
78088,13429
78015,13477
77952,13540
77904,13613
77870,13694
77853,13780
72246,13780
72229,13694
72195,13613
72147,13540
72084,13477
72011,13429
71930,13395
71844,13378
71755,13378
71669,13395
71588,13429
71515,13477
71452,13540
71404,13613
71370,13694
71353,13780
65746,13780
65729,13694
65695,13613
65647,13540
65584,13477
65511,13429
65430,13395
65344,13378
65255,13378
65169,13395
65088,13429
65015,13477
64952,13540
64904,13613
64870,13694
64853,13780
62887,13780
62887,13775
62865,13607
62812,13447
62728,13300
62618,13171
62484,13067
62333,12991
62170,12945
62001,12932
61833,12952
61672,13005
61524,13087
61396,13197
61290,13330
61213,13480
61166,13643
61152,13812
59246,13812
59246,13780
59229,13694
59195,13613
59147,13540
59084,13477
59011,13429
58930,13395
58844,13378
58755,13378
58669,13395
58588,13429
58515,13477
58452,13540
58404,13613
58370,13694
58353,13780
52546,13780
52529,13694
52495,13613
52447,13540
52384,13477
52311,13429
52230,13395
52144,13378
52055,13378
51969,13395
51888,13429
51815,13477
51752,13540
51704,13613
51670,13694
51653,13780
46046,13780
46029,13694
45995,13613
45947,13540
45884,13477
45811,13429
45730,13395
45644,13378
45555,13378
45469,13395
45388,13429
45315,13477
45252,13540
45204,13613
45170,13694
45153,13780
39546,13780
39529,13694
39495,13613
39447,13540
39384,13477
39311,13429
39230,13395
39144,13378
39055,13378
38969,13395
38888,13429
38815,13477
38752,13540
38704,13613
38670,13694
38653,13780
33046,13780
33029,13694
32995,13613
32947,13540
32884,13477
32811,13429
32730,13395
32644,13378
32555,13378
32469,13395
32388,13429
32315,13477
32252,13540
32204,13613
32170,13694
32153,13780
26391,13780
26379,13719
26345,13638
26297,13565
26234,13502
26161,13454
26080,13420
25994,13403
25905,13403
25819,13420
25738,13454
25665,13502
25602,13565
25554,13638
25520,13719
25503,13805
23630,13805
23688,13698
23725,13576
23737,13448
23725,13321
23688,13198
23627,13085
23546,12986
23499,12948
23546,12910
23627,12811
23688,12698
23725,12576
23736,12464
100081,12464
100093,12591
100130,12714
100191,12827
100272,12926
100318,12964
100272,13002
100191,13101
100130,13214
100093,13337
100081,13464
100093,13591
100130,13714
100191,13827
100272,13926
100318,13964
100239,14040
100166,14145
100114,14262
100101,14313
100148,14414
100934,14414
100934,14406
101034,14406
101034,14414
101819,14414
101866,14313
101853,14262
101802,14145
101729,14040
101649,13964
101696,13926
101777,13827
101837,13714
101874,13591
101887,13464
101874,13337
101837,13214
101777,13101
101696,13002
101649,12964
101696,12926
101777,12827
101837,12714
101841,12700
104748,12700
104749,12713
104749,13474
104748,13487
104753,13540
104768,13591
104793,13638
104827,13679
104858,13704
104868,13713
104915,13738
104966,13753
105019,13758
105032,13757
106580,13757
106593,13758
106646,13753
106697,13738
106744,13713
106785,13679
106819,13638
106844,13591
106859,13540
106863,13501
106863,13501
106864,13487
106863,13474
106863,12713
106864,12700
106859,12647
106844,12596
106819,12549
106785,12508
106744,12475
106697,12450
106646,12434
106607,12430
106593,12429
106580,12430
105032,12430
105019,12429
105005,12430
104966,12434
104915,12450
104868,12475
104827,12508
104793,12549
104768,12596
104753,12647
104748,12700
101841,12700
101874,12591
101887,12464
101874,12337
101837,12214
101777,12101
101696,12002
101597,11921
101484,11861
101361,11823
101266,11814
100702,11814
100606,11823
100484,11861
100371,11921
100272,12002
100191,12101
100130,12214
100093,12337
100081,12464
23736,12464
23737,12448
23725,12321
23688,12198
23627,12085
23556,11998
23816,11998
23912,11989
24034,11952
24147,11891
24246,11810
24327,11711
24388,11598
24425,11476
24437,11348
24425,11221
24403,11150
102584,11150
102585,11160
102584,11171
102586,11187
102586,11189
102588,11200
102591,11223
102592,11226
102628,11452
102628,11455
102632,11479
102634,11489
102635,11492
102637,11507
102641,11517
102644,11528
102651,11542
102652,11544
102657,11554
102667,11575
102669,11578
102773,11781
102773,11784
102785,11805
102789,11815
102791,11817
102798,11831
102805,11839
102811,11848
102822,11859
102824,11861
102831,11869
102848,11886
102850,11888
103012,12050
103013,12052
103031,12069
103038,12076
103040,12078
103052,12089
103061,12095
103069,12102
103083,12109
103085,12111
103095,12115
103115,12127
103118,12127
103323,12231
103325,12233
103346,12243
103356,12248
103358,12249
103373,12256
103383,12259
103393,12263
103409,12266
103411,12266
103422,12268
103445,12272
103448,12272
103679,12309
103687,12311
103706,12313
103711,12314
103719,12314
103727,12315
103732,12315
103751,12316
103758,12315
104902,12315
104910,12316
104929,12315
104934,12315
104942,12314
104950,12314
104955,12313
104974,12311
104982,12309
105213,12272
105215,12272
105239,12268
105250,12266
105252,12266
105268,12263
105278,12259
105288,12256
105302,12249
105305,12248
105314,12243
105336,12233
105338,12231
105542,12127
105545,12127
105566,12115
105575,12111
105578,12109
105592,12102
105600,12095
105609,12089
105620,12078
105623,12076
105630,12069
105647,12052
105649,12050
105811,11888
105812,11887
105829,11869
105837,11861
105838,11860
105849,11848
105855,11839
105862,11831
105870,11817
105871,11815
105876,11805
105887,11784
105888,11781
105992,11578
105994,11575
106004,11554
106009,11545
106010,11542
106017,11528
106020,11517
106023,11508
106026,11492
106027,11489
106029,11479
106033,11455
106033,11453
106069,11226
106070,11223
106073,11200
106074,11189
106075,11187
106077,11171
106076,11160
106077,11150
106075,11134
106074,11131
106073,11121
106070,11097
106069,11094
106033,10868
106033,10865
106029,10842
106027,10831
106026,10829
106023,10813
106020,10803
106017,10793
106010,10778
106009,10776
106004,10766
105994,10745
105992,10743
105888,10539
105887,10537
105876,10515
105871,10506
105870,10504
105862,10490
105855,10481
105849,10472
105838,10461
105837,10459
105829,10451
105812,10434
105811,10432
105649,10270
105647,10268
105630,10252
105623,10244
105620,10242
105609,10231
105600,10226
105592,10219
105578,10211
105575,10210
105566,10205
105545,10194
105542,10193
105338,10089
105336,10087
105314,10077
105305,10072
105302,10071
105288,10064
105278,10062
105268,10058
105252,10055
105250,10054
105239,10053
105215,10048
105213,10048
104982,10012
104974,10009
104955,10008
104950,10007
104942,10006
104934,10005
104929,10005
104910,10004
104902,10005
103758,10005
103751,10004
103732,10005
103727,10005
103719,10006
103711,10007
103706,10008
103687,10009
103679,10012
103448,10048
103445,10048
103422,10053
103411,10054
103409,10055
103393,10058
103383,10062
103373,10064
103358,10071
103356,10072
103346,10077
103325,10087
103323,10089
103118,10193
103115,10194
103095,10205
103085,10210
103083,10211
103069,10219
103061,10226
103052,10231
103040,10242
103038,10244
103031,10252
103013,10268
103012,10270
102850,10433
102848,10434
102831,10451
102824,10459
102822,10461
102811,10472
102805,10481
102798,10490
102791,10504
102789,10506
102785,10515
102773,10537
102773,10539
102669,10743
102667,10745
102657,10766
102652,10776
102651,10778
102644,10793
102641,10803
102637,10813
102635,10829
102634,10831
102632,10842
102628,10865
102628,10868
102592,11094
102591,11097
102588,11121
102586,11131
102586,11134
102584,11150
24403,11150
24388,11098
24327,10985
24246,10886
24147,10805
24034,10745
23912,10708
23816,10698
23252,10698
23157,10708
23034,10745
22921,10805
22822,10886
22741,10985
22681,11098
22644,11221
22631,11348
22644,11476
22681,11598
22741,11711
22813,11798
22552,11798
22457,11808
22334,11845
22221,11905
22122,11986
22041,12085
21981,12198
21944,12321
21931,12448
21944,12576
21981,12698
22041,12811
22122,12910
22169,12948
22122,12986
22041,13085
21981,13198
21944,13321
21931,13448
21944,13576
21981,13698
22041,13811
22122,13910
22168,13948
22089,14024
22084,14031
22079,14024
21987,13936
21879,13867
21760,13821
21634,13798
21034,13798
20908,13821
20789,13867
20681,13936
20589,14024
20516,14129
20464,14246
20452,14298
18759,14298
18752,14292
18705,14267
18654,14251
18614,14247
18601,14246
18588,14247
17039,14247
17026,14246
17013,14247
16973,14251
16922,14267
16876,14292
16835,14325
16801,14366
16776,14413
16760,14464
16755,14517
16756,14530
16756,14926
16534,14926
16534,12666
16795,12666
16796,12680
16796,13441
16795,13454
16800,13507
16815,13558
16840,13604
16874,13646
16915,13679
16915,13679
16962,13704
17013,13720
17066,13725
17079,13724
18627,13724
18640,13725
18693,13720
18744,13704
18791,13679
18832,13646
18866,13604
18891,13558
18906,13507
18910,13467
18910,13467
18911,13454
18910,13441
18910,12680
18911,12666
18906,12614
18891,12563
18866,12516
18832,12475
18791,12441
18744,12416
18693,12401
18654,12397
18640,12395
18627,12397
17079,12397
17066,12395
17052,12397
17013,12401
16962,12416
16915,12441
16874,12475
16840,12516
16815,12563
16800,12614
16795,12666
16534,12666
16534,11150
17470,11150
17471,11160
17470,11171
17473,11187
17473,11189
17474,11200
17478,11223
17478,11226
17514,11452
17514,11455
17518,11479
17520,11489
17521,11492
17524,11507
17527,11517
17530,11528
17537,11542
17538,11545
17543,11554
17553,11575
17555,11578
17659,11781
17660,11784
17671,11805
17676,11815
17677,11817
17685,11831
17692,11839
17697,11848
17708,11860
17710,11861
17718,11869
17734,11886
17736,11888
17898,12050
17900,12052
17917,12069
17924,12076
17927,12078
17938,12089
17947,12095
17955,12102
17969,12109
17972,12111
17981,12115
18002,12127
18005,12127
18209,12231
18211,12233
18233,12243
18242,12248
18245,12249
18259,12256
18269,12259
18279,12263
18295,12266
18297,12266
18308,12268
18331,12272
18334,12272
18566,12309
18573,12311
18592,12313
18597,12314
18605,12314
18613,12315
18618,12315
18637,12316
18645,12315
19789,12315
19797,12316
19815,12315
19820,12315
19828,12314
19836,12314
19842,12313
19860,12311
19868,12309
20099,12272
20102,12272
20125,12268
20136,12266
20138,12266
20154,12263
20164,12259
20174,12256
20189,12249
20191,12248
20201,12243
20222,12233
20224,12231
20429,12127
20431,12127
20452,12115
20462,12111
20464,12109
20478,12102
20486,12095
20495,12089
20507,12078
20509,12076
20516,12069
20533,12052
20535,12050
20697,11888
20699,11886
20716,11869
20723,11861
20725,11860
20736,11848
20742,11839
20749,11831
20756,11817
20757,11815
20762,11805
20774,11784
20774,11781
20878,11578
20880,11575
20890,11554
20895,11545
20896,11542
20903,11528
20906,11517
20910,11507
20913,11492
20913,11489
20915,11479
20919,11455
20919,11452
20955,11226
20956,11223
20959,11200
20961,11189
20961,11187
20963,11171
20962,11160
20963,11150
20961,11134
20961,11131
20959,11121
20956,11097
20955,11094
20919,10868
20919,10865
20915,10842
20913,10831
20913,10829
20910,10813
20906,10803
20903,10793
20896,10778
20895,10776
20890,10766
20880,10745
20878,10743
20774,10539
20774,10537
20762,10515
20757,10506
20756,10504
20749,10490
20742,10481
20736,10472
20725,10461
20723,10459
20716,10451
20699,10434
20697,10433
20535,10270
20533,10268
20516,10252
20509,10244
20507,10242
20495,10231
20486,10226
20478,10219
20464,10211
20462,10210
20452,10205
20431,10194
20429,10193
20224,10089
20222,10087
20201,10077
20191,10072
20189,10071
20174,10064
20164,10062
20154,10058
20138,10055
20136,10054
20125,10053
20102,10048
20099,10048
19868,10012
19860,10009
19842,10008
19836,10007
19828,10006
19820,10005
19815,10005
19797,10004
19789,10005
18645,10005
18637,10004
18618,10005
18613,10005
18605,10006
18597,10007
18592,10008
18573,10009
18566,10012
18334,10048
18331,10048
18308,10053
18297,10054
18295,10055
18279,10058
18269,10062
18259,10064
18245,10071
18242,10072
18233,10077
18211,10087
18209,10089
18005,10193
18002,10194
17981,10205
17972,10210
17969,10211
17955,10219
17947,10226
17938,10231
17927,10242
17924,10244
17917,10252
17900,10268
17898,10270
17736,10433
17734,10434
17718,10451
17710,10459
17708,10461
17697,10472
17692,10481
17685,10490
17677,10504
17676,10506
17671,10515
17660,10537
17659,10539
17555,10743
17553,10745
17543,10766
17538,10776
17537,10778
17530,10793
17527,10803
17524,10813
17521,10829
17520,10831
17518,10842
17514,10865
17514,10868
17478,11094
17478,11097
17474,11121
17473,11131
17473,11134
17470,11150
16534,11150
16534,10886
16562,10706
16635,10562
16749,10449
16892,10376
17073,10347
17151,10347
17154,10348
17178,10347
17188,10347
17191,10347
17207,10347
17217,10344
17228,10343
17243,10339
17259,10335
17268,10331
17279,10328
17293,10320
17307,10314
17316,10308
17325,10303
17338,10293
17351,10284
17358,10276
17366,10269
17377,10257
17388,10245
17393,10236
17400,10228
17408,10214
17409,10212
17414,10202
17425,10181
17426,10179
17453,10125
17588,9990
17759,9903
17969,9870
20464,9870
20674,9903
Z" /> 
</g>
</g> 
</svg>
