<?xml version="1.0" standalone="no"?>
 <!DOCTYPE svg PUBLIC "-//W3C//DTD SVG 1.1//EN" 
 "http://www.w3.org/Graphics/SVG/1.1/DTD/svg11.dtd"> 
<svg xmlns="http://www.w3.org/2000/svg" version="1.1" 
    width="84.0994cm" height="59.4004cm" viewBox="0 0 331100 233860 ">
<title>SVG Picture created as AInside-F_SilkS.svg date 2019/04/12 10:44:05 </title>
  <desc>Picture generated by PCBNEW </desc>
<g style="fill:#000000; fill-opacity:1;stroke:#000000; stroke-opacity:1;
stroke-linecap:round; stroke-linejoin:round; "
 transform="translate(0 0) scale(1 1)">
</g>
<g style="fill:#000000; fill-opacity:0.0; 
stroke:#000000; stroke-width:-0.000393701; stroke-opacity:1; 
stroke-linecap:round; stroke-linejoin:round;">
</g>
<g style="fill:#000000; fill-opacity:0.0; 
stroke:#000000; stroke-width:118.11; stroke-opacity:1; 
stroke-linecap:round; stroke-linejoin:round;">
<path d="M106280 11465
L106843 11465
" />
<path d="M106168 11803
L106561 10622
L106955 11803
" />
<path d="M16734 11515
L17296 11515
" />
<path d="M16622 11853
L17015 10672
L17409 11853
" />
</g>
<g style="fill:#000000; fill-opacity:0.0; 
stroke:#000000; stroke-width:39.3701; stroke-opacity:1; 
stroke-linecap:round; stroke-linejoin:round;">
<path d="M96877 13817
L98846 13817
" />
<path d="M97862 12833
L97862 14801
" />
<path d="M90316 13817
L92284 13817
" />
<path d="M91300 12833
L91300 14801
" />
<path d="M83754 13817
L85723 13817
" />
<path d="M84738 12833
L84738 14801
" />
<path d="M77192 13817
L79161 13817
" />
<path d="M78177 12833
L78177 14801
" />
<path d="M70631 13817
L72599 13817
" />
<path d="M71615 12833
L71615 14801
" />
<path d="M64069 13817
L66037 13817
" />
<path d="M65053 12833
L65053 14801
" />
<path d="M57507 13817
L59476 13817
" />
<path d="M58492 12833
L58492 14801
" />
<path d="M50946 13817
L52914 13817
" />
<path d="M51930 12833
L51930 14801
" />
<path d="M44384 13817
L46352 13817
" />
<path d="M45368 12833
L45368 14801
" />
<path d="M37822 13817
L39791 13817
" />
<path d="M38806 12833
L38806 14801
" />
<path d="M31261 13817
L33229 13817
" />
<path d="M32245 12833
L32245 14801
" />
<path d="M24699 13817
L26667 13817
" />
<path d="M25683 12833
L25683 14801
" />
<path d="M15813 12366
L15813 12366
" />
<path d="M15773 12192
L15813 12366
" />
<path d="M15656 12048
L15773 12192
" />
<path d="M15468 11951
L15656 12048
" />
<path d="M15215 11915
L15468 11951
" />
<path d="M15042 11931
L15215 11915
" />
<path d="M14885 11976
L15042 11931
" />
<path d="M14742 12051
L14885 11976
" />
<path d="M14615 12153
L14742 12051
" />
<path d="M14666 12206
L14615 12153
" />
<path d="M14718 12260
L14666 12206
" />
<path d="M14769 12313
L14718 12260
" />
<path d="M14820 12366
L14769 12313
" />
<path d="M14897 12303
L14820 12366
" />
<path d="M14980 12255
L14897 12303
" />
<path d="M15070 12225
L14980 12255
" />
<path d="M15170 12214
L15070 12225
" />
<path d="M15274 12229
L15170 12214
" />
<path d="M15354 12271
L15274 12229
" />
<path d="M15407 12338
L15354 12271
" />
<path d="M15425 12427
L15407 12338
" />
<path d="M15406 12527
L15425 12427
" />
<path d="M15351 12599
L15406 12527
" />
<path d="M15267 12643
L15351 12599
" />
<path d="M15159 12657
L15267 12643
" />
<path d="M15132 12657
L15159 12657
" />
<path d="M15104 12657
L15132 12657
" />
<path d="M15076 12657
L15104 12657
" />
<path d="M15048 12657
L15076 12657
" />
<path d="M15037 12726
L15048 12657
" />
<path d="M15025 12794
L15037 12726
" />
<path d="M15014 12862
L15025 12794
" />
<path d="M15002 12931
L15014 12862
" />
<path d="M15042 12931
L15002 12931
" />
<path d="M15082 12931
L15042 12931
" />
<path d="M15122 12931
L15082 12931
" />
<path d="M15162 12931
L15122 12931
" />
<path d="M15287 12946
L15162 12931
" />
<path d="M15380 12993
L15287 12946
" />
<path d="M15438 13075
L15380 12993
" />
<path d="M15458 13194
L15438 13075
" />
<path d="M15437 13305
L15458 13194
" />
<path d="M15376 13386
L15437 13305
" />
<path d="M15282 13436
L15376 13386
" />
<path d="M15162 13452
L15282 13436
" />
<path d="M15062 13443
L15162 13452
" />
<path d="M14966 13413
L15062 13443
" />
<path d="M14878 13361
L14966 13413
" />
<path d="M14797 13285
L14878 13361
" />
<path d="M14741 13338
L14797 13285
" />
<path d="M14685 13390
L14741 13338
" />
<path d="M14628 13443
L14685 13390
" />
<path d="M14572 13495
L14628 13443
" />
<path d="M14694 13607
L14572 13495
" />
<path d="M14838 13690
L14694 13607
" />
<path d="M15004 13741
L14838 13690
" />
<path d="M15190 13759
L15004 13741
" />
<path d="M15473 13717
L15190 13759
" />
<path d="M15687 13602
L15473 13717
" />
<path d="M15822 13431
L15687 13602
" />
<path d="M15869 13222
L15822 13431
" />
<path d="M15838 13039
L15869 13222
" />
<path d="M15752 12910
L15838 13039
" />
<path d="M15621 12828
L15752 12910
" />
<path d="M15453 12786
L15621 12828
" />
<path d="M15601 12725
L15453 12786
" />
<path d="M15715 12636
L15601 12725
" />
<path d="M15787 12517
L15715 12636
" />
<path d="M15813 12366
L15787 12517
" />
<path d="M13062 13716
L13062 13716
" />
<path d="M13171 13716
L13062 13716
" />
<path d="M13279 13716
L13171 13716
" />
<path d="M13387 13716
L13279 13716
" />
<path d="M13495 13716
L13387 13716
" />
<path d="M13559 13590
L13495 13716
" />
<path d="M13623 13464
L13559 13590
" />
<path d="M13687 13338
L13623 13464
" />
<path d="M13751 13212
L13687 13338
" />
<path d="M13818 13338
L13751 13212
" />
<path d="M13884 13464
L13818 13338
" />
<path d="M13951 13590
L13884 13464
" />
<path d="M14017 13716
L13951 13590
" />
<path d="M14130 13716
L14017 13716
" />
<path d="M14244 13716
L14130 13716
" />
<path d="M14357 13716
L14244 13716
" />
<path d="M14470 13716
L14357 13716
" />
<path d="M14355 13535
L14470 13716
" />
<path d="M14239 13355
L14355 13535
" />
<path d="M14123 13174
L14239 13355
" />
<path d="M14007 12994
L14123 13174
" />
<path d="M14106 12838
L14007 12994
" />
<path d="M14205 12683
L14106 12838
" />
<path d="M14303 12527
L14205 12683
" />
<path d="M14402 12371
L14303 12527
" />
<path d="M14296 12371
L14402 12371
" />
<path d="M14189 12371
L14296 12371
" />
<path d="M14083 12371
L14189 12371
" />
<path d="M13977 12371
L14083 12371
" />
<path d="M13925 12479
L13977 12371
" />
<path d="M13873 12586
L13925 12479
" />
<path d="M13821 12694
L13873 12586
" />
<path d="M13769 12802
L13821 12694
" />
<path d="M13715 12694
L13769 12802
" />
<path d="M13661 12586
L13715 12694
" />
<path d="M13607 12479
L13661 12586
" />
<path d="M13554 12371
L13607 12479
" />
<path d="M13442 12371
L13554 12371
" />
<path d="M13330 12371
L13442 12371
" />
<path d="M13217 12371
L13330 12371
" />
<path d="M13105 12371
L13217 12371
" />
<path d="M13210 12531
L13105 12371
" />
<path d="M13314 12690
L13210 12531
" />
<path d="M13419 12850
L13314 12690
" />
<path d="M13523 13009
L13419 12850
" />
<path d="M13408 13186
L13523 13009
" />
<path d="M13293 13363
L13408 13186
" />
<path d="M13178 13539
L13293 13363
" />
<path d="M13062 13716
L13178 13539
" />
<path d="M98846 12833
L98846 14801
" />
<path d="M96877 12833
L98846 12833
" />
<path d="M96877 14801
L96877 12833
" />
<path d="M98846 14801
L96877 14801
" />
<path d="M92284 12833
L92284 14801
" />
<path d="M90316 12833
L92284 12833
" />
<path d="M90316 14801
L90316 12833
" />
<path d="M92284 14801
L90316 14801
" />
<path d="M85723 12833
L85723 14801
" />
<path d="M83754 12833
L85723 12833
" />
<path d="M83754 14801
L83754 12833
" />
<path d="M85723 14801
L83754 14801
" />
<path d="M79161 12833
L79161 14801
" />
<path d="M77192 12833
L79161 12833
" />
<path d="M77192 14801
L77192 12833
" />
<path d="M79161 14801
L77192 14801
" />
<path d="M72599 12833
L72599 14801
" />
<path d="M70631 12833
L72599 12833
" />
<path d="M70631 14801
L70631 12833
" />
<path d="M72599 14801
L70631 14801
" />
<path d="M66037 12833
L66037 14801
" />
<path d="M64069 12833
L66037 12833
" />
<path d="M64069 14801
L64069 12833
" />
<path d="M66037 14801
L64069 14801
" />
<path d="M59476 12833
L59476 14801
" />
<path d="M57507 12833
L59476 12833
" />
<path d="M57507 14801
L57507 12833
" />
<path d="M59476 14801
L57507 14801
" />
<path d="M52914 12833
L52914 14801
" />
<path d="M50946 12833
L52914 12833
" />
<path d="M50946 14801
L50946 12833
" />
<path d="M52914 14801
L50946 14801
" />
<path d="M46352 12833
L46352 14801
" />
<path d="M44384 12833
L46352 12833
" />
<path d="M44384 14801
L44384 12833
" />
<path d="M46352 14801
L44384 14801
" />
<path d="M39791 12833
L39791 14801
" />
<path d="M37822 12833
L39791 12833
" />
<path d="M37822 14801
L37822 12833
" />
<path d="M39791 14801
L37822 14801
" />
<path d="M33229 12833
L33229 14801
" />
<path d="M31261 12833
L33229 12833
" />
<path d="M31261 14801
L31261 12833
" />
<path d="M33229 14801
L31261 14801
" />
<path d="M26667 12833
L26667 14801
" />
<path d="M24699 12833
L26667 12833
" />
<path d="M24699 14801
L24699 12833
" />
<path d="M26667 14801
L24699 14801
" />
</g>
<g style="fill:#000000; fill-opacity:0.0; 
stroke:#000000; stroke-width:47.2441; stroke-opacity:1; 
stroke-linecap:round; stroke-linejoin:round;">
<path d="M75104 14082
L75104 13879
" />
<path d="M74545 14082
L74545 13879
" />
<path d="M81658 14082
L81658 13879
" />
<path d="M81099 14082
L81099 13879
" />
<path d="M88212 14082
L88212 13879
" />
<path d="M87653 14082
L87653 13879
" />
<path d="M94765 14082
L94765 13879
" />
<path d="M94206 14082
L94206 13879
" />
<path d="M96889 12020
L96686 12020
" />
<path d="M96889 12579
L96686 12579
" />
<path d="M27121 14903
L24246 14903
" />
<path d="M27121 14450
L27121 14903
" />
<path d="M27121 12738
L24246 12738
" />
<path d="M33682 14903
L30808 14903
" />
<path d="M33682 14450
L33682 14903
" />
<path d="M33682 12738
L30808 12738
" />
<path d="M99296 14903
L96421 14903
" />
<path d="M99296 14450
L99296 14903
" />
<path d="M99296 12738
L96421 12738
" />
<path d="M92734 14903
L89860 14903
" />
<path d="M92734 14450
L92734 14903
" />
<path d="M92734 12738
L89860 12738
" />
<path d="M86173 14903
L83299 14903
" />
<path d="M86173 14450
L86173 14903
" />
<path d="M86173 12738
L83299 12738
" />
<path d="M79611 14903
L76737 14903
" />
<path d="M79611 14450
L79611 14903
" />
<path d="M79611 12738
L76737 12738
" />
<path d="M73050 14903
L70176 14903
" />
<path d="M73050 14450
L73050 14903
" />
<path d="M73050 12738
L70176 12738
" />
<path d="M66489 14903
L63615 14903
" />
<path d="M66489 14450
L66489 14903
" />
<path d="M66489 12738
L63615 12738
" />
<path d="M59927 14903
L57053 14903
" />
<path d="M59927 14450
L59927 14903
" />
<path d="M59927 12738
L57053 12738
" />
<path d="M53366 14903
L50492 14903
" />
<path d="M53366 14450
L53366 14903
" />
<path d="M53366 12738
L50492 12738
" />
<path d="M46805 14903
L43931 14903
" />
<path d="M46805 14450
L46805 14903
" />
<path d="M46805 12738
L43931 12738
" />
<path d="M40243 14903
L37369 14903
" />
<path d="M40243 14450
L40243 14903
" />
<path d="M40243 12738
L37369 12738
" />
<path d="M27470 13729
L27470 13932
" />
<path d="M28029 13729
L28029 13932
" />
<path d="M34124 13879
L34124 14082
" />
<path d="M34683 13879
L34683 14082
" />
<path d="M40677 13879
L40677 14082
" />
<path d="M41236 13879
L41236 14082
" />
<path d="M47231 13879
L47231 14082
" />
<path d="M47790 13879
L47790 14082
" />
<path d="M53785 13879
L53785 14082
" />
<path d="M54344 13879
L54344 14082
" />
<path d="M60170 13879
L60170 14082
" />
<path d="M60729 13879
L60729 14082
" />
<path d="M66892 13879
L66892 14082
" />
<path d="M67451 13879
L67451 14082
" />
<path d="M73445 13879
L73445 14082
" />
<path d="M74004 13879
L74004 14082
" />
<path d="M79999 13879
L79999 14082
" />
<path d="M80558 13879
L80558 14082
" />
<path d="M86553 13879
L86553 14082
" />
<path d="M87112 13879
L87112 14082
" />
<path d="M93106 13879
L93106 14082
" />
<path d="M93665 13879
L93665 14082
" />
<path d="M98289 12020
L98086 12020
" />
<path d="M98289 12579
L98086 12579
" />
<path d="M68551 14082
L68551 13879
" />
<path d="M67992 14082
L67992 13879
" />
<path d="M61568 11860
L61771 11860
" />
<path d="M61568 12419
L61771 12419
" />
<path d="M55444 14082
L55444 13879
" />
<path d="M54885 14082
L54885 13879
" />
<path d="M48890 14082
L48890 13879
" />
<path d="M48331 14082
L48331 13879
" />
<path d="M42336 14082
L42336 13879
" />
<path d="M41777 14082
L41777 13879
" />
<path d="M35783 14082
L35783 13879
" />
<path d="M35224 14082
L35224 13879
" />
<path d="M29029 13932
L29029 13729
" />
<path d="M28470 13932
L28470 13729
" />
</g>
<g style="fill:#000000; fill-opacity:0.0; 
stroke:#000000; stroke-width:59.0551; stroke-opacity:1; 
stroke-linecap:round; stroke-linejoin:round;">
<path d="M101881 13642
L101881 13248
L101974 13248
L102031 13267
L102068 13305
L102087 13342
L102106 13417
L102106 13473
L102087 13548
L102068 13586
L102031 13623
L101974 13642
L101881 13642
" />
<path d="M102274 13642
L102274 13248
" />
<path d="M102462 13642
L102462 13248
L102687 13642
L102687 13248
" />
<path d="M100909 11448
L100721 11448
L100703 11636
L100721 11617
L100759 11598
L100853 11598
L100890 11617
L100909 11636
L100928 11673
L100928 11767
L100909 11805
L100890 11823
L100853 11842
L100759 11842
L100721 11823
L100703 11805
" />
<path d="M101040 11448
L101171 11842
L101302 11448
" />
<path d="M102084 14267
L102046 14248
L101990 14248
L101934 14267
L101896 14305
L101878 14342
L101859 14417
L101859 14473
L101878 14548
L101896 14586
L101934 14623
L101990 14642
L102028 14642
L102084 14623
L102103 14605
L102103 14473
L102028 14473
" />
<path d="M102271 14642
L102271 14248
L102496 14642
L102496 14248
" />
<path d="M102684 14642
L102684 14248
L102777 14248
L102834 14267
L102871 14305
L102890 14342
L102909 14417
L102909 14473
L102890 14548
L102871 14586
L102834 14623
L102777 14642
L102684 14642
" />
<path d="M22259 11133
L22072 11133
L22053 11320
L22072 11301
L22109 11283
L22203 11283
L22240 11301
L22259 11320
L22278 11358
L22278 11451
L22259 11489
L22240 11508
L22203 11526
L22109 11526
L22072 11508
L22053 11489
" />
<path d="M22390 11133
L22522 11526
L22653 11133
" />
<path d="M19634 14251
L19597 14233
L19540 14233
L19484 14251
L19447 14289
L19428 14326
L19409 14401
L19409 14458
L19428 14533
L19447 14570
L19484 14608
L19540 14626
L19578 14626
L19634 14608
L19653 14589
L19653 14458
L19578 14458
" />
<path d="M19822 14626
L19822 14233
L20047 14626
L20047 14233
" />
<path d="M20234 14626
L20234 14233
L20328 14233
L20384 14251
L20422 14289
L20440 14326
L20459 14401
L20459 14458
L20440 14533
L20422 14570
L20384 14608
L20328 14626
L20234 14626
" />
<path d="M21131 13626
L21131 13233
L21225 13233
L21281 13251
L21319 13289
L21337 13326
L21356 13401
L21356 13458
L21337 13533
L21319 13570
L21281 13608
L21225 13626
L21131 13626
" />
<path d="M21525 13626
L21525 13233
" />
<path d="M21712 13626
L21712 13233
L21937 13626
L21937 13233
" />
<path d="M21559 12233
L21372 12233
L21353 12420
L21372 12401
L21409 12383
L21503 12383
L21540 12401
L21559 12420
L21578 12458
L21578 12551
L21559 12589
L21540 12608
L21503 12626
L21409 12626
L21372 12608
L21353 12589
" />
<path d="M21690 12233
L21822 12626
L21953 12233
" />
<path d="M24659 11133
L24472 11133
L24453 11320
L24472 11301
L24509 11283
L24603 11283
L24640 11301
L24659 11320
L24678 11358
L24678 11451
L24659 11489
L24640 11508
L24603 11526
L24509 11526
L24472 11508
L24453 11489
" />
<path d="M24790 11133
L24922 11526
L25053 11133
" />
<path d="M74710 13121
L74691 13140
L74635 13159
L74597 13159
L74541 13140
L74504 13102
L74485 13065
L74466 12990
L74466 12934
L74485 12859
L74504 12821
L74541 12784
L74597 12765
L74635 12765
L74691 12784
L74710 12802
" />
<path d="M74935 12934
L74897 12915
L74878 12896
L74860 12859
L74860 12840
L74878 12802
L74897 12784
L74935 12765
L75010 12765
L75047 12784
L75066 12802
L75085 12840
L75085 12859
L75066 12896
L75047 12915
L75010 12934
L74935 12934
L74897 12952
L74878 12971
L74860 13009
L74860 13084
L74878 13121
L74897 13140
L74935 13159
L75010 13159
L75047 13140
L75066 13121
L75085 13084
L75085 13009
L75066 12971
L75047 12952
L75010 12934
" />
<path d="M81263 13121
L81245 13140
L81188 13159
L81151 13159
L81095 13140
L81057 13102
L81038 13065
L81020 12990
L81020 12934
L81038 12859
L81057 12821
L81095 12784
L81151 12765
L81188 12765
L81245 12784
L81263 12802
" />
<path d="M81451 13159
L81526 13159
L81563 13140
L81582 13121
L81620 13065
L81638 12990
L81638 12840
L81620 12802
L81601 12784
L81563 12765
L81488 12765
L81451 12784
L81432 12802
L81413 12840
L81413 12934
L81432 12971
L81451 12990
L81488 13009
L81563 13009
L81601 12990
L81620 12971
L81638 12934
" />
<path d="M87630 13121
L87611 13140
L87555 13159
L87517 13159
L87461 13140
L87423 13102
L87405 13065
L87386 12990
L87386 12934
L87405 12859
L87423 12821
L87461 12784
L87517 12765
L87555 12765
L87611 12784
L87630 12802
" />
<path d="M88004 13159
L87780 13159
" />
<path d="M87892 13159
L87892 12765
L87854 12821
L87817 12859
L87780 12877
" />
<path d="M88248 12765
L88286 12765
L88323 12784
L88342 12802
L88361 12840
L88379 12915
L88379 13009
L88361 13084
L88342 13121
L88323 13140
L88286 13159
L88248 13159
L88211 13140
L88192 13121
L88173 13084
L88154 13009
L88154 12915
L88173 12840
L88192 12802
L88211 12784
L88248 12765
" />
<path d="M94183 13121
L94164 13140
L94108 13159
L94071 13159
L94014 13140
L93977 13102
L93958 13065
L93939 12990
L93939 12934
L93958 12859
L93977 12821
L94014 12784
L94071 12765
L94108 12765
L94164 12784
L94183 12802
" />
<path d="M94558 13159
L94333 13159
" />
<path d="M94446 13159
L94446 12765
L94408 12821
L94371 12859
L94333 12877
" />
<path d="M94933 13159
L94708 13159
" />
<path d="M94821 13159
L94821 12765
L94783 12821
L94746 12859
L94708 12877
" />
<path d="M96557 11715
L96539 11734
L96482 11752
L96445 11752
L96389 11734
L96351 11696
L96332 11659
L96314 11584
L96314 11527
L96332 11452
L96351 11415
L96389 11377
L96445 11359
L96482 11359
L96539 11377
L96557 11396
" />
<path d="M96932 11752
L96707 11752
" />
<path d="M96820 11752
L96820 11359
L96782 11415
L96745 11452
L96707 11471
" />
<path d="M97082 11396
L97101 11377
L97139 11359
L97232 11359
L97270 11377
L97289 11396
L97307 11434
L97307 11471
L97289 11527
L97064 11752
L97307 11752
" />
<path d="M25393 12527
L25393 12133
L25487 12133
L25543 12152
L25580 12189
L25599 12227
L25618 12302
L25618 12358
L25599 12433
L25580 12470
L25543 12508
L25487 12527
L25393 12527
" />
<path d="M25993 12527
L25768 12527
" />
<path d="M25880 12527
L25880 12133
L25843 12189
L25805 12227
L25768 12245
" />
<path d="M31954 12527
L31954 12133
L32048 12133
L32104 12152
L32142 12189
L32160 12227
L32179 12302
L32179 12358
L32160 12433
L32142 12470
L32104 12508
L32048 12527
L31954 12527
" />
<path d="M32329 12170
L32348 12152
L32385 12133
L32479 12133
L32517 12152
L32535 12170
L32554 12208
L32554 12245
L32535 12302
L32310 12527
L32554 12527
" />
<path d="M97380 13378
L97380 12984
L97474 12984
L97530 13003
L97568 13040
L97587 13078
L97605 13153
L97605 13209
L97587 13284
L97568 13321
L97530 13359
L97474 13378
L97380 13378
" />
<path d="M97980 13378
L97755 13378
" />
<path d="M97868 13378
L97868 12984
L97830 13040
L97793 13078
L97755 13096
" />
<path d="M98130 13021
L98149 13003
L98187 12984
L98280 12984
L98318 13003
L98337 13021
L98355 13059
L98355 13096
L98337 13153
L98112 13378
L98355 13378
" />
<path d="M90819 12527
L90819 12133
L90913 12133
L90969 12152
L91007 12189
L91025 12227
L91044 12302
L91044 12358
L91025 12433
L91007 12470
L90969 12508
L90913 12527
L90819 12527
" />
<path d="M91419 12527
L91194 12527
" />
<path d="M91307 12527
L91307 12133
L91269 12189
L91232 12227
L91194 12245
" />
<path d="M91794 12527
L91569 12527
" />
<path d="M91681 12527
L91681 12133
L91644 12189
L91606 12227
L91569 12245
" />
<path d="M84258 12527
L84258 12133
L84351 12133
L84408 12152
L84445 12189
L84464 12227
L84483 12302
L84483 12358
L84464 12433
L84445 12470
L84408 12508
L84351 12527
L84258 12527
" />
<path d="M84858 12527
L84633 12527
" />
<path d="M84745 12527
L84745 12133
L84708 12189
L84670 12227
L84633 12245
" />
<path d="M85101 12133
L85139 12133
L85176 12152
L85195 12170
L85214 12208
L85233 12283
L85233 12377
L85214 12452
L85195 12489
L85176 12508
L85139 12527
L85101 12527
L85064 12508
L85045 12489
L85026 12452
L85008 12377
L85008 12283
L85026 12208
L85045 12170
L85064 12152
L85101 12133
" />
<path d="M77884 12527
L77884 12133
L77978 12133
L78034 12152
L78071 12189
L78090 12227
L78109 12302
L78109 12358
L78090 12433
L78071 12470
L78034 12508
L77978 12527
L77884 12527
" />
<path d="M78296 12527
L78371 12527
L78409 12508
L78428 12489
L78465 12433
L78484 12358
L78484 12208
L78465 12170
L78446 12152
L78409 12133
L78334 12133
L78296 12152
L78278 12170
L78259 12208
L78259 12302
L78278 12339
L78296 12358
L78334 12377
L78409 12377
L78446 12358
L78465 12339
L78484 12302
" />
<path d="M71322 12527
L71322 12133
L71416 12133
L71472 12152
L71510 12189
L71529 12227
L71547 12302
L71547 12358
L71529 12433
L71510 12470
L71472 12508
L71416 12527
L71322 12527
" />
<path d="M71772 12302
L71735 12283
L71716 12264
L71697 12227
L71697 12208
L71716 12170
L71735 12152
L71772 12133
L71847 12133
L71885 12152
L71904 12170
L71922 12208
L71922 12227
L71904 12264
L71885 12283
L71847 12302
L71772 12302
L71735 12320
L71716 12339
L71697 12377
L71697 12452
L71716 12489
L71735 12508
L71772 12527
L71847 12527
L71885 12508
L71904 12489
L71922 12452
L71922 12377
L71904 12339
L71885 12320
L71847 12302
" />
<path d="M64761 12527
L64761 12133
L64855 12133
L64911 12152
L64949 12189
L64967 12227
L64986 12302
L64986 12358
L64967 12433
L64949 12470
L64911 12508
L64855 12527
L64761 12527
" />
<path d="M65117 12133
L65380 12133
L65211 12527
" />
<path d="M58200 12527
L58200 12133
L58293 12133
L58350 12152
L58387 12189
L58406 12227
L58425 12302
L58425 12358
L58406 12433
L58387 12470
L58350 12508
L58293 12527
L58200 12527
" />
<path d="M58762 12133
L58687 12133
L58650 12152
L58631 12170
L58593 12227
L58575 12302
L58575 12452
L58593 12489
L58612 12508
L58650 12527
L58725 12527
L58762 12508
L58781 12489
L58800 12452
L58800 12358
L58781 12320
L58762 12302
L58725 12283
L58650 12283
L58612 12302
L58593 12320
L58575 12358
" />
<path d="M51638 12527
L51638 12133
L51732 12133
L51788 12152
L51826 12189
L51845 12227
L51863 12302
L51863 12358
L51845 12433
L51826 12470
L51788 12508
L51732 12527
L51638 12527
" />
<path d="M52220 12133
L52032 12133
L52013 12320
L52032 12302
L52070 12283
L52163 12283
L52201 12302
L52220 12320
L52238 12358
L52238 12452
L52220 12489
L52201 12508
L52163 12527
L52070 12527
L52032 12508
L52013 12489
" />
<path d="M45077 12527
L45077 12133
L45171 12133
L45227 12152
L45264 12189
L45283 12227
L45302 12302
L45302 12358
L45283 12433
L45264 12470
L45227 12508
L45171 12527
L45077 12527
" />
<path d="M45639 12264
L45639 12527
" />
<path d="M45546 12114
L45452 12395
L45696 12395
" />
<path d="M38516 12527
L38516 12133
L38609 12133
L38666 12152
L38703 12189
L38722 12227
L38741 12302
L38741 12358
L38722 12433
L38703 12470
L38666 12508
L38609 12527
L38516 12527
" />
<path d="M38872 12133
L39116 12133
L38984 12283
L39041 12283
L39078 12302
L39097 12320
L39116 12358
L39116 12452
L39097 12489
L39078 12508
L39041 12527
L38928 12527
L38891 12508
L38872 12489
" />
<path d="M27684 13078
L27553 12890
" />
<path d="M27459 13078
L27459 12684
L27609 12684
L27646 12703
L27665 12721
L27684 12759
L27684 12815
L27665 12853
L27646 12871
L27609 12890
L27459 12890
" />
<path d="M28059 13078
L27834 13078
" />
<path d="M27946 13078
L27946 12684
L27909 12740
L27871 12778
L27834 12796
" />
<path d="M34387 13159
L34256 12971
" />
<path d="M34162 13159
L34162 12765
L34312 12765
L34350 12784
L34368 12802
L34387 12840
L34387 12896
L34368 12934
L34350 12952
L34312 12971
L34162 12971
" />
<path d="M34537 12802
L34556 12784
L34593 12765
L34687 12765
L34725 12784
L34743 12802
L34762 12840
L34762 12877
L34743 12934
L34518 13159
L34762 13159
" />
<path d="M40941 13159
L40810 12971
" />
<path d="M40716 13159
L40716 12765
L40866 12765
L40903 12784
L40922 12802
L40941 12840
L40941 12896
L40922 12934
L40903 12952
L40866 12971
L40716 12971
" />
<path d="M41072 12765
L41316 12765
L41184 12915
L41241 12915
L41278 12934
L41297 12952
L41316 12990
L41316 13084
L41297 13121
L41278 13140
L41241 13159
L41128 13159
L41091 13140
L41072 13121
" />
<path d="M47494 13159
L47363 12971
" />
<path d="M47269 13159
L47269 12765
L47419 12765
L47457 12784
L47476 12802
L47494 12840
L47494 12896
L47476 12934
L47457 12952
L47419 12971
L47269 12971
" />
<path d="M47832 12896
L47832 13159
" />
<path d="M47738 12746
L47644 13027
L47888 13027
" />
<path d="M54048 13159
L53917 12971
" />
<path d="M53823 13159
L53823 12765
L53973 12765
L54011 12784
L54029 12802
L54048 12840
L54048 12896
L54029 12934
L54011 12952
L53973 12971
L53823 12971
" />
<path d="M54404 12765
L54217 12765
L54198 12952
L54217 12934
L54254 12915
L54348 12915
L54385 12934
L54404 12952
L54423 12990
L54423 13084
L54404 13121
L54385 13140
L54348 13159
L54254 13159
L54217 13140
L54198 13121
" />
<path d="M60433 13159
L60302 12971
" />
<path d="M60209 13159
L60209 12765
L60358 12765
L60396 12784
L60415 12802
L60433 12840
L60433 12896
L60415 12934
L60396 12952
L60358 12971
L60209 12971
" />
<path d="M60771 12765
L60696 12765
L60658 12784
L60640 12802
L60602 12859
L60583 12934
L60583 13084
L60602 13121
L60621 13140
L60658 13159
L60733 13159
L60771 13140
L60790 13121
L60808 13084
L60808 12990
L60790 12952
L60771 12934
L60733 12915
L60658 12915
L60621 12934
L60602 12952
L60583 12990
" />
<path d="M67155 13159
L67024 12971
" />
<path d="M66930 13159
L66930 12765
L67080 12765
L67118 12784
L67137 12802
L67155 12840
L67155 12896
L67137 12934
L67118 12952
L67080 12971
L66930 12971
" />
<path d="M67287 12765
L67549 12765
L67380 13159
" />
<path d="M73709 13159
L73578 12971
" />
<path d="M73484 13159
L73484 12765
L73634 12765
L73671 12784
L73690 12802
L73709 12840
L73709 12896
L73690 12934
L73671 12952
L73634 12971
L73484 12971
" />
<path d="M73934 12934
L73896 12915
L73878 12896
L73859 12859
L73859 12840
L73878 12802
L73896 12784
L73934 12765
L74009 12765
L74046 12784
L74065 12802
L74084 12840
L74084 12859
L74065 12896
L74046 12915
L74009 12934
L73934 12934
L73896 12952
L73878 12971
L73859 13009
L73859 13084
L73878 13121
L73896 13140
L73934 13159
L74009 13159
L74046 13140
L74065 13121
L74084 13084
L74084 13009
L74065 12971
L74046 12952
L74009 12934
" />
<path d="M80263 13159
L80131 12971
" />
<path d="M80038 13159
L80038 12765
L80188 12765
L80225 12784
L80244 12802
L80263 12840
L80263 12896
L80244 12934
L80225 12952
L80188 12971
L80038 12971
" />
<path d="M80450 13159
L80525 13159
L80563 13140
L80581 13121
L80619 13065
L80638 12990
L80638 12840
L80619 12802
L80600 12784
L80563 12765
L80488 12765
L80450 12784
L80431 12802
L80413 12840
L80413 12934
L80431 12971
L80450 12990
L80488 13009
L80563 13009
L80600 12990
L80619 12971
L80638 12934
" />
<path d="M86629 13159
L86498 12971
" />
<path d="M86404 13159
L86404 12765
L86554 12765
L86591 12784
L86610 12802
L86629 12840
L86629 12896
L86610 12934
L86591 12952
L86554 12971
L86404 12971
" />
<path d="M87004 13159
L86779 13159
" />
<path d="M86891 13159
L86891 12765
L86854 12821
L86816 12859
L86779 12877
" />
<path d="M87247 12765
L87285 12765
L87322 12784
L87341 12802
L87360 12840
L87379 12915
L87379 13009
L87360 13084
L87341 13121
L87322 13140
L87285 13159
L87247 13159
L87210 13140
L87191 13121
L87172 13084
L87154 13009
L87154 12915
L87172 12840
L87191 12802
L87210 12784
L87247 12765
" />
<path d="M93182 13159
L93051 12971
" />
<path d="M92957 13159
L92957 12765
L93107 12765
L93145 12784
L93164 12802
L93182 12840
L93182 12896
L93164 12934
L93145 12952
L93107 12971
L92957 12971
" />
<path d="M93557 13159
L93332 13159
" />
<path d="M93445 13159
L93445 12765
L93407 12821
L93370 12859
L93332 12877
" />
<path d="M93932 13159
L93707 13159
" />
<path d="M93820 13159
L93820 12765
L93782 12821
L93745 12859
L93707 12877
" />
<path d="M97935 11752
L97804 11565
" />
<path d="M97710 11752
L97710 11359
L97860 11359
L97898 11377
L97917 11396
L97935 11434
L97935 11490
L97917 11527
L97898 11546
L97860 11565
L97710 11565
" />
<path d="M98310 11752
L98085 11752
" />
<path d="M98198 11752
L98198 11359
L98160 11415
L98123 11452
L98085 11471
" />
<path d="M98460 11396
L98479 11377
L98517 11359
L98610 11359
L98648 11377
L98667 11396
L98685 11434
L98685 11471
L98667 11527
L98442 11752
L98685 11752
" />
<path d="M68156 13121
L68137 13140
L68081 13159
L68044 13159
L67987 13140
L67950 13102
L67931 13065
L67912 12990
L67912 12934
L67931 12859
L67950 12821
L67987 12784
L68044 12765
L68081 12765
L68137 12784
L68156 12802
" />
<path d="M68287 12765
L68550 12765
L68381 13159
" />
<path d="M62810 12156
L62829 12174
L62848 12231
L62848 12268
L62829 12324
L62791 12362
L62754 12380
L62679 12399
L62623 12399
L62548 12380
L62510 12362
L62473 12324
L62454 12268
L62454 12231
L62473 12174
L62491 12156
" />
<path d="M62454 11818
L62454 11893
L62473 11931
L62491 11949
L62548 11987
L62623 12006
L62773 12006
L62810 11987
L62829 11968
L62848 11931
L62848 11856
L62829 11818
L62810 11799
L62773 11781
L62679 11781
L62641 11799
L62623 11818
L62604 11856
L62604 11931
L62623 11968
L62641 11987
L62679 12006
" />
<path d="M55049 13121
L55030 13140
L54974 13159
L54936 13159
L54880 13140
L54843 13102
L54824 13065
L54805 12990
L54805 12934
L54824 12859
L54843 12821
L54880 12784
L54936 12765
L54974 12765
L55030 12784
L55049 12802
" />
<path d="M55405 12765
L55218 12765
L55199 12952
L55218 12934
L55255 12915
L55349 12915
L55386 12934
L55405 12952
L55424 12990
L55424 13084
L55405 13121
L55386 13140
L55349 13159
L55255 13159
L55218 13140
L55199 13121
" />
<path d="M48495 13121
L48476 13140
L48420 13159
L48383 13159
L48326 13140
L48289 13102
L48270 13065
L48251 12990
L48251 12934
L48270 12859
L48289 12821
L48326 12784
L48383 12765
L48420 12765
L48476 12784
L48495 12802
" />
<path d="M48833 12896
L48833 13159
" />
<path d="M48739 12746
L48645 13027
L48889 13027
" />
<path d="M41942 13121
L41923 13140
L41867 13159
L41829 13159
L41773 13140
L41735 13102
L41717 13065
L41698 12990
L41698 12934
L41717 12859
L41735 12821
L41773 12784
L41829 12765
L41867 12765
L41923 12784
L41942 12802
" />
<path d="M42073 12765
L42317 12765
L42185 12915
L42242 12915
L42279 12934
L42298 12952
L42317 12990
L42317 13084
L42298 13121
L42279 13140
L42242 13159
L42129 13159
L42092 13140
L42073 13121
" />
<path d="M35388 13121
L35369 13140
L35313 13159
L35275 13159
L35219 13140
L35182 13102
L35163 13065
L35144 12990
L35144 12934
L35163 12859
L35182 12821
L35219 12784
L35275 12765
L35313 12765
L35369 12784
L35388 12802
" />
<path d="M35538 12802
L35557 12784
L35594 12765
L35688 12765
L35725 12784
L35744 12802
L35763 12840
L35763 12877
L35744 12934
L35519 13159
L35763 13159
" />
<path d="M28684 13002
L28665 13021
L28609 13039
L28571 13039
L28515 13021
L28478 12983
L28459 12946
L28440 12871
L28440 12814
L28459 12739
L28478 12702
L28515 12664
L28571 12646
L28609 12646
L28665 12664
L28684 12683
" />
<path d="M29059 13039
L28834 13039
" />
<path d="M28946 13039
L28946 12646
L28909 12702
L28871 12739
L28834 12758
" />
<g >
</g>
</g> 
</svg>
