G04 #@! TF.GenerationSoftware,KiCad,Pcbnew,(5.1.0-0)*
G04 #@! TF.CreationDate,2019-04-21T18:59:04-07:00*
G04 #@! TF.ProjectId,EInside,45496e73-6964-4652-9e6b-696361645f70,rev?*
G04 #@! TF.SameCoordinates,Original*
G04 #@! TF.FileFunction,Soldermask,Bot*
G04 #@! TF.FilePolarity,Negative*
%FSLAX46Y46*%
G04 Gerber Fmt 4.6, Leading zero omitted, Abs format (unit mm)*
G04 Created by KiCad (PCBNEW (5.1.0-0)) date 2019-04-21 18:59:04*
%MOMM*%
%LPD*%
G04 APERTURE LIST*
%ADD10C,0.300000*%
%ADD11C,0.050000*%
%ADD12O,3.400000X1.650000*%
G04 APERTURE END LIST*
D10*
X62780000Y-154137000D03*
D11*
G36*
X63319018Y-153190843D02*
G01*
X63356537Y-153202224D01*
X63391114Y-153220706D01*
X63421421Y-153245579D01*
X63446410Y-153276060D01*
X63946410Y-154026060D01*
X63964856Y-154060657D01*
X63976198Y-154098187D01*
X63980000Y-154137209D01*
X63976116Y-154176223D01*
X63964696Y-154213730D01*
X63946410Y-154247940D01*
X63446410Y-154997940D01*
X63421569Y-155028273D01*
X63391288Y-155053178D01*
X63356730Y-155071696D01*
X63319223Y-155083116D01*
X63280000Y-155087000D01*
X62280000Y-155087000D01*
X62240982Y-155083157D01*
X62203463Y-155071776D01*
X62168886Y-155053294D01*
X62138579Y-155028421D01*
X62113706Y-154998114D01*
X62095224Y-154963537D01*
X62083843Y-154926018D01*
X62080000Y-154887000D01*
X62080000Y-153387000D01*
X62083843Y-153347982D01*
X62095224Y-153310463D01*
X62113706Y-153275886D01*
X62138579Y-153245579D01*
X62168886Y-153220706D01*
X62203463Y-153202224D01*
X62240982Y-153190843D01*
X62280000Y-153187000D01*
X63280000Y-153187000D01*
X63319018Y-153190843D01*
X63319018Y-153190843D01*
G37*
D10*
X64230000Y-154137000D03*
D11*
G36*
X64769018Y-153190843D02*
G01*
X64806537Y-153202224D01*
X64841114Y-153220706D01*
X64871421Y-153245579D01*
X64896294Y-153275886D01*
X64914776Y-153310463D01*
X64926157Y-153347982D01*
X64930000Y-153387000D01*
X64930000Y-154887000D01*
X64926157Y-154926018D01*
X64914776Y-154963537D01*
X64896294Y-154998114D01*
X64871421Y-155028421D01*
X64841114Y-155053294D01*
X64806537Y-155071776D01*
X64769018Y-155083157D01*
X64730000Y-155087000D01*
X63580000Y-155087000D01*
X63540982Y-155083157D01*
X63503463Y-155071776D01*
X63468886Y-155053294D01*
X63438579Y-155028421D01*
X63413706Y-154998114D01*
X63395224Y-154963537D01*
X63383843Y-154926018D01*
X63380000Y-154887000D01*
X63383843Y-154847982D01*
X63395224Y-154810463D01*
X63413590Y-154776060D01*
X63839630Y-154137000D01*
X63413590Y-153497940D01*
X63395144Y-153463343D01*
X63383802Y-153425813D01*
X63380000Y-153386791D01*
X63383884Y-153347777D01*
X63395304Y-153310270D01*
X63413822Y-153275712D01*
X63438727Y-153245431D01*
X63469060Y-153220590D01*
X63503657Y-153202144D01*
X63541187Y-153190802D01*
X63580000Y-153187000D01*
X64730000Y-153187000D01*
X64769018Y-153190843D01*
X64769018Y-153190843D01*
G37*
D10*
X62630001Y-142237000D03*
D11*
G36*
X63169019Y-141290843D02*
G01*
X63206538Y-141302224D01*
X63241115Y-141320706D01*
X63271422Y-141345579D01*
X63296411Y-141376060D01*
X63796411Y-142126060D01*
X63814857Y-142160657D01*
X63826199Y-142198187D01*
X63830001Y-142237209D01*
X63826117Y-142276223D01*
X63814697Y-142313730D01*
X63796411Y-142347940D01*
X63296411Y-143097940D01*
X63271570Y-143128273D01*
X63241289Y-143153178D01*
X63206731Y-143171696D01*
X63169224Y-143183116D01*
X63130001Y-143187000D01*
X62130001Y-143187000D01*
X62090983Y-143183157D01*
X62053464Y-143171776D01*
X62018887Y-143153294D01*
X61988580Y-143128421D01*
X61963707Y-143098114D01*
X61945225Y-143063537D01*
X61933844Y-143026018D01*
X61930001Y-142987000D01*
X61930001Y-141487000D01*
X61933844Y-141447982D01*
X61945225Y-141410463D01*
X61963707Y-141375886D01*
X61988580Y-141345579D01*
X62018887Y-141320706D01*
X62053464Y-141302224D01*
X62090983Y-141290843D01*
X62130001Y-141287000D01*
X63130001Y-141287000D01*
X63169019Y-141290843D01*
X63169019Y-141290843D01*
G37*
D10*
X64080001Y-142237000D03*
D11*
G36*
X64619019Y-141290843D02*
G01*
X64656538Y-141302224D01*
X64691115Y-141320706D01*
X64721422Y-141345579D01*
X64746295Y-141375886D01*
X64764777Y-141410463D01*
X64776158Y-141447982D01*
X64780001Y-141487000D01*
X64780001Y-142987000D01*
X64776158Y-143026018D01*
X64764777Y-143063537D01*
X64746295Y-143098114D01*
X64721422Y-143128421D01*
X64691115Y-143153294D01*
X64656538Y-143171776D01*
X64619019Y-143183157D01*
X64580001Y-143187000D01*
X63430001Y-143187000D01*
X63390983Y-143183157D01*
X63353464Y-143171776D01*
X63318887Y-143153294D01*
X63288580Y-143128421D01*
X63263707Y-143098114D01*
X63245225Y-143063537D01*
X63233844Y-143026018D01*
X63230001Y-142987000D01*
X63233844Y-142947982D01*
X63245225Y-142910463D01*
X63263591Y-142876060D01*
X63689631Y-142237000D01*
X63263591Y-141597940D01*
X63245145Y-141563343D01*
X63233803Y-141525813D01*
X63230001Y-141486791D01*
X63233885Y-141447777D01*
X63245305Y-141410270D01*
X63263823Y-141375712D01*
X63288728Y-141345431D01*
X63319061Y-141320590D01*
X63353658Y-141302144D01*
X63391188Y-141290802D01*
X63430001Y-141287000D01*
X64580001Y-141287000D01*
X64619019Y-141290843D01*
X64619019Y-141290843D01*
G37*
D10*
X343245575Y-154237000D03*
D11*
G36*
X342706557Y-155183157D02*
G01*
X342669038Y-155171776D01*
X342634461Y-155153294D01*
X342604154Y-155128421D01*
X342579165Y-155097940D01*
X342079165Y-154347940D01*
X342060719Y-154313343D01*
X342049377Y-154275813D01*
X342045575Y-154236791D01*
X342049459Y-154197777D01*
X342060879Y-154160270D01*
X342079165Y-154126060D01*
X342579165Y-153376060D01*
X342604006Y-153345727D01*
X342634287Y-153320822D01*
X342668845Y-153302304D01*
X342706352Y-153290884D01*
X342745575Y-153287000D01*
X343745575Y-153287000D01*
X343784593Y-153290843D01*
X343822112Y-153302224D01*
X343856689Y-153320706D01*
X343886996Y-153345579D01*
X343911869Y-153375886D01*
X343930351Y-153410463D01*
X343941732Y-153447982D01*
X343945575Y-153487000D01*
X343945575Y-154987000D01*
X343941732Y-155026018D01*
X343930351Y-155063537D01*
X343911869Y-155098114D01*
X343886996Y-155128421D01*
X343856689Y-155153294D01*
X343822112Y-155171776D01*
X343784593Y-155183157D01*
X343745575Y-155187000D01*
X342745575Y-155187000D01*
X342706557Y-155183157D01*
X342706557Y-155183157D01*
G37*
D10*
X341795575Y-154237000D03*
D11*
G36*
X341256557Y-155183157D02*
G01*
X341219038Y-155171776D01*
X341184461Y-155153294D01*
X341154154Y-155128421D01*
X341129281Y-155098114D01*
X341110799Y-155063537D01*
X341099418Y-155026018D01*
X341095575Y-154987000D01*
X341095575Y-153487000D01*
X341099418Y-153447982D01*
X341110799Y-153410463D01*
X341129281Y-153375886D01*
X341154154Y-153345579D01*
X341184461Y-153320706D01*
X341219038Y-153302224D01*
X341256557Y-153290843D01*
X341295575Y-153287000D01*
X342445575Y-153287000D01*
X342484593Y-153290843D01*
X342522112Y-153302224D01*
X342556689Y-153320706D01*
X342586996Y-153345579D01*
X342611869Y-153375886D01*
X342630351Y-153410463D01*
X342641732Y-153447982D01*
X342645575Y-153487000D01*
X342641732Y-153526018D01*
X342630351Y-153563537D01*
X342611985Y-153597940D01*
X342185945Y-154237000D01*
X342611985Y-154876060D01*
X342630431Y-154910657D01*
X342641773Y-154948187D01*
X342645575Y-154987209D01*
X342641691Y-155026223D01*
X342630271Y-155063730D01*
X342611753Y-155098288D01*
X342586848Y-155128569D01*
X342556515Y-155153410D01*
X342521918Y-155171856D01*
X342484388Y-155183198D01*
X342445575Y-155187000D01*
X341295575Y-155187000D01*
X341256557Y-155183157D01*
X341256557Y-155183157D01*
G37*
D10*
X343246623Y-142237000D03*
D11*
G36*
X342707605Y-143183157D02*
G01*
X342670086Y-143171776D01*
X342635509Y-143153294D01*
X342605202Y-143128421D01*
X342580213Y-143097940D01*
X342080213Y-142347940D01*
X342061767Y-142313343D01*
X342050425Y-142275813D01*
X342046623Y-142236791D01*
X342050507Y-142197777D01*
X342061927Y-142160270D01*
X342080213Y-142126060D01*
X342580213Y-141376060D01*
X342605054Y-141345727D01*
X342635335Y-141320822D01*
X342669893Y-141302304D01*
X342707400Y-141290884D01*
X342746623Y-141287000D01*
X343746623Y-141287000D01*
X343785641Y-141290843D01*
X343823160Y-141302224D01*
X343857737Y-141320706D01*
X343888044Y-141345579D01*
X343912917Y-141375886D01*
X343931399Y-141410463D01*
X343942780Y-141447982D01*
X343946623Y-141487000D01*
X343946623Y-142987000D01*
X343942780Y-143026018D01*
X343931399Y-143063537D01*
X343912917Y-143098114D01*
X343888044Y-143128421D01*
X343857737Y-143153294D01*
X343823160Y-143171776D01*
X343785641Y-143183157D01*
X343746623Y-143187000D01*
X342746623Y-143187000D01*
X342707605Y-143183157D01*
X342707605Y-143183157D01*
G37*
D10*
X341796623Y-142237000D03*
D11*
G36*
X341257605Y-143183157D02*
G01*
X341220086Y-143171776D01*
X341185509Y-143153294D01*
X341155202Y-143128421D01*
X341130329Y-143098114D01*
X341111847Y-143063537D01*
X341100466Y-143026018D01*
X341096623Y-142987000D01*
X341096623Y-141487000D01*
X341100466Y-141447982D01*
X341111847Y-141410463D01*
X341130329Y-141375886D01*
X341155202Y-141345579D01*
X341185509Y-141320706D01*
X341220086Y-141302224D01*
X341257605Y-141290843D01*
X341296623Y-141287000D01*
X342446623Y-141287000D01*
X342485641Y-141290843D01*
X342523160Y-141302224D01*
X342557737Y-141320706D01*
X342588044Y-141345579D01*
X342612917Y-141375886D01*
X342631399Y-141410463D01*
X342642780Y-141447982D01*
X342646623Y-141487000D01*
X342642780Y-141526018D01*
X342631399Y-141563537D01*
X342613033Y-141597940D01*
X342186993Y-142237000D01*
X342613033Y-142876060D01*
X342631479Y-142910657D01*
X342642821Y-142948187D01*
X342646623Y-142987209D01*
X342642739Y-143026223D01*
X342631319Y-143063730D01*
X342612801Y-143098288D01*
X342587896Y-143128569D01*
X342557563Y-143153410D01*
X342522966Y-143171856D01*
X342485436Y-143183198D01*
X342446623Y-143187000D01*
X341296623Y-143187000D01*
X341257605Y-143183157D01*
X341257605Y-143183157D01*
G37*
D12*
X59188335Y-149237000D03*
X59188335Y-147237000D03*
X342520575Y-151237000D03*
X342520575Y-149237000D03*
X342520575Y-147237000D03*
X342520575Y-145237000D03*
X63355001Y-151270334D03*
X63355001Y-149270334D03*
X63355001Y-147270334D03*
X63355001Y-145270334D03*
X346687225Y-149237000D03*
X346687225Y-147237000D03*
M02*
