G04 #@! TF.GenerationSoftware,KiCad,Pcbnew,(5.1.0-0)*
G04 #@! TF.CreationDate,2019-04-21T18:59:04-07:00*
G04 #@! TF.ProjectId,EInside,45496e73-6964-4652-9e6b-696361645f70,rev?*
G04 #@! TF.SameCoordinates,Original*
G04 #@! TF.FileFunction,Profile,NP*
%FSLAX46Y46*%
G04 Gerber Fmt 4.6, Leading zero omitted, Abs format (unit mm)*
G04 Created by KiCad (PCBNEW (5.1.0-0)) date 2019-04-21 18:59:04*
%MOMM*%
%LPD*%
G04 APERTURE LIST*
%ADD10C,0.100000*%
G04 APERTURE END LIST*
D10*
X329463800Y-148209000D02*
G75*
G03X329463800Y-148209000I-1473200J0D01*
G01*
X312797140Y-148209000D02*
G75*
G03X312797140Y-148209000I-1473200J0D01*
G01*
X279463820Y-148209000D02*
G75*
G03X279463820Y-148209000I-1473200J0D01*
G01*
X296130480Y-148209000D02*
G75*
G03X296130480Y-148209000I-1473200J0D01*
G01*
X262797160Y-148209000D02*
G75*
G03X262797160Y-148209000I-1473200J0D01*
G01*
X229463840Y-148209000D02*
G75*
G03X229463840Y-148209000I-1473200J0D01*
G01*
X246130500Y-148209000D02*
G75*
G03X246130500Y-148209000I-1473200J0D01*
G01*
X212797180Y-148209000D02*
G75*
G03X212797180Y-148209000I-1473200J0D01*
G01*
X179463860Y-148209000D02*
G75*
G03X179463860Y-148209000I-1473200J0D01*
G01*
X196130520Y-148209000D02*
G75*
G03X196130520Y-148209000I-1473200J0D01*
G01*
X162797200Y-148209000D02*
G75*
G03X162797200Y-148209000I-1473200J0D01*
G01*
X129463880Y-148209000D02*
G75*
G03X129463880Y-148209000I-1473200J0D01*
G01*
X146130540Y-148209000D02*
G75*
G03X146130540Y-148209000I-1473200J0D01*
G01*
X112797220Y-148209000D02*
G75*
G03X112797220Y-148209000I-1473200J0D01*
G01*
X96130560Y-148209000D02*
G75*
G03X96130560Y-148209000I-1473200J0D01*
G01*
X79463900Y-148209000D02*
G75*
G03X79463900Y-148209000I-1473200J0D01*
G01*
X350796006Y-157235379D02*
X347796006Y-157235379D01*
X351491013Y-157125379D02*
X350796006Y-157235379D01*
X352117020Y-156806081D02*
X351491013Y-157125379D01*
X352613999Y-156308774D02*
X352117020Y-156806081D01*
X352934006Y-155682080D02*
X352613999Y-156308774D01*
X353044022Y-154987477D02*
X352934006Y-155682080D01*
X352934006Y-154292874D02*
X353044022Y-154987477D01*
X352613999Y-153666180D02*
X352934006Y-154292874D01*
X352117020Y-153168874D02*
X352613999Y-153666180D01*
X351491013Y-152849576D02*
X352117020Y-153168874D01*
X350796006Y-152739575D02*
X351491013Y-152849576D01*
X347796006Y-152739575D02*
X350796006Y-152739575D01*
X347100998Y-152849576D02*
X347796006Y-152739575D01*
X346475022Y-153168874D02*
X347100998Y-152849576D01*
X345977005Y-153666180D02*
X346475022Y-153168874D01*
X345658005Y-154292874D02*
X345977005Y-153666180D01*
X345548020Y-154987477D02*
X345658005Y-154292874D01*
X345658005Y-155682080D02*
X345548020Y-154987477D01*
X345977005Y-156308774D02*
X345658005Y-155682080D01*
X346475022Y-156806081D02*
X345977005Y-156308774D01*
X347100998Y-157125379D02*
X346475022Y-156806081D01*
X347796006Y-157235379D02*
X347100998Y-157125379D01*
X58081001Y-157235379D02*
X55081001Y-157235379D01*
X58775600Y-157125379D02*
X58081001Y-157235379D01*
X59402302Y-156806081D02*
X58775600Y-157125379D01*
X59899601Y-156308774D02*
X59402302Y-156806081D01*
X60218901Y-155682080D02*
X59899601Y-156308774D01*
X60328901Y-154987477D02*
X60218901Y-155682080D01*
X60218901Y-154292874D02*
X60328901Y-154987477D01*
X59899601Y-153666180D02*
X60218901Y-154292874D01*
X59402302Y-153168874D02*
X59899601Y-153666180D01*
X58775600Y-152849576D02*
X59402302Y-153168874D01*
X58081001Y-152739575D02*
X58775600Y-152849576D01*
X55081001Y-152739575D02*
X58081001Y-152739575D01*
X54386402Y-152849576D02*
X55081001Y-152739575D01*
X53759700Y-153168874D02*
X54386402Y-152849576D01*
X53262401Y-153666180D02*
X53759700Y-153168874D01*
X52943102Y-154292874D02*
X53262401Y-153666180D01*
X52833101Y-154987477D02*
X52943102Y-154292874D01*
X52943102Y-155682080D02*
X52833101Y-154987477D01*
X53262401Y-156308774D02*
X52943102Y-155682080D01*
X53759700Y-156806081D02*
X53262401Y-156308774D01*
X54386402Y-157125379D02*
X53759700Y-156806081D01*
X55081001Y-157235379D02*
X54386402Y-157125379D01*
X350796006Y-143735379D02*
X347796006Y-143735379D01*
X351491013Y-143625378D02*
X350796006Y-143735379D01*
X352117020Y-143306080D02*
X351491013Y-143625378D01*
X352613999Y-142808774D02*
X352117020Y-143306080D01*
X352934006Y-142182080D02*
X352613999Y-142808774D01*
X353044022Y-141487477D02*
X352934006Y-142182080D01*
X352934006Y-140792874D02*
X353044022Y-141487477D01*
X352613999Y-140166180D02*
X352934006Y-140792874D01*
X352117020Y-139668873D02*
X352613999Y-140166180D01*
X351491013Y-139349575D02*
X352117020Y-139668873D01*
X350796006Y-139239575D02*
X351491013Y-139349575D01*
X347796006Y-139239575D02*
X350796006Y-139239575D01*
X347100998Y-139349575D02*
X347796006Y-139239575D01*
X346475022Y-139668873D02*
X347100998Y-139349575D01*
X345977005Y-140166180D02*
X346475022Y-139668873D01*
X345658005Y-140792874D02*
X345977005Y-140166180D01*
X345548020Y-141487477D02*
X345658005Y-140792874D01*
X345658005Y-142182080D02*
X345548020Y-141487477D01*
X345977005Y-142808774D02*
X345658005Y-142182080D01*
X346475022Y-143306080D02*
X345977005Y-142808774D01*
X347100998Y-143625378D02*
X346475022Y-143306080D01*
X347796006Y-143735379D02*
X347100998Y-143625378D01*
X58081001Y-143735379D02*
X55081001Y-143735379D01*
X58775600Y-143625378D02*
X58081001Y-143735379D01*
X59402302Y-143306080D02*
X58775600Y-143625378D01*
X59899601Y-142808774D02*
X59402302Y-143306080D01*
X60218901Y-142182080D02*
X59899601Y-142808774D01*
X60328901Y-141487477D02*
X60218901Y-142182080D01*
X60218901Y-140792874D02*
X60328901Y-141487477D01*
X59899601Y-140166180D02*
X60218901Y-140792874D01*
X59402302Y-139668873D02*
X59899601Y-140166180D01*
X58775600Y-139349575D02*
X59402302Y-139668873D01*
X58081001Y-139239575D02*
X58775600Y-139349575D01*
X55081001Y-139239575D02*
X58081001Y-139239575D01*
X54386402Y-139349575D02*
X55081001Y-139239575D01*
X53759700Y-139668873D02*
X54386402Y-139349575D01*
X53262401Y-140166180D02*
X53759700Y-139668873D01*
X52943102Y-140792874D02*
X53262401Y-140166180D01*
X52833101Y-141487477D02*
X52943102Y-140792874D01*
X52943102Y-142182080D02*
X52833101Y-141487477D01*
X53262401Y-142808774D02*
X52943102Y-142182080D01*
X53759700Y-143306080D02*
X53262401Y-142808774D01*
X54386402Y-143625378D02*
X53759700Y-143306080D01*
X55081001Y-143735379D02*
X54386402Y-143625378D01*
X356698005Y-140119479D02*
X356414021Y-139561869D01*
X354796011Y-138737479D02*
X354482012Y-138737479D01*
X355414018Y-138835384D02*
X354796011Y-138737479D01*
X355971025Y-139119476D02*
X355414018Y-138835384D01*
X346074019Y-137525064D02*
X345379014Y-137635070D01*
X352518027Y-137525064D02*
X346074019Y-137525064D01*
X353212989Y-137635070D02*
X352518027Y-137525064D01*
X353839006Y-137954387D02*
X353212989Y-137635070D01*
X354336004Y-138451687D02*
X353839006Y-137954387D01*
X354482012Y-138737479D02*
X354336004Y-138451687D01*
X61621593Y-138451687D02*
X61124294Y-137954387D01*
X61767191Y-138737479D02*
X61621593Y-138451687D01*
X344109992Y-138737479D02*
X61767191Y-138737479D01*
X344255030Y-138451687D02*
X344109992Y-138737479D01*
X344752997Y-137954387D02*
X344255030Y-138451687D01*
X345379014Y-137635070D02*
X344752997Y-137954387D01*
X51394806Y-138737479D02*
X51081000Y-138737479D01*
X51540404Y-138451687D02*
X51394806Y-138737479D01*
X52037703Y-137954387D02*
X51540404Y-138451687D01*
X52664302Y-137635070D02*
X52037703Y-137954387D01*
X53359005Y-137525064D02*
X52664302Y-137635070D01*
X59802992Y-137525064D02*
X53359005Y-137525064D01*
X60497609Y-137635070D02*
X59802992Y-137525064D01*
X61124294Y-137954387D02*
X60497609Y-137635070D01*
X49080993Y-140737486D02*
X49080993Y-155737475D01*
X49178899Y-140119479D02*
X49080993Y-140737486D01*
X49463011Y-139561869D02*
X49178899Y-140119479D01*
X49905405Y-139119476D02*
X49463011Y-139561869D01*
X50462993Y-138835384D02*
X49905405Y-139119476D01*
X51081000Y-138737479D02*
X50462993Y-138835384D01*
X344255030Y-158023274D02*
X344752997Y-158520574D01*
X344109992Y-157737482D02*
X344255030Y-158023274D01*
X61767191Y-157737482D02*
X344109992Y-157737482D01*
X61621593Y-158023274D02*
X61767191Y-157737482D01*
X61124294Y-158520574D02*
X61621593Y-158023274D01*
X60497609Y-158839870D02*
X61124294Y-158520574D01*
X59802992Y-158949876D02*
X60497609Y-158839870D01*
X53359005Y-158949876D02*
X59802992Y-158949876D01*
X52664302Y-158839870D02*
X53359005Y-158949876D01*
X52037703Y-158520574D02*
X52664302Y-158839870D01*
X51540404Y-158023274D02*
X52037703Y-158520574D01*
X51394806Y-157737482D02*
X51540404Y-158023274D01*
X51081000Y-157737482D02*
X51394806Y-157737482D01*
X50462993Y-157639577D02*
X51081000Y-157737482D01*
X49905405Y-157355464D02*
X50462993Y-157639577D01*
X49463011Y-156913071D02*
X49905405Y-157355464D01*
X49178899Y-156355482D02*
X49463011Y-156913071D01*
X49080993Y-155737475D02*
X49178899Y-156355482D01*
X354482012Y-157737482D02*
X354796011Y-157737482D01*
X354336004Y-158023274D02*
X354482012Y-157737482D01*
X353839006Y-158520574D02*
X354336004Y-158023274D01*
X353212989Y-158839870D02*
X353839006Y-158520574D01*
X352518027Y-158949876D02*
X353212989Y-158839870D01*
X346074019Y-158949876D02*
X352518027Y-158949876D01*
X345379014Y-158839870D02*
X346074019Y-158949876D01*
X344752997Y-158520574D02*
X345379014Y-158839870D01*
X356795996Y-140737486D02*
X356698005Y-140119479D01*
X356795996Y-155737475D02*
X356795996Y-140737486D01*
X356698005Y-156355482D02*
X356795996Y-155737475D01*
X356414021Y-156913071D02*
X356698005Y-156355482D01*
X355971025Y-157355464D02*
X356414021Y-156913071D01*
X355414018Y-157639577D02*
X355971025Y-157355464D01*
X354796011Y-157737482D02*
X355414018Y-157639577D01*
X356414021Y-139561869D02*
X355971025Y-139119476D01*
M02*
