G04 #@! TF.GenerationSoftware,KiCad,Pcbnew,(5.1.0-0)*
G04 #@! TF.CreationDate,2019-04-21T18:59:04-07:00*
G04 #@! TF.ProjectId,EInside,45496e73-6964-4652-9e6b-696361645f70,rev?*
G04 #@! TF.SameCoordinates,Original*
G04 #@! TF.FileFunction,Legend,Top*
G04 #@! TF.FilePolarity,Positive*
%FSLAX46Y46*%
G04 Gerber Fmt 4.6, Leading zero omitted, Abs format (unit mm)*
G04 Created by KiCad (PCBNEW (5.1.0-0)) date 2019-04-21 18:59:04*
%MOMM*%
%LPD*%
G04 APERTURE LIST*
%ADD10C,0.200000*%
%ADD11C,0.150000*%
%ADD12C,0.500000*%
%ADD13C,0.300000*%
%ADD14C,0.010000*%
%ADD15C,0.120000*%
G04 APERTURE END LIST*
D10*
X342307337Y-142415571D02*
X341593051Y-142415571D01*
X341521623Y-143129857D01*
X341593051Y-143058428D01*
X341735908Y-142987000D01*
X342093051Y-142987000D01*
X342235908Y-143058428D01*
X342307337Y-143129857D01*
X342378765Y-143272714D01*
X342378765Y-143629857D01*
X342307337Y-143772714D01*
X342235908Y-143844142D01*
X342093051Y-143915571D01*
X341735908Y-143915571D01*
X341593051Y-143844142D01*
X341521623Y-143772714D01*
X342878765Y-142915571D02*
X343235908Y-143915571D01*
X343593051Y-142915571D01*
X341378764Y-153237000D02*
X341235907Y-153165571D01*
X341021622Y-153165571D01*
X340807336Y-153237000D01*
X340664479Y-153379857D01*
X340593050Y-153522714D01*
X340521622Y-153808428D01*
X340521622Y-154022714D01*
X340593050Y-154308428D01*
X340664479Y-154451285D01*
X340807336Y-154594142D01*
X341021622Y-154665571D01*
X341164479Y-154665571D01*
X341378764Y-154594142D01*
X341450193Y-154522714D01*
X341450193Y-154022714D01*
X341164479Y-154022714D01*
X342093050Y-154665571D02*
X342093050Y-153165571D01*
X342950193Y-154665571D01*
X342950193Y-153165571D01*
X343664479Y-154665571D02*
X343664479Y-153165571D01*
X344021622Y-153165571D01*
X344235907Y-153237000D01*
X344378764Y-153379857D01*
X344450193Y-153522714D01*
X344521622Y-153808428D01*
X344521622Y-154022714D01*
X344450193Y-154308428D01*
X344378764Y-154451285D01*
X344235907Y-154594142D01*
X344021622Y-154665571D01*
X343664479Y-154665571D01*
X63140715Y-142415571D02*
X62426429Y-142415571D01*
X62355001Y-143129857D01*
X62426429Y-143058428D01*
X62569286Y-142987000D01*
X62926429Y-142987000D01*
X63069286Y-143058428D01*
X63140715Y-143129857D01*
X63212143Y-143272714D01*
X63212143Y-143629857D01*
X63140715Y-143772714D01*
X63069286Y-143844142D01*
X62926429Y-143915571D01*
X62569286Y-143915571D01*
X62426429Y-143844142D01*
X62355001Y-143772714D01*
X63712143Y-142915571D02*
X64069286Y-143915571D01*
X64426429Y-142915571D01*
D11*
X57205000Y-150737000D02*
X57505000Y-151037000D01*
X57205000Y-151737000D02*
X57205000Y-150737000D01*
X57205000Y-150737000D02*
X56905000Y-151037000D01*
X61005000Y-151737000D02*
X61005000Y-150737000D01*
X61005000Y-150737000D02*
X61305000Y-151037000D01*
X61005000Y-150737000D02*
X60705000Y-151037000D01*
D10*
X62212142Y-153237000D02*
X62069285Y-153165571D01*
X61855000Y-153165571D01*
X61640714Y-153237000D01*
X61497857Y-153379857D01*
X61426428Y-153522714D01*
X61355000Y-153808428D01*
X61355000Y-154022714D01*
X61426428Y-154308428D01*
X61497857Y-154451285D01*
X61640714Y-154594142D01*
X61855000Y-154665571D01*
X61997857Y-154665571D01*
X62212142Y-154594142D01*
X62283571Y-154522714D01*
X62283571Y-154022714D01*
X61997857Y-154022714D01*
X62926428Y-154665571D02*
X62926428Y-153165571D01*
X63783571Y-154665571D01*
X63783571Y-153165571D01*
X64497857Y-154665571D02*
X64497857Y-153165571D01*
X64855000Y-153165571D01*
X65069285Y-153237000D01*
X65212142Y-153379857D01*
X65283571Y-153522714D01*
X65355000Y-153808428D01*
X65355000Y-154022714D01*
X65283571Y-154308428D01*
X65212142Y-154451285D01*
X65069285Y-154594142D01*
X64855000Y-154665571D01*
X64497857Y-154665571D01*
D11*
X57105000Y-146237000D02*
X57105000Y-150237000D01*
X57105000Y-150237000D02*
X61105000Y-150237000D01*
X61105000Y-146237000D02*
X57105000Y-146237000D01*
X61105000Y-150237000D02*
X61105000Y-146237000D01*
X58188289Y-150689380D02*
X58378765Y-150689380D01*
X58474003Y-150737000D01*
X58569241Y-150832238D01*
X58616860Y-151022714D01*
X58616860Y-151356047D01*
X58569241Y-151546523D01*
X58474003Y-151641761D01*
X58378765Y-151689380D01*
X58188289Y-151689380D01*
X58093050Y-151641761D01*
X57997812Y-151546523D01*
X57950193Y-151356047D01*
X57950193Y-151022714D01*
X57997812Y-150832238D01*
X58093050Y-150737000D01*
X58188289Y-150689380D01*
X59045431Y-150689380D02*
X59045431Y-151498904D01*
X59093050Y-151594142D01*
X59140669Y-151641761D01*
X59235908Y-151689380D01*
X59426384Y-151689380D01*
X59521622Y-151641761D01*
X59569241Y-151594142D01*
X59616860Y-151498904D01*
X59616860Y-150689380D01*
X59950193Y-150689380D02*
X60521622Y-150689380D01*
X60235908Y-151689380D02*
X60235908Y-150689380D01*
X54633571Y-147689380D02*
X54633571Y-146689380D01*
X54871666Y-146689380D01*
X55014523Y-146737000D01*
X55109761Y-146832238D01*
X55157380Y-146927476D01*
X55205000Y-147117952D01*
X55205000Y-147260809D01*
X55157380Y-147451285D01*
X55109761Y-147546523D01*
X55014523Y-147641761D01*
X54871666Y-147689380D01*
X54633571Y-147689380D01*
X55585952Y-147403666D02*
X56062142Y-147403666D01*
X55490714Y-147689380D02*
X55824047Y-146689380D01*
X56157380Y-147689380D01*
X56347857Y-146689380D02*
X56919285Y-146689380D01*
X56633571Y-147689380D02*
X56633571Y-146689380D01*
X55585952Y-149265571D02*
X55728809Y-149313190D01*
X55776428Y-149360809D01*
X55824047Y-149456047D01*
X55824047Y-149598904D01*
X55776428Y-149694142D01*
X55728809Y-149741761D01*
X55633571Y-149789380D01*
X55252619Y-149789380D01*
X55252619Y-148789380D01*
X55585952Y-148789380D01*
X55681190Y-148837000D01*
X55728809Y-148884619D01*
X55776428Y-148979857D01*
X55776428Y-149075095D01*
X55728809Y-149170333D01*
X55681190Y-149217952D01*
X55585952Y-149265571D01*
X55252619Y-149265571D01*
X56252619Y-149789380D02*
X56252619Y-148789380D01*
X56824047Y-149789380D02*
X56395476Y-149217952D01*
X56824047Y-148789380D02*
X56252619Y-149360809D01*
D12*
X192605000Y-141237000D02*
X197605000Y-141237000D01*
X195605000Y-142237000D02*
X197605000Y-141237000D01*
X195605000Y-140237000D02*
X197605000Y-141237000D01*
X192605000Y-155237000D02*
X197605000Y-155237000D01*
X195605000Y-156237000D02*
X197605000Y-155237000D01*
X195605000Y-154237000D02*
X197605000Y-155237000D01*
X350605000Y-148237000D02*
X355605000Y-148237000D01*
X353605000Y-149237000D02*
X355605000Y-148237000D01*
X353605000Y-147237000D02*
X355605000Y-148237000D01*
X52405000Y-149237000D02*
X54405000Y-148237000D01*
X52405000Y-147237000D02*
X54405000Y-148237000D01*
X49405000Y-148237000D02*
X54405000Y-148237000D01*
D11*
X348305000Y-150737000D02*
X348005000Y-151037000D01*
X348305000Y-151737000D02*
X348305000Y-150737000D01*
X348305000Y-150737000D02*
X348605000Y-151037000D01*
X345405000Y-150737000D02*
X345705000Y-151037000D01*
X345405000Y-150737000D02*
X345105000Y-151037000D01*
X345405000Y-151737000D02*
X345405000Y-150737000D01*
X348805000Y-150237000D02*
X348805000Y-146237000D01*
X348805000Y-146237000D02*
X344805000Y-146237000D01*
X344805000Y-150237000D02*
X348805000Y-150237000D01*
X344805000Y-146237000D02*
X344805000Y-150237000D01*
D13*
X353963142Y-141448714D02*
X354963142Y-141448714D01*
X355391714Y-143020142D02*
X353963142Y-143020142D01*
X353963142Y-140020142D01*
X355391714Y-140020142D01*
D11*
X346364479Y-151689380D02*
X346364479Y-150689380D01*
X346840669Y-151689380D02*
X346840669Y-150689380D01*
X347412098Y-151689380D01*
X347412098Y-150689380D01*
X349576428Y-149265571D02*
X349719285Y-149313190D01*
X349766904Y-149360809D01*
X349814523Y-149456047D01*
X349814523Y-149598904D01*
X349766904Y-149694142D01*
X349719285Y-149741761D01*
X349624047Y-149789380D01*
X349243095Y-149789380D01*
X349243095Y-148789380D01*
X349576428Y-148789380D01*
X349671666Y-148837000D01*
X349719285Y-148884619D01*
X349766904Y-148979857D01*
X349766904Y-149075095D01*
X349719285Y-149170333D01*
X349671666Y-149217952D01*
X349576428Y-149265571D01*
X349243095Y-149265571D01*
X350243095Y-149789380D02*
X350243095Y-148789380D01*
X350814523Y-149789380D02*
X350385952Y-149217952D01*
X350814523Y-148789380D02*
X350243095Y-149360809D01*
X349233571Y-147689380D02*
X349233571Y-146689380D01*
X349471666Y-146689380D01*
X349614523Y-146737000D01*
X349709761Y-146832238D01*
X349757380Y-146927476D01*
X349805000Y-147117952D01*
X349805000Y-147260809D01*
X349757380Y-147451285D01*
X349709761Y-147546523D01*
X349614523Y-147641761D01*
X349471666Y-147689380D01*
X349233571Y-147689380D01*
X350185952Y-147403666D02*
X350662142Y-147403666D01*
X350090714Y-147689380D02*
X350424047Y-146689380D01*
X350757380Y-147689380D01*
X350947857Y-146689380D02*
X351519285Y-146689380D01*
X351233571Y-147689380D02*
X351233571Y-146689380D01*
D13*
X50316142Y-141371714D02*
X51316142Y-141371714D01*
X51744714Y-142943142D02*
X50316142Y-142943142D01*
X50316142Y-139943142D01*
X51744714Y-139943142D01*
D14*
X67105103Y-148237477D02*
X72105103Y-148237477D01*
X69605103Y-145737477D02*
X69605103Y-150737477D01*
X72105103Y-145737477D02*
X72105103Y-150737477D01*
X67105103Y-145737477D02*
X72105103Y-145737477D01*
X67105103Y-150737477D02*
X67105103Y-145737477D01*
X72105103Y-150737477D02*
X67105103Y-150737477D01*
D15*
X334025448Y-143747000D02*
X334351006Y-143747000D01*
X334025448Y-142727000D02*
X334351006Y-142727000D01*
X317358788Y-143747000D02*
X317684346Y-143747000D01*
X317358788Y-142727000D02*
X317684346Y-142727000D01*
X300692128Y-143747000D02*
X301017686Y-143747000D01*
X300692128Y-142727000D02*
X301017686Y-142727000D01*
X284025468Y-143747000D02*
X284351026Y-143747000D01*
X284025468Y-142727000D02*
X284351026Y-142727000D01*
X267358808Y-143747000D02*
X267684366Y-143747000D01*
X267358808Y-142727000D02*
X267684366Y-142727000D01*
X67358888Y-143747000D02*
X67684446Y-143747000D01*
X67358888Y-142727000D02*
X67684446Y-142727000D01*
X339921560Y-150987000D02*
X332621560Y-150987000D01*
X339921560Y-149837000D02*
X339921560Y-150987000D01*
X339921560Y-145487000D02*
X332621560Y-145487000D01*
X323254900Y-150987000D02*
X315954900Y-150987000D01*
X323254900Y-149837000D02*
X323254900Y-150987000D01*
X323254900Y-145487000D02*
X315954900Y-145487000D01*
X306588240Y-150987000D02*
X299288240Y-150987000D01*
X306588240Y-149837000D02*
X306588240Y-150987000D01*
X306588240Y-145487000D02*
X299288240Y-145487000D01*
X289921580Y-150987000D02*
X282621580Y-150987000D01*
X289921580Y-149837000D02*
X289921580Y-150987000D01*
X289921580Y-145487000D02*
X282621580Y-145487000D01*
X273254920Y-150987000D02*
X265954920Y-150987000D01*
X273254920Y-149837000D02*
X273254920Y-150987000D01*
X273254920Y-145487000D02*
X265954920Y-145487000D01*
X73255000Y-150987000D02*
X65955000Y-150987000D01*
X73255000Y-149837000D02*
X73255000Y-150987000D01*
X73255000Y-145487000D02*
X65955000Y-145487000D01*
X338192114Y-143747000D02*
X338517672Y-143747000D01*
X338192114Y-142727000D02*
X338517672Y-142727000D01*
X321525454Y-143747000D02*
X321851012Y-143747000D01*
X321525454Y-142727000D02*
X321851012Y-142727000D01*
X304858794Y-143747000D02*
X305184352Y-143747000D01*
X304858794Y-142727000D02*
X305184352Y-142727000D01*
X288192134Y-143747000D02*
X288517692Y-143747000D01*
X288192134Y-142727000D02*
X288517692Y-142727000D01*
X271525474Y-143747000D02*
X271851032Y-143747000D01*
X271525474Y-142727000D02*
X271851032Y-142727000D01*
X71525554Y-143747000D02*
X71851112Y-143747000D01*
X71525554Y-142727000D02*
X71851112Y-142727000D01*
X250692148Y-143747000D02*
X251017706Y-143747000D01*
X250692148Y-142727000D02*
X251017706Y-142727000D01*
X234025488Y-143747000D02*
X234351046Y-143747000D01*
X234025488Y-142727000D02*
X234351046Y-142727000D01*
X217358828Y-143747000D02*
X217684386Y-143747000D01*
X217358828Y-142727000D02*
X217684386Y-142727000D01*
X200692168Y-143747000D02*
X201017726Y-143747000D01*
X200692168Y-142727000D02*
X201017726Y-142727000D01*
X184025508Y-143747000D02*
X184351066Y-143747000D01*
X184025508Y-142727000D02*
X184351066Y-142727000D01*
X167358848Y-143747000D02*
X167684406Y-143747000D01*
X167358848Y-142727000D02*
X167684406Y-142727000D01*
X150692188Y-143747000D02*
X151017746Y-143747000D01*
X150692188Y-142727000D02*
X151017746Y-142727000D01*
X134025528Y-143747000D02*
X134351086Y-143747000D01*
X134025528Y-142727000D02*
X134351086Y-142727000D01*
X117358868Y-143747000D02*
X117684426Y-143747000D01*
X117358868Y-142727000D02*
X117684426Y-142727000D01*
X100692208Y-143747000D02*
X101017766Y-143747000D01*
X100692208Y-142727000D02*
X101017766Y-142727000D01*
X84025548Y-143747000D02*
X84351106Y-143747000D01*
X84025548Y-142727000D02*
X84351106Y-142727000D01*
X256588260Y-150987000D02*
X249288260Y-150987000D01*
X256588260Y-149837000D02*
X256588260Y-150987000D01*
X256588260Y-145487000D02*
X249288260Y-145487000D01*
X239921600Y-150987000D02*
X232621600Y-150987000D01*
X239921600Y-149837000D02*
X239921600Y-150987000D01*
X239921600Y-145487000D02*
X232621600Y-145487000D01*
X223254940Y-150987000D02*
X215954940Y-150987000D01*
X223254940Y-149837000D02*
X223254940Y-150987000D01*
X223254940Y-145487000D02*
X215954940Y-145487000D01*
X206588280Y-150987000D02*
X199288280Y-150987000D01*
X206588280Y-149837000D02*
X206588280Y-150987000D01*
X206588280Y-145487000D02*
X199288280Y-145487000D01*
X189921620Y-150987000D02*
X182621620Y-150987000D01*
X189921620Y-149837000D02*
X189921620Y-150987000D01*
X189921620Y-145487000D02*
X182621620Y-145487000D01*
X173254960Y-150987000D02*
X165954960Y-150987000D01*
X173254960Y-149837000D02*
X173254960Y-150987000D01*
X173254960Y-145487000D02*
X165954960Y-145487000D01*
X156588300Y-150987000D02*
X149288300Y-150987000D01*
X156588300Y-149837000D02*
X156588300Y-150987000D01*
X156588300Y-145487000D02*
X149288300Y-145487000D01*
X139921640Y-150987000D02*
X132621640Y-150987000D01*
X139921640Y-149837000D02*
X139921640Y-150987000D01*
X139921640Y-145487000D02*
X132621640Y-145487000D01*
X123254980Y-150987000D02*
X115954980Y-150987000D01*
X123254980Y-149837000D02*
X123254980Y-150987000D01*
X123254980Y-145487000D02*
X115954980Y-145487000D01*
X106588320Y-150987000D02*
X99288320Y-150987000D01*
X106588320Y-149837000D02*
X106588320Y-150987000D01*
X106588320Y-145487000D02*
X99288320Y-145487000D01*
X89921660Y-150987000D02*
X82621660Y-150987000D01*
X89921660Y-149837000D02*
X89921660Y-150987000D01*
X89921660Y-145487000D02*
X82621660Y-145487000D01*
X254858814Y-143747000D02*
X255184372Y-143747000D01*
X254858814Y-142727000D02*
X255184372Y-142727000D01*
X238192154Y-143747000D02*
X238517712Y-143747000D01*
X238192154Y-142727000D02*
X238517712Y-142727000D01*
X221525494Y-143747000D02*
X221851052Y-143747000D01*
X221525494Y-142727000D02*
X221851052Y-142727000D01*
X204858834Y-143747000D02*
X205184392Y-143747000D01*
X204858834Y-142727000D02*
X205184392Y-142727000D01*
X188192174Y-143747000D02*
X188517732Y-143747000D01*
X188192174Y-142727000D02*
X188517732Y-142727000D01*
X171525514Y-143747000D02*
X171851072Y-143747000D01*
X171525514Y-142727000D02*
X171851072Y-142727000D01*
X154858854Y-143747000D02*
X155184412Y-143747000D01*
X154858854Y-142727000D02*
X155184412Y-142727000D01*
X138192194Y-143747000D02*
X138517752Y-143747000D01*
X138192194Y-142727000D02*
X138517752Y-142727000D01*
X121525534Y-143747000D02*
X121851092Y-143747000D01*
X121525534Y-142727000D02*
X121851092Y-142727000D01*
X104858874Y-143747000D02*
X105184432Y-143747000D01*
X104858874Y-142727000D02*
X105184432Y-142727000D01*
X88192214Y-143747000D02*
X88517772Y-143747000D01*
X88192214Y-142727000D02*
X88517772Y-142727000D01*
D11*
X333545369Y-142259380D02*
X333212036Y-141783190D01*
X332973941Y-142259380D02*
X332973941Y-141259380D01*
X333354893Y-141259380D01*
X333450131Y-141307000D01*
X333497750Y-141354619D01*
X333545369Y-141449857D01*
X333545369Y-141592714D01*
X333497750Y-141687952D01*
X333450131Y-141735571D01*
X333354893Y-141783190D01*
X332973941Y-141783190D01*
X334497750Y-142259380D02*
X333926322Y-142259380D01*
X334212036Y-142259380D02*
X334212036Y-141259380D01*
X334116798Y-141402238D01*
X334021560Y-141497476D01*
X333926322Y-141545095D01*
X334831084Y-141259380D02*
X335497750Y-141259380D01*
X335069179Y-142259380D01*
X316878709Y-142259380D02*
X316545376Y-141783190D01*
X316307281Y-142259380D02*
X316307281Y-141259380D01*
X316688233Y-141259380D01*
X316783471Y-141307000D01*
X316831090Y-141354619D01*
X316878709Y-141449857D01*
X316878709Y-141592714D01*
X316831090Y-141687952D01*
X316783471Y-141735571D01*
X316688233Y-141783190D01*
X316307281Y-141783190D01*
X317831090Y-142259380D02*
X317259662Y-142259380D01*
X317545376Y-142259380D02*
X317545376Y-141259380D01*
X317450138Y-141402238D01*
X317354900Y-141497476D01*
X317259662Y-141545095D01*
X318688233Y-141259380D02*
X318497757Y-141259380D01*
X318402519Y-141307000D01*
X318354900Y-141354619D01*
X318259662Y-141497476D01*
X318212043Y-141687952D01*
X318212043Y-142068904D01*
X318259662Y-142164142D01*
X318307281Y-142211761D01*
X318402519Y-142259380D01*
X318592995Y-142259380D01*
X318688233Y-142211761D01*
X318735852Y-142164142D01*
X318783471Y-142068904D01*
X318783471Y-141830809D01*
X318735852Y-141735571D01*
X318688233Y-141687952D01*
X318592995Y-141640333D01*
X318402519Y-141640333D01*
X318307281Y-141687952D01*
X318259662Y-141735571D01*
X318212043Y-141830809D01*
X300212049Y-142259380D02*
X299878716Y-141783190D01*
X299640621Y-142259380D02*
X299640621Y-141259380D01*
X300021573Y-141259380D01*
X300116811Y-141307000D01*
X300164430Y-141354619D01*
X300212049Y-141449857D01*
X300212049Y-141592714D01*
X300164430Y-141687952D01*
X300116811Y-141735571D01*
X300021573Y-141783190D01*
X299640621Y-141783190D01*
X301164430Y-142259380D02*
X300593002Y-142259380D01*
X300878716Y-142259380D02*
X300878716Y-141259380D01*
X300783478Y-141402238D01*
X300688240Y-141497476D01*
X300593002Y-141545095D01*
X302069192Y-141259380D02*
X301593002Y-141259380D01*
X301545383Y-141735571D01*
X301593002Y-141687952D01*
X301688240Y-141640333D01*
X301926335Y-141640333D01*
X302021573Y-141687952D01*
X302069192Y-141735571D01*
X302116811Y-141830809D01*
X302116811Y-142068904D01*
X302069192Y-142164142D01*
X302021573Y-142211761D01*
X301926335Y-142259380D01*
X301688240Y-142259380D01*
X301593002Y-142211761D01*
X301545383Y-142164142D01*
X283545389Y-142259380D02*
X283212056Y-141783190D01*
X282973961Y-142259380D02*
X282973961Y-141259380D01*
X283354913Y-141259380D01*
X283450151Y-141307000D01*
X283497770Y-141354619D01*
X283545389Y-141449857D01*
X283545389Y-141592714D01*
X283497770Y-141687952D01*
X283450151Y-141735571D01*
X283354913Y-141783190D01*
X282973961Y-141783190D01*
X284497770Y-142259380D02*
X283926342Y-142259380D01*
X284212056Y-142259380D02*
X284212056Y-141259380D01*
X284116818Y-141402238D01*
X284021580Y-141497476D01*
X283926342Y-141545095D01*
X285354913Y-141592714D02*
X285354913Y-142259380D01*
X285116818Y-141211761D02*
X284878723Y-141926047D01*
X285497770Y-141926047D01*
X266878729Y-142259380D02*
X266545396Y-141783190D01*
X266307301Y-142259380D02*
X266307301Y-141259380D01*
X266688253Y-141259380D01*
X266783491Y-141307000D01*
X266831110Y-141354619D01*
X266878729Y-141449857D01*
X266878729Y-141592714D01*
X266831110Y-141687952D01*
X266783491Y-141735571D01*
X266688253Y-141783190D01*
X266307301Y-141783190D01*
X267831110Y-142259380D02*
X267259682Y-142259380D01*
X267545396Y-142259380D02*
X267545396Y-141259380D01*
X267450158Y-141402238D01*
X267354920Y-141497476D01*
X267259682Y-141545095D01*
X268164444Y-141259380D02*
X268783491Y-141259380D01*
X268450158Y-141640333D01*
X268593015Y-141640333D01*
X268688253Y-141687952D01*
X268735872Y-141735571D01*
X268783491Y-141830809D01*
X268783491Y-142068904D01*
X268735872Y-142164142D01*
X268688253Y-142211761D01*
X268593015Y-142259380D01*
X268307301Y-142259380D01*
X268212063Y-142211761D01*
X268164444Y-142164142D01*
X67355000Y-142259380D02*
X67021667Y-141783190D01*
X66783571Y-142259380D02*
X66783571Y-141259380D01*
X67164524Y-141259380D01*
X67259762Y-141307000D01*
X67307381Y-141354619D01*
X67355000Y-141449857D01*
X67355000Y-141592714D01*
X67307381Y-141687952D01*
X67259762Y-141735571D01*
X67164524Y-141783190D01*
X66783571Y-141783190D01*
X68307381Y-142259380D02*
X67735952Y-142259380D01*
X68021667Y-142259380D02*
X68021667Y-141259380D01*
X67926428Y-141402238D01*
X67831190Y-141497476D01*
X67735952Y-141545095D01*
X335057274Y-149189380D02*
X335057274Y-148189380D01*
X335295369Y-148189380D01*
X335438226Y-148237000D01*
X335533464Y-148332238D01*
X335581083Y-148427476D01*
X335628702Y-148617952D01*
X335628702Y-148760809D01*
X335581083Y-148951285D01*
X335533464Y-149046523D01*
X335438226Y-149141761D01*
X335295369Y-149189380D01*
X335057274Y-149189380D01*
X336581083Y-149189380D02*
X336009655Y-149189380D01*
X336295369Y-149189380D02*
X336295369Y-148189380D01*
X336200131Y-148332238D01*
X336104893Y-148427476D01*
X336009655Y-148475095D01*
X336914417Y-148189380D02*
X337581083Y-148189380D01*
X337152512Y-149189380D01*
X318390614Y-149189380D02*
X318390614Y-148189380D01*
X318628709Y-148189380D01*
X318771566Y-148237000D01*
X318866804Y-148332238D01*
X318914423Y-148427476D01*
X318962042Y-148617952D01*
X318962042Y-148760809D01*
X318914423Y-148951285D01*
X318866804Y-149046523D01*
X318771566Y-149141761D01*
X318628709Y-149189380D01*
X318390614Y-149189380D01*
X319914423Y-149189380D02*
X319342995Y-149189380D01*
X319628709Y-149189380D02*
X319628709Y-148189380D01*
X319533471Y-148332238D01*
X319438233Y-148427476D01*
X319342995Y-148475095D01*
X320771566Y-148189380D02*
X320581090Y-148189380D01*
X320485852Y-148237000D01*
X320438233Y-148284619D01*
X320342995Y-148427476D01*
X320295376Y-148617952D01*
X320295376Y-148998904D01*
X320342995Y-149094142D01*
X320390614Y-149141761D01*
X320485852Y-149189380D01*
X320676328Y-149189380D01*
X320771566Y-149141761D01*
X320819185Y-149094142D01*
X320866804Y-148998904D01*
X320866804Y-148760809D01*
X320819185Y-148665571D01*
X320771566Y-148617952D01*
X320676328Y-148570333D01*
X320485852Y-148570333D01*
X320390614Y-148617952D01*
X320342995Y-148665571D01*
X320295376Y-148760809D01*
X301723954Y-149189380D02*
X301723954Y-148189380D01*
X301962049Y-148189380D01*
X302104906Y-148237000D01*
X302200144Y-148332238D01*
X302247763Y-148427476D01*
X302295382Y-148617952D01*
X302295382Y-148760809D01*
X302247763Y-148951285D01*
X302200144Y-149046523D01*
X302104906Y-149141761D01*
X301962049Y-149189380D01*
X301723954Y-149189380D01*
X303247763Y-149189380D02*
X302676335Y-149189380D01*
X302962049Y-149189380D02*
X302962049Y-148189380D01*
X302866811Y-148332238D01*
X302771573Y-148427476D01*
X302676335Y-148475095D01*
X304152525Y-148189380D02*
X303676335Y-148189380D01*
X303628716Y-148665571D01*
X303676335Y-148617952D01*
X303771573Y-148570333D01*
X304009668Y-148570333D01*
X304104906Y-148617952D01*
X304152525Y-148665571D01*
X304200144Y-148760809D01*
X304200144Y-148998904D01*
X304152525Y-149094142D01*
X304104906Y-149141761D01*
X304009668Y-149189380D01*
X303771573Y-149189380D01*
X303676335Y-149141761D01*
X303628716Y-149094142D01*
X285057294Y-149189380D02*
X285057294Y-148189380D01*
X285295389Y-148189380D01*
X285438246Y-148237000D01*
X285533484Y-148332238D01*
X285581103Y-148427476D01*
X285628722Y-148617952D01*
X285628722Y-148760809D01*
X285581103Y-148951285D01*
X285533484Y-149046523D01*
X285438246Y-149141761D01*
X285295389Y-149189380D01*
X285057294Y-149189380D01*
X286581103Y-149189380D02*
X286009675Y-149189380D01*
X286295389Y-149189380D02*
X286295389Y-148189380D01*
X286200151Y-148332238D01*
X286104913Y-148427476D01*
X286009675Y-148475095D01*
X287438246Y-148522714D02*
X287438246Y-149189380D01*
X287200151Y-148141761D02*
X286962056Y-148856047D01*
X287581103Y-148856047D01*
X268390634Y-149189380D02*
X268390634Y-148189380D01*
X268628729Y-148189380D01*
X268771586Y-148237000D01*
X268866824Y-148332238D01*
X268914443Y-148427476D01*
X268962062Y-148617952D01*
X268962062Y-148760809D01*
X268914443Y-148951285D01*
X268866824Y-149046523D01*
X268771586Y-149141761D01*
X268628729Y-149189380D01*
X268390634Y-149189380D01*
X269914443Y-149189380D02*
X269343015Y-149189380D01*
X269628729Y-149189380D02*
X269628729Y-148189380D01*
X269533491Y-148332238D01*
X269438253Y-148427476D01*
X269343015Y-148475095D01*
X270247777Y-148189380D02*
X270866824Y-148189380D01*
X270533491Y-148570333D01*
X270676348Y-148570333D01*
X270771586Y-148617952D01*
X270819205Y-148665571D01*
X270866824Y-148760809D01*
X270866824Y-148998904D01*
X270819205Y-149094142D01*
X270771586Y-149141761D01*
X270676348Y-149189380D01*
X270390634Y-149189380D01*
X270295396Y-149141761D01*
X270247777Y-149094142D01*
X68866904Y-149189380D02*
X68866904Y-148189380D01*
X69105000Y-148189380D01*
X69247857Y-148237000D01*
X69343095Y-148332238D01*
X69390714Y-148427476D01*
X69438333Y-148617952D01*
X69438333Y-148760809D01*
X69390714Y-148951285D01*
X69343095Y-149046523D01*
X69247857Y-149141761D01*
X69105000Y-149189380D01*
X68866904Y-149189380D01*
X70390714Y-149189380D02*
X69819285Y-149189380D01*
X70105000Y-149189380D02*
X70105000Y-148189380D01*
X70009761Y-148332238D01*
X69914523Y-148427476D01*
X69819285Y-148475095D01*
X337712035Y-142164142D02*
X337664416Y-142211761D01*
X337521559Y-142259380D01*
X337426321Y-142259380D01*
X337283464Y-142211761D01*
X337188226Y-142116523D01*
X337140607Y-142021285D01*
X337092988Y-141830809D01*
X337092988Y-141687952D01*
X337140607Y-141497476D01*
X337188226Y-141402238D01*
X337283464Y-141307000D01*
X337426321Y-141259380D01*
X337521559Y-141259380D01*
X337664416Y-141307000D01*
X337712035Y-141354619D01*
X338664416Y-142259380D02*
X338092988Y-142259380D01*
X338378702Y-142259380D02*
X338378702Y-141259380D01*
X338283464Y-141402238D01*
X338188226Y-141497476D01*
X338092988Y-141545095D01*
X338997750Y-141259380D02*
X339664416Y-141259380D01*
X339235845Y-142259380D01*
X321045375Y-142164142D02*
X320997756Y-142211761D01*
X320854899Y-142259380D01*
X320759661Y-142259380D01*
X320616804Y-142211761D01*
X320521566Y-142116523D01*
X320473947Y-142021285D01*
X320426328Y-141830809D01*
X320426328Y-141687952D01*
X320473947Y-141497476D01*
X320521566Y-141402238D01*
X320616804Y-141307000D01*
X320759661Y-141259380D01*
X320854899Y-141259380D01*
X320997756Y-141307000D01*
X321045375Y-141354619D01*
X321997756Y-142259380D02*
X321426328Y-142259380D01*
X321712042Y-142259380D02*
X321712042Y-141259380D01*
X321616804Y-141402238D01*
X321521566Y-141497476D01*
X321426328Y-141545095D01*
X322854899Y-141259380D02*
X322664423Y-141259380D01*
X322569185Y-141307000D01*
X322521566Y-141354619D01*
X322426328Y-141497476D01*
X322378709Y-141687952D01*
X322378709Y-142068904D01*
X322426328Y-142164142D01*
X322473947Y-142211761D01*
X322569185Y-142259380D01*
X322759661Y-142259380D01*
X322854899Y-142211761D01*
X322902518Y-142164142D01*
X322950137Y-142068904D01*
X322950137Y-141830809D01*
X322902518Y-141735571D01*
X322854899Y-141687952D01*
X322759661Y-141640333D01*
X322569185Y-141640333D01*
X322473947Y-141687952D01*
X322426328Y-141735571D01*
X322378709Y-141830809D01*
X304378715Y-142164142D02*
X304331096Y-142211761D01*
X304188239Y-142259380D01*
X304093001Y-142259380D01*
X303950144Y-142211761D01*
X303854906Y-142116523D01*
X303807287Y-142021285D01*
X303759668Y-141830809D01*
X303759668Y-141687952D01*
X303807287Y-141497476D01*
X303854906Y-141402238D01*
X303950144Y-141307000D01*
X304093001Y-141259380D01*
X304188239Y-141259380D01*
X304331096Y-141307000D01*
X304378715Y-141354619D01*
X305331096Y-142259380D02*
X304759668Y-142259380D01*
X305045382Y-142259380D02*
X305045382Y-141259380D01*
X304950144Y-141402238D01*
X304854906Y-141497476D01*
X304759668Y-141545095D01*
X306235858Y-141259380D02*
X305759668Y-141259380D01*
X305712049Y-141735571D01*
X305759668Y-141687952D01*
X305854906Y-141640333D01*
X306093001Y-141640333D01*
X306188239Y-141687952D01*
X306235858Y-141735571D01*
X306283477Y-141830809D01*
X306283477Y-142068904D01*
X306235858Y-142164142D01*
X306188239Y-142211761D01*
X306093001Y-142259380D01*
X305854906Y-142259380D01*
X305759668Y-142211761D01*
X305712049Y-142164142D01*
X287712055Y-142164142D02*
X287664436Y-142211761D01*
X287521579Y-142259380D01*
X287426341Y-142259380D01*
X287283484Y-142211761D01*
X287188246Y-142116523D01*
X287140627Y-142021285D01*
X287093008Y-141830809D01*
X287093008Y-141687952D01*
X287140627Y-141497476D01*
X287188246Y-141402238D01*
X287283484Y-141307000D01*
X287426341Y-141259380D01*
X287521579Y-141259380D01*
X287664436Y-141307000D01*
X287712055Y-141354619D01*
X288664436Y-142259380D02*
X288093008Y-142259380D01*
X288378722Y-142259380D02*
X288378722Y-141259380D01*
X288283484Y-141402238D01*
X288188246Y-141497476D01*
X288093008Y-141545095D01*
X289521579Y-141592714D02*
X289521579Y-142259380D01*
X289283484Y-141211761D02*
X289045389Y-141926047D01*
X289664436Y-141926047D01*
X271045395Y-142164142D02*
X270997776Y-142211761D01*
X270854919Y-142259380D01*
X270759681Y-142259380D01*
X270616824Y-142211761D01*
X270521586Y-142116523D01*
X270473967Y-142021285D01*
X270426348Y-141830809D01*
X270426348Y-141687952D01*
X270473967Y-141497476D01*
X270521586Y-141402238D01*
X270616824Y-141307000D01*
X270759681Y-141259380D01*
X270854919Y-141259380D01*
X270997776Y-141307000D01*
X271045395Y-141354619D01*
X271997776Y-142259380D02*
X271426348Y-142259380D01*
X271712062Y-142259380D02*
X271712062Y-141259380D01*
X271616824Y-141402238D01*
X271521586Y-141497476D01*
X271426348Y-141545095D01*
X272331110Y-141259380D02*
X272950157Y-141259380D01*
X272616824Y-141640333D01*
X272759681Y-141640333D01*
X272854919Y-141687952D01*
X272902538Y-141735571D01*
X272950157Y-141830809D01*
X272950157Y-142068904D01*
X272902538Y-142164142D01*
X272854919Y-142211761D01*
X272759681Y-142259380D01*
X272473967Y-142259380D01*
X272378729Y-142211761D01*
X272331110Y-142164142D01*
X71521666Y-142164142D02*
X71474047Y-142211761D01*
X71331190Y-142259380D01*
X71235952Y-142259380D01*
X71093094Y-142211761D01*
X70997856Y-142116523D01*
X70950237Y-142021285D01*
X70902618Y-141830809D01*
X70902618Y-141687952D01*
X70950237Y-141497476D01*
X70997856Y-141402238D01*
X71093094Y-141307000D01*
X71235952Y-141259380D01*
X71331190Y-141259380D01*
X71474047Y-141307000D01*
X71521666Y-141354619D01*
X72474047Y-142259380D02*
X71902618Y-142259380D01*
X72188333Y-142259380D02*
X72188333Y-141259380D01*
X72093094Y-141402238D01*
X71997856Y-141497476D01*
X71902618Y-141545095D01*
X250212069Y-142259380D02*
X249878736Y-141783190D01*
X249640641Y-142259380D02*
X249640641Y-141259380D01*
X250021593Y-141259380D01*
X250116831Y-141307000D01*
X250164450Y-141354619D01*
X250212069Y-141449857D01*
X250212069Y-141592714D01*
X250164450Y-141687952D01*
X250116831Y-141735571D01*
X250021593Y-141783190D01*
X249640641Y-141783190D01*
X251164450Y-142259380D02*
X250593022Y-142259380D01*
X250878736Y-142259380D02*
X250878736Y-141259380D01*
X250783498Y-141402238D01*
X250688260Y-141497476D01*
X250593022Y-141545095D01*
X251545403Y-141354619D02*
X251593022Y-141307000D01*
X251688260Y-141259380D01*
X251926355Y-141259380D01*
X252021593Y-141307000D01*
X252069212Y-141354619D01*
X252116831Y-141449857D01*
X252116831Y-141545095D01*
X252069212Y-141687952D01*
X251497784Y-142259380D01*
X252116831Y-142259380D01*
X233545409Y-142259380D02*
X233212076Y-141783190D01*
X232973981Y-142259380D02*
X232973981Y-141259380D01*
X233354933Y-141259380D01*
X233450171Y-141307000D01*
X233497790Y-141354619D01*
X233545409Y-141449857D01*
X233545409Y-141592714D01*
X233497790Y-141687952D01*
X233450171Y-141735571D01*
X233354933Y-141783190D01*
X232973981Y-141783190D01*
X234497790Y-142259380D02*
X233926362Y-142259380D01*
X234212076Y-142259380D02*
X234212076Y-141259380D01*
X234116838Y-141402238D01*
X234021600Y-141497476D01*
X233926362Y-141545095D01*
X235450171Y-142259380D02*
X234878743Y-142259380D01*
X235164457Y-142259380D02*
X235164457Y-141259380D01*
X235069219Y-141402238D01*
X234973981Y-141497476D01*
X234878743Y-141545095D01*
X216878749Y-142259380D02*
X216545416Y-141783190D01*
X216307321Y-142259380D02*
X216307321Y-141259380D01*
X216688273Y-141259380D01*
X216783511Y-141307000D01*
X216831130Y-141354619D01*
X216878749Y-141449857D01*
X216878749Y-141592714D01*
X216831130Y-141687952D01*
X216783511Y-141735571D01*
X216688273Y-141783190D01*
X216307321Y-141783190D01*
X217831130Y-142259380D02*
X217259702Y-142259380D01*
X217545416Y-142259380D02*
X217545416Y-141259380D01*
X217450178Y-141402238D01*
X217354940Y-141497476D01*
X217259702Y-141545095D01*
X218450178Y-141259380D02*
X218545416Y-141259380D01*
X218640654Y-141307000D01*
X218688273Y-141354619D01*
X218735892Y-141449857D01*
X218783511Y-141640333D01*
X218783511Y-141878428D01*
X218735892Y-142068904D01*
X218688273Y-142164142D01*
X218640654Y-142211761D01*
X218545416Y-142259380D01*
X218450178Y-142259380D01*
X218354940Y-142211761D01*
X218307321Y-142164142D01*
X218259702Y-142068904D01*
X218212083Y-141878428D01*
X218212083Y-141640333D01*
X218259702Y-141449857D01*
X218307321Y-141354619D01*
X218354940Y-141307000D01*
X218450178Y-141259380D01*
X200688280Y-142259380D02*
X200354947Y-141783190D01*
X200116851Y-142259380D02*
X200116851Y-141259380D01*
X200497804Y-141259380D01*
X200593042Y-141307000D01*
X200640661Y-141354619D01*
X200688280Y-141449857D01*
X200688280Y-141592714D01*
X200640661Y-141687952D01*
X200593042Y-141735571D01*
X200497804Y-141783190D01*
X200116851Y-141783190D01*
X201164470Y-142259380D02*
X201354947Y-142259380D01*
X201450185Y-142211761D01*
X201497804Y-142164142D01*
X201593042Y-142021285D01*
X201640661Y-141830809D01*
X201640661Y-141449857D01*
X201593042Y-141354619D01*
X201545423Y-141307000D01*
X201450185Y-141259380D01*
X201259708Y-141259380D01*
X201164470Y-141307000D01*
X201116851Y-141354619D01*
X201069232Y-141449857D01*
X201069232Y-141687952D01*
X201116851Y-141783190D01*
X201164470Y-141830809D01*
X201259708Y-141878428D01*
X201450185Y-141878428D01*
X201545423Y-141830809D01*
X201593042Y-141783190D01*
X201640661Y-141687952D01*
X184021620Y-142259380D02*
X183688287Y-141783190D01*
X183450191Y-142259380D02*
X183450191Y-141259380D01*
X183831144Y-141259380D01*
X183926382Y-141307000D01*
X183974001Y-141354619D01*
X184021620Y-141449857D01*
X184021620Y-141592714D01*
X183974001Y-141687952D01*
X183926382Y-141735571D01*
X183831144Y-141783190D01*
X183450191Y-141783190D01*
X184593048Y-141687952D02*
X184497810Y-141640333D01*
X184450191Y-141592714D01*
X184402572Y-141497476D01*
X184402572Y-141449857D01*
X184450191Y-141354619D01*
X184497810Y-141307000D01*
X184593048Y-141259380D01*
X184783525Y-141259380D01*
X184878763Y-141307000D01*
X184926382Y-141354619D01*
X184974001Y-141449857D01*
X184974001Y-141497476D01*
X184926382Y-141592714D01*
X184878763Y-141640333D01*
X184783525Y-141687952D01*
X184593048Y-141687952D01*
X184497810Y-141735571D01*
X184450191Y-141783190D01*
X184402572Y-141878428D01*
X184402572Y-142068904D01*
X184450191Y-142164142D01*
X184497810Y-142211761D01*
X184593048Y-142259380D01*
X184783525Y-142259380D01*
X184878763Y-142211761D01*
X184926382Y-142164142D01*
X184974001Y-142068904D01*
X184974001Y-141878428D01*
X184926382Y-141783190D01*
X184878763Y-141735571D01*
X184783525Y-141687952D01*
X167354960Y-142259380D02*
X167021627Y-141783190D01*
X166783531Y-142259380D02*
X166783531Y-141259380D01*
X167164484Y-141259380D01*
X167259722Y-141307000D01*
X167307341Y-141354619D01*
X167354960Y-141449857D01*
X167354960Y-141592714D01*
X167307341Y-141687952D01*
X167259722Y-141735571D01*
X167164484Y-141783190D01*
X166783531Y-141783190D01*
X167688293Y-141259380D02*
X168354960Y-141259380D01*
X167926388Y-142259380D01*
X150688300Y-142259380D02*
X150354967Y-141783190D01*
X150116871Y-142259380D02*
X150116871Y-141259380D01*
X150497824Y-141259380D01*
X150593062Y-141307000D01*
X150640681Y-141354619D01*
X150688300Y-141449857D01*
X150688300Y-141592714D01*
X150640681Y-141687952D01*
X150593062Y-141735571D01*
X150497824Y-141783190D01*
X150116871Y-141783190D01*
X151545443Y-141259380D02*
X151354967Y-141259380D01*
X151259728Y-141307000D01*
X151212109Y-141354619D01*
X151116871Y-141497476D01*
X151069252Y-141687952D01*
X151069252Y-142068904D01*
X151116871Y-142164142D01*
X151164490Y-142211761D01*
X151259728Y-142259380D01*
X151450205Y-142259380D01*
X151545443Y-142211761D01*
X151593062Y-142164142D01*
X151640681Y-142068904D01*
X151640681Y-141830809D01*
X151593062Y-141735571D01*
X151545443Y-141687952D01*
X151450205Y-141640333D01*
X151259728Y-141640333D01*
X151164490Y-141687952D01*
X151116871Y-141735571D01*
X151069252Y-141830809D01*
X134021640Y-142259380D02*
X133688307Y-141783190D01*
X133450211Y-142259380D02*
X133450211Y-141259380D01*
X133831164Y-141259380D01*
X133926402Y-141307000D01*
X133974021Y-141354619D01*
X134021640Y-141449857D01*
X134021640Y-141592714D01*
X133974021Y-141687952D01*
X133926402Y-141735571D01*
X133831164Y-141783190D01*
X133450211Y-141783190D01*
X134926402Y-141259380D02*
X134450211Y-141259380D01*
X134402592Y-141735571D01*
X134450211Y-141687952D01*
X134545449Y-141640333D01*
X134783545Y-141640333D01*
X134878783Y-141687952D01*
X134926402Y-141735571D01*
X134974021Y-141830809D01*
X134974021Y-142068904D01*
X134926402Y-142164142D01*
X134878783Y-142211761D01*
X134783545Y-142259380D01*
X134545449Y-142259380D01*
X134450211Y-142211761D01*
X134402592Y-142164142D01*
X117354980Y-142259380D02*
X117021647Y-141783190D01*
X116783551Y-142259380D02*
X116783551Y-141259380D01*
X117164504Y-141259380D01*
X117259742Y-141307000D01*
X117307361Y-141354619D01*
X117354980Y-141449857D01*
X117354980Y-141592714D01*
X117307361Y-141687952D01*
X117259742Y-141735571D01*
X117164504Y-141783190D01*
X116783551Y-141783190D01*
X118212123Y-141592714D02*
X118212123Y-142259380D01*
X117974027Y-141211761D02*
X117735932Y-141926047D01*
X118354980Y-141926047D01*
X100688320Y-142259380D02*
X100354987Y-141783190D01*
X100116891Y-142259380D02*
X100116891Y-141259380D01*
X100497844Y-141259380D01*
X100593082Y-141307000D01*
X100640701Y-141354619D01*
X100688320Y-141449857D01*
X100688320Y-141592714D01*
X100640701Y-141687952D01*
X100593082Y-141735571D01*
X100497844Y-141783190D01*
X100116891Y-141783190D01*
X101021653Y-141259380D02*
X101640701Y-141259380D01*
X101307367Y-141640333D01*
X101450225Y-141640333D01*
X101545463Y-141687952D01*
X101593082Y-141735571D01*
X101640701Y-141830809D01*
X101640701Y-142068904D01*
X101593082Y-142164142D01*
X101545463Y-142211761D01*
X101450225Y-142259380D01*
X101164510Y-142259380D01*
X101069272Y-142211761D01*
X101021653Y-142164142D01*
X84021660Y-142259380D02*
X83688327Y-141783190D01*
X83450231Y-142259380D02*
X83450231Y-141259380D01*
X83831184Y-141259380D01*
X83926422Y-141307000D01*
X83974041Y-141354619D01*
X84021660Y-141449857D01*
X84021660Y-141592714D01*
X83974041Y-141687952D01*
X83926422Y-141735571D01*
X83831184Y-141783190D01*
X83450231Y-141783190D01*
X84402612Y-141354619D02*
X84450231Y-141307000D01*
X84545469Y-141259380D01*
X84783565Y-141259380D01*
X84878803Y-141307000D01*
X84926422Y-141354619D01*
X84974041Y-141449857D01*
X84974041Y-141545095D01*
X84926422Y-141687952D01*
X84354993Y-142259380D01*
X84974041Y-142259380D01*
X251723974Y-149189380D02*
X251723974Y-148189380D01*
X251962069Y-148189380D01*
X252104926Y-148237000D01*
X252200164Y-148332238D01*
X252247783Y-148427476D01*
X252295402Y-148617952D01*
X252295402Y-148760809D01*
X252247783Y-148951285D01*
X252200164Y-149046523D01*
X252104926Y-149141761D01*
X251962069Y-149189380D01*
X251723974Y-149189380D01*
X253247783Y-149189380D02*
X252676355Y-149189380D01*
X252962069Y-149189380D02*
X252962069Y-148189380D01*
X252866831Y-148332238D01*
X252771593Y-148427476D01*
X252676355Y-148475095D01*
X253628736Y-148284619D02*
X253676355Y-148237000D01*
X253771593Y-148189380D01*
X254009688Y-148189380D01*
X254104926Y-148237000D01*
X254152545Y-148284619D01*
X254200164Y-148379857D01*
X254200164Y-148475095D01*
X254152545Y-148617952D01*
X253581117Y-149189380D01*
X254200164Y-149189380D01*
X235057314Y-149189380D02*
X235057314Y-148189380D01*
X235295409Y-148189380D01*
X235438266Y-148237000D01*
X235533504Y-148332238D01*
X235581123Y-148427476D01*
X235628742Y-148617952D01*
X235628742Y-148760809D01*
X235581123Y-148951285D01*
X235533504Y-149046523D01*
X235438266Y-149141761D01*
X235295409Y-149189380D01*
X235057314Y-149189380D01*
X236581123Y-149189380D02*
X236009695Y-149189380D01*
X236295409Y-149189380D02*
X236295409Y-148189380D01*
X236200171Y-148332238D01*
X236104933Y-148427476D01*
X236009695Y-148475095D01*
X237533504Y-149189380D02*
X236962076Y-149189380D01*
X237247790Y-149189380D02*
X237247790Y-148189380D01*
X237152552Y-148332238D01*
X237057314Y-148427476D01*
X236962076Y-148475095D01*
X218390654Y-149189380D02*
X218390654Y-148189380D01*
X218628749Y-148189380D01*
X218771606Y-148237000D01*
X218866844Y-148332238D01*
X218914463Y-148427476D01*
X218962082Y-148617952D01*
X218962082Y-148760809D01*
X218914463Y-148951285D01*
X218866844Y-149046523D01*
X218771606Y-149141761D01*
X218628749Y-149189380D01*
X218390654Y-149189380D01*
X219914463Y-149189380D02*
X219343035Y-149189380D01*
X219628749Y-149189380D02*
X219628749Y-148189380D01*
X219533511Y-148332238D01*
X219438273Y-148427476D01*
X219343035Y-148475095D01*
X220533511Y-148189380D02*
X220628749Y-148189380D01*
X220723987Y-148237000D01*
X220771606Y-148284619D01*
X220819225Y-148379857D01*
X220866844Y-148570333D01*
X220866844Y-148808428D01*
X220819225Y-148998904D01*
X220771606Y-149094142D01*
X220723987Y-149141761D01*
X220628749Y-149189380D01*
X220533511Y-149189380D01*
X220438273Y-149141761D01*
X220390654Y-149094142D01*
X220343035Y-148998904D01*
X220295416Y-148808428D01*
X220295416Y-148570333D01*
X220343035Y-148379857D01*
X220390654Y-148284619D01*
X220438273Y-148237000D01*
X220533511Y-148189380D01*
X202200184Y-149189380D02*
X202200184Y-148189380D01*
X202438280Y-148189380D01*
X202581137Y-148237000D01*
X202676375Y-148332238D01*
X202723994Y-148427476D01*
X202771613Y-148617952D01*
X202771613Y-148760809D01*
X202723994Y-148951285D01*
X202676375Y-149046523D01*
X202581137Y-149141761D01*
X202438280Y-149189380D01*
X202200184Y-149189380D01*
X203247803Y-149189380D02*
X203438280Y-149189380D01*
X203533518Y-149141761D01*
X203581137Y-149094142D01*
X203676375Y-148951285D01*
X203723994Y-148760809D01*
X203723994Y-148379857D01*
X203676375Y-148284619D01*
X203628756Y-148237000D01*
X203533518Y-148189380D01*
X203343041Y-148189380D01*
X203247803Y-148237000D01*
X203200184Y-148284619D01*
X203152565Y-148379857D01*
X203152565Y-148617952D01*
X203200184Y-148713190D01*
X203247803Y-148760809D01*
X203343041Y-148808428D01*
X203533518Y-148808428D01*
X203628756Y-148760809D01*
X203676375Y-148713190D01*
X203723994Y-148617952D01*
X185533524Y-149189380D02*
X185533524Y-148189380D01*
X185771620Y-148189380D01*
X185914477Y-148237000D01*
X186009715Y-148332238D01*
X186057334Y-148427476D01*
X186104953Y-148617952D01*
X186104953Y-148760809D01*
X186057334Y-148951285D01*
X186009715Y-149046523D01*
X185914477Y-149141761D01*
X185771620Y-149189380D01*
X185533524Y-149189380D01*
X186676381Y-148617952D02*
X186581143Y-148570333D01*
X186533524Y-148522714D01*
X186485905Y-148427476D01*
X186485905Y-148379857D01*
X186533524Y-148284619D01*
X186581143Y-148237000D01*
X186676381Y-148189380D01*
X186866858Y-148189380D01*
X186962096Y-148237000D01*
X187009715Y-148284619D01*
X187057334Y-148379857D01*
X187057334Y-148427476D01*
X187009715Y-148522714D01*
X186962096Y-148570333D01*
X186866858Y-148617952D01*
X186676381Y-148617952D01*
X186581143Y-148665571D01*
X186533524Y-148713190D01*
X186485905Y-148808428D01*
X186485905Y-148998904D01*
X186533524Y-149094142D01*
X186581143Y-149141761D01*
X186676381Y-149189380D01*
X186866858Y-149189380D01*
X186962096Y-149141761D01*
X187009715Y-149094142D01*
X187057334Y-148998904D01*
X187057334Y-148808428D01*
X187009715Y-148713190D01*
X186962096Y-148665571D01*
X186866858Y-148617952D01*
X168866864Y-149189380D02*
X168866864Y-148189380D01*
X169104960Y-148189380D01*
X169247817Y-148237000D01*
X169343055Y-148332238D01*
X169390674Y-148427476D01*
X169438293Y-148617952D01*
X169438293Y-148760809D01*
X169390674Y-148951285D01*
X169343055Y-149046523D01*
X169247817Y-149141761D01*
X169104960Y-149189380D01*
X168866864Y-149189380D01*
X169771626Y-148189380D02*
X170438293Y-148189380D01*
X170009721Y-149189380D01*
X152200204Y-149189380D02*
X152200204Y-148189380D01*
X152438300Y-148189380D01*
X152581157Y-148237000D01*
X152676395Y-148332238D01*
X152724014Y-148427476D01*
X152771633Y-148617952D01*
X152771633Y-148760809D01*
X152724014Y-148951285D01*
X152676395Y-149046523D01*
X152581157Y-149141761D01*
X152438300Y-149189380D01*
X152200204Y-149189380D01*
X153628776Y-148189380D02*
X153438300Y-148189380D01*
X153343061Y-148237000D01*
X153295442Y-148284619D01*
X153200204Y-148427476D01*
X153152585Y-148617952D01*
X153152585Y-148998904D01*
X153200204Y-149094142D01*
X153247823Y-149141761D01*
X153343061Y-149189380D01*
X153533538Y-149189380D01*
X153628776Y-149141761D01*
X153676395Y-149094142D01*
X153724014Y-148998904D01*
X153724014Y-148760809D01*
X153676395Y-148665571D01*
X153628776Y-148617952D01*
X153533538Y-148570333D01*
X153343061Y-148570333D01*
X153247823Y-148617952D01*
X153200204Y-148665571D01*
X153152585Y-148760809D01*
X135533544Y-149189380D02*
X135533544Y-148189380D01*
X135771640Y-148189380D01*
X135914497Y-148237000D01*
X136009735Y-148332238D01*
X136057354Y-148427476D01*
X136104973Y-148617952D01*
X136104973Y-148760809D01*
X136057354Y-148951285D01*
X136009735Y-149046523D01*
X135914497Y-149141761D01*
X135771640Y-149189380D01*
X135533544Y-149189380D01*
X137009735Y-148189380D02*
X136533544Y-148189380D01*
X136485925Y-148665571D01*
X136533544Y-148617952D01*
X136628782Y-148570333D01*
X136866878Y-148570333D01*
X136962116Y-148617952D01*
X137009735Y-148665571D01*
X137057354Y-148760809D01*
X137057354Y-148998904D01*
X137009735Y-149094142D01*
X136962116Y-149141761D01*
X136866878Y-149189380D01*
X136628782Y-149189380D01*
X136533544Y-149141761D01*
X136485925Y-149094142D01*
X118866884Y-149189380D02*
X118866884Y-148189380D01*
X119104980Y-148189380D01*
X119247837Y-148237000D01*
X119343075Y-148332238D01*
X119390694Y-148427476D01*
X119438313Y-148617952D01*
X119438313Y-148760809D01*
X119390694Y-148951285D01*
X119343075Y-149046523D01*
X119247837Y-149141761D01*
X119104980Y-149189380D01*
X118866884Y-149189380D01*
X120295456Y-148522714D02*
X120295456Y-149189380D01*
X120057360Y-148141761D02*
X119819265Y-148856047D01*
X120438313Y-148856047D01*
X102200224Y-149189380D02*
X102200224Y-148189380D01*
X102438320Y-148189380D01*
X102581177Y-148237000D01*
X102676415Y-148332238D01*
X102724034Y-148427476D01*
X102771653Y-148617952D01*
X102771653Y-148760809D01*
X102724034Y-148951285D01*
X102676415Y-149046523D01*
X102581177Y-149141761D01*
X102438320Y-149189380D01*
X102200224Y-149189380D01*
X103104986Y-148189380D02*
X103724034Y-148189380D01*
X103390700Y-148570333D01*
X103533558Y-148570333D01*
X103628796Y-148617952D01*
X103676415Y-148665571D01*
X103724034Y-148760809D01*
X103724034Y-148998904D01*
X103676415Y-149094142D01*
X103628796Y-149141761D01*
X103533558Y-149189380D01*
X103247843Y-149189380D01*
X103152605Y-149141761D01*
X103104986Y-149094142D01*
X85533564Y-149189380D02*
X85533564Y-148189380D01*
X85771660Y-148189380D01*
X85914517Y-148237000D01*
X86009755Y-148332238D01*
X86057374Y-148427476D01*
X86104993Y-148617952D01*
X86104993Y-148760809D01*
X86057374Y-148951285D01*
X86009755Y-149046523D01*
X85914517Y-149141761D01*
X85771660Y-149189380D01*
X85533564Y-149189380D01*
X86485945Y-148284619D02*
X86533564Y-148237000D01*
X86628802Y-148189380D01*
X86866898Y-148189380D01*
X86962136Y-148237000D01*
X87009755Y-148284619D01*
X87057374Y-148379857D01*
X87057374Y-148475095D01*
X87009755Y-148617952D01*
X86438326Y-149189380D01*
X87057374Y-149189380D01*
X254378735Y-142164142D02*
X254331116Y-142211761D01*
X254188259Y-142259380D01*
X254093021Y-142259380D01*
X253950164Y-142211761D01*
X253854926Y-142116523D01*
X253807307Y-142021285D01*
X253759688Y-141830809D01*
X253759688Y-141687952D01*
X253807307Y-141497476D01*
X253854926Y-141402238D01*
X253950164Y-141307000D01*
X254093021Y-141259380D01*
X254188259Y-141259380D01*
X254331116Y-141307000D01*
X254378735Y-141354619D01*
X255331116Y-142259380D02*
X254759688Y-142259380D01*
X255045402Y-142259380D02*
X255045402Y-141259380D01*
X254950164Y-141402238D01*
X254854926Y-141497476D01*
X254759688Y-141545095D01*
X255712069Y-141354619D02*
X255759688Y-141307000D01*
X255854926Y-141259380D01*
X256093021Y-141259380D01*
X256188259Y-141307000D01*
X256235878Y-141354619D01*
X256283497Y-141449857D01*
X256283497Y-141545095D01*
X256235878Y-141687952D01*
X255664450Y-142259380D01*
X256283497Y-142259380D01*
X237712075Y-142164142D02*
X237664456Y-142211761D01*
X237521599Y-142259380D01*
X237426361Y-142259380D01*
X237283504Y-142211761D01*
X237188266Y-142116523D01*
X237140647Y-142021285D01*
X237093028Y-141830809D01*
X237093028Y-141687952D01*
X237140647Y-141497476D01*
X237188266Y-141402238D01*
X237283504Y-141307000D01*
X237426361Y-141259380D01*
X237521599Y-141259380D01*
X237664456Y-141307000D01*
X237712075Y-141354619D01*
X238664456Y-142259380D02*
X238093028Y-142259380D01*
X238378742Y-142259380D02*
X238378742Y-141259380D01*
X238283504Y-141402238D01*
X238188266Y-141497476D01*
X238093028Y-141545095D01*
X239616837Y-142259380D02*
X239045409Y-142259380D01*
X239331123Y-142259380D02*
X239331123Y-141259380D01*
X239235885Y-141402238D01*
X239140647Y-141497476D01*
X239045409Y-141545095D01*
X221045415Y-142164142D02*
X220997796Y-142211761D01*
X220854939Y-142259380D01*
X220759701Y-142259380D01*
X220616844Y-142211761D01*
X220521606Y-142116523D01*
X220473987Y-142021285D01*
X220426368Y-141830809D01*
X220426368Y-141687952D01*
X220473987Y-141497476D01*
X220521606Y-141402238D01*
X220616844Y-141307000D01*
X220759701Y-141259380D01*
X220854939Y-141259380D01*
X220997796Y-141307000D01*
X221045415Y-141354619D01*
X221997796Y-142259380D02*
X221426368Y-142259380D01*
X221712082Y-142259380D02*
X221712082Y-141259380D01*
X221616844Y-141402238D01*
X221521606Y-141497476D01*
X221426368Y-141545095D01*
X222616844Y-141259380D02*
X222712082Y-141259380D01*
X222807320Y-141307000D01*
X222854939Y-141354619D01*
X222902558Y-141449857D01*
X222950177Y-141640333D01*
X222950177Y-141878428D01*
X222902558Y-142068904D01*
X222854939Y-142164142D01*
X222807320Y-142211761D01*
X222712082Y-142259380D01*
X222616844Y-142259380D01*
X222521606Y-142211761D01*
X222473987Y-142164142D01*
X222426368Y-142068904D01*
X222378749Y-141878428D01*
X222378749Y-141640333D01*
X222426368Y-141449857D01*
X222473987Y-141354619D01*
X222521606Y-141307000D01*
X222616844Y-141259380D01*
X204854946Y-142164142D02*
X204807327Y-142211761D01*
X204664470Y-142259380D01*
X204569232Y-142259380D01*
X204426374Y-142211761D01*
X204331136Y-142116523D01*
X204283517Y-142021285D01*
X204235898Y-141830809D01*
X204235898Y-141687952D01*
X204283517Y-141497476D01*
X204331136Y-141402238D01*
X204426374Y-141307000D01*
X204569232Y-141259380D01*
X204664470Y-141259380D01*
X204807327Y-141307000D01*
X204854946Y-141354619D01*
X205331136Y-142259380D02*
X205521613Y-142259380D01*
X205616851Y-142211761D01*
X205664470Y-142164142D01*
X205759708Y-142021285D01*
X205807327Y-141830809D01*
X205807327Y-141449857D01*
X205759708Y-141354619D01*
X205712089Y-141307000D01*
X205616851Y-141259380D01*
X205426374Y-141259380D01*
X205331136Y-141307000D01*
X205283517Y-141354619D01*
X205235898Y-141449857D01*
X205235898Y-141687952D01*
X205283517Y-141783190D01*
X205331136Y-141830809D01*
X205426374Y-141878428D01*
X205616851Y-141878428D01*
X205712089Y-141830809D01*
X205759708Y-141783190D01*
X205807327Y-141687952D01*
X188188286Y-142164142D02*
X188140667Y-142211761D01*
X187997810Y-142259380D01*
X187902572Y-142259380D01*
X187759714Y-142211761D01*
X187664476Y-142116523D01*
X187616857Y-142021285D01*
X187569238Y-141830809D01*
X187569238Y-141687952D01*
X187616857Y-141497476D01*
X187664476Y-141402238D01*
X187759714Y-141307000D01*
X187902572Y-141259380D01*
X187997810Y-141259380D01*
X188140667Y-141307000D01*
X188188286Y-141354619D01*
X188759714Y-141687952D02*
X188664476Y-141640333D01*
X188616857Y-141592714D01*
X188569238Y-141497476D01*
X188569238Y-141449857D01*
X188616857Y-141354619D01*
X188664476Y-141307000D01*
X188759714Y-141259380D01*
X188950191Y-141259380D01*
X189045429Y-141307000D01*
X189093048Y-141354619D01*
X189140667Y-141449857D01*
X189140667Y-141497476D01*
X189093048Y-141592714D01*
X189045429Y-141640333D01*
X188950191Y-141687952D01*
X188759714Y-141687952D01*
X188664476Y-141735571D01*
X188616857Y-141783190D01*
X188569238Y-141878428D01*
X188569238Y-142068904D01*
X188616857Y-142164142D01*
X188664476Y-142211761D01*
X188759714Y-142259380D01*
X188950191Y-142259380D01*
X189045429Y-142211761D01*
X189093048Y-142164142D01*
X189140667Y-142068904D01*
X189140667Y-141878428D01*
X189093048Y-141783190D01*
X189045429Y-141735571D01*
X188950191Y-141687952D01*
X171521626Y-142164142D02*
X171474007Y-142211761D01*
X171331150Y-142259380D01*
X171235912Y-142259380D01*
X171093054Y-142211761D01*
X170997816Y-142116523D01*
X170950197Y-142021285D01*
X170902578Y-141830809D01*
X170902578Y-141687952D01*
X170950197Y-141497476D01*
X170997816Y-141402238D01*
X171093054Y-141307000D01*
X171235912Y-141259380D01*
X171331150Y-141259380D01*
X171474007Y-141307000D01*
X171521626Y-141354619D01*
X171854959Y-141259380D02*
X172521626Y-141259380D01*
X172093054Y-142259380D01*
X154854966Y-142164142D02*
X154807347Y-142211761D01*
X154664490Y-142259380D01*
X154569252Y-142259380D01*
X154426394Y-142211761D01*
X154331156Y-142116523D01*
X154283537Y-142021285D01*
X154235918Y-141830809D01*
X154235918Y-141687952D01*
X154283537Y-141497476D01*
X154331156Y-141402238D01*
X154426394Y-141307000D01*
X154569252Y-141259380D01*
X154664490Y-141259380D01*
X154807347Y-141307000D01*
X154854966Y-141354619D01*
X155712109Y-141259380D02*
X155521633Y-141259380D01*
X155426394Y-141307000D01*
X155378775Y-141354619D01*
X155283537Y-141497476D01*
X155235918Y-141687952D01*
X155235918Y-142068904D01*
X155283537Y-142164142D01*
X155331156Y-142211761D01*
X155426394Y-142259380D01*
X155616871Y-142259380D01*
X155712109Y-142211761D01*
X155759728Y-142164142D01*
X155807347Y-142068904D01*
X155807347Y-141830809D01*
X155759728Y-141735571D01*
X155712109Y-141687952D01*
X155616871Y-141640333D01*
X155426394Y-141640333D01*
X155331156Y-141687952D01*
X155283537Y-141735571D01*
X155235918Y-141830809D01*
X138188306Y-142164142D02*
X138140687Y-142211761D01*
X137997830Y-142259380D01*
X137902592Y-142259380D01*
X137759734Y-142211761D01*
X137664496Y-142116523D01*
X137616877Y-142021285D01*
X137569258Y-141830809D01*
X137569258Y-141687952D01*
X137616877Y-141497476D01*
X137664496Y-141402238D01*
X137759734Y-141307000D01*
X137902592Y-141259380D01*
X137997830Y-141259380D01*
X138140687Y-141307000D01*
X138188306Y-141354619D01*
X139093068Y-141259380D02*
X138616877Y-141259380D01*
X138569258Y-141735571D01*
X138616877Y-141687952D01*
X138712115Y-141640333D01*
X138950211Y-141640333D01*
X139045449Y-141687952D01*
X139093068Y-141735571D01*
X139140687Y-141830809D01*
X139140687Y-142068904D01*
X139093068Y-142164142D01*
X139045449Y-142211761D01*
X138950211Y-142259380D01*
X138712115Y-142259380D01*
X138616877Y-142211761D01*
X138569258Y-142164142D01*
X121521646Y-142164142D02*
X121474027Y-142211761D01*
X121331170Y-142259380D01*
X121235932Y-142259380D01*
X121093074Y-142211761D01*
X120997836Y-142116523D01*
X120950217Y-142021285D01*
X120902598Y-141830809D01*
X120902598Y-141687952D01*
X120950217Y-141497476D01*
X120997836Y-141402238D01*
X121093074Y-141307000D01*
X121235932Y-141259380D01*
X121331170Y-141259380D01*
X121474027Y-141307000D01*
X121521646Y-141354619D01*
X122378789Y-141592714D02*
X122378789Y-142259380D01*
X122140693Y-141211761D02*
X121902598Y-141926047D01*
X122521646Y-141926047D01*
X104854986Y-142164142D02*
X104807367Y-142211761D01*
X104664510Y-142259380D01*
X104569272Y-142259380D01*
X104426414Y-142211761D01*
X104331176Y-142116523D01*
X104283557Y-142021285D01*
X104235938Y-141830809D01*
X104235938Y-141687952D01*
X104283557Y-141497476D01*
X104331176Y-141402238D01*
X104426414Y-141307000D01*
X104569272Y-141259380D01*
X104664510Y-141259380D01*
X104807367Y-141307000D01*
X104854986Y-141354619D01*
X105188319Y-141259380D02*
X105807367Y-141259380D01*
X105474033Y-141640333D01*
X105616891Y-141640333D01*
X105712129Y-141687952D01*
X105759748Y-141735571D01*
X105807367Y-141830809D01*
X105807367Y-142068904D01*
X105759748Y-142164142D01*
X105712129Y-142211761D01*
X105616891Y-142259380D01*
X105331176Y-142259380D01*
X105235938Y-142211761D01*
X105188319Y-142164142D01*
X88188326Y-142164142D02*
X88140707Y-142211761D01*
X87997850Y-142259380D01*
X87902612Y-142259380D01*
X87759754Y-142211761D01*
X87664516Y-142116523D01*
X87616897Y-142021285D01*
X87569278Y-141830809D01*
X87569278Y-141687952D01*
X87616897Y-141497476D01*
X87664516Y-141402238D01*
X87759754Y-141307000D01*
X87902612Y-141259380D01*
X87997850Y-141259380D01*
X88140707Y-141307000D01*
X88188326Y-141354619D01*
X88569278Y-141354619D02*
X88616897Y-141307000D01*
X88712135Y-141259380D01*
X88950231Y-141259380D01*
X89045469Y-141307000D01*
X89093088Y-141354619D01*
X89140707Y-141449857D01*
X89140707Y-141545095D01*
X89093088Y-141687952D01*
X88521659Y-142259380D01*
X89140707Y-142259380D01*
M02*
