G04 #@! TF.GenerationSoftware,KiCad,Pcbnew,(5.1.0-0)*
G04 #@! TF.CreationDate,2019-04-21T18:59:04-07:00*
G04 #@! TF.ProjectId,EInside,45496e73-6964-4652-9e6b-696361645f70,rev?*
G04 #@! TF.SameCoordinates,Original*
G04 #@! TF.FileFunction,Soldermask,Top*
G04 #@! TF.FilePolarity,Negative*
%FSLAX46Y46*%
G04 Gerber Fmt 4.6, Leading zero omitted, Abs format (unit mm)*
G04 Created by KiCad (PCBNEW (5.1.0-0)) date 2019-04-21 18:59:04*
%MOMM*%
%LPD*%
G04 APERTURE LIST*
%ADD10O,3.400000X1.650000*%
%ADD11C,0.050000*%
%ADD12C,1.275000*%
%ADD13R,1.900000X1.400000*%
G04 APERTURE END LIST*
D10*
X59188335Y-149237000D03*
X59188335Y-147237000D03*
X342520575Y-151237000D03*
X342520575Y-149237000D03*
X342520575Y-147237000D03*
X342520575Y-145237000D03*
X63355001Y-151270334D03*
X63355001Y-149270334D03*
X63355001Y-147270334D03*
X63355001Y-145270334D03*
X346687225Y-149237000D03*
X346687225Y-147237000D03*
D11*
G36*
X335325720Y-142563535D02*
G01*
X335356662Y-142568125D01*
X335387005Y-142575725D01*
X335416457Y-142586263D01*
X335444735Y-142599638D01*
X335471565Y-142615719D01*
X335496690Y-142634353D01*
X335519867Y-142655360D01*
X335540874Y-142678537D01*
X335559508Y-142703662D01*
X335575589Y-142730492D01*
X335588964Y-142758770D01*
X335599502Y-142788222D01*
X335607102Y-142818565D01*
X335611692Y-142849507D01*
X335613227Y-142880750D01*
X335613227Y-143593250D01*
X335611692Y-143624493D01*
X335607102Y-143655435D01*
X335599502Y-143685778D01*
X335588964Y-143715230D01*
X335575589Y-143743508D01*
X335559508Y-143770338D01*
X335540874Y-143795463D01*
X335519867Y-143818640D01*
X335496690Y-143839647D01*
X335471565Y-143858281D01*
X335444735Y-143874362D01*
X335416457Y-143887737D01*
X335387005Y-143898275D01*
X335356662Y-143905875D01*
X335325720Y-143910465D01*
X335294477Y-143912000D01*
X334656977Y-143912000D01*
X334625734Y-143910465D01*
X334594792Y-143905875D01*
X334564449Y-143898275D01*
X334534997Y-143887737D01*
X334506719Y-143874362D01*
X334479889Y-143858281D01*
X334454764Y-143839647D01*
X334431587Y-143818640D01*
X334410580Y-143795463D01*
X334391946Y-143770338D01*
X334375865Y-143743508D01*
X334362490Y-143715230D01*
X334351952Y-143685778D01*
X334344352Y-143655435D01*
X334339762Y-143624493D01*
X334338227Y-143593250D01*
X334338227Y-142880750D01*
X334339762Y-142849507D01*
X334344352Y-142818565D01*
X334351952Y-142788222D01*
X334362490Y-142758770D01*
X334375865Y-142730492D01*
X334391946Y-142703662D01*
X334410580Y-142678537D01*
X334431587Y-142655360D01*
X334454764Y-142634353D01*
X334479889Y-142615719D01*
X334506719Y-142599638D01*
X334534997Y-142586263D01*
X334564449Y-142575725D01*
X334594792Y-142568125D01*
X334625734Y-142563535D01*
X334656977Y-142562000D01*
X335294477Y-142562000D01*
X335325720Y-142563535D01*
X335325720Y-142563535D01*
G37*
D12*
X334975727Y-143237000D03*
D11*
G36*
X333750720Y-142563535D02*
G01*
X333781662Y-142568125D01*
X333812005Y-142575725D01*
X333841457Y-142586263D01*
X333869735Y-142599638D01*
X333896565Y-142615719D01*
X333921690Y-142634353D01*
X333944867Y-142655360D01*
X333965874Y-142678537D01*
X333984508Y-142703662D01*
X334000589Y-142730492D01*
X334013964Y-142758770D01*
X334024502Y-142788222D01*
X334032102Y-142818565D01*
X334036692Y-142849507D01*
X334038227Y-142880750D01*
X334038227Y-143593250D01*
X334036692Y-143624493D01*
X334032102Y-143655435D01*
X334024502Y-143685778D01*
X334013964Y-143715230D01*
X334000589Y-143743508D01*
X333984508Y-143770338D01*
X333965874Y-143795463D01*
X333944867Y-143818640D01*
X333921690Y-143839647D01*
X333896565Y-143858281D01*
X333869735Y-143874362D01*
X333841457Y-143887737D01*
X333812005Y-143898275D01*
X333781662Y-143905875D01*
X333750720Y-143910465D01*
X333719477Y-143912000D01*
X333081977Y-143912000D01*
X333050734Y-143910465D01*
X333019792Y-143905875D01*
X332989449Y-143898275D01*
X332959997Y-143887737D01*
X332931719Y-143874362D01*
X332904889Y-143858281D01*
X332879764Y-143839647D01*
X332856587Y-143818640D01*
X332835580Y-143795463D01*
X332816946Y-143770338D01*
X332800865Y-143743508D01*
X332787490Y-143715230D01*
X332776952Y-143685778D01*
X332769352Y-143655435D01*
X332764762Y-143624493D01*
X332763227Y-143593250D01*
X332763227Y-142880750D01*
X332764762Y-142849507D01*
X332769352Y-142818565D01*
X332776952Y-142788222D01*
X332787490Y-142758770D01*
X332800865Y-142730492D01*
X332816946Y-142703662D01*
X332835580Y-142678537D01*
X332856587Y-142655360D01*
X332879764Y-142634353D01*
X332904889Y-142615719D01*
X332931719Y-142599638D01*
X332959997Y-142586263D01*
X332989449Y-142575725D01*
X333019792Y-142568125D01*
X333050734Y-142563535D01*
X333081977Y-142562000D01*
X333719477Y-142562000D01*
X333750720Y-142563535D01*
X333750720Y-142563535D01*
G37*
D12*
X333400727Y-143237000D03*
D11*
G36*
X318659060Y-142563535D02*
G01*
X318690002Y-142568125D01*
X318720345Y-142575725D01*
X318749797Y-142586263D01*
X318778075Y-142599638D01*
X318804905Y-142615719D01*
X318830030Y-142634353D01*
X318853207Y-142655360D01*
X318874214Y-142678537D01*
X318892848Y-142703662D01*
X318908929Y-142730492D01*
X318922304Y-142758770D01*
X318932842Y-142788222D01*
X318940442Y-142818565D01*
X318945032Y-142849507D01*
X318946567Y-142880750D01*
X318946567Y-143593250D01*
X318945032Y-143624493D01*
X318940442Y-143655435D01*
X318932842Y-143685778D01*
X318922304Y-143715230D01*
X318908929Y-143743508D01*
X318892848Y-143770338D01*
X318874214Y-143795463D01*
X318853207Y-143818640D01*
X318830030Y-143839647D01*
X318804905Y-143858281D01*
X318778075Y-143874362D01*
X318749797Y-143887737D01*
X318720345Y-143898275D01*
X318690002Y-143905875D01*
X318659060Y-143910465D01*
X318627817Y-143912000D01*
X317990317Y-143912000D01*
X317959074Y-143910465D01*
X317928132Y-143905875D01*
X317897789Y-143898275D01*
X317868337Y-143887737D01*
X317840059Y-143874362D01*
X317813229Y-143858281D01*
X317788104Y-143839647D01*
X317764927Y-143818640D01*
X317743920Y-143795463D01*
X317725286Y-143770338D01*
X317709205Y-143743508D01*
X317695830Y-143715230D01*
X317685292Y-143685778D01*
X317677692Y-143655435D01*
X317673102Y-143624493D01*
X317671567Y-143593250D01*
X317671567Y-142880750D01*
X317673102Y-142849507D01*
X317677692Y-142818565D01*
X317685292Y-142788222D01*
X317695830Y-142758770D01*
X317709205Y-142730492D01*
X317725286Y-142703662D01*
X317743920Y-142678537D01*
X317764927Y-142655360D01*
X317788104Y-142634353D01*
X317813229Y-142615719D01*
X317840059Y-142599638D01*
X317868337Y-142586263D01*
X317897789Y-142575725D01*
X317928132Y-142568125D01*
X317959074Y-142563535D01*
X317990317Y-142562000D01*
X318627817Y-142562000D01*
X318659060Y-142563535D01*
X318659060Y-142563535D01*
G37*
D12*
X318309067Y-143237000D03*
D11*
G36*
X317084060Y-142563535D02*
G01*
X317115002Y-142568125D01*
X317145345Y-142575725D01*
X317174797Y-142586263D01*
X317203075Y-142599638D01*
X317229905Y-142615719D01*
X317255030Y-142634353D01*
X317278207Y-142655360D01*
X317299214Y-142678537D01*
X317317848Y-142703662D01*
X317333929Y-142730492D01*
X317347304Y-142758770D01*
X317357842Y-142788222D01*
X317365442Y-142818565D01*
X317370032Y-142849507D01*
X317371567Y-142880750D01*
X317371567Y-143593250D01*
X317370032Y-143624493D01*
X317365442Y-143655435D01*
X317357842Y-143685778D01*
X317347304Y-143715230D01*
X317333929Y-143743508D01*
X317317848Y-143770338D01*
X317299214Y-143795463D01*
X317278207Y-143818640D01*
X317255030Y-143839647D01*
X317229905Y-143858281D01*
X317203075Y-143874362D01*
X317174797Y-143887737D01*
X317145345Y-143898275D01*
X317115002Y-143905875D01*
X317084060Y-143910465D01*
X317052817Y-143912000D01*
X316415317Y-143912000D01*
X316384074Y-143910465D01*
X316353132Y-143905875D01*
X316322789Y-143898275D01*
X316293337Y-143887737D01*
X316265059Y-143874362D01*
X316238229Y-143858281D01*
X316213104Y-143839647D01*
X316189927Y-143818640D01*
X316168920Y-143795463D01*
X316150286Y-143770338D01*
X316134205Y-143743508D01*
X316120830Y-143715230D01*
X316110292Y-143685778D01*
X316102692Y-143655435D01*
X316098102Y-143624493D01*
X316096567Y-143593250D01*
X316096567Y-142880750D01*
X316098102Y-142849507D01*
X316102692Y-142818565D01*
X316110292Y-142788222D01*
X316120830Y-142758770D01*
X316134205Y-142730492D01*
X316150286Y-142703662D01*
X316168920Y-142678537D01*
X316189927Y-142655360D01*
X316213104Y-142634353D01*
X316238229Y-142615719D01*
X316265059Y-142599638D01*
X316293337Y-142586263D01*
X316322789Y-142575725D01*
X316353132Y-142568125D01*
X316384074Y-142563535D01*
X316415317Y-142562000D01*
X317052817Y-142562000D01*
X317084060Y-142563535D01*
X317084060Y-142563535D01*
G37*
D12*
X316734067Y-143237000D03*
D11*
G36*
X301992400Y-142563535D02*
G01*
X302023342Y-142568125D01*
X302053685Y-142575725D01*
X302083137Y-142586263D01*
X302111415Y-142599638D01*
X302138245Y-142615719D01*
X302163370Y-142634353D01*
X302186547Y-142655360D01*
X302207554Y-142678537D01*
X302226188Y-142703662D01*
X302242269Y-142730492D01*
X302255644Y-142758770D01*
X302266182Y-142788222D01*
X302273782Y-142818565D01*
X302278372Y-142849507D01*
X302279907Y-142880750D01*
X302279907Y-143593250D01*
X302278372Y-143624493D01*
X302273782Y-143655435D01*
X302266182Y-143685778D01*
X302255644Y-143715230D01*
X302242269Y-143743508D01*
X302226188Y-143770338D01*
X302207554Y-143795463D01*
X302186547Y-143818640D01*
X302163370Y-143839647D01*
X302138245Y-143858281D01*
X302111415Y-143874362D01*
X302083137Y-143887737D01*
X302053685Y-143898275D01*
X302023342Y-143905875D01*
X301992400Y-143910465D01*
X301961157Y-143912000D01*
X301323657Y-143912000D01*
X301292414Y-143910465D01*
X301261472Y-143905875D01*
X301231129Y-143898275D01*
X301201677Y-143887737D01*
X301173399Y-143874362D01*
X301146569Y-143858281D01*
X301121444Y-143839647D01*
X301098267Y-143818640D01*
X301077260Y-143795463D01*
X301058626Y-143770338D01*
X301042545Y-143743508D01*
X301029170Y-143715230D01*
X301018632Y-143685778D01*
X301011032Y-143655435D01*
X301006442Y-143624493D01*
X301004907Y-143593250D01*
X301004907Y-142880750D01*
X301006442Y-142849507D01*
X301011032Y-142818565D01*
X301018632Y-142788222D01*
X301029170Y-142758770D01*
X301042545Y-142730492D01*
X301058626Y-142703662D01*
X301077260Y-142678537D01*
X301098267Y-142655360D01*
X301121444Y-142634353D01*
X301146569Y-142615719D01*
X301173399Y-142599638D01*
X301201677Y-142586263D01*
X301231129Y-142575725D01*
X301261472Y-142568125D01*
X301292414Y-142563535D01*
X301323657Y-142562000D01*
X301961157Y-142562000D01*
X301992400Y-142563535D01*
X301992400Y-142563535D01*
G37*
D12*
X301642407Y-143237000D03*
D11*
G36*
X300417400Y-142563535D02*
G01*
X300448342Y-142568125D01*
X300478685Y-142575725D01*
X300508137Y-142586263D01*
X300536415Y-142599638D01*
X300563245Y-142615719D01*
X300588370Y-142634353D01*
X300611547Y-142655360D01*
X300632554Y-142678537D01*
X300651188Y-142703662D01*
X300667269Y-142730492D01*
X300680644Y-142758770D01*
X300691182Y-142788222D01*
X300698782Y-142818565D01*
X300703372Y-142849507D01*
X300704907Y-142880750D01*
X300704907Y-143593250D01*
X300703372Y-143624493D01*
X300698782Y-143655435D01*
X300691182Y-143685778D01*
X300680644Y-143715230D01*
X300667269Y-143743508D01*
X300651188Y-143770338D01*
X300632554Y-143795463D01*
X300611547Y-143818640D01*
X300588370Y-143839647D01*
X300563245Y-143858281D01*
X300536415Y-143874362D01*
X300508137Y-143887737D01*
X300478685Y-143898275D01*
X300448342Y-143905875D01*
X300417400Y-143910465D01*
X300386157Y-143912000D01*
X299748657Y-143912000D01*
X299717414Y-143910465D01*
X299686472Y-143905875D01*
X299656129Y-143898275D01*
X299626677Y-143887737D01*
X299598399Y-143874362D01*
X299571569Y-143858281D01*
X299546444Y-143839647D01*
X299523267Y-143818640D01*
X299502260Y-143795463D01*
X299483626Y-143770338D01*
X299467545Y-143743508D01*
X299454170Y-143715230D01*
X299443632Y-143685778D01*
X299436032Y-143655435D01*
X299431442Y-143624493D01*
X299429907Y-143593250D01*
X299429907Y-142880750D01*
X299431442Y-142849507D01*
X299436032Y-142818565D01*
X299443632Y-142788222D01*
X299454170Y-142758770D01*
X299467545Y-142730492D01*
X299483626Y-142703662D01*
X299502260Y-142678537D01*
X299523267Y-142655360D01*
X299546444Y-142634353D01*
X299571569Y-142615719D01*
X299598399Y-142599638D01*
X299626677Y-142586263D01*
X299656129Y-142575725D01*
X299686472Y-142568125D01*
X299717414Y-142563535D01*
X299748657Y-142562000D01*
X300386157Y-142562000D01*
X300417400Y-142563535D01*
X300417400Y-142563535D01*
G37*
D12*
X300067407Y-143237000D03*
D11*
G36*
X285325740Y-142563535D02*
G01*
X285356682Y-142568125D01*
X285387025Y-142575725D01*
X285416477Y-142586263D01*
X285444755Y-142599638D01*
X285471585Y-142615719D01*
X285496710Y-142634353D01*
X285519887Y-142655360D01*
X285540894Y-142678537D01*
X285559528Y-142703662D01*
X285575609Y-142730492D01*
X285588984Y-142758770D01*
X285599522Y-142788222D01*
X285607122Y-142818565D01*
X285611712Y-142849507D01*
X285613247Y-142880750D01*
X285613247Y-143593250D01*
X285611712Y-143624493D01*
X285607122Y-143655435D01*
X285599522Y-143685778D01*
X285588984Y-143715230D01*
X285575609Y-143743508D01*
X285559528Y-143770338D01*
X285540894Y-143795463D01*
X285519887Y-143818640D01*
X285496710Y-143839647D01*
X285471585Y-143858281D01*
X285444755Y-143874362D01*
X285416477Y-143887737D01*
X285387025Y-143898275D01*
X285356682Y-143905875D01*
X285325740Y-143910465D01*
X285294497Y-143912000D01*
X284656997Y-143912000D01*
X284625754Y-143910465D01*
X284594812Y-143905875D01*
X284564469Y-143898275D01*
X284535017Y-143887737D01*
X284506739Y-143874362D01*
X284479909Y-143858281D01*
X284454784Y-143839647D01*
X284431607Y-143818640D01*
X284410600Y-143795463D01*
X284391966Y-143770338D01*
X284375885Y-143743508D01*
X284362510Y-143715230D01*
X284351972Y-143685778D01*
X284344372Y-143655435D01*
X284339782Y-143624493D01*
X284338247Y-143593250D01*
X284338247Y-142880750D01*
X284339782Y-142849507D01*
X284344372Y-142818565D01*
X284351972Y-142788222D01*
X284362510Y-142758770D01*
X284375885Y-142730492D01*
X284391966Y-142703662D01*
X284410600Y-142678537D01*
X284431607Y-142655360D01*
X284454784Y-142634353D01*
X284479909Y-142615719D01*
X284506739Y-142599638D01*
X284535017Y-142586263D01*
X284564469Y-142575725D01*
X284594812Y-142568125D01*
X284625754Y-142563535D01*
X284656997Y-142562000D01*
X285294497Y-142562000D01*
X285325740Y-142563535D01*
X285325740Y-142563535D01*
G37*
D12*
X284975747Y-143237000D03*
D11*
G36*
X283750740Y-142563535D02*
G01*
X283781682Y-142568125D01*
X283812025Y-142575725D01*
X283841477Y-142586263D01*
X283869755Y-142599638D01*
X283896585Y-142615719D01*
X283921710Y-142634353D01*
X283944887Y-142655360D01*
X283965894Y-142678537D01*
X283984528Y-142703662D01*
X284000609Y-142730492D01*
X284013984Y-142758770D01*
X284024522Y-142788222D01*
X284032122Y-142818565D01*
X284036712Y-142849507D01*
X284038247Y-142880750D01*
X284038247Y-143593250D01*
X284036712Y-143624493D01*
X284032122Y-143655435D01*
X284024522Y-143685778D01*
X284013984Y-143715230D01*
X284000609Y-143743508D01*
X283984528Y-143770338D01*
X283965894Y-143795463D01*
X283944887Y-143818640D01*
X283921710Y-143839647D01*
X283896585Y-143858281D01*
X283869755Y-143874362D01*
X283841477Y-143887737D01*
X283812025Y-143898275D01*
X283781682Y-143905875D01*
X283750740Y-143910465D01*
X283719497Y-143912000D01*
X283081997Y-143912000D01*
X283050754Y-143910465D01*
X283019812Y-143905875D01*
X282989469Y-143898275D01*
X282960017Y-143887737D01*
X282931739Y-143874362D01*
X282904909Y-143858281D01*
X282879784Y-143839647D01*
X282856607Y-143818640D01*
X282835600Y-143795463D01*
X282816966Y-143770338D01*
X282800885Y-143743508D01*
X282787510Y-143715230D01*
X282776972Y-143685778D01*
X282769372Y-143655435D01*
X282764782Y-143624493D01*
X282763247Y-143593250D01*
X282763247Y-142880750D01*
X282764782Y-142849507D01*
X282769372Y-142818565D01*
X282776972Y-142788222D01*
X282787510Y-142758770D01*
X282800885Y-142730492D01*
X282816966Y-142703662D01*
X282835600Y-142678537D01*
X282856607Y-142655360D01*
X282879784Y-142634353D01*
X282904909Y-142615719D01*
X282931739Y-142599638D01*
X282960017Y-142586263D01*
X282989469Y-142575725D01*
X283019812Y-142568125D01*
X283050754Y-142563535D01*
X283081997Y-142562000D01*
X283719497Y-142562000D01*
X283750740Y-142563535D01*
X283750740Y-142563535D01*
G37*
D12*
X283400747Y-143237000D03*
D11*
G36*
X268659080Y-142563535D02*
G01*
X268690022Y-142568125D01*
X268720365Y-142575725D01*
X268749817Y-142586263D01*
X268778095Y-142599638D01*
X268804925Y-142615719D01*
X268830050Y-142634353D01*
X268853227Y-142655360D01*
X268874234Y-142678537D01*
X268892868Y-142703662D01*
X268908949Y-142730492D01*
X268922324Y-142758770D01*
X268932862Y-142788222D01*
X268940462Y-142818565D01*
X268945052Y-142849507D01*
X268946587Y-142880750D01*
X268946587Y-143593250D01*
X268945052Y-143624493D01*
X268940462Y-143655435D01*
X268932862Y-143685778D01*
X268922324Y-143715230D01*
X268908949Y-143743508D01*
X268892868Y-143770338D01*
X268874234Y-143795463D01*
X268853227Y-143818640D01*
X268830050Y-143839647D01*
X268804925Y-143858281D01*
X268778095Y-143874362D01*
X268749817Y-143887737D01*
X268720365Y-143898275D01*
X268690022Y-143905875D01*
X268659080Y-143910465D01*
X268627837Y-143912000D01*
X267990337Y-143912000D01*
X267959094Y-143910465D01*
X267928152Y-143905875D01*
X267897809Y-143898275D01*
X267868357Y-143887737D01*
X267840079Y-143874362D01*
X267813249Y-143858281D01*
X267788124Y-143839647D01*
X267764947Y-143818640D01*
X267743940Y-143795463D01*
X267725306Y-143770338D01*
X267709225Y-143743508D01*
X267695850Y-143715230D01*
X267685312Y-143685778D01*
X267677712Y-143655435D01*
X267673122Y-143624493D01*
X267671587Y-143593250D01*
X267671587Y-142880750D01*
X267673122Y-142849507D01*
X267677712Y-142818565D01*
X267685312Y-142788222D01*
X267695850Y-142758770D01*
X267709225Y-142730492D01*
X267725306Y-142703662D01*
X267743940Y-142678537D01*
X267764947Y-142655360D01*
X267788124Y-142634353D01*
X267813249Y-142615719D01*
X267840079Y-142599638D01*
X267868357Y-142586263D01*
X267897809Y-142575725D01*
X267928152Y-142568125D01*
X267959094Y-142563535D01*
X267990337Y-142562000D01*
X268627837Y-142562000D01*
X268659080Y-142563535D01*
X268659080Y-142563535D01*
G37*
D12*
X268309087Y-143237000D03*
D11*
G36*
X267084080Y-142563535D02*
G01*
X267115022Y-142568125D01*
X267145365Y-142575725D01*
X267174817Y-142586263D01*
X267203095Y-142599638D01*
X267229925Y-142615719D01*
X267255050Y-142634353D01*
X267278227Y-142655360D01*
X267299234Y-142678537D01*
X267317868Y-142703662D01*
X267333949Y-142730492D01*
X267347324Y-142758770D01*
X267357862Y-142788222D01*
X267365462Y-142818565D01*
X267370052Y-142849507D01*
X267371587Y-142880750D01*
X267371587Y-143593250D01*
X267370052Y-143624493D01*
X267365462Y-143655435D01*
X267357862Y-143685778D01*
X267347324Y-143715230D01*
X267333949Y-143743508D01*
X267317868Y-143770338D01*
X267299234Y-143795463D01*
X267278227Y-143818640D01*
X267255050Y-143839647D01*
X267229925Y-143858281D01*
X267203095Y-143874362D01*
X267174817Y-143887737D01*
X267145365Y-143898275D01*
X267115022Y-143905875D01*
X267084080Y-143910465D01*
X267052837Y-143912000D01*
X266415337Y-143912000D01*
X266384094Y-143910465D01*
X266353152Y-143905875D01*
X266322809Y-143898275D01*
X266293357Y-143887737D01*
X266265079Y-143874362D01*
X266238249Y-143858281D01*
X266213124Y-143839647D01*
X266189947Y-143818640D01*
X266168940Y-143795463D01*
X266150306Y-143770338D01*
X266134225Y-143743508D01*
X266120850Y-143715230D01*
X266110312Y-143685778D01*
X266102712Y-143655435D01*
X266098122Y-143624493D01*
X266096587Y-143593250D01*
X266096587Y-142880750D01*
X266098122Y-142849507D01*
X266102712Y-142818565D01*
X266110312Y-142788222D01*
X266120850Y-142758770D01*
X266134225Y-142730492D01*
X266150306Y-142703662D01*
X266168940Y-142678537D01*
X266189947Y-142655360D01*
X266213124Y-142634353D01*
X266238249Y-142615719D01*
X266265079Y-142599638D01*
X266293357Y-142586263D01*
X266322809Y-142575725D01*
X266353152Y-142568125D01*
X266384094Y-142563535D01*
X266415337Y-142562000D01*
X267052837Y-142562000D01*
X267084080Y-142563535D01*
X267084080Y-142563535D01*
G37*
D12*
X266734087Y-143237000D03*
D11*
G36*
X68659160Y-142563535D02*
G01*
X68690102Y-142568125D01*
X68720445Y-142575725D01*
X68749897Y-142586263D01*
X68778175Y-142599638D01*
X68805005Y-142615719D01*
X68830130Y-142634353D01*
X68853307Y-142655360D01*
X68874314Y-142678537D01*
X68892948Y-142703662D01*
X68909029Y-142730492D01*
X68922404Y-142758770D01*
X68932942Y-142788222D01*
X68940542Y-142818565D01*
X68945132Y-142849507D01*
X68946667Y-142880750D01*
X68946667Y-143593250D01*
X68945132Y-143624493D01*
X68940542Y-143655435D01*
X68932942Y-143685778D01*
X68922404Y-143715230D01*
X68909029Y-143743508D01*
X68892948Y-143770338D01*
X68874314Y-143795463D01*
X68853307Y-143818640D01*
X68830130Y-143839647D01*
X68805005Y-143858281D01*
X68778175Y-143874362D01*
X68749897Y-143887737D01*
X68720445Y-143898275D01*
X68690102Y-143905875D01*
X68659160Y-143910465D01*
X68627917Y-143912000D01*
X67990417Y-143912000D01*
X67959174Y-143910465D01*
X67928232Y-143905875D01*
X67897889Y-143898275D01*
X67868437Y-143887737D01*
X67840159Y-143874362D01*
X67813329Y-143858281D01*
X67788204Y-143839647D01*
X67765027Y-143818640D01*
X67744020Y-143795463D01*
X67725386Y-143770338D01*
X67709305Y-143743508D01*
X67695930Y-143715230D01*
X67685392Y-143685778D01*
X67677792Y-143655435D01*
X67673202Y-143624493D01*
X67671667Y-143593250D01*
X67671667Y-142880750D01*
X67673202Y-142849507D01*
X67677792Y-142818565D01*
X67685392Y-142788222D01*
X67695930Y-142758770D01*
X67709305Y-142730492D01*
X67725386Y-142703662D01*
X67744020Y-142678537D01*
X67765027Y-142655360D01*
X67788204Y-142634353D01*
X67813329Y-142615719D01*
X67840159Y-142599638D01*
X67868437Y-142586263D01*
X67897889Y-142575725D01*
X67928232Y-142568125D01*
X67959174Y-142563535D01*
X67990417Y-142562000D01*
X68627917Y-142562000D01*
X68659160Y-142563535D01*
X68659160Y-142563535D01*
G37*
D12*
X68309167Y-143237000D03*
D11*
G36*
X67084160Y-142563535D02*
G01*
X67115102Y-142568125D01*
X67145445Y-142575725D01*
X67174897Y-142586263D01*
X67203175Y-142599638D01*
X67230005Y-142615719D01*
X67255130Y-142634353D01*
X67278307Y-142655360D01*
X67299314Y-142678537D01*
X67317948Y-142703662D01*
X67334029Y-142730492D01*
X67347404Y-142758770D01*
X67357942Y-142788222D01*
X67365542Y-142818565D01*
X67370132Y-142849507D01*
X67371667Y-142880750D01*
X67371667Y-143593250D01*
X67370132Y-143624493D01*
X67365542Y-143655435D01*
X67357942Y-143685778D01*
X67347404Y-143715230D01*
X67334029Y-143743508D01*
X67317948Y-143770338D01*
X67299314Y-143795463D01*
X67278307Y-143818640D01*
X67255130Y-143839647D01*
X67230005Y-143858281D01*
X67203175Y-143874362D01*
X67174897Y-143887737D01*
X67145445Y-143898275D01*
X67115102Y-143905875D01*
X67084160Y-143910465D01*
X67052917Y-143912000D01*
X66415417Y-143912000D01*
X66384174Y-143910465D01*
X66353232Y-143905875D01*
X66322889Y-143898275D01*
X66293437Y-143887737D01*
X66265159Y-143874362D01*
X66238329Y-143858281D01*
X66213204Y-143839647D01*
X66190027Y-143818640D01*
X66169020Y-143795463D01*
X66150386Y-143770338D01*
X66134305Y-143743508D01*
X66120930Y-143715230D01*
X66110392Y-143685778D01*
X66102792Y-143655435D01*
X66098202Y-143624493D01*
X66096667Y-143593250D01*
X66096667Y-142880750D01*
X66098202Y-142849507D01*
X66102792Y-142818565D01*
X66110392Y-142788222D01*
X66120930Y-142758770D01*
X66134305Y-142730492D01*
X66150386Y-142703662D01*
X66169020Y-142678537D01*
X66190027Y-142655360D01*
X66213204Y-142634353D01*
X66238329Y-142615719D01*
X66265159Y-142599638D01*
X66293437Y-142586263D01*
X66322889Y-142575725D01*
X66353232Y-142568125D01*
X66384174Y-142563535D01*
X66415417Y-142562000D01*
X67052917Y-142562000D01*
X67084160Y-142563535D01*
X67084160Y-142563535D01*
G37*
D12*
X66734167Y-143237000D03*
D13*
X338721560Y-149837000D03*
X338721560Y-148237000D03*
X338721560Y-146637000D03*
X333821560Y-149837000D03*
X333821560Y-148237000D03*
X333821560Y-146637000D03*
X322054900Y-149837000D03*
X322054900Y-148237000D03*
X322054900Y-146637000D03*
X317154900Y-149837000D03*
X317154900Y-148237000D03*
X317154900Y-146637000D03*
X305388240Y-149837000D03*
X305388240Y-148237000D03*
X305388240Y-146637000D03*
X300488240Y-149837000D03*
X300488240Y-148237000D03*
X300488240Y-146637000D03*
X288721580Y-149837000D03*
X288721580Y-148237000D03*
X288721580Y-146637000D03*
X283821580Y-149837000D03*
X283821580Y-148237000D03*
X283821580Y-146637000D03*
X272054920Y-149837000D03*
X272054920Y-148237000D03*
X272054920Y-146637000D03*
X267154920Y-149837000D03*
X267154920Y-148237000D03*
X267154920Y-146637000D03*
X72055000Y-149837000D03*
X72055000Y-148237000D03*
X72055000Y-146637000D03*
X67155000Y-149837000D03*
X67155000Y-148237000D03*
X67155000Y-146637000D03*
D11*
G36*
X339492386Y-142563535D02*
G01*
X339523328Y-142568125D01*
X339553671Y-142575725D01*
X339583123Y-142586263D01*
X339611401Y-142599638D01*
X339638231Y-142615719D01*
X339663356Y-142634353D01*
X339686533Y-142655360D01*
X339707540Y-142678537D01*
X339726174Y-142703662D01*
X339742255Y-142730492D01*
X339755630Y-142758770D01*
X339766168Y-142788222D01*
X339773768Y-142818565D01*
X339778358Y-142849507D01*
X339779893Y-142880750D01*
X339779893Y-143593250D01*
X339778358Y-143624493D01*
X339773768Y-143655435D01*
X339766168Y-143685778D01*
X339755630Y-143715230D01*
X339742255Y-143743508D01*
X339726174Y-143770338D01*
X339707540Y-143795463D01*
X339686533Y-143818640D01*
X339663356Y-143839647D01*
X339638231Y-143858281D01*
X339611401Y-143874362D01*
X339583123Y-143887737D01*
X339553671Y-143898275D01*
X339523328Y-143905875D01*
X339492386Y-143910465D01*
X339461143Y-143912000D01*
X338823643Y-143912000D01*
X338792400Y-143910465D01*
X338761458Y-143905875D01*
X338731115Y-143898275D01*
X338701663Y-143887737D01*
X338673385Y-143874362D01*
X338646555Y-143858281D01*
X338621430Y-143839647D01*
X338598253Y-143818640D01*
X338577246Y-143795463D01*
X338558612Y-143770338D01*
X338542531Y-143743508D01*
X338529156Y-143715230D01*
X338518618Y-143685778D01*
X338511018Y-143655435D01*
X338506428Y-143624493D01*
X338504893Y-143593250D01*
X338504893Y-142880750D01*
X338506428Y-142849507D01*
X338511018Y-142818565D01*
X338518618Y-142788222D01*
X338529156Y-142758770D01*
X338542531Y-142730492D01*
X338558612Y-142703662D01*
X338577246Y-142678537D01*
X338598253Y-142655360D01*
X338621430Y-142634353D01*
X338646555Y-142615719D01*
X338673385Y-142599638D01*
X338701663Y-142586263D01*
X338731115Y-142575725D01*
X338761458Y-142568125D01*
X338792400Y-142563535D01*
X338823643Y-142562000D01*
X339461143Y-142562000D01*
X339492386Y-142563535D01*
X339492386Y-142563535D01*
G37*
D12*
X339142393Y-143237000D03*
D11*
G36*
X337917386Y-142563535D02*
G01*
X337948328Y-142568125D01*
X337978671Y-142575725D01*
X338008123Y-142586263D01*
X338036401Y-142599638D01*
X338063231Y-142615719D01*
X338088356Y-142634353D01*
X338111533Y-142655360D01*
X338132540Y-142678537D01*
X338151174Y-142703662D01*
X338167255Y-142730492D01*
X338180630Y-142758770D01*
X338191168Y-142788222D01*
X338198768Y-142818565D01*
X338203358Y-142849507D01*
X338204893Y-142880750D01*
X338204893Y-143593250D01*
X338203358Y-143624493D01*
X338198768Y-143655435D01*
X338191168Y-143685778D01*
X338180630Y-143715230D01*
X338167255Y-143743508D01*
X338151174Y-143770338D01*
X338132540Y-143795463D01*
X338111533Y-143818640D01*
X338088356Y-143839647D01*
X338063231Y-143858281D01*
X338036401Y-143874362D01*
X338008123Y-143887737D01*
X337978671Y-143898275D01*
X337948328Y-143905875D01*
X337917386Y-143910465D01*
X337886143Y-143912000D01*
X337248643Y-143912000D01*
X337217400Y-143910465D01*
X337186458Y-143905875D01*
X337156115Y-143898275D01*
X337126663Y-143887737D01*
X337098385Y-143874362D01*
X337071555Y-143858281D01*
X337046430Y-143839647D01*
X337023253Y-143818640D01*
X337002246Y-143795463D01*
X336983612Y-143770338D01*
X336967531Y-143743508D01*
X336954156Y-143715230D01*
X336943618Y-143685778D01*
X336936018Y-143655435D01*
X336931428Y-143624493D01*
X336929893Y-143593250D01*
X336929893Y-142880750D01*
X336931428Y-142849507D01*
X336936018Y-142818565D01*
X336943618Y-142788222D01*
X336954156Y-142758770D01*
X336967531Y-142730492D01*
X336983612Y-142703662D01*
X337002246Y-142678537D01*
X337023253Y-142655360D01*
X337046430Y-142634353D01*
X337071555Y-142615719D01*
X337098385Y-142599638D01*
X337126663Y-142586263D01*
X337156115Y-142575725D01*
X337186458Y-142568125D01*
X337217400Y-142563535D01*
X337248643Y-142562000D01*
X337886143Y-142562000D01*
X337917386Y-142563535D01*
X337917386Y-142563535D01*
G37*
D12*
X337567393Y-143237000D03*
D11*
G36*
X322825726Y-142563535D02*
G01*
X322856668Y-142568125D01*
X322887011Y-142575725D01*
X322916463Y-142586263D01*
X322944741Y-142599638D01*
X322971571Y-142615719D01*
X322996696Y-142634353D01*
X323019873Y-142655360D01*
X323040880Y-142678537D01*
X323059514Y-142703662D01*
X323075595Y-142730492D01*
X323088970Y-142758770D01*
X323099508Y-142788222D01*
X323107108Y-142818565D01*
X323111698Y-142849507D01*
X323113233Y-142880750D01*
X323113233Y-143593250D01*
X323111698Y-143624493D01*
X323107108Y-143655435D01*
X323099508Y-143685778D01*
X323088970Y-143715230D01*
X323075595Y-143743508D01*
X323059514Y-143770338D01*
X323040880Y-143795463D01*
X323019873Y-143818640D01*
X322996696Y-143839647D01*
X322971571Y-143858281D01*
X322944741Y-143874362D01*
X322916463Y-143887737D01*
X322887011Y-143898275D01*
X322856668Y-143905875D01*
X322825726Y-143910465D01*
X322794483Y-143912000D01*
X322156983Y-143912000D01*
X322125740Y-143910465D01*
X322094798Y-143905875D01*
X322064455Y-143898275D01*
X322035003Y-143887737D01*
X322006725Y-143874362D01*
X321979895Y-143858281D01*
X321954770Y-143839647D01*
X321931593Y-143818640D01*
X321910586Y-143795463D01*
X321891952Y-143770338D01*
X321875871Y-143743508D01*
X321862496Y-143715230D01*
X321851958Y-143685778D01*
X321844358Y-143655435D01*
X321839768Y-143624493D01*
X321838233Y-143593250D01*
X321838233Y-142880750D01*
X321839768Y-142849507D01*
X321844358Y-142818565D01*
X321851958Y-142788222D01*
X321862496Y-142758770D01*
X321875871Y-142730492D01*
X321891952Y-142703662D01*
X321910586Y-142678537D01*
X321931593Y-142655360D01*
X321954770Y-142634353D01*
X321979895Y-142615719D01*
X322006725Y-142599638D01*
X322035003Y-142586263D01*
X322064455Y-142575725D01*
X322094798Y-142568125D01*
X322125740Y-142563535D01*
X322156983Y-142562000D01*
X322794483Y-142562000D01*
X322825726Y-142563535D01*
X322825726Y-142563535D01*
G37*
D12*
X322475733Y-143237000D03*
D11*
G36*
X321250726Y-142563535D02*
G01*
X321281668Y-142568125D01*
X321312011Y-142575725D01*
X321341463Y-142586263D01*
X321369741Y-142599638D01*
X321396571Y-142615719D01*
X321421696Y-142634353D01*
X321444873Y-142655360D01*
X321465880Y-142678537D01*
X321484514Y-142703662D01*
X321500595Y-142730492D01*
X321513970Y-142758770D01*
X321524508Y-142788222D01*
X321532108Y-142818565D01*
X321536698Y-142849507D01*
X321538233Y-142880750D01*
X321538233Y-143593250D01*
X321536698Y-143624493D01*
X321532108Y-143655435D01*
X321524508Y-143685778D01*
X321513970Y-143715230D01*
X321500595Y-143743508D01*
X321484514Y-143770338D01*
X321465880Y-143795463D01*
X321444873Y-143818640D01*
X321421696Y-143839647D01*
X321396571Y-143858281D01*
X321369741Y-143874362D01*
X321341463Y-143887737D01*
X321312011Y-143898275D01*
X321281668Y-143905875D01*
X321250726Y-143910465D01*
X321219483Y-143912000D01*
X320581983Y-143912000D01*
X320550740Y-143910465D01*
X320519798Y-143905875D01*
X320489455Y-143898275D01*
X320460003Y-143887737D01*
X320431725Y-143874362D01*
X320404895Y-143858281D01*
X320379770Y-143839647D01*
X320356593Y-143818640D01*
X320335586Y-143795463D01*
X320316952Y-143770338D01*
X320300871Y-143743508D01*
X320287496Y-143715230D01*
X320276958Y-143685778D01*
X320269358Y-143655435D01*
X320264768Y-143624493D01*
X320263233Y-143593250D01*
X320263233Y-142880750D01*
X320264768Y-142849507D01*
X320269358Y-142818565D01*
X320276958Y-142788222D01*
X320287496Y-142758770D01*
X320300871Y-142730492D01*
X320316952Y-142703662D01*
X320335586Y-142678537D01*
X320356593Y-142655360D01*
X320379770Y-142634353D01*
X320404895Y-142615719D01*
X320431725Y-142599638D01*
X320460003Y-142586263D01*
X320489455Y-142575725D01*
X320519798Y-142568125D01*
X320550740Y-142563535D01*
X320581983Y-142562000D01*
X321219483Y-142562000D01*
X321250726Y-142563535D01*
X321250726Y-142563535D01*
G37*
D12*
X320900733Y-143237000D03*
D11*
G36*
X306159066Y-142563535D02*
G01*
X306190008Y-142568125D01*
X306220351Y-142575725D01*
X306249803Y-142586263D01*
X306278081Y-142599638D01*
X306304911Y-142615719D01*
X306330036Y-142634353D01*
X306353213Y-142655360D01*
X306374220Y-142678537D01*
X306392854Y-142703662D01*
X306408935Y-142730492D01*
X306422310Y-142758770D01*
X306432848Y-142788222D01*
X306440448Y-142818565D01*
X306445038Y-142849507D01*
X306446573Y-142880750D01*
X306446573Y-143593250D01*
X306445038Y-143624493D01*
X306440448Y-143655435D01*
X306432848Y-143685778D01*
X306422310Y-143715230D01*
X306408935Y-143743508D01*
X306392854Y-143770338D01*
X306374220Y-143795463D01*
X306353213Y-143818640D01*
X306330036Y-143839647D01*
X306304911Y-143858281D01*
X306278081Y-143874362D01*
X306249803Y-143887737D01*
X306220351Y-143898275D01*
X306190008Y-143905875D01*
X306159066Y-143910465D01*
X306127823Y-143912000D01*
X305490323Y-143912000D01*
X305459080Y-143910465D01*
X305428138Y-143905875D01*
X305397795Y-143898275D01*
X305368343Y-143887737D01*
X305340065Y-143874362D01*
X305313235Y-143858281D01*
X305288110Y-143839647D01*
X305264933Y-143818640D01*
X305243926Y-143795463D01*
X305225292Y-143770338D01*
X305209211Y-143743508D01*
X305195836Y-143715230D01*
X305185298Y-143685778D01*
X305177698Y-143655435D01*
X305173108Y-143624493D01*
X305171573Y-143593250D01*
X305171573Y-142880750D01*
X305173108Y-142849507D01*
X305177698Y-142818565D01*
X305185298Y-142788222D01*
X305195836Y-142758770D01*
X305209211Y-142730492D01*
X305225292Y-142703662D01*
X305243926Y-142678537D01*
X305264933Y-142655360D01*
X305288110Y-142634353D01*
X305313235Y-142615719D01*
X305340065Y-142599638D01*
X305368343Y-142586263D01*
X305397795Y-142575725D01*
X305428138Y-142568125D01*
X305459080Y-142563535D01*
X305490323Y-142562000D01*
X306127823Y-142562000D01*
X306159066Y-142563535D01*
X306159066Y-142563535D01*
G37*
D12*
X305809073Y-143237000D03*
D11*
G36*
X304584066Y-142563535D02*
G01*
X304615008Y-142568125D01*
X304645351Y-142575725D01*
X304674803Y-142586263D01*
X304703081Y-142599638D01*
X304729911Y-142615719D01*
X304755036Y-142634353D01*
X304778213Y-142655360D01*
X304799220Y-142678537D01*
X304817854Y-142703662D01*
X304833935Y-142730492D01*
X304847310Y-142758770D01*
X304857848Y-142788222D01*
X304865448Y-142818565D01*
X304870038Y-142849507D01*
X304871573Y-142880750D01*
X304871573Y-143593250D01*
X304870038Y-143624493D01*
X304865448Y-143655435D01*
X304857848Y-143685778D01*
X304847310Y-143715230D01*
X304833935Y-143743508D01*
X304817854Y-143770338D01*
X304799220Y-143795463D01*
X304778213Y-143818640D01*
X304755036Y-143839647D01*
X304729911Y-143858281D01*
X304703081Y-143874362D01*
X304674803Y-143887737D01*
X304645351Y-143898275D01*
X304615008Y-143905875D01*
X304584066Y-143910465D01*
X304552823Y-143912000D01*
X303915323Y-143912000D01*
X303884080Y-143910465D01*
X303853138Y-143905875D01*
X303822795Y-143898275D01*
X303793343Y-143887737D01*
X303765065Y-143874362D01*
X303738235Y-143858281D01*
X303713110Y-143839647D01*
X303689933Y-143818640D01*
X303668926Y-143795463D01*
X303650292Y-143770338D01*
X303634211Y-143743508D01*
X303620836Y-143715230D01*
X303610298Y-143685778D01*
X303602698Y-143655435D01*
X303598108Y-143624493D01*
X303596573Y-143593250D01*
X303596573Y-142880750D01*
X303598108Y-142849507D01*
X303602698Y-142818565D01*
X303610298Y-142788222D01*
X303620836Y-142758770D01*
X303634211Y-142730492D01*
X303650292Y-142703662D01*
X303668926Y-142678537D01*
X303689933Y-142655360D01*
X303713110Y-142634353D01*
X303738235Y-142615719D01*
X303765065Y-142599638D01*
X303793343Y-142586263D01*
X303822795Y-142575725D01*
X303853138Y-142568125D01*
X303884080Y-142563535D01*
X303915323Y-142562000D01*
X304552823Y-142562000D01*
X304584066Y-142563535D01*
X304584066Y-142563535D01*
G37*
D12*
X304234073Y-143237000D03*
D11*
G36*
X289492406Y-142563535D02*
G01*
X289523348Y-142568125D01*
X289553691Y-142575725D01*
X289583143Y-142586263D01*
X289611421Y-142599638D01*
X289638251Y-142615719D01*
X289663376Y-142634353D01*
X289686553Y-142655360D01*
X289707560Y-142678537D01*
X289726194Y-142703662D01*
X289742275Y-142730492D01*
X289755650Y-142758770D01*
X289766188Y-142788222D01*
X289773788Y-142818565D01*
X289778378Y-142849507D01*
X289779913Y-142880750D01*
X289779913Y-143593250D01*
X289778378Y-143624493D01*
X289773788Y-143655435D01*
X289766188Y-143685778D01*
X289755650Y-143715230D01*
X289742275Y-143743508D01*
X289726194Y-143770338D01*
X289707560Y-143795463D01*
X289686553Y-143818640D01*
X289663376Y-143839647D01*
X289638251Y-143858281D01*
X289611421Y-143874362D01*
X289583143Y-143887737D01*
X289553691Y-143898275D01*
X289523348Y-143905875D01*
X289492406Y-143910465D01*
X289461163Y-143912000D01*
X288823663Y-143912000D01*
X288792420Y-143910465D01*
X288761478Y-143905875D01*
X288731135Y-143898275D01*
X288701683Y-143887737D01*
X288673405Y-143874362D01*
X288646575Y-143858281D01*
X288621450Y-143839647D01*
X288598273Y-143818640D01*
X288577266Y-143795463D01*
X288558632Y-143770338D01*
X288542551Y-143743508D01*
X288529176Y-143715230D01*
X288518638Y-143685778D01*
X288511038Y-143655435D01*
X288506448Y-143624493D01*
X288504913Y-143593250D01*
X288504913Y-142880750D01*
X288506448Y-142849507D01*
X288511038Y-142818565D01*
X288518638Y-142788222D01*
X288529176Y-142758770D01*
X288542551Y-142730492D01*
X288558632Y-142703662D01*
X288577266Y-142678537D01*
X288598273Y-142655360D01*
X288621450Y-142634353D01*
X288646575Y-142615719D01*
X288673405Y-142599638D01*
X288701683Y-142586263D01*
X288731135Y-142575725D01*
X288761478Y-142568125D01*
X288792420Y-142563535D01*
X288823663Y-142562000D01*
X289461163Y-142562000D01*
X289492406Y-142563535D01*
X289492406Y-142563535D01*
G37*
D12*
X289142413Y-143237000D03*
D11*
G36*
X287917406Y-142563535D02*
G01*
X287948348Y-142568125D01*
X287978691Y-142575725D01*
X288008143Y-142586263D01*
X288036421Y-142599638D01*
X288063251Y-142615719D01*
X288088376Y-142634353D01*
X288111553Y-142655360D01*
X288132560Y-142678537D01*
X288151194Y-142703662D01*
X288167275Y-142730492D01*
X288180650Y-142758770D01*
X288191188Y-142788222D01*
X288198788Y-142818565D01*
X288203378Y-142849507D01*
X288204913Y-142880750D01*
X288204913Y-143593250D01*
X288203378Y-143624493D01*
X288198788Y-143655435D01*
X288191188Y-143685778D01*
X288180650Y-143715230D01*
X288167275Y-143743508D01*
X288151194Y-143770338D01*
X288132560Y-143795463D01*
X288111553Y-143818640D01*
X288088376Y-143839647D01*
X288063251Y-143858281D01*
X288036421Y-143874362D01*
X288008143Y-143887737D01*
X287978691Y-143898275D01*
X287948348Y-143905875D01*
X287917406Y-143910465D01*
X287886163Y-143912000D01*
X287248663Y-143912000D01*
X287217420Y-143910465D01*
X287186478Y-143905875D01*
X287156135Y-143898275D01*
X287126683Y-143887737D01*
X287098405Y-143874362D01*
X287071575Y-143858281D01*
X287046450Y-143839647D01*
X287023273Y-143818640D01*
X287002266Y-143795463D01*
X286983632Y-143770338D01*
X286967551Y-143743508D01*
X286954176Y-143715230D01*
X286943638Y-143685778D01*
X286936038Y-143655435D01*
X286931448Y-143624493D01*
X286929913Y-143593250D01*
X286929913Y-142880750D01*
X286931448Y-142849507D01*
X286936038Y-142818565D01*
X286943638Y-142788222D01*
X286954176Y-142758770D01*
X286967551Y-142730492D01*
X286983632Y-142703662D01*
X287002266Y-142678537D01*
X287023273Y-142655360D01*
X287046450Y-142634353D01*
X287071575Y-142615719D01*
X287098405Y-142599638D01*
X287126683Y-142586263D01*
X287156135Y-142575725D01*
X287186478Y-142568125D01*
X287217420Y-142563535D01*
X287248663Y-142562000D01*
X287886163Y-142562000D01*
X287917406Y-142563535D01*
X287917406Y-142563535D01*
G37*
D12*
X287567413Y-143237000D03*
D11*
G36*
X272825746Y-142563535D02*
G01*
X272856688Y-142568125D01*
X272887031Y-142575725D01*
X272916483Y-142586263D01*
X272944761Y-142599638D01*
X272971591Y-142615719D01*
X272996716Y-142634353D01*
X273019893Y-142655360D01*
X273040900Y-142678537D01*
X273059534Y-142703662D01*
X273075615Y-142730492D01*
X273088990Y-142758770D01*
X273099528Y-142788222D01*
X273107128Y-142818565D01*
X273111718Y-142849507D01*
X273113253Y-142880750D01*
X273113253Y-143593250D01*
X273111718Y-143624493D01*
X273107128Y-143655435D01*
X273099528Y-143685778D01*
X273088990Y-143715230D01*
X273075615Y-143743508D01*
X273059534Y-143770338D01*
X273040900Y-143795463D01*
X273019893Y-143818640D01*
X272996716Y-143839647D01*
X272971591Y-143858281D01*
X272944761Y-143874362D01*
X272916483Y-143887737D01*
X272887031Y-143898275D01*
X272856688Y-143905875D01*
X272825746Y-143910465D01*
X272794503Y-143912000D01*
X272157003Y-143912000D01*
X272125760Y-143910465D01*
X272094818Y-143905875D01*
X272064475Y-143898275D01*
X272035023Y-143887737D01*
X272006745Y-143874362D01*
X271979915Y-143858281D01*
X271954790Y-143839647D01*
X271931613Y-143818640D01*
X271910606Y-143795463D01*
X271891972Y-143770338D01*
X271875891Y-143743508D01*
X271862516Y-143715230D01*
X271851978Y-143685778D01*
X271844378Y-143655435D01*
X271839788Y-143624493D01*
X271838253Y-143593250D01*
X271838253Y-142880750D01*
X271839788Y-142849507D01*
X271844378Y-142818565D01*
X271851978Y-142788222D01*
X271862516Y-142758770D01*
X271875891Y-142730492D01*
X271891972Y-142703662D01*
X271910606Y-142678537D01*
X271931613Y-142655360D01*
X271954790Y-142634353D01*
X271979915Y-142615719D01*
X272006745Y-142599638D01*
X272035023Y-142586263D01*
X272064475Y-142575725D01*
X272094818Y-142568125D01*
X272125760Y-142563535D01*
X272157003Y-142562000D01*
X272794503Y-142562000D01*
X272825746Y-142563535D01*
X272825746Y-142563535D01*
G37*
D12*
X272475753Y-143237000D03*
D11*
G36*
X271250746Y-142563535D02*
G01*
X271281688Y-142568125D01*
X271312031Y-142575725D01*
X271341483Y-142586263D01*
X271369761Y-142599638D01*
X271396591Y-142615719D01*
X271421716Y-142634353D01*
X271444893Y-142655360D01*
X271465900Y-142678537D01*
X271484534Y-142703662D01*
X271500615Y-142730492D01*
X271513990Y-142758770D01*
X271524528Y-142788222D01*
X271532128Y-142818565D01*
X271536718Y-142849507D01*
X271538253Y-142880750D01*
X271538253Y-143593250D01*
X271536718Y-143624493D01*
X271532128Y-143655435D01*
X271524528Y-143685778D01*
X271513990Y-143715230D01*
X271500615Y-143743508D01*
X271484534Y-143770338D01*
X271465900Y-143795463D01*
X271444893Y-143818640D01*
X271421716Y-143839647D01*
X271396591Y-143858281D01*
X271369761Y-143874362D01*
X271341483Y-143887737D01*
X271312031Y-143898275D01*
X271281688Y-143905875D01*
X271250746Y-143910465D01*
X271219503Y-143912000D01*
X270582003Y-143912000D01*
X270550760Y-143910465D01*
X270519818Y-143905875D01*
X270489475Y-143898275D01*
X270460023Y-143887737D01*
X270431745Y-143874362D01*
X270404915Y-143858281D01*
X270379790Y-143839647D01*
X270356613Y-143818640D01*
X270335606Y-143795463D01*
X270316972Y-143770338D01*
X270300891Y-143743508D01*
X270287516Y-143715230D01*
X270276978Y-143685778D01*
X270269378Y-143655435D01*
X270264788Y-143624493D01*
X270263253Y-143593250D01*
X270263253Y-142880750D01*
X270264788Y-142849507D01*
X270269378Y-142818565D01*
X270276978Y-142788222D01*
X270287516Y-142758770D01*
X270300891Y-142730492D01*
X270316972Y-142703662D01*
X270335606Y-142678537D01*
X270356613Y-142655360D01*
X270379790Y-142634353D01*
X270404915Y-142615719D01*
X270431745Y-142599638D01*
X270460023Y-142586263D01*
X270489475Y-142575725D01*
X270519818Y-142568125D01*
X270550760Y-142563535D01*
X270582003Y-142562000D01*
X271219503Y-142562000D01*
X271250746Y-142563535D01*
X271250746Y-142563535D01*
G37*
D12*
X270900753Y-143237000D03*
D11*
G36*
X72825826Y-142563535D02*
G01*
X72856768Y-142568125D01*
X72887111Y-142575725D01*
X72916563Y-142586263D01*
X72944841Y-142599638D01*
X72971671Y-142615719D01*
X72996796Y-142634353D01*
X73019973Y-142655360D01*
X73040980Y-142678537D01*
X73059614Y-142703662D01*
X73075695Y-142730492D01*
X73089070Y-142758770D01*
X73099608Y-142788222D01*
X73107208Y-142818565D01*
X73111798Y-142849507D01*
X73113333Y-142880750D01*
X73113333Y-143593250D01*
X73111798Y-143624493D01*
X73107208Y-143655435D01*
X73099608Y-143685778D01*
X73089070Y-143715230D01*
X73075695Y-143743508D01*
X73059614Y-143770338D01*
X73040980Y-143795463D01*
X73019973Y-143818640D01*
X72996796Y-143839647D01*
X72971671Y-143858281D01*
X72944841Y-143874362D01*
X72916563Y-143887737D01*
X72887111Y-143898275D01*
X72856768Y-143905875D01*
X72825826Y-143910465D01*
X72794583Y-143912000D01*
X72157083Y-143912000D01*
X72125840Y-143910465D01*
X72094898Y-143905875D01*
X72064555Y-143898275D01*
X72035103Y-143887737D01*
X72006825Y-143874362D01*
X71979995Y-143858281D01*
X71954870Y-143839647D01*
X71931693Y-143818640D01*
X71910686Y-143795463D01*
X71892052Y-143770338D01*
X71875971Y-143743508D01*
X71862596Y-143715230D01*
X71852058Y-143685778D01*
X71844458Y-143655435D01*
X71839868Y-143624493D01*
X71838333Y-143593250D01*
X71838333Y-142880750D01*
X71839868Y-142849507D01*
X71844458Y-142818565D01*
X71852058Y-142788222D01*
X71862596Y-142758770D01*
X71875971Y-142730492D01*
X71892052Y-142703662D01*
X71910686Y-142678537D01*
X71931693Y-142655360D01*
X71954870Y-142634353D01*
X71979995Y-142615719D01*
X72006825Y-142599638D01*
X72035103Y-142586263D01*
X72064555Y-142575725D01*
X72094898Y-142568125D01*
X72125840Y-142563535D01*
X72157083Y-142562000D01*
X72794583Y-142562000D01*
X72825826Y-142563535D01*
X72825826Y-142563535D01*
G37*
D12*
X72475833Y-143237000D03*
D11*
G36*
X71250826Y-142563535D02*
G01*
X71281768Y-142568125D01*
X71312111Y-142575725D01*
X71341563Y-142586263D01*
X71369841Y-142599638D01*
X71396671Y-142615719D01*
X71421796Y-142634353D01*
X71444973Y-142655360D01*
X71465980Y-142678537D01*
X71484614Y-142703662D01*
X71500695Y-142730492D01*
X71514070Y-142758770D01*
X71524608Y-142788222D01*
X71532208Y-142818565D01*
X71536798Y-142849507D01*
X71538333Y-142880750D01*
X71538333Y-143593250D01*
X71536798Y-143624493D01*
X71532208Y-143655435D01*
X71524608Y-143685778D01*
X71514070Y-143715230D01*
X71500695Y-143743508D01*
X71484614Y-143770338D01*
X71465980Y-143795463D01*
X71444973Y-143818640D01*
X71421796Y-143839647D01*
X71396671Y-143858281D01*
X71369841Y-143874362D01*
X71341563Y-143887737D01*
X71312111Y-143898275D01*
X71281768Y-143905875D01*
X71250826Y-143910465D01*
X71219583Y-143912000D01*
X70582083Y-143912000D01*
X70550840Y-143910465D01*
X70519898Y-143905875D01*
X70489555Y-143898275D01*
X70460103Y-143887737D01*
X70431825Y-143874362D01*
X70404995Y-143858281D01*
X70379870Y-143839647D01*
X70356693Y-143818640D01*
X70335686Y-143795463D01*
X70317052Y-143770338D01*
X70300971Y-143743508D01*
X70287596Y-143715230D01*
X70277058Y-143685778D01*
X70269458Y-143655435D01*
X70264868Y-143624493D01*
X70263333Y-143593250D01*
X70263333Y-142880750D01*
X70264868Y-142849507D01*
X70269458Y-142818565D01*
X70277058Y-142788222D01*
X70287596Y-142758770D01*
X70300971Y-142730492D01*
X70317052Y-142703662D01*
X70335686Y-142678537D01*
X70356693Y-142655360D01*
X70379870Y-142634353D01*
X70404995Y-142615719D01*
X70431825Y-142599638D01*
X70460103Y-142586263D01*
X70489555Y-142575725D01*
X70519898Y-142568125D01*
X70550840Y-142563535D01*
X70582083Y-142562000D01*
X71219583Y-142562000D01*
X71250826Y-142563535D01*
X71250826Y-142563535D01*
G37*
D12*
X70900833Y-143237000D03*
D11*
G36*
X251992420Y-142563535D02*
G01*
X252023362Y-142568125D01*
X252053705Y-142575725D01*
X252083157Y-142586263D01*
X252111435Y-142599638D01*
X252138265Y-142615719D01*
X252163390Y-142634353D01*
X252186567Y-142655360D01*
X252207574Y-142678537D01*
X252226208Y-142703662D01*
X252242289Y-142730492D01*
X252255664Y-142758770D01*
X252266202Y-142788222D01*
X252273802Y-142818565D01*
X252278392Y-142849507D01*
X252279927Y-142880750D01*
X252279927Y-143593250D01*
X252278392Y-143624493D01*
X252273802Y-143655435D01*
X252266202Y-143685778D01*
X252255664Y-143715230D01*
X252242289Y-143743508D01*
X252226208Y-143770338D01*
X252207574Y-143795463D01*
X252186567Y-143818640D01*
X252163390Y-143839647D01*
X252138265Y-143858281D01*
X252111435Y-143874362D01*
X252083157Y-143887737D01*
X252053705Y-143898275D01*
X252023362Y-143905875D01*
X251992420Y-143910465D01*
X251961177Y-143912000D01*
X251323677Y-143912000D01*
X251292434Y-143910465D01*
X251261492Y-143905875D01*
X251231149Y-143898275D01*
X251201697Y-143887737D01*
X251173419Y-143874362D01*
X251146589Y-143858281D01*
X251121464Y-143839647D01*
X251098287Y-143818640D01*
X251077280Y-143795463D01*
X251058646Y-143770338D01*
X251042565Y-143743508D01*
X251029190Y-143715230D01*
X251018652Y-143685778D01*
X251011052Y-143655435D01*
X251006462Y-143624493D01*
X251004927Y-143593250D01*
X251004927Y-142880750D01*
X251006462Y-142849507D01*
X251011052Y-142818565D01*
X251018652Y-142788222D01*
X251029190Y-142758770D01*
X251042565Y-142730492D01*
X251058646Y-142703662D01*
X251077280Y-142678537D01*
X251098287Y-142655360D01*
X251121464Y-142634353D01*
X251146589Y-142615719D01*
X251173419Y-142599638D01*
X251201697Y-142586263D01*
X251231149Y-142575725D01*
X251261492Y-142568125D01*
X251292434Y-142563535D01*
X251323677Y-142562000D01*
X251961177Y-142562000D01*
X251992420Y-142563535D01*
X251992420Y-142563535D01*
G37*
D12*
X251642427Y-143237000D03*
D11*
G36*
X250417420Y-142563535D02*
G01*
X250448362Y-142568125D01*
X250478705Y-142575725D01*
X250508157Y-142586263D01*
X250536435Y-142599638D01*
X250563265Y-142615719D01*
X250588390Y-142634353D01*
X250611567Y-142655360D01*
X250632574Y-142678537D01*
X250651208Y-142703662D01*
X250667289Y-142730492D01*
X250680664Y-142758770D01*
X250691202Y-142788222D01*
X250698802Y-142818565D01*
X250703392Y-142849507D01*
X250704927Y-142880750D01*
X250704927Y-143593250D01*
X250703392Y-143624493D01*
X250698802Y-143655435D01*
X250691202Y-143685778D01*
X250680664Y-143715230D01*
X250667289Y-143743508D01*
X250651208Y-143770338D01*
X250632574Y-143795463D01*
X250611567Y-143818640D01*
X250588390Y-143839647D01*
X250563265Y-143858281D01*
X250536435Y-143874362D01*
X250508157Y-143887737D01*
X250478705Y-143898275D01*
X250448362Y-143905875D01*
X250417420Y-143910465D01*
X250386177Y-143912000D01*
X249748677Y-143912000D01*
X249717434Y-143910465D01*
X249686492Y-143905875D01*
X249656149Y-143898275D01*
X249626697Y-143887737D01*
X249598419Y-143874362D01*
X249571589Y-143858281D01*
X249546464Y-143839647D01*
X249523287Y-143818640D01*
X249502280Y-143795463D01*
X249483646Y-143770338D01*
X249467565Y-143743508D01*
X249454190Y-143715230D01*
X249443652Y-143685778D01*
X249436052Y-143655435D01*
X249431462Y-143624493D01*
X249429927Y-143593250D01*
X249429927Y-142880750D01*
X249431462Y-142849507D01*
X249436052Y-142818565D01*
X249443652Y-142788222D01*
X249454190Y-142758770D01*
X249467565Y-142730492D01*
X249483646Y-142703662D01*
X249502280Y-142678537D01*
X249523287Y-142655360D01*
X249546464Y-142634353D01*
X249571589Y-142615719D01*
X249598419Y-142599638D01*
X249626697Y-142586263D01*
X249656149Y-142575725D01*
X249686492Y-142568125D01*
X249717434Y-142563535D01*
X249748677Y-142562000D01*
X250386177Y-142562000D01*
X250417420Y-142563535D01*
X250417420Y-142563535D01*
G37*
D12*
X250067427Y-143237000D03*
D11*
G36*
X235325760Y-142563535D02*
G01*
X235356702Y-142568125D01*
X235387045Y-142575725D01*
X235416497Y-142586263D01*
X235444775Y-142599638D01*
X235471605Y-142615719D01*
X235496730Y-142634353D01*
X235519907Y-142655360D01*
X235540914Y-142678537D01*
X235559548Y-142703662D01*
X235575629Y-142730492D01*
X235589004Y-142758770D01*
X235599542Y-142788222D01*
X235607142Y-142818565D01*
X235611732Y-142849507D01*
X235613267Y-142880750D01*
X235613267Y-143593250D01*
X235611732Y-143624493D01*
X235607142Y-143655435D01*
X235599542Y-143685778D01*
X235589004Y-143715230D01*
X235575629Y-143743508D01*
X235559548Y-143770338D01*
X235540914Y-143795463D01*
X235519907Y-143818640D01*
X235496730Y-143839647D01*
X235471605Y-143858281D01*
X235444775Y-143874362D01*
X235416497Y-143887737D01*
X235387045Y-143898275D01*
X235356702Y-143905875D01*
X235325760Y-143910465D01*
X235294517Y-143912000D01*
X234657017Y-143912000D01*
X234625774Y-143910465D01*
X234594832Y-143905875D01*
X234564489Y-143898275D01*
X234535037Y-143887737D01*
X234506759Y-143874362D01*
X234479929Y-143858281D01*
X234454804Y-143839647D01*
X234431627Y-143818640D01*
X234410620Y-143795463D01*
X234391986Y-143770338D01*
X234375905Y-143743508D01*
X234362530Y-143715230D01*
X234351992Y-143685778D01*
X234344392Y-143655435D01*
X234339802Y-143624493D01*
X234338267Y-143593250D01*
X234338267Y-142880750D01*
X234339802Y-142849507D01*
X234344392Y-142818565D01*
X234351992Y-142788222D01*
X234362530Y-142758770D01*
X234375905Y-142730492D01*
X234391986Y-142703662D01*
X234410620Y-142678537D01*
X234431627Y-142655360D01*
X234454804Y-142634353D01*
X234479929Y-142615719D01*
X234506759Y-142599638D01*
X234535037Y-142586263D01*
X234564489Y-142575725D01*
X234594832Y-142568125D01*
X234625774Y-142563535D01*
X234657017Y-142562000D01*
X235294517Y-142562000D01*
X235325760Y-142563535D01*
X235325760Y-142563535D01*
G37*
D12*
X234975767Y-143237000D03*
D11*
G36*
X233750760Y-142563535D02*
G01*
X233781702Y-142568125D01*
X233812045Y-142575725D01*
X233841497Y-142586263D01*
X233869775Y-142599638D01*
X233896605Y-142615719D01*
X233921730Y-142634353D01*
X233944907Y-142655360D01*
X233965914Y-142678537D01*
X233984548Y-142703662D01*
X234000629Y-142730492D01*
X234014004Y-142758770D01*
X234024542Y-142788222D01*
X234032142Y-142818565D01*
X234036732Y-142849507D01*
X234038267Y-142880750D01*
X234038267Y-143593250D01*
X234036732Y-143624493D01*
X234032142Y-143655435D01*
X234024542Y-143685778D01*
X234014004Y-143715230D01*
X234000629Y-143743508D01*
X233984548Y-143770338D01*
X233965914Y-143795463D01*
X233944907Y-143818640D01*
X233921730Y-143839647D01*
X233896605Y-143858281D01*
X233869775Y-143874362D01*
X233841497Y-143887737D01*
X233812045Y-143898275D01*
X233781702Y-143905875D01*
X233750760Y-143910465D01*
X233719517Y-143912000D01*
X233082017Y-143912000D01*
X233050774Y-143910465D01*
X233019832Y-143905875D01*
X232989489Y-143898275D01*
X232960037Y-143887737D01*
X232931759Y-143874362D01*
X232904929Y-143858281D01*
X232879804Y-143839647D01*
X232856627Y-143818640D01*
X232835620Y-143795463D01*
X232816986Y-143770338D01*
X232800905Y-143743508D01*
X232787530Y-143715230D01*
X232776992Y-143685778D01*
X232769392Y-143655435D01*
X232764802Y-143624493D01*
X232763267Y-143593250D01*
X232763267Y-142880750D01*
X232764802Y-142849507D01*
X232769392Y-142818565D01*
X232776992Y-142788222D01*
X232787530Y-142758770D01*
X232800905Y-142730492D01*
X232816986Y-142703662D01*
X232835620Y-142678537D01*
X232856627Y-142655360D01*
X232879804Y-142634353D01*
X232904929Y-142615719D01*
X232931759Y-142599638D01*
X232960037Y-142586263D01*
X232989489Y-142575725D01*
X233019832Y-142568125D01*
X233050774Y-142563535D01*
X233082017Y-142562000D01*
X233719517Y-142562000D01*
X233750760Y-142563535D01*
X233750760Y-142563535D01*
G37*
D12*
X233400767Y-143237000D03*
D11*
G36*
X218659100Y-142563535D02*
G01*
X218690042Y-142568125D01*
X218720385Y-142575725D01*
X218749837Y-142586263D01*
X218778115Y-142599638D01*
X218804945Y-142615719D01*
X218830070Y-142634353D01*
X218853247Y-142655360D01*
X218874254Y-142678537D01*
X218892888Y-142703662D01*
X218908969Y-142730492D01*
X218922344Y-142758770D01*
X218932882Y-142788222D01*
X218940482Y-142818565D01*
X218945072Y-142849507D01*
X218946607Y-142880750D01*
X218946607Y-143593250D01*
X218945072Y-143624493D01*
X218940482Y-143655435D01*
X218932882Y-143685778D01*
X218922344Y-143715230D01*
X218908969Y-143743508D01*
X218892888Y-143770338D01*
X218874254Y-143795463D01*
X218853247Y-143818640D01*
X218830070Y-143839647D01*
X218804945Y-143858281D01*
X218778115Y-143874362D01*
X218749837Y-143887737D01*
X218720385Y-143898275D01*
X218690042Y-143905875D01*
X218659100Y-143910465D01*
X218627857Y-143912000D01*
X217990357Y-143912000D01*
X217959114Y-143910465D01*
X217928172Y-143905875D01*
X217897829Y-143898275D01*
X217868377Y-143887737D01*
X217840099Y-143874362D01*
X217813269Y-143858281D01*
X217788144Y-143839647D01*
X217764967Y-143818640D01*
X217743960Y-143795463D01*
X217725326Y-143770338D01*
X217709245Y-143743508D01*
X217695870Y-143715230D01*
X217685332Y-143685778D01*
X217677732Y-143655435D01*
X217673142Y-143624493D01*
X217671607Y-143593250D01*
X217671607Y-142880750D01*
X217673142Y-142849507D01*
X217677732Y-142818565D01*
X217685332Y-142788222D01*
X217695870Y-142758770D01*
X217709245Y-142730492D01*
X217725326Y-142703662D01*
X217743960Y-142678537D01*
X217764967Y-142655360D01*
X217788144Y-142634353D01*
X217813269Y-142615719D01*
X217840099Y-142599638D01*
X217868377Y-142586263D01*
X217897829Y-142575725D01*
X217928172Y-142568125D01*
X217959114Y-142563535D01*
X217990357Y-142562000D01*
X218627857Y-142562000D01*
X218659100Y-142563535D01*
X218659100Y-142563535D01*
G37*
D12*
X218309107Y-143237000D03*
D11*
G36*
X217084100Y-142563535D02*
G01*
X217115042Y-142568125D01*
X217145385Y-142575725D01*
X217174837Y-142586263D01*
X217203115Y-142599638D01*
X217229945Y-142615719D01*
X217255070Y-142634353D01*
X217278247Y-142655360D01*
X217299254Y-142678537D01*
X217317888Y-142703662D01*
X217333969Y-142730492D01*
X217347344Y-142758770D01*
X217357882Y-142788222D01*
X217365482Y-142818565D01*
X217370072Y-142849507D01*
X217371607Y-142880750D01*
X217371607Y-143593250D01*
X217370072Y-143624493D01*
X217365482Y-143655435D01*
X217357882Y-143685778D01*
X217347344Y-143715230D01*
X217333969Y-143743508D01*
X217317888Y-143770338D01*
X217299254Y-143795463D01*
X217278247Y-143818640D01*
X217255070Y-143839647D01*
X217229945Y-143858281D01*
X217203115Y-143874362D01*
X217174837Y-143887737D01*
X217145385Y-143898275D01*
X217115042Y-143905875D01*
X217084100Y-143910465D01*
X217052857Y-143912000D01*
X216415357Y-143912000D01*
X216384114Y-143910465D01*
X216353172Y-143905875D01*
X216322829Y-143898275D01*
X216293377Y-143887737D01*
X216265099Y-143874362D01*
X216238269Y-143858281D01*
X216213144Y-143839647D01*
X216189967Y-143818640D01*
X216168960Y-143795463D01*
X216150326Y-143770338D01*
X216134245Y-143743508D01*
X216120870Y-143715230D01*
X216110332Y-143685778D01*
X216102732Y-143655435D01*
X216098142Y-143624493D01*
X216096607Y-143593250D01*
X216096607Y-142880750D01*
X216098142Y-142849507D01*
X216102732Y-142818565D01*
X216110332Y-142788222D01*
X216120870Y-142758770D01*
X216134245Y-142730492D01*
X216150326Y-142703662D01*
X216168960Y-142678537D01*
X216189967Y-142655360D01*
X216213144Y-142634353D01*
X216238269Y-142615719D01*
X216265099Y-142599638D01*
X216293377Y-142586263D01*
X216322829Y-142575725D01*
X216353172Y-142568125D01*
X216384114Y-142563535D01*
X216415357Y-142562000D01*
X217052857Y-142562000D01*
X217084100Y-142563535D01*
X217084100Y-142563535D01*
G37*
D12*
X216734107Y-143237000D03*
D11*
G36*
X201992440Y-142563535D02*
G01*
X202023382Y-142568125D01*
X202053725Y-142575725D01*
X202083177Y-142586263D01*
X202111455Y-142599638D01*
X202138285Y-142615719D01*
X202163410Y-142634353D01*
X202186587Y-142655360D01*
X202207594Y-142678537D01*
X202226228Y-142703662D01*
X202242309Y-142730492D01*
X202255684Y-142758770D01*
X202266222Y-142788222D01*
X202273822Y-142818565D01*
X202278412Y-142849507D01*
X202279947Y-142880750D01*
X202279947Y-143593250D01*
X202278412Y-143624493D01*
X202273822Y-143655435D01*
X202266222Y-143685778D01*
X202255684Y-143715230D01*
X202242309Y-143743508D01*
X202226228Y-143770338D01*
X202207594Y-143795463D01*
X202186587Y-143818640D01*
X202163410Y-143839647D01*
X202138285Y-143858281D01*
X202111455Y-143874362D01*
X202083177Y-143887737D01*
X202053725Y-143898275D01*
X202023382Y-143905875D01*
X201992440Y-143910465D01*
X201961197Y-143912000D01*
X201323697Y-143912000D01*
X201292454Y-143910465D01*
X201261512Y-143905875D01*
X201231169Y-143898275D01*
X201201717Y-143887737D01*
X201173439Y-143874362D01*
X201146609Y-143858281D01*
X201121484Y-143839647D01*
X201098307Y-143818640D01*
X201077300Y-143795463D01*
X201058666Y-143770338D01*
X201042585Y-143743508D01*
X201029210Y-143715230D01*
X201018672Y-143685778D01*
X201011072Y-143655435D01*
X201006482Y-143624493D01*
X201004947Y-143593250D01*
X201004947Y-142880750D01*
X201006482Y-142849507D01*
X201011072Y-142818565D01*
X201018672Y-142788222D01*
X201029210Y-142758770D01*
X201042585Y-142730492D01*
X201058666Y-142703662D01*
X201077300Y-142678537D01*
X201098307Y-142655360D01*
X201121484Y-142634353D01*
X201146609Y-142615719D01*
X201173439Y-142599638D01*
X201201717Y-142586263D01*
X201231169Y-142575725D01*
X201261512Y-142568125D01*
X201292454Y-142563535D01*
X201323697Y-142562000D01*
X201961197Y-142562000D01*
X201992440Y-142563535D01*
X201992440Y-142563535D01*
G37*
D12*
X201642447Y-143237000D03*
D11*
G36*
X200417440Y-142563535D02*
G01*
X200448382Y-142568125D01*
X200478725Y-142575725D01*
X200508177Y-142586263D01*
X200536455Y-142599638D01*
X200563285Y-142615719D01*
X200588410Y-142634353D01*
X200611587Y-142655360D01*
X200632594Y-142678537D01*
X200651228Y-142703662D01*
X200667309Y-142730492D01*
X200680684Y-142758770D01*
X200691222Y-142788222D01*
X200698822Y-142818565D01*
X200703412Y-142849507D01*
X200704947Y-142880750D01*
X200704947Y-143593250D01*
X200703412Y-143624493D01*
X200698822Y-143655435D01*
X200691222Y-143685778D01*
X200680684Y-143715230D01*
X200667309Y-143743508D01*
X200651228Y-143770338D01*
X200632594Y-143795463D01*
X200611587Y-143818640D01*
X200588410Y-143839647D01*
X200563285Y-143858281D01*
X200536455Y-143874362D01*
X200508177Y-143887737D01*
X200478725Y-143898275D01*
X200448382Y-143905875D01*
X200417440Y-143910465D01*
X200386197Y-143912000D01*
X199748697Y-143912000D01*
X199717454Y-143910465D01*
X199686512Y-143905875D01*
X199656169Y-143898275D01*
X199626717Y-143887737D01*
X199598439Y-143874362D01*
X199571609Y-143858281D01*
X199546484Y-143839647D01*
X199523307Y-143818640D01*
X199502300Y-143795463D01*
X199483666Y-143770338D01*
X199467585Y-143743508D01*
X199454210Y-143715230D01*
X199443672Y-143685778D01*
X199436072Y-143655435D01*
X199431482Y-143624493D01*
X199429947Y-143593250D01*
X199429947Y-142880750D01*
X199431482Y-142849507D01*
X199436072Y-142818565D01*
X199443672Y-142788222D01*
X199454210Y-142758770D01*
X199467585Y-142730492D01*
X199483666Y-142703662D01*
X199502300Y-142678537D01*
X199523307Y-142655360D01*
X199546484Y-142634353D01*
X199571609Y-142615719D01*
X199598439Y-142599638D01*
X199626717Y-142586263D01*
X199656169Y-142575725D01*
X199686512Y-142568125D01*
X199717454Y-142563535D01*
X199748697Y-142562000D01*
X200386197Y-142562000D01*
X200417440Y-142563535D01*
X200417440Y-142563535D01*
G37*
D12*
X200067447Y-143237000D03*
D11*
G36*
X185325780Y-142563535D02*
G01*
X185356722Y-142568125D01*
X185387065Y-142575725D01*
X185416517Y-142586263D01*
X185444795Y-142599638D01*
X185471625Y-142615719D01*
X185496750Y-142634353D01*
X185519927Y-142655360D01*
X185540934Y-142678537D01*
X185559568Y-142703662D01*
X185575649Y-142730492D01*
X185589024Y-142758770D01*
X185599562Y-142788222D01*
X185607162Y-142818565D01*
X185611752Y-142849507D01*
X185613287Y-142880750D01*
X185613287Y-143593250D01*
X185611752Y-143624493D01*
X185607162Y-143655435D01*
X185599562Y-143685778D01*
X185589024Y-143715230D01*
X185575649Y-143743508D01*
X185559568Y-143770338D01*
X185540934Y-143795463D01*
X185519927Y-143818640D01*
X185496750Y-143839647D01*
X185471625Y-143858281D01*
X185444795Y-143874362D01*
X185416517Y-143887737D01*
X185387065Y-143898275D01*
X185356722Y-143905875D01*
X185325780Y-143910465D01*
X185294537Y-143912000D01*
X184657037Y-143912000D01*
X184625794Y-143910465D01*
X184594852Y-143905875D01*
X184564509Y-143898275D01*
X184535057Y-143887737D01*
X184506779Y-143874362D01*
X184479949Y-143858281D01*
X184454824Y-143839647D01*
X184431647Y-143818640D01*
X184410640Y-143795463D01*
X184392006Y-143770338D01*
X184375925Y-143743508D01*
X184362550Y-143715230D01*
X184352012Y-143685778D01*
X184344412Y-143655435D01*
X184339822Y-143624493D01*
X184338287Y-143593250D01*
X184338287Y-142880750D01*
X184339822Y-142849507D01*
X184344412Y-142818565D01*
X184352012Y-142788222D01*
X184362550Y-142758770D01*
X184375925Y-142730492D01*
X184392006Y-142703662D01*
X184410640Y-142678537D01*
X184431647Y-142655360D01*
X184454824Y-142634353D01*
X184479949Y-142615719D01*
X184506779Y-142599638D01*
X184535057Y-142586263D01*
X184564509Y-142575725D01*
X184594852Y-142568125D01*
X184625794Y-142563535D01*
X184657037Y-142562000D01*
X185294537Y-142562000D01*
X185325780Y-142563535D01*
X185325780Y-142563535D01*
G37*
D12*
X184975787Y-143237000D03*
D11*
G36*
X183750780Y-142563535D02*
G01*
X183781722Y-142568125D01*
X183812065Y-142575725D01*
X183841517Y-142586263D01*
X183869795Y-142599638D01*
X183896625Y-142615719D01*
X183921750Y-142634353D01*
X183944927Y-142655360D01*
X183965934Y-142678537D01*
X183984568Y-142703662D01*
X184000649Y-142730492D01*
X184014024Y-142758770D01*
X184024562Y-142788222D01*
X184032162Y-142818565D01*
X184036752Y-142849507D01*
X184038287Y-142880750D01*
X184038287Y-143593250D01*
X184036752Y-143624493D01*
X184032162Y-143655435D01*
X184024562Y-143685778D01*
X184014024Y-143715230D01*
X184000649Y-143743508D01*
X183984568Y-143770338D01*
X183965934Y-143795463D01*
X183944927Y-143818640D01*
X183921750Y-143839647D01*
X183896625Y-143858281D01*
X183869795Y-143874362D01*
X183841517Y-143887737D01*
X183812065Y-143898275D01*
X183781722Y-143905875D01*
X183750780Y-143910465D01*
X183719537Y-143912000D01*
X183082037Y-143912000D01*
X183050794Y-143910465D01*
X183019852Y-143905875D01*
X182989509Y-143898275D01*
X182960057Y-143887737D01*
X182931779Y-143874362D01*
X182904949Y-143858281D01*
X182879824Y-143839647D01*
X182856647Y-143818640D01*
X182835640Y-143795463D01*
X182817006Y-143770338D01*
X182800925Y-143743508D01*
X182787550Y-143715230D01*
X182777012Y-143685778D01*
X182769412Y-143655435D01*
X182764822Y-143624493D01*
X182763287Y-143593250D01*
X182763287Y-142880750D01*
X182764822Y-142849507D01*
X182769412Y-142818565D01*
X182777012Y-142788222D01*
X182787550Y-142758770D01*
X182800925Y-142730492D01*
X182817006Y-142703662D01*
X182835640Y-142678537D01*
X182856647Y-142655360D01*
X182879824Y-142634353D01*
X182904949Y-142615719D01*
X182931779Y-142599638D01*
X182960057Y-142586263D01*
X182989509Y-142575725D01*
X183019852Y-142568125D01*
X183050794Y-142563535D01*
X183082037Y-142562000D01*
X183719537Y-142562000D01*
X183750780Y-142563535D01*
X183750780Y-142563535D01*
G37*
D12*
X183400787Y-143237000D03*
D11*
G36*
X168659120Y-142563535D02*
G01*
X168690062Y-142568125D01*
X168720405Y-142575725D01*
X168749857Y-142586263D01*
X168778135Y-142599638D01*
X168804965Y-142615719D01*
X168830090Y-142634353D01*
X168853267Y-142655360D01*
X168874274Y-142678537D01*
X168892908Y-142703662D01*
X168908989Y-142730492D01*
X168922364Y-142758770D01*
X168932902Y-142788222D01*
X168940502Y-142818565D01*
X168945092Y-142849507D01*
X168946627Y-142880750D01*
X168946627Y-143593250D01*
X168945092Y-143624493D01*
X168940502Y-143655435D01*
X168932902Y-143685778D01*
X168922364Y-143715230D01*
X168908989Y-143743508D01*
X168892908Y-143770338D01*
X168874274Y-143795463D01*
X168853267Y-143818640D01*
X168830090Y-143839647D01*
X168804965Y-143858281D01*
X168778135Y-143874362D01*
X168749857Y-143887737D01*
X168720405Y-143898275D01*
X168690062Y-143905875D01*
X168659120Y-143910465D01*
X168627877Y-143912000D01*
X167990377Y-143912000D01*
X167959134Y-143910465D01*
X167928192Y-143905875D01*
X167897849Y-143898275D01*
X167868397Y-143887737D01*
X167840119Y-143874362D01*
X167813289Y-143858281D01*
X167788164Y-143839647D01*
X167764987Y-143818640D01*
X167743980Y-143795463D01*
X167725346Y-143770338D01*
X167709265Y-143743508D01*
X167695890Y-143715230D01*
X167685352Y-143685778D01*
X167677752Y-143655435D01*
X167673162Y-143624493D01*
X167671627Y-143593250D01*
X167671627Y-142880750D01*
X167673162Y-142849507D01*
X167677752Y-142818565D01*
X167685352Y-142788222D01*
X167695890Y-142758770D01*
X167709265Y-142730492D01*
X167725346Y-142703662D01*
X167743980Y-142678537D01*
X167764987Y-142655360D01*
X167788164Y-142634353D01*
X167813289Y-142615719D01*
X167840119Y-142599638D01*
X167868397Y-142586263D01*
X167897849Y-142575725D01*
X167928192Y-142568125D01*
X167959134Y-142563535D01*
X167990377Y-142562000D01*
X168627877Y-142562000D01*
X168659120Y-142563535D01*
X168659120Y-142563535D01*
G37*
D12*
X168309127Y-143237000D03*
D11*
G36*
X167084120Y-142563535D02*
G01*
X167115062Y-142568125D01*
X167145405Y-142575725D01*
X167174857Y-142586263D01*
X167203135Y-142599638D01*
X167229965Y-142615719D01*
X167255090Y-142634353D01*
X167278267Y-142655360D01*
X167299274Y-142678537D01*
X167317908Y-142703662D01*
X167333989Y-142730492D01*
X167347364Y-142758770D01*
X167357902Y-142788222D01*
X167365502Y-142818565D01*
X167370092Y-142849507D01*
X167371627Y-142880750D01*
X167371627Y-143593250D01*
X167370092Y-143624493D01*
X167365502Y-143655435D01*
X167357902Y-143685778D01*
X167347364Y-143715230D01*
X167333989Y-143743508D01*
X167317908Y-143770338D01*
X167299274Y-143795463D01*
X167278267Y-143818640D01*
X167255090Y-143839647D01*
X167229965Y-143858281D01*
X167203135Y-143874362D01*
X167174857Y-143887737D01*
X167145405Y-143898275D01*
X167115062Y-143905875D01*
X167084120Y-143910465D01*
X167052877Y-143912000D01*
X166415377Y-143912000D01*
X166384134Y-143910465D01*
X166353192Y-143905875D01*
X166322849Y-143898275D01*
X166293397Y-143887737D01*
X166265119Y-143874362D01*
X166238289Y-143858281D01*
X166213164Y-143839647D01*
X166189987Y-143818640D01*
X166168980Y-143795463D01*
X166150346Y-143770338D01*
X166134265Y-143743508D01*
X166120890Y-143715230D01*
X166110352Y-143685778D01*
X166102752Y-143655435D01*
X166098162Y-143624493D01*
X166096627Y-143593250D01*
X166096627Y-142880750D01*
X166098162Y-142849507D01*
X166102752Y-142818565D01*
X166110352Y-142788222D01*
X166120890Y-142758770D01*
X166134265Y-142730492D01*
X166150346Y-142703662D01*
X166168980Y-142678537D01*
X166189987Y-142655360D01*
X166213164Y-142634353D01*
X166238289Y-142615719D01*
X166265119Y-142599638D01*
X166293397Y-142586263D01*
X166322849Y-142575725D01*
X166353192Y-142568125D01*
X166384134Y-142563535D01*
X166415377Y-142562000D01*
X167052877Y-142562000D01*
X167084120Y-142563535D01*
X167084120Y-142563535D01*
G37*
D12*
X166734127Y-143237000D03*
D11*
G36*
X151992460Y-142563535D02*
G01*
X152023402Y-142568125D01*
X152053745Y-142575725D01*
X152083197Y-142586263D01*
X152111475Y-142599638D01*
X152138305Y-142615719D01*
X152163430Y-142634353D01*
X152186607Y-142655360D01*
X152207614Y-142678537D01*
X152226248Y-142703662D01*
X152242329Y-142730492D01*
X152255704Y-142758770D01*
X152266242Y-142788222D01*
X152273842Y-142818565D01*
X152278432Y-142849507D01*
X152279967Y-142880750D01*
X152279967Y-143593250D01*
X152278432Y-143624493D01*
X152273842Y-143655435D01*
X152266242Y-143685778D01*
X152255704Y-143715230D01*
X152242329Y-143743508D01*
X152226248Y-143770338D01*
X152207614Y-143795463D01*
X152186607Y-143818640D01*
X152163430Y-143839647D01*
X152138305Y-143858281D01*
X152111475Y-143874362D01*
X152083197Y-143887737D01*
X152053745Y-143898275D01*
X152023402Y-143905875D01*
X151992460Y-143910465D01*
X151961217Y-143912000D01*
X151323717Y-143912000D01*
X151292474Y-143910465D01*
X151261532Y-143905875D01*
X151231189Y-143898275D01*
X151201737Y-143887737D01*
X151173459Y-143874362D01*
X151146629Y-143858281D01*
X151121504Y-143839647D01*
X151098327Y-143818640D01*
X151077320Y-143795463D01*
X151058686Y-143770338D01*
X151042605Y-143743508D01*
X151029230Y-143715230D01*
X151018692Y-143685778D01*
X151011092Y-143655435D01*
X151006502Y-143624493D01*
X151004967Y-143593250D01*
X151004967Y-142880750D01*
X151006502Y-142849507D01*
X151011092Y-142818565D01*
X151018692Y-142788222D01*
X151029230Y-142758770D01*
X151042605Y-142730492D01*
X151058686Y-142703662D01*
X151077320Y-142678537D01*
X151098327Y-142655360D01*
X151121504Y-142634353D01*
X151146629Y-142615719D01*
X151173459Y-142599638D01*
X151201737Y-142586263D01*
X151231189Y-142575725D01*
X151261532Y-142568125D01*
X151292474Y-142563535D01*
X151323717Y-142562000D01*
X151961217Y-142562000D01*
X151992460Y-142563535D01*
X151992460Y-142563535D01*
G37*
D12*
X151642467Y-143237000D03*
D11*
G36*
X150417460Y-142563535D02*
G01*
X150448402Y-142568125D01*
X150478745Y-142575725D01*
X150508197Y-142586263D01*
X150536475Y-142599638D01*
X150563305Y-142615719D01*
X150588430Y-142634353D01*
X150611607Y-142655360D01*
X150632614Y-142678537D01*
X150651248Y-142703662D01*
X150667329Y-142730492D01*
X150680704Y-142758770D01*
X150691242Y-142788222D01*
X150698842Y-142818565D01*
X150703432Y-142849507D01*
X150704967Y-142880750D01*
X150704967Y-143593250D01*
X150703432Y-143624493D01*
X150698842Y-143655435D01*
X150691242Y-143685778D01*
X150680704Y-143715230D01*
X150667329Y-143743508D01*
X150651248Y-143770338D01*
X150632614Y-143795463D01*
X150611607Y-143818640D01*
X150588430Y-143839647D01*
X150563305Y-143858281D01*
X150536475Y-143874362D01*
X150508197Y-143887737D01*
X150478745Y-143898275D01*
X150448402Y-143905875D01*
X150417460Y-143910465D01*
X150386217Y-143912000D01*
X149748717Y-143912000D01*
X149717474Y-143910465D01*
X149686532Y-143905875D01*
X149656189Y-143898275D01*
X149626737Y-143887737D01*
X149598459Y-143874362D01*
X149571629Y-143858281D01*
X149546504Y-143839647D01*
X149523327Y-143818640D01*
X149502320Y-143795463D01*
X149483686Y-143770338D01*
X149467605Y-143743508D01*
X149454230Y-143715230D01*
X149443692Y-143685778D01*
X149436092Y-143655435D01*
X149431502Y-143624493D01*
X149429967Y-143593250D01*
X149429967Y-142880750D01*
X149431502Y-142849507D01*
X149436092Y-142818565D01*
X149443692Y-142788222D01*
X149454230Y-142758770D01*
X149467605Y-142730492D01*
X149483686Y-142703662D01*
X149502320Y-142678537D01*
X149523327Y-142655360D01*
X149546504Y-142634353D01*
X149571629Y-142615719D01*
X149598459Y-142599638D01*
X149626737Y-142586263D01*
X149656189Y-142575725D01*
X149686532Y-142568125D01*
X149717474Y-142563535D01*
X149748717Y-142562000D01*
X150386217Y-142562000D01*
X150417460Y-142563535D01*
X150417460Y-142563535D01*
G37*
D12*
X150067467Y-143237000D03*
D11*
G36*
X135325800Y-142563535D02*
G01*
X135356742Y-142568125D01*
X135387085Y-142575725D01*
X135416537Y-142586263D01*
X135444815Y-142599638D01*
X135471645Y-142615719D01*
X135496770Y-142634353D01*
X135519947Y-142655360D01*
X135540954Y-142678537D01*
X135559588Y-142703662D01*
X135575669Y-142730492D01*
X135589044Y-142758770D01*
X135599582Y-142788222D01*
X135607182Y-142818565D01*
X135611772Y-142849507D01*
X135613307Y-142880750D01*
X135613307Y-143593250D01*
X135611772Y-143624493D01*
X135607182Y-143655435D01*
X135599582Y-143685778D01*
X135589044Y-143715230D01*
X135575669Y-143743508D01*
X135559588Y-143770338D01*
X135540954Y-143795463D01*
X135519947Y-143818640D01*
X135496770Y-143839647D01*
X135471645Y-143858281D01*
X135444815Y-143874362D01*
X135416537Y-143887737D01*
X135387085Y-143898275D01*
X135356742Y-143905875D01*
X135325800Y-143910465D01*
X135294557Y-143912000D01*
X134657057Y-143912000D01*
X134625814Y-143910465D01*
X134594872Y-143905875D01*
X134564529Y-143898275D01*
X134535077Y-143887737D01*
X134506799Y-143874362D01*
X134479969Y-143858281D01*
X134454844Y-143839647D01*
X134431667Y-143818640D01*
X134410660Y-143795463D01*
X134392026Y-143770338D01*
X134375945Y-143743508D01*
X134362570Y-143715230D01*
X134352032Y-143685778D01*
X134344432Y-143655435D01*
X134339842Y-143624493D01*
X134338307Y-143593250D01*
X134338307Y-142880750D01*
X134339842Y-142849507D01*
X134344432Y-142818565D01*
X134352032Y-142788222D01*
X134362570Y-142758770D01*
X134375945Y-142730492D01*
X134392026Y-142703662D01*
X134410660Y-142678537D01*
X134431667Y-142655360D01*
X134454844Y-142634353D01*
X134479969Y-142615719D01*
X134506799Y-142599638D01*
X134535077Y-142586263D01*
X134564529Y-142575725D01*
X134594872Y-142568125D01*
X134625814Y-142563535D01*
X134657057Y-142562000D01*
X135294557Y-142562000D01*
X135325800Y-142563535D01*
X135325800Y-142563535D01*
G37*
D12*
X134975807Y-143237000D03*
D11*
G36*
X133750800Y-142563535D02*
G01*
X133781742Y-142568125D01*
X133812085Y-142575725D01*
X133841537Y-142586263D01*
X133869815Y-142599638D01*
X133896645Y-142615719D01*
X133921770Y-142634353D01*
X133944947Y-142655360D01*
X133965954Y-142678537D01*
X133984588Y-142703662D01*
X134000669Y-142730492D01*
X134014044Y-142758770D01*
X134024582Y-142788222D01*
X134032182Y-142818565D01*
X134036772Y-142849507D01*
X134038307Y-142880750D01*
X134038307Y-143593250D01*
X134036772Y-143624493D01*
X134032182Y-143655435D01*
X134024582Y-143685778D01*
X134014044Y-143715230D01*
X134000669Y-143743508D01*
X133984588Y-143770338D01*
X133965954Y-143795463D01*
X133944947Y-143818640D01*
X133921770Y-143839647D01*
X133896645Y-143858281D01*
X133869815Y-143874362D01*
X133841537Y-143887737D01*
X133812085Y-143898275D01*
X133781742Y-143905875D01*
X133750800Y-143910465D01*
X133719557Y-143912000D01*
X133082057Y-143912000D01*
X133050814Y-143910465D01*
X133019872Y-143905875D01*
X132989529Y-143898275D01*
X132960077Y-143887737D01*
X132931799Y-143874362D01*
X132904969Y-143858281D01*
X132879844Y-143839647D01*
X132856667Y-143818640D01*
X132835660Y-143795463D01*
X132817026Y-143770338D01*
X132800945Y-143743508D01*
X132787570Y-143715230D01*
X132777032Y-143685778D01*
X132769432Y-143655435D01*
X132764842Y-143624493D01*
X132763307Y-143593250D01*
X132763307Y-142880750D01*
X132764842Y-142849507D01*
X132769432Y-142818565D01*
X132777032Y-142788222D01*
X132787570Y-142758770D01*
X132800945Y-142730492D01*
X132817026Y-142703662D01*
X132835660Y-142678537D01*
X132856667Y-142655360D01*
X132879844Y-142634353D01*
X132904969Y-142615719D01*
X132931799Y-142599638D01*
X132960077Y-142586263D01*
X132989529Y-142575725D01*
X133019872Y-142568125D01*
X133050814Y-142563535D01*
X133082057Y-142562000D01*
X133719557Y-142562000D01*
X133750800Y-142563535D01*
X133750800Y-142563535D01*
G37*
D12*
X133400807Y-143237000D03*
D11*
G36*
X118659140Y-142563535D02*
G01*
X118690082Y-142568125D01*
X118720425Y-142575725D01*
X118749877Y-142586263D01*
X118778155Y-142599638D01*
X118804985Y-142615719D01*
X118830110Y-142634353D01*
X118853287Y-142655360D01*
X118874294Y-142678537D01*
X118892928Y-142703662D01*
X118909009Y-142730492D01*
X118922384Y-142758770D01*
X118932922Y-142788222D01*
X118940522Y-142818565D01*
X118945112Y-142849507D01*
X118946647Y-142880750D01*
X118946647Y-143593250D01*
X118945112Y-143624493D01*
X118940522Y-143655435D01*
X118932922Y-143685778D01*
X118922384Y-143715230D01*
X118909009Y-143743508D01*
X118892928Y-143770338D01*
X118874294Y-143795463D01*
X118853287Y-143818640D01*
X118830110Y-143839647D01*
X118804985Y-143858281D01*
X118778155Y-143874362D01*
X118749877Y-143887737D01*
X118720425Y-143898275D01*
X118690082Y-143905875D01*
X118659140Y-143910465D01*
X118627897Y-143912000D01*
X117990397Y-143912000D01*
X117959154Y-143910465D01*
X117928212Y-143905875D01*
X117897869Y-143898275D01*
X117868417Y-143887737D01*
X117840139Y-143874362D01*
X117813309Y-143858281D01*
X117788184Y-143839647D01*
X117765007Y-143818640D01*
X117744000Y-143795463D01*
X117725366Y-143770338D01*
X117709285Y-143743508D01*
X117695910Y-143715230D01*
X117685372Y-143685778D01*
X117677772Y-143655435D01*
X117673182Y-143624493D01*
X117671647Y-143593250D01*
X117671647Y-142880750D01*
X117673182Y-142849507D01*
X117677772Y-142818565D01*
X117685372Y-142788222D01*
X117695910Y-142758770D01*
X117709285Y-142730492D01*
X117725366Y-142703662D01*
X117744000Y-142678537D01*
X117765007Y-142655360D01*
X117788184Y-142634353D01*
X117813309Y-142615719D01*
X117840139Y-142599638D01*
X117868417Y-142586263D01*
X117897869Y-142575725D01*
X117928212Y-142568125D01*
X117959154Y-142563535D01*
X117990397Y-142562000D01*
X118627897Y-142562000D01*
X118659140Y-142563535D01*
X118659140Y-142563535D01*
G37*
D12*
X118309147Y-143237000D03*
D11*
G36*
X117084140Y-142563535D02*
G01*
X117115082Y-142568125D01*
X117145425Y-142575725D01*
X117174877Y-142586263D01*
X117203155Y-142599638D01*
X117229985Y-142615719D01*
X117255110Y-142634353D01*
X117278287Y-142655360D01*
X117299294Y-142678537D01*
X117317928Y-142703662D01*
X117334009Y-142730492D01*
X117347384Y-142758770D01*
X117357922Y-142788222D01*
X117365522Y-142818565D01*
X117370112Y-142849507D01*
X117371647Y-142880750D01*
X117371647Y-143593250D01*
X117370112Y-143624493D01*
X117365522Y-143655435D01*
X117357922Y-143685778D01*
X117347384Y-143715230D01*
X117334009Y-143743508D01*
X117317928Y-143770338D01*
X117299294Y-143795463D01*
X117278287Y-143818640D01*
X117255110Y-143839647D01*
X117229985Y-143858281D01*
X117203155Y-143874362D01*
X117174877Y-143887737D01*
X117145425Y-143898275D01*
X117115082Y-143905875D01*
X117084140Y-143910465D01*
X117052897Y-143912000D01*
X116415397Y-143912000D01*
X116384154Y-143910465D01*
X116353212Y-143905875D01*
X116322869Y-143898275D01*
X116293417Y-143887737D01*
X116265139Y-143874362D01*
X116238309Y-143858281D01*
X116213184Y-143839647D01*
X116190007Y-143818640D01*
X116169000Y-143795463D01*
X116150366Y-143770338D01*
X116134285Y-143743508D01*
X116120910Y-143715230D01*
X116110372Y-143685778D01*
X116102772Y-143655435D01*
X116098182Y-143624493D01*
X116096647Y-143593250D01*
X116096647Y-142880750D01*
X116098182Y-142849507D01*
X116102772Y-142818565D01*
X116110372Y-142788222D01*
X116120910Y-142758770D01*
X116134285Y-142730492D01*
X116150366Y-142703662D01*
X116169000Y-142678537D01*
X116190007Y-142655360D01*
X116213184Y-142634353D01*
X116238309Y-142615719D01*
X116265139Y-142599638D01*
X116293417Y-142586263D01*
X116322869Y-142575725D01*
X116353212Y-142568125D01*
X116384154Y-142563535D01*
X116415397Y-142562000D01*
X117052897Y-142562000D01*
X117084140Y-142563535D01*
X117084140Y-142563535D01*
G37*
D12*
X116734147Y-143237000D03*
D11*
G36*
X101992480Y-142563535D02*
G01*
X102023422Y-142568125D01*
X102053765Y-142575725D01*
X102083217Y-142586263D01*
X102111495Y-142599638D01*
X102138325Y-142615719D01*
X102163450Y-142634353D01*
X102186627Y-142655360D01*
X102207634Y-142678537D01*
X102226268Y-142703662D01*
X102242349Y-142730492D01*
X102255724Y-142758770D01*
X102266262Y-142788222D01*
X102273862Y-142818565D01*
X102278452Y-142849507D01*
X102279987Y-142880750D01*
X102279987Y-143593250D01*
X102278452Y-143624493D01*
X102273862Y-143655435D01*
X102266262Y-143685778D01*
X102255724Y-143715230D01*
X102242349Y-143743508D01*
X102226268Y-143770338D01*
X102207634Y-143795463D01*
X102186627Y-143818640D01*
X102163450Y-143839647D01*
X102138325Y-143858281D01*
X102111495Y-143874362D01*
X102083217Y-143887737D01*
X102053765Y-143898275D01*
X102023422Y-143905875D01*
X101992480Y-143910465D01*
X101961237Y-143912000D01*
X101323737Y-143912000D01*
X101292494Y-143910465D01*
X101261552Y-143905875D01*
X101231209Y-143898275D01*
X101201757Y-143887737D01*
X101173479Y-143874362D01*
X101146649Y-143858281D01*
X101121524Y-143839647D01*
X101098347Y-143818640D01*
X101077340Y-143795463D01*
X101058706Y-143770338D01*
X101042625Y-143743508D01*
X101029250Y-143715230D01*
X101018712Y-143685778D01*
X101011112Y-143655435D01*
X101006522Y-143624493D01*
X101004987Y-143593250D01*
X101004987Y-142880750D01*
X101006522Y-142849507D01*
X101011112Y-142818565D01*
X101018712Y-142788222D01*
X101029250Y-142758770D01*
X101042625Y-142730492D01*
X101058706Y-142703662D01*
X101077340Y-142678537D01*
X101098347Y-142655360D01*
X101121524Y-142634353D01*
X101146649Y-142615719D01*
X101173479Y-142599638D01*
X101201757Y-142586263D01*
X101231209Y-142575725D01*
X101261552Y-142568125D01*
X101292494Y-142563535D01*
X101323737Y-142562000D01*
X101961237Y-142562000D01*
X101992480Y-142563535D01*
X101992480Y-142563535D01*
G37*
D12*
X101642487Y-143237000D03*
D11*
G36*
X100417480Y-142563535D02*
G01*
X100448422Y-142568125D01*
X100478765Y-142575725D01*
X100508217Y-142586263D01*
X100536495Y-142599638D01*
X100563325Y-142615719D01*
X100588450Y-142634353D01*
X100611627Y-142655360D01*
X100632634Y-142678537D01*
X100651268Y-142703662D01*
X100667349Y-142730492D01*
X100680724Y-142758770D01*
X100691262Y-142788222D01*
X100698862Y-142818565D01*
X100703452Y-142849507D01*
X100704987Y-142880750D01*
X100704987Y-143593250D01*
X100703452Y-143624493D01*
X100698862Y-143655435D01*
X100691262Y-143685778D01*
X100680724Y-143715230D01*
X100667349Y-143743508D01*
X100651268Y-143770338D01*
X100632634Y-143795463D01*
X100611627Y-143818640D01*
X100588450Y-143839647D01*
X100563325Y-143858281D01*
X100536495Y-143874362D01*
X100508217Y-143887737D01*
X100478765Y-143898275D01*
X100448422Y-143905875D01*
X100417480Y-143910465D01*
X100386237Y-143912000D01*
X99748737Y-143912000D01*
X99717494Y-143910465D01*
X99686552Y-143905875D01*
X99656209Y-143898275D01*
X99626757Y-143887737D01*
X99598479Y-143874362D01*
X99571649Y-143858281D01*
X99546524Y-143839647D01*
X99523347Y-143818640D01*
X99502340Y-143795463D01*
X99483706Y-143770338D01*
X99467625Y-143743508D01*
X99454250Y-143715230D01*
X99443712Y-143685778D01*
X99436112Y-143655435D01*
X99431522Y-143624493D01*
X99429987Y-143593250D01*
X99429987Y-142880750D01*
X99431522Y-142849507D01*
X99436112Y-142818565D01*
X99443712Y-142788222D01*
X99454250Y-142758770D01*
X99467625Y-142730492D01*
X99483706Y-142703662D01*
X99502340Y-142678537D01*
X99523347Y-142655360D01*
X99546524Y-142634353D01*
X99571649Y-142615719D01*
X99598479Y-142599638D01*
X99626757Y-142586263D01*
X99656209Y-142575725D01*
X99686552Y-142568125D01*
X99717494Y-142563535D01*
X99748737Y-142562000D01*
X100386237Y-142562000D01*
X100417480Y-142563535D01*
X100417480Y-142563535D01*
G37*
D12*
X100067487Y-143237000D03*
D11*
G36*
X85325820Y-142563535D02*
G01*
X85356762Y-142568125D01*
X85387105Y-142575725D01*
X85416557Y-142586263D01*
X85444835Y-142599638D01*
X85471665Y-142615719D01*
X85496790Y-142634353D01*
X85519967Y-142655360D01*
X85540974Y-142678537D01*
X85559608Y-142703662D01*
X85575689Y-142730492D01*
X85589064Y-142758770D01*
X85599602Y-142788222D01*
X85607202Y-142818565D01*
X85611792Y-142849507D01*
X85613327Y-142880750D01*
X85613327Y-143593250D01*
X85611792Y-143624493D01*
X85607202Y-143655435D01*
X85599602Y-143685778D01*
X85589064Y-143715230D01*
X85575689Y-143743508D01*
X85559608Y-143770338D01*
X85540974Y-143795463D01*
X85519967Y-143818640D01*
X85496790Y-143839647D01*
X85471665Y-143858281D01*
X85444835Y-143874362D01*
X85416557Y-143887737D01*
X85387105Y-143898275D01*
X85356762Y-143905875D01*
X85325820Y-143910465D01*
X85294577Y-143912000D01*
X84657077Y-143912000D01*
X84625834Y-143910465D01*
X84594892Y-143905875D01*
X84564549Y-143898275D01*
X84535097Y-143887737D01*
X84506819Y-143874362D01*
X84479989Y-143858281D01*
X84454864Y-143839647D01*
X84431687Y-143818640D01*
X84410680Y-143795463D01*
X84392046Y-143770338D01*
X84375965Y-143743508D01*
X84362590Y-143715230D01*
X84352052Y-143685778D01*
X84344452Y-143655435D01*
X84339862Y-143624493D01*
X84338327Y-143593250D01*
X84338327Y-142880750D01*
X84339862Y-142849507D01*
X84344452Y-142818565D01*
X84352052Y-142788222D01*
X84362590Y-142758770D01*
X84375965Y-142730492D01*
X84392046Y-142703662D01*
X84410680Y-142678537D01*
X84431687Y-142655360D01*
X84454864Y-142634353D01*
X84479989Y-142615719D01*
X84506819Y-142599638D01*
X84535097Y-142586263D01*
X84564549Y-142575725D01*
X84594892Y-142568125D01*
X84625834Y-142563535D01*
X84657077Y-142562000D01*
X85294577Y-142562000D01*
X85325820Y-142563535D01*
X85325820Y-142563535D01*
G37*
D12*
X84975827Y-143237000D03*
D11*
G36*
X83750820Y-142563535D02*
G01*
X83781762Y-142568125D01*
X83812105Y-142575725D01*
X83841557Y-142586263D01*
X83869835Y-142599638D01*
X83896665Y-142615719D01*
X83921790Y-142634353D01*
X83944967Y-142655360D01*
X83965974Y-142678537D01*
X83984608Y-142703662D01*
X84000689Y-142730492D01*
X84014064Y-142758770D01*
X84024602Y-142788222D01*
X84032202Y-142818565D01*
X84036792Y-142849507D01*
X84038327Y-142880750D01*
X84038327Y-143593250D01*
X84036792Y-143624493D01*
X84032202Y-143655435D01*
X84024602Y-143685778D01*
X84014064Y-143715230D01*
X84000689Y-143743508D01*
X83984608Y-143770338D01*
X83965974Y-143795463D01*
X83944967Y-143818640D01*
X83921790Y-143839647D01*
X83896665Y-143858281D01*
X83869835Y-143874362D01*
X83841557Y-143887737D01*
X83812105Y-143898275D01*
X83781762Y-143905875D01*
X83750820Y-143910465D01*
X83719577Y-143912000D01*
X83082077Y-143912000D01*
X83050834Y-143910465D01*
X83019892Y-143905875D01*
X82989549Y-143898275D01*
X82960097Y-143887737D01*
X82931819Y-143874362D01*
X82904989Y-143858281D01*
X82879864Y-143839647D01*
X82856687Y-143818640D01*
X82835680Y-143795463D01*
X82817046Y-143770338D01*
X82800965Y-143743508D01*
X82787590Y-143715230D01*
X82777052Y-143685778D01*
X82769452Y-143655435D01*
X82764862Y-143624493D01*
X82763327Y-143593250D01*
X82763327Y-142880750D01*
X82764862Y-142849507D01*
X82769452Y-142818565D01*
X82777052Y-142788222D01*
X82787590Y-142758770D01*
X82800965Y-142730492D01*
X82817046Y-142703662D01*
X82835680Y-142678537D01*
X82856687Y-142655360D01*
X82879864Y-142634353D01*
X82904989Y-142615719D01*
X82931819Y-142599638D01*
X82960097Y-142586263D01*
X82989549Y-142575725D01*
X83019892Y-142568125D01*
X83050834Y-142563535D01*
X83082077Y-142562000D01*
X83719577Y-142562000D01*
X83750820Y-142563535D01*
X83750820Y-142563535D01*
G37*
D12*
X83400827Y-143237000D03*
D13*
X255388260Y-149837000D03*
X255388260Y-148237000D03*
X255388260Y-146637000D03*
X250488260Y-149837000D03*
X250488260Y-148237000D03*
X250488260Y-146637000D03*
X238721600Y-149837000D03*
X238721600Y-148237000D03*
X238721600Y-146637000D03*
X233821600Y-149837000D03*
X233821600Y-148237000D03*
X233821600Y-146637000D03*
X222054940Y-149837000D03*
X222054940Y-148237000D03*
X222054940Y-146637000D03*
X217154940Y-149837000D03*
X217154940Y-148237000D03*
X217154940Y-146637000D03*
X205388280Y-149837000D03*
X205388280Y-148237000D03*
X205388280Y-146637000D03*
X200488280Y-149837000D03*
X200488280Y-148237000D03*
X200488280Y-146637000D03*
X188721620Y-149837000D03*
X188721620Y-148237000D03*
X188721620Y-146637000D03*
X183821620Y-149837000D03*
X183821620Y-148237000D03*
X183821620Y-146637000D03*
X172054960Y-149837000D03*
X172054960Y-148237000D03*
X172054960Y-146637000D03*
X167154960Y-149837000D03*
X167154960Y-148237000D03*
X167154960Y-146637000D03*
X155388300Y-149837000D03*
X155388300Y-148237000D03*
X155388300Y-146637000D03*
X150488300Y-149837000D03*
X150488300Y-148237000D03*
X150488300Y-146637000D03*
X138721640Y-149837000D03*
X138721640Y-148237000D03*
X138721640Y-146637000D03*
X133821640Y-149837000D03*
X133821640Y-148237000D03*
X133821640Y-146637000D03*
X122054980Y-149837000D03*
X122054980Y-148237000D03*
X122054980Y-146637000D03*
X117154980Y-149837000D03*
X117154980Y-148237000D03*
X117154980Y-146637000D03*
X105388320Y-149837000D03*
X105388320Y-148237000D03*
X105388320Y-146637000D03*
X100488320Y-149837000D03*
X100488320Y-148237000D03*
X100488320Y-146637000D03*
X88721660Y-149837000D03*
X88721660Y-148237000D03*
X88721660Y-146637000D03*
X83821660Y-149837000D03*
X83821660Y-148237000D03*
X83821660Y-146637000D03*
D11*
G36*
X256159086Y-142563535D02*
G01*
X256190028Y-142568125D01*
X256220371Y-142575725D01*
X256249823Y-142586263D01*
X256278101Y-142599638D01*
X256304931Y-142615719D01*
X256330056Y-142634353D01*
X256353233Y-142655360D01*
X256374240Y-142678537D01*
X256392874Y-142703662D01*
X256408955Y-142730492D01*
X256422330Y-142758770D01*
X256432868Y-142788222D01*
X256440468Y-142818565D01*
X256445058Y-142849507D01*
X256446593Y-142880750D01*
X256446593Y-143593250D01*
X256445058Y-143624493D01*
X256440468Y-143655435D01*
X256432868Y-143685778D01*
X256422330Y-143715230D01*
X256408955Y-143743508D01*
X256392874Y-143770338D01*
X256374240Y-143795463D01*
X256353233Y-143818640D01*
X256330056Y-143839647D01*
X256304931Y-143858281D01*
X256278101Y-143874362D01*
X256249823Y-143887737D01*
X256220371Y-143898275D01*
X256190028Y-143905875D01*
X256159086Y-143910465D01*
X256127843Y-143912000D01*
X255490343Y-143912000D01*
X255459100Y-143910465D01*
X255428158Y-143905875D01*
X255397815Y-143898275D01*
X255368363Y-143887737D01*
X255340085Y-143874362D01*
X255313255Y-143858281D01*
X255288130Y-143839647D01*
X255264953Y-143818640D01*
X255243946Y-143795463D01*
X255225312Y-143770338D01*
X255209231Y-143743508D01*
X255195856Y-143715230D01*
X255185318Y-143685778D01*
X255177718Y-143655435D01*
X255173128Y-143624493D01*
X255171593Y-143593250D01*
X255171593Y-142880750D01*
X255173128Y-142849507D01*
X255177718Y-142818565D01*
X255185318Y-142788222D01*
X255195856Y-142758770D01*
X255209231Y-142730492D01*
X255225312Y-142703662D01*
X255243946Y-142678537D01*
X255264953Y-142655360D01*
X255288130Y-142634353D01*
X255313255Y-142615719D01*
X255340085Y-142599638D01*
X255368363Y-142586263D01*
X255397815Y-142575725D01*
X255428158Y-142568125D01*
X255459100Y-142563535D01*
X255490343Y-142562000D01*
X256127843Y-142562000D01*
X256159086Y-142563535D01*
X256159086Y-142563535D01*
G37*
D12*
X255809093Y-143237000D03*
D11*
G36*
X254584086Y-142563535D02*
G01*
X254615028Y-142568125D01*
X254645371Y-142575725D01*
X254674823Y-142586263D01*
X254703101Y-142599638D01*
X254729931Y-142615719D01*
X254755056Y-142634353D01*
X254778233Y-142655360D01*
X254799240Y-142678537D01*
X254817874Y-142703662D01*
X254833955Y-142730492D01*
X254847330Y-142758770D01*
X254857868Y-142788222D01*
X254865468Y-142818565D01*
X254870058Y-142849507D01*
X254871593Y-142880750D01*
X254871593Y-143593250D01*
X254870058Y-143624493D01*
X254865468Y-143655435D01*
X254857868Y-143685778D01*
X254847330Y-143715230D01*
X254833955Y-143743508D01*
X254817874Y-143770338D01*
X254799240Y-143795463D01*
X254778233Y-143818640D01*
X254755056Y-143839647D01*
X254729931Y-143858281D01*
X254703101Y-143874362D01*
X254674823Y-143887737D01*
X254645371Y-143898275D01*
X254615028Y-143905875D01*
X254584086Y-143910465D01*
X254552843Y-143912000D01*
X253915343Y-143912000D01*
X253884100Y-143910465D01*
X253853158Y-143905875D01*
X253822815Y-143898275D01*
X253793363Y-143887737D01*
X253765085Y-143874362D01*
X253738255Y-143858281D01*
X253713130Y-143839647D01*
X253689953Y-143818640D01*
X253668946Y-143795463D01*
X253650312Y-143770338D01*
X253634231Y-143743508D01*
X253620856Y-143715230D01*
X253610318Y-143685778D01*
X253602718Y-143655435D01*
X253598128Y-143624493D01*
X253596593Y-143593250D01*
X253596593Y-142880750D01*
X253598128Y-142849507D01*
X253602718Y-142818565D01*
X253610318Y-142788222D01*
X253620856Y-142758770D01*
X253634231Y-142730492D01*
X253650312Y-142703662D01*
X253668946Y-142678537D01*
X253689953Y-142655360D01*
X253713130Y-142634353D01*
X253738255Y-142615719D01*
X253765085Y-142599638D01*
X253793363Y-142586263D01*
X253822815Y-142575725D01*
X253853158Y-142568125D01*
X253884100Y-142563535D01*
X253915343Y-142562000D01*
X254552843Y-142562000D01*
X254584086Y-142563535D01*
X254584086Y-142563535D01*
G37*
D12*
X254234093Y-143237000D03*
D11*
G36*
X239492426Y-142563535D02*
G01*
X239523368Y-142568125D01*
X239553711Y-142575725D01*
X239583163Y-142586263D01*
X239611441Y-142599638D01*
X239638271Y-142615719D01*
X239663396Y-142634353D01*
X239686573Y-142655360D01*
X239707580Y-142678537D01*
X239726214Y-142703662D01*
X239742295Y-142730492D01*
X239755670Y-142758770D01*
X239766208Y-142788222D01*
X239773808Y-142818565D01*
X239778398Y-142849507D01*
X239779933Y-142880750D01*
X239779933Y-143593250D01*
X239778398Y-143624493D01*
X239773808Y-143655435D01*
X239766208Y-143685778D01*
X239755670Y-143715230D01*
X239742295Y-143743508D01*
X239726214Y-143770338D01*
X239707580Y-143795463D01*
X239686573Y-143818640D01*
X239663396Y-143839647D01*
X239638271Y-143858281D01*
X239611441Y-143874362D01*
X239583163Y-143887737D01*
X239553711Y-143898275D01*
X239523368Y-143905875D01*
X239492426Y-143910465D01*
X239461183Y-143912000D01*
X238823683Y-143912000D01*
X238792440Y-143910465D01*
X238761498Y-143905875D01*
X238731155Y-143898275D01*
X238701703Y-143887737D01*
X238673425Y-143874362D01*
X238646595Y-143858281D01*
X238621470Y-143839647D01*
X238598293Y-143818640D01*
X238577286Y-143795463D01*
X238558652Y-143770338D01*
X238542571Y-143743508D01*
X238529196Y-143715230D01*
X238518658Y-143685778D01*
X238511058Y-143655435D01*
X238506468Y-143624493D01*
X238504933Y-143593250D01*
X238504933Y-142880750D01*
X238506468Y-142849507D01*
X238511058Y-142818565D01*
X238518658Y-142788222D01*
X238529196Y-142758770D01*
X238542571Y-142730492D01*
X238558652Y-142703662D01*
X238577286Y-142678537D01*
X238598293Y-142655360D01*
X238621470Y-142634353D01*
X238646595Y-142615719D01*
X238673425Y-142599638D01*
X238701703Y-142586263D01*
X238731155Y-142575725D01*
X238761498Y-142568125D01*
X238792440Y-142563535D01*
X238823683Y-142562000D01*
X239461183Y-142562000D01*
X239492426Y-142563535D01*
X239492426Y-142563535D01*
G37*
D12*
X239142433Y-143237000D03*
D11*
G36*
X237917426Y-142563535D02*
G01*
X237948368Y-142568125D01*
X237978711Y-142575725D01*
X238008163Y-142586263D01*
X238036441Y-142599638D01*
X238063271Y-142615719D01*
X238088396Y-142634353D01*
X238111573Y-142655360D01*
X238132580Y-142678537D01*
X238151214Y-142703662D01*
X238167295Y-142730492D01*
X238180670Y-142758770D01*
X238191208Y-142788222D01*
X238198808Y-142818565D01*
X238203398Y-142849507D01*
X238204933Y-142880750D01*
X238204933Y-143593250D01*
X238203398Y-143624493D01*
X238198808Y-143655435D01*
X238191208Y-143685778D01*
X238180670Y-143715230D01*
X238167295Y-143743508D01*
X238151214Y-143770338D01*
X238132580Y-143795463D01*
X238111573Y-143818640D01*
X238088396Y-143839647D01*
X238063271Y-143858281D01*
X238036441Y-143874362D01*
X238008163Y-143887737D01*
X237978711Y-143898275D01*
X237948368Y-143905875D01*
X237917426Y-143910465D01*
X237886183Y-143912000D01*
X237248683Y-143912000D01*
X237217440Y-143910465D01*
X237186498Y-143905875D01*
X237156155Y-143898275D01*
X237126703Y-143887737D01*
X237098425Y-143874362D01*
X237071595Y-143858281D01*
X237046470Y-143839647D01*
X237023293Y-143818640D01*
X237002286Y-143795463D01*
X236983652Y-143770338D01*
X236967571Y-143743508D01*
X236954196Y-143715230D01*
X236943658Y-143685778D01*
X236936058Y-143655435D01*
X236931468Y-143624493D01*
X236929933Y-143593250D01*
X236929933Y-142880750D01*
X236931468Y-142849507D01*
X236936058Y-142818565D01*
X236943658Y-142788222D01*
X236954196Y-142758770D01*
X236967571Y-142730492D01*
X236983652Y-142703662D01*
X237002286Y-142678537D01*
X237023293Y-142655360D01*
X237046470Y-142634353D01*
X237071595Y-142615719D01*
X237098425Y-142599638D01*
X237126703Y-142586263D01*
X237156155Y-142575725D01*
X237186498Y-142568125D01*
X237217440Y-142563535D01*
X237248683Y-142562000D01*
X237886183Y-142562000D01*
X237917426Y-142563535D01*
X237917426Y-142563535D01*
G37*
D12*
X237567433Y-143237000D03*
D11*
G36*
X222825766Y-142563535D02*
G01*
X222856708Y-142568125D01*
X222887051Y-142575725D01*
X222916503Y-142586263D01*
X222944781Y-142599638D01*
X222971611Y-142615719D01*
X222996736Y-142634353D01*
X223019913Y-142655360D01*
X223040920Y-142678537D01*
X223059554Y-142703662D01*
X223075635Y-142730492D01*
X223089010Y-142758770D01*
X223099548Y-142788222D01*
X223107148Y-142818565D01*
X223111738Y-142849507D01*
X223113273Y-142880750D01*
X223113273Y-143593250D01*
X223111738Y-143624493D01*
X223107148Y-143655435D01*
X223099548Y-143685778D01*
X223089010Y-143715230D01*
X223075635Y-143743508D01*
X223059554Y-143770338D01*
X223040920Y-143795463D01*
X223019913Y-143818640D01*
X222996736Y-143839647D01*
X222971611Y-143858281D01*
X222944781Y-143874362D01*
X222916503Y-143887737D01*
X222887051Y-143898275D01*
X222856708Y-143905875D01*
X222825766Y-143910465D01*
X222794523Y-143912000D01*
X222157023Y-143912000D01*
X222125780Y-143910465D01*
X222094838Y-143905875D01*
X222064495Y-143898275D01*
X222035043Y-143887737D01*
X222006765Y-143874362D01*
X221979935Y-143858281D01*
X221954810Y-143839647D01*
X221931633Y-143818640D01*
X221910626Y-143795463D01*
X221891992Y-143770338D01*
X221875911Y-143743508D01*
X221862536Y-143715230D01*
X221851998Y-143685778D01*
X221844398Y-143655435D01*
X221839808Y-143624493D01*
X221838273Y-143593250D01*
X221838273Y-142880750D01*
X221839808Y-142849507D01*
X221844398Y-142818565D01*
X221851998Y-142788222D01*
X221862536Y-142758770D01*
X221875911Y-142730492D01*
X221891992Y-142703662D01*
X221910626Y-142678537D01*
X221931633Y-142655360D01*
X221954810Y-142634353D01*
X221979935Y-142615719D01*
X222006765Y-142599638D01*
X222035043Y-142586263D01*
X222064495Y-142575725D01*
X222094838Y-142568125D01*
X222125780Y-142563535D01*
X222157023Y-142562000D01*
X222794523Y-142562000D01*
X222825766Y-142563535D01*
X222825766Y-142563535D01*
G37*
D12*
X222475773Y-143237000D03*
D11*
G36*
X221250766Y-142563535D02*
G01*
X221281708Y-142568125D01*
X221312051Y-142575725D01*
X221341503Y-142586263D01*
X221369781Y-142599638D01*
X221396611Y-142615719D01*
X221421736Y-142634353D01*
X221444913Y-142655360D01*
X221465920Y-142678537D01*
X221484554Y-142703662D01*
X221500635Y-142730492D01*
X221514010Y-142758770D01*
X221524548Y-142788222D01*
X221532148Y-142818565D01*
X221536738Y-142849507D01*
X221538273Y-142880750D01*
X221538273Y-143593250D01*
X221536738Y-143624493D01*
X221532148Y-143655435D01*
X221524548Y-143685778D01*
X221514010Y-143715230D01*
X221500635Y-143743508D01*
X221484554Y-143770338D01*
X221465920Y-143795463D01*
X221444913Y-143818640D01*
X221421736Y-143839647D01*
X221396611Y-143858281D01*
X221369781Y-143874362D01*
X221341503Y-143887737D01*
X221312051Y-143898275D01*
X221281708Y-143905875D01*
X221250766Y-143910465D01*
X221219523Y-143912000D01*
X220582023Y-143912000D01*
X220550780Y-143910465D01*
X220519838Y-143905875D01*
X220489495Y-143898275D01*
X220460043Y-143887737D01*
X220431765Y-143874362D01*
X220404935Y-143858281D01*
X220379810Y-143839647D01*
X220356633Y-143818640D01*
X220335626Y-143795463D01*
X220316992Y-143770338D01*
X220300911Y-143743508D01*
X220287536Y-143715230D01*
X220276998Y-143685778D01*
X220269398Y-143655435D01*
X220264808Y-143624493D01*
X220263273Y-143593250D01*
X220263273Y-142880750D01*
X220264808Y-142849507D01*
X220269398Y-142818565D01*
X220276998Y-142788222D01*
X220287536Y-142758770D01*
X220300911Y-142730492D01*
X220316992Y-142703662D01*
X220335626Y-142678537D01*
X220356633Y-142655360D01*
X220379810Y-142634353D01*
X220404935Y-142615719D01*
X220431765Y-142599638D01*
X220460043Y-142586263D01*
X220489495Y-142575725D01*
X220519838Y-142568125D01*
X220550780Y-142563535D01*
X220582023Y-142562000D01*
X221219523Y-142562000D01*
X221250766Y-142563535D01*
X221250766Y-142563535D01*
G37*
D12*
X220900773Y-143237000D03*
D11*
G36*
X206159106Y-142563535D02*
G01*
X206190048Y-142568125D01*
X206220391Y-142575725D01*
X206249843Y-142586263D01*
X206278121Y-142599638D01*
X206304951Y-142615719D01*
X206330076Y-142634353D01*
X206353253Y-142655360D01*
X206374260Y-142678537D01*
X206392894Y-142703662D01*
X206408975Y-142730492D01*
X206422350Y-142758770D01*
X206432888Y-142788222D01*
X206440488Y-142818565D01*
X206445078Y-142849507D01*
X206446613Y-142880750D01*
X206446613Y-143593250D01*
X206445078Y-143624493D01*
X206440488Y-143655435D01*
X206432888Y-143685778D01*
X206422350Y-143715230D01*
X206408975Y-143743508D01*
X206392894Y-143770338D01*
X206374260Y-143795463D01*
X206353253Y-143818640D01*
X206330076Y-143839647D01*
X206304951Y-143858281D01*
X206278121Y-143874362D01*
X206249843Y-143887737D01*
X206220391Y-143898275D01*
X206190048Y-143905875D01*
X206159106Y-143910465D01*
X206127863Y-143912000D01*
X205490363Y-143912000D01*
X205459120Y-143910465D01*
X205428178Y-143905875D01*
X205397835Y-143898275D01*
X205368383Y-143887737D01*
X205340105Y-143874362D01*
X205313275Y-143858281D01*
X205288150Y-143839647D01*
X205264973Y-143818640D01*
X205243966Y-143795463D01*
X205225332Y-143770338D01*
X205209251Y-143743508D01*
X205195876Y-143715230D01*
X205185338Y-143685778D01*
X205177738Y-143655435D01*
X205173148Y-143624493D01*
X205171613Y-143593250D01*
X205171613Y-142880750D01*
X205173148Y-142849507D01*
X205177738Y-142818565D01*
X205185338Y-142788222D01*
X205195876Y-142758770D01*
X205209251Y-142730492D01*
X205225332Y-142703662D01*
X205243966Y-142678537D01*
X205264973Y-142655360D01*
X205288150Y-142634353D01*
X205313275Y-142615719D01*
X205340105Y-142599638D01*
X205368383Y-142586263D01*
X205397835Y-142575725D01*
X205428178Y-142568125D01*
X205459120Y-142563535D01*
X205490363Y-142562000D01*
X206127863Y-142562000D01*
X206159106Y-142563535D01*
X206159106Y-142563535D01*
G37*
D12*
X205809113Y-143237000D03*
D11*
G36*
X204584106Y-142563535D02*
G01*
X204615048Y-142568125D01*
X204645391Y-142575725D01*
X204674843Y-142586263D01*
X204703121Y-142599638D01*
X204729951Y-142615719D01*
X204755076Y-142634353D01*
X204778253Y-142655360D01*
X204799260Y-142678537D01*
X204817894Y-142703662D01*
X204833975Y-142730492D01*
X204847350Y-142758770D01*
X204857888Y-142788222D01*
X204865488Y-142818565D01*
X204870078Y-142849507D01*
X204871613Y-142880750D01*
X204871613Y-143593250D01*
X204870078Y-143624493D01*
X204865488Y-143655435D01*
X204857888Y-143685778D01*
X204847350Y-143715230D01*
X204833975Y-143743508D01*
X204817894Y-143770338D01*
X204799260Y-143795463D01*
X204778253Y-143818640D01*
X204755076Y-143839647D01*
X204729951Y-143858281D01*
X204703121Y-143874362D01*
X204674843Y-143887737D01*
X204645391Y-143898275D01*
X204615048Y-143905875D01*
X204584106Y-143910465D01*
X204552863Y-143912000D01*
X203915363Y-143912000D01*
X203884120Y-143910465D01*
X203853178Y-143905875D01*
X203822835Y-143898275D01*
X203793383Y-143887737D01*
X203765105Y-143874362D01*
X203738275Y-143858281D01*
X203713150Y-143839647D01*
X203689973Y-143818640D01*
X203668966Y-143795463D01*
X203650332Y-143770338D01*
X203634251Y-143743508D01*
X203620876Y-143715230D01*
X203610338Y-143685778D01*
X203602738Y-143655435D01*
X203598148Y-143624493D01*
X203596613Y-143593250D01*
X203596613Y-142880750D01*
X203598148Y-142849507D01*
X203602738Y-142818565D01*
X203610338Y-142788222D01*
X203620876Y-142758770D01*
X203634251Y-142730492D01*
X203650332Y-142703662D01*
X203668966Y-142678537D01*
X203689973Y-142655360D01*
X203713150Y-142634353D01*
X203738275Y-142615719D01*
X203765105Y-142599638D01*
X203793383Y-142586263D01*
X203822835Y-142575725D01*
X203853178Y-142568125D01*
X203884120Y-142563535D01*
X203915363Y-142562000D01*
X204552863Y-142562000D01*
X204584106Y-142563535D01*
X204584106Y-142563535D01*
G37*
D12*
X204234113Y-143237000D03*
D11*
G36*
X189492446Y-142563535D02*
G01*
X189523388Y-142568125D01*
X189553731Y-142575725D01*
X189583183Y-142586263D01*
X189611461Y-142599638D01*
X189638291Y-142615719D01*
X189663416Y-142634353D01*
X189686593Y-142655360D01*
X189707600Y-142678537D01*
X189726234Y-142703662D01*
X189742315Y-142730492D01*
X189755690Y-142758770D01*
X189766228Y-142788222D01*
X189773828Y-142818565D01*
X189778418Y-142849507D01*
X189779953Y-142880750D01*
X189779953Y-143593250D01*
X189778418Y-143624493D01*
X189773828Y-143655435D01*
X189766228Y-143685778D01*
X189755690Y-143715230D01*
X189742315Y-143743508D01*
X189726234Y-143770338D01*
X189707600Y-143795463D01*
X189686593Y-143818640D01*
X189663416Y-143839647D01*
X189638291Y-143858281D01*
X189611461Y-143874362D01*
X189583183Y-143887737D01*
X189553731Y-143898275D01*
X189523388Y-143905875D01*
X189492446Y-143910465D01*
X189461203Y-143912000D01*
X188823703Y-143912000D01*
X188792460Y-143910465D01*
X188761518Y-143905875D01*
X188731175Y-143898275D01*
X188701723Y-143887737D01*
X188673445Y-143874362D01*
X188646615Y-143858281D01*
X188621490Y-143839647D01*
X188598313Y-143818640D01*
X188577306Y-143795463D01*
X188558672Y-143770338D01*
X188542591Y-143743508D01*
X188529216Y-143715230D01*
X188518678Y-143685778D01*
X188511078Y-143655435D01*
X188506488Y-143624493D01*
X188504953Y-143593250D01*
X188504953Y-142880750D01*
X188506488Y-142849507D01*
X188511078Y-142818565D01*
X188518678Y-142788222D01*
X188529216Y-142758770D01*
X188542591Y-142730492D01*
X188558672Y-142703662D01*
X188577306Y-142678537D01*
X188598313Y-142655360D01*
X188621490Y-142634353D01*
X188646615Y-142615719D01*
X188673445Y-142599638D01*
X188701723Y-142586263D01*
X188731175Y-142575725D01*
X188761518Y-142568125D01*
X188792460Y-142563535D01*
X188823703Y-142562000D01*
X189461203Y-142562000D01*
X189492446Y-142563535D01*
X189492446Y-142563535D01*
G37*
D12*
X189142453Y-143237000D03*
D11*
G36*
X187917446Y-142563535D02*
G01*
X187948388Y-142568125D01*
X187978731Y-142575725D01*
X188008183Y-142586263D01*
X188036461Y-142599638D01*
X188063291Y-142615719D01*
X188088416Y-142634353D01*
X188111593Y-142655360D01*
X188132600Y-142678537D01*
X188151234Y-142703662D01*
X188167315Y-142730492D01*
X188180690Y-142758770D01*
X188191228Y-142788222D01*
X188198828Y-142818565D01*
X188203418Y-142849507D01*
X188204953Y-142880750D01*
X188204953Y-143593250D01*
X188203418Y-143624493D01*
X188198828Y-143655435D01*
X188191228Y-143685778D01*
X188180690Y-143715230D01*
X188167315Y-143743508D01*
X188151234Y-143770338D01*
X188132600Y-143795463D01*
X188111593Y-143818640D01*
X188088416Y-143839647D01*
X188063291Y-143858281D01*
X188036461Y-143874362D01*
X188008183Y-143887737D01*
X187978731Y-143898275D01*
X187948388Y-143905875D01*
X187917446Y-143910465D01*
X187886203Y-143912000D01*
X187248703Y-143912000D01*
X187217460Y-143910465D01*
X187186518Y-143905875D01*
X187156175Y-143898275D01*
X187126723Y-143887737D01*
X187098445Y-143874362D01*
X187071615Y-143858281D01*
X187046490Y-143839647D01*
X187023313Y-143818640D01*
X187002306Y-143795463D01*
X186983672Y-143770338D01*
X186967591Y-143743508D01*
X186954216Y-143715230D01*
X186943678Y-143685778D01*
X186936078Y-143655435D01*
X186931488Y-143624493D01*
X186929953Y-143593250D01*
X186929953Y-142880750D01*
X186931488Y-142849507D01*
X186936078Y-142818565D01*
X186943678Y-142788222D01*
X186954216Y-142758770D01*
X186967591Y-142730492D01*
X186983672Y-142703662D01*
X187002306Y-142678537D01*
X187023313Y-142655360D01*
X187046490Y-142634353D01*
X187071615Y-142615719D01*
X187098445Y-142599638D01*
X187126723Y-142586263D01*
X187156175Y-142575725D01*
X187186518Y-142568125D01*
X187217460Y-142563535D01*
X187248703Y-142562000D01*
X187886203Y-142562000D01*
X187917446Y-142563535D01*
X187917446Y-142563535D01*
G37*
D12*
X187567453Y-143237000D03*
D11*
G36*
X172825786Y-142563535D02*
G01*
X172856728Y-142568125D01*
X172887071Y-142575725D01*
X172916523Y-142586263D01*
X172944801Y-142599638D01*
X172971631Y-142615719D01*
X172996756Y-142634353D01*
X173019933Y-142655360D01*
X173040940Y-142678537D01*
X173059574Y-142703662D01*
X173075655Y-142730492D01*
X173089030Y-142758770D01*
X173099568Y-142788222D01*
X173107168Y-142818565D01*
X173111758Y-142849507D01*
X173113293Y-142880750D01*
X173113293Y-143593250D01*
X173111758Y-143624493D01*
X173107168Y-143655435D01*
X173099568Y-143685778D01*
X173089030Y-143715230D01*
X173075655Y-143743508D01*
X173059574Y-143770338D01*
X173040940Y-143795463D01*
X173019933Y-143818640D01*
X172996756Y-143839647D01*
X172971631Y-143858281D01*
X172944801Y-143874362D01*
X172916523Y-143887737D01*
X172887071Y-143898275D01*
X172856728Y-143905875D01*
X172825786Y-143910465D01*
X172794543Y-143912000D01*
X172157043Y-143912000D01*
X172125800Y-143910465D01*
X172094858Y-143905875D01*
X172064515Y-143898275D01*
X172035063Y-143887737D01*
X172006785Y-143874362D01*
X171979955Y-143858281D01*
X171954830Y-143839647D01*
X171931653Y-143818640D01*
X171910646Y-143795463D01*
X171892012Y-143770338D01*
X171875931Y-143743508D01*
X171862556Y-143715230D01*
X171852018Y-143685778D01*
X171844418Y-143655435D01*
X171839828Y-143624493D01*
X171838293Y-143593250D01*
X171838293Y-142880750D01*
X171839828Y-142849507D01*
X171844418Y-142818565D01*
X171852018Y-142788222D01*
X171862556Y-142758770D01*
X171875931Y-142730492D01*
X171892012Y-142703662D01*
X171910646Y-142678537D01*
X171931653Y-142655360D01*
X171954830Y-142634353D01*
X171979955Y-142615719D01*
X172006785Y-142599638D01*
X172035063Y-142586263D01*
X172064515Y-142575725D01*
X172094858Y-142568125D01*
X172125800Y-142563535D01*
X172157043Y-142562000D01*
X172794543Y-142562000D01*
X172825786Y-142563535D01*
X172825786Y-142563535D01*
G37*
D12*
X172475793Y-143237000D03*
D11*
G36*
X171250786Y-142563535D02*
G01*
X171281728Y-142568125D01*
X171312071Y-142575725D01*
X171341523Y-142586263D01*
X171369801Y-142599638D01*
X171396631Y-142615719D01*
X171421756Y-142634353D01*
X171444933Y-142655360D01*
X171465940Y-142678537D01*
X171484574Y-142703662D01*
X171500655Y-142730492D01*
X171514030Y-142758770D01*
X171524568Y-142788222D01*
X171532168Y-142818565D01*
X171536758Y-142849507D01*
X171538293Y-142880750D01*
X171538293Y-143593250D01*
X171536758Y-143624493D01*
X171532168Y-143655435D01*
X171524568Y-143685778D01*
X171514030Y-143715230D01*
X171500655Y-143743508D01*
X171484574Y-143770338D01*
X171465940Y-143795463D01*
X171444933Y-143818640D01*
X171421756Y-143839647D01*
X171396631Y-143858281D01*
X171369801Y-143874362D01*
X171341523Y-143887737D01*
X171312071Y-143898275D01*
X171281728Y-143905875D01*
X171250786Y-143910465D01*
X171219543Y-143912000D01*
X170582043Y-143912000D01*
X170550800Y-143910465D01*
X170519858Y-143905875D01*
X170489515Y-143898275D01*
X170460063Y-143887737D01*
X170431785Y-143874362D01*
X170404955Y-143858281D01*
X170379830Y-143839647D01*
X170356653Y-143818640D01*
X170335646Y-143795463D01*
X170317012Y-143770338D01*
X170300931Y-143743508D01*
X170287556Y-143715230D01*
X170277018Y-143685778D01*
X170269418Y-143655435D01*
X170264828Y-143624493D01*
X170263293Y-143593250D01*
X170263293Y-142880750D01*
X170264828Y-142849507D01*
X170269418Y-142818565D01*
X170277018Y-142788222D01*
X170287556Y-142758770D01*
X170300931Y-142730492D01*
X170317012Y-142703662D01*
X170335646Y-142678537D01*
X170356653Y-142655360D01*
X170379830Y-142634353D01*
X170404955Y-142615719D01*
X170431785Y-142599638D01*
X170460063Y-142586263D01*
X170489515Y-142575725D01*
X170519858Y-142568125D01*
X170550800Y-142563535D01*
X170582043Y-142562000D01*
X171219543Y-142562000D01*
X171250786Y-142563535D01*
X171250786Y-142563535D01*
G37*
D12*
X170900793Y-143237000D03*
D11*
G36*
X156159126Y-142563535D02*
G01*
X156190068Y-142568125D01*
X156220411Y-142575725D01*
X156249863Y-142586263D01*
X156278141Y-142599638D01*
X156304971Y-142615719D01*
X156330096Y-142634353D01*
X156353273Y-142655360D01*
X156374280Y-142678537D01*
X156392914Y-142703662D01*
X156408995Y-142730492D01*
X156422370Y-142758770D01*
X156432908Y-142788222D01*
X156440508Y-142818565D01*
X156445098Y-142849507D01*
X156446633Y-142880750D01*
X156446633Y-143593250D01*
X156445098Y-143624493D01*
X156440508Y-143655435D01*
X156432908Y-143685778D01*
X156422370Y-143715230D01*
X156408995Y-143743508D01*
X156392914Y-143770338D01*
X156374280Y-143795463D01*
X156353273Y-143818640D01*
X156330096Y-143839647D01*
X156304971Y-143858281D01*
X156278141Y-143874362D01*
X156249863Y-143887737D01*
X156220411Y-143898275D01*
X156190068Y-143905875D01*
X156159126Y-143910465D01*
X156127883Y-143912000D01*
X155490383Y-143912000D01*
X155459140Y-143910465D01*
X155428198Y-143905875D01*
X155397855Y-143898275D01*
X155368403Y-143887737D01*
X155340125Y-143874362D01*
X155313295Y-143858281D01*
X155288170Y-143839647D01*
X155264993Y-143818640D01*
X155243986Y-143795463D01*
X155225352Y-143770338D01*
X155209271Y-143743508D01*
X155195896Y-143715230D01*
X155185358Y-143685778D01*
X155177758Y-143655435D01*
X155173168Y-143624493D01*
X155171633Y-143593250D01*
X155171633Y-142880750D01*
X155173168Y-142849507D01*
X155177758Y-142818565D01*
X155185358Y-142788222D01*
X155195896Y-142758770D01*
X155209271Y-142730492D01*
X155225352Y-142703662D01*
X155243986Y-142678537D01*
X155264993Y-142655360D01*
X155288170Y-142634353D01*
X155313295Y-142615719D01*
X155340125Y-142599638D01*
X155368403Y-142586263D01*
X155397855Y-142575725D01*
X155428198Y-142568125D01*
X155459140Y-142563535D01*
X155490383Y-142562000D01*
X156127883Y-142562000D01*
X156159126Y-142563535D01*
X156159126Y-142563535D01*
G37*
D12*
X155809133Y-143237000D03*
D11*
G36*
X154584126Y-142563535D02*
G01*
X154615068Y-142568125D01*
X154645411Y-142575725D01*
X154674863Y-142586263D01*
X154703141Y-142599638D01*
X154729971Y-142615719D01*
X154755096Y-142634353D01*
X154778273Y-142655360D01*
X154799280Y-142678537D01*
X154817914Y-142703662D01*
X154833995Y-142730492D01*
X154847370Y-142758770D01*
X154857908Y-142788222D01*
X154865508Y-142818565D01*
X154870098Y-142849507D01*
X154871633Y-142880750D01*
X154871633Y-143593250D01*
X154870098Y-143624493D01*
X154865508Y-143655435D01*
X154857908Y-143685778D01*
X154847370Y-143715230D01*
X154833995Y-143743508D01*
X154817914Y-143770338D01*
X154799280Y-143795463D01*
X154778273Y-143818640D01*
X154755096Y-143839647D01*
X154729971Y-143858281D01*
X154703141Y-143874362D01*
X154674863Y-143887737D01*
X154645411Y-143898275D01*
X154615068Y-143905875D01*
X154584126Y-143910465D01*
X154552883Y-143912000D01*
X153915383Y-143912000D01*
X153884140Y-143910465D01*
X153853198Y-143905875D01*
X153822855Y-143898275D01*
X153793403Y-143887737D01*
X153765125Y-143874362D01*
X153738295Y-143858281D01*
X153713170Y-143839647D01*
X153689993Y-143818640D01*
X153668986Y-143795463D01*
X153650352Y-143770338D01*
X153634271Y-143743508D01*
X153620896Y-143715230D01*
X153610358Y-143685778D01*
X153602758Y-143655435D01*
X153598168Y-143624493D01*
X153596633Y-143593250D01*
X153596633Y-142880750D01*
X153598168Y-142849507D01*
X153602758Y-142818565D01*
X153610358Y-142788222D01*
X153620896Y-142758770D01*
X153634271Y-142730492D01*
X153650352Y-142703662D01*
X153668986Y-142678537D01*
X153689993Y-142655360D01*
X153713170Y-142634353D01*
X153738295Y-142615719D01*
X153765125Y-142599638D01*
X153793403Y-142586263D01*
X153822855Y-142575725D01*
X153853198Y-142568125D01*
X153884140Y-142563535D01*
X153915383Y-142562000D01*
X154552883Y-142562000D01*
X154584126Y-142563535D01*
X154584126Y-142563535D01*
G37*
D12*
X154234133Y-143237000D03*
D11*
G36*
X139492466Y-142563535D02*
G01*
X139523408Y-142568125D01*
X139553751Y-142575725D01*
X139583203Y-142586263D01*
X139611481Y-142599638D01*
X139638311Y-142615719D01*
X139663436Y-142634353D01*
X139686613Y-142655360D01*
X139707620Y-142678537D01*
X139726254Y-142703662D01*
X139742335Y-142730492D01*
X139755710Y-142758770D01*
X139766248Y-142788222D01*
X139773848Y-142818565D01*
X139778438Y-142849507D01*
X139779973Y-142880750D01*
X139779973Y-143593250D01*
X139778438Y-143624493D01*
X139773848Y-143655435D01*
X139766248Y-143685778D01*
X139755710Y-143715230D01*
X139742335Y-143743508D01*
X139726254Y-143770338D01*
X139707620Y-143795463D01*
X139686613Y-143818640D01*
X139663436Y-143839647D01*
X139638311Y-143858281D01*
X139611481Y-143874362D01*
X139583203Y-143887737D01*
X139553751Y-143898275D01*
X139523408Y-143905875D01*
X139492466Y-143910465D01*
X139461223Y-143912000D01*
X138823723Y-143912000D01*
X138792480Y-143910465D01*
X138761538Y-143905875D01*
X138731195Y-143898275D01*
X138701743Y-143887737D01*
X138673465Y-143874362D01*
X138646635Y-143858281D01*
X138621510Y-143839647D01*
X138598333Y-143818640D01*
X138577326Y-143795463D01*
X138558692Y-143770338D01*
X138542611Y-143743508D01*
X138529236Y-143715230D01*
X138518698Y-143685778D01*
X138511098Y-143655435D01*
X138506508Y-143624493D01*
X138504973Y-143593250D01*
X138504973Y-142880750D01*
X138506508Y-142849507D01*
X138511098Y-142818565D01*
X138518698Y-142788222D01*
X138529236Y-142758770D01*
X138542611Y-142730492D01*
X138558692Y-142703662D01*
X138577326Y-142678537D01*
X138598333Y-142655360D01*
X138621510Y-142634353D01*
X138646635Y-142615719D01*
X138673465Y-142599638D01*
X138701743Y-142586263D01*
X138731195Y-142575725D01*
X138761538Y-142568125D01*
X138792480Y-142563535D01*
X138823723Y-142562000D01*
X139461223Y-142562000D01*
X139492466Y-142563535D01*
X139492466Y-142563535D01*
G37*
D12*
X139142473Y-143237000D03*
D11*
G36*
X137917466Y-142563535D02*
G01*
X137948408Y-142568125D01*
X137978751Y-142575725D01*
X138008203Y-142586263D01*
X138036481Y-142599638D01*
X138063311Y-142615719D01*
X138088436Y-142634353D01*
X138111613Y-142655360D01*
X138132620Y-142678537D01*
X138151254Y-142703662D01*
X138167335Y-142730492D01*
X138180710Y-142758770D01*
X138191248Y-142788222D01*
X138198848Y-142818565D01*
X138203438Y-142849507D01*
X138204973Y-142880750D01*
X138204973Y-143593250D01*
X138203438Y-143624493D01*
X138198848Y-143655435D01*
X138191248Y-143685778D01*
X138180710Y-143715230D01*
X138167335Y-143743508D01*
X138151254Y-143770338D01*
X138132620Y-143795463D01*
X138111613Y-143818640D01*
X138088436Y-143839647D01*
X138063311Y-143858281D01*
X138036481Y-143874362D01*
X138008203Y-143887737D01*
X137978751Y-143898275D01*
X137948408Y-143905875D01*
X137917466Y-143910465D01*
X137886223Y-143912000D01*
X137248723Y-143912000D01*
X137217480Y-143910465D01*
X137186538Y-143905875D01*
X137156195Y-143898275D01*
X137126743Y-143887737D01*
X137098465Y-143874362D01*
X137071635Y-143858281D01*
X137046510Y-143839647D01*
X137023333Y-143818640D01*
X137002326Y-143795463D01*
X136983692Y-143770338D01*
X136967611Y-143743508D01*
X136954236Y-143715230D01*
X136943698Y-143685778D01*
X136936098Y-143655435D01*
X136931508Y-143624493D01*
X136929973Y-143593250D01*
X136929973Y-142880750D01*
X136931508Y-142849507D01*
X136936098Y-142818565D01*
X136943698Y-142788222D01*
X136954236Y-142758770D01*
X136967611Y-142730492D01*
X136983692Y-142703662D01*
X137002326Y-142678537D01*
X137023333Y-142655360D01*
X137046510Y-142634353D01*
X137071635Y-142615719D01*
X137098465Y-142599638D01*
X137126743Y-142586263D01*
X137156195Y-142575725D01*
X137186538Y-142568125D01*
X137217480Y-142563535D01*
X137248723Y-142562000D01*
X137886223Y-142562000D01*
X137917466Y-142563535D01*
X137917466Y-142563535D01*
G37*
D12*
X137567473Y-143237000D03*
D11*
G36*
X122825806Y-142563535D02*
G01*
X122856748Y-142568125D01*
X122887091Y-142575725D01*
X122916543Y-142586263D01*
X122944821Y-142599638D01*
X122971651Y-142615719D01*
X122996776Y-142634353D01*
X123019953Y-142655360D01*
X123040960Y-142678537D01*
X123059594Y-142703662D01*
X123075675Y-142730492D01*
X123089050Y-142758770D01*
X123099588Y-142788222D01*
X123107188Y-142818565D01*
X123111778Y-142849507D01*
X123113313Y-142880750D01*
X123113313Y-143593250D01*
X123111778Y-143624493D01*
X123107188Y-143655435D01*
X123099588Y-143685778D01*
X123089050Y-143715230D01*
X123075675Y-143743508D01*
X123059594Y-143770338D01*
X123040960Y-143795463D01*
X123019953Y-143818640D01*
X122996776Y-143839647D01*
X122971651Y-143858281D01*
X122944821Y-143874362D01*
X122916543Y-143887737D01*
X122887091Y-143898275D01*
X122856748Y-143905875D01*
X122825806Y-143910465D01*
X122794563Y-143912000D01*
X122157063Y-143912000D01*
X122125820Y-143910465D01*
X122094878Y-143905875D01*
X122064535Y-143898275D01*
X122035083Y-143887737D01*
X122006805Y-143874362D01*
X121979975Y-143858281D01*
X121954850Y-143839647D01*
X121931673Y-143818640D01*
X121910666Y-143795463D01*
X121892032Y-143770338D01*
X121875951Y-143743508D01*
X121862576Y-143715230D01*
X121852038Y-143685778D01*
X121844438Y-143655435D01*
X121839848Y-143624493D01*
X121838313Y-143593250D01*
X121838313Y-142880750D01*
X121839848Y-142849507D01*
X121844438Y-142818565D01*
X121852038Y-142788222D01*
X121862576Y-142758770D01*
X121875951Y-142730492D01*
X121892032Y-142703662D01*
X121910666Y-142678537D01*
X121931673Y-142655360D01*
X121954850Y-142634353D01*
X121979975Y-142615719D01*
X122006805Y-142599638D01*
X122035083Y-142586263D01*
X122064535Y-142575725D01*
X122094878Y-142568125D01*
X122125820Y-142563535D01*
X122157063Y-142562000D01*
X122794563Y-142562000D01*
X122825806Y-142563535D01*
X122825806Y-142563535D01*
G37*
D12*
X122475813Y-143237000D03*
D11*
G36*
X121250806Y-142563535D02*
G01*
X121281748Y-142568125D01*
X121312091Y-142575725D01*
X121341543Y-142586263D01*
X121369821Y-142599638D01*
X121396651Y-142615719D01*
X121421776Y-142634353D01*
X121444953Y-142655360D01*
X121465960Y-142678537D01*
X121484594Y-142703662D01*
X121500675Y-142730492D01*
X121514050Y-142758770D01*
X121524588Y-142788222D01*
X121532188Y-142818565D01*
X121536778Y-142849507D01*
X121538313Y-142880750D01*
X121538313Y-143593250D01*
X121536778Y-143624493D01*
X121532188Y-143655435D01*
X121524588Y-143685778D01*
X121514050Y-143715230D01*
X121500675Y-143743508D01*
X121484594Y-143770338D01*
X121465960Y-143795463D01*
X121444953Y-143818640D01*
X121421776Y-143839647D01*
X121396651Y-143858281D01*
X121369821Y-143874362D01*
X121341543Y-143887737D01*
X121312091Y-143898275D01*
X121281748Y-143905875D01*
X121250806Y-143910465D01*
X121219563Y-143912000D01*
X120582063Y-143912000D01*
X120550820Y-143910465D01*
X120519878Y-143905875D01*
X120489535Y-143898275D01*
X120460083Y-143887737D01*
X120431805Y-143874362D01*
X120404975Y-143858281D01*
X120379850Y-143839647D01*
X120356673Y-143818640D01*
X120335666Y-143795463D01*
X120317032Y-143770338D01*
X120300951Y-143743508D01*
X120287576Y-143715230D01*
X120277038Y-143685778D01*
X120269438Y-143655435D01*
X120264848Y-143624493D01*
X120263313Y-143593250D01*
X120263313Y-142880750D01*
X120264848Y-142849507D01*
X120269438Y-142818565D01*
X120277038Y-142788222D01*
X120287576Y-142758770D01*
X120300951Y-142730492D01*
X120317032Y-142703662D01*
X120335666Y-142678537D01*
X120356673Y-142655360D01*
X120379850Y-142634353D01*
X120404975Y-142615719D01*
X120431805Y-142599638D01*
X120460083Y-142586263D01*
X120489535Y-142575725D01*
X120519878Y-142568125D01*
X120550820Y-142563535D01*
X120582063Y-142562000D01*
X121219563Y-142562000D01*
X121250806Y-142563535D01*
X121250806Y-142563535D01*
G37*
D12*
X120900813Y-143237000D03*
D11*
G36*
X106159146Y-142563535D02*
G01*
X106190088Y-142568125D01*
X106220431Y-142575725D01*
X106249883Y-142586263D01*
X106278161Y-142599638D01*
X106304991Y-142615719D01*
X106330116Y-142634353D01*
X106353293Y-142655360D01*
X106374300Y-142678537D01*
X106392934Y-142703662D01*
X106409015Y-142730492D01*
X106422390Y-142758770D01*
X106432928Y-142788222D01*
X106440528Y-142818565D01*
X106445118Y-142849507D01*
X106446653Y-142880750D01*
X106446653Y-143593250D01*
X106445118Y-143624493D01*
X106440528Y-143655435D01*
X106432928Y-143685778D01*
X106422390Y-143715230D01*
X106409015Y-143743508D01*
X106392934Y-143770338D01*
X106374300Y-143795463D01*
X106353293Y-143818640D01*
X106330116Y-143839647D01*
X106304991Y-143858281D01*
X106278161Y-143874362D01*
X106249883Y-143887737D01*
X106220431Y-143898275D01*
X106190088Y-143905875D01*
X106159146Y-143910465D01*
X106127903Y-143912000D01*
X105490403Y-143912000D01*
X105459160Y-143910465D01*
X105428218Y-143905875D01*
X105397875Y-143898275D01*
X105368423Y-143887737D01*
X105340145Y-143874362D01*
X105313315Y-143858281D01*
X105288190Y-143839647D01*
X105265013Y-143818640D01*
X105244006Y-143795463D01*
X105225372Y-143770338D01*
X105209291Y-143743508D01*
X105195916Y-143715230D01*
X105185378Y-143685778D01*
X105177778Y-143655435D01*
X105173188Y-143624493D01*
X105171653Y-143593250D01*
X105171653Y-142880750D01*
X105173188Y-142849507D01*
X105177778Y-142818565D01*
X105185378Y-142788222D01*
X105195916Y-142758770D01*
X105209291Y-142730492D01*
X105225372Y-142703662D01*
X105244006Y-142678537D01*
X105265013Y-142655360D01*
X105288190Y-142634353D01*
X105313315Y-142615719D01*
X105340145Y-142599638D01*
X105368423Y-142586263D01*
X105397875Y-142575725D01*
X105428218Y-142568125D01*
X105459160Y-142563535D01*
X105490403Y-142562000D01*
X106127903Y-142562000D01*
X106159146Y-142563535D01*
X106159146Y-142563535D01*
G37*
D12*
X105809153Y-143237000D03*
D11*
G36*
X104584146Y-142563535D02*
G01*
X104615088Y-142568125D01*
X104645431Y-142575725D01*
X104674883Y-142586263D01*
X104703161Y-142599638D01*
X104729991Y-142615719D01*
X104755116Y-142634353D01*
X104778293Y-142655360D01*
X104799300Y-142678537D01*
X104817934Y-142703662D01*
X104834015Y-142730492D01*
X104847390Y-142758770D01*
X104857928Y-142788222D01*
X104865528Y-142818565D01*
X104870118Y-142849507D01*
X104871653Y-142880750D01*
X104871653Y-143593250D01*
X104870118Y-143624493D01*
X104865528Y-143655435D01*
X104857928Y-143685778D01*
X104847390Y-143715230D01*
X104834015Y-143743508D01*
X104817934Y-143770338D01*
X104799300Y-143795463D01*
X104778293Y-143818640D01*
X104755116Y-143839647D01*
X104729991Y-143858281D01*
X104703161Y-143874362D01*
X104674883Y-143887737D01*
X104645431Y-143898275D01*
X104615088Y-143905875D01*
X104584146Y-143910465D01*
X104552903Y-143912000D01*
X103915403Y-143912000D01*
X103884160Y-143910465D01*
X103853218Y-143905875D01*
X103822875Y-143898275D01*
X103793423Y-143887737D01*
X103765145Y-143874362D01*
X103738315Y-143858281D01*
X103713190Y-143839647D01*
X103690013Y-143818640D01*
X103669006Y-143795463D01*
X103650372Y-143770338D01*
X103634291Y-143743508D01*
X103620916Y-143715230D01*
X103610378Y-143685778D01*
X103602778Y-143655435D01*
X103598188Y-143624493D01*
X103596653Y-143593250D01*
X103596653Y-142880750D01*
X103598188Y-142849507D01*
X103602778Y-142818565D01*
X103610378Y-142788222D01*
X103620916Y-142758770D01*
X103634291Y-142730492D01*
X103650372Y-142703662D01*
X103669006Y-142678537D01*
X103690013Y-142655360D01*
X103713190Y-142634353D01*
X103738315Y-142615719D01*
X103765145Y-142599638D01*
X103793423Y-142586263D01*
X103822875Y-142575725D01*
X103853218Y-142568125D01*
X103884160Y-142563535D01*
X103915403Y-142562000D01*
X104552903Y-142562000D01*
X104584146Y-142563535D01*
X104584146Y-142563535D01*
G37*
D12*
X104234153Y-143237000D03*
D11*
G36*
X89492486Y-142563535D02*
G01*
X89523428Y-142568125D01*
X89553771Y-142575725D01*
X89583223Y-142586263D01*
X89611501Y-142599638D01*
X89638331Y-142615719D01*
X89663456Y-142634353D01*
X89686633Y-142655360D01*
X89707640Y-142678537D01*
X89726274Y-142703662D01*
X89742355Y-142730492D01*
X89755730Y-142758770D01*
X89766268Y-142788222D01*
X89773868Y-142818565D01*
X89778458Y-142849507D01*
X89779993Y-142880750D01*
X89779993Y-143593250D01*
X89778458Y-143624493D01*
X89773868Y-143655435D01*
X89766268Y-143685778D01*
X89755730Y-143715230D01*
X89742355Y-143743508D01*
X89726274Y-143770338D01*
X89707640Y-143795463D01*
X89686633Y-143818640D01*
X89663456Y-143839647D01*
X89638331Y-143858281D01*
X89611501Y-143874362D01*
X89583223Y-143887737D01*
X89553771Y-143898275D01*
X89523428Y-143905875D01*
X89492486Y-143910465D01*
X89461243Y-143912000D01*
X88823743Y-143912000D01*
X88792500Y-143910465D01*
X88761558Y-143905875D01*
X88731215Y-143898275D01*
X88701763Y-143887737D01*
X88673485Y-143874362D01*
X88646655Y-143858281D01*
X88621530Y-143839647D01*
X88598353Y-143818640D01*
X88577346Y-143795463D01*
X88558712Y-143770338D01*
X88542631Y-143743508D01*
X88529256Y-143715230D01*
X88518718Y-143685778D01*
X88511118Y-143655435D01*
X88506528Y-143624493D01*
X88504993Y-143593250D01*
X88504993Y-142880750D01*
X88506528Y-142849507D01*
X88511118Y-142818565D01*
X88518718Y-142788222D01*
X88529256Y-142758770D01*
X88542631Y-142730492D01*
X88558712Y-142703662D01*
X88577346Y-142678537D01*
X88598353Y-142655360D01*
X88621530Y-142634353D01*
X88646655Y-142615719D01*
X88673485Y-142599638D01*
X88701763Y-142586263D01*
X88731215Y-142575725D01*
X88761558Y-142568125D01*
X88792500Y-142563535D01*
X88823743Y-142562000D01*
X89461243Y-142562000D01*
X89492486Y-142563535D01*
X89492486Y-142563535D01*
G37*
D12*
X89142493Y-143237000D03*
D11*
G36*
X87917486Y-142563535D02*
G01*
X87948428Y-142568125D01*
X87978771Y-142575725D01*
X88008223Y-142586263D01*
X88036501Y-142599638D01*
X88063331Y-142615719D01*
X88088456Y-142634353D01*
X88111633Y-142655360D01*
X88132640Y-142678537D01*
X88151274Y-142703662D01*
X88167355Y-142730492D01*
X88180730Y-142758770D01*
X88191268Y-142788222D01*
X88198868Y-142818565D01*
X88203458Y-142849507D01*
X88204993Y-142880750D01*
X88204993Y-143593250D01*
X88203458Y-143624493D01*
X88198868Y-143655435D01*
X88191268Y-143685778D01*
X88180730Y-143715230D01*
X88167355Y-143743508D01*
X88151274Y-143770338D01*
X88132640Y-143795463D01*
X88111633Y-143818640D01*
X88088456Y-143839647D01*
X88063331Y-143858281D01*
X88036501Y-143874362D01*
X88008223Y-143887737D01*
X87978771Y-143898275D01*
X87948428Y-143905875D01*
X87917486Y-143910465D01*
X87886243Y-143912000D01*
X87248743Y-143912000D01*
X87217500Y-143910465D01*
X87186558Y-143905875D01*
X87156215Y-143898275D01*
X87126763Y-143887737D01*
X87098485Y-143874362D01*
X87071655Y-143858281D01*
X87046530Y-143839647D01*
X87023353Y-143818640D01*
X87002346Y-143795463D01*
X86983712Y-143770338D01*
X86967631Y-143743508D01*
X86954256Y-143715230D01*
X86943718Y-143685778D01*
X86936118Y-143655435D01*
X86931528Y-143624493D01*
X86929993Y-143593250D01*
X86929993Y-142880750D01*
X86931528Y-142849507D01*
X86936118Y-142818565D01*
X86943718Y-142788222D01*
X86954256Y-142758770D01*
X86967631Y-142730492D01*
X86983712Y-142703662D01*
X87002346Y-142678537D01*
X87023353Y-142655360D01*
X87046530Y-142634353D01*
X87071655Y-142615719D01*
X87098485Y-142599638D01*
X87126763Y-142586263D01*
X87156215Y-142575725D01*
X87186558Y-142568125D01*
X87217500Y-142563535D01*
X87248743Y-142562000D01*
X87886243Y-142562000D01*
X87917486Y-142563535D01*
X87917486Y-142563535D01*
G37*
D12*
X87567493Y-143237000D03*
M02*
