M48
INCH,TZ
T1C0.0236
T2C0.0394
%
G90
G05
T1
X24465Y-60197
X25829Y-60684
X26317Y-55815
X27207Y-58361
X27556Y-56831
X28713Y-60201
X28926Y-57711
X29018Y-58361
X29044Y-56393
X29175Y-60369
X32233Y-56393
X32292Y-57633
X33768Y-58361
X35488Y-57711
X35579Y-58361
X35606Y-56393
X38795Y-56393
X38854Y-57633
X40330Y-58361
X42049Y-57711
X42141Y-58361
X42167Y-56393
X45356Y-56393
X45415Y-57633
X46892Y-58361
X48611Y-57711
X48703Y-58361
X48729Y-56393
X51918Y-56393
X51977Y-57633
X53453Y-58361
X55173Y-57711
X55264Y-58361
X55291Y-56393
X58480Y-56393
X58539Y-57633
X60015Y-58361
X61734Y-57711
X61826Y-58361
X61852Y-56393
X65041Y-56393
X65100Y-57633
X66577Y-58361
X68296Y-57711
X68388Y-58361
X68414Y-56393
X71603Y-56393
X71662Y-57633
X73138Y-58361
X74858Y-57711
X74949Y-58361
X74976Y-56393
X78164Y-56393
X78224Y-57633
X79700Y-58361
X81419Y-57711
X81511Y-58361
X81537Y-56393
X84726Y-56393
X84786Y-57633
X86262Y-58361
X87981Y-57711
X88073Y-58361
X88099Y-56393
X91288Y-56393
X91347Y-57633
X92823Y-58361
X94543Y-57711
X94634Y-58361
X94660Y-56393
X97849Y-56393
X97909Y-57633
X99385Y-58361
X101104Y-57692
X101196Y-58361
X101222Y-56393
X104411Y-56393
X104470Y-57633
X105947Y-58361
X107666Y-57711
X107758Y-58361
X107784Y-56393
X110973Y-56393
X111032Y-57633
X112508Y-58361
X114228Y-57711
X114319Y-58361
X114345Y-56393
X117534Y-56393
X117594Y-57633
X119070Y-58361
X120789Y-57711
X120789Y-57711
X120881Y-58361
X120907Y-56393
X124096Y-56393
X124156Y-57633
X124156Y-57633
X125631Y-58361
X127351Y-57711
X127443Y-58361
X127469Y-56393
X130658Y-56393
X130717Y-57633
X132144Y-58410
X132325Y-59857
X132797Y-57731
X133860Y-55920
X135435Y-60330
X136098Y-59294
T2
X134851Y-57180
X134851Y-57967
X134851Y-58755
X134851Y-59542
X23302Y-57967
X23302Y-58755
X136491Y-57967
X136491Y-58755
X24943Y-57193
X24943Y-57980
X24943Y-58768
X24943Y-59555
T0
M30
