G04 #@! TF.GenerationSoftware,KiCad,Pcbnew,(5.1.0-0)*
G04 #@! TF.CreationDate,2019-04-21T18:59:04-07:00*
G04 #@! TF.ProjectId,EInside,45496e73-6964-4652-9e6b-696361645f70,rev?*
G04 #@! TF.SameCoordinates,Original*
G04 #@! TF.FileFunction,Legend,Bot*
G04 #@! TF.FilePolarity,Positive*
%FSLAX46Y46*%
G04 Gerber Fmt 4.6, Leading zero omitted, Abs format (unit mm)*
G04 Created by KiCad (PCBNEW (5.1.0-0)) date 2019-04-21 18:59:04*
%MOMM*%
%LPD*%
G04 APERTURE LIST*
%ADD10C,0.150000*%
%ADD11C,0.500000*%
%ADD12C,0.300000*%
%ADD13C,0.120000*%
G04 APERTURE END LIST*
D10*
X57205000Y-151737000D02*
X57205000Y-150737000D01*
X57205000Y-150737000D02*
X56905000Y-151037000D01*
X57205000Y-150737000D02*
X57505000Y-151037000D01*
X61005000Y-150737000D02*
X61305000Y-151037000D01*
X61005000Y-150737000D02*
X60705000Y-151037000D01*
X61005000Y-151737000D02*
X61005000Y-150737000D01*
X66966904Y-151937000D02*
X67062142Y-151889380D01*
X67205000Y-151889380D01*
X67347857Y-151937000D01*
X67443095Y-152032238D01*
X67490714Y-152127476D01*
X67538333Y-152317952D01*
X67538333Y-152460809D01*
X67490714Y-152651285D01*
X67443095Y-152746523D01*
X67347857Y-152841761D01*
X67205000Y-152889380D01*
X67109761Y-152889380D01*
X66966904Y-152841761D01*
X66919285Y-152794142D01*
X66919285Y-152460809D01*
X67109761Y-152460809D01*
X66490714Y-152889380D02*
X66490714Y-151889380D01*
X65919285Y-152889380D01*
X65919285Y-151889380D01*
X65443095Y-152889380D02*
X65443095Y-151889380D01*
X65205000Y-151889380D01*
X65062142Y-151937000D01*
X64966904Y-152032238D01*
X64919285Y-152127476D01*
X64871666Y-152317952D01*
X64871666Y-152460809D01*
X64919285Y-152651285D01*
X64966904Y-152746523D01*
X65062142Y-152841761D01*
X65205000Y-152889380D01*
X65443095Y-152889380D01*
X66347857Y-144289380D02*
X66824047Y-144289380D01*
X66871666Y-144765571D01*
X66824047Y-144717952D01*
X66728809Y-144670333D01*
X66490714Y-144670333D01*
X66395476Y-144717952D01*
X66347857Y-144765571D01*
X66300238Y-144860809D01*
X66300238Y-145098904D01*
X66347857Y-145194142D01*
X66395476Y-145241761D01*
X66490714Y-145289380D01*
X66728809Y-145289380D01*
X66824047Y-145241761D01*
X66871666Y-145194142D01*
X65966904Y-144622714D02*
X65728809Y-145289380D01*
X65490714Y-144622714D01*
X57105000Y-146237000D02*
X61105000Y-146237000D01*
X61105000Y-146237000D02*
X61105000Y-150237000D01*
X61105000Y-150237000D02*
X57105000Y-150237000D01*
X57105000Y-150237000D02*
X57105000Y-146237000D01*
X60188289Y-150689380D02*
X59997812Y-150689380D01*
X59902574Y-150737000D01*
X59807336Y-150832238D01*
X59759717Y-151022714D01*
X59759717Y-151356047D01*
X59807336Y-151546523D01*
X59902574Y-151641761D01*
X59997812Y-151689380D01*
X60188289Y-151689380D01*
X60283527Y-151641761D01*
X60378765Y-151546523D01*
X60426384Y-151356047D01*
X60426384Y-151022714D01*
X60378765Y-150832238D01*
X60283527Y-150737000D01*
X60188289Y-150689380D01*
X59331146Y-150689380D02*
X59331146Y-151498904D01*
X59283527Y-151594142D01*
X59235908Y-151641761D01*
X59140669Y-151689380D01*
X58950193Y-151689380D01*
X58854955Y-151641761D01*
X58807336Y-151594142D01*
X58759717Y-151498904D01*
X58759717Y-150689380D01*
X58426384Y-150689380D02*
X57854955Y-150689380D01*
X58140669Y-151689380D02*
X58140669Y-150689380D01*
D11*
X195605000Y-140237000D02*
X197605000Y-141237000D01*
X192605000Y-141237000D02*
X197605000Y-141237000D01*
X195605000Y-142237000D02*
X197605000Y-141237000D01*
X195605000Y-154237000D02*
X197605000Y-155237000D01*
X192605000Y-155237000D02*
X197605000Y-155237000D01*
X195605000Y-156237000D02*
X197605000Y-155237000D01*
X353605000Y-149237000D02*
X355605000Y-148237000D01*
X350605000Y-148237000D02*
X355605000Y-148237000D01*
X353605000Y-147237000D02*
X355605000Y-148237000D01*
X49405000Y-148237000D02*
X54405000Y-148237000D01*
X52405000Y-147237000D02*
X54405000Y-148237000D01*
X52405000Y-149237000D02*
X54405000Y-148237000D01*
D10*
X76136071Y-156265571D02*
X75993214Y-156313190D01*
X75945595Y-156360809D01*
X75897976Y-156456047D01*
X75897976Y-156598904D01*
X75945595Y-156694142D01*
X75993214Y-156741761D01*
X76088452Y-156789380D01*
X76469404Y-156789380D01*
X76469404Y-155789380D01*
X76136071Y-155789380D01*
X76040833Y-155837000D01*
X75993214Y-155884619D01*
X75945595Y-155979857D01*
X75945595Y-156075095D01*
X75993214Y-156170333D01*
X76040833Y-156217952D01*
X76136071Y-156265571D01*
X76469404Y-156265571D01*
X75469404Y-156789380D02*
X75469404Y-155789380D01*
X74897976Y-156789380D02*
X75326547Y-156217952D01*
X74897976Y-155789380D02*
X75469404Y-156360809D01*
X74469404Y-156408428D02*
X73707500Y-156408428D01*
X73231309Y-156789380D02*
X73231309Y-155789380D01*
X72755119Y-156789380D02*
X72755119Y-155789380D01*
X72183690Y-156789380D01*
X72183690Y-155789380D01*
X70374166Y-156694142D02*
X70421785Y-156741761D01*
X70564642Y-156789380D01*
X70659880Y-156789380D01*
X70802738Y-156741761D01*
X70897976Y-156646523D01*
X70945595Y-156551285D01*
X70993214Y-156360809D01*
X70993214Y-156217952D01*
X70945595Y-156027476D01*
X70897976Y-155932238D01*
X70802738Y-155837000D01*
X70659880Y-155789380D01*
X70564642Y-155789380D01*
X70421785Y-155837000D01*
X70374166Y-155884619D01*
X69231309Y-155741761D02*
X70088452Y-157027476D01*
X68707500Y-155789380D02*
X68517023Y-155789380D01*
X68421785Y-155837000D01*
X68326547Y-155932238D01*
X68278928Y-156122714D01*
X68278928Y-156456047D01*
X68326547Y-156646523D01*
X68421785Y-156741761D01*
X68517023Y-156789380D01*
X68707500Y-156789380D01*
X68802738Y-156741761D01*
X68897976Y-156646523D01*
X68945595Y-156456047D01*
X68945595Y-156122714D01*
X68897976Y-155932238D01*
X68802738Y-155837000D01*
X68707500Y-155789380D01*
X67088452Y-156265571D02*
X66755119Y-156265571D01*
X66612261Y-156789380D02*
X67088452Y-156789380D01*
X67088452Y-155789380D01*
X66612261Y-155789380D01*
X66183690Y-156789380D02*
X66183690Y-155789380D01*
X65612261Y-156789380D01*
X65612261Y-155789380D01*
X65183690Y-156503666D02*
X64707500Y-156503666D01*
X65278928Y-156789380D02*
X64945595Y-155789380D01*
X64612261Y-156789380D01*
X63945595Y-156265571D02*
X63802738Y-156313190D01*
X63755119Y-156360809D01*
X63707500Y-156456047D01*
X63707500Y-156598904D01*
X63755119Y-156694142D01*
X63802738Y-156741761D01*
X63897976Y-156789380D01*
X64278928Y-156789380D01*
X64278928Y-155789380D01*
X63945595Y-155789380D01*
X63850357Y-155837000D01*
X63802738Y-155884619D01*
X63755119Y-155979857D01*
X63755119Y-156075095D01*
X63802738Y-156170333D01*
X63850357Y-156217952D01*
X63945595Y-156265571D01*
X64278928Y-156265571D01*
X62802738Y-156789380D02*
X63278928Y-156789380D01*
X63278928Y-155789380D01*
X62469404Y-156265571D02*
X62136071Y-156265571D01*
X61993214Y-156789380D02*
X62469404Y-156789380D01*
X62469404Y-155789380D01*
X61993214Y-155789380D01*
X77088452Y-140489380D02*
X77088452Y-139489380D01*
X76850357Y-139489380D01*
X76707500Y-139537000D01*
X76612262Y-139632238D01*
X76564643Y-139727476D01*
X76517024Y-139917952D01*
X76517024Y-140060809D01*
X76564643Y-140251285D01*
X76612262Y-140346523D01*
X76707500Y-140441761D01*
X76850357Y-140489380D01*
X77088452Y-140489380D01*
X76136071Y-140203666D02*
X75659881Y-140203666D01*
X76231309Y-140489380D02*
X75897976Y-139489380D01*
X75564643Y-140489380D01*
X75374167Y-139489380D02*
X74802738Y-139489380D01*
X75088452Y-140489380D02*
X75088452Y-139489380D01*
X74469405Y-140108428D02*
X73707500Y-140108428D01*
X73231309Y-140489380D02*
X73231309Y-139489380D01*
X72755119Y-140489380D02*
X72755119Y-139489380D01*
X72183690Y-140489380D01*
X72183690Y-139489380D01*
X70374167Y-140394142D02*
X70421786Y-140441761D01*
X70564643Y-140489380D01*
X70659881Y-140489380D01*
X70802738Y-140441761D01*
X70897976Y-140346523D01*
X70945595Y-140251285D01*
X70993214Y-140060809D01*
X70993214Y-139917952D01*
X70945595Y-139727476D01*
X70897976Y-139632238D01*
X70802738Y-139537000D01*
X70659881Y-139489380D01*
X70564643Y-139489380D01*
X70421786Y-139537000D01*
X70374167Y-139584619D01*
X69231309Y-139441761D02*
X70088452Y-140727476D01*
X68707500Y-139489380D02*
X68517024Y-139489380D01*
X68421786Y-139537000D01*
X68326548Y-139632238D01*
X68278928Y-139822714D01*
X68278928Y-140156047D01*
X68326548Y-140346523D01*
X68421786Y-140441761D01*
X68517024Y-140489380D01*
X68707500Y-140489380D01*
X68802738Y-140441761D01*
X68897976Y-140346523D01*
X68945595Y-140156047D01*
X68945595Y-139822714D01*
X68897976Y-139632238D01*
X68802738Y-139537000D01*
X68707500Y-139489380D01*
X67088452Y-139965571D02*
X66755119Y-139965571D01*
X66612262Y-140489380D02*
X67088452Y-140489380D01*
X67088452Y-139489380D01*
X66612262Y-139489380D01*
X66183690Y-140489380D02*
X66183690Y-139489380D01*
X65612262Y-140489380D01*
X65612262Y-139489380D01*
X65183690Y-140203666D02*
X64707500Y-140203666D01*
X65278928Y-140489380D02*
X64945595Y-139489380D01*
X64612262Y-140489380D01*
X63945595Y-139965571D02*
X63802738Y-140013190D01*
X63755119Y-140060809D01*
X63707500Y-140156047D01*
X63707500Y-140298904D01*
X63755119Y-140394142D01*
X63802738Y-140441761D01*
X63897976Y-140489380D01*
X64278928Y-140489380D01*
X64278928Y-139489380D01*
X63945595Y-139489380D01*
X63850357Y-139537000D01*
X63802738Y-139584619D01*
X63755119Y-139679857D01*
X63755119Y-139775095D01*
X63802738Y-139870333D01*
X63850357Y-139917952D01*
X63945595Y-139965571D01*
X64278928Y-139965571D01*
X62802738Y-140489380D02*
X63278928Y-140489380D01*
X63278928Y-139489380D01*
X62469405Y-139965571D02*
X62136071Y-139965571D01*
X61993214Y-140489380D02*
X62469405Y-140489380D01*
X62469405Y-139489380D01*
X61993214Y-139489380D01*
X343869404Y-140389380D02*
X343869404Y-139389380D01*
X343631309Y-139389380D01*
X343488452Y-139437000D01*
X343393214Y-139532238D01*
X343345595Y-139627476D01*
X343297976Y-139817952D01*
X343297976Y-139960809D01*
X343345595Y-140151285D01*
X343393214Y-140246523D01*
X343488452Y-140341761D01*
X343631309Y-140389380D01*
X343869404Y-140389380D01*
X342917023Y-140103666D02*
X342440833Y-140103666D01*
X343012261Y-140389380D02*
X342678928Y-139389380D01*
X342345595Y-140389380D01*
X342155119Y-139389380D02*
X341583690Y-139389380D01*
X341869404Y-140389380D02*
X341869404Y-139389380D01*
X341250357Y-140008428D02*
X340488452Y-140008428D01*
X339821785Y-139389380D02*
X339631309Y-139389380D01*
X339536071Y-139437000D01*
X339440833Y-139532238D01*
X339393214Y-139722714D01*
X339393214Y-140056047D01*
X339440833Y-140246523D01*
X339536071Y-140341761D01*
X339631309Y-140389380D01*
X339821785Y-140389380D01*
X339917023Y-140341761D01*
X340012261Y-140246523D01*
X340059880Y-140056047D01*
X340059880Y-139722714D01*
X340012261Y-139532238D01*
X339917023Y-139437000D01*
X339821785Y-139389380D01*
X338964642Y-139389380D02*
X338964642Y-140198904D01*
X338917023Y-140294142D01*
X338869404Y-140341761D01*
X338774166Y-140389380D01*
X338583690Y-140389380D01*
X338488452Y-140341761D01*
X338440833Y-140294142D01*
X338393214Y-140198904D01*
X338393214Y-139389380D01*
X338059880Y-139389380D02*
X337488452Y-139389380D01*
X337774166Y-140389380D02*
X337774166Y-139389380D01*
X335821785Y-140294142D02*
X335869404Y-140341761D01*
X336012261Y-140389380D01*
X336107500Y-140389380D01*
X336250357Y-140341761D01*
X336345595Y-140246523D01*
X336393214Y-140151285D01*
X336440833Y-139960809D01*
X336440833Y-139817952D01*
X336393214Y-139627476D01*
X336345595Y-139532238D01*
X336250357Y-139437000D01*
X336107500Y-139389380D01*
X336012261Y-139389380D01*
X335869404Y-139437000D01*
X335821785Y-139484619D01*
X334678928Y-139341761D02*
X335536071Y-140627476D01*
X334155119Y-139389380D02*
X333964642Y-139389380D01*
X333869404Y-139437000D01*
X333774166Y-139532238D01*
X333726547Y-139722714D01*
X333726547Y-140056047D01*
X333774166Y-140246523D01*
X333869404Y-140341761D01*
X333964642Y-140389380D01*
X334155119Y-140389380D01*
X334250357Y-140341761D01*
X334345595Y-140246523D01*
X334393214Y-140056047D01*
X334393214Y-139722714D01*
X334345595Y-139532238D01*
X334250357Y-139437000D01*
X334155119Y-139389380D01*
X332536071Y-139865571D02*
X332202738Y-139865571D01*
X332059880Y-140389380D02*
X332536071Y-140389380D01*
X332536071Y-139389380D01*
X332059880Y-139389380D01*
X331631309Y-140389380D02*
X331631309Y-139389380D01*
X331059880Y-140389380D01*
X331059880Y-139389380D01*
X330631309Y-140103666D02*
X330155119Y-140103666D01*
X330726547Y-140389380D02*
X330393214Y-139389380D01*
X330059880Y-140389380D01*
X329393214Y-139865571D02*
X329250357Y-139913190D01*
X329202738Y-139960809D01*
X329155119Y-140056047D01*
X329155119Y-140198904D01*
X329202738Y-140294142D01*
X329250357Y-140341761D01*
X329345595Y-140389380D01*
X329726547Y-140389380D01*
X329726547Y-139389380D01*
X329393214Y-139389380D01*
X329297976Y-139437000D01*
X329250357Y-139484619D01*
X329202738Y-139579857D01*
X329202738Y-139675095D01*
X329250357Y-139770333D01*
X329297976Y-139817952D01*
X329393214Y-139865571D01*
X329726547Y-139865571D01*
X328250357Y-140389380D02*
X328726547Y-140389380D01*
X328726547Y-139389380D01*
X327917023Y-139865571D02*
X327583690Y-139865571D01*
X327440833Y-140389380D02*
X327917023Y-140389380D01*
X327917023Y-139389380D01*
X327440833Y-139389380D01*
X343336071Y-156165571D02*
X343193214Y-156213190D01*
X343145595Y-156260809D01*
X343097976Y-156356047D01*
X343097976Y-156498904D01*
X343145595Y-156594142D01*
X343193214Y-156641761D01*
X343288452Y-156689380D01*
X343669404Y-156689380D01*
X343669404Y-155689380D01*
X343336071Y-155689380D01*
X343240833Y-155737000D01*
X343193214Y-155784619D01*
X343145595Y-155879857D01*
X343145595Y-155975095D01*
X343193214Y-156070333D01*
X343240833Y-156117952D01*
X343336071Y-156165571D01*
X343669404Y-156165571D01*
X342669404Y-156689380D02*
X342669404Y-155689380D01*
X342097976Y-156689380D02*
X342526547Y-156117952D01*
X342097976Y-155689380D02*
X342669404Y-156260809D01*
X341669404Y-156308428D02*
X340907500Y-156308428D01*
X340240833Y-155689380D02*
X340050357Y-155689380D01*
X339955119Y-155737000D01*
X339859880Y-155832238D01*
X339812261Y-156022714D01*
X339812261Y-156356047D01*
X339859880Y-156546523D01*
X339955119Y-156641761D01*
X340050357Y-156689380D01*
X340240833Y-156689380D01*
X340336071Y-156641761D01*
X340431309Y-156546523D01*
X340478928Y-156356047D01*
X340478928Y-156022714D01*
X340431309Y-155832238D01*
X340336071Y-155737000D01*
X340240833Y-155689380D01*
X339383690Y-155689380D02*
X339383690Y-156498904D01*
X339336071Y-156594142D01*
X339288452Y-156641761D01*
X339193214Y-156689380D01*
X339002738Y-156689380D01*
X338907500Y-156641761D01*
X338859880Y-156594142D01*
X338812261Y-156498904D01*
X338812261Y-155689380D01*
X338478928Y-155689380D02*
X337907500Y-155689380D01*
X338193214Y-156689380D02*
X338193214Y-155689380D01*
X336240833Y-156594142D02*
X336288452Y-156641761D01*
X336431309Y-156689380D01*
X336526547Y-156689380D01*
X336669404Y-156641761D01*
X336764642Y-156546523D01*
X336812261Y-156451285D01*
X336859880Y-156260809D01*
X336859880Y-156117952D01*
X336812261Y-155927476D01*
X336764642Y-155832238D01*
X336669404Y-155737000D01*
X336526547Y-155689380D01*
X336431309Y-155689380D01*
X336288452Y-155737000D01*
X336240833Y-155784619D01*
X335097976Y-155641761D02*
X335955119Y-156927476D01*
X334574166Y-155689380D02*
X334383690Y-155689380D01*
X334288452Y-155737000D01*
X334193214Y-155832238D01*
X334145595Y-156022714D01*
X334145595Y-156356047D01*
X334193214Y-156546523D01*
X334288452Y-156641761D01*
X334383690Y-156689380D01*
X334574166Y-156689380D01*
X334669404Y-156641761D01*
X334764642Y-156546523D01*
X334812261Y-156356047D01*
X334812261Y-156022714D01*
X334764642Y-155832238D01*
X334669404Y-155737000D01*
X334574166Y-155689380D01*
X332955119Y-156165571D02*
X332621785Y-156165571D01*
X332478928Y-156689380D02*
X332955119Y-156689380D01*
X332955119Y-155689380D01*
X332478928Y-155689380D01*
X332050357Y-156689380D02*
X332050357Y-155689380D01*
X331478928Y-156689380D01*
X331478928Y-155689380D01*
X331050357Y-156403666D02*
X330574166Y-156403666D01*
X331145595Y-156689380D02*
X330812261Y-155689380D01*
X330478928Y-156689380D01*
X329812261Y-156165571D02*
X329669404Y-156213190D01*
X329621785Y-156260809D01*
X329574166Y-156356047D01*
X329574166Y-156498904D01*
X329621785Y-156594142D01*
X329669404Y-156641761D01*
X329764642Y-156689380D01*
X330145595Y-156689380D01*
X330145595Y-155689380D01*
X329812261Y-155689380D01*
X329717023Y-155737000D01*
X329669404Y-155784619D01*
X329621785Y-155879857D01*
X329621785Y-155975095D01*
X329669404Y-156070333D01*
X329717023Y-156117952D01*
X329812261Y-156165571D01*
X330145595Y-156165571D01*
X328669404Y-156689380D02*
X329145595Y-156689380D01*
X329145595Y-155689380D01*
X328336071Y-156165571D02*
X328002738Y-156165571D01*
X327859880Y-156689380D02*
X328336071Y-156689380D01*
X328336071Y-155689380D01*
X327859880Y-155689380D01*
X348305000Y-150737000D02*
X348005000Y-151037000D01*
X348305000Y-150737000D02*
X348605000Y-151037000D01*
X348305000Y-151737000D02*
X348305000Y-150737000D01*
X345405000Y-150737000D02*
X345705000Y-151037000D01*
X345405000Y-151737000D02*
X345405000Y-150737000D01*
X345405000Y-150737000D02*
X345105000Y-151037000D01*
X348805000Y-146237000D02*
X348805000Y-150237000D01*
X344805000Y-146237000D02*
X348805000Y-146237000D01*
X348805000Y-150237000D02*
X344805000Y-150237000D01*
X344805000Y-150237000D02*
X344805000Y-146237000D01*
D12*
X355248857Y-141448714D02*
X354248857Y-141448714D01*
X353820285Y-143020142D02*
X355248857Y-143020142D01*
X355248857Y-140020142D01*
X353820285Y-140020142D01*
D10*
X347412098Y-151689380D02*
X347412098Y-150689380D01*
X346935908Y-151689380D02*
X346935908Y-150689380D01*
X346364479Y-151689380D01*
X346364479Y-150689380D01*
X339347857Y-144189380D02*
X339824047Y-144189380D01*
X339871666Y-144665571D01*
X339824047Y-144617952D01*
X339728809Y-144570333D01*
X339490714Y-144570333D01*
X339395476Y-144617952D01*
X339347857Y-144665571D01*
X339300238Y-144760809D01*
X339300238Y-144998904D01*
X339347857Y-145094142D01*
X339395476Y-145141761D01*
X339490714Y-145189380D01*
X339728809Y-145189380D01*
X339824047Y-145141761D01*
X339871666Y-145094142D01*
X338966904Y-144522714D02*
X338728809Y-145189380D01*
X338490714Y-144522714D01*
X339966904Y-151837000D02*
X340062142Y-151789380D01*
X340205000Y-151789380D01*
X340347857Y-151837000D01*
X340443095Y-151932238D01*
X340490714Y-152027476D01*
X340538333Y-152217952D01*
X340538333Y-152360809D01*
X340490714Y-152551285D01*
X340443095Y-152646523D01*
X340347857Y-152741761D01*
X340205000Y-152789380D01*
X340109761Y-152789380D01*
X339966904Y-152741761D01*
X339919285Y-152694142D01*
X339919285Y-152360809D01*
X340109761Y-152360809D01*
X339490714Y-152789380D02*
X339490714Y-151789380D01*
X338919285Y-152789380D01*
X338919285Y-151789380D01*
X338443095Y-152789380D02*
X338443095Y-151789380D01*
X338205000Y-151789380D01*
X338062142Y-151837000D01*
X337966904Y-151932238D01*
X337919285Y-152027476D01*
X337871666Y-152217952D01*
X337871666Y-152360809D01*
X337919285Y-152551285D01*
X337966904Y-152646523D01*
X338062142Y-152741761D01*
X338205000Y-152789380D01*
X338443095Y-152789380D01*
D12*
X51601857Y-141371714D02*
X50601857Y-141371714D01*
X50173285Y-142943142D02*
X51601857Y-142943142D01*
X51601857Y-139943142D01*
X50173285Y-139943142D01*
D13*
X62105000Y-155137000D02*
X64905000Y-155137000D01*
X64905000Y-155137000D02*
X64905000Y-153137000D01*
X64905000Y-153137000D02*
X62105000Y-153137000D01*
X62105000Y-153137000D02*
X62105000Y-155137000D01*
X61955001Y-143237000D02*
X64755001Y-143237000D01*
X64755001Y-143237000D02*
X64755001Y-141237000D01*
X64755001Y-141237000D02*
X61955001Y-141237000D01*
X61955001Y-141237000D02*
X61955001Y-143237000D01*
X343920575Y-153237000D02*
X341120575Y-153237000D01*
X341120575Y-153237000D02*
X341120575Y-155237000D01*
X341120575Y-155237000D02*
X343920575Y-155237000D01*
X343920575Y-155237000D02*
X343920575Y-153237000D01*
X343921623Y-141237000D02*
X341121623Y-141237000D01*
X341121623Y-141237000D02*
X341121623Y-143237000D01*
X341121623Y-143237000D02*
X343921623Y-143237000D01*
X343921623Y-143237000D02*
X343921623Y-141237000D01*
M02*
