G04 #@! TF.GenerationSoftware,KiCad,Pcbnew,(5.1.0-0)*
G04 #@! TF.CreationDate,2019-04-21T18:59:04-07:00*
G04 #@! TF.ProjectId,EInside,45496e73-6964-4652-9e6b-696361645f70,rev?*
G04 #@! TF.SameCoordinates,Original*
G04 #@! TF.FileFunction,Copper,L2,Bot*
G04 #@! TF.FilePolarity,Positive*
%FSLAX46Y46*%
G04 Gerber Fmt 4.6, Leading zero omitted, Abs format (unit mm)*
G04 Created by KiCad (PCBNEW (5.1.0-0)) date 2019-04-21 18:59:04*
%MOMM*%
%LPD*%
G04 APERTURE LIST*
%ADD10C,0.300000*%
%ADD11C,0.050000*%
%ADD12O,3.000000X1.250000*%
%ADD13C,1.000000*%
%ADD14C,0.300000*%
%ADD15C,0.254000*%
G04 APERTURE END LIST*
D10*
X62780000Y-154137000D03*
D11*
G36*
X63780000Y-154137000D02*
G01*
X63280000Y-154887000D01*
X62280000Y-154887000D01*
X62280000Y-153387000D01*
X63280000Y-153387000D01*
X63780000Y-154137000D01*
X63780000Y-154137000D01*
G37*
D10*
X64230000Y-154137000D03*
D11*
G36*
X64730000Y-154887000D02*
G01*
X63580000Y-154887000D01*
X64080000Y-154137000D01*
X63580000Y-153387000D01*
X64730000Y-153387000D01*
X64730000Y-154887000D01*
X64730000Y-154887000D01*
G37*
D10*
X62630001Y-142237000D03*
D11*
G36*
X63630001Y-142237000D02*
G01*
X63130001Y-142987000D01*
X62130001Y-142987000D01*
X62130001Y-141487000D01*
X63130001Y-141487000D01*
X63630001Y-142237000D01*
X63630001Y-142237000D01*
G37*
D10*
X64080001Y-142237000D03*
D11*
G36*
X64580001Y-142987000D02*
G01*
X63430001Y-142987000D01*
X63930001Y-142237000D01*
X63430001Y-141487000D01*
X64580001Y-141487000D01*
X64580001Y-142987000D01*
X64580001Y-142987000D01*
G37*
D10*
X343245575Y-154237000D03*
D11*
G36*
X342245575Y-154237000D02*
G01*
X342745575Y-153487000D01*
X343745575Y-153487000D01*
X343745575Y-154987000D01*
X342745575Y-154987000D01*
X342245575Y-154237000D01*
X342245575Y-154237000D01*
G37*
D10*
X341795575Y-154237000D03*
D11*
G36*
X341295575Y-153487000D02*
G01*
X342445575Y-153487000D01*
X341945575Y-154237000D01*
X342445575Y-154987000D01*
X341295575Y-154987000D01*
X341295575Y-153487000D01*
X341295575Y-153487000D01*
G37*
D10*
X343246623Y-142237000D03*
D11*
G36*
X342246623Y-142237000D02*
G01*
X342746623Y-141487000D01*
X343746623Y-141487000D01*
X343746623Y-142987000D01*
X342746623Y-142987000D01*
X342246623Y-142237000D01*
X342246623Y-142237000D01*
G37*
D10*
X341796623Y-142237000D03*
D11*
G36*
X341296623Y-141487000D02*
G01*
X342446623Y-141487000D01*
X341946623Y-142237000D01*
X342446623Y-142987000D01*
X341296623Y-142987000D01*
X341296623Y-141487000D01*
X341296623Y-141487000D01*
G37*
D12*
X59188335Y-149237000D03*
X59188335Y-147237000D03*
X342520575Y-151237000D03*
X342520575Y-149237000D03*
X342520575Y-147237000D03*
X342520575Y-145237000D03*
X63355001Y-151270334D03*
X63355001Y-149270334D03*
X63355001Y-147270334D03*
X63355001Y-145270334D03*
X346687225Y-149237000D03*
X346687225Y-147237000D03*
D13*
X331870600Y-143237000D03*
X315204000Y-143237000D03*
X323704000Y-148237000D03*
X298537400Y-143237000D03*
X307037400Y-148237000D03*
X281870800Y-143237000D03*
X290370800Y-148237000D03*
X265204200Y-143237000D03*
X273704200Y-148237000D03*
X248537600Y-143237000D03*
X257037600Y-148237000D03*
X231871000Y-143237000D03*
X240371000Y-148237000D03*
X215204400Y-143237000D03*
X223704400Y-148237000D03*
X198537800Y-143237000D03*
X207037800Y-148237000D03*
X181871200Y-143237000D03*
X190371200Y-148237000D03*
X165204600Y-143237000D03*
X173704600Y-148237000D03*
X148538000Y-143237000D03*
X157038000Y-148237000D03*
X131871400Y-143237000D03*
X140371400Y-148237000D03*
X115204800Y-143237000D03*
X123704800Y-148237000D03*
X107038200Y-148237000D03*
X81871600Y-143237000D03*
X90371600Y-148237000D03*
X73705000Y-148237000D03*
X98538200Y-143237000D03*
X66846025Y-141770919D03*
X319104000Y-148237002D03*
X323770664Y-143237000D03*
X302437400Y-148237002D03*
X307104064Y-143237000D03*
X285770800Y-148237002D03*
X290437464Y-143237000D03*
X269104200Y-148237002D03*
X273770864Y-143237000D03*
X252437600Y-148237002D03*
X257104264Y-143237000D03*
X235771000Y-148237002D03*
X240437664Y-143237000D03*
X219104400Y-148237002D03*
X223771064Y-143237000D03*
X202437800Y-148237002D03*
X207104464Y-143237000D03*
X185771200Y-148237002D03*
X190437864Y-143237000D03*
X169104600Y-148237002D03*
X173771264Y-143237000D03*
X152438000Y-148237002D03*
X157104664Y-143237000D03*
X135771400Y-148237002D03*
X140438064Y-143237000D03*
X119104800Y-148237002D03*
X123771464Y-143237000D03*
X102438200Y-148237002D03*
X107104864Y-143237000D03*
X85771600Y-148237002D03*
X73771664Y-143237000D03*
X69105000Y-148237002D03*
X90438264Y-143237000D03*
X335646479Y-148361123D03*
X340005000Y-142037000D03*
X215355384Y-146387000D03*
X206805352Y-146587000D03*
X265354584Y-146387000D03*
X256804994Y-146537000D03*
X98688452Y-146387000D03*
X90138420Y-146587000D03*
X82021792Y-146387000D03*
X73471760Y-146587000D03*
X115355112Y-146387000D03*
X106805080Y-146587000D03*
X132021772Y-146387000D03*
X123471740Y-146587000D03*
X148688432Y-146387000D03*
X140138400Y-146587000D03*
X165355092Y-146387000D03*
X156805060Y-146587000D03*
X182021752Y-146387000D03*
X173471720Y-146587000D03*
X198688412Y-146387000D03*
X190138380Y-146587000D03*
X232022083Y-146387000D03*
X223472051Y-146587000D03*
X248688392Y-146387000D03*
X240138360Y-146587000D03*
X282021712Y-146387000D03*
X273471680Y-146587000D03*
X298688879Y-146387000D03*
X290138847Y-146587000D03*
X315355032Y-146387000D03*
X306805000Y-146587000D03*
X306805000Y-146587000D03*
X315355032Y-146387000D03*
X62141404Y-152900597D03*
X332021692Y-146387000D03*
X323471660Y-146587000D03*
X344005006Y-153237000D03*
X337305000Y-146637000D03*
X345689851Y-150606544D03*
X65605000Y-154137000D03*
X72930247Y-152909817D03*
X336105000Y-152037000D03*
X74104998Y-153337000D03*
X69991404Y-144350596D03*
D14*
X215055385Y-146087001D02*
X215355384Y-146387000D01*
X207305351Y-146087001D02*
X215055385Y-146087001D01*
X206805352Y-146587000D02*
X207305351Y-146087001D01*
X264854585Y-145887001D02*
X257454993Y-145887001D01*
X265354584Y-146387000D02*
X264854585Y-145887001D01*
X257454993Y-145887001D02*
X257304993Y-146037001D01*
X257304993Y-146037001D02*
X256804994Y-146537000D01*
X98388453Y-146087001D02*
X98688452Y-146387000D01*
X90638419Y-146087001D02*
X98388453Y-146087001D01*
X90138420Y-146587000D02*
X90638419Y-146087001D01*
X81721793Y-146087001D02*
X82021792Y-146387000D01*
X73971759Y-146087001D02*
X81721793Y-146087001D01*
X73471760Y-146587000D02*
X73971759Y-146087001D01*
X115055113Y-146087001D02*
X115355112Y-146387000D01*
X107305079Y-146087001D02*
X115055113Y-146087001D01*
X106805080Y-146587000D02*
X107305079Y-146087001D01*
X131721773Y-146087001D02*
X132021772Y-146387000D01*
X123971739Y-146087001D02*
X131721773Y-146087001D01*
X123471740Y-146587000D02*
X123971739Y-146087001D01*
X148388433Y-146087001D02*
X148688432Y-146387000D01*
X140638399Y-146087001D02*
X148388433Y-146087001D01*
X140138400Y-146587000D02*
X140638399Y-146087001D01*
X165055093Y-146087001D02*
X165355092Y-146387000D01*
X157305059Y-146087001D02*
X165055093Y-146087001D01*
X156805060Y-146587000D02*
X157305059Y-146087001D01*
X181721753Y-146087001D02*
X182021752Y-146387000D01*
X173971719Y-146087001D02*
X181721753Y-146087001D01*
X173471720Y-146587000D02*
X173971719Y-146087001D01*
X198388413Y-146087001D02*
X198688412Y-146387000D01*
X190638379Y-146087001D02*
X198388413Y-146087001D01*
X190138380Y-146587000D02*
X190638379Y-146087001D01*
X231722084Y-146087001D02*
X232022083Y-146387000D01*
X223972050Y-146087001D02*
X231722084Y-146087001D01*
X223472051Y-146587000D02*
X223972050Y-146087001D01*
X248388393Y-146087001D02*
X248688392Y-146387000D01*
X240638359Y-146087001D02*
X248388393Y-146087001D01*
X240138360Y-146587000D02*
X240638359Y-146087001D01*
X281721713Y-146087001D02*
X282021712Y-146387000D01*
X273971679Y-146087001D02*
X281721713Y-146087001D01*
X273471680Y-146587000D02*
X273971679Y-146087001D01*
X298388880Y-146087001D02*
X298688879Y-146387000D01*
X290638846Y-146087001D02*
X298388880Y-146087001D01*
X290138847Y-146587000D02*
X290638846Y-146087001D01*
X315055033Y-146087001D02*
X315355032Y-146387000D01*
X307304999Y-146087001D02*
X315055033Y-146087001D01*
X306805000Y-146587000D02*
X307304999Y-146087001D01*
X306805000Y-146587000D02*
X307304999Y-146087001D01*
X307304999Y-146087001D02*
X315055033Y-146087001D01*
X315055033Y-146087001D02*
X315355032Y-146387000D01*
X62780000Y-154137000D02*
X62780000Y-153562000D01*
X62780000Y-154137000D02*
X62141404Y-153498404D01*
X62141404Y-153498404D02*
X62141404Y-152900597D01*
X61938334Y-147270334D02*
X63355001Y-147270334D01*
X60905000Y-146237000D02*
X61938334Y-147270334D01*
X60905000Y-143962001D02*
X60905000Y-146237000D01*
X62630001Y-142237000D02*
X60905000Y-143962001D01*
X331721693Y-146087001D02*
X332021692Y-146387000D01*
X323971659Y-146087001D02*
X331721693Y-146087001D01*
X323471660Y-146587000D02*
X323971659Y-146087001D01*
X341645575Y-149237000D02*
X342520575Y-149237000D01*
X344005006Y-153477569D02*
X344005006Y-153237000D01*
X343245575Y-154237000D02*
X344005006Y-153477569D01*
X343605000Y-147237000D02*
X342520575Y-147237000D01*
X341920575Y-146637000D02*
X342520575Y-147237000D01*
X337305000Y-146637000D02*
X341920575Y-146637000D01*
X343205000Y-142278623D02*
X343246623Y-142237000D01*
X344029979Y-143661979D02*
X343205000Y-142837000D01*
X349205000Y-147037000D02*
X348155000Y-145987000D01*
X344047970Y-143661979D02*
X344029979Y-143661979D01*
X343205000Y-142837000D02*
X343205000Y-142278623D01*
X345689851Y-150606544D02*
X348735456Y-150606544D01*
X344970596Y-144584605D02*
X344047970Y-143661979D01*
X344970596Y-145302596D02*
X344970596Y-144584605D01*
X349205000Y-150137000D02*
X349205000Y-147037000D01*
X345655000Y-145987000D02*
X344970596Y-145302596D01*
X348735456Y-150606544D02*
X349205000Y-150137000D01*
X348155000Y-145987000D02*
X345655000Y-145987000D01*
X64230000Y-154137000D02*
X65605000Y-154137000D01*
X335397894Y-152037000D02*
X336105000Y-152037000D01*
X73803064Y-152037000D02*
X335397894Y-152037000D01*
X72930247Y-152909817D02*
X73803064Y-152037000D01*
X345812225Y-147237000D02*
X344420585Y-145845360D01*
X339005000Y-145337000D02*
X315082833Y-145337000D01*
X64650711Y-142807710D02*
X64080001Y-142237000D01*
X343820148Y-144211990D02*
X340130010Y-144211990D01*
X346687225Y-147237000D02*
X345812225Y-147237000D01*
X67129999Y-145286998D02*
X64650711Y-142807710D01*
X307122998Y-145286998D02*
X67129999Y-145286998D01*
X344420585Y-144812427D02*
X343820148Y-144211990D01*
X315082833Y-145337000D02*
X314982831Y-145236998D01*
X307172998Y-145236998D02*
X307122998Y-145286998D01*
X340130010Y-144211990D02*
X339005000Y-145337000D01*
X314982831Y-145236998D02*
X307172998Y-145236998D01*
X344420585Y-145845360D02*
X344420585Y-144812427D01*
X341795575Y-154237000D02*
X75004998Y-154237000D01*
X75004998Y-154237000D02*
X74104998Y-153337000D01*
X59188335Y-144653665D02*
X59188335Y-147237000D01*
X61305000Y-140937000D02*
X61305000Y-142537000D01*
X67084914Y-140737000D02*
X61505000Y-140737000D01*
X69991404Y-143643490D02*
X67084914Y-140737000D01*
X61505000Y-140737000D02*
X61305000Y-140937000D01*
X69991404Y-144350596D02*
X69991404Y-143643490D01*
X61305000Y-142537000D02*
X59188335Y-144653665D01*
X340371644Y-143661979D02*
X339902188Y-143661979D01*
X339213572Y-144350596D02*
X70698510Y-144350596D01*
X339902188Y-143661979D02*
X339213572Y-144350596D01*
X70698510Y-144350596D02*
X69991404Y-144350596D01*
X341796623Y-142237000D02*
X340371644Y-143661979D01*
D15*
G36*
X60716641Y-138515470D02*
G01*
X61060496Y-138859325D01*
X61129297Y-138994375D01*
X61131272Y-139000885D01*
X61159894Y-139054434D01*
X61172108Y-139078408D01*
X61175750Y-139084098D01*
X61194879Y-139119886D01*
X61212043Y-139140801D01*
X61226623Y-139163579D01*
X61254738Y-139192823D01*
X61280480Y-139224190D01*
X61301394Y-139241354D01*
X61320138Y-139260851D01*
X61353414Y-139284046D01*
X61384784Y-139309791D01*
X61408645Y-139322545D01*
X61430833Y-139338011D01*
X61468000Y-139354271D01*
X61503785Y-139373398D01*
X61529674Y-139381251D01*
X61554454Y-139392092D01*
X61594080Y-139400789D01*
X61632908Y-139412567D01*
X61659828Y-139415218D01*
X61686249Y-139421017D01*
X61726811Y-139421816D01*
X61733544Y-139422479D01*
X61760481Y-139422479D01*
X61821157Y-139423674D01*
X61827851Y-139422479D01*
X344049871Y-139422479D01*
X344057095Y-139423757D01*
X344117229Y-139422479D01*
X344143639Y-139422479D01*
X344150906Y-139421763D01*
X344191997Y-139420890D01*
X344217883Y-139415166D01*
X344244275Y-139412567D01*
X344283623Y-139400631D01*
X344323748Y-139391759D01*
X344348015Y-139381098D01*
X344373398Y-139373398D01*
X344409660Y-139354015D01*
X344447285Y-139337486D01*
X344469008Y-139322294D01*
X344492399Y-139309791D01*
X344524186Y-139283704D01*
X344557859Y-139260154D01*
X344576200Y-139241016D01*
X344596703Y-139224190D01*
X344622788Y-139192406D01*
X344651223Y-139162736D01*
X344665478Y-139140388D01*
X344682304Y-139119886D01*
X344701685Y-139083626D01*
X344705605Y-139077481D01*
X344717538Y-139053967D01*
X344745911Y-139000885D01*
X344748042Y-138993861D01*
X344816408Y-138859147D01*
X345160550Y-138515468D01*
X345333990Y-138427000D01*
X353258012Y-138427000D01*
X353431150Y-138515314D01*
X353775142Y-138859514D01*
X353844232Y-138994750D01*
X353846093Y-139000885D01*
X353874912Y-139054801D01*
X353887318Y-139079085D01*
X353890753Y-139084438D01*
X353909700Y-139119886D01*
X353927112Y-139141103D01*
X353941929Y-139164194D01*
X353969808Y-139193128D01*
X353995301Y-139224190D01*
X354016515Y-139241600D01*
X354035555Y-139261360D01*
X354068538Y-139284295D01*
X354099605Y-139309791D01*
X354123814Y-139322731D01*
X354146338Y-139338393D01*
X354183159Y-139354451D01*
X354218606Y-139373398D01*
X354244874Y-139381366D01*
X354270020Y-139392333D01*
X354309271Y-139400901D01*
X354347729Y-139412567D01*
X354375038Y-139415257D01*
X354401848Y-139421109D01*
X354442019Y-139421854D01*
X354448365Y-139422479D01*
X354475720Y-139422479D01*
X354536759Y-139423611D01*
X354543059Y-139422479D01*
X354742090Y-139422479D01*
X355199554Y-139494951D01*
X355563486Y-139680569D01*
X355852999Y-139969687D01*
X356038428Y-140333781D01*
X356110997Y-140791461D01*
X356110996Y-155683506D01*
X356038429Y-156141174D01*
X355853002Y-156505251D01*
X355563480Y-156794378D01*
X355199542Y-156980012D01*
X354742090Y-157052482D01*
X354543059Y-157052482D01*
X354536759Y-157051350D01*
X354475720Y-157052482D01*
X354448365Y-157052482D01*
X354442019Y-157053107D01*
X354401848Y-157053852D01*
X354375038Y-157059704D01*
X354347729Y-157062394D01*
X354309271Y-157074060D01*
X354270020Y-157082628D01*
X354244874Y-157093595D01*
X354218606Y-157101563D01*
X354183159Y-157120510D01*
X354146338Y-157136568D01*
X354123814Y-157152230D01*
X354099605Y-157165170D01*
X354068538Y-157190666D01*
X354035555Y-157213601D01*
X354016515Y-157233361D01*
X353995301Y-157250771D01*
X353969808Y-157281833D01*
X353941929Y-157310767D01*
X353927112Y-157333858D01*
X353909700Y-157355075D01*
X353890753Y-157390523D01*
X353887318Y-157395876D01*
X353874912Y-157420160D01*
X353846093Y-157474076D01*
X353844232Y-157480211D01*
X353775142Y-157615447D01*
X353431157Y-157959640D01*
X353404963Y-157973000D01*
X345187040Y-157973000D01*
X345160542Y-157959485D01*
X344816408Y-157615814D01*
X344748042Y-157481100D01*
X344745911Y-157474076D01*
X344717538Y-157420994D01*
X344705605Y-157397480D01*
X344701685Y-157391335D01*
X344682304Y-157355075D01*
X344665478Y-157334573D01*
X344651223Y-157312225D01*
X344622788Y-157282555D01*
X344596703Y-157250771D01*
X344576200Y-157233945D01*
X344557859Y-157214807D01*
X344524186Y-157191257D01*
X344492399Y-157165170D01*
X344469008Y-157152667D01*
X344447285Y-157137475D01*
X344409660Y-157120946D01*
X344373398Y-157101563D01*
X344348015Y-157093863D01*
X344323748Y-157083202D01*
X344283623Y-157074330D01*
X344244275Y-157062394D01*
X344217883Y-157059795D01*
X344191997Y-157054071D01*
X344150906Y-157053198D01*
X344143639Y-157052482D01*
X344117229Y-157052482D01*
X344057095Y-157051204D01*
X344049871Y-157052482D01*
X61827851Y-157052482D01*
X61821157Y-157051287D01*
X61760481Y-157052482D01*
X61733544Y-157052482D01*
X61726811Y-157053145D01*
X61686249Y-157053944D01*
X61659828Y-157059743D01*
X61632908Y-157062394D01*
X61594080Y-157074172D01*
X61554454Y-157082869D01*
X61529674Y-157093710D01*
X61503785Y-157101563D01*
X61468000Y-157120690D01*
X61430833Y-157136950D01*
X61408647Y-157152415D01*
X61384784Y-157165170D01*
X61353414Y-157190915D01*
X61320138Y-157214110D01*
X61301394Y-157233607D01*
X61280480Y-157250771D01*
X61254738Y-157282138D01*
X61226623Y-157311382D01*
X61212043Y-157334160D01*
X61194879Y-157355075D01*
X61175750Y-157390863D01*
X61172108Y-157396553D01*
X61159894Y-157420527D01*
X61131272Y-157474076D01*
X61129297Y-157480586D01*
X61060496Y-157615636D01*
X60716648Y-157959485D01*
X60690122Y-157973000D01*
X52471858Y-157973000D01*
X52445365Y-157959500D01*
X52101503Y-157615638D01*
X52032699Y-157480585D01*
X52030725Y-157474076D01*
X52002104Y-157420529D01*
X51989889Y-157396553D01*
X51986247Y-157390863D01*
X51967118Y-157355075D01*
X51949954Y-157334160D01*
X51935374Y-157311382D01*
X51907259Y-157282138D01*
X51881517Y-157250771D01*
X51860603Y-157233607D01*
X51841859Y-157214110D01*
X51808583Y-157190915D01*
X51777213Y-157165170D01*
X51753350Y-157152415D01*
X51731164Y-157136950D01*
X51694000Y-157120692D01*
X51658212Y-157101563D01*
X51632317Y-157093708D01*
X51607543Y-157082870D01*
X51567926Y-157074175D01*
X51529089Y-157062394D01*
X51502165Y-157059742D01*
X51475747Y-157053944D01*
X51435190Y-157053146D01*
X51428453Y-157052482D01*
X51401487Y-157052482D01*
X51340840Y-157051288D01*
X51334152Y-157052482D01*
X51134921Y-157052482D01*
X50677322Y-156979989D01*
X50313059Y-156794383D01*
X50024093Y-156505418D01*
X49838487Y-156141152D01*
X49765993Y-155683556D01*
X49765993Y-154960442D01*
X52145319Y-154960442D01*
X52146913Y-154987477D01*
X52145319Y-155014512D01*
X52150874Y-155054665D01*
X52151270Y-155061389D01*
X52155490Y-155088039D01*
X52163809Y-155148172D01*
X52166026Y-155154564D01*
X52257043Y-155729294D01*
X52256910Y-155736069D01*
X52267580Y-155795827D01*
X52271797Y-155822457D01*
X52273499Y-155828981D01*
X52280627Y-155868901D01*
X52290494Y-155894113D01*
X52297328Y-155920304D01*
X52315021Y-155956784D01*
X52317481Y-155963069D01*
X52329729Y-155987108D01*
X52356212Y-156041711D01*
X52360302Y-156047114D01*
X52624512Y-156565683D01*
X52626481Y-156572175D01*
X52655095Y-156625709D01*
X52667330Y-156649723D01*
X52670969Y-156655408D01*
X52690087Y-156691176D01*
X52707255Y-156712096D01*
X52721847Y-156734892D01*
X52749955Y-156764127D01*
X52754238Y-156769346D01*
X52773303Y-156788411D01*
X52815366Y-156832161D01*
X52820930Y-156836039D01*
X53232433Y-157247549D01*
X53236316Y-157253120D01*
X53280059Y-157295176D01*
X53299120Y-157314237D01*
X53304347Y-157318527D01*
X53333585Y-157346637D01*
X53356370Y-157361222D01*
X53377288Y-157378389D01*
X53413066Y-157397513D01*
X53418754Y-157401154D01*
X53442747Y-157413378D01*
X53496288Y-157441997D01*
X53502789Y-157443969D01*
X54021372Y-157708183D01*
X54026771Y-157712269D01*
X54081348Y-157738739D01*
X54105416Y-157751002D01*
X54111706Y-157753464D01*
X54148178Y-157771153D01*
X54174369Y-157777987D01*
X54199584Y-157787855D01*
X54239506Y-157794983D01*
X54246025Y-157796684D01*
X54272636Y-157800898D01*
X54332417Y-157811572D01*
X54339194Y-157811439D01*
X54927283Y-157904572D01*
X54946718Y-157910467D01*
X54993780Y-157915102D01*
X55007089Y-157917210D01*
X55027241Y-157918398D01*
X55047354Y-157920379D01*
X55060845Y-157920379D01*
X55108036Y-157923161D01*
X55128147Y-157920379D01*
X58033855Y-157920379D01*
X58053966Y-157923161D01*
X58101157Y-157920379D01*
X58114648Y-157920379D01*
X58134762Y-157918398D01*
X58154912Y-157917210D01*
X58168220Y-157915103D01*
X58215284Y-157910467D01*
X58234720Y-157904571D01*
X58822808Y-157811439D01*
X58829585Y-157811572D01*
X58889362Y-157800899D01*
X58915977Y-157796684D01*
X58922498Y-157794982D01*
X58962417Y-157787855D01*
X58987628Y-157777988D01*
X59013824Y-157771153D01*
X59050310Y-157753457D01*
X59056585Y-157751001D01*
X59080595Y-157738768D01*
X59135231Y-157712269D01*
X59140635Y-157708178D01*
X59659213Y-157443969D01*
X59665713Y-157441997D01*
X59719236Y-157413388D01*
X59743248Y-157401154D01*
X59748941Y-157397510D01*
X59784713Y-157378389D01*
X59805628Y-157361224D01*
X59828417Y-157346637D01*
X59857656Y-157318526D01*
X59862882Y-157314237D01*
X59881944Y-157295175D01*
X59925686Y-157253120D01*
X59929569Y-157247549D01*
X60341072Y-156836040D01*
X60346636Y-156832162D01*
X60388688Y-156788423D01*
X60407765Y-156769346D01*
X60412052Y-156764122D01*
X60440154Y-156734893D01*
X60454741Y-156712105D01*
X60471916Y-156691177D01*
X60491039Y-156655399D01*
X60494672Y-156649724D01*
X60506887Y-156625749D01*
X60535522Y-156572176D01*
X60537493Y-156565679D01*
X60801701Y-156047115D01*
X60805792Y-156041710D01*
X60832276Y-155987105D01*
X60844521Y-155963071D01*
X60846982Y-155956784D01*
X60864675Y-155920303D01*
X60871507Y-155894119D01*
X60881376Y-155868903D01*
X60888506Y-155828971D01*
X60890206Y-155822456D01*
X60894415Y-155795876D01*
X60905094Y-155736070D01*
X60904961Y-155729287D01*
X60995976Y-155154565D01*
X60998193Y-155148173D01*
X61006513Y-155088033D01*
X61010732Y-155061389D01*
X61011128Y-155054667D01*
X61016683Y-155014513D01*
X61015089Y-154987477D01*
X61016683Y-154960441D01*
X61011128Y-154920287D01*
X61010732Y-154913565D01*
X61006513Y-154886921D01*
X60998193Y-154826781D01*
X60995976Y-154820389D01*
X60904961Y-154245667D01*
X60905094Y-154238884D01*
X60894415Y-154179078D01*
X60890206Y-154152498D01*
X60888506Y-154145983D01*
X60881376Y-154106051D01*
X60871507Y-154080835D01*
X60864675Y-154054651D01*
X60846982Y-154018170D01*
X60844521Y-154011883D01*
X60832276Y-153987849D01*
X60805792Y-153933244D01*
X60801701Y-153927839D01*
X60537490Y-153409270D01*
X60535521Y-153402778D01*
X60506907Y-153349245D01*
X60494672Y-153325230D01*
X60491033Y-153319545D01*
X60471915Y-153283777D01*
X60454744Y-153262853D01*
X60440154Y-153240061D01*
X60412051Y-153210830D01*
X60407764Y-153205607D01*
X60388690Y-153186533D01*
X60346636Y-153142792D01*
X60341071Y-153138913D01*
X59990972Y-152788809D01*
X61006404Y-152788809D01*
X61006404Y-153012385D01*
X61050021Y-153231664D01*
X61135580Y-153438221D01*
X61259792Y-153624117D01*
X61402510Y-153766835D01*
X61412650Y-153800263D01*
X61485542Y-153936636D01*
X61583640Y-154056168D01*
X61613593Y-154080750D01*
X61641928Y-154109085D01*
X61641928Y-154887000D01*
X61654188Y-155011482D01*
X61690498Y-155131180D01*
X61749463Y-155241494D01*
X61828815Y-155338185D01*
X61925506Y-155417537D01*
X62035820Y-155476502D01*
X62155518Y-155512812D01*
X62280000Y-155525072D01*
X63280000Y-155525072D01*
X63405136Y-155512681D01*
X63430064Y-155505091D01*
X63455518Y-155512812D01*
X63580000Y-155525072D01*
X64730000Y-155525072D01*
X64854482Y-155512812D01*
X64974180Y-155476502D01*
X65084494Y-155417537D01*
X65181185Y-155338185D01*
X65260537Y-155241494D01*
X65268703Y-155226217D01*
X65273933Y-155228383D01*
X65493212Y-155272000D01*
X65716788Y-155272000D01*
X65936067Y-155228383D01*
X66142624Y-155142824D01*
X66328520Y-155018612D01*
X66486612Y-154860520D01*
X66610824Y-154674624D01*
X66696383Y-154468067D01*
X66740000Y-154248788D01*
X66740000Y-154025212D01*
X66696383Y-153805933D01*
X66610824Y-153599376D01*
X66486612Y-153413480D01*
X66328520Y-153255388D01*
X66142624Y-153131176D01*
X65936067Y-153045617D01*
X65716788Y-153002000D01*
X65493212Y-153002000D01*
X65273933Y-153045617D01*
X65268703Y-153047783D01*
X65260537Y-153032506D01*
X65181185Y-152935815D01*
X65084494Y-152856463D01*
X64975174Y-152798029D01*
X71795247Y-152798029D01*
X71795247Y-153021605D01*
X71838864Y-153240884D01*
X71924423Y-153447441D01*
X72048635Y-153633337D01*
X72206727Y-153791429D01*
X72392623Y-153915641D01*
X72599180Y-154001200D01*
X72818459Y-154044817D01*
X73042035Y-154044817D01*
X73192849Y-154014818D01*
X73223386Y-154060520D01*
X73381478Y-154218612D01*
X73567374Y-154342824D01*
X73773931Y-154428383D01*
X73993210Y-154472000D01*
X74129840Y-154472000D01*
X74422655Y-154764815D01*
X74447234Y-154794764D01*
X74477182Y-154819342D01*
X74477185Y-154819345D01*
X74506557Y-154843450D01*
X74566765Y-154892862D01*
X74693170Y-154960426D01*
X74703138Y-154965754D01*
X74851110Y-155010641D01*
X74865488Y-155012057D01*
X74966437Y-155022000D01*
X74966444Y-155022000D01*
X75004997Y-155025797D01*
X75043550Y-155022000D01*
X340660950Y-155022000D01*
X340669763Y-155111482D01*
X340706073Y-155231180D01*
X340765038Y-155341494D01*
X340844390Y-155438185D01*
X340941081Y-155517537D01*
X341051395Y-155576502D01*
X341171093Y-155612812D01*
X341295575Y-155625072D01*
X342445575Y-155625072D01*
X342569402Y-155612941D01*
X342595510Y-155605051D01*
X342621093Y-155612812D01*
X342745575Y-155625072D01*
X343745575Y-155625072D01*
X343870057Y-155612812D01*
X343989755Y-155576502D01*
X344100069Y-155517537D01*
X344196760Y-155438185D01*
X344276112Y-155341494D01*
X344335077Y-155231180D01*
X344371387Y-155111482D01*
X344383647Y-154987000D01*
X344383647Y-154960426D01*
X344860239Y-154960426D01*
X344861833Y-154987477D01*
X344860239Y-155014528D01*
X344865791Y-155054658D01*
X344866187Y-155061373D01*
X344870414Y-155088068D01*
X344878732Y-155148187D01*
X344880943Y-155154562D01*
X344971925Y-155729153D01*
X344971792Y-155735809D01*
X344982462Y-155795697D01*
X344986697Y-155822442D01*
X344988369Y-155828850D01*
X344995460Y-155868650D01*
X345005361Y-155893976D01*
X345012226Y-155920290D01*
X345029867Y-155956664D01*
X345032278Y-155962832D01*
X345044565Y-155986971D01*
X345071107Y-156041698D01*
X345075123Y-156047004D01*
X345339190Y-156565778D01*
X345341275Y-156572634D01*
X345369754Y-156625823D01*
X345381805Y-156649498D01*
X345385645Y-156655501D01*
X345404967Y-156691589D01*
X345421912Y-156712207D01*
X345436290Y-156734687D01*
X345464646Y-156764203D01*
X345469174Y-156769712D01*
X345487987Y-156788498D01*
X345529771Y-156831991D01*
X345535645Y-156836089D01*
X345947783Y-157247640D01*
X345951428Y-157252874D01*
X345995420Y-157295208D01*
X346014808Y-157314569D01*
X346019729Y-157318601D01*
X346048654Y-157346437D01*
X346071773Y-157361251D01*
X346093023Y-157378665D01*
X346128457Y-157397572D01*
X346133797Y-157400994D01*
X346158141Y-157413411D01*
X346212069Y-157442187D01*
X346218179Y-157444036D01*
X346735866Y-157708098D01*
X346741420Y-157712302D01*
X346795837Y-157738689D01*
X346819718Y-157750870D01*
X346826184Y-157753404D01*
X346862833Y-157771175D01*
X346888841Y-157777959D01*
X346913869Y-157787767D01*
X346953969Y-157794946D01*
X346960682Y-157796697D01*
X346987136Y-157800884D01*
X347046691Y-157811546D01*
X347053657Y-157811412D01*
X347642320Y-157904581D01*
X347661723Y-157910467D01*
X347708811Y-157915105D01*
X347722156Y-157917217D01*
X347742285Y-157918402D01*
X347762359Y-157920379D01*
X347775875Y-157920379D01*
X347823104Y-157923159D01*
X347843186Y-157920379D01*
X350748826Y-157920379D01*
X350768908Y-157923159D01*
X350816137Y-157920379D01*
X350829653Y-157920379D01*
X350849728Y-157918402D01*
X350869855Y-157917217D01*
X350883198Y-157915105D01*
X350930289Y-157910467D01*
X350949693Y-157904581D01*
X351538342Y-157811414D01*
X351545306Y-157811548D01*
X351604890Y-157800882D01*
X351631329Y-157796697D01*
X351638032Y-157794949D01*
X351678127Y-157787771D01*
X351703159Y-157777962D01*
X351729178Y-157771175D01*
X351765833Y-157753401D01*
X351772279Y-157750875D01*
X351796115Y-157738717D01*
X351850591Y-157712302D01*
X351856145Y-157708099D01*
X352374179Y-157443873D01*
X352380636Y-157441912D01*
X352434184Y-157413267D01*
X352458233Y-157401001D01*
X352463889Y-157397377D01*
X352499615Y-157378266D01*
X352520556Y-157361069D01*
X352543378Y-157346446D01*
X352572576Y-157318349D01*
X352577763Y-157314089D01*
X352596844Y-157294995D01*
X352640605Y-157252884D01*
X352644460Y-157247348D01*
X353055341Y-156836196D01*
X353060565Y-156832562D01*
X353102943Y-156788563D01*
X353122310Y-156769183D01*
X353126332Y-156764279D01*
X353154170Y-156735376D01*
X353169003Y-156712249D01*
X353186436Y-156690993D01*
X353205348Y-156655583D01*
X353208764Y-156650257D01*
X353221204Y-156625895D01*
X353250004Y-156571971D01*
X353251850Y-156565879D01*
X353516616Y-156047368D01*
X353520889Y-156041724D01*
X353547240Y-155987396D01*
X353559375Y-155963631D01*
X353561951Y-155957065D01*
X353579775Y-155920318D01*
X353586533Y-155894420D01*
X353596313Y-155869496D01*
X353603531Y-155829283D01*
X353605308Y-155822471D01*
X353609475Y-155796164D01*
X353620150Y-155736685D01*
X353620017Y-155729603D01*
X353711095Y-155154571D01*
X353713318Y-155148159D01*
X353721640Y-155087990D01*
X353725851Y-155061404D01*
X353726248Y-155054677D01*
X353731805Y-155014498D01*
X353730211Y-154987477D01*
X353731805Y-154960456D01*
X353726248Y-154920277D01*
X353725851Y-154913550D01*
X353721640Y-154886964D01*
X353713318Y-154826795D01*
X353711095Y-154820383D01*
X353620017Y-154245351D01*
X353620150Y-154238269D01*
X353609475Y-154178790D01*
X353605308Y-154152483D01*
X353603531Y-154145671D01*
X353596313Y-154105458D01*
X353586533Y-154080534D01*
X353579775Y-154054636D01*
X353561951Y-154017889D01*
X353559375Y-154011323D01*
X353547240Y-153987558D01*
X353520889Y-153933230D01*
X353516616Y-153927586D01*
X353251851Y-153409076D01*
X353250004Y-153402982D01*
X353221198Y-153349047D01*
X353208764Y-153324697D01*
X353205349Y-153319373D01*
X353186436Y-153283961D01*
X353169003Y-153262705D01*
X353154170Y-153239578D01*
X353126332Y-153210675D01*
X353122310Y-153205771D01*
X353102944Y-153186392D01*
X353060565Y-153142392D01*
X353055341Y-153138758D01*
X352644459Y-152727606D01*
X352640605Y-152722071D01*
X352596845Y-152679961D01*
X352577763Y-152660866D01*
X352572576Y-152656606D01*
X352543378Y-152628509D01*
X352520556Y-152613886D01*
X352499615Y-152596689D01*
X352463887Y-152577577D01*
X352458233Y-152573954D01*
X352434195Y-152561693D01*
X352380635Y-152533042D01*
X352374176Y-152531080D01*
X351856145Y-152266856D01*
X351850591Y-152262653D01*
X351796124Y-152236242D01*
X351772279Y-152224080D01*
X351765829Y-152221552D01*
X351729179Y-152203781D01*
X351703163Y-152196995D01*
X351678127Y-152187184D01*
X351638035Y-152180007D01*
X351631330Y-152178258D01*
X351604880Y-152174072D01*
X351545306Y-152163407D01*
X351538344Y-152163541D01*
X350949693Y-152070373D01*
X350930289Y-152064487D01*
X350883201Y-152059849D01*
X350869856Y-152057737D01*
X350849727Y-152056552D01*
X350829653Y-152054575D01*
X350816138Y-152054575D01*
X350768909Y-152051795D01*
X350748826Y-152054575D01*
X347843186Y-152054575D01*
X347823103Y-152051795D01*
X347775874Y-152054575D01*
X347762359Y-152054575D01*
X347742286Y-152056552D01*
X347722155Y-152057737D01*
X347708809Y-152059849D01*
X347661723Y-152064487D01*
X347642321Y-152070373D01*
X347053655Y-152163543D01*
X347046691Y-152163409D01*
X346987145Y-152174069D01*
X346960681Y-152178258D01*
X346953967Y-152180009D01*
X346913869Y-152187188D01*
X346888837Y-152196998D01*
X346862832Y-152203781D01*
X346826188Y-152221549D01*
X346819718Y-152224085D01*
X346795828Y-152236271D01*
X346741420Y-152262653D01*
X346735865Y-152266857D01*
X346218179Y-152530919D01*
X346212069Y-152532768D01*
X346158151Y-152561539D01*
X346133797Y-152573961D01*
X346128454Y-152577385D01*
X346093024Y-152596290D01*
X346071776Y-152613702D01*
X346048654Y-152628518D01*
X346019729Y-152656353D01*
X346014809Y-152660385D01*
X345995418Y-152679749D01*
X345951428Y-152722081D01*
X345947784Y-152727314D01*
X345535643Y-153138867D01*
X345529771Y-153142963D01*
X345488009Y-153186433D01*
X345469174Y-153205241D01*
X345464641Y-153210757D01*
X345436290Y-153240267D01*
X345421913Y-153262746D01*
X345404967Y-153283365D01*
X345385645Y-153319453D01*
X345381805Y-153325456D01*
X345369754Y-153349131D01*
X345341275Y-153402320D01*
X345339190Y-153409176D01*
X345075123Y-153927950D01*
X345071107Y-153933256D01*
X345044565Y-153987983D01*
X345032278Y-154012122D01*
X345029867Y-154018290D01*
X345012226Y-154054664D01*
X345005361Y-154080978D01*
X344995460Y-154106304D01*
X344988369Y-154146104D01*
X344986697Y-154152512D01*
X344982462Y-154179257D01*
X344971792Y-154239145D01*
X344971925Y-154245801D01*
X344880943Y-154820392D01*
X344878732Y-154826767D01*
X344870414Y-154886886D01*
X344866187Y-154913581D01*
X344865791Y-154920296D01*
X344860239Y-154960426D01*
X344383647Y-154960426D01*
X344383647Y-154308677D01*
X344542630Y-154242824D01*
X344728526Y-154118612D01*
X344886618Y-153960520D01*
X345010830Y-153774624D01*
X345096389Y-153568067D01*
X345140006Y-153348788D01*
X345140006Y-153125212D01*
X345096389Y-152905933D01*
X345010830Y-152699376D01*
X344886618Y-152513480D01*
X344728526Y-152355388D01*
X344542630Y-152231176D01*
X344336073Y-152145617D01*
X344280383Y-152134540D01*
X344376332Y-152038152D01*
X344513784Y-151831422D01*
X344608264Y-151601849D01*
X344613857Y-151558540D01*
X344489477Y-151364000D01*
X342647575Y-151364000D01*
X342647575Y-152497000D01*
X343139874Y-152497000D01*
X343123394Y-152513480D01*
X342999182Y-152699376D01*
X342937235Y-152848928D01*
X342745575Y-152848928D01*
X342620439Y-152861319D01*
X342595511Y-152868909D01*
X342570057Y-152861188D01*
X342445575Y-152848928D01*
X341295575Y-152848928D01*
X341171093Y-152861188D01*
X341051395Y-152897498D01*
X340941081Y-152956463D01*
X340844390Y-153035815D01*
X340765038Y-153132506D01*
X340706073Y-153242820D01*
X340669763Y-153362518D01*
X340660950Y-153452000D01*
X75330156Y-153452000D01*
X75239998Y-153361842D01*
X75239998Y-153225212D01*
X75196381Y-153005933D01*
X75120193Y-152822000D01*
X335284868Y-152822000D01*
X335381480Y-152918612D01*
X335567376Y-153042824D01*
X335773933Y-153128383D01*
X335993212Y-153172000D01*
X336216788Y-153172000D01*
X336436067Y-153128383D01*
X336642624Y-153042824D01*
X336828520Y-152918612D01*
X336986612Y-152760520D01*
X337110824Y-152574624D01*
X337196383Y-152368067D01*
X337240000Y-152148788D01*
X337240000Y-151925212D01*
X337196383Y-151705933D01*
X337135331Y-151558540D01*
X340427293Y-151558540D01*
X340432886Y-151601849D01*
X340527366Y-151831422D01*
X340664818Y-152038152D01*
X340839960Y-152214094D01*
X341046061Y-152352487D01*
X341275201Y-152448013D01*
X341518575Y-152497000D01*
X342393575Y-152497000D01*
X342393575Y-151364000D01*
X340551673Y-151364000D01*
X340427293Y-151558540D01*
X337135331Y-151558540D01*
X337110824Y-151499376D01*
X336986612Y-151313480D01*
X336828520Y-151155388D01*
X336642624Y-151031176D01*
X336436067Y-150945617D01*
X336216788Y-150902000D01*
X335993212Y-150902000D01*
X335773933Y-150945617D01*
X335567376Y-151031176D01*
X335381480Y-151155388D01*
X335284868Y-151252000D01*
X73841620Y-151252000D01*
X73803064Y-151248203D01*
X73764508Y-151252000D01*
X73764503Y-151252000D01*
X73724090Y-151255980D01*
X73649177Y-151263358D01*
X73501204Y-151308246D01*
X73364831Y-151381138D01*
X73245300Y-151479236D01*
X73220717Y-151509190D01*
X72955090Y-151774817D01*
X72818459Y-151774817D01*
X72599180Y-151818434D01*
X72392623Y-151903993D01*
X72206727Y-152028205D01*
X72048635Y-152186297D01*
X71924423Y-152372193D01*
X71838864Y-152578750D01*
X71795247Y-152798029D01*
X64975174Y-152798029D01*
X64974180Y-152797498D01*
X64854482Y-152761188D01*
X64730000Y-152748928D01*
X63580000Y-152748928D01*
X63456173Y-152761059D01*
X63430065Y-152768949D01*
X63404482Y-152761188D01*
X63280000Y-152748928D01*
X63268471Y-152748928D01*
X63232787Y-152569530D01*
X63216551Y-152530334D01*
X63228001Y-152530334D01*
X63228001Y-151397334D01*
X63482001Y-151397334D01*
X63482001Y-152530334D01*
X64357001Y-152530334D01*
X64600375Y-152481347D01*
X64829515Y-152385821D01*
X65035616Y-152247428D01*
X65210758Y-152071486D01*
X65348210Y-151864756D01*
X65442690Y-151635183D01*
X65448283Y-151591874D01*
X65323903Y-151397334D01*
X63482001Y-151397334D01*
X63228001Y-151397334D01*
X61386099Y-151397334D01*
X61261719Y-151591874D01*
X61267312Y-151635183D01*
X61361792Y-151864756D01*
X61450048Y-151997494D01*
X61417884Y-152018985D01*
X61259792Y-152177077D01*
X61135580Y-152362973D01*
X61050021Y-152569530D01*
X61006404Y-152788809D01*
X59990972Y-152788809D01*
X59929571Y-152727408D01*
X59925686Y-152721835D01*
X59881920Y-152679757D01*
X59862881Y-152660718D01*
X59857661Y-152656434D01*
X59828417Y-152628318D01*
X59805628Y-152613731D01*
X59784712Y-152596565D01*
X59748939Y-152577444D01*
X59743248Y-152573801D01*
X59719232Y-152561565D01*
X59665712Y-152532958D01*
X59659215Y-152530987D01*
X59140635Y-152266776D01*
X59135231Y-152262686D01*
X59080586Y-152236182D01*
X59056585Y-152223954D01*
X59050314Y-152221500D01*
X59013825Y-152203802D01*
X58987626Y-152196966D01*
X58962417Y-152187100D01*
X58922501Y-152179973D01*
X58915978Y-152178271D01*
X58889353Y-152174054D01*
X58829585Y-152163383D01*
X58822809Y-152163516D01*
X58234719Y-152070383D01*
X58215284Y-152064487D01*
X58168222Y-152059852D01*
X58154913Y-152057744D01*
X58134761Y-152056556D01*
X58114648Y-152054575D01*
X58101158Y-152054575D01*
X58053967Y-152051793D01*
X58033856Y-152054575D01*
X55128146Y-152054575D01*
X55108035Y-152051793D01*
X55060843Y-152054575D01*
X55047354Y-152054575D01*
X55027244Y-152056556D01*
X55007087Y-152057744D01*
X54993775Y-152059852D01*
X54946718Y-152064487D01*
X54927285Y-152070382D01*
X54339192Y-152163516D01*
X54332417Y-152163383D01*
X54272646Y-152174055D01*
X54246024Y-152178271D01*
X54239502Y-152179973D01*
X54199584Y-152187100D01*
X54174371Y-152196967D01*
X54148177Y-152203802D01*
X54111701Y-152221493D01*
X54105416Y-152223953D01*
X54081367Y-152236205D01*
X54026770Y-152262686D01*
X54021369Y-152266774D01*
X53502788Y-152530986D01*
X53496289Y-152532958D01*
X53442751Y-152561575D01*
X53418754Y-152573801D01*
X53413068Y-152577441D01*
X53377289Y-152596565D01*
X53356369Y-152613734D01*
X53333585Y-152628318D01*
X53304347Y-152656428D01*
X53299120Y-152660718D01*
X53280058Y-152679780D01*
X53236316Y-152721835D01*
X53232433Y-152727406D01*
X52820930Y-153138915D01*
X52815366Y-153142793D01*
X52773302Y-153186544D01*
X52754238Y-153205608D01*
X52749955Y-153210827D01*
X52721847Y-153240062D01*
X52707255Y-153262858D01*
X52690087Y-153283778D01*
X52670969Y-153319546D01*
X52667330Y-153325231D01*
X52655095Y-153349245D01*
X52626481Y-153402779D01*
X52624512Y-153409271D01*
X52360302Y-153927840D01*
X52356212Y-153933243D01*
X52329729Y-153987846D01*
X52317481Y-154011885D01*
X52315021Y-154018170D01*
X52297328Y-154054650D01*
X52290494Y-154080841D01*
X52280627Y-154106053D01*
X52273499Y-154145973D01*
X52271797Y-154152497D01*
X52267580Y-154179127D01*
X52256910Y-154238885D01*
X52257043Y-154245660D01*
X52166026Y-154820390D01*
X52163809Y-154826782D01*
X52155490Y-154886915D01*
X52151270Y-154913565D01*
X52150874Y-154920289D01*
X52145319Y-154960442D01*
X49765993Y-154960442D01*
X49765993Y-141460442D01*
X52145319Y-141460442D01*
X52146913Y-141487477D01*
X52145319Y-141514512D01*
X52150874Y-141554665D01*
X52151270Y-141561389D01*
X52155490Y-141588039D01*
X52163809Y-141648172D01*
X52166026Y-141654564D01*
X52257043Y-142229294D01*
X52256910Y-142236069D01*
X52267580Y-142295827D01*
X52271797Y-142322457D01*
X52273499Y-142328981D01*
X52280627Y-142368901D01*
X52290494Y-142394113D01*
X52297328Y-142420304D01*
X52315021Y-142456784D01*
X52317481Y-142463069D01*
X52329729Y-142487108D01*
X52356212Y-142541711D01*
X52360302Y-142547114D01*
X52624512Y-143065683D01*
X52626481Y-143072175D01*
X52655095Y-143125709D01*
X52667330Y-143149723D01*
X52670969Y-143155408D01*
X52690087Y-143191176D01*
X52707255Y-143212096D01*
X52721847Y-143234892D01*
X52749955Y-143264127D01*
X52754238Y-143269346D01*
X52773302Y-143288410D01*
X52815366Y-143332161D01*
X52820930Y-143336039D01*
X53232433Y-143747548D01*
X53236316Y-143753119D01*
X53280058Y-143795174D01*
X53299120Y-143814236D01*
X53304347Y-143818526D01*
X53333585Y-143846636D01*
X53356369Y-143861220D01*
X53377289Y-143878389D01*
X53413068Y-143897513D01*
X53418754Y-143901153D01*
X53442751Y-143913379D01*
X53496289Y-143941996D01*
X53502788Y-143943968D01*
X54021369Y-144208180D01*
X54026770Y-144212268D01*
X54081367Y-144238749D01*
X54105416Y-144251001D01*
X54111701Y-144253461D01*
X54148177Y-144271152D01*
X54174371Y-144277987D01*
X54199584Y-144287854D01*
X54239502Y-144294981D01*
X54246024Y-144296683D01*
X54272646Y-144300899D01*
X54332417Y-144311571D01*
X54339192Y-144311438D01*
X54927285Y-144404572D01*
X54946718Y-144410467D01*
X54993775Y-144415102D01*
X55007087Y-144417210D01*
X55027244Y-144418398D01*
X55047354Y-144420379D01*
X55060843Y-144420379D01*
X55108035Y-144423161D01*
X55128146Y-144420379D01*
X58033856Y-144420379D01*
X58053967Y-144423161D01*
X58101158Y-144420379D01*
X58114648Y-144420379D01*
X58134761Y-144418398D01*
X58154913Y-144417210D01*
X58168222Y-144415102D01*
X58215284Y-144410467D01*
X58234719Y-144404571D01*
X58454115Y-144369827D01*
X58414694Y-144499779D01*
X58403335Y-144615105D01*
X58403335Y-144615112D01*
X58399538Y-144653665D01*
X58403335Y-144692218D01*
X58403336Y-145977000D01*
X58251442Y-145977000D01*
X58066332Y-145995232D01*
X57828821Y-146067280D01*
X57609930Y-146184280D01*
X57418070Y-146341735D01*
X57260615Y-146533595D01*
X57143615Y-146752486D01*
X57071567Y-146989997D01*
X57047239Y-147237000D01*
X57071567Y-147484003D01*
X57143615Y-147721514D01*
X57260615Y-147940405D01*
X57418070Y-148132265D01*
X57545690Y-148237000D01*
X57418070Y-148341735D01*
X57260615Y-148533595D01*
X57143615Y-148752486D01*
X57071567Y-148989997D01*
X57047239Y-149237000D01*
X57071567Y-149484003D01*
X57143615Y-149721514D01*
X57260615Y-149940405D01*
X57418070Y-150132265D01*
X57609930Y-150289720D01*
X57828821Y-150406720D01*
X58066332Y-150478768D01*
X58251442Y-150497000D01*
X60125228Y-150497000D01*
X60310338Y-150478768D01*
X60547849Y-150406720D01*
X60766740Y-150289720D01*
X60958600Y-150132265D01*
X61116055Y-149940405D01*
X61233055Y-149721514D01*
X61266612Y-149610891D01*
X61310281Y-149754848D01*
X61427281Y-149973739D01*
X61584736Y-150165599D01*
X61710620Y-150268909D01*
X61674386Y-150293240D01*
X61499244Y-150469182D01*
X61361792Y-150675912D01*
X61267312Y-150905485D01*
X61261719Y-150948794D01*
X61386099Y-151143334D01*
X63228001Y-151143334D01*
X63228001Y-151123334D01*
X63482001Y-151123334D01*
X63482001Y-151143334D01*
X65323903Y-151143334D01*
X65448283Y-150948794D01*
X65442690Y-150905485D01*
X65348210Y-150675912D01*
X65210758Y-150469182D01*
X65035616Y-150293240D01*
X64999382Y-150268909D01*
X65125266Y-150165599D01*
X65282721Y-149973739D01*
X65399721Y-149754848D01*
X65471769Y-149517337D01*
X65496097Y-149270334D01*
X65471769Y-149023331D01*
X65399721Y-148785820D01*
X65282721Y-148566929D01*
X65125266Y-148375069D01*
X64997646Y-148270334D01*
X65125266Y-148165599D01*
X65282721Y-147973739D01*
X65399721Y-147754848D01*
X65471769Y-147517337D01*
X65496097Y-147270334D01*
X65471769Y-147023331D01*
X65399721Y-146785820D01*
X65282721Y-146566929D01*
X65125266Y-146375069D01*
X64997646Y-146270334D01*
X65125266Y-146165599D01*
X65282721Y-145973739D01*
X65399721Y-145754848D01*
X65471769Y-145517337D01*
X65496097Y-145270334D01*
X65471769Y-145023331D01*
X65399721Y-144785820D01*
X65282721Y-144566929D01*
X65204682Y-144471838D01*
X66547652Y-145814808D01*
X66572235Y-145844762D01*
X66691766Y-145942860D01*
X66818003Y-146010334D01*
X66828139Y-146015752D01*
X66976112Y-146060640D01*
X67051025Y-146068018D01*
X67091438Y-146071998D01*
X67091443Y-146071998D01*
X67129999Y-146075795D01*
X67168555Y-146071998D01*
X72456566Y-146071998D01*
X72380377Y-146255933D01*
X72336760Y-146475212D01*
X72336760Y-146698788D01*
X72380377Y-146918067D01*
X72465936Y-147124624D01*
X72590148Y-147310520D01*
X72748240Y-147468612D01*
X72820919Y-147517175D01*
X72699176Y-147699376D01*
X72613617Y-147905933D01*
X72570000Y-148125212D01*
X72570000Y-148348788D01*
X72613617Y-148568067D01*
X72699176Y-148774624D01*
X72823388Y-148960520D01*
X72981480Y-149118612D01*
X73167376Y-149242824D01*
X73373933Y-149328383D01*
X73593212Y-149372000D01*
X73816788Y-149372000D01*
X74036067Y-149328383D01*
X74242624Y-149242824D01*
X74428520Y-149118612D01*
X74586612Y-148960520D01*
X74710824Y-148774624D01*
X74796383Y-148568067D01*
X74840000Y-148348788D01*
X74840000Y-148125212D01*
X74796383Y-147905933D01*
X74710824Y-147699376D01*
X74586612Y-147513480D01*
X74428520Y-147355388D01*
X74355841Y-147306825D01*
X74477584Y-147124624D01*
X74563143Y-146918067D01*
X74572306Y-146872001D01*
X76284254Y-146872001D01*
X76159778Y-147029051D01*
X75965461Y-147407151D01*
X75848285Y-147815793D01*
X75812712Y-148239412D01*
X75860099Y-148661873D01*
X75988639Y-149067084D01*
X76193438Y-149439611D01*
X76466693Y-149765264D01*
X76797998Y-150031640D01*
X77174732Y-150228592D01*
X77582546Y-150348618D01*
X78005907Y-150387147D01*
X78428688Y-150342711D01*
X78834786Y-150217002D01*
X79208734Y-150014810D01*
X79536287Y-149743834D01*
X79804969Y-149414397D01*
X80004546Y-149039047D01*
X80127417Y-148632081D01*
X80168900Y-148209000D01*
X80168051Y-148148181D01*
X80114770Y-147726423D01*
X79980585Y-147323046D01*
X79770605Y-146953415D01*
X79700330Y-146872001D01*
X80994171Y-146872001D01*
X81015968Y-146924624D01*
X81140180Y-147110520D01*
X81298272Y-147268612D01*
X81484168Y-147392824D01*
X81690725Y-147478383D01*
X81910004Y-147522000D01*
X82133580Y-147522000D01*
X82352859Y-147478383D01*
X82559416Y-147392824D01*
X82745312Y-147268612D01*
X82903404Y-147110520D01*
X83027616Y-146924624D01*
X83113175Y-146718067D01*
X83156792Y-146498788D01*
X83156792Y-146275212D01*
X83116371Y-146071998D01*
X89123226Y-146071998D01*
X89047037Y-146255933D01*
X89003420Y-146475212D01*
X89003420Y-146698788D01*
X89047037Y-146918067D01*
X89132596Y-147124624D01*
X89256808Y-147310520D01*
X89414900Y-147468612D01*
X89487538Y-147517147D01*
X89365776Y-147699376D01*
X89280217Y-147905933D01*
X89236600Y-148125212D01*
X89236600Y-148348788D01*
X89280217Y-148568067D01*
X89365776Y-148774624D01*
X89489988Y-148960520D01*
X89648080Y-149118612D01*
X89833976Y-149242824D01*
X90040533Y-149328383D01*
X90259812Y-149372000D01*
X90483388Y-149372000D01*
X90702667Y-149328383D01*
X90909224Y-149242824D01*
X91095120Y-149118612D01*
X91253212Y-148960520D01*
X91377424Y-148774624D01*
X91462983Y-148568067D01*
X91506600Y-148348788D01*
X91506600Y-148125212D01*
X91462983Y-147905933D01*
X91377424Y-147699376D01*
X91253212Y-147513480D01*
X91095120Y-147355388D01*
X91022482Y-147306853D01*
X91144244Y-147124624D01*
X91229803Y-146918067D01*
X91238966Y-146872001D01*
X92950914Y-146872001D01*
X92826438Y-147029051D01*
X92632121Y-147407151D01*
X92514945Y-147815793D01*
X92479372Y-148239412D01*
X92526759Y-148661873D01*
X92655299Y-149067084D01*
X92860098Y-149439611D01*
X93133353Y-149765264D01*
X93464658Y-150031640D01*
X93841392Y-150228592D01*
X94249206Y-150348618D01*
X94672567Y-150387147D01*
X95095348Y-150342711D01*
X95501446Y-150217002D01*
X95875394Y-150014810D01*
X96202947Y-149743834D01*
X96471629Y-149414397D01*
X96671206Y-149039047D01*
X96794077Y-148632081D01*
X96835560Y-148209000D01*
X96834711Y-148148181D01*
X96781430Y-147726423D01*
X96647245Y-147323046D01*
X96437265Y-146953415D01*
X96366990Y-146872001D01*
X97660831Y-146872001D01*
X97682628Y-146924624D01*
X97806840Y-147110520D01*
X97964932Y-147268612D01*
X98150828Y-147392824D01*
X98357385Y-147478383D01*
X98576664Y-147522000D01*
X98800240Y-147522000D01*
X99019519Y-147478383D01*
X99226076Y-147392824D01*
X99411972Y-147268612D01*
X99570064Y-147110520D01*
X99694276Y-146924624D01*
X99779835Y-146718067D01*
X99823452Y-146498788D01*
X99823452Y-146275212D01*
X99783031Y-146071998D01*
X105789886Y-146071998D01*
X105713697Y-146255933D01*
X105670080Y-146475212D01*
X105670080Y-146698788D01*
X105713697Y-146918067D01*
X105799256Y-147124624D01*
X105923468Y-147310520D01*
X106081560Y-147468612D01*
X106154156Y-147517119D01*
X106032376Y-147699376D01*
X105946817Y-147905933D01*
X105903200Y-148125212D01*
X105903200Y-148348788D01*
X105946817Y-148568067D01*
X106032376Y-148774624D01*
X106156588Y-148960520D01*
X106314680Y-149118612D01*
X106500576Y-149242824D01*
X106707133Y-149328383D01*
X106926412Y-149372000D01*
X107149988Y-149372000D01*
X107369267Y-149328383D01*
X107575824Y-149242824D01*
X107761720Y-149118612D01*
X107919812Y-148960520D01*
X108044024Y-148774624D01*
X108129583Y-148568067D01*
X108173200Y-148348788D01*
X108173200Y-148125212D01*
X108129583Y-147905933D01*
X108044024Y-147699376D01*
X107919812Y-147513480D01*
X107761720Y-147355388D01*
X107689124Y-147306881D01*
X107810904Y-147124624D01*
X107896463Y-146918067D01*
X107905626Y-146872001D01*
X109617574Y-146872001D01*
X109493098Y-147029051D01*
X109298781Y-147407151D01*
X109181605Y-147815793D01*
X109146032Y-148239412D01*
X109193419Y-148661873D01*
X109321959Y-149067084D01*
X109526758Y-149439611D01*
X109800013Y-149765264D01*
X110131318Y-150031640D01*
X110508052Y-150228592D01*
X110915866Y-150348618D01*
X111339227Y-150387147D01*
X111762008Y-150342711D01*
X112168106Y-150217002D01*
X112542054Y-150014810D01*
X112869607Y-149743834D01*
X113138289Y-149414397D01*
X113337866Y-149039047D01*
X113460737Y-148632081D01*
X113502220Y-148209000D01*
X113501371Y-148148181D01*
X113448090Y-147726423D01*
X113313905Y-147323046D01*
X113103925Y-146953415D01*
X113033650Y-146872001D01*
X114327491Y-146872001D01*
X114349288Y-146924624D01*
X114473500Y-147110520D01*
X114631592Y-147268612D01*
X114817488Y-147392824D01*
X115024045Y-147478383D01*
X115243324Y-147522000D01*
X115466900Y-147522000D01*
X115686179Y-147478383D01*
X115892736Y-147392824D01*
X116078632Y-147268612D01*
X116236724Y-147110520D01*
X116360936Y-146924624D01*
X116446495Y-146718067D01*
X116490112Y-146498788D01*
X116490112Y-146275212D01*
X116449691Y-146071998D01*
X122456546Y-146071998D01*
X122380357Y-146255933D01*
X122336740Y-146475212D01*
X122336740Y-146698788D01*
X122380357Y-146918067D01*
X122465916Y-147124624D01*
X122590128Y-147310520D01*
X122748220Y-147468612D01*
X122820775Y-147517092D01*
X122698976Y-147699376D01*
X122613417Y-147905933D01*
X122569800Y-148125212D01*
X122569800Y-148348788D01*
X122613417Y-148568067D01*
X122698976Y-148774624D01*
X122823188Y-148960520D01*
X122981280Y-149118612D01*
X123167176Y-149242824D01*
X123373733Y-149328383D01*
X123593012Y-149372000D01*
X123816588Y-149372000D01*
X124035867Y-149328383D01*
X124242424Y-149242824D01*
X124428320Y-149118612D01*
X124586412Y-148960520D01*
X124710624Y-148774624D01*
X124796183Y-148568067D01*
X124839800Y-148348788D01*
X124839800Y-148125212D01*
X124796183Y-147905933D01*
X124710624Y-147699376D01*
X124586412Y-147513480D01*
X124428320Y-147355388D01*
X124355765Y-147306908D01*
X124477564Y-147124624D01*
X124563123Y-146918067D01*
X124572286Y-146872001D01*
X126284234Y-146872001D01*
X126159758Y-147029051D01*
X125965441Y-147407151D01*
X125848265Y-147815793D01*
X125812692Y-148239412D01*
X125860079Y-148661873D01*
X125988619Y-149067084D01*
X126193418Y-149439611D01*
X126466673Y-149765264D01*
X126797978Y-150031640D01*
X127174712Y-150228592D01*
X127582526Y-150348618D01*
X128005887Y-150387147D01*
X128428668Y-150342711D01*
X128834766Y-150217002D01*
X129208714Y-150014810D01*
X129536267Y-149743834D01*
X129804949Y-149414397D01*
X130004526Y-149039047D01*
X130127397Y-148632081D01*
X130168880Y-148209000D01*
X130168031Y-148148181D01*
X130114750Y-147726423D01*
X129980565Y-147323046D01*
X129770585Y-146953415D01*
X129700310Y-146872001D01*
X130994151Y-146872001D01*
X131015948Y-146924624D01*
X131140160Y-147110520D01*
X131298252Y-147268612D01*
X131484148Y-147392824D01*
X131690705Y-147478383D01*
X131909984Y-147522000D01*
X132133560Y-147522000D01*
X132352839Y-147478383D01*
X132559396Y-147392824D01*
X132745292Y-147268612D01*
X132903384Y-147110520D01*
X133027596Y-146924624D01*
X133113155Y-146718067D01*
X133156772Y-146498788D01*
X133156772Y-146275212D01*
X133116351Y-146071998D01*
X139123206Y-146071998D01*
X139047017Y-146255933D01*
X139003400Y-146475212D01*
X139003400Y-146698788D01*
X139047017Y-146918067D01*
X139132576Y-147124624D01*
X139256788Y-147310520D01*
X139414880Y-147468612D01*
X139487393Y-147517064D01*
X139365576Y-147699376D01*
X139280017Y-147905933D01*
X139236400Y-148125212D01*
X139236400Y-148348788D01*
X139280017Y-148568067D01*
X139365576Y-148774624D01*
X139489788Y-148960520D01*
X139647880Y-149118612D01*
X139833776Y-149242824D01*
X140040333Y-149328383D01*
X140259612Y-149372000D01*
X140483188Y-149372000D01*
X140702467Y-149328383D01*
X140909024Y-149242824D01*
X141094920Y-149118612D01*
X141253012Y-148960520D01*
X141377224Y-148774624D01*
X141462783Y-148568067D01*
X141506400Y-148348788D01*
X141506400Y-148125212D01*
X141462783Y-147905933D01*
X141377224Y-147699376D01*
X141253012Y-147513480D01*
X141094920Y-147355388D01*
X141022407Y-147306936D01*
X141144224Y-147124624D01*
X141229783Y-146918067D01*
X141238946Y-146872001D01*
X142950894Y-146872001D01*
X142826418Y-147029051D01*
X142632101Y-147407151D01*
X142514925Y-147815793D01*
X142479352Y-148239412D01*
X142526739Y-148661873D01*
X142655279Y-149067084D01*
X142860078Y-149439611D01*
X143133333Y-149765264D01*
X143464638Y-150031640D01*
X143841372Y-150228592D01*
X144249186Y-150348618D01*
X144672547Y-150387147D01*
X145095328Y-150342711D01*
X145501426Y-150217002D01*
X145875374Y-150014810D01*
X146202927Y-149743834D01*
X146471609Y-149414397D01*
X146671186Y-149039047D01*
X146794057Y-148632081D01*
X146835540Y-148209000D01*
X146834691Y-148148181D01*
X146781410Y-147726423D01*
X146647225Y-147323046D01*
X146437245Y-146953415D01*
X146366970Y-146872001D01*
X147660811Y-146872001D01*
X147682608Y-146924624D01*
X147806820Y-147110520D01*
X147964912Y-147268612D01*
X148150808Y-147392824D01*
X148357365Y-147478383D01*
X148576644Y-147522000D01*
X148800220Y-147522000D01*
X149019499Y-147478383D01*
X149226056Y-147392824D01*
X149411952Y-147268612D01*
X149570044Y-147110520D01*
X149694256Y-146924624D01*
X149779815Y-146718067D01*
X149823432Y-146498788D01*
X149823432Y-146275212D01*
X149783011Y-146071998D01*
X155789866Y-146071998D01*
X155713677Y-146255933D01*
X155670060Y-146475212D01*
X155670060Y-146698788D01*
X155713677Y-146918067D01*
X155799236Y-147124624D01*
X155923448Y-147310520D01*
X156081540Y-147468612D01*
X156154012Y-147517036D01*
X156032176Y-147699376D01*
X155946617Y-147905933D01*
X155903000Y-148125212D01*
X155903000Y-148348788D01*
X155946617Y-148568067D01*
X156032176Y-148774624D01*
X156156388Y-148960520D01*
X156314480Y-149118612D01*
X156500376Y-149242824D01*
X156706933Y-149328383D01*
X156926212Y-149372000D01*
X157149788Y-149372000D01*
X157369067Y-149328383D01*
X157575624Y-149242824D01*
X157761520Y-149118612D01*
X157919612Y-148960520D01*
X158043824Y-148774624D01*
X158129383Y-148568067D01*
X158173000Y-148348788D01*
X158173000Y-148125212D01*
X158129383Y-147905933D01*
X158043824Y-147699376D01*
X157919612Y-147513480D01*
X157761520Y-147355388D01*
X157689048Y-147306964D01*
X157810884Y-147124624D01*
X157896443Y-146918067D01*
X157905606Y-146872001D01*
X159617554Y-146872001D01*
X159493078Y-147029051D01*
X159298761Y-147407151D01*
X159181585Y-147815793D01*
X159146012Y-148239412D01*
X159193399Y-148661873D01*
X159321939Y-149067084D01*
X159526738Y-149439611D01*
X159799993Y-149765264D01*
X160131298Y-150031640D01*
X160508032Y-150228592D01*
X160915846Y-150348618D01*
X161339207Y-150387147D01*
X161761988Y-150342711D01*
X162168086Y-150217002D01*
X162542034Y-150014810D01*
X162869587Y-149743834D01*
X163138269Y-149414397D01*
X163337846Y-149039047D01*
X163460717Y-148632081D01*
X163502200Y-148209000D01*
X163501351Y-148148181D01*
X163448070Y-147726423D01*
X163313885Y-147323046D01*
X163103905Y-146953415D01*
X163033630Y-146872001D01*
X164327471Y-146872001D01*
X164349268Y-146924624D01*
X164473480Y-147110520D01*
X164631572Y-147268612D01*
X164817468Y-147392824D01*
X165024025Y-147478383D01*
X165243304Y-147522000D01*
X165466880Y-147522000D01*
X165686159Y-147478383D01*
X165892716Y-147392824D01*
X166078612Y-147268612D01*
X166236704Y-147110520D01*
X166360916Y-146924624D01*
X166446475Y-146718067D01*
X166490092Y-146498788D01*
X166490092Y-146275212D01*
X166449671Y-146071998D01*
X172456526Y-146071998D01*
X172380337Y-146255933D01*
X172336720Y-146475212D01*
X172336720Y-146698788D01*
X172380337Y-146918067D01*
X172465896Y-147124624D01*
X172590108Y-147310520D01*
X172748200Y-147468612D01*
X172820630Y-147517008D01*
X172698776Y-147699376D01*
X172613217Y-147905933D01*
X172569600Y-148125212D01*
X172569600Y-148348788D01*
X172613217Y-148568067D01*
X172698776Y-148774624D01*
X172822988Y-148960520D01*
X172981080Y-149118612D01*
X173166976Y-149242824D01*
X173373533Y-149328383D01*
X173592812Y-149372000D01*
X173816388Y-149372000D01*
X174035667Y-149328383D01*
X174242224Y-149242824D01*
X174428120Y-149118612D01*
X174586212Y-148960520D01*
X174710424Y-148774624D01*
X174795983Y-148568067D01*
X174839600Y-148348788D01*
X174839600Y-148125212D01*
X174795983Y-147905933D01*
X174710424Y-147699376D01*
X174586212Y-147513480D01*
X174428120Y-147355388D01*
X174355690Y-147306992D01*
X174477544Y-147124624D01*
X174563103Y-146918067D01*
X174572266Y-146872001D01*
X176284214Y-146872001D01*
X176159738Y-147029051D01*
X175965421Y-147407151D01*
X175848245Y-147815793D01*
X175812672Y-148239412D01*
X175860059Y-148661873D01*
X175988599Y-149067084D01*
X176193398Y-149439611D01*
X176466653Y-149765264D01*
X176797958Y-150031640D01*
X177174692Y-150228592D01*
X177582506Y-150348618D01*
X178005867Y-150387147D01*
X178428648Y-150342711D01*
X178834746Y-150217002D01*
X179208694Y-150014810D01*
X179536247Y-149743834D01*
X179804929Y-149414397D01*
X180004506Y-149039047D01*
X180127377Y-148632081D01*
X180168860Y-148209000D01*
X180168011Y-148148181D01*
X180114730Y-147726423D01*
X179980545Y-147323046D01*
X179770565Y-146953415D01*
X179700290Y-146872001D01*
X180994131Y-146872001D01*
X181015928Y-146924624D01*
X181140140Y-147110520D01*
X181298232Y-147268612D01*
X181484128Y-147392824D01*
X181690685Y-147478383D01*
X181909964Y-147522000D01*
X182133540Y-147522000D01*
X182352819Y-147478383D01*
X182559376Y-147392824D01*
X182745272Y-147268612D01*
X182903364Y-147110520D01*
X183027576Y-146924624D01*
X183113135Y-146718067D01*
X183156752Y-146498788D01*
X183156752Y-146275212D01*
X183116331Y-146071998D01*
X189123186Y-146071998D01*
X189046997Y-146255933D01*
X189003380Y-146475212D01*
X189003380Y-146698788D01*
X189046997Y-146918067D01*
X189132556Y-147124624D01*
X189256768Y-147310520D01*
X189414860Y-147468612D01*
X189487249Y-147516981D01*
X189365376Y-147699376D01*
X189279817Y-147905933D01*
X189236200Y-148125212D01*
X189236200Y-148348788D01*
X189279817Y-148568067D01*
X189365376Y-148774624D01*
X189489588Y-148960520D01*
X189647680Y-149118612D01*
X189833576Y-149242824D01*
X190040133Y-149328383D01*
X190259412Y-149372000D01*
X190482988Y-149372000D01*
X190702267Y-149328383D01*
X190908824Y-149242824D01*
X191094720Y-149118612D01*
X191252812Y-148960520D01*
X191377024Y-148774624D01*
X191462583Y-148568067D01*
X191506200Y-148348788D01*
X191506200Y-148125212D01*
X191462583Y-147905933D01*
X191377024Y-147699376D01*
X191252812Y-147513480D01*
X191094720Y-147355388D01*
X191022331Y-147307019D01*
X191144204Y-147124624D01*
X191229763Y-146918067D01*
X191238926Y-146872001D01*
X192950874Y-146872001D01*
X192826398Y-147029051D01*
X192632081Y-147407151D01*
X192514905Y-147815793D01*
X192479332Y-148239412D01*
X192526719Y-148661873D01*
X192655259Y-149067084D01*
X192860058Y-149439611D01*
X193133313Y-149765264D01*
X193464618Y-150031640D01*
X193841352Y-150228592D01*
X194249166Y-150348618D01*
X194672527Y-150387147D01*
X195095308Y-150342711D01*
X195501406Y-150217002D01*
X195875354Y-150014810D01*
X196202907Y-149743834D01*
X196471589Y-149414397D01*
X196671166Y-149039047D01*
X196794037Y-148632081D01*
X196835520Y-148209000D01*
X196834671Y-148148181D01*
X196781390Y-147726423D01*
X196647205Y-147323046D01*
X196437225Y-146953415D01*
X196366950Y-146872001D01*
X197660791Y-146872001D01*
X197682588Y-146924624D01*
X197806800Y-147110520D01*
X197964892Y-147268612D01*
X198150788Y-147392824D01*
X198357345Y-147478383D01*
X198576624Y-147522000D01*
X198800200Y-147522000D01*
X199019479Y-147478383D01*
X199226036Y-147392824D01*
X199411932Y-147268612D01*
X199570024Y-147110520D01*
X199694236Y-146924624D01*
X199779795Y-146718067D01*
X199823412Y-146498788D01*
X199823412Y-146275212D01*
X199782991Y-146071998D01*
X205790158Y-146071998D01*
X205713969Y-146255933D01*
X205670352Y-146475212D01*
X205670352Y-146698788D01*
X205713969Y-146918067D01*
X205799528Y-147124624D01*
X205923740Y-147310520D01*
X206081832Y-147468612D01*
X206153964Y-147516809D01*
X206031976Y-147699376D01*
X205946417Y-147905933D01*
X205902800Y-148125212D01*
X205902800Y-148348788D01*
X205946417Y-148568067D01*
X206031976Y-148774624D01*
X206156188Y-148960520D01*
X206314280Y-149118612D01*
X206500176Y-149242824D01*
X206706733Y-149328383D01*
X206926012Y-149372000D01*
X207149588Y-149372000D01*
X207368867Y-149328383D01*
X207575424Y-149242824D01*
X207761320Y-149118612D01*
X207919412Y-148960520D01*
X208043624Y-148774624D01*
X208129183Y-148568067D01*
X208172800Y-148348788D01*
X208172800Y-148125212D01*
X208129183Y-147905933D01*
X208043624Y-147699376D01*
X207919412Y-147513480D01*
X207761320Y-147355388D01*
X207689188Y-147307191D01*
X207811176Y-147124624D01*
X207896735Y-146918067D01*
X207905898Y-146872001D01*
X209617534Y-146872001D01*
X209493058Y-147029051D01*
X209298741Y-147407151D01*
X209181565Y-147815793D01*
X209145992Y-148239412D01*
X209193379Y-148661873D01*
X209321919Y-149067084D01*
X209526718Y-149439611D01*
X209799973Y-149765264D01*
X210131278Y-150031640D01*
X210508012Y-150228592D01*
X210915826Y-150348618D01*
X211339187Y-150387147D01*
X211761968Y-150342711D01*
X212168066Y-150217002D01*
X212542014Y-150014810D01*
X212869567Y-149743834D01*
X213138249Y-149414397D01*
X213337826Y-149039047D01*
X213460697Y-148632081D01*
X213502180Y-148209000D01*
X213501331Y-148148181D01*
X213448050Y-147726423D01*
X213313865Y-147323046D01*
X213103885Y-146953415D01*
X213033610Y-146872001D01*
X214327763Y-146872001D01*
X214349560Y-146924624D01*
X214473772Y-147110520D01*
X214631864Y-147268612D01*
X214817760Y-147392824D01*
X215024317Y-147478383D01*
X215243596Y-147522000D01*
X215467172Y-147522000D01*
X215686451Y-147478383D01*
X215893008Y-147392824D01*
X216078904Y-147268612D01*
X216236996Y-147110520D01*
X216361208Y-146924624D01*
X216446767Y-146718067D01*
X216490384Y-146498788D01*
X216490384Y-146275212D01*
X216449963Y-146071998D01*
X222456857Y-146071998D01*
X222380668Y-146255933D01*
X222337051Y-146475212D01*
X222337051Y-146698788D01*
X222380668Y-146918067D01*
X222466227Y-147124624D01*
X222590439Y-147310520D01*
X222748531Y-147468612D01*
X222820594Y-147516763D01*
X222698576Y-147699376D01*
X222613017Y-147905933D01*
X222569400Y-148125212D01*
X222569400Y-148348788D01*
X222613017Y-148568067D01*
X222698576Y-148774624D01*
X222822788Y-148960520D01*
X222980880Y-149118612D01*
X223166776Y-149242824D01*
X223373333Y-149328383D01*
X223592612Y-149372000D01*
X223816188Y-149372000D01*
X224035467Y-149328383D01*
X224242024Y-149242824D01*
X224427920Y-149118612D01*
X224586012Y-148960520D01*
X224710224Y-148774624D01*
X224795783Y-148568067D01*
X224839400Y-148348788D01*
X224839400Y-148125212D01*
X224795783Y-147905933D01*
X224710224Y-147699376D01*
X224586012Y-147513480D01*
X224427920Y-147355388D01*
X224355857Y-147307237D01*
X224477875Y-147124624D01*
X224563434Y-146918067D01*
X224572597Y-146872001D01*
X226284194Y-146872001D01*
X226159718Y-147029051D01*
X225965401Y-147407151D01*
X225848225Y-147815793D01*
X225812652Y-148239412D01*
X225860039Y-148661873D01*
X225988579Y-149067084D01*
X226193378Y-149439611D01*
X226466633Y-149765264D01*
X226797938Y-150031640D01*
X227174672Y-150228592D01*
X227582486Y-150348618D01*
X228005847Y-150387147D01*
X228428628Y-150342711D01*
X228834726Y-150217002D01*
X229208674Y-150014810D01*
X229536227Y-149743834D01*
X229804909Y-149414397D01*
X230004486Y-149039047D01*
X230127357Y-148632081D01*
X230168840Y-148209000D01*
X230167991Y-148148181D01*
X230114710Y-147726423D01*
X229980525Y-147323046D01*
X229770545Y-146953415D01*
X229700270Y-146872001D01*
X230994462Y-146872001D01*
X231016259Y-146924624D01*
X231140471Y-147110520D01*
X231298563Y-147268612D01*
X231484459Y-147392824D01*
X231691016Y-147478383D01*
X231910295Y-147522000D01*
X232133871Y-147522000D01*
X232353150Y-147478383D01*
X232559707Y-147392824D01*
X232745603Y-147268612D01*
X232903695Y-147110520D01*
X233027907Y-146924624D01*
X233113466Y-146718067D01*
X233157083Y-146498788D01*
X233157083Y-146275212D01*
X233116662Y-146071998D01*
X239123166Y-146071998D01*
X239046977Y-146255933D01*
X239003360Y-146475212D01*
X239003360Y-146698788D01*
X239046977Y-146918067D01*
X239132536Y-147124624D01*
X239256748Y-147310520D01*
X239414840Y-147468612D01*
X239487104Y-147516898D01*
X239365176Y-147699376D01*
X239279617Y-147905933D01*
X239236000Y-148125212D01*
X239236000Y-148348788D01*
X239279617Y-148568067D01*
X239365176Y-148774624D01*
X239489388Y-148960520D01*
X239647480Y-149118612D01*
X239833376Y-149242824D01*
X240039933Y-149328383D01*
X240259212Y-149372000D01*
X240482788Y-149372000D01*
X240702067Y-149328383D01*
X240908624Y-149242824D01*
X241094520Y-149118612D01*
X241252612Y-148960520D01*
X241376824Y-148774624D01*
X241462383Y-148568067D01*
X241506000Y-148348788D01*
X241506000Y-148125212D01*
X241462383Y-147905933D01*
X241376824Y-147699376D01*
X241252612Y-147513480D01*
X241094520Y-147355388D01*
X241022256Y-147307102D01*
X241144184Y-147124624D01*
X241229743Y-146918067D01*
X241238906Y-146872001D01*
X242950854Y-146872001D01*
X242826378Y-147029051D01*
X242632061Y-147407151D01*
X242514885Y-147815793D01*
X242479312Y-148239412D01*
X242526699Y-148661873D01*
X242655239Y-149067084D01*
X242860038Y-149439611D01*
X243133293Y-149765264D01*
X243464598Y-150031640D01*
X243841332Y-150228592D01*
X244249146Y-150348618D01*
X244672507Y-150387147D01*
X245095288Y-150342711D01*
X245501386Y-150217002D01*
X245875334Y-150014810D01*
X246202887Y-149743834D01*
X246471569Y-149414397D01*
X246671146Y-149039047D01*
X246794017Y-148632081D01*
X246835500Y-148209000D01*
X246834651Y-148148181D01*
X246781370Y-147726423D01*
X246647185Y-147323046D01*
X246437205Y-146953415D01*
X246366930Y-146872001D01*
X247660771Y-146872001D01*
X247682568Y-146924624D01*
X247806780Y-147110520D01*
X247964872Y-147268612D01*
X248150768Y-147392824D01*
X248357325Y-147478383D01*
X248576604Y-147522000D01*
X248800180Y-147522000D01*
X249019459Y-147478383D01*
X249226016Y-147392824D01*
X249411912Y-147268612D01*
X249570004Y-147110520D01*
X249694216Y-146924624D01*
X249779775Y-146718067D01*
X249823392Y-146498788D01*
X249823392Y-146275212D01*
X249782971Y-146071998D01*
X255769089Y-146071998D01*
X255713611Y-146205933D01*
X255669994Y-146425212D01*
X255669994Y-146648788D01*
X255713611Y-146868067D01*
X255799170Y-147074624D01*
X255923382Y-147260520D01*
X256081474Y-147418612D01*
X256183011Y-147486457D01*
X256155988Y-147513480D01*
X256031776Y-147699376D01*
X255946217Y-147905933D01*
X255902600Y-148125212D01*
X255902600Y-148348788D01*
X255946217Y-148568067D01*
X256031776Y-148774624D01*
X256155988Y-148960520D01*
X256314080Y-149118612D01*
X256499976Y-149242824D01*
X256706533Y-149328383D01*
X256925812Y-149372000D01*
X257149388Y-149372000D01*
X257368667Y-149328383D01*
X257575224Y-149242824D01*
X257761120Y-149118612D01*
X257919212Y-148960520D01*
X258043424Y-148774624D01*
X258128983Y-148568067D01*
X258172600Y-148348788D01*
X258172600Y-148125212D01*
X258128983Y-147905933D01*
X258043424Y-147699376D01*
X257919212Y-147513480D01*
X257761120Y-147355388D01*
X257659583Y-147287543D01*
X257686606Y-147260520D01*
X257810818Y-147074624D01*
X257896377Y-146868067D01*
X257935377Y-146672001D01*
X259785169Y-146672001D01*
X259757094Y-146695895D01*
X259493038Y-147029051D01*
X259298721Y-147407151D01*
X259181545Y-147815793D01*
X259145972Y-148239412D01*
X259193359Y-148661873D01*
X259321899Y-149067084D01*
X259526698Y-149439611D01*
X259799953Y-149765264D01*
X260131258Y-150031640D01*
X260507992Y-150228592D01*
X260915806Y-150348618D01*
X261339167Y-150387147D01*
X261761948Y-150342711D01*
X262168046Y-150217002D01*
X262541994Y-150014810D01*
X262869547Y-149743834D01*
X263138229Y-149414397D01*
X263337806Y-149039047D01*
X263460677Y-148632081D01*
X263502160Y-148209000D01*
X263501311Y-148148181D01*
X263448030Y-147726423D01*
X263313845Y-147323046D01*
X263103865Y-146953415D01*
X262860955Y-146672001D01*
X264254038Y-146672001D01*
X264263201Y-146718067D01*
X264348760Y-146924624D01*
X264472972Y-147110520D01*
X264631064Y-147268612D01*
X264816960Y-147392824D01*
X265023517Y-147478383D01*
X265242796Y-147522000D01*
X265466372Y-147522000D01*
X265685651Y-147478383D01*
X265892208Y-147392824D01*
X266078104Y-147268612D01*
X266236196Y-147110520D01*
X266360408Y-146924624D01*
X266445967Y-146718067D01*
X266489584Y-146498788D01*
X266489584Y-146275212D01*
X266449163Y-146071998D01*
X272456486Y-146071998D01*
X272380297Y-146255933D01*
X272336680Y-146475212D01*
X272336680Y-146698788D01*
X272380297Y-146918067D01*
X272465856Y-147124624D01*
X272590068Y-147310520D01*
X272748160Y-147468612D01*
X272820341Y-147516842D01*
X272698376Y-147699376D01*
X272612817Y-147905933D01*
X272569200Y-148125212D01*
X272569200Y-148348788D01*
X272612817Y-148568067D01*
X272698376Y-148774624D01*
X272822588Y-148960520D01*
X272980680Y-149118612D01*
X273166576Y-149242824D01*
X273373133Y-149328383D01*
X273592412Y-149372000D01*
X273815988Y-149372000D01*
X274035267Y-149328383D01*
X274241824Y-149242824D01*
X274427720Y-149118612D01*
X274585812Y-148960520D01*
X274710024Y-148774624D01*
X274795583Y-148568067D01*
X274839200Y-148348788D01*
X274839200Y-148125212D01*
X274795583Y-147905933D01*
X274710024Y-147699376D01*
X274585812Y-147513480D01*
X274427720Y-147355388D01*
X274355539Y-147307158D01*
X274477504Y-147124624D01*
X274563063Y-146918067D01*
X274572226Y-146872001D01*
X276284174Y-146872001D01*
X276159698Y-147029051D01*
X275965381Y-147407151D01*
X275848205Y-147815793D01*
X275812632Y-148239412D01*
X275860019Y-148661873D01*
X275988559Y-149067084D01*
X276193358Y-149439611D01*
X276466613Y-149765264D01*
X276797918Y-150031640D01*
X277174652Y-150228592D01*
X277582466Y-150348618D01*
X278005827Y-150387147D01*
X278428608Y-150342711D01*
X278834706Y-150217002D01*
X279208654Y-150014810D01*
X279536207Y-149743834D01*
X279804889Y-149414397D01*
X280004466Y-149039047D01*
X280127337Y-148632081D01*
X280168820Y-148209000D01*
X280167971Y-148148181D01*
X280114690Y-147726423D01*
X279980505Y-147323046D01*
X279770525Y-146953415D01*
X279700250Y-146872001D01*
X280994091Y-146872001D01*
X281015888Y-146924624D01*
X281140100Y-147110520D01*
X281298192Y-147268612D01*
X281484088Y-147392824D01*
X281690645Y-147478383D01*
X281909924Y-147522000D01*
X282133500Y-147522000D01*
X282352779Y-147478383D01*
X282559336Y-147392824D01*
X282745232Y-147268612D01*
X282903324Y-147110520D01*
X283027536Y-146924624D01*
X283113095Y-146718067D01*
X283156712Y-146498788D01*
X283156712Y-146275212D01*
X283116291Y-146071998D01*
X289123653Y-146071998D01*
X289047464Y-146255933D01*
X289003847Y-146475212D01*
X289003847Y-146698788D01*
X289047464Y-146918067D01*
X289133023Y-147124624D01*
X289257235Y-147310520D01*
X289415327Y-147468612D01*
X289487116Y-147516580D01*
X289364976Y-147699376D01*
X289279417Y-147905933D01*
X289235800Y-148125212D01*
X289235800Y-148348788D01*
X289279417Y-148568067D01*
X289364976Y-148774624D01*
X289489188Y-148960520D01*
X289647280Y-149118612D01*
X289833176Y-149242824D01*
X290039733Y-149328383D01*
X290259012Y-149372000D01*
X290482588Y-149372000D01*
X290701867Y-149328383D01*
X290908424Y-149242824D01*
X291094320Y-149118612D01*
X291252412Y-148960520D01*
X291376624Y-148774624D01*
X291462183Y-148568067D01*
X291505800Y-148348788D01*
X291505800Y-148125212D01*
X291462183Y-147905933D01*
X291376624Y-147699376D01*
X291252412Y-147513480D01*
X291094320Y-147355388D01*
X291022531Y-147307420D01*
X291144671Y-147124624D01*
X291230230Y-146918067D01*
X291239393Y-146872001D01*
X292950834Y-146872001D01*
X292826358Y-147029051D01*
X292632041Y-147407151D01*
X292514865Y-147815793D01*
X292479292Y-148239412D01*
X292526679Y-148661873D01*
X292655219Y-149067084D01*
X292860018Y-149439611D01*
X293133273Y-149765264D01*
X293464578Y-150031640D01*
X293841312Y-150228592D01*
X294249126Y-150348618D01*
X294672487Y-150387147D01*
X295095268Y-150342711D01*
X295501366Y-150217002D01*
X295875314Y-150014810D01*
X296202867Y-149743834D01*
X296471549Y-149414397D01*
X296671126Y-149039047D01*
X296793997Y-148632081D01*
X296835480Y-148209000D01*
X296834631Y-148148181D01*
X296781350Y-147726423D01*
X296647165Y-147323046D01*
X296437185Y-146953415D01*
X296366910Y-146872001D01*
X297661258Y-146872001D01*
X297683055Y-146924624D01*
X297807267Y-147110520D01*
X297965359Y-147268612D01*
X298151255Y-147392824D01*
X298357812Y-147478383D01*
X298577091Y-147522000D01*
X298800667Y-147522000D01*
X299019946Y-147478383D01*
X299226503Y-147392824D01*
X299412399Y-147268612D01*
X299570491Y-147110520D01*
X299694703Y-146924624D01*
X299780262Y-146718067D01*
X299823879Y-146498788D01*
X299823879Y-146275212D01*
X299783458Y-146071998D01*
X305789806Y-146071998D01*
X305713617Y-146255933D01*
X305670000Y-146475212D01*
X305670000Y-146698788D01*
X305713617Y-146918067D01*
X305799176Y-147124624D01*
X305923388Y-147310520D01*
X306081480Y-147468612D01*
X306153578Y-147516787D01*
X306031576Y-147699376D01*
X305946017Y-147905933D01*
X305902400Y-148125212D01*
X305902400Y-148348788D01*
X305946017Y-148568067D01*
X306031576Y-148774624D01*
X306155788Y-148960520D01*
X306313880Y-149118612D01*
X306499776Y-149242824D01*
X306706333Y-149328383D01*
X306925612Y-149372000D01*
X307149188Y-149372000D01*
X307368467Y-149328383D01*
X307575024Y-149242824D01*
X307760920Y-149118612D01*
X307919012Y-148960520D01*
X308043224Y-148774624D01*
X308128783Y-148568067D01*
X308172400Y-148348788D01*
X308172400Y-148125212D01*
X308128783Y-147905933D01*
X308043224Y-147699376D01*
X307919012Y-147513480D01*
X307760920Y-147355388D01*
X307688822Y-147307213D01*
X307810824Y-147124624D01*
X307896383Y-146918067D01*
X307905546Y-146872001D01*
X309617494Y-146872001D01*
X309493018Y-147029051D01*
X309298701Y-147407151D01*
X309181525Y-147815793D01*
X309145952Y-148239412D01*
X309193339Y-148661873D01*
X309321879Y-149067084D01*
X309526678Y-149439611D01*
X309799933Y-149765264D01*
X310131238Y-150031640D01*
X310507972Y-150228592D01*
X310915786Y-150348618D01*
X311339147Y-150387147D01*
X311761928Y-150342711D01*
X312168026Y-150217002D01*
X312541974Y-150014810D01*
X312869527Y-149743834D01*
X313138209Y-149414397D01*
X313337786Y-149039047D01*
X313460657Y-148632081D01*
X313502140Y-148209000D01*
X313501291Y-148148181D01*
X313448010Y-147726423D01*
X313313825Y-147323046D01*
X313103845Y-146953415D01*
X313033570Y-146872001D01*
X314327411Y-146872001D01*
X314349208Y-146924624D01*
X314473420Y-147110520D01*
X314631512Y-147268612D01*
X314817408Y-147392824D01*
X315023965Y-147478383D01*
X315243244Y-147522000D01*
X315466820Y-147522000D01*
X315686099Y-147478383D01*
X315892656Y-147392824D01*
X316078552Y-147268612D01*
X316236644Y-147110520D01*
X316360856Y-146924624D01*
X316446415Y-146718067D01*
X316490032Y-146498788D01*
X316490032Y-146275212D01*
X316459556Y-146122000D01*
X322435754Y-146122000D01*
X322380277Y-146255933D01*
X322336660Y-146475212D01*
X322336660Y-146698788D01*
X322380277Y-146918067D01*
X322465836Y-147124624D01*
X322590048Y-147310520D01*
X322748140Y-147468612D01*
X322820197Y-147516759D01*
X322698176Y-147699376D01*
X322612617Y-147905933D01*
X322569000Y-148125212D01*
X322569000Y-148348788D01*
X322612617Y-148568067D01*
X322698176Y-148774624D01*
X322822388Y-148960520D01*
X322980480Y-149118612D01*
X323166376Y-149242824D01*
X323372933Y-149328383D01*
X323592212Y-149372000D01*
X323815788Y-149372000D01*
X324035067Y-149328383D01*
X324241624Y-149242824D01*
X324427520Y-149118612D01*
X324585612Y-148960520D01*
X324709824Y-148774624D01*
X324795383Y-148568067D01*
X324839000Y-148348788D01*
X324839000Y-148125212D01*
X324795383Y-147905933D01*
X324709824Y-147699376D01*
X324585612Y-147513480D01*
X324427520Y-147355388D01*
X324355463Y-147307241D01*
X324477484Y-147124624D01*
X324563043Y-146918067D01*
X324572206Y-146872001D01*
X326284154Y-146872001D01*
X326159678Y-147029051D01*
X325965361Y-147407151D01*
X325848185Y-147815793D01*
X325812612Y-148239412D01*
X325859999Y-148661873D01*
X325988539Y-149067084D01*
X326193338Y-149439611D01*
X326466593Y-149765264D01*
X326797898Y-150031640D01*
X327174632Y-150228592D01*
X327582446Y-150348618D01*
X328005807Y-150387147D01*
X328428588Y-150342711D01*
X328834686Y-150217002D01*
X329208634Y-150014810D01*
X329536187Y-149743834D01*
X329804869Y-149414397D01*
X330004446Y-149039047D01*
X330127317Y-148632081D01*
X330168800Y-148209000D01*
X330167951Y-148148181D01*
X330114670Y-147726423D01*
X329980485Y-147323046D01*
X329770505Y-146953415D01*
X329700230Y-146872001D01*
X330994071Y-146872001D01*
X331015868Y-146924624D01*
X331140080Y-147110520D01*
X331298172Y-147268612D01*
X331484068Y-147392824D01*
X331690625Y-147478383D01*
X331909904Y-147522000D01*
X332133480Y-147522000D01*
X332352759Y-147478383D01*
X332559316Y-147392824D01*
X332745212Y-147268612D01*
X332903304Y-147110520D01*
X333027516Y-146924624D01*
X333113075Y-146718067D01*
X333156692Y-146498788D01*
X333156692Y-146275212D01*
X333126216Y-146122000D01*
X336289805Y-146122000D01*
X336213617Y-146305933D01*
X336170000Y-146525212D01*
X336170000Y-146748788D01*
X336213617Y-146968067D01*
X336299176Y-147174624D01*
X336423388Y-147360520D01*
X336581480Y-147518612D01*
X336767376Y-147642824D01*
X336973933Y-147728383D01*
X337193212Y-147772000D01*
X337416788Y-147772000D01*
X337636067Y-147728383D01*
X337842624Y-147642824D01*
X338028520Y-147518612D01*
X338125132Y-147422000D01*
X340397700Y-147422000D01*
X340403807Y-147484003D01*
X340475855Y-147721514D01*
X340592855Y-147940405D01*
X340750310Y-148132265D01*
X340877930Y-148237000D01*
X340750310Y-148341735D01*
X340592855Y-148533595D01*
X340475855Y-148752486D01*
X340403807Y-148989997D01*
X340379479Y-149237000D01*
X340403807Y-149484003D01*
X340475855Y-149721514D01*
X340592855Y-149940405D01*
X340750310Y-150132265D01*
X340876194Y-150235575D01*
X340839960Y-150259906D01*
X340664818Y-150435848D01*
X340527366Y-150642578D01*
X340432886Y-150872151D01*
X340427293Y-150915460D01*
X340551673Y-151110000D01*
X342393575Y-151110000D01*
X342393575Y-151090000D01*
X342647575Y-151090000D01*
X342647575Y-151110000D01*
X344489477Y-151110000D01*
X344598950Y-150938775D01*
X344684027Y-151144168D01*
X344808239Y-151330064D01*
X344966331Y-151488156D01*
X345152227Y-151612368D01*
X345358784Y-151697927D01*
X345578063Y-151741544D01*
X345801639Y-151741544D01*
X346020918Y-151697927D01*
X346227475Y-151612368D01*
X346413371Y-151488156D01*
X346509983Y-151391544D01*
X348696903Y-151391544D01*
X348735456Y-151395341D01*
X348774009Y-151391544D01*
X348774017Y-151391544D01*
X348889343Y-151380185D01*
X349037316Y-151335298D01*
X349173689Y-151262406D01*
X349293220Y-151164308D01*
X349317803Y-151134354D01*
X349732811Y-150719346D01*
X349762764Y-150694764D01*
X349860862Y-150575233D01*
X349933754Y-150438860D01*
X349968883Y-150323054D01*
X349978641Y-150290888D01*
X349981692Y-150259906D01*
X349990000Y-150175561D01*
X349990000Y-150175554D01*
X349993797Y-150137001D01*
X349990000Y-150098448D01*
X349990000Y-147075552D01*
X349993797Y-147036999D01*
X349990000Y-146998446D01*
X349990000Y-146998439D01*
X349978641Y-146883113D01*
X349933754Y-146735140D01*
X349860862Y-146598767D01*
X349800514Y-146525234D01*
X349787345Y-146509187D01*
X349787342Y-146509184D01*
X349762764Y-146479236D01*
X349732815Y-146454657D01*
X348737347Y-145459190D01*
X348712764Y-145429236D01*
X348593233Y-145331138D01*
X348456860Y-145258246D01*
X348308887Y-145213359D01*
X348193561Y-145202000D01*
X348193553Y-145202000D01*
X348155000Y-145198203D01*
X348116447Y-145202000D01*
X345980158Y-145202000D01*
X345755596Y-144977439D01*
X345755596Y-144623157D01*
X345759393Y-144584604D01*
X345755596Y-144546051D01*
X345755596Y-144546044D01*
X345744237Y-144430718D01*
X345740140Y-144417210D01*
X345699350Y-144282745D01*
X345684340Y-144254663D01*
X345626458Y-144146372D01*
X345561548Y-144067280D01*
X345552941Y-144056792D01*
X345552938Y-144056789D01*
X345528360Y-144026841D01*
X345498411Y-144002262D01*
X344630315Y-143134167D01*
X344605734Y-143104215D01*
X344486203Y-143006117D01*
X344482061Y-143003903D01*
X344384695Y-142906537D01*
X344384695Y-141487000D01*
X344382078Y-141460426D01*
X344860239Y-141460426D01*
X344861833Y-141487477D01*
X344860239Y-141514528D01*
X344865791Y-141554658D01*
X344866187Y-141561373D01*
X344870414Y-141588068D01*
X344878732Y-141648187D01*
X344880943Y-141654562D01*
X344971925Y-142229153D01*
X344971792Y-142235809D01*
X344982462Y-142295697D01*
X344986697Y-142322442D01*
X344988369Y-142328850D01*
X344995460Y-142368650D01*
X345005361Y-142393976D01*
X345012226Y-142420290D01*
X345029867Y-142456664D01*
X345032278Y-142462832D01*
X345044565Y-142486971D01*
X345071107Y-142541698D01*
X345075123Y-142547004D01*
X345339190Y-143065778D01*
X345341275Y-143072634D01*
X345369754Y-143125823D01*
X345381805Y-143149498D01*
X345385645Y-143155501D01*
X345404967Y-143191589D01*
X345421913Y-143212208D01*
X345436290Y-143234687D01*
X345464641Y-143264197D01*
X345469174Y-143269713D01*
X345488009Y-143288521D01*
X345529771Y-143331991D01*
X345535643Y-143336087D01*
X345947784Y-143747640D01*
X345951428Y-143752873D01*
X345995418Y-143795205D01*
X346014809Y-143814569D01*
X346019729Y-143818601D01*
X346048654Y-143846436D01*
X346071776Y-143861252D01*
X346093024Y-143878664D01*
X346128454Y-143897569D01*
X346133797Y-143900993D01*
X346158151Y-143913415D01*
X346212069Y-143942186D01*
X346218179Y-143944035D01*
X346735865Y-144208097D01*
X346741420Y-144212301D01*
X346795828Y-144238683D01*
X346819718Y-144250869D01*
X346826188Y-144253405D01*
X346862832Y-144271173D01*
X346888837Y-144277956D01*
X346913869Y-144287766D01*
X346953967Y-144294945D01*
X346960681Y-144296696D01*
X346987145Y-144300885D01*
X347046691Y-144311545D01*
X347053655Y-144311411D01*
X347642321Y-144404581D01*
X347661723Y-144410467D01*
X347708809Y-144415105D01*
X347722155Y-144417217D01*
X347742286Y-144418402D01*
X347762359Y-144420379D01*
X347775874Y-144420379D01*
X347823103Y-144423159D01*
X347843186Y-144420379D01*
X350748826Y-144420379D01*
X350768909Y-144423159D01*
X350816138Y-144420379D01*
X350829653Y-144420379D01*
X350849727Y-144418402D01*
X350869856Y-144417217D01*
X350883201Y-144415105D01*
X350930289Y-144410467D01*
X350949693Y-144404581D01*
X351538344Y-144311413D01*
X351545306Y-144311547D01*
X351604880Y-144300882D01*
X351631330Y-144296696D01*
X351638035Y-144294947D01*
X351678127Y-144287770D01*
X351703163Y-144277959D01*
X351729179Y-144271173D01*
X351765829Y-144253402D01*
X351772279Y-144250874D01*
X351796124Y-144238712D01*
X351850591Y-144212301D01*
X351856145Y-144208098D01*
X352374176Y-143943874D01*
X352380635Y-143941912D01*
X352434195Y-143913261D01*
X352458233Y-143901000D01*
X352463887Y-143897377D01*
X352499615Y-143878265D01*
X352520556Y-143861068D01*
X352543378Y-143846445D01*
X352572576Y-143818348D01*
X352577763Y-143814088D01*
X352596845Y-143794993D01*
X352640605Y-143752883D01*
X352644459Y-143747348D01*
X353055341Y-143336196D01*
X353060565Y-143332562D01*
X353102944Y-143288562D01*
X353122310Y-143269183D01*
X353126332Y-143264279D01*
X353154170Y-143235376D01*
X353169003Y-143212249D01*
X353186436Y-143190993D01*
X353205349Y-143155581D01*
X353208764Y-143150257D01*
X353221198Y-143125907D01*
X353250004Y-143071972D01*
X353251851Y-143065878D01*
X353516616Y-142547368D01*
X353520889Y-142541724D01*
X353547240Y-142487396D01*
X353559375Y-142463631D01*
X353561951Y-142457065D01*
X353579775Y-142420318D01*
X353586533Y-142394420D01*
X353596313Y-142369496D01*
X353603531Y-142329283D01*
X353605308Y-142322471D01*
X353609475Y-142296164D01*
X353620150Y-142236685D01*
X353620017Y-142229603D01*
X353711095Y-141654571D01*
X353713318Y-141648159D01*
X353721640Y-141587990D01*
X353725851Y-141561404D01*
X353726248Y-141554677D01*
X353731805Y-141514498D01*
X353730211Y-141487477D01*
X353731805Y-141460456D01*
X353726248Y-141420277D01*
X353725851Y-141413550D01*
X353721640Y-141386964D01*
X353713318Y-141326795D01*
X353711095Y-141320383D01*
X353620017Y-140745351D01*
X353620150Y-140738269D01*
X353609475Y-140678790D01*
X353605308Y-140652483D01*
X353603531Y-140645671D01*
X353596313Y-140605458D01*
X353586533Y-140580534D01*
X353579775Y-140554636D01*
X353561951Y-140517889D01*
X353559375Y-140511323D01*
X353547240Y-140487558D01*
X353520889Y-140433230D01*
X353516616Y-140427586D01*
X353251850Y-139909075D01*
X353250004Y-139902983D01*
X353221204Y-139849059D01*
X353208764Y-139824697D01*
X353205348Y-139819371D01*
X353186436Y-139783961D01*
X353169003Y-139762705D01*
X353154170Y-139739578D01*
X353126332Y-139710675D01*
X353122310Y-139705771D01*
X353102943Y-139686391D01*
X353060565Y-139642392D01*
X353055341Y-139638758D01*
X352644460Y-139227606D01*
X352640605Y-139222070D01*
X352596844Y-139179959D01*
X352577763Y-139160865D01*
X352572576Y-139156605D01*
X352543378Y-139128508D01*
X352520556Y-139113885D01*
X352499615Y-139096688D01*
X352463889Y-139077577D01*
X352458233Y-139073953D01*
X352434184Y-139061687D01*
X352380636Y-139033042D01*
X352374179Y-139031081D01*
X351856145Y-138766855D01*
X351850591Y-138762652D01*
X351796115Y-138736237D01*
X351772279Y-138724079D01*
X351765833Y-138721553D01*
X351729178Y-138703779D01*
X351703159Y-138696992D01*
X351678127Y-138687183D01*
X351638032Y-138680005D01*
X351631329Y-138678257D01*
X351604890Y-138674072D01*
X351545306Y-138663406D01*
X351538342Y-138663540D01*
X350949693Y-138570373D01*
X350930289Y-138564487D01*
X350883198Y-138559849D01*
X350869855Y-138557737D01*
X350849728Y-138556552D01*
X350829653Y-138554575D01*
X350816137Y-138554575D01*
X350768908Y-138551795D01*
X350748826Y-138554575D01*
X347843186Y-138554575D01*
X347823104Y-138551795D01*
X347775875Y-138554575D01*
X347762359Y-138554575D01*
X347742285Y-138556552D01*
X347722156Y-138557737D01*
X347708811Y-138559849D01*
X347661723Y-138564487D01*
X347642320Y-138570373D01*
X347053657Y-138663542D01*
X347046691Y-138663408D01*
X346987136Y-138674070D01*
X346960682Y-138678257D01*
X346953969Y-138680008D01*
X346913869Y-138687187D01*
X346888841Y-138696995D01*
X346862833Y-138703779D01*
X346826184Y-138721550D01*
X346819718Y-138724084D01*
X346795837Y-138736265D01*
X346741420Y-138762652D01*
X346735866Y-138766856D01*
X346218179Y-139030918D01*
X346212069Y-139032767D01*
X346158141Y-139061543D01*
X346133797Y-139073960D01*
X346128457Y-139077382D01*
X346093023Y-139096289D01*
X346071773Y-139113703D01*
X346048654Y-139128517D01*
X346019729Y-139156353D01*
X346014808Y-139160385D01*
X345995420Y-139179746D01*
X345951428Y-139222080D01*
X345947783Y-139227314D01*
X345535645Y-139638865D01*
X345529771Y-139642963D01*
X345487987Y-139686456D01*
X345469174Y-139705242D01*
X345464646Y-139710751D01*
X345436290Y-139740267D01*
X345421912Y-139762747D01*
X345404967Y-139783365D01*
X345385645Y-139819453D01*
X345381805Y-139825456D01*
X345369754Y-139849131D01*
X345341275Y-139902320D01*
X345339190Y-139909176D01*
X345075123Y-140427950D01*
X345071107Y-140433256D01*
X345044565Y-140487983D01*
X345032278Y-140512122D01*
X345029867Y-140518290D01*
X345012226Y-140554664D01*
X345005361Y-140580978D01*
X344995460Y-140606304D01*
X344988369Y-140646104D01*
X344986697Y-140652512D01*
X344982462Y-140679257D01*
X344971792Y-140739145D01*
X344971925Y-140745801D01*
X344880943Y-141320392D01*
X344878732Y-141326767D01*
X344870414Y-141386886D01*
X344866187Y-141413581D01*
X344865791Y-141420296D01*
X344860239Y-141460426D01*
X344382078Y-141460426D01*
X344372435Y-141362518D01*
X344336125Y-141242820D01*
X344277160Y-141132506D01*
X344197808Y-141035815D01*
X344101117Y-140956463D01*
X343990803Y-140897498D01*
X343871105Y-140861188D01*
X343746623Y-140848928D01*
X342746623Y-140848928D01*
X342621487Y-140861319D01*
X342596559Y-140868909D01*
X342571105Y-140861188D01*
X342446623Y-140848928D01*
X341296623Y-140848928D01*
X341172141Y-140861188D01*
X341052443Y-140897498D01*
X340942129Y-140956463D01*
X340845438Y-141035815D01*
X340766086Y-141132506D01*
X340707121Y-141242820D01*
X340670811Y-141362518D01*
X340658551Y-141487000D01*
X340658551Y-142264915D01*
X340046487Y-142876979D01*
X339940743Y-142876979D01*
X339902187Y-142873182D01*
X339863631Y-142876979D01*
X339863627Y-142876979D01*
X339835768Y-142879723D01*
X339748300Y-142888337D01*
X339600327Y-142933225D01*
X339557531Y-142956100D01*
X339463955Y-143006117D01*
X339407726Y-143052264D01*
X339374375Y-143079634D01*
X339374372Y-143079637D01*
X339344424Y-143104215D01*
X339319845Y-143134165D01*
X338888415Y-143565596D01*
X332962475Y-143565596D01*
X333005600Y-143348788D01*
X333005600Y-143125212D01*
X332961983Y-142905933D01*
X332876424Y-142699376D01*
X332752212Y-142513480D01*
X332594120Y-142355388D01*
X332408224Y-142231176D01*
X332201667Y-142145617D01*
X331982388Y-142102000D01*
X331758812Y-142102000D01*
X331539533Y-142145617D01*
X331332976Y-142231176D01*
X331147080Y-142355388D01*
X330988988Y-142513480D01*
X330864776Y-142699376D01*
X330779217Y-142905933D01*
X330735600Y-143125212D01*
X330735600Y-143348788D01*
X330778725Y-143565596D01*
X316295875Y-143565596D01*
X316339000Y-143348788D01*
X316339000Y-143125212D01*
X316295383Y-142905933D01*
X316209824Y-142699376D01*
X316085612Y-142513480D01*
X315927520Y-142355388D01*
X315741624Y-142231176D01*
X315535067Y-142145617D01*
X315315788Y-142102000D01*
X315092212Y-142102000D01*
X314872933Y-142145617D01*
X314666376Y-142231176D01*
X314480480Y-142355388D01*
X314322388Y-142513480D01*
X314198176Y-142699376D01*
X314112617Y-142905933D01*
X314069000Y-143125212D01*
X314069000Y-143348788D01*
X314112125Y-143565596D01*
X299629275Y-143565596D01*
X299672400Y-143348788D01*
X299672400Y-143125212D01*
X299628783Y-142905933D01*
X299543224Y-142699376D01*
X299419012Y-142513480D01*
X299260920Y-142355388D01*
X299075024Y-142231176D01*
X298868467Y-142145617D01*
X298649188Y-142102000D01*
X298425612Y-142102000D01*
X298206333Y-142145617D01*
X297999776Y-142231176D01*
X297813880Y-142355388D01*
X297655788Y-142513480D01*
X297531576Y-142699376D01*
X297446017Y-142905933D01*
X297402400Y-143125212D01*
X297402400Y-143348788D01*
X297445525Y-143565596D01*
X282962675Y-143565596D01*
X283005800Y-143348788D01*
X283005800Y-143125212D01*
X282962183Y-142905933D01*
X282876624Y-142699376D01*
X282752412Y-142513480D01*
X282594320Y-142355388D01*
X282408424Y-142231176D01*
X282201867Y-142145617D01*
X281982588Y-142102000D01*
X281759012Y-142102000D01*
X281539733Y-142145617D01*
X281333176Y-142231176D01*
X281147280Y-142355388D01*
X280989188Y-142513480D01*
X280864976Y-142699376D01*
X280779417Y-142905933D01*
X280735800Y-143125212D01*
X280735800Y-143348788D01*
X280778925Y-143565596D01*
X266296075Y-143565596D01*
X266339200Y-143348788D01*
X266339200Y-143125212D01*
X266295583Y-142905933D01*
X266210024Y-142699376D01*
X266085812Y-142513480D01*
X265927720Y-142355388D01*
X265741824Y-142231176D01*
X265535267Y-142145617D01*
X265315988Y-142102000D01*
X265092412Y-142102000D01*
X264873133Y-142145617D01*
X264666576Y-142231176D01*
X264480680Y-142355388D01*
X264322588Y-142513480D01*
X264198376Y-142699376D01*
X264112817Y-142905933D01*
X264069200Y-143125212D01*
X264069200Y-143348788D01*
X264112325Y-143565596D01*
X249629475Y-143565596D01*
X249672600Y-143348788D01*
X249672600Y-143125212D01*
X249628983Y-142905933D01*
X249543424Y-142699376D01*
X249419212Y-142513480D01*
X249261120Y-142355388D01*
X249075224Y-142231176D01*
X248868667Y-142145617D01*
X248649388Y-142102000D01*
X248425812Y-142102000D01*
X248206533Y-142145617D01*
X247999976Y-142231176D01*
X247814080Y-142355388D01*
X247655988Y-142513480D01*
X247531776Y-142699376D01*
X247446217Y-142905933D01*
X247402600Y-143125212D01*
X247402600Y-143348788D01*
X247445725Y-143565596D01*
X232962875Y-143565596D01*
X233006000Y-143348788D01*
X233006000Y-143125212D01*
X232962383Y-142905933D01*
X232876824Y-142699376D01*
X232752612Y-142513480D01*
X232594520Y-142355388D01*
X232408624Y-142231176D01*
X232202067Y-142145617D01*
X231982788Y-142102000D01*
X231759212Y-142102000D01*
X231539933Y-142145617D01*
X231333376Y-142231176D01*
X231147480Y-142355388D01*
X230989388Y-142513480D01*
X230865176Y-142699376D01*
X230779617Y-142905933D01*
X230736000Y-143125212D01*
X230736000Y-143348788D01*
X230779125Y-143565596D01*
X216296275Y-143565596D01*
X216339400Y-143348788D01*
X216339400Y-143125212D01*
X216295783Y-142905933D01*
X216210224Y-142699376D01*
X216086012Y-142513480D01*
X215927920Y-142355388D01*
X215742024Y-142231176D01*
X215535467Y-142145617D01*
X215316188Y-142102000D01*
X215092612Y-142102000D01*
X214873333Y-142145617D01*
X214666776Y-142231176D01*
X214480880Y-142355388D01*
X214322788Y-142513480D01*
X214198576Y-142699376D01*
X214113017Y-142905933D01*
X214069400Y-143125212D01*
X214069400Y-143348788D01*
X214112525Y-143565596D01*
X199629675Y-143565596D01*
X199672800Y-143348788D01*
X199672800Y-143125212D01*
X199629183Y-142905933D01*
X199543624Y-142699376D01*
X199419412Y-142513480D01*
X199261320Y-142355388D01*
X199075424Y-142231176D01*
X198868867Y-142145617D01*
X198649588Y-142102000D01*
X198426012Y-142102000D01*
X198206733Y-142145617D01*
X198000176Y-142231176D01*
X197814280Y-142355388D01*
X197656188Y-142513480D01*
X197531976Y-142699376D01*
X197446417Y-142905933D01*
X197402800Y-143125212D01*
X197402800Y-143348788D01*
X197445925Y-143565596D01*
X182963075Y-143565596D01*
X183006200Y-143348788D01*
X183006200Y-143125212D01*
X182962583Y-142905933D01*
X182877024Y-142699376D01*
X182752812Y-142513480D01*
X182594720Y-142355388D01*
X182408824Y-142231176D01*
X182202267Y-142145617D01*
X181982988Y-142102000D01*
X181759412Y-142102000D01*
X181540133Y-142145617D01*
X181333576Y-142231176D01*
X181147680Y-142355388D01*
X180989588Y-142513480D01*
X180865376Y-142699376D01*
X180779817Y-142905933D01*
X180736200Y-143125212D01*
X180736200Y-143348788D01*
X180779325Y-143565596D01*
X166296475Y-143565596D01*
X166339600Y-143348788D01*
X166339600Y-143125212D01*
X166295983Y-142905933D01*
X166210424Y-142699376D01*
X166086212Y-142513480D01*
X165928120Y-142355388D01*
X165742224Y-142231176D01*
X165535667Y-142145617D01*
X165316388Y-142102000D01*
X165092812Y-142102000D01*
X164873533Y-142145617D01*
X164666976Y-142231176D01*
X164481080Y-142355388D01*
X164322988Y-142513480D01*
X164198776Y-142699376D01*
X164113217Y-142905933D01*
X164069600Y-143125212D01*
X164069600Y-143348788D01*
X164112725Y-143565596D01*
X149629875Y-143565596D01*
X149673000Y-143348788D01*
X149673000Y-143125212D01*
X149629383Y-142905933D01*
X149543824Y-142699376D01*
X149419612Y-142513480D01*
X149261520Y-142355388D01*
X149075624Y-142231176D01*
X148869067Y-142145617D01*
X148649788Y-142102000D01*
X148426212Y-142102000D01*
X148206933Y-142145617D01*
X148000376Y-142231176D01*
X147814480Y-142355388D01*
X147656388Y-142513480D01*
X147532176Y-142699376D01*
X147446617Y-142905933D01*
X147403000Y-143125212D01*
X147403000Y-143348788D01*
X147446125Y-143565596D01*
X132963275Y-143565596D01*
X133006400Y-143348788D01*
X133006400Y-143125212D01*
X132962783Y-142905933D01*
X132877224Y-142699376D01*
X132753012Y-142513480D01*
X132594920Y-142355388D01*
X132409024Y-142231176D01*
X132202467Y-142145617D01*
X131983188Y-142102000D01*
X131759612Y-142102000D01*
X131540333Y-142145617D01*
X131333776Y-142231176D01*
X131147880Y-142355388D01*
X130989788Y-142513480D01*
X130865576Y-142699376D01*
X130780017Y-142905933D01*
X130736400Y-143125212D01*
X130736400Y-143348788D01*
X130779525Y-143565596D01*
X116296675Y-143565596D01*
X116339800Y-143348788D01*
X116339800Y-143125212D01*
X116296183Y-142905933D01*
X116210624Y-142699376D01*
X116086412Y-142513480D01*
X115928320Y-142355388D01*
X115742424Y-142231176D01*
X115535867Y-142145617D01*
X115316588Y-142102000D01*
X115093012Y-142102000D01*
X114873733Y-142145617D01*
X114667176Y-142231176D01*
X114481280Y-142355388D01*
X114323188Y-142513480D01*
X114198976Y-142699376D01*
X114113417Y-142905933D01*
X114069800Y-143125212D01*
X114069800Y-143348788D01*
X114112925Y-143565596D01*
X99630075Y-143565596D01*
X99673200Y-143348788D01*
X99673200Y-143125212D01*
X99629583Y-142905933D01*
X99544024Y-142699376D01*
X99419812Y-142513480D01*
X99261720Y-142355388D01*
X99075824Y-142231176D01*
X98869267Y-142145617D01*
X98649988Y-142102000D01*
X98426412Y-142102000D01*
X98207133Y-142145617D01*
X98000576Y-142231176D01*
X97814680Y-142355388D01*
X97656588Y-142513480D01*
X97532376Y-142699376D01*
X97446817Y-142905933D01*
X97403200Y-143125212D01*
X97403200Y-143348788D01*
X97446325Y-143565596D01*
X82963475Y-143565596D01*
X83006600Y-143348788D01*
X83006600Y-143125212D01*
X82962983Y-142905933D01*
X82877424Y-142699376D01*
X82753212Y-142513480D01*
X82595120Y-142355388D01*
X82409224Y-142231176D01*
X82202667Y-142145617D01*
X81983388Y-142102000D01*
X81759812Y-142102000D01*
X81540533Y-142145617D01*
X81333976Y-142231176D01*
X81148080Y-142355388D01*
X80989988Y-142513480D01*
X80865776Y-142699376D01*
X80780217Y-142905933D01*
X80736600Y-143125212D01*
X80736600Y-143348788D01*
X80779725Y-143565596D01*
X70811536Y-143565596D01*
X70768269Y-143522329D01*
X70765046Y-143489603D01*
X70720158Y-143341630D01*
X70701277Y-143306306D01*
X70647266Y-143205257D01*
X70549168Y-143085726D01*
X70519214Y-143061143D01*
X67667261Y-140209190D01*
X67642678Y-140179236D01*
X67523147Y-140081138D01*
X67386774Y-140008246D01*
X67238801Y-139963359D01*
X67123475Y-139952000D01*
X67123467Y-139952000D01*
X67084914Y-139948203D01*
X67046361Y-139952000D01*
X61543556Y-139952000D01*
X61505000Y-139948203D01*
X61466444Y-139952000D01*
X61466439Y-139952000D01*
X61426026Y-139955980D01*
X61351113Y-139963358D01*
X61237581Y-139997799D01*
X61203140Y-140008246D01*
X61066767Y-140081138D01*
X60947236Y-140179236D01*
X60922650Y-140209194D01*
X60777191Y-140354652D01*
X60768180Y-140362047D01*
X60537493Y-139909275D01*
X60535522Y-139902778D01*
X60506887Y-139849205D01*
X60494672Y-139825230D01*
X60491039Y-139819555D01*
X60471916Y-139783777D01*
X60454741Y-139762849D01*
X60440154Y-139740061D01*
X60412052Y-139710832D01*
X60407765Y-139705608D01*
X60388688Y-139686531D01*
X60346636Y-139642792D01*
X60341072Y-139638914D01*
X59929569Y-139227405D01*
X59925686Y-139221834D01*
X59881944Y-139179779D01*
X59862882Y-139160717D01*
X59857656Y-139156428D01*
X59828417Y-139128317D01*
X59805628Y-139113730D01*
X59784713Y-139096565D01*
X59748941Y-139077444D01*
X59743248Y-139073800D01*
X59719236Y-139061566D01*
X59665713Y-139032957D01*
X59659213Y-139030985D01*
X59140635Y-138766776D01*
X59135231Y-138762685D01*
X59080595Y-138736186D01*
X59056585Y-138723953D01*
X59050310Y-138721497D01*
X59013824Y-138703801D01*
X58987628Y-138696966D01*
X58962417Y-138687099D01*
X58922498Y-138679972D01*
X58915977Y-138678270D01*
X58889362Y-138674055D01*
X58829585Y-138663382D01*
X58822808Y-138663515D01*
X58234720Y-138570383D01*
X58215284Y-138564487D01*
X58168220Y-138559851D01*
X58154912Y-138557744D01*
X58134762Y-138556556D01*
X58114648Y-138554575D01*
X58101157Y-138554575D01*
X58053966Y-138551793D01*
X58033855Y-138554575D01*
X55128147Y-138554575D01*
X55108036Y-138551793D01*
X55060845Y-138554575D01*
X55047354Y-138554575D01*
X55027241Y-138556556D01*
X55007089Y-138557744D01*
X54993780Y-138559852D01*
X54946718Y-138564487D01*
X54927283Y-138570382D01*
X54339194Y-138663515D01*
X54332417Y-138663382D01*
X54272636Y-138674056D01*
X54246025Y-138678270D01*
X54239506Y-138679971D01*
X54199584Y-138687099D01*
X54174369Y-138696967D01*
X54148178Y-138703801D01*
X54111706Y-138721490D01*
X54105416Y-138723952D01*
X54081348Y-138736215D01*
X54026771Y-138762685D01*
X54021372Y-138766771D01*
X53502789Y-139030985D01*
X53496288Y-139032957D01*
X53442747Y-139061576D01*
X53418754Y-139073800D01*
X53413066Y-139077441D01*
X53377288Y-139096565D01*
X53356370Y-139113732D01*
X53333585Y-139128317D01*
X53304347Y-139156427D01*
X53299120Y-139160717D01*
X53280059Y-139179778D01*
X53236316Y-139221834D01*
X53232433Y-139227405D01*
X52820930Y-139638915D01*
X52815366Y-139642793D01*
X52773303Y-139686543D01*
X52754238Y-139705608D01*
X52749955Y-139710827D01*
X52721847Y-139740062D01*
X52707255Y-139762858D01*
X52690087Y-139783778D01*
X52670969Y-139819546D01*
X52667330Y-139825231D01*
X52655095Y-139849245D01*
X52626481Y-139902779D01*
X52624512Y-139909271D01*
X52360302Y-140427840D01*
X52356212Y-140433243D01*
X52329729Y-140487846D01*
X52317481Y-140511885D01*
X52315021Y-140518170D01*
X52297328Y-140554650D01*
X52290494Y-140580841D01*
X52280627Y-140606053D01*
X52273499Y-140645973D01*
X52271797Y-140652497D01*
X52267580Y-140679127D01*
X52256910Y-140738885D01*
X52257043Y-140745660D01*
X52166026Y-141320390D01*
X52163809Y-141326782D01*
X52155490Y-141386915D01*
X52151270Y-141413565D01*
X52150874Y-141420289D01*
X52145319Y-141460442D01*
X49765993Y-141460442D01*
X49765993Y-140791405D01*
X49838488Y-140333803D01*
X50024098Y-139969517D01*
X50313050Y-139680565D01*
X50677313Y-139494973D01*
X51134921Y-139422479D01*
X51334152Y-139422479D01*
X51340840Y-139423673D01*
X51401487Y-139422479D01*
X51428453Y-139422479D01*
X51435190Y-139421815D01*
X51475747Y-139421017D01*
X51502165Y-139415219D01*
X51529089Y-139412567D01*
X51567926Y-139400786D01*
X51607543Y-139392091D01*
X51632317Y-139381253D01*
X51658212Y-139373398D01*
X51694000Y-139354269D01*
X51731164Y-139338011D01*
X51753352Y-139322545D01*
X51777213Y-139309791D01*
X51808583Y-139284046D01*
X51841859Y-139260851D01*
X51860603Y-139241354D01*
X51881517Y-139224190D01*
X51907259Y-139192823D01*
X51935374Y-139163579D01*
X51949954Y-139140801D01*
X51967118Y-139119886D01*
X51986247Y-139084098D01*
X51989889Y-139078408D01*
X52002104Y-139054432D01*
X52030725Y-139000885D01*
X52032699Y-138994376D01*
X52101503Y-138859323D01*
X52445371Y-138515455D01*
X52618947Y-138427000D01*
X60543012Y-138427000D01*
X60716641Y-138515470D01*
X60716641Y-138515470D01*
G37*
X60716641Y-138515470D02*
X61060496Y-138859325D01*
X61129297Y-138994375D01*
X61131272Y-139000885D01*
X61159894Y-139054434D01*
X61172108Y-139078408D01*
X61175750Y-139084098D01*
X61194879Y-139119886D01*
X61212043Y-139140801D01*
X61226623Y-139163579D01*
X61254738Y-139192823D01*
X61280480Y-139224190D01*
X61301394Y-139241354D01*
X61320138Y-139260851D01*
X61353414Y-139284046D01*
X61384784Y-139309791D01*
X61408645Y-139322545D01*
X61430833Y-139338011D01*
X61468000Y-139354271D01*
X61503785Y-139373398D01*
X61529674Y-139381251D01*
X61554454Y-139392092D01*
X61594080Y-139400789D01*
X61632908Y-139412567D01*
X61659828Y-139415218D01*
X61686249Y-139421017D01*
X61726811Y-139421816D01*
X61733544Y-139422479D01*
X61760481Y-139422479D01*
X61821157Y-139423674D01*
X61827851Y-139422479D01*
X344049871Y-139422479D01*
X344057095Y-139423757D01*
X344117229Y-139422479D01*
X344143639Y-139422479D01*
X344150906Y-139421763D01*
X344191997Y-139420890D01*
X344217883Y-139415166D01*
X344244275Y-139412567D01*
X344283623Y-139400631D01*
X344323748Y-139391759D01*
X344348015Y-139381098D01*
X344373398Y-139373398D01*
X344409660Y-139354015D01*
X344447285Y-139337486D01*
X344469008Y-139322294D01*
X344492399Y-139309791D01*
X344524186Y-139283704D01*
X344557859Y-139260154D01*
X344576200Y-139241016D01*
X344596703Y-139224190D01*
X344622788Y-139192406D01*
X344651223Y-139162736D01*
X344665478Y-139140388D01*
X344682304Y-139119886D01*
X344701685Y-139083626D01*
X344705605Y-139077481D01*
X344717538Y-139053967D01*
X344745911Y-139000885D01*
X344748042Y-138993861D01*
X344816408Y-138859147D01*
X345160550Y-138515468D01*
X345333990Y-138427000D01*
X353258012Y-138427000D01*
X353431150Y-138515314D01*
X353775142Y-138859514D01*
X353844232Y-138994750D01*
X353846093Y-139000885D01*
X353874912Y-139054801D01*
X353887318Y-139079085D01*
X353890753Y-139084438D01*
X353909700Y-139119886D01*
X353927112Y-139141103D01*
X353941929Y-139164194D01*
X353969808Y-139193128D01*
X353995301Y-139224190D01*
X354016515Y-139241600D01*
X354035555Y-139261360D01*
X354068538Y-139284295D01*
X354099605Y-139309791D01*
X354123814Y-139322731D01*
X354146338Y-139338393D01*
X354183159Y-139354451D01*
X354218606Y-139373398D01*
X354244874Y-139381366D01*
X354270020Y-139392333D01*
X354309271Y-139400901D01*
X354347729Y-139412567D01*
X354375038Y-139415257D01*
X354401848Y-139421109D01*
X354442019Y-139421854D01*
X354448365Y-139422479D01*
X354475720Y-139422479D01*
X354536759Y-139423611D01*
X354543059Y-139422479D01*
X354742090Y-139422479D01*
X355199554Y-139494951D01*
X355563486Y-139680569D01*
X355852999Y-139969687D01*
X356038428Y-140333781D01*
X356110997Y-140791461D01*
X356110996Y-155683506D01*
X356038429Y-156141174D01*
X355853002Y-156505251D01*
X355563480Y-156794378D01*
X355199542Y-156980012D01*
X354742090Y-157052482D01*
X354543059Y-157052482D01*
X354536759Y-157051350D01*
X354475720Y-157052482D01*
X354448365Y-157052482D01*
X354442019Y-157053107D01*
X354401848Y-157053852D01*
X354375038Y-157059704D01*
X354347729Y-157062394D01*
X354309271Y-157074060D01*
X354270020Y-157082628D01*
X354244874Y-157093595D01*
X354218606Y-157101563D01*
X354183159Y-157120510D01*
X354146338Y-157136568D01*
X354123814Y-157152230D01*
X354099605Y-157165170D01*
X354068538Y-157190666D01*
X354035555Y-157213601D01*
X354016515Y-157233361D01*
X353995301Y-157250771D01*
X353969808Y-157281833D01*
X353941929Y-157310767D01*
X353927112Y-157333858D01*
X353909700Y-157355075D01*
X353890753Y-157390523D01*
X353887318Y-157395876D01*
X353874912Y-157420160D01*
X353846093Y-157474076D01*
X353844232Y-157480211D01*
X353775142Y-157615447D01*
X353431157Y-157959640D01*
X353404963Y-157973000D01*
X345187040Y-157973000D01*
X345160542Y-157959485D01*
X344816408Y-157615814D01*
X344748042Y-157481100D01*
X344745911Y-157474076D01*
X344717538Y-157420994D01*
X344705605Y-157397480D01*
X344701685Y-157391335D01*
X344682304Y-157355075D01*
X344665478Y-157334573D01*
X344651223Y-157312225D01*
X344622788Y-157282555D01*
X344596703Y-157250771D01*
X344576200Y-157233945D01*
X344557859Y-157214807D01*
X344524186Y-157191257D01*
X344492399Y-157165170D01*
X344469008Y-157152667D01*
X344447285Y-157137475D01*
X344409660Y-157120946D01*
X344373398Y-157101563D01*
X344348015Y-157093863D01*
X344323748Y-157083202D01*
X344283623Y-157074330D01*
X344244275Y-157062394D01*
X344217883Y-157059795D01*
X344191997Y-157054071D01*
X344150906Y-157053198D01*
X344143639Y-157052482D01*
X344117229Y-157052482D01*
X344057095Y-157051204D01*
X344049871Y-157052482D01*
X61827851Y-157052482D01*
X61821157Y-157051287D01*
X61760481Y-157052482D01*
X61733544Y-157052482D01*
X61726811Y-157053145D01*
X61686249Y-157053944D01*
X61659828Y-157059743D01*
X61632908Y-157062394D01*
X61594080Y-157074172D01*
X61554454Y-157082869D01*
X61529674Y-157093710D01*
X61503785Y-157101563D01*
X61468000Y-157120690D01*
X61430833Y-157136950D01*
X61408647Y-157152415D01*
X61384784Y-157165170D01*
X61353414Y-157190915D01*
X61320138Y-157214110D01*
X61301394Y-157233607D01*
X61280480Y-157250771D01*
X61254738Y-157282138D01*
X61226623Y-157311382D01*
X61212043Y-157334160D01*
X61194879Y-157355075D01*
X61175750Y-157390863D01*
X61172108Y-157396553D01*
X61159894Y-157420527D01*
X61131272Y-157474076D01*
X61129297Y-157480586D01*
X61060496Y-157615636D01*
X60716648Y-157959485D01*
X60690122Y-157973000D01*
X52471858Y-157973000D01*
X52445365Y-157959500D01*
X52101503Y-157615638D01*
X52032699Y-157480585D01*
X52030725Y-157474076D01*
X52002104Y-157420529D01*
X51989889Y-157396553D01*
X51986247Y-157390863D01*
X51967118Y-157355075D01*
X51949954Y-157334160D01*
X51935374Y-157311382D01*
X51907259Y-157282138D01*
X51881517Y-157250771D01*
X51860603Y-157233607D01*
X51841859Y-157214110D01*
X51808583Y-157190915D01*
X51777213Y-157165170D01*
X51753350Y-157152415D01*
X51731164Y-157136950D01*
X51694000Y-157120692D01*
X51658212Y-157101563D01*
X51632317Y-157093708D01*
X51607543Y-157082870D01*
X51567926Y-157074175D01*
X51529089Y-157062394D01*
X51502165Y-157059742D01*
X51475747Y-157053944D01*
X51435190Y-157053146D01*
X51428453Y-157052482D01*
X51401487Y-157052482D01*
X51340840Y-157051288D01*
X51334152Y-157052482D01*
X51134921Y-157052482D01*
X50677322Y-156979989D01*
X50313059Y-156794383D01*
X50024093Y-156505418D01*
X49838487Y-156141152D01*
X49765993Y-155683556D01*
X49765993Y-154960442D01*
X52145319Y-154960442D01*
X52146913Y-154987477D01*
X52145319Y-155014512D01*
X52150874Y-155054665D01*
X52151270Y-155061389D01*
X52155490Y-155088039D01*
X52163809Y-155148172D01*
X52166026Y-155154564D01*
X52257043Y-155729294D01*
X52256910Y-155736069D01*
X52267580Y-155795827D01*
X52271797Y-155822457D01*
X52273499Y-155828981D01*
X52280627Y-155868901D01*
X52290494Y-155894113D01*
X52297328Y-155920304D01*
X52315021Y-155956784D01*
X52317481Y-155963069D01*
X52329729Y-155987108D01*
X52356212Y-156041711D01*
X52360302Y-156047114D01*
X52624512Y-156565683D01*
X52626481Y-156572175D01*
X52655095Y-156625709D01*
X52667330Y-156649723D01*
X52670969Y-156655408D01*
X52690087Y-156691176D01*
X52707255Y-156712096D01*
X52721847Y-156734892D01*
X52749955Y-156764127D01*
X52754238Y-156769346D01*
X52773303Y-156788411D01*
X52815366Y-156832161D01*
X52820930Y-156836039D01*
X53232433Y-157247549D01*
X53236316Y-157253120D01*
X53280059Y-157295176D01*
X53299120Y-157314237D01*
X53304347Y-157318527D01*
X53333585Y-157346637D01*
X53356370Y-157361222D01*
X53377288Y-157378389D01*
X53413066Y-157397513D01*
X53418754Y-157401154D01*
X53442747Y-157413378D01*
X53496288Y-157441997D01*
X53502789Y-157443969D01*
X54021372Y-157708183D01*
X54026771Y-157712269D01*
X54081348Y-157738739D01*
X54105416Y-157751002D01*
X54111706Y-157753464D01*
X54148178Y-157771153D01*
X54174369Y-157777987D01*
X54199584Y-157787855D01*
X54239506Y-157794983D01*
X54246025Y-157796684D01*
X54272636Y-157800898D01*
X54332417Y-157811572D01*
X54339194Y-157811439D01*
X54927283Y-157904572D01*
X54946718Y-157910467D01*
X54993780Y-157915102D01*
X55007089Y-157917210D01*
X55027241Y-157918398D01*
X55047354Y-157920379D01*
X55060845Y-157920379D01*
X55108036Y-157923161D01*
X55128147Y-157920379D01*
X58033855Y-157920379D01*
X58053966Y-157923161D01*
X58101157Y-157920379D01*
X58114648Y-157920379D01*
X58134762Y-157918398D01*
X58154912Y-157917210D01*
X58168220Y-157915103D01*
X58215284Y-157910467D01*
X58234720Y-157904571D01*
X58822808Y-157811439D01*
X58829585Y-157811572D01*
X58889362Y-157800899D01*
X58915977Y-157796684D01*
X58922498Y-157794982D01*
X58962417Y-157787855D01*
X58987628Y-157777988D01*
X59013824Y-157771153D01*
X59050310Y-157753457D01*
X59056585Y-157751001D01*
X59080595Y-157738768D01*
X59135231Y-157712269D01*
X59140635Y-157708178D01*
X59659213Y-157443969D01*
X59665713Y-157441997D01*
X59719236Y-157413388D01*
X59743248Y-157401154D01*
X59748941Y-157397510D01*
X59784713Y-157378389D01*
X59805628Y-157361224D01*
X59828417Y-157346637D01*
X59857656Y-157318526D01*
X59862882Y-157314237D01*
X59881944Y-157295175D01*
X59925686Y-157253120D01*
X59929569Y-157247549D01*
X60341072Y-156836040D01*
X60346636Y-156832162D01*
X60388688Y-156788423D01*
X60407765Y-156769346D01*
X60412052Y-156764122D01*
X60440154Y-156734893D01*
X60454741Y-156712105D01*
X60471916Y-156691177D01*
X60491039Y-156655399D01*
X60494672Y-156649724D01*
X60506887Y-156625749D01*
X60535522Y-156572176D01*
X60537493Y-156565679D01*
X60801701Y-156047115D01*
X60805792Y-156041710D01*
X60832276Y-155987105D01*
X60844521Y-155963071D01*
X60846982Y-155956784D01*
X60864675Y-155920303D01*
X60871507Y-155894119D01*
X60881376Y-155868903D01*
X60888506Y-155828971D01*
X60890206Y-155822456D01*
X60894415Y-155795876D01*
X60905094Y-155736070D01*
X60904961Y-155729287D01*
X60995976Y-155154565D01*
X60998193Y-155148173D01*
X61006513Y-155088033D01*
X61010732Y-155061389D01*
X61011128Y-155054667D01*
X61016683Y-155014513D01*
X61015089Y-154987477D01*
X61016683Y-154960441D01*
X61011128Y-154920287D01*
X61010732Y-154913565D01*
X61006513Y-154886921D01*
X60998193Y-154826781D01*
X60995976Y-154820389D01*
X60904961Y-154245667D01*
X60905094Y-154238884D01*
X60894415Y-154179078D01*
X60890206Y-154152498D01*
X60888506Y-154145983D01*
X60881376Y-154106051D01*
X60871507Y-154080835D01*
X60864675Y-154054651D01*
X60846982Y-154018170D01*
X60844521Y-154011883D01*
X60832276Y-153987849D01*
X60805792Y-153933244D01*
X60801701Y-153927839D01*
X60537490Y-153409270D01*
X60535521Y-153402778D01*
X60506907Y-153349245D01*
X60494672Y-153325230D01*
X60491033Y-153319545D01*
X60471915Y-153283777D01*
X60454744Y-153262853D01*
X60440154Y-153240061D01*
X60412051Y-153210830D01*
X60407764Y-153205607D01*
X60388690Y-153186533D01*
X60346636Y-153142792D01*
X60341071Y-153138913D01*
X59990972Y-152788809D01*
X61006404Y-152788809D01*
X61006404Y-153012385D01*
X61050021Y-153231664D01*
X61135580Y-153438221D01*
X61259792Y-153624117D01*
X61402510Y-153766835D01*
X61412650Y-153800263D01*
X61485542Y-153936636D01*
X61583640Y-154056168D01*
X61613593Y-154080750D01*
X61641928Y-154109085D01*
X61641928Y-154887000D01*
X61654188Y-155011482D01*
X61690498Y-155131180D01*
X61749463Y-155241494D01*
X61828815Y-155338185D01*
X61925506Y-155417537D01*
X62035820Y-155476502D01*
X62155518Y-155512812D01*
X62280000Y-155525072D01*
X63280000Y-155525072D01*
X63405136Y-155512681D01*
X63430064Y-155505091D01*
X63455518Y-155512812D01*
X63580000Y-155525072D01*
X64730000Y-155525072D01*
X64854482Y-155512812D01*
X64974180Y-155476502D01*
X65084494Y-155417537D01*
X65181185Y-155338185D01*
X65260537Y-155241494D01*
X65268703Y-155226217D01*
X65273933Y-155228383D01*
X65493212Y-155272000D01*
X65716788Y-155272000D01*
X65936067Y-155228383D01*
X66142624Y-155142824D01*
X66328520Y-155018612D01*
X66486612Y-154860520D01*
X66610824Y-154674624D01*
X66696383Y-154468067D01*
X66740000Y-154248788D01*
X66740000Y-154025212D01*
X66696383Y-153805933D01*
X66610824Y-153599376D01*
X66486612Y-153413480D01*
X66328520Y-153255388D01*
X66142624Y-153131176D01*
X65936067Y-153045617D01*
X65716788Y-153002000D01*
X65493212Y-153002000D01*
X65273933Y-153045617D01*
X65268703Y-153047783D01*
X65260537Y-153032506D01*
X65181185Y-152935815D01*
X65084494Y-152856463D01*
X64975174Y-152798029D01*
X71795247Y-152798029D01*
X71795247Y-153021605D01*
X71838864Y-153240884D01*
X71924423Y-153447441D01*
X72048635Y-153633337D01*
X72206727Y-153791429D01*
X72392623Y-153915641D01*
X72599180Y-154001200D01*
X72818459Y-154044817D01*
X73042035Y-154044817D01*
X73192849Y-154014818D01*
X73223386Y-154060520D01*
X73381478Y-154218612D01*
X73567374Y-154342824D01*
X73773931Y-154428383D01*
X73993210Y-154472000D01*
X74129840Y-154472000D01*
X74422655Y-154764815D01*
X74447234Y-154794764D01*
X74477182Y-154819342D01*
X74477185Y-154819345D01*
X74506557Y-154843450D01*
X74566765Y-154892862D01*
X74693170Y-154960426D01*
X74703138Y-154965754D01*
X74851110Y-155010641D01*
X74865488Y-155012057D01*
X74966437Y-155022000D01*
X74966444Y-155022000D01*
X75004997Y-155025797D01*
X75043550Y-155022000D01*
X340660950Y-155022000D01*
X340669763Y-155111482D01*
X340706073Y-155231180D01*
X340765038Y-155341494D01*
X340844390Y-155438185D01*
X340941081Y-155517537D01*
X341051395Y-155576502D01*
X341171093Y-155612812D01*
X341295575Y-155625072D01*
X342445575Y-155625072D01*
X342569402Y-155612941D01*
X342595510Y-155605051D01*
X342621093Y-155612812D01*
X342745575Y-155625072D01*
X343745575Y-155625072D01*
X343870057Y-155612812D01*
X343989755Y-155576502D01*
X344100069Y-155517537D01*
X344196760Y-155438185D01*
X344276112Y-155341494D01*
X344335077Y-155231180D01*
X344371387Y-155111482D01*
X344383647Y-154987000D01*
X344383647Y-154960426D01*
X344860239Y-154960426D01*
X344861833Y-154987477D01*
X344860239Y-155014528D01*
X344865791Y-155054658D01*
X344866187Y-155061373D01*
X344870414Y-155088068D01*
X344878732Y-155148187D01*
X344880943Y-155154562D01*
X344971925Y-155729153D01*
X344971792Y-155735809D01*
X344982462Y-155795697D01*
X344986697Y-155822442D01*
X344988369Y-155828850D01*
X344995460Y-155868650D01*
X345005361Y-155893976D01*
X345012226Y-155920290D01*
X345029867Y-155956664D01*
X345032278Y-155962832D01*
X345044565Y-155986971D01*
X345071107Y-156041698D01*
X345075123Y-156047004D01*
X345339190Y-156565778D01*
X345341275Y-156572634D01*
X345369754Y-156625823D01*
X345381805Y-156649498D01*
X345385645Y-156655501D01*
X345404967Y-156691589D01*
X345421912Y-156712207D01*
X345436290Y-156734687D01*
X345464646Y-156764203D01*
X345469174Y-156769712D01*
X345487987Y-156788498D01*
X345529771Y-156831991D01*
X345535645Y-156836089D01*
X345947783Y-157247640D01*
X345951428Y-157252874D01*
X345995420Y-157295208D01*
X346014808Y-157314569D01*
X346019729Y-157318601D01*
X346048654Y-157346437D01*
X346071773Y-157361251D01*
X346093023Y-157378665D01*
X346128457Y-157397572D01*
X346133797Y-157400994D01*
X346158141Y-157413411D01*
X346212069Y-157442187D01*
X346218179Y-157444036D01*
X346735866Y-157708098D01*
X346741420Y-157712302D01*
X346795837Y-157738689D01*
X346819718Y-157750870D01*
X346826184Y-157753404D01*
X346862833Y-157771175D01*
X346888841Y-157777959D01*
X346913869Y-157787767D01*
X346953969Y-157794946D01*
X346960682Y-157796697D01*
X346987136Y-157800884D01*
X347046691Y-157811546D01*
X347053657Y-157811412D01*
X347642320Y-157904581D01*
X347661723Y-157910467D01*
X347708811Y-157915105D01*
X347722156Y-157917217D01*
X347742285Y-157918402D01*
X347762359Y-157920379D01*
X347775875Y-157920379D01*
X347823104Y-157923159D01*
X347843186Y-157920379D01*
X350748826Y-157920379D01*
X350768908Y-157923159D01*
X350816137Y-157920379D01*
X350829653Y-157920379D01*
X350849728Y-157918402D01*
X350869855Y-157917217D01*
X350883198Y-157915105D01*
X350930289Y-157910467D01*
X350949693Y-157904581D01*
X351538342Y-157811414D01*
X351545306Y-157811548D01*
X351604890Y-157800882D01*
X351631329Y-157796697D01*
X351638032Y-157794949D01*
X351678127Y-157787771D01*
X351703159Y-157777962D01*
X351729178Y-157771175D01*
X351765833Y-157753401D01*
X351772279Y-157750875D01*
X351796115Y-157738717D01*
X351850591Y-157712302D01*
X351856145Y-157708099D01*
X352374179Y-157443873D01*
X352380636Y-157441912D01*
X352434184Y-157413267D01*
X352458233Y-157401001D01*
X352463889Y-157397377D01*
X352499615Y-157378266D01*
X352520556Y-157361069D01*
X352543378Y-157346446D01*
X352572576Y-157318349D01*
X352577763Y-157314089D01*
X352596844Y-157294995D01*
X352640605Y-157252884D01*
X352644460Y-157247348D01*
X353055341Y-156836196D01*
X353060565Y-156832562D01*
X353102943Y-156788563D01*
X353122310Y-156769183D01*
X353126332Y-156764279D01*
X353154170Y-156735376D01*
X353169003Y-156712249D01*
X353186436Y-156690993D01*
X353205348Y-156655583D01*
X353208764Y-156650257D01*
X353221204Y-156625895D01*
X353250004Y-156571971D01*
X353251850Y-156565879D01*
X353516616Y-156047368D01*
X353520889Y-156041724D01*
X353547240Y-155987396D01*
X353559375Y-155963631D01*
X353561951Y-155957065D01*
X353579775Y-155920318D01*
X353586533Y-155894420D01*
X353596313Y-155869496D01*
X353603531Y-155829283D01*
X353605308Y-155822471D01*
X353609475Y-155796164D01*
X353620150Y-155736685D01*
X353620017Y-155729603D01*
X353711095Y-155154571D01*
X353713318Y-155148159D01*
X353721640Y-155087990D01*
X353725851Y-155061404D01*
X353726248Y-155054677D01*
X353731805Y-155014498D01*
X353730211Y-154987477D01*
X353731805Y-154960456D01*
X353726248Y-154920277D01*
X353725851Y-154913550D01*
X353721640Y-154886964D01*
X353713318Y-154826795D01*
X353711095Y-154820383D01*
X353620017Y-154245351D01*
X353620150Y-154238269D01*
X353609475Y-154178790D01*
X353605308Y-154152483D01*
X353603531Y-154145671D01*
X353596313Y-154105458D01*
X353586533Y-154080534D01*
X353579775Y-154054636D01*
X353561951Y-154017889D01*
X353559375Y-154011323D01*
X353547240Y-153987558D01*
X353520889Y-153933230D01*
X353516616Y-153927586D01*
X353251851Y-153409076D01*
X353250004Y-153402982D01*
X353221198Y-153349047D01*
X353208764Y-153324697D01*
X353205349Y-153319373D01*
X353186436Y-153283961D01*
X353169003Y-153262705D01*
X353154170Y-153239578D01*
X353126332Y-153210675D01*
X353122310Y-153205771D01*
X353102944Y-153186392D01*
X353060565Y-153142392D01*
X353055341Y-153138758D01*
X352644459Y-152727606D01*
X352640605Y-152722071D01*
X352596845Y-152679961D01*
X352577763Y-152660866D01*
X352572576Y-152656606D01*
X352543378Y-152628509D01*
X352520556Y-152613886D01*
X352499615Y-152596689D01*
X352463887Y-152577577D01*
X352458233Y-152573954D01*
X352434195Y-152561693D01*
X352380635Y-152533042D01*
X352374176Y-152531080D01*
X351856145Y-152266856D01*
X351850591Y-152262653D01*
X351796124Y-152236242D01*
X351772279Y-152224080D01*
X351765829Y-152221552D01*
X351729179Y-152203781D01*
X351703163Y-152196995D01*
X351678127Y-152187184D01*
X351638035Y-152180007D01*
X351631330Y-152178258D01*
X351604880Y-152174072D01*
X351545306Y-152163407D01*
X351538344Y-152163541D01*
X350949693Y-152070373D01*
X350930289Y-152064487D01*
X350883201Y-152059849D01*
X350869856Y-152057737D01*
X350849727Y-152056552D01*
X350829653Y-152054575D01*
X350816138Y-152054575D01*
X350768909Y-152051795D01*
X350748826Y-152054575D01*
X347843186Y-152054575D01*
X347823103Y-152051795D01*
X347775874Y-152054575D01*
X347762359Y-152054575D01*
X347742286Y-152056552D01*
X347722155Y-152057737D01*
X347708809Y-152059849D01*
X347661723Y-152064487D01*
X347642321Y-152070373D01*
X347053655Y-152163543D01*
X347046691Y-152163409D01*
X346987145Y-152174069D01*
X346960681Y-152178258D01*
X346953967Y-152180009D01*
X346913869Y-152187188D01*
X346888837Y-152196998D01*
X346862832Y-152203781D01*
X346826188Y-152221549D01*
X346819718Y-152224085D01*
X346795828Y-152236271D01*
X346741420Y-152262653D01*
X346735865Y-152266857D01*
X346218179Y-152530919D01*
X346212069Y-152532768D01*
X346158151Y-152561539D01*
X346133797Y-152573961D01*
X346128454Y-152577385D01*
X346093024Y-152596290D01*
X346071776Y-152613702D01*
X346048654Y-152628518D01*
X346019729Y-152656353D01*
X346014809Y-152660385D01*
X345995418Y-152679749D01*
X345951428Y-152722081D01*
X345947784Y-152727314D01*
X345535643Y-153138867D01*
X345529771Y-153142963D01*
X345488009Y-153186433D01*
X345469174Y-153205241D01*
X345464641Y-153210757D01*
X345436290Y-153240267D01*
X345421913Y-153262746D01*
X345404967Y-153283365D01*
X345385645Y-153319453D01*
X345381805Y-153325456D01*
X345369754Y-153349131D01*
X345341275Y-153402320D01*
X345339190Y-153409176D01*
X345075123Y-153927950D01*
X345071107Y-153933256D01*
X345044565Y-153987983D01*
X345032278Y-154012122D01*
X345029867Y-154018290D01*
X345012226Y-154054664D01*
X345005361Y-154080978D01*
X344995460Y-154106304D01*
X344988369Y-154146104D01*
X344986697Y-154152512D01*
X344982462Y-154179257D01*
X344971792Y-154239145D01*
X344971925Y-154245801D01*
X344880943Y-154820392D01*
X344878732Y-154826767D01*
X344870414Y-154886886D01*
X344866187Y-154913581D01*
X344865791Y-154920296D01*
X344860239Y-154960426D01*
X344383647Y-154960426D01*
X344383647Y-154308677D01*
X344542630Y-154242824D01*
X344728526Y-154118612D01*
X344886618Y-153960520D01*
X345010830Y-153774624D01*
X345096389Y-153568067D01*
X345140006Y-153348788D01*
X345140006Y-153125212D01*
X345096389Y-152905933D01*
X345010830Y-152699376D01*
X344886618Y-152513480D01*
X344728526Y-152355388D01*
X344542630Y-152231176D01*
X344336073Y-152145617D01*
X344280383Y-152134540D01*
X344376332Y-152038152D01*
X344513784Y-151831422D01*
X344608264Y-151601849D01*
X344613857Y-151558540D01*
X344489477Y-151364000D01*
X342647575Y-151364000D01*
X342647575Y-152497000D01*
X343139874Y-152497000D01*
X343123394Y-152513480D01*
X342999182Y-152699376D01*
X342937235Y-152848928D01*
X342745575Y-152848928D01*
X342620439Y-152861319D01*
X342595511Y-152868909D01*
X342570057Y-152861188D01*
X342445575Y-152848928D01*
X341295575Y-152848928D01*
X341171093Y-152861188D01*
X341051395Y-152897498D01*
X340941081Y-152956463D01*
X340844390Y-153035815D01*
X340765038Y-153132506D01*
X340706073Y-153242820D01*
X340669763Y-153362518D01*
X340660950Y-153452000D01*
X75330156Y-153452000D01*
X75239998Y-153361842D01*
X75239998Y-153225212D01*
X75196381Y-153005933D01*
X75120193Y-152822000D01*
X335284868Y-152822000D01*
X335381480Y-152918612D01*
X335567376Y-153042824D01*
X335773933Y-153128383D01*
X335993212Y-153172000D01*
X336216788Y-153172000D01*
X336436067Y-153128383D01*
X336642624Y-153042824D01*
X336828520Y-152918612D01*
X336986612Y-152760520D01*
X337110824Y-152574624D01*
X337196383Y-152368067D01*
X337240000Y-152148788D01*
X337240000Y-151925212D01*
X337196383Y-151705933D01*
X337135331Y-151558540D01*
X340427293Y-151558540D01*
X340432886Y-151601849D01*
X340527366Y-151831422D01*
X340664818Y-152038152D01*
X340839960Y-152214094D01*
X341046061Y-152352487D01*
X341275201Y-152448013D01*
X341518575Y-152497000D01*
X342393575Y-152497000D01*
X342393575Y-151364000D01*
X340551673Y-151364000D01*
X340427293Y-151558540D01*
X337135331Y-151558540D01*
X337110824Y-151499376D01*
X336986612Y-151313480D01*
X336828520Y-151155388D01*
X336642624Y-151031176D01*
X336436067Y-150945617D01*
X336216788Y-150902000D01*
X335993212Y-150902000D01*
X335773933Y-150945617D01*
X335567376Y-151031176D01*
X335381480Y-151155388D01*
X335284868Y-151252000D01*
X73841620Y-151252000D01*
X73803064Y-151248203D01*
X73764508Y-151252000D01*
X73764503Y-151252000D01*
X73724090Y-151255980D01*
X73649177Y-151263358D01*
X73501204Y-151308246D01*
X73364831Y-151381138D01*
X73245300Y-151479236D01*
X73220717Y-151509190D01*
X72955090Y-151774817D01*
X72818459Y-151774817D01*
X72599180Y-151818434D01*
X72392623Y-151903993D01*
X72206727Y-152028205D01*
X72048635Y-152186297D01*
X71924423Y-152372193D01*
X71838864Y-152578750D01*
X71795247Y-152798029D01*
X64975174Y-152798029D01*
X64974180Y-152797498D01*
X64854482Y-152761188D01*
X64730000Y-152748928D01*
X63580000Y-152748928D01*
X63456173Y-152761059D01*
X63430065Y-152768949D01*
X63404482Y-152761188D01*
X63280000Y-152748928D01*
X63268471Y-152748928D01*
X63232787Y-152569530D01*
X63216551Y-152530334D01*
X63228001Y-152530334D01*
X63228001Y-151397334D01*
X63482001Y-151397334D01*
X63482001Y-152530334D01*
X64357001Y-152530334D01*
X64600375Y-152481347D01*
X64829515Y-152385821D01*
X65035616Y-152247428D01*
X65210758Y-152071486D01*
X65348210Y-151864756D01*
X65442690Y-151635183D01*
X65448283Y-151591874D01*
X65323903Y-151397334D01*
X63482001Y-151397334D01*
X63228001Y-151397334D01*
X61386099Y-151397334D01*
X61261719Y-151591874D01*
X61267312Y-151635183D01*
X61361792Y-151864756D01*
X61450048Y-151997494D01*
X61417884Y-152018985D01*
X61259792Y-152177077D01*
X61135580Y-152362973D01*
X61050021Y-152569530D01*
X61006404Y-152788809D01*
X59990972Y-152788809D01*
X59929571Y-152727408D01*
X59925686Y-152721835D01*
X59881920Y-152679757D01*
X59862881Y-152660718D01*
X59857661Y-152656434D01*
X59828417Y-152628318D01*
X59805628Y-152613731D01*
X59784712Y-152596565D01*
X59748939Y-152577444D01*
X59743248Y-152573801D01*
X59719232Y-152561565D01*
X59665712Y-152532958D01*
X59659215Y-152530987D01*
X59140635Y-152266776D01*
X59135231Y-152262686D01*
X59080586Y-152236182D01*
X59056585Y-152223954D01*
X59050314Y-152221500D01*
X59013825Y-152203802D01*
X58987626Y-152196966D01*
X58962417Y-152187100D01*
X58922501Y-152179973D01*
X58915978Y-152178271D01*
X58889353Y-152174054D01*
X58829585Y-152163383D01*
X58822809Y-152163516D01*
X58234719Y-152070383D01*
X58215284Y-152064487D01*
X58168222Y-152059852D01*
X58154913Y-152057744D01*
X58134761Y-152056556D01*
X58114648Y-152054575D01*
X58101158Y-152054575D01*
X58053967Y-152051793D01*
X58033856Y-152054575D01*
X55128146Y-152054575D01*
X55108035Y-152051793D01*
X55060843Y-152054575D01*
X55047354Y-152054575D01*
X55027244Y-152056556D01*
X55007087Y-152057744D01*
X54993775Y-152059852D01*
X54946718Y-152064487D01*
X54927285Y-152070382D01*
X54339192Y-152163516D01*
X54332417Y-152163383D01*
X54272646Y-152174055D01*
X54246024Y-152178271D01*
X54239502Y-152179973D01*
X54199584Y-152187100D01*
X54174371Y-152196967D01*
X54148177Y-152203802D01*
X54111701Y-152221493D01*
X54105416Y-152223953D01*
X54081367Y-152236205D01*
X54026770Y-152262686D01*
X54021369Y-152266774D01*
X53502788Y-152530986D01*
X53496289Y-152532958D01*
X53442751Y-152561575D01*
X53418754Y-152573801D01*
X53413068Y-152577441D01*
X53377289Y-152596565D01*
X53356369Y-152613734D01*
X53333585Y-152628318D01*
X53304347Y-152656428D01*
X53299120Y-152660718D01*
X53280058Y-152679780D01*
X53236316Y-152721835D01*
X53232433Y-152727406D01*
X52820930Y-153138915D01*
X52815366Y-153142793D01*
X52773302Y-153186544D01*
X52754238Y-153205608D01*
X52749955Y-153210827D01*
X52721847Y-153240062D01*
X52707255Y-153262858D01*
X52690087Y-153283778D01*
X52670969Y-153319546D01*
X52667330Y-153325231D01*
X52655095Y-153349245D01*
X52626481Y-153402779D01*
X52624512Y-153409271D01*
X52360302Y-153927840D01*
X52356212Y-153933243D01*
X52329729Y-153987846D01*
X52317481Y-154011885D01*
X52315021Y-154018170D01*
X52297328Y-154054650D01*
X52290494Y-154080841D01*
X52280627Y-154106053D01*
X52273499Y-154145973D01*
X52271797Y-154152497D01*
X52267580Y-154179127D01*
X52256910Y-154238885D01*
X52257043Y-154245660D01*
X52166026Y-154820390D01*
X52163809Y-154826782D01*
X52155490Y-154886915D01*
X52151270Y-154913565D01*
X52150874Y-154920289D01*
X52145319Y-154960442D01*
X49765993Y-154960442D01*
X49765993Y-141460442D01*
X52145319Y-141460442D01*
X52146913Y-141487477D01*
X52145319Y-141514512D01*
X52150874Y-141554665D01*
X52151270Y-141561389D01*
X52155490Y-141588039D01*
X52163809Y-141648172D01*
X52166026Y-141654564D01*
X52257043Y-142229294D01*
X52256910Y-142236069D01*
X52267580Y-142295827D01*
X52271797Y-142322457D01*
X52273499Y-142328981D01*
X52280627Y-142368901D01*
X52290494Y-142394113D01*
X52297328Y-142420304D01*
X52315021Y-142456784D01*
X52317481Y-142463069D01*
X52329729Y-142487108D01*
X52356212Y-142541711D01*
X52360302Y-142547114D01*
X52624512Y-143065683D01*
X52626481Y-143072175D01*
X52655095Y-143125709D01*
X52667330Y-143149723D01*
X52670969Y-143155408D01*
X52690087Y-143191176D01*
X52707255Y-143212096D01*
X52721847Y-143234892D01*
X52749955Y-143264127D01*
X52754238Y-143269346D01*
X52773302Y-143288410D01*
X52815366Y-143332161D01*
X52820930Y-143336039D01*
X53232433Y-143747548D01*
X53236316Y-143753119D01*
X53280058Y-143795174D01*
X53299120Y-143814236D01*
X53304347Y-143818526D01*
X53333585Y-143846636D01*
X53356369Y-143861220D01*
X53377289Y-143878389D01*
X53413068Y-143897513D01*
X53418754Y-143901153D01*
X53442751Y-143913379D01*
X53496289Y-143941996D01*
X53502788Y-143943968D01*
X54021369Y-144208180D01*
X54026770Y-144212268D01*
X54081367Y-144238749D01*
X54105416Y-144251001D01*
X54111701Y-144253461D01*
X54148177Y-144271152D01*
X54174371Y-144277987D01*
X54199584Y-144287854D01*
X54239502Y-144294981D01*
X54246024Y-144296683D01*
X54272646Y-144300899D01*
X54332417Y-144311571D01*
X54339192Y-144311438D01*
X54927285Y-144404572D01*
X54946718Y-144410467D01*
X54993775Y-144415102D01*
X55007087Y-144417210D01*
X55027244Y-144418398D01*
X55047354Y-144420379D01*
X55060843Y-144420379D01*
X55108035Y-144423161D01*
X55128146Y-144420379D01*
X58033856Y-144420379D01*
X58053967Y-144423161D01*
X58101158Y-144420379D01*
X58114648Y-144420379D01*
X58134761Y-144418398D01*
X58154913Y-144417210D01*
X58168222Y-144415102D01*
X58215284Y-144410467D01*
X58234719Y-144404571D01*
X58454115Y-144369827D01*
X58414694Y-144499779D01*
X58403335Y-144615105D01*
X58403335Y-144615112D01*
X58399538Y-144653665D01*
X58403335Y-144692218D01*
X58403336Y-145977000D01*
X58251442Y-145977000D01*
X58066332Y-145995232D01*
X57828821Y-146067280D01*
X57609930Y-146184280D01*
X57418070Y-146341735D01*
X57260615Y-146533595D01*
X57143615Y-146752486D01*
X57071567Y-146989997D01*
X57047239Y-147237000D01*
X57071567Y-147484003D01*
X57143615Y-147721514D01*
X57260615Y-147940405D01*
X57418070Y-148132265D01*
X57545690Y-148237000D01*
X57418070Y-148341735D01*
X57260615Y-148533595D01*
X57143615Y-148752486D01*
X57071567Y-148989997D01*
X57047239Y-149237000D01*
X57071567Y-149484003D01*
X57143615Y-149721514D01*
X57260615Y-149940405D01*
X57418070Y-150132265D01*
X57609930Y-150289720D01*
X57828821Y-150406720D01*
X58066332Y-150478768D01*
X58251442Y-150497000D01*
X60125228Y-150497000D01*
X60310338Y-150478768D01*
X60547849Y-150406720D01*
X60766740Y-150289720D01*
X60958600Y-150132265D01*
X61116055Y-149940405D01*
X61233055Y-149721514D01*
X61266612Y-149610891D01*
X61310281Y-149754848D01*
X61427281Y-149973739D01*
X61584736Y-150165599D01*
X61710620Y-150268909D01*
X61674386Y-150293240D01*
X61499244Y-150469182D01*
X61361792Y-150675912D01*
X61267312Y-150905485D01*
X61261719Y-150948794D01*
X61386099Y-151143334D01*
X63228001Y-151143334D01*
X63228001Y-151123334D01*
X63482001Y-151123334D01*
X63482001Y-151143334D01*
X65323903Y-151143334D01*
X65448283Y-150948794D01*
X65442690Y-150905485D01*
X65348210Y-150675912D01*
X65210758Y-150469182D01*
X65035616Y-150293240D01*
X64999382Y-150268909D01*
X65125266Y-150165599D01*
X65282721Y-149973739D01*
X65399721Y-149754848D01*
X65471769Y-149517337D01*
X65496097Y-149270334D01*
X65471769Y-149023331D01*
X65399721Y-148785820D01*
X65282721Y-148566929D01*
X65125266Y-148375069D01*
X64997646Y-148270334D01*
X65125266Y-148165599D01*
X65282721Y-147973739D01*
X65399721Y-147754848D01*
X65471769Y-147517337D01*
X65496097Y-147270334D01*
X65471769Y-147023331D01*
X65399721Y-146785820D01*
X65282721Y-146566929D01*
X65125266Y-146375069D01*
X64997646Y-146270334D01*
X65125266Y-146165599D01*
X65282721Y-145973739D01*
X65399721Y-145754848D01*
X65471769Y-145517337D01*
X65496097Y-145270334D01*
X65471769Y-145023331D01*
X65399721Y-144785820D01*
X65282721Y-144566929D01*
X65204682Y-144471838D01*
X66547652Y-145814808D01*
X66572235Y-145844762D01*
X66691766Y-145942860D01*
X66818003Y-146010334D01*
X66828139Y-146015752D01*
X66976112Y-146060640D01*
X67051025Y-146068018D01*
X67091438Y-146071998D01*
X67091443Y-146071998D01*
X67129999Y-146075795D01*
X67168555Y-146071998D01*
X72456566Y-146071998D01*
X72380377Y-146255933D01*
X72336760Y-146475212D01*
X72336760Y-146698788D01*
X72380377Y-146918067D01*
X72465936Y-147124624D01*
X72590148Y-147310520D01*
X72748240Y-147468612D01*
X72820919Y-147517175D01*
X72699176Y-147699376D01*
X72613617Y-147905933D01*
X72570000Y-148125212D01*
X72570000Y-148348788D01*
X72613617Y-148568067D01*
X72699176Y-148774624D01*
X72823388Y-148960520D01*
X72981480Y-149118612D01*
X73167376Y-149242824D01*
X73373933Y-149328383D01*
X73593212Y-149372000D01*
X73816788Y-149372000D01*
X74036067Y-149328383D01*
X74242624Y-149242824D01*
X74428520Y-149118612D01*
X74586612Y-148960520D01*
X74710824Y-148774624D01*
X74796383Y-148568067D01*
X74840000Y-148348788D01*
X74840000Y-148125212D01*
X74796383Y-147905933D01*
X74710824Y-147699376D01*
X74586612Y-147513480D01*
X74428520Y-147355388D01*
X74355841Y-147306825D01*
X74477584Y-147124624D01*
X74563143Y-146918067D01*
X74572306Y-146872001D01*
X76284254Y-146872001D01*
X76159778Y-147029051D01*
X75965461Y-147407151D01*
X75848285Y-147815793D01*
X75812712Y-148239412D01*
X75860099Y-148661873D01*
X75988639Y-149067084D01*
X76193438Y-149439611D01*
X76466693Y-149765264D01*
X76797998Y-150031640D01*
X77174732Y-150228592D01*
X77582546Y-150348618D01*
X78005907Y-150387147D01*
X78428688Y-150342711D01*
X78834786Y-150217002D01*
X79208734Y-150014810D01*
X79536287Y-149743834D01*
X79804969Y-149414397D01*
X80004546Y-149039047D01*
X80127417Y-148632081D01*
X80168900Y-148209000D01*
X80168051Y-148148181D01*
X80114770Y-147726423D01*
X79980585Y-147323046D01*
X79770605Y-146953415D01*
X79700330Y-146872001D01*
X80994171Y-146872001D01*
X81015968Y-146924624D01*
X81140180Y-147110520D01*
X81298272Y-147268612D01*
X81484168Y-147392824D01*
X81690725Y-147478383D01*
X81910004Y-147522000D01*
X82133580Y-147522000D01*
X82352859Y-147478383D01*
X82559416Y-147392824D01*
X82745312Y-147268612D01*
X82903404Y-147110520D01*
X83027616Y-146924624D01*
X83113175Y-146718067D01*
X83156792Y-146498788D01*
X83156792Y-146275212D01*
X83116371Y-146071998D01*
X89123226Y-146071998D01*
X89047037Y-146255933D01*
X89003420Y-146475212D01*
X89003420Y-146698788D01*
X89047037Y-146918067D01*
X89132596Y-147124624D01*
X89256808Y-147310520D01*
X89414900Y-147468612D01*
X89487538Y-147517147D01*
X89365776Y-147699376D01*
X89280217Y-147905933D01*
X89236600Y-148125212D01*
X89236600Y-148348788D01*
X89280217Y-148568067D01*
X89365776Y-148774624D01*
X89489988Y-148960520D01*
X89648080Y-149118612D01*
X89833976Y-149242824D01*
X90040533Y-149328383D01*
X90259812Y-149372000D01*
X90483388Y-149372000D01*
X90702667Y-149328383D01*
X90909224Y-149242824D01*
X91095120Y-149118612D01*
X91253212Y-148960520D01*
X91377424Y-148774624D01*
X91462983Y-148568067D01*
X91506600Y-148348788D01*
X91506600Y-148125212D01*
X91462983Y-147905933D01*
X91377424Y-147699376D01*
X91253212Y-147513480D01*
X91095120Y-147355388D01*
X91022482Y-147306853D01*
X91144244Y-147124624D01*
X91229803Y-146918067D01*
X91238966Y-146872001D01*
X92950914Y-146872001D01*
X92826438Y-147029051D01*
X92632121Y-147407151D01*
X92514945Y-147815793D01*
X92479372Y-148239412D01*
X92526759Y-148661873D01*
X92655299Y-149067084D01*
X92860098Y-149439611D01*
X93133353Y-149765264D01*
X93464658Y-150031640D01*
X93841392Y-150228592D01*
X94249206Y-150348618D01*
X94672567Y-150387147D01*
X95095348Y-150342711D01*
X95501446Y-150217002D01*
X95875394Y-150014810D01*
X96202947Y-149743834D01*
X96471629Y-149414397D01*
X96671206Y-149039047D01*
X96794077Y-148632081D01*
X96835560Y-148209000D01*
X96834711Y-148148181D01*
X96781430Y-147726423D01*
X96647245Y-147323046D01*
X96437265Y-146953415D01*
X96366990Y-146872001D01*
X97660831Y-146872001D01*
X97682628Y-146924624D01*
X97806840Y-147110520D01*
X97964932Y-147268612D01*
X98150828Y-147392824D01*
X98357385Y-147478383D01*
X98576664Y-147522000D01*
X98800240Y-147522000D01*
X99019519Y-147478383D01*
X99226076Y-147392824D01*
X99411972Y-147268612D01*
X99570064Y-147110520D01*
X99694276Y-146924624D01*
X99779835Y-146718067D01*
X99823452Y-146498788D01*
X99823452Y-146275212D01*
X99783031Y-146071998D01*
X105789886Y-146071998D01*
X105713697Y-146255933D01*
X105670080Y-146475212D01*
X105670080Y-146698788D01*
X105713697Y-146918067D01*
X105799256Y-147124624D01*
X105923468Y-147310520D01*
X106081560Y-147468612D01*
X106154156Y-147517119D01*
X106032376Y-147699376D01*
X105946817Y-147905933D01*
X105903200Y-148125212D01*
X105903200Y-148348788D01*
X105946817Y-148568067D01*
X106032376Y-148774624D01*
X106156588Y-148960520D01*
X106314680Y-149118612D01*
X106500576Y-149242824D01*
X106707133Y-149328383D01*
X106926412Y-149372000D01*
X107149988Y-149372000D01*
X107369267Y-149328383D01*
X107575824Y-149242824D01*
X107761720Y-149118612D01*
X107919812Y-148960520D01*
X108044024Y-148774624D01*
X108129583Y-148568067D01*
X108173200Y-148348788D01*
X108173200Y-148125212D01*
X108129583Y-147905933D01*
X108044024Y-147699376D01*
X107919812Y-147513480D01*
X107761720Y-147355388D01*
X107689124Y-147306881D01*
X107810904Y-147124624D01*
X107896463Y-146918067D01*
X107905626Y-146872001D01*
X109617574Y-146872001D01*
X109493098Y-147029051D01*
X109298781Y-147407151D01*
X109181605Y-147815793D01*
X109146032Y-148239412D01*
X109193419Y-148661873D01*
X109321959Y-149067084D01*
X109526758Y-149439611D01*
X109800013Y-149765264D01*
X110131318Y-150031640D01*
X110508052Y-150228592D01*
X110915866Y-150348618D01*
X111339227Y-150387147D01*
X111762008Y-150342711D01*
X112168106Y-150217002D01*
X112542054Y-150014810D01*
X112869607Y-149743834D01*
X113138289Y-149414397D01*
X113337866Y-149039047D01*
X113460737Y-148632081D01*
X113502220Y-148209000D01*
X113501371Y-148148181D01*
X113448090Y-147726423D01*
X113313905Y-147323046D01*
X113103925Y-146953415D01*
X113033650Y-146872001D01*
X114327491Y-146872001D01*
X114349288Y-146924624D01*
X114473500Y-147110520D01*
X114631592Y-147268612D01*
X114817488Y-147392824D01*
X115024045Y-147478383D01*
X115243324Y-147522000D01*
X115466900Y-147522000D01*
X115686179Y-147478383D01*
X115892736Y-147392824D01*
X116078632Y-147268612D01*
X116236724Y-147110520D01*
X116360936Y-146924624D01*
X116446495Y-146718067D01*
X116490112Y-146498788D01*
X116490112Y-146275212D01*
X116449691Y-146071998D01*
X122456546Y-146071998D01*
X122380357Y-146255933D01*
X122336740Y-146475212D01*
X122336740Y-146698788D01*
X122380357Y-146918067D01*
X122465916Y-147124624D01*
X122590128Y-147310520D01*
X122748220Y-147468612D01*
X122820775Y-147517092D01*
X122698976Y-147699376D01*
X122613417Y-147905933D01*
X122569800Y-148125212D01*
X122569800Y-148348788D01*
X122613417Y-148568067D01*
X122698976Y-148774624D01*
X122823188Y-148960520D01*
X122981280Y-149118612D01*
X123167176Y-149242824D01*
X123373733Y-149328383D01*
X123593012Y-149372000D01*
X123816588Y-149372000D01*
X124035867Y-149328383D01*
X124242424Y-149242824D01*
X124428320Y-149118612D01*
X124586412Y-148960520D01*
X124710624Y-148774624D01*
X124796183Y-148568067D01*
X124839800Y-148348788D01*
X124839800Y-148125212D01*
X124796183Y-147905933D01*
X124710624Y-147699376D01*
X124586412Y-147513480D01*
X124428320Y-147355388D01*
X124355765Y-147306908D01*
X124477564Y-147124624D01*
X124563123Y-146918067D01*
X124572286Y-146872001D01*
X126284234Y-146872001D01*
X126159758Y-147029051D01*
X125965441Y-147407151D01*
X125848265Y-147815793D01*
X125812692Y-148239412D01*
X125860079Y-148661873D01*
X125988619Y-149067084D01*
X126193418Y-149439611D01*
X126466673Y-149765264D01*
X126797978Y-150031640D01*
X127174712Y-150228592D01*
X127582526Y-150348618D01*
X128005887Y-150387147D01*
X128428668Y-150342711D01*
X128834766Y-150217002D01*
X129208714Y-150014810D01*
X129536267Y-149743834D01*
X129804949Y-149414397D01*
X130004526Y-149039047D01*
X130127397Y-148632081D01*
X130168880Y-148209000D01*
X130168031Y-148148181D01*
X130114750Y-147726423D01*
X129980565Y-147323046D01*
X129770585Y-146953415D01*
X129700310Y-146872001D01*
X130994151Y-146872001D01*
X131015948Y-146924624D01*
X131140160Y-147110520D01*
X131298252Y-147268612D01*
X131484148Y-147392824D01*
X131690705Y-147478383D01*
X131909984Y-147522000D01*
X132133560Y-147522000D01*
X132352839Y-147478383D01*
X132559396Y-147392824D01*
X132745292Y-147268612D01*
X132903384Y-147110520D01*
X133027596Y-146924624D01*
X133113155Y-146718067D01*
X133156772Y-146498788D01*
X133156772Y-146275212D01*
X133116351Y-146071998D01*
X139123206Y-146071998D01*
X139047017Y-146255933D01*
X139003400Y-146475212D01*
X139003400Y-146698788D01*
X139047017Y-146918067D01*
X139132576Y-147124624D01*
X139256788Y-147310520D01*
X139414880Y-147468612D01*
X139487393Y-147517064D01*
X139365576Y-147699376D01*
X139280017Y-147905933D01*
X139236400Y-148125212D01*
X139236400Y-148348788D01*
X139280017Y-148568067D01*
X139365576Y-148774624D01*
X139489788Y-148960520D01*
X139647880Y-149118612D01*
X139833776Y-149242824D01*
X140040333Y-149328383D01*
X140259612Y-149372000D01*
X140483188Y-149372000D01*
X140702467Y-149328383D01*
X140909024Y-149242824D01*
X141094920Y-149118612D01*
X141253012Y-148960520D01*
X141377224Y-148774624D01*
X141462783Y-148568067D01*
X141506400Y-148348788D01*
X141506400Y-148125212D01*
X141462783Y-147905933D01*
X141377224Y-147699376D01*
X141253012Y-147513480D01*
X141094920Y-147355388D01*
X141022407Y-147306936D01*
X141144224Y-147124624D01*
X141229783Y-146918067D01*
X141238946Y-146872001D01*
X142950894Y-146872001D01*
X142826418Y-147029051D01*
X142632101Y-147407151D01*
X142514925Y-147815793D01*
X142479352Y-148239412D01*
X142526739Y-148661873D01*
X142655279Y-149067084D01*
X142860078Y-149439611D01*
X143133333Y-149765264D01*
X143464638Y-150031640D01*
X143841372Y-150228592D01*
X144249186Y-150348618D01*
X144672547Y-150387147D01*
X145095328Y-150342711D01*
X145501426Y-150217002D01*
X145875374Y-150014810D01*
X146202927Y-149743834D01*
X146471609Y-149414397D01*
X146671186Y-149039047D01*
X146794057Y-148632081D01*
X146835540Y-148209000D01*
X146834691Y-148148181D01*
X146781410Y-147726423D01*
X146647225Y-147323046D01*
X146437245Y-146953415D01*
X146366970Y-146872001D01*
X147660811Y-146872001D01*
X147682608Y-146924624D01*
X147806820Y-147110520D01*
X147964912Y-147268612D01*
X148150808Y-147392824D01*
X148357365Y-147478383D01*
X148576644Y-147522000D01*
X148800220Y-147522000D01*
X149019499Y-147478383D01*
X149226056Y-147392824D01*
X149411952Y-147268612D01*
X149570044Y-147110520D01*
X149694256Y-146924624D01*
X149779815Y-146718067D01*
X149823432Y-146498788D01*
X149823432Y-146275212D01*
X149783011Y-146071998D01*
X155789866Y-146071998D01*
X155713677Y-146255933D01*
X155670060Y-146475212D01*
X155670060Y-146698788D01*
X155713677Y-146918067D01*
X155799236Y-147124624D01*
X155923448Y-147310520D01*
X156081540Y-147468612D01*
X156154012Y-147517036D01*
X156032176Y-147699376D01*
X155946617Y-147905933D01*
X155903000Y-148125212D01*
X155903000Y-148348788D01*
X155946617Y-148568067D01*
X156032176Y-148774624D01*
X156156388Y-148960520D01*
X156314480Y-149118612D01*
X156500376Y-149242824D01*
X156706933Y-149328383D01*
X156926212Y-149372000D01*
X157149788Y-149372000D01*
X157369067Y-149328383D01*
X157575624Y-149242824D01*
X157761520Y-149118612D01*
X157919612Y-148960520D01*
X158043824Y-148774624D01*
X158129383Y-148568067D01*
X158173000Y-148348788D01*
X158173000Y-148125212D01*
X158129383Y-147905933D01*
X158043824Y-147699376D01*
X157919612Y-147513480D01*
X157761520Y-147355388D01*
X157689048Y-147306964D01*
X157810884Y-147124624D01*
X157896443Y-146918067D01*
X157905606Y-146872001D01*
X159617554Y-146872001D01*
X159493078Y-147029051D01*
X159298761Y-147407151D01*
X159181585Y-147815793D01*
X159146012Y-148239412D01*
X159193399Y-148661873D01*
X159321939Y-149067084D01*
X159526738Y-149439611D01*
X159799993Y-149765264D01*
X160131298Y-150031640D01*
X160508032Y-150228592D01*
X160915846Y-150348618D01*
X161339207Y-150387147D01*
X161761988Y-150342711D01*
X162168086Y-150217002D01*
X162542034Y-150014810D01*
X162869587Y-149743834D01*
X163138269Y-149414397D01*
X163337846Y-149039047D01*
X163460717Y-148632081D01*
X163502200Y-148209000D01*
X163501351Y-148148181D01*
X163448070Y-147726423D01*
X163313885Y-147323046D01*
X163103905Y-146953415D01*
X163033630Y-146872001D01*
X164327471Y-146872001D01*
X164349268Y-146924624D01*
X164473480Y-147110520D01*
X164631572Y-147268612D01*
X164817468Y-147392824D01*
X165024025Y-147478383D01*
X165243304Y-147522000D01*
X165466880Y-147522000D01*
X165686159Y-147478383D01*
X165892716Y-147392824D01*
X166078612Y-147268612D01*
X166236704Y-147110520D01*
X166360916Y-146924624D01*
X166446475Y-146718067D01*
X166490092Y-146498788D01*
X166490092Y-146275212D01*
X166449671Y-146071998D01*
X172456526Y-146071998D01*
X172380337Y-146255933D01*
X172336720Y-146475212D01*
X172336720Y-146698788D01*
X172380337Y-146918067D01*
X172465896Y-147124624D01*
X172590108Y-147310520D01*
X172748200Y-147468612D01*
X172820630Y-147517008D01*
X172698776Y-147699376D01*
X172613217Y-147905933D01*
X172569600Y-148125212D01*
X172569600Y-148348788D01*
X172613217Y-148568067D01*
X172698776Y-148774624D01*
X172822988Y-148960520D01*
X172981080Y-149118612D01*
X173166976Y-149242824D01*
X173373533Y-149328383D01*
X173592812Y-149372000D01*
X173816388Y-149372000D01*
X174035667Y-149328383D01*
X174242224Y-149242824D01*
X174428120Y-149118612D01*
X174586212Y-148960520D01*
X174710424Y-148774624D01*
X174795983Y-148568067D01*
X174839600Y-148348788D01*
X174839600Y-148125212D01*
X174795983Y-147905933D01*
X174710424Y-147699376D01*
X174586212Y-147513480D01*
X174428120Y-147355388D01*
X174355690Y-147306992D01*
X174477544Y-147124624D01*
X174563103Y-146918067D01*
X174572266Y-146872001D01*
X176284214Y-146872001D01*
X176159738Y-147029051D01*
X175965421Y-147407151D01*
X175848245Y-147815793D01*
X175812672Y-148239412D01*
X175860059Y-148661873D01*
X175988599Y-149067084D01*
X176193398Y-149439611D01*
X176466653Y-149765264D01*
X176797958Y-150031640D01*
X177174692Y-150228592D01*
X177582506Y-150348618D01*
X178005867Y-150387147D01*
X178428648Y-150342711D01*
X178834746Y-150217002D01*
X179208694Y-150014810D01*
X179536247Y-149743834D01*
X179804929Y-149414397D01*
X180004506Y-149039047D01*
X180127377Y-148632081D01*
X180168860Y-148209000D01*
X180168011Y-148148181D01*
X180114730Y-147726423D01*
X179980545Y-147323046D01*
X179770565Y-146953415D01*
X179700290Y-146872001D01*
X180994131Y-146872001D01*
X181015928Y-146924624D01*
X181140140Y-147110520D01*
X181298232Y-147268612D01*
X181484128Y-147392824D01*
X181690685Y-147478383D01*
X181909964Y-147522000D01*
X182133540Y-147522000D01*
X182352819Y-147478383D01*
X182559376Y-147392824D01*
X182745272Y-147268612D01*
X182903364Y-147110520D01*
X183027576Y-146924624D01*
X183113135Y-146718067D01*
X183156752Y-146498788D01*
X183156752Y-146275212D01*
X183116331Y-146071998D01*
X189123186Y-146071998D01*
X189046997Y-146255933D01*
X189003380Y-146475212D01*
X189003380Y-146698788D01*
X189046997Y-146918067D01*
X189132556Y-147124624D01*
X189256768Y-147310520D01*
X189414860Y-147468612D01*
X189487249Y-147516981D01*
X189365376Y-147699376D01*
X189279817Y-147905933D01*
X189236200Y-148125212D01*
X189236200Y-148348788D01*
X189279817Y-148568067D01*
X189365376Y-148774624D01*
X189489588Y-148960520D01*
X189647680Y-149118612D01*
X189833576Y-149242824D01*
X190040133Y-149328383D01*
X190259412Y-149372000D01*
X190482988Y-149372000D01*
X190702267Y-149328383D01*
X190908824Y-149242824D01*
X191094720Y-149118612D01*
X191252812Y-148960520D01*
X191377024Y-148774624D01*
X191462583Y-148568067D01*
X191506200Y-148348788D01*
X191506200Y-148125212D01*
X191462583Y-147905933D01*
X191377024Y-147699376D01*
X191252812Y-147513480D01*
X191094720Y-147355388D01*
X191022331Y-147307019D01*
X191144204Y-147124624D01*
X191229763Y-146918067D01*
X191238926Y-146872001D01*
X192950874Y-146872001D01*
X192826398Y-147029051D01*
X192632081Y-147407151D01*
X192514905Y-147815793D01*
X192479332Y-148239412D01*
X192526719Y-148661873D01*
X192655259Y-149067084D01*
X192860058Y-149439611D01*
X193133313Y-149765264D01*
X193464618Y-150031640D01*
X193841352Y-150228592D01*
X194249166Y-150348618D01*
X194672527Y-150387147D01*
X195095308Y-150342711D01*
X195501406Y-150217002D01*
X195875354Y-150014810D01*
X196202907Y-149743834D01*
X196471589Y-149414397D01*
X196671166Y-149039047D01*
X196794037Y-148632081D01*
X196835520Y-148209000D01*
X196834671Y-148148181D01*
X196781390Y-147726423D01*
X196647205Y-147323046D01*
X196437225Y-146953415D01*
X196366950Y-146872001D01*
X197660791Y-146872001D01*
X197682588Y-146924624D01*
X197806800Y-147110520D01*
X197964892Y-147268612D01*
X198150788Y-147392824D01*
X198357345Y-147478383D01*
X198576624Y-147522000D01*
X198800200Y-147522000D01*
X199019479Y-147478383D01*
X199226036Y-147392824D01*
X199411932Y-147268612D01*
X199570024Y-147110520D01*
X199694236Y-146924624D01*
X199779795Y-146718067D01*
X199823412Y-146498788D01*
X199823412Y-146275212D01*
X199782991Y-146071998D01*
X205790158Y-146071998D01*
X205713969Y-146255933D01*
X205670352Y-146475212D01*
X205670352Y-146698788D01*
X205713969Y-146918067D01*
X205799528Y-147124624D01*
X205923740Y-147310520D01*
X206081832Y-147468612D01*
X206153964Y-147516809D01*
X206031976Y-147699376D01*
X205946417Y-147905933D01*
X205902800Y-148125212D01*
X205902800Y-148348788D01*
X205946417Y-148568067D01*
X206031976Y-148774624D01*
X206156188Y-148960520D01*
X206314280Y-149118612D01*
X206500176Y-149242824D01*
X206706733Y-149328383D01*
X206926012Y-149372000D01*
X207149588Y-149372000D01*
X207368867Y-149328383D01*
X207575424Y-149242824D01*
X207761320Y-149118612D01*
X207919412Y-148960520D01*
X208043624Y-148774624D01*
X208129183Y-148568067D01*
X208172800Y-148348788D01*
X208172800Y-148125212D01*
X208129183Y-147905933D01*
X208043624Y-147699376D01*
X207919412Y-147513480D01*
X207761320Y-147355388D01*
X207689188Y-147307191D01*
X207811176Y-147124624D01*
X207896735Y-146918067D01*
X207905898Y-146872001D01*
X209617534Y-146872001D01*
X209493058Y-147029051D01*
X209298741Y-147407151D01*
X209181565Y-147815793D01*
X209145992Y-148239412D01*
X209193379Y-148661873D01*
X209321919Y-149067084D01*
X209526718Y-149439611D01*
X209799973Y-149765264D01*
X210131278Y-150031640D01*
X210508012Y-150228592D01*
X210915826Y-150348618D01*
X211339187Y-150387147D01*
X211761968Y-150342711D01*
X212168066Y-150217002D01*
X212542014Y-150014810D01*
X212869567Y-149743834D01*
X213138249Y-149414397D01*
X213337826Y-149039047D01*
X213460697Y-148632081D01*
X213502180Y-148209000D01*
X213501331Y-148148181D01*
X213448050Y-147726423D01*
X213313865Y-147323046D01*
X213103885Y-146953415D01*
X213033610Y-146872001D01*
X214327763Y-146872001D01*
X214349560Y-146924624D01*
X214473772Y-147110520D01*
X214631864Y-147268612D01*
X214817760Y-147392824D01*
X215024317Y-147478383D01*
X215243596Y-147522000D01*
X215467172Y-147522000D01*
X215686451Y-147478383D01*
X215893008Y-147392824D01*
X216078904Y-147268612D01*
X216236996Y-147110520D01*
X216361208Y-146924624D01*
X216446767Y-146718067D01*
X216490384Y-146498788D01*
X216490384Y-146275212D01*
X216449963Y-146071998D01*
X222456857Y-146071998D01*
X222380668Y-146255933D01*
X222337051Y-146475212D01*
X222337051Y-146698788D01*
X222380668Y-146918067D01*
X222466227Y-147124624D01*
X222590439Y-147310520D01*
X222748531Y-147468612D01*
X222820594Y-147516763D01*
X222698576Y-147699376D01*
X222613017Y-147905933D01*
X222569400Y-148125212D01*
X222569400Y-148348788D01*
X222613017Y-148568067D01*
X222698576Y-148774624D01*
X222822788Y-148960520D01*
X222980880Y-149118612D01*
X223166776Y-149242824D01*
X223373333Y-149328383D01*
X223592612Y-149372000D01*
X223816188Y-149372000D01*
X224035467Y-149328383D01*
X224242024Y-149242824D01*
X224427920Y-149118612D01*
X224586012Y-148960520D01*
X224710224Y-148774624D01*
X224795783Y-148568067D01*
X224839400Y-148348788D01*
X224839400Y-148125212D01*
X224795783Y-147905933D01*
X224710224Y-147699376D01*
X224586012Y-147513480D01*
X224427920Y-147355388D01*
X224355857Y-147307237D01*
X224477875Y-147124624D01*
X224563434Y-146918067D01*
X224572597Y-146872001D01*
X226284194Y-146872001D01*
X226159718Y-147029051D01*
X225965401Y-147407151D01*
X225848225Y-147815793D01*
X225812652Y-148239412D01*
X225860039Y-148661873D01*
X225988579Y-149067084D01*
X226193378Y-149439611D01*
X226466633Y-149765264D01*
X226797938Y-150031640D01*
X227174672Y-150228592D01*
X227582486Y-150348618D01*
X228005847Y-150387147D01*
X228428628Y-150342711D01*
X228834726Y-150217002D01*
X229208674Y-150014810D01*
X229536227Y-149743834D01*
X229804909Y-149414397D01*
X230004486Y-149039047D01*
X230127357Y-148632081D01*
X230168840Y-148209000D01*
X230167991Y-148148181D01*
X230114710Y-147726423D01*
X229980525Y-147323046D01*
X229770545Y-146953415D01*
X229700270Y-146872001D01*
X230994462Y-146872001D01*
X231016259Y-146924624D01*
X231140471Y-147110520D01*
X231298563Y-147268612D01*
X231484459Y-147392824D01*
X231691016Y-147478383D01*
X231910295Y-147522000D01*
X232133871Y-147522000D01*
X232353150Y-147478383D01*
X232559707Y-147392824D01*
X232745603Y-147268612D01*
X232903695Y-147110520D01*
X233027907Y-146924624D01*
X233113466Y-146718067D01*
X233157083Y-146498788D01*
X233157083Y-146275212D01*
X233116662Y-146071998D01*
X239123166Y-146071998D01*
X239046977Y-146255933D01*
X239003360Y-146475212D01*
X239003360Y-146698788D01*
X239046977Y-146918067D01*
X239132536Y-147124624D01*
X239256748Y-147310520D01*
X239414840Y-147468612D01*
X239487104Y-147516898D01*
X239365176Y-147699376D01*
X239279617Y-147905933D01*
X239236000Y-148125212D01*
X239236000Y-148348788D01*
X239279617Y-148568067D01*
X239365176Y-148774624D01*
X239489388Y-148960520D01*
X239647480Y-149118612D01*
X239833376Y-149242824D01*
X240039933Y-149328383D01*
X240259212Y-149372000D01*
X240482788Y-149372000D01*
X240702067Y-149328383D01*
X240908624Y-149242824D01*
X241094520Y-149118612D01*
X241252612Y-148960520D01*
X241376824Y-148774624D01*
X241462383Y-148568067D01*
X241506000Y-148348788D01*
X241506000Y-148125212D01*
X241462383Y-147905933D01*
X241376824Y-147699376D01*
X241252612Y-147513480D01*
X241094520Y-147355388D01*
X241022256Y-147307102D01*
X241144184Y-147124624D01*
X241229743Y-146918067D01*
X241238906Y-146872001D01*
X242950854Y-146872001D01*
X242826378Y-147029051D01*
X242632061Y-147407151D01*
X242514885Y-147815793D01*
X242479312Y-148239412D01*
X242526699Y-148661873D01*
X242655239Y-149067084D01*
X242860038Y-149439611D01*
X243133293Y-149765264D01*
X243464598Y-150031640D01*
X243841332Y-150228592D01*
X244249146Y-150348618D01*
X244672507Y-150387147D01*
X245095288Y-150342711D01*
X245501386Y-150217002D01*
X245875334Y-150014810D01*
X246202887Y-149743834D01*
X246471569Y-149414397D01*
X246671146Y-149039047D01*
X246794017Y-148632081D01*
X246835500Y-148209000D01*
X246834651Y-148148181D01*
X246781370Y-147726423D01*
X246647185Y-147323046D01*
X246437205Y-146953415D01*
X246366930Y-146872001D01*
X247660771Y-146872001D01*
X247682568Y-146924624D01*
X247806780Y-147110520D01*
X247964872Y-147268612D01*
X248150768Y-147392824D01*
X248357325Y-147478383D01*
X248576604Y-147522000D01*
X248800180Y-147522000D01*
X249019459Y-147478383D01*
X249226016Y-147392824D01*
X249411912Y-147268612D01*
X249570004Y-147110520D01*
X249694216Y-146924624D01*
X249779775Y-146718067D01*
X249823392Y-146498788D01*
X249823392Y-146275212D01*
X249782971Y-146071998D01*
X255769089Y-146071998D01*
X255713611Y-146205933D01*
X255669994Y-146425212D01*
X255669994Y-146648788D01*
X255713611Y-146868067D01*
X255799170Y-147074624D01*
X255923382Y-147260520D01*
X256081474Y-147418612D01*
X256183011Y-147486457D01*
X256155988Y-147513480D01*
X256031776Y-147699376D01*
X255946217Y-147905933D01*
X255902600Y-148125212D01*
X255902600Y-148348788D01*
X255946217Y-148568067D01*
X256031776Y-148774624D01*
X256155988Y-148960520D01*
X256314080Y-149118612D01*
X256499976Y-149242824D01*
X256706533Y-149328383D01*
X256925812Y-149372000D01*
X257149388Y-149372000D01*
X257368667Y-149328383D01*
X257575224Y-149242824D01*
X257761120Y-149118612D01*
X257919212Y-148960520D01*
X258043424Y-148774624D01*
X258128983Y-148568067D01*
X258172600Y-148348788D01*
X258172600Y-148125212D01*
X258128983Y-147905933D01*
X258043424Y-147699376D01*
X257919212Y-147513480D01*
X257761120Y-147355388D01*
X257659583Y-147287543D01*
X257686606Y-147260520D01*
X257810818Y-147074624D01*
X257896377Y-146868067D01*
X257935377Y-146672001D01*
X259785169Y-146672001D01*
X259757094Y-146695895D01*
X259493038Y-147029051D01*
X259298721Y-147407151D01*
X259181545Y-147815793D01*
X259145972Y-148239412D01*
X259193359Y-148661873D01*
X259321899Y-149067084D01*
X259526698Y-149439611D01*
X259799953Y-149765264D01*
X260131258Y-150031640D01*
X260507992Y-150228592D01*
X260915806Y-150348618D01*
X261339167Y-150387147D01*
X261761948Y-150342711D01*
X262168046Y-150217002D01*
X262541994Y-150014810D01*
X262869547Y-149743834D01*
X263138229Y-149414397D01*
X263337806Y-149039047D01*
X263460677Y-148632081D01*
X263502160Y-148209000D01*
X263501311Y-148148181D01*
X263448030Y-147726423D01*
X263313845Y-147323046D01*
X263103865Y-146953415D01*
X262860955Y-146672001D01*
X264254038Y-146672001D01*
X264263201Y-146718067D01*
X264348760Y-146924624D01*
X264472972Y-147110520D01*
X264631064Y-147268612D01*
X264816960Y-147392824D01*
X265023517Y-147478383D01*
X265242796Y-147522000D01*
X265466372Y-147522000D01*
X265685651Y-147478383D01*
X265892208Y-147392824D01*
X266078104Y-147268612D01*
X266236196Y-147110520D01*
X266360408Y-146924624D01*
X266445967Y-146718067D01*
X266489584Y-146498788D01*
X266489584Y-146275212D01*
X266449163Y-146071998D01*
X272456486Y-146071998D01*
X272380297Y-146255933D01*
X272336680Y-146475212D01*
X272336680Y-146698788D01*
X272380297Y-146918067D01*
X272465856Y-147124624D01*
X272590068Y-147310520D01*
X272748160Y-147468612D01*
X272820341Y-147516842D01*
X272698376Y-147699376D01*
X272612817Y-147905933D01*
X272569200Y-148125212D01*
X272569200Y-148348788D01*
X272612817Y-148568067D01*
X272698376Y-148774624D01*
X272822588Y-148960520D01*
X272980680Y-149118612D01*
X273166576Y-149242824D01*
X273373133Y-149328383D01*
X273592412Y-149372000D01*
X273815988Y-149372000D01*
X274035267Y-149328383D01*
X274241824Y-149242824D01*
X274427720Y-149118612D01*
X274585812Y-148960520D01*
X274710024Y-148774624D01*
X274795583Y-148568067D01*
X274839200Y-148348788D01*
X274839200Y-148125212D01*
X274795583Y-147905933D01*
X274710024Y-147699376D01*
X274585812Y-147513480D01*
X274427720Y-147355388D01*
X274355539Y-147307158D01*
X274477504Y-147124624D01*
X274563063Y-146918067D01*
X274572226Y-146872001D01*
X276284174Y-146872001D01*
X276159698Y-147029051D01*
X275965381Y-147407151D01*
X275848205Y-147815793D01*
X275812632Y-148239412D01*
X275860019Y-148661873D01*
X275988559Y-149067084D01*
X276193358Y-149439611D01*
X276466613Y-149765264D01*
X276797918Y-150031640D01*
X277174652Y-150228592D01*
X277582466Y-150348618D01*
X278005827Y-150387147D01*
X278428608Y-150342711D01*
X278834706Y-150217002D01*
X279208654Y-150014810D01*
X279536207Y-149743834D01*
X279804889Y-149414397D01*
X280004466Y-149039047D01*
X280127337Y-148632081D01*
X280168820Y-148209000D01*
X280167971Y-148148181D01*
X280114690Y-147726423D01*
X279980505Y-147323046D01*
X279770525Y-146953415D01*
X279700250Y-146872001D01*
X280994091Y-146872001D01*
X281015888Y-146924624D01*
X281140100Y-147110520D01*
X281298192Y-147268612D01*
X281484088Y-147392824D01*
X281690645Y-147478383D01*
X281909924Y-147522000D01*
X282133500Y-147522000D01*
X282352779Y-147478383D01*
X282559336Y-147392824D01*
X282745232Y-147268612D01*
X282903324Y-147110520D01*
X283027536Y-146924624D01*
X283113095Y-146718067D01*
X283156712Y-146498788D01*
X283156712Y-146275212D01*
X283116291Y-146071998D01*
X289123653Y-146071998D01*
X289047464Y-146255933D01*
X289003847Y-146475212D01*
X289003847Y-146698788D01*
X289047464Y-146918067D01*
X289133023Y-147124624D01*
X289257235Y-147310520D01*
X289415327Y-147468612D01*
X289487116Y-147516580D01*
X289364976Y-147699376D01*
X289279417Y-147905933D01*
X289235800Y-148125212D01*
X289235800Y-148348788D01*
X289279417Y-148568067D01*
X289364976Y-148774624D01*
X289489188Y-148960520D01*
X289647280Y-149118612D01*
X289833176Y-149242824D01*
X290039733Y-149328383D01*
X290259012Y-149372000D01*
X290482588Y-149372000D01*
X290701867Y-149328383D01*
X290908424Y-149242824D01*
X291094320Y-149118612D01*
X291252412Y-148960520D01*
X291376624Y-148774624D01*
X291462183Y-148568067D01*
X291505800Y-148348788D01*
X291505800Y-148125212D01*
X291462183Y-147905933D01*
X291376624Y-147699376D01*
X291252412Y-147513480D01*
X291094320Y-147355388D01*
X291022531Y-147307420D01*
X291144671Y-147124624D01*
X291230230Y-146918067D01*
X291239393Y-146872001D01*
X292950834Y-146872001D01*
X292826358Y-147029051D01*
X292632041Y-147407151D01*
X292514865Y-147815793D01*
X292479292Y-148239412D01*
X292526679Y-148661873D01*
X292655219Y-149067084D01*
X292860018Y-149439611D01*
X293133273Y-149765264D01*
X293464578Y-150031640D01*
X293841312Y-150228592D01*
X294249126Y-150348618D01*
X294672487Y-150387147D01*
X295095268Y-150342711D01*
X295501366Y-150217002D01*
X295875314Y-150014810D01*
X296202867Y-149743834D01*
X296471549Y-149414397D01*
X296671126Y-149039047D01*
X296793997Y-148632081D01*
X296835480Y-148209000D01*
X296834631Y-148148181D01*
X296781350Y-147726423D01*
X296647165Y-147323046D01*
X296437185Y-146953415D01*
X296366910Y-146872001D01*
X297661258Y-146872001D01*
X297683055Y-146924624D01*
X297807267Y-147110520D01*
X297965359Y-147268612D01*
X298151255Y-147392824D01*
X298357812Y-147478383D01*
X298577091Y-147522000D01*
X298800667Y-147522000D01*
X299019946Y-147478383D01*
X299226503Y-147392824D01*
X299412399Y-147268612D01*
X299570491Y-147110520D01*
X299694703Y-146924624D01*
X299780262Y-146718067D01*
X299823879Y-146498788D01*
X299823879Y-146275212D01*
X299783458Y-146071998D01*
X305789806Y-146071998D01*
X305713617Y-146255933D01*
X305670000Y-146475212D01*
X305670000Y-146698788D01*
X305713617Y-146918067D01*
X305799176Y-147124624D01*
X305923388Y-147310520D01*
X306081480Y-147468612D01*
X306153578Y-147516787D01*
X306031576Y-147699376D01*
X305946017Y-147905933D01*
X305902400Y-148125212D01*
X305902400Y-148348788D01*
X305946017Y-148568067D01*
X306031576Y-148774624D01*
X306155788Y-148960520D01*
X306313880Y-149118612D01*
X306499776Y-149242824D01*
X306706333Y-149328383D01*
X306925612Y-149372000D01*
X307149188Y-149372000D01*
X307368467Y-149328383D01*
X307575024Y-149242824D01*
X307760920Y-149118612D01*
X307919012Y-148960520D01*
X308043224Y-148774624D01*
X308128783Y-148568067D01*
X308172400Y-148348788D01*
X308172400Y-148125212D01*
X308128783Y-147905933D01*
X308043224Y-147699376D01*
X307919012Y-147513480D01*
X307760920Y-147355388D01*
X307688822Y-147307213D01*
X307810824Y-147124624D01*
X307896383Y-146918067D01*
X307905546Y-146872001D01*
X309617494Y-146872001D01*
X309493018Y-147029051D01*
X309298701Y-147407151D01*
X309181525Y-147815793D01*
X309145952Y-148239412D01*
X309193339Y-148661873D01*
X309321879Y-149067084D01*
X309526678Y-149439611D01*
X309799933Y-149765264D01*
X310131238Y-150031640D01*
X310507972Y-150228592D01*
X310915786Y-150348618D01*
X311339147Y-150387147D01*
X311761928Y-150342711D01*
X312168026Y-150217002D01*
X312541974Y-150014810D01*
X312869527Y-149743834D01*
X313138209Y-149414397D01*
X313337786Y-149039047D01*
X313460657Y-148632081D01*
X313502140Y-148209000D01*
X313501291Y-148148181D01*
X313448010Y-147726423D01*
X313313825Y-147323046D01*
X313103845Y-146953415D01*
X313033570Y-146872001D01*
X314327411Y-146872001D01*
X314349208Y-146924624D01*
X314473420Y-147110520D01*
X314631512Y-147268612D01*
X314817408Y-147392824D01*
X315023965Y-147478383D01*
X315243244Y-147522000D01*
X315466820Y-147522000D01*
X315686099Y-147478383D01*
X315892656Y-147392824D01*
X316078552Y-147268612D01*
X316236644Y-147110520D01*
X316360856Y-146924624D01*
X316446415Y-146718067D01*
X316490032Y-146498788D01*
X316490032Y-146275212D01*
X316459556Y-146122000D01*
X322435754Y-146122000D01*
X322380277Y-146255933D01*
X322336660Y-146475212D01*
X322336660Y-146698788D01*
X322380277Y-146918067D01*
X322465836Y-147124624D01*
X322590048Y-147310520D01*
X322748140Y-147468612D01*
X322820197Y-147516759D01*
X322698176Y-147699376D01*
X322612617Y-147905933D01*
X322569000Y-148125212D01*
X322569000Y-148348788D01*
X322612617Y-148568067D01*
X322698176Y-148774624D01*
X322822388Y-148960520D01*
X322980480Y-149118612D01*
X323166376Y-149242824D01*
X323372933Y-149328383D01*
X323592212Y-149372000D01*
X323815788Y-149372000D01*
X324035067Y-149328383D01*
X324241624Y-149242824D01*
X324427520Y-149118612D01*
X324585612Y-148960520D01*
X324709824Y-148774624D01*
X324795383Y-148568067D01*
X324839000Y-148348788D01*
X324839000Y-148125212D01*
X324795383Y-147905933D01*
X324709824Y-147699376D01*
X324585612Y-147513480D01*
X324427520Y-147355388D01*
X324355463Y-147307241D01*
X324477484Y-147124624D01*
X324563043Y-146918067D01*
X324572206Y-146872001D01*
X326284154Y-146872001D01*
X326159678Y-147029051D01*
X325965361Y-147407151D01*
X325848185Y-147815793D01*
X325812612Y-148239412D01*
X325859999Y-148661873D01*
X325988539Y-149067084D01*
X326193338Y-149439611D01*
X326466593Y-149765264D01*
X326797898Y-150031640D01*
X327174632Y-150228592D01*
X327582446Y-150348618D01*
X328005807Y-150387147D01*
X328428588Y-150342711D01*
X328834686Y-150217002D01*
X329208634Y-150014810D01*
X329536187Y-149743834D01*
X329804869Y-149414397D01*
X330004446Y-149039047D01*
X330127317Y-148632081D01*
X330168800Y-148209000D01*
X330167951Y-148148181D01*
X330114670Y-147726423D01*
X329980485Y-147323046D01*
X329770505Y-146953415D01*
X329700230Y-146872001D01*
X330994071Y-146872001D01*
X331015868Y-146924624D01*
X331140080Y-147110520D01*
X331298172Y-147268612D01*
X331484068Y-147392824D01*
X331690625Y-147478383D01*
X331909904Y-147522000D01*
X332133480Y-147522000D01*
X332352759Y-147478383D01*
X332559316Y-147392824D01*
X332745212Y-147268612D01*
X332903304Y-147110520D01*
X333027516Y-146924624D01*
X333113075Y-146718067D01*
X333156692Y-146498788D01*
X333156692Y-146275212D01*
X333126216Y-146122000D01*
X336289805Y-146122000D01*
X336213617Y-146305933D01*
X336170000Y-146525212D01*
X336170000Y-146748788D01*
X336213617Y-146968067D01*
X336299176Y-147174624D01*
X336423388Y-147360520D01*
X336581480Y-147518612D01*
X336767376Y-147642824D01*
X336973933Y-147728383D01*
X337193212Y-147772000D01*
X337416788Y-147772000D01*
X337636067Y-147728383D01*
X337842624Y-147642824D01*
X338028520Y-147518612D01*
X338125132Y-147422000D01*
X340397700Y-147422000D01*
X340403807Y-147484003D01*
X340475855Y-147721514D01*
X340592855Y-147940405D01*
X340750310Y-148132265D01*
X340877930Y-148237000D01*
X340750310Y-148341735D01*
X340592855Y-148533595D01*
X340475855Y-148752486D01*
X340403807Y-148989997D01*
X340379479Y-149237000D01*
X340403807Y-149484003D01*
X340475855Y-149721514D01*
X340592855Y-149940405D01*
X340750310Y-150132265D01*
X340876194Y-150235575D01*
X340839960Y-150259906D01*
X340664818Y-150435848D01*
X340527366Y-150642578D01*
X340432886Y-150872151D01*
X340427293Y-150915460D01*
X340551673Y-151110000D01*
X342393575Y-151110000D01*
X342393575Y-151090000D01*
X342647575Y-151090000D01*
X342647575Y-151110000D01*
X344489477Y-151110000D01*
X344598950Y-150938775D01*
X344684027Y-151144168D01*
X344808239Y-151330064D01*
X344966331Y-151488156D01*
X345152227Y-151612368D01*
X345358784Y-151697927D01*
X345578063Y-151741544D01*
X345801639Y-151741544D01*
X346020918Y-151697927D01*
X346227475Y-151612368D01*
X346413371Y-151488156D01*
X346509983Y-151391544D01*
X348696903Y-151391544D01*
X348735456Y-151395341D01*
X348774009Y-151391544D01*
X348774017Y-151391544D01*
X348889343Y-151380185D01*
X349037316Y-151335298D01*
X349173689Y-151262406D01*
X349293220Y-151164308D01*
X349317803Y-151134354D01*
X349732811Y-150719346D01*
X349762764Y-150694764D01*
X349860862Y-150575233D01*
X349933754Y-150438860D01*
X349968883Y-150323054D01*
X349978641Y-150290888D01*
X349981692Y-150259906D01*
X349990000Y-150175561D01*
X349990000Y-150175554D01*
X349993797Y-150137001D01*
X349990000Y-150098448D01*
X349990000Y-147075552D01*
X349993797Y-147036999D01*
X349990000Y-146998446D01*
X349990000Y-146998439D01*
X349978641Y-146883113D01*
X349933754Y-146735140D01*
X349860862Y-146598767D01*
X349800514Y-146525234D01*
X349787345Y-146509187D01*
X349787342Y-146509184D01*
X349762764Y-146479236D01*
X349732815Y-146454657D01*
X348737347Y-145459190D01*
X348712764Y-145429236D01*
X348593233Y-145331138D01*
X348456860Y-145258246D01*
X348308887Y-145213359D01*
X348193561Y-145202000D01*
X348193553Y-145202000D01*
X348155000Y-145198203D01*
X348116447Y-145202000D01*
X345980158Y-145202000D01*
X345755596Y-144977439D01*
X345755596Y-144623157D01*
X345759393Y-144584604D01*
X345755596Y-144546051D01*
X345755596Y-144546044D01*
X345744237Y-144430718D01*
X345740140Y-144417210D01*
X345699350Y-144282745D01*
X345684340Y-144254663D01*
X345626458Y-144146372D01*
X345561548Y-144067280D01*
X345552941Y-144056792D01*
X345552938Y-144056789D01*
X345528360Y-144026841D01*
X345498411Y-144002262D01*
X344630315Y-143134167D01*
X344605734Y-143104215D01*
X344486203Y-143006117D01*
X344482061Y-143003903D01*
X344384695Y-142906537D01*
X344384695Y-141487000D01*
X344382078Y-141460426D01*
X344860239Y-141460426D01*
X344861833Y-141487477D01*
X344860239Y-141514528D01*
X344865791Y-141554658D01*
X344866187Y-141561373D01*
X344870414Y-141588068D01*
X344878732Y-141648187D01*
X344880943Y-141654562D01*
X344971925Y-142229153D01*
X344971792Y-142235809D01*
X344982462Y-142295697D01*
X344986697Y-142322442D01*
X344988369Y-142328850D01*
X344995460Y-142368650D01*
X345005361Y-142393976D01*
X345012226Y-142420290D01*
X345029867Y-142456664D01*
X345032278Y-142462832D01*
X345044565Y-142486971D01*
X345071107Y-142541698D01*
X345075123Y-142547004D01*
X345339190Y-143065778D01*
X345341275Y-143072634D01*
X345369754Y-143125823D01*
X345381805Y-143149498D01*
X345385645Y-143155501D01*
X345404967Y-143191589D01*
X345421913Y-143212208D01*
X345436290Y-143234687D01*
X345464641Y-143264197D01*
X345469174Y-143269713D01*
X345488009Y-143288521D01*
X345529771Y-143331991D01*
X345535643Y-143336087D01*
X345947784Y-143747640D01*
X345951428Y-143752873D01*
X345995418Y-143795205D01*
X346014809Y-143814569D01*
X346019729Y-143818601D01*
X346048654Y-143846436D01*
X346071776Y-143861252D01*
X346093024Y-143878664D01*
X346128454Y-143897569D01*
X346133797Y-143900993D01*
X346158151Y-143913415D01*
X346212069Y-143942186D01*
X346218179Y-143944035D01*
X346735865Y-144208097D01*
X346741420Y-144212301D01*
X346795828Y-144238683D01*
X346819718Y-144250869D01*
X346826188Y-144253405D01*
X346862832Y-144271173D01*
X346888837Y-144277956D01*
X346913869Y-144287766D01*
X346953967Y-144294945D01*
X346960681Y-144296696D01*
X346987145Y-144300885D01*
X347046691Y-144311545D01*
X347053655Y-144311411D01*
X347642321Y-144404581D01*
X347661723Y-144410467D01*
X347708809Y-144415105D01*
X347722155Y-144417217D01*
X347742286Y-144418402D01*
X347762359Y-144420379D01*
X347775874Y-144420379D01*
X347823103Y-144423159D01*
X347843186Y-144420379D01*
X350748826Y-144420379D01*
X350768909Y-144423159D01*
X350816138Y-144420379D01*
X350829653Y-144420379D01*
X350849727Y-144418402D01*
X350869856Y-144417217D01*
X350883201Y-144415105D01*
X350930289Y-144410467D01*
X350949693Y-144404581D01*
X351538344Y-144311413D01*
X351545306Y-144311547D01*
X351604880Y-144300882D01*
X351631330Y-144296696D01*
X351638035Y-144294947D01*
X351678127Y-144287770D01*
X351703163Y-144277959D01*
X351729179Y-144271173D01*
X351765829Y-144253402D01*
X351772279Y-144250874D01*
X351796124Y-144238712D01*
X351850591Y-144212301D01*
X351856145Y-144208098D01*
X352374176Y-143943874D01*
X352380635Y-143941912D01*
X352434195Y-143913261D01*
X352458233Y-143901000D01*
X352463887Y-143897377D01*
X352499615Y-143878265D01*
X352520556Y-143861068D01*
X352543378Y-143846445D01*
X352572576Y-143818348D01*
X352577763Y-143814088D01*
X352596845Y-143794993D01*
X352640605Y-143752883D01*
X352644459Y-143747348D01*
X353055341Y-143336196D01*
X353060565Y-143332562D01*
X353102944Y-143288562D01*
X353122310Y-143269183D01*
X353126332Y-143264279D01*
X353154170Y-143235376D01*
X353169003Y-143212249D01*
X353186436Y-143190993D01*
X353205349Y-143155581D01*
X353208764Y-143150257D01*
X353221198Y-143125907D01*
X353250004Y-143071972D01*
X353251851Y-143065878D01*
X353516616Y-142547368D01*
X353520889Y-142541724D01*
X353547240Y-142487396D01*
X353559375Y-142463631D01*
X353561951Y-142457065D01*
X353579775Y-142420318D01*
X353586533Y-142394420D01*
X353596313Y-142369496D01*
X353603531Y-142329283D01*
X353605308Y-142322471D01*
X353609475Y-142296164D01*
X353620150Y-142236685D01*
X353620017Y-142229603D01*
X353711095Y-141654571D01*
X353713318Y-141648159D01*
X353721640Y-141587990D01*
X353725851Y-141561404D01*
X353726248Y-141554677D01*
X353731805Y-141514498D01*
X353730211Y-141487477D01*
X353731805Y-141460456D01*
X353726248Y-141420277D01*
X353725851Y-141413550D01*
X353721640Y-141386964D01*
X353713318Y-141326795D01*
X353711095Y-141320383D01*
X353620017Y-140745351D01*
X353620150Y-140738269D01*
X353609475Y-140678790D01*
X353605308Y-140652483D01*
X353603531Y-140645671D01*
X353596313Y-140605458D01*
X353586533Y-140580534D01*
X353579775Y-140554636D01*
X353561951Y-140517889D01*
X353559375Y-140511323D01*
X353547240Y-140487558D01*
X353520889Y-140433230D01*
X353516616Y-140427586D01*
X353251850Y-139909075D01*
X353250004Y-139902983D01*
X353221204Y-139849059D01*
X353208764Y-139824697D01*
X353205348Y-139819371D01*
X353186436Y-139783961D01*
X353169003Y-139762705D01*
X353154170Y-139739578D01*
X353126332Y-139710675D01*
X353122310Y-139705771D01*
X353102943Y-139686391D01*
X353060565Y-139642392D01*
X353055341Y-139638758D01*
X352644460Y-139227606D01*
X352640605Y-139222070D01*
X352596844Y-139179959D01*
X352577763Y-139160865D01*
X352572576Y-139156605D01*
X352543378Y-139128508D01*
X352520556Y-139113885D01*
X352499615Y-139096688D01*
X352463889Y-139077577D01*
X352458233Y-139073953D01*
X352434184Y-139061687D01*
X352380636Y-139033042D01*
X352374179Y-139031081D01*
X351856145Y-138766855D01*
X351850591Y-138762652D01*
X351796115Y-138736237D01*
X351772279Y-138724079D01*
X351765833Y-138721553D01*
X351729178Y-138703779D01*
X351703159Y-138696992D01*
X351678127Y-138687183D01*
X351638032Y-138680005D01*
X351631329Y-138678257D01*
X351604890Y-138674072D01*
X351545306Y-138663406D01*
X351538342Y-138663540D01*
X350949693Y-138570373D01*
X350930289Y-138564487D01*
X350883198Y-138559849D01*
X350869855Y-138557737D01*
X350849728Y-138556552D01*
X350829653Y-138554575D01*
X350816137Y-138554575D01*
X350768908Y-138551795D01*
X350748826Y-138554575D01*
X347843186Y-138554575D01*
X347823104Y-138551795D01*
X347775875Y-138554575D01*
X347762359Y-138554575D01*
X347742285Y-138556552D01*
X347722156Y-138557737D01*
X347708811Y-138559849D01*
X347661723Y-138564487D01*
X347642320Y-138570373D01*
X347053657Y-138663542D01*
X347046691Y-138663408D01*
X346987136Y-138674070D01*
X346960682Y-138678257D01*
X346953969Y-138680008D01*
X346913869Y-138687187D01*
X346888841Y-138696995D01*
X346862833Y-138703779D01*
X346826184Y-138721550D01*
X346819718Y-138724084D01*
X346795837Y-138736265D01*
X346741420Y-138762652D01*
X346735866Y-138766856D01*
X346218179Y-139030918D01*
X346212069Y-139032767D01*
X346158141Y-139061543D01*
X346133797Y-139073960D01*
X346128457Y-139077382D01*
X346093023Y-139096289D01*
X346071773Y-139113703D01*
X346048654Y-139128517D01*
X346019729Y-139156353D01*
X346014808Y-139160385D01*
X345995420Y-139179746D01*
X345951428Y-139222080D01*
X345947783Y-139227314D01*
X345535645Y-139638865D01*
X345529771Y-139642963D01*
X345487987Y-139686456D01*
X345469174Y-139705242D01*
X345464646Y-139710751D01*
X345436290Y-139740267D01*
X345421912Y-139762747D01*
X345404967Y-139783365D01*
X345385645Y-139819453D01*
X345381805Y-139825456D01*
X345369754Y-139849131D01*
X345341275Y-139902320D01*
X345339190Y-139909176D01*
X345075123Y-140427950D01*
X345071107Y-140433256D01*
X345044565Y-140487983D01*
X345032278Y-140512122D01*
X345029867Y-140518290D01*
X345012226Y-140554664D01*
X345005361Y-140580978D01*
X344995460Y-140606304D01*
X344988369Y-140646104D01*
X344986697Y-140652512D01*
X344982462Y-140679257D01*
X344971792Y-140739145D01*
X344971925Y-140745801D01*
X344880943Y-141320392D01*
X344878732Y-141326767D01*
X344870414Y-141386886D01*
X344866187Y-141413581D01*
X344865791Y-141420296D01*
X344860239Y-141460426D01*
X344382078Y-141460426D01*
X344372435Y-141362518D01*
X344336125Y-141242820D01*
X344277160Y-141132506D01*
X344197808Y-141035815D01*
X344101117Y-140956463D01*
X343990803Y-140897498D01*
X343871105Y-140861188D01*
X343746623Y-140848928D01*
X342746623Y-140848928D01*
X342621487Y-140861319D01*
X342596559Y-140868909D01*
X342571105Y-140861188D01*
X342446623Y-140848928D01*
X341296623Y-140848928D01*
X341172141Y-140861188D01*
X341052443Y-140897498D01*
X340942129Y-140956463D01*
X340845438Y-141035815D01*
X340766086Y-141132506D01*
X340707121Y-141242820D01*
X340670811Y-141362518D01*
X340658551Y-141487000D01*
X340658551Y-142264915D01*
X340046487Y-142876979D01*
X339940743Y-142876979D01*
X339902187Y-142873182D01*
X339863631Y-142876979D01*
X339863627Y-142876979D01*
X339835768Y-142879723D01*
X339748300Y-142888337D01*
X339600327Y-142933225D01*
X339557531Y-142956100D01*
X339463955Y-143006117D01*
X339407726Y-143052264D01*
X339374375Y-143079634D01*
X339374372Y-143079637D01*
X339344424Y-143104215D01*
X339319845Y-143134165D01*
X338888415Y-143565596D01*
X332962475Y-143565596D01*
X333005600Y-143348788D01*
X333005600Y-143125212D01*
X332961983Y-142905933D01*
X332876424Y-142699376D01*
X332752212Y-142513480D01*
X332594120Y-142355388D01*
X332408224Y-142231176D01*
X332201667Y-142145617D01*
X331982388Y-142102000D01*
X331758812Y-142102000D01*
X331539533Y-142145617D01*
X331332976Y-142231176D01*
X331147080Y-142355388D01*
X330988988Y-142513480D01*
X330864776Y-142699376D01*
X330779217Y-142905933D01*
X330735600Y-143125212D01*
X330735600Y-143348788D01*
X330778725Y-143565596D01*
X316295875Y-143565596D01*
X316339000Y-143348788D01*
X316339000Y-143125212D01*
X316295383Y-142905933D01*
X316209824Y-142699376D01*
X316085612Y-142513480D01*
X315927520Y-142355388D01*
X315741624Y-142231176D01*
X315535067Y-142145617D01*
X315315788Y-142102000D01*
X315092212Y-142102000D01*
X314872933Y-142145617D01*
X314666376Y-142231176D01*
X314480480Y-142355388D01*
X314322388Y-142513480D01*
X314198176Y-142699376D01*
X314112617Y-142905933D01*
X314069000Y-143125212D01*
X314069000Y-143348788D01*
X314112125Y-143565596D01*
X299629275Y-143565596D01*
X299672400Y-143348788D01*
X299672400Y-143125212D01*
X299628783Y-142905933D01*
X299543224Y-142699376D01*
X299419012Y-142513480D01*
X299260920Y-142355388D01*
X299075024Y-142231176D01*
X298868467Y-142145617D01*
X298649188Y-142102000D01*
X298425612Y-142102000D01*
X298206333Y-142145617D01*
X297999776Y-142231176D01*
X297813880Y-142355388D01*
X297655788Y-142513480D01*
X297531576Y-142699376D01*
X297446017Y-142905933D01*
X297402400Y-143125212D01*
X297402400Y-143348788D01*
X297445525Y-143565596D01*
X282962675Y-143565596D01*
X283005800Y-143348788D01*
X283005800Y-143125212D01*
X282962183Y-142905933D01*
X282876624Y-142699376D01*
X282752412Y-142513480D01*
X282594320Y-142355388D01*
X282408424Y-142231176D01*
X282201867Y-142145617D01*
X281982588Y-142102000D01*
X281759012Y-142102000D01*
X281539733Y-142145617D01*
X281333176Y-142231176D01*
X281147280Y-142355388D01*
X280989188Y-142513480D01*
X280864976Y-142699376D01*
X280779417Y-142905933D01*
X280735800Y-143125212D01*
X280735800Y-143348788D01*
X280778925Y-143565596D01*
X266296075Y-143565596D01*
X266339200Y-143348788D01*
X266339200Y-143125212D01*
X266295583Y-142905933D01*
X266210024Y-142699376D01*
X266085812Y-142513480D01*
X265927720Y-142355388D01*
X265741824Y-142231176D01*
X265535267Y-142145617D01*
X265315988Y-142102000D01*
X265092412Y-142102000D01*
X264873133Y-142145617D01*
X264666576Y-142231176D01*
X264480680Y-142355388D01*
X264322588Y-142513480D01*
X264198376Y-142699376D01*
X264112817Y-142905933D01*
X264069200Y-143125212D01*
X264069200Y-143348788D01*
X264112325Y-143565596D01*
X249629475Y-143565596D01*
X249672600Y-143348788D01*
X249672600Y-143125212D01*
X249628983Y-142905933D01*
X249543424Y-142699376D01*
X249419212Y-142513480D01*
X249261120Y-142355388D01*
X249075224Y-142231176D01*
X248868667Y-142145617D01*
X248649388Y-142102000D01*
X248425812Y-142102000D01*
X248206533Y-142145617D01*
X247999976Y-142231176D01*
X247814080Y-142355388D01*
X247655988Y-142513480D01*
X247531776Y-142699376D01*
X247446217Y-142905933D01*
X247402600Y-143125212D01*
X247402600Y-143348788D01*
X247445725Y-143565596D01*
X232962875Y-143565596D01*
X233006000Y-143348788D01*
X233006000Y-143125212D01*
X232962383Y-142905933D01*
X232876824Y-142699376D01*
X232752612Y-142513480D01*
X232594520Y-142355388D01*
X232408624Y-142231176D01*
X232202067Y-142145617D01*
X231982788Y-142102000D01*
X231759212Y-142102000D01*
X231539933Y-142145617D01*
X231333376Y-142231176D01*
X231147480Y-142355388D01*
X230989388Y-142513480D01*
X230865176Y-142699376D01*
X230779617Y-142905933D01*
X230736000Y-143125212D01*
X230736000Y-143348788D01*
X230779125Y-143565596D01*
X216296275Y-143565596D01*
X216339400Y-143348788D01*
X216339400Y-143125212D01*
X216295783Y-142905933D01*
X216210224Y-142699376D01*
X216086012Y-142513480D01*
X215927920Y-142355388D01*
X215742024Y-142231176D01*
X215535467Y-142145617D01*
X215316188Y-142102000D01*
X215092612Y-142102000D01*
X214873333Y-142145617D01*
X214666776Y-142231176D01*
X214480880Y-142355388D01*
X214322788Y-142513480D01*
X214198576Y-142699376D01*
X214113017Y-142905933D01*
X214069400Y-143125212D01*
X214069400Y-143348788D01*
X214112525Y-143565596D01*
X199629675Y-143565596D01*
X199672800Y-143348788D01*
X199672800Y-143125212D01*
X199629183Y-142905933D01*
X199543624Y-142699376D01*
X199419412Y-142513480D01*
X199261320Y-142355388D01*
X199075424Y-142231176D01*
X198868867Y-142145617D01*
X198649588Y-142102000D01*
X198426012Y-142102000D01*
X198206733Y-142145617D01*
X198000176Y-142231176D01*
X197814280Y-142355388D01*
X197656188Y-142513480D01*
X197531976Y-142699376D01*
X197446417Y-142905933D01*
X197402800Y-143125212D01*
X197402800Y-143348788D01*
X197445925Y-143565596D01*
X182963075Y-143565596D01*
X183006200Y-143348788D01*
X183006200Y-143125212D01*
X182962583Y-142905933D01*
X182877024Y-142699376D01*
X182752812Y-142513480D01*
X182594720Y-142355388D01*
X182408824Y-142231176D01*
X182202267Y-142145617D01*
X181982988Y-142102000D01*
X181759412Y-142102000D01*
X181540133Y-142145617D01*
X181333576Y-142231176D01*
X181147680Y-142355388D01*
X180989588Y-142513480D01*
X180865376Y-142699376D01*
X180779817Y-142905933D01*
X180736200Y-143125212D01*
X180736200Y-143348788D01*
X180779325Y-143565596D01*
X166296475Y-143565596D01*
X166339600Y-143348788D01*
X166339600Y-143125212D01*
X166295983Y-142905933D01*
X166210424Y-142699376D01*
X166086212Y-142513480D01*
X165928120Y-142355388D01*
X165742224Y-142231176D01*
X165535667Y-142145617D01*
X165316388Y-142102000D01*
X165092812Y-142102000D01*
X164873533Y-142145617D01*
X164666976Y-142231176D01*
X164481080Y-142355388D01*
X164322988Y-142513480D01*
X164198776Y-142699376D01*
X164113217Y-142905933D01*
X164069600Y-143125212D01*
X164069600Y-143348788D01*
X164112725Y-143565596D01*
X149629875Y-143565596D01*
X149673000Y-143348788D01*
X149673000Y-143125212D01*
X149629383Y-142905933D01*
X149543824Y-142699376D01*
X149419612Y-142513480D01*
X149261520Y-142355388D01*
X149075624Y-142231176D01*
X148869067Y-142145617D01*
X148649788Y-142102000D01*
X148426212Y-142102000D01*
X148206933Y-142145617D01*
X148000376Y-142231176D01*
X147814480Y-142355388D01*
X147656388Y-142513480D01*
X147532176Y-142699376D01*
X147446617Y-142905933D01*
X147403000Y-143125212D01*
X147403000Y-143348788D01*
X147446125Y-143565596D01*
X132963275Y-143565596D01*
X133006400Y-143348788D01*
X133006400Y-143125212D01*
X132962783Y-142905933D01*
X132877224Y-142699376D01*
X132753012Y-142513480D01*
X132594920Y-142355388D01*
X132409024Y-142231176D01*
X132202467Y-142145617D01*
X131983188Y-142102000D01*
X131759612Y-142102000D01*
X131540333Y-142145617D01*
X131333776Y-142231176D01*
X131147880Y-142355388D01*
X130989788Y-142513480D01*
X130865576Y-142699376D01*
X130780017Y-142905933D01*
X130736400Y-143125212D01*
X130736400Y-143348788D01*
X130779525Y-143565596D01*
X116296675Y-143565596D01*
X116339800Y-143348788D01*
X116339800Y-143125212D01*
X116296183Y-142905933D01*
X116210624Y-142699376D01*
X116086412Y-142513480D01*
X115928320Y-142355388D01*
X115742424Y-142231176D01*
X115535867Y-142145617D01*
X115316588Y-142102000D01*
X115093012Y-142102000D01*
X114873733Y-142145617D01*
X114667176Y-142231176D01*
X114481280Y-142355388D01*
X114323188Y-142513480D01*
X114198976Y-142699376D01*
X114113417Y-142905933D01*
X114069800Y-143125212D01*
X114069800Y-143348788D01*
X114112925Y-143565596D01*
X99630075Y-143565596D01*
X99673200Y-143348788D01*
X99673200Y-143125212D01*
X99629583Y-142905933D01*
X99544024Y-142699376D01*
X99419812Y-142513480D01*
X99261720Y-142355388D01*
X99075824Y-142231176D01*
X98869267Y-142145617D01*
X98649988Y-142102000D01*
X98426412Y-142102000D01*
X98207133Y-142145617D01*
X98000576Y-142231176D01*
X97814680Y-142355388D01*
X97656588Y-142513480D01*
X97532376Y-142699376D01*
X97446817Y-142905933D01*
X97403200Y-143125212D01*
X97403200Y-143348788D01*
X97446325Y-143565596D01*
X82963475Y-143565596D01*
X83006600Y-143348788D01*
X83006600Y-143125212D01*
X82962983Y-142905933D01*
X82877424Y-142699376D01*
X82753212Y-142513480D01*
X82595120Y-142355388D01*
X82409224Y-142231176D01*
X82202667Y-142145617D01*
X81983388Y-142102000D01*
X81759812Y-142102000D01*
X81540533Y-142145617D01*
X81333976Y-142231176D01*
X81148080Y-142355388D01*
X80989988Y-142513480D01*
X80865776Y-142699376D01*
X80780217Y-142905933D01*
X80736600Y-143125212D01*
X80736600Y-143348788D01*
X80779725Y-143565596D01*
X70811536Y-143565596D01*
X70768269Y-143522329D01*
X70765046Y-143489603D01*
X70720158Y-143341630D01*
X70701277Y-143306306D01*
X70647266Y-143205257D01*
X70549168Y-143085726D01*
X70519214Y-143061143D01*
X67667261Y-140209190D01*
X67642678Y-140179236D01*
X67523147Y-140081138D01*
X67386774Y-140008246D01*
X67238801Y-139963359D01*
X67123475Y-139952000D01*
X67123467Y-139952000D01*
X67084914Y-139948203D01*
X67046361Y-139952000D01*
X61543556Y-139952000D01*
X61505000Y-139948203D01*
X61466444Y-139952000D01*
X61466439Y-139952000D01*
X61426026Y-139955980D01*
X61351113Y-139963358D01*
X61237581Y-139997799D01*
X61203140Y-140008246D01*
X61066767Y-140081138D01*
X60947236Y-140179236D01*
X60922650Y-140209194D01*
X60777191Y-140354652D01*
X60768180Y-140362047D01*
X60537493Y-139909275D01*
X60535522Y-139902778D01*
X60506887Y-139849205D01*
X60494672Y-139825230D01*
X60491039Y-139819555D01*
X60471916Y-139783777D01*
X60454741Y-139762849D01*
X60440154Y-139740061D01*
X60412052Y-139710832D01*
X60407765Y-139705608D01*
X60388688Y-139686531D01*
X60346636Y-139642792D01*
X60341072Y-139638914D01*
X59929569Y-139227405D01*
X59925686Y-139221834D01*
X59881944Y-139179779D01*
X59862882Y-139160717D01*
X59857656Y-139156428D01*
X59828417Y-139128317D01*
X59805628Y-139113730D01*
X59784713Y-139096565D01*
X59748941Y-139077444D01*
X59743248Y-139073800D01*
X59719236Y-139061566D01*
X59665713Y-139032957D01*
X59659213Y-139030985D01*
X59140635Y-138766776D01*
X59135231Y-138762685D01*
X59080595Y-138736186D01*
X59056585Y-138723953D01*
X59050310Y-138721497D01*
X59013824Y-138703801D01*
X58987628Y-138696966D01*
X58962417Y-138687099D01*
X58922498Y-138679972D01*
X58915977Y-138678270D01*
X58889362Y-138674055D01*
X58829585Y-138663382D01*
X58822808Y-138663515D01*
X58234720Y-138570383D01*
X58215284Y-138564487D01*
X58168220Y-138559851D01*
X58154912Y-138557744D01*
X58134762Y-138556556D01*
X58114648Y-138554575D01*
X58101157Y-138554575D01*
X58053966Y-138551793D01*
X58033855Y-138554575D01*
X55128147Y-138554575D01*
X55108036Y-138551793D01*
X55060845Y-138554575D01*
X55047354Y-138554575D01*
X55027241Y-138556556D01*
X55007089Y-138557744D01*
X54993780Y-138559852D01*
X54946718Y-138564487D01*
X54927283Y-138570382D01*
X54339194Y-138663515D01*
X54332417Y-138663382D01*
X54272636Y-138674056D01*
X54246025Y-138678270D01*
X54239506Y-138679971D01*
X54199584Y-138687099D01*
X54174369Y-138696967D01*
X54148178Y-138703801D01*
X54111706Y-138721490D01*
X54105416Y-138723952D01*
X54081348Y-138736215D01*
X54026771Y-138762685D01*
X54021372Y-138766771D01*
X53502789Y-139030985D01*
X53496288Y-139032957D01*
X53442747Y-139061576D01*
X53418754Y-139073800D01*
X53413066Y-139077441D01*
X53377288Y-139096565D01*
X53356370Y-139113732D01*
X53333585Y-139128317D01*
X53304347Y-139156427D01*
X53299120Y-139160717D01*
X53280059Y-139179778D01*
X53236316Y-139221834D01*
X53232433Y-139227405D01*
X52820930Y-139638915D01*
X52815366Y-139642793D01*
X52773303Y-139686543D01*
X52754238Y-139705608D01*
X52749955Y-139710827D01*
X52721847Y-139740062D01*
X52707255Y-139762858D01*
X52690087Y-139783778D01*
X52670969Y-139819546D01*
X52667330Y-139825231D01*
X52655095Y-139849245D01*
X52626481Y-139902779D01*
X52624512Y-139909271D01*
X52360302Y-140427840D01*
X52356212Y-140433243D01*
X52329729Y-140487846D01*
X52317481Y-140511885D01*
X52315021Y-140518170D01*
X52297328Y-140554650D01*
X52290494Y-140580841D01*
X52280627Y-140606053D01*
X52273499Y-140645973D01*
X52271797Y-140652497D01*
X52267580Y-140679127D01*
X52256910Y-140738885D01*
X52257043Y-140745660D01*
X52166026Y-141320390D01*
X52163809Y-141326782D01*
X52155490Y-141386915D01*
X52151270Y-141413565D01*
X52150874Y-141420289D01*
X52145319Y-141460442D01*
X49765993Y-141460442D01*
X49765993Y-140791405D01*
X49838488Y-140333803D01*
X50024098Y-139969517D01*
X50313050Y-139680565D01*
X50677313Y-139494973D01*
X51134921Y-139422479D01*
X51334152Y-139422479D01*
X51340840Y-139423673D01*
X51401487Y-139422479D01*
X51428453Y-139422479D01*
X51435190Y-139421815D01*
X51475747Y-139421017D01*
X51502165Y-139415219D01*
X51529089Y-139412567D01*
X51567926Y-139400786D01*
X51607543Y-139392091D01*
X51632317Y-139381253D01*
X51658212Y-139373398D01*
X51694000Y-139354269D01*
X51731164Y-139338011D01*
X51753352Y-139322545D01*
X51777213Y-139309791D01*
X51808583Y-139284046D01*
X51841859Y-139260851D01*
X51860603Y-139241354D01*
X51881517Y-139224190D01*
X51907259Y-139192823D01*
X51935374Y-139163579D01*
X51949954Y-139140801D01*
X51967118Y-139119886D01*
X51986247Y-139084098D01*
X51989889Y-139078408D01*
X52002104Y-139054432D01*
X52030725Y-139000885D01*
X52032699Y-138994376D01*
X52101503Y-138859323D01*
X52445371Y-138515455D01*
X52618947Y-138427000D01*
X60543012Y-138427000D01*
X60716641Y-138515470D01*
M02*
