G04 #@! TF.GenerationSoftware,KiCad,Pcbnew,(5.1.0-0)*
G04 #@! TF.CreationDate,2019-04-23T10:55:05-07:00*
G04 #@! TF.ProjectId,TestPanel2,54657374-5061-46e6-956c-322e6b696361,rev?*
G04 #@! TF.SameCoordinates,Original*
G04 #@! TF.FileFunction,Paste,Bot*
G04 #@! TF.FilePolarity,Positive*
%FSLAX46Y46*%
G04 Gerber Fmt 4.6, Leading zero omitted, Abs format (unit mm)*
G04 Created by KiCad (PCBNEW (5.1.0-0)) date 2019-04-23 10:55:05*
%MOMM*%
%LPD*%
G04 APERTURE LIST*
%ADD10R,2.000000X2.000000*%
G04 APERTURE END LIST*
D10*
X268057182Y-106365000D03*
X265057182Y-106365000D03*
X271057182Y-106365000D03*
X84723922Y-110615000D03*
X87723922Y-110615000D03*
X81723922Y-110615000D03*
X218057202Y-106365000D03*
X215057202Y-106365000D03*
X221057202Y-106365000D03*
X201390542Y-110865000D03*
X204390542Y-110865000D03*
X198390542Y-110865000D03*
X218057202Y-110865000D03*
X221057202Y-110865000D03*
X215057202Y-110865000D03*
X201390542Y-106365000D03*
X198390542Y-106365000D03*
X204390542Y-106365000D03*
X84723922Y-106365000D03*
X81723922Y-106365000D03*
X87723922Y-106365000D03*
X101390582Y-110865000D03*
X104390582Y-110865000D03*
X98390582Y-110865000D03*
X101390582Y-106365000D03*
X98390582Y-106365000D03*
X104390582Y-106365000D03*
X151390562Y-110865000D03*
X154390562Y-110865000D03*
X148390562Y-110865000D03*
X118057242Y-110865000D03*
X121057242Y-110865000D03*
X115057242Y-110865000D03*
X134723902Y-106365000D03*
X131723902Y-106365000D03*
X137723902Y-106365000D03*
X134723902Y-110615000D03*
X137723902Y-110615000D03*
X131723902Y-110615000D03*
X118057242Y-106365000D03*
X115057242Y-106365000D03*
X121057242Y-106365000D03*
X151390562Y-106365000D03*
X148390562Y-106365000D03*
X154390562Y-106365000D03*
X184723882Y-110865000D03*
X187723882Y-110865000D03*
X181723882Y-110865000D03*
X234723862Y-110865000D03*
X237723862Y-110865000D03*
X231723862Y-110865000D03*
X234723862Y-106365000D03*
X231723862Y-106365000D03*
X237723862Y-106365000D03*
X184723882Y-106365000D03*
X181723882Y-106365000D03*
X187723882Y-106365000D03*
X168057222Y-110615000D03*
X171057222Y-110615000D03*
X165057222Y-110615000D03*
X251390522Y-106365000D03*
X248390522Y-106365000D03*
X254390522Y-106365000D03*
X251390522Y-110865000D03*
X254390522Y-110865000D03*
X248390522Y-110865000D03*
X168057222Y-106365000D03*
X165057222Y-106365000D03*
X171057222Y-106365000D03*
X268057182Y-110865000D03*
X271057182Y-110865000D03*
X265057182Y-110865000D03*
X268057182Y-72365000D03*
X265057182Y-72365000D03*
X271057182Y-72365000D03*
X84723922Y-76615000D03*
X87723922Y-76615000D03*
X81723922Y-76615000D03*
X218057202Y-72365000D03*
X215057202Y-72365000D03*
X221057202Y-72365000D03*
X201390542Y-76865000D03*
X204390542Y-76865000D03*
X198390542Y-76865000D03*
X218057202Y-76865000D03*
X221057202Y-76865000D03*
X215057202Y-76865000D03*
X201390542Y-72365000D03*
X198390542Y-72365000D03*
X204390542Y-72365000D03*
X84723922Y-72365000D03*
X81723922Y-72365000D03*
X87723922Y-72365000D03*
X101390582Y-76865000D03*
X104390582Y-76865000D03*
X98390582Y-76865000D03*
X101390582Y-72365000D03*
X98390582Y-72365000D03*
X104390582Y-72365000D03*
X151390562Y-76865000D03*
X154390562Y-76865000D03*
X148390562Y-76865000D03*
X118057242Y-76865000D03*
X121057242Y-76865000D03*
X115057242Y-76865000D03*
X134723902Y-72365000D03*
X131723902Y-72365000D03*
X137723902Y-72365000D03*
X134723902Y-76615000D03*
X137723902Y-76615000D03*
X131723902Y-76615000D03*
X118057242Y-72365000D03*
X115057242Y-72365000D03*
X121057242Y-72365000D03*
X151390562Y-72365000D03*
X148390562Y-72365000D03*
X154390562Y-72365000D03*
X184723882Y-76865000D03*
X187723882Y-76865000D03*
X181723882Y-76865000D03*
X234723862Y-76865000D03*
X237723862Y-76865000D03*
X231723862Y-76865000D03*
X234723862Y-72365000D03*
X231723862Y-72365000D03*
X237723862Y-72365000D03*
X184723882Y-72365000D03*
X181723882Y-72365000D03*
X187723882Y-72365000D03*
X168057222Y-76615000D03*
X171057222Y-76615000D03*
X165057222Y-76615000D03*
X251390522Y-72365000D03*
X248390522Y-72365000D03*
X254390522Y-72365000D03*
X251390522Y-76865000D03*
X254390522Y-76865000D03*
X248390522Y-76865000D03*
X168057222Y-72365000D03*
X165057222Y-72365000D03*
X171057222Y-72365000D03*
X268057182Y-76865000D03*
X271057182Y-76865000D03*
X265057182Y-76865000D03*
X268057182Y-97865000D03*
X265057182Y-97865000D03*
X271057182Y-97865000D03*
X84723922Y-102115000D03*
X87723922Y-102115000D03*
X81723922Y-102115000D03*
X218057202Y-97865000D03*
X215057202Y-97865000D03*
X221057202Y-97865000D03*
X201390542Y-102365000D03*
X204390542Y-102365000D03*
X198390542Y-102365000D03*
X218057202Y-102365000D03*
X221057202Y-102365000D03*
X215057202Y-102365000D03*
X201390542Y-97865000D03*
X198390542Y-97865000D03*
X204390542Y-97865000D03*
X84723922Y-97865000D03*
X81723922Y-97865000D03*
X87723922Y-97865000D03*
X101390582Y-102365000D03*
X104390582Y-102365000D03*
X98390582Y-102365000D03*
X101390582Y-97865000D03*
X98390582Y-97865000D03*
X104390582Y-97865000D03*
X151390562Y-102365000D03*
X154390562Y-102365000D03*
X148390562Y-102365000D03*
X118057242Y-102365000D03*
X121057242Y-102365000D03*
X115057242Y-102365000D03*
X134723902Y-97865000D03*
X131723902Y-97865000D03*
X137723902Y-97865000D03*
X134723902Y-102115000D03*
X137723902Y-102115000D03*
X131723902Y-102115000D03*
X118057242Y-97865000D03*
X115057242Y-97865000D03*
X121057242Y-97865000D03*
X151390562Y-97865000D03*
X148390562Y-97865000D03*
X154390562Y-97865000D03*
X184723882Y-102365000D03*
X187723882Y-102365000D03*
X181723882Y-102365000D03*
X234723862Y-102365000D03*
X237723862Y-102365000D03*
X231723862Y-102365000D03*
X234723862Y-97865000D03*
X231723862Y-97865000D03*
X237723862Y-97865000D03*
X184723882Y-97865000D03*
X181723882Y-97865000D03*
X187723882Y-97865000D03*
X168057222Y-102115000D03*
X171057222Y-102115000D03*
X165057222Y-102115000D03*
X251390522Y-97865000D03*
X248390522Y-97865000D03*
X254390522Y-97865000D03*
X251390522Y-102365000D03*
X254390522Y-102365000D03*
X248390522Y-102365000D03*
X168057222Y-97865000D03*
X165057222Y-97865000D03*
X171057222Y-97865000D03*
X268057182Y-102365000D03*
X271057182Y-102365000D03*
X265057182Y-102365000D03*
X268057182Y-89365000D03*
X265057182Y-89365000D03*
X271057182Y-89365000D03*
X84723922Y-93615000D03*
X87723922Y-93615000D03*
X81723922Y-93615000D03*
X218057202Y-89365000D03*
X215057202Y-89365000D03*
X221057202Y-89365000D03*
X201390542Y-93865000D03*
X204390542Y-93865000D03*
X198390542Y-93865000D03*
X218057202Y-93865000D03*
X221057202Y-93865000D03*
X215057202Y-93865000D03*
X201390542Y-89365000D03*
X198390542Y-89365000D03*
X204390542Y-89365000D03*
X84723922Y-89365000D03*
X81723922Y-89365000D03*
X87723922Y-89365000D03*
X101390582Y-93865000D03*
X104390582Y-93865000D03*
X98390582Y-93865000D03*
X101390582Y-89365000D03*
X98390582Y-89365000D03*
X104390582Y-89365000D03*
X151390562Y-93865000D03*
X154390562Y-93865000D03*
X148390562Y-93865000D03*
X118057242Y-93865000D03*
X121057242Y-93865000D03*
X115057242Y-93865000D03*
X134723902Y-89365000D03*
X131723902Y-89365000D03*
X137723902Y-89365000D03*
X134723902Y-93615000D03*
X137723902Y-93615000D03*
X131723902Y-93615000D03*
X118057242Y-89365000D03*
X115057242Y-89365000D03*
X121057242Y-89365000D03*
X151390562Y-89365000D03*
X148390562Y-89365000D03*
X154390562Y-89365000D03*
X184723882Y-93865000D03*
X187723882Y-93865000D03*
X181723882Y-93865000D03*
X234723862Y-93865000D03*
X237723862Y-93865000D03*
X231723862Y-93865000D03*
X234723862Y-89365000D03*
X231723862Y-89365000D03*
X237723862Y-89365000D03*
X184723882Y-89365000D03*
X181723882Y-89365000D03*
X187723882Y-89365000D03*
X168057222Y-93615000D03*
X171057222Y-93615000D03*
X165057222Y-93615000D03*
X251390522Y-89365000D03*
X248390522Y-89365000D03*
X254390522Y-89365000D03*
X251390522Y-93865000D03*
X254390522Y-93865000D03*
X248390522Y-93865000D03*
X168057222Y-89365000D03*
X165057222Y-89365000D03*
X171057222Y-89365000D03*
X268057182Y-93865000D03*
X271057182Y-93865000D03*
X265057182Y-93865000D03*
X268057182Y-80865000D03*
X265057182Y-80865000D03*
X271057182Y-80865000D03*
X84723922Y-85115000D03*
X87723922Y-85115000D03*
X81723922Y-85115000D03*
X218057202Y-80865000D03*
X215057202Y-80865000D03*
X221057202Y-80865000D03*
X201390542Y-85365000D03*
X204390542Y-85365000D03*
X198390542Y-85365000D03*
X218057202Y-85365000D03*
X221057202Y-85365000D03*
X215057202Y-85365000D03*
X201390542Y-80865000D03*
X198390542Y-80865000D03*
X204390542Y-80865000D03*
X84723922Y-80865000D03*
X81723922Y-80865000D03*
X87723922Y-80865000D03*
X101390582Y-85365000D03*
X104390582Y-85365000D03*
X98390582Y-85365000D03*
X101390582Y-80865000D03*
X98390582Y-80865000D03*
X104390582Y-80865000D03*
X151390562Y-85365000D03*
X154390562Y-85365000D03*
X148390562Y-85365000D03*
X118057242Y-85365000D03*
X121057242Y-85365000D03*
X115057242Y-85365000D03*
X134723902Y-80865000D03*
X131723902Y-80865000D03*
X137723902Y-80865000D03*
X134723902Y-85115000D03*
X137723902Y-85115000D03*
X131723902Y-85115000D03*
X118057242Y-80865000D03*
X115057242Y-80865000D03*
X121057242Y-80865000D03*
X151390562Y-80865000D03*
X148390562Y-80865000D03*
X154390562Y-80865000D03*
X184723882Y-85365000D03*
X187723882Y-85365000D03*
X181723882Y-85365000D03*
X234723862Y-85365000D03*
X237723862Y-85365000D03*
X231723862Y-85365000D03*
X234723862Y-80865000D03*
X231723862Y-80865000D03*
X237723862Y-80865000D03*
X184723882Y-80865000D03*
X181723882Y-80865000D03*
X187723882Y-80865000D03*
X168057222Y-85115000D03*
X171057222Y-85115000D03*
X165057222Y-85115000D03*
X251390522Y-80865000D03*
X248390522Y-80865000D03*
X254390522Y-80865000D03*
X251390522Y-85365000D03*
X254390522Y-85365000D03*
X248390522Y-85365000D03*
X168057222Y-80865000D03*
X165057222Y-80865000D03*
X171057222Y-80865000D03*
X268057182Y-85365000D03*
X271057182Y-85365000D03*
X265057182Y-85365000D03*
M02*
