M48
INCH,TZ
T1C0.0197
T2C0.0236
T3C0.0433
%
G90
G05
T1
X63288Y-34120
X63681Y-34120
X64075Y-34120
X64469Y-34120
X124981Y-41364
X125374Y-41364
X125768Y-41364
X126162Y-41364
X63288Y-30774
X63681Y-30774
X64075Y-30774
X64469Y-30774
X63288Y-37467
X63681Y-37467
X64075Y-37467
X64469Y-37467
X63288Y-38018
X63681Y-38018
X64075Y-38018
X32461Y-30774
X33248Y-30774
X124981Y-30774
X125374Y-30774
X125768Y-30774
X126162Y-30774
X63288Y-31325
X63681Y-31325
X64075Y-31325
X64469Y-31325
X125374Y-34120
X125768Y-34120
X126162Y-34120
X94902Y-34120
X32461Y-41364
X32855Y-41364
X33642Y-41364
X64469Y-38018
X32855Y-30774
X33642Y-30774
X124981Y-34120
X94114Y-34120
X94508Y-34120
X95296Y-34120
X94114Y-34671
X33248Y-41364
X94508Y-34671
X94902Y-34671
X95296Y-34671
X32461Y-37467
X32461Y-31325
X32855Y-31325
X124981Y-38018
X125374Y-38018
X125768Y-38018
X126162Y-38018
X94114Y-40813
X94508Y-40813
X94902Y-40813
X95296Y-40813
X33248Y-31325
X94114Y-38018
X94508Y-38018
X94902Y-38018
X95296Y-38018
X94114Y-37467
X94508Y-37467
X94902Y-37467
X33642Y-31325
X32461Y-34120
X32855Y-34120
X33248Y-34120
X95296Y-37467
X33642Y-34120
X32461Y-34671
X32855Y-34671
X33248Y-34671
X33642Y-34671
X94114Y-41364
X94508Y-41364
X94902Y-41364
X95296Y-41364
X124981Y-34671
X125374Y-34671
X125768Y-34671
X126162Y-34671
X63288Y-34671
X63681Y-34671
X64075Y-34671
X64469Y-34671
X32461Y-40813
X32855Y-40813
X33248Y-40813
X33642Y-40813
X124981Y-31325
X125374Y-31325
X125768Y-31325
X126162Y-31325
X63288Y-40813
X63681Y-40813
X64075Y-40813
X64469Y-40813
X94114Y-31325
X94508Y-31325
X32855Y-37467
X33248Y-37467
X33642Y-37467
X32461Y-38018
X32855Y-38018
X33248Y-38018
X33642Y-38018
X124981Y-37467
X125374Y-37467
X125768Y-37467
X126162Y-37467
X63288Y-41364
X63681Y-41364
X64075Y-41364
X64469Y-41364
X124981Y-40813
X125374Y-40813
X125768Y-40813
X95296Y-31325
X94902Y-30774
X95296Y-30774
X126162Y-40813
X94902Y-31325
X94114Y-30774
X94508Y-30774
T2
X31776Y-29384
X31776Y-32730
X31776Y-36077
X31776Y-39423
X31776Y-42770
X32982Y-29376
X32982Y-32722
X32982Y-36069
X32982Y-39415
X32982Y-42762
X33476Y-29369
X33476Y-32715
X33476Y-36062
X33476Y-39408
X33476Y-42755
X36594Y-29415
X36594Y-32762
X36594Y-36108
X36594Y-39455
X36594Y-42801
X37103Y-29012
X37103Y-32358
X37103Y-35705
X37103Y-39051
X37103Y-42398
X38338Y-29384
X38338Y-32730
X38338Y-36077
X38338Y-39423
X38338Y-42770
X39544Y-29376
X39544Y-32722
X39544Y-36069
X39544Y-39415
X39544Y-42762
X40038Y-29369
X40038Y-32715
X40038Y-36062
X40038Y-39408
X40038Y-42755
X43156Y-29415
X43156Y-32762
X43156Y-36108
X43156Y-39455
X43156Y-42801
X43756Y-29376
X43756Y-32722
X43756Y-36069
X43756Y-39415
X43756Y-42762
X44899Y-29384
X44899Y-32730
X44899Y-36077
X44899Y-39423
X44899Y-42770
X46105Y-29376
X46105Y-32722
X46105Y-36069
X46105Y-39415
X46105Y-42762
X46599Y-29369
X46599Y-32715
X46599Y-36062
X46599Y-39408
X46599Y-42755
X49717Y-29415
X49717Y-32762
X49717Y-36108
X49717Y-39455
X49717Y-42801
X50351Y-29396
X50351Y-32742
X50351Y-36089
X50351Y-39435
X50351Y-42781
X51461Y-29384
X51461Y-32730
X51461Y-36077
X51461Y-39423
X51461Y-42770
X52667Y-29376
X52667Y-32722
X52667Y-36069
X52667Y-39415
X52667Y-42762
X53161Y-29369
X53161Y-32715
X53161Y-36062
X53161Y-39408
X53161Y-42755
X56279Y-29415
X56279Y-32762
X56279Y-36108
X56279Y-39455
X56279Y-42801
X56925Y-29396
X56925Y-32742
X56925Y-36089
X56925Y-39435
X56925Y-42781
X58023Y-29384
X58023Y-32730
X58023Y-36077
X58023Y-39423
X58023Y-42770
X59229Y-29376
X59229Y-32722
X59229Y-36069
X59229Y-39415
X59229Y-42762
X59723Y-29369
X59723Y-32715
X59723Y-36062
X59723Y-39408
X59723Y-42755
X62841Y-29415
X62841Y-32762
X62841Y-36108
X62841Y-39455
X62841Y-42801
X63461Y-29396
X63461Y-32742
X63461Y-36089
X63461Y-39435
X63461Y-42781
X64584Y-29384
X64584Y-32730
X64584Y-36077
X64584Y-39423
X64584Y-42770
X65790Y-29376
X65790Y-32722
X65790Y-36069
X65790Y-39415
X65790Y-42762
X66284Y-29369
X66284Y-32715
X66284Y-36062
X66284Y-39408
X66284Y-42755
X69402Y-29415
X69402Y-32762
X69402Y-36108
X69402Y-39455
X69402Y-42801
X70036Y-29396
X70036Y-32742
X70036Y-36089
X70036Y-39435
X70036Y-42781
X71146Y-29384
X71146Y-32730
X71146Y-36077
X71146Y-39423
X71146Y-42770
X72352Y-29376
X72352Y-32722
X72352Y-36069
X72352Y-39415
X72352Y-42762
X72846Y-29369
X72846Y-32715
X72846Y-36062
X72846Y-39408
X72846Y-42755
X75964Y-29415
X75964Y-32762
X75964Y-36108
X75964Y-39455
X75964Y-42801
X76650Y-29396
X76650Y-32742
X76650Y-36089
X76650Y-39435
X76650Y-42781
X77708Y-29384
X77708Y-32730
X77708Y-36077
X77708Y-39423
X77708Y-42770
X78914Y-29376
X78914Y-32722
X78914Y-36069
X78914Y-39415
X78914Y-42762
X79408Y-29369
X79408Y-32715
X79408Y-36062
X79408Y-39408
X79408Y-42755
X82526Y-29415
X82526Y-32762
X82526Y-36108
X82526Y-39455
X82526Y-42801
X83107Y-29396
X83107Y-32742
X83107Y-36089
X83107Y-39435
X83107Y-42781
X84269Y-29384
X84269Y-32730
X84269Y-36077
X84269Y-39423
X84269Y-42770
X85475Y-29376
X85475Y-32722
X85475Y-36069
X85475Y-39415
X85475Y-42762
X85969Y-29369
X85969Y-32715
X85969Y-36062
X85969Y-39408
X85969Y-42755
X89088Y-29415
X89088Y-32762
X89088Y-36108
X89088Y-39455
X89088Y-42801
X89760Y-29396
X89760Y-32742
X89760Y-36089
X89760Y-39435
X89760Y-42781
X90831Y-29384
X90831Y-32730
X90831Y-36077
X90831Y-39423
X90831Y-42770
X92037Y-29376
X92037Y-32722
X92037Y-36069
X92037Y-39415
X92037Y-42762
X92531Y-29369
X92531Y-32715
X92531Y-36062
X92531Y-39408
X92531Y-42755
X95649Y-29415
X95649Y-32762
X95649Y-36108
X95649Y-39455
X95649Y-42801
X96335Y-29435
X96335Y-32781
X96335Y-36128
X96335Y-39474
X96335Y-42821
X97393Y-29384
X97393Y-32730
X97393Y-36077
X97393Y-39423
X97393Y-42770
X98599Y-29376
X98599Y-32722
X98599Y-36069
X98599Y-39415
X98599Y-42762
X99093Y-29369
X99093Y-32715
X99093Y-36062
X99093Y-39408
X99093Y-42755
X102398Y-29435
X102398Y-32781
X102398Y-36128
X102398Y-39474
X102398Y-42821
X102949Y-29435
X102949Y-32781
X102949Y-36128
X102949Y-39474
X102949Y-42821
X105158Y-29139
X105158Y-32485
X105158Y-35832
X105158Y-39178
X105158Y-42525
X105390Y-29573
X105390Y-32919
X105390Y-36266
X105390Y-39612
X105390Y-42959
X105902Y-29238
X105902Y-32585
X105902Y-35931
X105902Y-39278
X105902Y-42624
X111768Y-30026
X111768Y-33372
X111768Y-36719
X111768Y-40065
X111768Y-43411
X111773Y-29430
X111773Y-32776
X111773Y-36123
X111773Y-39469
X111773Y-42816
X112240Y-29711
X112240Y-33057
X112240Y-36404
X112240Y-39750
X112240Y-43096
X112398Y-29041
X112398Y-32388
X112398Y-35734
X112398Y-39081
X112398Y-42427
X118330Y-30026
X118330Y-33372
X118330Y-36719
X118330Y-40065
X118330Y-43411
X118335Y-29430
X118335Y-32776
X118335Y-36123
X118335Y-39469
X118335Y-42816
X118802Y-29711
X118802Y-33057
X118802Y-36404
X118802Y-39750
X118802Y-43096
X118960Y-29041
X118960Y-32388
X118960Y-35734
X118960Y-39081
X118960Y-42427
X124891Y-30026
X124891Y-33372
X124891Y-36719
X124891Y-40065
X124891Y-43411
X124897Y-29430
X124897Y-32776
X124897Y-36123
X124897Y-39469
X124897Y-42816
X125364Y-29711
X125364Y-33057
X125364Y-36404
X125364Y-39750
X125364Y-43096
X125521Y-29041
X125521Y-32388
X125521Y-35734
X125521Y-39081
X125521Y-42427
T3
X127910Y-28510
X127910Y-29087
X127910Y-29665
X108815Y-38549
X127910Y-30242
X127910Y-39127
X127910Y-39704
X127910Y-40281
X108815Y-41896
X108815Y-42473
X108815Y-43051
X108815Y-43628
X30666Y-35203
X30666Y-35780
X30666Y-36358
X30666Y-36935
X30666Y-31856
X30666Y-32434
X30666Y-33011
X30666Y-33589
X108815Y-39127
X127910Y-38549
X108815Y-39704
X108815Y-40281
X108815Y-35203
X108815Y-35780
X108815Y-36358
X108815Y-36935
X121939Y-41896
X121939Y-42473
X121939Y-43051
X127910Y-41896
X127910Y-42473
X127910Y-43051
X121939Y-31856
X121939Y-32434
X121939Y-33011
X127910Y-43628
X121939Y-33589
X121939Y-38549
X121939Y-39127
X121939Y-39704
X121939Y-40281
X108815Y-30242
X121939Y-43628
X30666Y-28510
X30666Y-29087
X30666Y-29665
X30666Y-30242
X115377Y-31856
X115377Y-32434
X115377Y-33011
X115377Y-33589
X115377Y-35203
X115377Y-35780
X127910Y-31856
X127910Y-32434
X127910Y-33011
X127910Y-33589
X115377Y-36358
X115377Y-36935
X30666Y-38549
X30666Y-39127
X30666Y-39704
X30666Y-40281
X121939Y-35203
X121939Y-35780
X121939Y-36358
X121939Y-36935
X108815Y-28510
X108815Y-29087
X115377Y-28510
X115377Y-29087
X127910Y-35203
X127910Y-35780
X127910Y-36358
X127910Y-36935
X115377Y-30242
X115377Y-43051
X30666Y-41896
X30666Y-42473
X30666Y-43051
X30666Y-43628
X115377Y-29665
X108815Y-29665
X115377Y-41896
X115377Y-42473
X115377Y-43628
X115377Y-38549
X115377Y-39127
X115377Y-39704
X115377Y-40281
X108815Y-31856
X108815Y-32434
X108815Y-33011
X108815Y-33589
X121939Y-28510
X121939Y-29087
X121939Y-29665
X121939Y-30242
T0
M30
