G04 #@! TF.GenerationSoftware,KiCad,Pcbnew,(5.1.0-0)*
G04 #@! TF.CreationDate,2019-04-23T10:55:05-07:00*
G04 #@! TF.ProjectId,TestPanel2,54657374-5061-46e6-956c-322e6b696361,rev?*
G04 #@! TF.SameCoordinates,Original*
G04 #@! TF.FileFunction,Soldermask,Bot*
G04 #@! TF.FilePolarity,Negative*
%FSLAX46Y46*%
G04 Gerber Fmt 4.6, Leading zero omitted, Abs format (unit mm)*
G04 Created by KiCad (PCBNEW (5.1.0-0)) date 2019-04-23 10:55:05*
%MOMM*%
%LPD*%
G04 APERTURE LIST*
%ADD10C,0.900000*%
%ADD11R,2.400000X2.400000*%
%ADD12O,4.400000X1.600000*%
%ADD13R,2.900000X1.600000*%
G04 APERTURE END LIST*
D10*
X319450592Y-79565091D03*
X320450592Y-79565091D03*
X318450592Y-79565091D03*
X317450592Y-79565091D03*
X317450592Y-105065182D03*
X318450592Y-105065182D03*
X320450592Y-105065182D03*
X319450592Y-105065182D03*
X317450592Y-88065182D03*
X318450592Y-88065182D03*
X320450592Y-88065182D03*
X319450592Y-88065182D03*
X319450592Y-86665182D03*
X320450592Y-86665182D03*
X318450592Y-86665182D03*
X317450592Y-86665182D03*
X319450592Y-103665182D03*
X320450592Y-103665182D03*
X318450592Y-103665182D03*
X317450592Y-103665182D03*
X317450592Y-78165091D03*
X318450592Y-78165091D03*
X320450592Y-78165091D03*
X319450592Y-78165091D03*
X317450592Y-96565182D03*
X318450592Y-96565182D03*
X320450592Y-96565182D03*
X319450592Y-96565182D03*
X319450592Y-95165182D03*
X320450592Y-95165182D03*
X318450592Y-95165182D03*
X317450592Y-95165182D03*
X241050592Y-79565091D03*
X242050592Y-79565091D03*
X240050592Y-79565091D03*
X239050592Y-79565091D03*
X239050592Y-105065182D03*
X240050592Y-105065182D03*
X242050592Y-105065182D03*
X241050592Y-105065182D03*
X239050592Y-88065182D03*
X240050592Y-88065182D03*
X242050592Y-88065182D03*
X241050592Y-88065182D03*
X241050592Y-86665182D03*
X242050592Y-86665182D03*
X240050592Y-86665182D03*
X239050592Y-86665182D03*
X241050592Y-103665182D03*
X242050592Y-103665182D03*
X240050592Y-103665182D03*
X239050592Y-103665182D03*
X239050592Y-78165091D03*
X240050592Y-78165091D03*
X242050592Y-78165091D03*
X241050592Y-78165091D03*
X239050592Y-96565182D03*
X240050592Y-96565182D03*
X242050592Y-96565182D03*
X241050592Y-96565182D03*
X241050592Y-95165182D03*
X242050592Y-95165182D03*
X240050592Y-95165182D03*
X239050592Y-95165182D03*
X162750592Y-79565091D03*
X163750592Y-79565091D03*
X161750592Y-79565091D03*
X160750592Y-79565091D03*
X160750592Y-105065182D03*
X161750592Y-105065182D03*
X163750592Y-105065182D03*
X162750592Y-105065182D03*
X160750592Y-88065182D03*
X161750592Y-88065182D03*
X163750592Y-88065182D03*
X162750592Y-88065182D03*
X162750592Y-86665182D03*
X163750592Y-86665182D03*
X161750592Y-86665182D03*
X160750592Y-86665182D03*
X162750592Y-103665182D03*
X163750592Y-103665182D03*
X161750592Y-103665182D03*
X160750592Y-103665182D03*
X160750592Y-78165091D03*
X161750592Y-78165091D03*
X163750592Y-78165091D03*
X162750592Y-78165091D03*
X160750592Y-96565182D03*
X161750592Y-96565182D03*
X163750592Y-96565182D03*
X162750592Y-96565182D03*
X162750592Y-95165182D03*
X163750592Y-95165182D03*
X161750592Y-95165182D03*
X160750592Y-95165182D03*
X84450592Y-105065091D03*
X85450592Y-105065091D03*
X83450592Y-105065091D03*
X82450592Y-105065091D03*
X82450592Y-103665091D03*
X83450592Y-103665091D03*
X85450592Y-103665091D03*
X84450592Y-103665091D03*
X84450592Y-96565091D03*
X85450592Y-96565091D03*
X83450592Y-96565091D03*
X82450592Y-96565091D03*
X82450592Y-95165091D03*
X83450592Y-95165091D03*
X85450592Y-95165091D03*
X84450592Y-95165091D03*
X84450592Y-88065091D03*
X85450592Y-88065091D03*
X83450592Y-88065091D03*
X82450592Y-88065091D03*
X82450592Y-86665091D03*
X83450592Y-86665091D03*
X85450592Y-86665091D03*
X84450592Y-86665091D03*
X82450592Y-79565000D03*
X83450592Y-79565000D03*
X85450592Y-79565000D03*
X84450592Y-79565000D03*
X84450592Y-78165000D03*
X85450592Y-78165000D03*
X83450592Y-78165000D03*
X82450592Y-78165000D03*
D11*
X268057182Y-106365000D03*
X265057182Y-106365000D03*
X271057182Y-106365000D03*
X84723922Y-110615000D03*
X87723922Y-110615000D03*
X81723922Y-110615000D03*
X218057202Y-106365000D03*
X215057202Y-106365000D03*
X221057202Y-106365000D03*
X201390542Y-110865000D03*
X204390542Y-110865000D03*
X198390542Y-110865000D03*
X218057202Y-110865000D03*
X221057202Y-110865000D03*
X215057202Y-110865000D03*
X201390542Y-106365000D03*
X198390542Y-106365000D03*
X204390542Y-106365000D03*
X84723922Y-106365000D03*
X81723922Y-106365000D03*
X87723922Y-106365000D03*
X101390582Y-110865000D03*
X104390582Y-110865000D03*
X98390582Y-110865000D03*
X101390582Y-106365000D03*
X98390582Y-106365000D03*
X104390582Y-106365000D03*
X151390562Y-110865000D03*
X154390562Y-110865000D03*
X148390562Y-110865000D03*
X118057242Y-110865000D03*
X121057242Y-110865000D03*
X115057242Y-110865000D03*
X134723902Y-106365000D03*
X131723902Y-106365000D03*
X137723902Y-106365000D03*
X134723902Y-110615000D03*
X137723902Y-110615000D03*
X131723902Y-110615000D03*
X118057242Y-106365000D03*
X115057242Y-106365000D03*
X121057242Y-106365000D03*
X151390562Y-106365000D03*
X148390562Y-106365000D03*
X154390562Y-106365000D03*
X184723882Y-110865000D03*
X187723882Y-110865000D03*
X181723882Y-110865000D03*
X234723862Y-110865000D03*
X237723862Y-110865000D03*
X231723862Y-110865000D03*
X234723862Y-106365000D03*
X231723862Y-106365000D03*
X237723862Y-106365000D03*
X184723882Y-106365000D03*
X181723882Y-106365000D03*
X187723882Y-106365000D03*
X168057222Y-110615000D03*
X171057222Y-110615000D03*
X165057222Y-110615000D03*
X251390522Y-106365000D03*
X248390522Y-106365000D03*
X254390522Y-106365000D03*
X251390522Y-110865000D03*
X254390522Y-110865000D03*
X248390522Y-110865000D03*
X168057222Y-106365000D03*
X165057222Y-106365000D03*
X171057222Y-106365000D03*
X268057182Y-110865000D03*
X271057182Y-110865000D03*
X265057182Y-110865000D03*
D12*
X309724396Y-106415000D03*
X309724396Y-107881666D03*
X309724396Y-109348332D03*
X309724396Y-110815000D03*
X293057696Y-106415000D03*
X293057696Y-107881666D03*
X293057696Y-109348332D03*
X293057696Y-110815000D03*
D13*
X324891096Y-106415000D03*
X324891096Y-107881666D03*
X324891096Y-109348332D03*
X324891096Y-110815000D03*
X77890596Y-106415000D03*
X77890596Y-107881666D03*
X77890596Y-109348332D03*
X77890596Y-110815000D03*
D12*
X276390996Y-106415000D03*
X276390996Y-107881666D03*
X276390996Y-109348332D03*
X276390996Y-110815000D03*
D11*
X268057182Y-72365000D03*
X265057182Y-72365000D03*
X271057182Y-72365000D03*
X84723922Y-76615000D03*
X87723922Y-76615000D03*
X81723922Y-76615000D03*
X218057202Y-72365000D03*
X215057202Y-72365000D03*
X221057202Y-72365000D03*
X201390542Y-76865000D03*
X204390542Y-76865000D03*
X198390542Y-76865000D03*
X218057202Y-76865000D03*
X221057202Y-76865000D03*
X215057202Y-76865000D03*
X201390542Y-72365000D03*
X198390542Y-72365000D03*
X204390542Y-72365000D03*
X84723922Y-72365000D03*
X81723922Y-72365000D03*
X87723922Y-72365000D03*
X101390582Y-76865000D03*
X104390582Y-76865000D03*
X98390582Y-76865000D03*
X101390582Y-72365000D03*
X98390582Y-72365000D03*
X104390582Y-72365000D03*
X151390562Y-76865000D03*
X154390562Y-76865000D03*
X148390562Y-76865000D03*
X118057242Y-76865000D03*
X121057242Y-76865000D03*
X115057242Y-76865000D03*
X134723902Y-72365000D03*
X131723902Y-72365000D03*
X137723902Y-72365000D03*
X134723902Y-76615000D03*
X137723902Y-76615000D03*
X131723902Y-76615000D03*
X118057242Y-72365000D03*
X115057242Y-72365000D03*
X121057242Y-72365000D03*
X151390562Y-72365000D03*
X148390562Y-72365000D03*
X154390562Y-72365000D03*
X184723882Y-76865000D03*
X187723882Y-76865000D03*
X181723882Y-76865000D03*
X234723862Y-76865000D03*
X237723862Y-76865000D03*
X231723862Y-76865000D03*
X234723862Y-72365000D03*
X231723862Y-72365000D03*
X237723862Y-72365000D03*
X184723882Y-72365000D03*
X181723882Y-72365000D03*
X187723882Y-72365000D03*
X168057222Y-76615000D03*
X171057222Y-76615000D03*
X165057222Y-76615000D03*
X251390522Y-72365000D03*
X248390522Y-72365000D03*
X254390522Y-72365000D03*
X251390522Y-76865000D03*
X254390522Y-76865000D03*
X248390522Y-76865000D03*
X168057222Y-72365000D03*
X165057222Y-72365000D03*
X171057222Y-72365000D03*
X268057182Y-76865000D03*
X271057182Y-76865000D03*
X265057182Y-76865000D03*
D12*
X309724396Y-72415000D03*
X309724396Y-73881666D03*
X309724396Y-75348332D03*
X309724396Y-76815000D03*
X293057696Y-72415000D03*
X293057696Y-73881666D03*
X293057696Y-75348332D03*
X293057696Y-76815000D03*
D13*
X324891096Y-72415000D03*
X324891096Y-73881666D03*
X324891096Y-75348332D03*
X324891096Y-76815000D03*
X77890596Y-72415000D03*
X77890596Y-73881666D03*
X77890596Y-75348332D03*
X77890596Y-76815000D03*
D12*
X276390996Y-72415000D03*
X276390996Y-73881666D03*
X276390996Y-75348332D03*
X276390996Y-76815000D03*
D11*
X268057182Y-97865000D03*
X265057182Y-97865000D03*
X271057182Y-97865000D03*
X84723922Y-102115000D03*
X87723922Y-102115000D03*
X81723922Y-102115000D03*
X218057202Y-97865000D03*
X215057202Y-97865000D03*
X221057202Y-97865000D03*
X201390542Y-102365000D03*
X204390542Y-102365000D03*
X198390542Y-102365000D03*
X218057202Y-102365000D03*
X221057202Y-102365000D03*
X215057202Y-102365000D03*
X201390542Y-97865000D03*
X198390542Y-97865000D03*
X204390542Y-97865000D03*
X84723922Y-97865000D03*
X81723922Y-97865000D03*
X87723922Y-97865000D03*
X101390582Y-102365000D03*
X104390582Y-102365000D03*
X98390582Y-102365000D03*
X101390582Y-97865000D03*
X98390582Y-97865000D03*
X104390582Y-97865000D03*
X151390562Y-102365000D03*
X154390562Y-102365000D03*
X148390562Y-102365000D03*
X118057242Y-102365000D03*
X121057242Y-102365000D03*
X115057242Y-102365000D03*
X134723902Y-97865000D03*
X131723902Y-97865000D03*
X137723902Y-97865000D03*
X134723902Y-102115000D03*
X137723902Y-102115000D03*
X131723902Y-102115000D03*
X118057242Y-97865000D03*
X115057242Y-97865000D03*
X121057242Y-97865000D03*
X151390562Y-97865000D03*
X148390562Y-97865000D03*
X154390562Y-97865000D03*
X184723882Y-102365000D03*
X187723882Y-102365000D03*
X181723882Y-102365000D03*
X234723862Y-102365000D03*
X237723862Y-102365000D03*
X231723862Y-102365000D03*
X234723862Y-97865000D03*
X231723862Y-97865000D03*
X237723862Y-97865000D03*
X184723882Y-97865000D03*
X181723882Y-97865000D03*
X187723882Y-97865000D03*
X168057222Y-102115000D03*
X171057222Y-102115000D03*
X165057222Y-102115000D03*
X251390522Y-97865000D03*
X248390522Y-97865000D03*
X254390522Y-97865000D03*
X251390522Y-102365000D03*
X254390522Y-102365000D03*
X248390522Y-102365000D03*
X168057222Y-97865000D03*
X165057222Y-97865000D03*
X171057222Y-97865000D03*
X268057182Y-102365000D03*
X271057182Y-102365000D03*
X265057182Y-102365000D03*
D12*
X309724396Y-97915000D03*
X309724396Y-99381666D03*
X309724396Y-100848332D03*
X309724396Y-102315000D03*
X293057696Y-97915000D03*
X293057696Y-99381666D03*
X293057696Y-100848332D03*
X293057696Y-102315000D03*
D13*
X324891096Y-97915000D03*
X324891096Y-99381666D03*
X324891096Y-100848332D03*
X324891096Y-102315000D03*
X77890596Y-97915000D03*
X77890596Y-99381666D03*
X77890596Y-100848332D03*
X77890596Y-102315000D03*
D12*
X276390996Y-97915000D03*
X276390996Y-99381666D03*
X276390996Y-100848332D03*
X276390996Y-102315000D03*
D11*
X268057182Y-89365000D03*
X265057182Y-89365000D03*
X271057182Y-89365000D03*
X84723922Y-93615000D03*
X87723922Y-93615000D03*
X81723922Y-93615000D03*
X218057202Y-89365000D03*
X215057202Y-89365000D03*
X221057202Y-89365000D03*
X201390542Y-93865000D03*
X204390542Y-93865000D03*
X198390542Y-93865000D03*
X218057202Y-93865000D03*
X221057202Y-93865000D03*
X215057202Y-93865000D03*
X201390542Y-89365000D03*
X198390542Y-89365000D03*
X204390542Y-89365000D03*
X84723922Y-89365000D03*
X81723922Y-89365000D03*
X87723922Y-89365000D03*
X101390582Y-93865000D03*
X104390582Y-93865000D03*
X98390582Y-93865000D03*
X101390582Y-89365000D03*
X98390582Y-89365000D03*
X104390582Y-89365000D03*
X151390562Y-93865000D03*
X154390562Y-93865000D03*
X148390562Y-93865000D03*
X118057242Y-93865000D03*
X121057242Y-93865000D03*
X115057242Y-93865000D03*
X134723902Y-89365000D03*
X131723902Y-89365000D03*
X137723902Y-89365000D03*
X134723902Y-93615000D03*
X137723902Y-93615000D03*
X131723902Y-93615000D03*
X118057242Y-89365000D03*
X115057242Y-89365000D03*
X121057242Y-89365000D03*
X151390562Y-89365000D03*
X148390562Y-89365000D03*
X154390562Y-89365000D03*
X184723882Y-93865000D03*
X187723882Y-93865000D03*
X181723882Y-93865000D03*
X234723862Y-93865000D03*
X237723862Y-93865000D03*
X231723862Y-93865000D03*
X234723862Y-89365000D03*
X231723862Y-89365000D03*
X237723862Y-89365000D03*
X184723882Y-89365000D03*
X181723882Y-89365000D03*
X187723882Y-89365000D03*
X168057222Y-93615000D03*
X171057222Y-93615000D03*
X165057222Y-93615000D03*
X251390522Y-89365000D03*
X248390522Y-89365000D03*
X254390522Y-89365000D03*
X251390522Y-93865000D03*
X254390522Y-93865000D03*
X248390522Y-93865000D03*
X168057222Y-89365000D03*
X165057222Y-89365000D03*
X171057222Y-89365000D03*
X268057182Y-93865000D03*
X271057182Y-93865000D03*
X265057182Y-93865000D03*
D12*
X309724396Y-89415000D03*
X309724396Y-90881666D03*
X309724396Y-92348332D03*
X309724396Y-93815000D03*
X293057696Y-89415000D03*
X293057696Y-90881666D03*
X293057696Y-92348332D03*
X293057696Y-93815000D03*
D13*
X324891096Y-89415000D03*
X324891096Y-90881666D03*
X324891096Y-92348332D03*
X324891096Y-93815000D03*
X77890596Y-89415000D03*
X77890596Y-90881666D03*
X77890596Y-92348332D03*
X77890596Y-93815000D03*
D12*
X276390996Y-89415000D03*
X276390996Y-90881666D03*
X276390996Y-92348332D03*
X276390996Y-93815000D03*
D11*
X268057182Y-80865000D03*
X265057182Y-80865000D03*
X271057182Y-80865000D03*
X84723922Y-85115000D03*
X87723922Y-85115000D03*
X81723922Y-85115000D03*
X218057202Y-80865000D03*
X215057202Y-80865000D03*
X221057202Y-80865000D03*
X201390542Y-85365000D03*
X204390542Y-85365000D03*
X198390542Y-85365000D03*
X218057202Y-85365000D03*
X221057202Y-85365000D03*
X215057202Y-85365000D03*
X201390542Y-80865000D03*
X198390542Y-80865000D03*
X204390542Y-80865000D03*
X84723922Y-80865000D03*
X81723922Y-80865000D03*
X87723922Y-80865000D03*
X101390582Y-85365000D03*
X104390582Y-85365000D03*
X98390582Y-85365000D03*
X101390582Y-80865000D03*
X98390582Y-80865000D03*
X104390582Y-80865000D03*
X151390562Y-85365000D03*
X154390562Y-85365000D03*
X148390562Y-85365000D03*
X118057242Y-85365000D03*
X121057242Y-85365000D03*
X115057242Y-85365000D03*
X134723902Y-80865000D03*
X131723902Y-80865000D03*
X137723902Y-80865000D03*
X134723902Y-85115000D03*
X137723902Y-85115000D03*
X131723902Y-85115000D03*
X118057242Y-80865000D03*
X115057242Y-80865000D03*
X121057242Y-80865000D03*
X151390562Y-80865000D03*
X148390562Y-80865000D03*
X154390562Y-80865000D03*
X184723882Y-85365000D03*
X187723882Y-85365000D03*
X181723882Y-85365000D03*
X234723862Y-85365000D03*
X237723862Y-85365000D03*
X231723862Y-85365000D03*
X234723862Y-80865000D03*
X231723862Y-80865000D03*
X237723862Y-80865000D03*
X184723882Y-80865000D03*
X181723882Y-80865000D03*
X187723882Y-80865000D03*
X168057222Y-85115000D03*
X171057222Y-85115000D03*
X165057222Y-85115000D03*
X251390522Y-80865000D03*
X248390522Y-80865000D03*
X254390522Y-80865000D03*
X251390522Y-85365000D03*
X254390522Y-85365000D03*
X248390522Y-85365000D03*
X168057222Y-80865000D03*
X165057222Y-80865000D03*
X171057222Y-80865000D03*
X268057182Y-85365000D03*
X271057182Y-85365000D03*
X265057182Y-85365000D03*
D12*
X309724396Y-80915000D03*
X309724396Y-82381666D03*
X309724396Y-83848332D03*
X309724396Y-85315000D03*
X293057696Y-80915000D03*
X293057696Y-82381666D03*
X293057696Y-83848332D03*
X293057696Y-85315000D03*
D13*
X324891096Y-80915000D03*
X324891096Y-82381666D03*
X324891096Y-83848332D03*
X324891096Y-85315000D03*
X77890596Y-80915000D03*
X77890596Y-82381666D03*
X77890596Y-83848332D03*
X77890596Y-85315000D03*
D12*
X276390996Y-80915000D03*
X276390996Y-82381666D03*
X276390996Y-83848332D03*
X276390996Y-85315000D03*
M02*
