G04 #@! TF.GenerationSoftware,KiCad,Pcbnew,(5.1.0-0)*
G04 #@! TF.CreationDate,2019-04-23T10:55:05-07:00*
G04 #@! TF.ProjectId,TestPanel2,54657374-5061-46e6-956c-322e6b696361,rev?*
G04 #@! TF.SameCoordinates,Original*
G04 #@! TF.FileFunction,Profile,NP*
%FSLAX46Y46*%
G04 Gerber Fmt 4.6, Leading zero omitted, Abs format (unit mm)*
G04 Created by KiCad (PCBNEW (5.1.0-0)) date 2019-04-23 10:55:05*
%MOMM*%
%LPD*%
G04 APERTURE LIST*
%ADD10C,0.100000*%
G04 APERTURE END LIST*
D10*
X76390592Y-111864815D02*
X326390082Y-111864815D01*
X76390592Y-105364953D02*
X76390592Y-111864815D01*
X81962129Y-86365015D02*
X81962129Y-88365000D01*
X316919536Y-77864909D02*
X316919536Y-79864895D01*
X242600408Y-77864909D02*
X316919536Y-77864909D01*
X242600408Y-79864895D02*
X242600408Y-77864909D01*
X316919536Y-79864895D02*
X242600408Y-79864895D01*
X316919536Y-86365015D02*
X316919536Y-88365000D01*
X242600408Y-86365015D02*
X316919536Y-86365015D01*
X242600408Y-88365000D02*
X242600408Y-86365015D01*
X316919536Y-88365000D02*
X242600408Y-88365000D01*
X316919536Y-94864862D02*
X316919536Y-96864847D01*
X242600408Y-94864862D02*
X316919536Y-94864862D01*
X242600408Y-96864847D02*
X242600408Y-94864862D01*
X316919536Y-96864847D02*
X242600408Y-96864847D01*
X316919536Y-103364967D02*
X316919536Y-105364953D01*
X242600408Y-103364967D02*
X316919536Y-103364967D01*
X242600408Y-105364953D02*
X242600408Y-103364967D01*
X316919536Y-105364953D02*
X242600408Y-105364953D01*
X85962144Y-105364953D02*
X85962144Y-103364967D01*
X160281272Y-105364953D02*
X85962144Y-105364953D01*
X160281272Y-103364967D02*
X160281272Y-105364953D01*
X85962144Y-103364967D02*
X160281272Y-103364967D01*
X85962144Y-96864847D02*
X85962144Y-94864862D01*
X160281272Y-96864847D02*
X85962144Y-96864847D01*
X160281272Y-94864862D02*
X160281272Y-96864847D01*
X85962144Y-94864862D02*
X160281272Y-94864862D01*
X85962144Y-88365000D02*
X85962144Y-86365015D01*
X76390592Y-77864909D02*
X81962129Y-77864909D01*
X81962129Y-79864895D02*
X76390592Y-79864895D01*
X81962129Y-88365000D02*
X76390592Y-88365000D01*
X320919551Y-86365015D02*
X326390082Y-86365015D01*
X320919551Y-88365000D02*
X320919551Y-86365015D01*
X326390082Y-88365000D02*
X320919551Y-88365000D01*
X326390082Y-94864862D02*
X326390082Y-88365000D01*
X320919551Y-94864862D02*
X326390082Y-94864862D01*
X320919551Y-96864847D02*
X320919551Y-94864862D01*
X326390082Y-96864847D02*
X320919551Y-96864847D01*
X326390082Y-103364967D02*
X326390082Y-96864847D01*
X320919551Y-103364967D02*
X326390082Y-103364967D01*
X320919551Y-105364953D02*
X320919551Y-103364967D01*
X238600415Y-77864909D02*
X238600415Y-79864895D01*
X164281265Y-77864909D02*
X238600415Y-77864909D01*
X164281265Y-79864895D02*
X164281265Y-77864909D01*
X238600415Y-88365000D02*
X164281265Y-88365000D01*
X238600415Y-86365015D02*
X238600415Y-88365000D01*
X164281265Y-86365015D02*
X238600415Y-86365015D01*
X164281265Y-88365000D02*
X164281265Y-86365015D01*
X164281265Y-103364967D02*
X238600415Y-103364967D01*
X164281265Y-105364953D02*
X164281265Y-103364967D01*
X238600415Y-105364953D02*
X164281265Y-105364953D01*
X238600415Y-103364967D02*
X238600415Y-105364953D01*
X238600415Y-96864847D02*
X164281265Y-96864847D01*
X238600415Y-94864862D02*
X238600415Y-96864847D01*
X164281265Y-94864862D02*
X238600415Y-94864862D01*
X164281265Y-96864847D02*
X164281265Y-94864862D01*
X320919551Y-77864909D02*
X326390082Y-77864909D01*
X320919551Y-79864895D02*
X320919551Y-77864909D01*
X326390082Y-79864895D02*
X320919551Y-79864895D01*
X326390082Y-86365015D02*
X326390082Y-79864895D01*
X326390082Y-71365047D02*
X76390592Y-71365047D01*
X81962129Y-77864909D02*
X81962129Y-79864895D01*
X160281272Y-88365000D02*
X85962144Y-88365000D01*
X160281272Y-86365015D02*
X160281272Y-88365000D01*
X85962144Y-86365015D02*
X160281272Y-86365015D01*
X85962144Y-79864895D02*
X85962144Y-77864909D01*
X76390592Y-71365047D02*
X76390592Y-77864909D01*
X326390082Y-77864909D02*
X326390082Y-71365047D01*
X326390082Y-105364953D02*
X320919551Y-105364953D01*
X326390082Y-111864815D02*
X326390082Y-105364953D01*
X76390592Y-103364967D02*
X81962129Y-103364967D01*
X76390592Y-96864847D02*
X76390592Y-103364967D01*
X81962129Y-105364953D02*
X76390592Y-105364953D01*
X81962129Y-103364967D02*
X81962129Y-105364953D01*
X81962129Y-96864847D02*
X76390592Y-96864847D01*
X81962129Y-94864862D02*
X81962129Y-96864847D01*
X160281272Y-79864895D02*
X85962144Y-79864895D01*
X160281272Y-77864909D02*
X160281272Y-79864895D01*
X85962144Y-77864909D02*
X160281272Y-77864909D01*
X238600415Y-79864895D02*
X164281265Y-79864895D01*
X76390592Y-79864895D02*
X76390592Y-86365015D01*
X76390592Y-86365015D02*
X81962129Y-86365015D01*
X76390592Y-94864862D02*
X81962129Y-94864862D01*
X76390592Y-88365000D02*
X76390592Y-94864862D01*
M02*
