G04 #@! TF.GenerationSoftware,KiCad,Pcbnew,(5.1.0-0)*
G04 #@! TF.CreationDate,2019-04-23T10:55:05-07:00*
G04 #@! TF.ProjectId,TestPanel2,54657374-5061-46e6-956c-322e6b696361,rev?*
G04 #@! TF.SameCoordinates,Original*
G04 #@! TF.FileFunction,Legend,Bot*
G04 #@! TF.FilePolarity,Positive*
%FSLAX46Y46*%
G04 Gerber Fmt 4.6, Leading zero omitted, Abs format (unit mm)*
G04 Created by KiCad (PCBNEW (5.1.0-0)) date 2019-04-23 10:55:05*
%MOMM*%
%LPD*%
G04 APERTURE LIST*
%ADD10C,0.150000*%
G04 APERTURE END LIST*
D10*
X268390515Y-101817380D02*
X268390515Y-102531666D01*
X268438134Y-102674523D01*
X268533372Y-102769761D01*
X268676229Y-102817380D01*
X268771467Y-102817380D01*
X267485753Y-101817380D02*
X267676229Y-101817380D01*
X267771467Y-101865000D01*
X267819086Y-101912619D01*
X267914324Y-102055476D01*
X267961943Y-102245952D01*
X267961943Y-102626904D01*
X267914324Y-102722142D01*
X267866705Y-102769761D01*
X267771467Y-102817380D01*
X267580991Y-102817380D01*
X267485753Y-102769761D01*
X267438134Y-102722142D01*
X267390515Y-102626904D01*
X267390515Y-102388809D01*
X267438134Y-102293571D01*
X267485753Y-102245952D01*
X267580991Y-102198333D01*
X267771467Y-102198333D01*
X267866705Y-102245952D01*
X267914324Y-102293571D01*
X267961943Y-102388809D01*
X85057255Y-114067380D02*
X85057255Y-114781666D01*
X85104874Y-114924523D01*
X85200112Y-115019761D01*
X85342969Y-115067380D01*
X85438207Y-115067380D01*
X84152493Y-114067380D02*
X84342969Y-114067380D01*
X84438207Y-114115000D01*
X84485826Y-114162619D01*
X84581064Y-114305476D01*
X84628683Y-114495952D01*
X84628683Y-114876904D01*
X84581064Y-114972142D01*
X84533445Y-115019761D01*
X84438207Y-115067380D01*
X84247731Y-115067380D01*
X84152493Y-115019761D01*
X84104874Y-114972142D01*
X84057255Y-114876904D01*
X84057255Y-114638809D01*
X84104874Y-114543571D01*
X84152493Y-114495952D01*
X84247731Y-114448333D01*
X84438207Y-114448333D01*
X84533445Y-114495952D01*
X84581064Y-114543571D01*
X84628683Y-114638809D01*
X218390535Y-101817380D02*
X218390535Y-102531666D01*
X218438154Y-102674523D01*
X218533392Y-102769761D01*
X218676249Y-102817380D01*
X218771487Y-102817380D01*
X217485773Y-101817380D02*
X217676249Y-101817380D01*
X217771487Y-101865000D01*
X217819106Y-101912619D01*
X217914344Y-102055476D01*
X217961963Y-102245952D01*
X217961963Y-102626904D01*
X217914344Y-102722142D01*
X217866725Y-102769761D01*
X217771487Y-102817380D01*
X217581011Y-102817380D01*
X217485773Y-102769761D01*
X217438154Y-102722142D01*
X217390535Y-102626904D01*
X217390535Y-102388809D01*
X217438154Y-102293571D01*
X217485773Y-102245952D01*
X217581011Y-102198333D01*
X217771487Y-102198333D01*
X217866725Y-102245952D01*
X217914344Y-102293571D01*
X217961963Y-102388809D01*
X201723875Y-114317380D02*
X201723875Y-115031666D01*
X201771494Y-115174523D01*
X201866732Y-115269761D01*
X202009589Y-115317380D01*
X202104827Y-115317380D01*
X200819113Y-114317380D02*
X201009589Y-114317380D01*
X201104827Y-114365000D01*
X201152446Y-114412619D01*
X201247684Y-114555476D01*
X201295303Y-114745952D01*
X201295303Y-115126904D01*
X201247684Y-115222142D01*
X201200065Y-115269761D01*
X201104827Y-115317380D01*
X200914351Y-115317380D01*
X200819113Y-115269761D01*
X200771494Y-115222142D01*
X200723875Y-115126904D01*
X200723875Y-114888809D01*
X200771494Y-114793571D01*
X200819113Y-114745952D01*
X200914351Y-114698333D01*
X201104827Y-114698333D01*
X201200065Y-114745952D01*
X201247684Y-114793571D01*
X201295303Y-114888809D01*
X218390535Y-114317380D02*
X218390535Y-115031666D01*
X218438154Y-115174523D01*
X218533392Y-115269761D01*
X218676249Y-115317380D01*
X218771487Y-115317380D01*
X217485773Y-114317380D02*
X217676249Y-114317380D01*
X217771487Y-114365000D01*
X217819106Y-114412619D01*
X217914344Y-114555476D01*
X217961963Y-114745952D01*
X217961963Y-115126904D01*
X217914344Y-115222142D01*
X217866725Y-115269761D01*
X217771487Y-115317380D01*
X217581011Y-115317380D01*
X217485773Y-115269761D01*
X217438154Y-115222142D01*
X217390535Y-115126904D01*
X217390535Y-114888809D01*
X217438154Y-114793571D01*
X217485773Y-114745952D01*
X217581011Y-114698333D01*
X217771487Y-114698333D01*
X217866725Y-114745952D01*
X217914344Y-114793571D01*
X217961963Y-114888809D01*
X201723875Y-101817380D02*
X201723875Y-102531666D01*
X201771494Y-102674523D01*
X201866732Y-102769761D01*
X202009589Y-102817380D01*
X202104827Y-102817380D01*
X200819113Y-101817380D02*
X201009589Y-101817380D01*
X201104827Y-101865000D01*
X201152446Y-101912619D01*
X201247684Y-102055476D01*
X201295303Y-102245952D01*
X201295303Y-102626904D01*
X201247684Y-102722142D01*
X201200065Y-102769761D01*
X201104827Y-102817380D01*
X200914351Y-102817380D01*
X200819113Y-102769761D01*
X200771494Y-102722142D01*
X200723875Y-102626904D01*
X200723875Y-102388809D01*
X200771494Y-102293571D01*
X200819113Y-102245952D01*
X200914351Y-102198333D01*
X201104827Y-102198333D01*
X201200065Y-102245952D01*
X201247684Y-102293571D01*
X201295303Y-102388809D01*
X85057255Y-101817380D02*
X85057255Y-102531666D01*
X85104874Y-102674523D01*
X85200112Y-102769761D01*
X85342969Y-102817380D01*
X85438207Y-102817380D01*
X84152493Y-101817380D02*
X84342969Y-101817380D01*
X84438207Y-101865000D01*
X84485826Y-101912619D01*
X84581064Y-102055476D01*
X84628683Y-102245952D01*
X84628683Y-102626904D01*
X84581064Y-102722142D01*
X84533445Y-102769761D01*
X84438207Y-102817380D01*
X84247731Y-102817380D01*
X84152493Y-102769761D01*
X84104874Y-102722142D01*
X84057255Y-102626904D01*
X84057255Y-102388809D01*
X84104874Y-102293571D01*
X84152493Y-102245952D01*
X84247731Y-102198333D01*
X84438207Y-102198333D01*
X84533445Y-102245952D01*
X84581064Y-102293571D01*
X84628683Y-102388809D01*
X101723915Y-114317380D02*
X101723915Y-115031666D01*
X101771534Y-115174523D01*
X101866772Y-115269761D01*
X102009629Y-115317380D01*
X102104867Y-115317380D01*
X100819153Y-114317380D02*
X101009629Y-114317380D01*
X101104867Y-114365000D01*
X101152486Y-114412619D01*
X101247724Y-114555476D01*
X101295343Y-114745952D01*
X101295343Y-115126904D01*
X101247724Y-115222142D01*
X101200105Y-115269761D01*
X101104867Y-115317380D01*
X100914391Y-115317380D01*
X100819153Y-115269761D01*
X100771534Y-115222142D01*
X100723915Y-115126904D01*
X100723915Y-114888809D01*
X100771534Y-114793571D01*
X100819153Y-114745952D01*
X100914391Y-114698333D01*
X101104867Y-114698333D01*
X101200105Y-114745952D01*
X101247724Y-114793571D01*
X101295343Y-114888809D01*
X101723915Y-101817380D02*
X101723915Y-102531666D01*
X101771534Y-102674523D01*
X101866772Y-102769761D01*
X102009629Y-102817380D01*
X102104867Y-102817380D01*
X100819153Y-101817380D02*
X101009629Y-101817380D01*
X101104867Y-101865000D01*
X101152486Y-101912619D01*
X101247724Y-102055476D01*
X101295343Y-102245952D01*
X101295343Y-102626904D01*
X101247724Y-102722142D01*
X101200105Y-102769761D01*
X101104867Y-102817380D01*
X100914391Y-102817380D01*
X100819153Y-102769761D01*
X100771534Y-102722142D01*
X100723915Y-102626904D01*
X100723915Y-102388809D01*
X100771534Y-102293571D01*
X100819153Y-102245952D01*
X100914391Y-102198333D01*
X101104867Y-102198333D01*
X101200105Y-102245952D01*
X101247724Y-102293571D01*
X101295343Y-102388809D01*
X151723895Y-114317380D02*
X151723895Y-115031666D01*
X151771514Y-115174523D01*
X151866752Y-115269761D01*
X152009609Y-115317380D01*
X152104847Y-115317380D01*
X150819133Y-114317380D02*
X151009609Y-114317380D01*
X151104847Y-114365000D01*
X151152466Y-114412619D01*
X151247704Y-114555476D01*
X151295323Y-114745952D01*
X151295323Y-115126904D01*
X151247704Y-115222142D01*
X151200085Y-115269761D01*
X151104847Y-115317380D01*
X150914371Y-115317380D01*
X150819133Y-115269761D01*
X150771514Y-115222142D01*
X150723895Y-115126904D01*
X150723895Y-114888809D01*
X150771514Y-114793571D01*
X150819133Y-114745952D01*
X150914371Y-114698333D01*
X151104847Y-114698333D01*
X151200085Y-114745952D01*
X151247704Y-114793571D01*
X151295323Y-114888809D01*
X118390575Y-114317380D02*
X118390575Y-115031666D01*
X118438194Y-115174523D01*
X118533432Y-115269761D01*
X118676289Y-115317380D01*
X118771527Y-115317380D01*
X117485813Y-114317380D02*
X117676289Y-114317380D01*
X117771527Y-114365000D01*
X117819146Y-114412619D01*
X117914384Y-114555476D01*
X117962003Y-114745952D01*
X117962003Y-115126904D01*
X117914384Y-115222142D01*
X117866765Y-115269761D01*
X117771527Y-115317380D01*
X117581051Y-115317380D01*
X117485813Y-115269761D01*
X117438194Y-115222142D01*
X117390575Y-115126904D01*
X117390575Y-114888809D01*
X117438194Y-114793571D01*
X117485813Y-114745952D01*
X117581051Y-114698333D01*
X117771527Y-114698333D01*
X117866765Y-114745952D01*
X117914384Y-114793571D01*
X117962003Y-114888809D01*
X135057235Y-101817380D02*
X135057235Y-102531666D01*
X135104854Y-102674523D01*
X135200092Y-102769761D01*
X135342949Y-102817380D01*
X135438187Y-102817380D01*
X134152473Y-101817380D02*
X134342949Y-101817380D01*
X134438187Y-101865000D01*
X134485806Y-101912619D01*
X134581044Y-102055476D01*
X134628663Y-102245952D01*
X134628663Y-102626904D01*
X134581044Y-102722142D01*
X134533425Y-102769761D01*
X134438187Y-102817380D01*
X134247711Y-102817380D01*
X134152473Y-102769761D01*
X134104854Y-102722142D01*
X134057235Y-102626904D01*
X134057235Y-102388809D01*
X134104854Y-102293571D01*
X134152473Y-102245952D01*
X134247711Y-102198333D01*
X134438187Y-102198333D01*
X134533425Y-102245952D01*
X134581044Y-102293571D01*
X134628663Y-102388809D01*
X135057235Y-114067380D02*
X135057235Y-114781666D01*
X135104854Y-114924523D01*
X135200092Y-115019761D01*
X135342949Y-115067380D01*
X135438187Y-115067380D01*
X134152473Y-114067380D02*
X134342949Y-114067380D01*
X134438187Y-114115000D01*
X134485806Y-114162619D01*
X134581044Y-114305476D01*
X134628663Y-114495952D01*
X134628663Y-114876904D01*
X134581044Y-114972142D01*
X134533425Y-115019761D01*
X134438187Y-115067380D01*
X134247711Y-115067380D01*
X134152473Y-115019761D01*
X134104854Y-114972142D01*
X134057235Y-114876904D01*
X134057235Y-114638809D01*
X134104854Y-114543571D01*
X134152473Y-114495952D01*
X134247711Y-114448333D01*
X134438187Y-114448333D01*
X134533425Y-114495952D01*
X134581044Y-114543571D01*
X134628663Y-114638809D01*
X118390575Y-101817380D02*
X118390575Y-102531666D01*
X118438194Y-102674523D01*
X118533432Y-102769761D01*
X118676289Y-102817380D01*
X118771527Y-102817380D01*
X117485813Y-101817380D02*
X117676289Y-101817380D01*
X117771527Y-101865000D01*
X117819146Y-101912619D01*
X117914384Y-102055476D01*
X117962003Y-102245952D01*
X117962003Y-102626904D01*
X117914384Y-102722142D01*
X117866765Y-102769761D01*
X117771527Y-102817380D01*
X117581051Y-102817380D01*
X117485813Y-102769761D01*
X117438194Y-102722142D01*
X117390575Y-102626904D01*
X117390575Y-102388809D01*
X117438194Y-102293571D01*
X117485813Y-102245952D01*
X117581051Y-102198333D01*
X117771527Y-102198333D01*
X117866765Y-102245952D01*
X117914384Y-102293571D01*
X117962003Y-102388809D01*
X151723895Y-101817380D02*
X151723895Y-102531666D01*
X151771514Y-102674523D01*
X151866752Y-102769761D01*
X152009609Y-102817380D01*
X152104847Y-102817380D01*
X150819133Y-101817380D02*
X151009609Y-101817380D01*
X151104847Y-101865000D01*
X151152466Y-101912619D01*
X151247704Y-102055476D01*
X151295323Y-102245952D01*
X151295323Y-102626904D01*
X151247704Y-102722142D01*
X151200085Y-102769761D01*
X151104847Y-102817380D01*
X150914371Y-102817380D01*
X150819133Y-102769761D01*
X150771514Y-102722142D01*
X150723895Y-102626904D01*
X150723895Y-102388809D01*
X150771514Y-102293571D01*
X150819133Y-102245952D01*
X150914371Y-102198333D01*
X151104847Y-102198333D01*
X151200085Y-102245952D01*
X151247704Y-102293571D01*
X151295323Y-102388809D01*
X185057215Y-114317380D02*
X185057215Y-115031666D01*
X185104834Y-115174523D01*
X185200072Y-115269761D01*
X185342929Y-115317380D01*
X185438167Y-115317380D01*
X184152453Y-114317380D02*
X184342929Y-114317380D01*
X184438167Y-114365000D01*
X184485786Y-114412619D01*
X184581024Y-114555476D01*
X184628643Y-114745952D01*
X184628643Y-115126904D01*
X184581024Y-115222142D01*
X184533405Y-115269761D01*
X184438167Y-115317380D01*
X184247691Y-115317380D01*
X184152453Y-115269761D01*
X184104834Y-115222142D01*
X184057215Y-115126904D01*
X184057215Y-114888809D01*
X184104834Y-114793571D01*
X184152453Y-114745952D01*
X184247691Y-114698333D01*
X184438167Y-114698333D01*
X184533405Y-114745952D01*
X184581024Y-114793571D01*
X184628643Y-114888809D01*
X235057195Y-114317380D02*
X235057195Y-115031666D01*
X235104814Y-115174523D01*
X235200052Y-115269761D01*
X235342909Y-115317380D01*
X235438147Y-115317380D01*
X234152433Y-114317380D02*
X234342909Y-114317380D01*
X234438147Y-114365000D01*
X234485766Y-114412619D01*
X234581004Y-114555476D01*
X234628623Y-114745952D01*
X234628623Y-115126904D01*
X234581004Y-115222142D01*
X234533385Y-115269761D01*
X234438147Y-115317380D01*
X234247671Y-115317380D01*
X234152433Y-115269761D01*
X234104814Y-115222142D01*
X234057195Y-115126904D01*
X234057195Y-114888809D01*
X234104814Y-114793571D01*
X234152433Y-114745952D01*
X234247671Y-114698333D01*
X234438147Y-114698333D01*
X234533385Y-114745952D01*
X234581004Y-114793571D01*
X234628623Y-114888809D01*
X235057195Y-101817380D02*
X235057195Y-102531666D01*
X235104814Y-102674523D01*
X235200052Y-102769761D01*
X235342909Y-102817380D01*
X235438147Y-102817380D01*
X234152433Y-101817380D02*
X234342909Y-101817380D01*
X234438147Y-101865000D01*
X234485766Y-101912619D01*
X234581004Y-102055476D01*
X234628623Y-102245952D01*
X234628623Y-102626904D01*
X234581004Y-102722142D01*
X234533385Y-102769761D01*
X234438147Y-102817380D01*
X234247671Y-102817380D01*
X234152433Y-102769761D01*
X234104814Y-102722142D01*
X234057195Y-102626904D01*
X234057195Y-102388809D01*
X234104814Y-102293571D01*
X234152433Y-102245952D01*
X234247671Y-102198333D01*
X234438147Y-102198333D01*
X234533385Y-102245952D01*
X234581004Y-102293571D01*
X234628623Y-102388809D01*
X185057215Y-101817380D02*
X185057215Y-102531666D01*
X185104834Y-102674523D01*
X185200072Y-102769761D01*
X185342929Y-102817380D01*
X185438167Y-102817380D01*
X184152453Y-101817380D02*
X184342929Y-101817380D01*
X184438167Y-101865000D01*
X184485786Y-101912619D01*
X184581024Y-102055476D01*
X184628643Y-102245952D01*
X184628643Y-102626904D01*
X184581024Y-102722142D01*
X184533405Y-102769761D01*
X184438167Y-102817380D01*
X184247691Y-102817380D01*
X184152453Y-102769761D01*
X184104834Y-102722142D01*
X184057215Y-102626904D01*
X184057215Y-102388809D01*
X184104834Y-102293571D01*
X184152453Y-102245952D01*
X184247691Y-102198333D01*
X184438167Y-102198333D01*
X184533405Y-102245952D01*
X184581024Y-102293571D01*
X184628643Y-102388809D01*
X168390555Y-114067380D02*
X168390555Y-114781666D01*
X168438174Y-114924523D01*
X168533412Y-115019761D01*
X168676269Y-115067380D01*
X168771507Y-115067380D01*
X167485793Y-114067380D02*
X167676269Y-114067380D01*
X167771507Y-114115000D01*
X167819126Y-114162619D01*
X167914364Y-114305476D01*
X167961983Y-114495952D01*
X167961983Y-114876904D01*
X167914364Y-114972142D01*
X167866745Y-115019761D01*
X167771507Y-115067380D01*
X167581031Y-115067380D01*
X167485793Y-115019761D01*
X167438174Y-114972142D01*
X167390555Y-114876904D01*
X167390555Y-114638809D01*
X167438174Y-114543571D01*
X167485793Y-114495952D01*
X167581031Y-114448333D01*
X167771507Y-114448333D01*
X167866745Y-114495952D01*
X167914364Y-114543571D01*
X167961983Y-114638809D01*
X251723855Y-101817380D02*
X251723855Y-102531666D01*
X251771474Y-102674523D01*
X251866712Y-102769761D01*
X252009569Y-102817380D01*
X252104807Y-102817380D01*
X250819093Y-101817380D02*
X251009569Y-101817380D01*
X251104807Y-101865000D01*
X251152426Y-101912619D01*
X251247664Y-102055476D01*
X251295283Y-102245952D01*
X251295283Y-102626904D01*
X251247664Y-102722142D01*
X251200045Y-102769761D01*
X251104807Y-102817380D01*
X250914331Y-102817380D01*
X250819093Y-102769761D01*
X250771474Y-102722142D01*
X250723855Y-102626904D01*
X250723855Y-102388809D01*
X250771474Y-102293571D01*
X250819093Y-102245952D01*
X250914331Y-102198333D01*
X251104807Y-102198333D01*
X251200045Y-102245952D01*
X251247664Y-102293571D01*
X251295283Y-102388809D01*
X251723855Y-114317380D02*
X251723855Y-115031666D01*
X251771474Y-115174523D01*
X251866712Y-115269761D01*
X252009569Y-115317380D01*
X252104807Y-115317380D01*
X250819093Y-114317380D02*
X251009569Y-114317380D01*
X251104807Y-114365000D01*
X251152426Y-114412619D01*
X251247664Y-114555476D01*
X251295283Y-114745952D01*
X251295283Y-115126904D01*
X251247664Y-115222142D01*
X251200045Y-115269761D01*
X251104807Y-115317380D01*
X250914331Y-115317380D01*
X250819093Y-115269761D01*
X250771474Y-115222142D01*
X250723855Y-115126904D01*
X250723855Y-114888809D01*
X250771474Y-114793571D01*
X250819093Y-114745952D01*
X250914331Y-114698333D01*
X251104807Y-114698333D01*
X251200045Y-114745952D01*
X251247664Y-114793571D01*
X251295283Y-114888809D01*
X168390555Y-101817380D02*
X168390555Y-102531666D01*
X168438174Y-102674523D01*
X168533412Y-102769761D01*
X168676269Y-102817380D01*
X168771507Y-102817380D01*
X167485793Y-101817380D02*
X167676269Y-101817380D01*
X167771507Y-101865000D01*
X167819126Y-101912619D01*
X167914364Y-102055476D01*
X167961983Y-102245952D01*
X167961983Y-102626904D01*
X167914364Y-102722142D01*
X167866745Y-102769761D01*
X167771507Y-102817380D01*
X167581031Y-102817380D01*
X167485793Y-102769761D01*
X167438174Y-102722142D01*
X167390555Y-102626904D01*
X167390555Y-102388809D01*
X167438174Y-102293571D01*
X167485793Y-102245952D01*
X167581031Y-102198333D01*
X167771507Y-102198333D01*
X167866745Y-102245952D01*
X167914364Y-102293571D01*
X167961983Y-102388809D01*
X268390515Y-114317380D02*
X268390515Y-115031666D01*
X268438134Y-115174523D01*
X268533372Y-115269761D01*
X268676229Y-115317380D01*
X268771467Y-115317380D01*
X267485753Y-114317380D02*
X267676229Y-114317380D01*
X267771467Y-114365000D01*
X267819086Y-114412619D01*
X267914324Y-114555476D01*
X267961943Y-114745952D01*
X267961943Y-115126904D01*
X267914324Y-115222142D01*
X267866705Y-115269761D01*
X267771467Y-115317380D01*
X267580991Y-115317380D01*
X267485753Y-115269761D01*
X267438134Y-115222142D01*
X267390515Y-115126904D01*
X267390515Y-114888809D01*
X267438134Y-114793571D01*
X267485753Y-114745952D01*
X267580991Y-114698333D01*
X267771467Y-114698333D01*
X267866705Y-114745952D01*
X267914324Y-114793571D01*
X267961943Y-114888809D01*
X268390515Y-67817380D02*
X268390515Y-68531666D01*
X268438134Y-68674523D01*
X268533372Y-68769761D01*
X268676229Y-68817380D01*
X268771467Y-68817380D01*
X267485753Y-67817380D02*
X267676229Y-67817380D01*
X267771467Y-67865000D01*
X267819086Y-67912619D01*
X267914324Y-68055476D01*
X267961943Y-68245952D01*
X267961943Y-68626904D01*
X267914324Y-68722142D01*
X267866705Y-68769761D01*
X267771467Y-68817380D01*
X267580991Y-68817380D01*
X267485753Y-68769761D01*
X267438134Y-68722142D01*
X267390515Y-68626904D01*
X267390515Y-68388809D01*
X267438134Y-68293571D01*
X267485753Y-68245952D01*
X267580991Y-68198333D01*
X267771467Y-68198333D01*
X267866705Y-68245952D01*
X267914324Y-68293571D01*
X267961943Y-68388809D01*
X85057255Y-80067380D02*
X85057255Y-80781666D01*
X85104874Y-80924523D01*
X85200112Y-81019761D01*
X85342969Y-81067380D01*
X85438207Y-81067380D01*
X84152493Y-80067380D02*
X84342969Y-80067380D01*
X84438207Y-80115000D01*
X84485826Y-80162619D01*
X84581064Y-80305476D01*
X84628683Y-80495952D01*
X84628683Y-80876904D01*
X84581064Y-80972142D01*
X84533445Y-81019761D01*
X84438207Y-81067380D01*
X84247731Y-81067380D01*
X84152493Y-81019761D01*
X84104874Y-80972142D01*
X84057255Y-80876904D01*
X84057255Y-80638809D01*
X84104874Y-80543571D01*
X84152493Y-80495952D01*
X84247731Y-80448333D01*
X84438207Y-80448333D01*
X84533445Y-80495952D01*
X84581064Y-80543571D01*
X84628683Y-80638809D01*
X218390535Y-67817380D02*
X218390535Y-68531666D01*
X218438154Y-68674523D01*
X218533392Y-68769761D01*
X218676249Y-68817380D01*
X218771487Y-68817380D01*
X217485773Y-67817380D02*
X217676249Y-67817380D01*
X217771487Y-67865000D01*
X217819106Y-67912619D01*
X217914344Y-68055476D01*
X217961963Y-68245952D01*
X217961963Y-68626904D01*
X217914344Y-68722142D01*
X217866725Y-68769761D01*
X217771487Y-68817380D01*
X217581011Y-68817380D01*
X217485773Y-68769761D01*
X217438154Y-68722142D01*
X217390535Y-68626904D01*
X217390535Y-68388809D01*
X217438154Y-68293571D01*
X217485773Y-68245952D01*
X217581011Y-68198333D01*
X217771487Y-68198333D01*
X217866725Y-68245952D01*
X217914344Y-68293571D01*
X217961963Y-68388809D01*
X201723875Y-80317380D02*
X201723875Y-81031666D01*
X201771494Y-81174523D01*
X201866732Y-81269761D01*
X202009589Y-81317380D01*
X202104827Y-81317380D01*
X200819113Y-80317380D02*
X201009589Y-80317380D01*
X201104827Y-80365000D01*
X201152446Y-80412619D01*
X201247684Y-80555476D01*
X201295303Y-80745952D01*
X201295303Y-81126904D01*
X201247684Y-81222142D01*
X201200065Y-81269761D01*
X201104827Y-81317380D01*
X200914351Y-81317380D01*
X200819113Y-81269761D01*
X200771494Y-81222142D01*
X200723875Y-81126904D01*
X200723875Y-80888809D01*
X200771494Y-80793571D01*
X200819113Y-80745952D01*
X200914351Y-80698333D01*
X201104827Y-80698333D01*
X201200065Y-80745952D01*
X201247684Y-80793571D01*
X201295303Y-80888809D01*
X218390535Y-80317380D02*
X218390535Y-81031666D01*
X218438154Y-81174523D01*
X218533392Y-81269761D01*
X218676249Y-81317380D01*
X218771487Y-81317380D01*
X217485773Y-80317380D02*
X217676249Y-80317380D01*
X217771487Y-80365000D01*
X217819106Y-80412619D01*
X217914344Y-80555476D01*
X217961963Y-80745952D01*
X217961963Y-81126904D01*
X217914344Y-81222142D01*
X217866725Y-81269761D01*
X217771487Y-81317380D01*
X217581011Y-81317380D01*
X217485773Y-81269761D01*
X217438154Y-81222142D01*
X217390535Y-81126904D01*
X217390535Y-80888809D01*
X217438154Y-80793571D01*
X217485773Y-80745952D01*
X217581011Y-80698333D01*
X217771487Y-80698333D01*
X217866725Y-80745952D01*
X217914344Y-80793571D01*
X217961963Y-80888809D01*
X201723875Y-67817380D02*
X201723875Y-68531666D01*
X201771494Y-68674523D01*
X201866732Y-68769761D01*
X202009589Y-68817380D01*
X202104827Y-68817380D01*
X200819113Y-67817380D02*
X201009589Y-67817380D01*
X201104827Y-67865000D01*
X201152446Y-67912619D01*
X201247684Y-68055476D01*
X201295303Y-68245952D01*
X201295303Y-68626904D01*
X201247684Y-68722142D01*
X201200065Y-68769761D01*
X201104827Y-68817380D01*
X200914351Y-68817380D01*
X200819113Y-68769761D01*
X200771494Y-68722142D01*
X200723875Y-68626904D01*
X200723875Y-68388809D01*
X200771494Y-68293571D01*
X200819113Y-68245952D01*
X200914351Y-68198333D01*
X201104827Y-68198333D01*
X201200065Y-68245952D01*
X201247684Y-68293571D01*
X201295303Y-68388809D01*
X85057255Y-67817380D02*
X85057255Y-68531666D01*
X85104874Y-68674523D01*
X85200112Y-68769761D01*
X85342969Y-68817380D01*
X85438207Y-68817380D01*
X84152493Y-67817380D02*
X84342969Y-67817380D01*
X84438207Y-67865000D01*
X84485826Y-67912619D01*
X84581064Y-68055476D01*
X84628683Y-68245952D01*
X84628683Y-68626904D01*
X84581064Y-68722142D01*
X84533445Y-68769761D01*
X84438207Y-68817380D01*
X84247731Y-68817380D01*
X84152493Y-68769761D01*
X84104874Y-68722142D01*
X84057255Y-68626904D01*
X84057255Y-68388809D01*
X84104874Y-68293571D01*
X84152493Y-68245952D01*
X84247731Y-68198333D01*
X84438207Y-68198333D01*
X84533445Y-68245952D01*
X84581064Y-68293571D01*
X84628683Y-68388809D01*
X101723915Y-80317380D02*
X101723915Y-81031666D01*
X101771534Y-81174523D01*
X101866772Y-81269761D01*
X102009629Y-81317380D01*
X102104867Y-81317380D01*
X100819153Y-80317380D02*
X101009629Y-80317380D01*
X101104867Y-80365000D01*
X101152486Y-80412619D01*
X101247724Y-80555476D01*
X101295343Y-80745952D01*
X101295343Y-81126904D01*
X101247724Y-81222142D01*
X101200105Y-81269761D01*
X101104867Y-81317380D01*
X100914391Y-81317380D01*
X100819153Y-81269761D01*
X100771534Y-81222142D01*
X100723915Y-81126904D01*
X100723915Y-80888809D01*
X100771534Y-80793571D01*
X100819153Y-80745952D01*
X100914391Y-80698333D01*
X101104867Y-80698333D01*
X101200105Y-80745952D01*
X101247724Y-80793571D01*
X101295343Y-80888809D01*
X101723915Y-67817380D02*
X101723915Y-68531666D01*
X101771534Y-68674523D01*
X101866772Y-68769761D01*
X102009629Y-68817380D01*
X102104867Y-68817380D01*
X100819153Y-67817380D02*
X101009629Y-67817380D01*
X101104867Y-67865000D01*
X101152486Y-67912619D01*
X101247724Y-68055476D01*
X101295343Y-68245952D01*
X101295343Y-68626904D01*
X101247724Y-68722142D01*
X101200105Y-68769761D01*
X101104867Y-68817380D01*
X100914391Y-68817380D01*
X100819153Y-68769761D01*
X100771534Y-68722142D01*
X100723915Y-68626904D01*
X100723915Y-68388809D01*
X100771534Y-68293571D01*
X100819153Y-68245952D01*
X100914391Y-68198333D01*
X101104867Y-68198333D01*
X101200105Y-68245952D01*
X101247724Y-68293571D01*
X101295343Y-68388809D01*
X151723895Y-80317380D02*
X151723895Y-81031666D01*
X151771514Y-81174523D01*
X151866752Y-81269761D01*
X152009609Y-81317380D01*
X152104847Y-81317380D01*
X150819133Y-80317380D02*
X151009609Y-80317380D01*
X151104847Y-80365000D01*
X151152466Y-80412619D01*
X151247704Y-80555476D01*
X151295323Y-80745952D01*
X151295323Y-81126904D01*
X151247704Y-81222142D01*
X151200085Y-81269761D01*
X151104847Y-81317380D01*
X150914371Y-81317380D01*
X150819133Y-81269761D01*
X150771514Y-81222142D01*
X150723895Y-81126904D01*
X150723895Y-80888809D01*
X150771514Y-80793571D01*
X150819133Y-80745952D01*
X150914371Y-80698333D01*
X151104847Y-80698333D01*
X151200085Y-80745952D01*
X151247704Y-80793571D01*
X151295323Y-80888809D01*
X118390575Y-80317380D02*
X118390575Y-81031666D01*
X118438194Y-81174523D01*
X118533432Y-81269761D01*
X118676289Y-81317380D01*
X118771527Y-81317380D01*
X117485813Y-80317380D02*
X117676289Y-80317380D01*
X117771527Y-80365000D01*
X117819146Y-80412619D01*
X117914384Y-80555476D01*
X117962003Y-80745952D01*
X117962003Y-81126904D01*
X117914384Y-81222142D01*
X117866765Y-81269761D01*
X117771527Y-81317380D01*
X117581051Y-81317380D01*
X117485813Y-81269761D01*
X117438194Y-81222142D01*
X117390575Y-81126904D01*
X117390575Y-80888809D01*
X117438194Y-80793571D01*
X117485813Y-80745952D01*
X117581051Y-80698333D01*
X117771527Y-80698333D01*
X117866765Y-80745952D01*
X117914384Y-80793571D01*
X117962003Y-80888809D01*
X135057235Y-67817380D02*
X135057235Y-68531666D01*
X135104854Y-68674523D01*
X135200092Y-68769761D01*
X135342949Y-68817380D01*
X135438187Y-68817380D01*
X134152473Y-67817380D02*
X134342949Y-67817380D01*
X134438187Y-67865000D01*
X134485806Y-67912619D01*
X134581044Y-68055476D01*
X134628663Y-68245952D01*
X134628663Y-68626904D01*
X134581044Y-68722142D01*
X134533425Y-68769761D01*
X134438187Y-68817380D01*
X134247711Y-68817380D01*
X134152473Y-68769761D01*
X134104854Y-68722142D01*
X134057235Y-68626904D01*
X134057235Y-68388809D01*
X134104854Y-68293571D01*
X134152473Y-68245952D01*
X134247711Y-68198333D01*
X134438187Y-68198333D01*
X134533425Y-68245952D01*
X134581044Y-68293571D01*
X134628663Y-68388809D01*
X135057235Y-80067380D02*
X135057235Y-80781666D01*
X135104854Y-80924523D01*
X135200092Y-81019761D01*
X135342949Y-81067380D01*
X135438187Y-81067380D01*
X134152473Y-80067380D02*
X134342949Y-80067380D01*
X134438187Y-80115000D01*
X134485806Y-80162619D01*
X134581044Y-80305476D01*
X134628663Y-80495952D01*
X134628663Y-80876904D01*
X134581044Y-80972142D01*
X134533425Y-81019761D01*
X134438187Y-81067380D01*
X134247711Y-81067380D01*
X134152473Y-81019761D01*
X134104854Y-80972142D01*
X134057235Y-80876904D01*
X134057235Y-80638809D01*
X134104854Y-80543571D01*
X134152473Y-80495952D01*
X134247711Y-80448333D01*
X134438187Y-80448333D01*
X134533425Y-80495952D01*
X134581044Y-80543571D01*
X134628663Y-80638809D01*
X118390575Y-67817380D02*
X118390575Y-68531666D01*
X118438194Y-68674523D01*
X118533432Y-68769761D01*
X118676289Y-68817380D01*
X118771527Y-68817380D01*
X117485813Y-67817380D02*
X117676289Y-67817380D01*
X117771527Y-67865000D01*
X117819146Y-67912619D01*
X117914384Y-68055476D01*
X117962003Y-68245952D01*
X117962003Y-68626904D01*
X117914384Y-68722142D01*
X117866765Y-68769761D01*
X117771527Y-68817380D01*
X117581051Y-68817380D01*
X117485813Y-68769761D01*
X117438194Y-68722142D01*
X117390575Y-68626904D01*
X117390575Y-68388809D01*
X117438194Y-68293571D01*
X117485813Y-68245952D01*
X117581051Y-68198333D01*
X117771527Y-68198333D01*
X117866765Y-68245952D01*
X117914384Y-68293571D01*
X117962003Y-68388809D01*
X151723895Y-67817380D02*
X151723895Y-68531666D01*
X151771514Y-68674523D01*
X151866752Y-68769761D01*
X152009609Y-68817380D01*
X152104847Y-68817380D01*
X150819133Y-67817380D02*
X151009609Y-67817380D01*
X151104847Y-67865000D01*
X151152466Y-67912619D01*
X151247704Y-68055476D01*
X151295323Y-68245952D01*
X151295323Y-68626904D01*
X151247704Y-68722142D01*
X151200085Y-68769761D01*
X151104847Y-68817380D01*
X150914371Y-68817380D01*
X150819133Y-68769761D01*
X150771514Y-68722142D01*
X150723895Y-68626904D01*
X150723895Y-68388809D01*
X150771514Y-68293571D01*
X150819133Y-68245952D01*
X150914371Y-68198333D01*
X151104847Y-68198333D01*
X151200085Y-68245952D01*
X151247704Y-68293571D01*
X151295323Y-68388809D01*
X185057215Y-80317380D02*
X185057215Y-81031666D01*
X185104834Y-81174523D01*
X185200072Y-81269761D01*
X185342929Y-81317380D01*
X185438167Y-81317380D01*
X184152453Y-80317380D02*
X184342929Y-80317380D01*
X184438167Y-80365000D01*
X184485786Y-80412619D01*
X184581024Y-80555476D01*
X184628643Y-80745952D01*
X184628643Y-81126904D01*
X184581024Y-81222142D01*
X184533405Y-81269761D01*
X184438167Y-81317380D01*
X184247691Y-81317380D01*
X184152453Y-81269761D01*
X184104834Y-81222142D01*
X184057215Y-81126904D01*
X184057215Y-80888809D01*
X184104834Y-80793571D01*
X184152453Y-80745952D01*
X184247691Y-80698333D01*
X184438167Y-80698333D01*
X184533405Y-80745952D01*
X184581024Y-80793571D01*
X184628643Y-80888809D01*
X235057195Y-80317380D02*
X235057195Y-81031666D01*
X235104814Y-81174523D01*
X235200052Y-81269761D01*
X235342909Y-81317380D01*
X235438147Y-81317380D01*
X234152433Y-80317380D02*
X234342909Y-80317380D01*
X234438147Y-80365000D01*
X234485766Y-80412619D01*
X234581004Y-80555476D01*
X234628623Y-80745952D01*
X234628623Y-81126904D01*
X234581004Y-81222142D01*
X234533385Y-81269761D01*
X234438147Y-81317380D01*
X234247671Y-81317380D01*
X234152433Y-81269761D01*
X234104814Y-81222142D01*
X234057195Y-81126904D01*
X234057195Y-80888809D01*
X234104814Y-80793571D01*
X234152433Y-80745952D01*
X234247671Y-80698333D01*
X234438147Y-80698333D01*
X234533385Y-80745952D01*
X234581004Y-80793571D01*
X234628623Y-80888809D01*
X235057195Y-67817380D02*
X235057195Y-68531666D01*
X235104814Y-68674523D01*
X235200052Y-68769761D01*
X235342909Y-68817380D01*
X235438147Y-68817380D01*
X234152433Y-67817380D02*
X234342909Y-67817380D01*
X234438147Y-67865000D01*
X234485766Y-67912619D01*
X234581004Y-68055476D01*
X234628623Y-68245952D01*
X234628623Y-68626904D01*
X234581004Y-68722142D01*
X234533385Y-68769761D01*
X234438147Y-68817380D01*
X234247671Y-68817380D01*
X234152433Y-68769761D01*
X234104814Y-68722142D01*
X234057195Y-68626904D01*
X234057195Y-68388809D01*
X234104814Y-68293571D01*
X234152433Y-68245952D01*
X234247671Y-68198333D01*
X234438147Y-68198333D01*
X234533385Y-68245952D01*
X234581004Y-68293571D01*
X234628623Y-68388809D01*
X185057215Y-67817380D02*
X185057215Y-68531666D01*
X185104834Y-68674523D01*
X185200072Y-68769761D01*
X185342929Y-68817380D01*
X185438167Y-68817380D01*
X184152453Y-67817380D02*
X184342929Y-67817380D01*
X184438167Y-67865000D01*
X184485786Y-67912619D01*
X184581024Y-68055476D01*
X184628643Y-68245952D01*
X184628643Y-68626904D01*
X184581024Y-68722142D01*
X184533405Y-68769761D01*
X184438167Y-68817380D01*
X184247691Y-68817380D01*
X184152453Y-68769761D01*
X184104834Y-68722142D01*
X184057215Y-68626904D01*
X184057215Y-68388809D01*
X184104834Y-68293571D01*
X184152453Y-68245952D01*
X184247691Y-68198333D01*
X184438167Y-68198333D01*
X184533405Y-68245952D01*
X184581024Y-68293571D01*
X184628643Y-68388809D01*
X168390555Y-80067380D02*
X168390555Y-80781666D01*
X168438174Y-80924523D01*
X168533412Y-81019761D01*
X168676269Y-81067380D01*
X168771507Y-81067380D01*
X167485793Y-80067380D02*
X167676269Y-80067380D01*
X167771507Y-80115000D01*
X167819126Y-80162619D01*
X167914364Y-80305476D01*
X167961983Y-80495952D01*
X167961983Y-80876904D01*
X167914364Y-80972142D01*
X167866745Y-81019761D01*
X167771507Y-81067380D01*
X167581031Y-81067380D01*
X167485793Y-81019761D01*
X167438174Y-80972142D01*
X167390555Y-80876904D01*
X167390555Y-80638809D01*
X167438174Y-80543571D01*
X167485793Y-80495952D01*
X167581031Y-80448333D01*
X167771507Y-80448333D01*
X167866745Y-80495952D01*
X167914364Y-80543571D01*
X167961983Y-80638809D01*
X251723855Y-67817380D02*
X251723855Y-68531666D01*
X251771474Y-68674523D01*
X251866712Y-68769761D01*
X252009569Y-68817380D01*
X252104807Y-68817380D01*
X250819093Y-67817380D02*
X251009569Y-67817380D01*
X251104807Y-67865000D01*
X251152426Y-67912619D01*
X251247664Y-68055476D01*
X251295283Y-68245952D01*
X251295283Y-68626904D01*
X251247664Y-68722142D01*
X251200045Y-68769761D01*
X251104807Y-68817380D01*
X250914331Y-68817380D01*
X250819093Y-68769761D01*
X250771474Y-68722142D01*
X250723855Y-68626904D01*
X250723855Y-68388809D01*
X250771474Y-68293571D01*
X250819093Y-68245952D01*
X250914331Y-68198333D01*
X251104807Y-68198333D01*
X251200045Y-68245952D01*
X251247664Y-68293571D01*
X251295283Y-68388809D01*
X251723855Y-80317380D02*
X251723855Y-81031666D01*
X251771474Y-81174523D01*
X251866712Y-81269761D01*
X252009569Y-81317380D01*
X252104807Y-81317380D01*
X250819093Y-80317380D02*
X251009569Y-80317380D01*
X251104807Y-80365000D01*
X251152426Y-80412619D01*
X251247664Y-80555476D01*
X251295283Y-80745952D01*
X251295283Y-81126904D01*
X251247664Y-81222142D01*
X251200045Y-81269761D01*
X251104807Y-81317380D01*
X250914331Y-81317380D01*
X250819093Y-81269761D01*
X250771474Y-81222142D01*
X250723855Y-81126904D01*
X250723855Y-80888809D01*
X250771474Y-80793571D01*
X250819093Y-80745952D01*
X250914331Y-80698333D01*
X251104807Y-80698333D01*
X251200045Y-80745952D01*
X251247664Y-80793571D01*
X251295283Y-80888809D01*
X168390555Y-67817380D02*
X168390555Y-68531666D01*
X168438174Y-68674523D01*
X168533412Y-68769761D01*
X168676269Y-68817380D01*
X168771507Y-68817380D01*
X167485793Y-67817380D02*
X167676269Y-67817380D01*
X167771507Y-67865000D01*
X167819126Y-67912619D01*
X167914364Y-68055476D01*
X167961983Y-68245952D01*
X167961983Y-68626904D01*
X167914364Y-68722142D01*
X167866745Y-68769761D01*
X167771507Y-68817380D01*
X167581031Y-68817380D01*
X167485793Y-68769761D01*
X167438174Y-68722142D01*
X167390555Y-68626904D01*
X167390555Y-68388809D01*
X167438174Y-68293571D01*
X167485793Y-68245952D01*
X167581031Y-68198333D01*
X167771507Y-68198333D01*
X167866745Y-68245952D01*
X167914364Y-68293571D01*
X167961983Y-68388809D01*
X268390515Y-80317380D02*
X268390515Y-81031666D01*
X268438134Y-81174523D01*
X268533372Y-81269761D01*
X268676229Y-81317380D01*
X268771467Y-81317380D01*
X267485753Y-80317380D02*
X267676229Y-80317380D01*
X267771467Y-80365000D01*
X267819086Y-80412619D01*
X267914324Y-80555476D01*
X267961943Y-80745952D01*
X267961943Y-81126904D01*
X267914324Y-81222142D01*
X267866705Y-81269761D01*
X267771467Y-81317380D01*
X267580991Y-81317380D01*
X267485753Y-81269761D01*
X267438134Y-81222142D01*
X267390515Y-81126904D01*
X267390515Y-80888809D01*
X267438134Y-80793571D01*
X267485753Y-80745952D01*
X267580991Y-80698333D01*
X267771467Y-80698333D01*
X267866705Y-80745952D01*
X267914324Y-80793571D01*
X267961943Y-80888809D01*
X268390515Y-93317380D02*
X268390515Y-94031666D01*
X268438134Y-94174523D01*
X268533372Y-94269761D01*
X268676229Y-94317380D01*
X268771467Y-94317380D01*
X267485753Y-93317380D02*
X267676229Y-93317380D01*
X267771467Y-93365000D01*
X267819086Y-93412619D01*
X267914324Y-93555476D01*
X267961943Y-93745952D01*
X267961943Y-94126904D01*
X267914324Y-94222142D01*
X267866705Y-94269761D01*
X267771467Y-94317380D01*
X267580991Y-94317380D01*
X267485753Y-94269761D01*
X267438134Y-94222142D01*
X267390515Y-94126904D01*
X267390515Y-93888809D01*
X267438134Y-93793571D01*
X267485753Y-93745952D01*
X267580991Y-93698333D01*
X267771467Y-93698333D01*
X267866705Y-93745952D01*
X267914324Y-93793571D01*
X267961943Y-93888809D01*
X85057255Y-105567380D02*
X85057255Y-106281666D01*
X85104874Y-106424523D01*
X85200112Y-106519761D01*
X85342969Y-106567380D01*
X85438207Y-106567380D01*
X84152493Y-105567380D02*
X84342969Y-105567380D01*
X84438207Y-105615000D01*
X84485826Y-105662619D01*
X84581064Y-105805476D01*
X84628683Y-105995952D01*
X84628683Y-106376904D01*
X84581064Y-106472142D01*
X84533445Y-106519761D01*
X84438207Y-106567380D01*
X84247731Y-106567380D01*
X84152493Y-106519761D01*
X84104874Y-106472142D01*
X84057255Y-106376904D01*
X84057255Y-106138809D01*
X84104874Y-106043571D01*
X84152493Y-105995952D01*
X84247731Y-105948333D01*
X84438207Y-105948333D01*
X84533445Y-105995952D01*
X84581064Y-106043571D01*
X84628683Y-106138809D01*
X218390535Y-93317380D02*
X218390535Y-94031666D01*
X218438154Y-94174523D01*
X218533392Y-94269761D01*
X218676249Y-94317380D01*
X218771487Y-94317380D01*
X217485773Y-93317380D02*
X217676249Y-93317380D01*
X217771487Y-93365000D01*
X217819106Y-93412619D01*
X217914344Y-93555476D01*
X217961963Y-93745952D01*
X217961963Y-94126904D01*
X217914344Y-94222142D01*
X217866725Y-94269761D01*
X217771487Y-94317380D01*
X217581011Y-94317380D01*
X217485773Y-94269761D01*
X217438154Y-94222142D01*
X217390535Y-94126904D01*
X217390535Y-93888809D01*
X217438154Y-93793571D01*
X217485773Y-93745952D01*
X217581011Y-93698333D01*
X217771487Y-93698333D01*
X217866725Y-93745952D01*
X217914344Y-93793571D01*
X217961963Y-93888809D01*
X201723875Y-105817380D02*
X201723875Y-106531666D01*
X201771494Y-106674523D01*
X201866732Y-106769761D01*
X202009589Y-106817380D01*
X202104827Y-106817380D01*
X200819113Y-105817380D02*
X201009589Y-105817380D01*
X201104827Y-105865000D01*
X201152446Y-105912619D01*
X201247684Y-106055476D01*
X201295303Y-106245952D01*
X201295303Y-106626904D01*
X201247684Y-106722142D01*
X201200065Y-106769761D01*
X201104827Y-106817380D01*
X200914351Y-106817380D01*
X200819113Y-106769761D01*
X200771494Y-106722142D01*
X200723875Y-106626904D01*
X200723875Y-106388809D01*
X200771494Y-106293571D01*
X200819113Y-106245952D01*
X200914351Y-106198333D01*
X201104827Y-106198333D01*
X201200065Y-106245952D01*
X201247684Y-106293571D01*
X201295303Y-106388809D01*
X218390535Y-105817380D02*
X218390535Y-106531666D01*
X218438154Y-106674523D01*
X218533392Y-106769761D01*
X218676249Y-106817380D01*
X218771487Y-106817380D01*
X217485773Y-105817380D02*
X217676249Y-105817380D01*
X217771487Y-105865000D01*
X217819106Y-105912619D01*
X217914344Y-106055476D01*
X217961963Y-106245952D01*
X217961963Y-106626904D01*
X217914344Y-106722142D01*
X217866725Y-106769761D01*
X217771487Y-106817380D01*
X217581011Y-106817380D01*
X217485773Y-106769761D01*
X217438154Y-106722142D01*
X217390535Y-106626904D01*
X217390535Y-106388809D01*
X217438154Y-106293571D01*
X217485773Y-106245952D01*
X217581011Y-106198333D01*
X217771487Y-106198333D01*
X217866725Y-106245952D01*
X217914344Y-106293571D01*
X217961963Y-106388809D01*
X201723875Y-93317380D02*
X201723875Y-94031666D01*
X201771494Y-94174523D01*
X201866732Y-94269761D01*
X202009589Y-94317380D01*
X202104827Y-94317380D01*
X200819113Y-93317380D02*
X201009589Y-93317380D01*
X201104827Y-93365000D01*
X201152446Y-93412619D01*
X201247684Y-93555476D01*
X201295303Y-93745952D01*
X201295303Y-94126904D01*
X201247684Y-94222142D01*
X201200065Y-94269761D01*
X201104827Y-94317380D01*
X200914351Y-94317380D01*
X200819113Y-94269761D01*
X200771494Y-94222142D01*
X200723875Y-94126904D01*
X200723875Y-93888809D01*
X200771494Y-93793571D01*
X200819113Y-93745952D01*
X200914351Y-93698333D01*
X201104827Y-93698333D01*
X201200065Y-93745952D01*
X201247684Y-93793571D01*
X201295303Y-93888809D01*
X85057255Y-93317380D02*
X85057255Y-94031666D01*
X85104874Y-94174523D01*
X85200112Y-94269761D01*
X85342969Y-94317380D01*
X85438207Y-94317380D01*
X84152493Y-93317380D02*
X84342969Y-93317380D01*
X84438207Y-93365000D01*
X84485826Y-93412619D01*
X84581064Y-93555476D01*
X84628683Y-93745952D01*
X84628683Y-94126904D01*
X84581064Y-94222142D01*
X84533445Y-94269761D01*
X84438207Y-94317380D01*
X84247731Y-94317380D01*
X84152493Y-94269761D01*
X84104874Y-94222142D01*
X84057255Y-94126904D01*
X84057255Y-93888809D01*
X84104874Y-93793571D01*
X84152493Y-93745952D01*
X84247731Y-93698333D01*
X84438207Y-93698333D01*
X84533445Y-93745952D01*
X84581064Y-93793571D01*
X84628683Y-93888809D01*
X101723915Y-105817380D02*
X101723915Y-106531666D01*
X101771534Y-106674523D01*
X101866772Y-106769761D01*
X102009629Y-106817380D01*
X102104867Y-106817380D01*
X100819153Y-105817380D02*
X101009629Y-105817380D01*
X101104867Y-105865000D01*
X101152486Y-105912619D01*
X101247724Y-106055476D01*
X101295343Y-106245952D01*
X101295343Y-106626904D01*
X101247724Y-106722142D01*
X101200105Y-106769761D01*
X101104867Y-106817380D01*
X100914391Y-106817380D01*
X100819153Y-106769761D01*
X100771534Y-106722142D01*
X100723915Y-106626904D01*
X100723915Y-106388809D01*
X100771534Y-106293571D01*
X100819153Y-106245952D01*
X100914391Y-106198333D01*
X101104867Y-106198333D01*
X101200105Y-106245952D01*
X101247724Y-106293571D01*
X101295343Y-106388809D01*
X101723915Y-93317380D02*
X101723915Y-94031666D01*
X101771534Y-94174523D01*
X101866772Y-94269761D01*
X102009629Y-94317380D01*
X102104867Y-94317380D01*
X100819153Y-93317380D02*
X101009629Y-93317380D01*
X101104867Y-93365000D01*
X101152486Y-93412619D01*
X101247724Y-93555476D01*
X101295343Y-93745952D01*
X101295343Y-94126904D01*
X101247724Y-94222142D01*
X101200105Y-94269761D01*
X101104867Y-94317380D01*
X100914391Y-94317380D01*
X100819153Y-94269761D01*
X100771534Y-94222142D01*
X100723915Y-94126904D01*
X100723915Y-93888809D01*
X100771534Y-93793571D01*
X100819153Y-93745952D01*
X100914391Y-93698333D01*
X101104867Y-93698333D01*
X101200105Y-93745952D01*
X101247724Y-93793571D01*
X101295343Y-93888809D01*
X151723895Y-105817380D02*
X151723895Y-106531666D01*
X151771514Y-106674523D01*
X151866752Y-106769761D01*
X152009609Y-106817380D01*
X152104847Y-106817380D01*
X150819133Y-105817380D02*
X151009609Y-105817380D01*
X151104847Y-105865000D01*
X151152466Y-105912619D01*
X151247704Y-106055476D01*
X151295323Y-106245952D01*
X151295323Y-106626904D01*
X151247704Y-106722142D01*
X151200085Y-106769761D01*
X151104847Y-106817380D01*
X150914371Y-106817380D01*
X150819133Y-106769761D01*
X150771514Y-106722142D01*
X150723895Y-106626904D01*
X150723895Y-106388809D01*
X150771514Y-106293571D01*
X150819133Y-106245952D01*
X150914371Y-106198333D01*
X151104847Y-106198333D01*
X151200085Y-106245952D01*
X151247704Y-106293571D01*
X151295323Y-106388809D01*
X118390575Y-105817380D02*
X118390575Y-106531666D01*
X118438194Y-106674523D01*
X118533432Y-106769761D01*
X118676289Y-106817380D01*
X118771527Y-106817380D01*
X117485813Y-105817380D02*
X117676289Y-105817380D01*
X117771527Y-105865000D01*
X117819146Y-105912619D01*
X117914384Y-106055476D01*
X117962003Y-106245952D01*
X117962003Y-106626904D01*
X117914384Y-106722142D01*
X117866765Y-106769761D01*
X117771527Y-106817380D01*
X117581051Y-106817380D01*
X117485813Y-106769761D01*
X117438194Y-106722142D01*
X117390575Y-106626904D01*
X117390575Y-106388809D01*
X117438194Y-106293571D01*
X117485813Y-106245952D01*
X117581051Y-106198333D01*
X117771527Y-106198333D01*
X117866765Y-106245952D01*
X117914384Y-106293571D01*
X117962003Y-106388809D01*
X135057235Y-93317380D02*
X135057235Y-94031666D01*
X135104854Y-94174523D01*
X135200092Y-94269761D01*
X135342949Y-94317380D01*
X135438187Y-94317380D01*
X134152473Y-93317380D02*
X134342949Y-93317380D01*
X134438187Y-93365000D01*
X134485806Y-93412619D01*
X134581044Y-93555476D01*
X134628663Y-93745952D01*
X134628663Y-94126904D01*
X134581044Y-94222142D01*
X134533425Y-94269761D01*
X134438187Y-94317380D01*
X134247711Y-94317380D01*
X134152473Y-94269761D01*
X134104854Y-94222142D01*
X134057235Y-94126904D01*
X134057235Y-93888809D01*
X134104854Y-93793571D01*
X134152473Y-93745952D01*
X134247711Y-93698333D01*
X134438187Y-93698333D01*
X134533425Y-93745952D01*
X134581044Y-93793571D01*
X134628663Y-93888809D01*
X135057235Y-105567380D02*
X135057235Y-106281666D01*
X135104854Y-106424523D01*
X135200092Y-106519761D01*
X135342949Y-106567380D01*
X135438187Y-106567380D01*
X134152473Y-105567380D02*
X134342949Y-105567380D01*
X134438187Y-105615000D01*
X134485806Y-105662619D01*
X134581044Y-105805476D01*
X134628663Y-105995952D01*
X134628663Y-106376904D01*
X134581044Y-106472142D01*
X134533425Y-106519761D01*
X134438187Y-106567380D01*
X134247711Y-106567380D01*
X134152473Y-106519761D01*
X134104854Y-106472142D01*
X134057235Y-106376904D01*
X134057235Y-106138809D01*
X134104854Y-106043571D01*
X134152473Y-105995952D01*
X134247711Y-105948333D01*
X134438187Y-105948333D01*
X134533425Y-105995952D01*
X134581044Y-106043571D01*
X134628663Y-106138809D01*
X118390575Y-93317380D02*
X118390575Y-94031666D01*
X118438194Y-94174523D01*
X118533432Y-94269761D01*
X118676289Y-94317380D01*
X118771527Y-94317380D01*
X117485813Y-93317380D02*
X117676289Y-93317380D01*
X117771527Y-93365000D01*
X117819146Y-93412619D01*
X117914384Y-93555476D01*
X117962003Y-93745952D01*
X117962003Y-94126904D01*
X117914384Y-94222142D01*
X117866765Y-94269761D01*
X117771527Y-94317380D01*
X117581051Y-94317380D01*
X117485813Y-94269761D01*
X117438194Y-94222142D01*
X117390575Y-94126904D01*
X117390575Y-93888809D01*
X117438194Y-93793571D01*
X117485813Y-93745952D01*
X117581051Y-93698333D01*
X117771527Y-93698333D01*
X117866765Y-93745952D01*
X117914384Y-93793571D01*
X117962003Y-93888809D01*
X151723895Y-93317380D02*
X151723895Y-94031666D01*
X151771514Y-94174523D01*
X151866752Y-94269761D01*
X152009609Y-94317380D01*
X152104847Y-94317380D01*
X150819133Y-93317380D02*
X151009609Y-93317380D01*
X151104847Y-93365000D01*
X151152466Y-93412619D01*
X151247704Y-93555476D01*
X151295323Y-93745952D01*
X151295323Y-94126904D01*
X151247704Y-94222142D01*
X151200085Y-94269761D01*
X151104847Y-94317380D01*
X150914371Y-94317380D01*
X150819133Y-94269761D01*
X150771514Y-94222142D01*
X150723895Y-94126904D01*
X150723895Y-93888809D01*
X150771514Y-93793571D01*
X150819133Y-93745952D01*
X150914371Y-93698333D01*
X151104847Y-93698333D01*
X151200085Y-93745952D01*
X151247704Y-93793571D01*
X151295323Y-93888809D01*
X185057215Y-105817380D02*
X185057215Y-106531666D01*
X185104834Y-106674523D01*
X185200072Y-106769761D01*
X185342929Y-106817380D01*
X185438167Y-106817380D01*
X184152453Y-105817380D02*
X184342929Y-105817380D01*
X184438167Y-105865000D01*
X184485786Y-105912619D01*
X184581024Y-106055476D01*
X184628643Y-106245952D01*
X184628643Y-106626904D01*
X184581024Y-106722142D01*
X184533405Y-106769761D01*
X184438167Y-106817380D01*
X184247691Y-106817380D01*
X184152453Y-106769761D01*
X184104834Y-106722142D01*
X184057215Y-106626904D01*
X184057215Y-106388809D01*
X184104834Y-106293571D01*
X184152453Y-106245952D01*
X184247691Y-106198333D01*
X184438167Y-106198333D01*
X184533405Y-106245952D01*
X184581024Y-106293571D01*
X184628643Y-106388809D01*
X235057195Y-105817380D02*
X235057195Y-106531666D01*
X235104814Y-106674523D01*
X235200052Y-106769761D01*
X235342909Y-106817380D01*
X235438147Y-106817380D01*
X234152433Y-105817380D02*
X234342909Y-105817380D01*
X234438147Y-105865000D01*
X234485766Y-105912619D01*
X234581004Y-106055476D01*
X234628623Y-106245952D01*
X234628623Y-106626904D01*
X234581004Y-106722142D01*
X234533385Y-106769761D01*
X234438147Y-106817380D01*
X234247671Y-106817380D01*
X234152433Y-106769761D01*
X234104814Y-106722142D01*
X234057195Y-106626904D01*
X234057195Y-106388809D01*
X234104814Y-106293571D01*
X234152433Y-106245952D01*
X234247671Y-106198333D01*
X234438147Y-106198333D01*
X234533385Y-106245952D01*
X234581004Y-106293571D01*
X234628623Y-106388809D01*
X235057195Y-93317380D02*
X235057195Y-94031666D01*
X235104814Y-94174523D01*
X235200052Y-94269761D01*
X235342909Y-94317380D01*
X235438147Y-94317380D01*
X234152433Y-93317380D02*
X234342909Y-93317380D01*
X234438147Y-93365000D01*
X234485766Y-93412619D01*
X234581004Y-93555476D01*
X234628623Y-93745952D01*
X234628623Y-94126904D01*
X234581004Y-94222142D01*
X234533385Y-94269761D01*
X234438147Y-94317380D01*
X234247671Y-94317380D01*
X234152433Y-94269761D01*
X234104814Y-94222142D01*
X234057195Y-94126904D01*
X234057195Y-93888809D01*
X234104814Y-93793571D01*
X234152433Y-93745952D01*
X234247671Y-93698333D01*
X234438147Y-93698333D01*
X234533385Y-93745952D01*
X234581004Y-93793571D01*
X234628623Y-93888809D01*
X185057215Y-93317380D02*
X185057215Y-94031666D01*
X185104834Y-94174523D01*
X185200072Y-94269761D01*
X185342929Y-94317380D01*
X185438167Y-94317380D01*
X184152453Y-93317380D02*
X184342929Y-93317380D01*
X184438167Y-93365000D01*
X184485786Y-93412619D01*
X184581024Y-93555476D01*
X184628643Y-93745952D01*
X184628643Y-94126904D01*
X184581024Y-94222142D01*
X184533405Y-94269761D01*
X184438167Y-94317380D01*
X184247691Y-94317380D01*
X184152453Y-94269761D01*
X184104834Y-94222142D01*
X184057215Y-94126904D01*
X184057215Y-93888809D01*
X184104834Y-93793571D01*
X184152453Y-93745952D01*
X184247691Y-93698333D01*
X184438167Y-93698333D01*
X184533405Y-93745952D01*
X184581024Y-93793571D01*
X184628643Y-93888809D01*
X168390555Y-105567380D02*
X168390555Y-106281666D01*
X168438174Y-106424523D01*
X168533412Y-106519761D01*
X168676269Y-106567380D01*
X168771507Y-106567380D01*
X167485793Y-105567380D02*
X167676269Y-105567380D01*
X167771507Y-105615000D01*
X167819126Y-105662619D01*
X167914364Y-105805476D01*
X167961983Y-105995952D01*
X167961983Y-106376904D01*
X167914364Y-106472142D01*
X167866745Y-106519761D01*
X167771507Y-106567380D01*
X167581031Y-106567380D01*
X167485793Y-106519761D01*
X167438174Y-106472142D01*
X167390555Y-106376904D01*
X167390555Y-106138809D01*
X167438174Y-106043571D01*
X167485793Y-105995952D01*
X167581031Y-105948333D01*
X167771507Y-105948333D01*
X167866745Y-105995952D01*
X167914364Y-106043571D01*
X167961983Y-106138809D01*
X251723855Y-93317380D02*
X251723855Y-94031666D01*
X251771474Y-94174523D01*
X251866712Y-94269761D01*
X252009569Y-94317380D01*
X252104807Y-94317380D01*
X250819093Y-93317380D02*
X251009569Y-93317380D01*
X251104807Y-93365000D01*
X251152426Y-93412619D01*
X251247664Y-93555476D01*
X251295283Y-93745952D01*
X251295283Y-94126904D01*
X251247664Y-94222142D01*
X251200045Y-94269761D01*
X251104807Y-94317380D01*
X250914331Y-94317380D01*
X250819093Y-94269761D01*
X250771474Y-94222142D01*
X250723855Y-94126904D01*
X250723855Y-93888809D01*
X250771474Y-93793571D01*
X250819093Y-93745952D01*
X250914331Y-93698333D01*
X251104807Y-93698333D01*
X251200045Y-93745952D01*
X251247664Y-93793571D01*
X251295283Y-93888809D01*
X251723855Y-105817380D02*
X251723855Y-106531666D01*
X251771474Y-106674523D01*
X251866712Y-106769761D01*
X252009569Y-106817380D01*
X252104807Y-106817380D01*
X250819093Y-105817380D02*
X251009569Y-105817380D01*
X251104807Y-105865000D01*
X251152426Y-105912619D01*
X251247664Y-106055476D01*
X251295283Y-106245952D01*
X251295283Y-106626904D01*
X251247664Y-106722142D01*
X251200045Y-106769761D01*
X251104807Y-106817380D01*
X250914331Y-106817380D01*
X250819093Y-106769761D01*
X250771474Y-106722142D01*
X250723855Y-106626904D01*
X250723855Y-106388809D01*
X250771474Y-106293571D01*
X250819093Y-106245952D01*
X250914331Y-106198333D01*
X251104807Y-106198333D01*
X251200045Y-106245952D01*
X251247664Y-106293571D01*
X251295283Y-106388809D01*
X168390555Y-93317380D02*
X168390555Y-94031666D01*
X168438174Y-94174523D01*
X168533412Y-94269761D01*
X168676269Y-94317380D01*
X168771507Y-94317380D01*
X167485793Y-93317380D02*
X167676269Y-93317380D01*
X167771507Y-93365000D01*
X167819126Y-93412619D01*
X167914364Y-93555476D01*
X167961983Y-93745952D01*
X167961983Y-94126904D01*
X167914364Y-94222142D01*
X167866745Y-94269761D01*
X167771507Y-94317380D01*
X167581031Y-94317380D01*
X167485793Y-94269761D01*
X167438174Y-94222142D01*
X167390555Y-94126904D01*
X167390555Y-93888809D01*
X167438174Y-93793571D01*
X167485793Y-93745952D01*
X167581031Y-93698333D01*
X167771507Y-93698333D01*
X167866745Y-93745952D01*
X167914364Y-93793571D01*
X167961983Y-93888809D01*
X268390515Y-105817380D02*
X268390515Y-106531666D01*
X268438134Y-106674523D01*
X268533372Y-106769761D01*
X268676229Y-106817380D01*
X268771467Y-106817380D01*
X267485753Y-105817380D02*
X267676229Y-105817380D01*
X267771467Y-105865000D01*
X267819086Y-105912619D01*
X267914324Y-106055476D01*
X267961943Y-106245952D01*
X267961943Y-106626904D01*
X267914324Y-106722142D01*
X267866705Y-106769761D01*
X267771467Y-106817380D01*
X267580991Y-106817380D01*
X267485753Y-106769761D01*
X267438134Y-106722142D01*
X267390515Y-106626904D01*
X267390515Y-106388809D01*
X267438134Y-106293571D01*
X267485753Y-106245952D01*
X267580991Y-106198333D01*
X267771467Y-106198333D01*
X267866705Y-106245952D01*
X267914324Y-106293571D01*
X267961943Y-106388809D01*
X268390515Y-84817380D02*
X268390515Y-85531666D01*
X268438134Y-85674523D01*
X268533372Y-85769761D01*
X268676229Y-85817380D01*
X268771467Y-85817380D01*
X267485753Y-84817380D02*
X267676229Y-84817380D01*
X267771467Y-84865000D01*
X267819086Y-84912619D01*
X267914324Y-85055476D01*
X267961943Y-85245952D01*
X267961943Y-85626904D01*
X267914324Y-85722142D01*
X267866705Y-85769761D01*
X267771467Y-85817380D01*
X267580991Y-85817380D01*
X267485753Y-85769761D01*
X267438134Y-85722142D01*
X267390515Y-85626904D01*
X267390515Y-85388809D01*
X267438134Y-85293571D01*
X267485753Y-85245952D01*
X267580991Y-85198333D01*
X267771467Y-85198333D01*
X267866705Y-85245952D01*
X267914324Y-85293571D01*
X267961943Y-85388809D01*
X85057255Y-97067380D02*
X85057255Y-97781666D01*
X85104874Y-97924523D01*
X85200112Y-98019761D01*
X85342969Y-98067380D01*
X85438207Y-98067380D01*
X84152493Y-97067380D02*
X84342969Y-97067380D01*
X84438207Y-97115000D01*
X84485826Y-97162619D01*
X84581064Y-97305476D01*
X84628683Y-97495952D01*
X84628683Y-97876904D01*
X84581064Y-97972142D01*
X84533445Y-98019761D01*
X84438207Y-98067380D01*
X84247731Y-98067380D01*
X84152493Y-98019761D01*
X84104874Y-97972142D01*
X84057255Y-97876904D01*
X84057255Y-97638809D01*
X84104874Y-97543571D01*
X84152493Y-97495952D01*
X84247731Y-97448333D01*
X84438207Y-97448333D01*
X84533445Y-97495952D01*
X84581064Y-97543571D01*
X84628683Y-97638809D01*
X218390535Y-84817380D02*
X218390535Y-85531666D01*
X218438154Y-85674523D01*
X218533392Y-85769761D01*
X218676249Y-85817380D01*
X218771487Y-85817380D01*
X217485773Y-84817380D02*
X217676249Y-84817380D01*
X217771487Y-84865000D01*
X217819106Y-84912619D01*
X217914344Y-85055476D01*
X217961963Y-85245952D01*
X217961963Y-85626904D01*
X217914344Y-85722142D01*
X217866725Y-85769761D01*
X217771487Y-85817380D01*
X217581011Y-85817380D01*
X217485773Y-85769761D01*
X217438154Y-85722142D01*
X217390535Y-85626904D01*
X217390535Y-85388809D01*
X217438154Y-85293571D01*
X217485773Y-85245952D01*
X217581011Y-85198333D01*
X217771487Y-85198333D01*
X217866725Y-85245952D01*
X217914344Y-85293571D01*
X217961963Y-85388809D01*
X201723875Y-97317380D02*
X201723875Y-98031666D01*
X201771494Y-98174523D01*
X201866732Y-98269761D01*
X202009589Y-98317380D01*
X202104827Y-98317380D01*
X200819113Y-97317380D02*
X201009589Y-97317380D01*
X201104827Y-97365000D01*
X201152446Y-97412619D01*
X201247684Y-97555476D01*
X201295303Y-97745952D01*
X201295303Y-98126904D01*
X201247684Y-98222142D01*
X201200065Y-98269761D01*
X201104827Y-98317380D01*
X200914351Y-98317380D01*
X200819113Y-98269761D01*
X200771494Y-98222142D01*
X200723875Y-98126904D01*
X200723875Y-97888809D01*
X200771494Y-97793571D01*
X200819113Y-97745952D01*
X200914351Y-97698333D01*
X201104827Y-97698333D01*
X201200065Y-97745952D01*
X201247684Y-97793571D01*
X201295303Y-97888809D01*
X218390535Y-97317380D02*
X218390535Y-98031666D01*
X218438154Y-98174523D01*
X218533392Y-98269761D01*
X218676249Y-98317380D01*
X218771487Y-98317380D01*
X217485773Y-97317380D02*
X217676249Y-97317380D01*
X217771487Y-97365000D01*
X217819106Y-97412619D01*
X217914344Y-97555476D01*
X217961963Y-97745952D01*
X217961963Y-98126904D01*
X217914344Y-98222142D01*
X217866725Y-98269761D01*
X217771487Y-98317380D01*
X217581011Y-98317380D01*
X217485773Y-98269761D01*
X217438154Y-98222142D01*
X217390535Y-98126904D01*
X217390535Y-97888809D01*
X217438154Y-97793571D01*
X217485773Y-97745952D01*
X217581011Y-97698333D01*
X217771487Y-97698333D01*
X217866725Y-97745952D01*
X217914344Y-97793571D01*
X217961963Y-97888809D01*
X201723875Y-84817380D02*
X201723875Y-85531666D01*
X201771494Y-85674523D01*
X201866732Y-85769761D01*
X202009589Y-85817380D01*
X202104827Y-85817380D01*
X200819113Y-84817380D02*
X201009589Y-84817380D01*
X201104827Y-84865000D01*
X201152446Y-84912619D01*
X201247684Y-85055476D01*
X201295303Y-85245952D01*
X201295303Y-85626904D01*
X201247684Y-85722142D01*
X201200065Y-85769761D01*
X201104827Y-85817380D01*
X200914351Y-85817380D01*
X200819113Y-85769761D01*
X200771494Y-85722142D01*
X200723875Y-85626904D01*
X200723875Y-85388809D01*
X200771494Y-85293571D01*
X200819113Y-85245952D01*
X200914351Y-85198333D01*
X201104827Y-85198333D01*
X201200065Y-85245952D01*
X201247684Y-85293571D01*
X201295303Y-85388809D01*
X85057255Y-84817380D02*
X85057255Y-85531666D01*
X85104874Y-85674523D01*
X85200112Y-85769761D01*
X85342969Y-85817380D01*
X85438207Y-85817380D01*
X84152493Y-84817380D02*
X84342969Y-84817380D01*
X84438207Y-84865000D01*
X84485826Y-84912619D01*
X84581064Y-85055476D01*
X84628683Y-85245952D01*
X84628683Y-85626904D01*
X84581064Y-85722142D01*
X84533445Y-85769761D01*
X84438207Y-85817380D01*
X84247731Y-85817380D01*
X84152493Y-85769761D01*
X84104874Y-85722142D01*
X84057255Y-85626904D01*
X84057255Y-85388809D01*
X84104874Y-85293571D01*
X84152493Y-85245952D01*
X84247731Y-85198333D01*
X84438207Y-85198333D01*
X84533445Y-85245952D01*
X84581064Y-85293571D01*
X84628683Y-85388809D01*
X101723915Y-97317380D02*
X101723915Y-98031666D01*
X101771534Y-98174523D01*
X101866772Y-98269761D01*
X102009629Y-98317380D01*
X102104867Y-98317380D01*
X100819153Y-97317380D02*
X101009629Y-97317380D01*
X101104867Y-97365000D01*
X101152486Y-97412619D01*
X101247724Y-97555476D01*
X101295343Y-97745952D01*
X101295343Y-98126904D01*
X101247724Y-98222142D01*
X101200105Y-98269761D01*
X101104867Y-98317380D01*
X100914391Y-98317380D01*
X100819153Y-98269761D01*
X100771534Y-98222142D01*
X100723915Y-98126904D01*
X100723915Y-97888809D01*
X100771534Y-97793571D01*
X100819153Y-97745952D01*
X100914391Y-97698333D01*
X101104867Y-97698333D01*
X101200105Y-97745952D01*
X101247724Y-97793571D01*
X101295343Y-97888809D01*
X101723915Y-84817380D02*
X101723915Y-85531666D01*
X101771534Y-85674523D01*
X101866772Y-85769761D01*
X102009629Y-85817380D01*
X102104867Y-85817380D01*
X100819153Y-84817380D02*
X101009629Y-84817380D01*
X101104867Y-84865000D01*
X101152486Y-84912619D01*
X101247724Y-85055476D01*
X101295343Y-85245952D01*
X101295343Y-85626904D01*
X101247724Y-85722142D01*
X101200105Y-85769761D01*
X101104867Y-85817380D01*
X100914391Y-85817380D01*
X100819153Y-85769761D01*
X100771534Y-85722142D01*
X100723915Y-85626904D01*
X100723915Y-85388809D01*
X100771534Y-85293571D01*
X100819153Y-85245952D01*
X100914391Y-85198333D01*
X101104867Y-85198333D01*
X101200105Y-85245952D01*
X101247724Y-85293571D01*
X101295343Y-85388809D01*
X151723895Y-97317380D02*
X151723895Y-98031666D01*
X151771514Y-98174523D01*
X151866752Y-98269761D01*
X152009609Y-98317380D01*
X152104847Y-98317380D01*
X150819133Y-97317380D02*
X151009609Y-97317380D01*
X151104847Y-97365000D01*
X151152466Y-97412619D01*
X151247704Y-97555476D01*
X151295323Y-97745952D01*
X151295323Y-98126904D01*
X151247704Y-98222142D01*
X151200085Y-98269761D01*
X151104847Y-98317380D01*
X150914371Y-98317380D01*
X150819133Y-98269761D01*
X150771514Y-98222142D01*
X150723895Y-98126904D01*
X150723895Y-97888809D01*
X150771514Y-97793571D01*
X150819133Y-97745952D01*
X150914371Y-97698333D01*
X151104847Y-97698333D01*
X151200085Y-97745952D01*
X151247704Y-97793571D01*
X151295323Y-97888809D01*
X118390575Y-97317380D02*
X118390575Y-98031666D01*
X118438194Y-98174523D01*
X118533432Y-98269761D01*
X118676289Y-98317380D01*
X118771527Y-98317380D01*
X117485813Y-97317380D02*
X117676289Y-97317380D01*
X117771527Y-97365000D01*
X117819146Y-97412619D01*
X117914384Y-97555476D01*
X117962003Y-97745952D01*
X117962003Y-98126904D01*
X117914384Y-98222142D01*
X117866765Y-98269761D01*
X117771527Y-98317380D01*
X117581051Y-98317380D01*
X117485813Y-98269761D01*
X117438194Y-98222142D01*
X117390575Y-98126904D01*
X117390575Y-97888809D01*
X117438194Y-97793571D01*
X117485813Y-97745952D01*
X117581051Y-97698333D01*
X117771527Y-97698333D01*
X117866765Y-97745952D01*
X117914384Y-97793571D01*
X117962003Y-97888809D01*
X135057235Y-84817380D02*
X135057235Y-85531666D01*
X135104854Y-85674523D01*
X135200092Y-85769761D01*
X135342949Y-85817380D01*
X135438187Y-85817380D01*
X134152473Y-84817380D02*
X134342949Y-84817380D01*
X134438187Y-84865000D01*
X134485806Y-84912619D01*
X134581044Y-85055476D01*
X134628663Y-85245952D01*
X134628663Y-85626904D01*
X134581044Y-85722142D01*
X134533425Y-85769761D01*
X134438187Y-85817380D01*
X134247711Y-85817380D01*
X134152473Y-85769761D01*
X134104854Y-85722142D01*
X134057235Y-85626904D01*
X134057235Y-85388809D01*
X134104854Y-85293571D01*
X134152473Y-85245952D01*
X134247711Y-85198333D01*
X134438187Y-85198333D01*
X134533425Y-85245952D01*
X134581044Y-85293571D01*
X134628663Y-85388809D01*
X135057235Y-97067380D02*
X135057235Y-97781666D01*
X135104854Y-97924523D01*
X135200092Y-98019761D01*
X135342949Y-98067380D01*
X135438187Y-98067380D01*
X134152473Y-97067380D02*
X134342949Y-97067380D01*
X134438187Y-97115000D01*
X134485806Y-97162619D01*
X134581044Y-97305476D01*
X134628663Y-97495952D01*
X134628663Y-97876904D01*
X134581044Y-97972142D01*
X134533425Y-98019761D01*
X134438187Y-98067380D01*
X134247711Y-98067380D01*
X134152473Y-98019761D01*
X134104854Y-97972142D01*
X134057235Y-97876904D01*
X134057235Y-97638809D01*
X134104854Y-97543571D01*
X134152473Y-97495952D01*
X134247711Y-97448333D01*
X134438187Y-97448333D01*
X134533425Y-97495952D01*
X134581044Y-97543571D01*
X134628663Y-97638809D01*
X118390575Y-84817380D02*
X118390575Y-85531666D01*
X118438194Y-85674523D01*
X118533432Y-85769761D01*
X118676289Y-85817380D01*
X118771527Y-85817380D01*
X117485813Y-84817380D02*
X117676289Y-84817380D01*
X117771527Y-84865000D01*
X117819146Y-84912619D01*
X117914384Y-85055476D01*
X117962003Y-85245952D01*
X117962003Y-85626904D01*
X117914384Y-85722142D01*
X117866765Y-85769761D01*
X117771527Y-85817380D01*
X117581051Y-85817380D01*
X117485813Y-85769761D01*
X117438194Y-85722142D01*
X117390575Y-85626904D01*
X117390575Y-85388809D01*
X117438194Y-85293571D01*
X117485813Y-85245952D01*
X117581051Y-85198333D01*
X117771527Y-85198333D01*
X117866765Y-85245952D01*
X117914384Y-85293571D01*
X117962003Y-85388809D01*
X151723895Y-84817380D02*
X151723895Y-85531666D01*
X151771514Y-85674523D01*
X151866752Y-85769761D01*
X152009609Y-85817380D01*
X152104847Y-85817380D01*
X150819133Y-84817380D02*
X151009609Y-84817380D01*
X151104847Y-84865000D01*
X151152466Y-84912619D01*
X151247704Y-85055476D01*
X151295323Y-85245952D01*
X151295323Y-85626904D01*
X151247704Y-85722142D01*
X151200085Y-85769761D01*
X151104847Y-85817380D01*
X150914371Y-85817380D01*
X150819133Y-85769761D01*
X150771514Y-85722142D01*
X150723895Y-85626904D01*
X150723895Y-85388809D01*
X150771514Y-85293571D01*
X150819133Y-85245952D01*
X150914371Y-85198333D01*
X151104847Y-85198333D01*
X151200085Y-85245952D01*
X151247704Y-85293571D01*
X151295323Y-85388809D01*
X185057215Y-97317380D02*
X185057215Y-98031666D01*
X185104834Y-98174523D01*
X185200072Y-98269761D01*
X185342929Y-98317380D01*
X185438167Y-98317380D01*
X184152453Y-97317380D02*
X184342929Y-97317380D01*
X184438167Y-97365000D01*
X184485786Y-97412619D01*
X184581024Y-97555476D01*
X184628643Y-97745952D01*
X184628643Y-98126904D01*
X184581024Y-98222142D01*
X184533405Y-98269761D01*
X184438167Y-98317380D01*
X184247691Y-98317380D01*
X184152453Y-98269761D01*
X184104834Y-98222142D01*
X184057215Y-98126904D01*
X184057215Y-97888809D01*
X184104834Y-97793571D01*
X184152453Y-97745952D01*
X184247691Y-97698333D01*
X184438167Y-97698333D01*
X184533405Y-97745952D01*
X184581024Y-97793571D01*
X184628643Y-97888809D01*
X235057195Y-97317380D02*
X235057195Y-98031666D01*
X235104814Y-98174523D01*
X235200052Y-98269761D01*
X235342909Y-98317380D01*
X235438147Y-98317380D01*
X234152433Y-97317380D02*
X234342909Y-97317380D01*
X234438147Y-97365000D01*
X234485766Y-97412619D01*
X234581004Y-97555476D01*
X234628623Y-97745952D01*
X234628623Y-98126904D01*
X234581004Y-98222142D01*
X234533385Y-98269761D01*
X234438147Y-98317380D01*
X234247671Y-98317380D01*
X234152433Y-98269761D01*
X234104814Y-98222142D01*
X234057195Y-98126904D01*
X234057195Y-97888809D01*
X234104814Y-97793571D01*
X234152433Y-97745952D01*
X234247671Y-97698333D01*
X234438147Y-97698333D01*
X234533385Y-97745952D01*
X234581004Y-97793571D01*
X234628623Y-97888809D01*
X235057195Y-84817380D02*
X235057195Y-85531666D01*
X235104814Y-85674523D01*
X235200052Y-85769761D01*
X235342909Y-85817380D01*
X235438147Y-85817380D01*
X234152433Y-84817380D02*
X234342909Y-84817380D01*
X234438147Y-84865000D01*
X234485766Y-84912619D01*
X234581004Y-85055476D01*
X234628623Y-85245952D01*
X234628623Y-85626904D01*
X234581004Y-85722142D01*
X234533385Y-85769761D01*
X234438147Y-85817380D01*
X234247671Y-85817380D01*
X234152433Y-85769761D01*
X234104814Y-85722142D01*
X234057195Y-85626904D01*
X234057195Y-85388809D01*
X234104814Y-85293571D01*
X234152433Y-85245952D01*
X234247671Y-85198333D01*
X234438147Y-85198333D01*
X234533385Y-85245952D01*
X234581004Y-85293571D01*
X234628623Y-85388809D01*
X185057215Y-84817380D02*
X185057215Y-85531666D01*
X185104834Y-85674523D01*
X185200072Y-85769761D01*
X185342929Y-85817380D01*
X185438167Y-85817380D01*
X184152453Y-84817380D02*
X184342929Y-84817380D01*
X184438167Y-84865000D01*
X184485786Y-84912619D01*
X184581024Y-85055476D01*
X184628643Y-85245952D01*
X184628643Y-85626904D01*
X184581024Y-85722142D01*
X184533405Y-85769761D01*
X184438167Y-85817380D01*
X184247691Y-85817380D01*
X184152453Y-85769761D01*
X184104834Y-85722142D01*
X184057215Y-85626904D01*
X184057215Y-85388809D01*
X184104834Y-85293571D01*
X184152453Y-85245952D01*
X184247691Y-85198333D01*
X184438167Y-85198333D01*
X184533405Y-85245952D01*
X184581024Y-85293571D01*
X184628643Y-85388809D01*
X168390555Y-97067380D02*
X168390555Y-97781666D01*
X168438174Y-97924523D01*
X168533412Y-98019761D01*
X168676269Y-98067380D01*
X168771507Y-98067380D01*
X167485793Y-97067380D02*
X167676269Y-97067380D01*
X167771507Y-97115000D01*
X167819126Y-97162619D01*
X167914364Y-97305476D01*
X167961983Y-97495952D01*
X167961983Y-97876904D01*
X167914364Y-97972142D01*
X167866745Y-98019761D01*
X167771507Y-98067380D01*
X167581031Y-98067380D01*
X167485793Y-98019761D01*
X167438174Y-97972142D01*
X167390555Y-97876904D01*
X167390555Y-97638809D01*
X167438174Y-97543571D01*
X167485793Y-97495952D01*
X167581031Y-97448333D01*
X167771507Y-97448333D01*
X167866745Y-97495952D01*
X167914364Y-97543571D01*
X167961983Y-97638809D01*
X251723855Y-84817380D02*
X251723855Y-85531666D01*
X251771474Y-85674523D01*
X251866712Y-85769761D01*
X252009569Y-85817380D01*
X252104807Y-85817380D01*
X250819093Y-84817380D02*
X251009569Y-84817380D01*
X251104807Y-84865000D01*
X251152426Y-84912619D01*
X251247664Y-85055476D01*
X251295283Y-85245952D01*
X251295283Y-85626904D01*
X251247664Y-85722142D01*
X251200045Y-85769761D01*
X251104807Y-85817380D01*
X250914331Y-85817380D01*
X250819093Y-85769761D01*
X250771474Y-85722142D01*
X250723855Y-85626904D01*
X250723855Y-85388809D01*
X250771474Y-85293571D01*
X250819093Y-85245952D01*
X250914331Y-85198333D01*
X251104807Y-85198333D01*
X251200045Y-85245952D01*
X251247664Y-85293571D01*
X251295283Y-85388809D01*
X251723855Y-97317380D02*
X251723855Y-98031666D01*
X251771474Y-98174523D01*
X251866712Y-98269761D01*
X252009569Y-98317380D01*
X252104807Y-98317380D01*
X250819093Y-97317380D02*
X251009569Y-97317380D01*
X251104807Y-97365000D01*
X251152426Y-97412619D01*
X251247664Y-97555476D01*
X251295283Y-97745952D01*
X251295283Y-98126904D01*
X251247664Y-98222142D01*
X251200045Y-98269761D01*
X251104807Y-98317380D01*
X250914331Y-98317380D01*
X250819093Y-98269761D01*
X250771474Y-98222142D01*
X250723855Y-98126904D01*
X250723855Y-97888809D01*
X250771474Y-97793571D01*
X250819093Y-97745952D01*
X250914331Y-97698333D01*
X251104807Y-97698333D01*
X251200045Y-97745952D01*
X251247664Y-97793571D01*
X251295283Y-97888809D01*
X168390555Y-84817380D02*
X168390555Y-85531666D01*
X168438174Y-85674523D01*
X168533412Y-85769761D01*
X168676269Y-85817380D01*
X168771507Y-85817380D01*
X167485793Y-84817380D02*
X167676269Y-84817380D01*
X167771507Y-84865000D01*
X167819126Y-84912619D01*
X167914364Y-85055476D01*
X167961983Y-85245952D01*
X167961983Y-85626904D01*
X167914364Y-85722142D01*
X167866745Y-85769761D01*
X167771507Y-85817380D01*
X167581031Y-85817380D01*
X167485793Y-85769761D01*
X167438174Y-85722142D01*
X167390555Y-85626904D01*
X167390555Y-85388809D01*
X167438174Y-85293571D01*
X167485793Y-85245952D01*
X167581031Y-85198333D01*
X167771507Y-85198333D01*
X167866745Y-85245952D01*
X167914364Y-85293571D01*
X167961983Y-85388809D01*
X268390515Y-97317380D02*
X268390515Y-98031666D01*
X268438134Y-98174523D01*
X268533372Y-98269761D01*
X268676229Y-98317380D01*
X268771467Y-98317380D01*
X267485753Y-97317380D02*
X267676229Y-97317380D01*
X267771467Y-97365000D01*
X267819086Y-97412619D01*
X267914324Y-97555476D01*
X267961943Y-97745952D01*
X267961943Y-98126904D01*
X267914324Y-98222142D01*
X267866705Y-98269761D01*
X267771467Y-98317380D01*
X267580991Y-98317380D01*
X267485753Y-98269761D01*
X267438134Y-98222142D01*
X267390515Y-98126904D01*
X267390515Y-97888809D01*
X267438134Y-97793571D01*
X267485753Y-97745952D01*
X267580991Y-97698333D01*
X267771467Y-97698333D01*
X267866705Y-97745952D01*
X267914324Y-97793571D01*
X267961943Y-97888809D01*
X268390515Y-76317380D02*
X268390515Y-77031666D01*
X268438134Y-77174523D01*
X268533372Y-77269761D01*
X268676229Y-77317380D01*
X268771467Y-77317380D01*
X267485753Y-76317380D02*
X267676229Y-76317380D01*
X267771467Y-76365000D01*
X267819086Y-76412619D01*
X267914324Y-76555476D01*
X267961943Y-76745952D01*
X267961943Y-77126904D01*
X267914324Y-77222142D01*
X267866705Y-77269761D01*
X267771467Y-77317380D01*
X267580991Y-77317380D01*
X267485753Y-77269761D01*
X267438134Y-77222142D01*
X267390515Y-77126904D01*
X267390515Y-76888809D01*
X267438134Y-76793571D01*
X267485753Y-76745952D01*
X267580991Y-76698333D01*
X267771467Y-76698333D01*
X267866705Y-76745952D01*
X267914324Y-76793571D01*
X267961943Y-76888809D01*
X85057255Y-88567380D02*
X85057255Y-89281666D01*
X85104874Y-89424523D01*
X85200112Y-89519761D01*
X85342969Y-89567380D01*
X85438207Y-89567380D01*
X84152493Y-88567380D02*
X84342969Y-88567380D01*
X84438207Y-88615000D01*
X84485826Y-88662619D01*
X84581064Y-88805476D01*
X84628683Y-88995952D01*
X84628683Y-89376904D01*
X84581064Y-89472142D01*
X84533445Y-89519761D01*
X84438207Y-89567380D01*
X84247731Y-89567380D01*
X84152493Y-89519761D01*
X84104874Y-89472142D01*
X84057255Y-89376904D01*
X84057255Y-89138809D01*
X84104874Y-89043571D01*
X84152493Y-88995952D01*
X84247731Y-88948333D01*
X84438207Y-88948333D01*
X84533445Y-88995952D01*
X84581064Y-89043571D01*
X84628683Y-89138809D01*
X218390535Y-76317380D02*
X218390535Y-77031666D01*
X218438154Y-77174523D01*
X218533392Y-77269761D01*
X218676249Y-77317380D01*
X218771487Y-77317380D01*
X217485773Y-76317380D02*
X217676249Y-76317380D01*
X217771487Y-76365000D01*
X217819106Y-76412619D01*
X217914344Y-76555476D01*
X217961963Y-76745952D01*
X217961963Y-77126904D01*
X217914344Y-77222142D01*
X217866725Y-77269761D01*
X217771487Y-77317380D01*
X217581011Y-77317380D01*
X217485773Y-77269761D01*
X217438154Y-77222142D01*
X217390535Y-77126904D01*
X217390535Y-76888809D01*
X217438154Y-76793571D01*
X217485773Y-76745952D01*
X217581011Y-76698333D01*
X217771487Y-76698333D01*
X217866725Y-76745952D01*
X217914344Y-76793571D01*
X217961963Y-76888809D01*
X201723875Y-88817380D02*
X201723875Y-89531666D01*
X201771494Y-89674523D01*
X201866732Y-89769761D01*
X202009589Y-89817380D01*
X202104827Y-89817380D01*
X200819113Y-88817380D02*
X201009589Y-88817380D01*
X201104827Y-88865000D01*
X201152446Y-88912619D01*
X201247684Y-89055476D01*
X201295303Y-89245952D01*
X201295303Y-89626904D01*
X201247684Y-89722142D01*
X201200065Y-89769761D01*
X201104827Y-89817380D01*
X200914351Y-89817380D01*
X200819113Y-89769761D01*
X200771494Y-89722142D01*
X200723875Y-89626904D01*
X200723875Y-89388809D01*
X200771494Y-89293571D01*
X200819113Y-89245952D01*
X200914351Y-89198333D01*
X201104827Y-89198333D01*
X201200065Y-89245952D01*
X201247684Y-89293571D01*
X201295303Y-89388809D01*
X218390535Y-88817380D02*
X218390535Y-89531666D01*
X218438154Y-89674523D01*
X218533392Y-89769761D01*
X218676249Y-89817380D01*
X218771487Y-89817380D01*
X217485773Y-88817380D02*
X217676249Y-88817380D01*
X217771487Y-88865000D01*
X217819106Y-88912619D01*
X217914344Y-89055476D01*
X217961963Y-89245952D01*
X217961963Y-89626904D01*
X217914344Y-89722142D01*
X217866725Y-89769761D01*
X217771487Y-89817380D01*
X217581011Y-89817380D01*
X217485773Y-89769761D01*
X217438154Y-89722142D01*
X217390535Y-89626904D01*
X217390535Y-89388809D01*
X217438154Y-89293571D01*
X217485773Y-89245952D01*
X217581011Y-89198333D01*
X217771487Y-89198333D01*
X217866725Y-89245952D01*
X217914344Y-89293571D01*
X217961963Y-89388809D01*
X201723875Y-76317380D02*
X201723875Y-77031666D01*
X201771494Y-77174523D01*
X201866732Y-77269761D01*
X202009589Y-77317380D01*
X202104827Y-77317380D01*
X200819113Y-76317380D02*
X201009589Y-76317380D01*
X201104827Y-76365000D01*
X201152446Y-76412619D01*
X201247684Y-76555476D01*
X201295303Y-76745952D01*
X201295303Y-77126904D01*
X201247684Y-77222142D01*
X201200065Y-77269761D01*
X201104827Y-77317380D01*
X200914351Y-77317380D01*
X200819113Y-77269761D01*
X200771494Y-77222142D01*
X200723875Y-77126904D01*
X200723875Y-76888809D01*
X200771494Y-76793571D01*
X200819113Y-76745952D01*
X200914351Y-76698333D01*
X201104827Y-76698333D01*
X201200065Y-76745952D01*
X201247684Y-76793571D01*
X201295303Y-76888809D01*
X85057255Y-76317380D02*
X85057255Y-77031666D01*
X85104874Y-77174523D01*
X85200112Y-77269761D01*
X85342969Y-77317380D01*
X85438207Y-77317380D01*
X84152493Y-76317380D02*
X84342969Y-76317380D01*
X84438207Y-76365000D01*
X84485826Y-76412619D01*
X84581064Y-76555476D01*
X84628683Y-76745952D01*
X84628683Y-77126904D01*
X84581064Y-77222142D01*
X84533445Y-77269761D01*
X84438207Y-77317380D01*
X84247731Y-77317380D01*
X84152493Y-77269761D01*
X84104874Y-77222142D01*
X84057255Y-77126904D01*
X84057255Y-76888809D01*
X84104874Y-76793571D01*
X84152493Y-76745952D01*
X84247731Y-76698333D01*
X84438207Y-76698333D01*
X84533445Y-76745952D01*
X84581064Y-76793571D01*
X84628683Y-76888809D01*
X101723915Y-88817380D02*
X101723915Y-89531666D01*
X101771534Y-89674523D01*
X101866772Y-89769761D01*
X102009629Y-89817380D01*
X102104867Y-89817380D01*
X100819153Y-88817380D02*
X101009629Y-88817380D01*
X101104867Y-88865000D01*
X101152486Y-88912619D01*
X101247724Y-89055476D01*
X101295343Y-89245952D01*
X101295343Y-89626904D01*
X101247724Y-89722142D01*
X101200105Y-89769761D01*
X101104867Y-89817380D01*
X100914391Y-89817380D01*
X100819153Y-89769761D01*
X100771534Y-89722142D01*
X100723915Y-89626904D01*
X100723915Y-89388809D01*
X100771534Y-89293571D01*
X100819153Y-89245952D01*
X100914391Y-89198333D01*
X101104867Y-89198333D01*
X101200105Y-89245952D01*
X101247724Y-89293571D01*
X101295343Y-89388809D01*
X101723915Y-76317380D02*
X101723915Y-77031666D01*
X101771534Y-77174523D01*
X101866772Y-77269761D01*
X102009629Y-77317380D01*
X102104867Y-77317380D01*
X100819153Y-76317380D02*
X101009629Y-76317380D01*
X101104867Y-76365000D01*
X101152486Y-76412619D01*
X101247724Y-76555476D01*
X101295343Y-76745952D01*
X101295343Y-77126904D01*
X101247724Y-77222142D01*
X101200105Y-77269761D01*
X101104867Y-77317380D01*
X100914391Y-77317380D01*
X100819153Y-77269761D01*
X100771534Y-77222142D01*
X100723915Y-77126904D01*
X100723915Y-76888809D01*
X100771534Y-76793571D01*
X100819153Y-76745952D01*
X100914391Y-76698333D01*
X101104867Y-76698333D01*
X101200105Y-76745952D01*
X101247724Y-76793571D01*
X101295343Y-76888809D01*
X151723895Y-88817380D02*
X151723895Y-89531666D01*
X151771514Y-89674523D01*
X151866752Y-89769761D01*
X152009609Y-89817380D01*
X152104847Y-89817380D01*
X150819133Y-88817380D02*
X151009609Y-88817380D01*
X151104847Y-88865000D01*
X151152466Y-88912619D01*
X151247704Y-89055476D01*
X151295323Y-89245952D01*
X151295323Y-89626904D01*
X151247704Y-89722142D01*
X151200085Y-89769761D01*
X151104847Y-89817380D01*
X150914371Y-89817380D01*
X150819133Y-89769761D01*
X150771514Y-89722142D01*
X150723895Y-89626904D01*
X150723895Y-89388809D01*
X150771514Y-89293571D01*
X150819133Y-89245952D01*
X150914371Y-89198333D01*
X151104847Y-89198333D01*
X151200085Y-89245952D01*
X151247704Y-89293571D01*
X151295323Y-89388809D01*
X118390575Y-88817380D02*
X118390575Y-89531666D01*
X118438194Y-89674523D01*
X118533432Y-89769761D01*
X118676289Y-89817380D01*
X118771527Y-89817380D01*
X117485813Y-88817380D02*
X117676289Y-88817380D01*
X117771527Y-88865000D01*
X117819146Y-88912619D01*
X117914384Y-89055476D01*
X117962003Y-89245952D01*
X117962003Y-89626904D01*
X117914384Y-89722142D01*
X117866765Y-89769761D01*
X117771527Y-89817380D01*
X117581051Y-89817380D01*
X117485813Y-89769761D01*
X117438194Y-89722142D01*
X117390575Y-89626904D01*
X117390575Y-89388809D01*
X117438194Y-89293571D01*
X117485813Y-89245952D01*
X117581051Y-89198333D01*
X117771527Y-89198333D01*
X117866765Y-89245952D01*
X117914384Y-89293571D01*
X117962003Y-89388809D01*
X135057235Y-76317380D02*
X135057235Y-77031666D01*
X135104854Y-77174523D01*
X135200092Y-77269761D01*
X135342949Y-77317380D01*
X135438187Y-77317380D01*
X134152473Y-76317380D02*
X134342949Y-76317380D01*
X134438187Y-76365000D01*
X134485806Y-76412619D01*
X134581044Y-76555476D01*
X134628663Y-76745952D01*
X134628663Y-77126904D01*
X134581044Y-77222142D01*
X134533425Y-77269761D01*
X134438187Y-77317380D01*
X134247711Y-77317380D01*
X134152473Y-77269761D01*
X134104854Y-77222142D01*
X134057235Y-77126904D01*
X134057235Y-76888809D01*
X134104854Y-76793571D01*
X134152473Y-76745952D01*
X134247711Y-76698333D01*
X134438187Y-76698333D01*
X134533425Y-76745952D01*
X134581044Y-76793571D01*
X134628663Y-76888809D01*
X135057235Y-88567380D02*
X135057235Y-89281666D01*
X135104854Y-89424523D01*
X135200092Y-89519761D01*
X135342949Y-89567380D01*
X135438187Y-89567380D01*
X134152473Y-88567380D02*
X134342949Y-88567380D01*
X134438187Y-88615000D01*
X134485806Y-88662619D01*
X134581044Y-88805476D01*
X134628663Y-88995952D01*
X134628663Y-89376904D01*
X134581044Y-89472142D01*
X134533425Y-89519761D01*
X134438187Y-89567380D01*
X134247711Y-89567380D01*
X134152473Y-89519761D01*
X134104854Y-89472142D01*
X134057235Y-89376904D01*
X134057235Y-89138809D01*
X134104854Y-89043571D01*
X134152473Y-88995952D01*
X134247711Y-88948333D01*
X134438187Y-88948333D01*
X134533425Y-88995952D01*
X134581044Y-89043571D01*
X134628663Y-89138809D01*
X118390575Y-76317380D02*
X118390575Y-77031666D01*
X118438194Y-77174523D01*
X118533432Y-77269761D01*
X118676289Y-77317380D01*
X118771527Y-77317380D01*
X117485813Y-76317380D02*
X117676289Y-76317380D01*
X117771527Y-76365000D01*
X117819146Y-76412619D01*
X117914384Y-76555476D01*
X117962003Y-76745952D01*
X117962003Y-77126904D01*
X117914384Y-77222142D01*
X117866765Y-77269761D01*
X117771527Y-77317380D01*
X117581051Y-77317380D01*
X117485813Y-77269761D01*
X117438194Y-77222142D01*
X117390575Y-77126904D01*
X117390575Y-76888809D01*
X117438194Y-76793571D01*
X117485813Y-76745952D01*
X117581051Y-76698333D01*
X117771527Y-76698333D01*
X117866765Y-76745952D01*
X117914384Y-76793571D01*
X117962003Y-76888809D01*
X151723895Y-76317380D02*
X151723895Y-77031666D01*
X151771514Y-77174523D01*
X151866752Y-77269761D01*
X152009609Y-77317380D01*
X152104847Y-77317380D01*
X150819133Y-76317380D02*
X151009609Y-76317380D01*
X151104847Y-76365000D01*
X151152466Y-76412619D01*
X151247704Y-76555476D01*
X151295323Y-76745952D01*
X151295323Y-77126904D01*
X151247704Y-77222142D01*
X151200085Y-77269761D01*
X151104847Y-77317380D01*
X150914371Y-77317380D01*
X150819133Y-77269761D01*
X150771514Y-77222142D01*
X150723895Y-77126904D01*
X150723895Y-76888809D01*
X150771514Y-76793571D01*
X150819133Y-76745952D01*
X150914371Y-76698333D01*
X151104847Y-76698333D01*
X151200085Y-76745952D01*
X151247704Y-76793571D01*
X151295323Y-76888809D01*
X185057215Y-88817380D02*
X185057215Y-89531666D01*
X185104834Y-89674523D01*
X185200072Y-89769761D01*
X185342929Y-89817380D01*
X185438167Y-89817380D01*
X184152453Y-88817380D02*
X184342929Y-88817380D01*
X184438167Y-88865000D01*
X184485786Y-88912619D01*
X184581024Y-89055476D01*
X184628643Y-89245952D01*
X184628643Y-89626904D01*
X184581024Y-89722142D01*
X184533405Y-89769761D01*
X184438167Y-89817380D01*
X184247691Y-89817380D01*
X184152453Y-89769761D01*
X184104834Y-89722142D01*
X184057215Y-89626904D01*
X184057215Y-89388809D01*
X184104834Y-89293571D01*
X184152453Y-89245952D01*
X184247691Y-89198333D01*
X184438167Y-89198333D01*
X184533405Y-89245952D01*
X184581024Y-89293571D01*
X184628643Y-89388809D01*
X235057195Y-88817380D02*
X235057195Y-89531666D01*
X235104814Y-89674523D01*
X235200052Y-89769761D01*
X235342909Y-89817380D01*
X235438147Y-89817380D01*
X234152433Y-88817380D02*
X234342909Y-88817380D01*
X234438147Y-88865000D01*
X234485766Y-88912619D01*
X234581004Y-89055476D01*
X234628623Y-89245952D01*
X234628623Y-89626904D01*
X234581004Y-89722142D01*
X234533385Y-89769761D01*
X234438147Y-89817380D01*
X234247671Y-89817380D01*
X234152433Y-89769761D01*
X234104814Y-89722142D01*
X234057195Y-89626904D01*
X234057195Y-89388809D01*
X234104814Y-89293571D01*
X234152433Y-89245952D01*
X234247671Y-89198333D01*
X234438147Y-89198333D01*
X234533385Y-89245952D01*
X234581004Y-89293571D01*
X234628623Y-89388809D01*
X235057195Y-76317380D02*
X235057195Y-77031666D01*
X235104814Y-77174523D01*
X235200052Y-77269761D01*
X235342909Y-77317380D01*
X235438147Y-77317380D01*
X234152433Y-76317380D02*
X234342909Y-76317380D01*
X234438147Y-76365000D01*
X234485766Y-76412619D01*
X234581004Y-76555476D01*
X234628623Y-76745952D01*
X234628623Y-77126904D01*
X234581004Y-77222142D01*
X234533385Y-77269761D01*
X234438147Y-77317380D01*
X234247671Y-77317380D01*
X234152433Y-77269761D01*
X234104814Y-77222142D01*
X234057195Y-77126904D01*
X234057195Y-76888809D01*
X234104814Y-76793571D01*
X234152433Y-76745952D01*
X234247671Y-76698333D01*
X234438147Y-76698333D01*
X234533385Y-76745952D01*
X234581004Y-76793571D01*
X234628623Y-76888809D01*
X185057215Y-76317380D02*
X185057215Y-77031666D01*
X185104834Y-77174523D01*
X185200072Y-77269761D01*
X185342929Y-77317380D01*
X185438167Y-77317380D01*
X184152453Y-76317380D02*
X184342929Y-76317380D01*
X184438167Y-76365000D01*
X184485786Y-76412619D01*
X184581024Y-76555476D01*
X184628643Y-76745952D01*
X184628643Y-77126904D01*
X184581024Y-77222142D01*
X184533405Y-77269761D01*
X184438167Y-77317380D01*
X184247691Y-77317380D01*
X184152453Y-77269761D01*
X184104834Y-77222142D01*
X184057215Y-77126904D01*
X184057215Y-76888809D01*
X184104834Y-76793571D01*
X184152453Y-76745952D01*
X184247691Y-76698333D01*
X184438167Y-76698333D01*
X184533405Y-76745952D01*
X184581024Y-76793571D01*
X184628643Y-76888809D01*
X168390555Y-88567380D02*
X168390555Y-89281666D01*
X168438174Y-89424523D01*
X168533412Y-89519761D01*
X168676269Y-89567380D01*
X168771507Y-89567380D01*
X167485793Y-88567380D02*
X167676269Y-88567380D01*
X167771507Y-88615000D01*
X167819126Y-88662619D01*
X167914364Y-88805476D01*
X167961983Y-88995952D01*
X167961983Y-89376904D01*
X167914364Y-89472142D01*
X167866745Y-89519761D01*
X167771507Y-89567380D01*
X167581031Y-89567380D01*
X167485793Y-89519761D01*
X167438174Y-89472142D01*
X167390555Y-89376904D01*
X167390555Y-89138809D01*
X167438174Y-89043571D01*
X167485793Y-88995952D01*
X167581031Y-88948333D01*
X167771507Y-88948333D01*
X167866745Y-88995952D01*
X167914364Y-89043571D01*
X167961983Y-89138809D01*
X251723855Y-76317380D02*
X251723855Y-77031666D01*
X251771474Y-77174523D01*
X251866712Y-77269761D01*
X252009569Y-77317380D01*
X252104807Y-77317380D01*
X250819093Y-76317380D02*
X251009569Y-76317380D01*
X251104807Y-76365000D01*
X251152426Y-76412619D01*
X251247664Y-76555476D01*
X251295283Y-76745952D01*
X251295283Y-77126904D01*
X251247664Y-77222142D01*
X251200045Y-77269761D01*
X251104807Y-77317380D01*
X250914331Y-77317380D01*
X250819093Y-77269761D01*
X250771474Y-77222142D01*
X250723855Y-77126904D01*
X250723855Y-76888809D01*
X250771474Y-76793571D01*
X250819093Y-76745952D01*
X250914331Y-76698333D01*
X251104807Y-76698333D01*
X251200045Y-76745952D01*
X251247664Y-76793571D01*
X251295283Y-76888809D01*
X251723855Y-88817380D02*
X251723855Y-89531666D01*
X251771474Y-89674523D01*
X251866712Y-89769761D01*
X252009569Y-89817380D01*
X252104807Y-89817380D01*
X250819093Y-88817380D02*
X251009569Y-88817380D01*
X251104807Y-88865000D01*
X251152426Y-88912619D01*
X251247664Y-89055476D01*
X251295283Y-89245952D01*
X251295283Y-89626904D01*
X251247664Y-89722142D01*
X251200045Y-89769761D01*
X251104807Y-89817380D01*
X250914331Y-89817380D01*
X250819093Y-89769761D01*
X250771474Y-89722142D01*
X250723855Y-89626904D01*
X250723855Y-89388809D01*
X250771474Y-89293571D01*
X250819093Y-89245952D01*
X250914331Y-89198333D01*
X251104807Y-89198333D01*
X251200045Y-89245952D01*
X251247664Y-89293571D01*
X251295283Y-89388809D01*
X168390555Y-76317380D02*
X168390555Y-77031666D01*
X168438174Y-77174523D01*
X168533412Y-77269761D01*
X168676269Y-77317380D01*
X168771507Y-77317380D01*
X167485793Y-76317380D02*
X167676269Y-76317380D01*
X167771507Y-76365000D01*
X167819126Y-76412619D01*
X167914364Y-76555476D01*
X167961983Y-76745952D01*
X167961983Y-77126904D01*
X167914364Y-77222142D01*
X167866745Y-77269761D01*
X167771507Y-77317380D01*
X167581031Y-77317380D01*
X167485793Y-77269761D01*
X167438174Y-77222142D01*
X167390555Y-77126904D01*
X167390555Y-76888809D01*
X167438174Y-76793571D01*
X167485793Y-76745952D01*
X167581031Y-76698333D01*
X167771507Y-76698333D01*
X167866745Y-76745952D01*
X167914364Y-76793571D01*
X167961983Y-76888809D01*
X268390515Y-88817380D02*
X268390515Y-89531666D01*
X268438134Y-89674523D01*
X268533372Y-89769761D01*
X268676229Y-89817380D01*
X268771467Y-89817380D01*
X267485753Y-88817380D02*
X267676229Y-88817380D01*
X267771467Y-88865000D01*
X267819086Y-88912619D01*
X267914324Y-89055476D01*
X267961943Y-89245952D01*
X267961943Y-89626904D01*
X267914324Y-89722142D01*
X267866705Y-89769761D01*
X267771467Y-89817380D01*
X267580991Y-89817380D01*
X267485753Y-89769761D01*
X267438134Y-89722142D01*
X267390515Y-89626904D01*
X267390515Y-89388809D01*
X267438134Y-89293571D01*
X267485753Y-89245952D01*
X267580991Y-89198333D01*
X267771467Y-89198333D01*
X267866705Y-89245952D01*
X267914324Y-89293571D01*
X267961943Y-89388809D01*
M02*
