  0
SECTION
  2
HEADER
  9
$ACADVER
  1
AC1024
  9
$ACADMAINTVER
 70
     6
  9
$DWGCODEPAGE
  3
UNDEFINED
  9
$INSBASE
 10
0.0
 20
0.0
 30
0.0
  9
$EXTMIN
 10
1.000000000000000E+20
 20
1.000000000000000E+20
 30
1.000000000000000E+20
  9
$EXTMAX
 10
-1.000000000000000E+20
 20
-1.000000000000000E+20
 30
-1.000000000000000E+20
  9
$LIMMIN
 10
0.0
 20
0.0
  9
$LIMMAX
 10
12.0
 20
9.0
  9
$ORTHOMODE
 70
     0
  9
$REGENMODE
 70
     1
  9
$FILLMODE
 70
     1
  9
$QTEXTMODE
 70
     0
  9
$MIRRTEXT
 70
     1
  9
$LTSCALE
 40
1.0
  9
$ATTMODE
 70
     1
  9
$TEXTSIZE
 40
0.2
  9
$TRACEWID
 40
0.05
  9
$TEXTSTYLE
  7
Standard
  9
$CLAYER
  8
0
  9
$CELTYPE
  6
ByLayer
  9
$CECOLOR
 62
   256
  9
$CELTSCALE
 40
1.0
  9
$DISPSILH
 70
     0
  9
$DIMSCALE
 40
1.0
  9
$DIMASZ
 40
0.18
  9
$DIMEXO
 40
0.0625
  9
$DIMDLI
 40
0.38
  9
$DIMRND
 40
0.0
  9
$DIMDLE
 40
0.0
  9
$DIMEXE
 40
0.18
  9
$DIMTP
 40
0.0
  9
$DIMTM
 40
0.0
  9
$DIMTXT
 40
0.18
  9
$DIMCEN
 40
0.09
  9
$DIMTSZ
 40
0.0
  9
$DIMTOL
 70
     0
  9
$DIMLIM
 70
     0
  9
$DIMTIH
 70
     1
  9
$DIMTOH
 70
     1
  9
$DIMSE1
 70
     0
  9
$DIMSE2
 70
     0
  9
$DIMTAD
 70
     0
  9
$DIMZIN
 70
     0
  9
$DIMBLK
  1

  9
$DIMASO
 70
     1
  9
$DIMSHO
 70
     1
  9
$DIMPOST
  1

  9
$DIMAPOST
  1

  9
$DIMALT
 70
     0
  9
$DIMALTD
 70
     2
  9
$DIMALTF
 40
25.4
  9
$DIMLFAC
 40
1.0
  9
$DIMTOFL
 70
     0
  9
$DIMTVP
 40
0.0
  9
$DIMTIX
 70
     0
  9
$DIMSOXD
 70
     0
  9
$DIMSAH
 70
     0
  9
$DIMBLK1
  1

  9
$DIMBLK2
  1

  9
$DIMSTYLE
  2
Standard
  9
$DIMCLRD
 70
     0
  9
$DIMCLRE
 70
     0
  9
$DIMCLRT
 70
     0
  9
$DIMTFAC
 40
1.0
  9
$DIMGAP
 40
0.09
  9
$DIMJUST
 70
     0
  9
$DIMSD1
 70
     0
  9
$DIMSD2
 70
     0
  9
$DIMTOLJ
 70
     1
  9
$DIMTZIN
 70
     0
  9
$DIMALTZ
 70
     0
  9
$DIMALTTZ
 70
     0
  9
$DIMUPT
 70
     0
  9
$DIMDEC
 70
     4
  9
$DIMTDEC
 70
     4
  9
$DIMALTU
 70
     2
  9
$DIMALTTD
 70
     2
  9
$DIMTXSTY
  7
Standard
  9
$DIMAUNIT
 70
     0
  9
$DIMADEC
 70
     0
  9
$DIMALTRND
 40
0.0
  9
$DIMAZIN
 70
     0
  9
$DIMDSEP
 70
    46
  9
$DIMATFIT
 70
     3
  9
$DIMFRAC
 70
     0
  9
$DIMLDRBLK
  1

  9
$DIMLUNIT
 70
     2
  9
$DIMLWD
 70
    -2
  9
$DIMLWE
 70
    -2
  9
$DIMTMOVE
 70
     0
  9
$DIMFXL
 40
1.0
  9
$DIMFXLON
 70
     0
  9
$DIMJOGANG
 40
0.7853981633974483
  9
$DIMTFILL
 70
     0
  9
$DIMTFILLCLR
 70
     0
  9
$DIMARCSYM
 70
     0
  9
$DIMLTYPE
  6

  9
$DIMLTEX1
  6

  9
$DIMLTEX2
  6

  9
$DIMTXTDIRECTION
 70
     0
  9
$LUNITS
 70
     2
  9
$LUPREC
 70
     4
  9
$SKETCHINC
 40
0.1
  9
$FILLETRAD
 40
0.5
  9
$AUNITS
 70
     0
  9
$AUPREC
 70
     0
  9
$MENU
  1
.
  9
$ELEVATION
 40
0.0
  9
$PELEVATION
 40
0.0
  9
$THICKNESS
 40
0.0
  9
$LIMCHECK
 70
     0
  9
$CHAMFERA
 40
0.5
  9
$CHAMFERB
 40
0.5
  9
$CHAMFERC
 40
1.0
  9
$CHAMFERD
 40
0.0
  9
$SKPOLY
 70
     0
  9
$TDCREATE
 40
2458597.43435184
  9
$TDUCREATE
 40
2458597.767685185
  9
$TDUPDATE
 40
2458597.43435184
  9
$TDUUPDATE
 40
2458597.767685185
  9
$TDINDWG
 40
0.0000000116
  9
$TDUSRTIMER
 40
0.0000000116
  9
$USRTIMER
 70
     1
  9
$ANGBASE
 50
0.0
  9
$ANGDIR
 70
     0
  9
$PDMODE
 70
     0
  9
$PDSIZE
 40
0.0
  9
$PLINEWID
 40
0.0
  9
$SPLFRAME
 70
     0
  9
$SPLINETYPE
 70
     6
  9
$SPLINESEGS
 70
     8
  9
$HANDSEED
  5
281
  9
$SURFTAB1
 70
     6
  9
$SURFTAB2
 70
     6
  9
$SURFTYPE
 70
     6
  9
$SURFU
 70
     6
  9
$SURFV
 70
     6
  9
$UCSBASE
  2

  9
$UCSNAME
  2

  9
$UCSORG
 10
0.0
 20
0.0
 30
0.0
  9
$UCSXDIR
 10
1.0
 20
0.0
 30
0.0
  9
$UCSYDIR
 10
0.0
 20
1.0
 30
0.0
  9
$UCSORTHOREF
  2

  9
$UCSORTHOVIEW
 70
     0
  9
$UCSORGTOP
 10
0.0
 20
0.0
 30
0.0
  9
$UCSORGBOTTOM
 10
0.0
 20
0.0
 30
0.0
  9
$UCSORGLEFT
 10
0.0
 20
0.0
 30
0.0
  9
$UCSORGRIGHT
 10
0.0
 20
0.0
 30
0.0
  9
$UCSORGFRONT
 10
0.0
 20
0.0
 30
0.0
  9
$UCSORGBACK
 10
0.0
 20
0.0
 30
0.0
  9
$PUCSBASE
  2

  9
$PUCSNAME
  2

  9
$PUCSORG
 10
0.0
 20
0.0
 30
0.0
  9
$PUCSXDIR
 10
1.0
 20
0.0
 30
0.0
  9
$PUCSYDIR
 10
0.0
 20
1.0
 30
0.0
  9
$PUCSORTHOREF
  2

  9
$PUCSORTHOVIEW
 70
     0
  9
$PUCSORGTOP
 10
0.0
 20
0.0
 30
0.0
  9
$PUCSORGBOTTOM
 10
0.0
 20
0.0
 30
0.0
  9
$PUCSORGLEFT
 10
0.0
 20
0.0
 30
0.0
  9
$PUCSORGRIGHT
 10
0.0
 20
0.0
 30
0.0
  9
$PUCSORGFRONT
 10
0.0
 20
0.0
 30
0.0
  9
$PUCSORGBACK
 10
0.0
 20
0.0
 30
0.0
  9
$USERI1
 70
     0
  9
$USERI2
 70
     0
  9
$USERI3
 70
     0
  9
$USERI4
 70
     0
  9
$USERI5
 70
     0
  9
$USERR1
 40
0.0
  9
$USERR2
 40
0.0
  9
$USERR3
 40
0.0
  9
$USERR4
 40
0.0
  9
$USERR5
 40
0.0
  9
$WORLDVIEW
 70
     1
  9
$SHADEDGE
 70
     3
  9
$SHADEDIF
 70
    70
  9
$TILEMODE
 70
     1
  9
$MAXACTVP
 70
    64
  9
$PINSBASE
 10
0.0
 20
0.0
 30
0.0
  9
$PLIMCHECK
 70
     0
  9
$PEXTMIN
 10
1.000000000000000E+20
 20
1.000000000000000E+20
 30
1.000000000000000E+20
  9
$PEXTMAX
 10
-1.000000000000000E+20
 20
-1.000000000000000E+20
 30
-1.000000000000000E+20
  9
$PLIMMIN
 10
0.0
 20
0.0
  9
$PLIMMAX
 10
12.0
 20
9.0
  9
$UNITMODE
 70
     0
  9
$VISRETAIN
 70
     1
  9
$PLINEGEN
 70
     0
  9
$PSLTSCALE
 70
     1
  9
$TREEDEPTH
 70
  3020
  9
$CMLSTYLE
  2
Standard
  9
$CMLJUST
 70
     0
  9
$CMLSCALE
 40
1.0
  9
$PROXYGRAPHICS
 70
     1
  9
$MEASUREMENT
 70
     0
  9
$CELWEIGHT
370
    -1
  9
$ENDCAPS
280
     0
  9
$JOINSTYLE
280
     0
  9
$LWDISPLAY
290
     1
  9
$INSUNITS
 70
     1
  9
$HYPERLINKBASE
  1

  9
$STYLESHEET
  1

  9
$XEDIT
290
     1
  9
$CEPSNTYPE
380
     0
  9
$PSTYLEMODE
290
     1
  9
$FINGERPRINTGUID
  2
{34E742F2-B657-C259-D535-98737C38DF83}
  9
$VERSIONGUID
  2
{FAEB1C32-E019-11D5-929B-00C0DF256EC4}
  9
$EXTNAMES
290
     1
  9
$PSVPSCALE
 40
0.0
  9
$OLESTARTUP
290
     0
  9
$SORTENTS
280
   127
  9
$INDEXCTL
280
     0
  9
$HIDETEXT
280
     1
  9
$XCLIPFRAME
280
     2
  9
$HALOGAP
280
     0
  9
$OBSCOLOR
 70
   257
  9
$OBSLTYPE
280
     0
  9
$INTERSECTIONDISPLAY
280
     0
  9
$INTERSECTIONCOLOR
 70
   257
  9
$DIMASSOC
280
     2
  9
$PROJECTNAME
  1

  9
$CAMERADISPLAY
290
     0
  9
$LENSLENGTH
 40
50.0
  9
$CAMERAHEIGHT
 40
0.0
  9
$STEPSPERSEC
 40
2.0
  9
$STEPSIZE
 40
6.0
  9
$3DDWFPREC
 40
2.0
  9
$PSOLWIDTH
 40
0.25
  9
$PSOLHEIGHT
 40
4.0
  9
$LOFTANG1
 40
1.570796326794897
  9
$LOFTANG2
 40
1.570796326794897
  9
$LOFTMAG1
 40
0.0
  9
$LOFTMAG2
 40
0.0
  9
$LOFTPARAM
 70
     7
  9
$LOFTNORMALS
280
     1
  9
$LATITUDE
 40
37.795
  9
$LONGITUDE
 40
-122.394
  9
$NORTHDIRECTION
 40
0.0
  9
$TIMEZONE
 70
 -8000
  9
$LIGHTGLYPHDISPLAY
280
     1
  9
$TILEMODELIGHTSYNCH
280
     1
  9
$CMATERIAL
347
3C
  9
$SOLIDHIST
280
     1
  9
$SHOWHIST
280
     1
  9
$DWFFRAME
280
     2
  9
$DGNFRAME
280
     2
  9
$REALWORLDSCALE
290
     1
  9
$INTERFERECOLOR
 62
   256
  9
$CSHADOW
280
     0
  9
$SHADOWPLANELOCATION
 40
0.0
  0
ENDSEC
  0
SECTION
  2
CLASSES
  0
CLASS
  1
ACDBDICTIONARYWDFLT
  2
AcDbDictionaryWithDefault
  3
ObjectDBX Classes
 90
        0
 91
        4
280
     0
281
     0
  0
CLASS
  1
VISUALSTYLE
  2
AcDbVisualStyle
  3
ObjectDBX Classes
 90
     4095
 91
        4
280
     0
281
     0
  0
CLASS
  1
MATERIAL
  2
AcDbMaterial
  3
ObjectDBX Classes
 90
     1153
 91
        4
280
     0
281
     0
  0
CLASS
  1
SUN
  2
AcDbSun
  3
SCENEOE
 90
     1024
 91
        4
280
     0
281
     0
  0
ENDSEC
  0
SECTION
  2
TABLES
  0
TABLE
  2
VPORT
  5
8
330
0
100
AcDbSymbolTable
 70
     1
  0
VPORT
  5
29
330
8
100
AcDbSymbolTableRecord
100
AcDbViewportTableRecord
  2
*Active
 70
     0
 10
0.0
 20
0.0
 11
1.0
 21
1.0
 12
0.0
 22
0.0
 13
0.0
 23
0.0
 14
0.5
 24
0.5
 15
0.5
 25
0.5
 16
0.0
 26
0.0
 36
1.0
 17
8.270833333333332
 27
5.847222222222222
 37
0.0
 40
11.69444444444444
 41
1.414489311163895
 42
50.0
 43
0.0
 44
0.0
 50
0.0
 51
0.0
 71
     0
 72
   100
 73
     1
 74
     3
 75
     0
 76
     0
 77
     0
 78
     0
281
     0
 65
     1
110
0.0
120
0.0
130
0.0
111
1.0
121
0.0
131
0.0
112
0.0
122
1.0
132
0.0
 79
     0
146
0.0
 60
     3
 61
     5
292
     1
282
     1
141
0.0
142
0.0
 63
   250
361
3F
  0
ENDTAB
  0
TABLE
  2
LTYPE
  5
5
330
0
100
AcDbSymbolTable
 70
     1
  0
LTYPE
  5
14
330
5
100
AcDbSymbolTableRecord
100
AcDbLinetypeTableRecord
  2
ByBlock
 70
     0
  3

 72
    65
 73
     0
 40
0.0
  0
LTYPE
  5
15
330
5
100
AcDbSymbolTableRecord
100
AcDbLinetypeTableRecord
  2
ByLayer
 70
     0
  3

 72
    65
 73
     0
 40
0.0
  0
LTYPE
  5
16
330
5
100
AcDbSymbolTableRecord
100
AcDbLinetypeTableRecord
  2
Continuous
 70
     0
  3
Solid line
 72
    65
 73
     0
 40
0.0
  0
ENDTAB
  0
TABLE
  2
LAYER
  5
2
330
0
100
AcDbSymbolTable
 70
     2
  0
LAYER
  5
10
330
2
100
AcDbSymbolTableRecord
100
AcDbLayerTableRecord
  2
0
 70
     0
 62
     7
  6
Continuous
370
    -3
390
F
347
3E
  0
LAYER
  5
40
330
2
100
AcDbSymbolTableRecord
100
AcDbLayerTableRecord
  2
Layer 1
 70
     0
 62
     7
  6
Continuous
370
    -3
390
F
347
3E
  0
ENDTAB
  0
TABLE
  2
STYLE
  5
3
330
0
100
AcDbSymbolTable
 70
     1
  0
STYLE
  5
11
330
3
100
AcDbSymbolTableRecord
100
AcDbTextStyleTableRecord
  2
Standard
 70
     0
 40
0.0
 41
1.0
 50
0.0
 71
     0
 42
0.2
  3
txt
  4

  0
ENDTAB
  0
TABLE
  2
VIEW
  5
6
330
0
100
AcDbSymbolTable
 70
     0
  0
ENDTAB
  0
TABLE
  2
UCS
  5
7
330
0
100
AcDbSymbolTable
 70
     0
  0
ENDTAB
  0
TABLE
  2
APPID
  5
9
330
0
100
AcDbSymbolTable
 70
     1
  0
APPID
  5
12
330
9
100
AcDbSymbolTableRecord
100
AcDbRegAppTableRecord
  2
ACAD
 70
     0
  0
ENDTAB
  0
TABLE
  2
DIMSTYLE
  5
A
330
0
100
AcDbSymbolTable
 70
     1
100
AcDbDimStyleTable
  0
DIMSTYLE
105
27
330
A
100
AcDbSymbolTableRecord
100
AcDbDimStyleTableRecord
  2
Standard
 70
     0
178
     0
340
11
  0
ENDTAB
  0
TABLE
  2
BLOCK_RECORD
  5
1
330
0
100
AcDbSymbolTable
 70
     1
  0
BLOCK_RECORD
  5
1F
330
1
100
AcDbSymbolTableRecord
100
AcDbBlockTableRecord
  2
*Model_Space
340
22
 70
     0
280
     1
281
     0
  0
BLOCK_RECORD
  5
1B
330
1
100
AcDbSymbolTableRecord
100
AcDbBlockTableRecord
  2
*Paper_Space
340
1E
 70
     0
280
     1
281
     0
  0
BLOCK_RECORD
  5
23
330
1
100
AcDbSymbolTableRecord
100
AcDbBlockTableRecord
  2
*Paper_Space0
340
26
 70
     0
280
     1
281
     0
  0
ENDTAB
  0
ENDSEC
  0
SECTION
  2
BLOCKS
  0
BLOCK
  5
20
330
1F
100
AcDbEntity
  8
0
100
AcDbBlockBegin
  2
*Model_Space
 70
     0
 10
0.0
 20
0.0
 30
0.0
  3
*Model_Space
  1

  0
ENDBLK
  5
21
330
1F
100
AcDbEntity
  8
0
100
AcDbBlockEnd
  0
BLOCK
  5
1C
330
1B
100
AcDbEntity
 67
     1
  8
0
100
AcDbBlockBegin
  2
*Paper_Space
 70
     0
 10
0.0
 20
0.0
 30
0.0
  3
*Paper_Space
  1

  0
ENDBLK
  5
1D
330
1B
100
AcDbEntity
 67
     1
  8
0
100
AcDbBlockEnd
  0
BLOCK
  5
24
330
23
100
AcDbEntity
  8
0
100
AcDbBlockBegin
  2
*Paper_Space0
 70
     0
 10
0.0
 20
0.0
 30
0.0
  3
*Paper_Space0
  1

  0
ENDBLK
  5
25
330
23
100
AcDbEntity
  8
0
100
AcDbBlockEnd
  0
ENDSEC
  0
SECTION
  2
ENTITIES
  0
POLYLINE
  5
41
330
1F
100
AcDbEntity
  8
Layer 1
 62
     7
420
 16777215
370
     9
100
AcDb2dPolyline
 66
     1
 10
0.0
 20
0.0
 30
0.0
  0
VERTEX
  5
42
330
41
100
AcDbEntity
  8
Layer 1
 62
     7
420
 16777215
370
     9
100
AcDbVertex
100
AcDb2dVertex
 10
13.32799953884549
 20
3.946429782443576
 30
0.0
  0
VERTEX
  5
43
330
41
100
AcDbEntity
  8
Layer 1
 62
     7
420
 16777215
370
     9
100
AcDbVertex
100
AcDb2dVertex
 10
13.32389916314019
 20
3.91864988538954
 30
0.0
  0
VERTEX
  5
44
330
41
100
AcDbEntity
  8
Layer 1
 62
     7
420
 16777215
370
     9
100
AcDbVertex
100
AcDb2dVertex
 10
13.31139967176649
 20
3.893649631076389
 30
0.0
  0
VERTEX
  5
45
330
41
100
AcDbEntity
  8
Layer 1
 62
     7
420
 16777215
370
     9
100
AcDbVertex
100
AcDb2dVertex
 10
13.29189893934462
 20
3.874199761284722
 30
0.0
  0
VERTEX
  5
46
330
41
100
AcDbEntity
  8
Layer 1
 62
     7
420
 16777215
370
     9
100
AcDbVertex
100
AcDb2dVertex
 10
13.26689910888672
 20
3.861699846055772
 30
0.0
  0
VERTEX
  5
47
330
41
100
AcDbEntity
  8
Layer 1
 62
     7
420
 16777215
370
     9
100
AcDbVertex
100
AcDb2dVertex
 10
13.23919932047526
 20
3.857539706759983
 30
0.0
  0
VERTEX
  5
48
330
41
100
AcDbEntity
  8
Layer 1
 62
     7
420
 16777215
370
     9
100
AcDbVertex
100
AcDb2dVertex
 10
13.12109968397352
 20
3.857539706759983
 30
0.0
  0
VERTEX
  5
49
330
41
100
AcDbEntity
  8
Layer 1
 62
     7
420
 16777215
370
     9
100
AcDbVertex
100
AcDb2dVertex
 10
13.09329901801215
 20
3.861699846055772
 30
0.0
  0
VERTEX
  5
4A
330
41
100
AcDbEntity
  8
Layer 1
 62
     7
420
 16777215
370
     9
100
AcDbVertex
100
AcDb2dVertex
 10
13.06829918755425
 20
3.874199761284722
 30
0.0
  0
VERTEX
  5
4B
330
41
100
AcDbEntity
  8
Layer 1
 62
     7
420
 16777215
370
     9
100
AcDbVertex
100
AcDb2dVertex
 10
13.04889933268229
 20
3.893649631076389
 30
0.0
  0
VERTEX
  5
4C
330
41
100
AcDbEntity
  8
Layer 1
 62
     7
420
 16777215
370
     9
100
AcDbVertex
100
AcDb2dVertex
 10
13.03639899359809
 20
3.91864988538954
 30
0.0
  0
VERTEX
  5
4D
330
41
100
AcDbEntity
  8
Layer 1
 62
     7
420
 16777215
370
     9
100
AcDbVertex
100
AcDb2dVertex
 10
13.03219943576389
 20
3.946429782443576
 30
0.0
  0
VERTEX
  5
4E
330
41
100
AcDbEntity
  8
Layer 1
 62
     7
420
 16777215
370
     9
100
AcDbVertex
100
AcDb2dVertex
 10
13.03639899359809
 20
3.974199930826823
 30
0.0
  0
VERTEX
  5
4F
330
41
100
AcDbEntity
  8
Layer 1
 62
     7
420
 16777215
370
     9
100
AcDbVertex
100
AcDb2dVertex
 10
13.04889933268229
 20
3.999199761284722
 30
0.0
  0
VERTEX
  5
50
330
41
100
AcDbEntity
  8
Layer 1
 62
     7
420
 16777215
370
     9
100
AcDbVertex
100
AcDb2dVertex
 10
13.06829918755425
 20
4.018649631076388
 30
0.0
  0
VERTEX
  5
51
330
41
100
AcDbEntity
  8
Layer 1
 62
     7
420
 16777215
370
     9
100
AcDbVertex
100
AcDb2dVertex
 10
13.09329901801215
 20
4.031149546305338
 30
0.0
  0
VERTEX
  5
52
330
41
100
AcDbEntity
  8
Layer 1
 62
     7
420
 16777215
370
     9
100
AcDbVertex
100
AcDb2dVertex
 10
13.12109968397352
 20
4.035319434271918
 30
0.0
  0
VERTEX
  5
53
330
41
100
AcDbEntity
  8
Layer 1
 62
     7
420
 16777215
370
     9
100
AcDbVertex
100
AcDb2dVertex
 10
13.23919932047526
 20
4.035319434271918
 30
0.0
  0
VERTEX
  5
54
330
41
100
AcDbEntity
  8
Layer 1
 62
     7
420
 16777215
370
     9
100
AcDbVertex
100
AcDb2dVertex
 10
13.26689910888672
 20
4.031149546305338
 30
0.0
  0
VERTEX
  5
55
330
41
100
AcDbEntity
  8
Layer 1
 62
     7
420
 16777215
370
     9
100
AcDbVertex
100
AcDb2dVertex
 10
13.29189893934462
 20
4.018649631076388
 30
0.0
  0
VERTEX
  5
56
330
41
100
AcDbEntity
  8
Layer 1
 62
     7
420
 16777215
370
     9
100
AcDbVertex
100
AcDb2dVertex
 10
13.31139967176649
 20
3.999199761284722
 30
0.0
  0
VERTEX
  5
57
330
41
100
AcDbEntity
  8
Layer 1
 62
     7
420
 16777215
370
     9
100
AcDbVertex
100
AcDb2dVertex
 10
13.32389916314019
 20
3.974199930826823
 30
0.0
  0
VERTEX
  5
58
330
41
100
AcDbEntity
  8
Layer 1
 62
     7
420
 16777215
370
     9
100
AcDbVertex
100
AcDb2dVertex
 10
13.32799953884549
 20
3.946429782443576
 30
0.0
  0
SEQEND
  5
59
330
41
100
AcDbEntity
  8
Layer 1
 62
     7
420
 16777215
370
     9
  0
POLYLINE
  5
5A
330
1F
100
AcDbEntity
  8
Layer 1
 62
     7
420
 16777215
370
     9
100
AcDb2dPolyline
 66
     1
 10
0.0
 20
0.0
 30
0.0
  0
VERTEX
  5
5B
330
5A
100
AcDbEntity
  8
Layer 1
 62
     7
420
 16777215
370
     9
100
AcDbVertex
100
AcDb2dVertex
 10
2.614149941338433
 20
3.946429782443576
 30
0.0
  0
VERTEX
  5
5C
330
5A
100
AcDbEntity
  8
Layer 1
 62
     7
420
 16777215
370
     9
100
AcDbVertex
100
AcDb2dVertex
 10
2.618319829305013
 20
3.91864988538954
 30
0.0
  0
VERTEX
  5
5D
330
5A
100
AcDbEntity
  8
Layer 1
 62
     7
420
 16777215
370
     9
100
AcDbVertex
100
AcDb2dVertex
 10
2.630819744533963
 20
3.893649631076389
 30
0.0
  0
VERTEX
  5
5E
330
5A
100
AcDbEntity
  8
Layer 1
 62
     7
420
 16777215
370
     9
100
AcDbVertex
100
AcDb2dVertex
 10
2.650259865654839
 20
3.874199761284722
 30
0.0
  0
VERTEX
  5
5F
330
5A
100
AcDbEntity
  8
Layer 1
 62
     7
420
 16777215
370
     9
100
AcDbVertex
100
AcDb2dVertex
 10
2.675259908040364
 20
3.861699846055772
 30
0.0
  0
VERTEX
  5
60
330
5A
100
AcDbEntity
  8
Layer 1
 62
     7
420
 16777215
370
     9
100
AcDbVertex
100
AcDb2dVertex
 10
2.703039805094401
 20
3.857539706759983
 30
0.0
  0
VERTEX
  5
61
330
5A
100
AcDbEntity
  8
Layer 1
 62
     7
420
 16777215
370
     9
100
AcDbVertex
100
AcDb2dVertex
 10
2.8210998111301
 20
3.857539706759983
 30
0.0
  0
VERTEX
  5
62
330
5A
100
AcDbEntity
  8
Layer 1
 62
     7
420
 16777215
370
     9
100
AcDbVertex
100
AcDb2dVertex
 10
2.848869747585721
 20
3.861699846055772
 30
0.0
  0
VERTEX
  5
63
330
5A
100
AcDbEntity
  8
Layer 1
 62
     7
420
 16777215
370
     9
100
AcDbVertex
100
AcDb2dVertex
 10
2.873869789971245
 20
3.874199761284722
 30
0.0
  0
VERTEX
  5
64
330
5A
100
AcDbEntity
  8
Layer 1
 62
     7
420
 16777215
370
     9
100
AcDbVertex
100
AcDb2dVertex
 10
2.893319871690538
 20
3.893649631076389
 30
0.0
  0
VERTEX
  5
65
330
5A
100
AcDbEntity
  8
Layer 1
 62
     7
420
 16777215
370
     9
100
AcDbVertex
100
AcDb2dVertex
 10
2.905819786919488
 20
3.91864988538954
 30
0.0
  0
VERTEX
  5
66
330
5A
100
AcDbEntity
  8
Layer 1
 62
     7
420
 16777215
370
     9
100
AcDbVertex
100
AcDb2dVertex
 10
2.909989886813694
 20
3.946429782443576
 30
0.0
  0
VERTEX
  5
67
330
5A
100
AcDbEntity
  8
Layer 1
 62
     7
420
 16777215
370
     9
100
AcDbVertex
100
AcDb2dVertex
 10
2.905819786919488
 20
3.974199930826823
 30
0.0
  0
VERTEX
  5
68
330
5A
100
AcDbEntity
  8
Layer 1
 62
     7
420
 16777215
370
     9
100
AcDbVertex
100
AcDb2dVertex
 10
2.893319871690538
 20
3.999199761284722
 30
0.0
  0
VERTEX
  5
69
330
5A
100
AcDbEntity
  8
Layer 1
 62
     7
420
 16777215
370
     9
100
AcDbVertex
100
AcDb2dVertex
 10
2.873869789971245
 20
4.018649631076388
 30
0.0
  0
VERTEX
  5
6A
330
5A
100
AcDbEntity
  8
Layer 1
 62
     7
420
 16777215
370
     9
100
AcDbVertex
100
AcDb2dVertex
 10
2.848869747585721
 20
4.031149546305338
 30
0.0
  0
VERTEX
  5
6B
330
5A
100
AcDbEntity
  8
Layer 1
 62
     7
420
 16777215
370
     9
100
AcDbVertex
100
AcDb2dVertex
 10
2.8210998111301
 20
4.035319434271918
 30
0.0
  0
VERTEX
  5
6C
330
5A
100
AcDbEntity
  8
Layer 1
 62
     7
420
 16777215
370
     9
100
AcDbVertex
100
AcDb2dVertex
 10
2.703039805094401
 20
4.035319434271918
 30
0.0
  0
VERTEX
  5
6D
330
5A
100
AcDbEntity
  8
Layer 1
 62
     7
420
 16777215
370
     9
100
AcDbVertex
100
AcDb2dVertex
 10
2.675259908040364
 20
4.031149546305338
 30
0.0
  0
VERTEX
  5
6E
330
5A
100
AcDbEntity
  8
Layer 1
 62
     7
420
 16777215
370
     9
100
AcDbVertex
100
AcDb2dVertex
 10
2.650259865654839
 20
4.018649631076388
 30
0.0
  0
VERTEX
  5
6F
330
5A
100
AcDbEntity
  8
Layer 1
 62
     7
420
 16777215
370
     9
100
AcDbVertex
100
AcDb2dVertex
 10
2.630819744533963
 20
3.999199761284722
 30
0.0
  0
VERTEX
  5
70
330
5A
100
AcDbEntity
  8
Layer 1
 62
     7
420
 16777215
370
     9
100
AcDbVertex
100
AcDb2dVertex
 10
2.618319829305013
 20
3.974199930826823
 30
0.0
  0
VERTEX
  5
71
330
5A
100
AcDbEntity
  8
Layer 1
 62
     7
420
 16777215
370
     9
100
AcDbVertex
100
AcDb2dVertex
 10
2.614149941338433
 20
3.946429782443576
 30
0.0
  0
SEQEND
  5
72
330
5A
100
AcDbEntity
  8
Layer 1
 62
     7
420
 16777215
370
     9
  0
POLYLINE
  5
73
330
1F
100
AcDbEntity
  8
Layer 1
 62
     7
420
 16777215
370
     9
100
AcDb2dPolyline
 66
     1
 10
0.0
 20
0.0
 30
0.0
  0
VERTEX
  5
74
330
73
100
AcDbEntity
  8
Layer 1
 62
     7
420
 16777215
370
     9
100
AcDbVertex
100
AcDb2dVertex
 10
2.822279824150933
 20
5.827949523925781
 30
0.0
  0
VERTEX
  5
75
330
73
100
AcDbEntity
  8
Layer 1
 62
     7
420
 16777215
370
     9
100
AcDbVertex
100
AcDb2dVertex
 10
2.704169803195529
 20
5.827949523925781
 30
0.0
  0
VERTEX
  5
76
330
73
100
AcDbEntity
  8
Layer 1
 62
     7
420
 16777215
370
     9
100
AcDbVertex
100
AcDb2dVertex
 10
2.676829867892795
 20
5.832279629177517
 30
0.0
  0
VERTEX
  5
77
330
73
100
AcDbEntity
  8
Layer 1
 62
     7
420
 16777215
370
     9
100
AcDbVertex
100
AcDb2dVertex
 10
2.652149836222331
 20
5.844849480523004
 30
0.0
  0
VERTEX
  5
78
330
73
100
AcDbEntity
  8
Layer 1
 62
     7
420
 16777215
370
     9
100
AcDbVertex
100
AcDb2dVertex
 10
2.632569842868381
 20
5.864429897732204
 30
0.0
  0
VERTEX
  5
79
330
73
100
AcDbEntity
  8
Layer 1
 62
     7
420
 16777215
370
     9
100
AcDbVertex
100
AcDb2dVertex
 10
2.619999779595269
 20
5.889099544949001
 30
0.0
  0
VERTEX
  5
7A
330
73
100
AcDbEntity
  8
Layer 1
 62
     7
420
 16777215
370
     9
100
AcDbVertex
100
AcDb2dVertex
 10
2.615669674343533
 20
5.916449652777778
 30
0.0
  0
VERTEX
  5
7B
330
73
100
AcDbEntity
  8
Layer 1
 62
     7
420
 16777215
370
     9
100
AcDbVertex
100
AcDb2dVertex
 10
2.619999779595269
 20
5.943789588080512
 30
0.0
  0
VERTEX
  5
7C
330
73
100
AcDbEntity
  8
Layer 1
 62
     7
420
 16777215
370
     9
100
AcDbVertex
100
AcDb2dVertex
 10
2.632569842868381
 20
5.96846940782335
 30
0.0
  0
VERTEX
  5
7D
330
73
100
AcDbEntity
  8
Layer 1
 62
     7
420
 16777215
370
     9
100
AcDbVertex
100
AcDb2dVertex
 10
2.652149836222331
 20
5.98803965250651
 30
0.0
  0
VERTEX
  5
7E
330
73
100
AcDbEntity
  8
Layer 1
 62
     7
420
 16777215
370
     9
100
AcDbVertex
100
AcDb2dVertex
 10
2.676829867892795
 20
6.000619676378038
 30
0.0
  0
VERTEX
  5
7F
330
73
100
AcDbEntity
  8
Layer 1
 62
     7
420
 16777215
370
     9
100
AcDbVertex
100
AcDb2dVertex
 10
2.704169803195529
 20
6.004949781629774
 30
0.0
  0
VERTEX
  5
80
330
73
100
AcDbEntity
  8
Layer 1
 62
     7
420
 16777215
370
     9
100
AcDbVertex
100
AcDb2dVertex
 10
2.822279824150933
 20
6.004949781629774
 30
0.0
  0
VERTEX
  5
81
330
73
100
AcDbEntity
  8
Layer 1
 62
     7
420
 16777215
370
     9
100
AcDbVertex
100
AcDb2dVertex
 10
2.849629931979709
 20
6.000619676378038
 30
0.0
  0
VERTEX
  5
82
330
73
100
AcDbEntity
  8
Layer 1
 62
     7
420
 16777215
370
     9
100
AcDbVertex
100
AcDb2dVertex
 10
2.874299791124132
 20
5.98803965250651
 30
0.0
  0
VERTEX
  5
83
330
73
100
AcDbEntity
  8
Layer 1
 62
     7
420
 16777215
370
     9
100
AcDbVertex
100
AcDb2dVertex
 10
2.893879996405707
 20
5.96846940782335
 30
0.0
  0
VERTEX
  5
84
330
73
100
AcDbEntity
  8
Layer 1
 62
     7
420
 16777215
370
     9
100
AcDbVertex
100
AcDb2dVertex
 10
2.906449847751194
 20
5.943789588080512
 30
0.0
  0
VERTEX
  5
85
330
73
100
AcDbEntity
  8
Layer 1
 62
     7
420
 16777215
370
     9
100
AcDbVertex
100
AcDb2dVertex
 10
2.91077995300293
 20
5.916449652777778
 30
0.0
  0
VERTEX
  5
86
330
73
100
AcDbEntity
  8
Layer 1
 62
     7
420
 16777215
370
     9
100
AcDbVertex
100
AcDb2dVertex
 10
2.906449847751194
 20
5.889099544949001
 30
0.0
  0
VERTEX
  5
87
330
73
100
AcDbEntity
  8
Layer 1
 62
     7
420
 16777215
370
     9
100
AcDbVertex
100
AcDb2dVertex
 10
2.893879996405707
 20
5.864429897732204
 30
0.0
  0
VERTEX
  5
88
330
73
100
AcDbEntity
  8
Layer 1
 62
     7
420
 16777215
370
     9
100
AcDbVertex
100
AcDb2dVertex
 10
2.874299791124132
 20
5.844849480523004
 30
0.0
  0
VERTEX
  5
89
330
73
100
AcDbEntity
  8
Layer 1
 62
     7
420
 16777215
370
     9
100
AcDbVertex
100
AcDb2dVertex
 10
2.849629931979709
 20
5.832279629177517
 30
0.0
  0
VERTEX
  5
8A
330
73
100
AcDbEntity
  8
Layer 1
 62
     7
420
 16777215
370
     9
100
AcDbVertex
100
AcDb2dVertex
 10
2.822279824150933
 20
5.827949523925781
 30
0.0
  0
SEQEND
  5
8B
330
73
100
AcDbEntity
  8
Layer 1
 62
     7
420
 16777215
370
     9
  0
POLYLINE
  5
8C
330
1F
100
AcDbEntity
  8
Layer 1
 62
     7
420
 16777215
370
     9
100
AcDb2dPolyline
 66
     1
 10
0.0
 20
0.0
 30
0.0
  0
VERTEX
  5
8D
330
8C
100
AcDbEntity
  8
Layer 1
 62
     7
420
 16777215
370
     9
100
AcDbVertex
100
AcDb2dVertex
 10
14.37389967176649
 20
5.832279629177517
 30
0.0
  0
VERTEX
  5
8E
330
8C
100
AcDbEntity
  8
Layer 1
 62
     7
420
 16777215
370
     9
100
AcDbVertex
100
AcDb2dVertex
 10
14.39849853515625
 20
5.844849480523004
 30
0.0
  0
VERTEX
  5
8F
330
8C
100
AcDbEntity
  8
Layer 1
 62
     7
420
 16777215
370
     9
100
AcDbVertex
100
AcDb2dVertex
 10
14.41809929741753
 20
5.864429897732204
 30
0.0
  0
VERTEX
  5
90
330
8C
100
AcDbEntity
  8
Layer 1
 62
     7
420
 16777215
370
     9
100
AcDbVertex
100
AcDb2dVertex
 10
14.43069966634114
 20
5.889099544949001
 30
0.0
  0
VERTEX
  5
91
330
8C
100
AcDbEntity
  8
Layer 1
 62
     7
420
 16777215
370
     9
100
AcDbVertex
100
AcDb2dVertex
 10
14.43499925401476
 20
5.916449652777778
 30
0.0
  0
VERTEX
  5
92
330
8C
100
AcDbEntity
  8
Layer 1
 62
     7
420
 16777215
370
     9
100
AcDbVertex
100
AcDb2dVertex
 10
14.43069966634114
 20
5.943789588080512
 30
0.0
  0
VERTEX
  5
93
330
8C
100
AcDbEntity
  8
Layer 1
 62
     7
420
 16777215
370
     9
100
AcDbVertex
100
AcDb2dVertex
 10
14.41809929741753
 20
5.96846940782335
 30
0.0
  0
VERTEX
  5
94
330
8C
100
AcDbEntity
  8
Layer 1
 62
     7
420
 16777215
370
     9
100
AcDbVertex
100
AcDb2dVertex
 10
14.39849853515625
 20
5.98803965250651
 30
0.0
  0
VERTEX
  5
95
330
8C
100
AcDbEntity
  8
Layer 1
 62
     7
420
 16777215
370
     9
100
AcDbVertex
100
AcDb2dVertex
 10
14.37389967176649
 20
6.000619676378038
 30
0.0
  0
VERTEX
  5
96
330
8C
100
AcDbEntity
  8
Layer 1
 62
     7
420
 16777215
370
     9
100
AcDbVertex
100
AcDb2dVertex
 10
14.34649827745226
 20
6.004949781629774
 30
0.0
  0
VERTEX
  5
97
330
8C
100
AcDbEntity
  8
Layer 1
 62
     7
420
 16777215
370
     9
100
AcDbVertex
100
AcDb2dVertex
 10
14.22839864095052
 20
6.004949781629774
 30
0.0
  0
VERTEX
  5
98
330
8C
100
AcDbEntity
  8
Layer 1
 62
     7
420
 16777215
370
     9
100
AcDbVertex
100
AcDb2dVertex
 10
14.20099894205729
 20
6.000619676378038
 30
0.0
  0
VERTEX
  5
99
330
8C
100
AcDbEntity
  8
Layer 1
 62
     7
420
 16777215
370
     9
100
AcDbVertex
100
AcDb2dVertex
 10
14.17639923095703
 20
5.98803965250651
 30
0.0
  0
VERTEX
  5
9A
330
8C
100
AcDbEntity
  8
Layer 1
 62
     7
420
 16777215
370
     9
100
AcDbVertex
100
AcDb2dVertex
 10
14.15679931640625
 20
5.96846940782335
 30
0.0
  0
VERTEX
  5
9B
330
8C
100
AcDbEntity
  8
Layer 1
 62
     7
420
 16777215
370
     9
100
AcDbVertex
100
AcDb2dVertex
 10
14.14419894748264
 20
5.943789588080512
 30
0.0
  0
VERTEX
  5
9C
330
8C
100
AcDbEntity
  8
Layer 1
 62
     7
420
 16777215
370
     9
100
AcDbVertex
100
AcDb2dVertex
 10
14.13989935980903
 20
5.916449652777778
 30
0.0
  0
VERTEX
  5
9D
330
8C
100
AcDbEntity
  8
Layer 1
 62
     7
420
 16777215
370
     9
100
AcDbVertex
100
AcDb2dVertex
 10
14.14419894748264
 20
5.889099544949001
 30
0.0
  0
VERTEX
  5
9E
330
8C
100
AcDbEntity
  8
Layer 1
 62
     7
420
 16777215
370
     9
100
AcDbVertex
100
AcDb2dVertex
 10
14.15679931640625
 20
5.864429897732204
 30
0.0
  0
VERTEX
  5
9F
330
8C
100
AcDbEntity
  8
Layer 1
 62
     7
420
 16777215
370
     9
100
AcDbVertex
100
AcDb2dVertex
 10
14.17639923095703
 20
5.844849480523004
 30
0.0
  0
VERTEX
  5
A0
330
8C
100
AcDbEntity
  8
Layer 1
 62
     7
420
 16777215
370
     9
100
AcDbVertex
100
AcDb2dVertex
 10
14.20099894205729
 20
5.832279629177517
 30
0.0
  0
VERTEX
  5
A1
330
8C
100
AcDbEntity
  8
Layer 1
 62
     7
420
 16777215
370
     9
100
AcDbVertex
100
AcDb2dVertex
 10
14.22839864095052
 20
5.827949523925781
 30
0.0
  0
VERTEX
  5
A2
330
8C
100
AcDbEntity
  8
Layer 1
 62
     7
420
 16777215
370
     9
100
AcDbVertex
100
AcDb2dVertex
 10
14.34649827745226
 20
5.827949523925781
 30
0.0
  0
VERTEX
  5
A3
330
8C
100
AcDbEntity
  8
Layer 1
 62
     7
420
 16777215
370
     9
100
AcDbVertex
100
AcDb2dVertex
 10
14.37389967176649
 20
5.832279629177517
 30
0.0
  0
SEQEND
  5
A4
330
8C
100
AcDbEntity
  8
Layer 1
 62
     7
420
 16777215
370
     9
  0
POLYLINE
  5
A5
330
1F
100
AcDbEntity
  8
Layer 1
 62
     7
420
 16777215
370
     9
100
AcDb2dPolyline
 66
     1
 10
0.0
 20
0.0
 30
0.0
  0
VERTEX
  5
A6
330
A5
100
AcDbEntity
  8
Layer 1
 62
     7
420
 16777215
370
     9
100
AcDbVertex
100
AcDb2dVertex
 10
2.849629931979709
 20
6.36376953125
 30
0.0
  0
VERTEX
  5
A7
330
A5
100
AcDbEntity
  8
Layer 1
 62
     7
420
 16777215
370
     9
100
AcDbVertex
100
AcDb2dVertex
 10
2.874299791124132
 20
6.376339382595486
 30
0.0
  0
VERTEX
  5
A8
330
A5
100
AcDbEntity
  8
Layer 1
 62
     7
420
 16777215
370
     9
100
AcDbVertex
100
AcDb2dVertex
 10
2.893879996405707
 20
6.395919799804688
 30
0.0
  0
VERTEX
  5
A9
330
A5
100
AcDbEntity
  8
Layer 1
 62
     7
420
 16777215
370
     9
100
AcDbVertex
100
AcDb2dVertex
 10
2.906449847751194
 20
6.420599619547525
 30
0.0
  0
VERTEX
  5
AA
330
A5
100
AcDbEntity
  8
Layer 1
 62
     7
420
 16777215
370
     9
100
AcDbVertex
100
AcDb2dVertex
 10
2.91077995300293
 20
6.44793955485026
 30
0.0
  0
VERTEX
  5
AB
330
A5
100
AcDbEntity
  8
Layer 1
 62
     7
420
 16777215
370
     9
100
AcDbVertex
100
AcDb2dVertex
 10
2.906449847751194
 20
6.475289662679036
 30
0.0
  0
VERTEX
  5
AC
330
A5
100
AcDbEntity
  8
Layer 1
 62
     7
420
 16777215
370
     9
100
AcDbVertex
100
AcDb2dVertex
 10
2.893879996405707
 20
6.499959733751084
 30
0.0
  0
VERTEX
  5
AD
330
A5
100
AcDbEntity
  8
Layer 1
 62
     7
420
 16777215
370
     9
100
AcDbVertex
100
AcDb2dVertex
 10
2.874299791124132
 20
6.519539727105034
 30
0.0
  0
VERTEX
  5
AE
330
A5
100
AcDbEntity
  8
Layer 1
 62
     7
420
 16777215
370
     9
100
AcDbVertex
100
AcDb2dVertex
 10
2.849629931979709
 20
6.532110002305772
 30
0.0
  0
VERTEX
  5
AF
330
A5
100
AcDbEntity
  8
Layer 1
 62
     7
420
 16777215
370
     9
100
AcDbVertex
100
AcDb2dVertex
 10
2.822279824150933
 20
6.536439683702256
 30
0.0
  0
VERTEX
  5
B0
330
A5
100
AcDbEntity
  8
Layer 1
 62
     7
420
 16777215
370
     9
100
AcDbVertex
100
AcDb2dVertex
 10
2.704169803195529
 20
6.536439683702256
 30
0.0
  0
VERTEX
  5
B1
330
A5
100
AcDbEntity
  8
Layer 1
 62
     7
420
 16777215
370
     9
100
AcDbVertex
100
AcDb2dVertex
 10
2.676829867892795
 20
6.532110002305772
 30
0.0
  0
VERTEX
  5
B2
330
A5
100
AcDbEntity
  8
Layer 1
 62
     7
420
 16777215
370
     9
100
AcDbVertex
100
AcDb2dVertex
 10
2.652149836222331
 20
6.519539727105034
 30
0.0
  0
VERTEX
  5
B3
330
A5
100
AcDbEntity
  8
Layer 1
 62
     7
420
 16777215
370
     9
100
AcDbVertex
100
AcDb2dVertex
 10
2.632569842868381
 20
6.499959733751084
 30
0.0
  0
VERTEX
  5
B4
330
A5
100
AcDbEntity
  8
Layer 1
 62
     7
420
 16777215
370
     9
100
AcDbVertex
100
AcDb2dVertex
 10
2.619999779595269
 20
6.475289662679036
 30
0.0
  0
VERTEX
  5
B5
330
A5
100
AcDbEntity
  8
Layer 1
 62
     7
420
 16777215
370
     9
100
AcDbVertex
100
AcDb2dVertex
 10
2.615669674343533
 20
6.44793955485026
 30
0.0
  0
VERTEX
  5
B6
330
A5
100
AcDbEntity
  8
Layer 1
 62
     7
420
 16777215
370
     9
100
AcDbVertex
100
AcDb2dVertex
 10
2.619999779595269
 20
6.420599619547525
 30
0.0
  0
VERTEX
  5
B7
330
A5
100
AcDbEntity
  8
Layer 1
 62
     7
420
 16777215
370
     9
100
AcDbVertex
100
AcDb2dVertex
 10
2.632569842868381
 20
6.395919799804688
 30
0.0
  0
VERTEX
  5
B8
330
A5
100
AcDbEntity
  8
Layer 1
 62
     7
420
 16777215
370
     9
100
AcDbVertex
100
AcDb2dVertex
 10
2.652149836222331
 20
6.376339382595486
 30
0.0
  0
VERTEX
  5
B9
330
A5
100
AcDbEntity
  8
Layer 1
 62
     7
420
 16777215
370
     9
100
AcDbVertex
100
AcDb2dVertex
 10
2.676829867892795
 20
6.36376953125
 30
0.0
  0
VERTEX
  5
BA
330
A5
100
AcDbEntity
  8
Layer 1
 62
     7
420
 16777215
370
     9
100
AcDbVertex
100
AcDb2dVertex
 10
2.704169803195529
 20
6.359439425998263
 30
0.0
  0
VERTEX
  5
BB
330
A5
100
AcDbEntity
  8
Layer 1
 62
     7
420
 16777215
370
     9
100
AcDbVertex
100
AcDb2dVertex
 10
2.822279824150933
 20
6.359439425998263
 30
0.0
  0
VERTEX
  5
BC
330
A5
100
AcDbEntity
  8
Layer 1
 62
     7
420
 16777215
370
     9
100
AcDbVertex
100
AcDb2dVertex
 10
2.849629931979709
 20
6.36376953125
 30
0.0
  0
SEQEND
  5
BD
330
A5
100
AcDbEntity
  8
Layer 1
 62
     7
420
 16777215
370
     9
  0
POLYLINE
  5
BE
330
1F
100
AcDbEntity
  8
Layer 1
 62
     7
420
 16777215
370
     9
100
AcDb2dPolyline
 66
     1
 10
0.0
 20
0.0
 30
0.0
  0
VERTEX
  5
BF
330
BE
100
AcDbEntity
  8
Layer 1
 62
     7
420
 16777215
370
     9
100
AcDbVertex
100
AcDb2dVertex
 10
14.22839864095052
 20
6.359439425998263
 30
0.0
  0
VERTEX
  5
C0
330
BE
100
AcDbEntity
  8
Layer 1
 62
     7
420
 16777215
370
     9
100
AcDbVertex
100
AcDb2dVertex
 10
14.34649827745226
 20
6.359439425998263
 30
0.0
  0
VERTEX
  5
C1
330
BE
100
AcDbEntity
  8
Layer 1
 62
     7
420
 16777215
370
     9
100
AcDbVertex
100
AcDb2dVertex
 10
14.37389967176649
 20
6.36376953125
 30
0.0
  0
VERTEX
  5
C2
330
BE
100
AcDbEntity
  8
Layer 1
 62
     7
420
 16777215
370
     9
100
AcDbVertex
100
AcDb2dVertex
 10
14.39849853515625
 20
6.376339382595486
 30
0.0
  0
VERTEX
  5
C3
330
BE
100
AcDbEntity
  8
Layer 1
 62
     7
420
 16777215
370
     9
100
AcDbVertex
100
AcDb2dVertex
 10
14.41809929741753
 20
6.395919799804688
 30
0.0
  0
VERTEX
  5
C4
330
BE
100
AcDbEntity
  8
Layer 1
 62
     7
420
 16777215
370
     9
100
AcDbVertex
100
AcDb2dVertex
 10
14.43069966634114
 20
6.420599619547525
 30
0.0
  0
VERTEX
  5
C5
330
BE
100
AcDbEntity
  8
Layer 1
 62
     7
420
 16777215
370
     9
100
AcDbVertex
100
AcDb2dVertex
 10
14.43499925401476
 20
6.44793955485026
 30
0.0
  0
VERTEX
  5
C6
330
BE
100
AcDbEntity
  8
Layer 1
 62
     7
420
 16777215
370
     9
100
AcDbVertex
100
AcDb2dVertex
 10
14.43069966634114
 20
6.475289662679036
 30
0.0
  0
VERTEX
  5
C7
330
BE
100
AcDbEntity
  8
Layer 1
 62
     7
420
 16777215
370
     9
100
AcDbVertex
100
AcDb2dVertex
 10
14.41809929741753
 20
6.499959733751084
 30
0.0
  0
VERTEX
  5
C8
330
BE
100
AcDbEntity
  8
Layer 1
 62
     7
420
 16777215
370
     9
100
AcDbVertex
100
AcDb2dVertex
 10
14.39849853515625
 20
6.519539727105034
 30
0.0
  0
VERTEX
  5
C9
330
BE
100
AcDbEntity
  8
Layer 1
 62
     7
420
 16777215
370
     9
100
AcDbVertex
100
AcDb2dVertex
 10
14.37389967176649
 20
6.532110002305772
 30
0.0
  0
VERTEX
  5
CA
330
BE
100
AcDbEntity
  8
Layer 1
 62
     7
420
 16777215
370
     9
100
AcDbVertex
100
AcDb2dVertex
 10
14.34649827745226
 20
6.536439683702256
 30
0.0
  0
VERTEX
  5
CB
330
BE
100
AcDbEntity
  8
Layer 1
 62
     7
420
 16777215
370
     9
100
AcDbVertex
100
AcDb2dVertex
 10
14.22839864095052
 20
6.536439683702256
 30
0.0
  0
VERTEX
  5
CC
330
BE
100
AcDbEntity
  8
Layer 1
 62
     7
420
 16777215
370
     9
100
AcDbVertex
100
AcDb2dVertex
 10
14.20099894205729
 20
6.532110002305772
 30
0.0
  0
VERTEX
  5
CD
330
BE
100
AcDbEntity
  8
Layer 1
 62
     7
420
 16777215
370
     9
100
AcDbVertex
100
AcDb2dVertex
 10
14.17639923095703
 20
6.519539727105034
 30
0.0
  0
VERTEX
  5
CE
330
BE
100
AcDbEntity
  8
Layer 1
 62
     7
420
 16777215
370
     9
100
AcDbVertex
100
AcDb2dVertex
 10
14.15679931640625
 20
6.499959733751084
 30
0.0
  0
VERTEX
  5
CF
330
BE
100
AcDbEntity
  8
Layer 1
 62
     7
420
 16777215
370
     9
100
AcDbVertex
100
AcDb2dVertex
 10
14.14419894748264
 20
6.475289662679036
 30
0.0
  0
VERTEX
  5
D0
330
BE
100
AcDbEntity
  8
Layer 1
 62
     7
420
 16777215
370
     9
100
AcDbVertex
100
AcDb2dVertex
 10
14.13989935980903
 20
6.44793955485026
 30
0.0
  0
VERTEX
  5
D1
330
BE
100
AcDbEntity
  8
Layer 1
 62
     7
420
 16777215
370
     9
100
AcDbVertex
100
AcDb2dVertex
 10
14.14419894748264
 20
6.420599619547525
 30
0.0
  0
VERTEX
  5
D2
330
BE
100
AcDbEntity
  8
Layer 1
 62
     7
420
 16777215
370
     9
100
AcDbVertex
100
AcDb2dVertex
 10
14.15679931640625
 20
6.395919799804688
 30
0.0
  0
VERTEX
  5
D3
330
BE
100
AcDbEntity
  8
Layer 1
 62
     7
420
 16777215
370
     9
100
AcDbVertex
100
AcDb2dVertex
 10
14.17639923095703
 20
6.376339382595486
 30
0.0
  0
VERTEX
  5
D4
330
BE
100
AcDbEntity
  8
Layer 1
 62
     7
420
 16777215
370
     9
100
AcDbVertex
100
AcDb2dVertex
 10
14.20099894205729
 20
6.36376953125
 30
0.0
  0
VERTEX
  5
D5
330
BE
100
AcDbEntity
  8
Layer 1
 62
     7
420
 16777215
370
     9
100
AcDbVertex
100
AcDb2dVertex
 10
14.22839864095052
 20
6.359439425998263
 30
0.0
  0
SEQEND
  5
D6
330
BE
100
AcDbEntity
  8
Layer 1
 62
     7
420
 16777215
370
     9
  0
POLYLINE
  5
D7
330
1F
100
AcDbEntity
  8
Layer 1
 62
     7
420
 16777215
370
     9
100
AcDb2dPolyline
 66
     1
 10
0.0
 20
0.0
 30
0.0
  0
VERTEX
  5
D8
330
D7
100
AcDbEntity
  8
Layer 1
 62
     7
420
 16777215
370
     9
100
AcDbVertex
100
AcDb2dVertex
 10
13.26689910888672
 20
4.511309729682075
 30
0.0
  0
VERTEX
  5
D9
330
D7
100
AcDbEntity
  8
Layer 1
 62
     7
420
 16777215
370
     9
100
AcDbVertex
100
AcDb2dVertex
 10
13.23919932047526
 20
4.507139417860243
 30
0.0
  0
VERTEX
  5
DA
330
D7
100
AcDbEntity
  8
Layer 1
 62
     7
420
 16777215
370
     9
100
AcDbVertex
100
AcDb2dVertex
 10
13.12109968397352
 20
4.507139417860243
 30
0.0
  0
VERTEX
  5
DB
330
D7
100
AcDbEntity
  8
Layer 1
 62
     7
420
 16777215
370
     9
100
AcDbVertex
100
AcDb2dVertex
 10
13.09329901801215
 20
4.511309729682075
 30
0.0
  0
VERTEX
  5
DC
330
D7
100
AcDbEntity
  8
Layer 1
 62
     7
420
 16777215
370
     9
100
AcDbVertex
100
AcDb2dVertex
 10
13.06829918755425
 20
4.523810068766275
 30
0.0
  0
VERTEX
  5
DD
330
D7
100
AcDbEntity
  8
Layer 1
 62
     7
420
 16777215
370
     9
100
AcDbVertex
100
AcDb2dVertex
 10
13.04889933268229
 20
4.543259938557942
 30
0.0
  0
VERTEX
  5
DE
330
D7
100
AcDbEntity
  8
Layer 1
 62
     7
420
 16777215
370
     9
100
AcDbVertex
100
AcDb2dVertex
 10
13.03639899359809
 20
4.5682495964898
 30
0.0
  0
VERTEX
  5
DF
330
D7
100
AcDbEntity
  8
Layer 1
 62
     7
420
 16777215
370
     9
100
AcDbVertex
100
AcDb2dVertex
 10
13.03219943576389
 20
4.596029917399088
 30
0.0
  0
VERTEX
  5
E0
330
D7
100
AcDbEntity
  8
Layer 1
 62
     7
420
 16777215
370
     9
100
AcDbVertex
100
AcDb2dVertex
 10
13.03639899359809
 20
4.623809814453125
 30
0.0
  0
VERTEX
  5
E1
330
D7
100
AcDbEntity
  8
Layer 1
 62
     7
420
 16777215
370
     9
100
AcDbVertex
100
AcDb2dVertex
 10
13.04889933268229
 20
4.648810068766275
 30
0.0
  0
VERTEX
  5
E2
330
D7
100
AcDbEntity
  8
Layer 1
 62
     7
420
 16777215
370
     9
100
AcDbVertex
100
AcDb2dVertex
 10
13.06829918755425
 20
4.668259938557942
 30
0.0
  0
VERTEX
  5
E3
330
D7
100
AcDbEntity
  8
Layer 1
 62
     7
420
 16777215
370
     9
100
AcDbVertex
100
AcDb2dVertex
 10
13.09329901801215
 20
4.680759853786892
 30
0.0
  0
VERTEX
  5
E4
330
D7
100
AcDbEntity
  8
Layer 1
 62
     7
420
 16777215
370
     9
100
AcDbVertex
100
AcDb2dVertex
 10
13.12109968397352
 20
4.68491956922743
 30
0.0
  0
VERTEX
  5
E5
330
D7
100
AcDbEntity
  8
Layer 1
 62
     7
420
 16777215
370
     9
100
AcDbVertex
100
AcDb2dVertex
 10
13.23919932047526
 20
4.68491956922743
 30
0.0
  0
VERTEX
  5
E6
330
D7
100
AcDbEntity
  8
Layer 1
 62
     7
420
 16777215
370
     9
100
AcDbVertex
100
AcDb2dVertex
 10
13.26689910888672
 20
4.680759853786892
 30
0.0
  0
VERTEX
  5
E7
330
D7
100
AcDbEntity
  8
Layer 1
 62
     7
420
 16777215
370
     9
100
AcDbVertex
100
AcDb2dVertex
 10
13.29189893934462
 20
4.668259938557942
 30
0.0
  0
VERTEX
  5
E8
330
D7
100
AcDbEntity
  8
Layer 1
 62
     7
420
 16777215
370
     9
100
AcDbVertex
100
AcDb2dVertex
 10
13.31139967176649
 20
4.648810068766275
 30
0.0
  0
VERTEX
  5
E9
330
D7
100
AcDbEntity
  8
Layer 1
 62
     7
420
 16777215
370
     9
100
AcDbVertex
100
AcDb2dVertex
 10
13.32389916314019
 20
4.623809814453125
 30
0.0
  0
VERTEX
  5
EA
330
D7
100
AcDbEntity
  8
Layer 1
 62
     7
420
 16777215
370
     9
100
AcDbVertex
100
AcDb2dVertex
 10
13.32799953884549
 20
4.596029917399088
 30
0.0
  0
VERTEX
  5
EB
330
D7
100
AcDbEntity
  8
Layer 1
 62
     7
420
 16777215
370
     9
100
AcDbVertex
100
AcDb2dVertex
 10
13.32389916314019
 20
4.5682495964898
 30
0.0
  0
VERTEX
  5
EC
330
D7
100
AcDbEntity
  8
Layer 1
 62
     7
420
 16777215
370
     9
100
AcDbVertex
100
AcDb2dVertex
 10
13.31139967176649
 20
4.543259938557942
 30
0.0
  0
VERTEX
  5
ED
330
D7
100
AcDbEntity
  8
Layer 1
 62
     7
420
 16777215
370
     9
100
AcDbVertex
100
AcDb2dVertex
 10
13.29189893934462
 20
4.523810068766275
 30
0.0
  0
VERTEX
  5
EE
330
D7
100
AcDbEntity
  8
Layer 1
 62
     7
420
 16777215
370
     9
100
AcDbVertex
100
AcDb2dVertex
 10
13.26689910888672
 20
4.511309729682075
 30
0.0
  0
SEQEND
  5
EF
330
D7
100
AcDbEntity
  8
Layer 1
 62
     7
420
 16777215
370
     9
  0
POLYLINE
  5
F0
330
1F
100
AcDbEntity
  8
Layer 1
 62
     7
420
 16777215
370
     9
100
AcDb2dPolyline
 66
     1
 10
0.0
 20
0.0
 30
0.0
  0
VERTEX
  5
F1
330
F0
100
AcDbEntity
  8
Layer 1
 62
     7
420
 16777215
370
     9
100
AcDbVertex
100
AcDb2dVertex
 10
2.848869747585721
 20
4.511309729682075
 30
0.0
  0
VERTEX
  5
F2
330
F0
100
AcDbEntity
  8
Layer 1
 62
     7
420
 16777215
370
     9
100
AcDbVertex
100
AcDb2dVertex
 10
2.873869789971245
 20
4.523810068766275
 30
0.0
  0
VERTEX
  5
F3
330
F0
100
AcDbEntity
  8
Layer 1
 62
     7
420
 16777215
370
     9
100
AcDbVertex
100
AcDb2dVertex
 10
2.893319871690538
 20
4.543259938557942
 30
0.0
  0
VERTEX
  5
F4
330
F0
100
AcDbEntity
  8
Layer 1
 62
     7
420
 16777215
370
     9
100
AcDbVertex
100
AcDb2dVertex
 10
2.905819786919488
 20
4.5682495964898
 30
0.0
  0
VERTEX
  5
F5
330
F0
100
AcDbEntity
  8
Layer 1
 62
     7
420
 16777215
370
     9
100
AcDbVertex
100
AcDb2dVertex
 10
2.909989886813694
 20
4.596029917399088
 30
0.0
  0
VERTEX
  5
F6
330
F0
100
AcDbEntity
  8
Layer 1
 62
     7
420
 16777215
370
     9
100
AcDbVertex
100
AcDb2dVertex
 10
2.905819786919488
 20
4.623809814453125
 30
0.0
  0
VERTEX
  5
F7
330
F0
100
AcDbEntity
  8
Layer 1
 62
     7
420
 16777215
370
     9
100
AcDbVertex
100
AcDb2dVertex
 10
2.893319871690538
 20
4.648810068766275
 30
0.0
  0
VERTEX
  5
F8
330
F0
100
AcDbEntity
  8
Layer 1
 62
     7
420
 16777215
370
     9
100
AcDbVertex
100
AcDb2dVertex
 10
2.873869789971245
 20
4.668259938557942
 30
0.0
  0
VERTEX
  5
F9
330
F0
100
AcDbEntity
  8
Layer 1
 62
     7
420
 16777215
370
     9
100
AcDbVertex
100
AcDb2dVertex
 10
2.848869747585721
 20
4.680759853786892
 30
0.0
  0
VERTEX
  5
FA
330
F0
100
AcDbEntity
  8
Layer 1
 62
     7
420
 16777215
370
     9
100
AcDbVertex
100
AcDb2dVertex
 10
2.8210998111301
 20
4.68491956922743
 30
0.0
  0
VERTEX
  5
FB
330
F0
100
AcDbEntity
  8
Layer 1
 62
     7
420
 16777215
370
     9
100
AcDbVertex
100
AcDb2dVertex
 10
2.703039805094401
 20
4.68491956922743
 30
0.0
  0
VERTEX
  5
FC
330
F0
100
AcDbEntity
  8
Layer 1
 62
     7
420
 16777215
370
     9
100
AcDbVertex
100
AcDb2dVertex
 10
2.675259908040364
 20
4.680759853786892
 30
0.0
  0
VERTEX
  5
FD
330
F0
100
AcDbEntity
  8
Layer 1
 62
     7
420
 16777215
370
     9
100
AcDbVertex
100
AcDb2dVertex
 10
2.650259865654839
 20
4.668259938557942
 30
0.0
  0
VERTEX
  5
FE
330
F0
100
AcDbEntity
  8
Layer 1
 62
     7
420
 16777215
370
     9
100
AcDbVertex
100
AcDb2dVertex
 10
2.630819744533963
 20
4.648810068766275
 30
0.0
  0
VERTEX
  5
FF
330
F0
100
AcDbEntity
  8
Layer 1
 62
     7
420
 16777215
370
     9
100
AcDbVertex
100
AcDb2dVertex
 10
2.618319829305013
 20
4.623809814453125
 30
0.0
  0
VERTEX
  5
100
330
F0
100
AcDbEntity
  8
Layer 1
 62
     7
420
 16777215
370
     9
100
AcDbVertex
100
AcDb2dVertex
 10
2.614149941338433
 20
4.596029917399088
 30
0.0
  0
VERTEX
  5
101
330
F0
100
AcDbEntity
  8
Layer 1
 62
     7
420
 16777215
370
     9
100
AcDbVertex
100
AcDb2dVertex
 10
2.618319829305013
 20
4.5682495964898
 30
0.0
  0
VERTEX
  5
102
330
F0
100
AcDbEntity
  8
Layer 1
 62
     7
420
 16777215
370
     9
100
AcDbVertex
100
AcDb2dVertex
 10
2.630819744533963
 20
4.543259938557942
 30
0.0
  0
VERTEX
  5
103
330
F0
100
AcDbEntity
  8
Layer 1
 62
     7
420
 16777215
370
     9
100
AcDbVertex
100
AcDb2dVertex
 10
2.650259865654839
 20
4.523810068766275
 30
0.0
  0
VERTEX
  5
104
330
F0
100
AcDbEntity
  8
Layer 1
 62
     7
420
 16777215
370
     9
100
AcDbVertex
100
AcDb2dVertex
 10
2.675259908040364
 20
4.511309729682075
 30
0.0
  0
VERTEX
  5
105
330
F0
100
AcDbEntity
  8
Layer 1
 62
     7
420
 16777215
370
     9
100
AcDbVertex
100
AcDb2dVertex
 10
2.703039805094401
 20
4.507139417860243
 30
0.0
  0
VERTEX
  5
106
330
F0
100
AcDbEntity
  8
Layer 1
 62
     7
420
 16777215
370
     9
100
AcDbVertex
100
AcDb2dVertex
 10
2.8210998111301
 20
4.507139417860243
 30
0.0
  0
VERTEX
  5
107
330
F0
100
AcDbEntity
  8
Layer 1
 62
     7
420
 16777215
370
     9
100
AcDbVertex
100
AcDb2dVertex
 10
2.848869747585721
 20
4.511309729682075
 30
0.0
  0
SEQEND
  5
108
330
F0
100
AcDbEntity
  8
Layer 1
 62
     7
420
 16777215
370
     9
  0
POLYLINE
  5
109
330
1F
100
AcDbEntity
  8
Layer 1
 62
     7
420
 16777215
370
     9
100
AcDb2dPolyline
 66
     1
 10
0.0
 20
0.0
 30
0.0
  0
VERTEX
  5
10A
330
109
100
AcDbEntity
  8
Layer 1
 62
     7
420
 16777215
370
     9
100
AcDbVertex
100
AcDb2dVertex
 10
14.17639923095703
 20
4.919649759928385
 30
0.0
  0
VERTEX
  5
10B
330
109
100
AcDbEntity
  8
Layer 1
 62
     7
420
 16777215
370
     9
100
AcDbVertex
100
AcDb2dVertex
 10
14.15679931640625
 20
4.939229753282334
 30
0.0
  0
VERTEX
  5
10C
330
109
100
AcDbEntity
  8
Layer 1
 62
     7
420
 16777215
370
     9
100
AcDbVertex
100
AcDb2dVertex
 10
14.14419894748264
 20
4.963899824354383
 30
0.0
  0
VERTEX
  5
10D
330
109
100
AcDbEntity
  8
Layer 1
 62
     7
420
 16777215
370
     9
100
AcDbVertex
100
AcDb2dVertex
 10
14.13989935980903
 20
4.991249508327908
 30
0.0
  0
VERTEX
  5
10E
330
109
100
AcDbEntity
  8
Layer 1
 62
     7
420
 16777215
370
     9
100
AcDbVertex
100
AcDb2dVertex
 10
14.14419894748264
 20
5.018599616156684
 30
0.0
  0
VERTEX
  5
10F
330
109
100
AcDbEntity
  8
Layer 1
 62
     7
420
 16777215
370
     9
100
AcDbVertex
100
AcDb2dVertex
 10
14.15679931640625
 20
5.043269687228732
 30
0.0
  0
VERTEX
  5
110
330
109
100
AcDbEntity
  8
Layer 1
 62
     7
420
 16777215
370
     9
100
AcDbVertex
100
AcDb2dVertex
 10
14.17639923095703
 20
5.062849680582682
 30
0.0
  0
VERTEX
  5
111
330
109
100
AcDbEntity
  8
Layer 1
 62
     7
420
 16777215
370
     9
100
AcDbVertex
100
AcDb2dVertex
 10
14.20099894205729
 20
5.075419531928168
 30
0.0
  0
VERTEX
  5
112
330
109
100
AcDbEntity
  8
Layer 1
 62
     7
420
 16777215
370
     9
100
AcDbVertex
100
AcDb2dVertex
 10
14.22839864095052
 20
5.079749637179904
 30
0.0
  0
VERTEX
  5
113
330
109
100
AcDbEntity
  8
Layer 1
 62
     7
420
 16777215
370
     9
100
AcDbVertex
100
AcDb2dVertex
 10
14.34649827745226
 20
5.079749637179904
 30
0.0
  0
VERTEX
  5
114
330
109
100
AcDbEntity
  8
Layer 1
 62
     7
420
 16777215
370
     9
100
AcDbVertex
100
AcDb2dVertex
 10
14.37389967176649
 20
5.075419531928168
 30
0.0
  0
VERTEX
  5
115
330
109
100
AcDbEntity
  8
Layer 1
 62
     7
420
 16777215
370
     9
100
AcDbVertex
100
AcDb2dVertex
 10
14.39849853515625
 20
5.062849680582682
 30
0.0
  0
VERTEX
  5
116
330
109
100
AcDbEntity
  8
Layer 1
 62
     7
420
 16777215
370
     9
100
AcDbVertex
100
AcDb2dVertex
 10
14.41809929741753
 20
5.043269687228732
 30
0.0
  0
VERTEX
  5
117
330
109
100
AcDbEntity
  8
Layer 1
 62
     7
420
 16777215
370
     9
100
AcDbVertex
100
AcDb2dVertex
 10
14.43069966634114
 20
5.018599616156684
 30
0.0
  0
VERTEX
  5
118
330
109
100
AcDbEntity
  8
Layer 1
 62
     7
420
 16777215
370
     9
100
AcDbVertex
100
AcDb2dVertex
 10
14.43499925401476
 20
4.991249508327908
 30
0.0
  0
VERTEX
  5
119
330
109
100
AcDbEntity
  8
Layer 1
 62
     7
420
 16777215
370
     9
100
AcDbVertex
100
AcDb2dVertex
 10
14.43069966634114
 20
4.963899824354383
 30
0.0
  0
VERTEX
  5
11A
330
109
100
AcDbEntity
  8
Layer 1
 62
     7
420
 16777215
370
     9
100
AcDbVertex
100
AcDb2dVertex
 10
14.41809929741753
 20
4.939229753282334
 30
0.0
  0
VERTEX
  5
11B
330
109
100
AcDbEntity
  8
Layer 1
 62
     7
420
 16777215
370
     9
100
AcDbVertex
100
AcDb2dVertex
 10
14.39849853515625
 20
4.919649759928385
 30
0.0
  0
VERTEX
  5
11C
330
109
100
AcDbEntity
  8
Layer 1
 62
     7
420
 16777215
370
     9
100
AcDbVertex
100
AcDb2dVertex
 10
14.37389967176649
 20
4.907079908582899
 30
0.0
  0
VERTEX
  5
11D
330
109
100
AcDbEntity
  8
Layer 1
 62
     7
420
 16777215
370
     9
100
AcDbVertex
100
AcDb2dVertex
 10
14.34649827745226
 20
4.902749803331163
 30
0.0
  0
VERTEX
  5
11E
330
109
100
AcDbEntity
  8
Layer 1
 62
     7
420
 16777215
370
     9
100
AcDbVertex
100
AcDb2dVertex
 10
14.22839864095052
 20
4.902749803331163
 30
0.0
  0
VERTEX
  5
11F
330
109
100
AcDbEntity
  8
Layer 1
 62
     7
420
 16777215
370
     9
100
AcDbVertex
100
AcDb2dVertex
 10
14.20099894205729
 20
4.907079908582899
 30
0.0
  0
VERTEX
  5
120
330
109
100
AcDbEntity
  8
Layer 1
 62
     7
420
 16777215
370
     9
100
AcDbVertex
100
AcDb2dVertex
 10
14.17639923095703
 20
4.919649759928385
 30
0.0
  0
SEQEND
  5
121
330
109
100
AcDbEntity
  8
Layer 1
 62
     7
420
 16777215
370
     9
  0
POLYLINE
  5
122
330
1F
100
AcDbEntity
  8
Layer 1
 62
     7
420
 16777215
370
     9
100
AcDb2dPolyline
 66
     1
 10
0.0
 20
0.0
 30
0.0
  0
VERTEX
  5
123
330
122
100
AcDbEntity
  8
Layer 1
 62
     7
420
 16777215
370
     9
100
AcDbVertex
100
AcDb2dVertex
 10
2.676829867892795
 20
4.907079908582899
 30
0.0
  0
VERTEX
  5
124
330
122
100
AcDbEntity
  8
Layer 1
 62
     7
420
 16777215
370
     9
100
AcDbVertex
100
AcDb2dVertex
 10
2.704169803195529
 20
4.902749803331163
 30
0.0
  0
VERTEX
  5
125
330
122
100
AcDbEntity
  8
Layer 1
 62
     7
420
 16777215
370
     9
100
AcDbVertex
100
AcDb2dVertex
 10
2.822279824150933
 20
4.902749803331163
 30
0.0
  0
VERTEX
  5
126
330
122
100
AcDbEntity
  8
Layer 1
 62
     7
420
 16777215
370
     9
100
AcDbVertex
100
AcDb2dVertex
 10
2.849629931979709
 20
4.907079908582899
 30
0.0
  0
VERTEX
  5
127
330
122
100
AcDbEntity
  8
Layer 1
 62
     7
420
 16777215
370
     9
100
AcDbVertex
100
AcDb2dVertex
 10
2.874299791124132
 20
4.919649759928385
 30
0.0
  0
VERTEX
  5
128
330
122
100
AcDbEntity
  8
Layer 1
 62
     7
420
 16777215
370
     9
100
AcDbVertex
100
AcDb2dVertex
 10
2.893879996405707
 20
4.939229753282334
 30
0.0
  0
VERTEX
  5
129
330
122
100
AcDbEntity
  8
Layer 1
 62
     7
420
 16777215
370
     9
100
AcDbVertex
100
AcDb2dVertex
 10
2.906449847751194
 20
4.963899824354383
 30
0.0
  0
VERTEX
  5
12A
330
122
100
AcDbEntity
  8
Layer 1
 62
     7
420
 16777215
370
     9
100
AcDbVertex
100
AcDb2dVertex
 10
2.91077995300293
 20
4.991249508327908
 30
0.0
  0
VERTEX
  5
12B
330
122
100
AcDbEntity
  8
Layer 1
 62
     7
420
 16777215
370
     9
100
AcDbVertex
100
AcDb2dVertex
 10
2.906449847751194
 20
5.018599616156684
 30
0.0
  0
VERTEX
  5
12C
330
122
100
AcDbEntity
  8
Layer 1
 62
     7
420
 16777215
370
     9
100
AcDbVertex
100
AcDb2dVertex
 10
2.893879996405707
 20
5.043269687228732
 30
0.0
  0
VERTEX
  5
12D
330
122
100
AcDbEntity
  8
Layer 1
 62
     7
420
 16777215
370
     9
100
AcDbVertex
100
AcDb2dVertex
 10
2.874299791124132
 20
5.062849680582682
 30
0.0
  0
VERTEX
  5
12E
330
122
100
AcDbEntity
  8
Layer 1
 62
     7
420
 16777215
370
     9
100
AcDbVertex
100
AcDb2dVertex
 10
2.849629931979709
 20
5.075419531928168
 30
0.0
  0
VERTEX
  5
12F
330
122
100
AcDbEntity
  8
Layer 1
 62
     7
420
 16777215
370
     9
100
AcDbVertex
100
AcDb2dVertex
 10
2.822279824150933
 20
5.079749637179904
 30
0.0
  0
VERTEX
  5
130
330
122
100
AcDbEntity
  8
Layer 1
 62
     7
420
 16777215
370
     9
100
AcDbVertex
100
AcDb2dVertex
 10
2.704169803195529
 20
5.079749637179904
 30
0.0
  0
VERTEX
  5
131
330
122
100
AcDbEntity
  8
Layer 1
 62
     7
420
 16777215
370
     9
100
AcDbVertex
100
AcDb2dVertex
 10
2.676829867892795
 20
5.075419531928168
 30
0.0
  0
VERTEX
  5
132
330
122
100
AcDbEntity
  8
Layer 1
 62
     7
420
 16777215
370
     9
100
AcDbVertex
100
AcDb2dVertex
 10
2.652149836222331
 20
5.062849680582682
 30
0.0
  0
VERTEX
  5
133
330
122
100
AcDbEntity
  8
Layer 1
 62
     7
420
 16777215
370
     9
100
AcDbVertex
100
AcDb2dVertex
 10
2.632569842868381
 20
5.043269687228732
 30
0.0
  0
VERTEX
  5
134
330
122
100
AcDbEntity
  8
Layer 1
 62
     7
420
 16777215
370
     9
100
AcDbVertex
100
AcDb2dVertex
 10
2.619999779595269
 20
5.018599616156684
 30
0.0
  0
VERTEX
  5
135
330
122
100
AcDbEntity
  8
Layer 1
 62
     7
420
 16777215
370
     9
100
AcDbVertex
100
AcDb2dVertex
 10
2.615669674343533
 20
4.991249508327908
 30
0.0
  0
VERTEX
  5
136
330
122
100
AcDbEntity
  8
Layer 1
 62
     7
420
 16777215
370
     9
100
AcDbVertex
100
AcDb2dVertex
 10
2.619999779595269
 20
4.963899824354383
 30
0.0
  0
VERTEX
  5
137
330
122
100
AcDbEntity
  8
Layer 1
 62
     7
420
 16777215
370
     9
100
AcDbVertex
100
AcDb2dVertex
 10
2.632569842868381
 20
4.939229753282334
 30
0.0
  0
VERTEX
  5
138
330
122
100
AcDbEntity
  8
Layer 1
 62
     7
420
 16777215
370
     9
100
AcDbVertex
100
AcDb2dVertex
 10
2.652149836222331
 20
4.919649759928385
 30
0.0
  0
VERTEX
  5
139
330
122
100
AcDbEntity
  8
Layer 1
 62
     7
420
 16777215
370
     9
100
AcDbVertex
100
AcDb2dVertex
 10
2.676829867892795
 20
4.907079908582899
 30
0.0
  0
SEQEND
  5
13A
330
122
100
AcDbEntity
  8
Layer 1
 62
     7
420
 16777215
370
     9
  0
POLYLINE
  5
13B
330
1F
100
AcDbEntity
  8
Layer 1
 62
     7
420
 16777215
370
     9
100
AcDb2dPolyline
 66
     1
 10
0.0
 20
0.0
 30
0.0
  0
VERTEX
  5
13C
330
13B
100
AcDbEntity
  8
Layer 1
 62
     7
420
 16777215
370
     9
100
AcDbVertex
100
AcDb2dVertex
 10
14.20099894205729
 20
5.438579983181423
 30
0.0
  0
VERTEX
  5
13D
330
13B
100
AcDbEntity
  8
Layer 1
 62
     7
420
 16777215
370
     9
100
AcDbVertex
100
AcDb2dVertex
 10
14.22839864095052
 20
5.434239705403646
 30
0.0
  0
VERTEX
  5
13E
330
13B
100
AcDbEntity
  8
Layer 1
 62
     7
420
 16777215
370
     9
100
AcDbVertex
100
AcDb2dVertex
 10
14.34649827745226
 20
5.434239705403646
 30
0.0
  0
VERTEX
  5
13F
330
13B
100
AcDbEntity
  8
Layer 1
 62
     7
420
 16777215
370
     9
100
AcDbVertex
100
AcDb2dVertex
 10
14.37389967176649
 20
5.438579983181423
 30
0.0
  0
VERTEX
  5
140
330
13B
100
AcDbEntity
  8
Layer 1
 62
     7
420
 16777215
370
     9
100
AcDbVertex
100
AcDb2dVertex
 10
14.39849853515625
 20
5.45114983452691
 30
0.0
  0
VERTEX
  5
141
330
13B
100
AcDbEntity
  8
Layer 1
 62
     7
420
 16777215
370
     9
100
AcDbVertex
100
AcDb2dVertex
 10
14.41809929741753
 20
5.470729827880859
 30
0.0
  0
VERTEX
  5
142
330
13B
100
AcDbEntity
  8
Layer 1
 62
     7
420
 16777215
370
     9
100
AcDbVertex
100
AcDb2dVertex
 10
14.43069966634114
 20
5.495399898952908
 30
0.0
  0
VERTEX
  5
143
330
13B
100
AcDbEntity
  8
Layer 1
 62
     7
420
 16777215
370
     9
100
AcDbVertex
100
AcDb2dVertex
 10
14.43499925401476
 20
5.522739410400391
 30
0.0
  0
VERTEX
  5
144
330
13B
100
AcDbEntity
  8
Layer 1
 62
     7
420
 16777215
370
     9
100
AcDbVertex
100
AcDb2dVertex
 10
14.43069966634114
 20
5.550089518229166
 30
0.0
  0
VERTEX
  5
145
330
13B
100
AcDbEntity
  8
Layer 1
 62
     7
420
 16777215
370
     9
100
AcDbVertex
100
AcDb2dVertex
 10
14.41809929741753
 20
5.574760013156467
 30
0.0
  0
VERTEX
  5
146
330
13B
100
AcDbEntity
  8
Layer 1
 62
     7
420
 16777215
370
     9
100
AcDbVertex
100
AcDb2dVertex
 10
14.39849853515625
 20
5.594339582655165
 30
0.0
  0
VERTEX
  5
147
330
13B
100
AcDbEntity
  8
Layer 1
 62
     7
420
 16777215
370
     9
100
AcDbVertex
100
AcDb2dVertex
 10
14.37389967176649
 20
5.606909857855903
 30
0.0
  0
VERTEX
  5
148
330
13B
100
AcDbEntity
  8
Layer 1
 62
     7
420
 16777215
370
     9
100
AcDbVertex
100
AcDb2dVertex
 10
14.34649827745226
 20
5.611249711778428
 30
0.0
  0
VERTEX
  5
149
330
13B
100
AcDbEntity
  8
Layer 1
 62
     7
420
 16777215
370
     9
100
AcDbVertex
100
AcDb2dVertex
 10
14.22839864095052
 20
5.611249711778428
 30
0.0
  0
VERTEX
  5
14A
330
13B
100
AcDbEntity
  8
Layer 1
 62
     7
420
 16777215
370
     9
100
AcDbVertex
100
AcDb2dVertex
 10
14.20099894205729
 20
5.606909857855903
 30
0.0
  0
VERTEX
  5
14B
330
13B
100
AcDbEntity
  8
Layer 1
 62
     7
420
 16777215
370
     9
100
AcDbVertex
100
AcDb2dVertex
 10
14.17639923095703
 20
5.594339582655165
 30
0.0
  0
VERTEX
  5
14C
330
13B
100
AcDbEntity
  8
Layer 1
 62
     7
420
 16777215
370
     9
100
AcDbVertex
100
AcDb2dVertex
 10
14.15679931640625
 20
5.574760013156467
 30
0.0
  0
VERTEX
  5
14D
330
13B
100
AcDbEntity
  8
Layer 1
 62
     7
420
 16777215
370
     9
100
AcDbVertex
100
AcDb2dVertex
 10
14.14419894748264
 20
5.550089518229166
 30
0.0
  0
VERTEX
  5
14E
330
13B
100
AcDbEntity
  8
Layer 1
 62
     7
420
 16777215
370
     9
100
AcDbVertex
100
AcDb2dVertex
 10
14.13989935980903
 20
5.522739410400391
 30
0.0
  0
VERTEX
  5
14F
330
13B
100
AcDbEntity
  8
Layer 1
 62
     7
420
 16777215
370
     9
100
AcDbVertex
100
AcDb2dVertex
 10
14.14419894748264
 20
5.495399898952908
 30
0.0
  0
VERTEX
  5
150
330
13B
100
AcDbEntity
  8
Layer 1
 62
     7
420
 16777215
370
     9
100
AcDbVertex
100
AcDb2dVertex
 10
14.15679931640625
 20
5.470729827880859
 30
0.0
  0
VERTEX
  5
151
330
13B
100
AcDbEntity
  8
Layer 1
 62
     7
420
 16777215
370
     9
100
AcDbVertex
100
AcDb2dVertex
 10
14.17639923095703
 20
5.45114983452691
 30
0.0
  0
VERTEX
  5
152
330
13B
100
AcDbEntity
  8
Layer 1
 62
     7
420
 16777215
370
     9
100
AcDbVertex
100
AcDb2dVertex
 10
14.20099894205729
 20
5.438579983181423
 30
0.0
  0
SEQEND
  5
153
330
13B
100
AcDbEntity
  8
Layer 1
 62
     7
420
 16777215
370
     9
  0
POLYLINE
  5
154
330
1F
100
AcDbEntity
  8
Layer 1
 62
     7
420
 16777215
370
     9
100
AcDb2dPolyline
 66
     1
 10
0.0
 20
0.0
 30
0.0
  0
VERTEX
  5
155
330
154
100
AcDbEntity
  8
Layer 1
 62
     7
420
 16777215
370
     9
100
AcDbVertex
100
AcDb2dVertex
 10
2.676829867892795
 20
5.438579983181423
 30
0.0
  0
VERTEX
  5
156
330
154
100
AcDbEntity
  8
Layer 1
 62
     7
420
 16777215
370
     9
100
AcDbVertex
100
AcDb2dVertex
 10
2.704169803195529
 20
5.434239705403646
 30
0.0
  0
VERTEX
  5
157
330
154
100
AcDbEntity
  8
Layer 1
 62
     7
420
 16777215
370
     9
100
AcDbVertex
100
AcDb2dVertex
 10
2.822279824150933
 20
5.434239705403646
 30
0.0
  0
VERTEX
  5
158
330
154
100
AcDbEntity
  8
Layer 1
 62
     7
420
 16777215
370
     9
100
AcDbVertex
100
AcDb2dVertex
 10
2.849629931979709
 20
5.438579983181423
 30
0.0
  0
VERTEX
  5
159
330
154
100
AcDbEntity
  8
Layer 1
 62
     7
420
 16777215
370
     9
100
AcDbVertex
100
AcDb2dVertex
 10
2.874299791124132
 20
5.45114983452691
 30
0.0
  0
VERTEX
  5
15A
330
154
100
AcDbEntity
  8
Layer 1
 62
     7
420
 16777215
370
     9
100
AcDbVertex
100
AcDb2dVertex
 10
2.893879996405707
 20
5.470729827880859
 30
0.0
  0
VERTEX
  5
15B
330
154
100
AcDbEntity
  8
Layer 1
 62
     7
420
 16777215
370
     9
100
AcDbVertex
100
AcDb2dVertex
 10
2.906449847751194
 20
5.495399898952908
 30
0.0
  0
VERTEX
  5
15C
330
154
100
AcDbEntity
  8
Layer 1
 62
     7
420
 16777215
370
     9
100
AcDbVertex
100
AcDb2dVertex
 10
2.91077995300293
 20
5.522739410400391
 30
0.0
  0
VERTEX
  5
15D
330
154
100
AcDbEntity
  8
Layer 1
 62
     7
420
 16777215
370
     9
100
AcDbVertex
100
AcDb2dVertex
 10
2.906449847751194
 20
5.550089518229166
 30
0.0
  0
VERTEX
  5
15E
330
154
100
AcDbEntity
  8
Layer 1
 62
     7
420
 16777215
370
     9
100
AcDbVertex
100
AcDb2dVertex
 10
2.893879996405707
 20
5.574760013156467
 30
0.0
  0
VERTEX
  5
15F
330
154
100
AcDbEntity
  8
Layer 1
 62
     7
420
 16777215
370
     9
100
AcDbVertex
100
AcDb2dVertex
 10
2.874299791124132
 20
5.594339582655165
 30
0.0
  0
VERTEX
  5
160
330
154
100
AcDbEntity
  8
Layer 1
 62
     7
420
 16777215
370
     9
100
AcDbVertex
100
AcDb2dVertex
 10
2.849629931979709
 20
5.606909857855903
 30
0.0
  0
VERTEX
  5
161
330
154
100
AcDbEntity
  8
Layer 1
 62
     7
420
 16777215
370
     9
100
AcDbVertex
100
AcDb2dVertex
 10
2.822279824150933
 20
5.611249711778428
 30
0.0
  0
VERTEX
  5
162
330
154
100
AcDbEntity
  8
Layer 1
 62
     7
420
 16777215
370
     9
100
AcDbVertex
100
AcDb2dVertex
 10
2.704169803195529
 20
5.611249711778428
 30
0.0
  0
VERTEX
  5
163
330
154
100
AcDbEntity
  8
Layer 1
 62
     7
420
 16777215
370
     9
100
AcDbVertex
100
AcDb2dVertex
 10
2.676829867892795
 20
5.606909857855903
 30
0.0
  0
VERTEX
  5
164
330
154
100
AcDbEntity
  8
Layer 1
 62
     7
420
 16777215
370
     9
100
AcDbVertex
100
AcDb2dVertex
 10
2.652149836222331
 20
5.594339582655165
 30
0.0
  0
VERTEX
  5
165
330
154
100
AcDbEntity
  8
Layer 1
 62
     7
420
 16777215
370
     9
100
AcDbVertex
100
AcDb2dVertex
 10
2.632569842868381
 20
5.574760013156467
 30
0.0
  0
VERTEX
  5
166
330
154
100
AcDbEntity
  8
Layer 1
 62
     7
420
 16777215
370
     9
100
AcDbVertex
100
AcDb2dVertex
 10
2.619999779595269
 20
5.550089518229166
 30
0.0
  0
VERTEX
  5
167
330
154
100
AcDbEntity
  8
Layer 1
 62
     7
420
 16777215
370
     9
100
AcDbVertex
100
AcDb2dVertex
 10
2.615669674343533
 20
5.522739410400391
 30
0.0
  0
VERTEX
  5
168
330
154
100
AcDbEntity
  8
Layer 1
 62
     7
420
 16777215
370
     9
100
AcDbVertex
100
AcDb2dVertex
 10
2.619999779595269
 20
5.495399898952908
 30
0.0
  0
VERTEX
  5
169
330
154
100
AcDbEntity
  8
Layer 1
 62
     7
420
 16777215
370
     9
100
AcDbVertex
100
AcDb2dVertex
 10
2.632569842868381
 20
5.470729827880859
 30
0.0
  0
VERTEX
  5
16A
330
154
100
AcDbEntity
  8
Layer 1
 62
     7
420
 16777215
370
     9
100
AcDbVertex
100
AcDb2dVertex
 10
2.652149836222331
 20
5.45114983452691
 30
0.0
  0
VERTEX
  5
16B
330
154
100
AcDbEntity
  8
Layer 1
 62
     7
420
 16777215
370
     9
100
AcDbVertex
100
AcDb2dVertex
 10
2.676829867892795
 20
5.438579983181423
 30
0.0
  0
SEQEND
  5
16C
330
154
100
AcDbEntity
  8
Layer 1
 62
     7
420
 16777215
370
     9
  0
POLYLINE
  5
16D
330
1F
100
AcDbEntity
  8
Layer 1
 62
     7
420
 16777215
370
    35
100
AcDb2dPolyline
 66
     1
 10
0.0
 20
0.0
 30
0.0
  0
VERTEX
  5
16E
330
16D
100
AcDbEntity
  8
Layer 1
 62
     7
420
 16777215
370
    35
100
AcDbVertex
100
AcDb2dVertex
 10
14.41429816351996
 20
5.760449727376302
 30
0.0
  0
VERTEX
  5
16F
330
16D
100
AcDbEntity
  8
Layer 1
 62
     7
420
 16777215
370
    35
100
AcDbVertex
100
AcDb2dVertex
 10
14.4416995578342
 20
5.764779832628038
 30
0.0
  0
VERTEX
  5
170
330
16D
100
AcDbEntity
  8
Layer 1
 62
     7
420
 16777215
370
    35
100
AcDbVertex
100
AcDb2dVertex
 10
14.46629842122396
 20
5.777349683973524
 30
0.0
  0
VERTEX
  5
171
330
16D
100
AcDbEntity
  8
Layer 1
 62
     7
420
 16777215
370
    35
100
AcDbVertex
100
AcDb2dVertex
 10
14.48589918348524
 20
5.796930101182725
 30
0.0
  0
VERTEX
  5
172
330
16D
100
AcDbEntity
  8
Layer 1
 62
     7
420
 16777215
370
    35
100
AcDbVertex
100
AcDb2dVertex
 10
14.49159918891059
 20
5.808180067274305
 30
0.0
  0
VERTEX
  5
173
330
16D
100
AcDbEntity
  8
Layer 1
 62
     7
420
 16777215
370
    35
100
AcDbVertex
100
AcDb2dVertex
 10
14.50399949815538
 20
5.808180067274305
 30
0.0
  0
VERTEX
  5
174
330
16D
100
AcDbEntity
  8
Layer 1
 62
     7
420
 16777215
370
    35
100
AcDbVertex
100
AcDb2dVertex
 10
14.52829827202691
 20
5.812030368381076
 30
0.0
  0
VERTEX
  5
175
330
16D
100
AcDbEntity
  8
Layer 1
 62
     7
420
 16777215
370
    35
100
AcDbVertex
100
AcDb2dVertex
 10
14.55019972059462
 20
5.82322014702691
 30
0.0
  0
VERTEX
  5
176
330
16D
100
AcDbEntity
  8
Layer 1
 62
     7
420
 16777215
370
    35
100
AcDbVertex
100
AcDb2dVertex
 10
14.56769816080729
 20
5.840629577636719
 30
0.0
  0
VERTEX
  5
177
330
16D
100
AcDbEntity
  8
Layer 1
 62
     7
420
 16777215
370
    35
100
AcDbVertex
100
AcDb2dVertex
 10
14.57889811197917
 20
5.862589518229166
 30
0.0
  0
VERTEX
  5
178
330
16D
100
AcDbEntity
  8
Layer 1
 62
     7
420
 16777215
370
    35
100
AcDbVertex
100
AcDb2dVertex
 10
14.58269924587674
 20
5.886919657389322
 30
0.0
  0
VERTEX
  5
179
330
16D
100
AcDbEntity
  8
Layer 1
 62
     7
420
 16777215
370
    35
100
AcDbVertex
100
AcDb2dVertex
 10
14.58269924587674
 20
6.477469550238715
 30
0.0
  0
VERTEX
  5
17A
330
16D
100
AcDbEntity
  8
Layer 1
 62
     7
420
 16777215
370
    35
100
AcDbVertex
100
AcDb2dVertex
 10
14.57889811197917
 20
6.501799689398871
 30
0.0
  0
VERTEX
  5
17B
330
16D
100
AcDbEntity
  8
Layer 1
 62
     7
420
 16777215
370
    35
100
AcDbVertex
100
AcDb2dVertex
 10
14.56769816080729
 20
6.523750305175781
 30
0.0
  0
VERTEX
  5
17C
330
16D
100
AcDbEntity
  8
Layer 1
 62
     7
420
 16777215
370
    35
100
AcDbVertex
100
AcDb2dVertex
 10
14.55019972059462
 20
6.541169908311631
 30
0.0
  0
VERTEX
  5
17D
330
16D
100
AcDbEntity
  8
Layer 1
 62
     7
420
 16777215
370
    35
100
AcDbVertex
100
AcDb2dVertex
 10
14.52829827202691
 20
6.552349514431423
 30
0.0
  0
VERTEX
  5
17E
330
16D
100
AcDbEntity
  8
Layer 1
 62
     7
420
 16777215
370
    35
100
AcDbVertex
100
AcDb2dVertex
 10
14.50399949815538
 20
6.556209988064236
 30
0.0
  0
VERTEX
  5
17F
330
16D
100
AcDbEntity
  8
Layer 1
 62
     7
420
 16777215
370
    35
100
AcDbVertex
100
AcDb2dVertex
 10
14.49159918891059
 20
6.556209988064236
 30
0.0
  0
VERTEX
  5
180
330
16D
100
AcDbEntity
  8
Layer 1
 62
     7
420
 16777215
370
    35
100
AcDbVertex
100
AcDb2dVertex
 10
14.48589918348524
 20
6.567459954155815
 30
0.0
  0
VERTEX
  5
181
330
16D
100
AcDbEntity
  8
Layer 1
 62
     7
420
 16777215
370
    35
100
AcDbVertex
100
AcDb2dVertex
 10
14.46629842122396
 20
6.587039523654513
 30
0.0
  0
VERTEX
  5
182
330
16D
100
AcDbEntity
  8
Layer 1
 62
     7
420
 16777215
370
    35
100
AcDbVertex
100
AcDb2dVertex
 10
14.4416995578342
 20
6.599610222710503
 30
0.0
  0
VERTEX
  5
183
330
16D
100
AcDbEntity
  8
Layer 1
 62
     7
420
 16777215
370
    35
100
AcDbVertex
100
AcDb2dVertex
 10
14.41429816351996
 20
6.603939480251736
 30
0.0
  0
VERTEX
  5
184
330
16D
100
AcDbEntity
  8
Layer 1
 62
     7
420
 16777215
370
    35
100
AcDbVertex
100
AcDb2dVertex
 10
14.16059960259332
 20
6.603939480251736
 30
0.0
  0
VERTEX
  5
185
330
16D
100
AcDbEntity
  8
Layer 1
 62
     7
420
 16777215
370
    35
100
AcDbVertex
100
AcDb2dVertex
 10
14.13319905598958
 20
6.599610222710503
 30
0.0
  0
VERTEX
  5
186
330
16D
100
AcDbEntity
  8
Layer 1
 62
     7
420
 16777215
370
    35
100
AcDbVertex
100
AcDb2dVertex
 10
14.10859934488932
 20
6.587039523654513
 30
0.0
  0
VERTEX
  5
187
330
16D
100
AcDbEntity
  8
Layer 1
 62
     7
420
 16777215
370
    35
100
AcDbVertex
100
AcDb2dVertex
 10
14.08899943033854
 20
6.567459954155815
 30
0.0
  0
VERTEX
  5
188
330
16D
100
AcDbEntity
  8
Layer 1
 62
     7
420
 16777215
370
    35
100
AcDbVertex
100
AcDb2dVertex
 10
14.08329942491319
 20
6.556209988064236
 30
0.0
  0
VERTEX
  5
189
330
16D
100
AcDbEntity
  8
Layer 1
 62
     7
420
 16777215
370
    35
100
AcDbVertex
100
AcDb2dVertex
 10
2.96740976969401
 20
6.556209988064236
 30
0.0
  0
VERTEX
  5
18A
330
16D
100
AcDbEntity
  8
Layer 1
 62
     7
420
 16777215
370
    35
100
AcDbVertex
100
AcDb2dVertex
 10
2.961680094401042
 20
6.567459954155815
 30
0.0
  0
VERTEX
  5
18B
330
16D
100
AcDbEntity
  8
Layer 1
 62
     7
420
 16777215
370
    35
100
AcDbVertex
100
AcDb2dVertex
 10
2.94209967719184
 20
6.587039523654513
 30
0.0
  0
VERTEX
  5
18C
330
16D
100
AcDbEntity
  8
Layer 1
 62
     7
420
 16777215
370
    35
100
AcDbVertex
100
AcDb2dVertex
 10
2.917429606119792
 20
6.599610222710503
 30
0.0
  0
VERTEX
  5
18D
330
16D
100
AcDbEntity
  8
Layer 1
 62
     7
420
 16777215
370
    35
100
AcDbVertex
100
AcDb2dVertex
 10
2.890079922146267
 20
6.603939480251736
 30
0.0
  0
VERTEX
  5
18E
330
16D
100
AcDbEntity
  8
Layer 1
 62
     7
420
 16777215
370
    35
100
AcDbVertex
100
AcDb2dVertex
 10
2.636379665798611
 20
6.603939480251736
 30
0.0
  0
VERTEX
  5
18F
330
16D
100
AcDbEntity
  8
Layer 1
 62
     7
420
 16777215
370
    35
100
AcDbVertex
100
AcDb2dVertex
 10
2.609029981825087
 20
6.599610222710503
 30
0.0
  0
VERTEX
  5
190
330
16D
100
AcDbEntity
  8
Layer 1
 62
     7
420
 16777215
370
    35
100
AcDbVertex
100
AcDb2dVertex
 10
2.584359910753038
 20
6.587039523654513
 30
0.0
  0
VERTEX
  5
191
330
16D
100
AcDbEntity
  8
Layer 1
 62
     7
420
 16777215
370
    35
100
AcDbVertex
100
AcDb2dVertex
 10
2.56478034125434
 20
6.567459954155815
 30
0.0
  0
VERTEX
  5
192
330
16D
100
AcDbEntity
  8
Layer 1
 62
     7
420
 16777215
370
    35
100
AcDbVertex
100
AcDb2dVertex
 10
2.559049818250868
 20
6.556209988064236
 30
0.0
  0
VERTEX
  5
193
330
16D
100
AcDbEntity
  8
Layer 1
 62
     7
420
 16777215
370
    35
100
AcDbVertex
100
AcDb2dVertex
 10
2.546690199110243
 20
6.556209988064236
 30
0.0
  0
VERTEX
  5
194
330
16D
100
AcDbEntity
  8
Layer 1
 62
     7
420
 16777215
370
    35
100
AcDbVertex
100
AcDb2dVertex
 10
2.522360059950087
 20
6.552349514431423
 30
0.0
  0
VERTEX
  5
195
330
16D
100
AcDbEntity
  8
Layer 1
 62
     7
420
 16777215
370
    35
100
AcDbVertex
100
AcDb2dVertex
 10
2.50041029188368
 20
6.541169908311631
 30
0.0
  0
VERTEX
  5
196
330
16D
100
AcDbEntity
  8
Layer 1
 62
     7
420
 16777215
370
    35
100
AcDbVertex
100
AcDb2dVertex
 10
2.482989841037326
 20
6.523750305175781
 30
0.0
  0
VERTEX
  5
197
330
16D
100
AcDbEntity
  8
Layer 1
 62
     7
420
 16777215
370
    35
100
AcDbVertex
100
AcDb2dVertex
 10
2.471810234917534
 20
6.501799689398871
 30
0.0
  0
VERTEX
  5
198
330
16D
100
AcDbEntity
  8
Layer 1
 62
     7
420
 16777215
370
    35
100
AcDbVertex
100
AcDb2dVertex
 10
2.467949761284722
 20
6.477469550238715
 30
0.0
  0
VERTEX
  5
199
330
16D
100
AcDbEntity
  8
Layer 1
 62
     7
420
 16777215
370
    35
100
AcDbVertex
100
AcDb2dVertex
 10
2.467949761284722
 20
5.886919657389322
 30
0.0
  0
VERTEX
  5
19A
330
16D
100
AcDbEntity
  8
Layer 1
 62
     7
420
 16777215
370
    35
100
AcDbVertex
100
AcDb2dVertex
 10
2.471810234917534
 20
5.862589518229166
 30
0.0
  0
VERTEX
  5
19B
330
16D
100
AcDbEntity
  8
Layer 1
 62
     7
420
 16777215
370
    35
100
AcDbVertex
100
AcDb2dVertex
 10
2.482989841037326
 20
5.840629577636719
 30
0.0
  0
VERTEX
  5
19C
330
16D
100
AcDbEntity
  8
Layer 1
 62
     7
420
 16777215
370
    35
100
AcDbVertex
100
AcDb2dVertex
 10
2.50041029188368
 20
5.82322014702691
 30
0.0
  0
VERTEX
  5
19D
330
16D
100
AcDbEntity
  8
Layer 1
 62
     7
420
 16777215
370
    35
100
AcDbVertex
100
AcDb2dVertex
 10
2.522360059950087
 20
5.812030368381076
 30
0.0
  0
VERTEX
  5
19E
330
16D
100
AcDbEntity
  8
Layer 1
 62
     7
420
 16777215
370
    35
100
AcDbVertex
100
AcDb2dVertex
 10
2.546690199110243
 20
5.808180067274305
 30
0.0
  0
VERTEX
  5
19F
330
16D
100
AcDbEntity
  8
Layer 1
 62
     7
420
 16777215
370
    35
100
AcDbVertex
100
AcDb2dVertex
 10
2.559049818250868
 20
5.808180067274305
 30
0.0
  0
VERTEX
  5
1A0
330
16D
100
AcDbEntity
  8
Layer 1
 62
     7
420
 16777215
370
    35
100
AcDbVertex
100
AcDb2dVertex
 10
2.56478034125434
 20
5.796930101182725
 30
0.0
  0
VERTEX
  5
1A1
330
16D
100
AcDbEntity
  8
Layer 1
 62
     7
420
 16777215
370
    35
100
AcDbVertex
100
AcDb2dVertex
 10
2.584359910753038
 20
5.777349683973524
 30
0.0
  0
VERTEX
  5
1A2
330
16D
100
AcDbEntity
  8
Layer 1
 62
     7
420
 16777215
370
    35
100
AcDbVertex
100
AcDb2dVertex
 10
2.609029981825087
 20
5.764779832628038
 30
0.0
  0
VERTEX
  5
1A3
330
16D
100
AcDbEntity
  8
Layer 1
 62
     7
420
 16777215
370
    35
100
AcDbVertex
100
AcDb2dVertex
 10
2.636379665798611
 20
5.760449727376302
 30
0.0
  0
VERTEX
  5
1A4
330
16D
100
AcDbEntity
  8
Layer 1
 62
     7
420
 16777215
370
    35
100
AcDbVertex
100
AcDb2dVertex
 10
2.68333011203342
 20
5.760449727376302
 30
0.0
  0
VERTEX
  5
1A5
330
16D
100
AcDbEntity
  8
Layer 1
 62
     7
420
 16777215
370
    35
100
AcDbVertex
100
AcDb2dVertex
 10
2.68333011203342
 20
5.67874993218316
 30
0.0
  0
VERTEX
  5
1A6
330
16D
100
AcDbEntity
  8
Layer 1
 62
     7
420
 16777215
370
    35
100
AcDbVertex
100
AcDb2dVertex
 10
2.636379665798611
 20
5.67874993218316
 30
0.0
  0
VERTEX
  5
1A7
330
16D
100
AcDbEntity
  8
Layer 1
 62
     7
420
 16777215
370
    35
100
AcDbVertex
100
AcDb2dVertex
 10
2.609029981825087
 20
5.674409654405381
 30
0.0
  0
VERTEX
  5
1A8
330
16D
100
AcDbEntity
  8
Layer 1
 62
     7
420
 16777215
370
    35
100
AcDbVertex
100
AcDb2dVertex
 10
2.584359910753038
 20
5.661839803059896
 30
0.0
  0
VERTEX
  5
1A9
330
16D
100
AcDbEntity
  8
Layer 1
 62
     7
420
 16777215
370
    35
100
AcDbVertex
100
AcDb2dVertex
 10
2.56478034125434
 20
5.642260233561197
 30
0.0
  0
VERTEX
  5
1AA
330
16D
100
AcDbEntity
  8
Layer 1
 62
     7
420
 16777215
370
    35
100
AcDbVertex
100
AcDb2dVertex
 10
2.559049818250868
 20
5.631010267469618
 30
0.0
  0
VERTEX
  5
1AB
330
16D
100
AcDbEntity
  8
Layer 1
 62
     7
420
 16777215
370
    35
100
AcDbVertex
100
AcDb2dVertex
 10
2.546690199110243
 20
5.631010267469618
 30
0.0
  0
VERTEX
  5
1AC
330
16D
100
AcDbEntity
  8
Layer 1
 62
     7
420
 16777215
370
    35
100
AcDbVertex
100
AcDb2dVertex
 10
2.522360059950087
 20
5.627159966362847
 30
0.0
  0
VERTEX
  5
1AD
330
16D
100
AcDbEntity
  8
Layer 1
 62
     7
420
 16777215
370
    35
100
AcDbVertex
100
AcDb2dVertex
 10
2.50041029188368
 20
5.615970187717013
 30
0.0
  0
VERTEX
  5
1AE
330
16D
100
AcDbEntity
  8
Layer 1
 62
     7
420
 16777215
370
    35
100
AcDbVertex
100
AcDb2dVertex
 10
2.482989841037326
 20
5.598559909396701
 30
0.0
  0
VERTEX
  5
1AF
330
16D
100
AcDbEntity
  8
Layer 1
 62
     7
420
 16777215
370
    35
100
AcDbVertex
100
AcDb2dVertex
 10
2.471810234917534
 20
5.576599968804254
 30
0.0
  0
VERTEX
  5
1B0
330
16D
100
AcDbEntity
  8
Layer 1
 62
     7
420
 16777215
370
    35
100
AcDbVertex
100
AcDb2dVertex
 10
2.467949761284722
 20
5.552269829644097
 30
0.0
  0
VERTEX
  5
1B1
330
16D
100
AcDbEntity
  8
Layer 1
 62
     7
420
 16777215
370
    35
100
AcDbVertex
100
AcDb2dVertex
 10
2.467949761284722
 20
4.961719936794704
 30
0.0
  0
VERTEX
  5
1B2
330
16D
100
AcDbEntity
  8
Layer 1
 62
     7
420
 16777215
370
    35
100
AcDbVertex
100
AcDb2dVertex
 10
2.471810234917534
 20
4.937389797634548
 30
0.0
  0
VERTEX
  5
1B3
330
16D
100
AcDbEntity
  8
Layer 1
 62
     7
420
 16777215
370
    35
100
AcDbVertex
100
AcDb2dVertex
 10
2.482989841037326
 20
4.915440029568142
 30
0.0
  0
VERTEX
  5
1B4
330
16D
100
AcDbEntity
  8
Layer 1
 62
     7
420
 16777215
370
    35
100
AcDbVertex
100
AcDb2dVertex
 10
2.50041029188368
 20
4.898019578721788
 30
0.0
  0
VERTEX
  5
1B5
330
16D
100
AcDbEntity
  8
Layer 1
 62
     7
420
 16777215
370
    35
100
AcDbVertex
100
AcDb2dVertex
 10
2.522360059950087
 20
4.886839972601996
 30
0.0
  0
VERTEX
  5
1B6
330
16D
100
AcDbEntity
  8
Layer 1
 62
     7
420
 16777215
370
    35
100
AcDbVertex
100
AcDb2dVertex
 10
2.546690199110243
 20
4.882980346679688
 30
0.0
  0
VERTEX
  5
1B7
330
16D
100
AcDbEntity
  8
Layer 1
 62
     7
420
 16777215
370
    35
100
AcDbVertex
100
AcDb2dVertex
 10
2.559049818250868
 20
4.882980346679688
 30
0.0
  0
VERTEX
  5
1B8
330
16D
100
AcDbEntity
  8
Layer 1
 62
     7
420
 16777215
370
    35
100
AcDbVertex
100
AcDb2dVertex
 10
2.56478034125434
 20
4.871730380588107
 30
0.0
  0
VERTEX
  5
1B9
330
16D
100
AcDbEntity
  8
Layer 1
 62
     7
420
 16777215
370
    35
100
AcDbVertex
100
AcDb2dVertex
 10
2.584359910753038
 20
4.852149963378906
 30
0.0
  0
VERTEX
  5
1BA
330
16D
100
AcDbEntity
  8
Layer 1
 62
     7
420
 16777215
370
    35
100
AcDbVertex
100
AcDb2dVertex
 10
2.609029981825087
 20
4.83958011203342
 30
0.0
  0
VERTEX
  5
1BB
330
16D
100
AcDbEntity
  8
Layer 1
 62
     7
420
 16777215
370
    35
100
AcDbVertex
100
AcDb2dVertex
 10
2.636379665798611
 20
4.835250006781684
 30
0.0
  0
VERTEX
  5
1BC
330
16D
100
AcDbEntity
  8
Layer 1
 62
     7
420
 16777215
370
    35
100
AcDbVertex
100
AcDb2dVertex
 10
2.68333011203342
 20
4.835250006781684
 30
0.0
  0
VERTEX
  5
1BD
330
16D
100
AcDbEntity
  8
Layer 1
 62
     7
420
 16777215
370
    35
100
AcDbVertex
100
AcDb2dVertex
 10
2.68333011203342
 20
4.752979702419704
 30
0.0
  0
VERTEX
  5
1BE
330
16D
100
AcDbEntity
  8
Layer 1
 62
     7
420
 16777215
370
    35
100
AcDbVertex
100
AcDb2dVertex
 10
2.63499026828342
 20
4.752979702419704
 30
0.0
  0
VERTEX
  5
1BF
330
16D
100
AcDbEntity
  8
Layer 1
 62
     7
420
 16777215
370
    35
100
AcDbVertex
100
AcDb2dVertex
 10
2.607209947374132
 20
4.748809814453125
 30
0.0
  0
VERTEX
  5
1C0
330
16D
100
AcDbEntity
  8
Layer 1
 62
     7
420
 16777215
370
    35
100
AcDbVertex
100
AcDb2dVertex
 10
2.582210116916233
 20
4.736310323079427
 30
0.0
  0
VERTEX
  5
1C1
330
16D
100
AcDbEntity
  8
Layer 1
 62
     7
420
 16777215
370
    35
100
AcDbVertex
100
AcDb2dVertex
 10
2.562760247124566
 20
4.71686045328776
 30
0.0
  0
VERTEX
  5
1C2
330
16D
100
AcDbEntity
  8
Layer 1
 62
     7
420
 16777215
370
    35
100
AcDbVertex
100
AcDb2dVertex
 10
2.557210286458333
 20
4.70574951171875
 30
0.0
  0
VERTEX
  5
1C3
330
16D
100
AcDbEntity
  8
Layer 1
 62
     7
420
 16777215
370
    35
100
AcDbVertex
100
AcDb2dVertex
 10
2.544709947374132
 20
4.70574951171875
 30
0.0
  0
VERTEX
  5
1C4
330
16D
100
AcDbEntity
  8
Layer 1
 62
     7
420
 16777215
370
    35
100
AcDbVertex
100
AcDb2dVertex
 10
2.519710116916233
 20
4.701589796278212
 30
0.0
  0
VERTEX
  5
1C5
330
16D
100
AcDbEntity
  8
Layer 1
 62
     7
420
 16777215
370
    35
100
AcDbVertex
100
AcDb2dVertex
 10
2.497489929199219
 20
4.690479702419704
 30
0.0
  0
VERTEX
  5
1C6
330
16D
100
AcDbEntity
  8
Layer 1
 62
     7
420
 16777215
370
    35
100
AcDbVertex
100
AcDb2dVertex
 10
2.479430304633246
 20
4.672420077853732
 30
0.0
  0
VERTEX
  5
1C7
330
16D
100
AcDbEntity
  8
Layer 1
 62
     7
420
 16777215
370
    35
100
AcDbVertex
100
AcDb2dVertex
 10
2.468320210774739
 20
4.650199890136719
 30
0.0
  0
VERTEX
  5
1C8
330
16D
100
AcDbEntity
  8
Layer 1
 62
     7
420
 16777215
370
    35
100
AcDbVertex
100
AcDb2dVertex
 10
2.464150322808159
 20
4.625200059678819
 30
0.0
  0
VERTEX
  5
1C9
330
16D
100
AcDbEntity
  8
Layer 1
 62
     7
420
 16777215
370
    35
100
AcDbVertex
100
AcDb2dVertex
 10
2.464150322808159
 20
4.191869947645399
 30
0.0
  0
VERTEX
  5
1CA
330
16D
100
AcDbEntity
  8
Layer 1
 62
     7
420
 16777215
370
    35
100
AcDbVertex
100
AcDb2dVertex
 10
2.68333011203342
 20
4.191869947645399
 30
0.0
  0
VERTEX
  5
1CB
330
16D
100
AcDbEntity
  8
Layer 1
 62
     7
420
 16777215
370
    35
100
AcDbVertex
100
AcDb2dVertex
 10
2.68333011203342
 20
4.103369818793403
 30
0.0
  0
VERTEX
  5
1CC
330
16D
100
AcDbEntity
  8
Layer 1
 62
     7
420
 16777215
370
    35
100
AcDbVertex
100
AcDb2dVertex
 10
2.63499026828342
 20
4.103369818793403
 30
0.0
  0
VERTEX
  5
1CD
330
16D
100
AcDbEntity
  8
Layer 1
 62
     7
420
 16777215
370
    35
100
AcDbVertex
100
AcDb2dVertex
 10
2.607209947374132
 20
4.099199930826822
 30
0.0
  0
VERTEX
  5
1CE
330
16D
100
AcDbEntity
  8
Layer 1
 62
     7
420
 16777215
370
    35
100
AcDbVertex
100
AcDb2dVertex
 10
2.582210116916233
 20
4.086699591742621
 30
0.0
  0
VERTEX
  5
1CF
330
16D
100
AcDbEntity
  8
Layer 1
 62
     7
420
 16777215
370
    35
100
AcDbVertex
100
AcDb2dVertex
 10
2.562760247124566
 20
4.067259894476996
 30
0.0
  0
VERTEX
  5
1D0
330
16D
100
AcDbEntity
  8
Layer 1
 62
     7
420
 16777215
370
    35
100
AcDbVertex
100
AcDb2dVertex
 10
2.557210286458333
 20
4.056149800618489
 30
0.0
  0
VERTEX
  5
1D1
330
16D
100
AcDbEntity
  8
Layer 1
 62
     7
420
 16777215
370
    35
100
AcDbVertex
100
AcDb2dVertex
 10
2.544709947374132
 20
4.056149800618489
 30
0.0
  0
VERTEX
  5
1D2
330
16D
100
AcDbEntity
  8
Layer 1
 62
     7
420
 16777215
370
    35
100
AcDbVertex
100
AcDb2dVertex
 10
2.519710116916233
 20
4.05197991265191
 30
0.0
  0
VERTEX
  5
1D3
330
16D
100
AcDbEntity
  8
Layer 1
 62
     7
420
 16777215
370
    35
100
AcDbVertex
100
AcDb2dVertex
 10
2.497489929199219
 20
4.040869818793403
 30
0.0
  0
VERTEX
  5
1D4
330
16D
100
AcDbEntity
  8
Layer 1
 62
     7
420
 16777215
370
    35
100
AcDbVertex
100
AcDb2dVertex
 10
2.479430304633246
 20
4.02281019422743
 30
0.0
  0
VERTEX
  5
1D5
330
16D
100
AcDbEntity
  8
Layer 1
 62
     7
420
 16777215
370
    35
100
AcDbVertex
100
AcDb2dVertex
 10
2.468320210774739
 20
4.000590006510416
 30
0.0
  0
VERTEX
  5
1D6
330
16D
100
AcDbEntity
  8
Layer 1
 62
     7
420
 16777215
370
    35
100
AcDbVertex
100
AcDb2dVertex
 10
2.464150322808159
 20
3.975590176052517
 30
0.0
  0
VERTEX
  5
1D7
330
16D
100
AcDbEntity
  8
Layer 1
 62
     7
420
 16777215
370
    35
100
AcDbVertex
100
AcDb2dVertex
 10
2.464150322808159
 20
3.542260064019097
 30
0.0
  0
VERTEX
  5
1D8
330
16D
100
AcDbEntity
  8
Layer 1
 62
     7
420
 16777215
370
    35
100
AcDbVertex
100
AcDb2dVertex
 10
13.47669898139106
 20
3.542260064019097
 30
0.0
  0
VERTEX
  5
1D9
330
16D
100
AcDbEntity
  8
Layer 1
 62
     7
420
 16777215
370
    35
100
AcDbVertex
100
AcDb2dVertex
 10
13.47669898139106
 20
3.975590176052517
 30
0.0
  0
VERTEX
  5
1DA
330
16D
100
AcDbEntity
  8
Layer 1
 62
     7
420
 16777215
370
    35
100
AcDbVertex
100
AcDb2dVertex
 10
13.47249942355686
 20
4.000590006510416
 30
0.0
  0
VERTEX
  5
1DB
330
16D
100
AcDbEntity
  8
Layer 1
 62
     7
420
 16777215
370
    35
100
AcDbVertex
100
AcDb2dVertex
 10
13.46139950222439
 20
4.02281019422743
 30
0.0
  0
VERTEX
  5
1DC
330
16D
100
AcDbEntity
  8
Layer 1
 62
     7
420
 16777215
370
    35
100
AcDbVertex
100
AcDb2dVertex
 10
13.44329918755425
 20
4.040869818793403
 30
0.0
  0
VERTEX
  5
1DD
330
16D
100
AcDbEntity
  8
Layer 1
 62
     7
420
 16777215
370
    35
100
AcDbVertex
100
AcDb2dVertex
 10
13.42109934488932
 20
4.05197991265191
 30
0.0
  0
VERTEX
  5
1DE
330
16D
100
AcDbEntity
  8
Layer 1
 62
     7
420
 16777215
370
    35
100
AcDbVertex
100
AcDb2dVertex
 10
13.39609951443142
 20
4.056149800618489
 30
0.0
  0
VERTEX
  5
1DF
330
16D
100
AcDbEntity
  8
Layer 1
 62
     7
420
 16777215
370
    35
100
AcDbVertex
100
AcDb2dVertex
 10
13.38359917534722
 20
4.056149800618489
 30
0.0
  0
VERTEX
  5
1E0
330
16D
100
AcDbEntity
  8
Layer 1
 62
     7
420
 16777215
370
    35
100
AcDbVertex
100
AcDb2dVertex
 10
13.37799919976128
 20
4.067259894476996
 30
0.0
  0
VERTEX
  5
1E1
330
16D
100
AcDbEntity
  8
Layer 1
 62
     7
420
 16777215
370
    35
100
AcDbVertex
100
AcDb2dVertex
 10
13.35859934488932
 20
4.086699591742621
 30
0.0
  0
VERTEX
  5
1E2
330
16D
100
AcDbEntity
  8
Layer 1
 62
     7
420
 16777215
370
    35
100
AcDbVertex
100
AcDb2dVertex
 10
13.33359951443142
 20
4.099199930826822
 30
0.0
  0
VERTEX
  5
1E3
330
16D
100
AcDbEntity
  8
Layer 1
 62
     7
420
 16777215
370
    35
100
AcDbVertex
100
AcDb2dVertex
 10
13.30579969618056
 20
4.103369818793403
 30
0.0
  0
VERTEX
  5
1E4
330
16D
100
AcDbEntity
  8
Layer 1
 62
     7
420
 16777215
370
    35
100
AcDbVertex
100
AcDb2dVertex
 10
13.25728607177734
 20
4.103369818793403
 30
0.0
  0
VERTEX
  5
1E5
330
16D
100
AcDbEntity
  8
Layer 1
 62
     7
420
 16777215
370
    35
100
AcDbVertex
100
AcDb2dVertex
 10
13.25728607177734
 20
4.191869947645399
 30
0.0
  0
VERTEX
  5
1E6
330
16D
100
AcDbEntity
  8
Layer 1
 62
     7
420
 16777215
370
    35
100
AcDbVertex
100
AcDb2dVertex
 10
13.47669898139106
 20
4.191869947645399
 30
0.0
  0
VERTEX
  5
1E7
330
16D
100
AcDbEntity
  8
Layer 1
 62
     7
420
 16777215
370
    35
100
AcDbVertex
100
AcDb2dVertex
 10
13.47669898139106
 20
4.625200059678819
 30
0.0
  0
VERTEX
  5
1E8
330
16D
100
AcDbEntity
  8
Layer 1
 62
     7
420
 16777215
370
    35
100
AcDbVertex
100
AcDb2dVertex
 10
13.47249942355686
 20
4.650199890136719
 30
0.0
  0
VERTEX
  5
1E9
330
16D
100
AcDbEntity
  8
Layer 1
 62
     7
420
 16777215
370
    35
100
AcDbVertex
100
AcDb2dVertex
 10
13.46139950222439
 20
4.672420077853732
 30
0.0
  0
VERTEX
  5
1EA
330
16D
100
AcDbEntity
  8
Layer 1
 62
     7
420
 16777215
370
    35
100
AcDbVertex
100
AcDb2dVertex
 10
13.44329918755425
 20
4.690479702419704
 30
0.0
  0
VERTEX
  5
1EB
330
16D
100
AcDbEntity
  8
Layer 1
 62
     7
420
 16777215
370
    35
100
AcDbVertex
100
AcDb2dVertex
 10
13.42109934488932
 20
4.701589796278212
 30
0.0
  0
VERTEX
  5
1EC
330
16D
100
AcDbEntity
  8
Layer 1
 62
     7
420
 16777215
370
    35
100
AcDbVertex
100
AcDb2dVertex
 10
13.39609951443142
 20
4.70574951171875
 30
0.0
  0
VERTEX
  5
1ED
330
16D
100
AcDbEntity
  8
Layer 1
 62
     7
420
 16777215
370
    35
100
AcDbVertex
100
AcDb2dVertex
 10
13.38359917534722
 20
4.70574951171875
 30
0.0
  0
VERTEX
  5
1EE
330
16D
100
AcDbEntity
  8
Layer 1
 62
     7
420
 16777215
370
    35
100
AcDbVertex
100
AcDb2dVertex
 10
13.37799919976128
 20
4.71686045328776
 30
0.0
  0
VERTEX
  5
1EF
330
16D
100
AcDbEntity
  8
Layer 1
 62
     7
420
 16777215
370
    35
100
AcDbVertex
100
AcDb2dVertex
 10
13.35859934488932
 20
4.736310323079427
 30
0.0
  0
VERTEX
  5
1F0
330
16D
100
AcDbEntity
  8
Layer 1
 62
     7
420
 16777215
370
    35
100
AcDbVertex
100
AcDb2dVertex
 10
13.33359951443142
 20
4.748809814453125
 30
0.0
  0
VERTEX
  5
1F1
330
16D
100
AcDbEntity
  8
Layer 1
 62
     7
420
 16777215
370
    35
100
AcDbVertex
100
AcDb2dVertex
 10
13.30579969618056
 20
4.752979702419704
 30
0.0
  0
VERTEX
  5
1F2
330
16D
100
AcDbEntity
  8
Layer 1
 62
     7
420
 16777215
370
    35
100
AcDbVertex
100
AcDb2dVertex
 10
13.25728607177734
 20
4.752979702419704
 30
0.0
  0
VERTEX
  5
1F3
330
16D
100
AcDbEntity
  8
Layer 1
 62
     7
420
 16777215
370
    35
100
AcDbVertex
100
AcDb2dVertex
 10
13.25728607177734
 20
4.882980346679688
 30
0.0
  0
VERTEX
  5
1F4
330
16D
100
AcDbEntity
  8
Layer 1
 62
     7
420
 16777215
370
    35
100
AcDbVertex
100
AcDb2dVertex
 10
14.08329942491319
 20
4.882980346679688
 30
0.0
  0
VERTEX
  5
1F5
330
16D
100
AcDbEntity
  8
Layer 1
 62
     7
420
 16777215
370
    35
100
AcDbVertex
100
AcDb2dVertex
 10
14.08899943033854
 20
4.871730380588107
 30
0.0
  0
VERTEX
  5
1F6
330
16D
100
AcDbEntity
  8
Layer 1
 62
     7
420
 16777215
370
    35
100
AcDbVertex
100
AcDb2dVertex
 10
14.10859934488932
 20
4.852149963378906
 30
0.0
  0
VERTEX
  5
1F7
330
16D
100
AcDbEntity
  8
Layer 1
 62
     7
420
 16777215
370
    35
100
AcDbVertex
100
AcDb2dVertex
 10
14.13319905598958
 20
4.83958011203342
 30
0.0
  0
VERTEX
  5
1F8
330
16D
100
AcDbEntity
  8
Layer 1
 62
     7
420
 16777215
370
    35
100
AcDbVertex
100
AcDb2dVertex
 10
14.16059960259332
 20
4.835250006781684
 30
0.0
  0
VERTEX
  5
1F9
330
16D
100
AcDbEntity
  8
Layer 1
 62
     7
420
 16777215
370
    35
100
AcDbVertex
100
AcDb2dVertex
 10
14.41429816351996
 20
4.835250006781684
 30
0.0
  0
VERTEX
  5
1FA
330
16D
100
AcDbEntity
  8
Layer 1
 62
     7
420
 16777215
370
    35
100
AcDbVertex
100
AcDb2dVertex
 10
14.4416995578342
 20
4.83958011203342
 30
0.0
  0
VERTEX
  5
1FB
330
16D
100
AcDbEntity
  8
Layer 1
 62
     7
420
 16777215
370
    35
100
AcDbVertex
100
AcDb2dVertex
 10
14.46629842122396
 20
4.852149963378906
 30
0.0
  0
VERTEX
  5
1FC
330
16D
100
AcDbEntity
  8
Layer 1
 62
     7
420
 16777215
370
    35
100
AcDbVertex
100
AcDb2dVertex
 10
14.48589918348524
 20
4.871730380588107
 30
0.0
  0
VERTEX
  5
1FD
330
16D
100
AcDbEntity
  8
Layer 1
 62
     7
420
 16777215
370
    35
100
AcDbVertex
100
AcDb2dVertex
 10
14.49159918891059
 20
4.882980346679688
 30
0.0
  0
VERTEX
  5
1FE
330
16D
100
AcDbEntity
  8
Layer 1
 62
     7
420
 16777215
370
    35
100
AcDbVertex
100
AcDb2dVertex
 10
14.50399949815538
 20
4.882980346679688
 30
0.0
  0
VERTEX
  5
1FF
330
16D
100
AcDbEntity
  8
Layer 1
 62
     7
420
 16777215
370
    35
100
AcDbVertex
100
AcDb2dVertex
 10
14.52829827202691
 20
4.886839972601996
 30
0.0
  0
VERTEX
  5
200
330
16D
100
AcDbEntity
  8
Layer 1
 62
     7
420
 16777215
370
    35
100
AcDbVertex
100
AcDb2dVertex
 10
14.55019972059462
 20
4.898019578721788
 30
0.0
  0
VERTEX
  5
201
330
16D
100
AcDbEntity
  8
Layer 1
 62
     7
420
 16777215
370
    35
100
AcDbVertex
100
AcDb2dVertex
 10
14.56769816080729
 20
4.915440029568142
 30
0.0
  0
VERTEX
  5
202
330
16D
100
AcDbEntity
  8
Layer 1
 62
     7
420
 16777215
370
    35
100
AcDbVertex
100
AcDb2dVertex
 10
14.57889811197917
 20
4.937389797634548
 30
0.0
  0
VERTEX
  5
203
330
16D
100
AcDbEntity
  8
Layer 1
 62
     7
420
 16777215
370
    35
100
AcDbVertex
100
AcDb2dVertex
 10
14.58269924587674
 20
4.961719936794704
 30
0.0
  0
VERTEX
  5
204
330
16D
100
AcDbEntity
  8
Layer 1
 62
     7
420
 16777215
370
    35
100
AcDbVertex
100
AcDb2dVertex
 10
14.58269924587674
 20
5.552269829644097
 30
0.0
  0
VERTEX
  5
205
330
16D
100
AcDbEntity
  8
Layer 1
 62
     7
420
 16777215
370
    35
100
AcDbVertex
100
AcDb2dVertex
 10
14.57889811197917
 20
5.576599968804254
 30
0.0
  0
VERTEX
  5
206
330
16D
100
AcDbEntity
  8
Layer 1
 62
     7
420
 16777215
370
    35
100
AcDbVertex
100
AcDb2dVertex
 10
14.56769816080729
 20
5.598559909396701
 30
0.0
  0
VERTEX
  5
207
330
16D
100
AcDbEntity
  8
Layer 1
 62
     7
420
 16777215
370
    35
100
AcDbVertex
100
AcDb2dVertex
 10
14.55019972059462
 20
5.615970187717013
 30
0.0
  0
VERTEX
  5
208
330
16D
100
AcDbEntity
  8
Layer 1
 62
     7
420
 16777215
370
    35
100
AcDbVertex
100
AcDb2dVertex
 10
14.52829827202691
 20
5.627159966362847
 30
0.0
  0
VERTEX
  5
209
330
16D
100
AcDbEntity
  8
Layer 1
 62
     7
420
 16777215
370
    35
100
AcDbVertex
100
AcDb2dVertex
 10
14.50399949815538
 20
5.631010267469618
 30
0.0
  0
VERTEX
  5
20A
330
16D
100
AcDbEntity
  8
Layer 1
 62
     7
420
 16777215
370
    35
100
AcDbVertex
100
AcDb2dVertex
 10
14.49159918891059
 20
5.631010267469618
 30
0.0
  0
VERTEX
  5
20B
330
16D
100
AcDbEntity
  8
Layer 1
 62
     7
420
 16777215
370
    35
100
AcDbVertex
100
AcDb2dVertex
 10
14.48589918348524
 20
5.642260233561197
 30
0.0
  0
VERTEX
  5
20C
330
16D
100
AcDbEntity
  8
Layer 1
 62
     7
420
 16777215
370
    35
100
AcDbVertex
100
AcDb2dVertex
 10
14.46629842122396
 20
5.661839803059896
 30
0.0
  0
VERTEX
  5
20D
330
16D
100
AcDbEntity
  8
Layer 1
 62
     7
420
 16777215
370
    35
100
AcDbVertex
100
AcDb2dVertex
 10
14.4416995578342
 20
5.674409654405381
 30
0.0
  0
VERTEX
  5
20E
330
16D
100
AcDbEntity
  8
Layer 1
 62
     7
420
 16777215
370
    35
100
AcDbVertex
100
AcDb2dVertex
 10
14.41429816351996
 20
5.67874993218316
 30
0.0
  0
VERTEX
  5
20F
330
16D
100
AcDbEntity
  8
Layer 1
 62
     7
420
 16777215
370
    35
100
AcDbVertex
100
AcDb2dVertex
 10
14.36619059244792
 20
5.67874993218316
 30
0.0
  0
VERTEX
  5
210
330
16D
100
AcDbEntity
  8
Layer 1
 62
     7
420
 16777215
370
    35
100
AcDbVertex
100
AcDb2dVertex
 10
14.36619059244792
 20
5.760449727376302
 30
0.0
  0
VERTEX
  5
211
330
16D
100
AcDbEntity
  8
Layer 1
 62
     7
420
 16777215
370
    35
100
AcDbVertex
100
AcDb2dVertex
 10
14.41429816351996
 20
5.760449727376302
 30
0.0
  0
SEQEND
  5
212
330
16D
100
AcDbEntity
  8
Layer 1
 62
     7
420
 16777215
370
    35
  0
POLYLINE
  5
213
330
1F
100
AcDbEntity
  8
Layer 1
 62
     7
420
 16777215
370
    35
100
AcDb2dPolyline
 66
     1
 10
0.0
 20
0.0
 30
0.0
  0
VERTEX
  5
214
330
213
100
AcDbEntity
  8
Layer 1
 62
     7
420
 16777215
370
    35
100
AcDbVertex
100
AcDb2dVertex
 10
5.999322679307725
 20
5.808180067274305
 30
0.0
  0
VERTEX
  5
215
330
213
100
AcDbEntity
  8
Layer 1
 62
     7
420
 16777215
370
    35
100
AcDbVertex
100
AcDb2dVertex
 10
10.22218577067057
 20
5.808180067274305
 30
0.0
  0
VERTEX
  5
216
330
213
100
AcDbEntity
  8
Layer 1
 62
     7
420
 16777215
370
    35
100
AcDbVertex
100
AcDb2dVertex
 10
10.22218577067057
 20
5.631010267469618
 30
0.0
  0
VERTEX
  5
217
330
213
100
AcDbEntity
  8
Layer 1
 62
     7
420
 16777215
370
    35
100
AcDbVertex
100
AcDb2dVertex
 10
5.999322679307725
 20
5.631010267469618
 30
0.0
  0
VERTEX
  5
218
330
213
100
AcDbEntity
  8
Layer 1
 62
     7
420
 16777215
370
    35
100
AcDbVertex
100
AcDb2dVertex
 10
5.999322679307725
 20
5.808180067274305
 30
0.0
  0
SEQEND
  5
219
330
213
100
AcDbEntity
  8
Layer 1
 62
     7
420
 16777215
370
    35
  0
POLYLINE
  5
21A
330
1F
100
AcDbEntity
  8
Layer 1
 62
     7
420
 16777215
370
    35
100
AcDb2dPolyline
 66
     1
 10
0.0
 20
0.0
 30
0.0
  0
VERTEX
  5
21B
330
21A
100
AcDbEntity
  8
Layer 1
 62
     7
420
 16777215
370
    35
100
AcDbVertex
100
AcDb2dVertex
 10
2.840810139973958
 20
5.760449727376302
 30
0.0
  0
VERTEX
  5
21C
330
21A
100
AcDbEntity
  8
Layer 1
 62
     7
420
 16777215
370
    35
100
AcDbVertex
100
AcDb2dVertex
 10
2.890079922146267
 20
5.760449727376302
 30
0.0
  0
VERTEX
  5
21D
330
21A
100
AcDbEntity
  8
Layer 1
 62
     7
420
 16777215
370
    35
100
AcDbVertex
100
AcDb2dVertex
 10
2.917429606119792
 20
5.764779832628038
 30
0.0
  0
VERTEX
  5
21E
330
21A
100
AcDbEntity
  8
Layer 1
 62
     7
420
 16777215
370
    35
100
AcDbVertex
100
AcDb2dVertex
 10
2.94209967719184
 20
5.777349683973524
 30
0.0
  0
VERTEX
  5
21F
330
21A
100
AcDbEntity
  8
Layer 1
 62
     7
420
 16777215
370
    35
100
AcDbVertex
100
AcDb2dVertex
 10
2.961680094401042
 20
5.796930101182725
 30
0.0
  0
VERTEX
  5
220
330
21A
100
AcDbEntity
  8
Layer 1
 62
     7
420
 16777215
370
    35
100
AcDbVertex
100
AcDb2dVertex
 10
2.96740976969401
 20
5.808180067274305
 30
0.0
  0
VERTEX
  5
221
330
21A
100
AcDbEntity
  8
Layer 1
 62
     7
420
 16777215
370
    35
100
AcDbVertex
100
AcDb2dVertex
 10
5.841841803656684
 20
5.808180067274305
 30
0.0
  0
VERTEX
  5
222
330
21A
100
AcDbEntity
  8
Layer 1
 62
     7
420
 16777215
370
    35
100
AcDbVertex
100
AcDb2dVertex
 10
5.841841803656684
 20
5.631010267469618
 30
0.0
  0
VERTEX
  5
223
330
21A
100
AcDbEntity
  8
Layer 1
 62
     7
420
 16777215
370
    35
100
AcDbVertex
100
AcDb2dVertex
 10
2.96740976969401
 20
5.631010267469618
 30
0.0
  0
VERTEX
  5
224
330
21A
100
AcDbEntity
  8
Layer 1
 62
     7
420
 16777215
370
    35
100
AcDbVertex
100
AcDb2dVertex
 10
2.961680094401042
 20
5.642260233561197
 30
0.0
  0
VERTEX
  5
225
330
21A
100
AcDbEntity
  8
Layer 1
 62
     7
420
 16777215
370
    35
100
AcDbVertex
100
AcDb2dVertex
 10
2.94209967719184
 20
5.661839803059896
 30
0.0
  0
VERTEX
  5
226
330
21A
100
AcDbEntity
  8
Layer 1
 62
     7
420
 16777215
370
    35
100
AcDbVertex
100
AcDb2dVertex
 10
2.917429606119792
 20
5.674409654405381
 30
0.0
  0
VERTEX
  5
227
330
21A
100
AcDbEntity
  8
Layer 1
 62
     7
420
 16777215
370
    35
100
AcDbVertex
100
AcDb2dVertex
 10
2.890079922146267
 20
5.67874993218316
 30
0.0
  0
VERTEX
  5
228
330
21A
100
AcDbEntity
  8
Layer 1
 62
     7
420
 16777215
370
    35
100
AcDbVertex
100
AcDb2dVertex
 10
2.840810139973958
 20
5.67874993218316
 30
0.0
  0
VERTEX
  5
229
330
21A
100
AcDbEntity
  8
Layer 1
 62
     7
420
 16777215
370
    35
100
AcDbVertex
100
AcDb2dVertex
 10
2.840810139973958
 20
5.760449727376302
 30
0.0
  0
SEQEND
  5
22A
330
21A
100
AcDbEntity
  8
Layer 1
 62
     7
420
 16777215
370
    35
  0
POLYLINE
  5
22B
330
1F
100
AcDbEntity
  8
Layer 1
 62
     7
420
 16777215
370
    35
100
AcDb2dPolyline
 66
     1
 10
0.0
 20
0.0
 30
0.0
  0
VERTEX
  5
22C
330
22B
100
AcDbEntity
  8
Layer 1
 62
     7
420
 16777215
370
    35
100
AcDbVertex
100
AcDb2dVertex
 10
5.287506951226129
 20
4.056149800618489
 30
0.0
  0
VERTEX
  5
22D
330
22B
100
AcDbEntity
  8
Layer 1
 62
     7
420
 16777215
370
    35
100
AcDbVertex
100
AcDb2dVertex
 10
2.966929965549045
 20
4.056149800618489
 30
0.0
  0
VERTEX
  5
22E
330
22B
100
AcDbEntity
  8
Layer 1
 62
     7
420
 16777215
370
    35
100
AcDbVertex
100
AcDb2dVertex
 10
2.961369832356771
 20
4.067259894476996
 30
0.0
  0
VERTEX
  5
22F
330
22B
100
AcDbEntity
  8
Layer 1
 62
     7
420
 16777215
370
    35
100
AcDbVertex
100
AcDb2dVertex
 10
2.941930135091146
 20
4.086699591742621
 30
0.0
  0
VERTEX
  5
230
330
22B
100
AcDbEntity
  8
Layer 1
 62
     7
420
 16777215
370
    35
100
AcDbVertex
100
AcDb2dVertex
 10
2.916930304633246
 20
4.099199930826822
 30
0.0
  0
VERTEX
  5
231
330
22B
100
AcDbEntity
  8
Layer 1
 62
     7
420
 16777215
370
    35
100
AcDbVertex
100
AcDb2dVertex
 10
2.889149983723958
 20
4.103369818793403
 30
0.0
  0
VERTEX
  5
232
330
22B
100
AcDbEntity
  8
Layer 1
 62
     7
420
 16777215
370
    35
100
AcDbVertex
100
AcDb2dVertex
 10
2.840810139973958
 20
4.103369818793403
 30
0.0
  0
VERTEX
  5
233
330
22B
100
AcDbEntity
  8
Layer 1
 62
     7
420
 16777215
370
    35
100
AcDbVertex
100
AcDb2dVertex
 10
2.840810139973958
 20
4.191869947645399
 30
0.0
  0
VERTEX
  5
234
330
22B
100
AcDbEntity
  8
Layer 1
 62
     7
420
 16777215
370
    35
100
AcDbVertex
100
AcDb2dVertex
 10
5.287506951226129
 20
4.191869947645399
 30
0.0
  0
VERTEX
  5
235
330
22B
100
AcDbEntity
  8
Layer 1
 62
     7
420
 16777215
370
    35
100
AcDbVertex
100
AcDb2dVertex
 10
5.287506951226129
 20
4.056149800618489
 30
0.0
  0
SEQEND
  5
236
330
22B
100
AcDbEntity
  8
Layer 1
 62
     7
420
 16777215
370
    35
  0
POLYLINE
  5
237
330
1F
100
AcDbEntity
  8
Layer 1
 62
     7
420
 16777215
370
    35
100
AcDb2dPolyline
 66
     1
 10
0.0
 20
0.0
 30
0.0
  0
VERTEX
  5
238
330
237
100
AcDbEntity
  8
Layer 1
 62
     7
420
 16777215
370
    35
100
AcDbVertex
100
AcDb2dVertex
 10
5.287506951226129
 20
4.70574951171875
 30
0.0
  0
VERTEX
  5
239
330
237
100
AcDbEntity
  8
Layer 1
 62
     7
420
 16777215
370
    35
100
AcDbVertex
100
AcDb2dVertex
 10
2.966929965549045
 20
4.70574951171875
 30
0.0
  0
VERTEX
  5
23A
330
237
100
AcDbEntity
  8
Layer 1
 62
     7
420
 16777215
370
    35
100
AcDbVertex
100
AcDb2dVertex
 10
2.961369832356771
 20
4.71686045328776
 30
0.0
  0
VERTEX
  5
23B
330
237
100
AcDbEntity
  8
Layer 1
 62
     7
420
 16777215
370
    35
100
AcDbVertex
100
AcDb2dVertex
 10
2.941930135091146
 20
4.736310323079427
 30
0.0
  0
VERTEX
  5
23C
330
237
100
AcDbEntity
  8
Layer 1
 62
     7
420
 16777215
370
    35
100
AcDbVertex
100
AcDb2dVertex
 10
2.916930304633246
 20
4.748809814453125
 30
0.0
  0
VERTEX
  5
23D
330
237
100
AcDbEntity
  8
Layer 1
 62
     7
420
 16777215
370
    35
100
AcDbVertex
100
AcDb2dVertex
 10
2.889149983723958
 20
4.752979702419704
 30
0.0
  0
VERTEX
  5
23E
330
237
100
AcDbEntity
  8
Layer 1
 62
     7
420
 16777215
370
    35
100
AcDbVertex
100
AcDb2dVertex
 10
2.840810139973958
 20
4.752979702419704
 30
0.0
  0
VERTEX
  5
23F
330
237
100
AcDbEntity
  8
Layer 1
 62
     7
420
 16777215
370
    35
100
AcDbVertex
100
AcDb2dVertex
 10
2.840810139973958
 20
4.835250006781684
 30
0.0
  0
VERTEX
  5
240
330
237
100
AcDbEntity
  8
Layer 1
 62
     7
420
 16777215
370
    35
100
AcDbVertex
100
AcDb2dVertex
 10
2.890079922146267
 20
4.835250006781684
 30
0.0
  0
VERTEX
  5
241
330
237
100
AcDbEntity
  8
Layer 1
 62
     7
420
 16777215
370
    35
100
AcDbVertex
100
AcDb2dVertex
 10
2.917429606119792
 20
4.83958011203342
 30
0.0
  0
VERTEX
  5
242
330
237
100
AcDbEntity
  8
Layer 1
 62
     7
420
 16777215
370
    35
100
AcDbVertex
100
AcDb2dVertex
 10
2.94209967719184
 20
4.852149963378906
 30
0.0
  0
VERTEX
  5
243
330
237
100
AcDbEntity
  8
Layer 1
 62
     7
420
 16777215
370
    35
100
AcDbVertex
100
AcDb2dVertex
 10
2.961680094401042
 20
4.871730380588107
 30
0.0
  0
VERTEX
  5
244
330
237
100
AcDbEntity
  8
Layer 1
 62
     7
420
 16777215
370
    35
100
AcDbVertex
100
AcDb2dVertex
 10
2.96740976969401
 20
4.882980346679688
 30
0.0
  0
VERTEX
  5
245
330
237
100
AcDbEntity
  8
Layer 1
 62
     7
420
 16777215
370
    35
100
AcDbVertex
100
AcDb2dVertex
 10
5.287506951226129
 20
4.882980346679688
 30
0.0
  0
VERTEX
  5
246
330
237
100
AcDbEntity
  8
Layer 1
 62
     7
420
 16777215
370
    35
100
AcDbVertex
100
AcDb2dVertex
 10
5.287506951226129
 20
4.70574951171875
 30
0.0
  0
SEQEND
  5
247
330
237
100
AcDbEntity
  8
Layer 1
 62
     7
420
 16777215
370
    35
  0
POLYLINE
  5
248
330
1F
100
AcDbEntity
  8
Layer 1
 62
     7
420
 16777215
370
    35
100
AcDb2dPolyline
 66
     1
 10
0.0
 20
0.0
 30
0.0
  0
VERTEX
  5
249
330
248
100
AcDbEntity
  8
Layer 1
 62
     7
420
 16777215
370
    35
100
AcDbVertex
100
AcDb2dVertex
 10
9.667850918240017
 20
4.056149800618489
 30
0.0
  0
VERTEX
  5
24A
330
248
100
AcDbEntity
  8
Layer 1
 62
     7
420
 16777215
370
    35
100
AcDbVertex
100
AcDb2dVertex
 10
5.444986979166666
 20
4.056149800618489
 30
0.0
  0
VERTEX
  5
24B
330
248
100
AcDbEntity
  8
Layer 1
 62
     7
420
 16777215
370
    35
100
AcDbVertex
100
AcDb2dVertex
 10
5.444986979166666
 20
4.191869947645399
 30
0.0
  0
VERTEX
  5
24C
330
248
100
AcDbEntity
  8
Layer 1
 62
     7
420
 16777215
370
    35
100
AcDbVertex
100
AcDb2dVertex
 10
9.667850918240017
 20
4.191869947645399
 30
0.0
  0
VERTEX
  5
24D
330
248
100
AcDbEntity
  8
Layer 1
 62
     7
420
 16777215
370
    35
100
AcDbVertex
100
AcDb2dVertex
 10
9.667850918240017
 20
4.056149800618489
 30
0.0
  0
SEQEND
  5
24E
330
248
100
AcDbEntity
  8
Layer 1
 62
     7
420
 16777215
370
    35
  0
POLYLINE
  5
24F
330
1F
100
AcDbEntity
  8
Layer 1
 62
     7
420
 16777215
370
    35
100
AcDb2dPolyline
 66
     1
 10
0.0
 20
0.0
 30
0.0
  0
VERTEX
  5
250
330
24F
100
AcDbEntity
  8
Layer 1
 62
     7
420
 16777215
370
    35
100
AcDbVertex
100
AcDb2dVertex
 10
9.667850918240017
 20
4.70574951171875
 30
0.0
  0
VERTEX
  5
251
330
24F
100
AcDbEntity
  8
Layer 1
 62
     7
420
 16777215
370
    35
100
AcDbVertex
100
AcDb2dVertex
 10
5.444986979166666
 20
4.70574951171875
 30
0.0
  0
VERTEX
  5
252
330
24F
100
AcDbEntity
  8
Layer 1
 62
     7
420
 16777215
370
    35
100
AcDbVertex
100
AcDb2dVertex
 10
5.444986979166666
 20
4.882980346679688
 30
0.0
  0
VERTEX
  5
253
330
24F
100
AcDbEntity
  8
Layer 1
 62
     7
420
 16777215
370
    35
100
AcDbVertex
100
AcDb2dVertex
 10
9.667850918240017
 20
4.882980346679688
 30
0.0
  0
VERTEX
  5
254
330
24F
100
AcDbEntity
  8
Layer 1
 62
     7
420
 16777215
370
    35
100
AcDbVertex
100
AcDb2dVertex
 10
9.667850918240017
 20
4.70574951171875
 30
0.0
  0
SEQEND
  5
255
330
24F
100
AcDbEntity
  8
Layer 1
 62
     7
420
 16777215
370
    35
  0
POLYLINE
  5
256
330
1F
100
AcDbEntity
  8
Layer 1
 62
     7
420
 16777215
370
    35
100
AcDb2dPolyline
 66
     1
 10
0.0
 20
0.0
 30
0.0
  0
VERTEX
  5
257
330
256
100
AcDbEntity
  8
Layer 1
 62
     7
420
 16777215
370
    35
100
AcDbVertex
100
AcDb2dVertex
 10
13.09980604383681
 20
4.103369818793403
 30
0.0
  0
VERTEX
  5
258
330
256
100
AcDbEntity
  8
Layer 1
 62
     7
420
 16777215
370
    35
100
AcDbVertex
100
AcDb2dVertex
 10
13.05169932047526
 20
4.103369818793403
 30
0.0
  0
VERTEX
  5
259
330
256
100
AcDbEntity
  8
Layer 1
 62
     7
420
 16777215
370
    35
100
AcDbVertex
100
AcDb2dVertex
 10
13.02389950222439
 20
4.099199930826822
 30
0.0
  0
VERTEX
  5
25A
330
256
100
AcDbEntity
  8
Layer 1
 62
     7
420
 16777215
370
    35
100
AcDbVertex
100
AcDb2dVertex
 10
12.99889967176649
 20
4.086699591742621
 30
0.0
  0
VERTEX
  5
25B
330
256
100
AcDbEntity
  8
Layer 1
 62
     7
420
 16777215
370
    35
100
AcDbVertex
100
AcDb2dVertex
 10
12.97939893934462
 20
4.067259894476996
 30
0.0
  0
VERTEX
  5
25C
330
256
100
AcDbEntity
  8
Layer 1
 62
     7
420
 16777215
370
    35
100
AcDbVertex
100
AcDb2dVertex
 10
12.97389899359809
 20
4.056149800618489
 30
0.0
  0
VERTEX
  5
25D
330
256
100
AcDbEntity
  8
Layer 1
 62
     7
420
 16777215
370
    35
100
AcDbVertex
100
AcDb2dVertex
 10
9.825330946180555
 20
4.056149800618489
 30
0.0
  0
VERTEX
  5
25E
330
256
100
AcDbEntity
  8
Layer 1
 62
     7
420
 16777215
370
    35
100
AcDbVertex
100
AcDb2dVertex
 10
9.825330946180555
 20
4.191869947645399
 30
0.0
  0
VERTEX
  5
25F
330
256
100
AcDbEntity
  8
Layer 1
 62
     7
420
 16777215
370
    35
100
AcDbVertex
100
AcDb2dVertex
 10
13.09980604383681
 20
4.191869947645399
 30
0.0
  0
VERTEX
  5
260
330
256
100
AcDbEntity
  8
Layer 1
 62
     7
420
 16777215
370
    35
100
AcDbVertex
100
AcDb2dVertex
 10
13.09980604383681
 20
4.103369818793403
 30
0.0
  0
SEQEND
  5
261
330
256
100
AcDbEntity
  8
Layer 1
 62
     7
420
 16777215
370
    35
  0
POLYLINE
  5
262
330
1F
100
AcDbEntity
  8
Layer 1
 62
     7
420
 16777215
370
    35
100
AcDb2dPolyline
 66
     1
 10
0.0
 20
0.0
 30
0.0
  0
VERTEX
  5
263
330
262
100
AcDbEntity
  8
Layer 1
 62
     7
420
 16777215
370
    35
100
AcDbVertex
100
AcDb2dVertex
 10
13.09980604383681
 20
4.752979702419704
 30
0.0
  0
VERTEX
  5
264
330
262
100
AcDbEntity
  8
Layer 1
 62
     7
420
 16777215
370
    35
100
AcDbVertex
100
AcDb2dVertex
 10
13.05169932047526
 20
4.752979702419704
 30
0.0
  0
VERTEX
  5
265
330
262
100
AcDbEntity
  8
Layer 1
 62
     7
420
 16777215
370
    35
100
AcDbVertex
100
AcDb2dVertex
 10
13.02389950222439
 20
4.748809814453125
 30
0.0
  0
VERTEX
  5
266
330
262
100
AcDbEntity
  8
Layer 1
 62
     7
420
 16777215
370
    35
100
AcDbVertex
100
AcDb2dVertex
 10
12.99889967176649
 20
4.736310323079427
 30
0.0
  0
VERTEX
  5
267
330
262
100
AcDbEntity
  8
Layer 1
 62
     7
420
 16777215
370
    35
100
AcDbVertex
100
AcDb2dVertex
 10
12.97939893934462
 20
4.71686045328776
 30
0.0
  0
VERTEX
  5
268
330
262
100
AcDbEntity
  8
Layer 1
 62
     7
420
 16777215
370
    35
100
AcDbVertex
100
AcDb2dVertex
 10
12.97389899359809
 20
4.70574951171875
 30
0.0
  0
VERTEX
  5
269
330
262
100
AcDbEntity
  8
Layer 1
 62
     7
420
 16777215
370
    35
100
AcDbVertex
100
AcDb2dVertex
 10
9.825330946180555
 20
4.70574951171875
 30
0.0
  0
VERTEX
  5
26A
330
262
100
AcDbEntity
  8
Layer 1
 62
     7
420
 16777215
370
    35
100
AcDbVertex
100
AcDb2dVertex
 10
9.825330946180555
 20
4.882980346679688
 30
0.0
  0
VERTEX
  5
26B
330
262
100
AcDbEntity
  8
Layer 1
 62
     7
420
 16777215
370
    35
100
AcDbVertex
100
AcDb2dVertex
 10
13.09980604383681
 20
4.882980346679688
 30
0.0
  0
VERTEX
  5
26C
330
262
100
AcDbEntity
  8
Layer 1
 62
     7
420
 16777215
370
    35
100
AcDbVertex
100
AcDb2dVertex
 10
13.09980604383681
 20
4.752979702419704
 30
0.0
  0
SEQEND
  5
26D
330
262
100
AcDbEntity
  8
Layer 1
 62
     7
420
 16777215
370
    35
  0
POLYLINE
  5
26E
330
1F
100
AcDbEntity
  8
Layer 1
 62
     7
420
 16777215
370
    35
100
AcDb2dPolyline
 66
     1
 10
0.0
 20
0.0
 30
0.0
  0
VERTEX
  5
26F
330
26E
100
AcDbEntity
  8
Layer 1
 62
     7
420
 16777215
370
    35
100
AcDbVertex
100
AcDb2dVertex
 10
14.20870886908637
 20
5.67874993218316
 30
0.0
  0
VERTEX
  5
270
330
26E
100
AcDbEntity
  8
Layer 1
 62
     7
420
 16777215
370
    35
100
AcDbVertex
100
AcDb2dVertex
 10
14.16059960259332
 20
5.67874993218316
 30
0.0
  0
VERTEX
  5
271
330
26E
100
AcDbEntity
  8
Layer 1
 62
     7
420
 16777215
370
    35
100
AcDbVertex
100
AcDb2dVertex
 10
14.13319905598958
 20
5.674409654405381
 30
0.0
  0
VERTEX
  5
272
330
26E
100
AcDbEntity
  8
Layer 1
 62
     7
420
 16777215
370
    35
100
AcDbVertex
100
AcDb2dVertex
 10
14.10859934488932
 20
5.661839803059896
 30
0.0
  0
VERTEX
  5
273
330
26E
100
AcDbEntity
  8
Layer 1
 62
     7
420
 16777215
370
    35
100
AcDbVertex
100
AcDb2dVertex
 10
14.08899943033854
 20
5.642260233561197
 30
0.0
  0
VERTEX
  5
274
330
26E
100
AcDbEntity
  8
Layer 1
 62
     7
420
 16777215
370
    35
100
AcDbVertex
100
AcDb2dVertex
 10
14.08329942491319
 20
5.631010267469618
 30
0.0
  0
VERTEX
  5
275
330
26E
100
AcDbEntity
  8
Layer 1
 62
     7
420
 16777215
370
    35
100
AcDbVertex
100
AcDb2dVertex
 10
10.37966579861111
 20
5.631010267469618
 30
0.0
  0
VERTEX
  5
276
330
26E
100
AcDbEntity
  8
Layer 1
 62
     7
420
 16777215
370
    35
100
AcDbVertex
100
AcDb2dVertex
 10
10.37966579861111
 20
5.808180067274305
 30
0.0
  0
VERTEX
  5
277
330
26E
100
AcDbEntity
  8
Layer 1
 62
     7
420
 16777215
370
    35
100
AcDbVertex
100
AcDb2dVertex
 10
14.08329942491319
 20
5.808180067274305
 30
0.0
  0
VERTEX
  5
278
330
26E
100
AcDbEntity
  8
Layer 1
 62
     7
420
 16777215
370
    35
100
AcDbVertex
100
AcDb2dVertex
 10
14.08899943033854
 20
5.796930101182725
 30
0.0
  0
VERTEX
  5
279
330
26E
100
AcDbEntity
  8
Layer 1
 62
     7
420
 16777215
370
    35
100
AcDbVertex
100
AcDb2dVertex
 10
14.10859934488932
 20
5.777349683973524
 30
0.0
  0
VERTEX
  5
27A
330
26E
100
AcDbEntity
  8
Layer 1
 62
     7
420
 16777215
370
    35
100
AcDbVertex
100
AcDb2dVertex
 10
14.13319905598958
 20
5.764779832628038
 30
0.0
  0
VERTEX
  5
27B
330
26E
100
AcDbEntity
  8
Layer 1
 62
     7
420
 16777215
370
    35
100
AcDbVertex
100
AcDb2dVertex
 10
14.16059960259332
 20
5.760449727376302
 30
0.0
  0
VERTEX
  5
27C
330
26E
100
AcDbEntity
  8
Layer 1
 62
     7
420
 16777215
370
    35
100
AcDbVertex
100
AcDb2dVertex
 10
14.20870886908637
 20
5.760449727376302
 30
0.0
  0
VERTEX
  5
27D
330
26E
100
AcDbEntity
  8
Layer 1
 62
     7
420
 16777215
370
    35
100
AcDbVertex
100
AcDb2dVertex
 10
14.20870886908637
 20
5.67874993218316
 30
0.0
  0
SEQEND
  5
27E
330
26E
100
AcDbEntity
  8
Layer 1
 62
     7
420
 16777215
370
    35
  0
ENDSEC
  0
SECTION
  2
OBJECTS
  0
DICTIONARY
  5
C
330
0
100
AcDbDictionary
281
     1
  3
ACAD_GROUP
350
D
  3
ACAD_LAYOUT
350
1A
  3
ACAD_MATERIAL
350
3B
  3
ACAD_MLEADERSTYLE
350
280
  3
ACAD_MLINESTYLE
350
17
  3
ACAD_PLOTSETTINGS
350
19
  3
ACAD_PLOTSTYLENAME
350
E
  3
ACAD_TABLESTYLE
350
27F
  3
ACAD_VISUALSTYLE
350
2A
  0
SUN
  5
3F
330
29
100
AcDbSun
 90
        1
290
     0
 63
     7
421
 16777215
 40
1.0
291
     1
 91
  2455826
 92
 54000000
292
     0
 70
     2
 71
   256
280
     1
  0
DICTIONARY
  5
D
102
{ACAD_REACTORS
330
C
102
}
330
C
100
AcDbDictionary
281
     1
  0
DICTIONARY
  5
1A
102
{ACAD_REACTORS
330
C
102
}
330
C
100
AcDbDictionary
281
     1
  3
Layout1
350
1E
  3
Layout2
350
26
  3
Model
350
22
  0
DICTIONARY
  5
3B
102
{ACAD_REACTORS
330
C
102
}
330
C
100
AcDbDictionary
281
     1
  3
ByBlock
350
3D
  3
ByLayer
350
3C
  3
Global
350
3E
  0
DICTIONARY
  5
280
102
{ACAD_REACTORS
330
C
102
}
330
C
100
AcDbDictionary
281
     1
  0
DICTIONARY
  5
17
102
{ACAD_REACTORS
330
C
102
}
330
C
100
AcDbDictionary
281
     1
  3
Standard
350
18
  0
DICTIONARY
  5
19
102
{ACAD_REACTORS
330
C
102
}
330
C
100
AcDbDictionary
281
     1
  0
ACDBDICTIONARYWDFLT
  5
E
102
{ACAD_REACTORS
330
C
102
}
330
C
100
AcDbDictionary
281
     1
  3
Normal
350
F
100
AcDbDictionaryWithDefault
340
F
  0
DICTIONARY
  5
27F
102
{ACAD_REACTORS
330
C
102
}
330
C
100
AcDbDictionary
281
     1
  0
DICTIONARY
  5
2A
102
{ACAD_REACTORS
330
C
102
}
330
C
100
AcDbDictionary
281
     1
  3
2dWireframe
350
2F
  3
3D Hidden
350
31
  3
3dWireframe
350
30
  3
Basic
350
32
  3
Brighten
350
36
  3
ColorChange
350
3A
  3
Conceptual
350
34
  3
Dim
350
35
  3
Facepattern
350
39
  3
Flat
350
2B
  3
FlatWithEdges
350
2C
  3
Gouraud
350
2D
  3
GouraudWithEdges
350
2E
  3
Linepattern
350
38
  3
Realistic
350
33
  3
Thicken
350
37
  0
LAYOUT
  5
1E
102
{ACAD_REACTORS
330
1A
102
}
330
1A
100
AcDbPlotSettings
  1

  2
none_device
  4

  6

 40
0.0
 41
0.0
 42
0.0
 43
0.0
 44
0.0
 45
0.0
 46
0.0
 47
0.0
 48
0.0
 49
0.0
140
0.0
141
0.0
142
1.0
143
1.0
 70
   688
 72
     0
 73
     0
 74
     5
  7

 75
    16
 76
     0
 77
     2
 78
   300
147
1.0
148
0.0
149
0.0
100
AcDbLayout
  1
Layout1
 70
     1
 71
     1
 10
0.0
 20
0.0
 11
12.0
 21
9.0
 12
0.0
 22
0.0
 32
0.0
 14
1.000000000000000E+20
 24
1.000000000000000E+20
 34
1.000000000000000E+20
 15
-1.000000000000000E+20
 25
-1.000000000000000E+20
 35
-1.000000000000000E+20
146
0.0
 13
0.0
 23
0.0
 33
0.0
 16
1.0
 26
0.0
 36
0.0
 17
0.0
 27
1.0
 37
0.0
 76
     0
330
1B
  0
LAYOUT
  5
26
102
{ACAD_REACTORS
330
1A
102
}
330
1A
100
AcDbPlotSettings
  1

  2
none_device
  4

  6

 40
0.0
 41
0.0
 42
0.0
 43
0.0
 44
0.0
 45
0.0
 46
0.0
 47
0.0
 48
0.0
 49
0.0
140
0.0
141
0.0
142
1.0
143
1.0
 70
   688
 72
     0
 73
     0
 74
     5
  7

 75
    16
 76
     0
 77
     2
 78
   300
147
1.0
148
0.0
149
0.0
100
AcDbLayout
  1
Layout2
 70
     1
 71
     2
 10
0.0
 20
0.0
 11
0.0
 21
0.0
 12
0.0
 22
0.0
 32
0.0
 14
0.0
 24
0.0
 34
0.0
 15
0.0
 25
0.0
 35
0.0
146
0.0
 13
0.0
 23
0.0
 33
0.0
 16
1.0
 26
0.0
 36
0.0
 17
0.0
 27
1.0
 37
0.0
 76
     0
330
23
  0
LAYOUT
  5
22
102
{ACAD_REACTORS
330
1A
102
}
330
1A
100
AcDbPlotSettings
  1

  2
none_device
  4

  6

 40
0.0
 41
0.0
 42
0.0
 43
0.0
 44
0.0
 45
0.0
 46
0.0
 47
0.0
 48
0.0
 49
0.0
140
0.0
141
0.0
142
1.0
143
1.0
 70
  1712
 72
     0
 73
     0
 74
     0
  7

 75
     0
 76
     0
 77
     2
 78
   300
147
1.0
148
0.0
149
0.0
100
AcDbLayout
  1
Model
 70
     1
 71
     0
 10
0.0
 20
0.0
 11
12.0
 21
9.0
 12
0.0
 22
0.0
 32
0.0
 14
1.000000000000000E+20
 24
1.000000000000000E+20
 34
1.000000000000000E+20
 15
-1.000000000000000E+20
 25
-1.000000000000000E+20
 35
-1.000000000000000E+20
146
0.0
 13
0.0
 23
0.0
 33
0.0
 16
1.0
 26
0.0
 36
0.0
 17
0.0
 27
1.0
 37
0.0
 76
     0
330
1F
331
29
  0
MATERIAL
  5
3D
102
{ACAD_REACTORS
330
3B
102
}
330
3B
100
AcDbMaterial
  1
ByBlock
 72
     1
 94
      127
  0
MATERIAL
  5
3C
102
{ACAD_REACTORS
330
3B
102
}
330
3B
100
AcDbMaterial
  1
ByLayer
 72
     1
 94
      127
  0
MATERIAL
  5
3E
102
{ACAD_REACTORS
330
3B
102
}
330
3B
100
AcDbMaterial
  1
Global
 72
     1
 94
      127
  0
MLINESTYLE
  5
18
102
{ACAD_REACTORS
330
17
102
}
330
17
100
AcDbMlineStyle
  2
Standard
 70
     0
  3

 62
   256
 51
90.0
 52
90.0
 71
     2
 49
0.5
 62
   256
  6
BYLAYER
 49
-0.5
 62
   256
  6
BYLAYER
  0
ACDBPLACEHOLDER
  5
F
102
{ACAD_REACTORS
330
E
102
}
330
E
  0
VISUALSTYLE
  5
2F
102
{ACAD_REACTORS
330
2A
102
}
330
2A
100
AcDbVisualStyle
  2
2dWireframe
 70
     4
177
     2
291
     0
 71
     0
176
     1
 72
     2
176
     1
 73
     0
176
     1
 90
        0
176
     1
 40
-0.6
176
     1
 41
-30.0
176
     1
 62
     5
 63
     7
421
 16777215
176
     1
 74
     1
176
     1
 91
        4
176
     1
 64
     7
176
     1
 65
   257
176
     1
 75
     1
176
     1
175
     1
176
     1
 42
1.0
176
     1
 92
        0
176
     1
 66
   257
176
     1
 43
1.0
176
     1
 76
     1
176
     1
 77
     6
176
     1
 78
     2
176
     1
 67
     7
176
     1
 79
     5
176
     1
170
     0
176
     1
171
     0
176
     1
290
     0
176
     1
 93
        1
176
     1
 44
0.0
176
     1
173
     0
176
     1
  0
VISUALSTYLE
  5
31
102
{ACAD_REACTORS
330
2A
102
}
330
2A
100
AcDbVisualStyle
  2
3D Hidden
 70
     6
177
     2
291
     0
 71
     1
176
     1
 72
     2
176
     1
 73
     2
176
     1
 90
        0
176
     1
 40
-0.6
176
     1
 41
-30.0
176
     1
 62
     5
 63
     7
421
 16777215
176
     1
 74
     2
176
     1
 91
        2
176
     1
 64
     7
176
     1
 65
   257
176
     1
 75
     2
176
     1
175
     1
176
     1
 42
40.0
176
     1
 92
        0
176
     1
 66
   257
176
     1
 43
1.0
176
     1
 76
     1
176
     1
 77
     6
176
     1
 78
     2
176
     1
 67
     7
176
     1
 79
     3
176
     1
170
     0
176
     1
171
     0
176
     1
290
     0
176
     1
 93
        1
176
     1
 44
0.0
176
     1
173
     0
176
     1
  0
VISUALSTYLE
  5
30
102
{ACAD_REACTORS
330
2A
102
}
330
2A
100
AcDbVisualStyle
  2
3dWireframe
 70
     5
177
     2
291
     0
 71
     0
176
     1
 72
     2
176
     1
 73
     0
176
     1
 90
        0
176
     1
 40
-0.6
176
     1
 41
-30.0
176
     1
 62
     5
 63
     7
421
 16777215
176
     1
 74
     1
176
     1
 91
        4
176
     1
 64
     7
176
     1
 65
   257
176
     1
 75
     1
176
     1
175
     1
176
     1
 42
1.0
176
     1
 92
        0
176
     1
 66
   257
176
     1
 43
1.0
176
     1
 76
     1
176
     1
 77
     6
176
     1
 78
     2
176
     1
 67
     7
176
     1
 79
     5
176
     1
170
     0
176
     1
171
     0
176
     1
290
     0
176
     1
 93
        1
176
     1
 44
0.0
176
     1
173
     0
176
     1
  0
VISUALSTYLE
  5
32
102
{ACAD_REACTORS
330
2A
102
}
330
2A
100
AcDbVisualStyle
  2
Basic
 70
     7
177
     2
291
     1
 71
     1
176
     1
 72
     0
176
     1
 73
     1
176
     1
 90
        0
176
     1
 40
-0.6
176
     1
 41
-30.0
176
     1
 62
     5
 63
     7
421
 16777215
176
     1
 74
     0
176
     1
 91
        4
176
     1
 64
     7
176
     1
 65
   257
176
     1
 75
     1
176
     1
175
     1
176
     1
 42
1.0
176
     1
 92
        8
176
     1
 66
     7
176
     1
 43
1.0
176
     1
 76
     1
176
     1
 77
     6
176
     1
 78
     2
176
     1
 67
     7
176
     1
 79
     5
176
     1
170
     0
176
     1
171
     0
176
     1
290
     0
176
     1
 93
        1
176
     1
 44
0.0
176
     1
173
     0
176
     1
  0
VISUALSTYLE
  5
36
102
{ACAD_REACTORS
330
2A
102
}
330
2A
100
AcDbVisualStyle
  2
Brighten
 70
    12
177
     2
291
     1
 71
     2
176
     1
 72
     2
176
     1
 73
     0
176
     1
 90
        0
176
     1
 40
-0.6
176
     1
 41
-30.0
176
     1
 62
     5
 63
     7
421
 16777215
176
     1
 74
     1
176
     1
 91
        4
176
     1
 64
     7
176
     1
 65
   257
176
     1
 75
     1
176
     1
175
     1
176
     1
 42
1.0
176
     1
 92
        8
176
     1
 66
     7
176
     1
 43
1.0
176
     1
 76
     1
176
     1
 77
     6
176
     1
 78
     2
176
     1
 67
     7
176
     1
 79
     5
176
     1
170
     0
176
     1
171
     0
176
     1
290
     0
176
     1
 93
        1
176
     1
 44
50.0
176
     1
173
     0
176
     1
  0
VISUALSTYLE
  5
3A
102
{ACAD_REACTORS
330
2A
102
}
330
2A
100
AcDbVisualStyle
  2
ColorChange
 70
    16
177
     2
291
     1
 71
     2
176
     1
 72
     2
176
     1
 73
     3
176
     1
 90
        0
176
     1
 40
-0.6
176
     1
 41
-30.0
176
     1
 62
     5
 63
     8
421
  8421504
176
     1
 74
     1
176
     1
 91
        4
176
     1
 64
     7
176
     1
 65
   257
176
     1
 75
     1
176
     1
175
     1
176
     1
 42
1.0
176
     1
 92
        8
176
     1
 66
     8
424
  8421504
176
     1
 43
1.0
176
     1
 76
     1
176
     1
 77
     6
176
     1
 78
     2
176
     1
 67
     7
176
     1
 79
     5
176
     1
170
     0
176
     1
171
     0
176
     1
290
     0
176
     1
 93
        1
176
     1
 44
0.0
176
     1
173
     0
176
     1
  0
VISUALSTYLE
  5
34
102
{ACAD_REACTORS
330
2A
102
}
330
2A
100
AcDbVisualStyle
  2
Conceptual
 70
     9
177
     2
291
     0
 71
     3
176
     1
 72
     2
176
     1
 73
     0
176
     1
 90
        0
176
     1
 40
-0.6
176
     1
 41
-30.0
176
     1
 62
     5
 63
     7
421
 16777215
176
     1
 74
     2
176
     1
 91
        2
176
     1
 64
     7
176
     1
 65
   257
176
     1
 75
     1
176
     1
175
     1
176
     1
 42
40.0
176
     1
 92
        8
176
     1
 66
     7
176
     1
 43
1.0
176
     1
 76
     1
176
     1
 77
     6
176
     1
 78
     2
176
     1
 67
     7
176
     1
 79
     3
176
     1
170
     0
176
     1
171
     0
176
     1
290
     0
176
     1
 93
        1
176
     1
 44
0.0
176
     1
173
     0
176
     1
  0
VISUALSTYLE
  5
35
102
{ACAD_REACTORS
330
2A
102
}
330
2A
100
AcDbVisualStyle
  2
Dim
 70
    11
177
     2
291
     1
 71
     2
176
     1
 72
     2
176
     1
 73
     0
176
     1
 90
        0
176
     1
 40
-0.6
176
     1
 41
-30.0
176
     1
 62
     5
 63
     7
421
 16777215
176
     1
 74
     1
176
     1
 91
        4
176
     1
 64
     7
176
     1
 65
   257
176
     1
 75
     1
176
     1
175
     1
176
     1
 42
1.0
176
     1
 92
        8
176
     1
 66
     7
176
     1
 43
1.0
176
     1
 76
     1
176
     1
 77
     6
176
     1
 78
     2
176
     1
 67
     7
176
     1
 79
     5
176
     1
170
     0
176
     1
171
     0
176
     1
290
     0
176
     1
 93
        1
176
     1
 44
-50.0
176
     1
173
     0
176
     1
  0
VISUALSTYLE
  5
39
102
{ACAD_REACTORS
330
2A
102
}
330
2A
100
AcDbVisualStyle
  2
Facepattern
 70
    15
177
     2
291
     1
 71
     2
176
     1
 72
     2
176
     1
 73
     0
176
     1
 90
        0
176
     1
 40
-0.6
176
     1
 41
-30.0
176
     1
 62
     5
 63
     7
421
 16777215
176
     1
 74
     1
176
     1
 91
        4
176
     1
 64
     7
176
     1
 65
   257
176
     1
 75
     1
176
     1
175
     1
176
     1
 42
1.0
176
     1
 92
        8
176
     1
 66
     7
176
     1
 43
1.0
176
     1
 76
     1
176
     1
 77
     6
176
     1
 78
     2
176
     1
 67
     7
176
     1
 79
     5
176
     1
170
     0
176
     1
171
     0
176
     1
290
     0
176
     1
 93
        1
176
     1
 44
0.0
176
     1
173
     0
176
     1
  0
VISUALSTYLE
  5
2B
102
{ACAD_REACTORS
330
2A
102
}
330
2A
100
AcDbVisualStyle
  2
Flat
 70
     0
177
     2
291
     1
 71
     2
176
     1
 72
     1
176
     1
 73
     1
176
     1
 90
        2
176
     1
 40
-0.6
176
     1
 41
30.0
176
     1
 62
     5
 63
     7
421
 16777215
176
     1
 74
     0
176
     1
 91
        4
176
     1
 64
     7
176
     1
 65
   257
176
     1
 75
     1
176
     1
175
     1
176
     1
 42
1.0
176
     1
 92
        8
176
     1
 66
     7
176
     1
 43
1.0
176
     1
 76
     1
176
     1
 77
     6
176
     1
 78
     2
176
     1
 67
     7
176
     1
 79
     5
176
     1
170
     0
176
     1
171
     0
176
     1
290
     0
176
     1
 93
       13
176
     1
 44
0.0
176
     1
173
     0
176
     1
  0
VISUALSTYLE
  5
2C
102
{ACAD_REACTORS
330
2A
102
}
330
2A
100
AcDbVisualStyle
  2
FlatWithEdges
 70
     1
177
     2
291
     1
 71
     2
176
     1
 72
     1
176
     1
 73
     1
176
     1
 90
        2
176
     1
 40
-0.6
176
     1
 41
30.0
176
     1
 62
     5
 63
     7
421
 16777215
176
     1
 74
     1
176
     1
 91
        4
176
     1
 64
     7
176
     1
 65
   257
176
     1
 75
     1
176
     1
175
     1
176
     1
 42
1.0
176
     1
 92
        0
176
     1
 66
   257
176
     1
 43
1.0
176
     1
 76
     1
176
     1
 77
     6
176
     1
 78
     2
176
     1
 67
     7
176
     1
 79
     5
176
     1
170
     0
176
     1
171
     0
176
     1
290
     0
176
     1
 93
       13
176
     1
 44
0.0
176
     1
173
     0
176
     1
  0
VISUALSTYLE
  5
2D
102
{ACAD_REACTORS
330
2A
102
}
330
2A
100
AcDbVisualStyle
  2
Gouraud
 70
     2
177
     2
291
     1
 71
     2
176
     1
 72
     2
176
     1
 73
     1
176
     1
 90
        2
176
     1
 40
-0.6
176
     1
 41
30.0
176
     1
 62
     5
 63
     7
421
 16777215
176
     1
 74
     0
176
     1
 91
        4
176
     1
 64
     7
176
     1
 65
   257
176
     1
 75
     1
176
     1
175
     1
176
     1
 42
1.0
176
     1
 92
        0
176
     1
 66
     7
176
     1
 43
1.0
176
     1
 76
     1
176
     1
 77
     6
176
     1
 78
     2
176
     1
 67
     7
176
     1
 79
     5
176
     1
170
     0
176
     1
171
     0
176
     1
290
     0
176
     1
 93
       13
176
     1
 44
0.0
176
     1
173
     0
176
     1
  0
VISUALSTYLE
  5
2E
102
{ACAD_REACTORS
330
2A
102
}
330
2A
100
AcDbVisualStyle
  2
GouraudWithEdges
 70
     3
177
     2
291
     1
 71
     2
176
     1
 72
     2
176
     1
 73
     1
176
     1
 90
        2
176
     1
 40
-0.6
176
     1
 41
30.0
176
     1
 62
     5
 63
     7
421
 16777215
176
     1
 74
     1
176
     1
 91
        4
176
     1
 64
     7
176
     1
 65
   257
176
     1
 75
     1
176
     1
175
     1
176
     1
 42
1.0
176
     1
 92
        0
176
     1
 66
   257
176
     1
 43
1.0
176
     1
 76
     1
176
     1
 77
     6
176
     1
 78
     2
176
     1
 67
     7
176
     1
 79
     5
176
     1
170
     0
176
     1
171
     0
176
     1
290
     0
176
     1
 93
       13
176
     1
 44
0.0
176
     1
173
     0
176
     1
  0
VISUALSTYLE
  5
38
102
{ACAD_REACTORS
330
2A
102
}
330
2A
100
AcDbVisualStyle
  2
Linepattern
 70
    14
177
     2
291
     1
 71
     2
176
     1
 72
     2
176
     1
 73
     0
176
     1
 90
        0
176
     1
 40
-0.6
176
     1
 41
-30.0
176
     1
 62
     5
 63
     7
421
 16777215
176
     1
 74
     1
176
     1
 91
        4
176
     1
 64
     7
176
     1
 65
   257
176
     1
 75
     7
176
     1
175
     7
176
     1
 42
1.0
176
     1
 92
        8
176
     1
 66
     7
176
     1
 43
1.0
176
     1
 76
     1
176
     1
 77
     6
176
     1
 78
     2
176
     1
 67
     7
176
     1
 79
     5
176
     1
170
     0
176
     1
171
     0
176
     1
290
     0
176
     1
 93
        1
176
     1
 44
0.0
176
     1
173
     0
176
     1
  0
VISUALSTYLE
  5
33
102
{ACAD_REACTORS
330
2A
102
}
330
2A
100
AcDbVisualStyle
  2
Realistic
 70
     8
177
     2
291
     0
 71
     2
176
     1
 72
     2
176
     1
 73
     0
176
     1
 90
        0
176
     1
 40
-0.6
176
     1
 41
-30.0
176
     1
 62
     5
 63
     7
421
 16777215
176
     1
 74
     1
176
     1
 91
        0
176
     1
 64
     7
176
     1
 65
   257
176
     1
 75
     1
176
     1
175
     1
176
     1
 42
1.0
176
     1
 92
        8
176
     1
 66
     8
424
  7895160
176
     1
 43
1.0
176
     1
 76
     1
176
     1
 77
     6
176
     1
 78
     2
176
     1
 67
     7
176
     1
 79
     5
176
     1
170
     0
176
     1
171
     0
176
     1
290
     0
176
     1
 93
       13
176
     1
 44
0.0
176
     1
173
     0
176
     1
  0
VISUALSTYLE
  5
37
102
{ACAD_REACTORS
330
2A
102
}
330
2A
100
AcDbVisualStyle
  2
Thicken
 70
    13
177
     2
291
     1
 71
     2
176
     1
 72
     2
176
     1
 73
     0
176
     1
 90
        0
176
     1
 40
-0.6
176
     1
 41
-30.0
176
     1
 62
     5
 63
     7
421
 16777215
176
     1
 74
     1
176
     1
 91
        4
176
     1
 64
     7
176
     1
 65
   257
176
     1
 75
     1
176
     1
175
     1
176
     1
 42
1.0
176
     1
 92
       12
176
     1
 66
     7
176
     1
 43
1.0
176
     1
 76
     1
176
     1
 77
     6
176
     1
 78
     2
176
     1
 67
     7
176
     1
 79
     5
176
     1
170
     0
176
     1
171
     0
176
     1
290
     0
176
     1
 93
        1
176
     1
 44
0.0
176
     1
173
     0
176
     1
  0
ENDSEC
  0
EOF
